<?xml version="1.0" encoding="utf-8" standalone="no"?>
<!DOCTYPE svg PUBLIC "-//W3C//DTD SVG 1.1//EN"
  "http://www.w3.org/Graphics/SVG/1.1/DTD/svg11.dtd">
<!-- Created with matplotlib (http://matplotlib.org/) -->
<svg height="345.6pt" version="1.1" viewBox="0 0 460.8 345.6" width="460.8pt" xmlns="http://www.w3.org/2000/svg" xmlns:xlink="http://www.w3.org/1999/xlink">
 <defs>
  <style type="text/css">
*{stroke-linecap:butt;stroke-linejoin:round;}
  </style>
 </defs>
 <g id="figure_1">
  <g id="patch_1">
   <path d="M 0 345.6 
L 460.8 345.6 
L 460.8 0 
L 0 0 
z
" style="fill:#ffffff;"/>
  </g>
  <g id="axes_1">
   <g id="patch_2">
    <path d="M 82.520165 307.584 
L 389.799835 307.584 
L 389.799835 41.472 
L 82.520165 41.472 
z
" style="fill:#ffffff;"/>
   </g>
   <g id="PathCollection_1">
    <defs>
     <path d="M 0 2.738613 
C 0.726289 2.738613 1.422928 2.450055 1.936492 1.936492 
C 2.450055 1.422928 2.738613 0.726289 2.738613 0 
C 2.738613 -0.726289 2.450055 -1.422928 1.936492 -1.936492 
C 1.422928 -2.450055 0.726289 -2.738613 0 -2.738613 
C -0.726289 -2.738613 -1.422928 -2.450055 -1.936492 -1.936492 
C -2.450055 -1.422928 -2.738613 -0.726289 -2.738613 0 
C -2.738613 0.726289 -2.450055 1.422928 -1.936492 1.936492 
C -1.422928 2.450055 -0.726289 2.738613 0 2.738613 
z
" id="me6211f7a0d" style="stroke:#000000;"/>
    </defs>
    <g clip-path="url(#p3775f004f2)">
     <use style="stroke:#000000;" x="281.788864" xlink:href="#me6211f7a0d" y="151.272749"/>
    </g>
   </g>
   <g id="Quiver_1">
    <path clip-path="url(#p3775f004f2)" d="M 282.239186 150.650383 
L 296.553609 161.007798 
L 296.831888 159.312743 
L 301.704583 165.683065 
L 294.129954 163.04694 
L 295.652965 162.25253 
L 281.338541 151.895116 
L 282.239186 150.650383 
"/>
   </g>
   <g id="patch_3">
    <path clip-path="url(#p3775f004f2)" d="M 236.16 225.741278 
C 249.74192 225.741278 262.769389 220.345124 272.373256 210.741256 
C 281.977124 201.137389 287.373278 188.10992 287.373278 174.528 
C 287.373278 160.94608 281.977124 147.918611 272.373256 138.314744 
C 262.769389 128.710876 249.74192 123.314722 236.16 123.314722 
C 222.57808 123.314722 209.550611 128.710876 199.946744 138.314744 
C 190.342876 147.918611 184.946722 160.94608 184.946722 174.528 
C 184.946722 188.10992 190.342876 201.137389 199.946744 210.741256 
C 209.550611 220.345124 222.57808 225.741278 236.16 225.741278 
z
" style="fill:#009900;fill-opacity:0.5;stroke:#009900;stroke-linejoin:miter;stroke-width:2;"/>
   </g>
   <g id="matplotlib.axis_1">
    <g id="xtick_1">
     <g id="line2d_1">
      <defs>
       <path d="M 0 0 
L 0 3.5 
" id="m8620db8b3b" style="stroke:#000000;stroke-width:0.8;"/>
      </defs>
      <g>
       <use style="stroke:#000000;stroke-width:0.8;" x="108.126804" xlink:href="#m8620db8b3b" y="307.584"/>
      </g>
     </g>
     <g id="text_1">
      <!-- −2 -->
      <defs>
       <path d="M 10.59375 35.5 
L 73.1875 35.5 
L 73.1875 27.203125 
L 10.59375 27.203125 
z
" id="DejaVuSans-2212"/>
       <path d="M 19.1875 8.296875 
L 53.609375 8.296875 
L 53.609375 0 
L 7.328125 0 
L 7.328125 8.296875 
Q 12.9375 14.109375 22.625 23.890625 
Q 32.328125 33.6875 34.8125 36.53125 
Q 39.546875 41.84375 41.421875 45.53125 
Q 43.3125 49.21875 43.3125 52.78125 
Q 43.3125 58.59375 39.234375 62.25 
Q 35.15625 65.921875 28.609375 65.921875 
Q 23.96875 65.921875 18.8125 64.3125 
Q 13.671875 62.703125 7.8125 59.421875 
L 7.8125 69.390625 
Q 13.765625 71.78125 18.9375 73 
Q 24.125 74.21875 28.421875 74.21875 
Q 39.75 74.21875 46.484375 68.546875 
Q 53.21875 62.890625 53.21875 53.421875 
Q 53.21875 48.921875 51.53125 44.890625 
Q 49.859375 40.875 45.40625 35.40625 
Q 44.1875 33.984375 37.640625 27.21875 
Q 31.109375 20.453125 19.1875 8.296875 
z
" id="DejaVuSans-32"/>
      </defs>
      <g transform="translate(100.755711 322.182437)scale(0.1 -0.1)">
       <use xlink:href="#DejaVuSans-2212"/>
       <use x="83.789062" xlink:href="#DejaVuSans-32"/>
      </g>
     </g>
    </g>
    <g id="xtick_2">
     <g id="line2d_2">
      <g>
       <use style="stroke:#000000;stroke-width:0.8;" x="172.143402" xlink:href="#m8620db8b3b" y="307.584"/>
      </g>
     </g>
     <g id="text_2">
      <!-- −1 -->
      <defs>
       <path d="M 12.40625 8.296875 
L 28.515625 8.296875 
L 28.515625 63.921875 
L 10.984375 60.40625 
L 10.984375 69.390625 
L 28.421875 72.90625 
L 38.28125 72.90625 
L 38.28125 8.296875 
L 54.390625 8.296875 
L 54.390625 0 
L 12.40625 0 
z
" id="DejaVuSans-31"/>
      </defs>
      <g transform="translate(164.772308 322.182437)scale(0.1 -0.1)">
       <use xlink:href="#DejaVuSans-2212"/>
       <use x="83.789062" xlink:href="#DejaVuSans-31"/>
      </g>
     </g>
    </g>
    <g id="xtick_3">
     <g id="line2d_3">
      <g>
       <use style="stroke:#000000;stroke-width:0.8;" x="236.16" xlink:href="#m8620db8b3b" y="307.584"/>
      </g>
     </g>
     <g id="text_3">
      <!-- 0 -->
      <defs>
       <path d="M 31.78125 66.40625 
Q 24.171875 66.40625 20.328125 58.90625 
Q 16.5 51.421875 16.5 36.375 
Q 16.5 21.390625 20.328125 13.890625 
Q 24.171875 6.390625 31.78125 6.390625 
Q 39.453125 6.390625 43.28125 13.890625 
Q 47.125 21.390625 47.125 36.375 
Q 47.125 51.421875 43.28125 58.90625 
Q 39.453125 66.40625 31.78125 66.40625 
z
M 31.78125 74.21875 
Q 44.046875 74.21875 50.515625 64.515625 
Q 56.984375 54.828125 56.984375 36.375 
Q 56.984375 17.96875 50.515625 8.265625 
Q 44.046875 -1.421875 31.78125 -1.421875 
Q 19.53125 -1.421875 13.0625 8.265625 
Q 6.59375 17.96875 6.59375 36.375 
Q 6.59375 54.828125 13.0625 64.515625 
Q 19.53125 74.21875 31.78125 74.21875 
z
" id="DejaVuSans-30"/>
      </defs>
      <g transform="translate(232.97875 322.182437)scale(0.1 -0.1)">
       <use xlink:href="#DejaVuSans-30"/>
      </g>
     </g>
    </g>
    <g id="xtick_4">
     <g id="line2d_4">
      <g>
       <use style="stroke:#000000;stroke-width:0.8;" x="300.176598" xlink:href="#m8620db8b3b" y="307.584"/>
      </g>
     </g>
     <g id="text_4">
      <!-- 1 -->
      <g transform="translate(296.995348 322.182437)scale(0.1 -0.1)">
       <use xlink:href="#DejaVuSans-31"/>
      </g>
     </g>
    </g>
    <g id="xtick_5">
     <g id="line2d_5">
      <g>
       <use style="stroke:#000000;stroke-width:0.8;" x="364.193196" xlink:href="#m8620db8b3b" y="307.584"/>
      </g>
     </g>
     <g id="text_5">
      <!-- 2 -->
      <g transform="translate(361.011946 322.182437)scale(0.1 -0.1)">
       <use xlink:href="#DejaVuSans-32"/>
      </g>
     </g>
    </g>
   </g>
   <g id="matplotlib.axis_2">
    <g id="ytick_1">
     <g id="line2d_6">
      <defs>
       <path d="M 0 0 
L -3.5 0 
" id="mf63ddb8298" style="stroke:#000000;stroke-width:0.8;"/>
      </defs>
      <g>
       <use style="stroke:#000000;stroke-width:0.8;" x="82.520165" xlink:href="#mf63ddb8298" y="302.561196"/>
      </g>
     </g>
     <g id="text_6">
      <!-- −2.0 -->
      <defs>
       <path d="M 10.6875 12.40625 
L 21 12.40625 
L 21 0 
L 10.6875 0 
z
" id="DejaVuSans-2e"/>
      </defs>
      <g transform="translate(51.237353 306.360414)scale(0.1 -0.1)">
       <use xlink:href="#DejaVuSans-2212"/>
       <use x="83.789062" xlink:href="#DejaVuSans-32"/>
       <use x="147.412109" xlink:href="#DejaVuSans-2e"/>
       <use x="179.199219" xlink:href="#DejaVuSans-30"/>
      </g>
     </g>
    </g>
    <g id="ytick_2">
     <g id="line2d_7">
      <g>
       <use style="stroke:#000000;stroke-width:0.8;" x="82.520165" xlink:href="#mf63ddb8298" y="270.552897"/>
      </g>
     </g>
     <g id="text_7">
      <!-- −1.5 -->
      <defs>
       <path d="M 10.796875 72.90625 
L 49.515625 72.90625 
L 49.515625 64.59375 
L 19.828125 64.59375 
L 19.828125 46.734375 
Q 21.96875 47.46875 24.109375 47.828125 
Q 26.265625 48.1875 28.421875 48.1875 
Q 40.625 48.1875 47.75 41.5 
Q 54.890625 34.8125 54.890625 23.390625 
Q 54.890625 11.625 47.5625 5.09375 
Q 40.234375 -1.421875 26.90625 -1.421875 
Q 22.3125 -1.421875 17.546875 -0.640625 
Q 12.796875 0.140625 7.71875 1.703125 
L 7.71875 11.625 
Q 12.109375 9.234375 16.796875 8.0625 
Q 21.484375 6.890625 26.703125 6.890625 
Q 35.15625 6.890625 40.078125 11.328125 
Q 45.015625 15.765625 45.015625 23.390625 
Q 45.015625 31 40.078125 35.4375 
Q 35.15625 39.890625 26.703125 39.890625 
Q 22.75 39.890625 18.8125 39.015625 
Q 14.890625 38.140625 10.796875 36.28125 
z
" id="DejaVuSans-35"/>
      </defs>
      <g transform="translate(51.237353 274.352116)scale(0.1 -0.1)">
       <use xlink:href="#DejaVuSans-2212"/>
       <use x="83.789062" xlink:href="#DejaVuSans-31"/>
       <use x="147.412109" xlink:href="#DejaVuSans-2e"/>
       <use x="179.199219" xlink:href="#DejaVuSans-35"/>
      </g>
     </g>
    </g>
    <g id="ytick_3">
     <g id="line2d_8">
      <g>
       <use style="stroke:#000000;stroke-width:0.8;" x="82.520165" xlink:href="#mf63ddb8298" y="238.544598"/>
      </g>
     </g>
     <g id="text_8">
      <!-- −1.0 -->
      <g transform="translate(51.237353 242.343817)scale(0.1 -0.1)">
       <use xlink:href="#DejaVuSans-2212"/>
       <use x="83.789062" xlink:href="#DejaVuSans-31"/>
       <use x="147.412109" xlink:href="#DejaVuSans-2e"/>
       <use x="179.199219" xlink:href="#DejaVuSans-30"/>
      </g>
     </g>
    </g>
    <g id="ytick_4">
     <g id="line2d_9">
      <g>
       <use style="stroke:#000000;stroke-width:0.8;" x="82.520165" xlink:href="#mf63ddb8298" y="206.536299"/>
      </g>
     </g>
     <g id="text_9">
      <!-- −0.5 -->
      <g transform="translate(51.237353 210.335518)scale(0.1 -0.1)">
       <use xlink:href="#DejaVuSans-2212"/>
       <use x="83.789062" xlink:href="#DejaVuSans-30"/>
       <use x="147.412109" xlink:href="#DejaVuSans-2e"/>
       <use x="179.199219" xlink:href="#DejaVuSans-35"/>
      </g>
     </g>
    </g>
    <g id="ytick_5">
     <g id="line2d_10">
      <g>
       <use style="stroke:#000000;stroke-width:0.8;" x="82.520165" xlink:href="#mf63ddb8298" y="174.528"/>
      </g>
     </g>
     <g id="text_10">
      <!-- 0.0 -->
      <g transform="translate(59.61704 178.327219)scale(0.1 -0.1)">
       <use xlink:href="#DejaVuSans-30"/>
       <use x="63.623047" xlink:href="#DejaVuSans-2e"/>
       <use x="95.410156" xlink:href="#DejaVuSans-30"/>
      </g>
     </g>
    </g>
    <g id="ytick_6">
     <g id="line2d_11">
      <g>
       <use style="stroke:#000000;stroke-width:0.8;" x="82.520165" xlink:href="#mf63ddb8298" y="142.519701"/>
      </g>
     </g>
     <g id="text_11">
      <!-- 0.5 -->
      <g transform="translate(59.61704 146.31892)scale(0.1 -0.1)">
       <use xlink:href="#DejaVuSans-30"/>
       <use x="63.623047" xlink:href="#DejaVuSans-2e"/>
       <use x="95.410156" xlink:href="#DejaVuSans-35"/>
      </g>
     </g>
    </g>
    <g id="ytick_7">
     <g id="line2d_12">
      <g>
       <use style="stroke:#000000;stroke-width:0.8;" x="82.520165" xlink:href="#mf63ddb8298" y="110.511402"/>
      </g>
     </g>
     <g id="text_12">
      <!-- 1.0 -->
      <g transform="translate(59.61704 114.310621)scale(0.1 -0.1)">
       <use xlink:href="#DejaVuSans-31"/>
       <use x="63.623047" xlink:href="#DejaVuSans-2e"/>
       <use x="95.410156" xlink:href="#DejaVuSans-30"/>
      </g>
     </g>
    </g>
    <g id="ytick_8">
     <g id="line2d_13">
      <g>
       <use style="stroke:#000000;stroke-width:0.8;" x="82.520165" xlink:href="#mf63ddb8298" y="78.503103"/>
      </g>
     </g>
     <g id="text_13">
      <!-- 1.5 -->
      <g transform="translate(59.61704 82.302322)scale(0.1 -0.1)">
       <use xlink:href="#DejaVuSans-31"/>
       <use x="63.623047" xlink:href="#DejaVuSans-2e"/>
       <use x="95.410156" xlink:href="#DejaVuSans-35"/>
      </g>
     </g>
    </g>
    <g id="ytick_9">
     <g id="line2d_14">
      <g>
       <use style="stroke:#000000;stroke-width:0.8;" x="82.520165" xlink:href="#mf63ddb8298" y="46.494804"/>
      </g>
     </g>
     <g id="text_14">
      <!-- 2.0 -->
      <g transform="translate(59.61704 50.294023)scale(0.1 -0.1)">
       <use xlink:href="#DejaVuSans-32"/>
       <use x="63.623047" xlink:href="#DejaVuSans-2e"/>
       <use x="95.410156" xlink:href="#DejaVuSans-30"/>
      </g>
     </g>
    </g>
   </g>
   <g id="line2d_15">
    <path clip-path="url(#p3775f004f2)" d="M 300.176598 63.648 
L 172.143402 63.648 
" style="fill:none;stroke:#009900;stroke-linecap:square;stroke-width:2;"/>
   </g>
   <g id="line2d_16">
    <path clip-path="url(#p3775f004f2)" d="M 172.143402 63.648 
L 108.126804 174.528 
" style="fill:none;stroke:#009900;stroke-linecap:square;stroke-width:2;"/>
   </g>
   <g id="line2d_17">
    <path clip-path="url(#p3775f004f2)" d="M 108.126804 174.528 
L 172.143402 285.408 
" style="fill:none;stroke:#009900;stroke-linecap:square;stroke-width:2;"/>
   </g>
   <g id="line2d_18">
    <path clip-path="url(#p3775f004f2)" d="M 172.143402 285.408 
L 300.176598 285.408 
" style="fill:none;stroke:#009900;stroke-linecap:square;stroke-width:2;"/>
   </g>
   <g id="line2d_19">
    <path clip-path="url(#p3775f004f2)" d="M 300.176598 285.408 
L 364.193196 174.528 
" style="fill:none;stroke:#009900;stroke-linecap:square;stroke-width:2;"/>
   </g>
   <g id="line2d_20">
    <path clip-path="url(#p3775f004f2)" d="M 364.193196 174.528 
L 300.176598 63.648 
" style="fill:none;stroke:#009900;stroke-linecap:square;stroke-width:2;"/>
   </g>
   <g id="line2d_21">
    <path clip-path="url(#p3775f004f2)" d="M 192.333029 220.492684 
L 191.35622 215.465722 
L 190.179168 210.481843 
L 188.803755 205.549021 
L 187.232182 200.675145 
L 185.466963 195.868015 
L 183.510922 191.135319 
L 181.367189 186.48463 
L 179.039192 181.923388 
L 176.530656 177.458889 
L 173.845595 173.098276 
L 170.988303 168.848525 
L 167.963352 164.716434 
L 164.775581 160.708614 
L 161.43009 156.831477 
L 157.932231 153.091225 
L 154.2876 149.493842 
L 150.502027 146.045083 
L 146.581568 142.750466 
L 142.532496 139.61526 
L 138.361288 136.644481 
L 134.074617 133.842883 
L 132.259633 132.728715 
L 133.947348 133.645154 
L 138.513156 135.964185 
L 143.168048 138.098777 
L 147.904577 140.045515 
L 152.715166 141.801286 
L 157.59212 143.36328 
L 162.527636 144.728998 
L 167.513818 145.896256 
L 172.542689 146.863186 
L 177.606205 147.628241 
L 182.696265 148.190198 
L 187.804725 148.548158 
L 191.943529 148.688039 
L 189.263918 144.324074 
L 186.411938 140.070757 
L 183.392152 135.93489 
L 180.209391 131.923091 
L 176.868746 128.041777 
L 173.375563 124.297158 
L 169.735429 120.695224 
L 165.954167 117.241738 
L 162.037828 113.942225 
L 157.992676 110.801963 
L 153.825183 107.825975 
L 149.542015 105.019024 
L 148.596777 104.431952 
L 149.72599 105.035371 
L 154.30148 107.335239 
L 158.96528 109.450296 
L 163.70993 111.377159 
L 168.527838 113.112746 
L 173.411297 114.65428 
L 178.352495 115.999294 
L 183.343527 117.145637 
L 188.376408 118.091475 
L 193.443087 118.835295 
L 198.535458 119.375907 
L 203.645374 119.712446 
L 208.764661 119.844373 
L 213.885129 119.771479 
L 218.998585 119.493878 
L 224.096851 119.012016 
L 229.171769 118.326663 
L 234.215221 117.438915 
L 239.219138 116.350193 
L 244.175515 115.062239 
L 249.076423 113.577113 
L 253.914022 111.897191 
L 258.680573 110.02516 
L 263.368449 107.964016 
L 267.970152 105.717055 
L 272.478319 103.287872 
L 276.885739 100.680354 
L 281.185361 97.898672 
L 285.370306 94.947276 
L 289.433878 91.830887 
L 293.369579 88.554492 
L 297.17111 85.123331 
L 300.83239 81.542894 
L 304.347563 77.818909 
L 306.770461 75.068906 
L 301.756011 76.108038 
L 296.787127 77.346863 
L 291.871756 78.7834 
L 287.017764 80.415351 
L 282.232915 82.240104 
L 277.524865 84.25474 
L 272.901144 86.456036 
L 268.369149 88.840472 
L 263.936132 91.404231 
L 259.609184 94.143213 
L 255.395228 97.053036 
L 251.301003 100.129045 
L 247.333062 103.366318 
L 243.49775 106.759677 
L 239.801205 110.303694 
L 236.249339 113.992698 
L 232.847835 117.820788 
L 229.602135 121.78184 
L 227.908597 123.983819 
L 223.631789 121.167188 
L 219.245766 118.523836 
L 214.757546 116.057993 
L 210.174309 113.773603 
L 205.503386 111.674321 
L 200.752251 109.763505 
L 195.928504 108.044212 
L 191.039862 106.519193 
L 186.094147 105.190888 
L 181.099269 104.061421 
L 176.063219 103.132599 
L 170.994055 102.405908 
L 165.899886 101.882511 
L 160.788862 101.563245 
L 155.669159 101.448622 
L 150.260674 101.549997 
L 152.732553 106.034896 
L 155.381803 110.417358 
L 158.204186 114.690373 
L 161.195187 118.847105 
L 164.350019 122.880903 
L 167.663638 126.785316 
L 171.13074 130.554096 
L 174.74578 134.181214 
L 178.502975 137.660868 
L 182.396313 140.987491 
L 186.419566 144.15576 
L 190.566299 147.160609 
L 192.190362 148.270224 
L 191.623275 147.973199 
L 187.034564 145.699824 
L 182.358613 143.611766 
L 177.602903 141.712367 
L 172.77504 140.004664 
L 167.88275 138.491391 
L 162.933858 137.174967 
L 157.936282 136.0575 
L 152.898016 135.140776 
L 147.827122 134.426262 
L 142.73171 133.915101 
L 137.619934 133.608112 
L 132.49997 133.505784 
L 131.809911 133.507655 
L 134.434851 137.904722 
L 137.233526 142.193302 
L 140.201461 146.366534 
L 143.333906 150.417742 
L 146.625851 154.340446 
L 150.072028 158.128369 
L 153.666926 161.775452 
L 157.404793 165.275859 
L 161.279648 168.623993 
L 165.285294 171.814495 
L 169.415322 174.842262 
L 173.663124 177.70245 
L 178.021906 180.390483 
L 182.484694 182.902061 
L 185.967759 184.703401 
L 182.712861 188.656898 
L 179.618664 192.737394 
L 176.690119 196.938362 
L 173.93191 201.253079 
L 171.34845 205.674644 
L 168.943872 210.195983 
L 166.722023 214.809863 
L 164.686457 219.508902 
L 162.840431 224.285584 
L 161.186898 229.132267 
L 159.728503 234.041196 
L 158.467579 239.004519 
L 157.406144 244.014295 
L 156.545895 249.06251 
L 155.88821 254.141087 
L 155.625951 256.798935 
L 160.310857 258.866823 
L 165.074709 260.74571 
L 169.909885 262.432591 
L 174.808652 263.924767 
L 179.763171 265.219851 
L 184.765516 266.315771 
L 189.807686 267.210775 
L 194.881612 267.903429 
L 199.979179 268.392626 
L 205.092231 268.677584 
L 210.212588 268.757846 
L 215.33206 268.633284 
L 220.442455 268.304098 
L 225.535598 267.770814 
L 230.603342 267.034285 
L 235.637579 266.095689 
L 240.630255 264.956529 
L 245.573383 263.618625 
L 250.459056 262.08412 
L 255.279456 260.355467 
L 260.026873 258.435433 
L 264.693712 256.327088 
L 269.272506 254.033805 
L 273.755931 251.559255 
L 278.136815 248.907394 
L 282.408147 246.082466 
L 286.563097 243.08899 
L 290.595015 239.931755 
L 294.497453 236.615811 
L 298.264167 233.146464 
L 301.889131 229.529264 
L 305.366546 225.769997 
L 308.690848 221.874678 
L 311.856721 217.849537 
L 314.859098 213.701016 
L 317.693178 209.43575 
L 320.354425 205.060562 
L 322.838582 200.582453 
L 325.141676 196.008586 
L 327.260022 191.346278 
L 329.190231 186.602988 
L 330.929214 181.786305 
L 332.474191 176.903934 
L 333.82269 171.963686 
L 334.972552 166.973463 
L 335.921939 161.94125 
L 336.669332 156.875097 
L 337.213534 151.783109 
L 337.553677 146.673432 
L 337.689214 141.554239 
L 337.61993 136.433721 
L 337.345935 131.32007 
L 336.999326 127.426836 
L 332.795061 124.503028 
L 328.477237 121.749684 
L 324.052763 119.171209 
L 319.528717 116.771729 
L 314.912336 114.555081 
L 310.211005 112.524813 
L 305.432245 110.684172 
L 300.583702 109.036102 
L 295.673133 107.583241 
L 290.708392 106.327912 
L 285.697422 105.272124 
L 280.648241 104.417566 
L 275.568925 103.765605 
L 270.467601 103.317284 
L 265.352429 103.07332 
L 260.231593 103.034104 
L 255.113284 103.199697 
L 250.005692 103.569836 
L 244.916987 104.143929 
L 239.85531 104.921055 
L 234.828758 105.899974 
L 229.845374 107.079117 
L 224.913128 108.4566 
L 220.039913 110.030218 
L 215.233524 111.797455 
L 210.50165 113.755481 
L 205.851861 115.901166 
L 201.291595 118.231077 
L 196.82815 120.741486 
L 192.468664 123.428377 
L 188.220112 126.287452 
L 184.089291 129.314137 
L 180.082809 132.503589 
L 176.207077 135.850707 
L 172.468293 139.350135 
L 168.87244 142.996276 
L 165.42527 146.783296 
L 162.132297 150.705137 
L 158.998791 154.755524 
L 156.029763 158.927979 
L 153.229964 163.215825 
L 150.603872 167.612204 
L 148.15569 172.110081 
L 145.889333 176.702262 
L 143.808426 181.3814 
L 141.9163 186.14001 
L 140.215981 190.970477 
L 138.71019 195.865076 
L 137.401334 200.815974 
L 136.291509 205.815253 
L 135.382489 210.854914 
L 134.675729 215.926896 
L 134.273114 219.814737 
L 138.95802 221.882625 
L 143.721872 223.761512 
L 148.557049 225.448393 
L 153.455815 226.940569 
L 158.410334 228.235653 
L 163.41268 229.331573 
L 168.454849 230.226577 
L 173.528776 230.919231 
L 178.626342 231.408428 
L 183.739394 231.693386 
L 188.859752 231.773648 
L 193.979223 231.649087 
L 199.089618 231.3199 
L 204.182762 230.786616 
L 209.250505 230.050087 
L 214.284742 229.111491 
L 219.277418 227.972331 
L 224.220547 226.634427 
L 228.78493 225.207465 
L 233.038175 228.059555 
L 237.40207 230.739279 
L 241.869635 233.242351 
L 246.433722 235.564765 
L 251.08703 237.702807 
L 255.822116 239.653055 
L 260.631402 241.412391 
L 265.507197 242.978 
L 270.441699 244.347376 
L 275.427014 245.518329 
L 280.455168 246.488987 
L 285.518115 247.257795 
L 290.607757 247.823525 
L 295.71595 248.185271 
L 300.834524 248.342454 
L 305.955289 248.294823 
L 311.070053 248.042454 
L 316.170634 247.585751 
L 321.248871 246.925444 
L 322.507519 246.72971 
L 320.587377 241.982337 
L 318.478927 237.315545 
L 316.185542 232.736802 
L 313.71089 228.253433 
L 311.058931 223.87261 
L 308.233907 219.601341 
L 305.240337 215.446459 
L 302.083011 211.414611 
L 298.76698 207.512248 
L 295.297548 203.745613 
L 291.680266 200.12073 
L 287.920921 196.6434 
L 283.855801 193.180357 
L 288.972519 193.389402 
L 294.093504 193.393665 
L 299.210562 193.19314 
L 304.315509 192.788147 
L 309.400177 192.179335 
L 314.456432 191.367678 
L 319.476185 190.354473 
L 324.451405 189.141343 
L 329.374134 187.730227 
L 334.236495 186.123383 
L 339.03071 184.323382 
L 343.749109 182.333103 
L 348.384144 180.155731 
L 352.9284 177.794748 
L 357.374607 175.253932 
L 361.715652 172.537347 
L 362.677242 171.902291 
L 362.104056 172.187368 
L 357.571332 174.570417 
L 353.137531 177.13282 
L 348.809745 179.870478 
L 344.594898 182.779011 
L 340.499733 185.853767 
L 336.530801 189.089827 
L 332.694452 192.482013 
L 328.996822 196.024898 
L 325.443828 199.712815 
L 322.041153 203.539865 
L 318.794241 207.499923 
L 315.708287 211.586656 
L 312.788226 215.793526 
L 310.038731 220.113801 
L 307.464201 224.540571 
L 305.068753 229.066754 
L 302.856221 233.685109 
L 300.830143 238.388247 
L 298.993761 243.168645 
L 297.350013 248.018655 
L 295.901529 252.930518 
L 294.650625 257.896375 
L 293.599304 262.908284 
L 292.749246 267.958225 
L 292.101812 273.038119 
L 291.658037 278.139841 
L 291.418632 283.255229 
L 291.379106 285.408 
L 291.328026 282.847888 
L 291.072341 277.733289 
L 290.612331 272.633005 
L 289.948731 267.555197 
L 289.082605 262.507987 
L 288.015337 257.49945 
L 286.748634 252.537599 
L 285.284524 247.630372 
L 283.625347 242.785618 
L 281.77376 238.011089 
L 279.732723 233.314423 
L 277.505503 228.703134 
L 275.095661 224.184598 
L 272.507054 219.766045 
L 269.743823 215.454542 
L 268.768265 214.018517 
L 272.430944 217.597523 
L 276.233816 221.027197 
L 280.170796 224.302054 
L 284.235587 227.416855 
L 288.421684 230.366615 
L 292.722393 233.146617 
L 297.130831 235.752413 
L 301.639948 238.179833 
L 306.242528 240.424996 
L 310.93121 242.484308 
L 315.698491 244.354476 
L 320.536746 246.032508 
L 322.544347 246.665922 
L 318.727622 243.251671 
L 314.777415 239.99278 
L 310.700048 236.894461 
L 306.502043 233.961672 
L 302.190115 231.199104 
L 297.771163 228.611177 
L 293.252256 226.202031 
L 288.640624 223.97552 
L 283.943644 221.935207 
L 279.16883 220.084354 
L 274.323822 218.425924 
L 269.416369 216.962569 
L 266.084334 216.089209 
L 265.778022 221.201026 
L 265.676373 226.321004 
L 265.77955 231.440951 
L 266.087387 236.552676 
L 266.599393 241.648003 
L 267.314748 246.718779 
L 268.232308 251.756892 
L 269.350604 256.754283 
L 270.667849 261.702956 
L 272.181934 266.594995 
L 273.890437 271.422574 
L 275.790625 276.17797 
L 277.879458 280.853574 
L 280.135942 285.408 
L 282.408709 280.818988 
L 284.496146 276.14276 
L 286.394914 271.386797 
L 288.101976 266.558708 
L 289.6146 261.666217 
L 290.930367 256.717151 
L 292.047171 251.719426 
L 292.963227 246.681039 
L 293.677068 241.61005 
L 294.187552 236.514571 
L 294.493863 231.402753 
L 294.595511 226.282776 
L 294.492334 221.162829 
L 294.184495 216.051103 
L 293.672489 210.955777 
L 292.957133 205.885001 
L 292.039572 200.846888 
L 290.921275 195.849497 
L 289.604029 190.900824 
L 288.089944 186.008785 
L 286.785038 182.267861 
L 289.820704 178.143636 
L 292.689018 173.901316 
L 295.38539 169.547688 
L 297.905506 165.089716 
L 300.245335 160.534532 
L 302.401134 155.889423 
L 304.369454 151.161821 
L 306.147145 146.359289 
L 307.731364 141.48951 
L 309.119577 136.560274 
L 310.309563 131.579467 
L 311.299418 126.555058 
L 312.087558 121.495084 
L 312.672722 116.40764 
L 313.053976 111.300865 
L 313.230707 106.182929 
L 313.202635 101.06202 
L 312.969803 95.946329 
L 312.532584 90.844041 
L 311.891678 85.763319 
L 311.499545 83.25992 
L 307.482021 80.084388 
L 303.340723 77.072054 
L 299.082276 74.227738 
L 294.713494 71.55599 
L 290.241364 69.061083 
L 285.673042 66.747009 
L 281.015836 64.617471 
L 278.717247 63.648 
L 274.019433 65.686395 
L 269.406892 67.911022 
L 264.887002 70.318321 
L 260.466993 72.904443 
L 256.153937 75.665249 
L 251.954734 78.596323 
L 247.876102 81.692976 
L 243.924565 84.950254 
L 240.106445 88.362945 
L 236.42785 91.925591 
L 232.894666 95.632492 
L 229.512545 99.477717 
L 226.286897 103.455115 
L 223.222882 107.558323 
L 220.325403 111.780777 
L 217.599095 116.115722 
L 215.048319 120.556222 
L 212.677156 125.095175 
L 210.4894 129.725318 
L 210.196338 130.384052 
L 205.088503 130.017276 
L 199.970087 129.855051 
L 194.849277 129.897639 
L 189.734267 130.14497 
L 184.633239 130.596649 
L 179.554353 131.251953 
L 174.505736 132.109835 
L 169.495462 133.168921 
L 164.531549 134.427518 
L 159.621937 135.883611 
L 154.77448 137.534872 
L 149.996933 139.378658 
L 145.296939 141.412021 
L 140.682018 143.631707 
L 136.159552 146.034165 
L 131.736777 148.615551 
L 127.420767 151.371737 
L 123.218427 154.298312 
L 119.136481 157.390595 
L 117.048797 159.074655 
L 116.305471 164.141406 
L 115.765355 169.23383 
L 115.429313 174.343778 
L 115.297884 179.463078 
L 115.371278 184.583538 
L 115.492697 187.286101 
L 119.834031 190.002224 
L 124.280508 192.542567 
L 128.825016 194.903066 
L 133.460282 197.079945 
L 138.178893 199.069722 
L 142.9733 200.869213 
L 147.835832 202.47554 
L 152.75871 203.886132 
L 157.734059 205.098733 
L 162.75392 206.111404 
L 167.810261 206.922523 
L 172.894994 207.530794 
L 177.999984 207.935244 
L 183.117064 208.135225 
L 188.238048 208.130417 
L 193.354744 207.920828 
L 197.089271 207.638089 
L 195.897002 212.61835 
L 194.904845 217.642305 
L 194.114385 222.701917 
L 193.526889 227.789092 
L 193.143295 232.895691 
L 192.964217 238.013546 
L 192.989942 243.134468 
L 193.220429 248.250264 
L 193.655309 253.352752 
L 194.293887 258.433768 
L 195.135139 263.485183 
L 196.177722 268.498917 
L 197.419966 273.466947 
L 198.859886 278.381328 
L 200.495176 283.234196 
L 201.298728 285.408 
L 203.02159 280.585527 
L 204.550226 275.698015 
L 205.882191 270.753283 
L 207.015354 265.759242 
L 207.947903 260.723882 
L 208.678345 255.655257 
L 209.205511 250.561477 
L 209.528559 245.45069 
L 209.646972 240.331073 
L 209.56056 235.210816 
L 209.269461 230.09811 
L 208.774141 225.001134 
L 208.075393 219.928043 
L 207.582161 217.026318 
L 202.592486 218.178552 
L 197.652879 219.529398 
L 192.771243 221.076695 
L 187.955387 222.817968 
L 183.213015 224.750431 
L 178.551715 226.870992 
L 173.978943 229.17626 
L 169.502015 231.662546 
L 165.128093 234.325872 
L 160.864174 237.161978 
L 156.71708 240.166327 
L 152.693445 243.334112 
L 149.443843 246.091211 
L 154.259665 244.349843 
L 159.001998 242.417286 
L 163.663257 240.296633 
L 168.235983 237.991275 
L 172.712862 235.504901 
L 177.086732 232.841488 
L 181.350595 230.005298 
L 185.49763 227.000867 
L 189.521202 223.833002 
L 193.414875 220.506772 
L 197.17242 217.027496 
L 200.787826 213.400742 
L 201.712635 212.424951 
L 200.45401 213.875505 
L 197.205494 217.834248 
L 194.117884 221.91973 
L 191.196119 226.125416 
L 188.444873 230.444577 
L 185.868549 234.870303 
L 183.471267 239.395515 
L 181.256864 244.012973 
L 179.22888 248.71529 
L 177.390561 253.494943 
L 175.744848 258.344286 
L 174.294373 263.255562 
L 173.041457 268.220912 
L 171.988105 273.232394 
L 171.136 278.28199 
L 170.562784 282.67029 
L 175.297293 284.621937 
L 177.370956 285.408 
L 182.138558 283.538648 
L 186.827591 281.480137 
L 191.430556 279.235762 
L 195.940088 276.809113 
L 200.348972 274.204072 
L 204.650156 271.424806 
L 208.836758 268.475762 
L 212.902081 265.361657 
L 216.839622 262.087474 
L 220.64308 258.65845 
L 224.306372 255.080071 
L 227.823636 251.358061 
L 231.189247 247.498376 
L 234.397819 243.50719 
L 237.444219 239.390888 
L 240.323575 235.156054 
L 243.031279 230.809465 
L 245.563 226.358073 
L 246.448406 224.697199 
L 250.481878 227.852451 
L 254.638299 230.843882 
L 258.911021 233.666708 
L 263.293209 236.316413 
L 267.777851 238.788757 
L 272.357773 241.079786 
L 277.025649 243.185835 
L 281.77401 245.103533 
L 286.59526 246.829814 
L 291.481687 248.361915 
L 296.425473 249.697386 
L 301.418709 250.83409 
L 306.453407 251.770209 
L 311.521513 252.504244 
L 316.614918 253.035023 
L 318.773041 253.198015 
L 315.837176 249.002161 
L 312.735869 244.927066 
L 309.474083 240.979249 
L 306.057036 237.165027 
L 302.490193 233.490502 
L 298.779262 229.961552 
L 294.930179 226.583822 
L 290.949101 223.362716 
L 286.842398 220.303387 
L 282.61664 217.410729 
L 278.278586 214.689371 
L 273.835177 212.143666 
L 271.967388 211.142626 
L 274.33862 215.681542 
L 276.889464 220.122003 
L 279.615838 224.456907 
L 282.513382 228.679316 
L 285.577459 232.782478 
L 288.803167 236.759827 
L 292.185348 240.605 
L 295.718588 244.311847 
L 299.397237 247.874437 
L 303.215409 251.28707 
L 307.166995 254.544287 
L 311.245675 257.640878 
L 314.775806 260.121429 
L 314.1991 259.843541 
L 309.53691 257.724937 
L 304.793727 255.794466 
L 299.97714 254.055216 
L 295.094854 252.509969 
L 290.15468 251.161198 
L 285.164522 250.01106 
L 280.132361 249.061394 
L 275.06625 248.313722 
L 269.974291 247.769237 
L 264.864633 247.428813 
L 259.745448 247.292992 
L 254.624926 247.361993 
L 249.51126 247.635705 
L 244.412629 248.11369 
L 239.337192 248.795183 
L 234.293066 249.679095 
L 229.288323 250.764011 
L 224.330967 252.048195 
L 219.428931 253.529594 
L 214.590056 255.205837 
L 209.822083 257.074242 
L 205.132641 259.131821 
L 200.529231 261.375282 
L 196.019217 263.801036 
L 191.609815 266.405201 
L 187.30808 269.183613 
L 183.120892 272.131826 
L 179.05495 275.245123 
L 175.116759 278.518525 
L 171.31262 281.946793 
L 170.557435 282.661024 
L 175.441141 281.120274 
L 180.259328 279.385461 
L 185.004287 277.459359 
L 189.668427 275.34505 
L 194.244286 273.045916 
L 198.724544 270.565636 
L 203.102034 267.908177 
L 207.369752 265.077792 
L 211.520871 262.079006 
L 215.54875 258.91662 
L 219.446946 255.59569 
L 223.209221 252.121531 
L 226.829558 248.499699 
L 230.302165 244.73599 
L 233.621485 240.836425 
L 236.78221 236.807241 
L 239.779282 232.654885 
L 242.607906 228.385999 
L 244.664533 225.030206 
L 248.637832 228.260902 
L 252.737146 231.330124 
L 256.955917 234.232962 
L 261.287397 236.964772 
L 265.724655 239.521185 
L 270.260593 241.898109 
L 274.887954 244.091743 
L 279.599336 246.098577 
L 284.387201 247.915401 
L 289.24389 249.539308 
L 294.161633 250.9677 
L 299.132563 252.198293 
L 304.148727 253.229117 
L 309.202101 254.058524 
L 314.2846 254.685185 
L 317.736299 254.993705 
L 314.76412 250.823495 
L 311.627555 246.775476 
L 308.33162 242.856124 
L 304.88159 239.071709 
L 301.282983 235.428286 
L 297.541557 231.931683 
L 293.663297 228.587495 
L 289.654407 225.40107 
L 285.5213 222.377507 
L 281.27059 219.521643 
L 276.909075 216.838046 
L 272.443734 214.33101 
L 269.936569 213.024016 
L 271.736182 217.818377 
L 273.726079 222.536937 
L 275.903076 227.172149 
L 278.263692 231.716596 
L 280.804148 236.163008 
L 283.520381 240.504273 
L 286.408046 244.733445 
L 289.462522 248.843758 
L 292.678925 252.828636 
L 296.052107 256.681706 
L 299.576672 260.396802 
L 303.246983 263.967982 
L 307.057166 267.389531 
L 309.427699 269.384622 
L 304.599333 267.678345 
L 299.706596 266.166517 
L 294.757316 264.851554 
L 289.75941 263.735562 
L 284.720874 262.820326 
L 279.649768 262.107309 
L 274.554206 261.597653 
L 269.442339 261.292173 
L 264.322346 261.191357 
L 259.202415 261.295367 
L 254.09074 261.604036 
L 248.995497 262.116871 
L 243.924838 262.833052 
L 238.886874 263.751431 
L 233.889665 264.870541 
L 228.941206 266.188591 
L 224.049413 267.703472 
L 219.222112 269.41276 
L 214.467026 271.313722 
L 209.791761 273.403317 
L 205.203798 275.6782 
L 200.710476 278.134733 
L 196.318983 280.768987 
L 192.036344 283.576746 
L 189.431489 285.408 
L 185.219998 282.49461 
L 180.895371 279.751964 
L 176.464527 277.184452 
L 171.934554 274.79618 
L 167.312698 272.590968 
L 163.881029 271.09715 
L 164.431238 266.005807 
L 164.777408 260.896534 
L 164.918985 255.777505 
L 164.855742 250.656909 
L 164.58778 245.542938 
L 164.115529 240.443774 
L 163.439742 235.367573 
L 162.561503 230.322457 
L 161.482215 225.316496 
L 160.203606 220.3577 
L 158.72772 215.454001 
L 157.056919 210.613244 
L 155.193876 205.843174 
L 153.141571 201.151421 
L 150.903288 196.545491 
L 148.482607 192.032753 
L 145.883401 187.620426 
L 143.109828 183.315568 
L 140.166326 179.125068 
L 137.057602 175.055628 
L 133.788631 171.11376 
L 130.364642 167.305768 
L 126.791113 163.637745 
L 123.07376 160.115559 
L 119.218531 156.744845 
L 118.662103 156.280327 
L 123.499403 157.961109 
L 128.400048 159.447106 
L 133.356196 160.73594 
L 138.35992 161.825551 
L 143.403214 162.714194 
L 148.47801 163.400449 
L 153.57619 163.883217 
L 158.689597 164.161726 
L 163.810052 164.235531 
L 168.929362 164.104512 
L 174.039338 163.768881 
L 179.131805 163.229174 
L 184.198615 162.486254 
L 186.48171 162.083428 
L 182.419273 158.965559 
L 178.235405 156.012637 
L 173.936797 153.229388 
L 169.530328 150.620263 
L 165.023046 148.189438 
L 160.422163 145.9408 
L 155.735038 143.877946 
L 150.969171 142.004178 
L 146.132184 140.322493 
L 141.231818 138.83558 
L 136.27591 137.545819 
L 131.27239 136.455274 
L 130.224705 136.253313 
L 133.639219 140.069803 
L 137.203621 143.746696 
L 140.912208 147.27811 
L 144.759047 150.658395 
L 148.737985 153.882144 
L 152.842656 156.944199 
L 157.066492 159.839662 
L 161.402738 162.5639 
L 165.844456 165.112556 
L 170.38454 167.481551 
L 175.015727 169.667097 
L 179.730608 171.665696 
L 184.95465 173.626904 
L 180.097108 175.24826 
L 175.30829 177.062569 
L 170.595854 179.066928 
L 165.967342 181.258131 
L 161.430156 183.632673 
L 156.991556 186.186754 
L 152.658642 188.916289 
L 148.438347 191.816911 
L 144.337421 194.883979 
L 140.362425 198.112588 
L 136.519719 201.497571 
L 132.81545 205.033514 
L 129.255544 208.71476 
L 128.400913 209.643786 
L 133.380926 208.450482 
L 138.309235 207.058984 
L 143.177958 205.47152 
L 147.979304 203.690628 
L 152.705593 201.719159 
L 157.349264 199.560265 
L 161.902888 197.217401 
L 166.35918 194.694314 
L 170.71101 191.995042 
L 174.951418 189.123901 
L 179.073619 186.085487 
L 183.071018 182.884658 
L 185.349518 180.938523 
L 180.732974 178.722215 
L 176.031494 176.692292 
L 171.252599 174.852002 
L 166.403935 173.204288 
L 161.493259 171.751788 
L 156.528426 170.496824 
L 151.517379 169.441404 
L 146.468135 168.587217 
L 141.388771 167.935629 
L 136.287414 167.487683 
L 131.172224 167.244095 
L 126.051385 167.205255 
L 120.933089 167.371225 
L 115.825524 167.741739 
L 111.791732 168.180158 
L 113.877486 172.857137 
L 116.148601 177.446967 
L 118.601444 181.942306 
L 121.23209 186.33596 
L 124.036331 190.620903 
L 127.009681 194.790279 
L 130.147383 198.837417 
L 133.444418 202.755843 
L 136.89551 206.539288 
L 140.49514 210.181701 
L 144.237548 213.677253 
L 148.116747 217.020353 
L 152.126532 220.205651 
L 156.260487 223.228054 
L 160.512 226.082724 
L 164.874268 228.765096 
L 169.340312 231.270879 
L 173.90299 233.596062 
L 178.555 235.736928 
L 183.2889 237.69005 
L 188.097118 239.452304 
L 192.971962 241.020872 
L 197.905632 242.393242 
L 202.890236 243.567221 
L 207.917799 244.54093 
L 212.980279 245.312811 
L 218.069576 245.88163 
L 223.177549 246.246476 
L 228.296026 246.406765 
L 233.416819 246.362242 
L 238.531736 246.112978 
L 243.632593 245.65937 
L 248.71123 245.002146 
L 253.759523 244.142356 
L 258.769396 243.081376 
L 263.732833 241.820903 
L 268.641895 240.362954 
L 273.488727 238.709861 
L 278.265577 236.864268 
L 282.964801 234.829129 
L 287.578883 232.607699 
L 292.10044 230.203532 
L 296.52224 227.620473 
L 300.837208 224.862656 
L 305.038441 221.934493 
L 309.119218 218.840667 
L 313.073011 215.586128 
L 316.893494 212.176083 
L 320.574557 208.615987 
L 324.110308 204.911535 
L 327.495093 201.068655 
L 330.723497 197.093493 
L 333.790354 192.992409 
L 336.690758 188.771963 
L 339.420069 184.438909 
L 341.973921 180.000177 
L 344.348229 175.462869 
L 346.539193 170.834243 
L 348.543309 166.121704 
L 350.357371 161.332792 
L 351.978476 156.475167 
L 352.594615 154.438668 
L 347.594959 153.330539 
L 342.55499 152.42323 
L 337.482769 151.718191 
L 332.386412 151.216551 
L 327.274071 150.919112 
L 322.153925 150.82635 
L 317.034165 150.938414 
L 311.922981 151.255123 
L 306.828551 151.775972 
L 301.759024 152.500128 
L 296.722511 153.426431 
L 291.727069 154.5534 
L 286.780689 155.879232 
L 284.158533 156.66909 
L 284.745226 156.412958 
L 289.391176 154.258973 
L 293.947273 151.920922 
L 298.406228 149.402546 
L 302.760909 146.707874 
L 307.004348 143.841216 
L 311.129757 140.80716 
L 315.130537 137.610557 
L 319.000286 134.256523 
L 322.732814 130.750424 
L 326.32215 127.097867 
L 329.762552 123.304697 
L 332.642265 119.880185 
L 327.602301 120.787524 
L 322.602652 121.895683 
L 317.651317 123.202888 
L 312.756217 124.707047 
L 307.925183 126.405756 
L 303.165943 128.296295 
L 298.486112 130.375641 
L 293.893176 132.640468 
L 289.394482 135.087151 
L 284.997228 137.711776 
L 280.708448 140.510146 
L 276.759666 143.311547 
L 278.249934 142.100206 
L 282.133435 138.762105 
L 285.880341 135.271375 
L 289.484658 131.633601 
L 292.94062 127.854602 
L 296.242698 123.940425 
L 299.38561 119.897331 
L 302.364326 115.731788 
L 305.174083 111.45046 
L 307.810385 107.060196 
L 310.269014 102.56802 
L 312.546037 97.981119 
L 314.637812 93.30683 
L 315.743905 90.611367 
L 310.663244 89.969976 
L 305.560998 89.532271 
L 300.445329 89.298951 
L 295.324422 89.27039 
L 290.20647 89.446633 
L 285.099659 89.827399 
L 280.012159 90.412078 
L 274.95211 91.199736 
L 269.927606 92.189111 
L 264.946686 93.378622 
L 260.017317 94.766364 
L 255.147387 96.350119 
L 250.344685 98.127352 
L 245.616896 100.095221 
L 240.971581 102.250576 
L 236.416174 104.589971 
L 231.957962 107.109662 
L 227.604076 109.805618 
L 223.361482 112.673527 
L 219.236968 115.708801 
L 215.237132 118.906583 
L 211.368372 122.261758 
L 207.636878 125.768958 
L 204.048619 129.422573 
L 200.609337 133.216757 
L 197.324532 137.145442 
L 194.19946 141.20234 
L 191.239121 145.380964 
L 188.448249 149.674627 
L 185.831311 154.07646 
L 183.392493 158.579422 
L 181.135696 163.176309 
L 179.064531 167.859767 
L 177.18231 172.622302 
L 175.492046 177.456298 
L 173.996442 182.354019 
L 172.697891 187.30763 
L 171.598471 192.309207 
L 170.699939 197.350749 
L 170.003734 202.42419 
L 169.51097 207.521413 
L 169.222434 212.634265 
L 169.138589 217.754565 
L 169.259568 222.874122 
L 169.585178 227.984746 
L 170.114898 233.078261 
L 170.847881 238.146519 
L 171.782953 243.181412 
L 172.91862 248.174884 
L 174.253063 253.118947 
L 175.78415 258.005692 
L 177.509429 262.827301 
L 179.426141 267.576061 
L 181.531219 272.244373 
L 183.821297 276.824772 
L 186.29271 281.309927 
L 188.762115 285.408 
L 191.399382 281.018316 
L 193.858999 276.526681 
L 196.137031 271.940281 
L 198.229834 267.266451 
L 200.13406 262.512671 
L 201.846662 257.686545 
L 203.3649 252.795793 
L 204.686346 247.84824 
L 205.808886 242.8518 
L 206.730724 237.814468 
L 207.450384 232.744301 
L 207.966716 227.649411 
L 208.278895 222.537949 
L 208.386207 217.556087 
L 203.767238 219.767338 
L 199.240391 222.16153 
L 194.812906 224.734832 
L 190.491868 227.483128 
L 186.284189 230.402021 
L 182.1966 233.486842 
L 178.23564 236.732655 
L 174.407647 240.134268 
L 170.718744 243.686238 
L 167.174833 247.382885 
L 163.781583 251.218293 
L 160.544422 255.186327 
L 157.241383 259.596946 
L 162.326959 258.995766 
L 167.384427 258.191699 
L 172.405695 257.18603 
L 177.38273 255.980368 
L 182.307571 254.576642 
L 187.172338 252.977098 
L 191.969249 251.184295 
L 196.690631 249.2011 
L 201.328929 247.030687 
L 205.876723 244.676528 
L 210.326739 242.142388 
L 214.671856 239.432322 
L 218.905124 236.550666 
L 223.019771 233.502029 
L 227.009213 230.291289 
L 230.867068 226.923581 
L 232.305567 225.596025 
L 235.554089 229.554763 
L 238.95832 233.380428 
L 242.512814 237.0669 
L 246.211884 240.608281 
L 250.049613 243.998907 
L 254.019861 247.233351 
L 258.116277 250.306442 
L 262.332306 253.213261 
L 266.661205 255.949158 
L 271.096048 258.509758 
L 275.62974 260.890962 
L 280.255029 263.088963 
L 284.964514 265.100244 
L 289.750662 266.921586 
L 294.605816 268.550077 
L 299.522209 269.98311 
L 304.491975 271.218394 
L 307.944455 271.953677 
L 304.492758 268.170782 
L 300.892547 264.528945 
L 297.149581 261.03399 
L 293.269848 257.69151 
L 289.259555 254.506851 
L 285.125117 251.485109 
L 280.873149 248.631118 
L 276.510452 245.949442 
L 272.044007 243.444373 
L 267.480959 241.119918 
L 262.828607 238.979795 
L 258.094395 237.027429 
L 253.285895 235.265943 
L 248.410801 233.698154 
L 243.476912 232.326571 
L 238.492121 231.153388 
L 233.464402 230.180482 
L 228.401799 229.409409 
L 223.312411 228.841403 
L 218.20438 228.477373 
L 213.085877 228.317901 
L 207.965092 228.363242 
L 202.850215 228.613323 
L 197.749431 229.067745 
L 192.670898 229.72578 
L 187.622742 230.586376 
L 182.613039 231.648156 
L 177.649803 232.909422 
L 172.740975 234.368155 
L 167.894406 236.022022 
L 163.117852 237.868377 
L 158.418952 239.904267 
L 153.805225 242.126434 
L 149.284052 244.531323 
L 148.724518 244.845303 
L 151.460182 243.1837 
L 155.74837 240.384425 
L 159.921187 237.415907 
L 163.971957 234.282895 
L 167.8942 230.990402 
L 171.681641 227.543694 
L 175.328221 223.948287 
L 178.828106 220.209931 
L 182.175697 216.334607 
L 185.365639 212.328515 
L 188.392829 208.198064 
L 191.252422 203.949861 
L 192.70912 201.63558 
L 187.622477 202.227661 
L 182.563579 203.02268 
L 177.54052 204.019365 
L 172.561336 205.216122 
L 167.633992 206.611036 
L 162.766371 208.201875 
L 157.96626 209.986094 
L 153.241339 211.96084 
L 148.599166 214.122952 
L 144.047167 216.468972 
L 139.592625 218.995147 
L 135.328095 221.642017 
L 139.841401 219.222396 
L 144.254339 216.624227 
L 148.559848 213.851666 
L 152.75104 210.909148 
L 156.82121 207.80138 
L 160.763846 204.533335 
L 164.572643 201.110241 
L 168.241505 197.537574 
L 171.764564 193.821049 
L 175.136183 189.966612 
L 178.35097 185.98043 
L 181.40378 181.868878 
L 184.289729 177.638536 
L 184.987025 176.559381 
L 181.81501 172.539079 
L 178.484764 168.64884 
L 175.001613 164.894887 
L 171.37113 161.283226 
L 167.599124 157.819634 
L 163.691628 154.509653 
L 159.654893 151.358577 
L 155.495378 148.371449 
L 151.219737 145.553046 
L 146.83481 142.907877 
L 142.347612 140.440175 
L 137.765321 138.153887 
L 133.095269 136.05267 
L 130.873042 135.13036 
L 134.970785 138.20168 
L 139.18807 141.106678 
L 143.51815 143.840705 
L 147.954099 146.399388 
L 152.48882 148.778634 
L 157.115057 150.974636 
L 161.825411 152.983882 
L 166.612346 154.803156 
L 171.468203 156.429549 
L 176.385214 157.860459 
L 181.355514 159.093596 
L 186.371149 160.126987 
L 186.980667 160.238387 
L 182.201063 158.399939 
L 177.351764 156.754095 
L 172.440528 155.303488 
L 167.475211 154.050438 
L 162.463758 152.996951 
L 157.414185 152.14471 
L 152.33457 151.495081 
L 147.233041 151.049101 
L 142.117757 150.807485 
L 136.996904 150.770619 
L 131.878672 150.938562 
L 126.77125 151.311046 
L 121.157135 151.958805 
L 123.182684 156.662172 
L 125.394697 161.280775 
L 127.789636 165.807228 
L 130.363669 170.234287 
L 133.112678 174.554872 
L 136.032265 178.762069 
L 139.11776 182.849149 
L 142.364227 186.809573 
L 145.766471 190.637005 
L 149.319051 194.325321 
L 153.016282 197.868623 
L 156.85225 201.26124 
L 160.820818 204.497745 
L 164.915638 207.572962 
L 169.130158 210.481969 
L 173.457636 213.220114 
L 177.891149 215.783015 
L 182.423604 218.166573 
L 187.047751 220.366975 
L 191.756192 222.3807 
L 196.541393 224.204527 
L 201.395701 225.835538 
L 206.311349 227.271124 
L 211.280473 228.508988 
L 216.295124 229.54715 
L 221.347279 230.383949 
L 226.428856 231.018046 
L 231.531725 231.448427 
L 236.647723 231.674404 
L 241.768666 231.695614 
L 246.88636 231.512024 
L 251.992619 231.123928 
L 257.079274 230.531947 
L 262.138188 229.737027 
L 267.161266 228.740441 
L 272.140474 227.543782 
L 277.067845 226.148965 
L 281.935497 224.558221 
L 286.735643 222.774096 
L 291.460603 220.799443 
L 296.102819 218.637422 
L 300.654863 216.291491 
L 305.109454 213.765403 
L 309.459466 211.0632 
L 313.697938 208.189204 
L 317.818091 205.148013 
L 321.813334 201.944493 
L 325.677273 198.583768 
L 329.403729 195.071215 
L 332.98674 191.412453 
L 336.420573 187.613336 
L 339.699735 183.679941 
L 342.81898 179.61856 
L 345.773318 175.435692 
L 348.558023 171.138028 
L 351.16864 166.732442 
L 353.600992 162.225984 
L 355.214276 158.976055 
L 350.101607 158.684315 
L 344.98136 158.59726 
L 339.861728 158.71503 
L 334.750901 159.037437 
L 329.657055 159.563964 
L 324.588338 160.29377 
L 319.552861 161.225686 
L 314.558678 162.358223 
L 309.613779 163.689567 
L 304.726075 165.21759 
L 299.903386 166.939846 
L 295.153426 168.853582 
L 290.483794 170.955734 
L 287.333258 172.503769 
L 292.105197 174.362021 
L 296.947629 176.02796 
L 301.852807 177.498922 
L 306.812885 178.772551 
L 311.819927 179.846812 
L 316.865922 180.719985 
L 321.942799 181.390674 
L 327.042435 181.857805 
L 332.156673 182.120632 
L 337.277329 182.178733 
L 342.396214 182.032017 
L 347.505136 181.680717 
L 352.595924 181.125395 
L 357.660433 180.366941 
L 361.199634 179.713001 
L 359.458902 174.896949 
L 357.526972 170.15436 
L 355.406935 165.492822 
L 353.102181 160.919791 
L 350.616398 156.442583 
L 347.953563 152.068362 
L 345.117936 147.804124 
L 342.114053 143.656693 
L 338.94672 139.632702 
L 335.621004 135.738589 
L 332.142225 131.980585 
L 328.515948 128.3647 
L 324.747976 124.896721 
L 320.844335 121.582193 
L 316.811271 118.426422 
L 312.655235 115.434454 
L 308.382877 112.611076 
L 304.001032 109.960806 
L 299.516709 107.487882 
L 294.937083 105.196262 
L 290.269479 103.089611 
L 285.521366 101.171299 
L 280.700338 99.444396 
L 275.814109 97.911664 
L 270.870496 96.575555 
L 265.877406 95.438206 
L 260.842829 94.501438 
L 255.774818 93.766748 
L 250.681482 93.235312 
L 245.570968 92.907981 
L 240.451451 92.785277 
L 235.331123 92.867398 
L 230.218175 93.154211 
L 225.120786 93.645259 
L 220.047111 94.339754 
L 215.005267 95.236587 
L 210.00332 96.334323 
L 205.049271 97.631205 
L 200.151047 99.125159 
L 195.316482 100.813795 
L 190.553313 102.694411 
L 185.869158 104.763999 
L 181.271511 107.019247 
L 176.767727 109.456549 
L 172.365013 112.072004 
L 168.07041 114.861428 
L 163.89079 117.82036 
L 159.832839 120.944065 
L 155.903048 124.227546 
L 152.107705 127.665551 
L 148.452882 131.252578 
L 144.944425 134.982891 
L 141.587947 138.85052 
L 138.388817 142.849279 
L 135.352155 146.972771 
L 132.482817 151.214398 
L 129.785394 155.567375 
L 127.264201 160.024739 
L 124.923273 164.579358 
L 122.766352 169.223946 
L 120.796891 173.951072 
L 119.01804 178.753175 
L 117.432645 183.622572 
L 116.099337 188.336832 
L 121.06477 189.589422 
L 126.07632 190.642445 
L 131.125972 191.494218 
L 136.205647 192.143377 
L 141.307218 192.588885 
L 146.422524 192.830027 
L 151.543381 192.866419 
L 156.661597 192.698002 
L 161.768984 192.325046 
L 166.857372 191.748147 
L 171.91862 190.968228 
L 176.944631 189.986537 
L 181.927364 188.804645 
L 186.616129 187.497376 
L 185.991907 187.639356 
L 181.025275 188.887181 
L 176.112515 190.33262 
L 171.261487 191.973361 
L 166.479952 193.806779 
L 161.775558 195.829941 
L 157.155833 198.03961 
L 152.628165 200.432251 
L 148.1998 203.004037 
L 143.877821 205.750853 
L 139.669142 208.668304 
L 135.580497 211.751725 
L 131.533148 215.068976 
L 136.325547 213.264146 
L 141.041939 211.269115 
L 145.674778 209.087075 
L 150.216654 206.721516 
L 154.660299 204.176222 
L 158.998605 201.455266 
L 163.224632 198.563001 
L 167.331618 195.504053 
L 171.312995 192.283316 
L 175.162391 188.905943 
L 178.873649 185.377336 
L 182.440832 181.703142 
L 185.120161 178.739265 
L 181.095865 175.57232 
L 176.948143 172.568838 
L 172.683631 169.733623 
L 168.309153 167.071211 
L 163.831705 164.585861 
L 159.258451 162.281549 
L 154.596708 160.161962 
L 149.853933 158.23049 
L 145.037713 156.490224 
L 140.155753 154.943947 
L 135.215864 153.594133 
L 130.225948 152.442942 
L 125.193988 151.492215 
L 121.734644 150.95853 
L 124.966599 154.930805 
L 128.354817 158.77066 
L 131.893878 162.47195 
L 135.57812 166.028755 
L 139.401649 169.435384 
L 143.358349 172.686388 
L 147.44189 175.776566 
L 151.645738 178.700974 
L 155.963168 181.454934 
L 160.387275 184.03404 
L 164.910979 186.434165 
L 169.527044 188.651471 
L 174.228085 190.68241 
L 179.006582 192.523733 
L 183.85489 194.172494 
L 188.765252 195.626055 
L 189.59694 195.851257 
L 187.458217 200.504252 
L 185.507275 205.239052 
L 183.747236 210.048081 
L 182.180914 214.923647 
L 180.810815 219.857948 
L 179.639132 224.843092 
L 178.667739 229.871103 
L 177.898189 234.933938 
L 177.331715 240.023497 
L 176.969222 245.131638 
L 176.811289 250.250188 
L 176.858171 255.37096 
L 177.109791 260.485761 
L 177.565748 265.586408 
L 178.225311 270.664743 
L 179.087426 275.712639 
L 180.150713 280.722023 
L 181.337429 285.408 
L 182.589055 280.442324 
L 183.641106 275.430569 
L 184.491898 270.380752 
L 185.140071 265.300951 
L 185.584587 260.199294 
L 185.824736 255.083941 
L 185.860134 249.963077 
L 185.690723 244.844894 
L 185.316775 239.737579 
L 184.738888 234.649304 
L 183.957986 229.588207 
L 182.975319 224.562387 
L 181.792459 219.579883 
L 180.411298 214.648667 
L 178.834046 209.776626 
L 177.063226 204.971556 
L 175.101671 200.241144 
L 172.952519 195.592956 
L 170.619208 191.03443 
L 168.105471 186.572858 
L 165.415329 182.215377 
L 162.553086 177.968959 
L 159.523322 173.840396 
L 156.330882 169.836294 
L 152.980875 165.963059 
L 149.478659 162.226886 
L 145.829838 158.633753 
L 142.040248 155.189408 
L 138.115953 151.899362 
L 134.063229 148.768877 
L 129.888562 145.802962 
L 126.13251 143.341204 
L 127.268409 143.93194 
L 131.869366 146.180427 
L 136.556558 148.243127 
L 141.322487 150.116739 
L 146.159528 151.798267 
L 151.059944 153.285019 
L 156.015893 154.574617 
L 161.019449 155.664999 
L 166.062606 156.55442 
L 171.137296 157.241457 
L 176.235402 157.72501 
L 181.348766 158.004308 
L 186.469209 158.078901 
L 187.664333 158.066829 
L 183.585225 154.970803 
L 179.385572 152.040373 
L 175.072092 149.280229 
L 170.651687 146.694786 
L 166.131427 144.288181 
L 161.518544 142.064262 
L 156.820418 140.026588 
L 152.044565 138.17842 
L 147.198624 136.522712 
L 142.29035 135.062115 
L 137.327593 133.798965 
L 132.262052 132.724525 
L 135.686175 136.532396 
L 139.259833 140.200293 
L 142.97731 143.722348 
L 146.832657 147.092926 
L 150.819708 150.306635 
L 154.932084 153.358335 
L 159.163205 156.243142 
L 163.506304 158.956441 
L 167.954432 161.493893 
L 172.500473 163.851437 
L 177.137154 166.025303 
L 181.857057 168.012012 
L 185.215009 169.292757 
L 180.164024 170.136586 
L 175.150823 171.181726 
L 170.183426 172.426504 
L 165.269781 173.86893 
L 160.417747 175.506695 
L 155.635088 177.33718 
L 150.929455 179.357455 
L 146.308375 181.56429 
L 141.779241 183.954154 
L 137.349299 186.523223 
L 133.025636 189.267388 
L 128.815169 192.182258 
L 124.724633 195.26317 
L 121.573577 197.818494 
L 126.348058 195.966781 
L 131.04467 193.925621 
L 135.655901 191.69828 
L 140.174374 189.28832 
L 144.592859 186.699597 
L 148.904289 183.936252 
L 153.101766 181.002706 
L 157.178575 177.903653 
L 161.128194 174.64405 
L 164.944304 171.229111 
L 168.6208 167.664301 
L 172.151802 163.955321 
L 175.531659 160.108106 
L 178.754965 156.128809 
L 181.816564 152.023798 
L 184.711556 147.799639 
L 187.435312 143.46309 
L 189.983474 139.021089 
L 192.351964 134.480742 
L 194.536995 129.849312 
L 196.53507 125.134208 
L 198.342992 120.342975 
L 199.957871 115.483277 
L 201.377122 110.562887 
L 202.598474 105.589679 
L 203.619974 100.571608 
L 204.439987 95.516701 
L 205.057203 90.433047 
L 205.470632 85.328776 
L 205.679615 80.212056 
L 205.683816 75.091071 
L 205.483229 69.974014 
L 205.078175 64.869072 
L 204.950756 63.648 
L 204.49677 68.748823 
L 204.247125 73.863721 
L 204.202222 78.984511 
L 204.362132 84.103 
L 204.726598 89.211 
L 205.295039 94.30034 
L 206.066544 99.362877 
L 207.03988 104.390512 
L 208.213489 109.375203 
L 209.585494 114.308975 
L 211.153699 119.183935 
L 212.915596 123.992284 
L 214.588392 128.079473 
L 214.009881 126.9373 
L 211.582504 122.42816 
L 208.976751 118.019696 
L 206.196791 113.718961 
L 203.247071 109.532835 
L 200.13231 105.468014 
L 196.857491 101.531002 
L 193.427853 97.728097 
L 189.848883 94.065383 
L 186.126306 90.54872 
L 182.266077 87.183732 
L 178.274373 83.975805 
L 174.157579 80.930068 
L 169.922281 78.051396 
L 165.437697 75.262621 
L 167.683028 76.493586 
L 172.245286 78.819591 
L 176.896911 80.961294 
L 181.63046 82.915268 
L 186.438361 84.678388 
L 191.312922 86.247832 
L 196.246344 87.621091 
L 201.230737 88.795968 
L 206.258125 89.770581 
L 211.320466 90.543374 
L 216.40966 91.113108 
L 221.517568 91.478874 
L 226.636016 91.640085 
L 231.756817 91.596484 
L 236.871778 91.34814 
L 241.972717 90.895451 
L 247.051472 90.23914 
L 252.09992 89.380259 
L 257.109983 88.320181 
L 262.073648 87.060602 
L 266.982972 85.603536 
L 271.830101 83.951315 
L 276.607283 82.106583 
L 281.306874 80.07229 
L 285.921355 77.85169 
L 290.443345 75.448337 
L 294.86561 72.866075 
L 299.181074 70.109035 
L 302.55941 67.775152 
L 297.940711 69.986965 
L 293.414155 72.381708 
L 288.986984 74.955549 
L 284.66628 77.704371 
L 280.458956 80.623776 
L 276.371743 83.709095 
L 272.411178 86.95539 
L 268.583599 90.357468 
L 264.895129 93.909888 
L 261.351667 97.606966 
L 257.958884 101.442787 
L 254.722207 105.411215 
L 251.646813 109.505902 
L 248.737623 113.720295 
L 245.999291 118.047655 
L 243.436198 122.481057 
L 242.75045 123.740543 
L 241.459221 118.785018 
L 239.970856 113.885092 
L 238.287737 109.048604 
L 236.412556 104.283292 
L 234.348313 99.596779 
L 232.098312 94.996563 
L 229.66615 90.490002 
L 227.055719 86.084306 
L 224.271196 81.786524 
L 221.317034 77.603531 
L 218.197961 73.542018 
L 214.918965 69.608485 
L 211.485293 65.809222 
L 209.403775 63.648 
L 205.882012 67.365753 
L 202.511736 71.221365 
L 199.29834 75.208668 
L 196.246963 79.321283 
L 193.362488 83.552631 
L 190.649529 87.895942 
L 188.112427 92.344269 
L 185.755239 96.890495 
L 183.581737 101.527346 
L 181.595399 106.247406 
L 179.799401 111.043122 
L 178.196618 115.906823 
L 176.789612 120.830728 
L 175.580636 125.806959 
L 174.571623 130.827556 
L 173.764188 135.884487 
L 173.159622 140.969662 
L 172.758892 146.074945 
L 172.562639 151.19217 
L 172.571178 156.313149 
L 172.784494 161.429691 
L 173.202247 166.533609 
L 173.823769 171.616739 
L 174.648064 176.670949 
L 175.673814 181.688154 
L 176.899378 186.660326 
L 178.322796 191.579511 
L 179.94179 196.43784 
L 181.753771 201.22754 
L 183.755839 205.940949 
L 185.944791 210.570527 
L 188.317127 215.108866 
L 190.86905 219.548707 
L 193.596478 223.882948 
L 196.495048 228.104653 
L 199.560122 232.207069 
L 202.786798 236.183634 
L 206.169913 240.027985 
L 209.704054 243.733973 
L 213.383569 247.295668 
L 217.202571 250.707373 
L 221.154949 253.963629 
L 225.234381 257.059228 
L 229.434342 259.989217 
L 233.748111 262.748909 
L 238.168787 265.333889 
L 242.6893 267.740021 
L 247.302416 269.963456 
L 252.000755 272.000637 
L 256.776802 273.848305 
L 261.622916 275.503504 
L 266.531343 276.963586 
L 271.494233 278.226216 
L 276.503644 279.289373 
L 281.551563 280.151356 
L 286.629914 280.810788 
L 291.730573 281.266612 
L 296.845381 281.518099 
L 302.398579 281.559416 
L 299.812622 277.13931 
L 297.051977 272.826152 
L 294.12106 268.626839 
L 291.024559 264.548091 
L 287.767429 260.596433 
L 284.35488 256.778186 
L 280.792371 253.099458 
L 277.085602 249.566136 
L 273.240503 246.183871 
L 269.263225 242.958075 
L 265.160132 239.893907 
L 260.937786 236.996271 
L 256.602943 234.269801 
L 252.162537 231.718859 
L 247.623674 229.347527 
L 242.993612 227.159598 
L 239.451745 225.63538 
L 235.059346 228.268122 
L 230.775742 231.074408 
L 226.607786 234.049747 
L 222.562145 237.18938 
L 218.645293 240.488284 
L 214.863494 243.941182 
L 211.2228 247.542549 
L 207.729034 251.286624 
L 204.387786 255.167418 
L 201.204401 259.178723 
L 198.183971 263.314119 
L 195.33133 267.566994 
L 192.65104 271.930541 
L 190.147389 276.397781 
L 187.824382 280.961567 
L 185.775951 285.408 
L 183.629116 280.758742 
L 181.298078 276.199053 
L 178.786565 271.736228 
L 176.098596 267.377407 
L 173.23847 263.129562 
L 170.210764 258.99949 
L 167.020321 254.993797 
L 163.672245 251.118892 
L 160.171892 247.380974 
L 156.524862 243.786023 
L 152.73699 240.33979 
L 148.814334 237.047787 
L 144.763172 233.915282 
L 140.772405 231.071839 
L 140.279845 225.974596 
L 139.583843 220.901127 
L 138.685514 215.859549 
L 137.586294 210.857928 
L 136.287942 205.904264 
L 134.792534 201.006483 
L 133.102464 196.172421 
L 131.220434 191.409809 
L 129.149456 186.726269 
L 126.892844 182.129291 
L 124.454206 177.626231 
L 121.837444 173.224293 
L 119.046745 168.930518 
L 116.086574 164.751776 
L 114.776663 163.010107 
L 119.866835 163.57104 
L 124.975368 163.927971 
L 130.094087 164.080329 
L 135.214805 164.027872 
L 140.329329 163.770682 
L 145.429477 163.309172 
L 150.50709 162.644079 
L 155.554045 161.776469 
L 160.562267 160.707727 
L 165.523746 159.439565 
L 170.430542 157.974012 
L 175.274808 156.313411 
L 180.048792 154.460419 
L 184.744857 152.418001 
L 189.355491 150.189424 
L 191.818044 148.903972 
L 191.557632 143.789611 
L 191.092908 138.689755 
L 190.424616 133.612562 
L 189.553825 128.566155 
L 188.481929 123.558607 
L 187.210641 118.597928 
L 185.741996 113.692056 
L 184.078343 108.848838 
L 182.222343 104.076023 
L 180.176967 99.381245 
L 177.945486 94.772016 
L 175.531469 90.255709 
L 172.93878 85.83955 
L 170.171565 81.530603 
L 167.234251 77.335762 
L 165.545298 75.076252 
L 170.635721 75.634907 
L 175.744412 75.989552 
L 180.863199 76.13962 
L 185.983893 76.084872 
L 191.098301 75.825394 
L 196.198242 75.361602 
L 201.275557 74.694237 
L 206.322124 73.824368 
L 211.329867 72.753386 
L 216.290778 71.483004 
L 221.196918 70.015255 
L 226.04044 68.352487 
L 230.813595 66.49736 
L 235.508746 64.452841 
L 237.226795 63.648 
L 241.891135 65.761866 
L 246.636277 67.687518 
L 251.454628 69.421874 
L 256.338481 70.96216 
L 261.280023 72.305912 
L 266.271347 73.450981 
L 271.30447 74.395533 
L 276.371338 75.138059 
L 281.463847 75.67737 
L 286.573849 76.012604 
L 291.693169 76.143224 
L 296.813618 76.069022 
L 301.927004 75.790115 
L 306.91517 75.319549 
L 303.951276 79.495652 
L 301.156752 83.786938 
L 298.536069 88.186543 
L 296.093419 92.687428 
L 293.832711 97.282393 
L 291.757561 101.964086 
L 289.871289 106.725018 
L 288.176911 111.557573 
L 286.67714 116.45402 
L 285.374374 121.406525 
L 284.270698 126.407165 
L 283.367877 131.44794 
L 282.667355 136.520786 
L 282.170253 141.617588 
L 281.877366 146.730192 
L 281.788864 151.272749 
L 281.788864 151.272749 
" style="fill:none;stroke:#1f77b4;stroke-linecap:square;stroke-width:1.5;"/>
   </g>
   <g id="patch_4">
    <path d="M 82.520165 307.584 
L 82.520165 41.472 
" style="fill:none;stroke:#000000;stroke-linecap:square;stroke-linejoin:miter;stroke-width:0.8;"/>
   </g>
   <g id="patch_5">
    <path d="M 389.799835 307.584 
L 389.799835 41.472 
" style="fill:none;stroke:#000000;stroke-linecap:square;stroke-linejoin:miter;stroke-width:0.8;"/>
   </g>
   <g id="patch_6">
    <path d="M 82.520165 307.584 
L 389.799835 307.584 
" style="fill:none;stroke:#000000;stroke-linecap:square;stroke-linejoin:miter;stroke-width:0.8;"/>
   </g>
   <g id="patch_7">
    <path d="M 82.520165 41.472 
L 389.799835 41.472 
" style="fill:none;stroke:#000000;stroke-linecap:square;stroke-linejoin:miter;stroke-width:0.8;"/>
   </g>
  </g>
 </g>
 <defs>
  <clipPath id="p3775f004f2">
   <rect height="266.112" width="307.27967" x="82.520165" y="41.472"/>
  </clipPath>
 </defs>
</svg>
