<?xml version="1.0" encoding="utf-8" standalone="no"?>
<!DOCTYPE svg PUBLIC "-//W3C//DTD SVG 1.1//EN"
  "http://www.w3.org/Graphics/SVG/1.1/DTD/svg11.dtd">
<!-- Created with matplotlib (http://matplotlib.org/) -->
<svg height="345.6pt" version="1.1" viewBox="0 0 460.8 345.6" width="460.8pt" xmlns="http://www.w3.org/2000/svg" xmlns:xlink="http://www.w3.org/1999/xlink">
 <defs>
  <style type="text/css">
*{stroke-linecap:butt;stroke-linejoin:round;}
  </style>
 </defs>
 <g id="figure_1">
  <g id="patch_1">
   <path d="M 0 345.6 
L 460.8 345.6 
L 460.8 0 
L 0 0 
z
" style="fill:#ffffff;"/>
  </g>
  <g id="axes_1">
   <g id="patch_2">
    <path d="M 57.6 307.584 
L 414.72 307.584 
L 414.72 41.472 
L 57.6 41.472 
z
" style="fill:#ffffff;"/>
   </g>
   <g id="matplotlib.axis_1">
    <g id="xtick_1">
     <g id="line2d_1">
      <defs>
       <path d="M 0 0 
L 0 3.5 
" id="me32d34e578" style="stroke:#000000;stroke-width:0.8;"/>
      </defs>
      <g>
       <use style="stroke:#000000;stroke-width:0.8;" x="95.914268" xlink:href="#me32d34e578" y="307.584"/>
      </g>
     </g>
     <g id="text_1">
      <!-- 0.7 -->
      <defs>
       <path d="M 31.78125 66.40625 
Q 24.171875 66.40625 20.328125 58.90625 
Q 16.5 51.421875 16.5 36.375 
Q 16.5 21.390625 20.328125 13.890625 
Q 24.171875 6.390625 31.78125 6.390625 
Q 39.453125 6.390625 43.28125 13.890625 
Q 47.125 21.390625 47.125 36.375 
Q 47.125 51.421875 43.28125 58.90625 
Q 39.453125 66.40625 31.78125 66.40625 
z
M 31.78125 74.21875 
Q 44.046875 74.21875 50.515625 64.515625 
Q 56.984375 54.828125 56.984375 36.375 
Q 56.984375 17.96875 50.515625 8.265625 
Q 44.046875 -1.421875 31.78125 -1.421875 
Q 19.53125 -1.421875 13.0625 8.265625 
Q 6.59375 17.96875 6.59375 36.375 
Q 6.59375 54.828125 13.0625 64.515625 
Q 19.53125 74.21875 31.78125 74.21875 
z
" id="DejaVuSans-30"/>
       <path d="M 10.6875 12.40625 
L 21 12.40625 
L 21 0 
L 10.6875 0 
z
" id="DejaVuSans-2e"/>
       <path d="M 8.203125 72.90625 
L 55.078125 72.90625 
L 55.078125 68.703125 
L 28.609375 0 
L 18.3125 0 
L 43.21875 64.59375 
L 8.203125 64.59375 
z
" id="DejaVuSans-37"/>
      </defs>
      <g transform="translate(87.962705 322.182437)scale(0.1 -0.1)">
       <use xlink:href="#DejaVuSans-30"/>
       <use x="63.623047" xlink:href="#DejaVuSans-2e"/>
       <use x="95.410156" xlink:href="#DejaVuSans-37"/>
      </g>
     </g>
    </g>
    <g id="xtick_2">
     <g id="line2d_2">
      <g>
       <use style="stroke:#000000;stroke-width:0.8;" x="142.499796" xlink:href="#me32d34e578" y="307.584"/>
      </g>
     </g>
     <g id="text_2">
      <!-- 0.8 -->
      <defs>
       <path d="M 31.78125 34.625 
Q 24.75 34.625 20.71875 30.859375 
Q 16.703125 27.09375 16.703125 20.515625 
Q 16.703125 13.921875 20.71875 10.15625 
Q 24.75 6.390625 31.78125 6.390625 
Q 38.8125 6.390625 42.859375 10.171875 
Q 46.921875 13.96875 46.921875 20.515625 
Q 46.921875 27.09375 42.890625 30.859375 
Q 38.875 34.625 31.78125 34.625 
z
M 21.921875 38.8125 
Q 15.578125 40.375 12.03125 44.71875 
Q 8.5 49.078125 8.5 55.328125 
Q 8.5 64.0625 14.71875 69.140625 
Q 20.953125 74.21875 31.78125 74.21875 
Q 42.671875 74.21875 48.875 69.140625 
Q 55.078125 64.0625 55.078125 55.328125 
Q 55.078125 49.078125 51.53125 44.71875 
Q 48 40.375 41.703125 38.8125 
Q 48.828125 37.15625 52.796875 32.3125 
Q 56.78125 27.484375 56.78125 20.515625 
Q 56.78125 9.90625 50.3125 4.234375 
Q 43.84375 -1.421875 31.78125 -1.421875 
Q 19.734375 -1.421875 13.25 4.234375 
Q 6.78125 9.90625 6.78125 20.515625 
Q 6.78125 27.484375 10.78125 32.3125 
Q 14.796875 37.15625 21.921875 38.8125 
z
M 18.3125 54.390625 
Q 18.3125 48.734375 21.84375 45.5625 
Q 25.390625 42.390625 31.78125 42.390625 
Q 38.140625 42.390625 41.71875 45.5625 
Q 45.3125 48.734375 45.3125 54.390625 
Q 45.3125 60.0625 41.71875 63.234375 
Q 38.140625 66.40625 31.78125 66.40625 
Q 25.390625 66.40625 21.84375 63.234375 
Q 18.3125 60.0625 18.3125 54.390625 
z
" id="DejaVuSans-38"/>
      </defs>
      <g transform="translate(134.548233 322.182437)scale(0.1 -0.1)">
       <use xlink:href="#DejaVuSans-30"/>
       <use x="63.623047" xlink:href="#DejaVuSans-2e"/>
       <use x="95.410156" xlink:href="#DejaVuSans-38"/>
      </g>
     </g>
    </g>
    <g id="xtick_3">
     <g id="line2d_3">
      <g>
       <use style="stroke:#000000;stroke-width:0.8;" x="189.085324" xlink:href="#me32d34e578" y="307.584"/>
      </g>
     </g>
     <g id="text_3">
      <!-- 0.9 -->
      <defs>
       <path d="M 10.984375 1.515625 
L 10.984375 10.5 
Q 14.703125 8.734375 18.5 7.8125 
Q 22.3125 6.890625 25.984375 6.890625 
Q 35.75 6.890625 40.890625 13.453125 
Q 46.046875 20.015625 46.78125 33.40625 
Q 43.953125 29.203125 39.59375 26.953125 
Q 35.25 24.703125 29.984375 24.703125 
Q 19.046875 24.703125 12.671875 31.3125 
Q 6.296875 37.9375 6.296875 49.421875 
Q 6.296875 60.640625 12.9375 67.421875 
Q 19.578125 74.21875 30.609375 74.21875 
Q 43.265625 74.21875 49.921875 64.515625 
Q 56.59375 54.828125 56.59375 36.375 
Q 56.59375 19.140625 48.40625 8.859375 
Q 40.234375 -1.421875 26.421875 -1.421875 
Q 22.703125 -1.421875 18.890625 -0.6875 
Q 15.09375 0.046875 10.984375 1.515625 
z
M 30.609375 32.421875 
Q 37.25 32.421875 41.125 36.953125 
Q 45.015625 41.5 45.015625 49.421875 
Q 45.015625 57.28125 41.125 61.84375 
Q 37.25 66.40625 30.609375 66.40625 
Q 23.96875 66.40625 20.09375 61.84375 
Q 16.21875 57.28125 16.21875 49.421875 
Q 16.21875 41.5 20.09375 36.953125 
Q 23.96875 32.421875 30.609375 32.421875 
z
" id="DejaVuSans-39"/>
      </defs>
      <g transform="translate(181.133761 322.182437)scale(0.1 -0.1)">
       <use xlink:href="#DejaVuSans-30"/>
       <use x="63.623047" xlink:href="#DejaVuSans-2e"/>
       <use x="95.410156" xlink:href="#DejaVuSans-39"/>
      </g>
     </g>
    </g>
    <g id="xtick_4">
     <g id="line2d_4">
      <g>
       <use style="stroke:#000000;stroke-width:0.8;" x="235.670852" xlink:href="#me32d34e578" y="307.584"/>
      </g>
     </g>
     <g id="text_4">
      <!-- 1.0 -->
      <defs>
       <path d="M 12.40625 8.296875 
L 28.515625 8.296875 
L 28.515625 63.921875 
L 10.984375 60.40625 
L 10.984375 69.390625 
L 28.421875 72.90625 
L 38.28125 72.90625 
L 38.28125 8.296875 
L 54.390625 8.296875 
L 54.390625 0 
L 12.40625 0 
z
" id="DejaVuSans-31"/>
      </defs>
      <g transform="translate(227.719289 322.182437)scale(0.1 -0.1)">
       <use xlink:href="#DejaVuSans-31"/>
       <use x="63.623047" xlink:href="#DejaVuSans-2e"/>
       <use x="95.410156" xlink:href="#DejaVuSans-30"/>
      </g>
     </g>
    </g>
    <g id="xtick_5">
     <g id="line2d_5">
      <g>
       <use style="stroke:#000000;stroke-width:0.8;" x="282.25638" xlink:href="#me32d34e578" y="307.584"/>
      </g>
     </g>
     <g id="text_5">
      <!-- 1.1 -->
      <g transform="translate(274.304818 322.182437)scale(0.1 -0.1)">
       <use xlink:href="#DejaVuSans-31"/>
       <use x="63.623047" xlink:href="#DejaVuSans-2e"/>
       <use x="95.410156" xlink:href="#DejaVuSans-31"/>
      </g>
     </g>
    </g>
    <g id="xtick_6">
     <g id="line2d_6">
      <g>
       <use style="stroke:#000000;stroke-width:0.8;" x="328.841908" xlink:href="#me32d34e578" y="307.584"/>
      </g>
     </g>
     <g id="text_6">
      <!-- 1.2 -->
      <defs>
       <path d="M 19.1875 8.296875 
L 53.609375 8.296875 
L 53.609375 0 
L 7.328125 0 
L 7.328125 8.296875 
Q 12.9375 14.109375 22.625 23.890625 
Q 32.328125 33.6875 34.8125 36.53125 
Q 39.546875 41.84375 41.421875 45.53125 
Q 43.3125 49.21875 43.3125 52.78125 
Q 43.3125 58.59375 39.234375 62.25 
Q 35.15625 65.921875 28.609375 65.921875 
Q 23.96875 65.921875 18.8125 64.3125 
Q 13.671875 62.703125 7.8125 59.421875 
L 7.8125 69.390625 
Q 13.765625 71.78125 18.9375 73 
Q 24.125 74.21875 28.421875 74.21875 
Q 39.75 74.21875 46.484375 68.546875 
Q 53.21875 62.890625 53.21875 53.421875 
Q 53.21875 48.921875 51.53125 44.890625 
Q 49.859375 40.875 45.40625 35.40625 
Q 44.1875 33.984375 37.640625 27.21875 
Q 31.109375 20.453125 19.1875 8.296875 
z
" id="DejaVuSans-32"/>
      </defs>
      <g transform="translate(320.890346 322.182437)scale(0.1 -0.1)">
       <use xlink:href="#DejaVuSans-31"/>
       <use x="63.623047" xlink:href="#DejaVuSans-2e"/>
       <use x="95.410156" xlink:href="#DejaVuSans-32"/>
      </g>
     </g>
    </g>
    <g id="xtick_7">
     <g id="line2d_7">
      <g>
       <use style="stroke:#000000;stroke-width:0.8;" x="375.427436" xlink:href="#me32d34e578" y="307.584"/>
      </g>
     </g>
     <g id="text_7">
      <!-- 1.3 -->
      <defs>
       <path d="M 40.578125 39.3125 
Q 47.65625 37.796875 51.625 33 
Q 55.609375 28.21875 55.609375 21.1875 
Q 55.609375 10.40625 48.1875 4.484375 
Q 40.765625 -1.421875 27.09375 -1.421875 
Q 22.515625 -1.421875 17.65625 -0.515625 
Q 12.796875 0.390625 7.625 2.203125 
L 7.625 11.71875 
Q 11.71875 9.328125 16.59375 8.109375 
Q 21.484375 6.890625 26.8125 6.890625 
Q 36.078125 6.890625 40.9375 10.546875 
Q 45.796875 14.203125 45.796875 21.1875 
Q 45.796875 27.640625 41.28125 31.265625 
Q 36.765625 34.90625 28.71875 34.90625 
L 20.21875 34.90625 
L 20.21875 43.015625 
L 29.109375 43.015625 
Q 36.375 43.015625 40.234375 45.921875 
Q 44.09375 48.828125 44.09375 54.296875 
Q 44.09375 59.90625 40.109375 62.90625 
Q 36.140625 65.921875 28.71875 65.921875 
Q 24.65625 65.921875 20.015625 65.03125 
Q 15.375 64.15625 9.8125 62.3125 
L 9.8125 71.09375 
Q 15.4375 72.65625 20.34375 73.4375 
Q 25.25 74.21875 29.59375 74.21875 
Q 40.828125 74.21875 47.359375 69.109375 
Q 53.90625 64.015625 53.90625 55.328125 
Q 53.90625 49.265625 50.4375 45.09375 
Q 46.96875 40.921875 40.578125 39.3125 
z
" id="DejaVuSans-33"/>
      </defs>
      <g transform="translate(367.475874 322.182437)scale(0.1 -0.1)">
       <use xlink:href="#DejaVuSans-31"/>
       <use x="63.623047" xlink:href="#DejaVuSans-2e"/>
       <use x="95.410156" xlink:href="#DejaVuSans-33"/>
      </g>
     </g>
    </g>
   </g>
   <g id="matplotlib.axis_2">
    <g id="ytick_1">
     <g id="line2d_8">
      <defs>
       <path d="M 0 0 
L -3.5 0 
" id="mf1192b328f" style="stroke:#000000;stroke-width:0.8;"/>
      </defs>
      <g>
       <use style="stroke:#000000;stroke-width:0.8;" x="57.6" xlink:href="#mf1192b328f" y="297.69139"/>
      </g>
     </g>
     <g id="text_8">
      <!-- −1.00 -->
      <defs>
       <path d="M 10.59375 35.5 
L 73.1875 35.5 
L 73.1875 27.203125 
L 10.59375 27.203125 
z
" id="DejaVuSans-2212"/>
      </defs>
      <g transform="translate(19.954687 301.490609)scale(0.1 -0.1)">
       <use xlink:href="#DejaVuSans-2212"/>
       <use x="83.789062" xlink:href="#DejaVuSans-31"/>
       <use x="147.412109" xlink:href="#DejaVuSans-2e"/>
       <use x="179.199219" xlink:href="#DejaVuSans-30"/>
       <use x="242.822266" xlink:href="#DejaVuSans-30"/>
      </g>
     </g>
    </g>
    <g id="ytick_2">
     <g id="line2d_9">
      <g>
       <use style="stroke:#000000;stroke-width:0.8;" x="57.6" xlink:href="#mf1192b328f" y="267.088749"/>
      </g>
     </g>
     <g id="text_9">
      <!-- −0.75 -->
      <defs>
       <path d="M 10.796875 72.90625 
L 49.515625 72.90625 
L 49.515625 64.59375 
L 19.828125 64.59375 
L 19.828125 46.734375 
Q 21.96875 47.46875 24.109375 47.828125 
Q 26.265625 48.1875 28.421875 48.1875 
Q 40.625 48.1875 47.75 41.5 
Q 54.890625 34.8125 54.890625 23.390625 
Q 54.890625 11.625 47.5625 5.09375 
Q 40.234375 -1.421875 26.90625 -1.421875 
Q 22.3125 -1.421875 17.546875 -0.640625 
Q 12.796875 0.140625 7.71875 1.703125 
L 7.71875 11.625 
Q 12.109375 9.234375 16.796875 8.0625 
Q 21.484375 6.890625 26.703125 6.890625 
Q 35.15625 6.890625 40.078125 11.328125 
Q 45.015625 15.765625 45.015625 23.390625 
Q 45.015625 31 40.078125 35.4375 
Q 35.15625 39.890625 26.703125 39.890625 
Q 22.75 39.890625 18.8125 39.015625 
Q 14.890625 38.140625 10.796875 36.28125 
z
" id="DejaVuSans-35"/>
      </defs>
      <g transform="translate(19.954687 270.887968)scale(0.1 -0.1)">
       <use xlink:href="#DejaVuSans-2212"/>
       <use x="83.789062" xlink:href="#DejaVuSans-30"/>
       <use x="147.412109" xlink:href="#DejaVuSans-2e"/>
       <use x="179.199219" xlink:href="#DejaVuSans-37"/>
       <use x="242.822266" xlink:href="#DejaVuSans-35"/>
      </g>
     </g>
    </g>
    <g id="ytick_3">
     <g id="line2d_10">
      <g>
       <use style="stroke:#000000;stroke-width:0.8;" x="57.6" xlink:href="#mf1192b328f" y="236.486108"/>
      </g>
     </g>
     <g id="text_10">
      <!-- −0.50 -->
      <g transform="translate(19.954687 240.285326)scale(0.1 -0.1)">
       <use xlink:href="#DejaVuSans-2212"/>
       <use x="83.789062" xlink:href="#DejaVuSans-30"/>
       <use x="147.412109" xlink:href="#DejaVuSans-2e"/>
       <use x="179.199219" xlink:href="#DejaVuSans-35"/>
       <use x="242.822266" xlink:href="#DejaVuSans-30"/>
      </g>
     </g>
    </g>
    <g id="ytick_4">
     <g id="line2d_11">
      <g>
       <use style="stroke:#000000;stroke-width:0.8;" x="57.6" xlink:href="#mf1192b328f" y="205.883466"/>
      </g>
     </g>
     <g id="text_11">
      <!-- −0.25 -->
      <g transform="translate(19.954687 209.682685)scale(0.1 -0.1)">
       <use xlink:href="#DejaVuSans-2212"/>
       <use x="83.789062" xlink:href="#DejaVuSans-30"/>
       <use x="147.412109" xlink:href="#DejaVuSans-2e"/>
       <use x="179.199219" xlink:href="#DejaVuSans-32"/>
       <use x="242.822266" xlink:href="#DejaVuSans-35"/>
      </g>
     </g>
    </g>
    <g id="ytick_5">
     <g id="line2d_12">
      <g>
       <use style="stroke:#000000;stroke-width:0.8;" x="57.6" xlink:href="#mf1192b328f" y="175.280825"/>
      </g>
     </g>
     <g id="text_12">
      <!-- 0.00 -->
      <g transform="translate(28.334375 179.080044)scale(0.1 -0.1)">
       <use xlink:href="#DejaVuSans-30"/>
       <use x="63.623047" xlink:href="#DejaVuSans-2e"/>
       <use x="95.410156" xlink:href="#DejaVuSans-30"/>
       <use x="159.033203" xlink:href="#DejaVuSans-30"/>
      </g>
     </g>
    </g>
    <g id="ytick_6">
     <g id="line2d_13">
      <g>
       <use style="stroke:#000000;stroke-width:0.8;" x="57.6" xlink:href="#mf1192b328f" y="144.678184"/>
      </g>
     </g>
     <g id="text_13">
      <!-- 0.25 -->
      <g transform="translate(28.334375 148.477402)scale(0.1 -0.1)">
       <use xlink:href="#DejaVuSans-30"/>
       <use x="63.623047" xlink:href="#DejaVuSans-2e"/>
       <use x="95.410156" xlink:href="#DejaVuSans-32"/>
       <use x="159.033203" xlink:href="#DejaVuSans-35"/>
      </g>
     </g>
    </g>
    <g id="ytick_7">
     <g id="line2d_14">
      <g>
       <use style="stroke:#000000;stroke-width:0.8;" x="57.6" xlink:href="#mf1192b328f" y="114.075542"/>
      </g>
     </g>
     <g id="text_14">
      <!-- 0.50 -->
      <g transform="translate(28.334375 117.874761)scale(0.1 -0.1)">
       <use xlink:href="#DejaVuSans-30"/>
       <use x="63.623047" xlink:href="#DejaVuSans-2e"/>
       <use x="95.410156" xlink:href="#DejaVuSans-35"/>
       <use x="159.033203" xlink:href="#DejaVuSans-30"/>
      </g>
     </g>
    </g>
    <g id="ytick_8">
     <g id="line2d_15">
      <g>
       <use style="stroke:#000000;stroke-width:0.8;" x="57.6" xlink:href="#mf1192b328f" y="83.472901"/>
      </g>
     </g>
     <g id="text_15">
      <!-- 0.75 -->
      <g transform="translate(28.334375 87.27212)scale(0.1 -0.1)">
       <use xlink:href="#DejaVuSans-30"/>
       <use x="63.623047" xlink:href="#DejaVuSans-2e"/>
       <use x="95.410156" xlink:href="#DejaVuSans-37"/>
       <use x="159.033203" xlink:href="#DejaVuSans-35"/>
      </g>
     </g>
    </g>
    <g id="ytick_9">
     <g id="line2d_16">
      <g>
       <use style="stroke:#000000;stroke-width:0.8;" x="57.6" xlink:href="#mf1192b328f" y="52.87026"/>
      </g>
     </g>
     <g id="text_16">
      <!-- 1.00 -->
      <g transform="translate(28.334375 56.669479)scale(0.1 -0.1)">
       <use xlink:href="#DejaVuSans-31"/>
       <use x="63.623047" xlink:href="#DejaVuSans-2e"/>
       <use x="95.410156" xlink:href="#DejaVuSans-30"/>
       <use x="159.033203" xlink:href="#DejaVuSans-30"/>
      </g>
     </g>
    </g>
   </g>
   <g id="line2d_17">
    <defs>
     <path d="M 0 0.5 
C 0.132602 0.5 0.25979 0.447317 0.353553 0.353553 
C 0.447317 0.25979 0.5 0.132602 0.5 0 
C 0.5 -0.132602 0.447317 -0.25979 0.353553 -0.353553 
C 0.25979 -0.447317 0.132602 -0.5 0 -0.5 
C -0.132602 -0.5 -0.25979 -0.447317 -0.353553 -0.353553 
C -0.447317 -0.25979 -0.5 -0.132602 -0.5 0 
C -0.5 0.132602 -0.447317 0.25979 -0.353553 0.353553 
C -0.25979 0.447317 -0.132602 0.5 0 0.5 
z
" id="m447285b787" style="stroke:#ff7f0e;"/>
    </defs>
    <g clip-path="url(#p58e7a3bc1a)">
     <use style="fill:#ff7f0e;opacity:0.5;stroke:#ff7f0e;" x="375.28768" xlink:href="#m447285b787" y="174.154648"/>
    </g>
   </g>
   <g id="line2d_18">
    <defs>
     <path d="M 0 0.5 
C 0.132602 0.5 0.25979 0.447317 0.353553 0.353553 
C 0.447317 0.25979 0.5 0.132602 0.5 0 
C 0.5 -0.132602 0.447317 -0.25979 0.353553 -0.353553 
C 0.25979 -0.447317 0.132602 -0.5 0 -0.5 
C -0.132602 -0.5 -0.25979 -0.447317 -0.353553 -0.353553 
C -0.447317 -0.25979 -0.5 -0.132602 -0.5 0 
C -0.5 0.132602 -0.447317 0.25979 -0.353553 0.353553 
C -0.25979 0.447317 -0.132602 0.5 0 0.5 
z
" id="m414144c75b" style="stroke:#1f77b4;"/>
    </defs>
    <g clip-path="url(#p58e7a3bc1a)">
     <use style="fill:#1f77b4;opacity:0.5;stroke:#1f77b4;" x="165.280119" xlink:href="#m414144c75b" y="93.363675"/>
     <use style="fill:#1f77b4;opacity:0.5;stroke:#1f77b4;" x="389.636022" xlink:href="#m414144c75b" y="73.924877"/>
     <use style="fill:#1f77b4;opacity:0.5;stroke:#1f77b4;" x="392.47774" xlink:href="#m414144c75b" y="223.841096"/>
     <use style="fill:#1f77b4;opacity:0.5;stroke:#1f77b4;" x="347.615876" xlink:href="#m414144c75b" y="258.348635"/>
     <use style="fill:#1f77b4;opacity:0.5;stroke:#1f77b4;" x="235.298168" xlink:href="#m414144c75b" y="256.659369"/>
     <use style="fill:#1f77b4;opacity:0.5;stroke:#1f77b4;" x="108.538946" xlink:href="#m414144c75b" y="219.520003"/>
     <use style="fill:#1f77b4;opacity:0.5;stroke:#1f77b4;" x="74.764438" xlink:href="#m414144c75b" y="139.622627"/>
     <use style="fill:#1f77b4;opacity:0.5;stroke:#1f77b4;" x="398.487273" xlink:href="#m414144c75b" y="252.583097"/>
     <use style="fill:#1f77b4;opacity:0.5;stroke:#1f77b4;" x="73.832727" xlink:href="#m414144c75b" y="210.229041"/>
     <use style="fill:#1f77b4;opacity:0.5;stroke:#1f77b4;" x="187.780929" xlink:href="#m414144c75b" y="102.471021"/>
     <use style="fill:#1f77b4;opacity:0.5;stroke:#1f77b4;" x="339.929264" xlink:href="#m414144c75b" y="89.703599"/>
     <use style="fill:#1f77b4;opacity:0.5;stroke:#1f77b4;" x="396.111411" xlink:href="#m414144c75b" y="131.6537"/>
     <use style="fill:#1f77b4;opacity:0.5;stroke:#1f77b4;" x="363.175442" xlink:href="#m414144c75b" y="254.59063"/>
     <use style="fill:#1f77b4;opacity:0.5;stroke:#1f77b4;" x="233.481332" xlink:href="#m414144c75b" y="256.965395"/>
     <use style="fill:#1f77b4;opacity:0.5;stroke:#1f77b4;" x="87.854971" xlink:href="#m414144c75b" y="207.107572"/>
    </g>
   </g>
   <g id="line2d_19">
    <g clip-path="url(#p58e7a3bc1a)">
     <use style="fill:#1f77b4;opacity:0.5;stroke:#1f77b4;" x="240.37599" xlink:href="#m414144c75b" y="292.182915"/>
     <use style="fill:#1f77b4;opacity:0.5;stroke:#1f77b4;" x="319.33846" xlink:href="#m414144c75b" y="267.859935"/>
     <use style="fill:#1f77b4;opacity:0.5;stroke:#1f77b4;" x="113.197499" xlink:href="#m414144c75b" y="91.833543"/>
     <use style="fill:#1f77b4;opacity:0.5;stroke:#1f77b4;" x="158.29229" xlink:href="#m414144c75b" y="268.655604"/>
     <use style="fill:#1f77b4;opacity:0.5;stroke:#1f77b4;" x="340.581461" xlink:href="#m414144c75b" y="288.853347"/>
     <use style="fill:#1f77b4;opacity:0.5;stroke:#1f77b4;" x="178.883093" xlink:href="#m414144c75b" y="277.579334"/>
     <use style="fill:#1f77b4;opacity:0.5;stroke:#1f77b4;" x="390.474562" xlink:href="#m414144c75b" y="285.242236"/>
     <use style="fill:#1f77b4;opacity:0.5;stroke:#1f77b4;" x="174.177955" xlink:href="#m414144c75b" y="89.581188"/>
     <use style="fill:#1f77b4;opacity:0.5;stroke:#1f77b4;" x="223.651786" xlink:href="#m414144c75b" y="72.370263"/>
     <use style="fill:#1f77b4;opacity:0.5;stroke:#1f77b4;" x="136.769776" xlink:href="#m414144c75b" y="104.454072"/>
     <use style="fill:#1f77b4;opacity:0.5;stroke:#1f77b4;" x="381.576726" xlink:href="#m414144c75b" y="71.611317"/>
     <use style="fill:#1f77b4;opacity:0.5;stroke:#1f77b4;" x="227.238871" xlink:href="#m414144c75b" y="254.774246"/>
     <use style="fill:#1f77b4;opacity:0.5;stroke:#1f77b4;" x="137.515144" xlink:href="#m414144c75b" y="231.712096"/>
    </g>
   </g>
   <g id="line2d_20">
    <g clip-path="url(#p58e7a3bc1a)">
     <use style="fill:#1f77b4;opacity:0.5;stroke:#1f77b4;" x="103.135024" xlink:href="#m414144c75b" y="115.471023"/>
     <use style="fill:#1f77b4;opacity:0.5;stroke:#1f77b4;" x="370.862055" xlink:href="#m414144c75b" y="72.039754"/>
     <use style="fill:#1f77b4;opacity:0.5;stroke:#1f77b4;" x="106.349426" xlink:href="#m414144c75b" y="286.833573"/>
     <use style="fill:#1f77b4;opacity:0.5;stroke:#1f77b4;" x="360.333725" xlink:href="#m414144c75b" y="274.347695"/>
     <use style="fill:#1f77b4;opacity:0.5;stroke:#1f77b4;" x="213.356384" xlink:href="#m414144c75b" y="264.909841"/>
    </g>
   </g>
   <g id="line2d_21">
    <g clip-path="url(#p58e7a3bc1a)">
     <use style="fill:#1f77b4;opacity:0.5;stroke:#1f77b4;" x="248.575043" xlink:href="#m414144c75b" y="85.529399"/>
     <use style="fill:#1f77b4;opacity:0.5;stroke:#1f77b4;" x="241.726971" xlink:href="#m414144c75b" y="58.966306"/>
     <use style="fill:#1f77b4;opacity:0.5;stroke:#1f77b4;" x="170.637455" xlink:href="#m414144c75b" y="280.847696"/>
     <use style="fill:#1f77b4;opacity:0.5;stroke:#1f77b4;" x="257.752392" xlink:href="#m414144c75b" y="82.518099"/>
     <use style="fill:#1f77b4;opacity:0.5;stroke:#1f77b4;" x="308.204519" xlink:href="#m414144c75b" y="77.229962"/>
     <use style="fill:#1f77b4;opacity:0.5;stroke:#1f77b4;" x="222.953003" xlink:href="#m414144c75b" y="68.391919"/>
     <use style="fill:#1f77b4;opacity:0.5;stroke:#1f77b4;" x="391.6392" xlink:href="#m414144c75b" y="292.537905"/>
     <use style="fill:#1f77b4;opacity:0.5;stroke:#1f77b4;" x="242.14624" xlink:href="#m414144c75b" y="285.144307"/>
     <use style="fill:#1f77b4;opacity:0.5;stroke:#1f77b4;" x="143.524677" xlink:href="#m414144c75b" y="245.923962"/>
    </g>
   </g>
   <g id="line2d_22">
    <g clip-path="url(#p58e7a3bc1a)">
     <use style="fill:#1f77b4;opacity:0.5;stroke:#1f77b4;" x="147.950303" xlink:href="#m414144c75b" y="260.27048"/>
     <use style="fill:#1f77b4;opacity:0.5;stroke:#1f77b4;" x="140.356861" xlink:href="#m414144c75b" y="258.250706"/>
     <use style="fill:#1f77b4;opacity:0.5;stroke:#1f77b4;" x="132.949762" xlink:href="#m414144c75b" y="256.169726"/>
     <use style="fill:#1f77b4;opacity:0.5;stroke:#1f77b4;" x="125.68242" xlink:href="#m414144c75b" y="254.052024"/>
     <use style="fill:#1f77b4;opacity:0.5;stroke:#1f77b4;" x="118.648005" xlink:href="#m414144c75b" y="251.885357"/>
     <use style="fill:#1f77b4;opacity:0.5;stroke:#1f77b4;" x="111.753347" xlink:href="#m414144c75b" y="249.657484"/>
     <use style="fill:#1f77b4;opacity:0.5;stroke:#1f77b4;" x="105.091617" xlink:href="#m414144c75b" y="247.392889"/>
     <use style="fill:#1f77b4;opacity:0.5;stroke:#1f77b4;" x="98.616228" xlink:href="#m414144c75b" y="245.09157"/>
     <use style="fill:#1f77b4;opacity:0.5;stroke:#1f77b4;" x="92.327182" xlink:href="#m414144c75b" y="242.741287"/>
     <use style="fill:#1f77b4;opacity:0.5;stroke:#1f77b4;" x="86.271063" xlink:href="#m414144c75b" y="240.34204"/>
    </g>
   </g>
   <g id="line2d_23">
    <g clip-path="url(#p58e7a3bc1a)">
     <use style="fill:#1f77b4;opacity:0.5;stroke:#1f77b4;" x="139.052467" xlink:href="#m414144c75b" y="251.505884"/>
     <use style="fill:#1f77b4;opacity:0.5;stroke:#1f77b4;" x="133.229276" xlink:href="#m414144c75b" y="279.574627"/>
     <use style="fill:#1f77b4;opacity:0.5;stroke:#1f77b4;" x="377.430614" xlink:href="#m414144c75b" y="80.706422"/>
     <use style="fill:#1f77b4;opacity:0.5;stroke:#1f77b4;" x="96.007439" xlink:href="#m414144c75b" y="71.158398"/>
     <use style="fill:#1f77b4;opacity:0.5;stroke:#1f77b4;" x="93.119136" xlink:href="#m414144c75b" y="70.82789"/>
     <use style="fill:#1f77b4;opacity:0.5;stroke:#1f77b4;" x="88.460583" xlink:href="#m414144c75b" y="283.858996"/>
    </g>
   </g>
   <g id="line2d_24">
    <g clip-path="url(#p58e7a3bc1a)">
     <use style="fill:#1f77b4;opacity:0.5;stroke:#1f77b4;" x="101.551117" xlink:href="#m414144c75b" y="89.581188"/>
     <use style="fill:#1f77b4;opacity:0.5;stroke:#1f77b4;" x="334.339001" xlink:href="#m414144c75b" y="65.343896"/>
     <use style="fill:#1f77b4;opacity:0.5;stroke:#1f77b4;" x="349.75881" xlink:href="#m414144c75b" y="285.021897"/>
     <use style="fill:#1f77b4;opacity:0.5;stroke:#1f77b4;" x="91.022787" xlink:href="#m414144c75b" y="257.357109"/>
    </g>
   </g>
   <g id="line2d_25">
    <g clip-path="url(#p58e7a3bc1a)">
     <use style="fill:#ff7f0e;opacity:0.5;stroke:#ff7f0e;" x="129.409262" xlink:href="#m447285b787" y="139.781761"/>
    </g>
   </g>
   <g id="line2d_26">
    <g clip-path="url(#p58e7a3bc1a)">
     <use style="fill:#1f77b4;opacity:0.5;stroke:#1f77b4;" x="224.44374" xlink:href="#m414144c75b" y="272.621706"/>
     <use style="fill:#1f77b4;opacity:0.5;stroke:#1f77b4;" x="101.83063" xlink:href="#m414144c75b" y="276.159372"/>
     <use style="fill:#1f77b4;opacity:0.5;stroke:#1f77b4;" x="323.764086" xlink:href="#m414144c75b" y="83.215839"/>
     <use style="fill:#1f77b4;opacity:0.5;stroke:#1f77b4;" x="269.44536" xlink:href="#m414144c75b" y="53.568"/>
     <use style="fill:#1f77b4;opacity:0.5;stroke:#1f77b4;" x="181.771396" xlink:href="#m414144c75b" y="254.504943"/>
    </g>
   </g>
   <g id="line2d_27">
    <g clip-path="url(#p58e7a3bc1a)">
     <use style="fill:#1f77b4;opacity:0.5;stroke:#1f77b4;" x="175.948205" xlink:href="#m414144c75b" y="86.692299"/>
     <use style="fill:#1f77b4;opacity:0.5;stroke:#1f77b4;" x="157.360579" xlink:href="#m414144c75b" y="91.772337"/>
     <use style="fill:#1f77b4;opacity:0.5;stroke:#1f77b4;" x="287.939815" xlink:href="#m414144c75b" y="71.244086"/>
     <use style="fill:#1f77b4;opacity:0.5;stroke:#1f77b4;" x="220.437384" xlink:href="#m414144c75b" y="83.595312"/>
     <use style="fill:#1f77b4;opacity:0.5;stroke:#1f77b4;" x="300.191808" xlink:href="#m414144c75b" y="80.057646"/>
     <use style="fill:#1f77b4;opacity:0.5;stroke:#1f77b4;" x="271.914393" xlink:href="#m414144c75b" y="76.789284"/>
    </g>
   </g>
   <g id="line2d_28">
    <g clip-path="url(#p58e7a3bc1a)">
     <use style="fill:#1f77b4;opacity:0.5;stroke:#1f77b4;" x="266.137787" xlink:href="#m414144c75b" y="59.676287"/>
     <use style="fill:#1f77b4;opacity:0.5;stroke:#1f77b4;" x="332.335823" xlink:href="#m414144c75b" y="55.734667"/>
     <use style="fill:#1f77b4;opacity:0.5;stroke:#1f77b4;" x="370.303028" xlink:href="#m414144c75b" y="55.134855"/>
     <use style="fill:#1f77b4;opacity:0.5;stroke:#1f77b4;" x="372.585719" xlink:href="#m414144c75b" y="295.488"/>
     <use style="fill:#1f77b4;opacity:0.5;stroke:#1f77b4;" x="334.571928" xlink:href="#m414144c75b" y="294.888188"/>
     <use style="fill:#1f77b4;opacity:0.5;stroke:#1f77b4;" x="272.193906" xlink:href="#m414144c75b" y="291.411728"/>
     <use style="fill:#1f77b4;opacity:0.5;stroke:#1f77b4;" x="122.840703" xlink:href="#m414144c75b" y="78.931469"/>
     <use style="fill:#1f77b4;opacity:0.5;stroke:#1f77b4;" x="376.452318" xlink:href="#m414144c75b" y="248.115111"/>
     <use style="fill:#1f77b4;opacity:0.5;stroke:#1f77b4;" x="249.413583" xlink:href="#m414144c75b" y="259.560499"/>
     <use style="fill:#1f77b4;opacity:0.5;stroke:#1f77b4;" x="86.224478" xlink:href="#m414144c75b" y="206.568965"/>
     <use style="fill:#1f77b4;opacity:0.5;stroke:#1f77b4;" x="108.585531" xlink:href="#m414144c75b" y="129.646166"/>
     <use style="fill:#1f77b4;opacity:0.5;stroke:#1f77b4;" x="82.87032" xlink:href="#m414144c75b" y="245.287427"/>
    </g>
   </g>
   <g id="line2d_29">
    <g clip-path="url(#p58e7a3bc1a)">
     <use style="fill:#ff7f0e;opacity:0.5;stroke:#ff7f0e;" x="205.06416" xlink:href="#m447285b787" y="100.598139"/>
    </g>
   </g>
   <g id="line2d_30">
    <g clip-path="url(#p58e7a3bc1a)">
     <use style="fill:#ff7f0e;opacity:0.5;stroke:#ff7f0e;" x="352.414185" xlink:href="#m447285b787" y="101.528459"/>
    </g>
   </g>
   <g id="line2d_31">
    <g clip-path="url(#p58e7a3bc1a)">
     <use style="fill:#ff7f0e;opacity:0.5;stroke:#ff7f0e;" x="115.713117" xlink:href="#m447285b787" y="221.209269"/>
    </g>
   </g>
   <g id="line2d_32">
    <g clip-path="url(#p58e7a3bc1a)">
     <use style="fill:#1f77b4;opacity:0.5;stroke:#1f77b4;" x="139.33198" xlink:href="#m414144c75b" y="86.043523"/>
     <use style="fill:#1f77b4;opacity:0.5;stroke:#1f77b4;" x="97.03232" xlink:href="#m414144c75b" y="254.198916"/>
     <use style="fill:#1f77b4;opacity:0.5;stroke:#1f77b4;" x="125.68242" xlink:href="#m414144c75b" y="93.828835"/>
     <use style="fill:#1f77b4;opacity:0.5;stroke:#1f77b4;" x="187.221903" xlink:href="#m414144c75b" y="265.472929"/>
     <use style="fill:#1f77b4;opacity:0.5;stroke:#1f77b4;" x="190.762403" xlink:href="#m414144c75b" y="72.406986"/>
    </g>
   </g>
   <g id="line2d_33">
    <g clip-path="url(#p58e7a3bc1a)">
     <use style="fill:#1f77b4;opacity:0.5;stroke:#1f77b4;" x="99.64111" xlink:href="#m414144c75b" y="122.521871"/>
     <use style="fill:#1f77b4;opacity:0.5;stroke:#1f77b4;" x="353.112968" xlink:href="#m414144c75b" y="273.172554"/>
     <use style="fill:#1f77b4;opacity:0.5;stroke:#1f77b4;" x="192.579238" xlink:href="#m414144c75b" y="262.363701"/>
     <use style="fill:#1f77b4;opacity:0.5;stroke:#1f77b4;" x="249.13407" xlink:href="#m414144c75b" y="275.180087"/>
     <use style="fill:#1f77b4;opacity:0.5;stroke:#1f77b4;" x="317.009184" xlink:href="#m414144c75b" y="271.471047"/>
     <use style="fill:#1f77b4;opacity:0.5;stroke:#1f77b4;" x="239.910135" xlink:href="#m414144c75b" y="268.618881"/>
     <use style="fill:#1f77b4;opacity:0.5;stroke:#1f77b4;" x="106.209669" xlink:href="#m414144c75b" y="74.793992"/>
     <use style="fill:#1f77b4;opacity:0.5;stroke:#1f77b4;" x="381.716483" xlink:href="#m414144c75b" y="246.70739"/>
     <use style="fill:#1f77b4;opacity:0.5;stroke:#1f77b4;" x="224.164227" xlink:href="#m414144c75b" y="256.647128"/>
     <use style="fill:#1f77b4;opacity:0.5;stroke:#1f77b4;" x="98.150373" xlink:href="#m414144c75b" y="73.190414"/>
    </g>
   </g>
   <g id="line2d_34">
    <g clip-path="url(#p58e7a3bc1a)">
     <use style="fill:#1f77b4;opacity:0.5;stroke:#1f77b4;" x="389.86895" xlink:href="#m414144c75b" y="280.07651"/>
     <use style="fill:#1f77b4;opacity:0.5;stroke:#1f77b4;" x="109.051387" xlink:href="#m414144c75b" y="237.465392"/>
     <use style="fill:#1f77b4;opacity:0.5;stroke:#1f77b4;" x="237.347931" xlink:href="#m414144c75b" y="78.111318"/>
     <use style="fill:#1f77b4;opacity:0.5;stroke:#1f77b4;" x="173.805271" xlink:href="#m414144c75b" y="65.27045"/>
    </g>
   </g>
   <g id="line2d_35">
    <g clip-path="url(#p58e7a3bc1a)">
     <use style="fill:#1f77b4;opacity:0.5;stroke:#1f77b4;" x="190.855574" xlink:href="#m414144c75b" y="256.390065"/>
     <use style="fill:#1f77b4;opacity:0.5;stroke:#1f77b4;" x="180.420416" xlink:href="#m414144c75b" y="96.570832"/>
     <use style="fill:#1f77b4;opacity:0.5;stroke:#1f77b4;" x="164.115481" xlink:href="#m414144c75b" y="285.572744"/>
     <use style="fill:#1f77b4;opacity:0.5;stroke:#1f77b4;" x="381.763068" xlink:href="#m414144c75b" y="80.669699"/>
     <use style="fill:#1f77b4;opacity:0.5;stroke:#1f77b4;" x="159.550099" xlink:href="#m414144c75b" y="91.79682"/>
     <use style="fill:#1f77b4;opacity:0.5;stroke:#1f77b4;" x="112.172617" xlink:href="#m414144c75b" y="277.934325"/>
     <use style="fill:#1f77b4;opacity:0.5;stroke:#1f77b4;" x="206.880996" xlink:href="#m414144c75b" y="68.330714"/>
     <use style="fill:#1f77b4;opacity:0.5;stroke:#1f77b4;" x="340.162192" xlink:href="#m414144c75b" y="60.386268"/>
     <use style="fill:#1f77b4;opacity:0.5;stroke:#1f77b4;" x="109.004801" xlink:href="#m414144c75b" y="259.181026"/>
     <use style="fill:#1f77b4;opacity:0.5;stroke:#1f77b4;" x="292.505196" xlink:href="#m414144c75b" y="67.143332"/>
     <use style="fill:#1f77b4;opacity:0.5;stroke:#1f77b4;" x="111.380663" xlink:href="#m414144c75b" y="95.126387"/>
    </g>
   </g>
   <g id="line2d_36">
    <g clip-path="url(#p58e7a3bc1a)">
     <use style="fill:#1f77b4;opacity:0.5;stroke:#1f77b4;" x="135.977822" xlink:href="#m414144c75b" y="256.500235"/>
     <use style="fill:#1f77b4;opacity:0.5;stroke:#1f77b4;" x="152.282757" xlink:href="#m414144c75b" y="260.870292"/>
     <use style="fill:#1f77b4;opacity:0.5;stroke:#1f77b4;" x="169.33306" xlink:href="#m414144c75b" y="264.995528"/>
     <use style="fill:#1f77b4;opacity:0.5;stroke:#1f77b4;" x="187.082146" xlink:href="#m414144c75b" y="268.851461"/>
     <use style="fill:#1f77b4;opacity:0.5;stroke:#1f77b4;" x="205.343673" xlink:href="#m414144c75b" y="272.438091"/>
     <use style="fill:#1f77b4;opacity:0.5;stroke:#1f77b4;" x="125.356321" xlink:href="#m414144c75b" y="288.730937"/>
     <use style="fill:#1f77b4;opacity:0.5;stroke:#1f77b4;" x="296.604723" xlink:href="#m414144c75b" y="71.097193"/>
    </g>
   </g>
   <g id="patch_3">
    <path d="M 57.6 307.584 
L 57.6 41.472 
" style="fill:none;stroke:#000000;stroke-linecap:square;stroke-linejoin:miter;stroke-width:0.8;"/>
   </g>
   <g id="patch_4">
    <path d="M 414.72 307.584 
L 414.72 41.472 
" style="fill:none;stroke:#000000;stroke-linecap:square;stroke-linejoin:miter;stroke-width:0.8;"/>
   </g>
   <g id="patch_5">
    <path d="M 57.6 307.584 
L 414.72 307.584 
" style="fill:none;stroke:#000000;stroke-linecap:square;stroke-linejoin:miter;stroke-width:0.8;"/>
   </g>
   <g id="patch_6">
    <path d="M 57.6 41.472 
L 414.72 41.472 
" style="fill:none;stroke:#000000;stroke-linecap:square;stroke-linejoin:miter;stroke-width:0.8;"/>
   </g>
  </g>
 </g>
 <defs>
  <clipPath id="p58e7a3bc1a">
   <rect height="266.112" width="357.12" x="57.6" y="41.472"/>
  </clipPath>
 </defs>
</svg>
