<?xml version="1.0" encoding="utf-8" standalone="no"?>
<!DOCTYPE svg PUBLIC "-//W3C//DTD SVG 1.1//EN"
  "http://www.w3.org/Graphics/SVG/1.1/DTD/svg11.dtd">
<!-- Created with matplotlib (http://matplotlib.org/) -->
<svg height="345.6pt" version="1.1" viewBox="0 0 460.8 345.6" width="460.8pt" xmlns="http://www.w3.org/2000/svg" xmlns:xlink="http://www.w3.org/1999/xlink">
 <defs>
  <style type="text/css">
*{stroke-linecap:butt;stroke-linejoin:round;}
  </style>
 </defs>
 <g id="figure_1">
  <g id="patch_1">
   <path d="M 0 345.6 
L 460.8 345.6 
L 460.8 0 
L 0 0 
z
" style="fill:#ffffff;"/>
  </g>
  <g id="axes_1">
   <g id="patch_2">
    <path d="M 82.520165 307.584 
L 389.799835 307.584 
L 389.799835 41.472 
L 82.520165 41.472 
z
" style="fill:#ffffff;"/>
   </g>
   <g id="PathCollection_1">
    <defs>
     <path d="M 0 2.738613 
C 0.726289 2.738613 1.422928 2.450055 1.936492 1.936492 
C 2.450055 1.422928 2.738613 0.726289 2.738613 0 
C 2.738613 -0.726289 2.450055 -1.422928 1.936492 -1.936492 
C 1.422928 -2.450055 0.726289 -2.738613 0 -2.738613 
C -0.726289 -2.738613 -1.422928 -2.450055 -1.936492 -1.936492 
C -2.450055 -1.422928 -2.738613 -0.726289 -2.738613 0 
C -2.738613 0.726289 -2.450055 1.422928 -1.936492 1.936492 
C -1.422928 2.450055 -0.726289 2.738613 0 2.738613 
z
" id="m5b21432ec7" style="stroke:#000000;"/>
    </defs>
    <g clip-path="url(#pdb67cea311)">
     <use style="stroke:#000000;" x="208.311073" xlink:href="#m5b21432ec7" y="217.507497"/>
    </g>
   </g>
   <g id="Quiver_1">
    <path clip-path="url(#pdb67cea311)" d="M 209.038007 217.755885 
L 203.325064 234.475366 
L 205.027321 234.24521 
L 200.362631 240.769383 
L 200.665717 232.754877 
L 201.871196 233.978589 
L 207.584139 217.259108 
L 209.038007 217.755885 
"/>
   </g>
   <g id="patch_3">
    <path clip-path="url(#pdb67cea311)" d="M 236.16 225.741278 
C 249.74192 225.741278 262.769389 220.345124 272.373256 210.741256 
C 281.977124 201.137389 287.373278 188.10992 287.373278 174.528 
C 287.373278 160.94608 281.977124 147.918611 272.373256 138.314744 
C 262.769389 128.710876 249.74192 123.314722 236.16 123.314722 
C 222.57808 123.314722 209.550611 128.710876 199.946744 138.314744 
C 190.342876 147.918611 184.946722 160.94608 184.946722 174.528 
C 184.946722 188.10992 190.342876 201.137389 199.946744 210.741256 
C 209.550611 220.345124 222.57808 225.741278 236.16 225.741278 
z
" style="fill:#009900;fill-opacity:0.5;stroke:#009900;stroke-linejoin:miter;stroke-width:2;"/>
   </g>
   <g id="matplotlib.axis_1">
    <g id="xtick_1">
     <g id="line2d_1">
      <defs>
       <path d="M 0 0 
L 0 3.5 
" id="m885cccd0a7" style="stroke:#000000;stroke-width:0.8;"/>
      </defs>
      <g>
       <use style="stroke:#000000;stroke-width:0.8;" x="108.126804" xlink:href="#m885cccd0a7" y="307.584"/>
      </g>
     </g>
     <g id="text_1">
      <!-- −2 -->
      <defs>
       <path d="M 10.59375 35.5 
L 73.1875 35.5 
L 73.1875 27.203125 
L 10.59375 27.203125 
z
" id="DejaVuSans-2212"/>
       <path d="M 19.1875 8.296875 
L 53.609375 8.296875 
L 53.609375 0 
L 7.328125 0 
L 7.328125 8.296875 
Q 12.9375 14.109375 22.625 23.890625 
Q 32.328125 33.6875 34.8125 36.53125 
Q 39.546875 41.84375 41.421875 45.53125 
Q 43.3125 49.21875 43.3125 52.78125 
Q 43.3125 58.59375 39.234375 62.25 
Q 35.15625 65.921875 28.609375 65.921875 
Q 23.96875 65.921875 18.8125 64.3125 
Q 13.671875 62.703125 7.8125 59.421875 
L 7.8125 69.390625 
Q 13.765625 71.78125 18.9375 73 
Q 24.125 74.21875 28.421875 74.21875 
Q 39.75 74.21875 46.484375 68.546875 
Q 53.21875 62.890625 53.21875 53.421875 
Q 53.21875 48.921875 51.53125 44.890625 
Q 49.859375 40.875 45.40625 35.40625 
Q 44.1875 33.984375 37.640625 27.21875 
Q 31.109375 20.453125 19.1875 8.296875 
z
" id="DejaVuSans-32"/>
      </defs>
      <g transform="translate(100.755711 322.182437)scale(0.1 -0.1)">
       <use xlink:href="#DejaVuSans-2212"/>
       <use x="83.789062" xlink:href="#DejaVuSans-32"/>
      </g>
     </g>
    </g>
    <g id="xtick_2">
     <g id="line2d_2">
      <g>
       <use style="stroke:#000000;stroke-width:0.8;" x="172.143402" xlink:href="#m885cccd0a7" y="307.584"/>
      </g>
     </g>
     <g id="text_2">
      <!-- −1 -->
      <defs>
       <path d="M 12.40625 8.296875 
L 28.515625 8.296875 
L 28.515625 63.921875 
L 10.984375 60.40625 
L 10.984375 69.390625 
L 28.421875 72.90625 
L 38.28125 72.90625 
L 38.28125 8.296875 
L 54.390625 8.296875 
L 54.390625 0 
L 12.40625 0 
z
" id="DejaVuSans-31"/>
      </defs>
      <g transform="translate(164.772308 322.182437)scale(0.1 -0.1)">
       <use xlink:href="#DejaVuSans-2212"/>
       <use x="83.789062" xlink:href="#DejaVuSans-31"/>
      </g>
     </g>
    </g>
    <g id="xtick_3">
     <g id="line2d_3">
      <g>
       <use style="stroke:#000000;stroke-width:0.8;" x="236.16" xlink:href="#m885cccd0a7" y="307.584"/>
      </g>
     </g>
     <g id="text_3">
      <!-- 0 -->
      <defs>
       <path d="M 31.78125 66.40625 
Q 24.171875 66.40625 20.328125 58.90625 
Q 16.5 51.421875 16.5 36.375 
Q 16.5 21.390625 20.328125 13.890625 
Q 24.171875 6.390625 31.78125 6.390625 
Q 39.453125 6.390625 43.28125 13.890625 
Q 47.125 21.390625 47.125 36.375 
Q 47.125 51.421875 43.28125 58.90625 
Q 39.453125 66.40625 31.78125 66.40625 
z
M 31.78125 74.21875 
Q 44.046875 74.21875 50.515625 64.515625 
Q 56.984375 54.828125 56.984375 36.375 
Q 56.984375 17.96875 50.515625 8.265625 
Q 44.046875 -1.421875 31.78125 -1.421875 
Q 19.53125 -1.421875 13.0625 8.265625 
Q 6.59375 17.96875 6.59375 36.375 
Q 6.59375 54.828125 13.0625 64.515625 
Q 19.53125 74.21875 31.78125 74.21875 
z
" id="DejaVuSans-30"/>
      </defs>
      <g transform="translate(232.97875 322.182437)scale(0.1 -0.1)">
       <use xlink:href="#DejaVuSans-30"/>
      </g>
     </g>
    </g>
    <g id="xtick_4">
     <g id="line2d_4">
      <g>
       <use style="stroke:#000000;stroke-width:0.8;" x="300.176598" xlink:href="#m885cccd0a7" y="307.584"/>
      </g>
     </g>
     <g id="text_4">
      <!-- 1 -->
      <g transform="translate(296.995348 322.182437)scale(0.1 -0.1)">
       <use xlink:href="#DejaVuSans-31"/>
      </g>
     </g>
    </g>
    <g id="xtick_5">
     <g id="line2d_5">
      <g>
       <use style="stroke:#000000;stroke-width:0.8;" x="364.193196" xlink:href="#m885cccd0a7" y="307.584"/>
      </g>
     </g>
     <g id="text_5">
      <!-- 2 -->
      <g transform="translate(361.011946 322.182437)scale(0.1 -0.1)">
       <use xlink:href="#DejaVuSans-32"/>
      </g>
     </g>
    </g>
   </g>
   <g id="matplotlib.axis_2">
    <g id="ytick_1">
     <g id="line2d_6">
      <defs>
       <path d="M 0 0 
L -3.5 0 
" id="m284cc43331" style="stroke:#000000;stroke-width:0.8;"/>
      </defs>
      <g>
       <use style="stroke:#000000;stroke-width:0.8;" x="82.520165" xlink:href="#m284cc43331" y="302.561196"/>
      </g>
     </g>
     <g id="text_6">
      <!-- −2.0 -->
      <defs>
       <path d="M 10.6875 12.40625 
L 21 12.40625 
L 21 0 
L 10.6875 0 
z
" id="DejaVuSans-2e"/>
      </defs>
      <g transform="translate(51.237353 306.360414)scale(0.1 -0.1)">
       <use xlink:href="#DejaVuSans-2212"/>
       <use x="83.789062" xlink:href="#DejaVuSans-32"/>
       <use x="147.412109" xlink:href="#DejaVuSans-2e"/>
       <use x="179.199219" xlink:href="#DejaVuSans-30"/>
      </g>
     </g>
    </g>
    <g id="ytick_2">
     <g id="line2d_7">
      <g>
       <use style="stroke:#000000;stroke-width:0.8;" x="82.520165" xlink:href="#m284cc43331" y="270.552897"/>
      </g>
     </g>
     <g id="text_7">
      <!-- −1.5 -->
      <defs>
       <path d="M 10.796875 72.90625 
L 49.515625 72.90625 
L 49.515625 64.59375 
L 19.828125 64.59375 
L 19.828125 46.734375 
Q 21.96875 47.46875 24.109375 47.828125 
Q 26.265625 48.1875 28.421875 48.1875 
Q 40.625 48.1875 47.75 41.5 
Q 54.890625 34.8125 54.890625 23.390625 
Q 54.890625 11.625 47.5625 5.09375 
Q 40.234375 -1.421875 26.90625 -1.421875 
Q 22.3125 -1.421875 17.546875 -0.640625 
Q 12.796875 0.140625 7.71875 1.703125 
L 7.71875 11.625 
Q 12.109375 9.234375 16.796875 8.0625 
Q 21.484375 6.890625 26.703125 6.890625 
Q 35.15625 6.890625 40.078125 11.328125 
Q 45.015625 15.765625 45.015625 23.390625 
Q 45.015625 31 40.078125 35.4375 
Q 35.15625 39.890625 26.703125 39.890625 
Q 22.75 39.890625 18.8125 39.015625 
Q 14.890625 38.140625 10.796875 36.28125 
z
" id="DejaVuSans-35"/>
      </defs>
      <g transform="translate(51.237353 274.352116)scale(0.1 -0.1)">
       <use xlink:href="#DejaVuSans-2212"/>
       <use x="83.789062" xlink:href="#DejaVuSans-31"/>
       <use x="147.412109" xlink:href="#DejaVuSans-2e"/>
       <use x="179.199219" xlink:href="#DejaVuSans-35"/>
      </g>
     </g>
    </g>
    <g id="ytick_3">
     <g id="line2d_8">
      <g>
       <use style="stroke:#000000;stroke-width:0.8;" x="82.520165" xlink:href="#m284cc43331" y="238.544598"/>
      </g>
     </g>
     <g id="text_8">
      <!-- −1.0 -->
      <g transform="translate(51.237353 242.343817)scale(0.1 -0.1)">
       <use xlink:href="#DejaVuSans-2212"/>
       <use x="83.789062" xlink:href="#DejaVuSans-31"/>
       <use x="147.412109" xlink:href="#DejaVuSans-2e"/>
       <use x="179.199219" xlink:href="#DejaVuSans-30"/>
      </g>
     </g>
    </g>
    <g id="ytick_4">
     <g id="line2d_9">
      <g>
       <use style="stroke:#000000;stroke-width:0.8;" x="82.520165" xlink:href="#m284cc43331" y="206.536299"/>
      </g>
     </g>
     <g id="text_9">
      <!-- −0.5 -->
      <g transform="translate(51.237353 210.335518)scale(0.1 -0.1)">
       <use xlink:href="#DejaVuSans-2212"/>
       <use x="83.789062" xlink:href="#DejaVuSans-30"/>
       <use x="147.412109" xlink:href="#DejaVuSans-2e"/>
       <use x="179.199219" xlink:href="#DejaVuSans-35"/>
      </g>
     </g>
    </g>
    <g id="ytick_5">
     <g id="line2d_10">
      <g>
       <use style="stroke:#000000;stroke-width:0.8;" x="82.520165" xlink:href="#m284cc43331" y="174.528"/>
      </g>
     </g>
     <g id="text_10">
      <!-- 0.0 -->
      <g transform="translate(59.61704 178.327219)scale(0.1 -0.1)">
       <use xlink:href="#DejaVuSans-30"/>
       <use x="63.623047" xlink:href="#DejaVuSans-2e"/>
       <use x="95.410156" xlink:href="#DejaVuSans-30"/>
      </g>
     </g>
    </g>
    <g id="ytick_6">
     <g id="line2d_11">
      <g>
       <use style="stroke:#000000;stroke-width:0.8;" x="82.520165" xlink:href="#m284cc43331" y="142.519701"/>
      </g>
     </g>
     <g id="text_11">
      <!-- 0.5 -->
      <g transform="translate(59.61704 146.31892)scale(0.1 -0.1)">
       <use xlink:href="#DejaVuSans-30"/>
       <use x="63.623047" xlink:href="#DejaVuSans-2e"/>
       <use x="95.410156" xlink:href="#DejaVuSans-35"/>
      </g>
     </g>
    </g>
    <g id="ytick_7">
     <g id="line2d_12">
      <g>
       <use style="stroke:#000000;stroke-width:0.8;" x="82.520165" xlink:href="#m284cc43331" y="110.511402"/>
      </g>
     </g>
     <g id="text_12">
      <!-- 1.0 -->
      <g transform="translate(59.61704 114.310621)scale(0.1 -0.1)">
       <use xlink:href="#DejaVuSans-31"/>
       <use x="63.623047" xlink:href="#DejaVuSans-2e"/>
       <use x="95.410156" xlink:href="#DejaVuSans-30"/>
      </g>
     </g>
    </g>
    <g id="ytick_8">
     <g id="line2d_13">
      <g>
       <use style="stroke:#000000;stroke-width:0.8;" x="82.520165" xlink:href="#m284cc43331" y="78.503103"/>
      </g>
     </g>
     <g id="text_13">
      <!-- 1.5 -->
      <g transform="translate(59.61704 82.302322)scale(0.1 -0.1)">
       <use xlink:href="#DejaVuSans-31"/>
       <use x="63.623047" xlink:href="#DejaVuSans-2e"/>
       <use x="95.410156" xlink:href="#DejaVuSans-35"/>
      </g>
     </g>
    </g>
    <g id="ytick_9">
     <g id="line2d_14">
      <g>
       <use style="stroke:#000000;stroke-width:0.8;" x="82.520165" xlink:href="#m284cc43331" y="46.494804"/>
      </g>
     </g>
     <g id="text_14">
      <!-- 2.0 -->
      <g transform="translate(59.61704 50.294023)scale(0.1 -0.1)">
       <use xlink:href="#DejaVuSans-32"/>
       <use x="63.623047" xlink:href="#DejaVuSans-2e"/>
       <use x="95.410156" xlink:href="#DejaVuSans-30"/>
      </g>
     </g>
    </g>
   </g>
   <g id="line2d_15">
    <path clip-path="url(#pdb67cea311)" d="M 300.176598 63.648 
L 172.143402 63.648 
" style="fill:none;stroke:#009900;stroke-linecap:square;stroke-width:2;"/>
   </g>
   <g id="line2d_16">
    <path clip-path="url(#pdb67cea311)" d="M 172.143402 63.648 
L 108.126804 174.528 
" style="fill:none;stroke:#009900;stroke-linecap:square;stroke-width:2;"/>
   </g>
   <g id="line2d_17">
    <path clip-path="url(#pdb67cea311)" d="M 108.126804 174.528 
L 172.143402 285.408 
" style="fill:none;stroke:#009900;stroke-linecap:square;stroke-width:2;"/>
   </g>
   <g id="line2d_18">
    <path clip-path="url(#pdb67cea311)" d="M 172.143402 285.408 
L 300.176598 285.408 
" style="fill:none;stroke:#009900;stroke-linecap:square;stroke-width:2;"/>
   </g>
   <g id="line2d_19">
    <path clip-path="url(#pdb67cea311)" d="M 300.176598 285.408 
L 364.193196 174.528 
" style="fill:none;stroke:#009900;stroke-linecap:square;stroke-width:2;"/>
   </g>
   <g id="line2d_20">
    <path clip-path="url(#pdb67cea311)" d="M 364.193196 174.528 
L 300.176598 63.648 
" style="fill:none;stroke:#009900;stroke-linecap:square;stroke-width:2;"/>
   </g>
   <g id="line2d_21">
    <path clip-path="url(#pdb67cea311)" d="M 283.128576 114.635844 
L 279.764069 110.775197 
L 276.247869 107.052182 
L 272.585601 103.472756 
L 268.783122 100.042645 
L 264.846518 96.767336 
L 260.782085 93.652069 
L 256.596326 90.701829 
L 252.295937 87.921333 
L 247.887797 85.315032 
L 243.37896 82.887093 
L 238.776637 80.641403 
L 234.088192 78.581552 
L 229.321125 76.710837 
L 224.483062 75.03225 
L 219.581744 73.548477 
L 214.625012 72.261891 
L 209.620794 71.17455 
L 204.577098 70.288195 
L 199.501991 69.604243 
L 194.403592 69.123788 
L 189.290059 68.847598 
L 184.169572 68.776117 
L 179.050322 68.909457 
L 173.940498 69.247407 
L 168.577684 69.824005 
L 170.644416 74.509421 
L 172.896861 79.108441 
L 175.331416 83.61371 
L 177.944187 88.018018 
L 180.730992 92.314321 
L 183.687375 96.495744 
L 186.808606 100.555599 
L 190.089691 104.48739 
L 193.525381 108.284828 
L 197.11018 111.941838 
L 200.838352 115.452569 
L 204.703935 118.811404 
L 208.700743 122.01297 
L 212.822382 125.052146 
L 216.204229 127.362683 
L 217.054927 122.31285 
L 217.703005 117.233038 
L 218.147426 112.131372 
L 218.387479 107.016015 
L 218.42278 101.89515 
L 218.253274 96.77697 
L 217.87923 91.669662 
L 217.301248 86.581397 
L 216.520251 81.520316 
L 215.53749 76.494514 
L 214.354537 71.512033 
L 212.973284 66.580842 
L 212.049587 63.648 
L 210.550313 68.544599 
L 209.248049 73.497235 
L 208.14488 78.497987 
L 207.24257 83.538854 
L 206.542563 88.611772 
L 206.045978 93.708624 
L 205.75361 98.821258 
L 205.665927 103.941494 
L 205.783069 109.06114 
L 206.104848 114.172007 
L 206.630751 119.265918 
L 207.359934 124.334724 
L 208.291233 129.370315 
L 208.70305 131.297041 
L 204.587504 128.249619 
L 200.353386 125.369213 
L 196.007469 122.66043 
L 191.556705 120.127604 
L 187.008216 117.774787 
L 182.369277 115.605743 
L 177.647311 113.623942 
L 172.84987 111.832555 
L 167.984631 110.234447 
L 163.059376 108.832175 
L 158.081985 107.627983 
L 153.060421 106.623796 
L 147.809978 105.794726 
L 151.027831 109.778434 
L 154.402415 113.630276 
L 157.928333 117.344088 
L 161.599943 120.913932 
L 165.411372 124.334094 
L 169.356522 127.599104 
L 173.429083 130.703739 
L 177.622537 133.643031 
L 181.930178 136.412279 
L 186.345114 139.007051 
L 190.860281 141.423198 
L 195.341446 143.598313 
L 191.940303 139.769903 
L 188.388784 136.080564 
L 184.692573 132.5362 
L 180.857581 129.142479 
L 176.889944 125.904832 
L 172.796009 122.828438 
L 168.582326 119.918218 
L 164.255636 117.178829 
L 159.82286 114.614652 
L 155.291091 112.22979 
L 150.667577 110.028058 
L 146.420938 108.200615 
L 150.531885 111.254238 
L 154.761657 114.141024 
L 159.103486 116.856356 
L 163.550426 119.395888 
L 168.095363 121.75556 
L 172.731026 123.931594 
L 177.45 125.920511 
L 182.244734 127.719129 
L 187.107558 129.324569 
L 192.030694 130.734265 
L 197.006264 131.945959 
L 202.026309 132.957715 
L 205.466591 133.531482 
L 206.048325 128.443644 
L 206.426135 123.336614 
L 206.599415 118.21856 
L 206.56789 113.097671 
L 206.331609 107.982138 
L 205.89095 102.880146 
L 205.246618 97.799857 
L 204.399644 92.749398 
L 203.351383 87.736848 
L 202.103513 82.770228 
L 200.658028 77.857481 
L 199.017242 73.006469 
L 197.18378 68.22495 
L 195.218339 63.648 
L 193.200276 68.354583 
L 191.37204 73.138102 
L 189.736556 77.990905 
L 188.296441 82.905228 
L 187.053998 87.873209 
L 186.011215 92.886901 
L 185.16976 97.938282 
L 184.53098 103.019273 
L 184.095897 108.121743 
L 183.865206 113.237531 
L 183.839276 118.358451 
L 184.018149 123.476313 
L 184.401539 128.582928 
L 184.988833 133.670126 
L 185.77909 138.72977 
L 186.771047 143.753765 
L 187.963117 148.734073 
L 189.368209 153.711464 
L 184.775662 155.97708 
L 180.277389 158.424537 
L 175.880587 161.049919 
L 171.592288 163.849025 
L 167.419355 166.81738 
L 163.368461 169.950232 
L 159.446089 173.242571 
L 155.658513 176.68913 
L 152.011792 180.284395 
L 148.51176 184.022613 
L 145.164016 187.897806 
L 141.973917 191.903772 
L 138.946566 196.034105 
L 136.086805 200.282195 
L 133.39921 204.641247 
L 130.88808 209.104287 
L 129.558874 211.649434 
L 134.676983 211.821069 
L 139.797862 211.787897 
L 144.913319 211.549972 
L 150.015169 211.107673 
L 155.09525 210.461708 
L 160.145437 209.613111 
L 165.157649 208.563239 
L 170.123868 207.313771 
L 175.03615 205.866708 
L 179.886635 204.224363 
L 184.667564 202.389364 
L 189.371288 200.364646 
L 191.402996 199.419976 
L 190.865301 199.767389 
L 186.627639 202.642579 
L 182.508343 205.684931 
L 178.514004 208.889577 
L 174.651011 212.25139 
L 170.925545 215.764993 
L 167.343566 219.424765 
L 163.910803 223.224849 
L 160.63275 227.159168 
L 157.514649 231.221428 
L 154.56149 235.405128 
L 151.777996 239.703577 
L 149.168621 244.109898 
L 148.74052 244.873019 
L 153.861461 244.85139 
L 158.97744 244.624997 
L 164.080274 244.194199 
L 169.161799 243.559687 
L 174.213886 242.722476 
L 179.228452 241.683905 
L 184.197475 240.445636 
L 189.113006 239.009649 
L 193.967181 237.378242 
L 198.752234 235.554024 
L 203.46051 233.539915 
L 208.084477 231.339136 
L 212.616738 228.955208 
L 217.050042 226.391945 
L 221.472981 223.590117 
L 223.57955 228.257758 
L 225.87109 232.837424 
L 228.343935 237.321791 
L 230.994128 241.703683 
L 233.817431 245.97609 
L 236.809326 250.132178 
L 239.965027 254.165297 
L 243.279485 258.068996 
L 246.747399 261.83703 
L 250.36322 265.46337 
L 254.121163 268.942215 
L 258.015218 272.268 
L 262.039153 275.435403 
L 266.186532 278.439359 
L 270.450719 281.275061 
L 274.824894 283.937972 
L 277.421179 285.408 
L 281.856216 282.847736 
L 286.185322 280.112166 
L 290.401572 277.205666 
L 294.49822 274.132886 
L 298.468712 270.898742 
L 302.306698 267.508407 
L 306.006036 263.967306 
L 309.560809 260.281103 
L 312.96533 256.455696 
L 316.214151 252.497204 
L 319.302077 248.41196 
L 322.224167 244.2065 
L 324.975745 239.887551 
L 327.552411 235.462024 
L 329.950042 230.936997 
L 332.164802 226.31971 
L 334.193148 221.617549 
L 336.031836 216.838038 
L 337.677923 211.988822 
L 339.128777 207.077658 
L 340.382076 202.112405 
L 341.435816 197.101004 
L 342.28831 192.051474 
L 342.938194 186.971892 
L 343.38443 181.870385 
L 343.626303 176.755114 
L 343.663426 171.634262 
L 343.49574 166.516022 
L 343.123513 161.408581 
L 342.547341 156.320111 
L 341.768145 151.258752 
L 340.787172 146.232601 
L 339.605991 141.249699 
L 338.226492 136.318017 
L 336.650882 131.445445 
L 334.881682 126.639779 
L 332.921721 121.908706 
L 330.774135 117.259794 
L 328.44236 112.700482 
L 326.443264 109.227863 
L 323.66628 104.925206 
L 320.719457 100.73704 
L 317.607509 96.670065 
L 314.335415 92.730789 
L 310.908408 88.925512 
L 307.331973 85.260322 
L 303.61183 81.741084 
L 299.753931 78.373427 
L 295.764447 75.162739 
L 291.649761 72.114155 
L 287.416456 69.232553 
L 283.071303 66.522544 
L 278.621255 63.988462 
L 277.990348 63.648 
L 273.52618 66.157125 
L 269.165921 68.842762 
L 264.916547 71.700614 
L 260.784856 74.72611 
L 256.777457 77.91441 
L 252.900761 81.260412 
L 249.160971 84.758765 
L 245.564069 88.403871 
L 242.115809 92.189899 
L 238.821709 96.110792 
L 235.687037 100.160278 
L 232.716809 104.331878 
L 229.915776 108.618919 
L 227.28842 113.014542 
L 224.838943 117.511715 
L 222.571265 122.103244 
L 220.987981 125.61369 
L 216.597251 122.978164 
L 212.104641 120.520328 
L 207.517338 118.244115 
L 202.842679 116.153165 
L 198.088144 114.250825 
L 193.261339 112.540137 
L 188.369985 111.023838 
L 183.421909 109.704354 
L 178.425024 108.583796 
L 173.387327 107.663956 
L 168.316875 106.946306 
L 163.221781 106.431994 
L 158.110195 106.121843 
L 152.990296 106.016349 
L 147.61881 106.12584 
L 150.083979 110.61443 
L 152.726673 115.00085 
L 155.542662 119.278081 
L 158.527443 123.439281 
L 161.676239 127.477793 
L 164.984015 131.387157 
L 168.445477 135.161117 
L 172.055089 138.793638 
L 175.807076 142.278906 
L 179.695435 145.611348 
L 183.713945 148.785631 
L 187.856179 151.796677 
L 189.672962 153.039512 
L 184.717073 151.749676 
L 179.71357 150.659055 
L 174.670455 149.769394 
L 169.595798 149.082114 
L 164.497716 148.598317 
L 159.384365 148.318775 
L 154.263925 148.243937 
L 149.144589 148.373921 
L 144.034545 148.70852 
L 138.94197 149.247199 
L 133.875009 149.989096 
L 128.841769 150.933024 
L 123.850302 152.077472 
L 120.590942 152.939481 
L 121.966147 157.872361 
L 123.537515 162.746303 
L 125.302531 167.553508 
L 127.258373 172.286285 
L 129.401911 176.937065 
L 131.729716 181.498405 
L 134.238064 185.96301 
L 136.922942 190.323736 
L 139.780054 194.573607 
L 142.804831 198.705825 
L 145.992434 202.713779 
L 149.337761 206.591057 
L 152.835463 210.331456 
L 156.479943 213.928992 
L 160.265371 217.377911 
L 164.185691 220.672694 
L 168.234631 223.80807 
L 172.405714 226.779024 
L 176.692267 229.580803 
L 181.087433 232.208924 
L 185.584179 234.659183 
L 190.175314 236.927661 
L 194.85349 239.010727 
L 199.611225 240.90505 
L 204.440907 242.607599 
L 209.33481 244.115651 
L 214.285104 245.426792 
L 219.28387 246.538926 
L 224.32311 247.450272 
L 229.394765 248.159374 
L 234.490719 248.665097 
L 239.60282 248.966631 
L 244.72289 249.063494 
L 249.842738 248.955532 
L 254.954174 248.642917 
L 260.04902 248.126149 
L 265.119125 247.406055 
L 270.156378 246.483787 
L 275.152722 245.36082 
L 280.100162 244.038951 
L 284.990784 242.520294 
L 289.816764 240.807279 
L 294.570381 238.902647 
L 299.244031 236.809445 
L 303.830237 234.53102 
L 308.321662 232.071019 
L 312.71112 229.433376 
L 316.99159 226.622312 
L 321.156223 223.642323 
L 325.198357 220.498177 
L 329.111525 217.194904 
L 332.889468 213.737788 
L 336.526141 210.13236 
L 340.015726 206.384388 
L 343.352641 202.499867 
L 346.531548 198.485013 
L 349.54736 194.346248 
L 352.395254 190.090193 
L 355.070672 185.723657 
L 357.569336 181.253625 
L 359.887248 176.687249 
L 362.020699 172.031835 
L 362.333139 171.306288 
L 357.237765 170.794755 
L 352.126011 170.487393 
L 347.006055 170.384692 
L 341.886087 170.486816 
L 336.774298 170.793604 
L 331.678866 171.304562 
L 326.607944 172.018875 
L 321.569642 172.9354 
L 316.572021 174.052669 
L 311.623077 175.368897 
L 306.730727 176.881976 
L 301.902797 178.589487 
L 297.147011 180.488698 
L 292.470977 182.576571 
L 287.882177 184.849765 
L 286.121003 185.784024 
L 289.228662 189.854277 
L 292.496602 193.797 
L 295.919595 197.605888 
L 299.492164 201.274845 
L 303.208595 204.798003 
L 307.062942 208.169725 
L 311.049039 211.384617 
L 315.160509 214.437537 
L 319.390775 217.323599 
L 323.733068 220.038187 
L 328.180443 222.576959 
L 332.725784 224.935852 
L 334.573881 225.830158 
L 334.046263 225.467624 
L 329.761419 222.663233 
L 325.367856 220.032433 
L 320.872603 217.579433 
L 316.282853 215.308158 
L 311.605947 213.22224 
L 306.849367 211.325018 
L 302.020724 209.619525 
L 297.127742 208.108491 
L 292.178248 206.794332 
L 287.180161 205.679152 
L 282.141476 204.764734 
L 277.930943 204.158866 
L 280.309903 208.693736 
L 282.868306 213.129846 
L 285.602061 217.460099 
L 288.506792 221.677567 
L 291.577854 225.775504 
L 294.810333 229.747352 
L 298.199057 233.586759 
L 301.738607 237.287582 
L 305.423319 240.843901 
L 309.247298 244.250026 
L 313.204427 247.500507 
L 317.288375 250.590146 
L 319.409155 252.096233 
L 318.829243 251.8251 
L 314.142626 249.761094 
L 309.377219 247.886154 
L 304.540647 246.203278 
L 299.640646 244.715161 
L 294.685056 243.424181 
L 289.681804 242.332405 
L 284.638895 241.441579 
L 279.564397 240.753128 
L 274.466426 240.268153 
L 269.35314 239.987431 
L 264.232718 239.91141 
L 259.113351 240.040212 
L 254.003231 240.373632 
L 248.910531 240.911135 
L 243.843399 241.651862 
L 238.809941 242.594627 
L 233.818211 243.737923 
L 228.876192 245.07992 
L 223.991793 246.618472 
L 219.172826 248.351118 
L 214.427001 250.275084 
L 209.76191 252.387294 
L 205.185017 254.684368 
L 200.703643 257.162632 
L 196.324958 259.818121 
L 192.055967 262.646586 
L 187.903499 265.643503 
L 183.874197 268.804077 
L 179.974507 272.123252 
L 176.210669 275.595718 
L 172.588702 279.21592 
L 170.103926 281.875523 
L 175.085806 280.69004 
L 180.016295 279.306284 
L 184.887504 277.726468 
L 189.691642 275.953119 
L 194.421021 273.989074 
L 199.068077 271.837475 
L 203.625374 269.501765 
L 208.085623 266.98568 
L 212.441687 264.293245 
L 216.686598 261.428767 
L 220.813565 258.39683 
L 224.815986 255.202283 
L 228.687458 251.850238 
L 232.421786 248.346056 
L 236.012998 244.695343 
L 239.455348 240.903941 
L 242.743328 236.977914 
L 245.871679 232.923544 
L 248.835397 228.747316 
L 251.629739 224.455911 
L 252.480265 223.071268 
L 257.277208 224.863986 
L 262.142003 226.463444 
L 267.066869 227.867082 
L 272.043926 229.072656 
L 277.065212 230.078236 
L 282.122693 230.882214 
L 287.20828 231.483303 
L 292.313836 231.880543 
L 297.431194 232.073296 
L 302.552166 232.061256 
L 307.66856 231.844442 
L 312.772192 231.423199 
L 317.854896 230.798203 
L 322.908542 229.970452 
L 327.925043 228.941272 
L 332.896376 227.712309 
L 333.597092 227.522006 
L 332.203663 222.594242 
L 330.61429 217.726143 
L 328.831517 212.925495 
L 326.858195 208.199978 
L 324.697481 203.557154 
L 322.352832 199.004449 
L 319.827999 194.549147 
L 317.127021 190.198374 
L 314.254219 185.959093 
L 311.214189 181.838083 
L 308.011794 177.841939 
L 304.652157 173.977053 
L 301.140654 170.249608 
L 297.482901 166.665567 
L 293.684751 163.230664 
L 289.75228 159.950395 
L 285.691778 156.830006 
L 283.648861 155.354894 
L 284.504169 150.30584 
L 285.156886 145.226621 
L 285.605965 140.125364 
L 285.85069 135.010228 
L 285.890668 129.889398 
L 285.725835 124.771065 
L 285.356455 119.663418 
L 284.78312 114.574627 
L 284.006745 109.512835 
L 283.028574 104.486138 
L 281.850172 99.502578 
L 280.473422 94.570128 
L 278.900528 89.696678 
L 277.134007 84.890026 
L 275.176684 80.157861 
L 273.03169 75.507753 
L 270.702457 70.947142 
L 268.192712 66.483323 
L 266.473251 63.648 
L 263.848748 68.045327 
L 261.40219 72.544089 
L 259.137492 77.137088 
L 257.058276 81.816977 
L 255.167869 86.576269 
L 253.469294 91.407351 
L 251.965271 96.302493 
L 250.658204 101.253864 
L 249.550184 106.253543 
L 248.642985 111.293532 
L 247.938057 116.365769 
L 247.436528 121.462137 
L 247.233691 124.526268 
L 249.046253 119.736787 
L 250.665837 114.878655 
L 252.089851 109.959642 
L 253.316019 104.987619 
L 254.342378 99.970539 
L 255.167286 94.916429 
L 255.789424 89.833375 
L 256.207796 84.729507 
L 256.421734 79.612991 
L 256.430894 74.492013 
L 256.235262 69.374765 
L 255.835152 64.269433 
L 255.772392 63.648 
L 255.347381 68.751319 
L 255.126787 73.867552 
L 255.110966 78.988514 
L 255.29994 84.106013 
L 255.693409 89.211861 
L 256.290742 94.29789 
L 257.090985 99.355964 
L 258.092857 104.377991 
L 259.294754 109.355937 
L 260.694755 114.281838 
L 262.29062 119.147813 
L 264.079795 123.946079 
L 266.059419 128.668959 
L 268.226324 133.308897 
L 269.336878 135.513968 
L 274.2369 137.002015 
L 279.192509 138.292922 
L 284.195776 139.384626 
L 289.238698 140.275379 
L 294.313207 140.963756 
L 299.411184 141.448656 
L 304.524475 141.729304 
L 309.644898 141.80525 
L 314.764262 141.676374 
L 319.874378 141.34288 
L 324.96707 140.805303 
L 330.034191 140.064502 
L 335.067635 139.121664 
L 340.05935 137.978295 
L 342.693473 137.289389 
L 339.128449 140.965678 
L 335.713289 144.78159 
L 332.453457 148.73102 
L 329.354167 152.807649 
L 326.420378 157.004956 
L 323.656783 161.316225 
L 321.067804 165.734561 
L 318.657582 170.252893 
L 316.429972 174.863995 
L 314.38854 179.560489 
L 312.53655 184.334862 
L 310.876965 189.179475 
L 309.412441 194.086579 
L 308.145321 199.048324 
L 307.07763 204.05677 
L 306.211078 209.103907 
L 305.547051 214.18166 
L 305.086611 219.281904 
L 304.830495 224.396482 
L 304.779112 229.517211 
L 304.932544 234.635898 
L 305.290547 239.744356 
L 305.852547 244.83441 
L 306.617646 249.89792 
L 307.584619 254.926783 
L 308.75192 259.912955 
L 310.11768 264.848459 
L 310.788879 267.02699 
L 305.809635 268.223499 
L 300.882221 269.618167 
L 296.014521 271.208763 
L 291.214321 272.992743 
L 286.489302 274.967253 
L 281.847021 277.129134 
L 277.294905 279.474927 
L 272.840238 282.00088 
L 268.490144 284.702952 
L 267.415994 285.408 
L 263.093236 282.66241 
L 258.664142 280.09188 
L 254.135796 277.700523 
L 249.515444 275.492164 
L 244.810477 273.470336 
L 240.028422 271.638275 
L 235.176929 269.99891 
L 230.26376 268.554864 
L 225.296774 267.308447 
L 220.283918 266.261654 
L 215.233211 265.41616 
L 210.152733 264.773315 
L 205.050612 264.33415 
L 199.935011 264.099367 
L 194.814113 264.069341 
L 189.69611 264.244121 
L 184.58919 264.623426 
L 179.501523 265.20665 
L 174.441249 265.992859 
L 169.416462 266.980797 
L 164.435202 268.168883 
L 162.491346 268.690148 
L 166.068923 265.026074 
L 169.497115 261.221865 
L 172.770438 257.283609 
L 175.883653 253.217605 
L 178.831782 249.030357 
L 181.610107 244.728566 
L 184.214184 240.319112 
L 186.639847 235.80905 
L 188.883215 231.205594 
L 190.9407 226.51611 
L 192.80901 221.7481 
L 194.485155 216.909191 
L 195.966455 212.007125 
L 197.104737 207.656331 
L 192.006588 208.139424 
L 186.931836 208.826003 
L 181.888599 209.714968 
L 176.884944 210.804897 
L 171.928878 212.094048 
L 167.028329 213.580357 
L 162.191135 215.261447 
L 157.425037 217.134629 
L 152.737658 219.196905 
L 148.136498 221.444977 
L 143.628917 223.875248 
L 139.222127 226.48383 
L 138.414633 226.988059 
L 139.544135 226.385181 
L 144.000172 223.861644 
L 148.35173 221.161932 
L 152.591847 218.290363 
L 156.713741 215.251532 
L 160.710817 212.0503 
L 164.57668 208.691788 
L 168.305146 205.181369 
L 171.890251 201.524659 
L 175.326258 197.727508 
L 178.607672 193.795991 
L 181.729242 189.736397 
L 184.685975 185.555221 
L 185.806536 183.872974 
L 181.591817 180.964255 
L 177.264152 178.226407 
L 172.830463 175.663809 
L 168.297844 173.280561 
L 163.673547 171.080476 
L 158.964968 169.067073 
L 154.179642 167.243574 
L 149.325222 165.612896 
L 144.409476 164.177646 
L 139.440267 162.940122 
L 134.425545 161.902304 
L 129.373333 161.065851 
L 124.291713 160.432101 
L 119.188814 160.00207 
L 116.594213 159.862018 
L 119.43216 164.124711 
L 122.4383 168.270508 
L 125.607822 172.292774 
L 128.935657 176.185077 
L 132.416481 179.941187 
L 136.044724 183.555098 
L 139.814584 187.021027 
L 143.720028 190.333429 
L 147.754809 193.487006 
L 151.912472 196.476712 
L 156.186365 199.297764 
L 160.569652 201.945649 
L 165.05532 204.416132 
L 169.636193 206.70526 
L 174.304942 208.809371 
L 179.054099 210.725098 
L 183.876065 212.449377 
L 188.763128 213.97945 
L 193.707468 215.312869 
L 198.701175 216.4475 
L 203.736261 217.381529 
L 208.804671 218.113461 
L 209.383987 218.183984 
L 212.314754 222.383402 
L 215.411109 226.46226 
L 218.668098 230.414035 
L 222.080511 234.232404 
L 225.642888 237.911258 
L 229.349531 241.444713 
L 233.194509 244.827115 
L 237.171671 248.053054 
L 241.274656 251.117368 
L 245.496898 254.015155 
L 249.831644 256.74178 
L 254.271958 259.29288 
L 258.810737 261.664374 
L 263.44072 263.852469 
L 268.154501 265.853663 
L 272.944537 267.664756 
L 277.803165 269.28285 
L 282.722614 270.705356 
L 287.695013 271.929998 
L 292.712408 272.954819 
L 297.76677 273.778177 
L 302.850016 274.398756 
L 306.354787 274.707062 
L 303.389324 270.532074 
L 300.259278 266.479012 
L 296.969656 262.55436 
L 293.525722 258.764397 
L 289.932984 255.115187 
L 286.19719 251.612567 
L 282.324317 248.26214 
L 278.320561 245.069267 
L 274.192327 242.039055 
L 269.946218 239.176353 
L 265.589029 236.48574 
L 261.127728 233.97152 
L 256.569455 231.637715 
L 251.9215 229.48806 
L 247.1913 227.525992 
L 242.386422 225.754652 
L 241.523985 225.459597 
L 237.17419 228.162147 
L 232.935946 231.036481 
L 228.816036 234.078 
L 224.821049 237.281839 
L 220.957378 240.642872 
L 217.231202 244.155722 
L 213.648483 247.81477 
L 210.214953 251.614161 
L 206.936105 255.547818 
L 203.817184 259.609447 
L 200.863179 263.792551 
L 198.078817 268.090438 
L 195.468551 272.496231 
L 193.036559 277.002883 
L 190.786729 281.603184 
L 189.094011 285.408 
L 186.99498 280.736965 
L 184.710836 276.153605 
L 182.245234 271.665253 
L 179.602117 267.279088 
L 176.785716 263.002129 
L 173.800534 258.841216 
L 170.651348 254.803008 
L 167.343195 250.893963 
L 163.881369 247.120336 
L 160.271407 243.488164 
L 156.519084 240.003257 
L 152.630404 236.67119 
L 148.611587 233.497295 
L 144.469063 230.486648 
L 140.209458 227.644066 
L 137.994835 226.260947 
L 137.767168 221.145023 
L 137.335101 216.042297 
L 136.699324 210.96093 
L 135.860856 205.909052 
L 134.821037 200.894744 
L 133.581532 195.926029 
L 132.144322 191.010856 
L 130.511707 186.157087 
L 128.686299 181.372488 
L 126.671018 176.664713 
L 124.469089 172.041294 
L 122.084033 167.509626 
L 119.519667 163.07696 
L 117.023125 159.11912 
L 122.140526 159.310725 
L 127.261495 159.297534 
L 132.377841 159.07957 
L 137.481378 158.657181 
L 142.563942 158.031043 
L 147.617401 157.202158 
L 152.633671 156.171851 
L 157.604728 154.941771 
L 162.522618 153.513885 
L 167.379475 151.890479 
L 172.167527 150.074149 
L 176.879116 148.0678 
L 181.506703 145.874643 
L 186.042886 143.498186 
L 190.480407 140.942231 
L 194.812168 138.210868 
L 199.031239 135.308464 
L 203.13087 132.239665 
L 207.104502 129.009379 
L 210.945778 125.622773 
L 214.648554 122.085267 
L 218.206906 118.402518 
L 221.615141 114.58042 
L 224.867806 110.625085 
L 227.959698 106.542843 
L 230.885871 102.340223 
L 233.641643 98.023949 
L 236.222606 93.600926 
L 238.624631 89.07823 
L 240.843875 84.463096 
L 242.876788 79.762908 
L 244.720117 74.985185 
L 246.370913 70.13757 
L 247.826537 65.227818 
L 248.249905 63.648 
L 249.642691 68.575946 
L 251.231428 73.444253 
L 253.013575 78.245134 
L 254.98628 82.970907 
L 257.146388 87.614013 
L 259.490443 92.167024 
L 262.014695 96.622656 
L 264.715105 100.973781 
L 267.587354 105.213438 
L 270.626846 109.334844 
L 273.828719 113.331406 
L 277.187851 117.19673 
L 280.698868 120.924634 
L 284.356153 124.509152 
L 288.153855 127.94455 
L 292.085898 131.225333 
L 296.145993 134.346252 
L 300.327643 137.302314 
L 304.62416 140.08879 
L 309.028668 142.701222 
L 313.534124 145.135432 
L 318.133318 147.387524 
L 322.818892 149.453895 
L 327.583352 151.331241 
L 332.419074 153.016558 
L 337.318323 154.50715 
L 342.27326 155.800631 
L 347.27596 156.894933 
L 352.318419 157.788305 
L 354.733285 158.142954 
L 352.894296 162.92235 
L 351.247904 167.771462 
L 349.79674 172.682534 
L 348.543129 177.647709 
L 347.489074 182.659043 
L 346.636261 187.70852 
L 345.986057 192.788061 
L 345.5395 197.88954 
L 345.297304 203.004796 
L 345.252266 207.334652 
L 340.852307 209.95474 
L 336.560643 212.748684 
L 332.384139 215.712013 
L 328.329478 218.839988 
L 324.403146 222.127604 
L 320.611425 225.569602 
L 316.960379 229.160474 
L 313.45585 232.894478 
L 310.103445 236.765638 
L 306.908527 240.767762 
L 303.876206 244.894448 
L 301.011335 249.139093 
L 298.318495 253.494907 
L 295.801996 257.954922 
L 293.465863 262.512003 
L 291.313832 267.158859 
L 289.349348 271.888056 
L 287.575553 276.692028 
L 285.995285 281.563091 
L 284.897606 285.408 
L 283.470215 280.489966 
L 281.847296 275.632947 
L 280.031447 270.844712 
L 278.025572 266.132922 
L 275.83288 261.505114 
L 273.456879 256.968693 
L 270.90137 252.530914 
L 268.170441 248.198879 
L 265.268462 243.979517 
L 262.200074 239.879578 
L 258.970187 235.905621 
L 255.583968 232.064004 
L 252.046833 228.360873 
L 248.364442 224.802152 
L 247.903838 224.376592 
L 246.173716 229.196466 
L 244.637722 234.08167 
L 243.298312 239.02439 
L 242.15763 244.016719 
L 241.217501 249.05067 
L 240.479427 254.118189 
L 239.944591 259.211169 
L 239.613847 264.321464 
L 239.487725 269.440897 
L 239.566427 274.561279 
L 239.849826 279.674417 
L 240.33747 284.772133 
L 240.412769 285.408 
L 240.925901 280.312787 
L 241.234868 275.201129 
L 241.339176 270.081205 
L 241.238659 264.961206 
L 240.933477 259.849321 
L 240.424117 254.753729 
L 239.711396 249.682582 
L 238.796454 244.643993 
L 237.680753 239.646022 
L 236.366079 234.696665 
L 234.854536 229.80384 
L 233.406377 225.667197 
L 231.218429 230.297249 
L 229.217382 235.011092 
L 227.40644 239.801185 
L 225.788499 244.659864 
L 224.366148 249.579358 
L 223.141662 254.551796 
L 222.117 259.569222 
L 221.2938 264.623611 
L 220.673381 269.706876 
L 220.256735 274.810885 
L 220.044527 279.927472 
L 220.044274 285.408 
L 219.977899 277.727447 
L 219.677767 272.615264 
L 219.173442 267.519171 
L 218.465731 262.447323 
L 217.555767 257.407832 
L 216.445005 252.408761 
L 215.135221 247.458108 
L 213.628512 242.563792 
L 211.927288 237.733643 
L 210.03427 232.975388 
L 207.952487 228.296641 
L 205.685269 223.704884 
L 203.236243 219.207466 
L 200.609328 214.811579 
L 197.808725 210.524258 
L 194.838915 206.35236 
L 191.70465 202.30256 
L 188.410942 198.381336 
L 184.963062 194.594962 
L 181.366526 190.949496 
L 177.627087 187.450768 
L 173.750726 184.104377 
L 169.743647 180.915676 
L 165.612259 177.889765 
L 161.363171 175.031487 
L 157.003182 172.345413 
L 152.539266 169.83584 
L 147.978564 167.506784 
L 143.328373 165.361971 
L 138.596132 163.404831 
L 133.789411 161.638496 
L 128.915901 160.065791 
L 123.983398 158.689233 
L 118.999792 157.511023 
L 118.065629 157.31345 
L 121.549901 161.066363 
L 125.181462 164.67694 
L 128.954502 168.139406 
L 132.862986 171.44822 
L 136.900662 174.59809 
L 141.061068 177.583976 
L 145.337551 180.401103 
L 149.723267 183.044962 
L 154.211202 185.511324 
L 158.794175 187.796244 
L 163.464855 189.896067 
L 168.215769 191.807432 
L 173.039317 193.527283 
L 177.927782 195.052867 
L 182.873344 196.381745 
L 187.868092 197.51179 
L 190.670494 198.05468 
L 188.601159 202.738947 
L 186.720801 207.502218 
L 185.032427 212.336874 
L 183.538737 217.235179 
L 182.242123 222.189298 
L 181.144658 227.191305 
L 180.248097 232.233197 
L 179.553876 237.30691 
L 179.063104 242.404325 
L 178.776567 247.517289 
L 178.694723 252.637622 
L 178.817704 257.757131 
L 179.145312 262.867628 
L 179.677023 267.960936 
L 180.411987 273.028907 
L 181.349028 278.063433 
L 182.486646 283.056461 
L 183.095877 285.408 
L 184.32802 280.437454 
L 185.360408 275.421611 
L 186.19139 270.368496 
L 186.819636 265.286193 
L 187.244142 260.182832 
L 187.464229 255.066577 
L 187.479544 249.945613 
L 187.290062 244.828134 
L 186.896088 239.722325 
L 186.298251 234.636354 
L 185.497507 229.57836 
L 184.495139 224.556432 
L 183.292748 219.578605 
L 181.892259 214.652843 
L 180.295913 209.787026 
L 178.506262 204.988937 
L 176.526171 200.266253 
L 174.358807 195.62653 
L 172.007637 191.077189 
L 169.476422 186.625509 
L 166.769213 182.278612 
L 163.890339 178.043451 
L 160.844407 173.926802 
L 157.636289 169.93525 
L 154.271118 166.075182 
L 150.754277 162.352773 
L 147.091393 158.773977 
L 143.288325 155.34452 
L 139.351157 152.069888 
L 135.286188 148.955321 
L 131.099921 146.0058 
L 126.356329 142.953537 
L 128.050858 143.857315 
L 132.633899 146.1421 
L 137.30464 148.241783 
L 142.055611 150.153008 
L 146.87921 151.872715 
L 151.767721 153.398155 
L 156.713323 154.726886 
L 161.708103 155.856782 
L 166.744073 156.786037 
L 171.813174 157.513164 
L 176.907298 158.036999 
L 182.018295 158.356704 
L 187.52864 158.472138 
L 183.355887 155.50353 
L 179.067759 152.704162 
L 174.671117 150.078512 
L 170.172993 147.630782 
L 165.580584 145.364886 
L 160.901237 143.28445 
L 156.142438 141.392803 
L 151.311799 139.692969 
L 146.417049 138.18767 
L 141.466019 136.879312 
L 136.466629 135.769989 
L 131.061644 134.803693 
L 134.357008 138.723524 
L 137.806488 142.50844 
L 141.404565 146.152386 
L 145.145483 149.649532 
L 149.023258 152.994285 
L 153.031685 156.181292 
L 157.164351 159.205456 
L 161.414647 162.061938 
L 165.775771 164.746169 
L 170.240748 167.253854 
L 174.802434 169.580982 
L 179.453531 171.72383 
L 184.186599 173.678969 
L 184.949722 173.973673 
L 180.163704 175.795358 
L 175.454362 177.806975 
L 170.829231 180.005306 
L 166.295709 182.386835 
L 161.861049 184.947752 
L 157.532346 187.683959 
L 153.316524 190.591079 
L 149.220328 193.664462 
L 145.250312 196.899191 
L 141.412825 200.29009 
L 137.714008 203.831736 
L 134.159778 207.518462 
L 130.75582 211.34437 
L 129.939703 212.309048 
L 134.964985 211.323636 
L 139.946842 210.138054 
L 144.877303 208.754199 
L 149.748481 207.174285 
L 154.552583 205.40084 
L 159.281923 203.4367 
L 163.928936 201.285009 
L 168.486186 198.949208 
L 172.946385 196.433033 
L 177.302395 193.740511 
L 181.547249 190.875949 
L 185.674155 187.843929 
L 186.534008 187.179513 
L 181.465205 186.450307 
L 176.371297 185.924383 
L 171.260431 185.602581 
L 166.140785 185.485417 
L 161.020549 185.573077 
L 155.907914 185.865423 
L 150.811059 186.361985 
L 145.738139 187.06197 
L 140.697268 187.964258 
L 135.696511 189.067405 
L 130.743869 190.369647 
L 125.847264 191.8689 
L 121.014529 193.562766 
L 119.458419 194.154932 
L 123.3848 190.867375 
L 127.176573 187.425434 
L 130.827673 183.834616 
L 134.332257 180.100665 
L 137.68472 176.229554 
L 140.879698 172.227478 
L 143.91208 168.100837 
L 146.777015 163.856235 
L 149.46992 159.500461 
L 151.986485 155.040484 
L 154.322687 150.483438 
L 156.474786 145.836615 
L 158.439341 141.107447 
L 160.213208 136.303501 
L 161.79355 131.432462 
L 163.177837 126.502122 
L 164.363857 121.520369 
L 165.349711 116.495173 
L 166.133822 111.434573 
L 166.714935 106.346665 
L 167.092122 101.239589 
L 167.264779 96.121514 
L 167.232629 91.000628 
L 166.995724 85.885125 
L 166.554443 80.783186 
L 165.909491 75.702976 
L 165.758693 74.706641 
L 170.496209 72.762306 
L 175.152184 70.630076 
L 179.719167 68.313362 
L 184.189854 65.815871 
L 187.759612 63.648 
L 192.146463 66.289978 
L 196.635455 68.754415 
L 201.219408 71.037369 
L 205.890988 73.135187 
L 210.642721 75.044515 
L 215.467007 76.762296 
L 220.356126 78.285783 
L 225.302258 79.612539 
L 230.297489 80.740442 
L 235.333829 81.667686 
L 240.403221 82.392788 
L 245.497553 82.914589 
L 250.608678 83.232254 
L 255.728417 83.345274 
L 260.84858 83.253468 
L 265.960977 82.956985 
L 271.057428 82.456297 
L 276.12978 81.752205 
L 281.169919 80.845837 
L 286.169781 79.738643 
L 291.121368 78.432392 
L 296.016758 76.929176 
L 300.848119 75.231399 
L 305.740925 73.285697 
L 305.231548 73.673443 
L 301.227615 76.866094 
L 297.354556 80.216305 
L 293.618568 83.718718 
L 290.025628 87.367729 
L 286.581483 91.157501 
L 283.291644 95.08197 
L 280.161373 99.134859 
L 277.195678 103.309683 
L 274.399304 107.599764 
L 271.776724 111.998238 
L 269.332134 116.498069 
L 267.069444 121.092059 
L 264.992276 125.772857 
L 262.970048 130.892909 
L 266.374557 127.067491 
L 269.623366 123.108989 
L 272.71128 119.023736 
L 275.633356 114.818267 
L 278.384922 110.49931 
L 280.961574 106.073774 
L 283.359191 101.54874 
L 285.573937 96.931446 
L 287.602269 92.229279 
L 289.440942 87.449762 
L 291.087014 82.600541 
L 292.537853 77.689373 
L 293.791137 72.724116 
L 294.844861 67.712712 
L 295.547353 63.648 
L 296.439094 68.690747 
L 297.531777 73.693801 
L 298.823656 78.649157 
L 300.312662 83.548887 
L 301.996415 88.385155 
L 303.872219 93.150221 
L 305.937075 97.836464 
L 308.187679 102.436386 
L 310.620431 106.942629 
L 313.231438 111.347982 
L 316.016524 115.6454 
L 318.971233 119.828006 
L 322.090838 123.88911 
L 325.370349 127.822215 
L 328.804519 131.621028 
L 332.387854 135.279472 
L 336.114621 138.791695 
L 339.978859 142.152077 
L 343.974385 145.355243 
L 348.094807 148.396068 
L 349.784427 149.57128 
L 350.275773 154.66864 
L 350.970567 159.742274 
L 351.867696 164.784066 
L 352.965726 169.785949 
L 354.262899 174.739921 
L 355.75714 179.638058 
L 357.44606 184.472523 
L 357.843308 185.526327 
L 352.803877 186.436621 
L 347.804879 187.54771 
L 342.854311 188.857817 
L 337.960094 190.364846 
L 333.130056 192.066385 
L 328.371925 193.959714 
L 323.693313 196.041803 
L 319.101705 198.309321 
L 314.604447 200.75864 
L 310.208732 203.385843 
L 305.921593 206.186726 
L 301.74989 209.156808 
L 297.700294 212.291339 
L 293.779286 215.585302 
L 289.993138 219.033429 
L 286.347906 222.630204 
L 282.849423 226.369872 
L 279.503285 230.246451 
L 276.314845 234.253739 
L 273.289205 238.385324 
L 270.431204 242.634599 
L 267.745415 246.994764 
L 265.236134 251.458844 
L 262.907376 256.019698 
L 260.762866 260.670029 
L 258.806036 265.402398 
L 257.040015 270.209234 
L 255.467628 275.082847 
L 254.091392 280.01544 
L 252.826164 285.408 
L 251.664561 280.420498 
L 250.30444 275.483436 
L 248.747977 270.604715 
L 246.997662 265.792137 
L 245.056296 261.053404 
L 242.926984 256.396094 
L 240.613132 251.82766 
L 238.118443 247.355409 
L 235.446906 242.986497 
L 232.602797 238.727912 
L 229.590665 234.586468 
L 226.415328 230.568789 
L 223.081867 226.681304 
L 219.679608 223.017139 
L 214.630427 223.871698 
L 209.619458 224.927488 
L 204.654718 226.182819 
L 199.744149 227.635682 
L 194.895606 229.283753 
L 190.116847 231.124396 
L 185.415517 233.154666 
L 180.799137 235.371315 
L 176.275091 237.770797 
L 171.850618 240.349274 
L 167.532796 243.102619 
L 163.328532 246.026429 
L 159.244552 249.116026 
L 155.287389 252.366467 
L 153.808619 253.651225 
L 158.629171 251.922993 
L 163.376755 250.003372 
L 168.043778 247.895435 
L 172.622773 245.602552 
L 177.106414 243.128393 
L 181.487528 240.476915 
L 185.759108 237.652359 
L 189.914318 234.659246 
L 193.946512 231.502363 
L 197.849239 228.18676 
L 201.616256 224.717741 
L 205.241536 221.100858 
L 208.476528 217.614253 
L 206.516425 222.345268 
L 204.74708 227.150882 
L 203.171324 232.023406 
L 201.791678 236.955046 
L 200.610348 241.937913 
L 199.629224 246.964035 
L 198.849876 252.02537 
L 198.273552 257.113823 
L 197.901172 262.221253 
L 197.733333 267.339488 
L 197.770302 272.460341 
L 198.012022 277.575619 
L 198.458105 282.67714 
L 198.781736 285.408 
L 199.337283 280.317237 
L 199.68881 275.20833 
L 199.835753 270.089452 
L 199.777879 264.968793 
L 199.515279 259.854544 
L 199.048374 254.754887 
L 198.37791 249.67798 
L 197.50496 244.631946 
L 196.430921 239.624857 
L 195.157511 234.664723 
L 193.686768 229.759479 
L 192.021043 224.916973 
L 190.163002 220.144952 
L 188.115617 215.45105 
L 185.882164 210.842776 
L 183.466216 206.327502 
L 180.871637 201.912453 
L 178.102579 197.60469 
L 175.163471 193.411106 
L 172.059016 189.338409 
L 168.79418 185.393115 
L 165.374185 181.581536 
L 161.804503 177.909769 
L 158.090845 174.383687 
L 154.239153 171.008934 
L 150.255586 167.790906 
L 146.14652 164.734752 
L 141.918527 161.845362 
L 137.578371 159.127358 
L 133.132995 156.585088 
L 128.589512 154.222618 
L 123.955189 152.04373 
L 121.678976 151.05495 
L 125.825646 154.059884 
L 130.089165 156.896591 
L 134.462712 159.560534 
L 138.939289 162.047451 
L 143.511736 164.353363 
L 148.172737 166.474582 
L 152.914837 168.407714 
L 157.730447 170.149666 
L 162.611865 171.697651 
L 167.551282 173.049194 
L 172.540794 174.202132 
L 177.572421 175.15462 
L 182.638112 175.905134 
L 184.97343 176.181757 
L 179.947831 177.165557 
L 174.965594 178.34954 
L 170.034689 179.731812 
L 165.163005 181.310163 
L 160.358334 183.082066 
L 155.628364 185.044687 
L 150.980661 187.194887 
L 146.422661 189.529226 
L 141.961655 192.043969 
L 137.604781 194.735092 
L 133.359007 197.598292 
L 129.231128 200.628987 
L 125.100849 203.927909 
L 129.870463 202.063697 
L 134.561713 200.010243 
L 139.167095 197.770831 
L 143.67924 195.349045 
L 148.09093 192.748758 
L 152.395107 189.97413 
L 156.584887 187.029601 
L 160.653565 183.919881 
L 164.594632 180.649944 
L 168.401785 177.225022 
L 172.068932 173.650594 
L 175.590207 169.932379 
L 178.959976 166.076324 
L 182.172849 162.088599 
L 185.223685 157.975583 
L 188.107604 153.743856 
L 190.819993 149.400188 
L 193.356511 144.951528 
L 195.713102 140.404993 
L 197.885994 135.767856 
L 199.871713 131.047536 
L 201.66708 126.251584 
L 203.269225 121.387672 
L 204.675583 116.463583 
L 205.883906 111.487192 
L 206.892259 106.466463 
L 207.69903 101.409426 
L 208.302928 96.324172 
L 208.702988 91.218836 
L 208.898568 86.101586 
L 208.889357 80.980608 
L 208.675368 75.864094 
L 208.256944 70.760231 
L 207.634756 65.677182 
L 207.328463 63.648 
L 206.624883 68.720423 
L 206.124709 73.816925 
L 205.828741 78.929351 
L 205.737452 84.049524 
L 205.850989 89.169252 
L 206.169169 94.280344 
L 206.691484 99.374624 
L 207.417098 104.443942 
L 208.34485 109.480188 
L 209.473256 114.475306 
L 210.800511 119.421304 
L 212.324491 124.31027 
L 213.789084 128.459117 
L 213.454435 127.913387 
L 210.679875 123.609166 
L 207.735411 119.419341 
L 204.625754 115.350614 
L 201.355879 111.409495 
L 197.931017 107.602289 
L 194.356646 103.935085 
L 190.638486 100.413752 
L 186.782484 97.043923 
L 182.79481 93.830988 
L 178.681841 90.780087 
L 174.45016 87.896102 
L 170.106534 85.183645 
L 165.657914 82.647057 
L 162.21641 80.842054 
L 162.752993 81.191183 
L 167.107117 83.886755 
L 171.565552 86.406052 
L 176.121166 88.745044 
L 180.76667 90.899989 
L 185.494634 92.86744 
L 190.297493 94.644249 
L 195.167563 96.227573 
L 200.097054 97.61488 
L 205.078079 98.803951 
L 210.10267 99.792882 
L 215.162789 100.580092 
L 220.25034 101.164322 
L 225.357185 101.544637 
L 230.475153 101.720428 
L 235.596058 101.691414 
L 240.711705 101.457642 
L 245.813913 101.019486 
L 250.894518 100.377646 
L 255.945391 99.53315 
L 260.958454 98.487348 
L 265.925687 97.241914 
L 270.839141 95.798839 
L 275.690958 94.160433 
L 280.473376 92.329317 
L 285.178742 90.308419 
L 289.799531 88.100974 
L 294.328349 85.710512 
L 298.757952 83.140858 
L 303.081252 80.396123 
L 307.291335 77.480697 
L 307.90523 77.034383 
L 303.262465 79.195224 
L 298.709824 81.539998 
L 294.25459 84.064953 
L 289.903892 86.76605 
L 285.664689 89.638968 
L 281.543762 92.67911 
L 277.547706 95.881615 
L 273.682912 99.241357 
L 269.955563 102.752962 
L 266.371622 106.410813 
L 262.936823 110.209057 
L 259.656661 114.141618 
L 256.536383 118.202205 
L 253.580981 122.384322 
L 251.44281 125.648192 
L 251.55212 120.528373 
L 251.456606 115.408277 
L 251.156418 110.296097 
L 250.652038 105.20001 
L 249.944272 100.128169 
L 249.034252 95.088688 
L 247.923435 90.089629 
L 246.613598 85.13899 
L 245.106835 80.244691 
L 243.405558 75.41456 
L 241.512489 70.656327 
L 239.430654 65.977602 
L 238.308917 63.648 
L 236.133026 68.283731 
L 234.144256 73.002766 
L 232.345787 77.797556 
L 230.740498 82.660431 
L 229.330956 87.58361 
L 228.119415 92.559218 
L 227.107816 97.579294 
L 226.297774 102.635808 
L 225.690588 107.720671 
L 225.287227 112.825747 
L 225.088338 117.94287 
L 225.094238 123.063853 
L 225.133198 124.515906 
L 223.03794 119.843178 
L 220.757498 115.257975 
L 218.29552 110.767633 
L 215.655947 106.379336 
L 212.843 102.100103 
L 209.861179 97.936782 
L 206.715254 93.896031 
L 203.41026 89.984317 
L 199.951482 86.207896 
L 196.344454 82.572809 
L 192.594947 79.084873 
L 188.708958 75.749668 
L 184.692706 72.572528 
L 180.552614 69.558537 
L 176.295306 66.712516 
L 171.920158 64.03467 
L 174.720607 65.584594 
L 179.279356 67.91747 
L 183.927748 70.066179 
L 188.658348 72.027283 
L 193.463587 73.797645 
L 198.335777 75.374433 
L 203.267126 76.755123 
L 208.249742 77.937508 
L 213.275656 78.919696 
L 218.336827 79.700115 
L 223.425157 80.277517 
L 228.532508 80.650978 
L 233.650707 80.8199 
L 238.771568 80.784015 
L 243.886897 80.543378 
L 248.988512 80.098375 
L 254.068251 79.449717 
L 259.117987 78.598444 
L 264.129642 77.545915 
L 269.095198 76.293816 
L 274.006712 74.844149 
L 278.856326 73.199234 
L 283.636282 71.361701 
L 288.338932 69.334491 
L 292.956754 67.120846 
L 297.48236 64.724309 
L 299.381798 63.648 
L 300.567349 64.324801 
L 300.617526 69.445542 
L 300.872437 74.56018 
L 301.331676 79.660533 
L 301.994507 84.738442 
L 302.85987 89.785782 
L 303.926381 94.794481 
L 305.192333 99.756523 
L 306.655701 104.663972 
L 308.314144 109.508977 
L 310.165009 114.283786 
L 312.205335 118.98076 
L 314.431858 123.592387 
L 316.841016 128.111287 
L 319.428954 132.530232 
L 322.191534 136.842153 
L 325.124334 141.04015 
L 328.222663 145.117509 
L 331.481565 149.067707 
L 334.895826 152.884423 
L 338.459984 156.561552 
L 342.168337 160.093212 
L 346.014952 163.473753 
L 349.993676 166.697765 
L 354.098144 169.760092 
L 358.321789 172.655835 
L 362.657854 175.380361 
L 363.434011 175.842947 
L 361.190864 174.608007 
L 356.632733 172.273926 
L 351.984909 170.123987 
L 347.254828 168.161632 
L 342.450057 166.39 
L 337.578284 164.811924 
L 332.647301 163.429929 
L 327.664997 162.246227 
L 322.639343 161.26271 
L 317.578379 160.480953 
L 312.490201 159.902205 
L 307.38295 159.527394 
L 302.264795 159.357118 
L 297.143925 159.391649 
L 292.028532 159.630933 
L 286.9268 160.074587 
L 285.343914 160.254161 
L 289.9195 157.954485 
L 294.399464 155.473673 
L 298.776639 152.815695 
L 303.044021 149.984803 
L 307.194784 146.985526 
L 311.222288 143.822661 
L 315.12009 140.501269 
L 318.881953 137.026663 
L 322.501861 133.404403 
L 325.974021 129.640282 
L 329.292878 125.740322 
L 332.453125 121.710763 
L 333.155246 120.768695 
L 328.07901 121.444214 
L 323.033848 122.322189 
L 318.027831 123.401214 
L 313.068967 124.679563 
L 308.165191 126.155191 
L 303.324346 127.825738 
L 298.554178 129.688531 
L 293.862317 131.740589 
L 289.25627 133.97863 
L 284.743405 136.399074 
L 280.330941 138.998049 
L 275.706177 141.98726 
L 276.159369 141.535122 
L 279.70238 137.837613 
L 283.094696 134.001378 
L 286.33089 130.032556 
L 289.405785 125.937495 
L 292.314461 121.722747 
L 295.052266 117.395054 
L 297.614819 112.96134 
L 299.998021 108.428697 
L 302.19806 103.804377 
L 304.211415 99.095778 
L 306.034866 94.310433 
L 307.665496 89.455997 
L 309.100696 84.540237 
L 310.059775 80.766165 
L 305.12425 79.40048 
L 300.13806 78.233256 
L 295.109183 77.266359 
L 290.045662 76.501338 
L 284.955598 75.939415 
L 279.847136 75.58149 
L 274.728446 75.428135 
L 269.607718 75.479596 
L 264.493144 75.73579 
L 259.392906 76.196308 
L 254.315164 76.860412 
L 249.268041 77.727041 
L 244.25961 78.794808 
L 239.297885 80.062004 
L 234.390803 81.526603 
L 229.546215 83.186262 
L 224.77187 85.038324 
L 220.075407 87.079828 
L 215.46434 89.307508 
L 210.946044 91.717799 
L 206.527748 94.306846 
L 202.21652 97.070506 
L 198.019258 100.004359 
L 193.942676 103.103711 
L 189.993296 106.363604 
L 186.177436 109.778822 
L 182.501201 113.343902 
L 178.970471 117.05314 
L 175.590896 120.900603 
L 172.367881 124.880135 
L 169.306584 128.985371 
L 166.4119 133.209742 
L 163.688462 137.54649 
L 161.140626 141.988678 
L 158.772468 146.529199 
L 156.587777 151.160789 
L 154.590047 155.876039 
L 152.782476 160.667404 
L 151.167953 165.527221 
L 149.749063 170.447714 
L 148.528075 175.421012 
L 147.506943 180.439158 
L 146.687299 185.494125 
L 146.070456 190.577825 
L 145.657401 195.682126 
L 145.448793 200.798861 
L 145.444967 205.919846 
L 145.645929 211.036888 
L 146.051357 216.1418 
L 146.660603 221.226417 
L 147.472692 226.282602 
L 148.486325 231.302269 
L 149.69988 236.277385 
L 151.111416 241.199993 
L 152.718675 246.062217 
L 154.519085 250.856278 
L 156.509766 255.574508 
L 158.687534 260.209357 
L 161.048905 264.753412 
L 163.5901 269.199402 
L 166.307055 273.540215 
L 169.195423 277.768906 
L 172.250583 281.878711 
L 175.086738 285.408 
L 178.2853 281.408788 
L 181.321378 277.284866 
L 184.190115 273.042832 
L 186.886921 268.689472 
L 189.407482 264.231752 
L 191.747766 259.676801 
L 193.904028 255.031908 
L 195.872819 250.304502 
L 197.650989 245.502147 
L 199.235694 240.632526 
L 200.624399 235.703428 
L 201.814881 230.72274 
L 202.805237 225.69843 
L 203.593882 220.638534 
L 204.179554 215.551149 
L 204.266421 214.597933 
L 199.427434 216.273852 
L 194.659337 218.141939 
L 189.969757 220.199204 
L 185.366197 222.442358 
L 180.856021 224.86781 
L 176.446445 227.471681 
L 172.144524 230.249805 
L 167.957139 233.197738 
L 163.890989 236.310763 
L 159.95258 239.583902 
L 156.148211 243.011916 
L 152.48397 246.589322 
L 150.761643 248.373706 
L 155.717782 247.084838 
L 160.618417 245.598807 
L 165.455705 243.917993 
L 170.22191 242.045082 
L 174.909406 239.983073 
L 179.510694 237.735263 
L 184.018414 235.305249 
L 188.425352 232.696917 
L 192.724461 229.914442 
L 196.908861 226.962274 
L 200.971859 223.845135 
L 204.906954 220.568014 
L 208.311073 217.507497 
L 208.311073 217.507497 
" style="fill:none;stroke:#1f77b4;stroke-linecap:square;stroke-width:1.5;"/>
   </g>
   <g id="patch_4">
    <path d="M 82.520165 307.584 
L 82.520165 41.472 
" style="fill:none;stroke:#000000;stroke-linecap:square;stroke-linejoin:miter;stroke-width:0.8;"/>
   </g>
   <g id="patch_5">
    <path d="M 389.799835 307.584 
L 389.799835 41.472 
" style="fill:none;stroke:#000000;stroke-linecap:square;stroke-linejoin:miter;stroke-width:0.8;"/>
   </g>
   <g id="patch_6">
    <path d="M 82.520165 307.584 
L 389.799835 307.584 
" style="fill:none;stroke:#000000;stroke-linecap:square;stroke-linejoin:miter;stroke-width:0.8;"/>
   </g>
   <g id="patch_7">
    <path d="M 82.520165 41.472 
L 389.799835 41.472 
" style="fill:none;stroke:#000000;stroke-linecap:square;stroke-linejoin:miter;stroke-width:0.8;"/>
   </g>
  </g>
 </g>
 <defs>
  <clipPath id="pdb67cea311">
   <rect height="266.112" width="307.27967" x="82.520165" y="41.472"/>
  </clipPath>
 </defs>
</svg>
