<?xml version="1.0" encoding="utf-8" standalone="no"?>
<!DOCTYPE svg PUBLIC "-//W3C//DTD SVG 1.1//EN"
  "http://www.w3.org/Graphics/SVG/1.1/DTD/svg11.dtd">
<!-- Created with matplotlib (http://matplotlib.org/) -->
<svg height="345.6pt" version="1.1" viewBox="0 0 460.8 345.6" width="460.8pt" xmlns="http://www.w3.org/2000/svg" xmlns:xlink="http://www.w3.org/1999/xlink">
 <defs>
  <style type="text/css">
*{stroke-linecap:butt;stroke-linejoin:round;}
  </style>
 </defs>
 <g id="figure_1">
  <g id="patch_1">
   <path d="M 0 345.6 
L 460.8 345.6 
L 460.8 0 
L 0 0 
z
" style="fill:#ffffff;"/>
  </g>
  <g id="axes_1">
   <g id="patch_2">
    <path d="M 164.5492 307.584 
L 307.7708 307.584 
L 307.7708 41.472 
L 164.5492 41.472 
z
" style="fill:#ffffff;"/>
   </g>
   <g id="PathCollection_1">
    <defs>
     <path d="M 0 3 
C 0.795609 3 1.55874 2.683901 2.12132 2.12132 
C 2.683901 1.55874 3 0.795609 3 0 
C 3 -0.795609 2.683901 -1.55874 2.12132 -2.12132 
C 1.55874 -2.683901 0.795609 -3 0 -3 
C -0.795609 -3 -1.55874 -2.683901 -2.12132 -2.12132 
C -2.683901 -1.55874 -3 -0.795609 -3 0 
C -3 0.795609 -2.683901 1.55874 -2.12132 2.12132 
C -1.55874 2.683901 -0.795609 3 0 3 
z
" id="m71e45e2b10" style="stroke:#000000;"/>
    </defs>
    <g clip-path="url(#p315c8ce2d9)">
     <use style="stroke:#000000;" x="242.52532" xlink:href="#m71e45e2b10" y="297.10391"/>
    </g>
   </g>
   <g id="PathCollection_2">
    <defs>
     <path d="M 0 2.738613 
C 0.726289 2.738613 1.422928 2.450055 1.936492 1.936492 
C 2.450055 1.422928 2.738613 0.726289 2.738613 0 
C 2.738613 -0.726289 2.450055 -1.422928 1.936492 -1.936492 
C 1.422928 -2.450055 0.726289 -2.738613 0 -2.738613 
C -0.726289 -2.738613 -1.422928 -2.450055 -1.936492 -1.936492 
C -2.450055 -1.422928 -2.738613 -0.726289 -2.738613 0 
C -2.738613 0.726289 -2.450055 1.422928 -1.936492 1.936492 
C -1.422928 2.450055 -0.726289 2.738613 0 2.738613 
z
" id="m43181da4f9" style="stroke:#000000;"/>
    </defs>
    <g clip-path="url(#p315c8ce2d9)">
     <use style="stroke:#000000;" x="200.277267" xlink:href="#m43181da4f9" y="74.540995"/>
    </g>
   </g>
   <g id="Quiver_1">
    <path clip-path="url(#p315c8ce2d9)" d="M 200.631206 74.486865 
L 201.876191 82.627456 
L 202.529939 82.165257 
L 202.00942 85.867034 
L 200.406306 82.490036 
L 201.168313 82.735715 
L 199.923328 74.595124 
L 200.631206 74.486865 
"/>
   </g>
   <g id="patch_3">
    <path clip-path="url(#p315c8ce2d9)" d="M 161.993968 306.570766 
C 163.383644 306.570766 164.71659 306.018642 165.699239 305.035993 
C 166.681888 304.053343 167.234013 302.720398 167.234013 301.330722 
C 167.234013 299.941045 166.681888 298.6081 165.699239 297.62545 
C 164.71659 296.642801 163.383644 296.090677 161.993968 296.090677 
C 160.604292 296.090677 159.271346 296.642801 158.288696 297.62545 
C 157.306047 298.6081 156.753923 299.941045 156.753923 301.330722 
C 156.753923 302.720398 157.306047 304.053343 158.288696 305.035993 
C 159.271346 306.018642 160.604292 306.570766 161.993968 306.570766 
z
" style="fill:#9558b2;fill-opacity:0.5;stroke:#9558b2;stroke-linejoin:miter;stroke-width:2;"/>
   </g>
   <g id="patch_4">
    <path clip-path="url(#p315c8ce2d9)" d="M 182.954147 303.950744 
C 183.648985 303.950744 184.315458 303.674682 184.806783 303.183357 
C 185.298108 302.692032 185.57417 302.02556 185.57417 301.330722 
C 185.57417 300.635883 185.298108 299.969411 184.806783 299.478086 
C 184.315458 298.986761 183.648985 298.710699 182.954147 298.710699 
C 182.259309 298.710699 181.592836 298.986761 181.101512 299.478086 
C 180.610187 299.969411 180.334125 300.635883 180.334125 301.330722 
C 180.334125 302.02556 180.610187 302.692032 181.101512 303.183357 
C 181.592836 303.674682 182.259309 303.950744 182.954147 303.950744 
z
" style="fill:#009900;fill-opacity:0.5;stroke:#009900;stroke-linejoin:miter;stroke-width:2;"/>
   </g>
   <g id="patch_5">
    <path clip-path="url(#p315c8ce2d9)" d="M 161.993968 285.610587 
C 163.383644 285.610587 164.71659 285.058463 165.699239 284.075813 
C 166.681888 283.093164 167.234013 281.760218 167.234013 280.370542 
C 167.234013 278.980866 166.681888 277.64792 165.699239 276.665271 
C 164.71659 275.682621 163.383644 275.130497 161.993968 275.130497 
C 160.604292 275.130497 159.271346 275.682621 158.288696 276.665271 
C 157.306047 277.64792 156.753923 278.980866 156.753923 280.370542 
C 156.753923 281.760218 157.306047 283.093164 158.288696 284.075813 
C 159.271346 285.058463 160.604292 285.610587 161.993968 285.610587 
z
" style="fill:#9558b2;fill-opacity:0.5;stroke:#9558b2;stroke-linejoin:miter;stroke-width:2;"/>
   </g>
   <g id="patch_6">
    <path clip-path="url(#p315c8ce2d9)" d="M 182.954147 282.990564 
C 183.648985 282.990564 184.315458 282.714502 184.806783 282.223178 
C 185.298108 281.731853 185.57417 281.06538 185.57417 280.370542 
C 185.57417 279.675704 185.298108 279.009231 184.806783 278.517906 
C 184.315458 278.026582 183.648985 277.750519 182.954147 277.750519 
C 182.259309 277.750519 181.592836 278.026582 181.101512 278.517906 
C 180.610187 279.009231 180.334125 279.675704 180.334125 280.370542 
C 180.334125 281.06538 180.610187 281.731853 181.101512 282.223178 
C 181.592836 282.714502 182.259309 282.990564 182.954147 282.990564 
z
" style="fill:#009900;fill-opacity:0.5;stroke:#009900;stroke-linejoin:miter;stroke-width:2;"/>
   </g>
   <g id="patch_7">
    <path clip-path="url(#p315c8ce2d9)" d="M 161.993968 264.650407 
C 163.383644 264.650407 164.71659 264.098283 165.699239 263.115634 
C 166.681888 262.132984 167.234013 260.800038 167.234013 259.410362 
C 167.234013 258.020686 166.681888 256.68774 165.699239 255.705091 
C 164.71659 254.722442 163.383644 254.170317 161.993968 254.170317 
C 160.604292 254.170317 159.271346 254.722442 158.288696 255.705091 
C 157.306047 256.68774 156.753923 258.020686 156.753923 259.410362 
C 156.753923 260.800038 157.306047 262.132984 158.288696 263.115634 
C 159.271346 264.098283 160.604292 264.650407 161.993968 264.650407 
z
" style="fill:#9558b2;fill-opacity:0.5;stroke:#9558b2;stroke-linejoin:miter;stroke-width:2;"/>
   </g>
   <g id="patch_8">
    <path clip-path="url(#p315c8ce2d9)" d="M 182.954147 262.030385 
C 183.648985 262.030385 184.315458 261.754323 184.806783 261.262998 
C 185.298108 260.771673 185.57417 260.1052 185.57417 259.410362 
C 185.57417 258.715524 185.298108 258.049051 184.806783 257.557727 
C 184.315458 257.066402 183.648985 256.79034 182.954147 256.79034 
C 182.259309 256.79034 181.592836 257.066402 181.101512 257.557727 
C 180.610187 258.049051 180.334125 258.715524 180.334125 259.410362 
C 180.334125 260.1052 180.610187 260.771673 181.101512 261.262998 
C 181.592836 261.754323 182.259309 262.030385 182.954147 262.030385 
z
" style="fill:#009900;fill-opacity:0.5;stroke:#009900;stroke-linejoin:miter;stroke-width:2;"/>
   </g>
   <g id="patch_9">
    <path clip-path="url(#p315c8ce2d9)" d="M 161.993968 243.690228 
C 163.383644 243.690228 164.71659 243.138103 165.699239 242.155454 
C 166.681888 241.172804 167.234013 239.839859 167.234013 238.450183 
C 167.234013 237.060506 166.681888 235.727561 165.699239 234.744911 
C 164.71659 233.762262 163.383644 233.210138 161.993968 233.210138 
C 160.604292 233.210138 159.271346 233.762262 158.288696 234.744911 
C 157.306047 235.727561 156.753923 237.060506 156.753923 238.450183 
C 156.753923 239.839859 157.306047 241.172804 158.288696 242.155454 
C 159.271346 243.138103 160.604292 243.690228 161.993968 243.690228 
z
" style="fill:#9558b2;fill-opacity:0.5;stroke:#9558b2;stroke-linejoin:miter;stroke-width:2;"/>
   </g>
   <g id="patch_10">
    <path clip-path="url(#p315c8ce2d9)" d="M 182.954147 241.070205 
C 183.648985 241.070205 184.315458 240.794143 184.806783 240.302818 
C 185.298108 239.811494 185.57417 239.145021 185.57417 238.450183 
C 185.57417 237.755345 185.298108 237.088872 184.806783 236.597547 
C 184.315458 236.106222 183.648985 235.83016 182.954147 235.83016 
C 182.259309 235.83016 181.592836 236.106222 181.101512 236.597547 
C 180.610187 237.088872 180.334125 237.755345 180.334125 238.450183 
C 180.334125 239.145021 180.610187 239.811494 181.101512 240.302818 
C 181.592836 240.794143 182.259309 241.070205 182.954147 241.070205 
z
" style="fill:#009900;fill-opacity:0.5;stroke:#009900;stroke-linejoin:miter;stroke-width:2;"/>
   </g>
   <g id="patch_11">
    <path clip-path="url(#p315c8ce2d9)" d="M 161.993968 222.730048 
C 163.383644 222.730048 164.71659 222.177924 165.699239 221.195274 
C 166.681888 220.212625 167.234013 218.879679 167.234013 217.490003 
C 167.234013 216.100327 166.681888 214.767381 165.699239 213.784732 
C 164.71659 212.802082 163.383644 212.249958 161.993968 212.249958 
C 160.604292 212.249958 159.271346 212.802082 158.288696 213.784732 
C 157.306047 214.767381 156.753923 216.100327 156.753923 217.490003 
C 156.753923 218.879679 157.306047 220.212625 158.288696 221.195274 
C 159.271346 222.177924 160.604292 222.730048 161.993968 222.730048 
z
" style="fill:#9558b2;fill-opacity:0.5;stroke:#9558b2;stroke-linejoin:miter;stroke-width:2;"/>
   </g>
   <g id="patch_12">
    <path clip-path="url(#p315c8ce2d9)" d="M 182.954147 220.110025 
C 183.648985 220.110025 184.315458 219.833963 184.806783 219.342639 
C 185.298108 218.851314 185.57417 218.184841 185.57417 217.490003 
C 185.57417 216.795165 185.298108 216.128692 184.806783 215.637367 
C 184.315458 215.146043 183.648985 214.869981 182.954147 214.869981 
C 182.259309 214.869981 181.592836 215.146043 181.101512 215.637367 
C 180.610187 216.128692 180.334125 216.795165 180.334125 217.490003 
C 180.334125 218.184841 180.610187 218.851314 181.101512 219.342639 
C 181.592836 219.833963 182.259309 220.110025 182.954147 220.110025 
z
" style="fill:#009900;fill-opacity:0.5;stroke:#009900;stroke-linejoin:miter;stroke-width:2;"/>
   </g>
   <g id="patch_13">
    <path clip-path="url(#p315c8ce2d9)" d="M 161.993968 201.769868 
C 163.383644 201.769868 164.71659 201.217744 165.699239 200.235095 
C 166.681888 199.252445 167.234013 197.919499 167.234013 196.529823 
C 167.234013 195.140147 166.681888 193.807201 165.699239 192.824552 
C 164.71659 191.841903 163.383644 191.289778 161.993968 191.289778 
C 160.604292 191.289778 159.271346 191.841903 158.288696 192.824552 
C 157.306047 193.807201 156.753923 195.140147 156.753923 196.529823 
C 156.753923 197.919499 157.306047 199.252445 158.288696 200.235095 
C 159.271346 201.217744 160.604292 201.769868 161.993968 201.769868 
z
" style="fill:#9558b2;fill-opacity:0.5;stroke:#9558b2;stroke-linejoin:miter;stroke-width:2;"/>
   </g>
   <g id="patch_14">
    <path clip-path="url(#p315c8ce2d9)" d="M 182.954147 199.149846 
C 183.648985 199.149846 184.315458 198.873784 184.806783 198.382459 
C 185.298108 197.891134 185.57417 197.224661 185.57417 196.529823 
C 185.57417 195.834985 185.298108 195.168512 184.806783 194.677188 
C 184.315458 194.185863 183.648985 193.909801 182.954147 193.909801 
C 182.259309 193.909801 181.592836 194.185863 181.101512 194.677188 
C 180.610187 195.168512 180.334125 195.834985 180.334125 196.529823 
C 180.334125 197.224661 180.610187 197.891134 181.101512 198.382459 
C 181.592836 198.873784 182.259309 199.149846 182.954147 199.149846 
z
" style="fill:#009900;fill-opacity:0.5;stroke:#009900;stroke-linejoin:miter;stroke-width:2;"/>
   </g>
   <g id="patch_15">
    <path clip-path="url(#p315c8ce2d9)" d="M 161.993968 180.809689 
C 163.383644 180.809689 164.71659 180.257564 165.699239 179.274915 
C 166.681888 178.292266 167.234013 176.95932 167.234013 175.569644 
C 167.234013 174.179968 166.681888 172.847022 165.699239 171.864372 
C 164.71659 170.881723 163.383644 170.329599 161.993968 170.329599 
C 160.604292 170.329599 159.271346 170.881723 158.288696 171.864372 
C 157.306047 172.847022 156.753923 174.179968 156.753923 175.569644 
C 156.753923 176.95932 157.306047 178.292266 158.288696 179.274915 
C 159.271346 180.257564 160.604292 180.809689 161.993968 180.809689 
z
" style="fill:#9558b2;fill-opacity:0.5;stroke:#9558b2;stroke-linejoin:miter;stroke-width:2;"/>
   </g>
   <g id="patch_16">
    <path clip-path="url(#p315c8ce2d9)" d="M 182.954147 178.189666 
C 183.648985 178.189666 184.315458 177.913604 184.806783 177.422279 
C 185.298108 176.930955 185.57417 176.264482 185.57417 175.569644 
C 185.57417 174.874806 185.298108 174.208333 184.806783 173.717008 
C 184.315458 173.225683 183.648985 172.949621 182.954147 172.949621 
C 182.259309 172.949621 181.592836 173.225683 181.101512 173.717008 
C 180.610187 174.208333 180.334125 174.874806 180.334125 175.569644 
C 180.334125 176.264482 180.610187 176.930955 181.101512 177.422279 
C 181.592836 177.913604 182.259309 178.189666 182.954147 178.189666 
z
" style="fill:#009900;fill-opacity:0.5;stroke:#009900;stroke-linejoin:miter;stroke-width:2;"/>
   </g>
   <g id="patch_17">
    <path clip-path="url(#p315c8ce2d9)" d="M 161.993968 159.849509 
C 163.383644 159.849509 164.71659 159.297385 165.699239 158.314735 
C 166.681888 157.332086 167.234013 155.99914 167.234013 154.609464 
C 167.234013 153.219788 166.681888 151.886842 165.699239 150.904193 
C 164.71659 149.921543 163.383644 149.369419 161.993968 149.369419 
C 160.604292 149.369419 159.271346 149.921543 158.288696 150.904193 
C 157.306047 151.886842 156.753923 153.219788 156.753923 154.609464 
C 156.753923 155.99914 157.306047 157.332086 158.288696 158.314735 
C 159.271346 159.297385 160.604292 159.849509 161.993968 159.849509 
z
" style="fill:#9558b2;fill-opacity:0.5;stroke:#9558b2;stroke-linejoin:miter;stroke-width:2;"/>
   </g>
   <g id="patch_18">
    <path clip-path="url(#p315c8ce2d9)" d="M 182.954147 157.229486 
C 183.648985 157.229486 184.315458 156.953424 184.806783 156.4621 
C 185.298108 155.970775 185.57417 155.304302 185.57417 154.609464 
C 185.57417 153.914626 185.298108 153.248153 184.806783 152.756828 
C 184.315458 152.265504 183.648985 151.989442 182.954147 151.989442 
C 182.259309 151.989442 181.592836 152.265504 181.101512 152.756828 
C 180.610187 153.248153 180.334125 153.914626 180.334125 154.609464 
C 180.334125 155.304302 180.610187 155.970775 181.101512 156.4621 
C 181.592836 156.953424 182.259309 157.229486 182.954147 157.229486 
z
" style="fill:#009900;fill-opacity:0.5;stroke:#009900;stroke-linejoin:miter;stroke-width:2;"/>
   </g>
   <g id="patch_19">
    <path clip-path="url(#p315c8ce2d9)" d="M 161.993968 138.889329 
C 163.383644 138.889329 164.71659 138.337205 165.699239 137.354556 
C 166.681888 136.371906 167.234013 135.038961 167.234013 133.649284 
C 167.234013 132.259608 166.681888 130.926663 165.699239 129.944013 
C 164.71659 128.961364 163.383644 128.409239 161.993968 128.409239 
C 160.604292 128.409239 159.271346 128.961364 158.288696 129.944013 
C 157.306047 130.926663 156.753923 132.259608 156.753923 133.649284 
C 156.753923 135.038961 157.306047 136.371906 158.288696 137.354556 
C 159.271346 138.337205 160.604292 138.889329 161.993968 138.889329 
z
" style="fill:#9558b2;fill-opacity:0.5;stroke:#9558b2;stroke-linejoin:miter;stroke-width:2;"/>
   </g>
   <g id="patch_20">
    <path clip-path="url(#p315c8ce2d9)" d="M 182.954147 136.269307 
C 183.648985 136.269307 184.315458 135.993245 184.806783 135.50192 
C 185.298108 135.010595 185.57417 134.344122 185.57417 133.649284 
C 185.57417 132.954446 185.298108 132.287973 184.806783 131.796649 
C 184.315458 131.305324 183.648985 131.029262 182.954147 131.029262 
C 182.259309 131.029262 181.592836 131.305324 181.101512 131.796649 
C 180.610187 132.287973 180.334125 132.954446 180.334125 133.649284 
C 180.334125 134.344122 180.610187 135.010595 181.101512 135.50192 
C 181.592836 135.993245 182.259309 136.269307 182.954147 136.269307 
z
" style="fill:#009900;fill-opacity:0.5;stroke:#009900;stroke-linejoin:miter;stroke-width:2;"/>
   </g>
   <g id="patch_21">
    <path clip-path="url(#p315c8ce2d9)" d="M 161.993968 117.92915 
C 163.383644 117.92915 164.71659 117.377025 165.699239 116.394376 
C 166.681888 115.411727 167.234013 114.078781 167.234013 112.689105 
C 167.234013 111.299429 166.681888 109.966483 165.699239 108.983833 
C 164.71659 108.001184 163.383644 107.44906 161.993968 107.44906 
C 160.604292 107.44906 159.271346 108.001184 158.288696 108.983833 
C 157.306047 109.966483 156.753923 111.299429 156.753923 112.689105 
C 156.753923 114.078781 157.306047 115.411727 158.288696 116.394376 
C 159.271346 117.377025 160.604292 117.92915 161.993968 117.92915 
z
" style="fill:#9558b2;fill-opacity:0.5;stroke:#9558b2;stroke-linejoin:miter;stroke-width:2;"/>
   </g>
   <g id="patch_22">
    <path clip-path="url(#p315c8ce2d9)" d="M 182.954147 115.309127 
C 183.648985 115.309127 184.315458 115.033065 184.806783 114.54174 
C 185.298108 114.050416 185.57417 113.383943 185.57417 112.689105 
C 185.57417 111.994267 185.298108 111.327794 184.806783 110.836469 
C 184.315458 110.345144 183.648985 110.069082 182.954147 110.069082 
C 182.259309 110.069082 181.592836 110.345144 181.101512 110.836469 
C 180.610187 111.327794 180.334125 111.994267 180.334125 112.689105 
C 180.334125 113.383943 180.610187 114.050416 181.101512 114.54174 
C 181.592836 115.033065 182.259309 115.309127 182.954147 115.309127 
z
" style="fill:#009900;fill-opacity:0.5;stroke:#009900;stroke-linejoin:miter;stroke-width:2;"/>
   </g>
   <g id="patch_23">
    <path clip-path="url(#p315c8ce2d9)" d="M 161.993968 96.96897 
C 163.383644 96.96897 164.71659 96.416846 165.699239 95.434196 
C 166.681888 94.451547 167.234013 93.118601 167.234013 91.728925 
C 167.234013 90.339249 166.681888 89.006303 165.699239 88.023654 
C 164.71659 87.041004 163.383644 86.48888 161.993968 86.48888 
C 160.604292 86.48888 159.271346 87.041004 158.288696 88.023654 
C 157.306047 89.006303 156.753923 90.339249 156.753923 91.728925 
C 156.753923 93.118601 157.306047 94.451547 158.288696 95.434196 
C 159.271346 96.416846 160.604292 96.96897 161.993968 96.96897 
z
" style="fill:#9558b2;fill-opacity:0.5;stroke:#9558b2;stroke-linejoin:miter;stroke-width:2;"/>
   </g>
   <g id="patch_24">
    <path clip-path="url(#p315c8ce2d9)" d="M 182.954147 94.348948 
C 183.648985 94.348948 184.315458 94.072885 184.806783 93.581561 
C 185.298108 93.090236 185.57417 92.423763 185.57417 91.728925 
C 185.57417 91.034087 185.298108 90.367614 184.806783 89.876289 
C 184.315458 89.384965 183.648985 89.108903 182.954147 89.108903 
C 182.259309 89.108903 181.592836 89.384965 181.101512 89.876289 
C 180.610187 90.367614 180.334125 91.034087 180.334125 91.728925 
C 180.334125 92.423763 180.610187 93.090236 181.101512 93.581561 
C 181.592836 94.072885 182.259309 94.348948 182.954147 94.348948 
z
" style="fill:#009900;fill-opacity:0.5;stroke:#009900;stroke-linejoin:miter;stroke-width:2;"/>
   </g>
   <g id="patch_25">
    <path clip-path="url(#p315c8ce2d9)" d="M 161.993968 76.00879 
C 163.383644 76.00879 164.71659 75.456666 165.699239 74.474017 
C 166.681888 73.491367 167.234013 72.158422 167.234013 70.768745 
C 167.234013 69.379069 166.681888 68.046124 165.699239 67.063474 
C 164.71659 66.080825 163.383644 65.528701 161.993968 65.528701 
C 160.604292 65.528701 159.271346 66.080825 158.288696 67.063474 
C 157.306047 68.046124 156.753923 69.379069 156.753923 70.768745 
C 156.753923 72.158422 157.306047 73.491367 158.288696 74.474017 
C 159.271346 75.456666 160.604292 76.00879 161.993968 76.00879 
z
" style="fill:#9558b2;fill-opacity:0.5;stroke:#9558b2;stroke-linejoin:miter;stroke-width:2;"/>
   </g>
   <g id="patch_26">
    <path clip-path="url(#p315c8ce2d9)" d="M 182.954147 73.388768 
C 183.648985 73.388768 184.315458 73.112706 184.806783 72.621381 
C 185.298108 72.130056 185.57417 71.463583 185.57417 70.768745 
C 185.57417 70.073907 185.298108 69.407434 184.806783 68.91611 
C 184.315458 68.424785 183.648985 68.148723 182.954147 68.148723 
C 182.259309 68.148723 181.592836 68.424785 181.101512 68.91611 
C 180.610187 69.407434 180.334125 70.073907 180.334125 70.768745 
C 180.334125 71.463583 180.610187 72.130056 181.101512 72.621381 
C 181.592836 73.112706 182.259309 73.388768 182.954147 73.388768 
z
" style="fill:#009900;fill-opacity:0.5;stroke:#009900;stroke-linejoin:miter;stroke-width:2;"/>
   </g>
   <g id="patch_27">
    <path clip-path="url(#p315c8ce2d9)" d="M 161.993968 55.048611 
C 163.383644 55.048611 164.71659 54.496486 165.699239 53.513837 
C 166.681888 52.531188 167.234013 51.198242 167.234013 49.808566 
C 167.234013 48.41889 166.681888 47.085944 165.699239 46.103294 
C 164.71659 45.120645 163.383644 44.568521 161.993968 44.568521 
C 160.604292 44.568521 159.271346 45.120645 158.288696 46.103294 
C 157.306047 47.085944 156.753923 48.41889 156.753923 49.808566 
C 156.753923 51.198242 157.306047 52.531188 158.288696 53.513837 
C 159.271346 54.496486 160.604292 55.048611 161.993968 55.048611 
z
" style="fill:#9558b2;fill-opacity:0.5;stroke:#9558b2;stroke-linejoin:miter;stroke-width:2;"/>
   </g>
   <g id="patch_28">
    <path clip-path="url(#p315c8ce2d9)" d="M 182.954147 52.428588 
C 183.648985 52.428588 184.315458 52.152526 184.806783 51.661201 
C 185.298108 51.169877 185.57417 50.503404 185.57417 49.808566 
C 185.57417 49.113728 185.298108 48.447255 184.806783 47.95593 
C 184.315458 47.464605 183.648985 47.188543 182.954147 47.188543 
C 182.259309 47.188543 181.592836 47.464605 181.101512 47.95593 
C 180.610187 48.447255 180.334125 49.113728 180.334125 49.808566 
C 180.334125 50.503404 180.610187 51.169877 181.101512 51.661201 
C 181.592836 52.152526 182.259309 52.428588 182.954147 52.428588 
z
" style="fill:#009900;fill-opacity:0.5;stroke:#009900;stroke-linejoin:miter;stroke-width:2;"/>
   </g>
   <g id="patch_29">
    <path clip-path="url(#p315c8ce2d9)" d="M 203.914327 306.570766 
C 205.304003 306.570766 206.636949 306.018642 207.619598 305.035993 
C 208.602248 304.053343 209.154372 302.720398 209.154372 301.330722 
C 209.154372 299.941045 208.602248 298.6081 207.619598 297.62545 
C 206.636949 296.642801 205.304003 296.090677 203.914327 296.090677 
C 202.524651 296.090677 201.191705 296.642801 200.209056 297.62545 
C 199.226406 298.6081 198.674282 299.941045 198.674282 301.330722 
C 198.674282 302.720398 199.226406 304.053343 200.209056 305.035993 
C 201.191705 306.018642 202.524651 306.570766 203.914327 306.570766 
z
" style="fill:#9558b2;fill-opacity:0.5;stroke:#9558b2;stroke-linejoin:miter;stroke-width:2;"/>
   </g>
   <g id="patch_30">
    <path clip-path="url(#p315c8ce2d9)" d="M 224.874507 303.950744 
C 225.569345 303.950744 226.235818 303.674682 226.727142 303.183357 
C 227.218467 302.692032 227.494529 302.02556 227.494529 301.330722 
C 227.494529 300.635883 227.218467 299.969411 226.727142 299.478086 
C 226.235818 298.986761 225.569345 298.710699 224.874507 298.710699 
C 224.179669 298.710699 223.513196 298.986761 223.021871 299.478086 
C 222.530546 299.969411 222.254484 300.635883 222.254484 301.330722 
C 222.254484 302.02556 222.530546 302.692032 223.021871 303.183357 
C 223.513196 303.674682 224.179669 303.950744 224.874507 303.950744 
z
" style="fill:#009900;fill-opacity:0.5;stroke:#009900;stroke-linejoin:miter;stroke-width:2;"/>
   </g>
   <g id="patch_31">
    <path clip-path="url(#p315c8ce2d9)" d="M 203.914327 285.610587 
C 205.304003 285.610587 206.636949 285.058463 207.619598 284.075813 
C 208.602248 283.093164 209.154372 281.760218 209.154372 280.370542 
C 209.154372 278.980866 208.602248 277.64792 207.619598 276.665271 
C 206.636949 275.682621 205.304003 275.130497 203.914327 275.130497 
C 202.524651 275.130497 201.191705 275.682621 200.209056 276.665271 
C 199.226406 277.64792 198.674282 278.980866 198.674282 280.370542 
C 198.674282 281.760218 199.226406 283.093164 200.209056 284.075813 
C 201.191705 285.058463 202.524651 285.610587 203.914327 285.610587 
z
" style="fill:#9558b2;fill-opacity:0.5;stroke:#9558b2;stroke-linejoin:miter;stroke-width:2;"/>
   </g>
   <g id="patch_32">
    <path clip-path="url(#p315c8ce2d9)" d="M 224.874507 282.990564 
C 225.569345 282.990564 226.235818 282.714502 226.727142 282.223178 
C 227.218467 281.731853 227.494529 281.06538 227.494529 280.370542 
C 227.494529 279.675704 227.218467 279.009231 226.727142 278.517906 
C 226.235818 278.026582 225.569345 277.750519 224.874507 277.750519 
C 224.179669 277.750519 223.513196 278.026582 223.021871 278.517906 
C 222.530546 279.009231 222.254484 279.675704 222.254484 280.370542 
C 222.254484 281.06538 222.530546 281.731853 223.021871 282.223178 
C 223.513196 282.714502 224.179669 282.990564 224.874507 282.990564 
z
" style="fill:#009900;fill-opacity:0.5;stroke:#009900;stroke-linejoin:miter;stroke-width:2;"/>
   </g>
   <g id="patch_33">
    <path clip-path="url(#p315c8ce2d9)" d="M 203.914327 264.650407 
C 205.304003 264.650407 206.636949 264.098283 207.619598 263.115634 
C 208.602248 262.132984 209.154372 260.800038 209.154372 259.410362 
C 209.154372 258.020686 208.602248 256.68774 207.619598 255.705091 
C 206.636949 254.722442 205.304003 254.170317 203.914327 254.170317 
C 202.524651 254.170317 201.191705 254.722442 200.209056 255.705091 
C 199.226406 256.68774 198.674282 258.020686 198.674282 259.410362 
C 198.674282 260.800038 199.226406 262.132984 200.209056 263.115634 
C 201.191705 264.098283 202.524651 264.650407 203.914327 264.650407 
z
" style="fill:#9558b2;fill-opacity:0.5;stroke:#9558b2;stroke-linejoin:miter;stroke-width:2;"/>
   </g>
   <g id="patch_34">
    <path clip-path="url(#p315c8ce2d9)" d="M 224.874507 262.030385 
C 225.569345 262.030385 226.235818 261.754323 226.727142 261.262998 
C 227.218467 260.771673 227.494529 260.1052 227.494529 259.410362 
C 227.494529 258.715524 227.218467 258.049051 226.727142 257.557727 
C 226.235818 257.066402 225.569345 256.79034 224.874507 256.79034 
C 224.179669 256.79034 223.513196 257.066402 223.021871 257.557727 
C 222.530546 258.049051 222.254484 258.715524 222.254484 259.410362 
C 222.254484 260.1052 222.530546 260.771673 223.021871 261.262998 
C 223.513196 261.754323 224.179669 262.030385 224.874507 262.030385 
z
" style="fill:#009900;fill-opacity:0.5;stroke:#009900;stroke-linejoin:miter;stroke-width:2;"/>
   </g>
   <g id="patch_35">
    <path clip-path="url(#p315c8ce2d9)" d="M 203.914327 243.690228 
C 205.304003 243.690228 206.636949 243.138103 207.619598 242.155454 
C 208.602248 241.172804 209.154372 239.839859 209.154372 238.450183 
C 209.154372 237.060506 208.602248 235.727561 207.619598 234.744911 
C 206.636949 233.762262 205.304003 233.210138 203.914327 233.210138 
C 202.524651 233.210138 201.191705 233.762262 200.209056 234.744911 
C 199.226406 235.727561 198.674282 237.060506 198.674282 238.450183 
C 198.674282 239.839859 199.226406 241.172804 200.209056 242.155454 
C 201.191705 243.138103 202.524651 243.690228 203.914327 243.690228 
z
" style="fill:#9558b2;fill-opacity:0.5;stroke:#9558b2;stroke-linejoin:miter;stroke-width:2;"/>
   </g>
   <g id="patch_36">
    <path clip-path="url(#p315c8ce2d9)" d="M 224.874507 241.070205 
C 225.569345 241.070205 226.235818 240.794143 226.727142 240.302818 
C 227.218467 239.811494 227.494529 239.145021 227.494529 238.450183 
C 227.494529 237.755345 227.218467 237.088872 226.727142 236.597547 
C 226.235818 236.106222 225.569345 235.83016 224.874507 235.83016 
C 224.179669 235.83016 223.513196 236.106222 223.021871 236.597547 
C 222.530546 237.088872 222.254484 237.755345 222.254484 238.450183 
C 222.254484 239.145021 222.530546 239.811494 223.021871 240.302818 
C 223.513196 240.794143 224.179669 241.070205 224.874507 241.070205 
z
" style="fill:#009900;fill-opacity:0.5;stroke:#009900;stroke-linejoin:miter;stroke-width:2;"/>
   </g>
   <g id="patch_37">
    <path clip-path="url(#p315c8ce2d9)" d="M 203.914327 222.730048 
C 205.304003 222.730048 206.636949 222.177924 207.619598 221.195274 
C 208.602248 220.212625 209.154372 218.879679 209.154372 217.490003 
C 209.154372 216.100327 208.602248 214.767381 207.619598 213.784732 
C 206.636949 212.802082 205.304003 212.249958 203.914327 212.249958 
C 202.524651 212.249958 201.191705 212.802082 200.209056 213.784732 
C 199.226406 214.767381 198.674282 216.100327 198.674282 217.490003 
C 198.674282 218.879679 199.226406 220.212625 200.209056 221.195274 
C 201.191705 222.177924 202.524651 222.730048 203.914327 222.730048 
z
" style="fill:#9558b2;fill-opacity:0.5;stroke:#9558b2;stroke-linejoin:miter;stroke-width:2;"/>
   </g>
   <g id="patch_38">
    <path clip-path="url(#p315c8ce2d9)" d="M 224.874507 220.110025 
C 225.569345 220.110025 226.235818 219.833963 226.727142 219.342639 
C 227.218467 218.851314 227.494529 218.184841 227.494529 217.490003 
C 227.494529 216.795165 227.218467 216.128692 226.727142 215.637367 
C 226.235818 215.146043 225.569345 214.869981 224.874507 214.869981 
C 224.179669 214.869981 223.513196 215.146043 223.021871 215.637367 
C 222.530546 216.128692 222.254484 216.795165 222.254484 217.490003 
C 222.254484 218.184841 222.530546 218.851314 223.021871 219.342639 
C 223.513196 219.833963 224.179669 220.110025 224.874507 220.110025 
z
" style="fill:#009900;fill-opacity:0.5;stroke:#009900;stroke-linejoin:miter;stroke-width:2;"/>
   </g>
   <g id="patch_39">
    <path clip-path="url(#p315c8ce2d9)" d="M 203.914327 201.769868 
C 205.304003 201.769868 206.636949 201.217744 207.619598 200.235095 
C 208.602248 199.252445 209.154372 197.919499 209.154372 196.529823 
C 209.154372 195.140147 208.602248 193.807201 207.619598 192.824552 
C 206.636949 191.841903 205.304003 191.289778 203.914327 191.289778 
C 202.524651 191.289778 201.191705 191.841903 200.209056 192.824552 
C 199.226406 193.807201 198.674282 195.140147 198.674282 196.529823 
C 198.674282 197.919499 199.226406 199.252445 200.209056 200.235095 
C 201.191705 201.217744 202.524651 201.769868 203.914327 201.769868 
z
" style="fill:#9558b2;fill-opacity:0.5;stroke:#9558b2;stroke-linejoin:miter;stroke-width:2;"/>
   </g>
   <g id="patch_40">
    <path clip-path="url(#p315c8ce2d9)" d="M 224.874507 199.149846 
C 225.569345 199.149846 226.235818 198.873784 226.727142 198.382459 
C 227.218467 197.891134 227.494529 197.224661 227.494529 196.529823 
C 227.494529 195.834985 227.218467 195.168512 226.727142 194.677188 
C 226.235818 194.185863 225.569345 193.909801 224.874507 193.909801 
C 224.179669 193.909801 223.513196 194.185863 223.021871 194.677188 
C 222.530546 195.168512 222.254484 195.834985 222.254484 196.529823 
C 222.254484 197.224661 222.530546 197.891134 223.021871 198.382459 
C 223.513196 198.873784 224.179669 199.149846 224.874507 199.149846 
z
" style="fill:#009900;fill-opacity:0.5;stroke:#009900;stroke-linejoin:miter;stroke-width:2;"/>
   </g>
   <g id="patch_41">
    <path clip-path="url(#p315c8ce2d9)" d="M 203.914327 180.809689 
C 205.304003 180.809689 206.636949 180.257564 207.619598 179.274915 
C 208.602248 178.292266 209.154372 176.95932 209.154372 175.569644 
C 209.154372 174.179968 208.602248 172.847022 207.619598 171.864372 
C 206.636949 170.881723 205.304003 170.329599 203.914327 170.329599 
C 202.524651 170.329599 201.191705 170.881723 200.209056 171.864372 
C 199.226406 172.847022 198.674282 174.179968 198.674282 175.569644 
C 198.674282 176.95932 199.226406 178.292266 200.209056 179.274915 
C 201.191705 180.257564 202.524651 180.809689 203.914327 180.809689 
z
" style="fill:#9558b2;fill-opacity:0.5;stroke:#9558b2;stroke-linejoin:miter;stroke-width:2;"/>
   </g>
   <g id="patch_42">
    <path clip-path="url(#p315c8ce2d9)" d="M 224.874507 178.189666 
C 225.569345 178.189666 226.235818 177.913604 226.727142 177.422279 
C 227.218467 176.930955 227.494529 176.264482 227.494529 175.569644 
C 227.494529 174.874806 227.218467 174.208333 226.727142 173.717008 
C 226.235818 173.225683 225.569345 172.949621 224.874507 172.949621 
C 224.179669 172.949621 223.513196 173.225683 223.021871 173.717008 
C 222.530546 174.208333 222.254484 174.874806 222.254484 175.569644 
C 222.254484 176.264482 222.530546 176.930955 223.021871 177.422279 
C 223.513196 177.913604 224.179669 178.189666 224.874507 178.189666 
z
" style="fill:#009900;fill-opacity:0.5;stroke:#009900;stroke-linejoin:miter;stroke-width:2;"/>
   </g>
   <g id="patch_43">
    <path clip-path="url(#p315c8ce2d9)" d="M 203.914327 159.849509 
C 205.304003 159.849509 206.636949 159.297385 207.619598 158.314735 
C 208.602248 157.332086 209.154372 155.99914 209.154372 154.609464 
C 209.154372 153.219788 208.602248 151.886842 207.619598 150.904193 
C 206.636949 149.921543 205.304003 149.369419 203.914327 149.369419 
C 202.524651 149.369419 201.191705 149.921543 200.209056 150.904193 
C 199.226406 151.886842 198.674282 153.219788 198.674282 154.609464 
C 198.674282 155.99914 199.226406 157.332086 200.209056 158.314735 
C 201.191705 159.297385 202.524651 159.849509 203.914327 159.849509 
z
" style="fill:#9558b2;fill-opacity:0.5;stroke:#9558b2;stroke-linejoin:miter;stroke-width:2;"/>
   </g>
   <g id="patch_44">
    <path clip-path="url(#p315c8ce2d9)" d="M 224.874507 157.229486 
C 225.569345 157.229486 226.235818 156.953424 226.727142 156.4621 
C 227.218467 155.970775 227.494529 155.304302 227.494529 154.609464 
C 227.494529 153.914626 227.218467 153.248153 226.727142 152.756828 
C 226.235818 152.265504 225.569345 151.989442 224.874507 151.989442 
C 224.179669 151.989442 223.513196 152.265504 223.021871 152.756828 
C 222.530546 153.248153 222.254484 153.914626 222.254484 154.609464 
C 222.254484 155.304302 222.530546 155.970775 223.021871 156.4621 
C 223.513196 156.953424 224.179669 157.229486 224.874507 157.229486 
z
" style="fill:#009900;fill-opacity:0.5;stroke:#009900;stroke-linejoin:miter;stroke-width:2;"/>
   </g>
   <g id="patch_45">
    <path clip-path="url(#p315c8ce2d9)" d="M 203.914327 138.889329 
C 205.304003 138.889329 206.636949 138.337205 207.619598 137.354556 
C 208.602248 136.371906 209.154372 135.038961 209.154372 133.649284 
C 209.154372 132.259608 208.602248 130.926663 207.619598 129.944013 
C 206.636949 128.961364 205.304003 128.409239 203.914327 128.409239 
C 202.524651 128.409239 201.191705 128.961364 200.209056 129.944013 
C 199.226406 130.926663 198.674282 132.259608 198.674282 133.649284 
C 198.674282 135.038961 199.226406 136.371906 200.209056 137.354556 
C 201.191705 138.337205 202.524651 138.889329 203.914327 138.889329 
z
" style="fill:#9558b2;fill-opacity:0.5;stroke:#9558b2;stroke-linejoin:miter;stroke-width:2;"/>
   </g>
   <g id="patch_46">
    <path clip-path="url(#p315c8ce2d9)" d="M 224.874507 136.269307 
C 225.569345 136.269307 226.235818 135.993245 226.727142 135.50192 
C 227.218467 135.010595 227.494529 134.344122 227.494529 133.649284 
C 227.494529 132.954446 227.218467 132.287973 226.727142 131.796649 
C 226.235818 131.305324 225.569345 131.029262 224.874507 131.029262 
C 224.179669 131.029262 223.513196 131.305324 223.021871 131.796649 
C 222.530546 132.287973 222.254484 132.954446 222.254484 133.649284 
C 222.254484 134.344122 222.530546 135.010595 223.021871 135.50192 
C 223.513196 135.993245 224.179669 136.269307 224.874507 136.269307 
z
" style="fill:#009900;fill-opacity:0.5;stroke:#009900;stroke-linejoin:miter;stroke-width:2;"/>
   </g>
   <g id="patch_47">
    <path clip-path="url(#p315c8ce2d9)" d="M 203.914327 117.92915 
C 205.304003 117.92915 206.636949 117.377025 207.619598 116.394376 
C 208.602248 115.411727 209.154372 114.078781 209.154372 112.689105 
C 209.154372 111.299429 208.602248 109.966483 207.619598 108.983833 
C 206.636949 108.001184 205.304003 107.44906 203.914327 107.44906 
C 202.524651 107.44906 201.191705 108.001184 200.209056 108.983833 
C 199.226406 109.966483 198.674282 111.299429 198.674282 112.689105 
C 198.674282 114.078781 199.226406 115.411727 200.209056 116.394376 
C 201.191705 117.377025 202.524651 117.92915 203.914327 117.92915 
z
" style="fill:#9558b2;fill-opacity:0.5;stroke:#9558b2;stroke-linejoin:miter;stroke-width:2;"/>
   </g>
   <g id="patch_48">
    <path clip-path="url(#p315c8ce2d9)" d="M 224.874507 115.309127 
C 225.569345 115.309127 226.235818 115.033065 226.727142 114.54174 
C 227.218467 114.050416 227.494529 113.383943 227.494529 112.689105 
C 227.494529 111.994267 227.218467 111.327794 226.727142 110.836469 
C 226.235818 110.345144 225.569345 110.069082 224.874507 110.069082 
C 224.179669 110.069082 223.513196 110.345144 223.021871 110.836469 
C 222.530546 111.327794 222.254484 111.994267 222.254484 112.689105 
C 222.254484 113.383943 222.530546 114.050416 223.021871 114.54174 
C 223.513196 115.033065 224.179669 115.309127 224.874507 115.309127 
z
" style="fill:#009900;fill-opacity:0.5;stroke:#009900;stroke-linejoin:miter;stroke-width:2;"/>
   </g>
   <g id="patch_49">
    <path clip-path="url(#p315c8ce2d9)" d="M 203.914327 96.96897 
C 205.304003 96.96897 206.636949 96.416846 207.619598 95.434196 
C 208.602248 94.451547 209.154372 93.118601 209.154372 91.728925 
C 209.154372 90.339249 208.602248 89.006303 207.619598 88.023654 
C 206.636949 87.041004 205.304003 86.48888 203.914327 86.48888 
C 202.524651 86.48888 201.191705 87.041004 200.209056 88.023654 
C 199.226406 89.006303 198.674282 90.339249 198.674282 91.728925 
C 198.674282 93.118601 199.226406 94.451547 200.209056 95.434196 
C 201.191705 96.416846 202.524651 96.96897 203.914327 96.96897 
z
" style="fill:#9558b2;fill-opacity:0.5;stroke:#9558b2;stroke-linejoin:miter;stroke-width:2;"/>
   </g>
   <g id="patch_50">
    <path clip-path="url(#p315c8ce2d9)" d="M 224.874507 94.348948 
C 225.569345 94.348948 226.235818 94.072885 226.727142 93.581561 
C 227.218467 93.090236 227.494529 92.423763 227.494529 91.728925 
C 227.494529 91.034087 227.218467 90.367614 226.727142 89.876289 
C 226.235818 89.384965 225.569345 89.108903 224.874507 89.108903 
C 224.179669 89.108903 223.513196 89.384965 223.021871 89.876289 
C 222.530546 90.367614 222.254484 91.034087 222.254484 91.728925 
C 222.254484 92.423763 222.530546 93.090236 223.021871 93.581561 
C 223.513196 94.072885 224.179669 94.348948 224.874507 94.348948 
z
" style="fill:#009900;fill-opacity:0.5;stroke:#009900;stroke-linejoin:miter;stroke-width:2;"/>
   </g>
   <g id="patch_51">
    <path clip-path="url(#p315c8ce2d9)" d="M 203.914327 76.00879 
C 205.304003 76.00879 206.636949 75.456666 207.619598 74.474017 
C 208.602248 73.491367 209.154372 72.158422 209.154372 70.768745 
C 209.154372 69.379069 208.602248 68.046124 207.619598 67.063474 
C 206.636949 66.080825 205.304003 65.528701 203.914327 65.528701 
C 202.524651 65.528701 201.191705 66.080825 200.209056 67.063474 
C 199.226406 68.046124 198.674282 69.379069 198.674282 70.768745 
C 198.674282 72.158422 199.226406 73.491367 200.209056 74.474017 
C 201.191705 75.456666 202.524651 76.00879 203.914327 76.00879 
z
" style="fill:#9558b2;fill-opacity:0.5;stroke:#9558b2;stroke-linejoin:miter;stroke-width:2;"/>
   </g>
   <g id="patch_52">
    <path clip-path="url(#p315c8ce2d9)" d="M 224.874507 73.388768 
C 225.569345 73.388768 226.235818 73.112706 226.727142 72.621381 
C 227.218467 72.130056 227.494529 71.463583 227.494529 70.768745 
C 227.494529 70.073907 227.218467 69.407434 226.727142 68.91611 
C 226.235818 68.424785 225.569345 68.148723 224.874507 68.148723 
C 224.179669 68.148723 223.513196 68.424785 223.021871 68.91611 
C 222.530546 69.407434 222.254484 70.073907 222.254484 70.768745 
C 222.254484 71.463583 222.530546 72.130056 223.021871 72.621381 
C 223.513196 73.112706 224.179669 73.388768 224.874507 73.388768 
z
" style="fill:#009900;fill-opacity:0.5;stroke:#009900;stroke-linejoin:miter;stroke-width:2;"/>
   </g>
   <g id="patch_53">
    <path clip-path="url(#p315c8ce2d9)" d="M 203.914327 55.048611 
C 205.304003 55.048611 206.636949 54.496486 207.619598 53.513837 
C 208.602248 52.531188 209.154372 51.198242 209.154372 49.808566 
C 209.154372 48.41889 208.602248 47.085944 207.619598 46.103294 
C 206.636949 45.120645 205.304003 44.568521 203.914327 44.568521 
C 202.524651 44.568521 201.191705 45.120645 200.209056 46.103294 
C 199.226406 47.085944 198.674282 48.41889 198.674282 49.808566 
C 198.674282 51.198242 199.226406 52.531188 200.209056 53.513837 
C 201.191705 54.496486 202.524651 55.048611 203.914327 55.048611 
z
" style="fill:#9558b2;fill-opacity:0.5;stroke:#9558b2;stroke-linejoin:miter;stroke-width:2;"/>
   </g>
   <g id="patch_54">
    <path clip-path="url(#p315c8ce2d9)" d="M 224.874507 52.428588 
C 225.569345 52.428588 226.235818 52.152526 226.727142 51.661201 
C 227.218467 51.169877 227.494529 50.503404 227.494529 49.808566 
C 227.494529 49.113728 227.218467 48.447255 226.727142 47.95593 
C 226.235818 47.464605 225.569345 47.188543 224.874507 47.188543 
C 224.179669 47.188543 223.513196 47.464605 223.021871 47.95593 
C 222.530546 48.447255 222.254484 49.113728 222.254484 49.808566 
C 222.254484 50.503404 222.530546 51.169877 223.021871 51.661201 
C 223.513196 52.152526 224.179669 52.428588 224.874507 52.428588 
z
" style="fill:#009900;fill-opacity:0.5;stroke:#009900;stroke-linejoin:miter;stroke-width:2;"/>
   </g>
   <g id="patch_55">
    <path clip-path="url(#p315c8ce2d9)" d="M 245.834686 306.570766 
C 247.224362 306.570766 248.557308 306.018642 249.539958 305.035993 
C 250.522607 304.053343 251.074731 302.720398 251.074731 301.330722 
C 251.074731 299.941045 250.522607 298.6081 249.539958 297.62545 
C 248.557308 296.642801 247.224362 296.090677 245.834686 296.090677 
C 244.44501 296.090677 243.112064 296.642801 242.129415 297.62545 
C 241.146766 298.6081 240.594641 299.941045 240.594641 301.330722 
C 240.594641 302.720398 241.146766 304.053343 242.129415 305.035993 
C 243.112064 306.018642 244.44501 306.570766 245.834686 306.570766 
z
" style="fill:#9558b2;fill-opacity:0.5;stroke:#9558b2;stroke-linejoin:miter;stroke-width:2;"/>
   </g>
   <g id="patch_56">
    <path clip-path="url(#p315c8ce2d9)" d="M 266.794866 303.950744 
C 267.489704 303.950744 268.156177 303.674682 268.647502 303.183357 
C 269.138826 302.692032 269.414888 302.02556 269.414888 301.330722 
C 269.414888 300.635883 269.138826 299.969411 268.647502 299.478086 
C 268.156177 298.986761 267.489704 298.710699 266.794866 298.710699 
C 266.100028 298.710699 265.433555 298.986761 264.94223 299.478086 
C 264.450906 299.969411 264.174843 300.635883 264.174843 301.330722 
C 264.174843 302.02556 264.450906 302.692032 264.94223 303.183357 
C 265.433555 303.674682 266.100028 303.950744 266.794866 303.950744 
z
" style="fill:#009900;fill-opacity:0.5;stroke:#009900;stroke-linejoin:miter;stroke-width:2;"/>
   </g>
   <g id="patch_57">
    <path clip-path="url(#p315c8ce2d9)" d="M 245.834686 285.610587 
C 247.224362 285.610587 248.557308 285.058463 249.539958 284.075813 
C 250.522607 283.093164 251.074731 281.760218 251.074731 280.370542 
C 251.074731 278.980866 250.522607 277.64792 249.539958 276.665271 
C 248.557308 275.682621 247.224362 275.130497 245.834686 275.130497 
C 244.44501 275.130497 243.112064 275.682621 242.129415 276.665271 
C 241.146766 277.64792 240.594641 278.980866 240.594641 280.370542 
C 240.594641 281.760218 241.146766 283.093164 242.129415 284.075813 
C 243.112064 285.058463 244.44501 285.610587 245.834686 285.610587 
z
" style="fill:#9558b2;fill-opacity:0.5;stroke:#9558b2;stroke-linejoin:miter;stroke-width:2;"/>
   </g>
   <g id="patch_58">
    <path clip-path="url(#p315c8ce2d9)" d="M 266.794866 282.990564 
C 267.489704 282.990564 268.156177 282.714502 268.647502 282.223178 
C 269.138826 281.731853 269.414888 281.06538 269.414888 280.370542 
C 269.414888 279.675704 269.138826 279.009231 268.647502 278.517906 
C 268.156177 278.026582 267.489704 277.750519 266.794866 277.750519 
C 266.100028 277.750519 265.433555 278.026582 264.94223 278.517906 
C 264.450906 279.009231 264.174843 279.675704 264.174843 280.370542 
C 264.174843 281.06538 264.450906 281.731853 264.94223 282.223178 
C 265.433555 282.714502 266.100028 282.990564 266.794866 282.990564 
z
" style="fill:#009900;fill-opacity:0.5;stroke:#009900;stroke-linejoin:miter;stroke-width:2;"/>
   </g>
   <g id="patch_59">
    <path clip-path="url(#p315c8ce2d9)" d="M 245.834686 264.650407 
C 247.224362 264.650407 248.557308 264.098283 249.539958 263.115634 
C 250.522607 262.132984 251.074731 260.800038 251.074731 259.410362 
C 251.074731 258.020686 250.522607 256.68774 249.539958 255.705091 
C 248.557308 254.722442 247.224362 254.170317 245.834686 254.170317 
C 244.44501 254.170317 243.112064 254.722442 242.129415 255.705091 
C 241.146766 256.68774 240.594641 258.020686 240.594641 259.410362 
C 240.594641 260.800038 241.146766 262.132984 242.129415 263.115634 
C 243.112064 264.098283 244.44501 264.650407 245.834686 264.650407 
z
" style="fill:#9558b2;fill-opacity:0.5;stroke:#9558b2;stroke-linejoin:miter;stroke-width:2;"/>
   </g>
   <g id="patch_60">
    <path clip-path="url(#p315c8ce2d9)" d="M 266.794866 262.030385 
C 267.489704 262.030385 268.156177 261.754323 268.647502 261.262998 
C 269.138826 260.771673 269.414888 260.1052 269.414888 259.410362 
C 269.414888 258.715524 269.138826 258.049051 268.647502 257.557727 
C 268.156177 257.066402 267.489704 256.79034 266.794866 256.79034 
C 266.100028 256.79034 265.433555 257.066402 264.94223 257.557727 
C 264.450906 258.049051 264.174843 258.715524 264.174843 259.410362 
C 264.174843 260.1052 264.450906 260.771673 264.94223 261.262998 
C 265.433555 261.754323 266.100028 262.030385 266.794866 262.030385 
z
" style="fill:#009900;fill-opacity:0.5;stroke:#009900;stroke-linejoin:miter;stroke-width:2;"/>
   </g>
   <g id="patch_61">
    <path clip-path="url(#p315c8ce2d9)" d="M 245.834686 243.690228 
C 247.224362 243.690228 248.557308 243.138103 249.539958 242.155454 
C 250.522607 241.172804 251.074731 239.839859 251.074731 238.450183 
C 251.074731 237.060506 250.522607 235.727561 249.539958 234.744911 
C 248.557308 233.762262 247.224362 233.210138 245.834686 233.210138 
C 244.44501 233.210138 243.112064 233.762262 242.129415 234.744911 
C 241.146766 235.727561 240.594641 237.060506 240.594641 238.450183 
C 240.594641 239.839859 241.146766 241.172804 242.129415 242.155454 
C 243.112064 243.138103 244.44501 243.690228 245.834686 243.690228 
z
" style="fill:#9558b2;fill-opacity:0.5;stroke:#9558b2;stroke-linejoin:miter;stroke-width:2;"/>
   </g>
   <g id="patch_62">
    <path clip-path="url(#p315c8ce2d9)" d="M 266.794866 241.070205 
C 267.489704 241.070205 268.156177 240.794143 268.647502 240.302818 
C 269.138826 239.811494 269.414888 239.145021 269.414888 238.450183 
C 269.414888 237.755345 269.138826 237.088872 268.647502 236.597547 
C 268.156177 236.106222 267.489704 235.83016 266.794866 235.83016 
C 266.100028 235.83016 265.433555 236.106222 264.94223 236.597547 
C 264.450906 237.088872 264.174843 237.755345 264.174843 238.450183 
C 264.174843 239.145021 264.450906 239.811494 264.94223 240.302818 
C 265.433555 240.794143 266.100028 241.070205 266.794866 241.070205 
z
" style="fill:#009900;fill-opacity:0.5;stroke:#009900;stroke-linejoin:miter;stroke-width:2;"/>
   </g>
   <g id="patch_63">
    <path clip-path="url(#p315c8ce2d9)" d="M 245.834686 222.730048 
C 247.224362 222.730048 248.557308 222.177924 249.539958 221.195274 
C 250.522607 220.212625 251.074731 218.879679 251.074731 217.490003 
C 251.074731 216.100327 250.522607 214.767381 249.539958 213.784732 
C 248.557308 212.802082 247.224362 212.249958 245.834686 212.249958 
C 244.44501 212.249958 243.112064 212.802082 242.129415 213.784732 
C 241.146766 214.767381 240.594641 216.100327 240.594641 217.490003 
C 240.594641 218.879679 241.146766 220.212625 242.129415 221.195274 
C 243.112064 222.177924 244.44501 222.730048 245.834686 222.730048 
z
" style="fill:#9558b2;fill-opacity:0.5;stroke:#9558b2;stroke-linejoin:miter;stroke-width:2;"/>
   </g>
   <g id="patch_64">
    <path clip-path="url(#p315c8ce2d9)" d="M 266.794866 220.110025 
C 267.489704 220.110025 268.156177 219.833963 268.647502 219.342639 
C 269.138826 218.851314 269.414888 218.184841 269.414888 217.490003 
C 269.414888 216.795165 269.138826 216.128692 268.647502 215.637367 
C 268.156177 215.146043 267.489704 214.869981 266.794866 214.869981 
C 266.100028 214.869981 265.433555 215.146043 264.94223 215.637367 
C 264.450906 216.128692 264.174843 216.795165 264.174843 217.490003 
C 264.174843 218.184841 264.450906 218.851314 264.94223 219.342639 
C 265.433555 219.833963 266.100028 220.110025 266.794866 220.110025 
z
" style="fill:#009900;fill-opacity:0.5;stroke:#009900;stroke-linejoin:miter;stroke-width:2;"/>
   </g>
   <g id="patch_65">
    <path clip-path="url(#p315c8ce2d9)" d="M 245.834686 201.769868 
C 247.224362 201.769868 248.557308 201.217744 249.539958 200.235095 
C 250.522607 199.252445 251.074731 197.919499 251.074731 196.529823 
C 251.074731 195.140147 250.522607 193.807201 249.539958 192.824552 
C 248.557308 191.841903 247.224362 191.289778 245.834686 191.289778 
C 244.44501 191.289778 243.112064 191.841903 242.129415 192.824552 
C 241.146766 193.807201 240.594641 195.140147 240.594641 196.529823 
C 240.594641 197.919499 241.146766 199.252445 242.129415 200.235095 
C 243.112064 201.217744 244.44501 201.769868 245.834686 201.769868 
z
" style="fill:#9558b2;fill-opacity:0.5;stroke:#9558b2;stroke-linejoin:miter;stroke-width:2;"/>
   </g>
   <g id="patch_66">
    <path clip-path="url(#p315c8ce2d9)" d="M 266.794866 199.149846 
C 267.489704 199.149846 268.156177 198.873784 268.647502 198.382459 
C 269.138826 197.891134 269.414888 197.224661 269.414888 196.529823 
C 269.414888 195.834985 269.138826 195.168512 268.647502 194.677188 
C 268.156177 194.185863 267.489704 193.909801 266.794866 193.909801 
C 266.100028 193.909801 265.433555 194.185863 264.94223 194.677188 
C 264.450906 195.168512 264.174843 195.834985 264.174843 196.529823 
C 264.174843 197.224661 264.450906 197.891134 264.94223 198.382459 
C 265.433555 198.873784 266.100028 199.149846 266.794866 199.149846 
z
" style="fill:#009900;fill-opacity:0.5;stroke:#009900;stroke-linejoin:miter;stroke-width:2;"/>
   </g>
   <g id="patch_67">
    <path clip-path="url(#p315c8ce2d9)" d="M 245.834686 180.809689 
C 247.224362 180.809689 248.557308 180.257564 249.539958 179.274915 
C 250.522607 178.292266 251.074731 176.95932 251.074731 175.569644 
C 251.074731 174.179968 250.522607 172.847022 249.539958 171.864372 
C 248.557308 170.881723 247.224362 170.329599 245.834686 170.329599 
C 244.44501 170.329599 243.112064 170.881723 242.129415 171.864372 
C 241.146766 172.847022 240.594641 174.179968 240.594641 175.569644 
C 240.594641 176.95932 241.146766 178.292266 242.129415 179.274915 
C 243.112064 180.257564 244.44501 180.809689 245.834686 180.809689 
z
" style="fill:#9558b2;fill-opacity:0.5;stroke:#9558b2;stroke-linejoin:miter;stroke-width:2;"/>
   </g>
   <g id="patch_68">
    <path clip-path="url(#p315c8ce2d9)" d="M 266.794866 178.189666 
C 267.489704 178.189666 268.156177 177.913604 268.647502 177.422279 
C 269.138826 176.930955 269.414888 176.264482 269.414888 175.569644 
C 269.414888 174.874806 269.138826 174.208333 268.647502 173.717008 
C 268.156177 173.225683 267.489704 172.949621 266.794866 172.949621 
C 266.100028 172.949621 265.433555 173.225683 264.94223 173.717008 
C 264.450906 174.208333 264.174843 174.874806 264.174843 175.569644 
C 264.174843 176.264482 264.450906 176.930955 264.94223 177.422279 
C 265.433555 177.913604 266.100028 178.189666 266.794866 178.189666 
z
" style="fill:#009900;fill-opacity:0.5;stroke:#009900;stroke-linejoin:miter;stroke-width:2;"/>
   </g>
   <g id="patch_69">
    <path clip-path="url(#p315c8ce2d9)" d="M 245.834686 159.849509 
C 247.224362 159.849509 248.557308 159.297385 249.539958 158.314735 
C 250.522607 157.332086 251.074731 155.99914 251.074731 154.609464 
C 251.074731 153.219788 250.522607 151.886842 249.539958 150.904193 
C 248.557308 149.921543 247.224362 149.369419 245.834686 149.369419 
C 244.44501 149.369419 243.112064 149.921543 242.129415 150.904193 
C 241.146766 151.886842 240.594641 153.219788 240.594641 154.609464 
C 240.594641 155.99914 241.146766 157.332086 242.129415 158.314735 
C 243.112064 159.297385 244.44501 159.849509 245.834686 159.849509 
z
" style="fill:#9558b2;fill-opacity:0.5;stroke:#9558b2;stroke-linejoin:miter;stroke-width:2;"/>
   </g>
   <g id="patch_70">
    <path clip-path="url(#p315c8ce2d9)" d="M 266.794866 157.229486 
C 267.489704 157.229486 268.156177 156.953424 268.647502 156.4621 
C 269.138826 155.970775 269.414888 155.304302 269.414888 154.609464 
C 269.414888 153.914626 269.138826 153.248153 268.647502 152.756828 
C 268.156177 152.265504 267.489704 151.989442 266.794866 151.989442 
C 266.100028 151.989442 265.433555 152.265504 264.94223 152.756828 
C 264.450906 153.248153 264.174843 153.914626 264.174843 154.609464 
C 264.174843 155.304302 264.450906 155.970775 264.94223 156.4621 
C 265.433555 156.953424 266.100028 157.229486 266.794866 157.229486 
z
" style="fill:#009900;fill-opacity:0.5;stroke:#009900;stroke-linejoin:miter;stroke-width:2;"/>
   </g>
   <g id="patch_71">
    <path clip-path="url(#p315c8ce2d9)" d="M 245.834686 138.889329 
C 247.224362 138.889329 248.557308 138.337205 249.539958 137.354556 
C 250.522607 136.371906 251.074731 135.038961 251.074731 133.649284 
C 251.074731 132.259608 250.522607 130.926663 249.539958 129.944013 
C 248.557308 128.961364 247.224362 128.409239 245.834686 128.409239 
C 244.44501 128.409239 243.112064 128.961364 242.129415 129.944013 
C 241.146766 130.926663 240.594641 132.259608 240.594641 133.649284 
C 240.594641 135.038961 241.146766 136.371906 242.129415 137.354556 
C 243.112064 138.337205 244.44501 138.889329 245.834686 138.889329 
z
" style="fill:#9558b2;fill-opacity:0.5;stroke:#9558b2;stroke-linejoin:miter;stroke-width:2;"/>
   </g>
   <g id="patch_72">
    <path clip-path="url(#p315c8ce2d9)" d="M 266.794866 136.269307 
C 267.489704 136.269307 268.156177 135.993245 268.647502 135.50192 
C 269.138826 135.010595 269.414888 134.344122 269.414888 133.649284 
C 269.414888 132.954446 269.138826 132.287973 268.647502 131.796649 
C 268.156177 131.305324 267.489704 131.029262 266.794866 131.029262 
C 266.100028 131.029262 265.433555 131.305324 264.94223 131.796649 
C 264.450906 132.287973 264.174843 132.954446 264.174843 133.649284 
C 264.174843 134.344122 264.450906 135.010595 264.94223 135.50192 
C 265.433555 135.993245 266.100028 136.269307 266.794866 136.269307 
z
" style="fill:#009900;fill-opacity:0.5;stroke:#009900;stroke-linejoin:miter;stroke-width:2;"/>
   </g>
   <g id="patch_73">
    <path clip-path="url(#p315c8ce2d9)" d="M 245.834686 117.92915 
C 247.224362 117.92915 248.557308 117.377025 249.539958 116.394376 
C 250.522607 115.411727 251.074731 114.078781 251.074731 112.689105 
C 251.074731 111.299429 250.522607 109.966483 249.539958 108.983833 
C 248.557308 108.001184 247.224362 107.44906 245.834686 107.44906 
C 244.44501 107.44906 243.112064 108.001184 242.129415 108.983833 
C 241.146766 109.966483 240.594641 111.299429 240.594641 112.689105 
C 240.594641 114.078781 241.146766 115.411727 242.129415 116.394376 
C 243.112064 117.377025 244.44501 117.92915 245.834686 117.92915 
z
" style="fill:#9558b2;fill-opacity:0.5;stroke:#9558b2;stroke-linejoin:miter;stroke-width:2;"/>
   </g>
   <g id="patch_74">
    <path clip-path="url(#p315c8ce2d9)" d="M 266.794866 115.309127 
C 267.489704 115.309127 268.156177 115.033065 268.647502 114.54174 
C 269.138826 114.050416 269.414888 113.383943 269.414888 112.689105 
C 269.414888 111.994267 269.138826 111.327794 268.647502 110.836469 
C 268.156177 110.345144 267.489704 110.069082 266.794866 110.069082 
C 266.100028 110.069082 265.433555 110.345144 264.94223 110.836469 
C 264.450906 111.327794 264.174843 111.994267 264.174843 112.689105 
C 264.174843 113.383943 264.450906 114.050416 264.94223 114.54174 
C 265.433555 115.033065 266.100028 115.309127 266.794866 115.309127 
z
" style="fill:#009900;fill-opacity:0.5;stroke:#009900;stroke-linejoin:miter;stroke-width:2;"/>
   </g>
   <g id="patch_75">
    <path clip-path="url(#p315c8ce2d9)" d="M 245.834686 96.96897 
C 247.224362 96.96897 248.557308 96.416846 249.539958 95.434196 
C 250.522607 94.451547 251.074731 93.118601 251.074731 91.728925 
C 251.074731 90.339249 250.522607 89.006303 249.539958 88.023654 
C 248.557308 87.041004 247.224362 86.48888 245.834686 86.48888 
C 244.44501 86.48888 243.112064 87.041004 242.129415 88.023654 
C 241.146766 89.006303 240.594641 90.339249 240.594641 91.728925 
C 240.594641 93.118601 241.146766 94.451547 242.129415 95.434196 
C 243.112064 96.416846 244.44501 96.96897 245.834686 96.96897 
z
" style="fill:#9558b2;fill-opacity:0.5;stroke:#9558b2;stroke-linejoin:miter;stroke-width:2;"/>
   </g>
   <g id="patch_76">
    <path clip-path="url(#p315c8ce2d9)" d="M 266.794866 94.348948 
C 267.489704 94.348948 268.156177 94.072885 268.647502 93.581561 
C 269.138826 93.090236 269.414888 92.423763 269.414888 91.728925 
C 269.414888 91.034087 269.138826 90.367614 268.647502 89.876289 
C 268.156177 89.384965 267.489704 89.108903 266.794866 89.108903 
C 266.100028 89.108903 265.433555 89.384965 264.94223 89.876289 
C 264.450906 90.367614 264.174843 91.034087 264.174843 91.728925 
C 264.174843 92.423763 264.450906 93.090236 264.94223 93.581561 
C 265.433555 94.072885 266.100028 94.348948 266.794866 94.348948 
z
" style="fill:#009900;fill-opacity:0.5;stroke:#009900;stroke-linejoin:miter;stroke-width:2;"/>
   </g>
   <g id="patch_77">
    <path clip-path="url(#p315c8ce2d9)" d="M 245.834686 76.00879 
C 247.224362 76.00879 248.557308 75.456666 249.539958 74.474017 
C 250.522607 73.491367 251.074731 72.158422 251.074731 70.768745 
C 251.074731 69.379069 250.522607 68.046124 249.539958 67.063474 
C 248.557308 66.080825 247.224362 65.528701 245.834686 65.528701 
C 244.44501 65.528701 243.112064 66.080825 242.129415 67.063474 
C 241.146766 68.046124 240.594641 69.379069 240.594641 70.768745 
C 240.594641 72.158422 241.146766 73.491367 242.129415 74.474017 
C 243.112064 75.456666 244.44501 76.00879 245.834686 76.00879 
z
" style="fill:#9558b2;fill-opacity:0.5;stroke:#9558b2;stroke-linejoin:miter;stroke-width:2;"/>
   </g>
   <g id="patch_78">
    <path clip-path="url(#p315c8ce2d9)" d="M 266.794866 73.388768 
C 267.489704 73.388768 268.156177 73.112706 268.647502 72.621381 
C 269.138826 72.130056 269.414888 71.463583 269.414888 70.768745 
C 269.414888 70.073907 269.138826 69.407434 268.647502 68.91611 
C 268.156177 68.424785 267.489704 68.148723 266.794866 68.148723 
C 266.100028 68.148723 265.433555 68.424785 264.94223 68.91611 
C 264.450906 69.407434 264.174843 70.073907 264.174843 70.768745 
C 264.174843 71.463583 264.450906 72.130056 264.94223 72.621381 
C 265.433555 73.112706 266.100028 73.388768 266.794866 73.388768 
z
" style="fill:#009900;fill-opacity:0.5;stroke:#009900;stroke-linejoin:miter;stroke-width:2;"/>
   </g>
   <g id="patch_79">
    <path clip-path="url(#p315c8ce2d9)" d="M 245.834686 55.048611 
C 247.224362 55.048611 248.557308 54.496486 249.539958 53.513837 
C 250.522607 52.531188 251.074731 51.198242 251.074731 49.808566 
C 251.074731 48.41889 250.522607 47.085944 249.539958 46.103294 
C 248.557308 45.120645 247.224362 44.568521 245.834686 44.568521 
C 244.44501 44.568521 243.112064 45.120645 242.129415 46.103294 
C 241.146766 47.085944 240.594641 48.41889 240.594641 49.808566 
C 240.594641 51.198242 241.146766 52.531188 242.129415 53.513837 
C 243.112064 54.496486 244.44501 55.048611 245.834686 55.048611 
z
" style="fill:#9558b2;fill-opacity:0.5;stroke:#9558b2;stroke-linejoin:miter;stroke-width:2;"/>
   </g>
   <g id="patch_80">
    <path clip-path="url(#p315c8ce2d9)" d="M 266.794866 52.428588 
C 267.489704 52.428588 268.156177 52.152526 268.647502 51.661201 
C 269.138826 51.169877 269.414888 50.503404 269.414888 49.808566 
C 269.414888 49.113728 269.138826 48.447255 268.647502 47.95593 
C 268.156177 47.464605 267.489704 47.188543 266.794866 47.188543 
C 266.100028 47.188543 265.433555 47.464605 264.94223 47.95593 
C 264.450906 48.447255 264.174843 49.113728 264.174843 49.808566 
C 264.174843 50.503404 264.450906 51.169877 264.94223 51.661201 
C 265.433555 52.152526 266.100028 52.428588 266.794866 52.428588 
z
" style="fill:#009900;fill-opacity:0.5;stroke:#009900;stroke-linejoin:miter;stroke-width:2;"/>
   </g>
   <g id="patch_81">
    <path clip-path="url(#p315c8ce2d9)" d="M 287.755046 306.570766 
C 289.144722 306.570766 290.477667 306.018642 291.460317 305.035993 
C 292.442966 304.053343 292.995091 302.720398 292.995091 301.330722 
C 292.995091 299.941045 292.442966 298.6081 291.460317 297.62545 
C 290.477667 296.642801 289.144722 296.090677 287.755046 296.090677 
C 286.365369 296.090677 285.032424 296.642801 284.049774 297.62545 
C 283.067125 298.6081 282.515001 299.941045 282.515001 301.330722 
C 282.515001 302.720398 283.067125 304.053343 284.049774 305.035993 
C 285.032424 306.018642 286.365369 306.570766 287.755046 306.570766 
z
" style="fill:#9558b2;fill-opacity:0.5;stroke:#9558b2;stroke-linejoin:miter;stroke-width:2;"/>
   </g>
   <g id="patch_82">
    <path clip-path="url(#p315c8ce2d9)" d="M 308.715225 303.950744 
C 309.410063 303.950744 310.076536 303.674682 310.567861 303.183357 
C 311.059186 302.692032 311.335248 302.02556 311.335248 301.330722 
C 311.335248 300.635883 311.059186 299.969411 310.567861 299.478086 
C 310.076536 298.986761 309.410063 298.710699 308.715225 298.710699 
C 308.020387 298.710699 307.353914 298.986761 306.86259 299.478086 
C 306.371265 299.969411 306.095203 300.635883 306.095203 301.330722 
C 306.095203 302.02556 306.371265 302.692032 306.86259 303.183357 
C 307.353914 303.674682 308.020387 303.950744 308.715225 303.950744 
z
" style="fill:#009900;fill-opacity:0.5;stroke:#009900;stroke-linejoin:miter;stroke-width:2;"/>
   </g>
   <g id="patch_83">
    <path clip-path="url(#p315c8ce2d9)" d="M 287.755046 285.610587 
C 289.144722 285.610587 290.477667 285.058463 291.460317 284.075813 
C 292.442966 283.093164 292.995091 281.760218 292.995091 280.370542 
C 292.995091 278.980866 292.442966 277.64792 291.460317 276.665271 
C 290.477667 275.682621 289.144722 275.130497 287.755046 275.130497 
C 286.365369 275.130497 285.032424 275.682621 284.049774 276.665271 
C 283.067125 277.64792 282.515001 278.980866 282.515001 280.370542 
C 282.515001 281.760218 283.067125 283.093164 284.049774 284.075813 
C 285.032424 285.058463 286.365369 285.610587 287.755046 285.610587 
z
" style="fill:#9558b2;fill-opacity:0.5;stroke:#9558b2;stroke-linejoin:miter;stroke-width:2;"/>
   </g>
   <g id="patch_84">
    <path clip-path="url(#p315c8ce2d9)" d="M 308.715225 282.990564 
C 309.410063 282.990564 310.076536 282.714502 310.567861 282.223178 
C 311.059186 281.731853 311.335248 281.06538 311.335248 280.370542 
C 311.335248 279.675704 311.059186 279.009231 310.567861 278.517906 
C 310.076536 278.026582 309.410063 277.750519 308.715225 277.750519 
C 308.020387 277.750519 307.353914 278.026582 306.86259 278.517906 
C 306.371265 279.009231 306.095203 279.675704 306.095203 280.370542 
C 306.095203 281.06538 306.371265 281.731853 306.86259 282.223178 
C 307.353914 282.714502 308.020387 282.990564 308.715225 282.990564 
z
" style="fill:#009900;fill-opacity:0.5;stroke:#009900;stroke-linejoin:miter;stroke-width:2;"/>
   </g>
   <g id="patch_85">
    <path clip-path="url(#p315c8ce2d9)" d="M 287.755046 264.650407 
C 289.144722 264.650407 290.477667 264.098283 291.460317 263.115634 
C 292.442966 262.132984 292.995091 260.800038 292.995091 259.410362 
C 292.995091 258.020686 292.442966 256.68774 291.460317 255.705091 
C 290.477667 254.722442 289.144722 254.170317 287.755046 254.170317 
C 286.365369 254.170317 285.032424 254.722442 284.049774 255.705091 
C 283.067125 256.68774 282.515001 258.020686 282.515001 259.410362 
C 282.515001 260.800038 283.067125 262.132984 284.049774 263.115634 
C 285.032424 264.098283 286.365369 264.650407 287.755046 264.650407 
z
" style="fill:#9558b2;fill-opacity:0.5;stroke:#9558b2;stroke-linejoin:miter;stroke-width:2;"/>
   </g>
   <g id="patch_86">
    <path clip-path="url(#p315c8ce2d9)" d="M 308.715225 262.030385 
C 309.410063 262.030385 310.076536 261.754323 310.567861 261.262998 
C 311.059186 260.771673 311.335248 260.1052 311.335248 259.410362 
C 311.335248 258.715524 311.059186 258.049051 310.567861 257.557727 
C 310.076536 257.066402 309.410063 256.79034 308.715225 256.79034 
C 308.020387 256.79034 307.353914 257.066402 306.86259 257.557727 
C 306.371265 258.049051 306.095203 258.715524 306.095203 259.410362 
C 306.095203 260.1052 306.371265 260.771673 306.86259 261.262998 
C 307.353914 261.754323 308.020387 262.030385 308.715225 262.030385 
z
" style="fill:#009900;fill-opacity:0.5;stroke:#009900;stroke-linejoin:miter;stroke-width:2;"/>
   </g>
   <g id="patch_87">
    <path clip-path="url(#p315c8ce2d9)" d="M 287.755046 243.690228 
C 289.144722 243.690228 290.477667 243.138103 291.460317 242.155454 
C 292.442966 241.172804 292.995091 239.839859 292.995091 238.450183 
C 292.995091 237.060506 292.442966 235.727561 291.460317 234.744911 
C 290.477667 233.762262 289.144722 233.210138 287.755046 233.210138 
C 286.365369 233.210138 285.032424 233.762262 284.049774 234.744911 
C 283.067125 235.727561 282.515001 237.060506 282.515001 238.450183 
C 282.515001 239.839859 283.067125 241.172804 284.049774 242.155454 
C 285.032424 243.138103 286.365369 243.690228 287.755046 243.690228 
z
" style="fill:#9558b2;fill-opacity:0.5;stroke:#9558b2;stroke-linejoin:miter;stroke-width:2;"/>
   </g>
   <g id="patch_88">
    <path clip-path="url(#p315c8ce2d9)" d="M 308.715225 241.070205 
C 309.410063 241.070205 310.076536 240.794143 310.567861 240.302818 
C 311.059186 239.811494 311.335248 239.145021 311.335248 238.450183 
C 311.335248 237.755345 311.059186 237.088872 310.567861 236.597547 
C 310.076536 236.106222 309.410063 235.83016 308.715225 235.83016 
C 308.020387 235.83016 307.353914 236.106222 306.86259 236.597547 
C 306.371265 237.088872 306.095203 237.755345 306.095203 238.450183 
C 306.095203 239.145021 306.371265 239.811494 306.86259 240.302818 
C 307.353914 240.794143 308.020387 241.070205 308.715225 241.070205 
z
" style="fill:#009900;fill-opacity:0.5;stroke:#009900;stroke-linejoin:miter;stroke-width:2;"/>
   </g>
   <g id="patch_89">
    <path clip-path="url(#p315c8ce2d9)" d="M 287.755046 222.730048 
C 289.144722 222.730048 290.477667 222.177924 291.460317 221.195274 
C 292.442966 220.212625 292.995091 218.879679 292.995091 217.490003 
C 292.995091 216.100327 292.442966 214.767381 291.460317 213.784732 
C 290.477667 212.802082 289.144722 212.249958 287.755046 212.249958 
C 286.365369 212.249958 285.032424 212.802082 284.049774 213.784732 
C 283.067125 214.767381 282.515001 216.100327 282.515001 217.490003 
C 282.515001 218.879679 283.067125 220.212625 284.049774 221.195274 
C 285.032424 222.177924 286.365369 222.730048 287.755046 222.730048 
z
" style="fill:#9558b2;fill-opacity:0.5;stroke:#9558b2;stroke-linejoin:miter;stroke-width:2;"/>
   </g>
   <g id="patch_90">
    <path clip-path="url(#p315c8ce2d9)" d="M 308.715225 220.110025 
C 309.410063 220.110025 310.076536 219.833963 310.567861 219.342639 
C 311.059186 218.851314 311.335248 218.184841 311.335248 217.490003 
C 311.335248 216.795165 311.059186 216.128692 310.567861 215.637367 
C 310.076536 215.146043 309.410063 214.869981 308.715225 214.869981 
C 308.020387 214.869981 307.353914 215.146043 306.86259 215.637367 
C 306.371265 216.128692 306.095203 216.795165 306.095203 217.490003 
C 306.095203 218.184841 306.371265 218.851314 306.86259 219.342639 
C 307.353914 219.833963 308.020387 220.110025 308.715225 220.110025 
z
" style="fill:#009900;fill-opacity:0.5;stroke:#009900;stroke-linejoin:miter;stroke-width:2;"/>
   </g>
   <g id="patch_91">
    <path clip-path="url(#p315c8ce2d9)" d="M 287.755046 201.769868 
C 289.144722 201.769868 290.477667 201.217744 291.460317 200.235095 
C 292.442966 199.252445 292.995091 197.919499 292.995091 196.529823 
C 292.995091 195.140147 292.442966 193.807201 291.460317 192.824552 
C 290.477667 191.841903 289.144722 191.289778 287.755046 191.289778 
C 286.365369 191.289778 285.032424 191.841903 284.049774 192.824552 
C 283.067125 193.807201 282.515001 195.140147 282.515001 196.529823 
C 282.515001 197.919499 283.067125 199.252445 284.049774 200.235095 
C 285.032424 201.217744 286.365369 201.769868 287.755046 201.769868 
z
" style="fill:#9558b2;fill-opacity:0.5;stroke:#9558b2;stroke-linejoin:miter;stroke-width:2;"/>
   </g>
   <g id="patch_92">
    <path clip-path="url(#p315c8ce2d9)" d="M 308.715225 199.149846 
C 309.410063 199.149846 310.076536 198.873784 310.567861 198.382459 
C 311.059186 197.891134 311.335248 197.224661 311.335248 196.529823 
C 311.335248 195.834985 311.059186 195.168512 310.567861 194.677188 
C 310.076536 194.185863 309.410063 193.909801 308.715225 193.909801 
C 308.020387 193.909801 307.353914 194.185863 306.86259 194.677188 
C 306.371265 195.168512 306.095203 195.834985 306.095203 196.529823 
C 306.095203 197.224661 306.371265 197.891134 306.86259 198.382459 
C 307.353914 198.873784 308.020387 199.149846 308.715225 199.149846 
z
" style="fill:#009900;fill-opacity:0.5;stroke:#009900;stroke-linejoin:miter;stroke-width:2;"/>
   </g>
   <g id="patch_93">
    <path clip-path="url(#p315c8ce2d9)" d="M 287.755046 180.809689 
C 289.144722 180.809689 290.477667 180.257564 291.460317 179.274915 
C 292.442966 178.292266 292.995091 176.95932 292.995091 175.569644 
C 292.995091 174.179968 292.442966 172.847022 291.460317 171.864372 
C 290.477667 170.881723 289.144722 170.329599 287.755046 170.329599 
C 286.365369 170.329599 285.032424 170.881723 284.049774 171.864372 
C 283.067125 172.847022 282.515001 174.179968 282.515001 175.569644 
C 282.515001 176.95932 283.067125 178.292266 284.049774 179.274915 
C 285.032424 180.257564 286.365369 180.809689 287.755046 180.809689 
z
" style="fill:#9558b2;fill-opacity:0.5;stroke:#9558b2;stroke-linejoin:miter;stroke-width:2;"/>
   </g>
   <g id="patch_94">
    <path clip-path="url(#p315c8ce2d9)" d="M 308.715225 178.189666 
C 309.410063 178.189666 310.076536 177.913604 310.567861 177.422279 
C 311.059186 176.930955 311.335248 176.264482 311.335248 175.569644 
C 311.335248 174.874806 311.059186 174.208333 310.567861 173.717008 
C 310.076536 173.225683 309.410063 172.949621 308.715225 172.949621 
C 308.020387 172.949621 307.353914 173.225683 306.86259 173.717008 
C 306.371265 174.208333 306.095203 174.874806 306.095203 175.569644 
C 306.095203 176.264482 306.371265 176.930955 306.86259 177.422279 
C 307.353914 177.913604 308.020387 178.189666 308.715225 178.189666 
z
" style="fill:#009900;fill-opacity:0.5;stroke:#009900;stroke-linejoin:miter;stroke-width:2;"/>
   </g>
   <g id="patch_95">
    <path clip-path="url(#p315c8ce2d9)" d="M 287.755046 159.849509 
C 289.144722 159.849509 290.477667 159.297385 291.460317 158.314735 
C 292.442966 157.332086 292.995091 155.99914 292.995091 154.609464 
C 292.995091 153.219788 292.442966 151.886842 291.460317 150.904193 
C 290.477667 149.921543 289.144722 149.369419 287.755046 149.369419 
C 286.365369 149.369419 285.032424 149.921543 284.049774 150.904193 
C 283.067125 151.886842 282.515001 153.219788 282.515001 154.609464 
C 282.515001 155.99914 283.067125 157.332086 284.049774 158.314735 
C 285.032424 159.297385 286.365369 159.849509 287.755046 159.849509 
z
" style="fill:#9558b2;fill-opacity:0.5;stroke:#9558b2;stroke-linejoin:miter;stroke-width:2;"/>
   </g>
   <g id="patch_96">
    <path clip-path="url(#p315c8ce2d9)" d="M 308.715225 157.229486 
C 309.410063 157.229486 310.076536 156.953424 310.567861 156.4621 
C 311.059186 155.970775 311.335248 155.304302 311.335248 154.609464 
C 311.335248 153.914626 311.059186 153.248153 310.567861 152.756828 
C 310.076536 152.265504 309.410063 151.989442 308.715225 151.989442 
C 308.020387 151.989442 307.353914 152.265504 306.86259 152.756828 
C 306.371265 153.248153 306.095203 153.914626 306.095203 154.609464 
C 306.095203 155.304302 306.371265 155.970775 306.86259 156.4621 
C 307.353914 156.953424 308.020387 157.229486 308.715225 157.229486 
z
" style="fill:#009900;fill-opacity:0.5;stroke:#009900;stroke-linejoin:miter;stroke-width:2;"/>
   </g>
   <g id="patch_97">
    <path clip-path="url(#p315c8ce2d9)" d="M 287.755046 138.889329 
C 289.144722 138.889329 290.477667 138.337205 291.460317 137.354556 
C 292.442966 136.371906 292.995091 135.038961 292.995091 133.649284 
C 292.995091 132.259608 292.442966 130.926663 291.460317 129.944013 
C 290.477667 128.961364 289.144722 128.409239 287.755046 128.409239 
C 286.365369 128.409239 285.032424 128.961364 284.049774 129.944013 
C 283.067125 130.926663 282.515001 132.259608 282.515001 133.649284 
C 282.515001 135.038961 283.067125 136.371906 284.049774 137.354556 
C 285.032424 138.337205 286.365369 138.889329 287.755046 138.889329 
z
" style="fill:#9558b2;fill-opacity:0.5;stroke:#9558b2;stroke-linejoin:miter;stroke-width:2;"/>
   </g>
   <g id="patch_98">
    <path clip-path="url(#p315c8ce2d9)" d="M 308.715225 136.269307 
C 309.410063 136.269307 310.076536 135.993245 310.567861 135.50192 
C 311.059186 135.010595 311.335248 134.344122 311.335248 133.649284 
C 311.335248 132.954446 311.059186 132.287973 310.567861 131.796649 
C 310.076536 131.305324 309.410063 131.029262 308.715225 131.029262 
C 308.020387 131.029262 307.353914 131.305324 306.86259 131.796649 
C 306.371265 132.287973 306.095203 132.954446 306.095203 133.649284 
C 306.095203 134.344122 306.371265 135.010595 306.86259 135.50192 
C 307.353914 135.993245 308.020387 136.269307 308.715225 136.269307 
z
" style="fill:#009900;fill-opacity:0.5;stroke:#009900;stroke-linejoin:miter;stroke-width:2;"/>
   </g>
   <g id="patch_99">
    <path clip-path="url(#p315c8ce2d9)" d="M 287.755046 117.92915 
C 289.144722 117.92915 290.477667 117.377025 291.460317 116.394376 
C 292.442966 115.411727 292.995091 114.078781 292.995091 112.689105 
C 292.995091 111.299429 292.442966 109.966483 291.460317 108.983833 
C 290.477667 108.001184 289.144722 107.44906 287.755046 107.44906 
C 286.365369 107.44906 285.032424 108.001184 284.049774 108.983833 
C 283.067125 109.966483 282.515001 111.299429 282.515001 112.689105 
C 282.515001 114.078781 283.067125 115.411727 284.049774 116.394376 
C 285.032424 117.377025 286.365369 117.92915 287.755046 117.92915 
z
" style="fill:#9558b2;fill-opacity:0.5;stroke:#9558b2;stroke-linejoin:miter;stroke-width:2;"/>
   </g>
   <g id="patch_100">
    <path clip-path="url(#p315c8ce2d9)" d="M 308.715225 115.309127 
C 309.410063 115.309127 310.076536 115.033065 310.567861 114.54174 
C 311.059186 114.050416 311.335248 113.383943 311.335248 112.689105 
C 311.335248 111.994267 311.059186 111.327794 310.567861 110.836469 
C 310.076536 110.345144 309.410063 110.069082 308.715225 110.069082 
C 308.020387 110.069082 307.353914 110.345144 306.86259 110.836469 
C 306.371265 111.327794 306.095203 111.994267 306.095203 112.689105 
C 306.095203 113.383943 306.371265 114.050416 306.86259 114.54174 
C 307.353914 115.033065 308.020387 115.309127 308.715225 115.309127 
z
" style="fill:#009900;fill-opacity:0.5;stroke:#009900;stroke-linejoin:miter;stroke-width:2;"/>
   </g>
   <g id="patch_101">
    <path clip-path="url(#p315c8ce2d9)" d="M 287.755046 96.96897 
C 289.144722 96.96897 290.477667 96.416846 291.460317 95.434196 
C 292.442966 94.451547 292.995091 93.118601 292.995091 91.728925 
C 292.995091 90.339249 292.442966 89.006303 291.460317 88.023654 
C 290.477667 87.041004 289.144722 86.48888 287.755046 86.48888 
C 286.365369 86.48888 285.032424 87.041004 284.049774 88.023654 
C 283.067125 89.006303 282.515001 90.339249 282.515001 91.728925 
C 282.515001 93.118601 283.067125 94.451547 284.049774 95.434196 
C 285.032424 96.416846 286.365369 96.96897 287.755046 96.96897 
z
" style="fill:#9558b2;fill-opacity:0.5;stroke:#9558b2;stroke-linejoin:miter;stroke-width:2;"/>
   </g>
   <g id="patch_102">
    <path clip-path="url(#p315c8ce2d9)" d="M 308.715225 94.348948 
C 309.410063 94.348948 310.076536 94.072885 310.567861 93.581561 
C 311.059186 93.090236 311.335248 92.423763 311.335248 91.728925 
C 311.335248 91.034087 311.059186 90.367614 310.567861 89.876289 
C 310.076536 89.384965 309.410063 89.108903 308.715225 89.108903 
C 308.020387 89.108903 307.353914 89.384965 306.86259 89.876289 
C 306.371265 90.367614 306.095203 91.034087 306.095203 91.728925 
C 306.095203 92.423763 306.371265 93.090236 306.86259 93.581561 
C 307.353914 94.072885 308.020387 94.348948 308.715225 94.348948 
z
" style="fill:#009900;fill-opacity:0.5;stroke:#009900;stroke-linejoin:miter;stroke-width:2;"/>
   </g>
   <g id="patch_103">
    <path clip-path="url(#p315c8ce2d9)" d="M 287.755046 76.00879 
C 289.144722 76.00879 290.477667 75.456666 291.460317 74.474017 
C 292.442966 73.491367 292.995091 72.158422 292.995091 70.768745 
C 292.995091 69.379069 292.442966 68.046124 291.460317 67.063474 
C 290.477667 66.080825 289.144722 65.528701 287.755046 65.528701 
C 286.365369 65.528701 285.032424 66.080825 284.049774 67.063474 
C 283.067125 68.046124 282.515001 69.379069 282.515001 70.768745 
C 282.515001 72.158422 283.067125 73.491367 284.049774 74.474017 
C 285.032424 75.456666 286.365369 76.00879 287.755046 76.00879 
z
" style="fill:#9558b2;fill-opacity:0.5;stroke:#9558b2;stroke-linejoin:miter;stroke-width:2;"/>
   </g>
   <g id="patch_104">
    <path clip-path="url(#p315c8ce2d9)" d="M 308.715225 73.388768 
C 309.410063 73.388768 310.076536 73.112706 310.567861 72.621381 
C 311.059186 72.130056 311.335248 71.463583 311.335248 70.768745 
C 311.335248 70.073907 311.059186 69.407434 310.567861 68.91611 
C 310.076536 68.424785 309.410063 68.148723 308.715225 68.148723 
C 308.020387 68.148723 307.353914 68.424785 306.86259 68.91611 
C 306.371265 69.407434 306.095203 70.073907 306.095203 70.768745 
C 306.095203 71.463583 306.371265 72.130056 306.86259 72.621381 
C 307.353914 73.112706 308.020387 73.388768 308.715225 73.388768 
z
" style="fill:#009900;fill-opacity:0.5;stroke:#009900;stroke-linejoin:miter;stroke-width:2;"/>
   </g>
   <g id="patch_105">
    <path clip-path="url(#p315c8ce2d9)" d="M 287.755046 55.048611 
C 289.144722 55.048611 290.477667 54.496486 291.460317 53.513837 
C 292.442966 52.531188 292.995091 51.198242 292.995091 49.808566 
C 292.995091 48.41889 292.442966 47.085944 291.460317 46.103294 
C 290.477667 45.120645 289.144722 44.568521 287.755046 44.568521 
C 286.365369 44.568521 285.032424 45.120645 284.049774 46.103294 
C 283.067125 47.085944 282.515001 48.41889 282.515001 49.808566 
C 282.515001 51.198242 283.067125 52.531188 284.049774 53.513837 
C 285.032424 54.496486 286.365369 55.048611 287.755046 55.048611 
z
" style="fill:#9558b2;fill-opacity:0.5;stroke:#9558b2;stroke-linejoin:miter;stroke-width:2;"/>
   </g>
   <g id="patch_106">
    <path clip-path="url(#p315c8ce2d9)" d="M 308.715225 52.428588 
C 309.410063 52.428588 310.076536 52.152526 310.567861 51.661201 
C 311.059186 51.169877 311.335248 50.503404 311.335248 49.808566 
C 311.335248 49.113728 311.059186 48.447255 310.567861 47.95593 
C 310.076536 47.464605 309.410063 47.188543 308.715225 47.188543 
C 308.020387 47.188543 307.353914 47.464605 306.86259 47.95593 
C 306.371265 48.447255 306.095203 49.113728 306.095203 49.808566 
C 306.095203 50.503404 306.371265 51.169877 306.86259 51.661201 
C 307.353914 52.152526 308.020387 52.428588 308.715225 52.428588 
z
" style="fill:#009900;fill-opacity:0.5;stroke:#009900;stroke-linejoin:miter;stroke-width:2;"/>
   </g>
   <g id="matplotlib.axis_1">
    <g id="xtick_1">
     <g id="line2d_1">
      <defs>
       <path d="M 0 0 
L 0 3.5 
" id="mb0fdfb3a1f" style="stroke:#000000;stroke-width:0.8;"/>
      </defs>
      <g>
       <use style="stroke:#000000;stroke-width:0.8;" x="193.434237" xlink:href="#mb0fdfb3a1f" y="307.584"/>
      </g>
     </g>
     <g id="text_1">
      <!-- 2 -->
      <defs>
       <path d="M 10.59375 35.5 
L 73.1875 35.5 
L 73.1875 27.203125 
L 10.59375 27.203125 
z
" id="DejaVuSans-2212"/>
       <path d="M 19.1875 8.296875 
L 53.609375 8.296875 
L 53.609375 0 
L 7.328125 0 
L 7.328125 8.296875 
Q 12.9375 14.109375 22.625 23.890625 
Q 32.328125 33.6875 34.8125 36.53125 
Q 39.546875 41.84375 41.421875 45.53125 
Q 43.3125 49.21875 43.3125 52.78125 
Q 43.3125 58.59375 39.234375 62.25 
Q 35.15625 65.921875 28.609375 65.921875 
Q 23.96875 65.921875 18.8125 64.3125 
Q 13.671875 62.703125 7.8125 59.421875 
L 7.8125 69.390625 
Q 13.765625 71.78125 18.9375 73 
Q 24.125 74.21875 28.421875 74.21875 
Q 39.75 74.21875 46.484375 68.546875 
Q 53.21875 62.890625 53.21875 53.421875 
Q 53.21875 48.921875 51.53125 44.890625 
Q 49.859375 40.875 45.40625 35.40625 
Q 44.1875 33.984375 37.640625 27.21875 
Q 31.109375 20.453125 19.1875 8.296875 
z
" id="DejaVuSans-32"/>
      </defs>
      <g transform="translate(186.063143 322.182437)scale(0.1 -0.1)">
       <use xlink:href="#DejaVuSans-2212"/>
       <use x="83.789062" xlink:href="#DejaVuSans-32"/>
      </g>
     </g>
    </g>
    <g id="xtick_2">
     <g id="line2d_2">
      <g>
       <use style="stroke:#000000;stroke-width:0.8;" x="235.354596" xlink:href="#mb0fdfb3a1f" y="307.584"/>
      </g>
     </g>
     <g id="text_2">
      <!-- 0 -->
      <defs>
       <path d="M 31.78125 66.40625 
Q 24.171875 66.40625 20.328125 58.90625 
Q 16.5 51.421875 16.5 36.375 
Q 16.5 21.390625 20.328125 13.890625 
Q 24.171875 6.390625 31.78125 6.390625 
Q 39.453125 6.390625 43.28125 13.890625 
Q 47.125 21.390625 47.125 36.375 
Q 47.125 51.421875 43.28125 58.90625 
Q 39.453125 66.40625 31.78125 66.40625 
z
M 31.78125 74.21875 
Q 44.046875 74.21875 50.515625 64.515625 
Q 56.984375 54.828125 56.984375 36.375 
Q 56.984375 17.96875 50.515625 8.265625 
Q 44.046875 -1.421875 31.78125 -1.421875 
Q 19.53125 -1.421875 13.0625 8.265625 
Q 6.59375 17.96875 6.59375 36.375 
Q 6.59375 54.828125 13.0625 64.515625 
Q 19.53125 74.21875 31.78125 74.21875 
z
" id="DejaVuSans-30"/>
      </defs>
      <g transform="translate(232.173346 322.182437)scale(0.1 -0.1)">
       <use xlink:href="#DejaVuSans-30"/>
      </g>
     </g>
    </g>
    <g id="xtick_3">
     <g id="line2d_3">
      <g>
       <use style="stroke:#000000;stroke-width:0.8;" x="277.274956" xlink:href="#mb0fdfb3a1f" y="307.584"/>
      </g>
     </g>
     <g id="text_3">
      <!-- 2 -->
      <g transform="translate(274.093706 322.182437)scale(0.1 -0.1)">
       <use xlink:href="#DejaVuSans-32"/>
      </g>
     </g>
    </g>
   </g>
   <g id="matplotlib.axis_2">
    <g id="ytick_1">
     <g id="line2d_4">
      <defs>
       <path d="M 0 0 
L -3.5 0 
" id="m85be7a0808" style="stroke:#000000;stroke-width:0.8;"/>
      </defs>
      <g>
       <use style="stroke:#000000;stroke-width:0.8;" x="164.5492" xlink:href="#m85be7a0808" y="269.890452"/>
      </g>
     </g>
     <g id="text_4">
      <!-- 2 -->
      <g transform="translate(151.1867 273.689671)scale(0.1 -0.1)">
       <use xlink:href="#DejaVuSans-32"/>
      </g>
     </g>
    </g>
    <g id="ytick_2">
     <g id="line2d_5">
      <g>
       <use style="stroke:#000000;stroke-width:0.8;" x="164.5492" xlink:href="#m85be7a0808" y="227.970093"/>
      </g>
     </g>
     <g id="text_5">
      <!-- 4 -->
      <defs>
       <path d="M 37.796875 64.3125 
L 12.890625 25.390625 
L 37.796875 25.390625 
z
M 35.203125 72.90625 
L 47.609375 72.90625 
L 47.609375 25.390625 
L 58.015625 25.390625 
L 58.015625 17.1875 
L 47.609375 17.1875 
L 47.609375 0 
L 37.796875 0 
L 37.796875 17.1875 
L 4.890625 17.1875 
L 4.890625 26.703125 
z
" id="DejaVuSans-34"/>
      </defs>
      <g transform="translate(151.1867 231.769312)scale(0.1 -0.1)">
       <use xlink:href="#DejaVuSans-34"/>
      </g>
     </g>
    </g>
    <g id="ytick_3">
     <g id="line2d_6">
      <g>
       <use style="stroke:#000000;stroke-width:0.8;" x="164.5492" xlink:href="#m85be7a0808" y="186.049733"/>
      </g>
     </g>
     <g id="text_6">
      <!-- 6 -->
      <defs>
       <path d="M 33.015625 40.375 
Q 26.375 40.375 22.484375 35.828125 
Q 18.609375 31.296875 18.609375 23.390625 
Q 18.609375 15.53125 22.484375 10.953125 
Q 26.375 6.390625 33.015625 6.390625 
Q 39.65625 6.390625 43.53125 10.953125 
Q 47.40625 15.53125 47.40625 23.390625 
Q 47.40625 31.296875 43.53125 35.828125 
Q 39.65625 40.375 33.015625 40.375 
z
M 52.59375 71.296875 
L 52.59375 62.3125 
Q 48.875 64.0625 45.09375 64.984375 
Q 41.3125 65.921875 37.59375 65.921875 
Q 27.828125 65.921875 22.671875 59.328125 
Q 17.53125 52.734375 16.796875 39.40625 
Q 19.671875 43.65625 24.015625 45.921875 
Q 28.375 48.1875 33.59375 48.1875 
Q 44.578125 48.1875 50.953125 41.515625 
Q 57.328125 34.859375 57.328125 23.390625 
Q 57.328125 12.15625 50.6875 5.359375 
Q 44.046875 -1.421875 33.015625 -1.421875 
Q 20.359375 -1.421875 13.671875 8.265625 
Q 6.984375 17.96875 6.984375 36.375 
Q 6.984375 53.65625 15.1875 63.9375 
Q 23.390625 74.21875 37.203125 74.21875 
Q 40.921875 74.21875 44.703125 73.484375 
Q 48.484375 72.75 52.59375 71.296875 
z
" id="DejaVuSans-36"/>
      </defs>
      <g transform="translate(151.1867 189.848952)scale(0.1 -0.1)">
       <use xlink:href="#DejaVuSans-36"/>
      </g>
     </g>
    </g>
    <g id="ytick_4">
     <g id="line2d_7">
      <g>
       <use style="stroke:#000000;stroke-width:0.8;" x="164.5492" xlink:href="#m85be7a0808" y="144.129374"/>
      </g>
     </g>
     <g id="text_7">
      <!-- 8 -->
      <defs>
       <path d="M 31.78125 34.625 
Q 24.75 34.625 20.71875 30.859375 
Q 16.703125 27.09375 16.703125 20.515625 
Q 16.703125 13.921875 20.71875 10.15625 
Q 24.75 6.390625 31.78125 6.390625 
Q 38.8125 6.390625 42.859375 10.171875 
Q 46.921875 13.96875 46.921875 20.515625 
Q 46.921875 27.09375 42.890625 30.859375 
Q 38.875 34.625 31.78125 34.625 
z
M 21.921875 38.8125 
Q 15.578125 40.375 12.03125 44.71875 
Q 8.5 49.078125 8.5 55.328125 
Q 8.5 64.0625 14.71875 69.140625 
Q 20.953125 74.21875 31.78125 74.21875 
Q 42.671875 74.21875 48.875 69.140625 
Q 55.078125 64.0625 55.078125 55.328125 
Q 55.078125 49.078125 51.53125 44.71875 
Q 48 40.375 41.703125 38.8125 
Q 48.828125 37.15625 52.796875 32.3125 
Q 56.78125 27.484375 56.78125 20.515625 
Q 56.78125 9.90625 50.3125 4.234375 
Q 43.84375 -1.421875 31.78125 -1.421875 
Q 19.734375 -1.421875 13.25 4.234375 
Q 6.78125 9.90625 6.78125 20.515625 
Q 6.78125 27.484375 10.78125 32.3125 
Q 14.796875 37.15625 21.921875 38.8125 
z
M 18.3125 54.390625 
Q 18.3125 48.734375 21.84375 45.5625 
Q 25.390625 42.390625 31.78125 42.390625 
Q 38.140625 42.390625 41.71875 45.5625 
Q 45.3125 48.734375 45.3125 54.390625 
Q 45.3125 60.0625 41.71875 63.234375 
Q 38.140625 66.40625 31.78125 66.40625 
Q 25.390625 66.40625 21.84375 63.234375 
Q 18.3125 60.0625 18.3125 54.390625 
z
" id="DejaVuSans-38"/>
      </defs>
      <g transform="translate(151.1867 147.928593)scale(0.1 -0.1)">
       <use xlink:href="#DejaVuSans-38"/>
      </g>
     </g>
    </g>
    <g id="ytick_5">
     <g id="line2d_8">
      <g>
       <use style="stroke:#000000;stroke-width:0.8;" x="164.5492" xlink:href="#m85be7a0808" y="102.209015"/>
      </g>
     </g>
     <g id="text_8">
      <!-- 10 -->
      <defs>
       <path d="M 12.40625 8.296875 
L 28.515625 8.296875 
L 28.515625 63.921875 
L 10.984375 60.40625 
L 10.984375 69.390625 
L 28.421875 72.90625 
L 38.28125 72.90625 
L 38.28125 8.296875 
L 54.390625 8.296875 
L 54.390625 0 
L 12.40625 0 
z
" id="DejaVuSans-31"/>
      </defs>
      <g transform="translate(144.8242 106.008234)scale(0.1 -0.1)">
       <use xlink:href="#DejaVuSans-31"/>
       <use x="63.623047" xlink:href="#DejaVuSans-30"/>
      </g>
     </g>
    </g>
    <g id="ytick_6">
     <g id="line2d_9">
      <g>
       <use style="stroke:#000000;stroke-width:0.8;" x="164.5492" xlink:href="#m85be7a0808" y="60.288656"/>
      </g>
     </g>
     <g id="text_9">
      <!-- 12 -->
      <g transform="translate(144.8242 64.087874)scale(0.1 -0.1)">
       <use xlink:href="#DejaVuSans-31"/>
       <use x="63.623047" xlink:href="#DejaVuSans-32"/>
      </g>
     </g>
    </g>
   </g>
   <g id="line2d_10">
    <path clip-path="url(#p315c8ce2d9)" d="M 242.52532 297.10391 
L 227.412397 239.101051 
L 243.43045 222.145937 
L 264.463908 237.253875 
L 209.045471 218.552752 
L 222.7443 215.964638 
L 208.438345 115.333217 
L 224.163558 214.968283 
L 208.706455 177.689449 
L 242.199994 116.463636 
L 286.81062 170.415409 
L 268.219767 114.88778 
L 284.314376 129.697087 
L 283.036354 114.967705 
L 249.966355 88.505979 
L 226.3811 51.95209 
L 240.598559 70.566147 
L 224.369261 52.379411 
L 185.50938 71.3478 
L 199.476889 88.941952 
L 200.277267 74.540995 
" style="fill:none;stroke:#1f77b4;stroke-linecap:square;stroke-width:1.5;"/>
   </g>
   <g id="patch_107">
    <path d="M 164.5492 307.584 
L 164.5492 41.472 
" style="fill:none;stroke:#000000;stroke-linecap:square;stroke-linejoin:miter;stroke-width:0.8;"/>
   </g>
   <g id="patch_108">
    <path d="M 307.7708 307.584 
L 307.7708 41.472 
" style="fill:none;stroke:#000000;stroke-linecap:square;stroke-linejoin:miter;stroke-width:0.8;"/>
   </g>
   <g id="patch_109">
    <path d="M 164.5492 307.584 
L 307.7708 307.584 
" style="fill:none;stroke:#000000;stroke-linecap:square;stroke-linejoin:miter;stroke-width:0.8;"/>
   </g>
   <g id="patch_110">
    <path d="M 164.5492 41.472 
L 307.7708 41.472 
" style="fill:none;stroke:#000000;stroke-linecap:square;stroke-linejoin:miter;stroke-width:0.8;"/>
   </g>
  </g>
 </g>
 <defs>
  <clipPath id="p315c8ce2d9">
   <rect height="266.112" width="143.221599" x="164.5492" y="41.472"/>
  </clipPath>
 </defs>
</svg>
