<?xml version="1.0" encoding="utf-8" standalone="no"?>
<!DOCTYPE svg PUBLIC "-//W3C//DTD SVG 1.1//EN"
  "http://www.w3.org/Graphics/SVG/1.1/DTD/svg11.dtd">
<!-- Created with matplotlib (http://matplotlib.org/) -->
<svg height="345.6pt" version="1.1" viewBox="0 0 460.8 345.6" width="460.8pt" xmlns="http://www.w3.org/2000/svg" xmlns:xlink="http://www.w3.org/1999/xlink">
 <defs>
  <style type="text/css">
*{stroke-linecap:butt;stroke-linejoin:round;}
  </style>
 </defs>
 <g id="figure_1">
  <g id="patch_1">
   <path d="M 0 345.6 
L 460.8 345.6 
L 460.8 0 
L 0 0 
z
" style="fill:#ffffff;"/>
  </g>
  <g id="axes_1">
   <g id="patch_2">
    <path d="M 57.6 250.723722 
L 414.72 250.723722 
L 414.72 98.332278 
L 57.6 98.332278 
z
" style="fill:#ffffff;"/>
   </g>
   <g id="PathCollection_1">
    <defs>
     <path d="M 0 3 
C 0.795609 3 1.55874 2.683901 2.12132 2.12132 
C 2.683901 1.55874 3 0.795609 3 0 
C 3 -0.795609 2.683901 -1.55874 2.12132 -2.12132 
C 1.55874 -2.683901 0.795609 -3 0 -3 
C -0.795609 -3 -1.55874 -2.683901 -2.12132 -2.12132 
C -2.683901 -1.55874 -3 -0.795609 -3 0 
C -3 0.795609 -2.683901 1.55874 -2.12132 2.12132 
C -1.55874 2.683901 -0.795609 3 0 3 
z
" id="m95538c9513" style="stroke:#000000;"/>
    </defs>
    <g clip-path="url(#p9beb9a8c31)">
     <use style="stroke:#000000;" x="272.232567" xlink:href="#m95538c9513" y="160.954554"/>
    </g>
   </g>
   <g id="patch_3">
    <path clip-path="url(#p9beb9a8c31)" d="M 80.870216 274.268924 
C 82.663433 274.268924 84.383446 273.556472 85.651442 272.288476 
C 86.919438 271.02048 87.631891 269.300467 87.631891 267.50725 
C 87.631891 265.714033 86.919438 263.99402 85.651442 262.726024 
C 84.383446 261.458028 82.663433 260.745575 80.870216 260.745575 
C 79.076999 260.745575 77.356986 261.458028 76.08899 262.726024 
C 74.820994 263.99402 74.108542 265.714033 74.108542 267.50725 
C 74.108542 269.300467 74.820994 271.02048 76.08899 272.288476 
C 77.356986 273.556472 79.076999 274.268924 80.870216 274.268924 
z
" style="fill:#009900;fill-opacity:0.5;stroke:#009900;stroke-linejoin:miter;stroke-width:2;"/>
   </g>
   <g id="patch_4">
    <path clip-path="url(#p9beb9a8c31)" d="M 131.582777 244.990014 
C 133.375994 244.990014 135.096007 244.277561 136.364003 243.009565 
C 137.631999 241.741569 138.344452 240.021556 138.344452 238.228339 
C 138.344452 236.435122 137.631999 234.715109 136.364003 233.447113 
C 135.096007 232.179117 133.375994 231.466664 131.582777 231.466664 
C 129.78956 231.466664 128.069547 232.179117 126.801551 233.447113 
C 125.533555 234.715109 124.821102 236.435122 124.821102 238.228339 
C 124.821102 240.021556 125.533555 241.741569 126.801551 243.009565 
C 128.069547 244.277561 129.78956 244.990014 131.582777 244.990014 
z
" style="fill:#009900;fill-opacity:0.5;stroke:#009900;stroke-linejoin:miter;stroke-width:2;"/>
   </g>
   <g id="patch_5">
    <path clip-path="url(#p9beb9a8c31)" d="M 182.295338 274.268924 
C 184.088555 274.268924 185.808568 273.556472 187.076564 272.288476 
C 188.34456 271.02048 189.057013 269.300467 189.057013 267.50725 
C 189.057013 265.714033 188.34456 263.99402 187.076564 262.726024 
C 185.808568 261.458028 184.088555 260.745575 182.295338 260.745575 
C 180.502121 260.745575 178.782108 261.458028 177.514112 262.726024 
C 176.246116 263.99402 175.533663 265.714033 175.533663 267.50725 
C 175.533663 269.300467 176.246116 271.02048 177.514112 272.288476 
C 178.782108 273.556472 180.502121 274.268924 182.295338 274.268924 
z
" style="fill:#009900;fill-opacity:0.5;stroke:#009900;stroke-linejoin:miter;stroke-width:2;"/>
   </g>
   <g id="patch_6">
    <path clip-path="url(#p9beb9a8c31)" d="M 233.007899 244.990014 
C 234.801116 244.990014 236.521129 244.277561 237.789125 243.009565 
C 239.057121 241.741569 239.769573 240.021556 239.769573 238.228339 
C 239.769573 236.435122 239.057121 234.715109 237.789125 233.447113 
C 236.521129 232.179117 234.801116 231.466664 233.007899 231.466664 
C 231.214681 231.466664 229.494668 232.179117 228.226672 233.447113 
C 226.958676 234.715109 226.246224 236.435122 226.246224 238.228339 
C 226.246224 240.021556 226.958676 241.741569 228.226672 243.009565 
C 229.494668 244.277561 231.214681 244.990014 233.007899 244.990014 
z
" style="fill:#009900;fill-opacity:0.5;stroke:#009900;stroke-linejoin:miter;stroke-width:2;"/>
   </g>
   <g id="patch_7">
    <path clip-path="url(#p9beb9a8c31)" d="M 283.720459 274.268924 
C 285.513676 274.268924 287.233689 273.556472 288.501685 272.288476 
C 289.769681 271.02048 290.482134 269.300467 290.482134 267.50725 
C 290.482134 265.714033 289.769681 263.99402 288.501685 262.726024 
C 287.233689 261.458028 285.513676 260.745575 283.720459 260.745575 
C 281.927242 260.745575 280.207229 261.458028 278.939233 262.726024 
C 277.671237 263.99402 276.958785 265.714033 276.958785 267.50725 
C 276.958785 269.300467 277.671237 271.02048 278.939233 272.288476 
C 280.207229 273.556472 281.927242 274.268924 283.720459 274.268924 
z
" style="fill:#009900;fill-opacity:0.5;stroke:#009900;stroke-linejoin:miter;stroke-width:2;"/>
   </g>
   <g id="patch_8">
    <path clip-path="url(#p9beb9a8c31)" d="M 334.43302 244.990014 
C 336.226237 244.990014 337.94625 244.277561 339.214246 243.009565 
C 340.482242 241.741569 341.194695 240.021556 341.194695 238.228339 
C 341.194695 236.435122 340.482242 234.715109 339.214246 233.447113 
C 337.94625 232.179117 336.226237 231.466664 334.43302 231.466664 
C 332.639803 231.466664 330.91979 232.179117 329.651794 233.447113 
C 328.383798 234.715109 327.671345 236.435122 327.671345 238.228339 
C 327.671345 240.021556 328.383798 241.741569 329.651794 243.009565 
C 330.91979 244.277561 332.639803 244.990014 334.43302 244.990014 
z
" style="fill:#009900;fill-opacity:0.5;stroke:#009900;stroke-linejoin:miter;stroke-width:2;"/>
   </g>
   <g id="patch_9">
    <path clip-path="url(#p9beb9a8c31)" d="M 385.145581 274.268924 
C 386.938798 274.268924 388.658811 273.556472 389.926807 272.288476 
C 391.194803 271.02048 391.907256 269.300467 391.907256 267.50725 
C 391.907256 265.714033 391.194803 263.99402 389.926807 262.726024 
C 388.658811 261.458028 386.938798 260.745575 385.145581 260.745575 
C 383.352364 260.745575 381.632351 261.458028 380.364355 262.726024 
C 379.096359 263.99402 378.383906 265.714033 378.383906 267.50725 
C 378.383906 269.300467 379.096359 271.02048 380.364355 272.288476 
C 381.632351 273.556472 383.352364 274.268924 385.145581 274.268924 
z
" style="fill:#009900;fill-opacity:0.5;stroke:#009900;stroke-linejoin:miter;stroke-width:2;"/>
   </g>
   <g id="patch_10">
    <path clip-path="url(#p9beb9a8c31)" d="M 435.858142 244.990014 
C 437.651359 244.990014 439.371372 244.277561 440.639368 243.009565 
C 441.907364 241.741569 442.619816 240.021556 442.619816 238.228339 
C 442.619816 236.435122 441.907364 234.715109 440.639368 233.447113 
C 439.371372 232.179117 437.651359 231.466664 435.858142 231.466664 
C 434.064924 231.466664 432.344911 232.179117 431.076915 233.447113 
C 429.808919 234.715109 429.096467 236.435122 429.096467 238.228339 
C 429.096467 240.021556 429.808919 241.741569 431.076915 243.009565 
C 432.344911 244.277561 434.064924 244.990014 435.858142 244.990014 
z
" style="fill:#009900;fill-opacity:0.5;stroke:#009900;stroke-linejoin:miter;stroke-width:2;"/>
   </g>
   <g id="patch_11">
    <path clip-path="url(#p9beb9a8c31)" d="M 80.870216 215.711103 
C 82.663433 215.711103 84.383446 214.998651 85.651442 213.730655 
C 86.919438 212.462659 87.631891 210.742646 87.631891 208.949428 
C 87.631891 207.156211 86.919438 205.436198 85.651442 204.168202 
C 84.383446 202.900206 82.663433 202.187754 80.870216 202.187754 
C 79.076999 202.187754 77.356986 202.900206 76.08899 204.168202 
C 74.820994 205.436198 74.108542 207.156211 74.108542 208.949428 
C 74.108542 210.742646 74.820994 212.462659 76.08899 213.730655 
C 77.356986 214.998651 79.076999 215.711103 80.870216 215.711103 
z
" style="fill:#009900;fill-opacity:0.5;stroke:#009900;stroke-linejoin:miter;stroke-width:2;"/>
   </g>
   <g id="patch_12">
    <path clip-path="url(#p9beb9a8c31)" d="M 131.582777 186.432193 
C 133.375994 186.432193 135.096007 185.71974 136.364003 184.451744 
C 137.631999 183.183748 138.344452 181.463735 138.344452 179.670518 
C 138.344452 177.877301 137.631999 176.157288 136.364003 174.889292 
C 135.096007 173.621296 133.375994 172.908843 131.582777 172.908843 
C 129.78956 172.908843 128.069547 173.621296 126.801551 174.889292 
C 125.533555 176.157288 124.821102 177.877301 124.821102 179.670518 
C 124.821102 181.463735 125.533555 183.183748 126.801551 184.451744 
C 128.069547 185.71974 129.78956 186.432193 131.582777 186.432193 
z
" style="fill:#009900;fill-opacity:0.5;stroke:#009900;stroke-linejoin:miter;stroke-width:2;"/>
   </g>
   <g id="patch_13">
    <path clip-path="url(#p9beb9a8c31)" d="M 182.295338 215.711103 
C 184.088555 215.711103 185.808568 214.998651 187.076564 213.730655 
C 188.34456 212.462659 189.057013 210.742646 189.057013 208.949428 
C 189.057013 207.156211 188.34456 205.436198 187.076564 204.168202 
C 185.808568 202.900206 184.088555 202.187754 182.295338 202.187754 
C 180.502121 202.187754 178.782108 202.900206 177.514112 204.168202 
C 176.246116 205.436198 175.533663 207.156211 175.533663 208.949428 
C 175.533663 210.742646 176.246116 212.462659 177.514112 213.730655 
C 178.782108 214.998651 180.502121 215.711103 182.295338 215.711103 
z
" style="fill:#009900;fill-opacity:0.5;stroke:#009900;stroke-linejoin:miter;stroke-width:2;"/>
   </g>
   <g id="patch_14">
    <path clip-path="url(#p9beb9a8c31)" d="M 233.007899 186.432193 
C 234.801116 186.432193 236.521129 185.71974 237.789125 184.451744 
C 239.057121 183.183748 239.769573 181.463735 239.769573 179.670518 
C 239.769573 177.877301 239.057121 176.157288 237.789125 174.889292 
C 236.521129 173.621296 234.801116 172.908843 233.007899 172.908843 
C 231.214681 172.908843 229.494668 173.621296 228.226672 174.889292 
C 226.958676 176.157288 226.246224 177.877301 226.246224 179.670518 
C 226.246224 181.463735 226.958676 183.183748 228.226672 184.451744 
C 229.494668 185.71974 231.214681 186.432193 233.007899 186.432193 
z
" style="fill:#009900;fill-opacity:0.5;stroke:#009900;stroke-linejoin:miter;stroke-width:2;"/>
   </g>
   <g id="patch_15">
    <path clip-path="url(#p9beb9a8c31)" d="M 283.720459 215.711103 
C 285.513676 215.711103 287.233689 214.998651 288.501685 213.730655 
C 289.769681 212.462659 290.482134 210.742646 290.482134 208.949428 
C 290.482134 207.156211 289.769681 205.436198 288.501685 204.168202 
C 287.233689 202.900206 285.513676 202.187754 283.720459 202.187754 
C 281.927242 202.187754 280.207229 202.900206 278.939233 204.168202 
C 277.671237 205.436198 276.958785 207.156211 276.958785 208.949428 
C 276.958785 210.742646 277.671237 212.462659 278.939233 213.730655 
C 280.207229 214.998651 281.927242 215.711103 283.720459 215.711103 
z
" style="fill:#009900;fill-opacity:0.5;stroke:#009900;stroke-linejoin:miter;stroke-width:2;"/>
   </g>
   <g id="patch_16">
    <path clip-path="url(#p9beb9a8c31)" d="M 334.43302 186.432193 
C 336.226237 186.432193 337.94625 185.71974 339.214246 184.451744 
C 340.482242 183.183748 341.194695 181.463735 341.194695 179.670518 
C 341.194695 177.877301 340.482242 176.157288 339.214246 174.889292 
C 337.94625 173.621296 336.226237 172.908843 334.43302 172.908843 
C 332.639803 172.908843 330.91979 173.621296 329.651794 174.889292 
C 328.383798 176.157288 327.671345 177.877301 327.671345 179.670518 
C 327.671345 181.463735 328.383798 183.183748 329.651794 184.451744 
C 330.91979 185.71974 332.639803 186.432193 334.43302 186.432193 
z
" style="fill:#009900;fill-opacity:0.5;stroke:#009900;stroke-linejoin:miter;stroke-width:2;"/>
   </g>
   <g id="patch_17">
    <path clip-path="url(#p9beb9a8c31)" d="M 385.145581 215.711103 
C 386.938798 215.711103 388.658811 214.998651 389.926807 213.730655 
C 391.194803 212.462659 391.907256 210.742646 391.907256 208.949428 
C 391.907256 207.156211 391.194803 205.436198 389.926807 204.168202 
C 388.658811 202.900206 386.938798 202.187754 385.145581 202.187754 
C 383.352364 202.187754 381.632351 202.900206 380.364355 204.168202 
C 379.096359 205.436198 378.383906 207.156211 378.383906 208.949428 
C 378.383906 210.742646 379.096359 212.462659 380.364355 213.730655 
C 381.632351 214.998651 383.352364 215.711103 385.145581 215.711103 
z
" style="fill:#009900;fill-opacity:0.5;stroke:#009900;stroke-linejoin:miter;stroke-width:2;"/>
   </g>
   <g id="patch_18">
    <path clip-path="url(#p9beb9a8c31)" d="M 435.858142 186.432193 
C 437.651359 186.432193 439.371372 185.71974 440.639368 184.451744 
C 441.907364 183.183748 442.619816 181.463735 442.619816 179.670518 
C 442.619816 177.877301 441.907364 176.157288 440.639368 174.889292 
C 439.371372 173.621296 437.651359 172.908843 435.858142 172.908843 
C 434.064924 172.908843 432.344911 173.621296 431.076915 174.889292 
C 429.808919 176.157288 429.096467 177.877301 429.096467 179.670518 
C 429.096467 181.463735 429.808919 183.183748 431.076915 184.451744 
C 432.344911 185.71974 434.064924 186.432193 435.858142 186.432193 
z
" style="fill:#009900;fill-opacity:0.5;stroke:#009900;stroke-linejoin:miter;stroke-width:2;"/>
   </g>
   <g id="patch_19">
    <path clip-path="url(#p9beb9a8c31)" d="M 80.870216 157.153282 
C 82.663433 157.153282 84.383446 156.440829 85.651442 155.172833 
C 86.919438 153.904837 87.631891 152.184824 87.631891 150.391607 
C 87.631891 148.59839 86.919438 146.878377 85.651442 145.610381 
C 84.383446 144.342385 82.663433 143.629933 80.870216 143.629933 
C 79.076999 143.629933 77.356986 144.342385 76.08899 145.610381 
C 74.820994 146.878377 74.108542 148.59839 74.108542 150.391607 
C 74.108542 152.184824 74.820994 153.904837 76.08899 155.172833 
C 77.356986 156.440829 79.076999 157.153282 80.870216 157.153282 
z
" style="fill:#009900;fill-opacity:0.5;stroke:#009900;stroke-linejoin:miter;stroke-width:2;"/>
   </g>
   <g id="patch_20">
    <path clip-path="url(#p9beb9a8c31)" d="M 131.582777 127.874371 
C 133.375994 127.874371 135.096007 127.161919 136.364003 125.893923 
C 137.631999 124.625927 138.344452 122.905914 138.344452 121.112697 
C 138.344452 119.31948 137.631999 117.599467 136.364003 116.331471 
C 135.096007 115.063475 133.375994 114.351022 131.582777 114.351022 
C 129.78956 114.351022 128.069547 115.063475 126.801551 116.331471 
C 125.533555 117.599467 124.821102 119.31948 124.821102 121.112697 
C 124.821102 122.905914 125.533555 124.625927 126.801551 125.893923 
C 128.069547 127.161919 129.78956 127.874371 131.582777 127.874371 
z
" style="fill:#009900;fill-opacity:0.5;stroke:#009900;stroke-linejoin:miter;stroke-width:2;"/>
   </g>
   <g id="patch_21">
    <path clip-path="url(#p9beb9a8c31)" d="M 182.295338 157.153282 
C 184.088555 157.153282 185.808568 156.440829 187.076564 155.172833 
C 188.34456 153.904837 189.057013 152.184824 189.057013 150.391607 
C 189.057013 148.59839 188.34456 146.878377 187.076564 145.610381 
C 185.808568 144.342385 184.088555 143.629933 182.295338 143.629933 
C 180.502121 143.629933 178.782108 144.342385 177.514112 145.610381 
C 176.246116 146.878377 175.533663 148.59839 175.533663 150.391607 
C 175.533663 152.184824 176.246116 153.904837 177.514112 155.172833 
C 178.782108 156.440829 180.502121 157.153282 182.295338 157.153282 
z
" style="fill:#009900;fill-opacity:0.5;stroke:#009900;stroke-linejoin:miter;stroke-width:2;"/>
   </g>
   <g id="patch_22">
    <path clip-path="url(#p9beb9a8c31)" d="M 233.007899 127.874371 
C 234.801116 127.874371 236.521129 127.161919 237.789125 125.893923 
C 239.057121 124.625927 239.769573 122.905914 239.769573 121.112697 
C 239.769573 119.31948 239.057121 117.599467 237.789125 116.331471 
C 236.521129 115.063475 234.801116 114.351022 233.007899 114.351022 
C 231.214681 114.351022 229.494668 115.063475 228.226672 116.331471 
C 226.958676 117.599467 226.246224 119.31948 226.246224 121.112697 
C 226.246224 122.905914 226.958676 124.625927 228.226672 125.893923 
C 229.494668 127.161919 231.214681 127.874371 233.007899 127.874371 
z
" style="fill:#009900;fill-opacity:0.5;stroke:#009900;stroke-linejoin:miter;stroke-width:2;"/>
   </g>
   <g id="patch_23">
    <path clip-path="url(#p9beb9a8c31)" d="M 283.720459 157.153282 
C 285.513676 157.153282 287.233689 156.440829 288.501685 155.172833 
C 289.769681 153.904837 290.482134 152.184824 290.482134 150.391607 
C 290.482134 148.59839 289.769681 146.878377 288.501685 145.610381 
C 287.233689 144.342385 285.513676 143.629933 283.720459 143.629933 
C 281.927242 143.629933 280.207229 144.342385 278.939233 145.610381 
C 277.671237 146.878377 276.958785 148.59839 276.958785 150.391607 
C 276.958785 152.184824 277.671237 153.904837 278.939233 155.172833 
C 280.207229 156.440829 281.927242 157.153282 283.720459 157.153282 
z
" style="fill:#009900;fill-opacity:0.5;stroke:#009900;stroke-linejoin:miter;stroke-width:2;"/>
   </g>
   <g id="patch_24">
    <path clip-path="url(#p9beb9a8c31)" d="M 334.43302 127.874371 
C 336.226237 127.874371 337.94625 127.161919 339.214246 125.893923 
C 340.482242 124.625927 341.194695 122.905914 341.194695 121.112697 
C 341.194695 119.31948 340.482242 117.599467 339.214246 116.331471 
C 337.94625 115.063475 336.226237 114.351022 334.43302 114.351022 
C 332.639803 114.351022 330.91979 115.063475 329.651794 116.331471 
C 328.383798 117.599467 327.671345 119.31948 327.671345 121.112697 
C 327.671345 122.905914 328.383798 124.625927 329.651794 125.893923 
C 330.91979 127.161919 332.639803 127.874371 334.43302 127.874371 
z
" style="fill:#009900;fill-opacity:0.5;stroke:#009900;stroke-linejoin:miter;stroke-width:2;"/>
   </g>
   <g id="patch_25">
    <path clip-path="url(#p9beb9a8c31)" d="M 385.145581 157.153282 
C 386.938798 157.153282 388.658811 156.440829 389.926807 155.172833 
C 391.194803 153.904837 391.907256 152.184824 391.907256 150.391607 
C 391.907256 148.59839 391.194803 146.878377 389.926807 145.610381 
C 388.658811 144.342385 386.938798 143.629933 385.145581 143.629933 
C 383.352364 143.629933 381.632351 144.342385 380.364355 145.610381 
C 379.096359 146.878377 378.383906 148.59839 378.383906 150.391607 
C 378.383906 152.184824 379.096359 153.904837 380.364355 155.172833 
C 381.632351 156.440829 383.352364 157.153282 385.145581 157.153282 
z
" style="fill:#009900;fill-opacity:0.5;stroke:#009900;stroke-linejoin:miter;stroke-width:2;"/>
   </g>
   <g id="patch_26">
    <path clip-path="url(#p9beb9a8c31)" d="M 435.858142 127.874371 
C 437.651359 127.874371 439.371372 127.161919 440.639368 125.893923 
C 441.907364 124.625927 442.619816 122.905914 442.619816 121.112697 
C 442.619816 119.31948 441.907364 117.599467 440.639368 116.331471 
C 439.371372 115.063475 437.651359 114.351022 435.858142 114.351022 
C 434.064924 114.351022 432.344911 115.063475 431.076915 116.331471 
C 429.808919 117.599467 429.096467 119.31948 429.096467 121.112697 
C 429.096467 122.905914 429.808919 124.625927 431.076915 125.893923 
C 432.344911 127.161919 434.064924 127.874371 435.858142 127.874371 
z
" style="fill:#009900;fill-opacity:0.5;stroke:#009900;stroke-linejoin:miter;stroke-width:2;"/>
   </g>
   <g id="patch_27">
    <path clip-path="url(#p9beb9a8c31)" d="M 80.870216 98.595461 
C 82.663433 98.595461 84.383446 97.883008 85.651442 96.615012 
C 86.919438 95.347016 87.631891 93.627003 87.631891 91.833786 
C 87.631891 90.040569 86.919438 88.320556 85.651442 87.05256 
C 84.383446 85.784564 82.663433 85.072111 80.870216 85.072111 
C 79.076999 85.072111 77.356986 85.784564 76.08899 87.05256 
C 74.820994 88.320556 74.108542 90.040569 74.108542 91.833786 
C 74.108542 93.627003 74.820994 95.347016 76.08899 96.615012 
C 77.356986 97.883008 79.076999 98.595461 80.870216 98.595461 
z
" style="fill:#009900;fill-opacity:0.5;stroke:#009900;stroke-linejoin:miter;stroke-width:2;"/>
   </g>
   <g id="patch_28">
    <path clip-path="url(#p9beb9a8c31)" d="M 131.582777 69.31655 
C 133.375994 69.31655 135.096007 68.604098 136.364003 67.336102 
C 137.631999 66.068106 138.344452 64.348093 138.344452 62.554875 
C 138.344452 60.761658 137.631999 59.041645 136.364003 57.773649 
C 135.096007 56.505653 133.375994 55.793201 131.582777 55.793201 
C 129.78956 55.793201 128.069547 56.505653 126.801551 57.773649 
C 125.533555 59.041645 124.821102 60.761658 124.821102 62.554875 
C 124.821102 64.348093 125.533555 66.068106 126.801551 67.336102 
C 128.069547 68.604098 129.78956 69.31655 131.582777 69.31655 
z
" style="fill:#009900;fill-opacity:0.5;stroke:#009900;stroke-linejoin:miter;stroke-width:2;"/>
   </g>
   <g id="patch_29">
    <path clip-path="url(#p9beb9a8c31)" d="M 182.295338 98.595461 
C 184.088555 98.595461 185.808568 97.883008 187.076564 96.615012 
C 188.34456 95.347016 189.057013 93.627003 189.057013 91.833786 
C 189.057013 90.040569 188.34456 88.320556 187.076564 87.05256 
C 185.808568 85.784564 184.088555 85.072111 182.295338 85.072111 
C 180.502121 85.072111 178.782108 85.784564 177.514112 87.05256 
C 176.246116 88.320556 175.533663 90.040569 175.533663 91.833786 
C 175.533663 93.627003 176.246116 95.347016 177.514112 96.615012 
C 178.782108 97.883008 180.502121 98.595461 182.295338 98.595461 
z
" style="fill:#009900;fill-opacity:0.5;stroke:#009900;stroke-linejoin:miter;stroke-width:2;"/>
   </g>
   <g id="patch_30">
    <path clip-path="url(#p9beb9a8c31)" d="M 233.007899 69.31655 
C 234.801116 69.31655 236.521129 68.604098 237.789125 67.336102 
C 239.057121 66.068106 239.769573 64.348093 239.769573 62.554875 
C 239.769573 60.761658 239.057121 59.041645 237.789125 57.773649 
C 236.521129 56.505653 234.801116 55.793201 233.007899 55.793201 
C 231.214681 55.793201 229.494668 56.505653 228.226672 57.773649 
C 226.958676 59.041645 226.246224 60.761658 226.246224 62.554875 
C 226.246224 64.348093 226.958676 66.068106 228.226672 67.336102 
C 229.494668 68.604098 231.214681 69.31655 233.007899 69.31655 
z
" style="fill:#009900;fill-opacity:0.5;stroke:#009900;stroke-linejoin:miter;stroke-width:2;"/>
   </g>
   <g id="patch_31">
    <path clip-path="url(#p9beb9a8c31)" d="M 283.720459 98.595461 
C 285.513676 98.595461 287.233689 97.883008 288.501685 96.615012 
C 289.769681 95.347016 290.482134 93.627003 290.482134 91.833786 
C 290.482134 90.040569 289.769681 88.320556 288.501685 87.05256 
C 287.233689 85.784564 285.513676 85.072111 283.720459 85.072111 
C 281.927242 85.072111 280.207229 85.784564 278.939233 87.05256 
C 277.671237 88.320556 276.958785 90.040569 276.958785 91.833786 
C 276.958785 93.627003 277.671237 95.347016 278.939233 96.615012 
C 280.207229 97.883008 281.927242 98.595461 283.720459 98.595461 
z
" style="fill:#009900;fill-opacity:0.5;stroke:#009900;stroke-linejoin:miter;stroke-width:2;"/>
   </g>
   <g id="patch_32">
    <path clip-path="url(#p9beb9a8c31)" d="M 334.43302 69.31655 
C 336.226237 69.31655 337.94625 68.604098 339.214246 67.336102 
C 340.482242 66.068106 341.194695 64.348093 341.194695 62.554875 
C 341.194695 60.761658 340.482242 59.041645 339.214246 57.773649 
C 337.94625 56.505653 336.226237 55.793201 334.43302 55.793201 
C 332.639803 55.793201 330.91979 56.505653 329.651794 57.773649 
C 328.383798 59.041645 327.671345 60.761658 327.671345 62.554875 
C 327.671345 64.348093 328.383798 66.068106 329.651794 67.336102 
C 330.91979 68.604098 332.639803 69.31655 334.43302 69.31655 
z
" style="fill:#009900;fill-opacity:0.5;stroke:#009900;stroke-linejoin:miter;stroke-width:2;"/>
   </g>
   <g id="patch_33">
    <path clip-path="url(#p9beb9a8c31)" d="M 385.145581 98.595461 
C 386.938798 98.595461 388.658811 97.883008 389.926807 96.615012 
C 391.194803 95.347016 391.907256 93.627003 391.907256 91.833786 
C 391.907256 90.040569 391.194803 88.320556 389.926807 87.05256 
C 388.658811 85.784564 386.938798 85.072111 385.145581 85.072111 
C 383.352364 85.072111 381.632351 85.784564 380.364355 87.05256 
C 379.096359 88.320556 378.383906 90.040569 378.383906 91.833786 
C 378.383906 93.627003 379.096359 95.347016 380.364355 96.615012 
C 381.632351 97.883008 383.352364 98.595461 385.145581 98.595461 
z
" style="fill:#009900;fill-opacity:0.5;stroke:#009900;stroke-linejoin:miter;stroke-width:2;"/>
   </g>
   <g id="patch_34">
    <path clip-path="url(#p9beb9a8c31)" d="M 435.858142 69.31655 
C 437.651359 69.31655 439.371372 68.604098 440.639368 67.336102 
C 441.907364 66.068106 442.619816 64.348093 442.619816 62.554875 
C 442.619816 60.761658 441.907364 59.041645 440.639368 57.773649 
C 439.371372 56.505653 437.651359 55.793201 435.858142 55.793201 
C 434.064924 55.793201 432.344911 56.505653 431.076915 57.773649 
C 429.808919 59.041645 429.096467 60.761658 429.096467 62.554875 
C 429.096467 64.348093 429.808919 66.068106 431.076915 67.336102 
C 432.344911 68.604098 434.064924 69.31655 435.858142 69.31655 
z
" style="fill:#009900;fill-opacity:0.5;stroke:#009900;stroke-linejoin:miter;stroke-width:2;"/>
   </g>
   <g id="patch_35">
    <path clip-path="url(#p9beb9a8c31)" d="M 94.844344 272.015033 
C 96.039822 272.015033 97.186498 271.540064 98.031828 270.694734 
C 98.877159 269.849403 99.352127 268.702728 99.352127 267.50725 
C 99.352127 266.311772 98.877159 265.165096 98.031828 264.319766 
C 97.186498 263.474435 96.039822 262.999467 94.844344 262.999467 
C 93.648866 262.999467 92.502191 263.474435 91.65686 264.319766 
C 90.811529 265.165096 90.336561 266.311772 90.336561 267.50725 
C 90.336561 268.702728 90.811529 269.849403 91.65686 270.694734 
C 92.502191 271.540064 93.648866 272.015033 94.844344 272.015033 
z
" style="fill:#9558b2;fill-opacity:0.5;stroke:#9558b2;stroke-linejoin:miter;stroke-width:2;"/>
   </g>
   <g id="patch_36">
    <path clip-path="url(#p9beb9a8c31)" d="M 145.556905 242.736122 
C 146.752383 242.736122 147.899058 242.261154 148.744389 241.415823 
C 149.58972 240.570492 150.064688 239.423817 150.064688 238.228339 
C 150.064688 237.032861 149.58972 235.886186 148.744389 235.040855 
C 147.899058 234.195524 146.752383 233.720556 145.556905 233.720556 
C 144.361427 233.720556 143.214752 234.195524 142.369421 235.040855 
C 141.52409 235.886186 141.049122 237.032861 141.049122 238.228339 
C 141.049122 239.423817 141.52409 240.570492 142.369421 241.415823 
C 143.214752 242.261154 144.361427 242.736122 145.556905 242.736122 
z
" style="fill:#9558b2;fill-opacity:0.5;stroke:#9558b2;stroke-linejoin:miter;stroke-width:2;"/>
   </g>
   <g id="patch_37">
    <path clip-path="url(#p9beb9a8c31)" d="M 196.269466 272.015033 
C 197.464944 272.015033 198.611619 271.540064 199.45695 270.694734 
C 200.30228 269.849403 200.777249 268.702728 200.777249 267.50725 
C 200.777249 266.311772 200.30228 265.165096 199.45695 264.319766 
C 198.611619 263.474435 197.464944 262.999467 196.269466 262.999467 
C 195.073988 262.999467 193.927312 263.474435 193.081982 264.319766 
C 192.236651 265.165096 191.761682 266.311772 191.761682 267.50725 
C 191.761682 268.702728 192.236651 269.849403 193.081982 270.694734 
C 193.927312 271.540064 195.073988 272.015033 196.269466 272.015033 
z
" style="fill:#9558b2;fill-opacity:0.5;stroke:#9558b2;stroke-linejoin:miter;stroke-width:2;"/>
   </g>
   <g id="patch_38">
    <path clip-path="url(#p9beb9a8c31)" d="M 246.982026 242.736122 
C 248.177504 242.736122 249.32418 242.261154 250.16951 241.415823 
C 251.014841 240.570492 251.48981 239.423817 251.48981 238.228339 
C 251.48981 237.032861 251.014841 235.886186 250.16951 235.040855 
C 249.32418 234.195524 248.177504 233.720556 246.982026 233.720556 
C 245.786548 233.720556 244.639873 234.195524 243.794542 235.040855 
C 242.949212 235.886186 242.474243 237.032861 242.474243 238.228339 
C 242.474243 239.423817 242.949212 240.570492 243.794542 241.415823 
C 244.639873 242.261154 245.786548 242.736122 246.982026 242.736122 
z
" style="fill:#9558b2;fill-opacity:0.5;stroke:#9558b2;stroke-linejoin:miter;stroke-width:2;"/>
   </g>
   <g id="patch_39">
    <path clip-path="url(#p9beb9a8c31)" d="M 297.694587 272.015033 
C 298.890065 272.015033 300.036741 271.540064 300.882071 270.694734 
C 301.727402 269.849403 302.20237 268.702728 302.20237 267.50725 
C 302.20237 266.311772 301.727402 265.165096 300.882071 264.319766 
C 300.036741 263.474435 298.890065 262.999467 297.694587 262.999467 
C 296.499109 262.999467 295.352434 263.474435 294.507103 264.319766 
C 293.661772 265.165096 293.186804 266.311772 293.186804 267.50725 
C 293.186804 268.702728 293.661772 269.849403 294.507103 270.694734 
C 295.352434 271.540064 296.499109 272.015033 297.694587 272.015033 
z
" style="fill:#9558b2;fill-opacity:0.5;stroke:#9558b2;stroke-linejoin:miter;stroke-width:2;"/>
   </g>
   <g id="patch_40">
    <path clip-path="url(#p9beb9a8c31)" d="M 348.407148 242.736122 
C 349.602626 242.736122 350.749301 242.261154 351.594632 241.415823 
C 352.439963 240.570492 352.914931 239.423817 352.914931 238.228339 
C 352.914931 237.032861 352.439963 235.886186 351.594632 235.040855 
C 350.749301 234.195524 349.602626 233.720556 348.407148 233.720556 
C 347.21167 233.720556 346.064995 234.195524 345.219664 235.040855 
C 344.374333 235.886186 343.899365 237.032861 343.899365 238.228339 
C 343.899365 239.423817 344.374333 240.570492 345.219664 241.415823 
C 346.064995 242.261154 347.21167 242.736122 348.407148 242.736122 
z
" style="fill:#9558b2;fill-opacity:0.5;stroke:#9558b2;stroke-linejoin:miter;stroke-width:2;"/>
   </g>
   <g id="patch_41">
    <path clip-path="url(#p9beb9a8c31)" d="M 399.119709 272.015033 
C 400.315187 272.015033 401.461862 271.540064 402.307193 270.694734 
C 403.152523 269.849403 403.627492 268.702728 403.627492 267.50725 
C 403.627492 266.311772 403.152523 265.165096 402.307193 264.319766 
C 401.461862 263.474435 400.315187 262.999467 399.119709 262.999467 
C 397.924231 262.999467 396.777555 263.474435 395.932225 264.319766 
C 395.086894 265.165096 394.611925 266.311772 394.611925 267.50725 
C 394.611925 268.702728 395.086894 269.849403 395.932225 270.694734 
C 396.777555 271.540064 397.924231 272.015033 399.119709 272.015033 
z
" style="fill:#9558b2;fill-opacity:0.5;stroke:#9558b2;stroke-linejoin:miter;stroke-width:2;"/>
   </g>
   <g id="patch_42">
    <path clip-path="url(#p9beb9a8c31)" d="M 449.832269 242.736122 
C 451.027747 242.736122 452.174423 242.261154 453.019753 241.415823 
C 453.865084 240.570492 454.340053 239.423817 454.340053 238.228339 
C 454.340053 237.032861 453.865084 235.886186 453.019753 235.040855 
C 452.174423 234.195524 451.027747 233.720556 449.832269 233.720556 
C 448.636791 233.720556 447.490116 234.195524 446.644785 235.040855 
C 445.799455 235.886186 445.324486 237.032861 445.324486 238.228339 
C 445.324486 239.423817 445.799455 240.570492 446.644785 241.415823 
C 447.490116 242.261154 448.636791 242.736122 449.832269 242.736122 
z
" style="fill:#9558b2;fill-opacity:0.5;stroke:#9558b2;stroke-linejoin:miter;stroke-width:2;"/>
   </g>
   <g id="patch_43">
    <path clip-path="url(#p9beb9a8c31)" d="M 94.844344 213.457212 
C 96.039822 213.457212 97.186498 212.982243 98.031828 212.136913 
C 98.877159 211.291582 99.352127 210.144907 99.352127 208.949428 
C 99.352127 207.75395 98.877159 206.607275 98.031828 205.761944 
C 97.186498 204.916614 96.039822 204.441645 94.844344 204.441645 
C 93.648866 204.441645 92.502191 204.916614 91.65686 205.761944 
C 90.811529 206.607275 90.336561 207.75395 90.336561 208.949428 
C 90.336561 210.144907 90.811529 211.291582 91.65686 212.136913 
C 92.502191 212.982243 93.648866 213.457212 94.844344 213.457212 
z
" style="fill:#9558b2;fill-opacity:0.5;stroke:#9558b2;stroke-linejoin:miter;stroke-width:2;"/>
   </g>
   <g id="patch_44">
    <path clip-path="url(#p9beb9a8c31)" d="M 145.556905 184.178301 
C 146.752383 184.178301 147.899058 183.703333 148.744389 182.858002 
C 149.58972 182.012671 150.064688 180.865996 150.064688 179.670518 
C 150.064688 178.47504 149.58972 177.328364 148.744389 176.483034 
C 147.899058 175.637703 146.752383 175.162735 145.556905 175.162735 
C 144.361427 175.162735 143.214752 175.637703 142.369421 176.483034 
C 141.52409 177.328364 141.049122 178.47504 141.049122 179.670518 
C 141.049122 180.865996 141.52409 182.012671 142.369421 182.858002 
C 143.214752 183.703333 144.361427 184.178301 145.556905 184.178301 
z
" style="fill:#9558b2;fill-opacity:0.5;stroke:#9558b2;stroke-linejoin:miter;stroke-width:2;"/>
   </g>
   <g id="patch_45">
    <path clip-path="url(#p9beb9a8c31)" d="M 196.269466 213.457212 
C 197.464944 213.457212 198.611619 212.982243 199.45695 212.136913 
C 200.30228 211.291582 200.777249 210.144907 200.777249 208.949428 
C 200.777249 207.75395 200.30228 206.607275 199.45695 205.761944 
C 198.611619 204.916614 197.464944 204.441645 196.269466 204.441645 
C 195.073988 204.441645 193.927312 204.916614 193.081982 205.761944 
C 192.236651 206.607275 191.761682 207.75395 191.761682 208.949428 
C 191.761682 210.144907 192.236651 211.291582 193.081982 212.136913 
C 193.927312 212.982243 195.073988 213.457212 196.269466 213.457212 
z
" style="fill:#9558b2;fill-opacity:0.5;stroke:#9558b2;stroke-linejoin:miter;stroke-width:2;"/>
   </g>
   <g id="patch_46">
    <path clip-path="url(#p9beb9a8c31)" d="M 246.982026 184.178301 
C 248.177504 184.178301 249.32418 183.703333 250.16951 182.858002 
C 251.014841 182.012671 251.48981 180.865996 251.48981 179.670518 
C 251.48981 178.47504 251.014841 177.328364 250.16951 176.483034 
C 249.32418 175.637703 248.177504 175.162735 246.982026 175.162735 
C 245.786548 175.162735 244.639873 175.637703 243.794542 176.483034 
C 242.949212 177.328364 242.474243 178.47504 242.474243 179.670518 
C 242.474243 180.865996 242.949212 182.012671 243.794542 182.858002 
C 244.639873 183.703333 245.786548 184.178301 246.982026 184.178301 
z
" style="fill:#9558b2;fill-opacity:0.5;stroke:#9558b2;stroke-linejoin:miter;stroke-width:2;"/>
   </g>
   <g id="patch_47">
    <path clip-path="url(#p9beb9a8c31)" d="M 297.694587 213.457212 
C 298.890065 213.457212 300.036741 212.982243 300.882071 212.136913 
C 301.727402 211.291582 302.20237 210.144907 302.20237 208.949428 
C 302.20237 207.75395 301.727402 206.607275 300.882071 205.761944 
C 300.036741 204.916614 298.890065 204.441645 297.694587 204.441645 
C 296.499109 204.441645 295.352434 204.916614 294.507103 205.761944 
C 293.661772 206.607275 293.186804 207.75395 293.186804 208.949428 
C 293.186804 210.144907 293.661772 211.291582 294.507103 212.136913 
C 295.352434 212.982243 296.499109 213.457212 297.694587 213.457212 
z
" style="fill:#9558b2;fill-opacity:0.5;stroke:#9558b2;stroke-linejoin:miter;stroke-width:2;"/>
   </g>
   <g id="patch_48">
    <path clip-path="url(#p9beb9a8c31)" d="M 348.407148 184.178301 
C 349.602626 184.178301 350.749301 183.703333 351.594632 182.858002 
C 352.439963 182.012671 352.914931 180.865996 352.914931 179.670518 
C 352.914931 178.47504 352.439963 177.328364 351.594632 176.483034 
C 350.749301 175.637703 349.602626 175.162735 348.407148 175.162735 
C 347.21167 175.162735 346.064995 175.637703 345.219664 176.483034 
C 344.374333 177.328364 343.899365 178.47504 343.899365 179.670518 
C 343.899365 180.865996 344.374333 182.012671 345.219664 182.858002 
C 346.064995 183.703333 347.21167 184.178301 348.407148 184.178301 
z
" style="fill:#9558b2;fill-opacity:0.5;stroke:#9558b2;stroke-linejoin:miter;stroke-width:2;"/>
   </g>
   <g id="patch_49">
    <path clip-path="url(#p9beb9a8c31)" d="M 399.119709 213.457212 
C 400.315187 213.457212 401.461862 212.982243 402.307193 212.136913 
C 403.152523 211.291582 403.627492 210.144907 403.627492 208.949428 
C 403.627492 207.75395 403.152523 206.607275 402.307193 205.761944 
C 401.461862 204.916614 400.315187 204.441645 399.119709 204.441645 
C 397.924231 204.441645 396.777555 204.916614 395.932225 205.761944 
C 395.086894 206.607275 394.611925 207.75395 394.611925 208.949428 
C 394.611925 210.144907 395.086894 211.291582 395.932225 212.136913 
C 396.777555 212.982243 397.924231 213.457212 399.119709 213.457212 
z
" style="fill:#9558b2;fill-opacity:0.5;stroke:#9558b2;stroke-linejoin:miter;stroke-width:2;"/>
   </g>
   <g id="patch_50">
    <path clip-path="url(#p9beb9a8c31)" d="M 449.832269 184.178301 
C 451.027747 184.178301 452.174423 183.703333 453.019753 182.858002 
C 453.865084 182.012671 454.340053 180.865996 454.340053 179.670518 
C 454.340053 178.47504 453.865084 177.328364 453.019753 176.483034 
C 452.174423 175.637703 451.027747 175.162735 449.832269 175.162735 
C 448.636791 175.162735 447.490116 175.637703 446.644785 176.483034 
C 445.799455 177.328364 445.324486 178.47504 445.324486 179.670518 
C 445.324486 180.865996 445.799455 182.012671 446.644785 182.858002 
C 447.490116 183.703333 448.636791 184.178301 449.832269 184.178301 
z
" style="fill:#9558b2;fill-opacity:0.5;stroke:#9558b2;stroke-linejoin:miter;stroke-width:2;"/>
   </g>
   <g id="patch_51">
    <path clip-path="url(#p9beb9a8c31)" d="M 94.844344 154.89939 
C 96.039822 154.89939 97.186498 154.424422 98.031828 153.579091 
C 98.877159 152.733761 99.352127 151.587085 99.352127 150.391607 
C 99.352127 149.196129 98.877159 148.049454 98.031828 147.204123 
C 97.186498 146.358793 96.039822 145.883824 94.844344 145.883824 
C 93.648866 145.883824 92.502191 146.358793 91.65686 147.204123 
C 90.811529 148.049454 90.336561 149.196129 90.336561 150.391607 
C 90.336561 151.587085 90.811529 152.733761 91.65686 153.579091 
C 92.502191 154.424422 93.648866 154.89939 94.844344 154.89939 
z
" style="fill:#9558b2;fill-opacity:0.5;stroke:#9558b2;stroke-linejoin:miter;stroke-width:2;"/>
   </g>
   <g id="patch_52">
    <path clip-path="url(#p9beb9a8c31)" d="M 145.556905 125.62048 
C 146.752383 125.62048 147.899058 125.145511 148.744389 124.300181 
C 149.58972 123.45485 150.064688 122.308175 150.064688 121.112697 
C 150.064688 119.917219 149.58972 118.770543 148.744389 117.925213 
C 147.899058 117.079882 146.752383 116.604914 145.556905 116.604914 
C 144.361427 116.604914 143.214752 117.079882 142.369421 117.925213 
C 141.52409 118.770543 141.049122 119.917219 141.049122 121.112697 
C 141.049122 122.308175 141.52409 123.45485 142.369421 124.300181 
C 143.214752 125.145511 144.361427 125.62048 145.556905 125.62048 
z
" style="fill:#9558b2;fill-opacity:0.5;stroke:#9558b2;stroke-linejoin:miter;stroke-width:2;"/>
   </g>
   <g id="patch_53">
    <path clip-path="url(#p9beb9a8c31)" d="M 196.269466 154.89939 
C 197.464944 154.89939 198.611619 154.424422 199.45695 153.579091 
C 200.30228 152.733761 200.777249 151.587085 200.777249 150.391607 
C 200.777249 149.196129 200.30228 148.049454 199.45695 147.204123 
C 198.611619 146.358793 197.464944 145.883824 196.269466 145.883824 
C 195.073988 145.883824 193.927312 146.358793 193.081982 147.204123 
C 192.236651 148.049454 191.761682 149.196129 191.761682 150.391607 
C 191.761682 151.587085 192.236651 152.733761 193.081982 153.579091 
C 193.927312 154.424422 195.073988 154.89939 196.269466 154.89939 
z
" style="fill:#9558b2;fill-opacity:0.5;stroke:#9558b2;stroke-linejoin:miter;stroke-width:2;"/>
   </g>
   <g id="patch_54">
    <path clip-path="url(#p9beb9a8c31)" d="M 246.982026 125.62048 
C 248.177504 125.62048 249.32418 125.145511 250.16951 124.300181 
C 251.014841 123.45485 251.48981 122.308175 251.48981 121.112697 
C 251.48981 119.917219 251.014841 118.770543 250.16951 117.925213 
C 249.32418 117.079882 248.177504 116.604914 246.982026 116.604914 
C 245.786548 116.604914 244.639873 117.079882 243.794542 117.925213 
C 242.949212 118.770543 242.474243 119.917219 242.474243 121.112697 
C 242.474243 122.308175 242.949212 123.45485 243.794542 124.300181 
C 244.639873 125.145511 245.786548 125.62048 246.982026 125.62048 
z
" style="fill:#9558b2;fill-opacity:0.5;stroke:#9558b2;stroke-linejoin:miter;stroke-width:2;"/>
   </g>
   <g id="patch_55">
    <path clip-path="url(#p9beb9a8c31)" d="M 297.694587 154.89939 
C 298.890065 154.89939 300.036741 154.424422 300.882071 153.579091 
C 301.727402 152.733761 302.20237 151.587085 302.20237 150.391607 
C 302.20237 149.196129 301.727402 148.049454 300.882071 147.204123 
C 300.036741 146.358793 298.890065 145.883824 297.694587 145.883824 
C 296.499109 145.883824 295.352434 146.358793 294.507103 147.204123 
C 293.661772 148.049454 293.186804 149.196129 293.186804 150.391607 
C 293.186804 151.587085 293.661772 152.733761 294.507103 153.579091 
C 295.352434 154.424422 296.499109 154.89939 297.694587 154.89939 
z
" style="fill:#9558b2;fill-opacity:0.5;stroke:#9558b2;stroke-linejoin:miter;stroke-width:2;"/>
   </g>
   <g id="patch_56">
    <path clip-path="url(#p9beb9a8c31)" d="M 348.407148 125.62048 
C 349.602626 125.62048 350.749301 125.145511 351.594632 124.300181 
C 352.439963 123.45485 352.914931 122.308175 352.914931 121.112697 
C 352.914931 119.917219 352.439963 118.770543 351.594632 117.925213 
C 350.749301 117.079882 349.602626 116.604914 348.407148 116.604914 
C 347.21167 116.604914 346.064995 117.079882 345.219664 117.925213 
C 344.374333 118.770543 343.899365 119.917219 343.899365 121.112697 
C 343.899365 122.308175 344.374333 123.45485 345.219664 124.300181 
C 346.064995 125.145511 347.21167 125.62048 348.407148 125.62048 
z
" style="fill:#9558b2;fill-opacity:0.5;stroke:#9558b2;stroke-linejoin:miter;stroke-width:2;"/>
   </g>
   <g id="patch_57">
    <path clip-path="url(#p9beb9a8c31)" d="M 399.119709 154.89939 
C 400.315187 154.89939 401.461862 154.424422 402.307193 153.579091 
C 403.152523 152.733761 403.627492 151.587085 403.627492 150.391607 
C 403.627492 149.196129 403.152523 148.049454 402.307193 147.204123 
C 401.461862 146.358793 400.315187 145.883824 399.119709 145.883824 
C 397.924231 145.883824 396.777555 146.358793 395.932225 147.204123 
C 395.086894 148.049454 394.611925 149.196129 394.611925 150.391607 
C 394.611925 151.587085 395.086894 152.733761 395.932225 153.579091 
C 396.777555 154.424422 397.924231 154.89939 399.119709 154.89939 
z
" style="fill:#9558b2;fill-opacity:0.5;stroke:#9558b2;stroke-linejoin:miter;stroke-width:2;"/>
   </g>
   <g id="patch_58">
    <path clip-path="url(#p9beb9a8c31)" d="M 449.832269 125.62048 
C 451.027747 125.62048 452.174423 125.145511 453.019753 124.300181 
C 453.865084 123.45485 454.340053 122.308175 454.340053 121.112697 
C 454.340053 119.917219 453.865084 118.770543 453.019753 117.925213 
C 452.174423 117.079882 451.027747 116.604914 449.832269 116.604914 
C 448.636791 116.604914 447.490116 117.079882 446.644785 117.925213 
C 445.799455 118.770543 445.324486 119.917219 445.324486 121.112697 
C 445.324486 122.308175 445.799455 123.45485 446.644785 124.300181 
C 447.490116 125.145511 448.636791 125.62048 449.832269 125.62048 
z
" style="fill:#9558b2;fill-opacity:0.5;stroke:#9558b2;stroke-linejoin:miter;stroke-width:2;"/>
   </g>
   <g id="patch_59">
    <path clip-path="url(#p9beb9a8c31)" d="M 94.844344 96.341569 
C 96.039822 96.341569 97.186498 95.866601 98.031828 95.02127 
C 98.877159 94.175939 99.352127 93.029264 99.352127 91.833786 
C 99.352127 90.638308 98.877159 89.491633 98.031828 88.646302 
C 97.186498 87.800971 96.039822 87.326003 94.844344 87.326003 
C 93.648866 87.326003 92.502191 87.800971 91.65686 88.646302 
C 90.811529 89.491633 90.336561 90.638308 90.336561 91.833786 
C 90.336561 93.029264 90.811529 94.175939 91.65686 95.02127 
C 92.502191 95.866601 93.648866 96.341569 94.844344 96.341569 
z
" style="fill:#9558b2;fill-opacity:0.5;stroke:#9558b2;stroke-linejoin:miter;stroke-width:2;"/>
   </g>
   <g id="patch_60">
    <path clip-path="url(#p9beb9a8c31)" d="M 145.556905 67.062659 
C 146.752383 67.062659 147.899058 66.58769 148.744389 65.74236 
C 149.58972 64.897029 150.064688 63.750354 150.064688 62.554875 
C 150.064688 61.359397 149.58972 60.212722 148.744389 59.367391 
C 147.899058 58.522061 146.752383 58.047092 145.556905 58.047092 
C 144.361427 58.047092 143.214752 58.522061 142.369421 59.367391 
C 141.52409 60.212722 141.049122 61.359397 141.049122 62.554875 
C 141.049122 63.750354 141.52409 64.897029 142.369421 65.74236 
C 143.214752 66.58769 144.361427 67.062659 145.556905 67.062659 
z
" style="fill:#9558b2;fill-opacity:0.5;stroke:#9558b2;stroke-linejoin:miter;stroke-width:2;"/>
   </g>
   <g id="patch_61">
    <path clip-path="url(#p9beb9a8c31)" d="M 196.269466 96.341569 
C 197.464944 96.341569 198.611619 95.866601 199.45695 95.02127 
C 200.30228 94.175939 200.777249 93.029264 200.777249 91.833786 
C 200.777249 90.638308 200.30228 89.491633 199.45695 88.646302 
C 198.611619 87.800971 197.464944 87.326003 196.269466 87.326003 
C 195.073988 87.326003 193.927312 87.800971 193.081982 88.646302 
C 192.236651 89.491633 191.761682 90.638308 191.761682 91.833786 
C 191.761682 93.029264 192.236651 94.175939 193.081982 95.02127 
C 193.927312 95.866601 195.073988 96.341569 196.269466 96.341569 
z
" style="fill:#9558b2;fill-opacity:0.5;stroke:#9558b2;stroke-linejoin:miter;stroke-width:2;"/>
   </g>
   <g id="patch_62">
    <path clip-path="url(#p9beb9a8c31)" d="M 246.982026 67.062659 
C 248.177504 67.062659 249.32418 66.58769 250.16951 65.74236 
C 251.014841 64.897029 251.48981 63.750354 251.48981 62.554875 
C 251.48981 61.359397 251.014841 60.212722 250.16951 59.367391 
C 249.32418 58.522061 248.177504 58.047092 246.982026 58.047092 
C 245.786548 58.047092 244.639873 58.522061 243.794542 59.367391 
C 242.949212 60.212722 242.474243 61.359397 242.474243 62.554875 
C 242.474243 63.750354 242.949212 64.897029 243.794542 65.74236 
C 244.639873 66.58769 245.786548 67.062659 246.982026 67.062659 
z
" style="fill:#9558b2;fill-opacity:0.5;stroke:#9558b2;stroke-linejoin:miter;stroke-width:2;"/>
   </g>
   <g id="patch_63">
    <path clip-path="url(#p9beb9a8c31)" d="M 297.694587 96.341569 
C 298.890065 96.341569 300.036741 95.866601 300.882071 95.02127 
C 301.727402 94.175939 302.20237 93.029264 302.20237 91.833786 
C 302.20237 90.638308 301.727402 89.491633 300.882071 88.646302 
C 300.036741 87.800971 298.890065 87.326003 297.694587 87.326003 
C 296.499109 87.326003 295.352434 87.800971 294.507103 88.646302 
C 293.661772 89.491633 293.186804 90.638308 293.186804 91.833786 
C 293.186804 93.029264 293.661772 94.175939 294.507103 95.02127 
C 295.352434 95.866601 296.499109 96.341569 297.694587 96.341569 
z
" style="fill:#9558b2;fill-opacity:0.5;stroke:#9558b2;stroke-linejoin:miter;stroke-width:2;"/>
   </g>
   <g id="patch_64">
    <path clip-path="url(#p9beb9a8c31)" d="M 348.407148 67.062659 
C 349.602626 67.062659 350.749301 66.58769 351.594632 65.74236 
C 352.439963 64.897029 352.914931 63.750354 352.914931 62.554875 
C 352.914931 61.359397 352.439963 60.212722 351.594632 59.367391 
C 350.749301 58.522061 349.602626 58.047092 348.407148 58.047092 
C 347.21167 58.047092 346.064995 58.522061 345.219664 59.367391 
C 344.374333 60.212722 343.899365 61.359397 343.899365 62.554875 
C 343.899365 63.750354 344.374333 64.897029 345.219664 65.74236 
C 346.064995 66.58769 347.21167 67.062659 348.407148 67.062659 
z
" style="fill:#9558b2;fill-opacity:0.5;stroke:#9558b2;stroke-linejoin:miter;stroke-width:2;"/>
   </g>
   <g id="patch_65">
    <path clip-path="url(#p9beb9a8c31)" d="M 399.119709 96.341569 
C 400.315187 96.341569 401.461862 95.866601 402.307193 95.02127 
C 403.152523 94.175939 403.627492 93.029264 403.627492 91.833786 
C 403.627492 90.638308 403.152523 89.491633 402.307193 88.646302 
C 401.461862 87.800971 400.315187 87.326003 399.119709 87.326003 
C 397.924231 87.326003 396.777555 87.800971 395.932225 88.646302 
C 395.086894 89.491633 394.611925 90.638308 394.611925 91.833786 
C 394.611925 93.029264 395.086894 94.175939 395.932225 95.02127 
C 396.777555 95.866601 397.924231 96.341569 399.119709 96.341569 
z
" style="fill:#9558b2;fill-opacity:0.5;stroke:#9558b2;stroke-linejoin:miter;stroke-width:2;"/>
   </g>
   <g id="patch_66">
    <path clip-path="url(#p9beb9a8c31)" d="M 449.832269 67.062659 
C 451.027747 67.062659 452.174423 66.58769 453.019753 65.74236 
C 453.865084 64.897029 454.340053 63.750354 454.340053 62.554875 
C 454.340053 61.359397 453.865084 60.212722 453.019753 59.367391 
C 452.174423 58.522061 451.027747 58.047092 449.832269 58.047092 
C 448.636791 58.047092 447.490116 58.522061 446.644785 59.367391 
C 445.799455 60.212722 445.324486 61.359397 445.324486 62.554875 
C 445.324486 63.750354 445.799455 64.897029 446.644785 65.74236 
C 447.490116 66.58769 448.636791 67.062659 449.832269 67.062659 
z
" style="fill:#9558b2;fill-opacity:0.5;stroke:#9558b2;stroke-linejoin:miter;stroke-width:2;"/>
   </g>
   <g id="patch_67">
    <path clip-path="url(#p9beb9a8c31)" d="M 87.85728 261.872521 
C 89.351628 261.872521 90.784972 261.27881 91.841635 260.222147 
C 92.898299 259.165483 93.492009 257.732139 93.492009 256.237792 
C 93.492009 254.743444 92.898299 253.3101 91.841635 252.253437 
C 90.784972 251.196773 89.351628 250.603063 87.85728 250.603063 
C 86.362933 250.603063 84.929588 251.196773 83.872925 252.253437 
C 82.816262 253.3101 82.222551 254.743444 82.222551 256.237792 
C 82.222551 257.732139 82.816262 259.165483 83.872925 260.222147 
C 84.929588 261.27881 86.362933 261.872521 87.85728 261.872521 
z
" style="fill:#cc0000;fill-opacity:0.1;stroke:#cc0000;stroke-dasharray:7.4,3.2;stroke-dashoffset:0;stroke-linejoin:miter;stroke-width:2;"/>
   </g>
   <g id="patch_68">
    <path clip-path="url(#p9beb9a8c31)" d="M 138.569841 232.59361 
C 140.064189 232.59361 141.497533 231.9999 142.554196 230.943236 
C 143.610859 229.886573 144.20457 228.453229 144.20457 226.958881 
C 144.20457 225.464534 143.610859 224.031189 142.554196 222.974526 
C 141.497533 221.917863 140.064189 221.324152 138.569841 221.324152 
C 137.075493 221.324152 135.642149 221.917863 134.585486 222.974526 
C 133.528823 224.031189 132.935112 225.464534 132.935112 226.958881 
C 132.935112 228.453229 133.528823 229.886573 134.585486 230.943236 
C 135.642149 231.9999 137.075493 232.59361 138.569841 232.59361 
z
" style="fill:#cc0000;fill-opacity:0.1;stroke:#cc0000;stroke-dasharray:7.4,3.2;stroke-dashoffset:0;stroke-linejoin:miter;stroke-width:2;"/>
   </g>
   <g id="patch_69">
    <path clip-path="url(#p9beb9a8c31)" d="M 189.282402 261.872521 
C 190.776749 261.872521 192.210093 261.27881 193.266757 260.222147 
C 194.32342 259.165483 194.917131 257.732139 194.917131 256.237792 
C 194.917131 254.743444 194.32342 253.3101 193.266757 252.253437 
C 192.210093 251.196773 190.776749 250.603063 189.282402 250.603063 
C 187.788054 250.603063 186.35471 251.196773 185.298047 252.253437 
C 184.241383 253.3101 183.647673 254.743444 183.647673 256.237792 
C 183.647673 257.732139 184.241383 259.165483 185.298047 260.222147 
C 186.35471 261.27881 187.788054 261.872521 189.282402 261.872521 
z
" style="fill:#cc0000;fill-opacity:0.1;stroke:#cc0000;stroke-dasharray:7.4,3.2;stroke-dashoffset:0;stroke-linejoin:miter;stroke-width:2;"/>
   </g>
   <g id="patch_70">
    <path clip-path="url(#p9beb9a8c31)" d="M 239.994962 232.59361 
C 241.48931 232.59361 242.922654 231.9999 243.979318 230.943236 
C 245.035981 229.886573 245.629691 228.453229 245.629691 226.958881 
C 245.629691 225.464534 245.035981 224.031189 243.979318 222.974526 
C 242.922654 221.917863 241.48931 221.324152 239.994962 221.324152 
C 238.500615 221.324152 237.067271 221.917863 236.010607 222.974526 
C 234.953944 224.031189 234.360234 225.464534 234.360234 226.958881 
C 234.360234 228.453229 234.953944 229.886573 236.010607 230.943236 
C 237.067271 231.9999 238.500615 232.59361 239.994962 232.59361 
z
" style="fill:#cc0000;fill-opacity:0.1;stroke:#cc0000;stroke-dasharray:7.4,3.2;stroke-dashoffset:0;stroke-linejoin:miter;stroke-width:2;"/>
   </g>
   <g id="patch_71">
    <path clip-path="url(#p9beb9a8c31)" d="M 290.707523 261.872521 
C 292.201871 261.872521 293.635215 261.27881 294.691878 260.222147 
C 295.748542 259.165483 296.342252 257.732139 296.342252 256.237792 
C 296.342252 254.743444 295.748542 253.3101 294.691878 252.253437 
C 293.635215 251.196773 292.201871 250.603063 290.707523 250.603063 
C 289.213176 250.603063 287.779831 251.196773 286.723168 252.253437 
C 285.666505 253.3101 285.072794 254.743444 285.072794 256.237792 
C 285.072794 257.732139 285.666505 259.165483 286.723168 260.222147 
C 287.779831 261.27881 289.213176 261.872521 290.707523 261.872521 
z
" style="fill:#cc0000;fill-opacity:0.1;stroke:#cc0000;stroke-dasharray:7.4,3.2;stroke-dashoffset:0;stroke-linejoin:miter;stroke-width:2;"/>
   </g>
   <g id="patch_72">
    <path clip-path="url(#p9beb9a8c31)" d="M 341.420084 232.59361 
C 342.914432 232.59361 344.347776 231.9999 345.404439 230.943236 
C 346.461102 229.886573 347.054813 228.453229 347.054813 226.958881 
C 347.054813 225.464534 346.461102 224.031189 345.404439 222.974526 
C 344.347776 221.917863 342.914432 221.324152 341.420084 221.324152 
C 339.925736 221.324152 338.492392 221.917863 337.435729 222.974526 
C 336.379066 224.031189 335.785355 225.464534 335.785355 226.958881 
C 335.785355 228.453229 336.379066 229.886573 337.435729 230.943236 
C 338.492392 231.9999 339.925736 232.59361 341.420084 232.59361 
z
" style="fill:#cc0000;fill-opacity:0.1;stroke:#cc0000;stroke-dasharray:7.4,3.2;stroke-dashoffset:0;stroke-linejoin:miter;stroke-width:2;"/>
   </g>
   <g id="patch_73">
    <path clip-path="url(#p9beb9a8c31)" d="M 392.132645 261.872521 
C 393.626992 261.872521 395.060336 261.27881 396.117 260.222147 
C 397.173663 259.165483 397.767374 257.732139 397.767374 256.237792 
C 397.767374 254.743444 397.173663 253.3101 396.117 252.253437 
C 395.060336 251.196773 393.626992 250.603063 392.132645 250.603063 
C 390.638297 250.603063 389.204953 251.196773 388.14829 252.253437 
C 387.091626 253.3101 386.497916 254.743444 386.497916 256.237792 
C 386.497916 257.732139 387.091626 259.165483 388.14829 260.222147 
C 389.204953 261.27881 390.638297 261.872521 392.132645 261.872521 
z
" style="fill:#cc0000;fill-opacity:0.1;stroke:#cc0000;stroke-dasharray:7.4,3.2;stroke-dashoffset:0;stroke-linejoin:miter;stroke-width:2;"/>
   </g>
   <g id="patch_74">
    <path clip-path="url(#p9beb9a8c31)" d="M 442.845205 232.59361 
C 444.339553 232.59361 445.772897 231.9999 446.829561 230.943236 
C 447.886224 229.886573 448.479934 228.453229 448.479934 226.958881 
C 448.479934 225.464534 447.886224 224.031189 446.829561 222.974526 
C 445.772897 221.917863 444.339553 221.324152 442.845205 221.324152 
C 441.350858 221.324152 439.917514 221.917863 438.86085 222.974526 
C 437.804187 224.031189 437.210477 225.464534 437.210477 226.958881 
C 437.210477 228.453229 437.804187 229.886573 438.86085 230.943236 
C 439.917514 231.9999 441.350858 232.59361 442.845205 232.59361 
z
" style="fill:#cc0000;fill-opacity:0.1;stroke:#cc0000;stroke-dasharray:7.4,3.2;stroke-dashoffset:0;stroke-linejoin:miter;stroke-width:2;"/>
   </g>
   <g id="patch_75">
    <path clip-path="url(#p9beb9a8c31)" d="M 87.85728 203.3147 
C 89.351628 203.3147 90.784972 202.720989 91.841635 201.664326 
C 92.898299 200.607662 93.492009 199.174318 93.492009 197.679971 
C 93.492009 196.185623 92.898299 194.752279 91.841635 193.695615 
C 90.784972 192.638952 89.351628 192.045242 87.85728 192.045242 
C 86.362933 192.045242 84.929588 192.638952 83.872925 193.695615 
C 82.816262 194.752279 82.222551 196.185623 82.222551 197.679971 
C 82.222551 199.174318 82.816262 200.607662 83.872925 201.664326 
C 84.929588 202.720989 86.362933 203.3147 87.85728 203.3147 
z
" style="fill:#cc0000;fill-opacity:0.1;stroke:#cc0000;stroke-dasharray:7.4,3.2;stroke-dashoffset:0;stroke-linejoin:miter;stroke-width:2;"/>
   </g>
   <g id="patch_76">
    <path clip-path="url(#p9beb9a8c31)" d="M 138.569841 174.035789 
C 140.064189 174.035789 141.497533 173.442078 142.554196 172.385415 
C 143.610859 171.328752 144.20457 169.895408 144.20457 168.40106 
C 144.20457 166.906712 143.610859 165.473368 142.554196 164.416705 
C 141.497533 163.360042 140.064189 162.766331 138.569841 162.766331 
C 137.075493 162.766331 135.642149 163.360042 134.585486 164.416705 
C 133.528823 165.473368 132.935112 166.906712 132.935112 168.40106 
C 132.935112 169.895408 133.528823 171.328752 134.585486 172.385415 
C 135.642149 173.442078 137.075493 174.035789 138.569841 174.035789 
z
" style="fill:#cc0000;fill-opacity:0.1;stroke:#cc0000;stroke-dasharray:7.4,3.2;stroke-dashoffset:0;stroke-linejoin:miter;stroke-width:2;"/>
   </g>
   <g id="patch_77">
    <path clip-path="url(#p9beb9a8c31)" d="M 189.282402 203.3147 
C 190.776749 203.3147 192.210093 202.720989 193.266757 201.664326 
C 194.32342 200.607662 194.917131 199.174318 194.917131 197.679971 
C 194.917131 196.185623 194.32342 194.752279 193.266757 193.695615 
C 192.210093 192.638952 190.776749 192.045242 189.282402 192.045242 
C 187.788054 192.045242 186.35471 192.638952 185.298047 193.695615 
C 184.241383 194.752279 183.647673 196.185623 183.647673 197.679971 
C 183.647673 199.174318 184.241383 200.607662 185.298047 201.664326 
C 186.35471 202.720989 187.788054 203.3147 189.282402 203.3147 
z
" style="fill:#cc0000;fill-opacity:0.1;stroke:#cc0000;stroke-dasharray:7.4,3.2;stroke-dashoffset:0;stroke-linejoin:miter;stroke-width:2;"/>
   </g>
   <g id="patch_78">
    <path clip-path="url(#p9beb9a8c31)" d="M 239.994962 174.035789 
C 241.48931 174.035789 242.922654 173.442078 243.979318 172.385415 
C 245.035981 171.328752 245.629691 169.895408 245.629691 168.40106 
C 245.629691 166.906712 245.035981 165.473368 243.979318 164.416705 
C 242.922654 163.360042 241.48931 162.766331 239.994962 162.766331 
C 238.500615 162.766331 237.067271 163.360042 236.010607 164.416705 
C 234.953944 165.473368 234.360234 166.906712 234.360234 168.40106 
C 234.360234 169.895408 234.953944 171.328752 236.010607 172.385415 
C 237.067271 173.442078 238.500615 174.035789 239.994962 174.035789 
z
" style="fill:#cc0000;fill-opacity:0.1;stroke:#cc0000;stroke-dasharray:7.4,3.2;stroke-dashoffset:0;stroke-linejoin:miter;stroke-width:2;"/>
   </g>
   <g id="patch_79">
    <path clip-path="url(#p9beb9a8c31)" d="M 290.707523 203.3147 
C 292.201871 203.3147 293.635215 202.720989 294.691878 201.664326 
C 295.748542 200.607662 296.342252 199.174318 296.342252 197.679971 
C 296.342252 196.185623 295.748542 194.752279 294.691878 193.695615 
C 293.635215 192.638952 292.201871 192.045242 290.707523 192.045242 
C 289.213176 192.045242 287.779831 192.638952 286.723168 193.695615 
C 285.666505 194.752279 285.072794 196.185623 285.072794 197.679971 
C 285.072794 199.174318 285.666505 200.607662 286.723168 201.664326 
C 287.779831 202.720989 289.213176 203.3147 290.707523 203.3147 
z
" style="fill:#cc0000;fill-opacity:0.1;stroke:#cc0000;stroke-dasharray:7.4,3.2;stroke-dashoffset:0;stroke-linejoin:miter;stroke-width:2;"/>
   </g>
   <g id="patch_80">
    <path clip-path="url(#p9beb9a8c31)" d="M 341.420084 174.035789 
C 342.914432 174.035789 344.347776 173.442078 345.404439 172.385415 
C 346.461102 171.328752 347.054813 169.895408 347.054813 168.40106 
C 347.054813 166.906712 346.461102 165.473368 345.404439 164.416705 
C 344.347776 163.360042 342.914432 162.766331 341.420084 162.766331 
C 339.925736 162.766331 338.492392 163.360042 337.435729 164.416705 
C 336.379066 165.473368 335.785355 166.906712 335.785355 168.40106 
C 335.785355 169.895408 336.379066 171.328752 337.435729 172.385415 
C 338.492392 173.442078 339.925736 174.035789 341.420084 174.035789 
z
" style="fill:#cc0000;fill-opacity:0.1;stroke:#cc0000;stroke-dasharray:7.4,3.2;stroke-dashoffset:0;stroke-linejoin:miter;stroke-width:2;"/>
   </g>
   <g id="patch_81">
    <path clip-path="url(#p9beb9a8c31)" d="M 392.132645 203.3147 
C 393.626992 203.3147 395.060336 202.720989 396.117 201.664326 
C 397.173663 200.607662 397.767374 199.174318 397.767374 197.679971 
C 397.767374 196.185623 397.173663 194.752279 396.117 193.695615 
C 395.060336 192.638952 393.626992 192.045242 392.132645 192.045242 
C 390.638297 192.045242 389.204953 192.638952 388.14829 193.695615 
C 387.091626 194.752279 386.497916 196.185623 386.497916 197.679971 
C 386.497916 199.174318 387.091626 200.607662 388.14829 201.664326 
C 389.204953 202.720989 390.638297 203.3147 392.132645 203.3147 
z
" style="fill:#cc0000;fill-opacity:0.1;stroke:#cc0000;stroke-dasharray:7.4,3.2;stroke-dashoffset:0;stroke-linejoin:miter;stroke-width:2;"/>
   </g>
   <g id="patch_82">
    <path clip-path="url(#p9beb9a8c31)" d="M 442.845205 174.035789 
C 444.339553 174.035789 445.772897 173.442078 446.829561 172.385415 
C 447.886224 171.328752 448.479934 169.895408 448.479934 168.40106 
C 448.479934 166.906712 447.886224 165.473368 446.829561 164.416705 
C 445.772897 163.360042 444.339553 162.766331 442.845205 162.766331 
C 441.350858 162.766331 439.917514 163.360042 438.86085 164.416705 
C 437.804187 165.473368 437.210477 166.906712 437.210477 168.40106 
C 437.210477 169.895408 437.804187 171.328752 438.86085 172.385415 
C 439.917514 173.442078 441.350858 174.035789 442.845205 174.035789 
z
" style="fill:#cc0000;fill-opacity:0.1;stroke:#cc0000;stroke-dasharray:7.4,3.2;stroke-dashoffset:0;stroke-linejoin:miter;stroke-width:2;"/>
   </g>
   <g id="patch_83">
    <path clip-path="url(#p9beb9a8c31)" d="M 87.85728 144.756878 
C 89.351628 144.756878 90.784972 144.163168 91.841635 143.106504 
C 92.898299 142.049841 93.492009 140.616497 93.492009 139.122149 
C 93.492009 137.627802 92.898299 136.194458 91.841635 135.137794 
C 90.784972 134.081131 89.351628 133.48742 87.85728 133.48742 
C 86.362933 133.48742 84.929588 134.081131 83.872925 135.137794 
C 82.816262 136.194458 82.222551 137.627802 82.222551 139.122149 
C 82.222551 140.616497 82.816262 142.049841 83.872925 143.106504 
C 84.929588 144.163168 86.362933 144.756878 87.85728 144.756878 
z
" style="fill:#cc0000;fill-opacity:0.1;stroke:#cc0000;stroke-dasharray:7.4,3.2;stroke-dashoffset:0;stroke-linejoin:miter;stroke-width:2;"/>
   </g>
   <g id="patch_84">
    <path clip-path="url(#p9beb9a8c31)" d="M 138.569841 115.477968 
C 140.064189 115.477968 141.497533 114.884257 142.554196 113.827594 
C 143.610859 112.77093 144.20457 111.337586 144.20457 109.843239 
C 144.20457 108.348891 143.610859 106.915547 142.554196 105.858884 
C 141.497533 104.80222 140.064189 104.20851 138.569841 104.20851 
C 137.075493 104.20851 135.642149 104.80222 134.585486 105.858884 
C 133.528823 106.915547 132.935112 108.348891 132.935112 109.843239 
C 132.935112 111.337586 133.528823 112.77093 134.585486 113.827594 
C 135.642149 114.884257 137.075493 115.477968 138.569841 115.477968 
z
" style="fill:#cc0000;fill-opacity:0.1;stroke:#cc0000;stroke-dasharray:7.4,3.2;stroke-dashoffset:0;stroke-linejoin:miter;stroke-width:2;"/>
   </g>
   <g id="patch_85">
    <path clip-path="url(#p9beb9a8c31)" d="M 189.282402 144.756878 
C 190.776749 144.756878 192.210093 144.163168 193.266757 143.106504 
C 194.32342 142.049841 194.917131 140.616497 194.917131 139.122149 
C 194.917131 137.627802 194.32342 136.194458 193.266757 135.137794 
C 192.210093 134.081131 190.776749 133.48742 189.282402 133.48742 
C 187.788054 133.48742 186.35471 134.081131 185.298047 135.137794 
C 184.241383 136.194458 183.647673 137.627802 183.647673 139.122149 
C 183.647673 140.616497 184.241383 142.049841 185.298047 143.106504 
C 186.35471 144.163168 187.788054 144.756878 189.282402 144.756878 
z
" style="fill:#cc0000;fill-opacity:0.1;stroke:#cc0000;stroke-dasharray:7.4,3.2;stroke-dashoffset:0;stroke-linejoin:miter;stroke-width:2;"/>
   </g>
   <g id="patch_86">
    <path clip-path="url(#p9beb9a8c31)" d="M 239.994962 115.477968 
C 241.48931 115.477968 242.922654 114.884257 243.979318 113.827594 
C 245.035981 112.77093 245.629691 111.337586 245.629691 109.843239 
C 245.629691 108.348891 245.035981 106.915547 243.979318 105.858884 
C 242.922654 104.80222 241.48931 104.20851 239.994962 104.20851 
C 238.500615 104.20851 237.067271 104.80222 236.010607 105.858884 
C 234.953944 106.915547 234.360234 108.348891 234.360234 109.843239 
C 234.360234 111.337586 234.953944 112.77093 236.010607 113.827594 
C 237.067271 114.884257 238.500615 115.477968 239.994962 115.477968 
z
" style="fill:#cc0000;fill-opacity:0.1;stroke:#cc0000;stroke-dasharray:7.4,3.2;stroke-dashoffset:0;stroke-linejoin:miter;stroke-width:2;"/>
   </g>
   <g id="patch_87">
    <path clip-path="url(#p9beb9a8c31)" d="M 290.707523 144.756878 
C 292.201871 144.756878 293.635215 144.163168 294.691878 143.106504 
C 295.748542 142.049841 296.342252 140.616497 296.342252 139.122149 
C 296.342252 137.627802 295.748542 136.194458 294.691878 135.137794 
C 293.635215 134.081131 292.201871 133.48742 290.707523 133.48742 
C 289.213176 133.48742 287.779831 134.081131 286.723168 135.137794 
C 285.666505 136.194458 285.072794 137.627802 285.072794 139.122149 
C 285.072794 140.616497 285.666505 142.049841 286.723168 143.106504 
C 287.779831 144.163168 289.213176 144.756878 290.707523 144.756878 
z
" style="fill:#cc0000;fill-opacity:0.1;stroke:#cc0000;stroke-dasharray:7.4,3.2;stroke-dashoffset:0;stroke-linejoin:miter;stroke-width:2;"/>
   </g>
   <g id="patch_88">
    <path clip-path="url(#p9beb9a8c31)" d="M 341.420084 115.477968 
C 342.914432 115.477968 344.347776 114.884257 345.404439 113.827594 
C 346.461102 112.77093 347.054813 111.337586 347.054813 109.843239 
C 347.054813 108.348891 346.461102 106.915547 345.404439 105.858884 
C 344.347776 104.80222 342.914432 104.20851 341.420084 104.20851 
C 339.925736 104.20851 338.492392 104.80222 337.435729 105.858884 
C 336.379066 106.915547 335.785355 108.348891 335.785355 109.843239 
C 335.785355 111.337586 336.379066 112.77093 337.435729 113.827594 
C 338.492392 114.884257 339.925736 115.477968 341.420084 115.477968 
z
" style="fill:#cc0000;fill-opacity:0.1;stroke:#cc0000;stroke-dasharray:7.4,3.2;stroke-dashoffset:0;stroke-linejoin:miter;stroke-width:2;"/>
   </g>
   <g id="patch_89">
    <path clip-path="url(#p9beb9a8c31)" d="M 392.132645 144.756878 
C 393.626992 144.756878 395.060336 144.163168 396.117 143.106504 
C 397.173663 142.049841 397.767374 140.616497 397.767374 139.122149 
C 397.767374 137.627802 397.173663 136.194458 396.117 135.137794 
C 395.060336 134.081131 393.626992 133.48742 392.132645 133.48742 
C 390.638297 133.48742 389.204953 134.081131 388.14829 135.137794 
C 387.091626 136.194458 386.497916 137.627802 386.497916 139.122149 
C 386.497916 140.616497 387.091626 142.049841 388.14829 143.106504 
C 389.204953 144.163168 390.638297 144.756878 392.132645 144.756878 
z
" style="fill:#cc0000;fill-opacity:0.1;stroke:#cc0000;stroke-dasharray:7.4,3.2;stroke-dashoffset:0;stroke-linejoin:miter;stroke-width:2;"/>
   </g>
   <g id="patch_90">
    <path clip-path="url(#p9beb9a8c31)" d="M 442.845205 115.477968 
C 444.339553 115.477968 445.772897 114.884257 446.829561 113.827594 
C 447.886224 112.77093 448.479934 111.337586 448.479934 109.843239 
C 448.479934 108.348891 447.886224 106.915547 446.829561 105.858884 
C 445.772897 104.80222 444.339553 104.20851 442.845205 104.20851 
C 441.350858 104.20851 439.917514 104.80222 438.86085 105.858884 
C 437.804187 106.915547 437.210477 108.348891 437.210477 109.843239 
C 437.210477 111.337586 437.804187 112.77093 438.86085 113.827594 
C 439.917514 114.884257 441.350858 115.477968 442.845205 115.477968 
z
" style="fill:#cc0000;fill-opacity:0.1;stroke:#cc0000;stroke-dasharray:7.4,3.2;stroke-dashoffset:0;stroke-linejoin:miter;stroke-width:2;"/>
   </g>
   <g id="patch_91">
    <path clip-path="url(#p9beb9a8c31)" d="M 87.85728 86.199057 
C 89.351628 86.199057 90.784972 85.605347 91.841635 84.548683 
C 92.898299 83.49202 93.492009 82.058676 93.492009 80.564328 
C 93.492009 79.069981 92.898299 77.636636 91.841635 76.579973 
C 90.784972 75.52331 89.351628 74.929599 87.85728 74.929599 
C 86.362933 74.929599 84.929588 75.52331 83.872925 76.579973 
C 82.816262 77.636636 82.222551 79.069981 82.222551 80.564328 
C 82.222551 82.058676 82.816262 83.49202 83.872925 84.548683 
C 84.929588 85.605347 86.362933 86.199057 87.85728 86.199057 
z
" style="fill:#cc0000;fill-opacity:0.1;stroke:#cc0000;stroke-dasharray:7.4,3.2;stroke-dashoffset:0;stroke-linejoin:miter;stroke-width:2;"/>
   </g>
   <g id="patch_92">
    <path clip-path="url(#p9beb9a8c31)" d="M 138.569841 56.920147 
C 140.064189 56.920147 141.497533 56.326436 142.554196 55.269773 
C 143.610859 54.213109 144.20457 52.779765 144.20457 51.285418 
C 144.20457 49.79107 143.610859 48.357726 142.554196 47.301062 
C 141.497533 46.244399 140.064189 45.650689 138.569841 45.650689 
C 137.075493 45.650689 135.642149 46.244399 134.585486 47.301062 
C 133.528823 48.357726 132.935112 49.79107 132.935112 51.285418 
C 132.935112 52.779765 133.528823 54.213109 134.585486 55.269773 
C 135.642149 56.326436 137.075493 56.920147 138.569841 56.920147 
z
" style="fill:#cc0000;fill-opacity:0.1;stroke:#cc0000;stroke-dasharray:7.4,3.2;stroke-dashoffset:0;stroke-linejoin:miter;stroke-width:2;"/>
   </g>
   <g id="patch_93">
    <path clip-path="url(#p9beb9a8c31)" d="M 189.282402 86.199057 
C 190.776749 86.199057 192.210093 85.605347 193.266757 84.548683 
C 194.32342 83.49202 194.917131 82.058676 194.917131 80.564328 
C 194.917131 79.069981 194.32342 77.636636 193.266757 76.579973 
C 192.210093 75.52331 190.776749 74.929599 189.282402 74.929599 
C 187.788054 74.929599 186.35471 75.52331 185.298047 76.579973 
C 184.241383 77.636636 183.647673 79.069981 183.647673 80.564328 
C 183.647673 82.058676 184.241383 83.49202 185.298047 84.548683 
C 186.35471 85.605347 187.788054 86.199057 189.282402 86.199057 
z
" style="fill:#cc0000;fill-opacity:0.1;stroke:#cc0000;stroke-dasharray:7.4,3.2;stroke-dashoffset:0;stroke-linejoin:miter;stroke-width:2;"/>
   </g>
   <g id="patch_94">
    <path clip-path="url(#p9beb9a8c31)" d="M 239.994962 56.920147 
C 241.48931 56.920147 242.922654 56.326436 243.979318 55.269773 
C 245.035981 54.213109 245.629691 52.779765 245.629691 51.285418 
C 245.629691 49.79107 245.035981 48.357726 243.979318 47.301062 
C 242.922654 46.244399 241.48931 45.650689 239.994962 45.650689 
C 238.500615 45.650689 237.067271 46.244399 236.010607 47.301062 
C 234.953944 48.357726 234.360234 49.79107 234.360234 51.285418 
C 234.360234 52.779765 234.953944 54.213109 236.010607 55.269773 
C 237.067271 56.326436 238.500615 56.920147 239.994962 56.920147 
z
" style="fill:#cc0000;fill-opacity:0.1;stroke:#cc0000;stroke-dasharray:7.4,3.2;stroke-dashoffset:0;stroke-linejoin:miter;stroke-width:2;"/>
   </g>
   <g id="patch_95">
    <path clip-path="url(#p9beb9a8c31)" d="M 290.707523 86.199057 
C 292.201871 86.199057 293.635215 85.605347 294.691878 84.548683 
C 295.748542 83.49202 296.342252 82.058676 296.342252 80.564328 
C 296.342252 79.069981 295.748542 77.636636 294.691878 76.579973 
C 293.635215 75.52331 292.201871 74.929599 290.707523 74.929599 
C 289.213176 74.929599 287.779831 75.52331 286.723168 76.579973 
C 285.666505 77.636636 285.072794 79.069981 285.072794 80.564328 
C 285.072794 82.058676 285.666505 83.49202 286.723168 84.548683 
C 287.779831 85.605347 289.213176 86.199057 290.707523 86.199057 
z
" style="fill:#cc0000;fill-opacity:0.1;stroke:#cc0000;stroke-dasharray:7.4,3.2;stroke-dashoffset:0;stroke-linejoin:miter;stroke-width:2;"/>
   </g>
   <g id="patch_96">
    <path clip-path="url(#p9beb9a8c31)" d="M 341.420084 56.920147 
C 342.914432 56.920147 344.347776 56.326436 345.404439 55.269773 
C 346.461102 54.213109 347.054813 52.779765 347.054813 51.285418 
C 347.054813 49.79107 346.461102 48.357726 345.404439 47.301062 
C 344.347776 46.244399 342.914432 45.650689 341.420084 45.650689 
C 339.925736 45.650689 338.492392 46.244399 337.435729 47.301062 
C 336.379066 48.357726 335.785355 49.79107 335.785355 51.285418 
C 335.785355 52.779765 336.379066 54.213109 337.435729 55.269773 
C 338.492392 56.326436 339.925736 56.920147 341.420084 56.920147 
z
" style="fill:#cc0000;fill-opacity:0.1;stroke:#cc0000;stroke-dasharray:7.4,3.2;stroke-dashoffset:0;stroke-linejoin:miter;stroke-width:2;"/>
   </g>
   <g id="patch_97">
    <path clip-path="url(#p9beb9a8c31)" d="M 392.132645 86.199057 
C 393.626992 86.199057 395.060336 85.605347 396.117 84.548683 
C 397.173663 83.49202 397.767374 82.058676 397.767374 80.564328 
C 397.767374 79.069981 397.173663 77.636636 396.117 76.579973 
C 395.060336 75.52331 393.626992 74.929599 392.132645 74.929599 
C 390.638297 74.929599 389.204953 75.52331 388.14829 76.579973 
C 387.091626 77.636636 386.497916 79.069981 386.497916 80.564328 
C 386.497916 82.058676 387.091626 83.49202 388.14829 84.548683 
C 389.204953 85.605347 390.638297 86.199057 392.132645 86.199057 
z
" style="fill:#cc0000;fill-opacity:0.1;stroke:#cc0000;stroke-dasharray:7.4,3.2;stroke-dashoffset:0;stroke-linejoin:miter;stroke-width:2;"/>
   </g>
   <g id="patch_98">
    <path clip-path="url(#p9beb9a8c31)" d="M 442.845205 56.920147 
C 444.339553 56.920147 445.772897 56.326436 446.829561 55.269773 
C 447.886224 54.213109 448.479934 52.779765 448.479934 51.285418 
C 448.479934 49.79107 447.886224 48.357726 446.829561 47.301062 
C 445.772897 46.244399 444.339553 45.650689 442.845205 45.650689 
C 441.350858 45.650689 439.917514 46.244399 438.86085 47.301062 
C 437.804187 48.357726 437.210477 49.79107 437.210477 51.285418 
C 437.210477 52.779765 437.804187 54.213109 438.86085 55.269773 
C 439.917514 56.326436 441.350858 56.920147 442.845205 56.920147 
z
" style="fill:#cc0000;fill-opacity:0.1;stroke:#cc0000;stroke-dasharray:7.4,3.2;stroke-dashoffset:0;stroke-linejoin:miter;stroke-width:2;"/>
   </g>
   <g id="matplotlib.axis_1">
    <g id="xtick_1">
     <g id="line2d_1">
      <defs>
       <path d="M 0 0 
L 0 3.5 
" id="m18d99612aa" style="stroke:#000000;stroke-width:0.8;"/>
      </defs>
      <g>
       <use style="stroke:#000000;stroke-width:0.8;" x="58.3313" xlink:href="#m18d99612aa" y="250.723722"/>
      </g>
     </g>
     <g id="text_1">
      <!-- 10 -->
      <defs>
       <path d="M 10.59375 35.5 
L 73.1875 35.5 
L 73.1875 27.203125 
L 10.59375 27.203125 
z
" id="DejaVuSans-2212"/>
       <path d="M 12.40625 8.296875 
L 28.515625 8.296875 
L 28.515625 63.921875 
L 10.984375 60.40625 
L 10.984375 69.390625 
L 28.421875 72.90625 
L 38.28125 72.90625 
L 38.28125 8.296875 
L 54.390625 8.296875 
L 54.390625 0 
L 12.40625 0 
z
" id="DejaVuSans-31"/>
       <path d="M 31.78125 66.40625 
Q 24.171875 66.40625 20.328125 58.90625 
Q 16.5 51.421875 16.5 36.375 
Q 16.5 21.390625 20.328125 13.890625 
Q 24.171875 6.390625 31.78125 6.390625 
Q 39.453125 6.390625 43.28125 13.890625 
Q 47.125 21.390625 47.125 36.375 
Q 47.125 51.421875 43.28125 58.90625 
Q 39.453125 66.40625 31.78125 66.40625 
z
M 31.78125 74.21875 
Q 44.046875 74.21875 50.515625 64.515625 
Q 56.984375 54.828125 56.984375 36.375 
Q 56.984375 17.96875 50.515625 8.265625 
Q 44.046875 -1.421875 31.78125 -1.421875 
Q 19.53125 -1.421875 13.0625 8.265625 
Q 6.59375 17.96875 6.59375 36.375 
Q 6.59375 54.828125 13.0625 64.515625 
Q 19.53125 74.21875 31.78125 74.21875 
z
" id="DejaVuSans-30"/>
      </defs>
      <g transform="translate(47.778957 265.322159)scale(0.1 -0.1)">
       <use xlink:href="#DejaVuSans-2212"/>
       <use x="83.789062" xlink:href="#DejaVuSans-31"/>
       <use x="147.412109" xlink:href="#DejaVuSans-30"/>
      </g>
     </g>
    </g>
    <g id="xtick_2">
     <g id="line2d_2">
      <g>
       <use style="stroke:#000000;stroke-width:0.8;" x="103.409132" xlink:href="#m18d99612aa" y="250.723722"/>
      </g>
     </g>
     <g id="text_2">
      <!-- 8 -->
      <defs>
       <path d="M 31.78125 34.625 
Q 24.75 34.625 20.71875 30.859375 
Q 16.703125 27.09375 16.703125 20.515625 
Q 16.703125 13.921875 20.71875 10.15625 
Q 24.75 6.390625 31.78125 6.390625 
Q 38.8125 6.390625 42.859375 10.171875 
Q 46.921875 13.96875 46.921875 20.515625 
Q 46.921875 27.09375 42.890625 30.859375 
Q 38.875 34.625 31.78125 34.625 
z
M 21.921875 38.8125 
Q 15.578125 40.375 12.03125 44.71875 
Q 8.5 49.078125 8.5 55.328125 
Q 8.5 64.0625 14.71875 69.140625 
Q 20.953125 74.21875 31.78125 74.21875 
Q 42.671875 74.21875 48.875 69.140625 
Q 55.078125 64.0625 55.078125 55.328125 
Q 55.078125 49.078125 51.53125 44.71875 
Q 48 40.375 41.703125 38.8125 
Q 48.828125 37.15625 52.796875 32.3125 
Q 56.78125 27.484375 56.78125 20.515625 
Q 56.78125 9.90625 50.3125 4.234375 
Q 43.84375 -1.421875 31.78125 -1.421875 
Q 19.734375 -1.421875 13.25 4.234375 
Q 6.78125 9.90625 6.78125 20.515625 
Q 6.78125 27.484375 10.78125 32.3125 
Q 14.796875 37.15625 21.921875 38.8125 
z
M 18.3125 54.390625 
Q 18.3125 48.734375 21.84375 45.5625 
Q 25.390625 42.390625 31.78125 42.390625 
Q 38.140625 42.390625 41.71875 45.5625 
Q 45.3125 48.734375 45.3125 54.390625 
Q 45.3125 60.0625 41.71875 63.234375 
Q 38.140625 66.40625 31.78125 66.40625 
Q 25.390625 66.40625 21.84375 63.234375 
Q 18.3125 60.0625 18.3125 54.390625 
z
" id="DejaVuSans-38"/>
      </defs>
      <g transform="translate(96.038038 265.322159)scale(0.1 -0.1)">
       <use xlink:href="#DejaVuSans-2212"/>
       <use x="83.789062" xlink:href="#DejaVuSans-38"/>
      </g>
     </g>
    </g>
    <g id="xtick_3">
     <g id="line2d_3">
      <g>
       <use style="stroke:#000000;stroke-width:0.8;" x="148.486964" xlink:href="#m18d99612aa" y="250.723722"/>
      </g>
     </g>
     <g id="text_3">
      <!-- 6 -->
      <defs>
       <path d="M 33.015625 40.375 
Q 26.375 40.375 22.484375 35.828125 
Q 18.609375 31.296875 18.609375 23.390625 
Q 18.609375 15.53125 22.484375 10.953125 
Q 26.375 6.390625 33.015625 6.390625 
Q 39.65625 6.390625 43.53125 10.953125 
Q 47.40625 15.53125 47.40625 23.390625 
Q 47.40625 31.296875 43.53125 35.828125 
Q 39.65625 40.375 33.015625 40.375 
z
M 52.59375 71.296875 
L 52.59375 62.3125 
Q 48.875 64.0625 45.09375 64.984375 
Q 41.3125 65.921875 37.59375 65.921875 
Q 27.828125 65.921875 22.671875 59.328125 
Q 17.53125 52.734375 16.796875 39.40625 
Q 19.671875 43.65625 24.015625 45.921875 
Q 28.375 48.1875 33.59375 48.1875 
Q 44.578125 48.1875 50.953125 41.515625 
Q 57.328125 34.859375 57.328125 23.390625 
Q 57.328125 12.15625 50.6875 5.359375 
Q 44.046875 -1.421875 33.015625 -1.421875 
Q 20.359375 -1.421875 13.671875 8.265625 
Q 6.984375 17.96875 6.984375 36.375 
Q 6.984375 53.65625 15.1875 63.9375 
Q 23.390625 74.21875 37.203125 74.21875 
Q 40.921875 74.21875 44.703125 73.484375 
Q 48.484375 72.75 52.59375 71.296875 
z
" id="DejaVuSans-36"/>
      </defs>
      <g transform="translate(141.11587 265.322159)scale(0.1 -0.1)">
       <use xlink:href="#DejaVuSans-2212"/>
       <use x="83.789062" xlink:href="#DejaVuSans-36"/>
      </g>
     </g>
    </g>
    <g id="xtick_4">
     <g id="line2d_4">
      <g>
       <use style="stroke:#000000;stroke-width:0.8;" x="193.564796" xlink:href="#m18d99612aa" y="250.723722"/>
      </g>
     </g>
     <g id="text_4">
      <!-- 4 -->
      <defs>
       <path d="M 37.796875 64.3125 
L 12.890625 25.390625 
L 37.796875 25.390625 
z
M 35.203125 72.90625 
L 47.609375 72.90625 
L 47.609375 25.390625 
L 58.015625 25.390625 
L 58.015625 17.1875 
L 47.609375 17.1875 
L 47.609375 0 
L 37.796875 0 
L 37.796875 17.1875 
L 4.890625 17.1875 
L 4.890625 26.703125 
z
" id="DejaVuSans-34"/>
      </defs>
      <g transform="translate(186.193702 265.322159)scale(0.1 -0.1)">
       <use xlink:href="#DejaVuSans-2212"/>
       <use x="83.789062" xlink:href="#DejaVuSans-34"/>
      </g>
     </g>
    </g>
    <g id="xtick_5">
     <g id="line2d_5">
      <g>
       <use style="stroke:#000000;stroke-width:0.8;" x="238.642628" xlink:href="#m18d99612aa" y="250.723722"/>
      </g>
     </g>
     <g id="text_5">
      <!-- 2 -->
      <defs>
       <path d="M 19.1875 8.296875 
L 53.609375 8.296875 
L 53.609375 0 
L 7.328125 0 
L 7.328125 8.296875 
Q 12.9375 14.109375 22.625 23.890625 
Q 32.328125 33.6875 34.8125 36.53125 
Q 39.546875 41.84375 41.421875 45.53125 
Q 43.3125 49.21875 43.3125 52.78125 
Q 43.3125 58.59375 39.234375 62.25 
Q 35.15625 65.921875 28.609375 65.921875 
Q 23.96875 65.921875 18.8125 64.3125 
Q 13.671875 62.703125 7.8125 59.421875 
L 7.8125 69.390625 
Q 13.765625 71.78125 18.9375 73 
Q 24.125 74.21875 28.421875 74.21875 
Q 39.75 74.21875 46.484375 68.546875 
Q 53.21875 62.890625 53.21875 53.421875 
Q 53.21875 48.921875 51.53125 44.890625 
Q 49.859375 40.875 45.40625 35.40625 
Q 44.1875 33.984375 37.640625 27.21875 
Q 31.109375 20.453125 19.1875 8.296875 
z
" id="DejaVuSans-32"/>
      </defs>
      <g transform="translate(231.271534 265.322159)scale(0.1 -0.1)">
       <use xlink:href="#DejaVuSans-2212"/>
       <use x="83.789062" xlink:href="#DejaVuSans-32"/>
      </g>
     </g>
    </g>
    <g id="xtick_6">
     <g id="line2d_6">
      <g>
       <use style="stroke:#000000;stroke-width:0.8;" x="283.720459" xlink:href="#m18d99612aa" y="250.723722"/>
      </g>
     </g>
     <g id="text_6">
      <!-- 0 -->
      <g transform="translate(280.539209 265.322159)scale(0.1 -0.1)">
       <use xlink:href="#DejaVuSans-30"/>
      </g>
     </g>
    </g>
    <g id="xtick_7">
     <g id="line2d_7">
      <g>
       <use style="stroke:#000000;stroke-width:0.8;" x="328.798291" xlink:href="#m18d99612aa" y="250.723722"/>
      </g>
     </g>
     <g id="text_7">
      <!-- 2 -->
      <g transform="translate(325.617041 265.322159)scale(0.1 -0.1)">
       <use xlink:href="#DejaVuSans-32"/>
      </g>
     </g>
    </g>
    <g id="xtick_8">
     <g id="line2d_8">
      <g>
       <use style="stroke:#000000;stroke-width:0.8;" x="373.876123" xlink:href="#m18d99612aa" y="250.723722"/>
      </g>
     </g>
     <g id="text_8">
      <!-- 4 -->
      <g transform="translate(370.694873 265.322159)scale(0.1 -0.1)">
       <use xlink:href="#DejaVuSans-34"/>
      </g>
     </g>
    </g>
   </g>
   <g id="matplotlib.axis_2">
    <g id="ytick_1">
     <g id="line2d_9">
      <defs>
       <path d="M 0 0 
L -3.5 0 
" id="m842c8be0b5" style="stroke:#000000;stroke-width:0.8;"/>
      </defs>
      <g>
       <use style="stroke:#000000;stroke-width:0.8;" x="57.6" xlink:href="#m842c8be0b5" y="240.547271"/>
      </g>
     </g>
     <g id="text_9">
      <!-- 4 -->
      <g transform="translate(35.857813 244.34649)scale(0.1 -0.1)">
       <use xlink:href="#DejaVuSans-2212"/>
       <use x="83.789062" xlink:href="#DejaVuSans-34"/>
      </g>
     </g>
    </g>
    <g id="ytick_2">
     <g id="line2d_10">
      <g>
       <use style="stroke:#000000;stroke-width:0.8;" x="57.6" xlink:href="#m842c8be0b5" y="218.008355"/>
      </g>
     </g>
     <g id="text_10">
      <!-- 3 -->
      <defs>
       <path d="M 40.578125 39.3125 
Q 47.65625 37.796875 51.625 33 
Q 55.609375 28.21875 55.609375 21.1875 
Q 55.609375 10.40625 48.1875 4.484375 
Q 40.765625 -1.421875 27.09375 -1.421875 
Q 22.515625 -1.421875 17.65625 -0.515625 
Q 12.796875 0.390625 7.625 2.203125 
L 7.625 11.71875 
Q 11.71875 9.328125 16.59375 8.109375 
Q 21.484375 6.890625 26.8125 6.890625 
Q 36.078125 6.890625 40.9375 10.546875 
Q 45.796875 14.203125 45.796875 21.1875 
Q 45.796875 27.640625 41.28125 31.265625 
Q 36.765625 34.90625 28.71875 34.90625 
L 20.21875 34.90625 
L 20.21875 43.015625 
L 29.109375 43.015625 
Q 36.375 43.015625 40.234375 45.921875 
Q 44.09375 48.828125 44.09375 54.296875 
Q 44.09375 59.90625 40.109375 62.90625 
Q 36.140625 65.921875 28.71875 65.921875 
Q 24.65625 65.921875 20.015625 65.03125 
Q 15.375 64.15625 9.8125 62.3125 
L 9.8125 71.09375 
Q 15.4375 72.65625 20.34375 73.4375 
Q 25.25 74.21875 29.59375 74.21875 
Q 40.828125 74.21875 47.359375 69.109375 
Q 53.90625 64.015625 53.90625 55.328125 
Q 53.90625 49.265625 50.4375 45.09375 
Q 46.96875 40.921875 40.578125 39.3125 
z
" id="DejaVuSans-33"/>
      </defs>
      <g transform="translate(35.857813 221.807574)scale(0.1 -0.1)">
       <use xlink:href="#DejaVuSans-2212"/>
       <use x="83.789062" xlink:href="#DejaVuSans-33"/>
      </g>
     </g>
    </g>
    <g id="ytick_3">
     <g id="line2d_11">
      <g>
       <use style="stroke:#000000;stroke-width:0.8;" x="57.6" xlink:href="#m842c8be0b5" y="195.469439"/>
      </g>
     </g>
     <g id="text_11">
      <!-- 2 -->
      <g transform="translate(35.857813 199.268658)scale(0.1 -0.1)">
       <use xlink:href="#DejaVuSans-2212"/>
       <use x="83.789062" xlink:href="#DejaVuSans-32"/>
      </g>
     </g>
    </g>
    <g id="ytick_4">
     <g id="line2d_12">
      <g>
       <use style="stroke:#000000;stroke-width:0.8;" x="57.6" xlink:href="#m842c8be0b5" y="172.930523"/>
      </g>
     </g>
     <g id="text_12">
      <!-- 1 -->
      <g transform="translate(35.857813 176.729742)scale(0.1 -0.1)">
       <use xlink:href="#DejaVuSans-2212"/>
       <use x="83.789062" xlink:href="#DejaVuSans-31"/>
      </g>
     </g>
    </g>
    <g id="ytick_5">
     <g id="line2d_13">
      <g>
       <use style="stroke:#000000;stroke-width:0.8;" x="57.6" xlink:href="#m842c8be0b5" y="150.391607"/>
      </g>
     </g>
     <g id="text_13">
      <!-- 0 -->
      <g transform="translate(44.2375 154.190826)scale(0.1 -0.1)">
       <use xlink:href="#DejaVuSans-30"/>
      </g>
     </g>
    </g>
    <g id="ytick_6">
     <g id="line2d_14">
      <g>
       <use style="stroke:#000000;stroke-width:0.8;" x="57.6" xlink:href="#m842c8be0b5" y="127.852691"/>
      </g>
     </g>
     <g id="text_14">
      <!-- 1 -->
      <g transform="translate(44.2375 131.65191)scale(0.1 -0.1)">
       <use xlink:href="#DejaVuSans-31"/>
      </g>
     </g>
    </g>
    <g id="ytick_7">
     <g id="line2d_15">
      <g>
       <use style="stroke:#000000;stroke-width:0.8;" x="57.6" xlink:href="#m842c8be0b5" y="105.313776"/>
      </g>
     </g>
     <g id="text_15">
      <!-- 2 -->
      <g transform="translate(44.2375 109.112994)scale(0.1 -0.1)">
       <use xlink:href="#DejaVuSans-32"/>
      </g>
     </g>
    </g>
   </g>
   <g id="line2d_16">
    <path clip-path="url(#p9beb9a8c31)" d="M 272.232567 160.954554 
L 268.617333 157.561407 
L 264.856347 154.330564 
L 260.95689 151.268277 
L 256.92651 148.380474 
L 252.773008 145.672746 
L 248.504425 143.150334 
L 244.129023 140.818121 
L 239.655271 138.68062 
L 235.091829 136.741969 
L 230.447531 135.005921 
L 225.731367 133.475837 
L 220.952465 132.154678 
L 216.120076 131.045002 
L 211.243554 130.148956 
L 206.332338 129.468274 
L 201.395936 129.004276 
L 196.443901 128.757858 
L 191.485821 128.729498 
L 186.531292 128.919251 
L 181.589904 129.326748 
L 176.671223 129.951203 
L 171.78477 130.791405 
L 166.940003 131.845728 
L 162.1463 133.112132 
L 157.412941 134.588166 
L 152.749087 136.270971 
L 148.163766 138.157291 
L 143.665855 140.243474 
L 139.26406 142.525483 
L 134.966901 144.998899 
L 130.782696 147.658935 
L 126.719544 150.500443 
L 122.785311 153.517921 
L 118.987612 156.70553 
L 115.333798 160.057098 
L 111.830942 163.566138 
L 108.485823 167.225858 
L 105.304919 171.029174 
L 102.294384 174.968723 
L 99.460048 179.03688 
L 96.807396 183.225771 
L 94.341563 187.527286 
L 92.067322 191.9331 
L 91.408374 193.305053 
L 91.587919 193.168804 
L 95.467619 190.081524 
L 99.207767 186.826581 
L 102.801124 183.410274 
L 106.240734 179.839217 
L 109.51994 176.120323 
L 112.632393 172.260789 
L 115.572069 168.268087 
L 118.333278 164.149945 
L 120.910674 159.914335 
L 123.299269 155.569455 
L 125.49444 151.123717 
L 127.491936 146.585724 
L 129.287892 141.964263 
L 130.878831 137.268277 
L 132.261674 132.506858 
L 133.45089 127.611189 
L 133.608885 127.77193 
L 137.164905 131.227084 
L 140.869462 134.522479 
L 144.715383 137.651737 
L 148.695225 140.6088 
L 152.801284 143.387945 
L 157.025612 145.983792 
L 161.360031 148.391315 
L 165.796153 150.605856 
L 170.325389 152.623127 
L 174.938973 154.439224 
L 177.81321 155.454292 
L 180.056317 159.876038 
L 182.491747 164.19484 
L 185.114786 168.402337 
L 187.920356 172.490386 
L 190.903027 176.451072 
L 194.057025 180.276731 
L 197.376245 183.959955 
L 200.854263 187.493616 
L 204.484345 190.870874 
L 208.259465 194.085191 
L 212.172316 197.130345 
L 216.215323 200.000442 
L 220.380661 202.689927 
L 224.660266 205.193593 
L 229.045856 207.506593 
L 233.528939 209.624452 
L 238.10084 211.543068 
L 242.752708 213.258729 
L 247.475538 214.768113 
L 252.260189 216.068299 
L 257.097398 217.15677 
L 261.977804 218.031419 
L 266.891957 218.690553 
L 271.830348 219.132896 
L 276.783415 219.357591 
L 281.741572 219.364205 
L 286.695222 219.152723 
L 291.634774 218.723556 
L 296.550669 218.077535 
L 301.43339 217.215908 
L 306.273486 216.140346 
L 311.061589 214.852929 
L 315.788429 213.356149 
L 320.444857 211.652904 
L 325.021859 209.746491 
L 329.510577 207.6406 
L 333.902321 205.339307 
L 338.188591 202.847067 
L 342.361089 200.168704 
L 346.411738 197.309403 
L 350.332699 194.274698 
L 354.11638 191.070463 
L 357.755459 187.702901 
L 361.242891 184.178531 
L 364.571925 180.504175 
L 367.736118 176.686944 
L 370.729344 172.734228 
L 373.54581 168.653679 
L 376.180064 164.453194 
L 378.627007 160.140905 
L 380.911626 155.663597 
L 377.084695 158.81605 
L 373.40013 162.133783 
L 369.865065 165.610373 
L 366.486342 169.239091 
L 363.270501 173.012913 
L 360.223767 176.924534 
L 357.352037 180.966382 
L 354.660871 185.130633 
L 352.155477 189.409227 
L 349.840706 193.793882 
L 347.721038 198.276111 
L 345.800575 202.847236 
L 344.083036 207.498411 
L 342.571745 212.220631 
L 341.269627 217.004757 
L 340.260255 221.444811 
L 340.129486 221.261237 
L 337.160681 217.290146 
L 334.020078 213.453483 
L 330.713756 209.758676 
L 327.248114 206.212876 
L 323.629863 202.822947 
L 319.866004 199.595451 
L 315.963824 196.536634 
L 311.930876 193.652419 
L 307.774967 190.948388 
L 303.504142 188.429774 
L 299.126666 186.101454 
L 294.651014 183.967934 
L 290.08585 182.033345 
L 285.440009 180.30143 
L 280.722485 178.775542 
L 275.942409 177.458635 
L 271.109035 176.353258 
L 266.231718 175.461551 
L 261.319899 174.78524 
L 256.383085 174.325634 
L 251.430833 174.083622 
L 246.47273 174.059673 
L 241.518371 174.253833 
L 237.454502 174.576604 
L 237.403666 173.404594 
L 236.583256 173.931435 
L 236.69397 172.967636 
L 235.655905 173.448918 
L 235.655905 173.448918 
" style="fill:none;stroke:#1f77b4;stroke-linecap:square;stroke-width:1.5;"/>
   </g>
   <g id="patch_99">
    <path d="M 57.6 250.723722 
L 57.6 98.332278 
" style="fill:none;stroke:#000000;stroke-linecap:square;stroke-linejoin:miter;stroke-width:0.8;"/>
   </g>
   <g id="patch_100">
    <path d="M 414.72 250.723722 
L 414.72 98.332278 
" style="fill:none;stroke:#000000;stroke-linecap:square;stroke-linejoin:miter;stroke-width:0.8;"/>
   </g>
   <g id="patch_101">
    <path d="M 57.6 250.723722 
L 414.72 250.723722 
" style="fill:none;stroke:#000000;stroke-linecap:square;stroke-linejoin:miter;stroke-width:0.8;"/>
   </g>
   <g id="patch_102">
    <path d="M 57.6 98.332278 
L 414.72 98.332278 
" style="fill:none;stroke:#000000;stroke-linecap:square;stroke-linejoin:miter;stroke-width:0.8;"/>
   </g>
  </g>
 </g>
 <defs>
  <clipPath id="p9beb9a8c31">
   <rect height="152.391444" width="357.12" x="57.6" y="98.332278"/>
  </clipPath>
 </defs>
</svg>
