<?xml version="1.0" encoding="utf-8" standalone="no"?>
<!DOCTYPE svg PUBLIC "-//W3C//DTD SVG 1.1//EN"
  "http://www.w3.org/Graphics/SVG/1.1/DTD/svg11.dtd">
<!-- Created with matplotlib (http://matplotlib.org/) -->
<svg height="345.6pt" version="1.1" viewBox="0 0 460.8 345.6" width="460.8pt" xmlns="http://www.w3.org/2000/svg" xmlns:xlink="http://www.w3.org/1999/xlink">
 <defs>
  <style type="text/css">
*{stroke-linecap:butt;stroke-linejoin:round;}
  </style>
 </defs>
 <g id="figure_1">
  <g id="patch_1">
   <path d="M 0 345.6 
L 460.8 345.6 
L 460.8 0 
L 0 0 
z
" style="fill:#ffffff;"/>
  </g>
  <g id="axes_1">
   <g id="patch_2">
    <path d="M 123.044857 307.584 
L 349.275143 307.584 
L 349.275143 41.472 
L 123.044857 41.472 
z
" style="fill:#ffffff;"/>
   </g>
   <g id="PathCollection_1">
    <defs>
     <path d="M 0 3 
C 0.795609 3 1.55874 2.683901 2.12132 2.12132 
C 2.683901 1.55874 3 0.795609 3 0 
C 3 -0.795609 2.683901 -1.55874 2.12132 -2.12132 
C 1.55874 -2.683901 0.795609 -3 0 -3 
C -0.795609 -3 -1.55874 -2.683901 -2.12132 -2.12132 
C -2.683901 -1.55874 -3 -0.795609 -3 0 
C -3 0.795609 -2.683901 1.55874 -2.12132 2.12132 
C -1.55874 2.683901 -0.795609 3 0 3 
z
" id="m3a01cbe8d6" style="stroke:#000000;"/>
    </defs>
    <g clip-path="url(#p25463acbe8)">
     <use style="stroke:#000000;" x="291.553882" xlink:href="#m3a01cbe8d6" y="267.876938"/>
    </g>
   </g>
   <g id="patch_3">
    <path clip-path="url(#p25463acbe8)" d="M 160.748436 326.397344 
C 163.180336 326.397344 165.512959 325.43114 167.232572 323.711527 
C 168.952185 321.991914 169.91839 319.659291 169.91839 317.227391 
C 169.91839 314.795491 168.952185 312.462868 167.232572 310.743255 
C 165.512959 309.023642 163.180336 308.057438 160.748436 308.057438 
C 158.316536 308.057438 155.983913 309.023642 154.2643 310.743255 
C 152.544687 312.462868 151.578483 314.795491 151.578483 317.227391 
C 151.578483 319.659291 152.544687 321.991914 154.2643 323.711527 
C 155.983913 325.43114 158.316536 326.397344 160.748436 326.397344 
z
" style="fill:#009900;fill-opacity:0.5;stroke:#009900;stroke-linejoin:miter;stroke-width:2;"/>
   </g>
   <g id="patch_4">
    <path clip-path="url(#p25463acbe8)" d="M 229.523086 286.690282 
C 231.954986 286.690282 234.287609 285.724078 236.007222 284.004465 
C 237.726835 282.284852 238.693039 279.952229 238.693039 277.520329 
C 238.693039 275.088429 237.726835 272.755806 236.007222 271.036193 
C 234.287609 269.31658 231.954986 268.350376 229.523086 268.350376 
C 227.091186 268.350376 224.758563 269.31658 223.03895 271.036193 
C 221.319337 272.755806 220.353132 275.088429 220.353132 277.520329 
C 220.353132 279.952229 221.319337 282.284852 223.03895 284.004465 
C 224.758563 285.724078 227.091186 286.690282 229.523086 286.690282 
z
" style="fill:#009900;fill-opacity:0.5;stroke:#009900;stroke-linejoin:miter;stroke-width:2;"/>
   </g>
   <g id="patch_5">
    <path clip-path="url(#p25463acbe8)" d="M 298.297735 326.397344 
C 300.729635 326.397344 303.062258 325.43114 304.781871 323.711527 
C 306.501484 321.991914 307.467688 319.659291 307.467688 317.227391 
C 307.467688 314.795491 306.501484 312.462868 304.781871 310.743255 
C 303.062258 309.023642 300.729635 308.057438 298.297735 308.057438 
C 295.865835 308.057438 293.533212 309.023642 291.813599 310.743255 
C 290.093986 312.462868 289.127782 314.795491 289.127782 317.227391 
C 289.127782 319.659291 290.093986 321.991914 291.813599 323.711527 
C 293.533212 325.43114 295.865835 326.397344 298.297735 326.397344 
z
" style="fill:#009900;fill-opacity:0.5;stroke:#009900;stroke-linejoin:miter;stroke-width:2;"/>
   </g>
   <g id="patch_6">
    <path clip-path="url(#p25463acbe8)" d="M 367.072384 286.690282 
C 369.504284 286.690282 371.836907 285.724078 373.55652 284.004465 
C 375.276133 282.284852 376.242338 279.952229 376.242338 277.520329 
C 376.242338 275.088429 375.276133 272.755806 373.55652 271.036193 
C 371.836907 269.31658 369.504284 268.350376 367.072384 268.350376 
C 364.640484 268.350376 362.307861 269.31658 360.588248 271.036193 
C 358.868635 272.755806 357.902431 275.088429 357.902431 277.520329 
C 357.902431 279.952229 358.868635 282.284852 360.588248 284.004465 
C 362.307861 285.724078 364.640484 286.690282 367.072384 286.690282 
z
" style="fill:#009900;fill-opacity:0.5;stroke:#009900;stroke-linejoin:miter;stroke-width:2;"/>
   </g>
   <g id="patch_7">
    <path clip-path="url(#p25463acbe8)" d="M 435.847034 326.397344 
C 438.278934 326.397344 440.611557 325.43114 442.33117 323.711527 
C 444.050783 321.991914 445.016987 319.659291 445.016987 317.227391 
C 445.016987 314.795491 444.050783 312.462868 442.33117 310.743255 
C 440.611557 309.023642 438.278934 308.057438 435.847034 308.057438 
C 433.415134 308.057438 431.082511 309.023642 429.362898 310.743255 
C 427.643285 312.462868 426.67708 314.795491 426.67708 317.227391 
C 426.67708 319.659291 427.643285 321.991914 429.362898 323.711527 
C 431.082511 325.43114 433.415134 326.397344 435.847034 326.397344 
z
" style="fill:#009900;fill-opacity:0.5;stroke:#009900;stroke-linejoin:miter;stroke-width:2;"/>
   </g>
   <g id="patch_8">
    <path clip-path="url(#p25463acbe8)" d="M 504.621683 286.690282 
C 507.053583 286.690282 509.386206 285.724078 511.105819 284.004465 
C 512.825432 282.284852 513.791636 279.952229 513.791636 277.520329 
C 513.791636 275.088429 512.825432 272.755806 511.105819 271.036193 
C 509.386206 269.31658 507.053583 268.350376 504.621683 268.350376 
C 502.189783 268.350376 499.85716 269.31658 498.137547 271.036193 
C 496.417934 272.755806 495.45173 275.088429 495.45173 277.520329 
C 495.45173 279.952229 496.417934 282.284852 498.137547 284.004465 
C 499.85716 285.724078 502.189783 286.690282 504.621683 286.690282 
z
" style="fill:#009900;fill-opacity:0.5;stroke:#009900;stroke-linejoin:miter;stroke-width:2;"/>
   </g>
   <g id="patch_9">
    <path clip-path="url(#p25463acbe8)" d="M 160.748436 246.98322 
C 163.180336 246.98322 165.512959 246.017016 167.232572 244.297403 
C 168.952185 242.57779 169.91839 240.245166 169.91839 237.813266 
C 169.91839 235.381366 168.952185 233.048743 167.232572 231.32913 
C 165.512959 229.609517 163.180336 228.643313 160.748436 228.643313 
C 158.316536 228.643313 155.983913 229.609517 154.2643 231.32913 
C 152.544687 233.048743 151.578483 235.381366 151.578483 237.813266 
C 151.578483 240.245166 152.544687 242.57779 154.2643 244.297403 
C 155.983913 246.017016 158.316536 246.98322 160.748436 246.98322 
z
" style="fill:#009900;fill-opacity:0.5;stroke:#009900;stroke-linejoin:miter;stroke-width:2;"/>
   </g>
   <g id="patch_10">
    <path clip-path="url(#p25463acbe8)" d="M 229.523086 207.276157 
C 231.954986 207.276157 234.287609 206.309953 236.007222 204.59034 
C 237.726835 202.870727 238.693039 200.538104 238.693039 198.106204 
C 238.693039 195.674304 237.726835 193.341681 236.007222 191.622068 
C 234.287609 189.902455 231.954986 188.936251 229.523086 188.936251 
C 227.091186 188.936251 224.758563 189.902455 223.03895 191.622068 
C 221.319337 193.341681 220.353132 195.674304 220.353132 198.106204 
C 220.353132 200.538104 221.319337 202.870727 223.03895 204.59034 
C 224.758563 206.309953 227.091186 207.276157 229.523086 207.276157 
z
" style="fill:#009900;fill-opacity:0.5;stroke:#009900;stroke-linejoin:miter;stroke-width:2;"/>
   </g>
   <g id="patch_11">
    <path clip-path="url(#p25463acbe8)" d="M 298.297735 246.98322 
C 300.729635 246.98322 303.062258 246.017016 304.781871 244.297403 
C 306.501484 242.57779 307.467688 240.245166 307.467688 237.813266 
C 307.467688 235.381366 306.501484 233.048743 304.781871 231.32913 
C 303.062258 229.609517 300.729635 228.643313 298.297735 228.643313 
C 295.865835 228.643313 293.533212 229.609517 291.813599 231.32913 
C 290.093986 233.048743 289.127782 235.381366 289.127782 237.813266 
C 289.127782 240.245166 290.093986 242.57779 291.813599 244.297403 
C 293.533212 246.017016 295.865835 246.98322 298.297735 246.98322 
z
" style="fill:#009900;fill-opacity:0.5;stroke:#009900;stroke-linejoin:miter;stroke-width:2;"/>
   </g>
   <g id="patch_12">
    <path clip-path="url(#p25463acbe8)" d="M 367.072384 207.276157 
C 369.504284 207.276157 371.836907 206.309953 373.55652 204.59034 
C 375.276133 202.870727 376.242338 200.538104 376.242338 198.106204 
C 376.242338 195.674304 375.276133 193.341681 373.55652 191.622068 
C 371.836907 189.902455 369.504284 188.936251 367.072384 188.936251 
C 364.640484 188.936251 362.307861 189.902455 360.588248 191.622068 
C 358.868635 193.341681 357.902431 195.674304 357.902431 198.106204 
C 357.902431 200.538104 358.868635 202.870727 360.588248 204.59034 
C 362.307861 206.309953 364.640484 207.276157 367.072384 207.276157 
z
" style="fill:#009900;fill-opacity:0.5;stroke:#009900;stroke-linejoin:miter;stroke-width:2;"/>
   </g>
   <g id="patch_13">
    <path clip-path="url(#p25463acbe8)" d="M 435.847034 246.98322 
C 438.278934 246.98322 440.611557 246.017016 442.33117 244.297403 
C 444.050783 242.57779 445.016987 240.245166 445.016987 237.813266 
C 445.016987 235.381366 444.050783 233.048743 442.33117 231.32913 
C 440.611557 229.609517 438.278934 228.643313 435.847034 228.643313 
C 433.415134 228.643313 431.082511 229.609517 429.362898 231.32913 
C 427.643285 233.048743 426.67708 235.381366 426.67708 237.813266 
C 426.67708 240.245166 427.643285 242.57779 429.362898 244.297403 
C 431.082511 246.017016 433.415134 246.98322 435.847034 246.98322 
z
" style="fill:#009900;fill-opacity:0.5;stroke:#009900;stroke-linejoin:miter;stroke-width:2;"/>
   </g>
   <g id="patch_14">
    <path clip-path="url(#p25463acbe8)" d="M 504.621683 207.276157 
C 507.053583 207.276157 509.386206 206.309953 511.105819 204.59034 
C 512.825432 202.870727 513.791636 200.538104 513.791636 198.106204 
C 513.791636 195.674304 512.825432 193.341681 511.105819 191.622068 
C 509.386206 189.902455 507.053583 188.936251 504.621683 188.936251 
C 502.189783 188.936251 499.85716 189.902455 498.137547 191.622068 
C 496.417934 193.341681 495.45173 195.674304 495.45173 198.106204 
C 495.45173 200.538104 496.417934 202.870727 498.137547 204.59034 
C 499.85716 206.309953 502.189783 207.276157 504.621683 207.276157 
z
" style="fill:#009900;fill-opacity:0.5;stroke:#009900;stroke-linejoin:miter;stroke-width:2;"/>
   </g>
   <g id="patch_15">
    <path clip-path="url(#p25463acbe8)" d="M 160.748436 167.569095 
C 163.180336 167.569095 165.512959 166.602891 167.232572 164.883278 
C 168.952185 163.163665 169.91839 160.831042 169.91839 158.399142 
C 169.91839 155.967242 168.952185 153.634619 167.232572 151.915006 
C 165.512959 150.195393 163.180336 149.229189 160.748436 149.229189 
C 158.316536 149.229189 155.983913 150.195393 154.2643 151.915006 
C 152.544687 153.634619 151.578483 155.967242 151.578483 158.399142 
C 151.578483 160.831042 152.544687 163.163665 154.2643 164.883278 
C 155.983913 166.602891 158.316536 167.569095 160.748436 167.569095 
z
" style="fill:#009900;fill-opacity:0.5;stroke:#009900;stroke-linejoin:miter;stroke-width:2;"/>
   </g>
   <g id="patch_16">
    <path clip-path="url(#p25463acbe8)" d="M 229.523086 127.862033 
C 231.954986 127.862033 234.287609 126.895829 236.007222 125.176216 
C 237.726835 123.456603 238.693039 121.12398 238.693039 118.692079 
C 238.693039 116.260179 237.726835 113.927556 236.007222 112.207943 
C 234.287609 110.48833 231.954986 109.522126 229.523086 109.522126 
C 227.091186 109.522126 224.758563 110.48833 223.03895 112.207943 
C 221.319337 113.927556 220.353132 116.260179 220.353132 118.692079 
C 220.353132 121.12398 221.319337 123.456603 223.03895 125.176216 
C 224.758563 126.895829 227.091186 127.862033 229.523086 127.862033 
z
" style="fill:#009900;fill-opacity:0.5;stroke:#009900;stroke-linejoin:miter;stroke-width:2;"/>
   </g>
   <g id="patch_17">
    <path clip-path="url(#p25463acbe8)" d="M 298.297735 167.569095 
C 300.729635 167.569095 303.062258 166.602891 304.781871 164.883278 
C 306.501484 163.163665 307.467688 160.831042 307.467688 158.399142 
C 307.467688 155.967242 306.501484 153.634619 304.781871 151.915006 
C 303.062258 150.195393 300.729635 149.229189 298.297735 149.229189 
C 295.865835 149.229189 293.533212 150.195393 291.813599 151.915006 
C 290.093986 153.634619 289.127782 155.967242 289.127782 158.399142 
C 289.127782 160.831042 290.093986 163.163665 291.813599 164.883278 
C 293.533212 166.602891 295.865835 167.569095 298.297735 167.569095 
z
" style="fill:#009900;fill-opacity:0.5;stroke:#009900;stroke-linejoin:miter;stroke-width:2;"/>
   </g>
   <g id="patch_18">
    <path clip-path="url(#p25463acbe8)" d="M 367.072384 127.862033 
C 369.504284 127.862033 371.836907 126.895829 373.55652 125.176216 
C 375.276133 123.456603 376.242338 121.12398 376.242338 118.692079 
C 376.242338 116.260179 375.276133 113.927556 373.55652 112.207943 
C 371.836907 110.48833 369.504284 109.522126 367.072384 109.522126 
C 364.640484 109.522126 362.307861 110.48833 360.588248 112.207943 
C 358.868635 113.927556 357.902431 116.260179 357.902431 118.692079 
C 357.902431 121.12398 358.868635 123.456603 360.588248 125.176216 
C 362.307861 126.895829 364.640484 127.862033 367.072384 127.862033 
z
" style="fill:#009900;fill-opacity:0.5;stroke:#009900;stroke-linejoin:miter;stroke-width:2;"/>
   </g>
   <g id="patch_19">
    <path clip-path="url(#p25463acbe8)" d="M 435.847034 167.569095 
C 438.278934 167.569095 440.611557 166.602891 442.33117 164.883278 
C 444.050783 163.163665 445.016987 160.831042 445.016987 158.399142 
C 445.016987 155.967242 444.050783 153.634619 442.33117 151.915006 
C 440.611557 150.195393 438.278934 149.229189 435.847034 149.229189 
C 433.415134 149.229189 431.082511 150.195393 429.362898 151.915006 
C 427.643285 153.634619 426.67708 155.967242 426.67708 158.399142 
C 426.67708 160.831042 427.643285 163.163665 429.362898 164.883278 
C 431.082511 166.602891 433.415134 167.569095 435.847034 167.569095 
z
" style="fill:#009900;fill-opacity:0.5;stroke:#009900;stroke-linejoin:miter;stroke-width:2;"/>
   </g>
   <g id="patch_20">
    <path clip-path="url(#p25463acbe8)" d="M 504.621683 127.862033 
C 507.053583 127.862033 509.386206 126.895829 511.105819 125.176216 
C 512.825432 123.456603 513.791636 121.12398 513.791636 118.692079 
C 513.791636 116.260179 512.825432 113.927556 511.105819 112.207943 
C 509.386206 110.48833 507.053583 109.522126 504.621683 109.522126 
C 502.189783 109.522126 499.85716 110.48833 498.137547 112.207943 
C 496.417934 113.927556 495.45173 116.260179 495.45173 118.692079 
C 495.45173 121.12398 496.417934 123.456603 498.137547 125.176216 
C 499.85716 126.895829 502.189783 127.862033 504.621683 127.862033 
z
" style="fill:#009900;fill-opacity:0.5;stroke:#009900;stroke-linejoin:miter;stroke-width:2;"/>
   </g>
   <g id="patch_21">
    <path clip-path="url(#p25463acbe8)" d="M 160.748436 88.15497 
C 163.180336 88.15497 165.512959 87.188766 167.232572 85.469153 
C 168.952185 83.74954 169.91839 81.416917 169.91839 78.985017 
C 169.91839 76.553117 168.952185 74.220494 167.232572 72.500881 
C 165.512959 70.781268 163.180336 69.815064 160.748436 69.815064 
C 158.316536 69.815064 155.983913 70.781268 154.2643 72.500881 
C 152.544687 74.220494 151.578483 76.553117 151.578483 78.985017 
C 151.578483 81.416917 152.544687 83.74954 154.2643 85.469153 
C 155.983913 87.188766 158.316536 88.15497 160.748436 88.15497 
z
" style="fill:#009900;fill-opacity:0.5;stroke:#009900;stroke-linejoin:miter;stroke-width:2;"/>
   </g>
   <g id="patch_22">
    <path clip-path="url(#p25463acbe8)" d="M 229.523086 48.447908 
C 231.954986 48.447908 234.287609 47.481704 236.007222 45.762091 
C 237.726835 44.042478 238.693039 41.709855 238.693039 39.277955 
C 238.693039 36.846055 237.726835 34.513432 236.007222 32.793819 
C 234.287609 31.074206 231.954986 30.108002 229.523086 30.108002 
C 227.091186 30.108002 224.758563 31.074206 223.03895 32.793819 
C 221.319337 34.513432 220.353132 36.846055 220.353132 39.277955 
C 220.353132 41.709855 221.319337 44.042478 223.03895 45.762091 
C 224.758563 47.481704 227.091186 48.447908 229.523086 48.447908 
z
" style="fill:#009900;fill-opacity:0.5;stroke:#009900;stroke-linejoin:miter;stroke-width:2;"/>
   </g>
   <g id="patch_23">
    <path clip-path="url(#p25463acbe8)" d="M 298.297735 88.15497 
C 300.729635 88.15497 303.062258 87.188766 304.781871 85.469153 
C 306.501484 83.74954 307.467688 81.416917 307.467688 78.985017 
C 307.467688 76.553117 306.501484 74.220494 304.781871 72.500881 
C 303.062258 70.781268 300.729635 69.815064 298.297735 69.815064 
C 295.865835 69.815064 293.533212 70.781268 291.813599 72.500881 
C 290.093986 74.220494 289.127782 76.553117 289.127782 78.985017 
C 289.127782 81.416917 290.093986 83.74954 291.813599 85.469153 
C 293.533212 87.188766 295.865835 88.15497 298.297735 88.15497 
z
" style="fill:#009900;fill-opacity:0.5;stroke:#009900;stroke-linejoin:miter;stroke-width:2;"/>
   </g>
   <g id="patch_24">
    <path clip-path="url(#p25463acbe8)" d="M 367.072384 48.447908 
C 369.504284 48.447908 371.836907 47.481704 373.55652 45.762091 
C 375.276133 44.042478 376.242338 41.709855 376.242338 39.277955 
C 376.242338 36.846055 375.276133 34.513432 373.55652 32.793819 
C 371.836907 31.074206 369.504284 30.108002 367.072384 30.108002 
C 364.640484 30.108002 362.307861 31.074206 360.588248 32.793819 
C 358.868635 34.513432 357.902431 36.846055 357.902431 39.277955 
C 357.902431 41.709855 358.868635 44.042478 360.588248 45.762091 
C 362.307861 47.481704 364.640484 48.447908 367.072384 48.447908 
z
" style="fill:#009900;fill-opacity:0.5;stroke:#009900;stroke-linejoin:miter;stroke-width:2;"/>
   </g>
   <g id="patch_25">
    <path clip-path="url(#p25463acbe8)" d="M 435.847034 88.15497 
C 438.278934 88.15497 440.611557 87.188766 442.33117 85.469153 
C 444.050783 83.74954 445.016987 81.416917 445.016987 78.985017 
C 445.016987 76.553117 444.050783 74.220494 442.33117 72.500881 
C 440.611557 70.781268 438.278934 69.815064 435.847034 69.815064 
C 433.415134 69.815064 431.082511 70.781268 429.362898 72.500881 
C 427.643285 74.220494 426.67708 76.553117 426.67708 78.985017 
C 426.67708 81.416917 427.643285 83.74954 429.362898 85.469153 
C 431.082511 87.188766 433.415134 88.15497 435.847034 88.15497 
z
" style="fill:#009900;fill-opacity:0.5;stroke:#009900;stroke-linejoin:miter;stroke-width:2;"/>
   </g>
   <g id="patch_26">
    <path clip-path="url(#p25463acbe8)" d="M 504.621683 48.447908 
C 507.053583 48.447908 509.386206 47.481704 511.105819 45.762091 
C 512.825432 44.042478 513.791636 41.709855 513.791636 39.277955 
C 513.791636 36.846055 512.825432 34.513432 511.105819 32.793819 
C 509.386206 31.074206 507.053583 30.108002 504.621683 30.108002 
C 502.189783 30.108002 499.85716 31.074206 498.137547 32.793819 
C 496.417934 34.513432 495.45173 36.846055 495.45173 39.277955 
C 495.45173 41.709855 496.417934 44.042478 498.137547 45.762091 
C 499.85716 47.481704 502.189783 48.447908 504.621683 48.447908 
z
" style="fill:#009900;fill-opacity:0.5;stroke:#009900;stroke-linejoin:miter;stroke-width:2;"/>
   </g>
   <g id="patch_27">
    <path clip-path="url(#p25463acbe8)" d="M 179.699673 323.340693 
C 181.32094 323.340693 182.876022 322.696557 184.02243 321.550149 
C 185.168839 320.40374 185.812975 318.848658 185.812975 317.227391 
C 185.812975 315.606124 185.168839 314.051042 184.02243 312.904634 
C 182.876022 311.758225 181.32094 311.114089 179.699673 311.114089 
C 178.078406 311.114089 176.523324 311.758225 175.376916 312.904634 
C 174.230507 314.051042 173.586371 315.606124 173.586371 317.227391 
C 173.586371 318.848658 174.230507 320.40374 175.376916 321.550149 
C 176.523324 322.696557 178.078406 323.340693 179.699673 323.340693 
z
" style="fill:#9558b2;fill-opacity:0.5;stroke:#9558b2;stroke-linejoin:miter;stroke-width:2;"/>
   </g>
   <g id="patch_28">
    <path clip-path="url(#p25463acbe8)" d="M 248.474322 283.633631 
C 250.095589 283.633631 251.650671 282.989495 252.79708 281.843086 
C 253.943488 280.696678 254.587625 279.141595 254.587625 277.520329 
C 254.587625 275.899062 253.943488 274.34398 252.79708 273.197571 
C 251.650671 272.051163 250.095589 271.407027 248.474322 271.407027 
C 246.853056 271.407027 245.297974 272.051163 244.151565 273.197571 
C 243.005156 274.34398 242.36102 275.899062 242.36102 277.520329 
C 242.36102 279.141595 243.005156 280.696678 244.151565 281.843086 
C 245.297974 282.989495 246.853056 283.633631 248.474322 283.633631 
z
" style="fill:#9558b2;fill-opacity:0.5;stroke:#9558b2;stroke-linejoin:miter;stroke-width:2;"/>
   </g>
   <g id="patch_29">
    <path clip-path="url(#p25463acbe8)" d="M 317.248972 323.340693 
C 318.870238 323.340693 320.42532 322.696557 321.571729 321.550149 
C 322.718138 320.40374 323.362274 318.848658 323.362274 317.227391 
C 323.362274 315.606124 322.718138 314.051042 321.571729 312.904634 
C 320.42532 311.758225 318.870238 311.114089 317.248972 311.114089 
C 315.627705 311.114089 314.072623 311.758225 312.926214 312.904634 
C 311.779806 314.051042 311.13567 315.606124 311.13567 317.227391 
C 311.13567 318.848658 311.779806 320.40374 312.926214 321.550149 
C 314.072623 322.696557 315.627705 323.340693 317.248972 323.340693 
z
" style="fill:#9558b2;fill-opacity:0.5;stroke:#9558b2;stroke-linejoin:miter;stroke-width:2;"/>
   </g>
   <g id="patch_30">
    <path clip-path="url(#p25463acbe8)" d="M 386.023621 283.633631 
C 387.644888 283.633631 389.19997 282.989495 390.346378 281.843086 
C 391.492787 280.696678 392.136923 279.141595 392.136923 277.520329 
C 392.136923 275.899062 391.492787 274.34398 390.346378 273.197571 
C 389.19997 272.051163 387.644888 271.407027 386.023621 271.407027 
C 384.402354 271.407027 382.847272 272.051163 381.700864 273.197571 
C 380.554455 274.34398 379.910319 275.899062 379.910319 277.520329 
C 379.910319 279.141595 380.554455 280.696678 381.700864 281.843086 
C 382.847272 282.989495 384.402354 283.633631 386.023621 283.633631 
z
" style="fill:#9558b2;fill-opacity:0.5;stroke:#9558b2;stroke-linejoin:miter;stroke-width:2;"/>
   </g>
   <g id="patch_31">
    <path clip-path="url(#p25463acbe8)" d="M 454.79827 323.340693 
C 456.419537 323.340693 457.974619 322.696557 459.121028 321.550149 
C 460.267437 320.40374 460.911573 318.848658 460.911573 317.227391 
C 460.911573 315.606124 460.267437 314.051042 459.121028 312.904634 
C 457.974619 311.758225 456.419537 311.114089 454.79827 311.114089 
C 453.177004 311.114089 451.621922 311.758225 450.475513 312.904634 
C 449.329104 314.051042 448.684968 315.606124 448.684968 317.227391 
C 448.684968 318.848658 449.329104 320.40374 450.475513 321.550149 
C 451.621922 322.696557 453.177004 323.340693 454.79827 323.340693 
z
" style="fill:#9558b2;fill-opacity:0.5;stroke:#9558b2;stroke-linejoin:miter;stroke-width:2;"/>
   </g>
   <g id="patch_32">
    <path clip-path="url(#p25463acbe8)" d="M 523.57292 283.633631 
C 525.194186 283.633631 526.749269 282.989495 527.895677 281.843086 
C 529.042086 280.696678 529.686222 279.141595 529.686222 277.520329 
C 529.686222 275.899062 529.042086 274.34398 527.895677 273.197571 
C 526.749269 272.051163 525.194186 271.407027 523.57292 271.407027 
C 521.951653 271.407027 520.396571 272.051163 519.250162 273.197571 
C 518.103754 274.34398 517.459618 275.899062 517.459618 277.520329 
C 517.459618 279.141595 518.103754 280.696678 519.250162 281.843086 
C 520.396571 282.989495 521.951653 283.633631 523.57292 283.633631 
z
" style="fill:#9558b2;fill-opacity:0.5;stroke:#9558b2;stroke-linejoin:miter;stroke-width:2;"/>
   </g>
   <g id="patch_33">
    <path clip-path="url(#p25463acbe8)" d="M 179.699673 243.926569 
C 181.32094 243.926569 182.876022 243.282433 184.02243 242.136024 
C 185.168839 240.989615 185.812975 239.434533 185.812975 237.813266 
C 185.812975 236.192 185.168839 234.636918 184.02243 233.490509 
C 182.876022 232.3441 181.32094 231.699964 179.699673 231.699964 
C 178.078406 231.699964 176.523324 232.3441 175.376916 233.490509 
C 174.230507 234.636918 173.586371 236.192 173.586371 237.813266 
C 173.586371 239.434533 174.230507 240.989615 175.376916 242.136024 
C 176.523324 243.282433 178.078406 243.926569 179.699673 243.926569 
z
" style="fill:#9558b2;fill-opacity:0.5;stroke:#9558b2;stroke-linejoin:miter;stroke-width:2;"/>
   </g>
   <g id="patch_34">
    <path clip-path="url(#p25463acbe8)" d="M 248.474322 204.219506 
C 250.095589 204.219506 251.650671 203.57537 252.79708 202.428962 
C 253.943488 201.282553 254.587625 199.727471 254.587625 198.106204 
C 254.587625 196.484937 253.943488 194.929855 252.79708 193.783447 
C 251.650671 192.637038 250.095589 191.992902 248.474322 191.992902 
C 246.853056 191.992902 245.297974 192.637038 244.151565 193.783447 
C 243.005156 194.929855 242.36102 196.484937 242.36102 198.106204 
C 242.36102 199.727471 243.005156 201.282553 244.151565 202.428962 
C 245.297974 203.57537 246.853056 204.219506 248.474322 204.219506 
z
" style="fill:#9558b2;fill-opacity:0.5;stroke:#9558b2;stroke-linejoin:miter;stroke-width:2;"/>
   </g>
   <g id="patch_35">
    <path clip-path="url(#p25463acbe8)" d="M 317.248972 243.926569 
C 318.870238 243.926569 320.42532 243.282433 321.571729 242.136024 
C 322.718138 240.989615 323.362274 239.434533 323.362274 237.813266 
C 323.362274 236.192 322.718138 234.636918 321.571729 233.490509 
C 320.42532 232.3441 318.870238 231.699964 317.248972 231.699964 
C 315.627705 231.699964 314.072623 232.3441 312.926214 233.490509 
C 311.779806 234.636918 311.13567 236.192 311.13567 237.813266 
C 311.13567 239.434533 311.779806 240.989615 312.926214 242.136024 
C 314.072623 243.282433 315.627705 243.926569 317.248972 243.926569 
z
" style="fill:#9558b2;fill-opacity:0.5;stroke:#9558b2;stroke-linejoin:miter;stroke-width:2;"/>
   </g>
   <g id="patch_36">
    <path clip-path="url(#p25463acbe8)" d="M 386.023621 204.219506 
C 387.644888 204.219506 389.19997 203.57537 390.346378 202.428962 
C 391.492787 201.282553 392.136923 199.727471 392.136923 198.106204 
C 392.136923 196.484937 391.492787 194.929855 390.346378 193.783447 
C 389.19997 192.637038 387.644888 191.992902 386.023621 191.992902 
C 384.402354 191.992902 382.847272 192.637038 381.700864 193.783447 
C 380.554455 194.929855 379.910319 196.484937 379.910319 198.106204 
C 379.910319 199.727471 380.554455 201.282553 381.700864 202.428962 
C 382.847272 203.57537 384.402354 204.219506 386.023621 204.219506 
z
" style="fill:#9558b2;fill-opacity:0.5;stroke:#9558b2;stroke-linejoin:miter;stroke-width:2;"/>
   </g>
   <g id="patch_37">
    <path clip-path="url(#p25463acbe8)" d="M 454.79827 243.926569 
C 456.419537 243.926569 457.974619 243.282433 459.121028 242.136024 
C 460.267437 240.989615 460.911573 239.434533 460.911573 237.813266 
C 460.911573 236.192 460.267437 234.636918 459.121028 233.490509 
C 457.974619 232.3441 456.419537 231.699964 454.79827 231.699964 
C 453.177004 231.699964 451.621922 232.3441 450.475513 233.490509 
C 449.329104 234.636918 448.684968 236.192 448.684968 237.813266 
C 448.684968 239.434533 449.329104 240.989615 450.475513 242.136024 
C 451.621922 243.282433 453.177004 243.926569 454.79827 243.926569 
z
" style="fill:#9558b2;fill-opacity:0.5;stroke:#9558b2;stroke-linejoin:miter;stroke-width:2;"/>
   </g>
   <g id="patch_38">
    <path clip-path="url(#p25463acbe8)" d="M 523.57292 204.219506 
C 525.194186 204.219506 526.749269 203.57537 527.895677 202.428962 
C 529.042086 201.282553 529.686222 199.727471 529.686222 198.106204 
C 529.686222 196.484937 529.042086 194.929855 527.895677 193.783447 
C 526.749269 192.637038 525.194186 191.992902 523.57292 191.992902 
C 521.951653 191.992902 520.396571 192.637038 519.250162 193.783447 
C 518.103754 194.929855 517.459618 196.484937 517.459618 198.106204 
C 517.459618 199.727471 518.103754 201.282553 519.250162 202.428962 
C 520.396571 203.57537 521.951653 204.219506 523.57292 204.219506 
z
" style="fill:#9558b2;fill-opacity:0.5;stroke:#9558b2;stroke-linejoin:miter;stroke-width:2;"/>
   </g>
   <g id="patch_39">
    <path clip-path="url(#p25463acbe8)" d="M 179.699673 164.512444 
C 181.32094 164.512444 182.876022 163.868308 184.02243 162.721899 
C 185.168839 161.575491 185.812975 160.020408 185.812975 158.399142 
C 185.812975 156.777875 185.168839 155.222793 184.02243 154.076384 
C 182.876022 152.929976 181.32094 152.28584 179.699673 152.28584 
C 178.078406 152.28584 176.523324 152.929976 175.376916 154.076384 
C 174.230507 155.222793 173.586371 156.777875 173.586371 158.399142 
C 173.586371 160.020408 174.230507 161.575491 175.376916 162.721899 
C 176.523324 163.868308 178.078406 164.512444 179.699673 164.512444 
z
" style="fill:#9558b2;fill-opacity:0.5;stroke:#9558b2;stroke-linejoin:miter;stroke-width:2;"/>
   </g>
   <g id="patch_40">
    <path clip-path="url(#p25463acbe8)" d="M 248.474322 124.805382 
C 250.095589 124.805382 251.650671 124.161246 252.79708 123.014837 
C 253.943488 121.868428 254.587625 120.313346 254.587625 118.692079 
C 254.587625 117.070813 253.943488 115.515731 252.79708 114.369322 
C 251.650671 113.222913 250.095589 112.578777 248.474322 112.578777 
C 246.853056 112.578777 245.297974 113.222913 244.151565 114.369322 
C 243.005156 115.515731 242.36102 117.070813 242.36102 118.692079 
C 242.36102 120.313346 243.005156 121.868428 244.151565 123.014837 
C 245.297974 124.161246 246.853056 124.805382 248.474322 124.805382 
z
" style="fill:#9558b2;fill-opacity:0.5;stroke:#9558b2;stroke-linejoin:miter;stroke-width:2;"/>
   </g>
   <g id="patch_41">
    <path clip-path="url(#p25463acbe8)" d="M 317.248972 164.512444 
C 318.870238 164.512444 320.42532 163.868308 321.571729 162.721899 
C 322.718138 161.575491 323.362274 160.020408 323.362274 158.399142 
C 323.362274 156.777875 322.718138 155.222793 321.571729 154.076384 
C 320.42532 152.929976 318.870238 152.28584 317.248972 152.28584 
C 315.627705 152.28584 314.072623 152.929976 312.926214 154.076384 
C 311.779806 155.222793 311.13567 156.777875 311.13567 158.399142 
C 311.13567 160.020408 311.779806 161.575491 312.926214 162.721899 
C 314.072623 163.868308 315.627705 164.512444 317.248972 164.512444 
z
" style="fill:#9558b2;fill-opacity:0.5;stroke:#9558b2;stroke-linejoin:miter;stroke-width:2;"/>
   </g>
   <g id="patch_42">
    <path clip-path="url(#p25463acbe8)" d="M 386.023621 124.805382 
C 387.644888 124.805382 389.19997 124.161246 390.346378 123.014837 
C 391.492787 121.868428 392.136923 120.313346 392.136923 118.692079 
C 392.136923 117.070813 391.492787 115.515731 390.346378 114.369322 
C 389.19997 113.222913 387.644888 112.578777 386.023621 112.578777 
C 384.402354 112.578777 382.847272 113.222913 381.700864 114.369322 
C 380.554455 115.515731 379.910319 117.070813 379.910319 118.692079 
C 379.910319 120.313346 380.554455 121.868428 381.700864 123.014837 
C 382.847272 124.161246 384.402354 124.805382 386.023621 124.805382 
z
" style="fill:#9558b2;fill-opacity:0.5;stroke:#9558b2;stroke-linejoin:miter;stroke-width:2;"/>
   </g>
   <g id="patch_43">
    <path clip-path="url(#p25463acbe8)" d="M 454.79827 164.512444 
C 456.419537 164.512444 457.974619 163.868308 459.121028 162.721899 
C 460.267437 161.575491 460.911573 160.020408 460.911573 158.399142 
C 460.911573 156.777875 460.267437 155.222793 459.121028 154.076384 
C 457.974619 152.929976 456.419537 152.28584 454.79827 152.28584 
C 453.177004 152.28584 451.621922 152.929976 450.475513 154.076384 
C 449.329104 155.222793 448.684968 156.777875 448.684968 158.399142 
C 448.684968 160.020408 449.329104 161.575491 450.475513 162.721899 
C 451.621922 163.868308 453.177004 164.512444 454.79827 164.512444 
z
" style="fill:#9558b2;fill-opacity:0.5;stroke:#9558b2;stroke-linejoin:miter;stroke-width:2;"/>
   </g>
   <g id="patch_44">
    <path clip-path="url(#p25463acbe8)" d="M 523.57292 124.805382 
C 525.194186 124.805382 526.749269 124.161246 527.895677 123.014837 
C 529.042086 121.868428 529.686222 120.313346 529.686222 118.692079 
C 529.686222 117.070813 529.042086 115.515731 527.895677 114.369322 
C 526.749269 113.222913 525.194186 112.578777 523.57292 112.578777 
C 521.951653 112.578777 520.396571 113.222913 519.250162 114.369322 
C 518.103754 115.515731 517.459618 117.070813 517.459618 118.692079 
C 517.459618 120.313346 518.103754 121.868428 519.250162 123.014837 
C 520.396571 124.161246 521.951653 124.805382 523.57292 124.805382 
z
" style="fill:#9558b2;fill-opacity:0.5;stroke:#9558b2;stroke-linejoin:miter;stroke-width:2;"/>
   </g>
   <g id="patch_45">
    <path clip-path="url(#p25463acbe8)" d="M 179.699673 85.098319 
C 181.32094 85.098319 182.876022 84.454183 184.02243 83.307775 
C 185.168839 82.161366 185.812975 80.606284 185.812975 78.985017 
C 185.812975 77.36375 185.168839 75.808668 184.02243 74.66226 
C 182.876022 73.515851 181.32094 72.871715 179.699673 72.871715 
C 178.078406 72.871715 176.523324 73.515851 175.376916 74.66226 
C 174.230507 75.808668 173.586371 77.36375 173.586371 78.985017 
C 173.586371 80.606284 174.230507 82.161366 175.376916 83.307775 
C 176.523324 84.454183 178.078406 85.098319 179.699673 85.098319 
z
" style="fill:#9558b2;fill-opacity:0.5;stroke:#9558b2;stroke-linejoin:miter;stroke-width:2;"/>
   </g>
   <g id="patch_46">
    <path clip-path="url(#p25463acbe8)" d="M 248.474322 45.391257 
C 250.095589 45.391257 251.650671 44.747121 252.79708 43.600712 
C 253.943488 42.454304 254.587625 40.899222 254.587625 39.277955 
C 254.587625 37.656688 253.943488 36.101606 252.79708 34.955197 
C 251.650671 33.808789 250.095589 33.164653 248.474322 33.164653 
C 246.853056 33.164653 245.297974 33.808789 244.151565 34.955197 
C 243.005156 36.101606 242.36102 37.656688 242.36102 39.277955 
C 242.36102 40.899222 243.005156 42.454304 244.151565 43.600712 
C 245.297974 44.747121 246.853056 45.391257 248.474322 45.391257 
z
" style="fill:#9558b2;fill-opacity:0.5;stroke:#9558b2;stroke-linejoin:miter;stroke-width:2;"/>
   </g>
   <g id="patch_47">
    <path clip-path="url(#p25463acbe8)" d="M 317.248972 85.098319 
C 318.870238 85.098319 320.42532 84.454183 321.571729 83.307775 
C 322.718138 82.161366 323.362274 80.606284 323.362274 78.985017 
C 323.362274 77.36375 322.718138 75.808668 321.571729 74.66226 
C 320.42532 73.515851 318.870238 72.871715 317.248972 72.871715 
C 315.627705 72.871715 314.072623 73.515851 312.926214 74.66226 
C 311.779806 75.808668 311.13567 77.36375 311.13567 78.985017 
C 311.13567 80.606284 311.779806 82.161366 312.926214 83.307775 
C 314.072623 84.454183 315.627705 85.098319 317.248972 85.098319 
z
" style="fill:#9558b2;fill-opacity:0.5;stroke:#9558b2;stroke-linejoin:miter;stroke-width:2;"/>
   </g>
   <g id="patch_48">
    <path clip-path="url(#p25463acbe8)" d="M 386.023621 45.391257 
C 387.644888 45.391257 389.19997 44.747121 390.346378 43.600712 
C 391.492787 42.454304 392.136923 40.899222 392.136923 39.277955 
C 392.136923 37.656688 391.492787 36.101606 390.346378 34.955197 
C 389.19997 33.808789 387.644888 33.164653 386.023621 33.164653 
C 384.402354 33.164653 382.847272 33.808789 381.700864 34.955197 
C 380.554455 36.101606 379.910319 37.656688 379.910319 39.277955 
C 379.910319 40.899222 380.554455 42.454304 381.700864 43.600712 
C 382.847272 44.747121 384.402354 45.391257 386.023621 45.391257 
z
" style="fill:#9558b2;fill-opacity:0.5;stroke:#9558b2;stroke-linejoin:miter;stroke-width:2;"/>
   </g>
   <g id="patch_49">
    <path clip-path="url(#p25463acbe8)" d="M 454.79827 85.098319 
C 456.419537 85.098319 457.974619 84.454183 459.121028 83.307775 
C 460.267437 82.161366 460.911573 80.606284 460.911573 78.985017 
C 460.911573 77.36375 460.267437 75.808668 459.121028 74.66226 
C 457.974619 73.515851 456.419537 72.871715 454.79827 72.871715 
C 453.177004 72.871715 451.621922 73.515851 450.475513 74.66226 
C 449.329104 75.808668 448.684968 77.36375 448.684968 78.985017 
C 448.684968 80.606284 449.329104 82.161366 450.475513 83.307775 
C 451.621922 84.454183 453.177004 85.098319 454.79827 85.098319 
z
" style="fill:#9558b2;fill-opacity:0.5;stroke:#9558b2;stroke-linejoin:miter;stroke-width:2;"/>
   </g>
   <g id="patch_50">
    <path clip-path="url(#p25463acbe8)" d="M 523.57292 45.391257 
C 525.194186 45.391257 526.749269 44.747121 527.895677 43.600712 
C 529.042086 42.454304 529.686222 40.899222 529.686222 39.277955 
C 529.686222 37.656688 529.042086 36.101606 527.895677 34.955197 
C 526.749269 33.808789 525.194186 33.164653 523.57292 33.164653 
C 521.951653 33.164653 520.396571 33.808789 519.250162 34.955197 
C 518.103754 36.101606 517.459618 37.656688 517.459618 39.277955 
C 517.459618 40.899222 518.103754 42.454304 519.250162 43.600712 
C 520.396571 44.747121 521.951653 45.391257 523.57292 45.391257 
z
" style="fill:#9558b2;fill-opacity:0.5;stroke:#9558b2;stroke-linejoin:miter;stroke-width:2;"/>
   </g>
   <g id="patch_51">
    <path clip-path="url(#p25463acbe8)" d="M 170.224055 309.585763 
C 172.250638 309.585763 174.194491 308.780593 175.627501 307.347582 
C 177.060512 305.914572 177.865682 303.970719 177.865682 301.944136 
C 177.865682 299.917552 177.060512 297.9737 175.627501 296.540689 
C 174.194491 295.107678 172.250638 294.302508 170.224055 294.302508 
C 168.197471 294.302508 166.253619 295.107678 164.820608 296.540689 
C 163.387597 297.9737 162.582427 299.917552 162.582427 301.944136 
C 162.582427 303.970719 163.387597 305.914572 164.820608 307.347582 
C 166.253619 308.780593 168.197471 309.585763 170.224055 309.585763 
z
" style="fill:#cc0000;fill-opacity:0.1;stroke:#cc0000;stroke-dasharray:7.4,3.2;stroke-dashoffset:0;stroke-linejoin:miter;stroke-width:2;"/>
   </g>
   <g id="patch_52">
    <path clip-path="url(#p25463acbe8)" d="M 238.998704 269.878701 
C 241.025287 269.878701 242.96914 269.073531 244.402151 267.64052 
C 245.835162 266.207509 246.640332 264.263657 246.640332 262.237073 
C 246.640332 260.21049 245.835162 258.266637 244.402151 256.833627 
C 242.96914 255.400616 241.025287 254.595446 238.998704 254.595446 
C 236.972121 254.595446 235.028268 255.400616 233.595257 256.833627 
C 232.162246 258.266637 231.357076 260.21049 231.357076 262.237073 
C 231.357076 264.263657 232.162246 266.207509 233.595257 267.64052 
C 235.028268 269.073531 236.972121 269.878701 238.998704 269.878701 
z
" style="fill:#cc0000;fill-opacity:0.1;stroke:#cc0000;stroke-dasharray:7.4,3.2;stroke-dashoffset:0;stroke-linejoin:miter;stroke-width:2;"/>
   </g>
   <g id="patch_53">
    <path clip-path="url(#p25463acbe8)" d="M 307.773353 309.585763 
C 309.799937 309.585763 311.743789 308.780593 313.1768 307.347582 
C 314.609811 305.914572 315.414981 303.970719 315.414981 301.944136 
C 315.414981 299.917552 314.609811 297.9737 313.1768 296.540689 
C 311.743789 295.107678 309.799937 294.302508 307.773353 294.302508 
C 305.74677 294.302508 303.802917 295.107678 302.369907 296.540689 
C 300.936896 297.9737 300.131726 299.917552 300.131726 301.944136 
C 300.131726 303.970719 300.936896 305.914572 302.369907 307.347582 
C 303.802917 308.780593 305.74677 309.585763 307.773353 309.585763 
z
" style="fill:#cc0000;fill-opacity:0.1;stroke:#cc0000;stroke-dasharray:7.4,3.2;stroke-dashoffset:0;stroke-linejoin:miter;stroke-width:2;"/>
   </g>
   <g id="patch_54">
    <path clip-path="url(#p25463acbe8)" d="M 376.548003 269.878701 
C 378.574586 269.878701 380.518439 269.073531 381.951449 267.64052 
C 383.38446 266.207509 384.18963 264.263657 384.18963 262.237073 
C 384.18963 260.21049 383.38446 258.266637 381.951449 256.833627 
C 380.518439 255.400616 378.574586 254.595446 376.548003 254.595446 
C 374.521419 254.595446 372.577567 255.400616 371.144556 256.833627 
C 369.711545 258.266637 368.906375 260.21049 368.906375 262.237073 
C 368.906375 264.263657 369.711545 266.207509 371.144556 267.64052 
C 372.577567 269.073531 374.521419 269.878701 376.548003 269.878701 
z
" style="fill:#cc0000;fill-opacity:0.1;stroke:#cc0000;stroke-dasharray:7.4,3.2;stroke-dashoffset:0;stroke-linejoin:miter;stroke-width:2;"/>
   </g>
   <g id="patch_55">
    <path clip-path="url(#p25463acbe8)" d="M 445.322652 309.585763 
C 447.349235 309.585763 449.293088 308.780593 450.726099 307.347582 
C 452.15911 305.914572 452.96428 303.970719 452.96428 301.944136 
C 452.96428 299.917552 452.15911 297.9737 450.726099 296.540689 
C 449.293088 295.107678 447.349235 294.302508 445.322652 294.302508 
C 443.296069 294.302508 441.352216 295.107678 439.919205 296.540689 
C 438.486194 297.9737 437.681024 299.917552 437.681024 301.944136 
C 437.681024 303.970719 438.486194 305.914572 439.919205 307.347582 
C 441.352216 308.780593 443.296069 309.585763 445.322652 309.585763 
z
" style="fill:#cc0000;fill-opacity:0.1;stroke:#cc0000;stroke-dasharray:7.4,3.2;stroke-dashoffset:0;stroke-linejoin:miter;stroke-width:2;"/>
   </g>
   <g id="patch_56">
    <path clip-path="url(#p25463acbe8)" d="M 514.097301 269.878701 
C 516.123885 269.878701 518.067737 269.073531 519.500748 267.64052 
C 520.933759 266.207509 521.738929 264.263657 521.738929 262.237073 
C 521.738929 260.21049 520.933759 258.266637 519.500748 256.833627 
C 518.067737 255.400616 516.123885 254.595446 514.097301 254.595446 
C 512.070718 254.595446 510.126866 255.400616 508.693855 256.833627 
C 507.260844 258.266637 506.455674 260.21049 506.455674 262.237073 
C 506.455674 264.263657 507.260844 266.207509 508.693855 267.64052 
C 510.126866 269.073531 512.070718 269.878701 514.097301 269.878701 
z
" style="fill:#cc0000;fill-opacity:0.1;stroke:#cc0000;stroke-dasharray:7.4,3.2;stroke-dashoffset:0;stroke-linejoin:miter;stroke-width:2;"/>
   </g>
   <g id="patch_57">
    <path clip-path="url(#p25463acbe8)" d="M 170.224055 230.171639 
C 172.250638 230.171639 174.194491 229.366469 175.627501 227.933458 
C 177.060512 226.500447 177.865682 224.556594 177.865682 222.530011 
C 177.865682 220.503428 177.060512 218.559575 175.627501 217.126564 
C 174.194491 215.693553 172.250638 214.888383 170.224055 214.888383 
C 168.197471 214.888383 166.253619 215.693553 164.820608 217.126564 
C 163.387597 218.559575 162.582427 220.503428 162.582427 222.530011 
C 162.582427 224.556594 163.387597 226.500447 164.820608 227.933458 
C 166.253619 229.366469 168.197471 230.171639 170.224055 230.171639 
z
" style="fill:#cc0000;fill-opacity:0.1;stroke:#cc0000;stroke-dasharray:7.4,3.2;stroke-dashoffset:0;stroke-linejoin:miter;stroke-width:2;"/>
   </g>
   <g id="patch_58">
    <path clip-path="url(#p25463acbe8)" d="M 238.998704 190.464576 
C 241.025287 190.464576 242.96914 189.659406 244.402151 188.226395 
C 245.835162 186.793385 246.640332 184.849532 246.640332 182.822949 
C 246.640332 180.796365 245.835162 178.852513 244.402151 177.419502 
C 242.96914 175.986491 241.025287 175.181321 238.998704 175.181321 
C 236.972121 175.181321 235.028268 175.986491 233.595257 177.419502 
C 232.162246 178.852513 231.357076 180.796365 231.357076 182.822949 
C 231.357076 184.849532 232.162246 186.793385 233.595257 188.226395 
C 235.028268 189.659406 236.972121 190.464576 238.998704 190.464576 
z
" style="fill:#cc0000;fill-opacity:0.1;stroke:#cc0000;stroke-dasharray:7.4,3.2;stroke-dashoffset:0;stroke-linejoin:miter;stroke-width:2;"/>
   </g>
   <g id="patch_59">
    <path clip-path="url(#p25463acbe8)" d="M 307.773353 230.171639 
C 309.799937 230.171639 311.743789 229.366469 313.1768 227.933458 
C 314.609811 226.500447 315.414981 224.556594 315.414981 222.530011 
C 315.414981 220.503428 314.609811 218.559575 313.1768 217.126564 
C 311.743789 215.693553 309.799937 214.888383 307.773353 214.888383 
C 305.74677 214.888383 303.802917 215.693553 302.369907 217.126564 
C 300.936896 218.559575 300.131726 220.503428 300.131726 222.530011 
C 300.131726 224.556594 300.936896 226.500447 302.369907 227.933458 
C 303.802917 229.366469 305.74677 230.171639 307.773353 230.171639 
z
" style="fill:#cc0000;fill-opacity:0.1;stroke:#cc0000;stroke-dasharray:7.4,3.2;stroke-dashoffset:0;stroke-linejoin:miter;stroke-width:2;"/>
   </g>
   <g id="patch_60">
    <path clip-path="url(#p25463acbe8)" d="M 376.548003 190.464576 
C 378.574586 190.464576 380.518439 189.659406 381.951449 188.226395 
C 383.38446 186.793385 384.18963 184.849532 384.18963 182.822949 
C 384.18963 180.796365 383.38446 178.852513 381.951449 177.419502 
C 380.518439 175.986491 378.574586 175.181321 376.548003 175.181321 
C 374.521419 175.181321 372.577567 175.986491 371.144556 177.419502 
C 369.711545 178.852513 368.906375 180.796365 368.906375 182.822949 
C 368.906375 184.849532 369.711545 186.793385 371.144556 188.226395 
C 372.577567 189.659406 374.521419 190.464576 376.548003 190.464576 
z
" style="fill:#cc0000;fill-opacity:0.1;stroke:#cc0000;stroke-dasharray:7.4,3.2;stroke-dashoffset:0;stroke-linejoin:miter;stroke-width:2;"/>
   </g>
   <g id="patch_61">
    <path clip-path="url(#p25463acbe8)" d="M 445.322652 230.171639 
C 447.349235 230.171639 449.293088 229.366469 450.726099 227.933458 
C 452.15911 226.500447 452.96428 224.556594 452.96428 222.530011 
C 452.96428 220.503428 452.15911 218.559575 450.726099 217.126564 
C 449.293088 215.693553 447.349235 214.888383 445.322652 214.888383 
C 443.296069 214.888383 441.352216 215.693553 439.919205 217.126564 
C 438.486194 218.559575 437.681024 220.503428 437.681024 222.530011 
C 437.681024 224.556594 438.486194 226.500447 439.919205 227.933458 
C 441.352216 229.366469 443.296069 230.171639 445.322652 230.171639 
z
" style="fill:#cc0000;fill-opacity:0.1;stroke:#cc0000;stroke-dasharray:7.4,3.2;stroke-dashoffset:0;stroke-linejoin:miter;stroke-width:2;"/>
   </g>
   <g id="patch_62">
    <path clip-path="url(#p25463acbe8)" d="M 514.097301 190.464576 
C 516.123885 190.464576 518.067737 189.659406 519.500748 188.226395 
C 520.933759 186.793385 521.738929 184.849532 521.738929 182.822949 
C 521.738929 180.796365 520.933759 178.852513 519.500748 177.419502 
C 518.067737 175.986491 516.123885 175.181321 514.097301 175.181321 
C 512.070718 175.181321 510.126866 175.986491 508.693855 177.419502 
C 507.260844 178.852513 506.455674 180.796365 506.455674 182.822949 
C 506.455674 184.849532 507.260844 186.793385 508.693855 188.226395 
C 510.126866 189.659406 512.070718 190.464576 514.097301 190.464576 
z
" style="fill:#cc0000;fill-opacity:0.1;stroke:#cc0000;stroke-dasharray:7.4,3.2;stroke-dashoffset:0;stroke-linejoin:miter;stroke-width:2;"/>
   </g>
   <g id="patch_63">
    <path clip-path="url(#p25463acbe8)" d="M 170.224055 150.757514 
C 172.250638 150.757514 174.194491 149.952344 175.627501 148.519333 
C 177.060512 147.086322 177.865682 145.14247 177.865682 143.115886 
C 177.865682 141.089303 177.060512 139.14545 175.627501 137.71244 
C 174.194491 136.279429 172.250638 135.474259 170.224055 135.474259 
C 168.197471 135.474259 166.253619 136.279429 164.820608 137.71244 
C 163.387597 139.14545 162.582427 141.089303 162.582427 143.115886 
C 162.582427 145.14247 163.387597 147.086322 164.820608 148.519333 
C 166.253619 149.952344 168.197471 150.757514 170.224055 150.757514 
z
" style="fill:#cc0000;fill-opacity:0.1;stroke:#cc0000;stroke-dasharray:7.4,3.2;stroke-dashoffset:0;stroke-linejoin:miter;stroke-width:2;"/>
   </g>
   <g id="patch_64">
    <path clip-path="url(#p25463acbe8)" d="M 238.998704 111.050452 
C 241.025287 111.050452 242.96914 110.245282 244.402151 108.812271 
C 245.835162 107.37926 246.640332 105.435407 246.640332 103.408824 
C 246.640332 101.382241 245.835162 99.438388 244.402151 98.005377 
C 242.96914 96.572366 241.025287 95.767196 238.998704 95.767196 
C 236.972121 95.767196 235.028268 96.572366 233.595257 98.005377 
C 232.162246 99.438388 231.357076 101.382241 231.357076 103.408824 
C 231.357076 105.435407 232.162246 107.37926 233.595257 108.812271 
C 235.028268 110.245282 236.972121 111.050452 238.998704 111.050452 
z
" style="fill:#cc0000;fill-opacity:0.1;stroke:#cc0000;stroke-dasharray:7.4,3.2;stroke-dashoffset:0;stroke-linejoin:miter;stroke-width:2;"/>
   </g>
   <g id="patch_65">
    <path clip-path="url(#p25463acbe8)" d="M 307.773353 150.757514 
C 309.799937 150.757514 311.743789 149.952344 313.1768 148.519333 
C 314.609811 147.086322 315.414981 145.14247 315.414981 143.115886 
C 315.414981 141.089303 314.609811 139.14545 313.1768 137.71244 
C 311.743789 136.279429 309.799937 135.474259 307.773353 135.474259 
C 305.74677 135.474259 303.802917 136.279429 302.369907 137.71244 
C 300.936896 139.14545 300.131726 141.089303 300.131726 143.115886 
C 300.131726 145.14247 300.936896 147.086322 302.369907 148.519333 
C 303.802917 149.952344 305.74677 150.757514 307.773353 150.757514 
z
" style="fill:#cc0000;fill-opacity:0.1;stroke:#cc0000;stroke-dasharray:7.4,3.2;stroke-dashoffset:0;stroke-linejoin:miter;stroke-width:2;"/>
   </g>
   <g id="patch_66">
    <path clip-path="url(#p25463acbe8)" d="M 376.548003 111.050452 
C 378.574586 111.050452 380.518439 110.245282 381.951449 108.812271 
C 383.38446 107.37926 384.18963 105.435407 384.18963 103.408824 
C 384.18963 101.382241 383.38446 99.438388 381.951449 98.005377 
C 380.518439 96.572366 378.574586 95.767196 376.548003 95.767196 
C 374.521419 95.767196 372.577567 96.572366 371.144556 98.005377 
C 369.711545 99.438388 368.906375 101.382241 368.906375 103.408824 
C 368.906375 105.435407 369.711545 107.37926 371.144556 108.812271 
C 372.577567 110.245282 374.521419 111.050452 376.548003 111.050452 
z
" style="fill:#cc0000;fill-opacity:0.1;stroke:#cc0000;stroke-dasharray:7.4,3.2;stroke-dashoffset:0;stroke-linejoin:miter;stroke-width:2;"/>
   </g>
   <g id="patch_67">
    <path clip-path="url(#p25463acbe8)" d="M 445.322652 150.757514 
C 447.349235 150.757514 449.293088 149.952344 450.726099 148.519333 
C 452.15911 147.086322 452.96428 145.14247 452.96428 143.115886 
C 452.96428 141.089303 452.15911 139.14545 450.726099 137.71244 
C 449.293088 136.279429 447.349235 135.474259 445.322652 135.474259 
C 443.296069 135.474259 441.352216 136.279429 439.919205 137.71244 
C 438.486194 139.14545 437.681024 141.089303 437.681024 143.115886 
C 437.681024 145.14247 438.486194 147.086322 439.919205 148.519333 
C 441.352216 149.952344 443.296069 150.757514 445.322652 150.757514 
z
" style="fill:#cc0000;fill-opacity:0.1;stroke:#cc0000;stroke-dasharray:7.4,3.2;stroke-dashoffset:0;stroke-linejoin:miter;stroke-width:2;"/>
   </g>
   <g id="patch_68">
    <path clip-path="url(#p25463acbe8)" d="M 514.097301 111.050452 
C 516.123885 111.050452 518.067737 110.245282 519.500748 108.812271 
C 520.933759 107.37926 521.738929 105.435407 521.738929 103.408824 
C 521.738929 101.382241 520.933759 99.438388 519.500748 98.005377 
C 518.067737 96.572366 516.123885 95.767196 514.097301 95.767196 
C 512.070718 95.767196 510.126866 96.572366 508.693855 98.005377 
C 507.260844 99.438388 506.455674 101.382241 506.455674 103.408824 
C 506.455674 105.435407 507.260844 107.37926 508.693855 108.812271 
C 510.126866 110.245282 512.070718 111.050452 514.097301 111.050452 
z
" style="fill:#cc0000;fill-opacity:0.1;stroke:#cc0000;stroke-dasharray:7.4,3.2;stroke-dashoffset:0;stroke-linejoin:miter;stroke-width:2;"/>
   </g>
   <g id="patch_69">
    <path clip-path="url(#p25463acbe8)" d="M 170.224055 71.343389 
C 172.250638 71.343389 174.194491 70.538219 175.627501 69.105209 
C 177.060512 67.672198 177.865682 65.728345 177.865682 63.701762 
C 177.865682 61.675178 177.060512 59.731326 175.627501 58.298315 
C 174.194491 56.865304 172.250638 56.060134 170.224055 56.060134 
C 168.197471 56.060134 166.253619 56.865304 164.820608 58.298315 
C 163.387597 59.731326 162.582427 61.675178 162.582427 63.701762 
C 162.582427 65.728345 163.387597 67.672198 164.820608 69.105209 
C 166.253619 70.538219 168.197471 71.343389 170.224055 71.343389 
z
" style="fill:#cc0000;fill-opacity:0.1;stroke:#cc0000;stroke-dasharray:7.4,3.2;stroke-dashoffset:0;stroke-linejoin:miter;stroke-width:2;"/>
   </g>
   <g id="patch_70">
    <path clip-path="url(#p25463acbe8)" d="M 238.998704 31.636327 
C 241.025287 31.636327 242.96914 30.831157 244.402151 29.398146 
C 245.835162 27.965135 246.640332 26.021283 246.640332 23.994699 
C 246.640332 21.968116 245.835162 20.024263 244.402151 18.591253 
C 242.96914 17.158242 241.025287 16.353072 238.998704 16.353072 
C 236.972121 16.353072 235.028268 17.158242 233.595257 18.591253 
C 232.162246 20.024263 231.357076 21.968116 231.357076 23.994699 
C 231.357076 26.021283 232.162246 27.965135 233.595257 29.398146 
C 235.028268 30.831157 236.972121 31.636327 238.998704 31.636327 
z
" style="fill:#cc0000;fill-opacity:0.1;stroke:#cc0000;stroke-dasharray:7.4,3.2;stroke-dashoffset:0;stroke-linejoin:miter;stroke-width:2;"/>
   </g>
   <g id="patch_71">
    <path clip-path="url(#p25463acbe8)" d="M 307.773353 71.343389 
C 309.799937 71.343389 311.743789 70.538219 313.1768 69.105209 
C 314.609811 67.672198 315.414981 65.728345 315.414981 63.701762 
C 315.414981 61.675178 314.609811 59.731326 313.1768 58.298315 
C 311.743789 56.865304 309.799937 56.060134 307.773353 56.060134 
C 305.74677 56.060134 303.802917 56.865304 302.369907 58.298315 
C 300.936896 59.731326 300.131726 61.675178 300.131726 63.701762 
C 300.131726 65.728345 300.936896 67.672198 302.369907 69.105209 
C 303.802917 70.538219 305.74677 71.343389 307.773353 71.343389 
z
" style="fill:#cc0000;fill-opacity:0.1;stroke:#cc0000;stroke-dasharray:7.4,3.2;stroke-dashoffset:0;stroke-linejoin:miter;stroke-width:2;"/>
   </g>
   <g id="patch_72">
    <path clip-path="url(#p25463acbe8)" d="M 376.548003 31.636327 
C 378.574586 31.636327 380.518439 30.831157 381.951449 29.398146 
C 383.38446 27.965135 384.18963 26.021283 384.18963 23.994699 
C 384.18963 21.968116 383.38446 20.024263 381.951449 18.591253 
C 380.518439 17.158242 378.574586 16.353072 376.548003 16.353072 
C 374.521419 16.353072 372.577567 17.158242 371.144556 18.591253 
C 369.711545 20.024263 368.906375 21.968116 368.906375 23.994699 
C 368.906375 26.021283 369.711545 27.965135 371.144556 29.398146 
C 372.577567 30.831157 374.521419 31.636327 376.548003 31.636327 
z
" style="fill:#cc0000;fill-opacity:0.1;stroke:#cc0000;stroke-dasharray:7.4,3.2;stroke-dashoffset:0;stroke-linejoin:miter;stroke-width:2;"/>
   </g>
   <g id="patch_73">
    <path clip-path="url(#p25463acbe8)" d="M 445.322652 71.343389 
C 447.349235 71.343389 449.293088 70.538219 450.726099 69.105209 
C 452.15911 67.672198 452.96428 65.728345 452.96428 63.701762 
C 452.96428 61.675178 452.15911 59.731326 450.726099 58.298315 
C 449.293088 56.865304 447.349235 56.060134 445.322652 56.060134 
C 443.296069 56.060134 441.352216 56.865304 439.919205 58.298315 
C 438.486194 59.731326 437.681024 61.675178 437.681024 63.701762 
C 437.681024 65.728345 438.486194 67.672198 439.919205 69.105209 
C 441.352216 70.538219 443.296069 71.343389 445.322652 71.343389 
z
" style="fill:#cc0000;fill-opacity:0.1;stroke:#cc0000;stroke-dasharray:7.4,3.2;stroke-dashoffset:0;stroke-linejoin:miter;stroke-width:2;"/>
   </g>
   <g id="patch_74">
    <path clip-path="url(#p25463acbe8)" d="M 514.097301 31.636327 
C 516.123885 31.636327 518.067737 30.831157 519.500748 29.398146 
C 520.933759 27.965135 521.738929 26.021283 521.738929 23.994699 
C 521.738929 21.968116 520.933759 20.024263 519.500748 18.591253 
C 518.067737 17.158242 516.123885 16.353072 514.097301 16.353072 
C 512.070718 16.353072 510.126866 17.158242 508.693855 18.591253 
C 507.260844 20.024263 506.455674 21.968116 506.455674 23.994699 
C 506.455674 26.021283 507.260844 27.965135 508.693855 29.398146 
C 510.126866 30.831157 512.070718 31.636327 514.097301 31.636327 
z
" style="fill:#cc0000;fill-opacity:0.1;stroke:#cc0000;stroke-dasharray:7.4,3.2;stroke-dashoffset:0;stroke-linejoin:miter;stroke-width:2;"/>
   </g>
   <g id="matplotlib.axis_1">
    <g id="xtick_1">
     <g id="line2d_1">
      <defs>
       <path d="M 0 0 
L 0 3.5 
" id="mdc09d728dd" style="stroke:#000000;stroke-width:0.8;"/>
      </defs>
      <g>
       <use style="stroke:#000000;stroke-width:0.8;" x="176.031692" xlink:href="#mdc09d728dd" y="307.584"/>
      </g>
     </g>
     <g id="text_1">
      <!-- 4 -->
      <defs>
       <path d="M 10.59375 35.5 
L 73.1875 35.5 
L 73.1875 27.203125 
L 10.59375 27.203125 
z
" id="DejaVuSans-2212"/>
       <path d="M 37.796875 64.3125 
L 12.890625 25.390625 
L 37.796875 25.390625 
z
M 35.203125 72.90625 
L 47.609375 72.90625 
L 47.609375 25.390625 
L 58.015625 25.390625 
L 58.015625 17.1875 
L 47.609375 17.1875 
L 47.609375 0 
L 37.796875 0 
L 37.796875 17.1875 
L 4.890625 17.1875 
L 4.890625 26.703125 
z
" id="DejaVuSans-34"/>
      </defs>
      <g transform="translate(168.660598 322.182437)scale(0.1 -0.1)">
       <use xlink:href="#DejaVuSans-2212"/>
       <use x="83.789062" xlink:href="#DejaVuSans-34"/>
      </g>
     </g>
    </g>
    <g id="xtick_2">
     <g id="line2d_2">
      <g>
       <use style="stroke:#000000;stroke-width:0.8;" x="237.164713" xlink:href="#mdc09d728dd" y="307.584"/>
      </g>
     </g>
     <g id="text_2">
      <!-- 2 -->
      <defs>
       <path d="M 19.1875 8.296875 
L 53.609375 8.296875 
L 53.609375 0 
L 7.328125 0 
L 7.328125 8.296875 
Q 12.9375 14.109375 22.625 23.890625 
Q 32.328125 33.6875 34.8125 36.53125 
Q 39.546875 41.84375 41.421875 45.53125 
Q 43.3125 49.21875 43.3125 52.78125 
Q 43.3125 58.59375 39.234375 62.25 
Q 35.15625 65.921875 28.609375 65.921875 
Q 23.96875 65.921875 18.8125 64.3125 
Q 13.671875 62.703125 7.8125 59.421875 
L 7.8125 69.390625 
Q 13.765625 71.78125 18.9375 73 
Q 24.125 74.21875 28.421875 74.21875 
Q 39.75 74.21875 46.484375 68.546875 
Q 53.21875 62.890625 53.21875 53.421875 
Q 53.21875 48.921875 51.53125 44.890625 
Q 49.859375 40.875 45.40625 35.40625 
Q 44.1875 33.984375 37.640625 27.21875 
Q 31.109375 20.453125 19.1875 8.296875 
z
" id="DejaVuSans-32"/>
      </defs>
      <g transform="translate(229.79362 322.182437)scale(0.1 -0.1)">
       <use xlink:href="#DejaVuSans-2212"/>
       <use x="83.789062" xlink:href="#DejaVuSans-32"/>
      </g>
     </g>
    </g>
    <g id="xtick_3">
     <g id="line2d_3">
      <g>
       <use style="stroke:#000000;stroke-width:0.8;" x="298.297735" xlink:href="#mdc09d728dd" y="307.584"/>
      </g>
     </g>
     <g id="text_3">
      <!-- 0 -->
      <defs>
       <path d="M 31.78125 66.40625 
Q 24.171875 66.40625 20.328125 58.90625 
Q 16.5 51.421875 16.5 36.375 
Q 16.5 21.390625 20.328125 13.890625 
Q 24.171875 6.390625 31.78125 6.390625 
Q 39.453125 6.390625 43.28125 13.890625 
Q 47.125 21.390625 47.125 36.375 
Q 47.125 51.421875 43.28125 58.90625 
Q 39.453125 66.40625 31.78125 66.40625 
z
M 31.78125 74.21875 
Q 44.046875 74.21875 50.515625 64.515625 
Q 56.984375 54.828125 56.984375 36.375 
Q 56.984375 17.96875 50.515625 8.265625 
Q 44.046875 -1.421875 31.78125 -1.421875 
Q 19.53125 -1.421875 13.0625 8.265625 
Q 6.59375 17.96875 6.59375 36.375 
Q 6.59375 54.828125 13.0625 64.515625 
Q 19.53125 74.21875 31.78125 74.21875 
z
" id="DejaVuSans-30"/>
      </defs>
      <g transform="translate(295.116485 322.182437)scale(0.1 -0.1)">
       <use xlink:href="#DejaVuSans-30"/>
      </g>
     </g>
    </g>
   </g>
   <g id="matplotlib.axis_2">
    <g id="ytick_1">
     <g id="line2d_4">
      <defs>
       <path d="M 0 0 
L -3.5 0 
" id="m86401583dd" style="stroke:#000000;stroke-width:0.8;"/>
      </defs>
      <g>
       <use style="stroke:#000000;stroke-width:0.8;" x="123.044857" xlink:href="#m86401583dd" y="298.946288"/>
      </g>
     </g>
     <g id="text_4">
      <!-- 2 -->
      <g transform="translate(101.30267 302.745507)scale(0.1 -0.1)">
       <use xlink:href="#DejaVuSans-2212"/>
       <use x="83.789062" xlink:href="#DejaVuSans-32"/>
      </g>
     </g>
    </g>
    <g id="ytick_2">
     <g id="line2d_5">
      <g>
       <use style="stroke:#000000;stroke-width:0.8;" x="123.044857" xlink:href="#m86401583dd" y="268.379777"/>
      </g>
     </g>
     <g id="text_5">
      <!-- 1 -->
      <defs>
       <path d="M 12.40625 8.296875 
L 28.515625 8.296875 
L 28.515625 63.921875 
L 10.984375 60.40625 
L 10.984375 69.390625 
L 28.421875 72.90625 
L 38.28125 72.90625 
L 38.28125 8.296875 
L 54.390625 8.296875 
L 54.390625 0 
L 12.40625 0 
z
" id="DejaVuSans-31"/>
      </defs>
      <g transform="translate(101.30267 272.178996)scale(0.1 -0.1)">
       <use xlink:href="#DejaVuSans-2212"/>
       <use x="83.789062" xlink:href="#DejaVuSans-31"/>
      </g>
     </g>
    </g>
    <g id="ytick_3">
     <g id="line2d_6">
      <g>
       <use style="stroke:#000000;stroke-width:0.8;" x="123.044857" xlink:href="#m86401583dd" y="237.813266"/>
      </g>
     </g>
     <g id="text_6">
      <!-- 0 -->
      <g transform="translate(109.682357 241.612485)scale(0.1 -0.1)">
       <use xlink:href="#DejaVuSans-30"/>
      </g>
     </g>
    </g>
    <g id="ytick_4">
     <g id="line2d_7">
      <g>
       <use style="stroke:#000000;stroke-width:0.8;" x="123.044857" xlink:href="#m86401583dd" y="207.246756"/>
      </g>
     </g>
     <g id="text_7">
      <!-- 1 -->
      <g transform="translate(109.682357 211.045974)scale(0.1 -0.1)">
       <use xlink:href="#DejaVuSans-31"/>
      </g>
     </g>
    </g>
    <g id="ytick_5">
     <g id="line2d_8">
      <g>
       <use style="stroke:#000000;stroke-width:0.8;" x="123.044857" xlink:href="#m86401583dd" y="176.680245"/>
      </g>
     </g>
     <g id="text_8">
      <!-- 2 -->
      <g transform="translate(109.682357 180.479464)scale(0.1 -0.1)">
       <use xlink:href="#DejaVuSans-32"/>
      </g>
     </g>
    </g>
    <g id="ytick_6">
     <g id="line2d_9">
      <g>
       <use style="stroke:#000000;stroke-width:0.8;" x="123.044857" xlink:href="#m86401583dd" y="146.113734"/>
      </g>
     </g>
     <g id="text_9">
      <!-- 3 -->
      <defs>
       <path d="M 40.578125 39.3125 
Q 47.65625 37.796875 51.625 33 
Q 55.609375 28.21875 55.609375 21.1875 
Q 55.609375 10.40625 48.1875 4.484375 
Q 40.765625 -1.421875 27.09375 -1.421875 
Q 22.515625 -1.421875 17.65625 -0.515625 
Q 12.796875 0.390625 7.625 2.203125 
L 7.625 11.71875 
Q 11.71875 9.328125 16.59375 8.109375 
Q 21.484375 6.890625 26.8125 6.890625 
Q 36.078125 6.890625 40.9375 10.546875 
Q 45.796875 14.203125 45.796875 21.1875 
Q 45.796875 27.640625 41.28125 31.265625 
Q 36.765625 34.90625 28.71875 34.90625 
L 20.21875 34.90625 
L 20.21875 43.015625 
L 29.109375 43.015625 
Q 36.375 43.015625 40.234375 45.921875 
Q 44.09375 48.828125 44.09375 54.296875 
Q 44.09375 59.90625 40.109375 62.90625 
Q 36.140625 65.921875 28.71875 65.921875 
Q 24.65625 65.921875 20.015625 65.03125 
Q 15.375 64.15625 9.8125 62.3125 
L 9.8125 71.09375 
Q 15.4375 72.65625 20.34375 73.4375 
Q 25.25 74.21875 29.59375 74.21875 
Q 40.828125 74.21875 47.359375 69.109375 
Q 53.90625 64.015625 53.90625 55.328125 
Q 53.90625 49.265625 50.4375 45.09375 
Q 46.96875 40.921875 40.578125 39.3125 
z
" id="DejaVuSans-33"/>
      </defs>
      <g transform="translate(109.682357 149.912953)scale(0.1 -0.1)">
       <use xlink:href="#DejaVuSans-33"/>
      </g>
     </g>
    </g>
    <g id="ytick_7">
     <g id="line2d_10">
      <g>
       <use style="stroke:#000000;stroke-width:0.8;" x="123.044857" xlink:href="#m86401583dd" y="115.547223"/>
      </g>
     </g>
     <g id="text_10">
      <!-- 4 -->
      <g transform="translate(109.682357 119.346442)scale(0.1 -0.1)">
       <use xlink:href="#DejaVuSans-34"/>
      </g>
     </g>
    </g>
    <g id="ytick_8">
     <g id="line2d_11">
      <g>
       <use style="stroke:#000000;stroke-width:0.8;" x="123.044857" xlink:href="#m86401583dd" y="84.980712"/>
      </g>
     </g>
     <g id="text_11">
      <!-- 5 -->
      <defs>
       <path d="M 10.796875 72.90625 
L 49.515625 72.90625 
L 49.515625 64.59375 
L 19.828125 64.59375 
L 19.828125 46.734375 
Q 21.96875 47.46875 24.109375 47.828125 
Q 26.265625 48.1875 28.421875 48.1875 
Q 40.625 48.1875 47.75 41.5 
Q 54.890625 34.8125 54.890625 23.390625 
Q 54.890625 11.625 47.5625 5.09375 
Q 40.234375 -1.421875 26.90625 -1.421875 
Q 22.3125 -1.421875 17.546875 -0.640625 
Q 12.796875 0.140625 7.71875 1.703125 
L 7.71875 11.625 
Q 12.109375 9.234375 16.796875 8.0625 
Q 21.484375 6.890625 26.703125 6.890625 
Q 35.15625 6.890625 40.078125 11.328125 
Q 45.015625 15.765625 45.015625 23.390625 
Q 45.015625 31 40.078125 35.4375 
Q 35.15625 39.890625 26.703125 39.890625 
Q 22.75 39.890625 18.8125 39.015625 
Q 14.890625 38.140625 10.796875 36.28125 
z
" id="DejaVuSans-35"/>
      </defs>
      <g transform="translate(109.682357 88.779931)scale(0.1 -0.1)">
       <use xlink:href="#DejaVuSans-35"/>
      </g>
     </g>
    </g>
    <g id="ytick_9">
     <g id="line2d_12">
      <g>
       <use style="stroke:#000000;stroke-width:0.8;" x="123.044857" xlink:href="#m86401583dd" y="54.414201"/>
      </g>
     </g>
     <g id="text_12">
      <!-- 6 -->
      <defs>
       <path d="M 33.015625 40.375 
Q 26.375 40.375 22.484375 35.828125 
Q 18.609375 31.296875 18.609375 23.390625 
Q 18.609375 15.53125 22.484375 10.953125 
Q 26.375 6.390625 33.015625 6.390625 
Q 39.65625 6.390625 43.53125 10.953125 
Q 47.40625 15.53125 47.40625 23.390625 
Q 47.40625 31.296875 43.53125 35.828125 
Q 39.65625 40.375 33.015625 40.375 
z
M 52.59375 71.296875 
L 52.59375 62.3125 
Q 48.875 64.0625 45.09375 64.984375 
Q 41.3125 65.921875 37.59375 65.921875 
Q 27.828125 65.921875 22.671875 59.328125 
Q 17.53125 52.734375 16.796875 39.40625 
Q 19.671875 43.65625 24.015625 45.921875 
Q 28.375 48.1875 33.59375 48.1875 
Q 44.578125 48.1875 50.953125 41.515625 
Q 57.328125 34.859375 57.328125 23.390625 
Q 57.328125 12.15625 50.6875 5.359375 
Q 44.046875 -1.421875 33.015625 -1.421875 
Q 20.359375 -1.421875 13.671875 8.265625 
Q 6.984375 17.96875 6.984375 36.375 
Q 6.984375 53.65625 15.1875 63.9375 
Q 23.390625 74.21875 37.203125 74.21875 
Q 40.921875 74.21875 44.703125 73.484375 
Q 48.484375 72.75 52.59375 71.296875 
z
" id="DejaVuSans-36"/>
      </defs>
      <g transform="translate(109.682357 58.21342)scale(0.1 -0.1)">
       <use xlink:href="#DejaVuSans-36"/>
      </g>
     </g>
    </g>
   </g>
   <g id="line2d_13">
    <path clip-path="url(#p25463acbe8)" d="M 291.553882 267.876938 
L 290.718748 262.130013 
L 289.665886 256.418965 
L 288.396816 250.752039 
L 286.913372 245.137417 
L 285.217694 239.583205 
L 283.312231 234.097424 
L 281.199734 228.687992 
L 278.883253 223.362722 
L 276.366132 218.129301 
L 273.652007 212.995286 
L 270.744796 207.968088 
L 267.648695 203.054968 
L 264.368176 198.263018 
L 260.907976 193.599157 
L 257.273089 189.070119 
L 253.468764 184.682443 
L 249.500494 180.442464 
L 245.374008 176.356303 
L 241.095264 172.429862 
L 236.670441 168.668808 
L 232.105926 165.078572 
L 227.40831 161.664338 
L 222.584376 158.431035 
L 217.641088 155.383331 
L 212.585584 152.525628 
L 207.425163 149.86205 
L 202.167276 147.396444 
L 196.819514 145.13237 
L 191.389599 143.073096 
L 185.88537 141.221596 
L 180.314774 139.580543 
L 176.352807 138.551582 
L 176.531905 132.747057 
L 176.490355 126.939918 
L 176.228216 121.13855 
L 175.745868 115.351329 
L 175.044007 109.58661 
L 174.123645 103.852717 
L 172.986113 98.157929 
L 171.633052 92.510468 
L 170.066416 86.918488 
L 168.894623 83.195442 
L 174.119295 81.481384 
L 169.652043 81.179062 
L 174.975028 83.500789 
L 176.213431 84.006828 
L 180.04208 88.373296 
L 184.03385 92.591158 
L 188.182979 96.654324 
L 192.483475 100.556929 
L 196.92913 104.293336 
L 201.513525 107.858152 
L 206.230041 111.246229 
L 211.071868 114.452676 
L 216.032016 117.472862 
L 220.439296 119.946199 
L 216.344649 124.064263 
L 212.409407 128.334914 
L 208.639251 132.751985 
L 205.039626 137.309099 
L 201.615727 141.999675 
L 198.3725 146.816943 
L 195.314625 151.753945 
L 192.44652 156.803555 
L 189.772323 161.958481 
L 187.295898 167.211281 
L 185.020818 172.55437 
L 182.95037 177.980035 
L 181.087541 183.48044 
L 179.435023 189.047645 
L 177.995201 194.673612 
L 176.770153 200.350217 
L 175.761648 206.069265 
L 174.971144 211.822498 
L 174.517256 216.20839 
L 179.653928 213.499295 
L 184.683971 210.59701 
L 189.600122 207.505724 
L 194.395283 204.229901 
L 199.062531 200.77427 
L 203.595128 197.143822 
L 207.986529 193.343797 
L 212.230393 189.379682 
L 216.320594 185.257201 
L 220.251225 180.982306 
L 224.016612 176.561169 
L 227.611317 172.000174 
L 231.030152 167.305905 
L 234.268179 162.48514 
L 237.320723 157.54484 
L 240.183378 152.492138 
L 242.852009 147.334329 
L 245.322765 142.07886 
L 247.592077 136.733318 
L 249.656669 131.305423 
L 251.51356 125.80301 
L 252.213972 123.52814 
L 256.904538 126.952054 
L 261.721794 130.195297 
L 266.658787 133.253187 
L 271.708388 136.121309 
L 276.863305 138.795522 
L 282.116097 141.271965 
L 287.459179 143.547062 
L 292.884837 145.617528 
L 298.385236 147.480374 
L 302.619902 148.758263 
L 303.425377 150.796817 
L 303.425377 150.796817 
" style="fill:none;stroke:#1f77b4;stroke-linecap:square;stroke-width:1.5;"/>
   </g>
   <g id="patch_75">
    <path d="M 123.044857 307.584 
L 123.044857 41.472 
" style="fill:none;stroke:#000000;stroke-linecap:square;stroke-linejoin:miter;stroke-width:0.8;"/>
   </g>
   <g id="patch_76">
    <path d="M 349.275143 307.584 
L 349.275143 41.472 
" style="fill:none;stroke:#000000;stroke-linecap:square;stroke-linejoin:miter;stroke-width:0.8;"/>
   </g>
   <g id="patch_77">
    <path d="M 123.044857 307.584 
L 349.275143 307.584 
" style="fill:none;stroke:#000000;stroke-linecap:square;stroke-linejoin:miter;stroke-width:0.8;"/>
   </g>
   <g id="patch_78">
    <path d="M 123.044857 41.472 
L 349.275143 41.472 
" style="fill:none;stroke:#000000;stroke-linecap:square;stroke-linejoin:miter;stroke-width:0.8;"/>
   </g>
  </g>
 </g>
 <defs>
  <clipPath id="p25463acbe8">
   <rect height="266.112" width="226.230286" x="123.044857" y="41.472"/>
  </clipPath>
 </defs>
</svg>
