<?xml version="1.0" encoding="utf-8" standalone="no"?>
<!DOCTYPE svg PUBLIC "-//W3C//DTD SVG 1.1//EN"
  "http://www.w3.org/Graphics/SVG/1.1/DTD/svg11.dtd">
<!-- Created with matplotlib (http://matplotlib.org/) -->
<svg height="345.6pt" version="1.1" viewBox="0 0 460.8 345.6" width="460.8pt" xmlns="http://www.w3.org/2000/svg" xmlns:xlink="http://www.w3.org/1999/xlink">
 <defs>
  <style type="text/css">
*{stroke-linecap:butt;stroke-linejoin:round;}
  </style>
 </defs>
 <g id="figure_1">
  <g id="patch_1">
   <path d="M 0 345.6 
L 460.8 345.6 
L 460.8 0 
L 0 0 
z
" style="fill:#ffffff;"/>
  </g>
  <g id="axes_1">
   <g id="patch_2">
    <path d="M 65.203296 307.584 
L 407.116704 307.584 
L 407.116704 41.472 
L 65.203296 41.472 
z
" style="fill:#ffffff;"/>
   </g>
   <g id="PathCollection_1">
    <defs>
     <path d="M 0 3 
C 0.795609 3 1.55874 2.683901 2.12132 2.12132 
C 2.683901 1.55874 3 0.795609 3 0 
C 3 -0.795609 2.683901 -1.55874 2.12132 -2.12132 
C 1.55874 -2.683901 0.795609 -3 0 -3 
C -0.795609 -3 -1.55874 -2.683901 -2.12132 -2.12132 
C -2.683901 -1.55874 -3 -0.795609 -3 0 
C -3 0.795609 -2.683901 1.55874 -2.12132 2.12132 
C -1.55874 2.683901 -0.795609 3 0 3 
z
" id="m54341dd8b1" style="stroke:#000000;"/>
    </defs>
    <g clip-path="url(#p233ed0d58b)">
     <use style="stroke:#000000;" x="202.555025" xlink:href="#m54341dd8b1" y="210.520491"/>
    </g>
   </g>
   <g id="patch_3">
    <path clip-path="url(#p233ed0d58b)" d="M 19.29387 278.120562 
C 22.083149 278.120562 24.758562 277.01237 26.730881 275.040051 
C 28.703199 273.067733 29.811392 270.39232 29.811392 267.60304 
C 29.811392 264.813761 28.703199 262.138348 26.730881 260.166029 
C 24.758562 258.193711 22.083149 257.085518 19.29387 257.085518 
C 16.50459 257.085518 13.829177 258.193711 11.856859 260.166029 
C 9.88454 262.138348 8.776348 264.813761 8.776348 267.60304 
C 8.776348 270.39232 9.88454 273.067733 11.856859 275.040051 
C 13.829177 277.01237 16.50459 278.120562 19.29387 278.120562 
z
" style="fill:#009900;fill-opacity:0.5;stroke:#009900;stroke-linejoin:miter;stroke-width:2;"/>
   </g>
   <g id="patch_4">
    <path clip-path="url(#p233ed0d58b)" d="M 98.175284 232.578356 
C 100.964564 232.578356 103.639977 231.470164 105.612295 229.497846 
C 107.584614 227.525527 108.692806 224.850114 108.692806 222.060834 
C 108.692806 219.271555 107.584614 216.596142 105.612295 214.623823 
C 103.639977 212.651505 100.964564 211.543312 98.175284 211.543312 
C 95.386005 211.543312 92.710592 212.651505 90.738273 214.623823 
C 88.765955 216.596142 87.657762 219.271555 87.657762 222.060834 
C 87.657762 224.850114 88.765955 227.525527 90.738273 229.497846 
C 92.710592 231.470164 95.386005 232.578356 98.175284 232.578356 
z
" style="fill:#009900;fill-opacity:0.5;stroke:#009900;stroke-linejoin:miter;stroke-width:2;"/>
   </g>
   <g id="patch_5">
    <path clip-path="url(#p233ed0d58b)" d="M 177.056699 278.120562 
C 179.845978 278.120562 182.521391 277.01237 184.49371 275.040051 
C 186.466028 273.067733 187.574221 270.39232 187.574221 267.60304 
C 187.574221 264.813761 186.466028 262.138348 184.49371 260.166029 
C 182.521391 258.193711 179.845978 257.085518 177.056699 257.085518 
C 174.267419 257.085518 171.592006 258.193711 169.619688 260.166029 
C 167.647369 262.138348 166.539177 264.813761 166.539177 267.60304 
C 166.539177 270.39232 167.647369 273.067733 169.619688 275.040051 
C 171.592006 277.01237 174.267419 278.120562 177.056699 278.120562 
z
" style="fill:#009900;fill-opacity:0.5;stroke:#009900;stroke-linejoin:miter;stroke-width:2;"/>
   </g>
   <g id="patch_6">
    <path clip-path="url(#p233ed0d58b)" d="M 255.938113 232.578356 
C 258.727393 232.578356 261.402806 231.470164 263.375124 229.497846 
C 265.347443 227.525527 266.455635 224.850114 266.455635 222.060834 
C 266.455635 219.271555 265.347443 216.596142 263.375124 214.623823 
C 261.402806 212.651505 258.727393 211.543312 255.938113 211.543312 
C 253.148834 211.543312 250.473421 212.651505 248.501102 214.623823 
C 246.528784 216.596142 245.420591 219.271555 245.420591 222.060834 
C 245.420591 224.850114 246.528784 227.525527 248.501102 229.497846 
C 250.473421 231.470164 253.148834 232.578356 255.938113 232.578356 
z
" style="fill:#009900;fill-opacity:0.5;stroke:#009900;stroke-linejoin:miter;stroke-width:2;"/>
   </g>
   <g id="patch_7">
    <path clip-path="url(#p233ed0d58b)" d="M 334.819528 278.120562 
C 337.608807 278.120562 340.284221 277.01237 342.256539 275.040051 
C 344.228857 273.067733 345.33705 270.39232 345.33705 267.60304 
C 345.33705 264.813761 344.228857 262.138348 342.256539 260.166029 
C 340.284221 258.193711 337.608807 257.085518 334.819528 257.085518 
C 332.030248 257.085518 329.354835 258.193711 327.382517 260.166029 
C 325.410198 262.138348 324.302006 264.813761 324.302006 267.60304 
C 324.302006 270.39232 325.410198 273.067733 327.382517 275.040051 
C 329.354835 277.01237 332.030248 278.120562 334.819528 278.120562 
z
" style="fill:#009900;fill-opacity:0.5;stroke:#009900;stroke-linejoin:miter;stroke-width:2;"/>
   </g>
   <g id="patch_8">
    <path clip-path="url(#p233ed0d58b)" d="M 413.700942 232.578356 
C 416.490222 232.578356 419.165635 231.470164 421.137953 229.497846 
C 423.110272 227.525527 424.218464 224.850114 424.218464 222.060834 
C 424.218464 219.271555 423.110272 216.596142 421.137953 214.623823 
C 419.165635 212.651505 416.490222 211.543312 413.700942 211.543312 
C 410.911663 211.543312 408.23625 212.651505 406.263931 214.623823 
C 404.291613 216.596142 403.18342 219.271555 403.18342 222.060834 
C 403.18342 224.850114 404.291613 227.525527 406.263931 229.497846 
C 408.23625 231.470164 410.911663 232.578356 413.700942 232.578356 
z
" style="fill:#009900;fill-opacity:0.5;stroke:#009900;stroke-linejoin:miter;stroke-width:2;"/>
   </g>
   <g id="patch_9">
    <path clip-path="url(#p233ed0d58b)" d="M 492.582357 278.120562 
C 495.371636 278.120562 498.04705 277.01237 500.019368 275.040051 
C 501.991686 273.067733 503.099879 270.39232 503.099879 267.60304 
C 503.099879 264.813761 501.991686 262.138348 500.019368 260.166029 
C 498.04705 258.193711 495.371636 257.085518 492.582357 257.085518 
C 489.793078 257.085518 487.117664 258.193711 485.145346 260.166029 
C 483.173027 262.138348 482.064835 264.813761 482.064835 267.60304 
C 482.064835 270.39232 483.173027 273.067733 485.145346 275.040051 
C 487.117664 277.01237 489.793078 278.120562 492.582357 278.120562 
z
" style="fill:#009900;fill-opacity:0.5;stroke:#009900;stroke-linejoin:miter;stroke-width:2;"/>
   </g>
   <g id="patch_10">
    <path clip-path="url(#p233ed0d58b)" d="M 571.463771 232.578356 
C 574.253051 232.578356 576.928464 231.470164 578.900783 229.497846 
C 580.873101 227.525527 581.981293 224.850114 581.981293 222.060834 
C 581.981293 219.271555 580.873101 216.596142 578.900783 214.623823 
C 576.928464 212.651505 574.253051 211.543312 571.463771 211.543312 
C 568.674492 211.543312 565.999079 212.651505 564.02676 214.623823 
C 562.054442 216.596142 560.94625 219.271555 560.94625 222.060834 
C 560.94625 224.850114 562.054442 227.525527 564.02676 229.497846 
C 565.999079 231.470164 568.674492 232.578356 571.463771 232.578356 
z
" style="fill:#009900;fill-opacity:0.5;stroke:#009900;stroke-linejoin:miter;stroke-width:2;"/>
   </g>
   <g id="patch_11">
    <path clip-path="url(#p233ed0d58b)" d="M 19.29387 187.03615 
C 22.083149 187.03615 24.758562 185.927958 26.730881 183.95564 
C 28.703199 181.983321 29.811392 179.307908 29.811392 176.518629 
C 29.811392 173.729349 28.703199 171.053936 26.730881 169.081617 
C 24.758562 167.109299 22.083149 166.001107 19.29387 166.001107 
C 16.50459 166.001107 13.829177 167.109299 11.856859 169.081617 
C 9.88454 171.053936 8.776348 173.729349 8.776348 176.518629 
C 8.776348 179.307908 9.88454 181.983321 11.856859 183.95564 
C 13.829177 185.927958 16.50459 187.03615 19.29387 187.03615 
z
" style="fill:#009900;fill-opacity:0.5;stroke:#009900;stroke-linejoin:miter;stroke-width:2;"/>
   </g>
   <g id="patch_12">
    <path clip-path="url(#p233ed0d58b)" d="M 98.175284 141.493945 
C 100.964564 141.493945 103.639977 140.385752 105.612295 138.413434 
C 107.584614 136.441115 108.692806 133.765702 108.692806 130.976423 
C 108.692806 128.187143 107.584614 125.51173 105.612295 123.539411 
C 103.639977 121.567093 100.964564 120.458901 98.175284 120.458901 
C 95.386005 120.458901 92.710592 121.567093 90.738273 123.539411 
C 88.765955 125.51173 87.657762 128.187143 87.657762 130.976423 
C 87.657762 133.765702 88.765955 136.441115 90.738273 138.413434 
C 92.710592 140.385752 95.386005 141.493945 98.175284 141.493945 
z
" style="fill:#009900;fill-opacity:0.5;stroke:#009900;stroke-linejoin:miter;stroke-width:2;"/>
   </g>
   <g id="patch_13">
    <path clip-path="url(#p233ed0d58b)" d="M 177.056699 187.03615 
C 179.845978 187.03615 182.521391 185.927958 184.49371 183.95564 
C 186.466028 181.983321 187.574221 179.307908 187.574221 176.518629 
C 187.574221 173.729349 186.466028 171.053936 184.49371 169.081617 
C 182.521391 167.109299 179.845978 166.001107 177.056699 166.001107 
C 174.267419 166.001107 171.592006 167.109299 169.619688 169.081617 
C 167.647369 171.053936 166.539177 173.729349 166.539177 176.518629 
C 166.539177 179.307908 167.647369 181.983321 169.619688 183.95564 
C 171.592006 185.927958 174.267419 187.03615 177.056699 187.03615 
z
" style="fill:#009900;fill-opacity:0.5;stroke:#009900;stroke-linejoin:miter;stroke-width:2;"/>
   </g>
   <g id="patch_14">
    <path clip-path="url(#p233ed0d58b)" d="M 255.938113 141.493945 
C 258.727393 141.493945 261.402806 140.385752 263.375124 138.413434 
C 265.347443 136.441115 266.455635 133.765702 266.455635 130.976423 
C 266.455635 128.187143 265.347443 125.51173 263.375124 123.539411 
C 261.402806 121.567093 258.727393 120.458901 255.938113 120.458901 
C 253.148834 120.458901 250.473421 121.567093 248.501102 123.539411 
C 246.528784 125.51173 245.420591 128.187143 245.420591 130.976423 
C 245.420591 133.765702 246.528784 136.441115 248.501102 138.413434 
C 250.473421 140.385752 253.148834 141.493945 255.938113 141.493945 
z
" style="fill:#009900;fill-opacity:0.5;stroke:#009900;stroke-linejoin:miter;stroke-width:2;"/>
   </g>
   <g id="patch_15">
    <path clip-path="url(#p233ed0d58b)" d="M 334.819528 187.03615 
C 337.608807 187.03615 340.284221 185.927958 342.256539 183.95564 
C 344.228857 181.983321 345.33705 179.307908 345.33705 176.518629 
C 345.33705 173.729349 344.228857 171.053936 342.256539 169.081617 
C 340.284221 167.109299 337.608807 166.001107 334.819528 166.001107 
C 332.030248 166.001107 329.354835 167.109299 327.382517 169.081617 
C 325.410198 171.053936 324.302006 173.729349 324.302006 176.518629 
C 324.302006 179.307908 325.410198 181.983321 327.382517 183.95564 
C 329.354835 185.927958 332.030248 187.03615 334.819528 187.03615 
z
" style="fill:#009900;fill-opacity:0.5;stroke:#009900;stroke-linejoin:miter;stroke-width:2;"/>
   </g>
   <g id="patch_16">
    <path clip-path="url(#p233ed0d58b)" d="M 413.700942 141.493945 
C 416.490222 141.493945 419.165635 140.385752 421.137953 138.413434 
C 423.110272 136.441115 424.218464 133.765702 424.218464 130.976423 
C 424.218464 128.187143 423.110272 125.51173 421.137953 123.539411 
C 419.165635 121.567093 416.490222 120.458901 413.700942 120.458901 
C 410.911663 120.458901 408.23625 121.567093 406.263931 123.539411 
C 404.291613 125.51173 403.18342 128.187143 403.18342 130.976423 
C 403.18342 133.765702 404.291613 136.441115 406.263931 138.413434 
C 408.23625 140.385752 410.911663 141.493945 413.700942 141.493945 
z
" style="fill:#009900;fill-opacity:0.5;stroke:#009900;stroke-linejoin:miter;stroke-width:2;"/>
   </g>
   <g id="patch_17">
    <path clip-path="url(#p233ed0d58b)" d="M 492.582357 187.03615 
C 495.371636 187.03615 498.04705 185.927958 500.019368 183.95564 
C 501.991686 181.983321 503.099879 179.307908 503.099879 176.518629 
C 503.099879 173.729349 501.991686 171.053936 500.019368 169.081617 
C 498.04705 167.109299 495.371636 166.001107 492.582357 166.001107 
C 489.793078 166.001107 487.117664 167.109299 485.145346 169.081617 
C 483.173027 171.053936 482.064835 173.729349 482.064835 176.518629 
C 482.064835 179.307908 483.173027 181.983321 485.145346 183.95564 
C 487.117664 185.927958 489.793078 187.03615 492.582357 187.03615 
z
" style="fill:#009900;fill-opacity:0.5;stroke:#009900;stroke-linejoin:miter;stroke-width:2;"/>
   </g>
   <g id="patch_18">
    <path clip-path="url(#p233ed0d58b)" d="M 571.463771 141.493945 
C 574.253051 141.493945 576.928464 140.385752 578.900783 138.413434 
C 580.873101 136.441115 581.981293 133.765702 581.981293 130.976423 
C 581.981293 128.187143 580.873101 125.51173 578.900783 123.539411 
C 576.928464 121.567093 574.253051 120.458901 571.463771 120.458901 
C 568.674492 120.458901 565.999079 121.567093 564.02676 123.539411 
C 562.054442 125.51173 560.94625 128.187143 560.94625 130.976423 
C 560.94625 133.765702 562.054442 136.441115 564.02676 138.413434 
C 565.999079 140.385752 568.674492 141.493945 571.463771 141.493945 
z
" style="fill:#009900;fill-opacity:0.5;stroke:#009900;stroke-linejoin:miter;stroke-width:2;"/>
   </g>
   <g id="patch_19">
    <path clip-path="url(#p233ed0d58b)" d="M 19.29387 95.951739 
C 22.083149 95.951739 24.758562 94.843546 26.730881 92.871228 
C 28.703199 90.898909 29.811392 88.223496 29.811392 85.434217 
C 29.811392 82.644937 28.703199 79.969524 26.730881 77.997206 
C 24.758562 76.024887 22.083149 74.916695 19.29387 74.916695 
C 16.50459 74.916695 13.829177 76.024887 11.856859 77.997206 
C 9.88454 79.969524 8.776348 82.644937 8.776348 85.434217 
C 8.776348 88.223496 9.88454 90.898909 11.856859 92.871228 
C 13.829177 94.843546 16.50459 95.951739 19.29387 95.951739 
z
" style="fill:#009900;fill-opacity:0.5;stroke:#009900;stroke-linejoin:miter;stroke-width:2;"/>
   </g>
   <g id="patch_20">
    <path clip-path="url(#p233ed0d58b)" d="M 98.175284 50.409533 
C 100.964564 50.409533 103.639977 49.30134 105.612295 47.329022 
C 107.584614 45.356703 108.692806 42.68129 108.692806 39.892011 
C 108.692806 37.102731 107.584614 34.427318 105.612295 32.455 
C 103.639977 30.482681 100.964564 29.374489 98.175284 29.374489 
C 95.386005 29.374489 92.710592 30.482681 90.738273 32.455 
C 88.765955 34.427318 87.657762 37.102731 87.657762 39.892011 
C 87.657762 42.68129 88.765955 45.356703 90.738273 47.329022 
C 92.710592 49.30134 95.386005 50.409533 98.175284 50.409533 
z
" style="fill:#009900;fill-opacity:0.5;stroke:#009900;stroke-linejoin:miter;stroke-width:2;"/>
   </g>
   <g id="patch_21">
    <path clip-path="url(#p233ed0d58b)" d="M 177.056699 95.951739 
C 179.845978 95.951739 182.521391 94.843546 184.49371 92.871228 
C 186.466028 90.898909 187.574221 88.223496 187.574221 85.434217 
C 187.574221 82.644937 186.466028 79.969524 184.49371 77.997206 
C 182.521391 76.024887 179.845978 74.916695 177.056699 74.916695 
C 174.267419 74.916695 171.592006 76.024887 169.619688 77.997206 
C 167.647369 79.969524 166.539177 82.644937 166.539177 85.434217 
C 166.539177 88.223496 167.647369 90.898909 169.619688 92.871228 
C 171.592006 94.843546 174.267419 95.951739 177.056699 95.951739 
z
" style="fill:#009900;fill-opacity:0.5;stroke:#009900;stroke-linejoin:miter;stroke-width:2;"/>
   </g>
   <g id="patch_22">
    <path clip-path="url(#p233ed0d58b)" d="M 255.938113 50.409533 
C 258.727393 50.409533 261.402806 49.30134 263.375124 47.329022 
C 265.347443 45.356703 266.455635 42.68129 266.455635 39.892011 
C 266.455635 37.102731 265.347443 34.427318 263.375124 32.455 
C 261.402806 30.482681 258.727393 29.374489 255.938113 29.374489 
C 253.148834 29.374489 250.473421 30.482681 248.501102 32.455 
C 246.528784 34.427318 245.420591 37.102731 245.420591 39.892011 
C 245.420591 42.68129 246.528784 45.356703 248.501102 47.329022 
C 250.473421 49.30134 253.148834 50.409533 255.938113 50.409533 
z
" style="fill:#009900;fill-opacity:0.5;stroke:#009900;stroke-linejoin:miter;stroke-width:2;"/>
   </g>
   <g id="patch_23">
    <path clip-path="url(#p233ed0d58b)" d="M 334.819528 95.951739 
C 337.608807 95.951739 340.284221 94.843546 342.256539 92.871228 
C 344.228857 90.898909 345.33705 88.223496 345.33705 85.434217 
C 345.33705 82.644937 344.228857 79.969524 342.256539 77.997206 
C 340.284221 76.024887 337.608807 74.916695 334.819528 74.916695 
C 332.030248 74.916695 329.354835 76.024887 327.382517 77.997206 
C 325.410198 79.969524 324.302006 82.644937 324.302006 85.434217 
C 324.302006 88.223496 325.410198 90.898909 327.382517 92.871228 
C 329.354835 94.843546 332.030248 95.951739 334.819528 95.951739 
z
" style="fill:#009900;fill-opacity:0.5;stroke:#009900;stroke-linejoin:miter;stroke-width:2;"/>
   </g>
   <g id="patch_24">
    <path clip-path="url(#p233ed0d58b)" d="M 413.700942 50.409533 
C 416.490222 50.409533 419.165635 49.30134 421.137953 47.329022 
C 423.110272 45.356703 424.218464 42.68129 424.218464 39.892011 
C 424.218464 37.102731 423.110272 34.427318 421.137953 32.455 
C 419.165635 30.482681 416.490222 29.374489 413.700942 29.374489 
C 410.911663 29.374489 408.23625 30.482681 406.263931 32.455 
C 404.291613 34.427318 403.18342 37.102731 403.18342 39.892011 
C 403.18342 42.68129 404.291613 45.356703 406.263931 47.329022 
C 408.23625 49.30134 410.911663 50.409533 413.700942 50.409533 
z
" style="fill:#009900;fill-opacity:0.5;stroke:#009900;stroke-linejoin:miter;stroke-width:2;"/>
   </g>
   <g id="patch_25">
    <path clip-path="url(#p233ed0d58b)" d="M 492.582357 95.951739 
C 495.371636 95.951739 498.04705 94.843546 500.019368 92.871228 
C 501.991686 90.898909 503.099879 88.223496 503.099879 85.434217 
C 503.099879 82.644937 501.991686 79.969524 500.019368 77.997206 
C 498.04705 76.024887 495.371636 74.916695 492.582357 74.916695 
C 489.793078 74.916695 487.117664 76.024887 485.145346 77.997206 
C 483.173027 79.969524 482.064835 82.644937 482.064835 85.434217 
C 482.064835 88.223496 483.173027 90.898909 485.145346 92.871228 
C 487.117664 94.843546 489.793078 95.951739 492.582357 95.951739 
z
" style="fill:#009900;fill-opacity:0.5;stroke:#009900;stroke-linejoin:miter;stroke-width:2;"/>
   </g>
   <g id="patch_26">
    <path clip-path="url(#p233ed0d58b)" d="M 571.463771 50.409533 
C 574.253051 50.409533 576.928464 49.30134 578.900783 47.329022 
C 580.873101 45.356703 581.981293 42.68129 581.981293 39.892011 
C 581.981293 37.102731 580.873101 34.427318 578.900783 32.455 
C 576.928464 30.482681 574.253051 29.374489 571.463771 29.374489 
C 568.674492 29.374489 565.999079 30.482681 564.02676 32.455 
C 562.054442 34.427318 560.94625 37.102731 560.94625 39.892011 
C 560.94625 42.68129 562.054442 45.356703 564.02676 47.329022 
C 565.999079 49.30134 568.674492 50.409533 571.463771 50.409533 
z
" style="fill:#009900;fill-opacity:0.5;stroke:#009900;stroke-linejoin:miter;stroke-width:2;"/>
   </g>
   <g id="patch_27">
    <path clip-path="url(#p233ed0d58b)" d="M 41.030082 274.614722 
C 42.889601 274.614722 44.67321 273.875927 45.988089 272.561048 
C 47.302968 271.246169 48.041763 269.46256 48.041763 267.60304 
C 48.041763 265.743521 47.302968 263.959912 45.988089 262.645033 
C 44.67321 261.330154 42.889601 260.591359 41.030082 260.591359 
C 39.170562 260.591359 37.386953 261.330154 36.072074 262.645033 
C 34.757195 263.959912 34.0184 265.743521 34.0184 267.60304 
C 34.0184 269.46256 34.757195 271.246169 36.072074 272.561048 
C 37.386953 273.875927 39.170562 274.614722 41.030082 274.614722 
z
" style="fill:#9558b2;fill-opacity:0.5;stroke:#9558b2;stroke-linejoin:miter;stroke-width:2;"/>
   </g>
   <g id="patch_28">
    <path clip-path="url(#p233ed0d58b)" d="M 119.911496 229.072516 
C 121.771016 229.072516 123.554625 228.333721 124.869504 227.018842 
C 126.184383 225.703963 126.923178 223.920354 126.923178 222.060834 
C 126.923178 220.201315 126.184383 218.417706 124.869504 217.102827 
C 123.554625 215.787948 121.771016 215.049153 119.911496 215.049153 
C 118.051977 215.049153 116.268368 215.787948 114.953489 217.102827 
C 113.63861 218.417706 112.899815 220.201315 112.899815 222.060834 
C 112.899815 223.920354 113.63861 225.703963 114.953489 227.018842 
C 116.268368 228.333721 118.051977 229.072516 119.911496 229.072516 
z
" style="fill:#9558b2;fill-opacity:0.5;stroke:#9558b2;stroke-linejoin:miter;stroke-width:2;"/>
   </g>
   <g id="patch_29">
    <path clip-path="url(#p233ed0d58b)" d="M 198.792911 274.614722 
C 200.65243 274.614722 202.436039 273.875927 203.750918 272.561048 
C 205.065797 271.246169 205.804592 269.46256 205.804592 267.60304 
C 205.804592 265.743521 205.065797 263.959912 203.750918 262.645033 
C 202.436039 261.330154 200.65243 260.591359 198.792911 260.591359 
C 196.933391 260.591359 195.149782 261.330154 193.834903 262.645033 
C 192.520024 263.959912 191.781229 265.743521 191.781229 267.60304 
C 191.781229 269.46256 192.520024 271.246169 193.834903 272.561048 
C 195.149782 273.875927 196.933391 274.614722 198.792911 274.614722 
z
" style="fill:#9558b2;fill-opacity:0.5;stroke:#9558b2;stroke-linejoin:miter;stroke-width:2;"/>
   </g>
   <g id="patch_30">
    <path clip-path="url(#p233ed0d58b)" d="M 277.674325 229.072516 
C 279.533845 229.072516 281.317454 228.333721 282.632333 227.018842 
C 283.947212 225.703963 284.686007 223.920354 284.686007 222.060834 
C 284.686007 220.201315 283.947212 218.417706 282.632333 217.102827 
C 281.317454 215.787948 279.533845 215.049153 277.674325 215.049153 
C 275.814806 215.049153 274.031197 215.787948 272.716318 217.102827 
C 271.401439 218.417706 270.662644 220.201315 270.662644 222.060834 
C 270.662644 223.920354 271.401439 225.703963 272.716318 227.018842 
C 274.031197 228.333721 275.814806 229.072516 277.674325 229.072516 
z
" style="fill:#9558b2;fill-opacity:0.5;stroke:#9558b2;stroke-linejoin:miter;stroke-width:2;"/>
   </g>
   <g id="patch_31">
    <path clip-path="url(#p233ed0d58b)" d="M 356.55574 274.614722 
C 358.415259 274.614722 360.198868 273.875927 361.513747 272.561048 
C 362.828626 271.246169 363.567421 269.46256 363.567421 267.60304 
C 363.567421 265.743521 362.828626 263.959912 361.513747 262.645033 
C 360.198868 261.330154 358.415259 260.591359 356.55574 260.591359 
C 354.69622 260.591359 352.912611 261.330154 351.597732 262.645033 
C 350.282854 263.959912 349.544059 265.743521 349.544059 267.60304 
C 349.544059 269.46256 350.282854 271.246169 351.597732 272.561048 
C 352.912611 273.875927 354.69622 274.614722 356.55574 274.614722 
z
" style="fill:#9558b2;fill-opacity:0.5;stroke:#9558b2;stroke-linejoin:miter;stroke-width:2;"/>
   </g>
   <g id="patch_32">
    <path clip-path="url(#p233ed0d58b)" d="M 435.437154 229.072516 
C 437.296674 229.072516 439.080283 228.333721 440.395162 227.018842 
C 441.710041 225.703963 442.448836 223.920354 442.448836 222.060834 
C 442.448836 220.201315 441.710041 218.417706 440.395162 217.102827 
C 439.080283 215.787948 437.296674 215.049153 435.437154 215.049153 
C 433.577635 215.049153 431.794026 215.787948 430.479147 217.102827 
C 429.164268 218.417706 428.425473 220.201315 428.425473 222.060834 
C 428.425473 223.920354 429.164268 225.703963 430.479147 227.018842 
C 431.794026 228.333721 433.577635 229.072516 435.437154 229.072516 
z
" style="fill:#9558b2;fill-opacity:0.5;stroke:#9558b2;stroke-linejoin:miter;stroke-width:2;"/>
   </g>
   <g id="patch_33">
    <path clip-path="url(#p233ed0d58b)" d="M 514.318569 274.614722 
C 516.178089 274.614722 517.961697 273.875927 519.276576 272.561048 
C 520.591455 271.246169 521.33025 269.46256 521.33025 267.60304 
C 521.33025 265.743521 520.591455 263.959912 519.276576 262.645033 
C 517.961697 261.330154 516.178089 260.591359 514.318569 260.591359 
C 512.459049 260.591359 510.67544 261.330154 509.360562 262.645033 
C 508.045683 263.959912 507.306888 265.743521 507.306888 267.60304 
C 507.306888 269.46256 508.045683 271.246169 509.360562 272.561048 
C 510.67544 273.875927 512.459049 274.614722 514.318569 274.614722 
z
" style="fill:#9558b2;fill-opacity:0.5;stroke:#9558b2;stroke-linejoin:miter;stroke-width:2;"/>
   </g>
   <g id="patch_34">
    <path clip-path="url(#p233ed0d58b)" d="M 593.199983 229.072516 
C 595.059503 229.072516 596.843112 228.333721 598.157991 227.018842 
C 599.47287 225.703963 600.211665 223.920354 600.211665 222.060834 
C 600.211665 220.201315 599.47287 218.417706 598.157991 217.102827 
C 596.843112 215.787948 595.059503 215.049153 593.199983 215.049153 
C 591.340464 215.049153 589.556855 215.787948 588.241976 217.102827 
C 586.927097 218.417706 586.188302 220.201315 586.188302 222.060834 
C 586.188302 223.920354 586.927097 225.703963 588.241976 227.018842 
C 589.556855 228.333721 591.340464 229.072516 593.199983 229.072516 
z
" style="fill:#9558b2;fill-opacity:0.5;stroke:#9558b2;stroke-linejoin:miter;stroke-width:2;"/>
   </g>
   <g id="patch_35">
    <path clip-path="url(#p233ed0d58b)" d="M 41.030082 183.53031 
C 42.889601 183.53031 44.67321 182.791515 45.988089 181.476636 
C 47.302968 180.161757 48.041763 178.378148 48.041763 176.518629 
C 48.041763 174.659109 47.302968 172.8755 45.988089 171.560621 
C 44.67321 170.245742 42.889601 169.506947 41.030082 169.506947 
C 39.170562 169.506947 37.386953 170.245742 36.072074 171.560621 
C 34.757195 172.8755 34.0184 174.659109 34.0184 176.518629 
C 34.0184 178.378148 34.757195 180.161757 36.072074 181.476636 
C 37.386953 182.791515 39.170562 183.53031 41.030082 183.53031 
z
" style="fill:#9558b2;fill-opacity:0.5;stroke:#9558b2;stroke-linejoin:miter;stroke-width:2;"/>
   </g>
   <g id="patch_36">
    <path clip-path="url(#p233ed0d58b)" d="M 119.911496 137.988104 
C 121.771016 137.988104 123.554625 137.249309 124.869504 135.93443 
C 126.184383 134.619551 126.923178 132.835942 126.923178 130.976423 
C 126.923178 129.116903 126.184383 127.333294 124.869504 126.018415 
C 123.554625 124.703536 121.771016 123.964741 119.911496 123.964741 
C 118.051977 123.964741 116.268368 124.703536 114.953489 126.018415 
C 113.63861 127.333294 112.899815 129.116903 112.899815 130.976423 
C 112.899815 132.835942 113.63861 134.619551 114.953489 135.93443 
C 116.268368 137.249309 118.051977 137.988104 119.911496 137.988104 
z
" style="fill:#9558b2;fill-opacity:0.5;stroke:#9558b2;stroke-linejoin:miter;stroke-width:2;"/>
   </g>
   <g id="patch_37">
    <path clip-path="url(#p233ed0d58b)" d="M 198.792911 183.53031 
C 200.65243 183.53031 202.436039 182.791515 203.750918 181.476636 
C 205.065797 180.161757 205.804592 178.378148 205.804592 176.518629 
C 205.804592 174.659109 205.065797 172.8755 203.750918 171.560621 
C 202.436039 170.245742 200.65243 169.506947 198.792911 169.506947 
C 196.933391 169.506947 195.149782 170.245742 193.834903 171.560621 
C 192.520024 172.8755 191.781229 174.659109 191.781229 176.518629 
C 191.781229 178.378148 192.520024 180.161757 193.834903 181.476636 
C 195.149782 182.791515 196.933391 183.53031 198.792911 183.53031 
z
" style="fill:#9558b2;fill-opacity:0.5;stroke:#9558b2;stroke-linejoin:miter;stroke-width:2;"/>
   </g>
   <g id="patch_38">
    <path clip-path="url(#p233ed0d58b)" d="M 277.674325 137.988104 
C 279.533845 137.988104 281.317454 137.249309 282.632333 135.93443 
C 283.947212 134.619551 284.686007 132.835942 284.686007 130.976423 
C 284.686007 129.116903 283.947212 127.333294 282.632333 126.018415 
C 281.317454 124.703536 279.533845 123.964741 277.674325 123.964741 
C 275.814806 123.964741 274.031197 124.703536 272.716318 126.018415 
C 271.401439 127.333294 270.662644 129.116903 270.662644 130.976423 
C 270.662644 132.835942 271.401439 134.619551 272.716318 135.93443 
C 274.031197 137.249309 275.814806 137.988104 277.674325 137.988104 
z
" style="fill:#9558b2;fill-opacity:0.5;stroke:#9558b2;stroke-linejoin:miter;stroke-width:2;"/>
   </g>
   <g id="patch_39">
    <path clip-path="url(#p233ed0d58b)" d="M 356.55574 183.53031 
C 358.415259 183.53031 360.198868 182.791515 361.513747 181.476636 
C 362.828626 180.161757 363.567421 178.378148 363.567421 176.518629 
C 363.567421 174.659109 362.828626 172.8755 361.513747 171.560621 
C 360.198868 170.245742 358.415259 169.506947 356.55574 169.506947 
C 354.69622 169.506947 352.912611 170.245742 351.597732 171.560621 
C 350.282854 172.8755 349.544059 174.659109 349.544059 176.518629 
C 349.544059 178.378148 350.282854 180.161757 351.597732 181.476636 
C 352.912611 182.791515 354.69622 183.53031 356.55574 183.53031 
z
" style="fill:#9558b2;fill-opacity:0.5;stroke:#9558b2;stroke-linejoin:miter;stroke-width:2;"/>
   </g>
   <g id="patch_40">
    <path clip-path="url(#p233ed0d58b)" d="M 435.437154 137.988104 
C 437.296674 137.988104 439.080283 137.249309 440.395162 135.93443 
C 441.710041 134.619551 442.448836 132.835942 442.448836 130.976423 
C 442.448836 129.116903 441.710041 127.333294 440.395162 126.018415 
C 439.080283 124.703536 437.296674 123.964741 435.437154 123.964741 
C 433.577635 123.964741 431.794026 124.703536 430.479147 126.018415 
C 429.164268 127.333294 428.425473 129.116903 428.425473 130.976423 
C 428.425473 132.835942 429.164268 134.619551 430.479147 135.93443 
C 431.794026 137.249309 433.577635 137.988104 435.437154 137.988104 
z
" style="fill:#9558b2;fill-opacity:0.5;stroke:#9558b2;stroke-linejoin:miter;stroke-width:2;"/>
   </g>
   <g id="patch_41">
    <path clip-path="url(#p233ed0d58b)" d="M 514.318569 183.53031 
C 516.178089 183.53031 517.961697 182.791515 519.276576 181.476636 
C 520.591455 180.161757 521.33025 178.378148 521.33025 176.518629 
C 521.33025 174.659109 520.591455 172.8755 519.276576 171.560621 
C 517.961697 170.245742 516.178089 169.506947 514.318569 169.506947 
C 512.459049 169.506947 510.67544 170.245742 509.360562 171.560621 
C 508.045683 172.8755 507.306888 174.659109 507.306888 176.518629 
C 507.306888 178.378148 508.045683 180.161757 509.360562 181.476636 
C 510.67544 182.791515 512.459049 183.53031 514.318569 183.53031 
z
" style="fill:#9558b2;fill-opacity:0.5;stroke:#9558b2;stroke-linejoin:miter;stroke-width:2;"/>
   </g>
   <g id="patch_42">
    <path clip-path="url(#p233ed0d58b)" d="M 593.199983 137.988104 
C 595.059503 137.988104 596.843112 137.249309 598.157991 135.93443 
C 599.47287 134.619551 600.211665 132.835942 600.211665 130.976423 
C 600.211665 129.116903 599.47287 127.333294 598.157991 126.018415 
C 596.843112 124.703536 595.059503 123.964741 593.199983 123.964741 
C 591.340464 123.964741 589.556855 124.703536 588.241976 126.018415 
C 586.927097 127.333294 586.188302 129.116903 586.188302 130.976423 
C 586.188302 132.835942 586.927097 134.619551 588.241976 135.93443 
C 589.556855 137.249309 591.340464 137.988104 593.199983 137.988104 
z
" style="fill:#9558b2;fill-opacity:0.5;stroke:#9558b2;stroke-linejoin:miter;stroke-width:2;"/>
   </g>
   <g id="patch_43">
    <path clip-path="url(#p233ed0d58b)" d="M 41.030082 92.445898 
C 42.889601 92.445898 44.67321 91.707103 45.988089 90.392224 
C 47.302968 89.077345 48.041763 87.293736 48.041763 85.434217 
C 48.041763 83.574697 47.302968 81.791088 45.988089 80.476209 
C 44.67321 79.16133 42.889601 78.422535 41.030082 78.422535 
C 39.170562 78.422535 37.386953 79.16133 36.072074 80.476209 
C 34.757195 81.791088 34.0184 83.574697 34.0184 85.434217 
C 34.0184 87.293736 34.757195 89.077345 36.072074 90.392224 
C 37.386953 91.707103 39.170562 92.445898 41.030082 92.445898 
z
" style="fill:#9558b2;fill-opacity:0.5;stroke:#9558b2;stroke-linejoin:miter;stroke-width:2;"/>
   </g>
   <g id="patch_44">
    <path clip-path="url(#p233ed0d58b)" d="M 119.911496 46.903692 
C 121.771016 46.903692 123.554625 46.164897 124.869504 44.850018 
C 126.184383 43.535139 126.923178 41.75153 126.923178 39.892011 
C 126.923178 38.032491 126.184383 36.248882 124.869504 34.934003 
C 123.554625 33.619124 121.771016 32.880329 119.911496 32.880329 
C 118.051977 32.880329 116.268368 33.619124 114.953489 34.934003 
C 113.63861 36.248882 112.899815 38.032491 112.899815 39.892011 
C 112.899815 41.75153 113.63861 43.535139 114.953489 44.850018 
C 116.268368 46.164897 118.051977 46.903692 119.911496 46.903692 
z
" style="fill:#9558b2;fill-opacity:0.5;stroke:#9558b2;stroke-linejoin:miter;stroke-width:2;"/>
   </g>
   <g id="patch_45">
    <path clip-path="url(#p233ed0d58b)" d="M 198.792911 92.445898 
C 200.65243 92.445898 202.436039 91.707103 203.750918 90.392224 
C 205.065797 89.077345 205.804592 87.293736 205.804592 85.434217 
C 205.804592 83.574697 205.065797 81.791088 203.750918 80.476209 
C 202.436039 79.16133 200.65243 78.422535 198.792911 78.422535 
C 196.933391 78.422535 195.149782 79.16133 193.834903 80.476209 
C 192.520024 81.791088 191.781229 83.574697 191.781229 85.434217 
C 191.781229 87.293736 192.520024 89.077345 193.834903 90.392224 
C 195.149782 91.707103 196.933391 92.445898 198.792911 92.445898 
z
" style="fill:#9558b2;fill-opacity:0.5;stroke:#9558b2;stroke-linejoin:miter;stroke-width:2;"/>
   </g>
   <g id="patch_46">
    <path clip-path="url(#p233ed0d58b)" d="M 277.674325 46.903692 
C 279.533845 46.903692 281.317454 46.164897 282.632333 44.850018 
C 283.947212 43.535139 284.686007 41.75153 284.686007 39.892011 
C 284.686007 38.032491 283.947212 36.248882 282.632333 34.934003 
C 281.317454 33.619124 279.533845 32.880329 277.674325 32.880329 
C 275.814806 32.880329 274.031197 33.619124 272.716318 34.934003 
C 271.401439 36.248882 270.662644 38.032491 270.662644 39.892011 
C 270.662644 41.75153 271.401439 43.535139 272.716318 44.850018 
C 274.031197 46.164897 275.814806 46.903692 277.674325 46.903692 
z
" style="fill:#9558b2;fill-opacity:0.5;stroke:#9558b2;stroke-linejoin:miter;stroke-width:2;"/>
   </g>
   <g id="patch_47">
    <path clip-path="url(#p233ed0d58b)" d="M 356.55574 92.445898 
C 358.415259 92.445898 360.198868 91.707103 361.513747 90.392224 
C 362.828626 89.077345 363.567421 87.293736 363.567421 85.434217 
C 363.567421 83.574697 362.828626 81.791088 361.513747 80.476209 
C 360.198868 79.16133 358.415259 78.422535 356.55574 78.422535 
C 354.69622 78.422535 352.912611 79.16133 351.597732 80.476209 
C 350.282854 81.791088 349.544059 83.574697 349.544059 85.434217 
C 349.544059 87.293736 350.282854 89.077345 351.597732 90.392224 
C 352.912611 91.707103 354.69622 92.445898 356.55574 92.445898 
z
" style="fill:#9558b2;fill-opacity:0.5;stroke:#9558b2;stroke-linejoin:miter;stroke-width:2;"/>
   </g>
   <g id="patch_48">
    <path clip-path="url(#p233ed0d58b)" d="M 435.437154 46.903692 
C 437.296674 46.903692 439.080283 46.164897 440.395162 44.850018 
C 441.710041 43.535139 442.448836 41.75153 442.448836 39.892011 
C 442.448836 38.032491 441.710041 36.248882 440.395162 34.934003 
C 439.080283 33.619124 437.296674 32.880329 435.437154 32.880329 
C 433.577635 32.880329 431.794026 33.619124 430.479147 34.934003 
C 429.164268 36.248882 428.425473 38.032491 428.425473 39.892011 
C 428.425473 41.75153 429.164268 43.535139 430.479147 44.850018 
C 431.794026 46.164897 433.577635 46.903692 435.437154 46.903692 
z
" style="fill:#9558b2;fill-opacity:0.5;stroke:#9558b2;stroke-linejoin:miter;stroke-width:2;"/>
   </g>
   <g id="patch_49">
    <path clip-path="url(#p233ed0d58b)" d="M 514.318569 92.445898 
C 516.178089 92.445898 517.961697 91.707103 519.276576 90.392224 
C 520.591455 89.077345 521.33025 87.293736 521.33025 85.434217 
C 521.33025 83.574697 520.591455 81.791088 519.276576 80.476209 
C 517.961697 79.16133 516.178089 78.422535 514.318569 78.422535 
C 512.459049 78.422535 510.67544 79.16133 509.360562 80.476209 
C 508.045683 81.791088 507.306888 83.574697 507.306888 85.434217 
C 507.306888 87.293736 508.045683 89.077345 509.360562 90.392224 
C 510.67544 91.707103 512.459049 92.445898 514.318569 92.445898 
z
" style="fill:#9558b2;fill-opacity:0.5;stroke:#9558b2;stroke-linejoin:miter;stroke-width:2;"/>
   </g>
   <g id="patch_50">
    <path clip-path="url(#p233ed0d58b)" d="M 593.199983 46.903692 
C 595.059503 46.903692 596.843112 46.164897 598.157991 44.850018 
C 599.47287 43.535139 600.211665 41.75153 600.211665 39.892011 
C 600.211665 38.032491 599.47287 36.248882 598.157991 34.934003 
C 596.843112 33.619124 595.059503 32.880329 593.199983 32.880329 
C 591.340464 32.880329 589.556855 33.619124 588.241976 34.934003 
C 586.927097 36.248882 586.188302 38.032491 586.188302 39.892011 
C 586.188302 41.75153 586.927097 43.535139 588.241976 44.850018 
C 589.556855 46.164897 591.340464 46.903692 593.199983 46.903692 
z
" style="fill:#9558b2;fill-opacity:0.5;stroke:#9558b2;stroke-linejoin:miter;stroke-width:2;"/>
   </g>
   <g id="patch_51">
    <path clip-path="url(#p233ed0d58b)" d="M 30.161976 258.838439 
C 32.486375 258.838439 34.715886 257.914945 36.359485 256.271346 
C 38.003084 254.627748 38.926577 252.398237 38.926577 250.073837 
C 38.926577 247.749438 38.003084 245.519927 36.359485 243.876328 
C 34.715886 242.232729 32.486375 241.309235 30.161976 241.309235 
C 27.837576 241.309235 25.608065 242.232729 23.964466 243.876328 
C 22.320868 245.519927 21.397374 247.749438 21.397374 250.073837 
C 21.397374 252.398237 22.320868 254.627748 23.964466 256.271346 
C 25.608065 257.914945 27.837576 258.838439 30.161976 258.838439 
z
" style="fill:#cc0000;fill-opacity:0.1;stroke:#cc0000;stroke-dasharray:7.4,3.2;stroke-dashoffset:0;stroke-linejoin:miter;stroke-width:2;"/>
   </g>
   <g id="patch_52">
    <path clip-path="url(#p233ed0d58b)" d="M 109.04339 213.296233 
C 111.36779 213.296233 113.597301 212.372739 115.240899 210.72914 
C 116.884498 209.085542 117.807992 206.856031 117.807992 204.531631 
C 117.807992 202.207232 116.884498 199.977721 115.240899 198.334122 
C 113.597301 196.690523 111.36779 195.76703 109.04339 195.76703 
C 106.718991 195.76703 104.48948 196.690523 102.845881 198.334122 
C 101.202282 199.977721 100.278789 202.207232 100.278789 204.531631 
C 100.278789 206.856031 101.202282 209.085542 102.845881 210.72914 
C 104.48948 212.372739 106.718991 213.296233 109.04339 213.296233 
z
" style="fill:#cc0000;fill-opacity:0.1;stroke:#cc0000;stroke-dasharray:7.4,3.2;stroke-dashoffset:0;stroke-linejoin:miter;stroke-width:2;"/>
   </g>
   <g id="patch_53">
    <path clip-path="url(#p233ed0d58b)" d="M 187.924805 258.838439 
C 190.249204 258.838439 192.478715 257.914945 194.122314 256.271346 
C 195.765913 254.627748 196.689406 252.398237 196.689406 250.073837 
C 196.689406 247.749438 195.765913 245.519927 194.122314 243.876328 
C 192.478715 242.232729 190.249204 241.309235 187.924805 241.309235 
C 185.600405 241.309235 183.370894 242.232729 181.727296 243.876328 
C 180.083697 245.519927 179.160203 247.749438 179.160203 250.073837 
C 179.160203 252.398237 180.083697 254.627748 181.727296 256.271346 
C 183.370894 257.914945 185.600405 258.838439 187.924805 258.838439 
z
" style="fill:#cc0000;fill-opacity:0.1;stroke:#cc0000;stroke-dasharray:7.4,3.2;stroke-dashoffset:0;stroke-linejoin:miter;stroke-width:2;"/>
   </g>
   <g id="patch_54">
    <path clip-path="url(#p233ed0d58b)" d="M 266.806219 213.296233 
C 269.130619 213.296233 271.36013 212.372739 273.003729 210.72914 
C 274.647327 209.085542 275.570821 206.856031 275.570821 204.531631 
C 275.570821 202.207232 274.647327 199.977721 273.003729 198.334122 
C 271.36013 196.690523 269.130619 195.76703 266.806219 195.76703 
C 264.48182 195.76703 262.252309 196.690523 260.60871 198.334122 
C 258.965111 199.977721 258.041618 202.207232 258.041618 204.531631 
C 258.041618 206.856031 258.965111 209.085542 260.60871 210.72914 
C 262.252309 212.372739 264.48182 213.296233 266.806219 213.296233 
z
" style="fill:#cc0000;fill-opacity:0.1;stroke:#cc0000;stroke-dasharray:7.4,3.2;stroke-dashoffset:0;stroke-linejoin:miter;stroke-width:2;"/>
   </g>
   <g id="patch_55">
    <path clip-path="url(#p233ed0d58b)" d="M 345.687634 258.838439 
C 348.012033 258.838439 350.241544 257.914945 351.885143 256.271346 
C 353.528742 254.627748 354.452235 252.398237 354.452235 250.073837 
C 354.452235 247.749438 353.528742 245.519927 351.885143 243.876328 
C 350.241544 242.232729 348.012033 241.309235 345.687634 241.309235 
C 343.363234 241.309235 341.133723 242.232729 339.490125 243.876328 
C 337.846526 245.519927 336.923032 247.749438 336.923032 250.073837 
C 336.923032 252.398237 337.846526 254.627748 339.490125 256.271346 
C 341.133723 257.914945 343.363234 258.838439 345.687634 258.838439 
z
" style="fill:#cc0000;fill-opacity:0.1;stroke:#cc0000;stroke-dasharray:7.4,3.2;stroke-dashoffset:0;stroke-linejoin:miter;stroke-width:2;"/>
   </g>
   <g id="patch_56">
    <path clip-path="url(#p233ed0d58b)" d="M 424.569048 213.296233 
C 426.893448 213.296233 429.122959 212.372739 430.766558 210.72914 
C 432.410156 209.085542 433.33365 206.856031 433.33365 204.531631 
C 433.33365 202.207232 432.410156 199.977721 430.766558 198.334122 
C 429.122959 196.690523 426.893448 195.76703 424.569048 195.76703 
C 422.244649 195.76703 420.015138 196.690523 418.371539 198.334122 
C 416.72794 199.977721 415.804447 202.207232 415.804447 204.531631 
C 415.804447 206.856031 416.72794 209.085542 418.371539 210.72914 
C 420.015138 212.372739 422.244649 213.296233 424.569048 213.296233 
z
" style="fill:#cc0000;fill-opacity:0.1;stroke:#cc0000;stroke-dasharray:7.4,3.2;stroke-dashoffset:0;stroke-linejoin:miter;stroke-width:2;"/>
   </g>
   <g id="patch_57">
    <path clip-path="url(#p233ed0d58b)" d="M 503.450463 258.838439 
C 505.774862 258.838439 508.004374 257.914945 509.647972 256.271346 
C 511.291571 254.627748 512.215065 252.398237 512.215065 250.073837 
C 512.215065 247.749438 511.291571 245.519927 509.647972 243.876328 
C 508.004374 242.232729 505.774862 241.309235 503.450463 241.309235 
C 501.126063 241.309235 498.896552 242.232729 497.252954 243.876328 
C 495.609355 245.519927 494.685861 247.749438 494.685861 250.073837 
C 494.685861 252.398237 495.609355 254.627748 497.252954 256.271346 
C 498.896552 257.914945 501.126063 258.838439 503.450463 258.838439 
z
" style="fill:#cc0000;fill-opacity:0.1;stroke:#cc0000;stroke-dasharray:7.4,3.2;stroke-dashoffset:0;stroke-linejoin:miter;stroke-width:2;"/>
   </g>
   <g id="patch_58">
    <path clip-path="url(#p233ed0d58b)" d="M 582.331877 213.296233 
C 584.656277 213.296233 586.885788 212.372739 588.529387 210.72914 
C 590.172985 209.085542 591.096479 206.856031 591.096479 204.531631 
C 591.096479 202.207232 590.172985 199.977721 588.529387 198.334122 
C 586.885788 196.690523 584.656277 195.76703 582.331877 195.76703 
C 580.007478 195.76703 577.777967 196.690523 576.134368 198.334122 
C 574.49077 199.977721 573.567276 202.207232 573.567276 204.531631 
C 573.567276 206.856031 574.49077 209.085542 576.134368 210.72914 
C 577.777967 212.372739 580.007478 213.296233 582.331877 213.296233 
z
" style="fill:#cc0000;fill-opacity:0.1;stroke:#cc0000;stroke-dasharray:7.4,3.2;stroke-dashoffset:0;stroke-linejoin:miter;stroke-width:2;"/>
   </g>
   <g id="patch_59">
    <path clip-path="url(#p233ed0d58b)" d="M 30.161976 167.754027 
C 32.486375 167.754027 34.715886 166.830533 36.359485 165.186935 
C 38.003084 163.543336 38.926577 161.313825 38.926577 158.989425 
C 38.926577 156.665026 38.003084 154.435515 36.359485 152.791916 
C 34.715886 151.148317 32.486375 150.224824 30.161976 150.224824 
C 27.837576 150.224824 25.608065 151.148317 23.964466 152.791916 
C 22.320868 154.435515 21.397374 156.665026 21.397374 158.989425 
C 21.397374 161.313825 22.320868 163.543336 23.964466 165.186935 
C 25.608065 166.830533 27.837576 167.754027 30.161976 167.754027 
z
" style="fill:#cc0000;fill-opacity:0.1;stroke:#cc0000;stroke-dasharray:7.4,3.2;stroke-dashoffset:0;stroke-linejoin:miter;stroke-width:2;"/>
   </g>
   <g id="patch_60">
    <path clip-path="url(#p233ed0d58b)" d="M 109.04339 122.211821 
C 111.36779 122.211821 113.597301 121.288327 115.240899 119.644729 
C 116.884498 118.00113 117.807992 115.771619 117.807992 113.447219 
C 117.807992 111.12282 116.884498 108.893309 115.240899 107.24971 
C 113.597301 105.606111 111.36779 104.682618 109.04339 104.682618 
C 106.718991 104.682618 104.48948 105.606111 102.845881 107.24971 
C 101.202282 108.893309 100.278789 111.12282 100.278789 113.447219 
C 100.278789 115.771619 101.202282 118.00113 102.845881 119.644729 
C 104.48948 121.288327 106.718991 122.211821 109.04339 122.211821 
z
" style="fill:#cc0000;fill-opacity:0.1;stroke:#cc0000;stroke-dasharray:7.4,3.2;stroke-dashoffset:0;stroke-linejoin:miter;stroke-width:2;"/>
   </g>
   <g id="patch_61">
    <path clip-path="url(#p233ed0d58b)" d="M 187.924805 167.754027 
C 190.249204 167.754027 192.478715 166.830533 194.122314 165.186935 
C 195.765913 163.543336 196.689406 161.313825 196.689406 158.989425 
C 196.689406 156.665026 195.765913 154.435515 194.122314 152.791916 
C 192.478715 151.148317 190.249204 150.224824 187.924805 150.224824 
C 185.600405 150.224824 183.370894 151.148317 181.727296 152.791916 
C 180.083697 154.435515 179.160203 156.665026 179.160203 158.989425 
C 179.160203 161.313825 180.083697 163.543336 181.727296 165.186935 
C 183.370894 166.830533 185.600405 167.754027 187.924805 167.754027 
z
" style="fill:#cc0000;fill-opacity:0.1;stroke:#cc0000;stroke-dasharray:7.4,3.2;stroke-dashoffset:0;stroke-linejoin:miter;stroke-width:2;"/>
   </g>
   <g id="patch_62">
    <path clip-path="url(#p233ed0d58b)" d="M 266.806219 122.211821 
C 269.130619 122.211821 271.36013 121.288327 273.003729 119.644729 
C 274.647327 118.00113 275.570821 115.771619 275.570821 113.447219 
C 275.570821 111.12282 274.647327 108.893309 273.003729 107.24971 
C 271.36013 105.606111 269.130619 104.682618 266.806219 104.682618 
C 264.48182 104.682618 262.252309 105.606111 260.60871 107.24971 
C 258.965111 108.893309 258.041618 111.12282 258.041618 113.447219 
C 258.041618 115.771619 258.965111 118.00113 260.60871 119.644729 
C 262.252309 121.288327 264.48182 122.211821 266.806219 122.211821 
z
" style="fill:#cc0000;fill-opacity:0.1;stroke:#cc0000;stroke-dasharray:7.4,3.2;stroke-dashoffset:0;stroke-linejoin:miter;stroke-width:2;"/>
   </g>
   <g id="patch_63">
    <path clip-path="url(#p233ed0d58b)" d="M 345.687634 167.754027 
C 348.012033 167.754027 350.241544 166.830533 351.885143 165.186935 
C 353.528742 163.543336 354.452235 161.313825 354.452235 158.989425 
C 354.452235 156.665026 353.528742 154.435515 351.885143 152.791916 
C 350.241544 151.148317 348.012033 150.224824 345.687634 150.224824 
C 343.363234 150.224824 341.133723 151.148317 339.490125 152.791916 
C 337.846526 154.435515 336.923032 156.665026 336.923032 158.989425 
C 336.923032 161.313825 337.846526 163.543336 339.490125 165.186935 
C 341.133723 166.830533 343.363234 167.754027 345.687634 167.754027 
z
" style="fill:#cc0000;fill-opacity:0.1;stroke:#cc0000;stroke-dasharray:7.4,3.2;stroke-dashoffset:0;stroke-linejoin:miter;stroke-width:2;"/>
   </g>
   <g id="patch_64">
    <path clip-path="url(#p233ed0d58b)" d="M 424.569048 122.211821 
C 426.893448 122.211821 429.122959 121.288327 430.766558 119.644729 
C 432.410156 118.00113 433.33365 115.771619 433.33365 113.447219 
C 433.33365 111.12282 432.410156 108.893309 430.766558 107.24971 
C 429.122959 105.606111 426.893448 104.682618 424.569048 104.682618 
C 422.244649 104.682618 420.015138 105.606111 418.371539 107.24971 
C 416.72794 108.893309 415.804447 111.12282 415.804447 113.447219 
C 415.804447 115.771619 416.72794 118.00113 418.371539 119.644729 
C 420.015138 121.288327 422.244649 122.211821 424.569048 122.211821 
z
" style="fill:#cc0000;fill-opacity:0.1;stroke:#cc0000;stroke-dasharray:7.4,3.2;stroke-dashoffset:0;stroke-linejoin:miter;stroke-width:2;"/>
   </g>
   <g id="patch_65">
    <path clip-path="url(#p233ed0d58b)" d="M 503.450463 167.754027 
C 505.774862 167.754027 508.004374 166.830533 509.647972 165.186935 
C 511.291571 163.543336 512.215065 161.313825 512.215065 158.989425 
C 512.215065 156.665026 511.291571 154.435515 509.647972 152.791916 
C 508.004374 151.148317 505.774862 150.224824 503.450463 150.224824 
C 501.126063 150.224824 498.896552 151.148317 497.252954 152.791916 
C 495.609355 154.435515 494.685861 156.665026 494.685861 158.989425 
C 494.685861 161.313825 495.609355 163.543336 497.252954 165.186935 
C 498.896552 166.830533 501.126063 167.754027 503.450463 167.754027 
z
" style="fill:#cc0000;fill-opacity:0.1;stroke:#cc0000;stroke-dasharray:7.4,3.2;stroke-dashoffset:0;stroke-linejoin:miter;stroke-width:2;"/>
   </g>
   <g id="patch_66">
    <path clip-path="url(#p233ed0d58b)" d="M 582.331877 122.211821 
C 584.656277 122.211821 586.885788 121.288327 588.529387 119.644729 
C 590.172985 118.00113 591.096479 115.771619 591.096479 113.447219 
C 591.096479 111.12282 590.172985 108.893309 588.529387 107.24971 
C 586.885788 105.606111 584.656277 104.682618 582.331877 104.682618 
C 580.007478 104.682618 577.777967 105.606111 576.134368 107.24971 
C 574.49077 108.893309 573.567276 111.12282 573.567276 113.447219 
C 573.567276 115.771619 574.49077 118.00113 576.134368 119.644729 
C 577.777967 121.288327 580.007478 122.211821 582.331877 122.211821 
z
" style="fill:#cc0000;fill-opacity:0.1;stroke:#cc0000;stroke-dasharray:7.4,3.2;stroke-dashoffset:0;stroke-linejoin:miter;stroke-width:2;"/>
   </g>
   <g id="patch_67">
    <path clip-path="url(#p233ed0d58b)" d="M 30.161976 76.669615 
C 32.486375 76.669615 34.715886 75.746121 36.359485 74.102523 
C 38.003084 72.458924 38.926577 70.229413 38.926577 67.905013 
C 38.926577 65.580614 38.003084 63.351103 36.359485 61.707504 
C 34.715886 60.063906 32.486375 59.140412 30.161976 59.140412 
C 27.837576 59.140412 25.608065 60.063906 23.964466 61.707504 
C 22.320868 63.351103 21.397374 65.580614 21.397374 67.905013 
C 21.397374 70.229413 22.320868 72.458924 23.964466 74.102523 
C 25.608065 75.746121 27.837576 76.669615 30.161976 76.669615 
z
" style="fill:#cc0000;fill-opacity:0.1;stroke:#cc0000;stroke-dasharray:7.4,3.2;stroke-dashoffset:0;stroke-linejoin:miter;stroke-width:2;"/>
   </g>
   <g id="patch_68">
    <path clip-path="url(#p233ed0d58b)" d="M 109.04339 31.127409 
C 111.36779 31.127409 113.597301 30.203915 115.240899 28.560317 
C 116.884498 26.916718 117.807992 24.687207 117.807992 22.362808 
C 117.807992 20.038408 116.884498 17.808897 115.240899 16.165298 
C 113.597301 14.5217 111.36779 13.598206 109.04339 13.598206 
C 106.718991 13.598206 104.48948 14.5217 102.845881 16.165298 
C 101.202282 17.808897 100.278789 20.038408 100.278789 22.362808 
C 100.278789 24.687207 101.202282 26.916718 102.845881 28.560317 
C 104.48948 30.203915 106.718991 31.127409 109.04339 31.127409 
z
" style="fill:#cc0000;fill-opacity:0.1;stroke:#cc0000;stroke-dasharray:7.4,3.2;stroke-dashoffset:0;stroke-linejoin:miter;stroke-width:2;"/>
   </g>
   <g id="patch_69">
    <path clip-path="url(#p233ed0d58b)" d="M 187.924805 76.669615 
C 190.249204 76.669615 192.478715 75.746121 194.122314 74.102523 
C 195.765913 72.458924 196.689406 70.229413 196.689406 67.905013 
C 196.689406 65.580614 195.765913 63.351103 194.122314 61.707504 
C 192.478715 60.063906 190.249204 59.140412 187.924805 59.140412 
C 185.600405 59.140412 183.370894 60.063906 181.727296 61.707504 
C 180.083697 63.351103 179.160203 65.580614 179.160203 67.905013 
C 179.160203 70.229413 180.083697 72.458924 181.727296 74.102523 
C 183.370894 75.746121 185.600405 76.669615 187.924805 76.669615 
z
" style="fill:#cc0000;fill-opacity:0.1;stroke:#cc0000;stroke-dasharray:7.4,3.2;stroke-dashoffset:0;stroke-linejoin:miter;stroke-width:2;"/>
   </g>
   <g id="patch_70">
    <path clip-path="url(#p233ed0d58b)" d="M 266.806219 31.127409 
C 269.130619 31.127409 271.36013 30.203915 273.003729 28.560317 
C 274.647327 26.916718 275.570821 24.687207 275.570821 22.362808 
C 275.570821 20.038408 274.647327 17.808897 273.003729 16.165298 
C 271.36013 14.5217 269.130619 13.598206 266.806219 13.598206 
C 264.48182 13.598206 262.252309 14.5217 260.60871 16.165298 
C 258.965111 17.808897 258.041618 20.038408 258.041618 22.362808 
C 258.041618 24.687207 258.965111 26.916718 260.60871 28.560317 
C 262.252309 30.203915 264.48182 31.127409 266.806219 31.127409 
z
" style="fill:#cc0000;fill-opacity:0.1;stroke:#cc0000;stroke-dasharray:7.4,3.2;stroke-dashoffset:0;stroke-linejoin:miter;stroke-width:2;"/>
   </g>
   <g id="patch_71">
    <path clip-path="url(#p233ed0d58b)" d="M 345.687634 76.669615 
C 348.012033 76.669615 350.241544 75.746121 351.885143 74.102523 
C 353.528742 72.458924 354.452235 70.229413 354.452235 67.905013 
C 354.452235 65.580614 353.528742 63.351103 351.885143 61.707504 
C 350.241544 60.063906 348.012033 59.140412 345.687634 59.140412 
C 343.363234 59.140412 341.133723 60.063906 339.490125 61.707504 
C 337.846526 63.351103 336.923032 65.580614 336.923032 67.905013 
C 336.923032 70.229413 337.846526 72.458924 339.490125 74.102523 
C 341.133723 75.746121 343.363234 76.669615 345.687634 76.669615 
z
" style="fill:#cc0000;fill-opacity:0.1;stroke:#cc0000;stroke-dasharray:7.4,3.2;stroke-dashoffset:0;stroke-linejoin:miter;stroke-width:2;"/>
   </g>
   <g id="patch_72">
    <path clip-path="url(#p233ed0d58b)" d="M 424.569048 31.127409 
C 426.893448 31.127409 429.122959 30.203915 430.766558 28.560317 
C 432.410156 26.916718 433.33365 24.687207 433.33365 22.362808 
C 433.33365 20.038408 432.410156 17.808897 430.766558 16.165298 
C 429.122959 14.5217 426.893448 13.598206 424.569048 13.598206 
C 422.244649 13.598206 420.015138 14.5217 418.371539 16.165298 
C 416.72794 17.808897 415.804447 20.038408 415.804447 22.362808 
C 415.804447 24.687207 416.72794 26.916718 418.371539 28.560317 
C 420.015138 30.203915 422.244649 31.127409 424.569048 31.127409 
z
" style="fill:#cc0000;fill-opacity:0.1;stroke:#cc0000;stroke-dasharray:7.4,3.2;stroke-dashoffset:0;stroke-linejoin:miter;stroke-width:2;"/>
   </g>
   <g id="patch_73">
    <path clip-path="url(#p233ed0d58b)" d="M 503.450463 76.669615 
C 505.774862 76.669615 508.004374 75.746121 509.647972 74.102523 
C 511.291571 72.458924 512.215065 70.229413 512.215065 67.905013 
C 512.215065 65.580614 511.291571 63.351103 509.647972 61.707504 
C 508.004374 60.063906 505.774862 59.140412 503.450463 59.140412 
C 501.126063 59.140412 498.896552 60.063906 497.252954 61.707504 
C 495.609355 63.351103 494.685861 65.580614 494.685861 67.905013 
C 494.685861 70.229413 495.609355 72.458924 497.252954 74.102523 
C 498.896552 75.746121 501.126063 76.669615 503.450463 76.669615 
z
" style="fill:#cc0000;fill-opacity:0.1;stroke:#cc0000;stroke-dasharray:7.4,3.2;stroke-dashoffset:0;stroke-linejoin:miter;stroke-width:2;"/>
   </g>
   <g id="patch_74">
    <path clip-path="url(#p233ed0d58b)" d="M 582.331877 31.127409 
C 584.656277 31.127409 586.885788 30.203915 588.529387 28.560317 
C 590.172985 26.916718 591.096479 24.687207 591.096479 22.362808 
C 591.096479 20.038408 590.172985 17.808897 588.529387 16.165298 
C 586.885788 14.5217 584.656277 13.598206 582.331877 13.598206 
C 580.007478 13.598206 577.777967 14.5217 576.134368 16.165298 
C 574.49077 17.808897 573.567276 20.038408 573.567276 22.362808 
C 573.567276 24.687207 574.49077 26.916718 576.134368 28.560317 
C 577.777967 30.203915 580.007478 31.127409 582.331877 31.127409 
z
" style="fill:#cc0000;fill-opacity:0.1;stroke:#cc0000;stroke-dasharray:7.4,3.2;stroke-dashoffset:0;stroke-linejoin:miter;stroke-width:2;"/>
   </g>
   <g id="matplotlib.axis_1">
    <g id="xtick_1">
     <g id="line2d_1">
      <defs>
       <path d="M 0 0 
L 0 3.5 
" id="ma8345b0a8b" style="stroke:#000000;stroke-width:0.8;"/>
      </defs>
      <g>
       <use style="stroke:#000000;stroke-width:0.8;" x="106.939886" xlink:href="#ma8345b0a8b" y="307.584"/>
      </g>
     </g>
     <g id="text_1">
      <!-- 2 -->
      <defs>
       <path d="M 10.59375 35.5 
L 73.1875 35.5 
L 73.1875 27.203125 
L 10.59375 27.203125 
z
" id="DejaVuSans-2212"/>
       <path d="M 19.1875 8.296875 
L 53.609375 8.296875 
L 53.609375 0 
L 7.328125 0 
L 7.328125 8.296875 
Q 12.9375 14.109375 22.625 23.890625 
Q 32.328125 33.6875 34.8125 36.53125 
Q 39.546875 41.84375 41.421875 45.53125 
Q 43.3125 49.21875 43.3125 52.78125 
Q 43.3125 58.59375 39.234375 62.25 
Q 35.15625 65.921875 28.609375 65.921875 
Q 23.96875 65.921875 18.8125 64.3125 
Q 13.671875 62.703125 7.8125 59.421875 
L 7.8125 69.390625 
Q 13.765625 71.78125 18.9375 73 
Q 24.125 74.21875 28.421875 74.21875 
Q 39.75 74.21875 46.484375 68.546875 
Q 53.21875 62.890625 53.21875 53.421875 
Q 53.21875 48.921875 51.53125 44.890625 
Q 49.859375 40.875 45.40625 35.40625 
Q 44.1875 33.984375 37.640625 27.21875 
Q 31.109375 20.453125 19.1875 8.296875 
z
" id="DejaVuSans-32"/>
      </defs>
      <g transform="translate(99.568792 322.182437)scale(0.1 -0.1)">
       <use xlink:href="#DejaVuSans-2212"/>
       <use x="83.789062" xlink:href="#DejaVuSans-32"/>
      </g>
     </g>
    </g>
    <g id="xtick_2">
     <g id="line2d_2">
      <g>
       <use style="stroke:#000000;stroke-width:0.8;" x="177.056699" xlink:href="#ma8345b0a8b" y="307.584"/>
      </g>
     </g>
     <g id="text_2">
      <!-- 0 -->
      <defs>
       <path d="M 31.78125 66.40625 
Q 24.171875 66.40625 20.328125 58.90625 
Q 16.5 51.421875 16.5 36.375 
Q 16.5 21.390625 20.328125 13.890625 
Q 24.171875 6.390625 31.78125 6.390625 
Q 39.453125 6.390625 43.28125 13.890625 
Q 47.125 21.390625 47.125 36.375 
Q 47.125 51.421875 43.28125 58.90625 
Q 39.453125 66.40625 31.78125 66.40625 
z
M 31.78125 74.21875 
Q 44.046875 74.21875 50.515625 64.515625 
Q 56.984375 54.828125 56.984375 36.375 
Q 56.984375 17.96875 50.515625 8.265625 
Q 44.046875 -1.421875 31.78125 -1.421875 
Q 19.53125 -1.421875 13.0625 8.265625 
Q 6.59375 17.96875 6.59375 36.375 
Q 6.59375 54.828125 13.0625 64.515625 
Q 19.53125 74.21875 31.78125 74.21875 
z
" id="DejaVuSans-30"/>
      </defs>
      <g transform="translate(173.875449 322.182437)scale(0.1 -0.1)">
       <use xlink:href="#DejaVuSans-30"/>
      </g>
     </g>
    </g>
    <g id="xtick_3">
     <g id="line2d_3">
      <g>
       <use style="stroke:#000000;stroke-width:0.8;" x="247.173512" xlink:href="#ma8345b0a8b" y="307.584"/>
      </g>
     </g>
     <g id="text_3">
      <!-- 2 -->
      <g transform="translate(243.992262 322.182437)scale(0.1 -0.1)">
       <use xlink:href="#DejaVuSans-32"/>
      </g>
     </g>
    </g>
    <g id="xtick_4">
     <g id="line2d_4">
      <g>
       <use style="stroke:#000000;stroke-width:0.8;" x="317.290325" xlink:href="#ma8345b0a8b" y="307.584"/>
      </g>
     </g>
     <g id="text_4">
      <!-- 4 -->
      <defs>
       <path d="M 37.796875 64.3125 
L 12.890625 25.390625 
L 37.796875 25.390625 
z
M 35.203125 72.90625 
L 47.609375 72.90625 
L 47.609375 25.390625 
L 58.015625 25.390625 
L 58.015625 17.1875 
L 47.609375 17.1875 
L 47.609375 0 
L 37.796875 0 
L 37.796875 17.1875 
L 4.890625 17.1875 
L 4.890625 26.703125 
z
" id="DejaVuSans-34"/>
      </defs>
      <g transform="translate(314.109075 322.182437)scale(0.1 -0.1)">
       <use xlink:href="#DejaVuSans-34"/>
      </g>
     </g>
    </g>
    <g id="xtick_5">
     <g id="line2d_5">
      <g>
       <use style="stroke:#000000;stroke-width:0.8;" x="387.407138" xlink:href="#ma8345b0a8b" y="307.584"/>
      </g>
     </g>
     <g id="text_5">
      <!-- 6 -->
      <defs>
       <path d="M 33.015625 40.375 
Q 26.375 40.375 22.484375 35.828125 
Q 18.609375 31.296875 18.609375 23.390625 
Q 18.609375 15.53125 22.484375 10.953125 
Q 26.375 6.390625 33.015625 6.390625 
Q 39.65625 6.390625 43.53125 10.953125 
Q 47.40625 15.53125 47.40625 23.390625 
Q 47.40625 31.296875 43.53125 35.828125 
Q 39.65625 40.375 33.015625 40.375 
z
M 52.59375 71.296875 
L 52.59375 62.3125 
Q 48.875 64.0625 45.09375 64.984375 
Q 41.3125 65.921875 37.59375 65.921875 
Q 27.828125 65.921875 22.671875 59.328125 
Q 17.53125 52.734375 16.796875 39.40625 
Q 19.671875 43.65625 24.015625 45.921875 
Q 28.375 48.1875 33.59375 48.1875 
Q 44.578125 48.1875 50.953125 41.515625 
Q 57.328125 34.859375 57.328125 23.390625 
Q 57.328125 12.15625 50.6875 5.359375 
Q 44.046875 -1.421875 33.015625 -1.421875 
Q 20.359375 -1.421875 13.671875 8.265625 
Q 6.984375 17.96875 6.984375 36.375 
Q 6.984375 53.65625 15.1875 63.9375 
Q 23.390625 74.21875 37.203125 74.21875 
Q 40.921875 74.21875 44.703125 73.484375 
Q 48.484375 72.75 52.59375 71.296875 
z
" id="DejaVuSans-36"/>
      </defs>
      <g transform="translate(384.225888 322.182437)scale(0.1 -0.1)">
       <use xlink:href="#DejaVuSans-36"/>
      </g>
     </g>
    </g>
   </g>
   <g id="matplotlib.axis_2">
    <g id="ytick_1">
     <g id="line2d_6">
      <defs>
       <path d="M 0 0 
L -3.5 0 
" id="m75ecc91168" style="stroke:#000000;stroke-width:0.8;"/>
      </defs>
      <g>
       <use style="stroke:#000000;stroke-width:0.8;" x="65.203296" xlink:href="#m75ecc91168" y="281.693848"/>
      </g>
     </g>
     <g id="text_6">
      <!-- 3 -->
      <defs>
       <path d="M 40.578125 39.3125 
Q 47.65625 37.796875 51.625 33 
Q 55.609375 28.21875 55.609375 21.1875 
Q 55.609375 10.40625 48.1875 4.484375 
Q 40.765625 -1.421875 27.09375 -1.421875 
Q 22.515625 -1.421875 17.65625 -0.515625 
Q 12.796875 0.390625 7.625 2.203125 
L 7.625 11.71875 
Q 11.71875 9.328125 16.59375 8.109375 
Q 21.484375 6.890625 26.8125 6.890625 
Q 36.078125 6.890625 40.9375 10.546875 
Q 45.796875 14.203125 45.796875 21.1875 
Q 45.796875 27.640625 41.28125 31.265625 
Q 36.765625 34.90625 28.71875 34.90625 
L 20.21875 34.90625 
L 20.21875 43.015625 
L 29.109375 43.015625 
Q 36.375 43.015625 40.234375 45.921875 
Q 44.09375 48.828125 44.09375 54.296875 
Q 44.09375 59.90625 40.109375 62.90625 
Q 36.140625 65.921875 28.71875 65.921875 
Q 24.65625 65.921875 20.015625 65.03125 
Q 15.375 64.15625 9.8125 62.3125 
L 9.8125 71.09375 
Q 15.4375 72.65625 20.34375 73.4375 
Q 25.25 74.21875 29.59375 74.21875 
Q 40.828125 74.21875 47.359375 69.109375 
Q 53.90625 64.015625 53.90625 55.328125 
Q 53.90625 49.265625 50.4375 45.09375 
Q 46.96875 40.921875 40.578125 39.3125 
z
" id="DejaVuSans-33"/>
      </defs>
      <g transform="translate(43.461108 285.493067)scale(0.1 -0.1)">
       <use xlink:href="#DejaVuSans-2212"/>
       <use x="83.789062" xlink:href="#DejaVuSans-33"/>
      </g>
     </g>
    </g>
    <g id="ytick_2">
     <g id="line2d_7">
      <g>
       <use style="stroke:#000000;stroke-width:0.8;" x="65.203296" xlink:href="#m75ecc91168" y="246.635441"/>
      </g>
     </g>
     <g id="text_7">
      <!-- 2 -->
      <g transform="translate(43.461108 250.43466)scale(0.1 -0.1)">
       <use xlink:href="#DejaVuSans-2212"/>
       <use x="83.789062" xlink:href="#DejaVuSans-32"/>
      </g>
     </g>
    </g>
    <g id="ytick_3">
     <g id="line2d_8">
      <g>
       <use style="stroke:#000000;stroke-width:0.8;" x="65.203296" xlink:href="#m75ecc91168" y="211.577035"/>
      </g>
     </g>
     <g id="text_8">
      <!-- 1 -->
      <defs>
       <path d="M 12.40625 8.296875 
L 28.515625 8.296875 
L 28.515625 63.921875 
L 10.984375 60.40625 
L 10.984375 69.390625 
L 28.421875 72.90625 
L 38.28125 72.90625 
L 38.28125 8.296875 
L 54.390625 8.296875 
L 54.390625 0 
L 12.40625 0 
z
" id="DejaVuSans-31"/>
      </defs>
      <g transform="translate(43.461108 215.376254)scale(0.1 -0.1)">
       <use xlink:href="#DejaVuSans-2212"/>
       <use x="83.789062" xlink:href="#DejaVuSans-31"/>
      </g>
     </g>
    </g>
    <g id="ytick_4">
     <g id="line2d_9">
      <g>
       <use style="stroke:#000000;stroke-width:0.8;" x="65.203296" xlink:href="#m75ecc91168" y="176.518629"/>
      </g>
     </g>
     <g id="text_9">
      <!-- 0 -->
      <g transform="translate(51.840796 180.317847)scale(0.1 -0.1)">
       <use xlink:href="#DejaVuSans-30"/>
      </g>
     </g>
    </g>
    <g id="ytick_5">
     <g id="line2d_10">
      <g>
       <use style="stroke:#000000;stroke-width:0.8;" x="65.203296" xlink:href="#m75ecc91168" y="141.460222"/>
      </g>
     </g>
     <g id="text_10">
      <!-- 1 -->
      <g transform="translate(51.840796 145.259441)scale(0.1 -0.1)">
       <use xlink:href="#DejaVuSans-31"/>
      </g>
     </g>
    </g>
    <g id="ytick_6">
     <g id="line2d_11">
      <g>
       <use style="stroke:#000000;stroke-width:0.8;" x="65.203296" xlink:href="#m75ecc91168" y="106.401816"/>
      </g>
     </g>
     <g id="text_11">
      <!-- 2 -->
      <g transform="translate(51.840796 110.201034)scale(0.1 -0.1)">
       <use xlink:href="#DejaVuSans-32"/>
      </g>
     </g>
    </g>
    <g id="ytick_7">
     <g id="line2d_12">
      <g>
       <use style="stroke:#000000;stroke-width:0.8;" x="65.203296" xlink:href="#m75ecc91168" y="71.343409"/>
      </g>
     </g>
     <g id="text_12">
      <!-- 3 -->
      <g transform="translate(51.840796 75.142628)scale(0.1 -0.1)">
       <use xlink:href="#DejaVuSans-33"/>
      </g>
     </g>
    </g>
   </g>
   <g id="line2d_13">
    <path clip-path="url(#p233ed0d58b)" d="M 202.555025 210.520491 
L 201.801908 216.78556 
L 201.274772 223.073676 
L 200.974302 229.376691 
L 200.900885 235.686436 
L 201.054618 241.994736 
L 201.4353 248.293415 
L 202.04244 254.574311 
L 202.87525 260.829285 
L 203.063299 262.041794 
L 202.915017 261.724113 
L 200.137927 256.057893 
L 197.158697 250.495297 
L 196.678778 249.642325 
L 199.129002 243.827286 
L 201.368343 237.927826 
L 203.393898 231.95159 
L 205.203043 225.906321 
L 206.793432 219.799854 
L 208.163006 213.640103 
L 209.30999 207.435048 
L 210.232896 201.192731 
L 210.93053 194.921241 
L 211.401987 188.628706 
L 211.646656 182.323279 
L 211.66422 176.013131 
L 211.454657 169.706439 
L 211.018237 163.411376 
L 210.355527 157.1361 
L 209.467385 150.888742 
L 208.354962 144.677399 
L 207.0197 138.510118 
L 205.463329 132.394892 
L 203.687866 126.339646 
L 201.695611 120.352226 
L 199.489147 114.440391 
L 197.071332 108.611803 
L 194.4453 102.874013 
L 191.614454 97.234457 
L 188.582462 91.700445 
L 186.972179 88.94157 
L 191.961563 87.014206 
L 192.067268 93.323493 
L 192.399989 99.624887 
L 192.959296 105.910224 
L 193.744463 112.171357 
L 194.754474 118.400173 
L 195.98802 124.588601 
L 197.443502 130.728621 
L 199.119033 136.812277 
L 201.012444 142.831685 
L 203.121279 148.779045 
L 205.442807 154.64665 
L 207.974018 160.426896 
L 210.711634 166.112293 
L 213.652105 171.695473 
L 216.791623 177.169202 
L 220.126118 182.526385 
L 223.65127 187.760082 
L 227.36251 192.86351 
L 231.255029 197.830055 
L 235.323783 202.653282 
L 239.563499 207.32694 
L 243.968684 211.844973 
L 247.742684 215.46893 
L 247.165004 215.071537 
L 241.895677 211.599869 
L 236.504812 208.320105 
L 230.999394 205.236496 
L 225.386557 202.353037 
L 219.673574 199.673465 
L 213.86785 197.201252 
L 207.976906 194.939602 
L 202.008378 192.891445 
L 195.969999 191.059436 
L 189.869595 189.445949 
L 183.71507 188.053074 
L 178.103581 186.983919 
L 172.265764 189.379368 
L 166.517948 191.983381 
L 160.86758 194.792584 
L 155.321983 197.803335 
L 149.888342 201.011735 
L 144.5737 204.413624 
L 139.384942 208.004595 
L 134.328794 211.779994 
L 129.411807 215.734929 
L 126.027803 218.632356 
L 126.727391 217.847018 
L 130.824833 213.048139 
L 134.746898 208.104893 
L 138.488504 203.023685 
L 142.044801 197.811102 
L 145.411181 192.473897 
L 148.583282 187.018986 
L 151.556994 181.453439 
L 154.328462 175.784467 
L 156.894096 170.019418 
L 159.25057 164.16576 
L 161.394832 158.231081 
L 163.324102 152.22307 
L 165.03588 146.149513 
L 166.527948 140.018281 
L 167.798373 133.837319 
L 168.845508 127.614636 
L 169.667996 121.358296 
L 170.264772 115.076406 
L 170.635062 108.777108 
L 170.778386 102.468564 
L 170.694559 96.158948 
L 170.602053 93.738181 
L 164.447023 95.128819 
L 158.346032 96.74009 
L 152.306988 98.569905 
L 146.337716 100.615892 
L 140.445951 102.875402 
L 134.639329 105.345505 
L 128.925373 108.023001 
L 123.311489 110.904421 
L 117.790906 113.994225 
L 122.870298 117.738294 
L 128.081157 121.297118 
L 133.416729 124.666085 
L 138.870101 127.840831 
L 144.434206 130.81724 
L 150.101833 133.591457 
L 155.865638 136.159886 
L 161.718152 138.519198 
L 167.651791 140.666337 
L 173.658866 142.598519 
L 179.731592 144.313242 
L 185.8621 145.808282 
L 192.042446 147.081704 
L 198.26462 148.131856 
L 204.520561 148.957377 
L 210.80216 149.557199 
L 217.101278 149.930543 
L 223.409753 150.076926 
L 229.719408 149.996158 
L 236.022068 149.688344 
L 242.309566 149.153883 
L 248.573753 148.393466 
L 254.806513 147.408081 
L 260.999768 146.199003 
L 267.145492 144.767799 
L 273.235723 143.116325 
L 279.262567 141.246719 
L 285.218215 139.161406 
L 291.094949 136.863086 
L 296.885154 134.354739 
L 302.581326 131.639615 
L 308.176084 128.721232 
L 313.662178 125.603372 
L 319.032499 122.290076 
L 324.280087 118.785637 
L 329.398142 115.094596 
L 334.380033 111.221736 
L 339.219302 107.172076 
L 343.90968 102.950864 
L 348.445089 98.56357 
L 352.81965 94.01588 
L 354.529094 92.146622 
L 354.529094 92.146622 
" style="fill:none;stroke:#1f77b4;stroke-linecap:square;stroke-width:1.5;"/>
   </g>
   <g id="patch_75">
    <path d="M 65.203296 307.584 
L 65.203296 41.472 
" style="fill:none;stroke:#000000;stroke-linecap:square;stroke-linejoin:miter;stroke-width:0.8;"/>
   </g>
   <g id="patch_76">
    <path d="M 407.116704 307.584 
L 407.116704 41.472 
" style="fill:none;stroke:#000000;stroke-linecap:square;stroke-linejoin:miter;stroke-width:0.8;"/>
   </g>
   <g id="patch_77">
    <path d="M 65.203296 307.584 
L 407.116704 307.584 
" style="fill:none;stroke:#000000;stroke-linecap:square;stroke-linejoin:miter;stroke-width:0.8;"/>
   </g>
   <g id="patch_78">
    <path d="M 65.203296 41.472 
L 407.116704 41.472 
" style="fill:none;stroke:#000000;stroke-linecap:square;stroke-linejoin:miter;stroke-width:0.8;"/>
   </g>
  </g>
 </g>
 <defs>
  <clipPath id="p233ed0d58b">
   <rect height="266.112" width="341.913408" x="65.203296" y="41.472"/>
  </clipPath>
 </defs>
</svg>
