<?xml version="1.0" encoding="utf-8" standalone="no"?>
<!DOCTYPE svg PUBLIC "-//W3C//DTD SVG 1.1//EN"
  "http://www.w3.org/Graphics/SVG/1.1/DTD/svg11.dtd">
<!-- Created with matplotlib (http://matplotlib.org/) -->
<svg height="345.6pt" version="1.1" viewBox="0 0 460.8 345.6" width="460.8pt" xmlns="http://www.w3.org/2000/svg" xmlns:xlink="http://www.w3.org/1999/xlink">
 <defs>
  <style type="text/css">
*{stroke-linecap:butt;stroke-linejoin:round;}
  </style>
 </defs>
 <g id="figure_1">
  <g id="patch_1">
   <path d="M 0 345.6 
L 460.8 345.6 
L 460.8 0 
L 0 0 
z
" style="fill:#ffffff;"/>
  </g>
  <g id="axes_1">
   <g id="patch_2">
    <path d="M 59.750752 307.584 
L 412.569248 307.584 
L 412.569248 41.472 
L 59.750752 41.472 
z
" style="fill:#ffffff;"/>
   </g>
   <g id="PathCollection_1">
    <defs>
     <path d="M 0 3 
C 0.795609 3 1.55874 2.683901 2.12132 2.12132 
C 2.683901 1.55874 3 0.795609 3 0 
C 3 -0.795609 2.683901 -1.55874 2.12132 -2.12132 
C 1.55874 -2.683901 0.795609 -3 0 -3 
C -0.795609 -3 -1.55874 -2.683901 -2.12132 -2.12132 
C -2.683901 -1.55874 -3 -0.795609 -3 0 
C -3 0.795609 -2.683901 1.55874 -2.12132 2.12132 
C -1.55874 2.683901 -0.795609 3 0 3 
z
" id="maed5b409ac" style="stroke:#000000;"/>
    </defs>
    <g clip-path="url(#p2c6f9ce92c)">
     <use style="stroke:#000000;" x="203.31989" xlink:href="#maed5b409ac" y="143.839907"/>
    </g>
   </g>
   <g id="patch_3">
    <path clip-path="url(#p2c6f9ce92c)" d="M 93.27053 285.07488 
C 95.668666 285.07488 97.968903 284.122091 99.664642 282.426352 
C 101.36038 280.730614 102.31317 278.430377 102.31317 276.032241 
C 102.31317 273.634105 101.36038 271.333867 99.664642 269.638129 
C 97.968903 267.942391 95.668666 266.989601 93.27053 266.989601 
C 90.872394 266.989601 88.572156 267.942391 86.876418 269.638129 
C 85.18068 271.333867 84.22789 273.634105 84.22789 276.032241 
C 84.22789 278.430377 85.18068 280.730614 86.876418 282.426352 
C 88.572156 284.122091 90.872394 285.07488 93.27053 285.07488 
z
" style="fill:#009900;fill-opacity:0.5;stroke:#009900;stroke-linejoin:miter;stroke-width:2;"/>
   </g>
   <g id="patch_4">
    <path clip-path="url(#p2c6f9ce92c)" d="M 161.090327 245.919102 
C 163.488463 245.919102 165.7887 244.966313 167.484439 243.270575 
C 169.180177 241.574836 170.132966 239.274599 170.132966 236.876463 
C 170.132966 234.478327 169.180177 232.178089 167.484439 230.482351 
C 165.7887 228.786613 163.488463 227.833823 161.090327 227.833823 
C 158.692191 227.833823 156.391953 228.786613 154.696215 230.482351 
C 153.000477 232.178089 152.047687 234.478327 152.047687 236.876463 
C 152.047687 239.274599 153.000477 241.574836 154.696215 243.270575 
C 156.391953 244.966313 158.692191 245.919102 161.090327 245.919102 
z
" style="fill:#009900;fill-opacity:0.5;stroke:#009900;stroke-linejoin:miter;stroke-width:2;"/>
   </g>
   <g id="patch_5">
    <path clip-path="url(#p2c6f9ce92c)" d="M 228.910124 285.07488 
C 231.30826 285.07488 233.608497 284.122091 235.304235 282.426352 
C 236.999974 280.730614 237.952763 278.430377 237.952763 276.032241 
C 237.952763 273.634105 236.999974 271.333867 235.304235 269.638129 
C 233.608497 267.942391 231.30826 266.989601 228.910124 266.989601 
C 226.511988 266.989601 224.21175 267.942391 222.516012 269.638129 
C 220.820274 271.333867 219.867484 273.634105 219.867484 276.032241 
C 219.867484 278.430377 220.820274 280.730614 222.516012 282.426352 
C 224.21175 284.122091 226.511988 285.07488 228.910124 285.07488 
z
" style="fill:#009900;fill-opacity:0.5;stroke:#009900;stroke-linejoin:miter;stroke-width:2;"/>
   </g>
   <g id="patch_6">
    <path clip-path="url(#p2c6f9ce92c)" d="M 296.72992 245.919102 
C 299.128057 245.919102 301.428294 244.966313 303.124032 243.270575 
C 304.81977 241.574836 305.77256 239.274599 305.77256 236.876463 
C 305.77256 234.478327 304.81977 232.178089 303.124032 230.482351 
C 301.428294 228.786613 299.128057 227.833823 296.72992 227.833823 
C 294.331784 227.833823 292.031547 228.786613 290.335809 230.482351 
C 288.64007 232.178089 287.687281 234.478327 287.687281 236.876463 
C 287.687281 239.274599 288.64007 241.574836 290.335809 243.270575 
C 292.031547 244.966313 294.331784 245.919102 296.72992 245.919102 
z
" style="fill:#009900;fill-opacity:0.5;stroke:#009900;stroke-linejoin:miter;stroke-width:2;"/>
   </g>
   <g id="patch_7">
    <path clip-path="url(#p2c6f9ce92c)" d="M 364.549717 285.07488 
C 366.947853 285.07488 369.248091 284.122091 370.943829 282.426352 
C 372.639567 280.730614 373.592357 278.430377 373.592357 276.032241 
C 373.592357 273.634105 372.639567 271.333867 370.943829 269.638129 
C 369.248091 267.942391 366.947853 266.989601 364.549717 266.989601 
C 362.151581 266.989601 359.851344 267.942391 358.155606 269.638129 
C 356.459867 271.333867 355.507078 273.634105 355.507078 276.032241 
C 355.507078 278.430377 356.459867 280.730614 358.155606 282.426352 
C 359.851344 284.122091 362.151581 285.07488 364.549717 285.07488 
z
" style="fill:#009900;fill-opacity:0.5;stroke:#009900;stroke-linejoin:miter;stroke-width:2;"/>
   </g>
   <g id="patch_8">
    <path clip-path="url(#p2c6f9ce92c)" d="M 432.369514 245.919102 
C 434.76765 245.919102 437.067888 244.966313 438.763626 243.270575 
C 440.459364 241.574836 441.412154 239.274599 441.412154 236.876463 
C 441.412154 234.478327 440.459364 232.178089 438.763626 230.482351 
C 437.067888 228.786613 434.76765 227.833823 432.369514 227.833823 
C 429.971378 227.833823 427.671141 228.786613 425.975402 230.482351 
C 424.279664 232.178089 423.326875 234.478327 423.326875 236.876463 
C 423.326875 239.274599 424.279664 241.574836 425.975402 243.270575 
C 427.671141 244.966313 429.971378 245.919102 432.369514 245.919102 
z
" style="fill:#009900;fill-opacity:0.5;stroke:#009900;stroke-linejoin:miter;stroke-width:2;"/>
   </g>
   <g id="patch_9">
    <path clip-path="url(#p2c6f9ce92c)" d="M 500.189311 285.07488 
C 502.587447 285.07488 504.887685 284.122091 506.583423 282.426352 
C 508.279161 280.730614 509.231951 278.430377 509.231951 276.032241 
C 509.231951 273.634105 508.279161 271.333867 506.583423 269.638129 
C 504.887685 267.942391 502.587447 266.989601 500.189311 266.989601 
C 497.791175 266.989601 495.490938 267.942391 493.795199 269.638129 
C 492.099461 271.333867 491.146671 273.634105 491.146671 276.032241 
C 491.146671 278.430377 492.099461 280.730614 493.795199 282.426352 
C 495.490938 284.122091 497.791175 285.07488 500.189311 285.07488 
z
" style="fill:#009900;fill-opacity:0.5;stroke:#009900;stroke-linejoin:miter;stroke-width:2;"/>
   </g>
   <g id="patch_10">
    <path clip-path="url(#p2c6f9ce92c)" d="M 568.009108 245.919102 
C 570.407244 245.919102 572.707481 244.966313 574.40322 243.270575 
C 576.098958 241.574836 577.051747 239.274599 577.051747 236.876463 
C 577.051747 234.478327 576.098958 232.178089 574.40322 230.482351 
C 572.707481 228.786613 570.407244 227.833823 568.009108 227.833823 
C 565.610972 227.833823 563.310734 228.786613 561.614996 230.482351 
C 559.919258 232.178089 558.966468 234.478327 558.966468 236.876463 
C 558.966468 239.274599 559.919258 241.574836 561.614996 243.270575 
C 563.310734 244.966313 565.610972 245.919102 568.009108 245.919102 
z
" style="fill:#009900;fill-opacity:0.5;stroke:#009900;stroke-linejoin:miter;stroke-width:2;"/>
   </g>
   <g id="patch_11">
    <path clip-path="url(#p2c6f9ce92c)" d="M 93.27053 206.763324 
C 95.668666 206.763324 97.968903 205.810535 99.664642 204.114797 
C 101.36038 202.419058 102.31317 200.118821 102.31317 197.720685 
C 102.31317 195.322549 101.36038 193.022311 99.664642 191.326573 
C 97.968903 189.630835 95.668666 188.678045 93.27053 188.678045 
C 90.872394 188.678045 88.572156 189.630835 86.876418 191.326573 
C 85.18068 193.022311 84.22789 195.322549 84.22789 197.720685 
C 84.22789 200.118821 85.18068 202.419058 86.876418 204.114797 
C 88.572156 205.810535 90.872394 206.763324 93.27053 206.763324 
z
" style="fill:#009900;fill-opacity:0.5;stroke:#009900;stroke-linejoin:miter;stroke-width:2;"/>
   </g>
   <g id="patch_12">
    <path clip-path="url(#p2c6f9ce92c)" d="M 161.090327 167.607546 
C 163.488463 167.607546 165.7887 166.654757 167.484439 164.959019 
C 169.180177 163.26328 170.132966 160.963043 170.132966 158.564907 
C 170.132966 156.166771 169.180177 153.866533 167.484439 152.170795 
C 165.7887 150.475057 163.488463 149.522267 161.090327 149.522267 
C 158.692191 149.522267 156.391953 150.475057 154.696215 152.170795 
C 153.000477 153.866533 152.047687 156.166771 152.047687 158.564907 
C 152.047687 160.963043 153.000477 163.26328 154.696215 164.959019 
C 156.391953 166.654757 158.692191 167.607546 161.090327 167.607546 
z
" style="fill:#009900;fill-opacity:0.5;stroke:#009900;stroke-linejoin:miter;stroke-width:2;"/>
   </g>
   <g id="patch_13">
    <path clip-path="url(#p2c6f9ce92c)" d="M 228.910124 206.763324 
C 231.30826 206.763324 233.608497 205.810535 235.304235 204.114797 
C 236.999974 202.419058 237.952763 200.118821 237.952763 197.720685 
C 237.952763 195.322549 236.999974 193.022311 235.304235 191.326573 
C 233.608497 189.630835 231.30826 188.678045 228.910124 188.678045 
C 226.511988 188.678045 224.21175 189.630835 222.516012 191.326573 
C 220.820274 193.022311 219.867484 195.322549 219.867484 197.720685 
C 219.867484 200.118821 220.820274 202.419058 222.516012 204.114797 
C 224.21175 205.810535 226.511988 206.763324 228.910124 206.763324 
z
" style="fill:#009900;fill-opacity:0.5;stroke:#009900;stroke-linejoin:miter;stroke-width:2;"/>
   </g>
   <g id="patch_14">
    <path clip-path="url(#p2c6f9ce92c)" d="M 296.72992 167.607546 
C 299.128057 167.607546 301.428294 166.654757 303.124032 164.959019 
C 304.81977 163.26328 305.77256 160.963043 305.77256 158.564907 
C 305.77256 156.166771 304.81977 153.866533 303.124032 152.170795 
C 301.428294 150.475057 299.128057 149.522267 296.72992 149.522267 
C 294.331784 149.522267 292.031547 150.475057 290.335809 152.170795 
C 288.64007 153.866533 287.687281 156.166771 287.687281 158.564907 
C 287.687281 160.963043 288.64007 163.26328 290.335809 164.959019 
C 292.031547 166.654757 294.331784 167.607546 296.72992 167.607546 
z
" style="fill:#009900;fill-opacity:0.5;stroke:#009900;stroke-linejoin:miter;stroke-width:2;"/>
   </g>
   <g id="patch_15">
    <path clip-path="url(#p2c6f9ce92c)" d="M 364.549717 206.763324 
C 366.947853 206.763324 369.248091 205.810535 370.943829 204.114797 
C 372.639567 202.419058 373.592357 200.118821 373.592357 197.720685 
C 373.592357 195.322549 372.639567 193.022311 370.943829 191.326573 
C 369.248091 189.630835 366.947853 188.678045 364.549717 188.678045 
C 362.151581 188.678045 359.851344 189.630835 358.155606 191.326573 
C 356.459867 193.022311 355.507078 195.322549 355.507078 197.720685 
C 355.507078 200.118821 356.459867 202.419058 358.155606 204.114797 
C 359.851344 205.810535 362.151581 206.763324 364.549717 206.763324 
z
" style="fill:#009900;fill-opacity:0.5;stroke:#009900;stroke-linejoin:miter;stroke-width:2;"/>
   </g>
   <g id="patch_16">
    <path clip-path="url(#p2c6f9ce92c)" d="M 432.369514 167.607546 
C 434.76765 167.607546 437.067888 166.654757 438.763626 164.959019 
C 440.459364 163.26328 441.412154 160.963043 441.412154 158.564907 
C 441.412154 156.166771 440.459364 153.866533 438.763626 152.170795 
C 437.067888 150.475057 434.76765 149.522267 432.369514 149.522267 
C 429.971378 149.522267 427.671141 150.475057 425.975402 152.170795 
C 424.279664 153.866533 423.326875 156.166771 423.326875 158.564907 
C 423.326875 160.963043 424.279664 163.26328 425.975402 164.959019 
C 427.671141 166.654757 429.971378 167.607546 432.369514 167.607546 
z
" style="fill:#009900;fill-opacity:0.5;stroke:#009900;stroke-linejoin:miter;stroke-width:2;"/>
   </g>
   <g id="patch_17">
    <path clip-path="url(#p2c6f9ce92c)" d="M 500.189311 206.763324 
C 502.587447 206.763324 504.887685 205.810535 506.583423 204.114797 
C 508.279161 202.419058 509.231951 200.118821 509.231951 197.720685 
C 509.231951 195.322549 508.279161 193.022311 506.583423 191.326573 
C 504.887685 189.630835 502.587447 188.678045 500.189311 188.678045 
C 497.791175 188.678045 495.490938 189.630835 493.795199 191.326573 
C 492.099461 193.022311 491.146671 195.322549 491.146671 197.720685 
C 491.146671 200.118821 492.099461 202.419058 493.795199 204.114797 
C 495.490938 205.810535 497.791175 206.763324 500.189311 206.763324 
z
" style="fill:#009900;fill-opacity:0.5;stroke:#009900;stroke-linejoin:miter;stroke-width:2;"/>
   </g>
   <g id="patch_18">
    <path clip-path="url(#p2c6f9ce92c)" d="M 568.009108 167.607546 
C 570.407244 167.607546 572.707481 166.654757 574.40322 164.959019 
C 576.098958 163.26328 577.051747 160.963043 577.051747 158.564907 
C 577.051747 156.166771 576.098958 153.866533 574.40322 152.170795 
C 572.707481 150.475057 570.407244 149.522267 568.009108 149.522267 
C 565.610972 149.522267 563.310734 150.475057 561.614996 152.170795 
C 559.919258 153.866533 558.966468 156.166771 558.966468 158.564907 
C 558.966468 160.963043 559.919258 163.26328 561.614996 164.959019 
C 563.310734 166.654757 565.610972 167.607546 568.009108 167.607546 
z
" style="fill:#009900;fill-opacity:0.5;stroke:#009900;stroke-linejoin:miter;stroke-width:2;"/>
   </g>
   <g id="patch_19">
    <path clip-path="url(#p2c6f9ce92c)" d="M 93.27053 128.451768 
C 95.668666 128.451768 97.968903 127.498979 99.664642 125.803241 
C 101.36038 124.107502 102.31317 121.807265 102.31317 119.409129 
C 102.31317 117.010993 101.36038 114.710755 99.664642 113.015017 
C 97.968903 111.319279 95.668666 110.366489 93.27053 110.366489 
C 90.872394 110.366489 88.572156 111.319279 86.876418 113.015017 
C 85.18068 114.710755 84.22789 117.010993 84.22789 119.409129 
C 84.22789 121.807265 85.18068 124.107502 86.876418 125.803241 
C 88.572156 127.498979 90.872394 128.451768 93.27053 128.451768 
z
" style="fill:#009900;fill-opacity:0.5;stroke:#009900;stroke-linejoin:miter;stroke-width:2;"/>
   </g>
   <g id="patch_20">
    <path clip-path="url(#p2c6f9ce92c)" d="M 161.090327 89.29599 
C 163.488463 89.29599 165.7887 88.343201 167.484439 86.647463 
C 169.180177 84.951724 170.132966 82.651487 170.132966 80.253351 
C 170.132966 77.855215 169.180177 75.554977 167.484439 73.859239 
C 165.7887 72.163501 163.488463 71.210711 161.090327 71.210711 
C 158.692191 71.210711 156.391953 72.163501 154.696215 73.859239 
C 153.000477 75.554977 152.047687 77.855215 152.047687 80.253351 
C 152.047687 82.651487 153.000477 84.951724 154.696215 86.647463 
C 156.391953 88.343201 158.692191 89.29599 161.090327 89.29599 
z
" style="fill:#009900;fill-opacity:0.5;stroke:#009900;stroke-linejoin:miter;stroke-width:2;"/>
   </g>
   <g id="patch_21">
    <path clip-path="url(#p2c6f9ce92c)" d="M 228.910124 128.451768 
C 231.30826 128.451768 233.608497 127.498979 235.304235 125.803241 
C 236.999974 124.107502 237.952763 121.807265 237.952763 119.409129 
C 237.952763 117.010993 236.999974 114.710755 235.304235 113.015017 
C 233.608497 111.319279 231.30826 110.366489 228.910124 110.366489 
C 226.511988 110.366489 224.21175 111.319279 222.516012 113.015017 
C 220.820274 114.710755 219.867484 117.010993 219.867484 119.409129 
C 219.867484 121.807265 220.820274 124.107502 222.516012 125.803241 
C 224.21175 127.498979 226.511988 128.451768 228.910124 128.451768 
z
" style="fill:#009900;fill-opacity:0.5;stroke:#009900;stroke-linejoin:miter;stroke-width:2;"/>
   </g>
   <g id="patch_22">
    <path clip-path="url(#p2c6f9ce92c)" d="M 296.72992 89.29599 
C 299.128057 89.29599 301.428294 88.343201 303.124032 86.647463 
C 304.81977 84.951724 305.77256 82.651487 305.77256 80.253351 
C 305.77256 77.855215 304.81977 75.554977 303.124032 73.859239 
C 301.428294 72.163501 299.128057 71.210711 296.72992 71.210711 
C 294.331784 71.210711 292.031547 72.163501 290.335809 73.859239 
C 288.64007 75.554977 287.687281 77.855215 287.687281 80.253351 
C 287.687281 82.651487 288.64007 84.951724 290.335809 86.647463 
C 292.031547 88.343201 294.331784 89.29599 296.72992 89.29599 
z
" style="fill:#009900;fill-opacity:0.5;stroke:#009900;stroke-linejoin:miter;stroke-width:2;"/>
   </g>
   <g id="patch_23">
    <path clip-path="url(#p2c6f9ce92c)" d="M 364.549717 128.451768 
C 366.947853 128.451768 369.248091 127.498979 370.943829 125.803241 
C 372.639567 124.107502 373.592357 121.807265 373.592357 119.409129 
C 373.592357 117.010993 372.639567 114.710755 370.943829 113.015017 
C 369.248091 111.319279 366.947853 110.366489 364.549717 110.366489 
C 362.151581 110.366489 359.851344 111.319279 358.155606 113.015017 
C 356.459867 114.710755 355.507078 117.010993 355.507078 119.409129 
C 355.507078 121.807265 356.459867 124.107502 358.155606 125.803241 
C 359.851344 127.498979 362.151581 128.451768 364.549717 128.451768 
z
" style="fill:#009900;fill-opacity:0.5;stroke:#009900;stroke-linejoin:miter;stroke-width:2;"/>
   </g>
   <g id="patch_24">
    <path clip-path="url(#p2c6f9ce92c)" d="M 432.369514 89.29599 
C 434.76765 89.29599 437.067888 88.343201 438.763626 86.647463 
C 440.459364 84.951724 441.412154 82.651487 441.412154 80.253351 
C 441.412154 77.855215 440.459364 75.554977 438.763626 73.859239 
C 437.067888 72.163501 434.76765 71.210711 432.369514 71.210711 
C 429.971378 71.210711 427.671141 72.163501 425.975402 73.859239 
C 424.279664 75.554977 423.326875 77.855215 423.326875 80.253351 
C 423.326875 82.651487 424.279664 84.951724 425.975402 86.647463 
C 427.671141 88.343201 429.971378 89.29599 432.369514 89.29599 
z
" style="fill:#009900;fill-opacity:0.5;stroke:#009900;stroke-linejoin:miter;stroke-width:2;"/>
   </g>
   <g id="patch_25">
    <path clip-path="url(#p2c6f9ce92c)" d="M 500.189311 128.451768 
C 502.587447 128.451768 504.887685 127.498979 506.583423 125.803241 
C 508.279161 124.107502 509.231951 121.807265 509.231951 119.409129 
C 509.231951 117.010993 508.279161 114.710755 506.583423 113.015017 
C 504.887685 111.319279 502.587447 110.366489 500.189311 110.366489 
C 497.791175 110.366489 495.490938 111.319279 493.795199 113.015017 
C 492.099461 114.710755 491.146671 117.010993 491.146671 119.409129 
C 491.146671 121.807265 492.099461 124.107502 493.795199 125.803241 
C 495.490938 127.498979 497.791175 128.451768 500.189311 128.451768 
z
" style="fill:#009900;fill-opacity:0.5;stroke:#009900;stroke-linejoin:miter;stroke-width:2;"/>
   </g>
   <g id="patch_26">
    <path clip-path="url(#p2c6f9ce92c)" d="M 568.009108 89.29599 
C 570.407244 89.29599 572.707481 88.343201 574.40322 86.647463 
C 576.098958 84.951724 577.051747 82.651487 577.051747 80.253351 
C 577.051747 77.855215 576.098958 75.554977 574.40322 73.859239 
C 572.707481 72.163501 570.407244 71.210711 568.009108 71.210711 
C 565.610972 71.210711 563.310734 72.163501 561.614996 73.859239 
C 559.919258 75.554977 558.966468 77.855215 558.966468 80.253351 
C 558.966468 82.651487 559.919258 84.951724 561.614996 86.647463 
C 563.310734 88.343201 565.610972 89.29599 568.009108 89.29599 
z
" style="fill:#009900;fill-opacity:0.5;stroke:#009900;stroke-linejoin:miter;stroke-width:2;"/>
   </g>
   <g id="patch_27">
    <path clip-path="url(#p2c6f9ce92c)" d="M 93.27053 50.140212 
C 95.668666 50.140212 97.968903 49.187423 99.664642 47.491685 
C 101.36038 45.795946 102.31317 43.495709 102.31317 41.097573 
C 102.31317 38.699437 101.36038 36.399199 99.664642 34.703461 
C 97.968903 33.007723 95.668666 32.054933 93.27053 32.054933 
C 90.872394 32.054933 88.572156 33.007723 86.876418 34.703461 
C 85.18068 36.399199 84.22789 38.699437 84.22789 41.097573 
C 84.22789 43.495709 85.18068 45.795946 86.876418 47.491685 
C 88.572156 49.187423 90.872394 50.140212 93.27053 50.140212 
z
" style="fill:#009900;fill-opacity:0.5;stroke:#009900;stroke-linejoin:miter;stroke-width:2;"/>
   </g>
   <g id="patch_28">
    <path clip-path="url(#p2c6f9ce92c)" d="M 161.090327 10.984435 
C 163.488463 10.984435 165.7887 10.031645 167.484439 8.335907 
C 169.180177 6.640168 170.132966 4.339931 170.132966 1.941795 
C 170.132966 -0.456341 169.180177 -2.756579 167.484439 -4.452317 
C 165.7887 -6.148055 163.488463 -7.100845 161.090327 -7.100845 
C 158.692191 -7.100845 156.391953 -6.148055 154.696215 -4.452317 
C 153.000477 -2.756579 152.047687 -0.456341 152.047687 1.941795 
C 152.047687 4.339931 153.000477 6.640168 154.696215 8.335907 
C 156.391953 10.031645 158.692191 10.984435 161.090327 10.984435 
z
" style="fill:#009900;fill-opacity:0.5;stroke:#009900;stroke-linejoin:miter;stroke-width:2;"/>
   </g>
   <g id="patch_29">
    <path clip-path="url(#p2c6f9ce92c)" d="M 228.910124 50.140212 
C 231.30826 50.140212 233.608497 49.187423 235.304235 47.491685 
C 236.999974 45.795946 237.952763 43.495709 237.952763 41.097573 
C 237.952763 38.699437 236.999974 36.399199 235.304235 34.703461 
C 233.608497 33.007723 231.30826 32.054933 228.910124 32.054933 
C 226.511988 32.054933 224.21175 33.007723 222.516012 34.703461 
C 220.820274 36.399199 219.867484 38.699437 219.867484 41.097573 
C 219.867484 43.495709 220.820274 45.795946 222.516012 47.491685 
C 224.21175 49.187423 226.511988 50.140212 228.910124 50.140212 
z
" style="fill:#009900;fill-opacity:0.5;stroke:#009900;stroke-linejoin:miter;stroke-width:2;"/>
   </g>
   <g id="patch_30">
    <path clip-path="url(#p2c6f9ce92c)" d="M 296.72992 10.984435 
C 299.128057 10.984435 301.428294 10.031645 303.124032 8.335907 
C 304.81977 6.640168 305.77256 4.339931 305.77256 1.941795 
C 305.77256 -0.456341 304.81977 -2.756579 303.124032 -4.452317 
C 301.428294 -6.148055 299.128057 -7.100845 296.72992 -7.100845 
C 294.331784 -7.100845 292.031547 -6.148055 290.335809 -4.452317 
C 288.64007 -2.756579 287.687281 -0.456341 287.687281 1.941795 
C 287.687281 4.339931 288.64007 6.640168 290.335809 8.335907 
C 292.031547 10.031645 294.331784 10.984435 296.72992 10.984435 
z
" style="fill:#009900;fill-opacity:0.5;stroke:#009900;stroke-linejoin:miter;stroke-width:2;"/>
   </g>
   <g id="patch_31">
    <path clip-path="url(#p2c6f9ce92c)" d="M 364.549717 50.140212 
C 366.947853 50.140212 369.248091 49.187423 370.943829 47.491685 
C 372.639567 45.795946 373.592357 43.495709 373.592357 41.097573 
C 373.592357 38.699437 372.639567 36.399199 370.943829 34.703461 
C 369.248091 33.007723 366.947853 32.054933 364.549717 32.054933 
C 362.151581 32.054933 359.851344 33.007723 358.155606 34.703461 
C 356.459867 36.399199 355.507078 38.699437 355.507078 41.097573 
C 355.507078 43.495709 356.459867 45.795946 358.155606 47.491685 
C 359.851344 49.187423 362.151581 50.140212 364.549717 50.140212 
z
" style="fill:#009900;fill-opacity:0.5;stroke:#009900;stroke-linejoin:miter;stroke-width:2;"/>
   </g>
   <g id="patch_32">
    <path clip-path="url(#p2c6f9ce92c)" d="M 432.369514 10.984435 
C 434.76765 10.984435 437.067888 10.031645 438.763626 8.335907 
C 440.459364 6.640168 441.412154 4.339931 441.412154 1.941795 
C 441.412154 -0.456341 440.459364 -2.756579 438.763626 -4.452317 
C 437.067888 -6.148055 434.76765 -7.100845 432.369514 -7.100845 
C 429.971378 -7.100845 427.671141 -6.148055 425.975402 -4.452317 
C 424.279664 -2.756579 423.326875 -0.456341 423.326875 1.941795 
C 423.326875 4.339931 424.279664 6.640168 425.975402 8.335907 
C 427.671141 10.031645 429.971378 10.984435 432.369514 10.984435 
z
" style="fill:#009900;fill-opacity:0.5;stroke:#009900;stroke-linejoin:miter;stroke-width:2;"/>
   </g>
   <g id="patch_33">
    <path clip-path="url(#p2c6f9ce92c)" d="M 500.189311 50.140212 
C 502.587447 50.140212 504.887685 49.187423 506.583423 47.491685 
C 508.279161 45.795946 509.231951 43.495709 509.231951 41.097573 
C 509.231951 38.699437 508.279161 36.399199 506.583423 34.703461 
C 504.887685 33.007723 502.587447 32.054933 500.189311 32.054933 
C 497.791175 32.054933 495.490938 33.007723 493.795199 34.703461 
C 492.099461 36.399199 491.146671 38.699437 491.146671 41.097573 
C 491.146671 43.495709 492.099461 45.795946 493.795199 47.491685 
C 495.490938 49.187423 497.791175 50.140212 500.189311 50.140212 
z
" style="fill:#009900;fill-opacity:0.5;stroke:#009900;stroke-linejoin:miter;stroke-width:2;"/>
   </g>
   <g id="patch_34">
    <path clip-path="url(#p2c6f9ce92c)" d="M 568.009108 10.984435 
C 570.407244 10.984435 572.707481 10.031645 574.40322 8.335907 
C 576.098958 6.640168 577.051747 4.339931 577.051747 1.941795 
C 577.051747 -0.456341 576.098958 -2.756579 574.40322 -4.452317 
C 572.707481 -6.148055 570.407244 -7.100845 568.009108 -7.100845 
C 565.610972 -7.100845 563.310734 -6.148055 561.614996 -4.452317 
C 559.919258 -2.756579 558.966468 -0.456341 558.966468 1.941795 
C 558.966468 4.339931 559.919258 6.640168 561.614996 8.335907 
C 563.310734 10.031645 565.610972 10.984435 568.009108 10.984435 
z
" style="fill:#009900;fill-opacity:0.5;stroke:#009900;stroke-linejoin:miter;stroke-width:2;"/>
   </g>
   <g id="patch_35">
    <path clip-path="url(#p2c6f9ce92c)" d="M 111.958652 282.060667 
C 113.557409 282.060667 115.090901 281.425474 116.221393 280.294982 
C 117.351885 279.16449 117.987078 277.630998 117.987078 276.032241 
C 117.987078 274.433483 117.351885 272.899992 116.221393 271.7695 
C 115.090901 270.639007 113.557409 270.003814 111.958652 270.003814 
C 110.359894 270.003814 108.826403 270.639007 107.695911 271.7695 
C 106.565418 272.899992 105.930225 274.433483 105.930225 276.032241 
C 105.930225 277.630998 106.565418 279.16449 107.695911 280.294982 
C 108.826403 281.425474 110.359894 282.060667 111.958652 282.060667 
z
" style="fill:#9558b2;fill-opacity:0.5;stroke:#9558b2;stroke-linejoin:miter;stroke-width:2;"/>
   </g>
   <g id="patch_36">
    <path clip-path="url(#p2c6f9ce92c)" d="M 179.778449 242.904889 
C 181.377206 242.904889 182.910698 242.269696 184.04119 241.139204 
C 185.171682 240.008712 185.806875 238.47522 185.806875 236.876463 
C 185.806875 235.277705 185.171682 233.744214 184.04119 232.613722 
C 182.910698 231.483229 181.377206 230.848036 179.778449 230.848036 
C 178.179691 230.848036 176.6462 231.483229 175.515707 232.613722 
C 174.385215 233.744214 173.750022 235.277705 173.750022 236.876463 
C 173.750022 238.47522 174.385215 240.008712 175.515707 241.139204 
C 176.6462 242.269696 178.179691 242.904889 179.778449 242.904889 
z
" style="fill:#9558b2;fill-opacity:0.5;stroke:#9558b2;stroke-linejoin:miter;stroke-width:2;"/>
   </g>
   <g id="patch_37">
    <path clip-path="url(#p2c6f9ce92c)" d="M 247.598245 282.060667 
C 249.197003 282.060667 250.730494 281.425474 251.860987 280.294982 
C 252.991479 279.16449 253.626672 277.630998 253.626672 276.032241 
C 253.626672 274.433483 252.991479 272.899992 251.860987 271.7695 
C 250.730494 270.639007 249.197003 270.003814 247.598245 270.003814 
C 245.999488 270.003814 244.465996 270.639007 243.335504 271.7695 
C 242.205012 272.899992 241.569819 274.433483 241.569819 276.032241 
C 241.569819 277.630998 242.205012 279.16449 243.335504 280.294982 
C 244.465996 281.425474 245.999488 282.060667 247.598245 282.060667 
z
" style="fill:#9558b2;fill-opacity:0.5;stroke:#9558b2;stroke-linejoin:miter;stroke-width:2;"/>
   </g>
   <g id="patch_38">
    <path clip-path="url(#p2c6f9ce92c)" d="M 315.418042 242.904889 
C 317.0168 242.904889 318.550291 242.269696 319.680783 241.139204 
C 320.811276 240.008712 321.446469 238.47522 321.446469 236.876463 
C 321.446469 235.277705 320.811276 233.744214 319.680783 232.613722 
C 318.550291 231.483229 317.0168 230.848036 315.418042 230.848036 
C 313.819285 230.848036 312.285793 231.483229 311.155301 232.613722 
C 310.024809 233.744214 309.389616 235.277705 309.389616 236.876463 
C 309.389616 238.47522 310.024809 240.008712 311.155301 241.139204 
C 312.285793 242.269696 313.819285 242.904889 315.418042 242.904889 
z
" style="fill:#9558b2;fill-opacity:0.5;stroke:#9558b2;stroke-linejoin:miter;stroke-width:2;"/>
   </g>
   <g id="patch_39">
    <path clip-path="url(#p2c6f9ce92c)" d="M 383.237839 282.060667 
C 384.836596 282.060667 386.370088 281.425474 387.50058 280.294982 
C 388.631072 279.16449 389.266265 277.630998 389.266265 276.032241 
C 389.266265 274.433483 388.631072 272.899992 387.50058 271.7695 
C 386.370088 270.639007 384.836596 270.003814 383.237839 270.003814 
C 381.639082 270.003814 380.10559 270.639007 378.975098 271.7695 
C 377.844606 272.899992 377.209413 274.433483 377.209413 276.032241 
C 377.209413 277.630998 377.844606 279.16449 378.975098 280.294982 
C 380.10559 281.425474 381.639082 282.060667 383.237839 282.060667 
z
" style="fill:#9558b2;fill-opacity:0.5;stroke:#9558b2;stroke-linejoin:miter;stroke-width:2;"/>
   </g>
   <g id="patch_40">
    <path clip-path="url(#p2c6f9ce92c)" d="M 451.057636 242.904889 
C 452.656393 242.904889 454.189885 242.269696 455.320377 241.139204 
C 456.450869 240.008712 457.086062 238.47522 457.086062 236.876463 
C 457.086062 235.277705 456.450869 233.744214 455.320377 232.613722 
C 454.189885 231.483229 452.656393 230.848036 451.057636 230.848036 
C 449.458879 230.848036 447.925387 231.483229 446.794895 232.613722 
C 445.664403 233.744214 445.02921 235.277705 445.02921 236.876463 
C 445.02921 238.47522 445.664403 240.008712 446.794895 241.139204 
C 447.925387 242.269696 449.458879 242.904889 451.057636 242.904889 
z
" style="fill:#9558b2;fill-opacity:0.5;stroke:#9558b2;stroke-linejoin:miter;stroke-width:2;"/>
   </g>
   <g id="patch_41">
    <path clip-path="url(#p2c6f9ce92c)" d="M 518.877433 282.060667 
C 520.47619 282.060667 522.009682 281.425474 523.140174 280.294982 
C 524.270666 279.16449 524.905859 277.630998 524.905859 276.032241 
C 524.905859 274.433483 524.270666 272.899992 523.140174 271.7695 
C 522.009682 270.639007 520.47619 270.003814 518.877433 270.003814 
C 517.278675 270.003814 515.745184 270.639007 514.614692 271.7695 
C 513.484199 272.899992 512.849006 274.433483 512.849006 276.032241 
C 512.849006 277.630998 513.484199 279.16449 514.614692 280.294982 
C 515.745184 281.425474 517.278675 282.060667 518.877433 282.060667 
z
" style="fill:#9558b2;fill-opacity:0.5;stroke:#9558b2;stroke-linejoin:miter;stroke-width:2;"/>
   </g>
   <g id="patch_42">
    <path clip-path="url(#p2c6f9ce92c)" d="M 586.69723 242.904889 
C 588.295987 242.904889 589.829479 242.269696 590.959971 241.139204 
C 592.090463 240.008712 592.725656 238.47522 592.725656 236.876463 
C 592.725656 235.277705 592.090463 233.744214 590.959971 232.613722 
C 589.829479 231.483229 588.295987 230.848036 586.69723 230.848036 
C 585.098472 230.848036 583.564981 231.483229 582.434488 232.613722 
C 581.303996 233.744214 580.668803 235.277705 580.668803 236.876463 
C 580.668803 238.47522 581.303996 240.008712 582.434488 241.139204 
C 583.564981 242.269696 585.098472 242.904889 586.69723 242.904889 
z
" style="fill:#9558b2;fill-opacity:0.5;stroke:#9558b2;stroke-linejoin:miter;stroke-width:2;"/>
   </g>
   <g id="patch_43">
    <path clip-path="url(#p2c6f9ce92c)" d="M 111.958652 203.749111 
C 113.557409 203.749111 115.090901 203.113918 116.221393 201.983426 
C 117.351885 200.852934 117.987078 199.319442 117.987078 197.720685 
C 117.987078 196.121927 117.351885 194.588436 116.221393 193.457944 
C 115.090901 192.327451 113.557409 191.692258 111.958652 191.692258 
C 110.359894 191.692258 108.826403 192.327451 107.695911 193.457944 
C 106.565418 194.588436 105.930225 196.121927 105.930225 197.720685 
C 105.930225 199.319442 106.565418 200.852934 107.695911 201.983426 
C 108.826403 203.113918 110.359894 203.749111 111.958652 203.749111 
z
" style="fill:#9558b2;fill-opacity:0.5;stroke:#9558b2;stroke-linejoin:miter;stroke-width:2;"/>
   </g>
   <g id="patch_44">
    <path clip-path="url(#p2c6f9ce92c)" d="M 179.778449 164.593333 
C 181.377206 164.593333 182.910698 163.95814 184.04119 162.827648 
C 185.171682 161.697156 185.806875 160.163664 185.806875 158.564907 
C 185.806875 156.966149 185.171682 155.432658 184.04119 154.302166 
C 182.910698 153.171673 181.377206 152.53648 179.778449 152.53648 
C 178.179691 152.53648 176.6462 153.171673 175.515707 154.302166 
C 174.385215 155.432658 173.750022 156.966149 173.750022 158.564907 
C 173.750022 160.163664 174.385215 161.697156 175.515707 162.827648 
C 176.6462 163.95814 178.179691 164.593333 179.778449 164.593333 
z
" style="fill:#9558b2;fill-opacity:0.5;stroke:#9558b2;stroke-linejoin:miter;stroke-width:2;"/>
   </g>
   <g id="patch_45">
    <path clip-path="url(#p2c6f9ce92c)" d="M 247.598245 203.749111 
C 249.197003 203.749111 250.730494 203.113918 251.860987 201.983426 
C 252.991479 200.852934 253.626672 199.319442 253.626672 197.720685 
C 253.626672 196.121927 252.991479 194.588436 251.860987 193.457944 
C 250.730494 192.327451 249.197003 191.692258 247.598245 191.692258 
C 245.999488 191.692258 244.465996 192.327451 243.335504 193.457944 
C 242.205012 194.588436 241.569819 196.121927 241.569819 197.720685 
C 241.569819 199.319442 242.205012 200.852934 243.335504 201.983426 
C 244.465996 203.113918 245.999488 203.749111 247.598245 203.749111 
z
" style="fill:#9558b2;fill-opacity:0.5;stroke:#9558b2;stroke-linejoin:miter;stroke-width:2;"/>
   </g>
   <g id="patch_46">
    <path clip-path="url(#p2c6f9ce92c)" d="M 315.418042 164.593333 
C 317.0168 164.593333 318.550291 163.95814 319.680783 162.827648 
C 320.811276 161.697156 321.446469 160.163664 321.446469 158.564907 
C 321.446469 156.966149 320.811276 155.432658 319.680783 154.302166 
C 318.550291 153.171673 317.0168 152.53648 315.418042 152.53648 
C 313.819285 152.53648 312.285793 153.171673 311.155301 154.302166 
C 310.024809 155.432658 309.389616 156.966149 309.389616 158.564907 
C 309.389616 160.163664 310.024809 161.697156 311.155301 162.827648 
C 312.285793 163.95814 313.819285 164.593333 315.418042 164.593333 
z
" style="fill:#9558b2;fill-opacity:0.5;stroke:#9558b2;stroke-linejoin:miter;stroke-width:2;"/>
   </g>
   <g id="patch_47">
    <path clip-path="url(#p2c6f9ce92c)" d="M 383.237839 203.749111 
C 384.836596 203.749111 386.370088 203.113918 387.50058 201.983426 
C 388.631072 200.852934 389.266265 199.319442 389.266265 197.720685 
C 389.266265 196.121927 388.631072 194.588436 387.50058 193.457944 
C 386.370088 192.327451 384.836596 191.692258 383.237839 191.692258 
C 381.639082 191.692258 380.10559 192.327451 378.975098 193.457944 
C 377.844606 194.588436 377.209413 196.121927 377.209413 197.720685 
C 377.209413 199.319442 377.844606 200.852934 378.975098 201.983426 
C 380.10559 203.113918 381.639082 203.749111 383.237839 203.749111 
z
" style="fill:#9558b2;fill-opacity:0.5;stroke:#9558b2;stroke-linejoin:miter;stroke-width:2;"/>
   </g>
   <g id="patch_48">
    <path clip-path="url(#p2c6f9ce92c)" d="M 451.057636 164.593333 
C 452.656393 164.593333 454.189885 163.95814 455.320377 162.827648 
C 456.450869 161.697156 457.086062 160.163664 457.086062 158.564907 
C 457.086062 156.966149 456.450869 155.432658 455.320377 154.302166 
C 454.189885 153.171673 452.656393 152.53648 451.057636 152.53648 
C 449.458879 152.53648 447.925387 153.171673 446.794895 154.302166 
C 445.664403 155.432658 445.02921 156.966149 445.02921 158.564907 
C 445.02921 160.163664 445.664403 161.697156 446.794895 162.827648 
C 447.925387 163.95814 449.458879 164.593333 451.057636 164.593333 
z
" style="fill:#9558b2;fill-opacity:0.5;stroke:#9558b2;stroke-linejoin:miter;stroke-width:2;"/>
   </g>
   <g id="patch_49">
    <path clip-path="url(#p2c6f9ce92c)" d="M 518.877433 203.749111 
C 520.47619 203.749111 522.009682 203.113918 523.140174 201.983426 
C 524.270666 200.852934 524.905859 199.319442 524.905859 197.720685 
C 524.905859 196.121927 524.270666 194.588436 523.140174 193.457944 
C 522.009682 192.327451 520.47619 191.692258 518.877433 191.692258 
C 517.278675 191.692258 515.745184 192.327451 514.614692 193.457944 
C 513.484199 194.588436 512.849006 196.121927 512.849006 197.720685 
C 512.849006 199.319442 513.484199 200.852934 514.614692 201.983426 
C 515.745184 203.113918 517.278675 203.749111 518.877433 203.749111 
z
" style="fill:#9558b2;fill-opacity:0.5;stroke:#9558b2;stroke-linejoin:miter;stroke-width:2;"/>
   </g>
   <g id="patch_50">
    <path clip-path="url(#p2c6f9ce92c)" d="M 586.69723 164.593333 
C 588.295987 164.593333 589.829479 163.95814 590.959971 162.827648 
C 592.090463 161.697156 592.725656 160.163664 592.725656 158.564907 
C 592.725656 156.966149 592.090463 155.432658 590.959971 154.302166 
C 589.829479 153.171673 588.295987 152.53648 586.69723 152.53648 
C 585.098472 152.53648 583.564981 153.171673 582.434488 154.302166 
C 581.303996 155.432658 580.668803 156.966149 580.668803 158.564907 
C 580.668803 160.163664 581.303996 161.697156 582.434488 162.827648 
C 583.564981 163.95814 585.098472 164.593333 586.69723 164.593333 
z
" style="fill:#9558b2;fill-opacity:0.5;stroke:#9558b2;stroke-linejoin:miter;stroke-width:2;"/>
   </g>
   <g id="patch_51">
    <path clip-path="url(#p2c6f9ce92c)" d="M 111.958652 125.437555 
C 113.557409 125.437555 115.090901 124.802362 116.221393 123.67187 
C 117.351885 122.541378 117.987078 121.007886 117.987078 119.409129 
C 117.987078 117.810371 117.351885 116.27688 116.221393 115.146388 
C 115.090901 114.015895 113.557409 113.380702 111.958652 113.380702 
C 110.359894 113.380702 108.826403 114.015895 107.695911 115.146388 
C 106.565418 116.27688 105.930225 117.810371 105.930225 119.409129 
C 105.930225 121.007886 106.565418 122.541378 107.695911 123.67187 
C 108.826403 124.802362 110.359894 125.437555 111.958652 125.437555 
z
" style="fill:#9558b2;fill-opacity:0.5;stroke:#9558b2;stroke-linejoin:miter;stroke-width:2;"/>
   </g>
   <g id="patch_52">
    <path clip-path="url(#p2c6f9ce92c)" d="M 179.778449 86.281777 
C 181.377206 86.281777 182.910698 85.646584 184.04119 84.516092 
C 185.171682 83.3856 185.806875 81.852108 185.806875 80.253351 
C 185.806875 78.654594 185.171682 77.121102 184.04119 75.99061 
C 182.910698 74.860118 181.377206 74.224924 179.778449 74.224924 
C 178.179691 74.224924 176.6462 74.860118 175.515707 75.99061 
C 174.385215 77.121102 173.750022 78.654594 173.750022 80.253351 
C 173.750022 81.852108 174.385215 83.3856 175.515707 84.516092 
C 176.6462 85.646584 178.179691 86.281777 179.778449 86.281777 
z
" style="fill:#9558b2;fill-opacity:0.5;stroke:#9558b2;stroke-linejoin:miter;stroke-width:2;"/>
   </g>
   <g id="patch_53">
    <path clip-path="url(#p2c6f9ce92c)" d="M 247.598245 125.437555 
C 249.197003 125.437555 250.730494 124.802362 251.860987 123.67187 
C 252.991479 122.541378 253.626672 121.007886 253.626672 119.409129 
C 253.626672 117.810371 252.991479 116.27688 251.860987 115.146388 
C 250.730494 114.015895 249.197003 113.380702 247.598245 113.380702 
C 245.999488 113.380702 244.465996 114.015895 243.335504 115.146388 
C 242.205012 116.27688 241.569819 117.810371 241.569819 119.409129 
C 241.569819 121.007886 242.205012 122.541378 243.335504 123.67187 
C 244.465996 124.802362 245.999488 125.437555 247.598245 125.437555 
z
" style="fill:#9558b2;fill-opacity:0.5;stroke:#9558b2;stroke-linejoin:miter;stroke-width:2;"/>
   </g>
   <g id="patch_54">
    <path clip-path="url(#p2c6f9ce92c)" d="M 315.418042 86.281777 
C 317.0168 86.281777 318.550291 85.646584 319.680783 84.516092 
C 320.811276 83.3856 321.446469 81.852108 321.446469 80.253351 
C 321.446469 78.654594 320.811276 77.121102 319.680783 75.99061 
C 318.550291 74.860118 317.0168 74.224924 315.418042 74.224924 
C 313.819285 74.224924 312.285793 74.860118 311.155301 75.99061 
C 310.024809 77.121102 309.389616 78.654594 309.389616 80.253351 
C 309.389616 81.852108 310.024809 83.3856 311.155301 84.516092 
C 312.285793 85.646584 313.819285 86.281777 315.418042 86.281777 
z
" style="fill:#9558b2;fill-opacity:0.5;stroke:#9558b2;stroke-linejoin:miter;stroke-width:2;"/>
   </g>
   <g id="patch_55">
    <path clip-path="url(#p2c6f9ce92c)" d="M 383.237839 125.437555 
C 384.836596 125.437555 386.370088 124.802362 387.50058 123.67187 
C 388.631072 122.541378 389.266265 121.007886 389.266265 119.409129 
C 389.266265 117.810371 388.631072 116.27688 387.50058 115.146388 
C 386.370088 114.015895 384.836596 113.380702 383.237839 113.380702 
C 381.639082 113.380702 380.10559 114.015895 378.975098 115.146388 
C 377.844606 116.27688 377.209413 117.810371 377.209413 119.409129 
C 377.209413 121.007886 377.844606 122.541378 378.975098 123.67187 
C 380.10559 124.802362 381.639082 125.437555 383.237839 125.437555 
z
" style="fill:#9558b2;fill-opacity:0.5;stroke:#9558b2;stroke-linejoin:miter;stroke-width:2;"/>
   </g>
   <g id="patch_56">
    <path clip-path="url(#p2c6f9ce92c)" d="M 451.057636 86.281777 
C 452.656393 86.281777 454.189885 85.646584 455.320377 84.516092 
C 456.450869 83.3856 457.086062 81.852108 457.086062 80.253351 
C 457.086062 78.654594 456.450869 77.121102 455.320377 75.99061 
C 454.189885 74.860118 452.656393 74.224924 451.057636 74.224924 
C 449.458879 74.224924 447.925387 74.860118 446.794895 75.99061 
C 445.664403 77.121102 445.02921 78.654594 445.02921 80.253351 
C 445.02921 81.852108 445.664403 83.3856 446.794895 84.516092 
C 447.925387 85.646584 449.458879 86.281777 451.057636 86.281777 
z
" style="fill:#9558b2;fill-opacity:0.5;stroke:#9558b2;stroke-linejoin:miter;stroke-width:2;"/>
   </g>
   <g id="patch_57">
    <path clip-path="url(#p2c6f9ce92c)" d="M 518.877433 125.437555 
C 520.47619 125.437555 522.009682 124.802362 523.140174 123.67187 
C 524.270666 122.541378 524.905859 121.007886 524.905859 119.409129 
C 524.905859 117.810371 524.270666 116.27688 523.140174 115.146388 
C 522.009682 114.015895 520.47619 113.380702 518.877433 113.380702 
C 517.278675 113.380702 515.745184 114.015895 514.614692 115.146388 
C 513.484199 116.27688 512.849006 117.810371 512.849006 119.409129 
C 512.849006 121.007886 513.484199 122.541378 514.614692 123.67187 
C 515.745184 124.802362 517.278675 125.437555 518.877433 125.437555 
z
" style="fill:#9558b2;fill-opacity:0.5;stroke:#9558b2;stroke-linejoin:miter;stroke-width:2;"/>
   </g>
   <g id="patch_58">
    <path clip-path="url(#p2c6f9ce92c)" d="M 586.69723 86.281777 
C 588.295987 86.281777 589.829479 85.646584 590.959971 84.516092 
C 592.090463 83.3856 592.725656 81.852108 592.725656 80.253351 
C 592.725656 78.654594 592.090463 77.121102 590.959971 75.99061 
C 589.829479 74.860118 588.295987 74.224924 586.69723 74.224924 
C 585.098472 74.224924 583.564981 74.860118 582.434488 75.99061 
C 581.303996 77.121102 580.668803 78.654594 580.668803 80.253351 
C 580.668803 81.852108 581.303996 83.3856 582.434488 84.516092 
C 583.564981 85.646584 585.098472 86.281777 586.69723 86.281777 
z
" style="fill:#9558b2;fill-opacity:0.5;stroke:#9558b2;stroke-linejoin:miter;stroke-width:2;"/>
   </g>
   <g id="patch_59">
    <path clip-path="url(#p2c6f9ce92c)" d="M 111.958652 47.125999 
C 113.557409 47.125999 115.090901 46.490806 116.221393 45.360314 
C 117.351885 44.229822 117.987078 42.69633 117.987078 41.097573 
C 117.987078 39.498816 117.351885 37.965324 116.221393 36.834832 
C 115.090901 35.70434 113.557409 35.069147 111.958652 35.069147 
C 110.359894 35.069147 108.826403 35.70434 107.695911 36.834832 
C 106.565418 37.965324 105.930225 39.498816 105.930225 41.097573 
C 105.930225 42.69633 106.565418 44.229822 107.695911 45.360314 
C 108.826403 46.490806 110.359894 47.125999 111.958652 47.125999 
z
" style="fill:#9558b2;fill-opacity:0.5;stroke:#9558b2;stroke-linejoin:miter;stroke-width:2;"/>
   </g>
   <g id="patch_60">
    <path clip-path="url(#p2c6f9ce92c)" d="M 179.778449 7.970221 
C 181.377206 7.970221 182.910698 7.335028 184.04119 6.204536 
C 185.171682 5.074044 185.806875 3.540552 185.806875 1.941795 
C 185.806875 0.343038 185.171682 -1.190454 184.04119 -2.320946 
C 182.910698 -3.451438 181.377206 -4.086631 179.778449 -4.086631 
C 178.179691 -4.086631 176.6462 -3.451438 175.515707 -2.320946 
C 174.385215 -1.190454 173.750022 0.343038 173.750022 1.941795 
C 173.750022 3.540552 174.385215 5.074044 175.515707 6.204536 
C 176.6462 7.335028 178.179691 7.970221 179.778449 7.970221 
z
" style="fill:#9558b2;fill-opacity:0.5;stroke:#9558b2;stroke-linejoin:miter;stroke-width:2;"/>
   </g>
   <g id="patch_61">
    <path clip-path="url(#p2c6f9ce92c)" d="M 247.598245 47.125999 
C 249.197003 47.125999 250.730494 46.490806 251.860987 45.360314 
C 252.991479 44.229822 253.626672 42.69633 253.626672 41.097573 
C 253.626672 39.498816 252.991479 37.965324 251.860987 36.834832 
C 250.730494 35.70434 249.197003 35.069147 247.598245 35.069147 
C 245.999488 35.069147 244.465996 35.70434 243.335504 36.834832 
C 242.205012 37.965324 241.569819 39.498816 241.569819 41.097573 
C 241.569819 42.69633 242.205012 44.229822 243.335504 45.360314 
C 244.465996 46.490806 245.999488 47.125999 247.598245 47.125999 
z
" style="fill:#9558b2;fill-opacity:0.5;stroke:#9558b2;stroke-linejoin:miter;stroke-width:2;"/>
   </g>
   <g id="patch_62">
    <path clip-path="url(#p2c6f9ce92c)" d="M 315.418042 7.970221 
C 317.0168 7.970221 318.550291 7.335028 319.680783 6.204536 
C 320.811276 5.074044 321.446469 3.540552 321.446469 1.941795 
C 321.446469 0.343038 320.811276 -1.190454 319.680783 -2.320946 
C 318.550291 -3.451438 317.0168 -4.086631 315.418042 -4.086631 
C 313.819285 -4.086631 312.285793 -3.451438 311.155301 -2.320946 
C 310.024809 -1.190454 309.389616 0.343038 309.389616 1.941795 
C 309.389616 3.540552 310.024809 5.074044 311.155301 6.204536 
C 312.285793 7.335028 313.819285 7.970221 315.418042 7.970221 
z
" style="fill:#9558b2;fill-opacity:0.5;stroke:#9558b2;stroke-linejoin:miter;stroke-width:2;"/>
   </g>
   <g id="patch_63">
    <path clip-path="url(#p2c6f9ce92c)" d="M 383.237839 47.125999 
C 384.836596 47.125999 386.370088 46.490806 387.50058 45.360314 
C 388.631072 44.229822 389.266265 42.69633 389.266265 41.097573 
C 389.266265 39.498816 388.631072 37.965324 387.50058 36.834832 
C 386.370088 35.70434 384.836596 35.069147 383.237839 35.069147 
C 381.639082 35.069147 380.10559 35.70434 378.975098 36.834832 
C 377.844606 37.965324 377.209413 39.498816 377.209413 41.097573 
C 377.209413 42.69633 377.844606 44.229822 378.975098 45.360314 
C 380.10559 46.490806 381.639082 47.125999 383.237839 47.125999 
z
" style="fill:#9558b2;fill-opacity:0.5;stroke:#9558b2;stroke-linejoin:miter;stroke-width:2;"/>
   </g>
   <g id="patch_64">
    <path clip-path="url(#p2c6f9ce92c)" d="M 451.057636 7.970221 
C 452.656393 7.970221 454.189885 7.335028 455.320377 6.204536 
C 456.450869 5.074044 457.086062 3.540552 457.086062 1.941795 
C 457.086062 0.343038 456.450869 -1.190454 455.320377 -2.320946 
C 454.189885 -3.451438 452.656393 -4.086631 451.057636 -4.086631 
C 449.458879 -4.086631 447.925387 -3.451438 446.794895 -2.320946 
C 445.664403 -1.190454 445.02921 0.343038 445.02921 1.941795 
C 445.02921 3.540552 445.664403 5.074044 446.794895 6.204536 
C 447.925387 7.335028 449.458879 7.970221 451.057636 7.970221 
z
" style="fill:#9558b2;fill-opacity:0.5;stroke:#9558b2;stroke-linejoin:miter;stroke-width:2;"/>
   </g>
   <g id="patch_65">
    <path clip-path="url(#p2c6f9ce92c)" d="M 518.877433 47.125999 
C 520.47619 47.125999 522.009682 46.490806 523.140174 45.360314 
C 524.270666 44.229822 524.905859 42.69633 524.905859 41.097573 
C 524.905859 39.498816 524.270666 37.965324 523.140174 36.834832 
C 522.009682 35.70434 520.47619 35.069147 518.877433 35.069147 
C 517.278675 35.069147 515.745184 35.70434 514.614692 36.834832 
C 513.484199 37.965324 512.849006 39.498816 512.849006 41.097573 
C 512.849006 42.69633 513.484199 44.229822 514.614692 45.360314 
C 515.745184 46.490806 517.278675 47.125999 518.877433 47.125999 
z
" style="fill:#9558b2;fill-opacity:0.5;stroke:#9558b2;stroke-linejoin:miter;stroke-width:2;"/>
   </g>
   <g id="patch_66">
    <path clip-path="url(#p2c6f9ce92c)" d="M 586.69723 7.970221 
C 588.295987 7.970221 589.829479 7.335028 590.959971 6.204536 
C 592.090463 5.074044 592.725656 3.540552 592.725656 1.941795 
C 592.725656 0.343038 592.090463 -1.190454 590.959971 -2.320946 
C 589.829479 -3.451438 588.295987 -4.086631 586.69723 -4.086631 
C 585.098472 -4.086631 583.564981 -3.451438 582.434488 -2.320946 
C 581.303996 -1.190454 580.668803 0.343038 580.668803 1.941795 
C 580.668803 3.540552 581.303996 5.074044 582.434488 6.204536 
C 583.564981 7.335028 585.098472 7.970221 586.69723 7.970221 
z
" style="fill:#9558b2;fill-opacity:0.5;stroke:#9558b2;stroke-linejoin:miter;stroke-width:2;"/>
   </g>
   <g id="patch_67">
    <path clip-path="url(#p2c6f9ce92c)" d="M 102.614591 268.496708 
C 104.613038 268.496708 106.529902 267.702716 107.943017 266.289601 
C 109.356133 264.876486 110.150124 262.959621 110.150124 260.961175 
C 110.150124 258.962728 109.356133 257.045863 107.943017 255.632748 
C 106.529902 254.219633 104.613038 253.425642 102.614591 253.425642 
C 100.616144 253.425642 98.69928 254.219633 97.286164 255.632748 
C 95.873049 257.045863 95.079058 258.962728 95.079058 260.961175 
C 95.079058 262.959621 95.873049 264.876486 97.286164 266.289601 
C 98.69928 267.702716 100.616144 268.496708 102.614591 268.496708 
z
" style="fill:#cc0000;fill-opacity:0.1;stroke:#cc0000;stroke-dasharray:7.4,3.2;stroke-dashoffset:0;stroke-linejoin:miter;stroke-width:2;"/>
   </g>
   <g id="patch_68">
    <path clip-path="url(#p2c6f9ce92c)" d="M 170.434388 229.34093 
C 172.432834 229.34093 174.349699 228.546938 175.762814 227.133823 
C 177.175929 225.720708 177.969921 223.803843 177.969921 221.805397 
C 177.969921 219.80695 177.175929 217.890086 175.762814 216.47697 
C 174.349699 215.063855 172.432834 214.269864 170.434388 214.269864 
C 168.435941 214.269864 166.519076 215.063855 165.105961 216.47697 
C 163.692846 217.890086 162.898855 219.80695 162.898855 221.805397 
C 162.898855 223.803843 163.692846 225.720708 165.105961 227.133823 
C 166.519076 228.546938 168.435941 229.34093 170.434388 229.34093 
z
" style="fill:#cc0000;fill-opacity:0.1;stroke:#cc0000;stroke-dasharray:7.4,3.2;stroke-dashoffset:0;stroke-linejoin:miter;stroke-width:2;"/>
   </g>
   <g id="patch_69">
    <path clip-path="url(#p2c6f9ce92c)" d="M 238.254185 268.496708 
C 240.252631 268.496708 242.169496 267.702716 243.582611 266.289601 
C 244.995726 264.876486 245.789718 262.959621 245.789718 260.961175 
C 245.789718 258.962728 244.995726 257.045863 243.582611 255.632748 
C 242.169496 254.219633 240.252631 253.425642 238.254185 253.425642 
C 236.255738 253.425642 234.338873 254.219633 232.925758 255.632748 
C 231.512643 257.045863 230.718652 258.962728 230.718652 260.961175 
C 230.718652 262.959621 231.512643 264.876486 232.925758 266.289601 
C 234.338873 267.702716 236.255738 268.496708 238.254185 268.496708 
z
" style="fill:#cc0000;fill-opacity:0.1;stroke:#cc0000;stroke-dasharray:7.4,3.2;stroke-dashoffset:0;stroke-linejoin:miter;stroke-width:2;"/>
   </g>
   <g id="patch_70">
    <path clip-path="url(#p2c6f9ce92c)" d="M 306.073981 229.34093 
C 308.072428 229.34093 309.989293 228.546938 311.402408 227.133823 
C 312.815523 225.720708 313.609514 223.803843 313.609514 221.805397 
C 313.609514 219.80695 312.815523 217.890086 311.402408 216.47697 
C 309.989293 215.063855 308.072428 214.269864 306.073981 214.269864 
C 304.075535 214.269864 302.15867 215.063855 300.745555 216.47697 
C 299.33244 217.890086 298.538448 219.80695 298.538448 221.805397 
C 298.538448 223.803843 299.33244 225.720708 300.745555 227.133823 
C 302.15867 228.546938 304.075535 229.34093 306.073981 229.34093 
z
" style="fill:#cc0000;fill-opacity:0.1;stroke:#cc0000;stroke-dasharray:7.4,3.2;stroke-dashoffset:0;stroke-linejoin:miter;stroke-width:2;"/>
   </g>
   <g id="patch_71">
    <path clip-path="url(#p2c6f9ce92c)" d="M 373.893778 268.496708 
C 375.892225 268.496708 377.809089 267.702716 379.222205 266.289601 
C 380.63532 264.876486 381.429311 262.959621 381.429311 260.961175 
C 381.429311 258.962728 380.63532 257.045863 379.222205 255.632748 
C 377.809089 254.219633 375.892225 253.425642 373.893778 253.425642 
C 371.895332 253.425642 369.978467 254.219633 368.565352 255.632748 
C 367.152237 257.045863 366.358245 258.962728 366.358245 260.961175 
C 366.358245 262.959621 367.152237 264.876486 368.565352 266.289601 
C 369.978467 267.702716 371.895332 268.496708 373.893778 268.496708 
z
" style="fill:#cc0000;fill-opacity:0.1;stroke:#cc0000;stroke-dasharray:7.4,3.2;stroke-dashoffset:0;stroke-linejoin:miter;stroke-width:2;"/>
   </g>
   <g id="patch_72">
    <path clip-path="url(#p2c6f9ce92c)" d="M 441.713575 229.34093 
C 443.712022 229.34093 445.628886 228.546938 447.042002 227.133823 
C 448.455117 225.720708 449.249108 223.803843 449.249108 221.805397 
C 449.249108 219.80695 448.455117 217.890086 447.042002 216.47697 
C 445.628886 215.063855 443.712022 214.269864 441.713575 214.269864 
C 439.715128 214.269864 437.798264 215.063855 436.385149 216.47697 
C 434.972033 217.890086 434.178042 219.80695 434.178042 221.805397 
C 434.178042 223.803843 434.972033 225.720708 436.385149 227.133823 
C 437.798264 228.546938 439.715128 229.34093 441.713575 229.34093 
z
" style="fill:#cc0000;fill-opacity:0.1;stroke:#cc0000;stroke-dasharray:7.4,3.2;stroke-dashoffset:0;stroke-linejoin:miter;stroke-width:2;"/>
   </g>
   <g id="patch_73">
    <path clip-path="url(#p2c6f9ce92c)" d="M 509.533372 268.496708 
C 511.531819 268.496708 513.448683 267.702716 514.861798 266.289601 
C 516.274914 264.876486 517.068905 262.959621 517.068905 260.961175 
C 517.068905 258.962728 516.274914 257.045863 514.861798 255.632748 
C 513.448683 254.219633 511.531819 253.425642 509.533372 253.425642 
C 507.534925 253.425642 505.618061 254.219633 504.204945 255.632748 
C 502.79183 257.045863 501.997839 258.962728 501.997839 260.961175 
C 501.997839 262.959621 502.79183 264.876486 504.204945 266.289601 
C 505.618061 267.702716 507.534925 268.496708 509.533372 268.496708 
z
" style="fill:#cc0000;fill-opacity:0.1;stroke:#cc0000;stroke-dasharray:7.4,3.2;stroke-dashoffset:0;stroke-linejoin:miter;stroke-width:2;"/>
   </g>
   <g id="patch_74">
    <path clip-path="url(#p2c6f9ce92c)" d="M 577.353169 229.34093 
C 579.351615 229.34093 581.26848 228.546938 582.681595 227.133823 
C 584.09471 225.720708 584.888702 223.803843 584.888702 221.805397 
C 584.888702 219.80695 584.09471 217.890086 582.681595 216.47697 
C 581.26848 215.063855 579.351615 214.269864 577.353169 214.269864 
C 575.354722 214.269864 573.437858 215.063855 572.024742 216.47697 
C 570.611627 217.890086 569.817636 219.80695 569.817636 221.805397 
C 569.817636 223.803843 570.611627 225.720708 572.024742 227.133823 
C 573.437858 228.546938 575.354722 229.34093 577.353169 229.34093 
z
" style="fill:#cc0000;fill-opacity:0.1;stroke:#cc0000;stroke-dasharray:7.4,3.2;stroke-dashoffset:0;stroke-linejoin:miter;stroke-width:2;"/>
   </g>
   <g id="patch_75">
    <path clip-path="url(#p2c6f9ce92c)" d="M 102.614591 190.185152 
C 104.613038 190.185152 106.529902 189.391161 107.943017 187.978045 
C 109.356133 186.56493 110.150124 184.648066 110.150124 182.649619 
C 110.150124 180.651172 109.356133 178.734308 107.943017 177.321192 
C 106.529902 175.908077 104.613038 175.114086 102.614591 175.114086 
C 100.616144 175.114086 98.69928 175.908077 97.286164 177.321192 
C 95.873049 178.734308 95.079058 180.651172 95.079058 182.649619 
C 95.079058 184.648066 95.873049 186.56493 97.286164 187.978045 
C 98.69928 189.391161 100.616144 190.185152 102.614591 190.185152 
z
" style="fill:#cc0000;fill-opacity:0.1;stroke:#cc0000;stroke-dasharray:7.4,3.2;stroke-dashoffset:0;stroke-linejoin:miter;stroke-width:2;"/>
   </g>
   <g id="patch_76">
    <path clip-path="url(#p2c6f9ce92c)" d="M 170.434388 151.029374 
C 172.432834 151.029374 174.349699 150.235383 175.762814 148.822267 
C 177.175929 147.409152 177.969921 145.492288 177.969921 143.493841 
C 177.969921 141.495394 177.175929 139.57853 175.762814 138.165414 
C 174.349699 136.752299 172.432834 135.958308 170.434388 135.958308 
C 168.435941 135.958308 166.519076 136.752299 165.105961 138.165414 
C 163.692846 139.57853 162.898855 141.495394 162.898855 143.493841 
C 162.898855 145.492288 163.692846 147.409152 165.105961 148.822267 
C 166.519076 150.235383 168.435941 151.029374 170.434388 151.029374 
z
" style="fill:#cc0000;fill-opacity:0.1;stroke:#cc0000;stroke-dasharray:7.4,3.2;stroke-dashoffset:0;stroke-linejoin:miter;stroke-width:2;"/>
   </g>
   <g id="patch_77">
    <path clip-path="url(#p2c6f9ce92c)" d="M 238.254185 190.185152 
C 240.252631 190.185152 242.169496 189.391161 243.582611 187.978045 
C 244.995726 186.56493 245.789718 184.648066 245.789718 182.649619 
C 245.789718 180.651172 244.995726 178.734308 243.582611 177.321192 
C 242.169496 175.908077 240.252631 175.114086 238.254185 175.114086 
C 236.255738 175.114086 234.338873 175.908077 232.925758 177.321192 
C 231.512643 178.734308 230.718652 180.651172 230.718652 182.649619 
C 230.718652 184.648066 231.512643 186.56493 232.925758 187.978045 
C 234.338873 189.391161 236.255738 190.185152 238.254185 190.185152 
z
" style="fill:#cc0000;fill-opacity:0.1;stroke:#cc0000;stroke-dasharray:7.4,3.2;stroke-dashoffset:0;stroke-linejoin:miter;stroke-width:2;"/>
   </g>
   <g id="patch_78">
    <path clip-path="url(#p2c6f9ce92c)" d="M 306.073981 151.029374 
C 308.072428 151.029374 309.989293 150.235383 311.402408 148.822267 
C 312.815523 147.409152 313.609514 145.492288 313.609514 143.493841 
C 313.609514 141.495394 312.815523 139.57853 311.402408 138.165414 
C 309.989293 136.752299 308.072428 135.958308 306.073981 135.958308 
C 304.075535 135.958308 302.15867 136.752299 300.745555 138.165414 
C 299.33244 139.57853 298.538448 141.495394 298.538448 143.493841 
C 298.538448 145.492288 299.33244 147.409152 300.745555 148.822267 
C 302.15867 150.235383 304.075535 151.029374 306.073981 151.029374 
z
" style="fill:#cc0000;fill-opacity:0.1;stroke:#cc0000;stroke-dasharray:7.4,3.2;stroke-dashoffset:0;stroke-linejoin:miter;stroke-width:2;"/>
   </g>
   <g id="patch_79">
    <path clip-path="url(#p2c6f9ce92c)" d="M 373.893778 190.185152 
C 375.892225 190.185152 377.809089 189.391161 379.222205 187.978045 
C 380.63532 186.56493 381.429311 184.648066 381.429311 182.649619 
C 381.429311 180.651172 380.63532 178.734308 379.222205 177.321192 
C 377.809089 175.908077 375.892225 175.114086 373.893778 175.114086 
C 371.895332 175.114086 369.978467 175.908077 368.565352 177.321192 
C 367.152237 178.734308 366.358245 180.651172 366.358245 182.649619 
C 366.358245 184.648066 367.152237 186.56493 368.565352 187.978045 
C 369.978467 189.391161 371.895332 190.185152 373.893778 190.185152 
z
" style="fill:#cc0000;fill-opacity:0.1;stroke:#cc0000;stroke-dasharray:7.4,3.2;stroke-dashoffset:0;stroke-linejoin:miter;stroke-width:2;"/>
   </g>
   <g id="patch_80">
    <path clip-path="url(#p2c6f9ce92c)" d="M 441.713575 151.029374 
C 443.712022 151.029374 445.628886 150.235383 447.042002 148.822267 
C 448.455117 147.409152 449.249108 145.492288 449.249108 143.493841 
C 449.249108 141.495394 448.455117 139.57853 447.042002 138.165414 
C 445.628886 136.752299 443.712022 135.958308 441.713575 135.958308 
C 439.715128 135.958308 437.798264 136.752299 436.385149 138.165414 
C 434.972033 139.57853 434.178042 141.495394 434.178042 143.493841 
C 434.178042 145.492288 434.972033 147.409152 436.385149 148.822267 
C 437.798264 150.235383 439.715128 151.029374 441.713575 151.029374 
z
" style="fill:#cc0000;fill-opacity:0.1;stroke:#cc0000;stroke-dasharray:7.4,3.2;stroke-dashoffset:0;stroke-linejoin:miter;stroke-width:2;"/>
   </g>
   <g id="patch_81">
    <path clip-path="url(#p2c6f9ce92c)" d="M 509.533372 190.185152 
C 511.531819 190.185152 513.448683 189.391161 514.861798 187.978045 
C 516.274914 186.56493 517.068905 184.648066 517.068905 182.649619 
C 517.068905 180.651172 516.274914 178.734308 514.861798 177.321192 
C 513.448683 175.908077 511.531819 175.114086 509.533372 175.114086 
C 507.534925 175.114086 505.618061 175.908077 504.204945 177.321192 
C 502.79183 178.734308 501.997839 180.651172 501.997839 182.649619 
C 501.997839 184.648066 502.79183 186.56493 504.204945 187.978045 
C 505.618061 189.391161 507.534925 190.185152 509.533372 190.185152 
z
" style="fill:#cc0000;fill-opacity:0.1;stroke:#cc0000;stroke-dasharray:7.4,3.2;stroke-dashoffset:0;stroke-linejoin:miter;stroke-width:2;"/>
   </g>
   <g id="patch_82">
    <path clip-path="url(#p2c6f9ce92c)" d="M 577.353169 151.029374 
C 579.351615 151.029374 581.26848 150.235383 582.681595 148.822267 
C 584.09471 147.409152 584.888702 145.492288 584.888702 143.493841 
C 584.888702 141.495394 584.09471 139.57853 582.681595 138.165414 
C 581.26848 136.752299 579.351615 135.958308 577.353169 135.958308 
C 575.354722 135.958308 573.437858 136.752299 572.024742 138.165414 
C 570.611627 139.57853 569.817636 141.495394 569.817636 143.493841 
C 569.817636 145.492288 570.611627 147.409152 572.024742 148.822267 
C 573.437858 150.235383 575.354722 151.029374 577.353169 151.029374 
z
" style="fill:#cc0000;fill-opacity:0.1;stroke:#cc0000;stroke-dasharray:7.4,3.2;stroke-dashoffset:0;stroke-linejoin:miter;stroke-width:2;"/>
   </g>
   <g id="patch_83">
    <path clip-path="url(#p2c6f9ce92c)" d="M 102.614591 111.873596 
C 104.613038 111.873596 106.529902 111.079605 107.943017 109.666489 
C 109.356133 108.253374 110.150124 106.33651 110.150124 104.338063 
C 110.150124 102.339616 109.356133 100.422752 107.943017 99.009636 
C 106.529902 97.596521 104.613038 96.80253 102.614591 96.80253 
C 100.616144 96.80253 98.69928 97.596521 97.286164 99.009636 
C 95.873049 100.422752 95.079058 102.339616 95.079058 104.338063 
C 95.079058 106.33651 95.873049 108.253374 97.286164 109.666489 
C 98.69928 111.079605 100.616144 111.873596 102.614591 111.873596 
z
" style="fill:#cc0000;fill-opacity:0.1;stroke:#cc0000;stroke-dasharray:7.4,3.2;stroke-dashoffset:0;stroke-linejoin:miter;stroke-width:2;"/>
   </g>
   <g id="patch_84">
    <path clip-path="url(#p2c6f9ce92c)" d="M 170.434388 72.717818 
C 172.432834 72.717818 174.349699 71.923827 175.762814 70.510711 
C 177.175929 69.097596 177.969921 67.180732 177.969921 65.182285 
C 177.969921 63.183838 177.175929 61.266974 175.762814 59.853858 
C 174.349699 58.440743 172.432834 57.646752 170.434388 57.646752 
C 168.435941 57.646752 166.519076 58.440743 165.105961 59.853858 
C 163.692846 61.266974 162.898855 63.183838 162.898855 65.182285 
C 162.898855 67.180732 163.692846 69.097596 165.105961 70.510711 
C 166.519076 71.923827 168.435941 72.717818 170.434388 72.717818 
z
" style="fill:#cc0000;fill-opacity:0.1;stroke:#cc0000;stroke-dasharray:7.4,3.2;stroke-dashoffset:0;stroke-linejoin:miter;stroke-width:2;"/>
   </g>
   <g id="patch_85">
    <path clip-path="url(#p2c6f9ce92c)" d="M 238.254185 111.873596 
C 240.252631 111.873596 242.169496 111.079605 243.582611 109.666489 
C 244.995726 108.253374 245.789718 106.33651 245.789718 104.338063 
C 245.789718 102.339616 244.995726 100.422752 243.582611 99.009636 
C 242.169496 97.596521 240.252631 96.80253 238.254185 96.80253 
C 236.255738 96.80253 234.338873 97.596521 232.925758 99.009636 
C 231.512643 100.422752 230.718652 102.339616 230.718652 104.338063 
C 230.718652 106.33651 231.512643 108.253374 232.925758 109.666489 
C 234.338873 111.079605 236.255738 111.873596 238.254185 111.873596 
z
" style="fill:#cc0000;fill-opacity:0.1;stroke:#cc0000;stroke-dasharray:7.4,3.2;stroke-dashoffset:0;stroke-linejoin:miter;stroke-width:2;"/>
   </g>
   <g id="patch_86">
    <path clip-path="url(#p2c6f9ce92c)" d="M 306.073981 72.717818 
C 308.072428 72.717818 309.989293 71.923827 311.402408 70.510711 
C 312.815523 69.097596 313.609514 67.180732 313.609514 65.182285 
C 313.609514 63.183838 312.815523 61.266974 311.402408 59.853858 
C 309.989293 58.440743 308.072428 57.646752 306.073981 57.646752 
C 304.075535 57.646752 302.15867 58.440743 300.745555 59.853858 
C 299.33244 61.266974 298.538448 63.183838 298.538448 65.182285 
C 298.538448 67.180732 299.33244 69.097596 300.745555 70.510711 
C 302.15867 71.923827 304.075535 72.717818 306.073981 72.717818 
z
" style="fill:#cc0000;fill-opacity:0.1;stroke:#cc0000;stroke-dasharray:7.4,3.2;stroke-dashoffset:0;stroke-linejoin:miter;stroke-width:2;"/>
   </g>
   <g id="patch_87">
    <path clip-path="url(#p2c6f9ce92c)" d="M 373.893778 111.873596 
C 375.892225 111.873596 377.809089 111.079605 379.222205 109.666489 
C 380.63532 108.253374 381.429311 106.33651 381.429311 104.338063 
C 381.429311 102.339616 380.63532 100.422752 379.222205 99.009636 
C 377.809089 97.596521 375.892225 96.80253 373.893778 96.80253 
C 371.895332 96.80253 369.978467 97.596521 368.565352 99.009636 
C 367.152237 100.422752 366.358245 102.339616 366.358245 104.338063 
C 366.358245 106.33651 367.152237 108.253374 368.565352 109.666489 
C 369.978467 111.079605 371.895332 111.873596 373.893778 111.873596 
z
" style="fill:#cc0000;fill-opacity:0.1;stroke:#cc0000;stroke-dasharray:7.4,3.2;stroke-dashoffset:0;stroke-linejoin:miter;stroke-width:2;"/>
   </g>
   <g id="patch_88">
    <path clip-path="url(#p2c6f9ce92c)" d="M 441.713575 72.717818 
C 443.712022 72.717818 445.628886 71.923827 447.042002 70.510711 
C 448.455117 69.097596 449.249108 67.180732 449.249108 65.182285 
C 449.249108 63.183838 448.455117 61.266974 447.042002 59.853858 
C 445.628886 58.440743 443.712022 57.646752 441.713575 57.646752 
C 439.715128 57.646752 437.798264 58.440743 436.385149 59.853858 
C 434.972033 61.266974 434.178042 63.183838 434.178042 65.182285 
C 434.178042 67.180732 434.972033 69.097596 436.385149 70.510711 
C 437.798264 71.923827 439.715128 72.717818 441.713575 72.717818 
z
" style="fill:#cc0000;fill-opacity:0.1;stroke:#cc0000;stroke-dasharray:7.4,3.2;stroke-dashoffset:0;stroke-linejoin:miter;stroke-width:2;"/>
   </g>
   <g id="patch_89">
    <path clip-path="url(#p2c6f9ce92c)" d="M 509.533372 111.873596 
C 511.531819 111.873596 513.448683 111.079605 514.861798 109.666489 
C 516.274914 108.253374 517.068905 106.33651 517.068905 104.338063 
C 517.068905 102.339616 516.274914 100.422752 514.861798 99.009636 
C 513.448683 97.596521 511.531819 96.80253 509.533372 96.80253 
C 507.534925 96.80253 505.618061 97.596521 504.204945 99.009636 
C 502.79183 100.422752 501.997839 102.339616 501.997839 104.338063 
C 501.997839 106.33651 502.79183 108.253374 504.204945 109.666489 
C 505.618061 111.079605 507.534925 111.873596 509.533372 111.873596 
z
" style="fill:#cc0000;fill-opacity:0.1;stroke:#cc0000;stroke-dasharray:7.4,3.2;stroke-dashoffset:0;stroke-linejoin:miter;stroke-width:2;"/>
   </g>
   <g id="patch_90">
    <path clip-path="url(#p2c6f9ce92c)" d="M 577.353169 72.717818 
C 579.351615 72.717818 581.26848 71.923827 582.681595 70.510711 
C 584.09471 69.097596 584.888702 67.180732 584.888702 65.182285 
C 584.888702 63.183838 584.09471 61.266974 582.681595 59.853858 
C 581.26848 58.440743 579.351615 57.646752 577.353169 57.646752 
C 575.354722 57.646752 573.437858 58.440743 572.024742 59.853858 
C 570.611627 61.266974 569.817636 63.183838 569.817636 65.182285 
C 569.817636 67.180732 570.611627 69.097596 572.024742 70.510711 
C 573.437858 71.923827 575.354722 72.717818 577.353169 72.717818 
z
" style="fill:#cc0000;fill-opacity:0.1;stroke:#cc0000;stroke-dasharray:7.4,3.2;stroke-dashoffset:0;stroke-linejoin:miter;stroke-width:2;"/>
   </g>
   <g id="patch_91">
    <path clip-path="url(#p2c6f9ce92c)" d="M 102.614591 33.56204 
C 104.613038 33.56204 106.529902 32.768049 107.943017 31.354933 
C 109.356133 29.941818 110.150124 28.024954 110.150124 26.026507 
C 110.150124 24.02806 109.356133 22.111196 107.943017 20.69808 
C 106.529902 19.284965 104.613038 18.490974 102.614591 18.490974 
C 100.616144 18.490974 98.69928 19.284965 97.286164 20.69808 
C 95.873049 22.111196 95.079058 24.02806 95.079058 26.026507 
C 95.079058 28.024954 95.873049 29.941818 97.286164 31.354933 
C 98.69928 32.768049 100.616144 33.56204 102.614591 33.56204 
z
" style="fill:#cc0000;fill-opacity:0.1;stroke:#cc0000;stroke-dasharray:7.4,3.2;stroke-dashoffset:0;stroke-linejoin:miter;stroke-width:2;"/>
   </g>
   <g id="patch_92">
    <path clip-path="url(#p2c6f9ce92c)" d="M 170.434388 -5.593738 
C 172.432834 -5.593738 174.349699 -6.387729 175.762814 -7.800845 
C 177.175929 -9.21396 177.969921 -11.130824 177.969921 -13.129271 
C 177.969921 -15.127718 177.175929 -17.044582 175.762814 -18.457697 
C 174.349699 -19.870813 172.432834 -20.664804 170.434388 -20.664804 
C 168.435941 -20.664804 166.519076 -19.870813 165.105961 -18.457697 
C 163.692846 -17.044582 162.898855 -15.127718 162.898855 -13.129271 
C 162.898855 -11.130824 163.692846 -9.21396 165.105961 -7.800845 
C 166.519076 -6.387729 168.435941 -5.593738 170.434388 -5.593738 
z
" style="fill:#cc0000;fill-opacity:0.1;stroke:#cc0000;stroke-dasharray:7.4,3.2;stroke-dashoffset:0;stroke-linejoin:miter;stroke-width:2;"/>
   </g>
   <g id="patch_93">
    <path clip-path="url(#p2c6f9ce92c)" d="M 238.254185 33.56204 
C 240.252631 33.56204 242.169496 32.768049 243.582611 31.354933 
C 244.995726 29.941818 245.789718 28.024954 245.789718 26.026507 
C 245.789718 24.02806 244.995726 22.111196 243.582611 20.69808 
C 242.169496 19.284965 240.252631 18.490974 238.254185 18.490974 
C 236.255738 18.490974 234.338873 19.284965 232.925758 20.69808 
C 231.512643 22.111196 230.718652 24.02806 230.718652 26.026507 
C 230.718652 28.024954 231.512643 29.941818 232.925758 31.354933 
C 234.338873 32.768049 236.255738 33.56204 238.254185 33.56204 
z
" style="fill:#cc0000;fill-opacity:0.1;stroke:#cc0000;stroke-dasharray:7.4,3.2;stroke-dashoffset:0;stroke-linejoin:miter;stroke-width:2;"/>
   </g>
   <g id="patch_94">
    <path clip-path="url(#p2c6f9ce92c)" d="M 306.073981 -5.593738 
C 308.072428 -5.593738 309.989293 -6.387729 311.402408 -7.800845 
C 312.815523 -9.21396 313.609514 -11.130824 313.609514 -13.129271 
C 313.609514 -15.127718 312.815523 -17.044582 311.402408 -18.457697 
C 309.989293 -19.870813 308.072428 -20.664804 306.073981 -20.664804 
C 304.075535 -20.664804 302.15867 -19.870813 300.745555 -18.457697 
C 299.33244 -17.044582 298.538448 -15.127718 298.538448 -13.129271 
C 298.538448 -11.130824 299.33244 -9.21396 300.745555 -7.800845 
C 302.15867 -6.387729 304.075535 -5.593738 306.073981 -5.593738 
z
" style="fill:#cc0000;fill-opacity:0.1;stroke:#cc0000;stroke-dasharray:7.4,3.2;stroke-dashoffset:0;stroke-linejoin:miter;stroke-width:2;"/>
   </g>
   <g id="patch_95">
    <path clip-path="url(#p2c6f9ce92c)" d="M 373.893778 33.56204 
C 375.892225 33.56204 377.809089 32.768049 379.222205 31.354933 
C 380.63532 29.941818 381.429311 28.024954 381.429311 26.026507 
C 381.429311 24.02806 380.63532 22.111196 379.222205 20.69808 
C 377.809089 19.284965 375.892225 18.490974 373.893778 18.490974 
C 371.895332 18.490974 369.978467 19.284965 368.565352 20.69808 
C 367.152237 22.111196 366.358245 24.02806 366.358245 26.026507 
C 366.358245 28.024954 367.152237 29.941818 368.565352 31.354933 
C 369.978467 32.768049 371.895332 33.56204 373.893778 33.56204 
z
" style="fill:#cc0000;fill-opacity:0.1;stroke:#cc0000;stroke-dasharray:7.4,3.2;stroke-dashoffset:0;stroke-linejoin:miter;stroke-width:2;"/>
   </g>
   <g id="patch_96">
    <path clip-path="url(#p2c6f9ce92c)" d="M 441.713575 -5.593738 
C 443.712022 -5.593738 445.628886 -6.387729 447.042002 -7.800845 
C 448.455117 -9.21396 449.249108 -11.130824 449.249108 -13.129271 
C 449.249108 -15.127718 448.455117 -17.044582 447.042002 -18.457697 
C 445.628886 -19.870813 443.712022 -20.664804 441.713575 -20.664804 
C 439.715128 -20.664804 437.798264 -19.870813 436.385149 -18.457697 
C 434.972033 -17.044582 434.178042 -15.127718 434.178042 -13.129271 
C 434.178042 -11.130824 434.972033 -9.21396 436.385149 -7.800845 
C 437.798264 -6.387729 439.715128 -5.593738 441.713575 -5.593738 
z
" style="fill:#cc0000;fill-opacity:0.1;stroke:#cc0000;stroke-dasharray:7.4,3.2;stroke-dashoffset:0;stroke-linejoin:miter;stroke-width:2;"/>
   </g>
   <g id="patch_97">
    <path clip-path="url(#p2c6f9ce92c)" d="M 509.533372 33.56204 
C 511.531819 33.56204 513.448683 32.768049 514.861798 31.354933 
C 516.274914 29.941818 517.068905 28.024954 517.068905 26.026507 
C 517.068905 24.02806 516.274914 22.111196 514.861798 20.69808 
C 513.448683 19.284965 511.531819 18.490974 509.533372 18.490974 
C 507.534925 18.490974 505.618061 19.284965 504.204945 20.69808 
C 502.79183 22.111196 501.997839 24.02806 501.997839 26.026507 
C 501.997839 28.024954 502.79183 29.941818 504.204945 31.354933 
C 505.618061 32.768049 507.534925 33.56204 509.533372 33.56204 
z
" style="fill:#cc0000;fill-opacity:0.1;stroke:#cc0000;stroke-dasharray:7.4,3.2;stroke-dashoffset:0;stroke-linejoin:miter;stroke-width:2;"/>
   </g>
   <g id="patch_98">
    <path clip-path="url(#p2c6f9ce92c)" d="M 577.353169 -5.593738 
C 579.351615 -5.593738 581.26848 -6.387729 582.681595 -7.800845 
C 584.09471 -9.21396 584.888702 -11.130824 584.888702 -13.129271 
C 584.888702 -15.127718 584.09471 -17.044582 582.681595 -18.457697 
C 581.26848 -19.870813 579.351615 -20.664804 577.353169 -20.664804 
C 575.354722 -20.664804 573.437858 -19.870813 572.024742 -18.457697 
C 570.611627 -17.044582 569.817636 -15.127718 569.817636 -13.129271 
C 569.817636 -11.130824 570.611627 -9.21396 572.024742 -7.800845 
C 573.437858 -6.387729 575.354722 -5.593738 577.353169 -5.593738 
z
" style="fill:#cc0000;fill-opacity:0.1;stroke:#cc0000;stroke-dasharray:7.4,3.2;stroke-dashoffset:0;stroke-linejoin:miter;stroke-width:2;"/>
   </g>
   <g id="matplotlib.axis_1">
    <g id="xtick_1">
     <g id="line2d_1">
      <defs>
       <path d="M 0 0 
L 0 3.5 
" id="m0ba22369ac" style="stroke:#000000;stroke-width:0.8;"/>
      </defs>
      <g>
       <use style="stroke:#000000;stroke-width:0.8;" x="108.341596" xlink:href="#m0ba22369ac" y="307.584"/>
      </g>
     </g>
     <g id="text_1">
      <!-- 4 -->
      <defs>
       <path d="M 10.59375 35.5 
L 73.1875 35.5 
L 73.1875 27.203125 
L 10.59375 27.203125 
z
" id="DejaVuSans-2212"/>
       <path d="M 37.796875 64.3125 
L 12.890625 25.390625 
L 37.796875 25.390625 
z
M 35.203125 72.90625 
L 47.609375 72.90625 
L 47.609375 25.390625 
L 58.015625 25.390625 
L 58.015625 17.1875 
L 47.609375 17.1875 
L 47.609375 0 
L 37.796875 0 
L 37.796875 17.1875 
L 4.890625 17.1875 
L 4.890625 26.703125 
z
" id="DejaVuSans-34"/>
      </defs>
      <g transform="translate(100.970502 322.182437)scale(0.1 -0.1)">
       <use xlink:href="#DejaVuSans-2212"/>
       <use x="83.789062" xlink:href="#DejaVuSans-34"/>
      </g>
     </g>
    </g>
    <g id="xtick_2">
     <g id="line2d_2">
      <g>
       <use style="stroke:#000000;stroke-width:0.8;" x="168.62586" xlink:href="#m0ba22369ac" y="307.584"/>
      </g>
     </g>
     <g id="text_2">
      <!-- 2 -->
      <defs>
       <path d="M 19.1875 8.296875 
L 53.609375 8.296875 
L 53.609375 0 
L 7.328125 0 
L 7.328125 8.296875 
Q 12.9375 14.109375 22.625 23.890625 
Q 32.328125 33.6875 34.8125 36.53125 
Q 39.546875 41.84375 41.421875 45.53125 
Q 43.3125 49.21875 43.3125 52.78125 
Q 43.3125 58.59375 39.234375 62.25 
Q 35.15625 65.921875 28.609375 65.921875 
Q 23.96875 65.921875 18.8125 64.3125 
Q 13.671875 62.703125 7.8125 59.421875 
L 7.8125 69.390625 
Q 13.765625 71.78125 18.9375 73 
Q 24.125 74.21875 28.421875 74.21875 
Q 39.75 74.21875 46.484375 68.546875 
Q 53.21875 62.890625 53.21875 53.421875 
Q 53.21875 48.921875 51.53125 44.890625 
Q 49.859375 40.875 45.40625 35.40625 
Q 44.1875 33.984375 37.640625 27.21875 
Q 31.109375 20.453125 19.1875 8.296875 
z
" id="DejaVuSans-32"/>
      </defs>
      <g transform="translate(161.254766 322.182437)scale(0.1 -0.1)">
       <use xlink:href="#DejaVuSans-2212"/>
       <use x="83.789062" xlink:href="#DejaVuSans-32"/>
      </g>
     </g>
    </g>
    <g id="xtick_3">
     <g id="line2d_3">
      <g>
       <use style="stroke:#000000;stroke-width:0.8;" x="228.910124" xlink:href="#m0ba22369ac" y="307.584"/>
      </g>
     </g>
     <g id="text_3">
      <!-- 0 -->
      <defs>
       <path d="M 31.78125 66.40625 
Q 24.171875 66.40625 20.328125 58.90625 
Q 16.5 51.421875 16.5 36.375 
Q 16.5 21.390625 20.328125 13.890625 
Q 24.171875 6.390625 31.78125 6.390625 
Q 39.453125 6.390625 43.28125 13.890625 
Q 47.125 21.390625 47.125 36.375 
Q 47.125 51.421875 43.28125 58.90625 
Q 39.453125 66.40625 31.78125 66.40625 
z
M 31.78125 74.21875 
Q 44.046875 74.21875 50.515625 64.515625 
Q 56.984375 54.828125 56.984375 36.375 
Q 56.984375 17.96875 50.515625 8.265625 
Q 44.046875 -1.421875 31.78125 -1.421875 
Q 19.53125 -1.421875 13.0625 8.265625 
Q 6.59375 17.96875 6.59375 36.375 
Q 6.59375 54.828125 13.0625 64.515625 
Q 19.53125 74.21875 31.78125 74.21875 
z
" id="DejaVuSans-30"/>
      </defs>
      <g transform="translate(225.728874 322.182437)scale(0.1 -0.1)">
       <use xlink:href="#DejaVuSans-30"/>
      </g>
     </g>
    </g>
    <g id="xtick_4">
     <g id="line2d_4">
      <g>
       <use style="stroke:#000000;stroke-width:0.8;" x="289.194387" xlink:href="#m0ba22369ac" y="307.584"/>
      </g>
     </g>
     <g id="text_4">
      <!-- 2 -->
      <g transform="translate(286.013137 322.182437)scale(0.1 -0.1)">
       <use xlink:href="#DejaVuSans-32"/>
      </g>
     </g>
    </g>
    <g id="xtick_5">
     <g id="line2d_5">
      <g>
       <use style="stroke:#000000;stroke-width:0.8;" x="349.478651" xlink:href="#m0ba22369ac" y="307.584"/>
      </g>
     </g>
     <g id="text_5">
      <!-- 4 -->
      <g transform="translate(346.297401 322.182437)scale(0.1 -0.1)">
       <use xlink:href="#DejaVuSans-34"/>
      </g>
     </g>
    </g>
    <g id="xtick_6">
     <g id="line2d_6">
      <g>
       <use style="stroke:#000000;stroke-width:0.8;" x="409.762915" xlink:href="#m0ba22369ac" y="307.584"/>
      </g>
     </g>
     <g id="text_6">
      <!-- 6 -->
      <defs>
       <path d="M 33.015625 40.375 
Q 26.375 40.375 22.484375 35.828125 
Q 18.609375 31.296875 18.609375 23.390625 
Q 18.609375 15.53125 22.484375 10.953125 
Q 26.375 6.390625 33.015625 6.390625 
Q 39.65625 6.390625 43.53125 10.953125 
Q 47.40625 15.53125 47.40625 23.390625 
Q 47.40625 31.296875 43.53125 35.828125 
Q 39.65625 40.375 33.015625 40.375 
z
M 52.59375 71.296875 
L 52.59375 62.3125 
Q 48.875 64.0625 45.09375 64.984375 
Q 41.3125 65.921875 37.59375 65.921875 
Q 27.828125 65.921875 22.671875 59.328125 
Q 17.53125 52.734375 16.796875 39.40625 
Q 19.671875 43.65625 24.015625 45.921875 
Q 28.375 48.1875 33.59375 48.1875 
Q 44.578125 48.1875 50.953125 41.515625 
Q 57.328125 34.859375 57.328125 23.390625 
Q 57.328125 12.15625 50.6875 5.359375 
Q 44.046875 -1.421875 33.015625 -1.421875 
Q 20.359375 -1.421875 13.671875 8.265625 
Q 6.984375 17.96875 6.984375 36.375 
Q 6.984375 53.65625 15.1875 63.9375 
Q 23.390625 74.21875 37.203125 74.21875 
Q 40.921875 74.21875 44.703125 73.484375 
Q 48.484375 72.75 52.59375 71.296875 
z
" id="DejaVuSans-36"/>
      </defs>
      <g transform="translate(406.581665 322.182437)scale(0.1 -0.1)">
       <use xlink:href="#DejaVuSans-36"/>
      </g>
     </g>
    </g>
   </g>
   <g id="matplotlib.axis_2">
    <g id="ytick_1">
     <g id="line2d_7">
      <defs>
       <path d="M 0 0 
L -3.5 0 
" id="m47286c2af7" style="stroke:#000000;stroke-width:0.8;"/>
      </defs>
      <g>
       <use style="stroke:#000000;stroke-width:0.8;" x="59.750752" xlink:href="#m47286c2af7" y="300.26192"/>
      </g>
     </g>
     <g id="text_7">
      <!-- 6 -->
      <g transform="translate(38.008565 304.061139)scale(0.1 -0.1)">
       <use xlink:href="#DejaVuSans-2212"/>
       <use x="83.789062" xlink:href="#DejaVuSans-36"/>
      </g>
     </g>
    </g>
    <g id="ytick_2">
     <g id="line2d_8">
      <g>
       <use style="stroke:#000000;stroke-width:0.8;" x="59.750752" xlink:href="#m47286c2af7" y="270.119789"/>
      </g>
     </g>
     <g id="text_8">
      <!-- 5 -->
      <defs>
       <path d="M 10.796875 72.90625 
L 49.515625 72.90625 
L 49.515625 64.59375 
L 19.828125 64.59375 
L 19.828125 46.734375 
Q 21.96875 47.46875 24.109375 47.828125 
Q 26.265625 48.1875 28.421875 48.1875 
Q 40.625 48.1875 47.75 41.5 
Q 54.890625 34.8125 54.890625 23.390625 
Q 54.890625 11.625 47.5625 5.09375 
Q 40.234375 -1.421875 26.90625 -1.421875 
Q 22.3125 -1.421875 17.546875 -0.640625 
Q 12.796875 0.140625 7.71875 1.703125 
L 7.71875 11.625 
Q 12.109375 9.234375 16.796875 8.0625 
Q 21.484375 6.890625 26.703125 6.890625 
Q 35.15625 6.890625 40.078125 11.328125 
Q 45.015625 15.765625 45.015625 23.390625 
Q 45.015625 31 40.078125 35.4375 
Q 35.15625 39.890625 26.703125 39.890625 
Q 22.75 39.890625 18.8125 39.015625 
Q 14.890625 38.140625 10.796875 36.28125 
z
" id="DejaVuSans-35"/>
      </defs>
      <g transform="translate(38.008565 273.919007)scale(0.1 -0.1)">
       <use xlink:href="#DejaVuSans-2212"/>
       <use x="83.789062" xlink:href="#DejaVuSans-35"/>
      </g>
     </g>
    </g>
    <g id="ytick_3">
     <g id="line2d_9">
      <g>
       <use style="stroke:#000000;stroke-width:0.8;" x="59.750752" xlink:href="#m47286c2af7" y="239.977657"/>
      </g>
     </g>
     <g id="text_9">
      <!-- 4 -->
      <g transform="translate(38.008565 243.776875)scale(0.1 -0.1)">
       <use xlink:href="#DejaVuSans-2212"/>
       <use x="83.789062" xlink:href="#DejaVuSans-34"/>
      </g>
     </g>
    </g>
    <g id="ytick_4">
     <g id="line2d_10">
      <g>
       <use style="stroke:#000000;stroke-width:0.8;" x="59.750752" xlink:href="#m47286c2af7" y="209.835525"/>
      </g>
     </g>
     <g id="text_10">
      <!-- 3 -->
      <defs>
       <path d="M 40.578125 39.3125 
Q 47.65625 37.796875 51.625 33 
Q 55.609375 28.21875 55.609375 21.1875 
Q 55.609375 10.40625 48.1875 4.484375 
Q 40.765625 -1.421875 27.09375 -1.421875 
Q 22.515625 -1.421875 17.65625 -0.515625 
Q 12.796875 0.390625 7.625 2.203125 
L 7.625 11.71875 
Q 11.71875 9.328125 16.59375 8.109375 
Q 21.484375 6.890625 26.8125 6.890625 
Q 36.078125 6.890625 40.9375 10.546875 
Q 45.796875 14.203125 45.796875 21.1875 
Q 45.796875 27.640625 41.28125 31.265625 
Q 36.765625 34.90625 28.71875 34.90625 
L 20.21875 34.90625 
L 20.21875 43.015625 
L 29.109375 43.015625 
Q 36.375 43.015625 40.234375 45.921875 
Q 44.09375 48.828125 44.09375 54.296875 
Q 44.09375 59.90625 40.109375 62.90625 
Q 36.140625 65.921875 28.71875 65.921875 
Q 24.65625 65.921875 20.015625 65.03125 
Q 15.375 64.15625 9.8125 62.3125 
L 9.8125 71.09375 
Q 15.4375 72.65625 20.34375 73.4375 
Q 25.25 74.21875 29.59375 74.21875 
Q 40.828125 74.21875 47.359375 69.109375 
Q 53.90625 64.015625 53.90625 55.328125 
Q 53.90625 49.265625 50.4375 45.09375 
Q 46.96875 40.921875 40.578125 39.3125 
z
" id="DejaVuSans-33"/>
      </defs>
      <g transform="translate(38.008565 213.634743)scale(0.1 -0.1)">
       <use xlink:href="#DejaVuSans-2212"/>
       <use x="83.789062" xlink:href="#DejaVuSans-33"/>
      </g>
     </g>
    </g>
    <g id="ytick_5">
     <g id="line2d_11">
      <g>
       <use style="stroke:#000000;stroke-width:0.8;" x="59.750752" xlink:href="#m47286c2af7" y="179.693393"/>
      </g>
     </g>
     <g id="text_11">
      <!-- 2 -->
      <g transform="translate(38.008565 183.492611)scale(0.1 -0.1)">
       <use xlink:href="#DejaVuSans-2212"/>
       <use x="83.789062" xlink:href="#DejaVuSans-32"/>
      </g>
     </g>
    </g>
    <g id="ytick_6">
     <g id="line2d_12">
      <g>
       <use style="stroke:#000000;stroke-width:0.8;" x="59.750752" xlink:href="#m47286c2af7" y="149.551261"/>
      </g>
     </g>
     <g id="text_12">
      <!-- 1 -->
      <defs>
       <path d="M 12.40625 8.296875 
L 28.515625 8.296875 
L 28.515625 63.921875 
L 10.984375 60.40625 
L 10.984375 69.390625 
L 28.421875 72.90625 
L 38.28125 72.90625 
L 38.28125 8.296875 
L 54.390625 8.296875 
L 54.390625 0 
L 12.40625 0 
z
" id="DejaVuSans-31"/>
      </defs>
      <g transform="translate(38.008565 153.35048)scale(0.1 -0.1)">
       <use xlink:href="#DejaVuSans-2212"/>
       <use x="83.789062" xlink:href="#DejaVuSans-31"/>
      </g>
     </g>
    </g>
    <g id="ytick_7">
     <g id="line2d_13">
      <g>
       <use style="stroke:#000000;stroke-width:0.8;" x="59.750752" xlink:href="#m47286c2af7" y="119.409129"/>
      </g>
     </g>
     <g id="text_13">
      <!-- 0 -->
      <g transform="translate(46.388252 123.208348)scale(0.1 -0.1)">
       <use xlink:href="#DejaVuSans-30"/>
      </g>
     </g>
    </g>
    <g id="ytick_8">
     <g id="line2d_14">
      <g>
       <use style="stroke:#000000;stroke-width:0.8;" x="59.750752" xlink:href="#m47286c2af7" y="89.266997"/>
      </g>
     </g>
     <g id="text_14">
      <!-- 1 -->
      <g transform="translate(46.388252 93.066216)scale(0.1 -0.1)">
       <use xlink:href="#DejaVuSans-31"/>
      </g>
     </g>
    </g>
    <g id="ytick_9">
     <g id="line2d_15">
      <g>
       <use style="stroke:#000000;stroke-width:0.8;" x="59.750752" xlink:href="#m47286c2af7" y="59.124865"/>
      </g>
     </g>
     <g id="text_15">
      <!-- 2 -->
      <g transform="translate(46.388252 62.924084)scale(0.1 -0.1)">
       <use xlink:href="#DejaVuSans-32"/>
      </g>
     </g>
    </g>
   </g>
   <g id="line2d_16">
    <path clip-path="url(#p2c6f9ce92c)" d="M 203.31989 143.839907 
L 198.433471 146.826135 
L 193.66403 149.995846 
L 189.018452 153.344464 
L 185.325708 156.204856 
L 190.82546 154.608809 
L 196.260606 152.804973 
L 201.6233 150.795953 
L 206.905797 148.584651 
L 212.100472 146.174258 
L 217.199824 143.568255 
L 222.196491 140.770405 
L 227.083257 137.784747 
L 231.853068 134.615591 
L 236.499037 131.267515 
L 241.014455 127.745351 
L 244.673363 124.680465 
L 248.141997 129.237132 
L 251.781239 133.658734 
L 255.585834 137.938885 
L 259.550289 142.071407 
L 263.66888 146.050332 
L 267.935661 149.869917 
L 272.344471 153.524645 
L 276.888944 157.00924 
L 281.562519 160.318671 
L 286.358448 163.44816 
L 291.269807 166.393189 
L 296.289505 169.149504 
L 301.410294 171.713127 
L 306.62478 174.080357 
L 311.925435 176.247774 
L 317.304605 178.212251 
L 322.754524 179.970949 
L 328.267323 181.521332 
L 333.835043 182.861159 
L 339.449645 183.988496 
L 345.103022 184.901716 
L 350.787011 185.5995 
L 356.493407 186.080841 
L 362.21397 186.345044 
L 367.35605 186.396933 
L 365.96204 188.789018 
L 364.691045 183.205183 
L 363.208834 177.673665 
L 361.517545 172.202451 
L 359.619621 166.79944 
L 357.517803 161.472434 
L 355.215124 156.229122 
L 352.714909 151.077077 
L 350.020769 146.023737 
L 347.136593 141.076397 
L 344.066546 136.242201 
L 340.81506 131.528129 
L 337.386829 126.940987 
L 333.786804 122.487397 
L 330.020182 118.173791 
L 326.092401 114.006396 
L 322.009133 109.991229 
L 317.776274 106.134088 
L 313.399934 102.440541 
L 308.886432 98.915922 
L 304.242285 95.565318 
L 299.474199 92.393569 
L 294.589058 89.405253 
L 292.745403 88.409042 
L 287.280886 86.696237 
L 281.755244 85.19227 
L 276.176454 83.899312 
L 270.55257 82.819231 
L 264.891713 81.953586 
L 259.202057 81.303627 
L 253.491815 80.870291 
L 247.769233 80.654206 
L 242.042572 80.655682 
L 236.320102 80.874718 
L 230.610085 81.310997 
L 224.920764 81.96389 
L 219.260354 82.832454 
L 213.637028 83.915434 
L 208.058905 85.211268 
L 202.534039 86.718084 
L 197.070407 88.433706 
L 191.675896 90.355658 
L 186.358297 92.481164 
L 181.125286 94.807157 
L 175.98442 97.330276 
L 170.94312 100.04688 
L 166.008666 102.953046 
L 161.188182 106.044579 
L 156.488627 109.317014 
L 151.916788 112.765626 
L 147.479265 116.385437 
L 143.182466 120.17122 
L 139.032593 124.117509 
L 135.035639 128.218607 
L 131.197375 132.468591 
L 127.523343 136.861327 
L 124.018846 141.390471 
L 120.688945 146.049484 
L 117.538448 150.831639 
L 114.571904 155.730032 
L 111.793596 160.737591 
L 109.207534 165.847084 
L 106.817454 171.051136 
L 104.96395 175.489677 
L 105.188974 174.61386 
L 106.491684 169.037339 
L 107.581597 163.415353 
L 108.457139 157.756018 
L 109.117046 152.067507 
L 109.560365 146.358031 
L 109.786456 140.635836 
L 109.794992 134.909182 
L 109.585962 129.186337 
L 109.278761 124.809139 
L 109.536192 126.59924 
L 110.492788 132.24544 
L 111.663196 137.851221 
L 113.045728 143.40849 
L 114.638388 148.909225 
L 116.438875 154.345481 
L 118.44459 159.709411 
L 120.652638 164.99327 
L 123.05983 170.189429 
L 125.662691 175.290385 
L 128.457463 180.288774 
L 131.44011 185.177379 
L 134.606326 189.949142 
L 137.951539 194.597172 
L 141.470921 199.114759 
L 145.159388 203.495381 
L 149.011617 207.732712 
L 153.022044 211.820635 
L 157.18488 215.753247 
L 161.494114 219.524871 
L 162.972559 220.75403 
L 157.758315 223.121792 
L 152.637788 225.685938 
L 147.618372 228.442767 
L 142.707314 231.388297 
L 137.911704 234.518276 
L 133.238467 237.828184 
L 128.69435 241.313244 
L 124.285913 244.968422 
L 120.019523 248.788442 
L 115.901338 252.767788 
L 111.937305 256.900715 
L 109.923269 259.126107 
L 115.333131 261.004414 
L 120.810446 262.67584 
L 126.347305 264.137972 
L 131.935715 265.388698 
L 137.567607 266.426212 
L 143.234849 267.249017 
L 148.929259 267.855925 
L 154.642615 268.246059 
L 160.366667 268.418856 
L 166.093153 268.374067 
L 171.813803 268.111756 
L 177.520357 267.632302 
L 183.204577 266.936397 
L 188.858256 266.025047 
L 194.47323 264.899566 
L 200.041392 263.56158 
L 205.554704 262.01302 
L 211.005204 260.256123 
L 216.385023 258.293426 
L 221.686395 256.127761 
L 226.901663 253.762256 
L 232.023299 251.200326 
L 237.043908 248.44567 
L 241.956241 245.502266 
L 246.753205 242.374363 
L 251.427874 239.066477 
L 255.973499 235.583385 
L 260.383517 231.930115 
L 264.65156 228.111942 
L 268.771467 224.134378 
L 272.737288 220.003167 
L 276.543298 215.724274 
L 280.184002 211.303876 
L 283.654142 206.748356 
L 286.94871 202.064291 
L 290.062947 197.258444 
L 292.992358 192.337754 
L 295.732713 187.309325 
L 298.280056 182.180418 
L 300.630707 176.958438 
L 302.781275 171.650924 
L 304.728653 166.265541 
L 306.470029 160.810062 
L 308.002891 155.292365 
L 309.185227 150.357106 
L 309.185227 150.357106 
" style="fill:none;stroke:#1f77b4;stroke-linecap:square;stroke-width:1.5;"/>
   </g>
   <g id="patch_99">
    <path d="M 59.750752 307.584 
L 59.750752 41.472 
" style="fill:none;stroke:#000000;stroke-linecap:square;stroke-linejoin:miter;stroke-width:0.8;"/>
   </g>
   <g id="patch_100">
    <path d="M 412.569248 307.584 
L 412.569248 41.472 
" style="fill:none;stroke:#000000;stroke-linecap:square;stroke-linejoin:miter;stroke-width:0.8;"/>
   </g>
   <g id="patch_101">
    <path d="M 59.750752 307.584 
L 412.569248 307.584 
" style="fill:none;stroke:#000000;stroke-linecap:square;stroke-linejoin:miter;stroke-width:0.8;"/>
   </g>
   <g id="patch_102">
    <path d="M 59.750752 41.472 
L 412.569248 41.472 
" style="fill:none;stroke:#000000;stroke-linecap:square;stroke-linejoin:miter;stroke-width:0.8;"/>
   </g>
  </g>
 </g>
 <defs>
  <clipPath id="p2c6f9ce92c">
   <rect height="266.112" width="352.818495" x="59.750752" y="41.472"/>
  </clipPath>
 </defs>
</svg>
