<?xml version="1.0" encoding="utf-8" standalone="no"?>
<!DOCTYPE svg PUBLIC "-//W3C//DTD SVG 1.1//EN"
  "http://www.w3.org/Graphics/SVG/1.1/DTD/svg11.dtd">
<!-- Created with matplotlib (http://matplotlib.org/) -->
<svg height="345.6pt" version="1.1" viewBox="0 0 460.8 345.6" width="460.8pt" xmlns="http://www.w3.org/2000/svg" xmlns:xlink="http://www.w3.org/1999/xlink">
 <defs>
  <style type="text/css">
*{stroke-linecap:butt;stroke-linejoin:round;}
  </style>
 </defs>
 <g id="figure_1">
  <g id="patch_1">
   <path d="M 0 345.6 
L 460.8 345.6 
L 460.8 0 
L 0 0 
z
" style="fill:#ffffff;"/>
  </g>
  <g id="axes_1">
   <g id="patch_2">
    <path d="M 57.6 201.219248 
L 414.72 201.219248 
L 414.72 147.836752 
L 57.6 147.836752 
z
" style="fill:#ffffff;"/>
   </g>
   <g id="PathCollection_1">
    <defs>
     <path d="M 0 3 
C 0.795609 3 1.55874 2.683901 2.12132 2.12132 
C 2.683901 1.55874 3 0.795609 3 0 
C 3 -0.795609 2.683901 -1.55874 2.12132 -2.12132 
C 1.55874 -2.683901 0.795609 -3 0 -3 
C -0.795609 -3 -1.55874 -2.683901 -2.12132 -2.12132 
C -2.683901 -1.55874 -3 -0.795609 -3 0 
C -3 0.795609 -2.683901 1.55874 -2.12132 2.12132 
C -1.55874 2.683901 -0.795609 3 0 3 
z
" id="m5f8c5d9a44" style="stroke:#000000;"/>
    </defs>
    <g clip-path="url(#p7336092905)">
     <use style="stroke:#000000;" x="302.717727" xlink:href="#m5f8c5d9a44" y="161.692766"/>
    </g>
   </g>
   <g id="PathCollection_2">
    <defs>
     <path d="M 0 3 
C 0.795609 3 1.55874 2.683901 2.12132 2.12132 
C 2.683901 1.55874 3 0.795609 3 0 
C 3 -0.795609 2.683901 -1.55874 2.12132 -2.12132 
C 1.55874 -2.683901 0.795609 -3 0 -3 
C -0.795609 -3 -1.55874 -2.683901 -2.12132 -2.12132 
C -2.683901 -1.55874 -3 -0.795609 -3 0 
C -3 0.795609 -2.683901 1.55874 -2.12132 2.12132 
C -1.55874 2.683901 -0.795609 3 0 3 
z
" id="mb127a039d4" style="stroke:#1f77b4;"/>
    </defs>
    <g clip-path="url(#p7336092905)">
     <use style="fill:#1f77b4;stroke:#1f77b4;" x="302.717727" xlink:href="#mb127a039d4" y="161.692766"/>
    </g>
   </g>
   <g id="PathCollection_3">
    <g clip-path="url(#p7336092905)">
     <use style="stroke:#000000;" x="208.191847" xlink:href="#m5f8c5d9a44" y="147.836752"/>
    </g>
   </g>
   <g id="patch_3">
    <path clip-path="url(#p7336092905)" d="M 99.228935 187.873624 
C 102.768236 187.873624 106.163052 186.467445 108.665716 183.964781 
C 111.16838 181.462118 112.574559 178.067301 112.574559 174.528 
C 112.574559 170.988699 111.16838 167.593882 108.665716 165.091219 
C 106.163052 162.588555 102.768236 161.182376 99.228935 161.182376 
C 95.689634 161.182376 92.294817 162.588555 89.792153 165.091219 
C 87.28949 167.593882 85.883311 170.988699 85.883311 174.528 
C 85.883311 178.067301 87.28949 181.462118 89.792153 183.964781 
C 92.294817 186.467445 95.689634 187.873624 99.228935 187.873624 
z
" style="fill:#009900;fill-opacity:0.5;stroke:#009900;stroke-linejoin:miter;stroke-width:2;"/>
   </g>
   <g id="patch_4">
    <path clip-path="url(#p7336092905)" d="M 152.611431 181.200812 
C 154.381082 181.200812 156.07849 180.497723 157.329822 179.246391 
C 158.581154 177.995059 159.284243 176.29765 159.284243 174.528 
C 159.284243 172.75835 158.581154 171.060941 157.329822 169.809609 
C 156.07849 168.558277 154.381082 167.855188 152.611431 167.855188 
C 150.841781 167.855188 149.144373 168.558277 147.893041 169.809609 
C 146.641709 171.060941 145.938619 172.75835 145.938619 174.528 
C 145.938619 176.29765 146.641709 177.995059 147.893041 179.246391 
C 149.144373 180.497723 150.841781 181.200812 152.611431 181.200812 
z
" style="fill:#009900;fill-opacity:0.5;stroke:#009900;stroke-linejoin:miter;stroke-width:2;"/>
   </g>
   <g id="patch_5">
    <path clip-path="url(#p7336092905)" d="M 205.993928 187.873624 
C 209.533229 187.873624 212.928046 186.467445 215.430709 183.964781 
C 217.933373 181.462118 219.339552 178.067301 219.339552 174.528 
C 219.339552 170.988699 217.933373 167.593882 215.430709 165.091219 
C 212.928046 162.588555 209.533229 161.182376 205.993928 161.182376 
C 202.454627 161.182376 199.05981 162.588555 196.557147 165.091219 
C 194.054483 167.593882 192.648304 170.988699 192.648304 174.528 
C 192.648304 178.067301 194.054483 181.462118 196.557147 183.964781 
C 199.05981 186.467445 202.454627 187.873624 205.993928 187.873624 
z
" style="fill:#009900;fill-opacity:0.5;stroke:#009900;stroke-linejoin:miter;stroke-width:2;"/>
   </g>
   <g id="patch_6">
    <path clip-path="url(#p7336092905)" d="M 259.376425 181.200812 
C 261.146075 181.200812 262.843484 180.497723 264.094815 179.246391 
C 265.346147 177.995059 266.049237 176.29765 266.049237 174.528 
C 266.049237 172.75835 265.346147 171.060941 264.094815 169.809609 
C 262.843484 168.558277 261.146075 167.855188 259.376425 167.855188 
C 257.606774 167.855188 255.909366 168.558277 254.658034 169.809609 
C 253.406702 171.060941 252.703613 172.75835 252.703613 174.528 
C 252.703613 176.29765 253.406702 177.995059 254.658034 179.246391 
C 255.909366 180.497723 257.606774 181.200812 259.376425 181.200812 
z
" style="fill:#009900;fill-opacity:0.5;stroke:#009900;stroke-linejoin:miter;stroke-width:2;"/>
   </g>
   <g id="patch_7">
    <path clip-path="url(#p7336092905)" d="M 312.758921 187.873624 
C 316.298222 187.873624 319.693039 186.467445 322.195703 183.964781 
C 324.698366 181.462118 326.104546 178.067301 326.104546 174.528 
C 326.104546 170.988699 324.698366 167.593882 322.195703 165.091219 
C 319.693039 162.588555 316.298222 161.182376 312.758921 161.182376 
C 309.21962 161.182376 305.824804 162.588555 303.32214 165.091219 
C 300.819476 167.593882 299.413297 170.988699 299.413297 174.528 
C 299.413297 178.067301 300.819476 181.462118 303.32214 183.964781 
C 305.824804 186.467445 309.21962 187.873624 312.758921 187.873624 
z
" style="fill:#009900;fill-opacity:0.5;stroke:#009900;stroke-linejoin:miter;stroke-width:2;"/>
   </g>
   <g id="patch_8">
    <path clip-path="url(#p7336092905)" d="M 366.141418 181.200812 
C 367.911068 181.200812 369.608477 180.497723 370.859809 179.246391 
C 372.111141 177.995059 372.81423 176.29765 372.81423 174.528 
C 372.81423 172.75835 372.111141 171.060941 370.859809 169.809609 
C 369.608477 168.558277 367.911068 167.855188 366.141418 167.855188 
C 364.371768 167.855188 362.674359 168.558277 361.423027 169.809609 
C 360.171696 171.060941 359.468606 172.75835 359.468606 174.528 
C 359.468606 176.29765 360.171696 177.995059 361.423027 179.246391 
C 362.674359 180.497723 364.371768 181.200812 366.141418 181.200812 
z
" style="fill:#009900;fill-opacity:0.5;stroke:#009900;stroke-linejoin:miter;stroke-width:2;"/>
   </g>
   <g id="patch_9">
    <path clip-path="url(#p7336092905)" d="M 312.758921 187.873624 
C 316.298222 187.873624 319.693039 186.467445 322.195703 183.964781 
C 324.698366 181.462118 326.104546 178.067301 326.104546 174.528 
C 326.104546 170.988699 324.698366 167.593882 322.195703 165.091219 
C 319.693039 162.588555 316.298222 161.182376 312.758921 161.182376 
C 309.21962 161.182376 305.824804 162.588555 303.32214 165.091219 
C 300.819476 167.593882 299.413297 170.988699 299.413297 174.528 
C 299.413297 178.067301 300.819476 181.462118 303.32214 183.964781 
C 305.824804 186.467445 309.21962 187.873624 312.758921 187.873624 
z
" style="fill:#ffff00;stroke:#000000;stroke-linejoin:miter;stroke-width:2;"/>
   </g>
   <g id="matplotlib.axis_1">
    <g id="xtick_1">
     <g id="line2d_1">
      <defs>
       <path d="M 0 0 
L 0 3.5 
" id="m56e90ca3c2" style="stroke:#000000;stroke-width:0.8;"/>
      </defs>
      <g>
       <use style="stroke:#000000;stroke-width:0.8;" x="72.537686" xlink:href="#m56e90ca3c2" y="201.219248"/>
      </g>
     </g>
     <g id="text_1">
      <!-- −4 -->
      <defs>
       <path d="M 10.59375 35.5 
L 73.1875 35.5 
L 73.1875 27.203125 
L 10.59375 27.203125 
z
" id="DejaVuSans-2212"/>
       <path d="M 37.796875 64.3125 
L 12.890625 25.390625 
L 37.796875 25.390625 
z
M 35.203125 72.90625 
L 47.609375 72.90625 
L 47.609375 25.390625 
L 58.015625 25.390625 
L 58.015625 17.1875 
L 47.609375 17.1875 
L 47.609375 0 
L 37.796875 0 
L 37.796875 17.1875 
L 4.890625 17.1875 
L 4.890625 26.703125 
z
" id="DejaVuSans-34"/>
      </defs>
      <g transform="translate(65.166593 215.817686)scale(0.1 -0.1)">
       <use xlink:href="#DejaVuSans-2212"/>
       <use x="83.789062" xlink:href="#DejaVuSans-34"/>
      </g>
     </g>
    </g>
    <g id="xtick_2">
     <g id="line2d_2">
      <g>
       <use style="stroke:#000000;stroke-width:0.8;" x="125.920183" xlink:href="#m56e90ca3c2" y="201.219248"/>
      </g>
     </g>
     <g id="text_2">
      <!-- −3 -->
      <defs>
       <path d="M 40.578125 39.3125 
Q 47.65625 37.796875 51.625 33 
Q 55.609375 28.21875 55.609375 21.1875 
Q 55.609375 10.40625 48.1875 4.484375 
Q 40.765625 -1.421875 27.09375 -1.421875 
Q 22.515625 -1.421875 17.65625 -0.515625 
Q 12.796875 0.390625 7.625 2.203125 
L 7.625 11.71875 
Q 11.71875 9.328125 16.59375 8.109375 
Q 21.484375 6.890625 26.8125 6.890625 
Q 36.078125 6.890625 40.9375 10.546875 
Q 45.796875 14.203125 45.796875 21.1875 
Q 45.796875 27.640625 41.28125 31.265625 
Q 36.765625 34.90625 28.71875 34.90625 
L 20.21875 34.90625 
L 20.21875 43.015625 
L 29.109375 43.015625 
Q 36.375 43.015625 40.234375 45.921875 
Q 44.09375 48.828125 44.09375 54.296875 
Q 44.09375 59.90625 40.109375 62.90625 
Q 36.140625 65.921875 28.71875 65.921875 
Q 24.65625 65.921875 20.015625 65.03125 
Q 15.375 64.15625 9.8125 62.3125 
L 9.8125 71.09375 
Q 15.4375 72.65625 20.34375 73.4375 
Q 25.25 74.21875 29.59375 74.21875 
Q 40.828125 74.21875 47.359375 69.109375 
Q 53.90625 64.015625 53.90625 55.328125 
Q 53.90625 49.265625 50.4375 45.09375 
Q 46.96875 40.921875 40.578125 39.3125 
z
" id="DejaVuSans-33"/>
      </defs>
      <g transform="translate(118.549089 215.817686)scale(0.1 -0.1)">
       <use xlink:href="#DejaVuSans-2212"/>
       <use x="83.789062" xlink:href="#DejaVuSans-33"/>
      </g>
     </g>
    </g>
    <g id="xtick_3">
     <g id="line2d_3">
      <g>
       <use style="stroke:#000000;stroke-width:0.8;" x="179.30268" xlink:href="#m56e90ca3c2" y="201.219248"/>
      </g>
     </g>
     <g id="text_3">
      <!-- −2 -->
      <defs>
       <path d="M 19.1875 8.296875 
L 53.609375 8.296875 
L 53.609375 0 
L 7.328125 0 
L 7.328125 8.296875 
Q 12.9375 14.109375 22.625 23.890625 
Q 32.328125 33.6875 34.8125 36.53125 
Q 39.546875 41.84375 41.421875 45.53125 
Q 43.3125 49.21875 43.3125 52.78125 
Q 43.3125 58.59375 39.234375 62.25 
Q 35.15625 65.921875 28.609375 65.921875 
Q 23.96875 65.921875 18.8125 64.3125 
Q 13.671875 62.703125 7.8125 59.421875 
L 7.8125 69.390625 
Q 13.765625 71.78125 18.9375 73 
Q 24.125 74.21875 28.421875 74.21875 
Q 39.75 74.21875 46.484375 68.546875 
Q 53.21875 62.890625 53.21875 53.421875 
Q 53.21875 48.921875 51.53125 44.890625 
Q 49.859375 40.875 45.40625 35.40625 
Q 44.1875 33.984375 37.640625 27.21875 
Q 31.109375 20.453125 19.1875 8.296875 
z
" id="DejaVuSans-32"/>
      </defs>
      <g transform="translate(171.931586 215.817686)scale(0.1 -0.1)">
       <use xlink:href="#DejaVuSans-2212"/>
       <use x="83.789062" xlink:href="#DejaVuSans-32"/>
      </g>
     </g>
    </g>
    <g id="xtick_4">
     <g id="line2d_4">
      <g>
       <use style="stroke:#000000;stroke-width:0.8;" x="232.685176" xlink:href="#m56e90ca3c2" y="201.219248"/>
      </g>
     </g>
     <g id="text_4">
      <!-- −1 -->
      <defs>
       <path d="M 12.40625 8.296875 
L 28.515625 8.296875 
L 28.515625 63.921875 
L 10.984375 60.40625 
L 10.984375 69.390625 
L 28.421875 72.90625 
L 38.28125 72.90625 
L 38.28125 8.296875 
L 54.390625 8.296875 
L 54.390625 0 
L 12.40625 0 
z
" id="DejaVuSans-31"/>
      </defs>
      <g transform="translate(225.314083 215.817686)scale(0.1 -0.1)">
       <use xlink:href="#DejaVuSans-2212"/>
       <use x="83.789062" xlink:href="#DejaVuSans-31"/>
      </g>
     </g>
    </g>
    <g id="xtick_5">
     <g id="line2d_5">
      <g>
       <use style="stroke:#000000;stroke-width:0.8;" x="286.067673" xlink:href="#m56e90ca3c2" y="201.219248"/>
      </g>
     </g>
     <g id="text_5">
      <!-- 0 -->
      <defs>
       <path d="M 31.78125 66.40625 
Q 24.171875 66.40625 20.328125 58.90625 
Q 16.5 51.421875 16.5 36.375 
Q 16.5 21.390625 20.328125 13.890625 
Q 24.171875 6.390625 31.78125 6.390625 
Q 39.453125 6.390625 43.28125 13.890625 
Q 47.125 21.390625 47.125 36.375 
Q 47.125 51.421875 43.28125 58.90625 
Q 39.453125 66.40625 31.78125 66.40625 
z
M 31.78125 74.21875 
Q 44.046875 74.21875 50.515625 64.515625 
Q 56.984375 54.828125 56.984375 36.375 
Q 56.984375 17.96875 50.515625 8.265625 
Q 44.046875 -1.421875 31.78125 -1.421875 
Q 19.53125 -1.421875 13.0625 8.265625 
Q 6.59375 17.96875 6.59375 36.375 
Q 6.59375 54.828125 13.0625 64.515625 
Q 19.53125 74.21875 31.78125 74.21875 
z
" id="DejaVuSans-30"/>
      </defs>
      <g transform="translate(282.886423 215.817686)scale(0.1 -0.1)">
       <use xlink:href="#DejaVuSans-30"/>
      </g>
     </g>
    </g>
    <g id="xtick_6">
     <g id="line2d_6">
      <g>
       <use style="stroke:#000000;stroke-width:0.8;" x="339.45017" xlink:href="#m56e90ca3c2" y="201.219248"/>
      </g>
     </g>
     <g id="text_6">
      <!-- 1 -->
      <g transform="translate(336.26892 215.817686)scale(0.1 -0.1)">
       <use xlink:href="#DejaVuSans-31"/>
      </g>
     </g>
    </g>
    <g id="xtick_7">
     <g id="line2d_7">
      <g>
       <use style="stroke:#000000;stroke-width:0.8;" x="392.832666" xlink:href="#m56e90ca3c2" y="201.219248"/>
      </g>
     </g>
     <g id="text_7">
      <!-- 2 -->
      <g transform="translate(389.651416 215.817686)scale(0.1 -0.1)">
       <use xlink:href="#DejaVuSans-32"/>
      </g>
     </g>
    </g>
   </g>
   <g id="matplotlib.axis_2">
    <g id="ytick_1">
     <g id="line2d_8">
      <defs>
       <path d="M 0 0 
L -3.5 0 
" id="m5dacb6c99b" style="stroke:#000000;stroke-width:0.8;"/>
      </defs>
      <g>
       <use style="stroke:#000000;stroke-width:0.8;" x="57.6" xlink:href="#m5dacb6c99b" y="201.219248"/>
      </g>
     </g>
     <g id="text_8">
      <!-- 0.0 -->
      <defs>
       <path d="M 10.6875 12.40625 
L 21 12.40625 
L 21 0 
L 10.6875 0 
z
" id="DejaVuSans-2e"/>
      </defs>
      <g transform="translate(34.696875 205.018467)scale(0.1 -0.1)">
       <use xlink:href="#DejaVuSans-30"/>
       <use x="63.623047" xlink:href="#DejaVuSans-2e"/>
       <use x="95.410156" xlink:href="#DejaVuSans-30"/>
      </g>
     </g>
    </g>
    <g id="ytick_2">
     <g id="line2d_9">
      <g>
       <use style="stroke:#000000;stroke-width:0.8;" x="57.6" xlink:href="#m5dacb6c99b" y="174.528"/>
      </g>
     </g>
     <g id="text_9">
      <!-- 0.5 -->
      <defs>
       <path d="M 10.796875 72.90625 
L 49.515625 72.90625 
L 49.515625 64.59375 
L 19.828125 64.59375 
L 19.828125 46.734375 
Q 21.96875 47.46875 24.109375 47.828125 
Q 26.265625 48.1875 28.421875 48.1875 
Q 40.625 48.1875 47.75 41.5 
Q 54.890625 34.8125 54.890625 23.390625 
Q 54.890625 11.625 47.5625 5.09375 
Q 40.234375 -1.421875 26.90625 -1.421875 
Q 22.3125 -1.421875 17.546875 -0.640625 
Q 12.796875 0.140625 7.71875 1.703125 
L 7.71875 11.625 
Q 12.109375 9.234375 16.796875 8.0625 
Q 21.484375 6.890625 26.703125 6.890625 
Q 35.15625 6.890625 40.078125 11.328125 
Q 45.015625 15.765625 45.015625 23.390625 
Q 45.015625 31 40.078125 35.4375 
Q 35.15625 39.890625 26.703125 39.890625 
Q 22.75 39.890625 18.8125 39.015625 
Q 14.890625 38.140625 10.796875 36.28125 
z
" id="DejaVuSans-35"/>
      </defs>
      <g transform="translate(34.696875 178.327219)scale(0.1 -0.1)">
       <use xlink:href="#DejaVuSans-30"/>
       <use x="63.623047" xlink:href="#DejaVuSans-2e"/>
       <use x="95.410156" xlink:href="#DejaVuSans-35"/>
      </g>
     </g>
    </g>
    <g id="ytick_3">
     <g id="line2d_10">
      <g>
       <use style="stroke:#000000;stroke-width:0.8;" x="57.6" xlink:href="#m5dacb6c99b" y="147.836752"/>
      </g>
     </g>
     <g id="text_10">
      <!-- 1.0 -->
      <g transform="translate(34.696875 151.63597)scale(0.1 -0.1)">
       <use xlink:href="#DejaVuSans-31"/>
       <use x="63.623047" xlink:href="#DejaVuSans-2e"/>
       <use x="95.410156" xlink:href="#DejaVuSans-30"/>
      </g>
     </g>
    </g>
   </g>
   <g id="line2d_11">
    <path clip-path="url(#p7336092905)" d="M 72.537686 147.836752 
L 179.30268 147.836752 
" style="fill:none;stroke:#009900;stroke-linecap:square;stroke-width:2;"/>
   </g>
   <g id="line2d_12">
    <path clip-path="url(#p7336092905)" d="M 72.537686 201.219248 
L 179.30268 201.219248 
" style="fill:none;stroke:#009900;stroke-linecap:square;stroke-width:2;"/>
   </g>
   <g id="line2d_13">
    <path clip-path="url(#p7336092905)" d="M 179.30268 147.836752 
L 286.067673 147.836752 
" style="fill:none;stroke:#009900;stroke-linecap:square;stroke-width:2;"/>
   </g>
   <g id="line2d_14">
    <path clip-path="url(#p7336092905)" d="M 179.30268 201.219248 
L 286.067673 201.219248 
" style="fill:none;stroke:#009900;stroke-linecap:square;stroke-width:2;"/>
   </g>
   <g id="line2d_15">
    <path clip-path="url(#p7336092905)" d="M 286.067673 147.836752 
L 392.832666 147.836752 
" style="fill:none;stroke:#009900;stroke-linecap:square;stroke-width:2;"/>
   </g>
   <g id="line2d_16">
    <path clip-path="url(#p7336092905)" d="M 286.067673 201.219248 
L 392.832666 201.219248 
" style="fill:none;stroke:#009900;stroke-linecap:square;stroke-width:2;"/>
   </g>
   <g id="line2d_17">
    <path clip-path="url(#p7336092905)" d="M 302.717727 161.692766 
L 311.813477 147.836752 
L 346.856301 201.219248 
L 361.337503 179.159305 
L 324.893086 201.219248 
L 236.701838 147.836752 
L 212.159817 162.69213 
L 211.178629 147.836752 
L 210.251108 161.879596 
L 219.519589 147.836752 
L 254.752809 201.219248 
L 289.986029 147.836752 
L 302.208484 166.355218 
L 248.27692 147.836752 
L 208.639164 161.447157 
L 193.425055 147.836752 
L 133.752534 201.219248 
L 110.982497 180.849379 
L 188.464898 201.219248 
L 299.657413 171.9871 
L 267.23467 147.836752 
L 195.566678 201.219248 
L 159.275559 174.187508 
L 188.001487 147.836752 
L 202.936869 161.537218 
L 208.191847 147.836752 
" style="fill:none;stroke:#1f77b4;stroke-linecap:square;stroke-width:1.5;"/>
   </g>
   <g id="line2d_18">
    <path clip-path="url(#p7336092905)" d="M 286.067673 201.219248 
L 339.45017 201.219248 
" style="fill:none;stroke:#009900;stroke-linecap:square;stroke-width:2;"/>
   </g>
   <g id="line2d_19">
    <path clip-path="url(#p7336092905)" d="M 339.45017 147.836752 
L 286.067673 147.836752 
" style="fill:none;stroke:#0000ff;stroke-dasharray:5,8.25;stroke-dashoffset:0;stroke-width:5;"/>
   </g>
   <g id="patch_10">
    <path d="M 57.6 201.219248 
L 57.6 147.836752 
" style="fill:none;stroke:#000000;stroke-linecap:square;stroke-linejoin:miter;stroke-width:0.8;"/>
   </g>
   <g id="patch_11">
    <path d="M 414.72 201.219248 
L 414.72 147.836752 
" style="fill:none;stroke:#000000;stroke-linecap:square;stroke-linejoin:miter;stroke-width:0.8;"/>
   </g>
   <g id="patch_12">
    <path d="M 57.6 201.219248 
L 414.72 201.219248 
" style="fill:none;stroke:#000000;stroke-linecap:square;stroke-linejoin:miter;stroke-width:0.8;"/>
   </g>
   <g id="patch_13">
    <path d="M 57.6 147.836752 
L 414.72 147.836752 
" style="fill:none;stroke:#000000;stroke-linecap:square;stroke-linejoin:miter;stroke-width:0.8;"/>
   </g>
  </g>
 </g>
 <defs>
  <clipPath id="p7336092905">
   <rect height="53.382497" width="357.12" x="57.6" y="147.836752"/>
  </clipPath>
 </defs>
</svg>
