<?xml version="1.0" encoding="utf-8" standalone="no"?>
<!DOCTYPE svg PUBLIC "-//W3C//DTD SVG 1.1//EN"
  "http://www.w3.org/Graphics/SVG/1.1/DTD/svg11.dtd">
<!-- Created with matplotlib (http://matplotlib.org/) -->
<svg height="345.6pt" version="1.1" viewBox="0 0 460.8 345.6" width="460.8pt" xmlns="http://www.w3.org/2000/svg" xmlns:xlink="http://www.w3.org/1999/xlink">
 <defs>
  <style type="text/css">
*{stroke-linecap:butt;stroke-linejoin:round;}
  </style>
 </defs>
 <g id="figure_1">
  <g id="patch_1">
   <path d="M 0 345.6 
L 460.8 345.6 
L 460.8 0 
L 0 0 
z
" style="fill:#ffffff;"/>
  </g>
  <g id="axes_1">
   <g id="patch_2">
    <path d="M 57.6 263.808 
L 414.72 263.808 
L 414.72 85.248 
L 57.6 85.248 
z
" style="fill:#ffffff;"/>
   </g>
   <g id="PathCollection_1">
    <defs>
     <path d="M 0 3 
C 0.795609 3 1.55874 2.683901 2.12132 2.12132 
C 2.683901 1.55874 3 0.795609 3 0 
C 3 -0.795609 2.683901 -1.55874 2.12132 -2.12132 
C 1.55874 -2.683901 0.795609 -3 0 -3 
C -0.795609 -3 -1.55874 -2.683901 -2.12132 -2.12132 
C -2.683901 -1.55874 -3 -0.795609 -3 0 
C -3 0.795609 -2.683901 1.55874 -2.12132 2.12132 
C -1.55874 2.683901 -0.795609 3 0 3 
z
" id="m68d4fc5f8b" style="stroke:#000000;"/>
    </defs>
    <g clip-path="url(#pd4a2237466)">
     <use style="stroke:#000000;" x="223.836034" xlink:href="#m68d4fc5f8b" y="220.62621"/>
    </g>
   </g>
   <g id="patch_3">
    <path clip-path="url(#pd4a2237466)" d="M 161.76 211.728 
C 171.625555 211.728 181.088371 207.808373 188.064372 200.832372 
C 195.040373 193.856371 198.96 184.393555 198.96 174.528 
C 198.96 164.662445 195.040373 155.199629 188.064372 148.223628 
C 181.088371 141.247627 171.625555 137.328 161.76 137.328 
C 151.894445 137.328 142.431629 141.247627 135.455628 148.223628 
C 128.479627 155.199629 124.56 164.662445 124.56 174.528 
C 124.56 184.393555 128.479627 193.856371 135.455628 200.832372 
C 142.431629 207.808373 151.894445 211.728 161.76 211.728 
z
" style="fill:#cc0000;fill-opacity:0.1;stroke:#cc0000;stroke-dasharray:7.4,3.2;stroke-dashoffset:0;stroke-linejoin:miter;stroke-width:2;"/>
   </g>
   <g id="patch_4">
    <path clip-path="url(#pd4a2237466)" d="M 310.56 196.848 
C 316.479333 196.848 322.157023 194.496224 326.342623 190.310623 
C 330.528224 186.125023 332.88 180.447333 332.88 174.528 
C 332.88 168.608667 330.528224 162.930977 326.342623 158.745377 
C 322.157023 154.559776 316.479333 152.208 310.56 152.208 
C 304.640667 152.208 298.962977 154.559776 294.777377 158.745377 
C 290.591776 162.930977 288.24 168.608667 288.24 174.528 
C 288.24 180.447333 290.591776 186.125023 294.777377 190.310623 
C 298.962977 194.496224 304.640667 196.848 310.56 196.848 
z
" style="fill:#cc0000;fill-opacity:0.1;stroke:#cc0000;stroke-dasharray:7.4,3.2;stroke-dashoffset:0;stroke-linejoin:miter;stroke-width:2;"/>
   </g>
   <g id="matplotlib.axis_1">
    <g id="xtick_1">
     <g id="line2d_1">
      <defs>
       <path d="M 0 0 
L 0 3.5 
" id="m4d15fa4328" style="stroke:#000000;stroke-width:0.8;"/>
      </defs>
      <g>
       <use style="stroke:#000000;stroke-width:0.8;" x="87.36" xlink:href="#m4d15fa4328" y="263.808"/>
      </g>
     </g>
     <g id="text_1">
      <!-- 0.0 -->
      <defs>
       <path d="M 31.78125 66.40625 
Q 24.171875 66.40625 20.328125 58.90625 
Q 16.5 51.421875 16.5 36.375 
Q 16.5 21.390625 20.328125 13.890625 
Q 24.171875 6.390625 31.78125 6.390625 
Q 39.453125 6.390625 43.28125 13.890625 
Q 47.125 21.390625 47.125 36.375 
Q 47.125 51.421875 43.28125 58.90625 
Q 39.453125 66.40625 31.78125 66.40625 
z
M 31.78125 74.21875 
Q 44.046875 74.21875 50.515625 64.515625 
Q 56.984375 54.828125 56.984375 36.375 
Q 56.984375 17.96875 50.515625 8.265625 
Q 44.046875 -1.421875 31.78125 -1.421875 
Q 19.53125 -1.421875 13.0625 8.265625 
Q 6.59375 17.96875 6.59375 36.375 
Q 6.59375 54.828125 13.0625 64.515625 
Q 19.53125 74.21875 31.78125 74.21875 
z
" id="DejaVuSans-30"/>
       <path d="M 10.6875 12.40625 
L 21 12.40625 
L 21 0 
L 10.6875 0 
z
" id="DejaVuSans-2e"/>
      </defs>
      <g transform="translate(79.408438 278.406437)scale(0.1 -0.1)">
       <use xlink:href="#DejaVuSans-30"/>
       <use x="63.623047" xlink:href="#DejaVuSans-2e"/>
       <use x="95.410156" xlink:href="#DejaVuSans-30"/>
      </g>
     </g>
    </g>
    <g id="xtick_2">
     <g id="line2d_2">
      <g>
       <use style="stroke:#000000;stroke-width:0.8;" x="161.76" xlink:href="#m4d15fa4328" y="263.808"/>
      </g>
     </g>
     <g id="text_2">
      <!-- 0.5 -->
      <defs>
       <path d="M 10.796875 72.90625 
L 49.515625 72.90625 
L 49.515625 64.59375 
L 19.828125 64.59375 
L 19.828125 46.734375 
Q 21.96875 47.46875 24.109375 47.828125 
Q 26.265625 48.1875 28.421875 48.1875 
Q 40.625 48.1875 47.75 41.5 
Q 54.890625 34.8125 54.890625 23.390625 
Q 54.890625 11.625 47.5625 5.09375 
Q 40.234375 -1.421875 26.90625 -1.421875 
Q 22.3125 -1.421875 17.546875 -0.640625 
Q 12.796875 0.140625 7.71875 1.703125 
L 7.71875 11.625 
Q 12.109375 9.234375 16.796875 8.0625 
Q 21.484375 6.890625 26.703125 6.890625 
Q 35.15625 6.890625 40.078125 11.328125 
Q 45.015625 15.765625 45.015625 23.390625 
Q 45.015625 31 40.078125 35.4375 
Q 35.15625 39.890625 26.703125 39.890625 
Q 22.75 39.890625 18.8125 39.015625 
Q 14.890625 38.140625 10.796875 36.28125 
z
" id="DejaVuSans-35"/>
      </defs>
      <g transform="translate(153.808437 278.406437)scale(0.1 -0.1)">
       <use xlink:href="#DejaVuSans-30"/>
       <use x="63.623047" xlink:href="#DejaVuSans-2e"/>
       <use x="95.410156" xlink:href="#DejaVuSans-35"/>
      </g>
     </g>
    </g>
    <g id="xtick_3">
     <g id="line2d_3">
      <g>
       <use style="stroke:#000000;stroke-width:0.8;" x="236.16" xlink:href="#m4d15fa4328" y="263.808"/>
      </g>
     </g>
     <g id="text_3">
      <!-- 1.0 -->
      <defs>
       <path d="M 12.40625 8.296875 
L 28.515625 8.296875 
L 28.515625 63.921875 
L 10.984375 60.40625 
L 10.984375 69.390625 
L 28.421875 72.90625 
L 38.28125 72.90625 
L 38.28125 8.296875 
L 54.390625 8.296875 
L 54.390625 0 
L 12.40625 0 
z
" id="DejaVuSans-31"/>
      </defs>
      <g transform="translate(228.208437 278.406437)scale(0.1 -0.1)">
       <use xlink:href="#DejaVuSans-31"/>
       <use x="63.623047" xlink:href="#DejaVuSans-2e"/>
       <use x="95.410156" xlink:href="#DejaVuSans-30"/>
      </g>
     </g>
    </g>
    <g id="xtick_4">
     <g id="line2d_4">
      <g>
       <use style="stroke:#000000;stroke-width:0.8;" x="310.56" xlink:href="#m4d15fa4328" y="263.808"/>
      </g>
     </g>
     <g id="text_4">
      <!-- 1.5 -->
      <g transform="translate(302.608437 278.406437)scale(0.1 -0.1)">
       <use xlink:href="#DejaVuSans-31"/>
       <use x="63.623047" xlink:href="#DejaVuSans-2e"/>
       <use x="95.410156" xlink:href="#DejaVuSans-35"/>
      </g>
     </g>
    </g>
    <g id="xtick_5">
     <g id="line2d_5">
      <g>
       <use style="stroke:#000000;stroke-width:0.8;" x="384.96" xlink:href="#m4d15fa4328" y="263.808"/>
      </g>
     </g>
     <g id="text_5">
      <!-- 2.0 -->
      <defs>
       <path d="M 19.1875 8.296875 
L 53.609375 8.296875 
L 53.609375 0 
L 7.328125 0 
L 7.328125 8.296875 
Q 12.9375 14.109375 22.625 23.890625 
Q 32.328125 33.6875 34.8125 36.53125 
Q 39.546875 41.84375 41.421875 45.53125 
Q 43.3125 49.21875 43.3125 52.78125 
Q 43.3125 58.59375 39.234375 62.25 
Q 35.15625 65.921875 28.609375 65.921875 
Q 23.96875 65.921875 18.8125 64.3125 
Q 13.671875 62.703125 7.8125 59.421875 
L 7.8125 69.390625 
Q 13.765625 71.78125 18.9375 73 
Q 24.125 74.21875 28.421875 74.21875 
Q 39.75 74.21875 46.484375 68.546875 
Q 53.21875 62.890625 53.21875 53.421875 
Q 53.21875 48.921875 51.53125 44.890625 
Q 49.859375 40.875 45.40625 35.40625 
Q 44.1875 33.984375 37.640625 27.21875 
Q 31.109375 20.453125 19.1875 8.296875 
z
" id="DejaVuSans-32"/>
      </defs>
      <g transform="translate(377.008437 278.406437)scale(0.1 -0.1)">
       <use xlink:href="#DejaVuSans-32"/>
       <use x="63.623047" xlink:href="#DejaVuSans-2e"/>
       <use x="95.410156" xlink:href="#DejaVuSans-30"/>
      </g>
     </g>
    </g>
   </g>
   <g id="matplotlib.axis_2">
    <g id="ytick_1">
     <g id="line2d_6">
      <defs>
       <path d="M 0 0 
L -3.5 0 
" id="m03e6d6fee2" style="stroke:#000000;stroke-width:0.8;"/>
      </defs>
      <g>
       <use style="stroke:#000000;stroke-width:0.8;" x="57.6" xlink:href="#m03e6d6fee2" y="248.928"/>
      </g>
     </g>
     <g id="text_6">
      <!-- 0.0 -->
      <g transform="translate(34.696875 252.727219)scale(0.1 -0.1)">
       <use xlink:href="#DejaVuSans-30"/>
       <use x="63.623047" xlink:href="#DejaVuSans-2e"/>
       <use x="95.410156" xlink:href="#DejaVuSans-30"/>
      </g>
     </g>
    </g>
    <g id="ytick_2">
     <g id="line2d_7">
      <g>
       <use style="stroke:#000000;stroke-width:0.8;" x="57.6" xlink:href="#m03e6d6fee2" y="219.168"/>
      </g>
     </g>
     <g id="text_7">
      <!-- 0.2 -->
      <g transform="translate(34.696875 222.967219)scale(0.1 -0.1)">
       <use xlink:href="#DejaVuSans-30"/>
       <use x="63.623047" xlink:href="#DejaVuSans-2e"/>
       <use x="95.410156" xlink:href="#DejaVuSans-32"/>
      </g>
     </g>
    </g>
    <g id="ytick_3">
     <g id="line2d_8">
      <g>
       <use style="stroke:#000000;stroke-width:0.8;" x="57.6" xlink:href="#m03e6d6fee2" y="189.408"/>
      </g>
     </g>
     <g id="text_8">
      <!-- 0.4 -->
      <defs>
       <path d="M 37.796875 64.3125 
L 12.890625 25.390625 
L 37.796875 25.390625 
z
M 35.203125 72.90625 
L 47.609375 72.90625 
L 47.609375 25.390625 
L 58.015625 25.390625 
L 58.015625 17.1875 
L 47.609375 17.1875 
L 47.609375 0 
L 37.796875 0 
L 37.796875 17.1875 
L 4.890625 17.1875 
L 4.890625 26.703125 
z
" id="DejaVuSans-34"/>
      </defs>
      <g transform="translate(34.696875 193.207219)scale(0.1 -0.1)">
       <use xlink:href="#DejaVuSans-30"/>
       <use x="63.623047" xlink:href="#DejaVuSans-2e"/>
       <use x="95.410156" xlink:href="#DejaVuSans-34"/>
      </g>
     </g>
    </g>
    <g id="ytick_4">
     <g id="line2d_9">
      <g>
       <use style="stroke:#000000;stroke-width:0.8;" x="57.6" xlink:href="#m03e6d6fee2" y="159.648"/>
      </g>
     </g>
     <g id="text_9">
      <!-- 0.6 -->
      <defs>
       <path d="M 33.015625 40.375 
Q 26.375 40.375 22.484375 35.828125 
Q 18.609375 31.296875 18.609375 23.390625 
Q 18.609375 15.53125 22.484375 10.953125 
Q 26.375 6.390625 33.015625 6.390625 
Q 39.65625 6.390625 43.53125 10.953125 
Q 47.40625 15.53125 47.40625 23.390625 
Q 47.40625 31.296875 43.53125 35.828125 
Q 39.65625 40.375 33.015625 40.375 
z
M 52.59375 71.296875 
L 52.59375 62.3125 
Q 48.875 64.0625 45.09375 64.984375 
Q 41.3125 65.921875 37.59375 65.921875 
Q 27.828125 65.921875 22.671875 59.328125 
Q 17.53125 52.734375 16.796875 39.40625 
Q 19.671875 43.65625 24.015625 45.921875 
Q 28.375 48.1875 33.59375 48.1875 
Q 44.578125 48.1875 50.953125 41.515625 
Q 57.328125 34.859375 57.328125 23.390625 
Q 57.328125 12.15625 50.6875 5.359375 
Q 44.046875 -1.421875 33.015625 -1.421875 
Q 20.359375 -1.421875 13.671875 8.265625 
Q 6.984375 17.96875 6.984375 36.375 
Q 6.984375 53.65625 15.1875 63.9375 
Q 23.390625 74.21875 37.203125 74.21875 
Q 40.921875 74.21875 44.703125 73.484375 
Q 48.484375 72.75 52.59375 71.296875 
z
" id="DejaVuSans-36"/>
      </defs>
      <g transform="translate(34.696875 163.447219)scale(0.1 -0.1)">
       <use xlink:href="#DejaVuSans-30"/>
       <use x="63.623047" xlink:href="#DejaVuSans-2e"/>
       <use x="95.410156" xlink:href="#DejaVuSans-36"/>
      </g>
     </g>
    </g>
    <g id="ytick_5">
     <g id="line2d_10">
      <g>
       <use style="stroke:#000000;stroke-width:0.8;" x="57.6" xlink:href="#m03e6d6fee2" y="129.888"/>
      </g>
     </g>
     <g id="text_10">
      <!-- 0.8 -->
      <defs>
       <path d="M 31.78125 34.625 
Q 24.75 34.625 20.71875 30.859375 
Q 16.703125 27.09375 16.703125 20.515625 
Q 16.703125 13.921875 20.71875 10.15625 
Q 24.75 6.390625 31.78125 6.390625 
Q 38.8125 6.390625 42.859375 10.171875 
Q 46.921875 13.96875 46.921875 20.515625 
Q 46.921875 27.09375 42.890625 30.859375 
Q 38.875 34.625 31.78125 34.625 
z
M 21.921875 38.8125 
Q 15.578125 40.375 12.03125 44.71875 
Q 8.5 49.078125 8.5 55.328125 
Q 8.5 64.0625 14.71875 69.140625 
Q 20.953125 74.21875 31.78125 74.21875 
Q 42.671875 74.21875 48.875 69.140625 
Q 55.078125 64.0625 55.078125 55.328125 
Q 55.078125 49.078125 51.53125 44.71875 
Q 48 40.375 41.703125 38.8125 
Q 48.828125 37.15625 52.796875 32.3125 
Q 56.78125 27.484375 56.78125 20.515625 
Q 56.78125 9.90625 50.3125 4.234375 
Q 43.84375 -1.421875 31.78125 -1.421875 
Q 19.734375 -1.421875 13.25 4.234375 
Q 6.78125 9.90625 6.78125 20.515625 
Q 6.78125 27.484375 10.78125 32.3125 
Q 14.796875 37.15625 21.921875 38.8125 
z
M 18.3125 54.390625 
Q 18.3125 48.734375 21.84375 45.5625 
Q 25.390625 42.390625 31.78125 42.390625 
Q 38.140625 42.390625 41.71875 45.5625 
Q 45.3125 48.734375 45.3125 54.390625 
Q 45.3125 60.0625 41.71875 63.234375 
Q 38.140625 66.40625 31.78125 66.40625 
Q 25.390625 66.40625 21.84375 63.234375 
Q 18.3125 60.0625 18.3125 54.390625 
z
" id="DejaVuSans-38"/>
      </defs>
      <g transform="translate(34.696875 133.687219)scale(0.1 -0.1)">
       <use xlink:href="#DejaVuSans-30"/>
       <use x="63.623047" xlink:href="#DejaVuSans-2e"/>
       <use x="95.410156" xlink:href="#DejaVuSans-38"/>
      </g>
     </g>
    </g>
    <g id="ytick_6">
     <g id="line2d_11">
      <g>
       <use style="stroke:#000000;stroke-width:0.8;" x="57.6" xlink:href="#m03e6d6fee2" y="100.128"/>
      </g>
     </g>
     <g id="text_11">
      <!-- 1.0 -->
      <g transform="translate(34.696875 103.927219)scale(0.1 -0.1)">
       <use xlink:href="#DejaVuSans-31"/>
       <use x="63.623047" xlink:href="#DejaVuSans-2e"/>
       <use x="95.410156" xlink:href="#DejaVuSans-30"/>
      </g>
     </g>
    </g>
   </g>
   <g id="line2d_12">
    <path clip-path="url(#pd4a2237466)" d="M 236.16 248.928 
L 236.16 100.128 
" style="fill:none;stroke:#cc0000;stroke-dasharray:7.4,3.2;stroke-dashoffset:0;stroke-width:2;"/>
   </g>
   <g id="line2d_13">
    <path clip-path="url(#pd4a2237466)" d="M 87.36 248.928 
L 384.96 248.928 
" style="fill:none;stroke:#009900;stroke-linecap:square;stroke-width:2;"/>
   </g>
   <g id="line2d_14">
    <path clip-path="url(#pd4a2237466)" d="M 384.96 248.928 
L 384.96 100.128 
" style="fill:none;stroke:#009900;stroke-linecap:square;stroke-width:2;"/>
   </g>
   <g id="line2d_15">
    <path clip-path="url(#pd4a2237466)" d="M 384.96 100.128 
L 87.36 100.128 
" style="fill:none;stroke:#009900;stroke-linecap:square;stroke-width:2;"/>
   </g>
   <g id="line2d_16">
    <path clip-path="url(#pd4a2237466)" d="M 87.36 100.128 
L 87.36 248.928 
" style="fill:none;stroke:#009900;stroke-linecap:square;stroke-width:2;"/>
   </g>
   <g id="line2d_17">
    <path clip-path="url(#pd4a2237466)" d="M 223.836034 220.62621 
L 229.56735 222.230452 
L 235.358234 223.60422 
L 236.16 223.775252 
L 230.361635 225.117095 
L 224.621567 226.689737 
L 218.94898 228.490663 
L 213.352948 230.516991 
L 207.842423 232.76548 
L 202.426223 235.232533 
L 197.11301 237.914202 
L 191.911285 240.806199 
L 186.82937 243.903895 
L 181.875396 247.202336 
L 179.445008 248.928 
L 174.558097 245.530989 
L 169.539251 242.33212 
L 164.396499 239.336509 
L 159.138068 236.54895 
L 153.772371 233.973902 
L 148.307991 231.615485 
L 142.753671 229.477471 
L 137.118295 227.56328 
L 131.41088 225.875976 
L 125.640557 224.418257 
L 119.816555 223.192455 
L 113.948194 222.200532 
L 108.04486 221.444074 
L 102.115997 220.924292 
L 96.171092 220.642016 
L 90.219654 220.5977 
L 87.36 220.661095 
L 88.84746 220.700934 
L 94.799054 220.711509 
L 100.74631 220.484076 
L 106.679714 220.018998 
L 112.589774 219.317018 
L 118.467035 218.379261 
L 124.302094 217.207226 
L 130.085617 215.802789 
L 135.808351 214.168196 
L 141.461141 212.306062 
L 147.034944 210.219366 
L 148.937365 209.448195 
L 151.764308 214.685559 
L 154.798428 219.805685 
L 158.034872 224.800384 
L 161.468461 229.661664 
L 165.093704 234.381748 
L 168.904799 238.953086 
L 172.895651 243.368365 
L 177.059875 247.62052 
L 178.409519 248.928 
L 182.627108 244.728771 
L 186.673398 240.364242 
L 190.541918 235.841395 
L 194.226477 231.167467 
L 197.721182 226.349935 
L 201.020441 221.396505 
L 204.118977 216.315102 
L 207.011833 211.113855 
L 209.69438 205.801085 
L 212.162327 200.385292 
L 214.411727 194.875139 
L 216.438979 189.279442 
L 218.240842 183.607152 
L 219.814433 177.867345 
L 221.157233 172.069201 
L 222.267096 166.221998 
L 223.142245 160.335089 
L 223.781281 154.417893 
L 224.183181 148.479875 
L 224.347301 142.530535 
L 224.273381 136.579391 
L 223.961537 130.635963 
L 223.412269 124.70976 
L 222.626455 118.810262 
L 221.605353 112.946907 
L 220.350596 107.129075 
L 218.864192 101.366074 
L 218.512537 100.128 
L 216.976341 105.877929 
L 215.671311 111.68469 
L 214.599532 117.538994 
L 213.762721 123.431474 
L 213.162215 129.352705 
L 212.798976 135.293213 
L 212.673584 141.243496 
L 212.78624 147.194032 
L 213.136764 153.135305 
L 213.724596 159.057807 
L 214.548794 164.952065 
L 215.60804 170.808649 
L 216.90064 176.61819 
L 218.424526 182.371394 
L 220.177259 188.059057 
L 222.156036 193.672079 
L 224.357692 199.201482 
L 226.778703 204.638419 
L 229.415198 209.974192 
L 232.262957 215.200266 
L 235.317426 220.308279 
L 236.16 221.639675 
L 233.051615 226.715059 
L 230.148679 231.910686 
L 227.455833 237.218243 
L 224.977388 242.62924 
L 222.717307 248.13502 
L 222.412779 248.928 
L 220.184165 243.409408 
L 217.736649 237.98435 
L 215.074146 232.661507 
L 212.200917 227.449393 
L 209.121556 222.356347 
L 205.840991 217.390516 
L 202.36447 212.559845 
L 198.697555 207.872062 
L 194.846111 203.334666 
L 190.816301 198.954916 
L 188.148733 196.334233 
L 185.10171 193.072796 
L 182.255739 189.634516 
L 179.621063 186.031767 
L 177.207162 182.277516 
L 175.022725 178.385273 
L 173.075614 174.369047 
L 171.372835 170.243291 
L 169.920517 166.022853 
L 168.723887 161.722924 
L 167.787251 157.358977 
L 167.113981 152.946718 
L 166.706499 148.502027 
L 166.566271 144.0409 
L 166.693803 139.579392 
L 166.830014 137.675117 
L 165.859494 142.031654 
L 164.629484 146.322154 
L 163.144413 150.531178 
L 161.409624 154.643577 
L 159.43136 158.644551 
L 157.216742 162.519701 
L 154.77374 166.25508 
L 152.111145 169.837245 
L 149.238541 173.253305 
L 146.166265 176.490964 
L 142.905375 179.538572 
L 139.467605 182.38516 
L 135.865329 185.020482 
L 132.111511 187.435056 
L 128.21966 189.620191 
L 126.564554 190.570845 
L 121.517036 193.724278 
L 116.599658 197.077035 
L 111.820289 200.623753 
L 107.186574 204.358758 
L 102.705925 208.276075 
L 98.385512 212.369436 
L 94.232245 216.632294 
L 90.252769 221.057828 
L 87.36 224.511555 
L 91.203678 229.055532 
L 95.225991 233.442168 
L 99.420506 237.664445 
L 103.780512 241.715609 
L 108.299034 245.589179 
L 112.507796 248.928 
L 117.163202 245.220065 
L 121.666605 241.32893 
L 126.010803 237.260818 
L 130.188845 233.02224 
L 134.194046 228.619974 
L 138.02 224.061065 
L 141.660587 219.352805 
L 145.109981 214.502726 
L 148.506916 209.287111 
L 150.608737 205.349641 
L 152.942882 201.54529 
L 155.500952 197.88775 
L 158.273738 194.390184 
L 161.251264 191.065178 
L 164.422812 187.9247 
L 167.776969 184.980052 
L 171.301663 182.241832 
L 174.984209 179.719894 
L 178.811354 177.423313 
L 182.769324 175.360357 
L 186.843875 173.538448 
L 191.020343 171.964145 
L 195.283698 170.643112 
L 198.657311 169.792132 
L 194.193986 169.799284 
L 189.738264 169.538785 
L 185.306181 169.011571 
L 180.913686 168.219541 
L 176.576589 167.165544 
L 172.310499 165.853375 
L 168.130768 164.287754 
L 164.052439 162.474318 
L 160.09019 160.419592 
L 156.25828 158.13097 
L 152.570501 155.616691 
L 149.040123 152.885802 
L 145.679854 149.948131 
L 142.501786 146.814251 
L 140.158279 144.242597 
L 142.272709 148.17331 
L 144.147632 152.22374 
L 145.776302 156.379309 
L 147.152856 160.625061 
L 148.272341 164.945718 
L 149.130728 169.325728 
L 149.724927 173.749329 
L 150.0528 178.200601 
L 150.113167 182.663523 
L 149.90581 187.122034 
L 149.431477 191.560088 
L 148.691874 195.961714 
L 147.689662 200.311069 
L 146.428449 204.592501 
L 144.88293 209.309918 
L 143.484462 215.094888 
L 142.31845 220.931153 
L 141.386759 226.809378 
L 140.690879 232.720159 
L 140.231924 238.65404 
L 140.010628 244.601528 
L 139.999151 248.928 
L 139.950859 242.976593 
L 139.664612 237.031877 
L 139.14087 231.103363 
L 138.380468 225.200536 
L 137.384625 219.332838 
L 136.154934 213.509657 
L 134.69336 207.740308 
L 133.002244 202.034022 
L 131.084289 196.399927 
L 130.386297 194.516265 
L 126.146445 190.339516 
L 121.742959 186.335656 
L 117.182884 182.511091 
L 112.473514 178.87194 
L 107.622385 175.424025 
L 102.637256 172.17286 
L 97.526102 169.123649 
L 92.297101 166.281268 
L 87.36 163.838929 
L 92.690618 161.192026 
L 97.911123 158.334073 
L 103.013166 155.26964 
L 107.988582 152.003632 
L 112.829414 148.541273 
L 117.527916 144.888101 
L 122.076571 141.049962 
L 126.468104 137.032995 
L 130.695487 132.843627 
L 134.75196 128.488559 
L 138.631031 123.97476 
L 142.326496 119.309449 
L 145.832442 114.500091 
L 149.143261 109.55438 
L 152.253655 104.480227 
L 154.706015 100.128 
L 157.644328 105.303702 
L 160.787264 110.357763 
L 164.129795 115.282098 
L 167.666573 120.068828 
L 171.39194 124.710295 
L 175.299936 129.199075 
L 179.38431 133.527987 
L 183.638527 137.690104 
L 188.055781 141.678768 
L 192.629006 145.4876 
L 197.350885 149.110504 
L 202.213865 152.541685 
L 207.210166 155.775655 
L 212.331794 158.807239 
L 217.570557 161.631588 
L 222.918073 164.244182 
L 228.365788 166.640844 
L 233.904986 168.817737 
L 236.16 169.631693 
L 230.586449 171.719062 
L 225.100828 174.027643 
L 219.711914 176.553744 
L 214.428328 179.293323 
L 209.258522 182.241999 
L 204.210766 185.395052 
L 199.293137 188.74744 
L 194.392464 192.387516 
L 193.975591 198.324502 
L 193.796468 204.273409 
L 193.855382 210.22472 
L 194.152237 216.168916 
L 194.686559 222.096485 
L 195.457493 227.997946 
L 196.463806 233.863857 
L 197.703888 239.684835 
L 199.175755 245.451566 
L 200.183182 248.928 
L 201.794875 243.198774 
L 203.176171 237.409681 
L 204.32486 231.569981 
L 205.239105 225.689017 
L 205.917443 219.776197 
L 206.358788 213.840981 
L 206.562435 207.892863 
L 206.528057 201.941359 
L 206.255711 195.99599 
L 205.745831 190.066268 
L 204.999233 184.161679 
L 204.017112 178.291669 
L 202.801038 172.465629 
L 201.352958 166.692878 
L 199.675188 160.982654 
L 197.770412 155.344089 
L 195.641676 149.786206 
L 193.292388 144.317895 
L 190.726305 138.947905 
L 187.947532 133.684826 
L 184.960514 128.537078 
L 181.770031 123.512896 
L 178.381186 118.620319 
L 174.799401 113.867173 
L 171.030406 109.261062 
L 167.080231 104.809355 
L 162.562262 100.128 
L 158.421269 104.402781 
L 154.454533 108.839738 
L 150.668401 113.431773 
L 147.06893 118.17154 
L 143.661879 123.051456 
L 140.452697 128.063714 
L 137.446519 133.200296 
L 134.648154 138.452985 
L 132.06208 143.813376 
L 129.692432 149.272896 
L 127.543002 154.822809 
L 125.617229 160.454236 
L 123.918193 166.15817 
L 122.448613 171.925484 
L 121.21084 177.746953 
L 120.206853 183.613263 
L 119.438259 189.515029 
L 118.906288 195.44281 
L 118.61179 201.387123 
L 118.555237 207.338457 
L 118.736719 213.287293 
L 119.155946 219.224112 
L 119.812247 225.139419 
L 120.704572 231.023749 
L 121.831493 236.867688 
L 123.191209 242.661888 
L 124.941343 248.928 
L 126.553036 243.198774 
L 127.934332 237.409681 
L 129.083021 231.569981 
L 129.997266 225.689017 
L 130.675603 219.776197 
L 131.116949 213.840981 
L 131.320595 207.892863 
L 131.286218 201.941359 
L 130.974131 195.410295 
L 125.560563 192.937469 
L 120.05244 190.683105 
L 114.458572 188.650811 
L 108.787908 186.843838 
L 103.04952 185.265076 
L 97.252589 183.917051 
L 91.406388 182.80192 
L 87.36 182.170823 
L 93.234675 181.216999 
L 99.066507 180.029015 
L 104.846168 178.608769 
L 110.564412 176.958534 
L 116.212089 175.080951 
L 121.780166 172.979023 
L 124.660893 171.790069 
L 119.523509 168.785263 
L 114.270074 165.9883 
L 108.908992 163.403656 
L 103.44884 161.035466 
L 97.898354 158.887517 
L 92.266412 156.963247 
L 87.36 155.488316 
L 93.054848 153.75907 
L 98.675989 151.803475 
L 104.214431 149.624658 
L 109.661313 147.226105 
L 115.007922 144.611654 
L 120.245703 141.785487 
L 125.366279 138.752125 
L 130.361457 135.516421 
L 135.223245 132.083551 
L 139.943866 128.459007 
L 144.515769 124.648589 
L 148.931638 120.65839 
L 153.184409 116.494796 
L 157.267279 112.164467 
L 161.173717 107.674331 
L 164.897472 103.03157 
L 167.076482 100.128 
L 170.685868 104.860221 
L 174.481606 109.444319 
L 178.457622 113.872961 
L 182.607557 118.139063 
L 186.92477 122.235799 
L 191.402356 126.156616 
L 196.033152 129.895241 
L 200.809748 133.445693 
L 205.724503 136.802292 
L 210.769556 139.959668 
L 215.936834 142.912771 
L 221.218072 145.656875 
L 226.604821 148.187591 
L 232.088462 150.50087 
L 236.16 152.054625 
L 230.610969 154.206329 
L 225.152421 156.578214 
L 219.79309 159.166485 
L 214.541548 161.967003 
L 209.406199 164.975285 
L 204.395256 168.186521 
L 199.516737 171.595572 
L 198.87828 172.0636 
L 204.150047 174.825856 
L 209.528057 177.375089 
L 215.003708 179.707219 
L 220.568239 181.818516 
L 226.212748 183.705602 
L 231.928206 185.365459 
L 236.16 186.436875 
L 230.398312 187.928362 
L 224.700877 189.649062 
L 219.076808 191.596222 
L 213.535104 193.766728 
L 208.084629 196.157107 
L 202.734104 198.763534 
L 197.492089 201.58184 
L 192.366968 204.607517 
L 187.366942 207.835724 
L 182.500009 211.261296 
L 177.773955 214.878754 
L 173.196342 218.682309 
L 168.774492 222.665878 
L 164.515479 226.823088 
L 160.426117 231.147287 
L 156.512948 235.631558 
L 152.782232 240.268727 
L 149.239937 245.051376 
L 146.578157 248.928 
L 143.188757 244.035807 
L 139.606432 239.283068 
L 135.836914 234.677385 
L 131.886234 230.226127 
L 127.76071 225.936414 
L 123.466944 221.815109 
L 119.011804 217.868806 
L 114.402417 214.103818 
L 109.646158 210.526168 
L 104.750636 207.141578 
L 99.723682 203.955465 
L 94.573339 200.972925 
L 89.307846 198.19873 
L 87.36 197.239462 
L 92.665412 194.542392 
L 97.858726 191.635319 
L 102.931634 188.522895 
L 107.876021 185.210099 
L 112.683976 181.702229 
L 117.347808 178.004898 
L 121.860055 174.124022 
L 124.680855 171.531841 
L 120.968797 166.879722 
L 117.073673 162.379768 
L 113.001714 158.039176 
L 108.759436 153.864891 
L 104.353624 149.863591 
L 99.791327 146.041678 
L 95.079843 142.405264 
L 90.22671 138.960168 
L 87.36 137.058302 
L 92.29148 133.726323 
L 97.085772 130.199803 
L 101.735206 126.484383 
L 106.232343 122.586007 
L 110.56999 118.510911 
L 114.741207 114.265616 
L 118.739321 109.856913 
L 122.557935 105.291854 
L 126.522118 100.128 
L 130.137404 104.855715 
L 133.938857 109.435075 
L 137.920395 113.858754 
L 142.075647 118.119676 
L 146.397968 122.211024 
L 150.880441 126.126252 
L 155.515896 129.859098 
L 160.296918 133.403589 
L 165.215856 136.754055 
L 166.596486 137.643743 
L 172.234337 135.736856 
L 177.791423 133.60604 
L 183.258854 131.254705 
L 188.627883 128.686611 
L 193.889922 125.905868 
L 199.036551 122.916923 
L 204.059537 119.724559 
L 208.950845 116.333883 
L 213.70265 112.750319 
L 218.30735 108.9796 
L 222.757577 105.027758 
L 227.046214 100.901115 
L 227.81254 100.128 
L 232.070873 104.285906 
L 236.16 107.981906 
L 231.750596 111.979247 
L 227.504569 116.149719 
L 223.428713 120.486652 
L 219.529549 124.983105 
L 215.813314 129.631888 
L 212.285953 134.425561 
L 208.953109 139.356457 
L 205.820115 144.416687 
L 202.891982 149.598156 
L 200.173394 154.892574 
L 197.668701 160.291471 
L 196.852081 162.183534 
L 202.148162 164.898882 
L 207.548591 167.400271 
L 213.044729 169.6837 
L 218.627783 171.745515 
L 224.288823 173.582419 
L 230.01879 175.191471 
L 236.16 176.645954 
L 243.567536 177.338143 
L 250.990061 177.844946 
L 258.422934 178.166047 
L 265.861512 178.301245 
L 273.301145 178.250456 
L 280.737183 178.013711 
L 288.448453 177.571339 
L 294.379306 177.074785 
L 300.325272 176.8158 
L 306.276838 176.794797 
L 312.224484 177.01181 
L 318.158693 177.466491 
L 324.069974 178.158114 
L 329.948868 179.085573 
L 332.313008 179.526902 
L 326.591757 177.887129 
L 320.940654 176.019878 
L 315.368743 173.928137 
L 309.884935 171.615252 
L 304.498005 169.084923 
L 299.21657 166.341198 
L 294.049079 163.388467 
L 291.995275 162.137141 
L 296.762676 165.699931 
L 301.383789 169.450516 
L 305.851223 173.382897 
L 310.15783 177.490782 
L 314.29672 181.767599 
L 318.261273 186.206507 
L 322.045146 190.800404 
L 325.418283 194.992091 
L 330.259869 200.640964 
L 335.241149 206.167044 
L 340.35901 211.566879 
L 345.610254 216.837093 
L 350.991598 221.974393 
L 356.49968 226.975568 
L 362.131057 231.837493 
L 367.88221 236.557128 
L 373.749544 241.131525 
L 379.729393 245.557824 
L 384.501554 248.928 
L 384.96 248.610301 
L 378.796418 244.443651 
L 372.530606 240.432376 
L 366.166481 236.578984 
L 359.70802 232.885882 
L 353.15926 229.35538 
L 346.524292 225.989682 
L 339.807264 222.790893 
L 333.012373 219.761012 
L 326.143867 216.901933 
L 319.206037 214.215441 
L 312.20322 211.703217 
L 305.139792 209.36683 
L 298.020168 207.20774 
L 290.848797 205.227297 
L 283.630161 203.426738 
L 276.368771 201.80719 
L 269.069166 200.369663 
L 261.735908 199.115056 
L 254.373579 198.044154 
L 246.986781 197.157625 
L 239.580131 196.456025 
L 236.16 196.19497 
L 243.574245 195.578782 
L 250.97077 194.77745 
L 258.344953 193.791474 
L 265.692184 192.621472 
L 273.007873 191.268173 
L 280.287446 189.732423 
L 287.526355 188.015183 
L 291.961428 186.867997 
L 287.473748 192.80192 
L 283.135802 198.846169 
L 278.950303 204.996966 
L 274.919865 211.250469 
L 271.047009 217.602767 
L 267.334153 224.049892 
L 263.783619 230.587814 
L 260.397625 237.212447 
L 257.178288 243.919651 
L 254.906972 248.928 
L 251.812121 242.162454 
L 248.549116 235.476385 
L 245.119996 228.873972 
L 241.526905 222.359342 
L 237.772088 215.936565 
L 236.16 213.287819 
L 239.981533 206.904512 
L 243.642305 200.427672 
L 247.14003 193.861345 
L 250.47252 187.209637 
L 253.637694 180.476704 
L 256.633573 173.666753 
L 259.458284 166.784041 
L 262.110064 159.83287 
L 264.587253 152.817583 
L 266.888304 145.742565 
L 269.011779 138.612237 
L 270.956351 131.431057 
L 272.720805 124.203511 
L 274.304037 116.934116 
L 275.705059 109.627417 
L 276.922995 102.287979 
L 277.245636 100.128 
L 278.409678 107.476178 
L 279.757042 114.792962 
L 281.286886 122.073779 
L 282.998253 129.314079 
L 284.890074 136.509336 
L 286.961166 143.655055 
L 289.210236 150.746769 
L 291.635877 157.780045 
L 292.810696 160.994907 
L 285.392176 160.432512 
L 277.961917 160.055737 
L 270.524561 159.864816 
L 263.084756 159.85987 
L 255.647153 160.040901 
L 248.216399 160.407795 
L 240.797138 160.960325 
L 236.16 161.400598 
L 243.569704 162.069182 
L 250.993805 162.552333 
L 258.427664 162.849751 
L 265.866635 162.961248 
L 273.306068 162.886756 
L 280.741315 162.62632 
L 288.167728 162.180104 
L 292.182479 161.861149 
L 290.05298 154.732618 
L 287.745952 147.659546 
L 285.262836 140.646355 
L 282.605185 133.697427 
L 279.774659 126.817104 
L 276.773028 120.009687 
L 273.602167 113.27943 
L 270.264057 106.63054 
L 266.794229 100.128 
L 263.292489 106.692186 
L 259.95593 113.341854 
L 256.786639 120.072851 
L 253.786595 126.880968 
L 250.957675 133.76195 
L 248.301644 140.711499 
L 245.820165 147.725269 
L 243.514786 154.798878 
L 241.38695 161.927906 
L 239.437986 169.107896 
L 237.669112 176.334361 
L 236.16 183.221498 
L 237.757185 190.48784 
L 239.535511 197.711985 
L 241.493865 204.889419 
L 243.631025 212.015657 
L 245.945655 219.086245 
L 248.436307 226.096763 
L 251.101426 233.042831 
L 253.939346 239.920107 
L 256.948292 246.724294 
L 257.966821 248.928 
L 261.031173 242.148585 
L 263.9251 235.294688 
L 266.646793 228.370592 
L 269.194551 221.380625 
L 271.566782 214.329154 
L 273.762003 207.220587 
L 275.778843 200.059367 
L 277.61604 192.849969 
L 279.272448 185.596898 
L 280.747029 178.304689 
L 282.038864 170.977897 
L 283.147144 163.621102 
L 284.071178 156.238901 
L 284.810386 148.83591 
L 285.364309 141.416753 
L 285.732598 133.986068 
L 285.915025 126.548499 
L 285.911475 119.108693 
L 285.72195 111.671301 
L 285.346569 104.240971 
L 285.058585 100.128 
L 284.5803 107.552417 
L 284.287756 114.986469 
L 284.181136 122.425511 
L 284.260505 129.864894 
L 284.525815 137.299968 
L 284.976899 144.726087 
L 285.613476 152.138609 
L 286.435148 159.532902 
L 287.441401 166.904345 
L 288.331914 172.504493 
L 285.876874 179.527562 
L 283.598159 186.609806 
L 281.497194 193.746799 
L 279.575292 200.93408 
L 277.833654 208.167157 
L 276.273368 215.441511 
L 274.89541 222.752595 
L 273.70064 230.09584 
L 272.689806 237.466656 
L 271.863539 244.860437 
L 271.488563 248.928 
L 270.763857 241.523574 
L 269.854286 234.139578 
L 268.760419 226.780627 
L 267.482939 219.451318 
L 266.022644 212.156234 
L 264.380448 204.899932 
L 262.557376 197.686949 
L 260.554568 190.521792 
L 258.373276 183.408939 
L 256.014862 176.352835 
L 253.480801 169.35789 
L 250.772677 162.428476 
L 247.892181 155.568923 
L 244.841115 148.783519 
L 241.621385 142.076504 
L 238.235003 135.452069 
L 236.16 131.584576 
L 239.643708 125.010802 
L 242.962 118.351999 
L 246.112802 111.612329 
L 249.094146 104.796002 
L 251.0202 100.128 
L 253.885458 106.993932 
L 256.92145 113.786094 
L 260.126281 120.500241 
L 263.497946 127.132179 
L 267.034338 133.677761 
L 270.733248 140.132897 
L 274.592364 146.493553 
L 278.609274 152.755753 
L 282.781467 158.915584 
L 287.106336 164.969197 
L 289.257649 167.86525 
L 282.224276 170.290613 
L 275.253729 172.891034 
L 268.350364 175.664887 
L 261.518495 178.61044 
L 254.762392 181.725852 
L 248.086277 185.009175 
L 241.494323 188.458358 
L 236.16 191.405894 
L 233.199135 196.568728 
L 230.447096 201.845836 
L 227.908287 207.228775 
L 225.586769 212.708933 
L 223.486256 218.277543 
L 221.610107 223.925698 
L 219.961326 229.64436 
L 218.542549 235.424382 
L 217.356046 241.256517 
L 216.403715 247.131433 
L 216.160405 248.928 
L 215.279723 243.041916 
L 214.164365 237.195759 
L 212.816116 231.39888 
L 211.237131 225.660554 
L 209.429937 219.98996 
L 207.397426 214.396171 
L 205.142849 208.888135 
L 202.669812 203.474664 
L 199.982273 198.164418 
L 197.08453 192.965892 
L 195.468013 190.263624 
L 201.336216 189.270762 
L 207.160021 188.044028 
L 212.930111 186.585385 
L 218.637256 184.897167 
L 224.272325 182.982075 
L 229.826303 180.843171 
L 235.290305 178.483879 
L 236.16 178.084153 
L 243.404704 176.391525 
L 250.604832 174.518328 
L 257.755886 172.465732 
L 264.853395 170.23502 
L 271.892924 167.827585 
L 278.870075 165.244933 
L 285.780485 162.488677 
L 292.619837 159.560541 
L 295.062592 158.465225 
L 298.294223 151.763936 
L 301.357329 144.983958 
L 304.249996 138.129529 
L 306.970416 131.204933 
L 309.51689 124.214498 
L 311.887825 117.162591 
L 314.08174 110.053621 
L 316.097264 102.89203 
L 316.823794 100.128 
L 318.770451 107.308616 
L 320.895996 114.438326 
L 323.199102 121.512676 
L 325.678328 128.527243 
L 328.332125 135.477645 
L 331.158835 142.359536 
L 334.156691 149.168616 
L 337.32382 155.90063 
L 340.658241 162.551371 
L 344.157872 169.116681 
L 347.820525 175.592459 
L 351.643911 181.974655 
L 355.625641 188.259283 
L 359.763225 194.442414 
L 364.054079 200.520184 
L 368.495521 206.488795 
L 373.084774 212.344516 
L 377.818971 218.083688 
L 382.695154 223.702724 
L 384.96 226.218673 
L 380.020218 231.78188 
L 375.221045 237.46683 
L 370.565481 243.26997 
L 366.249433 248.928 
L 361.733957 243.015201 
L 357.072086 237.217126 
L 352.266736 231.537396 
L 347.320909 225.979563 
L 342.237696 220.547099 
L 337.020273 215.2434 
L 331.671903 210.071781 
L 326.195927 205.035472 
L 320.595767 200.137623 
L 315.884887 196.203516 
L 313.049237 203.081728 
L 310.38641 210.028675 
L 307.89807 217.040014 
L 305.585774 224.111365 
L 303.450965 231.238307 
L 301.494978 238.416387 
L 299.719036 245.641119 
L 298.974104 248.928 
L 297.280093 241.68362 
L 295.40552 234.48385 
L 293.351558 227.333188 
L 291.119489 220.236105 
L 288.71071 213.197036 
L 286.126724 206.220379 
L 283.369148 199.310496 
L 280.439705 192.471704 
L 277.340225 185.708277 
L 274.072645 179.024443 
L 270.639008 172.424378 
L 267.041459 165.912208 
L 263.282248 159.492002 
L 259.363722 153.167772 
L 255.288332 146.943472 
L 251.058624 140.822991 
L 246.677242 134.810154 
L 242.146924 128.90872 
L 237.4705 123.122375 
L 236.16 121.552674 
L 240.876071 115.798599 
L 245.446832 109.928431 
L 249.869425 103.945841 
L 252.573297 100.128 
L 256.901299 106.179373 
L 261.379217 112.120666 
L 266.004253 117.948166 
L 270.773516 123.658232 
L 275.684026 129.247294 
L 280.732713 134.711859 
L 285.916422 140.048513 
L 291.231914 145.25392 
L 296.675867 150.324827 
L 301.135724 154.295219 
L 300.905928 146.858963 
L 300.490317 139.430774 
L 299.889151 132.015296 
L 299.102804 124.617163 
L 298.13177 117.240998 
L 296.976654 109.891411 
L 295.638178 102.572996 
L 295.148706 100.128 
L 293.748959 107.434944 
L 292.532304 114.774594 
L 291.499501 122.142364 
L 290.651196 129.533649 
L 289.987919 136.94383 
L 289.510084 144.368276 
L 289.217991 151.802346 
L 289.111821 159.241394 
L 289.224454 167.972326 
L 284.95458 174.064854 
L 280.838338 180.262214 
L 276.8783 186.560532 
L 273.076941 192.955873 
L 269.436636 199.44424 
L 265.959662 206.021577 
L 262.64819 212.683774 
L 259.504291 219.426668 
L 256.529929 226.246044 
L 253.726963 233.13764 
L 251.097145 240.097149 
L 248.642118 247.120223 
L 248.04186 248.928 
L 245.631836 241.889357 
L 243.046616 234.913157 
L 240.287818 228.003762 
L 237.357165 221.165488 
L 236.16 218.501142 
L 239.157629 211.691962 
L 241.984109 204.809976 
L 244.637675 197.859487 
L 247.116667 190.844837 
L 249.419536 183.77041 
L 251.544844 176.640629 
L 253.491262 169.459948 
L 255.257573 162.232856 
L 256.842673 154.963869 
L 258.245573 147.65753 
L 259.465394 140.318405 
L 260.501376 132.951081 
L 261.35287 125.560163 
L 262.019344 118.150269 
L 262.500382 110.72603 
L 262.795683 103.292087 
L 262.86494 100.128 
L 262.893311 101.615728 
L 263.14672 109.051217 
L 263.585918 116.478048 
L 264.21063 123.89158 
L 265.020465 131.287179 
L 266.014919 138.660223 
L 267.193368 146.006105 
L 268.555077 153.320232 
L 270.099195 160.598036 
L 271.824756 167.834965 
L 273.730683 175.026499 
L 275.815784 182.168143 
L 278.078755 189.255433 
L 280.518183 196.28394 
L 283.132543 203.249271 
L 285.920202 210.147073 
L 288.879416 216.973036 
L 292.008337 223.722893 
L 295.30501 230.392426 
L 298.767373 236.977466 
L 302.393262 243.473899 
L 305.605069 248.928 
L 309.368301 242.51015 
L 312.969927 236.000234 
L 316.407697 229.402321 
L 319.679462 222.720534 
L 322.783178 215.95905 
L 325.716904 209.122094 
L 328.478807 202.213939 
L 331.067161 195.238902 
L 333.480349 188.201343 
L 335.716862 181.105659 
L 337.775303 173.956286 
L 339.654384 166.757691 
L 341.352932 159.514373 
L 342.869886 152.23086 
L 344.204296 144.911702 
L 345.35533 137.561475 
L 346.322267 130.184772 
L 347.104504 122.786203 
L 347.701552 115.370392 
L 348.113037 107.941974 
L 348.345198 100.128 
L 348.409379 103.103295 
L 348.699962 110.537425 
L 349.176288 117.961967 
L 349.83806 125.372283 
L 350.684863 132.76374 
L 351.716169 140.13172 
L 352.931333 147.471617 
L 354.329595 154.778845 
L 355.910083 162.048836 
L 357.671807 169.277048 
L 359.613667 176.458963 
L 361.73445 183.590091 
L 364.032829 190.665978 
L 366.507369 197.6822 
L 369.156524 204.634372 
L 371.978636 211.51815 
L 374.971943 218.329231 
L 378.134574 225.063359 
L 381.464553 231.716326 
L 384.96 238.284342 
L 381.464746 244.851983 
L 379.399944 248.928 
L 376.005935 242.30747 
L 372.44749 235.77385 
L 368.726834 229.331224 
L 364.846291 222.983618 
L 360.808287 216.734998 
L 356.615346 210.589271 
L 352.270088 204.550277 
L 347.775229 198.62179 
L 343.133577 192.807516 
L 338.348035 187.111087 
L 333.421591 181.536065 
L 332.159749 180.152344 
L 327.122003 176.983323 
L 322.215014 173.615379 
L 317.446632 170.053903 
L 312.824486 166.304591 
L 308.355969 162.373442 
L 304.04823 158.266743 
L 300.48731 154.610086 
L 294.018136 150.935782 
L 287.459136 147.424339 
L 280.814408 144.077952 
L 274.088105 140.898711 
L 267.284432 137.888603 
L 260.40764 135.04951 
L 253.462027 132.383207 
L 246.451934 129.891358 
L 239.381741 127.575523 
L 236.16 126.584663 
L 231.13468 123.395974 
L 225.985866 120.410795 
L 220.721795 117.633901 
L 215.350888 115.069736 
L 209.881739 112.7224 
L 204.323096 110.595649 
L 198.683852 108.692887 
L 192.973028 107.017155 
L 187.199761 105.571137 
L 181.373287 104.357144 
L 175.502927 103.377119 
L 169.598071 102.632629 
L 163.668168 102.124867 
L 157.722702 101.854643 
L 151.771186 101.822391 
L 145.823141 102.028161 
L 139.888083 102.471626 
L 133.975505 103.152075 
L 128.094868 104.068419 
L 122.255579 105.219194 
L 116.466979 106.602557 
L 110.73833 108.216296 
L 105.078794 110.057829 
L 99.497428 112.124209 
L 94.003159 114.412133 
L 88.604778 116.917938 
L 87.36 117.533495 
L 92.734761 120.08957 
L 98.207439 122.428668 
L 103.769278 124.547046 
L 109.411381 126.441315 
L 115.124722 128.108445 
L 120.900159 129.545769 
L 126.728455 130.750987 
L 132.600284 131.722172 
L 138.506254 132.457769 
L 144.436916 132.956602 
L 150.382781 133.217873 
L 156.334339 133.241163 
L 162.282067 133.026436 
L 168.216451 132.574035 
L 174.127997 131.884684 
L 180.007248 130.959486 
L 185.844798 129.79992 
L 191.631308 128.407842 
L 197.357521 126.785479 
L 203.014277 124.935427 
L 208.592526 122.860644 
L 214.083343 120.56445 
L 219.477945 118.050519 
L 224.767701 115.322872 
L 229.94415 112.385873 
L 234.999009 109.244221 
L 236.16 108.482327 
L 231.13468 105.293638 
L 225.985866 102.308459 
L 221.896407 100.128 
L 216.657127 102.951389 
L 211.534943 105.982034 
L 206.538049 109.215088 
L 201.674441 112.645378 
L 196.951897 116.267417 
L 192.377975 120.07541 
L 187.95999 124.063265 
L 183.70501 128.224603 
L 179.619843 132.552766 
L 175.711025 137.040829 
L 173.827124 139.339585 
L 173.613943 133.391801 
L 173.163085 127.4573 
L 172.47527 121.545575 
L 171.5516 115.666084 
L 170.393552 109.828233 
L 169.002978 104.041361 
L 167.92216 100.128 
L 166.374229 105.874781 
L 165.057346 111.678866 
L 163.973618 117.530969 
L 163.124778 123.421729 
L 162.512185 129.341721 
L 162.136819 135.281476 
L 161.845158 141.787261 
L 161.360782 146.224231 
L 160.611219 150.624171 
L 159.599166 154.971247 
L 158.328267 159.249814 
L 156.803095 163.444473 
L 155.029138 167.540129 
L 153.012782 171.522041 
L 150.761282 175.375879 
L 148.282743 179.087774 
L 145.586084 182.644366 
L 142.681009 186.032855 
L 139.577975 189.241047 
L 136.288148 192.257396 
L 132.823369 195.071046 
L 131.44979 196.0949 
L 132.679693 195.257399 
L 136.46642 192.894768 
L 140.388005 190.763457 
L 144.430335 188.871134 
L 148.578862 187.224611 
L 152.818657 185.829813 
L 157.13446 184.69176 
L 161.510739 183.814548 
L 165.931744 183.201334 
L 170.381564 182.854324 
L 174.844186 182.774768 
L 179.303547 182.962951 
L 183.7436 183.418197 
L 188.148365 184.138867 
L 192.501989 185.122368 
L 197.003035 186.434656 
L 197.003035 186.434656 
" style="fill:none;stroke:#1f77b4;stroke-linecap:square;stroke-width:1.5;"/>
   </g>
   <g id="patch_5">
    <path d="M 57.6 263.808 
L 57.6 85.248 
" style="fill:none;stroke:#000000;stroke-linecap:square;stroke-linejoin:miter;stroke-width:0.8;"/>
   </g>
   <g id="patch_6">
    <path d="M 414.72 263.808 
L 414.72 85.248 
" style="fill:none;stroke:#000000;stroke-linecap:square;stroke-linejoin:miter;stroke-width:0.8;"/>
   </g>
   <g id="patch_7">
    <path d="M 57.6 263.808 
L 414.72 263.808 
" style="fill:none;stroke:#000000;stroke-linecap:square;stroke-linejoin:miter;stroke-width:0.8;"/>
   </g>
   <g id="patch_8">
    <path d="M 57.6 85.248 
L 414.72 85.248 
" style="fill:none;stroke:#000000;stroke-linecap:square;stroke-linejoin:miter;stroke-width:0.8;"/>
   </g>
  </g>
 </g>
 <defs>
  <clipPath id="pd4a2237466">
   <rect height="178.56" width="357.12" x="57.6" y="85.248"/>
  </clipPath>
 </defs>
</svg>
