<?xml version="1.0" encoding="utf-8" standalone="no"?>
<!DOCTYPE svg PUBLIC "-//W3C//DTD SVG 1.1//EN"
  "http://www.w3.org/Graphics/SVG/1.1/DTD/svg11.dtd">
<!-- Created with matplotlib (https://matplotlib.org/) -->
<svg height="345.6pt" version="1.1" viewBox="0 0 460.8 345.6" width="460.8pt" xmlns="http://www.w3.org/2000/svg" xmlns:xlink="http://www.w3.org/1999/xlink">
 <defs>
  <style type="text/css">
*{stroke-linecap:butt;stroke-linejoin:round;}
  </style>
 </defs>
 <g id="figure_1">
  <g id="patch_1">
   <path d="M 0 345.6 
L 460.8 345.6 
L 460.8 0 
L 0 0 
z
" style="fill:#ffffff;"/>
  </g>
  <g id="axes_1">
   <g id="patch_2">
    <path d="M 57.6 263.808 
L 414.72 263.808 
L 414.72 85.248 
L 57.6 85.248 
z
" style="fill:#ffffff;"/>
   </g>
   <g id="PathCollection_1">
    <defs>
     <path d="M 0 3 
C 0.795609 3 1.55874 2.683901 2.12132 2.12132 
C 2.683901 1.55874 3 0.795609 3 0 
C 3 -0.795609 2.683901 -1.55874 2.12132 -2.12132 
C 1.55874 -2.683901 0.795609 -3 0 -3 
C -0.795609 -3 -1.55874 -2.683901 -2.12132 -2.12132 
C -2.683901 -1.55874 -3 -0.795609 -3 0 
C -3 0.795609 -2.683901 1.55874 -2.12132 2.12132 
C -1.55874 2.683901 -0.795609 3 0 3 
z
" id="ma7f844c326" style="stroke:#000000;"/>
    </defs>
    <g clip-path="url(#p04ac0ee714)">
     <use style="stroke:#000000;" x="108.093657" xlink:href="#ma7f844c326" y="124.062711"/>
    </g>
   </g>
   <g id="patch_3">
    <path clip-path="url(#p04ac0ee714)" d="M 161.76 211.728 
C 171.625555 211.728 181.088371 207.808373 188.064372 200.832372 
C 195.040373 193.856371 198.96 184.393555 198.96 174.528 
C 198.96 164.662445 195.040373 155.199629 188.064372 148.223628 
C 181.088371 141.247627 171.625555 137.328 161.76 137.328 
C 151.894445 137.328 142.431629 141.247627 135.455628 148.223628 
C 128.479627 155.199629 124.56 164.662445 124.56 174.528 
C 124.56 184.393555 128.479627 193.856371 135.455628 200.832372 
C 142.431629 207.808373 151.894445 211.728 161.76 211.728 
z
" style="fill:#cc0000;fill-opacity:0.1;stroke:#cc0000;stroke-dasharray:7.4,3.2;stroke-dashoffset:0;stroke-linejoin:miter;stroke-width:2;"/>
   </g>
   <g id="patch_4">
    <path clip-path="url(#p04ac0ee714)" d="M 310.56 196.848 
C 316.479333 196.848 322.157023 194.496224 326.342623 190.310623 
C 330.528224 186.125023 332.88 180.447333 332.88 174.528 
C 332.88 168.608667 330.528224 162.930977 326.342623 158.745377 
C 322.157023 154.559776 316.479333 152.208 310.56 152.208 
C 304.640667 152.208 298.962977 154.559776 294.777377 158.745377 
C 290.591776 162.930977 288.24 168.608667 288.24 174.528 
C 288.24 180.447333 290.591776 186.125023 294.777377 190.310623 
C 298.962977 194.496224 304.640667 196.848 310.56 196.848 
z
" style="fill:#cc0000;fill-opacity:0.1;stroke:#cc0000;stroke-dasharray:7.4,3.2;stroke-dashoffset:0;stroke-linejoin:miter;stroke-width:2;"/>
   </g>
   <g id="matplotlib.axis_1">
    <g id="xtick_1">
     <g id="line2d_1">
      <defs>
       <path d="M 0 0 
L 0 3.5 
" id="m6926fe4548" style="stroke:#000000;stroke-width:0.8;"/>
      </defs>
      <g>
       <use style="stroke:#000000;stroke-width:0.8;" x="87.36" xlink:href="#m6926fe4548" y="263.808"/>
      </g>
     </g>
     <g id="text_1">
      <!-- 0.0 -->
      <defs>
       <path d="M 31.78125 66.40625 
Q 24.171875 66.40625 20.328125 58.90625 
Q 16.5 51.421875 16.5 36.375 
Q 16.5 21.390625 20.328125 13.890625 
Q 24.171875 6.390625 31.78125 6.390625 
Q 39.453125 6.390625 43.28125 13.890625 
Q 47.125 21.390625 47.125 36.375 
Q 47.125 51.421875 43.28125 58.90625 
Q 39.453125 66.40625 31.78125 66.40625 
z
M 31.78125 74.21875 
Q 44.046875 74.21875 50.515625 64.515625 
Q 56.984375 54.828125 56.984375 36.375 
Q 56.984375 17.96875 50.515625 8.265625 
Q 44.046875 -1.421875 31.78125 -1.421875 
Q 19.53125 -1.421875 13.0625 8.265625 
Q 6.59375 17.96875 6.59375 36.375 
Q 6.59375 54.828125 13.0625 64.515625 
Q 19.53125 74.21875 31.78125 74.21875 
z
" id="DejaVuSans-48"/>
       <path d="M 10.6875 12.40625 
L 21 12.40625 
L 21 0 
L 10.6875 0 
z
" id="DejaVuSans-46"/>
      </defs>
      <g transform="translate(79.408438 278.406437)scale(0.1 -0.1)">
       <use xlink:href="#DejaVuSans-48"/>
       <use x="63.623047" xlink:href="#DejaVuSans-46"/>
       <use x="95.410156" xlink:href="#DejaVuSans-48"/>
      </g>
     </g>
    </g>
    <g id="xtick_2">
     <g id="line2d_2">
      <g>
       <use style="stroke:#000000;stroke-width:0.8;" x="161.76" xlink:href="#m6926fe4548" y="263.808"/>
      </g>
     </g>
     <g id="text_2">
      <!-- 0.5 -->
      <defs>
       <path d="M 10.796875 72.90625 
L 49.515625 72.90625 
L 49.515625 64.59375 
L 19.828125 64.59375 
L 19.828125 46.734375 
Q 21.96875 47.46875 24.109375 47.828125 
Q 26.265625 48.1875 28.421875 48.1875 
Q 40.625 48.1875 47.75 41.5 
Q 54.890625 34.8125 54.890625 23.390625 
Q 54.890625 11.625 47.5625 5.09375 
Q 40.234375 -1.421875 26.90625 -1.421875 
Q 22.3125 -1.421875 17.546875 -0.640625 
Q 12.796875 0.140625 7.71875 1.703125 
L 7.71875 11.625 
Q 12.109375 9.234375 16.796875 8.0625 
Q 21.484375 6.890625 26.703125 6.890625 
Q 35.15625 6.890625 40.078125 11.328125 
Q 45.015625 15.765625 45.015625 23.390625 
Q 45.015625 31 40.078125 35.4375 
Q 35.15625 39.890625 26.703125 39.890625 
Q 22.75 39.890625 18.8125 39.015625 
Q 14.890625 38.140625 10.796875 36.28125 
z
" id="DejaVuSans-53"/>
      </defs>
      <g transform="translate(153.808437 278.406437)scale(0.1 -0.1)">
       <use xlink:href="#DejaVuSans-48"/>
       <use x="63.623047" xlink:href="#DejaVuSans-46"/>
       <use x="95.410156" xlink:href="#DejaVuSans-53"/>
      </g>
     </g>
    </g>
    <g id="xtick_3">
     <g id="line2d_3">
      <g>
       <use style="stroke:#000000;stroke-width:0.8;" x="236.16" xlink:href="#m6926fe4548" y="263.808"/>
      </g>
     </g>
     <g id="text_3">
      <!-- 1.0 -->
      <defs>
       <path d="M 12.40625 8.296875 
L 28.515625 8.296875 
L 28.515625 63.921875 
L 10.984375 60.40625 
L 10.984375 69.390625 
L 28.421875 72.90625 
L 38.28125 72.90625 
L 38.28125 8.296875 
L 54.390625 8.296875 
L 54.390625 0 
L 12.40625 0 
z
" id="DejaVuSans-49"/>
      </defs>
      <g transform="translate(228.208437 278.406437)scale(0.1 -0.1)">
       <use xlink:href="#DejaVuSans-49"/>
       <use x="63.623047" xlink:href="#DejaVuSans-46"/>
       <use x="95.410156" xlink:href="#DejaVuSans-48"/>
      </g>
     </g>
    </g>
    <g id="xtick_4">
     <g id="line2d_4">
      <g>
       <use style="stroke:#000000;stroke-width:0.8;" x="310.56" xlink:href="#m6926fe4548" y="263.808"/>
      </g>
     </g>
     <g id="text_4">
      <!-- 1.5 -->
      <g transform="translate(302.608437 278.406437)scale(0.1 -0.1)">
       <use xlink:href="#DejaVuSans-49"/>
       <use x="63.623047" xlink:href="#DejaVuSans-46"/>
       <use x="95.410156" xlink:href="#DejaVuSans-53"/>
      </g>
     </g>
    </g>
    <g id="xtick_5">
     <g id="line2d_5">
      <g>
       <use style="stroke:#000000;stroke-width:0.8;" x="384.96" xlink:href="#m6926fe4548" y="263.808"/>
      </g>
     </g>
     <g id="text_5">
      <!-- 2.0 -->
      <defs>
       <path d="M 19.1875 8.296875 
L 53.609375 8.296875 
L 53.609375 0 
L 7.328125 0 
L 7.328125 8.296875 
Q 12.9375 14.109375 22.625 23.890625 
Q 32.328125 33.6875 34.8125 36.53125 
Q 39.546875 41.84375 41.421875 45.53125 
Q 43.3125 49.21875 43.3125 52.78125 
Q 43.3125 58.59375 39.234375 62.25 
Q 35.15625 65.921875 28.609375 65.921875 
Q 23.96875 65.921875 18.8125 64.3125 
Q 13.671875 62.703125 7.8125 59.421875 
L 7.8125 69.390625 
Q 13.765625 71.78125 18.9375 73 
Q 24.125 74.21875 28.421875 74.21875 
Q 39.75 74.21875 46.484375 68.546875 
Q 53.21875 62.890625 53.21875 53.421875 
Q 53.21875 48.921875 51.53125 44.890625 
Q 49.859375 40.875 45.40625 35.40625 
Q 44.1875 33.984375 37.640625 27.21875 
Q 31.109375 20.453125 19.1875 8.296875 
z
" id="DejaVuSans-50"/>
      </defs>
      <g transform="translate(377.008437 278.406437)scale(0.1 -0.1)">
       <use xlink:href="#DejaVuSans-50"/>
       <use x="63.623047" xlink:href="#DejaVuSans-46"/>
       <use x="95.410156" xlink:href="#DejaVuSans-48"/>
      </g>
     </g>
    </g>
   </g>
   <g id="matplotlib.axis_2">
    <g id="ytick_1">
     <g id="line2d_6">
      <defs>
       <path d="M 0 0 
L -3.5 0 
" id="md7862548bb" style="stroke:#000000;stroke-width:0.8;"/>
      </defs>
      <g>
       <use style="stroke:#000000;stroke-width:0.8;" x="57.6" xlink:href="#md7862548bb" y="248.928"/>
      </g>
     </g>
     <g id="text_6">
      <!-- 0.0 -->
      <g transform="translate(34.696875 252.727219)scale(0.1 -0.1)">
       <use xlink:href="#DejaVuSans-48"/>
       <use x="63.623047" xlink:href="#DejaVuSans-46"/>
       <use x="95.410156" xlink:href="#DejaVuSans-48"/>
      </g>
     </g>
    </g>
    <g id="ytick_2">
     <g id="line2d_7">
      <g>
       <use style="stroke:#000000;stroke-width:0.8;" x="57.6" xlink:href="#md7862548bb" y="219.168"/>
      </g>
     </g>
     <g id="text_7">
      <!-- 0.2 -->
      <g transform="translate(34.696875 222.967219)scale(0.1 -0.1)">
       <use xlink:href="#DejaVuSans-48"/>
       <use x="63.623047" xlink:href="#DejaVuSans-46"/>
       <use x="95.410156" xlink:href="#DejaVuSans-50"/>
      </g>
     </g>
    </g>
    <g id="ytick_3">
     <g id="line2d_8">
      <g>
       <use style="stroke:#000000;stroke-width:0.8;" x="57.6" xlink:href="#md7862548bb" y="189.408"/>
      </g>
     </g>
     <g id="text_8">
      <!-- 0.4 -->
      <defs>
       <path d="M 37.796875 64.3125 
L 12.890625 25.390625 
L 37.796875 25.390625 
z
M 35.203125 72.90625 
L 47.609375 72.90625 
L 47.609375 25.390625 
L 58.015625 25.390625 
L 58.015625 17.1875 
L 47.609375 17.1875 
L 47.609375 0 
L 37.796875 0 
L 37.796875 17.1875 
L 4.890625 17.1875 
L 4.890625 26.703125 
z
" id="DejaVuSans-52"/>
      </defs>
      <g transform="translate(34.696875 193.207219)scale(0.1 -0.1)">
       <use xlink:href="#DejaVuSans-48"/>
       <use x="63.623047" xlink:href="#DejaVuSans-46"/>
       <use x="95.410156" xlink:href="#DejaVuSans-52"/>
      </g>
     </g>
    </g>
    <g id="ytick_4">
     <g id="line2d_9">
      <g>
       <use style="stroke:#000000;stroke-width:0.8;" x="57.6" xlink:href="#md7862548bb" y="159.648"/>
      </g>
     </g>
     <g id="text_9">
      <!-- 0.6 -->
      <defs>
       <path d="M 33.015625 40.375 
Q 26.375 40.375 22.484375 35.828125 
Q 18.609375 31.296875 18.609375 23.390625 
Q 18.609375 15.53125 22.484375 10.953125 
Q 26.375 6.390625 33.015625 6.390625 
Q 39.65625 6.390625 43.53125 10.953125 
Q 47.40625 15.53125 47.40625 23.390625 
Q 47.40625 31.296875 43.53125 35.828125 
Q 39.65625 40.375 33.015625 40.375 
z
M 52.59375 71.296875 
L 52.59375 62.3125 
Q 48.875 64.0625 45.09375 64.984375 
Q 41.3125 65.921875 37.59375 65.921875 
Q 27.828125 65.921875 22.671875 59.328125 
Q 17.53125 52.734375 16.796875 39.40625 
Q 19.671875 43.65625 24.015625 45.921875 
Q 28.375 48.1875 33.59375 48.1875 
Q 44.578125 48.1875 50.953125 41.515625 
Q 57.328125 34.859375 57.328125 23.390625 
Q 57.328125 12.15625 50.6875 5.359375 
Q 44.046875 -1.421875 33.015625 -1.421875 
Q 20.359375 -1.421875 13.671875 8.265625 
Q 6.984375 17.96875 6.984375 36.375 
Q 6.984375 53.65625 15.1875 63.9375 
Q 23.390625 74.21875 37.203125 74.21875 
Q 40.921875 74.21875 44.703125 73.484375 
Q 48.484375 72.75 52.59375 71.296875 
z
" id="DejaVuSans-54"/>
      </defs>
      <g transform="translate(34.696875 163.447219)scale(0.1 -0.1)">
       <use xlink:href="#DejaVuSans-48"/>
       <use x="63.623047" xlink:href="#DejaVuSans-46"/>
       <use x="95.410156" xlink:href="#DejaVuSans-54"/>
      </g>
     </g>
    </g>
    <g id="ytick_5">
     <g id="line2d_10">
      <g>
       <use style="stroke:#000000;stroke-width:0.8;" x="57.6" xlink:href="#md7862548bb" y="129.888"/>
      </g>
     </g>
     <g id="text_10">
      <!-- 0.8 -->
      <defs>
       <path d="M 31.78125 34.625 
Q 24.75 34.625 20.71875 30.859375 
Q 16.703125 27.09375 16.703125 20.515625 
Q 16.703125 13.921875 20.71875 10.15625 
Q 24.75 6.390625 31.78125 6.390625 
Q 38.8125 6.390625 42.859375 10.171875 
Q 46.921875 13.96875 46.921875 20.515625 
Q 46.921875 27.09375 42.890625 30.859375 
Q 38.875 34.625 31.78125 34.625 
z
M 21.921875 38.8125 
Q 15.578125 40.375 12.03125 44.71875 
Q 8.5 49.078125 8.5 55.328125 
Q 8.5 64.0625 14.71875 69.140625 
Q 20.953125 74.21875 31.78125 74.21875 
Q 42.671875 74.21875 48.875 69.140625 
Q 55.078125 64.0625 55.078125 55.328125 
Q 55.078125 49.078125 51.53125 44.71875 
Q 48 40.375 41.703125 38.8125 
Q 48.828125 37.15625 52.796875 32.3125 
Q 56.78125 27.484375 56.78125 20.515625 
Q 56.78125 9.90625 50.3125 4.234375 
Q 43.84375 -1.421875 31.78125 -1.421875 
Q 19.734375 -1.421875 13.25 4.234375 
Q 6.78125 9.90625 6.78125 20.515625 
Q 6.78125 27.484375 10.78125 32.3125 
Q 14.796875 37.15625 21.921875 38.8125 
z
M 18.3125 54.390625 
Q 18.3125 48.734375 21.84375 45.5625 
Q 25.390625 42.390625 31.78125 42.390625 
Q 38.140625 42.390625 41.71875 45.5625 
Q 45.3125 48.734375 45.3125 54.390625 
Q 45.3125 60.0625 41.71875 63.234375 
Q 38.140625 66.40625 31.78125 66.40625 
Q 25.390625 66.40625 21.84375 63.234375 
Q 18.3125 60.0625 18.3125 54.390625 
z
" id="DejaVuSans-56"/>
      </defs>
      <g transform="translate(34.696875 133.687219)scale(0.1 -0.1)">
       <use xlink:href="#DejaVuSans-48"/>
       <use x="63.623047" xlink:href="#DejaVuSans-46"/>
       <use x="95.410156" xlink:href="#DejaVuSans-56"/>
      </g>
     </g>
    </g>
    <g id="ytick_6">
     <g id="line2d_11">
      <g>
       <use style="stroke:#000000;stroke-width:0.8;" x="57.6" xlink:href="#md7862548bb" y="100.128"/>
      </g>
     </g>
     <g id="text_11">
      <!-- 1.0 -->
      <g transform="translate(34.696875 103.927219)scale(0.1 -0.1)">
       <use xlink:href="#DejaVuSans-49"/>
       <use x="63.623047" xlink:href="#DejaVuSans-46"/>
       <use x="95.410156" xlink:href="#DejaVuSans-48"/>
      </g>
     </g>
    </g>
   </g>
   <g id="line2d_12">
    <path clip-path="url(#p04ac0ee714)" d="M 236.16 248.928 
L 236.16 100.128 
" style="fill:none;stroke:#cc0000;stroke-dasharray:7.4,3.2;stroke-dashoffset:0;stroke-width:2;"/>
   </g>
   <g id="line2d_13">
    <path clip-path="url(#p04ac0ee714)" d="M 87.36 248.928 
L 384.96 248.928 
" style="fill:none;stroke:#009900;stroke-linecap:square;stroke-width:2;"/>
   </g>
   <g id="line2d_14">
    <path clip-path="url(#p04ac0ee714)" d="M 384.96 248.928 
L 384.96 100.128 
" style="fill:none;stroke:#009900;stroke-linecap:square;stroke-width:2;"/>
   </g>
   <g id="line2d_15">
    <path clip-path="url(#p04ac0ee714)" d="M 384.96 100.128 
L 87.36 100.128 
" style="fill:none;stroke:#009900;stroke-linecap:square;stroke-width:2;"/>
   </g>
   <g id="line2d_16">
    <path clip-path="url(#p04ac0ee714)" d="M 87.36 100.128 
L 87.36 248.928 
" style="fill:none;stroke:#009900;stroke-linecap:square;stroke-width:2;"/>
   </g>
   <g id="line2d_17">
    <path clip-path="url(#p04ac0ee714)" d="M 108.093657 124.062711 
L 109.874061 118.383649 
L 111.425939 112.637932 
L 112.746808 106.834754 
L 113.834555 100.983396 
L 113.973377 100.128 
L 115.027028 105.985593 
L 116.314078 111.796366 
L 117.832468 117.551023 
L 119.579767 123.240357 
L 121.553182 128.855267 
L 123.749555 134.38677 
L 126.165372 139.826017 
L 128.796769 145.164307 
L 131.639535 150.393098 
L 132.39086 151.696145 
L 126.637633 150.172348 
L 120.828072 148.879838 
L 114.971471 147.820682 
L 109.0772 146.996575 
L 103.154689 146.408835 
L 97.213411 146.058403 
L 91.262873 145.945839 
L 87.36 146.00127 
L 90.335504 146.052805 
L 96.286629 145.977329 
L 102.229975 145.663931 
L 108.156034 145.113114 
L 114.055327 144.325758 
L 119.918415 143.303123 
L 125.735918 142.046845 
L 131.49853 140.558934 
L 137.197033 138.84177 
L 142.822309 136.8981 
L 148.365359 134.731034 
L 153.817316 132.344039 
L 159.169457 129.740933 
L 164.413221 126.92588 
L 169.540218 123.903385 
L 174.542247 120.678282 
L 179.411305 117.255731 
L 184.139603 113.641207 
L 188.719576 109.840493 
L 193.143897 105.859669 
L 197.405489 101.705103 
L 198.936984 100.128 
L 203.136734 104.34507 
L 207.501762 108.390822 
L 212.025086 112.258783 
L 216.699468 115.942766 
L 221.517432 119.436876 
L 226.471269 122.735524 
L 231.553054 125.833433 
L 236.16 128.408677 
L 230.971547 131.324418 
L 225.903844 134.445308 
L 220.964996 137.766357 
L 216.162905 141.28225 
L 211.505254 144.987363 
L 206.999493 148.875769 
L 202.652831 152.941247 
L 198.472222 157.177293 
L 195.96035 159.893246 
L 201.911755 159.941914 
L 207.860345 159.75255 
L 213.796604 159.325458 
L 219.711035 158.66132 
L 225.594178 157.761199 
L 231.436619 156.626536 
L 236.16 155.529965 
L 230.357632 154.205539 
L 224.506942 153.114205 
L 218.61729 152.25771 
L 212.698099 151.637423 
L 206.758838 151.254337 
L 200.809008 151.109064 
L 194.858128 151.201837 
L 190.893309 151.395981 
L 192.486021 145.66145 
L 193.848139 139.867814 
L 194.977484 134.024343 
L 195.872249 128.140383 
L 196.531002 122.225349 
L 196.952691 116.288704 
L 197.136639 110.339944 
L 197.082554 104.388587 
L 196.897451 100.128 
L 196.672839 106.075363 
L 196.686238 112.026951 
L 196.937627 117.973243 
L 197.426602 123.904726 
L 198.152383 129.81191 
L 199.113807 135.685345 
L 200.309337 141.515636 
L 201.73706 147.293454 
L 203.394693 153.009557 
L 205.279582 158.654801 
L 207.388714 164.220153 
L 209.718713 169.696711 
L 212.265852 175.075713 
L 215.026056 180.348554 
L 217.99491 185.506798 
L 221.167664 190.542194 
L 224.539242 195.446686 
L 228.104251 200.212428 
L 231.856987 204.831795 
L 236.16 209.697739 
L 232.209236 214.148924 
L 228.439633 218.754537 
L 224.85722 223.50721 
L 221.467729 228.399339 
L 218.276582 233.423099 
L 215.288884 238.570452 
L 212.509416 243.833164 
L 210.067637 248.928 
L 207.489954 243.563568 
L 204.699813 238.306506 
L 201.701678 233.165226 
L 198.500345 228.147951 
L 195.100934 223.262709 
L 191.508886 218.517315 
L 187.729945 213.91936 
L 183.770158 209.4762 
L 180.874263 206.441711 
L 178.252359 202.829656 
L 175.851767 199.066881 
L 173.681126 195.166928 
L 171.748247 191.143832 
L 170.060088 187.012073 
L 168.622723 182.78652 
L 167.441326 178.48238 
L 166.520148 174.115144 
L 165.862505 169.700529 
L 165.470763 165.254423 
L 165.346332 160.792828 
L 165.489661 156.331799 
L 165.900232 151.887392 
L 166.57657 147.475603 
L 167.516239 143.112308 
L 168.715857 138.813211 
L 168.963989 138.032212 
L 168.488915 142.470187 
L 167.748576 146.871689 
L 166.745638 151.220877 
L 165.48371 155.502098 
L 163.967334 159.699945 
L 162.201966 163.79931 
L 160.193961 167.785441 
L 157.950545 171.64399 
L 155.479792 175.361072 
L 152.790594 178.923309 
L 149.892628 182.31788 
L 146.796326 185.53257 
L 143.512829 188.555808 
L 140.053956 191.376714 
L 136.432154 193.985137 
L 132.660457 196.371687 
L 131.952854 196.785 
L 135.279911 193.809767 
L 138.779387 191.039391 
L 142.43869 188.483843 
L 146.244648 186.152321 
L 150.183566 184.053214 
L 154.241266 182.194078 
L 158.403146 180.581603 
L 162.654227 179.221593 
L 166.97921 178.118942 
L 171.36253 177.277619 
L 175.788412 176.700651 
L 180.240926 176.390114 
L 184.70405 176.347127 
L 189.161719 176.571845 
L 193.597893 177.063457 
L 197.996605 177.820196 
L 198.798768 177.987715 
L 194.335491 177.96588 
L 189.881555 177.676447 
L 185.452989 177.12046 
L 181.065732 176.299919 
L 176.735572 175.217776 
L 172.478093 173.877927 
L 168.308618 172.285194 
L 164.242153 170.445308 
L 160.293332 168.364891 
L 156.476368 166.051431 
L 152.804995 163.513254 
L 149.292429 160.759493 
L 145.95131 157.800061 
L 142.793662 154.645607 
L 139.830851 151.307484 
L 137.073538 147.797705 
L 136.590489 147.135743 
L 139.888276 150.143387 
L 142.999778 153.343367 
L 145.913798 156.724167 
L 148.619847 160.27362 
L 151.108188 163.978951 
L 153.369865 167.826825 
L 155.396737 171.803395 
L 157.181512 175.894348 
L 158.717765 180.084962 
L 159.999967 184.360155 
L 161.023505 188.704541 
L 161.784694 193.102485 
L 162.280795 197.538159 
L 162.510022 201.995599 
L 162.471551 206.458764 
L 162.16552 210.91159 
L 162.080345 211.726621 
L 161.648716 207.28421 
L 161.484249 202.823911 
L 161.587534 198.361775 
L 161.958202 193.913863 
L 162.594917 189.496181 
L 163.495388 185.124629 
L 164.656374 180.814939 
L 166.073698 176.582621 
L 167.742258 172.442908 
L 169.656049 168.410697 
L 171.808184 164.500501 
L 174.190918 160.726392 
L 176.795674 157.101952 
L 179.613079 153.640227 
L 182.632994 150.353673 
L 185.844549 147.254119 
L 186.454022 146.706331 
L 183.796902 150.292559 
L 180.92952 153.713003 
L 177.862193 156.955352 
L 174.605962 160.007937 
L 171.172545 162.859772 
L 167.574299 165.500595 
L 163.824173 167.9209 
L 159.935664 170.111977 
L 155.922767 172.065941 
L 151.799924 173.775759 
L 147.581971 175.235279 
L 143.28409 176.439247 
L 138.921749 177.38333 
L 134.510646 178.064131 
L 130.066657 178.479199 
L 125.605776 178.627041 
L 124.786309 178.625093 
L 129.161902 177.744464 
L 133.582427 177.127797 
L 138.031975 176.777313 
L 142.494533 176.694272 
L 146.95404 176.878973 
L 151.394447 177.330752 
L 155.799773 178.047982 
L 160.154164 179.028083 
L 164.441949 180.267527 
L 168.647696 181.761854 
L 172.756269 183.505685 
L 176.752881 185.492744 
L 180.62315 187.715881 
L 184.353147 190.167094 
L 187.929447 192.837561 
L 191.339179 195.717673 
L 191.946041 196.268353 
L 195.915617 200.702769 
L 200.059347 204.974897 
L 204.370603 209.077903 
L 208.842486 213.005223 
L 213.467843 216.750574 
L 218.239275 220.307963 
L 223.149147 223.671701 
L 228.189606 226.836406 
L 233.352587 229.797015 
L 236.16 231.294319 
L 230.934897 234.143859 
L 225.827924 237.200068 
L 220.847253 240.458057 
L 216.00085 243.912613 
L 211.296469 247.558211 
L 209.625021 248.928 
L 204.97408 245.214467 
L 200.178358 241.689892 
L 195.245526 238.359914 
L 190.183477 235.22986 
L 185.000308 232.304738 
L 179.704311 229.589228 
L 174.303959 227.087673 
L 168.807891 224.804075 
L 163.2249 222.742088 
L 157.563917 220.905011 
L 151.833998 219.295782 
L 146.044312 217.916975 
L 140.204118 216.770798 
L 134.322762 215.859082 
L 128.409651 215.183288 
L 122.474245 214.744495 
L 116.52604 214.543407 
L 110.574551 214.580343 
L 104.6293 214.855247 
L 98.699798 215.367677 
L 92.795531 216.116814 
L 87.36 217.020355 
L 93.232483 217.987578 
L 99.138948 218.719191 
L 105.069945 219.214023 
L 111.015985 219.471283 
L 116.967557 219.490558 
L 122.915139 219.271819 
L 128.849217 218.815415 
L 134.760296 218.122076 
L 140.638922 217.192911 
L 146.475688 216.029408 
L 152.261258 214.633427 
L 157.986375 213.007201 
L 161.970364 211.727405 
L 167.667333 213.449651 
L 173.428616 214.9427 
L 179.244997 216.204166 
L 185.10717 217.232029 
L 191.005758 218.024646 
L 196.931324 218.580748 
L 202.874388 218.899446 
L 208.825443 218.98023 
L 214.774969 218.822971 
L 220.713446 218.427919 
L 226.631376 217.795708 
L 232.51929 216.927349 
L 237.640838 216.123338 
L 245.033073 215.283354 
L 252.402001 214.258846 
L 259.743016 213.050454 
L 267.051531 211.658933 
L 274.322978 210.085154 
L 281.552811 208.330098 
L 288.736514 206.394865 
L 295.869597 204.280662 
L 302.9476 201.988811 
L 309.966102 199.520745 
L 316.920716 196.878006 
L 323.807094 194.062245 
L 330.620934 191.075223 
L 337.357977 187.918806 
L 344.014012 184.594966 
L 350.584881 181.105782 
L 357.066475 177.453433 
L 363.454745 173.640203 
L 369.745698 169.668474 
L 375.935402 165.540729 
L 382.019989 161.259548 
L 384.96 159.107979 
L 378.928278 154.752632 
L 372.789568 150.549424 
L 366.547707 146.50098 
L 360.206597 142.609833 
L 353.770199 138.878412 
L 347.242537 135.30905 
L 340.627689 131.903979 
L 333.929791 128.665325 
L 327.153028 125.595114 
L 320.301635 122.695263 
L 313.379895 119.967586 
L 306.392132 117.413786 
L 299.342715 115.03546 
L 292.236049 112.834095 
L 285.076575 110.811065 
L 277.868767 108.967636 
L 270.617131 107.304959 
L 263.326199 105.824074 
L 256.000526 104.525906 
L 248.644692 103.411266 
L 241.263294 102.480852 
L 236.16 101.946814 
L 243.556343 101.143801 
L 251.121778 100.128 
L 258.495093 101.120446 
L 265.890912 101.928268 
L 273.304613 102.550962 
L 280.731564 102.988138 
L 288.167122 103.239523 
L 295.60664 103.304959 
L 303.04547 103.184407 
L 310.478961 102.877941 
L 317.902469 102.385753 
L 325.311354 101.70815 
L 332.700985 100.845556 
L 337.886644 100.128 
L 345.259959 101.120446 
L 352.655778 101.928268 
L 360.069479 102.550962 
L 367.49643 102.988138 
L 374.931988 103.239523 
L 382.371506 103.304959 
L 384.96 103.284112 
L 370.08273 103.471537 
L 362.652258 103.844096 
L 355.233421 104.402281 
L 347.830855 105.145743 
L 340.449187 106.074018 
L 333.09303 107.186525 
L 325.766982 108.482569 
L 318.47562 109.961341 
L 311.223503 111.621915 
L 304.015161 113.463255 
L 296.855101 115.484209 
L 289.747797 117.683514 
L 282.69769 120.059796 
L 275.709188 122.61157 
L 268.786657 125.337241 
L 261.934424 128.235105 
L 255.156771 131.303352 
L 248.457934 134.540064 
L 241.8421 137.943217 
L 236.16 141.03606 
L 233.140365 146.164743 
L 230.328238 151.410076 
L 227.728118 156.763669 
L 225.344165 162.216956 
L 223.180191 167.761215 
L 221.23966 173.387574 
L 219.525675 179.087033 
L 218.040979 184.850475 
L 216.787947 190.668678 
L 215.768583 196.532336 
L 214.984518 202.432067 
L 214.437007 208.358432 
L 214.126925 214.301952 
L 214.054769 220.253118 
L 214.220653 226.202409 
L 214.624313 232.140308 
L 215.265103 238.057315 
L 216.141997 243.943964 
L 217.074268 248.928 
L 218.151216 243.074645 
L 218.993231 237.182906 
L 219.598966 231.262208 
L 219.967451 225.322023 
L 220.098098 219.371854 
L 219.990697 213.421219 
L 219.64542 207.47964 
L 219.062819 201.556621 
L 218.243827 195.661637 
L 217.189753 189.80412 
L 215.902284 183.99344 
L 214.38348 178.238892 
L 212.63577 172.549684 
L 210.661951 166.934916 
L 208.465179 161.403571 
L 206.04897 155.964498 
L 203.417189 150.626399 
L 200.574046 145.397812 
L 197.524089 140.287103 
L 194.272199 135.302448 
L 190.823576 130.451821 
L 187.183738 125.742982 
L 183.358509 121.183465 
L 179.354007 116.780563 
L 175.17664 112.54132 
L 170.833089 108.472518 
L 166.330304 104.580666 
L 161.675488 100.871991 
L 160.693989 100.128 
L 156.008637 103.798021 
L 151.473793 107.65247 
L 147.096715 111.685181 
L 142.884402 115.889703 
L 138.843596 120.25931 
L 134.980759 124.78701 
L 131.302071 129.465562 
L 127.813419 134.287479 
L 124.520382 139.245047 
L 121.428229 144.330337 
L 118.541907 149.535212 
L 115.866033 154.851346 
L 113.404888 160.270234 
L 111.16241 165.783207 
L 109.142185 171.381446 
L 107.347446 177.055993 
L 105.781064 182.797773 
L 104.445546 188.597598 
L 103.343026 194.44619 
L 102.47527 200.334193 
L 101.843665 206.252187 
L 101.449222 212.190705 
L 101.292572 218.140246 
L 101.373965 224.091293 
L 101.693272 230.034325 
L 102.249981 235.959833 
L 103.043202 241.85834 
L 104.071666 247.720408 
L 104.313711 248.928 
L 105.390659 243.074645 
L 106.232674 237.182906 
L 106.838409 231.262208 
L 107.206894 225.322023 
L 107.337541 219.371854 
L 107.23014 213.421219 
L 106.884862 207.47964 
L 106.302262 201.556621 
L 105.483269 195.661637 
L 104.429196 189.80412 
L 103.141727 183.99344 
L 101.622923 178.238892 
L 99.875213 172.549684 
L 97.901394 166.934916 
L 95.704622 161.403571 
L 93.288413 155.964498 
L 90.656632 150.626399 
L 87.813489 145.397812 
L 87.36 144.607808 
L 90.235098 139.396724 
L 92.899508 134.074835 
L 95.348968 128.650656 
L 97.579559 123.132862 
L 99.587713 117.530283 
L 101.370218 111.85188 
L 102.924221 106.106738 
L 104.283578 100.128 
L 105.599582 105.932284 
L 107.146644 111.679299 
L 108.922287 117.359851 
L 110.923672 122.964852 
L 113.147596 128.485336 
L 115.590501 133.912471 
L 118.24848 139.237575 
L 121.11728 144.452128 
L 124.192312 149.547789 
L 127.468657 154.516405 
L 129.063124 156.786684 
L 123.113395 156.637337 
L 117.162452 156.726035 
L 111.219817 157.052637 
L 105.294996 157.616619 
L 99.397468 158.417079 
L 93.536666 159.452738 
L 87.36 160.809044 
L 93.171504 162.092788 
L 99.029696 163.143107 
L 104.925203 163.958321 
L 110.848595 164.537125 
L 116.790394 164.878594 
L 122.741096 164.982181 
L 125.816201 164.942423 
L 130.230291 165.603577 
L 134.596793 166.528228 
L 138.899992 167.713048 
L 143.124401 169.153773 
L 147.254816 170.845218 
L 151.276373 172.781296 
L 155.174599 174.955038 
L 158.935464 177.358622 
L 162.545432 179.983397 
L 165.991513 182.819918 
L 169.261303 185.857974 
L 172.343035 189.086634 
L 175.225619 192.494277 
L 177.89868 196.068639 
L 180.352597 199.796857 
L 182.57854 203.665513 
L 183.229338 204.907393 
L 180.26236 201.572973 
L 177.500665 198.066641 
L 174.954194 194.401016 
L 172.632111 190.589291 
L 170.542773 186.645184 
L 168.693698 182.582889 
L 167.091543 178.417025 
L 165.742072 174.162587 
L 164.650143 169.834884 
L 163.819685 165.449493 
L 163.253688 161.022195 
L 162.954187 156.568925 
L 162.922261 152.105708 
L 163.158025 147.648609 
L 163.66063 143.213668 
L 164.428268 138.816845 
L 164.723655 137.446242 
L 164.867291 141.907261 
L 164.743169 146.368865 
L 164.351734 150.814998 
L 163.694396 155.229658 
L 162.773519 159.596958 
L 161.592419 163.901179 
L 160.155346 168.126832 
L 158.467472 172.258708 
L 156.534872 176.281937 
L 154.3645 180.18204 
L 151.964167 183.944981 
L 149.342513 187.557217 
L 146.508973 191.005748 
L 143.473743 194.278163 
L 140.247748 197.362685 
L 136.842598 200.248213 
L 135.738041 201.111785 
L 138.484372 197.593407 
L 141.436737 194.246041 
L 144.584511 191.081735 
L 147.916365 188.111875 
L 151.420309 185.347151 
L 155.083731 182.797512 
L 158.893447 180.472135 
L 162.835747 178.379389 
L 166.896443 176.526804 
L 171.06092 174.921048 
L 175.31419 173.567901 
L 179.640947 172.472231 
L 184.025619 171.637983 
L 188.452426 171.068159 
L 192.905436 170.764809 
L 197.368623 170.729025 
L 198.770003 170.77305 
L 194.407588 171.716791 
L 189.996431 172.397246 
L 185.55241 172.811966 
L 181.091517 172.959459 
L 176.629807 172.839193 
L 172.183338 172.451601 
L 167.768111 171.798079 
L 163.400017 170.880978 
L 159.094777 169.703599 
L 154.867883 168.270179 
L 150.73455 166.585877 
L 146.709652 164.656754 
L 142.807674 162.489754 
L 139.04266 160.092676 
L 135.428159 157.474145 
L 131.97718 154.643586 
L 130.929007 153.712385 
L 134.884005 155.781034 
L 138.707841 158.083118 
L 142.386755 160.610352 
L 145.907506 163.353641 
L 149.257422 166.303112 
L 152.424448 169.44815 
L 155.397187 172.777436 
L 158.164938 176.278988 
L 160.717743 179.940205 
L 163.046412 183.74791 
L 165.142565 187.6884 
L 166.998659 191.747492 
L 168.608014 195.91058 
L 169.964838 200.162679 
L 171.064246 204.488487 
L 171.902284 208.872437 
L 172.111057 210.258878 
L 170.397999 206.137379 
L 168.935165 201.920575 
L 167.727819 197.623642 
L 166.780308 193.262044 
L 166.09604 188.851477 
L 165.677479 184.407816 
L 165.526131 179.947052 
L 165.64254 175.48524 
L 166.026288 171.038437 
L 166.675994 166.622647 
L 167.589319 162.253762 
L 168.762976 157.947506 
L 170.192742 153.719375 
L 171.873471 149.584587 
L 173.799113 145.558023 
L 175.96274 141.654174 
L 176.690207 140.455593 
L 175.366725 144.718188 
L 173.790023 148.893751 
L 171.965774 152.967255 
L 169.900544 156.92404 
L 167.601766 160.749865 
L 165.077713 164.430961 
L 162.337468 167.954082 
L 159.390894 171.306547 
L 156.248595 174.47629 
L 152.921879 177.451905 
L 149.422721 180.222682 
L 145.763712 182.77865 
L 141.958021 185.11061 
L 138.019345 187.210169 
L 133.961858 189.069771 
L 129.800163 190.682723 
L 128.473891 191.137484 
L 132.220017 188.710993 
L 136.104904 186.513501 
L 140.114571 184.552917 
L 144.234588 182.836297 
L 148.450125 181.369819 
L 152.746014 180.15876 
L 157.106791 179.207478 
L 161.516765 178.519399 
L 165.960062 178.096997 
L 170.420694 177.941793 
L 174.882605 178.054346 
L 179.329738 178.43425 
L 183.746087 179.080139 
L 188.11576 179.989687 
L 192.42303 181.159622 
L 196.652395 182.585732 
L 197.962282 183.085733 
L 193.531148 182.550594 
L 189.140077 181.750709 
L 184.804872 180.688958 
L 180.541135 179.369161 
L 176.364211 177.796069 
L 172.289131 175.975342 
L 168.330563 173.913533 
L 164.502752 171.618063 
L 160.819475 169.097192 
L 157.293988 166.359994 
L 153.938977 163.416318 
L 150.766519 160.27676 
L 147.788029 156.952618 
L 145.014229 153.455856 
L 142.455099 149.799057 
L 140.119851 145.995384 
L 139.433938 144.772547 
L 142.494702 148.021092 
L 145.355163 151.447326 
L 148.005025 155.03892 
L 150.434753 158.782948 
L 152.635602 162.665934 
L 154.599651 166.673905 
L 156.319832 170.792436 
L 157.789954 175.006705 
L 159.004725 179.301544 
L 159.959776 183.661498 
L 160.651667 188.070875 
L 161.077909 192.513806 
L 161.236969 196.974301 
L 161.128273 201.436308 
L 160.752213 205.883768 
L 160.110142 210.300674 
L 159.853919 211.679135 
L 159.583257 207.224019 
L 159.580229 202.76069 
L 159.844845 198.30521 
L 160.376154 193.873616 
L 161.172242 189.481855 
L 162.230246 185.145734 
L 163.546357 180.880858 
L 165.115838 176.702575 
L 166.933042 172.625923 
L 168.991429 168.665574 
L 171.28359 164.835781 
L 173.801276 161.150326 
L 176.535426 157.622474 
L 179.4762 154.264921 
L 182.613015 151.08975 
L 185.934581 148.108388 
L 187.014089 147.2137 
L 184.369103 150.808887 
L 181.513294 154.239 
L 178.456941 157.491695 
L 175.211044 160.555266 
L 171.787283 163.418687 
L 168.197981 166.071653 
L 164.456055 168.504616 
L 160.574972 170.70882 
L 156.568701 172.676333 
L 152.451658 174.400073 
L 148.238662 175.873837 
L 143.944874 177.09232 
L 139.585747 178.051139 
L 135.17697 178.746841 
L 130.734409 179.176924 
L 126.274053 179.339838 
L 124.871987 179.335753 
L 129.205747 178.26812 
L 133.595729 177.462278 
L 138.026132 176.921126 
L 142.481013 176.646614 
L 146.944338 176.639727 
L 151.400044 176.900492 
L 155.832096 177.42797 
L 160.224543 178.220262 
L 164.561577 179.274517 
L 168.82759 180.586941 
L 173.007228 182.152811 
L 177.085448 183.96649 
L 181.047575 186.021453 
L 184.879348 188.310303 
L 188.566978 190.824802 
L 192.097192 193.555902 
L 193.171468 194.456865 
L 197.191388 198.845695 
L 201.383599 203.07026 
L 205.741394 207.123802 
L 210.257802 210.999836 
L 214.925597 214.692162 
L 219.737312 218.194872 
L 224.685249 221.502363 
L 229.761493 224.609344 
L 234.957923 227.510844 
L 236.16 228.143822 
L 243.408013 229.822221 
L 250.695717 231.318915 
L 258.018556 232.632968 
L 265.371956 233.763558 
L 272.751319 234.709979 
L 280.152035 235.471639 
L 287.569477 236.048063 
L 294.999011 236.438889 
L 302.435993 236.643875 
L 309.875775 236.662891 
L 317.313707 236.495927 
L 324.745142 236.143085 
L 332.165434 235.604588 
L 339.569947 234.88077 
L 346.954052 233.972085 
L 354.313135 232.879101 
L 361.642596 231.6025 
L 368.937856 230.143081 
L 376.194354 228.501756 
L 383.407556 226.679549 
L 384.96 226.262166 
L 377.756746 224.401023 
L 370.50922 222.720523 
L 363.22195 221.221718 
L 355.899492 219.905544 
L 348.54642 218.772823 
L 341.167331 217.824265 
L 333.766837 217.06046 
L 326.349561 216.481888 
L 318.920141 216.088908 
L 311.483219 215.881768 
L 304.043443 215.860596 
L 296.605462 216.025406 
L 289.173926 216.376094 
L 281.753478 216.912442 
L 274.348756 217.634115 
L 266.964388 218.54066 
L 259.604989 219.631512 
L 252.275157 220.905989 
L 244.979475 222.363295 
L 237.722502 224.002518 
L 236.16 224.380511 
L 230.937297 227.234447 
L 225.832898 230.294952 
L 220.85497 233.557131 
L 216.011476 237.015765 
L 211.310164 240.66532 
L 206.758557 244.499958 
L 202.363935 248.513545 
L 201.929729 248.928 
L 197.551333 244.896718 
L 193.015232 241.04375 
L 188.328681 237.37526 
L 183.499178 233.897116 
L 178.53445 230.614882 
L 173.442439 227.533811 
L 168.231291 224.65883 
L 162.909342 221.994539 
L 157.485108 219.5452 
L 151.967264 217.314732 
L 146.36464 215.306703 
L 140.686197 213.524326 
L 134.941021 211.970451 
L 129.138301 210.647566 
L 123.287322 209.557785 
L 117.397443 208.702852 
L 111.478088 208.084136 
L 105.538725 207.702626 
L 99.588856 207.558932 
L 93.638001 207.653285 
L 87.36 208.011426 
L 93.301555 208.357118 
L 99.252182 208.464934 
L 105.20236 208.334703 
L 111.142571 207.966632 
L 117.063311 207.361311 
L 122.955109 206.519707 
L 128.808539 205.443168 
L 134.614237 204.133415 
L 138.094866 203.229941 
L 141.91466 200.921155 
L 145.866024 198.845574 
L 149.934738 197.010667 
L 154.106159 195.423038 
L 158.365275 194.088401 
L 162.696756 193.01156 
L 167.085015 192.196389 
L 171.514258 191.645823 
L 175.968545 191.361842 
L 180.431846 191.34547 
L 184.888096 191.596764 
L 189.321259 192.114821 
L 194.065718 192.971986 
L 191.14145 189.600046 
L 188.424639 186.058824 
L 185.925062 182.361063 
L 183.651717 178.520071 
L 181.612783 174.549672 
L 179.815599 170.464155 
L 178.266633 166.278223 
L 176.97146 162.006942 
L 175.934741 157.665683 
L 175.160206 153.27007 
L 174.650644 148.835922 
L 174.407887 144.379198 
L 174.446413 139.558085 
L 171.620397 143.012786 
L 168.592309 146.29181 
L 165.373047 149.383358 
L 161.974196 152.276303 
L 158.407989 154.960234 
L 154.687259 157.42549 
L 150.825398 159.663201 
L 146.836305 161.665313 
L 142.734335 163.424619 
L 138.534251 164.93479 
L 134.251169 166.190389 
L 129.900504 167.186897 
L 125.142953 167.968132 
L 129.027609 170.166032 
L 132.773481 172.592916 
L 136.367086 175.24005 
L 139.795491 178.097909 
L 143.046359 181.156205 
L 146.107989 184.403933 
L 148.969363 187.829405 
L 151.620184 191.420292 
L 154.05091 195.163672 
L 156.252794 199.046071 
L 158.217912 203.053518 
L 159.939191 207.17159 
L 161.517464 211.727209 
L 163.023324 207.525578 
L 164.778421 203.421805 
L 166.776439 199.43066 
L 169.010186 195.566505 
L 171.471624 191.843248 
L 174.151894 188.274289 
L 177.04135 184.872471 
L 180.129594 181.650039 
L 183.40551 178.618588 
L 186.857309 175.78903 
L 190.472568 173.171547 
L 194.238277 170.775559 
L 198.45947 168.446151 
L 194.063065 167.676126 
L 189.720744 166.643861 
L 185.448136 165.353071 
L 181.260617 163.808401 
L 177.173259 162.01541 
L 173.20077 159.980551 
L 169.357448 157.711147 
L 165.657124 155.215366 
L 162.113116 152.50219 
L 158.738178 149.581383 
L 155.544457 146.463457 
L 152.543445 143.159633 
L 149.530649 139.395636 
L 149.518856 143.858951 
L 149.239446 148.313527 
L 148.693424 152.743333 
L 147.882757 157.132426 
L 146.81036 161.46501 
L 145.480094 165.725492 
L 143.896746 169.89854 
L 142.066014 173.969135 
L 139.994488 177.922626 
L 137.689622 181.744787 
L 135.159711 185.421861 
L 132.413861 188.940614 
L 129.216532 192.549173 
L 133.616945 191.802392 
L 138.05422 191.320821 
L 142.512387 191.106194 
L 146.975402 191.159282 
L 151.427202 191.479895 
L 155.851766 192.066879 
L 160.233171 192.918121 
L 164.555647 194.030558 
L 168.803639 195.400186 
L 172.961859 197.022076 
L 177.015341 198.890391 
L 180.949498 200.998408 
L 185.048869 203.536078 
L 183.565233 199.326548 
L 182.336687 195.035628 
L 181.367652 190.678761 
L 180.661617 186.271627 
L 180.221121 181.830086 
L 180.047751 177.370124 
L 180.142129 172.907792 
L 180.503918 168.459149 
L 181.131813 164.040205 
L 182.023557 159.666864 
L 183.175939 155.354865 
L 184.584812 151.119726 
L 186.389018 146.648769 
L 182.492801 148.82611 
L 178.473033 150.7659 
L 174.344181 152.461158 
L 170.121104 153.905783 
L 165.819001 155.094576 
L 161.453355 156.023258 
L 157.039877 156.688488 
L 152.594451 157.08787 
L 148.133076 157.219969 
L 143.671807 157.084308 
L 139.226702 156.681375 
L 134.813756 156.012621 
L 130.101247 154.994353 
L 132.908967 158.463939 
L 135.503584 162.095644 
L 137.875761 165.876398 
L 140.01696 169.792593 
L 141.919475 173.830136 
L 143.576459 177.974496 
L 144.981949 182.210758 
L 146.130887 186.523676 
L 147.019138 190.897728 
L 147.643504 195.317172 
L 148.00174 199.766103 
L 148.092555 204.228509 
L 147.88984 209.045513 
L 150.831886 205.689073 
L 153.969904 202.515091 
L 157.292599 199.534988 
L 160.788015 196.75949 
L 164.44357 194.198585 
L 168.246109 191.86149 
L 172.181948 189.756616 
L 176.236921 187.891539 
L 180.396434 186.27297 
L 184.645519 184.906735 
L 188.968882 183.79775 
L 193.350965 182.950007 
L 198.132365 182.331273 
L 194.324825 180.002333 
L 190.663789 177.449269 
L 187.162433 174.681269 
L 183.833358 171.708295 
L 180.688545 168.541045 
L 177.739312 165.190919 
L 174.996273 161.669974 
L 172.4693 157.990881 
L 170.167487 154.166881 
L 168.099119 150.211736 
L 166.271639 146.139681 
L 164.691624 141.96537 
L 163.269436 137.358636 
L 161.621338 141.506538 
L 159.72748 145.54815 
L 157.59468 149.468925 
L 155.230612 153.254754 
L 152.643785 156.892012 
L 149.843508 160.367608 
L 146.839859 163.669034 
L 143.643648 166.784408 
L 140.266379 169.702519 
L 136.720205 172.412864 
L 133.01789 174.905689 
L 129.172756 177.172023 
L 124.874671 179.356302 
L 129.242298 180.275625 
L 133.546939 181.455195 
L 137.773102 182.890765 
L 141.905578 184.57717 
L 145.929494 186.50834 
L 149.830369 188.677325 
L 153.594163 191.076319 
L 157.207331 193.696688 
L 160.656869 196.529002 
L 163.930363 199.563068 
L 167.016032 202.787966 
L 169.902771 206.19209 
L 172.785613 210.056522 
L 172.949424 205.596198 
L 173.380399 201.153724 
L 174.076988 196.745086 
L 175.036682 192.386152 
L 176.256028 188.092609 
L 177.730638 183.879909 
L 179.455206 179.763213 
L 181.423523 175.757337 
L 183.628507 171.876697 
L 186.062222 168.13526 
L 188.715909 164.546491 
L 191.580018 161.123306 
L 194.898403 157.625744 
L 190.475107 158.22221 
L 186.024004 158.552364 
L 181.561113 158.615017 
L 177.102497 158.409945 
L 172.6642 157.937886 
L 168.262196 157.200538 
L 163.912328 156.200555 
L 159.63025 154.941536 
L 155.431374 153.428012 
L 151.33081 151.66543 
L 147.343316 149.660133 
L 143.483244 147.419339 
L 139.472687 144.743513 
L 140.812081 149.001134 
L 141.893762 153.33141 
L 142.713835 157.718755 
L 143.26935 162.14738 
L 143.558307 166.601347 
L 143.579666 171.064627 
L 143.333351 175.521155 
L 142.820248 179.954895 
L 142.042203 184.349888 
L 141.002017 188.690318 
L 139.703433 192.960563 
L 138.151125 197.145257 
L 136.19568 201.552166 
L 140.163799 199.508798 
L 144.247305 197.70705 
L 148.431504 196.153409 
L 152.701335 194.853464 
L 157.041433 193.811895 
L 161.436178 193.032449 
L 165.869754 192.517933 
L 170.326204 192.270197 
L 174.78949 192.290134 
L 179.243549 192.577672 
L 183.672351 193.131775 
L 188.059957 193.95045 
L 192.735049 195.128639 
L 190.047136 191.565433 
L 187.577723 187.84746 
L 185.335699 183.988102 
L 183.329132 180.001248 
L 181.565243 175.901246 
L 180.050381 171.702852 
L 178.789997 167.421176 
L 177.788628 163.071627 
L 177.049877 158.669858 
L 176.576403 154.231712 
L 176.36991 149.773161 
L 176.431142 145.31025 
L 176.79781 140.502947 
L 173.743148 143.757229 
L 170.498843 146.822486 
L 167.07657 149.687686 
L 163.488647 152.342517 
L 159.747986 154.777424 
L 155.868049 156.983645 
L 151.8628 158.953239 
L 147.746654 160.679118 
L 143.534424 162.15507 
L 139.24127 163.375785 
L 134.882642 164.336869 
L 130.474227 165.034862 
L 125.674527 165.490378 
L 120.169457 167.752189 
L 114.759238 170.232334 
L 109.452527 172.926846 
L 104.257813 175.831415 
L 99.183405 178.941394 
L 94.237422 182.251807 
L 89.427777 185.757359 
L 87.36 187.357599 
L 92.107307 190.94712 
L 96.994359 194.343928 
L 102.013337 197.542589 
L 107.156214 200.537986 
L 112.414761 203.325326 
L 117.780565 205.900152 
L 123.245043 208.258342 
L 128.799452 210.396126 
L 134.434907 212.310082 
L 140.142392 213.99715 
L 145.912776 215.454629 
L 151.736828 216.680189 
L 157.605231 217.671868 
L 163.508597 218.428081 
L 169.43748 218.947617 
L 175.382398 219.229645 
L 181.333838 219.273715 
L 187.282279 219.079755 
L 193.218207 218.648076 
L 199.132124 217.979369 
L 205.014569 217.074703 
L 210.856131 215.935525 
L 216.647467 214.563659 
L 222.379309 212.961298 
L 228.04249 211.131006 
L 233.627948 209.075712 
L 236.16 208.059197 
L 230.613166 205.901834 
L 224.984497 203.968011 
L 219.282999 202.260822 
L 213.517791 200.782998 
L 207.698098 199.536902 
L 201.83323 198.524529 
L 195.932569 197.747498 
L 191.179352 197.295119 
L 193.233646 202.880946 
L 195.50967 208.380154 
L 198.003783 213.783947 
L 200.711995 219.08368 
L 203.629973 224.270874 
L 206.75305 229.337231 
L 210.076229 234.274646 
L 213.594194 239.075219 
L 217.301316 243.731271 
L 221.191666 248.235354 
L 221.818491 248.928 
L 225.73704 244.44843 
L 229.47332 239.815742 
L 233.021354 235.037349 
L 236.16 230.449752 
L 232.792911 225.542177 
L 229.232265 220.773175 
L 225.483757 216.150376 
L 221.553386 211.681175 
L 217.447438 207.372721 
L 213.172482 203.231908 
L 208.735357 199.26536 
L 204.143162 195.479422 
L 199.403243 191.880152 
L 195.865776 189.381822 
L 192.02737 187.104114 
L 188.33245 184.600339 
L 184.794316 181.879507 
L 181.425701 178.95141 
L 178.238728 175.826587 
L 175.244867 172.516283 
L 172.454892 169.032412 
L 169.878844 165.387512 
L 167.525995 161.5947 
L 165.404811 157.667628 
L 163.522928 153.620427 
L 161.887117 149.467664 
L 160.503267 145.224283 
L 159.376356 140.905558 
L 158.671495 137.456432 
L 158.485506 141.915886 
L 158.032444 146.356162 
L 157.31394 150.761281 
L 156.332581 155.115388 
L 155.091899 159.402815 
L 153.596357 163.60813 
L 151.851339 167.716199 
L 149.863125 171.712237 
L 147.63887 175.581864 
L 145.18658 179.311152 
L 142.515079 182.88668 
L 139.633982 186.29558 
L 136.553658 189.525584 
L 133.285194 192.565067 
L 130.58235 194.820711 
L 134.597088 192.870533 
L 138.721543 191.164605 
L 142.94087 189.709065 
L 147.239885 188.509152 
L 151.603115 187.569185 
L 156.014859 186.892545 
L 160.459237 186.481669 
L 164.920256 186.338035 
L 169.38186 186.462161 
L 173.827992 186.853598 
L 178.242652 187.510939 
L 182.609951 188.431818 
L 186.914172 189.61292 
L 191.139824 191.049996 
L 194.407176 192.360607 
L 190.786903 189.750063 
L 187.329683 186.927131 
L 184.047958 183.901969 
L 180.95354 180.685466 
L 178.057564 177.289197 
L 175.370453 173.725385 
L 172.901879 170.006856 
L 170.660724 166.146993 
L 168.655054 162.159687 
L 166.892089 158.059288 
L 165.378173 153.860553 
L 164.118753 149.578593 
L 163.118364 145.228819 
L 162.380605 140.826884 
L 161.985762 137.328685 
L 161.403304 141.753847 
L 160.556545 146.13612 
L 159.44853 150.459733 
L 158.083248 154.709124 
L 156.465613 158.869 
L 154.601445 162.924392 
L 152.497455 166.860702 
L 150.161213 170.663766 
L 147.601129 174.319896 
L 144.826415 177.815934 
L 141.847058 181.139298 
L 138.67378 184.278028 
L 135.318001 187.220827 
L 131.791798 189.957104 
L 128.898785 191.963039 
L 133.07127 190.378208 
L 137.33128 189.046428 
L 141.663483 187.972492 
L 146.052287 187.160265 
L 150.481899 186.612669 
L 154.936375 186.331676 
L 159.399685 186.318297 
L 163.855767 186.57258 
L 168.288581 187.09361 
L 172.682176 187.879512 
L 177.020739 188.927457 
L 181.288656 190.233674 
L 185.470567 191.793462 
L 189.551422 193.601207 
L 192.689051 195.197635 
L 189.31569 192.275007 
L 186.123652 189.155357 
L 183.124425 185.849915 
L 180.328802 182.370574 
L 177.746845 178.729858 
L 175.387845 174.940868 
L 173.260294 171.017241 
L 171.371848 166.973099 
L 169.729303 162.822995 
L 168.33857 158.581865 
L 167.204655 154.264973 
L 166.331639 149.887855 
L 165.722663 145.466264 
L 165.37992 141.016113 
L 165.298233 137.49665 
L 164.323939 141.852344 
L 163.090212 146.141777 
L 161.601495 150.349512 
L 159.863143 154.460407 
L 157.881414 158.459665 
L 155.66344 162.332895 
L 153.217202 166.066156 
L 150.551505 169.646013 
L 147.675942 173.059583 
L 144.600862 176.294579 
L 141.337333 179.339361 
L 137.897098 182.182969 
L 134.292541 184.81517 
L 130.536632 187.22649 
L 127.476448 188.966769 
L 131.77351 187.759884 
L 136.13521 186.812839 
L 140.54585 186.129044 
L 144.989556 185.710959 
L 149.450336 185.560088 
L 153.912135 185.676975 
L 158.358897 186.0612 
L 162.774617 186.711378 
L 167.143405 187.625171 
L 171.449536 188.79929 
L 175.677513 190.229508 
L 179.812121 191.91068 
L 183.838479 193.836754 
L 187.742096 196.000798 
L 190.725059 197.870351 
L 187.625427 194.658872 
L 184.723945 191.267305 
L 182.031057 187.707857 
L 179.556453 183.993338 
L 177.309039 180.137116 
L 175.296905 176.153069 
L 173.52729 172.055535 
L 172.006564 167.859261 
L 170.7402 163.57935 
L 169.732756 159.231204 
L 168.987856 154.830472 
L 168.508183 150.392991 
L 168.295462 145.934733 
L 168.350458 141.471741 
L 168.582577 137.958991 
L 167.224191 142.210591 
L 165.613306 146.373086 
L 163.755719 150.431496 
L 161.658117 154.371215 
L 159.328048 158.178064 
L 156.773898 161.838342 
L 154.004859 165.338877 
L 151.030897 168.667069 
L 147.862715 171.810943 
L 144.511714 174.759182 
L 140.989955 177.501176 
L 137.310113 180.027057 
L 133.48543 182.327736 
L 129.529672 184.39493 
L 126.326643 185.855719 
L 130.714124 185.036373 
L 135.142842 184.481593 
L 139.596857 184.193374 
L 144.060139 184.172755 
L 148.516627 184.419809 
L 152.950281 184.933647 
L 157.345145 185.71242 
L 161.685403 186.753326 
L 165.955433 188.052617 
L 170.139869 189.605619 
L 174.223651 191.406742 
L 178.192082 193.449504 
L 182.030879 195.726553 
L 185.726228 198.229694 
L 189.781222 201.164108 
L 194.861634 204.26427 
L 200.061955 207.158789 
L 205.373866 209.843036 
L 210.78887 212.312715 
L 216.298302 214.563877 
L 221.893351 216.59292 
L 227.565064 218.396597 
L 233.304368 219.972024 
L 236.16 220.664871 
L 243.561459 221.419274 
L 250.979463 221.988425 
L 258.409376 222.371967 
L 265.846555 222.569661 
L 273.286352 222.581383 
L 280.724118 222.407125 
L 288.155203 222.046998 
L 295.574963 221.501225 
L 302.978763 220.770148 
L 310.361973 219.854224 
L 317.719981 218.754024 
L 325.048188 217.470238 
L 332.342013 216.003667 
L 339.596898 214.355227 
L 346.80831 212.525949 
L 353.971741 210.516977 
L 361.082715 208.329565 
L 368.136787 205.96508 
L 375.129548 203.425001 
L 382.05663 200.710915 
L 384.96 199.513392 
L 384.96 199.513392 
" style="fill:none;stroke:#1f77b4;stroke-linecap:square;stroke-width:1.5;"/>
   </g>
   <g id="patch_5">
    <path d="M 57.6 263.808 
L 57.6 85.248 
" style="fill:none;stroke:#000000;stroke-linecap:square;stroke-linejoin:miter;stroke-width:0.8;"/>
   </g>
   <g id="patch_6">
    <path d="M 414.72 263.808 
L 414.72 85.248 
" style="fill:none;stroke:#000000;stroke-linecap:square;stroke-linejoin:miter;stroke-width:0.8;"/>
   </g>
   <g id="patch_7">
    <path d="M 57.6 263.808 
L 414.72 263.808 
" style="fill:none;stroke:#000000;stroke-linecap:square;stroke-linejoin:miter;stroke-width:0.8;"/>
   </g>
   <g id="patch_8">
    <path d="M 57.6 85.248 
L 414.72 85.248 
" style="fill:none;stroke:#000000;stroke-linecap:square;stroke-linejoin:miter;stroke-width:0.8;"/>
   </g>
  </g>
 </g>
 <defs>
  <clipPath id="p04ac0ee714">
   <rect height="178.56" width="357.12" x="57.6" y="85.248"/>
  </clipPath>
 </defs>
</svg>
