<?xml version="1.0" encoding="utf-8" standalone="no"?>
<!DOCTYPE svg PUBLIC "-//W3C//DTD SVG 1.1//EN"
  "http://www.w3.org/Graphics/SVG/1.1/DTD/svg11.dtd">
<!-- Created with matplotlib (http://matplotlib.org/) -->
<svg height="345.6pt" version="1.1" viewBox="0 0 460.8 345.6" width="460.8pt" xmlns="http://www.w3.org/2000/svg" xmlns:xlink="http://www.w3.org/1999/xlink">
 <defs>
  <style type="text/css">
*{stroke-linecap:butt;stroke-linejoin:round;}
  </style>
 </defs>
 <g id="figure_1">
  <g id="patch_1">
   <path d="M 0 345.6 
L 460.8 345.6 
L 460.8 0 
L 0 0 
z
" style="fill:#ffffff;"/>
  </g>
  <g id="axes_1">
   <g id="patch_2">
    <path d="M 57.6 263.808 
L 414.72 263.808 
L 414.72 85.248 
L 57.6 85.248 
z
" style="fill:#ffffff;"/>
   </g>
   <g id="PathCollection_1">
    <defs>
     <path d="M 0 3 
C 0.795609 3 1.55874 2.683901 2.12132 2.12132 
C 2.683901 1.55874 3 0.795609 3 0 
C 3 -0.795609 2.683901 -1.55874 2.12132 -2.12132 
C 1.55874 -2.683901 0.795609 -3 0 -3 
C -0.795609 -3 -1.55874 -2.683901 -2.12132 -2.12132 
C -2.683901 -1.55874 -3 -0.795609 -3 0 
C -3 0.795609 -2.683901 1.55874 -2.12132 2.12132 
C -1.55874 2.683901 -0.795609 3 0 3 
z
" id="m7888902fed" style="stroke:#000000;"/>
    </defs>
    <g clip-path="url(#p41c098abb6)">
     <use style="stroke:#000000;" x="230.226063" xlink:href="#m7888902fed" y="221.401999"/>
    </g>
   </g>
   <g id="patch_3">
    <path clip-path="url(#p41c098abb6)" d="M 161.76 211.728 
C 171.625555 211.728 181.088371 207.808373 188.064372 200.832372 
C 195.040373 193.856371 198.96 184.393555 198.96 174.528 
C 198.96 164.662445 195.040373 155.199629 188.064372 148.223628 
C 181.088371 141.247627 171.625555 137.328 161.76 137.328 
C 151.894445 137.328 142.431629 141.247627 135.455628 148.223628 
C 128.479627 155.199629 124.56 164.662445 124.56 174.528 
C 124.56 184.393555 128.479627 193.856371 135.455628 200.832372 
C 142.431629 207.808373 151.894445 211.728 161.76 211.728 
z
" style="fill:#cc0000;fill-opacity:0.1;stroke:#cc0000;stroke-dasharray:7.4,3.2;stroke-dashoffset:0;stroke-linejoin:miter;stroke-width:2;"/>
   </g>
   <g id="patch_4">
    <path clip-path="url(#p41c098abb6)" d="M 310.56 196.848 
C 316.479333 196.848 322.157023 194.496224 326.342623 190.310623 
C 330.528224 186.125023 332.88 180.447333 332.88 174.528 
C 332.88 168.608667 330.528224 162.930977 326.342623 158.745377 
C 322.157023 154.559776 316.479333 152.208 310.56 152.208 
C 304.640667 152.208 298.962977 154.559776 294.777377 158.745377 
C 290.591776 162.930977 288.24 168.608667 288.24 174.528 
C 288.24 180.447333 290.591776 186.125023 294.777377 190.310623 
C 298.962977 194.496224 304.640667 196.848 310.56 196.848 
z
" style="fill:#cc0000;fill-opacity:0.1;stroke:#cc0000;stroke-dasharray:7.4,3.2;stroke-dashoffset:0;stroke-linejoin:miter;stroke-width:2;"/>
   </g>
   <g id="matplotlib.axis_1">
    <g id="xtick_1">
     <g id="line2d_1">
      <defs>
       <path d="M 0 0 
L 0 3.5 
" id="me668c5a4e4" style="stroke:#000000;stroke-width:0.8;"/>
      </defs>
      <g>
       <use style="stroke:#000000;stroke-width:0.8;" x="87.36" xlink:href="#me668c5a4e4" y="263.808"/>
      </g>
     </g>
     <g id="text_1">
      <!-- 0.0 -->
      <defs>
       <path d="M 31.78125 66.40625 
Q 24.171875 66.40625 20.328125 58.90625 
Q 16.5 51.421875 16.5 36.375 
Q 16.5 21.390625 20.328125 13.890625 
Q 24.171875 6.390625 31.78125 6.390625 
Q 39.453125 6.390625 43.28125 13.890625 
Q 47.125 21.390625 47.125 36.375 
Q 47.125 51.421875 43.28125 58.90625 
Q 39.453125 66.40625 31.78125 66.40625 
z
M 31.78125 74.21875 
Q 44.046875 74.21875 50.515625 64.515625 
Q 56.984375 54.828125 56.984375 36.375 
Q 56.984375 17.96875 50.515625 8.265625 
Q 44.046875 -1.421875 31.78125 -1.421875 
Q 19.53125 -1.421875 13.0625 8.265625 
Q 6.59375 17.96875 6.59375 36.375 
Q 6.59375 54.828125 13.0625 64.515625 
Q 19.53125 74.21875 31.78125 74.21875 
z
" id="DejaVuSans-30"/>
       <path d="M 10.6875 12.40625 
L 21 12.40625 
L 21 0 
L 10.6875 0 
z
" id="DejaVuSans-2e"/>
      </defs>
      <g transform="translate(79.408438 278.406437)scale(0.1 -0.1)">
       <use xlink:href="#DejaVuSans-30"/>
       <use x="63.623047" xlink:href="#DejaVuSans-2e"/>
       <use x="95.410156" xlink:href="#DejaVuSans-30"/>
      </g>
     </g>
    </g>
    <g id="xtick_2">
     <g id="line2d_2">
      <g>
       <use style="stroke:#000000;stroke-width:0.8;" x="161.76" xlink:href="#me668c5a4e4" y="263.808"/>
      </g>
     </g>
     <g id="text_2">
      <!-- 0.5 -->
      <defs>
       <path d="M 10.796875 72.90625 
L 49.515625 72.90625 
L 49.515625 64.59375 
L 19.828125 64.59375 
L 19.828125 46.734375 
Q 21.96875 47.46875 24.109375 47.828125 
Q 26.265625 48.1875 28.421875 48.1875 
Q 40.625 48.1875 47.75 41.5 
Q 54.890625 34.8125 54.890625 23.390625 
Q 54.890625 11.625 47.5625 5.09375 
Q 40.234375 -1.421875 26.90625 -1.421875 
Q 22.3125 -1.421875 17.546875 -0.640625 
Q 12.796875 0.140625 7.71875 1.703125 
L 7.71875 11.625 
Q 12.109375 9.234375 16.796875 8.0625 
Q 21.484375 6.890625 26.703125 6.890625 
Q 35.15625 6.890625 40.078125 11.328125 
Q 45.015625 15.765625 45.015625 23.390625 
Q 45.015625 31 40.078125 35.4375 
Q 35.15625 39.890625 26.703125 39.890625 
Q 22.75 39.890625 18.8125 39.015625 
Q 14.890625 38.140625 10.796875 36.28125 
z
" id="DejaVuSans-35"/>
      </defs>
      <g transform="translate(153.808437 278.406437)scale(0.1 -0.1)">
       <use xlink:href="#DejaVuSans-30"/>
       <use x="63.623047" xlink:href="#DejaVuSans-2e"/>
       <use x="95.410156" xlink:href="#DejaVuSans-35"/>
      </g>
     </g>
    </g>
    <g id="xtick_3">
     <g id="line2d_3">
      <g>
       <use style="stroke:#000000;stroke-width:0.8;" x="236.16" xlink:href="#me668c5a4e4" y="263.808"/>
      </g>
     </g>
     <g id="text_3">
      <!-- 1.0 -->
      <defs>
       <path d="M 12.40625 8.296875 
L 28.515625 8.296875 
L 28.515625 63.921875 
L 10.984375 60.40625 
L 10.984375 69.390625 
L 28.421875 72.90625 
L 38.28125 72.90625 
L 38.28125 8.296875 
L 54.390625 8.296875 
L 54.390625 0 
L 12.40625 0 
z
" id="DejaVuSans-31"/>
      </defs>
      <g transform="translate(228.208437 278.406437)scale(0.1 -0.1)">
       <use xlink:href="#DejaVuSans-31"/>
       <use x="63.623047" xlink:href="#DejaVuSans-2e"/>
       <use x="95.410156" xlink:href="#DejaVuSans-30"/>
      </g>
     </g>
    </g>
    <g id="xtick_4">
     <g id="line2d_4">
      <g>
       <use style="stroke:#000000;stroke-width:0.8;" x="310.56" xlink:href="#me668c5a4e4" y="263.808"/>
      </g>
     </g>
     <g id="text_4">
      <!-- 1.5 -->
      <g transform="translate(302.608437 278.406437)scale(0.1 -0.1)">
       <use xlink:href="#DejaVuSans-31"/>
       <use x="63.623047" xlink:href="#DejaVuSans-2e"/>
       <use x="95.410156" xlink:href="#DejaVuSans-35"/>
      </g>
     </g>
    </g>
    <g id="xtick_5">
     <g id="line2d_5">
      <g>
       <use style="stroke:#000000;stroke-width:0.8;" x="384.96" xlink:href="#me668c5a4e4" y="263.808"/>
      </g>
     </g>
     <g id="text_5">
      <!-- 2.0 -->
      <defs>
       <path d="M 19.1875 8.296875 
L 53.609375 8.296875 
L 53.609375 0 
L 7.328125 0 
L 7.328125 8.296875 
Q 12.9375 14.109375 22.625 23.890625 
Q 32.328125 33.6875 34.8125 36.53125 
Q 39.546875 41.84375 41.421875 45.53125 
Q 43.3125 49.21875 43.3125 52.78125 
Q 43.3125 58.59375 39.234375 62.25 
Q 35.15625 65.921875 28.609375 65.921875 
Q 23.96875 65.921875 18.8125 64.3125 
Q 13.671875 62.703125 7.8125 59.421875 
L 7.8125 69.390625 
Q 13.765625 71.78125 18.9375 73 
Q 24.125 74.21875 28.421875 74.21875 
Q 39.75 74.21875 46.484375 68.546875 
Q 53.21875 62.890625 53.21875 53.421875 
Q 53.21875 48.921875 51.53125 44.890625 
Q 49.859375 40.875 45.40625 35.40625 
Q 44.1875 33.984375 37.640625 27.21875 
Q 31.109375 20.453125 19.1875 8.296875 
z
" id="DejaVuSans-32"/>
      </defs>
      <g transform="translate(377.008437 278.406437)scale(0.1 -0.1)">
       <use xlink:href="#DejaVuSans-32"/>
       <use x="63.623047" xlink:href="#DejaVuSans-2e"/>
       <use x="95.410156" xlink:href="#DejaVuSans-30"/>
      </g>
     </g>
    </g>
   </g>
   <g id="matplotlib.axis_2">
    <g id="ytick_1">
     <g id="line2d_6">
      <defs>
       <path d="M 0 0 
L -3.5 0 
" id="m2cbec279fa" style="stroke:#000000;stroke-width:0.8;"/>
      </defs>
      <g>
       <use style="stroke:#000000;stroke-width:0.8;" x="57.6" xlink:href="#m2cbec279fa" y="248.928"/>
      </g>
     </g>
     <g id="text_6">
      <!-- 0.0 -->
      <g transform="translate(34.696875 252.727219)scale(0.1 -0.1)">
       <use xlink:href="#DejaVuSans-30"/>
       <use x="63.623047" xlink:href="#DejaVuSans-2e"/>
       <use x="95.410156" xlink:href="#DejaVuSans-30"/>
      </g>
     </g>
    </g>
    <g id="ytick_2">
     <g id="line2d_7">
      <g>
       <use style="stroke:#000000;stroke-width:0.8;" x="57.6" xlink:href="#m2cbec279fa" y="219.168"/>
      </g>
     </g>
     <g id="text_7">
      <!-- 0.2 -->
      <g transform="translate(34.696875 222.967219)scale(0.1 -0.1)">
       <use xlink:href="#DejaVuSans-30"/>
       <use x="63.623047" xlink:href="#DejaVuSans-2e"/>
       <use x="95.410156" xlink:href="#DejaVuSans-32"/>
      </g>
     </g>
    </g>
    <g id="ytick_3">
     <g id="line2d_8">
      <g>
       <use style="stroke:#000000;stroke-width:0.8;" x="57.6" xlink:href="#m2cbec279fa" y="189.408"/>
      </g>
     </g>
     <g id="text_8">
      <!-- 0.4 -->
      <defs>
       <path d="M 37.796875 64.3125 
L 12.890625 25.390625 
L 37.796875 25.390625 
z
M 35.203125 72.90625 
L 47.609375 72.90625 
L 47.609375 25.390625 
L 58.015625 25.390625 
L 58.015625 17.1875 
L 47.609375 17.1875 
L 47.609375 0 
L 37.796875 0 
L 37.796875 17.1875 
L 4.890625 17.1875 
L 4.890625 26.703125 
z
" id="DejaVuSans-34"/>
      </defs>
      <g transform="translate(34.696875 193.207219)scale(0.1 -0.1)">
       <use xlink:href="#DejaVuSans-30"/>
       <use x="63.623047" xlink:href="#DejaVuSans-2e"/>
       <use x="95.410156" xlink:href="#DejaVuSans-34"/>
      </g>
     </g>
    </g>
    <g id="ytick_4">
     <g id="line2d_9">
      <g>
       <use style="stroke:#000000;stroke-width:0.8;" x="57.6" xlink:href="#m2cbec279fa" y="159.648"/>
      </g>
     </g>
     <g id="text_9">
      <!-- 0.6 -->
      <defs>
       <path d="M 33.015625 40.375 
Q 26.375 40.375 22.484375 35.828125 
Q 18.609375 31.296875 18.609375 23.390625 
Q 18.609375 15.53125 22.484375 10.953125 
Q 26.375 6.390625 33.015625 6.390625 
Q 39.65625 6.390625 43.53125 10.953125 
Q 47.40625 15.53125 47.40625 23.390625 
Q 47.40625 31.296875 43.53125 35.828125 
Q 39.65625 40.375 33.015625 40.375 
z
M 52.59375 71.296875 
L 52.59375 62.3125 
Q 48.875 64.0625 45.09375 64.984375 
Q 41.3125 65.921875 37.59375 65.921875 
Q 27.828125 65.921875 22.671875 59.328125 
Q 17.53125 52.734375 16.796875 39.40625 
Q 19.671875 43.65625 24.015625 45.921875 
Q 28.375 48.1875 33.59375 48.1875 
Q 44.578125 48.1875 50.953125 41.515625 
Q 57.328125 34.859375 57.328125 23.390625 
Q 57.328125 12.15625 50.6875 5.359375 
Q 44.046875 -1.421875 33.015625 -1.421875 
Q 20.359375 -1.421875 13.671875 8.265625 
Q 6.984375 17.96875 6.984375 36.375 
Q 6.984375 53.65625 15.1875 63.9375 
Q 23.390625 74.21875 37.203125 74.21875 
Q 40.921875 74.21875 44.703125 73.484375 
Q 48.484375 72.75 52.59375 71.296875 
z
" id="DejaVuSans-36"/>
      </defs>
      <g transform="translate(34.696875 163.447219)scale(0.1 -0.1)">
       <use xlink:href="#DejaVuSans-30"/>
       <use x="63.623047" xlink:href="#DejaVuSans-2e"/>
       <use x="95.410156" xlink:href="#DejaVuSans-36"/>
      </g>
     </g>
    </g>
    <g id="ytick_5">
     <g id="line2d_10">
      <g>
       <use style="stroke:#000000;stroke-width:0.8;" x="57.6" xlink:href="#m2cbec279fa" y="129.888"/>
      </g>
     </g>
     <g id="text_10">
      <!-- 0.8 -->
      <defs>
       <path d="M 31.78125 34.625 
Q 24.75 34.625 20.71875 30.859375 
Q 16.703125 27.09375 16.703125 20.515625 
Q 16.703125 13.921875 20.71875 10.15625 
Q 24.75 6.390625 31.78125 6.390625 
Q 38.8125 6.390625 42.859375 10.171875 
Q 46.921875 13.96875 46.921875 20.515625 
Q 46.921875 27.09375 42.890625 30.859375 
Q 38.875 34.625 31.78125 34.625 
z
M 21.921875 38.8125 
Q 15.578125 40.375 12.03125 44.71875 
Q 8.5 49.078125 8.5 55.328125 
Q 8.5 64.0625 14.71875 69.140625 
Q 20.953125 74.21875 31.78125 74.21875 
Q 42.671875 74.21875 48.875 69.140625 
Q 55.078125 64.0625 55.078125 55.328125 
Q 55.078125 49.078125 51.53125 44.71875 
Q 48 40.375 41.703125 38.8125 
Q 48.828125 37.15625 52.796875 32.3125 
Q 56.78125 27.484375 56.78125 20.515625 
Q 56.78125 9.90625 50.3125 4.234375 
Q 43.84375 -1.421875 31.78125 -1.421875 
Q 19.734375 -1.421875 13.25 4.234375 
Q 6.78125 9.90625 6.78125 20.515625 
Q 6.78125 27.484375 10.78125 32.3125 
Q 14.796875 37.15625 21.921875 38.8125 
z
M 18.3125 54.390625 
Q 18.3125 48.734375 21.84375 45.5625 
Q 25.390625 42.390625 31.78125 42.390625 
Q 38.140625 42.390625 41.71875 45.5625 
Q 45.3125 48.734375 45.3125 54.390625 
Q 45.3125 60.0625 41.71875 63.234375 
Q 38.140625 66.40625 31.78125 66.40625 
Q 25.390625 66.40625 21.84375 63.234375 
Q 18.3125 60.0625 18.3125 54.390625 
z
" id="DejaVuSans-38"/>
      </defs>
      <g transform="translate(34.696875 133.687219)scale(0.1 -0.1)">
       <use xlink:href="#DejaVuSans-30"/>
       <use x="63.623047" xlink:href="#DejaVuSans-2e"/>
       <use x="95.410156" xlink:href="#DejaVuSans-38"/>
      </g>
     </g>
    </g>
    <g id="ytick_6">
     <g id="line2d_11">
      <g>
       <use style="stroke:#000000;stroke-width:0.8;" x="57.6" xlink:href="#m2cbec279fa" y="100.128"/>
      </g>
     </g>
     <g id="text_11">
      <!-- 1.0 -->
      <g transform="translate(34.696875 103.927219)scale(0.1 -0.1)">
       <use xlink:href="#DejaVuSans-31"/>
       <use x="63.623047" xlink:href="#DejaVuSans-2e"/>
       <use x="95.410156" xlink:href="#DejaVuSans-30"/>
      </g>
     </g>
    </g>
   </g>
   <g id="line2d_12">
    <path clip-path="url(#p41c098abb6)" d="M 236.16 248.928 
L 236.16 100.128 
" style="fill:none;stroke:#cc0000;stroke-dasharray:7.4,3.2;stroke-dashoffset:0;stroke-width:2;"/>
   </g>
   <g id="line2d_13">
    <path clip-path="url(#p41c098abb6)" d="M 87.36 248.928 
L 384.96 248.928 
" style="fill:none;stroke:#009900;stroke-linecap:square;stroke-width:2;"/>
   </g>
   <g id="line2d_14">
    <path clip-path="url(#p41c098abb6)" d="M 384.96 248.928 
L 384.96 100.128 
" style="fill:none;stroke:#009900;stroke-linecap:square;stroke-width:2;"/>
   </g>
   <g id="line2d_15">
    <path clip-path="url(#p41c098abb6)" d="M 384.96 100.128 
L 87.36 100.128 
" style="fill:none;stroke:#009900;stroke-linecap:square;stroke-width:2;"/>
   </g>
   <g id="line2d_16">
    <path clip-path="url(#p41c098abb6)" d="M 87.36 100.128 
L 87.36 248.928 
" style="fill:none;stroke:#009900;stroke-linecap:square;stroke-width:2;"/>
   </g>
   <g id="line2d_17">
    <path clip-path="url(#p41c098abb6)" d="M 230.226063 221.401999 
L 232.994792 216.133629 
L 235.550627 210.758753 
L 236.16 209.389913 
L 233.658416 203.989575 
L 230.942878 198.693592 
L 228.017728 193.510438 
L 224.887648 188.448405 
L 221.557644 183.515591 
L 218.033044 178.719888 
L 214.319486 174.068967 
L 210.422911 169.570268 
L 206.349553 165.23099 
L 202.105928 161.058074 
L 197.698826 157.058195 
L 193.135297 153.237752 
L 191.045015 151.588342 
L 188.524616 146.196758 
L 185.790629 140.910276 
L 182.847425 135.737353 
L 179.699713 130.686265 
L 176.35253 125.765092 
L 172.81123 120.981706 
L 169.081478 116.343762 
L 165.169241 111.858677 
L 161.080778 107.533628 
L 156.82263 103.375533 
L 153.246485 100.128 
L 148.855609 104.145685 
L 144.62891 108.335744 
L 140.573149 112.691474 
L 136.694816 117.205908 
L 133.000114 121.871822 
L 129.494954 126.681753 
L 126.184944 131.628006 
L 123.075379 136.702667 
L 120.171233 141.897618 
L 117.477153 147.204549 
L 114.997449 152.614969 
L 112.736087 158.120224 
L 110.696686 163.711505 
L 108.882508 169.379867 
L 107.296454 175.116244 
L 105.941064 180.911457 
L 104.818504 186.756236 
L 103.930571 192.64123 
L 103.278685 198.557025 
L 102.863889 204.494156 
L 102.686847 210.443125 
L 102.747842 216.394416 
L 103.046777 222.338507 
L 103.583172 228.265889 
L 104.35617 234.16708 
L 105.364535 240.032639 
L 106.606653 245.853182 
L 107.362008 248.928 
L 108.72769 243.135203 
L 109.860629 237.292428 
L 110.759014 231.40902 
L 111.421407 225.494393 
L 111.846747 219.558008 
L 112.034356 213.609362 
L 111.983932 207.657973 
L 111.695556 201.71336 
L 111.16969 195.785034 
L 110.407174 189.88248 
L 109.40923 184.015139 
L 108.177452 178.192398 
L 106.713812 172.423574 
L 105.020652 166.717893 
L 103.10068 161.084485 
L 100.956967 155.532362 
L 98.592943 150.070405 
L 96.01239 144.707353 
L 93.219436 139.451785 
L 90.21855 134.31211 
L 87.36 129.816584 
L 90.542946 124.787624 
L 93.522241 119.635403 
L 96.293119 114.368163 
L 98.851147 108.994331 
L 101.192233 103.522503 
L 102.51678 100.128 
L 104.723182 105.65551 
L 107.14886 111.090367 
L 109.789934 116.423875 
L 112.642179 121.647502 
L 115.701032 126.752891 
L 118.9616 131.731875 
L 122.418665 136.576488 
L 126.066698 141.278981 
L 129.899863 145.831829 
L 133.745851 150.052553 
L 136.870317 153.239878 
L 139.798035 156.608822 
L 142.51847 160.147261 
L 145.02183 163.842462 
L 147.299106 167.681124 
L 149.342103 171.649434 
L 151.143468 175.733109 
L 152.696718 179.917453 
L 153.996263 184.187406 
L 155.037426 188.527602 
L 155.81646 192.92242 
L 156.330562 197.356043 
L 156.57788 201.812516 
L 156.557525 206.2758 
L 156.269571 210.729832 
L 156.137459 212.79809 
L 155.987798 218.747811 
L 156.076182 224.698758 
L 156.402469 230.641411 
L 156.966139 236.566262 
L 157.766288 242.463832 
L 158.801637 248.324688 
L 158.922 248.928 
L 159.981572 243.071475 
L 160.806097 237.177262 
L 161.394258 231.254793 
L 161.745112 225.31354 
L 161.858099 219.363009 
L 161.733037 213.41272 
L 161.632373 210.240037 
L 161.745039 205.778128 
L 162.125056 201.331005 
L 162.771057 196.914672 
L 163.680717 192.545022 
L 164.850761 188.237782 
L 166.276979 184.008454 
L 167.954238 179.872257 
L 169.876502 175.844079 
L 172.036853 171.938416 
L 174.427515 168.169325 
L 177.039886 164.550369 
L 179.864562 161.094574 
L 182.891379 157.814376 
L 186.109443 154.721581 
L 189.507173 151.827319 
L 190.568424 150.992607 
L 184.705177 155.56752 
L 180.978125 158.023208 
L 177.110527 160.250987 
L 173.116302 162.242842 
L 169.009825 163.991602 
L 164.805874 165.490975 
L 160.51958 166.735564 
L 156.166368 167.720889 
L 151.761906 168.443406 
L 147.322044 168.900514 
L 142.862762 169.090567 
L 138.400108 169.012881 
L 133.950142 168.667737 
L 129.52888 168.056376 
L 125.286513 167.211941 
L 129.660551 168.100257 
L 133.973452 169.249259 
L 138.209693 170.654813 
L 142.354028 172.311859 
L 146.391543 174.214434 
L 150.307706 176.355692 
L 154.088424 178.727925 
L 157.720091 181.322596 
L 161.189635 184.130368 
L 164.484571 187.141135 
L 167.593039 190.344061 
L 170.503855 193.727621 
L 173.20654 197.279636 
L 175.691369 200.987323 
L 177.949399 204.837338 
L 179.263362 207.352873 
L 176.528916 202.067969 
L 174.760129 197.970078 
L 173.24025 193.773497 
L 171.97475 189.49333 
L 170.968184 185.144981 
L 170.224173 180.744098 
L 169.745395 176.306521 
L 169.533574 171.84822 
L 169.589472 167.38524 
L 169.912887 162.933642 
L 170.502656 158.509448 
L 171.356656 154.12858 
L 172.471814 149.806805 
L 173.844116 145.559676 
L 175.468623 141.402478 
L 176.008797 140.165058 
L 173.007039 146.969243 
L 170.884926 150.895814 
L 168.531179 154.688068 
L 165.954268 158.332358 
L 163.163469 161.815568 
L 160.168823 165.125164 
L 156.981111 168.249232 
L 153.611802 171.176531 
L 150.073024 173.896526 
L 146.377512 176.399426 
L 142.538566 178.676225 
L 138.570003 180.718728 
L 134.486103 182.519585 
L 130.301566 184.072314 
L 126.164394 185.335072 
L 120.412169 186.862651 
L 114.725633 188.619036 
L 109.113882 190.601416 
L 103.585894 192.806621 
L 98.150513 195.231122 
L 92.816433 197.871042 
L 87.36 200.855243 
L 92.579108 203.715749 
L 97.908431 206.365258 
L 103.339443 208.799531 
L 108.863456 211.014675 
L 114.471633 213.007145 
L 120.155001 214.773755 
L 125.904468 216.311677 
L 131.710837 217.618451 
L 137.564819 218.691988 
L 143.457048 219.530569 
L 149.378098 220.132852 
L 155.318497 220.497875 
L 161.268741 220.625054 
L 167.219311 220.514185 
L 173.160688 220.165444 
L 179.083367 219.579392 
L 184.977872 218.756963 
L 190.834774 217.699476 
L 196.644703 216.408621 
L 202.398364 214.886463 
L 208.086553 213.135437 
L 213.70017 211.158345 
L 219.230233 208.95835 
L 224.667897 206.538972 
L 230.004462 203.904079 
L 235.23139 201.057889 
L 236.16 200.52345 
L 243.319418 198.500222 
L 250.426023 196.298659 
L 257.475375 193.920138 
L 264.463066 191.366145 
L 271.384731 188.638275 
L 278.236044 185.738235 
L 285.012722 182.667835 
L 290.504691 180.182764 
L 296.121713 178.215368 
L 301.812917 176.474168 
L 307.569198 174.961947 
L 313.381347 173.681126 
L 319.240066 172.633754 
L 325.135983 171.821505 
L 331.059664 171.24568 
L 332.620393 171.13367 
L 326.810877 172.426382 
L 320.954313 173.485741 
L 315.060071 174.310052 
L 309.137579 174.897998 
L 303.196314 175.248636 
L 297.245779 175.361407 
L 291.295495 175.23613 
L 288.246816 175.079568 
L 294.173796 174.538747 
L 300.117662 174.235374 
L 306.068906 174.169935 
L 312.018006 174.342535 
L 317.955445 174.752897 
L 323.871725 175.400365 
L 329.75738 176.283903 
L 332.761158 176.828211 
L 326.813619 176.6083 
L 320.879632 176.150727 
L 314.968689 175.456223 
L 309.090247 174.5259 
L 303.25371 173.361247 
L 297.468415 171.964126 
L 291.743618 170.336772 
L 288.833852 169.413618 
L 294.704709 170.390666 
L 300.531798 171.601704 
L 306.305797 173.044795 
L 312.01747 174.71763 
L 317.657678 176.617533 
L 323.217399 178.741464 
L 328.687738 181.086026 
L 331.455918 182.372935 
L 325.757731 180.654724 
L 320.132813 178.710021 
L 314.590161 176.541937 
L 309.138642 174.15394 
L 303.786979 171.549851 
L 298.543732 168.733835 
L 293.41729 165.710398 
L 290.835956 164.080777 
L 296.268308 166.512057 
L 301.59909 169.158629 
L 306.819774 172.016259 
L 311.922006 175.080374 
L 316.897626 178.346074 
L 321.738672 181.808132 
L 326.437401 185.461012 
L 328.789686 187.406702 
L 323.711985 184.302102 
L 318.762497 180.996932 
L 313.94914 177.496479 
L 309.279614 173.806343 
L 304.761389 169.932427 
L 300.401693 165.880929 
L 296.207501 161.658331 
L 294.122725 159.428384 
L 298.762754 163.155543 
L 303.250025 167.065273 
L 307.577358 171.151317 
L 311.737832 175.407141 
L 315.724791 179.825935 
L 319.531856 184.400631 
L 323.152936 189.123909 
L 324.936117 191.601654 
L 320.809624 187.312874 
L 316.857937 182.862509 
L 313.087378 178.257678 
L 309.503979 173.505749 
L 306.113473 168.614322 
L 302.921284 163.591225 
L 299.932519 158.444492 
L 298.480087 155.75946 
L 302.025578 160.53974 
L 305.377072 165.457978 
L 308.529208 170.506306 
L 311.476944 175.676648 
L 314.215563 180.960732 
L 316.740685 186.350105 
L 319.048269 191.836145 
L 320.146204 194.684565 
L 322.229857 201.826631 
L 324.491393 208.914379 
L 326.929397 215.94338 
L 329.542346 222.90924 
L 332.328607 229.807607 
L 335.286439 236.634169 
L 338.413992 243.38466 
L 341.137979 248.928 
L 344.404953 242.24387 
L 347.50382 235.480162 
L 350.432644 228.641104 
L 353.189593 221.730971 
L 355.772946 214.75408 
L 358.181088 207.714792 
L 360.412513 200.617507 
L 362.465827 193.46666 
L 364.339747 186.266719 
L 366.033102 179.022186 
L 367.544833 171.737587 
L 368.873996 164.417474 
L 370.01976 157.066424 
L 370.981408 149.689029 
L 371.75834 142.289901 
L 372.350071 134.873664 
L 372.75623 127.444953 
L 372.976564 120.00841 
L 373.010934 112.568683 
L 372.859321 105.130422 
L 372.652643 100.128 
L 372.375917 107.562658 
L 372.285125 115.00191 
L 372.380322 122.441107 
L 372.661451 129.8756 
L 373.128335 137.300742 
L 373.780682 144.711894 
L 374.618085 152.104422 
L 375.64002 159.473707 
L 376.845849 166.815144 
L 378.234817 174.124144 
L 379.806058 181.39614 
L 381.558588 188.626586 
L 383.491314 195.810964 
L 384.96 200.840742 
L 382.901084 207.989979 
L 381.021525 215.188449 
L 379.322495 222.431654 
L 377.805058 229.715066 
L 376.470161 237.034135 
L 375.318639 244.384286 
L 374.700563 248.928 
L 373.662429 241.560979 
L 372.440463 234.222211 
L 371.035428 226.916282 
L 369.448204 219.647759 
L 367.679781 212.421183 
L 365.731266 205.241071 
L 363.603875 198.111911 
L 361.298938 191.038158 
L 358.817897 184.024232 
L 356.1623 177.074518 
L 353.333809 170.193359 
L 350.334191 163.385055 
L 347.16532 156.653861 
L 343.829177 150.003983 
L 340.327847 143.439579 
L 336.663518 136.96475 
L 332.83848 130.583543 
L 328.855124 124.299946 
L 324.715939 118.117886 
L 320.423512 112.041227 
L 315.980525 106.073766 
L 311.316328 100.128 
L 306.723255 105.980726 
L 302.277921 111.946438 
L 297.983103 118.021408 
L 293.841485 124.201838 
L 289.855657 130.483867 
L 286.028108 136.863568 
L 282.361231 143.336955 
L 278.857318 149.899981 
L 275.518559 156.548545 
L 272.347039 163.278491 
L 269.344742 170.085615 
L 266.513543 176.96566 
L 263.855212 183.914329 
L 261.37141 190.927277 
L 259.06369 198.000123 
L 256.933494 205.128445 
L 254.982153 212.30779 
L 253.210887 219.533669 
L 251.620802 226.801568 
L 250.212893 234.106943 
L 248.988039 241.44523 
L 247.932092 248.928 
L 246.893958 241.560979 
L 245.671992 234.222211 
L 244.266958 226.916282 
L 242.679733 219.647759 
L 240.91131 212.421183 
L 238.962795 205.241071 
L 236.835404 198.111911 
L 236.16 195.975955 
L 238.340995 188.863011 
L 240.343504 181.69777 
L 242.166274 174.484711 
L 243.808168 167.228341 
L 245.268157 159.933196 
L 246.545331 152.603834 
L 247.638891 145.244836 
L 248.548154 137.860802 
L 249.27255 130.456346 
L 249.811628 123.036096 
L 250.165051 115.604689 
L 250.332598 108.16677 
L 250.304588 100.128 
L 250.378361 113.518667 
L 250.679659 120.95237 
L 251.166686 128.376218 
L 251.839138 135.785572 
L 252.696594 143.175801 
L 253.738519 150.542286 
L 254.964262 157.880425 
L 256.373055 165.185629 
L 257.96402 172.453335 
L 259.736161 179.679 
L 261.688371 186.858108 
L 263.81943 193.986173 
L 266.128006 201.058739 
L 268.612657 208.071387 
L 271.271829 215.019733 
L 274.10386 221.899436 
L 277.106982 228.706196 
L 280.279316 235.435759 
L 283.61888 242.083919 
L 287.278661 248.928 
L 290.790453 242.369187 
L 294.137195 235.724637 
L 297.316794 228.998504 
L 300.327264 222.194991 
L 303.166723 215.318351 
L 305.833397 208.37288 
L 308.325619 201.362919 
L 309.831157 196.836097 
L 311.745501 204.025395 
L 313.83896 211.164593 
L 316.110227 218.249228 
L 318.557881 225.274875 
L 321.180394 232.23714 
L 323.976125 239.131675 
L 326.943328 245.954169 
L 328.300827 248.928 
L 331.342793 242.138511 
L 334.214088 235.275102 
L 336.912919 228.342063 
L 339.437598 221.343727 
L 341.786549 214.284467 
L 343.958302 207.168695 
L 345.951501 200.000859 
L 347.764899 192.785438 
L 349.397365 185.526941 
L 350.847877 178.229906 
L 352.115528 170.898891 
L 353.199527 163.538479 
L 354.099197 156.15327 
L 354.813974 148.747879 
L 355.343412 141.326935 
L 355.687181 133.895075 
L 355.845065 126.456945 
L 355.816966 119.017191 
L 355.602901 111.580465 
L 355.203004 104.151414 
L 354.908551 100.128 
L 354.407987 107.550948 
L 354.093134 114.984089 
L 353.964189 122.422777 
L 354.021232 129.862365 
L 354.264227 137.298202 
L 354.693023 144.725641 
L 355.307352 152.14004 
L 356.106829 159.536766 
L 357.090956 166.911196 
L 358.259116 174.25872 
L 359.61058 181.574748 
L 361.144504 188.854707 
L 362.859928 196.094046 
L 364.755781 203.288242 
L 366.830878 210.432799 
L 369.083922 217.523251 
L 371.513504 224.555167 
L 374.118107 231.524153 
L 376.896102 238.425853 
L 379.845754 245.255953 
L 381.516274 248.928 
L 384.96 241.206548 
L 381.941206 234.406725 
L 378.753377 227.684488 
L 375.398506 221.04404 
L 371.878689 214.489529 
L 368.196126 208.025053 
L 364.353119 201.654652 
L 360.35207 195.382306 
L 356.195478 189.211936 
L 351.885943 183.147399 
L 347.426156 177.192483 
L 342.818905 171.350911 
L 338.06707 165.626334 
L 333.173621 160.02233 
L 328.141615 154.5424 
L 322.974197 149.189969 
L 317.674598 143.968383 
L 312.246128 138.880905 
L 306.692181 133.930714 
L 301.016227 129.120904 
L 295.221815 124.454482 
L 289.312565 119.934362 
L 283.29217 115.563372 
L 277.164393 111.344241 
L 270.933063 107.279607 
L 264.602076 103.37201 
L 259.061582 100.128 
L 252.647772 103.898113 
L 246.330208 107.827376 
L 240.11284 111.913334 
L 236.16 114.629046 
L 242.310717 118.814664 
L 248.564142 122.845221 
L 254.916367 126.7182 
L 261.36342 130.431179 
L 267.901274 133.981838 
L 274.525843 137.367959 
L 281.232985 140.587425 
L 288.01851 143.638223 
L 294.878176 146.518448 
L 301.807697 149.226299 
L 310.112029 152.212496 
L 317.012767 149.432113 
L 323.841847 146.480099 
L 330.595 143.358298 
L 337.268006 140.068661 
L 343.856694 136.613245 
L 350.356947 132.994208 
L 356.764702 129.213812 
L 363.075955 125.274421 
L 369.286761 121.178496 
L 375.393239 116.928597 
L 381.391573 112.52738 
L 384.96 109.797364 
L 379.028795 105.306093 
L 371.785614 100.128 
L 365.722707 104.439829 
L 359.769479 108.901868 
L 353.92965 113.511327 
L 348.20687 118.265327 
L 342.604717 123.160896 
L 337.12669 128.194974 
L 331.776215 133.364415 
L 326.556633 138.66599 
L 321.471209 144.096383 
L 316.523119 149.652202 
L 314.090588 152.489004 
L 311.21154 145.628844 
L 308.161905 138.842796 
L 304.94359 132.135101 
L 301.558606 125.509952 
L 298.009068 118.971489 
L 294.297194 112.523799 
L 290.425306 106.17091 
L 286.535537 100.128 
L 282.511375 106.385543 
L 278.644894 112.741724 
L 274.938508 119.192571 
L 271.394535 125.734051 
L 268.01519 132.362078 
L 264.802584 139.072509 
L 261.758725 145.861149 
L 258.885515 152.723757 
L 256.184751 159.656043 
L 253.65812 166.653675 
L 251.307201 173.712279 
L 249.133463 180.827445 
L 247.138265 187.994725 
L 245.322854 195.20964 
L 243.688364 202.467681 
L 242.235817 209.764312 
L 240.966121 217.094973 
L 239.880069 224.455082 
L 238.97834 231.84004 
L 238.261497 239.245231 
L 237.729989 246.666027 
L 237.605011 248.928 
L 237.130007 241.503373 
L 236.469556 234.09294 
L 236.16 231.191602 
L 236.893074 223.788 
L 237.440849 216.368387 
L 237.802981 208.937399 
L 237.979245 201.499681 
L 237.96953 194.059881 
L 237.773842 186.622649 
L 237.392304 179.192632 
L 236.825155 171.774475 
L 236.16 165.145115 
L 236.893074 157.741513 
L 237.440849 150.3219 
L 237.802981 142.890912 
L 237.979245 135.453195 
L 237.96953 128.013395 
L 237.773842 120.576162 
L 237.392304 113.146146 
L 236.825155 105.727989 
L 236.273121 100.128 
L 236.16 101.192024 
L 237.025657 108.581297 
L 238.075756 115.946622 
L 239.309642 123.283395 
L 240.726541 130.587032 
L 242.32557 137.852968 
L 244.105729 145.076662 
L 246.065905 152.253599 
L 248.204873 159.379294 
L 250.521297 166.449294 
L 253.013728 173.45918 
L 255.680609 180.404572 
L 258.520274 187.281128 
L 261.530947 194.08455 
L 264.710748 200.810588 
L 268.057688 207.455038 
L 271.569676 214.013746 
L 275.244518 220.482614 
L 279.079916 226.8576 
L 283.073473 233.134718 
L 287.222695 239.310047 
L 291.524986 245.379725 
L 294.147756 248.928 
L 298.539565 242.922775 
L 302.779887 236.809642 
L 306.866071 230.592423 
L 310.795564 224.275002 
L 314.56591 217.861329 
L 318.174753 211.355411 
L 321.619837 204.761314 
L 324.89901 198.08316 
L 328.010221 191.325121 
L 330.951526 184.491423 
L 333.721088 177.586334 
L 336.317175 170.614172 
L 338.738165 163.579293 
L 340.982545 156.486093 
L 343.048912 149.339007 
L 344.935975 142.1425 
L 346.642554 134.90107 
L 348.167583 127.619243 
L 349.510109 120.30157 
L 350.669292 112.952624 
L 351.644409 105.576997 
L 352.244767 100.128 
L 353.083861 107.520337 
L 354.107481 114.889388 
L 355.314989 122.230549 
L 356.705629 129.539231 
L 358.278533 136.810867 
L 360.032717 144.040912 
L 361.967086 151.224848 
L 364.080429 158.358185 
L 366.371427 165.436465 
L 368.838648 172.455264 
L 371.480549 179.410196 
L 374.29548 186.296913 
L 377.281682 193.111113 
L 380.437287 199.848536 
L 383.760325 206.504972 
L 384.96 208.809948 
L 381.578969 215.437116 
L 378.364657 222.146729 
L 375.319072 228.934596 
L 372.444117 235.796473 
L 369.74159 242.728072 
L 367.491257 248.928 
L 364.943008 241.938211 
L 362.22083 235.014306 
L 359.326423 228.160612 
L 356.261595 221.381412 
L 353.028263 214.680943 
L 349.628448 208.063393 
L 346.064273 201.532898 
L 342.337966 195.093538 
L 338.451856 188.749338 
L 334.408373 182.504263 
L 332.335076 179.429885 
L 327.478547 175.989578 
L 322.763478 172.357814 
L 318.197413 168.540403 
L 313.787656 164.543452 
L 309.541261 160.373354 
L 305.465023 156.036781 
L 303.191215 153.459459 
L 302.843512 159.400897 
L 302.258492 165.323678 
L 301.437092 171.218326 
L 300.380626 177.075413 
L 299.090784 182.885567 
L 297.56963 188.639493 
L 296.586805 191.932948 
L 301.811474 189.082612 
L 307.145947 186.443487 
L 312.581689 184.019795 
L 318.110005 181.815413 
L 323.722051 179.833868 
L 329.408849 178.07833 
L 332.723246 177.168626 
L 327.539204 174.245052 
L 322.476221 171.116509 
L 317.542395 167.788004 
L 312.745621 164.264861 
L 308.093572 160.552716 
L 303.59369 156.657508 
L 301.067316 154.327224 
L 301.331378 160.272966 
L 301.357463 166.224512 
L 301.145529 172.172341 
L 300.695915 178.106937 
L 300.009339 184.018806 
L 299.086902 189.89849 
L 298.447365 193.275439 
L 303.351824 189.903814 
L 308.38719 186.731011 
L 313.545406 183.762108 
L 318.81822 181.001852 
L 324.197198 178.454661 
L 329.673733 176.12461 
L 332.877233 174.879467 
L 327.420454 172.503515 
L 322.063052 169.911251 
L 316.813599 167.106822 
L 311.680493 164.094714 
L 306.671944 160.879745 
L 301.795966 157.46706 
L 299.043719 155.408437 
L 299.916758 161.295659 
L 300.553672 167.213085 
L 300.953443 173.151246 
L 301.115431 179.100645 
L 301.039377 185.051762 
L 300.725402 190.995077 
L 300.435911 194.419838 
L 304.968339 190.562549 
L 309.651392 186.889594 
L 314.477578 183.40685 
L 319.439176 180.119887 
L 324.528249 177.033965 
L 329.736655 174.154019 
L 332.795407 172.586593 
L 327.12355 170.78337 
L 321.528339 168.754775 
L 316.018726 166.504054 
L 310.603525 164.034808 
L 305.291398 161.350987 
L 300.090846 158.456884 
L 297.141808 156.691674 
L 298.614598 162.45817 
L 299.855611 168.278949 
L 300.862863 174.144699 
L 301.634741 180.046036 
L 302.170012 185.97352 
L 302.467818 191.917668 
L 302.531432 195.354053 
L 306.643937 191.051858 
L 310.925194 186.917561 
L 315.368355 182.957775 
L 319.966311 179.178836 
L 324.711707 175.586789 
L 329.59695 172.18738 
L 332.478635 170.314233 
L 336.792627 164.252864 
L 340.953752 158.085551 
L 344.959411 151.816147 
L 348.807098 145.448572 
L 352.494411 138.986804 
L 356.019044 132.434883 
L 359.378795 125.796902 
L 362.571564 119.07701 
L 365.595355 112.279407 
L 368.448279 105.408341 
L 370.505608 100.128 
L 373.22718 107.052143 
L 376.120987 113.906091 
L 379.185221 120.685559 
L 382.417966 127.386311 
L 384.96 132.373227 
L 381.601801 139.011993 
L 378.410602 145.732631 
L 375.3884 152.53094 
L 372.537082 159.402672 
L 369.85843 166.343532 
L 367.354119 173.349183 
L 365.025713 180.415246 
L 362.874668 187.537305 
L 360.902328 194.710909 
L 359.109926 201.931574 
L 357.498582 209.194789 
L 356.069303 216.496013 
L 354.822982 223.830685 
L 353.760398 231.194218 
L 352.882215 238.582013 
L 352.188982 245.989452 
L 351.965627 248.928 
L 351.345781 241.51406 
L 350.540799 234.117931 
L 349.551185 226.744236 
L 348.377556 219.397583 
L 347.020648 212.082563 
L 345.481307 204.803748 
L 343.760495 197.565687 
L 341.859289 190.372904 
L 339.778876 183.229893 
L 337.520556 176.14112 
L 335.085741 169.111014 
L 332.475952 162.143968 
L 329.692822 155.244338 
L 326.738088 148.416435 
L 323.613597 141.664526 
L 320.321303 134.99283 
L 316.863262 128.405519 
L 313.241637 121.906708 
L 309.458689 115.500459 
L 305.516785 109.190775 
L 301.418386 102.981601 
L 299.458887 100.128 
L 295.288544 106.289084 
L 291.273515 112.55249 
L 287.416309 118.914304 
L 283.719337 125.370551 
L 280.18491 131.917194 
L 276.815237 138.550144 
L 273.612422 145.265253 
L 270.578469 152.058327 
L 267.715273 158.925118 
L 265.024624 165.861336 
L 262.508203 172.862646 
L 260.167583 179.924673 
L 258.004226 187.043001 
L 256.019486 194.213184 
L 254.214601 201.43074 
L 252.5907 208.691157 
L 251.148798 215.9899 
L 249.889797 223.322405 
L 248.814482 230.68409 
L 247.923527 238.070356 
L 247.217487 245.476584 
L 246.952148 248.928 
L 246.332301 241.51406 
L 245.527319 234.117931 
L 244.537705 226.744236 
L 243.364077 219.397583 
L 242.007168 212.082563 
L 240.467827 204.803748 
L 238.747016 197.565687 
L 236.845809 190.372904 
L 236.16 187.943654 
L 238.122146 180.767255 
L 239.904287 173.54405 
L 241.50531 166.278554 
L 242.924214 158.975306 
L 244.160113 151.638871 
L 245.212234 144.273835 
L 246.079919 136.8848 
L 246.762626 129.476384 
L 247.259929 122.053217 
L 247.571517 114.619938 
L 247.697195 107.181194 
L 247.644596 100.128 
L 247.778664 116.493388 
L 248.137064 123.924556 
L 248.681112 131.344444 
L 249.410467 138.748413 
L 250.324675 146.131836 
L 251.423164 153.4901 
L 252.705246 160.818604 
L 254.170122 168.11277 
L 255.816875 175.368039 
L 257.644476 182.579876 
L 259.651783 189.743774 
L 261.837542 196.855256 
L 264.200386 203.909877 
L 266.73884 210.903229 
L 269.451315 217.830941 
L 272.336118 224.688684 
L 275.391445 231.47217 
L 278.615386 238.177162 
L 282.005928 244.799469 
L 284.226998 248.928 
L 287.721436 242.359924 
L 291.050597 235.706549 
L 294.212401 228.972033 
L 297.204872 222.160584 
L 300.026139 215.276459 
L 302.674439 208.323962 
L 305.148118 201.307436 
L 306.725132 196.516092 
L 308.261398 190.766182 
L 310.026371 185.082305 
L 312.017227 179.473556 
L 314.23078 173.948905 
L 316.66349 168.517192 
L 319.311465 163.187107 
L 322.170468 157.967176 
L 323.895674 154.821734 
L 327.126986 148.120291 
L 330.189769 141.340167 
L 333.08211 134.485601 
L 335.802201 127.560875 
L 338.348341 120.570318 
L 340.718941 113.518299 
L 342.912517 106.409224 
L 344.690342 100.128 
L 346.727459 107.283478 
L 348.942809 114.385798 
L 351.335005 121.43052 
L 353.902554 128.413242 
L 356.643851 135.329601 
L 359.557181 142.175272 
L 362.640726 148.945979 
L 365.892556 155.63749 
L 369.310641 162.245622 
L 372.892844 168.766246 
L 376.636927 175.195287 
L 380.540548 181.528726 
L 384.96 188.297295 
L 380.885801 194.522375 
L 376.968486 200.847354 
L 373.210502 207.268279 
L 369.6142 213.781138 
L 366.181826 220.381859 
L 362.915525 227.066319 
L 359.817339 233.830338 
L 356.889204 240.669691 
L 353.618513 248.928 
L 350.895793 242.004308 
L 348.000848 235.150841 
L 344.93549 228.371881 
L 341.701633 221.671666 
L 338.301299 215.054382 
L 334.736612 208.524166 
L 331.009801 202.085098 
L 327.123194 195.741203 
L 324.631651 191.853445 
L 321.222608 186.97492 
L 318.011381 181.963972 
L 315.003107 176.828617 
L 312.202599 171.577071 
L 309.614337 166.217735 
L 307.242461 160.759183 
L 305.090767 155.210148 
L 303.771248 151.716728 
L 300.843038 144.877407 
L 297.744778 138.113422 
L 294.478404 131.428998 
L 291.045957 124.828314 
L 287.449584 118.315495 
L 283.69153 111.894611 
L 279.774145 105.569675 
L 276.224887 100.128 
L 272.170365 106.365914 
L 268.273042 112.703232 
L 264.535354 119.135992 
L 260.959635 125.660174 
L 257.548122 132.271701 
L 254.302946 138.966441 
L 251.226134 145.740211 
L 248.319611 152.588775 
L 245.585192 159.507856 
L 243.024587 166.493127 
L 240.639396 173.540224 
L 238.431108 180.644743 
L 236.16 188.700267 
L 238.16763 195.864075 
L 240.353709 202.975458 
L 242.71687 210.029973 
L 245.255638 217.023211 
L 247.968425 223.950801 
L 250.853537 230.808414 
L 253.909169 237.591763 
L 257.133412 244.29661 
L 259.482868 248.928 
L 262.823619 242.280436 
L 265.997153 235.55144 
L 269.001489 228.745216 
L 271.834748 221.866018 
L 274.495159 214.918146 
L 276.98106 207.905941 
L 279.290898 200.833787 
L 281.423229 193.706103 
L 283.376719 186.527343 
L 285.150149 179.301994 
L 286.74241 172.034572 
L 288.152507 164.729619 
L 289.379558 157.391699 
L 290.422797 150.0254 
L 291.281572 142.635324 
L 291.955345 135.22609 
L 292.443697 127.802329 
L 292.746321 120.36868 
L 292.863029 112.929789 
L 292.793747 105.490305 
L 292.628396 100.128 
L 292.425019 107.565026 
L 292.407612 115.004812 
L 292.576185 122.442708 
L 292.930634 129.874066 
L 293.470737 137.294242 
L 294.196156 144.698597 
L 295.106438 152.082506 
L 295.921676 157.678613 
L 288.775472 155.609193 
L 281.579772 153.719057 
L 274.339072 152.009386 
L 267.057897 150.481247 
L 259.740798 149.135596 
L 252.392347 147.973274 
L 245.017138 146.995008 
L 236.16 146.066861 
L 243.561178 145.30971 
L 250.941117 144.367785 
L 258.295204 143.241675 
L 265.618843 141.932084 
L 272.907457 140.439831 
L 280.156491 138.765847 
L 287.361415 136.91118 
L 294.517725 134.876987 
L 301.62095 132.664542 
L 308.66665 130.275225 
L 315.650421 127.710531 
L 322.567899 124.972062 
L 329.414761 122.06153 
L 336.186728 118.980754 
L 342.879568 115.731659 
L 349.489097 112.316276 
L 356.011185 108.736739 
L 362.441756 104.995285 
L 368.77679 101.094253 
L 370.292718 100.128 
L 376.604072 104.067228 
L 383.011925 107.847458 
L 384.96 108.95439 
L 378.523868 112.686269 
L 372.183034 116.577869 
L 365.941462 120.626756 
L 359.803051 124.830402 
L 353.771639 129.186178 
L 347.850995 133.691363 
L 342.044819 138.34314 
L 336.356739 143.138603 
L 330.790311 148.074755 
L 325.349014 153.148511 
L 322.647468 155.764324 
L 318.796329 160.30198 
L 314.766814 164.682001 
L 310.565367 168.89738 
L 306.198711 172.941375 
L 301.673831 176.807516 
L 296.997966 180.489617 
L 292.178597 183.981788 
L 290.808057 184.922381 
L 296.392757 182.865027 
L 302.055262 181.032646 
L 307.786513 179.428171 
L 313.577342 178.054168 
L 319.418484 176.912836 
L 325.300595 176.006 
L 331.214265 175.335111 
L 332.870179 175.190051 
L 326.995665 174.235241 
L 321.164031 173.046277 
L 315.384609 171.625061 
L 309.666643 169.973867 
L 304.01928 168.095335 
L 298.451557 165.992472 
L 292.972378 163.668642 
L 291.459174 162.98067 
L 284.370233 160.722876 
L 277.227068 158.642994 
L 270.034143 156.742322 
L 262.795955 155.022048 
L 255.517025 153.483248 
L 248.201905 152.126882 
L 240.855164 150.9538 
L 236.16 150.302329 
L 236.16 150.302329 
" style="fill:none;stroke:#1f77b4;stroke-linecap:square;stroke-width:1.5;"/>
   </g>
   <g id="patch_5">
    <path d="M 57.6 263.808 
L 57.6 85.248 
" style="fill:none;stroke:#000000;stroke-linecap:square;stroke-linejoin:miter;stroke-width:0.8;"/>
   </g>
   <g id="patch_6">
    <path d="M 414.72 263.808 
L 414.72 85.248 
" style="fill:none;stroke:#000000;stroke-linecap:square;stroke-linejoin:miter;stroke-width:0.8;"/>
   </g>
   <g id="patch_7">
    <path d="M 57.6 263.808 
L 414.72 263.808 
" style="fill:none;stroke:#000000;stroke-linecap:square;stroke-linejoin:miter;stroke-width:0.8;"/>
   </g>
   <g id="patch_8">
    <path d="M 57.6 85.248 
L 414.72 85.248 
" style="fill:none;stroke:#000000;stroke-linecap:square;stroke-linejoin:miter;stroke-width:0.8;"/>
   </g>
  </g>
 </g>
 <defs>
  <clipPath id="p41c098abb6">
   <rect height="178.56" width="357.12" x="57.6" y="85.248"/>
  </clipPath>
 </defs>
</svg>
