<?xml version="1.0" encoding="utf-8" standalone="no"?>
<!DOCTYPE svg PUBLIC "-//W3C//DTD SVG 1.1//EN"
  "http://www.w3.org/Graphics/SVG/1.1/DTD/svg11.dtd">
<!-- Created with matplotlib (https://matplotlib.org/) -->
<svg height="345.6pt" version="1.1" viewBox="0 0 460.8 345.6" width="460.8pt" xmlns="http://www.w3.org/2000/svg" xmlns:xlink="http://www.w3.org/1999/xlink">
 <defs>
  <style type="text/css">
*{stroke-linecap:butt;stroke-linejoin:round;}
  </style>
 </defs>
 <g id="figure_1">
  <g id="patch_1">
   <path d="M 0 345.6 
L 460.8 345.6 
L 460.8 0 
L 0 0 
z
" style="fill:#ffffff;"/>
  </g>
  <g id="axes_1">
   <g id="patch_2">
    <path d="M 57.6 263.808 
L 414.72 263.808 
L 414.72 85.248 
L 57.6 85.248 
z
" style="fill:#ffffff;"/>
   </g>
   <g id="PathCollection_1">
    <defs>
     <path d="M 0 3 
C 0.795609 3 1.55874 2.683901 2.12132 2.12132 
C 2.683901 1.55874 3 0.795609 3 0 
C 3 -0.795609 2.683901 -1.55874 2.12132 -2.12132 
C 1.55874 -2.683901 0.795609 -3 0 -3 
C -0.795609 -3 -1.55874 -2.683901 -2.12132 -2.12132 
C -2.683901 -1.55874 -3 -0.795609 -3 0 
C -3 0.795609 -2.683901 1.55874 -2.12132 2.12132 
C -1.55874 2.683901 -0.795609 3 0 3 
z
" id="m57fddc15f8" style="stroke:#000000;"/>
    </defs>
    <g clip-path="url(#pef53f22c73)">
     <use style="stroke:#000000;" x="117.399956" xlink:href="#m57fddc15f8" y="241.688279"/>
    </g>
   </g>
   <g id="patch_3">
    <path clip-path="url(#pef53f22c73)" d="M 161.76 211.728 
C 171.625555 211.728 181.088371 207.808373 188.064372 200.832372 
C 195.040373 193.856371 198.96 184.393555 198.96 174.528 
C 198.96 164.662445 195.040373 155.199629 188.064372 148.223628 
C 181.088371 141.247627 171.625555 137.328 161.76 137.328 
C 151.894445 137.328 142.431629 141.247627 135.455628 148.223628 
C 128.479627 155.199629 124.56 164.662445 124.56 174.528 
C 124.56 184.393555 128.479627 193.856371 135.455628 200.832372 
C 142.431629 207.808373 151.894445 211.728 161.76 211.728 
z
" style="fill:#cc0000;fill-opacity:0.1;stroke:#cc0000;stroke-dasharray:7.4,3.2;stroke-dashoffset:0;stroke-linejoin:miter;stroke-width:2;"/>
   </g>
   <g id="patch_4">
    <path clip-path="url(#pef53f22c73)" d="M 310.56 196.848 
C 316.479333 196.848 322.157023 194.496224 326.342623 190.310623 
C 330.528224 186.125023 332.88 180.447333 332.88 174.528 
C 332.88 168.608667 330.528224 162.930977 326.342623 158.745377 
C 322.157023 154.559776 316.479333 152.208 310.56 152.208 
C 304.640667 152.208 298.962977 154.559776 294.777377 158.745377 
C 290.591776 162.930977 288.24 168.608667 288.24 174.528 
C 288.24 180.447333 290.591776 186.125023 294.777377 190.310623 
C 298.962977 194.496224 304.640667 196.848 310.56 196.848 
z
" style="fill:#cc0000;fill-opacity:0.1;stroke:#cc0000;stroke-dasharray:7.4,3.2;stroke-dashoffset:0;stroke-linejoin:miter;stroke-width:2;"/>
   </g>
   <g id="matplotlib.axis_1">
    <g id="xtick_1">
     <g id="line2d_1">
      <defs>
       <path d="M 0 0 
L 0 3.5 
" id="m3d58ffcac7" style="stroke:#000000;stroke-width:0.8;"/>
      </defs>
      <g>
       <use style="stroke:#000000;stroke-width:0.8;" x="87.36" xlink:href="#m3d58ffcac7" y="263.808"/>
      </g>
     </g>
     <g id="text_1">
      <!-- 0.0 -->
      <defs>
       <path d="M 31.78125 66.40625 
Q 24.171875 66.40625 20.328125 58.90625 
Q 16.5 51.421875 16.5 36.375 
Q 16.5 21.390625 20.328125 13.890625 
Q 24.171875 6.390625 31.78125 6.390625 
Q 39.453125 6.390625 43.28125 13.890625 
Q 47.125 21.390625 47.125 36.375 
Q 47.125 51.421875 43.28125 58.90625 
Q 39.453125 66.40625 31.78125 66.40625 
z
M 31.78125 74.21875 
Q 44.046875 74.21875 50.515625 64.515625 
Q 56.984375 54.828125 56.984375 36.375 
Q 56.984375 17.96875 50.515625 8.265625 
Q 44.046875 -1.421875 31.78125 -1.421875 
Q 19.53125 -1.421875 13.0625 8.265625 
Q 6.59375 17.96875 6.59375 36.375 
Q 6.59375 54.828125 13.0625 64.515625 
Q 19.53125 74.21875 31.78125 74.21875 
z
" id="DejaVuSans-48"/>
       <path d="M 10.6875 12.40625 
L 21 12.40625 
L 21 0 
L 10.6875 0 
z
" id="DejaVuSans-46"/>
      </defs>
      <g transform="translate(79.408438 278.406437)scale(0.1 -0.1)">
       <use xlink:href="#DejaVuSans-48"/>
       <use x="63.623047" xlink:href="#DejaVuSans-46"/>
       <use x="95.410156" xlink:href="#DejaVuSans-48"/>
      </g>
     </g>
    </g>
    <g id="xtick_2">
     <g id="line2d_2">
      <g>
       <use style="stroke:#000000;stroke-width:0.8;" x="161.76" xlink:href="#m3d58ffcac7" y="263.808"/>
      </g>
     </g>
     <g id="text_2">
      <!-- 0.5 -->
      <defs>
       <path d="M 10.796875 72.90625 
L 49.515625 72.90625 
L 49.515625 64.59375 
L 19.828125 64.59375 
L 19.828125 46.734375 
Q 21.96875 47.46875 24.109375 47.828125 
Q 26.265625 48.1875 28.421875 48.1875 
Q 40.625 48.1875 47.75 41.5 
Q 54.890625 34.8125 54.890625 23.390625 
Q 54.890625 11.625 47.5625 5.09375 
Q 40.234375 -1.421875 26.90625 -1.421875 
Q 22.3125 -1.421875 17.546875 -0.640625 
Q 12.796875 0.140625 7.71875 1.703125 
L 7.71875 11.625 
Q 12.109375 9.234375 16.796875 8.0625 
Q 21.484375 6.890625 26.703125 6.890625 
Q 35.15625 6.890625 40.078125 11.328125 
Q 45.015625 15.765625 45.015625 23.390625 
Q 45.015625 31 40.078125 35.4375 
Q 35.15625 39.890625 26.703125 39.890625 
Q 22.75 39.890625 18.8125 39.015625 
Q 14.890625 38.140625 10.796875 36.28125 
z
" id="DejaVuSans-53"/>
      </defs>
      <g transform="translate(153.808437 278.406437)scale(0.1 -0.1)">
       <use xlink:href="#DejaVuSans-48"/>
       <use x="63.623047" xlink:href="#DejaVuSans-46"/>
       <use x="95.410156" xlink:href="#DejaVuSans-53"/>
      </g>
     </g>
    </g>
    <g id="xtick_3">
     <g id="line2d_3">
      <g>
       <use style="stroke:#000000;stroke-width:0.8;" x="236.16" xlink:href="#m3d58ffcac7" y="263.808"/>
      </g>
     </g>
     <g id="text_3">
      <!-- 1.0 -->
      <defs>
       <path d="M 12.40625 8.296875 
L 28.515625 8.296875 
L 28.515625 63.921875 
L 10.984375 60.40625 
L 10.984375 69.390625 
L 28.421875 72.90625 
L 38.28125 72.90625 
L 38.28125 8.296875 
L 54.390625 8.296875 
L 54.390625 0 
L 12.40625 0 
z
" id="DejaVuSans-49"/>
      </defs>
      <g transform="translate(228.208437 278.406437)scale(0.1 -0.1)">
       <use xlink:href="#DejaVuSans-49"/>
       <use x="63.623047" xlink:href="#DejaVuSans-46"/>
       <use x="95.410156" xlink:href="#DejaVuSans-48"/>
      </g>
     </g>
    </g>
    <g id="xtick_4">
     <g id="line2d_4">
      <g>
       <use style="stroke:#000000;stroke-width:0.8;" x="310.56" xlink:href="#m3d58ffcac7" y="263.808"/>
      </g>
     </g>
     <g id="text_4">
      <!-- 1.5 -->
      <g transform="translate(302.608437 278.406437)scale(0.1 -0.1)">
       <use xlink:href="#DejaVuSans-49"/>
       <use x="63.623047" xlink:href="#DejaVuSans-46"/>
       <use x="95.410156" xlink:href="#DejaVuSans-53"/>
      </g>
     </g>
    </g>
    <g id="xtick_5">
     <g id="line2d_5">
      <g>
       <use style="stroke:#000000;stroke-width:0.8;" x="384.96" xlink:href="#m3d58ffcac7" y="263.808"/>
      </g>
     </g>
     <g id="text_5">
      <!-- 2.0 -->
      <defs>
       <path d="M 19.1875 8.296875 
L 53.609375 8.296875 
L 53.609375 0 
L 7.328125 0 
L 7.328125 8.296875 
Q 12.9375 14.109375 22.625 23.890625 
Q 32.328125 33.6875 34.8125 36.53125 
Q 39.546875 41.84375 41.421875 45.53125 
Q 43.3125 49.21875 43.3125 52.78125 
Q 43.3125 58.59375 39.234375 62.25 
Q 35.15625 65.921875 28.609375 65.921875 
Q 23.96875 65.921875 18.8125 64.3125 
Q 13.671875 62.703125 7.8125 59.421875 
L 7.8125 69.390625 
Q 13.765625 71.78125 18.9375 73 
Q 24.125 74.21875 28.421875 74.21875 
Q 39.75 74.21875 46.484375 68.546875 
Q 53.21875 62.890625 53.21875 53.421875 
Q 53.21875 48.921875 51.53125 44.890625 
Q 49.859375 40.875 45.40625 35.40625 
Q 44.1875 33.984375 37.640625 27.21875 
Q 31.109375 20.453125 19.1875 8.296875 
z
" id="DejaVuSans-50"/>
      </defs>
      <g transform="translate(377.008437 278.406437)scale(0.1 -0.1)">
       <use xlink:href="#DejaVuSans-50"/>
       <use x="63.623047" xlink:href="#DejaVuSans-46"/>
       <use x="95.410156" xlink:href="#DejaVuSans-48"/>
      </g>
     </g>
    </g>
   </g>
   <g id="matplotlib.axis_2">
    <g id="ytick_1">
     <g id="line2d_6">
      <defs>
       <path d="M 0 0 
L -3.5 0 
" id="m650633d268" style="stroke:#000000;stroke-width:0.8;"/>
      </defs>
      <g>
       <use style="stroke:#000000;stroke-width:0.8;" x="57.6" xlink:href="#m650633d268" y="248.928"/>
      </g>
     </g>
     <g id="text_6">
      <!-- 0.0 -->
      <g transform="translate(34.696875 252.727219)scale(0.1 -0.1)">
       <use xlink:href="#DejaVuSans-48"/>
       <use x="63.623047" xlink:href="#DejaVuSans-46"/>
       <use x="95.410156" xlink:href="#DejaVuSans-48"/>
      </g>
     </g>
    </g>
    <g id="ytick_2">
     <g id="line2d_7">
      <g>
       <use style="stroke:#000000;stroke-width:0.8;" x="57.6" xlink:href="#m650633d268" y="219.168"/>
      </g>
     </g>
     <g id="text_7">
      <!-- 0.2 -->
      <g transform="translate(34.696875 222.967219)scale(0.1 -0.1)">
       <use xlink:href="#DejaVuSans-48"/>
       <use x="63.623047" xlink:href="#DejaVuSans-46"/>
       <use x="95.410156" xlink:href="#DejaVuSans-50"/>
      </g>
     </g>
    </g>
    <g id="ytick_3">
     <g id="line2d_8">
      <g>
       <use style="stroke:#000000;stroke-width:0.8;" x="57.6" xlink:href="#m650633d268" y="189.408"/>
      </g>
     </g>
     <g id="text_8">
      <!-- 0.4 -->
      <defs>
       <path d="M 37.796875 64.3125 
L 12.890625 25.390625 
L 37.796875 25.390625 
z
M 35.203125 72.90625 
L 47.609375 72.90625 
L 47.609375 25.390625 
L 58.015625 25.390625 
L 58.015625 17.1875 
L 47.609375 17.1875 
L 47.609375 0 
L 37.796875 0 
L 37.796875 17.1875 
L 4.890625 17.1875 
L 4.890625 26.703125 
z
" id="DejaVuSans-52"/>
      </defs>
      <g transform="translate(34.696875 193.207219)scale(0.1 -0.1)">
       <use xlink:href="#DejaVuSans-48"/>
       <use x="63.623047" xlink:href="#DejaVuSans-46"/>
       <use x="95.410156" xlink:href="#DejaVuSans-52"/>
      </g>
     </g>
    </g>
    <g id="ytick_4">
     <g id="line2d_9">
      <g>
       <use style="stroke:#000000;stroke-width:0.8;" x="57.6" xlink:href="#m650633d268" y="159.648"/>
      </g>
     </g>
     <g id="text_9">
      <!-- 0.6 -->
      <defs>
       <path d="M 33.015625 40.375 
Q 26.375 40.375 22.484375 35.828125 
Q 18.609375 31.296875 18.609375 23.390625 
Q 18.609375 15.53125 22.484375 10.953125 
Q 26.375 6.390625 33.015625 6.390625 
Q 39.65625 6.390625 43.53125 10.953125 
Q 47.40625 15.53125 47.40625 23.390625 
Q 47.40625 31.296875 43.53125 35.828125 
Q 39.65625 40.375 33.015625 40.375 
z
M 52.59375 71.296875 
L 52.59375 62.3125 
Q 48.875 64.0625 45.09375 64.984375 
Q 41.3125 65.921875 37.59375 65.921875 
Q 27.828125 65.921875 22.671875 59.328125 
Q 17.53125 52.734375 16.796875 39.40625 
Q 19.671875 43.65625 24.015625 45.921875 
Q 28.375 48.1875 33.59375 48.1875 
Q 44.578125 48.1875 50.953125 41.515625 
Q 57.328125 34.859375 57.328125 23.390625 
Q 57.328125 12.15625 50.6875 5.359375 
Q 44.046875 -1.421875 33.015625 -1.421875 
Q 20.359375 -1.421875 13.671875 8.265625 
Q 6.984375 17.96875 6.984375 36.375 
Q 6.984375 53.65625 15.1875 63.9375 
Q 23.390625 74.21875 37.203125 74.21875 
Q 40.921875 74.21875 44.703125 73.484375 
Q 48.484375 72.75 52.59375 71.296875 
z
" id="DejaVuSans-54"/>
      </defs>
      <g transform="translate(34.696875 163.447219)scale(0.1 -0.1)">
       <use xlink:href="#DejaVuSans-48"/>
       <use x="63.623047" xlink:href="#DejaVuSans-46"/>
       <use x="95.410156" xlink:href="#DejaVuSans-54"/>
      </g>
     </g>
    </g>
    <g id="ytick_5">
     <g id="line2d_10">
      <g>
       <use style="stroke:#000000;stroke-width:0.8;" x="57.6" xlink:href="#m650633d268" y="129.888"/>
      </g>
     </g>
     <g id="text_10">
      <!-- 0.8 -->
      <defs>
       <path d="M 31.78125 34.625 
Q 24.75 34.625 20.71875 30.859375 
Q 16.703125 27.09375 16.703125 20.515625 
Q 16.703125 13.921875 20.71875 10.15625 
Q 24.75 6.390625 31.78125 6.390625 
Q 38.8125 6.390625 42.859375 10.171875 
Q 46.921875 13.96875 46.921875 20.515625 
Q 46.921875 27.09375 42.890625 30.859375 
Q 38.875 34.625 31.78125 34.625 
z
M 21.921875 38.8125 
Q 15.578125 40.375 12.03125 44.71875 
Q 8.5 49.078125 8.5 55.328125 
Q 8.5 64.0625 14.71875 69.140625 
Q 20.953125 74.21875 31.78125 74.21875 
Q 42.671875 74.21875 48.875 69.140625 
Q 55.078125 64.0625 55.078125 55.328125 
Q 55.078125 49.078125 51.53125 44.71875 
Q 48 40.375 41.703125 38.8125 
Q 48.828125 37.15625 52.796875 32.3125 
Q 56.78125 27.484375 56.78125 20.515625 
Q 56.78125 9.90625 50.3125 4.234375 
Q 43.84375 -1.421875 31.78125 -1.421875 
Q 19.734375 -1.421875 13.25 4.234375 
Q 6.78125 9.90625 6.78125 20.515625 
Q 6.78125 27.484375 10.78125 32.3125 
Q 14.796875 37.15625 21.921875 38.8125 
z
M 18.3125 54.390625 
Q 18.3125 48.734375 21.84375 45.5625 
Q 25.390625 42.390625 31.78125 42.390625 
Q 38.140625 42.390625 41.71875 45.5625 
Q 45.3125 48.734375 45.3125 54.390625 
Q 45.3125 60.0625 41.71875 63.234375 
Q 38.140625 66.40625 31.78125 66.40625 
Q 25.390625 66.40625 21.84375 63.234375 
Q 18.3125 60.0625 18.3125 54.390625 
z
" id="DejaVuSans-56"/>
      </defs>
      <g transform="translate(34.696875 133.687219)scale(0.1 -0.1)">
       <use xlink:href="#DejaVuSans-48"/>
       <use x="63.623047" xlink:href="#DejaVuSans-46"/>
       <use x="95.410156" xlink:href="#DejaVuSans-56"/>
      </g>
     </g>
    </g>
    <g id="ytick_6">
     <g id="line2d_11">
      <g>
       <use style="stroke:#000000;stroke-width:0.8;" x="57.6" xlink:href="#m650633d268" y="100.128"/>
      </g>
     </g>
     <g id="text_11">
      <!-- 1.0 -->
      <g transform="translate(34.696875 103.927219)scale(0.1 -0.1)">
       <use xlink:href="#DejaVuSans-49"/>
       <use x="63.623047" xlink:href="#DejaVuSans-46"/>
       <use x="95.410156" xlink:href="#DejaVuSans-48"/>
      </g>
     </g>
    </g>
   </g>
   <g id="line2d_12">
    <path clip-path="url(#pef53f22c73)" d="M 236.16 248.928 
L 236.16 100.128 
" style="fill:none;stroke:#cc0000;stroke-dasharray:7.4,3.2;stroke-dashoffset:0;stroke-width:2;"/>
   </g>
   <g id="line2d_13">
    <path clip-path="url(#pef53f22c73)" d="M 87.36 248.928 
L 384.96 248.928 
" style="fill:none;stroke:#009900;stroke-linecap:square;stroke-width:2;"/>
   </g>
   <g id="line2d_14">
    <path clip-path="url(#pef53f22c73)" d="M 384.96 248.928 
L 384.96 100.128 
" style="fill:none;stroke:#009900;stroke-linecap:square;stroke-width:2;"/>
   </g>
   <g id="line2d_15">
    <path clip-path="url(#pef53f22c73)" d="M 384.96 100.128 
L 87.36 100.128 
" style="fill:none;stroke:#009900;stroke-linecap:square;stroke-width:2;"/>
   </g>
   <g id="line2d_16">
    <path clip-path="url(#pef53f22c73)" d="M 87.36 100.128 
L 87.36 248.928 
" style="fill:none;stroke:#009900;stroke-linecap:square;stroke-width:2;"/>
   </g>
   <g id="line2d_17">
    <path clip-path="url(#pef53f22c73)" d="M 117.399956 241.688279 
L 112.230306 244.637228 
L 107.182718 247.79055 
L 105.466567 248.928 
L 100.463092 245.705141 
L 95.33474 242.684946 
L 90.089714 239.872246 
L 87.36 238.513052 
L 92.661563 235.808424 
L 97.850729 232.893953 
L 102.919196 229.774303 
L 107.858857 226.454463 
L 112.661808 222.939745 
L 117.320366 219.235772 
L 121.827078 215.348469 
L 126.174735 211.284055 
L 130.35638 207.049032 
L 134.365326 202.650175 
L 136.728509 199.999718 
L 139.900336 196.859521 
L 143.254754 193.915171 
L 146.779691 191.177263 
L 150.462461 188.655652 
L 154.289809 186.359411 
L 158.247963 184.296806 
L 162.322676 182.475259 
L 166.499283 180.901325 
L 170.762755 179.580671 
L 175.097746 178.518047 
L 179.488656 177.717279 
L 183.919682 177.181249 
L 188.374877 176.911885 
L 192.838207 176.910157 
L 197.293609 177.176072 
L 201.80261 177.736117 
L 207.720862 178.365303 
L 213.659541 178.757318 
L 219.609146 178.911536 
L 225.560159 178.82771 
L 231.503059 178.505974 
L 252.47326 176.77463 
L 259.859337 175.882112 
L 267.220795 174.805241 
L 274.553034 173.544688 
L 281.851471 172.101243 
L 288.588479 170.599301 
L 294.539936 170.55761 
L 300.4883 170.753948 
L 306.424055 171.187999 
L 312.337704 171.85907 
L 318.219787 172.766087 
L 324.060894 173.907599 
L 329.85168 175.28178 
L 332.825725 176.083603 
L 326.912883 176.761751 
L 320.977653 177.202906 
L 315.029528 177.406363 
L 309.078025 177.371795 
L 303.132665 177.099258 
L 297.20296 176.589188 
L 291.298394 175.842401 
L 288.255637 175.363348 
L 294.061996 174.056526 
L 299.915969 172.982942 
L 305.808191 172.144314 
L 311.729236 171.541982 
L 317.669632 171.17691 
L 323.619875 171.049683 
L 329.570446 171.160504 
L 332.646991 171.311289 
L 327.013761 173.231784 
L 321.308238 174.925475 
L 315.539549 176.38965 
L 309.716923 177.621968 
L 303.849675 178.620458 
L 297.947192 179.383521 
L 292.018915 179.909938 
L 288.943895 180.089153 
L 281.580643 179.024616 
L 274.193082 178.144474 
L 266.785827 177.449277 
L 259.363509 176.93946 
L 251.930767 176.61534 
L 244.492244 176.477121 
L 236.16 176.543119 
L 230.220521 176.922817 
L 224.300977 177.539728 
L 218.410838 178.392864 
L 212.559526 179.48086 
L 206.756404 180.801976 
L 201.010753 182.354098 
L 197.91225 183.294688 
L 202.220418 187.400936 
L 206.689346 191.331618 
L 211.311884 195.080447 
L 216.080639 198.641425 
L 220.987979 202.008855 
L 226.026056 205.177351 
L 231.186809 208.141842 
L 236.16 210.747014 
L 230.89109 213.514715 
L 225.737073 216.490902 
L 220.706195 219.670815 
L 215.806503 223.049365 
L 211.045836 226.621148 
L 206.431811 230.38045 
L 201.971808 234.321257 
L 197.672963 238.437264 
L 193.542153 242.721886 
L 189.585987 247.16827 
L 188.105604 248.928 
L 184.218624 244.421009 
L 180.154522 240.073061 
L 175.919798 235.891112 
L 171.521229 231.881852 
L 166.96585 228.051694 
L 162.26095 224.406767 
L 157.414055 220.952901 
L 152.43292 217.695622 
L 147.325512 214.64014 
L 142.100003 211.791345 
L 136.764752 209.153793 
L 131.328295 206.731704 
L 125.799329 204.528952 
L 120.186699 202.549063 
L 114.499384 200.795202 
L 108.746482 199.270176 
L 102.937197 197.976424 
L 97.080823 196.916017 
L 91.186729 196.090651 
L 87.36 195.682732 
L 93.273468 195.010068 
L 99.155306 194.101466 
L 104.996106 192.95838 
L 110.786522 191.582639 
L 116.517291 189.976443 
L 122.179245 188.142363 
L 130.797348 185.159493 
L 135.114288 184.025764 
L 139.491444 183.152936 
L 143.913061 182.544151 
L 148.363227 182.201599 
L 152.825926 182.126514 
L 157.285097 182.319164 
L 161.724691 182.778858 
L 166.128732 183.503941 
L 170.481369 184.491802 
L 174.766937 185.738888 
L 178.970013 187.24071 
L 183.075471 188.991862 
L 187.068536 190.986043 
L 190.934835 193.216075 
L 193.083741 194.59447 
L 189.355248 192.140971 
L 185.780586 189.468312 
L 182.372619 186.586111 
L 179.143614 183.504741 
L 176.10519 180.235292 
L 173.268283 176.789529 
L 170.643102 173.179855 
L 168.239096 169.419261 
L 166.064917 165.521279 
L 164.128388 161.499939 
L 162.436479 157.369713 
L 160.99528 153.145466 
L 159.809977 148.8424 
L 158.884836 144.476002 
L 158.223187 140.061986 
L 157.964169 137.522167 
L 158.365145 141.96745 
L 158.498844 146.428777 
L 158.364782 150.890094 
L 157.963443 155.335344 
L 157.296272 159.748528 
L 156.365668 164.113766 
L 155.174983 168.415345 
L 153.7285 172.637786 
L 152.031425 176.765891 
L 150.089866 180.784805 
L 147.910811 184.680064 
L 145.502102 188.437648 
L 142.872407 192.044034 
L 140.031191 195.486245 
L 136.988679 198.75189 
L 134.067144 201.543091 
L 129.789028 205.680639 
L 125.679792 209.985957 
L 121.74601 214.452156 
L 117.993974 219.072093 
L 114.429688 223.838375 
L 111.058854 228.743378 
L 107.886863 233.779255 
L 104.918792 238.93795 
L 102.159387 244.211209 
L 99.912579 248.928 
L 97.339998 243.561119 
L 94.554857 238.301407 
L 91.561612 233.157278 
L 88.36505 228.136962 
L 87.36 226.645684 
L 90.617001 221.664366 
L 93.672197 216.556787 
L 96.5207 211.331119 
L 99.157954 205.995721 
L 101.579739 200.559129 
L 103.782182 195.030039 
L 105.761758 189.417299 
L 107.515301 183.729885 
L 109.040005 177.976899 
L 110.333432 172.167542 
L 111.393512 166.311108 
L 112.218549 160.416968 
L 112.807223 154.494549 
L 113.158593 148.553327 
L 113.272096 142.602806 
L 113.147551 136.652506 
L 112.785157 130.711946 
L 112.185494 124.79063 
L 111.349521 118.89803 
L 110.278576 113.043574 
L 108.974371 107.236627 
L 107.438994 101.48648 
L 107.039982 100.128 
L 105.449961 105.863278 
L 104.090561 111.657552 
L 102.963959 117.501553 
L 102.071955 123.385932 
L 101.415977 129.301274 
L 100.997074 135.238117 
L 100.815917 141.186962 
L 100.872795 147.138294 
L 101.167618 153.08259 
L 101.699913 159.010342 
L 102.468829 164.912066 
L 103.473136 170.778321 
L 104.711227 176.599722 
L 106.181122 182.366956 
L 107.880469 188.070797 
L 109.80655 193.70212 
L 111.956283 199.251915 
L 114.326229 204.711305 
L 116.912596 210.071556 
L 119.711248 215.324091 
L 122.717706 220.460509 
L 125.927161 225.472592 
L 129.334479 230.352322 
L 132.934209 235.091892 
L 136.720592 239.683721 
L 140.68757 244.120461 
L 144.828797 248.395016 
L 145.36898 248.928 
L 149.531953 244.67462 
L 153.521507 240.258169 
L 157.331258 235.68571 
L 160.955112 230.964559 
L 164.387271 226.10227 
L 167.622246 221.10662 
L 170.65486 215.985601 
L 173.480262 210.747406 
L 174.042553 209.641799 
L 179.49734 212.022321 
L 185.042958 214.182806 
L 190.670537 216.119797 
L 196.371074 217.830196 
L 202.135448 219.311266 
L 207.954439 220.560637 
L 213.818736 221.576312 
L 219.718959 222.356665 
L 225.645668 222.900448 
L 231.589382 223.20679 
L 237.647995 223.277395 
L 245.086712 223.150081 
L 252.519922 222.836859 
L 259.942979 222.337923 
L 267.351245 221.653587 
L 274.740089 220.784276 
L 282.104894 219.730536 
L 289.441056 218.493024 
L 296.743992 217.072513 
L 304.009136 215.469893 
L 311.231949 213.686163 
L 318.407916 211.722439 
L 325.532553 209.579948 
L 332.601407 207.26003 
L 339.61006 204.764133 
L 346.554132 202.093818 
L 353.429283 199.250754 
L 360.231217 196.236718 
L 366.955682 193.053592 
L 373.598476 189.703368 
L 380.155447 186.188137 
L 384.96 183.476123 
L 378.469321 179.839944 
L 371.889775 176.367151 
L 365.225474 173.059915 
L 358.480583 169.920302 
L 351.659318 166.950275 
L 344.765941 164.151691 
L 337.804761 161.526297 
L 330.780129 159.075735 
L 324.403646 157.019835 
L 320.541303 150.661138 
L 316.521216 144.400977 
L 312.345897 138.243264 
L 308.017956 132.191847 
L 303.540098 126.250509 
L 298.915121 120.422961 
L 294.145916 114.712848 
L 289.235463 109.123736 
L 284.186832 103.659119 
L 280.786118 100.128 
L 275.648155 105.508711 
L 270.646302 111.016177 
L 265.783683 116.646954 
L 261.063339 122.397526 
L 256.488219 128.264296 
L 252.061183 134.243599 
L 247.784997 140.331698 
L 243.662334 146.524789 
L 239.69577 152.819 
L 236.16 158.741226 
L 239.979628 165.125672 
L 243.957657 171.412643 
L 248.091601 177.598209 
L 252.378877 183.678504 
L 256.816804 189.649728 
L 261.402609 195.50815 
L 266.133427 201.250108 
L 271.0063 206.872014 
L 276.018184 212.370353 
L 281.165945 217.741691 
L 286.446368 222.982669 
L 291.856151 228.090013 
L 297.391914 233.060531 
L 303.050198 237.891115 
L 308.827465 242.578748 
L 314.720106 247.120499 
L 317.15255 248.928 
L 323.091133 244.446489 
L 328.915835 239.817929 
L 334.623014 235.045213 
L 340.209105 230.131323 
L 345.670616 225.079332 
L 351.004133 219.892395 
L 356.206324 214.573756 
L 361.273937 209.126737 
L 366.203805 203.554743 
L 370.992848 197.861257 
L 375.638071 192.049835 
L 380.136573 186.124112 
L 384.96 179.409578 
L 380.627837 173.361183 
L 376.145834 167.422971 
L 371.516791 161.598653 
L 366.743602 155.891869 
L 361.82925 150.306185 
L 356.776805 144.845093 
L 351.589427 139.512006 
L 346.270356 134.310256 
L 340.822918 129.243094 
L 335.250515 124.313688 
L 329.556632 119.525117 
L 323.744826 114.880375 
L 317.81873 110.382364 
L 311.782046 106.033896 
L 305.638549 101.837688 
L 303.03763 100.128 
L 296.850583 104.259726 
L 290.768751 108.544821 
L 284.795936 112.980607 
L 278.93587 117.564311 
L 273.192216 122.29307 
L 267.568564 127.163927 
L 262.068428 132.173839 
L 256.695245 137.319675 
L 251.452373 142.598218 
L 246.34309 148.006169 
L 241.370588 153.54015 
L 236.16 159.651402 
L 240.981365 165.317543 
L 245.942862 170.861393 
L 251.04139 176.279485 
L 256.273763 181.568434 
L 261.636712 186.724935 
L 267.126883 191.745765 
L 272.740847 196.627786 
L 278.475094 201.367947 
L 284.326041 205.963286 
L 290.290031 210.41093 
L 296.363337 214.7081 
L 302.542164 218.852111 
L 308.822649 222.840372 
L 315.200867 226.670391 
L 321.672833 230.339774 
L 328.234502 233.846228 
L 334.881772 237.187562 
L 341.61049 240.361688 
L 348.41645 243.366621 
L 355.295399 246.200484 
L 362.423545 248.928 
L 369.372902 246.27147 
L 376.253681 243.442054 
L 383.061582 240.441521 
L 384.96 239.568246 
L 378.173335 236.519985 
L 371.312593 233.642325 
L 364.38206 230.937064 
L 357.386068 228.405895 
L 350.32899 226.050398 
L 343.215236 223.872045 
L 336.049252 221.872199 
L 328.835516 220.052108 
L 321.578536 218.412911 
L 314.282849 216.955632 
L 306.953013 215.681181 
L 299.59361 214.590355 
L 292.209239 213.683836 
L 284.804514 212.962191 
L 277.384064 212.425869 
L 269.952527 212.075207 
L 262.514545 211.910424 
L 255.074769 211.931623 
L 247.637848 212.13879 
L 240.208429 212.531796 
L 236.16 212.824475 
L 230.302409 213.878141 
L 224.491639 215.165205 
L 218.736986 216.683608 
L 213.047656 218.430922 
L 207.432751 220.40435 
L 201.901253 222.600736 
L 196.462012 225.016566 
L 191.123729 227.647976 
L 185.894944 230.490755 
L 180.784023 233.540356 
L 175.799142 236.791899 
L 170.948274 240.240184 
L 166.239182 243.879694 
L 161.679398 247.704606 
L 160.296241 248.928 
L 155.784273 245.046798 
L 151.120708 241.349131 
L 146.313006 237.840915 
L 141.368858 234.527762 
L 136.296175 231.414972 
L 131.10307 228.507525 
L 125.797853 225.810073 
L 120.38901 223.32693 
L 114.885194 221.06207 
L 109.29521 219.019116 
L 103.628001 217.201335 
L 97.892634 215.611636 
L 92.098284 214.252562 
L 87.36 213.320841 
L 93.1954 212.150503 
L 98.979331 210.747747 
L 104.70254 209.114818 
L 110.355871 207.254328 
L 115.930281 205.169252 
L 121.416851 202.862928 
L 126.806803 200.339044 
L 132.433801 197.414984 
L 136.23511 195.075888 
L 140.16984 192.968943 
L 144.22383 191.101731 
L 148.382491 189.480973 
L 152.630856 188.112501 
L 156.953635 187.001241 
L 161.335271 186.151192 
L 165.759995 185.565412 
L 170.211882 185.246011 
L 174.674911 185.194138 
L 179.13302 185.409979 
L 183.570163 185.892757 
L 187.970373 186.640736 
L 192.317813 187.651223 
L 196.126836 188.767403 
L 192.218212 186.612414 
L 188.445843 184.226926 
L 184.823307 181.619524 
L 181.363639 178.799592 
L 178.079291 175.777279 
L 174.982083 172.563461 
L 172.083161 169.169706 
L 169.39296 165.608227 
L 166.92116 161.891841 
L 164.676657 158.033924 
L 162.667529 154.04836 
L 160.901007 149.949492 
L 159.383448 145.752072 
L 158.120314 141.471206 
L 157.214479 137.606756 
L 157.265483 142.069795 
L 157.048774 146.527862 
L 156.565131 150.964911 
L 155.816296 155.364975 
L 154.804962 159.712218 
L 153.53477 163.990995 
L 152.010291 168.185907 
L 150.237012 172.281856 
L 148.221314 176.264101 
L 145.970451 180.118312 
L 143.492526 183.830616 
L 140.796454 187.387654 
L 137.89194 190.776623 
L 134.789436 193.985328 
L 131.873199 196.677924 
L 135.731553 194.434172 
L 139.717509 192.425821 
L 143.816721 190.660097 
L 148.014436 189.143355 
L 152.295548 187.881055 
L 156.644648 186.877739 
L 161.046086 186.137018 
L 165.484019 185.661558 
L 169.942478 185.453069 
L 174.405415 185.512303 
L 178.85677 185.839045 
L 183.280521 186.432121 
L 187.66075 187.289395 
L 191.98169 188.407783 
L 198.648427 190.341874 
L 204.462294 191.614874 
L 210.322417 192.654363 
L 216.219421 193.458678 
L 222.143873 194.026533 
L 228.086293 194.357018 
L 234.037176 194.449606 
L 243.59803 194.262446 
L 251.029671 193.913982 
L 258.450279 193.379854 
L 265.855216 192.660398 
L 273.239855 191.756062 
L 280.599581 190.667412 
L 287.929793 189.395129 
L 293.066692 188.390416 
L 290.032965 195.18359 
L 287.169997 202.050477 
L 284.479579 208.986785 
L 281.96339 215.988178 
L 279.623005 223.050282 
L 277.459885 230.168683 
L 275.475383 237.338932 
L 273.670738 244.556547 
L 272.670333 248.928 
L 270.97465 241.684011 
L 269.098417 234.484673 
L 267.042805 227.334486 
L 264.8091 220.237918 
L 262.398696 213.199404 
L 259.813102 206.223344 
L 257.053932 199.314097 
L 254.122911 192.47598 
L 251.021871 185.713269 
L 247.75275 179.030188 
L 244.31759 172.430916 
L 240.71854 165.919576 
L 236.957847 159.500237 
L 236.16 158.184272 
L 239.953837 151.784466 
L 243.586511 145.291824 
L 247.05575 138.710404 
L 250.359387 132.044318 
L 253.495356 125.297733 
L 256.461699 118.474865 
L 259.25656 111.579978 
L 261.878195 104.617381 
L 263.464298 100.128 
L 265.974205 107.131648 
L 268.658401 114.070366 
L 271.515207 120.939818 
L 274.54284 127.735711 
L 277.739406 134.453797 
L 281.102907 141.089879 
L 284.631243 147.639807 
L 288.322207 154.09949 
L 292.643268 161.21736 
L 296.593189 165.669294 
L 300.36192 170.27562 
L 303.943432 175.028972 
L 307.331997 179.921743 
L 310.522192 184.946107 
L 313.508915 190.094026 
L 316.287386 195.357264 
L 316.614071 196.011264 
L 316.206374 190.073641 
L 316.036444 184.124464 
L 316.104555 178.173251 
L 316.410595 172.229521 
L 316.954077 166.302785 
L 317.73413 160.402522 
L 318.749507 154.538173 
L 318.890372 153.82082 
L 315.586022 158.770856 
L 312.086367 163.584793 
L 308.397005 168.254931 
L 304.523839 172.773799 
L 300.473064 177.134166 
L 296.251161 181.329058 
L 291.864884 185.351763 
L 291.315145 185.833661 
L 296.955137 183.933116 
L 302.666619 182.259631 
L 308.440454 180.815882 
L 314.267406 179.604181 
L 320.138151 178.626464 
L 326.043299 177.884297 
L 331.973402 177.378867 
L 332.703024 177.333155 
L 339.895186 175.429601 
L 347.037517 173.346857 
L 354.125553 171.086224 
L 361.154864 168.649115 
L 368.121058 166.037052 
L 375.019779 163.25167 
L 381.846718 160.294707 
L 384.96 158.878238 
L 378.167497 155.843009 
L 371.301243 152.978524 
L 364.36553 150.286572 
L 357.364693 147.768836 
L 350.303106 145.426889 
L 343.185184 143.262196 
L 336.015374 141.276108 
L 328.798158 139.469868 
L 321.538045 137.844604 
L 314.239574 136.401331 
L 306.907305 135.140952 
L 299.545822 134.064255 
L 292.159724 133.171912 
L 284.753628 132.464481 
L 277.332162 131.942405 
L 269.899965 131.606009 
L 262.461681 131.455503 
L 255.02196 131.490982 
L 247.58545 131.712424 
L 240.156799 132.11969 
L 236.16 132.416004 
L 230.306127 133.490134 
L 224.499891 134.797498 
L 218.750579 136.336003 
L 213.067391 138.103189 
L 207.459416 140.096228 
L 201.935628 142.311932 
L 196.504863 144.746756 
L 191.175809 147.396805 
L 188.602884 148.773397 
L 184.926454 151.304242 
L 181.104879 153.61008 
L 177.151914 155.682611 
L 173.081785 157.514378 
L 168.90914 159.098787 
L 164.648996 160.430136 
L 160.316685 161.503635 
L 155.927798 162.315419 
L 151.498132 162.862567 
L 147.043627 163.143109 
L 142.580315 163.156038 
L 138.12426 162.901304 
L 133.691498 162.379826 
L 129.297982 161.593481 
L 127.071964 161.089989 
L 121.142339 160.578983 
L 115.197022 160.305506 
L 109.245525 160.269998 
L 103.297368 160.472514 
L 97.362068 160.912731 
L 91.449119 161.589945 
L 87.36 162.199284 
L 93.251852 163.040507 
L 99.172632 163.645445 
L 105.112867 164.013131 
L 111.063053 164.142978 
L 117.013673 164.034776 
L 122.955206 163.6887 
L 126.265892 163.392098 
L 121.670244 159.610353 
L 116.927042 156.01541 
L 112.043874 152.61302 
L 107.028554 149.408626 
L 101.889103 146.407354 
L 96.633745 143.614007 
L 91.270887 141.033052 
L 87.36 139.313734 
L 92.794741 136.887797 
L 98.128124 134.24647 
L 103.351615 131.393976 
L 108.456859 128.334881 
L 113.435689 125.074077 
L 118.280138 121.616782 
L 122.982457 117.968525 
L 127.535123 114.135145 
L 131.930854 110.122772 
L 136.162616 105.937827 
L 140.22364 101.587003 
L 141.514724 100.128 
L 145.518436 104.53162 
L 149.695044 108.771612 
L 154.037865 112.841192 
L 158.539952 116.733851 
L 163.194103 120.44336 
L 167.992872 123.963786 
L 172.928582 127.289496 
L 177.993336 130.415171 
L 183.179034 133.335809 
L 188.477377 136.046738 
L 193.879891 138.543621 
L 199.377932 140.822465 
L 204.962704 142.879622 
L 210.625274 144.711803 
L 216.356582 146.316076 
L 222.147459 147.689874 
L 227.988641 148.831 
L 233.870784 149.737628 
L 236.16 150.025689 
L 230.264507 150.841003 
L 224.406333 151.891423 
L 218.59485 153.175266 
L 212.839357 154.69048 
L 207.149059 156.43464 
L 201.533061 158.404956 
L 189.208438 162.995746 
L 184.896433 164.148107 
L 180.523088 165.039829 
L 176.104141 165.667704 
L 171.655496 166.02947 
L 167.193163 166.123827 
L 162.733202 165.950435 
L 158.291663 165.509918 
L 153.884533 164.803861 
L 149.52767 163.834805 
L 145.236756 162.606238 
L 141.027234 161.122582 
L 136.914252 159.389175 
L 132.912613 157.412257 
L 129.726293 155.615528 
L 132.265378 157.167443 
L 135.952594 159.682549 
L 139.482359 162.414229 
L 142.84197 165.352653 
L 146.019336 168.487244 
L 149.003022 171.806723 
L 151.782289 175.299142 
L 154.347136 178.951933 
L 156.688331 182.751949 
L 158.797449 186.685515 
L 160.6669 190.738473 
L 162.289955 194.896238 
L 163.660773 199.143847 
L 164.774421 203.466011 
L 165.62689 207.847177 
L 166.128603 211.470595 
L 165.82438 208.510385 
L 165.590559 204.053183 
L 165.624431 199.589981 
L 165.925873 195.136842 
L 166.493801 190.709791 
L 167.32617 186.324762 
L 168.419986 181.997536 
L 169.771311 177.743686 
L 171.375282 173.578522 
L 173.226127 169.517033 
L 175.317185 165.573837 
L 177.64093 161.763124 
L 180.188998 158.09861 
L 182.952221 154.593482 
L 185.920653 151.260356 
L 188.498889 148.665444 
L 192.732759 144.482631 
L 196.795975 140.133854 
L 200.682036 135.626071 
L 204.384725 130.966492 
L 207.898119 126.162572 
L 211.216597 121.221997 
L 214.33485 116.15267 
L 217.24789 110.962701 
L 219.951056 105.660392 
L 222.495037 100.128 
L 224.979002 105.536466 
L 227.677261 110.841273 
L 230.585497 116.033935 
L 233.699058 121.106146 
L 236.16 124.817625 
L 232.896051 129.794392 
L 229.833731 134.897702 
L 226.977938 140.119391 
L 224.333241 145.451103 
L 221.903871 150.884311 
L 219.693715 156.410321 
L 217.706308 162.020294 
L 215.94483 167.705254 
L 214.412099 173.456108 
L 213.110567 179.263654 
L 212.042315 185.118603 
L 211.209054 191.011586 
L 210.612115 196.933178 
L 210.252455 202.873904 
L 210.130648 208.82426 
L 210.246889 214.774728 
L 210.600993 220.715788 
L 211.192392 226.637935 
L 212.020141 232.531696 
L 213.082915 238.387641 
L 214.379015 244.196402 
L 215.617314 248.928 
L 217.103618 243.164973 
L 218.358273 237.347119 
L 219.379272 231.483746 
L 220.164983 225.584234 
L 220.714147 219.658022 
L 221.025887 213.714588 
L 221.099703 207.763443 
L 220.935478 201.814106 
L 220.533474 195.876095 
L 219.894335 189.95891 
L 219.019083 184.072016 
L 217.909118 178.224832 
L 216.566216 172.426712 
L 214.992525 166.686932 
L 213.190562 161.014674 
L 211.163212 155.419012 
L 208.913716 149.908899 
L 206.445674 144.493149 
L 203.763033 139.180426 
L 200.870087 133.97923 
L 197.771462 128.897882 
L 194.472116 123.944509 
L 190.977326 119.127038 
L 187.292685 114.453175 
L 183.424087 109.930396 
L 179.37772 105.565938 
L 175.160058 101.366782 
L 173.849206 100.128 
L 169.580957 104.275726 
L 165.481988 108.590819 
L 161.558854 113.066376 
L 157.817834 117.695236 
L 154.264911 122.469994 
L 150.905769 127.383012 
L 147.745782 132.426431 
L 144.790006 137.59218 
L 141.963654 143.032847 
L 136.014731 143.211456 
L 130.07771 143.627816 
L 124.162087 144.281261 
L 118.277327 145.170745 
L 112.432844 146.294845 
L 106.637989 147.651762 
L 100.90203 149.239327 
L 95.234146 151.054999 
L 89.643402 153.095874 
L 87.36 154.00332 
L 92.916282 156.136232 
L 98.553413 158.045246 
L 104.262375 159.727308 
L 110.034035 161.179727 
L 115.859159 162.40018 
L 121.72843 163.386713 
L 127.545785 164.278541 
L 131.86766 165.39331 
L 136.114912 166.76523 
L 140.272256 168.389364 
L 144.32473 170.259866 
L 148.257748 172.370005 
L 152.057156 174.712187 
L 155.709281 177.277981 
L 159.200979 180.058154 
L 162.519684 183.042701 
L 165.653451 186.22088 
L 168.591003 189.581254 
L 171.321767 193.111727 
L 173.835916 196.799596 
L 176.124401 200.631586 
L 178.178987 204.593908 
L 179.40479 207.277067 
L 177.07309 203.471217 
L 174.9738 199.532398 
L 173.114475 195.474784 
L 171.501806 191.312979 
L 170.141598 187.061961 
L 169.038745 182.73703 
L 168.197217 178.353749 
L 167.620043 173.927894 
L 167.309299 169.475394 
L 167.266104 165.012273 
L 167.490614 160.554593 
L 167.98202 156.118396 
L 168.738553 151.719649 
L 169.757492 147.374182 
L 171.035169 143.097635 
L 172.557374 138.929451 
L 171.500737 143.265905 
L 170.18597 147.531196 
L 168.617806 151.709973 
L 166.801886 155.787197 
L 164.744748 159.748195 
L 162.453794 163.57871 
L 159.93727 167.264958 
L 157.204232 170.793672 
L 154.264516 174.152152 
L 151.128702 177.328311 
L 147.808075 180.310719 
L 144.314587 183.088643 
L 140.66081 185.652084 
L 136.859893 187.991817 
L 132.925516 190.099421 
L 128.895677 191.957179 
L 132.716769 189.650541 
L 136.6693 187.577183 
L 140.739046 185.744565 
L 144.911359 184.159283 
L 149.171225 182.827042 
L 153.503311 181.752637 
L 157.892028 180.939935 
L 162.32158 180.39186 
L 166.776026 180.110386 
L 171.239335 180.096524 
L 175.695443 180.350325 
L 180.128314 180.870875 
L 184.521994 181.656301 
L 188.860671 182.703777 
L 193.128729 184.009532 
L 197.286819 185.559098 
L 192.957403 184.473985 
L 188.700845 183.131214 
L 184.532464 181.53562 
L 180.467262 179.692944 
L 176.51987 177.609818 
L 172.704494 175.293739 
L 169.034864 172.753043 
L 165.524189 169.996873 
L 162.185101 167.035148 
L 159.029619 163.878527 
L 156.069099 160.538372 
L 153.314195 157.026702 
L 150.774822 153.356157 
L 148.46012 149.539945 
L 146.378418 145.591802 
L 144.547185 141.54984 
L 142.618147 135.91953 
L 140.4655 130.370865 
L 138.092687 124.91272 
L 135.503504 119.553829 
L 132.702094 114.302764 
L 129.692938 109.167926 
L 126.480851 104.15753 
L 123.685103 100.128 
L 120.309641 105.02982 
L 117.132899 110.062701 
L 114.15996 115.218592 
L 111.39558 120.489245 
L 108.844181 125.866228 
L 106.509845 131.340938 
L 104.396306 136.904618 
L 102.506945 142.548367 
L 100.844785 148.263155 
L 99.412486 154.039841 
L 98.212338 159.869183 
L 97.246262 165.741855 
L 96.515802 171.648462 
L 96.022128 177.579555 
L 95.76603 183.525646 
L 95.747916 189.477222 
L 95.967817 195.424761 
L 96.42538 201.358749 
L 97.119873 207.269693 
L 98.050185 213.148137 
L 99.214828 218.984676 
L 100.611939 224.769973 
L 102.239282 230.494773 
L 104.094255 236.149917 
L 106.17389 241.726359 
L 108.474859 247.215177 
L 109.246485 248.928 
L 111.616566 243.468669 
L 113.766436 237.918927 
L 115.692656 232.287652 
L 117.392144 226.583853 
L 118.862182 220.816655 
L 120.100417 214.995285 
L 121.10487 209.129055 
L 121.873932 203.227349 
L 122.406374 197.299611 
L 122.701343 191.355322 
L 122.758369 185.403992 
L 122.577359 179.455142 
L 122.158603 173.518288 
L 121.502772 167.60293 
L 120.610914 161.718529 
L 119.484456 155.874501 
L 118.1252 150.080193 
L 116.535321 144.344875 
L 114.717362 138.677724 
L 112.674232 133.087804 
L 110.409199 127.58406 
L 107.925886 122.175294 
L 105.228267 116.870162 
L 102.320657 111.677149 
L 99.207708 106.604563 
L 95.8944 101.660519 
L 94.807866 100.128 
L 91.432404 105.02982 
L 88.255663 110.062701 
L 87.36 111.566555 
L 90.47732 116.636456 
L 93.794888 121.577642 
L 97.307398 126.382209 
L 101.009229 131.042469 
L 104.89446 135.550968 
L 108.956874 139.900493 
L 113.189974 144.084085 
L 117.586987 148.095052 
L 122.140879 151.926977 
L 126.844365 155.57373 
L 128.905812 157.079724 
L 132.626252 159.545418 
L 136.192144 162.229768 
L 139.590655 165.123112 
L 142.809554 168.215038 
L 145.837256 171.494419 
L 148.662865 174.949451 
L 151.276213 178.567702 
L 153.667893 182.336148 
L 155.829297 186.241227 
L 157.752649 190.268887 
L 159.431025 194.40463 
L 160.858385 198.633573 
L 162.029592 202.940497 
L 162.940431 207.309901 
L 163.582652 211.683322 
L 163.797088 207.225145 
L 164.278467 202.78785 
L 165.025058 198.387404 
L 166.034175 194.039646 
L 167.302184 189.760222 
L 168.824523 185.564533 
L 170.595713 181.46768 
L 172.609379 177.484407 
L 174.858275 173.629049 
L 177.334307 169.915481 
L 180.028564 166.357069 
L 182.931349 162.966618 
L 186.032216 159.756331 
L 189.320005 156.737761 
L 192.748709 153.947914 
L 188.808795 156.045151 
L 184.750213 157.90236 
L 180.587568 159.512858 
L 176.335841 160.87085 
L 172.010335 161.971447 
L 167.626616 162.810689 
L 163.200461 163.385556 
L 158.7478 163.693978 
L 154.284657 163.734846 
L 149.827094 163.508012 
L 145.391154 163.014294 
L 140.992802 162.255467 
L 136.647867 161.234262 
L 132.371986 159.954356 
L 128.220496 158.436335 
L 132.038551 160.747996 
L 135.711118 163.284443 
L 139.224982 166.036548 
L 142.567495 168.994407 
L 145.726629 172.147373 
L 148.691013 175.484099 
L 151.449979 178.992578 
L 153.993598 182.660182 
L 156.312716 186.473712 
L 158.398987 190.419443 
L 160.244901 194.483175 
L 161.843816 198.650283 
L 163.189977 202.90577 
L 164.27854 207.234321 
L 166.155739 215.914773 
L 167.76633 221.644308 
L 169.604753 227.304854 
L 171.668067 232.887355 
L 173.952972 238.38288 
L 176.45581 243.782637 
L 179.09191 248.928 
L 181.802618 243.629543 
L 184.299275 238.226925 
L 186.577888 232.728788 
L 188.634811 227.14393 
L 190.466755 221.481283 
L 192.070787 215.749908 
L 193.444343 209.958973 
L 194.585224 204.117743 
L 195.491606 198.235562 
L 196.162038 192.321841 
L 196.514232 187.793873 
L 200.101397 183.044785 
L 203.495779 178.156049 
L 206.691949 173.135483 
L 209.684794 167.991121 
L 212.469525 162.731192 
L 215.041687 157.36411 
L 217.397166 151.898463 
L 219.532193 146.342994 
L 221.443353 140.70659 
L 223.127588 134.998269 
L 224.582204 129.227162 
L 225.804874 123.402502 
L 226.793641 117.533608 
L 227.546924 111.629868 
L 228.063518 105.700727 
L 228.332109 100.128 
L 228.383304 101.615113 
L 228.736691 107.556215 
L 229.327376 113.478434 
L 230.154414 119.372294 
L 231.216482 125.228367 
L 232.511881 131.037285 
L 234.038539 136.789753 
L 235.794013 142.476571 
L 236.16 143.56895 
L 234.36055 149.242006 
L 232.789401 154.982482 
L 231.449066 160.781196 
L 230.341691 166.628871 
L 229.469045 172.516152 
L 228.832527 178.433619 
L 228.433152 184.371808 
L 228.271562 190.321217 
L 228.348014 196.272329 
L 228.662385 202.215624 
L 229.214174 208.141593 
L 230.002497 214.040756 
L 231.026092 219.903676 
L 232.283324 225.720974 
L 233.772179 231.483342 
L 235.490277 237.181563 
L 236.16 239.202518 
L 234.36055 244.875573 
L 233.225852 248.928 
L 231.587548 243.206327 
L 229.721749 237.554746 
L 227.631439 231.982297 
L 225.319963 226.497896 
L 222.791018 221.110316 
L 220.04865 215.828176 
L 217.097246 210.659927 
L 213.941529 205.613837 
L 210.586545 200.697978 
L 207.037664 195.920214 
L 203.300562 191.28819 
L 199.381217 186.809316 
L 197.514348 184.797693 
L 203.243803 183.186816 
L 208.904257 181.348111 
L 214.486655 179.284518 
L 219.982066 176.999339 
L 225.381698 174.496231 
L 230.676914 171.779197 
L 236.16 168.674234 
L 230.984564 165.735452 
L 225.695748 163.005982 
L 220.302012 160.490192 
L 214.811987 158.192107 
L 209.234453 156.115402 
L 203.578336 154.263399 
L 197.852682 152.639063 
L 192.066652 151.244991 
L 190.500252 150.909408 
L 190.31787 144.9606 
L 189.897745 139.023844 
L 189.240549 133.108637 
L 188.347333 127.224442 
L 187.219527 121.380673 
L 185.858934 115.586679 
L 184.267732 109.851728 
L 182.448466 104.184996 
L 180.989869 100.128 
L 179.007199 105.739649 
L 177.250522 111.426095 
L 175.722647 117.17824 
L 174.426018 122.986883 
L 173.36271 128.842731 
L 172.534425 134.736416 
L 171.811793 140.25399 
L 170.763978 144.592584 
L 169.457888 148.86054 
L 167.898225 153.042498 
L 166.090602 157.123407 
L 164.041523 161.08858 
L 161.758365 164.923747 
L 159.249342 168.615105 
L 156.523486 172.14937 
L 153.590607 175.513821 
L 150.461259 178.696352 
L 147.146705 181.685507 
L 143.658873 184.47053 
L 140.010317 187.041396 
L 136.214167 189.388855 
L 132.284084 191.504456 
L 129.397298 192.871815 
L 133.129625 190.424151 
L 137.002007 188.204697 
L 141.000508 186.22144 
L 145.110738 184.481518 
L 149.317904 182.991193 
L 153.606866 181.755828 
L 157.962187 180.77987 
L 162.368194 180.06683 
L 166.809028 179.619275 
L 171.268709 179.438816 
L 175.731186 179.526102 
L 180.180399 179.880818 
L 184.600335 180.50169 
L 188.975088 181.38648 
L 193.288913 182.532007 
L 197.731452 184.009277 
L 197.731452 184.009277 
" style="fill:none;stroke:#1f77b4;stroke-linecap:square;stroke-width:1.5;"/>
   </g>
   <g id="patch_5">
    <path d="M 57.6 263.808 
L 57.6 85.248 
" style="fill:none;stroke:#000000;stroke-linecap:square;stroke-linejoin:miter;stroke-width:0.8;"/>
   </g>
   <g id="patch_6">
    <path d="M 414.72 263.808 
L 414.72 85.248 
" style="fill:none;stroke:#000000;stroke-linecap:square;stroke-linejoin:miter;stroke-width:0.8;"/>
   </g>
   <g id="patch_7">
    <path d="M 57.6 263.808 
L 414.72 263.808 
" style="fill:none;stroke:#000000;stroke-linecap:square;stroke-linejoin:miter;stroke-width:0.8;"/>
   </g>
   <g id="patch_8">
    <path d="M 57.6 85.248 
L 414.72 85.248 
" style="fill:none;stroke:#000000;stroke-linecap:square;stroke-linejoin:miter;stroke-width:0.8;"/>
   </g>
  </g>
 </g>
 <defs>
  <clipPath id="pef53f22c73">
   <rect height="178.56" width="357.12" x="57.6" y="85.248"/>
  </clipPath>
 </defs>
</svg>
