<?xml version="1.0" encoding="utf-8" standalone="no"?>
<!DOCTYPE svg PUBLIC "-//W3C//DTD SVG 1.1//EN"
  "http://www.w3.org/Graphics/SVG/1.1/DTD/svg11.dtd">
<!-- Created with matplotlib (http://matplotlib.org/) -->
<svg height="345.6pt" version="1.1" viewBox="0 0 460.8 345.6" width="460.8pt" xmlns="http://www.w3.org/2000/svg" xmlns:xlink="http://www.w3.org/1999/xlink">
 <defs>
  <style type="text/css">
*{stroke-linecap:butt;stroke-linejoin:round;}
  </style>
 </defs>
 <g id="figure_1">
  <g id="patch_1">
   <path d="M 0 345.6 
L 460.8 345.6 
L 460.8 0 
L 0 0 
z
" style="fill:#ffffff;"/>
  </g>
  <g id="axes_1">
   <g id="patch_2">
    <path d="M 57.6 263.808 
L 414.72 263.808 
L 414.72 85.248 
L 57.6 85.248 
z
" style="fill:#ffffff;"/>
   </g>
   <g id="patch_3">
    <path clip-path="url(#p0b982e9249)" d="M 161.76 211.728 
C 171.625555 211.728 181.088371 207.808373 188.064372 200.832372 
C 195.040373 193.856371 198.96 184.393555 198.96 174.528 
C 198.96 164.662445 195.040373 155.199629 188.064372 148.223628 
C 181.088371 141.247627 171.625555 137.328 161.76 137.328 
C 151.894445 137.328 142.431629 141.247627 135.455628 148.223628 
C 128.479627 155.199629 124.56 164.662445 124.56 174.528 
C 124.56 184.393555 128.479627 193.856371 135.455628 200.832372 
C 142.431629 207.808373 151.894445 211.728 161.76 211.728 
z
" style="fill:#cc0000;fill-opacity:0.1;stroke:#cc0000;stroke-dasharray:7.4,3.2;stroke-dashoffset:0;stroke-linejoin:miter;stroke-width:2;"/>
   </g>
   <g id="patch_4">
    <path clip-path="url(#p0b982e9249)" d="M 310.56 196.848 
C 316.479333 196.848 322.157023 194.496224 326.342623 190.310623 
C 330.528224 186.125023 332.88 180.447333 332.88 174.528 
C 332.88 168.608667 330.528224 162.930977 326.342623 158.745377 
C 322.157023 154.559776 316.479333 152.208 310.56 152.208 
C 304.640667 152.208 298.962977 154.559776 294.777377 158.745377 
C 290.591776 162.930977 288.24 168.608667 288.24 174.528 
C 288.24 180.447333 290.591776 186.125023 294.777377 190.310623 
C 298.962977 194.496224 304.640667 196.848 310.56 196.848 
z
" style="fill:#cc0000;fill-opacity:0.1;stroke:#cc0000;stroke-dasharray:7.4,3.2;stroke-dashoffset:0;stroke-linejoin:miter;stroke-width:2;"/>
   </g>
   <g id="matplotlib.axis_1">
    <g id="xtick_1">
     <g id="line2d_1">
      <defs>
       <path d="M 0 0 
L 0 3.5 
" id="m2c6de2f0f5" style="stroke:#000000;stroke-width:0.8;"/>
      </defs>
      <g>
       <use style="stroke:#000000;stroke-width:0.8;" x="87.36" xlink:href="#m2c6de2f0f5" y="263.808"/>
      </g>
     </g>
     <g id="text_1">
      <!-- 0.0 -->
      <defs>
       <path d="M 31.78125 66.40625 
Q 24.171875 66.40625 20.328125 58.90625 
Q 16.5 51.421875 16.5 36.375 
Q 16.5 21.390625 20.328125 13.890625 
Q 24.171875 6.390625 31.78125 6.390625 
Q 39.453125 6.390625 43.28125 13.890625 
Q 47.125 21.390625 47.125 36.375 
Q 47.125 51.421875 43.28125 58.90625 
Q 39.453125 66.40625 31.78125 66.40625 
z
M 31.78125 74.21875 
Q 44.046875 74.21875 50.515625 64.515625 
Q 56.984375 54.828125 56.984375 36.375 
Q 56.984375 17.96875 50.515625 8.265625 
Q 44.046875 -1.421875 31.78125 -1.421875 
Q 19.53125 -1.421875 13.0625 8.265625 
Q 6.59375 17.96875 6.59375 36.375 
Q 6.59375 54.828125 13.0625 64.515625 
Q 19.53125 74.21875 31.78125 74.21875 
z
" id="DejaVuSans-30"/>
       <path d="M 10.6875 12.40625 
L 21 12.40625 
L 21 0 
L 10.6875 0 
z
" id="DejaVuSans-2e"/>
      </defs>
      <g transform="translate(79.408438 278.406437)scale(0.1 -0.1)">
       <use xlink:href="#DejaVuSans-30"/>
       <use x="63.623047" xlink:href="#DejaVuSans-2e"/>
       <use x="95.410156" xlink:href="#DejaVuSans-30"/>
      </g>
     </g>
    </g>
    <g id="xtick_2">
     <g id="line2d_2">
      <g>
       <use style="stroke:#000000;stroke-width:0.8;" x="161.76" xlink:href="#m2c6de2f0f5" y="263.808"/>
      </g>
     </g>
     <g id="text_2">
      <!-- 0.5 -->
      <defs>
       <path d="M 10.796875 72.90625 
L 49.515625 72.90625 
L 49.515625 64.59375 
L 19.828125 64.59375 
L 19.828125 46.734375 
Q 21.96875 47.46875 24.109375 47.828125 
Q 26.265625 48.1875 28.421875 48.1875 
Q 40.625 48.1875 47.75 41.5 
Q 54.890625 34.8125 54.890625 23.390625 
Q 54.890625 11.625 47.5625 5.09375 
Q 40.234375 -1.421875 26.90625 -1.421875 
Q 22.3125 -1.421875 17.546875 -0.640625 
Q 12.796875 0.140625 7.71875 1.703125 
L 7.71875 11.625 
Q 12.109375 9.234375 16.796875 8.0625 
Q 21.484375 6.890625 26.703125 6.890625 
Q 35.15625 6.890625 40.078125 11.328125 
Q 45.015625 15.765625 45.015625 23.390625 
Q 45.015625 31 40.078125 35.4375 
Q 35.15625 39.890625 26.703125 39.890625 
Q 22.75 39.890625 18.8125 39.015625 
Q 14.890625 38.140625 10.796875 36.28125 
z
" id="DejaVuSans-35"/>
      </defs>
      <g transform="translate(153.808437 278.406437)scale(0.1 -0.1)">
       <use xlink:href="#DejaVuSans-30"/>
       <use x="63.623047" xlink:href="#DejaVuSans-2e"/>
       <use x="95.410156" xlink:href="#DejaVuSans-35"/>
      </g>
     </g>
    </g>
    <g id="xtick_3">
     <g id="line2d_3">
      <g>
       <use style="stroke:#000000;stroke-width:0.8;" x="236.16" xlink:href="#m2c6de2f0f5" y="263.808"/>
      </g>
     </g>
     <g id="text_3">
      <!-- 1.0 -->
      <defs>
       <path d="M 12.40625 8.296875 
L 28.515625 8.296875 
L 28.515625 63.921875 
L 10.984375 60.40625 
L 10.984375 69.390625 
L 28.421875 72.90625 
L 38.28125 72.90625 
L 38.28125 8.296875 
L 54.390625 8.296875 
L 54.390625 0 
L 12.40625 0 
z
" id="DejaVuSans-31"/>
      </defs>
      <g transform="translate(228.208437 278.406437)scale(0.1 -0.1)">
       <use xlink:href="#DejaVuSans-31"/>
       <use x="63.623047" xlink:href="#DejaVuSans-2e"/>
       <use x="95.410156" xlink:href="#DejaVuSans-30"/>
      </g>
     </g>
    </g>
    <g id="xtick_4">
     <g id="line2d_4">
      <g>
       <use style="stroke:#000000;stroke-width:0.8;" x="310.56" xlink:href="#m2c6de2f0f5" y="263.808"/>
      </g>
     </g>
     <g id="text_4">
      <!-- 1.5 -->
      <g transform="translate(302.608437 278.406437)scale(0.1 -0.1)">
       <use xlink:href="#DejaVuSans-31"/>
       <use x="63.623047" xlink:href="#DejaVuSans-2e"/>
       <use x="95.410156" xlink:href="#DejaVuSans-35"/>
      </g>
     </g>
    </g>
    <g id="xtick_5">
     <g id="line2d_5">
      <g>
       <use style="stroke:#000000;stroke-width:0.8;" x="384.96" xlink:href="#m2c6de2f0f5" y="263.808"/>
      </g>
     </g>
     <g id="text_5">
      <!-- 2.0 -->
      <defs>
       <path d="M 19.1875 8.296875 
L 53.609375 8.296875 
L 53.609375 0 
L 7.328125 0 
L 7.328125 8.296875 
Q 12.9375 14.109375 22.625 23.890625 
Q 32.328125 33.6875 34.8125 36.53125 
Q 39.546875 41.84375 41.421875 45.53125 
Q 43.3125 49.21875 43.3125 52.78125 
Q 43.3125 58.59375 39.234375 62.25 
Q 35.15625 65.921875 28.609375 65.921875 
Q 23.96875 65.921875 18.8125 64.3125 
Q 13.671875 62.703125 7.8125 59.421875 
L 7.8125 69.390625 
Q 13.765625 71.78125 18.9375 73 
Q 24.125 74.21875 28.421875 74.21875 
Q 39.75 74.21875 46.484375 68.546875 
Q 53.21875 62.890625 53.21875 53.421875 
Q 53.21875 48.921875 51.53125 44.890625 
Q 49.859375 40.875 45.40625 35.40625 
Q 44.1875 33.984375 37.640625 27.21875 
Q 31.109375 20.453125 19.1875 8.296875 
z
" id="DejaVuSans-32"/>
      </defs>
      <g transform="translate(377.008437 278.406437)scale(0.1 -0.1)">
       <use xlink:href="#DejaVuSans-32"/>
       <use x="63.623047" xlink:href="#DejaVuSans-2e"/>
       <use x="95.410156" xlink:href="#DejaVuSans-30"/>
      </g>
     </g>
    </g>
   </g>
   <g id="matplotlib.axis_2">
    <g id="ytick_1">
     <g id="line2d_6">
      <defs>
       <path d="M 0 0 
L -3.5 0 
" id="me55c2c61c7" style="stroke:#000000;stroke-width:0.8;"/>
      </defs>
      <g>
       <use style="stroke:#000000;stroke-width:0.8;" x="57.6" xlink:href="#me55c2c61c7" y="248.928"/>
      </g>
     </g>
     <g id="text_6">
      <!-- 0.0 -->
      <g transform="translate(34.696875 252.727219)scale(0.1 -0.1)">
       <use xlink:href="#DejaVuSans-30"/>
       <use x="63.623047" xlink:href="#DejaVuSans-2e"/>
       <use x="95.410156" xlink:href="#DejaVuSans-30"/>
      </g>
     </g>
    </g>
    <g id="ytick_2">
     <g id="line2d_7">
      <g>
       <use style="stroke:#000000;stroke-width:0.8;" x="57.6" xlink:href="#me55c2c61c7" y="219.168"/>
      </g>
     </g>
     <g id="text_7">
      <!-- 0.2 -->
      <g transform="translate(34.696875 222.967219)scale(0.1 -0.1)">
       <use xlink:href="#DejaVuSans-30"/>
       <use x="63.623047" xlink:href="#DejaVuSans-2e"/>
       <use x="95.410156" xlink:href="#DejaVuSans-32"/>
      </g>
     </g>
    </g>
    <g id="ytick_3">
     <g id="line2d_8">
      <g>
       <use style="stroke:#000000;stroke-width:0.8;" x="57.6" xlink:href="#me55c2c61c7" y="189.408"/>
      </g>
     </g>
     <g id="text_8">
      <!-- 0.4 -->
      <defs>
       <path d="M 37.796875 64.3125 
L 12.890625 25.390625 
L 37.796875 25.390625 
z
M 35.203125 72.90625 
L 47.609375 72.90625 
L 47.609375 25.390625 
L 58.015625 25.390625 
L 58.015625 17.1875 
L 47.609375 17.1875 
L 47.609375 0 
L 37.796875 0 
L 37.796875 17.1875 
L 4.890625 17.1875 
L 4.890625 26.703125 
z
" id="DejaVuSans-34"/>
      </defs>
      <g transform="translate(34.696875 193.207219)scale(0.1 -0.1)">
       <use xlink:href="#DejaVuSans-30"/>
       <use x="63.623047" xlink:href="#DejaVuSans-2e"/>
       <use x="95.410156" xlink:href="#DejaVuSans-34"/>
      </g>
     </g>
    </g>
    <g id="ytick_4">
     <g id="line2d_9">
      <g>
       <use style="stroke:#000000;stroke-width:0.8;" x="57.6" xlink:href="#me55c2c61c7" y="159.648"/>
      </g>
     </g>
     <g id="text_9">
      <!-- 0.6 -->
      <defs>
       <path d="M 33.015625 40.375 
Q 26.375 40.375 22.484375 35.828125 
Q 18.609375 31.296875 18.609375 23.390625 
Q 18.609375 15.53125 22.484375 10.953125 
Q 26.375 6.390625 33.015625 6.390625 
Q 39.65625 6.390625 43.53125 10.953125 
Q 47.40625 15.53125 47.40625 23.390625 
Q 47.40625 31.296875 43.53125 35.828125 
Q 39.65625 40.375 33.015625 40.375 
z
M 52.59375 71.296875 
L 52.59375 62.3125 
Q 48.875 64.0625 45.09375 64.984375 
Q 41.3125 65.921875 37.59375 65.921875 
Q 27.828125 65.921875 22.671875 59.328125 
Q 17.53125 52.734375 16.796875 39.40625 
Q 19.671875 43.65625 24.015625 45.921875 
Q 28.375 48.1875 33.59375 48.1875 
Q 44.578125 48.1875 50.953125 41.515625 
Q 57.328125 34.859375 57.328125 23.390625 
Q 57.328125 12.15625 50.6875 5.359375 
Q 44.046875 -1.421875 33.015625 -1.421875 
Q 20.359375 -1.421875 13.671875 8.265625 
Q 6.984375 17.96875 6.984375 36.375 
Q 6.984375 53.65625 15.1875 63.9375 
Q 23.390625 74.21875 37.203125 74.21875 
Q 40.921875 74.21875 44.703125 73.484375 
Q 48.484375 72.75 52.59375 71.296875 
z
" id="DejaVuSans-36"/>
      </defs>
      <g transform="translate(34.696875 163.447219)scale(0.1 -0.1)">
       <use xlink:href="#DejaVuSans-30"/>
       <use x="63.623047" xlink:href="#DejaVuSans-2e"/>
       <use x="95.410156" xlink:href="#DejaVuSans-36"/>
      </g>
     </g>
    </g>
    <g id="ytick_5">
     <g id="line2d_10">
      <g>
       <use style="stroke:#000000;stroke-width:0.8;" x="57.6" xlink:href="#me55c2c61c7" y="129.888"/>
      </g>
     </g>
     <g id="text_10">
      <!-- 0.8 -->
      <defs>
       <path d="M 31.78125 34.625 
Q 24.75 34.625 20.71875 30.859375 
Q 16.703125 27.09375 16.703125 20.515625 
Q 16.703125 13.921875 20.71875 10.15625 
Q 24.75 6.390625 31.78125 6.390625 
Q 38.8125 6.390625 42.859375 10.171875 
Q 46.921875 13.96875 46.921875 20.515625 
Q 46.921875 27.09375 42.890625 30.859375 
Q 38.875 34.625 31.78125 34.625 
z
M 21.921875 38.8125 
Q 15.578125 40.375 12.03125 44.71875 
Q 8.5 49.078125 8.5 55.328125 
Q 8.5 64.0625 14.71875 69.140625 
Q 20.953125 74.21875 31.78125 74.21875 
Q 42.671875 74.21875 48.875 69.140625 
Q 55.078125 64.0625 55.078125 55.328125 
Q 55.078125 49.078125 51.53125 44.71875 
Q 48 40.375 41.703125 38.8125 
Q 48.828125 37.15625 52.796875 32.3125 
Q 56.78125 27.484375 56.78125 20.515625 
Q 56.78125 9.90625 50.3125 4.234375 
Q 43.84375 -1.421875 31.78125 -1.421875 
Q 19.734375 -1.421875 13.25 4.234375 
Q 6.78125 9.90625 6.78125 20.515625 
Q 6.78125 27.484375 10.78125 32.3125 
Q 14.796875 37.15625 21.921875 38.8125 
z
M 18.3125 54.390625 
Q 18.3125 48.734375 21.84375 45.5625 
Q 25.390625 42.390625 31.78125 42.390625 
Q 38.140625 42.390625 41.71875 45.5625 
Q 45.3125 48.734375 45.3125 54.390625 
Q 45.3125 60.0625 41.71875 63.234375 
Q 38.140625 66.40625 31.78125 66.40625 
Q 25.390625 66.40625 21.84375 63.234375 
Q 18.3125 60.0625 18.3125 54.390625 
z
" id="DejaVuSans-38"/>
      </defs>
      <g transform="translate(34.696875 133.687219)scale(0.1 -0.1)">
       <use xlink:href="#DejaVuSans-30"/>
       <use x="63.623047" xlink:href="#DejaVuSans-2e"/>
       <use x="95.410156" xlink:href="#DejaVuSans-38"/>
      </g>
     </g>
    </g>
    <g id="ytick_6">
     <g id="line2d_11">
      <g>
       <use style="stroke:#000000;stroke-width:0.8;" x="57.6" xlink:href="#me55c2c61c7" y="100.128"/>
      </g>
     </g>
     <g id="text_11">
      <!-- 1.0 -->
      <g transform="translate(34.696875 103.927219)scale(0.1 -0.1)">
       <use xlink:href="#DejaVuSans-31"/>
       <use x="63.623047" xlink:href="#DejaVuSans-2e"/>
       <use x="95.410156" xlink:href="#DejaVuSans-30"/>
      </g>
     </g>
    </g>
   </g>
   <g id="line2d_12">
    <path clip-path="url(#p0b982e9249)" d="M 236.16 248.928 
L 236.16 100.128 
" style="fill:none;stroke:#cc0000;stroke-dasharray:7.4,3.2;stroke-dashoffset:0;stroke-width:2;"/>
   </g>
   <g id="line2d_13">
    <path clip-path="url(#p0b982e9249)" d="M 87.36 248.928 
L 384.96 248.928 
" style="fill:none;stroke:#009900;stroke-linecap:square;stroke-width:2;"/>
   </g>
   <g id="line2d_14">
    <path clip-path="url(#p0b982e9249)" d="M 384.96 248.928 
L 384.96 100.128 
" style="fill:none;stroke:#009900;stroke-linecap:square;stroke-width:2;"/>
   </g>
   <g id="line2d_15">
    <path clip-path="url(#p0b982e9249)" d="M 384.96 100.128 
L 87.36 100.128 
" style="fill:none;stroke:#009900;stroke-linecap:square;stroke-width:2;"/>
   </g>
   <g id="line2d_16">
    <path clip-path="url(#p0b982e9249)" d="M 87.36 100.128 
L 87.36 248.928 
" style="fill:none;stroke:#009900;stroke-linecap:square;stroke-width:2;"/>
   </g>
   <g id="line2d_17">
    <path clip-path="url(#p0b982e9249)" d="M 104.70939 181.967155 
L 105.416745 176.057736 
L 105.88722 170.124758 
L 106.120062 164.177711 
L 106.1149 158.22611 
L 105.871742 152.279476 
L 105.390976 146.347323 
L 104.673372 140.43914 
L 103.720077 134.56438 
L 102.532618 128.73244 
L 101.112893 122.952651 
L 99.463173 117.234259 
L 97.586098 111.586412 
L 95.484672 106.018146 
L 92.977823 100.128 
L 90.638848 105.60073 
L 88.520595 111.162617 
L 87.36 114.529834 
L 89.344529 120.140826 
L 91.55185 125.667969 
L 93.978432 131.102422 
L 96.620394 136.435491 
L 99.473508 141.658643 
L 102.53321 146.763523 
L 105.794606 151.741965 
L 109.252477 156.586003 
L 112.901293 161.287888 
L 116.735215 165.840099 
L 120.74811 170.235353 
L 124.562407 174.104859 
L 120.296217 178.254702 
L 116.199389 182.571829 
L 112.278477 187.049331 
L 108.539753 191.680047 
L 104.9892 196.456568 
L 101.632496 201.371252 
L 98.475013 206.416238 
L 95.5218 211.583454 
L 92.777584 216.864633 
L 90.246753 222.251327 
L 87.933357 227.734919 
L 87.36 229.196032 
L 89.615426 234.703721 
L 92.089296 240.116811 
L 94.777653 245.426643 
L 96.699992 248.928 
L 99.529904 243.69224 
L 102.148177 238.347502 
L 104.550624 232.902337 
L 106.733401 227.365454 
L 108.693016 221.745713 
L 110.426333 216.052103 
L 111.93058 210.293734 
L 113.20335 204.479816 
L 114.242608 198.619652 
L 115.046691 192.722616 
L 115.614311 186.798143 
L 115.944562 180.855709 
L 116.036915 174.904823 
L 115.891222 168.955003 
L 115.507716 163.015769 
L 114.887011 157.096621 
L 114.0301 151.20703 
L 112.938353 145.356417 
L 111.613517 139.554143 
L 110.057712 133.809488 
L 108.273427 128.131645 
L 106.263515 122.529696 
L 104.031193 117.012602 
L 101.580032 111.589191 
L 98.913953 106.268138 
L 96.037221 101.057956 
L 95.494715 100.128 
L 92.580361 105.317231 
L 89.875852 110.618855 
L 87.36 116.082853 
L 89.84802 121.489454 
L 92.550256 126.792236 
L 95.462385 131.982717 
L 98.579749 137.052591 
L 101.89736 141.993748 
L 105.409911 146.798284 
L 109.111783 151.458513 
L 112.997052 155.966978 
L 117.059505 160.316468 
L 121.292641 164.500023 
L 125.133493 168.021161 
L 119.63527 170.299566 
L 114.232558 172.796019 
L 108.933998 175.506526 
L 103.748068 178.426751 
L 98.683065 181.552022 
L 93.74709 184.877339 
L 88.94804 188.397382 
L 87.36 189.628856 
L 92.111074 193.213389 
L 97.00169 196.605062 
L 102.024026 199.798451 
L 107.170045 202.788445 
L 112.431516 205.570261 
L 117.800022 208.13945 
L 123.266973 210.4919 
L 128.823625 212.623849 
L 134.461086 214.531886 
L 140.17034 216.212958 
L 145.942252 217.664377 
L 151.767588 218.883819 
L 157.637029 219.869335 
L 163.541185 220.619348 
L 169.470611 221.132657 
L 175.415822 221.408442 
L 181.367305 221.446261 
L 187.315539 221.246054 
L 193.25101 220.808142 
L 199.164221 220.133224 
L 205.045713 219.22238 
L 210.886076 218.077068 
L 216.675968 216.699121 
L 222.406124 215.090741 
L 228.067379 213.254503 
L 233.650676 211.193344 
L 236.16 210.183121 
L 230.615094 208.020807 
L 224.988154 206.081961 
L 219.288182 204.369682 
L 213.524296 202.886712 
L 207.705718 201.635421 
L 201.841756 200.617813 
L 195.94179 199.835514 
L 189.550521 199.257071 
L 190.762917 205.083878 
L 192.207355 210.857541 
L 193.881521 216.568823 
L 195.782739 222.208588 
L 197.907967 227.767814 
L 200.253804 233.237606 
L 202.816499 238.609214 
L 205.59195 243.874046 
L 208.517745 248.928 
L 211.497641 243.776127 
L 214.269133 238.50921 
L 216.827788 233.135676 
L 219.169513 227.664122 
L 221.29056 222.1033 
L 223.187538 216.462107 
L 224.85741 210.749568 
L 226.297506 204.974821 
L 227.505522 199.147104 
L 228.479525 193.275742 
L 229.217957 187.370126 
L 229.719637 181.439704 
L 229.983762 175.493965 
L 230.009909 169.542419 
L 229.798037 163.594588 
L 229.348485 157.659988 
L 228.661972 151.748111 
L 227.739595 145.868417 
L 226.582832 140.030312 
L 225.193532 134.243134 
L 223.573918 128.516142 
L 221.72658 122.858499 
L 219.654475 117.279255 
L 217.360918 111.787337 
L 214.849576 106.391528 
L 212.124469 101.100463 
L 211.594057 100.128 
L 208.829637 105.398632 
L 206.278198 110.775596 
L 203.943821 116.250289 
L 201.83024 121.813953 
L 199.940837 127.457687 
L 198.278635 133.172463 
L 196.846292 138.949138 
L 195.6461 144.778471 
L 194.67998 150.651136 
L 194.009695 155.986232 
L 199.490792 158.305535 
L 205.060251 160.403796 
L 210.709164 162.277661 
L 216.428492 163.92413 
L 222.209087 165.34057 
L 228.041701 166.524715 
L 233.917002 167.474671 
L 236.16 167.774065 
L 230.270932 168.634564 
L 224.420985 169.729875 
L 218.619519 171.058245 
L 212.875813 172.617549 
L 207.199058 174.405293 
L 201.598334 176.418616 
L 198.84075 177.504233 
L 203.990243 180.488242 
L 209.254944 183.263939 
L 214.626433 185.826884 
L 220.096116 188.172977 
L 225.655242 190.298464 
L 231.294919 192.199945 
L 236.16 193.6419 
L 230.458769 195.349984 
L 224.830404 197.284689 
L 219.283908 199.442922 
L 213.828156 201.821228 
L 208.471874 204.415805 
L 203.223632 207.2225 
L 198.091826 210.236824 
L 193.084666 213.453954 
L 188.210161 216.868743 
L 183.476111 220.47573 
L 178.890089 224.269142 
L 174.459431 228.242913 
L 170.191226 232.390684 
L 166.092301 236.70582 
L 162.169214 241.181417 
L 158.428242 245.810316 
L 156.074938 248.928 
L 152.456757 244.2025 
L 148.652501 239.625469 
L 144.668256 235.204228 
L 140.510395 230.945852 
L 136.18557 226.857151 
L 131.7007 222.944668 
L 127.06296 219.214662 
L 122.279769 215.673099 
L 117.358779 212.325646 
L 112.307864 209.177657 
L 107.135102 206.23417 
L 101.84877 203.499892 
L 96.457325 200.979198 
L 90.969391 198.67612 
L 87.36 197.29954 
L 92.905869 195.139699 
L 98.360932 192.759809 
L 103.716461 190.163679 
L 108.963888 187.355462 
L 114.09482 184.33965 
L 119.101047 181.121067 
L 123.97456 177.704864 
L 124.656328 177.203354 
L 119.358466 174.491484 
L 113.956395 171.993642 
L 108.458759 169.713823 
L 102.874352 167.655674 
L 97.212107 165.822488 
L 91.481084 164.217198 
L 87.36 163.213706 
L 93.134448 161.772413 
L 98.846642 160.101356 
L 104.487441 158.203209 
L 110.047823 156.081009 
L 115.518892 153.73815 
L 120.891895 151.178381 
L 126.158237 148.405797 
L 131.309492 145.424833 
L 136.33742 142.240258 
L 141.233978 138.857166 
L 145.991331 135.280971 
L 150.601869 131.517393 
L 155.058216 127.572453 
L 159.353243 123.452463 
L 163.480079 119.164012 
L 167.432122 114.713963 
L 171.203049 110.109433 
L 174.786827 105.35779 
L 178.401932 100.128 
L 181.779467 105.028392 
L 185.350263 109.789799 
L 189.108608 114.404604 
L 193.04849 118.865423 
L 197.163605 123.165121 
L 201.447372 127.296819 
L 205.892935 131.253908 
L 210.493184 135.030055 
L 215.240758 138.619222 
L 220.128064 142.015665 
L 225.147281 145.213951 
L 230.290382 148.208964 
L 235.549136 150.995912 
L 236.16 151.302403 
L 230.8885 154.065168 
L 225.731698 157.036527 
L 220.697844 160.211726 
L 215.79499 163.585686 
L 211.03098 167.153009 
L 206.413436 170.907988 
L 201.949745 174.844616 
L 198.815169 177.8074 
L 202.381509 182.572146 
L 206.135535 187.190464 
L 210.071242 191.654968 
L 214.182333 195.958514 
L 218.462232 200.094218 
L 222.904092 204.055463 
L 227.500806 207.835913 
L 232.245021 211.429519 
L 236.16 214.178557 
L 231.302721 217.617805 
L 226.586861 221.248541 
L 222.019964 225.064957 
L 217.609336 229.060947 
L 213.362033 233.23012 
L 209.28485 237.565804 
L 205.384309 242.061064 
L 201.666651 246.708708 
L 199.995774 248.928 
L 196.365527 244.211763 
L 192.549585 239.64447 
L 188.554052 235.233428 
L 184.385321 230.985692 
L 180.05006 226.908059 
L 175.555204 223.007052 
L 170.907946 219.288911 
L 166.115719 215.759585 
L 161.18619 212.424721 
L 160.037459 211.688098 
L 154.794509 214.504665 
L 149.668385 217.528642 
L 144.667288 220.75519 
L 139.79922 224.179148 
L 135.071966 227.795038 
L 130.493092 231.597075 
L 126.069921 235.579177 
L 121.809529 239.734974 
L 117.718733 244.057817 
L 113.480488 248.928 
L 109.581057 244.431777 
L 105.504944 240.095086 
L 101.258671 235.924866 
L 96.849029 231.927786 
L 92.283075 228.110243 
L 87.36 224.324847 
L 92.081268 220.701146 
L 96.65385 216.891543 
L 101.070431 212.902133 
L 105.323946 208.739298 
L 109.407589 204.409698 
L 113.314827 199.920259 
L 117.039411 195.278162 
L 120.575381 190.490836 
L 123.917081 185.565937 
L 125.540189 183.011236 
L 120.419693 179.977739 
L 115.181985 177.151435 
L 109.835445 174.536843 
L 104.388625 172.138148 
L 98.850241 169.959186 
L 93.229151 168.003443 
L 87.36 166.225003 
L 93.056903 164.502541 
L 98.680369 162.553642 
L 104.221402 160.381423 
L 109.671137 157.989359 
L 115.020856 155.381277 
L 120.262 152.56135 
L 125.386185 149.534088 
L 130.385212 146.304335 
L 135.251086 142.877258 
L 139.97602 139.258339 
L 144.552457 135.453368 
L 148.973075 131.468432 
L 153.230803 127.309906 
L 157.318827 122.984443 
L 161.23061 118.498962 
L 164.959892 113.860639 
L 168.500707 109.076895 
L 171.847392 104.155383 
L 174.37909 100.128 
L 177.566747 105.153975 
L 180.95284 110.048457 
L 184.531951 114.803617 
L 188.298355 119.411846 
L 192.246027 123.865774 
L 196.36865 128.158274 
L 200.65963 132.28248 
L 205.112102 136.231793 
L 209.718943 139.999896 
L 214.472782 143.58076 
L 219.366016 146.968657 
L 224.390815 150.158167 
L 229.539141 153.144188 
L 234.802758 155.921941 
L 236.16 156.595216 
L 230.868373 159.319233 
L 225.689911 162.25268 
L 220.632898 165.390864 
L 215.705423 168.728764 
L 210.915371 172.26104 
L 206.270403 175.982042 
L 201.777951 179.885817 
L 197.842284 183.578349 
L 199.757426 189.213401 
L 201.896378 194.76736 
L 204.255719 200.231342 
L 206.831673 205.596604 
L 209.62012 210.854564 
L 212.616599 215.99681 
L 215.816316 221.015116 
L 219.214152 225.901453 
L 222.804672 230.648004 
L 226.582131 235.247176 
L 230.540486 239.691611 
L 234.673405 243.974199 
L 236.16 245.433639 
L 232.66831 248.928 
L 228.44721 244.7323 
L 224.061704 240.708755 
L 219.518806 236.863802 
L 214.825786 233.203593 
L 209.990149 229.733981 
L 205.019634 226.460519 
L 199.92219 223.388443 
L 194.705974 220.522668 
L 189.37933 217.867778 
L 183.950779 215.42802 
L 178.429006 213.207298 
L 172.822845 211.209165 
L 170.911023 210.584882 
L 166.876708 214.960483 
L 163.020597 219.493913 
L 159.348859 224.17792 
L 155.867368 229.00501 
L 152.581694 233.967462 
L 149.497094 239.057337 
L 146.618502 244.266491 
L 144.266463 248.928 
L 141.5724 243.621061 
L 138.668271 238.4261 
L 135.558722 233.351429 
L 132.248728 228.405166 
L 128.743583 223.595224 
L 125.048896 218.929298 
L 121.170577 214.414852 
L 117.11483 210.059109 
L 112.888144 205.869036 
L 108.497281 201.851337 
L 103.949266 198.01244 
L 99.251373 194.358486 
L 94.411118 190.895319 
L 89.436246 187.628482 
L 87.36 186.347368 
L 92.387764 183.162534 
L 97.284147 179.77919 
L 102.041315 176.202749 
L 106.651659 172.438934 
L 111.107803 168.493764 
L 115.402618 164.373552 
L 119.529232 160.084888 
L 123.481045 155.634635 
L 127.251734 151.029911 
L 130.835268 146.278083 
L 134.225912 141.386753 
L 137.418243 136.363745 
L 140.407154 131.217097 
L 143.187863 125.95504 
L 145.755922 120.585994 
L 148.107221 115.118548 
L 150.238001 109.561448 
L 152.144851 103.923585 
L 153.28918 100.128 
L 155.045163 105.81466 
L 157.027147 111.426551 
L 159.231961 116.954695 
L 161.656079 122.390248 
L 164.295622 127.724514 
L 167.146367 132.94896 
L 170.383357 138.341294 
L 175.422251 135.174098 
L 180.33046 131.807934 
L 185.100133 128.248187 
L 189.723639 124.500551 
L 194.193581 120.571021 
L 198.502808 116.465885 
L 202.644426 112.19171 
L 206.611811 107.755332 
L 210.398614 103.163851 
L 212.739067 100.128 
L 216.40634 104.815503 
L 220.258131 109.352605 
L 224.288275 113.732047 
L 228.490328 117.946823 
L 232.857565 121.990191 
L 236.16 124.841664 
L 231.676093 128.75525 
L 227.352274 132.845015 
L 223.195461 137.104414 
L 219.212303 141.526635 
L 215.409173 146.104602 
L 211.792155 150.830992 
L 208.367036 155.698244 
L 205.139294 160.69857 
L 202.114094 165.823972 
L 199.296275 171.06625 
L 198.867749 171.909799 
L 202.363184 176.726802 
L 206.048452 181.400171 
L 209.917657 185.922431 
L 213.964609 190.286346 
L 218.182834 194.484936 
L 222.565584 198.511484 
L 227.105847 202.359547 
L 231.79636 206.02297 
L 236.16 209.171161 
L 243.287122 211.305371 
L 250.465366 213.260754 
L 257.690247 215.036088 
L 264.957249 216.630265 
L 272.261831 218.042287 
L 279.599427 219.271273 
L 286.965451 220.316453 
L 294.3553 221.177176 
L 301.764356 221.852903 
L 309.187988 222.343211 
L 316.621557 222.647795 
L 324.060417 222.766464 
L 331.499919 222.699144 
L 338.935413 222.445876 
L 346.362252 222.00682 
L 353.775796 221.382249 
L 361.17141 220.572554 
L 368.544473 219.578241 
L 375.890377 218.399931 
L 383.204531 217.038361 
L 384.96 216.683318 
L 377.654173 215.277754 
L 370.315493 214.055257 
L 362.948548 213.01659 
L 355.55794 212.162401 
L 348.14829 211.493226 
L 340.724227 211.009482 
L 333.290392 210.711471 
L 325.85143 210.599379 
L 318.411991 210.673278 
L 310.976723 210.933119 
L 303.550275 211.378742 
L 296.137286 212.009868 
L 288.742391 212.826102 
L 281.37021 213.826934 
L 274.025351 215.011738 
L 266.712404 216.379775 
L 259.435939 217.930188 
L 252.200505 219.66201 
L 245.010623 221.574158 
L 237.870786 223.665437 
L 236.16 224.195474 
L 243.287122 226.329683 
L 250.465366 228.285066 
L 257.690247 230.060401 
L 264.957249 231.654577 
L 272.261831 233.066599 
L 279.599427 234.295585 
L 286.965451 235.340766 
L 294.3553 236.201488 
L 301.764356 236.877215 
L 309.187988 237.367524 
L 316.621557 237.672107 
L 324.060417 237.790776 
L 331.499919 237.723456 
L 338.935413 237.470188 
L 346.362252 237.031132 
L 353.775796 236.406561 
L 361.17141 235.596866 
L 368.544473 234.602553 
L 375.890377 233.424243 
L 383.204531 232.062673 
L 384.96 231.70763 
L 377.654173 230.302067 
L 370.315493 229.079569 
L 362.948548 228.040902 
L 355.55794 227.186714 
L 348.14829 226.517538 
L 340.724227 226.033794 
L 333.290392 225.735783 
L 325.85143 225.623691 
L 318.411991 225.69759 
L 310.976723 225.957432 
L 303.550275 226.403055 
L 296.137286 227.03418 
L 288.742391 227.850414 
L 281.37021 228.851246 
L 274.025351 230.03605 
L 266.712404 231.404087 
L 259.435939 232.954501 
L 252.200505 234.686323 
L 245.010623 236.59847 
L 237.870786 238.689749 
L 236.16 239.219786 
L 231.340103 242.711228 
L 226.663681 246.392622 
L 223.65434 248.928 
L 219.076899 245.124236 
L 214.35101 241.506564 
L 209.484233 238.080771 
L 204.484353 234.852337 
L 199.35937 231.826427 
L 194.117483 229.007882 
L 188.767076 226.401212 
L 183.31671 224.010585 
L 177.775105 221.839828 
L 172.151125 219.892412 
L 166.453767 218.171453 
L 160.692147 216.679704 
L 154.875482 215.419552 
L 149.013077 214.393012 
L 143.11431 213.601727 
L 137.188619 213.046962 
L 131.245483 212.729606 
L 125.29441 212.650166 
L 119.34492 212.808769 
L 113.406532 213.205161 
L 107.488745 213.838708 
L 101.601027 214.708397 
L 95.752797 215.812836 
L 89.953411 217.150258 
L 87.36 217.828121 
L 93.134354 219.269795 
L 98.96174 220.479402 
L 104.832836 221.455009 
L 110.73825 222.195054 
L 116.668534 222.698354 
L 122.614201 222.964103 
L 128.56574 222.991876 
L 134.513628 222.781629 
L 140.448351 222.333698 
L 146.360415 221.648799 
L 152.240361 220.728029 
L 158.078782 219.572861 
L 163.866339 218.185141 
L 169.593773 216.567092 
L 175.25192 214.7213 
L 180.83173 212.650719 
L 186.324275 210.358662 
L 191.720769 207.848794 
L 197.012579 205.125132 
L 202.191238 202.192033 
L 207.248462 199.054189 
L 212.17616 195.71662 
L 216.96645 192.184665 
L 221.611667 188.463975 
L 226.104381 184.560501 
L 230.437404 180.48049 
L 234.603804 176.230467 
L 236.16 174.552529 
L 232.059455 170.238933 
L 227.789692 166.092765 
L 223.357542 162.120659 
L 218.770095 158.328969 
L 214.034691 154.723761 
L 209.158904 151.310802 
L 204.150536 148.095553 
L 199.017598 145.083157 
L 193.768303 142.278433 
L 188.411047 139.685869 
L 182.954401 137.309611 
L 177.407095 135.153462 
L 171.778004 133.22087 
L 166.076132 131.514928 
L 160.310602 130.038365 
L 154.490636 128.793543 
L 148.625546 127.782452 
L 142.724715 127.006712 
L 136.797583 126.467562 
L 130.853631 126.165866 
L 124.90237 126.102106 
L 118.953319 126.276383 
L 113.015996 126.68842 
L 107.099899 127.337557 
L 101.214493 128.222756 
L 95.369193 129.342599 
L 89.57335 130.695297 
L 87.36 131.276936 
L 93.134354 132.71861 
L 98.96174 133.928217 
L 104.832836 134.903824 
L 110.73825 135.643869 
L 116.668534 136.147169 
L 122.614201 136.412918 
L 128.56574 136.440691 
L 134.513628 136.230444 
L 140.448351 135.782513 
L 146.360415 135.097615 
L 152.240361 134.176844 
L 158.078782 133.021676 
L 163.866339 131.633957 
L 169.593773 130.015907 
L 175.25192 128.170115 
L 180.83173 126.099534 
L 186.324275 123.807477 
L 191.720769 121.297609 
L 197.012579 118.573948 
L 202.191238 115.640848 
L 207.248462 112.503004 
L 212.17616 109.165435 
L 216.96645 105.63348 
L 221.611667 101.91279 
L 223.711001 100.128 
L 228.286525 103.934069 
L 233.010591 107.554121 
L 236.16 109.806512 
L 231.343343 113.302423 
L 226.670338 116.988153 
L 222.14846 120.857805 
L 217.784945 124.905188 
L 213.586772 129.123828 
L 209.560657 133.506976 
L 205.713042 138.047619 
L 202.050083 142.738494 
L 198.577638 147.572096 
L 195.301263 152.540692 
L 193.603464 155.296937 
L 190.357365 158.360294 
L 186.933416 161.22349 
L 183.343939 163.87622 
L 179.601853 166.308936 
L 175.720625 168.512885 
L 171.714224 170.480134 
L 167.597068 172.203603 
L 163.383975 173.67709 
L 159.090107 174.895291 
L 154.730917 175.853823 
L 150.322094 176.549235 
L 145.879505 176.979025 
L 141.419138 177.141647 
L 136.957046 177.036514 
L 132.509287 176.664005 
L 128.091869 176.025462 
L 124.568424 175.319625 
L 128.909674 174.282868 
L 133.305281 173.508296 
L 137.739424 172.998696 
L 142.196146 172.755902 
L 146.659407 172.780788 
L 151.113144 173.073264 
L 155.541329 173.632277 
L 159.928025 174.455817 
L 164.257445 175.540918 
L 168.514007 176.883676 
L 172.682392 178.479259 
L 176.747599 180.321923 
L 180.694997 182.405037 
L 184.51038 184.721105 
L 188.180017 187.261791 
L 191.690701 190.017951 
L 194.392921 192.38668 
L 197.771966 197.286031 
L 201.344229 202.046337 
L 205.103996 206.659983 
L 209.045252 211.119589 
L 213.161693 215.418018 
L 217.446732 219.548396 
L 221.893515 223.504114 
L 226.494927 227.278844 
L 231.243607 230.866547 
L 236.16 234.280134 
L 231.27088 237.673964 
L 226.521388 241.260593 
L 221.919121 245.034281 
L 217.537377 248.928 
L 213.087313 244.975974 
L 208.482769 241.205064 
L 203.731113 237.621303 
L 198.839945 234.230424 
L 193.817091 231.037853 
L 188.670585 228.048695 
L 183.408662 225.267734 
L 178.039739 222.699418 
L 172.572405 220.347856 
L 167.015408 218.216811 
L 161.377636 216.30969 
L 155.668109 214.629546 
L 149.895961 213.179066 
L 144.070427 211.96057 
L 138.200826 210.976008 
L 132.296548 210.226956 
L 126.367038 209.71461 
L 120.421783 209.439792 
L 114.470294 209.40294 
L 108.522092 209.604114 
L 102.586692 210.042991 
L 96.673591 210.71887 
L 90.792247 211.63067 
L 87.36 212.274908 
L 93.218326 213.324476 
L 99.113938 214.138934 
L 105.037404 214.716979 
L 110.979247 215.057686 
L 116.929962 215.16051 
L 122.880029 215.025287 
L 128.819929 214.652233 
L 134.740159 214.041944 
L 140.631249 213.195398 
L 146.483774 212.113948 
L 152.288371 210.799324 
L 152.877916 210.652072 
L 157.395281 214.526992 
L 162.063987 218.218165 
L 166.876566 221.719687 
L 171.82532 225.025957 
L 176.90233 228.131685 
L 182.099476 231.031902 
L 187.408442 233.721969 
L 192.820735 236.197582 
L 198.327698 238.454781 
L 203.920519 240.489955 
L 209.590252 242.299847 
L 215.327826 243.881563 
L 221.124062 245.232572 
L 226.969688 246.350713 
L 232.855351 247.234197 
L 236.16 247.62534 
L 230.256051 248.376985 
L 226.805935 248.928 
L 220.921261 248.037946 
L 215.005702 247.383927 
L 209.068721 246.966991 
L 203.119815 246.787805 
L 197.168503 246.846654 
L 191.224305 247.143446 
L 185.296729 247.677705 
L 179.39526 248.448576 
L 176.424472 248.928 
L 170.539798 248.037946 
L 164.624239 247.383927 
L 158.687258 246.966991 
L 152.738353 246.787805 
L 146.787041 246.846654 
L 140.842842 247.143446 
L 134.915267 247.677705 
L 129.013798 248.448576 
L 126.043009 248.928 
L 120.158336 248.037946 
L 114.242777 247.383927 
L 108.305795 246.966991 
L 102.35689 246.787805 
L 96.405578 246.846654 
L 90.46138 247.143446 
L 87.36 247.393159 
L 93.296693 247.814172 
L 99.245474 247.997445 
L 105.196825 247.942682 
L 111.141226 247.649973 
L 117.069167 247.119786 
L 122.971164 246.352968 
L 128.837776 245.350747 
L 134.659617 244.114725 
L 140.427373 242.646881 
L 146.131818 240.949562 
L 151.763825 239.025484 
L 157.314384 236.877724 
L 162.774617 234.50972 
L 168.135786 231.925258 
L 173.389317 229.128474 
L 178.526803 226.123842 
L 183.540027 222.916169 
L 188.420968 219.510586 
L 193.161818 215.912542 
L 197.754992 212.127792 
L 202.193143 208.162392 
L 206.46917 204.022685 
L 210.576232 199.715294 
L 214.50776 195.247109 
L 218.257463 190.625279 
L 221.819342 185.857199 
L 225.1877 180.950495 
L 228.357148 175.913017 
L 231.322616 170.752825 
L 234.079359 165.478173 
L 236.16 161.11945 
L 233.575895 155.758108 
L 230.779461 150.504392 
L 227.775172 145.366705 
L 224.567832 140.353268 
L 221.162574 135.4721 
L 217.564846 130.731011 
L 213.780402 126.137584 
L 209.815297 121.69917 
L 205.675874 117.422867 
L 201.368757 113.315518 
L 196.900834 109.383693 
L 192.279254 105.633682 
L 187.511411 102.071485 
L 184.732282 100.128 
L 179.884497 103.580616 
L 175.178657 107.22433 
L 170.622292 111.053313 
L 166.222689 115.06144 
L 161.986888 119.242297 
L 157.921664 123.589197 
L 154.033522 128.095186 
L 150.328682 132.753054 
L 146.81307 137.555351 
L 143.868382 141.913126 
L 137.919329 142.087336 
L 131.982001 142.499306 
L 126.065897 143.148376 
L 120.180481 144.033508 
L 114.335168 145.153285 
L 108.53931 146.505917 
L 102.80218 148.08924 
L 97.132954 149.90072 
L 91.540703 151.93746 
L 87.36 153.628799 
L 92.88796 155.834075 
L 98.499685 157.816528 
L 104.186199 159.572986 
L 109.938403 161.100639 
L 115.747096 162.397043 
L 121.602986 163.460124 
L 126.049435 164.107081 
L 120.611402 161.688533 
L 115.081002 159.489383 
L 109.467084 157.513149 
L 103.778628 155.762993 
L 98.024734 154.241714 
L 92.214608 152.951746 
L 87.36 152.058874 
L 93.209715 150.962324 
L 99.0109 149.632726 
L 104.754275 148.072205 
L 110.430652 146.28326 
L 116.030949 144.26875 
L 121.546208 142.0319 
L 126.967605 139.576287 
L 132.286468 136.905841 
L 137.494286 134.024833 
L 142.582729 130.937872 
L 147.543657 127.649897 
L 152.369132 124.166168 
L 157.051436 120.492258 
L 161.583077 116.634045 
L 165.956805 112.5977 
L 170.165625 108.389682 
L 174.202802 104.016721 
L 177.533705 100.128 
L 181.418039 104.637272 
L 185.479589 108.987604 
L 189.711857 113.172039 
L 194.108072 117.18388 
L 198.661202 121.016711 
L 203.363961 124.664399 
L 208.208828 128.12111 
L 213.188051 131.381312 
L 218.293665 134.439791 
L 223.517501 137.291653 
L 228.851202 139.932336 
L 234.286237 142.357616 
L 236.16 143.134194 
L 230.692412 145.485165 
L 225.323211 148.0529 
L 220.060987 150.833292 
L 214.914159 153.821893 
L 209.890959 157.013921 
L 204.999424 160.404271 
L 200.24738 163.987518 
L 197.932334 165.844555 
L 203.771337 166.996785 
L 209.651745 167.914596 
L 215.564152 168.596519 
L 221.4991 169.041464 
L 227.447094 169.248718 
L 233.398617 169.217949 
L 236.16 169.12277 
L 230.210074 168.9815 
L 224.259257 169.078277 
L 218.317071 169.412945 
L 212.393021 169.98497 
L 206.496584 170.793436 
L 200.637195 171.83705 
L 198.886833 172.195995 
L 204.8267 172.569573 
L 210.776755 172.70532 
L 216.727479 172.603019 
L 222.669352 172.262836 
L 228.592869 171.685312 
L 234.488552 170.871374 
L 237.642398 170.467716 
L 245.043698 169.711751 
L 252.423787 168.771009 
L 259.778054 167.646077 
L 267.101903 166.33766 
L 274.390756 164.846574 
L 281.640059 163.173752 
L 288.845279 161.320239 
L 293.630607 159.982277 
L 294.501356 152.593602 
L 295.187135 145.18547 
L 295.687515 137.76251 
L 296.002185 130.329361 
L 296.130946 122.890669 
L 296.07372 115.451083 
L 295.830541 108.015252 
L 295.368875 100.128 
L 294.928391 107.554755 
L 294.673694 114.9902 
L 294.604944 122.429689 
L 294.722183 129.868571 
L 295.025338 137.302199 
L 295.51422 144.725925 
L 296.188523 152.135111 
L 296.733859 157.006007 
L 289.724772 154.51133 
L 282.655514 152.192642 
L 275.530505 150.051391 
L 268.354196 148.088916 
L 261.131073 146.306444 
L 253.86565 144.705087 
L 246.562467 143.285848 
L 239.226089 142.049613 
L 236.16 141.588633 
L 230.42092 140.01239 
L 224.623398 138.666911 
L 218.776708 137.554346 
L 212.890204 136.676477 
L 206.973304 136.034707 
L 201.035472 135.630063 
L 195.086209 135.463193 
L 189.135031 135.534364 
L 183.19146 135.843461 
L 177.265003 136.389991 
L 171.365143 137.173078 
L 167.629293 137.793937 
L 162.334638 135.075811 
L 156.935522 132.57159 
L 151.440582 130.285279 
L 145.85861 128.220535 
L 140.198535 126.380662 
L 134.469412 124.768604 
L 128.680406 123.386939 
L 122.84078 122.237878 
L 116.959874 121.323258 
L 111.047098 120.644544 
L 105.111909 120.202821 
L 99.163804 119.998795 
L 93.212298 120.032793 
L 87.36 120.298664 
L 93.305555 120.566904 
L 99.257082 120.597171 
L 105.205058 120.389416 
L 111.139968 119.943972 
L 117.052318 119.261551 
L 122.932649 118.343245 
L 128.771554 117.190523 
L 134.559692 115.805229 
L 140.287803 114.189579 
L 145.946724 112.346158 
L 151.5274 110.277915 
L 157.020906 107.98816 
L 162.418451 105.480554 
L 167.711401 102.759109 
L 172.383001 100.128 
L 177.574471 103.038363 
L 182.878173 105.738795 
L 188.28562 108.224975 
L 193.788163 110.492926 
L 199.376999 112.53902 
L 205.043185 114.359984 
L 210.777659 115.952904 
L 216.571245 117.315232 
L 222.414676 118.444788 
L 228.298603 119.339766 
L 234.213613 119.998734 
L 237.647012 120.217538 
L 245.085113 120.376817 
L 252.524872 120.350112 
L 259.961638 120.137442 
L 267.390763 119.738938 
L 274.807606 119.154849 
L 282.207531 118.385542 
L 289.585912 117.431496 
L 296.93814 116.293308 
L 304.259618 114.971689 
L 311.545771 113.467465 
L 318.792045 111.781577 
L 325.993913 109.915077 
L 333.146872 107.869132 
L 340.246453 105.645022 
L 347.288219 103.244135 
L 354.267768 100.667973 
L 355.665713 100.128 
L 362.632201 102.739276 
L 369.661788 105.175592 
L 376.750079 107.435425 
L 384.96 109.811918 
L 377.809737 111.867267 
L 370.713087 114.100712 
L 363.674485 116.510856 
L 356.69833 119.096195 
L 349.788981 121.855111 
L 342.950757 124.785881 
L 336.187932 127.886672 
L 329.504731 131.155548 
L 322.905333 134.590465 
L 316.39386 138.189276 
L 309.974383 141.949733 
L 303.650914 145.869485 
L 297.427405 149.946082 
L 291.307744 154.176977 
L 285.295757 158.559525 
L 279.395201 163.090988 
L 273.609764 167.768533 
L 267.94306 172.589238 
L 262.398633 177.550089 
L 256.979947 182.647986 
L 251.690388 187.879743 
L 246.533262 193.242091 
L 241.511792 198.731677 
L 236.16 204.899579 
L 241.02896 210.524874 
L 246.037017 216.0267 
L 251.18104 221.401618 
L 256.457815 226.646269 
L 261.864043 231.757376 
L 267.396346 236.731744 
L 273.051267 241.566264 
L 278.825271 246.257916 
L 282.247567 248.928 
L 288.089386 244.321063 
L 293.814218 239.569535 
L 299.418485 234.676386 
L 304.898685 229.644673 
L 310.251392 224.477543 
L 315.473263 219.178223 
L 320.561032 213.750026 
L 325.51152 208.196345 
L 330.321635 202.520649 
L 334.988368 196.726487 
L 339.508804 190.817479 
L 343.880118 184.797319 
L 348.099577 178.669768 
L 352.164546 172.438656 
L 356.072482 166.107878 
L 359.820944 159.68139 
L 363.40759 153.163209 
L 366.830177 146.557407 
L 370.086566 139.868114 
L 373.174724 133.09951 
L 376.092719 126.255825 
L 378.838727 119.341336 
L 381.411034 112.360365 
L 383.80803 105.317275 
L 384.96 101.710825 
L 384.460639 100.128 
L 382.29124 107.24449 
L 380.300413 114.412985 
L 378.489401 121.629005 
L 376.859337 128.888042 
L 375.411239 136.185557 
L 374.146012 143.516991 
L 373.064448 150.877761 
L 372.167222 158.263267 
L 371.454894 165.668894 
L 370.927911 173.090012 
L 370.586601 180.521986 
L 370.431177 187.960168 
L 370.461737 195.399912 
L 370.678262 202.836566 
L 371.080616 210.265485 
L 371.668549 217.682024 
L 372.441691 225.081549 
L 373.399561 232.459435 
L 374.541559 239.811071 
L 375.866973 247.131863 
L 376.221137 248.928 
L 377.591559 241.6155 
L 378.77876 234.271028 
L 379.781998 226.899174 
L 380.600645 219.504545 
L 381.234189 212.091763 
L 381.682235 204.66546 
L 381.944503 197.230278 
L 382.020829 189.790863 
L 381.911165 182.351865 
L 381.61558 174.917933 
L 381.134258 167.493713 
L 380.467501 160.083845 
L 379.615724 152.692959 
L 378.57946 145.325675 
L 377.359358 137.986596 
L 375.956179 130.680311 
L 374.3708 123.411385 
L 372.604212 116.18436 
L 370.65752 109.003754 
L 368.53194 101.874054 
L 367.981634 100.128 
L 365.812235 107.24449 
L 363.821407 114.412985 
L 362.010395 121.629005 
L 360.380331 128.888042 
L 358.932233 136.185557 
L 357.667007 143.516991 
L 356.585442 150.877761 
L 355.688216 158.263267 
L 354.975889 165.668894 
L 354.448905 173.090012 
L 354.107595 180.521986 
L 353.952172 187.960168 
L 353.982732 195.399912 
L 354.199257 202.836566 
L 354.601611 210.265485 
L 355.189543 217.682024 
L 355.962686 225.081549 
L 356.920555 232.459435 
L 358.062554 239.811071 
L 359.387967 247.131863 
L 359.742131 248.928 
L 361.112554 241.6155 
L 362.299755 234.271028 
L 363.302992 226.899174 
L 364.121639 219.504545 
L 364.755184 212.091763 
L 365.20323 204.66546 
L 365.465498 197.230278 
L 365.541824 189.790863 
L 365.43216 182.351865 
L 365.136574 174.917933 
L 364.655253 167.493713 
L 363.988495 160.083845 
L 363.136718 152.692959 
L 362.100455 145.325675 
L 360.880352 137.986596 
L 359.477173 130.680311 
L 357.891795 123.411385 
L 356.125207 116.18436 
L 354.178515 109.003754 
L 352.052934 101.874054 
L 351.502628 100.128 
L 349.333229 107.24449 
L 347.342402 114.412985 
L 345.53139 121.629005 
L 343.901326 128.888042 
L 342.453228 136.185557 
L 341.188001 143.516991 
L 340.106437 150.877761 
L 339.209211 158.263267 
L 338.496883 165.668894 
L 337.9699 173.090012 
L 337.62859 180.521986 
L 337.473166 187.960168 
L 337.503726 195.399912 
L 337.720251 202.836566 
L 338.122605 210.265485 
L 338.710537 217.682024 
L 339.48368 225.081549 
L 340.44155 232.459435 
L 341.583548 239.811071 
L 342.908962 247.131863 
L 343.263126 248.928 
L 344.633548 241.6155 
L 345.820749 234.271028 
L 346.823987 226.899174 
L 347.642634 219.504545 
L 348.276178 212.091763 
L 348.724224 204.66546 
L 348.986492 197.230278 
L 349.062818 189.790863 
L 348.953154 182.351865 
L 348.657569 174.917933 
L 348.176247 167.493713 
L 347.509489 160.083845 
L 346.657713 152.692959 
L 345.621449 145.325675 
L 344.401347 137.986596 
L 342.998168 130.680311 
L 341.412789 123.411385 
L 339.646201 116.18436 
L 337.699509 109.003754 
L 335.573929 101.874054 
L 335.023623 100.128 
L 332.854224 107.24449 
L 330.863396 114.412985 
L 329.052384 121.629005 
L 327.42232 128.888042 
L 325.974222 136.185557 
L 324.708996 143.516991 
L 323.627431 150.877761 
L 322.986742 155.987275 
L 322.986742 155.987275 
" style="fill:none;stroke:#1f77b4;stroke-linecap:square;stroke-width:1.5;"/>
   </g>
   <g id="patch_5">
    <path d="M 57.6 263.808 
L 57.6 85.248 
" style="fill:none;stroke:#000000;stroke-linecap:square;stroke-linejoin:miter;stroke-width:0.8;"/>
   </g>
   <g id="patch_6">
    <path d="M 414.72 263.808 
L 414.72 85.248 
" style="fill:none;stroke:#000000;stroke-linecap:square;stroke-linejoin:miter;stroke-width:0.8;"/>
   </g>
   <g id="patch_7">
    <path d="M 57.6 263.808 
L 414.72 263.808 
" style="fill:none;stroke:#000000;stroke-linecap:square;stroke-linejoin:miter;stroke-width:0.8;"/>
   </g>
   <g id="patch_8">
    <path d="M 57.6 85.248 
L 414.72 85.248 
" style="fill:none;stroke:#000000;stroke-linecap:square;stroke-linejoin:miter;stroke-width:0.8;"/>
   </g>
  </g>
 </g>
 <defs>
  <clipPath id="p0b982e9249">
   <rect height="178.56" width="357.12" x="57.6" y="85.248"/>
  </clipPath>
 </defs>
</svg>
