<?xml version="1.0" encoding="utf-8" standalone="no"?>
<!DOCTYPE svg PUBLIC "-//W3C//DTD SVG 1.1//EN"
  "http://www.w3.org/Graphics/SVG/1.1/DTD/svg11.dtd">
<!-- Created with matplotlib (https://matplotlib.org/) -->
<svg height="345.6pt" version="1.1" viewBox="0 0 460.8 345.6" width="460.8pt" xmlns="http://www.w3.org/2000/svg" xmlns:xlink="http://www.w3.org/1999/xlink">
 <defs>
  <style type="text/css">
*{stroke-linecap:butt;stroke-linejoin:round;}
  </style>
 </defs>
 <g id="figure_1">
  <g id="patch_1">
   <path d="M 0 345.6 
L 460.8 345.6 
L 460.8 0 
L 0 0 
z
" style="fill:#ffffff;"/>
  </g>
  <g id="axes_1">
   <g id="patch_2">
    <path d="M 57.6 263.808 
L 414.72 263.808 
L 414.72 85.248 
L 57.6 85.248 
z
" style="fill:#ffffff;"/>
   </g>
   <g id="PathCollection_1">
    <defs>
     <path d="M 0 3 
C 0.795609 3 1.55874 2.683901 2.12132 2.12132 
C 2.683901 1.55874 3 0.795609 3 0 
C 3 -0.795609 2.683901 -1.55874 2.12132 -2.12132 
C 1.55874 -2.683901 0.795609 -3 0 -3 
C -0.795609 -3 -1.55874 -2.683901 -2.12132 -2.12132 
C -2.683901 -1.55874 -3 -0.795609 -3 0 
C -3 0.795609 -2.683901 1.55874 -2.12132 2.12132 
C -1.55874 2.683901 -0.795609 3 0 3 
z
" id="m1c96c5e4be" style="stroke:#000000;"/>
    </defs>
    <g clip-path="url(#pbbd4ca8287)">
     <use style="stroke:#000000;" x="88.713622" xlink:href="#m1c96c5e4be" y="228.40511"/>
    </g>
   </g>
   <g id="patch_3">
    <path clip-path="url(#pbbd4ca8287)" d="M 161.76 211.728 
C 171.625555 211.728 181.088371 207.808373 188.064372 200.832372 
C 195.040373 193.856371 198.96 184.393555 198.96 174.528 
C 198.96 164.662445 195.040373 155.199629 188.064372 148.223628 
C 181.088371 141.247627 171.625555 137.328 161.76 137.328 
C 151.894445 137.328 142.431629 141.247627 135.455628 148.223628 
C 128.479627 155.199629 124.56 164.662445 124.56 174.528 
C 124.56 184.393555 128.479627 193.856371 135.455628 200.832372 
C 142.431629 207.808373 151.894445 211.728 161.76 211.728 
z
" style="fill:#cc0000;fill-opacity:0.1;stroke:#cc0000;stroke-dasharray:7.4,3.2;stroke-dashoffset:0;stroke-linejoin:miter;stroke-width:2;"/>
   </g>
   <g id="patch_4">
    <path clip-path="url(#pbbd4ca8287)" d="M 310.56 196.848 
C 316.479333 196.848 322.157023 194.496224 326.342623 190.310623 
C 330.528224 186.125023 332.88 180.447333 332.88 174.528 
C 332.88 168.608667 330.528224 162.930977 326.342623 158.745377 
C 322.157023 154.559776 316.479333 152.208 310.56 152.208 
C 304.640667 152.208 298.962977 154.559776 294.777377 158.745377 
C 290.591776 162.930977 288.24 168.608667 288.24 174.528 
C 288.24 180.447333 290.591776 186.125023 294.777377 190.310623 
C 298.962977 194.496224 304.640667 196.848 310.56 196.848 
z
" style="fill:#cc0000;fill-opacity:0.1;stroke:#cc0000;stroke-dasharray:7.4,3.2;stroke-dashoffset:0;stroke-linejoin:miter;stroke-width:2;"/>
   </g>
   <g id="matplotlib.axis_1">
    <g id="xtick_1">
     <g id="line2d_1">
      <defs>
       <path d="M 0 0 
L 0 3.5 
" id="mb448cf2f01" style="stroke:#000000;stroke-width:0.8;"/>
      </defs>
      <g>
       <use style="stroke:#000000;stroke-width:0.8;" x="87.36" xlink:href="#mb448cf2f01" y="263.808"/>
      </g>
     </g>
     <g id="text_1">
      <!-- 0.0 -->
      <defs>
       <path d="M 31.78125 66.40625 
Q 24.171875 66.40625 20.328125 58.90625 
Q 16.5 51.421875 16.5 36.375 
Q 16.5 21.390625 20.328125 13.890625 
Q 24.171875 6.390625 31.78125 6.390625 
Q 39.453125 6.390625 43.28125 13.890625 
Q 47.125 21.390625 47.125 36.375 
Q 47.125 51.421875 43.28125 58.90625 
Q 39.453125 66.40625 31.78125 66.40625 
z
M 31.78125 74.21875 
Q 44.046875 74.21875 50.515625 64.515625 
Q 56.984375 54.828125 56.984375 36.375 
Q 56.984375 17.96875 50.515625 8.265625 
Q 44.046875 -1.421875 31.78125 -1.421875 
Q 19.53125 -1.421875 13.0625 8.265625 
Q 6.59375 17.96875 6.59375 36.375 
Q 6.59375 54.828125 13.0625 64.515625 
Q 19.53125 74.21875 31.78125 74.21875 
z
" id="DejaVuSans-48"/>
       <path d="M 10.6875 12.40625 
L 21 12.40625 
L 21 0 
L 10.6875 0 
z
" id="DejaVuSans-46"/>
      </defs>
      <g transform="translate(79.408438 278.406437)scale(0.1 -0.1)">
       <use xlink:href="#DejaVuSans-48"/>
       <use x="63.623047" xlink:href="#DejaVuSans-46"/>
       <use x="95.410156" xlink:href="#DejaVuSans-48"/>
      </g>
     </g>
    </g>
    <g id="xtick_2">
     <g id="line2d_2">
      <g>
       <use style="stroke:#000000;stroke-width:0.8;" x="161.76" xlink:href="#mb448cf2f01" y="263.808"/>
      </g>
     </g>
     <g id="text_2">
      <!-- 0.5 -->
      <defs>
       <path d="M 10.796875 72.90625 
L 49.515625 72.90625 
L 49.515625 64.59375 
L 19.828125 64.59375 
L 19.828125 46.734375 
Q 21.96875 47.46875 24.109375 47.828125 
Q 26.265625 48.1875 28.421875 48.1875 
Q 40.625 48.1875 47.75 41.5 
Q 54.890625 34.8125 54.890625 23.390625 
Q 54.890625 11.625 47.5625 5.09375 
Q 40.234375 -1.421875 26.90625 -1.421875 
Q 22.3125 -1.421875 17.546875 -0.640625 
Q 12.796875 0.140625 7.71875 1.703125 
L 7.71875 11.625 
Q 12.109375 9.234375 16.796875 8.0625 
Q 21.484375 6.890625 26.703125 6.890625 
Q 35.15625 6.890625 40.078125 11.328125 
Q 45.015625 15.765625 45.015625 23.390625 
Q 45.015625 31 40.078125 35.4375 
Q 35.15625 39.890625 26.703125 39.890625 
Q 22.75 39.890625 18.8125 39.015625 
Q 14.890625 38.140625 10.796875 36.28125 
z
" id="DejaVuSans-53"/>
      </defs>
      <g transform="translate(153.808437 278.406437)scale(0.1 -0.1)">
       <use xlink:href="#DejaVuSans-48"/>
       <use x="63.623047" xlink:href="#DejaVuSans-46"/>
       <use x="95.410156" xlink:href="#DejaVuSans-53"/>
      </g>
     </g>
    </g>
    <g id="xtick_3">
     <g id="line2d_3">
      <g>
       <use style="stroke:#000000;stroke-width:0.8;" x="236.16" xlink:href="#mb448cf2f01" y="263.808"/>
      </g>
     </g>
     <g id="text_3">
      <!-- 1.0 -->
      <defs>
       <path d="M 12.40625 8.296875 
L 28.515625 8.296875 
L 28.515625 63.921875 
L 10.984375 60.40625 
L 10.984375 69.390625 
L 28.421875 72.90625 
L 38.28125 72.90625 
L 38.28125 8.296875 
L 54.390625 8.296875 
L 54.390625 0 
L 12.40625 0 
z
" id="DejaVuSans-49"/>
      </defs>
      <g transform="translate(228.208437 278.406437)scale(0.1 -0.1)">
       <use xlink:href="#DejaVuSans-49"/>
       <use x="63.623047" xlink:href="#DejaVuSans-46"/>
       <use x="95.410156" xlink:href="#DejaVuSans-48"/>
      </g>
     </g>
    </g>
    <g id="xtick_4">
     <g id="line2d_4">
      <g>
       <use style="stroke:#000000;stroke-width:0.8;" x="310.56" xlink:href="#mb448cf2f01" y="263.808"/>
      </g>
     </g>
     <g id="text_4">
      <!-- 1.5 -->
      <g transform="translate(302.608437 278.406437)scale(0.1 -0.1)">
       <use xlink:href="#DejaVuSans-49"/>
       <use x="63.623047" xlink:href="#DejaVuSans-46"/>
       <use x="95.410156" xlink:href="#DejaVuSans-53"/>
      </g>
     </g>
    </g>
    <g id="xtick_5">
     <g id="line2d_5">
      <g>
       <use style="stroke:#000000;stroke-width:0.8;" x="384.96" xlink:href="#mb448cf2f01" y="263.808"/>
      </g>
     </g>
     <g id="text_5">
      <!-- 2.0 -->
      <defs>
       <path d="M 19.1875 8.296875 
L 53.609375 8.296875 
L 53.609375 0 
L 7.328125 0 
L 7.328125 8.296875 
Q 12.9375 14.109375 22.625 23.890625 
Q 32.328125 33.6875 34.8125 36.53125 
Q 39.546875 41.84375 41.421875 45.53125 
Q 43.3125 49.21875 43.3125 52.78125 
Q 43.3125 58.59375 39.234375 62.25 
Q 35.15625 65.921875 28.609375 65.921875 
Q 23.96875 65.921875 18.8125 64.3125 
Q 13.671875 62.703125 7.8125 59.421875 
L 7.8125 69.390625 
Q 13.765625 71.78125 18.9375 73 
Q 24.125 74.21875 28.421875 74.21875 
Q 39.75 74.21875 46.484375 68.546875 
Q 53.21875 62.890625 53.21875 53.421875 
Q 53.21875 48.921875 51.53125 44.890625 
Q 49.859375 40.875 45.40625 35.40625 
Q 44.1875 33.984375 37.640625 27.21875 
Q 31.109375 20.453125 19.1875 8.296875 
z
" id="DejaVuSans-50"/>
      </defs>
      <g transform="translate(377.008437 278.406437)scale(0.1 -0.1)">
       <use xlink:href="#DejaVuSans-50"/>
       <use x="63.623047" xlink:href="#DejaVuSans-46"/>
       <use x="95.410156" xlink:href="#DejaVuSans-48"/>
      </g>
     </g>
    </g>
   </g>
   <g id="matplotlib.axis_2">
    <g id="ytick_1">
     <g id="line2d_6">
      <defs>
       <path d="M 0 0 
L -3.5 0 
" id="m51d1db27ed" style="stroke:#000000;stroke-width:0.8;"/>
      </defs>
      <g>
       <use style="stroke:#000000;stroke-width:0.8;" x="57.6" xlink:href="#m51d1db27ed" y="248.928"/>
      </g>
     </g>
     <g id="text_6">
      <!-- 0.0 -->
      <g transform="translate(34.696875 252.727219)scale(0.1 -0.1)">
       <use xlink:href="#DejaVuSans-48"/>
       <use x="63.623047" xlink:href="#DejaVuSans-46"/>
       <use x="95.410156" xlink:href="#DejaVuSans-48"/>
      </g>
     </g>
    </g>
    <g id="ytick_2">
     <g id="line2d_7">
      <g>
       <use style="stroke:#000000;stroke-width:0.8;" x="57.6" xlink:href="#m51d1db27ed" y="219.168"/>
      </g>
     </g>
     <g id="text_7">
      <!-- 0.2 -->
      <g transform="translate(34.696875 222.967219)scale(0.1 -0.1)">
       <use xlink:href="#DejaVuSans-48"/>
       <use x="63.623047" xlink:href="#DejaVuSans-46"/>
       <use x="95.410156" xlink:href="#DejaVuSans-50"/>
      </g>
     </g>
    </g>
    <g id="ytick_3">
     <g id="line2d_8">
      <g>
       <use style="stroke:#000000;stroke-width:0.8;" x="57.6" xlink:href="#m51d1db27ed" y="189.408"/>
      </g>
     </g>
     <g id="text_8">
      <!-- 0.4 -->
      <defs>
       <path d="M 37.796875 64.3125 
L 12.890625 25.390625 
L 37.796875 25.390625 
z
M 35.203125 72.90625 
L 47.609375 72.90625 
L 47.609375 25.390625 
L 58.015625 25.390625 
L 58.015625 17.1875 
L 47.609375 17.1875 
L 47.609375 0 
L 37.796875 0 
L 37.796875 17.1875 
L 4.890625 17.1875 
L 4.890625 26.703125 
z
" id="DejaVuSans-52"/>
      </defs>
      <g transform="translate(34.696875 193.207219)scale(0.1 -0.1)">
       <use xlink:href="#DejaVuSans-48"/>
       <use x="63.623047" xlink:href="#DejaVuSans-46"/>
       <use x="95.410156" xlink:href="#DejaVuSans-52"/>
      </g>
     </g>
    </g>
    <g id="ytick_4">
     <g id="line2d_9">
      <g>
       <use style="stroke:#000000;stroke-width:0.8;" x="57.6" xlink:href="#m51d1db27ed" y="159.648"/>
      </g>
     </g>
     <g id="text_9">
      <!-- 0.6 -->
      <defs>
       <path d="M 33.015625 40.375 
Q 26.375 40.375 22.484375 35.828125 
Q 18.609375 31.296875 18.609375 23.390625 
Q 18.609375 15.53125 22.484375 10.953125 
Q 26.375 6.390625 33.015625 6.390625 
Q 39.65625 6.390625 43.53125 10.953125 
Q 47.40625 15.53125 47.40625 23.390625 
Q 47.40625 31.296875 43.53125 35.828125 
Q 39.65625 40.375 33.015625 40.375 
z
M 52.59375 71.296875 
L 52.59375 62.3125 
Q 48.875 64.0625 45.09375 64.984375 
Q 41.3125 65.921875 37.59375 65.921875 
Q 27.828125 65.921875 22.671875 59.328125 
Q 17.53125 52.734375 16.796875 39.40625 
Q 19.671875 43.65625 24.015625 45.921875 
Q 28.375 48.1875 33.59375 48.1875 
Q 44.578125 48.1875 50.953125 41.515625 
Q 57.328125 34.859375 57.328125 23.390625 
Q 57.328125 12.15625 50.6875 5.359375 
Q 44.046875 -1.421875 33.015625 -1.421875 
Q 20.359375 -1.421875 13.671875 8.265625 
Q 6.984375 17.96875 6.984375 36.375 
Q 6.984375 53.65625 15.1875 63.9375 
Q 23.390625 74.21875 37.203125 74.21875 
Q 40.921875 74.21875 44.703125 73.484375 
Q 48.484375 72.75 52.59375 71.296875 
z
" id="DejaVuSans-54"/>
      </defs>
      <g transform="translate(34.696875 163.447219)scale(0.1 -0.1)">
       <use xlink:href="#DejaVuSans-48"/>
       <use x="63.623047" xlink:href="#DejaVuSans-46"/>
       <use x="95.410156" xlink:href="#DejaVuSans-54"/>
      </g>
     </g>
    </g>
    <g id="ytick_5">
     <g id="line2d_10">
      <g>
       <use style="stroke:#000000;stroke-width:0.8;" x="57.6" xlink:href="#m51d1db27ed" y="129.888"/>
      </g>
     </g>
     <g id="text_10">
      <!-- 0.8 -->
      <defs>
       <path d="M 31.78125 34.625 
Q 24.75 34.625 20.71875 30.859375 
Q 16.703125 27.09375 16.703125 20.515625 
Q 16.703125 13.921875 20.71875 10.15625 
Q 24.75 6.390625 31.78125 6.390625 
Q 38.8125 6.390625 42.859375 10.171875 
Q 46.921875 13.96875 46.921875 20.515625 
Q 46.921875 27.09375 42.890625 30.859375 
Q 38.875 34.625 31.78125 34.625 
z
M 21.921875 38.8125 
Q 15.578125 40.375 12.03125 44.71875 
Q 8.5 49.078125 8.5 55.328125 
Q 8.5 64.0625 14.71875 69.140625 
Q 20.953125 74.21875 31.78125 74.21875 
Q 42.671875 74.21875 48.875 69.140625 
Q 55.078125 64.0625 55.078125 55.328125 
Q 55.078125 49.078125 51.53125 44.71875 
Q 48 40.375 41.703125 38.8125 
Q 48.828125 37.15625 52.796875 32.3125 
Q 56.78125 27.484375 56.78125 20.515625 
Q 56.78125 9.90625 50.3125 4.234375 
Q 43.84375 -1.421875 31.78125 -1.421875 
Q 19.734375 -1.421875 13.25 4.234375 
Q 6.78125 9.90625 6.78125 20.515625 
Q 6.78125 27.484375 10.78125 32.3125 
Q 14.796875 37.15625 21.921875 38.8125 
z
M 18.3125 54.390625 
Q 18.3125 48.734375 21.84375 45.5625 
Q 25.390625 42.390625 31.78125 42.390625 
Q 38.140625 42.390625 41.71875 45.5625 
Q 45.3125 48.734375 45.3125 54.390625 
Q 45.3125 60.0625 41.71875 63.234375 
Q 38.140625 66.40625 31.78125 66.40625 
Q 25.390625 66.40625 21.84375 63.234375 
Q 18.3125 60.0625 18.3125 54.390625 
z
" id="DejaVuSans-56"/>
      </defs>
      <g transform="translate(34.696875 133.687219)scale(0.1 -0.1)">
       <use xlink:href="#DejaVuSans-48"/>
       <use x="63.623047" xlink:href="#DejaVuSans-46"/>
       <use x="95.410156" xlink:href="#DejaVuSans-56"/>
      </g>
     </g>
    </g>
    <g id="ytick_6">
     <g id="line2d_11">
      <g>
       <use style="stroke:#000000;stroke-width:0.8;" x="57.6" xlink:href="#m51d1db27ed" y="100.128"/>
      </g>
     </g>
     <g id="text_11">
      <!-- 1.0 -->
      <g transform="translate(34.696875 103.927219)scale(0.1 -0.1)">
       <use xlink:href="#DejaVuSans-49"/>
       <use x="63.623047" xlink:href="#DejaVuSans-46"/>
       <use x="95.410156" xlink:href="#DejaVuSans-48"/>
      </g>
     </g>
    </g>
   </g>
   <g id="line2d_12">
    <path clip-path="url(#pbbd4ca8287)" d="M 236.16 248.928 
L 236.16 100.128 
" style="fill:none;stroke:#cc0000;stroke-dasharray:7.4,3.2;stroke-dashoffset:0;stroke-width:2;"/>
   </g>
   <g id="line2d_13">
    <path clip-path="url(#pbbd4ca8287)" d="M 87.36 248.928 
L 384.96 248.928 
" style="fill:none;stroke:#009900;stroke-linecap:square;stroke-width:2;"/>
   </g>
   <g id="line2d_14">
    <path clip-path="url(#pbbd4ca8287)" d="M 384.96 248.928 
L 384.96 100.128 
" style="fill:none;stroke:#009900;stroke-linecap:square;stroke-width:2;"/>
   </g>
   <g id="line2d_15">
    <path clip-path="url(#pbbd4ca8287)" d="M 384.96 100.128 
L 87.36 100.128 
" style="fill:none;stroke:#009900;stroke-linecap:square;stroke-width:2;"/>
   </g>
   <g id="line2d_16">
    <path clip-path="url(#pbbd4ca8287)" d="M 87.36 100.128 
L 87.36 248.928 
" style="fill:none;stroke:#009900;stroke-linecap:square;stroke-width:2;"/>
   </g>
   <g id="line2d_17">
    <path clip-path="url(#pbbd4ca8287)" d="M 88.713622 228.40511 
L 93.169745 232.350304 
L 97.780069 236.114144 
L 102.537218 239.69061 
L 107.433583 243.073979 
L 112.461331 246.258841 
L 117.050269 248.928 
L 122.188425 245.924513 
L 127.202363 242.717956 
L 132.084063 239.31346 
L 136.825714 235.716472 
L 141.419731 231.932746 
L 145.858765 227.968334 
L 150.135714 223.829579 
L 154.243735 219.523103 
L 158.176258 215.055794 
L 160.915651 211.718416 
L 162.56186 207.569764 
L 164.453877 203.527291 
L 166.584892 199.605545 
L 168.947236 195.81864 
L 171.532407 192.180205 
L 174.331101 188.703334 
L 177.333247 185.400541 
L 180.528038 182.283712 
L 183.903979 179.364064 
L 187.448918 176.652105 
L 191.150099 174.157594 
L 194.9942 171.88951 
L 198.682412 169.991979 
L 194.339494 168.962232 
L 190.066138 167.67392 
L 185.877724 166.131678 
L 181.789326 164.341058 
L 177.815658 162.308503 
L 173.971021 160.041328 
L 170.269251 157.547693 
L 166.72367 154.836572 
L 163.347039 151.917723 
L 160.15151 148.80165 
L 157.148583 145.499567 
L 154.349066 142.023359 
L 151.938733 138.647884 
L 151.547043 143.093995 
L 150.889452 147.508617 
L 149.968326 151.875864 
L 148.78698 156.180018 
L 147.349665 160.405588 
L 145.661554 164.537367 
L 143.728723 168.560486 
L 141.558128 172.460465 
L 139.15758 176.223268 
L 136.535719 179.835354 
L 133.701981 183.283723 
L 130.666565 186.555964 
L 127.674615 189.428554 
L 132.130679 189.173972 
L 136.59399 189.187051 
L 141.048485 189.467746 
L 145.478133 190.015044 
L 149.866992 190.826977 
L 154.199267 191.900623 
L 158.459366 193.232117 
L 162.631957 194.816668 
L 166.702024 196.648572 
L 170.654918 198.721238 
L 174.476415 201.027206 
L 178.152759 203.558176 
L 181.427364 206.103858 
L 180.53185 201.731287 
L 179.900143 197.312886 
L 179.534519 192.864557 
L 179.436292 188.402307 
L 179.605817 183.942197 
L 180.042482 179.500279 
L 180.744717 175.092537 
L 181.709994 170.734836 
L 182.934839 166.442858 
L 184.414844 162.232051 
L 186.144683 158.117567 
L 188.11813 154.114215 
L 190.16416 150.506266 
L 185.966779 152.023933 
L 181.685946 153.287178 
L 177.337067 154.291453 
L 172.935793 155.033145 
L 168.497964 155.509585 
L 164.039552 155.719057 
L 159.576602 155.660808 
L 155.125175 155.335047 
L 150.701293 154.742947 
L 146.320875 153.886639 
L 141.999688 152.769205 
L 137.753283 151.394665 
L 133.88765 149.891196 
L 135.995644 153.825365 
L 137.863935 157.878857 
L 139.485801 162.037087 
L 140.855405 166.285087 
L 141.967817 170.607569 
L 142.819034 174.988979 
L 143.405992 179.413546 
L 143.726579 183.865349 
L 143.779642 188.328364 
L 143.564988 192.786529 
L 143.083392 197.223801 
L 142.336585 201.62421 
L 141.407205 205.666461 
L 144.995659 203.012347 
L 148.736806 200.578188 
L 152.617184 198.372743 
L 156.622826 196.403949 
L 160.739318 194.678893 
L 164.951843 193.203782 
L 169.245241 191.983926 
L 173.604061 191.023714 
L 178.012615 190.326602 
L 182.455038 189.895099 
L 186.915342 189.730758 
L 191.377475 189.83417 
L 195.511573 190.169972 
L 192.366999 187.002486 
L 189.418018 183.652138 
L 186.675244 180.130986 
L 184.148548 176.451703 
L 181.847023 172.62753 
L 179.778952 168.672229 
L 177.951779 164.600036 
L 176.372078 160.425606 
L 175.045536 156.163963 
L 173.976926 151.830444 
L 173.170094 147.440644 
L 172.627944 143.010363 
L 172.363125 138.871111 
L 169.683031 142.440202 
L 166.793742 145.842162 
L 163.705658 149.064747 
L 160.429891 152.096359 
L 156.978232 154.926088 
L 153.363101 157.543749 
L 149.597511 159.939922 
L 145.695012 162.105983 
L 141.66965 164.034138 
L 137.535911 165.717446 
L 133.308674 167.149849 
L 129.00315 168.326192 
L 124.945548 169.186078 
L 119.798476 172.174259 
L 114.775016 175.365878 
L 109.883205 178.755829 
L 105.130869 182.338688 
L 100.52561 186.108725 
L 96.074797 190.059907 
L 91.785548 194.185913 
L 87.36 198.811684 
L 91.467807 203.118366 
L 95.744549 207.257334 
L 100.183385 211.221967 
L 104.777213 215.005923 
L 109.518685 218.603148 
L 114.400215 222.007887 
L 119.413993 225.214694 
L 124.551999 228.218437 
L 129.806012 231.014313 
L 135.167628 233.597848 
L 140.62827 235.964909 
L 146.1792 238.111709 
L 151.81154 240.034814 
L 157.516278 241.731147 
L 163.284288 243.197995 
L 169.106342 244.43301 
L 174.973127 245.434217 
L 180.875257 246.200015 
L 186.803289 246.729178 
L 192.74774 247.020859 
L 198.699101 247.074593 
L 204.64785 246.890293 
L 210.584471 246.468253 
L 216.499465 245.80915 
L 222.383372 244.914037 
L 228.226777 243.784347 
L 234.020332 242.421886 
L 236.16 241.856334 
L 243.521277 240.778228 
L 250.853305 239.516447 
L 258.1515 238.071778 
L 265.411301 236.445125 
L 272.628172 234.637504 
L 279.797602 232.650044 
L 286.91511 230.483989 
L 293.976248 228.140692 
L 300.976603 225.621616 
L 307.911801 222.928338 
L 314.777507 220.062539 
L 321.569429 217.02601 
L 328.283324 213.82065 
L 334.914996 210.448462 
L 341.460299 206.911553 
L 347.915143 203.212134 
L 354.275494 199.352517 
L 360.537378 195.335113 
L 366.69688 191.162434 
L 372.750151 186.837088 
L 378.693409 182.361777 
L 384.96 177.383057 
L 379.139239 172.749541 
L 373.204472 168.262978 
L 367.159407 163.92617 
L 361.007821 159.741828 
L 354.753561 155.712568 
L 348.400533 151.840906 
L 341.95271 148.129264 
L 335.41412 144.57996 
L 328.78885 141.195213 
L 322.08104 137.977139 
L 315.294883 134.927747 
L 308.434619 132.048945 
L 301.504537 129.342531 
L 294.508967 126.810197 
L 287.452281 124.453525 
L 280.338889 122.273989 
L 273.173238 120.272949 
L 265.959805 118.451658 
L 258.703099 116.811253 
L 251.407654 115.352759 
L 244.078031 114.077088 
L 234.722341 112.52603 
L 228.935495 111.135351 
L 223.097665 109.977197 
L 217.218191 109.05342 
L 211.306478 108.365498 
L 205.371985 107.914532 
L 199.424205 107.701243 
L 193.472653 107.725972 
L 187.526851 107.988681 
L 181.59631 108.488947 
L 175.690518 109.225972 
L 169.818924 110.198576 
L 163.99092 111.405204 
L 158.21583 112.843924 
L 152.502892 114.512435 
L 146.861248 116.408068 
L 141.299921 118.527791 
L 135.827809 120.868211 
L 130.453665 123.425586 
L 125.186089 126.195824 
L 120.033505 129.174492 
L 115.004159 132.356826 
L 110.106094 135.737735 
L 105.347148 139.31181 
L 100.734933 143.073334 
L 96.276829 147.016287 
L 91.979966 151.134364 
L 87.85122 155.420975 
L 87.36 155.954429 
L 91.467807 160.26111 
L 95.744549 164.400078 
L 100.183385 168.364711 
L 104.777213 172.148667 
L 109.518685 175.745892 
L 114.400215 179.150631 
L 119.413993 182.357438 
L 124.551999 185.361182 
L 126.518542 186.439323 
L 124.173689 191.909538 
L 122.049461 197.469146 
L 120.149258 203.109253 
L 118.476119 208.820836 
L 117.032721 214.594759 
L 115.821373 220.421784 
L 114.844012 226.292588 
L 114.102203 232.197781 
L 113.597132 238.127914 
L 113.329607 244.073502 
L 113.287606 248.928 
L 113.25485 244.464288 
L 113.002944 238.518018 
L 112.513453 232.586578 
L 111.787159 226.679457 
L 110.825225 220.806105 
L 109.629188 214.975918 
L 108.200963 209.198224 
L 106.542834 203.482265 
L 104.657454 197.837185 
L 102.547839 192.272016 
L 100.217364 186.795661 
L 97.669757 181.41688 
L 94.909095 176.144279 
L 91.939793 170.986293 
L 88.766601 165.951172 
L 87.36 163.854111 
L 90.618177 158.873562 
L 93.674578 153.766705 
L 96.524315 148.541709 
L 99.162829 143.206934 
L 101.585898 137.770914 
L 103.789646 132.242345 
L 105.770547 126.630071 
L 107.525433 120.943073 
L 109.051495 115.190446 
L 110.346294 109.381394 
L 111.407756 103.525212 
L 111.913437 100.128 
L 112.839452 106.007122 
L 113.999828 111.844511 
L 115.39271 117.630828 
L 117.015868 123.356816 
L 118.866706 129.013315 
L 120.942263 134.591275 
L 123.239219 140.081773 
L 125.753899 145.476026 
L 128.482281 150.765404 
L 130.49717 154.366764 
L 124.563997 153.898742 
L 118.616855 153.668359 
L 112.665256 153.675983 
L 106.718724 153.9216 
L 100.786769 154.40482 
L 94.878884 155.124867 
L 89.004518 156.080591 
L 87.36 156.391589 
L 93.223245 157.413325 
L 99.122658 158.199777 
L 105.048801 158.749685 
L 110.992196 159.062172 
L 116.943332 159.136736 
L 122.892689 158.973258 
L 128.127316 158.632007 
L 124.644879 153.805599 
L 120.972223 149.122312 
L 117.115223 144.589638 
L 113.08005 140.214829 
L 108.873158 136.004883 
L 104.501279 131.966535 
L 99.971406 128.106246 
L 95.290786 124.430192 
L 90.466907 120.944253 
L 87.36 118.849711 
L 92.270124 115.486339 
L 97.041821 111.929306 
L 101.667457 108.1843 
L 106.139634 104.257314 
L 110.478077 100.128 
L 114.788595 104.23178 
L 119.259772 108.159903 
L 123.884457 111.906085 
L 128.655249 115.464332 
L 133.564517 118.828952 
L 138.604407 121.994562 
L 143.766857 124.956098 
L 149.043607 127.708823 
L 154.426215 130.248332 
L 159.906072 132.570562 
L 165.474409 134.671799 
L 171.12232 136.548682 
L 176.840768 138.198206 
L 182.620605 139.617735 
L 188.452585 140.804996 
L 194.327378 141.75809 
L 200.235585 142.475493 
L 206.167755 142.956057 
L 212.114397 143.199013 
L 218.065999 143.203973 
L 224.013037 142.970927 
L 229.946 142.500251 
L 236.16 141.749707 
L 230.252081 141.029936 
L 224.320104 140.546995 
L 218.37356 140.301655 
L 212.421961 140.294311 
L 206.474829 140.524972 
L 200.541679 140.993271 
L 194.632001 141.698458 
L 188.75525 142.639405 
L 182.791008 143.84353 
L 181.78749 137.97714 
L 180.550182 132.155572 
L 179.081064 126.38814 
L 177.382484 120.684071 
L 175.457162 115.052489 
L 173.308176 109.502404 
L 170.938965 104.042695 
L 169.076888 100.128 
L 166.549641 105.516377 
L 164.239894 111.001507 
L 162.151341 116.574614 
L 160.287323 122.226783 
L 158.650823 127.948972 
L 157.244458 133.732027 
L 156.417039 137.713699 
L 156.178144 142.170631 
L 155.672424 146.605219 
L 154.901698 151.001501 
L 153.86874 155.343657 
L 152.577268 159.616059 
L 151.03193 163.803331 
L 149.238287 167.890404 
L 147.202794 171.862568 
L 144.932777 175.705528 
L 142.436405 179.405453 
L 139.722664 182.949029 
L 136.801318 186.3235 
L 133.682883 189.516724 
L 130.37858 192.517208 
L 129.579879 193.190256 
L 125.791865 197.780739 
L 122.190451 202.51903 
L 118.7814 207.397549 
L 115.570164 212.408491 
L 112.56188 217.543841 
L 109.761363 222.795381 
L 107.173091 228.154712 
L 104.801205 233.61326 
L 102.649501 239.162291 
L 100.721419 244.792929 
L 99.463158 248.928 
L 97.699429 243.243737 
L 95.709801 237.634552 
L 93.497457 232.109417 
L 91.065936 226.677172 
L 88.419128 221.346508 
L 87.36 219.353404 
L 90.087358 214.063498 
L 92.600995 208.668759 
L 94.896889 203.177817 
L 96.971367 197.599455 
L 98.821111 191.942598 
L 100.443162 186.216296 
L 101.834924 180.42971 
L 102.994171 174.592097 
L 103.919049 168.712796 
L 104.608077 162.801212 
L 105.060154 156.866804 
L 105.274557 150.919063 
L 105.250941 144.967507 
L 104.989346 139.021656 
L 104.490189 133.091021 
L 103.75427 127.185092 
L 102.782765 121.313315 
L 101.577229 115.485086 
L 100.13959 109.709726 
L 98.472148 103.996477 
L 97.200249 100.128 
L 95.377092 105.793481 
L 93.781952 111.527338 
L 92.417381 117.320396 
L 91.285562 123.163389 
L 90.388306 129.046969 
L 89.727048 134.961723 
L 89.302847 140.89819 
L 89.116379 146.846871 
L 89.167945 152.798251 
L 89.457461 158.742808 
L 89.984465 164.671033 
L 90.748112 170.573441 
L 91.747183 176.440591 
L 92.980077 182.263094 
L 94.444824 188.031638 
L 96.139079 193.736994 
L 98.060132 199.370033 
L 100.20491 204.921746 
L 102.569981 210.383249 
L 105.151563 215.745806 
L 107.945525 221.000837 
L 110.947397 226.139937 
L 114.152377 231.154883 
L 117.555338 236.037652 
L 121.150835 240.780434 
L 124.933118 245.375641 
L 128.07785 248.928 
L 132.004704 244.455708 
L 135.749573 239.829961 
L 139.306466 235.058159 
L 142.669693 230.147936 
L 145.833873 225.107148 
L 148.793944 219.943859 
L 151.545171 214.666328 
L 153.404819 210.777565 
L 154.973196 206.598867 
L 156.789321 202.521735 
L 158.84666 198.560842 
L 161.137808 194.730443 
L 163.654519 191.044322 
L 166.387736 187.515747 
L 169.327622 184.157416 
L 172.463597 180.981415 
L 175.784375 177.999175 
L 179.278004 175.221429 
L 182.931911 172.658173 
L 186.732946 170.318632 
L 190.66743 168.211227 
L 194.721202 166.343541 
L 197.75406 165.132912 
L 193.324339 165.679625 
L 188.869807 165.95973 
L 184.406494 165.97222 
L 179.950463 165.717049 
L 175.517752 165.195136 
L 171.124314 164.408359 
L 166.78596 163.35955 
L 162.518303 162.052483 
L 158.336703 160.491862 
L 154.256208 158.683303 
L 150.291505 156.633317 
L 146.456861 154.34928 
L 142.766078 151.839412 
L 139.232438 149.112746 
L 136.754156 146.986254 
L 139.291457 150.658232 
L 141.604006 154.475749 
L 143.68348 158.425066 
L 145.522396 162.49197 
L 147.114134 166.661825 
L 148.452967 170.919623 
L 149.534076 175.250041 
L 150.353571 179.637494 
L 150.908502 184.066193 
L 151.196871 188.520198 
L 151.217642 192.98348 
L 150.970739 197.439976 
L 150.457051 201.873648 
L 149.678426 206.268538 
L 148.94256 209.450102 
L 151.020587 205.500024 
L 153.331738 201.68166 
L 155.867694 198.008753 
L 158.619329 194.494522 
L 161.57674 191.151613 
L 164.729284 187.992058 
L 168.065614 185.027228 
L 171.573724 182.267792 
L 175.240988 179.723682 
L 179.054207 177.404055 
L 182.99966 175.317257 
L 187.063145 173.470799 
L 191.230039 171.871327 
L 195.485346 170.524597 
L 198.645665 169.702262 
L 194.182347 169.691407 
L 189.727713 169.412933 
L 185.297792 168.867843 
L 180.908529 168.058097 
L 176.57572 166.986611 
L 172.314958 165.657241 
L 168.141577 164.07477 
L 164.070598 162.244894 
L 160.116671 160.174199 
L 156.294026 157.870136 
L 152.61642 155.340999 
L 149.09709 152.595888 
L 145.7487 149.644685 
L 142.583301 146.498008 
L 140.390033 144.078624 
L 142.448822 148.038763 
L 144.266441 152.11523 
L 145.836348 156.293353 
L 147.152893 160.558095 
L 148.211338 164.894109 
L 149.007874 169.285788 
L 149.539633 173.717329 
L 149.804703 178.172781 
L 149.802129 182.636111 
L 149.53192 187.091255 
L 148.99505 191.522179 
L 148.193449 195.912937 
L 147.130004 200.247726 
L 145.808541 204.510947 
L 144.681049 207.575684 
L 147.236181 203.916091 
L 150.006159 200.4163 
L 152.981014 197.088905 
L 156.15004 193.945882 
L 159.501832 190.998543 
L 163.024326 188.257493 
L 166.704846 185.732599 
L 170.530146 183.432948 
L 174.486459 181.366814 
L 178.559546 179.541635 
L 182.734749 177.963979 
L 186.997042 176.639524 
L 191.331084 175.573036 
L 195.721278 174.768354 
L 198.959561 174.347193 
L 194.532552 173.77894 
L 190.147584 172.946249 
L 185.820438 171.852115 
L 181.566688 170.500478 
L 177.401641 168.8962 
L 173.340288 167.045057 
L 169.397245 164.95371 
L 165.586704 162.629685 
L 161.922377 160.081347 
L 158.417452 157.317867 
L 155.084544 154.349191 
L 151.935647 151.186001 
L 148.982093 147.839684 
L 146.234514 144.322281 
L 143.405709 140.506717 
L 139.473438 136.039187 
L 135.365659 131.732479 
L 131.088943 127.593484 
L 126.650132 123.628822 
L 122.056328 119.844837 
L 117.31488 116.247581 
L 112.433372 112.842811 
L 107.419615 109.635972 
L 102.281628 106.632195 
L 97.027633 103.836285 
L 91.666033 101.252716 
L 89.145867 100.128 
L 87.36 100.919212 
L 92.833375 103.256677 
L 98.395846 105.373396 
L 104.038514 107.265982 
L 109.752351 108.931408 
L 115.528217 110.367009 
L 121.356872 111.570488 
L 127.228991 112.539921 
L 133.13518 113.273757 
L 139.06599 113.770821 
L 145.011933 114.030318 
L 150.963498 114.051833 
L 156.911162 113.835332 
L 162.845411 113.381161 
L 168.756751 112.690046 
L 174.635725 111.763094 
L 180.472929 110.601787 
L 186.259024 109.207983 
L 191.984753 107.583912 
L 197.640956 105.732172 
L 203.218586 103.655726 
L 208.708718 101.357894 
L 211.416279 100.128 
L 216.859395 102.535089 
L 222.394414 104.722586 
L 228.012482 106.686991 
L 233.704612 108.425162 
L 236.16 109.098938 
L 230.438962 110.739459 
L 224.788104 112.607448 
L 219.216466 114.699917 
L 213.732961 117.013518 
L 208.346361 119.544551 
L 203.065284 122.288965 
L 197.898179 125.242371 
L 192.853312 128.400044 
L 187.938754 131.756931 
L 183.162366 135.307664 
L 178.53179 139.04656 
L 176.816718 140.511309 
L 174.057164 144.019326 
L 171.092221 147.355556 
L 167.932559 150.507992 
L 164.58955 153.46529 
L 161.075226 156.216807 
L 157.402233 158.752639 
L 153.583792 161.06366 
L 149.633643 163.141554 
L 145.566003 164.978842 
L 141.395512 166.568912 
L 137.137179 167.906041 
L 132.806328 168.985418 
L 128.418547 169.803157 
L 124.803939 170.274815 
L 119.203213 172.288132 
L 113.687478 174.523808 
L 108.265558 176.978267 
L 102.946128 179.647581 
L 97.737696 182.527481 
L 92.648596 185.613358 
L 87.36 189.127068 
L 92.31282 192.427243 
L 97.393649 195.526719 
L 102.594361 198.420537 
L 107.906634 201.104067 
L 113.321971 203.573016 
L 118.831707 205.823434 
L 124.427029 207.851722 
L 130.098986 209.654634 
L 135.838502 211.229286 
L 141.636397 212.57316 
L 147.483395 213.684104 
L 153.370142 214.560342 
L 159.28722 215.200472 
L 165.225163 215.60347 
L 171.174473 215.768692 
L 177.125631 215.695872 
L 183.069116 215.385128 
L 188.995421 214.836956 
L 194.895064 214.052233 
L 200.758608 213.032216 
L 206.576672 211.778535 
L 212.339948 210.293197 
L 218.039216 208.578577 
L 223.665359 206.637419 
L 229.209376 204.472827 
L 234.662398 202.088266 
L 236.16 201.38726 
L 230.733813 198.942249 
L 225.214192 196.716184 
L 219.609967 194.712626 
L 213.930104 192.93478 
L 208.18369 191.385489 
L 202.379917 190.067233 
L 196.068608 188.907132 
L 200.934778 192.333788 
L 205.934085 195.563108 
L 211.058531 198.589926 
L 216.299919 201.4094 
L 221.649864 204.017019 
L 227.099805 206.408612 
L 232.641026 208.580351 
L 236.16 209.829017 
L 230.566031 211.861034 
L 225.057796 214.115125 
L 219.644106 216.587683 
L 214.333623 219.274754 
L 209.134842 222.172038 
L 204.05608 225.2749 
L 199.105461 228.578376 
L 194.290906 232.077183 
L 189.620118 235.765721 
L 185.100567 239.63809 
L 180.739486 243.688096 
L 176.54385 247.909259 
L 175.580126 248.928 
L 171.424458 244.667483 
L 167.101739 240.576557 
L 162.618883 236.661766 
L 157.983064 232.929373 
L 153.201697 229.385348 
L 148.282431 226.035362 
L 143.233137 222.884774 
L 138.061892 219.938624 
L 132.776968 217.201625 
L 127.386821 214.678156 
L 121.900074 212.372254 
L 116.325504 210.287607 
L 110.672029 208.427552 
L 104.948694 206.795063 
L 99.164655 205.392752 
L 93.329166 204.222863 
L 87.36 203.274593 
L 93.238185 202.342648 
L 99.0744 201.176384 
L 104.859309 199.777667 
L 110.583657 198.148734 
L 116.238286 196.29219 
L 121.81415 194.211007 
L 127.302328 191.908514 
L 134.037059 188.977984 
L 138.24825 187.49907 
L 142.540545 186.275336 
L 146.898496 185.311188 
L 151.306419 184.610094 
L 155.74845 184.174579 
L 160.208604 184.00621 
L 164.670828 184.105593 
L 169.119063 184.472369 
L 173.5373 185.105219 
L 177.909638 186.001866 
L 182.220342 187.159082 
L 186.453898 188.572703 
L 190.595069 190.237642 
L 194.545357 192.105269 
L 193.25648 191.361718 
L 189.48265 188.978543 
L 185.858515 186.373363 
L 182.397118 183.555553 
L 179.110918 180.535255 
L 176.011739 177.323337 
L 173.110738 173.931361 
L 170.418353 170.371532 
L 167.944274 166.656662 
L 165.697406 162.800122 
L 163.685834 158.815791 
L 161.916799 154.718007 
L 160.396667 150.521518 
L 159.130908 146.241428 
L 158.124079 141.893139 
L 157.392726 137.585248 
L 157.521342 139.067654 
L 157.729011 143.526151 
L 157.668958 147.989077 
L 157.341397 152.440372 
L 156.747509 156.864015 
L 155.88943 161.244085 
L 154.770248 165.56482 
L 153.393992 169.81067 
L 151.765614 173.966353 
L 149.890975 178.016914 
L 147.776821 181.947776 
L 145.430762 185.744791 
L 142.86124 189.394294 
L 140.077502 192.883152 
L 137.089569 196.198807 
L 133.976983 199.265501 
L 135.118541 198.311082 
L 138.654504 195.58743 
L 142.347425 193.080708 
L 146.184014 190.79994 
L 150.150463 188.753333 
L 154.232498 186.948254 
L 158.415427 185.391197 
L 162.684196 184.087768 
L 167.023443 183.042656 
L 171.41755 182.259624 
L 175.850704 181.741489 
L 180.30695 181.490116 
L 184.770251 181.50641 
L 189.224543 181.790312 
L 193.653796 182.3408 
L 197.950349 183.136055 
L 196.514176 182.746854 
L 192.256363 181.408069 
L 188.08649 179.816378 
L 184.019565 177.977509 
L 180.070225 175.89808 
L 176.252682 173.585574 
L 172.580675 171.048314 
L 169.06742 168.295432 
L 165.725562 165.336835 
L 162.567126 162.18317 
L 159.60348 158.845788 
L 156.845289 155.336699 
L 154.302481 151.668532 
L 151.984207 147.854489 
L 149.89881 143.908297 
L 148.090059 139.930706 
L 148.593515 141.330922 
L 149.934514 145.588038 
L 151.017826 149.917906 
L 151.839553 154.304942 
L 152.396736 158.733357 
L 152.687372 163.187215 
L 152.710413 167.650486 
L 152.465777 172.107107 
L 151.954345 176.541039 
L 151.177956 180.936325 
L 150.139406 185.277147 
L 148.842432 189.547882 
L 147.291701 193.73316 
L 145.492794 197.817918 
L 143.452186 201.787457 
L 141.227401 205.548193 
L 142.086909 204.333567 
L 144.808722 200.796188 
L 147.737753 197.428385 
L 150.863461 194.242279 
L 154.174595 191.249336 
L 157.65924 188.460328 
L 161.304855 185.885291 
L 165.098319 183.533494 
L 169.02598 181.4134 
L 173.073702 179.53264 
L 177.226919 177.897982 
L 181.470683 176.515308 
L 185.789721 175.389596 
L 190.16849 174.524896 
L 194.591229 173.924321 
L 198.948281 173.594309 
L 197.460332 173.585344 
L 193.001728 173.379994 
L 188.563461 172.907657 
L 184.161504 172.170034 
L 179.811698 171.169779 
L 175.529699 169.910492 
L 171.330917 168.396706 
L 167.230464 166.633868 
L 163.243095 164.628322 
L 159.383163 162.387286 
L 155.664558 159.918827 
L 152.100663 157.231826 
L 148.704304 154.335956 
L 145.487705 151.241637 
L 142.462442 147.960006 
L 139.696596 144.57727 
L 135.875414 140.014361 
L 131.87482 135.607907 
L 127.701215 131.36496 
L 123.361276 127.292306 
L 118.861946 123.396461 
L 114.210423 119.683657 
L 109.414147 116.159835 
L 104.480793 112.830631 
L 99.418253 109.701371 
L 94.234625 106.777063 
L 88.938202 104.062383 
L 87.36 103.304392 
L 92.687997 100.652218 
L 93.681198 100.128 
L 98.989026 102.820311 
L 104.400272 105.298213 
L 109.906279 107.55774 
L 115.498239 109.595278 
L 121.167206 111.407568 
L 126.904111 112.99171 
L 132.699776 114.345169 
L 138.544928 115.465782 
L 144.430218 116.351754 
L 150.346229 117.001668 
L 156.283498 117.414486 
L 162.232526 117.589546 
L 168.183796 117.526568 
L 174.127788 117.225653 
L 180.054991 116.687283 
L 185.955924 115.912318 
L 191.821146 114.901999 
L 197.641275 113.657941 
L 203.407 112.182136 
L 209.109096 110.476944 
L 214.738442 108.545092 
L 220.286031 106.389672 
L 225.742989 104.014132 
L 231.100585 101.422272 
L 233.586649 100.128 
L 236.16 101.466638 
L 230.908492 104.267217 
L 225.773177 107.27556 
L 220.762272 110.486854 
L 215.883793 113.895962 
L 211.145543 117.497431 
L 206.555105 121.285498 
L 202.11982 125.254103 
L 197.846785 129.396899 
L 193.742836 133.707256 
L 189.814537 138.17828 
L 186.068175 142.802817 
L 181.590077 148.478922 
L 178.586715 151.780609 
L 175.390775 154.896261 
L 172.013759 157.814665 
L 168.467821 160.525318 
L 164.765722 163.018465 
L 160.920786 165.285132 
L 156.94685 167.317164 
L 152.858216 169.107245 
L 148.669599 170.648935 
L 144.396073 171.936684 
L 140.053019 172.965858 
L 135.656067 173.732753 
L 131.22104 174.234609 
L 126.763901 174.469621 
L 124.560023 174.486957 
L 127.535478 174.532368 
L 131.989307 174.823442 
L 136.417668 175.381061 
L 140.804623 176.203219 
L 145.134384 177.286957 
L 149.391368 178.628375 
L 153.560256 180.222644 
L 157.626043 182.064028 
L 161.574097 184.1459 
L 165.390209 186.460766 
L 169.060645 189.000296 
L 172.572197 191.755351 
L 175.912225 194.716015 
L 179.06871 197.871632 
L 182.030292 201.210847 
L 184.324847 204.102781 
L 182.553453 201.711639 
L 180.079151 197.996919 
L 177.83205 194.140515 
L 175.820238 190.156304 
L 174.050956 186.058627 
L 172.530571 181.86223 
L 171.264554 177.582216 
L 170.257462 173.233988 
L 169.51292 168.833196 
L 169.033606 164.395676 
L 168.821247 159.937401 
L 168.876605 155.474414 
L 169.199483 151.022777 
L 169.788717 146.598512 
L 170.642188 142.217541 
L 171.545553 138.638127 
L 170.722195 141.497756 
L 169.274439 145.719761 
L 167.57612 149.847354 
L 165.633349 153.865683 
L 163.45312 157.760284 
L 161.043278 161.517142 
L 158.412497 165.122735 
L 155.570243 168.564089 
L 152.526747 171.828817 
L 149.292961 174.90517 
L 145.880523 177.782076 
L 142.301716 180.449182 
L 138.569418 182.896889 
L 134.697061 185.116388 
L 130.698583 187.099691 
L 127.306515 188.556448 
L 121.813177 190.846606 
L 116.415815 193.354606 
L 111.123064 196.076437 
L 105.94339 199.007744 
L 100.885081 202.143838 
L 95.956228 205.479703 
L 91.164717 209.01 
L 87.36 212.032461 
L 92.033688 215.717324 
L 96.850994 219.212342 
L 101.804209 222.511924 
L 106.885411 225.61079 
L 112.086469 228.503984 
L 117.399064 231.186877 
L 122.814697 233.655176 
L 128.324704 235.904934 
L 133.920269 237.93255 
L 139.592441 239.734782 
L 145.332147 241.308746 
L 151.130203 242.651923 
L 156.977334 243.762166 
L 162.864186 244.637698 
L 168.781341 245.277119 
L 174.719333 245.679404 
L 180.668662 245.843912 
L 186.619811 245.770378 
L 192.563259 245.458921 
L 198.489498 244.910038 
L 204.389047 244.124608 
L 210.252468 243.103888 
L 216.070382 241.849509 
L 221.833479 240.363479 
L 227.532542 238.648176 
L 233.158452 236.706343 
L 236.16 235.56576 
L 230.5773 233.502985 
L 224.916577 231.665108 
L 219.186886 230.05507 
L 213.397394 228.675446 
L 207.557362 227.528443 
L 201.676135 226.615897 
L 195.763119 225.939268 
L 189.827775 225.499637 
L 183.879599 225.297708 
L 177.928105 225.333804 
L 171.982815 225.607868 
L 166.053241 226.119461 
L 160.148867 226.867764 
L 154.279141 227.851581 
L 148.453452 229.069337 
L 142.681121 230.519084 
L 136.971381 232.198504 
L 131.333367 234.104909 
L 125.776099 236.235249 
L 120.308466 238.586117 
L 114.939217 241.153751 
L 109.676941 243.934044 
L 104.530056 246.922549 
L 101.322598 248.928 
L 96.253344 245.809628 
L 91.063444 242.896466 
L 87.36 240.980279 
L 92.62949 238.213682 
L 97.784131 235.238575 
L 102.815675 232.059718 
L 107.716075 228.682194 
L 112.47749 225.111409 
L 117.092303 221.353074 
L 121.553132 217.413203 
L 125.852839 213.298097 
L 129.984547 209.01434 
L 133.941645 204.568785 
L 136.341305 201.689184 
L 132.061946 205.825448 
L 127.951418 210.129531 
L 124.016294 214.594549 
L 120.262871 219.213358 
L 116.697154 223.978569 
L 113.324847 228.88256 
L 110.151344 233.917484 
L 107.181723 239.075287 
L 104.420735 244.347718 
L 102.234443 248.928 
L 99.654869 243.564477 
L 96.862873 238.308401 
L 93.862925 233.168178 
L 90.659821 228.152033 
L 87.36 223.407613 
L 90.755469 218.519631 
L 93.952755 213.499776 
L 96.946742 208.356079 
L 99.732642 203.096768 
L 102.305997 197.730259 
L 104.662691 192.265135 
L 106.798952 186.71014 
L 108.711365 181.074161 
L 110.396868 175.366214 
L 111.852767 169.595431 
L 113.076731 163.771043 
L 114.066802 157.902369 
L 114.821398 151.998797 
L 115.339309 146.069771 
L 115.619709 140.124776 
L 115.662148 134.173325 
L 115.466559 128.224936 
L 115.033253 122.289127 
L 114.362926 116.375394 
L 113.456648 110.493197 
L 112.31587 104.651946 
L 111.263884 100.128 
L 109.941355 105.930801 
L 108.851934 111.781847 
L 107.997364 117.671778 
L 107.379012 123.591172 
L 106.997867 129.530558 
L 106.854539 135.480436 
L 106.949257 141.431285 
L 107.28187 147.373587 
L 107.851846 153.297834 
L 108.658273 159.19455 
L 109.69986 165.054301 
L 110.974942 170.867712 
L 112.481478 176.625483 
L 114.217058 182.318403 
L 116.178906 187.937365 
L 118.363884 193.473379 
L 120.768495 198.917589 
L 123.388894 204.261286 
L 126.220887 209.49592 
L 129.259944 214.613118 
L 132.501204 219.604692 
L 135.939481 224.462658 
L 139.569274 229.179244 
L 143.384777 233.746904 
L 147.379886 238.158331 
L 151.548209 242.406467 
L 155.883078 246.484517 
L 158.65524 248.928 
L 163.09004 244.958852 
L 167.362568 240.815535 
L 171.465991 236.504676 
L 175.393743 232.033173 
L 179.139541 227.408178 
L 182.697392 222.63709 
L 186.061605 217.727543 
L 189.226797 212.68739 
L 192.187904 207.524695 
L 194.940191 202.247717 
L 197.479253 196.864897 
L 199.801029 191.384848 
L 201.901804 185.816336 
L 203.778218 180.16827 
L 205.427268 174.449685 
L 206.846317 168.66973 
L 208.033094 162.837652 
L 208.985701 156.96278 
L 209.702614 151.054513 
L 210.182686 145.122303 
L 210.425148 139.175641 
L 210.429614 133.224039 
L 210.196075 127.27702 
L 209.724906 121.344096 
L 209.01686 115.43476 
L 208.07307 109.558466 
L 206.895046 103.724613 
L 206.046596 100.128 
L 204.724067 105.930801 
L 203.634646 111.781847 
L 202.780076 117.671778 
L 202.161724 123.591172 
L 201.780579 129.530558 
L 201.637251 135.480436 
L 201.731969 141.431285 
L 202.064583 147.373587 
L 202.634558 153.297834 
L 203.440985 159.19455 
L 204.482572 165.054301 
L 205.757654 170.867712 
L 207.26419 176.625483 
L 208.99977 182.318403 
L 210.961619 187.937365 
L 213.146596 193.473379 
L 215.551207 198.917589 
L 218.171606 204.261286 
L 221.003599 209.49592 
L 224.042656 214.613118 
L 227.283916 219.604692 
L 230.722193 224.462658 
L 234.351986 229.179244 
L 236.16 231.390019 
L 232.440353 236.036072 
L 228.909474 240.827155 
L 225.573011 245.755602 
L 223.572981 248.928 
L 220.361781 243.917035 
L 216.952764 239.038491 
L 213.351384 234.300175 
L 209.563403 229.709665 
L 205.59488 225.274306 
L 201.452165 221.001194 
L 197.141885 216.897163 
L 192.670935 212.968781 
L 188.046467 209.222332 
L 183.275881 205.663808 
L 182.714881 205.264509 
L 184.257708 211.012662 
L 186.029167 216.69452 
L 188.026422 222.300995 
L 190.246279 227.823115 
L 192.685186 233.252048 
L 195.339241 238.579108 
L 198.204199 243.795773 
L 201.297095 248.928 
L 204.369762 243.830912 
L 207.236141 238.615028 
L 209.891648 233.288691 
L 212.332035 227.860423 
L 214.553396 222.338908 
L 216.552179 216.732978 
L 218.325185 211.051602 
L 219.869579 205.30387 
L 221.18289 199.498976 
L 222.263016 193.646206 
L 223.10823 187.754925 
L 223.717179 181.834557 
L 224.08889 175.894573 
L 224.222767 169.944475 
L 224.118597 163.993784 
L 223.776546 158.052018 
L 223.197161 152.128683 
L 222.38137 146.233256 
L 221.330477 140.375167 
L 220.046163 134.563789 
L 218.530484 128.808417 
L 216.785863 123.118261 
L 214.815093 117.502422 
L 212.621325 111.969886 
L 210.208069 106.529502 
L 207.579187 101.189974 
L 207.024245 100.128 
L 204.352451 105.446186 
L 201.895465 110.86696 
L 199.657217 116.381652 
L 197.641289 121.981439 
L 195.850905 127.657363 
L 194.288929 133.400342 
L 192.957861 139.20119 
L 191.859829 145.050627 
L 190.933442 151.446616 
L 188.631837 155.270741 
L 186.105064 158.949972 
L 183.362216 162.471066 
L 180.413165 165.821352 
L 177.268524 168.988772 
L 173.939611 171.961928 
L 170.438406 174.730119 
L 166.777509 177.283382 
L 162.970095 179.612528 
L 159.029869 181.709175 
L 154.971009 183.565778 
L 150.808123 185.175655 
L 146.556194 186.533011 
L 142.230523 187.632962 
L 137.846679 188.471549 
L 133.420438 189.045755 
L 128.967731 189.353511 
L 127.659118 189.393055 
L 122.064799 187.362001 
L 116.393735 185.556286 
L 110.654997 183.978797 
L 104.857767 182.632058 
L 99.011319 181.518223 
L 93.125006 180.639075 
L 87.36 180.009527 
L 93.2761 179.360415 
L 99.161509 178.47524 
L 105.006814 177.35542 
L 110.802662 176.002746 
L 116.539781 174.419382 
L 122.208994 172.607861 
L 124.664263 171.744786 
L 119.375766 169.014699 
L 113.982324 166.498279 
L 108.492567 164.199551 
L 102.915276 162.122195 
L 97.259375 160.269532 
L 91.533911 158.644526 
L 87.36 157.613801 
L 93.130021 156.154883 
L 98.837085 154.466393 
L 104.472063 152.551032 
L 110.025939 150.411864 
L 115.489828 148.052311 
L 120.854991 145.476148 
L 126.112842 142.687497 
L 131.254972 139.690818 
L 136.273153 136.490906 
L 141.159358 133.09288 
L 145.90577 129.502175 
L 150.504795 125.724537 
L 154.949076 121.766009 
L 159.231504 117.632924 
L 163.345226 113.331893 
L 167.283663 108.869797 
L 171.040513 104.253775 
L 174.149576 100.128 
L 177.743926 104.871651 
L 181.525096 109.467773 
L 185.487038 113.909011 
L 189.623412 118.188262 
L 193.927603 122.298678 
L 198.392723 126.233686 
L 203.01163 129.986988 
L 207.776935 133.552581 
L 212.681013 136.924761 
L 217.71602 140.098132 
L 222.8739 143.067618 
L 228.146403 145.828469 
L 233.525093 148.376268 
L 236.16 149.529976 
L 230.733067 151.973329 
L 225.408182 154.631748 
L 220.193866 157.500978 
L 215.098459 160.576431 
L 210.130113 163.853185 
L 205.296776 167.325999 
L 200.606182 170.989318 
L 198.899065 172.399651 
L 203.930703 175.578361 
L 209.085432 178.553315 
L 214.355004 181.319756 
L 219.730988 183.873258 
L 225.204786 186.209734 
L 230.767639 188.325449 
L 236.16 190.138294 
L 230.520339 192.039822 
L 224.96123 194.165355 
L 219.491567 196.511492 
L 214.120099 199.074482 
L 208.85542 201.850222 
L 203.705952 204.834273 
L 198.679933 208.021861 
L 193.785405 211.407887 
L 189.030196 214.986933 
L 184.421914 218.753274 
L 179.967933 222.700884 
L 175.675376 226.823448 
L 171.551111 231.114371 
L 167.601737 235.566789 
L 163.83357 240.173578 
L 160.252641 244.927368 
L 157.461262 248.928 
L 154.038083 244.059384 
L 150.422948 239.331553 
L 146.621643 234.752071 
L 142.640247 230.328264 
L 138.485132 226.067208 
L 134.162943 221.975721 
L 129.680595 218.060349 
L 125.04526 214.327354 
L 120.264353 210.78271 
L 115.345522 207.432086 
L 110.296636 204.280842 
L 105.125773 201.334022 
L 99.841204 198.596337 
L 94.451384 196.072169 
L 88.964936 193.765555 
L 87.36 193.139002 
L 87.36 193.139002 
" style="fill:none;stroke:#1f77b4;stroke-linecap:square;stroke-width:1.5;"/>
   </g>
   <g id="patch_5">
    <path d="M 57.6 263.808 
L 57.6 85.248 
" style="fill:none;stroke:#000000;stroke-linecap:square;stroke-linejoin:miter;stroke-width:0.8;"/>
   </g>
   <g id="patch_6">
    <path d="M 414.72 263.808 
L 414.72 85.248 
" style="fill:none;stroke:#000000;stroke-linecap:square;stroke-linejoin:miter;stroke-width:0.8;"/>
   </g>
   <g id="patch_7">
    <path d="M 57.6 263.808 
L 414.72 263.808 
" style="fill:none;stroke:#000000;stroke-linecap:square;stroke-linejoin:miter;stroke-width:0.8;"/>
   </g>
   <g id="patch_8">
    <path d="M 57.6 85.248 
L 414.72 85.248 
" style="fill:none;stroke:#000000;stroke-linecap:square;stroke-linejoin:miter;stroke-width:0.8;"/>
   </g>
  </g>
 </g>
 <defs>
  <clipPath id="pbbd4ca8287">
   <rect height="178.56" width="357.12" x="57.6" y="85.248"/>
  </clipPath>
 </defs>
</svg>
