<?xml version="1.0" encoding="utf-8" standalone="no"?>
<!DOCTYPE svg PUBLIC "-//W3C//DTD SVG 1.1//EN"
  "http://www.w3.org/Graphics/SVG/1.1/DTD/svg11.dtd">
<!-- Created with matplotlib (http://matplotlib.org/) -->
<svg height="345.6pt" version="1.1" viewBox="0 0 460.8 345.6" width="460.8pt" xmlns="http://www.w3.org/2000/svg" xmlns:xlink="http://www.w3.org/1999/xlink">
 <defs>
  <style type="text/css">
*{stroke-linecap:butt;stroke-linejoin:round;}
  </style>
 </defs>
 <g id="figure_1">
  <g id="patch_1">
   <path d="M 0 345.6 
L 460.8 345.6 
L 460.8 0 
L 0 0 
z
" style="fill:#ffffff;"/>
  </g>
  <g id="axes_1">
   <g id="patch_2">
    <path d="M 57.6 263.808 
L 414.72 263.808 
L 414.72 85.248 
L 57.6 85.248 
z
" style="fill:#ffffff;"/>
   </g>
   <g id="PathCollection_1">
    <defs>
     <path d="M 0 3 
C 0.795609 3 1.55874 2.683901 2.12132 2.12132 
C 2.683901 1.55874 3 0.795609 3 0 
C 3 -0.795609 2.683901 -1.55874 2.12132 -2.12132 
C 1.55874 -2.683901 0.795609 -3 0 -3 
C -0.795609 -3 -1.55874 -2.683901 -2.12132 -2.12132 
C -2.683901 -1.55874 -3 -0.795609 -3 0 
C -3 0.795609 -2.683901 1.55874 -2.12132 2.12132 
C -1.55874 2.683901 -0.795609 3 0 3 
z
" id="m24fd0cd638" style="stroke:#000000;"/>
    </defs>
    <g clip-path="url(#p523c8f1ae1)">
     <use style="stroke:#000000;" x="106.903858" xlink:href="#m24fd0cd638" y="206.947371"/>
    </g>
   </g>
   <g id="patch_3">
    <path clip-path="url(#p523c8f1ae1)" d="M 161.76 211.728 
C 171.625555 211.728 181.088371 207.808373 188.064372 200.832372 
C 195.040373 193.856371 198.96 184.393555 198.96 174.528 
C 198.96 164.662445 195.040373 155.199629 188.064372 148.223628 
C 181.088371 141.247627 171.625555 137.328 161.76 137.328 
C 151.894445 137.328 142.431629 141.247627 135.455628 148.223628 
C 128.479627 155.199629 124.56 164.662445 124.56 174.528 
C 124.56 184.393555 128.479627 193.856371 135.455628 200.832372 
C 142.431629 207.808373 151.894445 211.728 161.76 211.728 
z
" style="fill:#cc0000;fill-opacity:0.1;stroke:#cc0000;stroke-dasharray:7.4,3.2;stroke-dashoffset:0;stroke-linejoin:miter;stroke-width:2;"/>
   </g>
   <g id="patch_4">
    <path clip-path="url(#p523c8f1ae1)" d="M 310.56 196.848 
C 316.479333 196.848 322.157023 194.496224 326.342623 190.310623 
C 330.528224 186.125023 332.88 180.447333 332.88 174.528 
C 332.88 168.608667 330.528224 162.930977 326.342623 158.745377 
C 322.157023 154.559776 316.479333 152.208 310.56 152.208 
C 304.640667 152.208 298.962977 154.559776 294.777377 158.745377 
C 290.591776 162.930977 288.24 168.608667 288.24 174.528 
C 288.24 180.447333 290.591776 186.125023 294.777377 190.310623 
C 298.962977 194.496224 304.640667 196.848 310.56 196.848 
z
" style="fill:#cc0000;fill-opacity:0.1;stroke:#cc0000;stroke-dasharray:7.4,3.2;stroke-dashoffset:0;stroke-linejoin:miter;stroke-width:2;"/>
   </g>
   <g id="matplotlib.axis_1">
    <g id="xtick_1">
     <g id="line2d_1">
      <defs>
       <path d="M 0 0 
L 0 3.5 
" id="ma611de4db7" style="stroke:#000000;stroke-width:0.8;"/>
      </defs>
      <g>
       <use style="stroke:#000000;stroke-width:0.8;" x="87.36" xlink:href="#ma611de4db7" y="263.808"/>
      </g>
     </g>
     <g id="text_1">
      <!-- 0.0 -->
      <defs>
       <path d="M 31.78125 66.40625 
Q 24.171875 66.40625 20.328125 58.90625 
Q 16.5 51.421875 16.5 36.375 
Q 16.5 21.390625 20.328125 13.890625 
Q 24.171875 6.390625 31.78125 6.390625 
Q 39.453125 6.390625 43.28125 13.890625 
Q 47.125 21.390625 47.125 36.375 
Q 47.125 51.421875 43.28125 58.90625 
Q 39.453125 66.40625 31.78125 66.40625 
z
M 31.78125 74.21875 
Q 44.046875 74.21875 50.515625 64.515625 
Q 56.984375 54.828125 56.984375 36.375 
Q 56.984375 17.96875 50.515625 8.265625 
Q 44.046875 -1.421875 31.78125 -1.421875 
Q 19.53125 -1.421875 13.0625 8.265625 
Q 6.59375 17.96875 6.59375 36.375 
Q 6.59375 54.828125 13.0625 64.515625 
Q 19.53125 74.21875 31.78125 74.21875 
z
" id="DejaVuSans-30"/>
       <path d="M 10.6875 12.40625 
L 21 12.40625 
L 21 0 
L 10.6875 0 
z
" id="DejaVuSans-2e"/>
      </defs>
      <g transform="translate(79.408438 278.406437)scale(0.1 -0.1)">
       <use xlink:href="#DejaVuSans-30"/>
       <use x="63.623047" xlink:href="#DejaVuSans-2e"/>
       <use x="95.410156" xlink:href="#DejaVuSans-30"/>
      </g>
     </g>
    </g>
    <g id="xtick_2">
     <g id="line2d_2">
      <g>
       <use style="stroke:#000000;stroke-width:0.8;" x="161.76" xlink:href="#ma611de4db7" y="263.808"/>
      </g>
     </g>
     <g id="text_2">
      <!-- 0.5 -->
      <defs>
       <path d="M 10.796875 72.90625 
L 49.515625 72.90625 
L 49.515625 64.59375 
L 19.828125 64.59375 
L 19.828125 46.734375 
Q 21.96875 47.46875 24.109375 47.828125 
Q 26.265625 48.1875 28.421875 48.1875 
Q 40.625 48.1875 47.75 41.5 
Q 54.890625 34.8125 54.890625 23.390625 
Q 54.890625 11.625 47.5625 5.09375 
Q 40.234375 -1.421875 26.90625 -1.421875 
Q 22.3125 -1.421875 17.546875 -0.640625 
Q 12.796875 0.140625 7.71875 1.703125 
L 7.71875 11.625 
Q 12.109375 9.234375 16.796875 8.0625 
Q 21.484375 6.890625 26.703125 6.890625 
Q 35.15625 6.890625 40.078125 11.328125 
Q 45.015625 15.765625 45.015625 23.390625 
Q 45.015625 31 40.078125 35.4375 
Q 35.15625 39.890625 26.703125 39.890625 
Q 22.75 39.890625 18.8125 39.015625 
Q 14.890625 38.140625 10.796875 36.28125 
z
" id="DejaVuSans-35"/>
      </defs>
      <g transform="translate(153.808437 278.406437)scale(0.1 -0.1)">
       <use xlink:href="#DejaVuSans-30"/>
       <use x="63.623047" xlink:href="#DejaVuSans-2e"/>
       <use x="95.410156" xlink:href="#DejaVuSans-35"/>
      </g>
     </g>
    </g>
    <g id="xtick_3">
     <g id="line2d_3">
      <g>
       <use style="stroke:#000000;stroke-width:0.8;" x="236.16" xlink:href="#ma611de4db7" y="263.808"/>
      </g>
     </g>
     <g id="text_3">
      <!-- 1.0 -->
      <defs>
       <path d="M 12.40625 8.296875 
L 28.515625 8.296875 
L 28.515625 63.921875 
L 10.984375 60.40625 
L 10.984375 69.390625 
L 28.421875 72.90625 
L 38.28125 72.90625 
L 38.28125 8.296875 
L 54.390625 8.296875 
L 54.390625 0 
L 12.40625 0 
z
" id="DejaVuSans-31"/>
      </defs>
      <g transform="translate(228.208437 278.406437)scale(0.1 -0.1)">
       <use xlink:href="#DejaVuSans-31"/>
       <use x="63.623047" xlink:href="#DejaVuSans-2e"/>
       <use x="95.410156" xlink:href="#DejaVuSans-30"/>
      </g>
     </g>
    </g>
    <g id="xtick_4">
     <g id="line2d_4">
      <g>
       <use style="stroke:#000000;stroke-width:0.8;" x="310.56" xlink:href="#ma611de4db7" y="263.808"/>
      </g>
     </g>
     <g id="text_4">
      <!-- 1.5 -->
      <g transform="translate(302.608437 278.406437)scale(0.1 -0.1)">
       <use xlink:href="#DejaVuSans-31"/>
       <use x="63.623047" xlink:href="#DejaVuSans-2e"/>
       <use x="95.410156" xlink:href="#DejaVuSans-35"/>
      </g>
     </g>
    </g>
    <g id="xtick_5">
     <g id="line2d_5">
      <g>
       <use style="stroke:#000000;stroke-width:0.8;" x="384.96" xlink:href="#ma611de4db7" y="263.808"/>
      </g>
     </g>
     <g id="text_5">
      <!-- 2.0 -->
      <defs>
       <path d="M 19.1875 8.296875 
L 53.609375 8.296875 
L 53.609375 0 
L 7.328125 0 
L 7.328125 8.296875 
Q 12.9375 14.109375 22.625 23.890625 
Q 32.328125 33.6875 34.8125 36.53125 
Q 39.546875 41.84375 41.421875 45.53125 
Q 43.3125 49.21875 43.3125 52.78125 
Q 43.3125 58.59375 39.234375 62.25 
Q 35.15625 65.921875 28.609375 65.921875 
Q 23.96875 65.921875 18.8125 64.3125 
Q 13.671875 62.703125 7.8125 59.421875 
L 7.8125 69.390625 
Q 13.765625 71.78125 18.9375 73 
Q 24.125 74.21875 28.421875 74.21875 
Q 39.75 74.21875 46.484375 68.546875 
Q 53.21875 62.890625 53.21875 53.421875 
Q 53.21875 48.921875 51.53125 44.890625 
Q 49.859375 40.875 45.40625 35.40625 
Q 44.1875 33.984375 37.640625 27.21875 
Q 31.109375 20.453125 19.1875 8.296875 
z
" id="DejaVuSans-32"/>
      </defs>
      <g transform="translate(377.008437 278.406437)scale(0.1 -0.1)">
       <use xlink:href="#DejaVuSans-32"/>
       <use x="63.623047" xlink:href="#DejaVuSans-2e"/>
       <use x="95.410156" xlink:href="#DejaVuSans-30"/>
      </g>
     </g>
    </g>
   </g>
   <g id="matplotlib.axis_2">
    <g id="ytick_1">
     <g id="line2d_6">
      <defs>
       <path d="M 0 0 
L -3.5 0 
" id="mef0050b9cc" style="stroke:#000000;stroke-width:0.8;"/>
      </defs>
      <g>
       <use style="stroke:#000000;stroke-width:0.8;" x="57.6" xlink:href="#mef0050b9cc" y="248.928"/>
      </g>
     </g>
     <g id="text_6">
      <!-- 0.0 -->
      <g transform="translate(34.696875 252.727219)scale(0.1 -0.1)">
       <use xlink:href="#DejaVuSans-30"/>
       <use x="63.623047" xlink:href="#DejaVuSans-2e"/>
       <use x="95.410156" xlink:href="#DejaVuSans-30"/>
      </g>
     </g>
    </g>
    <g id="ytick_2">
     <g id="line2d_7">
      <g>
       <use style="stroke:#000000;stroke-width:0.8;" x="57.6" xlink:href="#mef0050b9cc" y="219.168"/>
      </g>
     </g>
     <g id="text_7">
      <!-- 0.2 -->
      <g transform="translate(34.696875 222.967219)scale(0.1 -0.1)">
       <use xlink:href="#DejaVuSans-30"/>
       <use x="63.623047" xlink:href="#DejaVuSans-2e"/>
       <use x="95.410156" xlink:href="#DejaVuSans-32"/>
      </g>
     </g>
    </g>
    <g id="ytick_3">
     <g id="line2d_8">
      <g>
       <use style="stroke:#000000;stroke-width:0.8;" x="57.6" xlink:href="#mef0050b9cc" y="189.408"/>
      </g>
     </g>
     <g id="text_8">
      <!-- 0.4 -->
      <defs>
       <path d="M 37.796875 64.3125 
L 12.890625 25.390625 
L 37.796875 25.390625 
z
M 35.203125 72.90625 
L 47.609375 72.90625 
L 47.609375 25.390625 
L 58.015625 25.390625 
L 58.015625 17.1875 
L 47.609375 17.1875 
L 47.609375 0 
L 37.796875 0 
L 37.796875 17.1875 
L 4.890625 17.1875 
L 4.890625 26.703125 
z
" id="DejaVuSans-34"/>
      </defs>
      <g transform="translate(34.696875 193.207219)scale(0.1 -0.1)">
       <use xlink:href="#DejaVuSans-30"/>
       <use x="63.623047" xlink:href="#DejaVuSans-2e"/>
       <use x="95.410156" xlink:href="#DejaVuSans-34"/>
      </g>
     </g>
    </g>
    <g id="ytick_4">
     <g id="line2d_9">
      <g>
       <use style="stroke:#000000;stroke-width:0.8;" x="57.6" xlink:href="#mef0050b9cc" y="159.648"/>
      </g>
     </g>
     <g id="text_9">
      <!-- 0.6 -->
      <defs>
       <path d="M 33.015625 40.375 
Q 26.375 40.375 22.484375 35.828125 
Q 18.609375 31.296875 18.609375 23.390625 
Q 18.609375 15.53125 22.484375 10.953125 
Q 26.375 6.390625 33.015625 6.390625 
Q 39.65625 6.390625 43.53125 10.953125 
Q 47.40625 15.53125 47.40625 23.390625 
Q 47.40625 31.296875 43.53125 35.828125 
Q 39.65625 40.375 33.015625 40.375 
z
M 52.59375 71.296875 
L 52.59375 62.3125 
Q 48.875 64.0625 45.09375 64.984375 
Q 41.3125 65.921875 37.59375 65.921875 
Q 27.828125 65.921875 22.671875 59.328125 
Q 17.53125 52.734375 16.796875 39.40625 
Q 19.671875 43.65625 24.015625 45.921875 
Q 28.375 48.1875 33.59375 48.1875 
Q 44.578125 48.1875 50.953125 41.515625 
Q 57.328125 34.859375 57.328125 23.390625 
Q 57.328125 12.15625 50.6875 5.359375 
Q 44.046875 -1.421875 33.015625 -1.421875 
Q 20.359375 -1.421875 13.671875 8.265625 
Q 6.984375 17.96875 6.984375 36.375 
Q 6.984375 53.65625 15.1875 63.9375 
Q 23.390625 74.21875 37.203125 74.21875 
Q 40.921875 74.21875 44.703125 73.484375 
Q 48.484375 72.75 52.59375 71.296875 
z
" id="DejaVuSans-36"/>
      </defs>
      <g transform="translate(34.696875 163.447219)scale(0.1 -0.1)">
       <use xlink:href="#DejaVuSans-30"/>
       <use x="63.623047" xlink:href="#DejaVuSans-2e"/>
       <use x="95.410156" xlink:href="#DejaVuSans-36"/>
      </g>
     </g>
    </g>
    <g id="ytick_5">
     <g id="line2d_10">
      <g>
       <use style="stroke:#000000;stroke-width:0.8;" x="57.6" xlink:href="#mef0050b9cc" y="129.888"/>
      </g>
     </g>
     <g id="text_10">
      <!-- 0.8 -->
      <defs>
       <path d="M 31.78125 34.625 
Q 24.75 34.625 20.71875 30.859375 
Q 16.703125 27.09375 16.703125 20.515625 
Q 16.703125 13.921875 20.71875 10.15625 
Q 24.75 6.390625 31.78125 6.390625 
Q 38.8125 6.390625 42.859375 10.171875 
Q 46.921875 13.96875 46.921875 20.515625 
Q 46.921875 27.09375 42.890625 30.859375 
Q 38.875 34.625 31.78125 34.625 
z
M 21.921875 38.8125 
Q 15.578125 40.375 12.03125 44.71875 
Q 8.5 49.078125 8.5 55.328125 
Q 8.5 64.0625 14.71875 69.140625 
Q 20.953125 74.21875 31.78125 74.21875 
Q 42.671875 74.21875 48.875 69.140625 
Q 55.078125 64.0625 55.078125 55.328125 
Q 55.078125 49.078125 51.53125 44.71875 
Q 48 40.375 41.703125 38.8125 
Q 48.828125 37.15625 52.796875 32.3125 
Q 56.78125 27.484375 56.78125 20.515625 
Q 56.78125 9.90625 50.3125 4.234375 
Q 43.84375 -1.421875 31.78125 -1.421875 
Q 19.734375 -1.421875 13.25 4.234375 
Q 6.78125 9.90625 6.78125 20.515625 
Q 6.78125 27.484375 10.78125 32.3125 
Q 14.796875 37.15625 21.921875 38.8125 
z
M 18.3125 54.390625 
Q 18.3125 48.734375 21.84375 45.5625 
Q 25.390625 42.390625 31.78125 42.390625 
Q 38.140625 42.390625 41.71875 45.5625 
Q 45.3125 48.734375 45.3125 54.390625 
Q 45.3125 60.0625 41.71875 63.234375 
Q 38.140625 66.40625 31.78125 66.40625 
Q 25.390625 66.40625 21.84375 63.234375 
Q 18.3125 60.0625 18.3125 54.390625 
z
" id="DejaVuSans-38"/>
      </defs>
      <g transform="translate(34.696875 133.687219)scale(0.1 -0.1)">
       <use xlink:href="#DejaVuSans-30"/>
       <use x="63.623047" xlink:href="#DejaVuSans-2e"/>
       <use x="95.410156" xlink:href="#DejaVuSans-38"/>
      </g>
     </g>
    </g>
    <g id="ytick_6">
     <g id="line2d_11">
      <g>
       <use style="stroke:#000000;stroke-width:0.8;" x="57.6" xlink:href="#mef0050b9cc" y="100.128"/>
      </g>
     </g>
     <g id="text_11">
      <!-- 1.0 -->
      <g transform="translate(34.696875 103.927219)scale(0.1 -0.1)">
       <use xlink:href="#DejaVuSans-31"/>
       <use x="63.623047" xlink:href="#DejaVuSans-2e"/>
       <use x="95.410156" xlink:href="#DejaVuSans-30"/>
      </g>
     </g>
    </g>
   </g>
   <g id="line2d_12">
    <path clip-path="url(#p523c8f1ae1)" d="M 236.16 248.928 
L 236.16 100.128 
" style="fill:none;stroke:#cc0000;stroke-dasharray:7.4,3.2;stroke-dashoffset:0;stroke-width:2;"/>
   </g>
   <g id="line2d_13">
    <path clip-path="url(#p523c8f1ae1)" d="M 87.36 248.928 
L 384.96 248.928 
" style="fill:none;stroke:#009900;stroke-linecap:square;stroke-width:2;"/>
   </g>
   <g id="line2d_14">
    <path clip-path="url(#p523c8f1ae1)" d="M 384.96 248.928 
L 384.96 100.128 
" style="fill:none;stroke:#009900;stroke-linecap:square;stroke-width:2;"/>
   </g>
   <g id="line2d_15">
    <path clip-path="url(#p523c8f1ae1)" d="M 384.96 100.128 
L 87.36 100.128 
" style="fill:none;stroke:#009900;stroke-linecap:square;stroke-width:2;"/>
   </g>
   <g id="line2d_16">
    <path clip-path="url(#p523c8f1ae1)" d="M 87.36 100.128 
L 87.36 248.928 
" style="fill:none;stroke:#009900;stroke-linecap:square;stroke-width:2;"/>
   </g>
   <g id="line2d_17">
    <path clip-path="url(#p523c8f1ae1)" d="M 106.903858 206.947371 
L 101.973304 210.280719 
L 97.179991 213.808571 
L 92.531589 217.525281 
L 88.035534 221.424906 
L 87.36 222.038694 
L 91.83205 225.965823 
L 96.457567 229.710977 
L 101.22915 233.268164 
L 106.139165 236.631693 
L 111.179758 239.796184 
L 116.342866 242.756573 
L 121.620227 245.508125 
L 127.0034 248.046438 
L 129.013887 248.928 
L 134.433921 246.46938 
L 139.751301 243.795983 
L 144.95752 240.912086 
L 150.04425 237.822303 
L 155.003352 234.531576 
L 159.826894 231.04517 
L 164.507158 227.368663 
L 169.036658 223.507936 
L 173.408147 219.469165 
L 177.614631 215.258812 
L 181.649381 210.883613 
L 185.505942 206.350566 
L 189.178146 201.666924 
L 192.660116 196.840179 
L 195.946282 191.878053 
L 199.031388 186.788485 
L 201.910498 181.579617 
L 204.579005 176.259781 
L 207.032641 170.83749 
L 209.267481 165.321416 
L 211.279949 159.720384 
L 213.066826 154.043356 
L 214.625253 148.299412 
L 215.952737 142.497743 
L 217.047154 136.647629 
L 217.906753 130.75843 
L 218.53016 124.839566 
L 218.916377 118.900508 
L 219.064785 112.950755 
L 218.975149 106.999827 
L 218.64761 101.057243 
L 218.574801 100.128 
L 218.210044 106.068415 
L 218.083133 112.018665 
L 218.194269 117.969231 
L 218.543276 123.910592 
L 219.129595 129.833244 
L 219.952287 135.727713 
L 221.010037 141.584567 
L 222.301153 147.394438 
L 223.82357 153.148031 
L 225.57485 158.836141 
L 227.552194 164.449669 
L 229.752437 169.979634 
L 232.17206 175.417189 
L 234.807191 180.753635 
L 236.16 183.299919 
L 233.421962 188.584304 
L 230.897434 193.973955 
L 228.590453 199.460249 
L 226.504711 205.034409 
L 224.643544 210.687518 
L 223.00993 216.410532 
L 221.606482 222.194295 
L 220.435445 228.029554 
L 219.498694 233.906975 
L 218.797726 239.817155 
L 218.333663 245.750638 
L 218.18306 248.928 
L 217.845937 242.985952 
L 217.271465 237.062139 
L 216.460563 231.166037 
L 215.414528 225.307079 
L 214.135035 219.494637 
L 212.624129 213.738011 
L 210.884228 208.04641 
L 208.918116 202.428939 
L 206.728937 196.894584 
L 204.320195 191.452201 
L 201.695741 186.110494 
L 198.859776 180.878011 
L 198.513804 180.27238 
L 202.830379 176.174971 
L 206.979649 171.908223 
L 210.954976 167.478961 
L 214.749999 162.894272 
L 218.358649 158.161489 
L 221.77515 153.288185 
L 224.994039 148.282155 
L 228.010166 143.151408 
L 230.818704 137.904152 
L 233.415162 132.548782 
L 235.795385 127.093866 
L 236.16 126.202291 
L 233.815139 120.73208 
L 231.253403 115.360015 
L 228.478891 110.094688 
L 225.496041 104.944524 
L 222.448609 100.128 
L 219.270712 105.160152 
L 216.296589 110.315361 
L 213.530999 115.585379 
L 210.978366 120.961776 
L 208.642773 126.43595 
L 206.527957 131.999145 
L 204.6373 137.642459 
L 202.973829 143.356866 
L 201.540203 149.133223 
L 200.338717 154.962289 
L 199.371293 160.834739 
L 198.639477 166.741178 
L 198.46796 168.497603 
L 200.987167 173.889743 
L 203.719986 179.176829 
L 206.662047 184.350402 
L 209.808642 189.402186 
L 213.154738 194.324099 
L 216.694981 199.108266 
L 220.423708 203.747035 
L 224.334954 208.232984 
L 228.422462 212.558936 
L 232.679691 216.717972 
L 236.16 219.882584 
L 243.152421 222.423602 
L 250.206175 224.789034 
L 257.316855 226.977401 
L 264.480016 228.987336 
L 271.691182 230.817582 
L 278.945846 232.466996 
L 286.239474 233.934547 
L 293.567508 235.219317 
L 300.925368 236.320505 
L 308.308456 237.237421 
L 315.712157 237.969492 
L 323.131844 238.516261 
L 330.562881 238.877387 
L 338.000622 239.052643 
L 345.440421 239.041921 
L 352.877627 238.845226 
L 360.307591 238.462682 
L 367.725672 237.894527 
L 375.127232 237.141117 
L 382.507646 236.202924 
L 384.96 235.849566 
L 377.587653 234.849959 
L 370.192622 234.034955 
L 362.779529 233.405061 
L 355.353006 232.960672 
L 347.917696 232.702066 
L 340.478244 232.629403 
L 333.039301 232.742731 
L 325.605516 233.041977 
L 318.181533 233.526955 
L 310.771994 234.197362 
L 303.381529 235.052778 
L 296.014756 236.09267 
L 288.676279 237.316387 
L 281.370686 238.723164 
L 274.102541 240.312122 
L 266.876387 242.082269 
L 259.696741 244.032497 
L 252.568088 246.161588 
L 244.153046 248.928 
L 236.16 246.293736 
L 231.209405 242.990224 
L 226.130665 239.887326 
L 220.931905 236.990005 
L 215.62144 234.302896 
L 210.207769 231.830299 
L 204.69955 229.576168 
L 199.105595 227.544111 
L 193.434855 225.737378 
L 187.696401 224.158859 
L 181.899413 222.811079 
L 176.053165 221.696196 
L 170.16701 220.815991 
L 164.250364 220.171875 
L 158.312693 219.764876 
L 152.363497 219.595646 
L 146.412291 219.664456 
L 140.468598 219.971196 
L 134.541925 220.515374 
L 128.641754 221.296122 
L 122.777525 222.312188 
L 116.958617 223.561948 
L 111.194342 225.043403 
L 105.49392 226.754183 
L 99.86647 228.69155 
L 94.320996 230.852405 
L 88.866368 233.233292 
L 87.36 233.937221 
L 92.787683 236.37891 
L 98.308665 238.601596 
L 103.914115 240.601724 
L 109.595065 242.376093 
L 115.342427 243.921866 
L 121.147006 245.236569 
L 126.999516 246.3181 
L 132.890594 247.164727 
L 138.810816 247.775097 
L 144.750711 248.148232 
L 150.700776 248.283537 
L 156.651492 248.180795 
L 162.59334 247.840169 
L 168.516814 247.262206 
L 174.412437 246.447829 
L 180.270777 245.398341 
L 186.082464 244.115422 
L 191.838198 242.601123 
L 197.528773 240.857868 
L 203.145084 238.888445 
L 208.678147 236.696004 
L 214.11911 234.284054 
L 219.459269 231.656453 
L 224.69008 228.817404 
L 229.803175 225.771449 
L 234.790374 222.523462 
L 236.16 221.580707 
L 231.209405 218.277195 
L 226.130665 215.174296 
L 220.931905 212.276975 
L 215.621441 209.589866 
L 210.207769 207.117269 
L 204.69955 204.863139 
L 199.105595 202.831081 
L 193.434855 201.024348 
L 189.059199 199.798412 
L 191.12817 205.378819 
L 193.418642 210.872025 
L 195.926951 216.269243 
L 198.649086 221.561839 
L 201.58069 226.741344 
L 204.717075 231.799474 
L 208.053221 236.728135 
L 211.583794 241.519444 
L 215.303143 246.165735 
L 217.664239 248.928 
L 221.495938 244.373918 
L 225.142457 239.670252 
L 228.597963 234.824526 
L 231.856928 229.844493 
L 234.914138 224.738119 
L 236.16 222.515537 
L 233.190673 217.357564 
L 230.017458 212.322459 
L 226.64543 207.418276 
L 223.079985 202.652861 
L 219.326826 198.033838 
L 215.391957 193.568595 
L 211.281674 189.264277 
L 207.002551 185.12777 
L 202.561436 181.165691 
L 198.793547 178.043168 
L 194.70926 176.24319 
L 190.740257 174.201541 
L 186.900821 171.925568 
L 183.204771 169.423463 
L 179.665408 166.70423 
L 176.295469 163.777657 
L 173.107084 160.654274 
L 170.111727 157.345323 
L 167.320178 153.862713 
L 164.742483 150.218978 
L 162.38792 146.42723 
L 160.264962 142.501117 
L 158.38125 138.454767 
L 157.987194 137.519813 
L 157.018082 141.876663 
L 155.78946 146.167561 
L 154.30575 150.377064 
L 152.57229 154.490024 
L 150.595321 158.491637 
L 148.381956 162.367503 
L 145.940161 166.103672 
L 143.278725 169.686698 
L 140.407226 173.103686 
L 137.335997 176.342339 
L 134.076092 179.391001 
L 130.639243 182.2387 
L 127.037819 184.875187 
L 126.197638 185.443971 
L 130.659825 185.545019 
L 135.107922 185.913456 
L 139.525923 186.547956 
L 143.897926 187.446235 
L 148.208198 188.605061 
L 152.441225 190.020262 
L 156.581775 191.686746 
L 160.614944 193.598516 
L 164.526219 195.74869 
L 168.301522 198.129531 
L 171.927268 200.732469 
L 175.390406 203.548139 
L 178.678473 206.566405 
L 179.400153 207.279565 
L 178.62926 202.883311 
L 178.123371 198.448743 
L 177.884306 193.99182 
L 177.912927 189.528581 
L 178.20913 185.07509 
L 178.771849 180.647375 
L 179.599059 176.261369 
L 180.687783 171.932859 
L 182.034103 167.677423 
L 183.633173 163.510374 
L 185.479238 159.44671 
L 187.565655 155.501057 
L 189.884915 151.687613 
L 190.443681 150.840737 
L 186.2821 152.453983 
L 182.031271 153.814781 
L 177.706493 154.918234 
L 173.323329 155.760371 
L 168.897555 156.338159 
L 164.445098 156.649521 
L 159.981982 156.693336 
L 155.524271 156.469445 
L 151.088006 155.978655 
L 146.689154 155.222732 
L 142.343546 154.204396 
L 138.066821 152.927313 
L 133.874371 151.396079 
L 132.934803 151.013153 
L 135.328482 154.78033 
L 137.491958 158.684262 
L 139.417447 162.7109 
L 141.098016 166.845753 
L 142.52762 171.073938 
L 143.701112 175.38024 
L 144.614269 179.74916 
L 145.263805 184.164975 
L 145.647383 188.611792 
L 145.763621 193.073609 
L 145.612101 197.534367 
L 145.19337 201.978012 
L 144.508933 206.388552 
L 144.316546 207.384748 
L 147.544725 204.302512 
L 150.951918 201.419397 
L 154.525863 198.745779 
L 158.253698 196.29128 
L 162.122006 194.064733 
L 166.116866 192.074152 
L 170.223901 190.326702 
L 174.42833 188.82867 
L 178.71502 187.585448 
L 183.068546 186.60151 
L 187.473238 185.880397 
L 191.913245 185.424706 
L 196.372588 185.236074 
L 197.387176 185.230538 
L 193.734687 182.665263 
L 190.242594 179.885585 
L 186.923465 176.90151 
L 183.789247 173.723776 
L 180.851218 170.36382 
L 178.119952 166.833734 
L 175.605279 163.146223 
L 173.316249 159.314558 
L 171.2611 155.352528 
L 169.447229 151.274392 
L 167.881163 147.094828 
L 166.568538 142.828878 
L 165.514079 138.491893 
L 165.310833 137.497856 
L 163.506922 141.580407 
L 161.461451 145.547442 
L 159.181782 149.384684 
L 156.676119 153.078323 
L 153.953478 156.615066 
L 151.02366 159.982184 
L 147.897208 163.16756 
L 144.585375 166.159729 
L 141.100078 168.947922 
L 137.453862 171.522107 
L 133.659848 173.873017 
L 129.731692 175.992193 
L 125.683529 177.872007 
L 124.748196 178.265163 
L 129.104111 179.23847 
L 133.393824 180.471224 
L 137.601897 181.958988 
L 141.713185 183.696407 
L 145.712892 185.67723 
L 149.586625 187.894326 
L 153.32044 190.339718 
L 156.900901 193.004604 
L 160.315122 195.879393 
L 163.550816 198.953739 
L 166.596337 202.216579 
L 169.440724 205.656169 
L 172.073742 209.26013 
L 172.641716 210.100858 
L 172.747062 205.638771 
L 173.119783 201.19103 
L 173.758537 196.773643 
L 174.661027 192.402507 
L 175.824003 188.093353 
L 177.24328 183.861691 
L 178.913751 179.722748 
L 180.829404 175.691422 
L 182.983344 171.782219 
L 185.36782 168.009211 
L 187.974249 164.385974 
L 190.793252 160.925549 
L 193.814684 157.64039 
L 194.528538 156.919397 
L 190.131545 157.686056 
L 185.696491 158.187674 
L 181.23934 158.422446 
L 176.776131 158.389527 
L 172.322927 158.089035 
L 167.895755 157.522052 
L 163.510549 156.690619 
L 159.183089 155.597726 
L 154.928951 154.247309 
L 150.763445 152.644227 
L 146.701561 150.794248 
L 142.757919 148.704032 
L 138.94671 146.381101 
L 138.100372 145.82152 
L 139.70961 149.984652 
L 141.066314 154.23679 
L 142.165601 158.562629 
L 143.003516 162.946602 
L 143.577042 167.372931 
L 143.884116 171.825685 
L 143.923632 176.288841 
L 143.695448 180.746334 
L 143.200386 185.182124 
L 142.440227 189.580246 
L 141.417706 193.924872 
L 140.136505 198.200365 
L 138.601233 202.391339 
L 138.217403 203.330537 
L 141.986884 200.940487 
L 145.892898 198.780772 
L 149.921388 196.859162 
L 154.057857 195.182575 
L 158.287417 193.757045 
L 162.594847 192.5877 
L 166.964645 191.678751 
L 171.381083 191.033468 
L 175.828268 190.654174 
L 180.290195 190.542233 
L 184.750805 190.698048 
L 189.194044 191.121059 
L 193.603923 191.809744 
L 194.599934 192.00309 
L 191.520808 188.771944 
L 188.640975 185.361976 
L 185.9708 181.785457 
L 183.519893 178.05526 
L 181.297073 174.184809 
L 179.31034 170.188034 
L 177.566846 166.079318 
L 176.072864 161.873449 
L 174.83377 157.585563 
L 173.854026 153.231092 
L 173.137156 148.825707 
L 172.68574 144.385263 
L 172.501404 139.925741 
L 172.496845 138.911148 
L 169.928053 142.561165 
L 167.145014 146.050579 
L 164.157743 149.366832 
L 160.976992 152.497989 
L 157.614209 155.432781 
L 154.081494 158.160645 
L 150.391563 160.671766 
L 146.557694 162.957104 
L 142.593687 165.008436 
L 138.513806 166.81838 
L 134.332736 168.38042 
L 130.065523 169.688935 
L 125.727525 170.739217 
L 124.733293 170.941506 
L 128.814105 172.749348 
L 132.779168 174.798638 
L 136.614213 177.082002 
L 140.305437 179.591221 
L 143.839556 182.317266 
L 147.203851 185.250326 
L 150.386214 188.379844 
L 153.375192 191.694558 
L 156.160028 195.182538 
L 158.730699 198.831232 
L 161.077955 202.627508 
L 163.193346 206.557704 
L 165.069261 210.607674 
L 165.461516 211.543386 
L 166.439017 207.188411 
L 167.675902 202.899887 
L 169.167718 198.693249 
L 170.909096 194.583636 
L 172.89377 190.585838 
L 175.114596 186.714243 
L 177.563583 182.982784 
L 180.231915 179.404891 
L 183.109991 175.99344 
L 186.187453 172.760709 
L 189.453224 169.718332 
L 192.895551 166.877258 
L 196.502047 164.247712 
L 197.343322 163.680548 
L 192.881338 163.570905 
L 188.433958 163.193901 
L 184.017188 162.550892 
L 179.646923 161.644194 
L 175.338892 160.477068 
L 171.108598 159.053716 
L 166.971266 157.379259 
L 162.941786 155.459725 
L 159.03466 153.302021 
L 155.26395 150.913913 
L 151.643225 148.303995 
L 148.185517 145.481661 
L 144.903269 142.457067 
L 144.182964 141.742518 
L 144.945388 146.140248 
L 145.442735 150.575783 
L 145.673214 155.033158 
L 145.635996 159.496334 
L 145.331216 163.949246 
L 144.759969 168.375869 
L 143.924313 172.760273 
L 142.827254 177.086678 
L 141.47274 181.339514 
L 139.865646 185.503475 
L 138.011757 189.563575 
L 135.917744 193.505202 
L 133.591143 197.314171 
L 133.030747 198.15997 
L 137.195427 196.554743 
L 141.448869 195.202135 
L 145.775765 194.107014 
L 150.160543 193.273322 
L 154.587422 192.704059 
L 159.040471 192.401274 
L 163.503662 192.366056 
L 167.960934 192.598532 
L 172.396245 193.097866 
L 176.793633 193.862261 
L 181.137272 194.888965 
L 185.411529 196.174283 
L 189.601022 197.713591 
L 190.53985 198.098325 
L 188.153432 194.326545 
L 185.997479 190.418452 
L 184.07975 186.388113 
L 182.407148 182.250031 
L 180.985691 178.0191 
L 179.820496 173.710546 
L 178.915756 169.339875 
L 178.274726 164.922817 
L 177.899715 160.475269 
L 177.792071 156.013237 
L 177.952183 151.552779 
L 178.379473 147.109949 
L 179.072404 142.700735 
L 179.266709 141.704911 
L 176.032599 144.780924 
L 172.619859 147.657471 
L 169.040771 150.3242 
L 165.308215 152.771515 
L 161.435625 154.990606 
L 157.436938 156.973488 
L 153.326545 158.713025 
L 149.119239 160.202956 
L 144.830162 161.437919 
L 140.474749 162.413469 
L 136.068676 163.126096 
L 131.627799 163.573235 
L 127.168102 163.753276 
L 126.153505 163.756858 
L 129.801046 166.329164 
L 133.287779 169.115563 
L 136.601153 172.106026 
L 139.729245 175.289791 
L 142.660797 178.655399 
L 145.385258 182.190739 
L 147.892823 185.883087 
L 150.174469 189.719155 
L 152.221982 193.685136 
L 154.027995 197.766758 
L 155.586008 201.949331 
L 156.890413 206.217802 
L 157.936517 210.556809 
L 158.137848 211.551236 
L 159.949619 207.472167 
L 162.002727 203.509079 
L 164.289783 199.676235 
L 166.802557 195.987429 
L 169.532004 192.455937 
L 172.468302 189.094469 
L 175.600884 185.915121 
L 178.918475 182.929337 
L 182.409136 180.147861 
L 186.060304 177.580705 
L 189.858838 175.237107 
L 193.791069 173.125501 
L 197.842845 171.253488 
L 198.778933 170.862135 
L 194.424902 169.880439 
L 190.137571 168.639425 
L 185.932372 167.143558 
L 181.824438 165.398223 
L 177.828553 163.4097 
L 173.959098 161.185146 
L 170.23 158.732567 
L 166.654678 156.06079 
L 163.246001 153.17943 
L 160.016235 150.098857 
L 156.977005 146.830157 
L 154.139247 143.385095 
L 151.513176 139.776069 
L 150.946823 138.934248 
L 150.832882 143.396124 
L 150.451595 147.843138 
L 149.804333 152.259287 
L 148.893426 156.628677 
L 147.722152 160.935582 
L 146.294726 165.164504 
L 144.616286 169.300221 
L 142.692872 173.32785 
L 140.531406 177.232896 
L 138.139668 181.001305 
L 135.526264 184.619515 
L 132.700601 188.074503 
L 129.672848 191.353837 
L 128.957606 192.073453 
L 133.356068 191.315265 
L 137.792079 190.82219 
L 142.249675 190.596004 
L 146.712812 190.63752 
L 151.165429 190.946588 
L 155.5915 191.522098 
L 159.975097 192.361976 
L 164.300443 193.463202 
L 168.551972 194.821811 
L 172.714383 196.432914 
L 176.772696 198.290712 
L 180.712305 200.388521 
L 184.519032 202.718789 
L 185.364291 203.279999 
L 183.763075 199.113775 
L 182.414564 194.859032 
L 181.323611 190.531083 
L 180.494142 186.145505 
L 179.929143 181.718079 
L 179.630646 177.264741 
L 179.599727 172.801518 
L 179.836496 168.344472 
L 180.340101 163.909644 
L 181.108731 159.512994 
L 182.139617 155.170347 
L 183.429052 150.897329 
L 184.972393 146.709321 
L 185.358031 145.770863 
L 181.583954 148.153648 
L 177.673787 150.305836 
L 173.641603 152.219682 
L 169.501912 153.888298 
L 165.269614 155.30568 
L 160.95994 156.466725 
L 156.5884 157.367256 
L 152.170727 158.004031 
L 147.722819 158.374759 
L 143.260686 158.478105 
L 138.800384 158.313698 
L 134.357967 157.882129 
L 129.949423 157.184952 
L 128.953787 156.989688 
L 132.026683 160.226759 
L 134.899942 163.642268 
L 137.563224 167.223923 
L 140.006942 170.958833 
L 142.222303 174.833559 
L 144.201333 178.834153 
L 145.93691 182.94622 
L 147.422788 187.154959 
L 148.65362 191.445224 
L 149.624975 195.801574 
L 150.333359 200.208331 
L 150.77622 204.649637 
L 150.951967 209.109506 
L 150.954571 210.124105 
L 153.530389 206.479043 
L 156.320144 202.994996 
L 159.313797 199.684503 
L 162.500573 196.559478 
L 165.869003 193.631169 
L 169.406966 190.910114 
L 173.101727 188.406106 
L 176.93999 186.128156 
L 180.907941 184.084463 
L 184.991301 182.282382 
L 189.175372 180.728398 
L 193.445097 179.428104 
L 197.78511 178.38618 
L 198.779731 178.185806 
L 194.702408 176.370108 
L 190.741299 174.313184 
L 186.91066 172.022438 
L 183.224276 169.506113 
L 179.695414 166.773266 
L 176.336775 163.833731 
L 173.160446 160.698089 
L 170.177858 157.377624 
L 167.399746 153.884286 
L 164.836107 150.230648 
L 162.496168 146.429858 
L 160.38835 142.495595 
L 158.52024 138.442018 
L 158.129789 137.505553 
L 154.30171 132.948428 
L 150.294457 128.548029 
L 146.11444 124.311399 
L 141.768347 120.245313 
L 137.26313 116.356277 
L 132.605997 112.650512 
L 127.804398 109.133947 
L 122.866015 105.812208 
L 117.798747 102.690608 
L 113.266785 100.128 
L 108.093416 103.070419 
L 103.04185 106.217364 
L 98.120169 109.563801 
L 93.336247 113.104376 
L 88.697737 116.833424 
L 87.36 117.967122 
L 91.954245 121.750573 
L 96.696112 125.347276 
L 101.578016 128.751478 
L 106.592147 131.957734 
L 111.730483 134.960912 
L 116.984804 137.75621 
L 122.346705 140.339155 
L 127.807606 142.705615 
L 133.358773 144.851805 
L 137.53142 146.300072 
L 136.424674 140.452278 
L 135.084964 134.65342 
L 133.514433 128.912774 
L 131.715594 123.239525 
L 129.691324 117.642748 
L 127.444862 112.131397 
L 124.979802 106.714289 
L 122.300087 101.40009 
L 121.618468 100.128 
L 118.887338 105.415959 
L 116.369854 110.808904 
L 114.070044 116.298208 
L 111.991587 121.875088 
L 110.137809 127.530624 
L 108.511675 133.255768 
L 107.115786 139.04136 
L 105.952375 144.878145 
L 105.023305 150.756785 
L 104.33006 156.667875 
L 103.873751 162.60196 
L 103.655106 168.549546 
L 103.674477 174.501117 
L 103.931831 180.447154 
L 104.426758 186.378143 
L 105.158465 192.284596 
L 106.125781 198.157063 
L 107.327161 203.986152 
L 108.76068 209.762535 
L 110.424047 215.476972 
L 112.314599 221.120321 
L 114.429313 226.683555 
L 116.764806 232.157772 
L 119.317341 237.534216 
L 122.082834 242.804285 
L 125.056862 247.959548 
L 125.646721 248.928 
L 128.659949 243.79555 
L 131.465522 238.546709 
L 134.058955 233.189873 
L 136.436096 227.733612 
L 138.593143 222.186656 
L 140.526647 216.557877 
L 142.233512 210.856282 
L 143.293451 206.820826 
L 139.124395 211.068242 
L 135.128524 215.478979 
L 131.312232 220.04598 
L 127.681624 224.761938 
L 124.242508 229.61931 
L 121.000386 234.610325 
L 117.960445 239.726998 
L 115.127548 244.961143 
L 113.156227 248.928 
L 110.480385 243.61185 
L 107.594094 238.406958 
L 104.501971 233.321649 
L 101.208964 228.364061 
L 97.720341 223.542123 
L 94.041681 218.86355 
L 90.178871 214.335826 
L 87.36 211.250878 
L 91.34843 206.833411 
L 95.157017 202.259984 
L 98.77967 197.537912 
L 102.210593 192.674749 
L 105.444297 187.678276 
L 108.475608 182.556486 
L 111.299678 177.317573 
L 113.911988 171.969918 
L 116.308359 166.522076 
L 118.484958 160.982762 
L 120.438303 155.360838 
L 122.165268 149.665298 
L 123.663091 143.905254 
L 124.929375 138.089921 
L 125.962095 132.228601 
L 126.759599 126.330672 
L 127.320611 120.405569 
L 127.644233 114.462771 
L 127.729947 108.511785 
L 127.577617 102.562131 
L 127.446562 100.128 
L 127.196788 106.07436 
L 127.185005 112.025951 
L 127.411231 117.973253 
L 127.875105 123.906752 
L 128.575884 129.816954 
L 129.512448 135.694405 
L 130.683299 141.529702 
L 132.086562 147.313509 
L 133.067179 150.851809 
L 127.130864 150.425497 
L 121.182249 150.236916 
L 115.230851 150.286367 
L 109.286192 150.57377 
L 103.35778 151.098667 
L 97.455101 151.860217 
L 91.587597 152.857202 
L 87.36 153.726563 
L 93.19612 154.893302 
L 99.074229 155.825726 
L 104.984924 156.522342 
L 110.918747 156.982036 
L 116.866207 157.204072 
L 122.817789 157.188097 
L 128.991304 156.91969 
L 133.321961 157.999842 
L 137.580055 159.337734 
L 141.750261 160.928551 
L 145.817572 162.766568 
L 149.767348 164.845169 
L 153.585376 167.156875 
L 157.257914 169.693365 
L 160.771746 172.445511 
L 164.114225 175.403407 
L 167.273322 178.55641 
L 170.237667 181.893171 
L 172.996593 185.401681 
L 175.54017 189.069315 
L 177.859244 192.882872 
L 179.945468 196.828627 
L 181.791336 200.892381 
L 183.315338 204.846434 
L 179.913416 201.9571 
L 176.690872 198.868973 
L 173.659304 195.593166 
L 170.829621 192.141469 
L 168.212008 188.526304 
L 165.815884 184.760681 
L 163.649875 180.858154 
L 161.721774 176.832766 
L 160.038521 172.699006 
L 158.606173 168.471749 
L 157.429887 164.166209 
L 156.513894 159.797883 
L 155.861493 155.38249 
L 155.475029 150.935923 
L 155.355896 146.474183 
L 155.50452 142.013327 
L 155.892931 137.793582 
L 157.659875 141.892268 
L 159.177865 146.089532 
L 160.441439 150.370267 
L 161.446049 154.719069 
L 162.18808 159.120286 
L 162.664861 163.558078 
L 162.874677 168.016474 
L 162.816771 172.479429 
L 162.491353 176.930881 
L 161.899594 181.354809 
L 161.043623 185.735292 
L 159.926521 190.056565 
L 158.552308 194.303076 
L 156.925931 198.459543 
L 155.053242 202.511006 
L 152.94098 206.442885 
L 150.720791 210.0523 
L 150.955644 205.595152 
L 151.457344 201.160108 
L 152.224084 196.763129 
L 153.253104 192.420038 
L 154.540702 188.146467 
L 156.082243 183.957795 
L 157.87218 179.869098 
L 159.904071 175.89509 
L 162.170603 172.050074 
L 164.663619 168.347887 
L 167.374147 164.801853 
L 170.292431 161.424734 
L 173.40797 158.228684 
L 176.709551 155.225205 
L 180.185291 152.425107 
L 183.822682 149.838467 
L 187.413736 147.588701 
L 185.225841 151.479001 
L 182.808605 155.231106 
L 180.170728 158.831511 
L 177.321702 162.267261 
L 174.271782 165.525988 
L 171.031944 168.595967 
L 167.613847 171.466147 
L 164.029794 174.1262 
L 160.292683 176.566551 
L 156.415963 178.77842 
L 152.413587 180.753845 
L 148.299958 182.485716 
L 144.089882 183.967801 
L 139.79851 185.194767 
L 135.441286 186.162196 
L 131.033892 186.866608 
L 126.817479 187.289671 
L 130.504206 184.773849 
L 134.335158 182.483625 
L 138.296548 180.427241 
L 142.374117 178.612098 
L 146.553193 177.044729 
L 150.818734 175.730775 
L 155.15539 174.674964 
L 159.547552 173.881096 
L 163.979415 173.352028 
L 168.435028 173.089665 
L 172.898355 173.09495 
L 177.353334 173.367865 
L 181.783931 173.907427 
L 186.174201 174.711694 
L 190.508344 175.777772 
L 194.770762 177.101824 
L 198.737201 178.593293 
L 194.31701 179.21235 
L 189.867652 179.565241 
L 185.40514 179.650695 
L 180.945534 179.468406 
L 176.504883 179.019029 
L 172.099169 178.304181 
L 167.744249 177.326435 
L 163.455795 176.08931 
L 159.24924 174.597259 
L 155.139725 172.85565 
L 151.142038 170.870753 
L 147.270567 168.649709 
L 143.539245 166.200514 
L 139.961502 163.531981 
L 136.550212 160.653714 
L 133.317653 157.576072 
L 130.424624 154.479702 
L 134.660643 155.885927 
L 138.804715 157.54363 
L 142.841929 159.446846 
L 146.757753 161.588724 
L 150.538095 163.961556 
L 154.169349 166.556803 
L 157.638449 169.365124 
L 160.932907 172.376413 
L 164.040868 175.579832 
L 166.951147 178.963853 
L 169.65327 182.516296 
L 172.137511 186.224377 
L 174.394931 190.074751 
L 176.417404 194.053559 
L 178.197653 198.146484 
L 179.729271 202.338794 
L 180.948293 206.397255 
L 177.77585 203.257682 
L 174.797376 199.933526 
L 172.023591 196.43675 
L 169.464479 192.77994 
L 167.129249 188.976255 
L 165.026305 185.039385 
L 163.163215 180.983498 
L 161.546686 176.823192 
L 160.182534 172.573438 
L 159.075669 168.249531 
L 158.230074 163.867033 
L 157.648793 159.441716 
L 157.333918 154.989507 
L 157.286582 150.526427 
L 157.506956 146.06854 
L 157.994245 141.63189 
L 158.702299 137.453879 
L 160.152566 141.675021 
L 161.347106 145.975532 
L 162.281621 150.339934 
L 162.952747 154.752519 
L 163.35807 159.197407 
L 163.496129 163.658602 
L 163.36643 168.120047 
L 162.969437 172.565687 
L 162.30658 176.979522 
L 161.380245 181.345667 
L 160.193766 185.648409 
L 158.751411 189.872262 
L 157.058373 194.002025 
L 155.120745 198.022835 
L 152.945499 201.920222 
L 150.540465 205.680159 
L 148.052327 209.110361 
L 148.625314 204.683963 
L 149.462695 200.299888 
L 150.561456 195.973915 
L 151.917642 191.721612 
L 153.526373 187.558284 
L 155.381859 183.498913 
L 157.477422 179.558109 
L 159.805521 175.750055 
L 162.357776 172.088456 
L 165.125003 168.586489 
L 168.097243 165.256757 
L 171.263798 162.111245 
L 174.613272 159.161272 
L 178.133612 156.417456 
L 181.812147 153.88967 
L 185.635638 151.587013 
L 189.38732 149.616733 
L 186.910031 153.329463 
L 184.21457 156.886963 
L 181.310638 160.276432 
L 178.208685 163.485669 
L 174.919875 166.503126 
L 171.456044 169.317943 
L 167.829659 171.91999 
L 164.05377 174.299902 
L 160.141966 176.449114 
L 156.108327 178.359891 
L 151.967367 180.025357 
L 147.733992 181.439517 
L 143.423435 182.597282 
L 139.051211 183.494486 
L 134.633055 184.127899 
L 130.184866 184.495242 
L 125.948494 184.596567 
L 129.815796 182.368273 
L 133.809756 180.375888 
L 137.916001 178.626582 
L 142.119752 177.12665 
L 146.405881 175.881492 
L 150.758962 174.895587 
L 155.163328 174.172485 
L 159.603129 173.714787 
L 164.062386 173.524141 
L 168.52505 173.601234 
L 172.975062 173.945786 
L 177.396405 174.556559 
L 181.773167 175.431355 
L 186.089598 176.567025 
L 190.330162 177.959481 
L 194.479598 179.603713 
L 198.321186 181.392378 
L 193.866726 181.67364 
L 189.403417 181.687289 
L 184.94732 181.433275 
L 180.514474 180.912513 
L 176.120832 180.126877 
L 171.782205 179.079194 
L 167.514209 177.773235 
L 163.332204 176.2137 
L 159.25124 174.406201 
L 155.286004 172.357244 
L 151.450768 170.074203 
L 147.759333 167.565293 
L 144.224984 164.839545 
L 140.860443 161.906769 
L 137.677817 158.777518 
L 134.68856 155.463055 
L 132.039275 152.155729 
L 136.156141 153.879889 
L 140.162212 155.847811 
L 144.04307 158.052411 
L 147.784748 160.485756 
L 151.373779 163.139088 
L 154.797248 166.002858 
L 158.042833 169.06676 
L 161.098855 172.319766 
L 163.954313 175.750171 
L 166.598933 179.345627 
L 169.023195 183.093196 
L 171.218377 186.979389 
L 173.176576 190.990221 
L 174.890746 195.111257 
L 176.354717 199.327666 
L 177.563222 203.624274 
L 178.470211 207.763656 
L 175.545603 204.392012 
L 172.828435 200.851063 
L 170.328486 197.153554 
L 168.054753 193.312791 
L 166.015419 189.342598 
L 164.217824 185.257262 
L 162.668436 181.071487 
L 161.372832 176.800336 
L 160.335675 172.459181 
L 159.560698 168.063646 
L 159.050688 163.62955 
L 158.807483 159.172851 
L 158.831957 154.709587 
L 159.124022 150.255823 
L 159.682627 145.827586 
L 160.505761 141.440814 
L 161.529361 137.328715 
L 162.654558 141.647887 
L 163.518736 146.026759 
L 164.118784 150.44957 
L 164.452543 154.900404 
L 164.518811 159.363243 
L 164.317351 163.822024 
L 163.848886 168.260702 
L 163.115104 172.663301 
L 162.118645 177.013978 
L 160.863094 181.297074 
L 159.352972 185.497175 
L 157.593712 189.599165 
L 155.591646 193.588281 
L 153.353979 197.450168 
L 150.888764 201.170925 
L 148.204874 204.737163 
L 145.463186 207.968303 
L 146.370992 203.598268 
L 147.539208 199.290532 
L 148.963631 195.060598 
L 150.639135 190.923691 
L 152.55969 186.894697 
L 154.718383 182.988118 
L 157.107446 179.218012 
L 159.71828 175.597948 
L 162.54149 172.140955 
L 165.566915 168.859473 
L 168.783666 165.765312 
L 172.180168 162.869609 
L 175.744195 160.182784 
L 179.462922 157.714508 
L 183.322965 155.473663 
L 187.310432 153.468314 
L 191.201031 151.788921 
L 188.448684 155.302595 
L 185.490596 158.644905 
L 182.337413 161.803822 
L 179.000483 164.767977 
L 175.491815 167.526702 
L 171.824036 170.07007 
L 168.010347 172.388925 
L 164.064472 174.474925 
L 160.000613 176.32056 
L 155.833395 177.919188 
L 151.577816 179.265057 
L 147.249191 180.353322 
L 142.863098 181.180068 
L 138.435322 181.742318 
L 133.9818 182.038049 
L 129.518558 182.066197 
L 125.286741 181.845198 
L 129.312239 179.917327 
L 133.446096 178.234311 
L 137.673434 176.802205 
L 141.979041 175.626164 
L 146.34742 174.710422 
L 150.76285 174.058272 
L 155.209439 173.672063 
L 159.671186 173.553184 
L 164.132033 173.702063 
L 168.575925 174.118165 
L 172.98687 174.799992 
L 177.348992 175.745089 
L 181.646593 176.950056 
L 185.864205 178.410556 
L 189.986651 180.121333 
L 193.999094 182.07623 
L 197.6936 184.151741 
L 201.844498 188.416905 
L 206.162636 192.512667 
L 210.641107 196.432472 
L 215.272746 200.170052 
L 220.050144 203.719425 
L 224.965658 207.074914 
L 230.011423 210.231152 
L 235.179368 213.183087 
L 236.16 213.712751 
L 230.97009 216.625895 
L 225.900825 219.744251 
L 220.960317 223.062828 
L 216.156468 226.576319 
L 211.496964 230.279102 
L 206.989259 234.165254 
L 202.640564 238.228557 
L 198.457836 242.462511 
L 194.447768 246.860344 
L 192.670022 248.928 
L 188.741215 244.457423 
L 184.636776 240.147532 
L 180.36327 236.005223 
L 175.927534 232.037121 
L 171.336665 228.249576 
L 166.598006 224.648646 
L 161.719139 221.240093 
L 156.707869 218.029368 
L 151.572212 215.021609 
L 146.320386 212.221628 
L 140.96079 209.633903 
L 135.502001 207.262575 
L 129.95275 205.111437 
L 124.321915 203.18393 
L 118.618505 201.483139 
L 112.851643 200.011784 
L 107.030556 198.772218 
L 101.164555 197.766426 
L 95.263026 196.996015 
L 89.335409 196.462219 
L 87.36 196.337288 
L 93.294193 195.882387 
L 99.205448 195.190546 
L 105.084308 194.262871 
L 110.921369 193.100846 
L 116.707293 191.706331 
L 122.432822 190.081556 
L 127.286506 188.507205 
L 131.511857 187.069246 
L 135.81583 185.887244 
L 140.182937 184.965452 
L 144.597459 184.307188 
L 149.04351 183.914821 
L 153.505088 183.789763 
L 157.966136 183.932464 
L 162.410601 184.342411 
L 166.822485 185.018128 
L 171.185912 185.957184 
L 175.485178 187.156198 
L 179.704809 188.610855 
L 183.82962 190.315921 
L 187.844767 192.265259 
L 191.735798 194.451854 
L 192.765254 195.083151 
L 191.556519 194.215377 
L 188.03779 191.469496 
L 184.690047 188.517559 
L 181.525338 185.370189 
L 178.555053 182.038714 
L 175.789881 178.535124 
L 173.239774 174.872028 
L 170.91391 171.062609 
L 168.82066 167.120576 
L 166.967556 163.060117 
L 165.361268 158.895846 
L 164.007577 154.642748 
L 162.911355 150.316131 
L 162.076546 145.931566 
L 161.506156 141.504832 
L 161.213458 137.332015 
L 161.179938 138.819613 
L 160.901034 143.274221 
L 160.355516 147.704088 
L 159.545346 152.093273 
L 158.473442 156.425979 
L 157.14366 160.686612 
L 155.560786 164.85984 
L 153.730517 168.930643 
L 151.659439 172.88437 
L 149.355008 176.706792 
L 146.825515 180.384153 
L 144.080065 183.903219 
L 141.128537 187.251323 
L 137.981555 190.416418 
L 134.650445 193.387111 
L 131.372059 195.985237 
L 132.618653 195.172788 
L 136.452401 192.887247 
L 140.4163 190.835706 
L 144.496085 189.025547 
L 148.677072 187.463287 
L 152.944216 186.154546 
L 157.282159 185.104035 
L 161.675288 184.315535 
L 166.107794 183.791883 
L 170.563724 183.534965 
L 175.027041 183.545704 
L 179.481683 183.824062 
L 183.911618 184.369038 
L 188.300902 185.17867 
L 192.633739 186.250044 
L 206.675811 190.230033 
L 212.494899 191.478947 
L 218.359277 192.494161 
L 224.259561 193.27405 
L 230.186313 193.817366 
L 236.16 194.12418 
L 234.672982 194.178056 
L 228.732526 194.542156 
L 222.811383 195.14352 
L 216.919023 195.981185 
L 211.064875 197.053812 
L 205.258303 198.359684 
L 199.508597 199.896713 
L 193.824954 201.662439 
L 188.216468 203.654038 
L 182.692111 205.868323 
L 178.968611 207.508353 
L 173.904971 210.635834 
L 168.970448 213.963304 
L 164.172934 217.485441 
L 159.520107 221.19661 
L 155.019408 225.090873 
L 150.678038 229.162002 
L 146.502943 233.403483 
L 142.500801 237.80853 
L 138.678015 242.370097 
L 135.040702 247.080886 
L 133.694423 248.928 
L 130.129898 244.161897 
L 126.37763 239.54215 
L 122.443623 235.076148 
L 118.33417 230.771037 
L 114.055846 226.633704 
L 109.615495 222.670768 
L 105.020221 218.888568 
L 100.277375 215.293156 
L 95.394544 211.890283 
L 90.37954 208.685393 
L 87.36 206.888341 
L 92.449282 203.802763 
L 97.411102 200.516136 
L 102.237524 197.033718 
L 106.920826 193.361081 
L 111.453515 189.504099 
L 115.82834 185.468943 
L 120.038302 181.262068 
L 124.076667 176.890204 
L 124.601989 176.294981 
L 120.188231 172.302448 
L 115.618345 168.489612 
L 110.899642 164.862572 
L 106.03967 161.427131 
L 101.046204 158.188785 
L 95.927234 155.152715 
L 90.690948 152.323777 
L 87.36 150.661736 
L 92.665415 147.964672 
L 97.858732 145.057605 
L 102.931643 141.945186 
L 107.876033 138.632394 
L 112.683991 135.124529 
L 117.347827 131.427203 
L 121.860078 127.546331 
L 126.213527 123.488121 
L 130.401208 119.259066 
L 134.416422 114.865931 
L 138.252746 110.315744 
L 141.904043 105.615785 
L 145.36447 100.773573 
L 145.804103 100.128 
L 149.239066 104.98831 
L 152.865643 109.707369 
L 156.67803 114.27763 
L 160.670129 118.69178 
L 164.835555 122.942758 
L 169.167642 127.023763 
L 173.65946 130.928267 
L 178.303824 134.650022 
L 183.093304 138.183076 
L 188.020237 141.521775 
L 193.076741 144.660779 
L 198.254727 147.595065 
L 203.545912 150.319941 
L 208.94183 152.831046 
L 214.43385 155.124363 
L 220.013184 157.196223 
L 225.670908 159.043312 
L 231.397971 160.662675 
L 236.16 161.823442 
L 236.16 161.823442 
" style="fill:none;stroke:#1f77b4;stroke-linecap:square;stroke-width:1.5;"/>
   </g>
   <g id="patch_5">
    <path d="M 57.6 263.808 
L 57.6 85.248 
" style="fill:none;stroke:#000000;stroke-linecap:square;stroke-linejoin:miter;stroke-width:0.8;"/>
   </g>
   <g id="patch_6">
    <path d="M 414.72 263.808 
L 414.72 85.248 
" style="fill:none;stroke:#000000;stroke-linecap:square;stroke-linejoin:miter;stroke-width:0.8;"/>
   </g>
   <g id="patch_7">
    <path d="M 57.6 263.808 
L 414.72 263.808 
" style="fill:none;stroke:#000000;stroke-linecap:square;stroke-linejoin:miter;stroke-width:0.8;"/>
   </g>
   <g id="patch_8">
    <path d="M 57.6 85.248 
L 414.72 85.248 
" style="fill:none;stroke:#000000;stroke-linecap:square;stroke-linejoin:miter;stroke-width:0.8;"/>
   </g>
  </g>
 </g>
 <defs>
  <clipPath id="p523c8f1ae1">
   <rect height="178.56" width="357.12" x="57.6" y="85.248"/>
  </clipPath>
 </defs>
</svg>
