<?xml version="1.0" encoding="utf-8" standalone="no"?>
<!DOCTYPE svg PUBLIC "-//W3C//DTD SVG 1.1//EN"
  "http://www.w3.org/Graphics/SVG/1.1/DTD/svg11.dtd">
<!-- Created with matplotlib (https://matplotlib.org/) -->
<svg height="345.6pt" version="1.1" viewBox="0 0 460.8 345.6" width="460.8pt" xmlns="http://www.w3.org/2000/svg" xmlns:xlink="http://www.w3.org/1999/xlink">
 <defs>
  <style type="text/css">
*{stroke-linecap:butt;stroke-linejoin:round;}
  </style>
 </defs>
 <g id="figure_1">
  <g id="patch_1">
   <path d="M 0 345.6 
L 460.8 345.6 
L 460.8 0 
L 0 0 
z
" style="fill:#ffffff;"/>
  </g>
  <g id="axes_1">
   <g id="patch_2">
    <path d="M 57.6 263.808 
L 414.72 263.808 
L 414.72 85.248 
L 57.6 85.248 
z
" style="fill:#ffffff;"/>
   </g>
   <g id="PathCollection_1">
    <defs>
     <path d="M 0 3 
C 0.795609 3 1.55874 2.683901 2.12132 2.12132 
C 2.683901 1.55874 3 0.795609 3 0 
C 3 -0.795609 2.683901 -1.55874 2.12132 -2.12132 
C 1.55874 -2.683901 0.795609 -3 0 -3 
C -0.795609 -3 -1.55874 -2.683901 -2.12132 -2.12132 
C -2.683901 -1.55874 -3 -0.795609 -3 0 
C -3 0.795609 -2.683901 1.55874 -2.12132 2.12132 
C -1.55874 2.683901 -0.795609 3 0 3 
z
" id="md10bb772ea" style="stroke:#000000;"/>
    </defs>
    <g clip-path="url(#pd3bee93ee6)">
     <use style="stroke:#000000;" x="234.039817" xlink:href="#md10bb772ea" y="187.676846"/>
    </g>
   </g>
   <g id="patch_3">
    <path clip-path="url(#pd3bee93ee6)" d="M 161.76 211.728 
C 171.625555 211.728 181.088371 207.808373 188.064372 200.832372 
C 195.040373 193.856371 198.96 184.393555 198.96 174.528 
C 198.96 164.662445 195.040373 155.199629 188.064372 148.223628 
C 181.088371 141.247627 171.625555 137.328 161.76 137.328 
C 151.894445 137.328 142.431629 141.247627 135.455628 148.223628 
C 128.479627 155.199629 124.56 164.662445 124.56 174.528 
C 124.56 184.393555 128.479627 193.856371 135.455628 200.832372 
C 142.431629 207.808373 151.894445 211.728 161.76 211.728 
z
" style="fill:#cc0000;fill-opacity:0.1;stroke:#cc0000;stroke-dasharray:7.4,3.2;stroke-dashoffset:0;stroke-linejoin:miter;stroke-width:2;"/>
   </g>
   <g id="patch_4">
    <path clip-path="url(#pd3bee93ee6)" d="M 310.56 196.848 
C 316.479333 196.848 322.157023 194.496224 326.342623 190.310623 
C 330.528224 186.125023 332.88 180.447333 332.88 174.528 
C 332.88 168.608667 330.528224 162.930977 326.342623 158.745377 
C 322.157023 154.559776 316.479333 152.208 310.56 152.208 
C 304.640667 152.208 298.962977 154.559776 294.777377 158.745377 
C 290.591776 162.930977 288.24 168.608667 288.24 174.528 
C 288.24 180.447333 290.591776 186.125023 294.777377 190.310623 
C 298.962977 194.496224 304.640667 196.848 310.56 196.848 
z
" style="fill:#cc0000;fill-opacity:0.1;stroke:#cc0000;stroke-dasharray:7.4,3.2;stroke-dashoffset:0;stroke-linejoin:miter;stroke-width:2;"/>
   </g>
   <g id="matplotlib.axis_1">
    <g id="xtick_1">
     <g id="line2d_1">
      <defs>
       <path d="M 0 0 
L 0 3.5 
" id="ma698ab65da" style="stroke:#000000;stroke-width:0.8;"/>
      </defs>
      <g>
       <use style="stroke:#000000;stroke-width:0.8;" x="87.36" xlink:href="#ma698ab65da" y="263.808"/>
      </g>
     </g>
     <g id="text_1">
      <!-- 0.0 -->
      <defs>
       <path d="M 31.78125 66.40625 
Q 24.171875 66.40625 20.328125 58.90625 
Q 16.5 51.421875 16.5 36.375 
Q 16.5 21.390625 20.328125 13.890625 
Q 24.171875 6.390625 31.78125 6.390625 
Q 39.453125 6.390625 43.28125 13.890625 
Q 47.125 21.390625 47.125 36.375 
Q 47.125 51.421875 43.28125 58.90625 
Q 39.453125 66.40625 31.78125 66.40625 
z
M 31.78125 74.21875 
Q 44.046875 74.21875 50.515625 64.515625 
Q 56.984375 54.828125 56.984375 36.375 
Q 56.984375 17.96875 50.515625 8.265625 
Q 44.046875 -1.421875 31.78125 -1.421875 
Q 19.53125 -1.421875 13.0625 8.265625 
Q 6.59375 17.96875 6.59375 36.375 
Q 6.59375 54.828125 13.0625 64.515625 
Q 19.53125 74.21875 31.78125 74.21875 
z
" id="DejaVuSans-48"/>
       <path d="M 10.6875 12.40625 
L 21 12.40625 
L 21 0 
L 10.6875 0 
z
" id="DejaVuSans-46"/>
      </defs>
      <g transform="translate(79.408438 278.406437)scale(0.1 -0.1)">
       <use xlink:href="#DejaVuSans-48"/>
       <use x="63.623047" xlink:href="#DejaVuSans-46"/>
       <use x="95.410156" xlink:href="#DejaVuSans-48"/>
      </g>
     </g>
    </g>
    <g id="xtick_2">
     <g id="line2d_2">
      <g>
       <use style="stroke:#000000;stroke-width:0.8;" x="161.76" xlink:href="#ma698ab65da" y="263.808"/>
      </g>
     </g>
     <g id="text_2">
      <!-- 0.5 -->
      <defs>
       <path d="M 10.796875 72.90625 
L 49.515625 72.90625 
L 49.515625 64.59375 
L 19.828125 64.59375 
L 19.828125 46.734375 
Q 21.96875 47.46875 24.109375 47.828125 
Q 26.265625 48.1875 28.421875 48.1875 
Q 40.625 48.1875 47.75 41.5 
Q 54.890625 34.8125 54.890625 23.390625 
Q 54.890625 11.625 47.5625 5.09375 
Q 40.234375 -1.421875 26.90625 -1.421875 
Q 22.3125 -1.421875 17.546875 -0.640625 
Q 12.796875 0.140625 7.71875 1.703125 
L 7.71875 11.625 
Q 12.109375 9.234375 16.796875 8.0625 
Q 21.484375 6.890625 26.703125 6.890625 
Q 35.15625 6.890625 40.078125 11.328125 
Q 45.015625 15.765625 45.015625 23.390625 
Q 45.015625 31 40.078125 35.4375 
Q 35.15625 39.890625 26.703125 39.890625 
Q 22.75 39.890625 18.8125 39.015625 
Q 14.890625 38.140625 10.796875 36.28125 
z
" id="DejaVuSans-53"/>
      </defs>
      <g transform="translate(153.808437 278.406437)scale(0.1 -0.1)">
       <use xlink:href="#DejaVuSans-48"/>
       <use x="63.623047" xlink:href="#DejaVuSans-46"/>
       <use x="95.410156" xlink:href="#DejaVuSans-53"/>
      </g>
     </g>
    </g>
    <g id="xtick_3">
     <g id="line2d_3">
      <g>
       <use style="stroke:#000000;stroke-width:0.8;" x="236.16" xlink:href="#ma698ab65da" y="263.808"/>
      </g>
     </g>
     <g id="text_3">
      <!-- 1.0 -->
      <defs>
       <path d="M 12.40625 8.296875 
L 28.515625 8.296875 
L 28.515625 63.921875 
L 10.984375 60.40625 
L 10.984375 69.390625 
L 28.421875 72.90625 
L 38.28125 72.90625 
L 38.28125 8.296875 
L 54.390625 8.296875 
L 54.390625 0 
L 12.40625 0 
z
" id="DejaVuSans-49"/>
      </defs>
      <g transform="translate(228.208437 278.406437)scale(0.1 -0.1)">
       <use xlink:href="#DejaVuSans-49"/>
       <use x="63.623047" xlink:href="#DejaVuSans-46"/>
       <use x="95.410156" xlink:href="#DejaVuSans-48"/>
      </g>
     </g>
    </g>
    <g id="xtick_4">
     <g id="line2d_4">
      <g>
       <use style="stroke:#000000;stroke-width:0.8;" x="310.56" xlink:href="#ma698ab65da" y="263.808"/>
      </g>
     </g>
     <g id="text_4">
      <!-- 1.5 -->
      <g transform="translate(302.608437 278.406437)scale(0.1 -0.1)">
       <use xlink:href="#DejaVuSans-49"/>
       <use x="63.623047" xlink:href="#DejaVuSans-46"/>
       <use x="95.410156" xlink:href="#DejaVuSans-53"/>
      </g>
     </g>
    </g>
    <g id="xtick_5">
     <g id="line2d_5">
      <g>
       <use style="stroke:#000000;stroke-width:0.8;" x="384.96" xlink:href="#ma698ab65da" y="263.808"/>
      </g>
     </g>
     <g id="text_5">
      <!-- 2.0 -->
      <defs>
       <path d="M 19.1875 8.296875 
L 53.609375 8.296875 
L 53.609375 0 
L 7.328125 0 
L 7.328125 8.296875 
Q 12.9375 14.109375 22.625 23.890625 
Q 32.328125 33.6875 34.8125 36.53125 
Q 39.546875 41.84375 41.421875 45.53125 
Q 43.3125 49.21875 43.3125 52.78125 
Q 43.3125 58.59375 39.234375 62.25 
Q 35.15625 65.921875 28.609375 65.921875 
Q 23.96875 65.921875 18.8125 64.3125 
Q 13.671875 62.703125 7.8125 59.421875 
L 7.8125 69.390625 
Q 13.765625 71.78125 18.9375 73 
Q 24.125 74.21875 28.421875 74.21875 
Q 39.75 74.21875 46.484375 68.546875 
Q 53.21875 62.890625 53.21875 53.421875 
Q 53.21875 48.921875 51.53125 44.890625 
Q 49.859375 40.875 45.40625 35.40625 
Q 44.1875 33.984375 37.640625 27.21875 
Q 31.109375 20.453125 19.1875 8.296875 
z
" id="DejaVuSans-50"/>
      </defs>
      <g transform="translate(377.008437 278.406437)scale(0.1 -0.1)">
       <use xlink:href="#DejaVuSans-50"/>
       <use x="63.623047" xlink:href="#DejaVuSans-46"/>
       <use x="95.410156" xlink:href="#DejaVuSans-48"/>
      </g>
     </g>
    </g>
   </g>
   <g id="matplotlib.axis_2">
    <g id="ytick_1">
     <g id="line2d_6">
      <defs>
       <path d="M 0 0 
L -3.5 0 
" id="m6653343684" style="stroke:#000000;stroke-width:0.8;"/>
      </defs>
      <g>
       <use style="stroke:#000000;stroke-width:0.8;" x="57.6" xlink:href="#m6653343684" y="248.928"/>
      </g>
     </g>
     <g id="text_6">
      <!-- 0.0 -->
      <g transform="translate(34.696875 252.727219)scale(0.1 -0.1)">
       <use xlink:href="#DejaVuSans-48"/>
       <use x="63.623047" xlink:href="#DejaVuSans-46"/>
       <use x="95.410156" xlink:href="#DejaVuSans-48"/>
      </g>
     </g>
    </g>
    <g id="ytick_2">
     <g id="line2d_7">
      <g>
       <use style="stroke:#000000;stroke-width:0.8;" x="57.6" xlink:href="#m6653343684" y="219.168"/>
      </g>
     </g>
     <g id="text_7">
      <!-- 0.2 -->
      <g transform="translate(34.696875 222.967219)scale(0.1 -0.1)">
       <use xlink:href="#DejaVuSans-48"/>
       <use x="63.623047" xlink:href="#DejaVuSans-46"/>
       <use x="95.410156" xlink:href="#DejaVuSans-50"/>
      </g>
     </g>
    </g>
    <g id="ytick_3">
     <g id="line2d_8">
      <g>
       <use style="stroke:#000000;stroke-width:0.8;" x="57.6" xlink:href="#m6653343684" y="189.408"/>
      </g>
     </g>
     <g id="text_8">
      <!-- 0.4 -->
      <defs>
       <path d="M 37.796875 64.3125 
L 12.890625 25.390625 
L 37.796875 25.390625 
z
M 35.203125 72.90625 
L 47.609375 72.90625 
L 47.609375 25.390625 
L 58.015625 25.390625 
L 58.015625 17.1875 
L 47.609375 17.1875 
L 47.609375 0 
L 37.796875 0 
L 37.796875 17.1875 
L 4.890625 17.1875 
L 4.890625 26.703125 
z
" id="DejaVuSans-52"/>
      </defs>
      <g transform="translate(34.696875 193.207219)scale(0.1 -0.1)">
       <use xlink:href="#DejaVuSans-48"/>
       <use x="63.623047" xlink:href="#DejaVuSans-46"/>
       <use x="95.410156" xlink:href="#DejaVuSans-52"/>
      </g>
     </g>
    </g>
    <g id="ytick_4">
     <g id="line2d_9">
      <g>
       <use style="stroke:#000000;stroke-width:0.8;" x="57.6" xlink:href="#m6653343684" y="159.648"/>
      </g>
     </g>
     <g id="text_9">
      <!-- 0.6 -->
      <defs>
       <path d="M 33.015625 40.375 
Q 26.375 40.375 22.484375 35.828125 
Q 18.609375 31.296875 18.609375 23.390625 
Q 18.609375 15.53125 22.484375 10.953125 
Q 26.375 6.390625 33.015625 6.390625 
Q 39.65625 6.390625 43.53125 10.953125 
Q 47.40625 15.53125 47.40625 23.390625 
Q 47.40625 31.296875 43.53125 35.828125 
Q 39.65625 40.375 33.015625 40.375 
z
M 52.59375 71.296875 
L 52.59375 62.3125 
Q 48.875 64.0625 45.09375 64.984375 
Q 41.3125 65.921875 37.59375 65.921875 
Q 27.828125 65.921875 22.671875 59.328125 
Q 17.53125 52.734375 16.796875 39.40625 
Q 19.671875 43.65625 24.015625 45.921875 
Q 28.375 48.1875 33.59375 48.1875 
Q 44.578125 48.1875 50.953125 41.515625 
Q 57.328125 34.859375 57.328125 23.390625 
Q 57.328125 12.15625 50.6875 5.359375 
Q 44.046875 -1.421875 33.015625 -1.421875 
Q 20.359375 -1.421875 13.671875 8.265625 
Q 6.984375 17.96875 6.984375 36.375 
Q 6.984375 53.65625 15.1875 63.9375 
Q 23.390625 74.21875 37.203125 74.21875 
Q 40.921875 74.21875 44.703125 73.484375 
Q 48.484375 72.75 52.59375 71.296875 
z
" id="DejaVuSans-54"/>
      </defs>
      <g transform="translate(34.696875 163.447219)scale(0.1 -0.1)">
       <use xlink:href="#DejaVuSans-48"/>
       <use x="63.623047" xlink:href="#DejaVuSans-46"/>
       <use x="95.410156" xlink:href="#DejaVuSans-54"/>
      </g>
     </g>
    </g>
    <g id="ytick_5">
     <g id="line2d_10">
      <g>
       <use style="stroke:#000000;stroke-width:0.8;" x="57.6" xlink:href="#m6653343684" y="129.888"/>
      </g>
     </g>
     <g id="text_10">
      <!-- 0.8 -->
      <defs>
       <path d="M 31.78125 34.625 
Q 24.75 34.625 20.71875 30.859375 
Q 16.703125 27.09375 16.703125 20.515625 
Q 16.703125 13.921875 20.71875 10.15625 
Q 24.75 6.390625 31.78125 6.390625 
Q 38.8125 6.390625 42.859375 10.171875 
Q 46.921875 13.96875 46.921875 20.515625 
Q 46.921875 27.09375 42.890625 30.859375 
Q 38.875 34.625 31.78125 34.625 
z
M 21.921875 38.8125 
Q 15.578125 40.375 12.03125 44.71875 
Q 8.5 49.078125 8.5 55.328125 
Q 8.5 64.0625 14.71875 69.140625 
Q 20.953125 74.21875 31.78125 74.21875 
Q 42.671875 74.21875 48.875 69.140625 
Q 55.078125 64.0625 55.078125 55.328125 
Q 55.078125 49.078125 51.53125 44.71875 
Q 48 40.375 41.703125 38.8125 
Q 48.828125 37.15625 52.796875 32.3125 
Q 56.78125 27.484375 56.78125 20.515625 
Q 56.78125 9.90625 50.3125 4.234375 
Q 43.84375 -1.421875 31.78125 -1.421875 
Q 19.734375 -1.421875 13.25 4.234375 
Q 6.78125 9.90625 6.78125 20.515625 
Q 6.78125 27.484375 10.78125 32.3125 
Q 14.796875 37.15625 21.921875 38.8125 
z
M 18.3125 54.390625 
Q 18.3125 48.734375 21.84375 45.5625 
Q 25.390625 42.390625 31.78125 42.390625 
Q 38.140625 42.390625 41.71875 45.5625 
Q 45.3125 48.734375 45.3125 54.390625 
Q 45.3125 60.0625 41.71875 63.234375 
Q 38.140625 66.40625 31.78125 66.40625 
Q 25.390625 66.40625 21.84375 63.234375 
Q 18.3125 60.0625 18.3125 54.390625 
z
" id="DejaVuSans-56"/>
      </defs>
      <g transform="translate(34.696875 133.687219)scale(0.1 -0.1)">
       <use xlink:href="#DejaVuSans-48"/>
       <use x="63.623047" xlink:href="#DejaVuSans-46"/>
       <use x="95.410156" xlink:href="#DejaVuSans-56"/>
      </g>
     </g>
    </g>
    <g id="ytick_6">
     <g id="line2d_11">
      <g>
       <use style="stroke:#000000;stroke-width:0.8;" x="57.6" xlink:href="#m6653343684" y="100.128"/>
      </g>
     </g>
     <g id="text_11">
      <!-- 1.0 -->
      <g transform="translate(34.696875 103.927219)scale(0.1 -0.1)">
       <use xlink:href="#DejaVuSans-49"/>
       <use x="63.623047" xlink:href="#DejaVuSans-46"/>
       <use x="95.410156" xlink:href="#DejaVuSans-48"/>
      </g>
     </g>
    </g>
   </g>
   <g id="line2d_12">
    <path clip-path="url(#pd3bee93ee6)" d="M 236.16 248.928 
L 236.16 100.128 
" style="fill:none;stroke:#cc0000;stroke-dasharray:7.4,3.2;stroke-dashoffset:0;stroke-width:2;"/>
   </g>
   <g id="line2d_13">
    <path clip-path="url(#pd3bee93ee6)" d="M 87.36 248.928 
L 384.96 248.928 
" style="fill:none;stroke:#009900;stroke-linecap:square;stroke-width:2;"/>
   </g>
   <g id="line2d_14">
    <path clip-path="url(#pd3bee93ee6)" d="M 384.96 248.928 
L 384.96 100.128 
" style="fill:none;stroke:#009900;stroke-linecap:square;stroke-width:2;"/>
   </g>
   <g id="line2d_15">
    <path clip-path="url(#pd3bee93ee6)" d="M 384.96 100.128 
L 87.36 100.128 
" style="fill:none;stroke:#009900;stroke-linecap:square;stroke-width:2;"/>
   </g>
   <g id="line2d_16">
    <path clip-path="url(#pd3bee93ee6)" d="M 87.36 100.128 
L 87.36 248.928 
" style="fill:none;stroke:#009900;stroke-linecap:square;stroke-width:2;"/>
   </g>
   <g id="line2d_17">
    <path clip-path="url(#pd3bee93ee6)" d="M 234.039817 187.676846 
L 228.161346 188.606981 
L 222.324771 189.771447 
L 216.539432 191.168383 
L 210.814583 192.795553 
L 205.159382 194.650355 
L 199.582878 196.729821 
L 194.09399 199.030624 
L 188.701501 201.549083 
L 185.489538 203.176718 
L 181.895249 207.920416 
L 178.493532 212.804052 
L 175.28983 217.819814 
L 172.289267 222.959679 
L 169.496644 228.215422 
L 166.916429 233.578636 
L 164.552749 239.040742 
L 162.409385 244.593 
L 160.910016 248.928 
L 158.938807 243.312315 
L 156.744607 237.77995 
L 154.330927 232.339754 
L 151.701627 227.000431 
L 148.860915 221.770524 
L 145.813335 216.658397 
L 142.563762 211.672231 
L 139.117394 206.820001 
L 135.479746 202.109471 
L 131.656637 197.548175 
L 127.654183 193.143412 
L 123.478786 188.902228 
L 119.137128 184.831407 
L 114.636152 180.937463 
L 109.983061 177.226624 
L 105.185298 173.704828 
L 100.250538 170.377708 
L 95.186677 167.250587 
L 90.001814 164.328468 
L 87.36 162.942383 
L 92.602404 160.124799 
L 97.727942 157.09983 
L 102.728414 153.872313 
L 107.595819 150.447412 
L 112.322371 146.830606 
L 116.900509 143.027682 
L 121.322909 139.044723 
L 125.582495 134.888101 
L 129.672454 130.564466 
L 133.586241 126.080734 
L 137.317597 121.44408 
L 140.860551 116.66192 
L 144.209436 111.741904 
L 147.358894 106.691905 
L 150.303887 101.52 
L 151.050523 100.128 
L 153.940448 105.330876 
L 157.03612 110.414024 
L 160.332588 115.369312 
L 163.824578 120.188812 
L 167.506504 124.864816 
L 171.372474 129.389841 
L 175.416305 133.756649 
L 179.631527 137.958254 
L 184.011396 141.987934 
L 188.548907 145.839243 
L 193.236799 149.506019 
L 198.067573 152.982397 
L 203.033501 156.262814 
L 208.126639 159.342023 
L 213.338838 162.215098 
L 218.661761 164.877443 
L 224.086891 167.324798 
L 229.605549 169.553247 
L 235.208908 171.559227 
L 236.16 171.874845 
L 230.543259 173.843044 
L 225.009719 176.034278 
L 219.56823 178.445042 
L 214.227499 181.071479 
L 208.996069 183.909387 
L 203.88231 186.954227 
L 198.894403 190.201127 
L 194.040327 193.644893 
L 193.366075 194.146767 
L 192.400602 200.019538 
L 191.67075 205.926221 
L 191.177686 211.857365 
L 190.922199 217.803481 
L 190.904697 223.755059 
L 191.125209 229.702576 
L 191.583382 235.636517 
L 192.278482 241.54739 
L 193.209399 247.425738 
L 193.486169 248.928 
L 194.477381 243.059518 
L 195.233124 237.156093 
L 195.752188 231.227168 
L 196.033743 225.282228 
L 196.077339 219.330784 
L 195.882906 213.382358 
L 195.450755 207.446465 
L 194.781577 201.532601 
L 193.876442 195.650228 
L 193.550416 193.84663 
L 199.211573 192.010092 
L 204.794761 189.948637 
L 210.291046 187.665562 
L 215.691636 185.164521 
L 220.987892 182.449515 
L 226.171339 179.524887 
L 231.233687 176.395315 
L 236.16 173.070622 
L 243.223715 170.735102 
L 250.22684 168.223738 
L 257.165 165.538098 
L 264.033857 162.679862 
L 270.82912 159.650815 
L 277.546541 156.452851 
L 284.181922 153.087969 
L 290.731116 149.55827 
L 297.19003 145.865962 
L 303.554628 142.013351 
L 309.820932 138.002846 
L 315.985026 133.836953 
L 322.043057 129.518276 
L 327.99124 125.049512 
L 333.825856 120.433457 
L 339.543259 115.672993 
L 345.139877 110.771097 
L 350.612212 105.730832 
L 356.386382 100.128 
L 361.720465 105.314355 
L 367.182526 110.365752 
L 372.769152 115.279033 
L 378.476851 120.051127 
L 384.96 125.187013 
L 379.121891 129.79865 
L 373.400885 134.554784 
L 367.800558 139.452442 
L 362.324409 144.488563 
L 356.975862 149.66 
L 351.758258 154.96352 
L 346.674859 160.39581 
L 341.728842 165.953474 
L 336.923297 171.633039 
L 332.7651 176.789839 
L 336.180505 183.399357 
L 339.760062 189.921434 
L 343.501537 196.351993 
L 347.402589 202.687015 
L 351.460781 208.922542 
L 355.673577 215.054676 
L 360.038344 221.079585 
L 364.552354 226.993503 
L 369.212786 232.792735 
L 374.016728 238.473656 
L 378.961177 244.032715 
L 383.527994 248.928 
L 384.96 247.416651 
L 379.794524 242.062347 
L 374.496819 236.838839 
L 369.070196 231.749392 
L 363.518045 226.797186 
L 357.843836 221.985318 
L 352.051117 217.316793 
L 346.143507 212.794531 
L 340.124698 208.421356 
L 333.998452 204.200003 
L 327.768597 200.133108 
L 321.439028 196.223215 
L 319.412873 195.017242 
L 317.864309 202.294101 
L 316.498132 209.607395 
L 315.315195 216.952555 
L 314.316238 224.324991 
L 313.501884 231.720093 
L 312.872644 239.133242 
L 312.428909 246.559804 
L 312.326548 248.928 
L 311.94198 241.49814 
L 311.371805 234.080214 
L 310.61638 226.67886 
L 309.676176 219.298702 
L 308.551781 211.944352 
L 307.243898 204.620408 
L 305.520771 196.271702 
L 305.669176 190.321949 
L 306.05539 184.38289 
L 306.678794 178.464027 
L 307.53839 172.574827 
L 308.632804 166.724712 
L 309.960285 160.923042 
L 311.518709 155.179098 
L 312.398806 152.283873 
L 313.113177 158.192448 
L 313.590697 164.124863 
L 313.830601 170.071629 
L 313.832506 176.023232 
L 313.596408 181.970151 
L 313.122687 187.902871 
L 312.412098 193.811902 
L 311.960347 196.804028 
L 309.267821 203.739518 
L 306.749506 210.740147 
L 304.406975 217.80154 
L 302.241692 224.919283 
L 300.255012 232.088928 
L 298.448174 239.305995 
L 296.822309 246.565973 
L 296.334245 248.928 
L 294.767272 241.655084 
L 293.018985 234.42361 
L 291.090476 227.238099 
L 288.98295 220.103041 
L 286.697725 213.022895 
L 284.236229 206.002087 
L 281.600001 199.045003 
L 278.790687 192.155992 
L 275.810044 185.339359 
L 272.659934 178.599365 
L 269.342326 171.940221 
L 265.859293 165.36609 
L 262.213013 158.88108 
L 258.405763 152.489243 
L 254.439925 146.194576 
L 250.317975 140.001011 
L 246.04249 133.912419 
L 241.616142 127.932606 
L 236.16 120.968442 
L 240.762139 115.122842 
L 245.216714 109.164028 
L 249.520943 103.095722 
L 251.544323 100.128 
L 255.774999 106.247812 
L 260.157332 112.259956 
L 264.688584 118.160674 
L 269.365922 123.946279 
L 274.186424 129.613154 
L 279.147077 135.157759 
L 284.24478 140.576628 
L 289.476348 145.866374 
L 294.838511 151.023691 
L 299.38933 155.204477 
L 297.746382 147.948346 
L 295.922564 140.735552 
L 293.919014 133.570602 
L 291.736985 126.457975 
L 289.377841 119.402115 
L 286.843056 112.407433 
L 284.134214 105.478299 
L 281.904199 100.128 
L 279.060917 107.003061 
L 276.390382 113.947048 
L 273.894263 120.955622 
L 271.57412 128.024402 
L 269.431403 135.148971 
L 267.467451 142.324876 
L 265.683492 149.547632 
L 264.080641 156.812726 
L 262.659899 164.115616 
L 261.422154 171.451739 
L 260.36818 178.816511 
L 259.498635 186.205327 
L 258.814063 193.613571 
L 258.314892 201.036613 
L 258.001434 208.469813 
L 257.873884 215.908525 
L 257.932322 223.348102 
L 258.176712 230.783893 
L 258.606902 238.211252 
L 259.222621 245.625536 
L 259.557081 248.928 
L 260.255458 241.521045 
L 260.768463 234.098946 
L 261.095773 226.666344 
L 261.237186 219.227881 
L 261.192613 211.788209 
L 260.96208 204.351975 
L 260.545734 196.923828 
L 259.943833 189.508409 
L 259.156754 182.110354 
L 258.184989 174.734285 
L 257.029145 167.384813 
L 255.689945 160.06653 
L 254.168225 152.784011 
L 252.464936 145.541807 
L 250.581144 138.344443 
L 248.518025 131.196418 
L 246.276868 124.1022 
L 243.859075 117.066221 
L 241.266157 110.09288 
L 238.499733 103.186534 
L 237.209964 100.128 
L 236.16 102.610592 
L 239.112522 109.439452 
L 242.234825 116.192373 
L 245.524958 122.865134 
L 248.980865 129.453566 
L 252.600385 135.953549 
L 256.381257 142.361023 
L 260.321118 148.671983 
L 264.417505 154.882485 
L 268.667858 160.988647 
L 273.069521 166.986653 
L 277.619744 172.872755 
L 282.315682 178.643273 
L 287.1544 184.294603 
L 292.132875 189.823211 
L 297.247995 195.225642 
L 302.496563 200.498521 
L 307.875299 205.638551 
L 313.380842 210.642521 
L 319.009751 215.507303 
L 324.758508 220.229856 
L 330.62352 224.80723 
L 336.601121 229.236564 
L 342.687577 233.515089 
L 348.879082 237.640132 
L 355.171768 241.609114 
L 361.561702 245.419555 
L 367.787088 248.928 
L 374.26667 245.272081 
L 380.652838 241.455332 
L 384.96 238.756542 
L 378.639949 234.831282 
L 372.223751 231.065233 
L 365.715417 227.460749 
L 359.119014 224.020083 
L 352.438664 220.745385 
L 345.678543 217.638702 
L 338.842876 214.701974 
L 331.935934 211.937039 
L 324.962034 209.345623 
L 317.925535 206.929346 
L 310.830833 204.689718 
L 303.682364 202.628139 
L 296.484595 200.745897 
L 289.242024 199.04417 
L 281.959177 197.524019 
L 274.640606 196.186395 
L 267.290885 195.032135 
L 259.914607 194.061959 
L 252.516382 193.276475 
L 245.100834 192.676172 
L 237.672597 192.261426 
L 224.267048 191.766949 
L 218.317105 191.907526 
L 212.377543 192.285924 
L 206.457864 192.901539 
L 200.567538 193.753385 
L 194.715989 194.840101 
L 192.629437 195.286562 
L 193.746578 201.132379 
L 195.096596 206.928846 
L 196.67733 212.66669 
L 198.486253 218.336733 
L 200.520471 223.929902 
L 202.776728 229.43725 
L 205.251416 234.849967 
L 207.940575 240.159393 
L 210.839903 245.357034 
L 212.994248 248.928 
L 216.0381 243.813653 
L 218.874998 238.581676 
L 221.500404 233.240437 
L 223.910117 227.798483 
L 226.100283 222.264519 
L 228.067397 216.647399 
L 229.808312 210.956108 
L 231.320244 205.199751 
L 232.600774 199.387538 
L 233.647853 193.528766 
L 234.459807 187.632809 
L 235.035335 181.709098 
L 235.373517 175.767111 
L 235.473813 169.816353 
L 235.336062 163.866344 
L 234.960485 157.926603 
L 234.347681 152.006632 
L 233.498632 146.115903 
L 232.414695 140.263838 
L 231.097606 134.4598 
L 229.54947 128.713074 
L 227.772765 123.032854 
L 225.770333 117.428227 
L 223.545378 111.908159 
L 221.101458 106.48148 
L 218.442484 101.156874 
L 217.897575 100.128 
L 215.197021 105.431639 
L 212.710716 110.839029 
L 210.442638 116.34152 
L 208.396415 121.930308 
L 206.575321 127.596453 
L 204.982269 133.33089 
L 203.619807 139.124445 
L 202.490116 144.967849 
L 201.595002 150.851756 
L 200.935898 156.76675 
L 200.513857 162.703371 
L 200.329556 168.65212 
L 200.383288 174.60348 
L 200.674969 180.547932 
L 201.204131 186.475964 
L 201.969927 192.378094 
L 202.971134 198.244879 
L 204.206148 204.066934 
L 205.672994 209.834944 
L 207.369326 215.539682 
L 209.29243 221.172022 
L 211.439229 226.722953 
L 213.806289 232.183595 
L 216.389823 237.545211 
L 219.185698 242.799225 
L 222.189441 247.937232 
L 222.800902 248.928 
L 225.844755 243.813653 
L 228.681653 238.581676 
L 231.307058 233.240437 
L 233.716771 227.798483 
L 235.906937 222.264519 
L 236.16 221.580612 
L 242.206778 217.246193 
L 248.143317 212.761973 
L 253.965907 208.130757 
L 259.670909 203.355439 
L 265.254758 198.439003 
L 270.713965 193.384521 
L 276.045116 188.195153 
L 281.244881 182.874141 
L 286.310009 177.424812 
L 288.252047 175.261232 
L 282.890143 170.103645 
L 277.400988 165.081703 
L 271.788013 160.198545 
L 266.054726 155.457223 
L 260.20471 150.8607 
L 254.24162 146.411848 
L 248.169184 142.113449 
L 241.991197 137.968187 
L 236.16 134.25632 
L 242.432596 130.255663 
L 248.603226 126.099458 
L 254.668034 121.790302 
L 260.623229 117.330888 
L 266.465089 112.724003 
L 272.189963 107.972527 
L 277.794274 103.079428 
L 281.042094 100.128 
L 286.573642 105.103208 
L 292.227829 109.938587 
L 298.00112 114.631115 
L 303.889909 119.17786 
L 309.890514 123.575979 
L 315.999186 127.822725 
L 322.212106 131.915442 
L 328.525393 135.851574 
L 334.935099 139.62866 
L 341.43722 143.24434 
L 348.027691 146.696354 
L 354.702395 149.982545 
L 361.457159 153.100858 
L 368.287762 156.049346 
L 375.189935 158.826165 
L 382.159365 161.42958 
L 384.96 162.420286 
L 377.96493 164.954002 
L 371.035383 167.661785 
L 364.175688 170.541942 
L 357.390133 173.592674 
L 350.682959 176.812073 
L 344.058358 180.198129 
L 337.520469 183.748724 
L 331.073379 187.46164 
L 326.304325 190.348829 
L 322.44043 196.706582 
L 318.736669 203.158936 
L 315.195357 209.701859 
L 311.818709 216.33126 
L 308.608833 223.042997 
L 305.567736 229.832875 
L 302.697319 236.696651 
L 299.999375 243.630035 
L 298.070734 248.928 
L 295.504623 241.944749 
L 292.76475 235.027827 
L 289.852829 228.181555 
L 286.770679 221.410214 
L 283.520225 214.718034 
L 280.103501 208.109198 
L 276.522641 201.587837 
L 272.779882 195.158025 
L 268.877565 188.823782 
L 264.818127 182.589066 
L 260.604106 176.457774 
L 256.238136 170.433737 
L 251.722944 164.520721 
L 247.061354 158.72242 
L 242.256278 153.042459 
L 237.310719 147.484387 
L 236.16 146.230472 
L 241.137263 140.700773 
L 245.974743 135.048384 
L 250.669416 129.276836 
L 255.218348 123.389737 
L 259.618697 117.390767 
L 263.867712 111.283674 
L 267.962738 105.072274 
L 271.066409 100.128 
L 275.038811 106.418528 
L 279.167218 112.60779 
L 283.449051 118.691919 
L 287.881633 124.667113 
L 292.462194 130.529636 
L 297.187872 136.275825 
L 302.055713 141.902088 
L 307.062674 147.404911 
L 311.672292 152.235732 
L 313.666429 157.843316 
L 315.434727 163.526159 
L 316.974357 169.275169 
L 318.282857 175.08115 
L 319.358133 180.934812 
L 320.198465 186.826792 
L 320.802508 192.747663 
L 320.921206 194.297365 
L 316.355891 190.479057 
L 311.946919 186.481239 
L 307.701344 182.310307 
L 303.625958 177.972933 
L 299.727281 173.476057 
L 296.011549 168.826872 
L 292.484707 164.032817 
L 291.595551 162.758035 
L 297.467364 163.729322 
L 303.295638 164.934642 
L 309.071051 166.372067 
L 314.784362 168.039297 
L 320.426432 169.933665 
L 325.988234 172.05214 
L 331.460871 174.391334 
L 332.874171 175.038056 
L 337.876431 180.545152 
L 343.014791 185.925485 
L 348.28604 191.17569 
L 353.686882 196.292487 
L 359.213944 201.272678 
L 364.863771 206.113151 
L 370.632831 210.810881 
L 376.517519 215.362931 
L 382.514158 219.766457 
L 384.96 221.497338 
L 378.919329 225.840265 
L 372.989108 230.332836 
L 367.173042 234.972243 
L 361.474767 239.755586 
L 355.897844 244.679877 
L 351.304222 248.928 
L 345.832055 243.887553 
L 340.2356 238.985471 
L 334.518355 234.224817 
L 328.683892 229.608567 
L 322.735858 225.139606 
L 316.67797 220.820728 
L 310.514015 216.654629 
L 304.247845 212.643916 
L 297.883374 208.791094 
L 291.424583 205.098571 
L 284.875506 201.568655 
L 278.240237 198.203552 
L 271.522922 195.005364 
L 264.72776 191.976092 
L 257.858998 189.117627 
L 250.920927 186.431757 
L 243.917885 183.92016 
L 236.16 181.365358 
L 243.22933 179.04689 
L 250.238494 176.552431 
L 257.183114 173.88354 
L 264.058848 171.041887 
L 270.8614 168.029245 
L 277.586518 164.8475 
L 284.229999 161.498637 
L 290.787691 157.984752 
L 297.255496 154.30804 
L 303.629372 150.470798 
L 309.905335 146.475425 
L 316.079463 142.324417 
L 322.147897 138.02037 
L 328.106845 133.565972 
L 333.952582 128.964009 
L 339.681456 124.217355 
L 345.289885 119.328977 
L 350.774366 114.301931 
L 356.131469 109.139358 
L 361.357848 103.844485 
L 364.874596 100.128 
L 370.009171 105.511944 
L 375.276726 110.765855 
L 380.67397 115.886449 
L 384.96 119.775509 
L 379.464201 124.790178 
L 374.095473 129.940662 
L 368.857172 135.22374 
L 363.75257 140.636111 
L 358.784859 146.174392 
L 353.957143 151.835123 
L 349.272439 157.614765 
L 344.733675 163.509707 
L 340.343687 169.516264 
L 336.105219 175.630682 
L 332.020921 181.84914 
L 331.05059 183.377752 
L 329.279734 190.603732 
L 327.690062 197.87172 
L 326.282567 205.177175 
L 325.058129 212.515532 
L 324.017514 219.882202 
L 323.161372 227.272584 
L 322.490237 234.682057 
L 322.00453 242.105992 
L 321.722213 248.928 
L 321.674028 247.440782 
L 321.321604 240.009328 
L 320.783522 232.589005 
L 320.06012 225.184452 
L 319.151849 217.800296 
L 318.059278 210.441152 
L 316.783088 203.111618 
L 315.120112 194.854873 
L 314.030893 189.003789 
L 313.176527 183.113829 
L 312.55838 177.194413 
L 312.17744 171.255014 
L 312.034318 165.305132 
L 312.129243 159.354286 
L 312.462061 153.411996 
L 313.035172 144.872947 
L 313.333484 137.439123 
L 313.445878 130.000166 
L 313.372282 122.560724 
L 313.112742 115.125446 
L 312.66742 107.69898 
L 312.02112 100.128 
L 311.386342 107.540677 
L 310.93706 114.966905 
L 310.673554 122.402043 
L 310.59599 129.841445 
L 310.704416 137.280461 
L 310.998764 144.714442 
L 311.485696 152.227204 
L 312.581623 144.868559 
L 313.49326 137.484818 
L 314.220039 130.080595 
L 314.761503 122.660519 
L 315.117317 115.229226 
L 315.287256 107.791361 
L 315.267853 100.128 
L 315.322519 112.031081 
L 315.598417 119.46577 
L 316.060076 126.891239 
L 316.707209 134.302847 
L 317.53941 141.695962 
L 318.55616 149.065965 
L 319.34374 154.009025 
L 325.450558 149.759615 
L 331.449244 145.358878 
L 337.336048 140.809565 
L 343.107292 136.114518 
L 348.759368 131.276673 
L 354.288745 126.299052 
L 359.691966 121.184766 
L 364.965656 115.937013 
L 370.106516 110.55907 
L 375.111336 105.0543 
L 379.383529 100.128 
L 384.96 106.515682 
L 380.057411 112.111692 
L 375.296239 117.828506 
L 370.67946 123.66255 
L 366.20996 129.610179 
L 361.890532 135.667675 
L 357.723876 141.831253 
L 353.712594 148.09706 
L 349.859195 154.461181 
L 346.166087 160.919638 
L 342.635577 167.468395 
L 339.269872 174.103359 
L 336.071076 180.820383 
L 333.041188 187.615271 
L 330.182101 194.483774 
L 327.495602 201.421601 
L 324.98337 208.424415 
L 322.646975 215.48784 
L 320.487878 222.607462 
L 318.507427 229.778831 
L 316.706861 236.997465 
L 315.087304 244.258853 
L 314.145961 248.928 
L 312.642826 241.641622 
L 310.958021 234.395095 
L 309.092598 227.192949 
L 307.047724 220.039684 
L 304.824675 212.93977 
L 302.424841 205.897646 
L 299.849723 198.917711 
L 297.296294 192.479504 
L 289.87945 191.895427 
L 282.450324 191.496935 
L 275.013558 191.284275 
L 267.573799 191.257582 
L 260.135698 191.416872 
L 252.703904 191.762045 
L 245.28306 192.292886 
L 237.877804 193.009062 
L 236.16 193.201945 
L 243.560971 193.961123 
L 250.978606 194.535058 
L 258.40827 194.923393 
L 265.845321 195.125884 
L 273.285109 195.142404 
L 280.722985 194.972944 
L 288.1543 194.61761 
L 295.574412 194.076623 
L 299.205084 193.743834 
L 302.227472 200.542061 
L 305.418853 207.262612 
L 308.777233 213.901287 
L 312.300513 220.453936 
L 315.986491 226.916465 
L 319.832864 233.284835 
L 323.837227 239.555066 
L 327.997079 245.723238 
L 330.24852 248.928 
L 334.489186 242.815106 
L 338.57572 236.598117 
L 342.505569 230.280918 
L 346.276276 223.867457 
L 349.885485 217.361742 
L 353.330941 210.767839 
L 356.610489 204.08987 
L 359.722081 197.332007 
L 362.663772 190.498474 
L 365.433722 183.593541 
L 368.030202 176.621525 
L 370.451589 169.586782 
L 372.696368 162.49371 
L 374.763137 155.34674 
L 376.650606 148.150339 
L 378.357593 140.909005 
L 379.883032 133.627264 
L 381.22597 126.309667 
L 382.385567 118.960786 
L 383.361099 111.585214 
L 384.151956 104.187562 
L 384.506668 100.128 
L 384.96 105.214552 
L 384.328609 112.627517 
L 383.88272 120.05395 
L 383.622612 127.489208 
L 383.548448 134.928645 
L 383.660273 142.36761 
L 383.958018 149.801456 
L 384.441497 157.225536 
L 384.96 163.136158 
L 384.328609 170.549123 
L 383.88272 177.975556 
L 383.622612 185.410814 
L 383.548448 192.85025 
L 383.660273 200.289216 
L 383.958018 207.723062 
L 384.441497 215.147142 
L 384.96 221.057764 
L 384.328609 228.470729 
L 383.88272 235.897162 
L 383.622612 243.33242 
L 383.549493 248.928 
L 383.499656 244.46432 
L 383.267835 237.028126 
L 382.850201 229.600051 
L 382.247016 222.184737 
L 381.458655 214.786818 
L 380.485612 207.410918 
L 379.328494 200.061646 
L 377.988026 192.743596 
L 376.465044 185.46134 
L 374.760501 178.219431 
L 372.875461 171.022394 
L 370.811104 163.874727 
L 368.568718 156.780897 
L 366.149706 149.745338 
L 363.555579 142.772446 
L 360.787958 135.866579 
L 357.848574 129.032054 
L 354.739263 122.273141 
L 351.461968 115.594065 
L 348.018738 108.999 
L 344.411724 102.492068 
L 343.047928 100.128 
L 339.381393 106.60158 
L 335.877826 113.164791 
L 332.539417 119.81353 
L 329.368252 126.543644 
L 326.366314 133.350926 
L 323.535478 140.231121 
L 320.877513 147.17993 
L 315.85234 160.619894 
L 313.435255 166.058578 
L 310.802613 171.396253 
L 307.958628 176.624382 
L 304.907848 181.734599 
L 301.655154 186.71873 
L 298.20575 191.568801 
L 297.443477 192.587325 
L 304.641569 183.110136 
L 308.51906 178.594978 
L 312.574007 174.238491 
L 316.799924 170.047642 
L 321.19005 166.029138 
L 325.737361 162.189406 
L 330.268248 158.672303 
L 336.11547 154.072225 
L 341.845874 149.32742 
L 347.455881 144.440852 
L 352.941982 139.415576 
L 358.300751 134.254731 
L 363.528837 128.961544 
L 368.622974 123.539322 
L 373.579978 117.991455 
L 378.39675 112.321409 
L 383.070281 106.532728 
L 384.96 104.105592 
L 381.84184 100.128 
L 377.27533 106.001475 
L 372.857069 111.987265 
L 368.589817 118.08163 
L 364.476243 124.28076 
L 360.518915 130.580783 
L 356.720309 136.977759 
L 353.082797 143.467692 
L 349.608654 150.046525 
L 346.30005 156.710146 
L 343.159052 163.454392 
L 340.187625 170.275048 
L 337.387625 177.167849 
L 334.760802 184.12849 
L 332.308798 191.152619 
L 330.033145 198.235848 
L 327.935266 205.373748 
L 326.01647 212.561859 
L 324.277959 219.795689 
L 322.720818 227.070716 
L 321.346019 234.382395 
L 320.154424 241.726156 
L 319.167829 248.928 
L 318.155953 241.557327 
L 316.960145 234.214251 
L 315.581153 226.903362 
L 314.019839 219.629229 
L 312.277178 212.396397 
L 310.35426 205.209388 
L 307.819074 196.679066 
L 307.400655 190.742189 
L 307.219983 184.793329 
L 307.277346 178.842002 
L 307.572653 172.89773 
L 308.105432 166.970021 
L 308.874829 161.06836 
L 309.879614 155.202187 
L 310.486241 152.208122 
L 311.649844 158.044868 
L 312.579108 163.923478 
L 313.272548 169.834546 
L 313.729053 175.768615 
L 313.947893 181.716194 
L 313.928718 187.667766 
L 313.67156 193.613811 
L 313.447266 196.660467 
L 311.557051 191.017005 
L 309.894025 185.302468 
L 308.46085 179.526 
L 307.259819 173.69684 
L 306.292853 167.824314 
L 305.561499 161.917818 
L 305.066926 155.986799 
L 304.905307 152.936176 
L 306.078184 145.589403 
L 307.067044 138.215607 
L 307.871269 130.819396 
L 308.490358 123.405392 
L 308.923922 115.97823 
L 309.171691 108.542551 
L 309.227826 100.128 
L 309.265271 107.567712 
L 309.488677 115.004163 
L 309.897905 122.432706 
L 310.4927 129.848698 
L 311.272689 137.247504 
L 312.237386 144.624501 
L 313.479244 153.884755 
L 313.416074 159.836023 
L 313.114968 165.780004 
L 312.576406 171.70719 
L 311.801251 177.608098 
L 310.790743 183.473288 
L 309.546498 189.293377 
L 308.070506 195.059054 
L 307.618644 196.653344 
L 307.634003 190.70176 
L 307.88735 184.755552 
L 308.378279 178.824231 
L 309.106006 172.917286 
L 310.069364 167.044167 
L 311.266815 161.214271 
L 312.696441 155.436923 
L 313.544861 152.408484 
L 313.517798 158.360025 
L 313.252758 164.305724 
L 312.750165 170.236068 
L 312.010824 176.14157 
L 311.035917 182.012783 
L 309.827004 187.840313 
L 308.386019 193.614839 
L 307.531644 196.641604 
L 304.47919 203.426383 
L 301.597291 210.285346 
L 298.887748 217.214206 
L 296.352256 224.208632 
L 293.992399 231.264253 
L 291.809651 238.37666 
L 289.805377 245.541407 
L 288.924785 248.928 
L 287.004892 241.740182 
L 284.905922 234.602603 
L 282.629186 227.519722 
L 280.176109 220.495968 
L 277.548223 213.535728 
L 274.74717 206.643354 
L 271.774701 199.823153 
L 268.632673 193.079387 
L 265.323051 186.416271 
L 261.847902 179.837969 
L 258.209399 173.348592 
L 254.409816 166.952196 
L 250.451526 160.652778 
L 246.337004 154.454276 
L 242.068822 148.360563 
L 237.649646 142.375448 
L 236.16 140.426581 
L 240.628358 134.478094 
L 244.946622 128.419769 
L 249.112095 122.255391 
L 253.122173 115.988814 
L 256.97435 109.623953 
L 260.666218 103.164787 
L 262.328916 100.128 
L 265.945392 106.629678 
L 269.723263 113.038922 
L 273.660167 119.351727 
L 277.753646 125.564146 
L 282.001139 131.672298 
L 286.399993 137.672364 
L 290.947458 143.560596 
L 295.640693 149.333314 
L 301.085689 155.963394 
L 304.2949 160.975633 
L 307.301108 166.112198 
L 310.099504 171.36487 
L 312.68561 176.725246 
L 315.05529 182.184751 
L 317.204753 187.734651 
L 319.130559 193.366068 
L 319.620112 194.92645 
L 321.036517 202.230183 
L 322.635055 209.496227 
L 324.414725 216.720041 
L 326.374415 223.897111 
L 328.512902 231.022951 
L 330.828847 238.093107 
L 333.320804 245.103162 
L 334.764503 248.928 
L 337.352522 241.952839 
L 339.765372 234.915164 
L 342.001544 227.819372 
L 344.059641 220.6699 
L 345.938377 213.471215 
L 347.636577 206.227816 
L 349.153181 198.944229 
L 350.48724 191.625008 
L 351.63792 184.274725 
L 352.604504 176.897976 
L 353.386385 169.499369 
L 353.983076 162.08353 
L 354.394205 154.655092 
L 354.619513 147.218698 
L 354.65886 139.778996 
L 354.512222 132.340635 
L 354.17969 124.908264 
L 353.661472 117.486528 
L 352.957891 110.080065 
L 352.069389 102.693504 
L 351.716844 100.128 
L 350.7641 107.50655 
L 349.996099 114.90661 
L 349.413319 122.323556 
L 349.016127 129.752752 
L 348.804768 137.189555 
L 348.779377 144.629318 
L 348.939968 152.067391 
L 349.286442 159.499125 
L 349.818581 166.919876 
L 350.536053 174.325006 
L 351.438411 181.709887 
L 352.525089 189.069904 
L 353.795408 196.400457 
L 355.248576 203.696964 
L 356.883683 210.954866 
L 358.699707 218.169627 
L 360.695515 225.336737 
L 362.869858 232.451718 
L 365.221377 239.510122 
L 367.748604 246.507539 
L 368.669185 248.928 
L 371.257204 241.952839 
L 373.670054 234.915164 
L 375.906226 227.819372 
L 377.964323 220.6699 
L 379.843059 213.471215 
L 381.541259 206.227816 
L 383.057863 198.944229 
L 384.391922 191.625008 
L 384.96 188.146164 
L 383.712726 180.811655 
L 382.282497 173.510616 
L 380.670209 166.247611 
L 378.876868 159.027179 
L 376.903596 151.853831 
L 374.751625 144.732052 
L 372.422301 137.666292 
L 369.917079 130.660967 
L 367.237525 123.720455 
L 364.385313 116.849094 
L 361.362227 110.051177 
L 358.170155 103.330954 
L 356.575447 100.128 
L 353.302811 106.80936 
L 350.198214 113.57044 
L 347.263598 120.407014 
L 344.500794 127.314809 
L 341.911531 134.289508 
L 339.497426 141.326753 
L 337.259989 148.422145 
L 335.200617 155.57125 
L 333.320597 162.769601 
L 332.000355 168.323681 
L 337.335515 173.508928 
L 342.798625 178.55919 
L 348.386271 183.47131 
L 354.094962 188.242219 
L 359.921129 192.868934 
L 365.861131 197.348565 
L 371.911257 201.678311 
L 378.067724 205.855466 
L 384.96 210.272184 
L 384.96 210.272184 
" style="fill:none;stroke:#1f77b4;stroke-linecap:square;stroke-width:1.5;"/>
   </g>
   <g id="patch_5">
    <path d="M 57.6 263.808 
L 57.6 85.248 
" style="fill:none;stroke:#000000;stroke-linecap:square;stroke-linejoin:miter;stroke-width:0.8;"/>
   </g>
   <g id="patch_6">
    <path d="M 414.72 263.808 
L 414.72 85.248 
" style="fill:none;stroke:#000000;stroke-linecap:square;stroke-linejoin:miter;stroke-width:0.8;"/>
   </g>
   <g id="patch_7">
    <path d="M 57.6 263.808 
L 414.72 263.808 
" style="fill:none;stroke:#000000;stroke-linecap:square;stroke-linejoin:miter;stroke-width:0.8;"/>
   </g>
   <g id="patch_8">
    <path d="M 57.6 85.248 
L 414.72 85.248 
" style="fill:none;stroke:#000000;stroke-linecap:square;stroke-linejoin:miter;stroke-width:0.8;"/>
   </g>
  </g>
 </g>
 <defs>
  <clipPath id="pd3bee93ee6">
   <rect height="178.56" width="357.12" x="57.6" y="85.248"/>
  </clipPath>
 </defs>
</svg>
