<?xml version="1.0" encoding="utf-8" standalone="no"?>
<!DOCTYPE svg PUBLIC "-//W3C//DTD SVG 1.1//EN"
  "http://www.w3.org/Graphics/SVG/1.1/DTD/svg11.dtd">
<!-- Created with matplotlib (http://matplotlib.org/) -->
<svg height="345.6pt" version="1.1" viewBox="0 0 460.8 345.6" width="460.8pt" xmlns="http://www.w3.org/2000/svg" xmlns:xlink="http://www.w3.org/1999/xlink">
 <defs>
  <style type="text/css">
*{stroke-linecap:butt;stroke-linejoin:round;}
  </style>
 </defs>
 <g id="figure_1">
  <g id="patch_1">
   <path d="M 0 345.6 
L 460.8 345.6 
L 460.8 0 
L 0 0 
z
" style="fill:#ffffff;"/>
  </g>
  <g id="axes_1">
   <g id="patch_2">
    <path d="M 57.6 263.808 
L 414.72 263.808 
L 414.72 85.248 
L 57.6 85.248 
z
" style="fill:#ffffff;"/>
   </g>
   <g id="PathCollection_1">
    <defs>
     <path d="M 0 3 
C 0.795609 3 1.55874 2.683901 2.12132 2.12132 
C 2.683901 1.55874 3 0.795609 3 0 
C 3 -0.795609 2.683901 -1.55874 2.12132 -2.12132 
C 1.55874 -2.683901 0.795609 -3 0 -3 
C -0.795609 -3 -1.55874 -2.683901 -2.12132 -2.12132 
C -2.683901 -1.55874 -3 -0.795609 -3 0 
C -3 0.795609 -2.683901 1.55874 -2.12132 2.12132 
C -1.55874 2.683901 -0.795609 3 0 3 
z
" id="m6021261ebe" style="stroke:#000000;"/>
    </defs>
    <g clip-path="url(#pb48b11de59)">
     <use style="stroke:#000000;" x="165.273104" xlink:href="#m6021261ebe" y="220.474882"/>
    </g>
   </g>
   <g id="patch_3">
    <path clip-path="url(#pb48b11de59)" d="M 161.76 211.728 
C 171.625555 211.728 181.088371 207.808373 188.064372 200.832372 
C 195.040373 193.856371 198.96 184.393555 198.96 174.528 
C 198.96 164.662445 195.040373 155.199629 188.064372 148.223628 
C 181.088371 141.247627 171.625555 137.328 161.76 137.328 
C 151.894445 137.328 142.431629 141.247627 135.455628 148.223628 
C 128.479627 155.199629 124.56 164.662445 124.56 174.528 
C 124.56 184.393555 128.479627 193.856371 135.455628 200.832372 
C 142.431629 207.808373 151.894445 211.728 161.76 211.728 
z
" style="fill:#cc0000;fill-opacity:0.1;stroke:#cc0000;stroke-dasharray:7.4,3.2;stroke-dashoffset:0;stroke-linejoin:miter;stroke-width:2;"/>
   </g>
   <g id="patch_4">
    <path clip-path="url(#pb48b11de59)" d="M 310.56 196.848 
C 316.479333 196.848 322.157023 194.496224 326.342623 190.310623 
C 330.528224 186.125023 332.88 180.447333 332.88 174.528 
C 332.88 168.608667 330.528224 162.930977 326.342623 158.745377 
C 322.157023 154.559776 316.479333 152.208 310.56 152.208 
C 304.640667 152.208 298.962977 154.559776 294.777377 158.745377 
C 290.591776 162.930977 288.24 168.608667 288.24 174.528 
C 288.24 180.447333 290.591776 186.125023 294.777377 190.310623 
C 298.962977 194.496224 304.640667 196.848 310.56 196.848 
z
" style="fill:#cc0000;fill-opacity:0.1;stroke:#cc0000;stroke-dasharray:7.4,3.2;stroke-dashoffset:0;stroke-linejoin:miter;stroke-width:2;"/>
   </g>
   <g id="matplotlib.axis_1">
    <g id="xtick_1">
     <g id="line2d_1">
      <defs>
       <path d="M 0 0 
L 0 3.5 
" id="mb26a7d3b87" style="stroke:#000000;stroke-width:0.8;"/>
      </defs>
      <g>
       <use style="stroke:#000000;stroke-width:0.8;" x="87.36" xlink:href="#mb26a7d3b87" y="263.808"/>
      </g>
     </g>
     <g id="text_1">
      <!-- 0.0 -->
      <defs>
       <path d="M 31.78125 66.40625 
Q 24.171875 66.40625 20.328125 58.90625 
Q 16.5 51.421875 16.5 36.375 
Q 16.5 21.390625 20.328125 13.890625 
Q 24.171875 6.390625 31.78125 6.390625 
Q 39.453125 6.390625 43.28125 13.890625 
Q 47.125 21.390625 47.125 36.375 
Q 47.125 51.421875 43.28125 58.90625 
Q 39.453125 66.40625 31.78125 66.40625 
z
M 31.78125 74.21875 
Q 44.046875 74.21875 50.515625 64.515625 
Q 56.984375 54.828125 56.984375 36.375 
Q 56.984375 17.96875 50.515625 8.265625 
Q 44.046875 -1.421875 31.78125 -1.421875 
Q 19.53125 -1.421875 13.0625 8.265625 
Q 6.59375 17.96875 6.59375 36.375 
Q 6.59375 54.828125 13.0625 64.515625 
Q 19.53125 74.21875 31.78125 74.21875 
z
" id="DejaVuSans-30"/>
       <path d="M 10.6875 12.40625 
L 21 12.40625 
L 21 0 
L 10.6875 0 
z
" id="DejaVuSans-2e"/>
      </defs>
      <g transform="translate(79.408438 278.406437)scale(0.1 -0.1)">
       <use xlink:href="#DejaVuSans-30"/>
       <use x="63.623047" xlink:href="#DejaVuSans-2e"/>
       <use x="95.410156" xlink:href="#DejaVuSans-30"/>
      </g>
     </g>
    </g>
    <g id="xtick_2">
     <g id="line2d_2">
      <g>
       <use style="stroke:#000000;stroke-width:0.8;" x="161.76" xlink:href="#mb26a7d3b87" y="263.808"/>
      </g>
     </g>
     <g id="text_2">
      <!-- 0.5 -->
      <defs>
       <path d="M 10.796875 72.90625 
L 49.515625 72.90625 
L 49.515625 64.59375 
L 19.828125 64.59375 
L 19.828125 46.734375 
Q 21.96875 47.46875 24.109375 47.828125 
Q 26.265625 48.1875 28.421875 48.1875 
Q 40.625 48.1875 47.75 41.5 
Q 54.890625 34.8125 54.890625 23.390625 
Q 54.890625 11.625 47.5625 5.09375 
Q 40.234375 -1.421875 26.90625 -1.421875 
Q 22.3125 -1.421875 17.546875 -0.640625 
Q 12.796875 0.140625 7.71875 1.703125 
L 7.71875 11.625 
Q 12.109375 9.234375 16.796875 8.0625 
Q 21.484375 6.890625 26.703125 6.890625 
Q 35.15625 6.890625 40.078125 11.328125 
Q 45.015625 15.765625 45.015625 23.390625 
Q 45.015625 31 40.078125 35.4375 
Q 35.15625 39.890625 26.703125 39.890625 
Q 22.75 39.890625 18.8125 39.015625 
Q 14.890625 38.140625 10.796875 36.28125 
z
" id="DejaVuSans-35"/>
      </defs>
      <g transform="translate(153.808437 278.406437)scale(0.1 -0.1)">
       <use xlink:href="#DejaVuSans-30"/>
       <use x="63.623047" xlink:href="#DejaVuSans-2e"/>
       <use x="95.410156" xlink:href="#DejaVuSans-35"/>
      </g>
     </g>
    </g>
    <g id="xtick_3">
     <g id="line2d_3">
      <g>
       <use style="stroke:#000000;stroke-width:0.8;" x="236.16" xlink:href="#mb26a7d3b87" y="263.808"/>
      </g>
     </g>
     <g id="text_3">
      <!-- 1.0 -->
      <defs>
       <path d="M 12.40625 8.296875 
L 28.515625 8.296875 
L 28.515625 63.921875 
L 10.984375 60.40625 
L 10.984375 69.390625 
L 28.421875 72.90625 
L 38.28125 72.90625 
L 38.28125 8.296875 
L 54.390625 8.296875 
L 54.390625 0 
L 12.40625 0 
z
" id="DejaVuSans-31"/>
      </defs>
      <g transform="translate(228.208437 278.406437)scale(0.1 -0.1)">
       <use xlink:href="#DejaVuSans-31"/>
       <use x="63.623047" xlink:href="#DejaVuSans-2e"/>
       <use x="95.410156" xlink:href="#DejaVuSans-30"/>
      </g>
     </g>
    </g>
    <g id="xtick_4">
     <g id="line2d_4">
      <g>
       <use style="stroke:#000000;stroke-width:0.8;" x="310.56" xlink:href="#mb26a7d3b87" y="263.808"/>
      </g>
     </g>
     <g id="text_4">
      <!-- 1.5 -->
      <g transform="translate(302.608437 278.406437)scale(0.1 -0.1)">
       <use xlink:href="#DejaVuSans-31"/>
       <use x="63.623047" xlink:href="#DejaVuSans-2e"/>
       <use x="95.410156" xlink:href="#DejaVuSans-35"/>
      </g>
     </g>
    </g>
    <g id="xtick_5">
     <g id="line2d_5">
      <g>
       <use style="stroke:#000000;stroke-width:0.8;" x="384.96" xlink:href="#mb26a7d3b87" y="263.808"/>
      </g>
     </g>
     <g id="text_5">
      <!-- 2.0 -->
      <defs>
       <path d="M 19.1875 8.296875 
L 53.609375 8.296875 
L 53.609375 0 
L 7.328125 0 
L 7.328125 8.296875 
Q 12.9375 14.109375 22.625 23.890625 
Q 32.328125 33.6875 34.8125 36.53125 
Q 39.546875 41.84375 41.421875 45.53125 
Q 43.3125 49.21875 43.3125 52.78125 
Q 43.3125 58.59375 39.234375 62.25 
Q 35.15625 65.921875 28.609375 65.921875 
Q 23.96875 65.921875 18.8125 64.3125 
Q 13.671875 62.703125 7.8125 59.421875 
L 7.8125 69.390625 
Q 13.765625 71.78125 18.9375 73 
Q 24.125 74.21875 28.421875 74.21875 
Q 39.75 74.21875 46.484375 68.546875 
Q 53.21875 62.890625 53.21875 53.421875 
Q 53.21875 48.921875 51.53125 44.890625 
Q 49.859375 40.875 45.40625 35.40625 
Q 44.1875 33.984375 37.640625 27.21875 
Q 31.109375 20.453125 19.1875 8.296875 
z
" id="DejaVuSans-32"/>
      </defs>
      <g transform="translate(377.008437 278.406437)scale(0.1 -0.1)">
       <use xlink:href="#DejaVuSans-32"/>
       <use x="63.623047" xlink:href="#DejaVuSans-2e"/>
       <use x="95.410156" xlink:href="#DejaVuSans-30"/>
      </g>
     </g>
    </g>
   </g>
   <g id="matplotlib.axis_2">
    <g id="ytick_1">
     <g id="line2d_6">
      <defs>
       <path d="M 0 0 
L -3.5 0 
" id="m95e8e3499f" style="stroke:#000000;stroke-width:0.8;"/>
      </defs>
      <g>
       <use style="stroke:#000000;stroke-width:0.8;" x="57.6" xlink:href="#m95e8e3499f" y="248.928"/>
      </g>
     </g>
     <g id="text_6">
      <!-- 0.0 -->
      <g transform="translate(34.696875 252.727219)scale(0.1 -0.1)">
       <use xlink:href="#DejaVuSans-30"/>
       <use x="63.623047" xlink:href="#DejaVuSans-2e"/>
       <use x="95.410156" xlink:href="#DejaVuSans-30"/>
      </g>
     </g>
    </g>
    <g id="ytick_2">
     <g id="line2d_7">
      <g>
       <use style="stroke:#000000;stroke-width:0.8;" x="57.6" xlink:href="#m95e8e3499f" y="219.168"/>
      </g>
     </g>
     <g id="text_7">
      <!-- 0.2 -->
      <g transform="translate(34.696875 222.967219)scale(0.1 -0.1)">
       <use xlink:href="#DejaVuSans-30"/>
       <use x="63.623047" xlink:href="#DejaVuSans-2e"/>
       <use x="95.410156" xlink:href="#DejaVuSans-32"/>
      </g>
     </g>
    </g>
    <g id="ytick_3">
     <g id="line2d_8">
      <g>
       <use style="stroke:#000000;stroke-width:0.8;" x="57.6" xlink:href="#m95e8e3499f" y="189.408"/>
      </g>
     </g>
     <g id="text_8">
      <!-- 0.4 -->
      <defs>
       <path d="M 37.796875 64.3125 
L 12.890625 25.390625 
L 37.796875 25.390625 
z
M 35.203125 72.90625 
L 47.609375 72.90625 
L 47.609375 25.390625 
L 58.015625 25.390625 
L 58.015625 17.1875 
L 47.609375 17.1875 
L 47.609375 0 
L 37.796875 0 
L 37.796875 17.1875 
L 4.890625 17.1875 
L 4.890625 26.703125 
z
" id="DejaVuSans-34"/>
      </defs>
      <g transform="translate(34.696875 193.207219)scale(0.1 -0.1)">
       <use xlink:href="#DejaVuSans-30"/>
       <use x="63.623047" xlink:href="#DejaVuSans-2e"/>
       <use x="95.410156" xlink:href="#DejaVuSans-34"/>
      </g>
     </g>
    </g>
    <g id="ytick_4">
     <g id="line2d_9">
      <g>
       <use style="stroke:#000000;stroke-width:0.8;" x="57.6" xlink:href="#m95e8e3499f" y="159.648"/>
      </g>
     </g>
     <g id="text_9">
      <!-- 0.6 -->
      <defs>
       <path d="M 33.015625 40.375 
Q 26.375 40.375 22.484375 35.828125 
Q 18.609375 31.296875 18.609375 23.390625 
Q 18.609375 15.53125 22.484375 10.953125 
Q 26.375 6.390625 33.015625 6.390625 
Q 39.65625 6.390625 43.53125 10.953125 
Q 47.40625 15.53125 47.40625 23.390625 
Q 47.40625 31.296875 43.53125 35.828125 
Q 39.65625 40.375 33.015625 40.375 
z
M 52.59375 71.296875 
L 52.59375 62.3125 
Q 48.875 64.0625 45.09375 64.984375 
Q 41.3125 65.921875 37.59375 65.921875 
Q 27.828125 65.921875 22.671875 59.328125 
Q 17.53125 52.734375 16.796875 39.40625 
Q 19.671875 43.65625 24.015625 45.921875 
Q 28.375 48.1875 33.59375 48.1875 
Q 44.578125 48.1875 50.953125 41.515625 
Q 57.328125 34.859375 57.328125 23.390625 
Q 57.328125 12.15625 50.6875 5.359375 
Q 44.046875 -1.421875 33.015625 -1.421875 
Q 20.359375 -1.421875 13.671875 8.265625 
Q 6.984375 17.96875 6.984375 36.375 
Q 6.984375 53.65625 15.1875 63.9375 
Q 23.390625 74.21875 37.203125 74.21875 
Q 40.921875 74.21875 44.703125 73.484375 
Q 48.484375 72.75 52.59375 71.296875 
z
" id="DejaVuSans-36"/>
      </defs>
      <g transform="translate(34.696875 163.447219)scale(0.1 -0.1)">
       <use xlink:href="#DejaVuSans-30"/>
       <use x="63.623047" xlink:href="#DejaVuSans-2e"/>
       <use x="95.410156" xlink:href="#DejaVuSans-36"/>
      </g>
     </g>
    </g>
    <g id="ytick_5">
     <g id="line2d_10">
      <g>
       <use style="stroke:#000000;stroke-width:0.8;" x="57.6" xlink:href="#m95e8e3499f" y="129.888"/>
      </g>
     </g>
     <g id="text_10">
      <!-- 0.8 -->
      <defs>
       <path d="M 31.78125 34.625 
Q 24.75 34.625 20.71875 30.859375 
Q 16.703125 27.09375 16.703125 20.515625 
Q 16.703125 13.921875 20.71875 10.15625 
Q 24.75 6.390625 31.78125 6.390625 
Q 38.8125 6.390625 42.859375 10.171875 
Q 46.921875 13.96875 46.921875 20.515625 
Q 46.921875 27.09375 42.890625 30.859375 
Q 38.875 34.625 31.78125 34.625 
z
M 21.921875 38.8125 
Q 15.578125 40.375 12.03125 44.71875 
Q 8.5 49.078125 8.5 55.328125 
Q 8.5 64.0625 14.71875 69.140625 
Q 20.953125 74.21875 31.78125 74.21875 
Q 42.671875 74.21875 48.875 69.140625 
Q 55.078125 64.0625 55.078125 55.328125 
Q 55.078125 49.078125 51.53125 44.71875 
Q 48 40.375 41.703125 38.8125 
Q 48.828125 37.15625 52.796875 32.3125 
Q 56.78125 27.484375 56.78125 20.515625 
Q 56.78125 9.90625 50.3125 4.234375 
Q 43.84375 -1.421875 31.78125 -1.421875 
Q 19.734375 -1.421875 13.25 4.234375 
Q 6.78125 9.90625 6.78125 20.515625 
Q 6.78125 27.484375 10.78125 32.3125 
Q 14.796875 37.15625 21.921875 38.8125 
z
M 18.3125 54.390625 
Q 18.3125 48.734375 21.84375 45.5625 
Q 25.390625 42.390625 31.78125 42.390625 
Q 38.140625 42.390625 41.71875 45.5625 
Q 45.3125 48.734375 45.3125 54.390625 
Q 45.3125 60.0625 41.71875 63.234375 
Q 38.140625 66.40625 31.78125 66.40625 
Q 25.390625 66.40625 21.84375 63.234375 
Q 18.3125 60.0625 18.3125 54.390625 
z
" id="DejaVuSans-38"/>
      </defs>
      <g transform="translate(34.696875 133.687219)scale(0.1 -0.1)">
       <use xlink:href="#DejaVuSans-30"/>
       <use x="63.623047" xlink:href="#DejaVuSans-2e"/>
       <use x="95.410156" xlink:href="#DejaVuSans-38"/>
      </g>
     </g>
    </g>
    <g id="ytick_6">
     <g id="line2d_11">
      <g>
       <use style="stroke:#000000;stroke-width:0.8;" x="57.6" xlink:href="#m95e8e3499f" y="100.128"/>
      </g>
     </g>
     <g id="text_11">
      <!-- 1.0 -->
      <g transform="translate(34.696875 103.927219)scale(0.1 -0.1)">
       <use xlink:href="#DejaVuSans-31"/>
       <use x="63.623047" xlink:href="#DejaVuSans-2e"/>
       <use x="95.410156" xlink:href="#DejaVuSans-30"/>
      </g>
     </g>
    </g>
   </g>
   <g id="line2d_12">
    <path clip-path="url(#pb48b11de59)" d="M 236.16 248.928 
L 236.16 100.128 
" style="fill:none;stroke:#cc0000;stroke-dasharray:7.4,3.2;stroke-dashoffset:0;stroke-width:2;"/>
   </g>
   <g id="line2d_13">
    <path clip-path="url(#pb48b11de59)" d="M 87.36 248.928 
L 384.96 248.928 
" style="fill:none;stroke:#009900;stroke-linecap:square;stroke-width:2;"/>
   </g>
   <g id="line2d_14">
    <path clip-path="url(#pb48b11de59)" d="M 384.96 248.928 
L 384.96 100.128 
" style="fill:none;stroke:#009900;stroke-linecap:square;stroke-width:2;"/>
   </g>
   <g id="line2d_15">
    <path clip-path="url(#pb48b11de59)" d="M 384.96 100.128 
L 87.36 100.128 
" style="fill:none;stroke:#009900;stroke-linecap:square;stroke-width:2;"/>
   </g>
   <g id="line2d_16">
    <path clip-path="url(#pb48b11de59)" d="M 87.36 100.128 
L 87.36 248.928 
" style="fill:none;stroke:#009900;stroke-linecap:square;stroke-width:2;"/>
   </g>
   <g id="line2d_17">
    <path clip-path="url(#pb48b11de59)" d="M 165.273104 220.474882 
L 163.631808 214.754066 
L 162.658629 211.717144 
L 162.024786 207.29905 
L 161.657011 202.850897 
L 161.556626 198.388696 
L 161.723994 193.928504 
L 162.158511 189.486375 
L 162.858614 185.078295 
L 163.821784 180.720127 
L 165.044554 176.427558 
L 166.522523 172.216035 
L 168.250372 168.100715 
L 170.221883 164.09641 
L 172.429961 160.217529 
L 174.866659 156.478034 
L 177.523206 152.891382 
L 180.390044 149.470482 
L 183.456854 146.227644 
L 184.570132 145.141985 
L 182.268713 148.966222 
L 179.742119 152.645576 
L 176.999443 156.166804 
L 174.050556 159.517233 
L 170.906069 162.684807 
L 167.577301 165.658125 
L 164.07623 168.426486 
L 160.415457 170.979927 
L 156.608158 173.309259 
L 152.668033 175.406099 
L 148.609263 177.262899 
L 144.446456 178.872979 
L 140.194593 180.230542 
L 135.868976 181.330704 
L 131.485173 182.169505 
L 127.05896 182.743926 
L 125.510054 182.881527 
L 129.710653 181.37279 
L 133.994163 180.118652 
L 138.345168 179.123627 
L 142.748009 178.391297 
L 147.186841 177.924296 
L 151.645688 177.724306 
L 156.108505 177.792046 
L 160.559228 178.127272 
L 164.981842 178.728779 
L 169.360428 179.594401 
L 173.679229 180.721022 
L 177.922702 182.104589 
L 182.075574 183.740122 
L 186.122901 185.621735 
L 190.050115 187.742656 
L 193.843084 190.095251 
L 195.130312 190.967655 
L 190.921611 189.48167 
L 186.809588 187.745989 
L 182.809043 185.766858 
L 178.934374 183.5514 
L 175.199525 181.107587 
L 171.617937 178.444216 
L 168.202501 175.570871 
L 164.965507 172.497893 
L 161.918607 169.236341 
L 159.072765 165.797955 
L 156.438224 162.195107 
L 154.024464 158.440765 
L 151.840174 154.54844 
L 149.893213 150.532141 
L 148.190589 146.406321 
L 146.73843 142.185829 
L 146.29238 140.69617 
L 148.614459 144.507897 
L 150.703793 148.452007 
L 152.552863 152.514304 
L 154.155014 156.680169 
L 155.504481 160.934609 
L 156.596405 165.262313 
L 157.426858 169.647705 
L 157.992851 174.075004 
L 158.292348 178.528274 
L 158.324269 182.991491 
L 158.0885 187.44859 
L 157.58589 191.883531 
L 156.818248 196.280353 
L 155.788336 200.623232 
L 154.499861 204.896539 
L 152.95746 209.084894 
L 152.361524 210.521175 
L 152.971449 206.099715 
L 153.845406 201.722785 
L 154.980247 197.406136 
L 156.371891 193.165305 
L 158.015327 189.015554 
L 159.904642 184.971817 
L 162.033036 181.048648 
L 164.392848 177.260165 
L 166.975587 173.620003 
L 169.771957 170.141263 
L 172.771894 166.836464 
L 175.964602 163.7175 
L 179.338591 160.795597 
L 182.881717 158.081269 
L 186.581229 155.584285 
L 190.423814 153.313632 
L 191.79345 152.577331 
L 197.375025 150.511513 
L 202.869524 148.224144 
L 208.268158 145.718883 
L 213.56229 142.999738 
L 218.743451 140.07106 
L 223.803351 136.937532 
L 228.733896 133.60417 
L 233.527198 130.076304 
L 236.16 128.008696 
L 231.447274 124.373893 
L 226.592965 120.930456 
L 221.604837 117.683894 
L 216.490872 114.6394 
L 211.25925 111.801846 
L 205.918341 109.175771 
L 200.476689 106.765376 
L 194.943 104.574516 
L 189.326126 102.606698 
L 183.635053 100.865069 
L 180.94687 100.128 
L 175.224172 101.76272 
L 169.571423 103.624979 
L 163.997666 105.711799 
L 158.511818 108.019839 
L 153.122655 110.54541 
L 147.838799 113.284469 
L 142.668702 116.232635 
L 137.620636 119.385191 
L 132.702677 122.737094 
L 127.922692 126.282983 
L 123.288328 130.017183 
L 118.807 133.933722 
L 114.485875 138.026333 
L 110.331868 142.288469 
L 106.351624 146.713312 
L 102.55151 151.293783 
L 98.937605 156.022554 
L 95.515692 160.89206 
L 92.291244 165.894511 
L 89.26942 171.021904 
L 87.36 174.524173 
L 90.243298 179.730724 
L 93.332496 184.817809 
L 96.622652 189.777291 
L 100.108503 194.601234 
L 103.784471 199.281921 
L 107.644677 203.811865 
L 111.682945 208.183818 
L 115.892813 212.390787 
L 120.267549 216.426041 
L 124.800152 220.283124 
L 129.483371 223.955866 
L 134.309716 227.438391 
L 139.271463 230.725129 
L 144.360676 233.81082 
L 149.569213 236.690529 
L 154.888741 239.359649 
L 160.310751 241.813909 
L 165.826567 244.049384 
L 171.427367 246.062496 
L 177.10419 247.850026 
L 180.975858 248.928 
L 186.698885 247.294433 
L 192.352009 245.433313 
L 197.926186 243.347617 
L 203.412499 241.040681 
L 208.802171 238.516197 
L 214.086579 235.778203 
L 219.257269 232.831078 
L 224.30597 229.679539 
L 229.224605 226.328627 
L 234.005304 222.783702 
L 236.16 221.08622 
L 231.445458 217.453772 
L 226.589428 214.012761 
L 221.599679 210.768693 
L 216.484193 207.726755 
L 211.251154 204.891816 
L 205.908933 202.26841 
L 200.466077 199.860735 
L 194.931294 197.672642 
L 191.755293 196.530782 
L 187.867245 194.338887 
L 184.117629 191.917793 
L 180.519938 189.276214 
L 177.087121 186.423657 
L 173.831531 183.370387 
L 170.764887 180.127393 
L 167.898223 176.706346 
L 165.241858 173.119559 
L 162.805351 169.37994 
L 160.597471 165.500947 
L 158.626164 161.496541 
L 156.898524 157.381134 
L 155.420769 153.169536 
L 154.198218 148.876904 
L 153.23527 144.518688 
L 152.535391 140.110571 
L 152.350811 138.537624 
L 152.489916 132.587647 
L 152.390975 126.636866 
L 152.054144 120.694802 
L 151.479964 114.77096 
L 150.669353 108.874818 
L 149.623608 103.015808 
L 149.018532 100.128 
L 147.856821 105.965123 
L 146.929462 111.844034 
L 146.237938 117.755326 
L 145.783356 123.689543 
L 145.566444 129.637192 
L 145.587547 135.588758 
L 145.808879 140.921427 
L 146.788513 145.275923 
L 147.505272 149.681326 
L 147.956575 154.121782 
L 148.140799 158.581308 
L 148.05728 163.043857 
L 147.706319 167.493368 
L 147.089179 171.913827 
L 146.208082 176.289325 
L 145.066197 180.604116 
L 143.667635 184.84267 
L 142.017429 188.989734 
L 140.121518 193.030382 
L 137.986725 196.950073 
L 135.515406 200.892014 
L 139.283176 198.49927 
L 143.187644 196.336761 
L 147.21476 194.412272 
L 151.350029 192.732728 
L 155.578569 191.304173 
L 159.885161 190.131749 
L 164.254308 189.219675 
L 168.670283 188.571234 
L 173.117196 188.188759 
L 177.579041 188.073628 
L 182.039761 188.226253 
L 186.483303 188.646087 
L 190.893673 189.331618 
L 195.438643 190.326386 
L 191.913981 187.588125 
L 188.559858 184.643439 
L 185.388346 181.502924 
L 182.410858 178.177885 
L 179.638112 174.680287 
L 177.080084 171.022717 
L 174.745983 167.21834 
L 172.644207 163.280846 
L 170.782321 159.224407 
L 169.167026 155.063621 
L 167.804134 150.813462 
L 166.698552 146.489227 
L 165.854258 142.106479 
L 165.255571 137.492598 
L 163.868617 141.734965 
L 162.229768 145.88653 
L 160.344924 149.932353 
L 158.220869 153.857873 
L 155.865245 157.648962 
L 153.286531 161.291976 
L 150.494008 164.773805 
L 147.497726 168.081918 
L 144.308468 171.204409 
L 140.937711 174.13004 
L 137.397587 176.848283 
L 133.700837 179.349354 
L 129.860765 181.624253 
L 125.720192 183.746038 
L 130.181705 183.618694 
L 134.642826 183.759109 
L 139.0875 184.166778 
L 143.49973 184.840233 
L 147.863638 185.777052 
L 152.163517 186.973863 
L 156.383894 188.426358 
L 160.509578 190.12931 
L 164.525723 192.07659 
L 168.417874 194.26119 
L 172.172024 196.675249 
L 175.774662 199.310077 
L 179.212822 202.156192 
L 182.608356 205.336864 
L 180.981677 201.180515 
L 179.607158 196.934103 
L 178.489743 192.61291 
L 177.633455 188.232489 
L 177.041376 183.808604 
L 176.715636 179.357176 
L 176.657408 174.894225 
L 176.866901 170.435814 
L 177.343361 165.997987 
L 178.085073 161.596717 
L 179.089369 157.247843 
L 180.352633 152.967015 
L 181.87032 148.769642 
L 183.717301 144.499398 
L 180.354566 147.434245 
L 176.821896 150.162168 
L 173.132006 152.673349 
L 169.298175 154.958751 
L 165.334201 157.010148 
L 161.25435 158.820158 
L 157.073306 160.382267 
L 152.806114 161.690852 
L 148.468134 162.741205 
L 144.074976 163.529545 
L 139.642451 164.053036 
L 135.186511 164.309792 
L 130.723194 164.29889 
L 126.080074 164.002654 
L 129.978191 166.176592 
L 133.738934 168.580365 
L 137.348771 171.205322 
L 140.794709 174.042016 
L 144.064347 177.080237 
L 147.145917 180.309052 
L 150.028329 183.71684 
L 152.70121 187.291336 
L 155.15494 191.019677 
L 157.380688 194.888445 
L 159.370444 198.883716 
L 161.117048 202.991111 
L 162.614213 207.195848 
L 163.903534 211.666191 
L 164.633197 207.262907 
L 165.625585 202.9113 
L 166.877127 198.627031 
L 168.383319 194.425519 
L 170.13874 190.321884 
L 172.137072 186.330896 
L 174.371124 182.466918 
L 176.832856 178.743855 
L 179.513408 175.175108 
L 182.403133 171.773518 
L 185.49163 168.551329 
L 188.767786 165.520137 
L 192.219808 162.690851 
L 195.992025 159.967491 
L 191.601042 160.767853 
L 187.169966 161.303474 
L 182.714747 161.572427 
L 178.251416 161.573742 
L 173.796039 161.307416 
L 169.364648 160.774407 
L 164.973194 159.976634 
L 160.637479 158.916966 
L 156.373108 157.599219 
L 152.195428 156.028134 
L 148.119474 154.209366 
L 144.159915 152.149459 
L 140.331002 149.855829 
L 136.493648 147.225043 
L 138.729977 151.087704 
L 140.730662 155.077513 
L 142.488502 159.180112 
L 143.997171 163.380736 
L 145.251238 167.664266 
L 146.246191 172.015288 
L 146.978449 176.418141 
L 147.445377 180.856981 
L 147.645294 185.315832 
L 147.57748 189.778647 
L 147.242181 194.229365 
L 146.640601 198.651968 
L 145.774908 203.03054 
L 144.59472 207.530927 
L 144.143615 213.465409 
L 143.930186 219.413184 
L 143.954776 225.364737 
L 144.217344 231.310545 
L 144.717472 237.241098 
L 145.454358 243.146907 
L 146.409994 248.928 
L 147.378826 243.055782 
L 148.112058 237.149518 
L 148.608516 231.218657 
L 148.867405 225.272688 
L 148.888312 219.321121 
L 148.671203 213.373479 
L 148.37953 209.238273 
L 144.109204 213.38386 
L 140.008073 217.696899 
L 136.082698 222.170489 
L 132.339359 226.797475 
L 128.784044 231.570452 
L 125.422441 236.481787 
L 122.259928 241.523621 
L 119.301564 246.687889 
L 118.101877 248.928 
L 115.232134 243.713965 
L 112.156181 238.618861 
L 108.878939 233.650837 
L 105.40565 228.817841 
L 101.741871 224.127606 
L 97.893463 219.587635 
L 93.866583 215.205191 
L 89.667673 210.987284 
L 87.36 208.807147 
L 91.647938 204.679778 
L 95.767395 200.38424 
L 99.711782 195.927403 
L 103.474787 191.316397 
L 107.050392 186.5586 
L 110.432875 181.661623 
L 113.616826 176.633299 
L 116.59715 171.481673 
L 119.369081 166.214987 
L 121.928183 160.841667 
L 124.270362 155.370307 
L 126.391872 149.809662 
L 128.289319 144.168627 
L 129.959666 138.456226 
L 131.400243 132.681599 
L 132.608743 126.853983 
L 133.583234 120.982701 
L 134.322158 115.077147 
L 134.824331 109.146767 
L 135.08895 103.201049 
L 135.132434 100.128 
L 135.173566 103.103666 
L 135.434293 109.049556 
L 135.932583 114.980263 
L 136.66764 120.8863 
L 137.638288 126.758218 
L 138.842973 132.586624 
L 140.279769 138.362193 
L 141.678956 143.213599 
L 143.433429 147.317639 
L 144.938651 151.519499 
L 146.189203 155.804057 
L 147.180586 160.155893 
L 147.909231 164.559346 
L 148.372516 168.998567 
L 148.568775 173.457581 
L 148.497299 177.920339 
L 148.158348 182.37078 
L 147.55314 186.792889 
L 146.683854 191.170749 
L 145.553618 195.488606 
L 144.1665 199.730919 
L 142.527492 203.882421 
L 141.657554 205.828666 
L 144.657646 202.524007 
L 147.850499 199.405192 
L 151.224624 196.483446 
L 154.767876 193.769283 
L 158.467505 191.272472 
L 162.310195 189.001998 
L 166.282118 186.966034 
L 170.368977 185.171905 
L 174.556065 183.626069 
L 178.828314 182.334089 
L 183.170347 181.300615 
L 187.566538 180.529367 
L 192.001065 180.02312 
L 196.457969 179.783696 
L 198.589697 179.763783 
L 194.335653 178.413069 
L 190.170258 176.809696 
L 186.108503 174.959435 
L 182.165007 172.868944 
L 178.35396 170.545747 
L 174.68908 167.998204 
L 171.183556 165.235485 
L 167.850003 162.267533 
L 164.700419 159.105027 
L 161.746139 155.759351 
L 158.997795 152.242545 
L 156.465279 148.567266 
L 154.157704 144.74674 
L 152.083376 140.794717 
L 151.177233 138.865064 
L 151.721462 143.29509 
L 151.999069 147.749779 
L 152.009056 152.213098 
L 151.751387 156.668985 
L 151.226988 161.101402 
L 150.437748 165.494399 
L 149.386506 169.832164 
L 148.077046 174.099087 
L 146.514081 178.279812 
L 144.703235 182.359291 
L 142.651025 186.322845 
L 140.364838 190.156207 
L 137.852901 193.845583 
L 135.124255 197.377693 
L 133.747494 199.005326 
L 137.548105 196.665098 
L 141.482207 194.55698 
L 145.535641 192.68856 
L 149.693819 191.066562 
L 153.941776 189.696824 
L 158.264223 188.584276 
L 162.645606 187.732921 
L 167.070155 187.145823 
L 171.521947 186.825095 
L 175.98496 186.771891 
L 180.443133 186.986404 
L 184.88042 187.46786 
L 189.280853 188.214527 
L 193.628594 189.223719 
L 195.681806 189.797286 
L 191.971041 187.317056 
L 188.415677 184.618777 
L 185.028511 181.71216 
L 181.821732 178.607665 
L 178.806882 175.316465 
L 175.994811 171.850405 
L 173.395638 168.221959 
L 171.018719 164.444185 
L 168.872607 160.53068 
L 166.965027 156.495528 
L 165.302843 152.35325 
L 163.892038 148.118755 
L 162.737689 143.807282 
L 161.84395 139.434349 
L 161.510046 137.32884 
L 160.801114 141.735509 
L 159.829217 146.091738 
L 158.597851 150.38185 
L 157.111449 154.590404 
L 155.375359 158.702254 
L 153.395831 162.702602 
L 151.179988 166.577052 
L 148.735805 170.311659 
L 146.072078 173.892982 
L 143.198394 177.308133 
L 140.125094 180.544821 
L 136.863241 183.591398 
L 133.424571 186.436898 
L 129.821462 189.071082 
L 128.046447 190.251751 
L 132.34787 189.060498 
L 136.712984 188.12932 
L 141.126081 187.461566 
L 145.571278 187.059642 
L 150.032577 186.924992 
L 154.493922 187.058102 
L 158.939257 187.458492 
L 163.352584 188.124723 
L 167.71802 189.054395 
L 172.019853 190.244163 
L 176.242602 191.689745 
L 180.37107 193.38594 
L 184.390398 195.326641 
L 188.286121 197.504865 
L 190.098905 198.626682 
L 187.224042 195.212523 
L 184.559079 191.632119 
L 182.113607 187.898356 
L 179.896427 184.024671 
L 177.915519 180.025007 
L 176.17801 175.913756 
L 174.690156 171.705715 
L 173.45731 167.416029 
L 172.483909 163.060135 
L 171.773456 158.653711 
L 171.328509 154.212614 
L 171.150668 149.752828 
L 171.240574 145.290403 
L 171.597903 140.841399 
L 171.86257 138.726072 
L 169.956383 142.761882 
L 167.811622 146.676128 
L 165.436006 150.454722 
L 162.838086 154.084065 
L 160.027211 157.551095 
L 157.013497 160.843335 
L 153.80779 163.948937 
L 150.421627 166.856723 
L 146.867195 169.556229 
L 143.157286 172.037739 
L 139.305251 174.292322 
L 135.324955 176.311866 
L 131.23072 178.0891 
L 127.037283 179.61763 
L 125.003987 180.25823 
L 129.467019 180.309894 
L 133.918921 180.629085 
L 138.343673 181.214656 
L 142.725349 182.064499 
L 147.04818 183.175556 
L 151.296609 184.543828 
L 155.455347 186.16439 
L 159.509425 188.031411 
L 163.444254 190.138171 
L 167.245673 192.477088 
L 170.900001 195.039744 
L 174.394085 197.816918 
L 177.715352 200.798613 
L 180.851848 203.974099 
L 182.281252 205.555701 
L 186.85621 209.362449 
L 191.579739 212.983203 
L 196.444281 216.41217 
L 201.442054 219.643864 
L 206.565063 222.673115 
L 211.805111 225.495078 
L 217.153816 228.105237 
L 222.602622 230.499417 
L 228.142811 232.673789 
L 233.765519 234.624872 
L 236.16 235.380193 
L 243.531045 236.389357 
L 250.925013 237.213948 
L 258.337284 237.853452 
L 265.763224 238.307468 
L 273.198193 238.575714 
L 280.637544 238.658021 
L 288.076627 238.554337 
L 295.510795 238.264729 
L 302.935399 237.789376 
L 310.345802 237.128575 
L 317.73737 236.282741 
L 325.105485 235.252401 
L 332.445541 234.038199 
L 339.752952 232.640894 
L 347.023151 231.06136 
L 354.251594 229.300583 
L 361.433762 227.359664 
L 368.565169 225.239816 
L 375.641357 222.942364 
L 382.657903 220.468744 
L 384.96 219.613871 
L 377.964104 217.082437 
L 370.907115 214.726673 
L 363.793443 212.548052 
L 356.627535 210.547935 
L 349.413867 208.727572 
L 342.15695 207.0881 
L 334.861318 205.630545 
L 327.53153 204.355817 
L 320.172168 203.264713 
L 312.787831 202.357915 
L 305.383134 201.63599 
L 297.962704 201.099388 
L 290.53118 200.748445 
L 283.093205 200.583381 
L 275.653428 200.604299 
L 268.216499 200.811184 
L 260.787065 201.20391 
L 253.36977 201.782228 
L 245.969249 202.54578 
L 238.590128 203.494086 
L 236.16 203.847549 
L 243.531045 204.856712 
L 250.925013 205.681304 
L 258.337284 206.320808 
L 265.763224 206.774824 
L 273.198193 207.04307 
L 280.637544 207.125376 
L 288.076627 207.021693 
L 295.510795 206.732084 
L 302.935399 206.256731 
L 310.345802 205.595931 
L 317.73737 204.750097 
L 325.105485 203.719756 
L 332.445541 202.505554 
L 339.752952 201.10825 
L 347.023151 199.528715 
L 354.251594 197.767938 
L 361.433762 195.82702 
L 368.565169 193.707172 
L 375.641357 191.40972 
L 382.657903 188.936099 
L 384.96 188.081227 
L 377.964104 185.549793 
L 370.907115 183.194029 
L 363.793443 181.015408 
L 356.627535 179.01529 
L 349.413867 177.194927 
L 342.15695 175.555456 
L 334.861318 174.097901 
L 332.865807 173.732139 
L 326.938885 173.190677 
L 321.038357 172.412635 
L 315.173662 171.399256 
L 309.354183 170.152163 
L 303.589229 168.67335 
L 297.888023 166.965184 
L 292.259686 165.030396 
L 290.654011 164.431762 
L 283.433414 162.639087 
L 276.17026 161.027468 
L 268.86909 159.597912 
L 261.534466 158.351314 
L 254.170972 157.288452 
L 246.78321 156.409989 
L 239.375798 155.716477 
L 234.685551 155.273121 
L 228.769939 154.619582 
L 222.832924 154.203127 
L 216.884004 154.024422 
L 210.932697 154.083754 
L 204.988522 154.381027 
L 199.060991 154.915766 
L 193.781292 155.594515 
L 197.280807 150.780476 
L 200.585012 145.830343 
L 203.688622 140.752038 
L 206.586671 135.553683 
L 209.274523 130.243595 
L 211.747878 124.83027 
L 214.00278 119.322366 
L 216.03562 113.728697 
L 217.843147 108.058209 
L 219.42247 102.319976 
L 219.961192 100.128 
L 221.453289 105.88953 
L 223.174593 111.586783 
L 225.12235 117.210645 
L 227.293443 122.752119 
L 229.684399 128.20234 
L 232.291393 133.552589 
L 235.110255 138.794306 
L 236.16 140.625593 
L 233.267066 145.826796 
L 230.58444 151.139526 
L 228.116411 156.555282 
L 225.866929 162.065401 
L 223.839593 167.661068 
L 222.037645 173.333331 
L 220.463968 179.073115 
L 219.12108 184.871238 
L 218.01113 190.718425 
L 217.135893 196.60532 
L 216.496768 202.522507 
L 216.09478 208.460519 
L 215.93057 214.409857 
L 216.004401 220.361002 
L 216.316156 226.304434 
L 216.865335 232.230646 
L 217.65106 238.130156 
L 218.672074 243.993526 
L 219.720506 248.928 
L 220.939685 243.102609 
L 221.924935 237.233123 
L 222.674681 231.328933 
L 223.187722 225.399483 
L 223.463238 219.454261 
L 223.500788 213.502776 
L 223.300312 207.55455 
L 222.862131 201.619099 
L 222.186946 195.705919 
L 221.275836 189.824468 
L 220.13026 183.984157 
L 218.752051 178.194328 
L 217.143412 172.464244 
L 215.306918 166.803072 
L 213.245506 161.219868 
L 210.962475 155.723565 
L 208.461476 150.322955 
L 205.746511 145.026679 
L 202.821923 139.843208 
L 199.692391 134.780836 
L 196.362922 129.847661 
L 192.838841 125.051576 
L 189.125787 120.400253 
L 185.229699 115.901132 
L 181.156812 111.561413 
L 176.913639 107.388037 
L 172.50697 103.38768 
L 168.637762 100.128 
L 164.097646 103.976237 
L 159.71505 108.002951 
L 155.496985 112.201702 
L 151.450199 116.565772 
L 147.581167 121.088179 
L 143.896077 125.761689 
L 140.400826 130.578825 
L 137.101004 135.531881 
L 134.001892 140.612932 
L 131.108446 145.81385 
L 128.425296 151.126316 
L 125.956734 156.541829 
L 123.706709 162.051726 
L 121.678822 167.647193 
L 119.876315 173.319279 
L 118.302073 179.058908 
L 116.958615 184.856899 
L 115.848089 190.703976 
L 114.972271 196.590785 
L 114.332564 202.507909 
L 113.929991 208.445882 
L 113.765195 214.395203 
L 113.83844 220.346355 
L 114.14961 226.289819 
L 114.698205 232.216084 
L 115.483349 238.115671 
L 116.503786 243.979142 
L 117.555019 248.928 
L 118.774198 243.102609 
L 119.759449 237.233123 
L 120.509194 231.328933 
L 121.022235 225.399483 
L 121.297751 219.454261 
L 121.335301 213.502776 
L 121.134825 207.55455 
L 120.696644 201.619099 
L 120.021459 195.705919 
L 119.11035 189.824468 
L 117.964774 183.984157 
L 116.586564 178.194328 
L 114.977925 172.464244 
L 113.141431 166.803072 
L 111.080019 161.219868 
L 108.796988 155.723565 
L 106.295989 150.322955 
L 103.581024 145.026679 
L 100.656437 139.843208 
L 97.526905 134.780836 
L 94.197435 129.847661 
L 90.673354 125.051576 
L 87.36 120.88298 
L 91.05343 116.216059 
L 94.55728 111.405173 
L 97.865942 106.458019 
L 100.974124 101.38251 
L 101.700106 100.128 
L 104.758702 105.233543 
L 108.019018 110.212691 
L 111.47584 115.057479 
L 115.123636 119.760155 
L 118.956572 124.313196 
L 122.968514 128.70932 
L 127.153046 132.941491 
L 131.503472 137.002941 
L 136.012832 140.887172 
L 140.191539 144.218901 
L 138.199444 138.610591 
L 135.984669 133.08643 
L 133.550758 127.655256 
L 130.901605 122.325756 
L 128.041448 117.106456 
L 124.974863 112.005708 
L 121.706755 107.03167 
L 118.242352 102.192301 
L 116.673006 100.128 
L 113.124798 104.906264 
L 109.770508 109.822596 
L 106.615502 114.869131 
L 103.664828 120.037796 
L 100.923205 125.320322 
L 98.395019 130.708259 
L 96.084316 136.192986 
L 93.994792 141.765729 
L 92.12979 147.417574 
L 90.492292 153.139478 
L 89.08492 158.922287 
L 87.909924 164.756751 
L 87.36 168.006019 
L 88.4055 173.865073 
L 89.684463 179.677631 
L 91.194843 185.434395 
L 92.934224 191.126155 
L 94.899824 196.743806 
L 97.088497 202.27836 
L 99.496743 207.720964 
L 102.120709 213.062909 
L 104.956196 218.295652 
L 107.99867 223.410819 
L 111.243262 228.400228 
L 114.684781 233.255897 
L 118.317723 237.970058 
L 122.136275 242.535169 
L 126.134329 246.943928 
L 128.042242 248.928 
L 132.121163 244.593951 
L 136.023506 240.100255 
L 139.743027 235.454102 
L 143.273777 230.662924 
L 146.610106 225.734386 
L 149.746678 220.676372 
L 152.678474 215.496975 
L 154.958405 211.100918 
L 156.500758 206.912545 
L 158.291487 202.824195 
L 160.324147 198.85058 
L 162.591424 195.006003 
L 165.085157 191.304299 
L 167.796371 187.75879 
L 170.71531 184.382236 
L 173.831468 181.186789 
L 177.13363 178.18395 
L 180.609913 175.384526 
L 184.247805 172.79859 
L 188.034213 170.435451 
L 191.955511 168.303612 
L 195.997587 166.410745 
L 197.879599 165.627745 
L 193.428038 165.95165 
L 188.965063 166.008039 
L 184.506739 165.796708 
L 180.069109 165.318418 
L 175.668145 164.574891 
L 171.319685 163.568803 
L 167.039379 162.303774 
L 162.842631 160.784357 
L 158.744546 159.01602 
L 154.759871 157.005128 
L 150.902948 154.758917 
L 147.187657 152.285472 
L 143.62737 149.593694 
L 140.234898 146.69327 
L 138.744907 145.302232 
L 140.877314 149.223222 
L 142.770765 153.265024 
L 144.418446 157.413091 
L 145.814428 161.652496 
L 146.953686 165.967981 
L 147.83212 170.344015 
L 148.446569 174.764849 
L 148.794821 179.214572 
L 148.875624 183.677171 
L 148.688685 188.136585 
L 148.234679 192.576765 
L 147.515239 196.981731 
L 146.532954 201.335629 
L 145.291359 205.622792 
L 144.639333 207.554092 
L 147.330595 203.993415 
L 150.230528 200.600524 
L 153.328693 197.387629 
L 156.613942 194.366295 
L 160.07445 191.547394 
L 163.697764 188.941072 
L 167.470843 186.556708 
L 171.380109 184.402883 
L 175.411492 182.48735 
L 179.550484 180.817001 
L 183.782188 179.397849 
L 188.091376 178.235 
L 192.462539 177.33264 
L 196.879946 176.694016 
L 198.908184 176.490768 
L 194.554143 175.509113 
L 190.266801 174.268139 
L 186.061587 172.772311 
L 181.953637 171.027015 
L 177.957733 169.038529 
L 174.088258 166.814011 
L 170.359137 164.361467 
L 166.78379 161.689723 
L 163.375086 158.808395 
L 160.145291 155.727852 
L 157.10603 152.459181 
L 154.268241 149.014145 
L 151.642136 145.405144 
L 149.237167 141.645165 
L 148.214885 139.881646 
L 144.516175 135.218908 
L 140.633964 130.707808 
L 136.574463 126.355564 
L 132.344165 122.169139 
L 127.949838 118.155228 
L 123.398513 114.320255 
L 118.697471 110.670353 
L 113.854232 107.211363 
L 108.876544 103.948817 
L 103.772371 100.887936 
L 102.429593 100.128 
L 97.293956 103.135793 
L 92.282707 106.34655 
L 87.36 109.787116 
L 92.237601 113.197482 
L 97.247678 116.410067 
L 102.382217 119.419733 
L 107.633004 122.221665 
L 112.991638 124.81138 
L 118.449546 127.184735 
L 123.997998 129.337934 
L 129.628116 131.267531 
L 135.330895 132.970441 
L 141.09721 134.443938 
L 146.917836 135.685665 
L 152.783463 136.693636 
L 158.628655 137.460026 
L 164.315998 135.706258 
L 169.928661 133.726459 
L 175.457662 131.523797 
L 180.894159 129.101796 
L 186.229452 126.464331 
L 191.455007 123.61562 
L 196.562465 120.560221 
L 201.543653 117.303023 
L 206.390604 113.849236 
L 211.095564 110.204385 
L 215.651004 106.374301 
L 220.049639 102.365112 
L 222.357137 100.128 
L 226.668157 104.231254 
L 231.139814 108.158831 
L 236.16 112.210431 
L 231.522306 115.940495 
L 227.037485 119.853033 
L 222.71271 123.941787 
L 218.554902 128.200215 
L 214.570711 132.621505 
L 210.766512 137.198583 
L 207.14839 141.924128 
L 203.722133 146.790579 
L 200.493223 151.790151 
L 197.466825 156.914846 
L 195.903075 159.760115 
L 201.680237 161.190493 
L 207.509978 162.388702 
L 213.382971 163.352825 
L 219.289821 164.08132 
L 225.221078 164.573021 
L 231.167253 164.827141 
L 236.16 164.856764 
L 230.208646 164.911252 
L 224.264232 165.203687 
L 218.336267 165.733601 
L 212.434234 166.500146 
L 206.567576 167.502097 
L 200.745678 168.73785 
L 197.121844 169.529831 
L 192.704139 170.166385 
L 188.256213 170.536891 
L 183.794074 170.640015 
L 179.333781 170.475385 
L 174.891386 170.043594 
L 170.482876 169.346197 
L 166.124118 168.385702 
L 161.830799 167.165568 
L 157.61837 165.690184 
L 153.50199 163.964861 
L 149.496475 161.995808 
L 145.616241 159.790112 
L 141.875251 157.35571 
L 138.286969 154.701364 
L 134.864309 151.836627 
L 132.342055 149.411765 
L 128.089804 145.24764 
L 123.674433 141.25689 
L 119.103007 137.4459 
L 114.382838 133.820767 
L 109.521479 130.38729 
L 104.526706 127.150962 
L 99.406509 124.11696 
L 94.16908 121.290138 
L 88.822798 118.675019 
L 87.36 118.004997 
L 92.734246 115.447838 
L 98.001934 112.677812 
L 103.154637 109.699351 
L 108.184112 106.517219 
L 113.082312 103.136506 
L 117.114454 100.128 
L 121.895571 103.672361 
L 126.814601 107.022694 
L 131.863674 110.173638 
L 137.034712 113.120152 
L 142.319442 115.857523 
L 147.709412 118.381372 
L 153.195997 120.68766 
L 158.77042 122.772699 
L 164.423763 124.633153 
L 170.146983 126.266045 
L 175.930923 127.668763 
L 181.76633 128.839063 
L 187.64387 129.775073 
L 193.554138 130.475296 
L 199.48768 130.93861 
L 205.435003 131.164276 
L 211.386593 131.151932 
L 217.33293 130.901597 
L 223.264499 130.413672 
L 229.171811 129.688939 
L 235.045417 128.728555 
L 236.16 128.518951 
L 243.556981 127.721836 
L 250.931724 126.740065 
L 258.279622 125.574251 
L 265.596081 124.225124 
L 272.876529 122.693525 
L 280.116416 120.980413 
L 287.311217 119.086857 
L 294.456436 117.014042 
L 301.547607 114.763263 
L 308.580299 112.335927 
L 315.550116 109.73355 
L 322.452703 106.957759 
L 329.283745 104.010288 
L 336.038973 100.892981 
L 337.631474 100.128 
L 344.368077 103.285355 
L 351.181501 106.273326 
L 358.067488 109.090045 
L 365.021733 111.733753 
L 372.039891 114.202796 
L 379.117576 116.495632 
L 384.96 118.242516 
L 377.836822 120.389853 
L 370.769548 122.714579 
L 363.762594 125.215242 
L 356.82034 127.89028 
L 349.947125 130.73802 
L 343.147243 133.756683 
L 336.424944 136.944381 
L 329.784431 140.299124 
L 323.229852 143.818813 
L 316.765305 147.501251 
L 310.394829 151.344134 
L 308.914198 152.268761 
L 302.064734 149.364356 
L 295.144809 146.632079 
L 288.158745 144.073635 
L 281.11091 141.690624 
L 274.005709 139.484535 
L 266.847581 137.456747 
L 259.641001 135.608527 
L 252.390472 133.94103 
L 245.100525 132.455299 
L 237.775717 131.152262 
L 236.16 130.890189 
L 230.467407 129.153537 
L 224.709919 127.645916 
L 218.896748 126.36974 
L 213.037194 125.32705 
L 207.14063 124.519513 
L 201.21649 123.948421 
L 195.274251 123.614689 
L 189.32342 123.51885 
L 183.373516 123.661058 
L 177.434058 124.041085 
L 171.514548 124.658322 
L 165.624456 125.511783 
L 159.773204 126.600102 
L 153.970155 127.921539 
L 148.22459 129.473978 
L 142.545702 131.254937 
L 136.942576 133.261566 
L 131.424176 135.490656 
L 125.99933 137.938639 
L 120.676716 140.601601 
L 115.46485 143.47528 
L 110.372069 146.555079 
L 105.406521 149.836072 
L 100.57615 153.31301 
L 95.888683 156.980329 
L 91.351619 160.832164 
L 87.36 164.492233 
L 91.753893 168.506618 
L 96.304804 172.342083 
L 101.005453 175.992492 
L 105.848318 179.452005 
L 110.825654 182.715088 
L 115.929497 185.77652 
L 121.151682 188.631404 
L 126.483855 191.275174 
L 129.201757 192.522467 
L 128.484582 198.430702 
L 128.004247 204.36289 
L 127.76152 210.309542 
L 127.75679 216.261143 
L 127.990064 222.208173 
L 128.46097 228.141117 
L 129.168753 234.050485 
L 130.112282 239.926822 
L 131.290047 245.760727 
L 132.032098 248.928 
L 133.337114 243.121235 
L 134.408877 237.266929 
L 135.245673 231.374446 
L 135.846163 225.453214 
L 136.209387 219.512705 
L 136.334763 213.562422 
L 136.222091 207.611886 
L 135.834019 201.205397 
L 129.885756 201.006044 
L 123.934278 201.044718 
L 117.989108 201.321357 
L 112.059755 201.835517 
L 106.155707 202.586377 
L 100.286407 203.572736 
L 94.461246 204.793015 
L 88.689543 206.245262 
L 87.36 206.614849 
L 93.117987 208.120559 
L 98.931581 209.394807 
L 104.791481 210.435554 
L 110.688312 211.241134 
L 116.612642 211.81026 
L 122.554991 212.142021 
L 128.505854 212.235886 
L 134.45571 212.091705 
L 140.395042 211.709708 
L 146.314347 211.090507 
L 151.645548 210.326574 
L 156.231358 214.120243 
L 160.965206 217.727494 
L 165.83952 221.142557 
L 170.8465 224.359967 
L 175.978137 227.374578 
L 181.226222 230.181567 
L 186.582359 232.776443 
L 192.037978 235.155055 
L 197.584353 237.313598 
L 203.21261 239.248618 
L 208.913745 240.957021 
L 214.678638 242.436072 
L 220.498066 243.683406 
L 226.362719 244.697027 
L 232.263214 245.475314 
L 236.16 245.858376 
L 230.241069 246.481139 
L 224.351776 247.340099 
L 218.501543 248.43388 
L 216.213546 248.928 
L 210.381242 247.742328 
L 204.50619 246.790835 
L 198.597787 246.075042 
L 192.665487 245.596094 
L 186.718779 245.354759 
L 180.767176 245.351421 
L 174.820201 245.586087 
L 168.887367 246.05838 
L 162.978166 246.767546 
L 157.10205 247.71245 
L 151.105553 248.928 
L 145.27325 247.742328 
L 139.398197 246.790835 
L 133.489795 246.075042 
L 127.557494 245.596094 
L 121.610786 245.354759 
L 115.659184 245.351421 
L 109.712209 245.586087 
L 103.779375 246.05838 
L 97.870173 246.767546 
L 91.994057 247.71245 
L 87.36 248.629229 
L 88.787733 248.928 
L 94.594084 247.621146 
L 100.34353 246.083145 
L 106.026874 244.316457 
L 111.635023 242.32391 
L 117.159005 240.108691 
L 122.589984 237.674343 
L 127.919271 235.02476 
L 133.13834 232.164183 
L 138.238841 229.097187 
L 143.212615 225.828678 
L 148.051706 222.363886 
L 152.748371 218.708354 
L 157.295097 214.867929 
L 160.76822 211.714777 
L 164.973101 215.926731 
L 169.343052 219.967165 
L 173.871082 223.829616 
L 178.549946 227.507904 
L 183.372161 230.996146 
L 188.33001 234.28876 
L 193.415564 237.38048 
L 198.620685 240.266358 
L 203.937047 242.941779 
L 209.356144 245.402462 
L 214.869309 247.64447 
L 218.344613 248.928 
L 223.911885 246.82394 
L 229.390563 244.498931 
L 234.771884 241.956694 
L 236.16 241.25757 
L 230.805527 238.659264 
L 225.351432 236.277157 
L 219.806441 234.115062 
L 214.179425 232.176437 
L 208.479385 230.464383 
L 202.715441 228.981639 
L 196.896813 227.730578 
L 191.032811 226.7132 
L 185.132815 225.931134 
L 179.206264 225.38563 
L 173.262639 225.077561 
L 167.311449 225.00742 
L 161.362215 225.17532 
L 155.424454 225.580991 
L 149.507664 226.223785 
L 143.621312 227.102673 
L 137.774815 228.216249 
L 131.977526 229.562733 
L 126.238719 231.139969 
L 120.567575 232.945434 
L 114.973166 234.97624 
L 109.464443 237.229139 
L 104.050219 239.700526 
L 98.739154 242.386447 
L 93.539746 245.282606 
L 88.460312 248.384368 
L 87.615135 248.928 
L 87.615135 248.928 
" style="fill:none;stroke:#1f77b4;stroke-linecap:square;stroke-width:1.5;"/>
   </g>
   <g id="patch_5">
    <path d="M 57.6 263.808 
L 57.6 85.248 
" style="fill:none;stroke:#000000;stroke-linecap:square;stroke-linejoin:miter;stroke-width:0.8;"/>
   </g>
   <g id="patch_6">
    <path d="M 414.72 263.808 
L 414.72 85.248 
" style="fill:none;stroke:#000000;stroke-linecap:square;stroke-linejoin:miter;stroke-width:0.8;"/>
   </g>
   <g id="patch_7">
    <path d="M 57.6 263.808 
L 414.72 263.808 
" style="fill:none;stroke:#000000;stroke-linecap:square;stroke-linejoin:miter;stroke-width:0.8;"/>
   </g>
   <g id="patch_8">
    <path d="M 57.6 85.248 
L 414.72 85.248 
" style="fill:none;stroke:#000000;stroke-linecap:square;stroke-linejoin:miter;stroke-width:0.8;"/>
   </g>
  </g>
 </g>
 <defs>
  <clipPath id="pb48b11de59">
   <rect height="178.56" width="357.12" x="57.6" y="85.248"/>
  </clipPath>
 </defs>
</svg>
