<?xml version="1.0" encoding="utf-8" standalone="no"?>
<!DOCTYPE svg PUBLIC "-//W3C//DTD SVG 1.1//EN"
  "http://www.w3.org/Graphics/SVG/1.1/DTD/svg11.dtd">
<!-- Created with matplotlib (http://matplotlib.org/) -->
<svg height="345.6pt" version="1.1" viewBox="0 0 460.8 345.6" width="460.8pt" xmlns="http://www.w3.org/2000/svg" xmlns:xlink="http://www.w3.org/1999/xlink">
 <defs>
  <style type="text/css">
*{stroke-linecap:butt;stroke-linejoin:round;}
  </style>
 </defs>
 <g id="figure_1">
  <g id="patch_1">
   <path d="M 0 345.6 
L 460.8 345.6 
L 460.8 0 
L 0 0 
z
" style="fill:#ffffff;"/>
  </g>
  <g id="axes_1">
   <g id="patch_2">
    <path d="M 57.6 263.808 
L 414.72 263.808 
L 414.72 85.248 
L 57.6 85.248 
z
" style="fill:#ffffff;"/>
   </g>
   <g id="PathCollection_1">
    <defs>
     <path d="M 0 3 
C 0.795609 3 1.55874 2.683901 2.12132 2.12132 
C 2.683901 1.55874 3 0.795609 3 0 
C 3 -0.795609 2.683901 -1.55874 2.12132 -2.12132 
C 1.55874 -2.683901 0.795609 -3 0 -3 
C -0.795609 -3 -1.55874 -2.683901 -2.12132 -2.12132 
C -2.683901 -1.55874 -3 -0.795609 -3 0 
C -3 0.795609 -2.683901 1.55874 -2.12132 2.12132 
C -1.55874 2.683901 -0.795609 3 0 3 
z
" id="ma7aa3b9eec" style="stroke:#000000;"/>
    </defs>
    <g clip-path="url(#p8efe7b2716)">
     <use style="stroke:#000000;" x="234.263737" xlink:href="#ma7aa3b9eec" y="196.233187"/>
    </g>
   </g>
   <g id="patch_3">
    <path clip-path="url(#p8efe7b2716)" d="M 161.76 211.728 
C 171.625555 211.728 181.088371 207.808373 188.064372 200.832372 
C 195.040373 193.856371 198.96 184.393555 198.96 174.528 
C 198.96 164.662445 195.040373 155.199629 188.064372 148.223628 
C 181.088371 141.247627 171.625555 137.328 161.76 137.328 
C 151.894445 137.328 142.431629 141.247627 135.455628 148.223628 
C 128.479627 155.199629 124.56 164.662445 124.56 174.528 
C 124.56 184.393555 128.479627 193.856371 135.455628 200.832372 
C 142.431629 207.808373 151.894445 211.728 161.76 211.728 
z
" style="fill:#cc0000;fill-opacity:0.1;stroke:#cc0000;stroke-dasharray:7.4,3.2;stroke-dashoffset:0;stroke-linejoin:miter;stroke-width:2;"/>
   </g>
   <g id="patch_4">
    <path clip-path="url(#p8efe7b2716)" d="M 310.56 196.848 
C 316.479333 196.848 322.157023 194.496224 326.342623 190.310623 
C 330.528224 186.125023 332.88 180.447333 332.88 174.528 
C 332.88 168.608667 330.528224 162.930977 326.342623 158.745377 
C 322.157023 154.559776 316.479333 152.208 310.56 152.208 
C 304.640667 152.208 298.962977 154.559776 294.777377 158.745377 
C 290.591776 162.930977 288.24 168.608667 288.24 174.528 
C 288.24 180.447333 290.591776 186.125023 294.777377 190.310623 
C 298.962977 194.496224 304.640667 196.848 310.56 196.848 
z
" style="fill:#cc0000;fill-opacity:0.1;stroke:#cc0000;stroke-dasharray:7.4,3.2;stroke-dashoffset:0;stroke-linejoin:miter;stroke-width:2;"/>
   </g>
   <g id="matplotlib.axis_1">
    <g id="xtick_1">
     <g id="line2d_1">
      <defs>
       <path d="M 0 0 
L 0 3.5 
" id="md96c10f47c" style="stroke:#000000;stroke-width:0.8;"/>
      </defs>
      <g>
       <use style="stroke:#000000;stroke-width:0.8;" x="87.36" xlink:href="#md96c10f47c" y="263.808"/>
      </g>
     </g>
     <g id="text_1">
      <!-- 0.0 -->
      <defs>
       <path d="M 31.78125 66.40625 
Q 24.171875 66.40625 20.328125 58.90625 
Q 16.5 51.421875 16.5 36.375 
Q 16.5 21.390625 20.328125 13.890625 
Q 24.171875 6.390625 31.78125 6.390625 
Q 39.453125 6.390625 43.28125 13.890625 
Q 47.125 21.390625 47.125 36.375 
Q 47.125 51.421875 43.28125 58.90625 
Q 39.453125 66.40625 31.78125 66.40625 
z
M 31.78125 74.21875 
Q 44.046875 74.21875 50.515625 64.515625 
Q 56.984375 54.828125 56.984375 36.375 
Q 56.984375 17.96875 50.515625 8.265625 
Q 44.046875 -1.421875 31.78125 -1.421875 
Q 19.53125 -1.421875 13.0625 8.265625 
Q 6.59375 17.96875 6.59375 36.375 
Q 6.59375 54.828125 13.0625 64.515625 
Q 19.53125 74.21875 31.78125 74.21875 
z
" id="DejaVuSans-30"/>
       <path d="M 10.6875 12.40625 
L 21 12.40625 
L 21 0 
L 10.6875 0 
z
" id="DejaVuSans-2e"/>
      </defs>
      <g transform="translate(79.408438 278.406437)scale(0.1 -0.1)">
       <use xlink:href="#DejaVuSans-30"/>
       <use x="63.623047" xlink:href="#DejaVuSans-2e"/>
       <use x="95.410156" xlink:href="#DejaVuSans-30"/>
      </g>
     </g>
    </g>
    <g id="xtick_2">
     <g id="line2d_2">
      <g>
       <use style="stroke:#000000;stroke-width:0.8;" x="161.76" xlink:href="#md96c10f47c" y="263.808"/>
      </g>
     </g>
     <g id="text_2">
      <!-- 0.5 -->
      <defs>
       <path d="M 10.796875 72.90625 
L 49.515625 72.90625 
L 49.515625 64.59375 
L 19.828125 64.59375 
L 19.828125 46.734375 
Q 21.96875 47.46875 24.109375 47.828125 
Q 26.265625 48.1875 28.421875 48.1875 
Q 40.625 48.1875 47.75 41.5 
Q 54.890625 34.8125 54.890625 23.390625 
Q 54.890625 11.625 47.5625 5.09375 
Q 40.234375 -1.421875 26.90625 -1.421875 
Q 22.3125 -1.421875 17.546875 -0.640625 
Q 12.796875 0.140625 7.71875 1.703125 
L 7.71875 11.625 
Q 12.109375 9.234375 16.796875 8.0625 
Q 21.484375 6.890625 26.703125 6.890625 
Q 35.15625 6.890625 40.078125 11.328125 
Q 45.015625 15.765625 45.015625 23.390625 
Q 45.015625 31 40.078125 35.4375 
Q 35.15625 39.890625 26.703125 39.890625 
Q 22.75 39.890625 18.8125 39.015625 
Q 14.890625 38.140625 10.796875 36.28125 
z
" id="DejaVuSans-35"/>
      </defs>
      <g transform="translate(153.808437 278.406437)scale(0.1 -0.1)">
       <use xlink:href="#DejaVuSans-30"/>
       <use x="63.623047" xlink:href="#DejaVuSans-2e"/>
       <use x="95.410156" xlink:href="#DejaVuSans-35"/>
      </g>
     </g>
    </g>
    <g id="xtick_3">
     <g id="line2d_3">
      <g>
       <use style="stroke:#000000;stroke-width:0.8;" x="236.16" xlink:href="#md96c10f47c" y="263.808"/>
      </g>
     </g>
     <g id="text_3">
      <!-- 1.0 -->
      <defs>
       <path d="M 12.40625 8.296875 
L 28.515625 8.296875 
L 28.515625 63.921875 
L 10.984375 60.40625 
L 10.984375 69.390625 
L 28.421875 72.90625 
L 38.28125 72.90625 
L 38.28125 8.296875 
L 54.390625 8.296875 
L 54.390625 0 
L 12.40625 0 
z
" id="DejaVuSans-31"/>
      </defs>
      <g transform="translate(228.208437 278.406437)scale(0.1 -0.1)">
       <use xlink:href="#DejaVuSans-31"/>
       <use x="63.623047" xlink:href="#DejaVuSans-2e"/>
       <use x="95.410156" xlink:href="#DejaVuSans-30"/>
      </g>
     </g>
    </g>
    <g id="xtick_4">
     <g id="line2d_4">
      <g>
       <use style="stroke:#000000;stroke-width:0.8;" x="310.56" xlink:href="#md96c10f47c" y="263.808"/>
      </g>
     </g>
     <g id="text_4">
      <!-- 1.5 -->
      <g transform="translate(302.608437 278.406437)scale(0.1 -0.1)">
       <use xlink:href="#DejaVuSans-31"/>
       <use x="63.623047" xlink:href="#DejaVuSans-2e"/>
       <use x="95.410156" xlink:href="#DejaVuSans-35"/>
      </g>
     </g>
    </g>
    <g id="xtick_5">
     <g id="line2d_5">
      <g>
       <use style="stroke:#000000;stroke-width:0.8;" x="384.96" xlink:href="#md96c10f47c" y="263.808"/>
      </g>
     </g>
     <g id="text_5">
      <!-- 2.0 -->
      <defs>
       <path d="M 19.1875 8.296875 
L 53.609375 8.296875 
L 53.609375 0 
L 7.328125 0 
L 7.328125 8.296875 
Q 12.9375 14.109375 22.625 23.890625 
Q 32.328125 33.6875 34.8125 36.53125 
Q 39.546875 41.84375 41.421875 45.53125 
Q 43.3125 49.21875 43.3125 52.78125 
Q 43.3125 58.59375 39.234375 62.25 
Q 35.15625 65.921875 28.609375 65.921875 
Q 23.96875 65.921875 18.8125 64.3125 
Q 13.671875 62.703125 7.8125 59.421875 
L 7.8125 69.390625 
Q 13.765625 71.78125 18.9375 73 
Q 24.125 74.21875 28.421875 74.21875 
Q 39.75 74.21875 46.484375 68.546875 
Q 53.21875 62.890625 53.21875 53.421875 
Q 53.21875 48.921875 51.53125 44.890625 
Q 49.859375 40.875 45.40625 35.40625 
Q 44.1875 33.984375 37.640625 27.21875 
Q 31.109375 20.453125 19.1875 8.296875 
z
" id="DejaVuSans-32"/>
      </defs>
      <g transform="translate(377.008437 278.406437)scale(0.1 -0.1)">
       <use xlink:href="#DejaVuSans-32"/>
       <use x="63.623047" xlink:href="#DejaVuSans-2e"/>
       <use x="95.410156" xlink:href="#DejaVuSans-30"/>
      </g>
     </g>
    </g>
   </g>
   <g id="matplotlib.axis_2">
    <g id="ytick_1">
     <g id="line2d_6">
      <defs>
       <path d="M 0 0 
L -3.5 0 
" id="mc636669bb7" style="stroke:#000000;stroke-width:0.8;"/>
      </defs>
      <g>
       <use style="stroke:#000000;stroke-width:0.8;" x="57.6" xlink:href="#mc636669bb7" y="248.928"/>
      </g>
     </g>
     <g id="text_6">
      <!-- 0.0 -->
      <g transform="translate(34.696875 252.727219)scale(0.1 -0.1)">
       <use xlink:href="#DejaVuSans-30"/>
       <use x="63.623047" xlink:href="#DejaVuSans-2e"/>
       <use x="95.410156" xlink:href="#DejaVuSans-30"/>
      </g>
     </g>
    </g>
    <g id="ytick_2">
     <g id="line2d_7">
      <g>
       <use style="stroke:#000000;stroke-width:0.8;" x="57.6" xlink:href="#mc636669bb7" y="219.168"/>
      </g>
     </g>
     <g id="text_7">
      <!-- 0.2 -->
      <g transform="translate(34.696875 222.967219)scale(0.1 -0.1)">
       <use xlink:href="#DejaVuSans-30"/>
       <use x="63.623047" xlink:href="#DejaVuSans-2e"/>
       <use x="95.410156" xlink:href="#DejaVuSans-32"/>
      </g>
     </g>
    </g>
    <g id="ytick_3">
     <g id="line2d_8">
      <g>
       <use style="stroke:#000000;stroke-width:0.8;" x="57.6" xlink:href="#mc636669bb7" y="189.408"/>
      </g>
     </g>
     <g id="text_8">
      <!-- 0.4 -->
      <defs>
       <path d="M 37.796875 64.3125 
L 12.890625 25.390625 
L 37.796875 25.390625 
z
M 35.203125 72.90625 
L 47.609375 72.90625 
L 47.609375 25.390625 
L 58.015625 25.390625 
L 58.015625 17.1875 
L 47.609375 17.1875 
L 47.609375 0 
L 37.796875 0 
L 37.796875 17.1875 
L 4.890625 17.1875 
L 4.890625 26.703125 
z
" id="DejaVuSans-34"/>
      </defs>
      <g transform="translate(34.696875 193.207219)scale(0.1 -0.1)">
       <use xlink:href="#DejaVuSans-30"/>
       <use x="63.623047" xlink:href="#DejaVuSans-2e"/>
       <use x="95.410156" xlink:href="#DejaVuSans-34"/>
      </g>
     </g>
    </g>
    <g id="ytick_4">
     <g id="line2d_9">
      <g>
       <use style="stroke:#000000;stroke-width:0.8;" x="57.6" xlink:href="#mc636669bb7" y="159.648"/>
      </g>
     </g>
     <g id="text_9">
      <!-- 0.6 -->
      <defs>
       <path d="M 33.015625 40.375 
Q 26.375 40.375 22.484375 35.828125 
Q 18.609375 31.296875 18.609375 23.390625 
Q 18.609375 15.53125 22.484375 10.953125 
Q 26.375 6.390625 33.015625 6.390625 
Q 39.65625 6.390625 43.53125 10.953125 
Q 47.40625 15.53125 47.40625 23.390625 
Q 47.40625 31.296875 43.53125 35.828125 
Q 39.65625 40.375 33.015625 40.375 
z
M 52.59375 71.296875 
L 52.59375 62.3125 
Q 48.875 64.0625 45.09375 64.984375 
Q 41.3125 65.921875 37.59375 65.921875 
Q 27.828125 65.921875 22.671875 59.328125 
Q 17.53125 52.734375 16.796875 39.40625 
Q 19.671875 43.65625 24.015625 45.921875 
Q 28.375 48.1875 33.59375 48.1875 
Q 44.578125 48.1875 50.953125 41.515625 
Q 57.328125 34.859375 57.328125 23.390625 
Q 57.328125 12.15625 50.6875 5.359375 
Q 44.046875 -1.421875 33.015625 -1.421875 
Q 20.359375 -1.421875 13.671875 8.265625 
Q 6.984375 17.96875 6.984375 36.375 
Q 6.984375 53.65625 15.1875 63.9375 
Q 23.390625 74.21875 37.203125 74.21875 
Q 40.921875 74.21875 44.703125 73.484375 
Q 48.484375 72.75 52.59375 71.296875 
z
" id="DejaVuSans-36"/>
      </defs>
      <g transform="translate(34.696875 163.447219)scale(0.1 -0.1)">
       <use xlink:href="#DejaVuSans-30"/>
       <use x="63.623047" xlink:href="#DejaVuSans-2e"/>
       <use x="95.410156" xlink:href="#DejaVuSans-36"/>
      </g>
     </g>
    </g>
    <g id="ytick_5">
     <g id="line2d_10">
      <g>
       <use style="stroke:#000000;stroke-width:0.8;" x="57.6" xlink:href="#mc636669bb7" y="129.888"/>
      </g>
     </g>
     <g id="text_10">
      <!-- 0.8 -->
      <defs>
       <path d="M 31.78125 34.625 
Q 24.75 34.625 20.71875 30.859375 
Q 16.703125 27.09375 16.703125 20.515625 
Q 16.703125 13.921875 20.71875 10.15625 
Q 24.75 6.390625 31.78125 6.390625 
Q 38.8125 6.390625 42.859375 10.171875 
Q 46.921875 13.96875 46.921875 20.515625 
Q 46.921875 27.09375 42.890625 30.859375 
Q 38.875 34.625 31.78125 34.625 
z
M 21.921875 38.8125 
Q 15.578125 40.375 12.03125 44.71875 
Q 8.5 49.078125 8.5 55.328125 
Q 8.5 64.0625 14.71875 69.140625 
Q 20.953125 74.21875 31.78125 74.21875 
Q 42.671875 74.21875 48.875 69.140625 
Q 55.078125 64.0625 55.078125 55.328125 
Q 55.078125 49.078125 51.53125 44.71875 
Q 48 40.375 41.703125 38.8125 
Q 48.828125 37.15625 52.796875 32.3125 
Q 56.78125 27.484375 56.78125 20.515625 
Q 56.78125 9.90625 50.3125 4.234375 
Q 43.84375 -1.421875 31.78125 -1.421875 
Q 19.734375 -1.421875 13.25 4.234375 
Q 6.78125 9.90625 6.78125 20.515625 
Q 6.78125 27.484375 10.78125 32.3125 
Q 14.796875 37.15625 21.921875 38.8125 
z
M 18.3125 54.390625 
Q 18.3125 48.734375 21.84375 45.5625 
Q 25.390625 42.390625 31.78125 42.390625 
Q 38.140625 42.390625 41.71875 45.5625 
Q 45.3125 48.734375 45.3125 54.390625 
Q 45.3125 60.0625 41.71875 63.234375 
Q 38.140625 66.40625 31.78125 66.40625 
Q 25.390625 66.40625 21.84375 63.234375 
Q 18.3125 60.0625 18.3125 54.390625 
z
" id="DejaVuSans-38"/>
      </defs>
      <g transform="translate(34.696875 133.687219)scale(0.1 -0.1)">
       <use xlink:href="#DejaVuSans-30"/>
       <use x="63.623047" xlink:href="#DejaVuSans-2e"/>
       <use x="95.410156" xlink:href="#DejaVuSans-38"/>
      </g>
     </g>
    </g>
    <g id="ytick_6">
     <g id="line2d_11">
      <g>
       <use style="stroke:#000000;stroke-width:0.8;" x="57.6" xlink:href="#mc636669bb7" y="100.128"/>
      </g>
     </g>
     <g id="text_11">
      <!-- 1.0 -->
      <g transform="translate(34.696875 103.927219)scale(0.1 -0.1)">
       <use xlink:href="#DejaVuSans-31"/>
       <use x="63.623047" xlink:href="#DejaVuSans-2e"/>
       <use x="95.410156" xlink:href="#DejaVuSans-30"/>
      </g>
     </g>
    </g>
   </g>
   <g id="line2d_12">
    <path clip-path="url(#p8efe7b2716)" d="M 236.16 248.928 
L 236.16 100.128 
" style="fill:none;stroke:#cc0000;stroke-dasharray:7.4,3.2;stroke-dashoffset:0;stroke-width:2;"/>
   </g>
   <g id="line2d_13">
    <path clip-path="url(#p8efe7b2716)" d="M 87.36 248.928 
L 384.96 248.928 
" style="fill:none;stroke:#009900;stroke-linecap:square;stroke-width:2;"/>
   </g>
   <g id="line2d_14">
    <path clip-path="url(#p8efe7b2716)" d="M 384.96 248.928 
L 384.96 100.128 
" style="fill:none;stroke:#009900;stroke-linecap:square;stroke-width:2;"/>
   </g>
   <g id="line2d_15">
    <path clip-path="url(#p8efe7b2716)" d="M 384.96 100.128 
L 87.36 100.128 
" style="fill:none;stroke:#009900;stroke-linecap:square;stroke-width:2;"/>
   </g>
   <g id="line2d_16">
    <path clip-path="url(#p8efe7b2716)" d="M 87.36 100.128 
L 87.36 248.928 
" style="fill:none;stroke:#009900;stroke-linecap:square;stroke-width:2;"/>
   </g>
   <g id="line2d_17">
    <path clip-path="url(#p8efe7b2716)" d="M 234.263737 196.233187 
L 231.197664 191.132131 
L 227.930056 186.157765 
L 224.46614 181.318048 
L 220.811457 176.620721 
L 216.971855 172.0733 
L 212.953476 167.68306 
L 208.762748 163.457024 
L 204.406376 159.401952 
L 199.891329 155.524333 
L 195.22483 151.830369 
L 190.414345 148.32597 
L 185.467569 145.016742 
L 180.392416 141.90798 
L 175.197006 139.004656 
L 169.889649 136.311416 
L 164.478836 133.832567 
L 158.973225 131.572076 
L 153.381621 129.533559 
L 147.712971 127.720278 
L 141.976344 126.135132 
L 136.180916 124.780658 
L 130.33596 123.659022 
L 124.450826 122.77202 
L 118.534928 122.12107 
L 112.597731 121.707213 
L 106.648734 121.531112 
L 100.697453 121.593049 
L 94.753409 121.892923 
L 88.826112 122.430256 
L 87.36 122.60015 
L 93.281676 123.196248 
L 99.222453 123.555065 
L 105.172827 123.676027 
L 111.123278 123.558941 
L 117.064288 123.203995 
L 122.986351 122.611755 
L 128.879994 121.783169 
L 134.735788 120.719563 
L 140.544365 119.422639 
L 146.296433 117.894471 
L 151.982789 116.137504 
L 157.594337 114.154549 
L 163.122099 111.948778 
L 168.557232 109.52372 
L 173.891042 106.883254 
L 179.114994 104.031605 
L 184.220732 100.973334 
L 185.55426 100.128 
L 190.62726 103.240274 
L 195.82066 106.147192 
L 201.126152 108.844104 
L 206.535248 111.326696 
L 212.039295 113.590996 
L 217.629486 115.633382 
L 223.29688 117.450586 
L 229.032409 119.039701 
L 234.826898 120.398185 
L 236.16 120.676351 
L 243.570974 121.330703 
L 250.99599 121.799595 
L 258.430407 122.082734 
L 265.869578 122.179944 
L 273.308854 122.091164 
L 280.743587 121.816449 
L 288.169129 121.35597 
L 295.58084 120.710017 
L 302.974088 119.878991 
L 310.344252 118.863414 
L 317.686726 117.663919 
L 324.996922 116.281256 
L 332.27027 114.716289 
L 339.502226 112.969997 
L 346.688269 111.04347 
L 353.823908 108.937913 
L 360.904684 106.654641 
L 367.926171 104.195082 
L 374.883982 101.560772 
L 378.461739 100.128 
L 384.96 102.690748 
L 378.041055 105.425509 
L 371.192634 108.332372 
L 364.419018 111.409519 
L 357.724438 114.655027 
L 351.11308 118.066868 
L 344.589075 121.64291 
L 338.1565 125.380917 
L 331.819376 129.278554 
L 325.581663 133.333384 
L 319.447259 137.542874 
L 313.419998 141.904393 
L 307.503647 146.415215 
L 301.701904 151.07252 
L 296.018395 155.873399 
L 290.45667 160.81485 
L 285.020208 165.893786 
L 279.712404 171.107032 
L 274.536576 176.45133 
L 269.495959 181.923341 
L 264.593704 187.519644 
L 259.832873 193.236742 
L 255.216443 199.071062 
L 250.747297 205.018957 
L 246.428231 211.076711 
L 242.261942 217.240537 
L 238.251034 223.506583 
L 236.16 226.915878 
L 240.086337 233.23526 
L 244.169416 239.45452 
L 248.406684 245.569769 
L 250.831668 248.928 
L 255.153641 242.872319 
L 259.322887 236.710493 
L 263.3368 230.446372 
L 267.192873 224.08387 
L 270.888694 217.626966 
L 274.421955 211.079693 
L 277.790447 204.446143 
L 280.992065 197.730463 
L 284.024808 190.936849 
L 286.886781 184.069548 
L 288.756554 179.302111 
L 283.37428 174.165785 
L 277.865293 169.165607 
L 272.233037 164.304701 
L 266.48103 159.586107 
L 260.612868 155.012771 
L 254.632219 150.587554 
L 248.542819 146.313221 
L 242.348475 142.192442 
L 236.16 138.29332 
L 233.354229 133.044584 
L 230.340808 127.912248 
L 227.124559 122.904521 
L 223.710627 118.029416 
L 220.104474 113.294732 
L 216.311868 108.708042 
L 212.338877 104.276685 
L 208.313302 100.128 
L 204.171188 104.401696 
L 200.20329 108.837613 
L 196.415955 113.428656 
L 192.815242 118.167479 
L 189.406912 123.046502 
L 186.196416 128.057919 
L 183.188893 133.193713 
L 180.389151 138.445668 
L 176.770561 145.434934 
L 174.427877 149.234032 
L 171.861599 152.885817 
L 169.080963 156.377147 
L 166.095976 159.695456 
L 162.917382 162.828802 
L 159.55662 165.765909 
L 156.025785 168.496205 
L 152.337583 171.009866 
L 148.50529 173.297844 
L 144.542696 175.351905 
L 140.464062 177.164657 
L 136.284069 178.729576 
L 132.017758 180.04103 
L 127.680484 181.094298 
L 122.298836 182.069404 
L 116.464693 183.245991 
L 110.682268 184.654941 
L 104.960811 186.293998 
L 99.309475 188.160542 
L 93.737302 190.251586 
L 88.253205 192.563785 
L 87.36 192.965126 
L 92.828762 195.313365 
L 98.387054 197.441033 
L 104.025984 199.344727 
L 109.736531 201.021401 
L 115.509559 202.468372 
L 121.335832 203.683327 
L 127.206031 204.664322 
L 133.110763 205.409786 
L 139.040583 205.918527 
L 142.064381 206.086241 
L 145.022226 211.250806 
L 148.184233 216.292958 
L 151.545343 221.20463 
L 155.100179 225.977964 
L 158.843054 230.605325 
L 162.76798 235.079309 
L 166.868678 239.39276 
L 171.138588 243.538776 
L 175.570879 247.510725 
L 177.242254 248.928 
L 181.732558 245.021755 
L 186.063062 240.93907 
L 190.226838 236.686477 
L 194.217225 232.270778 
L 198.02784 227.699039 
L 201.652585 222.978573 
L 205.085663 218.116932 
L 208.321581 213.121893 
L 211.355163 208.001447 
L 214.181554 202.763786 
L 216.796234 197.417289 
L 219.19502 191.97051 
L 221.374074 186.432161 
L 223.32991 180.811104 
L 225.0594 175.11633 
L 226.559775 169.356951 
L 227.828637 163.542179 
L 228.863955 157.681317 
L 229.664073 151.783742 
L 230.227711 145.858888 
L 230.553967 139.916234 
L 230.642319 133.965287 
L 230.492626 128.015567 
L 230.105128 122.076591 
L 229.480444 116.157863 
L 228.619573 110.268849 
L 227.523894 104.418971 
L 226.564667 100.128 
L 225.296627 105.942951 
L 224.262138 111.803959 
L 223.462853 117.701647 
L 222.900053 123.62658 
L 222.574637 129.56928 
L 222.487125 135.52024 
L 222.637659 141.469939 
L 223.025997 147.40886 
L 223.651518 153.3275 
L 224.51322 159.216392 
L 225.609727 165.066115 
L 226.939283 170.86731 
L 228.499761 176.610696 
L 230.288665 182.287086 
L 232.303133 187.887398 
L 234.539943 193.402674 
L 236.16 197.043274 
L 233.776309 202.496676 
L 231.612603 208.041039 
L 229.672343 213.667492 
L 227.958633 219.367034 
L 226.474215 225.130547 
L 225.221463 230.948811 
L 224.202382 236.812517 
L 223.418601 242.712286 
L 222.85077 248.928 
L 222.315097 243.000552 
L 221.542819 237.099267 
L 220.53517 231.233585 
L 219.293762 225.412891 
L 217.820581 219.646495 
L 216.117984 213.943623 
L 214.188696 208.313399 
L 212.035801 202.764829 
L 209.662745 197.30679 
L 207.073324 191.948015 
L 204.27168 186.697074 
L 201.262296 181.56237 
L 198.822965 177.718084 
L 202.802745 173.292823 
L 206.602378 168.711953 
L 210.215786 163.982803 
L 213.637188 159.112938 
L 216.861111 154.110148 
L 219.882397 148.982438 
L 222.696212 143.73801 
L 225.298056 138.385254 
L 227.683765 132.932735 
L 229.849523 127.389173 
L 231.791865 121.763439 
L 233.507684 116.064532 
L 234.994236 110.301568 
L 236.16 104.937479 
L 235.124405 100.128 
L 233.891782 105.950562 
L 232.892986 111.817757 
L 232.129614 117.720201 
L 231.602887 123.64845 
L 231.313649 129.593021 
L 231.262361 135.544403 
L 231.449106 141.493076 
L 231.873585 147.429523 
L 232.535119 153.344246 
L 233.43265 159.227784 
L 234.564741 165.070724 
L 235.929583 170.863719 
L 236.16 171.749612 
L 234.759548 177.534101 
L 233.591534 183.369966 
L 232.657827 189.247872 
L 231.95992 195.158414 
L 231.49893 201.092137 
L 231.275595 207.039548 
L 231.290271 212.991133 
L 231.542935 218.937371 
L 232.033184 224.868748 
L 232.760232 230.775776 
L 233.722916 236.649005 
L 234.919697 242.479039 
L 236.16 247.54736 
L 235.803428 248.928 
L 234.227705 243.188778 
L 232.423733 237.517158 
L 230.394401 231.922215 
L 228.142954 226.412898 
L 225.672993 220.998023 
L 222.988471 215.686251 
L 220.093683 210.48608 
L 216.993258 205.405829 
L 213.692158 200.453626 
L 210.195662 195.637392 
L 206.509366 190.964834 
L 202.639166 186.443426 
L 198.255434 181.733781 
L 194.398293 179.487945 
L 190.682762 177.01486 
L 187.122214 174.323427 
L 183.729461 171.423332 
L 180.516715 168.325014 
L 177.495537 165.039621 
L 174.676802 161.578978 
L 172.070652 157.95554 
L 169.686469 154.182347 
L 167.532831 150.272978 
L 165.61749 146.241504 
L 163.947339 142.102432 
L 162.528388 137.870659 
L 162.368077 137.33297 
L 158.966803 132.449026 
L 155.372944 127.705002 
L 151.592249 123.10849 
L 147.630767 118.666841 
L 143.494835 114.387163 
L 139.19107 110.276301 
L 134.726357 106.340832 
L 130.107839 102.587051 
L 126.865058 100.128 
L 122.14561 103.754071 
L 117.574941 107.565968 
L 113.160363 111.557595 
L 108.908939 115.722565 
L 104.82747 120.054215 
L 100.922485 124.545615 
L 97.200232 129.18958 
L 93.666666 133.978681 
L 90.327439 138.905257 
L 87.36 143.672213 
L 90.510973 148.721267 
L 93.861334 153.640277 
L 97.405723 158.421374 
L 101.13847 163.056909 
L 105.053603 167.539466 
L 109.144859 171.861873 
L 113.405692 176.017217 
L 117.829287 179.998848 
L 122.408566 183.800399 
L 126.763805 187.141737 
L 125.447866 192.946036 
L 124.36509 198.798315 
L 123.517209 204.689213 
L 122.905579 210.609305 
L 122.531178 216.549121 
L 122.394607 222.499157 
L 122.496083 228.449895 
L 122.835443 234.391815 
L 123.412146 240.315411 
L 124.225268 246.211207 
L 124.681304 248.928 
L 125.603433 243.048267 
L 126.289698 237.136362 
L 126.739001 231.201743 
L 126.950624 225.253903 
L 126.924226 219.302358 
L 126.659852 213.35663 
L 126.157923 207.42623 
L 125.419243 201.520645 
L 124.444994 195.649323 
L 123.236734 189.821657 
L 121.796395 184.046971 
L 120.126283 178.334501 
L 118.229069 172.693388 
L 116.107788 167.132655 
L 113.765834 161.661199 
L 111.206953 156.287773 
L 108.43524 151.020973 
L 105.455128 145.869224 
L 102.271384 140.840769 
L 98.889103 135.943653 
L 95.313694 131.185708 
L 91.550879 126.574548 
L 87.36 121.850443 
L 91.315082 117.403095 
L 95.089153 112.801142 
L 98.676176 108.051948 
L 102.070414 103.163111 
L 104.03613 100.128 
L 107.310567 105.097873 
L 110.781128 109.932829 
L 114.442258 114.625131 
L 118.288103 119.167274 
L 122.312508 123.551991 
L 126.509036 127.772267 
L 130.870974 131.821351 
L 135.391342 135.692766 
L 140.06291 139.380317 
L 143.665906 142.025019 
L 146.542252 145.437929 
L 149.20877 149.017175 
L 151.655864 152.749875 
L 153.874726 156.622596 
L 155.857373 160.6214 
L 157.596667 164.731895 
L 159.086349 168.939289 
L 160.321059 173.22844 
L 161.296352 177.58391 
L 162.008719 181.990025 
L 162.455595 186.430928 
L 162.635374 190.890637 
L 162.547406 195.3531 
L 162.19201 199.802259 
L 161.570464 204.2221 
L 160.685005 208.596718 
L 159.893764 211.681158 
L 159.261498 207.262837 
L 158.895311 202.814554 
L 158.796519 198.352317 
L 158.965478 193.892186 
L 159.401581 189.450212 
L 160.103258 185.042381 
L 161.067983 180.684558 
L 162.292285 176.392425 
L 163.771757 172.18143 
L 165.501075 168.066727 
L 167.474015 164.063126 
L 169.683477 160.185034 
L 172.121509 156.446409 
L 174.779337 152.860705 
L 177.647395 149.440828 
L 180.715362 146.199085 
L 183.020104 144.001815 
L 181.216378 148.084448 
L 179.171086 152.051575 
L 176.891589 155.88892 
L 174.386092 159.582671 
L 171.663611 163.119537 
L 168.733945 166.486787 
L 165.607636 169.672303 
L 162.295937 172.664621 
L 158.810766 175.452972 
L 155.164665 178.027321 
L 151.370758 180.378402 
L 147.442697 182.497754 
L 143.394619 184.377751 
L 139.241094 186.011626 
L 134.997069 187.393499 
L 130.677819 188.518396 
L 127.559137 189.161556 
L 131.251368 186.653819 
L 135.08733 184.371995 
L 139.053216 182.324297 
L 143.134754 180.518095 
L 147.317254 178.959888 
L 151.585664 177.655284 
L 155.924623 176.608979 
L 160.318515 175.824738 
L 164.751526 175.305384 
L 169.207703 175.052785 
L 173.671008 175.067851 
L 178.125378 175.350528 
L 182.554782 175.899798 
L 186.94328 176.713684 
L 191.275076 177.789258 
L 195.534582 179.122648 
L 198.520586 180.228818 
L 194.060558 180.400482 
L 189.598262 180.304397 
L 185.149757 179.940907 
L 180.731054 179.311321 
L 176.358054 178.417905 
L 172.046496 177.263874 
L 167.811897 175.853381 
L 163.669497 174.191503 
L 159.634204 172.284221 
L 155.72054 170.138398 
L 151.942591 167.761758 
L 148.313953 165.162853 
L 144.847685 162.351037 
L 141.556263 159.33643 
L 138.451531 156.12988 
L 135.544664 152.742929 
L 133.597684 150.223187 
L 131.094264 144.823699 
L 128.376924 139.52864 
L 125.450012 134.346482 
L 122.31821 129.285514 
L 118.986529 124.353832 
L 115.460298 119.559328 
L 111.745158 114.90967 
L 107.847054 110.412297 
L 103.77222 106.074404 
L 99.527177 101.902931 
L 97.613831 100.128 
L 93.296278 104.224379 
L 89.145991 108.490138 
L 87.36 110.435138 
L 91.433937 114.773873 
L 95.678117 118.946224 
L 100.085753 122.945515 
L 104.649792 126.765349 
L 109.362933 130.399614 
L 114.217635 133.842497 
L 119.206133 137.08849 
L 124.320446 140.132399 
L 129.552392 142.969356 
L 134.893601 145.594822 
L 137.154774 146.62777 
L 135.311941 140.968658 
L 133.244278 135.387766 
L 130.955092 129.894023 
L 128.448047 124.496218 
L 125.727152 119.202985 
L 122.796761 114.022793 
L 119.661562 108.963929 
L 116.32657 104.034486 
L 113.47189 100.128 
L 109.978397 104.946411 
L 106.680383 109.90067 
L 103.583124 114.982852 
L 100.691577 120.184826 
L 98.010365 125.49827 
L 95.543779 130.914683 
L 93.295765 136.425401 
L 91.26992 142.021608 
L 89.469483 147.694351 
L 87.897335 153.434554 
L 87.36 155.632932 
L 88.844666 161.396381 
L 90.55862 167.09585 
L 92.499121 172.722219 
L 94.663066 178.266489 
L 97.04699 183.719789 
L 99.647082 189.073396 
L 102.459181 194.318744 
L 105.478789 199.447443 
L 108.701074 204.451287 
L 112.120883 209.322272 
L 115.732743 214.052604 
L 119.530877 218.634717 
L 123.509209 223.06128 
L 127.661374 227.325211 
L 131.980729 231.419689 
L 136.460365 235.338164 
L 141.093114 239.074366 
L 145.871567 242.62232 
L 150.788077 245.976349 
L 155.495984 248.928 
L 160.534295 245.759876 
L 165.441884 242.392808 
L 170.210901 238.832183 
L 174.833717 235.083695 
L 179.302935 231.153342 
L 183.611405 227.047413 
L 187.752237 222.772474 
L 191.718804 218.335366 
L 195.504761 213.743187 
L 199.104052 209.003283 
L 202.510918 204.123238 
L 205.719909 199.110857 
L 208.725891 193.974161 
L 211.524056 188.721366 
L 214.109927 183.360876 
L 216.479367 177.901267 
L 218.628586 172.351272 
L 220.554145 166.719771 
L 222.252964 161.015773 
L 223.722324 155.248403 
L 224.959877 149.426887 
L 225.96364 143.560539 
L 226.73201 137.658744 
L 227.263756 131.730943 
L 227.558027 125.786619 
L 227.614354 119.835282 
L 227.432646 113.886453 
L 227.013194 107.94965 
L 226.356668 102.034368 
L 226.093845 100.128 
L 225.360874 106.034296 
L 224.864679 111.965179 
L 224.606053 117.91116 
L 224.585409 123.862728 
L 224.802781 129.81036 
L 225.257821 135.744542 
L 225.949801 141.655781 
L 226.877614 147.53462 
L 228.039776 153.371653 
L 229.434427 159.157544 
L 231.059337 164.883035 
L 232.911905 170.538967 
L 234.989169 176.116293 
L 236.16 178.989483 
L 233.966903 184.522286 
L 231.996813 190.138364 
L 230.252883 195.828732 
L 228.737901 201.584286 
L 227.454292 207.395821 
L 226.404109 213.254037 
L 225.589032 219.149563 
L 225.010366 225.072968 
L 224.669035 231.014775 
L 224.565587 236.965479 
L 224.700185 242.91556 
L 225.078637 248.928 
L 225.453972 242.988244 
L 225.59148 237.038229 
L 225.490941 231.087475 
L 225.152515 225.145502 
L 224.576745 219.221815 
L 223.764551 213.325891 
L 222.717232 207.467162 
L 221.436465 201.655001 
L 219.924297 195.898706 
L 218.183149 190.207486 
L 216.215805 184.590446 
L 214.025413 179.056572 
L 211.615478 173.614716 
L 208.989854 168.273585 
L 206.152742 163.041724 
L 203.10868 157.927501 
L 199.862539 152.9391 
L 196.419512 148.084499 
L 192.785107 143.371466 
L 188.965138 138.807541 
L 184.965716 134.400024 
L 180.793239 130.155967 
L 176.454383 126.082159 
L 171.956089 122.185118 
L 167.305553 118.471078 
L 162.510215 114.94598 
L 157.577746 111.615465 
L 152.516037 108.48486 
L 147.333187 105.559173 
L 142.037486 102.843086 
L 136.150292 100.128 
L 130.741307 102.610834 
L 125.435936 105.307985 
L 120.242666 108.215136 
L 115.169805 111.327637 
L 110.225469 114.640508 
L 105.417567 118.148451 
L 100.753791 121.845852 
L 96.241603 125.726797 
L 91.88822 129.785077 
L 87.36 134.373423 
L 91.53352 138.616454 
L 95.873378 142.689195 
L 100.37263 146.585129 
L 105.02408 150.298026 
L 109.820285 153.821944 
L 114.753573 157.151246 
L 119.816051 160.280606 
L 124.999621 163.205018 
L 126.137226 163.810819 
L 130.215157 165.625149 
L 134.176956 167.680743 
L 138.008364 169.970204 
L 141.695593 172.485292 
L 145.225371 175.216955 
L 148.584997 178.155362 
L 151.762378 181.289938 
L 154.74608 184.609402 
L 157.525364 188.101807 
L 160.090229 191.754585 
L 162.431443 195.55459 
L 164.540581 199.488145 
L 166.410051 203.541095 
L 168.033127 207.698852 
L 169.120484 210.992548 
L 168.795848 206.541039 
L 168.738726 202.078075 
L 168.949325 197.619715 
L 169.426885 193.182007 
L 170.169689 188.780921 
L 171.175063 184.432295 
L 172.439388 180.151782 
L 173.958116 175.954784 
L 175.725779 171.856408 
L 177.736017 167.871404 
L 179.981594 164.014111 
L 182.454428 160.298414 
L 185.145622 156.737684 
L 188.045488 153.344736 
L 190.436332 150.83184 
L 186.664776 153.218612 
L 182.756885 155.374932 
L 178.726726 157.293038 
L 174.588801 158.966028 
L 170.358003 160.387881 
L 166.049558 161.55348 
L 161.678972 162.45863 
L 157.261974 163.100073 
L 152.814461 163.475502 
L 148.352439 163.583564 
L 143.891966 163.42387 
L 139.449096 162.996997 
L 135.039817 162.304479 
L 130.679999 161.348809 
L 127.336287 160.426653 
L 131.220322 162.625651 
L 134.965507 165.053594 
L 138.558364 167.701744 
L 141.985961 170.560571 
L 145.235964 173.619787 
L 148.296676 176.868381 
L 151.157082 180.294661 
L 153.806887 183.886297 
L 156.236555 187.630364 
L 158.437341 191.513385 
L 160.401326 195.521388 
L 162.121441 199.639946 
L 163.591495 203.854238 
L 164.806198 208.149098 
L 165.570975 211.532276 
L 165.676982 207.070205 
L 166.050361 202.62252 
L 166.68977 198.205227 
L 167.592907 193.834224 
L 168.756521 189.525243 
L 170.176426 185.293791 
L 171.84751 181.155096 
L 173.76376 177.124053 
L 175.918279 173.21517 
L 178.303313 169.442514 
L 180.91028 165.819664 
L 183.729795 162.359657 
L 186.751713 159.074945 
L 189.965158 155.977351 
L 192.587113 153.706639 
L 188.603035 155.718711 
L 184.505473 157.488262 
L 180.309176 159.008923 
L 176.029245 160.27522 
L 171.681083 161.282596 
L 167.28034 162.027427 
L 162.842852 162.507031 
L 158.38459 162.719683 
L 153.921599 162.664617 
L 149.469942 162.342031 
L 145.045638 161.753086 
L 140.664611 160.899902 
L 136.342628 159.78555 
L 132.095243 158.414039 
L 128.856001 157.17384 
L 132.50996 159.737022 
L 136.003646 162.514697 
L 139.324484 165.49687 
L 142.460523 168.672807 
L 145.400477 172.031079 
L 148.133765 175.559599 
L 150.650551 179.245668 
L 152.941776 183.076021 
L 154.999195 187.036873 
L 156.815404 191.113968 
L 158.383865 195.292634 
L 159.698934 199.557832 
L 160.755878 203.894211 
L 161.550894 208.286166 
L 162.28717 213.184503 
L 163.637229 218.980961 
L 165.218004 224.718795 
L 167.026966 230.388824 
L 169.061222 235.981979 
L 171.317518 241.489312 
L 173.792243 246.902011 
L 174.786988 248.928 
L 177.343527 243.553459 
L 179.683097 238.080983 
L 181.801955 232.519327 
L 183.696711 226.877387 
L 185.364333 221.164191 
L 186.802155 215.388877 
L 188.007876 209.560685 
L 188.979567 203.68894 
L 189.554962 199.252079 
L 195.320451 197.775351 
L 201.022274 196.069247 
L 206.651311 194.136496 
L 212.198555 191.980189 
L 217.655133 189.603776 
L 223.012315 187.011059 
L 228.261531 184.206186 
L 233.394383 181.193644 
L 236.16 179.453099 
L 231.094539 176.32857 
L 225.908182 173.409104 
L 220.609226 170.699372 
L 215.206148 168.20371 
L 209.707592 165.926109 
L 204.122355 163.870214 
L 198.459371 162.039313 
L 196.601307 161.492535 
L 199.737869 156.434516 
L 202.669656 151.255114 
L 205.391977 145.962615 
L 207.900477 140.565485 
L 210.191143 135.072359 
L 212.26031 129.492025 
L 214.104668 123.83341 
L 215.721267 118.105567 
L 217.10752 112.317658 
L 218.261209 106.478944 
L 219.243705 100.128 
L 220.14421 106.011083 
L 221.279256 111.85345 
L 222.647026 117.645755 
L 224.245332 123.378729 
L 226.071618 129.043203 
L 228.122961 134.630113 
L 230.39608 140.130523 
L 232.887339 145.535633 
L 235.592752 150.836795 
L 236.16 151.885347 
L 233.412203 157.164664 
L 230.87772 162.549641 
L 228.560605 168.031662 
L 226.464567 173.601959 
L 224.592958 179.251619 
L 222.948772 184.971605 
L 221.53464 190.752765 
L 220.352823 196.58585 
L 219.405213 202.46153 
L 218.693326 208.370405 
L 218.2183 214.303021 
L 217.980895 220.249887 
L 217.981491 226.20149 
L 218.220088 232.148309 
L 218.696303 238.08083 
L 219.409375 243.989561 
L 220.190645 248.928 
L 221.101827 243.046561 
L 221.777085 237.133388 
L 222.215338 231.197943 
L 222.415887 225.249719 
L 222.37841 219.298234 
L 222.102967 213.353008 
L 221.589999 207.423552 
L 220.840325 201.519353 
L 219.855147 195.649855 
L 218.636039 189.824449 
L 217.184953 184.052454 
L 215.504209 178.343104 
L 213.596496 172.705532 
L 211.464866 167.148758 
L 209.11273 161.681672 
L 206.54385 156.313019 
L 203.762336 151.051388 
L 200.772638 145.905196 
L 197.579538 140.882677 
L 194.188146 135.991866 
L 190.603886 131.240586 
L 186.832492 126.636439 
L 182.879998 122.18679 
L 178.752728 117.898758 
L 174.457283 113.779203 
L 170.000536 109.834715 
L 165.389616 106.071604 
L 160.631901 102.495891 
L 157.248451 100.128 
L 152.393338 103.570305 
L 147.679765 107.204009 
L 143.115271 111.023299 
L 138.707159 115.022066 
L 134.462482 119.193911 
L 130.388029 123.532161 
L 126.490318 128.029876 
L 122.775587 132.679859 
L 119.249776 137.474673 
L 115.918527 142.406646 
L 112.787169 147.467889 
L 109.860711 152.650304 
L 107.143836 157.945601 
L 104.640889 163.345308 
L 102.355875 168.840788 
L 100.29245 174.423247 
L 98.453913 180.083756 
L 96.843208 185.81326 
L 95.462909 191.602591 
L 94.315227 197.442489 
L 93.401996 203.32361 
L 92.724677 209.236547 
L 92.284355 215.17184 
L 92.081734 221.119993 
L 92.117137 227.071491 
L 92.390508 233.016812 
L 92.90141 238.946446 
L 93.649026 244.850906 
L 94.306256 248.928 
L 95.217437 243.046561 
L 95.892695 237.133388 
L 96.330949 231.197943 
L 96.531498 225.249719 
L 96.494021 219.298234 
L 96.218578 213.353008 
L 95.705609 207.423552 
L 94.955936 201.519353 
L 93.970758 195.649855 
L 92.75165 189.824449 
L 91.300563 184.052454 
L 89.619819 178.343104 
L 87.712106 172.705532 
L 87.36 171.740183 
L 89.306598 166.11592 
L 91.026729 160.418312 
L 92.51764 154.656475 
L 93.776946 148.839627 
L 94.802634 142.977072 
L 95.593061 137.07819 
L 96.146964 131.152418 
L 96.463455 125.209236 
L 96.54203 119.258152 
L 96.382562 113.308685 
L 95.985307 107.370355 
L 95.350899 101.452661 
L 95.175982 100.128 
L 94.488462 106.039759 
L 94.0379 111.974283 
L 93.825015 117.922078 
L 93.850149 123.873628 
L 94.113261 129.819412 
L 94.613931 135.749919 
L 95.351358 141.655661 
L 96.324361 147.527189 
L 97.531385 153.355111 
L 98.970497 159.130103 
L 100.639397 164.842927 
L 102.535414 170.484443 
L 104.655515 176.045626 
L 106.996307 181.517579 
L 109.554048 186.891548 
L 112.324643 192.158936 
L 115.303662 197.311317 
L 118.486338 202.340447 
L 121.86758 207.238282 
L 125.441979 211.996985 
L 129.203816 216.608944 
L 133.147072 221.066781 
L 137.265441 225.363363 
L 141.552333 229.491818 
L 146.00089 233.44554 
L 150.603995 237.218206 
L 155.354285 240.803778 
L 160.244159 244.196521 
L 165.265796 247.391008 
L 167.850544 248.928 
L 172.935712 245.835646 
L 177.893151 242.542414 
L 182.71493 239.05357 
L 187.393336 235.374698 
L 191.920883 231.511683 
L 196.29033 227.470703 
L 200.494686 223.258225 
L 204.527225 218.880987 
L 208.381495 214.345991 
L 212.05133 209.660494 
L 215.53086 204.83199 
L 218.814519 199.868204 
L 221.897052 194.777077 
L 224.773529 189.566755 
L 227.439347 184.245571 
L 229.890243 178.82204 
L 232.122295 173.304837 
L 234.131932 167.70279 
L 235.915939 162.024859 
L 236.16 161.18082 
L 234.40955 155.492454 
L 232.433026 149.878637 
L 230.23359 144.348351 
L 227.814762 138.910443 
L 225.180409 133.573612 
L 222.334748 128.346395 
L 219.28233 123.237156 
L 216.028038 118.254068 
L 212.577079 113.405103 
L 208.934974 108.698018 
L 205.107549 104.140343 
L 201.46789 100.128 
L 197.477103 104.543336 
L 193.666074 109.11473 
L 190.0409 113.834867 
L 186.607382 118.696197 
L 183.371011 123.690943 
L 180.336965 128.811114 
L 177.510099 134.048518 
L 174.764957 139.675294 
L 172.924637 143.741563 
L 170.843799 147.690162 
L 168.529932 151.50688 
L 165.991362 155.177981 
L 163.237227 158.690253 
L 160.277437 162.031056 
L 157.122646 165.188367 
L 153.784207 168.150822 
L 150.274134 170.90776 
L 146.605061 173.44926 
L 142.790191 175.766173 
L 138.843255 177.850163 
L 134.778456 179.693728 
L 130.610425 181.290234 
L 126.354161 182.633936 
L 125.507007 182.868292 
L 129.914556 182.164853 
L 134.356355 181.726974 
L 138.816419 181.556231 
L 143.278695 181.653239 
L 147.727124 182.017648 
L 152.145698 182.648147 
L 156.518513 183.542467 
L 160.829832 184.697389 
L 165.064139 186.108756 
L 169.206196 187.77149 
L 173.241095 189.679606 
L 177.154315 191.826238 
L 180.931773 194.203659 
L 184.559874 196.803313 
L 188.02556 199.615845 
L 188.687741 200.193867 
L 185.673142 196.902437 
L 182.861335 193.436163 
L 180.26244 189.807518 
L 177.885809 186.029563 
L 175.739996 182.115894 
L 173.832724 178.080596 
L 172.170856 173.938192 
L 170.760374 169.703589 
L 169.606354 165.392028 
L 168.712949 161.019026 
L 168.083374 156.600321 
L 167.719896 152.151816 
L 167.623821 147.689519 
L 167.795497 143.229492 
L 168.234305 138.787784 
L 168.352066 137.916736 
L 167.2651 142.245688 
L 165.920508 146.501671 
L 164.32313 150.669368 
L 162.478715 154.733781 
L 160.3939 158.680281 
L 158.076188 162.494666 
L 155.533922 166.163208 
L 152.776249 169.672704 
L 149.813096 173.010523 
L 146.655126 176.164654 
L 143.313703 179.123745 
L 139.800855 181.877146 
L 136.129223 184.414947 
L 132.312021 186.728016 
L 128.362988 188.808029 
L 127.571093 189.189467 
L 131.782986 187.712554 
L 136.075862 186.49086 
L 140.43427 185.528782 
L 144.842526 184.829784 
L 149.284764 184.39638 
L 153.744997 184.23013 
L 158.207174 184.331633 
L 162.655234 184.700523 
L 167.07317 185.335473 
L 171.445081 186.234198 
L 175.755235 187.393462 
L 179.988118 188.809095 
L 184.128498 190.476001 
L 188.161473 192.388181 
L 192.072528 194.538754 
L 192.82704 194.989648 
L 189.274603 192.287517 
L 185.890589 189.377231 
L 182.687177 186.269262 
L 179.675895 182.974797 
L 176.867581 179.505691 
L 174.272343 175.87443 
L 171.899519 172.094083 
L 169.75765 168.178254 
L 167.854444 164.141037 
L 166.19675 159.99696 
L 164.790535 155.760939 
L 163.640859 151.448218 
L 162.75186 147.074318 
L 162.126737 142.654981 
L 161.76774 138.206111 
L 161.72854 137.328013 
L 161.429659 141.781325 
L 160.864277 146.208702 
L 160.034429 150.594209 
L 158.943102 154.922063 
L 157.594224 159.17669 
L 155.992648 163.342776 
L 154.144139 167.405328 
L 152.055349 171.349726 
L 149.733796 175.161774 
L 147.187835 178.827753 
L 144.426629 182.334469 
L 141.460114 185.669302 
L 138.298968 188.82025 
L 134.954566 191.775973 
L 131.438946 194.525833 
L 129.556528 195.960144 
L 124.965725 199.74777 
L 120.53006 203.71595 
L 116.256627 207.858335 
L 112.152264 212.168298 
L 108.223536 216.638944 
L 104.476729 221.263122 
L 100.917837 226.033433 
L 97.552553 230.942246 
L 94.386261 235.981708 
L 91.424027 241.143757 
L 88.670589 246.420135 
L 87.454192 248.928 
L 87.36 248.72946 
L 89.806991 243.304165 
L 92.03507 237.785357 
L 94.040674 232.181864 
L 95.820593 226.502651 
L 97.371981 220.756802 
L 98.692355 214.95351 
L 99.779604 209.10206 
L 100.631987 203.211812 
L 101.248141 197.292189 
L 101.62708 191.352662 
L 101.768199 185.402732 
L 101.671271 179.451918 
L 101.336451 173.50974 
L 100.764276 167.585704 
L 99.95566 161.689289 
L 98.911897 155.829925 
L 97.634656 150.016988 
L 96.125982 144.259777 
L 94.388288 138.567501 
L 92.424354 132.949268 
L 90.237321 127.414066 
L 87.830688 121.970749 
L 87.36 120.970945 
L 89.806991 115.545651 
L 92.03507 110.026843 
L 94.040674 104.42335 
L 95.409794 100.128 
L 97.244725 105.789679 
L 99.304595 111.373452 
L 101.586108 116.870385 
L 104.085615 122.271685 
L 106.799117 127.568712 
L 109.722274 132.75299 
L 112.850408 137.816226 
L 116.178515 142.75032 
L 119.701271 147.547378 
L 123.41304 152.199727 
L 127.307885 156.699923 
L 128.454362 157.957712 
L 131.942249 160.742665 
L 135.256862 163.731754 
L 138.386274 166.914222 
L 141.319221 170.278615 
L 144.045147 173.812825 
L 146.554243 177.504133 
L 148.837479 181.339255 
L 150.886636 185.304387 
L 152.694341 189.385259 
L 154.254088 193.567186 
L 155.560262 197.835116 
L 156.608164 202.173689 
L 157.394023 206.567292 
L 157.915009 211.000112 
L 157.959583 211.533362 
L 159.61544 217.24998 
L 161.498576 222.895809 
L 163.605978 228.461816 
L 165.934276 233.939097 
L 168.479744 239.31889 
L 171.238311 244.592588 
L 173.713216 248.928 
L 176.647132 243.749804 
L 179.371629 238.458424 
L 181.882348 233.062326 
L 184.175272 227.570143 
L 186.246733 221.99066 
L 188.093417 216.332804 
L 189.712371 210.605626 
L 191.101003 204.818288 
L 192.257093 198.980048 
L 192.93293 194.827962 
L 197.899541 191.548578 
L 202.731039 188.073207 
L 207.419694 184.407406 
L 211.958006 180.557042 
L 216.338714 176.528274 
L 220.554811 172.327546 
L 224.59955 167.96158 
L 228.466463 163.437359 
L 232.149361 158.762123 
L 235.642354 153.943349 
L 236.16 153.193426 
L 232.696582 148.353352 
L 229.042383 143.655649 
L 225.203248 139.107833 
L 221.185321 134.71718 
L 216.995028 130.490712 
L 212.639073 126.435193 
L 208.124425 122.557109 
L 203.458307 118.862665 
L 198.648182 115.357771 
L 193.701747 112.048034 
L 188.626914 108.938749 
L 183.431802 106.034891 
L 178.124722 103.341104 
L 172.714165 100.861699 
L 170.995197 100.128 
L 165.553925 102.539252 
L 160.213429 105.166168 
L 154.982254 108.004545 
L 149.868768 111.049843 
L 144.881151 114.29719 
L 140.027384 117.741392 
L 135.31523 121.376937 
L 130.752229 125.19801 
L 126.345679 129.198498 
L 122.102631 133.372 
L 118.029873 137.711842 
L 114.13392 142.211078 
L 110.421005 146.862513 
L 106.897067 151.658703 
L 103.567745 156.591977 
L 100.438364 161.654443 
L 97.513931 166.838001 
L 94.799125 172.134358 
L 92.298287 177.535043 
L 90.01542 183.031414 
L 87.954175 188.614679 
L 87.36 190.36389 
L 89.35177 195.972315 
L 91.566225 201.496604 
L 93.999821 206.92792 
L 96.648664 212.257574 
L 99.508519 217.477039 
L 102.574808 222.577965 
L 105.842628 227.552192 
L 109.30675 232.391763 
L 112.961632 237.088934 
L 116.801427 241.636192 
L 120.819993 246.026261 
L 123.661395 248.928 
L 127.798272 244.649235 
L 131.760735 240.208462 
L 135.542445 235.612784 
L 139.137352 230.869555 
L 142.539705 225.986362 
L 145.74406 220.971017 
L 148.745292 215.831543 
L 151.662255 210.331289 
L 151.287008 216.271051 
L 151.149589 222.221068 
L 151.250216 228.17182 
L 151.58873 234.113789 
L 152.164589 240.037467 
L 152.976871 245.933379 
L 153.482023 248.928 
L 154.414462 243.049893 
L 155.111093 237.139201 
L 155.570803 231.205378 
L 155.792855 225.257919 
L 155.776894 219.306337 
L 155.522947 213.360154 
L 155.369644 211.17501 
L 153.03728 216.650561 
L 150.925745 222.215002 
L 149.038418 227.859431 
L 147.378317 233.574818 
L 145.948099 239.352019 
L 144.750051 245.181793 
L 144.107333 248.928 
L 143.05858 243.069528 
L 141.776389 237.257681 
L 140.262811 231.501756 
L 138.520269 225.810963 
L 136.55155 220.194405 
L 134.359803 214.661067 
L 131.948534 209.219802 
L 129.321602 203.879315 
L 126.483209 198.648148 
L 123.437895 193.534671 
L 120.190533 188.547065 
L 116.746316 183.693308 
L 113.110757 178.981165 
L 109.28967 174.418176 
L 105.289169 170.011639 
L 101.115653 165.768604 
L 96.775799 161.695859 
L 92.276551 157.799919 
L 87.36 153.884421 
L 92.019759 150.18196 
L 96.527733 146.296119 
L 100.876708 142.233115 
L 105.059727 137.999449 
L 109.070099 133.601894 
L 112.901408 129.047483 
L 116.547525 124.343505 
L 120.002616 119.497483 
L 123.261154 114.517171 
L 126.317926 109.410535 
L 129.168042 104.185747 
L 131.199374 100.128 
L 133.888849 105.437266 
L 136.788486 110.634735 
L 139.893647 115.712092 
L 143.199365 120.661215 
L 146.70035 125.474185 
L 150.391002 130.143303 
L 154.265418 134.6611 
L 156.993839 137.63459 
L 159.73717 132.35295 
L 162.267097 126.965831 
L 164.579573 121.481851 
L 166.670898 115.909784 
L 168.537728 110.258542 
L 170.177074 104.537168 
L 171.273781 100.128 
L 172.737686 105.896758 
L 174.431108 111.60236 
L 176.351339 117.23568 
L 178.495306 122.787706 
L 180.859581 128.249554 
L 183.44038 133.612488 
L 186.233574 138.867927 
L 189.234696 144.007465 
L 192.438944 149.022878 
L 195.841192 153.906145 
L 199.435998 158.649451 
L 203.217609 163.245209 
L 207.179977 167.686068 
L 211.316762 171.964921 
L 215.621347 176.074925 
L 220.086845 180.009503 
L 224.706113 183.762362 
L 229.471759 187.327498 
L 234.376161 190.699207 
L 236.16 191.855557 
L 236.16 191.855557 
" style="fill:none;stroke:#1f77b4;stroke-linecap:square;stroke-width:1.5;"/>
   </g>
   <g id="patch_5">
    <path d="M 57.6 263.808 
L 57.6 85.248 
" style="fill:none;stroke:#000000;stroke-linecap:square;stroke-linejoin:miter;stroke-width:0.8;"/>
   </g>
   <g id="patch_6">
    <path d="M 414.72 263.808 
L 414.72 85.248 
" style="fill:none;stroke:#000000;stroke-linecap:square;stroke-linejoin:miter;stroke-width:0.8;"/>
   </g>
   <g id="patch_7">
    <path d="M 57.6 263.808 
L 414.72 263.808 
" style="fill:none;stroke:#000000;stroke-linecap:square;stroke-linejoin:miter;stroke-width:0.8;"/>
   </g>
   <g id="patch_8">
    <path d="M 57.6 85.248 
L 414.72 85.248 
" style="fill:none;stroke:#000000;stroke-linecap:square;stroke-linejoin:miter;stroke-width:0.8;"/>
   </g>
  </g>
 </g>
 <defs>
  <clipPath id="p8efe7b2716">
   <rect height="178.56" width="357.12" x="57.6" y="85.248"/>
  </clipPath>
 </defs>
</svg>
