<?xml version="1.0" encoding="utf-8" standalone="no"?>
<!DOCTYPE svg PUBLIC "-//W3C//DTD SVG 1.1//EN"
  "http://www.w3.org/Graphics/SVG/1.1/DTD/svg11.dtd">
<!-- Created with matplotlib (http://matplotlib.org/) -->
<svg height="345.6pt" version="1.1" viewBox="0 0 460.8 345.6" width="460.8pt" xmlns="http://www.w3.org/2000/svg" xmlns:xlink="http://www.w3.org/1999/xlink">
 <defs>
  <style type="text/css">
*{stroke-linecap:butt;stroke-linejoin:round;}
  </style>
 </defs>
 <g id="figure_1">
  <g id="patch_1">
   <path d="M 0 345.6 
L 460.8 345.6 
L 460.8 0 
L 0 0 
z
" style="fill:#ffffff;"/>
  </g>
  <g id="axes_1">
   <g id="patch_2">
    <path d="M 57.6 263.808 
L 414.72 263.808 
L 414.72 85.248 
L 57.6 85.248 
z
" style="fill:#ffffff;"/>
   </g>
   <g id="PathCollection_1">
    <defs>
     <path d="M 0 3 
C 0.795609 3 1.55874 2.683901 2.12132 2.12132 
C 2.683901 1.55874 3 0.795609 3 0 
C 3 -0.795609 2.683901 -1.55874 2.12132 -2.12132 
C 1.55874 -2.683901 0.795609 -3 0 -3 
C -0.795609 -3 -1.55874 -2.683901 -2.12132 -2.12132 
C -2.683901 -1.55874 -3 -0.795609 -3 0 
C -3 0.795609 -2.683901 1.55874 -2.12132 2.12132 
C -1.55874 2.683901 -0.795609 3 0 3 
z
" id="m9687464207" style="stroke:#000000;"/>
    </defs>
    <g clip-path="url(#p0e9d43ca9c)">
     <use style="stroke:#000000;" x="206.323316" xlink:href="#m9687464207" y="229.594575"/>
    </g>
   </g>
   <g id="patch_3">
    <path clip-path="url(#p0e9d43ca9c)" d="M 161.76 211.728 
C 171.625555 211.728 181.088371 207.808373 188.064372 200.832372 
C 195.040373 193.856371 198.96 184.393555 198.96 174.528 
C 198.96 164.662445 195.040373 155.199629 188.064372 148.223628 
C 181.088371 141.247627 171.625555 137.328 161.76 137.328 
C 151.894445 137.328 142.431629 141.247627 135.455628 148.223628 
C 128.479627 155.199629 124.56 164.662445 124.56 174.528 
C 124.56 184.393555 128.479627 193.856371 135.455628 200.832372 
C 142.431629 207.808373 151.894445 211.728 161.76 211.728 
z
" style="fill:#cc0000;fill-opacity:0.1;stroke:#cc0000;stroke-dasharray:7.4,3.2;stroke-dashoffset:0;stroke-linejoin:miter;stroke-width:2;"/>
   </g>
   <g id="patch_4">
    <path clip-path="url(#p0e9d43ca9c)" d="M 310.56 196.848 
C 316.479333 196.848 322.157023 194.496224 326.342623 190.310623 
C 330.528224 186.125023 332.88 180.447333 332.88 174.528 
C 332.88 168.608667 330.528224 162.930977 326.342623 158.745377 
C 322.157023 154.559776 316.479333 152.208 310.56 152.208 
C 304.640667 152.208 298.962977 154.559776 294.777377 158.745377 
C 290.591776 162.930977 288.24 168.608667 288.24 174.528 
C 288.24 180.447333 290.591776 186.125023 294.777377 190.310623 
C 298.962977 194.496224 304.640667 196.848 310.56 196.848 
z
" style="fill:#cc0000;fill-opacity:0.1;stroke:#cc0000;stroke-dasharray:7.4,3.2;stroke-dashoffset:0;stroke-linejoin:miter;stroke-width:2;"/>
   </g>
   <g id="matplotlib.axis_1">
    <g id="xtick_1">
     <g id="line2d_1">
      <defs>
       <path d="M 0 0 
L 0 3.5 
" id="m6c2f6957f3" style="stroke:#000000;stroke-width:0.8;"/>
      </defs>
      <g>
       <use style="stroke:#000000;stroke-width:0.8;" x="87.36" xlink:href="#m6c2f6957f3" y="263.808"/>
      </g>
     </g>
     <g id="text_1">
      <!-- 0.0 -->
      <defs>
       <path d="M 31.78125 66.40625 
Q 24.171875 66.40625 20.328125 58.90625 
Q 16.5 51.421875 16.5 36.375 
Q 16.5 21.390625 20.328125 13.890625 
Q 24.171875 6.390625 31.78125 6.390625 
Q 39.453125 6.390625 43.28125 13.890625 
Q 47.125 21.390625 47.125 36.375 
Q 47.125 51.421875 43.28125 58.90625 
Q 39.453125 66.40625 31.78125 66.40625 
z
M 31.78125 74.21875 
Q 44.046875 74.21875 50.515625 64.515625 
Q 56.984375 54.828125 56.984375 36.375 
Q 56.984375 17.96875 50.515625 8.265625 
Q 44.046875 -1.421875 31.78125 -1.421875 
Q 19.53125 -1.421875 13.0625 8.265625 
Q 6.59375 17.96875 6.59375 36.375 
Q 6.59375 54.828125 13.0625 64.515625 
Q 19.53125 74.21875 31.78125 74.21875 
z
" id="DejaVuSans-30"/>
       <path d="M 10.6875 12.40625 
L 21 12.40625 
L 21 0 
L 10.6875 0 
z
" id="DejaVuSans-2e"/>
      </defs>
      <g transform="translate(79.408438 278.406437)scale(0.1 -0.1)">
       <use xlink:href="#DejaVuSans-30"/>
       <use x="63.623047" xlink:href="#DejaVuSans-2e"/>
       <use x="95.410156" xlink:href="#DejaVuSans-30"/>
      </g>
     </g>
    </g>
    <g id="xtick_2">
     <g id="line2d_2">
      <g>
       <use style="stroke:#000000;stroke-width:0.8;" x="161.76" xlink:href="#m6c2f6957f3" y="263.808"/>
      </g>
     </g>
     <g id="text_2">
      <!-- 0.5 -->
      <defs>
       <path d="M 10.796875 72.90625 
L 49.515625 72.90625 
L 49.515625 64.59375 
L 19.828125 64.59375 
L 19.828125 46.734375 
Q 21.96875 47.46875 24.109375 47.828125 
Q 26.265625 48.1875 28.421875 48.1875 
Q 40.625 48.1875 47.75 41.5 
Q 54.890625 34.8125 54.890625 23.390625 
Q 54.890625 11.625 47.5625 5.09375 
Q 40.234375 -1.421875 26.90625 -1.421875 
Q 22.3125 -1.421875 17.546875 -0.640625 
Q 12.796875 0.140625 7.71875 1.703125 
L 7.71875 11.625 
Q 12.109375 9.234375 16.796875 8.0625 
Q 21.484375 6.890625 26.703125 6.890625 
Q 35.15625 6.890625 40.078125 11.328125 
Q 45.015625 15.765625 45.015625 23.390625 
Q 45.015625 31 40.078125 35.4375 
Q 35.15625 39.890625 26.703125 39.890625 
Q 22.75 39.890625 18.8125 39.015625 
Q 14.890625 38.140625 10.796875 36.28125 
z
" id="DejaVuSans-35"/>
      </defs>
      <g transform="translate(153.808437 278.406437)scale(0.1 -0.1)">
       <use xlink:href="#DejaVuSans-30"/>
       <use x="63.623047" xlink:href="#DejaVuSans-2e"/>
       <use x="95.410156" xlink:href="#DejaVuSans-35"/>
      </g>
     </g>
    </g>
    <g id="xtick_3">
     <g id="line2d_3">
      <g>
       <use style="stroke:#000000;stroke-width:0.8;" x="236.16" xlink:href="#m6c2f6957f3" y="263.808"/>
      </g>
     </g>
     <g id="text_3">
      <!-- 1.0 -->
      <defs>
       <path d="M 12.40625 8.296875 
L 28.515625 8.296875 
L 28.515625 63.921875 
L 10.984375 60.40625 
L 10.984375 69.390625 
L 28.421875 72.90625 
L 38.28125 72.90625 
L 38.28125 8.296875 
L 54.390625 8.296875 
L 54.390625 0 
L 12.40625 0 
z
" id="DejaVuSans-31"/>
      </defs>
      <g transform="translate(228.208437 278.406437)scale(0.1 -0.1)">
       <use xlink:href="#DejaVuSans-31"/>
       <use x="63.623047" xlink:href="#DejaVuSans-2e"/>
       <use x="95.410156" xlink:href="#DejaVuSans-30"/>
      </g>
     </g>
    </g>
    <g id="xtick_4">
     <g id="line2d_4">
      <g>
       <use style="stroke:#000000;stroke-width:0.8;" x="310.56" xlink:href="#m6c2f6957f3" y="263.808"/>
      </g>
     </g>
     <g id="text_4">
      <!-- 1.5 -->
      <g transform="translate(302.608437 278.406437)scale(0.1 -0.1)">
       <use xlink:href="#DejaVuSans-31"/>
       <use x="63.623047" xlink:href="#DejaVuSans-2e"/>
       <use x="95.410156" xlink:href="#DejaVuSans-35"/>
      </g>
     </g>
    </g>
    <g id="xtick_5">
     <g id="line2d_5">
      <g>
       <use style="stroke:#000000;stroke-width:0.8;" x="384.96" xlink:href="#m6c2f6957f3" y="263.808"/>
      </g>
     </g>
     <g id="text_5">
      <!-- 2.0 -->
      <defs>
       <path d="M 19.1875 8.296875 
L 53.609375 8.296875 
L 53.609375 0 
L 7.328125 0 
L 7.328125 8.296875 
Q 12.9375 14.109375 22.625 23.890625 
Q 32.328125 33.6875 34.8125 36.53125 
Q 39.546875 41.84375 41.421875 45.53125 
Q 43.3125 49.21875 43.3125 52.78125 
Q 43.3125 58.59375 39.234375 62.25 
Q 35.15625 65.921875 28.609375 65.921875 
Q 23.96875 65.921875 18.8125 64.3125 
Q 13.671875 62.703125 7.8125 59.421875 
L 7.8125 69.390625 
Q 13.765625 71.78125 18.9375 73 
Q 24.125 74.21875 28.421875 74.21875 
Q 39.75 74.21875 46.484375 68.546875 
Q 53.21875 62.890625 53.21875 53.421875 
Q 53.21875 48.921875 51.53125 44.890625 
Q 49.859375 40.875 45.40625 35.40625 
Q 44.1875 33.984375 37.640625 27.21875 
Q 31.109375 20.453125 19.1875 8.296875 
z
" id="DejaVuSans-32"/>
      </defs>
      <g transform="translate(377.008437 278.406437)scale(0.1 -0.1)">
       <use xlink:href="#DejaVuSans-32"/>
       <use x="63.623047" xlink:href="#DejaVuSans-2e"/>
       <use x="95.410156" xlink:href="#DejaVuSans-30"/>
      </g>
     </g>
    </g>
   </g>
   <g id="matplotlib.axis_2">
    <g id="ytick_1">
     <g id="line2d_6">
      <defs>
       <path d="M 0 0 
L -3.5 0 
" id="m37ed5e06f2" style="stroke:#000000;stroke-width:0.8;"/>
      </defs>
      <g>
       <use style="stroke:#000000;stroke-width:0.8;" x="57.6" xlink:href="#m37ed5e06f2" y="248.928"/>
      </g>
     </g>
     <g id="text_6">
      <!-- 0.0 -->
      <g transform="translate(34.696875 252.727219)scale(0.1 -0.1)">
       <use xlink:href="#DejaVuSans-30"/>
       <use x="63.623047" xlink:href="#DejaVuSans-2e"/>
       <use x="95.410156" xlink:href="#DejaVuSans-30"/>
      </g>
     </g>
    </g>
    <g id="ytick_2">
     <g id="line2d_7">
      <g>
       <use style="stroke:#000000;stroke-width:0.8;" x="57.6" xlink:href="#m37ed5e06f2" y="219.168"/>
      </g>
     </g>
     <g id="text_7">
      <!-- 0.2 -->
      <g transform="translate(34.696875 222.967219)scale(0.1 -0.1)">
       <use xlink:href="#DejaVuSans-30"/>
       <use x="63.623047" xlink:href="#DejaVuSans-2e"/>
       <use x="95.410156" xlink:href="#DejaVuSans-32"/>
      </g>
     </g>
    </g>
    <g id="ytick_3">
     <g id="line2d_8">
      <g>
       <use style="stroke:#000000;stroke-width:0.8;" x="57.6" xlink:href="#m37ed5e06f2" y="189.408"/>
      </g>
     </g>
     <g id="text_8">
      <!-- 0.4 -->
      <defs>
       <path d="M 37.796875 64.3125 
L 12.890625 25.390625 
L 37.796875 25.390625 
z
M 35.203125 72.90625 
L 47.609375 72.90625 
L 47.609375 25.390625 
L 58.015625 25.390625 
L 58.015625 17.1875 
L 47.609375 17.1875 
L 47.609375 0 
L 37.796875 0 
L 37.796875 17.1875 
L 4.890625 17.1875 
L 4.890625 26.703125 
z
" id="DejaVuSans-34"/>
      </defs>
      <g transform="translate(34.696875 193.207219)scale(0.1 -0.1)">
       <use xlink:href="#DejaVuSans-30"/>
       <use x="63.623047" xlink:href="#DejaVuSans-2e"/>
       <use x="95.410156" xlink:href="#DejaVuSans-34"/>
      </g>
     </g>
    </g>
    <g id="ytick_4">
     <g id="line2d_9">
      <g>
       <use style="stroke:#000000;stroke-width:0.8;" x="57.6" xlink:href="#m37ed5e06f2" y="159.648"/>
      </g>
     </g>
     <g id="text_9">
      <!-- 0.6 -->
      <defs>
       <path d="M 33.015625 40.375 
Q 26.375 40.375 22.484375 35.828125 
Q 18.609375 31.296875 18.609375 23.390625 
Q 18.609375 15.53125 22.484375 10.953125 
Q 26.375 6.390625 33.015625 6.390625 
Q 39.65625 6.390625 43.53125 10.953125 
Q 47.40625 15.53125 47.40625 23.390625 
Q 47.40625 31.296875 43.53125 35.828125 
Q 39.65625 40.375 33.015625 40.375 
z
M 52.59375 71.296875 
L 52.59375 62.3125 
Q 48.875 64.0625 45.09375 64.984375 
Q 41.3125 65.921875 37.59375 65.921875 
Q 27.828125 65.921875 22.671875 59.328125 
Q 17.53125 52.734375 16.796875 39.40625 
Q 19.671875 43.65625 24.015625 45.921875 
Q 28.375 48.1875 33.59375 48.1875 
Q 44.578125 48.1875 50.953125 41.515625 
Q 57.328125 34.859375 57.328125 23.390625 
Q 57.328125 12.15625 50.6875 5.359375 
Q 44.046875 -1.421875 33.015625 -1.421875 
Q 20.359375 -1.421875 13.671875 8.265625 
Q 6.984375 17.96875 6.984375 36.375 
Q 6.984375 53.65625 15.1875 63.9375 
Q 23.390625 74.21875 37.203125 74.21875 
Q 40.921875 74.21875 44.703125 73.484375 
Q 48.484375 72.75 52.59375 71.296875 
z
" id="DejaVuSans-36"/>
      </defs>
      <g transform="translate(34.696875 163.447219)scale(0.1 -0.1)">
       <use xlink:href="#DejaVuSans-30"/>
       <use x="63.623047" xlink:href="#DejaVuSans-2e"/>
       <use x="95.410156" xlink:href="#DejaVuSans-36"/>
      </g>
     </g>
    </g>
    <g id="ytick_5">
     <g id="line2d_10">
      <g>
       <use style="stroke:#000000;stroke-width:0.8;" x="57.6" xlink:href="#m37ed5e06f2" y="129.888"/>
      </g>
     </g>
     <g id="text_10">
      <!-- 0.8 -->
      <defs>
       <path d="M 31.78125 34.625 
Q 24.75 34.625 20.71875 30.859375 
Q 16.703125 27.09375 16.703125 20.515625 
Q 16.703125 13.921875 20.71875 10.15625 
Q 24.75 6.390625 31.78125 6.390625 
Q 38.8125 6.390625 42.859375 10.171875 
Q 46.921875 13.96875 46.921875 20.515625 
Q 46.921875 27.09375 42.890625 30.859375 
Q 38.875 34.625 31.78125 34.625 
z
M 21.921875 38.8125 
Q 15.578125 40.375 12.03125 44.71875 
Q 8.5 49.078125 8.5 55.328125 
Q 8.5 64.0625 14.71875 69.140625 
Q 20.953125 74.21875 31.78125 74.21875 
Q 42.671875 74.21875 48.875 69.140625 
Q 55.078125 64.0625 55.078125 55.328125 
Q 55.078125 49.078125 51.53125 44.71875 
Q 48 40.375 41.703125 38.8125 
Q 48.828125 37.15625 52.796875 32.3125 
Q 56.78125 27.484375 56.78125 20.515625 
Q 56.78125 9.90625 50.3125 4.234375 
Q 43.84375 -1.421875 31.78125 -1.421875 
Q 19.734375 -1.421875 13.25 4.234375 
Q 6.78125 9.90625 6.78125 20.515625 
Q 6.78125 27.484375 10.78125 32.3125 
Q 14.796875 37.15625 21.921875 38.8125 
z
M 18.3125 54.390625 
Q 18.3125 48.734375 21.84375 45.5625 
Q 25.390625 42.390625 31.78125 42.390625 
Q 38.140625 42.390625 41.71875 45.5625 
Q 45.3125 48.734375 45.3125 54.390625 
Q 45.3125 60.0625 41.71875 63.234375 
Q 38.140625 66.40625 31.78125 66.40625 
Q 25.390625 66.40625 21.84375 63.234375 
Q 18.3125 60.0625 18.3125 54.390625 
z
" id="DejaVuSans-38"/>
      </defs>
      <g transform="translate(34.696875 133.687219)scale(0.1 -0.1)">
       <use xlink:href="#DejaVuSans-30"/>
       <use x="63.623047" xlink:href="#DejaVuSans-2e"/>
       <use x="95.410156" xlink:href="#DejaVuSans-38"/>
      </g>
     </g>
    </g>
    <g id="ytick_6">
     <g id="line2d_11">
      <g>
       <use style="stroke:#000000;stroke-width:0.8;" x="57.6" xlink:href="#m37ed5e06f2" y="100.128"/>
      </g>
     </g>
     <g id="text_11">
      <!-- 1.0 -->
      <g transform="translate(34.696875 103.927219)scale(0.1 -0.1)">
       <use xlink:href="#DejaVuSans-31"/>
       <use x="63.623047" xlink:href="#DejaVuSans-2e"/>
       <use x="95.410156" xlink:href="#DejaVuSans-30"/>
      </g>
     </g>
    </g>
   </g>
   <g id="line2d_12">
    <path clip-path="url(#p0e9d43ca9c)" d="M 236.16 248.928 
L 236.16 100.128 
" style="fill:none;stroke:#cc0000;stroke-dasharray:7.4,3.2;stroke-dashoffset:0;stroke-width:2;"/>
   </g>
   <g id="line2d_13">
    <path clip-path="url(#p0e9d43ca9c)" d="M 87.36 248.928 
L 384.96 248.928 
" style="fill:none;stroke:#009900;stroke-linecap:square;stroke-width:2;"/>
   </g>
   <g id="line2d_14">
    <path clip-path="url(#p0e9d43ca9c)" d="M 384.96 248.928 
L 384.96 100.128 
" style="fill:none;stroke:#009900;stroke-linecap:square;stroke-width:2;"/>
   </g>
   <g id="line2d_15">
    <path clip-path="url(#p0e9d43ca9c)" d="M 384.96 100.128 
L 87.36 100.128 
" style="fill:none;stroke:#009900;stroke-linecap:square;stroke-width:2;"/>
   </g>
   <g id="line2d_16">
    <path clip-path="url(#p0e9d43ca9c)" d="M 87.36 100.128 
L 87.36 248.928 
" style="fill:none;stroke:#009900;stroke-linecap:square;stroke-width:2;"/>
   </g>
   <g id="line2d_17">
    <path clip-path="url(#p0e9d43ca9c)" d="M 206.323316 229.594575 
L 212.217177 228.767545 
L 218.073252 227.705485 
L 223.882171 226.410094 
L 229.634642 224.883445 
L 235.321462 223.127979 
L 236.16 222.847879 
L 230.48371 221.058656 
L 224.740411 219.497856 
L 218.939291 218.167975 
L 213.08963 217.071141 
L 207.200786 216.209108 
L 201.282181 215.583255 
L 195.343282 215.194585 
L 189.393592 215.043717 
L 183.442627 215.130895 
L 177.499909 215.455978 
L 171.574944 216.018446 
L 165.677211 216.8174 
L 159.816145 217.851561 
L 154.001123 219.119275 
L 148.241447 220.618514 
L 142.546332 222.346879 
L 136.924889 224.301606 
L 131.38611 226.479567 
L 125.938857 228.877277 
L 120.591845 231.490902 
L 115.353626 234.31626 
L 110.232581 237.34883 
L 105.236904 240.583762 
L 100.374585 244.015881 
L 95.653403 247.639694 
L 94.065213 248.928 
L 89.39428 245.239645 
L 87.36 243.725445 
L 92.093112 240.117228 
L 96.678149 236.322624 
L 101.107774 232.347702 
L 105.374901 228.198822 
L 109.472704 223.882621 
L 113.394628 219.406004 
L 117.134397 214.776133 
L 120.686029 210.000414 
L 124.043843 205.086488 
L 127.202466 200.042216 
L 130.367929 194.487405 
L 133.508386 191.315836 
L 136.833372 188.338289 
L 140.33092 185.56548 
L 143.988444 183.007386 
L 147.792779 180.673216 
L 151.730235 178.57137 
L 155.786641 176.709411 
L 159.947398 175.094041 
L 164.197531 173.731073 
L 168.521746 172.625413 
L 172.90448 171.78104 
L 177.329959 171.200993 
L 181.782256 170.887358 
L 186.245348 170.841266 
L 190.703174 171.062882 
L 195.139688 171.551408 
L 198.885566 172.175907 
L 194.605129 173.440492 
L 190.256565 174.44613 
L 185.855523 175.1892 
L 181.417844 175.667029 
L 176.959497 175.877898 
L 172.496529 175.821047 
L 168.045001 175.49668 
L 163.620933 174.905966 
L 159.240248 174.05103 
L 154.918711 172.934948 
L 150.671875 171.561739 
L 146.515024 169.936343 
L 142.463119 168.064611 
L 138.530742 165.953278 
L 134.732044 163.609944 
L 131.080698 161.043041 
L 128.09998 158.689975 
L 132.459782 159.645715 
L 136.75443 160.861166 
L 140.968466 162.331954 
L 145.086725 164.052786 
L 149.094385 166.017468 
L 152.977024 168.218931 
L 156.720667 170.649251 
L 160.311842 173.299681 
L 163.737624 176.160683 
L 166.985685 179.221961 
L 170.044334 182.472496 
L 172.902565 185.900592 
L 175.550089 189.493909 
L 177.97738 193.239517 
L 180.175702 197.123935 
L 182.137142 201.133183 
L 183.614133 204.631768 
L 180.255245 201.692519 
L 177.07865 198.557146 
L 174.09578 195.236934 
L 171.317372 191.743832 
L 168.753423 188.090411 
L 166.413162 184.289819 
L 164.30501 180.355735 
L 162.436556 176.302317 
L 160.814523 172.144153 
L 159.444749 167.896208 
L 158.332164 163.57377 
L 157.480771 159.192395 
L 156.893636 154.767851 
L 156.57287 150.316061 
L 156.519628 145.853048 
L 156.734103 141.394874 
L 157.12681 137.617655 
L 158.652513 141.812122 
L 159.923953 146.090528 
L 160.936555 150.437476 
L 161.686675 154.837321 
L 162.171612 159.274229 
L 162.389622 163.732232 
L 162.33992 168.195286 
L 162.022684 172.647328 
L 161.439058 177.072336 
L 160.59114 181.454385 
L 159.481983 185.777705 
L 158.115578 190.026735 
L 156.496843 194.186184 
L 154.631604 198.241082 
L 152.526573 202.176837 
L 150.189326 205.979283 
L 148.024226 209.099209 
L 143.489952 212.954329 
L 139.11347 216.987687 
L 134.901779 221.192832 
L 130.861618 225.563036 
L 126.99945 230.091307 
L 123.321455 234.770402 
L 119.833515 239.592834 
L 116.541211 244.55089 
L 113.863998 248.928 
L 110.74459 243.859383 
L 107.424987 238.919564 
L 103.910499 234.116445 
L 100.206749 229.457709 
L 96.319661 224.950811 
L 92.255455 220.60296 
L 88.020633 216.421111 
L 87.36 215.798156 
L 91.620263 211.642228 
L 95.710925 207.319258 
L 99.625442 202.836164 
L 103.357552 198.200117 
L 106.901285 193.418533 
L 110.250971 188.499063 
L 113.40125 183.449576 
L 116.347085 178.278151 
L 119.083761 172.99306 
L 121.606901 167.602759 
L 123.912468 162.115871 
L 125.996773 156.541173 
L 127.856483 150.887585 
L 129.488623 145.164151 
L 130.89058 139.380026 
L 132.060113 133.544465 
L 132.99535 127.666803 
L 133.694795 121.756443 
L 134.15733 115.82284 
L 134.382213 109.875487 
L 134.369086 103.923898 
L 134.236294 100.128 
L 134.071265 106.077315 
L 134.144277 112.02847 
L 134.455214 117.971945 
L 135.003578 123.898232 
L 135.788491 129.79785 
L 136.808698 135.661361 
L 138.062568 141.479384 
L 138.973329 145.123789 
L 140.827447 149.183784 
L 142.434776 153.347655 
L 143.78953 157.600414 
L 144.886833 161.926757 
L 145.722737 166.311113 
L 146.294233 170.737705 
L 146.599265 175.1906 
L 146.636734 179.653773 
L 146.406507 184.111162 
L 145.90941 188.546724 
L 145.147234 192.944497 
L 144.122722 197.288653 
L 142.83956 201.563558 
L 141.351844 205.630205 
L 140.409909 211.506798 
L 139.703729 217.416357 
L 139.234432 223.349429 
L 139.002771 229.296522 
L 139.009115 235.248122 
L 139.253454 241.194707 
L 139.735399 247.126765 
L 139.929149 248.928 
L 140.483279 243.002249 
L 140.799998 237.059079 
L 140.8788 231.107998 
L 140.71956 225.158525 
L 140.322531 219.22018 
L 139.68835 213.302461 
L 138.81803 207.414836 
L 138.043549 203.187553 
L 132.092415 203.262273 
L 126.149029 203.574915 
L 120.2229 204.124979 
L 114.323507 204.911585 
L 108.46029 205.933475 
L 102.642626 207.189013 
L 96.879825 208.676192 
L 91.181104 210.392631 
L 87.36 211.684866 
L 93.010101 213.555143 
L 98.730474 215.197979 
L 104.511968 216.610748 
L 110.345332 217.791189 
L 116.221236 218.737413 
L 122.130278 219.447907 
L 128.063006 219.921534 
L 134.009928 220.157536 
L 139.961531 220.155536 
L 145.908293 219.915536 
L 151.840701 219.437922 
L 157.749264 218.723457 
L 163.62453 217.773284 
L 169.4571 216.588922 
L 175.237642 215.172268 
L 180.95691 213.525587 
L 186.605753 211.651513 
L 192.175135 209.553045 
L 197.656145 207.233539 
L 203.040016 204.696707 
L 208.318134 201.946606 
L 213.482055 198.987637 
L 218.523518 195.824533 
L 223.434459 192.462355 
L 228.20702 188.90648 
L 232.833566 185.162599 
L 236.16 182.273564 
L 231.646323 178.39435 
L 226.98113 174.698737 
L 222.171883 171.192639 
L 217.226277 167.881664 
L 212.152223 164.771108 
L 206.957838 161.865949 
L 201.651433 159.170833 
L 196.241497 156.690073 
L 193.82232 155.664076 
L 194.386212 149.739246 
L 194.712722 143.796606 
L 194.801329 137.845663 
L 194.651891 131.895936 
L 194.264647 125.956944 
L 193.640216 120.038189 
L 192.779597 114.149138 
L 191.684168 108.299214 
L 190.355681 102.497774 
L 189.742147 100.128 
L 188.318403 105.9068 
L 187.126888 111.737913 
L 186.169509 117.612009 
L 185.447796 123.519691 
L 184.962905 129.451509 
L 184.715612 135.397973 
L 184.706311 141.349569 
L 184.833852 145.3486 
L 190.658022 144.1236 
L 196.428546 142.666674 
L 202.136193 140.980154 
L 207.771831 139.066739 
L 213.326445 136.929488 
L 218.791149 134.571822 
L 224.157201 131.997511 
L 229.416015 129.210675 
L 234.559179 126.215772 
L 236.16 125.226282 
L 231.055125 122.166571 
L 225.831977 119.313449 
L 220.498913 116.671478 
L 215.064464 114.244887 
L 209.537324 112.037557 
L 203.926335 110.053019 
L 198.240475 108.294449 
L 192.488838 106.764658 
L 186.680627 105.466096 
L 180.825134 104.400838 
L 174.931725 103.57059 
L 169.009829 102.97668 
L 163.06892 102.620058 
L 157.118501 102.501293 
L 151.168094 102.620577 
L 145.227216 102.977719 
L 139.305372 103.572146 
L 133.412035 104.402909 
L 127.556635 105.468677 
L 121.748537 106.767747 
L 115.997034 108.29804 
L 110.311327 110.057107 
L 104.700512 112.042135 
L 99.173565 114.249947 
L 93.739328 116.677013 
L 88.406494 119.319449 
L 87.36 119.869619 
L 92.67167 122.554343 
L 98.086451 125.02451 
L 103.595681 127.276168 
L 109.190547 129.305714 
L 114.862098 131.109901 
L 120.60126 132.685844 
L 126.398853 134.031021 
L 132.245601 135.143281 
L 138.13215 136.020843 
L 144.049084 136.662303 
L 149.986937 137.066637 
L 155.936209 137.233196 
L 161.887383 137.161715 
L 167.830938 136.852307 
L 173.757366 136.305468 
L 179.657186 135.522072 
L 185.520959 134.503373 
L 191.339304 133.251001 
L 197.102914 131.766959 
L 202.802568 130.053621 
L 208.429147 128.113728 
L 213.973651 125.950383 
L 219.427209 123.567048 
L 224.781097 120.967535 
L 230.026749 118.156003 
L 235.155774 115.13695 
L 236.16 114.512956 
L 231.055125 111.453246 
L 225.831977 108.600123 
L 220.498913 105.958153 
L 215.064464 103.531562 
L 209.537324 101.324232 
L 206.241568 100.128 
L 200.663955 102.204492 
L 195.173842 104.502368 
L 189.78001 107.017952 
L 184.49109 109.747219 
L 179.315542 112.685804 
L 174.261645 115.829005 
L 169.337486 119.171793 
L 164.550941 122.708822 
L 159.909669 126.434432 
L 155.421093 130.342663 
L 151.092396 134.427264 
L 146.930502 138.681698 
L 144.087388 141.793939 
L 138.216974 142.773644 
L 132.390433 143.987319 
L 126.617088 145.433023 
L 120.906173 147.108442 
L 115.266825 149.010898 
L 109.708066 151.137345 
L 104.238788 153.484382 
L 98.867742 156.048255 
L 93.60352 158.824861 
L 88.454543 161.80976 
L 87.36 162.480345 
L 92.483036 165.509549 
L 97.72311 168.331464 
L 103.07184 170.941575 
L 108.520667 173.335705 
L 114.060875 175.510026 
L 119.683602 177.461058 
L 124.833548 179.031011 
L 119.730335 182.093494 
L 114.75367 185.3576 
L 109.911516 188.81811 
L 105.211619 192.469485 
L 100.661497 196.305886 
L 96.26843 200.321175 
L 92.039445 204.508927 
L 87.981309 208.862444 
L 87.36 209.560694 
L 91.390711 213.939615 
L 95.593308 218.153848 
L 99.961067 222.196651 
L 104.487002 226.061557 
L 109.163871 229.742382 
L 113.984194 233.233237 
L 118.940257 236.528539 
L 124.024133 239.623016 
L 129.227689 242.511716 
L 134.542599 245.190019 
L 139.960362 247.65364 
L 143.011268 248.928 
L 148.482432 246.585363 
L 153.855539 244.025813 
L 159.121993 241.253442 
L 164.27337 238.272687 
L 169.301427 235.088316 
L 174.198122 231.705424 
L 178.955621 228.129422 
L 183.566312 224.366032 
L 188.022819 220.421273 
L 192.318014 216.301457 
L 196.445024 212.013174 
L 200.397247 207.563285 
L 204.168361 202.958909 
L 207.752332 198.207411 
L 211.143428 193.316394 
L 214.336222 188.293681 
L 217.325607 183.147308 
L 220.106802 177.885508 
L 222.675356 172.516698 
L 225.02716 167.049469 
L 227.158452 161.492566 
L 229.065822 155.854878 
L 230.746219 150.145426 
L 232.196955 144.373343 
L 233.415709 138.547862 
L 234.400531 132.678305 
L 235.149845 126.77406 
L 235.662453 120.844573 
L 235.937535 114.89933 
L 235.974651 108.947843 
L 235.773741 102.999632 
L 235.591341 100.128 
L 235.27545 106.071214 
L 235.197477 112.022307 
L 235.357547 117.971757 
L 235.755403 123.910047 
L 236.16 127.924116 
L 235.6013 133.849438 
L 235.279997 139.792362 
L 235.196604 145.743381 
L 235.351255 151.692974 
L 235.743703 157.631625 
L 236.16 161.780707 
L 235.6013 167.706028 
L 235.279997 173.648952 
L 235.196604 179.599971 
L 235.351255 185.549565 
L 235.743703 191.488215 
L 236.16 195.637297 
L 235.6013 201.562619 
L 235.279997 207.505543 
L 235.196604 213.456562 
L 235.351255 219.406155 
L 235.743703 225.344805 
L 236.16 229.493888 
L 235.6013 235.419209 
L 235.279997 241.362133 
L 235.196604 247.313152 
L 235.215037 248.928 
L 235.025942 238.515843 
L 234.590917 232.58016 
L 233.918875 226.666622 
L 233.010893 220.784687 
L 231.868423 214.943768 
L 230.493291 209.153207 
L 228.887699 203.422268 
L 227.054215 197.760121 
L 224.995773 192.175822 
L 222.715664 186.678306 
L 220.217537 181.276367 
L 217.505388 175.978648 
L 214.583557 170.793623 
L 211.456717 165.729588 
L 208.12987 160.794643 
L 204.60834 155.996685 
L 200.897759 151.343388 
L 197.004065 146.842197 
L 192.933485 142.500313 
L 188.692532 138.324681 
L 184.28799 134.321982 
L 179.726907 130.49862 
L 175.016578 126.860711 
L 170.16454 123.414074 
L 165.178554 120.164225 
L 160.066596 117.116361 
L 154.836846 114.275359 
L 149.497669 111.645763 
L 144.057608 109.231781 
L 138.525364 107.037275 
L 132.909788 105.065755 
L 127.219865 103.320374 
L 121.464696 101.803926 
L 115.653489 100.518837 
L 113.629006 100.128 
L 107.80055 101.332444 
L 102.024921 102.769001 
L 96.31136 104.435373 
L 90.669005 106.328893 
L 87.36 107.557975 
L 92.955851 109.584804 
L 98.628277 111.386236 
L 104.368205 112.959391 
L 110.16645 114.301752 
L 116.013737 115.411171 
L 121.900712 116.285874 
L 127.817957 116.92446 
L 133.756006 117.325909 
L 139.705358 117.489579 
L 145.656497 117.415207 
L 151.599901 117.102912 
L 157.526062 116.553195 
L 163.425501 115.766933 
L 169.288778 114.745387 
L 175.106515 113.490188 
L 180.869403 112.003347 
L 186.568224 110.28724 
L 192.193861 108.344614 
L 197.737313 106.178577 
L 203.189712 103.792593 
L 208.542337 101.19048 
L 210.582052 100.128 
L 215.893821 102.81253 
L 221.308692 105.282498 
L 226.818005 107.533954 
L 232.412946 109.563294 
L 236.16 110.783072 
L 243.528836 111.808239 
L 250.920997 112.648884 
L 258.331861 113.304481 
L 265.756798 113.774622 
L 273.191166 114.059011 
L 280.630321 114.157471 
L 288.069612 114.069942 
L 295.504391 113.796476 
L 302.930011 113.337246 
L 310.34183 112.692539 
L 317.735218 111.862756 
L 325.105552 110.848418 
L 332.448228 109.650157 
L 339.758656 108.268723 
L 347.032268 106.704979 
L 354.264516 104.959902 
L 361.450883 103.034583 
L 368.586876 100.930226 
L 371.146028 100.128 
L 378.262768 102.29658 
L 384.96 104.161612 
L 377.794547 106.163362 
L 370.681372 108.343604 
L 363.62492 110.700976 
L 356.629601 113.234004 
L 349.699787 115.941105 
L 342.839809 118.820587 
L 336.053954 121.870651 
L 329.346464 125.089391 
L 322.721529 128.474795 
L 316.183291 132.024747 
L 309.735836 135.737029 
L 303.383192 139.60932 
L 297.129331 143.639201 
L 290.978161 147.824153 
L 284.933526 152.16156 
L 278.999203 156.648712 
L 273.178902 161.282805 
L 267.47626 166.060941 
L 261.894841 170.980136 
L 256.438133 176.037315 
L 251.109547 181.229317 
L 245.912412 186.552897 
L 240.849977 192.004729 
L 236.16 197.309288 
L 241.091301 202.880014 
L 246.160314 208.32573 
L 251.363872 213.643032 
L 256.698722 218.828597 
L 262.161532 223.879185 
L 267.748885 228.791638 
L 273.457292 233.562886 
L 279.283183 238.189949 
L 285.222918 242.669933 
L 291.272786 247.00004 
L 294.07283 248.928 
L 300.171767 244.667285 
L 306.16229 240.255443 
L 312.040657 235.695233 
L 317.803194 230.989504 
L 323.446299 226.141197 
L 328.966446 221.153342 
L 334.360184 216.029056 
L 339.624143 210.771542 
L 344.755033 205.384086 
L 349.749647 199.870054 
L 354.604865 194.232893 
L 359.31765 188.476126 
L 363.885059 182.60335 
L 368.304236 176.618237 
L 372.572421 170.524525 
L 376.686944 164.326024 
L 380.645236 158.026608 
L 384.96 150.734126 
L 381.182653 144.324573 
L 377.246265 138.011447 
L 373.153295 131.798693 
L 368.906301 125.690193 
L 364.507937 119.689767 
L 359.960954 113.801163 
L 355.268191 108.028062 
L 350.432582 102.374072 
L 348.442348 100.128 
L 343.549971 105.732941 
L 338.799232 111.458428 
L 334.1931 117.300881 
L 329.734453 123.25665 
L 325.426079 129.322013 
L 321.270668 135.493178 
L 317.27082 141.76629 
L 313.429032 148.137427 
L 311.082845 152.214125 
L 307.647548 145.614924 
L 304.048361 139.103659 
L 300.287535 132.684398 
L 296.367419 126.361155 
L 292.290464 120.13788 
L 288.059217 114.018463 
L 283.676322 108.006728 
L 279.144519 102.106433 
L 277.571588 100.128 
L 272.989838 105.989594 
L 268.556045 111.963888 
L 264.272979 118.047149 
L 260.143317 124.235574 
L 256.169639 130.525297 
L 252.354431 136.912385 
L 248.700075 143.392848 
L 245.208855 149.962635 
L 241.882954 156.617641 
L 238.724451 163.353706 
L 236.16 169.169875 
L 239.173916 175.971862 
L 242.356922 182.696383 
L 245.707029 189.339236 
L 249.222144 195.89627 
L 252.900068 202.363386 
L 256.738505 208.736542 
L 260.735054 215.011756 
L 264.887218 221.185106 
L 269.192403 227.252733 
L 273.647917 233.210846 
L 278.250976 239.055721 
L 282.998704 244.783705 
L 286.58837 248.928 
L 291.440816 243.288453 
L 296.150772 237.52937 
L 300.715293 231.65435 
L 305.131528 225.667065 
L 309.396717 219.571256 
L 313.508193 213.370734 
L 317.463388 207.069373 
L 321.259829 200.671111 
L 324.895144 194.179948 
L 327.797361 188.707414 
L 333.564709 184.007583 
L 339.212772 179.165051 
L 344.738018 174.182846 
L 350.136996 169.064081 
L 355.406332 163.811956 
L 360.542731 158.429752 
L 365.542984 152.920833 
L 370.403965 147.288642 
L 375.122638 141.536699 
L 379.696053 135.668599 
L 384.96 128.518523 
L 380.563674 122.516604 
L 376.018689 116.626457 
L 371.327886 110.851763 
L 366.494197 105.196132 
L 361.948249 100.128 
L 356.986449 105.671578 
L 352.164775 111.337456 
L 347.486239 117.122092 
L 342.953766 123.021873 
L 338.570189 129.033109 
L 334.338247 135.152046 
L 330.260584 141.374857 
L 326.33975 147.697656 
L 321.904541 155.306039 
L 318.828913 160.40134 
L 315.551989 165.369574 
L 312.079009 170.202791 
L 308.41553 174.893261 
L 304.567412 179.433478 
L 300.540813 183.81618 
L 296.342173 188.034355 
L 294.375579 189.898326 
L 298.731519 185.842791 
L 303.246153 181.964691 
L 307.912259 178.27023 
L 312.722371 174.765319 
L 317.668794 171.455564 
L 322.743616 168.346261 
L 327.938718 165.442384 
L 346.082205 155.765527 
L 352.486626 151.979486 
L 358.794405 148.034534 
L 365.001598 143.933136 
L 371.104328 139.677857 
L 377.098781 135.271355 
L 382.981208 130.716384 
L 384.96 129.130381 
L 379.1166 124.52545 
L 373.159914 120.068028 
L 367.093666 115.7609 
L 360.921647 111.606758 
L 354.647713 107.608199 
L 348.275786 103.767722 
L 341.882692 100.128 
L 335.417784 103.809804 
L 329.046932 107.652064 
L 322.774117 111.652377 
L 316.60326 115.808245 
L 310.538217 120.117069 
L 304.582778 124.576158 
L 298.740666 129.182723 
L 293.015532 133.933886 
L 287.410953 138.826679 
L 281.930433 143.858042 
L 276.577396 149.024831 
L 271.355188 154.323818 
L 266.267073 159.751691 
L 261.316231 165.305058 
L 256.505756 170.980447 
L 251.838653 176.774312 
L 247.317841 182.683032 
L 242.946144 188.702914 
L 238.726294 194.830196 
L 236.16 198.723659 
L 240.283325 204.916308 
L 244.560162 211.00395 
L 248.987838 216.98278 
L 253.563585 222.849061 
L 258.284544 228.599127 
L 263.147764 234.229385 
L 268.150207 239.736316 
L 273.288745 245.116477 
L 277.089434 248.928 
L 282.324438 243.641655 
L 287.425662 238.2261 
L 292.389917 232.684719 
L 297.2141 227.020978 
L 301.895197 221.238414 
L 306.430282 215.340641 
L 310.816521 209.331346 
L 315.051173 203.214285 
L 319.131591 196.99328 
L 320.788953 194.366118 
L 328.219981 194.727424 
L 335.657718 194.902861 
L 343.097517 194.892319 
L 350.534728 194.695804 
L 357.964702 194.313441 
L 365.382796 193.745466 
L 372.784374 192.992236 
L 380.164811 192.054221 
L 384.96 191.343906 
L 377.595821 190.285802 
L 370.207493 189.412114 
L 362.799634 188.723388 
L 355.376874 188.220054 
L 347.943851 187.902428 
L 340.505211 187.770707 
L 333.065603 187.824973 
L 328.39023 187.954291 
L 330.280849 195.149865 
L 332.350748 202.295929 
L 334.598633 209.388018 
L 337.0231 216.4217 
L 339.622632 223.392578 
L 342.395607 230.296297 
L 345.340289 237.128541 
L 348.45484 243.885041 
L 350.914964 248.928 
L 354.156345 242.231421 
L 357.229315 235.455908 
L 360.131955 228.605697 
L 362.862451 221.685068 
L 365.419095 214.698345 
L 367.800291 207.649897 
L 370.00455 200.544128 
L 372.030494 193.385478 
L 373.876858 186.178422 
L 375.542487 178.927463 
L 377.02634 171.637134 
L 378.327491 164.311991 
L 379.445125 156.956611 
L 380.378545 149.575592 
L 381.127167 142.173546 
L 381.690523 134.7551 
L 382.068262 127.324889 
L 382.260146 119.887558 
L 382.266056 112.447754 
L 382.085989 105.010127 
L 381.866554 100.128 
L 381.564378 107.561667 
L 381.448118 115.000565 
L 381.517848 122.440044 
L 381.773524 129.875456 
L 382.214986 137.302153 
L 382.841958 144.715494 
L 383.654048 152.110846 
L 384.650749 159.483586 
L 384.96 161.52505 
L 383.912171 168.890698 
L 383.048792 176.280237 
L 382.370401 183.68905 
L 381.877424 191.112505 
L 381.570167 198.545964 
L 381.448824 205.984781 
L 381.51347 213.424306 
L 381.764064 220.859891 
L 382.20045 228.286888 
L 382.822356 235.700655 
L 383.629392 243.09656 
L 384.398135 248.928 
L 384.96 244.756387 
L 383.926911 237.388657 
L 382.709971 230.049054 
L 381.30994 222.742165 
L 379.727694 215.472556 
L 377.96422 208.244771 
L 376.020622 201.063327 
L 373.898114 193.932711 
L 371.598022 186.857381 
L 369.121784 179.841758 
L 366.470948 172.890227 
L 363.64717 166.007133 
L 360.652214 159.196776 
L 357.487954 152.463413 
L 354.156365 145.811253 
L 350.659531 139.244452 
L 346.999637 132.767116 
L 343.17897 126.383291 
L 339.199918 120.096967 
L 335.064968 113.912074 
L 330.776703 107.832477 
L 326.337804 101.861975 
L 325.004559 100.128 
L 320.521899 106.065716 
L 316.189067 112.113632 
L 312.008771 118.267967 
L 307.983624 124.524876 
L 304.116141 130.880448 
L 300.408739 137.330711 
L 296.863736 143.871633 
L 293.483346 150.499127 
L 290.269683 157.209052 
L 287.224755 163.997213 
L 284.350464 170.859368 
L 281.648608 177.791228 
L 279.120874 184.788462 
L 276.768843 191.846696 
L 274.593984 198.961519 
L 272.597657 206.128484 
L 270.781109 213.343113 
L 269.145476 220.600897 
L 267.691779 227.897299 
L 266.420928 235.22776 
L 265.333717 242.587698 
L 264.547165 248.928 
L 263.618199 241.546419 
L 262.505002 234.190366 
L 261.208272 226.864439 
L 259.728817 219.573216 
L 258.067563 212.321254 
L 256.225549 205.113085 
L 254.203924 197.953215 
L 252.003953 190.846116 
L 249.62701 183.796233 
L 247.074582 176.807969 
L 244.348262 169.885694 
L 241.449756 163.033732 
L 238.380874 156.256367 
L 236.16 151.615459 
L 239.345586 144.89216 
L 242.362112 138.09133 
L 245.207693 131.21722 
L 247.880549 124.274125 
L 250.37901 117.266386 
L 252.701516 110.198382 
L 254.846614 103.07453 
L 255.677452 100.128 
L 257.749154 107.273542 
L 259.998829 114.365063 
L 262.42507 121.398133 
L 265.026362 128.368355 
L 267.801078 135.271374 
L 270.747485 142.102875 
L 273.863741 148.858589 
L 277.147898 155.534293 
L 280.597904 162.125816 
L 284.211603 168.629038 
L 288.2608 175.491369 
L 285.040716 182.198215 
L 281.989292 188.983458 
L 279.108434 195.842859 
L 276.399944 202.77213 
L 273.865514 209.766941 
L 271.506729 216.82292 
L 269.325061 223.935659 
L 267.321875 231.10071 
L 265.498423 238.313597 
L 263.855843 245.569812 
L 263.159867 248.928 
L 261.601016 241.653338 
L 259.860805 234.419917 
L 257.940321 227.232257 
L 255.840764 220.09485 
L 253.563447 213.012157 
L 251.109792 205.988604 
L 248.481334 199.028581 
L 245.679714 192.136437 
L 242.706685 185.31648 
L 239.564103 178.572972 
L 236.16 171.726998 
L 239.474777 165.066444 
L 242.622022 158.325112 
L 245.599767 151.507212 
L 248.406153 144.617008 
L 251.039424 137.658804 
L 253.497935 130.63695 
L 255.78015 123.555833 
L 257.884642 116.41988 
L 259.810097 109.23355 
L 261.55531 102.001334 
L 261.976306 100.128 
L 263.674823 107.371325 
L 265.553872 114.569928 
L 267.612282 121.719311 
L 269.848763 128.815004 
L 272.26192 135.852574 
L 274.850244 142.827623 
L 277.612117 149.73579 
L 280.545813 156.572759 
L 283.649498 163.334257 
L 286.921234 170.016057 
L 288.312185 172.73436 
L 283.950209 178.761289 
L 279.740253 184.895373 
L 275.684949 191.132779 
L 271.786831 197.469607 
L 268.048336 203.901898 
L 264.471799 210.425632 
L 261.059456 217.036731 
L 257.81344 223.731064 
L 254.735779 230.504447 
L 251.828396 237.352647 
L 249.093109 244.271384 
L 247.363483 248.928 
L 244.744059 241.964572 
L 241.951386 235.068798 
L 238.987209 228.244989 
L 236.16 222.138529 
L 239.277706 215.383484 
L 242.225579 208.552616 
L 245.001777 201.650193 
L 247.604565 194.680529 
L 250.032316 187.647981 
L 252.283513 180.556942 
L 254.356749 173.411845 
L 256.250728 166.217155 
L 257.964268 158.977369 
L 259.496295 151.697012 
L 260.845855 144.380632 
L 262.012102 137.032804 
L 262.994307 129.658118 
L 263.791859 122.261184 
L 264.404256 114.846625 
L 264.831118 107.419075 
L 265.069258 100.128 
L 265.103321 101.615609 
L 265.385175 109.050074 
L 265.852783 116.475171 
L 266.505854 123.886258 
L 267.343978 131.278704 
L 268.366632 138.64789 
L 269.573176 145.989209 
L 270.962858 153.298074 
L 272.534808 160.569916 
L 274.288044 167.800191 
L 276.22147 174.984381 
L 278.333878 182.117995 
L 280.623948 189.196575 
L 283.090248 196.215698 
L 285.731237 203.170976 
L 288.545265 210.058063 
L 291.530573 216.872654 
L 294.685295 223.610491 
L 298.007459 230.267362 
L 301.49499 236.839108 
L 305.145708 243.321622 
L 308.478596 248.928 
L 312.2705 242.527048 
L 315.901212 236.033309 
L 319.368463 229.450841 
L 322.670085 222.783757 
L 325.804017 216.036225 
L 328.768298 209.212461 
L 331.561076 202.31673 
L 334.180607 195.353342 
L 336.625253 188.326648 
L 338.893485 181.24104 
L 340.983887 174.100947 
L 342.895152 166.91083 
L 344.626086 159.675183 
L 346.175606 152.398528 
L 347.542745 145.085413 
L 348.726648 137.740409 
L 349.726574 130.368105 
L 350.5419 122.973109 
L 351.172116 115.560043 
L 351.616827 108.13354 
L 351.887934 100.128 
L 351.921996 101.615609 
L 352.20385 109.050074 
L 352.671459 116.475171 
L 353.324529 123.886258 
L 354.162653 131.278704 
L 355.185307 138.64789 
L 356.391852 145.989209 
L 357.781533 153.298074 
L 359.353483 160.569916 
L 361.106719 167.800191 
L 363.040145 174.984381 
L 365.152553 182.117995 
L 367.442623 189.196575 
L 369.908923 196.215698 
L 372.549912 203.170976 
L 375.36394 210.058063 
L 378.349248 216.872654 
L 381.50397 223.610491 
L 384.96 230.527098 
L 381.631301 237.180705 
L 378.469965 243.915441 
L 376.248524 248.928 
L 373.211795 242.136167 
L 370.006236 235.422367 
L 366.633852 228.790796 
L 363.09675 222.245597 
L 359.397139 215.790862 
L 355.537334 209.430625 
L 351.519745 203.16886 
L 347.346884 197.009482 
L 343.021358 190.956338 
L 338.545871 185.013213 
L 333.92322 179.183821 
L 332.661495 177.643498 
L 338.744252 173.359717 
L 344.718025 168.92522 
L 350.57908 164.342781 
L 356.323755 159.615263 
L 361.948458 154.74562 
L 367.449676 149.736896 
L 372.82397 144.592221 
L 378.067981 139.31481 
L 383.178432 133.907961 
L 384.96 131.957939 
L 379.897738 126.505946 
L 374.700772 121.182201 
L 369.372351 115.99003 
L 363.915803 110.932678 
L 358.334541 106.013306 
L 352.63205 101.234988 
L 351.268715 100.128 
L 345.538127 104.872584 
L 339.927932 109.758935 
L 334.441636 114.784 
L 329.082668 119.944637 
L 323.854377 125.237622 
L 318.760031 130.659647 
L 313.802813 136.207323 
L 308.985821 141.877183 
L 304.312067 147.665683 
L 299.78447 153.569206 
L 297.860916 156.172738 
L 290.717145 158.250539 
L 283.627547 160.506267 
L 276.596551 162.938511 
L 269.628551 165.545752 
L 262.727904 168.32636 
L 255.898921 171.278598 
L 249.14587 174.400619 
L 242.472971 177.690474 
L 236.16 180.99732 
L 242.752209 184.446016 
L 249.428566 187.728846 
L 256.184898 190.843759 
L 263.016985 193.788808 
L 269.920555 196.562152 
L 276.891294 199.162058 
L 283.924846 201.586902 
L 291.016815 203.835167 
L 298.162768 205.905449 
L 305.35824 207.796454 
L 312.598734 209.507 
L 319.879724 211.036018 
L 327.196661 212.382552 
L 334.544971 213.545761 
L 341.920062 214.524918 
L 349.317325 215.319411 
L 356.732137 215.928743 
L 364.159863 216.352534 
L 371.595862 216.590519 
L 379.035486 216.642549 
L 384.96 216.550939 
L 383.472392 216.516841 
L 376.032819 216.457942 
L 368.594098 216.585031 
L 361.160879 216.898029 
L 353.737807 217.396741 
L 346.32952 218.080854 
L 338.94065 218.949941 
L 331.575814 220.003459 
L 324.239614 221.240749 
L 316.936635 222.661039 
L 309.671442 224.263441 
L 302.448576 226.046952 
L 295.272549 228.010459 
L 288.147848 230.152735 
L 281.078924 232.47244 
L 274.070195 234.968125 
L 267.126043 237.63823 
L 260.250806 240.481086 
L 253.448781 243.494917 
L 246.72422 246.67784 
L 242.217132 248.928 
L 236.16 245.925852 
L 242.822177 242.61434 
L 249.399493 239.137325 
L 255.887838 235.496982 
L 262.283156 231.695584 
L 268.581451 227.735508 
L 274.778785 223.619228 
L 280.871287 219.349318 
L 286.855149 214.928445 
L 292.72663 210.359372 
L 298.482062 205.644956 
L 304.117847 200.788141 
L 308.583477 196.760313 
L 313.156425 202.628777 
L 317.87464 208.381095 
L 322.735174 214.013672 
L 327.734989 219.522989 
L 332.87096 224.905601 
L 338.139877 230.158146 
L 343.538448 235.27734 
L 349.063298 240.259985 
L 354.710976 245.102965 
L 359.381541 248.928 
L 365.126294 244.200576 
L 370.751078 239.331026 
L 376.252379 234.322392 
L 381.626757 229.177806 
L 384.96 225.854104 
L 379.667664 220.625157 
L 374.246271 215.530138 
L 368.699211 210.572231 
L 363.029948 205.754536 
L 357.242028 201.080064 
L 351.339067 196.551734 
L 345.324754 192.172379 
L 339.202847 187.944734 
L 332.977174 183.871442 
L 331.288737 182.804585 
L 326.03751 180.003479 
L 320.902497 176.994621 
L 315.891914 173.782824 
L 311.013777 170.373226 
L 306.275889 166.771282 
L 301.685831 162.982754 
L 297.250945 159.013704 
L 295.87713 157.717416 
L 299.27588 162.603118 
L 302.476535 167.620825 
L 305.473975 172.762511 
L 308.263405 178.01995 
L 310.840363 183.38473 
L 313.200725 188.84827 
L 315.340715 194.40183 
L 315.973211 196.181627 
L 315.173173 190.284041 
L 314.609615 184.359179 
L 314.28344 178.416521 
L 314.195168 172.465572 
L 314.344942 166.515854 
L 314.732521 160.576884 
L 315.357286 154.658164 
L 315.604981 152.785632 
L 313.63065 158.40022 
L 311.433374 163.931364 
L 309.016669 169.370217 
L 306.384401 174.708076 
L 303.540781 179.936404 
L 300.490358 185.046834 
L 297.238012 190.031193 
L 296.164511 191.585323 
L 296.164511 191.585323 
" style="fill:none;stroke:#1f77b4;stroke-linecap:square;stroke-width:1.5;"/>
   </g>
   <g id="patch_5">
    <path d="M 57.6 263.808 
L 57.6 85.248 
" style="fill:none;stroke:#000000;stroke-linecap:square;stroke-linejoin:miter;stroke-width:0.8;"/>
   </g>
   <g id="patch_6">
    <path d="M 414.72 263.808 
L 414.72 85.248 
" style="fill:none;stroke:#000000;stroke-linecap:square;stroke-linejoin:miter;stroke-width:0.8;"/>
   </g>
   <g id="patch_7">
    <path d="M 57.6 263.808 
L 414.72 263.808 
" style="fill:none;stroke:#000000;stroke-linecap:square;stroke-linejoin:miter;stroke-width:0.8;"/>
   </g>
   <g id="patch_8">
    <path d="M 57.6 85.248 
L 414.72 85.248 
" style="fill:none;stroke:#000000;stroke-linecap:square;stroke-linejoin:miter;stroke-width:0.8;"/>
   </g>
  </g>
 </g>
 <defs>
  <clipPath id="p0e9d43ca9c">
   <rect height="178.56" width="357.12" x="57.6" y="85.248"/>
  </clipPath>
 </defs>
</svg>
