<?xml version="1.0" encoding="utf-8" standalone="no"?>
<!DOCTYPE svg PUBLIC "-//W3C//DTD SVG 1.1//EN"
  "http://www.w3.org/Graphics/SVG/1.1/DTD/svg11.dtd">
<!-- Created with matplotlib (http://matplotlib.org/) -->
<svg height="345.6pt" version="1.1" viewBox="0 0 460.8 345.6" width="460.8pt" xmlns="http://www.w3.org/2000/svg" xmlns:xlink="http://www.w3.org/1999/xlink">
 <defs>
  <style type="text/css">
*{stroke-linecap:butt;stroke-linejoin:round;}
  </style>
 </defs>
 <g id="figure_1">
  <g id="patch_1">
   <path d="M 0 345.6 
L 460.8 345.6 
L 460.8 0 
L 0 0 
z
" style="fill:#ffffff;"/>
  </g>
  <g id="axes_1">
   <g id="patch_2">
    <path d="M 57.6 263.808 
L 414.72 263.808 
L 414.72 85.248 
L 57.6 85.248 
z
" style="fill:#ffffff;"/>
   </g>
   <g id="PathCollection_1">
    <defs>
     <path d="M 0 3 
C 0.795609 3 1.55874 2.683901 2.12132 2.12132 
C 2.683901 1.55874 3 0.795609 3 0 
C 3 -0.795609 2.683901 -1.55874 2.12132 -2.12132 
C 1.55874 -2.683901 0.795609 -3 0 -3 
C -0.795609 -3 -1.55874 -2.683901 -2.12132 -2.12132 
C -2.683901 -1.55874 -3 -0.795609 -3 0 
C -3 0.795609 -2.683901 1.55874 -2.12132 2.12132 
C -1.55874 2.683901 -0.795609 3 0 3 
z
" id="m469e7a663a" style="stroke:#000000;"/>
    </defs>
    <g clip-path="url(#p7a48c5cd36)">
     <use style="stroke:#000000;" x="216.105923" xlink:href="#m469e7a663a" y="120.273416"/>
    </g>
   </g>
   <g id="patch_3">
    <path clip-path="url(#p7a48c5cd36)" d="M 161.76 211.728 
C 171.625555 211.728 181.088371 207.808373 188.064372 200.832372 
C 195.040373 193.856371 198.96 184.393555 198.96 174.528 
C 198.96 164.662445 195.040373 155.199629 188.064372 148.223628 
C 181.088371 141.247627 171.625555 137.328 161.76 137.328 
C 151.894445 137.328 142.431629 141.247627 135.455628 148.223628 
C 128.479627 155.199629 124.56 164.662445 124.56 174.528 
C 124.56 184.393555 128.479627 193.856371 135.455628 200.832372 
C 142.431629 207.808373 151.894445 211.728 161.76 211.728 
z
" style="fill:#cc0000;fill-opacity:0.1;stroke:#cc0000;stroke-dasharray:7.4,3.2;stroke-dashoffset:0;stroke-linejoin:miter;stroke-width:2;"/>
   </g>
   <g id="patch_4">
    <path clip-path="url(#p7a48c5cd36)" d="M 310.56 196.848 
C 316.479333 196.848 322.157023 194.496224 326.342623 190.310623 
C 330.528224 186.125023 332.88 180.447333 332.88 174.528 
C 332.88 168.608667 330.528224 162.930977 326.342623 158.745377 
C 322.157023 154.559776 316.479333 152.208 310.56 152.208 
C 304.640667 152.208 298.962977 154.559776 294.777377 158.745377 
C 290.591776 162.930977 288.24 168.608667 288.24 174.528 
C 288.24 180.447333 290.591776 186.125023 294.777377 190.310623 
C 298.962977 194.496224 304.640667 196.848 310.56 196.848 
z
" style="fill:#cc0000;fill-opacity:0.1;stroke:#cc0000;stroke-dasharray:7.4,3.2;stroke-dashoffset:0;stroke-linejoin:miter;stroke-width:2;"/>
   </g>
   <g id="matplotlib.axis_1">
    <g id="xtick_1">
     <g id="line2d_1">
      <defs>
       <path d="M 0 0 
L 0 3.5 
" id="m6e2ae5c7d3" style="stroke:#000000;stroke-width:0.8;"/>
      </defs>
      <g>
       <use style="stroke:#000000;stroke-width:0.8;" x="87.36" xlink:href="#m6e2ae5c7d3" y="263.808"/>
      </g>
     </g>
     <g id="text_1">
      <!-- 0.0 -->
      <defs>
       <path d="M 31.78125 66.40625 
Q 24.171875 66.40625 20.328125 58.90625 
Q 16.5 51.421875 16.5 36.375 
Q 16.5 21.390625 20.328125 13.890625 
Q 24.171875 6.390625 31.78125 6.390625 
Q 39.453125 6.390625 43.28125 13.890625 
Q 47.125 21.390625 47.125 36.375 
Q 47.125 51.421875 43.28125 58.90625 
Q 39.453125 66.40625 31.78125 66.40625 
z
M 31.78125 74.21875 
Q 44.046875 74.21875 50.515625 64.515625 
Q 56.984375 54.828125 56.984375 36.375 
Q 56.984375 17.96875 50.515625 8.265625 
Q 44.046875 -1.421875 31.78125 -1.421875 
Q 19.53125 -1.421875 13.0625 8.265625 
Q 6.59375 17.96875 6.59375 36.375 
Q 6.59375 54.828125 13.0625 64.515625 
Q 19.53125 74.21875 31.78125 74.21875 
z
" id="DejaVuSans-30"/>
       <path d="M 10.6875 12.40625 
L 21 12.40625 
L 21 0 
L 10.6875 0 
z
" id="DejaVuSans-2e"/>
      </defs>
      <g transform="translate(79.408438 278.406437)scale(0.1 -0.1)">
       <use xlink:href="#DejaVuSans-30"/>
       <use x="63.623047" xlink:href="#DejaVuSans-2e"/>
       <use x="95.410156" xlink:href="#DejaVuSans-30"/>
      </g>
     </g>
    </g>
    <g id="xtick_2">
     <g id="line2d_2">
      <g>
       <use style="stroke:#000000;stroke-width:0.8;" x="161.76" xlink:href="#m6e2ae5c7d3" y="263.808"/>
      </g>
     </g>
     <g id="text_2">
      <!-- 0.5 -->
      <defs>
       <path d="M 10.796875 72.90625 
L 49.515625 72.90625 
L 49.515625 64.59375 
L 19.828125 64.59375 
L 19.828125 46.734375 
Q 21.96875 47.46875 24.109375 47.828125 
Q 26.265625 48.1875 28.421875 48.1875 
Q 40.625 48.1875 47.75 41.5 
Q 54.890625 34.8125 54.890625 23.390625 
Q 54.890625 11.625 47.5625 5.09375 
Q 40.234375 -1.421875 26.90625 -1.421875 
Q 22.3125 -1.421875 17.546875 -0.640625 
Q 12.796875 0.140625 7.71875 1.703125 
L 7.71875 11.625 
Q 12.109375 9.234375 16.796875 8.0625 
Q 21.484375 6.890625 26.703125 6.890625 
Q 35.15625 6.890625 40.078125 11.328125 
Q 45.015625 15.765625 45.015625 23.390625 
Q 45.015625 31 40.078125 35.4375 
Q 35.15625 39.890625 26.703125 39.890625 
Q 22.75 39.890625 18.8125 39.015625 
Q 14.890625 38.140625 10.796875 36.28125 
z
" id="DejaVuSans-35"/>
      </defs>
      <g transform="translate(153.808437 278.406437)scale(0.1 -0.1)">
       <use xlink:href="#DejaVuSans-30"/>
       <use x="63.623047" xlink:href="#DejaVuSans-2e"/>
       <use x="95.410156" xlink:href="#DejaVuSans-35"/>
      </g>
     </g>
    </g>
    <g id="xtick_3">
     <g id="line2d_3">
      <g>
       <use style="stroke:#000000;stroke-width:0.8;" x="236.16" xlink:href="#m6e2ae5c7d3" y="263.808"/>
      </g>
     </g>
     <g id="text_3">
      <!-- 1.0 -->
      <defs>
       <path d="M 12.40625 8.296875 
L 28.515625 8.296875 
L 28.515625 63.921875 
L 10.984375 60.40625 
L 10.984375 69.390625 
L 28.421875 72.90625 
L 38.28125 72.90625 
L 38.28125 8.296875 
L 54.390625 8.296875 
L 54.390625 0 
L 12.40625 0 
z
" id="DejaVuSans-31"/>
      </defs>
      <g transform="translate(228.208437 278.406437)scale(0.1 -0.1)">
       <use xlink:href="#DejaVuSans-31"/>
       <use x="63.623047" xlink:href="#DejaVuSans-2e"/>
       <use x="95.410156" xlink:href="#DejaVuSans-30"/>
      </g>
     </g>
    </g>
    <g id="xtick_4">
     <g id="line2d_4">
      <g>
       <use style="stroke:#000000;stroke-width:0.8;" x="310.56" xlink:href="#m6e2ae5c7d3" y="263.808"/>
      </g>
     </g>
     <g id="text_4">
      <!-- 1.5 -->
      <g transform="translate(302.608437 278.406437)scale(0.1 -0.1)">
       <use xlink:href="#DejaVuSans-31"/>
       <use x="63.623047" xlink:href="#DejaVuSans-2e"/>
       <use x="95.410156" xlink:href="#DejaVuSans-35"/>
      </g>
     </g>
    </g>
    <g id="xtick_5">
     <g id="line2d_5">
      <g>
       <use style="stroke:#000000;stroke-width:0.8;" x="384.96" xlink:href="#m6e2ae5c7d3" y="263.808"/>
      </g>
     </g>
     <g id="text_5">
      <!-- 2.0 -->
      <defs>
       <path d="M 19.1875 8.296875 
L 53.609375 8.296875 
L 53.609375 0 
L 7.328125 0 
L 7.328125 8.296875 
Q 12.9375 14.109375 22.625 23.890625 
Q 32.328125 33.6875 34.8125 36.53125 
Q 39.546875 41.84375 41.421875 45.53125 
Q 43.3125 49.21875 43.3125 52.78125 
Q 43.3125 58.59375 39.234375 62.25 
Q 35.15625 65.921875 28.609375 65.921875 
Q 23.96875 65.921875 18.8125 64.3125 
Q 13.671875 62.703125 7.8125 59.421875 
L 7.8125 69.390625 
Q 13.765625 71.78125 18.9375 73 
Q 24.125 74.21875 28.421875 74.21875 
Q 39.75 74.21875 46.484375 68.546875 
Q 53.21875 62.890625 53.21875 53.421875 
Q 53.21875 48.921875 51.53125 44.890625 
Q 49.859375 40.875 45.40625 35.40625 
Q 44.1875 33.984375 37.640625 27.21875 
Q 31.109375 20.453125 19.1875 8.296875 
z
" id="DejaVuSans-32"/>
      </defs>
      <g transform="translate(377.008437 278.406437)scale(0.1 -0.1)">
       <use xlink:href="#DejaVuSans-32"/>
       <use x="63.623047" xlink:href="#DejaVuSans-2e"/>
       <use x="95.410156" xlink:href="#DejaVuSans-30"/>
      </g>
     </g>
    </g>
   </g>
   <g id="matplotlib.axis_2">
    <g id="ytick_1">
     <g id="line2d_6">
      <defs>
       <path d="M 0 0 
L -3.5 0 
" id="m6fc58be751" style="stroke:#000000;stroke-width:0.8;"/>
      </defs>
      <g>
       <use style="stroke:#000000;stroke-width:0.8;" x="57.6" xlink:href="#m6fc58be751" y="248.928"/>
      </g>
     </g>
     <g id="text_6">
      <!-- 0.0 -->
      <g transform="translate(34.696875 252.727219)scale(0.1 -0.1)">
       <use xlink:href="#DejaVuSans-30"/>
       <use x="63.623047" xlink:href="#DejaVuSans-2e"/>
       <use x="95.410156" xlink:href="#DejaVuSans-30"/>
      </g>
     </g>
    </g>
    <g id="ytick_2">
     <g id="line2d_7">
      <g>
       <use style="stroke:#000000;stroke-width:0.8;" x="57.6" xlink:href="#m6fc58be751" y="219.168"/>
      </g>
     </g>
     <g id="text_7">
      <!-- 0.2 -->
      <g transform="translate(34.696875 222.967219)scale(0.1 -0.1)">
       <use xlink:href="#DejaVuSans-30"/>
       <use x="63.623047" xlink:href="#DejaVuSans-2e"/>
       <use x="95.410156" xlink:href="#DejaVuSans-32"/>
      </g>
     </g>
    </g>
    <g id="ytick_3">
     <g id="line2d_8">
      <g>
       <use style="stroke:#000000;stroke-width:0.8;" x="57.6" xlink:href="#m6fc58be751" y="189.408"/>
      </g>
     </g>
     <g id="text_8">
      <!-- 0.4 -->
      <defs>
       <path d="M 37.796875 64.3125 
L 12.890625 25.390625 
L 37.796875 25.390625 
z
M 35.203125 72.90625 
L 47.609375 72.90625 
L 47.609375 25.390625 
L 58.015625 25.390625 
L 58.015625 17.1875 
L 47.609375 17.1875 
L 47.609375 0 
L 37.796875 0 
L 37.796875 17.1875 
L 4.890625 17.1875 
L 4.890625 26.703125 
z
" id="DejaVuSans-34"/>
      </defs>
      <g transform="translate(34.696875 193.207219)scale(0.1 -0.1)">
       <use xlink:href="#DejaVuSans-30"/>
       <use x="63.623047" xlink:href="#DejaVuSans-2e"/>
       <use x="95.410156" xlink:href="#DejaVuSans-34"/>
      </g>
     </g>
    </g>
    <g id="ytick_4">
     <g id="line2d_9">
      <g>
       <use style="stroke:#000000;stroke-width:0.8;" x="57.6" xlink:href="#m6fc58be751" y="159.648"/>
      </g>
     </g>
     <g id="text_9">
      <!-- 0.6 -->
      <defs>
       <path d="M 33.015625 40.375 
Q 26.375 40.375 22.484375 35.828125 
Q 18.609375 31.296875 18.609375 23.390625 
Q 18.609375 15.53125 22.484375 10.953125 
Q 26.375 6.390625 33.015625 6.390625 
Q 39.65625 6.390625 43.53125 10.953125 
Q 47.40625 15.53125 47.40625 23.390625 
Q 47.40625 31.296875 43.53125 35.828125 
Q 39.65625 40.375 33.015625 40.375 
z
M 52.59375 71.296875 
L 52.59375 62.3125 
Q 48.875 64.0625 45.09375 64.984375 
Q 41.3125 65.921875 37.59375 65.921875 
Q 27.828125 65.921875 22.671875 59.328125 
Q 17.53125 52.734375 16.796875 39.40625 
Q 19.671875 43.65625 24.015625 45.921875 
Q 28.375 48.1875 33.59375 48.1875 
Q 44.578125 48.1875 50.953125 41.515625 
Q 57.328125 34.859375 57.328125 23.390625 
Q 57.328125 12.15625 50.6875 5.359375 
Q 44.046875 -1.421875 33.015625 -1.421875 
Q 20.359375 -1.421875 13.671875 8.265625 
Q 6.984375 17.96875 6.984375 36.375 
Q 6.984375 53.65625 15.1875 63.9375 
Q 23.390625 74.21875 37.203125 74.21875 
Q 40.921875 74.21875 44.703125 73.484375 
Q 48.484375 72.75 52.59375 71.296875 
z
" id="DejaVuSans-36"/>
      </defs>
      <g transform="translate(34.696875 163.447219)scale(0.1 -0.1)">
       <use xlink:href="#DejaVuSans-30"/>
       <use x="63.623047" xlink:href="#DejaVuSans-2e"/>
       <use x="95.410156" xlink:href="#DejaVuSans-36"/>
      </g>
     </g>
    </g>
    <g id="ytick_5">
     <g id="line2d_10">
      <g>
       <use style="stroke:#000000;stroke-width:0.8;" x="57.6" xlink:href="#m6fc58be751" y="129.888"/>
      </g>
     </g>
     <g id="text_10">
      <!-- 0.8 -->
      <defs>
       <path d="M 31.78125 34.625 
Q 24.75 34.625 20.71875 30.859375 
Q 16.703125 27.09375 16.703125 20.515625 
Q 16.703125 13.921875 20.71875 10.15625 
Q 24.75 6.390625 31.78125 6.390625 
Q 38.8125 6.390625 42.859375 10.171875 
Q 46.921875 13.96875 46.921875 20.515625 
Q 46.921875 27.09375 42.890625 30.859375 
Q 38.875 34.625 31.78125 34.625 
z
M 21.921875 38.8125 
Q 15.578125 40.375 12.03125 44.71875 
Q 8.5 49.078125 8.5 55.328125 
Q 8.5 64.0625 14.71875 69.140625 
Q 20.953125 74.21875 31.78125 74.21875 
Q 42.671875 74.21875 48.875 69.140625 
Q 55.078125 64.0625 55.078125 55.328125 
Q 55.078125 49.078125 51.53125 44.71875 
Q 48 40.375 41.703125 38.8125 
Q 48.828125 37.15625 52.796875 32.3125 
Q 56.78125 27.484375 56.78125 20.515625 
Q 56.78125 9.90625 50.3125 4.234375 
Q 43.84375 -1.421875 31.78125 -1.421875 
Q 19.734375 -1.421875 13.25 4.234375 
Q 6.78125 9.90625 6.78125 20.515625 
Q 6.78125 27.484375 10.78125 32.3125 
Q 14.796875 37.15625 21.921875 38.8125 
z
M 18.3125 54.390625 
Q 18.3125 48.734375 21.84375 45.5625 
Q 25.390625 42.390625 31.78125 42.390625 
Q 38.140625 42.390625 41.71875 45.5625 
Q 45.3125 48.734375 45.3125 54.390625 
Q 45.3125 60.0625 41.71875 63.234375 
Q 38.140625 66.40625 31.78125 66.40625 
Q 25.390625 66.40625 21.84375 63.234375 
Q 18.3125 60.0625 18.3125 54.390625 
z
" id="DejaVuSans-38"/>
      </defs>
      <g transform="translate(34.696875 133.687219)scale(0.1 -0.1)">
       <use xlink:href="#DejaVuSans-30"/>
       <use x="63.623047" xlink:href="#DejaVuSans-2e"/>
       <use x="95.410156" xlink:href="#DejaVuSans-38"/>
      </g>
     </g>
    </g>
    <g id="ytick_6">
     <g id="line2d_11">
      <g>
       <use style="stroke:#000000;stroke-width:0.8;" x="57.6" xlink:href="#m6fc58be751" y="100.128"/>
      </g>
     </g>
     <g id="text_11">
      <!-- 1.0 -->
      <g transform="translate(34.696875 103.927219)scale(0.1 -0.1)">
       <use xlink:href="#DejaVuSans-31"/>
       <use x="63.623047" xlink:href="#DejaVuSans-2e"/>
       <use x="95.410156" xlink:href="#DejaVuSans-30"/>
      </g>
     </g>
    </g>
   </g>
   <g id="line2d_12">
    <path clip-path="url(#p7a48c5cd36)" d="M 236.16 248.928 
L 236.16 100.128 
" style="fill:none;stroke:#cc0000;stroke-dasharray:7.4,3.2;stroke-dashoffset:0;stroke-width:2;"/>
   </g>
   <g id="line2d_13">
    <path clip-path="url(#p7a48c5cd36)" d="M 87.36 248.928 
L 384.96 248.928 
" style="fill:none;stroke:#009900;stroke-linecap:square;stroke-width:2;"/>
   </g>
   <g id="line2d_14">
    <path clip-path="url(#p7a48c5cd36)" d="M 384.96 248.928 
L 384.96 100.128 
" style="fill:none;stroke:#009900;stroke-linecap:square;stroke-width:2;"/>
   </g>
   <g id="line2d_15">
    <path clip-path="url(#p7a48c5cd36)" d="M 384.96 100.128 
L 87.36 100.128 
" style="fill:none;stroke:#009900;stroke-linecap:square;stroke-width:2;"/>
   </g>
   <g id="line2d_16">
    <path clip-path="url(#p7a48c5cd36)" d="M 87.36 100.128 
L 87.36 248.928 
" style="fill:none;stroke:#009900;stroke-linecap:square;stroke-width:2;"/>
   </g>
   <g id="line2d_17">
    <path clip-path="url(#p7a48c5cd36)" d="M 216.105923 120.273416 
L 221.784647 118.491935 
L 227.387588 116.484791 
L 232.905783 114.255194 
L 236.16 112.817759 
L 243.409867 111.147388 
L 250.615714 109.296311 
L 257.773038 107.265685 
L 264.877364 105.056779 
L 271.924253 102.670973 
L 278.861404 100.128 
L 285.846893 102.688011 
L 292.894194 105.072602 
L 299.9989 107.280285 
L 307.156573 109.309678 
L 314.362739 111.159514 
L 321.612894 112.828637 
L 328.902507 114.316003 
L 336.227022 115.620683 
L 343.581862 116.741861 
L 350.962431 117.678837 
L 358.364115 118.431026 
L 365.782289 118.997956 
L 373.212317 119.379275 
L 380.649555 119.574742 
L 384.96 119.602908 
L 379.008356 119.658211 
L 371.572309 119.894696 
L 364.144498 120.316989 
L 356.729563 120.924826 
L 349.33214 121.717827 
L 341.956852 122.695496 
L 334.608307 123.857223 
L 327.291099 125.202282 
L 320.009801 126.729831 
L 312.768962 128.438917 
L 305.573109 130.328471 
L 298.426738 132.397311 
L 291.334316 134.644146 
L 284.300275 137.067571 
L 277.329012 139.666071 
L 270.424883 142.438023 
L 263.592202 145.381694 
L 256.835241 148.495244 
L 250.158223 151.776728 
L 243.565319 155.224094 
L 236.16 159.352107 
L 233.279352 164.560125 
L 230.609273 169.879171 
L 228.154035 175.300738 
L 225.917567 180.816152 
L 223.903444 186.416589 
L 222.114891 192.093089 
L 220.554767 197.836572 
L 219.22557 203.637849 
L 218.129425 209.48764 
L 217.268086 215.376585 
L 216.642931 221.295264 
L 216.25496 227.234208 
L 216.104794 233.183917 
L 216.192673 239.134871 
L 216.518456 245.077551 
L 216.857222 248.928 
L 217.337253 242.995787 
L 217.579675 237.049123 
L 217.5841 231.097521 
L 217.35052 225.150504 
L 216.879311 219.217583 
L 216.171224 213.308252 
L 215.227394 207.431964 
L 214.04933 201.598119 
L 212.638917 195.816051 
L 210.998411 190.095009 
L 209.130436 184.444146 
L 207.037982 178.872502 
L 204.724394 173.388991 
L 202.193376 168.002385 
L 199.448975 162.721301 
L 196.495582 157.554188 
L 193.337923 152.509313 
L 189.981048 147.594746 
L 186.430328 142.818349 
L 182.691443 138.187764 
L 178.770375 133.710398 
L 174.673396 129.393414 
L 170.407061 125.243719 
L 165.978196 121.267951 
L 161.393884 117.472471 
L 156.661461 113.863351 
L 151.788497 110.446363 
L 146.782788 107.226976 
L 141.652341 104.210339 
L 136.405365 101.401277 
L 133.847901 100.128 
L 128.547962 102.835808 
L 123.360546 105.753392 
L 118.293951 108.876083 
L 113.356284 112.198886 
L 108.555442 115.716485 
L 103.899108 119.423253 
L 99.394729 123.313259 
L 95.049512 127.380282 
L 90.870408 131.617813 
L 87.36 135.454788 
L 91.388474 139.835767 
L 95.588918 144.052146 
L 99.954612 148.097179 
L 104.478572 151.964396 
L 109.153561 155.647609 
L 113.9721 159.140926 
L 118.92648 162.438759 
L 124.008775 165.535831 
L 125.464931 166.37276 
L 129.57851 168.104748 
L 133.58083 170.080286 
L 137.457488 172.292264 
L 141.19453 174.732722 
L 144.778507 177.392877 
L 148.196522 180.263154 
L 151.436274 183.333224 
L 154.486101 186.592038 
L 157.335029 190.027868 
L 159.972805 193.628349 
L 162.389934 197.380522 
L 164.577719 201.270884 
L 166.528285 205.285434 
L 168.234613 209.409723 
L 168.83409 211.049189 
L 168.772329 206.586286 
L 168.978293 202.12771 
L 169.45124 197.689508 
L 170.189469 193.287652 
L 171.190322 188.937984 
L 172.450198 184.656158 
L 173.964562 180.457585 
L 175.727964 176.357374 
L 177.734058 172.370281 
L 179.975624 168.510657 
L 182.444596 164.792391 
L 185.132086 161.228866 
L 188.028424 157.832906 
L 191.123185 154.616732 
L 192.384984 153.410464 
L 195.996918 148.680187 
L 199.416802 143.809256 
L 202.639166 138.805462 
L 205.658853 133.67681 
L 208.471033 128.431505 
L 211.071208 123.077939 
L 213.455218 117.624676 
L 215.619248 112.08044 
L 217.559837 106.4541 
L 219.27388 100.754658 
L 219.447279 100.128 
L 221.136401 105.834877 
L 223.052386 111.469643 
L 225.192169 117.023282 
L 227.552327 122.48691 
L 230.129084 127.851787 
L 232.918317 133.10933 
L 236.16 138.650404 
L 233.14659 143.782747 
L 230.340829 149.031488 
L 227.747205 154.388232 
L 225.36987 159.844407 
L 223.212624 165.391287 
L 221.27892 171.019996 
L 219.571852 176.721531 
L 218.094149 182.48677 
L 216.848176 188.306489 
L 215.835927 194.171379 
L 215.059021 200.072056 
L 214.5187 205.999082 
L 214.215829 211.942974 
L 214.150893 217.894223 
L 214.323995 223.843308 
L 214.734858 229.780713 
L 215.382826 235.696938 
L 216.266861 241.582519 
L 217.38555 247.42804 
L 217.711921 248.928 
L 218.890853 243.094331 
L 219.835558 237.218183 
L 220.544524 231.308957 
L 221.016616 225.376107 
L 221.251081 219.429124 
L 221.247541 213.477522 
L 221.006004 207.530822 
L 220.526856 201.598537 
L 219.810863 195.690159 
L 218.85917 189.815139 
L 217.673301 183.982876 
L 216.255152 178.2027 
L 214.606991 172.483858 
L 212.731457 166.8355 
L 210.631548 161.266661 
L 208.310626 155.786251 
L 205.772401 150.403036 
L 203.020936 145.12563 
L 200.060632 139.962474 
L 196.896224 134.921828 
L 193.532776 130.011758 
L 189.975667 125.240116 
L 186.23059 120.614538 
L 182.303534 116.142423 
L 178.200782 111.830926 
L 173.928898 107.686944 
L 169.494716 103.717106 
L 165.157407 100.128 
L 160.57623 103.927263 
L 156.150647 107.906684 
L 151.887739 112.059899 
L 147.794324 116.380263 
L 143.876953 120.860863 
L 140.141891 125.494533 
L 136.595115 130.273859 
L 133.242297 135.191195 
L 130.088802 140.238675 
L 127.139675 145.408223 
L 124.399634 150.69157 
L 121.873062 156.080263 
L 119.564002 161.565682 
L 117.476146 167.139051 
L 115.612836 172.791454 
L 113.977053 178.513848 
L 112.571412 184.297078 
L 111.398164 190.131893 
L 110.459184 196.008959 
L 109.755975 201.918872 
L 109.289662 207.85218 
L 109.060991 213.799388 
L 109.070328 219.750984 
L 109.317658 225.697446 
L 109.802586 231.629261 
L 110.524334 237.536939 
L 111.48175 243.411029 
L 112.602893 248.928 
L 113.781825 243.094331 
L 114.72653 237.218183 
L 115.435495 231.308957 
L 115.907588 225.376107 
L 116.142052 219.429124 
L 116.138513 213.477522 
L 115.896976 207.530822 
L 115.417828 201.598537 
L 114.701834 195.690159 
L 113.750142 189.815139 
L 112.564272 183.982876 
L 111.146123 178.2027 
L 109.497963 172.483858 
L 107.622428 166.8355 
L 105.52252 161.266661 
L 103.201597 155.786251 
L 100.663373 150.403036 
L 97.911908 145.12563 
L 94.951603 139.962474 
L 91.787196 134.921828 
L 88.423747 130.011758 
L 87.36 128.542608 
L 90.78305 123.673901 
L 94.008665 118.672202 
L 97.031685 113.545514 
L 99.847275 108.302039 
L 102.450929 102.950164 
L 103.71932 100.128 
L 106.211132 105.532854 
L 108.917088 110.83374 
L 111.832858 116.022176 
L 114.953778 121.089861 
L 118.274854 126.02869 
L 121.790775 130.830761 
L 125.495915 135.488391 
L 129.384347 139.994129 
L 133.44985 144.340768 
L 136.412955 147.299939 
L 132.492422 142.822105 
L 128.395959 138.504632 
L 124.130119 134.354428 
L 119.701729 130.378131 
L 115.11787 126.582103 
L 110.385878 122.972417 
L 105.513322 119.554848 
L 100.507998 116.334863 
L 95.377912 113.317613 
L 90.131271 110.507925 
L 87.36 109.13055 
L 92.663937 106.430581 
L 97.855662 103.520672 
L 103.35732 100.128 
L 108.417775 103.260631 
L 113.599454 106.188392 
L 118.894067 108.906599 
L 124.293145 111.410904 
L 129.788049 113.6973 
L 135.36999 115.76213 
L 141.030036 117.60209 
L 146.759134 119.214236 
L 152.548118 120.595991 
L 158.387727 121.745142 
L 164.268619 122.659852 
L 170.181385 123.338658 
L 176.116567 123.780473 
L 182.064669 123.98459 
L 188.016175 123.950684 
L 193.961565 123.678808 
L 199.891328 123.169398 
L 205.795976 122.423267 
L 211.666064 121.441611 
L 217.4922 120.225998 
L 223.265065 118.778375 
L 228.975423 117.101057 
L 234.614138 115.196727 
L 236.16 114.630289 
L 230.5427 112.663688 
L 224.85125 110.923292 
L 219.094755 109.411885 
L 213.282425 108.131886 
L 207.423558 107.085342 
L 201.527526 106.273927 
L 195.603763 105.69894 
L 189.661745 105.3613 
L 183.710978 105.261548 
L 177.760981 105.399842 
L 171.821275 105.775962 
L 165.90136 106.389306 
L 160.010708 107.238893 
L 154.158742 108.323364 
L 148.354825 109.640984 
L 142.60824 111.189644 
L 136.928182 112.966868 
L 131.323738 114.969811 
L 125.803873 117.195271 
L 120.377418 119.639686 
L 115.053054 122.299147 
L 109.839299 125.169397 
L 104.744494 128.245847 
L 99.776789 131.523573 
L 94.944132 134.997333 
L 90.254254 138.661569 
L 87.36 141.079204 
L 91.955513 144.861113 
L 96.698587 148.456226 
L 101.581633 151.85879 
L 106.596839 155.063363 
L 111.736182 158.064818 
L 116.991441 160.858353 
L 122.354207 163.439499 
L 125.809989 164.965746 
L 119.886215 164.39087 
L 113.94419 164.053342 
L 107.993421 163.953702 
L 102.043428 164.092109 
L 96.103728 164.468341 
L 90.183825 165.081797 
L 87.36 165.459109 
L 93.267073 166.185789 
L 99.198481 166.675669 
L 105.144735 166.927963 
L 111.096321 166.942269 
L 117.043718 166.718564 
L 122.977412 166.257205 
L 125.554908 165.982163 
L 120.507994 162.827763 
L 115.338975 159.877708 
L 110.05612 157.136719 
L 104.66788 154.60918 
L 99.182876 152.299135 
L 93.609882 150.210279 
L 87.957814 148.345955 
L 87.36 148.163313 
L 93.01985 146.322749 
L 98.60157 144.257323 
L 104.09623 141.97034 
L 109.49504 139.465459 
L 114.789363 136.746686 
L 119.97073 133.818372 
L 125.03085 130.685201 
L 129.96163 127.352185 
L 134.75518 123.824656 
L 139.403832 120.108259 
L 143.90015 116.208937 
L 148.23694 112.13293 
L 152.407264 107.886758 
L 156.40445 103.477214 
L 159.234922 100.128 
L 163.100439 104.653412 
L 167.143834 109.020624 
L 171.358635 113.222651 
L 175.738102 117.252769 
L 180.275227 121.104532 
L 184.962753 124.771777 
L 189.793179 128.248637 
L 194.758779 131.529551 
L 199.851609 134.60927 
L 205.063521 137.482866 
L 210.386177 140.145743 
L 215.811062 142.59364 
L 221.329498 144.822641 
L 226.932656 146.829182 
L 232.611572 148.61005 
L 236.16 149.597851 
L 230.438744 151.237611 
L 224.787637 153.104848 
L 219.21572 155.196575 
L 213.731907 157.509446 
L 208.344971 160.039762 
L 203.063529 162.783473 
L 196.522427 166.281307 
L 192.312966 167.76514 
L 188.022104 168.993885 
L 183.665282 169.963123 
L 179.25818 170.669364 
L 174.816661 171.110066 
L 170.356707 171.283645 
L 165.89437 171.189474 
L 161.445709 170.827893 
L 157.026736 170.200203 
L 152.653354 169.308664 
L 148.341301 168.156483 
L 144.106097 166.747807 
L 139.962984 165.087707 
L 135.926873 163.182156 
L 132.012289 161.038013 
L 128.141774 158.601454 
L 123.678095 154.664812 
L 119.060562 150.909818 
L 114.296564 147.342481 
L 109.39372 143.968506 
L 104.359876 140.793291 
L 99.203083 137.821916 
L 93.931592 135.059134 
L 88.553836 132.509366 
L 87.36 131.978593 
L 92.759937 129.476141 
L 98.055482 126.759751 
L 103.238166 123.833768 
L 108.299695 120.702874 
L 113.231974 117.372077 
L 118.027111 113.846706 
L 122.677435 110.1324 
L 127.175507 106.235102 
L 131.51413 102.161047 
L 133.554345 100.128 
L 137.813301 104.285269 
L 142.235095 108.268899 
L 146.812656 112.072518 
L 151.538659 115.690042 
L 156.405544 119.115681 
L 161.405526 122.343958 
L 166.530604 125.369706 
L 171.772581 128.188085 
L 177.12307 130.794587 
L 182.573511 133.185041 
L 188.115185 135.355624 
L 193.739226 137.302862 
L 199.436638 139.023642 
L 205.198305 140.515209 
L 211.01501 141.775178 
L 216.877448 142.801532 
L 222.77624 143.592631 
L 228.701949 144.147209 
L 234.645095 144.464377 
L 236.16 144.507145 
L 234.672595 144.549 
L 228.72939 144.865069 
L 222.803579 145.418551 
L 216.904641 146.208559 
L 211.042014 147.23383 
L 205.225076 148.492723 
L 199.463133 149.983225 
L 193.765403 151.70295 
L 191.663625 152.400795 
L 187.64955 154.352338 
L 183.525676 156.059669 
L 179.306844 157.516645 
L 175.008238 158.71802 
L 170.645327 159.659472 
L 166.233815 160.337612 
L 161.789576 160.75 
L 157.328607 160.895151 
L 152.866961 160.772544 
L 148.420695 160.382619 
L 144.005812 159.72678 
L 139.6382 158.807387 
L 135.333578 157.627749 
L 131.107437 156.192111 
L 129.704795 155.651988 
L 133.070048 158.583948 
L 136.253433 161.712427 
L 139.243493 165.026164 
L 142.029468 168.513235 
L 144.601331 172.161089 
L 146.949826 175.956598 
L 149.066502 179.886103 
L 150.943739 183.93546 
L 152.574783 188.090098 
L 153.953763 192.335064 
L 155.075716 196.65508 
L 155.936605 201.034599 
L 156.533332 205.45786 
L 156.863748 209.908943 
L 156.914835 211.411118 
L 158.298197 207.167578 
L 159.933529 203.014626 
L 161.814946 198.967209 
L 163.935677 195.039892 
L 166.288089 191.246809 
L 168.863717 187.601613 
L 171.65329 184.11742 
L 174.64677 180.806771 
L 177.833383 177.681581 
L 181.201661 174.753096 
L 184.739482 172.031856 
L 188.434112 169.527655 
L 192.272257 167.249506 
L 196.240101 165.205606 
L 197.602807 164.571437 
L 193.156142 164.956771 
L 188.694371 165.074772 
L 184.233554 164.925015 
L 179.789744 164.508039 
L 175.378934 163.825345 
L 171.016997 162.879389 
L 166.719634 161.673577 
L 162.502308 160.212247 
L 158.380199 158.500659 
L 154.368141 156.544972 
L 150.480573 154.352226 
L 146.731487 151.930312 
L 143.134375 149.287945 
L 139.702182 146.434636 
L 138.585829 145.428209 
L 140.678552 149.370522 
L 142.531112 153.431229 
L 144.136842 157.595716 
L 145.489963 161.848995 
L 146.585606 166.175759 
L 147.419827 170.560436 
L 147.989624 174.987246 
L 148.292946 179.440258 
L 148.328703 183.903445 
L 148.096764 188.360745 
L 147.597965 192.796116 
L 146.834101 197.193596 
L 145.807921 201.537359 
L 144.523118 205.811771 
L 144.033097 207.232692 
L 143.039805 213.100823 
L 142.28197 219.00398 
L 141.760804 224.932721 
L 141.477142 230.87756 
L 141.431437 236.828988 
L 141.623762 242.777483 
L 142.073822 248.928 
L 142.512462 242.992583 
L 142.713398 237.044373 
L 142.676308 231.092885 
L 142.401252 225.147641 
L 141.88867 219.218152 
L 141.139381 213.313904 
L 140.154584 207.444342 
L 139.540239 204.362916 
L 140.628884 200.034386 
L 141.975127 195.778925 
L 143.574122 191.611848 
L 145.420113 187.548151 
L 147.506459 183.602459 
L 149.82565 179.788974 
L 152.369339 176.121418 
L 155.128373 172.612992 
L 158.092821 169.276322 
L 161.252014 166.123417 
L 164.594584 163.165623 
L 168.1085 160.413585 
L 171.781116 157.877207 
L 175.599215 155.565619 
L 179.549055 153.487139 
L 183.616422 151.649247 
L 187.786677 150.058558 
L 189.321497 149.543927 
L 187.417694 153.580863 
L 185.275246 157.496375 
L 182.901863 161.276372 
L 180.306088 164.907249 
L 177.497261 168.375939 
L 174.485493 171.669959 
L 171.281621 174.777454 
L 167.897176 177.68724 
L 164.34434 180.388845 
L 160.635897 182.872547 
L 156.785195 185.129406 
L 152.806092 187.1513 
L 148.712908 188.930953 
L 144.520375 190.46196 
L 140.243581 191.738811 
L 135.897917 192.756911 
L 131.499024 193.512595 
L 129.893726 193.721242 
L 132.541058 190.127783 
L 135.399106 186.699536 
L 138.457582 183.448837 
L 141.705479 180.387385 
L 145.131108 177.5262 
L 148.722142 174.875578 
L 152.465655 172.445059 
L 156.348176 170.243389 
L 160.355731 168.278492 
L 164.473898 166.55744 
L 168.687856 165.086427 
L 172.982439 163.870747 
L 177.34219 162.914775 
L 181.751421 162.221951 
L 186.194262 161.794769 
L 190.654723 161.634766 
L 195.116753 161.742518 
L 196.732133 161.847704 
L 193.440872 164.862487 
L 189.974755 167.674489 
L 186.346256 170.273588 
L 182.568435 172.65043 
L 178.654886 174.796463 
L 174.619695 176.703961 
L 170.477384 178.366061 
L 166.24286 179.776781 
L 161.931364 180.931043 
L 157.558412 181.824693 
L 153.139742 182.454516 
L 148.691257 182.818244 
L 144.228966 182.914568 
L 139.768929 182.743142 
L 135.327197 182.304584 
L 130.919755 181.60047 
L 126.562466 180.633335 
L 124.997781 180.218274 
L 128.809141 177.895592 
L 132.75292 175.805635 
L 136.814925 173.955923 
L 140.980537 172.353113 
L 145.234764 171.002975 
L 149.562295 169.910366 
L 153.947556 169.07922 
L 158.374764 168.512527 
L 162.827988 168.212327 
L 167.291199 168.179701 
L 171.748335 168.414765 
L 176.183356 168.916674 
L 180.580299 169.683621 
L 184.923341 170.712846 
L 189.196851 172.000646 
L 193.38545 173.542385 
L 197.474063 175.332515 
L 198.929185 176.041836 
L 202.775158 180.58387 
L 206.799688 184.968472 
L 210.996336 189.18863 
L 215.358388 193.23759 
L 219.878867 197.108876 
L 224.55054 200.796294 
L 229.365933 204.293946 
L 234.317343 207.596236 
L 236.16 208.753747 
L 231.160828 211.983276 
L 226.294801 215.410135 
L 221.569704 219.028842 
L 216.993097 222.833609 
L 212.5723 226.818347 
L 208.314387 230.976682 
L 204.226169 235.301963 
L 200.314186 239.787269 
L 196.584696 244.425425 
L 193.243599 248.928 
L 189.691492 244.152634 
L 185.951263 239.523135 
L 182.028894 235.046908 
L 177.930662 230.731115 
L 173.663122 226.582659 
L 169.233102 222.608177 
L 164.647689 218.814029 
L 159.914218 215.206282 
L 155.040262 211.79071 
L 153.567721 210.814727 
L 152.017615 206.629218 
L 150.721278 202.35829 
L 149.683375 198.017313 
L 148.907643 193.621911 
L 148.396872 189.187903 
L 148.152901 184.731245 
L 148.176609 180.267978 
L 148.467909 175.814163 
L 149.025753 171.385831 
L 149.848134 166.998918 
L 150.932093 162.669212 
L 152.273727 158.412295 
L 153.868209 154.243489 
L 155.709799 150.177796 
L 157.791872 146.229848 
L 160.106932 142.413853 
L 162.646649 138.743546 
L 163.678282 137.377493 
L 169.316907 135.472894 
L 174.874857 133.344334 
L 180.343242 130.995217 
L 185.713313 128.429303 
L 190.976479 125.650695 
L 196.124321 122.66384 
L 201.148603 119.473515 
L 206.041287 116.084824 
L 210.794546 112.503189 
L 215.400775 108.734339 
L 219.852606 104.784303 
L 224.142917 100.659401 
L 224.671283 100.128 
L 228.940766 104.274456 
L 233.372648 108.246861 
L 236.16 110.587713 
L 243.196781 113.00317 
L 250.291743 115.241971 
L 257.440452 117.302716 
L 264.638441 119.184119 
L 271.881211 120.885002 
L 279.164235 122.404304 
L 286.482962 123.741075 
L 293.832817 124.894478 
L 301.209208 125.863794 
L 308.607524 126.648416 
L 316.023142 127.247855 
L 323.451428 127.661735 
L 330.887737 127.889798 
L 338.327425 127.931902 
L 345.765839 127.788019 
L 353.198333 127.458241 
L 360.620261 126.942772 
L 368.026984 126.241936 
L 375.413873 125.35617 
L 382.776312 124.286027 
L 384.96 123.932376 
L 377.605719 122.807537 
L 370.225617 121.866887 
L 362.824309 121.111014 
L 355.406418 120.540391 
L 347.97658 120.155374 
L 340.539441 119.956204 
L 333.099646 119.943006 
L 325.661846 120.115787 
L 318.23069 120.474439 
L 310.810821 121.018739 
L 303.406877 121.748347 
L 296.023485 122.662806 
L 288.665259 123.761544 
L 281.336798 125.043876 
L 274.042681 126.509 
L 266.787469 128.155999 
L 259.575694 129.983846 
L 252.411864 131.991397 
L 245.300457 134.177397 
L 238.245916 136.540481 
L 236.16 137.277039 
L 243.196781 139.692495 
L 250.291743 141.931296 
L 257.440452 143.992042 
L 264.638441 145.873444 
L 271.881211 147.574328 
L 279.164235 149.09363 
L 286.482962 150.4304 
L 293.832817 151.583804 
L 301.209208 152.55312 
L 304.818043 152.959219 
L 310.79072 148.523248 
L 316.650644 143.939361 
L 322.394151 139.210424 
L 328.017652 134.339393 
L 333.517633 129.32931 
L 338.890656 124.183308 
L 344.133364 118.904602 
L 349.242479 113.496492 
L 354.21481 107.962357 
L 359.047247 102.305656 
L 360.843571 100.128 
L 365.622134 105.830285 
L 370.541746 111.411336 
L 375.599333 116.867666 
L 380.791733 122.195864 
L 384.96 126.286453 
L 379.664043 131.511734 
L 374.50036 136.867767 
L 369.472177 142.351205 
L 364.582637 147.958621 
L 359.834795 153.68651 
L 355.23162 159.531294 
L 350.775987 165.489318 
L 346.470682 171.55686 
L 342.318394 177.730127 
L 338.32172 184.005262 
L 334.483157 190.378342 
L 330.805104 196.845384 
L 327.289859 203.402348 
L 323.93962 210.045135 
L 320.75648 216.769593 
L 317.742428 223.57152 
L 314.899349 230.446665 
L 312.229019 237.390731 
L 309.733107 244.399378 
L 308.224346 248.928 
L 305.841166 241.880222 
L 303.282555 234.89422 
L 300.550112 227.974359 
L 297.645544 221.124965 
L 294.570667 214.350318 
L 291.327401 207.654651 
L 287.917776 201.042151 
L 284.34392 194.516948 
L 280.608068 188.083121 
L 276.712554 181.744691 
L 272.659814 175.50562 
L 268.452379 169.369806 
L 264.09288 163.341084 
L 259.584041 157.423223 
L 254.928679 151.61992 
L 250.129705 145.934802 
L 245.190117 140.371423 
L 240.113003 134.933259 
L 236.16 130.8817 
L 241.339628 125.541084 
L 246.384136 120.072661 
L 251.290371 114.479846 
L 256.055267 108.766136 
L 260.675847 102.935102 
L 262.817202 100.128 
L 267.36828 106.01344 
L 272.065057 111.783276 
L 276.904597 117.433901 
L 281.883876 122.961785 
L 286.999781 128.363473 
L 292.249116 133.635588 
L 297.6286 138.774836 
L 303.134871 143.778005 
L 308.764487 148.641968 
L 313.285631 152.375047 
L 319.991183 149.15227 
L 326.614079 145.76288 
L 333.150179 142.208993 
L 339.595399 138.492831 
L 345.945711 134.616717 
L 352.197145 130.583073 
L 358.345795 126.394419 
L 364.387819 122.053375 
L 370.319439 117.562652 
L 376.13695 112.925057 
L 381.836715 108.143488 
L 384.96 105.418035 
L 378.815681 100.128 
L 373.172172 104.975837 
L 367.65161 109.963232 
L 362.257445 115.087068 
L 356.993048 120.344143 
L 351.861709 125.731172 
L 346.866635 131.244787 
L 342.010948 136.881544 
L 337.297682 142.637918 
L 332.729784 148.510313 
L 328.310108 154.495059 
L 325.723006 158.149183 
L 331.422364 153.367129 
L 337.000402 148.444101 
L 342.453634 143.383175 
L 347.778652 138.187513 
L 352.972129 132.860364 
L 358.030817 127.405055 
L 362.951556 121.824998 
L 367.731271 116.123678 
L 372.366974 110.30466 
L 376.855768 104.371579 
L 379.926438 100.128 
L 384.96 107.004043 
L 380.554502 112.999233 
L 376.300245 119.102676 
L 372.199887 125.310557 
L 368.255992 131.618996 
L 364.471023 138.024051 
L 360.847347 144.521719 
L 357.387229 151.107939 
L 354.092829 157.778595 
L 350.966208 164.529518 
L 348.00932 171.356489 
L 345.224012 178.25524 
L 342.612025 185.221462 
L 340.174992 192.2508 
L 337.914436 199.33886 
L 335.831769 206.481214 
L 333.928293 213.673397 
L 332.205198 220.910914 
L 330.66356 228.189243 
L 329.304343 235.503834 
L 328.128397 242.850117 
L 327.297164 248.928 
L 326.272889 241.55904 
L 325.06473 234.217986 
L 323.673441 226.909427 
L 322.099891 219.637931 
L 320.345065 212.408041 
L 318.410059 205.224277 
L 316.296082 198.091128 
L 315.326983 194.808097 
L 313.911496 189.027268 
L 312.728312 183.19446 
L 311.779326 177.319002 
L 311.066053 171.410294 
L 310.589637 165.47779 
L 310.350839 159.530979 
L 310.35004 153.579376 
L 310.383592 152.208697 
L 310.442928 153.695507 
L 310.53153 159.646451 
L 310.382086 165.596178 
L 309.994837 171.535169 
L 309.370401 177.453924 
L 308.509777 183.342974 
L 307.414342 189.192897 
L 306.08585 194.994336 
L 305.747009 196.322897 
L 306.021245 194.860392 
L 307.264006 189.039986 
L 308.738526 183.273932 
L 310.442448 177.571457 
L 312.373044 171.941681 
L 314.527228 166.393611 
L 316.901552 160.936124 
L 319.492218 155.57795 
L 320.119229 154.358629 
L 319.525274 155.722939 
L 317.013939 161.11875 
L 314.288837 166.409818 
L 311.354329 171.587679 
L 308.215109 176.644049 
L 304.876199 181.570839 
L 301.342941 186.360168 
L 297.620987 191.004373 
L 294.737845 194.256928 
L 289.836046 199.85363 
L 285.075682 205.571117 
L 280.459727 211.405813 
L 275.991067 217.354073 
L 271.672495 223.412179 
L 267.506709 229.576345 
L 263.496312 235.842718 
L 259.643812 242.207383 
L 255.806534 248.928 
L 252.120833 242.465313 
L 248.274733 236.096778 
L 244.270638 229.826376 
L 240.111051 223.658026 
L 236.16 218.091533 
L 240.45997 212.020209 
L 244.606829 205.843294 
L 248.597985 199.564649 
L 252.430944 193.188197 
L 256.103311 186.717923 
L 259.61279 180.157872 
L 262.957189 173.512143 
L 266.134416 166.784889 
L 269.142487 159.980315 
L 271.979521 153.102674 
L 274.643746 146.156263 
L 277.133496 139.145424 
L 279.447215 132.074538 
L 281.583457 124.948025 
L 283.540888 117.770339 
L 285.318283 110.545965 
L 286.914533 103.279418 
L 287.547898 100.128 
L 289.065569 107.411364 
L 290.76483 114.654515 
L 292.64462 121.852925 
L 294.703764 129.002095 
L 296.940975 136.097559 
L 299.354855 143.134881 
L 301.943896 150.109663 
L 304.261809 156.23766 
L 306.115908 161.893091 
L 307.742366 167.618142 
L 309.138583 173.403655 
L 310.302325 179.240374 
L 311.231728 185.118961 
L 311.925308 191.030013 
L 312.371047 196.774404 
L 311.707694 187.872425 
L 311.562608 181.922591 
L 311.655568 175.971713 
L 311.986425 170.029314 
L 312.55465 164.104898 
L 313.359334 158.207944 
L 314.362381 152.534267 
L 312.781445 161.319818 
L 311.435963 167.11734 
L 309.859718 172.85642 
L 308.055232 178.527875 
L 306.025391 184.122634 
L 303.773444 189.631746 
L 301.385183 194.875116 
L 305.11021 186.762814 
L 307.860985 181.485047 
L 310.820614 176.321504 
L 313.984362 171.280445 
L 317.347168 166.369934 
L 320.903652 161.597827 
L 324.525761 157.117086 
L 318.892732 164.041987 
L 314.911006 168.465498 
L 310.755573 172.726243 
L 306.433079 176.817407 
L 301.950439 180.732446 
L 297.314826 184.465095 
L 292.688435 187.899222 
L 299.872449 182.600616 
L 304.832766 179.311721 
L 309.920636 176.223816 
L 315.12792 173.341841 
L 320.446287 170.670408 
L 325.867228 168.213789 
L 331.204683 166.043929 
L 322.925002 169.380416 
L 317.300474 171.32625 
L 311.602632 173.045605 
L 305.840593 174.535732 
L 300.023573 175.794248 
L 294.160879 176.819138 
L 288.450643 177.587207 
L 297.301232 176.424301 
L 303.233493 175.944856 
L 309.18018 175.703021 
L 315.131782 175.699184 
L 321.078777 175.933351 
L 327.011651 176.405146 
L 332.732756 177.087547 
L 340.090428 178.189989 
L 347.47336 179.108163 
L 354.876936 179.841496 
L 362.29653 180.38953 
L 369.727505 180.751923 
L 377.165216 180.928447 
L 384.96 180.913891 
L 373.056945 180.973839 
L 365.622379 181.253035 
L 358.197116 181.71799 
L 350.785795 182.368411 
L 343.39305 183.203893 
L 336.023499 184.223913 
L 330.181503 185.166563 
L 333.213277 191.960609 
L 336.413937 198.676746 
L 339.781482 205.310776 
L 343.313809 211.858553 
L 347.008709 218.315985 
L 350.863874 224.679036 
L 354.876893 230.94373 
L 359.04526 237.106151 
L 363.366369 243.162449 
L 367.698084 248.928 
L 372.16467 242.978183 
L 376.48113 236.918572 
L 380.644768 230.752954 
L 384.96 223.990519 
L 380.964058 217.714919 
L 376.812491 211.541167 
L 372.507893 205.473123 
L 368.052955 199.514579 
L 363.450461 193.669259 
L 358.703288 187.940816 
L 353.814402 182.33283 
L 348.786858 176.848805 
L 343.6238 171.49217 
L 338.328452 166.266272 
L 332.904126 161.174376 
L 327.35421 156.219666 
L 321.682174 151.405237 
L 315.891562 146.734099 
L 309.985993 142.209171 
L 303.969158 137.833281 
L 297.844818 133.609163 
L 291.616799 129.539458 
L 285.288995 125.626709 
L 278.865359 121.873361 
L 272.349906 118.28176 
L 265.746709 114.854151 
L 259.059894 111.592675 
L 252.29364 108.499372 
L 245.452176 105.576174 
L 238.539778 102.824908 
L 236.16 101.923655 
L 234.054732 100.128 
L 229.568128 104.038494 
L 225.24149 108.125276 
L 221.081741 112.381808 
L 217.095535 116.801281 
L 213.28925 121.376625 
L 209.668974 126.10052 
L 206.240499 130.965409 
L 203.009311 135.963509 
L 199.980577 141.086824 
L 197.159145 146.327157 
L 194.549526 151.676127 
L 193.207993 154.656822 
L 199.159181 154.727107 
L 205.10842 154.559353 
L 211.046191 154.153826 
L 216.962996 153.511177 
L 222.849369 152.632432 
L 228.695894 151.518999 
L 234.493216 150.172657 
L 236.16 149.739989 
L 243.524522 148.684274 
L 250.860352 147.444795 
L 258.162907 146.022326 
L 265.427621 144.417757 
L 272.649955 142.632091 
L 279.825396 140.666443 
L 286.949458 138.522042 
L 294.017689 136.200228 
L 301.025673 133.702452 
L 307.969029 131.030275 
L 314.843417 128.185368 
L 321.644542 125.169507 
L 328.368154 121.984579 
L 335.010049 118.632573 
L 341.566077 115.115585 
L 348.032142 111.435811 
L 354.404201 107.595553 
L 360.678272 103.597211 
L 365.855685 100.128 
L 372.044653 104.256849 
L 378.334898 108.229699 
L 384.96 112.181756 
L 378.568894 115.990231 
L 372.274987 119.957277 
L 366.082213 124.080415 
L 359.994442 128.357067 
L 354.015478 132.784562 
L 348.149058 137.360132 
L 342.398849 142.080917 
L 336.768444 146.943967 
L 331.261362 151.946243 
L 325.239641 157.714597 
L 321.073886 161.965251 
L 316.741482 166.045919 
L 312.24936 169.950074 
L 307.604707 173.671469 
L 302.814953 177.20415 
L 297.88776 180.542466 
L 292.831012 183.681078 
L 290.782841 184.874322 
L 296.206383 182.423451 
L 301.723596 180.191424 
L 307.325653 178.181812 
L 313.003592 176.39783 
L 318.748329 174.842332 
L 324.550674 173.517806 
L 330.401345 172.426372 
L 332.742799 172.057001 
L 326.79967 172.3745 
L 320.848599 172.454084 
L 314.899106 172.295624 
L 308.960708 171.899375 
L 303.042906 171.26597 
L 297.155168 170.396423 
L 291.306911 169.292125 
L 288.990872 168.787347 
L 294.644664 170.646435 
L 300.219591 172.730127 
L 305.706733 175.03509 
L 311.097312 177.557637 
L 316.382703 180.293732 
L 321.554453 183.238997 
L 326.604286 186.388721 
L 328.579674 187.698943 
L 323.984758 183.916309 
L 319.544781 179.952953 
L 315.266848 175.815216 
L 311.157802 171.509716 
L 307.224218 167.043343 
L 303.472386 162.423241 
L 299.908311 157.656801 
L 298.542445 155.719471 
L 298.542445 155.719471 
" style="fill:none;stroke:#1f77b4;stroke-linecap:square;stroke-width:1.5;"/>
   </g>
   <g id="patch_5">
    <path d="M 57.6 263.808 
L 57.6 85.248 
" style="fill:none;stroke:#000000;stroke-linecap:square;stroke-linejoin:miter;stroke-width:0.8;"/>
   </g>
   <g id="patch_6">
    <path d="M 414.72 263.808 
L 414.72 85.248 
" style="fill:none;stroke:#000000;stroke-linecap:square;stroke-linejoin:miter;stroke-width:0.8;"/>
   </g>
   <g id="patch_7">
    <path d="M 57.6 263.808 
L 414.72 263.808 
" style="fill:none;stroke:#000000;stroke-linecap:square;stroke-linejoin:miter;stroke-width:0.8;"/>
   </g>
   <g id="patch_8">
    <path d="M 57.6 85.248 
L 414.72 85.248 
" style="fill:none;stroke:#000000;stroke-linecap:square;stroke-linejoin:miter;stroke-width:0.8;"/>
   </g>
  </g>
 </g>
 <defs>
  <clipPath id="p7a48c5cd36">
   <rect height="178.56" width="357.12" x="57.6" y="85.248"/>
  </clipPath>
 </defs>
</svg>
