<?xml version="1.0" encoding="utf-8" standalone="no"?>
<!DOCTYPE svg PUBLIC "-//W3C//DTD SVG 1.1//EN"
  "http://www.w3.org/Graphics/SVG/1.1/DTD/svg11.dtd">
<!-- Created with matplotlib (https://matplotlib.org/) -->
<svg height="345.6pt" version="1.1" viewBox="0 0 460.8 345.6" width="460.8pt" xmlns="http://www.w3.org/2000/svg" xmlns:xlink="http://www.w3.org/1999/xlink">
 <defs>
  <style type="text/css">
*{stroke-linecap:butt;stroke-linejoin:round;}
  </style>
 </defs>
 <g id="figure_1">
  <g id="patch_1">
   <path d="M 0 345.6 
L 460.8 345.6 
L 460.8 0 
L 0 0 
z
" style="fill:#ffffff;"/>
  </g>
  <g id="axes_1">
   <g id="patch_2">
    <path d="M 57.6 263.808 
L 414.72 263.808 
L 414.72 85.248 
L 57.6 85.248 
z
" style="fill:#ffffff;"/>
   </g>
   <g id="PathCollection_1">
    <defs>
     <path d="M 0 3 
C 0.795609 3 1.55874 2.683901 2.12132 2.12132 
C 2.683901 1.55874 3 0.795609 3 0 
C 3 -0.795609 2.683901 -1.55874 2.12132 -2.12132 
C 1.55874 -2.683901 0.795609 -3 0 -3 
C -0.795609 -3 -1.55874 -2.683901 -2.12132 -2.12132 
C -2.683901 -1.55874 -3 -0.795609 -3 0 
C -3 0.795609 -2.683901 1.55874 -2.12132 2.12132 
C -1.55874 2.683901 -0.795609 3 0 3 
z
" id="mc743282143" style="stroke:#000000;"/>
    </defs>
    <g clip-path="url(#p3f79964370)">
     <use style="stroke:#000000;" x="121.698166" xlink:href="#mc743282143" y="184.923953"/>
    </g>
   </g>
   <g id="patch_3">
    <path clip-path="url(#p3f79964370)" d="M 161.76 211.728 
C 171.625555 211.728 181.088371 207.808373 188.064372 200.832372 
C 195.040373 193.856371 198.96 184.393555 198.96 174.528 
C 198.96 164.662445 195.040373 155.199629 188.064372 148.223628 
C 181.088371 141.247627 171.625555 137.328 161.76 137.328 
C 151.894445 137.328 142.431629 141.247627 135.455628 148.223628 
C 128.479627 155.199629 124.56 164.662445 124.56 174.528 
C 124.56 184.393555 128.479627 193.856371 135.455628 200.832372 
C 142.431629 207.808373 151.894445 211.728 161.76 211.728 
z
" style="fill:#cc0000;fill-opacity:0.1;stroke:#cc0000;stroke-dasharray:7.4,3.2;stroke-dashoffset:0;stroke-linejoin:miter;stroke-width:2;"/>
   </g>
   <g id="patch_4">
    <path clip-path="url(#p3f79964370)" d="M 310.56 196.848 
C 316.479333 196.848 322.157023 194.496224 326.342623 190.310623 
C 330.528224 186.125023 332.88 180.447333 332.88 174.528 
C 332.88 168.608667 330.528224 162.930977 326.342623 158.745377 
C 322.157023 154.559776 316.479333 152.208 310.56 152.208 
C 304.640667 152.208 298.962977 154.559776 294.777377 158.745377 
C 290.591776 162.930977 288.24 168.608667 288.24 174.528 
C 288.24 180.447333 290.591776 186.125023 294.777377 190.310623 
C 298.962977 194.496224 304.640667 196.848 310.56 196.848 
z
" style="fill:#cc0000;fill-opacity:0.1;stroke:#cc0000;stroke-dasharray:7.4,3.2;stroke-dashoffset:0;stroke-linejoin:miter;stroke-width:2;"/>
   </g>
   <g id="matplotlib.axis_1">
    <g id="xtick_1">
     <g id="line2d_1">
      <defs>
       <path d="M 0 0 
L 0 3.5 
" id="ma138a50799" style="stroke:#000000;stroke-width:0.8;"/>
      </defs>
      <g>
       <use style="stroke:#000000;stroke-width:0.8;" x="87.36" xlink:href="#ma138a50799" y="263.808"/>
      </g>
     </g>
     <g id="text_1">
      <!-- 0.0 -->
      <defs>
       <path d="M 31.78125 66.40625 
Q 24.171875 66.40625 20.328125 58.90625 
Q 16.5 51.421875 16.5 36.375 
Q 16.5 21.390625 20.328125 13.890625 
Q 24.171875 6.390625 31.78125 6.390625 
Q 39.453125 6.390625 43.28125 13.890625 
Q 47.125 21.390625 47.125 36.375 
Q 47.125 51.421875 43.28125 58.90625 
Q 39.453125 66.40625 31.78125 66.40625 
z
M 31.78125 74.21875 
Q 44.046875 74.21875 50.515625 64.515625 
Q 56.984375 54.828125 56.984375 36.375 
Q 56.984375 17.96875 50.515625 8.265625 
Q 44.046875 -1.421875 31.78125 -1.421875 
Q 19.53125 -1.421875 13.0625 8.265625 
Q 6.59375 17.96875 6.59375 36.375 
Q 6.59375 54.828125 13.0625 64.515625 
Q 19.53125 74.21875 31.78125 74.21875 
z
" id="DejaVuSans-48"/>
       <path d="M 10.6875 12.40625 
L 21 12.40625 
L 21 0 
L 10.6875 0 
z
" id="DejaVuSans-46"/>
      </defs>
      <g transform="translate(79.408438 278.406437)scale(0.1 -0.1)">
       <use xlink:href="#DejaVuSans-48"/>
       <use x="63.623047" xlink:href="#DejaVuSans-46"/>
       <use x="95.410156" xlink:href="#DejaVuSans-48"/>
      </g>
     </g>
    </g>
    <g id="xtick_2">
     <g id="line2d_2">
      <g>
       <use style="stroke:#000000;stroke-width:0.8;" x="161.76" xlink:href="#ma138a50799" y="263.808"/>
      </g>
     </g>
     <g id="text_2">
      <!-- 0.5 -->
      <defs>
       <path d="M 10.796875 72.90625 
L 49.515625 72.90625 
L 49.515625 64.59375 
L 19.828125 64.59375 
L 19.828125 46.734375 
Q 21.96875 47.46875 24.109375 47.828125 
Q 26.265625 48.1875 28.421875 48.1875 
Q 40.625 48.1875 47.75 41.5 
Q 54.890625 34.8125 54.890625 23.390625 
Q 54.890625 11.625 47.5625 5.09375 
Q 40.234375 -1.421875 26.90625 -1.421875 
Q 22.3125 -1.421875 17.546875 -0.640625 
Q 12.796875 0.140625 7.71875 1.703125 
L 7.71875 11.625 
Q 12.109375 9.234375 16.796875 8.0625 
Q 21.484375 6.890625 26.703125 6.890625 
Q 35.15625 6.890625 40.078125 11.328125 
Q 45.015625 15.765625 45.015625 23.390625 
Q 45.015625 31 40.078125 35.4375 
Q 35.15625 39.890625 26.703125 39.890625 
Q 22.75 39.890625 18.8125 39.015625 
Q 14.890625 38.140625 10.796875 36.28125 
z
" id="DejaVuSans-53"/>
      </defs>
      <g transform="translate(153.808437 278.406437)scale(0.1 -0.1)">
       <use xlink:href="#DejaVuSans-48"/>
       <use x="63.623047" xlink:href="#DejaVuSans-46"/>
       <use x="95.410156" xlink:href="#DejaVuSans-53"/>
      </g>
     </g>
    </g>
    <g id="xtick_3">
     <g id="line2d_3">
      <g>
       <use style="stroke:#000000;stroke-width:0.8;" x="236.16" xlink:href="#ma138a50799" y="263.808"/>
      </g>
     </g>
     <g id="text_3">
      <!-- 1.0 -->
      <defs>
       <path d="M 12.40625 8.296875 
L 28.515625 8.296875 
L 28.515625 63.921875 
L 10.984375 60.40625 
L 10.984375 69.390625 
L 28.421875 72.90625 
L 38.28125 72.90625 
L 38.28125 8.296875 
L 54.390625 8.296875 
L 54.390625 0 
L 12.40625 0 
z
" id="DejaVuSans-49"/>
      </defs>
      <g transform="translate(228.208437 278.406437)scale(0.1 -0.1)">
       <use xlink:href="#DejaVuSans-49"/>
       <use x="63.623047" xlink:href="#DejaVuSans-46"/>
       <use x="95.410156" xlink:href="#DejaVuSans-48"/>
      </g>
     </g>
    </g>
    <g id="xtick_4">
     <g id="line2d_4">
      <g>
       <use style="stroke:#000000;stroke-width:0.8;" x="310.56" xlink:href="#ma138a50799" y="263.808"/>
      </g>
     </g>
     <g id="text_4">
      <!-- 1.5 -->
      <g transform="translate(302.608437 278.406437)scale(0.1 -0.1)">
       <use xlink:href="#DejaVuSans-49"/>
       <use x="63.623047" xlink:href="#DejaVuSans-46"/>
       <use x="95.410156" xlink:href="#DejaVuSans-53"/>
      </g>
     </g>
    </g>
    <g id="xtick_5">
     <g id="line2d_5">
      <g>
       <use style="stroke:#000000;stroke-width:0.8;" x="384.96" xlink:href="#ma138a50799" y="263.808"/>
      </g>
     </g>
     <g id="text_5">
      <!-- 2.0 -->
      <defs>
       <path d="M 19.1875 8.296875 
L 53.609375 8.296875 
L 53.609375 0 
L 7.328125 0 
L 7.328125 8.296875 
Q 12.9375 14.109375 22.625 23.890625 
Q 32.328125 33.6875 34.8125 36.53125 
Q 39.546875 41.84375 41.421875 45.53125 
Q 43.3125 49.21875 43.3125 52.78125 
Q 43.3125 58.59375 39.234375 62.25 
Q 35.15625 65.921875 28.609375 65.921875 
Q 23.96875 65.921875 18.8125 64.3125 
Q 13.671875 62.703125 7.8125 59.421875 
L 7.8125 69.390625 
Q 13.765625 71.78125 18.9375 73 
Q 24.125 74.21875 28.421875 74.21875 
Q 39.75 74.21875 46.484375 68.546875 
Q 53.21875 62.890625 53.21875 53.421875 
Q 53.21875 48.921875 51.53125 44.890625 
Q 49.859375 40.875 45.40625 35.40625 
Q 44.1875 33.984375 37.640625 27.21875 
Q 31.109375 20.453125 19.1875 8.296875 
z
" id="DejaVuSans-50"/>
      </defs>
      <g transform="translate(377.008437 278.406437)scale(0.1 -0.1)">
       <use xlink:href="#DejaVuSans-50"/>
       <use x="63.623047" xlink:href="#DejaVuSans-46"/>
       <use x="95.410156" xlink:href="#DejaVuSans-48"/>
      </g>
     </g>
    </g>
   </g>
   <g id="matplotlib.axis_2">
    <g id="ytick_1">
     <g id="line2d_6">
      <defs>
       <path d="M 0 0 
L -3.5 0 
" id="md6368a8eee" style="stroke:#000000;stroke-width:0.8;"/>
      </defs>
      <g>
       <use style="stroke:#000000;stroke-width:0.8;" x="57.6" xlink:href="#md6368a8eee" y="248.928"/>
      </g>
     </g>
     <g id="text_6">
      <!-- 0.0 -->
      <g transform="translate(34.696875 252.727219)scale(0.1 -0.1)">
       <use xlink:href="#DejaVuSans-48"/>
       <use x="63.623047" xlink:href="#DejaVuSans-46"/>
       <use x="95.410156" xlink:href="#DejaVuSans-48"/>
      </g>
     </g>
    </g>
    <g id="ytick_2">
     <g id="line2d_7">
      <g>
       <use style="stroke:#000000;stroke-width:0.8;" x="57.6" xlink:href="#md6368a8eee" y="219.168"/>
      </g>
     </g>
     <g id="text_7">
      <!-- 0.2 -->
      <g transform="translate(34.696875 222.967219)scale(0.1 -0.1)">
       <use xlink:href="#DejaVuSans-48"/>
       <use x="63.623047" xlink:href="#DejaVuSans-46"/>
       <use x="95.410156" xlink:href="#DejaVuSans-50"/>
      </g>
     </g>
    </g>
    <g id="ytick_3">
     <g id="line2d_8">
      <g>
       <use style="stroke:#000000;stroke-width:0.8;" x="57.6" xlink:href="#md6368a8eee" y="189.408"/>
      </g>
     </g>
     <g id="text_8">
      <!-- 0.4 -->
      <defs>
       <path d="M 37.796875 64.3125 
L 12.890625 25.390625 
L 37.796875 25.390625 
z
M 35.203125 72.90625 
L 47.609375 72.90625 
L 47.609375 25.390625 
L 58.015625 25.390625 
L 58.015625 17.1875 
L 47.609375 17.1875 
L 47.609375 0 
L 37.796875 0 
L 37.796875 17.1875 
L 4.890625 17.1875 
L 4.890625 26.703125 
z
" id="DejaVuSans-52"/>
      </defs>
      <g transform="translate(34.696875 193.207219)scale(0.1 -0.1)">
       <use xlink:href="#DejaVuSans-48"/>
       <use x="63.623047" xlink:href="#DejaVuSans-46"/>
       <use x="95.410156" xlink:href="#DejaVuSans-52"/>
      </g>
     </g>
    </g>
    <g id="ytick_4">
     <g id="line2d_9">
      <g>
       <use style="stroke:#000000;stroke-width:0.8;" x="57.6" xlink:href="#md6368a8eee" y="159.648"/>
      </g>
     </g>
     <g id="text_9">
      <!-- 0.6 -->
      <defs>
       <path d="M 33.015625 40.375 
Q 26.375 40.375 22.484375 35.828125 
Q 18.609375 31.296875 18.609375 23.390625 
Q 18.609375 15.53125 22.484375 10.953125 
Q 26.375 6.390625 33.015625 6.390625 
Q 39.65625 6.390625 43.53125 10.953125 
Q 47.40625 15.53125 47.40625 23.390625 
Q 47.40625 31.296875 43.53125 35.828125 
Q 39.65625 40.375 33.015625 40.375 
z
M 52.59375 71.296875 
L 52.59375 62.3125 
Q 48.875 64.0625 45.09375 64.984375 
Q 41.3125 65.921875 37.59375 65.921875 
Q 27.828125 65.921875 22.671875 59.328125 
Q 17.53125 52.734375 16.796875 39.40625 
Q 19.671875 43.65625 24.015625 45.921875 
Q 28.375 48.1875 33.59375 48.1875 
Q 44.578125 48.1875 50.953125 41.515625 
Q 57.328125 34.859375 57.328125 23.390625 
Q 57.328125 12.15625 50.6875 5.359375 
Q 44.046875 -1.421875 33.015625 -1.421875 
Q 20.359375 -1.421875 13.671875 8.265625 
Q 6.984375 17.96875 6.984375 36.375 
Q 6.984375 53.65625 15.1875 63.9375 
Q 23.390625 74.21875 37.203125 74.21875 
Q 40.921875 74.21875 44.703125 73.484375 
Q 48.484375 72.75 52.59375 71.296875 
z
" id="DejaVuSans-54"/>
      </defs>
      <g transform="translate(34.696875 163.447219)scale(0.1 -0.1)">
       <use xlink:href="#DejaVuSans-48"/>
       <use x="63.623047" xlink:href="#DejaVuSans-46"/>
       <use x="95.410156" xlink:href="#DejaVuSans-54"/>
      </g>
     </g>
    </g>
    <g id="ytick_5">
     <g id="line2d_10">
      <g>
       <use style="stroke:#000000;stroke-width:0.8;" x="57.6" xlink:href="#md6368a8eee" y="129.888"/>
      </g>
     </g>
     <g id="text_10">
      <!-- 0.8 -->
      <defs>
       <path d="M 31.78125 34.625 
Q 24.75 34.625 20.71875 30.859375 
Q 16.703125 27.09375 16.703125 20.515625 
Q 16.703125 13.921875 20.71875 10.15625 
Q 24.75 6.390625 31.78125 6.390625 
Q 38.8125 6.390625 42.859375 10.171875 
Q 46.921875 13.96875 46.921875 20.515625 
Q 46.921875 27.09375 42.890625 30.859375 
Q 38.875 34.625 31.78125 34.625 
z
M 21.921875 38.8125 
Q 15.578125 40.375 12.03125 44.71875 
Q 8.5 49.078125 8.5 55.328125 
Q 8.5 64.0625 14.71875 69.140625 
Q 20.953125 74.21875 31.78125 74.21875 
Q 42.671875 74.21875 48.875 69.140625 
Q 55.078125 64.0625 55.078125 55.328125 
Q 55.078125 49.078125 51.53125 44.71875 
Q 48 40.375 41.703125 38.8125 
Q 48.828125 37.15625 52.796875 32.3125 
Q 56.78125 27.484375 56.78125 20.515625 
Q 56.78125 9.90625 50.3125 4.234375 
Q 43.84375 -1.421875 31.78125 -1.421875 
Q 19.734375 -1.421875 13.25 4.234375 
Q 6.78125 9.90625 6.78125 20.515625 
Q 6.78125 27.484375 10.78125 32.3125 
Q 14.796875 37.15625 21.921875 38.8125 
z
M 18.3125 54.390625 
Q 18.3125 48.734375 21.84375 45.5625 
Q 25.390625 42.390625 31.78125 42.390625 
Q 38.140625 42.390625 41.71875 45.5625 
Q 45.3125 48.734375 45.3125 54.390625 
Q 45.3125 60.0625 41.71875 63.234375 
Q 38.140625 66.40625 31.78125 66.40625 
Q 25.390625 66.40625 21.84375 63.234375 
Q 18.3125 60.0625 18.3125 54.390625 
z
" id="DejaVuSans-56"/>
      </defs>
      <g transform="translate(34.696875 133.687219)scale(0.1 -0.1)">
       <use xlink:href="#DejaVuSans-48"/>
       <use x="63.623047" xlink:href="#DejaVuSans-46"/>
       <use x="95.410156" xlink:href="#DejaVuSans-56"/>
      </g>
     </g>
    </g>
    <g id="ytick_6">
     <g id="line2d_11">
      <g>
       <use style="stroke:#000000;stroke-width:0.8;" x="57.6" xlink:href="#md6368a8eee" y="100.128"/>
      </g>
     </g>
     <g id="text_11">
      <!-- 1.0 -->
      <g transform="translate(34.696875 103.927219)scale(0.1 -0.1)">
       <use xlink:href="#DejaVuSans-49"/>
       <use x="63.623047" xlink:href="#DejaVuSans-46"/>
       <use x="95.410156" xlink:href="#DejaVuSans-48"/>
      </g>
     </g>
    </g>
   </g>
   <g id="line2d_12">
    <path clip-path="url(#p3f79964370)" d="M 236.16 248.928 
L 236.16 100.128 
" style="fill:none;stroke:#cc0000;stroke-dasharray:7.4,3.2;stroke-dashoffset:0;stroke-width:2;"/>
   </g>
   <g id="line2d_13">
    <path clip-path="url(#p3f79964370)" d="M 87.36 248.928 
L 384.96 248.928 
" style="fill:none;stroke:#009900;stroke-linecap:square;stroke-width:2;"/>
   </g>
   <g id="line2d_14">
    <path clip-path="url(#p3f79964370)" d="M 384.96 248.928 
L 384.96 100.128 
" style="fill:none;stroke:#009900;stroke-linecap:square;stroke-width:2;"/>
   </g>
   <g id="line2d_15">
    <path clip-path="url(#p3f79964370)" d="M 384.96 100.128 
L 87.36 100.128 
" style="fill:none;stroke:#009900;stroke-linecap:square;stroke-width:2;"/>
   </g>
   <g id="line2d_16">
    <path clip-path="url(#p3f79964370)" d="M 87.36 100.128 
L 87.36 248.928 
" style="fill:none;stroke:#009900;stroke-linecap:square;stroke-width:2;"/>
   </g>
   <g id="line2d_17">
    <path clip-path="url(#p3f79964370)" d="M 121.698166 184.923953 
L 116.63848 181.790079 
L 111.457521 178.861046 
L 106.163575 176.141538 
L 100.765113 173.635907 
L 95.27077 171.348162 
L 89.689337 169.281961 
L 87.36 168.493761 
L 92.974816 166.520078 
L 98.506214 164.323442 
L 103.945346 161.907365 
L 109.28351 159.275714 
L 114.512166 156.432699 
L 119.62295 153.382867 
L 124.607684 150.131098 
L 129.458395 146.682593 
L 134.167323 143.042871 
L 138.726934 139.217753 
L 143.129934 135.213358 
L 147.369278 131.036094 
L 151.438186 126.692643 
L 155.330148 122.189953 
L 159.038936 117.535227 
L 162.558619 112.735914 
L 165.883565 107.799689 
L 169.008455 102.73445 
L 170.51005 100.128 
L 173.531911 105.255371 
L 176.756395 110.257799 
L 180.178343 115.127281 
L 183.792282 119.856026 
L 187.592429 124.436469 
L 191.572705 128.861283 
L 195.726743 133.12339 
L 200.047897 137.21597 
L 204.529254 141.132476 
L 209.163645 144.866643 
L 213.943655 148.412496 
L 218.861639 151.764364 
L 223.909728 154.916884 
L 229.079845 157.865013 
L 234.363721 160.604034 
L 236.16 161.475127 
L 230.839853 164.143013 
L 225.630648 167.021513 
L 220.540719 170.106024 
L 215.57821 173.391611 
L 210.751058 176.873016 
L 206.066986 180.544672 
L 201.533489 184.400704 
L 197.157818 188.434942 
L 195.621372 189.930841 
L 195.370021 195.877134 
L 195.356659 201.828722 
L 195.581308 207.776084 
L 196.043609 213.709705 
L 196.742821 219.620093 
L 197.677827 225.497792 
L 198.847129 231.333399 
L 200.248859 237.117579 
L 201.880773 242.841077 
L 203.893179 248.928 
L 205.770114 243.280107 
L 207.419693 237.561675 
L 208.839276 231.781851 
L 210.026592 225.949882 
L 210.979742 220.075098 
L 211.6972 214.166897 
L 212.17782 208.234732 
L 212.420832 202.288092 
L 212.425847 196.336491 
L 212.192858 190.38945 
L 211.722237 184.456483 
L 211.014737 178.547082 
L 210.07149 172.6707 
L 208.894005 166.836738 
L 207.484165 161.054529 
L 205.844227 155.333325 
L 203.976813 149.682277 
L 201.884911 144.110425 
L 199.571868 138.626685 
L 197.041384 133.239827 
L 194.297507 127.958471 
L 191.344627 122.791066 
L 188.187468 117.745877 
L 184.831081 112.830977 
L 181.280834 108.054228 
L 177.542409 103.423271 
L 174.688145 100.128 
L 170.81566 104.647452 
L 167.127004 109.318147 
L 163.628075 114.132613 
L 160.324473 119.083148 
L 157.221482 124.161831 
L 154.324066 129.360539 
L 151.636861 134.670954 
L 149.452417 139.422966 
L 144.127641 136.764331 
L 138.700807 134.320756 
L 133.180598 132.096151 
L 127.575843 130.094075 
L 121.89551 128.317731 
L 116.148686 126.769961 
L 110.344565 125.45324 
L 104.492431 124.369676 
L 98.601647 123.521001 
L 92.681638 122.908573 
L 87.36 122.561309 
L 93.298153 122.161412 
L 99.215565 121.524373 
L 105.102769 120.65121 
L 110.950346 119.54332 
L 116.748942 118.202475 
L 122.48928 116.630821 
L 128.162178 114.830872 
L 133.758558 112.805507 
L 139.26947 110.557967 
L 144.686095 108.091846 
L 149.99977 105.411092 
L 155.201992 102.519991 
L 159.167188 100.128 
L 164.276928 103.17958 
L 169.504612 106.024383 
L 174.841875 108.65786 
L 180.28018 111.075796 
L 185.810827 113.274324 
L 191.424968 115.249927 
L 197.113621 116.999444 
L 202.867685 118.520075 
L 208.677956 119.80939 
L 214.535139 120.865324 
L 220.429862 121.686188 
L 226.352696 122.27067 
L 232.294165 122.617834 
L 237.647988 122.721418 
L 245.087319 122.637257 
L 252.52222 122.367159 
L 259.948047 121.911293 
L 267.360158 121.269942 
L 274.75392 120.443508 
L 282.124714 119.432508 
L 289.467932 118.237573 
L 296.778984 116.85945 
L 304.053303 115.299001 
L 311.286342 113.5572 
L 318.47358 111.635136 
L 325.610525 109.53401 
L 332.692718 107.255137 
L 339.715731 104.799938 
L 346.675176 102.16995 
L 351.743468 100.128 
L 358.653454 102.88532 
L 365.630206 105.469047 
L 372.669365 107.877566 
L 379.766531 110.109372 
L 384.96 111.620144 
L 377.823446 113.722599 
L 370.741678 116.002792 
L 363.719122 118.459298 
L 356.760166 121.090582 
L 349.869161 123.894999 
L 343.050412 126.870798 
L 336.30818 130.016117 
L 329.646681 133.328992 
L 323.070076 136.807352 
L 316.582476 140.449023 
L 310.187936 144.251729 
L 303.890452 148.213093 
L 297.693959 152.330641 
L 291.602331 156.601798 
L 285.619374 161.023895 
L 279.748827 165.594168 
L 273.99436 170.309762 
L 268.359569 175.167729 
L 262.847975 180.165033 
L 257.463023 185.298551 
L 252.208078 190.565075 
L 247.086424 195.961313 
L 242.101263 201.483892 
L 237.25571 207.129362 
L 236.16 208.446406 
L 240.972973 214.119677 
L 245.926259 219.670864 
L 251.016762 225.096497 
L 256.241302 230.393185 
L 261.596612 235.557619 
L 267.079346 240.586569 
L 272.686078 245.476894 
L 276.819242 248.928 
L 282.513533 244.139915 
L 288.086356 239.210984 
L 293.534227 234.144286 
L 298.853741 228.94299 
L 304.041574 223.610345 
L 309.094484 218.149684 
L 314.009313 212.564419 
L 318.782988 206.858042 
L 323.412528 201.034119 
L 327.895037 195.096289 
L 332.227716 189.048264 
L 336.407856 182.893822 
L 340.432845 176.636812 
L 344.300167 170.281142 
L 348.007405 163.830786 
L 351.552243 157.289773 
L 354.932465 150.662193 
L 358.145958 143.952187 
L 361.190715 137.163949 
L 364.064832 130.301722 
L 366.766513 123.369793 
L 369.294069 116.372495 
L 371.645922 109.314202 
L 373.8206 102.199324 
L 374.417368 100.128 
L 376.540455 107.258443 
L 378.841122 114.333586 
L 381.317929 121.349008 
L 383.96933 128.300324 
L 384.96 130.770858 
L 382.246533 137.698181 
L 379.707078 144.69117 
L 377.343224 151.745453 
L 375.156447 158.856622 
L 373.148114 166.020232 
L 371.31948 173.231807 
L 369.671688 180.48684 
L 368.205768 187.780796 
L 366.922636 195.109117 
L 365.823094 202.467223 
L 364.907829 209.850516 
L 364.177413 217.25438 
L 363.632302 224.67419 
L 363.272838 232.105307 
L 363.099245 239.543087 
L 363.111631 246.982883 
L 363.145544 248.928 
L 363.192271 245.952379 
L 363.178893 238.512585 
L 362.979544 231.07545 
L 362.594349 223.645622 
L 362.023547 216.227745 
L 361.267496 208.826454 
L 360.326668 201.446376 
L 359.201652 194.092121 
L 357.893149 186.768288 
L 356.401979 179.479452 
L 354.729073 172.230169 
L 352.875477 165.02497 
L 350.842349 157.868357 
L 348.630959 150.764803 
L 346.24269 143.718749 
L 343.679034 136.734596 
L 340.941594 129.816711 
L 338.032079 122.969416 
L 334.95231 116.196991 
L 331.70421 109.503669 
L 328.289809 102.893632 
L 326.798353 100.128 
L 323.314353 106.701618 
L 319.995764 113.360274 
L 316.844662 120.099804 
L 313.863015 126.915998 
L 311.052687 133.804595 
L 308.415434 140.761291 
L 305.952905 147.781737 
L 304.207436 153.1311 
L 298.399788 148.481159 
L 292.477719 143.977848 
L 286.44493 139.62398 
L 280.30519 135.422276 
L 274.062337 131.375363 
L 267.720273 127.485769 
L 261.282961 123.755926 
L 254.754424 120.188165 
L 248.138742 116.784715 
L 241.44005 113.547703 
L 236.16 111.13962 
L 232.083545 106.803251 
L 227.836943 102.633365 
L 225.114237 100.128 
L 220.765269 104.191011 
L 216.582256 108.424684 
L 212.571891 112.822246 
L 208.74059 117.376663 
L 205.094481 122.080647 
L 201.639399 126.926675 
L 198.380869 131.906993 
L 195.324105 137.013633 
L 192.473998 142.238427 
L 189.835106 147.573015 
L 189.057127 149.255349 
L 194.606098 147.103489 
L 200.064579 144.731451 
L 205.423837 142.143029 
L 210.6753 139.342365 
L 215.810565 136.333938 
L 220.821418 133.122561 
L 225.699841 129.713373 
L 230.438031 126.111827 
L 235.028408 122.323685 
L 236.16 121.341216 
L 231.608006 117.507036 
L 226.906328 113.857955 
L 222.062485 110.399809 
L 217.084229 107.138131 
L 211.979522 104.07814 
L 206.756531 101.22473 
L 204.607614 100.128 
L 199.339047 102.896354 
L 194.185399 105.873179 
L 189.154914 109.053715 
L 184.255641 112.432872 
L 179.495417 116.005244 
L 174.881857 119.765118 
L 170.422343 123.706477 
L 166.124008 127.823017 
L 161.993729 132.108151 
L 158.038113 136.555024 
L 157.14026 137.615969 
L 152.242084 134.235222 
L 147.212632 131.053054 
L 142.05995 128.074556 
L 136.792282 125.304492 
L 131.418054 122.747295 
L 125.945865 120.407055 
L 120.384468 118.287517 
L 114.742761 116.39207 
L 109.029768 114.723747 
L 103.254631 113.285218 
L 97.426587 112.078784 
L 91.55496 111.106374 
L 87.36 110.558338 
L 93.256898 109.753243 
L 99.116883 108.712979 
L 104.930582 107.43921 
L 110.688694 105.933975 
L 116.382006 104.19968 
L 122.00141 102.239101 
L 127.363745 100.128 
L 132.903017 102.304704 
L 138.524904 104.258155 
L 144.220411 105.985228 
L 149.980426 107.48316 
L 155.795736 108.749555 
L 161.657036 109.782386 
L 167.55495 110.580002 
L 173.480043 111.141126 
L 179.422835 111.46486 
L 185.373819 111.550688 
L 191.323475 111.39847 
L 197.262286 111.008452 
L 203.180749 110.381257 
L 209.069397 109.517888 
L 214.918809 108.419726 
L 220.719627 107.088529 
L 226.462572 105.526426 
L 232.138455 103.735916 
L 236.16 102.313743 
L 230.537771 100.361276 
L 229.813743 100.128 
L 224.181606 102.0517 
L 218.630903 104.199086 
L 213.170511 106.566724 
L 207.809168 109.150826 
L 202.55545 111.947257 
L 197.417762 114.951543 
L 192.404322 118.15888 
L 187.523152 121.564135 
L 182.782061 125.16186 
L 178.188632 128.946302 
L 173.750215 132.911404 
L 169.47391 137.050824 
L 168.580558 137.958614 
L 166.130277 132.534805 
L 163.465061 127.21332 
L 160.589175 122.002671 
L 157.507218 116.911195 
L 154.224122 111.947037 
L 150.745139 107.118139 
L 147.075835 102.432226 
L 145.156983 100.128 
L 141.393999 104.739023 
L 137.818417 109.496837 
L 134.435956 114.39383 
L 131.252029 119.422168 
L 128.271729 124.573808 
L 125.499823 129.840507 
L 122.940746 135.21384 
L 120.598592 140.68521 
L 118.477107 146.245865 
L 116.579687 151.886909 
L 114.909366 157.599318 
L 113.468817 163.373952 
L 112.260344 169.201573 
L 111.28588 175.072859 
L 110.546984 180.978417 
L 110.044839 186.908799 
L 109.780247 192.854518 
L 109.753632 198.806062 
L 109.965037 204.753909 
L 110.414123 210.688545 
L 111.100173 216.600475 
L 112.022087 222.480242 
L 113.178392 228.318438 
L 114.567238 234.105725 
L 116.186402 239.832843 
L 118.033295 245.490632 
L 119.279526 248.928 
L 121.264874 243.317298 
L 123.024266 237.631692 
L 124.554886 231.880276 
L 125.854288 226.072253 
L 126.92039 220.216913 
L 127.751489 214.323624 
L 128.346254 208.401814 
L 128.703735 202.460956 
L 128.823358 196.510555 
L 128.7451 191.670239 
L 123.919992 188.186001 
L 118.959411 184.897503 
L 113.871294 181.810006 
L 108.663779 178.928449 
L 103.345198 176.257441 
L 97.92406 173.801257 
L 92.409037 171.563825 
L 87.36 169.735851 
L 92.952161 167.698865 
L 98.458392 165.439881 
L 103.869882 162.962513 
L 109.177976 160.270726 
L 114.374181 157.368824 
L 119.450185 154.261451 
L 124.397866 150.953577 
L 129.20931 147.450495 
L 133.87682 143.757808 
L 138.392928 139.881425 
L 142.75041 135.827546 
L 146.942294 131.602657 
L 150.961875 127.213517 
L 154.802722 122.667147 
L 158.45869 117.970821 
L 161.92393 113.132052 
L 165.1929 108.15858 
L 168.260369 103.058363 
L 169.900236 100.128 
L 172.851834 105.296138 
L 176.007741 110.34211 
L 179.362909 115.257843 
L 182.911969 120.035473 
L 186.649245 124.667357 
L 190.568758 129.146084 
L 194.664237 133.464491 
L 198.92913 137.615667 
L 203.356615 141.592973 
L 207.939607 145.390046 
L 212.670776 149.00081 
L 217.542553 152.41949 
L 222.547144 155.640616 
L 227.676542 158.659035 
L 232.922542 161.469919 
L 236.16 163.072897 
L 230.847309 165.755599 
L 225.646146 168.648606 
L 220.564834 171.74729 
L 215.6115 175.046694 
L 210.794069 178.541539 
L 206.120248 182.226234 
L 201.597515 186.094885 
L 197.233104 190.141303 
L 193.590751 193.780099 
L 191.835702 199.467048 
L 190.309475 205.219631 
L 189.014511 211.028645 
L 187.952881 216.884798 
L 187.126284 222.77872 
L 186.536042 228.700982 
L 186.1831 234.642111 
L 186.068022 240.592602 
L 186.190992 246.542934 
L 186.307205 248.928 
L 186.525645 242.980407 
L 186.50607 237.028836 
L 186.248512 231.082808 
L 185.753381 225.151836 
L 185.021471 219.245409 
L 184.053953 213.372974 
L 182.852374 207.543927 
L 182.371974 205.495508 
L 187.237553 208.923002 
L 192.236304 212.153183 
L 197.360229 215.180884 
L 202.601131 218.001261 
L 207.950626 220.609802 
L 213.400156 223.002333 
L 218.941003 225.175027 
L 224.564302 227.124409 
L 230.261057 228.84736 
L 236.16 230.373867 
L 230.397482 231.862143 
L 224.699089 233.579669 
L 219.073936 235.523695 
L 213.531023 237.691113 
L 208.079218 240.078455 
L 202.727242 242.6819 
L 197.483656 245.497286 
L 192.356851 248.520107 
L 191.699471 248.928 
L 186.588451 245.878565 
L 181.359575 243.035955 
L 176.021206 240.404718 
L 170.581887 237.989064 
L 165.050318 235.792857 
L 159.435349 233.81961 
L 153.745962 232.072481 
L 147.99126 230.554264 
L 142.180449 229.267388 
L 136.322824 228.213912 
L 130.427757 227.395521 
L 124.504678 226.813524 
L 118.563063 226.468853 
L 112.612418 226.362059 
L 106.662263 226.493313 
L 100.722115 226.862404 
L 94.801479 227.468743 
L 88.909826 228.311359 
L 87.36 228.57315 
L 93.242424 229.477952 
L 99.156325 230.146796 
L 105.092243 230.578612 
L 111.04068 230.772709 
L 116.992121 230.728777 
L 122.937045 230.446886 
L 128.865941 229.927487 
L 134.769324 229.171411 
L 140.63775 228.179867 
L 146.46183 226.954442 
L 152.232248 225.497095 
L 157.939772 223.81016 
L 163.575271 221.896334 
L 169.12973 219.758678 
L 174.594262 217.400614 
L 179.960126 214.825913 
L 185.218737 212.038694 
L 190.361682 209.043416 
L 195.380735 205.844871 
L 200.267865 202.448175 
L 205.015255 198.858764 
L 209.615309 195.082379 
L 214.060668 191.125062 
L 218.344221 186.993143 
L 222.459115 182.693233 
L 226.398767 178.23221 
L 230.156875 173.617211 
L 233.727425 168.85562 
L 236.16 165.368665 
L 232.726945 160.507008 
L 229.102221 155.786525 
L 225.291628 151.214768 
L 221.301261 146.799051 
L 217.137505 142.546439 
L 212.80702 138.463734 
L 208.316734 134.557468 
L 203.673831 130.83389 
L 198.885739 127.298957 
L 193.960117 123.958324 
L 188.904845 120.817336 
L 183.72801 117.881017 
L 178.437896 115.154065 
L 173.042964 112.640842 
L 167.551845 110.34537 
L 161.973324 108.27132 
L 156.316325 106.42201 
L 150.589899 104.800399 
L 144.803206 103.409081 
L 138.965503 102.250283 
L 133.086131 101.325856 
L 127.174495 100.637282 
L 121.240051 100.18566 
L 120.137402 100.128 
L 114.199771 100.535573 
L 108.283188 101.180262 
L 102.397118 102.061036 
L 96.550978 103.176485 
L 90.75412 104.524826 
L 87.36 105.428963 
L 93.123417 106.913755 
L 98.941599 108.166884 
L 104.80524 109.186346 
L 110.704957 109.970509 
L 116.631314 110.518119 
L 122.574829 110.828299 
L 128.525994 110.900555 
L 134.475287 110.73477 
L 140.413193 110.331209 
L 146.33021 109.690518 
L 152.216874 108.813721 
L 158.063766 107.702223 
L 163.861534 106.3578 
L 169.600901 104.782604 
L 175.272686 102.979154 
L 180.867816 100.950336 
L 182.954519 100.128 
L 188.518433 102.240922 
L 194.162391 104.129656 
L 199.877364 105.791182 
L 205.654209 107.22284 
L 211.483684 108.422342 
L 217.356463 109.387766 
L 223.263151 110.117571 
L 229.194299 110.610586 
L 235.140418 110.866025 
L 240.623958 110.888324 
L 248.062355 110.743552 
L 255.494809 110.412884 
L 262.916675 109.896527 
L 270.323314 109.194805 
L 277.710098 108.308155 
L 285.072409 107.237131 
L 292.405647 105.982404 
L 299.705228 104.544757 
L 306.966591 102.925089 
L 314.185197 101.124412 
L 317.88033 100.128 
L 325.075183 102.021357 
L 332.315118 103.73427 
L 339.595608 105.265669 
L 346.912104 106.614595 
L 354.260033 107.780207 
L 361.634804 108.761775 
L 369.031806 109.558687 
L 376.446418 110.170443 
L 384.96 110.643383 
L 383.47342 110.70834 
L 376.046414 111.144568 
L 368.632633 111.766315 
L 361.236711 112.573193 
L 353.863269 113.564697 
L 346.516917 114.740209 
L 339.202245 116.098992 
L 331.923825 117.640199 
L 324.686206 119.362866 
L 317.49391 121.265917 
L 310.351433 123.348161 
L 303.263239 125.608298 
L 296.233757 128.044915 
L 289.267381 130.656489 
L 282.368465 133.441389 
L 275.541319 136.397873 
L 268.790211 139.524095 
L 262.11936 142.818099 
L 255.532935 146.277828 
L 249.035053 149.90112 
L 242.629774 153.685709 
L 236.16 157.732831 
L 233.803074 163.197855 
L 231.666576 168.752758 
L 229.753923 174.388656 
L 228.068177 180.096531 
L 226.612033 185.867253 
L 225.387821 191.691588 
L 224.397499 197.56022 
L 223.642653 203.463761 
L 223.124488 209.392765 
L 222.843836 215.337747 
L 222.801143 221.289197 
L 222.99648 227.237594 
L 223.429532 233.173421 
L 224.099608 239.087183 
L 225.005635 244.969419 
L 225.75203 248.928 
L 226.816955 243.072446 
L 227.646869 237.17899 
L 228.240444 231.25706 
L 228.59673 225.316131 
L 228.715156 219.365706 
L 228.595535 213.415305 
L 228.238057 207.474447 
L 227.643294 201.552637 
L 226.812197 195.659348 
L 225.746096 189.804007 
L 224.446697 183.995983 
L 222.916079 178.244567 
L 221.156689 172.55896 
L 219.171343 166.948258 
L 216.963217 161.421436 
L 214.535843 155.987336 
L 211.893105 150.654653 
L 209.03923 145.431916 
L 205.978785 140.327481 
L 202.716664 135.349515 
L 199.258087 130.50598 
L 195.608587 125.804626 
L 191.774002 121.252974 
L 187.760467 116.858305 
L 183.574402 112.627649 
L 179.222505 108.567776 
L 174.711737 104.68518 
L 170.049315 100.986072 
L 168.910932 100.128 
L 164.213286 103.782271 
L 159.665529 107.621475 
L 155.274937 111.63947 
L 151.048533 115.829827 
L 146.993081 120.185844 
L 143.115066 124.700552 
L 139.420693 129.366727 
L 135.915873 134.176905 
L 132.606212 139.123391 
L 129.497005 144.198272 
L 126.593226 149.393428 
L 123.899521 154.700549 
L 121.420199 160.111145 
L 119.159226 165.616559 
L 117.120219 171.207984 
L 115.306441 176.876474 
L 113.720793 182.612963 
L 112.365811 188.408272 
L 111.243664 194.25313 
L 110.356146 200.138187 
L 109.704678 206.054027 
L 109.290302 211.991188 
L 109.11368 217.94017 
L 109.175095 223.891456 
L 109.474449 229.835526 
L 110.011263 235.76287 
L 110.784678 241.664007 
L 111.793457 247.529494 
L 112.069835 248.928 
L 113.13476 243.072446 
L 113.964674 237.17899 
L 114.558248 231.25706 
L 114.914534 225.316131 
L 115.032961 219.365706 
L 114.91334 213.415305 
L 114.555861 207.474447 
L 113.961098 201.552637 
L 113.130002 195.659348 
L 112.063901 189.804007 
L 110.764502 183.995983 
L 109.233883 178.244567 
L 107.474494 172.55896 
L 105.489148 166.948258 
L 103.281022 161.421436 
L 100.853648 155.987336 
L 98.21091 150.654653 
L 95.357035 145.431916 
L 92.296589 140.327481 
L 89.034468 135.349515 
L 87.36 132.953326 
L 90.719282 128.040403 
L 93.879412 122.997075 
L 96.835336 117.83141 
L 99.582323 112.551672 
L 102.11598 107.166306 
L 104.432253 101.683929 
L 105.043144 100.128 
L 107.297686 105.636051 
L 109.770687 111.049538 
L 112.458191 116.359802 
L 115.3559 121.558346 
L 118.459178 126.636855 
L 121.763059 131.587203 
L 125.262258 136.401472 
L 128.951178 141.071959 
L 132.823917 145.591193 
L 140.252619 153.923182 
L 142.924152 157.498687 
L 145.376475 161.227953 
L 147.600764 165.09756 
L 149.589013 169.093581 
L 151.334066 173.201635 
L 152.829645 177.406937 
L 154.070365 181.694353 
L 155.051762 186.048452 
L 155.770304 190.453564 
L 156.223405 194.893836 
L 156.409434 199.353288 
L 156.327721 203.815871 
L 155.978561 208.265523 
L 155.598196 211.21413 
L 155.885847 209.754224 
L 156.923115 205.413096 
L 158.218829 201.141978 
L 159.768324 196.956243 
L 161.566024 192.870953 
L 163.605459 188.900812 
L 165.879291 185.060107 
L 168.379334 181.362662 
L 171.096593 177.821783 
L 174.021287 174.450213 
L 177.142891 171.260087 
L 180.450171 168.262885 
L 183.931224 165.469394 
L 187.573521 162.889668 
L 191.363955 160.532991 
L 195.286417 158.409086 
L 193.927775 159.015851 
L 189.782872 160.671476 
L 185.546149 162.075576 
L 181.232854 163.223099 
L 176.858511 164.109915 
L 172.438863 164.732832 
L 167.989815 165.089608 
L 163.527379 165.178959 
L 159.067615 165.000564 
L 154.626573 164.555065 
L 150.220237 163.844065 
L 145.864465 162.870122 
L 141.574932 161.636743 
L 137.367076 160.148365 
L 133.256041 158.410346 
L 129.25906 156.43024 
L 130.538197 157.190424 
L 134.280842 159.622281 
L 137.870927 162.274187 
L 141.295534 165.136596 
L 144.542337 168.199208 
L 147.59965 171.451 
L 150.456472 174.880269 
L 153.10252 178.474674 
L 155.528272 182.221279 
L 157.724998 186.106599 
L 159.684791 190.116653 
L 161.400598 194.237008 
L 162.866246 198.452835 
L 164.076457 202.748961 
L 165.026879 207.109927 
L 165.713745 211.517294 
L 165.597283 210.033884 
L 165.42616 205.573835 
L 165.522787 201.111551 
L 165.886817 196.66309 
L 166.516939 192.244463 
L 167.410886 187.871572 
L 168.565441 183.560154 
L 169.976448 179.325727 
L 171.638829 175.183528 
L 173.546601 171.148466 
L 175.692899 167.235063 
L 178.069998 163.457403 
L 180.669343 159.829081 
L 183.48158 156.363154 
L 186.496587 153.072098 
L 189.701471 149.969617 
L 188.556639 150.920106 
L 185.011334 153.631587 
L 181.309818 156.125599 
L 177.465411 158.393165 
L 173.491949 160.426124 
L 169.403734 162.217161 
L 165.215477 163.759829 
L 160.942253 165.048576 
L 156.599439 166.078764 
L 152.202666 166.846687 
L 147.767757 167.349579 
L 143.310673 167.585632 
L 138.847455 167.553995 
L 134.394165 167.254782 
L 129.96683 166.689071 
L 125.584083 165.859492 
L 119.727484 164.800329 
L 113.833214 163.976214 
L 107.910703 163.388467 
L 101.969426 163.038027 
L 96.018888 162.925455 
L 90.068607 163.050932 
L 87.36 163.187011 
L 93.307005 163.420911 
L 99.258607 163.416808 
L 105.205284 163.174707 
L 111.137523 162.694997 
L 117.045833 161.978443 
L 122.920763 161.026194 
L 127.462102 160.123342 
L 124.181809 155.157332 
L 120.705552 150.32647 
L 117.038893 145.638487 
L 113.187697 141.10088 
L 109.158127 136.72091 
L 104.956627 132.505583 
L 100.58992 128.461643 
L 96.064991 124.595559 
L 91.38908 120.913517 
L 87.36 117.974117 
L 92.156679 114.450844 
L 96.808627 110.738573 
L 101.308403 106.843243 
L 105.648809 102.771086 
L 108.288323 100.128 
L 112.525144 104.307824 
L 116.925725 108.314876 
L 121.483025 112.142747 
L 126.189754 115.785313 
L 131.038381 119.236746 
L 136.021151 122.491525 
L 141.130091 125.544443 
L 146.357029 128.390616 
L 151.693603 131.02549 
L 157.131275 133.444851 
L 162.661346 135.644828 
L 168.274969 137.6219 
L 171.038308 138.503661 
L 176.888329 139.598575 
L 182.777455 140.458676 
L 188.696265 141.082585 
L 194.635291 141.469307 
L 200.585031 141.618222 
L 206.535967 141.529091 
L 212.478578 141.202058 
L 218.403358 140.637645 
L 224.300829 139.836755 
L 230.161555 138.800671 
L 237.637186 137.307861 
L 245.008674 136.301939 
L 252.352714 135.112063 
L 259.664714 133.738977 
L 266.940106 132.183539 
L 274.174343 130.446721 
L 281.362903 128.529609 
L 288.501294 126.4334 
L 295.585055 124.159406 
L 302.609758 121.709046 
L 309.571014 119.083853 
L 316.464471 116.285467 
L 323.285822 113.315637 
L 330.030803 110.176219 
L 336.695199 106.869175 
L 343.274845 103.396572 
L 349.126714 100.128 
L 355.626483 103.747906 
L 362.214709 107.204203 
L 368.887275 110.494732 
L 375.64001 113.617436 
L 382.468695 116.570364 
L 384.96 117.597688 
L 378.104856 120.488661 
L 371.324121 123.55009 
L 364.622033 126.780064 
L 358.00278 130.176563 
L 351.470499 133.737465 
L 345.029273 137.460544 
L 338.683126 141.343474 
L 332.436026 145.383827 
L 326.291876 149.579079 
L 319.844135 154.230531 
L 319.197679 146.818864 
L 318.366153 139.425673 
L 317.350076 132.055577 
L 316.150083 124.713184 
L 314.766925 117.403082 
L 313.201465 110.12984 
L 311.454682 102.898003 
L 310.734654 100.128 
L 308.918403 107.342704 
L 307.283069 114.600555 
L 305.829673 121.897017 
L 304.559124 129.22753 
L 303.472216 136.587513 
L 302.569628 143.972365 
L 301.851924 151.377473 
L 301.637267 154.069084 
L 302.515522 159.95553 
L 303.15768 165.872389 
L 303.562713 171.810194 
L 303.729973 177.759446 
L 303.659193 183.710629 
L 303.350486 189.65422 
L 302.81762 195.462134 
L 306.263084 190.609263 
L 309.899855 185.898055 
L 313.722116 181.336048 
L 317.72375 176.93054 
L 321.898357 172.688578 
L 326.239257 168.616949 
L 330.647772 164.798467 
L 324.800923 165.910192 
L 318.914293 166.787217 
L 312.9973 167.428137 
L 307.059411 167.831928 
L 301.110124 167.997943 
L 295.158956 167.925918 
L 289.334442 167.624516 
L 294.320534 170.874204 
L 299.172684 174.320682 
L 303.883131 177.958439 
L 308.444338 181.781653 
L 312.84901 185.784209 
L 317.090098 189.959703 
L 321.080929 194.212828 
L 319.737495 188.414831 
L 318.626993 182.567749 
L 317.7512 176.680936 
L 317.111517 170.76381 
L 316.708969 164.825836 
L 316.544197 158.876514 
L 316.61366 153.04462 
L 313.564893 158.156039 
L 310.314162 163.141451 
L 306.866668 167.99288 
L 303.227927 172.702566 
L 299.403758 177.262973 
L 295.400281 181.666807 
L 291.30928 185.82367 
L 297.049245 184.250653 
L 302.847522 182.908431 
L 308.694836 181.799152 
L 314.581832 180.924591 
L 320.499092 180.286146 
L 326.43715 179.884839 
L 332.267191 179.722253 
L 327.038537 176.879233 
L 321.927757 173.829396 
L 316.943025 170.577623 
L 312.092317 167.129114 
L 307.383393 163.489387 
L 302.823785 159.664265 
L 298.507471 155.741863 
L 300.307581 161.414709 
L 301.879398 167.155003 
L 303.220406 172.953561 
L 304.328462 178.801107 
L 305.201792 184.688286 
L 305.838999 190.60568 
L 306.233378 196.424638 
L 308.86615 191.087027 
L 311.710264 185.858968 
L 314.761169 180.748825 
L 318.013985 175.764774 
L 321.463509 170.914787 
L 325.10422 166.206624 
L 328.851813 161.737692 
L 332.16655 155.077119 
L 335.313754 148.335767 
L 338.291459 141.51785 
L 341.097802 134.627629 
L 343.731031 127.669409 
L 346.1895 120.64754 
L 348.471673 113.56641 
L 350.576122 106.430444 
L 352.275073 100.128 
L 354.222509 107.308405 
L 356.348827 114.437885 
L 358.652699 121.511985 
L 361.132686 128.526283 
L 363.787237 135.476397 
L 366.614693 142.357981 
L 369.613287 149.166737 
L 372.781146 155.898408 
L 376.116288 162.548786 
L 379.616631 169.113717 
L 383.279986 175.589097 
L 384.96 178.437451 
L 381.224919 184.871725 
L 377.651844 191.397355 
L 374.24301 198.010265 
L 371.000547 204.70632 
L 367.926481 211.481335 
L 365.022734 218.331077 
L 362.291119 225.251265 
L 359.733345 232.237573 
L 357.351009 239.285637 
L 355.145601 246.39105 
L 354.405047 248.928 
L 352.262825 241.803282 
L 349.943173 234.734341 
L 347.44754 227.725594 
L 344.777487 220.781421 
L 341.934682 213.906163 
L 338.920902 207.104116 
L 335.73803 200.379531 
L 332.388056 193.73661 
L 328.906404 187.239878 
L 325.00621 182.744318 
L 321.288909 178.096387 
L 317.760449 173.303523 
L 314.426476 168.373391 
L 311.292322 163.313879 
L 308.363001 158.133082 
L 305.606704 152.764561 
L 300.832053 147.059001 
L 295.91627 141.474577 
L 290.862426 136.01478 
L 285.673682 130.683021 
L 280.353278 125.482634 
L 274.904541 120.416869 
L 269.330876 115.48889 
L 263.635765 110.701779 
L 257.822769 106.058526 
L 251.895521 101.562034 
L 249.93865 100.128 
L 243.974943 104.576023 
L 238.124288 109.171734 
L 236.16 110.768617 
L 241.971351 115.413929 
L 247.897006 119.91252 
L 253.933263 124.26158 
L 260.076349 128.45839 
L 266.322424 132.500327 
L 272.667586 136.384866 
L 279.107868 140.109578 
L 285.639246 143.672137 
L 292.257637 147.070314 
L 298.958906 150.301987 
L 304.815463 152.959906 
L 309.153134 146.915459 
L 313.338354 140.764472 
L 317.368508 134.510786 
L 321.241076 128.158312 
L 324.953639 121.711019 
L 328.503877 115.172935 
L 331.889569 108.548148 
L 335.108602 101.840798 
L 335.897844 100.128 
L 339.074307 106.855614 
L 342.417951 113.501723 
L 345.926686 120.062173 
L 349.598318 126.532863 
L 353.430553 132.909751 
L 357.420996 139.188849 
L 361.567154 145.366235 
L 365.866434 151.438047 
L 370.31615 157.400492 
L 374.913522 163.249841 
L 379.655675 168.982441 
L 384.96 175.064719 
L 380.064148 180.666625 
L 375.309859 186.389164 
L 370.700104 192.22876 
L 366.237764 198.181762 
L 361.925628 204.244452 
L 357.766391 210.413039 
L 353.762653 216.683668 
L 349.916915 223.052421 
L 346.231581 229.515318 
L 342.708954 236.068318 
L 339.351235 242.707328 
L 336.390935 248.928 
L 333.187792 242.213047 
L 329.817794 235.580262 
L 326.283047 229.033792 
L 322.585759 222.577726 
L 318.728243 216.216101 
L 314.712907 209.952891 
L 310.542262 203.792011 
L 306.218914 197.737312 
L 305.053097 196.157989 
L 304.0172 190.29723 
L 303.216499 184.399734 
L 302.652275 178.474936 
L 302.325432 172.532314 
L 302.236492 166.581375 
L 302.385596 160.63164 
L 302.772508 154.692627 
L 302.872157 153.573777 
L 307.040344 157.822047 
L 311.035311 162.233602 
L 314.850667 166.801385 
L 318.480309 171.518087 
L 321.91843 176.376164 
L 325.159529 181.367842 
L 328.198422 186.485137 
L 328.748847 187.464314 
L 322.908861 186.317083 
L 317.119423 184.937232 
L 311.389795 183.326969 
L 305.729144 181.48887 
L 300.146525 179.425875 
L 294.65087 177.141286 
L 289.250969 174.638756 
L 288.243332 174.142346 
L 293.708847 171.78656 
L 299.264197 169.651222 
L 304.900494 167.739746 
L 310.60872 166.055191 
L 316.379746 164.600251 
L 322.204337 163.377255 
L 328.073175 162.388158 
L 329.184958 162.227865 
L 326.008975 167.261224 
L 322.63425 172.163552 
L 319.066185 176.927006 
L 315.310486 181.543964 
L 311.373162 186.007042 
L 307.260512 190.309099 
L 302.979116 194.443252 
L 302.152744 195.204084 
L 302.152744 195.204084 
" style="fill:none;stroke:#1f77b4;stroke-linecap:square;stroke-width:1.5;"/>
   </g>
   <g id="patch_5">
    <path d="M 57.6 263.808 
L 57.6 85.248 
" style="fill:none;stroke:#000000;stroke-linecap:square;stroke-linejoin:miter;stroke-width:0.8;"/>
   </g>
   <g id="patch_6">
    <path d="M 414.72 263.808 
L 414.72 85.248 
" style="fill:none;stroke:#000000;stroke-linecap:square;stroke-linejoin:miter;stroke-width:0.8;"/>
   </g>
   <g id="patch_7">
    <path d="M 57.6 263.808 
L 414.72 263.808 
" style="fill:none;stroke:#000000;stroke-linecap:square;stroke-linejoin:miter;stroke-width:0.8;"/>
   </g>
   <g id="patch_8">
    <path d="M 57.6 85.248 
L 414.72 85.248 
" style="fill:none;stroke:#000000;stroke-linecap:square;stroke-linejoin:miter;stroke-width:0.8;"/>
   </g>
  </g>
 </g>
 <defs>
  <clipPath id="p3f79964370">
   <rect height="178.56" width="357.12" x="57.6" y="85.248"/>
  </clipPath>
 </defs>
</svg>
