<?xml version="1.0" encoding="utf-8" standalone="no"?>
<!DOCTYPE svg PUBLIC "-//W3C//DTD SVG 1.1//EN"
  "http://www.w3.org/Graphics/SVG/1.1/DTD/svg11.dtd">
<!-- Created with matplotlib (https://matplotlib.org/) -->
<svg height="345.6pt" version="1.1" viewBox="0 0 460.8 345.6" width="460.8pt" xmlns="http://www.w3.org/2000/svg" xmlns:xlink="http://www.w3.org/1999/xlink">
 <defs>
  <style type="text/css">
*{stroke-linecap:butt;stroke-linejoin:round;}
  </style>
 </defs>
 <g id="figure_1">
  <g id="patch_1">
   <path d="M 0 345.6 
L 460.8 345.6 
L 460.8 0 
L 0 0 
z
" style="fill:#ffffff;"/>
  </g>
  <g id="axes_1">
   <g id="patch_2">
    <path d="M 57.6 263.808 
L 414.72 263.808 
L 414.72 85.248 
L 57.6 85.248 
z
" style="fill:#ffffff;"/>
   </g>
   <g id="PathCollection_1">
    <defs>
     <path d="M 0 3 
C 0.795609 3 1.55874 2.683901 2.12132 2.12132 
C 2.683901 1.55874 3 0.795609 3 0 
C 3 -0.795609 2.683901 -1.55874 2.12132 -2.12132 
C 1.55874 -2.683901 0.795609 -3 0 -3 
C -0.795609 -3 -1.55874 -2.683901 -2.12132 -2.12132 
C -2.683901 -1.55874 -3 -0.795609 -3 0 
C -3 0.795609 -2.683901 1.55874 -2.12132 2.12132 
C -1.55874 2.683901 -0.795609 3 0 3 
z
" id="m9b8c40b2f2" style="stroke:#000000;"/>
    </defs>
    <g clip-path="url(#pcc759421f5)">
     <use style="stroke:#000000;" x="170.868981" xlink:href="#m9b8c40b2f2" y="129.027502"/>
    </g>
   </g>
   <g id="patch_3">
    <path clip-path="url(#pcc759421f5)" d="M 161.76 211.728 
C 171.625555 211.728 181.088371 207.808373 188.064372 200.832372 
C 195.040373 193.856371 198.96 184.393555 198.96 174.528 
C 198.96 164.662445 195.040373 155.199629 188.064372 148.223628 
C 181.088371 141.247627 171.625555 137.328 161.76 137.328 
C 151.894445 137.328 142.431629 141.247627 135.455628 148.223628 
C 128.479627 155.199629 124.56 164.662445 124.56 174.528 
C 124.56 184.393555 128.479627 193.856371 135.455628 200.832372 
C 142.431629 207.808373 151.894445 211.728 161.76 211.728 
z
" style="fill:#cc0000;fill-opacity:0.1;stroke:#cc0000;stroke-dasharray:7.4,3.2;stroke-dashoffset:0;stroke-linejoin:miter;stroke-width:2;"/>
   </g>
   <g id="patch_4">
    <path clip-path="url(#pcc759421f5)" d="M 310.56 196.848 
C 316.479333 196.848 322.157023 194.496224 326.342623 190.310623 
C 330.528224 186.125023 332.88 180.447333 332.88 174.528 
C 332.88 168.608667 330.528224 162.930977 326.342623 158.745377 
C 322.157023 154.559776 316.479333 152.208 310.56 152.208 
C 304.640667 152.208 298.962977 154.559776 294.777377 158.745377 
C 290.591776 162.930977 288.24 168.608667 288.24 174.528 
C 288.24 180.447333 290.591776 186.125023 294.777377 190.310623 
C 298.962977 194.496224 304.640667 196.848 310.56 196.848 
z
" style="fill:#cc0000;fill-opacity:0.1;stroke:#cc0000;stroke-dasharray:7.4,3.2;stroke-dashoffset:0;stroke-linejoin:miter;stroke-width:2;"/>
   </g>
   <g id="matplotlib.axis_1">
    <g id="xtick_1">
     <g id="line2d_1">
      <defs>
       <path d="M 0 0 
L 0 3.5 
" id="m2104603b9a" style="stroke:#000000;stroke-width:0.8;"/>
      </defs>
      <g>
       <use style="stroke:#000000;stroke-width:0.8;" x="87.36" xlink:href="#m2104603b9a" y="263.808"/>
      </g>
     </g>
     <g id="text_1">
      <!-- 0.0 -->
      <defs>
       <path d="M 31.78125 66.40625 
Q 24.171875 66.40625 20.328125 58.90625 
Q 16.5 51.421875 16.5 36.375 
Q 16.5 21.390625 20.328125 13.890625 
Q 24.171875 6.390625 31.78125 6.390625 
Q 39.453125 6.390625 43.28125 13.890625 
Q 47.125 21.390625 47.125 36.375 
Q 47.125 51.421875 43.28125 58.90625 
Q 39.453125 66.40625 31.78125 66.40625 
z
M 31.78125 74.21875 
Q 44.046875 74.21875 50.515625 64.515625 
Q 56.984375 54.828125 56.984375 36.375 
Q 56.984375 17.96875 50.515625 8.265625 
Q 44.046875 -1.421875 31.78125 -1.421875 
Q 19.53125 -1.421875 13.0625 8.265625 
Q 6.59375 17.96875 6.59375 36.375 
Q 6.59375 54.828125 13.0625 64.515625 
Q 19.53125 74.21875 31.78125 74.21875 
z
" id="DejaVuSans-48"/>
       <path d="M 10.6875 12.40625 
L 21 12.40625 
L 21 0 
L 10.6875 0 
z
" id="DejaVuSans-46"/>
      </defs>
      <g transform="translate(79.408438 278.406437)scale(0.1 -0.1)">
       <use xlink:href="#DejaVuSans-48"/>
       <use x="63.623047" xlink:href="#DejaVuSans-46"/>
       <use x="95.410156" xlink:href="#DejaVuSans-48"/>
      </g>
     </g>
    </g>
    <g id="xtick_2">
     <g id="line2d_2">
      <g>
       <use style="stroke:#000000;stroke-width:0.8;" x="161.76" xlink:href="#m2104603b9a" y="263.808"/>
      </g>
     </g>
     <g id="text_2">
      <!-- 0.5 -->
      <defs>
       <path d="M 10.796875 72.90625 
L 49.515625 72.90625 
L 49.515625 64.59375 
L 19.828125 64.59375 
L 19.828125 46.734375 
Q 21.96875 47.46875 24.109375 47.828125 
Q 26.265625 48.1875 28.421875 48.1875 
Q 40.625 48.1875 47.75 41.5 
Q 54.890625 34.8125 54.890625 23.390625 
Q 54.890625 11.625 47.5625 5.09375 
Q 40.234375 -1.421875 26.90625 -1.421875 
Q 22.3125 -1.421875 17.546875 -0.640625 
Q 12.796875 0.140625 7.71875 1.703125 
L 7.71875 11.625 
Q 12.109375 9.234375 16.796875 8.0625 
Q 21.484375 6.890625 26.703125 6.890625 
Q 35.15625 6.890625 40.078125 11.328125 
Q 45.015625 15.765625 45.015625 23.390625 
Q 45.015625 31 40.078125 35.4375 
Q 35.15625 39.890625 26.703125 39.890625 
Q 22.75 39.890625 18.8125 39.015625 
Q 14.890625 38.140625 10.796875 36.28125 
z
" id="DejaVuSans-53"/>
      </defs>
      <g transform="translate(153.808437 278.406437)scale(0.1 -0.1)">
       <use xlink:href="#DejaVuSans-48"/>
       <use x="63.623047" xlink:href="#DejaVuSans-46"/>
       <use x="95.410156" xlink:href="#DejaVuSans-53"/>
      </g>
     </g>
    </g>
    <g id="xtick_3">
     <g id="line2d_3">
      <g>
       <use style="stroke:#000000;stroke-width:0.8;" x="236.16" xlink:href="#m2104603b9a" y="263.808"/>
      </g>
     </g>
     <g id="text_3">
      <!-- 1.0 -->
      <defs>
       <path d="M 12.40625 8.296875 
L 28.515625 8.296875 
L 28.515625 63.921875 
L 10.984375 60.40625 
L 10.984375 69.390625 
L 28.421875 72.90625 
L 38.28125 72.90625 
L 38.28125 8.296875 
L 54.390625 8.296875 
L 54.390625 0 
L 12.40625 0 
z
" id="DejaVuSans-49"/>
      </defs>
      <g transform="translate(228.208437 278.406437)scale(0.1 -0.1)">
       <use xlink:href="#DejaVuSans-49"/>
       <use x="63.623047" xlink:href="#DejaVuSans-46"/>
       <use x="95.410156" xlink:href="#DejaVuSans-48"/>
      </g>
     </g>
    </g>
    <g id="xtick_4">
     <g id="line2d_4">
      <g>
       <use style="stroke:#000000;stroke-width:0.8;" x="310.56" xlink:href="#m2104603b9a" y="263.808"/>
      </g>
     </g>
     <g id="text_4">
      <!-- 1.5 -->
      <g transform="translate(302.608437 278.406437)scale(0.1 -0.1)">
       <use xlink:href="#DejaVuSans-49"/>
       <use x="63.623047" xlink:href="#DejaVuSans-46"/>
       <use x="95.410156" xlink:href="#DejaVuSans-53"/>
      </g>
     </g>
    </g>
    <g id="xtick_5">
     <g id="line2d_5">
      <g>
       <use style="stroke:#000000;stroke-width:0.8;" x="384.96" xlink:href="#m2104603b9a" y="263.808"/>
      </g>
     </g>
     <g id="text_5">
      <!-- 2.0 -->
      <defs>
       <path d="M 19.1875 8.296875 
L 53.609375 8.296875 
L 53.609375 0 
L 7.328125 0 
L 7.328125 8.296875 
Q 12.9375 14.109375 22.625 23.890625 
Q 32.328125 33.6875 34.8125 36.53125 
Q 39.546875 41.84375 41.421875 45.53125 
Q 43.3125 49.21875 43.3125 52.78125 
Q 43.3125 58.59375 39.234375 62.25 
Q 35.15625 65.921875 28.609375 65.921875 
Q 23.96875 65.921875 18.8125 64.3125 
Q 13.671875 62.703125 7.8125 59.421875 
L 7.8125 69.390625 
Q 13.765625 71.78125 18.9375 73 
Q 24.125 74.21875 28.421875 74.21875 
Q 39.75 74.21875 46.484375 68.546875 
Q 53.21875 62.890625 53.21875 53.421875 
Q 53.21875 48.921875 51.53125 44.890625 
Q 49.859375 40.875 45.40625 35.40625 
Q 44.1875 33.984375 37.640625 27.21875 
Q 31.109375 20.453125 19.1875 8.296875 
z
" id="DejaVuSans-50"/>
      </defs>
      <g transform="translate(377.008437 278.406437)scale(0.1 -0.1)">
       <use xlink:href="#DejaVuSans-50"/>
       <use x="63.623047" xlink:href="#DejaVuSans-46"/>
       <use x="95.410156" xlink:href="#DejaVuSans-48"/>
      </g>
     </g>
    </g>
   </g>
   <g id="matplotlib.axis_2">
    <g id="ytick_1">
     <g id="line2d_6">
      <defs>
       <path d="M 0 0 
L -3.5 0 
" id="m256720b934" style="stroke:#000000;stroke-width:0.8;"/>
      </defs>
      <g>
       <use style="stroke:#000000;stroke-width:0.8;" x="57.6" xlink:href="#m256720b934" y="248.928"/>
      </g>
     </g>
     <g id="text_6">
      <!-- 0.0 -->
      <g transform="translate(34.696875 252.727219)scale(0.1 -0.1)">
       <use xlink:href="#DejaVuSans-48"/>
       <use x="63.623047" xlink:href="#DejaVuSans-46"/>
       <use x="95.410156" xlink:href="#DejaVuSans-48"/>
      </g>
     </g>
    </g>
    <g id="ytick_2">
     <g id="line2d_7">
      <g>
       <use style="stroke:#000000;stroke-width:0.8;" x="57.6" xlink:href="#m256720b934" y="219.168"/>
      </g>
     </g>
     <g id="text_7">
      <!-- 0.2 -->
      <g transform="translate(34.696875 222.967219)scale(0.1 -0.1)">
       <use xlink:href="#DejaVuSans-48"/>
       <use x="63.623047" xlink:href="#DejaVuSans-46"/>
       <use x="95.410156" xlink:href="#DejaVuSans-50"/>
      </g>
     </g>
    </g>
    <g id="ytick_3">
     <g id="line2d_8">
      <g>
       <use style="stroke:#000000;stroke-width:0.8;" x="57.6" xlink:href="#m256720b934" y="189.408"/>
      </g>
     </g>
     <g id="text_8">
      <!-- 0.4 -->
      <defs>
       <path d="M 37.796875 64.3125 
L 12.890625 25.390625 
L 37.796875 25.390625 
z
M 35.203125 72.90625 
L 47.609375 72.90625 
L 47.609375 25.390625 
L 58.015625 25.390625 
L 58.015625 17.1875 
L 47.609375 17.1875 
L 47.609375 0 
L 37.796875 0 
L 37.796875 17.1875 
L 4.890625 17.1875 
L 4.890625 26.703125 
z
" id="DejaVuSans-52"/>
      </defs>
      <g transform="translate(34.696875 193.207219)scale(0.1 -0.1)">
       <use xlink:href="#DejaVuSans-48"/>
       <use x="63.623047" xlink:href="#DejaVuSans-46"/>
       <use x="95.410156" xlink:href="#DejaVuSans-52"/>
      </g>
     </g>
    </g>
    <g id="ytick_4">
     <g id="line2d_9">
      <g>
       <use style="stroke:#000000;stroke-width:0.8;" x="57.6" xlink:href="#m256720b934" y="159.648"/>
      </g>
     </g>
     <g id="text_9">
      <!-- 0.6 -->
      <defs>
       <path d="M 33.015625 40.375 
Q 26.375 40.375 22.484375 35.828125 
Q 18.609375 31.296875 18.609375 23.390625 
Q 18.609375 15.53125 22.484375 10.953125 
Q 26.375 6.390625 33.015625 6.390625 
Q 39.65625 6.390625 43.53125 10.953125 
Q 47.40625 15.53125 47.40625 23.390625 
Q 47.40625 31.296875 43.53125 35.828125 
Q 39.65625 40.375 33.015625 40.375 
z
M 52.59375 71.296875 
L 52.59375 62.3125 
Q 48.875 64.0625 45.09375 64.984375 
Q 41.3125 65.921875 37.59375 65.921875 
Q 27.828125 65.921875 22.671875 59.328125 
Q 17.53125 52.734375 16.796875 39.40625 
Q 19.671875 43.65625 24.015625 45.921875 
Q 28.375 48.1875 33.59375 48.1875 
Q 44.578125 48.1875 50.953125 41.515625 
Q 57.328125 34.859375 57.328125 23.390625 
Q 57.328125 12.15625 50.6875 5.359375 
Q 44.046875 -1.421875 33.015625 -1.421875 
Q 20.359375 -1.421875 13.671875 8.265625 
Q 6.984375 17.96875 6.984375 36.375 
Q 6.984375 53.65625 15.1875 63.9375 
Q 23.390625 74.21875 37.203125 74.21875 
Q 40.921875 74.21875 44.703125 73.484375 
Q 48.484375 72.75 52.59375 71.296875 
z
" id="DejaVuSans-54"/>
      </defs>
      <g transform="translate(34.696875 163.447219)scale(0.1 -0.1)">
       <use xlink:href="#DejaVuSans-48"/>
       <use x="63.623047" xlink:href="#DejaVuSans-46"/>
       <use x="95.410156" xlink:href="#DejaVuSans-54"/>
      </g>
     </g>
    </g>
    <g id="ytick_5">
     <g id="line2d_10">
      <g>
       <use style="stroke:#000000;stroke-width:0.8;" x="57.6" xlink:href="#m256720b934" y="129.888"/>
      </g>
     </g>
     <g id="text_10">
      <!-- 0.8 -->
      <defs>
       <path d="M 31.78125 34.625 
Q 24.75 34.625 20.71875 30.859375 
Q 16.703125 27.09375 16.703125 20.515625 
Q 16.703125 13.921875 20.71875 10.15625 
Q 24.75 6.390625 31.78125 6.390625 
Q 38.8125 6.390625 42.859375 10.171875 
Q 46.921875 13.96875 46.921875 20.515625 
Q 46.921875 27.09375 42.890625 30.859375 
Q 38.875 34.625 31.78125 34.625 
z
M 21.921875 38.8125 
Q 15.578125 40.375 12.03125 44.71875 
Q 8.5 49.078125 8.5 55.328125 
Q 8.5 64.0625 14.71875 69.140625 
Q 20.953125 74.21875 31.78125 74.21875 
Q 42.671875 74.21875 48.875 69.140625 
Q 55.078125 64.0625 55.078125 55.328125 
Q 55.078125 49.078125 51.53125 44.71875 
Q 48 40.375 41.703125 38.8125 
Q 48.828125 37.15625 52.796875 32.3125 
Q 56.78125 27.484375 56.78125 20.515625 
Q 56.78125 9.90625 50.3125 4.234375 
Q 43.84375 -1.421875 31.78125 -1.421875 
Q 19.734375 -1.421875 13.25 4.234375 
Q 6.78125 9.90625 6.78125 20.515625 
Q 6.78125 27.484375 10.78125 32.3125 
Q 14.796875 37.15625 21.921875 38.8125 
z
M 18.3125 54.390625 
Q 18.3125 48.734375 21.84375 45.5625 
Q 25.390625 42.390625 31.78125 42.390625 
Q 38.140625 42.390625 41.71875 45.5625 
Q 45.3125 48.734375 45.3125 54.390625 
Q 45.3125 60.0625 41.71875 63.234375 
Q 38.140625 66.40625 31.78125 66.40625 
Q 25.390625 66.40625 21.84375 63.234375 
Q 18.3125 60.0625 18.3125 54.390625 
z
" id="DejaVuSans-56"/>
      </defs>
      <g transform="translate(34.696875 133.687219)scale(0.1 -0.1)">
       <use xlink:href="#DejaVuSans-48"/>
       <use x="63.623047" xlink:href="#DejaVuSans-46"/>
       <use x="95.410156" xlink:href="#DejaVuSans-56"/>
      </g>
     </g>
    </g>
    <g id="ytick_6">
     <g id="line2d_11">
      <g>
       <use style="stroke:#000000;stroke-width:0.8;" x="57.6" xlink:href="#m256720b934" y="100.128"/>
      </g>
     </g>
     <g id="text_11">
      <!-- 1.0 -->
      <g transform="translate(34.696875 103.927219)scale(0.1 -0.1)">
       <use xlink:href="#DejaVuSans-49"/>
       <use x="63.623047" xlink:href="#DejaVuSans-46"/>
       <use x="95.410156" xlink:href="#DejaVuSans-48"/>
      </g>
     </g>
    </g>
   </g>
   <g id="line2d_12">
    <path clip-path="url(#pcc759421f5)" d="M 236.16 248.928 
L 236.16 100.128 
" style="fill:none;stroke:#cc0000;stroke-dasharray:7.4,3.2;stroke-dashoffset:0;stroke-width:2;"/>
   </g>
   <g id="line2d_13">
    <path clip-path="url(#pcc759421f5)" d="M 87.36 248.928 
L 384.96 248.928 
" style="fill:none;stroke:#009900;stroke-linecap:square;stroke-width:2;"/>
   </g>
   <g id="line2d_14">
    <path clip-path="url(#pcc759421f5)" d="M 384.96 248.928 
L 384.96 100.128 
" style="fill:none;stroke:#009900;stroke-linecap:square;stroke-width:2;"/>
   </g>
   <g id="line2d_15">
    <path clip-path="url(#pcc759421f5)" d="M 384.96 100.128 
L 87.36 100.128 
" style="fill:none;stroke:#009900;stroke-linecap:square;stroke-width:2;"/>
   </g>
   <g id="line2d_16">
    <path clip-path="url(#pcc759421f5)" d="M 87.36 100.128 
L 87.36 248.928 
" style="fill:none;stroke:#009900;stroke-linecap:square;stroke-width:2;"/>
   </g>
   <g id="line2d_17">
    <path clip-path="url(#pcc759421f5)" d="M 170.868981 129.027502 
L 166.046184 125.540066 
L 161.087784 122.24828 
L 156.001714 119.15741 
L 150.796111 116.272401 
L 145.479302 113.597869 
L 140.059794 111.138091 
L 134.546255 108.897004 
L 128.947507 106.878192 
L 123.272507 105.084885 
L 117.530332 103.519951 
L 111.730171 102.185896 
L 105.8813 101.084852 
L 99.993079 100.218581 
L 99.263972 100.128 
L 93.371545 100.965187 
L 87.36 102.0695 
L 93.213075 103.147968 
L 99.104596 103.991513 
L 105.025136 104.598784 
L 110.965225 104.968812 
L 116.91536 105.101003 
L 122.866022 104.995147 
L 128.807691 104.651412 
L 134.730861 104.070349 
L 140.626057 103.252887 
L 146.483848 102.200334 
L 152.294862 100.914374 
L 155.393553 100.128 
L 161.175599 101.538504 
L 167.009426 102.716659 
L 172.885699 103.660581 
L 178.795019 104.36876 
L 184.727932 104.840063 
L 190.674946 105.073735 
L 196.626548 105.069403 
L 202.573216 104.827075 
L 208.505436 104.347136 
L 214.413719 103.630356 
L 220.288613 102.677882 
L 226.120718 101.491236 
L 231.691386 100.128 
L 236.16 101.239552 
L 230.390959 102.70234 
L 224.685029 104.394658 
L 219.051337 106.313798 
L 213.498897 108.456692 
L 208.036592 110.819909 
L 202.673159 113.39967 
L 197.417179 116.191848 
L 192.27706 119.191975 
L 187.261027 122.395253 
L 182.377102 125.796556 
L 177.6331 129.390443 
L 173.03661 133.171165 
L 168.594985 137.132673 
L 167.849331 137.82977 
L 164.960799 132.626121 
L 161.866487 127.542145 
L 158.571346 122.585974 
L 155.080647 117.765539 
L 151.399973 113.08855 
L 147.535214 108.56249 
L 143.492553 104.1946 
L 139.420342 100.128 
L 135.211803 104.336298 
L 131.174917 108.709527 
L 127.316142 113.240691 
L 123.641653 117.922539 
L 120.157326 122.747583 
L 116.868737 127.708104 
L 113.781146 132.796165 
L 110.899494 138.003626 
L 108.228389 143.322158 
L 105.772105 148.743251 
L 103.534572 154.258233 
L 101.519369 159.858281 
L 99.729721 165.534437 
L 98.168489 171.277618 
L 96.838173 177.078639 
L 95.740899 182.928218 
L 94.878424 188.816997 
L 94.252127 194.735555 
L 93.863011 200.674424 
L 93.711697 206.624104 
L 93.798427 212.575075 
L 94.123064 218.517818 
L 94.685088 224.442825 
L 95.483599 230.340618 
L 96.51732 236.201761 
L 97.784597 242.016878 
L 99.283403 247.776667 
L 99.612726 248.928 
L 101.157837 243.18046 
L 102.471872 237.37573 
L 103.552728 231.523095 
L 104.398677 225.63192 
L 105.008365 219.711627 
L 105.380816 213.77169 
L 105.515436 207.821609 
L 105.412008 201.870905 
L 105.070698 195.929096 
L 104.492052 190.005689 
L 103.676996 184.11016 
L 102.626834 178.25194 
L 101.343245 172.440402 
L 99.828284 166.684841 
L 98.084373 160.994467 
L 96.114303 155.378383 
L 93.921225 149.845573 
L 91.508649 144.404888 
L 88.880432 139.065032 
L 87.36 136.202602 
L 90.103899 130.921258 
L 92.634406 125.534411 
L 94.947473 120.05068 
L 97.039398 114.478838 
L 98.906836 108.827798 
L 100.546799 103.1066 
L 101.303664 100.128 
L 102.82512 105.881847 
L 104.575451 111.570249 
L 106.551858 117.184107 
L 108.751178 122.714438 
L 111.169894 128.152397 
L 113.804135 133.489284 
L 116.649687 138.716559 
L 119.701999 143.825862 
L 122.956187 148.809018 
L 126.407044 153.658055 
L 128.953652 156.98994 
L 132.286979 159.958146 
L 135.436323 163.120891 
L 138.390348 166.466792 
L 141.138424 169.983807 
L 143.670661 173.659279 
L 145.977945 177.479981 
L 148.051973 181.432161 
L 149.88528 185.501596 
L 151.471268 189.673641 
L 152.80423 193.933281 
L 153.879368 198.265186 
L 154.692813 202.653765 
L 155.241638 207.083224 
L 155.511843 211.199522 
L 157.067209 216.944295 
L 158.85106 222.622275 
L 160.860543 228.224378 
L 163.092444 233.741642 
L 165.54319 239.16524 
L 168.208863 244.486497 
L 170.643497 248.928 
L 173.48873 243.70055 
L 176.122644 238.363503 
L 178.541027 232.925396 
L 180.740009 227.394929 
L 182.716072 221.780951 
L 184.466056 216.092442 
L 185.987159 210.338502 
L 187.27695 204.528336 
L 187.952111 200.944156 
L 193.8017 199.846937 
L 199.602733 198.516675 
L 205.34593 196.955497 
L 211.022101 195.165901 
L 216.622168 193.15075 
L 222.137171 190.913269 
L 227.558287 188.457035 
L 232.876844 185.78598 
L 236.16 184.001007 
L 243.334684 182.032598 
L 250.45792 179.885457 
L 257.525258 177.560923 
L 264.53228 175.060451 
L 271.474607 172.385603 
L 278.3479 169.538051 
L 285.147865 166.519574 
L 291.015349 163.748898 
L 290.100935 156.365501 
L 289.00224 149.007268 
L 287.719952 141.678799 
L 286.254872 134.384674 
L 284.607915 127.129452 
L 282.780112 119.917666 
L 280.772604 112.753825 
L 278.586645 105.642404 
L 276.75628 100.128 
L 274.431904 107.195389 
L 272.284921 114.318674 
L 270.316672 121.493401 
L 268.528388 128.715088 
L 266.921186 135.97922 
L 265.496071 143.281258 
L 264.253932 150.616639 
L 263.195548 157.980778 
L 262.321578 165.369072 
L 261.63257 172.776905 
L 261.128953 180.199646 
L 260.811043 187.632657 
L 260.679039 195.071292 
L 260.733022 202.510902 
L 260.972959 209.946839 
L 261.3987 217.374453 
L 262.009979 224.789105 
L 262.806414 232.186159 
L 263.787507 239.560993 
L 264.952646 246.908997 
L 265.305875 248.928 
L 266.521594 241.588194 
L 267.553457 234.220293 
L 268.400819 226.828899 
L 269.06315 219.418634 
L 269.540037 211.994127 
L 269.831182 204.56002 
L 269.936402 197.120958 
L 269.855633 189.68159 
L 269.588924 182.246566 
L 269.136442 174.820532 
L 268.49847 167.40813 
L 267.675406 160.013992 
L 266.667765 152.642738 
L 265.476178 145.298976 
L 264.101387 137.987296 
L 262.544253 130.712267 
L 260.805749 123.478435 
L 258.886962 116.290322 
L 256.78909 109.15242 
L 254.513444 102.069189 
L 253.855471 100.128 
L 251.531095 107.195389 
L 249.384112 114.318674 
L 247.415863 121.493401 
L 245.627579 128.715088 
L 244.020377 135.97922 
L 242.595261 143.281258 
L 241.353123 150.616639 
L 240.294738 157.980778 
L 239.420769 165.369072 
L 238.73176 172.776905 
L 238.228144 180.199646 
L 237.910234 187.632657 
L 237.778229 195.071292 
L 237.832212 202.510902 
L 238.072149 209.946839 
L 238.49789 217.374453 
L 239.10917 224.789105 
L 239.905605 232.186159 
L 240.886698 239.560993 
L 242.051836 246.908997 
L 242.405066 248.928 
L 243.620785 241.588194 
L 244.652647 234.220293 
L 245.500009 226.828899 
L 246.162341 219.418634 
L 246.639228 211.994127 
L 246.930373 204.56002 
L 247.035593 197.120958 
L 246.954824 189.68159 
L 246.688114 182.246566 
L 246.235632 174.820532 
L 245.59766 167.40813 
L 244.774597 160.013992 
L 243.766956 152.642738 
L 242.575368 145.298976 
L 241.200578 137.987296 
L 239.643444 130.712267 
L 237.90494 123.478435 
L 236.16 116.912976 
L 238.063169 109.720712 
L 239.785955 102.48312 
L 240.305518 100.128 
L 241.969595 107.379315 
L 243.814415 114.586766 
L 245.838827 121.74585 
L 248.041564 128.852091 
L 250.421251 135.901049 
L 252.9764 142.888318 
L 255.705413 149.809532 
L 258.606586 156.660365 
L 261.678106 163.436535 
L 264.918053 170.133808 
L 268.324401 176.747998 
L 271.895022 183.274971 
L 275.627685 189.710649 
L 279.520057 196.051008 
L 283.569705 202.292087 
L 287.774099 208.429985 
L 292.13061 214.460867 
L 296.636516 220.380962 
L 301.289 226.186571 
L 306.085157 231.874067 
L 311.021987 237.439893 
L 316.096405 242.880573 
L 322.04709 248.928 
L 327.274538 243.634182 
L 332.368021 238.211346 
L 337.324355 232.662881 
L 342.140444 226.992254 
L 346.813276 221.20301 
L 351.339933 215.298766 
L 355.717584 209.283212 
L 359.943494 203.160108 
L 364.015022 196.933281 
L 367.929623 190.606621 
L 371.68485 184.184084 
L 375.278358 177.669683 
L 378.7079 171.06749 
L 381.971332 164.38163 
L 384.96 157.856939 
L 381.858734 151.094331 
L 378.589389 144.41136 
L 375.15401 137.812202 
L 371.554742 131.300982 
L 367.793835 124.881769 
L 363.87364 118.558575 
L 359.796606 112.335351 
L 355.565282 106.215987 
L 351.125185 100.128 
L 346.740289 106.138275 
L 342.507005 112.256284 
L 338.427979 118.478201 
L 334.505758 124.800139 
L 330.742795 131.218148 
L 327.141442 137.728214 
L 323.703949 144.326272 
L 320.432464 151.008195 
L 314.580384 163.289667 
L 311.717191 168.507302 
L 308.647639 173.606265 
L 305.376638 178.578401 
L 301.909422 183.415755 
L 298.251536 188.110587 
L 290.125009 198.154612 
L 285.646077 204.095142 
L 281.317043 210.145777 
L 277.140612 216.302735 
L 273.119394 222.56217 
L 269.255902 228.920169 
L 265.55255 235.372758 
L 262.011654 241.915904 
L 258.446966 248.928 
L 255.08024 242.293554 
L 251.548723 235.745341 
L 247.85462 229.287452 
L 244.000242 222.923925 
L 239.987996 216.658735 
L 236.16 210.985767 
L 240.315251 204.814495 
L 244.314939 198.54128 
L 248.156562 192.170044 
L 251.83772 185.704769 
L 255.356114 179.149494 
L 258.709543 172.508317 
L 261.895912 165.785389 
L 264.913229 158.98491 
L 267.75961 152.111131 
L 270.433274 145.168348 
L 272.932552 138.1609 
L 275.25588 131.093166 
L 277.401808 123.969564 
L 279.368993 116.794544 
L 281.156207 109.572593 
L 282.762333 102.308223 
L 283.207367 100.128 
L 284.759132 107.404176 
L 286.492297 114.639289 
L 288.40578 121.828816 
L 290.498384 128.968265 
L 292.768802 136.053173 
L 295.215615 143.079112 
L 297.837293 150.041692 
L 299.812797 154.965791 
L 302.274406 160.384468 
L 304.517356 165.897249 
L 306.538059 171.495315 
L 308.333283 177.169709 
L 309.900156 182.911354 
L 311.236171 188.711065 
L 312.339191 194.559563 
L 312.689748 196.746159 
L 312.573093 190.795699 
L 312.694487 184.845334 
L 313.053734 178.904583 
L 313.650261 172.98295 
L 314.483113 167.089908 
L 315.550958 161.234886 
L 316.852086 155.427249 
L 317.39533 153.280396 
L 315.14799 158.791389 
L 312.682067 164.208105 
L 310.001506 169.521877 
L 307.110595 174.724204 
L 304.013958 179.806765 
L 300.71655 184.761428 
L 297.223646 189.580266 
L 295.875272 191.336961 
L 300.11979 187.164953 
L 304.527748 183.166017 
L 309.092095 179.346552 
L 313.805529 175.712667 
L 318.660509 172.270175 
L 323.649269 169.024585 
L 328.763827 165.981088 
L 330.697247 164.901283 
L 325.148353 167.05334 
L 319.517837 168.98178 
L 313.814709 170.683516 
L 308.048091 172.155827 
L 302.227209 173.396356 
L 296.361375 174.403121 
L 290.459974 175.174509 
L 286.786596 175.628769 
L 279.452226 176.876861 
L 272.151347 178.307902 
L 264.888521 179.920999 
L 257.668289 181.715144 
L 250.495161 183.689215 
L 243.373621 185.841978 
L 236.16 188.223043 
L 231.544059 191.979992 
L 227.082048 195.918525 
L 222.781105 200.03234 
L 218.648112 204.314856 
L 214.689679 208.759222 
L 210.91214 213.358328 
L 207.321538 218.104817 
L 203.923616 222.991095 
L 200.723812 228.009345 
L 197.727244 233.151539 
L 194.938706 238.409451 
L 192.362658 243.774669 
L 190.13045 248.928 
L 187.758695 243.469396 
L 185.170552 238.110003 
L 182.37016 232.858395 
L 179.362 227.722973 
L 176.150884 222.711954 
L 172.741949 217.833353 
L 169.140649 213.094976 
L 167.660964 211.256989 
L 165.953646 207.133109 
L 164.496684 202.914273 
L 163.295322 198.615663 
L 162.353884 194.252749 
L 161.675758 189.841234 
L 161.263385 185.396995 
L 161.118247 180.936025 
L 161.240869 176.474379 
L 161.630808 172.028115 
L 162.286661 167.613234 
L 163.206068 163.245625 
L 164.38572 158.941006 
L 165.821371 154.71487 
L 167.507855 150.582427 
L 169.439102 146.558547 
L 171.608162 142.657714 
L 173.728849 139.306037 
L 173.308369 143.749518 
L 172.622197 148.159788 
L 171.672802 152.520977 
L 170.463601 156.817388 
L 168.998946 161.03356 
L 167.284108 165.154318 
L 165.325258 169.164833 
L 163.129447 173.05067 
L 160.704577 176.797845 
L 158.059374 180.392873 
L 155.203359 183.822814 
L 152.146811 187.075326 
L 148.900729 190.138701 
L 145.476796 193.001916 
L 141.887334 195.654667 
L 138.145262 198.087405 
L 134.702871 200.05743 
L 137.153431 196.327004 
L 139.823273 192.750237 
L 142.702787 189.34 
L 145.781611 186.108567 
L 149.048665 183.067567 
L 152.492191 180.227946 
L 156.099794 177.599921 
L 159.858494 175.192952 
L 163.754761 173.015701 
L 167.774573 171.076004 
L 171.903464 169.380841 
L 176.126574 167.936313 
L 180.428705 166.74762 
L 184.794372 165.819038 
L 189.207866 165.15391 
L 193.653301 164.75463 
L 197.617391 164.624086 
L 193.706256 166.774514 
L 189.673211 168.686546 
L 185.53277 170.353299 
L 181.299834 171.768776 
L 176.989638 172.927882 
L 172.617693 173.826445 
L 168.199734 174.461232 
L 163.75166 174.829958 
L 159.28948 174.931297 
L 154.829253 174.764883 
L 150.387031 174.331315 
L 145.978801 173.632154 
L 141.620428 172.669916 
L 137.327597 171.448064 
L 133.115758 169.970996 
L 129.000069 168.244026 
L 125.435525 166.50475 
L 120.976146 162.563238 
L 116.362716 158.803206 
L 111.602615 155.23067 
L 106.703457 151.851344 
L 101.673082 148.670636 
L 96.519536 145.693633 
L 91.251064 142.925099 
L 87.36 141.048783 
L 92.706617 138.434349 
L 97.944408 135.608198 
L 103.064993 132.574852 
L 108.060181 129.339164 
L 112.92198 125.906309 
L 117.642613 122.281781 
L 122.214527 118.471376 
L 126.630409 114.481192 
L 130.883194 110.317612 
L 134.966078 105.987295 
L 138.872529 101.497171 
L 140.002628 100.128 
L 143.855231 104.664411 
L 147.886161 109.043131 
L 152.088968 113.257154 
L 156.45693 117.299738 
L 160.983058 121.164418 
L 165.660112 124.845009 
L 170.480609 128.335623 
L 175.436837 131.630677 
L 180.520868 134.724899 
L 185.724568 137.613339 
L 191.039613 140.291376 
L 196.457499 142.754726 
L 201.969559 144.999448 
L 207.566975 147.021951 
L 213.240792 148.818998 
L 218.981933 150.387717 
L 224.781214 151.725596 
L 230.629357 152.830495 
L 236.16 153.654721 
L 230.274473 154.539113 
L 224.429019 155.658156 
L 218.632992 157.01006 
L 212.895662 158.592662 
L 207.226209 160.403429 
L 201.633702 162.439466 
L 196.067639 164.605223 
L 191.792497 165.887595 
L 187.448151 166.911304 
L 183.050237 167.672667 
L 178.614583 168.168943 
L 174.157152 168.398347 
L 169.693986 168.360052 
L 165.241147 168.054198 
L 160.814662 167.481883 
L 156.43046 166.645168 
L 152.10432 165.547065 
L 147.851811 164.191525 
L 143.688238 162.583427 
L 139.628585 160.728558 
L 135.687463 158.633594 
L 131.879056 156.306074 
L 130.052271 155.073954 
L 133.920215 157.301132 
L 137.647649 159.75624 
L 141.221158 162.430442 
L 144.62788 165.314114 
L 147.855555 168.396877 
L 150.892568 171.667638 
L 153.727987 175.114624 
L 156.35161 178.725431 
L 158.753992 182.487063 
L 160.92649 186.385982 
L 162.861283 190.408158 
L 164.551408 194.539113 
L 165.990784 198.763982 
L 167.17423 203.067559 
L 168.097486 207.434356 
L 168.662037 211.082095 
L 167.71198 206.721051 
L 167.025137 202.310885 
L 166.603982 197.867468 
L 166.45003 193.406794 
L 166.563834 188.944915 
L 166.944986 184.497888 
L 167.592114 180.08172 
L 168.502888 175.712303 
L 169.674031 171.405361 
L 171.101328 167.176397 
L 172.779643 163.040629 
L 174.702934 159.012941 
L 176.864281 155.107829 
L 179.255905 151.339348 
L 181.869199 147.721059 
L 184.191067 144.851625 
L 188.217318 140.468602 
L 192.065073 135.928079 
L 195.728179 131.237318 
L 199.200774 126.403824 
L 202.477303 121.435329 
L 205.552525 116.339783 
L 208.421519 111.125336 
L 211.079696 105.800331 
L 213.627117 100.128 
L 216.060499 105.559412 
L 218.709133 110.88917 
L 221.568782 116.108747 
L 224.634871 121.209794 
L 227.902495 126.18415 
L 231.366426 131.023857 
L 235.021123 135.721172 
L 236.16 137.108855 
L 232.448899 141.761737 
L 228.926833 146.559302 
L 225.599435 151.493874 
L 222.472029 156.55756 
L 219.549618 161.742258 
L 216.836878 167.039675 
L 214.338147 172.441334 
L 212.057424 177.938596 
L 209.998357 183.522664 
L 208.16424 189.184607 
L 206.558008 194.915366 
L 205.18223 200.705773 
L 204.039107 206.546565 
L 203.130467 212.428398 
L 202.457765 218.341861 
L 202.022077 224.277496 
L 201.824099 230.225805 
L 201.864148 236.177274 
L 202.142161 242.12238 
L 202.657692 248.051614 
L 202.754211 248.928 
L 203.304866 243.001925 
L 203.6181 237.058571 
L 203.693413 231.107444 
L 203.530684 225.158066 
L 203.130173 219.219954 
L 202.492522 213.302608 
L 201.61875 207.415495 
L 200.510255 201.568032 
L 199.16881 195.769575 
L 197.596563 190.029399 
L 196.732252 187.207969 
L 201.684433 183.906835 
L 206.500642 180.410307 
L 211.173176 176.723979 
L 215.694558 172.853748 
L 220.057555 168.805806 
L 224.255188 164.586629 
L 228.280741 160.202966 
L 232.127775 155.66183 
L 235.790134 150.970486 
L 236.16 150.474505 
L 232.517179 145.767974 
L 228.689061 141.210881 
L 224.681769 136.810518 
L 220.501716 132.573923 
L 216.155587 128.507875 
L 211.650337 124.618878 
L 206.993172 120.913154 
L 202.191542 117.396631 
L 197.25313 114.074934 
L 192.185836 110.953379 
L 186.997766 108.036958 
L 181.69722 105.330337 
L 176.292678 102.837847 
L 170.792786 100.563474 
L 169.663502 100.128 
L 164.145293 102.357562 
L 158.720656 104.806009 
L 153.39827 107.469426 
L 148.18665 110.343551 
L 143.094133 113.423786 
L 138.128866 116.705204 
L 133.298792 120.182555 
L 128.611638 123.850275 
L 124.074904 127.702498 
L 119.695846 131.733061 
L 115.481471 135.935515 
L 111.43852 140.303138 
L 107.573461 144.828942 
L 103.892478 149.505687 
L 100.401459 154.325891 
L 97.10599 159.281843 
L 94.011341 164.365614 
L 91.122465 169.569072 
L 88.443982 174.883892 
L 87.36 177.197025 
L 89.946849 182.557043 
L 92.745973 187.809327 
L 95.752893 192.945474 
L 98.962799 197.957269 
L 102.370555 202.836693 
L 105.970711 207.575939 
L 109.757506 212.167428 
L 113.724883 216.603811 
L 117.866494 220.877994 
L 122.175714 224.983137 
L 126.645649 228.912674 
L 131.269149 232.660318 
L 136.038816 236.220074 
L 140.947019 239.586246 
L 145.985908 242.75345 
L 151.147421 245.716619 
L 156.4233 248.471012 
L 157.35109 248.928 
L 162.645986 246.210343 
L 167.827969 243.283121 
L 172.88875 240.151016 
L 177.820231 236.819039 
L 182.614525 233.292521 
L 187.26396 229.577103 
L 191.761099 225.678729 
L 196.098748 221.603635 
L 200.269967 217.358342 
L 204.268082 212.94964 
L 208.086699 208.384583 
L 211.719707 203.670473 
L 215.161296 198.814853 
L 218.405958 193.825489 
L 221.448504 188.710365 
L 224.284065 183.477663 
L 226.908107 178.135754 
L 229.31643 172.693185 
L 231.505181 167.158662 
L 233.47086 161.541039 
L 235.210322 155.849303 
L 236.16 152.341367 
L 234.560059 146.608848 
L 232.732158 140.944896 
L 230.679221 135.35857 
L 228.404533 129.858809 
L 225.911732 124.45441 
L 223.204808 119.154019 
L 220.288089 113.966117 
L 217.166243 108.899002 
L 213.844264 103.96078 
L 211.060921 100.128 
L 207.583445 104.957983 
L 204.301898 109.923165 
L 201.22153 115.015602 
L 198.34727 120.227148 
L 195.683714 125.549465 
L 193.235126 130.974038 
L 191.005421 136.492189 
L 188.998166 142.095091 
L 187.301883 147.482627 
L 184.963514 151.284383 
L 182.401384 154.93908 
L 179.624715 158.433565 
L 176.643498 161.755261 
L 173.468464 164.892214 
L 170.111039 167.833135 
L 166.583306 170.567439 
L 162.897961 173.085286 
L 159.068268 175.377614 
L 155.108009 177.436174 
L 151.031437 179.253556 
L 146.853223 180.82322 
L 142.588404 182.139517 
L 138.252329 183.19771 
L 133.860603 183.99399 
L 129.429031 184.525492 
L 125.992949 184.753364 
L 129.943948 182.677086 
L 134.012338 180.841462 
L 138.183479 179.253098 
L 142.442359 177.917711 
L 146.773651 176.840106 
L 151.161766 176.024162 
L 155.590912 175.472815 
L 160.045149 175.188049 
L 164.508446 175.17089 
L 168.964741 175.421399 
L 173.397996 175.938674 
L 177.792255 176.720855 
L 182.131704 177.765125 
L 186.400726 179.067727 
L 190.583956 180.623972 
L 194.666341 182.42826 
L 197.737663 183.985684 
L 202.259542 187.855334 
L 206.932548 191.541062 
L 211.749207 195.036971 
L 216.701812 198.337469 
L 221.78244 201.437275 
L 226.982964 204.331431 
L 232.295062 207.015306 
L 236.16 208.804331 
L 230.773268 211.335081 
L 225.492047 214.079219 
L 220.324787 217.032354 
L 215.279755 220.189762 
L 210.36502 223.546392 
L 205.588446 227.096874 
L 200.957675 230.835528 
L 196.480113 234.756374 
L 192.162926 238.853137 
L 188.013018 243.119265 
L 184.03703 247.547933 
L 182.861583 248.928 
L 178.939843 244.451223 
L 174.842215 240.134855 
L 170.575257 235.985801 
L 166.145794 232.010699 
L 161.560913 228.215907 
L 156.827948 224.607498 
L 151.95447 221.191242 
L 146.948278 217.972607 
L 141.817378 214.95674 
L 136.56998 212.148467 
L 131.214479 209.552281 
L 125.759441 207.172334 
L 120.213595 205.012434 
L 114.585812 203.076036 
L 108.885095 201.366238 
L 103.120564 199.885777 
L 97.301442 198.637019 
L 91.437037 197.621962 
L 87.36 197.057566 
L 93.250236 196.205096 
L 99.10167 195.117761 
L 104.904942 193.797302 
L 110.650768 192.245829 
L 116.329955 190.465826 
L 121.933419 188.46014 
L 126.574496 186.603608 
L 120.861105 188.270563 
L 115.218944 190.164661 
L 109.65704 192.282869 
L 104.184291 194.6218 
L 98.809452 197.177711 
L 93.541121 199.946514 
L 88.387727 202.92378 
L 87.36 203.550959 
L 92.489136 206.569824 
L 97.734891 209.381164 
L 103.088874 211.980481 
L 108.542519 214.363616 
L 114.087102 216.526758 
L 119.713752 218.466445 
L 125.413469 220.179574 
L 131.177133 221.663406 
L 136.995525 222.915565 
L 142.859335 223.934049 
L 148.759183 224.717229 
L 154.685631 225.263851 
L 160.629198 225.573041 
L 166.580374 225.644305 
L 172.52964 225.477528 
L 178.467478 225.072977 
L 184.384389 224.431299 
L 190.270906 223.553522 
L 196.117613 222.441049 
L 201.915156 221.095659 
L 207.654261 219.519506 
L 213.325746 217.715111 
L 218.920537 215.68536 
L 224.429685 213.433501 
L 229.844376 210.963136 
L 235.155948 208.278217 
L 236.16 207.740275 
L 230.869137 205.014774 
L 225.473516 202.503032 
L 219.981768 200.209066 
L 214.402678 198.136546 
L 208.745172 196.288788 
L 203.018301 194.668748 
L 197.231227 193.279018 
L 194.243783 192.656536 
L 198.378002 196.93787 
L 202.680121 201.050455 
L 207.143258 204.987711 
L 211.760273 208.74334 
L 216.523781 212.311333 
L 221.426159 215.685983 
L 226.459567 218.861891 
L 231.615951 221.833976 
L 236.16 224.232165 
L 230.90408 227.024455 
L 225.764025 230.024692 
L 220.74806 233.228076 
L 215.864208 236.629483 
L 211.120282 240.223471 
L 206.523872 244.004291 
L 202.082332 247.965894 
L 201.055925 248.928 
L 196.652038 244.924582 
L 192.091579 241.100475 
L 187.381844 237.461797 
L 182.530368 234.014368 
L 177.544913 230.763704 
L 172.433454 227.715005 
L 167.204167 224.873149 
L 161.86542 222.242682 
L 156.425753 219.827812 
L 150.893867 217.632402 
L 145.278614 215.659964 
L 139.588975 213.913655 
L 133.834055 212.396267 
L 128.023058 211.110228 
L 122.165281 210.057596 
L 116.270096 209.240055 
L 110.346933 208.658912 
L 104.405269 208.315097 
L 98.454609 208.209161 
L 92.504472 208.341272 
L 87.36 208.64782 
L 93.301993 208.9859 
L 99.252753 209.086094 
L 105.202759 208.948241 
L 111.142494 208.572561 
L 117.062454 207.959655 
L 122.953169 207.110505 
L 128.805215 206.026468 
L 134.60923 204.709278 
L 138.619815 203.654823 
L 142.412643 201.302 
L 146.33973 199.180845 
L 150.386944 197.29899 
L 154.539719 195.663208 
L 158.783109 194.279387 
L 163.101842 193.152507 
L 167.480377 192.286623 
L 171.902954 191.684852 
L 176.353658 191.349359 
L 180.81647 191.281352 
L 185.27533 191.481075 
L 189.71419 191.94781 
L 194.219411 192.700138 
L 191.289047 189.333495 
L 188.565834 185.797194 
L 186.059571 182.103961 
L 183.77928 178.267089 
L 181.733166 174.300386 
L 179.928594 170.218127 
L 178.372057 166.035005 
L 177.069158 161.766074 
L 176.024586 157.426697 
L 175.242099 153.032493 
L 174.724515 148.599274 
L 174.473696 144.142997 
L 174.49414 139.575437 
L 171.640747 143.00756 
L 168.586685 146.262405 
L 165.342944 149.32826 
L 161.9212 152.194091 
L 158.333766 154.849583 
L 154.593554 157.28518 
L 150.714024 159.492115 
L 146.709139 161.462448 
L 142.593311 163.189086 
L 138.381353 164.665815 
L 134.088424 165.887321 
L 129.729973 166.849208 
L 125.218197 167.561177 
L 119.885285 170.203453 
L 114.662301 173.056876 
L 109.557602 176.11688 
L 104.579353 179.37857 
L 99.735519 182.836728 
L 95.033849 186.485821 
L 90.481865 190.320012 
L 87.36 193.137211 
L 91.801823 197.098496 
L 96.398503 200.878988 
L 101.142685 204.472638 
L 106.02678 207.873696 
L 111.042974 211.076722 
L 116.183243 214.076592 
L 121.439363 216.868506 
L 126.802925 219.447998 
L 132.265349 221.810942 
L 137.817897 223.953557 
L 143.451684 225.872415 
L 149.157699 227.564447 
L 154.926813 229.026946 
L 160.749797 230.257572 
L 166.617335 231.254357 
L 172.520041 232.015705 
L 178.44847 232.540399 
L 184.39314 232.827599 
L 190.344539 232.876846 
L 196.293147 232.688061 
L 202.229448 232.261547 
L 208.143944 231.597984 
L 214.027174 230.698436 
L 219.869726 229.564341 
L 225.662252 228.197513 
L 231.395487 226.60014 
L 236.16 225.081657 
L 230.483677 223.292539 
L 224.74035 221.731845 
L 218.939205 220.402071 
L 213.089524 219.305344 
L 207.200664 218.443419 
L 201.282047 217.817676 
L 195.343142 217.429114 
L 189.393448 217.278357 
L 183.442485 217.365644 
L 177.499773 217.690836 
L 171.574818 218.253413 
L 165.6771 219.052476 
L 159.816053 220.086745 
L 154.001054 221.354566 
L 148.241406 222.853911 
L 142.546323 224.582381 
L 136.924916 226.537211 
L 131.386177 228.715273 
L 125.938968 231.113084 
L 120.592004 233.726807 
L 115.353837 236.552261 
L 110.232848 239.584926 
L 105.23723 242.81995 
L 100.374974 246.252158 
L 96.851666 248.928 
L 92.093597 245.352757 
L 87.36 242.079044 
L 92.252769 238.690476 
L 97.006118 235.108959 
L 101.612442 231.340225 
L 106.064372 227.390301 
L 110.354786 223.265507 
L 114.476821 218.972442 
L 118.423882 214.517973 
L 122.189654 209.909227 
L 125.768113 205.153577 
L 129.153535 200.25863 
L 131.645368 196.367161 
L 134.780173 193.190005 
L 138.099852 190.206543 
L 141.592458 187.42751 
L 145.24542 184.862908 
L 149.045594 182.521968 
L 152.979301 180.413113 
L 157.032385 178.543935 
L 161.190259 176.921159 
L 165.437959 175.550626 
L 169.760198 174.437268 
L 174.141421 173.585092 
L 178.565861 172.997166 
L 183.017592 172.675604 
L 187.480596 172.621565 
L 191.938808 172.835243 
L 196.376186 173.315869 
L 198.951209 173.719305 
L 194.5652 174.546498 
L 190.137482 175.1092 
L 185.68399 175.405385 
L 181.220751 175.433988 
L 176.763829 175.194906 
L 172.329263 174.689 
L 167.933013 173.918089 
L 163.5909 172.884949 
L 159.318553 171.593297 
L 155.131345 170.047783 
L 151.044348 168.253968 
L 147.07227 166.218308 
L 143.229405 163.948129 
L 139.529585 161.451603 
L 135.986124 158.737712 
L 132.611775 155.816225 
L 130.724529 154.018502 
L 134.801236 155.83558 
L 138.761649 157.893844 
L 142.591513 160.185886 
L 146.277046 162.703458 
L 149.804983 165.437499 
L 153.162627 168.37817 
L 156.337895 171.514886 
L 159.319359 174.83636 
L 162.09629 178.330638 
L 164.658692 181.985144 
L 166.997345 185.786725 
L 169.103831 189.721701 
L 170.97057 193.775909 
L 172.590843 197.934759 
L 173.958819 202.183284 
L 175.069576 206.506192 
L 175.597579 209.058587 
L 175.667827 215.009775 
L 175.976003 220.953394 
L 176.521614 226.879936 
L 177.303787 232.779917 
L 178.321271 238.643901 
L 179.572437 244.462506 
L 180.699735 248.928 
L 182.130376 243.150903 
L 183.32885 237.321217 
L 184.293239 231.448268 
L 185.022003 225.541451 
L 185.513973 219.610216 
L 185.768364 213.664052 
L 185.784768 207.712471 
L 185.631635 203.058423 
L 191.457546 204.275114 
L 197.327452 205.257858 
L 203.231962 206.005082 
L 209.16163 206.515591 
L 215.10697 206.788568 
L 221.05847 206.823576 
L 227.00661 206.62056 
L 232.941873 206.179845 
L 239.130096 205.653559 
L 246.54585 205.055801 
L 253.944344 204.272856 
L 261.320955 203.305212 
L 268.671071 202.153474 
L 275.990101 200.818363 
L 283.273469 199.300712 
L 290.516624 197.60147 
L 297.715039 195.721699 
L 301.135497 194.760675 
L 305.735581 190.984327 
L 310.483 187.394954 
L 315.370157 183.998298 
L 320.389235 180.799793 
L 325.532205 177.804556 
L 330.790838 175.017379 
L 332.873435 173.986686 
L 337.545958 168.197191 
L 342.072298 162.292705 
L 346.449627 156.276917 
L 350.67521 150.153587 
L 354.746404 143.926542 
L 358.660667 137.599673 
L 362.415551 131.176935 
L 366.00871 124.662342 
L 369.437899 118.059965 
L 372.700973 111.37393 
L 375.795895 104.608416 
L 377.734359 100.128 
L 380.717887 106.94337 
L 383.87085 113.682031 
L 384.96 115.912193 
L 381.750949 122.624324 
L 378.710686 129.414576 
L 375.841112 136.278705 
L 373.14402 143.21242 
L 370.621095 150.21139 
L 368.273915 157.271238 
L 366.103947 164.387554 
L 364.112545 171.55589 
L 362.300956 178.771766 
L 360.670311 186.030671 
L 359.221629 193.328071 
L 357.955816 200.659403 
L 356.873663 208.020087 
L 355.975845 215.405521 
L 355.262925 222.811091 
L 354.735348 230.232167 
L 354.393443 237.664113 
L 354.237424 245.102283 
L 354.229602 248.928 
L 354.169213 241.488439 
L 353.922874 234.052712 
L 353.490738 226.625466 
L 352.873076 219.211344 
L 352.070272 211.814979 
L 351.08283 204.440992 
L 349.911366 197.093994 
L 348.556611 189.778574 
L 347.019414 182.499306 
L 345.300735 175.260739 
L 343.401647 168.067396 
L 341.323338 160.923773 
L 339.067106 153.834335 
L 336.634361 146.803512 
L 334.026625 139.835698 
L 331.245526 132.935248 
L 328.292804 126.106475 
L 325.170302 119.353646 
L 321.879973 112.680982 
L 318.423872 106.092652 
L 315.110313 100.128 
L 311.504077 106.635363 
L 308.061634 113.230839 
L 304.785137 119.910307 
L 301.676634 126.669591 
L 298.738066 133.504467 
L 295.97127 140.410665 
L 293.377976 147.383866 
L 290.959804 154.419715 
L 288.718266 161.513812 
L 286.654762 168.661726 
L 284.770582 175.858988 
L 283.066904 183.101101 
L 281.544792 190.383538 
L 280.205198 197.701749 
L 279.048958 205.051159 
L 278.076796 212.427175 
L 277.289319 219.825188 
L 276.687019 227.240574 
L 276.270272 234.668699 
L 276.03934 242.10492 
L 275.991025 248.928 
L 275.957593 242.976193 
L 275.748435 235.539327 
L 275.353441 228.110014 
L 274.772856 220.692896 
L 274.007045 213.292609 
L 273.056484 205.913778 
L 271.92177 198.561014 
L 270.603609 191.238912 
L 269.102828 183.952049 
L 267.420362 176.704979 
L 265.557265 169.502231 
L 263.514699 162.348306 
L 261.293943 155.247675 
L 258.896383 148.204776 
L 256.323518 141.224011 
L 253.576956 134.309742 
L 250.658414 127.46629 
L 247.569715 120.697933 
L 244.31279 114.008901 
L 240.889675 107.403373 
L 236.871736 100.128 
L 236.16 101.382328 
L 239.896644 107.815695 
L 243.792938 114.153645 
L 247.846447 120.392218 
L 252.054637 126.527513 
L 256.414878 132.555698 
L 260.924446 138.473005 
L 265.580522 144.275734 
L 270.380196 149.960261 
L 275.320469 155.523032 
L 280.398253 160.960571 
L 285.610374 166.26948 
L 288.831942 169.421739 
L 281.764714 171.746605 
L 274.75781 174.247407 
L 267.815608 176.922581 
L 260.942449 179.770457 
L 254.142627 182.789254 
L 247.420391 185.977085 
L 240.779944 189.331959 
L 236.16 191.790882 
L 233.023855 196.84916 
L 230.092497 202.028804 
L 227.370613 207.321529 
L 224.862559 212.718866 
L 222.572348 218.212181 
L 220.503642 223.792686 
L 218.659752 229.451453 
L 217.043626 235.17943 
L 215.657852 240.967453 
L 214.504645 246.806263 
L 214.145312 248.928 
L 214.145312 248.928 
" style="fill:none;stroke:#1f77b4;stroke-linecap:square;stroke-width:1.5;"/>
   </g>
   <g id="patch_5">
    <path d="M 57.6 263.808 
L 57.6 85.248 
" style="fill:none;stroke:#000000;stroke-linecap:square;stroke-linejoin:miter;stroke-width:0.8;"/>
   </g>
   <g id="patch_6">
    <path d="M 414.72 263.808 
L 414.72 85.248 
" style="fill:none;stroke:#000000;stroke-linecap:square;stroke-linejoin:miter;stroke-width:0.8;"/>
   </g>
   <g id="patch_7">
    <path d="M 57.6 263.808 
L 414.72 263.808 
" style="fill:none;stroke:#000000;stroke-linecap:square;stroke-linejoin:miter;stroke-width:0.8;"/>
   </g>
   <g id="patch_8">
    <path d="M 57.6 85.248 
L 414.72 85.248 
" style="fill:none;stroke:#000000;stroke-linecap:square;stroke-linejoin:miter;stroke-width:0.8;"/>
   </g>
  </g>
 </g>
 <defs>
  <clipPath id="pcc759421f5">
   <rect height="178.56" width="357.12" x="57.6" y="85.248"/>
  </clipPath>
 </defs>
</svg>
