<?xml version="1.0" encoding="utf-8" standalone="no"?>
<!DOCTYPE svg PUBLIC "-//W3C//DTD SVG 1.1//EN"
  "http://www.w3.org/Graphics/SVG/1.1/DTD/svg11.dtd">
<!-- Created with matplotlib (http://matplotlib.org/) -->
<svg height="345.6pt" version="1.1" viewBox="0 0 460.8 345.6" width="460.8pt" xmlns="http://www.w3.org/2000/svg" xmlns:xlink="http://www.w3.org/1999/xlink">
 <defs>
  <style type="text/css">
*{stroke-linecap:butt;stroke-linejoin:round;}
  </style>
 </defs>
 <g id="figure_1">
  <g id="patch_1">
   <path d="M 0 345.6 
L 460.8 345.6 
L 460.8 0 
L 0 0 
z
" style="fill:#ffffff;"/>
  </g>
  <g id="axes_1">
   <g id="patch_2">
    <path d="M 57.6 263.808 
L 414.72 263.808 
L 414.72 85.248 
L 57.6 85.248 
z
" style="fill:#ffffff;"/>
   </g>
   <g id="patch_3">
    <path clip-path="url(#p1de43e29d5)" d="M 161.76 211.728 
C 171.625555 211.728 181.088371 207.808373 188.064372 200.832372 
C 195.040373 193.856371 198.96 184.393555 198.96 174.528 
C 198.96 164.662445 195.040373 155.199629 188.064372 148.223628 
C 181.088371 141.247627 171.625555 137.328 161.76 137.328 
C 151.894445 137.328 142.431629 141.247627 135.455628 148.223628 
C 128.479627 155.199629 124.56 164.662445 124.56 174.528 
C 124.56 184.393555 128.479627 193.856371 135.455628 200.832372 
C 142.431629 207.808373 151.894445 211.728 161.76 211.728 
z
" style="fill:#cc0000;fill-opacity:0.1;stroke:#cc0000;stroke-dasharray:7.4,3.2;stroke-dashoffset:0;stroke-linejoin:miter;stroke-width:2;"/>
   </g>
   <g id="patch_4">
    <path clip-path="url(#p1de43e29d5)" d="M 310.56 196.848 
C 316.479333 196.848 322.157023 194.496224 326.342623 190.310623 
C 330.528224 186.125023 332.88 180.447333 332.88 174.528 
C 332.88 168.608667 330.528224 162.930977 326.342623 158.745377 
C 322.157023 154.559776 316.479333 152.208 310.56 152.208 
C 304.640667 152.208 298.962977 154.559776 294.777377 158.745377 
C 290.591776 162.930977 288.24 168.608667 288.24 174.528 
C 288.24 180.447333 290.591776 186.125023 294.777377 190.310623 
C 298.962977 194.496224 304.640667 196.848 310.56 196.848 
z
" style="fill:#cc0000;fill-opacity:0.1;stroke:#cc0000;stroke-dasharray:7.4,3.2;stroke-dashoffset:0;stroke-linejoin:miter;stroke-width:2;"/>
   </g>
   <g id="matplotlib.axis_1">
    <g id="xtick_1">
     <g id="line2d_1">
      <defs>
       <path d="M 0 0 
L 0 3.5 
" id="me11f3e2113" style="stroke:#000000;stroke-width:0.8;"/>
      </defs>
      <g>
       <use style="stroke:#000000;stroke-width:0.8;" x="87.36" xlink:href="#me11f3e2113" y="263.808"/>
      </g>
     </g>
     <g id="text_1">
      <!-- 0.0 -->
      <defs>
       <path d="M 31.78125 66.40625 
Q 24.171875 66.40625 20.328125 58.90625 
Q 16.5 51.421875 16.5 36.375 
Q 16.5 21.390625 20.328125 13.890625 
Q 24.171875 6.390625 31.78125 6.390625 
Q 39.453125 6.390625 43.28125 13.890625 
Q 47.125 21.390625 47.125 36.375 
Q 47.125 51.421875 43.28125 58.90625 
Q 39.453125 66.40625 31.78125 66.40625 
z
M 31.78125 74.21875 
Q 44.046875 74.21875 50.515625 64.515625 
Q 56.984375 54.828125 56.984375 36.375 
Q 56.984375 17.96875 50.515625 8.265625 
Q 44.046875 -1.421875 31.78125 -1.421875 
Q 19.53125 -1.421875 13.0625 8.265625 
Q 6.59375 17.96875 6.59375 36.375 
Q 6.59375 54.828125 13.0625 64.515625 
Q 19.53125 74.21875 31.78125 74.21875 
z
" id="DejaVuSans-30"/>
       <path d="M 10.6875 12.40625 
L 21 12.40625 
L 21 0 
L 10.6875 0 
z
" id="DejaVuSans-2e"/>
      </defs>
      <g transform="translate(79.408438 278.406437)scale(0.1 -0.1)">
       <use xlink:href="#DejaVuSans-30"/>
       <use x="63.623047" xlink:href="#DejaVuSans-2e"/>
       <use x="95.410156" xlink:href="#DejaVuSans-30"/>
      </g>
     </g>
    </g>
    <g id="xtick_2">
     <g id="line2d_2">
      <g>
       <use style="stroke:#000000;stroke-width:0.8;" x="161.76" xlink:href="#me11f3e2113" y="263.808"/>
      </g>
     </g>
     <g id="text_2">
      <!-- 0.5 -->
      <defs>
       <path d="M 10.796875 72.90625 
L 49.515625 72.90625 
L 49.515625 64.59375 
L 19.828125 64.59375 
L 19.828125 46.734375 
Q 21.96875 47.46875 24.109375 47.828125 
Q 26.265625 48.1875 28.421875 48.1875 
Q 40.625 48.1875 47.75 41.5 
Q 54.890625 34.8125 54.890625 23.390625 
Q 54.890625 11.625 47.5625 5.09375 
Q 40.234375 -1.421875 26.90625 -1.421875 
Q 22.3125 -1.421875 17.546875 -0.640625 
Q 12.796875 0.140625 7.71875 1.703125 
L 7.71875 11.625 
Q 12.109375 9.234375 16.796875 8.0625 
Q 21.484375 6.890625 26.703125 6.890625 
Q 35.15625 6.890625 40.078125 11.328125 
Q 45.015625 15.765625 45.015625 23.390625 
Q 45.015625 31 40.078125 35.4375 
Q 35.15625 39.890625 26.703125 39.890625 
Q 22.75 39.890625 18.8125 39.015625 
Q 14.890625 38.140625 10.796875 36.28125 
z
" id="DejaVuSans-35"/>
      </defs>
      <g transform="translate(153.808437 278.406437)scale(0.1 -0.1)">
       <use xlink:href="#DejaVuSans-30"/>
       <use x="63.623047" xlink:href="#DejaVuSans-2e"/>
       <use x="95.410156" xlink:href="#DejaVuSans-35"/>
      </g>
     </g>
    </g>
    <g id="xtick_3">
     <g id="line2d_3">
      <g>
       <use style="stroke:#000000;stroke-width:0.8;" x="236.16" xlink:href="#me11f3e2113" y="263.808"/>
      </g>
     </g>
     <g id="text_3">
      <!-- 1.0 -->
      <defs>
       <path d="M 12.40625 8.296875 
L 28.515625 8.296875 
L 28.515625 63.921875 
L 10.984375 60.40625 
L 10.984375 69.390625 
L 28.421875 72.90625 
L 38.28125 72.90625 
L 38.28125 8.296875 
L 54.390625 8.296875 
L 54.390625 0 
L 12.40625 0 
z
" id="DejaVuSans-31"/>
      </defs>
      <g transform="translate(228.208437 278.406437)scale(0.1 -0.1)">
       <use xlink:href="#DejaVuSans-31"/>
       <use x="63.623047" xlink:href="#DejaVuSans-2e"/>
       <use x="95.410156" xlink:href="#DejaVuSans-30"/>
      </g>
     </g>
    </g>
    <g id="xtick_4">
     <g id="line2d_4">
      <g>
       <use style="stroke:#000000;stroke-width:0.8;" x="310.56" xlink:href="#me11f3e2113" y="263.808"/>
      </g>
     </g>
     <g id="text_4">
      <!-- 1.5 -->
      <g transform="translate(302.608437 278.406437)scale(0.1 -0.1)">
       <use xlink:href="#DejaVuSans-31"/>
       <use x="63.623047" xlink:href="#DejaVuSans-2e"/>
       <use x="95.410156" xlink:href="#DejaVuSans-35"/>
      </g>
     </g>
    </g>
    <g id="xtick_5">
     <g id="line2d_5">
      <g>
       <use style="stroke:#000000;stroke-width:0.8;" x="384.96" xlink:href="#me11f3e2113" y="263.808"/>
      </g>
     </g>
     <g id="text_5">
      <!-- 2.0 -->
      <defs>
       <path d="M 19.1875 8.296875 
L 53.609375 8.296875 
L 53.609375 0 
L 7.328125 0 
L 7.328125 8.296875 
Q 12.9375 14.109375 22.625 23.890625 
Q 32.328125 33.6875 34.8125 36.53125 
Q 39.546875 41.84375 41.421875 45.53125 
Q 43.3125 49.21875 43.3125 52.78125 
Q 43.3125 58.59375 39.234375 62.25 
Q 35.15625 65.921875 28.609375 65.921875 
Q 23.96875 65.921875 18.8125 64.3125 
Q 13.671875 62.703125 7.8125 59.421875 
L 7.8125 69.390625 
Q 13.765625 71.78125 18.9375 73 
Q 24.125 74.21875 28.421875 74.21875 
Q 39.75 74.21875 46.484375 68.546875 
Q 53.21875 62.890625 53.21875 53.421875 
Q 53.21875 48.921875 51.53125 44.890625 
Q 49.859375 40.875 45.40625 35.40625 
Q 44.1875 33.984375 37.640625 27.21875 
Q 31.109375 20.453125 19.1875 8.296875 
z
" id="DejaVuSans-32"/>
      </defs>
      <g transform="translate(377.008437 278.406437)scale(0.1 -0.1)">
       <use xlink:href="#DejaVuSans-32"/>
       <use x="63.623047" xlink:href="#DejaVuSans-2e"/>
       <use x="95.410156" xlink:href="#DejaVuSans-30"/>
      </g>
     </g>
    </g>
   </g>
   <g id="matplotlib.axis_2">
    <g id="ytick_1">
     <g id="line2d_6">
      <defs>
       <path d="M 0 0 
L -3.5 0 
" id="m282e7aee4b" style="stroke:#000000;stroke-width:0.8;"/>
      </defs>
      <g>
       <use style="stroke:#000000;stroke-width:0.8;" x="57.6" xlink:href="#m282e7aee4b" y="248.928"/>
      </g>
     </g>
     <g id="text_6">
      <!-- 0.0 -->
      <g transform="translate(34.696875 252.727219)scale(0.1 -0.1)">
       <use xlink:href="#DejaVuSans-30"/>
       <use x="63.623047" xlink:href="#DejaVuSans-2e"/>
       <use x="95.410156" xlink:href="#DejaVuSans-30"/>
      </g>
     </g>
    </g>
    <g id="ytick_2">
     <g id="line2d_7">
      <g>
       <use style="stroke:#000000;stroke-width:0.8;" x="57.6" xlink:href="#m282e7aee4b" y="219.168"/>
      </g>
     </g>
     <g id="text_7">
      <!-- 0.2 -->
      <g transform="translate(34.696875 222.967219)scale(0.1 -0.1)">
       <use xlink:href="#DejaVuSans-30"/>
       <use x="63.623047" xlink:href="#DejaVuSans-2e"/>
       <use x="95.410156" xlink:href="#DejaVuSans-32"/>
      </g>
     </g>
    </g>
    <g id="ytick_3">
     <g id="line2d_8">
      <g>
       <use style="stroke:#000000;stroke-width:0.8;" x="57.6" xlink:href="#m282e7aee4b" y="189.408"/>
      </g>
     </g>
     <g id="text_8">
      <!-- 0.4 -->
      <defs>
       <path d="M 37.796875 64.3125 
L 12.890625 25.390625 
L 37.796875 25.390625 
z
M 35.203125 72.90625 
L 47.609375 72.90625 
L 47.609375 25.390625 
L 58.015625 25.390625 
L 58.015625 17.1875 
L 47.609375 17.1875 
L 47.609375 0 
L 37.796875 0 
L 37.796875 17.1875 
L 4.890625 17.1875 
L 4.890625 26.703125 
z
" id="DejaVuSans-34"/>
      </defs>
      <g transform="translate(34.696875 193.207219)scale(0.1 -0.1)">
       <use xlink:href="#DejaVuSans-30"/>
       <use x="63.623047" xlink:href="#DejaVuSans-2e"/>
       <use x="95.410156" xlink:href="#DejaVuSans-34"/>
      </g>
     </g>
    </g>
    <g id="ytick_4">
     <g id="line2d_9">
      <g>
       <use style="stroke:#000000;stroke-width:0.8;" x="57.6" xlink:href="#m282e7aee4b" y="159.648"/>
      </g>
     </g>
     <g id="text_9">
      <!-- 0.6 -->
      <defs>
       <path d="M 33.015625 40.375 
Q 26.375 40.375 22.484375 35.828125 
Q 18.609375 31.296875 18.609375 23.390625 
Q 18.609375 15.53125 22.484375 10.953125 
Q 26.375 6.390625 33.015625 6.390625 
Q 39.65625 6.390625 43.53125 10.953125 
Q 47.40625 15.53125 47.40625 23.390625 
Q 47.40625 31.296875 43.53125 35.828125 
Q 39.65625 40.375 33.015625 40.375 
z
M 52.59375 71.296875 
L 52.59375 62.3125 
Q 48.875 64.0625 45.09375 64.984375 
Q 41.3125 65.921875 37.59375 65.921875 
Q 27.828125 65.921875 22.671875 59.328125 
Q 17.53125 52.734375 16.796875 39.40625 
Q 19.671875 43.65625 24.015625 45.921875 
Q 28.375 48.1875 33.59375 48.1875 
Q 44.578125 48.1875 50.953125 41.515625 
Q 57.328125 34.859375 57.328125 23.390625 
Q 57.328125 12.15625 50.6875 5.359375 
Q 44.046875 -1.421875 33.015625 -1.421875 
Q 20.359375 -1.421875 13.671875 8.265625 
Q 6.984375 17.96875 6.984375 36.375 
Q 6.984375 53.65625 15.1875 63.9375 
Q 23.390625 74.21875 37.203125 74.21875 
Q 40.921875 74.21875 44.703125 73.484375 
Q 48.484375 72.75 52.59375 71.296875 
z
" id="DejaVuSans-36"/>
      </defs>
      <g transform="translate(34.696875 163.447219)scale(0.1 -0.1)">
       <use xlink:href="#DejaVuSans-30"/>
       <use x="63.623047" xlink:href="#DejaVuSans-2e"/>
       <use x="95.410156" xlink:href="#DejaVuSans-36"/>
      </g>
     </g>
    </g>
    <g id="ytick_5">
     <g id="line2d_10">
      <g>
       <use style="stroke:#000000;stroke-width:0.8;" x="57.6" xlink:href="#m282e7aee4b" y="129.888"/>
      </g>
     </g>
     <g id="text_10">
      <!-- 0.8 -->
      <defs>
       <path d="M 31.78125 34.625 
Q 24.75 34.625 20.71875 30.859375 
Q 16.703125 27.09375 16.703125 20.515625 
Q 16.703125 13.921875 20.71875 10.15625 
Q 24.75 6.390625 31.78125 6.390625 
Q 38.8125 6.390625 42.859375 10.171875 
Q 46.921875 13.96875 46.921875 20.515625 
Q 46.921875 27.09375 42.890625 30.859375 
Q 38.875 34.625 31.78125 34.625 
z
M 21.921875 38.8125 
Q 15.578125 40.375 12.03125 44.71875 
Q 8.5 49.078125 8.5 55.328125 
Q 8.5 64.0625 14.71875 69.140625 
Q 20.953125 74.21875 31.78125 74.21875 
Q 42.671875 74.21875 48.875 69.140625 
Q 55.078125 64.0625 55.078125 55.328125 
Q 55.078125 49.078125 51.53125 44.71875 
Q 48 40.375 41.703125 38.8125 
Q 48.828125 37.15625 52.796875 32.3125 
Q 56.78125 27.484375 56.78125 20.515625 
Q 56.78125 9.90625 50.3125 4.234375 
Q 43.84375 -1.421875 31.78125 -1.421875 
Q 19.734375 -1.421875 13.25 4.234375 
Q 6.78125 9.90625 6.78125 20.515625 
Q 6.78125 27.484375 10.78125 32.3125 
Q 14.796875 37.15625 21.921875 38.8125 
z
M 18.3125 54.390625 
Q 18.3125 48.734375 21.84375 45.5625 
Q 25.390625 42.390625 31.78125 42.390625 
Q 38.140625 42.390625 41.71875 45.5625 
Q 45.3125 48.734375 45.3125 54.390625 
Q 45.3125 60.0625 41.71875 63.234375 
Q 38.140625 66.40625 31.78125 66.40625 
Q 25.390625 66.40625 21.84375 63.234375 
Q 18.3125 60.0625 18.3125 54.390625 
z
" id="DejaVuSans-38"/>
      </defs>
      <g transform="translate(34.696875 133.687219)scale(0.1 -0.1)">
       <use xlink:href="#DejaVuSans-30"/>
       <use x="63.623047" xlink:href="#DejaVuSans-2e"/>
       <use x="95.410156" xlink:href="#DejaVuSans-38"/>
      </g>
     </g>
    </g>
    <g id="ytick_6">
     <g id="line2d_11">
      <g>
       <use style="stroke:#000000;stroke-width:0.8;" x="57.6" xlink:href="#m282e7aee4b" y="100.128"/>
      </g>
     </g>
     <g id="text_11">
      <!-- 1.0 -->
      <g transform="translate(34.696875 103.927219)scale(0.1 -0.1)">
       <use xlink:href="#DejaVuSans-31"/>
       <use x="63.623047" xlink:href="#DejaVuSans-2e"/>
       <use x="95.410156" xlink:href="#DejaVuSans-30"/>
      </g>
     </g>
    </g>
   </g>
   <g id="line2d_12">
    <path clip-path="url(#p1de43e29d5)" d="M 236.16 248.928 
L 236.16 100.128 
" style="fill:none;stroke:#cc0000;stroke-dasharray:7.4,3.2;stroke-dashoffset:0;stroke-width:2;"/>
   </g>
   <g id="line2d_13">
    <path clip-path="url(#p1de43e29d5)" d="M 87.36 248.928 
L 384.96 248.928 
" style="fill:none;stroke:#009900;stroke-linecap:square;stroke-width:2;"/>
   </g>
   <g id="line2d_14">
    <path clip-path="url(#p1de43e29d5)" d="M 384.96 248.928 
L 384.96 100.128 
" style="fill:none;stroke:#009900;stroke-linecap:square;stroke-width:2;"/>
   </g>
   <g id="line2d_15">
    <path clip-path="url(#p1de43e29d5)" d="M 384.96 100.128 
L 87.36 100.128 
" style="fill:none;stroke:#009900;stroke-linecap:square;stroke-width:2;"/>
   </g>
   <g id="line2d_16">
    <path clip-path="url(#p1de43e29d5)" d="M 87.36 100.128 
L 87.36 248.928 
" style="fill:none;stroke:#009900;stroke-linecap:square;stroke-width:2;"/>
   </g>
   <g id="line2d_17">
    <path clip-path="url(#p1de43e29d5)" d="M 105.184454 194.602453 
L 107.832827 199.932341 
L 110.69222 205.152058 
L 113.758059 210.253255 
L 117.02544 215.227771 
L 120.489134 220.067647 
L 124.143601 224.765141 
L 127.982994 229.312738 
L 132.001172 233.703163 
L 136.191706 237.929391 
L 140.547892 241.984662 
L 145.062761 245.862489 
L 148.907445 248.928 
L 153.547978 245.201468 
L 158.035776 241.292345 
L 162.363662 237.206884 
L 166.524711 232.951623 
L 170.512266 228.533367 
L 174.319949 223.959186 
L 177.941668 219.236397 
L 181.371628 214.372556 
L 184.604343 209.375443 
L 187.634641 204.253054 
L 190.457675 199.013582 
L 191.599162 196.742059 
L 195.88006 192.607389 
L 199.992191 188.304836 
L 203.928976 183.841284 
L 207.684118 179.223872 
L 211.251609 174.459989 
L 214.625742 169.557254 
L 217.801119 164.523511 
L 220.77266 159.366814 
L 223.535611 154.095412 
L 226.085552 148.717738 
L 228.418404 143.242394 
L 230.530435 137.678142 
L 232.418265 132.033881 
L 234.078875 126.318642 
L 235.509608 120.541568 
L 236.16 117.525724 
L 234.849348 111.720229 
L 233.307587 105.97179 
L 231.483161 100.128 
L 229.706251 105.808156 
L 228.157908 111.554826 
L 226.840609 117.358816 
L 225.756461 123.210842 
L 224.9072 129.101541 
L 224.294183 135.02149 
L 223.918391 140.961217 
L 223.780425 146.911221 
L 223.880506 152.861983 
L 224.218475 158.803982 
L 224.793789 164.727713 
L 225.605529 170.6237 
L 226.652397 176.48251 
L 227.932717 182.294769 
L 229.444442 188.05118 
L 231.185152 193.742534 
L 233.152064 199.359726 
L 235.342029 204.893768 
L 236.16 206.808074 
L 233.892828 212.310938 
L 231.847526 217.900063 
L 230.027364 223.566507 
L 228.435257 229.301207 
L 227.073749 235.094986 
L 225.94502 240.938576 
L 225.050875 246.82263 
L 224.789151 248.928 
L 223.978989 243.031796 
L 222.93369 237.172707 
L 221.654926 231.360105 
L 220.144743 225.603289 
L 218.405556 219.911469 
L 216.440149 214.293751 
L 214.251665 208.759122 
L 211.843605 203.316437 
L 209.219822 197.974401 
L 206.384513 192.741562 
L 203.342215 187.626291 
L 200.097794 182.63677 
L 198.503759 180.336286 
L 203.198604 176.678417 
L 207.743419 172.83573 
L 212.130931 168.814373 
L 216.354123 164.620779 
L 220.406237 160.261656 
L 224.280792 155.743979 
L 227.971589 151.074975 
L 231.472723 146.262113 
L 234.778593 141.313092 
L 236.16 139.110587 
L 232.941101 134.104564 
L 229.52459 129.231266 
L 225.915932 124.49849 
L 222.120899 119.913808 
L 218.145564 115.484554 
L 213.996285 111.217814 
L 209.679702 107.120414 
L 205.202719 103.198909 
L 201.428439 100.128 
L 196.825634 103.901031 
L 192.377391 107.855107 
L 188.090827 111.983902 
L 183.9728 116.280812 
L 180.029897 120.738962 
L 176.268427 125.351219 
L 172.694406 130.110206 
L 169.313553 135.00831 
L 167.526476 137.777656 
L 165.93491 132.042807 
L 164.115284 126.376191 
L 162.070509 120.786873 
L 159.803857 115.283794 
L 157.318954 109.87576 
L 154.619774 104.571421 
L 152.147124 100.128 
L 149.268277 105.337013 
L 146.600038 110.656983 
L 144.146675 116.079399 
L 141.912113 121.595586 
L 139.899928 127.196719 
L 138.113337 132.873837 
L 136.5552 138.617859 
L 135.228009 144.419596 
L 134.270025 149.465254 
L 128.554631 151.125331 
L 122.910194 153.012635 
L 117.345745 155.124147 
L 111.870184 157.456488 
L 106.492272 160.005928 
L 101.220613 162.768388 
L 96.063638 165.739448 
L 91.0296 168.914356 
L 87.36 171.411931 
L 92.297097 174.735582 
L 97.363156 177.859142 
L 102.550071 180.777616 
L 107.849546 183.486334 
L 113.253101 185.980962 
L 118.752092 188.257511 
L 124.337723 190.312338 
L 128.7996 191.774798 
L 133.254747 191.504651 
L 137.718077 191.502139 
L 142.173526 191.76727 
L 146.605059 192.299091 
L 150.996727 193.095688 
L 155.332726 194.154193 
L 159.59745 195.470797 
L 163.775551 197.040762 
L 167.851993 198.858438 
L 171.812104 200.917283 
L 175.641632 203.209886 
L 179.326795 205.727999 
L 180.546708 206.635625 
L 180.06611 202.198245 
L 179.852459 197.740031 
L 179.906525 193.277028 
L 180.228113 188.825298 
L 180.816066 184.400862 
L 181.668268 180.019645 
L 182.781652 175.697412 
L 184.152211 171.44972 
L 185.775012 167.291856 
L 187.644215 163.238783 
L 189.753093 159.305089 
L 192.094057 155.50493 
L 192.942958 154.243446 
L 188.533281 154.933421 
L 184.090165 155.357732 
L 179.629601 155.514853 
L 175.167642 155.404217 
L 170.720346 155.026224 
L 166.303719 154.382233 
L 161.933656 153.474563 
L 157.625884 152.306479 
L 153.395907 150.882186 
L 149.258947 149.206809 
L 145.229895 147.286379 
L 141.323249 145.127806 
L 140.02302 144.339531 
L 140.920825 148.711631 
L 141.554847 153.1297 
L 141.922802 157.577838 
L 142.023367 162.040035 
L 141.85618 166.500233 
L 141.421843 170.94238 
L 140.721918 175.350489 
L 139.758925 179.708695 
L 138.536329 184.001314 
L 137.05853 188.212897 
L 135.330848 192.328287 
L 133.359499 196.332672 
L 132.633614 197.668736 
L 136.958348 196.565109 
L 141.341478 195.722797 
L 145.76723 195.144831 
L 150.219674 194.83329 
L 154.682788 194.789297 
L 159.140508 195.013008 
L 163.576792 195.50362 
L 167.975675 196.259367 
L 172.321324 197.277528 
L 176.5981 198.55444 
L 180.790612 200.085506 
L 184.88377 201.865217 
L 186.252677 202.527086 
L 184.945701 198.259401 
L 183.896984 193.921024 
L 183.110301 189.527569 
L 182.588482 185.094847 
L 182.333407 180.638811 
L 182.345992 176.175499 
L 182.626192 171.720972 
L 183.173 167.291263 
L 183.984447 162.902315 
L 185.057612 158.569921 
L 186.388634 154.309675 
L 187.972723 150.136908 
L 188.569093 148.738224 
L 184.368013 150.245623 
L 180.084104 151.498396 
L 175.732783 152.492035 
L 171.329708 153.222963 
L 166.890728 153.688549 
L 162.431817 153.887119 
L 157.969022 153.817957 
L 153.518405 153.481313 
L 149.095984 152.878398 
L 144.717674 152.011381 
L 140.399232 150.883384 
L 136.1562 149.498465 
L 134.73087 148.968928 
L 128.785449 149.240133 
L 122.855629 149.748874 
L 116.950897 150.494338 
L 111.080698 151.475331 
L 105.254425 152.690286 
L 99.481396 154.137257 
L 93.770849 155.813931 
L 88.131919 157.717624 
L 87.36 157.997948 
L 92.988338 159.932734 
L 98.689544 161.640899 
L 104.454498 163.119711 
L 110.273978 164.366802 
L 116.138673 165.380179 
L 122.039201 166.15822 
L 126.905331 166.739137 
L 131.277133 167.638393 
L 135.587146 168.798182 
L 139.819857 170.21433 
L 143.960034 171.88174 
L 147.992776 173.79441 
L 151.90357 175.945459 
L 155.678341 178.327144 
L 159.303504 180.930893 
L 162.766013 183.747336 
L 166.053405 186.766337 
L 169.153851 189.977031 
L 172.056192 193.367862 
L 174.749982 196.926628 
L 177.225527 200.64052 
L 179.473917 204.496173 
L 180.581995 206.614952 
L 178.191448 202.845787 
L 176.031218 198.940058 
L 174.109077 194.911821 
L 172.431945 190.775573 
L 171.005857 186.5462 
L 169.835945 182.238925 
L 168.926419 177.869247 
L 168.280554 173.452894 
L 167.900673 169.005759 
L 167.788144 164.543847 
L 167.943371 160.083217 
L 168.365797 155.639921 
L 169.053899 151.229952 
L 170.005204 146.869179 
L 171.216285 142.573297 
L 172.476288 138.904957 
L 171.339631 143.221128 
L 169.946205 147.461373 
L 168.301024 151.610433 
L 166.410009 155.653375 
L 164.279966 159.57565 
L 161.91856 163.36314 
L 159.334291 167.002215 
L 156.536458 170.479779 
L 153.535132 173.783316 
L 150.341112 176.900937 
L 146.965896 179.821422 
L 143.421629 182.53426 
L 139.721067 185.029688 
L 135.877528 187.298724 
L 131.904845 189.333204 
L 128.35887 190.904951 
L 122.760875 192.92585 
L 117.248172 195.168993 
L 111.829581 197.63079 
L 106.51377 200.307305 
L 101.309242 203.194254 
L 96.224325 206.28702 
L 91.267153 209.580654 
L 87.36 212.385407 
L 92.208137 215.837529 
L 97.190444 219.093016 
L 102.298951 222.14666 
L 107.525485 224.993576 
L 112.861684 227.629208 
L 118.299012 230.049342 
L 123.82877 232.250104 
L 129.442112 234.227975 
L 135.130058 235.979789 
L 140.883507 237.502746 
L 146.693257 238.794407 
L 152.550012 239.852707 
L 158.444403 240.675953 
L 164.367001 241.262828 
L 170.308329 241.612393 
L 176.258884 241.724088 
L 182.209146 241.597735 
L 188.149596 241.233536 
L 194.070729 240.632074 
L 199.963075 239.794311 
L 205.817205 238.721587 
L 211.623755 237.415618 
L 217.373436 235.878494 
L 223.057049 234.112673 
L 228.665502 232.120981 
L 234.189822 229.906604 
L 236.16 229.053942 
L 230.668201 226.760097 
L 225.089066 224.6877 
L 219.431519 222.840066 
L 213.704613 221.220152 
L 207.917508 219.830549 
L 202.079463 218.67348 
L 196.199817 217.750796 
L 190.287977 217.063973 
L 184.3534 216.61411 
L 178.40558 216.401927 
L 172.454033 216.427762 
L 166.508279 216.691576 
L 160.577832 217.192945 
L 154.672177 217.931068 
L 148.800764 218.904763 
L 142.972984 220.112474 
L 137.198161 221.552268 
L 131.485535 223.221841 
L 125.844242 225.118523 
L 120.28331 227.239279 
L 114.811633 229.580717 
L 109.437965 232.139091 
L 104.170903 234.910307 
L 99.018874 237.889934 
L 93.990119 241.073203 
L 89.092683 244.455022 
L 87.36 245.722477 
L 91.847866 248.928 
L 96.685853 245.461668 
L 101.381355 241.804641 
L 105.926858 237.962769 
L 110.315092 233.942199 
L 114.539036 229.749362 
L 118.591932 225.390966 
L 122.467297 220.873984 
L 126.15893 216.205642 
L 129.660928 211.393408 
L 132.967685 206.44498 
L 136.956247 200.233131 
L 139.818862 196.808696 
L 142.881668 193.562077 
L 146.133643 190.504958 
L 149.563083 187.648341 
L 153.157646 185.002508 
L 156.904396 182.576981 
L 160.789848 180.380488 
L 164.800019 178.420935 
L 168.920477 176.705374 
L 173.136391 175.239979 
L 177.432591 174.030024 
L 181.793613 173.079864 
L 186.203763 172.392918 
L 190.647169 171.971659 
L 195.10784 171.817602 
L 198.866744 171.895597 
L 204.757722 172.742924 
L 210.677871 173.353997 
L 216.617722 173.727839 
L 222.567771 173.86385 
L 228.518499 173.761815 
L 234.460387 173.421895 
L 236.16 173.280715 
L 230.222398 172.872716 
L 224.27323 172.702485 
L 218.322013 172.770292 
L 212.378268 173.076031 
L 206.451504 173.619211 
L 200.551201 174.398965 
L 198.959798 174.650574 
L 194.501927 174.871254 
L 190.038844 174.824226 
L 185.586612 174.509657 
L 181.161255 173.928681 
L 176.778699 173.083388 
L 172.454716 171.976821 
L 168.204868 170.612962 
L 164.044451 168.996719 
L 159.988436 167.133909 
L 156.051421 165.031236 
L 152.247575 162.696268 
L 148.590589 160.137407 
L 145.093622 157.363863 
L 141.769261 154.385619 
L 138.629469 151.213391 
L 135.748157 147.934316 
L 139.033029 150.95606 
L 142.130793 154.169341 
L 145.030301 157.562595 
L 147.721119 161.123608 
L 150.193563 164.839566 
L 152.438733 168.697095 
L 154.448551 172.682311 
L 156.215782 176.780873 
L 157.734068 180.978031 
L 158.997942 185.258678 
L 160.002858 189.607409 
L 160.745198 194.008573 
L 161.222291 198.446332 
L 161.43242 202.904713 
L 161.374828 207.367672 
L 161.05975 211.721409 
L 160.908325 207.260648 
L 161.024657 202.798834 
L 161.408328 198.352024 
L 162.057957 193.936223 
L 162.971206 189.567322 
L 164.144789 185.261045 
L 165.574481 181.032889 
L 167.255138 176.898073 
L 169.180711 172.871475 
L 171.34427 168.967588 
L 173.738028 165.200462 
L 176.353371 161.583654 
L 179.180885 158.130181 
L 182.210396 154.852471 
L 185.431 151.76232 
L 188.754426 148.932278 
L 193.621395 145.506758 
L 198.347488 141.889352 
L 202.925142 138.085845 
L 207.347035 134.102324 
L 211.606093 129.94516 
L 215.695502 125.621005 
L 219.608719 121.136776 
L 223.339485 116.499647 
L 226.881831 111.717036 
L 230.23009 106.796595 
L 233.378906 101.746195 
L 234.32964 100.128 
L 236.16 103.202967 
L 233.156706 108.341236 
L 230.361291 113.595494 
L 227.778225 118.957337 
L 225.411643 124.418185 
L 223.265329 129.969304 
L 221.342717 135.601812 
L 219.646884 141.306698 
L 218.180542 147.074837 
L 216.946036 152.896999 
L 215.945343 158.763872 
L 215.180062 164.666069 
L 214.651419 170.594147 
L 214.360258 176.538624 
L 214.307046 182.48999 
L 214.491867 188.438722 
L 214.914427 194.375306 
L 215.574048 200.290243 
L 216.469676 206.174071 
L 217.599878 212.017377 
L 218.962847 217.810813 
L 220.5564 223.54511 
L 222.37799 229.211096 
L 224.424701 234.799705 
L 226.69326 240.301997 
L 229.180038 245.70917 
L 230.787447 248.928 
L 233.404229 243.582532 
L 235.805156 238.136696 
L 236.16 237.278618 
L 233.793103 231.817906 
L 231.209729 226.456212 
L 228.414011 221.202115 
L 225.410421 216.064019 
L 222.203764 211.050145 
L 218.799172 206.168513 
L 215.202089 201.426933 
L 211.418271 196.832991 
L 207.453771 192.394037 
L 203.314931 188.11717 
L 199.008373 184.009234 
L 197.967351 183.06426 
L 203.671655 181.366468 
L 209.303503 179.441923 
L 214.853884 177.293704 
L 220.31392 174.925247 
L 225.674875 172.340341 
L 230.928174 169.543122 
L 236.16 166.480116 
L 231.025004 163.47123 
L 225.773792 160.670095 
L 220.414765 158.081194 
L 214.956497 155.708667 
L 209.407718 153.556311 
L 203.777307 151.627568 
L 198.07427 149.925524 
L 192.307731 148.452903 
L 187.151595 147.34148 
L 185.490653 141.626337 
L 183.602494 135.982187 
L 181.490139 130.418057 
L 179.156969 124.94285 
L 176.606715 119.565324 
L 173.843457 114.294082 
L 170.871616 109.137558 
L 167.695946 104.104001 
L 164.981604 100.128 
L 161.644766 105.056193 
L 158.507671 110.113882 
L 155.57534 115.292976 
L 152.852463 120.585189 
L 150.343395 125.982055 
L 148.052152 131.47494 
L 145.982398 137.055057 
L 144.486555 141.581557 
L 138.769824 139.926092 
L 132.991464 138.50056 
L 127.160721 137.307241 
L 121.286921 136.348044 
L 115.379462 135.624503 
L 109.447795 135.137777 
L 103.501408 134.888643 
L 97.549816 134.877501 
L 91.602538 135.104368 
L 87.36 135.412158 
L 93.298363 135.808927 
L 99.247842 135.967908 
L 105.19892 135.888845 
L 111.142077 135.571867 
L 117.067803 135.017479 
L 122.96662 134.226569 
L 128.829091 133.200401 
L 134.645836 131.940618 
L 140.407551 130.449235 
L 146.105018 128.728638 
L 151.729121 126.781579 
L 157.270865 124.611174 
L 162.721382 122.220894 
L 168.071955 119.614563 
L 173.314021 116.796352 
L 178.439197 113.770767 
L 183.439281 110.542651 
L 188.306276 107.117167 
L 193.032395 103.499795 
L 197.108928 100.128 
L 201.703472 103.911087 
L 206.445624 107.507415 
L 211.327797 110.911231 
L 216.342182 114.11709 
L 221.480755 117.119862 
L 226.735297 119.914744 
L 232.097402 122.497265 
L 236.16 124.282004 
L 230.723275 126.703492 
L 225.387733 129.340454 
L 220.161909 132.188672 
L 215.054163 135.243588 
L 210.072667 138.500317 
L 205.22539 141.953647 
L 200.520087 145.598054 
L 195.964285 149.427707 
L 189.730505 154.79982 
L 186.088598 157.380098 
L 182.298522 159.73735 
L 178.373915 161.863092 
L 174.328902 163.749673 
L 170.178041 165.390305 
L 165.93627 166.779082 
L 161.618856 167.911006 
L 157.241336 168.782004 
L 152.819465 169.388941 
L 148.369156 169.729633 
L 143.906426 169.802854 
L 139.447336 169.608339 
L 135.007934 169.14679 
L 130.604197 168.419867 
L 126.251974 167.430186 
L 125.29393 167.175062 
L 129.699524 167.890644 
L 134.054281 168.869115 
L 138.342529 170.106954 
L 142.548835 171.599707 
L 146.65806 173.342 
L 150.655416 175.327564 
L 154.526517 177.549252 
L 158.25743 179.99907 
L 161.834729 182.668199 
L 165.245539 185.547034 
L 168.477585 188.625215 
L 171.519235 191.891664 
L 174.359542 195.334624 
L 176.988285 198.941704 
L 179.396002 202.699924 
L 181.343357 206.156028 
L 178.851419 202.453114 
L 176.586007 198.607438 
L 174.555274 194.632838 
L 172.766528 190.54362 
L 171.226207 186.3545 
L 169.939854 182.080554 
L 168.912098 177.737164 
L 168.146639 173.339961 
L 167.646231 168.904771 
L 167.412676 164.447556 
L 167.446813 159.984356 
L 167.74852 155.531234 
L 168.316712 151.104218 
L 169.149342 146.719238 
L 170.243415 142.392077 
L 171.432063 138.607376 
L 170.435945 142.958131 
L 169.180731 147.241326 
L 167.670938 151.441545 
L 165.912 155.543674 
L 163.910247 159.532947 
L 161.672883 163.395009 
L 159.207961 167.11596 
L 156.524351 170.682409 
L 153.631711 174.081519 
L 150.540453 177.30106 
L 147.2617 180.329442 
L 143.807254 183.155768 
L 140.189545 185.769865 
L 136.421595 188.162327 
L 132.516964 190.324541 
L 128.943298 192.046677 
L 132.798127 189.796874 
L 136.780926 187.782271 
L 140.877363 186.010118 
L 145.072693 184.486792 
L 149.351819 183.217776 
L 153.69934 182.207638 
L 158.099609 181.460011 
L 162.536792 180.977588 
L 166.994917 180.762105 
L 171.457942 180.814336 
L 175.909804 181.134094 
L 180.334481 181.720228 
L 184.716049 182.570629 
L 189.038739 183.682235 
L 193.286994 185.051048 
L 196.987847 186.479517 
L 192.709777 185.206949 
L 188.515713 183.680141 
L 184.420749 181.904587 
L 180.439623 179.886677 
L 176.586664 177.633675 
L 172.875736 175.153688 
L 169.320197 172.455641 
L 165.93284 169.549245 
L 162.725859 166.44496 
L 159.710794 163.153957 
L 156.898496 159.688081 
L 154.299086 156.059804 
L 151.92192 152.282186 
L 149.775553 148.368821 
L 147.867709 144.333793 
L 146.377856 140.657221 
L 148.376296 144.648155 
L 150.131828 148.751743 
L 151.638133 152.953214 
L 152.88979 157.237449 
L 153.882296 161.58903 
L 154.612077 165.992294 
L 155.076507 170.431396 
L 155.273915 174.890359 
L 155.203591 179.353135 
L 154.865788 183.803664 
L 154.261721 188.225928 
L 153.393564 192.604013 
L 152.264442 196.92216 
L 150.878418 201.164831 
L 149.240481 205.316756 
L 147.578048 208.918583 
L 149.121847 204.730743 
L 150.913987 200.643012 
L 152.94802 196.6701 
L 155.216624 192.826305 
L 157.711635 189.125463 
L 160.424074 185.58089 
L 163.344178 182.205345 
L 166.46144 179.010975 
L 169.764639 176.009276 
L 173.241888 173.211052 
L 176.880673 170.626373 
L 180.667897 168.264541 
L 184.589931 166.134057 
L 188.632661 164.242586 
L 192.781535 162.596938 
L 196.545933 161.34548 
L 192.435263 163.084361 
L 188.227719 164.57362 
L 183.938445 165.807899 
L 179.582876 166.782754 
L 175.17669 167.494678 
L 170.735742 167.941108 
L 166.276015 168.120438 
L 161.813561 168.032022 
L 157.364438 167.676179 
L 152.944659 167.054188 
L 148.57013 166.16829 
L 144.256595 165.021671 
L 140.019578 163.618458 
L 135.874328 161.963702 
L 131.835762 160.063358 
L 128.347734 158.17378 
L 132.428167 159.982478 
L 136.3928 162.0326 
L 140.227366 164.316769 
L 143.918063 166.826763 
L 147.45161 169.553549 
L 150.81529 172.487315 
L 153.996996 175.617501 
L 156.985278 178.932842 
L 159.769383 182.421406 
L 162.339288 186.07064 
L 164.685747 189.867408 
L 166.800314 193.798047 
L 168.675379 197.848411 
L 170.304194 202.003923 
L 171.680897 206.249628 
L 172.688828 210.086413 
L 171.216639 205.872866 
L 169.999759 201.578623 
L 169.04257 197.219138 
L 168.348515 192.810101 
L 167.920092 188.36738 
L 167.758844 183.906963 
L 167.86535 179.444904 
L 168.239228 174.99726 
L 168.879131 170.580039 
L 169.782757 166.209138 
L 170.946854 161.900287 
L 172.367232 157.668993 
L 174.03878 153.530485 
L 175.955481 149.499657 
L 178.110438 145.591016 
L 180.21941 142.231093 
L 178.153232 146.187383 
L 175.853536 150.012657 
L 173.3286 153.693148 
L 170.587511 157.215611 
L 167.640133 160.567369 
L 164.497074 163.73636 
L 161.169646 166.711177 
L 157.669823 169.481115 
L 154.010201 172.036206 
L 150.203951 174.367253 
L 146.264772 176.465867 
L 142.206839 178.324496 
L 138.044758 179.936451 
L 133.793507 181.29593 
L 129.468386 182.398041 
L 125.574952 183.158312 
L 129.874093 181.958852 
L 134.237422 181.019343 
L 138.649236 180.343169 
L 143.093658 179.932761 
L 147.554692 179.789596 
L 152.016283 179.914191 
L 156.462374 180.306097 
L 160.876965 180.963903 
L 165.244167 181.885242 
L 169.548263 183.066797 
L 173.773764 184.504318 
L 177.905461 186.192629 
L 181.928485 188.125656 
L 185.828359 190.296441 
L 189.591045 192.697171 
L 192.809081 195.016888 
L 197.364204 198.847351 
L 202.06886 202.492593 
L 206.915524 205.946783 
L 211.896442 209.204395 
L 217.003646 212.260218 
L 222.228964 215.109363 
L 227.564038 217.747271 
L 233.000333 220.169724 
L 236.16 221.46013 
L 230.669575 223.757262 
L 225.275403 226.272115 
L 219.986112 229.000666 
L 214.810166 231.938549 
L 209.755844 235.081065 
L 204.831231 238.423186 
L 200.044207 241.959566 
L 195.40243 245.684547 
L 191.651134 248.928 
L 187.13606 245.050413 
L 182.469535 241.356482 
L 177.659025 237.852117 
L 172.712225 234.542924 
L 167.63705 231.434198 
L 162.441619 228.530911 
L 157.134243 225.837708 
L 151.723413 223.358898 
L 146.217785 221.098446 
L 140.626167 219.059969 
L 134.957505 217.246727 
L 129.220866 215.661622 
L 123.425429 214.307189 
L 117.580465 213.185595 
L 111.695324 212.298635 
L 105.779422 211.647727 
L 99.842222 211.233912 
L 93.893223 211.057853 
L 87.36 211.138676 
L 93.310992 211.223941 
L 99.260634 211.071162 
L 105.199408 210.680583 
L 111.117812 210.052828 
L 117.006378 209.188903 
L 122.855686 208.090189 
L 128.656379 206.758443 
L 134.399176 205.195797 
L 138.828617 203.819495 
L 142.55782 201.367074 
L 146.427369 199.142685 
L 150.423338 197.154331 
L 154.531346 195.40917 
L 158.736609 193.913482 
L 163.023992 192.672649 
L 167.378065 191.691139 
L 171.783159 190.972482 
L 176.223419 190.519265 
L 180.682867 190.33312 
L 185.145451 190.414715 
L 189.595113 190.763759 
L 194.015837 191.378994 
L 194.849634 191.525533 
L 191.738095 188.325588 
L 188.824037 184.944821 
L 186.117947 181.395399 
L 183.629564 177.690097 
L 181.367844 173.842248 
L 179.340926 169.865701 
L 177.556105 165.774769 
L 176.019804 161.584172 
L 174.737553 157.308994 
L 173.713966 152.964619 
L 172.952727 148.566684 
L 172.456575 144.131016 
L 172.227297 139.673578 
L 172.214004 138.827107 
L 169.658095 142.486157 
L 166.887374 145.98536 
L 163.911812 149.312123 
L 160.742119 152.454472 
L 157.389702 155.4011 
L 153.866625 158.141401 
L 150.185569 160.665514 
L 146.35978 162.964353 
L 142.403029 165.029646 
L 138.329554 166.85396 
L 134.154016 168.43073 
L 129.891443 169.75428 
L 125.557174 170.819847 
L 124.728389 170.992495 
L 128.803705 172.812691 
L 132.762542 174.873985 
L 136.590651 177.168957 
L 140.274256 179.689349 
L 143.8001 182.426088 
L 147.155493 185.369327 
L 150.328361 188.508472 
L 153.307282 191.832227 
L 156.081538 195.328628 
L 158.641144 198.985093 
L 160.976887 202.788463 
L 163.080362 206.72505 
L 164.943998 210.780685 
L 165.269807 211.562055 
L 166.289004 207.216649 
L 167.566934 202.940177 
L 169.098999 198.74803 
L 170.879686 194.655296 
L 172.902584 190.676703 
L 175.160415 186.826571 
L 177.645053 183.118756 
L 180.347555 179.566601 
L 183.258195 176.182891 
L 186.366499 172.979804 
L 189.661279 169.968867 
L 193.130678 167.160916 
L 196.76221 164.566057 
L 197.468139 164.098772 
L 193.008506 163.917133 
L 188.56779 163.468404 
L 184.161972 162.754198 
L 179.806909 161.777088 
L 175.518275 160.540589 
L 171.311503 159.049151 
L 167.201733 157.308142 
L 163.203757 155.323827 
L 159.331962 153.103349 
L 155.600283 150.654697 
L 152.02215 147.986686 
L 148.610441 145.108917 
L 145.377433 142.031746 
L 144.785433 141.426579 
L 145.447867 145.840477 
L 145.844434 150.286155 
L 145.973706 154.747613 
L 145.835219 159.208795 
L 145.429471 163.653644 
L 144.757922 168.066165 
L 143.822988 172.430477 
L 142.628036 176.730873 
L 141.177365 180.951877 
L 139.476196 185.078297 
L 137.530652 189.095283 
L 135.347733 192.988378 
L 132.935298 196.74357 
L 132.452599 197.439051 
L 136.662443 195.956305 
L 140.953622 194.728667 
L 145.310694 193.760553 
L 149.717978 193.05545 
L 154.159611 192.615893 
L 158.61961 192.443466 
L 163.081922 192.538789 
L 167.530489 192.901518 
L 171.9493 193.530348 
L 176.322452 194.423016 
L 180.634208 195.57631 
L 184.869048 196.986078 
L 189.011732 198.647248 
L 189.785747 198.990164 
L 187.535873 195.135377 
L 185.521197 191.152615 
L 183.748968 187.056211 
L 182.225565 182.860909 
L 180.95647 178.581806 
L 179.946251 174.234304 
L 179.198544 169.834048 
L 178.716039 165.396875 
L 178.500473 160.938753 
L 178.552621 156.475727 
L 178.872297 152.023859 
L 179.458349 147.599172 
L 180.308669 143.217588 
L 180.499504 142.392801 
L 177.138038 145.329103 
L 173.606549 148.058554 
L 169.917746 150.571332 
L 166.084905 152.858392 
L 162.121819 154.911505 
L 158.042752 156.72328 
L 153.862384 158.287198 
L 149.595759 159.59763 
L 145.258233 160.64986 
L 140.865417 161.440102 
L 136.433119 161.96551 
L 131.977291 162.224195 
L 127.51397 162.215225 
L 126.667995 162.183317 
L 130.185404 164.930889 
L 133.531728 167.884435 
L 136.694924 171.033325 
L 139.663608 174.366227 
L 142.427096 177.871146 
L 144.975442 181.535467 
L 147.299475 185.346004 
L 149.390831 189.289042 
L 151.241983 193.35039 
L 152.84627 197.515433 
L 154.197917 201.769181 
L 155.29206 206.096324 
L 156.124761 210.48129 
L 156.252925 211.318109 
L 158.288052 207.345758 
L 160.557715 203.502589 
L 163.053746 199.802434 
L 165.767162 196.258609 
L 168.688196 192.883868 
L 171.806338 189.690357 
L 175.110364 186.689569 
L 178.588384 183.892303 
L 182.227881 181.308627 
L 186.015756 178.947839 
L 189.938377 176.818436 
L 193.981628 174.92808 
L 198.130956 173.283575 
L 198.928603 172.999937 
L 194.643792 171.750251 
L 190.441627 170.24588 
L 186.337232 168.492238 
L 182.345379 166.495635 
L 178.480432 164.263258 
L 174.756303 161.803139 
L 171.186394 159.124134 
L 167.783553 156.235884 
L 164.560026 153.148783 
L 161.527415 149.873942 
L 158.696633 146.423146 
L 156.077868 142.808814 
L 153.680546 139.043955 
L 153.251607 138.31409 
L 152.832189 142.757671 
L 152.14707 147.168105 
L 151.198716 151.52952 
L 149.990542 155.826221 
L 148.526894 160.042742 
L 146.81304 164.16391 
L 144.855148 168.174892 
L 142.660266 172.061254 
L 140.23629 175.809008 
L 137.591947 179.404668 
L 134.736751 182.835291 
L 131.68098 186.088532 
L 128.43563 189.152683 
L 127.799726 189.711538 
L 132.242691 189.285646 
L 136.703199 189.126938 
L 141.165197 189.235986 
L 145.612627 189.612397 
L 150.029483 190.254817 
L 154.399869 191.160933 
L 158.708056 192.327484 
L 162.93854 193.750272 
L 167.076095 195.424177 
L 171.10583 197.343173 
L 175.013244 199.500356 
L 178.784273 201.887961 
L 182.405346 204.497396 
L 183.07407 205.016529 
L 181.818144 200.733543 
L 180.821303 196.382954 
L 180.087134 191.980419 
L 179.61828 187.541783 
L 179.416428 183.083019 
L 179.482305 178.620175 
L 179.815673 174.169311 
L 180.415333 169.746447 
L 181.279126 165.3675 
L 182.403945 161.048229 
L 183.78574 156.804179 
L 185.419539 152.650624 
L 187.299461 148.602512 
L 187.683203 147.847904 
L 183.713821 149.888816 
L 179.6292 151.688036 
L 175.444041 153.239088 
L 171.173406 154.536389 
L 166.832664 155.575272 
L 162.437437 156.351998 
L 158.003544 156.86377 
L 153.546942 157.108747 
L 149.083669 157.086048 
L 144.629789 156.795754 
L 140.201331 156.23891 
L 135.814232 155.417519 
L 131.484281 154.334539 
L 130.670856 154.099952 
L 124.721654 154.268997 
L 118.783971 154.675812 
L 112.867305 155.319745 
L 106.981123 156.199766 
L 101.13484 157.314468 
L 95.33781 158.662068 
L 89.599307 160.240408 
L 87.36 160.923977 
L 93.072959 162.592413 
L 98.848068 164.031057 
L 104.676088 165.237607 
L 110.547695 166.210134 
L 116.453497 166.947081 
L 122.384044 167.447269 
L 125.210469 167.601831 
L 119.541546 165.789407 
L 113.804679 164.205128 
L 108.009046 162.851531 
L 102.16392 161.73078 
L 96.278652 160.844667 
L 90.362656 160.194612 
L 87.36 159.955939 
L 93.287942 159.425767 
L 99.189941 158.658965 
L 105.056556 157.656759 
L 110.8784 156.420752 
L 116.64616 154.952923 
L 122.350609 153.255618 
L 127.982621 151.331555 
L 133.533186 149.18381 
L 135.188911 148.493077 
L 137.290364 142.924821 
L 139.167465 137.276983 
L 140.817211 131.558598 
L 142.236964 125.778816 
L 143.424451 119.946882 
L 144.377773 114.072126 
L 145.095405 108.163947 
L 145.576198 102.231795 
L 145.689476 100.128 
L 146.086231 106.066364 
L 146.72014 111.984112 
L 147.590188 117.871777 
L 148.694984 123.719939 
L 150.032761 129.519244 
L 151.601378 135.260413 
L 153.351887 141.352546 
L 154.278859 145.718556 
L 154.942359 150.132295 
L 155.34 154.577877 
L 155.47035 159.039303 
L 155.332941 163.500518 
L 154.928266 167.945466 
L 154.257783 172.358149 
L 153.323904 176.722686 
L 152.129991 181.023371 
L 150.68034 185.244725 
L 148.980168 189.371556 
L 147.035594 193.389012 
L 144.853616 197.282634 
L 142.442088 201.038409 
L 139.849894 204.591054 
L 136.153926 209.255967 
L 132.647462 214.064947 
L 129.336111 219.010302 
L 126.22517 224.084119 
L 123.319616 229.278283 
L 120.624097 234.584483 
L 118.142925 239.994231 
L 115.880071 245.498871 
L 114.598252 248.928 
L 112.471501 243.369357 
L 110.124164 237.900208 
L 107.559998 232.529302 
L 104.783104 227.265232 
L 101.797924 222.116418 
L 98.609234 217.091098 
L 95.222136 212.197312 
L 91.642048 207.442887 
L 87.874697 202.835432 
L 87.36 202.234286 
L 91.151802 197.646932 
L 94.757125 192.911615 
L 98.170203 188.035912 
L 101.385574 183.027622 
L 104.398096 177.894757 
L 107.202947 172.64553 
L 109.795642 167.288337 
L 112.172033 161.83175 
L 114.328317 156.284497 
L 116.261046 150.655452 
L 117.967127 144.953622 
L 119.443831 139.188127 
L 120.688795 133.368192 
L 121.700028 127.503127 
L 122.475912 121.602315 
L 123.015206 115.675196 
L 123.317047 109.731252 
L 123.380953 103.779991 
L 123.302288 100.128 
L 123.259422 101.615376 
L 123.236738 107.566936 
L 123.45207 113.514643 
L 123.905075 119.448981 
L 124.595027 125.360457 
L 125.520824 131.239613 
L 126.680984 137.077045 
L 128.073651 142.863413 
L 129.696597 148.589461 
L 131.217324 153.291594 
L 125.272088 153.566826 
L 119.342614 154.079584 
L 113.438388 154.829048 
L 107.568855 155.814018 
L 101.743406 157.032919 
L 95.971359 158.483801 
L 90.261949 160.164343 
L 87.36 161.114831 
L 93.033722 162.91218 
L 98.77478 164.481203 
L 104.57399 165.81939 
L 110.422074 166.9246 
L 116.309678 167.795064 
L 122.227381 168.429391 
L 125.0279 168.646431 
L 119.232536 167.291687 
L 113.387631 166.169781 
L 107.502538 165.282505 
L 101.586671 164.63128 
L 95.649493 164.217148 
L 89.700504 164.040771 
L 87.36 164.036616 
L 93.311027 163.953831 
L 99.253984 163.633134 
L 105.179363 163.075039 
L 111.077684 162.280438 
L 116.939511 161.250603 
L 122.755467 159.987181 
L 128.144269 158.596189 
L 125.639888 153.197147 
L 122.921607 147.902571 
L 119.993773 142.720934 
L 116.861071 137.660522 
L 113.528513 132.729434 
L 110.001429 127.935557 
L 106.285462 123.286559 
L 102.386558 118.78988 
L 98.310953 114.452712 
L 94.065168 110.281994 
L 89.655995 106.284399 
L 87.36 104.3255 
L 87.36 104.3255 
" style="fill:none;stroke:#1f77b4;stroke-linecap:square;stroke-width:1.5;"/>
   </g>
   <g id="patch_5">
    <path d="M 57.6 263.808 
L 57.6 85.248 
" style="fill:none;stroke:#000000;stroke-linecap:square;stroke-linejoin:miter;stroke-width:0.8;"/>
   </g>
   <g id="patch_6">
    <path d="M 414.72 263.808 
L 414.72 85.248 
" style="fill:none;stroke:#000000;stroke-linecap:square;stroke-linejoin:miter;stroke-width:0.8;"/>
   </g>
   <g id="patch_7">
    <path d="M 57.6 263.808 
L 414.72 263.808 
" style="fill:none;stroke:#000000;stroke-linecap:square;stroke-linejoin:miter;stroke-width:0.8;"/>
   </g>
   <g id="patch_8">
    <path d="M 57.6 85.248 
L 414.72 85.248 
" style="fill:none;stroke:#000000;stroke-linecap:square;stroke-linejoin:miter;stroke-width:0.8;"/>
   </g>
  </g>
 </g>
 <defs>
  <clipPath id="p1de43e29d5">
   <rect height="178.56" width="357.12" x="57.6" y="85.248"/>
  </clipPath>
 </defs>
</svg>
