<?xml version="1.0" encoding="utf-8" standalone="no"?>
<!DOCTYPE svg PUBLIC "-//W3C//DTD SVG 1.1//EN"
  "http://www.w3.org/Graphics/SVG/1.1/DTD/svg11.dtd">
<!-- Created with matplotlib (http://matplotlib.org/) -->
<svg height="345.6pt" version="1.1" viewBox="0 0 460.8 345.6" width="460.8pt" xmlns="http://www.w3.org/2000/svg" xmlns:xlink="http://www.w3.org/1999/xlink">
 <defs>
  <style type="text/css">
*{stroke-linecap:butt;stroke-linejoin:round;}
  </style>
 </defs>
 <g id="figure_1">
  <g id="patch_1">
   <path d="M 0 345.6 
L 460.8 345.6 
L 460.8 0 
L 0 0 
z
" style="fill:#ffffff;"/>
  </g>
  <g id="axes_1">
   <g id="patch_2">
    <path d="M 57.6 263.808 
L 414.72 263.808 
L 414.72 85.248 
L 57.6 85.248 
z
" style="fill:#ffffff;"/>
   </g>
   <g id="PathCollection_1">
    <defs>
     <path d="M 0 3 
C 0.795609 3 1.55874 2.683901 2.12132 2.12132 
C 2.683901 1.55874 3 0.795609 3 0 
C 3 -0.795609 2.683901 -1.55874 2.12132 -2.12132 
C 1.55874 -2.683901 0.795609 -3 0 -3 
C -0.795609 -3 -1.55874 -2.683901 -2.12132 -2.12132 
C -2.683901 -1.55874 -3 -0.795609 -3 0 
C -3 0.795609 -2.683901 1.55874 -2.12132 2.12132 
C -1.55874 2.683901 -0.795609 3 0 3 
z
" id="md1ed458d5c" style="stroke:#000000;"/>
    </defs>
    <g clip-path="url(#p4f3b297db6)">
     <use style="stroke:#000000;" x="227.589038" xlink:href="#md1ed458d5c" y="172.178391"/>
    </g>
   </g>
   <g id="patch_3">
    <path clip-path="url(#p4f3b297db6)" d="M 161.76 211.728 
C 171.625555 211.728 181.088371 207.808373 188.064372 200.832372 
C 195.040373 193.856371 198.96 184.393555 198.96 174.528 
C 198.96 164.662445 195.040373 155.199629 188.064372 148.223628 
C 181.088371 141.247627 171.625555 137.328 161.76 137.328 
C 151.894445 137.328 142.431629 141.247627 135.455628 148.223628 
C 128.479627 155.199629 124.56 164.662445 124.56 174.528 
C 124.56 184.393555 128.479627 193.856371 135.455628 200.832372 
C 142.431629 207.808373 151.894445 211.728 161.76 211.728 
z
" style="fill:#cc0000;fill-opacity:0.1;stroke:#cc0000;stroke-dasharray:7.4,3.2;stroke-dashoffset:0;stroke-linejoin:miter;stroke-width:2;"/>
   </g>
   <g id="patch_4">
    <path clip-path="url(#p4f3b297db6)" d="M 310.56 196.848 
C 316.479333 196.848 322.157023 194.496224 326.342623 190.310623 
C 330.528224 186.125023 332.88 180.447333 332.88 174.528 
C 332.88 168.608667 330.528224 162.930977 326.342623 158.745377 
C 322.157023 154.559776 316.479333 152.208 310.56 152.208 
C 304.640667 152.208 298.962977 154.559776 294.777377 158.745377 
C 290.591776 162.930977 288.24 168.608667 288.24 174.528 
C 288.24 180.447333 290.591776 186.125023 294.777377 190.310623 
C 298.962977 194.496224 304.640667 196.848 310.56 196.848 
z
" style="fill:#cc0000;fill-opacity:0.1;stroke:#cc0000;stroke-dasharray:7.4,3.2;stroke-dashoffset:0;stroke-linejoin:miter;stroke-width:2;"/>
   </g>
   <g id="matplotlib.axis_1">
    <g id="xtick_1">
     <g id="line2d_1">
      <defs>
       <path d="M 0 0 
L 0 3.5 
" id="m89d6f4fb7a" style="stroke:#000000;stroke-width:0.8;"/>
      </defs>
      <g>
       <use style="stroke:#000000;stroke-width:0.8;" x="87.36" xlink:href="#m89d6f4fb7a" y="263.808"/>
      </g>
     </g>
     <g id="text_1">
      <!-- 0.0 -->
      <defs>
       <path d="M 31.78125 66.40625 
Q 24.171875 66.40625 20.328125 58.90625 
Q 16.5 51.421875 16.5 36.375 
Q 16.5 21.390625 20.328125 13.890625 
Q 24.171875 6.390625 31.78125 6.390625 
Q 39.453125 6.390625 43.28125 13.890625 
Q 47.125 21.390625 47.125 36.375 
Q 47.125 51.421875 43.28125 58.90625 
Q 39.453125 66.40625 31.78125 66.40625 
z
M 31.78125 74.21875 
Q 44.046875 74.21875 50.515625 64.515625 
Q 56.984375 54.828125 56.984375 36.375 
Q 56.984375 17.96875 50.515625 8.265625 
Q 44.046875 -1.421875 31.78125 -1.421875 
Q 19.53125 -1.421875 13.0625 8.265625 
Q 6.59375 17.96875 6.59375 36.375 
Q 6.59375 54.828125 13.0625 64.515625 
Q 19.53125 74.21875 31.78125 74.21875 
z
" id="DejaVuSans-30"/>
       <path d="M 10.6875 12.40625 
L 21 12.40625 
L 21 0 
L 10.6875 0 
z
" id="DejaVuSans-2e"/>
      </defs>
      <g transform="translate(79.408438 278.406437)scale(0.1 -0.1)">
       <use xlink:href="#DejaVuSans-30"/>
       <use x="63.623047" xlink:href="#DejaVuSans-2e"/>
       <use x="95.410156" xlink:href="#DejaVuSans-30"/>
      </g>
     </g>
    </g>
    <g id="xtick_2">
     <g id="line2d_2">
      <g>
       <use style="stroke:#000000;stroke-width:0.8;" x="161.76" xlink:href="#m89d6f4fb7a" y="263.808"/>
      </g>
     </g>
     <g id="text_2">
      <!-- 0.5 -->
      <defs>
       <path d="M 10.796875 72.90625 
L 49.515625 72.90625 
L 49.515625 64.59375 
L 19.828125 64.59375 
L 19.828125 46.734375 
Q 21.96875 47.46875 24.109375 47.828125 
Q 26.265625 48.1875 28.421875 48.1875 
Q 40.625 48.1875 47.75 41.5 
Q 54.890625 34.8125 54.890625 23.390625 
Q 54.890625 11.625 47.5625 5.09375 
Q 40.234375 -1.421875 26.90625 -1.421875 
Q 22.3125 -1.421875 17.546875 -0.640625 
Q 12.796875 0.140625 7.71875 1.703125 
L 7.71875 11.625 
Q 12.109375 9.234375 16.796875 8.0625 
Q 21.484375 6.890625 26.703125 6.890625 
Q 35.15625 6.890625 40.078125 11.328125 
Q 45.015625 15.765625 45.015625 23.390625 
Q 45.015625 31 40.078125 35.4375 
Q 35.15625 39.890625 26.703125 39.890625 
Q 22.75 39.890625 18.8125 39.015625 
Q 14.890625 38.140625 10.796875 36.28125 
z
" id="DejaVuSans-35"/>
      </defs>
      <g transform="translate(153.808437 278.406437)scale(0.1 -0.1)">
       <use xlink:href="#DejaVuSans-30"/>
       <use x="63.623047" xlink:href="#DejaVuSans-2e"/>
       <use x="95.410156" xlink:href="#DejaVuSans-35"/>
      </g>
     </g>
    </g>
    <g id="xtick_3">
     <g id="line2d_3">
      <g>
       <use style="stroke:#000000;stroke-width:0.8;" x="236.16" xlink:href="#m89d6f4fb7a" y="263.808"/>
      </g>
     </g>
     <g id="text_3">
      <!-- 1.0 -->
      <defs>
       <path d="M 12.40625 8.296875 
L 28.515625 8.296875 
L 28.515625 63.921875 
L 10.984375 60.40625 
L 10.984375 69.390625 
L 28.421875 72.90625 
L 38.28125 72.90625 
L 38.28125 8.296875 
L 54.390625 8.296875 
L 54.390625 0 
L 12.40625 0 
z
" id="DejaVuSans-31"/>
      </defs>
      <g transform="translate(228.208437 278.406437)scale(0.1 -0.1)">
       <use xlink:href="#DejaVuSans-31"/>
       <use x="63.623047" xlink:href="#DejaVuSans-2e"/>
       <use x="95.410156" xlink:href="#DejaVuSans-30"/>
      </g>
     </g>
    </g>
    <g id="xtick_4">
     <g id="line2d_4">
      <g>
       <use style="stroke:#000000;stroke-width:0.8;" x="310.56" xlink:href="#m89d6f4fb7a" y="263.808"/>
      </g>
     </g>
     <g id="text_4">
      <!-- 1.5 -->
      <g transform="translate(302.608437 278.406437)scale(0.1 -0.1)">
       <use xlink:href="#DejaVuSans-31"/>
       <use x="63.623047" xlink:href="#DejaVuSans-2e"/>
       <use x="95.410156" xlink:href="#DejaVuSans-35"/>
      </g>
     </g>
    </g>
    <g id="xtick_5">
     <g id="line2d_5">
      <g>
       <use style="stroke:#000000;stroke-width:0.8;" x="384.96" xlink:href="#m89d6f4fb7a" y="263.808"/>
      </g>
     </g>
     <g id="text_5">
      <!-- 2.0 -->
      <defs>
       <path d="M 19.1875 8.296875 
L 53.609375 8.296875 
L 53.609375 0 
L 7.328125 0 
L 7.328125 8.296875 
Q 12.9375 14.109375 22.625 23.890625 
Q 32.328125 33.6875 34.8125 36.53125 
Q 39.546875 41.84375 41.421875 45.53125 
Q 43.3125 49.21875 43.3125 52.78125 
Q 43.3125 58.59375 39.234375 62.25 
Q 35.15625 65.921875 28.609375 65.921875 
Q 23.96875 65.921875 18.8125 64.3125 
Q 13.671875 62.703125 7.8125 59.421875 
L 7.8125 69.390625 
Q 13.765625 71.78125 18.9375 73 
Q 24.125 74.21875 28.421875 74.21875 
Q 39.75 74.21875 46.484375 68.546875 
Q 53.21875 62.890625 53.21875 53.421875 
Q 53.21875 48.921875 51.53125 44.890625 
Q 49.859375 40.875 45.40625 35.40625 
Q 44.1875 33.984375 37.640625 27.21875 
Q 31.109375 20.453125 19.1875 8.296875 
z
" id="DejaVuSans-32"/>
      </defs>
      <g transform="translate(377.008437 278.406437)scale(0.1 -0.1)">
       <use xlink:href="#DejaVuSans-32"/>
       <use x="63.623047" xlink:href="#DejaVuSans-2e"/>
       <use x="95.410156" xlink:href="#DejaVuSans-30"/>
      </g>
     </g>
    </g>
   </g>
   <g id="matplotlib.axis_2">
    <g id="ytick_1">
     <g id="line2d_6">
      <defs>
       <path d="M 0 0 
L -3.5 0 
" id="mdb51b4f708" style="stroke:#000000;stroke-width:0.8;"/>
      </defs>
      <g>
       <use style="stroke:#000000;stroke-width:0.8;" x="57.6" xlink:href="#mdb51b4f708" y="248.928"/>
      </g>
     </g>
     <g id="text_6">
      <!-- 0.0 -->
      <g transform="translate(34.696875 252.727219)scale(0.1 -0.1)">
       <use xlink:href="#DejaVuSans-30"/>
       <use x="63.623047" xlink:href="#DejaVuSans-2e"/>
       <use x="95.410156" xlink:href="#DejaVuSans-30"/>
      </g>
     </g>
    </g>
    <g id="ytick_2">
     <g id="line2d_7">
      <g>
       <use style="stroke:#000000;stroke-width:0.8;" x="57.6" xlink:href="#mdb51b4f708" y="219.168"/>
      </g>
     </g>
     <g id="text_7">
      <!-- 0.2 -->
      <g transform="translate(34.696875 222.967219)scale(0.1 -0.1)">
       <use xlink:href="#DejaVuSans-30"/>
       <use x="63.623047" xlink:href="#DejaVuSans-2e"/>
       <use x="95.410156" xlink:href="#DejaVuSans-32"/>
      </g>
     </g>
    </g>
    <g id="ytick_3">
     <g id="line2d_8">
      <g>
       <use style="stroke:#000000;stroke-width:0.8;" x="57.6" xlink:href="#mdb51b4f708" y="189.408"/>
      </g>
     </g>
     <g id="text_8">
      <!-- 0.4 -->
      <defs>
       <path d="M 37.796875 64.3125 
L 12.890625 25.390625 
L 37.796875 25.390625 
z
M 35.203125 72.90625 
L 47.609375 72.90625 
L 47.609375 25.390625 
L 58.015625 25.390625 
L 58.015625 17.1875 
L 47.609375 17.1875 
L 47.609375 0 
L 37.796875 0 
L 37.796875 17.1875 
L 4.890625 17.1875 
L 4.890625 26.703125 
z
" id="DejaVuSans-34"/>
      </defs>
      <g transform="translate(34.696875 193.207219)scale(0.1 -0.1)">
       <use xlink:href="#DejaVuSans-30"/>
       <use x="63.623047" xlink:href="#DejaVuSans-2e"/>
       <use x="95.410156" xlink:href="#DejaVuSans-34"/>
      </g>
     </g>
    </g>
    <g id="ytick_4">
     <g id="line2d_9">
      <g>
       <use style="stroke:#000000;stroke-width:0.8;" x="57.6" xlink:href="#mdb51b4f708" y="159.648"/>
      </g>
     </g>
     <g id="text_9">
      <!-- 0.6 -->
      <defs>
       <path d="M 33.015625 40.375 
Q 26.375 40.375 22.484375 35.828125 
Q 18.609375 31.296875 18.609375 23.390625 
Q 18.609375 15.53125 22.484375 10.953125 
Q 26.375 6.390625 33.015625 6.390625 
Q 39.65625 6.390625 43.53125 10.953125 
Q 47.40625 15.53125 47.40625 23.390625 
Q 47.40625 31.296875 43.53125 35.828125 
Q 39.65625 40.375 33.015625 40.375 
z
M 52.59375 71.296875 
L 52.59375 62.3125 
Q 48.875 64.0625 45.09375 64.984375 
Q 41.3125 65.921875 37.59375 65.921875 
Q 27.828125 65.921875 22.671875 59.328125 
Q 17.53125 52.734375 16.796875 39.40625 
Q 19.671875 43.65625 24.015625 45.921875 
Q 28.375 48.1875 33.59375 48.1875 
Q 44.578125 48.1875 50.953125 41.515625 
Q 57.328125 34.859375 57.328125 23.390625 
Q 57.328125 12.15625 50.6875 5.359375 
Q 44.046875 -1.421875 33.015625 -1.421875 
Q 20.359375 -1.421875 13.671875 8.265625 
Q 6.984375 17.96875 6.984375 36.375 
Q 6.984375 53.65625 15.1875 63.9375 
Q 23.390625 74.21875 37.203125 74.21875 
Q 40.921875 74.21875 44.703125 73.484375 
Q 48.484375 72.75 52.59375 71.296875 
z
" id="DejaVuSans-36"/>
      </defs>
      <g transform="translate(34.696875 163.447219)scale(0.1 -0.1)">
       <use xlink:href="#DejaVuSans-30"/>
       <use x="63.623047" xlink:href="#DejaVuSans-2e"/>
       <use x="95.410156" xlink:href="#DejaVuSans-36"/>
      </g>
     </g>
    </g>
    <g id="ytick_5">
     <g id="line2d_10">
      <g>
       <use style="stroke:#000000;stroke-width:0.8;" x="57.6" xlink:href="#mdb51b4f708" y="129.888"/>
      </g>
     </g>
     <g id="text_10">
      <!-- 0.8 -->
      <defs>
       <path d="M 31.78125 34.625 
Q 24.75 34.625 20.71875 30.859375 
Q 16.703125 27.09375 16.703125 20.515625 
Q 16.703125 13.921875 20.71875 10.15625 
Q 24.75 6.390625 31.78125 6.390625 
Q 38.8125 6.390625 42.859375 10.171875 
Q 46.921875 13.96875 46.921875 20.515625 
Q 46.921875 27.09375 42.890625 30.859375 
Q 38.875 34.625 31.78125 34.625 
z
M 21.921875 38.8125 
Q 15.578125 40.375 12.03125 44.71875 
Q 8.5 49.078125 8.5 55.328125 
Q 8.5 64.0625 14.71875 69.140625 
Q 20.953125 74.21875 31.78125 74.21875 
Q 42.671875 74.21875 48.875 69.140625 
Q 55.078125 64.0625 55.078125 55.328125 
Q 55.078125 49.078125 51.53125 44.71875 
Q 48 40.375 41.703125 38.8125 
Q 48.828125 37.15625 52.796875 32.3125 
Q 56.78125 27.484375 56.78125 20.515625 
Q 56.78125 9.90625 50.3125 4.234375 
Q 43.84375 -1.421875 31.78125 -1.421875 
Q 19.734375 -1.421875 13.25 4.234375 
Q 6.78125 9.90625 6.78125 20.515625 
Q 6.78125 27.484375 10.78125 32.3125 
Q 14.796875 37.15625 21.921875 38.8125 
z
M 18.3125 54.390625 
Q 18.3125 48.734375 21.84375 45.5625 
Q 25.390625 42.390625 31.78125 42.390625 
Q 38.140625 42.390625 41.71875 45.5625 
Q 45.3125 48.734375 45.3125 54.390625 
Q 45.3125 60.0625 41.71875 63.234375 
Q 38.140625 66.40625 31.78125 66.40625 
Q 25.390625 66.40625 21.84375 63.234375 
Q 18.3125 60.0625 18.3125 54.390625 
z
" id="DejaVuSans-38"/>
      </defs>
      <g transform="translate(34.696875 133.687219)scale(0.1 -0.1)">
       <use xlink:href="#DejaVuSans-30"/>
       <use x="63.623047" xlink:href="#DejaVuSans-2e"/>
       <use x="95.410156" xlink:href="#DejaVuSans-38"/>
      </g>
     </g>
    </g>
    <g id="ytick_6">
     <g id="line2d_11">
      <g>
       <use style="stroke:#000000;stroke-width:0.8;" x="57.6" xlink:href="#mdb51b4f708" y="100.128"/>
      </g>
     </g>
     <g id="text_11">
      <!-- 1.0 -->
      <g transform="translate(34.696875 103.927219)scale(0.1 -0.1)">
       <use xlink:href="#DejaVuSans-31"/>
       <use x="63.623047" xlink:href="#DejaVuSans-2e"/>
       <use x="95.410156" xlink:href="#DejaVuSans-30"/>
      </g>
     </g>
    </g>
   </g>
   <g id="line2d_12">
    <path clip-path="url(#p4f3b297db6)" d="M 236.16 248.928 
L 236.16 100.128 
" style="fill:none;stroke:#cc0000;stroke-dasharray:7.4,3.2;stroke-dashoffset:0;stroke-width:2;"/>
   </g>
   <g id="line2d_13">
    <path clip-path="url(#p4f3b297db6)" d="M 87.36 248.928 
L 384.96 248.928 
" style="fill:none;stroke:#009900;stroke-linecap:square;stroke-width:2;"/>
   </g>
   <g id="line2d_14">
    <path clip-path="url(#p4f3b297db6)" d="M 384.96 248.928 
L 384.96 100.128 
" style="fill:none;stroke:#009900;stroke-linecap:square;stroke-width:2;"/>
   </g>
   <g id="line2d_15">
    <path clip-path="url(#p4f3b297db6)" d="M 384.96 100.128 
L 87.36 100.128 
" style="fill:none;stroke:#009900;stroke-linecap:square;stroke-width:2;"/>
   </g>
   <g id="line2d_16">
    <path clip-path="url(#p4f3b297db6)" d="M 87.36 100.128 
L 87.36 248.928 
" style="fill:none;stroke:#009900;stroke-linecap:square;stroke-width:2;"/>
   </g>
   <g id="line2d_17">
    <path clip-path="url(#p4f3b297db6)" d="M 227.589038 172.178391 
L 222.123029 174.533031 
L 216.755553 177.104369 
L 211.495196 179.888292 
L 206.350374 182.880347 
L 201.329318 186.075746 
L 196.44006 189.469378 
L 195.527535 190.135484 
L 196.065637 196.062712 
L 196.840333 201.96368 
L 197.850386 207.828948 
L 199.094179 213.649134 
L 200.569722 219.414925 
L 202.274655 225.117099 
L 204.206251 230.746532 
L 206.361419 236.294219 
L 208.736711 241.751285 
L 211.328328 247.109 
L 212.269358 248.928 
L 214.934468 243.606462 
L 217.384642 238.182604 
L 219.615959 232.665104 
L 221.62485 227.062789 
L 223.408101 221.384621 
L 224.96286 215.639683 
L 226.286639 209.837168 
L 227.377321 203.986356 
L 228.233159 198.096609 
L 228.852787 192.177349 
L 229.235211 186.238045 
L 229.379821 180.288199 
L 229.286384 174.337329 
L 228.955051 168.394956 
L 228.386352 162.470585 
L 227.581195 156.573696 
L 226.54087 150.713721 
L 225.267041 144.900036 
L 223.761745 139.14194 
L 222.027391 133.448646 
L 220.066754 127.829262 
L 217.882969 122.292777 
L 215.47953 116.848049 
L 212.860283 111.503788 
L 210.029418 106.268544 
L 206.991463 101.150691 
L 206.350635 100.128 
L 203.271271 105.221044 
L 200.398037 110.433156 
L 197.735531 115.755997 
L 195.288011 121.181053 
L 193.059393 126.699643 
L 191.053243 132.302941 
L 189.272769 137.981981 
L 187.720821 143.727678 
L 186.917887 147.125067 
L 192.556551 145.220585 
L 198.114545 143.092139 
L 203.582978 140.743136 
L 208.953102 138.177333 
L 214.216326 135.398834 
L 219.36423 132.412085 
L 224.388578 129.221864 
L 229.281331 125.833274 
L 234.034664 122.251737 
L 236.16 120.551016 
L 231.472978 116.883127 
L 226.643028 113.405604 
L 221.677879 110.124008 
L 216.585472 107.043591 
L 211.373954 104.16928 
L 206.051664 101.505672 
L 203.071224 100.128 
L 197.691457 102.673523 
L 192.417787 105.432144 
L 187.258651 108.399448 
L 182.222302 111.57069 
L 177.316798 114.940795 
L 172.549985 118.504372 
L 167.929491 122.25572 
L 163.462707 126.188838 
L 159.156778 130.297434 
L 155.018594 134.574934 
L 151.185092 138.862732 
L 145.439864 137.309047 
L 139.637101 135.986351 
L 133.786086 134.896763 
L 127.896179 134.042024 
L 121.976803 133.423503 
L 116.037428 133.042188 
L 110.087555 132.89869 
L 104.136703 132.993238 
L 98.194392 133.325681 
L 92.270128 133.895487 
L 87.36 134.550076 
L 93.262015 135.316758 
L 99.189968 135.84681 
L 105.134375 136.139383 
L 111.085728 136.194008 
L 117.034504 136.0106 
L 122.971188 135.58945 
L 128.886282 134.931234 
L 134.770322 134.037003 
L 140.613896 132.908189 
L 146.407656 131.546597 
L 152.142332 129.954405 
L 157.80875 128.134161 
L 163.397845 126.088777 
L 168.900676 123.821525 
L 174.308439 121.336032 
L 179.612484 118.636274 
L 184.804324 115.726571 
L 189.875654 112.611576 
L 194.818361 109.296274 
L 199.624538 105.785969 
L 204.286496 102.086276 
L 206.606618 100.128 
L 211.192122 103.92204 
L 215.925678 107.529674 
L 220.799716 110.94513 
L 225.806436 114.162945 
L 230.937829 117.177971 
L 236.16 119.972293 
L 230.912686 122.780722 
L 225.781877 125.796742 
L 220.77578 129.015527 
L 215.902405 132.431928 
L 211.169547 136.040479 
L 206.584779 139.835407 
L 202.155435 143.810642 
L 197.888601 147.959824 
L 193.791102 152.276314 
L 192.551003 153.653275 
L 189.108174 156.493741 
L 185.501214 159.122649 
L 181.743105 161.53054 
L 177.847372 163.708746 
L 173.828035 165.649429 
L 169.69956 167.345604 
L 165.476804 168.791167 
L 161.174965 169.980916 
L 156.809526 170.910568 
L 152.396195 171.576778 
L 147.950858 171.977148 
L 143.489513 172.110237 
L 139.028214 171.975567 
L 134.583019 171.573622 
L 130.169925 170.905849 
L 125.804815 169.97465 
L 124.869527 169.739157 
L 129.330118 169.895522 
L 133.773305 170.319081 
L 138.183099 171.008309 
L 142.543629 171.960725 
L 146.839202 173.172903 
L 151.054358 174.640479 
L 155.173927 176.358172 
L 159.183084 178.319799 
L 163.067399 180.518302 
L 166.812893 182.945768 
L 170.406087 185.593461 
L 173.834049 188.451851 
L 177.084441 191.510653 
L 180.145567 194.758856 
L 183.006409 198.184772 
L 185.656672 201.776071 
L 186.20068 202.572485 
L 182.965202 199.497913 
L 179.919909 196.23486 
L 177.075762 192.795072 
L 174.442996 189.190926 
L 172.031087 185.435395 
L 169.848714 181.541995 
L 167.903733 177.524736 
L 166.203143 173.398078 
L 164.753063 169.176871 
L 163.558714 164.876307 
L 162.624392 160.511864 
L 161.953462 156.099249 
L 161.548337 151.654343 
L 161.410475 147.193142 
L 161.540373 142.731702 
L 161.937562 138.28608 
L 162.058372 137.329197 
L 162.441876 141.776021 
L 162.55804 146.237839 
L 162.406447 150.698594 
L 161.987641 155.142233 
L 161.303131 159.552761 
L 160.35538 163.914308 
L 159.147798 168.211175 
L 157.684732 172.427898 
L 155.971447 176.549302 
L 154.014109 180.560555 
L 151.819762 184.447219 
L 149.396304 188.195308 
L 146.752457 191.791332 
L 143.897735 195.22235 
L 140.842412 198.476013 
L 137.597485 201.540612 
L 136.872603 202.176824 
L 139.533907 198.5937 
L 142.405281 195.176606 
L 145.476391 191.937841 
L 148.736184 188.889059 
L 152.172928 186.041234 
L 155.774255 183.404614 
L 159.527204 180.988689 
L 163.418268 178.802153 
L 167.433444 176.852876 
L 171.558281 175.147872 
L 175.777934 173.693278 
L 180.077218 172.494329 
L 184.440659 171.555339 
L 188.852554 170.879689 
L 193.297024 170.469809 
L 197.758075 170.327175 
L 198.722544 170.331534 
L 194.354588 171.249292 
L 189.93946 171.903478 
L 185.493049 172.291738 
L 181.031357 172.412675 
L 176.570442 172.265853 
L 172.126358 171.851802 
L 167.7151 171.17201 
L 163.352542 170.228924 
L 159.054386 169.02594 
L 154.8361 167.567385 
L 150.712865 165.85851 
L 146.699521 163.905464 
L 142.810512 161.715276 
L 139.059833 159.295829 
L 135.460982 156.65583 
L 132.026913 153.80478 
L 131.307811 153.162042 
L 127.334959 148.73056 
L 123.188073 144.461495 
L 118.873786 140.361676 
L 114.399002 136.437662 
L 109.770878 132.695731 
L 104.996819 129.141868 
L 100.084463 125.781759 
L 95.041667 122.62078 
L 89.876499 119.663987 
L 87.36 118.320652 
L 92.5809 115.463418 
L 97.683364 112.399689 
L 102.659231 109.134367 
L 107.50054 105.672675 
L 112.199545 102.020151 
L 114.488752 100.128 
L 119.113922 103.873581 
L 123.885176 107.431209 
L 128.794881 110.795191 
L 133.835182 113.960147 
L 138.998016 116.921013 
L 144.275123 119.673053 
L 149.658062 122.211863 
L 155.138219 124.533382 
L 160.70683 126.633896 
L 166.354984 128.510045 
L 172.073646 130.158828 
L 177.853668 131.577606 
L 183.685802 132.76411 
L 189.560718 133.716442 
L 195.469019 134.433078 
L 201.401251 134.912872 
L 207.347925 135.155056 
L 213.299526 135.159242 
L 219.246535 134.925425 
L 225.179436 134.453978 
L 231.088739 133.745655 
L 236.16 132.945205 
L 230.27865 132.033446 
L 224.365544 131.357607 
L 218.430142 130.91877 
L 212.481938 130.717637 
L 206.530449 130.754529 
L 200.585196 131.029388 
L 194.65569 131.541774 
L 188.751417 132.290867 
L 182.881823 133.275469 
L 177.056297 134.494004 
L 171.284159 135.944524 
L 165.81329 137.549481 
L 160.598476 134.681155 
L 155.273131 132.02366 
L 149.845774 129.581248 
L 144.325088 127.357825 
L 138.719905 125.35695 
L 133.039192 123.581823 
L 127.292036 122.035283 
L 121.487633 120.719806 
L 115.635267 119.637495 
L 109.744302 118.790082 
L 103.824161 118.178923 
L 97.884316 117.804995 
L 91.934269 117.668897 
L 87.36 117.726091 
L 90.335475 117.779283 
L 96.286641 117.707123 
L 102.23016 117.397037 
L 108.156526 116.849522 
L 114.056256 116.065453 
L 119.919913 115.046085 
L 125.738115 113.793049 
L 131.501556 112.308349 
L 137.201014 110.59436 
L 142.827372 108.653825 
L 148.371629 106.489848 
L 153.824915 104.105891 
L 159.178506 101.505767 
L 161.811371 100.128 
L 167.111972 102.834512 
L 172.516565 105.326892 
L 178.016503 107.601152 
L 183.602988 109.653654 
L 189.267083 111.481115 
L 194.999726 113.08061 
L 200.791746 114.449581 
L 206.633877 115.585839 
L 212.516774 116.487564 
L 218.431024 117.153315 
L 224.367167 117.582027 
L 230.315705 117.773013 
L 236.16 117.72892 
L 243.597274 117.534821 
L 251.027372 117.15487 
L 258.44565 116.589305 
L 265.847473 115.838479 
L 273.228214 114.902861 
L 280.58326 113.783036 
L 287.908016 112.479705 
L 295.197902 110.99368 
L 302.448364 109.325892 
L 309.65487 107.477383 
L 316.812917 105.449307 
L 323.918029 103.242932 
L 330.965768 100.859637 
L 333.019338 100.128 
L 340.04943 102.562857 
L 347.138189 104.821219 
L 354.281187 106.901675 
L 361.473959 108.802925 
L 368.71201 110.52378 
L 375.990815 112.063164 
L 383.305827 113.420117 
L 384.96 113.70083 
L 377.637454 115.01652 
L 370.350085 116.514844 
L 363.102448 118.194864 
L 355.899072 120.055532 
L 348.744458 122.095684 
L 341.643078 124.314045 
L 334.599371 126.709229 
L 327.617739 129.279739 
L 320.702543 132.023968 
L 313.858108 134.940202 
L 307.088709 138.026617 
L 300.398578 141.281286 
L 293.791896 144.702173 
L 287.272792 148.287141 
L 280.845339 152.033949 
L 274.513556 155.940256 
L 268.281399 160.003621 
L 262.152762 164.221503 
L 256.131477 168.591268 
L 250.221306 173.110183 
L 244.425943 177.775425 
L 238.74901 182.584079 
L 236.16 184.859726 
L 241.780857 189.733809 
L 247.521797 194.465863 
L 253.379232 199.052928 
L 259.349501 203.49214 
L 265.428873 207.780724 
L 271.613549 211.915999 
L 277.899664 215.895381 
L 284.283288 219.716383 
L 290.760433 223.376617 
L 297.32705 226.873795 
L 303.979036 230.205732 
L 310.712232 233.370346 
L 317.522432 236.365659 
L 324.405379 239.189798 
L 331.356771 241.840999 
L 338.372263 244.317605 
L 345.447473 246.618068 
L 353.239133 248.928 
L 360.37452 246.821586 
L 367.455021 244.537465 
L 374.476214 242.077063 
L 381.433708 239.441919 
L 384.96 238.029646 
L 378.036707 235.305912 
L 371.04749 232.756094 
L 363.996719 230.381785 
L 356.8888 228.184468 
L 349.728175 226.165517 
L 342.519318 224.326195 
L 335.266737 222.66765 
L 327.974962 221.190918 
L 320.648551 219.896924 
L 313.292083 218.786475 
L 305.910155 217.860265 
L 298.507382 217.118874 
L 291.088389 216.562765 
L 283.657813 216.192285 
L 276.220297 216.007666 
L 268.780491 216.009023 
L 261.343044 216.196355 
L 253.912603 216.569546 
L 246.493814 217.128362 
L 239.091311 217.872453 
L 236.16 218.218897 
L 243.554758 219.036372 
L 250.967641 219.668742 
L 258.394014 220.115611 
L 265.829238 220.376701 
L 273.268665 220.451848 
L 280.707645 220.341005 
L 288.14153 220.044242 
L 295.565674 219.561743 
L 302.975437 218.893811 
L 310.366188 218.040864 
L 317.733308 217.003433 
L 325.072192 215.782167 
L 332.378255 214.37783 
L 339.64693 212.7913 
L 346.873675 211.023567 
L 354.053972 209.075737 
L 361.183336 206.949026 
L 368.257309 204.644765 
L 375.271471 202.164393 
L 382.221439 199.50946 
L 384.96 198.408148 
L 378.036707 195.684414 
L 371.04749 193.134595 
L 363.996719 190.760286 
L 356.8888 188.562969 
L 349.728175 186.544019 
L 342.519318 184.704696 
L 335.266737 183.046151 
L 331.498242 182.259262 
L 338.043118 185.796961 
L 344.674382 189.169951 
L 351.38789 192.376121 
L 358.179446 195.41347 
L 365.044805 198.280098 
L 371.979677 200.974215 
L 378.979728 203.494136 
L 384.96 205.492205 
L 377.908134 207.863259 
L 370.917741 210.409851 
L 363.993191 213.130388 
L 357.138811 216.023171 
L 350.358885 219.086391 
L 343.65765 222.318135 
L 337.039294 225.716382 
L 330.507954 229.279009 
L 324.067711 233.00379 
L 317.72259 236.888395 
L 311.476558 240.930399 
L 305.333516 245.127274 
L 300.041127 248.928 
L 293.99144 244.597642 
L 287.835396 240.419863 
L 281.576842 236.397274 
L 275.219689 232.532391 
L 268.767911 228.827627 
L 262.225539 225.285299 
L 255.596663 221.907619 
L 248.885425 218.6967 
L 242.09602 215.654548 
L 236.16 213.159297 
L 243.013635 210.26475 
L 249.792773 207.199784 
L 256.493175 203.966316 
L 263.110656 200.566365 
L 269.641079 197.002057 
L 276.080363 193.275619 
L 282.424484 189.38938 
L 288.669476 185.345769 
L 291.723058 183.433027 
L 296.973306 180.630086 
L 302.331442 178.03934 
L 307.788894 175.664936 
L 313.336931 173.51067 
L 318.966679 171.57999 
L 324.66913 169.875984 
L 330.435161 168.401379 
L 331.922466 168.060585 
L 326.327277 170.089241 
L 320.655439 171.892526 
L 314.916026 173.467555 
L 309.118219 174.811809 
L 303.271295 175.923138 
L 297.384605 176.799763 
L 291.467569 177.440281 
L 288.462859 177.674227 
L 294.301335 176.519334 
L 300.181324 175.598841 
L 306.09342 174.914221 
L 312.028164 174.466569 
L 317.976062 174.256602 
L 323.927599 174.284656 
L 329.873254 174.550685 
L 332.878622 174.77603 
L 326.932454 175.03034 
L 320.980874 175.046663 
L 315.033401 174.824974 
L 309.09955 174.365626 
L 303.188815 173.669355 
L 297.310652 172.737274 
L 291.474463 171.570876 
L 288.538236 170.891473 
L 294.453999 171.543653 
L 300.338948 172.431879 
L 306.183672 173.554729 
L 311.978817 174.910408 
L 317.715115 176.496746 
L 323.383388 178.311207 
L 328.974567 180.350886 
L 331.773461 181.468567 
L 326.025495 179.925044 
L 320.343851 178.152898 
L 314.737618 176.154964 
L 309.215766 173.934439 
L 303.787128 171.494875 
L 298.460389 168.840175 
L 293.244071 165.974586 
L 290.647513 164.444584 
L 296.09419 166.843603 
L 301.440575 169.458512 
L 306.678115 172.285128 
L 311.798431 175.318928 
L 316.793332 178.55506 
L 321.654826 181.988346 
L 326.375137 185.613293 
L 328.709055 187.520083 
L 323.690164 184.321284 
L 318.803205 180.924342 
L 314.055997 177.334691 
L 309.456134 173.558073 
L 305.010974 169.600531 
L 300.72763 165.468396 
L 296.612953 161.168278 
L 294.59588 158.928985 
L 299.070424 162.853273 
L 303.384459 166.953356 
L 307.531084 171.222675 
L 311.503665 175.654399 
L 315.295846 180.24144 
L 318.901562 184.976458 
L 322.315043 189.851879 
L 323.968427 192.371668 
L 320.142149 187.81303 
L 316.501228 183.105029 
L 313.05149 178.255195 
L 309.798453 173.271288 
L 306.747321 168.161281 
L 303.902975 162.933349 
L 301.269966 157.595854 
L 300.01867 154.854089 
L 303.107819 159.941204 
L 305.991066 165.147784 
L 308.663799 170.465497 
L 311.121743 175.885838 
L 313.360965 181.400134 
L 315.377883 186.999565 
L 317.169269 192.675172 
L 317.989416 195.575237 
L 315.70914 190.07779 
L 313.650528 184.493553 
L 311.816873 178.831461 
L 310.211107 173.100571 
L 308.835801 167.310052 
L 307.693153 161.469167 
L 306.784993 155.587261 
L 306.415043 152.596248 
L 307.833487 158.376352 
L 309.019653 164.208555 
L 309.971645 170.083526 
L 310.68794 175.991868 
L 311.16739 181.924128 
L 311.40923 187.870816 
L 311.413073 193.822418 
L 311.324234 196.834913 
L 310.800564 190.906392 
L 310.514391 184.961673 
L 310.466172 179.010265 
L 310.655985 173.06169 
L 311.083525 167.125463 
L 311.748109 161.211081 
L 312.648674 155.328007 
L 313.194238 152.363993 
L 312.810972 158.303243 
L 312.190505 164.222416 
L 311.333831 170.112041 
L 310.24232 175.962698 
L 308.917718 181.765026 
L 307.362144 187.509743 
L 305.578088 193.187658 
L 304.588469 196.034353 
L 305.86977 190.22231 
L 307.382467 184.466154 
L 309.124138 178.775094 
L 311.091998 173.158235 
L 313.282898 167.624562 
L 315.693333 162.182927 
L 318.319448 156.842038 
L 319.730139 154.178775 
L 323.673203 147.869816 
L 327.457327 141.464262 
L 331.080146 134.966116 
L 334.539397 128.37944 
L 337.832917 121.70835 
L 340.958648 114.957015 
L 343.914636 108.129655 
L 347.125538 100.128 
L 349.88251 107.038125 
L 352.811354 113.877173 
L 355.910242 120.640871 
L 359.177237 127.324992 
L 362.610296 133.925357 
L 366.207275 140.437842 
L 369.965924 146.858377 
L 373.883896 153.18295 
L 377.958741 159.407606 
L 382.187913 165.528458 
L 384.96 169.369991 
L 380.633933 175.422748 
L 376.460522 181.581754 
L 372.442373 187.843159 
L 368.581999 194.203051 
L 364.881812 200.657456 
L 361.344125 207.202338 
L 357.971148 213.833608 
L 354.764989 220.547122 
L 351.727653 227.338683 
L 348.861037 234.204048 
L 346.166933 241.138925 
L 343.37532 248.928 
L 340.875051 241.920906 
L 338.200403 234.978501 
L 335.35305 228.105126 
L 332.334769 221.305074 
L 329.147449 214.582597 
L 325.79308 207.941895 
L 322.273758 201.387118 
L 318.796696 195.272619 
L 320.561916 202.499978 
L 322.50725 209.680953 
L 324.631482 216.811055 
L 326.933283 223.885829 
L 329.411217 230.900853 
L 332.063733 237.851743 
L 334.889175 244.734155 
L 336.710622 248.928 
L 339.641468 242.089809 
L 342.400462 235.180491 
L 344.985878 228.204365 
L 347.396101 221.165789 
L 349.629625 214.069164 
L 351.685054 206.918924 
L 353.561103 199.719539 
L 355.256601 192.475506 
L 356.770486 185.191354 
L 358.101814 177.871636 
L 359.249751 170.520924 
L 360.213581 163.143814 
L 360.992702 155.744917 
L 361.586626 148.328855 
L 361.994982 140.900264 
L 362.217515 133.463787 
L 362.254086 126.02407 
L 362.104672 118.585765 
L 361.769366 111.153518 
L 361.248378 103.731976 
L 360.927998 100.128 
L 360.31682 107.54266 
L 359.89118 114.97028 
L 359.651345 122.40622 
L 359.597464 129.845831 
L 359.72957 137.284464 
L 360.047582 144.717471 
L 360.551299 152.140205 
L 361.240409 159.548028 
L 362.11448 166.936311 
L 363.172965 174.300435 
L 364.415203 181.635799 
L 365.840419 188.937818 
L 367.44772 196.201928 
L 369.236103 203.42359 
L 371.20445 210.598291 
L 373.35153 217.721546 
L 375.676003 224.788903 
L 378.176414 231.795947 
L 380.851203 238.738297 
L 383.698696 245.611615 
L 384.96 248.50913 
L 384.775397 248.928 
L 381.695356 242.155699 
L 378.446987 235.462507 
L 375.03232 228.852608 
L 371.453491 222.330131 
L 367.712735 215.899155 
L 363.81239 209.563697 
L 359.754894 203.327717 
L 355.542783 197.195113 
L 351.178688 191.169717 
L 346.665339 185.255294 
L 342.005554 179.455542 
L 337.202247 173.774085 
L 331.821676 167.736568 
L 332.64327 160.342266 
L 333.27977 152.929737 
L 333.730776 145.503614 
L 333.996008 138.068537 
L 334.0753 130.629153 
L 333.968601 123.190112 
L 333.67598 115.756063 
L 333.197617 108.331651 
L 332.451645 100.128 
L 331.76798 107.536328 
L 331.269717 114.95943 
L 330.957168 122.392668 
L 330.830529 129.831397 
L 330.889878 137.270966 
L 331.135178 144.706728 
L 331.566276 152.134033 
L 332.182903 159.548242 
L 332.984673 166.94472 
L 333.971085 174.318844 
L 335.141523 181.666006 
L 336.495255 188.981614 
L 338.031435 196.261097 
L 339.749103 203.499904 
L 341.647186 210.693513 
L 343.724498 217.837426 
L 345.979739 224.927179 
L 348.411501 231.958342 
L 351.018264 238.92652 
L 353.798398 245.827358 
L 355.113482 248.928 
L 357.971536 242.059066 
L 360.656991 235.120836 
L 363.168169 228.117643 
L 365.5035 221.053866 
L 367.661526 213.93392 
L 369.640898 206.762253 
L 371.440378 199.543348 
L 373.058842 192.281717 
L 374.495278 184.981897 
L 375.748789 177.648451 
L 376.818591 170.285962 
L 377.704016 162.899032 
L 378.40451 155.492277 
L 378.919636 148.070325 
L 379.249071 140.637816 
L 379.39261 133.199395 
L 379.350163 125.75971 
L 379.121756 118.32341 
L 378.707533 110.895144 
L 378.107751 103.479554 
L 377.775319 100.128 
L 377.091654 107.536328 
L 376.593391 114.95943 
L 376.280843 122.392668 
L 376.154203 129.831397 
L 376.213552 137.270966 
L 376.458852 144.706728 
L 376.889951 152.134033 
L 377.506577 159.548242 
L 378.308347 166.94472 
L 379.29476 174.318844 
L 380.465197 181.666006 
L 381.81893 188.981614 
L 383.35511 196.261097 
L 384.96 203.048248 
L 383.253657 210.289734 
L 381.728866 217.571611 
L 380.386579 224.889328 
L 379.227635 232.238312 
L 378.252759 239.61397 
L 377.46256 247.011693 
L 377.288312 248.928 
L 376.545961 241.525323 
L 375.618794 234.143515 
L 374.507391 226.787191 
L 373.212447 219.460948 
L 371.73477 212.169365 
L 370.075285 204.916998 
L 368.235027 197.70838 
L 366.215148 190.548017 
L 364.01691 183.440383 
L 361.641687 176.389919 
L 359.090962 169.401034 
L 356.36633 162.478094 
L 353.469495 155.625426 
L 350.402266 148.847312 
L 347.16656 142.14799 
L 343.764399 135.531645 
L 340.19791 129.002412 
L 336.469322 122.564373 
L 332.580965 116.221551 
L 328.535269 109.977909 
L 324.334762 103.837351 
L 321.686034 100.128 
L 317.391976 106.203506 
L 313.251131 112.384455 
L 309.266088 118.666982 
L 305.439337 125.047161 
L 301.773269 131.521006 
L 298.270176 138.08447 
L 294.932248 144.733451 
L 291.761569 151.463794 
L 288.760123 158.271293 
L 285.929784 165.151692 
L 283.272322 172.100693 
L 280.789397 179.113952 
L 278.482561 186.187086 
L 276.353256 193.315675 
L 274.402812 200.495263 
L 272.632449 207.721364 
L 271.043273 214.989461 
L 269.636277 222.295012 
L 268.412341 229.633452 
L 267.372228 237.000193 
L 266.51659 244.390633 
L 266.083757 248.928 
L 265.341406 241.525323 
L 264.41424 234.143515 
L 263.302837 226.787191 
L 262.007893 219.460948 
L 260.530216 212.169365 
L 258.87073 204.916998 
L 257.030473 197.70838 
L 255.010594 190.548017 
L 252.812356 183.440383 
L 250.437132 176.389919 
L 247.886408 169.401034 
L 245.161776 162.478094 
L 242.264941 155.625426 
L 239.197711 148.847312 
L 236.16 142.545914 
L 239.385697 135.841766 
L 242.4428 129.059079 
L 245.329398 122.202092 
L 248.043687 115.275091 
L 250.583971 108.282404 
L 253.299954 100.128 
L 255.637248 107.191128 
L 258.150371 114.193622 
L 260.837753 121.131107 
L 263.697714 127.999246 
L 266.728468 134.793748 
L 269.928119 141.510365 
L 273.294668 148.144901 
L 276.826011 154.693209 
L 280.519942 161.151195 
L 284.374151 167.514826 
L 288.259808 173.58787 
L 283.739206 179.49675 
L 279.367722 185.516788 
L 275.14809 191.64422 
L 271.082947 197.875217 
L 267.174832 204.205885 
L 263.426189 210.632267 
L 259.83936 217.150348 
L 256.416587 223.756053 
L 253.160009 230.445255 
L 250.071661 237.213772 
L 247.153474 244.057375 
L 245.19821 248.928 
L 242.401165 242.033999 
L 239.432661 235.212071 
L 236.16 228.186824 
L 239.305139 221.444509 
L 242.280755 214.62568 
L 245.084988 207.734599 
L 247.716086 200.775573 
L 250.172404 193.752951 
L 252.452407 186.671122 
L 254.554671 179.534512 
L 256.477881 172.347581 
L 258.220835 165.11482 
L 259.782445 157.84075 
L 261.161733 150.529917 
L 262.357839 143.18689 
L 263.370015 135.816258 
L 264.197628 128.422627 
L 264.840161 121.010619 
L 265.297212 113.584865 
L 265.568495 106.150006 
L 265.651924 100.128 
L 265.702073 104.591676 
L 265.934413 112.027854 
L 266.352565 119.4559 
L 266.956268 126.871172 
L 267.745146 134.269036 
L 268.718704 141.644868 
L 269.876334 148.994059 
L 271.217314 156.312016 
L 272.740804 163.594165 
L 274.445853 170.835955 
L 276.331395 178.03286 
L 278.396251 185.180383 
L 280.639132 192.274057 
L 283.058636 199.309447 
L 285.653249 206.282158 
L 288.421352 213.187832 
L 291.361214 220.022152 
L 294.470997 226.780847 
L 297.748758 233.459694 
L 301.192448 240.054519 
L 304.799916 246.5612 
L 306.165526 248.928 
L 309.832585 242.454717 
L 313.336682 235.891789 
L 316.675629 229.243319 
L 319.847337 222.513461 
L 322.849826 215.706422 
L 325.681218 208.826456 
L 328.339744 201.877862 
L 330.823742 194.864984 
L 333.131661 187.792203 
L 335.262057 180.66394 
L 337.2136 173.484651 
L 338.985069 166.258821 
L 340.575358 158.990967 
L 341.983472 151.685631 
L 343.208532 144.347379 
L 344.249772 136.980797 
L 345.106542 129.590488 
L 345.778305 122.181072 
L 346.264642 114.757178 
L 346.565249 107.323447 
L 346.679129 100.128 
L 346.729277 104.591676 
L 346.961617 112.027854 
L 347.379769 119.4559 
L 347.983473 126.871172 
L 348.77235 134.269036 
L 349.745908 141.644868 
L 350.903539 148.994059 
L 352.244518 156.312016 
L 353.768008 163.594165 
L 355.473057 170.835955 
L 357.358599 178.03286 
L 359.423456 185.180383 
L 361.666337 192.274057 
L 364.08584 199.309447 
L 366.680454 206.282158 
L 369.448557 213.187832 
L 372.388418 220.022152 
L 375.498201 226.780847 
L 378.775962 233.459694 
L 382.219653 240.054519 
L 384.96 245.031812 
L 382.80438 248.928 
L 379.17007 242.436274 
L 375.374619 236.037425 
L 371.4204 229.735451 
L 367.309884 223.534293 
L 363.045639 217.437824 
L 358.630331 211.449855 
L 354.066719 205.574128 
L 349.357655 199.814316 
L 344.506082 194.174019 
L 339.515033 188.65676 
L 334.387626 183.265989 
L 331.97472 180.820231 
L 326.919858 177.678583 
L 321.994671 174.337308 
L 317.20704 170.801751 
L 312.564623 167.077567 
L 308.074847 163.170715 
L 303.744894 159.087445 
L 299.742229 155.004726 
L 301.13196 160.7918 
L 302.289158 166.62982 
L 303.211972 172.509445 
L 303.898926 178.42127 
L 304.34892 184.355837 
L 304.561234 190.303652 
L 304.541039 196.021127 
L 307.618048 190.92666 
L 310.89632 185.959315 
L 314.370611 181.12704 
L 318.035361 176.437564 
L 321.88471 171.89839 
L 325.912498 167.516781 
L 329.943904 163.462439 
L 324.175001 164.925767 
L 318.352194 166.15723 
L 312.484799 167.154858 
L 306.582203 167.917055 
L 300.653849 168.442601 
L 294.709221 168.730656 
L 288.991953 168.783286 
L 281.788602 170.644053 
L 274.634016 172.684303 
L 267.532667 174.902762 
L 260.488993 177.298043 
L 253.507396 179.868649 
L 246.592239 182.612974 
L 239.747843 185.529302 
L 236.16 187.139721 
L 232.35426 191.715519 
L 228.734548 196.439845 
L 225.306654 201.305143 
L 222.076061 206.303628 
L 219.047939 211.427304 
L 216.227132 216.667975 
L 213.618151 222.017255 
L 211.225172 227.466588 
L 209.052022 233.007256 
L 207.102178 238.630395 
L 205.378759 244.327009 
L 204.165675 248.928 
L 202.625277 243.179196 
L 200.85622 237.496589 
L 198.861334 231.889271 
L 196.643811 226.366213 
L 194.207198 220.93625 
L 191.555394 215.608069 
L 188.69264 210.390193 
L 185.623517 205.290971 
L 179.956868 196.257209 
L 177.940323 192.275392 
L 176.166171 188.179821 
L 174.640799 183.985234 
L 173.369696 179.706728 
L 172.357436 175.3597 
L 171.607664 170.959796 
L 171.123076 166.52285 
L 170.905418 162.064829 
L 170.955472 157.60178 
L 171.273058 153.149762 
L 171.857033 148.7248 
L 172.705296 144.342818 
L 173.814794 140.019586 
L 173.997179 139.398362 
L 172.216091 143.490922 
L 170.192801 147.469316 
L 167.934592 151.319226 
L 165.44959 155.026797 
L 162.74674 158.578686 
L 159.835767 161.96211 
L 156.727149 165.164892 
L 153.432073 168.175505 
L 149.962398 170.983115 
L 146.330611 173.577617 
L 142.549782 175.949674 
L 138.633519 178.090749 
L 134.595915 179.993136 
L 130.451503 181.649989 
L 126.215196 183.055346 
L 125.594045 183.237979 
L 129.999617 182.522255 
L 134.440178 182.071995 
L 138.899748 181.888819 
L 143.362277 181.973387 
L 147.811705 182.325393 
L 152.232019 182.943572 
L 156.60731 183.825697 
L 160.921832 184.968596 
L 165.160058 186.368153 
L 169.306734 188.019334 
L 173.346937 189.916194 
L 177.266126 192.051908 
L 181.050197 194.418789 
L 184.685531 197.008319 
L 188.159045 199.811179 
L 188.648646 200.234822 
L 185.663606 196.916562 
L 182.882912 193.425278 
L 180.316574 189.773535 
L 177.973827 185.974475 
L 175.863103 182.041771 
L 173.991997 177.989577 
L 172.367244 173.832475 
L 170.994692 169.585426 
L 169.879279 165.263717 
L 169.02502 160.8829 
L 168.43499 156.458741 
L 168.111312 152.007162 
L 168.055151 147.544185 
L 168.266709 143.085871 
L 168.745225 138.648266 
L 168.836704 138.007317 
L 167.660474 142.312872 
L 166.228182 146.540147 
L 164.544982 150.67393 
L 162.616934 154.699343 
L 160.450975 158.601898 
L 158.0549 162.367552 
L 155.437334 165.982751 
L 152.607696 169.434485 
L 149.57617 172.710331 
L 146.353666 175.7985 
L 142.951782 178.687878 
L 139.382761 181.368066 
L 135.659448 183.829418 
L 131.795242 186.063077 
L 127.80405 188.061002 
L 127.215482 188.330763 
L 131.473018 186.991096 
L 135.803224 185.909139 
L 140.190517 185.088785 
L 144.619107 184.532987 
L 149.073055 184.243744 
L 153.536333 184.222099 
L 157.992877 184.468129 
L 162.426649 184.980949 
L 166.821692 185.758712 
L 171.162189 186.798621 
L 175.432518 188.096931 
L 179.61731 189.648972 
L 183.701506 191.449156 
L 187.670406 193.491006 
L 191.509727 195.767172 
L 192.054984 196.116282 
L 188.625237 193.260035 
L 185.372932 190.203266 
L 182.309777 186.956976 
L 179.446794 183.532849 
L 176.794287 179.943207 
L 174.361803 176.20097 
L 172.158095 172.319606 
L 170.191095 168.313082 
L 168.467882 164.195819 
L 166.994657 159.982635 
L 165.776722 155.688691 
L 164.818462 151.329441 
L 164.123323 146.920575 
L 163.693809 142.477959 
L 163.531465 138.017582 
L 163.530151 137.37014 
L 162.983058 141.799813 
L 162.171329 146.18871 
L 161.097884 150.521035 
L 159.766588 154.781195 
L 158.182231 158.95386 
L 156.350515 163.024012 
L 154.278033 166.977003 
L 151.972243 170.798606 
L 149.441444 174.475068 
L 146.694743 177.993157 
L 143.742026 181.340213 
L 140.59392 184.504189 
L 137.261753 187.473698 
L 133.757519 190.238054 
L 130.093829 192.787308 
L 129.549994 193.138628 
L 133.571609 191.202671 
L 137.702075 189.51135 
L 141.926527 188.070752 
L 146.229762 186.886061 
L 150.596291 185.961541 
L 155.010401 185.30052 
L 159.456206 184.905375 
L 163.917705 184.77753 
L 168.378842 184.917445 
L 172.823562 185.324615 
L 177.235867 185.997575 
L 181.59988 186.933905 
L 185.899894 188.130233 
L 190.120433 189.582254 
L 194.246309 191.284743 
L 194.835967 191.552112 
L 191.03231 189.216837 
L 187.37553 186.657681 
L 183.878787 183.883856 
L 180.554666 180.905343 
L 177.415131 177.732862 
L 174.47148 174.37783 
L 171.734306 170.852323 
L 169.213462 167.169028 
L 166.918019 163.341201 
L 164.856238 159.382618 
L 163.03554 155.307526 
L 161.462477 151.13059 
L 160.142711 146.866843 
L 159.080991 142.531631 
L 158.281138 138.140554 
L 158.187057 137.499983 
L 158.280395 141.962337 
L 158.105985 146.422258 
L 157.664454 150.863696 
L 156.957391 155.270666 
L 155.98734 159.627307 
L 154.757794 163.91794 
L 153.273177 168.127124 
L 151.538831 172.23971 
L 149.561 176.240897 
L 147.3468 180.116286 
L 144.9042 183.851929 
L 142.241992 187.434381 
L 139.369756 190.850751 
L 136.29783 194.088742 
L 133.037268 197.136701 
L 132.549391 197.562329 
L 136.25207 195.070045 
L 140.097535 192.804273 
L 144.071944 190.773167 
L 148.160995 188.984038 
L 152.349971 187.443325 
L 156.623797 186.156572 
L 160.96709 185.128409 
L 165.364221 184.362539 
L 169.799364 183.861716 
L 174.256558 183.627743 
L 178.719761 183.661462 
L 183.172911 183.962753 
L 187.599981 184.530529 
L 191.985038 185.362749 
L 196.312302 186.456417 
L 196.934189 186.636528 
L 192.835138 184.870429 
L 188.849366 182.861714 
L 184.991217 180.61761 
L 181.274576 178.146194 
L 177.712818 175.456361 
L 174.318763 172.55779 
L 171.104626 169.460915 
L 168.081973 166.176879 
L 165.261683 162.717503 
L 162.653907 159.095236 
L 160.268028 155.323114 
L 158.112635 151.414713 
L 156.195483 147.384099 
L 154.523473 143.245778 
L 153.102622 139.014643 
L 152.917717 138.394165 
L 153.649559 142.797087 
L 154.116068 147.235971 
L 154.315564 151.694841 
L 154.24733 156.15765 
L 153.91161 160.608336 
L 153.309614 165.030883 
L 152.443507 169.409373 
L 151.316407 173.728049 
L 149.93237 177.971369 
L 148.296377 182.12406 
L 146.414315 186.171178 
L 144.29296 190.098158 
L 141.939944 193.890866 
L 139.363736 197.535653 
L 136.573608 201.019401 
L 136.151759 201.51055 
L 136.151759 201.51055 
" style="fill:none;stroke:#1f77b4;stroke-linecap:square;stroke-width:1.5;"/>
   </g>
   <g id="patch_5">
    <path d="M 57.6 263.808 
L 57.6 85.248 
" style="fill:none;stroke:#000000;stroke-linecap:square;stroke-linejoin:miter;stroke-width:0.8;"/>
   </g>
   <g id="patch_6">
    <path d="M 414.72 263.808 
L 414.72 85.248 
" style="fill:none;stroke:#000000;stroke-linecap:square;stroke-linejoin:miter;stroke-width:0.8;"/>
   </g>
   <g id="patch_7">
    <path d="M 57.6 263.808 
L 414.72 263.808 
" style="fill:none;stroke:#000000;stroke-linecap:square;stroke-linejoin:miter;stroke-width:0.8;"/>
   </g>
   <g id="patch_8">
    <path d="M 57.6 85.248 
L 414.72 85.248 
" style="fill:none;stroke:#000000;stroke-linecap:square;stroke-linejoin:miter;stroke-width:0.8;"/>
   </g>
  </g>
 </g>
 <defs>
  <clipPath id="p4f3b297db6">
   <rect height="178.56" width="357.12" x="57.6" y="85.248"/>
  </clipPath>
 </defs>
</svg>
