<?xml version="1.0" encoding="utf-8" standalone="no"?>
<!DOCTYPE svg PUBLIC "-//W3C//DTD SVG 1.1//EN"
  "http://www.w3.org/Graphics/SVG/1.1/DTD/svg11.dtd">
<!-- Created with matplotlib (http://matplotlib.org/) -->
<svg height="345.6pt" version="1.1" viewBox="0 0 460.8 345.6" width="460.8pt" xmlns="http://www.w3.org/2000/svg" xmlns:xlink="http://www.w3.org/1999/xlink">
 <defs>
  <style type="text/css">
*{stroke-linecap:butt;stroke-linejoin:round;}
  </style>
 </defs>
 <g id="figure_1">
  <g id="patch_1">
   <path d="M 0 345.6 
L 460.8 345.6 
L 460.8 0 
L 0 0 
z
" style="fill:#ffffff;"/>
  </g>
  <g id="axes_1">
   <g id="patch_2">
    <path d="M 57.6 263.808 
L 414.72 263.808 
L 414.72 85.248 
L 57.6 85.248 
z
" style="fill:#ffffff;"/>
   </g>
   <g id="PathCollection_1">
    <defs>
     <path d="M 0 3 
C 0.795609 3 1.55874 2.683901 2.12132 2.12132 
C 2.683901 1.55874 3 0.795609 3 0 
C 3 -0.795609 2.683901 -1.55874 2.12132 -2.12132 
C 1.55874 -2.683901 0.795609 -3 0 -3 
C -0.795609 -3 -1.55874 -2.683901 -2.12132 -2.12132 
C -2.683901 -1.55874 -3 -0.795609 -3 0 
C -3 0.795609 -2.683901 1.55874 -2.12132 2.12132 
C -1.55874 2.683901 -0.795609 3 0 3 
z
" id="m45ea52281b" style="stroke:#000000;"/>
    </defs>
    <g clip-path="url(#p5a52df399d)">
     <use style="stroke:#000000;" x="117.132166" xlink:href="#m45ea52281b" y="179.656115"/>
    </g>
   </g>
   <g id="patch_3">
    <path clip-path="url(#p5a52df399d)" d="M 161.76 211.728 
C 171.625555 211.728 181.088371 207.808373 188.064372 200.832372 
C 195.040373 193.856371 198.96 184.393555 198.96 174.528 
C 198.96 164.662445 195.040373 155.199629 188.064372 148.223628 
C 181.088371 141.247627 171.625555 137.328 161.76 137.328 
C 151.894445 137.328 142.431629 141.247627 135.455628 148.223628 
C 128.479627 155.199629 124.56 164.662445 124.56 174.528 
C 124.56 184.393555 128.479627 193.856371 135.455628 200.832372 
C 142.431629 207.808373 151.894445 211.728 161.76 211.728 
z
" style="fill:#cc0000;fill-opacity:0.1;stroke:#cc0000;stroke-dasharray:7.4,3.2;stroke-dashoffset:0;stroke-linejoin:miter;stroke-width:2;"/>
   </g>
   <g id="patch_4">
    <path clip-path="url(#p5a52df399d)" d="M 310.56 196.848 
C 316.479333 196.848 322.157023 194.496224 326.342623 190.310623 
C 330.528224 186.125023 332.88 180.447333 332.88 174.528 
C 332.88 168.608667 330.528224 162.930977 326.342623 158.745377 
C 322.157023 154.559776 316.479333 152.208 310.56 152.208 
C 304.640667 152.208 298.962977 154.559776 294.777377 158.745377 
C 290.591776 162.930977 288.24 168.608667 288.24 174.528 
C 288.24 180.447333 290.591776 186.125023 294.777377 190.310623 
C 298.962977 194.496224 304.640667 196.848 310.56 196.848 
z
" style="fill:#cc0000;fill-opacity:0.1;stroke:#cc0000;stroke-dasharray:7.4,3.2;stroke-dashoffset:0;stroke-linejoin:miter;stroke-width:2;"/>
   </g>
   <g id="matplotlib.axis_1">
    <g id="xtick_1">
     <g id="line2d_1">
      <defs>
       <path d="M 0 0 
L 0 3.5 
" id="m7a3810423b" style="stroke:#000000;stroke-width:0.8;"/>
      </defs>
      <g>
       <use style="stroke:#000000;stroke-width:0.8;" x="87.36" xlink:href="#m7a3810423b" y="263.808"/>
      </g>
     </g>
     <g id="text_1">
      <!-- 0.0 -->
      <defs>
       <path d="M 31.78125 66.40625 
Q 24.171875 66.40625 20.328125 58.90625 
Q 16.5 51.421875 16.5 36.375 
Q 16.5 21.390625 20.328125 13.890625 
Q 24.171875 6.390625 31.78125 6.390625 
Q 39.453125 6.390625 43.28125 13.890625 
Q 47.125 21.390625 47.125 36.375 
Q 47.125 51.421875 43.28125 58.90625 
Q 39.453125 66.40625 31.78125 66.40625 
z
M 31.78125 74.21875 
Q 44.046875 74.21875 50.515625 64.515625 
Q 56.984375 54.828125 56.984375 36.375 
Q 56.984375 17.96875 50.515625 8.265625 
Q 44.046875 -1.421875 31.78125 -1.421875 
Q 19.53125 -1.421875 13.0625 8.265625 
Q 6.59375 17.96875 6.59375 36.375 
Q 6.59375 54.828125 13.0625 64.515625 
Q 19.53125 74.21875 31.78125 74.21875 
z
" id="DejaVuSans-30"/>
       <path d="M 10.6875 12.40625 
L 21 12.40625 
L 21 0 
L 10.6875 0 
z
" id="DejaVuSans-2e"/>
      </defs>
      <g transform="translate(79.408438 278.406437)scale(0.1 -0.1)">
       <use xlink:href="#DejaVuSans-30"/>
       <use x="63.623047" xlink:href="#DejaVuSans-2e"/>
       <use x="95.410156" xlink:href="#DejaVuSans-30"/>
      </g>
     </g>
    </g>
    <g id="xtick_2">
     <g id="line2d_2">
      <g>
       <use style="stroke:#000000;stroke-width:0.8;" x="161.76" xlink:href="#m7a3810423b" y="263.808"/>
      </g>
     </g>
     <g id="text_2">
      <!-- 0.5 -->
      <defs>
       <path d="M 10.796875 72.90625 
L 49.515625 72.90625 
L 49.515625 64.59375 
L 19.828125 64.59375 
L 19.828125 46.734375 
Q 21.96875 47.46875 24.109375 47.828125 
Q 26.265625 48.1875 28.421875 48.1875 
Q 40.625 48.1875 47.75 41.5 
Q 54.890625 34.8125 54.890625 23.390625 
Q 54.890625 11.625 47.5625 5.09375 
Q 40.234375 -1.421875 26.90625 -1.421875 
Q 22.3125 -1.421875 17.546875 -0.640625 
Q 12.796875 0.140625 7.71875 1.703125 
L 7.71875 11.625 
Q 12.109375 9.234375 16.796875 8.0625 
Q 21.484375 6.890625 26.703125 6.890625 
Q 35.15625 6.890625 40.078125 11.328125 
Q 45.015625 15.765625 45.015625 23.390625 
Q 45.015625 31 40.078125 35.4375 
Q 35.15625 39.890625 26.703125 39.890625 
Q 22.75 39.890625 18.8125 39.015625 
Q 14.890625 38.140625 10.796875 36.28125 
z
" id="DejaVuSans-35"/>
      </defs>
      <g transform="translate(153.808437 278.406437)scale(0.1 -0.1)">
       <use xlink:href="#DejaVuSans-30"/>
       <use x="63.623047" xlink:href="#DejaVuSans-2e"/>
       <use x="95.410156" xlink:href="#DejaVuSans-35"/>
      </g>
     </g>
    </g>
    <g id="xtick_3">
     <g id="line2d_3">
      <g>
       <use style="stroke:#000000;stroke-width:0.8;" x="236.16" xlink:href="#m7a3810423b" y="263.808"/>
      </g>
     </g>
     <g id="text_3">
      <!-- 1.0 -->
      <defs>
       <path d="M 12.40625 8.296875 
L 28.515625 8.296875 
L 28.515625 63.921875 
L 10.984375 60.40625 
L 10.984375 69.390625 
L 28.421875 72.90625 
L 38.28125 72.90625 
L 38.28125 8.296875 
L 54.390625 8.296875 
L 54.390625 0 
L 12.40625 0 
z
" id="DejaVuSans-31"/>
      </defs>
      <g transform="translate(228.208437 278.406437)scale(0.1 -0.1)">
       <use xlink:href="#DejaVuSans-31"/>
       <use x="63.623047" xlink:href="#DejaVuSans-2e"/>
       <use x="95.410156" xlink:href="#DejaVuSans-30"/>
      </g>
     </g>
    </g>
    <g id="xtick_4">
     <g id="line2d_4">
      <g>
       <use style="stroke:#000000;stroke-width:0.8;" x="310.56" xlink:href="#m7a3810423b" y="263.808"/>
      </g>
     </g>
     <g id="text_4">
      <!-- 1.5 -->
      <g transform="translate(302.608437 278.406437)scale(0.1 -0.1)">
       <use xlink:href="#DejaVuSans-31"/>
       <use x="63.623047" xlink:href="#DejaVuSans-2e"/>
       <use x="95.410156" xlink:href="#DejaVuSans-35"/>
      </g>
     </g>
    </g>
    <g id="xtick_5">
     <g id="line2d_5">
      <g>
       <use style="stroke:#000000;stroke-width:0.8;" x="384.96" xlink:href="#m7a3810423b" y="263.808"/>
      </g>
     </g>
     <g id="text_5">
      <!-- 2.0 -->
      <defs>
       <path d="M 19.1875 8.296875 
L 53.609375 8.296875 
L 53.609375 0 
L 7.328125 0 
L 7.328125 8.296875 
Q 12.9375 14.109375 22.625 23.890625 
Q 32.328125 33.6875 34.8125 36.53125 
Q 39.546875 41.84375 41.421875 45.53125 
Q 43.3125 49.21875 43.3125 52.78125 
Q 43.3125 58.59375 39.234375 62.25 
Q 35.15625 65.921875 28.609375 65.921875 
Q 23.96875 65.921875 18.8125 64.3125 
Q 13.671875 62.703125 7.8125 59.421875 
L 7.8125 69.390625 
Q 13.765625 71.78125 18.9375 73 
Q 24.125 74.21875 28.421875 74.21875 
Q 39.75 74.21875 46.484375 68.546875 
Q 53.21875 62.890625 53.21875 53.421875 
Q 53.21875 48.921875 51.53125 44.890625 
Q 49.859375 40.875 45.40625 35.40625 
Q 44.1875 33.984375 37.640625 27.21875 
Q 31.109375 20.453125 19.1875 8.296875 
z
" id="DejaVuSans-32"/>
      </defs>
      <g transform="translate(377.008437 278.406437)scale(0.1 -0.1)">
       <use xlink:href="#DejaVuSans-32"/>
       <use x="63.623047" xlink:href="#DejaVuSans-2e"/>
       <use x="95.410156" xlink:href="#DejaVuSans-30"/>
      </g>
     </g>
    </g>
   </g>
   <g id="matplotlib.axis_2">
    <g id="ytick_1">
     <g id="line2d_6">
      <defs>
       <path d="M 0 0 
L -3.5 0 
" id="mb8ddcbfc55" style="stroke:#000000;stroke-width:0.8;"/>
      </defs>
      <g>
       <use style="stroke:#000000;stroke-width:0.8;" x="57.6" xlink:href="#mb8ddcbfc55" y="248.928"/>
      </g>
     </g>
     <g id="text_6">
      <!-- 0.0 -->
      <g transform="translate(34.696875 252.727219)scale(0.1 -0.1)">
       <use xlink:href="#DejaVuSans-30"/>
       <use x="63.623047" xlink:href="#DejaVuSans-2e"/>
       <use x="95.410156" xlink:href="#DejaVuSans-30"/>
      </g>
     </g>
    </g>
    <g id="ytick_2">
     <g id="line2d_7">
      <g>
       <use style="stroke:#000000;stroke-width:0.8;" x="57.6" xlink:href="#mb8ddcbfc55" y="219.168"/>
      </g>
     </g>
     <g id="text_7">
      <!-- 0.2 -->
      <g transform="translate(34.696875 222.967219)scale(0.1 -0.1)">
       <use xlink:href="#DejaVuSans-30"/>
       <use x="63.623047" xlink:href="#DejaVuSans-2e"/>
       <use x="95.410156" xlink:href="#DejaVuSans-32"/>
      </g>
     </g>
    </g>
    <g id="ytick_3">
     <g id="line2d_8">
      <g>
       <use style="stroke:#000000;stroke-width:0.8;" x="57.6" xlink:href="#mb8ddcbfc55" y="189.408"/>
      </g>
     </g>
     <g id="text_8">
      <!-- 0.4 -->
      <defs>
       <path d="M 37.796875 64.3125 
L 12.890625 25.390625 
L 37.796875 25.390625 
z
M 35.203125 72.90625 
L 47.609375 72.90625 
L 47.609375 25.390625 
L 58.015625 25.390625 
L 58.015625 17.1875 
L 47.609375 17.1875 
L 47.609375 0 
L 37.796875 0 
L 37.796875 17.1875 
L 4.890625 17.1875 
L 4.890625 26.703125 
z
" id="DejaVuSans-34"/>
      </defs>
      <g transform="translate(34.696875 193.207219)scale(0.1 -0.1)">
       <use xlink:href="#DejaVuSans-30"/>
       <use x="63.623047" xlink:href="#DejaVuSans-2e"/>
       <use x="95.410156" xlink:href="#DejaVuSans-34"/>
      </g>
     </g>
    </g>
    <g id="ytick_4">
     <g id="line2d_9">
      <g>
       <use style="stroke:#000000;stroke-width:0.8;" x="57.6" xlink:href="#mb8ddcbfc55" y="159.648"/>
      </g>
     </g>
     <g id="text_9">
      <!-- 0.6 -->
      <defs>
       <path d="M 33.015625 40.375 
Q 26.375 40.375 22.484375 35.828125 
Q 18.609375 31.296875 18.609375 23.390625 
Q 18.609375 15.53125 22.484375 10.953125 
Q 26.375 6.390625 33.015625 6.390625 
Q 39.65625 6.390625 43.53125 10.953125 
Q 47.40625 15.53125 47.40625 23.390625 
Q 47.40625 31.296875 43.53125 35.828125 
Q 39.65625 40.375 33.015625 40.375 
z
M 52.59375 71.296875 
L 52.59375 62.3125 
Q 48.875 64.0625 45.09375 64.984375 
Q 41.3125 65.921875 37.59375 65.921875 
Q 27.828125 65.921875 22.671875 59.328125 
Q 17.53125 52.734375 16.796875 39.40625 
Q 19.671875 43.65625 24.015625 45.921875 
Q 28.375 48.1875 33.59375 48.1875 
Q 44.578125 48.1875 50.953125 41.515625 
Q 57.328125 34.859375 57.328125 23.390625 
Q 57.328125 12.15625 50.6875 5.359375 
Q 44.046875 -1.421875 33.015625 -1.421875 
Q 20.359375 -1.421875 13.671875 8.265625 
Q 6.984375 17.96875 6.984375 36.375 
Q 6.984375 53.65625 15.1875 63.9375 
Q 23.390625 74.21875 37.203125 74.21875 
Q 40.921875 74.21875 44.703125 73.484375 
Q 48.484375 72.75 52.59375 71.296875 
z
" id="DejaVuSans-36"/>
      </defs>
      <g transform="translate(34.696875 163.447219)scale(0.1 -0.1)">
       <use xlink:href="#DejaVuSans-30"/>
       <use x="63.623047" xlink:href="#DejaVuSans-2e"/>
       <use x="95.410156" xlink:href="#DejaVuSans-36"/>
      </g>
     </g>
    </g>
    <g id="ytick_5">
     <g id="line2d_10">
      <g>
       <use style="stroke:#000000;stroke-width:0.8;" x="57.6" xlink:href="#mb8ddcbfc55" y="129.888"/>
      </g>
     </g>
     <g id="text_10">
      <!-- 0.8 -->
      <defs>
       <path d="M 31.78125 34.625 
Q 24.75 34.625 20.71875 30.859375 
Q 16.703125 27.09375 16.703125 20.515625 
Q 16.703125 13.921875 20.71875 10.15625 
Q 24.75 6.390625 31.78125 6.390625 
Q 38.8125 6.390625 42.859375 10.171875 
Q 46.921875 13.96875 46.921875 20.515625 
Q 46.921875 27.09375 42.890625 30.859375 
Q 38.875 34.625 31.78125 34.625 
z
M 21.921875 38.8125 
Q 15.578125 40.375 12.03125 44.71875 
Q 8.5 49.078125 8.5 55.328125 
Q 8.5 64.0625 14.71875 69.140625 
Q 20.953125 74.21875 31.78125 74.21875 
Q 42.671875 74.21875 48.875 69.140625 
Q 55.078125 64.0625 55.078125 55.328125 
Q 55.078125 49.078125 51.53125 44.71875 
Q 48 40.375 41.703125 38.8125 
Q 48.828125 37.15625 52.796875 32.3125 
Q 56.78125 27.484375 56.78125 20.515625 
Q 56.78125 9.90625 50.3125 4.234375 
Q 43.84375 -1.421875 31.78125 -1.421875 
Q 19.734375 -1.421875 13.25 4.234375 
Q 6.78125 9.90625 6.78125 20.515625 
Q 6.78125 27.484375 10.78125 32.3125 
Q 14.796875 37.15625 21.921875 38.8125 
z
M 18.3125 54.390625 
Q 18.3125 48.734375 21.84375 45.5625 
Q 25.390625 42.390625 31.78125 42.390625 
Q 38.140625 42.390625 41.71875 45.5625 
Q 45.3125 48.734375 45.3125 54.390625 
Q 45.3125 60.0625 41.71875 63.234375 
Q 38.140625 66.40625 31.78125 66.40625 
Q 25.390625 66.40625 21.84375 63.234375 
Q 18.3125 60.0625 18.3125 54.390625 
z
" id="DejaVuSans-38"/>
      </defs>
      <g transform="translate(34.696875 133.687219)scale(0.1 -0.1)">
       <use xlink:href="#DejaVuSans-30"/>
       <use x="63.623047" xlink:href="#DejaVuSans-2e"/>
       <use x="95.410156" xlink:href="#DejaVuSans-38"/>
      </g>
     </g>
    </g>
    <g id="ytick_6">
     <g id="line2d_11">
      <g>
       <use style="stroke:#000000;stroke-width:0.8;" x="57.6" xlink:href="#mb8ddcbfc55" y="100.128"/>
      </g>
     </g>
     <g id="text_11">
      <!-- 1.0 -->
      <g transform="translate(34.696875 103.927219)scale(0.1 -0.1)">
       <use xlink:href="#DejaVuSans-31"/>
       <use x="63.623047" xlink:href="#DejaVuSans-2e"/>
       <use x="95.410156" xlink:href="#DejaVuSans-30"/>
      </g>
     </g>
    </g>
   </g>
   <g id="line2d_12">
    <path clip-path="url(#p5a52df399d)" d="M 236.16 248.928 
L 236.16 100.128 
" style="fill:none;stroke:#cc0000;stroke-dasharray:7.4,3.2;stroke-dashoffset:0;stroke-width:2;"/>
   </g>
   <g id="line2d_13">
    <path clip-path="url(#p5a52df399d)" d="M 87.36 248.928 
L 384.96 248.928 
" style="fill:none;stroke:#009900;stroke-linecap:square;stroke-width:2;"/>
   </g>
   <g id="line2d_14">
    <path clip-path="url(#p5a52df399d)" d="M 384.96 248.928 
L 384.96 100.128 
" style="fill:none;stroke:#009900;stroke-linecap:square;stroke-width:2;"/>
   </g>
   <g id="line2d_15">
    <path clip-path="url(#p5a52df399d)" d="M 384.96 100.128 
L 87.36 100.128 
" style="fill:none;stroke:#009900;stroke-linecap:square;stroke-width:2;"/>
   </g>
   <g id="line2d_16">
    <path clip-path="url(#p5a52df399d)" d="M 87.36 100.128 
L 87.36 248.928 
" style="fill:none;stroke:#009900;stroke-linecap:square;stroke-width:2;"/>
   </g>
   <g id="line2d_17">
    <path clip-path="url(#p5a52df399d)" d="M 117.132166 179.656115 
L 111.207486 179.090653 
L 105.264932 178.762567 
L 99.314012 178.672383 
L 93.364246 178.820244 
L 87.36 179.211469 
L 93.298924 179.599749 
L 99.248625 179.750224 
L 105.199584 179.662655 
L 111.142281 179.337181 
L 117.067209 178.774322 
L 122.964889 177.97498 
L 126.173029 177.522686 
L 130.623523 177.184417 
L 135.086292 177.113626 
L 139.545275 177.310568 
L 143.984425 177.774534 
L 148.387766 178.503854 
L 152.73945 179.495904 
L 157.023816 180.747113 
L 161.225446 182.252978 
L 165.329216 184.00808 
L 169.32036 186.006103 
L 173.184512 188.239855 
L 176.907766 190.701297 
L 180.476722 193.381572 
L 183.878535 196.271032 
L 187.100964 199.359279 
L 188.29348 200.601251 
L 187.200715 199.591333 
L 184.046621 196.433326 
L 181.08757 193.091869 
L 178.33421 189.578989 
L 175.796451 185.907327 
L 173.483426 182.090098 
L 171.40346 178.14104 
L 169.564038 174.074365 
L 167.97178 169.904709 
L 166.632417 165.647078 
L 165.550768 161.316794 
L 164.730727 156.929443 
L 164.175245 152.500814 
L 163.88632 148.046845 
L 163.864994 143.583565 
L 164.111342 139.127038 
L 164.27774 137.4133 
L 164.222547 138.900251 
L 163.87876 143.350321 
L 163.268747 147.77177 
L 162.394705 152.148683 
L 161.259778 156.465309 
L 159.868051 160.706112 
L 158.224532 164.855831 
L 156.335138 168.899531 
L 154.206667 172.822658 
L 151.846779 176.611094 
L 149.263969 180.251205 
L 146.46753 183.72989 
L 143.467527 187.03463 
L 140.274758 190.15353 
L 136.900712 193.075367 
L 133.357532 195.789625 
L 130.691556 197.575578 
L 125.745863 200.886424 
L 120.936525 204.392397 
L 116.271235 208.087888 
L 111.757457 211.966985 
L 107.402412 216.023482 
L 103.213068 220.250889 
L 99.196126 224.642444 
L 95.358012 229.191121 
L 91.704867 233.889643 
L 88.242534 238.730494 
L 87.36 240.032778 
L 90.770961 244.909962 
L 93.807957 248.928 
L 97.382026 244.169049 
L 100.762928 239.27098 
L 103.945256 234.241629 
L 106.923918 229.089042 
L 109.694148 223.821462 
L 112.251516 218.447315 
L 114.591929 212.9752 
L 116.711644 207.41387 
L 118.60727 201.772223 
L 120.275774 196.059283 
L 121.714486 190.284191 
L 122.921106 184.456186 
L 123.893702 178.58459 
L 124.58817 173.080567 
L 124.296478 167.136116 
L 123.767305 161.208085 
L 123.001496 155.305957 
L 122.000279 149.439174 
L 120.765253 143.617121 
L 119.298395 137.849114 
L 117.602052 132.144379 
L 115.678937 126.512043 
L 113.532127 120.961116 
L 111.165057 115.500479 
L 108.581512 110.138867 
L 105.785627 104.884859 
L 103.014261 100.128 
L 100.025935 105.274989 
L 97.245825 110.537361 
L 94.678377 115.906699 
L 92.327698 121.374413 
L 90.197551 126.931755 
L 88.291342 132.569835 
L 87.36 135.631771 
L 89.144509 141.309544 
L 91.154642 146.911414 
L 93.387181 152.428419 
L 95.838557 157.851734 
L 98.504846 163.172681 
L 101.381783 168.382749 
L 104.464766 173.473603 
L 107.748864 178.437099 
L 111.228821 183.265295 
L 114.899071 187.950468 
L 118.753742 192.485123 
L 122.786667 196.862004 
L 126.991395 201.074111 
L 131.3612 205.114704 
L 135.889089 208.977319 
L 140.56782 212.655778 
L 145.389908 216.144195 
L 150.347638 219.436989 
L 155.433079 222.528893 
L 160.638095 225.414961 
L 165.95436 228.090574 
L 171.373368 230.551454 
L 176.886451 232.793663 
L 182.484788 234.813614 
L 188.159424 236.608075 
L 193.901279 238.174176 
L 199.70117 239.509411 
L 205.549816 240.611644 
L 211.437861 241.479113 
L 217.355887 242.110428 
L 223.294424 242.504581 
L 229.243973 242.66094 
L 235.195015 242.579255 
L 249.538717 241.973186 
L 256.95613 241.396382 
L 264.356806 240.634341 
L 271.736121 239.687542 
L 279.089463 238.556574 
L 286.412235 237.242145 
L 293.699862 235.745077 
L 300.947788 234.066305 
L 308.151485 232.206879 
L 315.30645 230.167959 
L 322.408212 227.950822 
L 329.452332 225.556851 
L 336.434407 222.987545 
L 343.350075 220.244507 
L 350.195013 217.329452 
L 356.964943 214.244203 
L 363.655635 210.990688 
L 370.262906 207.570939 
L 376.782628 203.987094 
L 383.210726 200.241393 
L 384.96 199.184389 
L 378.557778 195.39463 
L 372.062822 191.766095 
L 365.479192 188.30105 
L 358.811003 185.001662 
L 352.06242 181.869992 
L 345.237663 178.907998 
L 338.340997 176.117531 
L 332.874808 174.046587 
L 339.704004 171.094842 
L 346.45728 167.973307 
L 353.130415 164.683933 
L 359.719239 161.228776 
L 366.219635 157.609995 
L 372.627539 153.829852 
L 378.938947 149.890709 
L 384.96 145.923592 
L 378.745878 141.832699 
L 372.431436 137.898421 
L 366.020621 134.123217 
L 359.517439 130.509447 
L 352.925954 127.059368 
L 346.250285 123.775138 
L 339.494606 120.658808 
L 332.663137 117.712326 
L 325.760149 114.937534 
L 318.789955 112.336166 
L 311.756912 109.909847 
L 304.665415 107.660094 
L 297.519896 105.588314 
L 290.324821 103.6958 
L 283.084686 101.983735 
L 275.804017 100.45319 
L 274.129731 100.128 
L 266.840409 101.616794 
L 259.590581 103.287336 
L 252.384778 105.138584 
L 245.227503 107.169379 
L 238.123229 109.378453 
L 236.16 110.023482 
L 243.248763 112.281833 
L 250.391765 114.362278 
L 257.58454 116.263516 
L 264.822593 117.984359 
L 272.101401 119.523732 
L 279.416415 120.880673 
L 286.763063 122.054334 
L 294.136754 123.043981 
L 301.532879 123.848995 
L 308.946816 124.468874 
L 316.373932 124.903231 
L 323.809585 125.151793 
L 331.249128 125.214405 
L 338.687911 125.091028 
L 346.121286 124.78174 
L 353.544606 124.286734 
L 360.953233 123.606318 
L 368.342536 122.740919 
L 375.707898 121.691077 
L 383.044714 120.457448 
L 384.96 120.10426 
L 377.631414 118.822644 
L 370.273081 117.724623 
L 362.889599 116.810885 
L 355.485584 116.082001 
L 348.065662 115.538425 
L 340.63447 115.180497 
L 333.196654 115.008442 
L 325.75686 115.022367 
L 318.31974 115.222263 
L 310.889941 115.608005 
L 303.472105 116.179352 
L 296.07087 116.935947 
L 288.690861 117.877318 
L 281.33669 119.002875 
L 274.012952 120.311916 
L 266.724226 121.803621 
L 259.475066 123.47706 
L 252.270003 125.331187 
L 245.11354 127.364841 
L 238.010149 129.576753 
L 236.16 130.185039 
L 231.464972 133.842674 
L 226.919966 137.685134 
L 222.532254 141.706273 
L 218.308853 145.899657 
L 214.256521 150.258578 
L 210.381742 154.776062 
L 206.690712 159.444882 
L 203.189339 164.25757 
L 199.883222 169.206425 
L 198.787205 170.946648 
L 202.921719 175.227696 
L 207.224122 179.339984 
L 211.687531 183.276932 
L 216.304805 187.032243 
L 221.068559 190.599907 
L 225.971171 193.974219 
L 231.004797 197.149779 
L 236.16 200.120746 
L 243.38849 201.881327 
L 250.658732 203.460665 
L 257.96618 204.857772 
L 265.30627 206.071775 
L 272.674413 207.101916 
L 280.066004 207.947551 
L 287.476424 208.608151 
L 294.901041 209.083303 
L 302.335216 209.372711 
L 309.774303 209.476193 
L 317.213652 209.393685 
L 324.648613 209.125238 
L 332.074541 208.671021 
L 339.486794 208.031317 
L 346.88074 207.206526 
L 354.251758 206.197163 
L 361.595241 205.003859 
L 368.9066 203.62736 
L 376.181265 202.068526 
L 383.41469 200.328332 
L 384.96 199.931657 
L 377.736008 198.15271 
L 370.469804 196.5549 
L 363.165929 195.139225 
L 355.828949 193.906571 
L 348.463448 192.857707 
L 341.07403 191.99329 
L 333.665313 191.313858 
L 325.839316 190.798369 
L 320.492434 188.184476 
L 315.254357 185.358856 
L 310.133464 182.326029 
L 305.137949 179.090847 
L 300.275802 175.658485 
L 295.554802 172.034435 
L 290.982501 168.224494 
L 289.557794 166.972224 
L 295.508562 166.872492 
L 301.458558 167.010808 
L 307.398263 167.386949 
L 313.318175 168.000314 
L 319.208824 168.849922 
L 325.060786 169.934414 
L 330.864699 171.252054 
L 332.702743 171.720632 
L 338.733575 176.077211 
L 344.871426 180.281674 
L 351.112459 184.331393 
L 357.452774 188.223836 
L 363.888409 191.956572 
L 370.415342 195.527268 
L 377.029493 198.933691 
L 384.96 202.748007 
L 378.248023 205.95738 
L 371.618369 209.333533 
L 365.075181 212.874354 
L 358.62255 216.577632 
L 352.264507 220.441051 
L 346.005027 224.462198 
L 339.84802 228.638559 
L 333.797336 232.967524 
L 327.856755 237.446387 
L 322.029991 242.07235 
L 316.320684 246.842522 
L 313.913298 248.928 
L 308.255371 244.096999 
L 302.478449 239.40894 
L 296.586143 234.866755 
L 290.582136 230.473281 
L 284.470179 226.231264 
L 278.254093 222.143357 
L 271.937762 218.212112 
L 265.525134 214.439988 
L 259.020217 210.829341 
L 252.427075 207.382429 
L 245.74983 204.101406 
L 238.992655 200.988321 
L 236.16 199.743583 
L 242.949176 196.700918 
L 249.660171 193.489493 
L 256.288793 190.111313 
L 262.830897 186.568491 
L 269.282396 182.86324 
L 275.639257 178.997877 
L 281.897507 174.974816 
L 288.625718 170.396455 
L 284.426326 164.255134 
L 280.074729 158.220706 
L 275.573647 152.296942 
L 270.925893 146.487545 
L 266.134371 140.796145 
L 261.202076 135.226298 
L 256.132092 129.781487 
L 250.927585 124.465114 
L 245.591809 119.280501 
L 240.128098 114.230888 
L 236.16 110.717983 
L 241.712764 105.766465 
L 247.710255 100.128 
L 253.123946 105.231202 
L 258.663512 110.19748 
L 264.325491 115.023733 
L 270.106345 119.706942 
L 276.00246 124.244181 
L 282.010152 128.632616 
L 288.125666 132.869502 
L 294.34518 136.952192 
L 300.664807 140.878135 
L 307.080598 144.644877 
L 313.588543 148.250064 
L 320.184574 151.691443 
L 326.86457 154.966862 
L 333.624355 158.074276 
L 340.459706 161.011741 
L 347.366349 163.777423 
L 354.339969 166.369592 
L 361.376207 168.78663 
L 368.470666 171.027024 
L 375.618913 173.089375 
L 382.816479 174.972394 
L 384.96 175.496214 
L 377.74867 177.325814 
L 370.585329 179.335107 
L 363.474453 181.522837 
L 356.420487 183.887637 
L 349.427839 186.428029 
L 342.500879 189.142424 
L 335.643936 192.029128 
L 328.861297 195.086335 
L 322.157199 198.312135 
L 315.535832 201.704512 
L 309.001335 205.261346 
L 302.557792 208.980414 
L 296.209229 212.859392 
L 289.959614 216.895855 
L 283.812854 221.087281 
L 277.772788 225.43105 
L 271.843194 229.924447 
L 266.027775 234.564665 
L 260.330167 239.348803 
L 254.75393 244.273872 
L 249.732678 248.928 
L 244.271213 243.875959 
L 238.685167 238.962019 
L 236.16 236.820328 
L 241.800372 231.968841 
L 247.317706 226.977876 
L 252.708556 221.850551 
L 257.969551 216.590071 
L 263.097404 211.199724 
L 268.08891 205.682879 
L 272.940949 200.042982 
L 277.650489 194.28356 
L 282.214588 188.408211 
L 286.630391 182.420607 
L 288.776697 179.393194 
L 282.277633 175.772022 
L 275.69008 172.314442 
L 269.018155 169.022614 
L 262.266028 165.898595 
L 255.437918 162.944337 
L 248.538094 160.161688 
L 241.570866 157.552386 
L 236.16 155.661397 
L 243.176188 153.186761 
L 250.128325 150.537513 
L 257.012064 147.715307 
L 263.823105 144.721908 
L 270.55719 141.559185 
L 277.210111 138.229116 
L 283.77771 134.733783 
L 290.255883 131.075368 
L 296.640581 127.256159 
L 302.927813 123.278543 
L 309.11365 119.145006 
L 315.194227 114.85813 
L 321.165743 110.420595 
L 327.024466 105.835175 
L 332.766735 101.104734 
L 333.916714 100.128 
L 339.634926 104.887492 
L 345.470327 109.502556 
L 351.419268 113.970309 
L 357.478033 118.287957 
L 363.642834 122.452803 
L 369.90982 126.462243 
L 376.275072 130.313773 
L 382.734614 134.004983 
L 384.96 135.227619 
L 378.4692 138.863583 
L 372.071318 142.660664 
L 365.770353 146.616489 
L 359.570241 150.728585 
L 353.474859 154.994383 
L 347.488016 159.411217 
L 341.613452 163.976326 
L 335.85484 168.686857 
L 332.660538 171.405719 
L 339.456713 174.432717 
L 346.326432 177.288882 
L 353.265401 179.972429 
L 360.269283 182.481682 
L 367.333702 184.815072 
L 374.454241 186.971141 
L 381.626452 188.948541 
L 384.96 189.802357 
L 377.765404 191.696693 
L 370.620411 193.770284 
L 363.529484 196.021833 
L 356.497056 198.449934 
L 349.527521 201.053068 
L 342.625236 203.829609 
L 335.794514 206.777821 
L 329.039625 209.895862 
L 322.364789 213.181784 
L 315.774178 216.633532 
L 309.271911 220.24895 
L 302.862052 224.025778 
L 296.548608 227.961655 
L 290.335522 232.054123 
L 284.226679 236.300622 
L 278.225897 240.698499 
L 272.336925 245.245007 
L 267.780629 248.928 
L 261.982299 244.266446 
L 256.069254 239.751293 
L 250.045189 235.385361 
L 243.91387 231.171379 
L 237.679128 227.11198 
L 236.16 226.156115 
L 233.445666 220.859516 
L 230.521695 215.675697 
L 227.392765 210.612952 
L 224.063883 205.679381 
L 220.540373 200.882877 
L 216.827873 196.231111 
L 212.932321 191.731527 
L 208.85995 187.391323 
L 204.617274 183.217441 
L 200.211082 179.216561 
L 198.79768 177.999348 
L 194.738938 176.142488 
L 190.798844 174.045591 
L 186.991578 171.716204 
L 183.330843 169.162709 
L 179.829812 166.394297 
L 176.501087 163.42093 
L 173.356647 160.25331 
L 170.407808 156.902838 
L 167.665184 153.38157 
L 165.138644 149.702179 
L 162.837281 145.877908 
L 160.769378 141.92252 
L 158.942377 137.85025 
L 158.777492 137.447754 
L 157.650094 141.766352 
L 156.265763 146.009576 
L 154.629483 150.162154 
L 152.747142 154.209142 
L 150.625515 158.135975 
L 148.272237 161.92852 
L 145.695777 165.573129 
L 142.905408 169.056685 
L 139.911172 172.36665 
L 136.723846 175.491113 
L 133.354899 178.418829 
L 129.816458 181.13926 
L 126.121255 183.642618 
L 125.753316 183.874589 
L 121.985201 188.481419 
L 118.404324 193.23525 
L 115.016414 198.128474 
L 111.826891 203.153265 
L 108.840857 208.301583 
L 106.063089 213.565193 
L 103.498031 218.935673 
L 101.149788 224.404433 
L 99.022114 229.962723 
L 97.118415 235.601651 
L 95.441736 241.312196 
L 93.994758 247.085223 
L 93.584145 248.928 
L 92.210531 243.137079 
L 90.60644 237.40572 
L 88.774439 231.743093 
L 87.36 227.830337 
L 89.349601 222.221142 
L 91.113302 216.536871 
L 92.648282 210.786617 
L 93.952086 204.97958 
L 95.022627 199.12505 
L 95.858193 193.232393 
L 96.457448 187.311035 
L 96.819432 181.370451 
L 96.943566 175.420142 
L 96.829652 169.469629 
L 96.477872 163.528431 
L 95.888789 157.606053 
L 95.063345 151.711969 
L 94.002862 145.855609 
L 92.709034 140.046342 
L 91.183932 134.29346 
L 89.429997 128.606168 
L 87.36 122.754369 
L 89.349601 117.145174 
L 91.113302 111.460903 
L 92.648282 105.710649 
L 93.90622 100.128 
L 95.21896 105.933023 
L 96.762789 111.680907 
L 98.535237 117.362457 
L 100.533469 122.968583 
L 102.754288 128.490317 
L 105.194141 133.918825 
L 107.849124 139.245423 
L 110.714991 144.461589 
L 113.787157 149.558978 
L 117.060706 154.529437 
L 120.530402 159.365012 
L 124.190694 164.057968 
L 125.605115 165.772187 
L 120.166561 168.189564 
L 114.829026 170.822492 
L 109.60105 173.666757 
L 104.490996 176.717811 
L 99.50704 179.970773 
L 94.657153 183.420437 
L 89.949096 187.061285 
L 87.36 189.196148 
L 91.984756 192.942241 
L 96.755617 196.500396 
L 101.66495 199.864921 
L 106.704901 203.030434 
L 111.867408 205.991871 
L 117.144211 208.744494 
L 122.526868 211.283899 
L 128.006769 213.606024 
L 133.575147 215.707154 
L 139.223094 217.583927 
L 144.941574 219.233342 
L 150.721439 220.652759 
L 156.553442 221.839908 
L 162.428253 222.792889 
L 168.336474 223.510178 
L 174.268653 223.990628 
L 180.2153 224.233469 
L 186.166901 224.238314 
L 192.113936 224.005154 
L 198.046889 223.534363 
L 203.95627 222.826694 
L 209.832625 221.883278 
L 215.666553 220.705625 
L 221.448721 219.29562 
L 227.169879 217.655517 
L 232.820873 215.787942 
L 236.16 214.564766 
L 230.555248 212.562682 
L 224.874918 210.78633 
L 219.128096 209.238552 
L 213.323976 207.921823 
L 207.471844 206.83825 
L 201.581062 205.989567 
L 195.661053 205.377131 
L 189.721289 205.001922 
L 183.290842 204.863834 
L 181.438671 210.519896 
L 179.814163 216.245502 
L 178.419917 222.03149 
L 177.258165 227.868605 
L 176.330764 233.747509 
L 175.639199 239.658796 
L 175.184575 245.59301 
L 175.033586 248.928 
L 174.712206 242.98508 
L 174.153429 237.059766 
L 173.358149 231.161536 
L 172.32764 225.299828 
L 171.063549 219.484017 
L 169.567899 213.723408 
L 168.45029 209.609091 
L 167.601102 205.227288 
L 167.016193 200.802449 
L 166.697667 196.350499 
L 166.646671 191.88746 
L 166.863389 187.429394 
L 167.34704 182.992345 
L 168.095885 178.592283 
L 169.107227 174.245042 
L 170.377427 169.966267 
L 171.901914 165.771359 
L 173.675201 161.675413 
L 175.690907 157.693171 
L 177.941776 153.838965 
L 180.419709 150.126666 
L 183.115787 146.569633 
L 184.404931 145.014493 
L 181.763841 148.612543 
L 178.911751 152.045748 
L 175.858923 155.301752 
L 172.616347 158.368838 
L 169.19569 161.235967 
L 165.609264 163.89282 
L 161.869976 166.329835 
L 157.991284 168.538243 
L 153.987146 170.510095 
L 149.871973 172.238294 
L 145.660576 173.716621 
L 141.368111 174.939756 
L 137.010025 175.903296 
L 132.602004 176.603775 
L 128.159912 177.03867 
L 124.655584 177.193018 
L 129.099642 176.778694 
L 133.560548 176.631598 
L 138.022247 176.752262 
L 142.468682 177.140249 
L 146.883851 177.794164 
L 151.251863 178.711654 
L 155.556999 179.889416 
L 159.783765 181.323212 
L 163.916948 183.007882 
L 167.941675 184.937362 
L 171.843459 187.10471 
L 175.60826 189.502124 
L 179.222528 192.120976 
L 182.673255 194.951842 
L 185.948023 197.984533 
L 188.390335 200.502319 
L 185.129643 197.454499 
L 182.057579 194.216639 
L 179.185197 190.800392 
L 176.522836 187.218053 
L 174.080077 183.482515 
L 171.865712 179.60722 
L 169.88771 175.606117 
L 168.153189 171.493605 
L 166.668392 167.284485 
L 165.438662 162.993904 
L 164.468426 158.637304 
L 163.761175 154.230365 
L 163.319454 149.788946 
L 163.144854 145.329032 
L 163.238002 140.866674 
L 163.498899 137.368664 
L 163.385092 141.830544 
L 163.003938 146.27757 
L 162.356808 150.693738 
L 161.446032 155.063155 
L 160.274886 159.370095 
L 158.847587 163.599059 
L 157.169271 167.734827 
L 155.245977 171.762513 
L 153.084628 175.667624 
L 150.693002 179.436104 
L 148.079707 183.054392 
L 145.254147 186.509465 
L 142.226491 189.788889 
L 139.007637 192.880861 
L 135.609167 195.774254 
L 132.820379 197.901881 
L 127.897859 201.247084 
L 123.11305 204.78646 
L 118.473605 208.514346 
L 113.986947 212.424778 
L 109.660253 216.5115 
L 105.500446 220.767976 
L 101.514179 225.187394 
L 97.707831 229.762686 
L 94.08749 234.486531 
L 90.658949 239.351373 
L 87.36 244.458979 
L 90.230151 248.928 
L 93.435529 243.913308 
L 96.437808 238.774446 
L 99.232187 233.519636 
L 101.814193 228.157284 
L 104.179698 222.695968 
L 106.324916 217.144426 
L 108.246415 211.511539 
L 109.941123 205.806317 
L 111.406326 200.03789 
L 112.639682 194.215483 
L 113.639217 188.348414 
L 114.403333 182.446066 
L 114.930806 176.517883 
L 115.220794 170.573349 
L 115.272831 164.621973 
L 115.086835 158.673277 
L 114.663104 152.736777 
L 114.002315 146.82197 
L 113.105525 140.938319 
L 111.974169 135.095236 
L 110.610058 129.30207 
L 109.015372 123.568087 
L 107.192664 117.902461 
L 105.144849 112.314256 
L 102.875204 106.812412 
L 100.387359 101.40573 
L 99.760601 100.128 
L 97.22116 105.51064 
L 94.898997 110.990526 
L 92.79783 116.558889 
L 90.921018 122.206823 
L 89.271564 127.925292 
L 87.852108 133.705147 
L 87.36 135.980484 
L 88.688861 141.781838 
L 90.248651 147.525411 
L 92.036875 153.202015 
L 94.050673 158.802569 
L 96.286822 164.318112 
L 98.741745 169.739822 
L 101.411515 175.059023 
L 104.291861 180.267208 
L 107.378175 185.356044 
L 110.665519 190.317389 
L 114.148635 195.143307 
L 117.82195 199.826078 
L 121.679587 204.358209 
L 125.715376 208.732451 
L 129.922859 212.941805 
L 134.295306 216.979538 
L 138.825722 220.83919 
L 143.506859 224.514586 
L 148.331228 227.999847 
L 153.291112 231.289397 
L 158.378575 234.377973 
L 163.585478 237.260634 
L 168.903493 239.932768 
L 174.32411 242.390102 
L 179.838659 244.628703 
L 185.438317 246.64499 
L 191.114125 248.435737 
L 192.828425 248.928 
L 198.52529 247.205412 
L 204.148713 245.256388 
L 209.689698 243.084047 
L 215.13938 240.691862 
L 220.489041 238.083662 
L 225.730123 235.263619 
L 230.854241 232.236245 
L 236.16 228.798785 
L 231.1691 225.556487 
L 226.052535 222.516365 
L 220.81849 219.683283 
L 215.475338 217.061773 
L 210.031628 214.656029 
L 204.496069 212.4699 
L 198.877515 210.506883 
L 193.184956 208.770118 
L 187.427499 207.262384 
L 181.614986 205.986219 
L 180.266017 211.78293 
L 179.149934 217.628949 
L 178.268521 223.514923 
L 177.62319 229.431437 
L 177.214973 235.369024 
L 177.044522 241.318185 
L 177.112111 247.269405 
L 177.173397 248.928 
L 177.229199 247.441053 
L 177.303657 241.489915 
L 177.140072 235.540561 
L 176.738708 229.602507 
L 176.100206 223.685253 
L 175.225587 217.798265 
L 174.116251 211.950962 
L 173.254168 208.342805 
L 172.263731 203.990753 
L 171.536043 199.587142 
L 171.073723 195.14782 
L 170.878434 190.688764 
L 170.950879 186.226022 
L 171.290798 181.775654 
L 171.896967 177.353678 
L 172.767205 172.976006 
L 173.89838 168.658396 
L 175.28642 164.416384 
L 176.926331 160.265238 
L 178.81221 156.219898 
L 180.93727 152.294922 
L 183.293863 148.504435 
L 185.258421 145.689411 
L 182.167218 148.909005 
L 178.888518 151.937444 
L 175.434121 154.76383 
L 171.816458 157.37799 
L 168.04855 159.770517 
L 164.143956 161.9328 
L 160.116729 163.857057 
L 155.981363 165.536362 
L 151.752741 166.964672 
L 147.44608 168.136847 
L 143.076881 169.048669 
L 138.660868 169.696854 
L 134.213933 170.079072 
L 129.752081 170.193946 
L 125.29137 170.041062 
L 124.83534 170.01031 
L 129.206946 170.910525 
L 133.516704 172.071258 
L 137.749105 173.488333 
L 141.888916 175.15665 
L 145.921239 177.070204 
L 149.831562 179.22211 
L 153.605811 181.604621 
L 157.230403 184.209165 
L 160.692295 187.026367 
L 163.979026 190.046088 
L 167.078768 193.257461 
L 169.980366 196.648928 
L 172.673376 200.208284 
L 175.148107 203.922719 
L 177.395653 207.778864 
L 177.612629 208.181145 
L 176.044959 204.002182 
L 174.730699 199.736735 
L 173.674576 195.400155 
L 172.880393 191.00805 
L 172.351007 186.576225 
L 172.088323 182.120631 
L 172.093288 177.657304 
L 172.365882 173.202305 
L 172.905126 168.771669 
L 173.709077 164.381341 
L 174.774844 160.047122 
L 176.09859 155.784609 
L 177.675552 151.609144 
L 179.500053 147.535753 
L 181.565529 143.579096 
L 181.790324 143.181132 
L 179.089403 146.734489 
L 176.180268 150.119493 
L 173.07339 153.323962 
L 169.779949 156.336365 
L 166.311799 159.145859 
L 162.681422 161.742333 
L 158.901882 164.116442 
L 154.986782 166.259644 
L 150.950212 168.164223 
L 146.8067 169.823327 
L 142.571157 171.230983 
L 138.258828 172.382127 
L 133.885231 173.272614 
L 129.466106 173.89924 
L 125.017359 174.259751 
L 124.560816 174.281585 
L 129.00689 174.673694 
L 133.42145 175.331702 
L 137.78861 176.25324 
L 142.092652 177.434992 
L 146.318087 178.872706 
L 150.449707 180.561207 
L 154.472643 182.494417 
L 158.372417 184.66538 
L 162.134994 187.066283 
L 165.746832 189.688485 
L 169.194934 192.522548 
L 172.466889 195.558274 
L 175.550922 198.784736 
L 178.435933 202.190324 
L 181.111541 205.76278 
L 182.289159 207.31021 
L 186.068521 211.907819 
L 190.028714 216.350616 
L 194.163405 220.631494 
L 198.465978 224.743604 
L 202.929549 228.680367 
L 207.546979 232.435487 
L 212.31088 236.002955 
L 217.213631 239.377064 
L 222.247389 242.552416 
L 227.404101 245.523932 
L 232.675517 248.286857 
L 233.976461 248.928 
L 236.16 247.842866 
L 243.37364 246.022393 
L 250.539518 244.022168 
L 257.653157 241.843439 
L 264.710111 239.487569 
L 271.705968 236.956029 
L 278.636358 234.250402 
L 285.496948 231.372379 
L 292.283452 228.323759 
L 298.991627 225.106446 
L 305.617282 221.722451 
L 312.156275 218.17389 
L 318.60452 214.46298 
L 324.957987 210.59204 
L 331.212705 206.56349 
L 337.364765 202.379847 
L 343.410323 198.043726 
L 349.3456 193.557836 
L 355.166887 188.924982 
L 360.870545 184.148059 
L 366.45301 179.230051 
L 371.910794 174.174033 
L 377.240485 168.983165 
L 382.438752 163.660691 
L 384.96 160.980826 
L 379.827935 155.594489 
L 374.562828 150.338124 
L 369.167972 145.215015 
L 363.646737 140.228365 
L 358.002574 135.381289 
L 352.239011 130.676818 
L 346.359649 126.11789 
L 340.368163 121.707356 
L 334.268297 117.447972 
L 328.063864 113.342399 
L 321.758741 109.393204 
L 315.356869 105.602854 
L 308.862248 101.97372 
L 305.405911 100.128 
L 298.864072 103.671312 
L 292.412851 107.377046 
L 286.056279 111.242886 
L 279.79833 115.266415 
L 273.642914 119.445119 
L 267.593878 123.776387 
L 261.655003 128.257512 
L 255.83 132.885693 
L 250.12251 137.658038 
L 244.5361 142.571563 
L 239.07426 147.623199 
L 236.16 150.424812 
L 241.552717 155.550173 
L 247.07187 160.539127 
L 252.714009 165.388559 
L 258.475608 170.095436 
L 264.353066 174.656818 
L 270.34271 179.069853 
L 276.440797 183.331783 
L 282.643516 187.439946 
L 288.94699 191.391773 
L 295.347279 195.184794 
L 301.840384 198.81664 
L 308.422247 202.28504 
L 315.088754 205.587827 
L 321.835739 208.722936 
L 328.658985 211.688409 
L 335.554228 214.482392 
L 342.517159 217.103138 
L 349.543426 219.549011 
L 356.628637 221.818481 
L 363.768366 223.910129 
L 370.958149 225.82265 
L 378.193494 227.554847 
L 384.96 229.003152 
L 377.686337 230.566656 
L 370.454031 232.311495 
L 363.267601 234.236577 
L 356.131539 236.3407 
L 349.050304 238.622548 
L 342.028322 241.080696 
L 335.069982 243.713606 
L 328.179632 246.519635 
L 322.629321 248.928 
L 315.79744 245.982476 
L 308.894063 243.208651 
L 301.923504 240.60826 
L 294.890121 238.182927 
L 287.798309 235.934168 
L 280.6525 233.863389 
L 273.457159 231.971883 
L 266.216785 230.260833 
L 258.935901 228.731309 
L 251.619058 227.384265 
L 244.270829 226.220545 
L 234.710901 224.815415 
L 228.882887 223.608838 
L 223.011284 222.636285 
L 217.105486 221.899311 
L 211.174941 221.399096 
L 205.229136 221.136439 
L 199.277584 221.111761 
L 193.329806 221.325102 
L 187.395317 221.776119 
L 181.48361 222.464092 
L 175.604144 223.38792 
L 169.766324 224.546125 
L 163.979489 225.936855 
L 158.252898 227.557883 
L 152.595711 229.406617 
L 147.016979 231.4801 
L 141.525627 233.775013 
L 136.130439 236.287687 
L 130.840047 239.014101 
L 125.662914 241.949893 
L 120.607323 245.090367 
L 115.681361 248.430499 
L 114.982625 248.928 
L 110.075999 245.559528 
L 105.038594 242.389964 
L 99.878471 239.424377 
L 94.603883 236.667513 
L 89.223269 234.123781 
L 87.36 233.303342 
L 92.774913 230.833464 
L 98.086726 228.149024 
L 103.286942 225.254314 
L 108.36724 222.153967 
L 113.319494 218.852943 
L 118.13578 215.356521 
L 122.808395 211.670296 
L 127.329862 207.800165 
L 131.692948 203.752319 
L 138.29438 197.355422 
L 141.723454 194.498366 
L 145.317677 191.852071 
L 149.064116 189.426063 
L 152.949286 187.229071 
L 156.959205 185.269004 
L 161.079443 183.552914 
L 165.295169 182.086978 
L 169.591213 180.876472 
L 173.952113 179.925752 
L 178.362175 179.238241 
L 182.805527 178.816411 
L 187.266179 178.661781 
L 191.728075 178.774908 
L 196.175159 179.155385 
L 198.628776 179.481116 
L 194.21455 178.82087 
L 189.847857 177.897118 
L 185.544415 176.713184 
L 181.319709 175.273329 
L 177.188946 173.582734 
L 173.16699 171.647485 
L 169.268317 169.474545 
L 165.506958 167.071735 
L 161.896449 164.447703 
L 158.449784 161.611892 
L 155.179369 158.574509 
L 152.096972 155.346483 
L 149.213687 151.939434 
L 146.53989 148.365622 
L 144.085206 144.637909 
L 141.358685 139.918053 
L 138.27845 134.825536 
L 134.997032 129.860269 
L 131.519681 125.030196 
L 127.85196 120.343043 
L 123.999736 115.806308 
L 119.969174 111.427251 
L 115.766719 107.212876 
L 111.399096 103.169925 
L 107.868283 100.128 
L 103.376191 104.032189 
L 99.043818 108.112891 
L 94.878095 112.363577 
L 90.885687 116.777448 
L 87.36 120.990209 
L 91.186763 125.54844 
L 95.192746 129.949994 
L 99.371539 134.187831 
L 103.716459 138.255172 
L 108.220553 142.145508 
L 112.876616 145.852617 
L 117.6772 149.370568 
L 122.614624 152.693732 
L 127.68099 155.816794 
L 132.957634 158.959451 
L 136.638684 161.483573 
L 140.161753 164.223883 
L 143.514163 167.170519 
L 146.683848 170.312877 
L 149.659402 173.639648 
L 152.430114 177.138858 
L 154.986014 180.797914 
L 157.317903 184.603648 
L 159.417389 188.542364 
L 161.276915 192.599885 
L 162.889791 196.76161 
L 164.25021 201.01256 
L 165.353277 205.337437 
L 166.195023 209.720676 
L 166.45022 211.431141 
L 166.292268 209.951573 
L 165.99633 205.498065 
L 165.967975 201.034824 
L 166.207306 196.577915 
L 166.713459 192.143377 
L 167.484615 187.74717 
L 168.517997 183.405115 
L 169.809886 179.132839 
L 171.355634 174.945718 
L 173.149676 170.858821 
L 175.185557 166.886856 
L 177.45595 163.044118 
L 179.952683 159.344436 
L 182.666771 155.801126 
L 185.588446 152.42694 
L 188.881273 149.066725 
L 187.776226 150.063188 
L 184.344648 152.917237 
L 180.748105 155.560379 
L 176.999541 157.983101 
L 173.112445 160.176685 
L 169.100809 162.133235 
L 164.979068 163.845711 
L 160.762058 165.30795 
L 156.464954 166.514688 
L 152.103222 167.461584 
L 147.692559 168.145228 
L 143.248839 168.563162 
L 138.788054 168.71388 
L 134.326258 168.59684 
L 129.879509 168.212464 
L 125.226182 167.519421 
L 126.681592 167.829022 
L 131.00661 168.931539 
L 135.257733 170.291417 
L 139.419663 171.903762 
L 143.477421 173.762772 
L 147.416404 175.861757 
L 151.222435 178.193161 
L 154.881816 180.748595 
L 158.381379 183.518862 
L 161.708529 186.493991 
L 164.85129 189.663277 
L 167.798353 193.015311 
L 170.539112 196.538032 
L 173.063702 200.21876 
L 175.363039 204.04425 
L 177.53377 208.218179 
L 176.929993 206.858207 
L 175.283487 202.709673 
L 173.888706 198.469873 
L 172.75067 194.154066 
L 171.873475 189.777783 
L 171.260278 185.356776 
L 170.913286 180.906954 
L 170.833747 176.444332 
L 171.021948 171.984972 
L 171.477212 167.54492 
L 172.197899 163.140158 
L 173.181417 158.786538 
L 174.424226 154.499727 
L 175.921852 150.295155 
L 177.668907 146.187951 
L 179.773538 141.980305 
L 179.027033 143.267473 
L 176.63521 147.035828 
L 174.021725 150.653979 
L 171.195985 154.108904 
L 168.168158 157.38817 
L 164.949141 160.479974 
L 161.55052 163.373189 
L 157.984527 166.057403 
L 154.263993 168.522956 
L 150.40231 170.760974 
L 146.413376 172.763403 
L 142.311546 174.523036 
L 138.111582 176.03354 
L 133.8286 177.28948 
L 129.478014 178.286335 
L 124.836197 179.052682 
L 126.316458 178.901367 
L 130.771249 178.625404 
L 135.234572 178.617065 
L 139.690363 178.876379 
L 144.122586 179.402414 
L 148.515291 180.193276 
L 152.852668 181.24612 
L 157.119108 182.557155 
L 161.299255 184.121664 
L 165.378066 185.934016 
L 169.340861 187.987689 
L 173.173379 190.275291 
L 176.861827 192.78859 
L 180.39293 195.51854 
L 183.75398 198.455317 
L 187.099395 201.763181 
L 191.324975 205.954368 
L 195.714778 209.973225 
L 200.261781 213.813322 
L 204.95871 217.468515 
L 209.798051 220.932958 
L 214.772061 224.201108 
L 219.872784 227.267736 
L 225.092059 230.127936 
L 230.421537 232.777133 
L 236.16 235.341086 
L 243.470055 236.72449 
L 250.812408 237.924729 
L 258.182469 238.941053 
L 265.575633 239.772828 
L 272.987279 240.419532 
L 280.412774 240.880763 
L 287.847479 241.156232 
L 295.286746 241.245766 
L 302.725927 241.14931 
L 310.160372 240.866924 
L 317.585436 240.398784 
L 324.996476 239.745183 
L 332.388863 238.90653 
L 339.757975 237.883349 
L 347.099208 236.676278 
L 354.407973 235.286074 
L 361.679703 233.713603 
L 368.909852 231.95985 
L 376.093904 230.025909 
L 383.227366 227.912991 
L 384.96 227.370343 
L 377.839561 225.213943 
L 370.667442 223.23621 
L 363.448126 221.438379 
L 356.186125 219.821574 
L 348.885977 218.386805 
L 341.552245 217.13497 
L 334.189512 216.06685 
L 326.80238 215.183112 
L 319.395465 214.48431 
L 311.973396 213.97088 
L 304.540812 213.643143 
L 297.102358 213.501303 
L 289.662682 213.545449 
L 282.226436 213.775555 
L 274.798264 214.191475 
L 267.382811 214.79295 
L 259.984711 215.579605 
L 252.608586 216.550946 
L 245.259048 217.706368 
L 237.940688 219.045149 
L 236.16 219.399599 
L 236.16 219.399599 
" style="fill:none;stroke:#1f77b4;stroke-linecap:square;stroke-width:1.5;"/>
   </g>
   <g id="patch_5">
    <path d="M 57.6 263.808 
L 57.6 85.248 
" style="fill:none;stroke:#000000;stroke-linecap:square;stroke-linejoin:miter;stroke-width:0.8;"/>
   </g>
   <g id="patch_6">
    <path d="M 414.72 263.808 
L 414.72 85.248 
" style="fill:none;stroke:#000000;stroke-linecap:square;stroke-linejoin:miter;stroke-width:0.8;"/>
   </g>
   <g id="patch_7">
    <path d="M 57.6 263.808 
L 414.72 263.808 
" style="fill:none;stroke:#000000;stroke-linecap:square;stroke-linejoin:miter;stroke-width:0.8;"/>
   </g>
   <g id="patch_8">
    <path d="M 57.6 85.248 
L 414.72 85.248 
" style="fill:none;stroke:#000000;stroke-linecap:square;stroke-linejoin:miter;stroke-width:0.8;"/>
   </g>
  </g>
 </g>
 <defs>
  <clipPath id="p5a52df399d">
   <rect height="178.56" width="357.12" x="57.6" y="85.248"/>
  </clipPath>
 </defs>
</svg>
