<?xml version="1.0" encoding="utf-8" standalone="no"?>
<!DOCTYPE svg PUBLIC "-//W3C//DTD SVG 1.1//EN"
  "http://www.w3.org/Graphics/SVG/1.1/DTD/svg11.dtd">
<!-- Created with matplotlib (https://matplotlib.org/) -->
<svg height="345.6pt" version="1.1" viewBox="0 0 460.8 345.6" width="460.8pt" xmlns="http://www.w3.org/2000/svg" xmlns:xlink="http://www.w3.org/1999/xlink">
 <defs>
  <style type="text/css">
*{stroke-linecap:butt;stroke-linejoin:round;}
  </style>
 </defs>
 <g id="figure_1">
  <g id="patch_1">
   <path d="M 0 345.6 
L 460.8 345.6 
L 460.8 0 
L 0 0 
z
" style="fill:#ffffff;"/>
  </g>
  <g id="axes_1">
   <g id="patch_2">
    <path d="M 57.6 263.808 
L 414.72 263.808 
L 414.72 85.248 
L 57.6 85.248 
z
" style="fill:#ffffff;"/>
   </g>
   <g id="PathCollection_1">
    <defs>
     <path d="M 0 3 
C 0.795609 3 1.55874 2.683901 2.12132 2.12132 
C 2.683901 1.55874 3 0.795609 3 0 
C 3 -0.795609 2.683901 -1.55874 2.12132 -2.12132 
C 1.55874 -2.683901 0.795609 -3 0 -3 
C -0.795609 -3 -1.55874 -2.683901 -2.12132 -2.12132 
C -2.683901 -1.55874 -3 -0.795609 -3 0 
C -3 0.795609 -2.683901 1.55874 -2.12132 2.12132 
C -1.55874 2.683901 -0.795609 3 0 3 
z
" id="m61e77f57fa" style="stroke:#000000;"/>
    </defs>
    <g clip-path="url(#pc23c09423d)">
     <use style="stroke:#000000;" x="119.050538" xlink:href="#m61e77f57fa" y="129.209189"/>
    </g>
   </g>
   <g id="patch_3">
    <path clip-path="url(#pc23c09423d)" d="M 161.76 211.728 
C 171.625555 211.728 181.088371 207.808373 188.064372 200.832372 
C 195.040373 193.856371 198.96 184.393555 198.96 174.528 
C 198.96 164.662445 195.040373 155.199629 188.064372 148.223628 
C 181.088371 141.247627 171.625555 137.328 161.76 137.328 
C 151.894445 137.328 142.431629 141.247627 135.455628 148.223628 
C 128.479627 155.199629 124.56 164.662445 124.56 174.528 
C 124.56 184.393555 128.479627 193.856371 135.455628 200.832372 
C 142.431629 207.808373 151.894445 211.728 161.76 211.728 
z
" style="fill:#cc0000;fill-opacity:0.1;stroke:#cc0000;stroke-dasharray:7.4,3.2;stroke-dashoffset:0;stroke-linejoin:miter;stroke-width:2;"/>
   </g>
   <g id="patch_4">
    <path clip-path="url(#pc23c09423d)" d="M 310.56 196.848 
C 316.479333 196.848 322.157023 194.496224 326.342623 190.310623 
C 330.528224 186.125023 332.88 180.447333 332.88 174.528 
C 332.88 168.608667 330.528224 162.930977 326.342623 158.745377 
C 322.157023 154.559776 316.479333 152.208 310.56 152.208 
C 304.640667 152.208 298.962977 154.559776 294.777377 158.745377 
C 290.591776 162.930977 288.24 168.608667 288.24 174.528 
C 288.24 180.447333 290.591776 186.125023 294.777377 190.310623 
C 298.962977 194.496224 304.640667 196.848 310.56 196.848 
z
" style="fill:#cc0000;fill-opacity:0.1;stroke:#cc0000;stroke-dasharray:7.4,3.2;stroke-dashoffset:0;stroke-linejoin:miter;stroke-width:2;"/>
   </g>
   <g id="matplotlib.axis_1">
    <g id="xtick_1">
     <g id="line2d_1">
      <defs>
       <path d="M 0 0 
L 0 3.5 
" id="me3a37b9a8e" style="stroke:#000000;stroke-width:0.8;"/>
      </defs>
      <g>
       <use style="stroke:#000000;stroke-width:0.8;" x="87.36" xlink:href="#me3a37b9a8e" y="263.808"/>
      </g>
     </g>
     <g id="text_1">
      <!-- 0.0 -->
      <defs>
       <path d="M 31.78125 66.40625 
Q 24.171875 66.40625 20.328125 58.90625 
Q 16.5 51.421875 16.5 36.375 
Q 16.5 21.390625 20.328125 13.890625 
Q 24.171875 6.390625 31.78125 6.390625 
Q 39.453125 6.390625 43.28125 13.890625 
Q 47.125 21.390625 47.125 36.375 
Q 47.125 51.421875 43.28125 58.90625 
Q 39.453125 66.40625 31.78125 66.40625 
z
M 31.78125 74.21875 
Q 44.046875 74.21875 50.515625 64.515625 
Q 56.984375 54.828125 56.984375 36.375 
Q 56.984375 17.96875 50.515625 8.265625 
Q 44.046875 -1.421875 31.78125 -1.421875 
Q 19.53125 -1.421875 13.0625 8.265625 
Q 6.59375 17.96875 6.59375 36.375 
Q 6.59375 54.828125 13.0625 64.515625 
Q 19.53125 74.21875 31.78125 74.21875 
z
" id="DejaVuSans-48"/>
       <path d="M 10.6875 12.40625 
L 21 12.40625 
L 21 0 
L 10.6875 0 
z
" id="DejaVuSans-46"/>
      </defs>
      <g transform="translate(79.408438 278.406437)scale(0.1 -0.1)">
       <use xlink:href="#DejaVuSans-48"/>
       <use x="63.623047" xlink:href="#DejaVuSans-46"/>
       <use x="95.410156" xlink:href="#DejaVuSans-48"/>
      </g>
     </g>
    </g>
    <g id="xtick_2">
     <g id="line2d_2">
      <g>
       <use style="stroke:#000000;stroke-width:0.8;" x="161.76" xlink:href="#me3a37b9a8e" y="263.808"/>
      </g>
     </g>
     <g id="text_2">
      <!-- 0.5 -->
      <defs>
       <path d="M 10.796875 72.90625 
L 49.515625 72.90625 
L 49.515625 64.59375 
L 19.828125 64.59375 
L 19.828125 46.734375 
Q 21.96875 47.46875 24.109375 47.828125 
Q 26.265625 48.1875 28.421875 48.1875 
Q 40.625 48.1875 47.75 41.5 
Q 54.890625 34.8125 54.890625 23.390625 
Q 54.890625 11.625 47.5625 5.09375 
Q 40.234375 -1.421875 26.90625 -1.421875 
Q 22.3125 -1.421875 17.546875 -0.640625 
Q 12.796875 0.140625 7.71875 1.703125 
L 7.71875 11.625 
Q 12.109375 9.234375 16.796875 8.0625 
Q 21.484375 6.890625 26.703125 6.890625 
Q 35.15625 6.890625 40.078125 11.328125 
Q 45.015625 15.765625 45.015625 23.390625 
Q 45.015625 31 40.078125 35.4375 
Q 35.15625 39.890625 26.703125 39.890625 
Q 22.75 39.890625 18.8125 39.015625 
Q 14.890625 38.140625 10.796875 36.28125 
z
" id="DejaVuSans-53"/>
      </defs>
      <g transform="translate(153.808437 278.406437)scale(0.1 -0.1)">
       <use xlink:href="#DejaVuSans-48"/>
       <use x="63.623047" xlink:href="#DejaVuSans-46"/>
       <use x="95.410156" xlink:href="#DejaVuSans-53"/>
      </g>
     </g>
    </g>
    <g id="xtick_3">
     <g id="line2d_3">
      <g>
       <use style="stroke:#000000;stroke-width:0.8;" x="236.16" xlink:href="#me3a37b9a8e" y="263.808"/>
      </g>
     </g>
     <g id="text_3">
      <!-- 1.0 -->
      <defs>
       <path d="M 12.40625 8.296875 
L 28.515625 8.296875 
L 28.515625 63.921875 
L 10.984375 60.40625 
L 10.984375 69.390625 
L 28.421875 72.90625 
L 38.28125 72.90625 
L 38.28125 8.296875 
L 54.390625 8.296875 
L 54.390625 0 
L 12.40625 0 
z
" id="DejaVuSans-49"/>
      </defs>
      <g transform="translate(228.208437 278.406437)scale(0.1 -0.1)">
       <use xlink:href="#DejaVuSans-49"/>
       <use x="63.623047" xlink:href="#DejaVuSans-46"/>
       <use x="95.410156" xlink:href="#DejaVuSans-48"/>
      </g>
     </g>
    </g>
    <g id="xtick_4">
     <g id="line2d_4">
      <g>
       <use style="stroke:#000000;stroke-width:0.8;" x="310.56" xlink:href="#me3a37b9a8e" y="263.808"/>
      </g>
     </g>
     <g id="text_4">
      <!-- 1.5 -->
      <g transform="translate(302.608437 278.406437)scale(0.1 -0.1)">
       <use xlink:href="#DejaVuSans-49"/>
       <use x="63.623047" xlink:href="#DejaVuSans-46"/>
       <use x="95.410156" xlink:href="#DejaVuSans-53"/>
      </g>
     </g>
    </g>
    <g id="xtick_5">
     <g id="line2d_5">
      <g>
       <use style="stroke:#000000;stroke-width:0.8;" x="384.96" xlink:href="#me3a37b9a8e" y="263.808"/>
      </g>
     </g>
     <g id="text_5">
      <!-- 2.0 -->
      <defs>
       <path d="M 19.1875 8.296875 
L 53.609375 8.296875 
L 53.609375 0 
L 7.328125 0 
L 7.328125 8.296875 
Q 12.9375 14.109375 22.625 23.890625 
Q 32.328125 33.6875 34.8125 36.53125 
Q 39.546875 41.84375 41.421875 45.53125 
Q 43.3125 49.21875 43.3125 52.78125 
Q 43.3125 58.59375 39.234375 62.25 
Q 35.15625 65.921875 28.609375 65.921875 
Q 23.96875 65.921875 18.8125 64.3125 
Q 13.671875 62.703125 7.8125 59.421875 
L 7.8125 69.390625 
Q 13.765625 71.78125 18.9375 73 
Q 24.125 74.21875 28.421875 74.21875 
Q 39.75 74.21875 46.484375 68.546875 
Q 53.21875 62.890625 53.21875 53.421875 
Q 53.21875 48.921875 51.53125 44.890625 
Q 49.859375 40.875 45.40625 35.40625 
Q 44.1875 33.984375 37.640625 27.21875 
Q 31.109375 20.453125 19.1875 8.296875 
z
" id="DejaVuSans-50"/>
      </defs>
      <g transform="translate(377.008437 278.406437)scale(0.1 -0.1)">
       <use xlink:href="#DejaVuSans-50"/>
       <use x="63.623047" xlink:href="#DejaVuSans-46"/>
       <use x="95.410156" xlink:href="#DejaVuSans-48"/>
      </g>
     </g>
    </g>
   </g>
   <g id="matplotlib.axis_2">
    <g id="ytick_1">
     <g id="line2d_6">
      <defs>
       <path d="M 0 0 
L -3.5 0 
" id="m203338d931" style="stroke:#000000;stroke-width:0.8;"/>
      </defs>
      <g>
       <use style="stroke:#000000;stroke-width:0.8;" x="57.6" xlink:href="#m203338d931" y="248.928"/>
      </g>
     </g>
     <g id="text_6">
      <!-- 0.0 -->
      <g transform="translate(34.696875 252.727219)scale(0.1 -0.1)">
       <use xlink:href="#DejaVuSans-48"/>
       <use x="63.623047" xlink:href="#DejaVuSans-46"/>
       <use x="95.410156" xlink:href="#DejaVuSans-48"/>
      </g>
     </g>
    </g>
    <g id="ytick_2">
     <g id="line2d_7">
      <g>
       <use style="stroke:#000000;stroke-width:0.8;" x="57.6" xlink:href="#m203338d931" y="219.168"/>
      </g>
     </g>
     <g id="text_7">
      <!-- 0.2 -->
      <g transform="translate(34.696875 222.967219)scale(0.1 -0.1)">
       <use xlink:href="#DejaVuSans-48"/>
       <use x="63.623047" xlink:href="#DejaVuSans-46"/>
       <use x="95.410156" xlink:href="#DejaVuSans-50"/>
      </g>
     </g>
    </g>
    <g id="ytick_3">
     <g id="line2d_8">
      <g>
       <use style="stroke:#000000;stroke-width:0.8;" x="57.6" xlink:href="#m203338d931" y="189.408"/>
      </g>
     </g>
     <g id="text_8">
      <!-- 0.4 -->
      <defs>
       <path d="M 37.796875 64.3125 
L 12.890625 25.390625 
L 37.796875 25.390625 
z
M 35.203125 72.90625 
L 47.609375 72.90625 
L 47.609375 25.390625 
L 58.015625 25.390625 
L 58.015625 17.1875 
L 47.609375 17.1875 
L 47.609375 0 
L 37.796875 0 
L 37.796875 17.1875 
L 4.890625 17.1875 
L 4.890625 26.703125 
z
" id="DejaVuSans-52"/>
      </defs>
      <g transform="translate(34.696875 193.207219)scale(0.1 -0.1)">
       <use xlink:href="#DejaVuSans-48"/>
       <use x="63.623047" xlink:href="#DejaVuSans-46"/>
       <use x="95.410156" xlink:href="#DejaVuSans-52"/>
      </g>
     </g>
    </g>
    <g id="ytick_4">
     <g id="line2d_9">
      <g>
       <use style="stroke:#000000;stroke-width:0.8;" x="57.6" xlink:href="#m203338d931" y="159.648"/>
      </g>
     </g>
     <g id="text_9">
      <!-- 0.6 -->
      <defs>
       <path d="M 33.015625 40.375 
Q 26.375 40.375 22.484375 35.828125 
Q 18.609375 31.296875 18.609375 23.390625 
Q 18.609375 15.53125 22.484375 10.953125 
Q 26.375 6.390625 33.015625 6.390625 
Q 39.65625 6.390625 43.53125 10.953125 
Q 47.40625 15.53125 47.40625 23.390625 
Q 47.40625 31.296875 43.53125 35.828125 
Q 39.65625 40.375 33.015625 40.375 
z
M 52.59375 71.296875 
L 52.59375 62.3125 
Q 48.875 64.0625 45.09375 64.984375 
Q 41.3125 65.921875 37.59375 65.921875 
Q 27.828125 65.921875 22.671875 59.328125 
Q 17.53125 52.734375 16.796875 39.40625 
Q 19.671875 43.65625 24.015625 45.921875 
Q 28.375 48.1875 33.59375 48.1875 
Q 44.578125 48.1875 50.953125 41.515625 
Q 57.328125 34.859375 57.328125 23.390625 
Q 57.328125 12.15625 50.6875 5.359375 
Q 44.046875 -1.421875 33.015625 -1.421875 
Q 20.359375 -1.421875 13.671875 8.265625 
Q 6.984375 17.96875 6.984375 36.375 
Q 6.984375 53.65625 15.1875 63.9375 
Q 23.390625 74.21875 37.203125 74.21875 
Q 40.921875 74.21875 44.703125 73.484375 
Q 48.484375 72.75 52.59375 71.296875 
z
" id="DejaVuSans-54"/>
      </defs>
      <g transform="translate(34.696875 163.447219)scale(0.1 -0.1)">
       <use xlink:href="#DejaVuSans-48"/>
       <use x="63.623047" xlink:href="#DejaVuSans-46"/>
       <use x="95.410156" xlink:href="#DejaVuSans-54"/>
      </g>
     </g>
    </g>
    <g id="ytick_5">
     <g id="line2d_10">
      <g>
       <use style="stroke:#000000;stroke-width:0.8;" x="57.6" xlink:href="#m203338d931" y="129.888"/>
      </g>
     </g>
     <g id="text_10">
      <!-- 0.8 -->
      <defs>
       <path d="M 31.78125 34.625 
Q 24.75 34.625 20.71875 30.859375 
Q 16.703125 27.09375 16.703125 20.515625 
Q 16.703125 13.921875 20.71875 10.15625 
Q 24.75 6.390625 31.78125 6.390625 
Q 38.8125 6.390625 42.859375 10.171875 
Q 46.921875 13.96875 46.921875 20.515625 
Q 46.921875 27.09375 42.890625 30.859375 
Q 38.875 34.625 31.78125 34.625 
z
M 21.921875 38.8125 
Q 15.578125 40.375 12.03125 44.71875 
Q 8.5 49.078125 8.5 55.328125 
Q 8.5 64.0625 14.71875 69.140625 
Q 20.953125 74.21875 31.78125 74.21875 
Q 42.671875 74.21875 48.875 69.140625 
Q 55.078125 64.0625 55.078125 55.328125 
Q 55.078125 49.078125 51.53125 44.71875 
Q 48 40.375 41.703125 38.8125 
Q 48.828125 37.15625 52.796875 32.3125 
Q 56.78125 27.484375 56.78125 20.515625 
Q 56.78125 9.90625 50.3125 4.234375 
Q 43.84375 -1.421875 31.78125 -1.421875 
Q 19.734375 -1.421875 13.25 4.234375 
Q 6.78125 9.90625 6.78125 20.515625 
Q 6.78125 27.484375 10.78125 32.3125 
Q 14.796875 37.15625 21.921875 38.8125 
z
M 18.3125 54.390625 
Q 18.3125 48.734375 21.84375 45.5625 
Q 25.390625 42.390625 31.78125 42.390625 
Q 38.140625 42.390625 41.71875 45.5625 
Q 45.3125 48.734375 45.3125 54.390625 
Q 45.3125 60.0625 41.71875 63.234375 
Q 38.140625 66.40625 31.78125 66.40625 
Q 25.390625 66.40625 21.84375 63.234375 
Q 18.3125 60.0625 18.3125 54.390625 
z
" id="DejaVuSans-56"/>
      </defs>
      <g transform="translate(34.696875 133.687219)scale(0.1 -0.1)">
       <use xlink:href="#DejaVuSans-48"/>
       <use x="63.623047" xlink:href="#DejaVuSans-46"/>
       <use x="95.410156" xlink:href="#DejaVuSans-56"/>
      </g>
     </g>
    </g>
    <g id="ytick_6">
     <g id="line2d_11">
      <g>
       <use style="stroke:#000000;stroke-width:0.8;" x="57.6" xlink:href="#m203338d931" y="100.128"/>
      </g>
     </g>
     <g id="text_11">
      <!-- 1.0 -->
      <g transform="translate(34.696875 103.927219)scale(0.1 -0.1)">
       <use xlink:href="#DejaVuSans-49"/>
       <use x="63.623047" xlink:href="#DejaVuSans-46"/>
       <use x="95.410156" xlink:href="#DejaVuSans-48"/>
      </g>
     </g>
    </g>
   </g>
   <g id="line2d_12">
    <path clip-path="url(#pc23c09423d)" d="M 236.16 248.928 
L 236.16 100.128 
" style="fill:none;stroke:#cc0000;stroke-dasharray:7.4,3.2;stroke-dashoffset:0;stroke-width:2;"/>
   </g>
   <g id="line2d_13">
    <path clip-path="url(#pc23c09423d)" d="M 87.36 248.928 
L 384.96 248.928 
" style="fill:none;stroke:#009900;stroke-linecap:square;stroke-width:2;"/>
   </g>
   <g id="line2d_14">
    <path clip-path="url(#pc23c09423d)" d="M 384.96 248.928 
L 384.96 100.128 
" style="fill:none;stroke:#009900;stroke-linecap:square;stroke-width:2;"/>
   </g>
   <g id="line2d_15">
    <path clip-path="url(#pc23c09423d)" d="M 384.96 100.128 
L 87.36 100.128 
" style="fill:none;stroke:#009900;stroke-linecap:square;stroke-width:2;"/>
   </g>
   <g id="line2d_16">
    <path clip-path="url(#pc23c09423d)" d="M 87.36 100.128 
L 87.36 248.928 
" style="fill:none;stroke:#009900;stroke-linecap:square;stroke-width:2;"/>
   </g>
   <g id="line2d_17">
    <path clip-path="url(#pc23c09423d)" d="M 119.050538 129.209189 
L 124.65048 131.224685 
L 130.326542 133.014631 
L 136.069642 134.576163 
L 141.870593 135.906783 
L 147.720114 137.004363 
L 153.608848 137.867146 
L 154.710877 138.001984 
L 159.877837 135.048323 
L 164.922548 131.890402 
L 169.836941 128.533272 
L 174.613154 124.982304 
L 179.243545 121.243179 
L 183.720707 117.321878 
L 188.037478 113.224675 
L 192.186952 108.958125 
L 196.16249 104.529053 
L 199.811709 100.128 
L 203.61417 104.706522 
L 207.596683 109.129324 
L 211.752874 113.38933 
L 216.076096 117.479726 
L 220.559432 121.393966 
L 225.195709 125.12579 
L 229.977512 128.669228 
L 234.897189 132.018609 
L 236.16 132.832821 
L 231.206753 136.132356 
L 226.389414 139.627327 
L 221.715691 143.312146 
L 217.193059 147.180916 
L 212.828754 151.227449 
L 208.629759 155.44527 
L 204.60279 159.827633 
L 200.75429 164.367526 
L 198.286853 167.483216 
L 203.471489 170.405738 
L 208.768847 173.118592 
L 214.170453 175.617439 
L 219.667666 177.89828 
L 225.25169 179.957467 
L 230.913594 181.791705 
L 236.16 183.271824 
L 230.434711 184.897446 
L 224.779009 186.750717 
L 219.201942 188.828675 
L 213.712433 191.127993 
L 208.319262 193.644994 
L 203.031059 196.375651 
L 197.856283 199.315595 
L 192.803212 202.460124 
L 187.879932 205.804206 
L 183.094316 209.342492 
L 178.454023 213.069322 
L 173.966475 216.978732 
L 169.638851 221.06447 
L 165.478074 225.319998 
L 161.490802 229.738509 
L 157.683412 234.312934 
L 154.061996 239.035954 
L 150.632347 243.900015 
L 147.380981 248.928 
L 144.149797 243.929897 
L 140.721327 239.065005 
L 137.101055 234.341107 
L 133.294774 229.76576 
L 129.308572 225.346283 
L 125.148827 221.089746 
L 120.822193 217.00296 
L 116.335592 213.092462 
L 111.696202 209.364509 
L 106.911445 205.825063 
L 101.988974 202.479788 
L 96.936666 199.334035 
L 91.762603 196.392836 
L 87.36 194.099579 
L 92.629291 191.332604 
L 97.783718 188.357126 
L 102.815034 185.177906 
L 107.715191 181.800031 
L 112.476349 178.228903 
L 117.090892 174.470236 
L 121.551437 170.530043 
L 125.347628 166.913595 
L 123.031431 161.431186 
L 120.49785 156.045785 
L 117.750936 150.766008 
L 114.795085 145.600301 
L 111.635025 140.556929 
L 108.275812 135.64396 
L 104.722819 130.869253 
L 100.981731 126.240448 
L 97.058532 121.764948 
L 92.9595 117.449915 
L 88.691191 113.302251 
L 87.36 112.074545 
L 91.678469 107.979132 
L 95.829711 103.714302 
L 99.075816 100.128 
L 103.086241 104.525508 
L 107.269311 108.759124 
L 111.618335 112.822076 
L 116.126354 116.707863 
L 120.786158 120.410269 
L 125.590291 123.923371 
L 130.531067 127.241549 
L 135.600584 130.359494 
L 140.79073 133.272219 
L 146.093202 135.975064 
L 151.929377 138.650446 
L 155.327437 133.764265 
L 158.527384 128.746106 
L 161.524098 123.603997 
L 164.312786 118.346164 
L 166.888985 112.98102 
L 169.248576 107.517146 
L 171.387782 101.963285 
L 172.039297 100.128 
L 174.105633 105.709383 
L 176.393512 111.20367 
L 178.899273 116.602072 
L 181.618909 121.895952 
L 184.548068 127.07684 
L 187.682064 132.13645 
L 191.015884 137.066686 
L 194.544194 141.859661 
L 198.261349 146.507707 
L 202.161404 151.003389 
L 206.238118 155.339514 
L 210.48497 159.509146 
L 214.895166 163.505614 
L 219.46165 167.322524 
L 224.177117 170.95377 
L 229.034024 174.393544 
L 234.024599 177.636341 
L 236.16 178.939164 
L 231.115617 182.09761 
L 226.201574 185.455252 
L 221.42573 189.006717 
L 216.795728 192.746324 
L 212.318974 196.66809 
L 208.002629 200.765742 
L 203.8536 205.032724 
L 199.878523 209.462209 
L 196.083757 214.047113 
L 192.475375 218.780099 
L 189.059148 223.653595 
L 185.840541 228.659807 
L 182.824704 233.790723 
L 180.016461 239.038137 
L 177.420305 244.393654 
L 175.423955 248.928 
L 173.007528 243.489024 
L 170.375533 238.15103 
L 167.53218 232.922558 
L 164.482018 227.811971 
L 161.229927 222.827447 
L 157.781109 217.976958 
L 154.141083 213.268265 
L 151.728469 210.349898 
L 146.119897 212.341256 
L 140.595445 214.555303 
L 135.16395 216.988499 
L 129.834101 219.63695 
L 124.614426 222.49642 
L 119.513274 225.562335 
L 114.538806 228.829788 
L 109.698981 232.293553 
L 105.00154 235.948089 
L 100.454 239.78755 
L 96.063634 243.805792 
L 91.837467 247.996388 
L 90.942599 248.928 
L 87.36 245.292681 
L 91.525477 241.041753 
L 95.517629 236.627651 
L 99.330072 232.057437 
L 102.956705 227.33842 
L 106.391727 222.478152 
L 109.629642 217.484408 
L 112.665271 212.365176 
L 115.493757 207.128646 
L 118.110575 201.783195 
L 120.511539 196.337375 
L 122.692808 190.799898 
L 124.650892 185.179624 
L 125.454736 182.637734 
L 121.36809 178.310968 
L 117.111688 174.151085 
L 112.69234 170.16474 
L 108.117116 166.358311 
L 103.393335 162.737886 
L 98.528554 159.309258 
L 93.530556 156.077913 
L 88.407337 153.049018 
L 87.36 152.463321 
L 92.507479 149.47584 
L 97.531373 146.284905 
L 102.423645 142.89562 
L 107.176469 139.313407 
L 111.782241 135.543998 
L 116.233592 131.593421 
L 120.523402 127.467999 
L 124.644807 123.174329 
L 128.591215 118.719282 
L 132.356312 114.109984 
L 135.934074 109.353809 
L 139.318779 104.458367 
L 142.080203 100.128 
L 145.293948 105.137334 
L 148.705441 110.014145 
L 152.309227 114.750633 
L 156.099539 119.339218 
L 160.070313 123.772561 
L 164.215198 128.043569 
L 168.527562 132.14541 
L 173.000506 136.071521 
L 177.626876 139.815622 
L 182.399268 143.371722 
L 187.310049 146.734133 
L 192.351363 149.897476 
L 197.515144 152.856689 
L 202.793132 155.607039 
L 208.176883 158.144126 
L 213.657783 160.463891 
L 219.227066 162.562623 
L 224.87582 164.436964 
L 230.59501 166.083916 
L 236.16 167.452403 
L 243.563792 168.18355 
L 250.983548 168.729393 
L 258.41463 169.08959 
L 265.852393 169.263917 
L 273.29219 169.252266 
L 280.729371 169.054642 
L 289.037893 168.613498 
L 294.94628 169.32942 
L 300.821312 170.281042 
L 306.65359 171.466841 
L 312.433783 172.884921 
L 318.152644 174.533013 
L 323.801025 176.408479 
L 329.369889 178.50832 
L 332.271357 179.704813 
L 326.341985 179.190878 
L 320.437908 178.440242 
L 314.568571 177.454106 
L 308.743363 176.234048 
L 302.971605 174.78202 
L 297.262529 173.100345 
L 291.625269 171.191712 
L 288.684671 170.094902 
L 294.628124 170.406253 
L 300.554373 170.955029 
L 306.453936 171.740353 
L 312.317376 172.760969 
L 318.135312 174.015243 
L 323.898436 175.50117 
L 329.597529 177.216371 
L 332.573835 178.212222 
L 326.623219 178.103818 
L 320.681698 177.75754 
L 314.758777 177.173942 
L 308.863931 176.353957 
L 303.006591 175.298897 
L 297.196128 174.010449 
L 291.441836 172.490676 
L 288.43329 171.596944 
L 294.38414 171.502274 
L 300.334016 171.64565 
L 306.273399 172.026843 
L 312.192788 172.645243 
L 318.082712 173.499861 
L 323.93375 174.589329 
L 329.73654 175.911905 
L 332.773826 176.702478 
L 326.829669 177.000111 
L 320.878365 177.059804 
L 314.929435 176.88146 
L 308.992395 176.465365 
L 303.076743 175.812184 
L 297.191943 174.922963 
L 291.34741 173.799124 
L 288.284921 173.112632 
L 281.392994 170.310479 
L 274.433174 167.681482 
L 267.409811 165.227284 
L 260.327294 162.949419 
L 253.19005 160.84931 
L 246.002538 158.92827 
L 238.769252 157.187499 
L 236.16 156.606269 
L 243.408631 154.930541 
L 250.613108 153.07414 
L 257.768929 151.038226 
L 264.871621 148.824071 
L 271.916746 146.433059 
L 278.899899 143.866684 
L 285.816719 141.126551 
L 292.66288 138.214372 
L 299.434105 135.131966 
L 306.126163 131.881261 
L 312.73487 128.464287 
L 319.256096 124.883181 
L 325.685767 121.14018 
L 332.019862 117.237623 
L 338.254425 113.17795 
L 344.385559 108.963698 
L 350.409431 104.597501 
L 356.263672 100.128 
L 362.177647 104.641935 
L 368.202612 109.006625 
L 374.334799 113.219344 
L 380.570377 117.277457 
L 384.96 120.003642 
L 378.654903 123.952878 
L 372.450496 128.058491 
L 366.350658 132.317915 
L 360.3592 136.728488 
L 354.479868 141.287453 
L 348.716335 145.991962 
L 343.072203 150.839074 
L 337.551 155.82576 
L 332.156177 160.948904 
L 329.820253 163.248591 
L 325.033867 166.785835 
L 320.109858 170.128844 
L 315.056103 173.272272 
L 309.880686 176.211089 
L 304.591888 178.940594 
L 299.19817 181.456421 
L 293.708159 183.754543 
L 290.783325 184.875248 
L 295.733091 181.570493 
L 300.811052 178.46632 
L 306.009085 175.567694 
L 311.318875 172.879253 
L 316.731926 170.405297 
L 322.239579 168.149784 
L 327.833023 166.116323 
L 330.808015 165.1365 
L 325.706153 168.201232 
L 320.485815 171.059493 
L 315.155353 173.706709 
L 309.723294 176.138646 
L 304.198329 178.351414 
L 298.589296 180.341472 
L 292.905169 182.105636 
L 289.8868 182.942344 
L 295.129129 180.12462 
L 300.479943 177.518788 
L 305.930684 175.129016 
L 311.472629 172.959126 
L 317.096914 171.012591 
L 322.794541 169.292524 
L 328.556395 167.801678 
L 331.61126 167.109993 
L 326.240414 169.674285 
L 320.77132 172.021749 
L 315.212727 174.14863 
L 309.573528 176.051525 
L 303.862743 177.727391 
L 298.089511 179.173545 
L 292.263065 180.387675 
L 289.178666 180.932761 
L 294.665786 178.627746 
L 300.240693 176.544001 
L 305.894468 174.68486 
L 311.618067 173.053296 
L 317.402332 171.65192 
L 323.238011 170.482975 
L 329.115767 169.548329 
L 332.222668 169.151084 
L 326.631782 171.191568 
L 320.96377 173.006844 
L 315.227701 174.594008 
L 309.43275 175.950521 
L 303.588189 177.074212 
L 297.703367 177.963285 
L 291.787699 178.616316 
L 288.665378 178.864813 
L 294.347286 177.093512 
L 300.095482 175.550843 
L 305.90077 174.239275 
L 311.753863 173.160905 
L 317.645397 172.317459 
L 323.565948 171.710287 
L 329.506044 171.340359 
L 332.636666 171.241176 
L 326.876689 172.739257 
L 321.061412 174.005802 
L 315.200139 175.038785 
L 309.302245 175.836553 
L 303.377168 176.39783 
L 297.434384 176.721719 
L 291.483402 176.8077 
L 288.351614 176.757344 
L 294.17653 175.535898 
L 300.045632 174.548363 
L 305.94953 173.79632 
L 311.878779 173.280972 
L 317.823894 173.003142 
L 323.775364 172.963276 
L 329.723667 173.161437 
L 332.849482 173.361219 
L 326.972904 174.303245 
L 321.063356 175.009518 
L 315.130292 175.478907 
L 309.183202 175.71066 
L 303.231603 175.704409 
L 297.285013 175.460162 
L 291.352948 174.97831 
L 288.240231 174.629559 
L 294.155075 173.969099 
L 300.091598 173.545698 
L 306.040305 173.360034 
L 311.991678 173.412403 
L 317.936196 173.702721 
L 323.864349 174.230525 
L 329.766654 174.994969 
L 332.859177 175.491895 
L 326.919551 175.869283 
L 320.969584 176.008846 
L 315.018796 175.910363 
L 309.076706 175.573991 
L 303.15282 175.000267 
L 297.256616 174.19011 
L 291.397525 173.144816 
L 288.332246 172.500848 
L 281.298101 170.077726 
L 274.205582 167.831196 
L 267.059122 165.762663 
L 259.863188 163.873419 
L 252.622276 162.164645 
L 245.340911 160.637409 
L 238.023645 159.292665 
L 236.16 158.980285 
L 230.48451 157.188528 
L 224.741909 155.625163 
L 218.941383 154.292691 
L 213.092212 153.193245 
L 207.203754 152.328582 
L 201.285429 151.700086 
L 195.346704 151.308763 
L 190.711364 151.168665 
L 186.450208 152.496772 
L 182.117081 153.566973 
L 177.727578 154.375416 
L 173.297496 154.919193 
L 168.842779 155.196346 
L 164.379458 155.205877 
L 159.923598 154.947753 
L 155.491234 154.422902 
L 151.098318 153.633213 
L 146.76066 152.581528 
L 142.493871 151.271633 
L 138.313306 149.70824 
L 135.287396 148.392942 
L 137.08716 152.477323 
L 138.63877 156.662276 
L 139.936641 160.932738 
L 140.976102 165.273341 
L 141.753413 169.668464 
L 142.265776 174.102289 
L 142.511348 178.558859 
L 142.489243 183.022135 
L 142.199543 187.476053 
L 141.643289 191.904586 
L 140.822483 196.291794 
L 139.74008 200.621889 
L 138.774093 203.776728 
L 139.056473 209.721629 
L 139.576359 215.650482 
L 140.33292 221.553803 
L 141.324946 227.422147 
L 142.55085 233.246127 
L 144.00867 239.016425 
L 145.696074 244.72381 
L 147.100311 248.928 
L 148.956961 243.273406 
L 150.586003 237.549089 
L 151.98483 231.764207 
L 153.151204 225.928014 
L 154.083261 220.049846 
L 154.779507 214.139109 
L 155.249776 209.643024 
L 156.045364 205.251173 
L 157.102874 200.914931 
L 158.418499 196.649905 
L 159.987504 192.471444 
L 161.804244 188.394585 
L 163.862179 184.434001 
L 166.153903 180.603947 
L 168.671169 176.918205 
L 171.404917 173.390041 
L 174.345308 170.032153 
L 177.481761 166.856624 
L 180.802988 163.874884 
L 184.297035 161.097664 
L 187.951328 158.534958 
L 191.752715 156.195989 
L 193.544157 155.199074 
L 189.783397 157.602822 
L 185.885267 159.776735 
L 181.863794 161.712988 
L 177.733452 163.404614 
L 173.509106 164.845523 
L 169.205959 166.030531 
L 164.839498 166.955373 
L 160.425436 167.61672 
L 155.979661 168.012192 
L 151.518171 168.140366 
L 147.057024 168.00078 
L 142.612275 167.593938 
L 138.199919 166.921302 
L 133.835838 165.985295 
L 129.535736 164.789284 
L 126.183127 163.659416 
L 130.479781 164.867754 
L 134.696247 166.331562 
L 138.81735 168.045572 
L 142.828258 170.003616 
L 146.714537 172.198646 
L 150.462199 174.622763 
L 154.057758 177.267243 
L 157.488273 180.122569 
L 160.741398 183.178464 
L 163.805426 186.42393 
L 166.669329 189.847288 
L 169.322801 193.436217 
L 171.75629 197.1778 
L 173.961041 201.058572 
L 175.929118 205.064567 
L 177.316183 208.319199 
L 175.359603 204.307577 
L 173.647096 200.18585 
L 172.184827 195.96885 
L 170.978056 191.671755 
L 170.031129 187.31003 
L 169.347451 182.899372 
L 168.929485 178.455655 
L 168.778734 173.994871 
L 168.895741 169.533074 
L 169.280084 165.086323 
L 169.930381 160.67062 
L 170.84429 156.301857 
L 172.018524 151.995758 
L 173.448856 147.767819 
L 175.130138 143.633256 
L 176.637049 140.432349 
L 174.943917 144.562073 
L 173.006196 148.582839 
L 170.830862 152.480176 
L 168.425742 156.240059 
L 165.799492 159.848955 
L 162.961564 163.293877 
L 159.922172 166.562426 
L 156.692254 169.642839 
L 153.283434 172.52403 
L 149.70798 175.19563 
L 145.97876 177.648025 
L 142.109195 179.872387 
L 138.113212 181.860712 
L 134.005191 183.605844 
L 129.799918 185.101502 
L 126.407683 186.106154 
L 130.617228 184.622562 
L 134.90816 183.39406 
L 139.265038 182.42507 
L 143.672179 181.71908 
L 148.113724 181.278631 
L 152.573688 181.105306 
L 157.036019 181.199731 
L 161.484659 181.561565 
L 165.903597 182.189507 
L 170.276928 183.081295 
L 174.588915 184.233721 
L 178.824039 185.642638 
L 182.967058 187.302974 
L 187.00306 189.208755 
L 190.917522 191.353121 
L 193.924487 193.217189 
L 198.799096 196.631829 
L 203.806355 199.848806 
L 208.938253 202.862973 
L 214.186581 205.669507 
L 219.542942 208.26392 
L 224.998767 210.642059 
L 230.545329 212.800122 
L 236.16 214.730233 
L 230.531763 216.665313 
L 224.985411 218.823914 
L 219.529817 221.202583 
L 214.173708 223.797516 
L 208.925652 226.60456 
L 203.794047 229.619225 
L 198.7871 232.836688 
L 193.912823 236.251802 
L 189.179013 239.859103 
L 184.593243 243.652821 
L 180.162849 247.626886 
L 178.787084 248.928 
L 174.407621 244.897878 
L 169.870498 241.046112 
L 165.182976 237.378863 
L 160.352552 233.901999 
L 155.386954 230.621081 
L 150.294127 227.541359 
L 145.082217 224.667759 
L 139.759563 222.004878 
L 134.33468 219.556976 
L 128.816246 217.32797 
L 123.21309 215.321426 
L 117.534175 213.540553 
L 111.788587 211.9882 
L 105.985517 210.666852 
L 100.134249 209.578621 
L 94.244144 208.72525 
L 88.324625 208.108102 
L 87.36 208.030156 
L 93.283408 207.45152 
L 99.178939 206.636474 
L 105.03716 205.586322 
L 110.848701 204.302744 
L 116.604264 202.787792 
L 122.294641 201.043891 
L 127.910729 199.073831 
L 132.366124 197.328002 
L 136.294492 195.209218 
L 140.342842 193.329807 
L 144.496603 191.696534 
L 148.740828 190.315275 
L 153.060242 189.191003 
L 157.439298 188.327764 
L 161.862238 187.728663 
L 166.313143 187.395858 
L 170.775996 187.330546 
L 175.234734 187.532962 
L 179.673311 188.002377 
L 184.075753 188.737103 
L 188.426217 189.734494 
L 192.709043 190.990962 
L 194.762449 191.694198 
L 191.195086 189.011804 
L 187.794989 186.120323 
L 184.574396 183.030162 
L 181.544896 179.752442 
L 178.717393 176.298959 
L 176.102062 172.682142 
L 173.708317 168.915007 
L 171.544771 165.011113 
L 169.619212 160.984509 
L 167.938569 156.849687 
L 166.508891 152.621526 
L 165.335323 148.315245 
L 164.422089 143.946341 
L 163.772475 139.530538 
L 163.552599 137.371216 
L 162.607761 141.733394 
L 161.403049 146.031067 
L 159.942799 150.248766 
L 158.232267 154.371314 
L 156.277609 158.383873 
L 154.085858 162.272002 
L 151.664904 166.021708 
L 149.023459 169.619497 
L 146.171029 173.05242 
L 143.11788 176.308123 
L 139.875 179.374888 
L 136.45406 182.241679 
L 132.867371 184.898178 
L 129.127843 187.334824 
L 127.258328 188.437515 
L 131.615897 187.471644 
L 136.023543 186.768809 
L 140.465402 186.331538 
L 144.925489 186.161406 
L 149.387752 186.259025 
L 153.836131 186.624043 
L 158.254618 187.255147 
L 162.627311 188.150065 
L 166.938472 189.305577 
L 171.172586 190.717525 
L 175.314415 192.380826 
L 179.349053 194.289495 
L 183.261979 196.436662 
L 187.039111 198.8146 
L 188.822537 200.051696 
L 186.122965 196.497315 
L 183.641385 192.787452 
L 181.38673 188.93546 
L 179.367112 184.955201 
L 177.5898 180.861 
L 176.061192 176.667591 
L 174.786788 172.390067 
L 173.771175 168.043822 
L 173.018007 163.644497 
L 172.529996 159.207926 
L 172.308898 154.750075 
L 172.355508 150.286988 
L 172.669658 145.834727 
L 173.250219 141.409315 
L 173.628183 139.27199 
L 171.528375 143.210533 
L 169.196174 147.016076 
L 166.639974 150.674923 
L 163.868975 154.173906 
L 160.893149 157.500433 
L 157.723206 160.642531 
L 154.370555 163.588893 
L 150.847261 166.328914 
L 147.166004 168.852734 
L 143.340033 171.15127 
L 139.383118 173.216248 
L 135.309498 175.040239 
L 131.133835 176.616677 
L 126.871156 177.939888 
L 124.771623 178.490323 
L 129.22735 178.750742 
L 133.659443 179.277876 
L 138.051952 180.069828 
L 142.389068 181.123747 
L 146.655182 182.43584 
L 150.834941 184.001385 
L 154.913302 185.814749 
L 158.875588 187.869404 
L 162.707539 190.157956 
L 166.395363 192.67217 
L 169.92579 195.402996 
L 173.286111 198.340606 
L 176.464236 201.474429 
L 179.448725 204.793185 
L 180.826684 206.47016 
L 179.199989 202.313817 
L 177.825452 198.067411 
L 176.70802 193.746223 
L 175.851715 189.365805 
L 175.259618 184.941922 
L 174.93386 180.490496 
L 174.875614 176.027545 
L 175.085089 171.569133 
L 175.561531 167.131305 
L 176.303226 162.730031 
L 177.307504 158.381153 
L 178.570751 154.10032 
L 180.088421 149.902941 
L 181.855052 145.80412 
L 182.802141 143.851164 
L 179.706885 147.066861 
L 176.424373 150.091167 
L 172.966417 152.913199 
L 169.345464 155.5228 
L 165.574545 157.910578 
L 161.66723 160.06794 
L 157.637582 161.987121 
L 153.500104 163.661216 
L 149.269685 165.084198 
L 144.961552 166.250946 
L 140.591207 167.157262 
L 136.174381 167.799884 
L 131.726968 168.176499 
L 127.264975 168.285752 
L 125.094926 168.242113 
L 119.18641 168.956968 
L 113.311207 169.907529 
L 107.478715 171.092276 
L 101.698266 172.509312 
L 95.979108 174.15637 
L 90.330388 176.030817 
L 87.36 177.118567 
L 92.967597 179.112668 
L 98.650451 180.880929 
L 104.399471 182.420523 
L 110.20546 183.728985 
L 116.059129 184.804224 
L 121.951114 185.644518 
L 126.412833 186.121868 
L 130.860902 185.753086 
L 135.323081 185.651691 
L 139.78331 185.818048 
L 144.225537 186.25156 
L 148.633776 186.950665 
L 152.992162 187.912847 
L 157.285008 189.134645 
L 161.496866 190.61166 
L 165.612576 192.338577 
L 169.617328 194.309181 
L 173.496708 196.516381 
L 177.236755 198.952231 
L 180.824009 201.607967 
L 184.056056 204.305943 
L 182.283182 200.209818 
L 180.759119 196.014756 
L 179.489351 191.735853 
L 178.478448 187.38851 
L 177.730049 182.988372 
L 177.246846 178.551274 
L 177.030578 174.093186 
L 177.082025 169.630152 
L 177.401 165.178235 
L 177.986356 160.753455 
L 178.835987 156.371737 
L 179.946834 152.048852 
L 181.314899 147.800356 
L 182.836659 143.874869 
L 179.523311 146.865361 
L 176.036603 149.65179 
L 172.389084 152.224129 
L 168.593881 154.573119 
L 164.664653 156.690306 
L 160.61554 158.568071 
L 156.461115 160.199656 
L 152.216329 161.579189 
L 147.896459 162.701706 
L 143.517052 163.563166 
L 139.093869 164.160469 
L 134.642829 164.491465 
L 130.17995 164.554963 
L 125.973907 164.369481 
L 129.867476 166.551552 
L 133.623194 168.963171 
L 137.227542 171.595658 
L 140.667551 174.439539 
L 143.930839 177.484579 
L 147.005662 180.71982 
L 149.880954 184.133617 
L 152.546367 187.713686 
L 154.992308 191.447142 
L 157.209975 195.320547 
L 159.191387 199.319963 
L 160.929412 203.430995 
L 162.417795 207.638849 
L 163.588099 211.683054 
L 164.409382 207.295935 
L 165.492256 202.965958 
L 166.832825 198.708706 
L 168.426263 194.539501 
L 170.266836 190.473347 
L 172.34792 186.524878 
L 174.662025 182.708304 
L 177.200823 179.037361 
L 179.955177 175.52526 
L 182.915175 172.184641 
L 186.070162 169.027527 
L 189.408786 166.065279 
L 192.919031 163.30856 
L 196.376026 160.905564 
L 191.956797 161.531452 
L 187.50799 161.891219 
L 183.045615 161.98357 
L 178.585732 161.808174 
L 174.144392 161.365661 
L 169.737579 160.657623 
L 165.381152 159.686609 
L 161.090791 158.456114 
L 156.881936 156.970566 
L 152.769733 155.235311 
L 148.768983 153.256595 
L 144.894084 151.041538 
L 141.158982 148.598112 
L 137.776041 146.091936 
L 139.78327 150.078458 
L 141.547838 154.178167 
L 143.063396 158.37631 
L 144.324489 162.657777 
L 145.326579 167.00716 
L 146.06606 171.408806 
L 146.54027 175.846874 
L 146.747501 180.305391 
L 146.68701 184.768311 
L 146.359013 189.219573 
L 145.76469 193.643158 
L 144.906181 198.023144 
L 143.786575 202.343769 
L 142.494819 206.350834 
L 145.629329 203.173388 
L 148.94873 200.189617 
L 152.441078 197.410259 
L 156.093803 194.845319 
L 159.893758 192.504025 
L 163.82727 190.394806 
L 167.88018 188.52525 
L 172.037903 186.902088 
L 176.285476 185.531161 
L 180.607612 184.417401 
L 184.988756 183.564819 
L 189.41314 182.976482 
L 193.864842 182.654507 
L 198.074567 182.595976 
L 203.895631 181.356302 
L 209.662466 179.88484 
L 215.365844 178.183943 
L 220.996643 176.256332 
L 226.545854 174.105091 
L 232.0046 171.733661 
L 236.16 169.750402 
L 243.381431 167.961086 
L 250.555877 165.991812 
L 257.678855 163.843812 
L 264.745912 161.518426 
L 271.752633 159.017109 
L 278.694637 156.341424 
L 285.567587 153.493044 
L 292.367188 150.473747 
L 299.089189 147.285422 
L 305.729389 143.93006 
L 312.28364 140.409759 
L 318.747844 136.726719 
L 325.117961 132.883242 
L 331.390012 128.881729 
L 337.560074 124.724681 
L 343.624294 120.414698 
L 349.57888 115.954471 
L 355.420111 111.346789 
L 361.144337 106.594531 
L 366.74798 101.700668 
L 368.490074 100.128 
L 374.054949 105.065903 
L 379.74152 109.863155 
L 384.96 114.057516 
L 379.16695 118.725631 
L 373.492402 123.537098 
L 367.939901 128.488911 
L 362.512917 133.577974 
L 357.214842 138.801107 
L 352.048988 144.155047 
L 347.018583 149.636446 
L 342.12677 155.241879 
L 337.376607 160.967844 
L 331.892027 167.960883 
L 338.975274 170.236475 
L 346.113192 172.334294 
L 353.30132 174.253028 
L 360.535165 175.991478 
L 367.810206 177.548557 
L 375.121896 178.923293 
L 382.465667 180.114825 
L 384.96 180.476804 
L 377.606401 181.606099 
L 370.28333 182.918861 
L 362.995363 184.41427 
L 355.747054 186.091393 
L 348.542934 187.94918 
L 341.387505 189.986471 
L 334.285239 192.201992 
L 327.240575 194.594359 
L 320.257915 197.162077 
L 313.341623 199.903541 
L 306.496022 202.817038 
L 299.72539 205.900746 
L 293.033958 209.152739 
L 286.425909 212.570984 
L 279.905371 216.153345 
L 273.476421 219.897583 
L 267.143076 223.801357 
L 260.909294 227.86223 
L 254.778972 232.077661 
L 248.75594 236.445018 
L 242.843962 240.961569 
L 236.16 246.359057 
L 239.292056 248.928 
L 245.017468 244.177171 
L 250.622333 239.284706 
L 256.103147 234.253663 
L 261.456485 229.087186 
L 266.679002 223.788504 
L 271.767434 218.360929 
L 276.718601 212.807851 
L 281.529408 207.132743 
L 286.196849 201.339151 
L 290.718006 195.430695 
L 295.561202 188.993313 
L 299.565617 184.590332 
L 303.742901 180.351007 
L 308.086372 176.28212 
L 312.58908 172.390179 
L 317.243823 168.681413 
L 322.043154 165.161753 
L 326.979394 161.83683 
L 328.306333 160.991011 
L 323.836195 164.920317 
L 319.212502 168.667722 
L 314.442651 172.227232 
L 309.534274 175.59315 
L 304.495221 178.760094 
L 299.333556 181.722996 
L 294.057535 184.477117 
L 291.301859 185.811015 
L 296.215856 182.453304 
L 301.260194 179.294787 
L 306.426805 176.340516 
L 311.707422 173.595218 
L 317.093598 171.063284 
L 322.576716 168.748764 
L 328.148004 166.655363 
L 331.045204 165.665786 
L 325.760006 168.402255 
L 320.369605 170.925183 
L 314.882627 173.230535 
L 309.307848 175.314622 
L 303.654186 177.17411 
L 297.930688 178.806025 
L 292.146508 180.207755 
L 289.150621 180.838379 
L 294.728875 178.763612 
L 300.385637 176.913576 
L 306.111855 175.29123 
L 311.898369 173.899169 
L 317.735922 172.73962 
L 323.615176 171.814439 
L 329.526724 171.125105 
L 332.577003 170.862759 
L 326.78817 172.245147 
L 320.948687 173.394937 
L 315.067895 174.31029 
L 309.155203 174.989743 
L 303.22007 175.432207 
L 297.271991 175.636975 
L 291.32048 175.60372 
L 288.26091 175.49391 
L 294.174729 174.824341 
L 300.110594 174.391797 
L 306.059007 174.196971 
L 312.010454 174.240173 
L 317.955412 174.521336 
L 323.884371 175.040008 
L 329.787847 175.795361 
L 332.81147 176.275703 
L 326.860104 176.222554 
L 320.915624 175.931455 
L 314.98754 175.402874 
L 309.085335 174.637655 
L 303.218452 173.637024 
L 297.396277 172.40258 
L 291.628123 170.936298 
L 288.685152 170.092525 
L 294.58607 170.867607 
L 300.451272 171.878044 
L 306.271377 173.122217 
L 312.037072 174.598137 
L 317.739134 176.303443 
L 323.368441 178.235407 
L 328.915987 180.390938 
L 331.734791 181.585665 
L 325.971571 180.10011 
L 320.272367 178.385276 
L 314.646297 176.443906 
L 309.102361 174.279107 
L 303.649429 171.894341 
L 298.296223 169.293423 
L 293.051309 166.480514 
L 290.39835 164.952497 
L 295.93866 167.126559 
L 301.387598 169.520436 
L 306.736449 172.130298 
L 311.976655 174.951969 
L 317.099832 177.980935 
L 322.097785 181.212351 
L 326.962518 184.641047 
L 329.410406 186.479761 
L 324.174924 183.649336 
L 319.056817 180.611811 
L 314.064272 177.372046 
L 309.205276 173.935224 
L 304.487604 170.306843 
L 299.918801 166.492708 
L 295.506178 162.498921 
L 293.299554 160.376696 
L 293.299554 160.376696 
" style="fill:none;stroke:#1f77b4;stroke-linecap:square;stroke-width:1.5;"/>
   </g>
   <g id="patch_5">
    <path d="M 57.6 263.808 
L 57.6 85.248 
" style="fill:none;stroke:#000000;stroke-linecap:square;stroke-linejoin:miter;stroke-width:0.8;"/>
   </g>
   <g id="patch_6">
    <path d="M 414.72 263.808 
L 414.72 85.248 
" style="fill:none;stroke:#000000;stroke-linecap:square;stroke-linejoin:miter;stroke-width:0.8;"/>
   </g>
   <g id="patch_7">
    <path d="M 57.6 263.808 
L 414.72 263.808 
" style="fill:none;stroke:#000000;stroke-linecap:square;stroke-linejoin:miter;stroke-width:0.8;"/>
   </g>
   <g id="patch_8">
    <path d="M 57.6 85.248 
L 414.72 85.248 
" style="fill:none;stroke:#000000;stroke-linecap:square;stroke-linejoin:miter;stroke-width:0.8;"/>
   </g>
  </g>
 </g>
 <defs>
  <clipPath id="pc23c09423d">
   <rect height="178.56" width="357.12" x="57.6" y="85.248"/>
  </clipPath>
 </defs>
</svg>
