<?xml version="1.0" encoding="utf-8" standalone="no"?>
<!DOCTYPE svg PUBLIC "-//W3C//DTD SVG 1.1//EN"
  "http://www.w3.org/Graphics/SVG/1.1/DTD/svg11.dtd">
<!-- Created with matplotlib (https://matplotlib.org/) -->
<svg height="345.6pt" version="1.1" viewBox="0 0 460.8 345.6" width="460.8pt" xmlns="http://www.w3.org/2000/svg" xmlns:xlink="http://www.w3.org/1999/xlink">
 <defs>
  <style type="text/css">
*{stroke-linecap:butt;stroke-linejoin:round;}
  </style>
 </defs>
 <g id="figure_1">
  <g id="patch_1">
   <path d="M 0 345.6 
L 460.8 345.6 
L 460.8 0 
L 0 0 
z
" style="fill:#ffffff;"/>
  </g>
  <g id="axes_1">
   <g id="patch_2">
    <path d="M 57.6 263.808 
L 414.72 263.808 
L 414.72 85.248 
L 57.6 85.248 
z
" style="fill:#ffffff;"/>
   </g>
   <g id="PathCollection_1">
    <defs>
     <path d="M 0 3 
C 0.795609 3 1.55874 2.683901 2.12132 2.12132 
C 2.683901 1.55874 3 0.795609 3 0 
C 3 -0.795609 2.683901 -1.55874 2.12132 -2.12132 
C 1.55874 -2.683901 0.795609 -3 0 -3 
C -0.795609 -3 -1.55874 -2.683901 -2.12132 -2.12132 
C -2.683901 -1.55874 -3 -0.795609 -3 0 
C -3 0.795609 -2.683901 1.55874 -2.12132 2.12132 
C -1.55874 2.683901 -0.795609 3 0 3 
z
" id="m38e73ca940" style="stroke:#000000;"/>
    </defs>
    <g clip-path="url(#p2e55f8bb7c)">
     <use style="stroke:#000000;" x="95.805622" xlink:href="#m38e73ca940" y="240.739047"/>
    </g>
   </g>
   <g id="patch_3">
    <path clip-path="url(#p2e55f8bb7c)" d="M 161.76 211.728 
C 171.625555 211.728 181.088371 207.808373 188.064372 200.832372 
C 195.040373 193.856371 198.96 184.393555 198.96 174.528 
C 198.96 164.662445 195.040373 155.199629 188.064372 148.223628 
C 181.088371 141.247627 171.625555 137.328 161.76 137.328 
C 151.894445 137.328 142.431629 141.247627 135.455628 148.223628 
C 128.479627 155.199629 124.56 164.662445 124.56 174.528 
C 124.56 184.393555 128.479627 193.856371 135.455628 200.832372 
C 142.431629 207.808373 151.894445 211.728 161.76 211.728 
z
" style="fill:#cc0000;fill-opacity:0.1;stroke:#cc0000;stroke-dasharray:7.4,3.2;stroke-dashoffset:0;stroke-linejoin:miter;stroke-width:2;"/>
   </g>
   <g id="patch_4">
    <path clip-path="url(#p2e55f8bb7c)" d="M 310.56 196.848 
C 316.479333 196.848 322.157023 194.496224 326.342623 190.310623 
C 330.528224 186.125023 332.88 180.447333 332.88 174.528 
C 332.88 168.608667 330.528224 162.930977 326.342623 158.745377 
C 322.157023 154.559776 316.479333 152.208 310.56 152.208 
C 304.640667 152.208 298.962977 154.559776 294.777377 158.745377 
C 290.591776 162.930977 288.24 168.608667 288.24 174.528 
C 288.24 180.447333 290.591776 186.125023 294.777377 190.310623 
C 298.962977 194.496224 304.640667 196.848 310.56 196.848 
z
" style="fill:#cc0000;fill-opacity:0.1;stroke:#cc0000;stroke-dasharray:7.4,3.2;stroke-dashoffset:0;stroke-linejoin:miter;stroke-width:2;"/>
   </g>
   <g id="matplotlib.axis_1">
    <g id="xtick_1">
     <g id="line2d_1">
      <defs>
       <path d="M 0 0 
L 0 3.5 
" id="mc5600bd5be" style="stroke:#000000;stroke-width:0.8;"/>
      </defs>
      <g>
       <use style="stroke:#000000;stroke-width:0.8;" x="87.36" xlink:href="#mc5600bd5be" y="263.808"/>
      </g>
     </g>
     <g id="text_1">
      <!-- 0.0 -->
      <defs>
       <path d="M 31.78125 66.40625 
Q 24.171875 66.40625 20.328125 58.90625 
Q 16.5 51.421875 16.5 36.375 
Q 16.5 21.390625 20.328125 13.890625 
Q 24.171875 6.390625 31.78125 6.390625 
Q 39.453125 6.390625 43.28125 13.890625 
Q 47.125 21.390625 47.125 36.375 
Q 47.125 51.421875 43.28125 58.90625 
Q 39.453125 66.40625 31.78125 66.40625 
z
M 31.78125 74.21875 
Q 44.046875 74.21875 50.515625 64.515625 
Q 56.984375 54.828125 56.984375 36.375 
Q 56.984375 17.96875 50.515625 8.265625 
Q 44.046875 -1.421875 31.78125 -1.421875 
Q 19.53125 -1.421875 13.0625 8.265625 
Q 6.59375 17.96875 6.59375 36.375 
Q 6.59375 54.828125 13.0625 64.515625 
Q 19.53125 74.21875 31.78125 74.21875 
z
" id="DejaVuSans-48"/>
       <path d="M 10.6875 12.40625 
L 21 12.40625 
L 21 0 
L 10.6875 0 
z
" id="DejaVuSans-46"/>
      </defs>
      <g transform="translate(79.408438 278.406437)scale(0.1 -0.1)">
       <use xlink:href="#DejaVuSans-48"/>
       <use x="63.623047" xlink:href="#DejaVuSans-46"/>
       <use x="95.410156" xlink:href="#DejaVuSans-48"/>
      </g>
     </g>
    </g>
    <g id="xtick_2">
     <g id="line2d_2">
      <g>
       <use style="stroke:#000000;stroke-width:0.8;" x="161.76" xlink:href="#mc5600bd5be" y="263.808"/>
      </g>
     </g>
     <g id="text_2">
      <!-- 0.5 -->
      <defs>
       <path d="M 10.796875 72.90625 
L 49.515625 72.90625 
L 49.515625 64.59375 
L 19.828125 64.59375 
L 19.828125 46.734375 
Q 21.96875 47.46875 24.109375 47.828125 
Q 26.265625 48.1875 28.421875 48.1875 
Q 40.625 48.1875 47.75 41.5 
Q 54.890625 34.8125 54.890625 23.390625 
Q 54.890625 11.625 47.5625 5.09375 
Q 40.234375 -1.421875 26.90625 -1.421875 
Q 22.3125 -1.421875 17.546875 -0.640625 
Q 12.796875 0.140625 7.71875 1.703125 
L 7.71875 11.625 
Q 12.109375 9.234375 16.796875 8.0625 
Q 21.484375 6.890625 26.703125 6.890625 
Q 35.15625 6.890625 40.078125 11.328125 
Q 45.015625 15.765625 45.015625 23.390625 
Q 45.015625 31 40.078125 35.4375 
Q 35.15625 39.890625 26.703125 39.890625 
Q 22.75 39.890625 18.8125 39.015625 
Q 14.890625 38.140625 10.796875 36.28125 
z
" id="DejaVuSans-53"/>
      </defs>
      <g transform="translate(153.808437 278.406437)scale(0.1 -0.1)">
       <use xlink:href="#DejaVuSans-48"/>
       <use x="63.623047" xlink:href="#DejaVuSans-46"/>
       <use x="95.410156" xlink:href="#DejaVuSans-53"/>
      </g>
     </g>
    </g>
    <g id="xtick_3">
     <g id="line2d_3">
      <g>
       <use style="stroke:#000000;stroke-width:0.8;" x="236.16" xlink:href="#mc5600bd5be" y="263.808"/>
      </g>
     </g>
     <g id="text_3">
      <!-- 1.0 -->
      <defs>
       <path d="M 12.40625 8.296875 
L 28.515625 8.296875 
L 28.515625 63.921875 
L 10.984375 60.40625 
L 10.984375 69.390625 
L 28.421875 72.90625 
L 38.28125 72.90625 
L 38.28125 8.296875 
L 54.390625 8.296875 
L 54.390625 0 
L 12.40625 0 
z
" id="DejaVuSans-49"/>
      </defs>
      <g transform="translate(228.208437 278.406437)scale(0.1 -0.1)">
       <use xlink:href="#DejaVuSans-49"/>
       <use x="63.623047" xlink:href="#DejaVuSans-46"/>
       <use x="95.410156" xlink:href="#DejaVuSans-48"/>
      </g>
     </g>
    </g>
    <g id="xtick_4">
     <g id="line2d_4">
      <g>
       <use style="stroke:#000000;stroke-width:0.8;" x="310.56" xlink:href="#mc5600bd5be" y="263.808"/>
      </g>
     </g>
     <g id="text_4">
      <!-- 1.5 -->
      <g transform="translate(302.608437 278.406437)scale(0.1 -0.1)">
       <use xlink:href="#DejaVuSans-49"/>
       <use x="63.623047" xlink:href="#DejaVuSans-46"/>
       <use x="95.410156" xlink:href="#DejaVuSans-53"/>
      </g>
     </g>
    </g>
    <g id="xtick_5">
     <g id="line2d_5">
      <g>
       <use style="stroke:#000000;stroke-width:0.8;" x="384.96" xlink:href="#mc5600bd5be" y="263.808"/>
      </g>
     </g>
     <g id="text_5">
      <!-- 2.0 -->
      <defs>
       <path d="M 19.1875 8.296875 
L 53.609375 8.296875 
L 53.609375 0 
L 7.328125 0 
L 7.328125 8.296875 
Q 12.9375 14.109375 22.625 23.890625 
Q 32.328125 33.6875 34.8125 36.53125 
Q 39.546875 41.84375 41.421875 45.53125 
Q 43.3125 49.21875 43.3125 52.78125 
Q 43.3125 58.59375 39.234375 62.25 
Q 35.15625 65.921875 28.609375 65.921875 
Q 23.96875 65.921875 18.8125 64.3125 
Q 13.671875 62.703125 7.8125 59.421875 
L 7.8125 69.390625 
Q 13.765625 71.78125 18.9375 73 
Q 24.125 74.21875 28.421875 74.21875 
Q 39.75 74.21875 46.484375 68.546875 
Q 53.21875 62.890625 53.21875 53.421875 
Q 53.21875 48.921875 51.53125 44.890625 
Q 49.859375 40.875 45.40625 35.40625 
Q 44.1875 33.984375 37.640625 27.21875 
Q 31.109375 20.453125 19.1875 8.296875 
z
" id="DejaVuSans-50"/>
      </defs>
      <g transform="translate(377.008437 278.406437)scale(0.1 -0.1)">
       <use xlink:href="#DejaVuSans-50"/>
       <use x="63.623047" xlink:href="#DejaVuSans-46"/>
       <use x="95.410156" xlink:href="#DejaVuSans-48"/>
      </g>
     </g>
    </g>
   </g>
   <g id="matplotlib.axis_2">
    <g id="ytick_1">
     <g id="line2d_6">
      <defs>
       <path d="M 0 0 
L -3.5 0 
" id="m462fe230db" style="stroke:#000000;stroke-width:0.8;"/>
      </defs>
      <g>
       <use style="stroke:#000000;stroke-width:0.8;" x="57.6" xlink:href="#m462fe230db" y="248.928"/>
      </g>
     </g>
     <g id="text_6">
      <!-- 0.0 -->
      <g transform="translate(34.696875 252.727219)scale(0.1 -0.1)">
       <use xlink:href="#DejaVuSans-48"/>
       <use x="63.623047" xlink:href="#DejaVuSans-46"/>
       <use x="95.410156" xlink:href="#DejaVuSans-48"/>
      </g>
     </g>
    </g>
    <g id="ytick_2">
     <g id="line2d_7">
      <g>
       <use style="stroke:#000000;stroke-width:0.8;" x="57.6" xlink:href="#m462fe230db" y="219.168"/>
      </g>
     </g>
     <g id="text_7">
      <!-- 0.2 -->
      <g transform="translate(34.696875 222.967219)scale(0.1 -0.1)">
       <use xlink:href="#DejaVuSans-48"/>
       <use x="63.623047" xlink:href="#DejaVuSans-46"/>
       <use x="95.410156" xlink:href="#DejaVuSans-50"/>
      </g>
     </g>
    </g>
    <g id="ytick_3">
     <g id="line2d_8">
      <g>
       <use style="stroke:#000000;stroke-width:0.8;" x="57.6" xlink:href="#m462fe230db" y="189.408"/>
      </g>
     </g>
     <g id="text_8">
      <!-- 0.4 -->
      <defs>
       <path d="M 37.796875 64.3125 
L 12.890625 25.390625 
L 37.796875 25.390625 
z
M 35.203125 72.90625 
L 47.609375 72.90625 
L 47.609375 25.390625 
L 58.015625 25.390625 
L 58.015625 17.1875 
L 47.609375 17.1875 
L 47.609375 0 
L 37.796875 0 
L 37.796875 17.1875 
L 4.890625 17.1875 
L 4.890625 26.703125 
z
" id="DejaVuSans-52"/>
      </defs>
      <g transform="translate(34.696875 193.207219)scale(0.1 -0.1)">
       <use xlink:href="#DejaVuSans-48"/>
       <use x="63.623047" xlink:href="#DejaVuSans-46"/>
       <use x="95.410156" xlink:href="#DejaVuSans-52"/>
      </g>
     </g>
    </g>
    <g id="ytick_4">
     <g id="line2d_9">
      <g>
       <use style="stroke:#000000;stroke-width:0.8;" x="57.6" xlink:href="#m462fe230db" y="159.648"/>
      </g>
     </g>
     <g id="text_9">
      <!-- 0.6 -->
      <defs>
       <path d="M 33.015625 40.375 
Q 26.375 40.375 22.484375 35.828125 
Q 18.609375 31.296875 18.609375 23.390625 
Q 18.609375 15.53125 22.484375 10.953125 
Q 26.375 6.390625 33.015625 6.390625 
Q 39.65625 6.390625 43.53125 10.953125 
Q 47.40625 15.53125 47.40625 23.390625 
Q 47.40625 31.296875 43.53125 35.828125 
Q 39.65625 40.375 33.015625 40.375 
z
M 52.59375 71.296875 
L 52.59375 62.3125 
Q 48.875 64.0625 45.09375 64.984375 
Q 41.3125 65.921875 37.59375 65.921875 
Q 27.828125 65.921875 22.671875 59.328125 
Q 17.53125 52.734375 16.796875 39.40625 
Q 19.671875 43.65625 24.015625 45.921875 
Q 28.375 48.1875 33.59375 48.1875 
Q 44.578125 48.1875 50.953125 41.515625 
Q 57.328125 34.859375 57.328125 23.390625 
Q 57.328125 12.15625 50.6875 5.359375 
Q 44.046875 -1.421875 33.015625 -1.421875 
Q 20.359375 -1.421875 13.671875 8.265625 
Q 6.984375 17.96875 6.984375 36.375 
Q 6.984375 53.65625 15.1875 63.9375 
Q 23.390625 74.21875 37.203125 74.21875 
Q 40.921875 74.21875 44.703125 73.484375 
Q 48.484375 72.75 52.59375 71.296875 
z
" id="DejaVuSans-54"/>
      </defs>
      <g transform="translate(34.696875 163.447219)scale(0.1 -0.1)">
       <use xlink:href="#DejaVuSans-48"/>
       <use x="63.623047" xlink:href="#DejaVuSans-46"/>
       <use x="95.410156" xlink:href="#DejaVuSans-54"/>
      </g>
     </g>
    </g>
    <g id="ytick_5">
     <g id="line2d_10">
      <g>
       <use style="stroke:#000000;stroke-width:0.8;" x="57.6" xlink:href="#m462fe230db" y="129.888"/>
      </g>
     </g>
     <g id="text_10">
      <!-- 0.8 -->
      <defs>
       <path d="M 31.78125 34.625 
Q 24.75 34.625 20.71875 30.859375 
Q 16.703125 27.09375 16.703125 20.515625 
Q 16.703125 13.921875 20.71875 10.15625 
Q 24.75 6.390625 31.78125 6.390625 
Q 38.8125 6.390625 42.859375 10.171875 
Q 46.921875 13.96875 46.921875 20.515625 
Q 46.921875 27.09375 42.890625 30.859375 
Q 38.875 34.625 31.78125 34.625 
z
M 21.921875 38.8125 
Q 15.578125 40.375 12.03125 44.71875 
Q 8.5 49.078125 8.5 55.328125 
Q 8.5 64.0625 14.71875 69.140625 
Q 20.953125 74.21875 31.78125 74.21875 
Q 42.671875 74.21875 48.875 69.140625 
Q 55.078125 64.0625 55.078125 55.328125 
Q 55.078125 49.078125 51.53125 44.71875 
Q 48 40.375 41.703125 38.8125 
Q 48.828125 37.15625 52.796875 32.3125 
Q 56.78125 27.484375 56.78125 20.515625 
Q 56.78125 9.90625 50.3125 4.234375 
Q 43.84375 -1.421875 31.78125 -1.421875 
Q 19.734375 -1.421875 13.25 4.234375 
Q 6.78125 9.90625 6.78125 20.515625 
Q 6.78125 27.484375 10.78125 32.3125 
Q 14.796875 37.15625 21.921875 38.8125 
z
M 18.3125 54.390625 
Q 18.3125 48.734375 21.84375 45.5625 
Q 25.390625 42.390625 31.78125 42.390625 
Q 38.140625 42.390625 41.71875 45.5625 
Q 45.3125 48.734375 45.3125 54.390625 
Q 45.3125 60.0625 41.71875 63.234375 
Q 38.140625 66.40625 31.78125 66.40625 
Q 25.390625 66.40625 21.84375 63.234375 
Q 18.3125 60.0625 18.3125 54.390625 
z
" id="DejaVuSans-56"/>
      </defs>
      <g transform="translate(34.696875 133.687219)scale(0.1 -0.1)">
       <use xlink:href="#DejaVuSans-48"/>
       <use x="63.623047" xlink:href="#DejaVuSans-46"/>
       <use x="95.410156" xlink:href="#DejaVuSans-56"/>
      </g>
     </g>
    </g>
    <g id="ytick_6">
     <g id="line2d_11">
      <g>
       <use style="stroke:#000000;stroke-width:0.8;" x="57.6" xlink:href="#m462fe230db" y="100.128"/>
      </g>
     </g>
     <g id="text_11">
      <!-- 1.0 -->
      <g transform="translate(34.696875 103.927219)scale(0.1 -0.1)">
       <use xlink:href="#DejaVuSans-49"/>
       <use x="63.623047" xlink:href="#DejaVuSans-46"/>
       <use x="95.410156" xlink:href="#DejaVuSans-48"/>
      </g>
     </g>
    </g>
   </g>
   <g id="line2d_12">
    <path clip-path="url(#p2e55f8bb7c)" d="M 236.16 248.928 
L 236.16 100.128 
" style="fill:none;stroke:#cc0000;stroke-dasharray:7.4,3.2;stroke-dashoffset:0;stroke-width:2;"/>
   </g>
   <g id="line2d_13">
    <path clip-path="url(#p2e55f8bb7c)" d="M 87.36 248.928 
L 384.96 248.928 
" style="fill:none;stroke:#009900;stroke-linecap:square;stroke-width:2;"/>
   </g>
   <g id="line2d_14">
    <path clip-path="url(#p2e55f8bb7c)" d="M 384.96 248.928 
L 384.96 100.128 
" style="fill:none;stroke:#009900;stroke-linecap:square;stroke-width:2;"/>
   </g>
   <g id="line2d_15">
    <path clip-path="url(#p2e55f8bb7c)" d="M 384.96 100.128 
L 87.36 100.128 
" style="fill:none;stroke:#009900;stroke-linecap:square;stroke-width:2;"/>
   </g>
   <g id="line2d_16">
    <path clip-path="url(#p2e55f8bb7c)" d="M 87.36 100.128 
L 87.36 248.928 
" style="fill:none;stroke:#009900;stroke-linecap:square;stroke-width:2;"/>
   </g>
   <g id="line2d_17">
    <path clip-path="url(#p2e55f8bb7c)" d="M 95.805622 240.739047 
L 92.414764 245.630229 
L 90.287012 248.928 
L 87.36 244.439109 
L 90.600822 239.447251 
L 93.639431 234.329787 
L 96.470965 229.094904 
L 99.090895 223.750978 
L 101.49503 218.306557 
L 103.679522 212.770351 
L 105.640878 207.151218 
L 107.375959 201.458145 
L 108.881991 195.700242 
L 110.156563 189.886719 
L 111.197637 184.026878 
L 112.003546 178.130091 
L 112.573003 172.205794 
L 112.905095 166.263463 
L 112.999292 160.312605 
L 112.855443 154.362741 
L 112.473778 148.423388 
L 111.854907 142.504048 
L 110.99982 136.614192 
L 109.909887 130.763241 
L 108.586849 124.960556 
L 107.032824 119.21542 
L 105.250299 113.537024 
L 103.242123 107.934452 
L 101.011511 102.416667 
L 100.009792 100.128 
L 97.686857 105.607558 
L 95.584903 111.175625 
L 93.707294 116.823294 
L 92.057033 122.541529 
L 90.636761 128.321184 
L 89.44875 134.153011 
L 88.494899 140.027682 
L 87.776736 145.935797 
L 87.36 150.865349 
L 87.881367 156.794072 
L 88.639403 162.697204 
L 89.632894 168.5653 
L 90.860253 174.388974 
L 92.319514 180.158907 
L 94.008344 185.865871 
L 95.924041 191.500735 
L 98.063539 197.054483 
L 100.423417 202.518233 
L 102.9999 207.883242 
L 105.788864 213.140927 
L 108.785849 218.282878 
L 111.98606 223.300869 
L 115.384377 228.186872 
L 118.975363 232.93307 
L 122.753275 237.53187 
L 126.712068 241.975916 
L 130.845408 246.258097 
L 133.597739 248.928 
L 137.840049 244.753747 
L 141.912039 240.413186 
L 145.807197 235.91326 
L 149.519289 231.261169 
L 153.042379 226.464356 
L 156.370829 221.530493 
L 159.499314 216.467474 
L 162.184029 211.725583 
L 165.242222 216.831368 
L 168.502146 221.810773 
L 171.958585 226.655833 
L 175.60601 231.358797 
L 179.438586 235.912141 
L 183.450182 240.308581 
L 187.634379 244.541083 
L 192.348152 248.928 
L 196.71155 244.88049 
L 200.9096 240.661727 
L 204.935587 236.278463 
L 208.78307 231.737707 
L 212.445893 227.046726 
L 215.918197 222.213023 
L 219.194427 217.244331 
L 222.269342 212.1486 
L 225.138023 206.933981 
L 227.795879 201.608816 
L 230.23866 196.181625 
L 232.462457 190.66109 
L 234.463713 185.056042 
L 236.16 179.646985 
L 234.373692 173.969778 
L 232.361785 168.368545 
L 230.127498 162.852247 
L 227.674405 157.429709 
L 225.00643 152.109607 
L 222.127843 146.90045 
L 219.043247 141.810573 
L 215.757577 136.848118 
L 212.276091 132.021024 
L 208.604357 127.337014 
L 204.74825 122.803581 
L 200.713938 118.427977 
L 196.507876 114.217203 
L 192.136792 110.177994 
L 187.607679 106.316813 
L 182.927783 102.639837 
L 179.494745 100.128 
L 174.711656 103.6697 
L 170.074024 107.39984 
L 165.589266 111.312453 
L 161.264559 115.401278 
L 157.106821 119.659774 
L 153.122703 124.081129 
L 149.318578 128.65827 
L 145.700534 133.383874 
L 142.274357 138.250382 
L 139.045529 143.250007 
L 136.875453 146.876611 
L 131.490196 149.410499 
L 126.210575 152.157713 
L 121.045037 155.113857 
L 116.001844 158.274204 
L 111.089066 161.633697 
L 106.314562 165.186961 
L 101.685969 168.928312 
L 97.210693 172.851765 
L 92.895892 176.951043 
L 88.748471 181.219588 
L 87.36 182.727696 
L 91.448224 187.052971 
L 95.706143 191.211301 
L 100.126944 195.196034 
L 104.703556 199.000794 
L 109.428658 202.619495 
L 114.294689 206.046348 
L 119.293865 209.275871 
L 124.418189 212.302896 
L 129.659463 215.122582 
L 135.009302 217.730418 
L 140.459147 220.122231 
L 146.00028 222.294195 
L 151.623836 224.242835 
L 157.320818 225.965035 
L 163.082114 227.458038 
L 168.898504 228.719457 
L 174.760686 229.747273 
L 180.65928 230.539842 
L 186.584851 231.095897 
L 192.527918 231.414547 
L 198.478973 231.495283 
L 204.428497 231.337976 
L 210.366971 230.942877 
L 216.284896 230.310618 
L 222.172803 229.442211 
L 228.021274 228.339046 
L 233.820951 227.002886 
L 236.16 226.394265 
L 230.38279 224.964081 
L 224.553009 223.766068 
L 218.679983 222.802143 
L 212.773109 222.073847 
L 206.841835 221.582346 
L 200.895651 221.328425 
L 194.944069 221.312492 
L 188.996611 221.534571 
L 183.062791 221.994307 
L 177.152101 222.690965 
L 171.273999 223.62343 
L 165.437887 224.790211 
L 159.653102 226.189441 
L 153.928898 227.818881 
L 148.274434 229.675925 
L 142.698754 231.757602 
L 137.21078 234.060581 
L 131.819289 236.581179 
L 126.532909 239.315363 
L 121.360095 242.258758 
L 116.309123 245.406656 
L 111.143514 248.928 
L 106.229226 245.570716 
L 101.184614 242.412636 
L 96.017747 239.458813 
L 90.736892 236.713972 
L 87.36 235.096231 
L 92.708249 232.485136 
L 97.947803 229.662256 
L 103.070282 226.632109 
L 108.067489 223.39954 
L 112.931431 219.969723 
L 117.654326 216.348143 
L 122.228619 212.540594 
L 126.646992 208.553168 
L 130.902376 204.392244 
L 138.063879 197.115343 
L 141.455981 194.214488 
L 145.015926 191.522257 
L 148.730902 189.048339 
L 152.58754 186.801637 
L 156.571958 184.790238 
L 160.669819 183.02138 
L 164.866373 181.501429 
L 169.146518 180.235855 
L 173.49485 179.229214 
L 177.895719 178.485127 
L 182.333288 178.006273 
L 186.791586 177.794375 
L 191.254567 177.850195 
L 195.70617 178.173534 
L 198.742039 178.549044 
L 191.361309 177.636735 
L 186.989612 176.736964 
L 182.679736 175.576667 
L 178.447192 174.16002 
L 174.307212 172.492123 
L 170.274695 170.578977 
L 166.364155 168.427467 
L 162.589664 166.045338 
L 158.964808 163.441162 
L 155.502631 160.62431 
L 152.215594 157.604922 
L 149.115527 154.393863 
L 146.213586 151.00269 
L 143.520215 147.443607 
L 141.001096 143.658793 
L 144.298496 148.612032 
L 146.505914 152.491287 
L 148.476745 156.495928 
L 150.203894 160.611541 
L 151.681147 164.823315 
L 152.903187 169.116092 
L 153.865616 173.474423 
L 154.56497 177.882623 
L 154.998732 182.324826 
L 155.165342 186.785046 
L 155.064199 191.24723 
L 154.695667 195.69532 
L 154.061074 200.113307 
L 153.162702 204.485291 
L 152.003785 208.795538 
L 150.544709 213.10153 
L 148.734209 218.771069 
L 147.151877 224.508473 
L 145.800247 230.304565 
L 144.681479 236.150071 
L 143.797364 242.03564 
L 143.149316 247.951856 
L 143.065347 248.928 
L 142.456267 243.007645 
L 141.610924 237.116382 
L 140.530669 231.263637 
L 139.217231 225.458772 
L 137.672711 219.711073 
L 135.899579 214.029737 
L 133.900673 208.423851 
L 131.67919 202.902384 
L 129.238685 197.474169 
L 126.583061 192.147891 
L 123.716567 186.93207 
L 120.643788 181.83505 
L 117.369641 176.864985 
L 113.899363 172.029827 
L 110.238507 167.337311 
L 106.392928 162.794943 
L 102.368779 158.409991 
L 98.172497 154.18947 
L 93.810796 150.14013 
L 89.290654 146.268452 
L 87.36 144.707413 
L 91.944111 140.911692 
L 96.372768 136.935691 
L 100.638884 132.785771 
L 104.735635 128.468572 
L 108.656468 123.990999 
L 112.395109 119.360217 
L 115.945577 114.583633 
L 119.302193 109.668889 
L 122.459587 104.623848 
L 125.044358 100.128 
L 128.024034 105.280001 
L 131.207351 110.308726 
L 134.589217 115.206129 
L 138.164222 119.964377 
L 141.926646 124.575856 
L 145.870471 129.03319 
L 149.989388 133.329248 
L 154.276805 137.457156 
L 154.841704 137.976978 
L 157.351823 132.580601 
L 159.644136 127.088163 
L 161.714977 121.50845 
L 163.561032 115.850388 
L 165.179348 110.12303 
L 166.567337 104.335537 
L 167.424414 100.128 
L 168.644831 105.953132 
L 170.097216 111.724801 
L 171.779244 117.433773 
L 173.688225 123.070915 
L 175.821104 128.627209 
L 178.17447 134.093767 
L 180.744557 139.461842 
L 183.198283 144.126684 
L 189.092044 144.954434 
L 195.014191 145.545835 
L 200.955251 145.89994 
L 206.905718 146.016182 
L 212.856075 145.894376 
L 218.796801 145.534717 
L 224.718393 144.93778 
L 230.611377 144.10452 
L 236.16 143.098179 
L 230.302821 142.042228 
L 224.4081 141.221347 
L 218.485268 140.636848 
L 212.543799 140.289667 
L 206.5932 140.180358 
L 200.642989 140.309098 
L 194.702686 140.67568 
L 188.781794 141.279517 
L 182.889786 142.119644 
L 180.677833 142.497458 
L 178.653278 136.900784 
L 176.406537 131.389547 
L 173.941201 125.972564 
L 171.261216 120.658502 
L 168.370869 115.455861 
L 165.274784 110.372964 
L 161.977913 105.417944 
L 158.485532 100.598727 
L 158.128364 100.128 
L 154.616873 104.933311 
L 151.300352 109.8752 
L 148.184107 114.945762 
L 145.273123 120.136884 
L 142.572056 125.440262 
L 140.085229 130.847413 
L 137.81662 136.349684 
L 135.769857 141.938274 
L 133.948215 147.604243 
L 132.989392 150.946395 
L 127.724962 153.722609 
L 122.575762 156.707123 
L 117.55003 159.895162 
L 112.655806 163.281628 
L 107.900919 166.861101 
L 103.292976 170.627856 
L 98.839349 174.575866 
L 94.547162 178.698816 
L 90.423283 182.99011 
L 87.36 186.412594 
L 91.349466 190.829124 
L 95.512356 195.082585 
L 99.842009 199.166173 
L 104.331498 203.073355 
L 108.973642 206.797879 
L 113.761013 210.333788 
L 118.685955 213.675425 
L 123.740586 216.817443 
L 128.916822 219.754817 
L 134.20638 222.482848 
L 139.6008 224.99717 
L 145.091451 227.293761 
L 150.669549 229.368949 
L 156.326171 231.219412 
L 162.052266 232.84219 
L 167.838676 234.234687 
L 173.676141 235.394676 
L 179.555325 236.320301 
L 185.466821 237.01008 
L 191.401172 237.462911 
L 197.348885 237.678069 
L 203.300444 237.65521 
L 209.246329 237.39437 
L 215.177027 236.895967 
L 221.08305 236.160798 
L 226.954949 235.19004 
L 232.783332 233.985244 
L 236.16 233.17497 
L 230.361318 231.834496 
L 224.51367 230.726979 
L 218.626411 229.854191 
L 212.708959 229.217529 
L 206.77078 228.818012 
L 200.821375 228.656278 
L 194.870261 228.732586 
L 188.926958 229.046814 
L 183.000976 229.598459 
L 177.101794 230.386639 
L 171.238849 231.410094 
L 165.421521 232.667184 
L 159.659116 234.155901 
L 153.960854 235.873861 
L 148.33585 237.818317 
L 142.793103 239.986157 
L 137.341479 242.373914 
L 131.989702 244.977769 
L 126.746331 247.793554 
L 124.767216 248.928 
L 119.567629 246.032164 
L 114.256397 243.346572 
L 108.842019 240.875521 
L 103.333157 238.622964 
L 97.738623 236.592504 
L 92.067366 234.787391 
L 87.36 233.475809 
L 93.087471 231.857891 
L 98.745661 230.012229 
L 104.325518 227.941776 
L 109.818116 225.649844 
L 115.214667 223.140101 
L 120.506539 220.41656 
L 125.685265 217.48358 
L 130.742561 214.345852 
L 135.670336 211.008396 
L 140.460707 207.476551 
L 142.16357 206.147929 
L 141.047396 211.993931 
L 140.165893 217.879892 
L 139.520471 223.796395 
L 139.112162 229.733976 
L 138.941619 235.683135 
L 139.009116 241.634355 
L 139.314544 247.578116 
L 139.417184 248.928 
L 139.776675 242.987264 
L 139.898313 237.036904 
L 139.781902 231.086439 
L 139.42763 225.145389 
L 138.836062 219.223259 
L 138.008145 213.329522 
L 136.945204 207.473607 
L 135.648939 201.664883 
L 135.438848 200.815582 
L 129.639549 199.477784 
L 123.79139 198.372966 
L 117.903729 197.502896 
L 111.985983 196.868966 
L 106.047621 196.472189 
L 100.098141 196.313201 
L 94.147063 196.392255 
L 88.203907 196.709226 
L 87.36 196.773595 
L 93.301258 197.124365 
L 99.25179 197.237267 
L 105.202077 197.112122 
L 111.1426 196.749128 
L 117.063856 196.148867 
L 122.956371 195.312299 
L 128.810719 194.240763 
L 130.052377 193.98222 
L 134.245203 192.452014 
L 138.522242 191.175981 
L 142.8681 190.158712 
L 147.267137 189.403869 
L 151.703522 188.914168 
L 156.161288 188.691371 
L 160.624393 188.736281 
L 165.076773 189.048736 
L 169.502406 189.627611 
L 173.885363 190.470824 
L 178.20987 191.575338 
L 182.460365 192.93718 
L 186.62155 194.551448 
L 190.678448 196.412332 
L 191.526503 196.839327 
L 188.559364 193.505049 
L 185.797501 189.99885 
L 183.250854 186.333348 
L 180.928588 182.521735 
L 178.839059 178.577728 
L 176.98979 174.515521 
L 175.387434 170.349735 
L 174.037759 166.095361 
L 172.945622 161.767711 
L 172.114953 157.38236 
L 171.548743 152.955089 
L 171.249028 148.501833 
L 171.216888 144.038619 
L 171.452437 139.581508 
L 171.537 138.635796 
L 169.530229 142.622548 
L 167.288007 146.481791 
L 164.818404 150.199638 
L 162.130308 153.762706 
L 159.233394 157.158175 
L 156.138086 160.373822 
L 152.855525 163.398077 
L 149.397525 166.220053 
L 145.77653 168.829596 
L 142.005573 171.217314 
L 138.098224 173.374614 
L 134.068545 175.293731 
L 129.93104 176.96776 
L 125.700599 178.390674 
L 124.790243 178.660437 
L 129.23588 179.057455 
L 133.649712 179.720337 
L 138.015851 180.646697 
L 142.318586 181.833201 
L 146.542431 183.27558 
L 150.672184 184.968641 
L 154.692983 186.906293 
L 158.590357 189.081561 
L 162.350281 191.486617 
L 165.959222 194.112805 
L 169.404192 196.950674 
L 172.672792 199.99001 
L 175.753261 203.219876 
L 178.63451 206.628647 
L 179.220657 207.375609 
L 177.952082 203.096353 
L 176.942392 198.748728 
L 176.195219 194.348381 
L 175.713253 189.911149 
L 175.498228 185.453001 
L 175.550919 180.989982 
L 175.871136 176.538153 
L 176.457725 172.113537 
L 177.308577 167.732056 
L 178.420629 163.409481 
L 179.789879 159.161367 
L 181.411399 155.003003 
L 183.279353 150.949354 
L 185.387019 147.01501 
L 185.865529 146.194919 
L 182.35452 148.950665 
L 178.684584 151.490918 
L 174.868928 153.806536 
L 170.921284 155.889185 
L 166.85586 157.73137 
L 162.687286 159.326461 
L 158.430566 160.668717 
L 154.101019 161.753308 
L 149.714226 162.57633 
L 145.285975 163.134821 
L 140.832203 163.426772 
L 136.368939 163.451131 
L 131.912246 163.207811 
L 127.478163 162.697688 
L 126.539471 162.554932 
L 130.3948 164.803879 
L 134.108335 167.27996 
L 137.666712 169.974263 
L 141.057125 172.877093 
L 144.267371 175.978002 
L 147.285898 179.26583 
L 150.101842 182.728745 
L 152.705068 186.354283 
L 155.086208 190.129398 
L 157.236693 194.040502 
L 159.148782 198.07352 
L 160.815595 202.213937 
L 162.231132 206.446852 
L 163.390299 210.757032 
L 163.603375 211.682299 
L 165.97762 217.139821 
L 168.568209 222.498033 
L 171.370996 227.748363 
L 174.381499 232.882411 
L 177.594901 237.891965 
L 181.006061 242.76901 
L 184.609522 247.505743 
L 185.751374 248.928 
L 189.412624 244.23579 
L 192.883307 239.400923 
L 196.15787 234.431133 
L 199.231076 229.334371 
L 202.098007 224.11879 
L 204.754078 218.792734 
L 207.195039 213.364724 
L 209.416984 207.843443 
L 211.41636 202.237725 
L 213.189968 196.556537 
L 214.73497 190.808968 
L 216.048894 185.004213 
L 217.12964 179.151558 
L 217.975477 173.260366 
L 218.585053 167.340062 
L 218.957392 161.400118 
L 219.091899 155.450035 
L 218.988358 149.499332 
L 218.646936 143.55753 
L 218.068178 137.634134 
L 217.25301 131.73862 
L 216.202737 125.88042 
L 214.919038 120.068906 
L 213.403967 114.313375 
L 211.659949 108.623034 
L 209.689772 103.006987 
L 208.580515 100.128 
L 206.494322 105.701992 
L 204.632699 111.35495 
L 202.998622 117.077832 
L 201.594707 122.861481 
L 200.423199 128.696646 
L 199.485973 134.573992 
L 198.784528 140.484115 
L 198.319985 146.417561 
L 198.093089 152.364837 
L 198.104201 158.31643 
L 198.353305 164.262818 
L 198.840002 170.194488 
L 199.563513 176.10195 
L 200.522681 181.975754 
L 201.715972 187.806504 
L 203.141475 193.584871 
L 204.796911 199.30161 
L 206.679632 204.947577 
L 208.786625 210.513739 
L 211.11452 215.991192 
L 213.659592 221.371172 
L 216.417771 226.645073 
L 219.384643 231.804458 
L 222.555462 236.841072 
L 225.925156 241.746859 
L 229.488334 246.51397 
L 231.409655 248.928 
L 235.070905 244.23579 
L 236.16 242.762113 
L 232.55681 238.025172 
L 228.767076 233.43611 
L 224.796859 229.002268 
L 220.652512 224.730738 
L 216.340664 220.628355 
L 211.868213 216.701681 
L 207.242315 212.956998 
L 202.47037 209.400298 
L 197.560011 206.037269 
L 192.519096 202.873293 
L 188.401468 200.4909 
L 191.534261 205.551254 
L 194.866909 210.482283 
L 198.39408 215.276096 
L 202.11013 219.925026 
L 206.009116 224.421635 
L 210.0848 228.758729 
L 214.33066 232.92937 
L 218.739906 236.926886 
L 223.305483 240.744881 
L 228.020087 244.377249 
L 232.876175 247.818176 
L 234.534604 248.928 
L 236.16 247.840597 
L 231.169325 244.597953 
L 226.052971 241.557475 
L 220.819123 238.72403 
L 215.476153 236.102149 
L 210.032611 233.696027 
L 204.497203 231.509513 
L 198.878786 229.546106 
L 193.186347 227.808946 
L 187.428994 226.300812 
L 181.615937 225.024117 
L 175.756476 223.980904 
L 169.859984 223.172841 
L 163.935895 222.601222 
L 157.993686 222.26696 
L 152.042863 222.17059 
L 146.092946 222.312267 
L 140.153455 222.691764 
L 134.23389 223.308473 
L 128.343721 224.161409 
L 122.492373 225.249206 
L 116.689205 226.570125 
L 110.943502 228.122052 
L 105.264456 229.902504 
L 99.661151 231.908634 
L 94.142552 234.137231 
L 88.717487 236.584731 
L 87.36 237.238581 
L 92.760003 239.740889 
L 98.255753 242.025252 
L 103.838457 244.088017 
L 109.499184 245.925884 
L 115.228877 247.535911 
L 121.07585 248.928 
L 126.865889 247.550675 
L 132.596219 245.942913 
L 138.257672 244.107284 
L 143.84119 242.046726 
L 149.337842 239.764535 
L 154.738834 237.264361 
L 160.035526 234.550206 
L 165.219444 231.626411 
L 170.282294 228.497653 
L 175.215978 225.168937 
L 180.012602 221.64559 
L 184.664493 217.933247 
L 189.164208 214.037847 
L 193.504551 209.965623 
L 197.678575 205.723088 
L 201.679605 201.317031 
L 205.501239 196.754499 
L 209.137364 192.042793 
L 212.582162 187.189449 
L 215.830123 182.202232 
L 218.87605 177.089121 
L 221.715071 171.858295 
L 224.342644 166.518122 
L 226.754564 161.077146 
L 228.946975 155.544072 
L 230.916368 149.92775 
L 232.659593 144.237165 
L 234.173861 138.481423 
L 235.456749 132.669729 
L 236.16 128.898658 
L 235.027352 123.055826 
L 233.661959 117.262961 
L 232.066005 111.529331 
L 230.242044 105.864109 
L 228.135108 100.128 
L 226.080078 105.713556 
L 224.250055 111.376823 
L 222.647966 117.108742 
L 221.276374 122.900142 
L 220.137474 128.741759 
L 219.233087 134.624247 
L 218.56466 140.538195 
L 218.133263 146.474143 
L 217.939585 152.422594 
L 217.983937 158.374032 
L 218.266247 164.318936 
L 218.786064 170.247795 
L 219.542557 176.151125 
L 220.534515 182.01948 
L 221.76035 187.843475 
L 223.218103 193.61379 
L 224.905441 199.321195 
L 226.819665 204.956559 
L 228.957712 210.510867 
L 231.316162 215.975233 
L 233.891241 221.340915 
L 236.16 225.658225 
L 233.410459 230.936634 
L 230.874198 236.320774 
L 228.555273 241.80203 
L 226.457396 247.371634 
L 225.916127 248.928 
L 223.880055 243.335506 
L 221.621971 237.828907 
L 219.145487 232.417011 
L 216.454567 227.108478 
L 213.553514 221.911799 
L 210.446971 216.835287 
L 207.139905 211.887065 
L 203.637609 207.075049 
L 199.945685 202.406936 
L 196.07004 197.890194 
L 193.064164 194.624997 
L 189.712344 191.67769 
L 186.543287 188.534698 
L 183.5684 185.207332 
L 180.798387 181.707568 
L 178.243219 178.048 
L 175.912092 174.2418 
L 173.813394 170.302665 
L 171.954679 166.244772 
L 170.342636 162.082724 
L 168.983067 157.831502 
L 167.880865 153.506405 
L 167.039997 149.122997 
L 166.463488 144.697056 
L 166.153413 140.244509 
L 166.095815 137.581543 
L 164.916648 141.886294 
L 163.481472 146.112591 
L 161.795453 150.245225 
L 159.864659 154.269321 
L 157.696038 158.170398 
L 155.297395 161.934416 
L 152.677363 165.547829 
L 149.845371 168.997632 
L 146.811611 172.271409 
L 143.587002 175.357379 
L 140.183147 178.244436 
L 136.612299 180.922188 
L 132.887307 183.381 
L 129.021578 185.612022 
L 126.653514 186.831441 
L 131.039413 186.003668 
L 135.467057 185.440381 
L 139.92051 185.143606 
L 144.383745 185.114413 
L 148.840699 185.352906 
L 153.275332 185.858226 
L 157.671684 186.628555 
L 162.013933 187.661121 
L 166.286451 188.952208 
L 170.473863 190.497168 
L 174.561097 192.290443 
L 178.533445 194.325577 
L 182.376609 196.595248 
L 186.07676 199.091285 
L 188.211048 200.684874 
L 185.543972 197.106044 
L 183.096297 193.373725 
L 180.876831 189.50135 
L 178.893562 185.502855 
L 177.153628 181.39263 
L 175.66329 177.185468 
L 174.427912 172.89651 
L 173.451941 168.541192 
L 172.738888 164.135187 
L 172.291319 159.694354 
L 172.110847 155.234674 
L 172.198119 150.772197 
L 172.552822 146.322983 
L 173.17368 141.903045 
L 173.670066 139.286117 
L 171.623077 143.252369 
L 169.341938 147.088737 
L 166.83486 150.781416 
L 164.110866 154.317116 
L 161.179758 157.683112 
L 158.052087 160.86729 
L 154.739108 163.858191 
L 151.252743 166.64505 
L 147.605541 169.217837 
L 143.810628 171.567295 
L 139.88166 173.684966 
L 135.832778 175.56323 
L 131.678554 177.195327 
L 127.433938 178.575383 
L 124.864342 179.276726 
L 129.326538 179.377326 
L 133.774673 179.745316 
L 138.192737 180.379372 
L 142.564831 181.277212 
L 146.875219 182.435605 
L 151.108388 183.850381 
L 155.249105 185.516449 
L 159.282467 187.427813 
L 163.193957 189.577594 
L 166.9695 191.958056 
L 170.595507 194.56063 
L 174.058928 197.375952 
L 177.347298 200.393887 
L 180.448784 203.603576 
L 182.205823 205.605457 
L 180.33966 201.550983 
L 178.719978 197.391903 
L 177.352605 193.143184 
L 176.242464 188.820118 
L 175.393548 184.438262 
L 174.808913 180.013387 
L 174.490664 175.561417 
L 174.439946 171.098375 
L 174.65694 166.640322 
L 175.140867 162.203304 
L 175.889984 157.803288 
L 176.901596 153.456109 
L 178.172062 149.177414 
L 179.69681 144.9826 
L 180.72556 142.525695 
L 177.899907 145.980692 
L 174.872163 149.260034 
L 171.653225 152.35192 
L 168.254678 155.245221 
L 164.688752 157.929526 
L 160.968281 160.395173 
L 157.106655 162.633289 
L 153.117772 164.635819 
L 149.015986 166.395556 
L 144.816061 167.906167 
L 140.533111 169.162216 
L 136.18255 170.159181 
L 131.780036 170.893475 
L 127.341413 171.362456 
L 124.682205 171.515174 
L 129.026343 172.539765 
L 133.301224 173.823005 
L 137.491466 175.360274 
L 141.581986 177.146041 
L 145.558064 179.173878 
L 149.405389 181.436488 
L 153.110117 183.925728 
L 156.658913 186.632638 
L 160.039006 189.547478 
L 163.238231 192.659756 
L 166.245075 195.958272 
L 169.048716 199.431155 
L 171.639063 203.065907 
L 174.006796 206.849445 
L 175.310055 209.172423 
L 178.83521 213.967718 
L 182.549306 218.61821 
L 186.446401 223.116457 
L 190.520261 227.455264 
L 194.764368 231.62769 
L 199.171933 235.627059 
L 203.735905 239.446973 
L 208.448981 243.081322 
L 213.303623 246.524291 
L 216.954981 248.928 
L 221.908666 245.629124 
L 226.726469 242.134792 
L 231.400683 238.450594 
L 236.16 234.37168 
L 231.645093 230.493898 
L 226.978727 226.799766 
L 222.168368 223.295193 
L 217.221712 219.985787 
L 212.146671 216.876842 
L 206.951365 213.973331 
L 201.644105 211.279899 
L 196.233382 208.800855 
L 190.727852 206.540166 
L 185.136322 204.501447 
L 184.211938 204.188588 
L 180.666771 201.476926 
L 177.290586 198.557562 
L 174.095532 195.441001 
L 171.093109 192.13846 
L 168.294123 188.661824 
L 165.708647 185.023606 
L 163.345985 181.2369 
L 161.21464 177.315333 
L 159.322284 173.273018 
L 157.675726 169.124504 
L 156.280893 164.884722 
L 155.142804 160.568928 
L 154.265555 156.192657 
L 153.652304 151.771657 
L 153.305257 147.321839 
L 153.225663 142.859218 
L 153.422996 138.27425 
L 155.54685 142.199879 
L 157.431486 146.245799 
L 159.07012 150.397449 
L 160.456857 154.639887 
L 161.586704 158.957845 
L 162.455596 163.335784 
L 163.060406 167.757946 
L 163.398958 172.208418 
L 163.470031 176.671183 
L 163.273372 181.130179 
L 162.809687 185.569358 
L 162.080646 189.972745 
L 161.088871 194.324492 
L 159.837934 198.608938 
L 158.332334 202.810662 
L 156.577492 206.914544 
L 154.519906 211.016643 
L 154.189852 206.565532 
L 154.127298 202.10264 
L 154.33247 197.644028 
L 154.804629 193.205742 
L 155.542075 188.803755 
L 156.542156 184.453909 
L 157.801271 180.171859 
L 159.314889 175.973017 
L 161.077563 171.872493 
L 163.082949 167.885044 
L 165.32383 164.025022 
L 167.79214 160.306318 
L 170.478998 156.742315 
L 173.374732 153.34584 
L 176.468922 150.129117 
L 179.750432 147.103722 
L 183.307408 144.20393 
L 188.849275 142.033842 
L 194.29993 139.643875 
L 199.650652 137.037851 
L 204.89288 134.21994 
L 210.018229 131.194649 
L 215.018498 127.96682 
L 219.885689 124.541615 
L 224.612016 120.924513 
L 229.189916 117.121303 
L 233.612067 113.138067 
L 236.16 110.691541 
L 231.833646 106.604459 
L 227.347313 102.693653 
L 224.195997 100.128 
L 219.604545 103.914839 
L 215.168199 107.882257 
L 210.894055 112.023909 
L 206.788953 116.333168 
L 202.859458 120.80314 
L 199.111858 125.426675 
L 195.552147 130.196375 
L 192.186021 135.104611 
L 189.018865 140.14353 
L 186.055745 145.30507 
L 185.664084 146.024758 
L 190.251577 142.233125 
L 194.683776 138.261074 
L 198.953591 134.114959 
L 203.054189 129.801414 
L 206.979012 125.327338 
L 210.721779 120.699891 
L 214.276505 115.926474 
L 217.637501 111.014725 
L 220.799392 105.9725 
L 223.757117 100.807867 
L 224.126323 100.128 
L 227.057156 105.307941 
L 230.192788 110.366537 
L 233.528202 115.295695 
L 236.16 118.905965 
L 232.678109 123.732766 
L 229.392024 128.694946 
L 226.307001 133.784564 
L 223.427977 138.99348 
L 220.759556 144.313359 
L 218.306009 149.735691 
L 216.071259 155.251801 
L 214.058883 160.852866 
L 212.272099 166.529924 
L 210.713766 172.273892 
L 209.386377 178.075584 
L 208.292056 183.925715 
L 207.432553 189.814929 
L 206.809243 195.733802 
L 206.423124 201.672867 
L 206.274812 207.622622 
L 206.364546 213.573549 
L 206.692182 219.516127 
L 207.257196 225.44085 
L 208.058683 231.338239 
L 209.095362 237.19886 
L 210.365574 243.013337 
L 211.911302 248.928 
L 213.419274 243.170605 
L 214.695805 237.357512 
L 215.738854 231.498021 
L 216.54675 225.601507 
L 217.118203 219.677401 
L 217.452298 213.735183 
L 217.548501 207.784357 
L 217.406656 201.834444 
L 217.026992 195.894963 
L 216.410116 189.975416 
L 215.557015 184.085271 
L 214.469053 178.233954 
L 213.147971 172.430823 
L 211.595882 166.685164 
L 209.81527 161.006167 
L 207.808983 155.402919 
L 205.580231 149.884383 
L 203.132578 144.459387 
L 200.469942 139.136611 
L 197.596581 133.924569 
L 194.517092 128.8316 
L 191.236402 123.865852 
L 187.75976 119.035268 
L 184.092726 114.347578 
L 180.241169 109.810278 
L 176.211248 105.43063 
L 172.009412 101.215638 
L 170.868883 100.128 
L 166.62264 104.298252 
L 162.54656 108.634973 
L 158.647163 113.131225 
L 154.930687 117.779815 
L 151.403077 122.573306 
L 148.069978 127.504029 
L 144.936721 132.564096 
L 142.00832 137.745413 
L 139.289458 143.039691 
L 137.882155 146.002774 
L 132.154947 147.621626 
L 126.497058 149.468209 
L 120.917539 151.539571 
L 115.425314 153.832397 
L 110.029172 156.34302 
L 104.737743 159.067423 
L 99.559495 162.001247 
L 94.50271 165.139799 
L 89.575479 168.478057 
L 87.36 170.075316 
L 92.22513 173.503448 
L 97.223457 176.734285 
L 102.346986 179.762657 
L 107.587518 182.583721 
L 112.936671 185.192962 
L 118.385887 187.586208 
L 123.926449 189.759629 
L 128.60625 191.400132 
L 126.911207 197.105254 
L 125.445664 202.873595 
L 124.211966 208.695929 
L 123.212086 214.56294 
L 122.447623 220.465243 
L 121.919801 226.393395 
L 121.629464 232.337912 
L 121.577077 238.289285 
L 121.762723 244.237992 
L 122.077392 248.928 
L 122.45084 242.988125 
L 122.586458 237.038067 
L 122.484028 231.087345 
L 122.143715 225.14548 
L 121.566063 219.221976 
L 120.751995 213.32631 
L 119.702816 207.467914 
L 118.420202 201.65616 
L 116.906206 195.900346 
L 115.163249 190.20968 
L 113.194121 184.593265 
L 111.001972 179.060086 
L 108.590308 173.618997 
L 105.962987 168.2787 
L 103.124213 163.04774 
L 100.078527 157.934485 
L 96.830802 152.947115 
L 93.386232 148.093609 
L 89.75033 143.381731 
L 87.36 140.484552 
L 91.113671 135.865945 
L 94.679644 131.100924 
L 98.052214 126.197115 
L 101.225987 121.162361 
L 104.195885 116.004717 
L 106.957156 110.732435 
L 109.505384 105.353949 
L 111.735607 100.128 
L 114.076636 105.599852 
L 116.634609 110.973711 
L 119.405432 116.240979 
L 122.384674 121.393231 
L 125.567567 126.422224 
L 128.949021 131.319912 
L 132.523625 136.078461 
L 136.285661 140.690257 
L 141.543027 146.911262 
L 144.124994 150.551971 
L 146.484003 154.340955 
L 148.611565 158.264575 
L 150.500022 162.308713 
L 152.142578 166.458812 
L 153.533322 170.699938 
L 154.667249 175.016827 
L 155.540277 179.393943 
L 156.149265 183.815532 
L 156.49202 188.265682 
L 156.56731 192.728378 
L 156.374864 197.187557 
L 155.915373 201.627173 
L 155.190493 206.031247 
L 154.20283 210.383929 
L 153.610552 212.340721 
L 151.949932 218.055957 
L 150.519189 223.833028 
L 149.320612 229.662693 
L 148.356118 235.535625 
L 147.627251 241.442429 
L 147.135175 247.373655 
L 147.045636 248.928 
L 146.615646 242.99195 
L 145.948621 237.077843 
L 145.045629 231.195141 
L 143.908113 225.353254 
L 142.537895 219.561529 
L 140.937165 213.829231 
L 139.108485 208.16553 
L 136.910141 202.210567 
L 131.139505 200.754084 
L 125.315241 199.52953 
L 119.446667 198.538863 
L 113.543172 197.78367 
L 107.614198 197.265157 
L 101.669232 196.984155 
L 95.717785 196.941113 
L 89.769376 197.1361 
L 87.36 197.282962 
L 93.304463 197.574416 
L 99.255825 197.627921 
L 105.204567 197.443393 
L 111.141172 197.021126 
L 117.056141 196.361795 
L 122.940013 195.466457 
L 128.783375 194.336543 
L 130.093852 194.049656 
L 134.276953 192.493064 
L 138.545867 191.190108 
L 142.885229 190.145477 
L 147.279424 189.362933 
L 151.712635 188.845289 
L 156.168909 188.594411 
L 160.632208 188.6112 
L 165.086469 188.895595 
L 169.51566 189.446575 
L 173.903843 190.262155 
L 178.235224 191.339401 
L 182.494215 192.674435 
L 186.665488 194.262452 
L 190.734031 196.097739 
L 191.715254 196.58526 
L 188.706074 193.288875 
L 185.899973 189.81798 
L 183.307051 186.185065 
L 180.936638 182.403205 
L 178.797267 178.486011 
L 176.896636 174.447581 
L 175.241585 170.302448 
L 173.838071 166.065531 
L 172.691146 161.752077 
L 171.804936 157.377612 
L 171.182631 152.957877 
L 170.826472 148.508779 
L 170.737738 144.046331 
L 170.916751 139.586592 
L 171.00156 138.494216 
L 169.071139 142.518492 
L 166.902881 146.41977 
L 164.504587 150.184011 
L 161.884891 153.797667 
L 159.053219 157.247732 
L 156.019763 160.521791 
L 152.795439 163.608061 
L 149.391853 166.495433 
L 145.821253 169.173517 
L 142.096489 171.632674 
L 138.230967 173.864055 
L 134.238599 175.859628 
L 130.133752 177.612211 
L 125.931199 179.115498 
L 124.886488 179.445732 
L 129.340786 179.729533 
L 133.770052 180.27992 
L 138.158343 181.094914 
L 142.489868 182.171581 
L 146.749037 183.506046 
L 150.920522 185.093507 
L 154.98931 186.928249 
L 158.940758 189.003672 
L 162.760645 191.312304 
L 166.435224 193.845837 
L 169.951269 196.595155 
L 173.296127 199.550361 
L 176.45776 202.70082 
L 179.42479 206.035194 
L 180.122056 206.880356 
L 178.717976 202.643626 
L 177.570474 198.330326 
L 176.68368 193.955978 
L 176.060785 189.536327 
L 175.70403 185.087277 
L 175.614701 180.624841 
L 175.793118 176.165078 
L 176.238639 171.724038 
L 176.949661 167.317706 
L 177.923625 162.961938 
L 179.157026 158.672411 
L 180.645424 154.464563 
L 182.383463 150.353536 
L 184.364889 146.354127 
L 184.887626 145.391203 
L 181.484425 148.27903 
L 177.914183 150.957591 
L 174.189748 153.417246 
L 170.324524 155.649143 
L 166.332422 157.645249 
L 162.227809 159.398381 
L 158.025458 160.90223 
L 153.740491 162.151382 
L 149.388331 163.141343 
L 144.984641 163.868549 
L 140.545269 164.330384 
L 136.086191 164.525185 
L 131.623457 164.452252 
L 127.173126 164.111847 
L 126.084539 163.987533 
L 130.036264 166.062427 
L 133.856459 168.370549 
L 137.531376 170.903592 
L 141.047788 173.652439 
L 144.393041 176.607198 
L 147.555096 179.757235 
L 150.522571 183.091213 
L 153.284788 186.597133 
L 155.831805 190.262378 
L 158.154456 194.073757 
L 160.244382 198.017553 
L 162.094062 202.079573 
L 163.696838 206.245197 
L 165.046943 210.499435 
L 165.339126 211.55542 
L 165.784053 207.114322 
L 166.494487 202.707894 
L 167.467869 198.351996 
L 168.700696 194.062305 
L 170.188532 189.854257 
L 171.926022 185.742999 
L 173.906913 181.743325 
L 176.124077 177.869631 
L 178.569532 174.135857 
L 181.234479 170.555442 
L 184.109327 167.14127 
L 187.183729 163.905629 
L 190.446621 160.860164 
L 193.886259 158.015836 
L 194.756118 157.349636 
L 194.756118 157.349636 
" style="fill:none;stroke:#1f77b4;stroke-linecap:square;stroke-width:1.5;"/>
   </g>
   <g id="patch_5">
    <path d="M 57.6 263.808 
L 57.6 85.248 
" style="fill:none;stroke:#000000;stroke-linecap:square;stroke-linejoin:miter;stroke-width:0.8;"/>
   </g>
   <g id="patch_6">
    <path d="M 414.72 263.808 
L 414.72 85.248 
" style="fill:none;stroke:#000000;stroke-linecap:square;stroke-linejoin:miter;stroke-width:0.8;"/>
   </g>
   <g id="patch_7">
    <path d="M 57.6 263.808 
L 414.72 263.808 
" style="fill:none;stroke:#000000;stroke-linecap:square;stroke-linejoin:miter;stroke-width:0.8;"/>
   </g>
   <g id="patch_8">
    <path d="M 57.6 85.248 
L 414.72 85.248 
" style="fill:none;stroke:#000000;stroke-linecap:square;stroke-linejoin:miter;stroke-width:0.8;"/>
   </g>
  </g>
 </g>
 <defs>
  <clipPath id="p2e55f8bb7c">
   <rect height="178.56" width="357.12" x="57.6" y="85.248"/>
  </clipPath>
 </defs>
</svg>
