<?xml version="1.0" encoding="utf-8" standalone="no"?>
<!DOCTYPE svg PUBLIC "-//W3C//DTD SVG 1.1//EN"
  "http://www.w3.org/Graphics/SVG/1.1/DTD/svg11.dtd">
<!-- Created with matplotlib (http://matplotlib.org/) -->
<svg height="345.6pt" version="1.1" viewBox="0 0 460.8 345.6" width="460.8pt" xmlns="http://www.w3.org/2000/svg" xmlns:xlink="http://www.w3.org/1999/xlink">
 <defs>
  <style type="text/css">
*{stroke-linecap:butt;stroke-linejoin:round;}
  </style>
 </defs>
 <g id="figure_1">
  <g id="patch_1">
   <path d="M 0 345.6 
L 460.8 345.6 
L 460.8 0 
L 0 0 
z
" style="fill:#ffffff;"/>
  </g>
  <g id="axes_1">
   <g id="patch_2">
    <path d="M 57.6 263.808 
L 414.72 263.808 
L 414.72 85.248 
L 57.6 85.248 
z
" style="fill:#ffffff;"/>
   </g>
   <g id="PathCollection_1">
    <defs>
     <path d="M 0 3 
C 0.795609 3 1.55874 2.683901 2.12132 2.12132 
C 2.683901 1.55874 3 0.795609 3 0 
C 3 -0.795609 2.683901 -1.55874 2.12132 -2.12132 
C 1.55874 -2.683901 0.795609 -3 0 -3 
C -0.795609 -3 -1.55874 -2.683901 -2.12132 -2.12132 
C -2.683901 -1.55874 -3 -0.795609 -3 0 
C -3 0.795609 -2.683901 1.55874 -2.12132 2.12132 
C -1.55874 2.683901 -0.795609 3 0 3 
z
" id="m94ec4bde2c" style="stroke:#000000;"/>
    </defs>
    <g clip-path="url(#p23435abc02)">
     <use style="stroke:#000000;" x="186.775706" xlink:href="#m94ec4bde2c" y="229.24713"/>
    </g>
   </g>
   <g id="patch_3">
    <path clip-path="url(#p23435abc02)" d="M 161.76 211.728 
C 171.625555 211.728 181.088371 207.808373 188.064372 200.832372 
C 195.040373 193.856371 198.96 184.393555 198.96 174.528 
C 198.96 164.662445 195.040373 155.199629 188.064372 148.223628 
C 181.088371 141.247627 171.625555 137.328 161.76 137.328 
C 151.894445 137.328 142.431629 141.247627 135.455628 148.223628 
C 128.479627 155.199629 124.56 164.662445 124.56 174.528 
C 124.56 184.393555 128.479627 193.856371 135.455628 200.832372 
C 142.431629 207.808373 151.894445 211.728 161.76 211.728 
z
" style="fill:#cc0000;fill-opacity:0.1;stroke:#cc0000;stroke-dasharray:7.4,3.2;stroke-dashoffset:0;stroke-linejoin:miter;stroke-width:2;"/>
   </g>
   <g id="patch_4">
    <path clip-path="url(#p23435abc02)" d="M 310.56 196.848 
C 316.479333 196.848 322.157023 194.496224 326.342623 190.310623 
C 330.528224 186.125023 332.88 180.447333 332.88 174.528 
C 332.88 168.608667 330.528224 162.930977 326.342623 158.745377 
C 322.157023 154.559776 316.479333 152.208 310.56 152.208 
C 304.640667 152.208 298.962977 154.559776 294.777377 158.745377 
C 290.591776 162.930977 288.24 168.608667 288.24 174.528 
C 288.24 180.447333 290.591776 186.125023 294.777377 190.310623 
C 298.962977 194.496224 304.640667 196.848 310.56 196.848 
z
" style="fill:#cc0000;fill-opacity:0.1;stroke:#cc0000;stroke-dasharray:7.4,3.2;stroke-dashoffset:0;stroke-linejoin:miter;stroke-width:2;"/>
   </g>
   <g id="matplotlib.axis_1">
    <g id="xtick_1">
     <g id="line2d_1">
      <defs>
       <path d="M 0 0 
L 0 3.5 
" id="m9e6a308540" style="stroke:#000000;stroke-width:0.8;"/>
      </defs>
      <g>
       <use style="stroke:#000000;stroke-width:0.8;" x="87.36" xlink:href="#m9e6a308540" y="263.808"/>
      </g>
     </g>
     <g id="text_1">
      <!-- 0.0 -->
      <defs>
       <path d="M 31.78125 66.40625 
Q 24.171875 66.40625 20.328125 58.90625 
Q 16.5 51.421875 16.5 36.375 
Q 16.5 21.390625 20.328125 13.890625 
Q 24.171875 6.390625 31.78125 6.390625 
Q 39.453125 6.390625 43.28125 13.890625 
Q 47.125 21.390625 47.125 36.375 
Q 47.125 51.421875 43.28125 58.90625 
Q 39.453125 66.40625 31.78125 66.40625 
z
M 31.78125 74.21875 
Q 44.046875 74.21875 50.515625 64.515625 
Q 56.984375 54.828125 56.984375 36.375 
Q 56.984375 17.96875 50.515625 8.265625 
Q 44.046875 -1.421875 31.78125 -1.421875 
Q 19.53125 -1.421875 13.0625 8.265625 
Q 6.59375 17.96875 6.59375 36.375 
Q 6.59375 54.828125 13.0625 64.515625 
Q 19.53125 74.21875 31.78125 74.21875 
z
" id="DejaVuSans-30"/>
       <path d="M 10.6875 12.40625 
L 21 12.40625 
L 21 0 
L 10.6875 0 
z
" id="DejaVuSans-2e"/>
      </defs>
      <g transform="translate(79.408438 278.406437)scale(0.1 -0.1)">
       <use xlink:href="#DejaVuSans-30"/>
       <use x="63.623047" xlink:href="#DejaVuSans-2e"/>
       <use x="95.410156" xlink:href="#DejaVuSans-30"/>
      </g>
     </g>
    </g>
    <g id="xtick_2">
     <g id="line2d_2">
      <g>
       <use style="stroke:#000000;stroke-width:0.8;" x="161.76" xlink:href="#m9e6a308540" y="263.808"/>
      </g>
     </g>
     <g id="text_2">
      <!-- 0.5 -->
      <defs>
       <path d="M 10.796875 72.90625 
L 49.515625 72.90625 
L 49.515625 64.59375 
L 19.828125 64.59375 
L 19.828125 46.734375 
Q 21.96875 47.46875 24.109375 47.828125 
Q 26.265625 48.1875 28.421875 48.1875 
Q 40.625 48.1875 47.75 41.5 
Q 54.890625 34.8125 54.890625 23.390625 
Q 54.890625 11.625 47.5625 5.09375 
Q 40.234375 -1.421875 26.90625 -1.421875 
Q 22.3125 -1.421875 17.546875 -0.640625 
Q 12.796875 0.140625 7.71875 1.703125 
L 7.71875 11.625 
Q 12.109375 9.234375 16.796875 8.0625 
Q 21.484375 6.890625 26.703125 6.890625 
Q 35.15625 6.890625 40.078125 11.328125 
Q 45.015625 15.765625 45.015625 23.390625 
Q 45.015625 31 40.078125 35.4375 
Q 35.15625 39.890625 26.703125 39.890625 
Q 22.75 39.890625 18.8125 39.015625 
Q 14.890625 38.140625 10.796875 36.28125 
z
" id="DejaVuSans-35"/>
      </defs>
      <g transform="translate(153.808437 278.406437)scale(0.1 -0.1)">
       <use xlink:href="#DejaVuSans-30"/>
       <use x="63.623047" xlink:href="#DejaVuSans-2e"/>
       <use x="95.410156" xlink:href="#DejaVuSans-35"/>
      </g>
     </g>
    </g>
    <g id="xtick_3">
     <g id="line2d_3">
      <g>
       <use style="stroke:#000000;stroke-width:0.8;" x="236.16" xlink:href="#m9e6a308540" y="263.808"/>
      </g>
     </g>
     <g id="text_3">
      <!-- 1.0 -->
      <defs>
       <path d="M 12.40625 8.296875 
L 28.515625 8.296875 
L 28.515625 63.921875 
L 10.984375 60.40625 
L 10.984375 69.390625 
L 28.421875 72.90625 
L 38.28125 72.90625 
L 38.28125 8.296875 
L 54.390625 8.296875 
L 54.390625 0 
L 12.40625 0 
z
" id="DejaVuSans-31"/>
      </defs>
      <g transform="translate(228.208437 278.406437)scale(0.1 -0.1)">
       <use xlink:href="#DejaVuSans-31"/>
       <use x="63.623047" xlink:href="#DejaVuSans-2e"/>
       <use x="95.410156" xlink:href="#DejaVuSans-30"/>
      </g>
     </g>
    </g>
    <g id="xtick_4">
     <g id="line2d_4">
      <g>
       <use style="stroke:#000000;stroke-width:0.8;" x="310.56" xlink:href="#m9e6a308540" y="263.808"/>
      </g>
     </g>
     <g id="text_4">
      <!-- 1.5 -->
      <g transform="translate(302.608437 278.406437)scale(0.1 -0.1)">
       <use xlink:href="#DejaVuSans-31"/>
       <use x="63.623047" xlink:href="#DejaVuSans-2e"/>
       <use x="95.410156" xlink:href="#DejaVuSans-35"/>
      </g>
     </g>
    </g>
    <g id="xtick_5">
     <g id="line2d_5">
      <g>
       <use style="stroke:#000000;stroke-width:0.8;" x="384.96" xlink:href="#m9e6a308540" y="263.808"/>
      </g>
     </g>
     <g id="text_5">
      <!-- 2.0 -->
      <defs>
       <path d="M 19.1875 8.296875 
L 53.609375 8.296875 
L 53.609375 0 
L 7.328125 0 
L 7.328125 8.296875 
Q 12.9375 14.109375 22.625 23.890625 
Q 32.328125 33.6875 34.8125 36.53125 
Q 39.546875 41.84375 41.421875 45.53125 
Q 43.3125 49.21875 43.3125 52.78125 
Q 43.3125 58.59375 39.234375 62.25 
Q 35.15625 65.921875 28.609375 65.921875 
Q 23.96875 65.921875 18.8125 64.3125 
Q 13.671875 62.703125 7.8125 59.421875 
L 7.8125 69.390625 
Q 13.765625 71.78125 18.9375 73 
Q 24.125 74.21875 28.421875 74.21875 
Q 39.75 74.21875 46.484375 68.546875 
Q 53.21875 62.890625 53.21875 53.421875 
Q 53.21875 48.921875 51.53125 44.890625 
Q 49.859375 40.875 45.40625 35.40625 
Q 44.1875 33.984375 37.640625 27.21875 
Q 31.109375 20.453125 19.1875 8.296875 
z
" id="DejaVuSans-32"/>
      </defs>
      <g transform="translate(377.008437 278.406437)scale(0.1 -0.1)">
       <use xlink:href="#DejaVuSans-32"/>
       <use x="63.623047" xlink:href="#DejaVuSans-2e"/>
       <use x="95.410156" xlink:href="#DejaVuSans-30"/>
      </g>
     </g>
    </g>
   </g>
   <g id="matplotlib.axis_2">
    <g id="ytick_1">
     <g id="line2d_6">
      <defs>
       <path d="M 0 0 
L -3.5 0 
" id="m342e74df46" style="stroke:#000000;stroke-width:0.8;"/>
      </defs>
      <g>
       <use style="stroke:#000000;stroke-width:0.8;" x="57.6" xlink:href="#m342e74df46" y="248.928"/>
      </g>
     </g>
     <g id="text_6">
      <!-- 0.0 -->
      <g transform="translate(34.696875 252.727219)scale(0.1 -0.1)">
       <use xlink:href="#DejaVuSans-30"/>
       <use x="63.623047" xlink:href="#DejaVuSans-2e"/>
       <use x="95.410156" xlink:href="#DejaVuSans-30"/>
      </g>
     </g>
    </g>
    <g id="ytick_2">
     <g id="line2d_7">
      <g>
       <use style="stroke:#000000;stroke-width:0.8;" x="57.6" xlink:href="#m342e74df46" y="219.168"/>
      </g>
     </g>
     <g id="text_7">
      <!-- 0.2 -->
      <g transform="translate(34.696875 222.967219)scale(0.1 -0.1)">
       <use xlink:href="#DejaVuSans-30"/>
       <use x="63.623047" xlink:href="#DejaVuSans-2e"/>
       <use x="95.410156" xlink:href="#DejaVuSans-32"/>
      </g>
     </g>
    </g>
    <g id="ytick_3">
     <g id="line2d_8">
      <g>
       <use style="stroke:#000000;stroke-width:0.8;" x="57.6" xlink:href="#m342e74df46" y="189.408"/>
      </g>
     </g>
     <g id="text_8">
      <!-- 0.4 -->
      <defs>
       <path d="M 37.796875 64.3125 
L 12.890625 25.390625 
L 37.796875 25.390625 
z
M 35.203125 72.90625 
L 47.609375 72.90625 
L 47.609375 25.390625 
L 58.015625 25.390625 
L 58.015625 17.1875 
L 47.609375 17.1875 
L 47.609375 0 
L 37.796875 0 
L 37.796875 17.1875 
L 4.890625 17.1875 
L 4.890625 26.703125 
z
" id="DejaVuSans-34"/>
      </defs>
      <g transform="translate(34.696875 193.207219)scale(0.1 -0.1)">
       <use xlink:href="#DejaVuSans-30"/>
       <use x="63.623047" xlink:href="#DejaVuSans-2e"/>
       <use x="95.410156" xlink:href="#DejaVuSans-34"/>
      </g>
     </g>
    </g>
    <g id="ytick_4">
     <g id="line2d_9">
      <g>
       <use style="stroke:#000000;stroke-width:0.8;" x="57.6" xlink:href="#m342e74df46" y="159.648"/>
      </g>
     </g>
     <g id="text_9">
      <!-- 0.6 -->
      <defs>
       <path d="M 33.015625 40.375 
Q 26.375 40.375 22.484375 35.828125 
Q 18.609375 31.296875 18.609375 23.390625 
Q 18.609375 15.53125 22.484375 10.953125 
Q 26.375 6.390625 33.015625 6.390625 
Q 39.65625 6.390625 43.53125 10.953125 
Q 47.40625 15.53125 47.40625 23.390625 
Q 47.40625 31.296875 43.53125 35.828125 
Q 39.65625 40.375 33.015625 40.375 
z
M 52.59375 71.296875 
L 52.59375 62.3125 
Q 48.875 64.0625 45.09375 64.984375 
Q 41.3125 65.921875 37.59375 65.921875 
Q 27.828125 65.921875 22.671875 59.328125 
Q 17.53125 52.734375 16.796875 39.40625 
Q 19.671875 43.65625 24.015625 45.921875 
Q 28.375 48.1875 33.59375 48.1875 
Q 44.578125 48.1875 50.953125 41.515625 
Q 57.328125 34.859375 57.328125 23.390625 
Q 57.328125 12.15625 50.6875 5.359375 
Q 44.046875 -1.421875 33.015625 -1.421875 
Q 20.359375 -1.421875 13.671875 8.265625 
Q 6.984375 17.96875 6.984375 36.375 
Q 6.984375 53.65625 15.1875 63.9375 
Q 23.390625 74.21875 37.203125 74.21875 
Q 40.921875 74.21875 44.703125 73.484375 
Q 48.484375 72.75 52.59375 71.296875 
z
" id="DejaVuSans-36"/>
      </defs>
      <g transform="translate(34.696875 163.447219)scale(0.1 -0.1)">
       <use xlink:href="#DejaVuSans-30"/>
       <use x="63.623047" xlink:href="#DejaVuSans-2e"/>
       <use x="95.410156" xlink:href="#DejaVuSans-36"/>
      </g>
     </g>
    </g>
    <g id="ytick_5">
     <g id="line2d_10">
      <g>
       <use style="stroke:#000000;stroke-width:0.8;" x="57.6" xlink:href="#m342e74df46" y="129.888"/>
      </g>
     </g>
     <g id="text_10">
      <!-- 0.8 -->
      <defs>
       <path d="M 31.78125 34.625 
Q 24.75 34.625 20.71875 30.859375 
Q 16.703125 27.09375 16.703125 20.515625 
Q 16.703125 13.921875 20.71875 10.15625 
Q 24.75 6.390625 31.78125 6.390625 
Q 38.8125 6.390625 42.859375 10.171875 
Q 46.921875 13.96875 46.921875 20.515625 
Q 46.921875 27.09375 42.890625 30.859375 
Q 38.875 34.625 31.78125 34.625 
z
M 21.921875 38.8125 
Q 15.578125 40.375 12.03125 44.71875 
Q 8.5 49.078125 8.5 55.328125 
Q 8.5 64.0625 14.71875 69.140625 
Q 20.953125 74.21875 31.78125 74.21875 
Q 42.671875 74.21875 48.875 69.140625 
Q 55.078125 64.0625 55.078125 55.328125 
Q 55.078125 49.078125 51.53125 44.71875 
Q 48 40.375 41.703125 38.8125 
Q 48.828125 37.15625 52.796875 32.3125 
Q 56.78125 27.484375 56.78125 20.515625 
Q 56.78125 9.90625 50.3125 4.234375 
Q 43.84375 -1.421875 31.78125 -1.421875 
Q 19.734375 -1.421875 13.25 4.234375 
Q 6.78125 9.90625 6.78125 20.515625 
Q 6.78125 27.484375 10.78125 32.3125 
Q 14.796875 37.15625 21.921875 38.8125 
z
M 18.3125 54.390625 
Q 18.3125 48.734375 21.84375 45.5625 
Q 25.390625 42.390625 31.78125 42.390625 
Q 38.140625 42.390625 41.71875 45.5625 
Q 45.3125 48.734375 45.3125 54.390625 
Q 45.3125 60.0625 41.71875 63.234375 
Q 38.140625 66.40625 31.78125 66.40625 
Q 25.390625 66.40625 21.84375 63.234375 
Q 18.3125 60.0625 18.3125 54.390625 
z
" id="DejaVuSans-38"/>
      </defs>
      <g transform="translate(34.696875 133.687219)scale(0.1 -0.1)">
       <use xlink:href="#DejaVuSans-30"/>
       <use x="63.623047" xlink:href="#DejaVuSans-2e"/>
       <use x="95.410156" xlink:href="#DejaVuSans-38"/>
      </g>
     </g>
    </g>
    <g id="ytick_6">
     <g id="line2d_11">
      <g>
       <use style="stroke:#000000;stroke-width:0.8;" x="57.6" xlink:href="#m342e74df46" y="100.128"/>
      </g>
     </g>
     <g id="text_11">
      <!-- 1.0 -->
      <g transform="translate(34.696875 103.927219)scale(0.1 -0.1)">
       <use xlink:href="#DejaVuSans-31"/>
       <use x="63.623047" xlink:href="#DejaVuSans-2e"/>
       <use x="95.410156" xlink:href="#DejaVuSans-30"/>
      </g>
     </g>
    </g>
   </g>
   <g id="line2d_12">
    <path clip-path="url(#p23435abc02)" d="M 236.16 248.928 
L 236.16 100.128 
" style="fill:none;stroke:#cc0000;stroke-dasharray:7.4,3.2;stroke-dashoffset:0;stroke-width:2;"/>
   </g>
   <g id="line2d_13">
    <path clip-path="url(#p23435abc02)" d="M 87.36 248.928 
L 384.96 248.928 
" style="fill:none;stroke:#009900;stroke-linecap:square;stroke-width:2;"/>
   </g>
   <g id="line2d_14">
    <path clip-path="url(#p23435abc02)" d="M 384.96 248.928 
L 384.96 100.128 
" style="fill:none;stroke:#009900;stroke-linecap:square;stroke-width:2;"/>
   </g>
   <g id="line2d_15">
    <path clip-path="url(#p23435abc02)" d="M 384.96 100.128 
L 87.36 100.128 
" style="fill:none;stroke:#009900;stroke-linecap:square;stroke-width:2;"/>
   </g>
   <g id="line2d_16">
    <path clip-path="url(#p23435abc02)" d="M 87.36 100.128 
L 87.36 248.928 
" style="fill:none;stroke:#009900;stroke-linecap:square;stroke-width:2;"/>
   </g>
   <g id="line2d_17">
    <path clip-path="url(#p23435abc02)" d="M 186.775706 229.24713 
L 184.868288 223.609459 
L 182.736949 218.052574 
L 180.385099 212.585364 
L 175.209042 201.091115 
L 173.767537 196.866972 
L 172.581921 192.563993 
L 171.656463 188.197662 
L 170.994493 183.783694 
L 170.598394 179.337974 
L 170.46959 174.876502 
L 170.608546 170.415335 
L 171.014761 165.970529 
L 171.686774 161.558078 
L 172.622165 157.193865 
L 173.81757 152.893594 
L 175.268684 148.672743 
L 176.970287 144.546501 
L 178.512814 141.313798 
L 177.125427 143.946392 
L 174.849775 147.786018 
L 172.347979 151.482277 
L 169.629042 155.021868 
L 166.70275 158.392051 
L 163.579633 161.580697 
L 160.270933 164.57633 
L 156.788556 167.36817 
L 153.145036 169.946169 
L 149.353485 172.30105 
L 145.427549 174.424335 
L 141.381357 176.308386 
L 137.22947 177.94642 
L 132.986831 179.332543 
L 128.66871 180.461765 
L 123.695641 181.446483 
L 117.869262 182.660931 
L 112.096108 184.107401 
L 106.385415 185.783578 
L 100.74632 187.686781 
L 95.187843 189.813966 
L 89.718877 192.161729 
L 87.36 193.255673 
L 92.787107 195.69864 
L 98.307565 197.922628 
L 103.912544 199.924077 
L 109.593075 201.699785 
L 115.340072 203.246913 
L 121.144341 204.562984 
L 126.996596 205.645894 
L 132.887475 206.49391 
L 138.807553 207.105676 
L 144.474726 207.468238 
L 148.166415 212.136537 
L 152.041833 216.653474 
L 156.09478 221.011822 
L 160.318773 225.204609 
L 164.707054 229.225128 
L 169.252603 233.066946 
L 173.948147 236.723918 
L 178.786175 240.190193 
L 183.758948 243.460226 
L 188.858509 246.528785 
L 193.198245 248.928 
L 198.39722 246.031065 
L 203.476191 242.928543 
L 208.427031 239.625399 
L 213.24182 236.126916 
L 217.912856 232.438691 
L 222.432666 228.566624 
L 226.79402 224.516911 
L 230.989939 220.296029 
L 235.013712 215.910732 
L 236.16 214.594693 
L 232.187938 210.162503 
L 228.041813 205.8927 
L 223.728257 201.792112 
L 219.254172 197.8673 
L 214.626716 194.124544 
L 209.85329 190.56983 
L 204.941532 187.208846 
L 199.8993 184.046968 
L 197.999447 182.926956 
L 193.899844 181.162141 
L 189.913443 179.154674 
L 186.054591 176.911778 
L 182.337177 174.441526 
L 178.774577 171.752808 
L 175.379615 168.8553 
L 172.164508 165.759431 
L 169.140827 162.476342 
L 166.319455 159.017849 
L 163.710544 155.396398 
L 161.323485 151.625023 
L 159.166868 147.717298 
L 157.248454 143.687284 
L 155.575149 139.549487 
L 155.003071 137.946804 
L 152.148774 132.724298 
L 149.087915 127.620111 
L 145.825392 122.642408 
L 142.366424 117.799153 
L 138.716544 113.098094 
L 134.881591 108.546752 
L 130.867701 104.152407 
L 126.892963 100.128 
L 122.714959 104.366617 
L 118.709798 108.768918 
L 114.883885 113.327862 
L 111.243341 118.036155 
L 107.793991 122.886265 
L 104.541353 127.870433 
L 101.49063 132.980684 
L 98.646703 138.208845 
L 96.014122 143.54655 
L 93.597097 148.98526 
L 91.399497 154.516276 
L 89.424835 160.130748 
L 87.676273 165.819694 
L 87.36 166.943764 
L 89.063865 172.646257 
L 90.994406 178.276052 
L 93.148534 183.824143 
L 95.522804 189.281653 
L 98.113417 194.639853 
L 100.916228 199.89017 
L 103.926755 205.024205 
L 107.140179 210.033744 
L 110.551362 214.910773 
L 114.154845 219.647491 
L 117.944864 224.236318 
L 121.915355 228.669915 
L 126.059967 232.941188 
L 130.372069 237.043304 
L 134.844763 240.9697 
L 139.470893 244.714096 
L 144.243059 248.270501 
L 145.170643 248.928 
L 149.969844 245.408163 
L 154.624449 241.699224 
L 159.127014 237.807117 
L 163.470334 233.738069 
L 167.647462 229.49859 
L 171.651714 225.095461 
L 175.476685 220.535726 
L 179.116256 215.826681 
L 182.564604 210.975859 
L 185.816212 205.99102 
L 188.865879 200.880138 
L 190.170552 198.542174 
L 194.770813 194.76604 
L 199.216389 190.808966 
L 203.500168 186.677282 
L 207.615297 182.377597 
L 211.555194 177.91679 
L 215.313554 173.301997 
L 218.884365 168.540602 
L 222.261915 163.64022 
L 225.4408 158.608693 
L 228.415935 153.454069 
L 231.18256 148.184594 
L 233.73625 142.808698 
L 236.16 137.118646 
L 233.831913 131.641275 
L 231.286652 126.261384 
L 228.528289 120.98758 
L 225.561236 115.828299 
L 222.39024 110.791796 
L 219.020375 105.886127 
L 215.45703 101.119141 
L 214.678006 100.128 
L 211.074403 104.864626 
L 207.663097 109.741569 
L 204.449546 114.751027 
L 201.43889 119.884986 
L 198.635946 125.135232 
L 196.045198 130.493366 
L 193.67079 135.950817 
L 191.516521 141.498854 
L 189.585838 147.1286 
L 188.954775 149.145246 
L 194.725351 147.688526 
L 200.433058 146.002209 
L 206.068765 144.088995 
L 211.623455 141.951942 
L 217.088243 139.59447 
L 222.454386 137.020351 
L 227.7133 134.233703 
L 232.85657 131.238983 
L 236.16 129.166159 
L 231.096978 126.037679 
L 225.9129 123.114168 
L 220.616059 120.400304 
L 215.21493 117.900427 
L 209.718152 115.618538 
L 204.13452 113.558287 
L 198.472967 111.722969 
L 192.742549 110.115521 
L 186.952433 108.738515 
L 181.111884 107.594152 
L 175.230244 106.684265 
L 169.316923 106.010309 
L 163.381382 105.573361 
L 157.433114 105.374121 
L 151.481637 105.412908 
L 145.536472 105.68966 
L 139.60713 106.203933 
L 133.703095 106.954905 
L 127.833814 107.941375 
L 122.008677 109.161765 
L 116.237001 110.614122 
L 110.528021 112.296122 
L 104.890869 114.205076 
L 99.334565 116.337928 
L 93.867996 118.691267 
L 88.499908 121.261329 
L 87.36 121.841532 
L 92.705798 124.457642 
L 98.151936 126.857884 
L 103.689701 129.038419 
L 109.310235 130.995758 
L 115.004547 132.72677 
L 120.763525 134.228685 
L 126.577957 135.499102 
L 132.438542 136.535987 
L 138.335902 137.337681 
L 144.260605 137.902903 
L 150.203172 138.230748 
L 153.281818 138.307006 
L 158.521094 135.483609 
L 163.643273 132.452956 
L 168.640162 129.219894 
L 173.503765 125.789596 
L 178.226303 122.16755 
L 182.80022 118.35955 
L 187.218199 114.371688 
L 191.473172 110.210344 
L 195.558332 105.882175 
L 199.467144 101.394105 
L 200.51424 100.128 
L 204.373258 104.658955 
L 208.41038 109.031967 
L 212.619147 113.240038 
L 216.992824 117.276438 
L 221.524417 121.134709 
L 226.206674 124.808678 
L 231.032105 128.292468 
L 236.16 131.686297 
L 231.19475 134.96774 
L 226.364694 138.445116 
L 221.67756 142.112861 
L 217.140846 145.965108 
L 212.761809 149.995693 
L 208.547455 154.198169 
L 204.504527 158.565813 
L 200.639492 163.091637 
L 198.048405 166.343159 
L 203.412021 168.922539 
L 208.874495 171.285369 
L 214.427087 173.427868 
L 220.060914 175.346609 
L 225.766965 177.038523 
L 231.536109 178.500901 
L 236.16 179.497857 
L 243.572482 180.134905 
L 250.998572 180.586462 
L 258.433629 180.852244 
L 265.873007 180.932086 
L 273.312056 180.825938 
L 280.746127 180.533866 
L 288.920502 179.997416 
L 282.152826 183.087609 
L 275.464513 186.346009 
L 268.85974 189.770582 
L 262.342637 193.359187 
L 255.917277 197.109582 
L 249.587674 201.019421 
L 243.357785 205.086263 
L 236.16 210.069364 
L 234.342793 215.736757 
L 232.753676 221.472285 
L 231.395189 227.266774 
L 230.269507 233.110952 
L 229.37843 238.995471 
L 228.723384 244.910916 
L 228.414478 248.928 
L 227.919825 242.996988 
L 227.188391 237.090502 
L 226.221345 231.217989 
L 225.020235 225.388846 
L 223.586982 219.612396 
L 221.923879 213.897882 
L 220.033587 208.254446 
L 217.91913 202.691115 
L 215.58389 197.21679 
L 213.031603 191.840228 
L 210.266353 186.570032 
L 207.292563 181.414631 
L 204.114991 176.382274 
L 200.73872 171.481012 
L 198.448481 168.38021 
L 200.190611 162.68929 
L 201.703771 156.933256 
L 202.985541 151.121316 
L 204.033869 145.262768 
L 204.84708 139.366984 
L 205.423872 133.443396 
L 205.763322 127.501481 
L 205.864887 121.550744 
L 205.728405 115.600706 
L 205.354095 109.660885 
L 204.742554 103.740784 
L 204.25116 100.128 
L 203.494753 106.031341 
L 202.975022 111.960207 
L 202.692798 117.905115 
L 202.648533 123.856554 
L 202.842297 129.805002 
L 203.273781 135.740944 
L 203.942294 141.654882 
L 204.846766 147.537357 
L 205.985752 153.378957 
L 207.357428 159.170338 
L 208.9596 164.902233 
L 210.789706 170.565474 
L 212.844816 176.151 
L 215.121645 181.649875 
L 217.616548 187.053304 
L 220.325536 192.35264 
L 223.244273 197.539407 
L 226.368091 202.605307 
L 229.691993 207.542235 
L 233.21066 212.342294 
L 236.16 216.076113 
L 232.489661 220.761216 
L 229.009612 225.589346 
L 225.72542 230.552779 
L 222.64234 235.643574 
L 219.765303 240.853587 
L 217.098913 246.174484 
L 215.821596 248.928 
L 213.264296 243.553822 
L 210.49413 238.286207 
L 207.515533 233.133583 
L 204.333268 228.104192 
L 200.952426 223.206081 
L 197.378417 218.447086 
L 193.616957 213.834819 
L 189.674064 209.37666 
L 185.556047 205.079741 
L 183.48786 202.873043 
L 180.697089 199.38981 
L 178.120208 195.745499 
L 175.766492 191.953225 
L 173.644411 188.026638 
L 171.761603 183.979867 
L 170.124843 179.827478 
L 168.740022 175.584414 
L 167.612125 171.265946 
L 166.745209 166.887616 
L 166.142396 162.46518 
L 165.805855 158.014556 
L 165.736796 153.55176 
L 165.935469 149.092853 
L 166.401158 144.653884 
L 167.132188 140.250826 
L 167.658408 137.798601 
L 167.123101 142.229714 
L 166.32305 146.620754 
L 165.261134 150.955919 
L 163.941175 155.219606 
L 162.367924 159.396471 
L 160.547042 163.471481 
L 158.485083 167.429971 
L 156.189467 171.257695 
L 153.668457 174.940876 
L 150.931125 178.46626 
L 147.987322 181.821158 
L 144.847643 184.993498 
L 141.523388 187.971861 
L 138.026521 190.745529 
L 134.369625 193.30452 
L 130.970988 195.405661 
L 134.564618 192.75856 
L 138.310512 190.331712 
L 142.19519 188.133849 
L 146.20467 186.172883 
L 150.324522 184.455869 
L 154.53992 182.988988 
L 158.835692 181.777518 
L 163.196379 180.825821 
L 167.606286 180.13732 
L 172.049544 179.714494 
L 176.51016 179.558864 
L 180.972082 179.670991 
L 185.419251 180.05047 
L 189.835663 180.695937 
L 194.205422 181.605068 
L 198.064774 182.639927 
L 193.674213 181.837253 
L 189.339683 180.772747 
L 185.076785 179.450241 
L 180.900861 177.874495 
L 176.82694 176.051179 
L 172.869682 173.986855 
L 169.043331 171.688953 
L 165.361656 169.165743 
L 161.837909 166.426305 
L 158.484769 163.480498 
L 155.314306 160.338925 
L 152.33793 157.012891 
L 149.566351 153.514367 
L 147.009546 149.855943 
L 144.676715 146.050786 
L 142.785253 142.531141 
L 145.209863 146.278485 
L 147.405404 150.164475 
L 149.363976 154.175125 
L 151.078528 158.296002 
L 152.54289 162.512276 
L 153.751793 166.808771 
L 154.700885 171.170026 
L 155.386751 175.580344 
L 155.806923 180.023853 
L 155.959887 184.484562 
L 155.845095 188.946416 
L 155.462959 193.393358 
L 154.814853 197.809383 
L 153.903112 202.178598 
L 152.731015 206.48528 
L 151.464332 210.274877 
L 152.531427 205.940984 
L 153.856479 201.678877 
L 155.43472 197.503896 
L 157.26047 193.431064 
L 159.327158 189.475041 
L 161.627345 185.650063 
L 164.152755 181.969896 
L 166.894297 178.447786 
L 169.842107 175.096407 
L 172.985574 171.927822 
L 176.313385 168.953433 
L 179.813564 166.183945 
L 183.473515 163.629326 
L 187.280065 161.298768 
L 191.219515 159.200661 
L 194.847247 157.525822 
L 200.424309 155.447851 
L 205.913814 153.14852 
L 211.306978 150.631507 
L 216.595175 147.900838 
L 221.769944 144.960881 
L 226.823007 141.816341 
L 231.74628 138.472247 
L 236.16 135.219654 
L 231.363265 131.696457 
L 226.429477 128.367896 
L 221.366529 125.239297 
L 216.18252 122.315664 
L 210.885743 119.601675 
L 205.484673 117.101671 
L 199.987949 114.819652 
L 194.404366 112.759269 
L 188.742855 110.923818 
L 183.012475 109.316235 
L 177.222392 107.939092 
L 171.38187 106.794592 
L 165.500252 105.884566 
L 159.586947 105.21047 
L 153.651415 104.773383 
L 147.703153 104.574003 
L 141.751675 104.612649 
L 135.806503 104.889261 
L 129.877148 105.403394 
L 123.973096 106.154227 
L 118.103792 107.140559 
L 112.278626 108.360811 
L 106.506916 109.813032 
L 100.797896 111.494898 
L 95.160699 113.403718 
L 89.604344 115.53644 
L 87.36 116.471246 
L 92.880768 118.694465 
L 98.486025 120.695134 
L 104.166803 122.470052 
L 109.914016 124.01638 
L 115.718468 125.331643 
L 121.570873 126.413739 
L 127.46187 127.260935 
L 133.382033 127.871876 
L 139.321892 128.245585 
L 145.271944 128.381465 
L 151.22267 128.279297 
L 157.164551 127.939245 
L 163.08808 127.361853 
L 168.983781 126.548045 
L 174.842224 125.499123 
L 180.654034 124.216765 
L 186.409915 122.703022 
L 192.100658 120.960317 
L 197.717159 118.991436 
L 203.250434 116.799529 
L 208.691629 114.388105 
L 214.032042 111.761019 
L 219.263126 108.922475 
L 224.376516 105.877014 
L 229.364028 102.629508 
L 232.929432 100.128 
L 236.16 102.401158 
L 231.315741 105.85872 
L 226.613624 109.507236 
L 222.061168 113.340868 
L 217.665659 117.353483 
L 213.434128 121.538662 
L 209.373344 125.889709 
L 205.489803 130.399664 
L 201.789719 135.061312 
L 198.279011 139.867195 
L 194.963295 144.809624 
L 191.847876 149.880694 
L 190.937964 151.452333 
L 187.92781 154.747829 
L 184.725462 157.856893 
L 181.342444 160.768338 
L 177.790932 163.471684 
L 174.083707 165.957202 
L 170.234111 168.215948 
L 166.256 170.239793 
L 162.163689 172.021451 
L 157.971906 173.554513 
L 153.695738 174.83346 
L 149.350574 175.853689 
L 144.952052 176.611529 
L 140.516001 177.104252 
L 136.058388 177.330085 
L 131.595254 177.288215 
L 127.142662 176.978794 
L 124.622532 176.684033 
L 128.978803 175.712324 
L 133.385503 175.003583 
L 137.826773 174.560361 
L 142.286627 174.384253 
L 146.749017 174.475892 
L 151.197882 174.834949 
L 155.61721 175.460132 
L 159.991098 176.349191 
L 164.303803 177.498925 
L 168.539806 178.905198 
L 172.68386 180.562948 
L 176.721051 182.466209 
L 180.636851 184.608131 
L 184.417166 186.981006 
L 188.048392 189.576294 
L 191.517459 192.384655 
L 193.412277 194.072139 
L 189.286967 192.368278 
L 185.271252 190.420113 
L 181.379582 188.234656 
L 177.625964 185.819771 
L 174.023907 183.184149 
L 170.586373 180.337276 
L 167.325736 177.289398 
L 164.253729 174.051484 
L 161.381408 170.635186 
L 158.71911 167.0528 
L 156.276418 163.317218 
L 154.062121 159.441885 
L 152.08419 155.440746 
L 150.349742 151.328204 
L 148.865019 147.119057 
L 147.635366 142.828454 
L 147.051832 140.359157 
L 149.452714 144.121748 
L 151.623656 148.021534 
L 153.556844 152.044481 
L 155.245321 156.17611 
L 156.683011 160.401553 
L 157.86474 164.705602 
L 158.786254 169.072767 
L 159.444237 173.487331 
L 159.836321 177.933406 
L 159.961095 182.394992 
L 159.81811 186.856032 
L 159.407881 191.30047 
L 158.731883 195.712312 
L 157.79255 200.075679 
L 156.593263 204.374868 
L 155.138337 208.594407 
L 154.199333 210.951568 
L 154.392058 206.492401 
L 154.851826 202.052814 
L 155.576982 197.648785 
L 156.564916 193.296165 
L 157.812073 189.010617 
L 159.313965 184.807566 
L 161.065185 180.702137 
L 163.059433 176.709106 
L 165.28953 172.842844 
L 167.74745 169.117264 
L 170.424349 165.545775 
L 173.310591 162.14123 
L 176.395789 158.915882 
L 179.668841 155.881339 
L 183.117966 153.048522 
L 186.730752 150.427626 
L 188.852351 149.035951 
L 186.13579 152.577366 
L 183.21176 155.949512 
L 180.090785 159.140253 
L 176.784096 162.138107 
L 173.303593 164.932284 
L 169.661804 167.512727 
L 165.871835 169.870152 
L 161.947324 171.996072 
L 157.902397 173.882837 
L 153.751611 175.523658 
L 149.509904 176.912628 
L 145.192541 178.044748 
L 140.815061 178.915946 
L 136.393217 179.523084 
L 131.942924 179.863978 
L 127.480197 179.937402 
L 124.944076 179.859768 
L 129.201009 178.518188 
L 133.530729 177.434284 
L 137.917653 176.611958 
L 142.345992 176.05417 
L 146.79981 175.762926 
L 151.263078 175.739275 
L 155.719732 175.983302 
L 160.153734 176.494128 
L 164.549127 177.269916 
L 168.89009 178.307874 
L 173.161002 179.604265 
L 177.346492 181.154424 
L 181.431496 182.952773 
L 185.401313 184.992839 
L 189.241657 187.26728 
L 192.938705 189.76791 
L 194.971209 191.286746 
L 198.98656 195.679757 
L 203.174372 199.908682 
L 207.527946 203.966757 
L 212.040317 207.84749 
L 216.704267 211.544671 
L 221.512334 215.052387 
L 226.456827 218.365026 
L 231.529834 221.477288 
L 236.16 224.082007 
L 230.979128 227.011196 
L 225.919536 230.145221 
L 220.989319 233.479068 
L 216.196364 237.007405 
L 211.548339 240.724587 
L 207.052679 244.624667 
L 202.485529 248.928 
L 198.158303 244.841841 
L 193.671136 240.931992 
L 189.031206 237.204711 
L 184.245936 233.665958 
L 179.322981 230.321396 
L 174.270217 227.176374 
L 169.095728 224.235925 
L 163.807791 221.504753 
L 158.414866 218.987226 
L 152.925581 216.687372 
L 147.348716 214.608871 
L 141.693195 212.755048 
L 135.968065 211.128868 
L 130.182484 209.732933 
L 124.345708 208.569476 
L 118.467076 207.640358 
L 112.555991 206.947067 
L 106.621909 206.49071 
L 100.674325 206.272018 
L 94.722754 206.291341 
L 88.776715 206.548648 
L 87.36 206.645159 
L 93.303312 206.959197 
L 99.254429 207.035314 
L 105.203829 206.873389 
L 111.141995 206.473682 
L 117.059427 205.83683 
L 122.946658 204.963854 
L 128.794271 203.85615 
L 134.592909 202.51549 
L 136.654957 201.979354 
L 135.752023 207.862065 
L 135.085056 213.776178 
L 134.655125 219.712232 
L 134.462917 225.660731 
L 134.508738 231.612158 
L 134.792517 237.556992 
L 135.313798 243.485722 
L 136.003917 248.928 
L 136.743384 243.022514 
L 137.246103 237.09218 
L 137.511269 231.146487 
L 137.538459 225.194946 
L 137.327629 219.247078 
L 136.879117 213.312399 
L 136.193639 207.400402 
L 135.272293 201.520547 
L 135.07844 200.449696 
L 129.235784 199.316138 
L 123.352471 198.417131 
L 117.437914 197.754112 
L 111.501574 197.328143 
L 105.552948 197.139905 
L 99.601554 197.189699 
L 93.65691 197.477446 
L 87.36 198.043242 
L 93.287054 198.583251 
L 99.230962 198.885808 
L 105.182214 198.950431 
L 111.131291 198.777015 
L 117.068673 198.365839 
L 122.984864 197.717559 
L 128.870398 196.833213 
L 131.62312 196.33645 
L 128.843718 201.599197 
L 126.276993 206.96888 
L 123.927051 212.43691 
L 121.797652 217.994539 
L 119.892202 223.632876 
L 118.213749 229.3429 
L 116.764979 235.115477 
L 115.548209 240.941372 
L 114.565387 246.811265 
L 114.269868 248.928 
L 113.371456 243.044597 
L 112.238489 237.201826 
L 110.87278 231.409036 
L 109.276513 225.675493 
L 107.452243 220.01037 
L 105.402887 214.42273 
L 103.131725 208.921512 
L 100.642389 203.515516 
L 97.938862 198.213392 
L 95.025469 193.02362 
L 91.906872 187.954505 
L 88.588058 183.014155 
L 87.36 181.289039 
L 90.748782 176.396418 
L 93.939201 171.372196 
L 96.926153 166.22441 
L 99.704859 160.961296 
L 102.270874 155.591273 
L 104.620092 150.122932 
L 106.748756 144.565021 
L 108.653461 138.926433 
L 110.331158 133.216186 
L 111.779165 127.443418 
L 112.995164 121.617362 
L 113.97721 115.747339 
L 114.723732 109.84274 
L 115.233536 103.913012 
L 115.434432 100.128 
L 115.793036 106.06879 
L 116.388923 111.990487 
L 117.221137 117.883619 
L 118.288348 123.738757 
L 119.588849 129.546534 
L 121.120558 135.29766 
L 122.881026 140.982933 
L 124.867436 146.593259 
L 127.07661 152.119662 
L 129.108134 156.70398 
L 123.230157 157.637232 
L 117.394201 158.804793 
L 111.609603 160.204796 
L 105.885617 161.835002 
L 100.231401 163.692802 
L 94.656 165.775224 
L 89.168333 168.078938 
L 87.36 168.89545 
L 92.816461 171.272131 
L 98.3636 173.42871 
L 103.992542 175.361738 
L 109.694281 177.068121 
L 115.459697 178.545131 
L 121.279566 179.790405 
L 125.037019 180.466239 
L 129.498006 180.610864 
L 133.942293 181.022727 
L 138.353886 181.700347 
L 142.716907 182.641284 
L 147.015655 183.842152 
L 151.234659 185.29863 
L 155.358734 187.005475 
L 159.373039 188.956544 
L 163.263127 191.144817 
L 167.014997 193.562417 
L 170.615146 196.200644 
L 174.050619 199.050003 
L 177.309051 202.100239 
L 180.378715 205.340375 
L 181.181713 206.255544 
L 179.623717 202.072965 
L 178.319329 197.804489 
L 177.273243 193.465477 
L 176.489224 189.071546 
L 175.970094 184.638508 
L 175.71772 180.182319 
L 175.733012 175.719014 
L 176.015914 171.264659 
L 176.565407 166.835282 
L 177.379515 162.446826 
L 178.455308 158.115084 
L 179.788913 153.855646 
L 181.375532 149.68384 
L 183.209453 145.614682 
L 183.75172 144.524596 
L 180.472465 147.552434 
L 177.017549 150.378186 
L 173.399406 152.991682 
L 169.631059 155.383517 
L 165.726068 157.545084 
L 161.698488 159.468601 
L 157.562814 161.147147 
L 153.33393 162.574682 
L 149.027054 163.746067 
L 144.657688 164.657086 
L 140.241556 165.304461 
L 135.794551 165.685863 
L 131.332678 165.799917 
L 126.871995 165.646215 
L 125.65769 165.55787 
L 129.702983 167.443851 
L 133.627906 169.56901 
L 137.418332 171.9257 
L 141.060622 174.505437 
L 144.541665 177.298939 
L 147.848936 180.296151 
L 150.97053 183.486288 
L 153.895213 186.857867 
L 156.612461 190.398754 
L 159.112493 194.096207 
L 161.386312 197.936919 
L 163.425735 201.907066 
L 165.223422 205.992362 
L 166.772904 210.178102 
L 167.15168 211.335197 
L 167.362604 206.876854 
L 167.840488 202.43918 
L 168.583613 198.038148 
L 169.589304 193.689596 
L 170.853943 189.409175 
L 172.372976 185.212288 
L 174.140939 181.114041 
L 176.151467 177.129183 
L 178.397325 173.272055 
L 180.870432 169.556538 
L 183.561885 165.996005 
L 186.461998 162.603269 
L 189.560336 159.39054 
L 192.845745 156.369381 
L 193.77275 155.580076 
L 189.567473 157.075724 
L 185.280078 158.316515 
L 180.925995 159.297984 
L 176.520895 160.016599 
L 172.08063 160.469773 
L 167.621181 160.655876 
L 163.158597 160.574237 
L 158.708939 160.225151 
L 154.288221 159.609873 
L 149.912352 158.730619 
L 145.59708 157.590552 
L 141.357937 156.193776 
L 137.210178 154.545317 
L 133.168732 152.651109 
L 132.086827 152.092697 
L 135.065583 155.4166 
L 137.839664 158.913141 
L 140.399086 162.569734 
L 142.734639 166.373221 
L 144.837917 170.309912 
L 146.701351 174.365641 
L 148.318233 178.52581 
L 149.682746 182.775448 
L 150.789977 187.099261 
L 151.635944 191.481687 
L 152.2176 195.906955 
L 152.532852 200.359138 
L 152.580567 204.822213 
L 152.360572 209.280119 
L 152.254186 210.492976 
L 154.200093 206.476166 
L 156.383363 202.583269 
L 158.796138 198.828294 
L 161.429735 195.224756 
L 164.274675 191.785623 
L 167.32072 188.523273 
L 170.556908 185.449447 
L 173.971591 182.575206 
L 177.55248 179.910896 
L 181.286689 177.466104 
L 185.160777 175.24963 
L 189.160803 173.26945 
L 193.27237 171.532691 
L 197.480682 170.045603 
L 198.64328 169.68407 
L 203.933183 166.956706 
L 209.109788 164.019985 
L 214.164816 160.878603 
L 219.090178 157.537587 
L 223.877996 154.002282 
L 228.520609 150.278343 
L 233.010591 146.371727 
L 236.16 143.434784 
L 231.784945 139.399876 
L 227.252037 135.543152 
L 222.568527 131.87078 
L 217.741907 128.388637 
L 212.7799 125.102292 
L 207.690443 122.017003 
L 202.481678 119.137706 
L 197.161938 116.469007 
L 191.739735 114.015176 
L 186.223741 111.780138 
L 180.622782 109.767469 
L 174.945818 107.980388 
L 169.20193 106.421754 
L 163.400309 105.094062 
L 157.550234 103.999435 
L 151.661066 103.139624 
L 145.742225 102.516004 
L 139.80318 102.129574 
L 133.853433 101.980951 
L 127.902501 102.070374 
L 121.959906 102.397699 
L 116.035154 102.962402 
L 110.137723 103.763581 
L 104.277047 104.799953 
L 98.462504 106.069861 
L 92.703394 107.571273 
L 87.36 109.187863 
L 93.058737 110.904246 
L 98.821554 112.391368 
L 104.639229 113.646849 
L 110.502457 114.668681 
L 116.401857 115.455229 
L 122.327992 116.005235 
L 128.271381 116.317819 
L 134.222516 116.39248 
L 140.171876 116.2291 
L 146.109944 115.82794 
L 152.02722 115.189641 
L 157.914238 114.315224 
L 163.761579 113.20609 
L 169.559889 111.864011 
L 175.299893 110.291135 
L 180.972407 108.489978 
L 186.568357 106.463422 
L 192.078789 104.214709 
L 197.49489 101.747436 
L 200.765819 100.128 
L 206.119776 102.727371 
L 211.573397 105.110561 
L 217.117958 107.273759 
L 222.744589 109.213502 
L 228.444289 110.926689 
L 234.207938 112.410579 
L 236.16 112.857881 
L 243.565004 113.576654 
L 250.985661 114.110097 
L 258.417335 114.457875 
L 265.855379 114.619773 
L 273.295146 114.595688 
L 280.731987 114.385636 
L 288.161252 113.989748 
L 295.578301 113.408271 
L 302.978495 112.641569 
L 310.357212 111.690122 
L 317.70984 110.554522 
L 325.031783 109.235481 
L 332.318465 107.733823 
L 339.565333 106.050486 
L 346.767857 104.186522 
L 353.921537 102.143096 
L 360.387301 100.128 
L 367.492628 102.333683 
L 374.650872 104.361062 
L 381.857558 106.208869 
L 384.96 106.945561 
L 377.733929 108.716046 
L 370.554374 110.666611 
L 363.425821 112.796036 
L 356.352726 115.102991 
L 349.339509 117.586035 
L 342.390553 120.243614 
L 335.510201 123.074069 
L 328.702754 126.075631 
L 321.972464 129.246423 
L 315.323539 132.584464 
L 308.760135 136.087667 
L 302.286352 139.753844 
L 295.906237 143.580703 
L 289.623777 147.565852 
L 283.442899 151.706802 
L 277.367465 156.000963 
L 271.401272 160.445652 
L 265.548049 165.038092 
L 259.811455 169.775412 
L 254.195074 174.654651 
L 248.702416 179.672761 
L 243.336914 184.826605 
L 238.101921 190.112962 
L 236.16 192.142676 
L 241.344862 197.47821 
L 246.661478 202.682469 
L 252.106526 207.7522 
L 257.676602 212.684234 
L 263.368226 217.475491 
L 269.17784 222.122974 
L 275.101814 226.62378 
L 281.136445 230.975095 
L 287.277961 235.174201 
L 293.522526 239.218472 
L 299.866235 243.105382 
L 306.305125 246.832501 
L 310.096264 248.928 
L 316.588721 245.294995 
L 322.988332 241.50083 
L 329.2911 237.547878 
L 335.493085 233.438607 
L 341.590411 229.175588 
L 347.579267 224.761483 
L 353.45591 220.199052 
L 359.216669 215.491146 
L 364.857942 210.640707 
L 370.376203 205.650766 
L 375.768005 200.524443 
L 381.029977 195.26494 
L 384.96 191.159608 
L 379.799422 185.800582 
L 374.506496 180.572232 
L 369.084528 175.477825 
L 363.536908 170.520545 
L 357.867102 165.70349 
L 352.078653 161.029671 
L 346.175181 156.502008 
L 340.160373 152.123332 
L 334.03799 147.896379 
L 327.811856 143.82379 
L 321.485864 139.90811 
L 315.063967 136.151788 
L 308.550179 132.55717 
L 301.94857 129.126503 
L 295.263266 125.861932 
L 288.498445 122.765495 
L 281.658336 119.839129 
L 274.747212 117.084663 
L 267.769394 114.503817 
L 260.729241 112.098205 
L 253.631154 109.86933 
L 246.47957 107.818585 
L 239.278956 105.947253 
L 236.16 105.19598 
L 230.780258 102.650404 
L 224.817607 100.128 
L 219.332226 102.437151 
L 213.943574 104.963812 
L 208.660272 107.70394 
L 203.490773 110.653152 
L 198.443345 113.80673 
L 193.526064 117.159628 
L 188.746796 120.706484 
L 184.113188 124.441622 
L 179.632652 128.359067 
L 175.312356 132.452553 
L 171.159212 136.715529 
L 169.784986 138.203909 
L 167.890989 132.561715 
L 165.77288 126.999773 
L 163.434046 121.526983 
L 160.87823 116.152098 
L 158.10952 110.883718 
L 155.132346 105.730271 
L 151.95147 100.700002 
L 151.571646 100.128 
L 148.367593 105.143538 
L 145.36667 110.283192 
L 142.57368 115.53874 
L 139.993089 120.901774 
L 137.629027 126.363714 
L 135.485274 131.915823 
L 133.565262 137.549217 
L 131.872062 143.254886 
L 130.408381 149.0237 
L 129.176563 154.846432 
L 128.699933 157.473031 
L 124.591128 161.77876 
L 120.657793 166.245353 
L 116.90622 170.865664 
L 113.342411 175.632303 
L 109.972067 180.537644 
L 106.800581 185.573838 
L 103.833026 190.73283 
L 101.074149 196.006366 
L 98.528364 201.386009 
L 96.199743 206.863153 
L 94.092013 212.429036 
L 92.208544 218.074754 
L 90.552351 223.791274 
L 89.126082 229.569452 
L 87.93202 235.400043 
L 87.36 238.718789 
L 88.421806 244.57491 
L 89.369391 248.928 
L 90.606031 243.106291 
L 91.608876 237.239785 
L 92.376322 231.33787 
L 92.90714 225.409985 
L 93.200481 219.465616 
L 93.255876 213.51427 
L 93.073236 207.56547 
L 92.652854 201.628732 
L 91.995402 195.713553 
L 91.101932 189.829397 
L 89.973873 183.985677 
L 88.61303 178.191742 
L 87.36 173.604863 
L 88.905272 167.857367 
L 90.219469 162.052673 
L 91.300489 156.200069 
L 92.146602 150.308917 
L 92.756456 144.388641 
L 93.129073 138.448714 
L 93.263859 132.498637 
L 93.160598 126.54793 
L 92.819454 120.606112 
L 92.240974 114.682689 
L 91.426083 108.787137 
L 90.376085 102.928888 
L 89.787969 100.128 
L 88.625494 105.964971 
L 87.697366 111.84376 
L 87.36 114.471618 
L 88.183312 120.366 
L 89.241677 126.222744 
L 90.533403 132.032479 
L 92.056424 137.785912 
L 93.808302 143.473838 
L 95.786235 149.087158 
L 97.987059 154.616892 
L 100.407253 160.054193 
L 103.042945 165.390362 
L 105.889919 170.616864 
L 108.943619 175.725337 
L 112.199162 180.707608 
L 115.651338 185.555707 
L 119.294625 190.261877 
L 123.123194 194.818591 
L 127.130921 199.218557 
L 131.311394 203.454738 
L 135.657925 207.520356 
L 140.163561 211.408907 
L 144.821093 215.11417 
L 149.62307 218.630218 
L 154.561811 221.951425 
L 159.629415 225.072479 
L 164.817773 227.988387 
L 170.118587 230.694482 
L 175.523375 233.186438 
L 181.023492 235.460266 
L 186.610139 237.512329 
L 192.274377 239.339345 
L 198.007146 240.93839 
L 203.799273 242.306906 
L 209.641494 243.442704 
L 215.524461 244.343968 
L 221.438764 245.009254 
L 227.37494 245.437499 
L 233.323493 245.628018 
L 236.16 245.635068 
L 230.208896 245.712163 
L 224.265635 246.027176 
L 218.339726 246.579605 
L 212.440648 247.368565 
L 206.577838 248.392794 
L 203.963394 248.928 
L 198.119895 247.798793 
L 192.235915 246.904167 
L 186.320866 246.245552 
L 180.38421 245.824004 
L 174.435446 245.640196 
L 168.48409 245.694421 
L 162.539663 245.986594 
L 156.611674 246.516248 
L 150.709608 247.282533 
L 144.842906 248.284226 
L 141.667068 248.928 
L 135.82357 247.798793 
L 129.939589 246.904167 
L 124.02454 246.245552 
L 118.087885 245.824004 
L 112.139121 245.640196 
L 106.187764 245.694421 
L 100.243337 245.986594 
L 94.315349 246.516248 
L 88.413282 247.282533 
L 87.36 247.444623 
L 93.256427 248.253158 
L 99.18047 248.825253 
L 100.616333 248.928 
L 106.545633 248.413242 
L 112.449606 247.661788 
L 118.318807 246.674838 
L 124.143845 245.453973 
L 129.915402 244.001145 
L 135.624245 242.318678 
L 141.26124 240.409264 
L 146.817371 238.275958 
L 152.283747 235.922172 
L 157.651625 233.351672 
L 162.912416 230.568571 
L 168.057705 227.57732 
L 173.079261 224.382705 
L 177.969049 220.989837 
L 182.719247 217.404143 
L 187.322256 213.631361 
L 191.770712 209.677524 
L 196.057498 205.54896 
L 200.175757 201.252273 
L 204.1189 196.794335 
L 207.880619 192.18228 
L 211.454896 187.423486 
L 214.836013 182.525565 
L 218.018561 177.496354 
L 220.997448 172.343897 
L 223.76791 167.076438 
L 226.325513 161.702403 
L 228.666166 156.23039 
L 230.786124 150.669153 
L 232.681997 145.027589 
L 234.350751 139.314723 
L 235.789716 133.539694 
L 236.16 131.871743 
L 234.787439 126.080573 
L 233.18439 120.348922 
L 231.353419 114.685962 
L 229.297455 109.10075 
L 227.019786 103.602222 
L 225.445181 100.128 
L 223.02732 105.566339 
L 220.82887 111.097017 
L 218.853346 116.711185 
L 217.103909 122.399863 
L 215.583358 128.153949 
L 214.294125 133.964238 
L 213.238273 139.821435 
L 212.417491 145.716169 
L 211.833092 151.639012 
L 211.486011 157.580486 
L 211.376804 163.531087 
L 211.505644 169.481295 
L 211.872326 175.421592 
L 212.476263 181.342474 
L 213.316489 187.234468 
L 214.39166 193.08815 
L 215.700056 198.894154 
L 217.239584 204.643192 
L 219.00778 210.326066 
L 221.001817 215.933686 
L 223.218503 221.45708 
L 225.654293 226.887412 
L 228.30529 232.215995 
L 231.167253 237.434304 
L 234.235603 242.533991 
L 236.16 245.512878 
L 233.962154 248.928 
L 230.709551 243.94381 
L 227.260235 239.093675 
L 223.619725 234.385357 
L 219.793844 229.826386 
L 215.788713 225.424056 
L 211.61074 221.18541 
L 207.266608 217.117229 
L 202.763267 213.226021 
L 198.107921 209.518011 
L 193.308018 205.999131 
L 188.371237 202.675011 
L 187.034558 201.823361 
L 187.034558 201.823361 
" style="fill:none;stroke:#1f77b4;stroke-linecap:square;stroke-width:1.5;"/>
   </g>
   <g id="patch_5">
    <path d="M 57.6 263.808 
L 57.6 85.248 
" style="fill:none;stroke:#000000;stroke-linecap:square;stroke-linejoin:miter;stroke-width:0.8;"/>
   </g>
   <g id="patch_6">
    <path d="M 414.72 263.808 
L 414.72 85.248 
" style="fill:none;stroke:#000000;stroke-linecap:square;stroke-linejoin:miter;stroke-width:0.8;"/>
   </g>
   <g id="patch_7">
    <path d="M 57.6 263.808 
L 414.72 263.808 
" style="fill:none;stroke:#000000;stroke-linecap:square;stroke-linejoin:miter;stroke-width:0.8;"/>
   </g>
   <g id="patch_8">
    <path d="M 57.6 85.248 
L 414.72 85.248 
" style="fill:none;stroke:#000000;stroke-linecap:square;stroke-linejoin:miter;stroke-width:0.8;"/>
   </g>
  </g>
 </g>
 <defs>
  <clipPath id="p23435abc02">
   <rect height="178.56" width="357.12" x="57.6" y="85.248"/>
  </clipPath>
 </defs>
</svg>
