<?xml version="1.0" encoding="utf-8" standalone="no"?>
<!DOCTYPE svg PUBLIC "-//W3C//DTD SVG 1.1//EN"
  "http://www.w3.org/Graphics/SVG/1.1/DTD/svg11.dtd">
<!-- Created with matplotlib (https://matplotlib.org/) -->
<svg height="345.6pt" version="1.1" viewBox="0 0 460.8 345.6" width="460.8pt" xmlns="http://www.w3.org/2000/svg" xmlns:xlink="http://www.w3.org/1999/xlink">
 <defs>
  <style type="text/css">
*{stroke-linecap:butt;stroke-linejoin:round;}
  </style>
 </defs>
 <g id="figure_1">
  <g id="patch_1">
   <path d="M 0 345.6 
L 460.8 345.6 
L 460.8 0 
L 0 0 
z
" style="fill:#ffffff;"/>
  </g>
  <g id="axes_1">
   <g id="patch_2">
    <path d="M 57.6 263.808 
L 414.72 263.808 
L 414.72 85.248 
L 57.6 85.248 
z
" style="fill:#ffffff;"/>
   </g>
   <g id="PathCollection_1">
    <defs>
     <path d="M 0 3 
C 0.795609 3 1.55874 2.683901 2.12132 2.12132 
C 2.683901 1.55874 3 0.795609 3 0 
C 3 -0.795609 2.683901 -1.55874 2.12132 -2.12132 
C 1.55874 -2.683901 0.795609 -3 0 -3 
C -0.795609 -3 -1.55874 -2.683901 -2.12132 -2.12132 
C -2.683901 -1.55874 -3 -0.795609 -3 0 
C -3 0.795609 -2.683901 1.55874 -2.12132 2.12132 
C -1.55874 2.683901 -0.795609 3 0 3 
z
" id="m68c2286054" style="stroke:#000000;"/>
    </defs>
    <g clip-path="url(#pbe1973134c)">
     <use style="stroke:#000000;" x="93.69417" xlink:href="#m68c2286054" y="165.199173"/>
    </g>
   </g>
   <g id="patch_3">
    <path clip-path="url(#pbe1973134c)" d="M 161.76 211.728 
C 171.625555 211.728 181.088371 207.808373 188.064372 200.832372 
C 195.040373 193.856371 198.96 184.393555 198.96 174.528 
C 198.96 164.662445 195.040373 155.199629 188.064372 148.223628 
C 181.088371 141.247627 171.625555 137.328 161.76 137.328 
C 151.894445 137.328 142.431629 141.247627 135.455628 148.223628 
C 128.479627 155.199629 124.56 164.662445 124.56 174.528 
C 124.56 184.393555 128.479627 193.856371 135.455628 200.832372 
C 142.431629 207.808373 151.894445 211.728 161.76 211.728 
z
" style="fill:#cc0000;fill-opacity:0.1;stroke:#cc0000;stroke-dasharray:7.4,3.2;stroke-dashoffset:0;stroke-linejoin:miter;stroke-width:2;"/>
   </g>
   <g id="patch_4">
    <path clip-path="url(#pbe1973134c)" d="M 310.56 196.848 
C 316.479333 196.848 322.157023 194.496224 326.342623 190.310623 
C 330.528224 186.125023 332.88 180.447333 332.88 174.528 
C 332.88 168.608667 330.528224 162.930977 326.342623 158.745377 
C 322.157023 154.559776 316.479333 152.208 310.56 152.208 
C 304.640667 152.208 298.962977 154.559776 294.777377 158.745377 
C 290.591776 162.930977 288.24 168.608667 288.24 174.528 
C 288.24 180.447333 290.591776 186.125023 294.777377 190.310623 
C 298.962977 194.496224 304.640667 196.848 310.56 196.848 
z
" style="fill:#cc0000;fill-opacity:0.1;stroke:#cc0000;stroke-dasharray:7.4,3.2;stroke-dashoffset:0;stroke-linejoin:miter;stroke-width:2;"/>
   </g>
   <g id="matplotlib.axis_1">
    <g id="xtick_1">
     <g id="line2d_1">
      <defs>
       <path d="M 0 0 
L 0 3.5 
" id="m8204223f1d" style="stroke:#000000;stroke-width:0.8;"/>
      </defs>
      <g>
       <use style="stroke:#000000;stroke-width:0.8;" x="87.36" xlink:href="#m8204223f1d" y="263.808"/>
      </g>
     </g>
     <g id="text_1">
      <!-- 0.0 -->
      <defs>
       <path d="M 31.78125 66.40625 
Q 24.171875 66.40625 20.328125 58.90625 
Q 16.5 51.421875 16.5 36.375 
Q 16.5 21.390625 20.328125 13.890625 
Q 24.171875 6.390625 31.78125 6.390625 
Q 39.453125 6.390625 43.28125 13.890625 
Q 47.125 21.390625 47.125 36.375 
Q 47.125 51.421875 43.28125 58.90625 
Q 39.453125 66.40625 31.78125 66.40625 
z
M 31.78125 74.21875 
Q 44.046875 74.21875 50.515625 64.515625 
Q 56.984375 54.828125 56.984375 36.375 
Q 56.984375 17.96875 50.515625 8.265625 
Q 44.046875 -1.421875 31.78125 -1.421875 
Q 19.53125 -1.421875 13.0625 8.265625 
Q 6.59375 17.96875 6.59375 36.375 
Q 6.59375 54.828125 13.0625 64.515625 
Q 19.53125 74.21875 31.78125 74.21875 
z
" id="DejaVuSans-48"/>
       <path d="M 10.6875 12.40625 
L 21 12.40625 
L 21 0 
L 10.6875 0 
z
" id="DejaVuSans-46"/>
      </defs>
      <g transform="translate(79.408438 278.406437)scale(0.1 -0.1)">
       <use xlink:href="#DejaVuSans-48"/>
       <use x="63.623047" xlink:href="#DejaVuSans-46"/>
       <use x="95.410156" xlink:href="#DejaVuSans-48"/>
      </g>
     </g>
    </g>
    <g id="xtick_2">
     <g id="line2d_2">
      <g>
       <use style="stroke:#000000;stroke-width:0.8;" x="161.76" xlink:href="#m8204223f1d" y="263.808"/>
      </g>
     </g>
     <g id="text_2">
      <!-- 0.5 -->
      <defs>
       <path d="M 10.796875 72.90625 
L 49.515625 72.90625 
L 49.515625 64.59375 
L 19.828125 64.59375 
L 19.828125 46.734375 
Q 21.96875 47.46875 24.109375 47.828125 
Q 26.265625 48.1875 28.421875 48.1875 
Q 40.625 48.1875 47.75 41.5 
Q 54.890625 34.8125 54.890625 23.390625 
Q 54.890625 11.625 47.5625 5.09375 
Q 40.234375 -1.421875 26.90625 -1.421875 
Q 22.3125 -1.421875 17.546875 -0.640625 
Q 12.796875 0.140625 7.71875 1.703125 
L 7.71875 11.625 
Q 12.109375 9.234375 16.796875 8.0625 
Q 21.484375 6.890625 26.703125 6.890625 
Q 35.15625 6.890625 40.078125 11.328125 
Q 45.015625 15.765625 45.015625 23.390625 
Q 45.015625 31 40.078125 35.4375 
Q 35.15625 39.890625 26.703125 39.890625 
Q 22.75 39.890625 18.8125 39.015625 
Q 14.890625 38.140625 10.796875 36.28125 
z
" id="DejaVuSans-53"/>
      </defs>
      <g transform="translate(153.808437 278.406437)scale(0.1 -0.1)">
       <use xlink:href="#DejaVuSans-48"/>
       <use x="63.623047" xlink:href="#DejaVuSans-46"/>
       <use x="95.410156" xlink:href="#DejaVuSans-53"/>
      </g>
     </g>
    </g>
    <g id="xtick_3">
     <g id="line2d_3">
      <g>
       <use style="stroke:#000000;stroke-width:0.8;" x="236.16" xlink:href="#m8204223f1d" y="263.808"/>
      </g>
     </g>
     <g id="text_3">
      <!-- 1.0 -->
      <defs>
       <path d="M 12.40625 8.296875 
L 28.515625 8.296875 
L 28.515625 63.921875 
L 10.984375 60.40625 
L 10.984375 69.390625 
L 28.421875 72.90625 
L 38.28125 72.90625 
L 38.28125 8.296875 
L 54.390625 8.296875 
L 54.390625 0 
L 12.40625 0 
z
" id="DejaVuSans-49"/>
      </defs>
      <g transform="translate(228.208437 278.406437)scale(0.1 -0.1)">
       <use xlink:href="#DejaVuSans-49"/>
       <use x="63.623047" xlink:href="#DejaVuSans-46"/>
       <use x="95.410156" xlink:href="#DejaVuSans-48"/>
      </g>
     </g>
    </g>
    <g id="xtick_4">
     <g id="line2d_4">
      <g>
       <use style="stroke:#000000;stroke-width:0.8;" x="310.56" xlink:href="#m8204223f1d" y="263.808"/>
      </g>
     </g>
     <g id="text_4">
      <!-- 1.5 -->
      <g transform="translate(302.608437 278.406437)scale(0.1 -0.1)">
       <use xlink:href="#DejaVuSans-49"/>
       <use x="63.623047" xlink:href="#DejaVuSans-46"/>
       <use x="95.410156" xlink:href="#DejaVuSans-53"/>
      </g>
     </g>
    </g>
    <g id="xtick_5">
     <g id="line2d_5">
      <g>
       <use style="stroke:#000000;stroke-width:0.8;" x="384.96" xlink:href="#m8204223f1d" y="263.808"/>
      </g>
     </g>
     <g id="text_5">
      <!-- 2.0 -->
      <defs>
       <path d="M 19.1875 8.296875 
L 53.609375 8.296875 
L 53.609375 0 
L 7.328125 0 
L 7.328125 8.296875 
Q 12.9375 14.109375 22.625 23.890625 
Q 32.328125 33.6875 34.8125 36.53125 
Q 39.546875 41.84375 41.421875 45.53125 
Q 43.3125 49.21875 43.3125 52.78125 
Q 43.3125 58.59375 39.234375 62.25 
Q 35.15625 65.921875 28.609375 65.921875 
Q 23.96875 65.921875 18.8125 64.3125 
Q 13.671875 62.703125 7.8125 59.421875 
L 7.8125 69.390625 
Q 13.765625 71.78125 18.9375 73 
Q 24.125 74.21875 28.421875 74.21875 
Q 39.75 74.21875 46.484375 68.546875 
Q 53.21875 62.890625 53.21875 53.421875 
Q 53.21875 48.921875 51.53125 44.890625 
Q 49.859375 40.875 45.40625 35.40625 
Q 44.1875 33.984375 37.640625 27.21875 
Q 31.109375 20.453125 19.1875 8.296875 
z
" id="DejaVuSans-50"/>
      </defs>
      <g transform="translate(377.008437 278.406437)scale(0.1 -0.1)">
       <use xlink:href="#DejaVuSans-50"/>
       <use x="63.623047" xlink:href="#DejaVuSans-46"/>
       <use x="95.410156" xlink:href="#DejaVuSans-48"/>
      </g>
     </g>
    </g>
   </g>
   <g id="matplotlib.axis_2">
    <g id="ytick_1">
     <g id="line2d_6">
      <defs>
       <path d="M 0 0 
L -3.5 0 
" id="m50aa3ba896" style="stroke:#000000;stroke-width:0.8;"/>
      </defs>
      <g>
       <use style="stroke:#000000;stroke-width:0.8;" x="57.6" xlink:href="#m50aa3ba896" y="248.928"/>
      </g>
     </g>
     <g id="text_6">
      <!-- 0.0 -->
      <g transform="translate(34.696875 252.727219)scale(0.1 -0.1)">
       <use xlink:href="#DejaVuSans-48"/>
       <use x="63.623047" xlink:href="#DejaVuSans-46"/>
       <use x="95.410156" xlink:href="#DejaVuSans-48"/>
      </g>
     </g>
    </g>
    <g id="ytick_2">
     <g id="line2d_7">
      <g>
       <use style="stroke:#000000;stroke-width:0.8;" x="57.6" xlink:href="#m50aa3ba896" y="219.168"/>
      </g>
     </g>
     <g id="text_7">
      <!-- 0.2 -->
      <g transform="translate(34.696875 222.967219)scale(0.1 -0.1)">
       <use xlink:href="#DejaVuSans-48"/>
       <use x="63.623047" xlink:href="#DejaVuSans-46"/>
       <use x="95.410156" xlink:href="#DejaVuSans-50"/>
      </g>
     </g>
    </g>
    <g id="ytick_3">
     <g id="line2d_8">
      <g>
       <use style="stroke:#000000;stroke-width:0.8;" x="57.6" xlink:href="#m50aa3ba896" y="189.408"/>
      </g>
     </g>
     <g id="text_8">
      <!-- 0.4 -->
      <defs>
       <path d="M 37.796875 64.3125 
L 12.890625 25.390625 
L 37.796875 25.390625 
z
M 35.203125 72.90625 
L 47.609375 72.90625 
L 47.609375 25.390625 
L 58.015625 25.390625 
L 58.015625 17.1875 
L 47.609375 17.1875 
L 47.609375 0 
L 37.796875 0 
L 37.796875 17.1875 
L 4.890625 17.1875 
L 4.890625 26.703125 
z
" id="DejaVuSans-52"/>
      </defs>
      <g transform="translate(34.696875 193.207219)scale(0.1 -0.1)">
       <use xlink:href="#DejaVuSans-48"/>
       <use x="63.623047" xlink:href="#DejaVuSans-46"/>
       <use x="95.410156" xlink:href="#DejaVuSans-52"/>
      </g>
     </g>
    </g>
    <g id="ytick_4">
     <g id="line2d_9">
      <g>
       <use style="stroke:#000000;stroke-width:0.8;" x="57.6" xlink:href="#m50aa3ba896" y="159.648"/>
      </g>
     </g>
     <g id="text_9">
      <!-- 0.6 -->
      <defs>
       <path d="M 33.015625 40.375 
Q 26.375 40.375 22.484375 35.828125 
Q 18.609375 31.296875 18.609375 23.390625 
Q 18.609375 15.53125 22.484375 10.953125 
Q 26.375 6.390625 33.015625 6.390625 
Q 39.65625 6.390625 43.53125 10.953125 
Q 47.40625 15.53125 47.40625 23.390625 
Q 47.40625 31.296875 43.53125 35.828125 
Q 39.65625 40.375 33.015625 40.375 
z
M 52.59375 71.296875 
L 52.59375 62.3125 
Q 48.875 64.0625 45.09375 64.984375 
Q 41.3125 65.921875 37.59375 65.921875 
Q 27.828125 65.921875 22.671875 59.328125 
Q 17.53125 52.734375 16.796875 39.40625 
Q 19.671875 43.65625 24.015625 45.921875 
Q 28.375 48.1875 33.59375 48.1875 
Q 44.578125 48.1875 50.953125 41.515625 
Q 57.328125 34.859375 57.328125 23.390625 
Q 57.328125 12.15625 50.6875 5.359375 
Q 44.046875 -1.421875 33.015625 -1.421875 
Q 20.359375 -1.421875 13.671875 8.265625 
Q 6.984375 17.96875 6.984375 36.375 
Q 6.984375 53.65625 15.1875 63.9375 
Q 23.390625 74.21875 37.203125 74.21875 
Q 40.921875 74.21875 44.703125 73.484375 
Q 48.484375 72.75 52.59375 71.296875 
z
" id="DejaVuSans-54"/>
      </defs>
      <g transform="translate(34.696875 163.447219)scale(0.1 -0.1)">
       <use xlink:href="#DejaVuSans-48"/>
       <use x="63.623047" xlink:href="#DejaVuSans-46"/>
       <use x="95.410156" xlink:href="#DejaVuSans-54"/>
      </g>
     </g>
    </g>
    <g id="ytick_5">
     <g id="line2d_10">
      <g>
       <use style="stroke:#000000;stroke-width:0.8;" x="57.6" xlink:href="#m50aa3ba896" y="129.888"/>
      </g>
     </g>
     <g id="text_10">
      <!-- 0.8 -->
      <defs>
       <path d="M 31.78125 34.625 
Q 24.75 34.625 20.71875 30.859375 
Q 16.703125 27.09375 16.703125 20.515625 
Q 16.703125 13.921875 20.71875 10.15625 
Q 24.75 6.390625 31.78125 6.390625 
Q 38.8125 6.390625 42.859375 10.171875 
Q 46.921875 13.96875 46.921875 20.515625 
Q 46.921875 27.09375 42.890625 30.859375 
Q 38.875 34.625 31.78125 34.625 
z
M 21.921875 38.8125 
Q 15.578125 40.375 12.03125 44.71875 
Q 8.5 49.078125 8.5 55.328125 
Q 8.5 64.0625 14.71875 69.140625 
Q 20.953125 74.21875 31.78125 74.21875 
Q 42.671875 74.21875 48.875 69.140625 
Q 55.078125 64.0625 55.078125 55.328125 
Q 55.078125 49.078125 51.53125 44.71875 
Q 48 40.375 41.703125 38.8125 
Q 48.828125 37.15625 52.796875 32.3125 
Q 56.78125 27.484375 56.78125 20.515625 
Q 56.78125 9.90625 50.3125 4.234375 
Q 43.84375 -1.421875 31.78125 -1.421875 
Q 19.734375 -1.421875 13.25 4.234375 
Q 6.78125 9.90625 6.78125 20.515625 
Q 6.78125 27.484375 10.78125 32.3125 
Q 14.796875 37.15625 21.921875 38.8125 
z
M 18.3125 54.390625 
Q 18.3125 48.734375 21.84375 45.5625 
Q 25.390625 42.390625 31.78125 42.390625 
Q 38.140625 42.390625 41.71875 45.5625 
Q 45.3125 48.734375 45.3125 54.390625 
Q 45.3125 60.0625 41.71875 63.234375 
Q 38.140625 66.40625 31.78125 66.40625 
Q 25.390625 66.40625 21.84375 63.234375 
Q 18.3125 60.0625 18.3125 54.390625 
z
" id="DejaVuSans-56"/>
      </defs>
      <g transform="translate(34.696875 133.687219)scale(0.1 -0.1)">
       <use xlink:href="#DejaVuSans-48"/>
       <use x="63.623047" xlink:href="#DejaVuSans-46"/>
       <use x="95.410156" xlink:href="#DejaVuSans-56"/>
      </g>
     </g>
    </g>
    <g id="ytick_6">
     <g id="line2d_11">
      <g>
       <use style="stroke:#000000;stroke-width:0.8;" x="57.6" xlink:href="#m50aa3ba896" y="100.128"/>
      </g>
     </g>
     <g id="text_11">
      <!-- 1.0 -->
      <g transform="translate(34.696875 103.927219)scale(0.1 -0.1)">
       <use xlink:href="#DejaVuSans-49"/>
       <use x="63.623047" xlink:href="#DejaVuSans-46"/>
       <use x="95.410156" xlink:href="#DejaVuSans-48"/>
      </g>
     </g>
    </g>
   </g>
   <g id="line2d_12">
    <path clip-path="url(#pbe1973134c)" d="M 236.16 248.928 
L 236.16 100.128 
" style="fill:none;stroke:#cc0000;stroke-dasharray:7.4,3.2;stroke-dashoffset:0;stroke-width:2;"/>
   </g>
   <g id="line2d_13">
    <path clip-path="url(#pbe1973134c)" d="M 87.36 248.928 
L 384.96 248.928 
" style="fill:none;stroke:#009900;stroke-linecap:square;stroke-width:2;"/>
   </g>
   <g id="line2d_14">
    <path clip-path="url(#pbe1973134c)" d="M 384.96 248.928 
L 384.96 100.128 
" style="fill:none;stroke:#009900;stroke-linecap:square;stroke-width:2;"/>
   </g>
   <g id="line2d_15">
    <path clip-path="url(#pbe1973134c)" d="M 384.96 100.128 
L 87.36 100.128 
" style="fill:none;stroke:#009900;stroke-linecap:square;stroke-width:2;"/>
   </g>
   <g id="line2d_16">
    <path clip-path="url(#pbe1973134c)" d="M 87.36 100.128 
L 87.36 248.928 
" style="fill:none;stroke:#009900;stroke-linecap:square;stroke-width:2;"/>
   </g>
   <g id="line2d_17">
    <path clip-path="url(#pbe1973134c)" d="M 93.69417 165.199173 
L 90.504642 170.223961 
L 87.36 175.659529 
L 90.334678 180.814417 
L 93.513118 185.846226 
L 96.890234 190.746907 
L 100.460623 195.508619 
L 104.218574 200.123744 
L 108.158075 204.5849 
L 112.272824 208.88495 
L 116.556237 213.017014 
L 121.001462 216.974482 
L 125.601388 220.751022 
L 130.348657 224.340594 
L 135.235672 227.737455 
L 140.254616 230.936169 
L 145.397461 233.931621 
L 150.655978 236.719018 
L 156.021754 239.293901 
L 161.486207 241.652151 
L 167.040593 243.789994 
L 172.676027 245.704011 
L 178.383494 247.391139 
L 184.498478 248.928 
L 190.272294 247.484176 
L 195.983755 245.810616 
L 201.623722 243.909997 
L 207.183173 241.78536 
L 212.653214 239.440104 
L 218.025095 236.87798 
L 223.290221 234.103088 
L 228.44017 231.119867 
L 233.466702 227.933088 
L 236.16 226.106377 
L 231.204362 222.810434 
L 226.120886 219.715301 
L 220.917704 216.825928 
L 215.60314 214.146938 
L 210.185696 211.682617 
L 204.674038 209.436907 
L 199.076985 207.413401 
L 193.40349 205.615335 
L 187.662631 204.045588 
L 185.168369 203.439733 
L 185.406713 209.386561 
L 185.882676 215.319102 
L 186.595496 221.227864 
L 187.544034 227.103394 
L 188.726772 232.936293 
L 190.141818 238.71723 
L 191.786907 244.436956 
L 193.254958 248.928 
L 195.080815 243.263388 
L 196.678688 237.530293 
L 198.046021 231.737886 
L 199.180625 225.895433 
L 200.080685 220.012281 
L 200.744763 214.097843 
L 201.171794 208.161579 
L 201.361097 202.212987 
L 201.312368 196.261584 
L 201.025686 190.316889 
L 200.501508 184.388414 
L 199.740674 178.485642 
L 198.951393 173.727817 
L 199.649552 167.817304 
L 200.110794 161.883601 
L 200.334383 155.936199 
L 200.319961 149.984614 
L 200.06755 144.038365 
L 199.577555 138.106967 
L 198.850758 132.199908 
L 197.888324 126.326638 
L 196.691792 120.496553 
L 195.263075 114.71898 
L 193.60446 109.003162 
L 191.7186 103.358243 
L 190.524822 100.128 
L 188.508832 105.727765 
L 186.718385 111.403668 
L 185.156346 117.14663 
L 183.825213 122.947464 
L 182.727117 128.796888 
L 181.863814 134.685546 
L 181.236685 140.604016 
L 181.069516 142.732047 
L 186.078614 139.517936 
L 190.955175 136.106084 
L 195.691398 132.501952 
L 200.279706 128.711303 
L 204.712758 124.740204 
L 208.983463 120.595006 
L 213.084987 116.282342 
L 217.01077 111.809109 
L 220.754532 107.182466 
L 224.310282 102.409813 
L 225.908311 100.128 
L 229.374091 104.966383 
L 233.030583 109.662301 
L 236.16 113.393156 
L 232.35181 117.966916 
L 228.729568 122.689303 
L 225.299069 127.552764 
L 222.0658 132.549519 
L 219.034935 137.671572 
L 216.211321 142.910731 
L 213.599476 148.258614 
L 211.203579 153.706665 
L 209.027462 159.246168 
L 207.074607 164.868262 
L 205.348138 170.563952 
L 203.850816 176.324126 
L 202.585038 182.13957 
L 201.552828 188.00098 
L 200.755838 193.898978 
L 200.195342 199.82413 
L 199.872237 205.766956 
L 199.787041 211.71795 
L 199.939889 217.66759 
L 200.330536 223.606359 
L 200.958359 229.524755 
L 201.822352 235.413312 
L 202.921134 241.262607 
L 204.252946 247.063285 
L 204.733369 248.928 
L 206.140134 243.145043 
L 207.314517 237.310456 
L 208.25464 231.433573 
L 208.958998 225.523797 
L 209.426464 219.59058 
L 209.656292 213.643416 
L 209.648112 207.691819 
L 209.401938 201.745309 
L 208.918165 195.8134 
L 208.197565 189.905582 
L 207.241292 184.031305 
L 206.050875 178.199968 
L 204.62822 172.4209 
L 202.975601 166.703345 
L 201.095663 161.056451 
L 198.991413 155.489251 
L 196.666218 150.010652 
L 194.123797 144.629419 
L 191.368218 139.354159 
L 188.403889 134.193313 
L 185.235552 129.155136 
L 181.868276 124.247689 
L 178.307448 119.478823 
L 174.558765 114.856166 
L 170.628223 110.387115 
L 166.522111 106.078818 
L 162.246997 101.938168 
L 160.266145 100.128 
L 155.917059 104.190885 
L 151.733925 108.424438 
L 147.723433 112.821884 
L 143.892 117.37619 
L 140.245756 122.08007 
L 136.790533 126.925998 
L 133.53186 131.906222 
L 130.474949 137.012774 
L 127.624691 142.237485 
L 124.985645 147.571997 
L 122.562034 153.007776 
L 120.357735 158.536125 
L 118.376274 164.148201 
L 116.620821 169.835025 
L 115.094185 175.587499 
L 113.798807 181.396421 
L 112.736761 187.252499 
L 111.909744 193.146362 
L 111.319081 199.068582 
L 110.965716 205.009686 
L 110.850214 210.960169 
L 110.972761 216.91051 
L 111.33316 222.851191 
L 111.930834 228.772708 
L 112.764828 234.665588 
L 113.833807 240.520404 
L 115.136061 246.327788 
L 115.798921 248.928 
L 117.205686 243.145043 
L 118.380069 237.310456 
L 119.320192 231.433573 
L 120.02455 225.523797 
L 120.492016 219.59058 
L 120.721844 213.643416 
L 120.713664 207.691819 
L 120.46749 201.745309 
L 119.983717 195.8134 
L 119.263117 189.905582 
L 118.306844 184.031305 
L 117.116427 178.199968 
L 115.693772 172.4209 
L 114.041153 166.703345 
L 112.161215 161.056451 
L 110.056965 155.489251 
L 107.73177 150.010652 
L 105.189349 144.629419 
L 102.433769 139.354159 
L 99.46944 134.193313 
L 96.301104 129.155136 
L 92.933828 124.247689 
L 89.373 119.478823 
L 87.36 116.949614 
L 91.023579 112.259223 
L 94.496663 107.42608 
L 97.773694 102.457916 
L 99.214688 100.128 
L 102.3997 105.155652 
L 105.783216 110.051915 
L 109.359825 114.808957 
L 113.123804 119.419168 
L 117.069131 123.875173 
L 121.189495 128.169842 
L 125.478304 132.296305 
L 129.928697 136.247961 
L 134.533554 140.018487 
L 139.285508 143.601853 
L 140.16836 144.235409 
L 143.229036 147.484036 
L 146.089405 150.910347 
L 148.739171 154.502012 
L 151.168799 158.246105 
L 153.369543 162.12915 
L 155.333485 166.137174 
L 157.053555 170.255751 
L 158.523564 174.470059 
L 159.73822 178.764931 
L 160.693153 183.124911 
L 161.384926 187.534306 
L 161.81105 191.977249 
L 161.969989 196.437748 
L 161.861174 200.899752 
L 161.484994 205.347202 
L 160.842805 209.764091 
L 160.474081 211.705768 
L 158.44828 217.30199 
L 156.647888 222.974747 
L 155.075786 228.714963 
L 153.734489 234.513454 
L 152.626142 240.360945 
L 151.75252 246.248081 
L 151.43413 248.928 
L 150.667421 243.025989 
L 149.665308 237.159358 
L 148.429393 231.337495 
L 146.961655 225.569711 
L 145.264441 219.865235 
L 143.340467 214.233193 
L 141.192809 208.682594 
L 139.239606 204.136645 
L 133.33989 203.352468 
L 127.413535 202.804843 
L 121.470021 202.494647 
L 115.518857 202.422377 
L 109.569562 202.588148 
L 103.631656 202.991694 
L 97.714637 203.632371 
L 91.827971 204.509152 
L 87.36 205.336624 
L 93.21715 206.392739 
L 99.111848 207.213786 
L 105.034663 207.79845 
L 110.976122 208.145798 
L 116.926718 208.255273 
L 122.876933 208.126699 
L 128.817246 207.760284 
L 134.738155 207.156612 
L 140.630187 206.31665 
L 142.051084 206.077939 
L 143.82557 211.758853 
L 145.825812 217.364262 
L 148.048611 222.885199 
L 150.490411 228.312831 
L 153.147305 233.638476 
L 156.015042 238.853614 
L 159.089036 243.949902 
L 162.370434 248.928 
L 165.646123 243.958952 
L 168.720484 238.862885 
L 171.588596 233.647954 
L 174.245873 228.3225 
L 176.688063 222.895043 
L 178.911259 217.374266 
L 180.911904 211.769 
L 182.686798 206.088214 
L 182.974235 205.08608 
L 188.914662 205.450641 
L 194.864916 205.577357 
L 200.815478 205.466025 
L 206.756828 205.116823 
L 212.679461 204.530309 
L 218.573902 203.707423 
L 224.430722 202.64948 
L 230.24055 201.358173 
L 237.63293 199.576763 
L 244.980728 198.41032 
L 252.297071 197.060565 
L 259.577388 195.528343 
L 266.817128 193.814611 
L 274.011767 191.920439 
L 281.156808 189.847012 
L 288.247787 187.595626 
L 291.681186 186.434837 
L 297.097423 183.967865 
L 302.607981 181.719458 
L 308.204043 179.693213 
L 313.876657 177.892371 
L 319.616748 176.319814 
L 325.415133 174.978057 
L 331.262536 173.869247 
L 332.861034 173.608072 
L 340.002191 171.521303 
L 347.088952 169.256676 
L 354.116888 166.815606 
L 361.081608 164.199618 
L 367.978759 161.410349 
L 374.80403 158.44954 
L 381.553156 155.319042 
L 384.96 153.660017 
L 378.251281 150.443839 
L 371.464262 147.396366 
L 364.603185 144.519503 
L 357.672338 141.815048 
L 350.676052 139.284691 
L 343.618701 136.930014 
L 336.504693 134.752488 
L 329.338477 132.753475 
L 322.124529 130.934222 
L 314.867359 129.295868 
L 307.571503 127.839437 
L 300.241519 126.565838 
L 292.881989 125.475867 
L 285.497512 124.570206 
L 278.092704 123.849421 
L 270.672192 123.313962 
L 263.240614 122.964164 
L 255.802613 122.800245 
L 248.36284 122.822308 
L 240.925943 123.030339 
L 236.16 123.261584 
L 230.260957 124.050806 
L 224.398193 125.075295 
L 218.581087 126.333412 
L 212.818945 127.823146 
L 207.120986 129.542112 
L 201.496325 131.48756 
L 195.953961 133.656379 
L 190.502759 136.045099 
L 185.151441 138.649897 
L 179.908568 141.466608 
L 179.380167 141.765679 
L 178.864022 135.836499 
L 178.111185 129.932702 
L 177.122862 124.063733 
L 175.900633 118.238981 
L 174.446453 112.467764 
L 172.76265 106.759315 
L 170.851917 101.122767 
L 170.488357 100.128 
L 168.537552 105.750806 
L 166.813161 111.447125 
L 165.317941 117.207845 
L 164.054284 123.02375 
L 163.024212 128.885536 
L 162.229373 134.783825 
L 161.869473 138.813741 
L 161.419137 143.254294 
L 160.703339 147.659853 
L 159.724653 152.014563 
L 158.486603 156.30275 
L 156.993643 160.508982 
L 155.251148 164.618122 
L 153.265387 168.61538 
L 151.043509 172.486371 
L 148.593508 176.217164 
L 145.924203 179.794332 
L 143.045199 183.205 
L 139.966859 186.436895 
L 136.700261 189.478384 
L 133.257162 192.318522 
L 130.351475 194.461503 
L 134.289984 192.361631 
L 138.347323 190.501706 
L 142.508889 188.888422 
L 146.759706 187.527585 
L 151.084474 186.424093 
L 155.467631 185.581918 
L 159.8934 185.004089 
L 164.345854 184.692687 
L 168.808969 184.648832 
L 173.266682 184.872683 
L 177.702951 185.363433 
L 182.10181 186.119316 
L 186.447427 187.137612 
L 190.724164 188.414657 
L 194.916628 189.945854 
L 195.5051 190.183933 
L 191.609919 188.00474 
L 187.85242 185.595897 
L 184.246126 182.966075 
L 180.804017 180.124737 
L 177.538479 177.08211 
L 174.461266 173.849142 
L 171.583452 170.437471 
L 168.915394 166.859373 
L 166.466694 163.127726 
L 164.246164 159.255961 
L 162.261797 155.258011 
L 160.520734 151.148264 
L 159.029241 146.941511 
L 157.792686 142.652893 
L 156.815518 138.297843 
L 156.354451 136.226209 
L 154.836649 130.471397 
L 153.08993 124.781884 
L 151.117089 119.166773 
L 148.921281 113.635045 
L 146.506019 108.195551 
L 143.875168 102.856993 
L 142.425663 100.128 
L 139.684521 105.410776 
L 137.156827 110.798943 
L 134.846624 116.283881 
L 132.757608 121.856815 
L 130.893121 127.508829 
L 129.256145 133.230883 
L 127.8493 139.01382 
L 126.674837 144.848391 
L 125.734633 150.725261 
L 125.030193 156.635028 
L 124.562645 162.568237 
L 124.332735 168.515398 
L 124.340833 174.466996 
L 124.586924 180.413509 
L 125.070616 186.345425 
L 125.791134 192.253253 
L 126.747326 198.127543 
L 127.937662 203.958896 
L 129.360238 209.737984 
L 131.012777 215.455561 
L 132.892637 221.102482 
L 134.99681 226.66971 
L 137.32193 232.148342 
L 139.864276 237.529611 
L 142.619783 242.804908 
L 145.584041 247.965795 
L 146.167561 248.928 
L 149.170763 243.789678 
L 151.966085 238.53537 
L 154.549055 233.173481 
L 156.915541 227.71259 
L 159.061756 222.161434 
L 160.984267 216.528892 
L 162.429482 211.721975 
L 163.134382 207.314659 
L 164.102293 202.957543 
L 165.329734 198.666306 
L 166.812285 194.456394 
L 168.544612 190.342957 
L 170.520479 186.3408 
L 172.732777 182.464325 
L 175.173542 178.727483 
L 177.833992 175.143725 
L 180.70455 171.725946 
L 183.774887 168.486447 
L 187.033952 165.436888 
L 190.470017 162.588243 
L 194.070714 159.950764 
L 195.546666 158.961973 
L 199.92196 154.927325 
L 204.132411 150.720939 
L 208.171284 146.349545 
L 212.032117 141.820135 
L 215.708733 137.139957 
L 219.195252 132.316497 
L 222.486095 127.357471 
L 225.575997 122.270813 
L 228.460015 117.064662 
L 231.133537 111.747344 
L 233.592283 106.327367 
L 235.832322 100.813403 
L 236.092987 100.128 
L 236.16 100.305181 
L 234.162731 105.911651 
L 232.391259 111.593505 
L 230.848418 117.341654 
L 229.536675 123.146903 
L 228.458129 128.999964 
L 227.614506 134.891473 
L 227.007156 140.812005 
L 226.637049 146.75209 
L 226.504779 152.702223 
L 226.610556 158.652886 
L 226.954212 164.594559 
L 227.535196 170.517737 
L 228.35258 176.412944 
L 229.405055 182.270749 
L 230.690938 188.081781 
L 232.208172 193.836742 
L 233.954329 199.526427 
L 235.926616 205.141733 
L 236.16 205.761771 
L 234.162731 211.36824 
L 232.391259 217.050094 
L 230.848418 222.798244 
L 229.536675 228.603492 
L 228.458129 234.456553 
L 227.614506 240.348062 
L 227.007156 246.268595 
L 226.811963 248.928 
L 226.310804 242.997535 
L 225.572891 237.091854 
L 224.599404 231.220406 
L 223.3919 225.392583 
L 221.952311 219.61771 
L 220.282941 213.905023 
L 218.386459 208.263664 
L 216.2659 202.702656 
L 213.924656 197.230896 
L 211.366473 191.857137 
L 208.595443 186.589977 
L 205.616 181.437842 
L 202.432909 176.408974 
L 198.808638 171.175626 
L 201.271332 165.757442 
L 203.515387 160.24511 
L 205.537211 154.647449 
L 207.333572 148.973415 
L 208.901596 143.232084 
L 210.238773 137.432641 
L 211.342964 131.584364 
L 212.212404 125.696609 
L 212.845701 119.778796 
L 213.241841 113.840391 
L 213.400192 107.890895 
L 213.3205 101.939825 
L 213.248926 100.128 
L 213.096723 106.077657 
L 213.182565 112.028641 
L 213.506314 117.971432 
L 214.067452 123.896523 
L 214.865082 129.794435 
L 215.897927 135.655733 
L 217.164335 141.47104 
L 218.662281 147.231052 
L 220.389368 152.926555 
L 222.342832 158.548437 
L 224.51955 164.087704 
L 226.916037 169.535495 
L 229.528462 174.883094 
L 232.352643 180.121947 
L 235.384064 185.243672 
L 236.16 186.483133 
L 233.078393 191.574821 
L 230.202865 196.785667 
L 227.538015 202.107335 
L 225.088106 207.531312 
L 222.857058 213.048921 
L 220.848441 218.651335 
L 219.065467 224.32959 
L 217.510988 230.074603 
L 216.187493 235.877184 
L 215.097097 241.728049 
L 214.241546 247.617837 
L 214.083811 248.928 
L 213.280526 243.030855 
L 212.242061 237.170551 
L 210.970076 231.356461 
L 209.466608 225.597888 
L 207.734061 219.904044 
L 205.775206 214.284038 
L 203.593179 208.74686 
L 201.191468 203.30137 
L 198.573917 197.956278 
L 195.744713 192.720136 
L 194.94842 191.331831 
L 200.851878 190.576341 
L 206.720402 189.585379 
L 212.544605 188.360532 
L 218.315167 186.903758 
L 224.022858 185.217389 
L 229.658547 183.304122 
L 235.213218 181.167017 
L 236.16 180.777037 
L 230.620167 178.60176 
L 224.997777 176.649757 
L 219.301826 174.924151 
L 213.541425 173.427702 
L 207.725789 172.162806 
L 201.864223 171.131484 
L 198.76072 170.682647 
L 194.301861 170.482902 
L 189.863004 170.016145 
L 185.460122 169.284057 
L 181.109062 168.289271 
L 176.825484 167.035369 
L 172.624802 165.526862 
L 168.522136 163.76918 
L 164.532249 161.768649 
L 160.669502 159.532468 
L 156.947797 157.068685 
L 153.380527 154.386167 
L 149.98053 151.494568 
L 146.760044 148.404296 
L 143.730657 145.126471 
L 141.971547 143.027887 
L 143.761215 147.116702 
L 145.30248 151.305475 
L 146.589796 155.579131 
L 147.61853 159.922289 
L 148.38498 164.319319 
L 148.886387 168.754396 
L 149.120947 173.211559 
L 149.087815 177.674767 
L 148.787111 182.127956 
L 148.219917 186.555101 
L 147.388275 190.940268 
L 146.295177 195.267675 
L 144.944557 199.521749 
L 143.341276 203.687179 
L 142.235132 206.192168 
L 145.113475 202.780942 
L 148.191189 199.548452 
L 151.457198 196.50633 
L 154.899748 193.665526 
L 158.506449 191.036262 
L 162.264321 188.628003 
L 166.15984 186.449413 
L 170.178986 184.508335 
L 174.307294 182.811754 
L 178.529908 181.365776 
L 182.83163 180.175605 
L 187.196978 179.245523 
L 191.610243 178.57888 
L 196.05554 178.178072 
L 198.791524 178.064416 
L 194.459895 176.98817 
L 190.200596 175.654118 
L 186.028957 174.067063 
L 181.959991 172.232715 
L 178.008341 170.157676 
L 174.18823 167.849415 
L 170.513406 165.316238 
L 166.997094 162.567262 
L 163.651949 159.612381 
L 160.49001 156.462228 
L 157.522657 153.128142 
L 154.760568 149.622121 
L 152.213685 145.956782 
L 149.891173 142.145318 
L 148.581078 139.740703 
L 149.528143 144.102399 
L 150.211959 148.513035 
L 150.630066 152.956739 
L 150.780958 157.417518 
L 150.664092 161.879318 
L 150.279889 166.326082 
L 149.629731 170.741805 
L 148.71596 175.110597 
L 147.541862 179.416734 
L 146.111663 183.644718 
L 144.430512 187.779334 
L 142.504457 191.805701 
L 140.340431 195.709329 
L 137.946222 199.476169 
L 136.367228 201.713421 
L 139.862472 198.937707 
L 143.517869 196.376577 
L 147.320264 194.039247 
L 151.255973 191.93413 
L 155.31083 190.068802 
L 159.470244 188.449976 
L 163.719244 187.083479 
L 168.042539 185.974227 
L 172.42457 185.126214 
L 176.849565 184.54249 
L 181.3016 184.225157 
L 185.764653 184.175358 
L 190.222661 184.39327 
L 194.65958 184.878111 
L 197.364138 185.306932 
L 193.330304 183.396564 
L 189.418283 181.247748 
L 185.642153 178.868219 
L 182.015504 176.26654 
L 178.551388 173.452074 
L 175.262272 170.43495 
L 172.159994 167.226027 
L 169.255718 163.836853 
L 166.559896 160.279626 
L 164.082232 156.567147 
L 161.83164 152.712779 
L 159.816222 148.730391 
L 158.043231 144.634318 
L 156.519047 140.439299 
L 155.709554 137.823339 
L 155.776725 142.286164 
L 155.576166 146.744987 
L 155.108599 151.183759 
L 154.375707 155.586507 
L 153.380127 159.937385 
L 152.125443 164.220734 
L 150.61617 168.421141 
L 148.857739 172.523486 
L 146.85648 176.513007 
L 144.619594 180.375346 
L 142.155131 184.096602 
L 139.471963 187.663383 
L 136.579744 191.062851 
L 133.488883 194.282774 
L 131.499215 196.164195 
L 135.473728 194.133291 
L 139.56287 192.34437 
L 143.751924 190.80387 
L 148.025815 189.517333 
L 152.369161 188.489392 
L 156.766331 187.723745 
L 161.201499 187.223147 
L 165.658705 186.989401 
L 170.121906 187.023347 
L 174.575041 187.324864 
L 179.002082 187.892865 
L 183.387097 188.725308 
L 187.714305 189.819196 
L 191.968132 191.170592 
L 194.534768 192.125006 
L 190.95757 189.45574 
L 187.54687 186.576775 
L 184.314942 183.498471 
L 181.273416 180.231906 
L 178.43324 176.788838 
L 175.804635 173.181657 
L 173.397061 169.423346 
L 171.219183 165.527429 
L 169.278838 161.507929 
L 167.583011 157.379311 
L 166.137803 153.156434 
L 164.948417 148.854495 
L 164.019132 144.488976 
L 163.353294 140.07559 
L 163.076279 137.351295 
L 161.770187 131.544772 
L 160.23294 125.795124 
L 158.466998 120.111549 
L 156.475186 114.503139 
L 154.26069 108.978866 
L 151.827055 103.547568 
L 150.158146 100.128 
L 147.586429 105.495295 
L 145.231404 110.961137 
L 143.096838 116.516784 
L 141.186145 122.153346 
L 139.502384 127.861807 
L 138.048247 133.633035 
L 136.826061 139.457796 
L 135.83778 145.326772 
L 135.435887 148.243384 
L 129.549822 149.124191 
L 123.703688 150.239674 
L 117.906838 151.588048 
L 112.168546 153.167155 
L 106.497991 154.97447 
L 100.904245 157.007101 
L 95.396257 159.261796 
L 89.982839 161.734948 
L 87.36 163.029105 
L 92.723764 165.608178 
L 98.186373 167.970695 
L 103.739088 170.112875 
L 109.373025 172.031293 
L 115.079173 173.722879 
L 120.848401 175.184927 
L 124.589259 176.003127 
L 129.024924 176.499308 
L 133.422854 177.260576 
L 137.767222 178.284191 
L 142.042391 179.56647 
L 146.232978 181.102799 
L 150.323899 182.887647 
L 154.300432 184.914591 
L 158.148266 187.176337 
L 161.853552 189.664744 
L 165.402956 192.370857 
L 168.783704 195.284937 
L 171.983628 198.396497 
L 174.991213 201.694338 
L 177.795633 205.166591 
L 179.358034 207.302216 
L 177.862402 203.096933 
L 176.621628 198.809533 
L 175.640176 194.455446 
L 174.921578 190.050343 
L 174.468422 185.610076 
L 174.282337 181.150627 
L 174.363993 176.688043 
L 174.713096 172.238386 
L 175.328391 167.81767 
L 176.207663 163.441805 
L 177.347746 159.126538 
L 178.744539 154.8874 
L 180.393014 150.739648 
L 182.287238 146.698208 
L 183.523412 144.35858 
L 185.635603 138.794388 
L 187.523596 133.150182 
L 189.184371 127.434991 
L 190.615271 121.657959 
L 191.814007 115.828326 
L 192.77866 109.95542 
L 193.507689 104.048636 
L 193.859816 100.128 
L 194.432343 106.052002 
L 195.241308 111.94837 
L 196.285418 117.807671 
L 197.563003 123.620533 
L 199.072018 129.377655 
L 200.810049 135.069827 
L 202.774316 140.687944 
L 204.961677 146.223017 
L 207.368632 151.666191 
L 209.991331 157.008759 
L 212.825578 162.242174 
L 215.866838 167.358062 
L 219.110247 172.348241 
L 222.550615 177.204726 
L 226.182439 181.919748 
L 229.999908 186.485765 
L 233.996916 190.895471 
L 236.16 193.140452 
L 232.071487 197.465453 
L 228.159198 201.950493 
L 224.429392 206.588394 
L 220.888036 211.371738 
L 217.540796 216.292872 
L 214.393026 221.343924 
L 211.449762 226.516813 
L 208.715713 231.803263 
L 206.195253 237.194818 
L 203.892413 242.682851 
L 201.810878 248.258584 
L 201.577903 248.928 
L 199.522951 243.342416 
L 197.246279 237.843475 
L 194.751529 232.439976 
L 192.042693 227.140562 
L 189.124103 221.953712 
L 186.000429 216.887723 
L 182.676668 211.950701 
L 178.50668 206.074294 
L 176.285211 202.203068 
L 174.299873 198.205599 
L 172.557813 194.096276 
L 171.065298 189.889885 
L 169.827701 185.601567 
L 168.849476 181.246754 
L 168.134143 176.84112 
L 167.684277 172.400519 
L 167.501497 167.940932 
L 167.58646 163.478411 
L 167.938861 159.029014 
L 168.557432 154.608755 
L 169.439946 150.233542 
L 170.583227 145.919121 
L 171.983161 141.68102 
L 172.9918 139.064121 
L 171.858611 143.381204 
L 170.468593 147.622568 
L 168.826746 151.772948 
L 166.93898 155.817409 
L 164.81209 159.741393 
L 162.453728 163.53078 
L 159.872384 167.171931 
L 157.077347 170.651742 
L 154.078676 173.95769 
L 150.887163 177.077876 
L 147.514294 180.001072 
L 143.972208 182.716757 
L 140.273652 185.215157 
L 136.431938 187.487282 
L 132.460891 189.524953 
L 128.533531 191.256472 
L 122.896122 193.164663 
L 117.339529 195.296765 
L 111.872642 197.649365 
L 106.504207 200.218701 
L 101.242812 203.000661 
L 96.096875 205.990797 
L 91.074627 209.184322 
L 87.36 211.733942 
L 92.283262 215.078053 
L 97.336314 218.222611 
L 102.511073 221.162585 
L 107.79926 223.893273 
L 113.192416 226.410305 
L 118.681912 228.709655 
L 124.258967 230.787645 
L 129.914658 232.64095 
L 135.639938 234.266605 
L 141.425647 235.662009 
L 147.262529 236.824931 
L 153.141247 237.753509 
L 159.052395 238.446259 
L 164.986518 238.902071 
L 170.934122 239.120218 
L 176.885692 239.100349 
L 182.831707 238.842496 
L 188.762655 238.347073 
L 194.669046 237.614872 
L 200.541433 236.647063 
L 206.370421 235.445196 
L 212.146684 234.011193 
L 217.860982 232.347348 
L 223.504173 230.456323 
L 229.067229 228.341143 
L 234.541251 226.005192 
L 236.16 225.26413 
L 230.714318 222.862853 
L 225.176967 220.681267 
L 219.556804 218.72286 
L 213.862822 216.990767 
L 208.104129 215.487758 
L 202.289938 214.216237 
L 196.429551 213.178239 
L 190.532342 212.375424 
L 184.607747 211.809077 
L 178.665242 211.480103 
L 172.714336 211.389029 
L 166.764548 211.536001 
L 160.825396 211.920784 
L 154.906382 212.542761 
L 149.016976 213.400939 
L 143.166598 214.493943 
L 137.364608 215.820026 
L 131.620288 217.377066 
L 125.942828 219.162572 
L 120.341311 221.173687 
L 114.824698 223.407195 
L 109.401813 225.859522 
L 104.081334 228.526744 
L 98.871771 231.404596 
L 93.781458 234.488473 
L 88.818539 237.773441 
L 87.36 238.794317 
L 92.283262 242.138428 
L 97.336314 245.282985 
L 102.511073 248.22296 
L 103.827673 248.928 
L 109.031679 246.040112 
L 114.116038 242.946429 
L 119.072616 239.6519 
L 123.893483 236.161796 
L 128.570927 232.481701 
L 133.097464 228.617502 
L 137.465855 224.57538 
L 141.669109 220.361803 
L 145.700503 215.983511 
L 149.553587 211.447508 
L 150.686157 210.041518 
L 152.892857 206.161855 
L 155.328227 202.421494 
L 157.983501 198.833899 
L 160.849123 195.411981 
L 163.914781 192.168055 
L 167.169442 189.113795 
L 170.601391 186.260193 
L 174.198278 183.61752 
L 177.947158 181.195286 
L 181.834539 179.002208 
L 185.84643 177.04618 
L 189.968394 175.334241 
L 194.185595 173.872551 
L 198.482856 172.666373 
L 198.908013 172.562013 
L 194.503132 171.842056 
L 190.149348 170.859261 
L 185.862331 169.617164 
L 181.65751 168.120235 
L 177.550017 166.373862 
L 173.554635 164.384329 
L 169.685742 162.158798 
L 165.957264 159.705277 
L 162.382617 157.032597 
L 158.974668 154.150375 
L 155.74568 151.068986 
L 152.707276 147.799519 
L 149.870389 144.35374 
L 147.24523 140.744051 
L 146.999546 140.381712 
L 147.856186 144.762064 
L 148.448622 149.185902 
L 148.77472 153.637304 
L 148.833308 158.100249 
L 148.624174 162.558678 
L 148.148071 166.996542 
L 147.406713 171.397873 
L 146.402767 175.746828 
L 145.139848 180.027757 
L 143.622499 184.225253 
L 141.856182 188.324209 
L 139.847253 192.309874 
L 137.602943 196.167903 
L 135.131329 199.884412 
L 134.87703 200.240758 
L 138.686168 197.914433 
L 142.627946 195.820705 
L 146.688181 193.967109 
L 150.852258 192.360317 
L 155.105191 191.006111 
L 159.431676 189.909364 
L 163.81614 189.074025 
L 168.242805 188.503099 
L 172.695739 188.19864 
L 177.158917 188.161746 
L 181.616276 188.392547 
L 186.051774 188.890215 
L 190.449449 189.652957 
L 194.793473 190.678029 
L 195.216007 190.79255 
L 191.710331 188.030023 
L 188.376616 185.062252 
L 185.22686 181.899919 
L 182.272397 178.554404 
L 179.523861 175.037748 
L 176.991144 171.362607 
L 174.683361 167.542207 
L 172.608817 163.590298 
L 170.774978 159.521103 
L 169.188444 155.349265 
L 167.854926 151.089799 
L 166.779221 146.758036 
L 165.965202 142.369563 
L 165.415799 137.940175 
L 165.37625 137.504187 
L 164.005107 141.75169 
L 162.381734 145.909331 
L 160.511974 149.962147 
L 158.402555 153.895552 
L 156.061069 157.695389 
L 153.495944 161.347984 
L 150.716409 164.84019 
L 147.73247 168.159441 
L 144.554865 171.29379 
L 141.195029 174.231957 
L 137.665056 176.963367 
L 133.977647 179.478191 
L 130.146076 181.767378 
L 126.18413 183.82269 
L 125.7891 184.011373 
L 130.248326 183.820007 
L 134.711003 183.896379 
L 139.16107 184.240213 
L 143.582512 184.850272 
L 147.959416 185.72436 
L 152.27603 186.859333 
L 156.516819 188.251105 
L 160.66652 189.894667 
L 164.7102 191.784104 
L 168.633305 193.912616 
L 172.421717 196.272543 
L 176.0618 198.855392 
L 179.540456 201.651868 
L 182.845164 204.651905 
L 183.159433 204.956675 
L 181.429442 200.842255 
L 179.94928 196.631502 
L 178.724276 192.33957 
L 177.758838 187.981905 
L 177.05644 183.574189 
L 176.61961 179.132287 
L 176.44992 174.672183 
L 176.547982 170.20993 
L 176.913442 165.761587 
L 177.544984 161.343163 
L 178.440336 156.970559 
L 179.596277 152.659513 
L 181.008644 148.425539 
L 182.672357 144.283875 
L 182.84883 143.883241 
L 184.106783 138.0661 
L 185.131106 132.203307 
L 185.920161 126.304241 
L 186.472685 120.378341 
L 186.787794 114.435085 
L 186.864984 108.483982 
L 186.704132 102.534553 
L 186.571327 100.128 
L 186.314132 106.074043 
L 186.294921 112.025616 
L 186.513725 117.973195 
L 186.970193 123.907268 
L 187.663596 129.81834 
L 188.592825 135.696955 
L 189.756392 141.533709 
L 191.152436 147.319263 
L 192.778724 153.044363 
L 193.358538 154.897095 
L 197.718106 158.948731 
L 202.236209 162.822788 
L 206.905619 166.513072 
L 211.718866 170.013676 
L 216.66825 173.319002 
L 221.745853 176.423762 
L 226.943551 179.322988 
L 232.25303 182.012043 
L 236.16 183.824388 
L 230.774921 186.358655 
L 225.495494 189.106241 
L 220.330164 192.06275 
L 215.287194 195.223452 
L 210.374653 198.58329 
L 205.600398 202.136891 
L 200.972069 205.878568 
L 196.497069 209.802336 
L 192.182557 213.901918 
L 188.035437 218.170755 
L 184.062341 222.602018 
L 180.269627 227.188618 
L 176.663361 231.923217 
L 173.249314 236.798241 
L 170.032946 241.805892 
L 167.019404 246.938157 
L 165.923796 248.928 
L 162.98895 243.750331 
L 159.8494 238.694166 
L 156.510169 233.767593 
L 152.976598 228.978495 
L 149.254341 224.334533 
L 145.349352 219.843137 
L 141.267879 215.511491 
L 137.016451 211.346525 
L 132.60187 207.354902 
L 128.031197 203.543008 
L 123.311745 199.916942 
L 118.451065 196.482504 
L 113.456931 193.245188 
L 108.337335 190.210174 
L 103.100465 187.382317 
L 97.7547 184.766141 
L 92.308592 182.365831 
L 87.36 180.405129 
L 92.888474 178.201141 
L 98.324389 175.777837 
L 103.65905 173.139092 
L 108.883922 170.289129 
L 113.990647 167.232506 
L 118.971054 163.974113 
L 123.817177 160.519164 
L 128.521262 156.873185 
L 129.422791 156.139284 
L 130.197114 150.238267 
L 130.734841 144.311005 
L 131.03511 138.366981 
L 131.097442 132.415704 
L 130.921736 126.466695 
L 130.508273 120.529471 
L 129.857716 114.61353 
L 128.971105 108.728337 
L 127.849857 102.883306 
L 127.236576 100.128 
L 126.004655 105.95071 
L 125.006566 111.818026 
L 124.243906 117.720562 
L 123.717894 123.648875 
L 123.429372 129.59348 
L 123.378802 135.544869 
L 123.566264 141.493519 
L 123.991459 147.429914 
L 124.653706 153.344558 
L 125.551946 159.227988 
L 126.307662 163.259826 
L 122.060879 167.429528 
L 117.984237 171.765721 
L 114.084256 176.261467 
L 110.367178 180.909575 
L 106.838947 185.702609 
L 103.505209 190.6329 
L 100.371296 195.692561 
L 97.442223 200.873498 
L 94.722675 206.167423 
L 92.217003 211.565866 
L 89.929215 217.060191 
L 87.862972 222.641608 
L 87.36 224.113246 
L 89.367796 229.715954 
L 91.598034 235.23389 
L 94.047147 240.658226 
L 96.711217 245.980285 
L 98.303858 248.928 
L 101.087078 243.667272 
L 103.6577 238.299452 
L 106.011609 232.833129 
L 108.145042 227.277047 
L 110.054583 221.640094 
L 111.73718 215.93129 
L 113.190139 210.159766 
L 114.411136 204.334755 
L 115.398219 198.465577 
L 116.149807 192.561622 
L 116.664699 186.632333 
L 116.942071 180.687196 
L 116.981478 174.735724 
L 116.782859 168.787435 
L 116.346531 162.851848 
L 115.673192 156.938457 
L 114.763918 151.056722 
L 113.620165 145.216054 
L 112.243763 139.425795 
L 110.636913 133.695209 
L 108.802186 128.033464 
L 106.742517 122.449617 
L 104.461202 116.952601 
L 101.961889 111.551211 
L 99.248577 106.254087 
L 96.325608 101.069704 
L 95.764877 100.128 
L 92.803801 105.290713 
L 90.051547 110.567708 
L 87.36 116.292544 
L 89.885475 121.681751 
L 92.624441 126.965656 
L 95.572515 132.135804 
L 98.724982 137.183926 
L 102.076799 142.101944 
L 105.622603 146.881992 
L 109.356721 151.516422 
L 113.273181 155.99782 
L 117.365715 160.319016 
L 121.627778 164.473099 
L 125.191342 167.703542 
L 119.645187 169.862649 
L 114.18981 172.241817 
L 108.833938 174.837239 
L 103.586139 177.644763 
L 98.454808 180.659896 
L 93.448156 183.877817 
L 88.574191 187.293376 
L 87.36 188.190467 
L 92.199062 191.655298 
L 97.17281 194.923847 
L 102.273287 197.990885 
L 107.492332 200.851505 
L 112.821597 203.50113 
L 118.252556 205.935522 
L 123.776521 208.150787 
L 129.384654 210.143379 
L 135.067983 211.910113 
L 140.817417 213.448161 
L 146.623758 214.755062 
L 152.477716 215.828726 
L 158.369926 216.667436 
L 164.290963 217.269849 
L 170.231354 217.635002 
L 176.181596 217.762311 
L 182.132169 217.651571 
L 188.073553 217.302961 
L 193.996245 216.717038 
L 199.890768 215.894738 
L 205.747693 214.837379 
L 211.55765 213.54665 
L 217.311345 212.024618 
L 222.999571 210.273717 
L 228.613231 208.296748 
L 234.143343 206.096874 
L 236.16 205.229984 
L 230.662942 202.948772 
L 225.079056 200.889208 
L 219.417277 199.054587 
L 213.686661 197.447845 
L 207.896376 196.071551 
L 202.055686 194.927908 
L 196.173934 194.018745 
L 193.638607 193.700751 
L 193.638607 193.700751 
" style="fill:none;stroke:#1f77b4;stroke-linecap:square;stroke-width:1.5;"/>
   </g>
   <g id="patch_5">
    <path d="M 57.6 263.808 
L 57.6 85.248 
" style="fill:none;stroke:#000000;stroke-linecap:square;stroke-linejoin:miter;stroke-width:0.8;"/>
   </g>
   <g id="patch_6">
    <path d="M 414.72 263.808 
L 414.72 85.248 
" style="fill:none;stroke:#000000;stroke-linecap:square;stroke-linejoin:miter;stroke-width:0.8;"/>
   </g>
   <g id="patch_7">
    <path d="M 57.6 263.808 
L 414.72 263.808 
" style="fill:none;stroke:#000000;stroke-linecap:square;stroke-linejoin:miter;stroke-width:0.8;"/>
   </g>
   <g id="patch_8">
    <path d="M 57.6 85.248 
L 414.72 85.248 
" style="fill:none;stroke:#000000;stroke-linecap:square;stroke-linejoin:miter;stroke-width:0.8;"/>
   </g>
  </g>
 </g>
 <defs>
  <clipPath id="pbe1973134c">
   <rect height="178.56" width="357.12" x="57.6" y="85.248"/>
  </clipPath>
 </defs>
</svg>
