<?xml version="1.0" encoding="utf-8" standalone="no"?>
<!DOCTYPE svg PUBLIC "-//W3C//DTD SVG 1.1//EN"
  "http://www.w3.org/Graphics/SVG/1.1/DTD/svg11.dtd">
<!-- Created with matplotlib (http://matplotlib.org/) -->
<svg height="345.6pt" version="1.1" viewBox="0 0 460.8 345.6" width="460.8pt" xmlns="http://www.w3.org/2000/svg" xmlns:xlink="http://www.w3.org/1999/xlink">
 <defs>
  <style type="text/css">
*{stroke-linecap:butt;stroke-linejoin:round;}
  </style>
 </defs>
 <g id="figure_1">
  <g id="patch_1">
   <path d="M 0 345.6 
L 460.8 345.6 
L 460.8 0 
L 0 0 
z
" style="fill:#ffffff;"/>
  </g>
  <g id="axes_1">
   <g id="patch_2">
    <path d="M 57.6 263.808 
L 414.72 263.808 
L 414.72 85.248 
L 57.6 85.248 
z
" style="fill:#ffffff;"/>
   </g>
   <g id="PathCollection_1">
    <defs>
     <path d="M 0 3 
C 0.795609 3 1.55874 2.683901 2.12132 2.12132 
C 2.683901 1.55874 3 0.795609 3 0 
C 3 -0.795609 2.683901 -1.55874 2.12132 -2.12132 
C 1.55874 -2.683901 0.795609 -3 0 -3 
C -0.795609 -3 -1.55874 -2.683901 -2.12132 -2.12132 
C -2.683901 -1.55874 -3 -0.795609 -3 0 
C -3 0.795609 -2.683901 1.55874 -2.12132 2.12132 
C -1.55874 2.683901 -0.795609 3 0 3 
z
" id="m7930613998" style="stroke:#000000;"/>
    </defs>
    <g clip-path="url(#p3d221e11e8)">
     <use style="stroke:#000000;" x="200.470335" xlink:href="#m7930613998" y="204.036502"/>
    </g>
   </g>
   <g id="patch_3">
    <path clip-path="url(#p3d221e11e8)" d="M 161.76 211.728 
C 171.625555 211.728 181.088371 207.808373 188.064372 200.832372 
C 195.040373 193.856371 198.96 184.393555 198.96 174.528 
C 198.96 164.662445 195.040373 155.199629 188.064372 148.223628 
C 181.088371 141.247627 171.625555 137.328 161.76 137.328 
C 151.894445 137.328 142.431629 141.247627 135.455628 148.223628 
C 128.479627 155.199629 124.56 164.662445 124.56 174.528 
C 124.56 184.393555 128.479627 193.856371 135.455628 200.832372 
C 142.431629 207.808373 151.894445 211.728 161.76 211.728 
z
" style="fill:#cc0000;fill-opacity:0.1;stroke:#cc0000;stroke-dasharray:7.4,3.2;stroke-dashoffset:0;stroke-linejoin:miter;stroke-width:2;"/>
   </g>
   <g id="patch_4">
    <path clip-path="url(#p3d221e11e8)" d="M 310.56 196.848 
C 316.479333 196.848 322.157023 194.496224 326.342623 190.310623 
C 330.528224 186.125023 332.88 180.447333 332.88 174.528 
C 332.88 168.608667 330.528224 162.930977 326.342623 158.745377 
C 322.157023 154.559776 316.479333 152.208 310.56 152.208 
C 304.640667 152.208 298.962977 154.559776 294.777377 158.745377 
C 290.591776 162.930977 288.24 168.608667 288.24 174.528 
C 288.24 180.447333 290.591776 186.125023 294.777377 190.310623 
C 298.962977 194.496224 304.640667 196.848 310.56 196.848 
z
" style="fill:#cc0000;fill-opacity:0.1;stroke:#cc0000;stroke-dasharray:7.4,3.2;stroke-dashoffset:0;stroke-linejoin:miter;stroke-width:2;"/>
   </g>
   <g id="matplotlib.axis_1">
    <g id="xtick_1">
     <g id="line2d_1">
      <defs>
       <path d="M 0 0 
L 0 3.5 
" id="m4f028c5f8f" style="stroke:#000000;stroke-width:0.8;"/>
      </defs>
      <g>
       <use style="stroke:#000000;stroke-width:0.8;" x="87.36" xlink:href="#m4f028c5f8f" y="263.808"/>
      </g>
     </g>
     <g id="text_1">
      <!-- 0.0 -->
      <defs>
       <path d="M 31.78125 66.40625 
Q 24.171875 66.40625 20.328125 58.90625 
Q 16.5 51.421875 16.5 36.375 
Q 16.5 21.390625 20.328125 13.890625 
Q 24.171875 6.390625 31.78125 6.390625 
Q 39.453125 6.390625 43.28125 13.890625 
Q 47.125 21.390625 47.125 36.375 
Q 47.125 51.421875 43.28125 58.90625 
Q 39.453125 66.40625 31.78125 66.40625 
z
M 31.78125 74.21875 
Q 44.046875 74.21875 50.515625 64.515625 
Q 56.984375 54.828125 56.984375 36.375 
Q 56.984375 17.96875 50.515625 8.265625 
Q 44.046875 -1.421875 31.78125 -1.421875 
Q 19.53125 -1.421875 13.0625 8.265625 
Q 6.59375 17.96875 6.59375 36.375 
Q 6.59375 54.828125 13.0625 64.515625 
Q 19.53125 74.21875 31.78125 74.21875 
z
" id="DejaVuSans-30"/>
       <path d="M 10.6875 12.40625 
L 21 12.40625 
L 21 0 
L 10.6875 0 
z
" id="DejaVuSans-2e"/>
      </defs>
      <g transform="translate(79.408438 278.406437)scale(0.1 -0.1)">
       <use xlink:href="#DejaVuSans-30"/>
       <use x="63.623047" xlink:href="#DejaVuSans-2e"/>
       <use x="95.410156" xlink:href="#DejaVuSans-30"/>
      </g>
     </g>
    </g>
    <g id="xtick_2">
     <g id="line2d_2">
      <g>
       <use style="stroke:#000000;stroke-width:0.8;" x="161.76" xlink:href="#m4f028c5f8f" y="263.808"/>
      </g>
     </g>
     <g id="text_2">
      <!-- 0.5 -->
      <defs>
       <path d="M 10.796875 72.90625 
L 49.515625 72.90625 
L 49.515625 64.59375 
L 19.828125 64.59375 
L 19.828125 46.734375 
Q 21.96875 47.46875 24.109375 47.828125 
Q 26.265625 48.1875 28.421875 48.1875 
Q 40.625 48.1875 47.75 41.5 
Q 54.890625 34.8125 54.890625 23.390625 
Q 54.890625 11.625 47.5625 5.09375 
Q 40.234375 -1.421875 26.90625 -1.421875 
Q 22.3125 -1.421875 17.546875 -0.640625 
Q 12.796875 0.140625 7.71875 1.703125 
L 7.71875 11.625 
Q 12.109375 9.234375 16.796875 8.0625 
Q 21.484375 6.890625 26.703125 6.890625 
Q 35.15625 6.890625 40.078125 11.328125 
Q 45.015625 15.765625 45.015625 23.390625 
Q 45.015625 31 40.078125 35.4375 
Q 35.15625 39.890625 26.703125 39.890625 
Q 22.75 39.890625 18.8125 39.015625 
Q 14.890625 38.140625 10.796875 36.28125 
z
" id="DejaVuSans-35"/>
      </defs>
      <g transform="translate(153.808437 278.406437)scale(0.1 -0.1)">
       <use xlink:href="#DejaVuSans-30"/>
       <use x="63.623047" xlink:href="#DejaVuSans-2e"/>
       <use x="95.410156" xlink:href="#DejaVuSans-35"/>
      </g>
     </g>
    </g>
    <g id="xtick_3">
     <g id="line2d_3">
      <g>
       <use style="stroke:#000000;stroke-width:0.8;" x="236.16" xlink:href="#m4f028c5f8f" y="263.808"/>
      </g>
     </g>
     <g id="text_3">
      <!-- 1.0 -->
      <defs>
       <path d="M 12.40625 8.296875 
L 28.515625 8.296875 
L 28.515625 63.921875 
L 10.984375 60.40625 
L 10.984375 69.390625 
L 28.421875 72.90625 
L 38.28125 72.90625 
L 38.28125 8.296875 
L 54.390625 8.296875 
L 54.390625 0 
L 12.40625 0 
z
" id="DejaVuSans-31"/>
      </defs>
      <g transform="translate(228.208437 278.406437)scale(0.1 -0.1)">
       <use xlink:href="#DejaVuSans-31"/>
       <use x="63.623047" xlink:href="#DejaVuSans-2e"/>
       <use x="95.410156" xlink:href="#DejaVuSans-30"/>
      </g>
     </g>
    </g>
    <g id="xtick_4">
     <g id="line2d_4">
      <g>
       <use style="stroke:#000000;stroke-width:0.8;" x="310.56" xlink:href="#m4f028c5f8f" y="263.808"/>
      </g>
     </g>
     <g id="text_4">
      <!-- 1.5 -->
      <g transform="translate(302.608437 278.406437)scale(0.1 -0.1)">
       <use xlink:href="#DejaVuSans-31"/>
       <use x="63.623047" xlink:href="#DejaVuSans-2e"/>
       <use x="95.410156" xlink:href="#DejaVuSans-35"/>
      </g>
     </g>
    </g>
    <g id="xtick_5">
     <g id="line2d_5">
      <g>
       <use style="stroke:#000000;stroke-width:0.8;" x="384.96" xlink:href="#m4f028c5f8f" y="263.808"/>
      </g>
     </g>
     <g id="text_5">
      <!-- 2.0 -->
      <defs>
       <path d="M 19.1875 8.296875 
L 53.609375 8.296875 
L 53.609375 0 
L 7.328125 0 
L 7.328125 8.296875 
Q 12.9375 14.109375 22.625 23.890625 
Q 32.328125 33.6875 34.8125 36.53125 
Q 39.546875 41.84375 41.421875 45.53125 
Q 43.3125 49.21875 43.3125 52.78125 
Q 43.3125 58.59375 39.234375 62.25 
Q 35.15625 65.921875 28.609375 65.921875 
Q 23.96875 65.921875 18.8125 64.3125 
Q 13.671875 62.703125 7.8125 59.421875 
L 7.8125 69.390625 
Q 13.765625 71.78125 18.9375 73 
Q 24.125 74.21875 28.421875 74.21875 
Q 39.75 74.21875 46.484375 68.546875 
Q 53.21875 62.890625 53.21875 53.421875 
Q 53.21875 48.921875 51.53125 44.890625 
Q 49.859375 40.875 45.40625 35.40625 
Q 44.1875 33.984375 37.640625 27.21875 
Q 31.109375 20.453125 19.1875 8.296875 
z
" id="DejaVuSans-32"/>
      </defs>
      <g transform="translate(377.008437 278.406437)scale(0.1 -0.1)">
       <use xlink:href="#DejaVuSans-32"/>
       <use x="63.623047" xlink:href="#DejaVuSans-2e"/>
       <use x="95.410156" xlink:href="#DejaVuSans-30"/>
      </g>
     </g>
    </g>
   </g>
   <g id="matplotlib.axis_2">
    <g id="ytick_1">
     <g id="line2d_6">
      <defs>
       <path d="M 0 0 
L -3.5 0 
" id="m106628c14d" style="stroke:#000000;stroke-width:0.8;"/>
      </defs>
      <g>
       <use style="stroke:#000000;stroke-width:0.8;" x="57.6" xlink:href="#m106628c14d" y="248.928"/>
      </g>
     </g>
     <g id="text_6">
      <!-- 0.0 -->
      <g transform="translate(34.696875 252.727219)scale(0.1 -0.1)">
       <use xlink:href="#DejaVuSans-30"/>
       <use x="63.623047" xlink:href="#DejaVuSans-2e"/>
       <use x="95.410156" xlink:href="#DejaVuSans-30"/>
      </g>
     </g>
    </g>
    <g id="ytick_2">
     <g id="line2d_7">
      <g>
       <use style="stroke:#000000;stroke-width:0.8;" x="57.6" xlink:href="#m106628c14d" y="219.168"/>
      </g>
     </g>
     <g id="text_7">
      <!-- 0.2 -->
      <g transform="translate(34.696875 222.967219)scale(0.1 -0.1)">
       <use xlink:href="#DejaVuSans-30"/>
       <use x="63.623047" xlink:href="#DejaVuSans-2e"/>
       <use x="95.410156" xlink:href="#DejaVuSans-32"/>
      </g>
     </g>
    </g>
    <g id="ytick_3">
     <g id="line2d_8">
      <g>
       <use style="stroke:#000000;stroke-width:0.8;" x="57.6" xlink:href="#m106628c14d" y="189.408"/>
      </g>
     </g>
     <g id="text_8">
      <!-- 0.4 -->
      <defs>
       <path d="M 37.796875 64.3125 
L 12.890625 25.390625 
L 37.796875 25.390625 
z
M 35.203125 72.90625 
L 47.609375 72.90625 
L 47.609375 25.390625 
L 58.015625 25.390625 
L 58.015625 17.1875 
L 47.609375 17.1875 
L 47.609375 0 
L 37.796875 0 
L 37.796875 17.1875 
L 4.890625 17.1875 
L 4.890625 26.703125 
z
" id="DejaVuSans-34"/>
      </defs>
      <g transform="translate(34.696875 193.207219)scale(0.1 -0.1)">
       <use xlink:href="#DejaVuSans-30"/>
       <use x="63.623047" xlink:href="#DejaVuSans-2e"/>
       <use x="95.410156" xlink:href="#DejaVuSans-34"/>
      </g>
     </g>
    </g>
    <g id="ytick_4">
     <g id="line2d_9">
      <g>
       <use style="stroke:#000000;stroke-width:0.8;" x="57.6" xlink:href="#m106628c14d" y="159.648"/>
      </g>
     </g>
     <g id="text_9">
      <!-- 0.6 -->
      <defs>
       <path d="M 33.015625 40.375 
Q 26.375 40.375 22.484375 35.828125 
Q 18.609375 31.296875 18.609375 23.390625 
Q 18.609375 15.53125 22.484375 10.953125 
Q 26.375 6.390625 33.015625 6.390625 
Q 39.65625 6.390625 43.53125 10.953125 
Q 47.40625 15.53125 47.40625 23.390625 
Q 47.40625 31.296875 43.53125 35.828125 
Q 39.65625 40.375 33.015625 40.375 
z
M 52.59375 71.296875 
L 52.59375 62.3125 
Q 48.875 64.0625 45.09375 64.984375 
Q 41.3125 65.921875 37.59375 65.921875 
Q 27.828125 65.921875 22.671875 59.328125 
Q 17.53125 52.734375 16.796875 39.40625 
Q 19.671875 43.65625 24.015625 45.921875 
Q 28.375 48.1875 33.59375 48.1875 
Q 44.578125 48.1875 50.953125 41.515625 
Q 57.328125 34.859375 57.328125 23.390625 
Q 57.328125 12.15625 50.6875 5.359375 
Q 44.046875 -1.421875 33.015625 -1.421875 
Q 20.359375 -1.421875 13.671875 8.265625 
Q 6.984375 17.96875 6.984375 36.375 
Q 6.984375 53.65625 15.1875 63.9375 
Q 23.390625 74.21875 37.203125 74.21875 
Q 40.921875 74.21875 44.703125 73.484375 
Q 48.484375 72.75 52.59375 71.296875 
z
" id="DejaVuSans-36"/>
      </defs>
      <g transform="translate(34.696875 163.447219)scale(0.1 -0.1)">
       <use xlink:href="#DejaVuSans-30"/>
       <use x="63.623047" xlink:href="#DejaVuSans-2e"/>
       <use x="95.410156" xlink:href="#DejaVuSans-36"/>
      </g>
     </g>
    </g>
    <g id="ytick_5">
     <g id="line2d_10">
      <g>
       <use style="stroke:#000000;stroke-width:0.8;" x="57.6" xlink:href="#m106628c14d" y="129.888"/>
      </g>
     </g>
     <g id="text_10">
      <!-- 0.8 -->
      <defs>
       <path d="M 31.78125 34.625 
Q 24.75 34.625 20.71875 30.859375 
Q 16.703125 27.09375 16.703125 20.515625 
Q 16.703125 13.921875 20.71875 10.15625 
Q 24.75 6.390625 31.78125 6.390625 
Q 38.8125 6.390625 42.859375 10.171875 
Q 46.921875 13.96875 46.921875 20.515625 
Q 46.921875 27.09375 42.890625 30.859375 
Q 38.875 34.625 31.78125 34.625 
z
M 21.921875 38.8125 
Q 15.578125 40.375 12.03125 44.71875 
Q 8.5 49.078125 8.5 55.328125 
Q 8.5 64.0625 14.71875 69.140625 
Q 20.953125 74.21875 31.78125 74.21875 
Q 42.671875 74.21875 48.875 69.140625 
Q 55.078125 64.0625 55.078125 55.328125 
Q 55.078125 49.078125 51.53125 44.71875 
Q 48 40.375 41.703125 38.8125 
Q 48.828125 37.15625 52.796875 32.3125 
Q 56.78125 27.484375 56.78125 20.515625 
Q 56.78125 9.90625 50.3125 4.234375 
Q 43.84375 -1.421875 31.78125 -1.421875 
Q 19.734375 -1.421875 13.25 4.234375 
Q 6.78125 9.90625 6.78125 20.515625 
Q 6.78125 27.484375 10.78125 32.3125 
Q 14.796875 37.15625 21.921875 38.8125 
z
M 18.3125 54.390625 
Q 18.3125 48.734375 21.84375 45.5625 
Q 25.390625 42.390625 31.78125 42.390625 
Q 38.140625 42.390625 41.71875 45.5625 
Q 45.3125 48.734375 45.3125 54.390625 
Q 45.3125 60.0625 41.71875 63.234375 
Q 38.140625 66.40625 31.78125 66.40625 
Q 25.390625 66.40625 21.84375 63.234375 
Q 18.3125 60.0625 18.3125 54.390625 
z
" id="DejaVuSans-38"/>
      </defs>
      <g transform="translate(34.696875 133.687219)scale(0.1 -0.1)">
       <use xlink:href="#DejaVuSans-30"/>
       <use x="63.623047" xlink:href="#DejaVuSans-2e"/>
       <use x="95.410156" xlink:href="#DejaVuSans-38"/>
      </g>
     </g>
    </g>
    <g id="ytick_6">
     <g id="line2d_11">
      <g>
       <use style="stroke:#000000;stroke-width:0.8;" x="57.6" xlink:href="#m106628c14d" y="100.128"/>
      </g>
     </g>
     <g id="text_11">
      <!-- 1.0 -->
      <g transform="translate(34.696875 103.927219)scale(0.1 -0.1)">
       <use xlink:href="#DejaVuSans-31"/>
       <use x="63.623047" xlink:href="#DejaVuSans-2e"/>
       <use x="95.410156" xlink:href="#DejaVuSans-30"/>
      </g>
     </g>
    </g>
   </g>
   <g id="line2d_12">
    <path clip-path="url(#p3d221e11e8)" d="M 236.16 248.928 
L 236.16 100.128 
" style="fill:none;stroke:#cc0000;stroke-dasharray:7.4,3.2;stroke-dashoffset:0;stroke-width:2;"/>
   </g>
   <g id="line2d_13">
    <path clip-path="url(#p3d221e11e8)" d="M 87.36 248.928 
L 384.96 248.928 
" style="fill:none;stroke:#009900;stroke-linecap:square;stroke-width:2;"/>
   </g>
   <g id="line2d_14">
    <path clip-path="url(#p3d221e11e8)" d="M 384.96 248.928 
L 384.96 100.128 
" style="fill:none;stroke:#009900;stroke-linecap:square;stroke-width:2;"/>
   </g>
   <g id="line2d_15">
    <path clip-path="url(#p3d221e11e8)" d="M 384.96 100.128 
L 87.36 100.128 
" style="fill:none;stroke:#009900;stroke-linecap:square;stroke-width:2;"/>
   </g>
   <g id="line2d_16">
    <path clip-path="url(#p3d221e11e8)" d="M 87.36 100.128 
L 87.36 248.928 
" style="fill:none;stroke:#009900;stroke-linecap:square;stroke-width:2;"/>
   </g>
   <g id="line2d_17">
    <path clip-path="url(#p3d221e11e8)" d="M 200.470335 204.036502 
L 195.493807 207.300816 
L 190.651797 210.761527 
L 185.952052 214.413098 
L 181.402089 218.249688 
L 177.009189 222.26516 
L 172.780379 226.453088 
L 168.722424 230.806774 
L 164.841816 235.319252 
L 161.144763 239.983304 
L 157.637179 244.791468 
L 154.846597 248.928 
L 151.502199 244.004934 
L 147.963606 239.219546 
L 144.236478 234.579492 
L 140.326779 230.092195 
L 136.240764 225.764833 
L 131.984968 221.60433 
L 127.566201 217.617341 
L 122.991532 213.810246 
L 118.268278 210.189133 
L 113.403997 206.759796 
L 108.40647 203.527722 
L 103.283692 200.498081 
L 98.043858 197.67572 
L 92.695351 195.065154 
L 87.36 192.717717 
L 92.806647 190.31863 
L 98.153 187.703655 
L 103.390504 184.876974 
L 108.510783 181.84311 
L 113.505643 178.606916 
L 118.367095 175.17357 
L 123.087361 171.548564 
L 124.8196 170.140876 
L 121.149556 165.455542 
L 117.295084 160.920718 
L 113.262351 156.543659 
L 109.057808 152.331368 
L 104.688181 148.290583 
L 100.160461 144.427769 
L 95.481892 140.749105 
L 90.659957 137.260476 
L 87.36 135.036858 
L 92.273495 131.678414 
L 97.048758 128.126168 
L 101.678149 124.385805 
L 106.154263 120.463308 
L 110.469938 116.364951 
L 114.61827 112.097291 
L 118.592624 107.667156 
L 122.38664 103.081633 
L 124.672681 100.128 
L 128.350412 104.807303 
L 132.212323 109.335793 
L 136.252236 113.706225 
L 140.463689 117.911608 
L 144.839944 121.945214 
L 149.373999 125.80059 
L 154.058601 129.471569 
L 158.886256 132.952276 
L 163.849241 136.237145 
L 165.992565 137.569572 
L 171.60413 135.586668 
L 177.131913 133.380947 
L 182.567068 130.955938 
L 187.900901 128.315521 
L 193.124879 125.463919 
L 198.230645 122.405695 
L 203.210031 119.145741 
L 208.05507 115.689272 
L 212.758012 112.041818 
L 217.311332 108.209214 
L 221.707747 104.197592 
L 225.828698 100.128 
L 230.065669 104.307672 
L 234.466393 108.314566 
L 236.16 109.773451 
L 231.699581 113.713786 
L 227.400301 117.829339 
L 223.269039 122.113525 
L 219.312403 126.559491 
L 215.536723 131.160124 
L 211.948039 135.908063 
L 208.552093 140.795714 
L 205.354317 145.815257 
L 202.359827 150.958662 
L 199.573414 156.2177 
L 196.797542 162.029575 
L 202.178287 164.573031 
L 207.656439 166.89928 
L 213.223234 169.0046 
L 218.869766 170.885624 
L 224.587003 172.539343 
L 230.365798 173.96311 
L 236.16 175.147868 
L 243.576948 175.730621 
L 251.006145 176.127788 
L 258.442949 176.339121 
L 265.882712 176.364486 
L 273.320785 176.203869 
L 280.752518 175.85737 
L 294.200867 175.081037 
L 300.152471 175.081686 
L 306.099287 175.320335 
L 312.031803 175.796602 
L 317.940529 176.509726 
L 323.81601 177.458566 
L 329.648849 178.641603 
L 332.36892 179.277042 
L 320.781317 176.564641 
L 315.078124 174.863121 
L 309.447536 172.934896 
L 303.89856 170.783049 
L 298.440073 168.411024 
L 293.080808 165.822615 
L 289.30414 163.807105 
L 282.759756 160.268496 
L 276.128961 156.894586 
L 269.415899 153.687482 
L 262.624765 150.649189 
L 255.759804 147.781607 
L 248.825306 145.086527 
L 241.825606 142.565633 
L 236.16 140.668324 
L 243.208899 138.288463 
L 250.196105 135.733142 
L 257.117251 133.003956 
L 263.968012 130.102614 
L 270.744107 127.030926 
L 277.441299 123.790814 
L 284.055405 120.384302 
L 290.58229 116.813519 
L 297.017875 113.080696 
L 303.358138 109.188167 
L 309.599117 105.138365 
L 316.876583 100.128 
L 322.99459 104.361286 
L 329.216506 108.440315 
L 335.538443 112.362537 
L 341.95645 116.125502 
L 348.466516 119.726858 
L 355.064572 123.164353 
L 361.746494 126.435841 
L 368.508107 129.539275 
L 375.345185 132.472716 
L 382.253455 135.234332 
L 384.96 136.26215 
L 378.025191 138.956431 
L 371.1599 141.823222 
L 364.368416 144.860731 
L 357.654984 148.067061 
L 351.0238 151.440207 
L 344.479008 154.978061 
L 338.024698 158.678412 
L 331.664904 162.538949 
L 327.440561 165.080467 
L 322.21373 167.926838 
L 316.877257 170.561915 
L 311.439677 172.981482 
L 305.909689 175.181668 
L 300.296141 177.158954 
L 294.608013 178.910176 
L 289.023861 180.391198 
L 281.773855 182.060969 
L 274.567854 183.911449 
L 267.410363 185.941482 
L 260.305854 188.149799 
L 253.258767 190.53502 
L 246.273506 193.095655 
L 239.354437 195.830103 
L 236.16 197.160701 
L 243.046805 199.975417 
L 250.001819 202.617102 
L 257.020695 205.084104 
L 264.099046 207.374881 
L 271.232449 209.488003 
L 278.416445 211.422147 
L 285.646545 213.176106 
L 292.91823 214.748783 
L 300.226956 216.139196 
L 307.568155 217.346474 
L 314.937238 218.369865 
L 322.329601 219.208728 
L 329.740623 219.86254 
L 337.165672 220.33089 
L 344.60011 220.613487 
L 352.039288 220.710155 
L 359.478558 220.620832 
L 366.91327 220.345575 
L 374.338779 219.884555 
L 381.750443 219.238061 
L 384.96 218.900045 
L 377.555783 218.173215 
L 370.13571 217.631698 
L 362.70442 217.275833 
L 355.266556 217.105842 
L 347.826767 217.121831 
L 340.389702 217.32379 
L 332.96001 217.711594 
L 325.542334 218.285 
L 318.141309 219.043649 
L 310.761561 219.987067 
L 303.407702 221.114665 
L 296.084328 222.425737 
L 288.796016 223.919466 
L 281.547321 225.594916 
L 274.342772 227.451042 
L 267.186874 229.486682 
L 260.084097 231.700565 
L 253.038881 234.091307 
L 246.055629 236.657414 
L 239.138705 239.397283 
L 236.16 240.63939 
L 243.046805 243.454106 
L 250.001819 246.095791 
L 258.10973 248.928 
L 265.138076 246.488107 
L 272.103234 243.873286 
L 279.000852 241.085171 
L 285.826619 238.125505 
L 292.576269 234.996138 
L 299.245584 231.699025 
L 305.830395 228.236226 
L 312.326588 224.609907 
L 318.730103 220.822332 
L 325.036937 216.87587 
L 331.243149 212.772987 
L 337.34486 208.516247 
L 343.338257 204.10831 
L 349.219595 199.551931 
L 354.985197 194.849958 
L 360.63146 190.005329 
L 366.154855 185.021072 
L 371.551932 179.900302 
L 376.819316 174.64622 
L 381.953715 169.262108 
L 384.96 165.9808 
L 379.906685 160.520513 
L 374.718457 155.188253 
L 369.398557 149.987351 
L 363.95031 144.921058 
L 358.377122 139.99254 
L 352.682475 135.204877 
L 346.869928 130.561062 
L 340.943115 126.063996 
L 334.905739 121.716491 
L 328.761572 117.521263 
L 322.514457 113.480933 
L 316.168295 109.598028 
L 309.727054 105.874974 
L 303.194759 102.314098 
L 298.981398 100.128 
L 292.39314 103.584237 
L 285.893338 107.204082 
L 279.486053 110.985275 
L 273.17529 114.925452 
L 266.964994 119.02215 
L 260.859045 123.272809 
L 254.861259 127.674773 
L 248.975386 132.22529 
L 243.205102 136.921517 
L 237.554015 141.760519 
L 236.16 142.992477 
L 241.780727 147.86671 
L 247.52154 152.598917 
L 253.378853 157.186139 
L 259.349003 161.62551 
L 265.428261 165.914256 
L 271.612827 170.049696 
L 277.898835 174.029246 
L 284.282357 177.850419 
L 289.076165 180.580045 
L 285.504299 187.106337 
L 282.096688 193.719876 
L 278.855464 200.416531 
L 275.782652 207.192115 
L 272.880171 214.042394 
L 270.149837 220.963088 
L 267.593356 227.949869 
L 265.212324 234.998373 
L 263.008231 242.104194 
L 261.072925 248.928 
L 259.038805 241.771669 
L 256.82643 234.668422 
L 254.437184 227.622699 
L 251.87256 220.638902 
L 249.134161 213.721396 
L 246.223698 206.874505 
L 243.142989 200.102507 
L 239.893961 193.409635 
L 236.16 186.203499 
L 239.590329 179.601714 
L 242.854559 172.916243 
L 245.95065 166.151264 
L 248.876666 159.311005 
L 251.63078 152.399741 
L 254.211269 145.42179 
L 256.616521 138.381515 
L 258.845033 131.283314 
L 260.895412 124.131625 
L 262.766377 116.930916 
L 264.456758 109.685688 
L 265.965499 102.400469 
L 266.397412 100.128 
L 267.849482 107.424726 
L 269.483498 114.682874 
L 271.298437 121.897907 
L 273.293167 129.065318 
L 275.46644 136.180625 
L 277.816898 143.239383 
L 280.343072 150.23718 
L 283.043384 157.169642 
L 285.916145 164.032438 
L 288.666309 170.18649 
L 283.27464 175.312953 
L 278.012803 180.572591 
L 272.884088 185.962118 
L 267.8917 191.478165 
L 263.038759 197.117286 
L 258.328297 202.875955 
L 253.76326 208.750573 
L 249.346498 214.737471 
L 245.080774 220.832905 
L 240.968753 227.033066 
L 237.013005 233.334079 
L 236.16 234.740013 
L 240.08087 241.062789 
L 244.158568 247.285577 
L 245.272389 248.928 
L 249.391491 242.732541 
L 253.354436 236.436051 
L 257.158747 230.042465 
L 260.802046 223.55578 
L 264.282056 216.980048 
L 267.596602 210.31938 
L 270.743614 203.577938 
L 273.721123 196.759936 
L 276.52727 189.869634 
L 279.1603 182.91134 
L 281.618569 175.8894 
L 283.900539 168.808205 
L 286.004784 161.672178 
L 287.92999 154.485782 
L 289.674953 147.253505 
L 291.238582 139.979869 
L 292.619902 132.66942 
L 293.818047 125.326725 
L 294.832269 117.956374 
L 295.661935 110.562974 
L 296.306527 103.151144 
L 296.515936 100.128 
L 297.085022 107.546009 
L 297.83936 114.947474 
L 298.778481 122.327771 
L 299.901796 129.682285 
L 301.208604 137.006421 
L 302.698088 144.295602 
L 304.369317 151.545271 
L 306.41479 160.229014 
L 307.505462 166.079827 
L 308.361292 171.969575 
L 308.980909 177.888837 
L 309.363324 183.828141 
L 309.507924 189.777988 
L 309.414478 195.728857 
L 309.371654 196.816343 
L 309.590241 193.848431 
L 310.205235 187.928688 
L 311.056464 182.038273 
L 312.142566 176.186609 
L 313.461803 170.383059 
L 315.012065 164.636907 
L 316.790872 158.957344 
L 318.653772 153.7272 
L 317.518682 156.478173 
L 315.084611 161.909277 
L 312.435302 167.238699 
L 309.574992 172.457914 
L 306.508256 177.558572 
L 303.240002 182.532514 
L 299.775457 187.371781 
L 296.371471 191.757859 
L 298.309374 189.499361 
L 302.318725 185.100875 
L 306.500762 180.866237 
L 310.848793 176.802225 
L 315.355864 172.915337 
L 320.014764 169.211794 
L 324.818039 165.697519 
L 329.422171 162.594815 
L 326.875554 164.134628 
L 321.692497 167.059948 
L 316.396604 169.775661 
L 310.996347 172.277422 
L 305.500367 174.56123 
L 299.917454 176.62343 
L 294.256542 178.460724 
L 288.913412 179.96929 
L 291.813675 179.302389 
L 297.651306 178.143234 
L 303.530622 177.218449 
L 309.442217 176.529514 
L 315.376632 176.077531 
L 321.324376 175.863223 
L 327.275932 175.886932 
L 332.822894 176.123602 
L 329.859474 175.850795 
L 323.951963 175.127685 
L 318.078093 174.168915 
L 312.247263 172.97602 
L 306.4688 171.550908 
L 300.751948 169.895859 
L 295.105853 168.013521 
L 289.910639 166.05532 
L 292.640402 167.240511 
L 298.0261 169.773461 
L 303.306199 172.519755 
L 308.472253 175.475 
L 313.515995 178.634469 
L 318.429359 181.993106 
L 323.204482 185.545538 
L 327.527598 189.029138 
L 325.304905 187.050271 
L 320.980448 182.961181 
L 316.822971 178.70243 
L 312.839124 174.28083 
L 309.03528 169.703456 
L 305.417525 164.97763 
L 301.991647 160.110913 
L 298.973629 155.45083 
L 300.46663 158.02517 
L 303.29671 163.26084 
L 305.915154 168.605494 
L 308.317775 174.050583 
L 310.500729 179.587395 
L 312.460523 185.207074 
L 314.194022 190.900628 
L 315.604658 196.270443 
L 314.990888 193.358473 
L 313.938645 187.500627 
L 313.121495 181.605388 
L 312.540745 175.682186 
L 312.197325 169.7405 
L 312.091784 163.789832 
L 312.22429 157.839704 
L 312.562325 152.297996 
L 312.235389 155.255933 
L 311.404404 161.149238 
L 310.338414 167.004598 
L 309.039124 172.812647 
L 307.508614 178.564092 
L 305.749332 184.249732 
L 303.764092 189.860472 
L 301.152903 196.398294 
L 298.465018 203.335584 
L 295.951388 210.337896 
L 293.613583 217.400855 
L 291.453064 224.520046 
L 289.471182 231.691019 
L 287.669174 238.909293 
L 286.048168 246.170358 
L 285.482229 248.928 
L 283.92998 241.651927 
L 282.196332 234.41693 
L 280.282371 227.22753 
L 278.189291 220.088221 
L 275.918401 213.003464 
L 273.47112 205.977688 
L 270.848978 199.015283 
L 268.053613 192.1206 
L 265.086773 185.297948 
L 261.950311 178.551592 
L 258.646188 171.885747 
L 255.176469 165.304579 
L 251.543322 158.812202 
L 247.749018 152.412673 
L 243.795927 146.109992 
L 239.686522 139.908097 
L 236.16 134.841478 
L 240.39716 128.726153 
L 244.480129 122.506822 
L 248.406354 116.18737 
L 252.173383 109.771748 
L 255.778861 103.263964 
L 257.44135 100.128 
L 260.968957 106.678321 
L 264.659202 113.138415 
L 268.50978 119.504243 
L 272.518283 125.771828 
L 276.682207 131.937252 
L 280.99895 137.996662 
L 285.465813 143.946271 
L 290.080005 149.782361 
L 294.838642 155.501285 
L 299.208276 160.744623 
L 302.816953 165.477385 
L 306.233483 170.350669 
L 309.4524 175.356681 
L 312.468556 180.48741 
L 315.277125 185.73465 
L 317.873613 191.090005 
L 319.581881 194.943388 
L 317.214411 189.482924 
L 315.067195 183.932154 
L 313.143667 178.299959 
L 311.446907 172.595348 
L 309.979627 166.827448 
L 308.744175 161.005487 
L 307.742527 155.138777 
L 307.362134 152.438273 
L 308.339501 159.813015 
L 308.855221 165.742232 
L 309.133423 171.687329 
L 309.173662 177.638797 
L 308.975873 183.587112 
L 308.540374 189.522761 
L 307.867861 195.436246 
L 307.698126 196.663765 
L 308.993096 187.831532 
L 310.149712 181.993397 
L 311.538865 176.206184 
L 313.158334 170.479152 
L 315.005528 164.821462 
L 317.077492 159.242166 
L 319.270656 153.977894 
L 316.909629 159.441147 
L 314.332019 164.805614 
L 311.54195 170.062713 
L 308.543884 175.204034 
L 305.342619 180.221352 
L 301.943274 185.10664 
L 298.35129 189.852083 
L 296.642651 191.977636 
L 301.350782 186.217812 
L 305.320905 181.783886 
L 309.465163 177.51227 
L 313.776925 173.409796 
L 318.249294 169.483029 
L 322.875113 165.738249 
L 327.646984 162.181449 
L 328.658151 161.4651 
L 321.332175 166.565626 
L 316.283928 169.717891 
L 311.113662 172.66576 
L 305.829648 175.404515 
L 300.440339 177.929774 
L 294.954359 180.2375 
L 289.615118 182.241256 
L 295.214322 180.22371 
L 300.889728 178.431686 
L 306.632256 176.868051 
L 312.432719 175.535307 
L 318.281838 174.435586 
L 324.170256 173.570647 
L 330.088552 172.941873 
L 332.807701 172.732955 
L 325.385924 173.242165 
L 319.435965 173.382032 
L 313.485171 173.283852 
L 307.543064 172.947782 
L 301.619149 172.374361 
L 295.722904 171.564504 
L 289.86376 170.519508 
L 288.649426 170.272515 
L 297.38213 172.123233 
L 303.135471 173.646599 
L 308.823292 175.398819 
L 314.436493 177.377089 
L 319.966095 179.578246 
L 325.40325 181.998766 
L 330.51835 184.52033 
L 325.215279 181.81866 
L 320.024488 178.907086 
L 314.954281 175.790264 
L 310.012769 172.47318 
L 305.207858 168.961143 
L 300.547234 165.259769 
L 296.038353 161.374981 
L 289.680293 155.467458 
L 284.136353 150.506062 
L 278.470124 145.6848 
L 272.685146 141.006686 
L 266.785036 136.474643 
L 260.77348 132.091504 
L 254.654235 127.860008 
L 248.431126 123.782799 
L 242.108042 119.862426 
L 236.16 116.370061 
L 242.572243 112.597281 
L 248.888172 108.665392 
L 255.10384 104.576849 
L 261.504256 100.128 
L 267.610715 104.377927 
L 273.821503 108.47388 
L 280.132739 112.413299 
L 286.540477 116.193723 
L 293.040714 119.812789 
L 299.629387 123.268235 
L 306.302378 126.557902 
L 313.055517 129.679733 
L 319.884583 132.631778 
L 326.785309 135.412191 
L 333.753382 138.019236 
L 340.784446 140.451282 
L 347.874108 142.70681 
L 355.017938 144.78441 
L 362.211469 146.682784 
L 369.450207 148.400745 
L 376.729628 149.937219 
L 384.96 151.447301 
L 377.640259 152.778509 
L 370.356083 154.292276 
L 363.112023 155.987656 
L 355.912607 157.863588 
L 348.762333 159.9189 
L 341.665672 162.152309 
L 334.627058 164.562418 
L 319.889041 169.777725 
L 314.165017 171.407795 
L 308.380386 172.807661 
L 302.544403 173.975084 
L 296.666403 174.908197 
L 290.75579 175.605505 
L 288.277821 175.826811 
L 289.765112 175.781087 
L 295.716618 175.746965 
L 301.664727 175.950866 
L 307.599925 176.392466 
L 313.512716 177.071057 
L 319.39364 177.985553 
L 325.233291 179.134493 
L 331.022325 180.516037 
L 331.989186 180.770787 
L 330.572559 180.315493 
L 324.953696 178.353359 
L 319.417793 176.168101 
L 313.973705 173.763213 
L 308.630141 171.142544 
L 303.395651 168.310285 
L 298.278607 165.270969 
L 293.287197 162.029456 
L 292.461598 161.465449 
L 293.643761 162.369117 
L 298.280288 166.100631 
L 302.763886 170.014571 
L 307.087382 174.104677 
L 311.243859 178.364405 
L 315.226667 182.78694 
L 319.029435 187.365208 
L 322.64608 192.091884 
L 323.234956 192.899932 
L 322.423947 191.652378 
L 319.305862 186.582948 
L 316.392994 181.392882 
L 313.690003 176.090485 
L 311.201214 170.684237 
L 308.930608 165.18279 
L 306.881817 159.594942 
L 305.05812 153.929635 
L 303.859968 150.138849 
L 301.451251 143.099759 
L 298.867327 136.123079 
L 296.109812 129.213171 
L 293.180429 122.374353 
L 290.081009 115.610899 
L 286.813488 108.927036 
L 283.37991 102.326941 
L 282.188872 100.128 
L 278.699954 106.699009 
L 275.376383 113.355179 
L 272.220239 120.09235 
L 269.233492 126.906311 
L 266.41801 133.792803 
L 263.775552 140.747523 
L 261.307769 147.766125 
L 259.016205 154.844221 
L 256.90229 161.977389 
L 254.967347 169.16117 
L 253.212584 176.391075 
L 251.639099 183.662585 
L 250.247873 190.971156 
L 249.039778 198.31222 
L 248.015568 205.68119 
L 247.175883 213.073459 
L 246.521248 220.484408 
L 246.052071 227.909406 
L 245.768647 235.343812 
L 245.671153 242.782979 
L 245.730885 248.928 
L 245.775657 245.952349 
L 245.757393 238.512565 
L 245.55316 231.075563 
L 245.163085 223.64599 
L 244.587411 216.228489 
L 243.826499 208.827696 
L 242.880825 201.448237 
L 241.750978 194.094724 
L 240.437666 186.771751 
L 238.94171 179.483896 
L 237.264043 172.235713 
L 236.16 167.866867 
L 237.947222 160.644917 
L 239.553355 153.380549 
L 240.977396 146.078301 
L 242.218454 138.742737 
L 243.275755 131.378443 
L 244.148638 123.99002 
L 244.836556 116.582086 
L 245.33908 109.159271 
L 245.655896 101.726213 
L 245.699715 100.128 
L 245.74022 101.615447 
L 246.054269 109.048622 
L 246.554029 116.471624 
L 247.239189 123.879814 
L 248.10932 131.268561 
L 249.163878 138.633249 
L 250.402205 145.969274 
L 251.823527 153.272051 
L 253.426955 160.537018 
L 255.211487 167.759632 
L 257.176008 174.935381 
L 259.319291 182.05978 
L 261.639995 189.128376 
L 264.13667 196.136752 
L 266.807756 203.080527 
L 269.651584 209.955362 
L 272.666376 216.756961 
L 275.850249 223.481072 
L 279.201211 230.123494 
L 282.71717 236.680075 
L 286.395928 243.146717 
L 289.869707 248.928 
L 293.694068 242.546387 
L 297.357709 236.071169 
L 300.858342 229.506393 
L 304.193779 222.856161 
L 307.361935 216.124631 
L 310.36083 209.316008 
L 313.18859 202.434548 
L 315.548375 196.283425 
L 320.980564 201.366931 
L 326.53813 206.313058 
L 332.2176 211.118715 
L 338.015424 215.780898 
L 343.927979 220.296694 
L 349.95157 224.663281 
L 356.082431 228.877928 
L 362.316732 232.938003 
L 368.650576 236.840968 
L 375.080005 240.584384 
L 381.601 244.165912 
L 384.96 245.929092 
L 379.307111 248.928 
L 372.728797 245.452872 
L 366.06567 242.143272 
L 359.321894 239.001266 
L 352.501684 236.028819 
L 345.609301 233.227788 
L 338.649053 230.599924 
L 331.62529 228.146869 
L 324.542403 225.870157 
L 317.404816 223.771209 
L 310.216992 221.851339 
L 302.983423 220.111746 
L 295.708628 218.553516 
L 288.397155 217.177625 
L 281.053573 215.984931 
L 273.682471 214.97618 
L 266.288457 214.152003 
L 258.87615 213.512914 
L 251.450185 213.059314 
L 244.015201 212.791485 
L 236.16 212.710506 
L 242.11175 212.668189 
L 249.548295 212.447929 
L 256.977011 212.041844 
L 264.393254 211.450188 
L 271.792389 210.673329 
L 279.169793 209.711754 
L 286.520855 208.566063 
L 293.840981 207.236974 
L 301.125595 205.725315 
L 308.370145 204.032032 
L 315.570104 202.158184 
L 322.720972 200.104941 
L 329.81828 197.873586 
L 336.857591 195.465515 
L 343.834508 192.882232 
L 350.744669 190.125351 
L 357.583756 187.196595 
L 364.347494 184.097795 
L 371.031657 180.830888 
L 377.632067 177.397915 
L 384.96 173.335575 
L 378.458848 169.718153 
L 371.869301 166.264374 
L 365.195478 162.976395 
L 358.44155 159.856272 
L 351.611737 156.905955 
L 344.710308 154.127287 
L 337.741576 151.522005 
L 330.709897 149.091737 
L 323.619664 146.838002 
L 316.47531 144.76221 
L 309.281298 142.865655 
L 302.042126 141.149526 
L 294.762317 139.614893 
L 287.446421 138.262715 
L 280.09901 137.093839 
L 272.724677 136.108994 
L 265.328029 135.308796 
L 257.913689 134.693744 
L 250.486292 134.264225 
L 243.050479 134.020505 
L 236.16 133.960643 
L 242.11175 133.918326 
L 249.548295 133.698066 
L 256.977011 133.291981 
L 264.393254 132.700325 
L 271.792389 131.923466 
L 279.169793 130.961891 
L 286.520855 129.8162 
L 293.840981 128.487111 
L 301.125595 126.975452 
L 308.370145 125.282169 
L 315.570104 123.408321 
L 322.720972 121.355078 
L 329.81828 119.123723 
L 336.857591 116.715652 
L 343.834508 114.132368 
L 350.744669 111.375488 
L 357.583756 108.446732 
L 364.347494 105.347932 
L 371.031657 102.081025 
L 374.835902 100.128 
L 381.472434 103.490614 
L 384.96 105.17518 
L 378.280269 108.45114 
L 371.684516 111.893052 
L 365.176863 115.498765 
L 358.761377 119.266026 
L 352.442067 123.192481 
L 346.222884 127.275674 
L 340.107712 131.513055 
L 334.100376 135.901975 
L 328.204627 140.439692 
L 322.424153 145.123369 
L 316.762564 149.950079 
L 313.925065 152.463124 
L 310.040105 146.118221 
L 305.997753 139.872414 
L 301.800534 133.729607 
L 297.451073 127.693639 
L 292.952088 121.768283 
L 288.30639 115.957241 
L 283.516883 110.264145 
L 278.58656 104.692554 
L 274.356628 100.128 
L 269.310881 105.595281 
L 264.403379 111.186983 
L 259.637188 116.899613 
L 255.015288 122.729601 
L 250.540566 128.673302 
L 246.21582 134.727002 
L 242.043752 140.886918 
L 238.026969 147.1492 
L 236.16 150.181767 
L 240.10156 156.491666 
L 244.199619 162.701064 
L 248.451616 168.806081 
L 252.854894 174.802902 
L 257.406702 180.687778 
L 262.104193 186.457032 
L 266.944433 192.107058 
L 271.924396 197.634326 
L 277.04097 203.03538 
L 282.290958 208.306845 
L 287.671078 213.445427 
L 293.177968 218.447914 
L 298.808187 223.31118 
L 304.558215 228.032185 
L 310.424459 232.60798 
L 316.403253 237.035704 
L 322.490861 241.31259 
L 328.683477 245.435965 
L 334.204614 248.928 
L 340.486247 244.941548 
L 346.666266 240.799316 
L 352.740809 236.503895 
L 358.70608 232.057968 
L 364.55835 227.464315 
L 370.293962 222.725805 
L 375.909331 217.845401 
L 381.400948 212.826152 
L 384.96 209.434988 
L 379.552041 204.325713 
L 374.018054 199.353219 
L 368.361496 194.520613 
L 362.585903 189.830918 
L 356.694885 185.287062 
L 350.692123 180.891887 
L 344.581369 176.648138 
L 338.366442 172.558468 
L 332.092167 168.650231 
L 326.215723 167.707369 
L 320.381685 166.530266 
L 314.599384 165.120806 
L 308.878072 163.481242 
L 303.226901 161.614199 
L 297.654913 159.522662 
L 295.065205 158.462705 
L 297.059792 164.070128 
L 298.828548 169.752829 
L 300.368641 175.501715 
L 301.677608 181.30759 
L 302.753355 187.161166 
L 303.59416 193.053078 
L 303.907867 195.833669 
L 307.868859 191.391583 
L 312.004319 187.111449 
L 316.30763 183.000112 
L 320.771909 179.06415 
L 325.390013 175.30986 
L 330.154555 171.743248 
L 332.443003 170.132935 
L 336.32496 163.786194 
L 340.047053 157.344398 
L 343.606954 150.811571 
L 347.00244 144.191798 
L 350.231387 137.489215 
L 353.291778 130.708012 
L 356.1817 123.852425 
L 358.899348 116.92674 
L 361.443022 109.935286 
L 363.811133 102.882431 
L 364.683091 100.128 
L 366.982621 107.203513 
L 369.458302 114.219332 
L 372.108587 121.171073 
L 374.931818 128.054392 
L 377.926233 134.864987 
L 381.089959 141.598601 
L 384.96 149.289614 
L 381.602809 155.92889 
L 378.412632 162.650013 
L 375.391463 169.448781 
L 372.541189 176.320947 
L 369.863592 183.262214 
L 367.360345 190.268245 
L 365.033013 197.334662 
L 362.883051 204.457047 
L 360.911801 211.630951 
L 359.120496 218.851889 
L 357.510255 226.115348 
L 356.082086 233.41679 
L 354.836879 240.75165 
L 353.669761 248.928 
L 352.628577 241.56141 
L 351.403573 234.223148 
L 349.995515 226.917802 
L 348.405281 219.649936 
L 346.633867 212.424092 
L 344.68238 205.244788 
L 342.552038 198.116509 
L 340.244173 191.043711 
L 337.760228 184.030813 
L 335.101755 177.082199 
L 332.593468 170.963074 
L 333.09022 163.53987 
L 333.401256 156.106568 
L 333.526382 148.667814 
L 333.465519 141.228257 
L 333.218705 133.792546 
L 332.786096 126.365328 
L 332.16796 118.951245 
L 331.364685 111.554931 
L 330.376772 104.181007 
L 329.75356 100.128 
L 328.664138 107.487611 
L 327.759027 114.872155 
L 327.038794 122.277017 
L 326.503888 129.697569 
L 326.154643 137.129174 
L 325.991279 144.567186 
L 326.013896 152.006958 
L 326.189205 158.593435 
L 333.628885 158.636825 
L 341.067324 158.494229 
L 348.499875 158.165735 
L 355.921891 157.65155 
L 363.328735 156.951995 
L 370.715778 156.067506 
L 378.078402 154.998637 
L 384.96 153.828725 
L 377.62447 152.587468 
L 370.260204 151.529968 
L 362.871805 150.656887 
L 355.46389 149.968768 
L 348.041088 149.466044 
L 340.608039 149.149027 
L 333.169388 149.017916 
L 325.729784 149.072793 
L 318.293877 149.313623 
L 310.866313 149.740257 
L 303.451735 150.352427 
L 296.054777 151.149751 
L 288.680061 152.13173 
L 281.332197 153.297751 
L 274.015776 154.647086 
L 266.735371 156.17889 
L 259.495533 157.892207 
L 252.300785 159.785965 
L 245.155624 161.858982 
L 238.064516 164.109961 
L 236.16 164.747976 
L 236.16 164.747976 
" style="fill:none;stroke:#1f77b4;stroke-linecap:square;stroke-width:1.5;"/>
   </g>
   <g id="patch_5">
    <path d="M 57.6 263.808 
L 57.6 85.248 
" style="fill:none;stroke:#000000;stroke-linecap:square;stroke-linejoin:miter;stroke-width:0.8;"/>
   </g>
   <g id="patch_6">
    <path d="M 414.72 263.808 
L 414.72 85.248 
" style="fill:none;stroke:#000000;stroke-linecap:square;stroke-linejoin:miter;stroke-width:0.8;"/>
   </g>
   <g id="patch_7">
    <path d="M 57.6 263.808 
L 414.72 263.808 
" style="fill:none;stroke:#000000;stroke-linecap:square;stroke-linejoin:miter;stroke-width:0.8;"/>
   </g>
   <g id="patch_8">
    <path d="M 57.6 85.248 
L 414.72 85.248 
" style="fill:none;stroke:#000000;stroke-linecap:square;stroke-linejoin:miter;stroke-width:0.8;"/>
   </g>
  </g>
 </g>
 <defs>
  <clipPath id="p3d221e11e8">
   <rect height="178.56" width="357.12" x="57.6" y="85.248"/>
  </clipPath>
 </defs>
</svg>
