<?xml version="1.0" encoding="utf-8" standalone="no"?>
<!DOCTYPE svg PUBLIC "-//W3C//DTD SVG 1.1//EN"
  "http://www.w3.org/Graphics/SVG/1.1/DTD/svg11.dtd">
<!-- Created with matplotlib (http://matplotlib.org/) -->
<svg height="345.6pt" version="1.1" viewBox="0 0 460.8 345.6" width="460.8pt" xmlns="http://www.w3.org/2000/svg" xmlns:xlink="http://www.w3.org/1999/xlink">
 <defs>
  <style type="text/css">
*{stroke-linecap:butt;stroke-linejoin:round;}
  </style>
 </defs>
 <g id="figure_1">
  <g id="patch_1">
   <path d="M 0 345.6 
L 460.8 345.6 
L 460.8 0 
L 0 0 
z
" style="fill:#ffffff;"/>
  </g>
  <g id="axes_1">
   <g id="patch_2">
    <path d="M 57.6 263.808 
L 414.72 263.808 
L 414.72 85.248 
L 57.6 85.248 
z
" style="fill:#ffffff;"/>
   </g>
   <g id="PathCollection_1">
    <defs>
     <path d="M 0 3 
C 0.795609 3 1.55874 2.683901 2.12132 2.12132 
C 2.683901 1.55874 3 0.795609 3 0 
C 3 -0.795609 2.683901 -1.55874 2.12132 -2.12132 
C 1.55874 -2.683901 0.795609 -3 0 -3 
C -0.795609 -3 -1.55874 -2.683901 -2.12132 -2.12132 
C -2.683901 -1.55874 -3 -0.795609 -3 0 
C -3 0.795609 -2.683901 1.55874 -2.12132 2.12132 
C -1.55874 2.683901 -0.795609 3 0 3 
z
" id="md971719cd9" style="stroke:#000000;"/>
    </defs>
    <g clip-path="url(#pa76da54b13)">
     <use style="stroke:#000000;" x="147.216376" xlink:href="#md971719cd9" y="235.127002"/>
    </g>
   </g>
   <g id="patch_3">
    <path clip-path="url(#pa76da54b13)" d="M 161.76 211.728 
C 171.625555 211.728 181.088371 207.808373 188.064372 200.832372 
C 195.040373 193.856371 198.96 184.393555 198.96 174.528 
C 198.96 164.662445 195.040373 155.199629 188.064372 148.223628 
C 181.088371 141.247627 171.625555 137.328 161.76 137.328 
C 151.894445 137.328 142.431629 141.247627 135.455628 148.223628 
C 128.479627 155.199629 124.56 164.662445 124.56 174.528 
C 124.56 184.393555 128.479627 193.856371 135.455628 200.832372 
C 142.431629 207.808373 151.894445 211.728 161.76 211.728 
z
" style="fill:#cc0000;fill-opacity:0.1;stroke:#cc0000;stroke-dasharray:7.4,3.2;stroke-dashoffset:0;stroke-linejoin:miter;stroke-width:2;"/>
   </g>
   <g id="patch_4">
    <path clip-path="url(#pa76da54b13)" d="M 310.56 196.848 
C 316.479333 196.848 322.157023 194.496224 326.342623 190.310623 
C 330.528224 186.125023 332.88 180.447333 332.88 174.528 
C 332.88 168.608667 330.528224 162.930977 326.342623 158.745377 
C 322.157023 154.559776 316.479333 152.208 310.56 152.208 
C 304.640667 152.208 298.962977 154.559776 294.777377 158.745377 
C 290.591776 162.930977 288.24 168.608667 288.24 174.528 
C 288.24 180.447333 290.591776 186.125023 294.777377 190.310623 
C 298.962977 194.496224 304.640667 196.848 310.56 196.848 
z
" style="fill:#cc0000;fill-opacity:0.1;stroke:#cc0000;stroke-dasharray:7.4,3.2;stroke-dashoffset:0;stroke-linejoin:miter;stroke-width:2;"/>
   </g>
   <g id="matplotlib.axis_1">
    <g id="xtick_1">
     <g id="line2d_1">
      <defs>
       <path d="M 0 0 
L 0 3.5 
" id="m25fe0e6853" style="stroke:#000000;stroke-width:0.8;"/>
      </defs>
      <g>
       <use style="stroke:#000000;stroke-width:0.8;" x="87.36" xlink:href="#m25fe0e6853" y="263.808"/>
      </g>
     </g>
     <g id="text_1">
      <!-- 0.0 -->
      <defs>
       <path d="M 31.78125 66.40625 
Q 24.171875 66.40625 20.328125 58.90625 
Q 16.5 51.421875 16.5 36.375 
Q 16.5 21.390625 20.328125 13.890625 
Q 24.171875 6.390625 31.78125 6.390625 
Q 39.453125 6.390625 43.28125 13.890625 
Q 47.125 21.390625 47.125 36.375 
Q 47.125 51.421875 43.28125 58.90625 
Q 39.453125 66.40625 31.78125 66.40625 
z
M 31.78125 74.21875 
Q 44.046875 74.21875 50.515625 64.515625 
Q 56.984375 54.828125 56.984375 36.375 
Q 56.984375 17.96875 50.515625 8.265625 
Q 44.046875 -1.421875 31.78125 -1.421875 
Q 19.53125 -1.421875 13.0625 8.265625 
Q 6.59375 17.96875 6.59375 36.375 
Q 6.59375 54.828125 13.0625 64.515625 
Q 19.53125 74.21875 31.78125 74.21875 
z
" id="DejaVuSans-30"/>
       <path d="M 10.6875 12.40625 
L 21 12.40625 
L 21 0 
L 10.6875 0 
z
" id="DejaVuSans-2e"/>
      </defs>
      <g transform="translate(79.408438 278.406437)scale(0.1 -0.1)">
       <use xlink:href="#DejaVuSans-30"/>
       <use x="63.623047" xlink:href="#DejaVuSans-2e"/>
       <use x="95.410156" xlink:href="#DejaVuSans-30"/>
      </g>
     </g>
    </g>
    <g id="xtick_2">
     <g id="line2d_2">
      <g>
       <use style="stroke:#000000;stroke-width:0.8;" x="161.76" xlink:href="#m25fe0e6853" y="263.808"/>
      </g>
     </g>
     <g id="text_2">
      <!-- 0.5 -->
      <defs>
       <path d="M 10.796875 72.90625 
L 49.515625 72.90625 
L 49.515625 64.59375 
L 19.828125 64.59375 
L 19.828125 46.734375 
Q 21.96875 47.46875 24.109375 47.828125 
Q 26.265625 48.1875 28.421875 48.1875 
Q 40.625 48.1875 47.75 41.5 
Q 54.890625 34.8125 54.890625 23.390625 
Q 54.890625 11.625 47.5625 5.09375 
Q 40.234375 -1.421875 26.90625 -1.421875 
Q 22.3125 -1.421875 17.546875 -0.640625 
Q 12.796875 0.140625 7.71875 1.703125 
L 7.71875 11.625 
Q 12.109375 9.234375 16.796875 8.0625 
Q 21.484375 6.890625 26.703125 6.890625 
Q 35.15625 6.890625 40.078125 11.328125 
Q 45.015625 15.765625 45.015625 23.390625 
Q 45.015625 31 40.078125 35.4375 
Q 35.15625 39.890625 26.703125 39.890625 
Q 22.75 39.890625 18.8125 39.015625 
Q 14.890625 38.140625 10.796875 36.28125 
z
" id="DejaVuSans-35"/>
      </defs>
      <g transform="translate(153.808437 278.406437)scale(0.1 -0.1)">
       <use xlink:href="#DejaVuSans-30"/>
       <use x="63.623047" xlink:href="#DejaVuSans-2e"/>
       <use x="95.410156" xlink:href="#DejaVuSans-35"/>
      </g>
     </g>
    </g>
    <g id="xtick_3">
     <g id="line2d_3">
      <g>
       <use style="stroke:#000000;stroke-width:0.8;" x="236.16" xlink:href="#m25fe0e6853" y="263.808"/>
      </g>
     </g>
     <g id="text_3">
      <!-- 1.0 -->
      <defs>
       <path d="M 12.40625 8.296875 
L 28.515625 8.296875 
L 28.515625 63.921875 
L 10.984375 60.40625 
L 10.984375 69.390625 
L 28.421875 72.90625 
L 38.28125 72.90625 
L 38.28125 8.296875 
L 54.390625 8.296875 
L 54.390625 0 
L 12.40625 0 
z
" id="DejaVuSans-31"/>
      </defs>
      <g transform="translate(228.208437 278.406437)scale(0.1 -0.1)">
       <use xlink:href="#DejaVuSans-31"/>
       <use x="63.623047" xlink:href="#DejaVuSans-2e"/>
       <use x="95.410156" xlink:href="#DejaVuSans-30"/>
      </g>
     </g>
    </g>
    <g id="xtick_4">
     <g id="line2d_4">
      <g>
       <use style="stroke:#000000;stroke-width:0.8;" x="310.56" xlink:href="#m25fe0e6853" y="263.808"/>
      </g>
     </g>
     <g id="text_4">
      <!-- 1.5 -->
      <g transform="translate(302.608437 278.406437)scale(0.1 -0.1)">
       <use xlink:href="#DejaVuSans-31"/>
       <use x="63.623047" xlink:href="#DejaVuSans-2e"/>
       <use x="95.410156" xlink:href="#DejaVuSans-35"/>
      </g>
     </g>
    </g>
    <g id="xtick_5">
     <g id="line2d_5">
      <g>
       <use style="stroke:#000000;stroke-width:0.8;" x="384.96" xlink:href="#m25fe0e6853" y="263.808"/>
      </g>
     </g>
     <g id="text_5">
      <!-- 2.0 -->
      <defs>
       <path d="M 19.1875 8.296875 
L 53.609375 8.296875 
L 53.609375 0 
L 7.328125 0 
L 7.328125 8.296875 
Q 12.9375 14.109375 22.625 23.890625 
Q 32.328125 33.6875 34.8125 36.53125 
Q 39.546875 41.84375 41.421875 45.53125 
Q 43.3125 49.21875 43.3125 52.78125 
Q 43.3125 58.59375 39.234375 62.25 
Q 35.15625 65.921875 28.609375 65.921875 
Q 23.96875 65.921875 18.8125 64.3125 
Q 13.671875 62.703125 7.8125 59.421875 
L 7.8125 69.390625 
Q 13.765625 71.78125 18.9375 73 
Q 24.125 74.21875 28.421875 74.21875 
Q 39.75 74.21875 46.484375 68.546875 
Q 53.21875 62.890625 53.21875 53.421875 
Q 53.21875 48.921875 51.53125 44.890625 
Q 49.859375 40.875 45.40625 35.40625 
Q 44.1875 33.984375 37.640625 27.21875 
Q 31.109375 20.453125 19.1875 8.296875 
z
" id="DejaVuSans-32"/>
      </defs>
      <g transform="translate(377.008437 278.406437)scale(0.1 -0.1)">
       <use xlink:href="#DejaVuSans-32"/>
       <use x="63.623047" xlink:href="#DejaVuSans-2e"/>
       <use x="95.410156" xlink:href="#DejaVuSans-30"/>
      </g>
     </g>
    </g>
   </g>
   <g id="matplotlib.axis_2">
    <g id="ytick_1">
     <g id="line2d_6">
      <defs>
       <path d="M 0 0 
L -3.5 0 
" id="m4936ed94ae" style="stroke:#000000;stroke-width:0.8;"/>
      </defs>
      <g>
       <use style="stroke:#000000;stroke-width:0.8;" x="57.6" xlink:href="#m4936ed94ae" y="248.928"/>
      </g>
     </g>
     <g id="text_6">
      <!-- 0.0 -->
      <g transform="translate(34.696875 252.727219)scale(0.1 -0.1)">
       <use xlink:href="#DejaVuSans-30"/>
       <use x="63.623047" xlink:href="#DejaVuSans-2e"/>
       <use x="95.410156" xlink:href="#DejaVuSans-30"/>
      </g>
     </g>
    </g>
    <g id="ytick_2">
     <g id="line2d_7">
      <g>
       <use style="stroke:#000000;stroke-width:0.8;" x="57.6" xlink:href="#m4936ed94ae" y="219.168"/>
      </g>
     </g>
     <g id="text_7">
      <!-- 0.2 -->
      <g transform="translate(34.696875 222.967219)scale(0.1 -0.1)">
       <use xlink:href="#DejaVuSans-30"/>
       <use x="63.623047" xlink:href="#DejaVuSans-2e"/>
       <use x="95.410156" xlink:href="#DejaVuSans-32"/>
      </g>
     </g>
    </g>
    <g id="ytick_3">
     <g id="line2d_8">
      <g>
       <use style="stroke:#000000;stroke-width:0.8;" x="57.6" xlink:href="#m4936ed94ae" y="189.408"/>
      </g>
     </g>
     <g id="text_8">
      <!-- 0.4 -->
      <defs>
       <path d="M 37.796875 64.3125 
L 12.890625 25.390625 
L 37.796875 25.390625 
z
M 35.203125 72.90625 
L 47.609375 72.90625 
L 47.609375 25.390625 
L 58.015625 25.390625 
L 58.015625 17.1875 
L 47.609375 17.1875 
L 47.609375 0 
L 37.796875 0 
L 37.796875 17.1875 
L 4.890625 17.1875 
L 4.890625 26.703125 
z
" id="DejaVuSans-34"/>
      </defs>
      <g transform="translate(34.696875 193.207219)scale(0.1 -0.1)">
       <use xlink:href="#DejaVuSans-30"/>
       <use x="63.623047" xlink:href="#DejaVuSans-2e"/>
       <use x="95.410156" xlink:href="#DejaVuSans-34"/>
      </g>
     </g>
    </g>
    <g id="ytick_4">
     <g id="line2d_9">
      <g>
       <use style="stroke:#000000;stroke-width:0.8;" x="57.6" xlink:href="#m4936ed94ae" y="159.648"/>
      </g>
     </g>
     <g id="text_9">
      <!-- 0.6 -->
      <defs>
       <path d="M 33.015625 40.375 
Q 26.375 40.375 22.484375 35.828125 
Q 18.609375 31.296875 18.609375 23.390625 
Q 18.609375 15.53125 22.484375 10.953125 
Q 26.375 6.390625 33.015625 6.390625 
Q 39.65625 6.390625 43.53125 10.953125 
Q 47.40625 15.53125 47.40625 23.390625 
Q 47.40625 31.296875 43.53125 35.828125 
Q 39.65625 40.375 33.015625 40.375 
z
M 52.59375 71.296875 
L 52.59375 62.3125 
Q 48.875 64.0625 45.09375 64.984375 
Q 41.3125 65.921875 37.59375 65.921875 
Q 27.828125 65.921875 22.671875 59.328125 
Q 17.53125 52.734375 16.796875 39.40625 
Q 19.671875 43.65625 24.015625 45.921875 
Q 28.375 48.1875 33.59375 48.1875 
Q 44.578125 48.1875 50.953125 41.515625 
Q 57.328125 34.859375 57.328125 23.390625 
Q 57.328125 12.15625 50.6875 5.359375 
Q 44.046875 -1.421875 33.015625 -1.421875 
Q 20.359375 -1.421875 13.671875 8.265625 
Q 6.984375 17.96875 6.984375 36.375 
Q 6.984375 53.65625 15.1875 63.9375 
Q 23.390625 74.21875 37.203125 74.21875 
Q 40.921875 74.21875 44.703125 73.484375 
Q 48.484375 72.75 52.59375 71.296875 
z
" id="DejaVuSans-36"/>
      </defs>
      <g transform="translate(34.696875 163.447219)scale(0.1 -0.1)">
       <use xlink:href="#DejaVuSans-30"/>
       <use x="63.623047" xlink:href="#DejaVuSans-2e"/>
       <use x="95.410156" xlink:href="#DejaVuSans-36"/>
      </g>
     </g>
    </g>
    <g id="ytick_5">
     <g id="line2d_10">
      <g>
       <use style="stroke:#000000;stroke-width:0.8;" x="57.6" xlink:href="#m4936ed94ae" y="129.888"/>
      </g>
     </g>
     <g id="text_10">
      <!-- 0.8 -->
      <defs>
       <path d="M 31.78125 34.625 
Q 24.75 34.625 20.71875 30.859375 
Q 16.703125 27.09375 16.703125 20.515625 
Q 16.703125 13.921875 20.71875 10.15625 
Q 24.75 6.390625 31.78125 6.390625 
Q 38.8125 6.390625 42.859375 10.171875 
Q 46.921875 13.96875 46.921875 20.515625 
Q 46.921875 27.09375 42.890625 30.859375 
Q 38.875 34.625 31.78125 34.625 
z
M 21.921875 38.8125 
Q 15.578125 40.375 12.03125 44.71875 
Q 8.5 49.078125 8.5 55.328125 
Q 8.5 64.0625 14.71875 69.140625 
Q 20.953125 74.21875 31.78125 74.21875 
Q 42.671875 74.21875 48.875 69.140625 
Q 55.078125 64.0625 55.078125 55.328125 
Q 55.078125 49.078125 51.53125 44.71875 
Q 48 40.375 41.703125 38.8125 
Q 48.828125 37.15625 52.796875 32.3125 
Q 56.78125 27.484375 56.78125 20.515625 
Q 56.78125 9.90625 50.3125 4.234375 
Q 43.84375 -1.421875 31.78125 -1.421875 
Q 19.734375 -1.421875 13.25 4.234375 
Q 6.78125 9.90625 6.78125 20.515625 
Q 6.78125 27.484375 10.78125 32.3125 
Q 14.796875 37.15625 21.921875 38.8125 
z
M 18.3125 54.390625 
Q 18.3125 48.734375 21.84375 45.5625 
Q 25.390625 42.390625 31.78125 42.390625 
Q 38.140625 42.390625 41.71875 45.5625 
Q 45.3125 48.734375 45.3125 54.390625 
Q 45.3125 60.0625 41.71875 63.234375 
Q 38.140625 66.40625 31.78125 66.40625 
Q 25.390625 66.40625 21.84375 63.234375 
Q 18.3125 60.0625 18.3125 54.390625 
z
" id="DejaVuSans-38"/>
      </defs>
      <g transform="translate(34.696875 133.687219)scale(0.1 -0.1)">
       <use xlink:href="#DejaVuSans-30"/>
       <use x="63.623047" xlink:href="#DejaVuSans-2e"/>
       <use x="95.410156" xlink:href="#DejaVuSans-38"/>
      </g>
     </g>
    </g>
    <g id="ytick_6">
     <g id="line2d_11">
      <g>
       <use style="stroke:#000000;stroke-width:0.8;" x="57.6" xlink:href="#m4936ed94ae" y="100.128"/>
      </g>
     </g>
     <g id="text_11">
      <!-- 1.0 -->
      <g transform="translate(34.696875 103.927219)scale(0.1 -0.1)">
       <use xlink:href="#DejaVuSans-31"/>
       <use x="63.623047" xlink:href="#DejaVuSans-2e"/>
       <use x="95.410156" xlink:href="#DejaVuSans-30"/>
      </g>
     </g>
    </g>
   </g>
   <g id="line2d_12">
    <path clip-path="url(#pa76da54b13)" d="M 236.16 248.928 
L 236.16 100.128 
" style="fill:none;stroke:#cc0000;stroke-dasharray:7.4,3.2;stroke-dashoffset:0;stroke-width:2;"/>
   </g>
   <g id="line2d_13">
    <path clip-path="url(#pa76da54b13)" d="M 87.36 248.928 
L 384.96 248.928 
" style="fill:none;stroke:#009900;stroke-linecap:square;stroke-width:2;"/>
   </g>
   <g id="line2d_14">
    <path clip-path="url(#pa76da54b13)" d="M 384.96 248.928 
L 384.96 100.128 
" style="fill:none;stroke:#009900;stroke-linecap:square;stroke-width:2;"/>
   </g>
   <g id="line2d_15">
    <path clip-path="url(#pa76da54b13)" d="M 384.96 100.128 
L 87.36 100.128 
" style="fill:none;stroke:#009900;stroke-linecap:square;stroke-width:2;"/>
   </g>
   <g id="line2d_16">
    <path clip-path="url(#pa76da54b13)" d="M 87.36 100.128 
L 87.36 248.928 
" style="fill:none;stroke:#009900;stroke-linecap:square;stroke-width:2;"/>
   </g>
   <g id="line2d_17">
    <path clip-path="url(#pa76da54b13)" d="M 147.216376 235.127002 
L 143.831501 230.231678 
L 140.253573 225.475628 
L 136.488315 220.866462 
L 132.541752 216.411553 
L 128.420196 212.118027 
L 124.130242 207.992754 
L 119.678753 204.042333 
L 115.07285 200.273085 
L 110.319901 196.691038 
L 105.42751 193.301924 
L 100.403505 190.111164 
L 95.255921 187.123863 
L 89.992996 184.3448 
L 87.36 183.053453 
L 92.676672 180.378648 
L 97.882128 177.493374 
L 102.96804 174.402244 
L 107.926271 171.110205 
L 112.74889 167.622522 
L 117.428181 163.944776 
L 121.956659 160.082851 
L 126.327078 156.042923 
L 130.532448 151.831457 
L 134.56604 147.45519 
L 138.421402 142.921122 
L 142.092365 138.236508 
L 145.573057 133.408842 
L 148.85791 128.445847 
L 151.941669 123.355462 
L 154.8194 118.145832 
L 157.486499 112.825291 
L 159.9387 107.40235 
L 162.17208 101.885684 
L 162.830402 100.128 
L 164.99402 105.672397 
L 167.377624 111.125838 
L 169.9774 116.479597 
L 172.789191 121.725111 
L 175.808497 126.853988 
L 179.030488 131.858021 
L 182.45001 136.729207 
L 186.061592 141.459752 
L 189.859456 146.042088 
L 193.837527 150.468885 
L 197.989441 154.733061 
L 202.308555 158.827793 
L 206.78796 162.746532 
L 211.42049 166.483007 
L 216.198733 170.031242 
L 221.115046 173.38556 
L 226.161564 176.540595 
L 231.330212 179.491299 
L 236.16 182.008406 
L 243.422808 183.621581 
L 250.723672 185.0527 
L 258.058029 186.30087 
L 265.421295 187.365309 
L 272.808868 188.245354 
L 280.216132 188.940453 
L 287.638457 189.450173 
L 294.233171 189.74697 
L 294.05593 197.184665 
L 294.064668 204.624466 
L 294.259378 212.061724 
L 294.63994 219.491791 
L 295.206115 226.910022 
L 295.95755 234.311783 
L 296.893775 241.692447 
L 297.99451 248.928 
L 299.111948 241.572591 
L 300.045172 234.191547 
L 300.793596 226.789481 
L 301.356755 219.371019 
L 301.734295 211.940799 
L 301.925982 204.503462 
L 301.931694 197.063658 
L 301.902182 195.100423 
L 303.142902 189.279582 
L 304.615401 183.513012 
L 306.317323 177.809939 
L 308.245946 172.179486 
L 310.398185 166.630662 
L 312.770596 161.172343 
L 315.359383 155.813261 
L 316.777493 153.091462 
L 316.219117 159.016814 
L 315.424236 164.915097 
L 314.394122 170.776875 
L 313.130424 176.592771 
L 311.635163 182.353481 
L 309.910731 188.049788 
L 307.959886 193.67258 
L 306.866473 196.540275 
L 302.849073 202.802161 
L 298.989459 209.162514 
L 295.290043 215.617361 
L 291.753138 222.162666 
L 288.380953 228.794339 
L 285.175597 235.508236 
L 282.139072 242.30016 
L 279.36921 248.928 
L 276.497499 242.064765 
L 273.455122 235.275461 
L 270.243981 228.564329 
L 266.866082 221.935564 
L 263.323537 215.39331 
L 259.61856 208.941654 
L 255.753465 202.58463 
L 251.73067 196.326209 
L 247.552687 190.170303 
L 243.222129 184.120759 
L 238.7417 178.181358 
L 236.16 174.894453 
L 240.723399 169.018561 
L 245.13849 163.030433 
L 249.402514 156.933809 
L 253.512806 150.732501 
L 257.466796 144.430385 
L 261.262015 138.031398 
L 264.89609 131.53954 
L 268.36675 124.958868 
L 271.671825 118.293496 
L 274.809251 111.547587 
L 277.777066 104.72536 
L 279.664032 100.128 
L 282.517515 106.998834 
L 285.541859 113.79619 
L 288.735174 120.515822 
L 292.095465 127.15353 
L 295.620631 133.705165 
L 299.308469 140.166633 
L 303.156675 146.533895 
L 306.963861 152.499605 
L 309.009496 158.088608 
L 310.829994 163.754945 
L 312.422443 169.489549 
L 313.784295 175.283247 
L 314.913371 181.126771 
L 315.807866 187.010771 
L 316.466348 192.925835 
L 316.713174 195.983089 
L 314.026583 190.672363 
L 311.554514 185.25845 
L 309.300921 179.750011 
L 307.26941 174.155859 
L 305.46323 168.484942 
L 303.88527 162.746334 
L 302.538057 156.949214 
L 301.934609 153.94196 
L 302.000201 146.502443 
L 301.879803 139.063611 
L 301.573492 131.630113 
L 301.081458 124.206595 
L 300.40401 116.797697 
L 299.541569 109.408047 
L 298.494677 102.042266 
L 298.191761 100.128 
L 297.096923 107.486807 
L 296.186377 114.870683 
L 295.460693 122.275013 
L 294.920326 129.695169 
L 294.565611 137.126515 
L 294.396772 144.564405 
L 294.413914 152.004192 
L 294.597022 158.927816 
L 296.90089 164.415418 
L 298.98347 169.99076 
L 300.841429 175.644924 
L 302.471796 181.368864 
L 303.871962 187.153422 
L 305.039688 192.989345 
L 305.59324 196.28837 
L 309.069765 191.457702 
L 312.736685 186.769922 
L 316.588132 182.232529 
L 320.617946 177.852782 
L 324.81968 173.637689 
L 329.186612 169.593991 
L 331.710873 167.398976 
L 335.109313 160.78072 
L 338.341251 154.079579 
L 341.404669 147.299742 
L 344.297651 140.445446 
L 347.01839 133.520975 
L 349.565185 126.530656 
L 351.936444 119.478859 
L 354.130686 112.36999 
L 356.146538 105.208492 
L 357.460419 100.128 
L 359.349683 107.323929 
L 361.418236 114.470383 
L 363.664786 121.562896 
L 366.087928 128.597034 
L 368.686148 135.568402 
L 371.457822 142.472642 
L 374.401218 149.305441 
L 377.514497 156.062527 
L 380.795712 162.739678 
L 384.242813 169.332721 
L 384.96 170.65563 
L 381.479605 177.231158 
L 378.164669 183.891632 
L 375.017264 190.63289 
L 372.039356 197.450718 
L 369.232806 204.340856 
L 366.599369 211.298997 
L 364.14069 218.320792 
L 361.858306 225.401854 
L 359.753643 232.537757 
L 357.828017 239.724042 
L 356.082631 246.956216 
L 355.639812 248.928 
L 353.943577 241.68414 
L 352.066795 234.484945 
L 350.010638 227.334915 
L 347.776391 220.238517 
L 345.365451 213.200188 
L 342.779325 206.224325 
L 340.019628 199.315288 
L 337.088086 192.477395 
L 333.98653 185.71492 
L 331.836433 181.273056 
L 338.328751 177.639804 
L 344.728219 173.845396 
L 351.030836 169.892204 
L 357.232665 165.782698 
L 363.329829 161.519446 
L 369.318517 157.105114 
L 375.194987 152.542459 
L 380.955566 147.834334 
L 384.96 144.41638 
L 379.283609 139.607086 
L 373.488773 134.94119 
L 367.579112 130.421608 
L 361.55832 126.051164 
L 355.430159 121.83259 
L 349.19846 117.768522 
L 342.867118 113.861501 
L 336.440088 110.113967 
L 329.921388 106.528264 
L 323.315092 103.106631 
L 317.211018 100.128 
L 310.528356 103.397977 
L 303.929524 106.833982 
L 297.418645 110.433866 
L 290.999788 114.195381 
L 284.676965 118.116175 
L 278.454127 122.193798 
L 272.335164 126.425701 
L 266.323899 130.80924 
L 260.42409 135.341676 
L 254.639424 140.020175 
L 248.973515 144.841813 
L 243.429906 149.803578 
L 238.01206 154.902368 
L 236.16 156.705134 
L 241.53336 161.850784 
L 247.03367 166.860506 
L 252.65749 171.73117 
L 258.401307 176.45973 
L 264.261531 181.043233 
L 270.234499 185.478812 
L 276.316478 189.763698 
L 282.503669 193.89521 
L 288.792202 197.870768 
L 295.17815 201.687886 
L 301.657519 205.34418 
L 308.226262 208.837364 
L 314.880273 212.165255 
L 321.615393 215.325773 
L 328.427414 218.316942 
L 335.312077 221.136895 
L 342.26508 223.783867 
L 349.282078 226.256206 
L 356.358685 228.552365 
L 363.490479 230.67091 
L 370.673002 232.610517 
L 377.901767 234.369973 
L 384.96 235.904795 
L 377.690664 237.488294 
L 370.463182 239.253012 
L 363.282073 241.197846 
L 356.151823 243.321582 
L 349.076889 245.622892 
L 342.061693 248.100338 
L 339.835666 248.928 
L 332.840464 246.394651 
L 325.78412 244.036955 
L 318.671045 241.856386 
L 311.505684 239.854307 
L 304.292516 238.031968 
L 297.036048 236.39051 
L 289.740815 234.930957 
L 282.411376 233.654223 
L 275.052313 232.561104 
L 267.668225 231.652284 
L 260.263726 230.928331 
L 252.843443 230.389697 
L 245.412015 230.03672 
L 237.974086 229.869619 
L 231.696285 229.889515 
L 225.749998 230.140998 
L 219.818523 230.630068 
L 213.91135 231.355942 
L 208.03793 232.31746 
L 202.207659 233.513083 
L 196.429863 234.940898 
L 190.713786 236.598621 
L 185.068573 238.4836 
L 179.503254 240.59282 
L 174.026733 242.922906 
L 168.647771 245.47013 
L 163.374974 248.230418 
L 162.119314 248.928 
L 156.873408 246.116941 
L 151.519286 243.51791 
L 146.065513 241.135067 
L 140.520815 238.972222 
L 134.894061 237.032836 
L 129.194252 235.320011 
L 123.430509 233.836488 
L 117.612051 232.58464 
L 111.748186 231.56647 
L 105.848296 230.783606 
L 99.921818 230.237301 
L 93.978235 229.928429 
L 88.027055 229.857484 
L 87.36 229.864368 
L 96.285304 229.708718 
L 102.223379 229.307661 
L 108.140666 228.669465 
L 114.027699 227.795151 
L 119.875059 226.686118 
L 125.673393 225.34414 
L 131.413424 223.771364 
L 137.08597 221.970306 
L 142.681954 219.943848 
L 148.192426 217.69523 
L 153.60857 215.228051 
L 158.92172 212.546258 
L 160.484027 211.70611 
L 165.56421 214.806646 
L 170.764318 217.701548 
L 176.076031 220.386186 
L 181.490853 222.856265 
L 187.00012 225.107833 
L 192.595019 227.137288 
L 198.266599 228.941383 
L 204.005787 230.517232 
L 209.803401 231.862315 
L 215.650167 232.974479 
L 221.536731 233.851945 
L 227.453676 234.493309 
L 233.391535 234.897546 
L 236.16 235.004637 
L 234.672884 235.055745 
L 228.731761 235.408786 
L 222.809508 235.999126 
L 216.9156 236.825821 
L 211.059465 237.887548 
L 205.250472 239.182609 
L 199.497914 240.708932 
L 193.810995 242.464075 
L 188.198811 244.44523 
L 182.670342 246.649228 
L 177.54289 248.928 
L 172.101446 246.517136 
L 166.567945 244.3258 
L 160.951241 242.357498 
L 155.260318 240.615379 
L 149.504281 239.10223 
L 143.692339 237.820471 
L 137.833789 236.772152 
L 131.938003 235.958952 
L 126.014415 235.382171 
L 120.072499 235.042732 
L 114.121762 234.941178 
L 108.171724 235.07767 
L 102.231904 235.451992 
L 96.311804 236.063543 
L 90.420895 236.911347 
L 87.36 237.44742 
L 93.23192 238.418055 
L 99.137959 239.1531 
L 105.068667 239.651378 
L 111.014557 239.912093 
L 116.966117 239.934826 
L 122.913825 239.719543 
L 128.848167 239.266587 
L 134.759648 238.576683 
L 140.638812 237.650935 
L 146.476254 236.490823 
L 152.262634 235.098204 
L 157.988695 233.475305 
L 163.645278 231.624723 
L 169.223332 229.549418 
L 174.713935 227.252711 
L 180.108302 224.738275 
L 185.397803 222.010134 
L 190.573977 219.072651 
L 195.628542 215.930525 
L 200.553413 212.588785 
L 205.34071 209.052775 
L 209.982775 205.328153 
L 214.472182 201.420877 
L 218.801749 197.337198 
L 222.964549 193.08365 
L 226.953922 188.667035 
L 230.763487 184.094422 
L 234.387149 179.373124 
L 236.16 176.912924 
L 232.633302 172.118763 
L 228.917709 167.469467 
L 225.019166 162.972474 
L 220.94391 158.634979 
L 216.69846 154.463919 
L 212.289609 150.465969 
L 207.724408 146.647524 
L 203.010162 143.014692 
L 198.154412 139.573286 
L 193.164927 136.328811 
L 188.049689 133.286457 
L 182.81688 130.451092 
L 177.474873 127.827251 
L 172.032213 125.419133 
L 166.497608 123.230589 
L 160.879911 121.265121 
L 155.18811 119.525872 
L 149.431311 118.015627 
L 143.618723 116.7368 
L 137.759644 115.691437 
L 131.86345 114.881212 
L 125.939571 114.307419 
L 119.997484 113.970977 
L 114.046697 113.872425 
L 108.096729 114.011919 
L 102.157098 114.389237 
L 96.237307 115.003775 
L 90.346827 115.85455 
L 87.36 116.378428 
L 93.23192 117.349063 
L 99.137959 118.084108 
L 105.068667 118.582386 
L 111.014557 118.843101 
L 116.966117 118.865834 
L 122.913825 118.650551 
L 128.848167 118.197595 
L 134.759648 117.507691 
L 140.638812 116.581943 
L 146.476254 115.421831 
L 152.262634 114.029212 
L 157.988695 112.406313 
L 163.645278 110.555731 
L 169.223332 108.480426 
L 174.713935 106.183719 
L 180.108302 103.669283 
L 185.397803 100.941142 
L 186.87969 100.128 
L 192.13786 102.916052 
L 197.503316 105.491603 
L 202.967475 107.850532 
L 208.521595 109.989067 
L 214.156791 111.903786 
L 219.864048 113.591625 
L 225.634235 115.049885 
L 231.458121 116.276232 
L 236.16 117.090627 
L 230.299785 118.129601 
L 224.485806 119.40209 
L 218.727364 120.906058 
L 213.03367 122.639099 
L 207.413834 124.598441 
L 201.876846 126.78095 
L 196.431564 129.183133 
L 191.086699 131.801148 
L 185.850802 134.630806 
L 180.73225 137.667581 
L 176.519743 140.381404 
L 175.421078 134.532087 
L 174.089383 128.731382 
L 172.526786 122.988572 
L 170.735788 117.312842 
L 168.719254 111.713273 
L 166.48041 106.198824 
L 164.022838 100.778314 
L 163.710231 100.128 
L 161.226403 105.536528 
L 158.960846 111.040057 
L 156.917182 116.629782 
L 155.098683 122.29676 
L 153.508258 128.031926 
L 152.14845 133.826104 
L 151.161483 138.869741 
L 147.002193 134.61276 
L 142.675997 130.52551 
L 138.189814 126.614532 
L 133.550823 122.886082 
L 128.766444 119.346124 
L 123.844332 116.000322 
L 118.792361 112.854029 
L 113.618612 109.912277 
L 108.331363 107.179772 
L 102.939072 104.660887 
L 97.450366 102.359651 
L 91.438765 100.128 
L 87.36 101.60989 
L 92.964777 103.611903 
L 98.64513 105.388183 
L 104.391971 106.935889 
L 110.196108 108.252544 
L 116.048254 109.336043 
L 121.939047 110.184652 
L 127.859063 110.797013 
L 133.798832 111.172147 
L 139.748851 111.309453 
L 145.699602 111.208712 
L 151.641564 110.870085 
L 157.565231 110.294114 
L 163.461128 109.48172 
L 169.319821 108.434203 
L 175.131939 107.153239 
L 180.888183 105.640876 
L 186.579344 103.899535 
L 192.196317 101.932001 
L 196.799051 100.128 
L 202.347565 102.281037 
L 207.97774 104.210471 
L 213.680568 105.913214 
L 219.446926 107.386543 
L 225.267588 108.628101 
L 231.133244 109.635901 
L 236.16 110.308992 
L 230.263407 111.116314 
L 224.403814 112.158791 
L 218.590597 113.434755 
L 212.833055 114.942166 
L 207.140398 116.678611 
L 201.521734 118.641312 
L 195.986052 120.82713 
L 190.542207 123.232568 
L 185.198908 125.853778 
L 179.964704 128.686566 
L 174.847968 131.7264 
L 169.856886 134.968418 
L 166.124296 137.584896 
L 162.160177 133.145602 
L 158.021704 128.86838 
L 153.715498 124.760075 
L 149.248448 120.827259 
L 144.627701 117.076222 
L 139.860648 113.512967 
L 134.954916 110.143193 
L 129.918353 106.972291 
L 124.759017 104.005335 
L 119.485161 101.24707 
L 117.187878 100.128 
L 111.867433 102.795293 
L 106.657908 105.673213 
L 101.567635 108.757157 
L 96.60476 112.042191 
L 91.77722 115.523059 
L 87.36 118.976495 
L 92.052972 122.636767 
L 96.888563 126.106442 
L 101.859035 129.379971 
L 106.956438 132.452114 
L 112.172616 135.317959 
L 117.499225 137.972919 
L 122.927743 140.412749 
L 128.449487 142.633544 
L 134.055622 144.631752 
L 138.014027 145.892903 
L 137.25231 139.990246 
L 136.255159 134.12277 
L 135.02417 128.299863 
L 133.561311 122.53084 
L 131.868922 116.824931 
L 129.949712 111.191263 
L 127.80675 105.638849 
L 125.421276 100.128 
L 123.056031 105.589428 
L 120.911077 111.141072 
L 118.989845 116.774051 
L 117.295409 122.479353 
L 115.83048 128.24785 
L 114.597401 134.070315 
L 113.598144 139.937432 
L 112.834309 145.839816 
L 112.307118 151.768024 
L 112.017413 157.712572 
L 111.965658 163.663951 
L 112.151937 169.612638 
L 112.57595 175.549118 
L 113.237021 181.463893 
L 114.13409 187.347501 
L 115.265723 193.19053 
L 116.63011 198.983632 
L 118.225068 204.717539 
L 120.048046 210.383078 
L 122.096126 215.971186 
L 124.366033 221.472923 
L 126.854135 226.879486 
L 129.556451 232.182228 
L 132.468659 237.372664 
L 135.5861 242.44249 
L 138.903786 247.383598 
L 140.000924 248.928 
L 143.381248 244.029531 
L 146.56298 238.999804 
L 149.541033 233.846865 
L 152.31064 228.578957 
L 154.867372 223.204508 
L 157.207139 217.732116 
L 159.508142 211.659781 
L 160.527772 207.314476 
L 161.80613 203.038132 
L 163.338614 198.846138 
L 165.119709 194.753581 
L 167.143005 190.775191 
L 169.401221 186.925284 
L 171.886228 183.217717 
L 174.589085 179.665832 
L 177.500063 176.282413 
L 180.608687 173.079637 
L 183.903768 170.069029 
L 187.373447 167.261424 
L 191.005239 164.666928 
L 194.786071 162.294878 
L 196.530056 161.303658 
L 201.219846 157.63931 
L 205.759351 153.790352 
L 210.141307 149.762941 
L 214.358704 145.563519 
L 218.404796 141.198806 
L 222.27311 136.675784 
L 225.957457 132.001688 
L 229.451942 127.183997 
L 232.750976 122.230417 
L 235.849281 117.148873 
L 236.16 116.612989 
L 233.082876 111.518591 
L 229.804492 106.55132 
L 226.330093 101.719123 
L 225.120295 100.128 
L 221.5813 104.913091 
L 218.236488 109.835876 
L 215.091211 114.888481 
L 212.150499 120.062821 
L 209.419059 125.35062 
L 206.901259 130.743417 
L 204.601127 136.232586 
L 202.522344 141.809345 
L 200.668234 147.464772 
L 199.041764 153.18982 
L 197.645535 158.97533 
L 196.93119 162.410765 
L 201.506141 166.217523 
L 206.229662 169.838287 
L 211.094197 173.267264 
L 216.091963 176.498969 
L 221.214965 179.528231 
L 226.455007 182.350205 
L 231.803707 184.960376 
L 236.16 186.895256 
L 230.730441 189.332769 
L 225.4027 191.985457 
L 220.185299 194.849076 
L 215.086586 197.919045 
L 210.114718 201.190452 
L 205.277648 204.658064 
L 200.583114 208.316333 
L 196.038628 212.159408 
L 191.651458 216.181139 
L 187.428624 220.375094 
L 183.376882 224.734562 
L 179.502712 229.25257 
L 175.812314 233.921889 
L 172.31159 238.735049 
L 169.006142 243.684352 
L 165.804328 248.928 
L 162.706009 243.846465 
L 159.406961 238.892894 
L 155.912462 234.075213 
L 152.228102 229.401128 
L 148.359775 224.878116 
L 144.313671 220.513415 
L 140.096262 216.314005 
L 135.714294 212.286606 
L 131.174779 208.437661 
L 126.484978 204.773327 
L 121.652394 201.299465 
L 116.684758 198.021634 
L 111.590017 194.945078 
L 106.376323 192.074718 
L 101.052014 189.415146 
L 95.625611 186.970617 
L 90.105792 184.745041 
L 87.36 183.732077 
L 92.922522 181.615494 
L 98.395955 179.278162 
L 103.77154 176.723821 
L 109.04068 173.956557 
L 114.194943 170.980797 
L 119.226085 167.801302 
L 124.126057 164.423158 
L 126.496455 162.682223 
L 124.741705 156.995182 
L 122.760938 151.382862 
L 120.557322 145.85424 
L 118.134383 140.418162 
L 115.495996 135.083324 
L 112.646384 129.85826 
L 109.590104 124.75133 
L 106.332046 119.770704 
L 102.877422 114.924349 
L 99.231759 110.220019 
L 95.400889 105.66524 
L 91.390941 101.267297 
L 90.298098 100.128 
L 87.36 103.24729 
L 91.464909 107.556733 
L 95.738866 111.698577 
L 100.175034 115.666195 
L 104.766316 119.453241 
L 109.505367 123.053654 
L 114.384605 126.461676 
L 119.396225 129.671855 
L 124.532209 132.679054 
L 129.784341 135.478463 
L 135.144218 138.065604 
L 140.603266 140.436338 
L 144.063165 141.807028 
L 145.213688 135.967689 
L 146.129781 130.087013 
L 146.809976 124.174406 
L 147.253186 118.239329 
L 147.458702 112.291275 
L 147.426194 106.339761 
L 147.138018 100.128 
L 146.856876 106.072959 
L 146.813693 112.024406 
L 147.00854 117.972819 
L 147.441104 123.908682 
L 148.110693 129.822499 
L 149.016236 135.704809 
L 149.696819 139.338233 
L 150.73138 143.680008 
L 151.503729 148.076005 
L 152.011087 152.510406 
L 152.251627 156.96725 
L 152.224484 161.430498 
L 151.929756 165.884086 
L 151.368503 170.311988 
L 150.542746 174.698267 
L 149.455455 179.027137 
L 148.110545 183.28302 
L 146.512855 187.450597 
L 144.668135 191.514872 
L 142.583024 195.461216 
L 140.265027 199.275428 
L 137.733833 202.92841 
L 140.930919 199.813934 
L 144.309009 196.896773 
L 147.855944 194.187425 
L 151.558961 191.695641 
L 155.404731 189.430389 
L 159.379414 187.39982 
L 163.468707 185.611243 
L 167.657891 184.071095 
L 171.93189 182.784919 
L 176.275323 181.757344 
L 180.672557 180.992067 
L 185.107768 180.491843 
L 189.564993 180.258472 
L 194.028191 180.292794 
L 198.462287 180.592825 
L 194.149078 179.44498 
L 189.91246 178.040565 
L 185.76768 176.384631 
L 181.729654 174.48314 
L 177.812916 172.342934 
L 174.031561 169.971716 
L 170.399199 167.37802 
L 166.928901 164.571181 
L 163.633157 161.561299 
L 160.523828 158.359207 
L 157.612104 154.976429 
L 154.908465 151.42514 
L 152.422641 147.71812 
L 150.163577 143.868711 
L 148.147556 139.908044 
L 149.373714 144.199646 
L 150.340325 148.557052 
L 151.043908 152.964578 
L 151.481933 157.406363 
L 151.652822 161.866421 
L 151.555961 166.3287 
L 151.191697 170.777142 
L 150.561343 175.195736 
L 149.667167 179.56858 
L 148.512386 183.879937 
L 147.101157 188.114291 
L 145.438559 192.256402 
L 143.530575 196.291364 
L 141.384072 200.204654 
L 139.017428 203.966332 
L 142.073198 200.713089 
L 145.318546 197.648937 
L 148.741793 194.784902 
L 152.33062 192.131292 
L 156.072109 189.697658 
L 159.952797 187.492758 
L 163.958716 185.524527 
L 168.075449 183.800049 
L 172.288181 182.32553 
L 176.58175 181.106276 
L 180.940705 180.146676 
L 185.349358 179.450183 
L 189.791841 179.019304 
L 194.252168 178.855589 
L 198.695209 178.958613 
L 194.335324 178.003248 
L 190.040572 176.788166 
L 185.82641 175.317739 
L 181.708003 173.597261 
L 177.700174 171.632923 
L 173.817347 169.431793 
L 170.073495 167.001795 
L 166.482093 164.351673 
L 163.056065 161.490965 
L 159.807741 158.429966 
L 156.748813 155.179693 
L 153.890288 151.751843 
L 151.242455 148.158753 
L 148.814842 144.413354 
L 146.625097 140.546024 
L 148.040439 144.779005 
L 149.199407 149.089238 
L 150.097831 153.461211 
L 150.732477 157.879191 
L 151.101061 162.327276 
L 151.202257 166.789459 
L 151.035701 171.249681 
L 150.601992 175.691889 
L 149.90269 180.100097 
L 148.940313 184.45844 
L 147.718324 188.751232 
L 146.241121 192.963023 
L 144.514021 197.078657 
L 142.543238 201.083321 
L 138.341178 208.934681 
L 135.856139 214.342652 
L 133.589348 219.845673 
L 131.544433 225.43494 
L 129.724664 231.101511 
L 128.132954 236.83632 
L 126.771848 242.630194 
L 125.565947 248.928 
L 124.455721 243.080866 
L 123.11256 237.282806 
L 121.538614 231.543095 
L 119.736399 225.870918 
L 117.708799 220.275346 
L 115.459057 214.765333 
L 112.990774 209.349693 
L 110.307897 204.03709 
L 107.414718 198.836023 
L 104.315867 193.754812 
L 101.0163 188.801587 
L 97.521296 183.984271 
L 93.836447 179.310572 
L 89.967647 174.787966 
L 87.36 171.935713 
L 91.344946 167.515104 
L 95.149926 162.938675 
L 98.768855 158.213748 
L 102.195942 153.347882 
L 105.425706 148.348861 
L 108.452978 143.224683 
L 111.272917 137.983544 
L 113.88101 132.633831 
L 116.273085 127.184101 
L 118.445316 121.643073 
L 120.394228 116.019611 
L 122.116701 110.322712 
L 123.609982 104.561488 
L 124.593735 100.128 
L 125.910511 105.932109 
L 127.458335 111.678919 
L 129.234733 117.359235 
L 131.236862 122.96397 
L 133.461519 128.484159 
L 135.905145 133.910969 
L 138.563832 139.23572 
L 140.986083 143.668895 
L 137.207039 139.071025 
L 133.247151 134.627955 
L 129.112756 130.346793 
L 124.810466 126.234386 
L 120.347166 122.297314 
L 115.729995 118.541877 
L 110.96634 114.97408 
L 106.063821 111.599633 
L 101.030282 108.423934 
L 95.873776 105.452063 
L 90.60255 102.688774 
L 87.36 101.119517 
L 89.431898 100.128 
L 94.831576 102.63101 
L 100.327029 104.916088 
L 105.909464 106.979579 
L 111.569952 108.818182 
L 117.299436 110.428954 
L 123.088751 111.80932 
L 128.928636 112.957071 
L 134.809746 113.870371 
L 140.722675 114.547759 
L 146.657963 114.98815 
L 152.606113 115.190841 
L 158.557612 115.155508 
L 164.502936 114.882206 
L 170.432576 114.371373 
L 176.337046 113.623827 
L 182.206898 112.640763 
L 188.032743 111.423753 
L 193.80526 109.974746 
L 199.515215 108.296058 
L 205.153474 106.390376 
L 210.711015 104.260748 
L 216.178948 101.910581 
L 219.965385 100.128 
L 225.365063 102.63101 
L 230.860516 104.916088 
L 236.16 106.881056 
L 243.509995 108.033571 
L 250.886503 109.001995 
L 258.284914 109.785723 
L 265.700605 110.384265 
L 273.12894 110.797247 
L 280.565277 111.024411 
L 288.004969 111.065615 
L 295.443367 110.920833 
L 302.87582 110.590156 
L 310.297686 110.07379 
L 317.704324 109.372059 
L 325.091106 108.485399 
L 332.453416 107.414367 
L 339.786652 106.159631 
L 347.086232 104.721975 
L 354.347593 103.102298 
L 361.566197 101.301611 
L 365.899262 100.128 
L 373.089883 102.037368 
L 380.325986 103.766393 
L 384.96 104.773876 
L 377.697264 106.387377 
L 370.477131 108.181924 
L 363.304114 110.156394 
L 356.182694 112.309554 
L 349.117323 114.640059 
L 342.112416 117.146451 
L 335.172352 119.827164 
L 328.301467 122.680523 
L 321.504056 125.704745 
L 314.784366 128.897939 
L 308.146598 132.25811 
L 301.5949 135.783158 
L 295.133365 139.47088 
L 288.766034 143.318971 
L 282.496884 147.325026 
L 276.329834 151.486542 
L 270.268739 155.800918 
L 264.317385 160.265457 
L 258.479494 164.87737 
L 252.758712 169.633773 
L 247.158615 174.531695 
L 241.682704 179.568074 
L 236.16 184.912817 
L 235.684379 190.845385 
L 235.446379 196.792228 
L 235.446379 202.743831 
L 235.684379 208.690673 
L 236.16 214.623242 
L 235.684379 220.55581 
L 235.446379 226.502652 
L 235.446379 232.454256 
L 235.684379 238.401098 
L 236.16 244.333666 
L 235.770824 248.928 
L 235.241757 242.999959 
L 234.476055 237.097817 
L 233.474944 231.231016 
L 232.240023 225.408941 
L 230.773269 219.640907 
L 229.077029 213.936142 
L 227.154015 208.303771 
L 225.007306 202.752806 
L 222.640334 197.292126 
L 220.056886 191.930468 
L 217.261095 186.676409 
L 214.257435 181.538354 
L 211.05071 176.524524 
L 207.64605 171.642939 
L 204.048902 166.901409 
L 200.265021 162.307519 
L 196.30046 157.868618 
L 193.180301 154.613063 
L 191.02522 149.065342 
L 188.650013 143.608239 
L 186.05848 138.250485 
L 183.254767 133.000649 
L 180.243359 127.867131 
L 177.029074 122.858144 
L 173.617055 117.9817 
L 170.012758 113.245602 
L 166.221952 108.657425 
L 162.250699 104.22451 
L 158.280905 100.128 
L 154.14266 104.405442 
L 150.178778 108.844948 
L 146.395599 113.439417 
L 142.799176 118.181497 
L 139.395262 123.063602 
L 136.189303 128.077922 
L 133.186428 133.216436 
L 130.391441 138.470922 
L 127.808813 143.832975 
L 125.442676 149.294017 
L 123.296814 154.84531 
L 121.374662 160.477975 
L 119.679293 166.183 
L 118.213421 171.951258 
L 116.979391 177.773521 
L 115.979175 183.640475 
L 115.214376 189.542734 
L 114.686215 195.470856 
L 114.395539 201.415356 
L 114.342812 207.366726 
L 114.528118 213.315444 
L 114.951162 219.251993 
L 115.611265 225.166876 
L 116.507373 231.050631 
L 117.638052 236.893845 
L 119.001492 242.687169 
L 120.748319 248.928 
L 122.362724 243.199538 
L 123.746759 237.411099 
L 124.898212 231.571943 
L 125.815239 225.691412 
L 126.496375 219.778914 
L 126.940529 213.843907 
L 127.14699 207.895886 
L 127.11543 201.944367 
L 126.845897 195.99887 
L 126.338823 190.068907 
L 125.595019 184.163965 
L 124.615676 178.293491 
L 123.40236 172.466876 
L 121.957012 166.693441 
L 120.281944 160.982423 
L 118.379836 155.342958 
L 116.253731 149.784068 
L 113.907031 144.314646 
L 111.343489 138.943442 
L 108.567207 133.679048 
L 105.582626 128.529887 
L 102.394521 123.504197 
L 99.007992 118.610016 
L 95.428456 113.855176 
L 91.661641 109.247282 
L 87.36 104.411921 
L 91.189824 100.128 
L 95.159567 104.562267 
L 99.303458 108.83424 
L 103.614867 112.937084 
L 108.086898 116.864235 
L 112.712396 120.609412 
L 117.483961 124.166623 
L 122.393959 127.530177 
L 127.434537 130.694692 
L 132.59763 133.655107 
L 137.874977 136.406685 
L 143.258137 138.945025 
L 146.793121 140.471686 
L 148.710011 134.837229 
L 150.40005 129.130623 
L 151.860534 123.360998 
L 153.089127 117.537585 
L 154.083862 111.669699 
L 154.843148 105.766728 
L 155.345766 100.128 
L 155.879966 106.055581 
L 156.650778 111.957057 
L 157.65697 117.822989 
L 158.896932 123.643992 
L 160.368679 129.410754 
L 162.069859 135.114049 
L 162.802852 137.34262 
L 164.909021 131.776147 
L 166.790907 126.129901 
L 168.445498 120.412917 
L 169.870147 114.634339 
L 171.062574 108.803414 
L 172.020873 102.929467 
L 172.393465 100.128 
L 173.240033 106.019087 
L 174.321505 111.871608 
L 175.63615 117.6762 
L 177.181865 123.423577 
L 178.956178 129.104545 
L 180.95625 134.710015 
L 183.17888 140.231019 
L 185.620515 145.658726 
L 185.883286 146.210036 
L 191.6237 147.781415 
L 197.42236 149.121982 
L 203.26999 150.229592 
L 209.157236 151.102473 
L 215.074678 151.739229 
L 221.012851 152.138841 
L 226.962253 152.30067 
L 232.913368 152.224457 
L 236.16 152.082404 
L 230.211968 151.876246 
L 224.260451 151.908112 
L 218.314967 152.177948 
L 212.385031 152.685325 
L 206.480127 153.429431 
L 200.609703 154.409074 
L 194.78315 155.622688 
L 193.916 155.824213 
L 197.878227 151.383229 
L 201.659692 146.78735 
L 205.254347 142.04393 
L 208.65644 137.160555 
L 211.860529 132.14504 
L 214.861488 127.005407 
L 217.654516 121.749879 
L 220.235144 116.386863 
L 222.599245 110.92494 
L 224.743037 105.372847 
L 226.538692 100.128 
L 228.474181 105.756096 
L 230.633187 111.30229 
L 233.012254 116.757712 
L 235.607576 122.113632 
L 236.16 123.187066 
L 236.16 123.187066 
" style="fill:none;stroke:#1f77b4;stroke-linecap:square;stroke-width:1.5;"/>
   </g>
   <g id="patch_5">
    <path d="M 57.6 263.808 
L 57.6 85.248 
" style="fill:none;stroke:#000000;stroke-linecap:square;stroke-linejoin:miter;stroke-width:0.8;"/>
   </g>
   <g id="patch_6">
    <path d="M 414.72 263.808 
L 414.72 85.248 
" style="fill:none;stroke:#000000;stroke-linecap:square;stroke-linejoin:miter;stroke-width:0.8;"/>
   </g>
   <g id="patch_7">
    <path d="M 57.6 263.808 
L 414.72 263.808 
" style="fill:none;stroke:#000000;stroke-linecap:square;stroke-linejoin:miter;stroke-width:0.8;"/>
   </g>
   <g id="patch_8">
    <path d="M 57.6 85.248 
L 414.72 85.248 
" style="fill:none;stroke:#000000;stroke-linecap:square;stroke-linejoin:miter;stroke-width:0.8;"/>
   </g>
  </g>
 </g>
 <defs>
  <clipPath id="pa76da54b13">
   <rect height="178.56" width="357.12" x="57.6" y="85.248"/>
  </clipPath>
 </defs>
</svg>
