<?xml version="1.0" encoding="utf-8" standalone="no"?>
<!DOCTYPE svg PUBLIC "-//W3C//DTD SVG 1.1//EN"
  "http://www.w3.org/Graphics/SVG/1.1/DTD/svg11.dtd">
<!-- Created with matplotlib (http://matplotlib.org/) -->
<svg height="345.6pt" version="1.1" viewBox="0 0 460.8 345.6" width="460.8pt" xmlns="http://www.w3.org/2000/svg" xmlns:xlink="http://www.w3.org/1999/xlink">
 <defs>
  <style type="text/css">
*{stroke-linecap:butt;stroke-linejoin:round;}
  </style>
 </defs>
 <g id="figure_1">
  <g id="patch_1">
   <path d="M 0 345.6 
L 460.8 345.6 
L 460.8 0 
L 0 0 
z
" style="fill:#ffffff;"/>
  </g>
  <g id="axes_1">
   <g id="patch_2">
    <path d="M 57.6 263.808 
L 414.72 263.808 
L 414.72 85.248 
L 57.6 85.248 
z
" style="fill:#ffffff;"/>
   </g>
   <g id="PathCollection_1">
    <defs>
     <path d="M 0 3 
C 0.795609 3 1.55874 2.683901 2.12132 2.12132 
C 2.683901 1.55874 3 0.795609 3 0 
C 3 -0.795609 2.683901 -1.55874 2.12132 -2.12132 
C 1.55874 -2.683901 0.795609 -3 0 -3 
C -0.795609 -3 -1.55874 -2.683901 -2.12132 -2.12132 
C -2.683901 -1.55874 -3 -0.795609 -3 0 
C -3 0.795609 -2.683901 1.55874 -2.12132 2.12132 
C -1.55874 2.683901 -0.795609 3 0 3 
z
" id="mc82fb85302" style="stroke:#000000;"/>
    </defs>
    <g clip-path="url(#pc82edc8458)">
     <use style="stroke:#000000;" x="204.687753" xlink:href="#mc82fb85302" y="161.83602"/>
    </g>
   </g>
   <g id="patch_3">
    <path clip-path="url(#pc82edc8458)" d="M 161.76 211.728 
C 171.625555 211.728 181.088371 207.808373 188.064372 200.832372 
C 195.040373 193.856371 198.96 184.393555 198.96 174.528 
C 198.96 164.662445 195.040373 155.199629 188.064372 148.223628 
C 181.088371 141.247627 171.625555 137.328 161.76 137.328 
C 151.894445 137.328 142.431629 141.247627 135.455628 148.223628 
C 128.479627 155.199629 124.56 164.662445 124.56 174.528 
C 124.56 184.393555 128.479627 193.856371 135.455628 200.832372 
C 142.431629 207.808373 151.894445 211.728 161.76 211.728 
z
" style="fill:#cc0000;fill-opacity:0.1;stroke:#cc0000;stroke-dasharray:7.4,3.2;stroke-dashoffset:0;stroke-linejoin:miter;stroke-width:2;"/>
   </g>
   <g id="patch_4">
    <path clip-path="url(#pc82edc8458)" d="M 310.56 196.848 
C 316.479333 196.848 322.157023 194.496224 326.342623 190.310623 
C 330.528224 186.125023 332.88 180.447333 332.88 174.528 
C 332.88 168.608667 330.528224 162.930977 326.342623 158.745377 
C 322.157023 154.559776 316.479333 152.208 310.56 152.208 
C 304.640667 152.208 298.962977 154.559776 294.777377 158.745377 
C 290.591776 162.930977 288.24 168.608667 288.24 174.528 
C 288.24 180.447333 290.591776 186.125023 294.777377 190.310623 
C 298.962977 194.496224 304.640667 196.848 310.56 196.848 
z
" style="fill:#cc0000;fill-opacity:0.1;stroke:#cc0000;stroke-dasharray:7.4,3.2;stroke-dashoffset:0;stroke-linejoin:miter;stroke-width:2;"/>
   </g>
   <g id="matplotlib.axis_1">
    <g id="xtick_1">
     <g id="line2d_1">
      <defs>
       <path d="M 0 0 
L 0 3.5 
" id="ma6a7b9b0af" style="stroke:#000000;stroke-width:0.8;"/>
      </defs>
      <g>
       <use style="stroke:#000000;stroke-width:0.8;" x="87.36" xlink:href="#ma6a7b9b0af" y="263.808"/>
      </g>
     </g>
     <g id="text_1">
      <!-- 0.0 -->
      <defs>
       <path d="M 31.78125 66.40625 
Q 24.171875 66.40625 20.328125 58.90625 
Q 16.5 51.421875 16.5 36.375 
Q 16.5 21.390625 20.328125 13.890625 
Q 24.171875 6.390625 31.78125 6.390625 
Q 39.453125 6.390625 43.28125 13.890625 
Q 47.125 21.390625 47.125 36.375 
Q 47.125 51.421875 43.28125 58.90625 
Q 39.453125 66.40625 31.78125 66.40625 
z
M 31.78125 74.21875 
Q 44.046875 74.21875 50.515625 64.515625 
Q 56.984375 54.828125 56.984375 36.375 
Q 56.984375 17.96875 50.515625 8.265625 
Q 44.046875 -1.421875 31.78125 -1.421875 
Q 19.53125 -1.421875 13.0625 8.265625 
Q 6.59375 17.96875 6.59375 36.375 
Q 6.59375 54.828125 13.0625 64.515625 
Q 19.53125 74.21875 31.78125 74.21875 
z
" id="DejaVuSans-30"/>
       <path d="M 10.6875 12.40625 
L 21 12.40625 
L 21 0 
L 10.6875 0 
z
" id="DejaVuSans-2e"/>
      </defs>
      <g transform="translate(79.408438 278.406437)scale(0.1 -0.1)">
       <use xlink:href="#DejaVuSans-30"/>
       <use x="63.623047" xlink:href="#DejaVuSans-2e"/>
       <use x="95.410156" xlink:href="#DejaVuSans-30"/>
      </g>
     </g>
    </g>
    <g id="xtick_2">
     <g id="line2d_2">
      <g>
       <use style="stroke:#000000;stroke-width:0.8;" x="161.76" xlink:href="#ma6a7b9b0af" y="263.808"/>
      </g>
     </g>
     <g id="text_2">
      <!-- 0.5 -->
      <defs>
       <path d="M 10.796875 72.90625 
L 49.515625 72.90625 
L 49.515625 64.59375 
L 19.828125 64.59375 
L 19.828125 46.734375 
Q 21.96875 47.46875 24.109375 47.828125 
Q 26.265625 48.1875 28.421875 48.1875 
Q 40.625 48.1875 47.75 41.5 
Q 54.890625 34.8125 54.890625 23.390625 
Q 54.890625 11.625 47.5625 5.09375 
Q 40.234375 -1.421875 26.90625 -1.421875 
Q 22.3125 -1.421875 17.546875 -0.640625 
Q 12.796875 0.140625 7.71875 1.703125 
L 7.71875 11.625 
Q 12.109375 9.234375 16.796875 8.0625 
Q 21.484375 6.890625 26.703125 6.890625 
Q 35.15625 6.890625 40.078125 11.328125 
Q 45.015625 15.765625 45.015625 23.390625 
Q 45.015625 31 40.078125 35.4375 
Q 35.15625 39.890625 26.703125 39.890625 
Q 22.75 39.890625 18.8125 39.015625 
Q 14.890625 38.140625 10.796875 36.28125 
z
" id="DejaVuSans-35"/>
      </defs>
      <g transform="translate(153.808437 278.406437)scale(0.1 -0.1)">
       <use xlink:href="#DejaVuSans-30"/>
       <use x="63.623047" xlink:href="#DejaVuSans-2e"/>
       <use x="95.410156" xlink:href="#DejaVuSans-35"/>
      </g>
     </g>
    </g>
    <g id="xtick_3">
     <g id="line2d_3">
      <g>
       <use style="stroke:#000000;stroke-width:0.8;" x="236.16" xlink:href="#ma6a7b9b0af" y="263.808"/>
      </g>
     </g>
     <g id="text_3">
      <!-- 1.0 -->
      <defs>
       <path d="M 12.40625 8.296875 
L 28.515625 8.296875 
L 28.515625 63.921875 
L 10.984375 60.40625 
L 10.984375 69.390625 
L 28.421875 72.90625 
L 38.28125 72.90625 
L 38.28125 8.296875 
L 54.390625 8.296875 
L 54.390625 0 
L 12.40625 0 
z
" id="DejaVuSans-31"/>
      </defs>
      <g transform="translate(228.208437 278.406437)scale(0.1 -0.1)">
       <use xlink:href="#DejaVuSans-31"/>
       <use x="63.623047" xlink:href="#DejaVuSans-2e"/>
       <use x="95.410156" xlink:href="#DejaVuSans-30"/>
      </g>
     </g>
    </g>
    <g id="xtick_4">
     <g id="line2d_4">
      <g>
       <use style="stroke:#000000;stroke-width:0.8;" x="310.56" xlink:href="#ma6a7b9b0af" y="263.808"/>
      </g>
     </g>
     <g id="text_4">
      <!-- 1.5 -->
      <g transform="translate(302.608437 278.406437)scale(0.1 -0.1)">
       <use xlink:href="#DejaVuSans-31"/>
       <use x="63.623047" xlink:href="#DejaVuSans-2e"/>
       <use x="95.410156" xlink:href="#DejaVuSans-35"/>
      </g>
     </g>
    </g>
    <g id="xtick_5">
     <g id="line2d_5">
      <g>
       <use style="stroke:#000000;stroke-width:0.8;" x="384.96" xlink:href="#ma6a7b9b0af" y="263.808"/>
      </g>
     </g>
     <g id="text_5">
      <!-- 2.0 -->
      <defs>
       <path d="M 19.1875 8.296875 
L 53.609375 8.296875 
L 53.609375 0 
L 7.328125 0 
L 7.328125 8.296875 
Q 12.9375 14.109375 22.625 23.890625 
Q 32.328125 33.6875 34.8125 36.53125 
Q 39.546875 41.84375 41.421875 45.53125 
Q 43.3125 49.21875 43.3125 52.78125 
Q 43.3125 58.59375 39.234375 62.25 
Q 35.15625 65.921875 28.609375 65.921875 
Q 23.96875 65.921875 18.8125 64.3125 
Q 13.671875 62.703125 7.8125 59.421875 
L 7.8125 69.390625 
Q 13.765625 71.78125 18.9375 73 
Q 24.125 74.21875 28.421875 74.21875 
Q 39.75 74.21875 46.484375 68.546875 
Q 53.21875 62.890625 53.21875 53.421875 
Q 53.21875 48.921875 51.53125 44.890625 
Q 49.859375 40.875 45.40625 35.40625 
Q 44.1875 33.984375 37.640625 27.21875 
Q 31.109375 20.453125 19.1875 8.296875 
z
" id="DejaVuSans-32"/>
      </defs>
      <g transform="translate(377.008437 278.406437)scale(0.1 -0.1)">
       <use xlink:href="#DejaVuSans-32"/>
       <use x="63.623047" xlink:href="#DejaVuSans-2e"/>
       <use x="95.410156" xlink:href="#DejaVuSans-30"/>
      </g>
     </g>
    </g>
   </g>
   <g id="matplotlib.axis_2">
    <g id="ytick_1">
     <g id="line2d_6">
      <defs>
       <path d="M 0 0 
L -3.5 0 
" id="m1a8e3cb190" style="stroke:#000000;stroke-width:0.8;"/>
      </defs>
      <g>
       <use style="stroke:#000000;stroke-width:0.8;" x="57.6" xlink:href="#m1a8e3cb190" y="248.928"/>
      </g>
     </g>
     <g id="text_6">
      <!-- 0.0 -->
      <g transform="translate(34.696875 252.727219)scale(0.1 -0.1)">
       <use xlink:href="#DejaVuSans-30"/>
       <use x="63.623047" xlink:href="#DejaVuSans-2e"/>
       <use x="95.410156" xlink:href="#DejaVuSans-30"/>
      </g>
     </g>
    </g>
    <g id="ytick_2">
     <g id="line2d_7">
      <g>
       <use style="stroke:#000000;stroke-width:0.8;" x="57.6" xlink:href="#m1a8e3cb190" y="219.168"/>
      </g>
     </g>
     <g id="text_7">
      <!-- 0.2 -->
      <g transform="translate(34.696875 222.967219)scale(0.1 -0.1)">
       <use xlink:href="#DejaVuSans-30"/>
       <use x="63.623047" xlink:href="#DejaVuSans-2e"/>
       <use x="95.410156" xlink:href="#DejaVuSans-32"/>
      </g>
     </g>
    </g>
    <g id="ytick_3">
     <g id="line2d_8">
      <g>
       <use style="stroke:#000000;stroke-width:0.8;" x="57.6" xlink:href="#m1a8e3cb190" y="189.408"/>
      </g>
     </g>
     <g id="text_8">
      <!-- 0.4 -->
      <defs>
       <path d="M 37.796875 64.3125 
L 12.890625 25.390625 
L 37.796875 25.390625 
z
M 35.203125 72.90625 
L 47.609375 72.90625 
L 47.609375 25.390625 
L 58.015625 25.390625 
L 58.015625 17.1875 
L 47.609375 17.1875 
L 47.609375 0 
L 37.796875 0 
L 37.796875 17.1875 
L 4.890625 17.1875 
L 4.890625 26.703125 
z
" id="DejaVuSans-34"/>
      </defs>
      <g transform="translate(34.696875 193.207219)scale(0.1 -0.1)">
       <use xlink:href="#DejaVuSans-30"/>
       <use x="63.623047" xlink:href="#DejaVuSans-2e"/>
       <use x="95.410156" xlink:href="#DejaVuSans-34"/>
      </g>
     </g>
    </g>
    <g id="ytick_4">
     <g id="line2d_9">
      <g>
       <use style="stroke:#000000;stroke-width:0.8;" x="57.6" xlink:href="#m1a8e3cb190" y="159.648"/>
      </g>
     </g>
     <g id="text_9">
      <!-- 0.6 -->
      <defs>
       <path d="M 33.015625 40.375 
Q 26.375 40.375 22.484375 35.828125 
Q 18.609375 31.296875 18.609375 23.390625 
Q 18.609375 15.53125 22.484375 10.953125 
Q 26.375 6.390625 33.015625 6.390625 
Q 39.65625 6.390625 43.53125 10.953125 
Q 47.40625 15.53125 47.40625 23.390625 
Q 47.40625 31.296875 43.53125 35.828125 
Q 39.65625 40.375 33.015625 40.375 
z
M 52.59375 71.296875 
L 52.59375 62.3125 
Q 48.875 64.0625 45.09375 64.984375 
Q 41.3125 65.921875 37.59375 65.921875 
Q 27.828125 65.921875 22.671875 59.328125 
Q 17.53125 52.734375 16.796875 39.40625 
Q 19.671875 43.65625 24.015625 45.921875 
Q 28.375 48.1875 33.59375 48.1875 
Q 44.578125 48.1875 50.953125 41.515625 
Q 57.328125 34.859375 57.328125 23.390625 
Q 57.328125 12.15625 50.6875 5.359375 
Q 44.046875 -1.421875 33.015625 -1.421875 
Q 20.359375 -1.421875 13.671875 8.265625 
Q 6.984375 17.96875 6.984375 36.375 
Q 6.984375 53.65625 15.1875 63.9375 
Q 23.390625 74.21875 37.203125 74.21875 
Q 40.921875 74.21875 44.703125 73.484375 
Q 48.484375 72.75 52.59375 71.296875 
z
" id="DejaVuSans-36"/>
      </defs>
      <g transform="translate(34.696875 163.447219)scale(0.1 -0.1)">
       <use xlink:href="#DejaVuSans-30"/>
       <use x="63.623047" xlink:href="#DejaVuSans-2e"/>
       <use x="95.410156" xlink:href="#DejaVuSans-36"/>
      </g>
     </g>
    </g>
    <g id="ytick_5">
     <g id="line2d_10">
      <g>
       <use style="stroke:#000000;stroke-width:0.8;" x="57.6" xlink:href="#m1a8e3cb190" y="129.888"/>
      </g>
     </g>
     <g id="text_10">
      <!-- 0.8 -->
      <defs>
       <path d="M 31.78125 34.625 
Q 24.75 34.625 20.71875 30.859375 
Q 16.703125 27.09375 16.703125 20.515625 
Q 16.703125 13.921875 20.71875 10.15625 
Q 24.75 6.390625 31.78125 6.390625 
Q 38.8125 6.390625 42.859375 10.171875 
Q 46.921875 13.96875 46.921875 20.515625 
Q 46.921875 27.09375 42.890625 30.859375 
Q 38.875 34.625 31.78125 34.625 
z
M 21.921875 38.8125 
Q 15.578125 40.375 12.03125 44.71875 
Q 8.5 49.078125 8.5 55.328125 
Q 8.5 64.0625 14.71875 69.140625 
Q 20.953125 74.21875 31.78125 74.21875 
Q 42.671875 74.21875 48.875 69.140625 
Q 55.078125 64.0625 55.078125 55.328125 
Q 55.078125 49.078125 51.53125 44.71875 
Q 48 40.375 41.703125 38.8125 
Q 48.828125 37.15625 52.796875 32.3125 
Q 56.78125 27.484375 56.78125 20.515625 
Q 56.78125 9.90625 50.3125 4.234375 
Q 43.84375 -1.421875 31.78125 -1.421875 
Q 19.734375 -1.421875 13.25 4.234375 
Q 6.78125 9.90625 6.78125 20.515625 
Q 6.78125 27.484375 10.78125 32.3125 
Q 14.796875 37.15625 21.921875 38.8125 
z
M 18.3125 54.390625 
Q 18.3125 48.734375 21.84375 45.5625 
Q 25.390625 42.390625 31.78125 42.390625 
Q 38.140625 42.390625 41.71875 45.5625 
Q 45.3125 48.734375 45.3125 54.390625 
Q 45.3125 60.0625 41.71875 63.234375 
Q 38.140625 66.40625 31.78125 66.40625 
Q 25.390625 66.40625 21.84375 63.234375 
Q 18.3125 60.0625 18.3125 54.390625 
z
" id="DejaVuSans-38"/>
      </defs>
      <g transform="translate(34.696875 133.687219)scale(0.1 -0.1)">
       <use xlink:href="#DejaVuSans-30"/>
       <use x="63.623047" xlink:href="#DejaVuSans-2e"/>
       <use x="95.410156" xlink:href="#DejaVuSans-38"/>
      </g>
     </g>
    </g>
    <g id="ytick_6">
     <g id="line2d_11">
      <g>
       <use style="stroke:#000000;stroke-width:0.8;" x="57.6" xlink:href="#m1a8e3cb190" y="100.128"/>
      </g>
     </g>
     <g id="text_11">
      <!-- 1.0 -->
      <g transform="translate(34.696875 103.927219)scale(0.1 -0.1)">
       <use xlink:href="#DejaVuSans-31"/>
       <use x="63.623047" xlink:href="#DejaVuSans-2e"/>
       <use x="95.410156" xlink:href="#DejaVuSans-30"/>
      </g>
     </g>
    </g>
   </g>
   <g id="line2d_12">
    <path clip-path="url(#pc82edc8458)" d="M 236.16 248.928 
L 236.16 100.128 
" style="fill:none;stroke:#cc0000;stroke-dasharray:7.4,3.2;stroke-dashoffset:0;stroke-width:2;"/>
   </g>
   <g id="line2d_13">
    <path clip-path="url(#pc82edc8458)" d="M 87.36 248.928 
L 384.96 248.928 
" style="fill:none;stroke:#009900;stroke-linecap:square;stroke-width:2;"/>
   </g>
   <g id="line2d_14">
    <path clip-path="url(#pc82edc8458)" d="M 384.96 248.928 
L 384.96 100.128 
" style="fill:none;stroke:#009900;stroke-linecap:square;stroke-width:2;"/>
   </g>
   <g id="line2d_15">
    <path clip-path="url(#pc82edc8458)" d="M 384.96 100.128 
L 87.36 100.128 
" style="fill:none;stroke:#009900;stroke-linecap:square;stroke-width:2;"/>
   </g>
   <g id="line2d_16">
    <path clip-path="url(#pc82edc8458)" d="M 87.36 100.128 
L 87.36 248.928 
" style="fill:none;stroke:#009900;stroke-linecap:square;stroke-width:2;"/>
   </g>
   <g id="line2d_17">
    <path clip-path="url(#pc82edc8458)" d="M 204.687753 161.83602 
L 209.31089 165.58411 
L 214.080214 169.144326 
L 218.988093 172.510972 
L 224.026676 175.678662 
L 229.187903 178.642328 
L 234.463516 181.39723 
L 236.16 182.227003 
L 230.849848 184.914727 
L 225.651423 187.812651 
L 220.573043 190.916139 
L 215.622831 194.220225 
L 210.808707 197.719624 
L 206.138373 201.408737 
L 201.6193 205.281663 
L 197.258717 209.332206 
L 193.0636 213.553885 
L 189.040661 217.939948 
L 185.196336 222.483377 
L 181.536775 227.176904 
L 178.067832 232.013019 
L 174.795057 236.983987 
L 171.723686 242.081855 
L 168.858631 247.298468 
L 168.018378 248.928 
L 165.217816 243.676483 
L 162.209488 238.54116 
L 158.998209 233.530245 
L 155.589116 228.651755 
L 151.987662 223.913495 
L 148.199609 219.323044 
L 144.231016 214.887748 
L 140.088234 210.6147 
L 135.777889 206.510738 
L 131.306877 202.582426 
L 126.682351 198.836049 
L 121.911709 195.277601 
L 117.002583 191.912773 
L 111.962827 188.74695 
L 106.800503 185.785196 
L 101.523869 183.032249 
L 96.141368 180.492512 
L 90.661609 178.17005 
L 87.36 176.893348 
L 92.893454 174.701894 
L 98.334846 172.290914 
L 103.675473 169.664265 
L 108.90679 166.826148 
L 114.020428 163.781105 
L 119.008206 160.534007 
L 123.862146 157.090048 
L 128.574481 153.454738 
L 133.137673 149.633892 
L 137.544422 145.633624 
L 141.787678 141.460333 
L 145.860652 137.120695 
L 149.75683 132.621653 
L 153.469977 127.970404 
L 156.994154 123.174389 
L 160.323722 118.241281 
L 163.453356 113.178971 
L 166.378047 107.995559 
L 169.093118 102.699337 
L 170.31669 100.128 
L 172.929914 105.475209 
L 175.754878 110.71364 
L 178.787065 115.834911 
L 182.021622 120.830832 
L 185.453375 125.693408 
L 189.076835 130.414862 
L 192.886204 134.987639 
L 196.875388 139.404424 
L 201.038006 143.658151 
L 205.367397 147.742015 
L 209.856637 151.649484 
L 214.498542 155.374305 
L 219.285688 158.91052 
L 224.210416 162.252471 
L 229.264846 165.394813 
L 234.440894 168.332518 
L 236.16 169.248756 
L 230.945937 172.118448 
L 225.850802 175.194351 
L 220.882746 178.471545 
L 216.049717 181.944787 
L 211.359446 185.60852 
L 206.819438 189.456883 
L 202.436954 193.48372 
L 198.219006 197.682589 
L 194.172342 202.046772 
L 190.303436 206.569287 
L 186.618477 211.2429 
L 183.12336 216.060134 
L 179.823677 221.013281 
L 176.724706 226.094419 
L 173.831406 231.295418 
L 171.148404 236.607959 
L 168.679994 242.023541 
L 166.430123 247.533501 
L 165.901001 248.928 
L 163.706473 243.395765 
L 161.292469 237.955713 
L 158.662852 232.616547 
L 155.821829 227.386808 
L 152.773944 222.274863 
L 149.524074 217.28889 
L 146.077418 212.436865 
L 142.43949 207.726551 
L 139.836206 204.581074 
L 134.29774 202.402318 
L 128.676578 200.446784 
L 122.981711 198.717601 
L 117.222251 197.217535 
L 111.407411 195.948986 
L 105.546494 194.913983 
L 99.648875 194.114182 
L 93.723991 193.550863 
L 87.36 193.210859 
L 88.846978 193.155877 
L 94.787161 192.787358 
L 100.707855 192.181591 
L 106.59959 191.339543 
L 112.452939 190.262562 
L 118.258538 188.952371 
L 124.007099 187.411066 
L 132.311987 185.017974 
L 136.681109 184.105782 
L 141.097068 183.457223 
L 145.54397 183.074629 
L 150.005812 182.959378 
L 154.466536 183.111884 
L 158.910089 183.531598 
L 163.320477 184.21701 
L 167.68183 185.165654 
L 171.97845 186.374114 
L 176.194874 187.838043 
L 180.315927 189.552171 
L 184.326779 191.51033 
L 188.212995 193.705471 
L 192.017389 196.168943 
L 190.82982 195.272422 
L 187.377978 192.442916 
L 184.102015 189.411515 
L 181.013723 186.18913 
L 178.124215 182.787357 
L 175.44389 179.218438 
L 172.982395 175.495219 
L 170.748589 171.631099 
L 168.75051 167.639983 
L 166.995351 163.536237 
L 165.489426 159.334629 
L 164.238157 155.05028 
L 163.246046 150.69861 
L 162.516664 146.29528 
L 162.052636 141.856136 
L 161.854686 137.328121 
L 161.563204 131.383659 
L 161.034241 125.455609 
L 160.268641 119.553454 
L 159.267631 113.686635 
L 158.032811 107.864539 
L 156.566157 102.09648 
L 156.008905 100.128 
L 154.463088 105.87535 
L 153.148339 111.679918 
L 152.066763 117.53242 
L 151.22009 123.423491 
L 150.609674 129.343709 
L 150.236492 135.283601 
L 150.120689 139.195771 
L 150.658966 143.626524 
L 150.930589 148.081582 
L 150.934581 152.54491 
L 150.670926 157.000447 
L 150.140574 161.432156 
L 149.345433 165.824088 
L 148.288365 170.160438 
L 146.973174 174.425598 
L 145.404594 178.604219 
L 143.588269 182.681263 
L 141.530738 186.642055 
L 139.239403 190.472343 
L 136.722512 194.158341 
L 133.989123 197.686783 
L 133.311627 198.497357 
L 137.222514 196.346477 
L 141.255338 194.433979 
L 145.395586 192.766747 
L 149.628358 191.35078 
L 153.93842 190.191176 
L 158.310261 189.292107 
L 162.728147 188.656809 
L 167.176178 188.287569 
L 171.638346 188.185714 
L 176.098592 188.351612 
L 180.540864 188.784666 
L 184.949175 189.483317 
L 189.30766 190.445051 
L 193.600632 191.666407 
L 194.605312 191.992978 
L 191.15178 189.165536 
L 187.874007 186.136093 
L 184.783789 182.915554 
L 181.892249 179.515507 
L 179.209793 175.948191 
L 176.746073 172.226443 
L 174.509959 168.363658 
L 172.509496 164.373737 
L 170.751884 160.271041 
L 169.24345 156.070333 
L 167.989621 151.786733 
L 166.99491 147.435656 
L 166.262897 143.032762 
L 165.796216 138.593897 
L 165.724803 137.539889 
L 164.388251 141.798404 
L 162.798746 145.96911 
L 160.962009 150.036999 
L 158.884651 153.987429 
L 156.574146 157.806184 
L 154.038812 161.47952 
L 151.287772 164.994218 
L 148.330927 168.337627 
L 145.178919 171.497716 
L 141.843091 174.463111 
L 138.335448 177.223141 
L 134.668615 179.767872 
L 130.855789 182.088145 
L 126.91069 184.175611 
L 125.959242 184.634718 
L 121.149529 188.140177 
L 116.483844 191.835169 
L 111.969651 195.713782 
L 107.614173 199.769813 
L 103.424376 203.996772 
L 99.406964 208.387898 
L 95.568363 212.936164 
L 91.914716 217.634295 
L 88.451865 222.474776 
L 87.36 224.089977 
L 90.759133 228.975413 
L 94.350912 233.721011 
L 98.129591 238.31918 
L 102.089126 242.762565 
L 106.223181 247.044056 
L 108.151116 248.928 
L 112.362051 244.722099 
L 116.401427 240.351169 
L 120.262781 235.822204 
L 123.939936 231.142448 
L 127.427009 226.319389 
L 130.718423 221.360742 
L 133.80891 216.27444 
L 136.693527 211.06862 
L 139.36766 205.75161 
L 139.899525 204.627163 
L 142.281312 200.852457 
L 144.88516 197.227364 
L 147.701697 193.764932 
L 150.720787 190.477621 
L 153.931565 187.377263 
L 157.322475 184.475014 
L 160.881314 181.78132 
L 164.595273 179.305876 
L 168.450987 177.05759 
L 172.434579 175.044554 
L 176.531712 173.274013 
L 180.727642 171.752338 
L 185.007267 170.485006 
L 189.355185 169.476577 
L 193.755748 168.730683 
L 198.423405 168.232388 
L 194.083076 169.272993 
L 189.688157 170.051461 
L 185.254468 170.564992 
L 180.797963 170.811737 
L 176.334681 170.790808 
L 171.880687 170.502281 
L 167.452008 169.947193 
L 163.064583 169.127543 
L 158.734204 168.04628 
L 154.476453 166.707296 
L 150.306655 165.11541 
L 146.239816 163.27635 
L 142.290573 161.196736 
L 138.473138 158.884051 
L 134.80125 156.34662 
L 131.11092 153.445451 
L 134.94538 155.729797 
L 138.635961 158.239962 
L 142.169381 160.966912 
L 145.532925 163.900833 
L 148.714486 167.031167 
L 151.702615 170.346646 
L 154.486557 173.83534 
L 157.056294 177.484692 
L 159.402577 181.281569 
L 161.516962 185.212306 
L 163.391839 189.262757 
L 165.020461 193.418345 
L 166.396967 197.664113 
L 167.516403 201.984782 
L 168.37474 206.364803 
L 168.992396 211.018169 
L 169.142089 216.96789 
L 169.529587 222.906865 
L 170.15427 228.825594 
L 171.01514 234.714607 
L 172.110819 240.564485 
L 173.439555 246.365868 
L 174.104837 248.928 
L 175.536562 243.151172 
L 176.736131 237.321711 
L 177.701624 231.448943 
L 178.431496 225.542263 
L 178.924581 219.611121 
L 179.180089 213.665005 
L 179.19176 207.390954 
L 178.202656 203.038599 
L 177.476316 198.634766 
L 177.015355 194.195303 
L 176.821431 189.736187 
L 176.895242 185.273467 
L 177.236523 180.823203 
L 177.844046 176.401412 
L 178.715624 172.024008 
L 179.84812 167.706744 
L 181.237458 163.465157 
L 182.878639 159.314513 
L 184.765757 155.26975 
L 186.892018 151.345425 
L 188.515464 148.682592 
L 184.606813 150.83753 
L 180.575976 152.754213 
L 176.43746 154.425742 
L 172.20616 155.8461 
L 167.897304 157.010177 
L 163.526398 157.913784 
L 159.109174 158.553667 
L 154.661529 158.927524 
L 150.199469 159.03401 
L 145.739053 158.872741 
L 141.296334 158.444298 
L 136.8873 157.750223 
L 132.52782 156.793013 
L 129.519713 155.969878 
L 123.571514 155.76862 
L 117.620024 155.805387 
L 111.674765 156.080121 
L 105.745248 156.592382 
L 99.840959 157.34135 
L 93.971344 158.325828 
L 88.145793 159.544241 
L 87.36 159.727309 
L 93.178859 160.977291 
L 99.04305 161.993581 
L 104.943191 162.774553 
L 110.869843 163.318958 
L 116.813525 163.625925 
L 122.764728 163.694962 
L 126.193154 163.626649 
L 130.597334 164.350881 
L 134.950162 165.337903 
L 139.235971 166.584161 
L 143.439337 168.085171 
L 147.545133 169.83553 
L 151.538582 171.82894 
L 155.405312 174.058226 
L 159.131408 176.515365 
L 162.703458 179.191514 
L 166.108608 182.077042 
L 169.334603 185.161564 
L 172.369832 188.433979 
L 175.203373 191.88251 
L 177.825027 195.494746 
L 180.225359 199.257687 
L 182.395731 203.15779 
L 183.261655 204.884528 
L 180.21697 201.620909 
L 177.373463 198.180591 
L 174.741368 194.575956 
L 172.330158 190.819976 
L 170.148511 186.926169 
L 168.204277 182.908549 
L 166.504455 178.781574 
L 165.055161 174.560097 
L 163.861612 170.259311 
L 162.928103 165.894694 
L 162.257994 161.481955 
L 161.853696 157.036973 
L 161.716665 152.575747 
L 161.847393 148.114331 
L 162.24541 143.668783 
L 162.909284 139.255101 
L 163.278418 137.359002 
L 163.695575 141.802795 
L 163.845515 146.263607 
L 163.727696 150.725382 
L 163.342543 155.172063 
L 162.691443 159.587648 
L 161.776738 163.956244 
L 160.601721 168.26213 
L 159.170619 172.489808 
L 157.488585 176.624065 
L 155.56167 180.650021 
L 153.396811 184.553186 
L 151.001797 188.319515 
L 148.38525 191.935451 
L 145.556584 195.387982 
L 142.525981 198.664683 
L 139.304348 201.753759 
L 137.85389 203.029542 
L 140.237996 199.2563 
L 142.84407 195.632808 
L 145.662734 192.172107 
L 148.683843 188.886651 
L 151.896525 185.788266 
L 155.289218 182.888101 
L 158.849711 180.196594 
L 162.56519 177.723432 
L 166.422285 175.477515 
L 170.407113 173.466927 
L 174.505333 171.698903 
L 178.702196 170.179806 
L 182.982599 168.915103 
L 187.331136 167.909347 
L 191.732156 167.166155 
L 196.169823 166.688204 
L 198.097526 166.564067 
L 193.905075 168.095301 
L 189.62835 169.372384 
L 185.282742 170.390719 
L 180.883889 171.146641 
L 176.447625 171.63743 
L 171.989913 171.86132 
L 167.526798 171.817505 
L 163.074341 171.506142 
L 158.648567 170.928353 
L 154.265403 170.086216 
L 149.940625 168.982762 
L 145.689796 167.621963 
L 141.528216 166.008716 
L 137.47086 164.148827 
L 133.532333 162.048989 
L 129.726807 159.71676 
L 128.124697 158.637551 
L 132.379445 159.986045 
L 136.545676 161.587244 
L 140.608396 163.435386 
L 144.552983 165.523818 
L 148.365241 167.845027 
L 152.03145 170.390656 
L 155.538415 173.151545 
L 158.873517 176.117758 
L 162.02475 179.278619 
L 164.980776 182.622754 
L 167.730954 186.138125 
L 170.265388 189.812083 
L 172.574956 193.631404 
L 174.651346 197.582343 
L 176.487086 201.650682 
L 178.075568 205.821778 
L 178.684848 207.65487 
L 179.653486 213.52712 
L 180.856176 219.355938 
L 182.290995 225.131998 
L 183.955647 230.846061 
L 185.847469 236.488985 
L 187.963434 242.051743 
L 190.300158 247.525435 
L 190.941133 248.928 
L 193.334457 243.478818 
L 195.507958 237.938288 
L 197.458158 232.315273 
L 199.181937 226.618768 
L 200.676538 220.857887 
L 201.93957 215.041846 
L 202.969012 209.17995 
L 203.763217 203.281576 
L 204.320915 197.35616 
L 204.641213 191.413182 
L 204.723599 185.462149 
L 204.567942 179.512581 
L 204.17449 173.573998 
L 203.543872 167.655898 
L 202.677099 161.76775 
L 201.575555 155.918974 
L 200.241004 150.118926 
L 198.67558 144.376886 
L 196.881788 138.702039 
L 194.862497 133.103463 
L 192.620939 127.590116 
L 190.160698 122.170818 
L 187.485711 116.854237 
L 184.600258 111.648881 
L 181.508953 106.563075 
L 178.216744 101.604957 
L 177.17958 100.128 
L 173.827478 105.045824 
L 170.674718 110.093763 
L 167.726344 115.263741 
L 164.987072 120.547486 
L 162.461285 125.936547 
L 160.153023 131.422302 
L 157.878891 137.531014 
L 154.699759 132.499642 
L 151.321968 127.599427 
L 147.750923 122.838207 
L 143.992337 118.223599 
L 140.052221 113.762985 
L 135.936881 109.463503 
L 131.652898 105.332029 
L 127.207128 101.375173 
L 125.728769 100.128 
L 121.231943 104.026735 
L 116.894621 108.102176 
L 112.723743 112.347804 
L 108.725981 116.756826 
L 104.90773 121.32219 
L 101.2751 126.036591 
L 97.833901 130.892487 
L 94.589639 135.882111 
L 91.547503 140.997479 
L 88.712361 146.230408 
L 87.36 148.916545 
L 90.088807 154.205703 
L 93.026941 159.381507 
L 96.169702 164.435677 
L 99.512061 169.360128 
L 103.048673 174.14698 
L 106.773879 178.788577 
L 110.68172 183.277493 
L 114.765943 187.606546 
L 119.020015 191.768811 
L 123.437131 195.757629 
L 128.010224 199.566618 
L 132.731978 203.189687 
L 137.594839 206.621037 
L 142.591027 209.85518 
L 147.712551 212.886941 
L 152.951215 215.711472 
L 158.298641 218.324252 
L 163.746273 220.721102 
L 169.285395 222.898188 
L 174.907147 224.852027 
L 180.602535 226.579493 
L 186.362447 228.077822 
L 192.177669 229.344618 
L 198.038898 230.377853 
L 203.936757 231.175875 
L 209.861811 231.737408 
L 215.804581 232.061552 
L 221.755559 232.14779 
L 227.705226 231.995983 
L 233.644063 231.606375 
L 239.131281 231.201873 
L 246.550866 230.653711 
L 253.954429 229.920249 
L 261.337345 229.001947 
L 268.694998 227.899378 
L 276.02279 226.613232 
L 283.316143 225.144311 
L 290.570497 223.493535 
L 297.781319 221.661935 
L 304.944103 219.650655 
L 312.054372 217.460953 
L 319.107682 215.094197 
L 326.099625 212.551866 
L 333.025832 209.835549 
L 339.881973 206.946944 
L 346.663765 203.887856 
L 353.366968 200.660196 
L 359.987393 197.265983 
L 366.520903 193.707337 
L 372.963415 189.986482 
L 379.310902 186.105743 
L 384.96 182.464584 
L 378.701768 178.441495 
L 372.344924 174.576103 
L 365.893442 170.870823 
L 359.351354 167.327971 
L 352.722748 163.949762 
L 346.011766 160.738306 
L 339.222604 157.695611 
L 332.359504 154.823578 
L 325.426755 152.124002 
L 318.428691 149.59857 
L 311.369683 147.248861 
L 304.254145 145.076342 
L 297.086523 143.082373 
L 289.871297 141.268199 
L 282.612976 139.634953 
L 275.316096 138.183657 
L 267.985218 136.915217 
L 260.624923 135.830427 
L 253.23981 134.929964 
L 245.834497 134.21439 
L 238.413609 133.684154 
L 236.16 133.559993 
L 243.584695 133.086053 
L 250.995223 132.426662 
L 258.386952 131.582234 
L 265.755263 130.553295 
L 273.09555 129.34049 
L 280.403227 127.944575 
L 287.673726 126.366424 
L 294.902503 124.607022 
L 302.085041 122.66747 
L 309.216851 120.548979 
L 316.293476 118.252873 
L 323.310492 115.780587 
L 330.263515 113.133667 
L 337.1482 110.313767 
L 343.960243 107.322648 
L 350.695386 104.162181 
L 357.349422 100.834341 
L 358.710086 100.128 
L 365.34689 103.490074 
L 372.065664 106.685195 
L 378.862208 109.711366 
L 384.96 112.255732 
L 378.097948 115.130269 
L 371.309897 118.175441 
L 364.600088 121.389345 
L 357.972714 124.769972 
L 351.431919 128.31521 
L 344.981789 132.022844 
L 338.626356 135.890555 
L 332.369592 139.915927 
L 326.215407 144.096443 
L 320.167647 148.429492 
L 314.651752 152.58626 
L 310.717733 146.271657 
L 306.627094 140.057367 
L 302.382393 133.947275 
L 297.986282 127.945198 
L 293.441508 122.054889 
L 288.750912 116.280027 
L 283.917425 110.624223 
L 278.944069 105.09101 
L 274.263446 100.128 
L 269.164565 105.54576 
L 264.202706 111.089286 
L 259.380972 116.755113 
L 254.702375 122.5397 
L 250.16984 128.439432 
L 245.786199 134.450623 
L 241.554192 140.569514 
L 237.476464 146.792283 
L 236.16 148.876091 
L 240.18605 155.132419 
L 244.367233 161.286151 
L 248.700937 167.333442 
L 253.184454 173.270511 
L 257.814981 179.09365 
L 262.589624 184.799217 
L 267.505399 190.383648 
L 272.559235 195.843452 
L 277.747972 201.175218 
L 283.068368 206.375612 
L 288.517098 211.441386 
L 294.090757 216.369372 
L 299.78586 221.156491 
L 305.59885 225.799752 
L 311.526092 230.296252 
L 317.563883 234.643182 
L 323.708449 238.837824 
L 329.955951 242.877557 
L 336.302482 246.759857 
L 340.009043 248.928 
L 346.410931 245.137677 
L 352.71607 241.188508 
L 358.920521 237.082961 
L 365.020404 232.823602 
L 371.011908 228.413093 
L 376.891289 223.85419 
L 382.654872 219.149742 
L 384.96 217.199728 
L 379.244442 212.437048 
L 373.411615 207.818731 
L 367.465166 203.347663 
L 361.408809 199.026638 
L 355.24633 194.858356 
L 348.981581 190.845422 
L 342.618477 186.990345 
L 336.160994 183.295533 
L 331.925184 180.986429 
L 339.339001 181.60775 
L 346.766032 182.043551 
L 354.201637 182.293558 
L 361.641167 182.357618 
L 369.079974 182.235688 
L 376.513409 181.927845 
L 384.96 181.351621 
L 377.53833 180.832455 
L 370.106002 180.498975 
L 362.667659 180.351387 
L 355.227952 180.389785 
L 347.79153 180.614144 
L 340.363039 181.024324 
L 331.682622 181.740298 
L 337.164112 186.770604 
L 342.769634 191.662315 
L 348.495685 196.412375 
L 354.338685 201.017814 
L 360.294983 205.475753 
L 366.360857 209.783408 
L 372.532516 213.938086 
L 378.806102 217.93719 
L 384.96 221.650545 
L 378.591667 225.496978 
L 372.321474 229.501401 
L 366.153341 233.661311 
L 360.091122 237.974108 
L 354.138606 242.437098 
L 348.299514 247.04749 
L 346.001629 248.928 
L 340.208826 244.259579 
L 334.301135 239.737422 
L 328.282248 235.364355 
L 322.155927 231.143111 
L 315.925999 227.076328 
L 309.59636 223.166548 
L 303.170964 219.416214 
L 296.653827 215.82767 
L 290.049023 212.403159 
L 283.360679 209.144821 
L 276.592974 206.054692 
L 269.75014 203.134704 
L 262.836451 200.386681 
L 255.85623 197.812342 
L 248.813838 195.413294 
L 241.713676 193.191037 
L 236.16 191.58734 
L 231.003409 188.615616 
L 225.732105 185.852477 
L 220.354521 183.302344 
L 214.879261 180.969297 
L 209.315084 178.857068 
L 203.670891 176.969037 
L 198.945176 175.57808 
L 204.73563 174.202497 
L 210.466443 172.596458 
L 216.128448 170.762532 
L 221.712586 168.703654 
L 227.209924 166.423116 
L 232.611668 163.924568 
L 236.16 162.137342 
L 243.363954 160.278912 
L 250.519201 158.240982 
L 257.621269 156.024826 
L 264.66572 153.63183 
L 271.648151 151.063489 
L 278.564198 148.321407 
L 285.409539 145.4073 
L 292.179895 142.322987 
L 298.871037 139.070397 
L 305.478781 135.651562 
L 311.998999 132.068618 
L 318.427614 128.323806 
L 324.760611 124.419466 
L 330.99403 120.358037 
L 337.123976 116.142058 
L 343.146618 111.774164 
L 349.058192 107.257085 
L 354.855004 102.593643 
L 357.803636 100.128 
L 363.539734 104.865921 
L 369.392476 109.458973 
L 375.358203 113.904287 
L 381.433187 118.199085 
L 384.96 120.589844 
L 378.824151 124.797227 
L 372.795393 129.156676 
L 366.877494 133.665466 
L 361.074152 138.320778 
L 355.388994 143.119705 
L 349.825573 148.059246 
L 344.387367 153.136315 
L 339.077773 158.347738 
L 333.90011 163.690259 
L 331.354354 166.417684 
L 326.372772 169.67428 
L 321.264945 172.729061 
L 316.039046 175.57714 
L 310.703434 178.213961 
L 305.266645 180.635305 
L 299.737377 182.837298 
L 294.124475 184.816419 
L 291.255672 185.731809 
L 295.678808 181.749667 
L 300.257648 177.947589 
L 304.984869 174.331656 
L 309.852907 170.907655 
L 314.853974 167.681061 
L 319.980071 164.657039 
L 325.222996 161.840424 
L 327.917449 160.495845 
L 324.157437 165.109292 
L 320.215945 169.568689 
L 316.099277 173.866901 
L 311.814019 177.997051 
L 307.367027 181.952534 
L 302.765415 185.72702 
L 298.016544 189.314472 
L 295.560208 191.056419 
L 298.568112 185.920847 
L 301.778978 180.909668 
L 305.187669 176.030897 
L 308.788733 171.29234 
L 312.576408 166.701578 
L 316.544634 162.265954 
L 320.687065 157.992565 
L 322.847154 155.894475 
L 320.662542 161.430634 
L 318.25829 166.875003 
L 315.638245 172.218872 
L 312.806597 177.453694 
L 309.767878 182.571092 
L 306.526947 187.56288 
L 303.088991 192.421073 
L 301.276269 194.825654 
L 302.585889 189.019926 
L 304.126628 183.271213 
L 305.896022 177.588711 
L 307.891241 171.981511 
L 310.109091 166.458585 
L 312.546026 161.028766 
L 315.198146 155.700742 
L 316.620601 153.046577 
L 316.216967 158.984478 
L 315.576203 164.901487 
L 314.699334 170.78814 
L 313.587764 176.635019 
L 312.243269 182.43277 
L 310.668002 188.172118 
L 308.864483 193.843881 
L 307.865958 196.684817 
L 307.354055 190.755269 
L 307.079679 184.809994 
L 307.04327 178.858502 
L 307.244887 172.910315 
L 307.684206 166.974948 
L 308.360525 161.061897 
L 309.272763 155.180621 
L 309.823726 152.220147 
L 311.239053 158.001015 
L 312.422075 163.833856 
L 313.3709 169.70934 
L 314.084008 175.618067 
L 314.56026 181.550585 
L 314.798894 187.497402 
L 314.799528 193.449005 
L 314.709165 196.458956 
L 312.834348 203.658663 
L 311.140091 210.902985 
L 309.627452 218.187396 
L 308.297377 225.507343 
L 307.150698 232.85825 
L 306.18813 240.235525 
L 305.293469 248.928 
L 304.547911 241.525645 
L 303.617546 234.14424 
L 302.502956 226.788398 
L 301.204838 219.462717 
L 299.724002 212.171775 
L 298.061375 204.920127 
L 296.217994 197.712308 
L 293.817617 189.28859 
L 286.981036 186.353991 
L 280.073233 183.591206 
L 273.098527 181.001961 
L 266.061276 178.587875 
L 258.965878 176.350456 
L 251.816767 174.291103 
L 244.618412 172.411102 
L 236.16 170.445122 
L 230.695906 168.086043 
L 225.141845 165.947355 
L 219.506701 164.032482 
L 213.799491 162.344486 
L 208.029344 160.886067 
L 202.205491 159.65956 
L 196.33725 158.666926 
L 195.340574 158.522218 
L 198.300023 153.358572 
L 201.050614 148.080709 
L 203.587947 142.697075 
L 205.907963 137.21628 
L 208.006949 131.647094 
L 209.881548 125.998425 
L 211.528761 120.279311 
L 212.945954 114.4989 
L 214.130857 108.666441 
L 215.081577 102.791263 
L 215.433563 100.128 
L 216.278063 106.019384 
L 217.357479 111.872284 
L 218.670085 117.677337 
L 220.213782 123.425257 
L 221.986099 129.106848 
L 223.984202 134.71302 
L 226.204893 140.234805 
L 228.644621 145.663369 
L 231.299482 150.990028 
L 234.165229 156.20626 
L 236.16 159.568174 
L 233.158217 164.707326 
L 230.364346 169.962406 
L 227.782857 175.325007 
L 225.41788 180.786551 
L 223.273199 186.338301 
L 221.352243 191.971374 
L 219.658087 197.676759 
L 218.193441 203.445328 
L 216.960647 209.267853 
L 215.961678 215.13502 
L 215.198133 221.037441 
L 214.671232 226.965675 
L 214.381819 232.910237 
L 214.330356 238.861618 
L 214.516927 244.810296 
L 214.785862 248.928 
L 215.137312 242.986783 
L 215.250895 237.036263 
L 215.12643 231.085962 
L 214.764116 225.145397 
L 214.164532 219.224073 
L 213.328639 213.331462 
L 212.257772 207.476991 
L 210.953646 201.670027 
L 209.418346 195.919859 
L 207.654329 190.235686 
L 205.664416 184.626601 
L 203.451792 179.101579 
L 201.019996 173.669457 
L 198.473647 168.532323 
L 199.278735 162.635424 
L 199.847367 156.711048 
L 200.178631 150.768671 
L 200.271999 144.8178 
L 200.127321 138.867955 
L 199.744829 132.928656 
L 199.125133 127.009402 
L 198.269227 121.119665 
L 197.178478 115.268866 
L 195.854632 109.466366 
L 194.299807 103.721446 
L 193.200264 100.128 
L 191.50086 105.831824 
L 190.030908 111.599043 
L 188.792758 117.420432 
L 187.788392 123.286677 
L 187.019418 129.188394 
L 186.487063 135.11614 
L 186.192182 141.060434 
L 186.130262 146.422301 
L 192.00991 145.499632 
L 197.847958 144.342579 
L 203.635067 142.952991 
L 209.361978 141.333092 
L 215.019529 139.485474 
L 220.59867 137.413092 
L 226.090475 135.119261 
L 231.486158 132.607652 
L 236.16 130.214051 
L 230.856297 127.513624 
L 225.448847 125.027447 
L 219.946303 122.7595 
L 214.357466 120.71341 
L 208.691278 118.892451 
L 202.956803 117.299535 
L 197.163216 115.937211 
L 191.319784 114.807658 
L 185.435857 113.912684 
L 179.520846 113.253721 
L 173.584216 112.831821 
L 167.635463 112.647661 
L 161.684103 112.701535 
L 155.739659 112.993357 
L 149.811639 113.52266 
L 143.909527 114.288597 
L 138.042766 115.289943 
L 132.220741 116.525095 
L 126.452765 117.992079 
L 120.748068 119.688547 
L 115.115773 121.611785 
L 109.564894 123.758716 
L 104.104308 126.125905 
L 98.742753 128.709567 
L 93.488805 131.505567 
L 88.35087 134.509432 
L 87.36 135.120989 
L 92.474272 138.164968 
L 97.706179 141.001995 
L 103.047353 143.627533 
L 108.489247 146.03738 
L 114.023157 148.227682 
L 119.640229 150.194935 
L 125.331477 151.935991 
L 131.106086 153.45248 
L 127.633816 148.618752 
L 123.971026 143.927745 
L 120.123575 139.386963 
L 116.097619 135.003669 
L 111.899599 130.784877 
L 107.53623 126.737336 
L 103.014492 122.867521 
L 98.34162 119.181622 
L 93.525089 115.685537 
L 88.572605 112.384858 
L 87.36 111.619458 
L 92.344062 108.366658 
L 97.19406 104.917151 
L 101.902235 101.276454 
L 103.309906 100.128 
L 107.973281 103.825907 
L 112.780802 107.33437 
L 117.72478 110.647778 
L 122.797303 113.760829 
L 127.990258 116.668543 
L 133.295337 119.366268 
L 138.704052 121.849688 
L 144.207751 124.114832 
L 149.79763 126.158074 
L 155.464745 127.976146 
L 161.200031 129.56614 
L 166.994311 130.925512 
L 172.838318 132.052087 
L 178.7227 132.944063 
L 184.638046 133.600013 
L 190.57489 134.018887 
L 196.523737 134.200016 
L 202.475068 134.14311 
L 208.419363 133.84826 
L 214.347112 133.315936 
L 220.248833 132.546992 
L 226.115083 131.542658 
L 231.936478 130.304539 
L 236.16 129.252206 
L 230.377309 127.844349 
L 224.542943 126.668865 
L 218.666238 125.727633 
L 212.756595 125.02216 
L 206.823467 124.553573 
L 200.876346 124.322624 
L 194.924747 124.32968 
L 188.978191 124.574732 
L 183.046191 125.057386 
L 177.138236 125.77687 
L 171.26378 126.732035 
L 165.432218 127.921351 
L 159.652882 129.342916 
L 153.935015 130.994455 
L 148.287766 132.873328 
L 142.720169 134.976527 
L 137.241132 137.300688 
L 131.859418 139.842093 
L 126.583638 142.596677 
L 121.422233 145.560032 
L 116.383459 148.727418 
L 111.475376 152.093767 
L 106.705838 155.653695 
L 102.082474 159.401506 
L 97.612681 163.331204 
L 93.303609 167.436503 
L 89.162152 171.710835 
L 87.36 173.682002 
L 91.424073 178.029978 
L 95.658768 182.211956 
L 100.057309 186.221246 
L 104.612662 190.051435 
L 109.317537 193.696394 
L 114.164409 197.150293 
L 119.145522 200.407606 
L 124.252909 203.463123 
L 129.478399 206.311954 
L 134.813631 208.949542 
L 140.250072 211.371668 
L 145.779023 213.574458 
L 151.39164 215.554386 
L 157.078943 217.308285 
L 162.831834 218.833351 
L 168.64111 220.127142 
L 174.497477 221.187589 
L 180.391566 222.012995 
L 186.313947 222.602041 
L 192.255147 222.953783 
L 198.205661 223.06766 
L 204.155969 222.943488 
L 210.096551 222.581467 
L 216.017905 221.982175 
L 221.910557 221.146572 
L 227.76508 220.075994 
L 233.572109 218.772153 
L 236.16 218.111798 
L 243.525022 217.059576 
L 250.861439 215.823577 
L 258.164668 214.404572 
L 265.430142 212.803449 
L 272.653323 211.021208 
L 279.829695 209.058964 
L 286.954773 206.917942 
L 294.024105 204.599481 
L 301.033272 202.105029 
L 307.977895 199.436146 
L 315.61168 196.268813 
L 323.037221 195.808312 
L 330.44893 195.162336 
L 337.842175 194.331288 
L 345.212336 193.315689 
L 352.554807 192.116172 
L 359.864998 190.733487 
L 367.138342 189.168498 
L 374.370292 187.422184 
L 381.556329 185.495635 
L 384.96 184.515467 
L 377.797401 182.503529 
L 370.586747 180.671267 
L 363.332545 179.019824 
L 356.039327 177.550234 
L 348.711653 176.263414 
L 341.354101 175.160169 
L 332.876286 174.12082 
L 326.937134 173.736041 
L 321.01812 173.114067 
L 315.128712 172.255892 
L 309.278334 171.162891 
L 303.476343 169.836812 
L 297.732023 168.279775 
L 292.054562 166.494272 
L 290.0202 165.793069 
L 295.285328 168.567959 
L 300.435278 171.551177 
L 305.461812 174.737953 
L 310.356888 178.123187 
L 315.112675 181.701464 
L 319.721565 185.46706 
L 324.176185 189.41395 
L 326.891072 191.836098 
L 332.68046 196.508752 
L 338.584843 201.035227 
L 344.600532 205.412693 
L 350.723766 209.638415 
L 356.950718 213.709751 
L 363.277498 217.624158 
L 369.70015 221.379188 
L 376.214662 224.972495 
L 382.816961 228.401834 
L 384.96 229.470377 
L 378.33032 232.84648 
L 371.787106 236.387251 
L 365.334447 240.09048 
L 358.976375 243.953851 
L 352.716864 247.974951 
L 351.282334 248.928 
L 345.046198 244.870743 
L 338.710591 240.970642 
L 332.27947 237.230133 
L 325.756857 233.651554 
L 319.146826 230.237141 
L 312.45351 226.989029 
L 305.68109 223.909248 
L 298.833801 220.999721 
L 291.91592 218.262269 
L 284.931772 215.6986 
L 277.885722 213.310319 
L 270.782172 211.098916 
L 263.625563 209.065775 
L 256.420367 207.212166 
L 249.171087 205.539247 
L 241.882254 204.048064 
L 236.16 203.009574 
L 230.50962 201.140138 
L 224.789003 199.498153 
L 219.007299 198.086245 
L 213.173759 196.906673 
L 207.297715 195.961324 
L 201.388567 195.25171 
L 195.455769 194.778966 
L 193.044926 194.654932 
L 195.849715 199.904193 
L 198.862176 205.037093 
L 202.077487 210.045421 
L 205.490507 214.921165 
L 209.095774 219.656524 
L 212.887521 224.243924 
L 216.859682 228.676025 
L 221.005903 232.945736 
L 225.31955 237.046227 
L 229.793723 240.970939 
L 234.421263 244.713592 
L 236.16 246.042855 
L 232.451354 248.928 
L 227.738492 245.293373 
L 222.884054 241.850118 
L 217.895805 238.603742 
L 212.781726 235.55944 
L 207.549998 232.722082 
L 202.20899 230.096207 
L 196.767248 227.686016 
L 191.233477 225.495364 
L 185.616529 223.527756 
L 179.925391 221.78634 
L 174.169167 220.273902 
L 168.357067 218.992861 
L 162.498387 217.945267 
L 156.602501 217.132796 
L 150.678841 216.556747 
L 144.736883 216.218042 
L 138.786134 216.117222 
L 132.836113 216.25445 
L 126.896339 216.629506 
L 120.976315 217.241789 
L 115.085511 218.090321 
L 109.23335 219.173743 
L 103.429197 220.490322 
L 97.682335 222.037952 
L 92.001959 223.814158 
L 87.36 225.454116 
L 87.36 225.454116 
" style="fill:none;stroke:#1f77b4;stroke-linecap:square;stroke-width:1.5;"/>
   </g>
   <g id="patch_5">
    <path d="M 57.6 263.808 
L 57.6 85.248 
" style="fill:none;stroke:#000000;stroke-linecap:square;stroke-linejoin:miter;stroke-width:0.8;"/>
   </g>
   <g id="patch_6">
    <path d="M 414.72 263.808 
L 414.72 85.248 
" style="fill:none;stroke:#000000;stroke-linecap:square;stroke-linejoin:miter;stroke-width:0.8;"/>
   </g>
   <g id="patch_7">
    <path d="M 57.6 263.808 
L 414.72 263.808 
" style="fill:none;stroke:#000000;stroke-linecap:square;stroke-linejoin:miter;stroke-width:0.8;"/>
   </g>
   <g id="patch_8">
    <path d="M 57.6 85.248 
L 414.72 85.248 
" style="fill:none;stroke:#000000;stroke-linecap:square;stroke-linejoin:miter;stroke-width:0.8;"/>
   </g>
  </g>
 </g>
 <defs>
  <clipPath id="pc82edc8458">
   <rect height="178.56" width="357.12" x="57.6" y="85.248"/>
  </clipPath>
 </defs>
</svg>
