<?xml version="1.0" encoding="utf-8" standalone="no"?>
<!DOCTYPE svg PUBLIC "-//W3C//DTD SVG 1.1//EN"
  "http://www.w3.org/Graphics/SVG/1.1/DTD/svg11.dtd">
<!-- Created with matplotlib (http://matplotlib.org/) -->
<svg height="345.6pt" version="1.1" viewBox="0 0 460.8 345.6" width="460.8pt" xmlns="http://www.w3.org/2000/svg" xmlns:xlink="http://www.w3.org/1999/xlink">
 <defs>
  <style type="text/css">
*{stroke-linecap:butt;stroke-linejoin:round;}
  </style>
 </defs>
 <g id="figure_1">
  <g id="patch_1">
   <path d="M 0 345.6 
L 460.8 345.6 
L 460.8 0 
L 0 0 
z
" style="fill:#ffffff;"/>
  </g>
  <g id="axes_1">
   <g id="patch_2">
    <path d="M 57.6 263.808 
L 414.72 263.808 
L 414.72 85.248 
L 57.6 85.248 
z
" style="fill:#ffffff;"/>
   </g>
   <g id="PathCollection_1">
    <defs>
     <path d="M 0 3 
C 0.795609 3 1.55874 2.683901 2.12132 2.12132 
C 2.683901 1.55874 3 0.795609 3 0 
C 3 -0.795609 2.683901 -1.55874 2.12132 -2.12132 
C 1.55874 -2.683901 0.795609 -3 0 -3 
C -0.795609 -3 -1.55874 -2.683901 -2.12132 -2.12132 
C -2.683901 -1.55874 -3 -0.795609 -3 0 
C -3 0.795609 -2.683901 1.55874 -2.12132 2.12132 
C -1.55874 2.683901 -0.795609 3 0 3 
z
" id="m7d2e1608ca" style="stroke:#000000;"/>
    </defs>
    <g clip-path="url(#p345af02843)">
     <use style="stroke:#000000;" x="173.689065" xlink:href="#m7d2e1608ca" y="131.002372"/>
    </g>
   </g>
   <g id="patch_3">
    <path clip-path="url(#p345af02843)" d="M 161.76 211.728 
C 171.625555 211.728 181.088371 207.808373 188.064372 200.832372 
C 195.040373 193.856371 198.96 184.393555 198.96 174.528 
C 198.96 164.662445 195.040373 155.199629 188.064372 148.223628 
C 181.088371 141.247627 171.625555 137.328 161.76 137.328 
C 151.894445 137.328 142.431629 141.247627 135.455628 148.223628 
C 128.479627 155.199629 124.56 164.662445 124.56 174.528 
C 124.56 184.393555 128.479627 193.856371 135.455628 200.832372 
C 142.431629 207.808373 151.894445 211.728 161.76 211.728 
z
" style="fill:#cc0000;fill-opacity:0.1;stroke:#cc0000;stroke-dasharray:7.4,3.2;stroke-dashoffset:0;stroke-linejoin:miter;stroke-width:2;"/>
   </g>
   <g id="patch_4">
    <path clip-path="url(#p345af02843)" d="M 310.56 196.848 
C 316.479333 196.848 322.157023 194.496224 326.342623 190.310623 
C 330.528224 186.125023 332.88 180.447333 332.88 174.528 
C 332.88 168.608667 330.528224 162.930977 326.342623 158.745377 
C 322.157023 154.559776 316.479333 152.208 310.56 152.208 
C 304.640667 152.208 298.962977 154.559776 294.777377 158.745377 
C 290.591776 162.930977 288.24 168.608667 288.24 174.528 
C 288.24 180.447333 290.591776 186.125023 294.777377 190.310623 
C 298.962977 194.496224 304.640667 196.848 310.56 196.848 
z
" style="fill:#cc0000;fill-opacity:0.1;stroke:#cc0000;stroke-dasharray:7.4,3.2;stroke-dashoffset:0;stroke-linejoin:miter;stroke-width:2;"/>
   </g>
   <g id="matplotlib.axis_1">
    <g id="xtick_1">
     <g id="line2d_1">
      <defs>
       <path d="M 0 0 
L 0 3.5 
" id="m565f2f4bc6" style="stroke:#000000;stroke-width:0.8;"/>
      </defs>
      <g>
       <use style="stroke:#000000;stroke-width:0.8;" x="87.36" xlink:href="#m565f2f4bc6" y="263.808"/>
      </g>
     </g>
     <g id="text_1">
      <!-- 0.0 -->
      <defs>
       <path d="M 31.78125 66.40625 
Q 24.171875 66.40625 20.328125 58.90625 
Q 16.5 51.421875 16.5 36.375 
Q 16.5 21.390625 20.328125 13.890625 
Q 24.171875 6.390625 31.78125 6.390625 
Q 39.453125 6.390625 43.28125 13.890625 
Q 47.125 21.390625 47.125 36.375 
Q 47.125 51.421875 43.28125 58.90625 
Q 39.453125 66.40625 31.78125 66.40625 
z
M 31.78125 74.21875 
Q 44.046875 74.21875 50.515625 64.515625 
Q 56.984375 54.828125 56.984375 36.375 
Q 56.984375 17.96875 50.515625 8.265625 
Q 44.046875 -1.421875 31.78125 -1.421875 
Q 19.53125 -1.421875 13.0625 8.265625 
Q 6.59375 17.96875 6.59375 36.375 
Q 6.59375 54.828125 13.0625 64.515625 
Q 19.53125 74.21875 31.78125 74.21875 
z
" id="DejaVuSans-30"/>
       <path d="M 10.6875 12.40625 
L 21 12.40625 
L 21 0 
L 10.6875 0 
z
" id="DejaVuSans-2e"/>
      </defs>
      <g transform="translate(79.408438 278.406437)scale(0.1 -0.1)">
       <use xlink:href="#DejaVuSans-30"/>
       <use x="63.623047" xlink:href="#DejaVuSans-2e"/>
       <use x="95.410156" xlink:href="#DejaVuSans-30"/>
      </g>
     </g>
    </g>
    <g id="xtick_2">
     <g id="line2d_2">
      <g>
       <use style="stroke:#000000;stroke-width:0.8;" x="161.76" xlink:href="#m565f2f4bc6" y="263.808"/>
      </g>
     </g>
     <g id="text_2">
      <!-- 0.5 -->
      <defs>
       <path d="M 10.796875 72.90625 
L 49.515625 72.90625 
L 49.515625 64.59375 
L 19.828125 64.59375 
L 19.828125 46.734375 
Q 21.96875 47.46875 24.109375 47.828125 
Q 26.265625 48.1875 28.421875 48.1875 
Q 40.625 48.1875 47.75 41.5 
Q 54.890625 34.8125 54.890625 23.390625 
Q 54.890625 11.625 47.5625 5.09375 
Q 40.234375 -1.421875 26.90625 -1.421875 
Q 22.3125 -1.421875 17.546875 -0.640625 
Q 12.796875 0.140625 7.71875 1.703125 
L 7.71875 11.625 
Q 12.109375 9.234375 16.796875 8.0625 
Q 21.484375 6.890625 26.703125 6.890625 
Q 35.15625 6.890625 40.078125 11.328125 
Q 45.015625 15.765625 45.015625 23.390625 
Q 45.015625 31 40.078125 35.4375 
Q 35.15625 39.890625 26.703125 39.890625 
Q 22.75 39.890625 18.8125 39.015625 
Q 14.890625 38.140625 10.796875 36.28125 
z
" id="DejaVuSans-35"/>
      </defs>
      <g transform="translate(153.808437 278.406437)scale(0.1 -0.1)">
       <use xlink:href="#DejaVuSans-30"/>
       <use x="63.623047" xlink:href="#DejaVuSans-2e"/>
       <use x="95.410156" xlink:href="#DejaVuSans-35"/>
      </g>
     </g>
    </g>
    <g id="xtick_3">
     <g id="line2d_3">
      <g>
       <use style="stroke:#000000;stroke-width:0.8;" x="236.16" xlink:href="#m565f2f4bc6" y="263.808"/>
      </g>
     </g>
     <g id="text_3">
      <!-- 1.0 -->
      <defs>
       <path d="M 12.40625 8.296875 
L 28.515625 8.296875 
L 28.515625 63.921875 
L 10.984375 60.40625 
L 10.984375 69.390625 
L 28.421875 72.90625 
L 38.28125 72.90625 
L 38.28125 8.296875 
L 54.390625 8.296875 
L 54.390625 0 
L 12.40625 0 
z
" id="DejaVuSans-31"/>
      </defs>
      <g transform="translate(228.208437 278.406437)scale(0.1 -0.1)">
       <use xlink:href="#DejaVuSans-31"/>
       <use x="63.623047" xlink:href="#DejaVuSans-2e"/>
       <use x="95.410156" xlink:href="#DejaVuSans-30"/>
      </g>
     </g>
    </g>
    <g id="xtick_4">
     <g id="line2d_4">
      <g>
       <use style="stroke:#000000;stroke-width:0.8;" x="310.56" xlink:href="#m565f2f4bc6" y="263.808"/>
      </g>
     </g>
     <g id="text_4">
      <!-- 1.5 -->
      <g transform="translate(302.608437 278.406437)scale(0.1 -0.1)">
       <use xlink:href="#DejaVuSans-31"/>
       <use x="63.623047" xlink:href="#DejaVuSans-2e"/>
       <use x="95.410156" xlink:href="#DejaVuSans-35"/>
      </g>
     </g>
    </g>
    <g id="xtick_5">
     <g id="line2d_5">
      <g>
       <use style="stroke:#000000;stroke-width:0.8;" x="384.96" xlink:href="#m565f2f4bc6" y="263.808"/>
      </g>
     </g>
     <g id="text_5">
      <!-- 2.0 -->
      <defs>
       <path d="M 19.1875 8.296875 
L 53.609375 8.296875 
L 53.609375 0 
L 7.328125 0 
L 7.328125 8.296875 
Q 12.9375 14.109375 22.625 23.890625 
Q 32.328125 33.6875 34.8125 36.53125 
Q 39.546875 41.84375 41.421875 45.53125 
Q 43.3125 49.21875 43.3125 52.78125 
Q 43.3125 58.59375 39.234375 62.25 
Q 35.15625 65.921875 28.609375 65.921875 
Q 23.96875 65.921875 18.8125 64.3125 
Q 13.671875 62.703125 7.8125 59.421875 
L 7.8125 69.390625 
Q 13.765625 71.78125 18.9375 73 
Q 24.125 74.21875 28.421875 74.21875 
Q 39.75 74.21875 46.484375 68.546875 
Q 53.21875 62.890625 53.21875 53.421875 
Q 53.21875 48.921875 51.53125 44.890625 
Q 49.859375 40.875 45.40625 35.40625 
Q 44.1875 33.984375 37.640625 27.21875 
Q 31.109375 20.453125 19.1875 8.296875 
z
" id="DejaVuSans-32"/>
      </defs>
      <g transform="translate(377.008437 278.406437)scale(0.1 -0.1)">
       <use xlink:href="#DejaVuSans-32"/>
       <use x="63.623047" xlink:href="#DejaVuSans-2e"/>
       <use x="95.410156" xlink:href="#DejaVuSans-30"/>
      </g>
     </g>
    </g>
   </g>
   <g id="matplotlib.axis_2">
    <g id="ytick_1">
     <g id="line2d_6">
      <defs>
       <path d="M 0 0 
L -3.5 0 
" id="m8c18109ad5" style="stroke:#000000;stroke-width:0.8;"/>
      </defs>
      <g>
       <use style="stroke:#000000;stroke-width:0.8;" x="57.6" xlink:href="#m8c18109ad5" y="248.928"/>
      </g>
     </g>
     <g id="text_6">
      <!-- 0.0 -->
      <g transform="translate(34.696875 252.727219)scale(0.1 -0.1)">
       <use xlink:href="#DejaVuSans-30"/>
       <use x="63.623047" xlink:href="#DejaVuSans-2e"/>
       <use x="95.410156" xlink:href="#DejaVuSans-30"/>
      </g>
     </g>
    </g>
    <g id="ytick_2">
     <g id="line2d_7">
      <g>
       <use style="stroke:#000000;stroke-width:0.8;" x="57.6" xlink:href="#m8c18109ad5" y="219.168"/>
      </g>
     </g>
     <g id="text_7">
      <!-- 0.2 -->
      <g transform="translate(34.696875 222.967219)scale(0.1 -0.1)">
       <use xlink:href="#DejaVuSans-30"/>
       <use x="63.623047" xlink:href="#DejaVuSans-2e"/>
       <use x="95.410156" xlink:href="#DejaVuSans-32"/>
      </g>
     </g>
    </g>
    <g id="ytick_3">
     <g id="line2d_8">
      <g>
       <use style="stroke:#000000;stroke-width:0.8;" x="57.6" xlink:href="#m8c18109ad5" y="189.408"/>
      </g>
     </g>
     <g id="text_8">
      <!-- 0.4 -->
      <defs>
       <path d="M 37.796875 64.3125 
L 12.890625 25.390625 
L 37.796875 25.390625 
z
M 35.203125 72.90625 
L 47.609375 72.90625 
L 47.609375 25.390625 
L 58.015625 25.390625 
L 58.015625 17.1875 
L 47.609375 17.1875 
L 47.609375 0 
L 37.796875 0 
L 37.796875 17.1875 
L 4.890625 17.1875 
L 4.890625 26.703125 
z
" id="DejaVuSans-34"/>
      </defs>
      <g transform="translate(34.696875 193.207219)scale(0.1 -0.1)">
       <use xlink:href="#DejaVuSans-30"/>
       <use x="63.623047" xlink:href="#DejaVuSans-2e"/>
       <use x="95.410156" xlink:href="#DejaVuSans-34"/>
      </g>
     </g>
    </g>
    <g id="ytick_4">
     <g id="line2d_9">
      <g>
       <use style="stroke:#000000;stroke-width:0.8;" x="57.6" xlink:href="#m8c18109ad5" y="159.648"/>
      </g>
     </g>
     <g id="text_9">
      <!-- 0.6 -->
      <defs>
       <path d="M 33.015625 40.375 
Q 26.375 40.375 22.484375 35.828125 
Q 18.609375 31.296875 18.609375 23.390625 
Q 18.609375 15.53125 22.484375 10.953125 
Q 26.375 6.390625 33.015625 6.390625 
Q 39.65625 6.390625 43.53125 10.953125 
Q 47.40625 15.53125 47.40625 23.390625 
Q 47.40625 31.296875 43.53125 35.828125 
Q 39.65625 40.375 33.015625 40.375 
z
M 52.59375 71.296875 
L 52.59375 62.3125 
Q 48.875 64.0625 45.09375 64.984375 
Q 41.3125 65.921875 37.59375 65.921875 
Q 27.828125 65.921875 22.671875 59.328125 
Q 17.53125 52.734375 16.796875 39.40625 
Q 19.671875 43.65625 24.015625 45.921875 
Q 28.375 48.1875 33.59375 48.1875 
Q 44.578125 48.1875 50.953125 41.515625 
Q 57.328125 34.859375 57.328125 23.390625 
Q 57.328125 12.15625 50.6875 5.359375 
Q 44.046875 -1.421875 33.015625 -1.421875 
Q 20.359375 -1.421875 13.671875 8.265625 
Q 6.984375 17.96875 6.984375 36.375 
Q 6.984375 53.65625 15.1875 63.9375 
Q 23.390625 74.21875 37.203125 74.21875 
Q 40.921875 74.21875 44.703125 73.484375 
Q 48.484375 72.75 52.59375 71.296875 
z
" id="DejaVuSans-36"/>
      </defs>
      <g transform="translate(34.696875 163.447219)scale(0.1 -0.1)">
       <use xlink:href="#DejaVuSans-30"/>
       <use x="63.623047" xlink:href="#DejaVuSans-2e"/>
       <use x="95.410156" xlink:href="#DejaVuSans-36"/>
      </g>
     </g>
    </g>
    <g id="ytick_5">
     <g id="line2d_10">
      <g>
       <use style="stroke:#000000;stroke-width:0.8;" x="57.6" xlink:href="#m8c18109ad5" y="129.888"/>
      </g>
     </g>
     <g id="text_10">
      <!-- 0.8 -->
      <defs>
       <path d="M 31.78125 34.625 
Q 24.75 34.625 20.71875 30.859375 
Q 16.703125 27.09375 16.703125 20.515625 
Q 16.703125 13.921875 20.71875 10.15625 
Q 24.75 6.390625 31.78125 6.390625 
Q 38.8125 6.390625 42.859375 10.171875 
Q 46.921875 13.96875 46.921875 20.515625 
Q 46.921875 27.09375 42.890625 30.859375 
Q 38.875 34.625 31.78125 34.625 
z
M 21.921875 38.8125 
Q 15.578125 40.375 12.03125 44.71875 
Q 8.5 49.078125 8.5 55.328125 
Q 8.5 64.0625 14.71875 69.140625 
Q 20.953125 74.21875 31.78125 74.21875 
Q 42.671875 74.21875 48.875 69.140625 
Q 55.078125 64.0625 55.078125 55.328125 
Q 55.078125 49.078125 51.53125 44.71875 
Q 48 40.375 41.703125 38.8125 
Q 48.828125 37.15625 52.796875 32.3125 
Q 56.78125 27.484375 56.78125 20.515625 
Q 56.78125 9.90625 50.3125 4.234375 
Q 43.84375 -1.421875 31.78125 -1.421875 
Q 19.734375 -1.421875 13.25 4.234375 
Q 6.78125 9.90625 6.78125 20.515625 
Q 6.78125 27.484375 10.78125 32.3125 
Q 14.796875 37.15625 21.921875 38.8125 
z
M 18.3125 54.390625 
Q 18.3125 48.734375 21.84375 45.5625 
Q 25.390625 42.390625 31.78125 42.390625 
Q 38.140625 42.390625 41.71875 45.5625 
Q 45.3125 48.734375 45.3125 54.390625 
Q 45.3125 60.0625 41.71875 63.234375 
Q 38.140625 66.40625 31.78125 66.40625 
Q 25.390625 66.40625 21.84375 63.234375 
Q 18.3125 60.0625 18.3125 54.390625 
z
" id="DejaVuSans-38"/>
      </defs>
      <g transform="translate(34.696875 133.687219)scale(0.1 -0.1)">
       <use xlink:href="#DejaVuSans-30"/>
       <use x="63.623047" xlink:href="#DejaVuSans-2e"/>
       <use x="95.410156" xlink:href="#DejaVuSans-38"/>
      </g>
     </g>
    </g>
    <g id="ytick_6">
     <g id="line2d_11">
      <g>
       <use style="stroke:#000000;stroke-width:0.8;" x="57.6" xlink:href="#m8c18109ad5" y="100.128"/>
      </g>
     </g>
     <g id="text_11">
      <!-- 1.0 -->
      <g transform="translate(34.696875 103.927219)scale(0.1 -0.1)">
       <use xlink:href="#DejaVuSans-31"/>
       <use x="63.623047" xlink:href="#DejaVuSans-2e"/>
       <use x="95.410156" xlink:href="#DejaVuSans-30"/>
      </g>
     </g>
    </g>
   </g>
   <g id="line2d_12">
    <path clip-path="url(#p345af02843)" d="M 236.16 248.928 
L 236.16 100.128 
" style="fill:none;stroke:#cc0000;stroke-dasharray:7.4,3.2;stroke-dashoffset:0;stroke-width:2;"/>
   </g>
   <g id="line2d_13">
    <path clip-path="url(#p345af02843)" d="M 87.36 248.928 
L 384.96 248.928 
" style="fill:none;stroke:#009900;stroke-linecap:square;stroke-width:2;"/>
   </g>
   <g id="line2d_14">
    <path clip-path="url(#p345af02843)" d="M 384.96 248.928 
L 384.96 100.128 
" style="fill:none;stroke:#009900;stroke-linecap:square;stroke-width:2;"/>
   </g>
   <g id="line2d_15">
    <path clip-path="url(#p345af02843)" d="M 384.96 100.128 
L 87.36 100.128 
" style="fill:none;stroke:#009900;stroke-linecap:square;stroke-width:2;"/>
   </g>
   <g id="line2d_16">
    <path clip-path="url(#p345af02843)" d="M 87.36 100.128 
L 87.36 248.928 
" style="fill:none;stroke:#009900;stroke-linecap:square;stroke-width:2;"/>
   </g>
   <g id="line2d_17">
    <path clip-path="url(#p345af02843)" d="M 173.689065 131.002372 
L 170.528167 136.045219 
L 169.31691 138.103652 
L 167.602651 142.224651 
L 165.644365 146.235441 
L 163.4491 150.121587 
L 161.024756 153.869103 
L 158.380058 157.464502 
L 155.524526 160.894845 
L 152.468434 164.147785 
L 149.222783 167.211617 
L 145.799252 170.075313 
L 142.210163 172.728568 
L 138.468433 175.161831 
L 134.587527 177.366347 
L 130.581414 179.334182 
L 126.46451 181.058253 
L 125.223413 181.522128 
L 129.686743 181.524362 
L 134.141907 181.794232 
L 138.572872 182.330766 
L 142.963691 183.132033 
L 147.298562 184.195149 
L 151.561883 185.516288 
L 155.738312 187.090696 
L 159.812818 188.912706 
L 163.770737 190.975761 
L 167.597825 193.272436 
L 171.280308 195.794466 
L 174.804934 198.532775 
L 178.159017 201.477506 
L 181.330487 204.618063 
L 182.234974 205.586259 
L 180.524842 201.463545 
L 179.065003 197.245704 
L 177.860709 192.947914 
L 176.916294 188.585644 
L 176.235159 184.174593 
L 175.819753 179.730636 
L 175.671572 175.269766 
L 175.79115 170.808037 
L 176.178055 166.361508 
L 176.830896 161.94618 
L 177.747323 157.577945 
L 178.924038 153.272523 
L 180.356805 149.045409 
L 182.04047 144.911815 
L 182.587618 143.705114 
L 179.436349 146.865939 
L 176.101214 149.832115 
L 172.594217 152.592964 
L 168.927979 155.138552 
L 165.115695 157.459717 
L 161.171084 159.548105 
L 157.108344 161.396201 
L 152.942095 162.997353 
L 148.687331 164.345798 
L 144.359365 165.436685 
L 139.973774 166.266086 
L 135.54634 166.831018 
L 131.092998 167.129446 
L 126.629774 167.160296 
L 125.305499 167.117915 
L 129.433372 168.815556 
L 133.45202 170.757665 
L 137.346979 172.937254 
L 141.104233 175.346479 
L 144.710259 177.976668 
L 148.15208 180.818356 
L 151.417308 183.861315 
L 154.494192 187.094595 
L 157.37166 190.50656 
L 160.039354 194.084929 
L 162.487674 197.816825 
L 164.70781 201.688816 
L 166.69177 205.686968 
L 168.432415 209.796892 
L 168.901287 211.036109 
L 171.922595 216.163806 
L 175.146539 221.166582 
L 178.567962 226.036433 
L 182.18139 230.765568 
L 185.981043 235.346421 
L 189.960842 239.771665 
L 194.114419 244.03422 
L 198.435132 248.127266 
L 199.322129 248.928 
L 203.675572 244.869784 
L 207.863247 240.640723 
L 211.878455 236.247582 
L 215.714772 231.697389 
L 219.366062 226.997425 
L 222.826482 222.155207 
L 226.090497 217.178483 
L 229.152886 212.075214 
L 232.008749 206.853564 
L 234.653517 201.521887 
L 236.16 198.222217 
L 233.645978 192.827657 
L 230.918243 187.537946 
L 227.981158 182.361547 
L 224.839421 177.306741 
L 221.498058 172.381613 
L 217.962416 167.594044 
L 214.238151 162.951693 
L 210.331219 158.461986 
L 206.247873 154.132106 
L 201.994644 149.968979 
L 197.578336 145.979267 
L 193.006015 142.16935 
L 188.284995 138.545326 
L 183.42283 135.112991 
L 178.427296 131.877836 
L 173.306387 128.845037 
L 168.068294 126.019445 
L 162.721398 123.405582 
L 157.274252 121.007628 
L 151.735571 118.82942 
L 146.114215 116.874443 
L 140.419177 115.145823 
L 134.659568 113.646328 
L 128.844603 112.378354 
L 122.983583 111.343931 
L 117.085886 110.544714 
L 111.160946 109.981982 
L 105.218242 109.656633 
L 99.267282 109.56919 
L 93.317584 109.719792 
L 87.36 110.109795 
L 93.298867 110.498949 
L 99.248545 110.6503 
L 105.199517 110.563606 
L 111.142262 110.239006 
L 117.067273 109.677019 
L 122.96507 108.878545 
L 128.82622 107.84486 
L 134.641345 106.577619 
L 140.401143 105.078848 
L 146.096398 103.350946 
L 151.718 101.396676 
L 155.023554 100.128 
L 160.597067 102.215471 
L 166.249598 104.078392 
L 171.972104 105.713781 
L 177.755432 107.119023 
L 183.590328 108.29187 
L 189.467458 109.230444 
L 195.37742 109.933246 
L 201.310759 110.39915 
L 207.257984 110.627411 
L 213.209579 110.617664 
L 219.156024 110.369924 
L 225.087805 109.884588 
L 230.995433 109.162432 
L 236.16 108.333136 
L 230.281404 107.40379 
L 224.370346 106.710268 
L 218.436282 106.25368 
L 212.488707 106.034756 
L 206.537134 106.053847 
L 200.591086 106.310922 
L 194.660074 106.80557 
L 188.753586 107.537 
L 182.881073 108.504041 
L 177.051928 109.705147 
L 171.275478 111.138395 
L 165.560963 112.801493 
L 159.917525 114.691781 
L 154.354192 116.806234 
L 148.879865 119.14147 
L 143.503302 121.693752 
L 138.233103 124.458998 
L 133.0777 127.432784 
L 128.045341 130.610352 
L 123.144075 133.986619 
L 118.381745 137.556184 
L 113.765969 141.313336 
L 109.304131 145.252065 
L 105.003369 149.366068 
L 100.870564 153.648766 
L 96.912326 158.093306 
L 93.134989 162.692579 
L 89.544596 167.439225 
L 87.36 170.532758 
L 90.828433 175.369239 
L 94.487499 180.063152 
L 98.331345 184.606986 
L 102.353821 188.993473 
L 106.548492 193.215595 
L 110.908648 197.266598 
L 115.427313 201.14 
L 120.097258 204.829606 
L 124.911013 208.329513 
L 129.860876 211.634121 
L 134.938929 214.738144 
L 140.137047 217.636617 
L 145.446916 220.324901 
L 150.860041 222.798697 
L 156.36776 225.054047 
L 161.961264 227.087343 
L 167.631604 228.895332 
L 173.369709 230.475122 
L 179.166399 231.824185 
L 185.0124 232.940363 
L 190.89836 233.821871 
L 196.814862 234.467298 
L 202.752443 234.875612 
L 208.701602 235.046159 
L 214.652822 234.978667 
L 220.596584 234.673243 
L 226.523377 234.130377 
L 232.42372 233.350937 
L 236.16 232.732379 
L 230.281404 231.803032 
L 224.370346 231.10951 
L 218.436282 230.652922 
L 212.488707 230.433998 
L 206.537134 230.453089 
L 200.591086 230.710165 
L 194.660074 231.204813 
L 188.753586 231.936242 
L 182.881073 232.903284 
L 177.051928 234.104389 
L 171.275478 235.537637 
L 165.560963 237.200736 
L 159.917525 239.091023 
L 154.354192 241.205476 
L 148.879865 243.540712 
L 143.503302 246.092994 
L 138.106522 248.928 
L 132.839011 246.157636 
L 127.464929 243.600133 
L 121.992873 241.259581 
L 116.431597 239.139725 
L 110.789998 237.243957 
L 105.077101 235.575309 
L 99.302045 234.136451 
L 93.47407 232.929684 
L 87.36 231.921936 
L 93.233165 230.95886 
L 99.063119 229.761691 
L 104.840536 228.332344 
L 110.556173 226.673105 
L 116.200887 224.786629 
L 121.765646 222.675933 
L 127.241548 220.344395 
L 132.619834 217.795743 
L 137.891899 215.034057 
L 143.049309 212.063753 
L 147.863055 209.034737 
L 149.302738 214.809587 
L 150.972202 220.522246 
L 152.868776 226.163574 
L 154.989426 231.724548 
L 157.330759 237.19627 
L 159.88903 242.569986 
L 162.660146 247.837101 
L 163.26823 248.928 
L 166.083457 243.68433 
L 168.686741 238.332275 
L 171.073918 232.880397 
L 173.241168 227.337419 
L 175.185024 221.712207 
L 176.902377 216.013762 
L 178.39048 210.251199 
L 179.018952 207.482037 
L 184.562903 209.646797 
L 190.188988 211.588126 
L 195.888204 213.302918 
L 201.651435 214.788432 
L 207.469461 216.042289 
L 213.332973 217.062484 
L 219.232593 217.847385 
L 225.158881 218.395737 
L 231.102357 218.706662 
L 236.16 218.78389 
L 233.184151 218.808503 
L 227.236906 219.03622 
L 221.303524 219.501581 
L 215.393498 220.203842 
L 209.516282 221.14188 
L 203.681279 222.314193 
L 197.897823 223.718906 
L 192.175167 225.353772 
L 186.522466 227.216176 
L 180.948762 229.303137 
L 175.462973 231.611318 
L 170.073875 234.137026 
L 164.790088 236.87622 
L 159.620067 239.824518 
L 154.572082 242.977203 
L 149.654208 246.329232 
L 146.112539 248.928 
L 141.295755 245.432263 
L 136.343032 242.131943 
L 131.262293 239.032318 
L 126.061666 236.138348 
L 120.749472 233.454663 
L 115.334207 230.985555 
L 109.824537 228.734975 
L 104.229274 226.706524 
L 98.55737 224.903446 
L 92.8179 223.328626 
L 87.36 222.056673 
L 93.154701 220.699093 
L 98.890478 219.110873 
L 104.558155 217.294553 
L 110.148665 215.25304 
L 115.653065 212.989598 
L 121.062548 210.50785 
L 126.36846 207.811766 
L 131.562314 204.905658 
L 136.528333 201.863014 
L 140.034174 199.100697 
L 143.699347 196.553575 
L 147.510659 194.230815 
L 151.454396 192.140776 
L 155.516363 190.29098 
L 159.681941 188.688085 
L 163.93614 187.337859 
L 168.263649 186.245161 
L 172.648893 185.413925 
L 177.07609 184.847141 
L 181.529307 184.546849 
L 185.992517 184.514131 
L 190.449658 184.749103 
L 194.884689 185.250921 
L 197.26406 185.63213 
L 193.267018 183.645934 
L 189.396269 181.423633 
L 185.665744 178.973226 
L 182.088867 176.30353 
L 178.678513 173.424155 
L 175.446954 170.345463 
L 172.405821 167.078533 
L 169.566059 163.635124 
L 166.937887 160.027627 
L 164.530765 156.269026 
L 162.353355 152.372848 
L 160.413493 148.353115 
L 158.718162 144.224293 
L 157.273462 140.001242 
L 156.599599 137.687665 
L 154.198406 132.241946 
L 151.581363 126.896606 
L 148.752657 121.660194 
L 145.716813 116.54109 
L 142.478688 111.547481 
L 139.043462 106.687358 
L 135.41663 101.968494 
L 133.918337 100.128 
L 130.216707 104.78842 
L 126.704405 109.593138 
L 123.38705 114.534467 
L 120.269949 119.604503 
L 117.358088 124.795134 
L 114.656127 130.098056 
L 112.168387 135.504787 
L 109.898849 141.006675 
L 107.851143 146.59492 
L 106.028545 152.260581 
L 104.433971 157.994595 
L 103.069972 163.787788 
L 101.93873 169.630893 
L 101.042054 175.514561 
L 100.38138 181.429381 
L 99.957764 187.365889 
L 99.771884 193.314589 
L 99.824037 199.265964 
L 100.11414 205.210492 
L 100.641729 211.138665 
L 101.405959 217.040998 
L 102.405608 222.908048 
L 103.639077 228.73043 
L 105.104393 234.49883 
L 106.799211 240.204018 
L 108.72082 245.836868 
L 109.88384 248.928 
L 111.929992 243.339186 
L 113.751014 237.673018 
L 115.343993 231.938561 
L 116.70638 226.144988 
L 117.835997 220.301569 
L 118.731036 214.417652 
L 119.390065 208.502649 
L 119.81203 202.566023 
L 119.996255 196.617271 
L 119.942447 190.665912 
L 119.650691 184.721464 
L 119.121453 178.793438 
L 118.355581 172.891318 
L 117.3543 167.024546 
L 116.119212 161.202507 
L 114.652292 155.434515 
L 112.955887 149.729799 
L 111.032711 144.097483 
L 108.885841 138.54658 
L 106.518712 133.085968 
L 103.935109 127.724385 
L 101.139167 122.470406 
L 98.135359 117.332438 
L 94.928489 112.3187 
L 91.523689 107.437214 
L 87.926404 102.695787 
L 87.36 101.983933 
L 88.821979 100.128 
L 92.560958 104.758509 
L 96.482117 109.235796 
L 100.579183 113.552696 
L 104.845602 117.702304 
L 109.274549 121.677982 
L 113.858937 125.473369 
L 118.591434 129.082393 
L 123.464467 132.499281 
L 128.470242 135.718567 
L 133.60075 138.7351 
L 138.847783 141.544055 
L 141.914741 143.063644 
L 141.777111 137.113632 
L 141.401654 131.173884 
L 140.788971 125.253901 
L 139.940042 119.363154 
L 138.856225 113.511067 
L 137.539254 107.707002 
L 135.991235 101.960245 
L 135.445366 100.128 
L 133.82364 105.854394 
L 132.432207 111.641059 
L 131.273291 117.478738 
L 130.348747 123.358092 
L 129.660055 129.269714 
L 129.208315 135.204149 
L 128.99425 141.151901 
L 129.018204 147.103456 
L 129.280136 153.049293 
L 129.499251 156.005472 
L 124.178135 158.671426 
L 118.967886 161.548035 
L 113.876838 164.630698 
L 108.913136 167.914483 
L 104.084721 171.394137 
L 99.399317 175.064092 
L 94.86442 178.918477 
L 90.487284 182.951128 
L 87.36 186.040065 
L 91.616112 190.200244 
L 96.035183 194.186896 
L 100.610142 197.993643 
L 105.333672 201.614396 
L 110.198214 205.043362 
L 115.195987 208.275056 
L 120.318996 211.304307 
L 125.559045 214.126268 
L 130.907751 216.736427 
L 136.356557 219.130607 
L 141.896746 221.304977 
L 147.519455 223.25606 
L 153.215689 224.980733 
L 158.976335 226.476239 
L 164.792178 227.740183 
L 170.653912 228.770545 
L 176.552162 229.565676 
L 182.47749 230.124304 
L 188.420418 230.445535 
L 194.371438 230.528856 
L 200.32103 230.374132 
L 206.259675 229.981612 
L 212.177874 229.351924 
L 218.066157 228.486074 
L 223.915106 227.385449 
L 229.715363 226.051808 
L 235.45765 224.487286 
L 236.16 224.278872 
L 230.425486 222.686096 
L 224.631866 221.323914 
L 218.788407 220.194504 
L 212.904457 219.299674 
L 206.989431 218.640855 
L 201.05279 218.219101 
L 195.104032 218.035086 
L 189.152674 218.089106 
L 183.208237 218.381073 
L 177.28023 218.910521 
L 171.378137 219.676602 
L 165.5114 220.678091 
L 159.689405 221.913386 
L 153.921466 223.380511 
L 148.216809 225.077118 
L 142.584562 227.000494 
L 137.033735 229.147561 
L 131.573207 231.514884 
L 126.211715 234.098677 
L 120.957836 236.894805 
L 115.819974 239.898796 
L 110.80635 243.105843 
L 105.924984 246.510817 
L 102.696217 248.928 
L 97.90893 245.391976 
L 92.984069 242.050222 
L 87.929513 238.908082 
L 87.36 238.571358 
L 92.428477 235.451724 
L 97.368148 232.1319 
L 102.17111 228.617197 
L 106.829679 224.913238 
L 111.336404 221.025949 
L 115.684073 216.961548 
L 119.865732 212.726538 
L 123.874691 208.327694 
L 127.704536 203.772053 
L 131.349141 199.066903 
L 132.498959 197.49823 
L 127.031786 199.850166 
L 121.663039 202.418849 
L 116.401306 205.20017 
L 111.255005 208.189679 
L 106.232369 211.382595 
L 101.341433 214.773808 
L 96.590022 218.357894 
L 91.985736 222.129119 
L 87.36 226.244395 
L 91.803418 230.203891 
L 96.40162 233.982531 
L 101.147249 237.57427 
L 106.032713 240.973361 
L 111.050197 244.174367 
L 116.191674 247.172166 
L 119.440662 248.928 
L 124.654952 246.058721 
L 129.750331 242.983221 
L 134.718646 239.706421 
L 139.551951 236.233562 
L 144.242511 232.5702 
L 148.782825 228.722196 
L 153.165628 224.695706 
L 157.383908 220.497171 
L 161.430917 216.133309 
L 165.346487 211.554708 
L 170.009928 215.252532 
L 174.817511 218.760911 
L 179.761547 222.074231 
L 184.834126 225.187193 
L 190.027132 228.094815 
L 195.332258 230.792446 
L 200.741017 233.275772 
L 206.244757 235.540818 
L 211.834671 237.583961 
L 217.501818 239.401934 
L 223.237132 240.991826 
L 229.031437 242.351096 
L 234.875463 243.477568 
L 236.16 243.692839 
L 230.306338 244.768116 
L 224.500357 246.076616 
L 218.751347 247.616247 
L 214.461354 248.928 
L 208.761368 247.215766 
L 202.997471 245.73284 
L 197.178883 244.481595 
L 191.314913 243.464032 
L 185.414942 242.681779 
L 179.488408 242.136088 
L 173.544793 241.827832 
L 167.593605 241.757503 
L 161.644365 241.925215 
L 155.706591 242.330698 
L 149.789781 242.973305 
L 143.903402 243.852007 
L 138.05687 244.965399 
L 132.259538 246.311699 
L 126.520681 247.888753 
L 123.161079 248.928 
L 117.461094 247.215766 
L 111.697196 245.73284 
L 105.878608 244.481595 
L 100.014638 243.464032 
L 94.114667 242.681779 
L 88.188133 242.136088 
L 87.36 242.078833 
L 93.289486 241.566213 
L 99.193729 240.816886 
L 105.063285 239.832052 
L 110.888762 238.613286 
L 116.660843 237.162538 
L 122.370292 235.482129 
L 128.007975 233.574747 
L 133.564874 231.443444 
L 139.032099 229.091629 
L 144.400903 226.523064 
L 149.662697 223.741859 
L 154.809064 220.752462 
L 159.83177 217.559658 
L 164.722781 214.168552 
L 168.89554 211.037233 
L 174.654272 212.540093 
L 180.468495 213.811463 
L 186.32891 214.84931 
L 192.226139 215.651972 
L 198.150749 216.218166 
L 204.093262 216.546986 
L 210.044171 216.637906 
L 215.993955 216.49078 
L 221.933097 216.105844 
L 227.852095 215.483713 
L 233.741479 214.625384 
L 236.16 214.202822 
L 230.285579 213.24744 
L 224.377651 212.527735 
L 218.445669 212.044861 
L 212.499122 211.799589 
L 206.547523 211.792311 
L 200.600394 212.02304 
L 194.667249 212.491405 
L 188.757579 213.196659 
L 182.880839 214.137672 
L 177.04643 215.31294 
L 171.263686 216.720582 
L 165.541859 218.358345 
L 159.890101 220.223611 
L 154.317455 222.313395 
L 148.832835 224.624353 
L 143.445017 227.15279 
L 138.162618 229.894659 
L 132.99409 232.845574 
L 127.947702 236.000816 
L 123.031526 239.355335 
L 118.253428 242.903765 
L 113.621051 246.64043 
L 110.962652 248.928 
L 106.419627 245.083198 
L 101.726485 241.423143 
L 96.890734 237.953692 
L 91.92011 234.680395 
L 87.36 231.919375 
L 92.444683 228.826225 
L 97.401606 225.532216 
L 102.222839 222.042617 
L 106.900668 218.363013 
L 111.427611 214.499288 
L 115.796425 210.457624 
L 120.000121 206.244487 
L 124.031974 201.866618 
L 127.885534 197.331019 
L 130.269088 194.331092 
L 133.663151 191.432531 
L 137.224915 188.742707 
L 140.941563 186.271302 
L 144.799719 184.027208 
L 148.785496 182.018503 
L 152.884552 180.252416 
L 157.082133 178.735303 
L 161.363133 177.472624 
L 165.712144 176.468922 
L 170.113516 175.727811 
L 174.551407 175.251957 
L 179.009847 175.043074 
L 183.47279 175.101912 
L 187.924173 175.42826 
L 192.347978 176.020944 
L 196.728282 176.87783 
L 198.849578 177.392121 
L 194.39668 177.697106 
L 189.933506 177.734528 
L 185.47612 177.504253 
L 181.040563 177.00711 
L 176.642798 176.244888 
L 172.298653 175.220329 
L 168.023761 173.937122 
L 163.833508 172.399885 
L 159.742975 170.614149 
L 155.766882 168.586342 
L 151.919539 166.323761 
L 148.214792 163.834549 
L 144.665976 161.127666 
L 141.285861 158.212852 
L 138.086612 155.100598 
L 135.079743 151.802104 
L 133.682762 150.124953 
L 130.702891 144.973065 
L 127.519383 139.944461 
L 124.137331 135.047186 
L 120.562146 130.289074 
L 116.799546 125.677737 
L 112.855552 121.220553 
L 108.736473 116.924652 
L 104.448898 112.796906 
L 99.999688 108.843919 
L 95.395958 105.072015 
L 90.645076 101.487229 
L 88.735225 100.128 
L 87.36 101.102159 
L 92.265407 104.472406 
L 97.301663 107.643794 
L 102.460713 110.611248 
L 107.734303 113.370021 
L 113.113996 115.915701 
L 118.591186 118.244213 
L 124.157111 120.351834 
L 129.802865 122.235192 
L 135.519418 123.891273 
L 141.297624 125.317428 
L 147.128239 126.511376 
L 153.001935 127.471207 
L 158.909315 128.195384 
L 164.84093 128.68275 
L 170.78729 128.932525 
L 176.738882 128.944309 
L 182.686184 128.718084 
L 188.619682 128.254211 
L 194.529884 127.553432 
L 200.407335 126.616868 
L 206.242632 125.446019 
L 212.02644 124.042756 
L 217.749506 122.409326 
L 223.402675 120.54834 
L 228.976902 118.462776 
L 234.463269 116.155971 
L 236.16 115.389539 
L 230.702924 113.01427 
L 225.155228 110.859125 
L 219.525787 108.927553 
L 213.823606 107.222644 
L 208.057808 105.747125 
L 202.237617 104.503357 
L 196.372344 103.493329 
L 190.471373 102.718657 
L 184.544143 102.180581 
L 178.600137 101.879961 
L 172.648864 101.817279 
L 166.699844 101.992634 
L 160.762596 102.405746 
L 154.846617 103.055954 
L 148.961371 103.942219 
L 143.116274 105.063121 
L 137.320677 106.416869 
L 131.583851 108.001295 
L 125.914974 109.813867 
L 120.323115 111.851683 
L 114.81722 114.111483 
L 109.406096 116.589653 
L 104.098402 119.282228 
L 98.902627 122.184901 
L 93.827085 125.293027 
L 88.879894 128.601634 
L 87.36 129.676918 
L 92.265407 133.047166 
L 97.301663 136.218553 
L 102.460713 139.186007 
L 107.734303 141.944781 
L 113.113996 144.49046 
L 118.591186 146.818973 
L 124.157111 148.926594 
L 129.802865 150.809951 
L 132.458039 151.609992 
L 129.364286 146.525676 
L 126.069688 141.569144 
L 122.579518 136.748325 
L 118.899358 132.070933 
L 115.035096 127.544448 
L 110.992914 123.176114 
L 106.779278 118.972918 
L 102.40093 114.941585 
L 97.864874 111.088563 
L 93.178366 107.420018 
L 88.348905 103.941817 
L 87.36 103.26508 
L 91.806754 100.128 
L 96.675822 103.550537 
L 101.67786 106.775625 
L 106.804866 109.798106 
L 112.048638 112.613143 
L 117.400787 115.216233 
L 122.852751 117.603213 
L 128.395808 119.770263 
L 134.02109 121.713916 
L 139.719597 123.431063 
L 145.482214 124.918957 
L 151.299721 126.175218 
L 157.162812 127.197835 
L 163.062106 127.985174 
L 168.988167 128.535974 
L 174.931514 128.849354 
L 180.882639 128.924813 
L 186.832021 128.76223 
L 192.770143 128.361865 
L 198.687505 127.724359 
L 204.574639 126.850732 
L 210.422129 125.742381 
L 216.22062 124.401079 
L 221.960834 122.828972 
L 227.633589 121.028576 
L 233.22981 119.002769 
L 236.16 117.839494 
L 243.441356 116.312218 
L 250.682259 114.603404 
L 257.878183 112.714121 
L 265.024632 110.645549 
L 272.117138 108.39898 
L 279.15127 105.97582 
L 286.122631 103.377581 
L 294.168831 100.128 
L 301.061476 102.928388 
L 308.021968 105.555603 
L 315.04596 108.008002 
L 322.12906 110.284054 
L 329.266842 112.382335 
L 336.454845 114.301535 
L 343.688577 116.040454 
L 350.963517 117.598005 
L 358.275118 118.973214 
L 365.618812 120.165223 
L 372.990007 121.173286 
L 380.384099 121.996774 
L 384.96 122.412923 
L 377.554076 123.122155 
L 370.168196 124.016294 
L 362.806974 125.094781 
L 355.475012 126.356943 
L 348.176892 127.80199 
L 340.917175 129.42902 
L 333.700398 131.237015 
L 326.531072 133.224847 
L 319.413676 135.391271 
L 312.352659 137.734935 
L 305.352434 140.254373 
L 298.417376 142.948012 
L 291.55182 145.814167 
L 284.760054 148.851048 
L 278.046326 152.056756 
L 271.414829 155.429288 
L 264.86971 158.966536 
L 258.415057 162.66629 
L 252.054906 166.526238 
L 245.793231 170.543966 
L 239.633945 174.716965 
L 236.16 177.171546 
L 242.259013 181.432151 
L 248.462624 185.538965 
L 254.766957 189.489422 
L 261.16807 193.281053 
L 267.661965 196.911487 
L 274.244581 200.378457 
L 280.911806 203.679795 
L 287.659472 206.813438 
L 294.483362 209.777428 
L 301.379212 212.569912 
L 308.342713 215.189145 
L 315.369511 217.633491 
L 322.455215 219.901421 
L 329.595398 221.991518 
L 336.785597 223.902476 
L 344.021318 225.6331 
L 351.298039 227.18231 
L 358.611212 228.549136 
L 365.956267 229.732725 
L 373.328613 230.732337 
L 380.723644 231.547348 
L 384.96 231.930169 
L 377.554076 232.639401 
L 370.168196 233.53354 
L 362.806974 234.612027 
L 355.475012 235.874189 
L 348.176892 237.319236 
L 340.917175 238.946266 
L 333.700398 240.754262 
L 326.531072 242.742093 
L 319.413676 244.908517 
L 312.352659 247.252181 
L 307.635963 248.928 
L 300.615364 246.465907 
L 293.535412 244.180081 
L 286.400533 242.071949 
L 279.215186 240.142829 
L 271.983861 238.393928 
L 264.711078 236.826336 
L 257.401382 235.441036 
L 250.059341 234.238891 
L 242.689544 233.220655 
L 236.16 232.474683 
L 243.550485 231.619435 
L 250.917281 230.579711 
L 258.255786 229.356161 
L 265.561411 227.94955 
L 272.829592 226.360757 
L 280.055786 224.590775 
L 287.235477 222.64071 
L 294.364178 220.511781 
L 301.437434 218.205318 
L 308.450823 215.722763 
L 315.399964 213.065667 
L 322.280513 210.235691 
L 329.08817 207.234603 
L 335.81868 204.064279 
L 342.467837 200.726701 
L 349.031486 197.223955 
L 355.505524 193.558228 
L 361.885905 189.731814 
L 368.168642 185.747102 
L 374.349809 181.606583 
L 380.425541 177.312844 
L 384.96 173.956513 
L 378.96675 169.548376 
L 372.86518 165.291433 
L 366.659105 161.188343 
L 360.352403 157.241671 
L 353.949014 153.453883 
L 347.452942 149.827347 
L 340.868246 146.364329 
L 334.199041 143.066993 
L 327.449495 139.937401 
L 320.623827 136.977508 
L 313.726302 134.189163 
L 306.761231 131.57411 
L 299.732967 129.133983 
L 292.645902 126.870306 
L 285.504466 124.784495 
L 278.313122 122.877853 
L 271.076364 121.151572 
L 263.798714 119.60673 
L 256.484722 118.244294 
L 249.138958 117.065114 
L 241.766012 116.069927 
L 234.701792 115.14211 
L 228.841527 114.103421 
L 222.944413 113.299911 
L 217.019884 112.732866 
L 211.077419 112.403191 
L 205.126523 112.311416 
L 199.176717 112.457687 
L 193.23752 112.841769 
L 187.318433 113.463049 
L 181.428925 114.320532 
L 175.578419 115.412846 
L 169.776273 116.738245 
L 164.031769 118.294608 
L 158.354099 120.079444 
L 152.752345 122.089899 
L 147.235468 124.322757 
L 141.812295 126.774444 
L 136.491501 129.44104 
L 131.281598 132.318277 
L 126.190922 135.401554 
L 121.227615 138.685937 
L 116.39962 142.166172 
L 111.714658 145.836692 
L 107.180225 149.691624 
L 102.803576 153.724801 
L 98.591712 157.929772 
L 94.55137 162.299809 
L 90.689016 166.827921 
L 87.36 171.045791 
L 91.056348 175.710402 
L 94.936273 180.223467 
L 98.99357 184.577767 
L 103.221747 188.766335 
L 107.614039 192.782471 
L 112.163421 196.619749 
L 116.862615 200.272031 
L 121.704101 203.733474 
L 126.680136 206.998541 
L 131.782758 210.062007 
L 137.003805 212.918973 
L 142.334923 215.564867 
L 147.767585 217.995456 
L 153.293099 220.206853 
L 158.902625 222.19552 
L 164.58719 223.958275 
L 170.337699 225.492297 
L 176.144953 226.795134 
L 181.999662 227.8647 
L 187.892458 228.699285 
L 193.813915 229.297553 
L 199.75456 229.658547 
L 205.704889 229.781691 
L 211.655383 229.666786 
L 217.596522 229.314016 
L 223.518802 228.723947 
L 229.412748 227.897522 
L 235.268932 226.836062 
L 236.16 226.65324 
L 243.550485 225.797991 
L 250.917281 224.758267 
L 258.255786 223.534718 
L 265.561411 222.128107 
L 272.829592 220.539314 
L 280.055786 218.769331 
L 287.235477 216.819266 
L 294.364178 214.690337 
L 301.437434 212.383874 
L 308.450823 209.901319 
L 315.399964 207.244223 
L 322.280513 204.414247 
L 329.08817 201.413159 
L 335.81868 198.242836 
L 342.467837 194.905258 
L 349.031486 191.402511 
L 355.505524 187.736785 
L 361.885905 183.91037 
L 368.168642 179.925658 
L 374.349809 175.785139 
L 380.425541 171.491401 
L 384.96 168.135069 
L 378.96675 163.726933 
L 372.86518 159.469989 
L 366.659105 155.366899 
L 360.352403 151.420227 
L 353.949014 147.632439 
L 347.452942 144.005903 
L 340.868246 140.542885 
L 334.199041 137.24555 
L 327.449495 134.115957 
L 320.623827 131.156064 
L 313.726302 128.367719 
L 306.761231 125.752666 
L 299.732967 123.312539 
L 292.645902 121.048862 
L 285.504466 118.963051 
L 278.313122 117.05641 
L 271.076364 115.330128 
L 263.798714 113.785287 
L 256.484722 112.42285 
L 249.138958 111.24367 
L 241.766012 110.248483 
L 236.16 109.616899 
L 243.550485 108.761651 
L 250.917281 107.721927 
L 258.255786 106.498377 
L 265.561411 105.091766 
L 272.829592 103.502973 
L 280.055786 101.732991 
L 286.015162 100.128 
L 293.203098 102.047453 
L 300.436768 103.786626 
L 307.711654 105.344432 
L 315.023207 106.719899 
L 322.366858 107.912166 
L 329.738018 108.920488 
L 337.132081 109.744236 
L 344.544424 110.382894 
L 351.970416 110.836063 
L 359.405415 111.10346 
L 366.844776 111.184917 
L 374.283847 111.080385 
L 381.717982 110.789928 
L 384.96 110.60491 
L 377.529478 110.233353 
L 370.091989 110.047656 
L 362.652183 110.047935 
L 355.214709 110.234189 
L 347.784214 110.606303 
L 340.365343 111.164043 
L 332.962733 111.907062 
L 325.581009 112.834894 
L 318.224786 113.946961 
L 310.89866 115.242566 
L 303.607209 116.7209 
L 296.354992 118.38104 
L 289.146541 120.221948 
L 281.986359 122.242472 
L 274.878923 124.441352 
L 267.828674 126.817211 
L 260.840019 129.368566 
L 253.917325 132.093822 
L 247.064918 134.991276 
L 240.287081 138.059117 
L 236.16 140.028451 
L 242.889898 143.200074 
L 249.696976 146.202475 
L 256.576978 149.033779 
L 263.525606 151.692216 
L 270.538517 154.176124 
L 277.611327 156.483952 
L 284.739617 158.614257 
L 292.939556 160.827549 
L 298.23193 163.550114 
L 303.411197 166.48214 
L 308.469071 169.618936 
L 313.397461 172.955484 
L 318.188482 176.486447 
L 322.83447 180.206174 
L 327.327993 184.108717 
L 329.587958 186.195014 
L 324.026874 184.074653 
L 318.555031 181.733604 
L 313.181181 179.175612 
L 307.913923 176.40477 
L 302.761682 173.42551 
L 297.7327 170.242598 
L 292.835024 166.861126 
L 290.358126 165.037654 
L 296.119648 166.52978 
L 301.816893 168.251112 
L 307.440745 170.198896 
L 312.982209 172.370016 
L 318.432418 174.760999 
L 323.782654 177.36802 
L 329.024357 180.186908 
L 331.687781 181.72517 
L 325.796552 180.879597 
L 319.943848 179.799114 
L 314.139034 178.485449 
L 308.391396 176.940705 
L 302.710128 175.167352 
L 297.104321 173.168228 
L 291.58294 170.94653 
L 288.765688 169.712364 
L 294.714301 169.901003 
L 300.650612 170.327372 
L 306.565124 170.990789 
L 312.448376 171.890193 
L 318.290956 173.024145 
L 324.083516 174.390831 
L 329.816789 175.988064 
L 332.753284 176.902984 
L 326.820316 177.373595 
L 320.873275 177.606573 
L 314.921674 177.601547 
L 308.975034 177.358525 
L 303.04287 176.877895 
L 297.13467 176.160426 
L 291.259888 175.207266 
L 288.240201 174.622825 
L 294.084688 173.498742 
L 299.96945 172.609276 
L 305.885075 171.955848 
L 311.822097 171.539506 
L 317.77102 171.360913 
L 323.722327 171.420357 
L 329.666496 171.717743 
L 332.732303 171.96453 
L 327.048049 173.728285 
L 321.29781 175.26332 
L 315.490785 176.567179 
L 309.636265 177.637775 
L 303.743616 178.473397 
L 297.822264 179.072708 
L 291.881683 179.434748 
L 288.807392 179.528645 
L 294.261632 177.14687 
L 299.806754 174.985112 
L 305.433888 173.046829 
L 311.134032 171.335121 
L 316.898066 169.852728 
L 322.71677 168.60202 
L 328.580834 167.584999 
L 331.625866 167.151571 
L 326.4686 170.122126 
L 321.19667 172.884068 
L 315.818508 175.432981 
L 310.342718 177.764785 
L 304.778062 179.875751 
L 299.13344 181.762502 
L 293.417883 183.422018 
L 290.439493 184.189655 
L 295.236471 180.66679 
L 300.170489 177.33857 
L 305.233653 174.21032 
L 310.417864 171.287045 
L 315.714829 168.573422 
L 321.116072 166.073792 
L 326.612953 163.792153 
L 329.488139 162.69973 
L 325.110338 166.731658 
L 320.574806 170.585296 
L 315.888797 174.254479 
L 311.059808 177.733336 
L 306.095565 181.016303 
L 301.004009 184.098126 
L 295.793285 186.973877 
L 293.056603 188.377674 
L 285.887048 190.364684 
L 278.769404 192.530293 
L 271.708119 194.873148 
L 264.707606 197.391784 
L 257.772239 200.084628 
L 250.906354 202.949996 
L 244.114241 205.986099 
L 236.16 209.805752 
L 232.673994 214.629583 
L 229.383679 219.588958 
L 226.294318 224.675945 
L 223.410853 229.882403 
L 220.737897 235.200005 
L 218.279727 240.620243 
L 216.040275 246.134446 
L 215.002272 248.928 
L 212.873702 243.370053 
L 210.524576 237.901673 
L 207.958652 232.531606 
L 205.180035 227.268445 
L 202.19317 222.120608 
L 199.002836 217.096332 
L 195.614137 212.203654 
L 192.032493 207.450402 
L 188.263635 202.844179 
L 183.416773 197.073228 
L 180.804365 193.454299 
L 178.413664 189.685232 
L 176.253273 185.779591 
L 174.330968 181.751433 
L 172.653666 177.615253 
L 171.227405 173.385939 
L 170.057316 169.078712 
L 169.147612 164.709071 
L 168.501566 160.292744 
L 168.121503 155.845625 
L 168.008791 151.383718 
L 168.163836 146.923081 
L 168.586079 142.479768 
L 169.269506 138.09385 
L 168.927217 139.54192 
L 167.72761 143.84102 
L 166.27237 148.060451 
L 164.566735 152.185027 
L 162.616843 156.199904 
L 160.429712 160.090634 
L 158.013212 163.843213 
L 155.376041 167.444136 
L 152.52769 170.880444 
L 149.47841 174.139771 
L 146.239174 177.210385 
L 142.821641 180.081236 
L 139.23811 182.741992 
L 135.501478 185.183078 
L 131.625193 187.395707 
L 127.645481 189.361732 
L 129.026587 188.808001 
L 133.232459 187.314027 
L 137.520347 186.074942 
L 141.87482 185.095205 
L 146.280206 184.378343 
L 150.720651 183.926935 
L 155.180173 183.742607 
L 159.642724 183.826021 
L 164.092243 184.176878 
L 168.512717 184.793914 
L 172.888236 185.674909 
L 177.203053 186.816693 
L 181.44164 188.215155 
L 185.588743 189.865264 
L 189.629435 191.761081 
L 193.528024 193.88343 
L 192.280185 193.072893 
L 188.637389 190.493871 
L 185.155797 187.701053 
L 181.847938 184.70449 
L 178.725717 181.514968 
L 175.800371 178.143963 
L 173.082428 174.603609 
L 170.58167 170.906648 
L 168.307097 167.066383 
L 166.266894 163.096636 
L 164.468404 159.011694 
L 162.9181 154.826257 
L 161.621561 150.55539 
L 160.583454 146.214463 
L 159.807514 141.819098 
L 159.298611 137.40952 
L 159.354196 138.896457 
L 159.342434 143.359771 
L 159.063054 147.814349 
L 158.517063 152.244159 
L 157.706426 156.633257 
L 156.634059 160.965849 
L 155.303822 165.22634 
L 153.720503 169.399399 
L 151.8898 173.470006 
L 149.818301 177.423513 
L 147.513461 181.245689 
L 144.983576 184.92278 
L 142.23775 188.441553 
L 139.285866 191.789343 
L 136.138546 194.954101 
L 132.82588 197.908691 
L 134.009721 197.007253 
L 137.66606 194.447466 
L 141.469314 192.111535 
L 145.405796 190.007865 
L 149.461339 188.144028 
L 153.621348 186.526731 
L 157.87085 185.161796 
L 162.194552 184.054134 
L 166.576894 183.207731 
L 171.002104 182.625635 
L 175.454256 182.309939 
L 179.917326 182.26178 
L 184.375254 182.481331 
L 188.811994 182.967803 
L 193.21158 183.719443 
L 197.534499 184.727274 
L 203.342614 186.026268 
L 209.198029 187.09196 
L 215.091376 187.922645 
L 221.013228 188.516995 
L 226.954111 188.874059 
L 232.90452 188.993265 
L 240.6232 188.875506 
L 248.057515 188.589704 
L 255.482362 188.118153 
L 262.893102 187.461148 
L 270.285102 186.619098 
L 277.653744 185.592531 
L 284.994421 184.382088 
L 290.092067 183.430028 
L 284.123052 187.870927 
L 278.266914 192.459648 
L 272.527312 197.193323 
L 266.907832 202.068995 
L 261.411988 207.083615 
L 256.043214 212.23405 
L 250.804865 217.517081 
L 245.700215 222.929406 
L 240.732454 228.467643 
L 236.16 233.821694 
L 240.995353 239.475903 
L 245.970535 245.007474 
L 249.652496 248.928 
L 254.726831 243.487243 
L 259.663577 237.921341 
L 264.459646 232.233773 
L 269.112042 226.428092 
L 273.617858 220.507928 
L 277.974277 214.476981 
L 282.178577 208.339018 
L 286.22813 202.097878 
L 290.120405 195.757459 
L 293.850605 189.325923 
L 293.850605 189.325923 
" style="fill:none;stroke:#1f77b4;stroke-linecap:square;stroke-width:1.5;"/>
   </g>
   <g id="patch_5">
    <path d="M 57.6 263.808 
L 57.6 85.248 
" style="fill:none;stroke:#000000;stroke-linecap:square;stroke-linejoin:miter;stroke-width:0.8;"/>
   </g>
   <g id="patch_6">
    <path d="M 414.72 263.808 
L 414.72 85.248 
" style="fill:none;stroke:#000000;stroke-linecap:square;stroke-linejoin:miter;stroke-width:0.8;"/>
   </g>
   <g id="patch_7">
    <path d="M 57.6 263.808 
L 414.72 263.808 
" style="fill:none;stroke:#000000;stroke-linecap:square;stroke-linejoin:miter;stroke-width:0.8;"/>
   </g>
   <g id="patch_8">
    <path d="M 57.6 85.248 
L 414.72 85.248 
" style="fill:none;stroke:#000000;stroke-linecap:square;stroke-linejoin:miter;stroke-width:0.8;"/>
   </g>
  </g>
 </g>
 <defs>
  <clipPath id="p345af02843">
   <rect height="178.56" width="357.12" x="57.6" y="85.248"/>
  </clipPath>
 </defs>
</svg>
