<?xml version="1.0" encoding="utf-8" standalone="no"?>
<!DOCTYPE svg PUBLIC "-//W3C//DTD SVG 1.1//EN"
  "http://www.w3.org/Graphics/SVG/1.1/DTD/svg11.dtd">
<!-- Created with matplotlib (http://matplotlib.org/) -->
<svg height="345.6pt" version="1.1" viewBox="0 0 460.8 345.6" width="460.8pt" xmlns="http://www.w3.org/2000/svg" xmlns:xlink="http://www.w3.org/1999/xlink">
 <defs>
  <style type="text/css">
*{stroke-linecap:butt;stroke-linejoin:round;}
  </style>
 </defs>
 <g id="figure_1">
  <g id="patch_1">
   <path d="M 0 345.6 
L 460.8 345.6 
L 460.8 0 
L 0 0 
z
" style="fill:#ffffff;"/>
  </g>
  <g id="axes_1">
   <g id="patch_2">
    <path d="M 57.6 263.808 
L 414.72 263.808 
L 414.72 85.248 
L 57.6 85.248 
z
" style="fill:#ffffff;"/>
   </g>
   <g id="PathCollection_1">
    <defs>
     <path d="M 0 3 
C 0.795609 3 1.55874 2.683901 2.12132 2.12132 
C 2.683901 1.55874 3 0.795609 3 0 
C 3 -0.795609 2.683901 -1.55874 2.12132 -2.12132 
C 1.55874 -2.683901 0.795609 -3 0 -3 
C -0.795609 -3 -1.55874 -2.683901 -2.12132 -2.12132 
C -2.683901 -1.55874 -3 -0.795609 -3 0 
C -3 0.795609 -2.683901 1.55874 -2.12132 2.12132 
C -1.55874 2.683901 -0.795609 3 0 3 
z
" id="mfe5fdbb716" style="stroke:#000000;"/>
    </defs>
    <g clip-path="url(#p30dbaa0c83)">
     <use style="stroke:#000000;" x="223.404131" xlink:href="#mfe5fdbb716" y="129.994844"/>
    </g>
   </g>
   <g id="patch_3">
    <path clip-path="url(#p30dbaa0c83)" d="M 161.76 211.728 
C 171.625555 211.728 181.088371 207.808373 188.064372 200.832372 
C 195.040373 193.856371 198.96 184.393555 198.96 174.528 
C 198.96 164.662445 195.040373 155.199629 188.064372 148.223628 
C 181.088371 141.247627 171.625555 137.328 161.76 137.328 
C 151.894445 137.328 142.431629 141.247627 135.455628 148.223628 
C 128.479627 155.199629 124.56 164.662445 124.56 174.528 
C 124.56 184.393555 128.479627 193.856371 135.455628 200.832372 
C 142.431629 207.808373 151.894445 211.728 161.76 211.728 
z
" style="fill:#cc0000;fill-opacity:0.1;stroke:#cc0000;stroke-dasharray:7.4,3.2;stroke-dashoffset:0;stroke-linejoin:miter;stroke-width:2;"/>
   </g>
   <g id="patch_4">
    <path clip-path="url(#p30dbaa0c83)" d="M 310.56 196.848 
C 316.479333 196.848 322.157023 194.496224 326.342623 190.310623 
C 330.528224 186.125023 332.88 180.447333 332.88 174.528 
C 332.88 168.608667 330.528224 162.930977 326.342623 158.745377 
C 322.157023 154.559776 316.479333 152.208 310.56 152.208 
C 304.640667 152.208 298.962977 154.559776 294.777377 158.745377 
C 290.591776 162.930977 288.24 168.608667 288.24 174.528 
C 288.24 180.447333 290.591776 186.125023 294.777377 190.310623 
C 298.962977 194.496224 304.640667 196.848 310.56 196.848 
z
" style="fill:#cc0000;fill-opacity:0.1;stroke:#cc0000;stroke-dasharray:7.4,3.2;stroke-dashoffset:0;stroke-linejoin:miter;stroke-width:2;"/>
   </g>
   <g id="matplotlib.axis_1">
    <g id="xtick_1">
     <g id="line2d_1">
      <defs>
       <path d="M 0 0 
L 0 3.5 
" id="mb13faed1bb" style="stroke:#000000;stroke-width:0.8;"/>
      </defs>
      <g>
       <use style="stroke:#000000;stroke-width:0.8;" x="87.36" xlink:href="#mb13faed1bb" y="263.808"/>
      </g>
     </g>
     <g id="text_1">
      <!-- 0.0 -->
      <defs>
       <path d="M 31.78125 66.40625 
Q 24.171875 66.40625 20.328125 58.90625 
Q 16.5 51.421875 16.5 36.375 
Q 16.5 21.390625 20.328125 13.890625 
Q 24.171875 6.390625 31.78125 6.390625 
Q 39.453125 6.390625 43.28125 13.890625 
Q 47.125 21.390625 47.125 36.375 
Q 47.125 51.421875 43.28125 58.90625 
Q 39.453125 66.40625 31.78125 66.40625 
z
M 31.78125 74.21875 
Q 44.046875 74.21875 50.515625 64.515625 
Q 56.984375 54.828125 56.984375 36.375 
Q 56.984375 17.96875 50.515625 8.265625 
Q 44.046875 -1.421875 31.78125 -1.421875 
Q 19.53125 -1.421875 13.0625 8.265625 
Q 6.59375 17.96875 6.59375 36.375 
Q 6.59375 54.828125 13.0625 64.515625 
Q 19.53125 74.21875 31.78125 74.21875 
z
" id="DejaVuSans-30"/>
       <path d="M 10.6875 12.40625 
L 21 12.40625 
L 21 0 
L 10.6875 0 
z
" id="DejaVuSans-2e"/>
      </defs>
      <g transform="translate(79.408438 278.406437)scale(0.1 -0.1)">
       <use xlink:href="#DejaVuSans-30"/>
       <use x="63.623047" xlink:href="#DejaVuSans-2e"/>
       <use x="95.410156" xlink:href="#DejaVuSans-30"/>
      </g>
     </g>
    </g>
    <g id="xtick_2">
     <g id="line2d_2">
      <g>
       <use style="stroke:#000000;stroke-width:0.8;" x="161.76" xlink:href="#mb13faed1bb" y="263.808"/>
      </g>
     </g>
     <g id="text_2">
      <!-- 0.5 -->
      <defs>
       <path d="M 10.796875 72.90625 
L 49.515625 72.90625 
L 49.515625 64.59375 
L 19.828125 64.59375 
L 19.828125 46.734375 
Q 21.96875 47.46875 24.109375 47.828125 
Q 26.265625 48.1875 28.421875 48.1875 
Q 40.625 48.1875 47.75 41.5 
Q 54.890625 34.8125 54.890625 23.390625 
Q 54.890625 11.625 47.5625 5.09375 
Q 40.234375 -1.421875 26.90625 -1.421875 
Q 22.3125 -1.421875 17.546875 -0.640625 
Q 12.796875 0.140625 7.71875 1.703125 
L 7.71875 11.625 
Q 12.109375 9.234375 16.796875 8.0625 
Q 21.484375 6.890625 26.703125 6.890625 
Q 35.15625 6.890625 40.078125 11.328125 
Q 45.015625 15.765625 45.015625 23.390625 
Q 45.015625 31 40.078125 35.4375 
Q 35.15625 39.890625 26.703125 39.890625 
Q 22.75 39.890625 18.8125 39.015625 
Q 14.890625 38.140625 10.796875 36.28125 
z
" id="DejaVuSans-35"/>
      </defs>
      <g transform="translate(153.808437 278.406437)scale(0.1 -0.1)">
       <use xlink:href="#DejaVuSans-30"/>
       <use x="63.623047" xlink:href="#DejaVuSans-2e"/>
       <use x="95.410156" xlink:href="#DejaVuSans-35"/>
      </g>
     </g>
    </g>
    <g id="xtick_3">
     <g id="line2d_3">
      <g>
       <use style="stroke:#000000;stroke-width:0.8;" x="236.16" xlink:href="#mb13faed1bb" y="263.808"/>
      </g>
     </g>
     <g id="text_3">
      <!-- 1.0 -->
      <defs>
       <path d="M 12.40625 8.296875 
L 28.515625 8.296875 
L 28.515625 63.921875 
L 10.984375 60.40625 
L 10.984375 69.390625 
L 28.421875 72.90625 
L 38.28125 72.90625 
L 38.28125 8.296875 
L 54.390625 8.296875 
L 54.390625 0 
L 12.40625 0 
z
" id="DejaVuSans-31"/>
      </defs>
      <g transform="translate(228.208437 278.406437)scale(0.1 -0.1)">
       <use xlink:href="#DejaVuSans-31"/>
       <use x="63.623047" xlink:href="#DejaVuSans-2e"/>
       <use x="95.410156" xlink:href="#DejaVuSans-30"/>
      </g>
     </g>
    </g>
    <g id="xtick_4">
     <g id="line2d_4">
      <g>
       <use style="stroke:#000000;stroke-width:0.8;" x="310.56" xlink:href="#mb13faed1bb" y="263.808"/>
      </g>
     </g>
     <g id="text_4">
      <!-- 1.5 -->
      <g transform="translate(302.608437 278.406437)scale(0.1 -0.1)">
       <use xlink:href="#DejaVuSans-31"/>
       <use x="63.623047" xlink:href="#DejaVuSans-2e"/>
       <use x="95.410156" xlink:href="#DejaVuSans-35"/>
      </g>
     </g>
    </g>
    <g id="xtick_5">
     <g id="line2d_5">
      <g>
       <use style="stroke:#000000;stroke-width:0.8;" x="384.96" xlink:href="#mb13faed1bb" y="263.808"/>
      </g>
     </g>
     <g id="text_5">
      <!-- 2.0 -->
      <defs>
       <path d="M 19.1875 8.296875 
L 53.609375 8.296875 
L 53.609375 0 
L 7.328125 0 
L 7.328125 8.296875 
Q 12.9375 14.109375 22.625 23.890625 
Q 32.328125 33.6875 34.8125 36.53125 
Q 39.546875 41.84375 41.421875 45.53125 
Q 43.3125 49.21875 43.3125 52.78125 
Q 43.3125 58.59375 39.234375 62.25 
Q 35.15625 65.921875 28.609375 65.921875 
Q 23.96875 65.921875 18.8125 64.3125 
Q 13.671875 62.703125 7.8125 59.421875 
L 7.8125 69.390625 
Q 13.765625 71.78125 18.9375 73 
Q 24.125 74.21875 28.421875 74.21875 
Q 39.75 74.21875 46.484375 68.546875 
Q 53.21875 62.890625 53.21875 53.421875 
Q 53.21875 48.921875 51.53125 44.890625 
Q 49.859375 40.875 45.40625 35.40625 
Q 44.1875 33.984375 37.640625 27.21875 
Q 31.109375 20.453125 19.1875 8.296875 
z
" id="DejaVuSans-32"/>
      </defs>
      <g transform="translate(377.008437 278.406437)scale(0.1 -0.1)">
       <use xlink:href="#DejaVuSans-32"/>
       <use x="63.623047" xlink:href="#DejaVuSans-2e"/>
       <use x="95.410156" xlink:href="#DejaVuSans-30"/>
      </g>
     </g>
    </g>
   </g>
   <g id="matplotlib.axis_2">
    <g id="ytick_1">
     <g id="line2d_6">
      <defs>
       <path d="M 0 0 
L -3.5 0 
" id="m6c771b60a1" style="stroke:#000000;stroke-width:0.8;"/>
      </defs>
      <g>
       <use style="stroke:#000000;stroke-width:0.8;" x="57.6" xlink:href="#m6c771b60a1" y="248.928"/>
      </g>
     </g>
     <g id="text_6">
      <!-- 0.0 -->
      <g transform="translate(34.696875 252.727219)scale(0.1 -0.1)">
       <use xlink:href="#DejaVuSans-30"/>
       <use x="63.623047" xlink:href="#DejaVuSans-2e"/>
       <use x="95.410156" xlink:href="#DejaVuSans-30"/>
      </g>
     </g>
    </g>
    <g id="ytick_2">
     <g id="line2d_7">
      <g>
       <use style="stroke:#000000;stroke-width:0.8;" x="57.6" xlink:href="#m6c771b60a1" y="219.168"/>
      </g>
     </g>
     <g id="text_7">
      <!-- 0.2 -->
      <g transform="translate(34.696875 222.967219)scale(0.1 -0.1)">
       <use xlink:href="#DejaVuSans-30"/>
       <use x="63.623047" xlink:href="#DejaVuSans-2e"/>
       <use x="95.410156" xlink:href="#DejaVuSans-32"/>
      </g>
     </g>
    </g>
    <g id="ytick_3">
     <g id="line2d_8">
      <g>
       <use style="stroke:#000000;stroke-width:0.8;" x="57.6" xlink:href="#m6c771b60a1" y="189.408"/>
      </g>
     </g>
     <g id="text_8">
      <!-- 0.4 -->
      <defs>
       <path d="M 37.796875 64.3125 
L 12.890625 25.390625 
L 37.796875 25.390625 
z
M 35.203125 72.90625 
L 47.609375 72.90625 
L 47.609375 25.390625 
L 58.015625 25.390625 
L 58.015625 17.1875 
L 47.609375 17.1875 
L 47.609375 0 
L 37.796875 0 
L 37.796875 17.1875 
L 4.890625 17.1875 
L 4.890625 26.703125 
z
" id="DejaVuSans-34"/>
      </defs>
      <g transform="translate(34.696875 193.207219)scale(0.1 -0.1)">
       <use xlink:href="#DejaVuSans-30"/>
       <use x="63.623047" xlink:href="#DejaVuSans-2e"/>
       <use x="95.410156" xlink:href="#DejaVuSans-34"/>
      </g>
     </g>
    </g>
    <g id="ytick_4">
     <g id="line2d_9">
      <g>
       <use style="stroke:#000000;stroke-width:0.8;" x="57.6" xlink:href="#m6c771b60a1" y="159.648"/>
      </g>
     </g>
     <g id="text_9">
      <!-- 0.6 -->
      <defs>
       <path d="M 33.015625 40.375 
Q 26.375 40.375 22.484375 35.828125 
Q 18.609375 31.296875 18.609375 23.390625 
Q 18.609375 15.53125 22.484375 10.953125 
Q 26.375 6.390625 33.015625 6.390625 
Q 39.65625 6.390625 43.53125 10.953125 
Q 47.40625 15.53125 47.40625 23.390625 
Q 47.40625 31.296875 43.53125 35.828125 
Q 39.65625 40.375 33.015625 40.375 
z
M 52.59375 71.296875 
L 52.59375 62.3125 
Q 48.875 64.0625 45.09375 64.984375 
Q 41.3125 65.921875 37.59375 65.921875 
Q 27.828125 65.921875 22.671875 59.328125 
Q 17.53125 52.734375 16.796875 39.40625 
Q 19.671875 43.65625 24.015625 45.921875 
Q 28.375 48.1875 33.59375 48.1875 
Q 44.578125 48.1875 50.953125 41.515625 
Q 57.328125 34.859375 57.328125 23.390625 
Q 57.328125 12.15625 50.6875 5.359375 
Q 44.046875 -1.421875 33.015625 -1.421875 
Q 20.359375 -1.421875 13.671875 8.265625 
Q 6.984375 17.96875 6.984375 36.375 
Q 6.984375 53.65625 15.1875 63.9375 
Q 23.390625 74.21875 37.203125 74.21875 
Q 40.921875 74.21875 44.703125 73.484375 
Q 48.484375 72.75 52.59375 71.296875 
z
" id="DejaVuSans-36"/>
      </defs>
      <g transform="translate(34.696875 163.447219)scale(0.1 -0.1)">
       <use xlink:href="#DejaVuSans-30"/>
       <use x="63.623047" xlink:href="#DejaVuSans-2e"/>
       <use x="95.410156" xlink:href="#DejaVuSans-36"/>
      </g>
     </g>
    </g>
    <g id="ytick_5">
     <g id="line2d_10">
      <g>
       <use style="stroke:#000000;stroke-width:0.8;" x="57.6" xlink:href="#m6c771b60a1" y="129.888"/>
      </g>
     </g>
     <g id="text_10">
      <!-- 0.8 -->
      <defs>
       <path d="M 31.78125 34.625 
Q 24.75 34.625 20.71875 30.859375 
Q 16.703125 27.09375 16.703125 20.515625 
Q 16.703125 13.921875 20.71875 10.15625 
Q 24.75 6.390625 31.78125 6.390625 
Q 38.8125 6.390625 42.859375 10.171875 
Q 46.921875 13.96875 46.921875 20.515625 
Q 46.921875 27.09375 42.890625 30.859375 
Q 38.875 34.625 31.78125 34.625 
z
M 21.921875 38.8125 
Q 15.578125 40.375 12.03125 44.71875 
Q 8.5 49.078125 8.5 55.328125 
Q 8.5 64.0625 14.71875 69.140625 
Q 20.953125 74.21875 31.78125 74.21875 
Q 42.671875 74.21875 48.875 69.140625 
Q 55.078125 64.0625 55.078125 55.328125 
Q 55.078125 49.078125 51.53125 44.71875 
Q 48 40.375 41.703125 38.8125 
Q 48.828125 37.15625 52.796875 32.3125 
Q 56.78125 27.484375 56.78125 20.515625 
Q 56.78125 9.90625 50.3125 4.234375 
Q 43.84375 -1.421875 31.78125 -1.421875 
Q 19.734375 -1.421875 13.25 4.234375 
Q 6.78125 9.90625 6.78125 20.515625 
Q 6.78125 27.484375 10.78125 32.3125 
Q 14.796875 37.15625 21.921875 38.8125 
z
M 18.3125 54.390625 
Q 18.3125 48.734375 21.84375 45.5625 
Q 25.390625 42.390625 31.78125 42.390625 
Q 38.140625 42.390625 41.71875 45.5625 
Q 45.3125 48.734375 45.3125 54.390625 
Q 45.3125 60.0625 41.71875 63.234375 
Q 38.140625 66.40625 31.78125 66.40625 
Q 25.390625 66.40625 21.84375 63.234375 
Q 18.3125 60.0625 18.3125 54.390625 
z
" id="DejaVuSans-38"/>
      </defs>
      <g transform="translate(34.696875 133.687219)scale(0.1 -0.1)">
       <use xlink:href="#DejaVuSans-30"/>
       <use x="63.623047" xlink:href="#DejaVuSans-2e"/>
       <use x="95.410156" xlink:href="#DejaVuSans-38"/>
      </g>
     </g>
    </g>
    <g id="ytick_6">
     <g id="line2d_11">
      <g>
       <use style="stroke:#000000;stroke-width:0.8;" x="57.6" xlink:href="#m6c771b60a1" y="100.128"/>
      </g>
     </g>
     <g id="text_11">
      <!-- 1.0 -->
      <g transform="translate(34.696875 103.927219)scale(0.1 -0.1)">
       <use xlink:href="#DejaVuSans-31"/>
       <use x="63.623047" xlink:href="#DejaVuSans-2e"/>
       <use x="95.410156" xlink:href="#DejaVuSans-30"/>
      </g>
     </g>
    </g>
   </g>
   <g id="line2d_12">
    <path clip-path="url(#p30dbaa0c83)" d="M 236.16 248.928 
L 236.16 100.128 
" style="fill:none;stroke:#cc0000;stroke-dasharray:7.4,3.2;stroke-dashoffset:0;stroke-width:2;"/>
   </g>
   <g id="line2d_13">
    <path clip-path="url(#p30dbaa0c83)" d="M 87.36 248.928 
L 384.96 248.928 
" style="fill:none;stroke:#009900;stroke-linecap:square;stroke-width:2;"/>
   </g>
   <g id="line2d_14">
    <path clip-path="url(#p30dbaa0c83)" d="M 384.96 248.928 
L 384.96 100.128 
" style="fill:none;stroke:#009900;stroke-linecap:square;stroke-width:2;"/>
   </g>
   <g id="line2d_15">
    <path clip-path="url(#p30dbaa0c83)" d="M 384.96 100.128 
L 87.36 100.128 
" style="fill:none;stroke:#009900;stroke-linecap:square;stroke-width:2;"/>
   </g>
   <g id="line2d_16">
    <path clip-path="url(#p30dbaa0c83)" d="M 87.36 100.128 
L 87.36 248.928 
" style="fill:none;stroke:#009900;stroke-linecap:square;stroke-width:2;"/>
   </g>
   <g id="line2d_17">
    <path clip-path="url(#p30dbaa0c83)" d="M 223.404131 129.994844 
L 227.483781 125.661481 
L 231.386879 121.168441 
L 235.107182 116.522913 
L 236.16 115.136272 
L 232.494306 110.447534 
L 228.644045 105.909134 
L 224.615376 101.528335 
L 223.257231 100.128 
L 219.171477 104.455609 
L 215.26205 108.943142 
L 211.535203 113.583421 
L 207.996899 118.369023 
L 204.652798 123.292291 
L 201.50825 128.34535 
L 198.568286 133.520115 
L 195.837609 138.808308 
L 193.320588 144.201468 
L 191.021248 149.690969 
L 190.531034 150.946915 
L 196.375563 149.823055 
L 202.170475 148.466375 
L 207.906498 146.879045 
L 213.574458 145.063606 
L 219.165285 143.022961 
L 224.670036 140.760374 
L 230.079904 138.279466 
L 235.386235 135.584206 
L 236.16 135.168577 
L 230.86967 132.442042 
L 225.47454 129.929244 
L 219.983241 127.634204 
L 214.404556 125.560594 
L 208.747412 123.711729 
L 203.020858 122.09057 
L 197.234055 120.699708 
L 191.396262 119.541368 
L 185.516817 118.617405 
L 179.605126 117.929296 
L 173.670647 117.478143 
L 167.722874 117.264665 
L 161.771321 117.289206 
L 155.825511 117.551726 
L 149.894954 118.051806 
L 143.989139 118.788644 
L 138.117514 119.761062 
L 132.289472 120.967505 
L 126.514336 122.406042 
L 120.801346 124.074373 
L 115.159641 125.969827 
L 109.598247 128.089374 
L 104.126061 130.429621 
L 98.751837 132.986826 
L 93.484173 135.756897 
L 88.331495 138.735403 
L 87.36 139.328292 
L 92.489745 142.346121 
L 97.736069 145.156401 
L 103.090576 147.754636 
L 108.544703 150.13667 
L 114.089723 152.298691 
L 119.716765 154.237242 
L 125.416827 155.94922 
L 129.001764 156.900238 
L 124.529287 152.973594 
L 119.903364 149.228943 
L 115.131395 145.672274 
L 110.221015 142.309278 
L 105.180078 139.145335 
L 100.016649 136.185506 
L 94.738989 133.434527 
L 89.355541 130.896799 
L 87.36 130.021917 
L 92.78003 127.563289 
L 98.097407 124.889885 
L 103.303622 122.00598 
L 108.390347 118.916189 
L 113.349445 115.625455 
L 118.172981 112.139043 
L 122.85324 108.462529 
L 127.382734 104.601795 
L 131.754217 100.563018 
L 132.204675 100.128 
L 136.559122 104.185138 
L 141.072328 108.0649 
L 145.737073 111.761078 
L 150.545895 115.26776 
L 155.4911 118.579335 
L 160.564776 121.690506 
L 165.758809 124.596295 
L 171.064887 127.292054 
L 176.474522 129.77347 
L 181.979061 132.036573 
L 187.569696 134.077744 
L 193.237484 135.893716 
L 198.973359 137.481584 
L 204.768143 138.838808 
L 210.612566 139.963217 
L 216.497279 140.853012 
L 222.412867 141.50677 
L 228.349867 141.923444 
L 234.29878 142.102369 
L 236.16 142.109466 
L 231.696519 142.165528 
L 225.751646 142.448476 
L 219.822843 142.968929 
L 213.919594 143.726054 
L 208.051345 144.718641 
L 202.227482 145.945102 
L 196.457323 147.403473 
L 190.750099 149.091423 
L 189.327936 149.551033 
L 185.404308 151.678581 
L 181.360165 153.567025 
L 177.21006 155.209568 
L 172.968929 156.600298 
L 168.652036 157.73421 
L 164.274918 158.607223 
L 159.853327 159.216196 
L 155.403175 159.558937 
L 150.94048 159.634213 
L 146.481301 159.441751 
L 142.041686 158.982246 
L 137.637615 158.257351 
L 133.284936 157.269674 
L 129.413543 156.155555 
L 132.661575 159.216864 
L 135.720193 162.467428 
L 138.578391 165.895551 
L 141.225882 169.488893 
L 143.653137 173.234524 
L 145.851422 177.118963 
L 147.812825 181.128229 
L 149.530286 185.247895 
L 150.997625 189.463133 
L 152.209561 193.758774 
L 153.161733 198.119358 
L 153.850713 202.52919 
L 154.274022 206.972402 
L 154.426696 210.998024 
L 156.318487 206.955445 
L 158.449283 203.03358 
L 160.811415 199.246543 
L 163.396383 195.607963 
L 166.194883 192.130936 
L 169.196844 188.827975 
L 172.391461 185.710968 
L 175.767238 182.791131 
L 179.312026 180.078973 
L 183.013067 177.584256 
L 186.857041 175.315957 
L 190.830115 173.282239 
L 194.917989 171.490423 
L 198.693874 170.086276 
L 194.262415 169.553841 
L 189.870857 168.756636 
L 185.535005 167.697531 
L 181.270463 166.380336 
L 177.092579 164.809792 
L 173.01639 162.991552 
L 169.056564 160.932159 
L 165.227353 158.639025 
L 161.542539 156.120403 
L 158.015382 153.385356 
L 154.658576 150.443729 
L 151.484202 147.306107 
L 148.503685 143.983783 
L 145.988969 140.836539 
L 146.869319 145.212187 
L 147.485704 149.632752 
L 147.835905 154.082322 
L 147.918662 158.544885 
L 147.733677 163.004381 
L 147.281615 167.444759 
L 146.564104 171.850039 
L 145.583726 176.204368 
L 144.344009 180.492074 
L 142.849415 184.697725 
L 141.105322 188.806187 
L 139.118008 192.802674 
L 136.894625 196.672801 
L 134.691844 200.045737 
L 138.572591 197.840943 
L 142.578564 195.872822 
L 146.695345 194.148457 
L 150.908117 192.674053 
L 155.20172 191.454917 
L 159.560701 190.495436 
L 163.969373 189.799064 
L 168.411868 189.368307 
L 172.8722 189.204714 
L 177.334314 189.308876 
L 181.782154 189.680416 
L 186.199711 190.317998 
L 190.571086 191.219327 
L 194.463773 192.256599 
L 200.405289 192.602966 
L 206.355903 192.711459 
L 212.306096 192.581904 
L 218.246349 192.214509 
L 224.167158 191.60986 
L 230.059052 190.768926 
L 239.119052 189.325192 
L 246.50152 188.403294 
L 253.858635 187.297142 
L 261.1858 186.007427 
L 268.478436 184.534954 
L 275.731986 182.880645 
L 282.941915 181.045533 
L 293.121666 178.371383 
L 298.952886 177.180394 
L 304.827069 176.223544 
L 310.734816 175.502364 
L 316.666678 175.018009 
L 322.613163 174.771251 
L 328.56476 174.762487 
L 332.876817 174.904946 
L 331.38888 174.917959 
L 325.438063 174.82122 
L 319.495875 174.486589 
L 313.571821 173.914602 
L 307.675379 173.106173 
L 301.815983 172.062596 
L 296.003005 170.785541 
L 290.245746 169.27705 
L 288.959598 168.906164 
L 290.408752 169.243919 
L 296.169425 170.739323 
L 301.865689 172.463896 
L 307.488433 174.414879 
L 313.02866 176.589152 
L 318.477508 178.983235 
L 323.82626 181.593299 
L 329.066358 184.415169 
L 330.228992 185.078504 
L 328.900134 184.408981 
L 323.653636 181.599027 
L 318.523703 178.581516 
L 313.518542 175.361277 
L 308.64616 171.943461 
L 303.914351 168.333535 
L 299.330685 164.537274 
L 294.902496 160.560753 
L 291.826414 157.535958 
L 286.479293 152.363047 
L 281.004533 147.325416 
L 275.405556 142.426215 
L 269.685861 137.668504 
L 263.849024 133.055258 
L 257.898691 128.589358 
L 251.838581 124.273597 
L 245.672483 120.110672 
L 239.404249 116.103184 
L 236.16 114.114357 
L 233.287394 108.9019 
L 230.208642 103.808485 
L 227.805391 100.128 
L 224.577537 105.128254 
L 221.552222 110.253588 
L 218.734286 115.495803 
L 216.128236 120.846512 
L 213.738242 126.297155 
L 211.568128 131.839013 
L 209.621365 137.463219 
L 207.901067 143.160776 
L 206.409986 148.922569 
L 205.150509 154.73938 
L 204.124649 160.601905 
L 203.334049 166.500763 
L 202.779972 172.426519 
L 202.463306 178.369692 
L 202.384556 184.320774 
L 202.543849 190.270245 
L 202.94093 196.208587 
L 203.575164 202.1263 
L 204.445536 208.013917 
L 205.550654 213.862019 
L 206.888749 219.66125 
L 208.457682 225.402333 
L 210.254941 231.076083 
L 212.277653 236.673423 
L 214.52258 242.1854 
L 216.986132 247.603194 
L 217.628892 248.928 
L 220.145937 243.53485 
L 222.445299 238.045359 
L 224.523301 232.468308 
L 226.376618 226.812621 
L 228.002286 221.087345 
L 229.397703 215.30164 
L 230.560638 209.46476 
L 231.489229 203.586044 
L 232.181992 197.674897 
L 232.637818 191.740775 
L 232.855977 185.793172 
L 232.836122 179.841602 
L 232.578283 173.895586 
L 232.082873 167.964638 
L 231.350684 162.058244 
L 230.382889 156.185855 
L 229.181035 150.356865 
L 227.747044 144.580599 
L 226.083212 138.866297 
L 224.192199 133.223102 
L 222.077032 127.660041 
L 219.741093 122.186014 
L 217.18812 116.809779 
L 214.422197 111.539935 
L 211.447749 106.384914 
L 208.269534 101.352963 
L 207.452394 100.128 
L 204.22454 105.128254 
L 201.199225 110.253588 
L 198.381289 115.495803 
L 195.775239 120.846512 
L 193.385246 126.297155 
L 191.215131 131.839013 
L 189.268368 137.463219 
L 187.54807 143.160776 
L 186.574286 146.813542 
L 192.105434 144.616275 
L 197.544291 142.19958 
L 202.882156 139.567321 
L 208.110488 136.72371 
L 213.220924 133.673297 
L 218.205288 130.42096 
L 223.055607 126.971903 
L 227.76412 123.331645 
L 232.323295 119.506007 
L 236.16 116.034115 
L 231.736594 112.052273 
L 227.157496 108.250505 
L 222.43003 104.634894 
L 217.561759 101.211223 
L 215.931035 100.128 
L 211.018142 103.487326 
L 206.243517 107.040428 
L 201.614797 110.781622 
L 197.139388 114.704923 
L 192.824448 118.804055 
L 188.676882 123.072459 
L 184.703324 127.503307 
L 180.910131 132.089511 
L 177.303371 136.823734 
L 175.16522 139.827278 
L 172.957341 143.706272 
L 170.520835 147.445891 
L 167.86447 151.032679 
L 164.997808 154.453727 
L 161.931164 157.696722 
L 158.675576 160.749993 
L 155.24276 163.602551 
L 151.64507 166.244131 
L 147.895454 168.665226 
L 144.007407 170.857122 
L 139.994921 172.811931 
L 135.872438 174.522618 
L 131.654793 175.983026 
L 127.357166 177.187899 
L 124.703765 177.795326 
L 129.158831 178.066807 
L 133.589601 178.604944 
L 137.98013 179.407799 
L 142.314616 180.472483 
L 146.577459 181.795164 
L 150.753318 183.371083 
L 154.827165 185.194567 
L 158.784337 187.259053 
L 162.610594 189.557113 
L 166.292164 192.080475 
L 169.815799 194.820058 
L 173.168817 197.766003 
L 176.339151 200.907707 
L 179.31539 204.233863 
L 181.030459 206.347639 
L 179.309921 202.229257 
L 177.839435 198.015116 
L 176.624291 193.720381 
L 175.668864 189.36051 
L 174.976591 184.951193 
L 174.549964 180.508299 
L 174.390519 176.047817 
L 174.498829 171.585801 
L 174.874504 167.138309 
L 175.516193 162.721347 
L 176.421586 158.350811 
L 177.587424 154.042431 
L 179.009512 149.811712 
L 180.682732 145.67388 
L 181.82381 143.202555 
L 178.88589 146.562606 
L 175.751774 149.740441 
L 172.432742 152.724624 
L 168.940739 155.504414 
L 165.288333 158.069808 
L 161.488667 160.411572 
L 157.555418 162.521279 
L 153.502739 164.391337 
L 149.345217 166.015015 
L 145.097814 167.386469 
L 140.775816 168.500764 
L 136.394778 169.35389 
L 131.970467 169.942776 
L 127.518805 170.265303 
L 124.79755 170.330707 
L 129.108705 171.486243 
L 133.342811 172.898213 
L 137.484631 174.561536 
L 141.519259 176.470227 
L 145.432174 178.617415 
L 149.209293 180.995373 
L 152.837024 183.595544 
L 156.30231 186.408569 
L 159.592681 189.424324 
L 162.696293 192.631957 
L 165.601979 196.019923 
L 168.299279 199.576028 
L 170.778488 203.287476 
L 173.030682 207.140908 
L 174.28917 209.55456 
L 173.425573 205.175574 
L 172.826112 200.752683 
L 172.492944 196.301805 
L 172.427268 191.838957 
L 172.62932 187.380203 
L 173.098373 182.941587 
L 173.83274 178.539085 
L 174.829777 174.188541 
L 176.085895 169.905611 
L 177.596575 165.705711 
L 179.35638 161.603954 
L 181.358975 157.615104 
L 183.597155 153.753514 
L 186.062863 150.033084 
L 187.674401 147.839354 
L 190.595752 142.654059 
L 193.30741 137.356088 
L 195.805036 131.953918 
L 198.084635 126.45619 
L 200.142561 120.871701 
L 201.97552 115.209383 
L 203.580581 109.478296 
L 204.955175 103.687608 
L 205.67993 100.128 
L 206.912758 105.950518 
L 208.377438 111.719079 
L 210.071628 117.424453 
L 211.992616 123.057515 
L 214.137331 128.609252 
L 216.50234 134.070782 
L 219.083861 139.433368 
L 221.877762 144.688432 
L 224.879576 149.827566 
L 228.084499 154.842549 
L 231.487404 159.725357 
L 235.082847 164.46818 
L 236.16 165.815427 
L 232.50982 170.516253 
L 229.050542 175.359287 
L 225.787701 180.336781 
L 222.726516 185.440773 
L 219.871886 190.663097 
L 217.228376 195.995398 
L 214.800215 201.429146 
L 212.591289 206.955648 
L 210.605131 212.566063 
L 208.844919 218.251416 
L 207.313468 224.00261 
L 206.013228 229.810446 
L 204.94628 235.665632 
L 204.11433 241.558801 
L 203.51871 247.480525 
L 203.409411 248.928 
L 202.871587 243.000747 
L 202.097166 237.099743 
L 201.087387 231.234427 
L 199.843866 225.414183 
L 198.368592 219.648323 
L 196.663925 213.94607 
L 194.732593 208.316546 
L 192.577684 202.768758 
L 190.55358 198.081551 
L 196.380242 199.294644 
L 202.250753 200.273762 
L 208.155723 201.01734 
L 214.085706 201.524187 
L 220.031213 201.793492 
L 225.982733 201.824825 
L 231.930747 201.618136 
L 249.523358 200.46799 
L 256.926652 199.731814 
L 264.30923 198.810804 
L 271.666478 197.705537 
L 278.993799 196.416704 
L 286.286612 194.945109 
L 293.54036 193.291672 
L 297.176764 192.390569 
L 302.192255 189.186443 
L 307.331866 186.185447 
L 312.587374 183.39238 
L 317.95037 180.811712 
L 323.412276 178.44757 
L 328.964354 176.303738 
L 332.876126 174.94382 
L 327.34451 172.747733 
L 321.905138 170.332197 
L 316.566713 167.701077 
L 311.337774 164.85858 
L 306.226688 161.809256 
L 301.241631 158.557982 
L 297.851496 156.179258 
L 299.303502 161.951022 
L 300.523538 167.776234 
L 301.509652 173.645575 
L 302.260266 179.549655 
L 302.774179 185.479029 
L 303.050569 191.424211 
L 303.102501 195.565303 
L 306.936449 191.013114 
L 310.94937 186.617884 
L 315.134843 182.386644 
L 319.486173 178.326162 
L 323.996398 174.442936 
L 328.658303 170.743176 
L 331.987721 168.280186 
L 326.053109 167.830784 
L 320.141215 167.144422 
L 314.261497 166.222195 
L 308.423362 165.06558 
L 302.636149 163.676428 
L 296.909116 162.056959 
L 292.964471 160.795565 
L 296.069198 165.873188 
L 298.968391 171.070905 
L 301.657411 176.380401 
L 304.131957 181.793182 
L 306.388071 187.30059 
L 308.422142 192.893812 
L 309.704755 196.831609 
L 312.009359 191.344316 
L 314.531552 185.953572 
L 317.2673 180.668 
L 320.212226 175.496058 
L 323.361619 170.446018 
L 326.710441 165.525959 
L 329.15547 162.18333 
L 323.356229 163.521382 
L 317.508119 164.626457 
L 311.620496 165.496786 
L 305.702778 166.130976 
L 299.764433 166.528014 
L 293.814961 166.687264 
L 289.673649 166.657628 
L 294.149447 170.580486 
L 298.464792 174.679191 
L 302.612781 178.947184 
L 306.586778 183.377639 
L 310.380425 187.963468 
L 313.987653 192.697333 
L 316.384595 196.074612 
L 322.458236 200.371308 
L 328.637385 204.514837 
L 334.918182 208.502608 
L 341.296699 212.332129 
L 347.768951 216.001007 
L 354.330893 219.50695 
L 360.978425 222.847765 
L 367.70739 226.021366 
L 374.513585 229.025768 
L 381.392755 231.859094 
L 384.96 233.249943 
L 378.044948 235.994532 
L 371.200664 238.911122 
L 364.431426 241.997889 
L 357.741464 245.252906 
L 350.660428 248.928 
L 344.060121 245.494828 
L 337.376057 242.227719 
L 330.612412 239.128715 
L 323.773413 236.199754 
L 316.863335 233.442664 
L 309.886497 230.85917 
L 302.847258 228.450886 
L 295.750018 226.219318 
L 288.599212 224.165859 
L 281.399309 222.291793 
L 274.15481 220.598292 
L 266.870241 219.086414 
L 259.550156 217.757103 
L 252.199129 216.611191 
L 244.821754 215.649393 
L 236.16 214.758353 
L 243.562355 214.012799 
L 250.943761 213.082437 
L 258.299603 211.967851 
L 265.625285 210.669735 
L 272.916228 209.188903 
L 280.167876 207.526279 
L 287.375696 205.682902 
L 294.535185 203.659924 
L 301.641867 201.458609 
L 308.691302 199.080334 
L 315.679083 196.526585 
L 322.600843 193.798958 
L 329.452257 190.899156 
L 336.229042 187.828994 
L 342.926963 184.590389 
L 349.541835 181.185365 
L 356.069523 177.61605 
L 362.505948 173.884676 
L 368.847087 169.993574 
L 375.088977 165.945176 
L 381.227717 161.742012 
L 384.96 159.074187 
L 378.886782 154.776892 
L 372.708041 150.632754 
L 366.427638 146.644364 
L 360.049499 142.814214 
L 353.577608 139.144698 
L 347.016012 135.638108 
L 340.36881 132.296638 
L 333.640157 129.122374 
L 326.834259 126.1173 
L 319.955368 123.283296 
L 313.007785 120.622132 
L 305.99585 118.13547 
L 298.923946 115.824866 
L 291.796493 113.691763 
L 284.617945 111.737494 
L 277.392788 109.963281 
L 270.125539 108.370233 
L 262.820738 106.959344 
L 255.482952 105.731498 
L 248.116765 104.68746 
L 240.726783 103.827885 
L 234.693648 103.137164 
L 228.805157 102.272726 
L 222.886807 101.644456 
L 216.948068 101.25336 
L 210.998439 101.100063 
L 205.04744 101.18481 
L 199.104589 101.507466 
L 193.179395 102.067514 
L 187.281336 102.864059 
L 181.419848 103.895827 
L 175.604309 105.161166 
L 169.844022 106.658052 
L 164.148201 108.384091 
L 158.52596 110.336522 
L 152.986292 112.51222 
L 147.538061 114.907706 
L 142.189981 117.519147 
L 136.950609 120.342365 
L 131.828326 123.372844 
L 126.831328 126.605735 
L 121.967608 130.035867 
L 117.244946 133.657753 
L 112.6709 137.465597 
L 108.252785 141.453308 
L 103.99767 145.614508 
L 99.912363 149.942537 
L 96.003398 154.430474 
L 92.277029 159.071138 
L 88.739219 163.857104 
L 87.36 165.837 
L 90.819739 170.679704 
L 94.470367 175.380183 
L 98.306045 179.930914 
L 102.320634 184.32462 
L 106.507714 188.554271 
L 110.860586 192.613099 
L 115.372285 196.494613 
L 120.035595 200.192602 
L 124.843055 203.70115 
L 129.786974 207.014645 
L 134.859443 210.127785 
L 140.052346 213.03559 
L 145.357377 215.733409 
L 150.766049 218.216925 
L 156.269708 220.482165 
L 161.859551 222.525506 
L 167.526634 224.343678 
L 173.261892 225.933773 
L 179.056148 227.293247 
L 184.900135 228.419925 
L 190.784502 229.312005 
L 196.699836 229.968059 
L 202.636673 230.387038 
L 208.585516 230.568272 
L 214.536848 230.51147 
L 220.481148 230.216725 
L 226.408907 229.684506 
L 232.310641 228.915666 
L 237.641925 228.149677 
L 245.04046 227.36712 
L 252.417122 226.399863 
L 259.767299 225.248512 
L 267.086399 223.913784 
L 274.369846 222.396516 
L 281.613091 220.697654 
L 288.811604 218.818261 
L 295.960889 216.759511 
L 303.056475 214.522691 
L 310.09393 212.109199 
L 317.068855 209.520543 
L 323.976891 206.758341 
L 330.81372 203.824319 
L 337.57507 200.720311 
L 344.256715 197.448257 
L 350.854479 194.010201 
L 357.364239 190.408293 
L 363.781926 186.644784 
L 370.103531 182.722025 
L 376.325101 178.642468 
L 382.442748 174.408663 
L 384.96 172.599813 
L 378.886782 168.302518 
L 372.708041 164.158381 
L 366.427638 160.16999 
L 360.049499 156.33984 
L 353.577608 152.670324 
L 347.016012 149.163734 
L 340.36881 145.822264 
L 333.640157 142.648 
L 326.834259 139.642927 
L 319.955368 136.808922 
L 313.007785 134.147758 
L 305.99585 131.661096 
L 298.923946 129.350492 
L 291.796493 127.217389 
L 284.617945 125.26312 
L 277.392788 123.488907 
L 270.125539 121.895859 
L 262.820738 120.48497 
L 255.482952 119.257124 
L 248.116765 118.213087 
L 240.726783 117.353511 
L 234.693648 116.66279 
L 228.805157 115.798352 
L 222.886807 115.170082 
L 216.948068 114.778986 
L 210.998439 114.625689 
L 205.04744 114.710436 
L 199.104589 115.033092 
L 193.179395 115.593141 
L 187.281336 116.389686 
L 181.419848 117.421453 
L 175.604309 118.686792 
L 169.844022 120.183678 
L 164.148201 121.909717 
L 158.52596 123.862148 
L 152.986292 126.037847 
L 147.538061 128.433332 
L 142.189981 131.044773 
L 136.950609 133.867991 
L 131.828326 136.89847 
L 126.831328 140.131361 
L 121.967608 143.561494 
L 117.244946 147.183379 
L 112.6709 150.991223 
L 108.252785 154.978935 
L 103.99767 159.140134 
L 99.912363 163.468164 
L 96.003398 167.9561 
L 92.277029 172.596764 
L 88.739219 177.38273 
L 87.36 179.362626 
L 90.819739 184.205331 
L 94.470367 188.905809 
L 98.306045 193.456541 
L 102.320634 197.850246 
L 106.507714 202.079897 
L 110.860586 206.138725 
L 115.372285 210.020239 
L 120.035595 213.718228 
L 124.843055 217.226776 
L 129.786974 220.540271 
L 134.859443 223.653411 
L 140.052346 226.561216 
L 145.357377 229.259035 
L 150.766049 231.742551 
L 156.269708 234.007791 
L 161.859551 236.051132 
L 167.526634 237.869304 
L 173.261892 239.459399 
L 179.056148 240.818873 
L 184.900135 241.945551 
L 190.784502 242.837631 
L 196.699836 243.493685 
L 202.636673 243.912664 
L 208.585516 244.093898 
L 214.536848 244.037097 
L 220.481148 243.742351 
L 226.408907 243.210132 
L 232.310641 242.441292 
L 236.16 241.809605 
L 230.280448 240.886327 
L 224.368677 240.198906 
L 218.434145 239.748443 
L 212.486347 239.535658 
L 206.534797 239.560892 
L 200.589017 239.824104 
L 194.658519 240.324874 
L 188.75279 241.0624 
L 182.881278 242.035501 
L 177.053376 243.242623 
L 171.278408 244.681832 
L 165.565612 246.350828 
L 159.924128 248.246939 
L 158.063541 248.928 
L 152.447804 246.95694 
L 146.757737 245.212026 
L 141.002444 243.696051 
L 135.191132 242.411438 
L 129.333097 241.360243 
L 123.437712 240.544147 
L 117.514407 239.964458 
L 111.572659 239.6221 
L 105.621973 239.517624 
L 99.671868 239.651195 
L 93.731865 240.022599 
L 87.36 240.687502 
L 93.278511 241.314245 
L 99.217351 241.70381 
L 105.167019 241.855572 
L 111.117997 241.76929 
L 117.060764 241.445102 
L 122.985814 240.883525 
L 128.883667 240.085459 
L 134.744888 239.05218 
L 140.560101 237.785341 
L 146.320002 236.286969 
L 152.015377 234.559461 
L 157.637114 232.60558 
L 163.176221 230.428453 
L 168.623834 228.031562 
L 173.971241 225.418742 
L 179.209884 222.594173 
L 184.331385 219.562373 
L 189.32755 216.328193 
L 194.190385 212.896807 
L 198.912112 209.273703 
L 203.485176 205.46468 
L 207.902262 201.475829 
L 212.156304 197.313532 
L 216.240495 192.984449 
L 220.148302 188.495504 
L 223.873474 183.85388 
L 227.41005 179.067001 
L 230.752373 174.142526 
L 233.895096 169.088332 
L 236.16 165.141828 
L 233.173283 159.993906 
L 229.983093 154.969538 
L 226.594534 150.076763 
L 223.013027 145.323408 
L 219.244301 140.717077 
L 215.294385 136.265139 
L 211.169599 131.974717 
L 206.876541 127.852675 
L 202.42208 123.905606 
L 197.813341 120.139825 
L 193.057697 116.561357 
L 188.162757 113.175926 
L 183.136351 109.988949 
L 177.98652 107.005524 
L 172.721504 104.230423 
L 167.349725 101.668087 
L 163.827121 100.128 
L 158.390937 102.550702 
L 153.055983 105.188855 
L 147.830795 108.038239 
L 142.723732 111.094296 
L 137.742963 114.352136 
L 132.896457 117.806548 
L 128.191968 121.452006 
L 123.637021 125.282677 
L 119.238903 129.292433 
L 115.004651 133.474859 
L 110.941039 137.823265 
L 107.054567 142.330694 
L 103.351452 146.989934 
L 99.83762 151.793533 
L 96.518691 156.733806 
L 93.399975 161.802848 
L 90.486461 166.992551 
L 87.78281 172.294612 
L 87.36 173.17376 
L 90.028832 178.493432 
L 92.90826 183.702125 
L 95.993676 188.791504 
L 99.280146 193.753429 
L 102.76241 198.579962 
L 106.434899 203.26338 
L 110.291737 207.796191 
L 114.326754 212.171145 
L 118.533496 216.381241 
L 122.905231 220.419745 
L 127.434966 224.280195 
L 132.115455 227.956417 
L 136.939209 231.442528 
L 141.898513 234.732953 
L 146.985431 237.822425 
L 152.191826 240.706005 
L 157.509369 243.379077 
L 162.929553 245.837366 
L 168.443707 248.076939 
L 170.72112 248.928 
L 176.271128 246.778818 
L 181.730754 244.409414 
L 187.091261 241.823579 
L 192.344074 239.025449 
L 197.48079 236.019501 
L 202.493192 232.810543 
L 207.37326 229.403709 
L 212.113188 225.80445 
L 216.705392 222.018523 
L 221.142527 218.051986 
L 225.417492 213.911183 
L 229.523451 209.602739 
L 233.453833 205.133548 
L 236.16 201.834574 
L 232.359377 197.254525 
L 228.378641 192.830125 
L 224.22416 188.56845 
L 219.902581 184.47632 
L 215.420817 180.560279 
L 210.786038 176.826594 
L 206.005659 173.281237 
L 201.087327 169.92988 
L 198.423273 168.23162 
L 202.042807 163.507156 
L 205.470517 158.641729 
L 208.70092 153.643121 
L 211.728848 148.51933 
L 214.549457 143.278553 
L 217.158235 137.929174 
L 219.551008 132.47975 
L 221.723948 126.939 
L 223.673579 121.315788 
L 225.396782 115.619109 
L 226.8908 109.858077 
L 228.153244 104.041908 
L 228.866965 100.128 
L 229.973464 105.975841 
L 231.31293 111.774755 
L 232.88322 117.515467 
L 234.68182 123.188792 
L 236.16 127.343447 
L 234.194075 132.960984 
L 232.454365 138.652643 
L 230.943651 144.40932 
L 229.664352 150.221804 
L 228.618514 156.080798 
L 227.807809 161.976927 
L 227.233535 167.900759 
L 226.89661 173.842818 
L 226.797574 179.793597 
L 226.936585 185.743577 
L 227.313421 191.683238 
L 227.927478 197.603079 
L 228.777774 203.493628 
L 229.86295 209.345464 
L 231.181268 215.149223 
L 232.73062 220.89562 
L 234.508528 226.575464 
L 236.16 231.24411 
L 234.194075 236.861647 
L 232.454365 242.553306 
L 230.943651 248.309983 
L 230.796006 248.928 
L 229.309889 243.164925 
L 227.594499 237.465888 
L 225.65258 231.840008 
L 223.48724 226.296283 
L 221.101941 220.843584 
L 218.500501 215.490632 
L 215.687081 210.245992 
L 212.666181 205.118054 
L 209.442635 200.115022 
L 206.0216 195.244899 
L 202.408548 190.515477 
L 198.60926 185.934321 
L 197.539594 184.709389 
L 203.201969 182.876608 
L 208.786523 180.818858 
L 214.284323 178.539432 
L 219.686572 176.041976 
L 224.984628 173.330485 
L 230.170015 170.409297 
L 235.234438 167.283086 
L 236.16 166.680983 
L 231.118914 163.517278 
L 225.955346 160.557693 
L 220.677556 157.806963 
L 215.293988 155.269488 
L 209.813255 152.949328 
L 204.244123 150.850195 
L 198.595504 148.975448 
L 192.876433 147.328084 
L 187.09606 145.91074 
L 184.959497 145.448397 
L 182.371969 140.088706 
L 179.572181 134.836777 
L 176.56461 129.70101 
L 173.35407 124.689621 
L 169.945696 119.810629 
L 166.34494 115.071838 
L 162.557564 110.48083 
L 158.589625 106.044948 
L 154.447473 101.77129 
L 152.763313 100.128 
L 148.554099 104.335624 
L 144.516513 108.708206 
L 140.657012 113.238751 
L 136.981772 117.920011 
L 133.496673 122.744497 
L 130.207289 127.70449 
L 127.118884 132.792057 
L 124.236397 137.999057 
L 121.56444 143.317161 
L 119.107288 148.73786 
L 116.868871 154.252484 
L 114.852771 159.852209 
L 113.062213 165.528077 
L 111.500062 171.271009 
L 110.168816 177.071816 
L 109.070605 182.921219 
L 108.207187 188.80986 
L 107.579942 194.728318 
L 107.189874 200.667125 
L 107.037607 206.61678 
L 107.123384 212.567765 
L 107.447069 218.510559 
L 108.008143 224.435657 
L 108.805709 230.333577 
L 109.838492 236.194886 
L 111.104837 242.010206 
L 112.602721 247.770235 
L 112.933711 248.928 
L 114.478158 243.180282 
L 115.791521 237.3754 
L 116.871701 231.52264 
L 117.716969 225.631367 
L 118.325973 219.711004 
L 118.697738 213.771023 
L 118.83167 207.820927 
L 118.727555 201.870235 
L 118.385558 195.928466 
L 117.806228 190.005126 
L 116.990491 184.109691 
L 115.939651 178.251592 
L 114.655391 172.440202 
L 113.139764 166.684817 
L 111.395196 160.994645 
L 109.424477 155.378788 
L 107.23076 149.846231 
L 104.817555 144.405825 
L 102.188721 139.066273 
L 99.348465 133.836117 
L 96.301331 128.723725 
L 93.052193 123.737275 
L 89.606249 118.884745 
L 87.36 115.929749 
L 90.925909 111.164681 
L 94.298414 106.260826 
L 97.472119 101.22603 
L 98.127543 100.128 
L 101.257863 105.189885 
L 104.5881 110.122541 
L 108.112927 114.918078 
L 111.826706 119.568823 
L 115.723493 124.067337 
L 119.797057 128.406422 
L 124.040879 132.579138 
L 128.44817 136.578808 
L 133.011881 140.399035 
L 137.724709 144.033705 
L 139.091297 145.032748 
L 142.199169 148.236254 
L 145.109353 151.620356 
L 147.811377 155.172874 
L 150.295515 158.881024 
L 152.552827 162.73146 
L 154.57519 166.710325 
L 156.355325 170.8033 
L 157.886826 174.995653 
L 159.16418 179.272297 
L 160.182791 183.61784 
L 160.938993 188.016644 
L 161.430065 192.452878 
L 161.654238 196.910575 
L 161.610707 201.373693 
L 161.299627 205.82617 
L 160.722119 210.251981 
L 160.473073 211.705733 
L 160.114721 207.256811 
L 160.023789 202.794407 
L 160.200605 198.334581 
L 160.644531 193.893382 
L 161.353971 189.486794 
L 162.32637 185.130677 
L 163.55823 180.840707 
L 165.045117 176.632324 
L 166.78168 172.520674 
L 168.76167 168.520554 
L 170.977959 164.64636 
L 173.422573 160.912035 
L 176.086712 157.331019 
L 178.96079 153.916199 
L 182.034462 150.679865 
L 185.296667 147.633664 
L 186.413987 146.670848 
L 183.858928 150.330492 
L 181.08902 153.830339 
L 178.114232 157.157793 
L 174.945268 160.300879 
L 171.593536 163.248286 
L 168.071096 165.989406 
L 164.390626 168.514373 
L 160.565372 170.814101 
L 156.609101 172.880314 
L 152.53605 174.705574 
L 148.360879 176.283314 
L 144.098613 177.607854 
L 139.764592 178.674429 
L 135.374414 179.479199 
L 130.943878 180.019268 
L 126.488931 180.292693 
L 125.014338 180.324234 
L 129.314263 179.127588 
L 133.678207 178.190937 
L 138.090463 177.517651 
L 142.535153 177.110153 
L 146.996279 176.96991 
L 151.457788 177.097426 
L 155.903621 177.492243 
L 160.31778 178.152939 
L 164.684378 179.077137 
L 168.9877 180.26151 
L 173.212258 181.701797 
L 177.342849 183.392813 
L 181.364607 185.328473 
L 185.263059 187.501811 
L 189.024173 189.905005 
L 192.634413 192.529406 
L 193.791881 193.443565 
L 189.71364 191.629932 
L 185.75149 189.575014 
L 181.919691 187.286208 
L 178.232033 184.77175 
L 174.701787 182.04069 
L 171.34166 179.102857 
L 168.163743 175.968824 
L 165.179474 172.64987 
L 162.399593 169.157939 
L 159.834105 165.505599 
L 157.492241 161.705995 
L 155.382432 157.7728 
L 153.512269 153.72017 
L 151.888483 149.56269 
L 150.516918 145.315323 
L 149.40251 140.993354 
L 149.09153 139.551581 
L 151.082923 143.546037 
L 152.831209 147.652716 
L 154.330095 151.85684 
L 155.574189 156.143278 
L 156.559012 160.496603 
L 157.281019 164.901149 
L 157.737614 169.341063 
L 157.927151 173.800368 
L 157.84895 178.263013 
L 157.503292 182.712939 
L 156.89142 187.13413 
L 156.015537 191.510675 
L 154.878794 195.826823 
L 153.485284 200.067041 
L 151.840021 204.216068 
L 149.948926 208.258973 
L 149.271193 209.568972 
L 150.277403 205.22054 
L 151.542552 200.940269 
L 153.062087 196.743564 
L 154.830538 192.645528 
L 156.841542 188.66091 
L 159.08786 184.80405 
L 161.56141 181.088828 
L 164.253288 177.528616 
L 167.153806 174.136226 
L 170.252527 170.923867 
L 173.538297 167.9031 
L 176.999292 165.084797 
L 180.623056 162.4791 
L 184.396547 160.095388 
L 188.306185 157.942239 
L 192.337898 156.027402 
L 193.694386 155.448299 
L 190.150759 158.161973 
L 186.450785 160.658273 
L 182.607782 162.928216 
L 178.635578 164.963632 
L 174.548471 166.757197 
L 170.361169 168.302455 
L 166.088743 169.593844 
L 161.746567 170.626719 
L 157.350269 171.39736 
L 152.915672 171.902995 
L 148.458735 172.141803 
L 143.995498 172.112927 
L 139.542024 171.816468 
L 135.114341 171.253495 
L 130.728383 170.426034 
L 126.399935 169.337062 
L 124.985076 168.920418 
L 129.445459 169.082589 
L 133.888092 169.51193 
L 138.296985 170.206897 
L 142.656272 171.164988 
L 146.950263 172.382756 
L 151.163505 173.855817 
L 155.280835 175.57887 
L 159.287435 177.545714 
L 163.168885 179.749271 
L 166.911217 182.18161 
L 170.500962 184.833977 
L 173.9252 187.696827 
L 177.171609 190.759856 
L 180.228504 194.012042 
L 183.084885 197.441678 
L 185.730471 201.036424 
L 186.556623 202.258263 
L 183.219419 199.294416 
L 180.065944 196.13579 
L 177.107548 192.793754 
L 174.354878 189.280333 
L 171.817839 185.608174 
L 169.505563 181.790492 
L 167.426371 177.841026 
L 165.587747 173.77399 
L 163.996307 169.604022 
L 162.657779 165.346128 
L 161.576979 161.015632 
L 160.757799 156.62812 
L 160.203185 152.199382 
L 159.915134 147.745356 
L 159.894683 143.282073 
L 160.141905 138.825594 
L 160.282297 137.357361 
L 160.970067 141.767383 
L 161.392157 146.21071 
L 161.547047 150.671352 
L 161.434181 155.133255 
L 161.053965 159.580362 
L 160.407766 163.996666 
L 159.49791 168.366275 
L 158.327673 172.673462 
L 156.901265 176.902727 
L 155.223821 181.038848 
L 153.301376 185.06694 
L 151.14085 188.972506 
L 148.750019 192.741491 
L 146.137487 196.360329 
L 143.312655 199.815998 
L 140.285691 203.09606 
L 139.242962 204.139197 
L 134.507529 207.744368 
L 129.920052 211.536021 
L 125.48787 215.508092 
L 121.218074 219.654225 
L 117.117494 223.967788 
L 113.192691 228.44188 
L 109.449943 233.069344 
L 105.895239 237.842776 
L 102.534264 242.75454 
L 99.372395 247.796779 
L 98.700948 248.928 
L 95.583779 243.858006 
L 92.266358 238.916721 
L 88.753992 234.11205 
L 87.36 232.31183 
L 90.945471 227.561464 
L 94.338109 222.671517 
L 97.532489 217.649811 
L 100.523498 212.504382 
L 103.306353 207.24346 
L 105.876601 201.875462 
L 108.23013 196.408975 
L 110.363176 190.852744 
L 112.272325 185.215659 
L 113.954524 179.506737 
L 115.407081 173.735112 
L 116.627673 167.910017 
L 117.614347 162.04077 
L 118.365525 156.136762 
L 118.880004 150.207437 
L 119.156962 144.262282 
L 119.195956 138.310806 
L 118.996923 132.362532 
L 118.560182 126.426975 
L 117.886431 120.513631 
L 116.976748 114.631959 
L 115.832589 108.79137 
L 114.455784 103.001207 
L 113.680831 100.128 
L 112.188508 105.889471 
L 110.927777 111.706011 
L 109.900653 117.568314 
L 109.10878 123.467002 
L 108.553426 129.392638 
L 108.235478 135.335743 
L 108.155445 141.286808 
L 108.313455 147.236313 
L 108.709256 153.174741 
L 109.342214 159.09259 
L 110.211316 164.980395 
L 111.315173 170.828735 
L 112.652017 176.628255 
L 114.219712 182.369676 
L 116.015748 188.043813 
L 118.037252 193.641589 
L 120.280991 199.15405 
L 122.743374 204.572375 
L 125.420464 209.887897 
L 128.307975 215.092112 
L 131.401291 220.176695 
L 134.695461 225.133511 
L 138.185216 229.95463 
L 141.864973 234.63234 
L 145.728845 239.159157 
L 149.77065 243.52784 
L 153.983923 247.731399 
L 155.246952 248.928 
L 159.509087 244.773991 
L 163.601696 240.452866 
L 167.518233 235.971536 
L 171.252432 231.337171 
L 174.798319 226.557184 
L 178.150221 221.639224 
L 181.302775 216.591157 
L 184.25094 211.421059 
L 186.989997 206.137202 
L 189.515565 200.748039 
L 190.79492 197.783396 
L 189.82321 193.427125 
L 189.114469 189.020425 
L 188.671246 184.579156 
L 188.495137 180.119301 
L 188.586776 175.656911 
L 188.945833 171.208047 
L 189.571016 166.788718 
L 190.460074 162.41483 
L 191.609808 158.102125 
L 192.901929 154.180513 
L 188.459695 153.747072 
L 184.051445 153.048036 
L 179.693044 152.085923 
L 175.400178 150.864193 
L 171.188297 149.387245 
L 167.072559 147.660393 
L 163.067776 145.689852 
L 159.188361 143.482714 
L 155.448276 141.046923 
L 152.124179 138.597638 
L 152.124179 138.597638 
" style="fill:none;stroke:#1f77b4;stroke-linecap:square;stroke-width:1.5;"/>
   </g>
   <g id="patch_5">
    <path d="M 57.6 263.808 
L 57.6 85.248 
" style="fill:none;stroke:#000000;stroke-linecap:square;stroke-linejoin:miter;stroke-width:0.8;"/>
   </g>
   <g id="patch_6">
    <path d="M 414.72 263.808 
L 414.72 85.248 
" style="fill:none;stroke:#000000;stroke-linecap:square;stroke-linejoin:miter;stroke-width:0.8;"/>
   </g>
   <g id="patch_7">
    <path d="M 57.6 263.808 
L 414.72 263.808 
" style="fill:none;stroke:#000000;stroke-linecap:square;stroke-linejoin:miter;stroke-width:0.8;"/>
   </g>
   <g id="patch_8">
    <path d="M 57.6 85.248 
L 414.72 85.248 
" style="fill:none;stroke:#000000;stroke-linecap:square;stroke-linejoin:miter;stroke-width:0.8;"/>
   </g>
  </g>
 </g>
 <defs>
  <clipPath id="p30dbaa0c83">
   <rect height="178.56" width="357.12" x="57.6" y="85.248"/>
  </clipPath>
 </defs>
</svg>
