<?xml version="1.0" encoding="utf-8" standalone="no"?>
<!DOCTYPE svg PUBLIC "-//W3C//DTD SVG 1.1//EN"
  "http://www.w3.org/Graphics/SVG/1.1/DTD/svg11.dtd">
<!-- Created with matplotlib (https://matplotlib.org/) -->
<svg height="345.6pt" version="1.1" viewBox="0 0 460.8 345.6" width="460.8pt" xmlns="http://www.w3.org/2000/svg" xmlns:xlink="http://www.w3.org/1999/xlink">
 <defs>
  <style type="text/css">
*{stroke-linecap:butt;stroke-linejoin:round;}
  </style>
 </defs>
 <g id="figure_1">
  <g id="patch_1">
   <path d="M 0 345.6 
L 460.8 345.6 
L 460.8 0 
L 0 0 
z
" style="fill:#ffffff;"/>
  </g>
  <g id="axes_1">
   <g id="patch_2">
    <path d="M 57.6 263.808 
L 414.72 263.808 
L 414.72 85.248 
L 57.6 85.248 
z
" style="fill:#ffffff;"/>
   </g>
   <g id="PathCollection_1">
    <defs>
     <path d="M 0 3 
C 0.795609 3 1.55874 2.683901 2.12132 2.12132 
C 2.683901 1.55874 3 0.795609 3 0 
C 3 -0.795609 2.683901 -1.55874 2.12132 -2.12132 
C 1.55874 -2.683901 0.795609 -3 0 -3 
C -0.795609 -3 -1.55874 -2.683901 -2.12132 -2.12132 
C -2.683901 -1.55874 -3 -0.795609 -3 0 
C -3 0.795609 -2.683901 1.55874 -2.12132 2.12132 
C -1.55874 2.683901 -0.795609 3 0 3 
z
" id="me783cdc760" style="stroke:#000000;"/>
    </defs>
    <g clip-path="url(#p2fd3bd7146)">
     <use style="stroke:#000000;" x="87.746497" xlink:href="#me783cdc760" y="234.930806"/>
    </g>
   </g>
   <g id="patch_3">
    <path clip-path="url(#p2fd3bd7146)" d="M 161.76 211.728 
C 171.625555 211.728 181.088371 207.808373 188.064372 200.832372 
C 195.040373 193.856371 198.96 184.393555 198.96 174.528 
C 198.96 164.662445 195.040373 155.199629 188.064372 148.223628 
C 181.088371 141.247627 171.625555 137.328 161.76 137.328 
C 151.894445 137.328 142.431629 141.247627 135.455628 148.223628 
C 128.479627 155.199629 124.56 164.662445 124.56 174.528 
C 124.56 184.393555 128.479627 193.856371 135.455628 200.832372 
C 142.431629 207.808373 151.894445 211.728 161.76 211.728 
z
" style="fill:#cc0000;fill-opacity:0.1;stroke:#cc0000;stroke-dasharray:7.4,3.2;stroke-dashoffset:0;stroke-linejoin:miter;stroke-width:2;"/>
   </g>
   <g id="patch_4">
    <path clip-path="url(#p2fd3bd7146)" d="M 310.56 196.848 
C 316.479333 196.848 322.157023 194.496224 326.342623 190.310623 
C 330.528224 186.125023 332.88 180.447333 332.88 174.528 
C 332.88 168.608667 330.528224 162.930977 326.342623 158.745377 
C 322.157023 154.559776 316.479333 152.208 310.56 152.208 
C 304.640667 152.208 298.962977 154.559776 294.777377 158.745377 
C 290.591776 162.930977 288.24 168.608667 288.24 174.528 
C 288.24 180.447333 290.591776 186.125023 294.777377 190.310623 
C 298.962977 194.496224 304.640667 196.848 310.56 196.848 
z
" style="fill:#cc0000;fill-opacity:0.1;stroke:#cc0000;stroke-dasharray:7.4,3.2;stroke-dashoffset:0;stroke-linejoin:miter;stroke-width:2;"/>
   </g>
   <g id="matplotlib.axis_1">
    <g id="xtick_1">
     <g id="line2d_1">
      <defs>
       <path d="M 0 0 
L 0 3.5 
" id="m218e9c6785" style="stroke:#000000;stroke-width:0.8;"/>
      </defs>
      <g>
       <use style="stroke:#000000;stroke-width:0.8;" x="87.36" xlink:href="#m218e9c6785" y="263.808"/>
      </g>
     </g>
     <g id="text_1">
      <!-- 0.0 -->
      <defs>
       <path d="M 31.78125 66.40625 
Q 24.171875 66.40625 20.328125 58.90625 
Q 16.5 51.421875 16.5 36.375 
Q 16.5 21.390625 20.328125 13.890625 
Q 24.171875 6.390625 31.78125 6.390625 
Q 39.453125 6.390625 43.28125 13.890625 
Q 47.125 21.390625 47.125 36.375 
Q 47.125 51.421875 43.28125 58.90625 
Q 39.453125 66.40625 31.78125 66.40625 
z
M 31.78125 74.21875 
Q 44.046875 74.21875 50.515625 64.515625 
Q 56.984375 54.828125 56.984375 36.375 
Q 56.984375 17.96875 50.515625 8.265625 
Q 44.046875 -1.421875 31.78125 -1.421875 
Q 19.53125 -1.421875 13.0625 8.265625 
Q 6.59375 17.96875 6.59375 36.375 
Q 6.59375 54.828125 13.0625 64.515625 
Q 19.53125 74.21875 31.78125 74.21875 
z
" id="DejaVuSans-48"/>
       <path d="M 10.6875 12.40625 
L 21 12.40625 
L 21 0 
L 10.6875 0 
z
" id="DejaVuSans-46"/>
      </defs>
      <g transform="translate(79.408438 278.406437)scale(0.1 -0.1)">
       <use xlink:href="#DejaVuSans-48"/>
       <use x="63.623047" xlink:href="#DejaVuSans-46"/>
       <use x="95.410156" xlink:href="#DejaVuSans-48"/>
      </g>
     </g>
    </g>
    <g id="xtick_2">
     <g id="line2d_2">
      <g>
       <use style="stroke:#000000;stroke-width:0.8;" x="161.76" xlink:href="#m218e9c6785" y="263.808"/>
      </g>
     </g>
     <g id="text_2">
      <!-- 0.5 -->
      <defs>
       <path d="M 10.796875 72.90625 
L 49.515625 72.90625 
L 49.515625 64.59375 
L 19.828125 64.59375 
L 19.828125 46.734375 
Q 21.96875 47.46875 24.109375 47.828125 
Q 26.265625 48.1875 28.421875 48.1875 
Q 40.625 48.1875 47.75 41.5 
Q 54.890625 34.8125 54.890625 23.390625 
Q 54.890625 11.625 47.5625 5.09375 
Q 40.234375 -1.421875 26.90625 -1.421875 
Q 22.3125 -1.421875 17.546875 -0.640625 
Q 12.796875 0.140625 7.71875 1.703125 
L 7.71875 11.625 
Q 12.109375 9.234375 16.796875 8.0625 
Q 21.484375 6.890625 26.703125 6.890625 
Q 35.15625 6.890625 40.078125 11.328125 
Q 45.015625 15.765625 45.015625 23.390625 
Q 45.015625 31 40.078125 35.4375 
Q 35.15625 39.890625 26.703125 39.890625 
Q 22.75 39.890625 18.8125 39.015625 
Q 14.890625 38.140625 10.796875 36.28125 
z
" id="DejaVuSans-53"/>
      </defs>
      <g transform="translate(153.808437 278.406437)scale(0.1 -0.1)">
       <use xlink:href="#DejaVuSans-48"/>
       <use x="63.623047" xlink:href="#DejaVuSans-46"/>
       <use x="95.410156" xlink:href="#DejaVuSans-53"/>
      </g>
     </g>
    </g>
    <g id="xtick_3">
     <g id="line2d_3">
      <g>
       <use style="stroke:#000000;stroke-width:0.8;" x="236.16" xlink:href="#m218e9c6785" y="263.808"/>
      </g>
     </g>
     <g id="text_3">
      <!-- 1.0 -->
      <defs>
       <path d="M 12.40625 8.296875 
L 28.515625 8.296875 
L 28.515625 63.921875 
L 10.984375 60.40625 
L 10.984375 69.390625 
L 28.421875 72.90625 
L 38.28125 72.90625 
L 38.28125 8.296875 
L 54.390625 8.296875 
L 54.390625 0 
L 12.40625 0 
z
" id="DejaVuSans-49"/>
      </defs>
      <g transform="translate(228.208437 278.406437)scale(0.1 -0.1)">
       <use xlink:href="#DejaVuSans-49"/>
       <use x="63.623047" xlink:href="#DejaVuSans-46"/>
       <use x="95.410156" xlink:href="#DejaVuSans-48"/>
      </g>
     </g>
    </g>
    <g id="xtick_4">
     <g id="line2d_4">
      <g>
       <use style="stroke:#000000;stroke-width:0.8;" x="310.56" xlink:href="#m218e9c6785" y="263.808"/>
      </g>
     </g>
     <g id="text_4">
      <!-- 1.5 -->
      <g transform="translate(302.608437 278.406437)scale(0.1 -0.1)">
       <use xlink:href="#DejaVuSans-49"/>
       <use x="63.623047" xlink:href="#DejaVuSans-46"/>
       <use x="95.410156" xlink:href="#DejaVuSans-53"/>
      </g>
     </g>
    </g>
    <g id="xtick_5">
     <g id="line2d_5">
      <g>
       <use style="stroke:#000000;stroke-width:0.8;" x="384.96" xlink:href="#m218e9c6785" y="263.808"/>
      </g>
     </g>
     <g id="text_5">
      <!-- 2.0 -->
      <defs>
       <path d="M 19.1875 8.296875 
L 53.609375 8.296875 
L 53.609375 0 
L 7.328125 0 
L 7.328125 8.296875 
Q 12.9375 14.109375 22.625 23.890625 
Q 32.328125 33.6875 34.8125 36.53125 
Q 39.546875 41.84375 41.421875 45.53125 
Q 43.3125 49.21875 43.3125 52.78125 
Q 43.3125 58.59375 39.234375 62.25 
Q 35.15625 65.921875 28.609375 65.921875 
Q 23.96875 65.921875 18.8125 64.3125 
Q 13.671875 62.703125 7.8125 59.421875 
L 7.8125 69.390625 
Q 13.765625 71.78125 18.9375 73 
Q 24.125 74.21875 28.421875 74.21875 
Q 39.75 74.21875 46.484375 68.546875 
Q 53.21875 62.890625 53.21875 53.421875 
Q 53.21875 48.921875 51.53125 44.890625 
Q 49.859375 40.875 45.40625 35.40625 
Q 44.1875 33.984375 37.640625 27.21875 
Q 31.109375 20.453125 19.1875 8.296875 
z
" id="DejaVuSans-50"/>
      </defs>
      <g transform="translate(377.008437 278.406437)scale(0.1 -0.1)">
       <use xlink:href="#DejaVuSans-50"/>
       <use x="63.623047" xlink:href="#DejaVuSans-46"/>
       <use x="95.410156" xlink:href="#DejaVuSans-48"/>
      </g>
     </g>
    </g>
   </g>
   <g id="matplotlib.axis_2">
    <g id="ytick_1">
     <g id="line2d_6">
      <defs>
       <path d="M 0 0 
L -3.5 0 
" id="m83e60406f8" style="stroke:#000000;stroke-width:0.8;"/>
      </defs>
      <g>
       <use style="stroke:#000000;stroke-width:0.8;" x="57.6" xlink:href="#m83e60406f8" y="248.928"/>
      </g>
     </g>
     <g id="text_6">
      <!-- 0.0 -->
      <g transform="translate(34.696875 252.727219)scale(0.1 -0.1)">
       <use xlink:href="#DejaVuSans-48"/>
       <use x="63.623047" xlink:href="#DejaVuSans-46"/>
       <use x="95.410156" xlink:href="#DejaVuSans-48"/>
      </g>
     </g>
    </g>
    <g id="ytick_2">
     <g id="line2d_7">
      <g>
       <use style="stroke:#000000;stroke-width:0.8;" x="57.6" xlink:href="#m83e60406f8" y="219.168"/>
      </g>
     </g>
     <g id="text_7">
      <!-- 0.2 -->
      <g transform="translate(34.696875 222.967219)scale(0.1 -0.1)">
       <use xlink:href="#DejaVuSans-48"/>
       <use x="63.623047" xlink:href="#DejaVuSans-46"/>
       <use x="95.410156" xlink:href="#DejaVuSans-50"/>
      </g>
     </g>
    </g>
    <g id="ytick_3">
     <g id="line2d_8">
      <g>
       <use style="stroke:#000000;stroke-width:0.8;" x="57.6" xlink:href="#m83e60406f8" y="189.408"/>
      </g>
     </g>
     <g id="text_8">
      <!-- 0.4 -->
      <defs>
       <path d="M 37.796875 64.3125 
L 12.890625 25.390625 
L 37.796875 25.390625 
z
M 35.203125 72.90625 
L 47.609375 72.90625 
L 47.609375 25.390625 
L 58.015625 25.390625 
L 58.015625 17.1875 
L 47.609375 17.1875 
L 47.609375 0 
L 37.796875 0 
L 37.796875 17.1875 
L 4.890625 17.1875 
L 4.890625 26.703125 
z
" id="DejaVuSans-52"/>
      </defs>
      <g transform="translate(34.696875 193.207219)scale(0.1 -0.1)">
       <use xlink:href="#DejaVuSans-48"/>
       <use x="63.623047" xlink:href="#DejaVuSans-46"/>
       <use x="95.410156" xlink:href="#DejaVuSans-52"/>
      </g>
     </g>
    </g>
    <g id="ytick_4">
     <g id="line2d_9">
      <g>
       <use style="stroke:#000000;stroke-width:0.8;" x="57.6" xlink:href="#m83e60406f8" y="159.648"/>
      </g>
     </g>
     <g id="text_9">
      <!-- 0.6 -->
      <defs>
       <path d="M 33.015625 40.375 
Q 26.375 40.375 22.484375 35.828125 
Q 18.609375 31.296875 18.609375 23.390625 
Q 18.609375 15.53125 22.484375 10.953125 
Q 26.375 6.390625 33.015625 6.390625 
Q 39.65625 6.390625 43.53125 10.953125 
Q 47.40625 15.53125 47.40625 23.390625 
Q 47.40625 31.296875 43.53125 35.828125 
Q 39.65625 40.375 33.015625 40.375 
z
M 52.59375 71.296875 
L 52.59375 62.3125 
Q 48.875 64.0625 45.09375 64.984375 
Q 41.3125 65.921875 37.59375 65.921875 
Q 27.828125 65.921875 22.671875 59.328125 
Q 17.53125 52.734375 16.796875 39.40625 
Q 19.671875 43.65625 24.015625 45.921875 
Q 28.375 48.1875 33.59375 48.1875 
Q 44.578125 48.1875 50.953125 41.515625 
Q 57.328125 34.859375 57.328125 23.390625 
Q 57.328125 12.15625 50.6875 5.359375 
Q 44.046875 -1.421875 33.015625 -1.421875 
Q 20.359375 -1.421875 13.671875 8.265625 
Q 6.984375 17.96875 6.984375 36.375 
Q 6.984375 53.65625 15.1875 63.9375 
Q 23.390625 74.21875 37.203125 74.21875 
Q 40.921875 74.21875 44.703125 73.484375 
Q 48.484375 72.75 52.59375 71.296875 
z
" id="DejaVuSans-54"/>
      </defs>
      <g transform="translate(34.696875 163.447219)scale(0.1 -0.1)">
       <use xlink:href="#DejaVuSans-48"/>
       <use x="63.623047" xlink:href="#DejaVuSans-46"/>
       <use x="95.410156" xlink:href="#DejaVuSans-54"/>
      </g>
     </g>
    </g>
    <g id="ytick_5">
     <g id="line2d_10">
      <g>
       <use style="stroke:#000000;stroke-width:0.8;" x="57.6" xlink:href="#m83e60406f8" y="129.888"/>
      </g>
     </g>
     <g id="text_10">
      <!-- 0.8 -->
      <defs>
       <path d="M 31.78125 34.625 
Q 24.75 34.625 20.71875 30.859375 
Q 16.703125 27.09375 16.703125 20.515625 
Q 16.703125 13.921875 20.71875 10.15625 
Q 24.75 6.390625 31.78125 6.390625 
Q 38.8125 6.390625 42.859375 10.171875 
Q 46.921875 13.96875 46.921875 20.515625 
Q 46.921875 27.09375 42.890625 30.859375 
Q 38.875 34.625 31.78125 34.625 
z
M 21.921875 38.8125 
Q 15.578125 40.375 12.03125 44.71875 
Q 8.5 49.078125 8.5 55.328125 
Q 8.5 64.0625 14.71875 69.140625 
Q 20.953125 74.21875 31.78125 74.21875 
Q 42.671875 74.21875 48.875 69.140625 
Q 55.078125 64.0625 55.078125 55.328125 
Q 55.078125 49.078125 51.53125 44.71875 
Q 48 40.375 41.703125 38.8125 
Q 48.828125 37.15625 52.796875 32.3125 
Q 56.78125 27.484375 56.78125 20.515625 
Q 56.78125 9.90625 50.3125 4.234375 
Q 43.84375 -1.421875 31.78125 -1.421875 
Q 19.734375 -1.421875 13.25 4.234375 
Q 6.78125 9.90625 6.78125 20.515625 
Q 6.78125 27.484375 10.78125 32.3125 
Q 14.796875 37.15625 21.921875 38.8125 
z
M 18.3125 54.390625 
Q 18.3125 48.734375 21.84375 45.5625 
Q 25.390625 42.390625 31.78125 42.390625 
Q 38.140625 42.390625 41.71875 45.5625 
Q 45.3125 48.734375 45.3125 54.390625 
Q 45.3125 60.0625 41.71875 63.234375 
Q 38.140625 66.40625 31.78125 66.40625 
Q 25.390625 66.40625 21.84375 63.234375 
Q 18.3125 60.0625 18.3125 54.390625 
z
" id="DejaVuSans-56"/>
      </defs>
      <g transform="translate(34.696875 133.687219)scale(0.1 -0.1)">
       <use xlink:href="#DejaVuSans-48"/>
       <use x="63.623047" xlink:href="#DejaVuSans-46"/>
       <use x="95.410156" xlink:href="#DejaVuSans-56"/>
      </g>
     </g>
    </g>
    <g id="ytick_6">
     <g id="line2d_11">
      <g>
       <use style="stroke:#000000;stroke-width:0.8;" x="57.6" xlink:href="#m83e60406f8" y="100.128"/>
      </g>
     </g>
     <g id="text_11">
      <!-- 1.0 -->
      <g transform="translate(34.696875 103.927219)scale(0.1 -0.1)">
       <use xlink:href="#DejaVuSans-49"/>
       <use x="63.623047" xlink:href="#DejaVuSans-46"/>
       <use x="95.410156" xlink:href="#DejaVuSans-48"/>
      </g>
     </g>
    </g>
   </g>
   <g id="line2d_12">
    <path clip-path="url(#p2fd3bd7146)" d="M 236.16 248.928 
L 236.16 100.128 
" style="fill:none;stroke:#cc0000;stroke-dasharray:7.4,3.2;stroke-dashoffset:0;stroke-width:2;"/>
   </g>
   <g id="line2d_13">
    <path clip-path="url(#p2fd3bd7146)" d="M 87.36 248.928 
L 384.96 248.928 
" style="fill:none;stroke:#009900;stroke-linecap:square;stroke-width:2;"/>
   </g>
   <g id="line2d_14">
    <path clip-path="url(#p2fd3bd7146)" d="M 384.96 248.928 
L 384.96 100.128 
" style="fill:none;stroke:#009900;stroke-linecap:square;stroke-width:2;"/>
   </g>
   <g id="line2d_15">
    <path clip-path="url(#p2fd3bd7146)" d="M 384.96 100.128 
L 87.36 100.128 
" style="fill:none;stroke:#009900;stroke-linecap:square;stroke-width:2;"/>
   </g>
   <g id="line2d_16">
    <path clip-path="url(#p2fd3bd7146)" d="M 87.36 100.128 
L 87.36 248.928 
" style="fill:none;stroke:#009900;stroke-linecap:square;stroke-width:2;"/>
   </g>
   <g id="line2d_17">
    <path clip-path="url(#p2fd3bd7146)" d="M 87.746497 234.930806 
L 89.750496 229.326738 
L 91.528789 223.647015 
L 93.078532 217.900723 
L 94.397244 212.097053 
L 95.482817 206.245292 
L 96.333513 200.3548 
L 96.947972 194.435001 
L 97.32521 188.495365 
L 97.464625 182.545395 
L 97.365993 176.594609 
L 97.029472 170.652527 
L 96.4556 164.728656 
L 95.645295 158.832472 
L 94.599854 152.973408 
L 93.32095 147.160836 
L 91.810627 141.404057 
L 90.071303 135.71228 
L 88.10576 130.094609 
L 87.36 128.13487 
L 89.404509 122.545455 
L 91.223865 116.878751 
L 92.815158 111.143826 
L 94.175842 105.349854 
L 95.195204 100.128 
L 96.347885 105.966913 
L 97.733139 111.755061 
L 99.348748 117.483183 
L 101.19213 123.142116 
L 103.260333 128.722808 
L 105.550051 134.216329 
L 108.057619 139.613891 
L 110.779026 144.906861 
L 113.709919 150.086769 
L 116.845609 155.145329 
L 120.181078 160.074449 
L 123.710992 164.866243 
L 125.340218 166.949116 
L 129.069602 169.401261 
L 132.645235 172.072622 
L 136.054248 174.953585 
L 139.284372 178.033782 
L 142.323984 181.302127 
L 145.162142 184.746859 
L 147.788633 188.355579 
L 150.194005 192.115301 
L 152.3696 196.012492 
L 154.30759 200.033129 
L 156.000998 204.16274 
L 157.443731 208.386463 
L 158.348858 211.571273 
L 160.363471 207.588479 
L 162.613284 203.733656 
L 165.090199 200.020677 
L 167.785302 196.462906 
L 170.688893 193.073145 
L 173.790523 189.863595 
L 177.079029 186.845807 
L 180.542577 184.030641 
L 184.1687 181.42823 
L 187.94435 179.047938 
L 191.855937 176.898332 
L 195.889384 174.987149 
L 198.951389 173.727625 
L 194.766295 172.176396 
L 190.681751 170.377004 
L 186.712455 168.335923 
L 182.872693 166.060501 
L 179.176284 163.558926 
L 175.636531 160.8402 
L 172.266173 157.914109 
L 169.077341 154.791184 
L 166.081509 151.482663 
L 163.289461 148.000453 
L 160.711244 144.357087 
L 158.356137 140.565677 
L 156.75838 137.665773 
L 155.690442 141.999458 
L 154.364561 146.261307 
L 152.785509 150.435982 
L 150.958967 154.508459 
L 148.891511 158.46408 
L 146.590579 162.288611 
L 144.064454 165.968286 
L 141.322227 169.489864 
L 138.373766 172.840669 
L 135.229683 176.008644 
L 131.901294 178.982385 
L 128.400576 181.751193 
L 125.699987 183.66668 
L 130.12665 184.237621 
L 134.511112 185.072976 
L 138.837592 186.169737 
L 143.090521 187.523957 
L 147.254593 189.130763 
L 151.314821 190.984373 
L 155.256593 193.078114 
L 159.065722 195.404452 
L 162.728501 197.955015 
L 166.231747 200.720623 
L 169.562852 203.691323 
L 172.709827 206.856424 
L 174.918463 209.32304 
L 174.985081 204.860207 
L 175.319189 200.409399 
L 175.919583 195.986635 
L 176.784104 191.607831 
L 177.90964 187.288747 
L 179.29214 183.044927 
L 180.926629 178.891643 
L 182.807224 174.843843 
L 184.927157 170.916096 
L 187.278799 167.122536 
L 189.853686 163.476816 
L 192.642552 159.992057 
L 194.843544 157.518616 
L 190.401811 157.957176 
L 185.941774 158.128603 
L 181.479483 158.03228 
L 177.030998 157.668553 
L 172.612328 157.038732 
L 168.239376 156.145083 
L 163.92788 154.990822 
L 159.693356 153.580103 
L 155.551044 151.918005 
L 151.515853 150.010507 
L 147.602303 147.864476 
L 143.824481 145.487634 
L 141.117977 143.580514 
L 142.056087 147.944144 
L 142.730848 152.356175 
L 143.139832 156.800728 
L 143.281567 161.261808 
L 143.155543 165.723358 
L 142.762213 170.169324 
L 142.102993 174.583704 
L 141.180255 178.95061 
L 139.99732 183.254328 
L 138.558446 187.479367 
L 136.868811 191.610524 
L 134.934496 195.632929 
L 133.345721 198.537764 
L 137.575251 197.112142 
L 141.882656 195.942706 
L 146.252434 195.033663 
L 150.668858 194.388285 
L 155.116035 194.008895 
L 159.577959 193.896858 
L 164.038572 194.052578 
L 168.481821 194.475494 
L 172.891715 195.164083 
L 177.252383 196.115869 
L 181.548131 197.327425 
L 185.763499 198.794391 
L 188.829387 200.044432 
L 186.934549 196.00328 
L 185.285445 191.855778 
L 183.888009 187.616852 
L 182.74727 183.301758 
L 181.867335 178.926026 
L 181.251369 174.505404 
L 180.90159 170.0558 
L 180.819256 165.593229 
L 181.004665 161.133751 
L 181.457147 156.693416 
L 182.175076 152.288203 
L 183.155867 147.933968 
L 184.051132 144.746371 
L 180.250218 147.086109 
L 176.315844 149.193718 
L 172.262169 151.061614 
L 168.103782 152.683074 
L 163.855648 154.052263 
L 159.533056 155.164253 
L 155.151564 156.015042 
L 150.726939 156.601568 
L 146.275105 156.921721 
L 141.812085 156.974348 
L 137.35394 156.759259 
L 132.916715 156.277229 
L 129.648317 155.748229 
L 132.402928 159.260128 
L 134.941996 162.930885 
L 137.256381 166.747289 
L 139.337755 170.695605 
L 141.178626 174.761624 
L 142.77237 178.930713 
L 144.113251 183.187866 
L 145.196443 187.517764 
L 146.018048 191.904823 
L 146.575109 196.333254 
L 146.865621 200.787119 
L 146.888538 205.250391 
L 146.732591 208.557649 
L 149.910407 205.423513 
L 153.270439 202.485571 
L 156.800596 199.754397 
L 160.488173 197.239821 
L 164.319898 194.950891 
L 168.281981 192.895845 
L 172.360164 191.08208 
L 176.539769 189.516122 
L 180.805754 188.203609 
L 185.142766 187.149263 
L 189.535196 186.356878 
L 193.967237 185.829308 
L 197.270912 185.6102 
L 193.797472 182.807249 
L 190.498359 179.80106 
L 187.385446 176.602453 
L 184.469935 173.222938 
L 181.76232 169.674679 
L 179.272345 165.970446 
L 177.008972 162.12357 
L 174.980345 158.147895 
L 173.193767 154.057729 
L 171.655666 149.867793 
L 170.371577 145.593166 
L 169.346124 141.249232 
L 168.754774 137.991537 
L 166.362657 141.759706 
L 163.74889 145.377653 
L 160.92288 148.832357 
L 157.894797 152.111387 
L 154.675539 155.20294 
L 151.276693 158.09589 
L 147.71049 160.779826 
L 143.989764 163.245088 
L 140.127907 165.482805 
L 136.138816 167.484923 
L 132.036849 169.244236 
L 127.836767 170.754413 
L 124.666857 171.710417 
L 128.681398 173.661001 
L 132.57175 175.848804 
L 136.323913 178.26595 
L 139.924381 180.903742 
L 143.360198 183.752686 
L 146.618998 186.802528 
L 149.689054 190.042293 
L 152.559316 193.460321 
L 155.219454 197.044311 
L 157.659895 200.781364 
L 159.871856 204.658032 
L 161.847376 208.660361 
L 163.155765 211.701806 
L 164.639786 207.492411 
L 166.373547 203.379579 
L 168.350811 199.378111 
L 170.564461 195.502408 
L 173.006531 191.766419 
L 175.66823 188.183589 
L 178.539981 184.766812 
L 181.611448 181.528385 
L 184.871577 178.479963 
L 188.308636 175.632517 
L 191.910253 172.996294 
L 195.663468 170.580783 
L 198.537418 168.936798 
L 194.187189 167.938387 
L 189.904656 166.680915 
L 185.705233 165.168908 
L 181.604033 163.407807 
L 177.615815 161.403951 
L 173.754934 159.164552 
L 170.035283 156.697668 
L 166.470249 154.012178 
L 163.072664 151.117747 
L 159.854754 148.024792 
L 156.8281 144.744443 
L 154.003596 141.288507 
L 152.045113 138.618935 
L 151.545123 143.054172 
L 150.780078 147.451446 
L 149.752732 151.794933 
L 148.466781 156.069 
L 146.926854 160.258266 
L 145.138493 164.347652 
L 143.108134 168.322443 
L 140.843084 172.168333 
L 138.351496 175.871481 
L 135.642335 179.418559 
L 132.725352 182.796803 
L 129.611045 185.994053 
L 127.180108 188.241901 
L 131.643436 188.237053 
L 136.099023 188.499853 
L 140.530833 189.029355 
L 144.922918 189.823653 
L 149.25947 190.87989 
L 153.524883 192.194262 
L 157.703805 193.762041 
L 161.781197 195.577583 
L 165.742384 197.634355 
L 169.573112 199.924954 
L 173.259592 202.441138 
L 176.788559 205.17385 
L 179.296924 207.334955 
L 178.787301 202.900815 
L 178.544483 198.444094 
L 178.569346 193.980833 
L 178.861799 189.527094 
L 179.420789 185.098906 
L 180.244306 180.712206 
L 181.329385 176.382781 
L 182.672121 172.126212 
L 184.267682 167.957818 
L 186.110325 163.892602 
L 188.193419 159.945193 
L 190.509467 156.129798 
L 192.373007 153.393104 
L 193.86622 147.631863 
L 195.12785 141.815518 
L 196.155879 135.953374 
L 196.948663 130.054808 
L 197.504933 124.129258 
L 197.823799 118.186203 
L 197.904751 112.235151 
L 197.74766 106.285621 
L 197.333634 100.128 
L 196.929973 106.065898 
L 196.764087 112.015189 
L 196.836241 117.966355 
L 197.146322 123.909875 
L 197.693832 129.836241 
L 198.477895 135.735972 
L 199.497257 141.59963 
L 200.750288 147.417834 
L 202.234982 153.181276 
L 203.948966 158.880735 
L 205.889495 164.507095 
L 208.053467 170.051354 
L 210.437419 175.504642 
L 213.037538 180.858236 
L 215.849664 186.10357 
L 218.869297 191.232254 
L 222.091608 196.236082 
L 225.511441 201.107049 
L 229.123325 205.837363 
L 232.921482 210.419457 
L 236.16 214.049401 
L 232.214093 218.504892 
L 228.449515 223.114613 
L 224.872288 227.87119 
L 221.488134 232.767013 
L 218.302468 237.794251 
L 215.320386 242.944859 
L 212.546659 248.210599 
L 212.189323 248.928 
L 209.443999 243.647396 
L 206.489702 238.480801 
L 203.33116 233.436478 
L 199.973426 228.522498 
L 196.42187 223.746722 
L 192.682175 219.116791 
L 188.760324 214.640111 
L 184.66259 210.323844 
L 179.836309 205.342466 
L 177.221137 201.725533 
L 174.827558 197.958294 
L 172.664184 194.054304 
L 170.738802 190.027615 
L 169.058342 185.892719 
L 167.62885 181.664496 
L 166.455471 177.358163 
L 165.542429 172.989219 
L 164.89301 168.573387 
L 164.509549 164.126559 
L 164.393429 159.664739 
L 164.545066 155.203985 
L 164.963915 150.760351 
L 165.648468 146.349829 
L 166.596263 141.988292 
L 167.76497 137.815872 
L 167.53281 142.273161 
L 167.03379 146.708507 
L 166.269708 151.105949 
L 165.243312 155.449661 
L 163.958296 159.724009 
L 162.419286 163.913611 
L 160.63182 168.003389 
L 158.602331 171.978624 
L 156.338123 175.825009 
L 153.847344 179.528702 
L 151.13896 183.076373 
L 148.222716 186.455255 
L 145.109109 189.653187 
L 141.809344 192.65866 
L 138.335296 195.460858 
L 134.699469 198.049695 
L 133.563612 198.793278 
L 136.606307 195.527803 
L 139.839337 192.450656 
L 143.251068 189.572911 
L 146.82922 186.904926 
L 150.560917 184.456303 
L 154.432728 182.235853 
L 158.430719 180.251567 
L 162.540501 178.510589 
L 166.747284 177.019181 
L 171.035928 175.782714 
L 175.390998 174.805635 
L 179.796821 174.091462 
L 184.23754 173.642765 
L 188.697175 173.461159 
L 193.159674 173.547297 
L 197.608978 173.90087 
L 198.957072 174.061267 
L 194.527266 174.607286 
L 190.07269 174.886694 
L 185.609375 174.898485 
L 181.153384 174.642616 
L 176.720755 174.120009 
L 172.32744 173.332544 
L 167.98925 172.283055 
L 163.721798 170.975319 
L 159.540443 169.414043 
L 155.460231 167.604846 
L 151.495849 165.554239 
L 147.661563 163.269601 
L 143.971173 160.759155 
L 140.43796 158.031936 
L 137.074639 155.097759 
L 133.893316 151.967184 
L 132.963645 150.977843 
L 136.708226 153.406716 
L 140.300425 156.055759 
L 143.727312 158.915438 
L 146.976555 161.975461 
L 150.036459 165.224815 
L 152.896014 168.651806 
L 155.544926 172.244101 
L 157.973664 175.98877 
L 160.173485 179.872339 
L 162.136474 183.880829 
L 163.855566 187.999815 
L 165.324573 192.214472 
L 166.538209 196.509633 
L 167.492106 200.869839 
L 168.182831 205.279399 
L 168.607898 209.722443 
L 168.684231 211.077898 
L 168.250373 217.013666 
L 168.05423 222.962036 
L 168.096114 228.913492 
L 168.37596 234.858513 
L 168.89332 240.787587 
L 169.647365 246.691229 
L 169.996053 248.928 
L 170.839825 243.036512 
L 171.447324 237.115995 
L 171.817581 231.17592 
L 171.950001 225.22579 
L 171.844374 219.275124 
L 171.500868 213.333442 
L 171.252519 210.496487 
L 173.783074 215.883311 
L 176.527021 221.164631 
L 179.479969 226.331998 
L 182.637194 231.377145 
L 185.993646 236.292001 
L 189.543956 241.068703 
L 193.282442 245.69961 
L 196.07715 248.928 
L 199.946973 244.406269 
L 203.63288 239.733404 
L 207.128974 234.916879 
L 210.429661 229.9644 
L 213.529662 224.883891 
L 216.424017 219.683479 
L 219.108096 214.371483 
L 221.577605 208.956401 
L 223.828592 203.446897 
L 225.857458 197.851785 
L 227.660957 192.180015 
L 229.236202 186.440661 
L 230.580674 180.642905 
L 231.692223 174.796022 
L 232.569069 168.909365 
L 233.209811 162.992353 
L 233.613422 157.054452 
L 233.779258 151.105159 
L 233.707054 145.153994 
L 233.396923 139.210477 
L 232.849364 133.284115 
L 232.065251 127.384391 
L 231.04584 121.520742 
L 229.79276 115.702548 
L 228.308017 109.939119 
L 226.593986 104.239674 
L 225.200685 100.128 
L 223.321116 105.775017 
L 221.668872 111.49268 
L 220.246594 117.271842 
L 219.056559 123.103256 
L 218.100671 128.977595 
L 217.380457 134.885461 
L 216.897072 140.817401 
L 216.651287 146.763927 
L 216.643497 152.715525 
L 216.873714 158.662674 
L 217.341568 164.59586 
L 218.046313 170.50559 
L 218.98682 176.382412 
L 220.161585 182.216922 
L 221.568729 187.999787 
L 223.206 193.721755 
L 225.070779 199.373674 
L 227.160083 204.9465 
L 229.470569 210.431318 
L 231.998541 215.819355 
L 234.739955 221.101989 
L 236.16 223.6497 
L 233.315569 228.877586 
L 230.682472 234.215037 
L 228.264923 239.653515 
L 226.066789 245.184318 
L 224.721726 248.928 
L 222.672223 243.340414 
L 220.400916 237.839255 
L 217.911438 232.433325 
L 215.207772 227.131272 
L 212.294242 221.941578 
L 209.175511 216.872545 
L 205.856568 211.932282 
L 202.342721 207.128694 
L 198.639592 202.469464 
L 194.753107 197.962047 
L 192.488019 195.495328 
L 189.185248 192.493158 
L 186.068443 189.298343 
L 183.14882 185.922381 
L 180.436887 182.377422 
L 177.942403 178.676223 
L 175.674348 174.832105 
L 173.640882 170.858903 
L 171.849325 166.770916 
L 170.306123 162.582856 
L 169.016831 158.309795 
L 167.986089 153.967113 
L 167.217607 149.570438 
L 166.714149 145.135593 
L 166.477529 140.678539 
L 166.469802 137.627353 
L 165.296843 141.9338 
L 163.867762 146.162162 
L 162.187704 150.297222 
L 160.262714 154.324098 
L 158.09972 158.228298 
L 155.706507 161.995771 
L 153.091688 165.612957 
L 150.264673 169.06684 
L 147.235636 172.344988 
L 144.015479 175.435604 
L 140.615791 178.327565 
L 137.048807 181.010464 
L 133.327364 183.474644 
L 129.464856 185.711237 
L 125.496088 187.905204 
L 120.560065 191.230448 
L 115.760963 194.750421 
L 111.106462 198.459491 
L 106.604008 202.351724 
L 102.260802 206.420895 
L 98.083794 210.660492 
L 94.079666 215.063734 
L 90.254824 219.623576 
L 87.36 223.337084 
L 91.038657 228.015659 
L 94.901465 232.543384 
L 98.942244 236.913017 
L 103.154529 241.117566 
L 107.531582 245.150305 
L 111.972392 248.928 
L 116.504065 245.069824 
L 120.877826 241.033515 
L 125.08668 236.825531 
L 129.123893 232.452604 
L 132.983007 227.921729 
L 136.657846 223.240155 
L 140.142533 218.415372 
L 143.431493 213.455097 
L 146.475535 208.442969 
L 148.633953 204.536237 
L 151.022749 200.765963 
L 153.633328 197.145715 
L 156.456294 193.688522 
L 159.481488 190.406827 
L 162.698021 187.31244 
L 166.094318 184.416497 
L 169.658156 181.729421 
L 173.376708 179.260882 
L 177.236593 177.019764 
L 181.223919 175.014134 
L 185.324335 173.251208 
L 189.523084 171.737332 
L 193.805057 170.477954 
L 198.154841 169.477607 
L 198.603458 169.389945 
L 194.147433 169.645212 
L 189.68412 169.63282 
L 185.229581 169.352811 
L 180.799849 168.806194 
L 176.410865 167.994936 
L 172.078425 166.921957 
L 167.818122 165.591119 
L 163.645287 164.00721 
L 159.574938 162.175932 
L 155.621725 160.103874 
L 151.799874 157.798495 
L 148.12314 155.268091 
L 144.604755 152.521768 
L 141.257383 149.56941 
L 138.093068 146.421644 
L 137.779839 146.088733 
L 140.370274 149.723423 
L 142.738097 153.506904 
L 144.874787 157.425562 
L 146.772653 161.465292 
L 148.424866 165.611557 
L 149.825479 169.849434 
L 150.969451 174.163671 
L 151.852666 178.538743 
L 152.471945 182.958903 
L 152.825059 187.408243 
L 152.910737 191.870751 
L 152.728672 196.330366 
L 152.279517 200.77104 
L 151.56489 205.176789 
L 150.587363 209.531758 
L 150.472559 209.974208 
L 152.167919 205.845398 
L 154.107807 201.825678 
L 156.285244 197.929514 
L 158.692392 194.17093 
L 161.320588 190.563451 
L 164.160373 187.120061 
L 167.201528 183.853152 
L 170.433108 180.774481 
L 173.843482 177.895129 
L 177.420376 175.225458 
L 181.150918 172.775075 
L 185.021682 170.552801 
L 189.018737 168.566631 
L 193.127699 166.823716 
L 197.333778 165.330326 
L 197.769356 165.191711 
L 193.372151 165.957157 
L 188.936959 166.457551 
L 184.479743 166.691094 
L 180.016543 166.656943 
L 175.563423 166.355223 
L 171.136408 165.787018 
L 166.751431 164.954375 
L 162.424273 163.860289 
L 158.170507 162.508698 
L 154.005443 160.904466 
L 149.94407 159.053367 
L 146.001005 156.962063 
L 142.190437 154.63808 
L 138.526083 152.089783 
L 135.021128 149.326341 
L 134.67173 149.031615 
L 137.662538 152.344678 
L 140.449299 155.831121 
L 143.021985 159.478394 
L 145.371336 163.273374 
L 147.488898 167.202401 
L 149.367048 171.251335 
L 150.999029 175.405605 
L 152.378967 179.650259 
L 153.501895 183.970022 
L 154.363771 188.349347 
L 154.961495 192.772473 
L 155.292916 197.223482 
L 155.356839 201.686354 
L 155.153036 206.145029 
L 154.682239 210.58346 
L 154.61902 211.036169 
L 155.828876 206.739942 
L 157.294174 202.523994 
L 159.00964 198.403497 
L 160.969101 194.393281 
L 163.165505 190.507779 
L 165.590947 186.760973 
L 168.236697 183.166349 
L 171.093235 179.736843 
L 174.150279 176.484798 
L 177.396829 173.421917 
L 180.821198 170.559224 
L 184.411064 167.907021 
L 188.153507 165.474854 
L 192.035058 163.271475 
L 196.041748 161.304814 
L 196.45852 161.117081 
L 192.17835 162.382572 
L 187.829998 163.389129 
L 183.429114 164.13313 
L 178.991536 164.611898 
L 174.533234 164.82371 
L 170.070254 164.767802 
L 165.618657 164.444377 
L 161.194465 163.854599 
L 156.813599 163.000589 
L 152.491826 161.885422 
L 148.2447 160.513111 
L 144.087505 158.888594 
L 140.035204 157.017719 
L 136.10238 154.907218 
L 132.303187 152.564687 
L 131.922247 152.312048 
L 135.273832 155.259623 
L 138.442638 158.402868 
L 141.417259 161.730472 
L 144.186992 165.230457 
L 146.741867 168.890229 
L 149.072691 172.696616 
L 151.171074 176.635919 
L 153.029464 180.693961 
L 154.641175 184.856137 
L 156.000404 189.107468 
L 157.10226 193.432653 
L 157.942778 197.816128 
L 158.518933 202.242115 
L 158.828652 206.694686 
L 158.870819 211.157818 
L 158.860021 211.614792 
L 159.568356 207.208027 
L 160.539664 202.851666 
L 161.77045 198.561388 
L 163.256282 194.352632 
L 164.991815 190.240547 
L 166.970802 186.239931 
L 169.18612 182.365182 
L 171.629798 178.630244 
L 174.29304 175.048561 
L 177.166262 171.633021 
L 180.239124 168.395916 
L 183.500565 165.348899 
L 186.938849 162.502933 
L 190.541601 159.868261 
L 194.295856 157.454367 
L 194.688304 157.220002 
L 190.581835 158.968783 
L 186.377892 160.468176 
L 182.091604 161.712787 
L 177.738398 162.698135 
L 173.333939 163.420674 
L 168.89408 163.877803 
L 164.434798 164.067879 
L 159.972144 163.990216 
L 155.522176 163.645094 
L 151.100911 163.033755 
L 146.724261 162.1584 
L 142.407975 161.022178 
L 138.16759 159.62918 
L 134.018364 157.984417 
L 129.975231 156.09381 
L 129.567792 155.886602 
L 133.235781 158.429665 
L 136.744678 161.188099 
L 140.081855 164.151977 
L 143.2353 167.310633 
L 146.193665 170.652697 
L 148.946303 174.166143 
L 151.483307 177.838326 
L 153.795547 181.65603 
L 155.874702 185.605515 
L 157.713288 189.672568 
L 159.304689 193.842552 
L 160.643178 198.100458 
L 161.723937 202.430964 
L 162.543076 206.818483 
L 163.097649 211.247227 
L 163.139416 211.702416 
L 163.336852 207.243455 
L 163.801311 202.804356 
L 164.53112 198.401096 
L 165.523653 194.049522 
L 166.775338 189.765295 
L 168.28167 185.563833 
L 170.037228 181.460257 
L 172.035693 177.469335 
L 174.269874 173.605431 
L 176.73173 169.882451 
L 179.412401 166.313792 
L 182.302239 162.912299 
L 185.390844 159.690213 
L 188.6671 156.659131 
L 192.119217 153.82996 
L 192.482144 153.552065 
L 188.603743 155.760984 
L 184.599866 157.733364 
L 180.484921 159.462106 
L 176.273719 160.940988 
L 171.981414 162.164689 
L 167.623456 163.128804 
L 163.215528 163.829864 
L 158.773493 164.265345 
L 154.313338 164.43368 
L 149.851115 164.334263 
L 145.402882 163.967453 
L 140.98465 163.334568 
L 136.612319 162.437888 
L 132.301624 161.280639 
L 128.068079 159.866985 
L 127.639534 159.707952 
L 131.575368 161.812836 
L 135.377901 164.14994 
L 139.033451 166.710853 
L 142.528859 169.48636 
L 145.851547 172.466471 
L 148.989557 175.640461 
L 151.931595 178.996907 
L 154.667073 182.52373 
L 157.186146 186.208237 
L 159.479748 190.037167 
L 161.539625 193.996741 
L 163.358363 198.072709 
L 164.929418 202.2504 
L 166.247134 206.514781 
L 167.306769 210.850504 
L 167.400548 211.297882 
L 167.084472 206.845757 
L 167.035933 202.382691 
L 167.255104 197.924745 
L 167.741197 193.487963 
L 168.492462 189.088313 
L 169.506196 184.741629 
L 170.778751 180.463555 
L 172.305546 176.269486 
L 174.081088 172.174516 
L 176.098984 168.193385 
L 178.351975 164.340418 
L 180.83195 160.629482 
L 183.529985 157.073934 
L 186.436371 153.686569 
L 189.540646 150.479578 
L 189.869249 150.161833 
L 186.270263 152.801646 
L 182.519458 155.220899 
L 178.630335 157.410885 
L 174.61689 159.363723 
L 170.493567 161.072385 
L 166.275205 162.530721 
L 161.976987 163.733483 
L 157.61438 164.676342 
L 153.203087 165.355906 
L 148.758981 165.769727 
L 144.298059 165.916318 
L 139.836373 165.79515 
L 135.389982 165.40666 
L 130.974888 164.752245 
L 126.606979 163.834261 
L 126.163003 163.725508 
L 130.314573 165.364344 
L 134.360402 167.249177 
L 138.285927 169.373222 
L 142.077023 171.728834 
L 145.720045 174.307538 
L 149.201882 177.100051 
L 152.510003 180.096324 
L 155.632503 183.285574 
L 158.558144 186.656322 
L 161.276396 190.196438 
L 163.777478 193.893181 
L 166.052388 197.733247 
L 168.092938 201.702815 
L 169.891785 205.7876 
L 171.442455 209.972901 
L 171.587004 210.406545 
L 170.7616 206.020199 
L 170.200705 201.592252 
L 169.906336 197.13864 
L 169.879554 192.67539 
L 170.120454 188.218565 
L 170.62817 183.784206 
L 171.400874 179.38827 
L 172.435786 175.04658 
L 173.72918 170.77476 
L 175.276402 166.588183 
L 177.071885 162.501918 
L 179.109165 158.53067 
L 181.380911 154.688732 
L 183.878947 150.989931 
L 186.594283 147.447577 
L 186.884211 147.094189 
L 183.612286 150.129946 
L 180.164212 152.964043 
L 176.5524 155.58628 
L 172.789846 157.98722 
L 168.890094 160.158222 
L 164.867177 162.091472 
L 160.735573 163.780013 
L 156.510152 165.217768 
L 152.206122 166.399563 
L 147.838971 167.321144 
L 143.424417 167.979195 
L 138.978347 168.371347 
L 134.516763 168.49619 
L 130.055722 168.353274 
L 125.611277 167.943113 
L 125.157747 167.886079 
L 129.470091 169.037172 
L 133.70565 170.44478 
L 137.849181 172.103835 
L 141.885773 174.008368 
L 145.800898 176.151523 
L 149.580465 178.525589 
L 153.210873 181.122021 
L 156.679056 183.931474 
L 159.972531 186.943838 
L 163.079447 190.148272 
L 165.988621 193.533242 
L 168.689584 197.086567 
L 171.172615 200.795458 
L 173.428778 204.646568 
L 175.449954 208.626036 
L 175.643358 209.040206 
L 174.319555 204.777711 
L 173.25373 200.443506 
L 172.449719 196.053189 
L 171.910415 191.62256 
L 171.637761 187.167565 
L 171.632736 182.704238 
L 171.89536 178.24864 
L 172.424686 173.816809 
L 173.21881 169.424692 
L 174.274874 165.088098 
L 175.589078 160.822634 
L 177.156691 156.64365 
L 178.972071 152.566186 
L 181.028686 148.604917 
L 183.319134 144.774099 
L 183.566549 144.389745 
L 180.665003 147.781257 
L 177.56531 150.992677 
L 174.278625 154.012449 
L 170.816777 156.829703 
L 167.192224 159.434302 
L 163.418012 161.816872 
L 159.507722 163.968837 
L 155.475428 165.882453 
L 151.335643 167.550833 
L 147.103263 168.967973 
L 142.793523 170.128772 
L 138.421931 171.029054 
L 134.004222 171.665577 
L 129.556294 172.036051 
L 125.094154 172.139143 
L 124.637075 172.134584 
L 129.053099 172.782695 
L 133.422314 173.694441 
L 137.728995 174.866542 
L 141.957642 176.29478 
L 146.093036 177.974015 
L 150.120296 179.898202 
L 154.024927 182.060418 
L 157.792876 184.45288 
L 161.410584 187.066979 
L 164.865029 189.893306 
L 168.143781 192.921689 
L 171.235039 196.14123 
L 174.127678 199.540342 
L 176.811287 203.106791 
L 179.276208 206.827742 
L 179.515909 207.216954 
L 177.711231 203.134742 
L 176.154587 198.951659 
L 174.851578 194.682762 
L 173.806893 190.343412 
L 173.024294 185.949228 
L 172.506596 181.516023 
L 172.255662 177.059752 
L 172.272395 172.596453 
L 172.556736 168.142189 
L 173.10766 163.71299 
L 173.923186 159.324797 
L 175.000377 154.993403 
L 176.335358 150.734396 
L 177.923324 146.563103 
L 179.75856 142.494537 
L 179.960187 142.084307 
L 177.467434 145.786672 
L 174.757159 149.332899 
L 171.839115 152.710226 
L 168.723803 155.906498 
L 165.422437 158.910211 
L 161.946896 161.710557 
L 158.309689 164.297456 
L 154.523907 166.661598 
L 150.603173 168.794476 
L 146.561599 170.688413 
L 142.413729 172.336592 
L 138.174492 173.733083 
L 133.859144 174.87286 
L 129.483216 175.751819 
L 125.062456 176.366799 
L 124.607879 176.414776 
L 129.069121 176.551323 
L 133.514146 176.955138 
L 137.926959 177.624767 
L 142.291677 178.557802 
L 146.592592 179.750884 
L 150.814227 181.199719 
L 154.941386 182.899092 
L 158.959218 184.842889 
L 162.853262 187.024114 
L 166.609504 189.434916 
L 170.214425 192.066619 
L 173.655052 194.909752 
L 176.919002 197.954082 
L 179.994529 201.188654 
L 182.870563 204.601827 
L 184.134987 206.079223 
L 188.17173 210.452584 
L 192.380131 214.66102 
L 196.753459 218.697799 
L 201.284717 222.556462 
L 205.966656 226.230837 
L 210.791785 229.715045 
L 215.752386 233.003513 
L 220.840523 236.090979 
L 226.048055 238.972504 
L 231.366653 241.643478 
L 236.16 243.828479 
L 230.750192 246.309519 
L 225.588306 248.928 
L 220.27908 246.238446 
L 214.866548 243.763355 
L 209.359367 241.506688 
L 203.76635 239.472055 
L 198.096442 237.66271 
L 192.358716 236.081548 
L 186.562349 234.731098 
L 180.716615 233.613522 
L 174.830866 232.730607 
L 168.914518 232.083765 
L 162.977035 231.674031 
L 157.027917 231.502062 
L 151.07668 231.568131 
L 145.132846 231.872133 
L 139.205924 232.413581 
L 133.305394 233.191611 
L 127.440697 234.204976 
L 121.621215 235.452056 
L 115.856258 236.930856 
L 110.155048 238.63901 
L 104.526706 240.573785 
L 98.980238 242.732086 
L 93.524514 245.11046 
L 88.168264 247.705103 
L 87.36 248.119906 
L 88.946026 248.928 
L 94.210583 246.152028 
L 99.35992 243.16775 
L 104.385798 239.97994 
L 109.280178 236.593699 
L 114.035229 233.014444 
L 118.643344 229.2479 
L 123.097152 225.300094 
L 127.389528 221.177341 
L 131.513603 216.886236 
L 135.462782 212.433645 
L 139.230745 207.82669 
L 145.66978 199.600217 
L 148.704406 196.327242 
L 151.929832 193.242125 
L 155.334449 190.355969 
L 158.906006 187.679161 
L 162.631648 185.221335 
L 166.497967 182.991335 
L 170.491048 180.997189 
L 174.596521 179.246072 
L 178.79961 177.744287 
L 183.085189 176.497238 
L 187.437835 175.509413 
L 191.841882 174.784369 
L 196.28148 174.324713 
L 198.958343 174.176935 
L 194.500209 173.961631 
L 190.063007 173.479388 
L 185.662707 172.73194 
L 181.315145 171.721977 
L 177.035968 170.453135 
L 172.840576 168.929979 
L 168.744068 167.157991 
L 164.761187 165.143549 
L 160.906267 162.893902 
L 157.193181 160.417147 
L 153.635294 157.722198 
L 150.245408 154.818752 
L 147.035725 151.717261 
L 144.017795 148.428884 
L 141.20248 144.965458 
L 140.485664 144.011732 
L 141.290019 145.263564 
L 143.550672 149.11204 
L 145.576487 153.089148 
L 147.360173 157.180576 
L 148.895311 161.371599 
L 150.176376 165.647133 
L 151.198758 169.991791 
L 151.958777 174.389937 
L 152.453698 178.825743 
L 152.681739 183.283244 
L 152.642081 187.746398 
L 152.334865 192.199143 
L 151.761198 196.625453 
L 150.923144 201.009399 
L 149.823719 205.335204 
L 148.564368 209.308962 
L 149.144238 207.938626 
L 151.0466 203.90101 
L 153.18765 199.984734 
L 155.559683 196.20389 
L 158.154162 192.572086 
L 160.96175 189.102394 
L 163.972342 185.807298 
L 167.175104 182.69866 
L 170.55851 179.787666 
L 174.110382 177.084792 
L 177.817937 174.599767 
L 181.667833 172.341533 
L 185.646214 170.318218 
L 189.738762 168.537104 
L 193.930749 167.0046 
L 197.922272 165.802743 
L 196.46368 166.096989 
L 192.056693 166.803941 
L 187.615244 167.245361 
L 183.155318 167.41966 
L 178.692966 167.32621 
L 174.244248 166.965347 
L 169.825173 166.338371 
L 165.451646 165.447538 
L 161.139408 164.296054 
L 156.903976 162.888062 
L 152.760595 161.228631 
L 148.724176 159.323732 
L 144.809246 157.180221 
L 141.029894 154.805813 
L 137.399722 152.209052 
L 134.155647 149.591286 
L 135.221429 150.62964 
L 138.291239 153.869638 
L 141.161241 157.287884 
L 143.821108 160.872075 
L 146.261265 164.609314 
L 148.472932 168.486149 
L 150.448148 172.488628 
L 152.179806 176.602346 
L 153.661672 180.8125 
L 154.888414 185.103936 
L 155.855617 189.46121 
L 156.5598 193.86864 
L 156.998428 198.310366 
L 157.169924 202.7704 
L 157.073669 207.232693 
L 156.742264 211.388037 
L 156.99839 209.922271 
L 157.941873 205.559799 
L 159.145249 201.261753 
L 160.604188 197.0436 
L 162.313439 192.920521 
L 164.266851 188.907355 
L 166.457393 185.018545 
L 168.877182 181.268086 
L 171.517509 177.669476 
L 174.368872 174.235667 
L 177.421009 170.979016 
L 180.662936 167.911243 
L 184.082985 165.043389 
L 187.668847 162.385776 
L 191.407619 159.947968 
L 195.025599 157.877478 
L 193.670844 158.49287 
L 189.536552 160.174819 
L 185.308844 161.605832 
L 181.002934 162.78076 
L 176.634318 163.695375 
L 172.21872 164.346383 
L 167.772031 164.731444 
L 163.310253 164.84917 
L 158.849445 164.699138 
L 154.405661 164.281888 
L 149.994893 163.598922 
L 145.633015 162.652698 
L 141.335725 161.446621 
L 137.11849 159.985031 
L 132.996486 158.273189 
L 119.724266 152.236408 
L 114.158304 150.128885 
L 108.512516 148.245627 
L 102.795934 146.589647 
L 97.017704 145.163593 
L 91.187068 143.969748 
L 87.36 143.317074 
L 93.219797 142.275749 
L 99.033265 141.000927 
L 104.791104 139.494648 
L 110.484102 137.759322 
L 116.103151 135.797725 
L 121.639263 133.612995 
L 127.083581 131.208627 
L 132.427395 128.588468 
L 137.662155 125.756709 
L 142.779489 122.71788 
L 147.771208 119.476844 
L 152.629328 116.038784 
L 157.346076 112.409202 
L 161.913907 108.593903 
L 166.325512 104.598991 
L 170.869572 100.128 
L 175.106021 104.308202 
L 179.506244 108.315647 
L 184.063202 112.143925 
L 188.769606 115.786911 
L 193.617925 119.238777 
L 198.600405 122.494 
L 203.709073 125.547374 
L 208.935757 128.394013 
L 214.272095 131.029364 
L 219.709551 133.44921 
L 225.239425 135.64968 
L 230.852872 137.627254 
L 236.16 139.269216 
L 230.476647 141.035875 
L 224.868488 143.028394 
L 219.344495 145.243586 
L 213.913504 147.677907 
L 208.584204 150.327463 
L 203.365121 153.188014 
L 198.264604 156.254984 
L 195.20166 158.233971 
L 200.810804 156.244227 
L 206.335894 154.031769 
L 211.768088 151.600136 
L 217.098699 148.953219 
L 222.319197 146.095251 
L 227.421231 143.030804 
L 232.396638 139.764782 
L 236.16 137.098584 
L 243.202123 134.698746 
L 250.182056 132.123624 
L 257.095436 129.374826 
L 263.937943 126.454071 
L 270.705301 123.363183 
L 277.39328 120.104095 
L 283.9977 116.678843 
L 290.514435 113.089569 
L 296.93941 109.338514 
L 303.268611 105.428024 
L 309.498082 101.360543 
L 311.320582 100.128 
L 317.519813 104.241424 
L 323.819931 108.198599 
L 330.216999 111.99705 
L 336.70702 115.634405 
L 343.285937 119.108389 
L 349.949639 122.416831 
L 356.693961 125.557665 
L 363.514688 128.528927 
L 370.407558 131.32876 
L 377.368262 133.955414 
L 384.96 136.596795 
L 377.930896 139.034501 
L 370.964924 141.647154 
L 364.066439 144.433123 
L 357.239751 147.390664 
L 350.489128 150.517932 
L 343.818787 153.812969 
L 337.232899 157.273719 
L 330.735577 160.898017 
L 326.445372 163.483152 
L 321.29324 166.462601 
L 316.026083 169.233638 
L 310.652328 171.791827 
L 305.180571 174.133077 
L 299.619565 176.253643 
L 293.978208 178.150131 
L 288.83875 179.663143 
L 290.299685 179.380664 
L 296.169477 178.397243 
L 302.073901 177.649338 
L 308.00351 177.138145 
L 313.948818 176.864481 
L 319.900314 176.828786 
L 325.848477 177.031115 
L 331.783791 177.471146 
L 332.673417 177.557717 
L 326.831531 176.420198 
L 321.039807 175.049975 
L 315.30751 173.449242 
L 309.64381 171.620558 
L 304.057768 169.566849 
L 298.558321 167.291401 
L 293.154267 164.797854 
L 288.311804 162.50685 
L 281.487617 159.543544 
L 274.591487 156.751751 
L 267.627724 154.133216 
L 260.600681 151.689576 
L 253.514749 149.422356 
L 246.374356 147.332975 
L 239.183966 145.422738 
L 236.16 144.676521 
L 243.369989 142.841642 
L 250.531857 140.827105 
L 257.641129 138.63417 
L 264.693363 136.264207 
L 271.684149 133.718697 
L 278.60912 130.999231 
L 285.463947 128.107509 
L 292.244347 125.045337 
L 298.946082 121.81463 
L 305.564963 118.417406 
L 312.096854 114.85579 
L 318.537673 111.132006 
L 324.883395 107.248381 
L 331.130053 103.207344 
L 335.67077 100.128 
L 341.841872 104.283505 
L 348.114922 108.283451 
L 354.485999 112.125336 
L 360.951123 115.806761 
L 367.506253 119.325424 
L 374.147292 122.679127 
L 380.87009 125.865772 
L 384.96 127.704996 
L 378.189949 130.789979 
L 371.499129 134.043232 
L 364.891724 137.462722 
L 358.371861 141.046311 
L 351.943616 144.791759 
L 345.611007 148.696727 
L 339.37799 152.758773 
L 333.248462 156.975359 
L 328.085552 160.706371 
L 328.085552 160.706371 
" style="fill:none;stroke:#1f77b4;stroke-linecap:square;stroke-width:1.5;"/>
   </g>
   <g id="patch_5">
    <path d="M 57.6 263.808 
L 57.6 85.248 
" style="fill:none;stroke:#000000;stroke-linecap:square;stroke-linejoin:miter;stroke-width:0.8;"/>
   </g>
   <g id="patch_6">
    <path d="M 414.72 263.808 
L 414.72 85.248 
" style="fill:none;stroke:#000000;stroke-linecap:square;stroke-linejoin:miter;stroke-width:0.8;"/>
   </g>
   <g id="patch_7">
    <path d="M 57.6 263.808 
L 414.72 263.808 
" style="fill:none;stroke:#000000;stroke-linecap:square;stroke-linejoin:miter;stroke-width:0.8;"/>
   </g>
   <g id="patch_8">
    <path d="M 57.6 85.248 
L 414.72 85.248 
" style="fill:none;stroke:#000000;stroke-linecap:square;stroke-linejoin:miter;stroke-width:0.8;"/>
   </g>
  </g>
 </g>
 <defs>
  <clipPath id="p2fd3bd7146">
   <rect height="178.56" width="357.12" x="57.6" y="85.248"/>
  </clipPath>
 </defs>
</svg>
