<?xml version="1.0" encoding="utf-8" standalone="no"?>
<!DOCTYPE svg PUBLIC "-//W3C//DTD SVG 1.1//EN"
  "http://www.w3.org/Graphics/SVG/1.1/DTD/svg11.dtd">
<!-- Created with matplotlib (http://matplotlib.org/) -->
<svg height="345.6pt" version="1.1" viewBox="0 0 460.8 345.6" width="460.8pt" xmlns="http://www.w3.org/2000/svg" xmlns:xlink="http://www.w3.org/1999/xlink">
 <defs>
  <style type="text/css">
*{stroke-linecap:butt;stroke-linejoin:round;}
  </style>
 </defs>
 <g id="figure_1">
  <g id="patch_1">
   <path d="M 0 345.6 
L 460.8 345.6 
L 460.8 0 
L 0 0 
z
" style="fill:#ffffff;"/>
  </g>
  <g id="axes_1">
   <g id="patch_2">
    <path d="M 57.6 248.423567 
L 414.72 248.423567 
L 414.72 100.632433 
L 57.6 100.632433 
z
" style="fill:#ffffff;"/>
   </g>
   <g id="PathCollection_1">
    <defs>
     <path d="M 0 3 
C 0.795609 3 1.55874 2.683901 2.12132 2.12132 
C 2.683901 1.55874 3 0.795609 3 0 
C 3 -0.795609 2.683901 -1.55874 2.12132 -2.12132 
C 1.55874 -2.683901 0.795609 -3 0 -3 
C -0.795609 -3 -1.55874 -2.683901 -2.12132 -2.12132 
C -2.683901 -1.55874 -3 -0.795609 -3 0 
C -3 0.795609 -2.683901 1.55874 -2.12132 2.12132 
C -1.55874 2.683901 -0.795609 3 0 3 
z
" id="m19abae5f39" style="stroke:#000000;"/>
    </defs>
    <g clip-path="url(#p86d7d6c014)">
     <use style="stroke:#000000;" x="82.811933" xlink:href="#m19abae5f39" y="194.721964"/>
    </g>
   </g>
   <g id="PathCollection_2">
    <defs>
     <path d="M 0 2.738613 
C 0.726289 2.738613 1.422928 2.450055 1.936492 1.936492 
C 2.450055 1.422928 2.738613 0.726289 2.738613 0 
C 2.738613 -0.726289 2.450055 -1.422928 1.936492 -1.936492 
C 1.422928 -2.450055 0.726289 -2.738613 0 -2.738613 
C -0.726289 -2.738613 -1.422928 -2.450055 -1.936492 -1.936492 
C -2.450055 -1.422928 -2.738613 -0.726289 -2.738613 0 
C -2.738613 0.726289 -2.450055 1.422928 -1.936492 1.936492 
C -1.422928 2.450055 -0.726289 2.738613 0 2.738613 
z
" id="mb332ae1126" style="stroke:#000000;"/>
    </defs>
    <g clip-path="url(#p86d7d6c014)">
     <use style="stroke:#000000;" x="285.849734" xlink:href="#mb332ae1126" y="113.2384"/>
    </g>
   </g>
   <g id="Quiver_1">
    <path clip-path="url(#p86d7d6c014)" d="M 285.25966 113.908403 
L 269.84958 100.336705 
L 269.339436 102.266785 
L 264.409622 94.356036 
L 272.879879 98.246764 
L 271.029728 98.996698 
L 286.439808 112.568396 
L 285.25966 113.908403 
"/>
   </g>
   <g id="patch_3">
    <path clip-path="url(#p86d7d6c014)" d="M 90.14412 247.563005 
C 91.815691 247.563005 93.419024 246.898883 94.601003 245.716904 
C 95.782982 244.534925 96.447104 242.931592 96.447104 241.260022 
C 96.447104 239.588451 95.782982 237.985118 94.601003 236.803139 
C 93.419024 235.62116 91.815691 234.957038 90.14412 234.957038 
C 88.47255 234.957038 86.869217 235.62116 85.687238 236.803139 
C 84.505259 237.985118 83.841137 239.588451 83.841137 241.260022 
C 83.841137 242.931592 84.505259 244.534925 85.687238 245.716904 
C 86.869217 246.898883 88.47255 247.563005 90.14412 247.563005 
z
" style="fill:#9558b2;fill-opacity:0.5;stroke:#9558b2;stroke-linejoin:miter;stroke-width:2;"/>
   </g>
   <g id="patch_4">
    <path clip-path="url(#p86d7d6c014)" d="M 115.356054 244.411513 
C 116.191839 244.411513 116.993505 244.079452 117.584495 243.488463 
C 118.175484 242.897473 118.507545 242.095807 118.507545 241.260022 
C 118.507545 240.424236 118.175484 239.62257 117.584495 239.03158 
C 116.993505 238.440591 116.191839 238.10853 115.356054 238.10853 
C 114.520268 238.10853 113.718602 238.440591 113.127612 239.03158 
C 112.536623 239.62257 112.204562 240.424236 112.204562 241.260022 
C 112.204562 242.095807 112.536623 242.897473 113.127612 243.488463 
C 113.718602 244.079452 114.520268 244.411513 115.356054 244.411513 
z
" style="fill:#009900;fill-opacity:0.5;stroke:#009900;stroke-linejoin:miter;stroke-width:2;"/>
   </g>
   <g id="patch_5">
    <path clip-path="url(#p86d7d6c014)" d="M 90.14412 222.351072 
C 91.815691 222.351072 93.419024 221.686949 94.601003 220.50497 
C 95.782982 219.322991 96.447104 217.719659 96.447104 216.048088 
C 96.447104 214.376518 95.782982 212.773185 94.601003 211.591206 
C 93.419024 210.409227 91.815691 209.745105 90.14412 209.745105 
C 88.47255 209.745105 86.869217 210.409227 85.687238 211.591206 
C 84.505259 212.773185 83.841137 214.376518 83.841137 216.048088 
C 83.841137 217.719659 84.505259 219.322991 85.687238 220.50497 
C 86.869217 221.686949 88.47255 222.351072 90.14412 222.351072 
z
" style="fill:#9558b2;fill-opacity:0.5;stroke:#9558b2;stroke-linejoin:miter;stroke-width:2;"/>
   </g>
   <g id="patch_6">
    <path clip-path="url(#p86d7d6c014)" d="M 115.356054 219.19958 
C 116.191839 219.19958 116.993505 218.867519 117.584495 218.276529 
C 118.175484 217.68554 118.507545 216.883874 118.507545 216.048088 
C 118.507545 215.212303 118.175484 214.410637 117.584495 213.819647 
C 116.993505 213.228658 116.191839 212.896597 115.356054 212.896597 
C 114.520268 212.896597 113.718602 213.228658 113.127612 213.819647 
C 112.536623 214.410637 112.204562 215.212303 112.204562 216.048088 
C 112.204562 216.883874 112.536623 217.68554 113.127612 218.276529 
C 113.718602 218.867519 114.520268 219.19958 115.356054 219.19958 
z
" style="fill:#009900;fill-opacity:0.5;stroke:#009900;stroke-linejoin:miter;stroke-width:2;"/>
   </g>
   <g id="patch_7">
    <path clip-path="url(#p86d7d6c014)" d="M 90.14412 197.139138 
C 91.815691 197.139138 93.419024 196.475016 94.601003 195.293037 
C 95.782982 194.111058 96.447104 192.507726 96.447104 190.836155 
C 96.447104 189.164584 95.782982 187.561252 94.601003 186.379273 
C 93.419024 185.197294 91.815691 184.533172 90.14412 184.533172 
C 88.47255 184.533172 86.869217 185.197294 85.687238 186.379273 
C 84.505259 187.561252 83.841137 189.164584 83.841137 190.836155 
C 83.841137 192.507726 84.505259 194.111058 85.687238 195.293037 
C 86.869217 196.475016 88.47255 197.139138 90.14412 197.139138 
z
" style="fill:#9558b2;fill-opacity:0.5;stroke:#9558b2;stroke-linejoin:miter;stroke-width:2;"/>
   </g>
   <g id="patch_8">
    <path clip-path="url(#p86d7d6c014)" d="M 115.356054 193.987647 
C 116.191839 193.987647 116.993505 193.655586 117.584495 193.064596 
C 118.175484 192.473607 118.507545 191.67194 118.507545 190.836155 
C 118.507545 190.00037 118.175484 189.198703 117.584495 188.607714 
C 116.993505 188.016724 116.191839 187.684663 115.356054 187.684663 
C 114.520268 187.684663 113.718602 188.016724 113.127612 188.607714 
C 112.536623 189.198703 112.204562 190.00037 112.204562 190.836155 
C 112.204562 191.67194 112.536623 192.473607 113.127612 193.064596 
C 113.718602 193.655586 114.520268 193.987647 115.356054 193.987647 
z
" style="fill:#009900;fill-opacity:0.5;stroke:#009900;stroke-linejoin:miter;stroke-width:2;"/>
   </g>
   <g id="patch_9">
    <path clip-path="url(#p86d7d6c014)" d="M 90.14412 171.927205 
C 91.815691 171.927205 93.419024 171.263083 94.601003 170.081104 
C 95.782982 168.899125 96.447104 167.295792 96.447104 165.624222 
C 96.447104 163.952651 95.782982 162.349318 94.601003 161.167339 
C 93.419024 159.98536 91.815691 159.321238 90.14412 159.321238 
C 88.47255 159.321238 86.869217 159.98536 85.687238 161.167339 
C 84.505259 162.349318 83.841137 163.952651 83.841137 165.624222 
C 83.841137 167.295792 84.505259 168.899125 85.687238 170.081104 
C 86.869217 171.263083 88.47255 171.927205 90.14412 171.927205 
z
" style="fill:#9558b2;fill-opacity:0.5;stroke:#9558b2;stroke-linejoin:miter;stroke-width:2;"/>
   </g>
   <g id="patch_10">
    <path clip-path="url(#p86d7d6c014)" d="M 115.356054 168.775713 
C 116.191839 168.775713 116.993505 168.443652 117.584495 167.852663 
C 118.175484 167.261673 118.507545 166.460007 118.507545 165.624222 
C 118.507545 164.788436 118.175484 163.98677 117.584495 163.395781 
C 116.993505 162.804791 116.191839 162.47273 115.356054 162.47273 
C 114.520268 162.47273 113.718602 162.804791 113.127612 163.395781 
C 112.536623 163.98677 112.204562 164.788436 112.204562 165.624222 
C 112.204562 166.460007 112.536623 167.261673 113.127612 167.852663 
C 113.718602 168.443652 114.520268 168.775713 115.356054 168.775713 
z
" style="fill:#009900;fill-opacity:0.5;stroke:#009900;stroke-linejoin:miter;stroke-width:2;"/>
   </g>
   <g id="patch_11">
    <path clip-path="url(#p86d7d6c014)" d="M 90.14412 146.715272 
C 91.815691 146.715272 93.419024 146.05115 94.601003 144.869171 
C 95.782982 143.687192 96.447104 142.083859 96.447104 140.412288 
C 96.447104 138.740718 95.782982 137.137385 94.601003 135.955406 
C 93.419024 134.773427 91.815691 134.109305 90.14412 134.109305 
C 88.47255 134.109305 86.869217 134.773427 85.687238 135.955406 
C 84.505259 137.137385 83.841137 138.740718 83.841137 140.412288 
C 83.841137 142.083859 84.505259 143.687192 85.687238 144.869171 
C 86.869217 146.05115 88.47255 146.715272 90.14412 146.715272 
z
" style="fill:#9558b2;fill-opacity:0.5;stroke:#9558b2;stroke-linejoin:miter;stroke-width:2;"/>
   </g>
   <g id="patch_12">
    <path clip-path="url(#p86d7d6c014)" d="M 115.356054 143.56378 
C 116.191839 143.56378 116.993505 143.231719 117.584495 142.640729 
C 118.175484 142.04974 118.507545 141.248074 118.507545 140.412288 
C 118.507545 139.576503 118.175484 138.774837 117.584495 138.183847 
C 116.993505 137.592858 116.191839 137.260797 115.356054 137.260797 
C 114.520268 137.260797 113.718602 137.592858 113.127612 138.183847 
C 112.536623 138.774837 112.204562 139.576503 112.204562 140.412288 
C 112.204562 141.248074 112.536623 142.04974 113.127612 142.640729 
C 113.718602 143.231719 114.520268 143.56378 115.356054 143.56378 
z
" style="fill:#009900;fill-opacity:0.5;stroke:#009900;stroke-linejoin:miter;stroke-width:2;"/>
   </g>
   <g id="patch_13">
    <path clip-path="url(#p86d7d6c014)" d="M 90.14412 121.503338 
C 91.815691 121.503338 93.419024 120.839216 94.601003 119.657237 
C 95.782982 118.475258 96.447104 116.871926 96.447104 115.200355 
C 96.447104 113.528784 95.782982 111.925452 94.601003 110.743473 
C 93.419024 109.561494 91.815691 108.897372 90.14412 108.897372 
C 88.47255 108.897372 86.869217 109.561494 85.687238 110.743473 
C 84.505259 111.925452 83.841137 113.528784 83.841137 115.200355 
C 83.841137 116.871926 84.505259 118.475258 85.687238 119.657237 
C 86.869217 120.839216 88.47255 121.503338 90.14412 121.503338 
z
" style="fill:#9558b2;fill-opacity:0.5;stroke:#9558b2;stroke-linejoin:miter;stroke-width:2;"/>
   </g>
   <g id="patch_14">
    <path clip-path="url(#p86d7d6c014)" d="M 115.356054 118.351847 
C 116.191839 118.351847 116.993505 118.019786 117.584495 117.428796 
C 118.175484 116.837807 118.507545 116.03614 118.507545 115.200355 
C 118.507545 114.36457 118.175484 113.562903 117.584495 112.971914 
C 116.993505 112.380924 116.191839 112.048863 115.356054 112.048863 
C 114.520268 112.048863 113.718602 112.380924 113.127612 112.971914 
C 112.536623 113.562903 112.204562 114.36457 112.204562 115.200355 
C 112.204562 116.03614 112.536623 116.837807 113.127612 117.428796 
C 113.718602 118.019786 114.520268 118.351847 115.356054 118.351847 
z
" style="fill:#009900;fill-opacity:0.5;stroke:#009900;stroke-linejoin:miter;stroke-width:2;"/>
   </g>
   <g id="patch_15">
    <path clip-path="url(#p86d7d6c014)" d="M 140.567987 247.563005 
C 142.239558 247.563005 143.84289 246.898883 145.024869 245.716904 
C 146.206848 244.534925 146.87097 242.931592 146.87097 241.260022 
C 146.87097 239.588451 146.206848 237.985118 145.024869 236.803139 
C 143.84289 235.62116 142.239558 234.957038 140.567987 234.957038 
C 138.896416 234.957038 137.293084 235.62116 136.111105 236.803139 
C 134.929126 237.985118 134.265004 239.588451 134.265004 241.260022 
C 134.265004 242.931592 134.929126 244.534925 136.111105 245.716904 
C 137.293084 246.898883 138.896416 247.563005 140.567987 247.563005 
z
" style="fill:#9558b2;fill-opacity:0.5;stroke:#9558b2;stroke-linejoin:miter;stroke-width:2;"/>
   </g>
   <g id="patch_16">
    <path clip-path="url(#p86d7d6c014)" d="M 165.77992 244.411513 
C 166.615705 244.411513 167.417372 244.079452 168.008361 243.488463 
C 168.599351 242.897473 168.931412 242.095807 168.931412 241.260022 
C 168.931412 240.424236 168.599351 239.62257 168.008361 239.03158 
C 167.417372 238.440591 166.615705 238.10853 165.77992 238.10853 
C 164.944135 238.10853 164.142468 238.440591 163.551479 239.03158 
C 162.96049 239.62257 162.628428 240.424236 162.628428 241.260022 
C 162.628428 242.095807 162.96049 242.897473 163.551479 243.488463 
C 164.142468 244.079452 164.944135 244.411513 165.77992 244.411513 
z
" style="fill:#009900;fill-opacity:0.5;stroke:#009900;stroke-linejoin:miter;stroke-width:2;"/>
   </g>
   <g id="patch_17">
    <path clip-path="url(#p86d7d6c014)" d="M 140.567987 222.351072 
C 142.239558 222.351072 143.84289 221.686949 145.024869 220.50497 
C 146.206848 219.322991 146.87097 217.719659 146.87097 216.048088 
C 146.87097 214.376518 146.206848 212.773185 145.024869 211.591206 
C 143.84289 210.409227 142.239558 209.745105 140.567987 209.745105 
C 138.896416 209.745105 137.293084 210.409227 136.111105 211.591206 
C 134.929126 212.773185 134.265004 214.376518 134.265004 216.048088 
C 134.265004 217.719659 134.929126 219.322991 136.111105 220.50497 
C 137.293084 221.686949 138.896416 222.351072 140.567987 222.351072 
z
" style="fill:#9558b2;fill-opacity:0.5;stroke:#9558b2;stroke-linejoin:miter;stroke-width:2;"/>
   </g>
   <g id="patch_18">
    <path clip-path="url(#p86d7d6c014)" d="M 165.77992 219.19958 
C 166.615705 219.19958 167.417372 218.867519 168.008361 218.276529 
C 168.599351 217.68554 168.931412 216.883874 168.931412 216.048088 
C 168.931412 215.212303 168.599351 214.410637 168.008361 213.819647 
C 167.417372 213.228658 166.615705 212.896597 165.77992 212.896597 
C 164.944135 212.896597 164.142468 213.228658 163.551479 213.819647 
C 162.96049 214.410637 162.628428 215.212303 162.628428 216.048088 
C 162.628428 216.883874 162.96049 217.68554 163.551479 218.276529 
C 164.142468 218.867519 164.944135 219.19958 165.77992 219.19958 
z
" style="fill:#009900;fill-opacity:0.5;stroke:#009900;stroke-linejoin:miter;stroke-width:2;"/>
   </g>
   <g id="patch_19">
    <path clip-path="url(#p86d7d6c014)" d="M 140.567987 197.139138 
C 142.239558 197.139138 143.84289 196.475016 145.024869 195.293037 
C 146.206848 194.111058 146.87097 192.507726 146.87097 190.836155 
C 146.87097 189.164584 146.206848 187.561252 145.024869 186.379273 
C 143.84289 185.197294 142.239558 184.533172 140.567987 184.533172 
C 138.896416 184.533172 137.293084 185.197294 136.111105 186.379273 
C 134.929126 187.561252 134.265004 189.164584 134.265004 190.836155 
C 134.265004 192.507726 134.929126 194.111058 136.111105 195.293037 
C 137.293084 196.475016 138.896416 197.139138 140.567987 197.139138 
z
" style="fill:#9558b2;fill-opacity:0.5;stroke:#9558b2;stroke-linejoin:miter;stroke-width:2;"/>
   </g>
   <g id="patch_20">
    <path clip-path="url(#p86d7d6c014)" d="M 165.77992 193.987647 
C 166.615705 193.987647 167.417372 193.655586 168.008361 193.064596 
C 168.599351 192.473607 168.931412 191.67194 168.931412 190.836155 
C 168.931412 190.00037 168.599351 189.198703 168.008361 188.607714 
C 167.417372 188.016724 166.615705 187.684663 165.77992 187.684663 
C 164.944135 187.684663 164.142468 188.016724 163.551479 188.607714 
C 162.96049 189.198703 162.628428 190.00037 162.628428 190.836155 
C 162.628428 191.67194 162.96049 192.473607 163.551479 193.064596 
C 164.142468 193.655586 164.944135 193.987647 165.77992 193.987647 
z
" style="fill:#009900;fill-opacity:0.5;stroke:#009900;stroke-linejoin:miter;stroke-width:2;"/>
   </g>
   <g id="patch_21">
    <path clip-path="url(#p86d7d6c014)" d="M 140.567987 171.927205 
C 142.239558 171.927205 143.84289 171.263083 145.024869 170.081104 
C 146.206848 168.899125 146.87097 167.295792 146.87097 165.624222 
C 146.87097 163.952651 146.206848 162.349318 145.024869 161.167339 
C 143.84289 159.98536 142.239558 159.321238 140.567987 159.321238 
C 138.896416 159.321238 137.293084 159.98536 136.111105 161.167339 
C 134.929126 162.349318 134.265004 163.952651 134.265004 165.624222 
C 134.265004 167.295792 134.929126 168.899125 136.111105 170.081104 
C 137.293084 171.263083 138.896416 171.927205 140.567987 171.927205 
z
" style="fill:#9558b2;fill-opacity:0.5;stroke:#9558b2;stroke-linejoin:miter;stroke-width:2;"/>
   </g>
   <g id="patch_22">
    <path clip-path="url(#p86d7d6c014)" d="M 165.77992 168.775713 
C 166.615705 168.775713 167.417372 168.443652 168.008361 167.852663 
C 168.599351 167.261673 168.931412 166.460007 168.931412 165.624222 
C 168.931412 164.788436 168.599351 163.98677 168.008361 163.395781 
C 167.417372 162.804791 166.615705 162.47273 165.77992 162.47273 
C 164.944135 162.47273 164.142468 162.804791 163.551479 163.395781 
C 162.96049 163.98677 162.628428 164.788436 162.628428 165.624222 
C 162.628428 166.460007 162.96049 167.261673 163.551479 167.852663 
C 164.142468 168.443652 164.944135 168.775713 165.77992 168.775713 
z
" style="fill:#009900;fill-opacity:0.5;stroke:#009900;stroke-linejoin:miter;stroke-width:2;"/>
   </g>
   <g id="patch_23">
    <path clip-path="url(#p86d7d6c014)" d="M 140.567987 146.715272 
C 142.239558 146.715272 143.84289 146.05115 145.024869 144.869171 
C 146.206848 143.687192 146.87097 142.083859 146.87097 140.412288 
C 146.87097 138.740718 146.206848 137.137385 145.024869 135.955406 
C 143.84289 134.773427 142.239558 134.109305 140.567987 134.109305 
C 138.896416 134.109305 137.293084 134.773427 136.111105 135.955406 
C 134.929126 137.137385 134.265004 138.740718 134.265004 140.412288 
C 134.265004 142.083859 134.929126 143.687192 136.111105 144.869171 
C 137.293084 146.05115 138.896416 146.715272 140.567987 146.715272 
z
" style="fill:#9558b2;fill-opacity:0.5;stroke:#9558b2;stroke-linejoin:miter;stroke-width:2;"/>
   </g>
   <g id="patch_24">
    <path clip-path="url(#p86d7d6c014)" d="M 165.77992 143.56378 
C 166.615705 143.56378 167.417372 143.231719 168.008361 142.640729 
C 168.599351 142.04974 168.931412 141.248074 168.931412 140.412288 
C 168.931412 139.576503 168.599351 138.774837 168.008361 138.183847 
C 167.417372 137.592858 166.615705 137.260797 165.77992 137.260797 
C 164.944135 137.260797 164.142468 137.592858 163.551479 138.183847 
C 162.96049 138.774837 162.628428 139.576503 162.628428 140.412288 
C 162.628428 141.248074 162.96049 142.04974 163.551479 142.640729 
C 164.142468 143.231719 164.944135 143.56378 165.77992 143.56378 
z
" style="fill:#009900;fill-opacity:0.5;stroke:#009900;stroke-linejoin:miter;stroke-width:2;"/>
   </g>
   <g id="patch_25">
    <path clip-path="url(#p86d7d6c014)" d="M 140.567987 121.503338 
C 142.239558 121.503338 143.84289 120.839216 145.024869 119.657237 
C 146.206848 118.475258 146.87097 116.871926 146.87097 115.200355 
C 146.87097 113.528784 146.206848 111.925452 145.024869 110.743473 
C 143.84289 109.561494 142.239558 108.897372 140.567987 108.897372 
C 138.896416 108.897372 137.293084 109.561494 136.111105 110.743473 
C 134.929126 111.925452 134.265004 113.528784 134.265004 115.200355 
C 134.265004 116.871926 134.929126 118.475258 136.111105 119.657237 
C 137.293084 120.839216 138.896416 121.503338 140.567987 121.503338 
z
" style="fill:#9558b2;fill-opacity:0.5;stroke:#9558b2;stroke-linejoin:miter;stroke-width:2;"/>
   </g>
   <g id="patch_26">
    <path clip-path="url(#p86d7d6c014)" d="M 165.77992 118.351847 
C 166.615705 118.351847 167.417372 118.019786 168.008361 117.428796 
C 168.599351 116.837807 168.931412 116.03614 168.931412 115.200355 
C 168.931412 114.36457 168.599351 113.562903 168.008361 112.971914 
C 167.417372 112.380924 166.615705 112.048863 165.77992 112.048863 
C 164.944135 112.048863 164.142468 112.380924 163.551479 112.971914 
C 162.96049 113.562903 162.628428 114.36457 162.628428 115.200355 
C 162.628428 116.03614 162.96049 116.837807 163.551479 117.428796 
C 164.142468 118.019786 164.944135 118.351847 165.77992 118.351847 
z
" style="fill:#009900;fill-opacity:0.5;stroke:#009900;stroke-linejoin:miter;stroke-width:2;"/>
   </g>
   <g id="patch_27">
    <path clip-path="url(#p86d7d6c014)" d="M 190.991853 247.563005 
C 192.663424 247.563005 194.266757 246.898883 195.448736 245.716904 
C 196.630715 244.534925 197.294837 242.931592 197.294837 241.260022 
C 197.294837 239.588451 196.630715 237.985118 195.448736 236.803139 
C 194.266757 235.62116 192.663424 234.957038 190.991853 234.957038 
C 189.320283 234.957038 187.71695 235.62116 186.534971 236.803139 
C 185.352992 237.985118 184.68887 239.588451 184.68887 241.260022 
C 184.68887 242.931592 185.352992 244.534925 186.534971 245.716904 
C 187.71695 246.898883 189.320283 247.563005 190.991853 247.563005 
z
" style="fill:#9558b2;fill-opacity:0.5;stroke:#9558b2;stroke-linejoin:miter;stroke-width:2;"/>
   </g>
   <g id="patch_28">
    <path clip-path="url(#p86d7d6c014)" d="M 216.203787 244.411513 
C 217.039572 244.411513 217.841238 244.079452 218.432228 243.488463 
C 219.023217 242.897473 219.355278 242.095807 219.355278 241.260022 
C 219.355278 240.424236 219.023217 239.62257 218.432228 239.03158 
C 217.841238 238.440591 217.039572 238.10853 216.203787 238.10853 
C 215.368001 238.10853 214.566335 238.440591 213.975346 239.03158 
C 213.384356 239.62257 213.052295 240.424236 213.052295 241.260022 
C 213.052295 242.095807 213.384356 242.897473 213.975346 243.488463 
C 214.566335 244.079452 215.368001 244.411513 216.203787 244.411513 
z
" style="fill:#009900;fill-opacity:0.5;stroke:#009900;stroke-linejoin:miter;stroke-width:2;"/>
   </g>
   <g id="patch_29">
    <path clip-path="url(#p86d7d6c014)" d="M 190.991853 222.351072 
C 192.663424 222.351072 194.266757 221.686949 195.448736 220.50497 
C 196.630715 219.322991 197.294837 217.719659 197.294837 216.048088 
C 197.294837 214.376518 196.630715 212.773185 195.448736 211.591206 
C 194.266757 210.409227 192.663424 209.745105 190.991853 209.745105 
C 189.320283 209.745105 187.71695 210.409227 186.534971 211.591206 
C 185.352992 212.773185 184.68887 214.376518 184.68887 216.048088 
C 184.68887 217.719659 185.352992 219.322991 186.534971 220.50497 
C 187.71695 221.686949 189.320283 222.351072 190.991853 222.351072 
z
" style="fill:#9558b2;fill-opacity:0.5;stroke:#9558b2;stroke-linejoin:miter;stroke-width:2;"/>
   </g>
   <g id="patch_30">
    <path clip-path="url(#p86d7d6c014)" d="M 216.203787 219.19958 
C 217.039572 219.19958 217.841238 218.867519 218.432228 218.276529 
C 219.023217 217.68554 219.355278 216.883874 219.355278 216.048088 
C 219.355278 215.212303 219.023217 214.410637 218.432228 213.819647 
C 217.841238 213.228658 217.039572 212.896597 216.203787 212.896597 
C 215.368001 212.896597 214.566335 213.228658 213.975346 213.819647 
C 213.384356 214.410637 213.052295 215.212303 213.052295 216.048088 
C 213.052295 216.883874 213.384356 217.68554 213.975346 218.276529 
C 214.566335 218.867519 215.368001 219.19958 216.203787 219.19958 
z
" style="fill:#009900;fill-opacity:0.5;stroke:#009900;stroke-linejoin:miter;stroke-width:2;"/>
   </g>
   <g id="patch_31">
    <path clip-path="url(#p86d7d6c014)" d="M 190.991853 197.139138 
C 192.663424 197.139138 194.266757 196.475016 195.448736 195.293037 
C 196.630715 194.111058 197.294837 192.507726 197.294837 190.836155 
C 197.294837 189.164584 196.630715 187.561252 195.448736 186.379273 
C 194.266757 185.197294 192.663424 184.533172 190.991853 184.533172 
C 189.320283 184.533172 187.71695 185.197294 186.534971 186.379273 
C 185.352992 187.561252 184.68887 189.164584 184.68887 190.836155 
C 184.68887 192.507726 185.352992 194.111058 186.534971 195.293037 
C 187.71695 196.475016 189.320283 197.139138 190.991853 197.139138 
z
" style="fill:#9558b2;fill-opacity:0.5;stroke:#9558b2;stroke-linejoin:miter;stroke-width:2;"/>
   </g>
   <g id="patch_32">
    <path clip-path="url(#p86d7d6c014)" d="M 216.203787 193.987647 
C 217.039572 193.987647 217.841238 193.655586 218.432228 193.064596 
C 219.023217 192.473607 219.355278 191.67194 219.355278 190.836155 
C 219.355278 190.00037 219.023217 189.198703 218.432228 188.607714 
C 217.841238 188.016724 217.039572 187.684663 216.203787 187.684663 
C 215.368001 187.684663 214.566335 188.016724 213.975346 188.607714 
C 213.384356 189.198703 213.052295 190.00037 213.052295 190.836155 
C 213.052295 191.67194 213.384356 192.473607 213.975346 193.064596 
C 214.566335 193.655586 215.368001 193.987647 216.203787 193.987647 
z
" style="fill:#009900;fill-opacity:0.5;stroke:#009900;stroke-linejoin:miter;stroke-width:2;"/>
   </g>
   <g id="patch_33">
    <path clip-path="url(#p86d7d6c014)" d="M 190.991853 171.927205 
C 192.663424 171.927205 194.266757 171.263083 195.448736 170.081104 
C 196.630715 168.899125 197.294837 167.295792 197.294837 165.624222 
C 197.294837 163.952651 196.630715 162.349318 195.448736 161.167339 
C 194.266757 159.98536 192.663424 159.321238 190.991853 159.321238 
C 189.320283 159.321238 187.71695 159.98536 186.534971 161.167339 
C 185.352992 162.349318 184.68887 163.952651 184.68887 165.624222 
C 184.68887 167.295792 185.352992 168.899125 186.534971 170.081104 
C 187.71695 171.263083 189.320283 171.927205 190.991853 171.927205 
z
" style="fill:#9558b2;fill-opacity:0.5;stroke:#9558b2;stroke-linejoin:miter;stroke-width:2;"/>
   </g>
   <g id="patch_34">
    <path clip-path="url(#p86d7d6c014)" d="M 216.203787 168.775713 
C 217.039572 168.775713 217.841238 168.443652 218.432228 167.852663 
C 219.023217 167.261673 219.355278 166.460007 219.355278 165.624222 
C 219.355278 164.788436 219.023217 163.98677 218.432228 163.395781 
C 217.841238 162.804791 217.039572 162.47273 216.203787 162.47273 
C 215.368001 162.47273 214.566335 162.804791 213.975346 163.395781 
C 213.384356 163.98677 213.052295 164.788436 213.052295 165.624222 
C 213.052295 166.460007 213.384356 167.261673 213.975346 167.852663 
C 214.566335 168.443652 215.368001 168.775713 216.203787 168.775713 
z
" style="fill:#009900;fill-opacity:0.5;stroke:#009900;stroke-linejoin:miter;stroke-width:2;"/>
   </g>
   <g id="patch_35">
    <path clip-path="url(#p86d7d6c014)" d="M 190.991853 146.715272 
C 192.663424 146.715272 194.266757 146.05115 195.448736 144.869171 
C 196.630715 143.687192 197.294837 142.083859 197.294837 140.412288 
C 197.294837 138.740718 196.630715 137.137385 195.448736 135.955406 
C 194.266757 134.773427 192.663424 134.109305 190.991853 134.109305 
C 189.320283 134.109305 187.71695 134.773427 186.534971 135.955406 
C 185.352992 137.137385 184.68887 138.740718 184.68887 140.412288 
C 184.68887 142.083859 185.352992 143.687192 186.534971 144.869171 
C 187.71695 146.05115 189.320283 146.715272 190.991853 146.715272 
z
" style="fill:#9558b2;fill-opacity:0.5;stroke:#9558b2;stroke-linejoin:miter;stroke-width:2;"/>
   </g>
   <g id="patch_36">
    <path clip-path="url(#p86d7d6c014)" d="M 216.203787 143.56378 
C 217.039572 143.56378 217.841238 143.231719 218.432228 142.640729 
C 219.023217 142.04974 219.355278 141.248074 219.355278 140.412288 
C 219.355278 139.576503 219.023217 138.774837 218.432228 138.183847 
C 217.841238 137.592858 217.039572 137.260797 216.203787 137.260797 
C 215.368001 137.260797 214.566335 137.592858 213.975346 138.183847 
C 213.384356 138.774837 213.052295 139.576503 213.052295 140.412288 
C 213.052295 141.248074 213.384356 142.04974 213.975346 142.640729 
C 214.566335 143.231719 215.368001 143.56378 216.203787 143.56378 
z
" style="fill:#009900;fill-opacity:0.5;stroke:#009900;stroke-linejoin:miter;stroke-width:2;"/>
   </g>
   <g id="patch_37">
    <path clip-path="url(#p86d7d6c014)" d="M 190.991853 121.503338 
C 192.663424 121.503338 194.266757 120.839216 195.448736 119.657237 
C 196.630715 118.475258 197.294837 116.871926 197.294837 115.200355 
C 197.294837 113.528784 196.630715 111.925452 195.448736 110.743473 
C 194.266757 109.561494 192.663424 108.897372 190.991853 108.897372 
C 189.320283 108.897372 187.71695 109.561494 186.534971 110.743473 
C 185.352992 111.925452 184.68887 113.528784 184.68887 115.200355 
C 184.68887 116.871926 185.352992 118.475258 186.534971 119.657237 
C 187.71695 120.839216 189.320283 121.503338 190.991853 121.503338 
z
" style="fill:#9558b2;fill-opacity:0.5;stroke:#9558b2;stroke-linejoin:miter;stroke-width:2;"/>
   </g>
   <g id="patch_38">
    <path clip-path="url(#p86d7d6c014)" d="M 216.203787 118.351847 
C 217.039572 118.351847 217.841238 118.019786 218.432228 117.428796 
C 219.023217 116.837807 219.355278 116.03614 219.355278 115.200355 
C 219.355278 114.36457 219.023217 113.562903 218.432228 112.971914 
C 217.841238 112.380924 217.039572 112.048863 216.203787 112.048863 
C 215.368001 112.048863 214.566335 112.380924 213.975346 112.971914 
C 213.384356 113.562903 213.052295 114.36457 213.052295 115.200355 
C 213.052295 116.03614 213.384356 116.837807 213.975346 117.428796 
C 214.566335 118.019786 215.368001 118.351847 216.203787 118.351847 
z
" style="fill:#009900;fill-opacity:0.5;stroke:#009900;stroke-linejoin:miter;stroke-width:2;"/>
   </g>
   <g id="patch_39">
    <path clip-path="url(#p86d7d6c014)" d="M 241.41572 247.563005 
C 243.087291 247.563005 244.690623 246.898883 245.872602 245.716904 
C 247.054581 244.534925 247.718703 242.931592 247.718703 241.260022 
C 247.718703 239.588451 247.054581 237.985118 245.872602 236.803139 
C 244.690623 235.62116 243.087291 234.957038 241.41572 234.957038 
C 239.744149 234.957038 238.140817 235.62116 236.958838 236.803139 
C 235.776859 237.985118 235.112737 239.588451 235.112737 241.260022 
C 235.112737 242.931592 235.776859 244.534925 236.958838 245.716904 
C 238.140817 246.898883 239.744149 247.563005 241.41572 247.563005 
z
" style="fill:#9558b2;fill-opacity:0.5;stroke:#9558b2;stroke-linejoin:miter;stroke-width:2;"/>
   </g>
   <g id="patch_40">
    <path clip-path="url(#p86d7d6c014)" d="M 266.627653 244.411513 
C 267.463439 244.411513 268.265105 244.079452 268.856094 243.488463 
C 269.447084 242.897473 269.779145 242.095807 269.779145 241.260022 
C 269.779145 240.424236 269.447084 239.62257 268.856094 239.03158 
C 268.265105 238.440591 267.463439 238.10853 266.627653 238.10853 
C 265.791868 238.10853 264.990202 238.440591 264.399212 239.03158 
C 263.808223 239.62257 263.476162 240.424236 263.476162 241.260022 
C 263.476162 242.095807 263.808223 242.897473 264.399212 243.488463 
C 264.990202 244.079452 265.791868 244.411513 266.627653 244.411513 
z
" style="fill:#009900;fill-opacity:0.5;stroke:#009900;stroke-linejoin:miter;stroke-width:2;"/>
   </g>
   <g id="patch_41">
    <path clip-path="url(#p86d7d6c014)" d="M 241.41572 222.351072 
C 243.087291 222.351072 244.690623 221.686949 245.872602 220.50497 
C 247.054581 219.322991 247.718703 217.719659 247.718703 216.048088 
C 247.718703 214.376518 247.054581 212.773185 245.872602 211.591206 
C 244.690623 210.409227 243.087291 209.745105 241.41572 209.745105 
C 239.744149 209.745105 238.140817 210.409227 236.958838 211.591206 
C 235.776859 212.773185 235.112737 214.376518 235.112737 216.048088 
C 235.112737 217.719659 235.776859 219.322991 236.958838 220.50497 
C 238.140817 221.686949 239.744149 222.351072 241.41572 222.351072 
z
" style="fill:#9558b2;fill-opacity:0.5;stroke:#9558b2;stroke-linejoin:miter;stroke-width:2;"/>
   </g>
   <g id="patch_42">
    <path clip-path="url(#p86d7d6c014)" d="M 266.627653 219.19958 
C 267.463439 219.19958 268.265105 218.867519 268.856094 218.276529 
C 269.447084 217.68554 269.779145 216.883874 269.779145 216.048088 
C 269.779145 215.212303 269.447084 214.410637 268.856094 213.819647 
C 268.265105 213.228658 267.463439 212.896597 266.627653 212.896597 
C 265.791868 212.896597 264.990202 213.228658 264.399212 213.819647 
C 263.808223 214.410637 263.476162 215.212303 263.476162 216.048088 
C 263.476162 216.883874 263.808223 217.68554 264.399212 218.276529 
C 264.990202 218.867519 265.791868 219.19958 266.627653 219.19958 
z
" style="fill:#009900;fill-opacity:0.5;stroke:#009900;stroke-linejoin:miter;stroke-width:2;"/>
   </g>
   <g id="patch_43">
    <path clip-path="url(#p86d7d6c014)" d="M 241.41572 197.139138 
C 243.087291 197.139138 244.690623 196.475016 245.872602 195.293037 
C 247.054581 194.111058 247.718703 192.507726 247.718703 190.836155 
C 247.718703 189.164584 247.054581 187.561252 245.872602 186.379273 
C 244.690623 185.197294 243.087291 184.533172 241.41572 184.533172 
C 239.744149 184.533172 238.140817 185.197294 236.958838 186.379273 
C 235.776859 187.561252 235.112737 189.164584 235.112737 190.836155 
C 235.112737 192.507726 235.776859 194.111058 236.958838 195.293037 
C 238.140817 196.475016 239.744149 197.139138 241.41572 197.139138 
z
" style="fill:#9558b2;fill-opacity:0.5;stroke:#9558b2;stroke-linejoin:miter;stroke-width:2;"/>
   </g>
   <g id="patch_44">
    <path clip-path="url(#p86d7d6c014)" d="M 266.627653 193.987647 
C 267.463439 193.987647 268.265105 193.655586 268.856094 193.064596 
C 269.447084 192.473607 269.779145 191.67194 269.779145 190.836155 
C 269.779145 190.00037 269.447084 189.198703 268.856094 188.607714 
C 268.265105 188.016724 267.463439 187.684663 266.627653 187.684663 
C 265.791868 187.684663 264.990202 188.016724 264.399212 188.607714 
C 263.808223 189.198703 263.476162 190.00037 263.476162 190.836155 
C 263.476162 191.67194 263.808223 192.473607 264.399212 193.064596 
C 264.990202 193.655586 265.791868 193.987647 266.627653 193.987647 
z
" style="fill:#009900;fill-opacity:0.5;stroke:#009900;stroke-linejoin:miter;stroke-width:2;"/>
   </g>
   <g id="patch_45">
    <path clip-path="url(#p86d7d6c014)" d="M 241.41572 171.927205 
C 243.087291 171.927205 244.690623 171.263083 245.872602 170.081104 
C 247.054581 168.899125 247.718703 167.295792 247.718703 165.624222 
C 247.718703 163.952651 247.054581 162.349318 245.872602 161.167339 
C 244.690623 159.98536 243.087291 159.321238 241.41572 159.321238 
C 239.744149 159.321238 238.140817 159.98536 236.958838 161.167339 
C 235.776859 162.349318 235.112737 163.952651 235.112737 165.624222 
C 235.112737 167.295792 235.776859 168.899125 236.958838 170.081104 
C 238.140817 171.263083 239.744149 171.927205 241.41572 171.927205 
z
" style="fill:#9558b2;fill-opacity:0.5;stroke:#9558b2;stroke-linejoin:miter;stroke-width:2;"/>
   </g>
   <g id="patch_46">
    <path clip-path="url(#p86d7d6c014)" d="M 266.627653 168.775713 
C 267.463439 168.775713 268.265105 168.443652 268.856094 167.852663 
C 269.447084 167.261673 269.779145 166.460007 269.779145 165.624222 
C 269.779145 164.788436 269.447084 163.98677 268.856094 163.395781 
C 268.265105 162.804791 267.463439 162.47273 266.627653 162.47273 
C 265.791868 162.47273 264.990202 162.804791 264.399212 163.395781 
C 263.808223 163.98677 263.476162 164.788436 263.476162 165.624222 
C 263.476162 166.460007 263.808223 167.261673 264.399212 167.852663 
C 264.990202 168.443652 265.791868 168.775713 266.627653 168.775713 
z
" style="fill:#009900;fill-opacity:0.5;stroke:#009900;stroke-linejoin:miter;stroke-width:2;"/>
   </g>
   <g id="patch_47">
    <path clip-path="url(#p86d7d6c014)" d="M 241.41572 146.715272 
C 243.087291 146.715272 244.690623 146.05115 245.872602 144.869171 
C 247.054581 143.687192 247.718703 142.083859 247.718703 140.412288 
C 247.718703 138.740718 247.054581 137.137385 245.872602 135.955406 
C 244.690623 134.773427 243.087291 134.109305 241.41572 134.109305 
C 239.744149 134.109305 238.140817 134.773427 236.958838 135.955406 
C 235.776859 137.137385 235.112737 138.740718 235.112737 140.412288 
C 235.112737 142.083859 235.776859 143.687192 236.958838 144.869171 
C 238.140817 146.05115 239.744149 146.715272 241.41572 146.715272 
z
" style="fill:#9558b2;fill-opacity:0.5;stroke:#9558b2;stroke-linejoin:miter;stroke-width:2;"/>
   </g>
   <g id="patch_48">
    <path clip-path="url(#p86d7d6c014)" d="M 266.627653 143.56378 
C 267.463439 143.56378 268.265105 143.231719 268.856094 142.640729 
C 269.447084 142.04974 269.779145 141.248074 269.779145 140.412288 
C 269.779145 139.576503 269.447084 138.774837 268.856094 138.183847 
C 268.265105 137.592858 267.463439 137.260797 266.627653 137.260797 
C 265.791868 137.260797 264.990202 137.592858 264.399212 138.183847 
C 263.808223 138.774837 263.476162 139.576503 263.476162 140.412288 
C 263.476162 141.248074 263.808223 142.04974 264.399212 142.640729 
C 264.990202 143.231719 265.791868 143.56378 266.627653 143.56378 
z
" style="fill:#009900;fill-opacity:0.5;stroke:#009900;stroke-linejoin:miter;stroke-width:2;"/>
   </g>
   <g id="patch_49">
    <path clip-path="url(#p86d7d6c014)" d="M 241.41572 121.503338 
C 243.087291 121.503338 244.690623 120.839216 245.872602 119.657237 
C 247.054581 118.475258 247.718703 116.871926 247.718703 115.200355 
C 247.718703 113.528784 247.054581 111.925452 245.872602 110.743473 
C 244.690623 109.561494 243.087291 108.897372 241.41572 108.897372 
C 239.744149 108.897372 238.140817 109.561494 236.958838 110.743473 
C 235.776859 111.925452 235.112737 113.528784 235.112737 115.200355 
C 235.112737 116.871926 235.776859 118.475258 236.958838 119.657237 
C 238.140817 120.839216 239.744149 121.503338 241.41572 121.503338 
z
" style="fill:#9558b2;fill-opacity:0.5;stroke:#9558b2;stroke-linejoin:miter;stroke-width:2;"/>
   </g>
   <g id="patch_50">
    <path clip-path="url(#p86d7d6c014)" d="M 266.627653 118.351847 
C 267.463439 118.351847 268.265105 118.019786 268.856094 117.428796 
C 269.447084 116.837807 269.779145 116.03614 269.779145 115.200355 
C 269.779145 114.36457 269.447084 113.562903 268.856094 112.971914 
C 268.265105 112.380924 267.463439 112.048863 266.627653 112.048863 
C 265.791868 112.048863 264.990202 112.380924 264.399212 112.971914 
C 263.808223 113.562903 263.476162 114.36457 263.476162 115.200355 
C 263.476162 116.03614 263.808223 116.837807 264.399212 117.428796 
C 264.990202 118.019786 265.791868 118.351847 266.627653 118.351847 
z
" style="fill:#009900;fill-opacity:0.5;stroke:#009900;stroke-linejoin:miter;stroke-width:2;"/>
   </g>
   <g id="patch_51">
    <path clip-path="url(#p86d7d6c014)" d="M 291.839587 247.563005 
C 293.511157 247.563005 295.11449 246.898883 296.296469 245.716904 
C 297.478448 244.534925 298.14257 242.931592 298.14257 241.260022 
C 298.14257 239.588451 297.478448 237.985118 296.296469 236.803139 
C 295.11449 235.62116 293.511157 234.957038 291.839587 234.957038 
C 290.168016 234.957038 288.564683 235.62116 287.382704 236.803139 
C 286.200725 237.985118 285.536603 239.588451 285.536603 241.260022 
C 285.536603 242.931592 286.200725 244.534925 287.382704 245.716904 
C 288.564683 246.898883 290.168016 247.563005 291.839587 247.563005 
z
" style="fill:#9558b2;fill-opacity:0.5;stroke:#9558b2;stroke-linejoin:miter;stroke-width:2;"/>
   </g>
   <g id="patch_52">
    <path clip-path="url(#p86d7d6c014)" d="M 317.05152 244.411513 
C 317.887305 244.411513 318.688971 244.079452 319.279961 243.488463 
C 319.87095 242.897473 320.203012 242.095807 320.203012 241.260022 
C 320.203012 240.424236 319.87095 239.62257 319.279961 239.03158 
C 318.688971 238.440591 317.887305 238.10853 317.05152 238.10853 
C 316.215734 238.10853 315.414068 238.440591 314.823079 239.03158 
C 314.232089 239.62257 313.900028 240.424236 313.900028 241.260022 
C 313.900028 242.095807 314.232089 242.897473 314.823079 243.488463 
C 315.414068 244.079452 316.215734 244.411513 317.05152 244.411513 
z
" style="fill:#009900;fill-opacity:0.5;stroke:#009900;stroke-linejoin:miter;stroke-width:2;"/>
   </g>
   <g id="patch_53">
    <path clip-path="url(#p86d7d6c014)" d="M 291.839587 222.351072 
C 293.511157 222.351072 295.11449 221.686949 296.296469 220.50497 
C 297.478448 219.322991 298.14257 217.719659 298.14257 216.048088 
C 298.14257 214.376518 297.478448 212.773185 296.296469 211.591206 
C 295.11449 210.409227 293.511157 209.745105 291.839587 209.745105 
C 290.168016 209.745105 288.564683 210.409227 287.382704 211.591206 
C 286.200725 212.773185 285.536603 214.376518 285.536603 216.048088 
C 285.536603 217.719659 286.200725 219.322991 287.382704 220.50497 
C 288.564683 221.686949 290.168016 222.351072 291.839587 222.351072 
z
" style="fill:#9558b2;fill-opacity:0.5;stroke:#9558b2;stroke-linejoin:miter;stroke-width:2;"/>
   </g>
   <g id="patch_54">
    <path clip-path="url(#p86d7d6c014)" d="M 317.05152 219.19958 
C 317.887305 219.19958 318.688971 218.867519 319.279961 218.276529 
C 319.87095 217.68554 320.203012 216.883874 320.203012 216.048088 
C 320.203012 215.212303 319.87095 214.410637 319.279961 213.819647 
C 318.688971 213.228658 317.887305 212.896597 317.05152 212.896597 
C 316.215734 212.896597 315.414068 213.228658 314.823079 213.819647 
C 314.232089 214.410637 313.900028 215.212303 313.900028 216.048088 
C 313.900028 216.883874 314.232089 217.68554 314.823079 218.276529 
C 315.414068 218.867519 316.215734 219.19958 317.05152 219.19958 
z
" style="fill:#009900;fill-opacity:0.5;stroke:#009900;stroke-linejoin:miter;stroke-width:2;"/>
   </g>
   <g id="patch_55">
    <path clip-path="url(#p86d7d6c014)" d="M 291.839587 197.139138 
C 293.511157 197.139138 295.11449 196.475016 296.296469 195.293037 
C 297.478448 194.111058 298.14257 192.507726 298.14257 190.836155 
C 298.14257 189.164584 297.478448 187.561252 296.296469 186.379273 
C 295.11449 185.197294 293.511157 184.533172 291.839587 184.533172 
C 290.168016 184.533172 288.564683 185.197294 287.382704 186.379273 
C 286.200725 187.561252 285.536603 189.164584 285.536603 190.836155 
C 285.536603 192.507726 286.200725 194.111058 287.382704 195.293037 
C 288.564683 196.475016 290.168016 197.139138 291.839587 197.139138 
z
" style="fill:#9558b2;fill-opacity:0.5;stroke:#9558b2;stroke-linejoin:miter;stroke-width:2;"/>
   </g>
   <g id="patch_56">
    <path clip-path="url(#p86d7d6c014)" d="M 317.05152 193.987647 
C 317.887305 193.987647 318.688971 193.655586 319.279961 193.064596 
C 319.87095 192.473607 320.203012 191.67194 320.203012 190.836155 
C 320.203012 190.00037 319.87095 189.198703 319.279961 188.607714 
C 318.688971 188.016724 317.887305 187.684663 317.05152 187.684663 
C 316.215734 187.684663 315.414068 188.016724 314.823079 188.607714 
C 314.232089 189.198703 313.900028 190.00037 313.900028 190.836155 
C 313.900028 191.67194 314.232089 192.473607 314.823079 193.064596 
C 315.414068 193.655586 316.215734 193.987647 317.05152 193.987647 
z
" style="fill:#009900;fill-opacity:0.5;stroke:#009900;stroke-linejoin:miter;stroke-width:2;"/>
   </g>
   <g id="patch_57">
    <path clip-path="url(#p86d7d6c014)" d="M 291.839587 171.927205 
C 293.511157 171.927205 295.11449 171.263083 296.296469 170.081104 
C 297.478448 168.899125 298.14257 167.295792 298.14257 165.624222 
C 298.14257 163.952651 297.478448 162.349318 296.296469 161.167339 
C 295.11449 159.98536 293.511157 159.321238 291.839587 159.321238 
C 290.168016 159.321238 288.564683 159.98536 287.382704 161.167339 
C 286.200725 162.349318 285.536603 163.952651 285.536603 165.624222 
C 285.536603 167.295792 286.200725 168.899125 287.382704 170.081104 
C 288.564683 171.263083 290.168016 171.927205 291.839587 171.927205 
z
" style="fill:#9558b2;fill-opacity:0.5;stroke:#9558b2;stroke-linejoin:miter;stroke-width:2;"/>
   </g>
   <g id="patch_58">
    <path clip-path="url(#p86d7d6c014)" d="M 317.05152 168.775713 
C 317.887305 168.775713 318.688971 168.443652 319.279961 167.852663 
C 319.87095 167.261673 320.203012 166.460007 320.203012 165.624222 
C 320.203012 164.788436 319.87095 163.98677 319.279961 163.395781 
C 318.688971 162.804791 317.887305 162.47273 317.05152 162.47273 
C 316.215734 162.47273 315.414068 162.804791 314.823079 163.395781 
C 314.232089 163.98677 313.900028 164.788436 313.900028 165.624222 
C 313.900028 166.460007 314.232089 167.261673 314.823079 167.852663 
C 315.414068 168.443652 316.215734 168.775713 317.05152 168.775713 
z
" style="fill:#009900;fill-opacity:0.5;stroke:#009900;stroke-linejoin:miter;stroke-width:2;"/>
   </g>
   <g id="patch_59">
    <path clip-path="url(#p86d7d6c014)" d="M 291.839587 146.715272 
C 293.511157 146.715272 295.11449 146.05115 296.296469 144.869171 
C 297.478448 143.687192 298.14257 142.083859 298.14257 140.412288 
C 298.14257 138.740718 297.478448 137.137385 296.296469 135.955406 
C 295.11449 134.773427 293.511157 134.109305 291.839587 134.109305 
C 290.168016 134.109305 288.564683 134.773427 287.382704 135.955406 
C 286.200725 137.137385 285.536603 138.740718 285.536603 140.412288 
C 285.536603 142.083859 286.200725 143.687192 287.382704 144.869171 
C 288.564683 146.05115 290.168016 146.715272 291.839587 146.715272 
z
" style="fill:#9558b2;fill-opacity:0.5;stroke:#9558b2;stroke-linejoin:miter;stroke-width:2;"/>
   </g>
   <g id="patch_60">
    <path clip-path="url(#p86d7d6c014)" d="M 317.05152 143.56378 
C 317.887305 143.56378 318.688971 143.231719 319.279961 142.640729 
C 319.87095 142.04974 320.203012 141.248074 320.203012 140.412288 
C 320.203012 139.576503 319.87095 138.774837 319.279961 138.183847 
C 318.688971 137.592858 317.887305 137.260797 317.05152 137.260797 
C 316.215734 137.260797 315.414068 137.592858 314.823079 138.183847 
C 314.232089 138.774837 313.900028 139.576503 313.900028 140.412288 
C 313.900028 141.248074 314.232089 142.04974 314.823079 142.640729 
C 315.414068 143.231719 316.215734 143.56378 317.05152 143.56378 
z
" style="fill:#009900;fill-opacity:0.5;stroke:#009900;stroke-linejoin:miter;stroke-width:2;"/>
   </g>
   <g id="patch_61">
    <path clip-path="url(#p86d7d6c014)" d="M 291.839587 121.503338 
C 293.511157 121.503338 295.11449 120.839216 296.296469 119.657237 
C 297.478448 118.475258 298.14257 116.871926 298.14257 115.200355 
C 298.14257 113.528784 297.478448 111.925452 296.296469 110.743473 
C 295.11449 109.561494 293.511157 108.897372 291.839587 108.897372 
C 290.168016 108.897372 288.564683 109.561494 287.382704 110.743473 
C 286.200725 111.925452 285.536603 113.528784 285.536603 115.200355 
C 285.536603 116.871926 286.200725 118.475258 287.382704 119.657237 
C 288.564683 120.839216 290.168016 121.503338 291.839587 121.503338 
z
" style="fill:#9558b2;fill-opacity:0.5;stroke:#9558b2;stroke-linejoin:miter;stroke-width:2;"/>
   </g>
   <g id="patch_62">
    <path clip-path="url(#p86d7d6c014)" d="M 317.05152 118.351847 
C 317.887305 118.351847 318.688971 118.019786 319.279961 117.428796 
C 319.87095 116.837807 320.203012 116.03614 320.203012 115.200355 
C 320.203012 114.36457 319.87095 113.562903 319.279961 112.971914 
C 318.688971 112.380924 317.887305 112.048863 317.05152 112.048863 
C 316.215734 112.048863 315.414068 112.380924 314.823079 112.971914 
C 314.232089 113.562903 313.900028 114.36457 313.900028 115.200355 
C 313.900028 116.03614 314.232089 116.837807 314.823079 117.428796 
C 315.414068 118.019786 316.215734 118.351847 317.05152 118.351847 
z
" style="fill:#009900;fill-opacity:0.5;stroke:#009900;stroke-linejoin:miter;stroke-width:2;"/>
   </g>
   <g id="patch_63">
    <path clip-path="url(#p86d7d6c014)" d="M 342.263453 247.563005 
C 343.935024 247.563005 345.538356 246.898883 346.720335 245.716904 
C 347.902314 244.534925 348.566436 242.931592 348.566436 241.260022 
C 348.566436 239.588451 347.902314 237.985118 346.720335 236.803139 
C 345.538356 235.62116 343.935024 234.957038 342.263453 234.957038 
C 340.591882 234.957038 338.98855 235.62116 337.806571 236.803139 
C 336.624592 237.985118 335.96047 239.588451 335.96047 241.260022 
C 335.96047 242.931592 336.624592 244.534925 337.806571 245.716904 
C 338.98855 246.898883 340.591882 247.563005 342.263453 247.563005 
z
" style="fill:#9558b2;fill-opacity:0.5;stroke:#9558b2;stroke-linejoin:miter;stroke-width:2;"/>
   </g>
   <g id="patch_64">
    <path clip-path="url(#p86d7d6c014)" d="M 367.475386 244.411513 
C 368.311172 244.411513 369.112838 244.079452 369.703828 243.488463 
C 370.294817 242.897473 370.626878 242.095807 370.626878 241.260022 
C 370.626878 240.424236 370.294817 239.62257 369.703828 239.03158 
C 369.112838 238.440591 368.311172 238.10853 367.475386 238.10853 
C 366.639601 238.10853 365.837935 238.440591 365.246945 239.03158 
C 364.655956 239.62257 364.323895 240.424236 364.323895 241.260022 
C 364.323895 242.095807 364.655956 242.897473 365.246945 243.488463 
C 365.837935 244.079452 366.639601 244.411513 367.475386 244.411513 
z
" style="fill:#009900;fill-opacity:0.5;stroke:#009900;stroke-linejoin:miter;stroke-width:2;"/>
   </g>
   <g id="patch_65">
    <path clip-path="url(#p86d7d6c014)" d="M 342.263453 222.351072 
C 343.935024 222.351072 345.538356 221.686949 346.720335 220.50497 
C 347.902314 219.322991 348.566436 217.719659 348.566436 216.048088 
C 348.566436 214.376518 347.902314 212.773185 346.720335 211.591206 
C 345.538356 210.409227 343.935024 209.745105 342.263453 209.745105 
C 340.591882 209.745105 338.98855 210.409227 337.806571 211.591206 
C 336.624592 212.773185 335.96047 214.376518 335.96047 216.048088 
C 335.96047 217.719659 336.624592 219.322991 337.806571 220.50497 
C 338.98855 221.686949 340.591882 222.351072 342.263453 222.351072 
z
" style="fill:#9558b2;fill-opacity:0.5;stroke:#9558b2;stroke-linejoin:miter;stroke-width:2;"/>
   </g>
   <g id="patch_66">
    <path clip-path="url(#p86d7d6c014)" d="M 367.475386 219.19958 
C 368.311172 219.19958 369.112838 218.867519 369.703828 218.276529 
C 370.294817 217.68554 370.626878 216.883874 370.626878 216.048088 
C 370.626878 215.212303 370.294817 214.410637 369.703828 213.819647 
C 369.112838 213.228658 368.311172 212.896597 367.475386 212.896597 
C 366.639601 212.896597 365.837935 213.228658 365.246945 213.819647 
C 364.655956 214.410637 364.323895 215.212303 364.323895 216.048088 
C 364.323895 216.883874 364.655956 217.68554 365.246945 218.276529 
C 365.837935 218.867519 366.639601 219.19958 367.475386 219.19958 
z
" style="fill:#009900;fill-opacity:0.5;stroke:#009900;stroke-linejoin:miter;stroke-width:2;"/>
   </g>
   <g id="patch_67">
    <path clip-path="url(#p86d7d6c014)" d="M 342.263453 197.139138 
C 343.935024 197.139138 345.538356 196.475016 346.720335 195.293037 
C 347.902314 194.111058 348.566436 192.507726 348.566436 190.836155 
C 348.566436 189.164584 347.902314 187.561252 346.720335 186.379273 
C 345.538356 185.197294 343.935024 184.533172 342.263453 184.533172 
C 340.591882 184.533172 338.98855 185.197294 337.806571 186.379273 
C 336.624592 187.561252 335.96047 189.164584 335.96047 190.836155 
C 335.96047 192.507726 336.624592 194.111058 337.806571 195.293037 
C 338.98855 196.475016 340.591882 197.139138 342.263453 197.139138 
z
" style="fill:#9558b2;fill-opacity:0.5;stroke:#9558b2;stroke-linejoin:miter;stroke-width:2;"/>
   </g>
   <g id="patch_68">
    <path clip-path="url(#p86d7d6c014)" d="M 367.475386 193.987647 
C 368.311172 193.987647 369.112838 193.655586 369.703828 193.064596 
C 370.294817 192.473607 370.626878 191.67194 370.626878 190.836155 
C 370.626878 190.00037 370.294817 189.198703 369.703828 188.607714 
C 369.112838 188.016724 368.311172 187.684663 367.475386 187.684663 
C 366.639601 187.684663 365.837935 188.016724 365.246945 188.607714 
C 364.655956 189.198703 364.323895 190.00037 364.323895 190.836155 
C 364.323895 191.67194 364.655956 192.473607 365.246945 193.064596 
C 365.837935 193.655586 366.639601 193.987647 367.475386 193.987647 
z
" style="fill:#009900;fill-opacity:0.5;stroke:#009900;stroke-linejoin:miter;stroke-width:2;"/>
   </g>
   <g id="patch_69">
    <path clip-path="url(#p86d7d6c014)" d="M 342.263453 171.927205 
C 343.935024 171.927205 345.538356 171.263083 346.720335 170.081104 
C 347.902314 168.899125 348.566436 167.295792 348.566436 165.624222 
C 348.566436 163.952651 347.902314 162.349318 346.720335 161.167339 
C 345.538356 159.98536 343.935024 159.321238 342.263453 159.321238 
C 340.591882 159.321238 338.98855 159.98536 337.806571 161.167339 
C 336.624592 162.349318 335.96047 163.952651 335.96047 165.624222 
C 335.96047 167.295792 336.624592 168.899125 337.806571 170.081104 
C 338.98855 171.263083 340.591882 171.927205 342.263453 171.927205 
z
" style="fill:#9558b2;fill-opacity:0.5;stroke:#9558b2;stroke-linejoin:miter;stroke-width:2;"/>
   </g>
   <g id="patch_70">
    <path clip-path="url(#p86d7d6c014)" d="M 367.475386 168.775713 
C 368.311172 168.775713 369.112838 168.443652 369.703828 167.852663 
C 370.294817 167.261673 370.626878 166.460007 370.626878 165.624222 
C 370.626878 164.788436 370.294817 163.98677 369.703828 163.395781 
C 369.112838 162.804791 368.311172 162.47273 367.475386 162.47273 
C 366.639601 162.47273 365.837935 162.804791 365.246945 163.395781 
C 364.655956 163.98677 364.323895 164.788436 364.323895 165.624222 
C 364.323895 166.460007 364.655956 167.261673 365.246945 167.852663 
C 365.837935 168.443652 366.639601 168.775713 367.475386 168.775713 
z
" style="fill:#009900;fill-opacity:0.5;stroke:#009900;stroke-linejoin:miter;stroke-width:2;"/>
   </g>
   <g id="patch_71">
    <path clip-path="url(#p86d7d6c014)" d="M 342.263453 146.715272 
C 343.935024 146.715272 345.538356 146.05115 346.720335 144.869171 
C 347.902314 143.687192 348.566436 142.083859 348.566436 140.412288 
C 348.566436 138.740718 347.902314 137.137385 346.720335 135.955406 
C 345.538356 134.773427 343.935024 134.109305 342.263453 134.109305 
C 340.591882 134.109305 338.98855 134.773427 337.806571 135.955406 
C 336.624592 137.137385 335.96047 138.740718 335.96047 140.412288 
C 335.96047 142.083859 336.624592 143.687192 337.806571 144.869171 
C 338.98855 146.05115 340.591882 146.715272 342.263453 146.715272 
z
" style="fill:#9558b2;fill-opacity:0.5;stroke:#9558b2;stroke-linejoin:miter;stroke-width:2;"/>
   </g>
   <g id="patch_72">
    <path clip-path="url(#p86d7d6c014)" d="M 367.475386 143.56378 
C 368.311172 143.56378 369.112838 143.231719 369.703828 142.640729 
C 370.294817 142.04974 370.626878 141.248074 370.626878 140.412288 
C 370.626878 139.576503 370.294817 138.774837 369.703828 138.183847 
C 369.112838 137.592858 368.311172 137.260797 367.475386 137.260797 
C 366.639601 137.260797 365.837935 137.592858 365.246945 138.183847 
C 364.655956 138.774837 364.323895 139.576503 364.323895 140.412288 
C 364.323895 141.248074 364.655956 142.04974 365.246945 142.640729 
C 365.837935 143.231719 366.639601 143.56378 367.475386 143.56378 
z
" style="fill:#009900;fill-opacity:0.5;stroke:#009900;stroke-linejoin:miter;stroke-width:2;"/>
   </g>
   <g id="patch_73">
    <path clip-path="url(#p86d7d6c014)" d="M 342.263453 121.503338 
C 343.935024 121.503338 345.538356 120.839216 346.720335 119.657237 
C 347.902314 118.475258 348.566436 116.871926 348.566436 115.200355 
C 348.566436 113.528784 347.902314 111.925452 346.720335 110.743473 
C 345.538356 109.561494 343.935024 108.897372 342.263453 108.897372 
C 340.591882 108.897372 338.98855 109.561494 337.806571 110.743473 
C 336.624592 111.925452 335.96047 113.528784 335.96047 115.200355 
C 335.96047 116.871926 336.624592 118.475258 337.806571 119.657237 
C 338.98855 120.839216 340.591882 121.503338 342.263453 121.503338 
z
" style="fill:#9558b2;fill-opacity:0.5;stroke:#9558b2;stroke-linejoin:miter;stroke-width:2;"/>
   </g>
   <g id="patch_74">
    <path clip-path="url(#p86d7d6c014)" d="M 367.475386 118.351847 
C 368.311172 118.351847 369.112838 118.019786 369.703828 117.428796 
C 370.294817 116.837807 370.626878 116.03614 370.626878 115.200355 
C 370.626878 114.36457 370.294817 113.562903 369.703828 112.971914 
C 369.112838 112.380924 368.311172 112.048863 367.475386 112.048863 
C 366.639601 112.048863 365.837935 112.380924 365.246945 112.971914 
C 364.655956 113.562903 364.323895 114.36457 364.323895 115.200355 
C 364.323895 116.03614 364.655956 116.837807 365.246945 117.428796 
C 365.837935 118.019786 366.639601 118.351847 367.475386 118.351847 
z
" style="fill:#009900;fill-opacity:0.5;stroke:#009900;stroke-linejoin:miter;stroke-width:2;"/>
   </g>
   <g id="patch_75">
    <path clip-path="url(#p86d7d6c014)" d="M 392.68732 247.563005 
C 394.35889 247.563005 395.962223 246.898883 397.144202 245.716904 
C 398.326181 244.534925 398.990303 242.931592 398.990303 241.260022 
C 398.990303 239.588451 398.326181 237.985118 397.144202 236.803139 
C 395.962223 235.62116 394.35889 234.957038 392.68732 234.957038 
C 391.015749 234.957038 389.412416 235.62116 388.230437 236.803139 
C 387.048458 237.985118 386.384336 239.588451 386.384336 241.260022 
C 386.384336 242.931592 387.048458 244.534925 388.230437 245.716904 
C 389.412416 246.898883 391.015749 247.563005 392.68732 247.563005 
z
" style="fill:#9558b2;fill-opacity:0.5;stroke:#9558b2;stroke-linejoin:miter;stroke-width:2;"/>
   </g>
   <g id="patch_76">
    <path clip-path="url(#p86d7d6c014)" d="M 417.899253 244.411513 
C 418.735038 244.411513 419.536705 244.079452 420.127694 243.488463 
C 420.718684 242.897473 421.050745 242.095807 421.050745 241.260022 
C 421.050745 240.424236 420.718684 239.62257 420.127694 239.03158 
C 419.536705 238.440591 418.735038 238.10853 417.899253 238.10853 
C 417.063468 238.10853 416.261801 238.440591 415.670812 239.03158 
C 415.079822 239.62257 414.747761 240.424236 414.747761 241.260022 
C 414.747761 242.095807 415.079822 242.897473 415.670812 243.488463 
C 416.261801 244.079452 417.063468 244.411513 417.899253 244.411513 
z
" style="fill:#009900;fill-opacity:0.5;stroke:#009900;stroke-linejoin:miter;stroke-width:2;"/>
   </g>
   <g id="patch_77">
    <path clip-path="url(#p86d7d6c014)" d="M 392.68732 222.351072 
C 394.35889 222.351072 395.962223 221.686949 397.144202 220.50497 
C 398.326181 219.322991 398.990303 217.719659 398.990303 216.048088 
C 398.990303 214.376518 398.326181 212.773185 397.144202 211.591206 
C 395.962223 210.409227 394.35889 209.745105 392.68732 209.745105 
C 391.015749 209.745105 389.412416 210.409227 388.230437 211.591206 
C 387.048458 212.773185 386.384336 214.376518 386.384336 216.048088 
C 386.384336 217.719659 387.048458 219.322991 388.230437 220.50497 
C 389.412416 221.686949 391.015749 222.351072 392.68732 222.351072 
z
" style="fill:#9558b2;fill-opacity:0.5;stroke:#9558b2;stroke-linejoin:miter;stroke-width:2;"/>
   </g>
   <g id="patch_78">
    <path clip-path="url(#p86d7d6c014)" d="M 417.899253 219.19958 
C 418.735038 219.19958 419.536705 218.867519 420.127694 218.276529 
C 420.718684 217.68554 421.050745 216.883874 421.050745 216.048088 
C 421.050745 215.212303 420.718684 214.410637 420.127694 213.819647 
C 419.536705 213.228658 418.735038 212.896597 417.899253 212.896597 
C 417.063468 212.896597 416.261801 213.228658 415.670812 213.819647 
C 415.079822 214.410637 414.747761 215.212303 414.747761 216.048088 
C 414.747761 216.883874 415.079822 217.68554 415.670812 218.276529 
C 416.261801 218.867519 417.063468 219.19958 417.899253 219.19958 
z
" style="fill:#009900;fill-opacity:0.5;stroke:#009900;stroke-linejoin:miter;stroke-width:2;"/>
   </g>
   <g id="patch_79">
    <path clip-path="url(#p86d7d6c014)" d="M 392.68732 197.139138 
C 394.35889 197.139138 395.962223 196.475016 397.144202 195.293037 
C 398.326181 194.111058 398.990303 192.507726 398.990303 190.836155 
C 398.990303 189.164584 398.326181 187.561252 397.144202 186.379273 
C 395.962223 185.197294 394.35889 184.533172 392.68732 184.533172 
C 391.015749 184.533172 389.412416 185.197294 388.230437 186.379273 
C 387.048458 187.561252 386.384336 189.164584 386.384336 190.836155 
C 386.384336 192.507726 387.048458 194.111058 388.230437 195.293037 
C 389.412416 196.475016 391.015749 197.139138 392.68732 197.139138 
z
" style="fill:#9558b2;fill-opacity:0.5;stroke:#9558b2;stroke-linejoin:miter;stroke-width:2;"/>
   </g>
   <g id="patch_80">
    <path clip-path="url(#p86d7d6c014)" d="M 417.899253 193.987647 
C 418.735038 193.987647 419.536705 193.655586 420.127694 193.064596 
C 420.718684 192.473607 421.050745 191.67194 421.050745 190.836155 
C 421.050745 190.00037 420.718684 189.198703 420.127694 188.607714 
C 419.536705 188.016724 418.735038 187.684663 417.899253 187.684663 
C 417.063468 187.684663 416.261801 188.016724 415.670812 188.607714 
C 415.079822 189.198703 414.747761 190.00037 414.747761 190.836155 
C 414.747761 191.67194 415.079822 192.473607 415.670812 193.064596 
C 416.261801 193.655586 417.063468 193.987647 417.899253 193.987647 
z
" style="fill:#009900;fill-opacity:0.5;stroke:#009900;stroke-linejoin:miter;stroke-width:2;"/>
   </g>
   <g id="patch_81">
    <path clip-path="url(#p86d7d6c014)" d="M 392.68732 171.927205 
C 394.35889 171.927205 395.962223 171.263083 397.144202 170.081104 
C 398.326181 168.899125 398.990303 167.295792 398.990303 165.624222 
C 398.990303 163.952651 398.326181 162.349318 397.144202 161.167339 
C 395.962223 159.98536 394.35889 159.321238 392.68732 159.321238 
C 391.015749 159.321238 389.412416 159.98536 388.230437 161.167339 
C 387.048458 162.349318 386.384336 163.952651 386.384336 165.624222 
C 386.384336 167.295792 387.048458 168.899125 388.230437 170.081104 
C 389.412416 171.263083 391.015749 171.927205 392.68732 171.927205 
z
" style="fill:#9558b2;fill-opacity:0.5;stroke:#9558b2;stroke-linejoin:miter;stroke-width:2;"/>
   </g>
   <g id="patch_82">
    <path clip-path="url(#p86d7d6c014)" d="M 417.899253 168.775713 
C 418.735038 168.775713 419.536705 168.443652 420.127694 167.852663 
C 420.718684 167.261673 421.050745 166.460007 421.050745 165.624222 
C 421.050745 164.788436 420.718684 163.98677 420.127694 163.395781 
C 419.536705 162.804791 418.735038 162.47273 417.899253 162.47273 
C 417.063468 162.47273 416.261801 162.804791 415.670812 163.395781 
C 415.079822 163.98677 414.747761 164.788436 414.747761 165.624222 
C 414.747761 166.460007 415.079822 167.261673 415.670812 167.852663 
C 416.261801 168.443652 417.063468 168.775713 417.899253 168.775713 
z
" style="fill:#009900;fill-opacity:0.5;stroke:#009900;stroke-linejoin:miter;stroke-width:2;"/>
   </g>
   <g id="patch_83">
    <path clip-path="url(#p86d7d6c014)" d="M 392.68732 146.715272 
C 394.35889 146.715272 395.962223 146.05115 397.144202 144.869171 
C 398.326181 143.687192 398.990303 142.083859 398.990303 140.412288 
C 398.990303 138.740718 398.326181 137.137385 397.144202 135.955406 
C 395.962223 134.773427 394.35889 134.109305 392.68732 134.109305 
C 391.015749 134.109305 389.412416 134.773427 388.230437 135.955406 
C 387.048458 137.137385 386.384336 138.740718 386.384336 140.412288 
C 386.384336 142.083859 387.048458 143.687192 388.230437 144.869171 
C 389.412416 146.05115 391.015749 146.715272 392.68732 146.715272 
z
" style="fill:#9558b2;fill-opacity:0.5;stroke:#9558b2;stroke-linejoin:miter;stroke-width:2;"/>
   </g>
   <g id="patch_84">
    <path clip-path="url(#p86d7d6c014)" d="M 417.899253 143.56378 
C 418.735038 143.56378 419.536705 143.231719 420.127694 142.640729 
C 420.718684 142.04974 421.050745 141.248074 421.050745 140.412288 
C 421.050745 139.576503 420.718684 138.774837 420.127694 138.183847 
C 419.536705 137.592858 418.735038 137.260797 417.899253 137.260797 
C 417.063468 137.260797 416.261801 137.592858 415.670812 138.183847 
C 415.079822 138.774837 414.747761 139.576503 414.747761 140.412288 
C 414.747761 141.248074 415.079822 142.04974 415.670812 142.640729 
C 416.261801 143.231719 417.063468 143.56378 417.899253 143.56378 
z
" style="fill:#009900;fill-opacity:0.5;stroke:#009900;stroke-linejoin:miter;stroke-width:2;"/>
   </g>
   <g id="patch_85">
    <path clip-path="url(#p86d7d6c014)" d="M 392.68732 121.503338 
C 394.35889 121.503338 395.962223 120.839216 397.144202 119.657237 
C 398.326181 118.475258 398.990303 116.871926 398.990303 115.200355 
C 398.990303 113.528784 398.326181 111.925452 397.144202 110.743473 
C 395.962223 109.561494 394.35889 108.897372 392.68732 108.897372 
C 391.015749 108.897372 389.412416 109.561494 388.230437 110.743473 
C 387.048458 111.925452 386.384336 113.528784 386.384336 115.200355 
C 386.384336 116.871926 387.048458 118.475258 388.230437 119.657237 
C 389.412416 120.839216 391.015749 121.503338 392.68732 121.503338 
z
" style="fill:#9558b2;fill-opacity:0.5;stroke:#9558b2;stroke-linejoin:miter;stroke-width:2;"/>
   </g>
   <g id="patch_86">
    <path clip-path="url(#p86d7d6c014)" d="M 417.899253 118.351847 
C 418.735038 118.351847 419.536705 118.019786 420.127694 117.428796 
C 420.718684 116.837807 421.050745 116.03614 421.050745 115.200355 
C 421.050745 114.36457 420.718684 113.562903 420.127694 112.971914 
C 419.536705 112.380924 418.735038 112.048863 417.899253 112.048863 
C 417.063468 112.048863 416.261801 112.380924 415.670812 112.971914 
C 415.079822 113.562903 414.747761 114.36457 414.747761 115.200355 
C 414.747761 116.03614 415.079822 116.837807 415.670812 117.428796 
C 416.261801 118.019786 417.063468 118.351847 417.899253 118.351847 
z
" style="fill:#009900;fill-opacity:0.5;stroke:#009900;stroke-linejoin:miter;stroke-width:2;"/>
   </g>
   <g id="matplotlib.axis_1">
    <g id="xtick_1">
     <g id="line2d_1">
      <defs>
       <path d="M 0 0 
L 0 3.5 
" id="mc4c6fad36c" style="stroke:#000000;stroke-width:0.8;"/>
      </defs>
      <g>
       <use style="stroke:#000000;stroke-width:0.8;" x="77.538154" xlink:href="#mc4c6fad36c" y="248.423567"/>
      </g>
     </g>
     <g id="text_1">
      <!-- 0 -->
      <defs>
       <path d="M 31.78125 66.40625 
Q 24.171875 66.40625 20.328125 58.90625 
Q 16.5 51.421875 16.5 36.375 
Q 16.5 21.390625 20.328125 13.890625 
Q 24.171875 6.390625 31.78125 6.390625 
Q 39.453125 6.390625 43.28125 13.890625 
Q 47.125 21.390625 47.125 36.375 
Q 47.125 51.421875 43.28125 58.90625 
Q 39.453125 66.40625 31.78125 66.40625 
z
M 31.78125 74.21875 
Q 44.046875 74.21875 50.515625 64.515625 
Q 56.984375 54.828125 56.984375 36.375 
Q 56.984375 17.96875 50.515625 8.265625 
Q 44.046875 -1.421875 31.78125 -1.421875 
Q 19.53125 -1.421875 13.0625 8.265625 
Q 6.59375 17.96875 6.59375 36.375 
Q 6.59375 54.828125 13.0625 64.515625 
Q 19.53125 74.21875 31.78125 74.21875 
z
" id="DejaVuSans-30"/>
      </defs>
      <g transform="translate(74.356904 263.022004)scale(0.1 -0.1)">
       <use xlink:href="#DejaVuSans-30"/>
      </g>
     </g>
    </g>
    <g id="xtick_2">
     <g id="line2d_2">
      <g>
       <use style="stroke:#000000;stroke-width:0.8;" x="127.96202" xlink:href="#mc4c6fad36c" y="248.423567"/>
      </g>
     </g>
     <g id="text_2">
      <!-- 2 -->
      <defs>
       <path d="M 19.1875 8.296875 
L 53.609375 8.296875 
L 53.609375 0 
L 7.328125 0 
L 7.328125 8.296875 
Q 12.9375 14.109375 22.625 23.890625 
Q 32.328125 33.6875 34.8125 36.53125 
Q 39.546875 41.84375 41.421875 45.53125 
Q 43.3125 49.21875 43.3125 52.78125 
Q 43.3125 58.59375 39.234375 62.25 
Q 35.15625 65.921875 28.609375 65.921875 
Q 23.96875 65.921875 18.8125 64.3125 
Q 13.671875 62.703125 7.8125 59.421875 
L 7.8125 69.390625 
Q 13.765625 71.78125 18.9375 73 
Q 24.125 74.21875 28.421875 74.21875 
Q 39.75 74.21875 46.484375 68.546875 
Q 53.21875 62.890625 53.21875 53.421875 
Q 53.21875 48.921875 51.53125 44.890625 
Q 49.859375 40.875 45.40625 35.40625 
Q 44.1875 33.984375 37.640625 27.21875 
Q 31.109375 20.453125 19.1875 8.296875 
z
" id="DejaVuSans-32"/>
      </defs>
      <g transform="translate(124.78077 263.022004)scale(0.1 -0.1)">
       <use xlink:href="#DejaVuSans-32"/>
      </g>
     </g>
    </g>
    <g id="xtick_3">
     <g id="line2d_3">
      <g>
       <use style="stroke:#000000;stroke-width:0.8;" x="178.385887" xlink:href="#mc4c6fad36c" y="248.423567"/>
      </g>
     </g>
     <g id="text_3">
      <!-- 4 -->
      <defs>
       <path d="M 37.796875 64.3125 
L 12.890625 25.390625 
L 37.796875 25.390625 
z
M 35.203125 72.90625 
L 47.609375 72.90625 
L 47.609375 25.390625 
L 58.015625 25.390625 
L 58.015625 17.1875 
L 47.609375 17.1875 
L 47.609375 0 
L 37.796875 0 
L 37.796875 17.1875 
L 4.890625 17.1875 
L 4.890625 26.703125 
z
" id="DejaVuSans-34"/>
      </defs>
      <g transform="translate(175.204637 263.022004)scale(0.1 -0.1)">
       <use xlink:href="#DejaVuSans-34"/>
      </g>
     </g>
    </g>
    <g id="xtick_4">
     <g id="line2d_4">
      <g>
       <use style="stroke:#000000;stroke-width:0.8;" x="228.809753" xlink:href="#mc4c6fad36c" y="248.423567"/>
      </g>
     </g>
     <g id="text_4">
      <!-- 6 -->
      <defs>
       <path d="M 33.015625 40.375 
Q 26.375 40.375 22.484375 35.828125 
Q 18.609375 31.296875 18.609375 23.390625 
Q 18.609375 15.53125 22.484375 10.953125 
Q 26.375 6.390625 33.015625 6.390625 
Q 39.65625 6.390625 43.53125 10.953125 
Q 47.40625 15.53125 47.40625 23.390625 
Q 47.40625 31.296875 43.53125 35.828125 
Q 39.65625 40.375 33.015625 40.375 
z
M 52.59375 71.296875 
L 52.59375 62.3125 
Q 48.875 64.0625 45.09375 64.984375 
Q 41.3125 65.921875 37.59375 65.921875 
Q 27.828125 65.921875 22.671875 59.328125 
Q 17.53125 52.734375 16.796875 39.40625 
Q 19.671875 43.65625 24.015625 45.921875 
Q 28.375 48.1875 33.59375 48.1875 
Q 44.578125 48.1875 50.953125 41.515625 
Q 57.328125 34.859375 57.328125 23.390625 
Q 57.328125 12.15625 50.6875 5.359375 
Q 44.046875 -1.421875 33.015625 -1.421875 
Q 20.359375 -1.421875 13.671875 8.265625 
Q 6.984375 17.96875 6.984375 36.375 
Q 6.984375 53.65625 15.1875 63.9375 
Q 23.390625 74.21875 37.203125 74.21875 
Q 40.921875 74.21875 44.703125 73.484375 
Q 48.484375 72.75 52.59375 71.296875 
z
" id="DejaVuSans-36"/>
      </defs>
      <g transform="translate(225.628503 263.022004)scale(0.1 -0.1)">
       <use xlink:href="#DejaVuSans-36"/>
      </g>
     </g>
    </g>
    <g id="xtick_5">
     <g id="line2d_5">
      <g>
       <use style="stroke:#000000;stroke-width:0.8;" x="279.23362" xlink:href="#mc4c6fad36c" y="248.423567"/>
      </g>
     </g>
     <g id="text_5">
      <!-- 8 -->
      <defs>
       <path d="M 31.78125 34.625 
Q 24.75 34.625 20.71875 30.859375 
Q 16.703125 27.09375 16.703125 20.515625 
Q 16.703125 13.921875 20.71875 10.15625 
Q 24.75 6.390625 31.78125 6.390625 
Q 38.8125 6.390625 42.859375 10.171875 
Q 46.921875 13.96875 46.921875 20.515625 
Q 46.921875 27.09375 42.890625 30.859375 
Q 38.875 34.625 31.78125 34.625 
z
M 21.921875 38.8125 
Q 15.578125 40.375 12.03125 44.71875 
Q 8.5 49.078125 8.5 55.328125 
Q 8.5 64.0625 14.71875 69.140625 
Q 20.953125 74.21875 31.78125 74.21875 
Q 42.671875 74.21875 48.875 69.140625 
Q 55.078125 64.0625 55.078125 55.328125 
Q 55.078125 49.078125 51.53125 44.71875 
Q 48 40.375 41.703125 38.8125 
Q 48.828125 37.15625 52.796875 32.3125 
Q 56.78125 27.484375 56.78125 20.515625 
Q 56.78125 9.90625 50.3125 4.234375 
Q 43.84375 -1.421875 31.78125 -1.421875 
Q 19.734375 -1.421875 13.25 4.234375 
Q 6.78125 9.90625 6.78125 20.515625 
Q 6.78125 27.484375 10.78125 32.3125 
Q 14.796875 37.15625 21.921875 38.8125 
z
M 18.3125 54.390625 
Q 18.3125 48.734375 21.84375 45.5625 
Q 25.390625 42.390625 31.78125 42.390625 
Q 38.140625 42.390625 41.71875 45.5625 
Q 45.3125 48.734375 45.3125 54.390625 
Q 45.3125 60.0625 41.71875 63.234375 
Q 38.140625 66.40625 31.78125 66.40625 
Q 25.390625 66.40625 21.84375 63.234375 
Q 18.3125 60.0625 18.3125 54.390625 
z
" id="DejaVuSans-38"/>
      </defs>
      <g transform="translate(276.05237 263.022004)scale(0.1 -0.1)">
       <use xlink:href="#DejaVuSans-38"/>
      </g>
     </g>
    </g>
    <g id="xtick_6">
     <g id="line2d_6">
      <g>
       <use style="stroke:#000000;stroke-width:0.8;" x="329.657486" xlink:href="#mc4c6fad36c" y="248.423567"/>
      </g>
     </g>
     <g id="text_6">
      <!-- 10 -->
      <defs>
       <path d="M 12.40625 8.296875 
L 28.515625 8.296875 
L 28.515625 63.921875 
L 10.984375 60.40625 
L 10.984375 69.390625 
L 28.421875 72.90625 
L 38.28125 72.90625 
L 38.28125 8.296875 
L 54.390625 8.296875 
L 54.390625 0 
L 12.40625 0 
z
" id="DejaVuSans-31"/>
      </defs>
      <g transform="translate(323.294986 263.022004)scale(0.1 -0.1)">
       <use xlink:href="#DejaVuSans-31"/>
       <use x="63.623047" xlink:href="#DejaVuSans-30"/>
      </g>
     </g>
    </g>
    <g id="xtick_7">
     <g id="line2d_7">
      <g>
       <use style="stroke:#000000;stroke-width:0.8;" x="380.081353" xlink:href="#mc4c6fad36c" y="248.423567"/>
      </g>
     </g>
     <g id="text_7">
      <!-- 12 -->
      <g transform="translate(373.718853 263.022004)scale(0.1 -0.1)">
       <use xlink:href="#DejaVuSans-31"/>
       <use x="63.623047" xlink:href="#DejaVuSans-32"/>
      </g>
     </g>
    </g>
   </g>
   <g id="matplotlib.axis_2">
    <g id="ytick_1">
     <g id="line2d_8">
      <defs>
       <path d="M 0 0 
L -3.5 0 
" id="m48735205dd" style="stroke:#000000;stroke-width:0.8;"/>
      </defs>
      <g>
       <use style="stroke:#000000;stroke-width:0.8;" x="57.6" xlink:href="#m48735205dd" y="228.654055"/>
      </g>
     </g>
     <g id="text_8">
      <!-- 1 -->
      <defs>
       <path d="M 10.59375 35.5 
L 73.1875 35.5 
L 73.1875 27.203125 
L 10.59375 27.203125 
z
" id="DejaVuSans-2212"/>
      </defs>
      <g transform="translate(35.857813 232.453274)scale(0.1 -0.1)">
       <use xlink:href="#DejaVuSans-2212"/>
       <use x="83.789062" xlink:href="#DejaVuSans-31"/>
      </g>
     </g>
    </g>
    <g id="ytick_2">
     <g id="line2d_9">
      <g>
       <use style="stroke:#000000;stroke-width:0.8;" x="57.6" xlink:href="#m48735205dd" y="203.442122"/>
      </g>
     </g>
     <g id="text_9">
      <!-- 0 -->
      <g transform="translate(44.2375 207.24134)scale(0.1 -0.1)">
       <use xlink:href="#DejaVuSans-30"/>
      </g>
     </g>
    </g>
    <g id="ytick_3">
     <g id="line2d_10">
      <g>
       <use style="stroke:#000000;stroke-width:0.8;" x="57.6" xlink:href="#m48735205dd" y="178.230188"/>
      </g>
     </g>
     <g id="text_10">
      <!-- 1 -->
      <g transform="translate(44.2375 182.029407)scale(0.1 -0.1)">
       <use xlink:href="#DejaVuSans-31"/>
      </g>
     </g>
    </g>
    <g id="ytick_4">
     <g id="line2d_11">
      <g>
       <use style="stroke:#000000;stroke-width:0.8;" x="57.6" xlink:href="#m48735205dd" y="153.018255"/>
      </g>
     </g>
     <g id="text_11">
      <!-- 2 -->
      <g transform="translate(44.2375 156.817474)scale(0.1 -0.1)">
       <use xlink:href="#DejaVuSans-32"/>
      </g>
     </g>
    </g>
    <g id="ytick_5">
     <g id="line2d_12">
      <g>
       <use style="stroke:#000000;stroke-width:0.8;" x="57.6" xlink:href="#m48735205dd" y="127.806322"/>
      </g>
     </g>
     <g id="text_12">
      <!-- 3 -->
      <defs>
       <path d="M 40.578125 39.3125 
Q 47.65625 37.796875 51.625 33 
Q 55.609375 28.21875 55.609375 21.1875 
Q 55.609375 10.40625 48.1875 4.484375 
Q 40.765625 -1.421875 27.09375 -1.421875 
Q 22.515625 -1.421875 17.65625 -0.515625 
Q 12.796875 0.390625 7.625 2.203125 
L 7.625 11.71875 
Q 11.71875 9.328125 16.59375 8.109375 
Q 21.484375 6.890625 26.8125 6.890625 
Q 36.078125 6.890625 40.9375 10.546875 
Q 45.796875 14.203125 45.796875 21.1875 
Q 45.796875 27.640625 41.28125 31.265625 
Q 36.765625 34.90625 28.71875 34.90625 
L 20.21875 34.90625 
L 20.21875 43.015625 
L 29.109375 43.015625 
Q 36.375 43.015625 40.234375 45.921875 
Q 44.09375 48.828125 44.09375 54.296875 
Q 44.09375 59.90625 40.109375 62.90625 
Q 36.140625 65.921875 28.71875 65.921875 
Q 24.65625 65.921875 20.015625 65.03125 
Q 15.375 64.15625 9.8125 62.3125 
L 9.8125 71.09375 
Q 15.4375 72.65625 20.34375 73.4375 
Q 25.25 74.21875 29.59375 74.21875 
Q 40.828125 74.21875 47.359375 69.109375 
Q 53.90625 64.015625 53.90625 55.328125 
Q 53.90625 49.265625 50.4375 45.09375 
Q 46.96875 40.921875 40.578125 39.3125 
z
" id="DejaVuSans-33"/>
      </defs>
      <g transform="translate(44.2375 131.60554)scale(0.1 -0.1)">
       <use xlink:href="#DejaVuSans-33"/>
      </g>
     </g>
    </g>
    <g id="ytick_6">
     <g id="line2d_13">
      <g>
       <use style="stroke:#000000;stroke-width:0.8;" x="57.6" xlink:href="#m48735205dd" y="102.594388"/>
      </g>
     </g>
     <g id="text_13">
      <!-- 4 -->
      <g transform="translate(44.2375 106.393607)scale(0.1 -0.1)">
       <use xlink:href="#DejaVuSans-34"/>
      </g>
     </g>
    </g>
   </g>
   <g id="line2d_14">
    <path clip-path="url(#p86d7d6c014)" d="M 82.811933 194.721964 
L 114.047141 213.18127 
L 117.748971 192.886971 
L 135.918894 186.580155 
L 92.673478 120.973565 
L 112.904933 117.181241 
L 94.514183 161.082179 
L 136.05046 136.016888 
L 96.136976 163.671459 
L 185.268506 188.19591 
L 145.943465 219.339264 
L 389.508067 235.8176 
L 290.810382 121.418742 
L 215.769623 162.502779 
L 143.489581 145.997258 
L 162.959219 141.817828 
L 142.406127 159.595222 
L 166.715471 118.209781 
L 213.099178 139.870711 
L 197.228147 141.326751 
L 285.849734 113.2384 
" style="fill:none;stroke:#1f77b4;stroke-linecap:square;stroke-width:1.5;"/>
   </g>
   <g id="patch_87">
    <path d="M 57.6 248.423567 
L 57.6 100.632433 
" style="fill:none;stroke:#000000;stroke-linecap:square;stroke-linejoin:miter;stroke-width:0.8;"/>
   </g>
   <g id="patch_88">
    <path d="M 414.72 248.423567 
L 414.72 100.632433 
" style="fill:none;stroke:#000000;stroke-linecap:square;stroke-linejoin:miter;stroke-width:0.8;"/>
   </g>
   <g id="patch_89">
    <path d="M 57.6 248.423567 
L 414.72 248.423567 
" style="fill:none;stroke:#000000;stroke-linecap:square;stroke-linejoin:miter;stroke-width:0.8;"/>
   </g>
   <g id="patch_90">
    <path d="M 57.6 100.632433 
L 414.72 100.632433 
" style="fill:none;stroke:#000000;stroke-linecap:square;stroke-linejoin:miter;stroke-width:0.8;"/>
   </g>
  </g>
 </g>
 <defs>
  <clipPath id="p86d7d6c014">
   <rect height="147.791134" width="357.12" x="57.6" y="100.632433"/>
  </clipPath>
 </defs>
</svg>
