<?xml version="1.0" encoding="utf-8" standalone="no"?>
<!DOCTYPE svg PUBLIC "-//W3C//DTD SVG 1.1//EN"
  "http://www.w3.org/Graphics/SVG/1.1/DTD/svg11.dtd">
<!-- Created with matplotlib (https://matplotlib.org/) -->
<svg height="345.6pt" version="1.1" viewBox="0 0 460.8 345.6" width="460.8pt" xmlns="http://www.w3.org/2000/svg" xmlns:xlink="http://www.w3.org/1999/xlink">
 <defs>
  <style type="text/css">
*{stroke-linecap:butt;stroke-linejoin:round;}
  </style>
 </defs>
 <g id="figure_1">
  <g id="patch_1">
   <path d="M 0 345.6 
L 460.8 345.6 
L 460.8 0 
L 0 0 
z
" style="fill:#ffffff;"/>
  </g>
  <g id="axes_1">
   <g id="patch_2">
    <path d="M 76.4928 307.584 
L 395.8272 307.584 
L 395.8272 41.472 
L 76.4928 41.472 
z
" style="fill:#ffffff;"/>
   </g>
   <g id="PathCollection_1">
    <defs>
     <path d="M 0 3 
C 0.795609 3 1.55874 2.683901 2.12132 2.12132 
C 2.683901 1.55874 3 0.795609 3 0 
C 3 -0.795609 2.683901 -1.55874 2.12132 -2.12132 
C 1.55874 -2.683901 0.795609 -3 0 -3 
C -0.795609 -3 -1.55874 -2.683901 -2.12132 -2.12132 
C -2.683901 -1.55874 -3 -0.795609 -3 0 
C -3 0.795609 -2.683901 1.55874 -2.12132 2.12132 
C -1.55874 2.683901 -0.795609 3 0 3 
z
" id="m8e97e5c4a8" style="stroke:#000000;"/>
    </defs>
    <g clip-path="url(#p5cc5a6a7df)">
     <use style="stroke:#000000;" x="221.790383" xlink:href="#m8e97e5c4a8" y="304.306466"/>
    </g>
   </g>
   <g id="PathCollection_2">
    <defs>
     <path d="M 0 2.738613 
C 0.726289 2.738613 1.422928 2.450055 1.936492 1.936492 
C 2.450055 1.422928 2.738613 0.726289 2.738613 0 
C 2.738613 -0.726289 2.450055 -1.422928 1.936492 -1.936492 
C 1.422928 -2.450055 0.726289 -2.738613 0 -2.738613 
C -0.726289 -2.738613 -1.422928 -2.450055 -1.936492 -1.936492 
C -2.450055 -1.422928 -2.738613 -0.726289 -2.738613 0 
C -2.738613 0.726289 -2.450055 1.422928 -1.936492 1.936492 
C -1.422928 2.450055 -0.726289 2.738613 0 2.738613 
z
" id="m150cb1f93b" style="stroke:#000000;"/>
    </defs>
    <g clip-path="url(#p5cc5a6a7df)">
     <use style="stroke:#000000;" x="254.544485" xlink:href="#m150cb1f93b" y="77.091746"/>
    </g>
   </g>
   <g id="Quiver_1">
    <path clip-path="url(#p5cc5a6a7df)" d="M 254.886551 76.370406 
L 271.477375 84.237909 
L 271.440165 82.453163 
L 277.627371 88.037837 
L 269.387773 86.781204 
L 270.793244 85.680589 
L 254.20242 77.813086 
L 254.886551 76.370406 
"/>
   </g>
   <g id="patch_3">
    <path clip-path="url(#p5cc5a6a7df)" d="M 89.7984 300.9312 
C 91.562743 300.9312 93.255061 300.230219 94.50264 298.98264 
C 95.750219 297.735061 96.4512 296.042743 96.4512 294.2784 
C 96.4512 292.514057 95.750219 290.821739 94.50264 289.57416 
C 93.255061 288.326581 91.562743 287.6256 89.7984 287.6256 
C 88.034057 287.6256 86.341739 288.326581 85.09416 289.57416 
C 83.846581 290.821739 83.1456 292.514057 83.1456 294.2784 
C 83.1456 296.042743 83.846581 297.735061 85.09416 298.98264 
C 86.341739 300.230219 88.034057 300.9312 89.7984 300.9312 
z
" style="fill:#9558b2;fill-opacity:0.5;stroke:#9558b2;stroke-linejoin:miter;stroke-width:2;"/>
   </g>
   <g id="patch_4">
    <path clip-path="url(#p5cc5a6a7df)" d="M 116.4096 297.6048 
C 117.291772 297.6048 118.13793 297.25431 118.76172 296.63052 
C 119.38551 296.00673 119.736 295.160572 119.736 294.2784 
C 119.736 293.396228 119.38551 292.55007 118.76172 291.92628 
C 118.13793 291.30249 117.291772 290.952 116.4096 290.952 
C 115.527428 290.952 114.68127 291.30249 114.05748 291.92628 
C 113.43369 292.55007 113.0832 293.396228 113.0832 294.2784 
C 113.0832 295.160572 113.43369 296.00673 114.05748 296.63052 
C 114.68127 297.25431 115.527428 297.6048 116.4096 297.6048 
z
" style="fill:#009900;fill-opacity:0.5;stroke:#009900;stroke-linejoin:miter;stroke-width:2;"/>
   </g>
   <g id="patch_5">
    <path clip-path="url(#p5cc5a6a7df)" d="M 89.7984 274.32 
C 91.562743 274.32 93.255061 273.619019 94.50264 272.37144 
C 95.750219 271.123861 96.4512 269.431543 96.4512 267.6672 
C 96.4512 265.902857 95.750219 264.210539 94.50264 262.96296 
C 93.255061 261.715381 91.562743 261.0144 89.7984 261.0144 
C 88.034057 261.0144 86.341739 261.715381 85.09416 262.96296 
C 83.846581 264.210539 83.1456 265.902857 83.1456 267.6672 
C 83.1456 269.431543 83.846581 271.123861 85.09416 272.37144 
C 86.341739 273.619019 88.034057 274.32 89.7984 274.32 
z
" style="fill:#9558b2;fill-opacity:0.5;stroke:#9558b2;stroke-linejoin:miter;stroke-width:2;"/>
   </g>
   <g id="patch_6">
    <path clip-path="url(#p5cc5a6a7df)" d="M 116.4096 270.9936 
C 117.291772 270.9936 118.13793 270.64311 118.76172 270.01932 
C 119.38551 269.39553 119.736 268.549372 119.736 267.6672 
C 119.736 266.785028 119.38551 265.93887 118.76172 265.31508 
C 118.13793 264.69129 117.291772 264.3408 116.4096 264.3408 
C 115.527428 264.3408 114.68127 264.69129 114.05748 265.31508 
C 113.43369 265.93887 113.0832 266.785028 113.0832 267.6672 
C 113.0832 268.549372 113.43369 269.39553 114.05748 270.01932 
C 114.68127 270.64311 115.527428 270.9936 116.4096 270.9936 
z
" style="fill:#009900;fill-opacity:0.5;stroke:#009900;stroke-linejoin:miter;stroke-width:2;"/>
   </g>
   <g id="patch_7">
    <path clip-path="url(#p5cc5a6a7df)" d="M 89.7984 247.7088 
C 91.562743 247.7088 93.255061 247.007819 94.50264 245.76024 
C 95.750219 244.512661 96.4512 242.820343 96.4512 241.056 
C 96.4512 239.291657 95.750219 237.599339 94.50264 236.35176 
C 93.255061 235.104181 91.562743 234.4032 89.7984 234.4032 
C 88.034057 234.4032 86.341739 235.104181 85.09416 236.35176 
C 83.846581 237.599339 83.1456 239.291657 83.1456 241.056 
C 83.1456 242.820343 83.846581 244.512661 85.09416 245.76024 
C 86.341739 247.007819 88.034057 247.7088 89.7984 247.7088 
z
" style="fill:#9558b2;fill-opacity:0.5;stroke:#9558b2;stroke-linejoin:miter;stroke-width:2;"/>
   </g>
   <g id="patch_8">
    <path clip-path="url(#p5cc5a6a7df)" d="M 116.4096 244.3824 
C 117.291772 244.3824 118.13793 244.03191 118.76172 243.40812 
C 119.38551 242.78433 119.736 241.938172 119.736 241.056 
C 119.736 240.173828 119.38551 239.32767 118.76172 238.70388 
C 118.13793 238.08009 117.291772 237.7296 116.4096 237.7296 
C 115.527428 237.7296 114.68127 238.08009 114.05748 238.70388 
C 113.43369 239.32767 113.0832 240.173828 113.0832 241.056 
C 113.0832 241.938172 113.43369 242.78433 114.05748 243.40812 
C 114.68127 244.03191 115.527428 244.3824 116.4096 244.3824 
z
" style="fill:#009900;fill-opacity:0.5;stroke:#009900;stroke-linejoin:miter;stroke-width:2;"/>
   </g>
   <g id="patch_9">
    <path clip-path="url(#p5cc5a6a7df)" d="M 89.7984 221.0976 
C 91.562743 221.0976 93.255061 220.396619 94.50264 219.14904 
C 95.750219 217.901461 96.4512 216.209143 96.4512 214.4448 
C 96.4512 212.680457 95.750219 210.988139 94.50264 209.74056 
C 93.255061 208.492981 91.562743 207.792 89.7984 207.792 
C 88.034057 207.792 86.341739 208.492981 85.09416 209.74056 
C 83.846581 210.988139 83.1456 212.680457 83.1456 214.4448 
C 83.1456 216.209143 83.846581 217.901461 85.09416 219.14904 
C 86.341739 220.396619 88.034057 221.0976 89.7984 221.0976 
z
" style="fill:#9558b2;fill-opacity:0.5;stroke:#9558b2;stroke-linejoin:miter;stroke-width:2;"/>
   </g>
   <g id="patch_10">
    <path clip-path="url(#p5cc5a6a7df)" d="M 116.4096 217.7712 
C 117.291772 217.7712 118.13793 217.42071 118.76172 216.79692 
C 119.38551 216.17313 119.736 215.326972 119.736 214.4448 
C 119.736 213.562628 119.38551 212.71647 118.76172 212.09268 
C 118.13793 211.46889 117.291772 211.1184 116.4096 211.1184 
C 115.527428 211.1184 114.68127 211.46889 114.05748 212.09268 
C 113.43369 212.71647 113.0832 213.562628 113.0832 214.4448 
C 113.0832 215.326972 113.43369 216.17313 114.05748 216.79692 
C 114.68127 217.42071 115.527428 217.7712 116.4096 217.7712 
z
" style="fill:#009900;fill-opacity:0.5;stroke:#009900;stroke-linejoin:miter;stroke-width:2;"/>
   </g>
   <g id="patch_11">
    <path clip-path="url(#p5cc5a6a7df)" d="M 89.7984 194.4864 
C 91.562743 194.4864 93.255061 193.785419 94.50264 192.53784 
C 95.750219 191.290261 96.4512 189.597943 96.4512 187.8336 
C 96.4512 186.069257 95.750219 184.376939 94.50264 183.12936 
C 93.255061 181.881781 91.562743 181.1808 89.7984 181.1808 
C 88.034057 181.1808 86.341739 181.881781 85.09416 183.12936 
C 83.846581 184.376939 83.1456 186.069257 83.1456 187.8336 
C 83.1456 189.597943 83.846581 191.290261 85.09416 192.53784 
C 86.341739 193.785419 88.034057 194.4864 89.7984 194.4864 
z
" style="fill:#9558b2;fill-opacity:0.5;stroke:#9558b2;stroke-linejoin:miter;stroke-width:2;"/>
   </g>
   <g id="patch_12">
    <path clip-path="url(#p5cc5a6a7df)" d="M 116.4096 191.16 
C 117.291772 191.16 118.13793 190.80951 118.76172 190.18572 
C 119.38551 189.56193 119.736 188.715772 119.736 187.8336 
C 119.736 186.951428 119.38551 186.10527 118.76172 185.48148 
C 118.13793 184.85769 117.291772 184.5072 116.4096 184.5072 
C 115.527428 184.5072 114.68127 184.85769 114.05748 185.48148 
C 113.43369 186.10527 113.0832 186.951428 113.0832 187.8336 
C 113.0832 188.715772 113.43369 189.56193 114.05748 190.18572 
C 114.68127 190.80951 115.527428 191.16 116.4096 191.16 
z
" style="fill:#009900;fill-opacity:0.5;stroke:#009900;stroke-linejoin:miter;stroke-width:2;"/>
   </g>
   <g id="patch_13">
    <path clip-path="url(#p5cc5a6a7df)" d="M 89.7984 167.8752 
C 91.562743 167.8752 93.255061 167.174219 94.50264 165.92664 
C 95.750219 164.679061 96.4512 162.986743 96.4512 161.2224 
C 96.4512 159.458057 95.750219 157.765739 94.50264 156.51816 
C 93.255061 155.270581 91.562743 154.5696 89.7984 154.5696 
C 88.034057 154.5696 86.341739 155.270581 85.09416 156.51816 
C 83.846581 157.765739 83.1456 159.458057 83.1456 161.2224 
C 83.1456 162.986743 83.846581 164.679061 85.09416 165.92664 
C 86.341739 167.174219 88.034057 167.8752 89.7984 167.8752 
z
" style="fill:#9558b2;fill-opacity:0.5;stroke:#9558b2;stroke-linejoin:miter;stroke-width:2;"/>
   </g>
   <g id="patch_14">
    <path clip-path="url(#p5cc5a6a7df)" d="M 116.4096 164.5488 
C 117.291772 164.5488 118.13793 164.19831 118.76172 163.57452 
C 119.38551 162.95073 119.736 162.104572 119.736 161.2224 
C 119.736 160.340228 119.38551 159.49407 118.76172 158.87028 
C 118.13793 158.24649 117.291772 157.896 116.4096 157.896 
C 115.527428 157.896 114.68127 158.24649 114.05748 158.87028 
C 113.43369 159.49407 113.0832 160.340228 113.0832 161.2224 
C 113.0832 162.104572 113.43369 162.95073 114.05748 163.57452 
C 114.68127 164.19831 115.527428 164.5488 116.4096 164.5488 
z
" style="fill:#009900;fill-opacity:0.5;stroke:#009900;stroke-linejoin:miter;stroke-width:2;"/>
   </g>
   <g id="patch_15">
    <path clip-path="url(#p5cc5a6a7df)" d="M 89.7984 141.264 
C 91.562743 141.264 93.255061 140.563019 94.50264 139.31544 
C 95.750219 138.067861 96.4512 136.375543 96.4512 134.6112 
C 96.4512 132.846857 95.750219 131.154539 94.50264 129.90696 
C 93.255061 128.659381 91.562743 127.9584 89.7984 127.9584 
C 88.034057 127.9584 86.341739 128.659381 85.09416 129.90696 
C 83.846581 131.154539 83.1456 132.846857 83.1456 134.6112 
C 83.1456 136.375543 83.846581 138.067861 85.09416 139.31544 
C 86.341739 140.563019 88.034057 141.264 89.7984 141.264 
z
" style="fill:#9558b2;fill-opacity:0.5;stroke:#9558b2;stroke-linejoin:miter;stroke-width:2;"/>
   </g>
   <g id="patch_16">
    <path clip-path="url(#p5cc5a6a7df)" d="M 116.4096 137.9376 
C 117.291772 137.9376 118.13793 137.58711 118.76172 136.96332 
C 119.38551 136.33953 119.736 135.493372 119.736 134.6112 
C 119.736 133.729028 119.38551 132.88287 118.76172 132.25908 
C 118.13793 131.63529 117.291772 131.2848 116.4096 131.2848 
C 115.527428 131.2848 114.68127 131.63529 114.05748 132.25908 
C 113.43369 132.88287 113.0832 133.729028 113.0832 134.6112 
C 113.0832 135.493372 113.43369 136.33953 114.05748 136.96332 
C 114.68127 137.58711 115.527428 137.9376 116.4096 137.9376 
z
" style="fill:#009900;fill-opacity:0.5;stroke:#009900;stroke-linejoin:miter;stroke-width:2;"/>
   </g>
   <g id="patch_17">
    <path clip-path="url(#p5cc5a6a7df)" d="M 89.7984 114.6528 
C 91.562743 114.6528 93.255061 113.951819 94.50264 112.70424 
C 95.750219 111.456661 96.4512 109.764343 96.4512 108 
C 96.4512 106.235657 95.750219 104.543339 94.50264 103.29576 
C 93.255061 102.048181 91.562743 101.3472 89.7984 101.3472 
C 88.034057 101.3472 86.341739 102.048181 85.09416 103.29576 
C 83.846581 104.543339 83.1456 106.235657 83.1456 108 
C 83.1456 109.764343 83.846581 111.456661 85.09416 112.70424 
C 86.341739 113.951819 88.034057 114.6528 89.7984 114.6528 
z
" style="fill:#9558b2;fill-opacity:0.5;stroke:#9558b2;stroke-linejoin:miter;stroke-width:2;"/>
   </g>
   <g id="patch_18">
    <path clip-path="url(#p5cc5a6a7df)" d="M 116.4096 111.3264 
C 117.291772 111.3264 118.13793 110.97591 118.76172 110.35212 
C 119.38551 109.72833 119.736 108.882172 119.736 108 
C 119.736 107.117828 119.38551 106.27167 118.76172 105.64788 
C 118.13793 105.02409 117.291772 104.6736 116.4096 104.6736 
C 115.527428 104.6736 114.68127 105.02409 114.05748 105.64788 
C 113.43369 106.27167 113.0832 107.117828 113.0832 108 
C 113.0832 108.882172 113.43369 109.72833 114.05748 110.35212 
C 114.68127 110.97591 115.527428 111.3264 116.4096 111.3264 
z
" style="fill:#009900;fill-opacity:0.5;stroke:#009900;stroke-linejoin:miter;stroke-width:2;"/>
   </g>
   <g id="patch_19">
    <path clip-path="url(#p5cc5a6a7df)" d="M 89.7984 88.0416 
C 91.562743 88.0416 93.255061 87.340619 94.50264 86.09304 
C 95.750219 84.845461 96.4512 83.153143 96.4512 81.3888 
C 96.4512 79.624457 95.750219 77.932139 94.50264 76.68456 
C 93.255061 75.436981 91.562743 74.736 89.7984 74.736 
C 88.034057 74.736 86.341739 75.436981 85.09416 76.68456 
C 83.846581 77.932139 83.1456 79.624457 83.1456 81.3888 
C 83.1456 83.153143 83.846581 84.845461 85.09416 86.09304 
C 86.341739 87.340619 88.034057 88.0416 89.7984 88.0416 
z
" style="fill:#9558b2;fill-opacity:0.5;stroke:#9558b2;stroke-linejoin:miter;stroke-width:2;"/>
   </g>
   <g id="patch_20">
    <path clip-path="url(#p5cc5a6a7df)" d="M 116.4096 84.7152 
C 117.291772 84.7152 118.13793 84.36471 118.76172 83.74092 
C 119.38551 83.11713 119.736 82.270972 119.736 81.3888 
C 119.736 80.506628 119.38551 79.66047 118.76172 79.03668 
C 118.13793 78.41289 117.291772 78.0624 116.4096 78.0624 
C 115.527428 78.0624 114.68127 78.41289 114.05748 79.03668 
C 113.43369 79.66047 113.0832 80.506628 113.0832 81.3888 
C 113.0832 82.270972 113.43369 83.11713 114.05748 83.74092 
C 114.68127 84.36471 115.527428 84.7152 116.4096 84.7152 
z
" style="fill:#009900;fill-opacity:0.5;stroke:#009900;stroke-linejoin:miter;stroke-width:2;"/>
   </g>
   <g id="patch_21">
    <path clip-path="url(#p5cc5a6a7df)" d="M 89.7984 61.4304 
C 91.562743 61.4304 93.255061 60.729419 94.50264 59.48184 
C 95.750219 58.234261 96.4512 56.541943 96.4512 54.7776 
C 96.4512 53.013257 95.750219 51.320939 94.50264 50.07336 
C 93.255061 48.825781 91.562743 48.1248 89.7984 48.1248 
C 88.034057 48.1248 86.341739 48.825781 85.09416 50.07336 
C 83.846581 51.320939 83.1456 53.013257 83.1456 54.7776 
C 83.1456 56.541943 83.846581 58.234261 85.09416 59.48184 
C 86.341739 60.729419 88.034057 61.4304 89.7984 61.4304 
z
" style="fill:#9558b2;fill-opacity:0.5;stroke:#9558b2;stroke-linejoin:miter;stroke-width:2;"/>
   </g>
   <g id="patch_22">
    <path clip-path="url(#p5cc5a6a7df)" d="M 116.4096 58.104 
C 117.291772 58.104 118.13793 57.75351 118.76172 57.12972 
C 119.38551 56.50593 119.736 55.659772 119.736 54.7776 
C 119.736 53.895428 119.38551 53.04927 118.76172 52.42548 
C 118.13793 51.80169 117.291772 51.4512 116.4096 51.4512 
C 115.527428 51.4512 114.68127 51.80169 114.05748 52.42548 
C 113.43369 53.04927 113.0832 53.895428 113.0832 54.7776 
C 113.0832 55.659772 113.43369 56.50593 114.05748 57.12972 
C 114.68127 57.75351 115.527428 58.104 116.4096 58.104 
z
" style="fill:#009900;fill-opacity:0.5;stroke:#009900;stroke-linejoin:miter;stroke-width:2;"/>
   </g>
   <g id="patch_23">
    <path clip-path="url(#p5cc5a6a7df)" d="M 143.0208 300.9312 
C 144.785143 300.9312 146.477461 300.230219 147.72504 298.98264 
C 148.972619 297.735061 149.6736 296.042743 149.6736 294.2784 
C 149.6736 292.514057 148.972619 290.821739 147.72504 289.57416 
C 146.477461 288.326581 144.785143 287.6256 143.0208 287.6256 
C 141.256457 287.6256 139.564139 288.326581 138.31656 289.57416 
C 137.068981 290.821739 136.368 292.514057 136.368 294.2784 
C 136.368 296.042743 137.068981 297.735061 138.31656 298.98264 
C 139.564139 300.230219 141.256457 300.9312 143.0208 300.9312 
z
" style="fill:#9558b2;fill-opacity:0.5;stroke:#9558b2;stroke-linejoin:miter;stroke-width:2;"/>
   </g>
   <g id="patch_24">
    <path clip-path="url(#p5cc5a6a7df)" d="M 169.632 297.6048 
C 170.514172 297.6048 171.36033 297.25431 171.98412 296.63052 
C 172.60791 296.00673 172.9584 295.160572 172.9584 294.2784 
C 172.9584 293.396228 172.60791 292.55007 171.98412 291.92628 
C 171.36033 291.30249 170.514172 290.952 169.632 290.952 
C 168.749828 290.952 167.90367 291.30249 167.27988 291.92628 
C 166.65609 292.55007 166.3056 293.396228 166.3056 294.2784 
C 166.3056 295.160572 166.65609 296.00673 167.27988 296.63052 
C 167.90367 297.25431 168.749828 297.6048 169.632 297.6048 
z
" style="fill:#009900;fill-opacity:0.5;stroke:#009900;stroke-linejoin:miter;stroke-width:2;"/>
   </g>
   <g id="patch_25">
    <path clip-path="url(#p5cc5a6a7df)" d="M 143.0208 274.32 
C 144.785143 274.32 146.477461 273.619019 147.72504 272.37144 
C 148.972619 271.123861 149.6736 269.431543 149.6736 267.6672 
C 149.6736 265.902857 148.972619 264.210539 147.72504 262.96296 
C 146.477461 261.715381 144.785143 261.0144 143.0208 261.0144 
C 141.256457 261.0144 139.564139 261.715381 138.31656 262.96296 
C 137.068981 264.210539 136.368 265.902857 136.368 267.6672 
C 136.368 269.431543 137.068981 271.123861 138.31656 272.37144 
C 139.564139 273.619019 141.256457 274.32 143.0208 274.32 
z
" style="fill:#9558b2;fill-opacity:0.5;stroke:#9558b2;stroke-linejoin:miter;stroke-width:2;"/>
   </g>
   <g id="patch_26">
    <path clip-path="url(#p5cc5a6a7df)" d="M 169.632 270.9936 
C 170.514172 270.9936 171.36033 270.64311 171.98412 270.01932 
C 172.60791 269.39553 172.9584 268.549372 172.9584 267.6672 
C 172.9584 266.785028 172.60791 265.93887 171.98412 265.31508 
C 171.36033 264.69129 170.514172 264.3408 169.632 264.3408 
C 168.749828 264.3408 167.90367 264.69129 167.27988 265.31508 
C 166.65609 265.93887 166.3056 266.785028 166.3056 267.6672 
C 166.3056 268.549372 166.65609 269.39553 167.27988 270.01932 
C 167.90367 270.64311 168.749828 270.9936 169.632 270.9936 
z
" style="fill:#009900;fill-opacity:0.5;stroke:#009900;stroke-linejoin:miter;stroke-width:2;"/>
   </g>
   <g id="patch_27">
    <path clip-path="url(#p5cc5a6a7df)" d="M 143.0208 247.7088 
C 144.785143 247.7088 146.477461 247.007819 147.72504 245.76024 
C 148.972619 244.512661 149.6736 242.820343 149.6736 241.056 
C 149.6736 239.291657 148.972619 237.599339 147.72504 236.35176 
C 146.477461 235.104181 144.785143 234.4032 143.0208 234.4032 
C 141.256457 234.4032 139.564139 235.104181 138.31656 236.35176 
C 137.068981 237.599339 136.368 239.291657 136.368 241.056 
C 136.368 242.820343 137.068981 244.512661 138.31656 245.76024 
C 139.564139 247.007819 141.256457 247.7088 143.0208 247.7088 
z
" style="fill:#9558b2;fill-opacity:0.5;stroke:#9558b2;stroke-linejoin:miter;stroke-width:2;"/>
   </g>
   <g id="patch_28">
    <path clip-path="url(#p5cc5a6a7df)" d="M 169.632 244.3824 
C 170.514172 244.3824 171.36033 244.03191 171.98412 243.40812 
C 172.60791 242.78433 172.9584 241.938172 172.9584 241.056 
C 172.9584 240.173828 172.60791 239.32767 171.98412 238.70388 
C 171.36033 238.08009 170.514172 237.7296 169.632 237.7296 
C 168.749828 237.7296 167.90367 238.08009 167.27988 238.70388 
C 166.65609 239.32767 166.3056 240.173828 166.3056 241.056 
C 166.3056 241.938172 166.65609 242.78433 167.27988 243.40812 
C 167.90367 244.03191 168.749828 244.3824 169.632 244.3824 
z
" style="fill:#009900;fill-opacity:0.5;stroke:#009900;stroke-linejoin:miter;stroke-width:2;"/>
   </g>
   <g id="patch_29">
    <path clip-path="url(#p5cc5a6a7df)" d="M 143.0208 221.0976 
C 144.785143 221.0976 146.477461 220.396619 147.72504 219.14904 
C 148.972619 217.901461 149.6736 216.209143 149.6736 214.4448 
C 149.6736 212.680457 148.972619 210.988139 147.72504 209.74056 
C 146.477461 208.492981 144.785143 207.792 143.0208 207.792 
C 141.256457 207.792 139.564139 208.492981 138.31656 209.74056 
C 137.068981 210.988139 136.368 212.680457 136.368 214.4448 
C 136.368 216.209143 137.068981 217.901461 138.31656 219.14904 
C 139.564139 220.396619 141.256457 221.0976 143.0208 221.0976 
z
" style="fill:#9558b2;fill-opacity:0.5;stroke:#9558b2;stroke-linejoin:miter;stroke-width:2;"/>
   </g>
   <g id="patch_30">
    <path clip-path="url(#p5cc5a6a7df)" d="M 169.632 217.7712 
C 170.514172 217.7712 171.36033 217.42071 171.98412 216.79692 
C 172.60791 216.17313 172.9584 215.326972 172.9584 214.4448 
C 172.9584 213.562628 172.60791 212.71647 171.98412 212.09268 
C 171.36033 211.46889 170.514172 211.1184 169.632 211.1184 
C 168.749828 211.1184 167.90367 211.46889 167.27988 212.09268 
C 166.65609 212.71647 166.3056 213.562628 166.3056 214.4448 
C 166.3056 215.326972 166.65609 216.17313 167.27988 216.79692 
C 167.90367 217.42071 168.749828 217.7712 169.632 217.7712 
z
" style="fill:#009900;fill-opacity:0.5;stroke:#009900;stroke-linejoin:miter;stroke-width:2;"/>
   </g>
   <g id="patch_31">
    <path clip-path="url(#p5cc5a6a7df)" d="M 143.0208 194.4864 
C 144.785143 194.4864 146.477461 193.785419 147.72504 192.53784 
C 148.972619 191.290261 149.6736 189.597943 149.6736 187.8336 
C 149.6736 186.069257 148.972619 184.376939 147.72504 183.12936 
C 146.477461 181.881781 144.785143 181.1808 143.0208 181.1808 
C 141.256457 181.1808 139.564139 181.881781 138.31656 183.12936 
C 137.068981 184.376939 136.368 186.069257 136.368 187.8336 
C 136.368 189.597943 137.068981 191.290261 138.31656 192.53784 
C 139.564139 193.785419 141.256457 194.4864 143.0208 194.4864 
z
" style="fill:#9558b2;fill-opacity:0.5;stroke:#9558b2;stroke-linejoin:miter;stroke-width:2;"/>
   </g>
   <g id="patch_32">
    <path clip-path="url(#p5cc5a6a7df)" d="M 169.632 191.16 
C 170.514172 191.16 171.36033 190.80951 171.98412 190.18572 
C 172.60791 189.56193 172.9584 188.715772 172.9584 187.8336 
C 172.9584 186.951428 172.60791 186.10527 171.98412 185.48148 
C 171.36033 184.85769 170.514172 184.5072 169.632 184.5072 
C 168.749828 184.5072 167.90367 184.85769 167.27988 185.48148 
C 166.65609 186.10527 166.3056 186.951428 166.3056 187.8336 
C 166.3056 188.715772 166.65609 189.56193 167.27988 190.18572 
C 167.90367 190.80951 168.749828 191.16 169.632 191.16 
z
" style="fill:#009900;fill-opacity:0.5;stroke:#009900;stroke-linejoin:miter;stroke-width:2;"/>
   </g>
   <g id="patch_33">
    <path clip-path="url(#p5cc5a6a7df)" d="M 143.0208 167.8752 
C 144.785143 167.8752 146.477461 167.174219 147.72504 165.92664 
C 148.972619 164.679061 149.6736 162.986743 149.6736 161.2224 
C 149.6736 159.458057 148.972619 157.765739 147.72504 156.51816 
C 146.477461 155.270581 144.785143 154.5696 143.0208 154.5696 
C 141.256457 154.5696 139.564139 155.270581 138.31656 156.51816 
C 137.068981 157.765739 136.368 159.458057 136.368 161.2224 
C 136.368 162.986743 137.068981 164.679061 138.31656 165.92664 
C 139.564139 167.174219 141.256457 167.8752 143.0208 167.8752 
z
" style="fill:#9558b2;fill-opacity:0.5;stroke:#9558b2;stroke-linejoin:miter;stroke-width:2;"/>
   </g>
   <g id="patch_34">
    <path clip-path="url(#p5cc5a6a7df)" d="M 169.632 164.5488 
C 170.514172 164.5488 171.36033 164.19831 171.98412 163.57452 
C 172.60791 162.95073 172.9584 162.104572 172.9584 161.2224 
C 172.9584 160.340228 172.60791 159.49407 171.98412 158.87028 
C 171.36033 158.24649 170.514172 157.896 169.632 157.896 
C 168.749828 157.896 167.90367 158.24649 167.27988 158.87028 
C 166.65609 159.49407 166.3056 160.340228 166.3056 161.2224 
C 166.3056 162.104572 166.65609 162.95073 167.27988 163.57452 
C 167.90367 164.19831 168.749828 164.5488 169.632 164.5488 
z
" style="fill:#009900;fill-opacity:0.5;stroke:#009900;stroke-linejoin:miter;stroke-width:2;"/>
   </g>
   <g id="patch_35">
    <path clip-path="url(#p5cc5a6a7df)" d="M 143.0208 141.264 
C 144.785143 141.264 146.477461 140.563019 147.72504 139.31544 
C 148.972619 138.067861 149.6736 136.375543 149.6736 134.6112 
C 149.6736 132.846857 148.972619 131.154539 147.72504 129.90696 
C 146.477461 128.659381 144.785143 127.9584 143.0208 127.9584 
C 141.256457 127.9584 139.564139 128.659381 138.31656 129.90696 
C 137.068981 131.154539 136.368 132.846857 136.368 134.6112 
C 136.368 136.375543 137.068981 138.067861 138.31656 139.31544 
C 139.564139 140.563019 141.256457 141.264 143.0208 141.264 
z
" style="fill:#9558b2;fill-opacity:0.5;stroke:#9558b2;stroke-linejoin:miter;stroke-width:2;"/>
   </g>
   <g id="patch_36">
    <path clip-path="url(#p5cc5a6a7df)" d="M 169.632 137.9376 
C 170.514172 137.9376 171.36033 137.58711 171.98412 136.96332 
C 172.60791 136.33953 172.9584 135.493372 172.9584 134.6112 
C 172.9584 133.729028 172.60791 132.88287 171.98412 132.25908 
C 171.36033 131.63529 170.514172 131.2848 169.632 131.2848 
C 168.749828 131.2848 167.90367 131.63529 167.27988 132.25908 
C 166.65609 132.88287 166.3056 133.729028 166.3056 134.6112 
C 166.3056 135.493372 166.65609 136.33953 167.27988 136.96332 
C 167.90367 137.58711 168.749828 137.9376 169.632 137.9376 
z
" style="fill:#009900;fill-opacity:0.5;stroke:#009900;stroke-linejoin:miter;stroke-width:2;"/>
   </g>
   <g id="patch_37">
    <path clip-path="url(#p5cc5a6a7df)" d="M 143.0208 114.6528 
C 144.785143 114.6528 146.477461 113.951819 147.72504 112.70424 
C 148.972619 111.456661 149.6736 109.764343 149.6736 108 
C 149.6736 106.235657 148.972619 104.543339 147.72504 103.29576 
C 146.477461 102.048181 144.785143 101.3472 143.0208 101.3472 
C 141.256457 101.3472 139.564139 102.048181 138.31656 103.29576 
C 137.068981 104.543339 136.368 106.235657 136.368 108 
C 136.368 109.764343 137.068981 111.456661 138.31656 112.70424 
C 139.564139 113.951819 141.256457 114.6528 143.0208 114.6528 
z
" style="fill:#9558b2;fill-opacity:0.5;stroke:#9558b2;stroke-linejoin:miter;stroke-width:2;"/>
   </g>
   <g id="patch_38">
    <path clip-path="url(#p5cc5a6a7df)" d="M 169.632 111.3264 
C 170.514172 111.3264 171.36033 110.97591 171.98412 110.35212 
C 172.60791 109.72833 172.9584 108.882172 172.9584 108 
C 172.9584 107.117828 172.60791 106.27167 171.98412 105.64788 
C 171.36033 105.02409 170.514172 104.6736 169.632 104.6736 
C 168.749828 104.6736 167.90367 105.02409 167.27988 105.64788 
C 166.65609 106.27167 166.3056 107.117828 166.3056 108 
C 166.3056 108.882172 166.65609 109.72833 167.27988 110.35212 
C 167.90367 110.97591 168.749828 111.3264 169.632 111.3264 
z
" style="fill:#009900;fill-opacity:0.5;stroke:#009900;stroke-linejoin:miter;stroke-width:2;"/>
   </g>
   <g id="patch_39">
    <path clip-path="url(#p5cc5a6a7df)" d="M 143.0208 88.0416 
C 144.785143 88.0416 146.477461 87.340619 147.72504 86.09304 
C 148.972619 84.845461 149.6736 83.153143 149.6736 81.3888 
C 149.6736 79.624457 148.972619 77.932139 147.72504 76.68456 
C 146.477461 75.436981 144.785143 74.736 143.0208 74.736 
C 141.256457 74.736 139.564139 75.436981 138.31656 76.68456 
C 137.068981 77.932139 136.368 79.624457 136.368 81.3888 
C 136.368 83.153143 137.068981 84.845461 138.31656 86.09304 
C 139.564139 87.340619 141.256457 88.0416 143.0208 88.0416 
z
" style="fill:#9558b2;fill-opacity:0.5;stroke:#9558b2;stroke-linejoin:miter;stroke-width:2;"/>
   </g>
   <g id="patch_40">
    <path clip-path="url(#p5cc5a6a7df)" d="M 169.632 84.7152 
C 170.514172 84.7152 171.36033 84.36471 171.98412 83.74092 
C 172.60791 83.11713 172.9584 82.270972 172.9584 81.3888 
C 172.9584 80.506628 172.60791 79.66047 171.98412 79.03668 
C 171.36033 78.41289 170.514172 78.0624 169.632 78.0624 
C 168.749828 78.0624 167.90367 78.41289 167.27988 79.03668 
C 166.65609 79.66047 166.3056 80.506628 166.3056 81.3888 
C 166.3056 82.270972 166.65609 83.11713 167.27988 83.74092 
C 167.90367 84.36471 168.749828 84.7152 169.632 84.7152 
z
" style="fill:#009900;fill-opacity:0.5;stroke:#009900;stroke-linejoin:miter;stroke-width:2;"/>
   </g>
   <g id="patch_41">
    <path clip-path="url(#p5cc5a6a7df)" d="M 143.0208 61.4304 
C 144.785143 61.4304 146.477461 60.729419 147.72504 59.48184 
C 148.972619 58.234261 149.6736 56.541943 149.6736 54.7776 
C 149.6736 53.013257 148.972619 51.320939 147.72504 50.07336 
C 146.477461 48.825781 144.785143 48.1248 143.0208 48.1248 
C 141.256457 48.1248 139.564139 48.825781 138.31656 50.07336 
C 137.068981 51.320939 136.368 53.013257 136.368 54.7776 
C 136.368 56.541943 137.068981 58.234261 138.31656 59.48184 
C 139.564139 60.729419 141.256457 61.4304 143.0208 61.4304 
z
" style="fill:#9558b2;fill-opacity:0.5;stroke:#9558b2;stroke-linejoin:miter;stroke-width:2;"/>
   </g>
   <g id="patch_42">
    <path clip-path="url(#p5cc5a6a7df)" d="M 169.632 58.104 
C 170.514172 58.104 171.36033 57.75351 171.98412 57.12972 
C 172.60791 56.50593 172.9584 55.659772 172.9584 54.7776 
C 172.9584 53.895428 172.60791 53.04927 171.98412 52.42548 
C 171.36033 51.80169 170.514172 51.4512 169.632 51.4512 
C 168.749828 51.4512 167.90367 51.80169 167.27988 52.42548 
C 166.65609 53.04927 166.3056 53.895428 166.3056 54.7776 
C 166.3056 55.659772 166.65609 56.50593 167.27988 57.12972 
C 167.90367 57.75351 168.749828 58.104 169.632 58.104 
z
" style="fill:#009900;fill-opacity:0.5;stroke:#009900;stroke-linejoin:miter;stroke-width:2;"/>
   </g>
   <g id="patch_43">
    <path clip-path="url(#p5cc5a6a7df)" d="M 196.2432 300.9312 
C 198.007543 300.9312 199.699861 300.230219 200.94744 298.98264 
C 202.195019 297.735061 202.896 296.042743 202.896 294.2784 
C 202.896 292.514057 202.195019 290.821739 200.94744 289.57416 
C 199.699861 288.326581 198.007543 287.6256 196.2432 287.6256 
C 194.478857 287.6256 192.786539 288.326581 191.53896 289.57416 
C 190.291381 290.821739 189.5904 292.514057 189.5904 294.2784 
C 189.5904 296.042743 190.291381 297.735061 191.53896 298.98264 
C 192.786539 300.230219 194.478857 300.9312 196.2432 300.9312 
z
" style="fill:#9558b2;fill-opacity:0.5;stroke:#9558b2;stroke-linejoin:miter;stroke-width:2;"/>
   </g>
   <g id="patch_44">
    <path clip-path="url(#p5cc5a6a7df)" d="M 222.8544 297.6048 
C 223.736572 297.6048 224.58273 297.25431 225.20652 296.63052 
C 225.83031 296.00673 226.1808 295.160572 226.1808 294.2784 
C 226.1808 293.396228 225.83031 292.55007 225.20652 291.92628 
C 224.58273 291.30249 223.736572 290.952 222.8544 290.952 
C 221.972228 290.952 221.12607 291.30249 220.50228 291.92628 
C 219.87849 292.55007 219.528 293.396228 219.528 294.2784 
C 219.528 295.160572 219.87849 296.00673 220.50228 296.63052 
C 221.12607 297.25431 221.972228 297.6048 222.8544 297.6048 
z
" style="fill:#009900;fill-opacity:0.5;stroke:#009900;stroke-linejoin:miter;stroke-width:2;"/>
   </g>
   <g id="patch_45">
    <path clip-path="url(#p5cc5a6a7df)" d="M 196.2432 274.32 
C 198.007543 274.32 199.699861 273.619019 200.94744 272.37144 
C 202.195019 271.123861 202.896 269.431543 202.896 267.6672 
C 202.896 265.902857 202.195019 264.210539 200.94744 262.96296 
C 199.699861 261.715381 198.007543 261.0144 196.2432 261.0144 
C 194.478857 261.0144 192.786539 261.715381 191.53896 262.96296 
C 190.291381 264.210539 189.5904 265.902857 189.5904 267.6672 
C 189.5904 269.431543 190.291381 271.123861 191.53896 272.37144 
C 192.786539 273.619019 194.478857 274.32 196.2432 274.32 
z
" style="fill:#9558b2;fill-opacity:0.5;stroke:#9558b2;stroke-linejoin:miter;stroke-width:2;"/>
   </g>
   <g id="patch_46">
    <path clip-path="url(#p5cc5a6a7df)" d="M 222.8544 270.9936 
C 223.736572 270.9936 224.58273 270.64311 225.20652 270.01932 
C 225.83031 269.39553 226.1808 268.549372 226.1808 267.6672 
C 226.1808 266.785028 225.83031 265.93887 225.20652 265.31508 
C 224.58273 264.69129 223.736572 264.3408 222.8544 264.3408 
C 221.972228 264.3408 221.12607 264.69129 220.50228 265.31508 
C 219.87849 265.93887 219.528 266.785028 219.528 267.6672 
C 219.528 268.549372 219.87849 269.39553 220.50228 270.01932 
C 221.12607 270.64311 221.972228 270.9936 222.8544 270.9936 
z
" style="fill:#009900;fill-opacity:0.5;stroke:#009900;stroke-linejoin:miter;stroke-width:2;"/>
   </g>
   <g id="patch_47">
    <path clip-path="url(#p5cc5a6a7df)" d="M 196.2432 247.7088 
C 198.007543 247.7088 199.699861 247.007819 200.94744 245.76024 
C 202.195019 244.512661 202.896 242.820343 202.896 241.056 
C 202.896 239.291657 202.195019 237.599339 200.94744 236.35176 
C 199.699861 235.104181 198.007543 234.4032 196.2432 234.4032 
C 194.478857 234.4032 192.786539 235.104181 191.53896 236.35176 
C 190.291381 237.599339 189.5904 239.291657 189.5904 241.056 
C 189.5904 242.820343 190.291381 244.512661 191.53896 245.76024 
C 192.786539 247.007819 194.478857 247.7088 196.2432 247.7088 
z
" style="fill:#9558b2;fill-opacity:0.5;stroke:#9558b2;stroke-linejoin:miter;stroke-width:2;"/>
   </g>
   <g id="patch_48">
    <path clip-path="url(#p5cc5a6a7df)" d="M 222.8544 244.3824 
C 223.736572 244.3824 224.58273 244.03191 225.20652 243.40812 
C 225.83031 242.78433 226.1808 241.938172 226.1808 241.056 
C 226.1808 240.173828 225.83031 239.32767 225.20652 238.70388 
C 224.58273 238.08009 223.736572 237.7296 222.8544 237.7296 
C 221.972228 237.7296 221.12607 238.08009 220.50228 238.70388 
C 219.87849 239.32767 219.528 240.173828 219.528 241.056 
C 219.528 241.938172 219.87849 242.78433 220.50228 243.40812 
C 221.12607 244.03191 221.972228 244.3824 222.8544 244.3824 
z
" style="fill:#009900;fill-opacity:0.5;stroke:#009900;stroke-linejoin:miter;stroke-width:2;"/>
   </g>
   <g id="patch_49">
    <path clip-path="url(#p5cc5a6a7df)" d="M 196.2432 221.0976 
C 198.007543 221.0976 199.699861 220.396619 200.94744 219.14904 
C 202.195019 217.901461 202.896 216.209143 202.896 214.4448 
C 202.896 212.680457 202.195019 210.988139 200.94744 209.74056 
C 199.699861 208.492981 198.007543 207.792 196.2432 207.792 
C 194.478857 207.792 192.786539 208.492981 191.53896 209.74056 
C 190.291381 210.988139 189.5904 212.680457 189.5904 214.4448 
C 189.5904 216.209143 190.291381 217.901461 191.53896 219.14904 
C 192.786539 220.396619 194.478857 221.0976 196.2432 221.0976 
z
" style="fill:#9558b2;fill-opacity:0.5;stroke:#9558b2;stroke-linejoin:miter;stroke-width:2;"/>
   </g>
   <g id="patch_50">
    <path clip-path="url(#p5cc5a6a7df)" d="M 222.8544 217.7712 
C 223.736572 217.7712 224.58273 217.42071 225.20652 216.79692 
C 225.83031 216.17313 226.1808 215.326972 226.1808 214.4448 
C 226.1808 213.562628 225.83031 212.71647 225.20652 212.09268 
C 224.58273 211.46889 223.736572 211.1184 222.8544 211.1184 
C 221.972228 211.1184 221.12607 211.46889 220.50228 212.09268 
C 219.87849 212.71647 219.528 213.562628 219.528 214.4448 
C 219.528 215.326972 219.87849 216.17313 220.50228 216.79692 
C 221.12607 217.42071 221.972228 217.7712 222.8544 217.7712 
z
" style="fill:#009900;fill-opacity:0.5;stroke:#009900;stroke-linejoin:miter;stroke-width:2;"/>
   </g>
   <g id="patch_51">
    <path clip-path="url(#p5cc5a6a7df)" d="M 196.2432 194.4864 
C 198.007543 194.4864 199.699861 193.785419 200.94744 192.53784 
C 202.195019 191.290261 202.896 189.597943 202.896 187.8336 
C 202.896 186.069257 202.195019 184.376939 200.94744 183.12936 
C 199.699861 181.881781 198.007543 181.1808 196.2432 181.1808 
C 194.478857 181.1808 192.786539 181.881781 191.53896 183.12936 
C 190.291381 184.376939 189.5904 186.069257 189.5904 187.8336 
C 189.5904 189.597943 190.291381 191.290261 191.53896 192.53784 
C 192.786539 193.785419 194.478857 194.4864 196.2432 194.4864 
z
" style="fill:#9558b2;fill-opacity:0.5;stroke:#9558b2;stroke-linejoin:miter;stroke-width:2;"/>
   </g>
   <g id="patch_52">
    <path clip-path="url(#p5cc5a6a7df)" d="M 222.8544 191.16 
C 223.736572 191.16 224.58273 190.80951 225.20652 190.18572 
C 225.83031 189.56193 226.1808 188.715772 226.1808 187.8336 
C 226.1808 186.951428 225.83031 186.10527 225.20652 185.48148 
C 224.58273 184.85769 223.736572 184.5072 222.8544 184.5072 
C 221.972228 184.5072 221.12607 184.85769 220.50228 185.48148 
C 219.87849 186.10527 219.528 186.951428 219.528 187.8336 
C 219.528 188.715772 219.87849 189.56193 220.50228 190.18572 
C 221.12607 190.80951 221.972228 191.16 222.8544 191.16 
z
" style="fill:#009900;fill-opacity:0.5;stroke:#009900;stroke-linejoin:miter;stroke-width:2;"/>
   </g>
   <g id="patch_53">
    <path clip-path="url(#p5cc5a6a7df)" d="M 196.2432 167.8752 
C 198.007543 167.8752 199.699861 167.174219 200.94744 165.92664 
C 202.195019 164.679061 202.896 162.986743 202.896 161.2224 
C 202.896 159.458057 202.195019 157.765739 200.94744 156.51816 
C 199.699861 155.270581 198.007543 154.5696 196.2432 154.5696 
C 194.478857 154.5696 192.786539 155.270581 191.53896 156.51816 
C 190.291381 157.765739 189.5904 159.458057 189.5904 161.2224 
C 189.5904 162.986743 190.291381 164.679061 191.53896 165.92664 
C 192.786539 167.174219 194.478857 167.8752 196.2432 167.8752 
z
" style="fill:#9558b2;fill-opacity:0.5;stroke:#9558b2;stroke-linejoin:miter;stroke-width:2;"/>
   </g>
   <g id="patch_54">
    <path clip-path="url(#p5cc5a6a7df)" d="M 222.8544 164.5488 
C 223.736572 164.5488 224.58273 164.19831 225.20652 163.57452 
C 225.83031 162.95073 226.1808 162.104572 226.1808 161.2224 
C 226.1808 160.340228 225.83031 159.49407 225.20652 158.87028 
C 224.58273 158.24649 223.736572 157.896 222.8544 157.896 
C 221.972228 157.896 221.12607 158.24649 220.50228 158.87028 
C 219.87849 159.49407 219.528 160.340228 219.528 161.2224 
C 219.528 162.104572 219.87849 162.95073 220.50228 163.57452 
C 221.12607 164.19831 221.972228 164.5488 222.8544 164.5488 
z
" style="fill:#009900;fill-opacity:0.5;stroke:#009900;stroke-linejoin:miter;stroke-width:2;"/>
   </g>
   <g id="patch_55">
    <path clip-path="url(#p5cc5a6a7df)" d="M 196.2432 141.264 
C 198.007543 141.264 199.699861 140.563019 200.94744 139.31544 
C 202.195019 138.067861 202.896 136.375543 202.896 134.6112 
C 202.896 132.846857 202.195019 131.154539 200.94744 129.90696 
C 199.699861 128.659381 198.007543 127.9584 196.2432 127.9584 
C 194.478857 127.9584 192.786539 128.659381 191.53896 129.90696 
C 190.291381 131.154539 189.5904 132.846857 189.5904 134.6112 
C 189.5904 136.375543 190.291381 138.067861 191.53896 139.31544 
C 192.786539 140.563019 194.478857 141.264 196.2432 141.264 
z
" style="fill:#9558b2;fill-opacity:0.5;stroke:#9558b2;stroke-linejoin:miter;stroke-width:2;"/>
   </g>
   <g id="patch_56">
    <path clip-path="url(#p5cc5a6a7df)" d="M 222.8544 137.9376 
C 223.736572 137.9376 224.58273 137.58711 225.20652 136.96332 
C 225.83031 136.33953 226.1808 135.493372 226.1808 134.6112 
C 226.1808 133.729028 225.83031 132.88287 225.20652 132.25908 
C 224.58273 131.63529 223.736572 131.2848 222.8544 131.2848 
C 221.972228 131.2848 221.12607 131.63529 220.50228 132.25908 
C 219.87849 132.88287 219.528 133.729028 219.528 134.6112 
C 219.528 135.493372 219.87849 136.33953 220.50228 136.96332 
C 221.12607 137.58711 221.972228 137.9376 222.8544 137.9376 
z
" style="fill:#009900;fill-opacity:0.5;stroke:#009900;stroke-linejoin:miter;stroke-width:2;"/>
   </g>
   <g id="patch_57">
    <path clip-path="url(#p5cc5a6a7df)" d="M 196.2432 114.6528 
C 198.007543 114.6528 199.699861 113.951819 200.94744 112.70424 
C 202.195019 111.456661 202.896 109.764343 202.896 108 
C 202.896 106.235657 202.195019 104.543339 200.94744 103.29576 
C 199.699861 102.048181 198.007543 101.3472 196.2432 101.3472 
C 194.478857 101.3472 192.786539 102.048181 191.53896 103.29576 
C 190.291381 104.543339 189.5904 106.235657 189.5904 108 
C 189.5904 109.764343 190.291381 111.456661 191.53896 112.70424 
C 192.786539 113.951819 194.478857 114.6528 196.2432 114.6528 
z
" style="fill:#9558b2;fill-opacity:0.5;stroke:#9558b2;stroke-linejoin:miter;stroke-width:2;"/>
   </g>
   <g id="patch_58">
    <path clip-path="url(#p5cc5a6a7df)" d="M 222.8544 111.3264 
C 223.736572 111.3264 224.58273 110.97591 225.20652 110.35212 
C 225.83031 109.72833 226.1808 108.882172 226.1808 108 
C 226.1808 107.117828 225.83031 106.27167 225.20652 105.64788 
C 224.58273 105.02409 223.736572 104.6736 222.8544 104.6736 
C 221.972228 104.6736 221.12607 105.02409 220.50228 105.64788 
C 219.87849 106.27167 219.528 107.117828 219.528 108 
C 219.528 108.882172 219.87849 109.72833 220.50228 110.35212 
C 221.12607 110.97591 221.972228 111.3264 222.8544 111.3264 
z
" style="fill:#009900;fill-opacity:0.5;stroke:#009900;stroke-linejoin:miter;stroke-width:2;"/>
   </g>
   <g id="patch_59">
    <path clip-path="url(#p5cc5a6a7df)" d="M 196.2432 88.0416 
C 198.007543 88.0416 199.699861 87.340619 200.94744 86.09304 
C 202.195019 84.845461 202.896 83.153143 202.896 81.3888 
C 202.896 79.624457 202.195019 77.932139 200.94744 76.68456 
C 199.699861 75.436981 198.007543 74.736 196.2432 74.736 
C 194.478857 74.736 192.786539 75.436981 191.53896 76.68456 
C 190.291381 77.932139 189.5904 79.624457 189.5904 81.3888 
C 189.5904 83.153143 190.291381 84.845461 191.53896 86.09304 
C 192.786539 87.340619 194.478857 88.0416 196.2432 88.0416 
z
" style="fill:#9558b2;fill-opacity:0.5;stroke:#9558b2;stroke-linejoin:miter;stroke-width:2;"/>
   </g>
   <g id="patch_60">
    <path clip-path="url(#p5cc5a6a7df)" d="M 222.8544 84.7152 
C 223.736572 84.7152 224.58273 84.36471 225.20652 83.74092 
C 225.83031 83.11713 226.1808 82.270972 226.1808 81.3888 
C 226.1808 80.506628 225.83031 79.66047 225.20652 79.03668 
C 224.58273 78.41289 223.736572 78.0624 222.8544 78.0624 
C 221.972228 78.0624 221.12607 78.41289 220.50228 79.03668 
C 219.87849 79.66047 219.528 80.506628 219.528 81.3888 
C 219.528 82.270972 219.87849 83.11713 220.50228 83.74092 
C 221.12607 84.36471 221.972228 84.7152 222.8544 84.7152 
z
" style="fill:#009900;fill-opacity:0.5;stroke:#009900;stroke-linejoin:miter;stroke-width:2;"/>
   </g>
   <g id="patch_61">
    <path clip-path="url(#p5cc5a6a7df)" d="M 196.2432 61.4304 
C 198.007543 61.4304 199.699861 60.729419 200.94744 59.48184 
C 202.195019 58.234261 202.896 56.541943 202.896 54.7776 
C 202.896 53.013257 202.195019 51.320939 200.94744 50.07336 
C 199.699861 48.825781 198.007543 48.1248 196.2432 48.1248 
C 194.478857 48.1248 192.786539 48.825781 191.53896 50.07336 
C 190.291381 51.320939 189.5904 53.013257 189.5904 54.7776 
C 189.5904 56.541943 190.291381 58.234261 191.53896 59.48184 
C 192.786539 60.729419 194.478857 61.4304 196.2432 61.4304 
z
" style="fill:#9558b2;fill-opacity:0.5;stroke:#9558b2;stroke-linejoin:miter;stroke-width:2;"/>
   </g>
   <g id="patch_62">
    <path clip-path="url(#p5cc5a6a7df)" d="M 222.8544 58.104 
C 223.736572 58.104 224.58273 57.75351 225.20652 57.12972 
C 225.83031 56.50593 226.1808 55.659772 226.1808 54.7776 
C 226.1808 53.895428 225.83031 53.04927 225.20652 52.42548 
C 224.58273 51.80169 223.736572 51.4512 222.8544 51.4512 
C 221.972228 51.4512 221.12607 51.80169 220.50228 52.42548 
C 219.87849 53.04927 219.528 53.895428 219.528 54.7776 
C 219.528 55.659772 219.87849 56.50593 220.50228 57.12972 
C 221.12607 57.75351 221.972228 58.104 222.8544 58.104 
z
" style="fill:#009900;fill-opacity:0.5;stroke:#009900;stroke-linejoin:miter;stroke-width:2;"/>
   </g>
   <g id="patch_63">
    <path clip-path="url(#p5cc5a6a7df)" d="M 249.4656 300.9312 
C 251.229943 300.9312 252.922261 300.230219 254.16984 298.98264 
C 255.417419 297.735061 256.1184 296.042743 256.1184 294.2784 
C 256.1184 292.514057 255.417419 290.821739 254.16984 289.57416 
C 252.922261 288.326581 251.229943 287.6256 249.4656 287.6256 
C 247.701257 287.6256 246.008939 288.326581 244.76136 289.57416 
C 243.513781 290.821739 242.8128 292.514057 242.8128 294.2784 
C 242.8128 296.042743 243.513781 297.735061 244.76136 298.98264 
C 246.008939 300.230219 247.701257 300.9312 249.4656 300.9312 
z
" style="fill:#9558b2;fill-opacity:0.5;stroke:#9558b2;stroke-linejoin:miter;stroke-width:2;"/>
   </g>
   <g id="patch_64">
    <path clip-path="url(#p5cc5a6a7df)" d="M 276.0768 297.6048 
C 276.958972 297.6048 277.80513 297.25431 278.42892 296.63052 
C 279.05271 296.00673 279.4032 295.160572 279.4032 294.2784 
C 279.4032 293.396228 279.05271 292.55007 278.42892 291.92628 
C 277.80513 291.30249 276.958972 290.952 276.0768 290.952 
C 275.194628 290.952 274.34847 291.30249 273.72468 291.92628 
C 273.10089 292.55007 272.7504 293.396228 272.7504 294.2784 
C 272.7504 295.160572 273.10089 296.00673 273.72468 296.63052 
C 274.34847 297.25431 275.194628 297.6048 276.0768 297.6048 
z
" style="fill:#009900;fill-opacity:0.5;stroke:#009900;stroke-linejoin:miter;stroke-width:2;"/>
   </g>
   <g id="patch_65">
    <path clip-path="url(#p5cc5a6a7df)" d="M 249.4656 274.32 
C 251.229943 274.32 252.922261 273.619019 254.16984 272.37144 
C 255.417419 271.123861 256.1184 269.431543 256.1184 267.6672 
C 256.1184 265.902857 255.417419 264.210539 254.16984 262.96296 
C 252.922261 261.715381 251.229943 261.0144 249.4656 261.0144 
C 247.701257 261.0144 246.008939 261.715381 244.76136 262.96296 
C 243.513781 264.210539 242.8128 265.902857 242.8128 267.6672 
C 242.8128 269.431543 243.513781 271.123861 244.76136 272.37144 
C 246.008939 273.619019 247.701257 274.32 249.4656 274.32 
z
" style="fill:#9558b2;fill-opacity:0.5;stroke:#9558b2;stroke-linejoin:miter;stroke-width:2;"/>
   </g>
   <g id="patch_66">
    <path clip-path="url(#p5cc5a6a7df)" d="M 276.0768 270.9936 
C 276.958972 270.9936 277.80513 270.64311 278.42892 270.01932 
C 279.05271 269.39553 279.4032 268.549372 279.4032 267.6672 
C 279.4032 266.785028 279.05271 265.93887 278.42892 265.31508 
C 277.80513 264.69129 276.958972 264.3408 276.0768 264.3408 
C 275.194628 264.3408 274.34847 264.69129 273.72468 265.31508 
C 273.10089 265.93887 272.7504 266.785028 272.7504 267.6672 
C 272.7504 268.549372 273.10089 269.39553 273.72468 270.01932 
C 274.34847 270.64311 275.194628 270.9936 276.0768 270.9936 
z
" style="fill:#009900;fill-opacity:0.5;stroke:#009900;stroke-linejoin:miter;stroke-width:2;"/>
   </g>
   <g id="patch_67">
    <path clip-path="url(#p5cc5a6a7df)" d="M 249.4656 247.7088 
C 251.229943 247.7088 252.922261 247.007819 254.16984 245.76024 
C 255.417419 244.512661 256.1184 242.820343 256.1184 241.056 
C 256.1184 239.291657 255.417419 237.599339 254.16984 236.35176 
C 252.922261 235.104181 251.229943 234.4032 249.4656 234.4032 
C 247.701257 234.4032 246.008939 235.104181 244.76136 236.35176 
C 243.513781 237.599339 242.8128 239.291657 242.8128 241.056 
C 242.8128 242.820343 243.513781 244.512661 244.76136 245.76024 
C 246.008939 247.007819 247.701257 247.7088 249.4656 247.7088 
z
" style="fill:#9558b2;fill-opacity:0.5;stroke:#9558b2;stroke-linejoin:miter;stroke-width:2;"/>
   </g>
   <g id="patch_68">
    <path clip-path="url(#p5cc5a6a7df)" d="M 276.0768 244.3824 
C 276.958972 244.3824 277.80513 244.03191 278.42892 243.40812 
C 279.05271 242.78433 279.4032 241.938172 279.4032 241.056 
C 279.4032 240.173828 279.05271 239.32767 278.42892 238.70388 
C 277.80513 238.08009 276.958972 237.7296 276.0768 237.7296 
C 275.194628 237.7296 274.34847 238.08009 273.72468 238.70388 
C 273.10089 239.32767 272.7504 240.173828 272.7504 241.056 
C 272.7504 241.938172 273.10089 242.78433 273.72468 243.40812 
C 274.34847 244.03191 275.194628 244.3824 276.0768 244.3824 
z
" style="fill:#009900;fill-opacity:0.5;stroke:#009900;stroke-linejoin:miter;stroke-width:2;"/>
   </g>
   <g id="patch_69">
    <path clip-path="url(#p5cc5a6a7df)" d="M 249.4656 221.0976 
C 251.229943 221.0976 252.922261 220.396619 254.16984 219.14904 
C 255.417419 217.901461 256.1184 216.209143 256.1184 214.4448 
C 256.1184 212.680457 255.417419 210.988139 254.16984 209.74056 
C 252.922261 208.492981 251.229943 207.792 249.4656 207.792 
C 247.701257 207.792 246.008939 208.492981 244.76136 209.74056 
C 243.513781 210.988139 242.8128 212.680457 242.8128 214.4448 
C 242.8128 216.209143 243.513781 217.901461 244.76136 219.14904 
C 246.008939 220.396619 247.701257 221.0976 249.4656 221.0976 
z
" style="fill:#9558b2;fill-opacity:0.5;stroke:#9558b2;stroke-linejoin:miter;stroke-width:2;"/>
   </g>
   <g id="patch_70">
    <path clip-path="url(#p5cc5a6a7df)" d="M 276.0768 217.7712 
C 276.958972 217.7712 277.80513 217.42071 278.42892 216.79692 
C 279.05271 216.17313 279.4032 215.326972 279.4032 214.4448 
C 279.4032 213.562628 279.05271 212.71647 278.42892 212.09268 
C 277.80513 211.46889 276.958972 211.1184 276.0768 211.1184 
C 275.194628 211.1184 274.34847 211.46889 273.72468 212.09268 
C 273.10089 212.71647 272.7504 213.562628 272.7504 214.4448 
C 272.7504 215.326972 273.10089 216.17313 273.72468 216.79692 
C 274.34847 217.42071 275.194628 217.7712 276.0768 217.7712 
z
" style="fill:#009900;fill-opacity:0.5;stroke:#009900;stroke-linejoin:miter;stroke-width:2;"/>
   </g>
   <g id="patch_71">
    <path clip-path="url(#p5cc5a6a7df)" d="M 249.4656 194.4864 
C 251.229943 194.4864 252.922261 193.785419 254.16984 192.53784 
C 255.417419 191.290261 256.1184 189.597943 256.1184 187.8336 
C 256.1184 186.069257 255.417419 184.376939 254.16984 183.12936 
C 252.922261 181.881781 251.229943 181.1808 249.4656 181.1808 
C 247.701257 181.1808 246.008939 181.881781 244.76136 183.12936 
C 243.513781 184.376939 242.8128 186.069257 242.8128 187.8336 
C 242.8128 189.597943 243.513781 191.290261 244.76136 192.53784 
C 246.008939 193.785419 247.701257 194.4864 249.4656 194.4864 
z
" style="fill:#9558b2;fill-opacity:0.5;stroke:#9558b2;stroke-linejoin:miter;stroke-width:2;"/>
   </g>
   <g id="patch_72">
    <path clip-path="url(#p5cc5a6a7df)" d="M 276.0768 191.16 
C 276.958972 191.16 277.80513 190.80951 278.42892 190.18572 
C 279.05271 189.56193 279.4032 188.715772 279.4032 187.8336 
C 279.4032 186.951428 279.05271 186.10527 278.42892 185.48148 
C 277.80513 184.85769 276.958972 184.5072 276.0768 184.5072 
C 275.194628 184.5072 274.34847 184.85769 273.72468 185.48148 
C 273.10089 186.10527 272.7504 186.951428 272.7504 187.8336 
C 272.7504 188.715772 273.10089 189.56193 273.72468 190.18572 
C 274.34847 190.80951 275.194628 191.16 276.0768 191.16 
z
" style="fill:#009900;fill-opacity:0.5;stroke:#009900;stroke-linejoin:miter;stroke-width:2;"/>
   </g>
   <g id="patch_73">
    <path clip-path="url(#p5cc5a6a7df)" d="M 249.4656 167.8752 
C 251.229943 167.8752 252.922261 167.174219 254.16984 165.92664 
C 255.417419 164.679061 256.1184 162.986743 256.1184 161.2224 
C 256.1184 159.458057 255.417419 157.765739 254.16984 156.51816 
C 252.922261 155.270581 251.229943 154.5696 249.4656 154.5696 
C 247.701257 154.5696 246.008939 155.270581 244.76136 156.51816 
C 243.513781 157.765739 242.8128 159.458057 242.8128 161.2224 
C 242.8128 162.986743 243.513781 164.679061 244.76136 165.92664 
C 246.008939 167.174219 247.701257 167.8752 249.4656 167.8752 
z
" style="fill:#9558b2;fill-opacity:0.5;stroke:#9558b2;stroke-linejoin:miter;stroke-width:2;"/>
   </g>
   <g id="patch_74">
    <path clip-path="url(#p5cc5a6a7df)" d="M 276.0768 164.5488 
C 276.958972 164.5488 277.80513 164.19831 278.42892 163.57452 
C 279.05271 162.95073 279.4032 162.104572 279.4032 161.2224 
C 279.4032 160.340228 279.05271 159.49407 278.42892 158.87028 
C 277.80513 158.24649 276.958972 157.896 276.0768 157.896 
C 275.194628 157.896 274.34847 158.24649 273.72468 158.87028 
C 273.10089 159.49407 272.7504 160.340228 272.7504 161.2224 
C 272.7504 162.104572 273.10089 162.95073 273.72468 163.57452 
C 274.34847 164.19831 275.194628 164.5488 276.0768 164.5488 
z
" style="fill:#009900;fill-opacity:0.5;stroke:#009900;stroke-linejoin:miter;stroke-width:2;"/>
   </g>
   <g id="patch_75">
    <path clip-path="url(#p5cc5a6a7df)" d="M 249.4656 141.264 
C 251.229943 141.264 252.922261 140.563019 254.16984 139.31544 
C 255.417419 138.067861 256.1184 136.375543 256.1184 134.6112 
C 256.1184 132.846857 255.417419 131.154539 254.16984 129.90696 
C 252.922261 128.659381 251.229943 127.9584 249.4656 127.9584 
C 247.701257 127.9584 246.008939 128.659381 244.76136 129.90696 
C 243.513781 131.154539 242.8128 132.846857 242.8128 134.6112 
C 242.8128 136.375543 243.513781 138.067861 244.76136 139.31544 
C 246.008939 140.563019 247.701257 141.264 249.4656 141.264 
z
" style="fill:#9558b2;fill-opacity:0.5;stroke:#9558b2;stroke-linejoin:miter;stroke-width:2;"/>
   </g>
   <g id="patch_76">
    <path clip-path="url(#p5cc5a6a7df)" d="M 276.0768 137.9376 
C 276.958972 137.9376 277.80513 137.58711 278.42892 136.96332 
C 279.05271 136.33953 279.4032 135.493372 279.4032 134.6112 
C 279.4032 133.729028 279.05271 132.88287 278.42892 132.25908 
C 277.80513 131.63529 276.958972 131.2848 276.0768 131.2848 
C 275.194628 131.2848 274.34847 131.63529 273.72468 132.25908 
C 273.10089 132.88287 272.7504 133.729028 272.7504 134.6112 
C 272.7504 135.493372 273.10089 136.33953 273.72468 136.96332 
C 274.34847 137.58711 275.194628 137.9376 276.0768 137.9376 
z
" style="fill:#009900;fill-opacity:0.5;stroke:#009900;stroke-linejoin:miter;stroke-width:2;"/>
   </g>
   <g id="patch_77">
    <path clip-path="url(#p5cc5a6a7df)" d="M 249.4656 114.6528 
C 251.229943 114.6528 252.922261 113.951819 254.16984 112.70424 
C 255.417419 111.456661 256.1184 109.764343 256.1184 108 
C 256.1184 106.235657 255.417419 104.543339 254.16984 103.29576 
C 252.922261 102.048181 251.229943 101.3472 249.4656 101.3472 
C 247.701257 101.3472 246.008939 102.048181 244.76136 103.29576 
C 243.513781 104.543339 242.8128 106.235657 242.8128 108 
C 242.8128 109.764343 243.513781 111.456661 244.76136 112.70424 
C 246.008939 113.951819 247.701257 114.6528 249.4656 114.6528 
z
" style="fill:#9558b2;fill-opacity:0.5;stroke:#9558b2;stroke-linejoin:miter;stroke-width:2;"/>
   </g>
   <g id="patch_78">
    <path clip-path="url(#p5cc5a6a7df)" d="M 276.0768 111.3264 
C 276.958972 111.3264 277.80513 110.97591 278.42892 110.35212 
C 279.05271 109.72833 279.4032 108.882172 279.4032 108 
C 279.4032 107.117828 279.05271 106.27167 278.42892 105.64788 
C 277.80513 105.02409 276.958972 104.6736 276.0768 104.6736 
C 275.194628 104.6736 274.34847 105.02409 273.72468 105.64788 
C 273.10089 106.27167 272.7504 107.117828 272.7504 108 
C 272.7504 108.882172 273.10089 109.72833 273.72468 110.35212 
C 274.34847 110.97591 275.194628 111.3264 276.0768 111.3264 
z
" style="fill:#009900;fill-opacity:0.5;stroke:#009900;stroke-linejoin:miter;stroke-width:2;"/>
   </g>
   <g id="patch_79">
    <path clip-path="url(#p5cc5a6a7df)" d="M 249.4656 88.0416 
C 251.229943 88.0416 252.922261 87.340619 254.16984 86.09304 
C 255.417419 84.845461 256.1184 83.153143 256.1184 81.3888 
C 256.1184 79.624457 255.417419 77.932139 254.16984 76.68456 
C 252.922261 75.436981 251.229943 74.736 249.4656 74.736 
C 247.701257 74.736 246.008939 75.436981 244.76136 76.68456 
C 243.513781 77.932139 242.8128 79.624457 242.8128 81.3888 
C 242.8128 83.153143 243.513781 84.845461 244.76136 86.09304 
C 246.008939 87.340619 247.701257 88.0416 249.4656 88.0416 
z
" style="fill:#9558b2;fill-opacity:0.5;stroke:#9558b2;stroke-linejoin:miter;stroke-width:2;"/>
   </g>
   <g id="patch_80">
    <path clip-path="url(#p5cc5a6a7df)" d="M 276.0768 84.7152 
C 276.958972 84.7152 277.80513 84.36471 278.42892 83.74092 
C 279.05271 83.11713 279.4032 82.270972 279.4032 81.3888 
C 279.4032 80.506628 279.05271 79.66047 278.42892 79.03668 
C 277.80513 78.41289 276.958972 78.0624 276.0768 78.0624 
C 275.194628 78.0624 274.34847 78.41289 273.72468 79.03668 
C 273.10089 79.66047 272.7504 80.506628 272.7504 81.3888 
C 272.7504 82.270972 273.10089 83.11713 273.72468 83.74092 
C 274.34847 84.36471 275.194628 84.7152 276.0768 84.7152 
z
" style="fill:#009900;fill-opacity:0.5;stroke:#009900;stroke-linejoin:miter;stroke-width:2;"/>
   </g>
   <g id="patch_81">
    <path clip-path="url(#p5cc5a6a7df)" d="M 249.4656 61.4304 
C 251.229943 61.4304 252.922261 60.729419 254.16984 59.48184 
C 255.417419 58.234261 256.1184 56.541943 256.1184 54.7776 
C 256.1184 53.013257 255.417419 51.320939 254.16984 50.07336 
C 252.922261 48.825781 251.229943 48.1248 249.4656 48.1248 
C 247.701257 48.1248 246.008939 48.825781 244.76136 50.07336 
C 243.513781 51.320939 242.8128 53.013257 242.8128 54.7776 
C 242.8128 56.541943 243.513781 58.234261 244.76136 59.48184 
C 246.008939 60.729419 247.701257 61.4304 249.4656 61.4304 
z
" style="fill:#9558b2;fill-opacity:0.5;stroke:#9558b2;stroke-linejoin:miter;stroke-width:2;"/>
   </g>
   <g id="patch_82">
    <path clip-path="url(#p5cc5a6a7df)" d="M 276.0768 58.104 
C 276.958972 58.104 277.80513 57.75351 278.42892 57.12972 
C 279.05271 56.50593 279.4032 55.659772 279.4032 54.7776 
C 279.4032 53.895428 279.05271 53.04927 278.42892 52.42548 
C 277.80513 51.80169 276.958972 51.4512 276.0768 51.4512 
C 275.194628 51.4512 274.34847 51.80169 273.72468 52.42548 
C 273.10089 53.04927 272.7504 53.895428 272.7504 54.7776 
C 272.7504 55.659772 273.10089 56.50593 273.72468 57.12972 
C 274.34847 57.75351 275.194628 58.104 276.0768 58.104 
z
" style="fill:#009900;fill-opacity:0.5;stroke:#009900;stroke-linejoin:miter;stroke-width:2;"/>
   </g>
   <g id="patch_83">
    <path clip-path="url(#p5cc5a6a7df)" d="M 302.688 300.9312 
C 304.452343 300.9312 306.144661 300.230219 307.39224 298.98264 
C 308.639819 297.735061 309.3408 296.042743 309.3408 294.2784 
C 309.3408 292.514057 308.639819 290.821739 307.39224 289.57416 
C 306.144661 288.326581 304.452343 287.6256 302.688 287.6256 
C 300.923657 287.6256 299.231339 288.326581 297.98376 289.57416 
C 296.736181 290.821739 296.0352 292.514057 296.0352 294.2784 
C 296.0352 296.042743 296.736181 297.735061 297.98376 298.98264 
C 299.231339 300.230219 300.923657 300.9312 302.688 300.9312 
z
" style="fill:#9558b2;fill-opacity:0.5;stroke:#9558b2;stroke-linejoin:miter;stroke-width:2;"/>
   </g>
   <g id="patch_84">
    <path clip-path="url(#p5cc5a6a7df)" d="M 329.2992 297.6048 
C 330.181372 297.6048 331.02753 297.25431 331.65132 296.63052 
C 332.27511 296.00673 332.6256 295.160572 332.6256 294.2784 
C 332.6256 293.396228 332.27511 292.55007 331.65132 291.92628 
C 331.02753 291.30249 330.181372 290.952 329.2992 290.952 
C 328.417028 290.952 327.57087 291.30249 326.94708 291.92628 
C 326.32329 292.55007 325.9728 293.396228 325.9728 294.2784 
C 325.9728 295.160572 326.32329 296.00673 326.94708 296.63052 
C 327.57087 297.25431 328.417028 297.6048 329.2992 297.6048 
z
" style="fill:#009900;fill-opacity:0.5;stroke:#009900;stroke-linejoin:miter;stroke-width:2;"/>
   </g>
   <g id="patch_85">
    <path clip-path="url(#p5cc5a6a7df)" d="M 302.688 274.32 
C 304.452343 274.32 306.144661 273.619019 307.39224 272.37144 
C 308.639819 271.123861 309.3408 269.431543 309.3408 267.6672 
C 309.3408 265.902857 308.639819 264.210539 307.39224 262.96296 
C 306.144661 261.715381 304.452343 261.0144 302.688 261.0144 
C 300.923657 261.0144 299.231339 261.715381 297.98376 262.96296 
C 296.736181 264.210539 296.0352 265.902857 296.0352 267.6672 
C 296.0352 269.431543 296.736181 271.123861 297.98376 272.37144 
C 299.231339 273.619019 300.923657 274.32 302.688 274.32 
z
" style="fill:#9558b2;fill-opacity:0.5;stroke:#9558b2;stroke-linejoin:miter;stroke-width:2;"/>
   </g>
   <g id="patch_86">
    <path clip-path="url(#p5cc5a6a7df)" d="M 329.2992 270.9936 
C 330.181372 270.9936 331.02753 270.64311 331.65132 270.01932 
C 332.27511 269.39553 332.6256 268.549372 332.6256 267.6672 
C 332.6256 266.785028 332.27511 265.93887 331.65132 265.31508 
C 331.02753 264.69129 330.181372 264.3408 329.2992 264.3408 
C 328.417028 264.3408 327.57087 264.69129 326.94708 265.31508 
C 326.32329 265.93887 325.9728 266.785028 325.9728 267.6672 
C 325.9728 268.549372 326.32329 269.39553 326.94708 270.01932 
C 327.57087 270.64311 328.417028 270.9936 329.2992 270.9936 
z
" style="fill:#009900;fill-opacity:0.5;stroke:#009900;stroke-linejoin:miter;stroke-width:2;"/>
   </g>
   <g id="patch_87">
    <path clip-path="url(#p5cc5a6a7df)" d="M 302.688 247.7088 
C 304.452343 247.7088 306.144661 247.007819 307.39224 245.76024 
C 308.639819 244.512661 309.3408 242.820343 309.3408 241.056 
C 309.3408 239.291657 308.639819 237.599339 307.39224 236.35176 
C 306.144661 235.104181 304.452343 234.4032 302.688 234.4032 
C 300.923657 234.4032 299.231339 235.104181 297.98376 236.35176 
C 296.736181 237.599339 296.0352 239.291657 296.0352 241.056 
C 296.0352 242.820343 296.736181 244.512661 297.98376 245.76024 
C 299.231339 247.007819 300.923657 247.7088 302.688 247.7088 
z
" style="fill:#9558b2;fill-opacity:0.5;stroke:#9558b2;stroke-linejoin:miter;stroke-width:2;"/>
   </g>
   <g id="patch_88">
    <path clip-path="url(#p5cc5a6a7df)" d="M 329.2992 244.3824 
C 330.181372 244.3824 331.02753 244.03191 331.65132 243.40812 
C 332.27511 242.78433 332.6256 241.938172 332.6256 241.056 
C 332.6256 240.173828 332.27511 239.32767 331.65132 238.70388 
C 331.02753 238.08009 330.181372 237.7296 329.2992 237.7296 
C 328.417028 237.7296 327.57087 238.08009 326.94708 238.70388 
C 326.32329 239.32767 325.9728 240.173828 325.9728 241.056 
C 325.9728 241.938172 326.32329 242.78433 326.94708 243.40812 
C 327.57087 244.03191 328.417028 244.3824 329.2992 244.3824 
z
" style="fill:#009900;fill-opacity:0.5;stroke:#009900;stroke-linejoin:miter;stroke-width:2;"/>
   </g>
   <g id="patch_89">
    <path clip-path="url(#p5cc5a6a7df)" d="M 302.688 221.0976 
C 304.452343 221.0976 306.144661 220.396619 307.39224 219.14904 
C 308.639819 217.901461 309.3408 216.209143 309.3408 214.4448 
C 309.3408 212.680457 308.639819 210.988139 307.39224 209.74056 
C 306.144661 208.492981 304.452343 207.792 302.688 207.792 
C 300.923657 207.792 299.231339 208.492981 297.98376 209.74056 
C 296.736181 210.988139 296.0352 212.680457 296.0352 214.4448 
C 296.0352 216.209143 296.736181 217.901461 297.98376 219.14904 
C 299.231339 220.396619 300.923657 221.0976 302.688 221.0976 
z
" style="fill:#9558b2;fill-opacity:0.5;stroke:#9558b2;stroke-linejoin:miter;stroke-width:2;"/>
   </g>
   <g id="patch_90">
    <path clip-path="url(#p5cc5a6a7df)" d="M 329.2992 217.7712 
C 330.181372 217.7712 331.02753 217.42071 331.65132 216.79692 
C 332.27511 216.17313 332.6256 215.326972 332.6256 214.4448 
C 332.6256 213.562628 332.27511 212.71647 331.65132 212.09268 
C 331.02753 211.46889 330.181372 211.1184 329.2992 211.1184 
C 328.417028 211.1184 327.57087 211.46889 326.94708 212.09268 
C 326.32329 212.71647 325.9728 213.562628 325.9728 214.4448 
C 325.9728 215.326972 326.32329 216.17313 326.94708 216.79692 
C 327.57087 217.42071 328.417028 217.7712 329.2992 217.7712 
z
" style="fill:#009900;fill-opacity:0.5;stroke:#009900;stroke-linejoin:miter;stroke-width:2;"/>
   </g>
   <g id="patch_91">
    <path clip-path="url(#p5cc5a6a7df)" d="M 302.688 194.4864 
C 304.452343 194.4864 306.144661 193.785419 307.39224 192.53784 
C 308.639819 191.290261 309.3408 189.597943 309.3408 187.8336 
C 309.3408 186.069257 308.639819 184.376939 307.39224 183.12936 
C 306.144661 181.881781 304.452343 181.1808 302.688 181.1808 
C 300.923657 181.1808 299.231339 181.881781 297.98376 183.12936 
C 296.736181 184.376939 296.0352 186.069257 296.0352 187.8336 
C 296.0352 189.597943 296.736181 191.290261 297.98376 192.53784 
C 299.231339 193.785419 300.923657 194.4864 302.688 194.4864 
z
" style="fill:#9558b2;fill-opacity:0.5;stroke:#9558b2;stroke-linejoin:miter;stroke-width:2;"/>
   </g>
   <g id="patch_92">
    <path clip-path="url(#p5cc5a6a7df)" d="M 329.2992 191.16 
C 330.181372 191.16 331.02753 190.80951 331.65132 190.18572 
C 332.27511 189.56193 332.6256 188.715772 332.6256 187.8336 
C 332.6256 186.951428 332.27511 186.10527 331.65132 185.48148 
C 331.02753 184.85769 330.181372 184.5072 329.2992 184.5072 
C 328.417028 184.5072 327.57087 184.85769 326.94708 185.48148 
C 326.32329 186.10527 325.9728 186.951428 325.9728 187.8336 
C 325.9728 188.715772 326.32329 189.56193 326.94708 190.18572 
C 327.57087 190.80951 328.417028 191.16 329.2992 191.16 
z
" style="fill:#009900;fill-opacity:0.5;stroke:#009900;stroke-linejoin:miter;stroke-width:2;"/>
   </g>
   <g id="patch_93">
    <path clip-path="url(#p5cc5a6a7df)" d="M 302.688 167.8752 
C 304.452343 167.8752 306.144661 167.174219 307.39224 165.92664 
C 308.639819 164.679061 309.3408 162.986743 309.3408 161.2224 
C 309.3408 159.458057 308.639819 157.765739 307.39224 156.51816 
C 306.144661 155.270581 304.452343 154.5696 302.688 154.5696 
C 300.923657 154.5696 299.231339 155.270581 297.98376 156.51816 
C 296.736181 157.765739 296.0352 159.458057 296.0352 161.2224 
C 296.0352 162.986743 296.736181 164.679061 297.98376 165.92664 
C 299.231339 167.174219 300.923657 167.8752 302.688 167.8752 
z
" style="fill:#9558b2;fill-opacity:0.5;stroke:#9558b2;stroke-linejoin:miter;stroke-width:2;"/>
   </g>
   <g id="patch_94">
    <path clip-path="url(#p5cc5a6a7df)" d="M 329.2992 164.5488 
C 330.181372 164.5488 331.02753 164.19831 331.65132 163.57452 
C 332.27511 162.95073 332.6256 162.104572 332.6256 161.2224 
C 332.6256 160.340228 332.27511 159.49407 331.65132 158.87028 
C 331.02753 158.24649 330.181372 157.896 329.2992 157.896 
C 328.417028 157.896 327.57087 158.24649 326.94708 158.87028 
C 326.32329 159.49407 325.9728 160.340228 325.9728 161.2224 
C 325.9728 162.104572 326.32329 162.95073 326.94708 163.57452 
C 327.57087 164.19831 328.417028 164.5488 329.2992 164.5488 
z
" style="fill:#009900;fill-opacity:0.5;stroke:#009900;stroke-linejoin:miter;stroke-width:2;"/>
   </g>
   <g id="patch_95">
    <path clip-path="url(#p5cc5a6a7df)" d="M 302.688 141.264 
C 304.452343 141.264 306.144661 140.563019 307.39224 139.31544 
C 308.639819 138.067861 309.3408 136.375543 309.3408 134.6112 
C 309.3408 132.846857 308.639819 131.154539 307.39224 129.90696 
C 306.144661 128.659381 304.452343 127.9584 302.688 127.9584 
C 300.923657 127.9584 299.231339 128.659381 297.98376 129.90696 
C 296.736181 131.154539 296.0352 132.846857 296.0352 134.6112 
C 296.0352 136.375543 296.736181 138.067861 297.98376 139.31544 
C 299.231339 140.563019 300.923657 141.264 302.688 141.264 
z
" style="fill:#9558b2;fill-opacity:0.5;stroke:#9558b2;stroke-linejoin:miter;stroke-width:2;"/>
   </g>
   <g id="patch_96">
    <path clip-path="url(#p5cc5a6a7df)" d="M 329.2992 137.9376 
C 330.181372 137.9376 331.02753 137.58711 331.65132 136.96332 
C 332.27511 136.33953 332.6256 135.493372 332.6256 134.6112 
C 332.6256 133.729028 332.27511 132.88287 331.65132 132.25908 
C 331.02753 131.63529 330.181372 131.2848 329.2992 131.2848 
C 328.417028 131.2848 327.57087 131.63529 326.94708 132.25908 
C 326.32329 132.88287 325.9728 133.729028 325.9728 134.6112 
C 325.9728 135.493372 326.32329 136.33953 326.94708 136.96332 
C 327.57087 137.58711 328.417028 137.9376 329.2992 137.9376 
z
" style="fill:#009900;fill-opacity:0.5;stroke:#009900;stroke-linejoin:miter;stroke-width:2;"/>
   </g>
   <g id="patch_97">
    <path clip-path="url(#p5cc5a6a7df)" d="M 302.688 114.6528 
C 304.452343 114.6528 306.144661 113.951819 307.39224 112.70424 
C 308.639819 111.456661 309.3408 109.764343 309.3408 108 
C 309.3408 106.235657 308.639819 104.543339 307.39224 103.29576 
C 306.144661 102.048181 304.452343 101.3472 302.688 101.3472 
C 300.923657 101.3472 299.231339 102.048181 297.98376 103.29576 
C 296.736181 104.543339 296.0352 106.235657 296.0352 108 
C 296.0352 109.764343 296.736181 111.456661 297.98376 112.70424 
C 299.231339 113.951819 300.923657 114.6528 302.688 114.6528 
z
" style="fill:#9558b2;fill-opacity:0.5;stroke:#9558b2;stroke-linejoin:miter;stroke-width:2;"/>
   </g>
   <g id="patch_98">
    <path clip-path="url(#p5cc5a6a7df)" d="M 329.2992 111.3264 
C 330.181372 111.3264 331.02753 110.97591 331.65132 110.35212 
C 332.27511 109.72833 332.6256 108.882172 332.6256 108 
C 332.6256 107.117828 332.27511 106.27167 331.65132 105.64788 
C 331.02753 105.02409 330.181372 104.6736 329.2992 104.6736 
C 328.417028 104.6736 327.57087 105.02409 326.94708 105.64788 
C 326.32329 106.27167 325.9728 107.117828 325.9728 108 
C 325.9728 108.882172 326.32329 109.72833 326.94708 110.35212 
C 327.57087 110.97591 328.417028 111.3264 329.2992 111.3264 
z
" style="fill:#009900;fill-opacity:0.5;stroke:#009900;stroke-linejoin:miter;stroke-width:2;"/>
   </g>
   <g id="patch_99">
    <path clip-path="url(#p5cc5a6a7df)" d="M 302.688 88.0416 
C 304.452343 88.0416 306.144661 87.340619 307.39224 86.09304 
C 308.639819 84.845461 309.3408 83.153143 309.3408 81.3888 
C 309.3408 79.624457 308.639819 77.932139 307.39224 76.68456 
C 306.144661 75.436981 304.452343 74.736 302.688 74.736 
C 300.923657 74.736 299.231339 75.436981 297.98376 76.68456 
C 296.736181 77.932139 296.0352 79.624457 296.0352 81.3888 
C 296.0352 83.153143 296.736181 84.845461 297.98376 86.09304 
C 299.231339 87.340619 300.923657 88.0416 302.688 88.0416 
z
" style="fill:#9558b2;fill-opacity:0.5;stroke:#9558b2;stroke-linejoin:miter;stroke-width:2;"/>
   </g>
   <g id="patch_100">
    <path clip-path="url(#p5cc5a6a7df)" d="M 329.2992 84.7152 
C 330.181372 84.7152 331.02753 84.36471 331.65132 83.74092 
C 332.27511 83.11713 332.6256 82.270972 332.6256 81.3888 
C 332.6256 80.506628 332.27511 79.66047 331.65132 79.03668 
C 331.02753 78.41289 330.181372 78.0624 329.2992 78.0624 
C 328.417028 78.0624 327.57087 78.41289 326.94708 79.03668 
C 326.32329 79.66047 325.9728 80.506628 325.9728 81.3888 
C 325.9728 82.270972 326.32329 83.11713 326.94708 83.74092 
C 327.57087 84.36471 328.417028 84.7152 329.2992 84.7152 
z
" style="fill:#009900;fill-opacity:0.5;stroke:#009900;stroke-linejoin:miter;stroke-width:2;"/>
   </g>
   <g id="patch_101">
    <path clip-path="url(#p5cc5a6a7df)" d="M 302.688 61.4304 
C 304.452343 61.4304 306.144661 60.729419 307.39224 59.48184 
C 308.639819 58.234261 309.3408 56.541943 309.3408 54.7776 
C 309.3408 53.013257 308.639819 51.320939 307.39224 50.07336 
C 306.144661 48.825781 304.452343 48.1248 302.688 48.1248 
C 300.923657 48.1248 299.231339 48.825781 297.98376 50.07336 
C 296.736181 51.320939 296.0352 53.013257 296.0352 54.7776 
C 296.0352 56.541943 296.736181 58.234261 297.98376 59.48184 
C 299.231339 60.729419 300.923657 61.4304 302.688 61.4304 
z
" style="fill:#9558b2;fill-opacity:0.5;stroke:#9558b2;stroke-linejoin:miter;stroke-width:2;"/>
   </g>
   <g id="patch_102">
    <path clip-path="url(#p5cc5a6a7df)" d="M 329.2992 58.104 
C 330.181372 58.104 331.02753 57.75351 331.65132 57.12972 
C 332.27511 56.50593 332.6256 55.659772 332.6256 54.7776 
C 332.6256 53.895428 332.27511 53.04927 331.65132 52.42548 
C 331.02753 51.80169 330.181372 51.4512 329.2992 51.4512 
C 328.417028 51.4512 327.57087 51.80169 326.94708 52.42548 
C 326.32329 53.04927 325.9728 53.895428 325.9728 54.7776 
C 325.9728 55.659772 326.32329 56.50593 326.94708 57.12972 
C 327.57087 57.75351 328.417028 58.104 329.2992 58.104 
z
" style="fill:#009900;fill-opacity:0.5;stroke:#009900;stroke-linejoin:miter;stroke-width:2;"/>
   </g>
   <g id="patch_103">
    <path clip-path="url(#p5cc5a6a7df)" d="M 355.9104 300.9312 
C 357.674743 300.9312 359.367061 300.230219 360.61464 298.98264 
C 361.862219 297.735061 362.5632 296.042743 362.5632 294.2784 
C 362.5632 292.514057 361.862219 290.821739 360.61464 289.57416 
C 359.367061 288.326581 357.674743 287.6256 355.9104 287.6256 
C 354.146057 287.6256 352.453739 288.326581 351.20616 289.57416 
C 349.958581 290.821739 349.2576 292.514057 349.2576 294.2784 
C 349.2576 296.042743 349.958581 297.735061 351.20616 298.98264 
C 352.453739 300.230219 354.146057 300.9312 355.9104 300.9312 
z
" style="fill:#9558b2;fill-opacity:0.5;stroke:#9558b2;stroke-linejoin:miter;stroke-width:2;"/>
   </g>
   <g id="patch_104">
    <path clip-path="url(#p5cc5a6a7df)" d="M 382.5216 297.6048 
C 383.403772 297.6048 384.24993 297.25431 384.87372 296.63052 
C 385.49751 296.00673 385.848 295.160572 385.848 294.2784 
C 385.848 293.396228 385.49751 292.55007 384.87372 291.92628 
C 384.24993 291.30249 383.403772 290.952 382.5216 290.952 
C 381.639428 290.952 380.79327 291.30249 380.16948 291.92628 
C 379.54569 292.55007 379.1952 293.396228 379.1952 294.2784 
C 379.1952 295.160572 379.54569 296.00673 380.16948 296.63052 
C 380.79327 297.25431 381.639428 297.6048 382.5216 297.6048 
z
" style="fill:#009900;fill-opacity:0.5;stroke:#009900;stroke-linejoin:miter;stroke-width:2;"/>
   </g>
   <g id="patch_105">
    <path clip-path="url(#p5cc5a6a7df)" d="M 355.9104 274.32 
C 357.674743 274.32 359.367061 273.619019 360.61464 272.37144 
C 361.862219 271.123861 362.5632 269.431543 362.5632 267.6672 
C 362.5632 265.902857 361.862219 264.210539 360.61464 262.96296 
C 359.367061 261.715381 357.674743 261.0144 355.9104 261.0144 
C 354.146057 261.0144 352.453739 261.715381 351.20616 262.96296 
C 349.958581 264.210539 349.2576 265.902857 349.2576 267.6672 
C 349.2576 269.431543 349.958581 271.123861 351.20616 272.37144 
C 352.453739 273.619019 354.146057 274.32 355.9104 274.32 
z
" style="fill:#9558b2;fill-opacity:0.5;stroke:#9558b2;stroke-linejoin:miter;stroke-width:2;"/>
   </g>
   <g id="patch_106">
    <path clip-path="url(#p5cc5a6a7df)" d="M 382.5216 270.9936 
C 383.403772 270.9936 384.24993 270.64311 384.87372 270.01932 
C 385.49751 269.39553 385.848 268.549372 385.848 267.6672 
C 385.848 266.785028 385.49751 265.93887 384.87372 265.31508 
C 384.24993 264.69129 383.403772 264.3408 382.5216 264.3408 
C 381.639428 264.3408 380.79327 264.69129 380.16948 265.31508 
C 379.54569 265.93887 379.1952 266.785028 379.1952 267.6672 
C 379.1952 268.549372 379.54569 269.39553 380.16948 270.01932 
C 380.79327 270.64311 381.639428 270.9936 382.5216 270.9936 
z
" style="fill:#009900;fill-opacity:0.5;stroke:#009900;stroke-linejoin:miter;stroke-width:2;"/>
   </g>
   <g id="patch_107">
    <path clip-path="url(#p5cc5a6a7df)" d="M 355.9104 247.7088 
C 357.674743 247.7088 359.367061 247.007819 360.61464 245.76024 
C 361.862219 244.512661 362.5632 242.820343 362.5632 241.056 
C 362.5632 239.291657 361.862219 237.599339 360.61464 236.35176 
C 359.367061 235.104181 357.674743 234.4032 355.9104 234.4032 
C 354.146057 234.4032 352.453739 235.104181 351.20616 236.35176 
C 349.958581 237.599339 349.2576 239.291657 349.2576 241.056 
C 349.2576 242.820343 349.958581 244.512661 351.20616 245.76024 
C 352.453739 247.007819 354.146057 247.7088 355.9104 247.7088 
z
" style="fill:#9558b2;fill-opacity:0.5;stroke:#9558b2;stroke-linejoin:miter;stroke-width:2;"/>
   </g>
   <g id="patch_108">
    <path clip-path="url(#p5cc5a6a7df)" d="M 382.5216 244.3824 
C 383.403772 244.3824 384.24993 244.03191 384.87372 243.40812 
C 385.49751 242.78433 385.848 241.938172 385.848 241.056 
C 385.848 240.173828 385.49751 239.32767 384.87372 238.70388 
C 384.24993 238.08009 383.403772 237.7296 382.5216 237.7296 
C 381.639428 237.7296 380.79327 238.08009 380.16948 238.70388 
C 379.54569 239.32767 379.1952 240.173828 379.1952 241.056 
C 379.1952 241.938172 379.54569 242.78433 380.16948 243.40812 
C 380.79327 244.03191 381.639428 244.3824 382.5216 244.3824 
z
" style="fill:#009900;fill-opacity:0.5;stroke:#009900;stroke-linejoin:miter;stroke-width:2;"/>
   </g>
   <g id="patch_109">
    <path clip-path="url(#p5cc5a6a7df)" d="M 355.9104 221.0976 
C 357.674743 221.0976 359.367061 220.396619 360.61464 219.14904 
C 361.862219 217.901461 362.5632 216.209143 362.5632 214.4448 
C 362.5632 212.680457 361.862219 210.988139 360.61464 209.74056 
C 359.367061 208.492981 357.674743 207.792 355.9104 207.792 
C 354.146057 207.792 352.453739 208.492981 351.20616 209.74056 
C 349.958581 210.988139 349.2576 212.680457 349.2576 214.4448 
C 349.2576 216.209143 349.958581 217.901461 351.20616 219.14904 
C 352.453739 220.396619 354.146057 221.0976 355.9104 221.0976 
z
" style="fill:#9558b2;fill-opacity:0.5;stroke:#9558b2;stroke-linejoin:miter;stroke-width:2;"/>
   </g>
   <g id="patch_110">
    <path clip-path="url(#p5cc5a6a7df)" d="M 382.5216 217.7712 
C 383.403772 217.7712 384.24993 217.42071 384.87372 216.79692 
C 385.49751 216.17313 385.848 215.326972 385.848 214.4448 
C 385.848 213.562628 385.49751 212.71647 384.87372 212.09268 
C 384.24993 211.46889 383.403772 211.1184 382.5216 211.1184 
C 381.639428 211.1184 380.79327 211.46889 380.16948 212.09268 
C 379.54569 212.71647 379.1952 213.562628 379.1952 214.4448 
C 379.1952 215.326972 379.54569 216.17313 380.16948 216.79692 
C 380.79327 217.42071 381.639428 217.7712 382.5216 217.7712 
z
" style="fill:#009900;fill-opacity:0.5;stroke:#009900;stroke-linejoin:miter;stroke-width:2;"/>
   </g>
   <g id="patch_111">
    <path clip-path="url(#p5cc5a6a7df)" d="M 355.9104 194.4864 
C 357.674743 194.4864 359.367061 193.785419 360.61464 192.53784 
C 361.862219 191.290261 362.5632 189.597943 362.5632 187.8336 
C 362.5632 186.069257 361.862219 184.376939 360.61464 183.12936 
C 359.367061 181.881781 357.674743 181.1808 355.9104 181.1808 
C 354.146057 181.1808 352.453739 181.881781 351.20616 183.12936 
C 349.958581 184.376939 349.2576 186.069257 349.2576 187.8336 
C 349.2576 189.597943 349.958581 191.290261 351.20616 192.53784 
C 352.453739 193.785419 354.146057 194.4864 355.9104 194.4864 
z
" style="fill:#9558b2;fill-opacity:0.5;stroke:#9558b2;stroke-linejoin:miter;stroke-width:2;"/>
   </g>
   <g id="patch_112">
    <path clip-path="url(#p5cc5a6a7df)" d="M 382.5216 191.16 
C 383.403772 191.16 384.24993 190.80951 384.87372 190.18572 
C 385.49751 189.56193 385.848 188.715772 385.848 187.8336 
C 385.848 186.951428 385.49751 186.10527 384.87372 185.48148 
C 384.24993 184.85769 383.403772 184.5072 382.5216 184.5072 
C 381.639428 184.5072 380.79327 184.85769 380.16948 185.48148 
C 379.54569 186.10527 379.1952 186.951428 379.1952 187.8336 
C 379.1952 188.715772 379.54569 189.56193 380.16948 190.18572 
C 380.79327 190.80951 381.639428 191.16 382.5216 191.16 
z
" style="fill:#009900;fill-opacity:0.5;stroke:#009900;stroke-linejoin:miter;stroke-width:2;"/>
   </g>
   <g id="patch_113">
    <path clip-path="url(#p5cc5a6a7df)" d="M 355.9104 167.8752 
C 357.674743 167.8752 359.367061 167.174219 360.61464 165.92664 
C 361.862219 164.679061 362.5632 162.986743 362.5632 161.2224 
C 362.5632 159.458057 361.862219 157.765739 360.61464 156.51816 
C 359.367061 155.270581 357.674743 154.5696 355.9104 154.5696 
C 354.146057 154.5696 352.453739 155.270581 351.20616 156.51816 
C 349.958581 157.765739 349.2576 159.458057 349.2576 161.2224 
C 349.2576 162.986743 349.958581 164.679061 351.20616 165.92664 
C 352.453739 167.174219 354.146057 167.8752 355.9104 167.8752 
z
" style="fill:#9558b2;fill-opacity:0.5;stroke:#9558b2;stroke-linejoin:miter;stroke-width:2;"/>
   </g>
   <g id="patch_114">
    <path clip-path="url(#p5cc5a6a7df)" d="M 382.5216 164.5488 
C 383.403772 164.5488 384.24993 164.19831 384.87372 163.57452 
C 385.49751 162.95073 385.848 162.104572 385.848 161.2224 
C 385.848 160.340228 385.49751 159.49407 384.87372 158.87028 
C 384.24993 158.24649 383.403772 157.896 382.5216 157.896 
C 381.639428 157.896 380.79327 158.24649 380.16948 158.87028 
C 379.54569 159.49407 379.1952 160.340228 379.1952 161.2224 
C 379.1952 162.104572 379.54569 162.95073 380.16948 163.57452 
C 380.79327 164.19831 381.639428 164.5488 382.5216 164.5488 
z
" style="fill:#009900;fill-opacity:0.5;stroke:#009900;stroke-linejoin:miter;stroke-width:2;"/>
   </g>
   <g id="patch_115">
    <path clip-path="url(#p5cc5a6a7df)" d="M 355.9104 141.264 
C 357.674743 141.264 359.367061 140.563019 360.61464 139.31544 
C 361.862219 138.067861 362.5632 136.375543 362.5632 134.6112 
C 362.5632 132.846857 361.862219 131.154539 360.61464 129.90696 
C 359.367061 128.659381 357.674743 127.9584 355.9104 127.9584 
C 354.146057 127.9584 352.453739 128.659381 351.20616 129.90696 
C 349.958581 131.154539 349.2576 132.846857 349.2576 134.6112 
C 349.2576 136.375543 349.958581 138.067861 351.20616 139.31544 
C 352.453739 140.563019 354.146057 141.264 355.9104 141.264 
z
" style="fill:#9558b2;fill-opacity:0.5;stroke:#9558b2;stroke-linejoin:miter;stroke-width:2;"/>
   </g>
   <g id="patch_116">
    <path clip-path="url(#p5cc5a6a7df)" d="M 382.5216 137.9376 
C 383.403772 137.9376 384.24993 137.58711 384.87372 136.96332 
C 385.49751 136.33953 385.848 135.493372 385.848 134.6112 
C 385.848 133.729028 385.49751 132.88287 384.87372 132.25908 
C 384.24993 131.63529 383.403772 131.2848 382.5216 131.2848 
C 381.639428 131.2848 380.79327 131.63529 380.16948 132.25908 
C 379.54569 132.88287 379.1952 133.729028 379.1952 134.6112 
C 379.1952 135.493372 379.54569 136.33953 380.16948 136.96332 
C 380.79327 137.58711 381.639428 137.9376 382.5216 137.9376 
z
" style="fill:#009900;fill-opacity:0.5;stroke:#009900;stroke-linejoin:miter;stroke-width:2;"/>
   </g>
   <g id="patch_117">
    <path clip-path="url(#p5cc5a6a7df)" d="M 355.9104 114.6528 
C 357.674743 114.6528 359.367061 113.951819 360.61464 112.70424 
C 361.862219 111.456661 362.5632 109.764343 362.5632 108 
C 362.5632 106.235657 361.862219 104.543339 360.61464 103.29576 
C 359.367061 102.048181 357.674743 101.3472 355.9104 101.3472 
C 354.146057 101.3472 352.453739 102.048181 351.20616 103.29576 
C 349.958581 104.543339 349.2576 106.235657 349.2576 108 
C 349.2576 109.764343 349.958581 111.456661 351.20616 112.70424 
C 352.453739 113.951819 354.146057 114.6528 355.9104 114.6528 
z
" style="fill:#9558b2;fill-opacity:0.5;stroke:#9558b2;stroke-linejoin:miter;stroke-width:2;"/>
   </g>
   <g id="patch_118">
    <path clip-path="url(#p5cc5a6a7df)" d="M 382.5216 111.3264 
C 383.403772 111.3264 384.24993 110.97591 384.87372 110.35212 
C 385.49751 109.72833 385.848 108.882172 385.848 108 
C 385.848 107.117828 385.49751 106.27167 384.87372 105.64788 
C 384.24993 105.02409 383.403772 104.6736 382.5216 104.6736 
C 381.639428 104.6736 380.79327 105.02409 380.16948 105.64788 
C 379.54569 106.27167 379.1952 107.117828 379.1952 108 
C 379.1952 108.882172 379.54569 109.72833 380.16948 110.35212 
C 380.79327 110.97591 381.639428 111.3264 382.5216 111.3264 
z
" style="fill:#009900;fill-opacity:0.5;stroke:#009900;stroke-linejoin:miter;stroke-width:2;"/>
   </g>
   <g id="patch_119">
    <path clip-path="url(#p5cc5a6a7df)" d="M 355.9104 88.0416 
C 357.674743 88.0416 359.367061 87.340619 360.61464 86.09304 
C 361.862219 84.845461 362.5632 83.153143 362.5632 81.3888 
C 362.5632 79.624457 361.862219 77.932139 360.61464 76.68456 
C 359.367061 75.436981 357.674743 74.736 355.9104 74.736 
C 354.146057 74.736 352.453739 75.436981 351.20616 76.68456 
C 349.958581 77.932139 349.2576 79.624457 349.2576 81.3888 
C 349.2576 83.153143 349.958581 84.845461 351.20616 86.09304 
C 352.453739 87.340619 354.146057 88.0416 355.9104 88.0416 
z
" style="fill:#9558b2;fill-opacity:0.5;stroke:#9558b2;stroke-linejoin:miter;stroke-width:2;"/>
   </g>
   <g id="patch_120">
    <path clip-path="url(#p5cc5a6a7df)" d="M 382.5216 84.7152 
C 383.403772 84.7152 384.24993 84.36471 384.87372 83.74092 
C 385.49751 83.11713 385.848 82.270972 385.848 81.3888 
C 385.848 80.506628 385.49751 79.66047 384.87372 79.03668 
C 384.24993 78.41289 383.403772 78.0624 382.5216 78.0624 
C 381.639428 78.0624 380.79327 78.41289 380.16948 79.03668 
C 379.54569 79.66047 379.1952 80.506628 379.1952 81.3888 
C 379.1952 82.270972 379.54569 83.11713 380.16948 83.74092 
C 380.79327 84.36471 381.639428 84.7152 382.5216 84.7152 
z
" style="fill:#009900;fill-opacity:0.5;stroke:#009900;stroke-linejoin:miter;stroke-width:2;"/>
   </g>
   <g id="patch_121">
    <path clip-path="url(#p5cc5a6a7df)" d="M 355.9104 61.4304 
C 357.674743 61.4304 359.367061 60.729419 360.61464 59.48184 
C 361.862219 58.234261 362.5632 56.541943 362.5632 54.7776 
C 362.5632 53.013257 361.862219 51.320939 360.61464 50.07336 
C 359.367061 48.825781 357.674743 48.1248 355.9104 48.1248 
C 354.146057 48.1248 352.453739 48.825781 351.20616 50.07336 
C 349.958581 51.320939 349.2576 53.013257 349.2576 54.7776 
C 349.2576 56.541943 349.958581 58.234261 351.20616 59.48184 
C 352.453739 60.729419 354.146057 61.4304 355.9104 61.4304 
z
" style="fill:#9558b2;fill-opacity:0.5;stroke:#9558b2;stroke-linejoin:miter;stroke-width:2;"/>
   </g>
   <g id="patch_122">
    <path clip-path="url(#p5cc5a6a7df)" d="M 382.5216 58.104 
C 383.403772 58.104 384.24993 57.75351 384.87372 57.12972 
C 385.49751 56.50593 385.848 55.659772 385.848 54.7776 
C 385.848 53.895428 385.49751 53.04927 384.87372 52.42548 
C 384.24993 51.80169 383.403772 51.4512 382.5216 51.4512 
C 381.639428 51.4512 380.79327 51.80169 380.16948 52.42548 
C 379.54569 53.04927 379.1952 53.895428 379.1952 54.7776 
C 379.1952 55.659772 379.54569 56.50593 380.16948 57.12972 
C 380.79327 57.75351 381.639428 58.104 382.5216 58.104 
z
" style="fill:#009900;fill-opacity:0.5;stroke:#009900;stroke-linejoin:miter;stroke-width:2;"/>
   </g>
   <g id="matplotlib.axis_1">
    <g id="xtick_1">
     <g id="line2d_1">
      <defs>
       <path d="M 0 0 
L 0 3.5 
" id="m52ccb7f8e1" style="stroke:#000000;stroke-width:0.8;"/>
      </defs>
      <g>
       <use style="stroke:#000000;stroke-width:0.8;" x="76.4928" xlink:href="#m52ccb7f8e1" y="307.584"/>
      </g>
     </g>
     <g id="text_1">
      <!-- 4 -->
      <defs>
       <path d="M 10.59375 35.5 
L 73.1875 35.5 
L 73.1875 27.203125 
L 10.59375 27.203125 
z
" id="DejaVuSans-8722"/>
       <path d="M 37.796875 64.3125 
L 12.890625 25.390625 
L 37.796875 25.390625 
z
M 35.203125 72.90625 
L 47.609375 72.90625 
L 47.609375 25.390625 
L 58.015625 25.390625 
L 58.015625 17.1875 
L 47.609375 17.1875 
L 47.609375 0 
L 37.796875 0 
L 37.796875 17.1875 
L 4.890625 17.1875 
L 4.890625 26.703125 
z
" id="DejaVuSans-52"/>
      </defs>
      <g transform="translate(69.121706 322.182437)scale(0.1 -0.1)">
       <use xlink:href="#DejaVuSans-8722"/>
       <use x="83.789062" xlink:href="#DejaVuSans-52"/>
      </g>
     </g>
    </g>
    <g id="xtick_2">
     <g id="line2d_2">
      <g>
       <use style="stroke:#000000;stroke-width:0.8;" x="129.7152" xlink:href="#m52ccb7f8e1" y="307.584"/>
      </g>
     </g>
     <g id="text_2">
      <!-- 2 -->
      <defs>
       <path d="M 19.1875 8.296875 
L 53.609375 8.296875 
L 53.609375 0 
L 7.328125 0 
L 7.328125 8.296875 
Q 12.9375 14.109375 22.625 23.890625 
Q 32.328125 33.6875 34.8125 36.53125 
Q 39.546875 41.84375 41.421875 45.53125 
Q 43.3125 49.21875 43.3125 52.78125 
Q 43.3125 58.59375 39.234375 62.25 
Q 35.15625 65.921875 28.609375 65.921875 
Q 23.96875 65.921875 18.8125 64.3125 
Q 13.671875 62.703125 7.8125 59.421875 
L 7.8125 69.390625 
Q 13.765625 71.78125 18.9375 73 
Q 24.125 74.21875 28.421875 74.21875 
Q 39.75 74.21875 46.484375 68.546875 
Q 53.21875 62.890625 53.21875 53.421875 
Q 53.21875 48.921875 51.53125 44.890625 
Q 49.859375 40.875 45.40625 35.40625 
Q 44.1875 33.984375 37.640625 27.21875 
Q 31.109375 20.453125 19.1875 8.296875 
z
" id="DejaVuSans-50"/>
      </defs>
      <g transform="translate(122.344106 322.182437)scale(0.1 -0.1)">
       <use xlink:href="#DejaVuSans-8722"/>
       <use x="83.789062" xlink:href="#DejaVuSans-50"/>
      </g>
     </g>
    </g>
    <g id="xtick_3">
     <g id="line2d_3">
      <g>
       <use style="stroke:#000000;stroke-width:0.8;" x="182.9376" xlink:href="#m52ccb7f8e1" y="307.584"/>
      </g>
     </g>
     <g id="text_3">
      <!-- 0 -->
      <defs>
       <path d="M 31.78125 66.40625 
Q 24.171875 66.40625 20.328125 58.90625 
Q 16.5 51.421875 16.5 36.375 
Q 16.5 21.390625 20.328125 13.890625 
Q 24.171875 6.390625 31.78125 6.390625 
Q 39.453125 6.390625 43.28125 13.890625 
Q 47.125 21.390625 47.125 36.375 
Q 47.125 51.421875 43.28125 58.90625 
Q 39.453125 66.40625 31.78125 66.40625 
z
M 31.78125 74.21875 
Q 44.046875 74.21875 50.515625 64.515625 
Q 56.984375 54.828125 56.984375 36.375 
Q 56.984375 17.96875 50.515625 8.265625 
Q 44.046875 -1.421875 31.78125 -1.421875 
Q 19.53125 -1.421875 13.0625 8.265625 
Q 6.59375 17.96875 6.59375 36.375 
Q 6.59375 54.828125 13.0625 64.515625 
Q 19.53125 74.21875 31.78125 74.21875 
z
" id="DejaVuSans-48"/>
      </defs>
      <g transform="translate(179.75635 322.182437)scale(0.1 -0.1)">
       <use xlink:href="#DejaVuSans-48"/>
      </g>
     </g>
    </g>
    <g id="xtick_4">
     <g id="line2d_4">
      <g>
       <use style="stroke:#000000;stroke-width:0.8;" x="236.16" xlink:href="#m52ccb7f8e1" y="307.584"/>
      </g>
     </g>
     <g id="text_4">
      <!-- 2 -->
      <g transform="translate(232.97875 322.182437)scale(0.1 -0.1)">
       <use xlink:href="#DejaVuSans-50"/>
      </g>
     </g>
    </g>
    <g id="xtick_5">
     <g id="line2d_5">
      <g>
       <use style="stroke:#000000;stroke-width:0.8;" x="289.3824" xlink:href="#m52ccb7f8e1" y="307.584"/>
      </g>
     </g>
     <g id="text_5">
      <!-- 4 -->
      <g transform="translate(286.20115 322.182437)scale(0.1 -0.1)">
       <use xlink:href="#DejaVuSans-52"/>
      </g>
     </g>
    </g>
    <g id="xtick_6">
     <g id="line2d_6">
      <g>
       <use style="stroke:#000000;stroke-width:0.8;" x="342.6048" xlink:href="#m52ccb7f8e1" y="307.584"/>
      </g>
     </g>
     <g id="text_6">
      <!-- 6 -->
      <defs>
       <path d="M 33.015625 40.375 
Q 26.375 40.375 22.484375 35.828125 
Q 18.609375 31.296875 18.609375 23.390625 
Q 18.609375 15.53125 22.484375 10.953125 
Q 26.375 6.390625 33.015625 6.390625 
Q 39.65625 6.390625 43.53125 10.953125 
Q 47.40625 15.53125 47.40625 23.390625 
Q 47.40625 31.296875 43.53125 35.828125 
Q 39.65625 40.375 33.015625 40.375 
z
M 52.59375 71.296875 
L 52.59375 62.3125 
Q 48.875 64.0625 45.09375 64.984375 
Q 41.3125 65.921875 37.59375 65.921875 
Q 27.828125 65.921875 22.671875 59.328125 
Q 17.53125 52.734375 16.796875 39.40625 
Q 19.671875 43.65625 24.015625 45.921875 
Q 28.375 48.1875 33.59375 48.1875 
Q 44.578125 48.1875 50.953125 41.515625 
Q 57.328125 34.859375 57.328125 23.390625 
Q 57.328125 12.15625 50.6875 5.359375 
Q 44.046875 -1.421875 33.015625 -1.421875 
Q 20.359375 -1.421875 13.671875 8.265625 
Q 6.984375 17.96875 6.984375 36.375 
Q 6.984375 53.65625 15.1875 63.9375 
Q 23.390625 74.21875 37.203125 74.21875 
Q 40.921875 74.21875 44.703125 73.484375 
Q 48.484375 72.75 52.59375 71.296875 
z
" id="DejaVuSans-54"/>
      </defs>
      <g transform="translate(339.42355 322.182437)scale(0.1 -0.1)">
       <use xlink:href="#DejaVuSans-54"/>
      </g>
     </g>
    </g>
    <g id="xtick_7">
     <g id="line2d_7">
      <g>
       <use style="stroke:#000000;stroke-width:0.8;" x="395.8272" xlink:href="#m52ccb7f8e1" y="307.584"/>
      </g>
     </g>
     <g id="text_7">
      <!-- 8 -->
      <defs>
       <path d="M 31.78125 34.625 
Q 24.75 34.625 20.71875 30.859375 
Q 16.703125 27.09375 16.703125 20.515625 
Q 16.703125 13.921875 20.71875 10.15625 
Q 24.75 6.390625 31.78125 6.390625 
Q 38.8125 6.390625 42.859375 10.171875 
Q 46.921875 13.96875 46.921875 20.515625 
Q 46.921875 27.09375 42.890625 30.859375 
Q 38.875 34.625 31.78125 34.625 
z
M 21.921875 38.8125 
Q 15.578125 40.375 12.03125 44.71875 
Q 8.5 49.078125 8.5 55.328125 
Q 8.5 64.0625 14.71875 69.140625 
Q 20.953125 74.21875 31.78125 74.21875 
Q 42.671875 74.21875 48.875 69.140625 
Q 55.078125 64.0625 55.078125 55.328125 
Q 55.078125 49.078125 51.53125 44.71875 
Q 48 40.375 41.703125 38.8125 
Q 48.828125 37.15625 52.796875 32.3125 
Q 56.78125 27.484375 56.78125 20.515625 
Q 56.78125 9.90625 50.3125 4.234375 
Q 43.84375 -1.421875 31.78125 -1.421875 
Q 19.734375 -1.421875 13.25 4.234375 
Q 6.78125 9.90625 6.78125 20.515625 
Q 6.78125 27.484375 10.78125 32.3125 
Q 14.796875 37.15625 21.921875 38.8125 
z
M 18.3125 54.390625 
Q 18.3125 48.734375 21.84375 45.5625 
Q 25.390625 42.390625 31.78125 42.390625 
Q 38.140625 42.390625 41.71875 45.5625 
Q 45.3125 48.734375 45.3125 54.390625 
Q 45.3125 60.0625 41.71875 63.234375 
Q 38.140625 66.40625 31.78125 66.40625 
Q 25.390625 66.40625 21.84375 63.234375 
Q 18.3125 60.0625 18.3125 54.390625 
z
" id="DejaVuSans-56"/>
      </defs>
      <g transform="translate(392.64595 322.182437)scale(0.1 -0.1)">
       <use xlink:href="#DejaVuSans-56"/>
      </g>
     </g>
    </g>
   </g>
   <g id="matplotlib.axis_2">
    <g id="ytick_1">
     <g id="line2d_8">
      <defs>
       <path d="M 0 0 
L -3.5 0 
" id="m75ba6b8d42" style="stroke:#000000;stroke-width:0.8;"/>
      </defs>
      <g>
       <use style="stroke:#000000;stroke-width:0.8;" x="76.4928" xlink:href="#m75ba6b8d42" y="307.584"/>
      </g>
     </g>
     <g id="text_8">
      <!-- 0 -->
      <g transform="translate(63.1303 311.383219)scale(0.1 -0.1)">
       <use xlink:href="#DejaVuSans-48"/>
      </g>
     </g>
    </g>
    <g id="ytick_2">
     <g id="line2d_9">
      <g>
       <use style="stroke:#000000;stroke-width:0.8;" x="76.4928" xlink:href="#m75ba6b8d42" y="254.3616"/>
      </g>
     </g>
     <g id="text_9">
      <!-- 2 -->
      <g transform="translate(63.1303 258.160819)scale(0.1 -0.1)">
       <use xlink:href="#DejaVuSans-50"/>
      </g>
     </g>
    </g>
    <g id="ytick_3">
     <g id="line2d_10">
      <g>
       <use style="stroke:#000000;stroke-width:0.8;" x="76.4928" xlink:href="#m75ba6b8d42" y="201.1392"/>
      </g>
     </g>
     <g id="text_10">
      <!-- 4 -->
      <g transform="translate(63.1303 204.938419)scale(0.1 -0.1)">
       <use xlink:href="#DejaVuSans-52"/>
      </g>
     </g>
    </g>
    <g id="ytick_4">
     <g id="line2d_11">
      <g>
       <use style="stroke:#000000;stroke-width:0.8;" x="76.4928" xlink:href="#m75ba6b8d42" y="147.9168"/>
      </g>
     </g>
     <g id="text_11">
      <!-- 6 -->
      <g transform="translate(63.1303 151.716019)scale(0.1 -0.1)">
       <use xlink:href="#DejaVuSans-54"/>
      </g>
     </g>
    </g>
    <g id="ytick_5">
     <g id="line2d_12">
      <g>
       <use style="stroke:#000000;stroke-width:0.8;" x="76.4928" xlink:href="#m75ba6b8d42" y="94.6944"/>
      </g>
     </g>
     <g id="text_12">
      <!-- 8 -->
      <g transform="translate(63.1303 98.493619)scale(0.1 -0.1)">
       <use xlink:href="#DejaVuSans-56"/>
      </g>
     </g>
    </g>
    <g id="ytick_6">
     <g id="line2d_13">
      <g>
       <use style="stroke:#000000;stroke-width:0.8;" x="76.4928" xlink:href="#m75ba6b8d42" y="41.472"/>
      </g>
     </g>
     <g id="text_13">
      <!-- 10 -->
      <defs>
       <path d="M 12.40625 8.296875 
L 28.515625 8.296875 
L 28.515625 63.921875 
L 10.984375 60.40625 
L 10.984375 69.390625 
L 28.421875 72.90625 
L 38.28125 72.90625 
L 38.28125 8.296875 
L 54.390625 8.296875 
L 54.390625 0 
L 12.40625 0 
z
" id="DejaVuSans-49"/>
      </defs>
      <g transform="translate(56.7678 45.271219)scale(0.1 -0.1)">
       <use xlink:href="#DejaVuSans-49"/>
       <use x="63.623047" xlink:href="#DejaVuSans-48"/>
      </g>
     </g>
    </g>
   </g>
   <g id="line2d_14">
    <path clip-path="url(#p5cc5a6a7df)" d="M 221.790383 304.306466 
L 202.164189 291.24498 
L 296.053809 267.169947 
L 277.711138 217.342019 
L 296.07703 240.311137 
L 274.708358 137.643081 
L 197.887592 181.387227 
L 119.273792 136.30275 
L 193.835631 181.631716 
L 191.715626 166.096907 
L 148.224122 191.979103 
L 167.46141 190.35421 
L 168.812989 211.220803 
L 147.832187 165.816995 
L 170.883794 237.974126 
L 302.342945 167.866246 
L 278.977206 186.204926 
L 349.396553 159.869793 
L 278.207954 185.27956 
L 298.762233 60.148643 
L 254.544485 77.091746 
" style="fill:none;stroke:#1f77b4;stroke-linecap:square;stroke-width:1.5;"/>
   </g>
   <g id="patch_123">
    <path d="M 76.4928 307.584 
L 76.4928 41.472 
" style="fill:none;stroke:#000000;stroke-linecap:square;stroke-linejoin:miter;stroke-width:0.8;"/>
   </g>
   <g id="patch_124">
    <path d="M 395.8272 307.584 
L 395.8272 41.472 
" style="fill:none;stroke:#000000;stroke-linecap:square;stroke-linejoin:miter;stroke-width:0.8;"/>
   </g>
   <g id="patch_125">
    <path d="M 76.4928 307.584 
L 395.8272 307.584 
" style="fill:none;stroke:#000000;stroke-linecap:square;stroke-linejoin:miter;stroke-width:0.8;"/>
   </g>
   <g id="patch_126">
    <path d="M 76.4928 41.472 
L 395.8272 41.472 
" style="fill:none;stroke:#000000;stroke-linecap:square;stroke-linejoin:miter;stroke-width:0.8;"/>
   </g>
  </g>
 </g>
 <defs>
  <clipPath id="p5cc5a6a7df">
   <rect height="266.112" width="319.3344" x="76.4928" y="41.472"/>
  </clipPath>
 </defs>
</svg>
