<?xml version="1.0" encoding="utf-8" standalone="no"?>
<!DOCTYPE svg PUBLIC "-//W3C//DTD SVG 1.1//EN"
  "http://www.w3.org/Graphics/SVG/1.1/DTD/svg11.dtd">
<!-- Created with matplotlib (http://matplotlib.org/) -->
<svg height="345.6pt" version="1.1" viewBox="0 0 460.8 345.6" width="460.8pt" xmlns="http://www.w3.org/2000/svg" xmlns:xlink="http://www.w3.org/1999/xlink">
 <defs>
  <style type="text/css">
*{stroke-linecap:butt;stroke-linejoin:round;}
  </style>
 </defs>
 <g id="figure_1">
  <g id="patch_1">
   <path d="M 0 345.6 
L 460.8 345.6 
L 460.8 0 
L 0 0 
z
" style="fill:#ffffff;"/>
  </g>
  <g id="axes_1">
   <g id="patch_2">
    <path d="M 58.752 307.584 
L 413.568 307.584 
L 413.568 41.472 
L 58.752 41.472 
z
" style="fill:#ffffff;"/>
   </g>
   <g id="PathCollection_1">
    <defs>
     <path d="M 0 3 
C 0.795609 3 1.55874 2.683901 2.12132 2.12132 
C 2.683901 1.55874 3 0.795609 3 0 
C 3 -0.795609 2.683901 -1.55874 2.12132 -2.12132 
C 1.55874 -2.683901 0.795609 -3 0 -3 
C -0.795609 -3 -1.55874 -2.683901 -2.12132 -2.12132 
C -2.683901 -1.55874 -3 -0.795609 -3 0 
C -3 0.795609 -2.683901 1.55874 -2.12132 2.12132 
C -1.55874 2.683901 -0.795609 3 0 3 
z
" id="md310ce6ce5" style="stroke:#000000;"/>
    </defs>
    <g clip-path="url(#p02bf7efbf7)">
     <use style="stroke:#000000;" x="206.345042" xlink:href="#md310ce6ce5" y="98.449581"/>
    </g>
   </g>
   <g id="PathCollection_2">
    <defs>
     <path d="M 0 2.738613 
C 0.726289 2.738613 1.422928 2.450055 1.936492 1.936492 
C 2.450055 1.422928 2.738613 0.726289 2.738613 0 
C 2.738613 -0.726289 2.450055 -1.422928 1.936492 -1.936492 
C 1.422928 -2.450055 0.726289 -2.738613 0 -2.738613 
C -0.726289 -2.738613 -1.422928 -2.450055 -1.936492 -1.936492 
C -2.450055 -1.422928 -2.738613 -0.726289 -2.738613 0 
C -2.738613 0.726289 -2.450055 1.422928 -1.936492 1.936492 
C -1.422928 2.450055 -0.726289 2.738613 0 2.738613 
z
" id="m1e5374f9a9" style="stroke:#000000;"/>
    </defs>
    <g clip-path="url(#p02bf7efbf7)">
     <use style="stroke:#000000;" x="317.042027" xlink:href="#m1e5374f9a9" y="147.444318"/>
    </g>
   </g>
   <g id="Quiver_1">
    <path clip-path="url(#p02bf7efbf7)" d="M 317.901585 147.663409 
L 312.862492 167.433232 
L 314.800698 167.011856 
L 310.031115 174.950158 
L 309.643353 165.69731 
L 311.143377 166.99505 
L 316.18247 147.225227 
L 317.901585 147.663409 
"/>
   </g>
   <g id="patch_3">
    <path clip-path="url(#p02bf7efbf7)" d="M 73.536 300.192 
C 75.496381 300.192 77.376734 299.413132 78.762933 298.026933 
C 80.149132 296.640734 80.928 294.760381 80.928 292.8 
C 80.928 290.839619 80.149132 288.959266 78.762933 287.573067 
C 77.376734 286.186868 75.496381 285.408 73.536 285.408 
C 71.575619 285.408 69.695266 286.186868 68.309067 287.573067 
C 66.922868 288.959266 66.144 290.839619 66.144 292.8 
C 66.144 294.760381 66.922868 296.640734 68.309067 298.026933 
C 69.695266 299.413132 71.575619 300.192 73.536 300.192 
z
" style="fill:#9558b2;fill-opacity:0.5;stroke:#9558b2;stroke-linejoin:miter;stroke-width:2;"/>
   </g>
   <g id="patch_4">
    <path clip-path="url(#p02bf7efbf7)" d="M 103.104 296.496 
C 104.084191 296.496 105.024367 296.106566 105.717467 295.413467 
C 106.410566 294.720367 106.8 293.780191 106.8 292.8 
C 106.8 291.819809 106.410566 290.879633 105.717467 290.186533 
C 105.024367 289.493434 104.084191 289.104 103.104 289.104 
C 102.123809 289.104 101.183633 289.493434 100.490533 290.186533 
C 99.797434 290.879633 99.408 291.819809 99.408 292.8 
C 99.408 293.780191 99.797434 294.720367 100.490533 295.413467 
C 101.183633 296.106566 102.123809 296.496 103.104 296.496 
z
" style="fill:#009900;fill-opacity:0.5;stroke:#009900;stroke-linejoin:miter;stroke-width:2;"/>
   </g>
   <g id="patch_5">
    <path clip-path="url(#p02bf7efbf7)" d="M 73.536 270.624 
C 75.496381 270.624 77.376734 269.845132 78.762933 268.458933 
C 80.149132 267.072734 80.928 265.192381 80.928 263.232 
C 80.928 261.271619 80.149132 259.391266 78.762933 258.005067 
C 77.376734 256.618868 75.496381 255.84 73.536 255.84 
C 71.575619 255.84 69.695266 256.618868 68.309067 258.005067 
C 66.922868 259.391266 66.144 261.271619 66.144 263.232 
C 66.144 265.192381 66.922868 267.072734 68.309067 268.458933 
C 69.695266 269.845132 71.575619 270.624 73.536 270.624 
z
" style="fill:#9558b2;fill-opacity:0.5;stroke:#9558b2;stroke-linejoin:miter;stroke-width:2;"/>
   </g>
   <g id="patch_6">
    <path clip-path="url(#p02bf7efbf7)" d="M 103.104 266.928 
C 104.084191 266.928 105.024367 266.538566 105.717467 265.845467 
C 106.410566 265.152367 106.8 264.212191 106.8 263.232 
C 106.8 262.251809 106.410566 261.311633 105.717467 260.618533 
C 105.024367 259.925434 104.084191 259.536 103.104 259.536 
C 102.123809 259.536 101.183633 259.925434 100.490533 260.618533 
C 99.797434 261.311633 99.408 262.251809 99.408 263.232 
C 99.408 264.212191 99.797434 265.152367 100.490533 265.845467 
C 101.183633 266.538566 102.123809 266.928 103.104 266.928 
z
" style="fill:#009900;fill-opacity:0.5;stroke:#009900;stroke-linejoin:miter;stroke-width:2;"/>
   </g>
   <g id="patch_7">
    <path clip-path="url(#p02bf7efbf7)" d="M 73.536 241.056 
C 75.496381 241.056 77.376734 240.277132 78.762933 238.890933 
C 80.149132 237.504734 80.928 235.624381 80.928 233.664 
C 80.928 231.703619 80.149132 229.823266 78.762933 228.437067 
C 77.376734 227.050868 75.496381 226.272 73.536 226.272 
C 71.575619 226.272 69.695266 227.050868 68.309067 228.437067 
C 66.922868 229.823266 66.144 231.703619 66.144 233.664 
C 66.144 235.624381 66.922868 237.504734 68.309067 238.890933 
C 69.695266 240.277132 71.575619 241.056 73.536 241.056 
z
" style="fill:#9558b2;fill-opacity:0.5;stroke:#9558b2;stroke-linejoin:miter;stroke-width:2;"/>
   </g>
   <g id="patch_8">
    <path clip-path="url(#p02bf7efbf7)" d="M 103.104 237.36 
C 104.084191 237.36 105.024367 236.970566 105.717467 236.277467 
C 106.410566 235.584367 106.8 234.644191 106.8 233.664 
C 106.8 232.683809 106.410566 231.743633 105.717467 231.050533 
C 105.024367 230.357434 104.084191 229.968 103.104 229.968 
C 102.123809 229.968 101.183633 230.357434 100.490533 231.050533 
C 99.797434 231.743633 99.408 232.683809 99.408 233.664 
C 99.408 234.644191 99.797434 235.584367 100.490533 236.277467 
C 101.183633 236.970566 102.123809 237.36 103.104 237.36 
z
" style="fill:#009900;fill-opacity:0.5;stroke:#009900;stroke-linejoin:miter;stroke-width:2;"/>
   </g>
   <g id="patch_9">
    <path clip-path="url(#p02bf7efbf7)" d="M 73.536 211.488 
C 75.496381 211.488 77.376734 210.709132 78.762933 209.322933 
C 80.149132 207.936734 80.928 206.056381 80.928 204.096 
C 80.928 202.135619 80.149132 200.255266 78.762933 198.869067 
C 77.376734 197.482868 75.496381 196.704 73.536 196.704 
C 71.575619 196.704 69.695266 197.482868 68.309067 198.869067 
C 66.922868 200.255266 66.144 202.135619 66.144 204.096 
C 66.144 206.056381 66.922868 207.936734 68.309067 209.322933 
C 69.695266 210.709132 71.575619 211.488 73.536 211.488 
z
" style="fill:#9558b2;fill-opacity:0.5;stroke:#9558b2;stroke-linejoin:miter;stroke-width:2;"/>
   </g>
   <g id="patch_10">
    <path clip-path="url(#p02bf7efbf7)" d="M 103.104 207.792 
C 104.084191 207.792 105.024367 207.402566 105.717467 206.709467 
C 106.410566 206.016367 106.8 205.076191 106.8 204.096 
C 106.8 203.115809 106.410566 202.175633 105.717467 201.482533 
C 105.024367 200.789434 104.084191 200.4 103.104 200.4 
C 102.123809 200.4 101.183633 200.789434 100.490533 201.482533 
C 99.797434 202.175633 99.408 203.115809 99.408 204.096 
C 99.408 205.076191 99.797434 206.016367 100.490533 206.709467 
C 101.183633 207.402566 102.123809 207.792 103.104 207.792 
z
" style="fill:#009900;fill-opacity:0.5;stroke:#009900;stroke-linejoin:miter;stroke-width:2;"/>
   </g>
   <g id="patch_11">
    <path clip-path="url(#p02bf7efbf7)" d="M 73.536 181.92 
C 75.496381 181.92 77.376734 181.141132 78.762933 179.754933 
C 80.149132 178.368734 80.928 176.488381 80.928 174.528 
C 80.928 172.567619 80.149132 170.687266 78.762933 169.301067 
C 77.376734 167.914868 75.496381 167.136 73.536 167.136 
C 71.575619 167.136 69.695266 167.914868 68.309067 169.301067 
C 66.922868 170.687266 66.144 172.567619 66.144 174.528 
C 66.144 176.488381 66.922868 178.368734 68.309067 179.754933 
C 69.695266 181.141132 71.575619 181.92 73.536 181.92 
z
" style="fill:#9558b2;fill-opacity:0.5;stroke:#9558b2;stroke-linejoin:miter;stroke-width:2;"/>
   </g>
   <g id="patch_12">
    <path clip-path="url(#p02bf7efbf7)" d="M 103.104 178.224 
C 104.084191 178.224 105.024367 177.834566 105.717467 177.141467 
C 106.410566 176.448367 106.8 175.508191 106.8 174.528 
C 106.8 173.547809 106.410566 172.607633 105.717467 171.914533 
C 105.024367 171.221434 104.084191 170.832 103.104 170.832 
C 102.123809 170.832 101.183633 171.221434 100.490533 171.914533 
C 99.797434 172.607633 99.408 173.547809 99.408 174.528 
C 99.408 175.508191 99.797434 176.448367 100.490533 177.141467 
C 101.183633 177.834566 102.123809 178.224 103.104 178.224 
z
" style="fill:#009900;fill-opacity:0.5;stroke:#009900;stroke-linejoin:miter;stroke-width:2;"/>
   </g>
   <g id="patch_13">
    <path clip-path="url(#p02bf7efbf7)" d="M 73.536 152.352 
C 75.496381 152.352 77.376734 151.573132 78.762933 150.186933 
C 80.149132 148.800734 80.928 146.920381 80.928 144.96 
C 80.928 142.999619 80.149132 141.119266 78.762933 139.733067 
C 77.376734 138.346868 75.496381 137.568 73.536 137.568 
C 71.575619 137.568 69.695266 138.346868 68.309067 139.733067 
C 66.922868 141.119266 66.144 142.999619 66.144 144.96 
C 66.144 146.920381 66.922868 148.800734 68.309067 150.186933 
C 69.695266 151.573132 71.575619 152.352 73.536 152.352 
z
" style="fill:#9558b2;fill-opacity:0.5;stroke:#9558b2;stroke-linejoin:miter;stroke-width:2;"/>
   </g>
   <g id="patch_14">
    <path clip-path="url(#p02bf7efbf7)" d="M 103.104 148.656 
C 104.084191 148.656 105.024367 148.266566 105.717467 147.573467 
C 106.410566 146.880367 106.8 145.940191 106.8 144.96 
C 106.8 143.979809 106.410566 143.039633 105.717467 142.346533 
C 105.024367 141.653434 104.084191 141.264 103.104 141.264 
C 102.123809 141.264 101.183633 141.653434 100.490533 142.346533 
C 99.797434 143.039633 99.408 143.979809 99.408 144.96 
C 99.408 145.940191 99.797434 146.880367 100.490533 147.573467 
C 101.183633 148.266566 102.123809 148.656 103.104 148.656 
z
" style="fill:#009900;fill-opacity:0.5;stroke:#009900;stroke-linejoin:miter;stroke-width:2;"/>
   </g>
   <g id="patch_15">
    <path clip-path="url(#p02bf7efbf7)" d="M 73.536 122.784 
C 75.496381 122.784 77.376734 122.005132 78.762933 120.618933 
C 80.149132 119.232734 80.928 117.352381 80.928 115.392 
C 80.928 113.431619 80.149132 111.551266 78.762933 110.165067 
C 77.376734 108.778868 75.496381 108 73.536 108 
C 71.575619 108 69.695266 108.778868 68.309067 110.165067 
C 66.922868 111.551266 66.144 113.431619 66.144 115.392 
C 66.144 117.352381 66.922868 119.232734 68.309067 120.618933 
C 69.695266 122.005132 71.575619 122.784 73.536 122.784 
z
" style="fill:#9558b2;fill-opacity:0.5;stroke:#9558b2;stroke-linejoin:miter;stroke-width:2;"/>
   </g>
   <g id="patch_16">
    <path clip-path="url(#p02bf7efbf7)" d="M 103.104 119.088 
C 104.084191 119.088 105.024367 118.698566 105.717467 118.005467 
C 106.410566 117.312367 106.8 116.372191 106.8 115.392 
C 106.8 114.411809 106.410566 113.471633 105.717467 112.778533 
C 105.024367 112.085434 104.084191 111.696 103.104 111.696 
C 102.123809 111.696 101.183633 112.085434 100.490533 112.778533 
C 99.797434 113.471633 99.408 114.411809 99.408 115.392 
C 99.408 116.372191 99.797434 117.312367 100.490533 118.005467 
C 101.183633 118.698566 102.123809 119.088 103.104 119.088 
z
" style="fill:#009900;fill-opacity:0.5;stroke:#009900;stroke-linejoin:miter;stroke-width:2;"/>
   </g>
   <g id="patch_17">
    <path clip-path="url(#p02bf7efbf7)" d="M 73.536 93.216 
C 75.496381 93.216 77.376734 92.437132 78.762933 91.050933 
C 80.149132 89.664734 80.928 87.784381 80.928 85.824 
C 80.928 83.863619 80.149132 81.983266 78.762933 80.597067 
C 77.376734 79.210868 75.496381 78.432 73.536 78.432 
C 71.575619 78.432 69.695266 79.210868 68.309067 80.597067 
C 66.922868 81.983266 66.144 83.863619 66.144 85.824 
C 66.144 87.784381 66.922868 89.664734 68.309067 91.050933 
C 69.695266 92.437132 71.575619 93.216 73.536 93.216 
z
" style="fill:#9558b2;fill-opacity:0.5;stroke:#9558b2;stroke-linejoin:miter;stroke-width:2;"/>
   </g>
   <g id="patch_18">
    <path clip-path="url(#p02bf7efbf7)" d="M 103.104 89.52 
C 104.084191 89.52 105.024367 89.130566 105.717467 88.437467 
C 106.410566 87.744367 106.8 86.804191 106.8 85.824 
C 106.8 84.843809 106.410566 83.903633 105.717467 83.210533 
C 105.024367 82.517434 104.084191 82.128 103.104 82.128 
C 102.123809 82.128 101.183633 82.517434 100.490533 83.210533 
C 99.797434 83.903633 99.408 84.843809 99.408 85.824 
C 99.408 86.804191 99.797434 87.744367 100.490533 88.437467 
C 101.183633 89.130566 102.123809 89.52 103.104 89.52 
z
" style="fill:#009900;fill-opacity:0.5;stroke:#009900;stroke-linejoin:miter;stroke-width:2;"/>
   </g>
   <g id="patch_19">
    <path clip-path="url(#p02bf7efbf7)" d="M 73.536 63.648 
C 75.496381 63.648 77.376734 62.869132 78.762933 61.482933 
C 80.149132 60.096734 80.928 58.216381 80.928 56.256 
C 80.928 54.295619 80.149132 52.415266 78.762933 51.029067 
C 77.376734 49.642868 75.496381 48.864 73.536 48.864 
C 71.575619 48.864 69.695266 49.642868 68.309067 51.029067 
C 66.922868 52.415266 66.144 54.295619 66.144 56.256 
C 66.144 58.216381 66.922868 60.096734 68.309067 61.482933 
C 69.695266 62.869132 71.575619 63.648 73.536 63.648 
z
" style="fill:#9558b2;fill-opacity:0.5;stroke:#9558b2;stroke-linejoin:miter;stroke-width:2;"/>
   </g>
   <g id="patch_20">
    <path clip-path="url(#p02bf7efbf7)" d="M 103.104 59.952 
C 104.084191 59.952 105.024367 59.562566 105.717467 58.869467 
C 106.410566 58.176367 106.8 57.236191 106.8 56.256 
C 106.8 55.275809 106.410566 54.335633 105.717467 53.642533 
C 105.024367 52.949434 104.084191 52.56 103.104 52.56 
C 102.123809 52.56 101.183633 52.949434 100.490533 53.642533 
C 99.797434 54.335633 99.408 55.275809 99.408 56.256 
C 99.408 57.236191 99.797434 58.176367 100.490533 58.869467 
C 101.183633 59.562566 102.123809 59.952 103.104 59.952 
z
" style="fill:#009900;fill-opacity:0.5;stroke:#009900;stroke-linejoin:miter;stroke-width:2;"/>
   </g>
   <g id="patch_21">
    <path clip-path="url(#p02bf7efbf7)" d="M 132.672 300.192 
C 134.632381 300.192 136.512734 299.413132 137.898933 298.026933 
C 139.285132 296.640734 140.064 294.760381 140.064 292.8 
C 140.064 290.839619 139.285132 288.959266 137.898933 287.573067 
C 136.512734 286.186868 134.632381 285.408 132.672 285.408 
C 130.711619 285.408 128.831266 286.186868 127.445067 287.573067 
C 126.058868 288.959266 125.28 290.839619 125.28 292.8 
C 125.28 294.760381 126.058868 296.640734 127.445067 298.026933 
C 128.831266 299.413132 130.711619 300.192 132.672 300.192 
z
" style="fill:#9558b2;fill-opacity:0.5;stroke:#9558b2;stroke-linejoin:miter;stroke-width:2;"/>
   </g>
   <g id="patch_22">
    <path clip-path="url(#p02bf7efbf7)" d="M 162.24 296.496 
C 163.220191 296.496 164.160367 296.106566 164.853467 295.413467 
C 165.546566 294.720367 165.936 293.780191 165.936 292.8 
C 165.936 291.819809 165.546566 290.879633 164.853467 290.186533 
C 164.160367 289.493434 163.220191 289.104 162.24 289.104 
C 161.259809 289.104 160.319633 289.493434 159.626533 290.186533 
C 158.933434 290.879633 158.544 291.819809 158.544 292.8 
C 158.544 293.780191 158.933434 294.720367 159.626533 295.413467 
C 160.319633 296.106566 161.259809 296.496 162.24 296.496 
z
" style="fill:#009900;fill-opacity:0.5;stroke:#009900;stroke-linejoin:miter;stroke-width:2;"/>
   </g>
   <g id="patch_23">
    <path clip-path="url(#p02bf7efbf7)" d="M 132.672 270.624 
C 134.632381 270.624 136.512734 269.845132 137.898933 268.458933 
C 139.285132 267.072734 140.064 265.192381 140.064 263.232 
C 140.064 261.271619 139.285132 259.391266 137.898933 258.005067 
C 136.512734 256.618868 134.632381 255.84 132.672 255.84 
C 130.711619 255.84 128.831266 256.618868 127.445067 258.005067 
C 126.058868 259.391266 125.28 261.271619 125.28 263.232 
C 125.28 265.192381 126.058868 267.072734 127.445067 268.458933 
C 128.831266 269.845132 130.711619 270.624 132.672 270.624 
z
" style="fill:#9558b2;fill-opacity:0.5;stroke:#9558b2;stroke-linejoin:miter;stroke-width:2;"/>
   </g>
   <g id="patch_24">
    <path clip-path="url(#p02bf7efbf7)" d="M 162.24 266.928 
C 163.220191 266.928 164.160367 266.538566 164.853467 265.845467 
C 165.546566 265.152367 165.936 264.212191 165.936 263.232 
C 165.936 262.251809 165.546566 261.311633 164.853467 260.618533 
C 164.160367 259.925434 163.220191 259.536 162.24 259.536 
C 161.259809 259.536 160.319633 259.925434 159.626533 260.618533 
C 158.933434 261.311633 158.544 262.251809 158.544 263.232 
C 158.544 264.212191 158.933434 265.152367 159.626533 265.845467 
C 160.319633 266.538566 161.259809 266.928 162.24 266.928 
z
" style="fill:#009900;fill-opacity:0.5;stroke:#009900;stroke-linejoin:miter;stroke-width:2;"/>
   </g>
   <g id="patch_25">
    <path clip-path="url(#p02bf7efbf7)" d="M 132.672 241.056 
C 134.632381 241.056 136.512734 240.277132 137.898933 238.890933 
C 139.285132 237.504734 140.064 235.624381 140.064 233.664 
C 140.064 231.703619 139.285132 229.823266 137.898933 228.437067 
C 136.512734 227.050868 134.632381 226.272 132.672 226.272 
C 130.711619 226.272 128.831266 227.050868 127.445067 228.437067 
C 126.058868 229.823266 125.28 231.703619 125.28 233.664 
C 125.28 235.624381 126.058868 237.504734 127.445067 238.890933 
C 128.831266 240.277132 130.711619 241.056 132.672 241.056 
z
" style="fill:#9558b2;fill-opacity:0.5;stroke:#9558b2;stroke-linejoin:miter;stroke-width:2;"/>
   </g>
   <g id="patch_26">
    <path clip-path="url(#p02bf7efbf7)" d="M 162.24 237.36 
C 163.220191 237.36 164.160367 236.970566 164.853467 236.277467 
C 165.546566 235.584367 165.936 234.644191 165.936 233.664 
C 165.936 232.683809 165.546566 231.743633 164.853467 231.050533 
C 164.160367 230.357434 163.220191 229.968 162.24 229.968 
C 161.259809 229.968 160.319633 230.357434 159.626533 231.050533 
C 158.933434 231.743633 158.544 232.683809 158.544 233.664 
C 158.544 234.644191 158.933434 235.584367 159.626533 236.277467 
C 160.319633 236.970566 161.259809 237.36 162.24 237.36 
z
" style="fill:#009900;fill-opacity:0.5;stroke:#009900;stroke-linejoin:miter;stroke-width:2;"/>
   </g>
   <g id="patch_27">
    <path clip-path="url(#p02bf7efbf7)" d="M 132.672 211.488 
C 134.632381 211.488 136.512734 210.709132 137.898933 209.322933 
C 139.285132 207.936734 140.064 206.056381 140.064 204.096 
C 140.064 202.135619 139.285132 200.255266 137.898933 198.869067 
C 136.512734 197.482868 134.632381 196.704 132.672 196.704 
C 130.711619 196.704 128.831266 197.482868 127.445067 198.869067 
C 126.058868 200.255266 125.28 202.135619 125.28 204.096 
C 125.28 206.056381 126.058868 207.936734 127.445067 209.322933 
C 128.831266 210.709132 130.711619 211.488 132.672 211.488 
z
" style="fill:#9558b2;fill-opacity:0.5;stroke:#9558b2;stroke-linejoin:miter;stroke-width:2;"/>
   </g>
   <g id="patch_28">
    <path clip-path="url(#p02bf7efbf7)" d="M 162.24 207.792 
C 163.220191 207.792 164.160367 207.402566 164.853467 206.709467 
C 165.546566 206.016367 165.936 205.076191 165.936 204.096 
C 165.936 203.115809 165.546566 202.175633 164.853467 201.482533 
C 164.160367 200.789434 163.220191 200.4 162.24 200.4 
C 161.259809 200.4 160.319633 200.789434 159.626533 201.482533 
C 158.933434 202.175633 158.544 203.115809 158.544 204.096 
C 158.544 205.076191 158.933434 206.016367 159.626533 206.709467 
C 160.319633 207.402566 161.259809 207.792 162.24 207.792 
z
" style="fill:#009900;fill-opacity:0.5;stroke:#009900;stroke-linejoin:miter;stroke-width:2;"/>
   </g>
   <g id="patch_29">
    <path clip-path="url(#p02bf7efbf7)" d="M 132.672 181.92 
C 134.632381 181.92 136.512734 181.141132 137.898933 179.754933 
C 139.285132 178.368734 140.064 176.488381 140.064 174.528 
C 140.064 172.567619 139.285132 170.687266 137.898933 169.301067 
C 136.512734 167.914868 134.632381 167.136 132.672 167.136 
C 130.711619 167.136 128.831266 167.914868 127.445067 169.301067 
C 126.058868 170.687266 125.28 172.567619 125.28 174.528 
C 125.28 176.488381 126.058868 178.368734 127.445067 179.754933 
C 128.831266 181.141132 130.711619 181.92 132.672 181.92 
z
" style="fill:#9558b2;fill-opacity:0.5;stroke:#9558b2;stroke-linejoin:miter;stroke-width:2;"/>
   </g>
   <g id="patch_30">
    <path clip-path="url(#p02bf7efbf7)" d="M 162.24 178.224 
C 163.220191 178.224 164.160367 177.834566 164.853467 177.141467 
C 165.546566 176.448367 165.936 175.508191 165.936 174.528 
C 165.936 173.547809 165.546566 172.607633 164.853467 171.914533 
C 164.160367 171.221434 163.220191 170.832 162.24 170.832 
C 161.259809 170.832 160.319633 171.221434 159.626533 171.914533 
C 158.933434 172.607633 158.544 173.547809 158.544 174.528 
C 158.544 175.508191 158.933434 176.448367 159.626533 177.141467 
C 160.319633 177.834566 161.259809 178.224 162.24 178.224 
z
" style="fill:#009900;fill-opacity:0.5;stroke:#009900;stroke-linejoin:miter;stroke-width:2;"/>
   </g>
   <g id="patch_31">
    <path clip-path="url(#p02bf7efbf7)" d="M 132.672 152.352 
C 134.632381 152.352 136.512734 151.573132 137.898933 150.186933 
C 139.285132 148.800734 140.064 146.920381 140.064 144.96 
C 140.064 142.999619 139.285132 141.119266 137.898933 139.733067 
C 136.512734 138.346868 134.632381 137.568 132.672 137.568 
C 130.711619 137.568 128.831266 138.346868 127.445067 139.733067 
C 126.058868 141.119266 125.28 142.999619 125.28 144.96 
C 125.28 146.920381 126.058868 148.800734 127.445067 150.186933 
C 128.831266 151.573132 130.711619 152.352 132.672 152.352 
z
" style="fill:#9558b2;fill-opacity:0.5;stroke:#9558b2;stroke-linejoin:miter;stroke-width:2;"/>
   </g>
   <g id="patch_32">
    <path clip-path="url(#p02bf7efbf7)" d="M 162.24 148.656 
C 163.220191 148.656 164.160367 148.266566 164.853467 147.573467 
C 165.546566 146.880367 165.936 145.940191 165.936 144.96 
C 165.936 143.979809 165.546566 143.039633 164.853467 142.346533 
C 164.160367 141.653434 163.220191 141.264 162.24 141.264 
C 161.259809 141.264 160.319633 141.653434 159.626533 142.346533 
C 158.933434 143.039633 158.544 143.979809 158.544 144.96 
C 158.544 145.940191 158.933434 146.880367 159.626533 147.573467 
C 160.319633 148.266566 161.259809 148.656 162.24 148.656 
z
" style="fill:#009900;fill-opacity:0.5;stroke:#009900;stroke-linejoin:miter;stroke-width:2;"/>
   </g>
   <g id="patch_33">
    <path clip-path="url(#p02bf7efbf7)" d="M 132.672 122.784 
C 134.632381 122.784 136.512734 122.005132 137.898933 120.618933 
C 139.285132 119.232734 140.064 117.352381 140.064 115.392 
C 140.064 113.431619 139.285132 111.551266 137.898933 110.165067 
C 136.512734 108.778868 134.632381 108 132.672 108 
C 130.711619 108 128.831266 108.778868 127.445067 110.165067 
C 126.058868 111.551266 125.28 113.431619 125.28 115.392 
C 125.28 117.352381 126.058868 119.232734 127.445067 120.618933 
C 128.831266 122.005132 130.711619 122.784 132.672 122.784 
z
" style="fill:#9558b2;fill-opacity:0.5;stroke:#9558b2;stroke-linejoin:miter;stroke-width:2;"/>
   </g>
   <g id="patch_34">
    <path clip-path="url(#p02bf7efbf7)" d="M 162.24 119.088 
C 163.220191 119.088 164.160367 118.698566 164.853467 118.005467 
C 165.546566 117.312367 165.936 116.372191 165.936 115.392 
C 165.936 114.411809 165.546566 113.471633 164.853467 112.778533 
C 164.160367 112.085434 163.220191 111.696 162.24 111.696 
C 161.259809 111.696 160.319633 112.085434 159.626533 112.778533 
C 158.933434 113.471633 158.544 114.411809 158.544 115.392 
C 158.544 116.372191 158.933434 117.312367 159.626533 118.005467 
C 160.319633 118.698566 161.259809 119.088 162.24 119.088 
z
" style="fill:#009900;fill-opacity:0.5;stroke:#009900;stroke-linejoin:miter;stroke-width:2;"/>
   </g>
   <g id="patch_35">
    <path clip-path="url(#p02bf7efbf7)" d="M 132.672 93.216 
C 134.632381 93.216 136.512734 92.437132 137.898933 91.050933 
C 139.285132 89.664734 140.064 87.784381 140.064 85.824 
C 140.064 83.863619 139.285132 81.983266 137.898933 80.597067 
C 136.512734 79.210868 134.632381 78.432 132.672 78.432 
C 130.711619 78.432 128.831266 79.210868 127.445067 80.597067 
C 126.058868 81.983266 125.28 83.863619 125.28 85.824 
C 125.28 87.784381 126.058868 89.664734 127.445067 91.050933 
C 128.831266 92.437132 130.711619 93.216 132.672 93.216 
z
" style="fill:#9558b2;fill-opacity:0.5;stroke:#9558b2;stroke-linejoin:miter;stroke-width:2;"/>
   </g>
   <g id="patch_36">
    <path clip-path="url(#p02bf7efbf7)" d="M 162.24 89.52 
C 163.220191 89.52 164.160367 89.130566 164.853467 88.437467 
C 165.546566 87.744367 165.936 86.804191 165.936 85.824 
C 165.936 84.843809 165.546566 83.903633 164.853467 83.210533 
C 164.160367 82.517434 163.220191 82.128 162.24 82.128 
C 161.259809 82.128 160.319633 82.517434 159.626533 83.210533 
C 158.933434 83.903633 158.544 84.843809 158.544 85.824 
C 158.544 86.804191 158.933434 87.744367 159.626533 88.437467 
C 160.319633 89.130566 161.259809 89.52 162.24 89.52 
z
" style="fill:#009900;fill-opacity:0.5;stroke:#009900;stroke-linejoin:miter;stroke-width:2;"/>
   </g>
   <g id="patch_37">
    <path clip-path="url(#p02bf7efbf7)" d="M 132.672 63.648 
C 134.632381 63.648 136.512734 62.869132 137.898933 61.482933 
C 139.285132 60.096734 140.064 58.216381 140.064 56.256 
C 140.064 54.295619 139.285132 52.415266 137.898933 51.029067 
C 136.512734 49.642868 134.632381 48.864 132.672 48.864 
C 130.711619 48.864 128.831266 49.642868 127.445067 51.029067 
C 126.058868 52.415266 125.28 54.295619 125.28 56.256 
C 125.28 58.216381 126.058868 60.096734 127.445067 61.482933 
C 128.831266 62.869132 130.711619 63.648 132.672 63.648 
z
" style="fill:#9558b2;fill-opacity:0.5;stroke:#9558b2;stroke-linejoin:miter;stroke-width:2;"/>
   </g>
   <g id="patch_38">
    <path clip-path="url(#p02bf7efbf7)" d="M 162.24 59.952 
C 163.220191 59.952 164.160367 59.562566 164.853467 58.869467 
C 165.546566 58.176367 165.936 57.236191 165.936 56.256 
C 165.936 55.275809 165.546566 54.335633 164.853467 53.642533 
C 164.160367 52.949434 163.220191 52.56 162.24 52.56 
C 161.259809 52.56 160.319633 52.949434 159.626533 53.642533 
C 158.933434 54.335633 158.544 55.275809 158.544 56.256 
C 158.544 57.236191 158.933434 58.176367 159.626533 58.869467 
C 160.319633 59.562566 161.259809 59.952 162.24 59.952 
z
" style="fill:#009900;fill-opacity:0.5;stroke:#009900;stroke-linejoin:miter;stroke-width:2;"/>
   </g>
   <g id="patch_39">
    <path clip-path="url(#p02bf7efbf7)" d="M 191.808 300.192 
C 193.768381 300.192 195.648734 299.413132 197.034933 298.026933 
C 198.421132 296.640734 199.2 294.760381 199.2 292.8 
C 199.2 290.839619 198.421132 288.959266 197.034933 287.573067 
C 195.648734 286.186868 193.768381 285.408 191.808 285.408 
C 189.847619 285.408 187.967266 286.186868 186.581067 287.573067 
C 185.194868 288.959266 184.416 290.839619 184.416 292.8 
C 184.416 294.760381 185.194868 296.640734 186.581067 298.026933 
C 187.967266 299.413132 189.847619 300.192 191.808 300.192 
z
" style="fill:#9558b2;fill-opacity:0.5;stroke:#9558b2;stroke-linejoin:miter;stroke-width:2;"/>
   </g>
   <g id="patch_40">
    <path clip-path="url(#p02bf7efbf7)" d="M 221.376 296.496 
C 222.356191 296.496 223.296367 296.106566 223.989467 295.413467 
C 224.682566 294.720367 225.072 293.780191 225.072 292.8 
C 225.072 291.819809 224.682566 290.879633 223.989467 290.186533 
C 223.296367 289.493434 222.356191 289.104 221.376 289.104 
C 220.395809 289.104 219.455633 289.493434 218.762533 290.186533 
C 218.069434 290.879633 217.68 291.819809 217.68 292.8 
C 217.68 293.780191 218.069434 294.720367 218.762533 295.413467 
C 219.455633 296.106566 220.395809 296.496 221.376 296.496 
z
" style="fill:#009900;fill-opacity:0.5;stroke:#009900;stroke-linejoin:miter;stroke-width:2;"/>
   </g>
   <g id="patch_41">
    <path clip-path="url(#p02bf7efbf7)" d="M 191.808 270.624 
C 193.768381 270.624 195.648734 269.845132 197.034933 268.458933 
C 198.421132 267.072734 199.2 265.192381 199.2 263.232 
C 199.2 261.271619 198.421132 259.391266 197.034933 258.005067 
C 195.648734 256.618868 193.768381 255.84 191.808 255.84 
C 189.847619 255.84 187.967266 256.618868 186.581067 258.005067 
C 185.194868 259.391266 184.416 261.271619 184.416 263.232 
C 184.416 265.192381 185.194868 267.072734 186.581067 268.458933 
C 187.967266 269.845132 189.847619 270.624 191.808 270.624 
z
" style="fill:#9558b2;fill-opacity:0.5;stroke:#9558b2;stroke-linejoin:miter;stroke-width:2;"/>
   </g>
   <g id="patch_42">
    <path clip-path="url(#p02bf7efbf7)" d="M 221.376 266.928 
C 222.356191 266.928 223.296367 266.538566 223.989467 265.845467 
C 224.682566 265.152367 225.072 264.212191 225.072 263.232 
C 225.072 262.251809 224.682566 261.311633 223.989467 260.618533 
C 223.296367 259.925434 222.356191 259.536 221.376 259.536 
C 220.395809 259.536 219.455633 259.925434 218.762533 260.618533 
C 218.069434 261.311633 217.68 262.251809 217.68 263.232 
C 217.68 264.212191 218.069434 265.152367 218.762533 265.845467 
C 219.455633 266.538566 220.395809 266.928 221.376 266.928 
z
" style="fill:#009900;fill-opacity:0.5;stroke:#009900;stroke-linejoin:miter;stroke-width:2;"/>
   </g>
   <g id="patch_43">
    <path clip-path="url(#p02bf7efbf7)" d="M 191.808 241.056 
C 193.768381 241.056 195.648734 240.277132 197.034933 238.890933 
C 198.421132 237.504734 199.2 235.624381 199.2 233.664 
C 199.2 231.703619 198.421132 229.823266 197.034933 228.437067 
C 195.648734 227.050868 193.768381 226.272 191.808 226.272 
C 189.847619 226.272 187.967266 227.050868 186.581067 228.437067 
C 185.194868 229.823266 184.416 231.703619 184.416 233.664 
C 184.416 235.624381 185.194868 237.504734 186.581067 238.890933 
C 187.967266 240.277132 189.847619 241.056 191.808 241.056 
z
" style="fill:#9558b2;fill-opacity:0.5;stroke:#9558b2;stroke-linejoin:miter;stroke-width:2;"/>
   </g>
   <g id="patch_44">
    <path clip-path="url(#p02bf7efbf7)" d="M 221.376 237.36 
C 222.356191 237.36 223.296367 236.970566 223.989467 236.277467 
C 224.682566 235.584367 225.072 234.644191 225.072 233.664 
C 225.072 232.683809 224.682566 231.743633 223.989467 231.050533 
C 223.296367 230.357434 222.356191 229.968 221.376 229.968 
C 220.395809 229.968 219.455633 230.357434 218.762533 231.050533 
C 218.069434 231.743633 217.68 232.683809 217.68 233.664 
C 217.68 234.644191 218.069434 235.584367 218.762533 236.277467 
C 219.455633 236.970566 220.395809 237.36 221.376 237.36 
z
" style="fill:#009900;fill-opacity:0.5;stroke:#009900;stroke-linejoin:miter;stroke-width:2;"/>
   </g>
   <g id="patch_45">
    <path clip-path="url(#p02bf7efbf7)" d="M 191.808 211.488 
C 193.768381 211.488 195.648734 210.709132 197.034933 209.322933 
C 198.421132 207.936734 199.2 206.056381 199.2 204.096 
C 199.2 202.135619 198.421132 200.255266 197.034933 198.869067 
C 195.648734 197.482868 193.768381 196.704 191.808 196.704 
C 189.847619 196.704 187.967266 197.482868 186.581067 198.869067 
C 185.194868 200.255266 184.416 202.135619 184.416 204.096 
C 184.416 206.056381 185.194868 207.936734 186.581067 209.322933 
C 187.967266 210.709132 189.847619 211.488 191.808 211.488 
z
" style="fill:#9558b2;fill-opacity:0.5;stroke:#9558b2;stroke-linejoin:miter;stroke-width:2;"/>
   </g>
   <g id="patch_46">
    <path clip-path="url(#p02bf7efbf7)" d="M 221.376 207.792 
C 222.356191 207.792 223.296367 207.402566 223.989467 206.709467 
C 224.682566 206.016367 225.072 205.076191 225.072 204.096 
C 225.072 203.115809 224.682566 202.175633 223.989467 201.482533 
C 223.296367 200.789434 222.356191 200.4 221.376 200.4 
C 220.395809 200.4 219.455633 200.789434 218.762533 201.482533 
C 218.069434 202.175633 217.68 203.115809 217.68 204.096 
C 217.68 205.076191 218.069434 206.016367 218.762533 206.709467 
C 219.455633 207.402566 220.395809 207.792 221.376 207.792 
z
" style="fill:#009900;fill-opacity:0.5;stroke:#009900;stroke-linejoin:miter;stroke-width:2;"/>
   </g>
   <g id="patch_47">
    <path clip-path="url(#p02bf7efbf7)" d="M 191.808 181.92 
C 193.768381 181.92 195.648734 181.141132 197.034933 179.754933 
C 198.421132 178.368734 199.2 176.488381 199.2 174.528 
C 199.2 172.567619 198.421132 170.687266 197.034933 169.301067 
C 195.648734 167.914868 193.768381 167.136 191.808 167.136 
C 189.847619 167.136 187.967266 167.914868 186.581067 169.301067 
C 185.194868 170.687266 184.416 172.567619 184.416 174.528 
C 184.416 176.488381 185.194868 178.368734 186.581067 179.754933 
C 187.967266 181.141132 189.847619 181.92 191.808 181.92 
z
" style="fill:#9558b2;fill-opacity:0.5;stroke:#9558b2;stroke-linejoin:miter;stroke-width:2;"/>
   </g>
   <g id="patch_48">
    <path clip-path="url(#p02bf7efbf7)" d="M 221.376 178.224 
C 222.356191 178.224 223.296367 177.834566 223.989467 177.141467 
C 224.682566 176.448367 225.072 175.508191 225.072 174.528 
C 225.072 173.547809 224.682566 172.607633 223.989467 171.914533 
C 223.296367 171.221434 222.356191 170.832 221.376 170.832 
C 220.395809 170.832 219.455633 171.221434 218.762533 171.914533 
C 218.069434 172.607633 217.68 173.547809 217.68 174.528 
C 217.68 175.508191 218.069434 176.448367 218.762533 177.141467 
C 219.455633 177.834566 220.395809 178.224 221.376 178.224 
z
" style="fill:#009900;fill-opacity:0.5;stroke:#009900;stroke-linejoin:miter;stroke-width:2;"/>
   </g>
   <g id="patch_49">
    <path clip-path="url(#p02bf7efbf7)" d="M 191.808 152.352 
C 193.768381 152.352 195.648734 151.573132 197.034933 150.186933 
C 198.421132 148.800734 199.2 146.920381 199.2 144.96 
C 199.2 142.999619 198.421132 141.119266 197.034933 139.733067 
C 195.648734 138.346868 193.768381 137.568 191.808 137.568 
C 189.847619 137.568 187.967266 138.346868 186.581067 139.733067 
C 185.194868 141.119266 184.416 142.999619 184.416 144.96 
C 184.416 146.920381 185.194868 148.800734 186.581067 150.186933 
C 187.967266 151.573132 189.847619 152.352 191.808 152.352 
z
" style="fill:#9558b2;fill-opacity:0.5;stroke:#9558b2;stroke-linejoin:miter;stroke-width:2;"/>
   </g>
   <g id="patch_50">
    <path clip-path="url(#p02bf7efbf7)" d="M 221.376 148.656 
C 222.356191 148.656 223.296367 148.266566 223.989467 147.573467 
C 224.682566 146.880367 225.072 145.940191 225.072 144.96 
C 225.072 143.979809 224.682566 143.039633 223.989467 142.346533 
C 223.296367 141.653434 222.356191 141.264 221.376 141.264 
C 220.395809 141.264 219.455633 141.653434 218.762533 142.346533 
C 218.069434 143.039633 217.68 143.979809 217.68 144.96 
C 217.68 145.940191 218.069434 146.880367 218.762533 147.573467 
C 219.455633 148.266566 220.395809 148.656 221.376 148.656 
z
" style="fill:#009900;fill-opacity:0.5;stroke:#009900;stroke-linejoin:miter;stroke-width:2;"/>
   </g>
   <g id="patch_51">
    <path clip-path="url(#p02bf7efbf7)" d="M 191.808 122.784 
C 193.768381 122.784 195.648734 122.005132 197.034933 120.618933 
C 198.421132 119.232734 199.2 117.352381 199.2 115.392 
C 199.2 113.431619 198.421132 111.551266 197.034933 110.165067 
C 195.648734 108.778868 193.768381 108 191.808 108 
C 189.847619 108 187.967266 108.778868 186.581067 110.165067 
C 185.194868 111.551266 184.416 113.431619 184.416 115.392 
C 184.416 117.352381 185.194868 119.232734 186.581067 120.618933 
C 187.967266 122.005132 189.847619 122.784 191.808 122.784 
z
" style="fill:#9558b2;fill-opacity:0.5;stroke:#9558b2;stroke-linejoin:miter;stroke-width:2;"/>
   </g>
   <g id="patch_52">
    <path clip-path="url(#p02bf7efbf7)" d="M 221.376 119.088 
C 222.356191 119.088 223.296367 118.698566 223.989467 118.005467 
C 224.682566 117.312367 225.072 116.372191 225.072 115.392 
C 225.072 114.411809 224.682566 113.471633 223.989467 112.778533 
C 223.296367 112.085434 222.356191 111.696 221.376 111.696 
C 220.395809 111.696 219.455633 112.085434 218.762533 112.778533 
C 218.069434 113.471633 217.68 114.411809 217.68 115.392 
C 217.68 116.372191 218.069434 117.312367 218.762533 118.005467 
C 219.455633 118.698566 220.395809 119.088 221.376 119.088 
z
" style="fill:#009900;fill-opacity:0.5;stroke:#009900;stroke-linejoin:miter;stroke-width:2;"/>
   </g>
   <g id="patch_53">
    <path clip-path="url(#p02bf7efbf7)" d="M 191.808 93.216 
C 193.768381 93.216 195.648734 92.437132 197.034933 91.050933 
C 198.421132 89.664734 199.2 87.784381 199.2 85.824 
C 199.2 83.863619 198.421132 81.983266 197.034933 80.597067 
C 195.648734 79.210868 193.768381 78.432 191.808 78.432 
C 189.847619 78.432 187.967266 79.210868 186.581067 80.597067 
C 185.194868 81.983266 184.416 83.863619 184.416 85.824 
C 184.416 87.784381 185.194868 89.664734 186.581067 91.050933 
C 187.967266 92.437132 189.847619 93.216 191.808 93.216 
z
" style="fill:#9558b2;fill-opacity:0.5;stroke:#9558b2;stroke-linejoin:miter;stroke-width:2;"/>
   </g>
   <g id="patch_54">
    <path clip-path="url(#p02bf7efbf7)" d="M 221.376 89.52 
C 222.356191 89.52 223.296367 89.130566 223.989467 88.437467 
C 224.682566 87.744367 225.072 86.804191 225.072 85.824 
C 225.072 84.843809 224.682566 83.903633 223.989467 83.210533 
C 223.296367 82.517434 222.356191 82.128 221.376 82.128 
C 220.395809 82.128 219.455633 82.517434 218.762533 83.210533 
C 218.069434 83.903633 217.68 84.843809 217.68 85.824 
C 217.68 86.804191 218.069434 87.744367 218.762533 88.437467 
C 219.455633 89.130566 220.395809 89.52 221.376 89.52 
z
" style="fill:#009900;fill-opacity:0.5;stroke:#009900;stroke-linejoin:miter;stroke-width:2;"/>
   </g>
   <g id="patch_55">
    <path clip-path="url(#p02bf7efbf7)" d="M 191.808 63.648 
C 193.768381 63.648 195.648734 62.869132 197.034933 61.482933 
C 198.421132 60.096734 199.2 58.216381 199.2 56.256 
C 199.2 54.295619 198.421132 52.415266 197.034933 51.029067 
C 195.648734 49.642868 193.768381 48.864 191.808 48.864 
C 189.847619 48.864 187.967266 49.642868 186.581067 51.029067 
C 185.194868 52.415266 184.416 54.295619 184.416 56.256 
C 184.416 58.216381 185.194868 60.096734 186.581067 61.482933 
C 187.967266 62.869132 189.847619 63.648 191.808 63.648 
z
" style="fill:#9558b2;fill-opacity:0.5;stroke:#9558b2;stroke-linejoin:miter;stroke-width:2;"/>
   </g>
   <g id="patch_56">
    <path clip-path="url(#p02bf7efbf7)" d="M 221.376 59.952 
C 222.356191 59.952 223.296367 59.562566 223.989467 58.869467 
C 224.682566 58.176367 225.072 57.236191 225.072 56.256 
C 225.072 55.275809 224.682566 54.335633 223.989467 53.642533 
C 223.296367 52.949434 222.356191 52.56 221.376 52.56 
C 220.395809 52.56 219.455633 52.949434 218.762533 53.642533 
C 218.069434 54.335633 217.68 55.275809 217.68 56.256 
C 217.68 57.236191 218.069434 58.176367 218.762533 58.869467 
C 219.455633 59.562566 220.395809 59.952 221.376 59.952 
z
" style="fill:#009900;fill-opacity:0.5;stroke:#009900;stroke-linejoin:miter;stroke-width:2;"/>
   </g>
   <g id="patch_57">
    <path clip-path="url(#p02bf7efbf7)" d="M 250.944 300.192 
C 252.904381 300.192 254.784734 299.413132 256.170933 298.026933 
C 257.557132 296.640734 258.336 294.760381 258.336 292.8 
C 258.336 290.839619 257.557132 288.959266 256.170933 287.573067 
C 254.784734 286.186868 252.904381 285.408 250.944 285.408 
C 248.983619 285.408 247.103266 286.186868 245.717067 287.573067 
C 244.330868 288.959266 243.552 290.839619 243.552 292.8 
C 243.552 294.760381 244.330868 296.640734 245.717067 298.026933 
C 247.103266 299.413132 248.983619 300.192 250.944 300.192 
z
" style="fill:#9558b2;fill-opacity:0.5;stroke:#9558b2;stroke-linejoin:miter;stroke-width:2;"/>
   </g>
   <g id="patch_58">
    <path clip-path="url(#p02bf7efbf7)" d="M 280.512 296.496 
C 281.492191 296.496 282.432367 296.106566 283.125467 295.413467 
C 283.818566 294.720367 284.208 293.780191 284.208 292.8 
C 284.208 291.819809 283.818566 290.879633 283.125467 290.186533 
C 282.432367 289.493434 281.492191 289.104 280.512 289.104 
C 279.531809 289.104 278.591633 289.493434 277.898533 290.186533 
C 277.205434 290.879633 276.816 291.819809 276.816 292.8 
C 276.816 293.780191 277.205434 294.720367 277.898533 295.413467 
C 278.591633 296.106566 279.531809 296.496 280.512 296.496 
z
" style="fill:#009900;fill-opacity:0.5;stroke:#009900;stroke-linejoin:miter;stroke-width:2;"/>
   </g>
   <g id="patch_59">
    <path clip-path="url(#p02bf7efbf7)" d="M 250.944 270.624 
C 252.904381 270.624 254.784734 269.845132 256.170933 268.458933 
C 257.557132 267.072734 258.336 265.192381 258.336 263.232 
C 258.336 261.271619 257.557132 259.391266 256.170933 258.005067 
C 254.784734 256.618868 252.904381 255.84 250.944 255.84 
C 248.983619 255.84 247.103266 256.618868 245.717067 258.005067 
C 244.330868 259.391266 243.552 261.271619 243.552 263.232 
C 243.552 265.192381 244.330868 267.072734 245.717067 268.458933 
C 247.103266 269.845132 248.983619 270.624 250.944 270.624 
z
" style="fill:#9558b2;fill-opacity:0.5;stroke:#9558b2;stroke-linejoin:miter;stroke-width:2;"/>
   </g>
   <g id="patch_60">
    <path clip-path="url(#p02bf7efbf7)" d="M 280.512 266.928 
C 281.492191 266.928 282.432367 266.538566 283.125467 265.845467 
C 283.818566 265.152367 284.208 264.212191 284.208 263.232 
C 284.208 262.251809 283.818566 261.311633 283.125467 260.618533 
C 282.432367 259.925434 281.492191 259.536 280.512 259.536 
C 279.531809 259.536 278.591633 259.925434 277.898533 260.618533 
C 277.205434 261.311633 276.816 262.251809 276.816 263.232 
C 276.816 264.212191 277.205434 265.152367 277.898533 265.845467 
C 278.591633 266.538566 279.531809 266.928 280.512 266.928 
z
" style="fill:#009900;fill-opacity:0.5;stroke:#009900;stroke-linejoin:miter;stroke-width:2;"/>
   </g>
   <g id="patch_61">
    <path clip-path="url(#p02bf7efbf7)" d="M 250.944 241.056 
C 252.904381 241.056 254.784734 240.277132 256.170933 238.890933 
C 257.557132 237.504734 258.336 235.624381 258.336 233.664 
C 258.336 231.703619 257.557132 229.823266 256.170933 228.437067 
C 254.784734 227.050868 252.904381 226.272 250.944 226.272 
C 248.983619 226.272 247.103266 227.050868 245.717067 228.437067 
C 244.330868 229.823266 243.552 231.703619 243.552 233.664 
C 243.552 235.624381 244.330868 237.504734 245.717067 238.890933 
C 247.103266 240.277132 248.983619 241.056 250.944 241.056 
z
" style="fill:#9558b2;fill-opacity:0.5;stroke:#9558b2;stroke-linejoin:miter;stroke-width:2;"/>
   </g>
   <g id="patch_62">
    <path clip-path="url(#p02bf7efbf7)" d="M 280.512 237.36 
C 281.492191 237.36 282.432367 236.970566 283.125467 236.277467 
C 283.818566 235.584367 284.208 234.644191 284.208 233.664 
C 284.208 232.683809 283.818566 231.743633 283.125467 231.050533 
C 282.432367 230.357434 281.492191 229.968 280.512 229.968 
C 279.531809 229.968 278.591633 230.357434 277.898533 231.050533 
C 277.205434 231.743633 276.816 232.683809 276.816 233.664 
C 276.816 234.644191 277.205434 235.584367 277.898533 236.277467 
C 278.591633 236.970566 279.531809 237.36 280.512 237.36 
z
" style="fill:#009900;fill-opacity:0.5;stroke:#009900;stroke-linejoin:miter;stroke-width:2;"/>
   </g>
   <g id="patch_63">
    <path clip-path="url(#p02bf7efbf7)" d="M 250.944 211.488 
C 252.904381 211.488 254.784734 210.709132 256.170933 209.322933 
C 257.557132 207.936734 258.336 206.056381 258.336 204.096 
C 258.336 202.135619 257.557132 200.255266 256.170933 198.869067 
C 254.784734 197.482868 252.904381 196.704 250.944 196.704 
C 248.983619 196.704 247.103266 197.482868 245.717067 198.869067 
C 244.330868 200.255266 243.552 202.135619 243.552 204.096 
C 243.552 206.056381 244.330868 207.936734 245.717067 209.322933 
C 247.103266 210.709132 248.983619 211.488 250.944 211.488 
z
" style="fill:#9558b2;fill-opacity:0.5;stroke:#9558b2;stroke-linejoin:miter;stroke-width:2;"/>
   </g>
   <g id="patch_64">
    <path clip-path="url(#p02bf7efbf7)" d="M 280.512 207.792 
C 281.492191 207.792 282.432367 207.402566 283.125467 206.709467 
C 283.818566 206.016367 284.208 205.076191 284.208 204.096 
C 284.208 203.115809 283.818566 202.175633 283.125467 201.482533 
C 282.432367 200.789434 281.492191 200.4 280.512 200.4 
C 279.531809 200.4 278.591633 200.789434 277.898533 201.482533 
C 277.205434 202.175633 276.816 203.115809 276.816 204.096 
C 276.816 205.076191 277.205434 206.016367 277.898533 206.709467 
C 278.591633 207.402566 279.531809 207.792 280.512 207.792 
z
" style="fill:#009900;fill-opacity:0.5;stroke:#009900;stroke-linejoin:miter;stroke-width:2;"/>
   </g>
   <g id="patch_65">
    <path clip-path="url(#p02bf7efbf7)" d="M 250.944 181.92 
C 252.904381 181.92 254.784734 181.141132 256.170933 179.754933 
C 257.557132 178.368734 258.336 176.488381 258.336 174.528 
C 258.336 172.567619 257.557132 170.687266 256.170933 169.301067 
C 254.784734 167.914868 252.904381 167.136 250.944 167.136 
C 248.983619 167.136 247.103266 167.914868 245.717067 169.301067 
C 244.330868 170.687266 243.552 172.567619 243.552 174.528 
C 243.552 176.488381 244.330868 178.368734 245.717067 179.754933 
C 247.103266 181.141132 248.983619 181.92 250.944 181.92 
z
" style="fill:#9558b2;fill-opacity:0.5;stroke:#9558b2;stroke-linejoin:miter;stroke-width:2;"/>
   </g>
   <g id="patch_66">
    <path clip-path="url(#p02bf7efbf7)" d="M 280.512 178.224 
C 281.492191 178.224 282.432367 177.834566 283.125467 177.141467 
C 283.818566 176.448367 284.208 175.508191 284.208 174.528 
C 284.208 173.547809 283.818566 172.607633 283.125467 171.914533 
C 282.432367 171.221434 281.492191 170.832 280.512 170.832 
C 279.531809 170.832 278.591633 171.221434 277.898533 171.914533 
C 277.205434 172.607633 276.816 173.547809 276.816 174.528 
C 276.816 175.508191 277.205434 176.448367 277.898533 177.141467 
C 278.591633 177.834566 279.531809 178.224 280.512 178.224 
z
" style="fill:#009900;fill-opacity:0.5;stroke:#009900;stroke-linejoin:miter;stroke-width:2;"/>
   </g>
   <g id="patch_67">
    <path clip-path="url(#p02bf7efbf7)" d="M 250.944 152.352 
C 252.904381 152.352 254.784734 151.573132 256.170933 150.186933 
C 257.557132 148.800734 258.336 146.920381 258.336 144.96 
C 258.336 142.999619 257.557132 141.119266 256.170933 139.733067 
C 254.784734 138.346868 252.904381 137.568 250.944 137.568 
C 248.983619 137.568 247.103266 138.346868 245.717067 139.733067 
C 244.330868 141.119266 243.552 142.999619 243.552 144.96 
C 243.552 146.920381 244.330868 148.800734 245.717067 150.186933 
C 247.103266 151.573132 248.983619 152.352 250.944 152.352 
z
" style="fill:#9558b2;fill-opacity:0.5;stroke:#9558b2;stroke-linejoin:miter;stroke-width:2;"/>
   </g>
   <g id="patch_68">
    <path clip-path="url(#p02bf7efbf7)" d="M 280.512 148.656 
C 281.492191 148.656 282.432367 148.266566 283.125467 147.573467 
C 283.818566 146.880367 284.208 145.940191 284.208 144.96 
C 284.208 143.979809 283.818566 143.039633 283.125467 142.346533 
C 282.432367 141.653434 281.492191 141.264 280.512 141.264 
C 279.531809 141.264 278.591633 141.653434 277.898533 142.346533 
C 277.205434 143.039633 276.816 143.979809 276.816 144.96 
C 276.816 145.940191 277.205434 146.880367 277.898533 147.573467 
C 278.591633 148.266566 279.531809 148.656 280.512 148.656 
z
" style="fill:#009900;fill-opacity:0.5;stroke:#009900;stroke-linejoin:miter;stroke-width:2;"/>
   </g>
   <g id="patch_69">
    <path clip-path="url(#p02bf7efbf7)" d="M 250.944 122.784 
C 252.904381 122.784 254.784734 122.005132 256.170933 120.618933 
C 257.557132 119.232734 258.336 117.352381 258.336 115.392 
C 258.336 113.431619 257.557132 111.551266 256.170933 110.165067 
C 254.784734 108.778868 252.904381 108 250.944 108 
C 248.983619 108 247.103266 108.778868 245.717067 110.165067 
C 244.330868 111.551266 243.552 113.431619 243.552 115.392 
C 243.552 117.352381 244.330868 119.232734 245.717067 120.618933 
C 247.103266 122.005132 248.983619 122.784 250.944 122.784 
z
" style="fill:#9558b2;fill-opacity:0.5;stroke:#9558b2;stroke-linejoin:miter;stroke-width:2;"/>
   </g>
   <g id="patch_70">
    <path clip-path="url(#p02bf7efbf7)" d="M 280.512 119.088 
C 281.492191 119.088 282.432367 118.698566 283.125467 118.005467 
C 283.818566 117.312367 284.208 116.372191 284.208 115.392 
C 284.208 114.411809 283.818566 113.471633 283.125467 112.778533 
C 282.432367 112.085434 281.492191 111.696 280.512 111.696 
C 279.531809 111.696 278.591633 112.085434 277.898533 112.778533 
C 277.205434 113.471633 276.816 114.411809 276.816 115.392 
C 276.816 116.372191 277.205434 117.312367 277.898533 118.005467 
C 278.591633 118.698566 279.531809 119.088 280.512 119.088 
z
" style="fill:#009900;fill-opacity:0.5;stroke:#009900;stroke-linejoin:miter;stroke-width:2;"/>
   </g>
   <g id="patch_71">
    <path clip-path="url(#p02bf7efbf7)" d="M 250.944 93.216 
C 252.904381 93.216 254.784734 92.437132 256.170933 91.050933 
C 257.557132 89.664734 258.336 87.784381 258.336 85.824 
C 258.336 83.863619 257.557132 81.983266 256.170933 80.597067 
C 254.784734 79.210868 252.904381 78.432 250.944 78.432 
C 248.983619 78.432 247.103266 79.210868 245.717067 80.597067 
C 244.330868 81.983266 243.552 83.863619 243.552 85.824 
C 243.552 87.784381 244.330868 89.664734 245.717067 91.050933 
C 247.103266 92.437132 248.983619 93.216 250.944 93.216 
z
" style="fill:#9558b2;fill-opacity:0.5;stroke:#9558b2;stroke-linejoin:miter;stroke-width:2;"/>
   </g>
   <g id="patch_72">
    <path clip-path="url(#p02bf7efbf7)" d="M 280.512 89.52 
C 281.492191 89.52 282.432367 89.130566 283.125467 88.437467 
C 283.818566 87.744367 284.208 86.804191 284.208 85.824 
C 284.208 84.843809 283.818566 83.903633 283.125467 83.210533 
C 282.432367 82.517434 281.492191 82.128 280.512 82.128 
C 279.531809 82.128 278.591633 82.517434 277.898533 83.210533 
C 277.205434 83.903633 276.816 84.843809 276.816 85.824 
C 276.816 86.804191 277.205434 87.744367 277.898533 88.437467 
C 278.591633 89.130566 279.531809 89.52 280.512 89.52 
z
" style="fill:#009900;fill-opacity:0.5;stroke:#009900;stroke-linejoin:miter;stroke-width:2;"/>
   </g>
   <g id="patch_73">
    <path clip-path="url(#p02bf7efbf7)" d="M 250.944 63.648 
C 252.904381 63.648 254.784734 62.869132 256.170933 61.482933 
C 257.557132 60.096734 258.336 58.216381 258.336 56.256 
C 258.336 54.295619 257.557132 52.415266 256.170933 51.029067 
C 254.784734 49.642868 252.904381 48.864 250.944 48.864 
C 248.983619 48.864 247.103266 49.642868 245.717067 51.029067 
C 244.330868 52.415266 243.552 54.295619 243.552 56.256 
C 243.552 58.216381 244.330868 60.096734 245.717067 61.482933 
C 247.103266 62.869132 248.983619 63.648 250.944 63.648 
z
" style="fill:#9558b2;fill-opacity:0.5;stroke:#9558b2;stroke-linejoin:miter;stroke-width:2;"/>
   </g>
   <g id="patch_74">
    <path clip-path="url(#p02bf7efbf7)" d="M 280.512 59.952 
C 281.492191 59.952 282.432367 59.562566 283.125467 58.869467 
C 283.818566 58.176367 284.208 57.236191 284.208 56.256 
C 284.208 55.275809 283.818566 54.335633 283.125467 53.642533 
C 282.432367 52.949434 281.492191 52.56 280.512 52.56 
C 279.531809 52.56 278.591633 52.949434 277.898533 53.642533 
C 277.205434 54.335633 276.816 55.275809 276.816 56.256 
C 276.816 57.236191 277.205434 58.176367 277.898533 58.869467 
C 278.591633 59.562566 279.531809 59.952 280.512 59.952 
z
" style="fill:#009900;fill-opacity:0.5;stroke:#009900;stroke-linejoin:miter;stroke-width:2;"/>
   </g>
   <g id="patch_75">
    <path clip-path="url(#p02bf7efbf7)" d="M 310.08 300.192 
C 312.040381 300.192 313.920734 299.413132 315.306933 298.026933 
C 316.693132 296.640734 317.472 294.760381 317.472 292.8 
C 317.472 290.839619 316.693132 288.959266 315.306933 287.573067 
C 313.920734 286.186868 312.040381 285.408 310.08 285.408 
C 308.119619 285.408 306.239266 286.186868 304.853067 287.573067 
C 303.466868 288.959266 302.688 290.839619 302.688 292.8 
C 302.688 294.760381 303.466868 296.640734 304.853067 298.026933 
C 306.239266 299.413132 308.119619 300.192 310.08 300.192 
z
" style="fill:#9558b2;fill-opacity:0.5;stroke:#9558b2;stroke-linejoin:miter;stroke-width:2;"/>
   </g>
   <g id="patch_76">
    <path clip-path="url(#p02bf7efbf7)" d="M 339.648 296.496 
C 340.628191 296.496 341.568367 296.106566 342.261467 295.413467 
C 342.954566 294.720367 343.344 293.780191 343.344 292.8 
C 343.344 291.819809 342.954566 290.879633 342.261467 290.186533 
C 341.568367 289.493434 340.628191 289.104 339.648 289.104 
C 338.667809 289.104 337.727633 289.493434 337.034533 290.186533 
C 336.341434 290.879633 335.952 291.819809 335.952 292.8 
C 335.952 293.780191 336.341434 294.720367 337.034533 295.413467 
C 337.727633 296.106566 338.667809 296.496 339.648 296.496 
z
" style="fill:#009900;fill-opacity:0.5;stroke:#009900;stroke-linejoin:miter;stroke-width:2;"/>
   </g>
   <g id="patch_77">
    <path clip-path="url(#p02bf7efbf7)" d="M 310.08 270.624 
C 312.040381 270.624 313.920734 269.845132 315.306933 268.458933 
C 316.693132 267.072734 317.472 265.192381 317.472 263.232 
C 317.472 261.271619 316.693132 259.391266 315.306933 258.005067 
C 313.920734 256.618868 312.040381 255.84 310.08 255.84 
C 308.119619 255.84 306.239266 256.618868 304.853067 258.005067 
C 303.466868 259.391266 302.688 261.271619 302.688 263.232 
C 302.688 265.192381 303.466868 267.072734 304.853067 268.458933 
C 306.239266 269.845132 308.119619 270.624 310.08 270.624 
z
" style="fill:#9558b2;fill-opacity:0.5;stroke:#9558b2;stroke-linejoin:miter;stroke-width:2;"/>
   </g>
   <g id="patch_78">
    <path clip-path="url(#p02bf7efbf7)" d="M 339.648 266.928 
C 340.628191 266.928 341.568367 266.538566 342.261467 265.845467 
C 342.954566 265.152367 343.344 264.212191 343.344 263.232 
C 343.344 262.251809 342.954566 261.311633 342.261467 260.618533 
C 341.568367 259.925434 340.628191 259.536 339.648 259.536 
C 338.667809 259.536 337.727633 259.925434 337.034533 260.618533 
C 336.341434 261.311633 335.952 262.251809 335.952 263.232 
C 335.952 264.212191 336.341434 265.152367 337.034533 265.845467 
C 337.727633 266.538566 338.667809 266.928 339.648 266.928 
z
" style="fill:#009900;fill-opacity:0.5;stroke:#009900;stroke-linejoin:miter;stroke-width:2;"/>
   </g>
   <g id="patch_79">
    <path clip-path="url(#p02bf7efbf7)" d="M 310.08 241.056 
C 312.040381 241.056 313.920734 240.277132 315.306933 238.890933 
C 316.693132 237.504734 317.472 235.624381 317.472 233.664 
C 317.472 231.703619 316.693132 229.823266 315.306933 228.437067 
C 313.920734 227.050868 312.040381 226.272 310.08 226.272 
C 308.119619 226.272 306.239266 227.050868 304.853067 228.437067 
C 303.466868 229.823266 302.688 231.703619 302.688 233.664 
C 302.688 235.624381 303.466868 237.504734 304.853067 238.890933 
C 306.239266 240.277132 308.119619 241.056 310.08 241.056 
z
" style="fill:#9558b2;fill-opacity:0.5;stroke:#9558b2;stroke-linejoin:miter;stroke-width:2;"/>
   </g>
   <g id="patch_80">
    <path clip-path="url(#p02bf7efbf7)" d="M 339.648 237.36 
C 340.628191 237.36 341.568367 236.970566 342.261467 236.277467 
C 342.954566 235.584367 343.344 234.644191 343.344 233.664 
C 343.344 232.683809 342.954566 231.743633 342.261467 231.050533 
C 341.568367 230.357434 340.628191 229.968 339.648 229.968 
C 338.667809 229.968 337.727633 230.357434 337.034533 231.050533 
C 336.341434 231.743633 335.952 232.683809 335.952 233.664 
C 335.952 234.644191 336.341434 235.584367 337.034533 236.277467 
C 337.727633 236.970566 338.667809 237.36 339.648 237.36 
z
" style="fill:#009900;fill-opacity:0.5;stroke:#009900;stroke-linejoin:miter;stroke-width:2;"/>
   </g>
   <g id="patch_81">
    <path clip-path="url(#p02bf7efbf7)" d="M 310.08 211.488 
C 312.040381 211.488 313.920734 210.709132 315.306933 209.322933 
C 316.693132 207.936734 317.472 206.056381 317.472 204.096 
C 317.472 202.135619 316.693132 200.255266 315.306933 198.869067 
C 313.920734 197.482868 312.040381 196.704 310.08 196.704 
C 308.119619 196.704 306.239266 197.482868 304.853067 198.869067 
C 303.466868 200.255266 302.688 202.135619 302.688 204.096 
C 302.688 206.056381 303.466868 207.936734 304.853067 209.322933 
C 306.239266 210.709132 308.119619 211.488 310.08 211.488 
z
" style="fill:#9558b2;fill-opacity:0.5;stroke:#9558b2;stroke-linejoin:miter;stroke-width:2;"/>
   </g>
   <g id="patch_82">
    <path clip-path="url(#p02bf7efbf7)" d="M 339.648 207.792 
C 340.628191 207.792 341.568367 207.402566 342.261467 206.709467 
C 342.954566 206.016367 343.344 205.076191 343.344 204.096 
C 343.344 203.115809 342.954566 202.175633 342.261467 201.482533 
C 341.568367 200.789434 340.628191 200.4 339.648 200.4 
C 338.667809 200.4 337.727633 200.789434 337.034533 201.482533 
C 336.341434 202.175633 335.952 203.115809 335.952 204.096 
C 335.952 205.076191 336.341434 206.016367 337.034533 206.709467 
C 337.727633 207.402566 338.667809 207.792 339.648 207.792 
z
" style="fill:#009900;fill-opacity:0.5;stroke:#009900;stroke-linejoin:miter;stroke-width:2;"/>
   </g>
   <g id="patch_83">
    <path clip-path="url(#p02bf7efbf7)" d="M 310.08 181.92 
C 312.040381 181.92 313.920734 181.141132 315.306933 179.754933 
C 316.693132 178.368734 317.472 176.488381 317.472 174.528 
C 317.472 172.567619 316.693132 170.687266 315.306933 169.301067 
C 313.920734 167.914868 312.040381 167.136 310.08 167.136 
C 308.119619 167.136 306.239266 167.914868 304.853067 169.301067 
C 303.466868 170.687266 302.688 172.567619 302.688 174.528 
C 302.688 176.488381 303.466868 178.368734 304.853067 179.754933 
C 306.239266 181.141132 308.119619 181.92 310.08 181.92 
z
" style="fill:#9558b2;fill-opacity:0.5;stroke:#9558b2;stroke-linejoin:miter;stroke-width:2;"/>
   </g>
   <g id="patch_84">
    <path clip-path="url(#p02bf7efbf7)" d="M 339.648 178.224 
C 340.628191 178.224 341.568367 177.834566 342.261467 177.141467 
C 342.954566 176.448367 343.344 175.508191 343.344 174.528 
C 343.344 173.547809 342.954566 172.607633 342.261467 171.914533 
C 341.568367 171.221434 340.628191 170.832 339.648 170.832 
C 338.667809 170.832 337.727633 171.221434 337.034533 171.914533 
C 336.341434 172.607633 335.952 173.547809 335.952 174.528 
C 335.952 175.508191 336.341434 176.448367 337.034533 177.141467 
C 337.727633 177.834566 338.667809 178.224 339.648 178.224 
z
" style="fill:#009900;fill-opacity:0.5;stroke:#009900;stroke-linejoin:miter;stroke-width:2;"/>
   </g>
   <g id="patch_85">
    <path clip-path="url(#p02bf7efbf7)" d="M 310.08 152.352 
C 312.040381 152.352 313.920734 151.573132 315.306933 150.186933 
C 316.693132 148.800734 317.472 146.920381 317.472 144.96 
C 317.472 142.999619 316.693132 141.119266 315.306933 139.733067 
C 313.920734 138.346868 312.040381 137.568 310.08 137.568 
C 308.119619 137.568 306.239266 138.346868 304.853067 139.733067 
C 303.466868 141.119266 302.688 142.999619 302.688 144.96 
C 302.688 146.920381 303.466868 148.800734 304.853067 150.186933 
C 306.239266 151.573132 308.119619 152.352 310.08 152.352 
z
" style="fill:#9558b2;fill-opacity:0.5;stroke:#9558b2;stroke-linejoin:miter;stroke-width:2;"/>
   </g>
   <g id="patch_86">
    <path clip-path="url(#p02bf7efbf7)" d="M 339.648 148.656 
C 340.628191 148.656 341.568367 148.266566 342.261467 147.573467 
C 342.954566 146.880367 343.344 145.940191 343.344 144.96 
C 343.344 143.979809 342.954566 143.039633 342.261467 142.346533 
C 341.568367 141.653434 340.628191 141.264 339.648 141.264 
C 338.667809 141.264 337.727633 141.653434 337.034533 142.346533 
C 336.341434 143.039633 335.952 143.979809 335.952 144.96 
C 335.952 145.940191 336.341434 146.880367 337.034533 147.573467 
C 337.727633 148.266566 338.667809 148.656 339.648 148.656 
z
" style="fill:#009900;fill-opacity:0.5;stroke:#009900;stroke-linejoin:miter;stroke-width:2;"/>
   </g>
   <g id="patch_87">
    <path clip-path="url(#p02bf7efbf7)" d="M 310.08 122.784 
C 312.040381 122.784 313.920734 122.005132 315.306933 120.618933 
C 316.693132 119.232734 317.472 117.352381 317.472 115.392 
C 317.472 113.431619 316.693132 111.551266 315.306933 110.165067 
C 313.920734 108.778868 312.040381 108 310.08 108 
C 308.119619 108 306.239266 108.778868 304.853067 110.165067 
C 303.466868 111.551266 302.688 113.431619 302.688 115.392 
C 302.688 117.352381 303.466868 119.232734 304.853067 120.618933 
C 306.239266 122.005132 308.119619 122.784 310.08 122.784 
z
" style="fill:#9558b2;fill-opacity:0.5;stroke:#9558b2;stroke-linejoin:miter;stroke-width:2;"/>
   </g>
   <g id="patch_88">
    <path clip-path="url(#p02bf7efbf7)" d="M 339.648 119.088 
C 340.628191 119.088 341.568367 118.698566 342.261467 118.005467 
C 342.954566 117.312367 343.344 116.372191 343.344 115.392 
C 343.344 114.411809 342.954566 113.471633 342.261467 112.778533 
C 341.568367 112.085434 340.628191 111.696 339.648 111.696 
C 338.667809 111.696 337.727633 112.085434 337.034533 112.778533 
C 336.341434 113.471633 335.952 114.411809 335.952 115.392 
C 335.952 116.372191 336.341434 117.312367 337.034533 118.005467 
C 337.727633 118.698566 338.667809 119.088 339.648 119.088 
z
" style="fill:#009900;fill-opacity:0.5;stroke:#009900;stroke-linejoin:miter;stroke-width:2;"/>
   </g>
   <g id="patch_89">
    <path clip-path="url(#p02bf7efbf7)" d="M 310.08 93.216 
C 312.040381 93.216 313.920734 92.437132 315.306933 91.050933 
C 316.693132 89.664734 317.472 87.784381 317.472 85.824 
C 317.472 83.863619 316.693132 81.983266 315.306933 80.597067 
C 313.920734 79.210868 312.040381 78.432 310.08 78.432 
C 308.119619 78.432 306.239266 79.210868 304.853067 80.597067 
C 303.466868 81.983266 302.688 83.863619 302.688 85.824 
C 302.688 87.784381 303.466868 89.664734 304.853067 91.050933 
C 306.239266 92.437132 308.119619 93.216 310.08 93.216 
z
" style="fill:#9558b2;fill-opacity:0.5;stroke:#9558b2;stroke-linejoin:miter;stroke-width:2;"/>
   </g>
   <g id="patch_90">
    <path clip-path="url(#p02bf7efbf7)" d="M 339.648 89.52 
C 340.628191 89.52 341.568367 89.130566 342.261467 88.437467 
C 342.954566 87.744367 343.344 86.804191 343.344 85.824 
C 343.344 84.843809 342.954566 83.903633 342.261467 83.210533 
C 341.568367 82.517434 340.628191 82.128 339.648 82.128 
C 338.667809 82.128 337.727633 82.517434 337.034533 83.210533 
C 336.341434 83.903633 335.952 84.843809 335.952 85.824 
C 335.952 86.804191 336.341434 87.744367 337.034533 88.437467 
C 337.727633 89.130566 338.667809 89.52 339.648 89.52 
z
" style="fill:#009900;fill-opacity:0.5;stroke:#009900;stroke-linejoin:miter;stroke-width:2;"/>
   </g>
   <g id="patch_91">
    <path clip-path="url(#p02bf7efbf7)" d="M 310.08 63.648 
C 312.040381 63.648 313.920734 62.869132 315.306933 61.482933 
C 316.693132 60.096734 317.472 58.216381 317.472 56.256 
C 317.472 54.295619 316.693132 52.415266 315.306933 51.029067 
C 313.920734 49.642868 312.040381 48.864 310.08 48.864 
C 308.119619 48.864 306.239266 49.642868 304.853067 51.029067 
C 303.466868 52.415266 302.688 54.295619 302.688 56.256 
C 302.688 58.216381 303.466868 60.096734 304.853067 61.482933 
C 306.239266 62.869132 308.119619 63.648 310.08 63.648 
z
" style="fill:#9558b2;fill-opacity:0.5;stroke:#9558b2;stroke-linejoin:miter;stroke-width:2;"/>
   </g>
   <g id="patch_92">
    <path clip-path="url(#p02bf7efbf7)" d="M 339.648 59.952 
C 340.628191 59.952 341.568367 59.562566 342.261467 58.869467 
C 342.954566 58.176367 343.344 57.236191 343.344 56.256 
C 343.344 55.275809 342.954566 54.335633 342.261467 53.642533 
C 341.568367 52.949434 340.628191 52.56 339.648 52.56 
C 338.667809 52.56 337.727633 52.949434 337.034533 53.642533 
C 336.341434 54.335633 335.952 55.275809 335.952 56.256 
C 335.952 57.236191 336.341434 58.176367 337.034533 58.869467 
C 337.727633 59.562566 338.667809 59.952 339.648 59.952 
z
" style="fill:#009900;fill-opacity:0.5;stroke:#009900;stroke-linejoin:miter;stroke-width:2;"/>
   </g>
   <g id="patch_93">
    <path clip-path="url(#p02bf7efbf7)" d="M 369.216 300.192 
C 371.176381 300.192 373.056734 299.413132 374.442933 298.026933 
C 375.829132 296.640734 376.608 294.760381 376.608 292.8 
C 376.608 290.839619 375.829132 288.959266 374.442933 287.573067 
C 373.056734 286.186868 371.176381 285.408 369.216 285.408 
C 367.255619 285.408 365.375266 286.186868 363.989067 287.573067 
C 362.602868 288.959266 361.824 290.839619 361.824 292.8 
C 361.824 294.760381 362.602868 296.640734 363.989067 298.026933 
C 365.375266 299.413132 367.255619 300.192 369.216 300.192 
z
" style="fill:#9558b2;fill-opacity:0.5;stroke:#9558b2;stroke-linejoin:miter;stroke-width:2;"/>
   </g>
   <g id="patch_94">
    <path clip-path="url(#p02bf7efbf7)" d="M 398.784 296.496 
C 399.764191 296.496 400.704367 296.106566 401.397467 295.413467 
C 402.090566 294.720367 402.48 293.780191 402.48 292.8 
C 402.48 291.819809 402.090566 290.879633 401.397467 290.186533 
C 400.704367 289.493434 399.764191 289.104 398.784 289.104 
C 397.803809 289.104 396.863633 289.493434 396.170533 290.186533 
C 395.477434 290.879633 395.088 291.819809 395.088 292.8 
C 395.088 293.780191 395.477434 294.720367 396.170533 295.413467 
C 396.863633 296.106566 397.803809 296.496 398.784 296.496 
z
" style="fill:#009900;fill-opacity:0.5;stroke:#009900;stroke-linejoin:miter;stroke-width:2;"/>
   </g>
   <g id="patch_95">
    <path clip-path="url(#p02bf7efbf7)" d="M 369.216 270.624 
C 371.176381 270.624 373.056734 269.845132 374.442933 268.458933 
C 375.829132 267.072734 376.608 265.192381 376.608 263.232 
C 376.608 261.271619 375.829132 259.391266 374.442933 258.005067 
C 373.056734 256.618868 371.176381 255.84 369.216 255.84 
C 367.255619 255.84 365.375266 256.618868 363.989067 258.005067 
C 362.602868 259.391266 361.824 261.271619 361.824 263.232 
C 361.824 265.192381 362.602868 267.072734 363.989067 268.458933 
C 365.375266 269.845132 367.255619 270.624 369.216 270.624 
z
" style="fill:#9558b2;fill-opacity:0.5;stroke:#9558b2;stroke-linejoin:miter;stroke-width:2;"/>
   </g>
   <g id="patch_96">
    <path clip-path="url(#p02bf7efbf7)" d="M 398.784 266.928 
C 399.764191 266.928 400.704367 266.538566 401.397467 265.845467 
C 402.090566 265.152367 402.48 264.212191 402.48 263.232 
C 402.48 262.251809 402.090566 261.311633 401.397467 260.618533 
C 400.704367 259.925434 399.764191 259.536 398.784 259.536 
C 397.803809 259.536 396.863633 259.925434 396.170533 260.618533 
C 395.477434 261.311633 395.088 262.251809 395.088 263.232 
C 395.088 264.212191 395.477434 265.152367 396.170533 265.845467 
C 396.863633 266.538566 397.803809 266.928 398.784 266.928 
z
" style="fill:#009900;fill-opacity:0.5;stroke:#009900;stroke-linejoin:miter;stroke-width:2;"/>
   </g>
   <g id="patch_97">
    <path clip-path="url(#p02bf7efbf7)" d="M 369.216 241.056 
C 371.176381 241.056 373.056734 240.277132 374.442933 238.890933 
C 375.829132 237.504734 376.608 235.624381 376.608 233.664 
C 376.608 231.703619 375.829132 229.823266 374.442933 228.437067 
C 373.056734 227.050868 371.176381 226.272 369.216 226.272 
C 367.255619 226.272 365.375266 227.050868 363.989067 228.437067 
C 362.602868 229.823266 361.824 231.703619 361.824 233.664 
C 361.824 235.624381 362.602868 237.504734 363.989067 238.890933 
C 365.375266 240.277132 367.255619 241.056 369.216 241.056 
z
" style="fill:#9558b2;fill-opacity:0.5;stroke:#9558b2;stroke-linejoin:miter;stroke-width:2;"/>
   </g>
   <g id="patch_98">
    <path clip-path="url(#p02bf7efbf7)" d="M 398.784 237.36 
C 399.764191 237.36 400.704367 236.970566 401.397467 236.277467 
C 402.090566 235.584367 402.48 234.644191 402.48 233.664 
C 402.48 232.683809 402.090566 231.743633 401.397467 231.050533 
C 400.704367 230.357434 399.764191 229.968 398.784 229.968 
C 397.803809 229.968 396.863633 230.357434 396.170533 231.050533 
C 395.477434 231.743633 395.088 232.683809 395.088 233.664 
C 395.088 234.644191 395.477434 235.584367 396.170533 236.277467 
C 396.863633 236.970566 397.803809 237.36 398.784 237.36 
z
" style="fill:#009900;fill-opacity:0.5;stroke:#009900;stroke-linejoin:miter;stroke-width:2;"/>
   </g>
   <g id="patch_99">
    <path clip-path="url(#p02bf7efbf7)" d="M 369.216 211.488 
C 371.176381 211.488 373.056734 210.709132 374.442933 209.322933 
C 375.829132 207.936734 376.608 206.056381 376.608 204.096 
C 376.608 202.135619 375.829132 200.255266 374.442933 198.869067 
C 373.056734 197.482868 371.176381 196.704 369.216 196.704 
C 367.255619 196.704 365.375266 197.482868 363.989067 198.869067 
C 362.602868 200.255266 361.824 202.135619 361.824 204.096 
C 361.824 206.056381 362.602868 207.936734 363.989067 209.322933 
C 365.375266 210.709132 367.255619 211.488 369.216 211.488 
z
" style="fill:#9558b2;fill-opacity:0.5;stroke:#9558b2;stroke-linejoin:miter;stroke-width:2;"/>
   </g>
   <g id="patch_100">
    <path clip-path="url(#p02bf7efbf7)" d="M 398.784 207.792 
C 399.764191 207.792 400.704367 207.402566 401.397467 206.709467 
C 402.090566 206.016367 402.48 205.076191 402.48 204.096 
C 402.48 203.115809 402.090566 202.175633 401.397467 201.482533 
C 400.704367 200.789434 399.764191 200.4 398.784 200.4 
C 397.803809 200.4 396.863633 200.789434 396.170533 201.482533 
C 395.477434 202.175633 395.088 203.115809 395.088 204.096 
C 395.088 205.076191 395.477434 206.016367 396.170533 206.709467 
C 396.863633 207.402566 397.803809 207.792 398.784 207.792 
z
" style="fill:#009900;fill-opacity:0.5;stroke:#009900;stroke-linejoin:miter;stroke-width:2;"/>
   </g>
   <g id="patch_101">
    <path clip-path="url(#p02bf7efbf7)" d="M 369.216 181.92 
C 371.176381 181.92 373.056734 181.141132 374.442933 179.754933 
C 375.829132 178.368734 376.608 176.488381 376.608 174.528 
C 376.608 172.567619 375.829132 170.687266 374.442933 169.301067 
C 373.056734 167.914868 371.176381 167.136 369.216 167.136 
C 367.255619 167.136 365.375266 167.914868 363.989067 169.301067 
C 362.602868 170.687266 361.824 172.567619 361.824 174.528 
C 361.824 176.488381 362.602868 178.368734 363.989067 179.754933 
C 365.375266 181.141132 367.255619 181.92 369.216 181.92 
z
" style="fill:#9558b2;fill-opacity:0.5;stroke:#9558b2;stroke-linejoin:miter;stroke-width:2;"/>
   </g>
   <g id="patch_102">
    <path clip-path="url(#p02bf7efbf7)" d="M 398.784 178.224 
C 399.764191 178.224 400.704367 177.834566 401.397467 177.141467 
C 402.090566 176.448367 402.48 175.508191 402.48 174.528 
C 402.48 173.547809 402.090566 172.607633 401.397467 171.914533 
C 400.704367 171.221434 399.764191 170.832 398.784 170.832 
C 397.803809 170.832 396.863633 171.221434 396.170533 171.914533 
C 395.477434 172.607633 395.088 173.547809 395.088 174.528 
C 395.088 175.508191 395.477434 176.448367 396.170533 177.141467 
C 396.863633 177.834566 397.803809 178.224 398.784 178.224 
z
" style="fill:#009900;fill-opacity:0.5;stroke:#009900;stroke-linejoin:miter;stroke-width:2;"/>
   </g>
   <g id="patch_103">
    <path clip-path="url(#p02bf7efbf7)" d="M 369.216 152.352 
C 371.176381 152.352 373.056734 151.573132 374.442933 150.186933 
C 375.829132 148.800734 376.608 146.920381 376.608 144.96 
C 376.608 142.999619 375.829132 141.119266 374.442933 139.733067 
C 373.056734 138.346868 371.176381 137.568 369.216 137.568 
C 367.255619 137.568 365.375266 138.346868 363.989067 139.733067 
C 362.602868 141.119266 361.824 142.999619 361.824 144.96 
C 361.824 146.920381 362.602868 148.800734 363.989067 150.186933 
C 365.375266 151.573132 367.255619 152.352 369.216 152.352 
z
" style="fill:#9558b2;fill-opacity:0.5;stroke:#9558b2;stroke-linejoin:miter;stroke-width:2;"/>
   </g>
   <g id="patch_104">
    <path clip-path="url(#p02bf7efbf7)" d="M 398.784 148.656 
C 399.764191 148.656 400.704367 148.266566 401.397467 147.573467 
C 402.090566 146.880367 402.48 145.940191 402.48 144.96 
C 402.48 143.979809 402.090566 143.039633 401.397467 142.346533 
C 400.704367 141.653434 399.764191 141.264 398.784 141.264 
C 397.803809 141.264 396.863633 141.653434 396.170533 142.346533 
C 395.477434 143.039633 395.088 143.979809 395.088 144.96 
C 395.088 145.940191 395.477434 146.880367 396.170533 147.573467 
C 396.863633 148.266566 397.803809 148.656 398.784 148.656 
z
" style="fill:#009900;fill-opacity:0.5;stroke:#009900;stroke-linejoin:miter;stroke-width:2;"/>
   </g>
   <g id="patch_105">
    <path clip-path="url(#p02bf7efbf7)" d="M 369.216 122.784 
C 371.176381 122.784 373.056734 122.005132 374.442933 120.618933 
C 375.829132 119.232734 376.608 117.352381 376.608 115.392 
C 376.608 113.431619 375.829132 111.551266 374.442933 110.165067 
C 373.056734 108.778868 371.176381 108 369.216 108 
C 367.255619 108 365.375266 108.778868 363.989067 110.165067 
C 362.602868 111.551266 361.824 113.431619 361.824 115.392 
C 361.824 117.352381 362.602868 119.232734 363.989067 120.618933 
C 365.375266 122.005132 367.255619 122.784 369.216 122.784 
z
" style="fill:#9558b2;fill-opacity:0.5;stroke:#9558b2;stroke-linejoin:miter;stroke-width:2;"/>
   </g>
   <g id="patch_106">
    <path clip-path="url(#p02bf7efbf7)" d="M 398.784 119.088 
C 399.764191 119.088 400.704367 118.698566 401.397467 118.005467 
C 402.090566 117.312367 402.48 116.372191 402.48 115.392 
C 402.48 114.411809 402.090566 113.471633 401.397467 112.778533 
C 400.704367 112.085434 399.764191 111.696 398.784 111.696 
C 397.803809 111.696 396.863633 112.085434 396.170533 112.778533 
C 395.477434 113.471633 395.088 114.411809 395.088 115.392 
C 395.088 116.372191 395.477434 117.312367 396.170533 118.005467 
C 396.863633 118.698566 397.803809 119.088 398.784 119.088 
z
" style="fill:#009900;fill-opacity:0.5;stroke:#009900;stroke-linejoin:miter;stroke-width:2;"/>
   </g>
   <g id="patch_107">
    <path clip-path="url(#p02bf7efbf7)" d="M 369.216 93.216 
C 371.176381 93.216 373.056734 92.437132 374.442933 91.050933 
C 375.829132 89.664734 376.608 87.784381 376.608 85.824 
C 376.608 83.863619 375.829132 81.983266 374.442933 80.597067 
C 373.056734 79.210868 371.176381 78.432 369.216 78.432 
C 367.255619 78.432 365.375266 79.210868 363.989067 80.597067 
C 362.602868 81.983266 361.824 83.863619 361.824 85.824 
C 361.824 87.784381 362.602868 89.664734 363.989067 91.050933 
C 365.375266 92.437132 367.255619 93.216 369.216 93.216 
z
" style="fill:#9558b2;fill-opacity:0.5;stroke:#9558b2;stroke-linejoin:miter;stroke-width:2;"/>
   </g>
   <g id="patch_108">
    <path clip-path="url(#p02bf7efbf7)" d="M 398.784 89.52 
C 399.764191 89.52 400.704367 89.130566 401.397467 88.437467 
C 402.090566 87.744367 402.48 86.804191 402.48 85.824 
C 402.48 84.843809 402.090566 83.903633 401.397467 83.210533 
C 400.704367 82.517434 399.764191 82.128 398.784 82.128 
C 397.803809 82.128 396.863633 82.517434 396.170533 83.210533 
C 395.477434 83.903633 395.088 84.843809 395.088 85.824 
C 395.088 86.804191 395.477434 87.744367 396.170533 88.437467 
C 396.863633 89.130566 397.803809 89.52 398.784 89.52 
z
" style="fill:#009900;fill-opacity:0.5;stroke:#009900;stroke-linejoin:miter;stroke-width:2;"/>
   </g>
   <g id="patch_109">
    <path clip-path="url(#p02bf7efbf7)" d="M 369.216 63.648 
C 371.176381 63.648 373.056734 62.869132 374.442933 61.482933 
C 375.829132 60.096734 376.608 58.216381 376.608 56.256 
C 376.608 54.295619 375.829132 52.415266 374.442933 51.029067 
C 373.056734 49.642868 371.176381 48.864 369.216 48.864 
C 367.255619 48.864 365.375266 49.642868 363.989067 51.029067 
C 362.602868 52.415266 361.824 54.295619 361.824 56.256 
C 361.824 58.216381 362.602868 60.096734 363.989067 61.482933 
C 365.375266 62.869132 367.255619 63.648 369.216 63.648 
z
" style="fill:#9558b2;fill-opacity:0.5;stroke:#9558b2;stroke-linejoin:miter;stroke-width:2;"/>
   </g>
   <g id="patch_110">
    <path clip-path="url(#p02bf7efbf7)" d="M 398.784 59.952 
C 399.764191 59.952 400.704367 59.562566 401.397467 58.869467 
C 402.090566 58.176367 402.48 57.236191 402.48 56.256 
C 402.48 55.275809 402.090566 54.335633 401.397467 53.642533 
C 400.704367 52.949434 399.764191 52.56 398.784 52.56 
C 397.803809 52.56 396.863633 52.949434 396.170533 53.642533 
C 395.477434 54.335633 395.088 55.275809 395.088 56.256 
C 395.088 57.236191 395.477434 58.176367 396.170533 58.869467 
C 396.863633 59.562566 397.803809 59.952 398.784 59.952 
z
" style="fill:#009900;fill-opacity:0.5;stroke:#009900;stroke-linejoin:miter;stroke-width:2;"/>
   </g>
   <g id="matplotlib.axis_1">
    <g id="xtick_1">
     <g id="line2d_1">
      <defs>
       <path d="M 0 0 
L 0 3.5 
" id="m7e8f920814" style="stroke:#000000;stroke-width:0.8;"/>
      </defs>
      <g>
       <use style="stroke:#000000;stroke-width:0.8;" x="58.752" xlink:href="#m7e8f920814" y="307.584"/>
      </g>
     </g>
     <g id="text_1">
      <!-- 4 -->
      <defs>
       <path d="M 10.59375 35.5 
L 73.1875 35.5 
L 73.1875 27.203125 
L 10.59375 27.203125 
z
" id="DejaVuSans-2212"/>
       <path d="M 37.796875 64.3125 
L 12.890625 25.390625 
L 37.796875 25.390625 
z
M 35.203125 72.90625 
L 47.609375 72.90625 
L 47.609375 25.390625 
L 58.015625 25.390625 
L 58.015625 17.1875 
L 47.609375 17.1875 
L 47.609375 0 
L 37.796875 0 
L 37.796875 17.1875 
L 4.890625 17.1875 
L 4.890625 26.703125 
z
" id="DejaVuSans-34"/>
      </defs>
      <g transform="translate(51.380906 322.182437)scale(0.1 -0.1)">
       <use xlink:href="#DejaVuSans-2212"/>
       <use x="83.789062" xlink:href="#DejaVuSans-34"/>
      </g>
     </g>
    </g>
    <g id="xtick_2">
     <g id="line2d_2">
      <g>
       <use style="stroke:#000000;stroke-width:0.8;" x="117.888" xlink:href="#m7e8f920814" y="307.584"/>
      </g>
     </g>
     <g id="text_2">
      <!-- 2 -->
      <defs>
       <path d="M 19.1875 8.296875 
L 53.609375 8.296875 
L 53.609375 0 
L 7.328125 0 
L 7.328125 8.296875 
Q 12.9375 14.109375 22.625 23.890625 
Q 32.328125 33.6875 34.8125 36.53125 
Q 39.546875 41.84375 41.421875 45.53125 
Q 43.3125 49.21875 43.3125 52.78125 
Q 43.3125 58.59375 39.234375 62.25 
Q 35.15625 65.921875 28.609375 65.921875 
Q 23.96875 65.921875 18.8125 64.3125 
Q 13.671875 62.703125 7.8125 59.421875 
L 7.8125 69.390625 
Q 13.765625 71.78125 18.9375 73 
Q 24.125 74.21875 28.421875 74.21875 
Q 39.75 74.21875 46.484375 68.546875 
Q 53.21875 62.890625 53.21875 53.421875 
Q 53.21875 48.921875 51.53125 44.890625 
Q 49.859375 40.875 45.40625 35.40625 
Q 44.1875 33.984375 37.640625 27.21875 
Q 31.109375 20.453125 19.1875 8.296875 
z
" id="DejaVuSans-32"/>
      </defs>
      <g transform="translate(110.516906 322.182437)scale(0.1 -0.1)">
       <use xlink:href="#DejaVuSans-2212"/>
       <use x="83.789062" xlink:href="#DejaVuSans-32"/>
      </g>
     </g>
    </g>
    <g id="xtick_3">
     <g id="line2d_3">
      <g>
       <use style="stroke:#000000;stroke-width:0.8;" x="177.024" xlink:href="#m7e8f920814" y="307.584"/>
      </g>
     </g>
     <g id="text_3">
      <!-- 0 -->
      <defs>
       <path d="M 31.78125 66.40625 
Q 24.171875 66.40625 20.328125 58.90625 
Q 16.5 51.421875 16.5 36.375 
Q 16.5 21.390625 20.328125 13.890625 
Q 24.171875 6.390625 31.78125 6.390625 
Q 39.453125 6.390625 43.28125 13.890625 
Q 47.125 21.390625 47.125 36.375 
Q 47.125 51.421875 43.28125 58.90625 
Q 39.453125 66.40625 31.78125 66.40625 
z
M 31.78125 74.21875 
Q 44.046875 74.21875 50.515625 64.515625 
Q 56.984375 54.828125 56.984375 36.375 
Q 56.984375 17.96875 50.515625 8.265625 
Q 44.046875 -1.421875 31.78125 -1.421875 
Q 19.53125 -1.421875 13.0625 8.265625 
Q 6.59375 17.96875 6.59375 36.375 
Q 6.59375 54.828125 13.0625 64.515625 
Q 19.53125 74.21875 31.78125 74.21875 
z
" id="DejaVuSans-30"/>
      </defs>
      <g transform="translate(173.84275 322.182437)scale(0.1 -0.1)">
       <use xlink:href="#DejaVuSans-30"/>
      </g>
     </g>
    </g>
    <g id="xtick_4">
     <g id="line2d_4">
      <g>
       <use style="stroke:#000000;stroke-width:0.8;" x="236.16" xlink:href="#m7e8f920814" y="307.584"/>
      </g>
     </g>
     <g id="text_4">
      <!-- 2 -->
      <g transform="translate(232.97875 322.182437)scale(0.1 -0.1)">
       <use xlink:href="#DejaVuSans-32"/>
      </g>
     </g>
    </g>
    <g id="xtick_5">
     <g id="line2d_5">
      <g>
       <use style="stroke:#000000;stroke-width:0.8;" x="295.296" xlink:href="#m7e8f920814" y="307.584"/>
      </g>
     </g>
     <g id="text_5">
      <!-- 4 -->
      <g transform="translate(292.11475 322.182437)scale(0.1 -0.1)">
       <use xlink:href="#DejaVuSans-34"/>
      </g>
     </g>
    </g>
    <g id="xtick_6">
     <g id="line2d_6">
      <g>
       <use style="stroke:#000000;stroke-width:0.8;" x="354.432" xlink:href="#m7e8f920814" y="307.584"/>
      </g>
     </g>
     <g id="text_6">
      <!-- 6 -->
      <defs>
       <path d="M 33.015625 40.375 
Q 26.375 40.375 22.484375 35.828125 
Q 18.609375 31.296875 18.609375 23.390625 
Q 18.609375 15.53125 22.484375 10.953125 
Q 26.375 6.390625 33.015625 6.390625 
Q 39.65625 6.390625 43.53125 10.953125 
Q 47.40625 15.53125 47.40625 23.390625 
Q 47.40625 31.296875 43.53125 35.828125 
Q 39.65625 40.375 33.015625 40.375 
z
M 52.59375 71.296875 
L 52.59375 62.3125 
Q 48.875 64.0625 45.09375 64.984375 
Q 41.3125 65.921875 37.59375 65.921875 
Q 27.828125 65.921875 22.671875 59.328125 
Q 17.53125 52.734375 16.796875 39.40625 
Q 19.671875 43.65625 24.015625 45.921875 
Q 28.375 48.1875 33.59375 48.1875 
Q 44.578125 48.1875 50.953125 41.515625 
Q 57.328125 34.859375 57.328125 23.390625 
Q 57.328125 12.15625 50.6875 5.359375 
Q 44.046875 -1.421875 33.015625 -1.421875 
Q 20.359375 -1.421875 13.671875 8.265625 
Q 6.984375 17.96875 6.984375 36.375 
Q 6.984375 53.65625 15.1875 63.9375 
Q 23.390625 74.21875 37.203125 74.21875 
Q 40.921875 74.21875 44.703125 73.484375 
Q 48.484375 72.75 52.59375 71.296875 
z
" id="DejaVuSans-36"/>
      </defs>
      <g transform="translate(351.25075 322.182437)scale(0.1 -0.1)">
       <use xlink:href="#DejaVuSans-36"/>
      </g>
     </g>
    </g>
    <g id="xtick_7">
     <g id="line2d_7">
      <g>
       <use style="stroke:#000000;stroke-width:0.8;" x="413.568" xlink:href="#m7e8f920814" y="307.584"/>
      </g>
     </g>
     <g id="text_7">
      <!-- 8 -->
      <defs>
       <path d="M 31.78125 34.625 
Q 24.75 34.625 20.71875 30.859375 
Q 16.703125 27.09375 16.703125 20.515625 
Q 16.703125 13.921875 20.71875 10.15625 
Q 24.75 6.390625 31.78125 6.390625 
Q 38.8125 6.390625 42.859375 10.171875 
Q 46.921875 13.96875 46.921875 20.515625 
Q 46.921875 27.09375 42.890625 30.859375 
Q 38.875 34.625 31.78125 34.625 
z
M 21.921875 38.8125 
Q 15.578125 40.375 12.03125 44.71875 
Q 8.5 49.078125 8.5 55.328125 
Q 8.5 64.0625 14.71875 69.140625 
Q 20.953125 74.21875 31.78125 74.21875 
Q 42.671875 74.21875 48.875 69.140625 
Q 55.078125 64.0625 55.078125 55.328125 
Q 55.078125 49.078125 51.53125 44.71875 
Q 48 40.375 41.703125 38.8125 
Q 48.828125 37.15625 52.796875 32.3125 
Q 56.78125 27.484375 56.78125 20.515625 
Q 56.78125 9.90625 50.3125 4.234375 
Q 43.84375 -1.421875 31.78125 -1.421875 
Q 19.734375 -1.421875 13.25 4.234375 
Q 6.78125 9.90625 6.78125 20.515625 
Q 6.78125 27.484375 10.78125 32.3125 
Q 14.796875 37.15625 21.921875 38.8125 
z
M 18.3125 54.390625 
Q 18.3125 48.734375 21.84375 45.5625 
Q 25.390625 42.390625 31.78125 42.390625 
Q 38.140625 42.390625 41.71875 45.5625 
Q 45.3125 48.734375 45.3125 54.390625 
Q 45.3125 60.0625 41.71875 63.234375 
Q 38.140625 66.40625 31.78125 66.40625 
Q 25.390625 66.40625 21.84375 63.234375 
Q 18.3125 60.0625 18.3125 54.390625 
z
" id="DejaVuSans-38"/>
      </defs>
      <g transform="translate(410.38675 322.182437)scale(0.1 -0.1)">
       <use xlink:href="#DejaVuSans-38"/>
      </g>
     </g>
    </g>
   </g>
   <g id="matplotlib.axis_2">
    <g id="ytick_1">
     <g id="line2d_8">
      <defs>
       <path d="M 0 0 
L -3.5 0 
" id="mbca9ff508b" style="stroke:#000000;stroke-width:0.8;"/>
      </defs>
      <g>
       <use style="stroke:#000000;stroke-width:0.8;" x="58.752" xlink:href="#mbca9ff508b" y="307.584"/>
      </g>
     </g>
     <g id="text_8">
      <!-- 7 -->
      <defs>
       <path d="M 8.203125 72.90625 
L 55.078125 72.90625 
L 55.078125 68.703125 
L 28.609375 0 
L 18.3125 0 
L 43.21875 64.59375 
L 8.203125 64.59375 
z
" id="DejaVuSans-37"/>
      </defs>
      <g transform="translate(37.009813 311.383219)scale(0.1 -0.1)">
       <use xlink:href="#DejaVuSans-2212"/>
       <use x="83.789062" xlink:href="#DejaVuSans-37"/>
      </g>
     </g>
    </g>
    <g id="ytick_2">
     <g id="line2d_9">
      <g>
       <use style="stroke:#000000;stroke-width:0.8;" x="58.752" xlink:href="#mbca9ff508b" y="278.016"/>
      </g>
     </g>
     <g id="text_9">
      <!-- 6 -->
      <g transform="translate(37.009813 281.815219)scale(0.1 -0.1)">
       <use xlink:href="#DejaVuSans-2212"/>
       <use x="83.789062" xlink:href="#DejaVuSans-36"/>
      </g>
     </g>
    </g>
    <g id="ytick_3">
     <g id="line2d_10">
      <g>
       <use style="stroke:#000000;stroke-width:0.8;" x="58.752" xlink:href="#mbca9ff508b" y="248.448"/>
      </g>
     </g>
     <g id="text_10">
      <!-- 5 -->
      <defs>
       <path d="M 10.796875 72.90625 
L 49.515625 72.90625 
L 49.515625 64.59375 
L 19.828125 64.59375 
L 19.828125 46.734375 
Q 21.96875 47.46875 24.109375 47.828125 
Q 26.265625 48.1875 28.421875 48.1875 
Q 40.625 48.1875 47.75 41.5 
Q 54.890625 34.8125 54.890625 23.390625 
Q 54.890625 11.625 47.5625 5.09375 
Q 40.234375 -1.421875 26.90625 -1.421875 
Q 22.3125 -1.421875 17.546875 -0.640625 
Q 12.796875 0.140625 7.71875 1.703125 
L 7.71875 11.625 
Q 12.109375 9.234375 16.796875 8.0625 
Q 21.484375 6.890625 26.703125 6.890625 
Q 35.15625 6.890625 40.078125 11.328125 
Q 45.015625 15.765625 45.015625 23.390625 
Q 45.015625 31 40.078125 35.4375 
Q 35.15625 39.890625 26.703125 39.890625 
Q 22.75 39.890625 18.8125 39.015625 
Q 14.890625 38.140625 10.796875 36.28125 
z
" id="DejaVuSans-35"/>
      </defs>
      <g transform="translate(37.009813 252.247219)scale(0.1 -0.1)">
       <use xlink:href="#DejaVuSans-2212"/>
       <use x="83.789062" xlink:href="#DejaVuSans-35"/>
      </g>
     </g>
    </g>
    <g id="ytick_4">
     <g id="line2d_11">
      <g>
       <use style="stroke:#000000;stroke-width:0.8;" x="58.752" xlink:href="#mbca9ff508b" y="218.88"/>
      </g>
     </g>
     <g id="text_11">
      <!-- 4 -->
      <g transform="translate(37.009813 222.679219)scale(0.1 -0.1)">
       <use xlink:href="#DejaVuSans-2212"/>
       <use x="83.789062" xlink:href="#DejaVuSans-34"/>
      </g>
     </g>
    </g>
    <g id="ytick_5">
     <g id="line2d_12">
      <g>
       <use style="stroke:#000000;stroke-width:0.8;" x="58.752" xlink:href="#mbca9ff508b" y="189.312"/>
      </g>
     </g>
     <g id="text_12">
      <!-- 3 -->
      <defs>
       <path d="M 40.578125 39.3125 
Q 47.65625 37.796875 51.625 33 
Q 55.609375 28.21875 55.609375 21.1875 
Q 55.609375 10.40625 48.1875 4.484375 
Q 40.765625 -1.421875 27.09375 -1.421875 
Q 22.515625 -1.421875 17.65625 -0.515625 
Q 12.796875 0.390625 7.625 2.203125 
L 7.625 11.71875 
Q 11.71875 9.328125 16.59375 8.109375 
Q 21.484375 6.890625 26.8125 6.890625 
Q 36.078125 6.890625 40.9375 10.546875 
Q 45.796875 14.203125 45.796875 21.1875 
Q 45.796875 27.640625 41.28125 31.265625 
Q 36.765625 34.90625 28.71875 34.90625 
L 20.21875 34.90625 
L 20.21875 43.015625 
L 29.109375 43.015625 
Q 36.375 43.015625 40.234375 45.921875 
Q 44.09375 48.828125 44.09375 54.296875 
Q 44.09375 59.90625 40.109375 62.90625 
Q 36.140625 65.921875 28.71875 65.921875 
Q 24.65625 65.921875 20.015625 65.03125 
Q 15.375 64.15625 9.8125 62.3125 
L 9.8125 71.09375 
Q 15.4375 72.65625 20.34375 73.4375 
Q 25.25 74.21875 29.59375 74.21875 
Q 40.828125 74.21875 47.359375 69.109375 
Q 53.90625 64.015625 53.90625 55.328125 
Q 53.90625 49.265625 50.4375 45.09375 
Q 46.96875 40.921875 40.578125 39.3125 
z
" id="DejaVuSans-33"/>
      </defs>
      <g transform="translate(37.009813 193.111219)scale(0.1 -0.1)">
       <use xlink:href="#DejaVuSans-2212"/>
       <use x="83.789062" xlink:href="#DejaVuSans-33"/>
      </g>
     </g>
    </g>
    <g id="ytick_6">
     <g id="line2d_13">
      <g>
       <use style="stroke:#000000;stroke-width:0.8;" x="58.752" xlink:href="#mbca9ff508b" y="159.744"/>
      </g>
     </g>
     <g id="text_13">
      <!-- 2 -->
      <g transform="translate(37.009813 163.543219)scale(0.1 -0.1)">
       <use xlink:href="#DejaVuSans-2212"/>
       <use x="83.789062" xlink:href="#DejaVuSans-32"/>
      </g>
     </g>
    </g>
    <g id="ytick_7">
     <g id="line2d_14">
      <g>
       <use style="stroke:#000000;stroke-width:0.8;" x="58.752" xlink:href="#mbca9ff508b" y="130.176"/>
      </g>
     </g>
     <g id="text_14">
      <!-- 1 -->
      <defs>
       <path d="M 12.40625 8.296875 
L 28.515625 8.296875 
L 28.515625 63.921875 
L 10.984375 60.40625 
L 10.984375 69.390625 
L 28.421875 72.90625 
L 38.28125 72.90625 
L 38.28125 8.296875 
L 54.390625 8.296875 
L 54.390625 0 
L 12.40625 0 
z
" id="DejaVuSans-31"/>
      </defs>
      <g transform="translate(37.009813 133.975219)scale(0.1 -0.1)">
       <use xlink:href="#DejaVuSans-2212"/>
       <use x="83.789062" xlink:href="#DejaVuSans-31"/>
      </g>
     </g>
    </g>
    <g id="ytick_8">
     <g id="line2d_15">
      <g>
       <use style="stroke:#000000;stroke-width:0.8;" x="58.752" xlink:href="#mbca9ff508b" y="100.608"/>
      </g>
     </g>
     <g id="text_15">
      <!-- 0 -->
      <g transform="translate(45.3895 104.407219)scale(0.1 -0.1)">
       <use xlink:href="#DejaVuSans-30"/>
      </g>
     </g>
    </g>
    <g id="ytick_9">
     <g id="line2d_16">
      <g>
       <use style="stroke:#000000;stroke-width:0.8;" x="58.752" xlink:href="#mbca9ff508b" y="71.04"/>
      </g>
     </g>
     <g id="text_16">
      <!-- 1 -->
      <g transform="translate(45.3895 74.839219)scale(0.1 -0.1)">
       <use xlink:href="#DejaVuSans-31"/>
      </g>
     </g>
    </g>
    <g id="ytick_10">
     <g id="line2d_17">
      <g>
       <use style="stroke:#000000;stroke-width:0.8;" x="58.752" xlink:href="#mbca9ff508b" y="41.472"/>
      </g>
     </g>
     <g id="text_17">
      <!-- 2 -->
      <g transform="translate(45.3895 45.271219)scale(0.1 -0.1)">
       <use xlink:href="#DejaVuSans-32"/>
      </g>
     </g>
    </g>
   </g>
   <g id="line2d_18">
    <path clip-path="url(#p02bf7efbf7)" d="M 206.345042 98.449581 
L 189.223681 63.18153 
L 134.814779 197.021386 
L 80.927519 174.443648 
L 102.277965 59.858511 
L 80.011845 141.395579 
L 102.837015 170.841656 
L 130.252839 122.376936 
L 104.378898 200.626843 
L 125.816531 147.724817 
L 80.900218 114.751721 
L 99.771222 113.794187 
L 80.741553 87.47375 
L 99.456731 233.065798 
L 73.973808 285.420976 
L 75.056217 270.46599 
L 309.435403 285.436159 
L 363.296057 229.237269 
L 317.267766 202.370403 
L 363.296875 170.100177 
L 317.042027 147.444318 
" style="fill:none;stroke:#1f77b4;stroke-linecap:square;stroke-width:1.5;"/>
   </g>
   <g id="patch_111">
    <path d="M 58.752 307.584 
L 58.752 41.472 
" style="fill:none;stroke:#000000;stroke-linecap:square;stroke-linejoin:miter;stroke-width:0.8;"/>
   </g>
   <g id="patch_112">
    <path d="M 413.568 307.584 
L 413.568 41.472 
" style="fill:none;stroke:#000000;stroke-linecap:square;stroke-linejoin:miter;stroke-width:0.8;"/>
   </g>
   <g id="patch_113">
    <path d="M 58.752 307.584 
L 413.568 307.584 
" style="fill:none;stroke:#000000;stroke-linecap:square;stroke-linejoin:miter;stroke-width:0.8;"/>
   </g>
   <g id="patch_114">
    <path d="M 58.752 41.472 
L 413.568 41.472 
" style="fill:none;stroke:#000000;stroke-linecap:square;stroke-linejoin:miter;stroke-width:0.8;"/>
   </g>
  </g>
 </g>
 <defs>
  <clipPath id="p02bf7efbf7">
   <rect height="266.112" width="354.816" x="58.752" y="41.472"/>
  </clipPath>
 </defs>
</svg>
