<?xml version="1.0" encoding="utf-8" standalone="no"?>
<!DOCTYPE svg PUBLIC "-//W3C//DTD SVG 1.1//EN"
  "http://www.w3.org/Graphics/SVG/1.1/DTD/svg11.dtd">
<!-- Created with matplotlib (http://matplotlib.org/) -->
<svg height="345.6pt" version="1.1" viewBox="0 0 460.8 345.6" width="460.8pt" xmlns="http://www.w3.org/2000/svg" xmlns:xlink="http://www.w3.org/1999/xlink">
 <defs>
  <style type="text/css">
*{stroke-linecap:butt;stroke-linejoin:round;}
  </style>
 </defs>
 <g id="figure_1">
  <g id="patch_1">
   <path d="M 0 345.6 
L 460.8 345.6 
L 460.8 0 
L 0 0 
z
" style="fill:#ffffff;"/>
  </g>
  <g id="axes_1">
   <g id="patch_2">
    <path d="M 105.342804 307.584 
L 366.977196 307.584 
L 366.977196 41.472 
L 105.342804 41.472 
z
" style="fill:#ffffff;"/>
   </g>
   <g id="PathCollection_1">
    <defs>
     <path d="M 0 3 
C 0.795609 3 1.55874 2.683901 2.12132 2.12132 
C 2.683901 1.55874 3 0.795609 3 0 
C 3 -0.795609 2.683901 -1.55874 2.12132 -2.12132 
C 1.55874 -2.683901 0.795609 -3 0 -3 
C -0.795609 -3 -1.55874 -2.683901 -2.12132 -2.12132 
C -2.683901 -1.55874 -3 -0.795609 -3 0 
C -3 0.795609 -2.683901 1.55874 -2.12132 2.12132 
C -1.55874 2.683901 -0.795609 3 0 3 
z
" id="m69febeb21a" style="stroke:#000000;"/>
    </defs>
    <g clip-path="url(#p875cedd3e2)">
     <use style="stroke:#000000;" x="206.051161" xlink:href="#m69febeb21a" y="224.391081"/>
    </g>
   </g>
   <g id="PathCollection_2">
    <defs>
     <path d="M 0 2.738613 
C 0.726289 2.738613 1.422928 2.450055 1.936492 1.936492 
C 2.450055 1.422928 2.738613 0.726289 2.738613 0 
C 2.738613 -0.726289 2.450055 -1.422928 1.936492 -1.936492 
C 1.422928 -2.450055 0.726289 -2.738613 0 -2.738613 
C -0.726289 -2.738613 -1.422928 -2.450055 -1.936492 -1.936492 
C -2.450055 -1.422928 -2.738613 -0.726289 -2.738613 0 
C -2.738613 0.726289 -2.450055 1.422928 -1.936492 1.936492 
C -1.422928 2.450055 -0.726289 2.738613 0 2.738613 
z
" id="md3453b0e2e" style="stroke:#000000;"/>
    </defs>
    <g clip-path="url(#p875cedd3e2)">
     <use style="stroke:#000000;" x="281.331045" xlink:href="#md3453b0e2e" y="238.407145"/>
    </g>
   </g>
   <g id="Quiver_1">
    <path clip-path="url(#p875cedd3e2)" d="M 280.713054 238.621424 
L 275.784631 224.407631 
L 274.762928 225.454181 
L 274.474109 218.631433 
L 278.470874 224.168505 
L 277.020613 223.979073 
L 281.949036 238.192865 
L 280.713054 238.621424 
"/>
   </g>
   <g id="patch_3">
    <path clip-path="url(#p875cedd3e2)" d="M 144.187616 301.784006 
C 147.255482 301.784006 150.198108 300.56513 152.367417 298.395822 
C 154.536725 296.226513 155.755601 293.283887 155.755601 290.216022 
C 155.755601 287.148156 154.536725 284.20553 152.367417 282.036221 
C 150.198108 279.866913 147.255482 278.648037 144.187616 278.648037 
C 141.119751 278.648037 138.177124 279.866913 136.007816 282.036221 
C 133.838508 284.20553 132.619632 287.148156 132.619632 290.216022 
C 132.619632 293.283887 133.838508 296.226513 136.007816 298.395822 
C 138.177124 300.56513 141.119751 301.784006 144.187616 301.784006 
z
" style="fill:#9558b2;fill-opacity:0.5;stroke:#9558b2;stroke-linejoin:miter;stroke-width:2;"/>
   </g>
   <g id="patch_4">
    <path clip-path="url(#p875cedd3e2)" d="M 190.459554 296.000014 
C 191.993487 296.000014 193.4648 295.390576 194.549454 294.305922 
C 195.634108 293.221268 196.243546 291.749954 196.243546 290.216022 
C 196.243546 288.682089 195.634108 287.210776 194.549454 286.126121 
C 193.4648 285.041467 191.993487 284.432029 190.459554 284.432029 
C 188.925621 284.432029 187.454308 285.041467 186.369654 286.126121 
C 185.285 287.210776 184.675562 288.682089 184.675562 290.216022 
C 184.675562 291.749954 185.285 293.221268 186.369654 294.305922 
C 187.454308 295.390576 188.925621 296.000014 190.459554 296.000014 
z
" style="fill:#009900;fill-opacity:0.5;stroke:#009900;stroke-linejoin:miter;stroke-width:2;"/>
   </g>
   <g id="patch_5">
    <path clip-path="url(#p875cedd3e2)" d="M 144.187616 255.512068 
C 147.255482 255.512068 150.198108 254.293193 152.367417 252.123884 
C 154.536725 249.954576 155.755601 247.011949 155.755601 243.944084 
C 155.755601 240.876219 154.536725 237.933592 152.367417 235.764284 
C 150.198108 233.594975 147.255482 232.3761 144.187616 232.3761 
C 141.119751 232.3761 138.177124 233.594975 136.007816 235.764284 
C 133.838508 237.933592 132.619632 240.876219 132.619632 243.944084 
C 132.619632 247.011949 133.838508 249.954576 136.007816 252.123884 
C 138.177124 254.293193 141.119751 255.512068 144.187616 255.512068 
z
" style="fill:#9558b2;fill-opacity:0.5;stroke:#9558b2;stroke-linejoin:miter;stroke-width:2;"/>
   </g>
   <g id="patch_6">
    <path clip-path="url(#p875cedd3e2)" d="M 190.459554 249.728076 
C 191.993487 249.728076 193.4648 249.118638 194.549454 248.033984 
C 195.634108 246.94933 196.243546 245.478017 196.243546 243.944084 
C 196.243546 242.410151 195.634108 240.938838 194.549454 239.854184 
C 193.4648 238.76953 191.993487 238.160092 190.459554 238.160092 
C 188.925621 238.160092 187.454308 238.76953 186.369654 239.854184 
C 185.285 240.938838 184.675562 242.410151 184.675562 243.944084 
C 184.675562 245.478017 185.285 246.94933 186.369654 248.033984 
C 187.454308 249.118638 188.925621 249.728076 190.459554 249.728076 
z
" style="fill:#009900;fill-opacity:0.5;stroke:#009900;stroke-linejoin:miter;stroke-width:2;"/>
   </g>
   <g id="patch_7">
    <path clip-path="url(#p875cedd3e2)" d="M 144.187616 209.240131 
C 147.255482 209.240131 150.198108 208.021255 152.367417 205.851947 
C 154.536725 203.682638 155.755601 200.740012 155.755601 197.672146 
C 155.755601 194.604281 154.536725 191.661654 152.367417 189.492346 
C 150.198108 187.323038 147.255482 186.104162 144.187616 186.104162 
C 141.119751 186.104162 138.177124 187.323038 136.007816 189.492346 
C 133.838508 191.661654 132.619632 194.604281 132.619632 197.672146 
C 132.619632 200.740012 133.838508 203.682638 136.007816 205.851947 
C 138.177124 208.021255 141.119751 209.240131 144.187616 209.240131 
z
" style="fill:#9558b2;fill-opacity:0.5;stroke:#9558b2;stroke-linejoin:miter;stroke-width:2;"/>
   </g>
   <g id="patch_8">
    <path clip-path="url(#p875cedd3e2)" d="M 190.459554 203.456139 
C 191.993487 203.456139 193.4648 202.846701 194.549454 201.762046 
C 195.634108 200.677392 196.243546 199.206079 196.243546 197.672146 
C 196.243546 196.138214 195.634108 194.6669 194.549454 193.582246 
C 193.4648 192.497592 191.993487 191.888154 190.459554 191.888154 
C 188.925621 191.888154 187.454308 192.497592 186.369654 193.582246 
C 185.285 194.6669 184.675562 196.138214 184.675562 197.672146 
C 184.675562 199.206079 185.285 200.677392 186.369654 201.762046 
C 187.454308 202.846701 188.925621 203.456139 190.459554 203.456139 
z
" style="fill:#009900;fill-opacity:0.5;stroke:#009900;stroke-linejoin:miter;stroke-width:2;"/>
   </g>
   <g id="patch_9">
    <path clip-path="url(#p875cedd3e2)" d="M 144.187616 162.968193 
C 147.255482 162.968193 150.198108 161.749317 152.367417 159.580009 
C 154.536725 157.410701 155.755601 154.468074 155.755601 151.400209 
C 155.755601 148.332343 154.536725 145.389717 152.367417 143.220408 
C 150.198108 141.0511 147.255482 139.832224 144.187616 139.832224 
C 141.119751 139.832224 138.177124 141.0511 136.007816 143.220408 
C 133.838508 145.389717 132.619632 148.332343 132.619632 151.400209 
C 132.619632 154.468074 133.838508 157.410701 136.007816 159.580009 
C 138.177124 161.749317 141.119751 162.968193 144.187616 162.968193 
z
" style="fill:#9558b2;fill-opacity:0.5;stroke:#9558b2;stroke-linejoin:miter;stroke-width:2;"/>
   </g>
   <g id="patch_10">
    <path clip-path="url(#p875cedd3e2)" d="M 190.459554 157.184201 
C 191.993487 157.184201 193.4648 156.574763 194.549454 155.490109 
C 195.634108 154.405455 196.243546 152.934141 196.243546 151.400209 
C 196.243546 149.866276 195.634108 148.394963 194.549454 147.310309 
C 193.4648 146.225654 191.993487 145.616216 190.459554 145.616216 
C 188.925621 145.616216 187.454308 146.225654 186.369654 147.310309 
C 185.285 148.394963 184.675562 149.866276 184.675562 151.400209 
C 184.675562 152.934141 185.285 154.405455 186.369654 155.490109 
C 187.454308 156.574763 188.925621 157.184201 190.459554 157.184201 
z
" style="fill:#009900;fill-opacity:0.5;stroke:#009900;stroke-linejoin:miter;stroke-width:2;"/>
   </g>
   <g id="patch_11">
    <path clip-path="url(#p875cedd3e2)" d="M 144.187616 116.696255 
C 147.255482 116.696255 150.198108 115.47738 152.367417 113.308071 
C 154.536725 111.138763 155.755601 108.196136 155.755601 105.128271 
C 155.755601 102.060406 154.536725 99.117779 152.367417 96.948471 
C 150.198108 94.779162 147.255482 93.560287 144.187616 93.560287 
C 141.119751 93.560287 138.177124 94.779162 136.007816 96.948471 
C 133.838508 99.117779 132.619632 102.060406 132.619632 105.128271 
C 132.619632 108.196136 133.838508 111.138763 136.007816 113.308071 
C 138.177124 115.47738 141.119751 116.696255 144.187616 116.696255 
z
" style="fill:#9558b2;fill-opacity:0.5;stroke:#9558b2;stroke-linejoin:miter;stroke-width:2;"/>
   </g>
   <g id="patch_12">
    <path clip-path="url(#p875cedd3e2)" d="M 190.459554 110.912263 
C 191.993487 110.912263 193.4648 110.302825 194.549454 109.218171 
C 195.634108 108.133517 196.243546 106.662204 196.243546 105.128271 
C 196.243546 103.594338 195.634108 102.123025 194.549454 101.038371 
C 193.4648 99.953717 191.993487 99.344279 190.459554 99.344279 
C 188.925621 99.344279 187.454308 99.953717 186.369654 101.038371 
C 185.285 102.123025 184.675562 103.594338 184.675562 105.128271 
C 184.675562 106.662204 185.285 108.133517 186.369654 109.218171 
C 187.454308 110.302825 188.925621 110.912263 190.459554 110.912263 
z
" style="fill:#009900;fill-opacity:0.5;stroke:#009900;stroke-linejoin:miter;stroke-width:2;"/>
   </g>
   <g id="patch_13">
    <path clip-path="url(#p875cedd3e2)" d="M 144.187616 70.424318 
C 147.255482 70.424318 150.198108 69.205442 152.367417 67.036134 
C 154.536725 64.866825 155.755601 61.924199 155.755601 58.856333 
C 155.755601 55.788468 154.536725 52.845842 152.367417 50.676533 
C 150.198108 48.507225 147.255482 47.288349 144.187616 47.288349 
C 141.119751 47.288349 138.177124 48.507225 136.007816 50.676533 
C 133.838508 52.845842 132.619632 55.788468 132.619632 58.856333 
C 132.619632 61.924199 133.838508 64.866825 136.007816 67.036134 
C 138.177124 69.205442 141.119751 70.424318 144.187616 70.424318 
z
" style="fill:#9558b2;fill-opacity:0.5;stroke:#9558b2;stroke-linejoin:miter;stroke-width:2;"/>
   </g>
   <g id="patch_14">
    <path clip-path="url(#p875cedd3e2)" d="M 190.459554 64.640326 
C 191.993487 64.640326 193.4648 64.030888 194.549454 62.946234 
C 195.634108 61.861579 196.243546 60.390266 196.243546 58.856333 
C 196.243546 57.322401 195.634108 55.851088 194.549454 54.766433 
C 193.4648 53.681779 191.993487 53.072341 190.459554 53.072341 
C 188.925621 53.072341 187.454308 53.681779 186.369654 54.766433 
C 185.285 55.851088 184.675562 57.322401 184.675562 58.856333 
C 184.675562 60.390266 185.285 61.861579 186.369654 62.946234 
C 187.454308 64.030888 188.925621 64.640326 190.459554 64.640326 
z
" style="fill:#009900;fill-opacity:0.5;stroke:#009900;stroke-linejoin:miter;stroke-width:2;"/>
   </g>
   <g id="patch_15">
    <path clip-path="url(#p875cedd3e2)" d="M 236.731492 301.784006 
C 239.799357 301.784006 242.741983 300.56513 244.911292 298.395822 
C 247.0806 296.226513 248.299476 293.283887 248.299476 290.216022 
C 248.299476 287.148156 247.0806 284.20553 244.911292 282.036221 
C 242.741983 279.866913 239.799357 278.648037 236.731492 278.648037 
C 233.663626 278.648037 230.721 279.866913 228.551691 282.036221 
C 226.382383 284.20553 225.163507 287.148156 225.163507 290.216022 
C 225.163507 293.283887 226.382383 296.226513 228.551691 298.395822 
C 230.721 300.56513 233.663626 301.784006 236.731492 301.784006 
z
" style="fill:#9558b2;fill-opacity:0.5;stroke:#9558b2;stroke-linejoin:miter;stroke-width:2;"/>
   </g>
   <g id="patch_16">
    <path clip-path="url(#p875cedd3e2)" d="M 283.003429 296.000014 
C 284.537362 296.000014 286.008675 295.390576 287.093329 294.305922 
C 288.177984 293.221268 288.787421 291.749954 288.787421 290.216022 
C 288.787421 288.682089 288.177984 287.210776 287.093329 286.126121 
C 286.008675 285.041467 284.537362 284.432029 283.003429 284.432029 
C 281.469497 284.432029 279.998183 285.041467 278.913529 286.126121 
C 277.828875 287.210776 277.219437 288.682089 277.219437 290.216022 
C 277.219437 291.749954 277.828875 293.221268 278.913529 294.305922 
C 279.998183 295.390576 281.469497 296.000014 283.003429 296.000014 
z
" style="fill:#009900;fill-opacity:0.5;stroke:#009900;stroke-linejoin:miter;stroke-width:2;"/>
   </g>
   <g id="patch_17">
    <path clip-path="url(#p875cedd3e2)" d="M 236.731492 255.512068 
C 239.799357 255.512068 242.741983 254.293193 244.911292 252.123884 
C 247.0806 249.954576 248.299476 247.011949 248.299476 243.944084 
C 248.299476 240.876219 247.0806 237.933592 244.911292 235.764284 
C 242.741983 233.594975 239.799357 232.3761 236.731492 232.3761 
C 233.663626 232.3761 230.721 233.594975 228.551691 235.764284 
C 226.382383 237.933592 225.163507 240.876219 225.163507 243.944084 
C 225.163507 247.011949 226.382383 249.954576 228.551691 252.123884 
C 230.721 254.293193 233.663626 255.512068 236.731492 255.512068 
z
" style="fill:#9558b2;fill-opacity:0.5;stroke:#9558b2;stroke-linejoin:miter;stroke-width:2;"/>
   </g>
   <g id="patch_18">
    <path clip-path="url(#p875cedd3e2)" d="M 283.003429 249.728076 
C 284.537362 249.728076 286.008675 249.118638 287.093329 248.033984 
C 288.177984 246.94933 288.787421 245.478017 288.787421 243.944084 
C 288.787421 242.410151 288.177984 240.938838 287.093329 239.854184 
C 286.008675 238.76953 284.537362 238.160092 283.003429 238.160092 
C 281.469497 238.160092 279.998183 238.76953 278.913529 239.854184 
C 277.828875 240.938838 277.219437 242.410151 277.219437 243.944084 
C 277.219437 245.478017 277.828875 246.94933 278.913529 248.033984 
C 279.998183 249.118638 281.469497 249.728076 283.003429 249.728076 
z
" style="fill:#009900;fill-opacity:0.5;stroke:#009900;stroke-linejoin:miter;stroke-width:2;"/>
   </g>
   <g id="patch_19">
    <path clip-path="url(#p875cedd3e2)" d="M 236.731492 209.240131 
C 239.799357 209.240131 242.741983 208.021255 244.911292 205.851947 
C 247.0806 203.682638 248.299476 200.740012 248.299476 197.672146 
C 248.299476 194.604281 247.0806 191.661654 244.911292 189.492346 
C 242.741983 187.323038 239.799357 186.104162 236.731492 186.104162 
C 233.663626 186.104162 230.721 187.323038 228.551691 189.492346 
C 226.382383 191.661654 225.163507 194.604281 225.163507 197.672146 
C 225.163507 200.740012 226.382383 203.682638 228.551691 205.851947 
C 230.721 208.021255 233.663626 209.240131 236.731492 209.240131 
z
" style="fill:#9558b2;fill-opacity:0.5;stroke:#9558b2;stroke-linejoin:miter;stroke-width:2;"/>
   </g>
   <g id="patch_20">
    <path clip-path="url(#p875cedd3e2)" d="M 283.003429 203.456139 
C 284.537362 203.456139 286.008675 202.846701 287.093329 201.762046 
C 288.177984 200.677392 288.787421 199.206079 288.787421 197.672146 
C 288.787421 196.138214 288.177984 194.6669 287.093329 193.582246 
C 286.008675 192.497592 284.537362 191.888154 283.003429 191.888154 
C 281.469497 191.888154 279.998183 192.497592 278.913529 193.582246 
C 277.828875 194.6669 277.219437 196.138214 277.219437 197.672146 
C 277.219437 199.206079 277.828875 200.677392 278.913529 201.762046 
C 279.998183 202.846701 281.469497 203.456139 283.003429 203.456139 
z
" style="fill:#009900;fill-opacity:0.5;stroke:#009900;stroke-linejoin:miter;stroke-width:2;"/>
   </g>
   <g id="patch_21">
    <path clip-path="url(#p875cedd3e2)" d="M 236.731492 162.968193 
C 239.799357 162.968193 242.741983 161.749317 244.911292 159.580009 
C 247.0806 157.410701 248.299476 154.468074 248.299476 151.400209 
C 248.299476 148.332343 247.0806 145.389717 244.911292 143.220408 
C 242.741983 141.0511 239.799357 139.832224 236.731492 139.832224 
C 233.663626 139.832224 230.721 141.0511 228.551691 143.220408 
C 226.382383 145.389717 225.163507 148.332343 225.163507 151.400209 
C 225.163507 154.468074 226.382383 157.410701 228.551691 159.580009 
C 230.721 161.749317 233.663626 162.968193 236.731492 162.968193 
z
" style="fill:#9558b2;fill-opacity:0.5;stroke:#9558b2;stroke-linejoin:miter;stroke-width:2;"/>
   </g>
   <g id="patch_22">
    <path clip-path="url(#p875cedd3e2)" d="M 283.003429 157.184201 
C 284.537362 157.184201 286.008675 156.574763 287.093329 155.490109 
C 288.177984 154.405455 288.787421 152.934141 288.787421 151.400209 
C 288.787421 149.866276 288.177984 148.394963 287.093329 147.310309 
C 286.008675 146.225654 284.537362 145.616216 283.003429 145.616216 
C 281.469497 145.616216 279.998183 146.225654 278.913529 147.310309 
C 277.828875 148.394963 277.219437 149.866276 277.219437 151.400209 
C 277.219437 152.934141 277.828875 154.405455 278.913529 155.490109 
C 279.998183 156.574763 281.469497 157.184201 283.003429 157.184201 
z
" style="fill:#009900;fill-opacity:0.5;stroke:#009900;stroke-linejoin:miter;stroke-width:2;"/>
   </g>
   <g id="patch_23">
    <path clip-path="url(#p875cedd3e2)" d="M 236.731492 116.696255 
C 239.799357 116.696255 242.741983 115.47738 244.911292 113.308071 
C 247.0806 111.138763 248.299476 108.196136 248.299476 105.128271 
C 248.299476 102.060406 247.0806 99.117779 244.911292 96.948471 
C 242.741983 94.779162 239.799357 93.560287 236.731492 93.560287 
C 233.663626 93.560287 230.721 94.779162 228.551691 96.948471 
C 226.382383 99.117779 225.163507 102.060406 225.163507 105.128271 
C 225.163507 108.196136 226.382383 111.138763 228.551691 113.308071 
C 230.721 115.47738 233.663626 116.696255 236.731492 116.696255 
z
" style="fill:#9558b2;fill-opacity:0.5;stroke:#9558b2;stroke-linejoin:miter;stroke-width:2;"/>
   </g>
   <g id="patch_24">
    <path clip-path="url(#p875cedd3e2)" d="M 283.003429 110.912263 
C 284.537362 110.912263 286.008675 110.302825 287.093329 109.218171 
C 288.177984 108.133517 288.787421 106.662204 288.787421 105.128271 
C 288.787421 103.594338 288.177984 102.123025 287.093329 101.038371 
C 286.008675 99.953717 284.537362 99.344279 283.003429 99.344279 
C 281.469497 99.344279 279.998183 99.953717 278.913529 101.038371 
C 277.828875 102.123025 277.219437 103.594338 277.219437 105.128271 
C 277.219437 106.662204 277.828875 108.133517 278.913529 109.218171 
C 279.998183 110.302825 281.469497 110.912263 283.003429 110.912263 
z
" style="fill:#009900;fill-opacity:0.5;stroke:#009900;stroke-linejoin:miter;stroke-width:2;"/>
   </g>
   <g id="patch_25">
    <path clip-path="url(#p875cedd3e2)" d="M 236.731492 70.424318 
C 239.799357 70.424318 242.741983 69.205442 244.911292 67.036134 
C 247.0806 64.866825 248.299476 61.924199 248.299476 58.856333 
C 248.299476 55.788468 247.0806 52.845842 244.911292 50.676533 
C 242.741983 48.507225 239.799357 47.288349 236.731492 47.288349 
C 233.663626 47.288349 230.721 48.507225 228.551691 50.676533 
C 226.382383 52.845842 225.163507 55.788468 225.163507 58.856333 
C 225.163507 61.924199 226.382383 64.866825 228.551691 67.036134 
C 230.721 69.205442 233.663626 70.424318 236.731492 70.424318 
z
" style="fill:#9558b2;fill-opacity:0.5;stroke:#9558b2;stroke-linejoin:miter;stroke-width:2;"/>
   </g>
   <g id="patch_26">
    <path clip-path="url(#p875cedd3e2)" d="M 283.003429 64.640326 
C 284.537362 64.640326 286.008675 64.030888 287.093329 62.946234 
C 288.177984 61.861579 288.787421 60.390266 288.787421 58.856333 
C 288.787421 57.322401 288.177984 55.851088 287.093329 54.766433 
C 286.008675 53.681779 284.537362 53.072341 283.003429 53.072341 
C 281.469497 53.072341 279.998183 53.681779 278.913529 54.766433 
C 277.828875 55.851088 277.219437 57.322401 277.219437 58.856333 
C 277.219437 60.390266 277.828875 61.861579 278.913529 62.946234 
C 279.998183 64.030888 281.469497 64.640326 283.003429 64.640326 
z
" style="fill:#009900;fill-opacity:0.5;stroke:#009900;stroke-linejoin:miter;stroke-width:2;"/>
   </g>
   <g id="patch_27">
    <path clip-path="url(#p875cedd3e2)" d="M 329.275367 301.784006 
C 332.343232 301.784006 335.285859 300.56513 337.455167 298.395822 
C 339.624475 296.226513 340.843351 293.283887 340.843351 290.216022 
C 340.843351 287.148156 339.624475 284.20553 337.455167 282.036221 
C 335.285859 279.866913 332.343232 278.648037 329.275367 278.648037 
C 326.207502 278.648037 323.264875 279.866913 321.095567 282.036221 
C 318.926258 284.20553 317.707382 287.148156 317.707382 290.216022 
C 317.707382 293.283887 318.926258 296.226513 321.095567 298.395822 
C 323.264875 300.56513 326.207502 301.784006 329.275367 301.784006 
z
" style="fill:#9558b2;fill-opacity:0.5;stroke:#9558b2;stroke-linejoin:miter;stroke-width:2;"/>
   </g>
   <g id="patch_28">
    <path clip-path="url(#p875cedd3e2)" d="M 375.547304 296.000014 
C 377.081237 296.000014 378.55255 295.390576 379.637205 294.305922 
C 380.721859 293.221268 381.331297 291.749954 381.331297 290.216022 
C 381.331297 288.682089 380.721859 287.210776 379.637205 286.126121 
C 378.55255 285.041467 377.081237 284.432029 375.547304 284.432029 
C 374.013372 284.432029 372.542059 285.041467 371.457404 286.126121 
C 370.37275 287.210776 369.763312 288.682089 369.763312 290.216022 
C 369.763312 291.749954 370.37275 293.221268 371.457404 294.305922 
C 372.542059 295.390576 374.013372 296.000014 375.547304 296.000014 
z
" style="fill:#009900;fill-opacity:0.5;stroke:#009900;stroke-linejoin:miter;stroke-width:2;"/>
   </g>
   <g id="patch_29">
    <path clip-path="url(#p875cedd3e2)" d="M 329.275367 255.512068 
C 332.343232 255.512068 335.285859 254.293193 337.455167 252.123884 
C 339.624475 249.954576 340.843351 247.011949 340.843351 243.944084 
C 340.843351 240.876219 339.624475 237.933592 337.455167 235.764284 
C 335.285859 233.594975 332.343232 232.3761 329.275367 232.3761 
C 326.207502 232.3761 323.264875 233.594975 321.095567 235.764284 
C 318.926258 237.933592 317.707382 240.876219 317.707382 243.944084 
C 317.707382 247.011949 318.926258 249.954576 321.095567 252.123884 
C 323.264875 254.293193 326.207502 255.512068 329.275367 255.512068 
z
" style="fill:#9558b2;fill-opacity:0.5;stroke:#9558b2;stroke-linejoin:miter;stroke-width:2;"/>
   </g>
   <g id="patch_30">
    <path clip-path="url(#p875cedd3e2)" d="M 375.547304 249.728076 
C 377.081237 249.728076 378.55255 249.118638 379.637205 248.033984 
C 380.721859 246.94933 381.331297 245.478017 381.331297 243.944084 
C 381.331297 242.410151 380.721859 240.938838 379.637205 239.854184 
C 378.55255 238.76953 377.081237 238.160092 375.547304 238.160092 
C 374.013372 238.160092 372.542059 238.76953 371.457404 239.854184 
C 370.37275 240.938838 369.763312 242.410151 369.763312 243.944084 
C 369.763312 245.478017 370.37275 246.94933 371.457404 248.033984 
C 372.542059 249.118638 374.013372 249.728076 375.547304 249.728076 
z
" style="fill:#009900;fill-opacity:0.5;stroke:#009900;stroke-linejoin:miter;stroke-width:2;"/>
   </g>
   <g id="patch_31">
    <path clip-path="url(#p875cedd3e2)" d="M 329.275367 209.240131 
C 332.343232 209.240131 335.285859 208.021255 337.455167 205.851947 
C 339.624475 203.682638 340.843351 200.740012 340.843351 197.672146 
C 340.843351 194.604281 339.624475 191.661654 337.455167 189.492346 
C 335.285859 187.323038 332.343232 186.104162 329.275367 186.104162 
C 326.207502 186.104162 323.264875 187.323038 321.095567 189.492346 
C 318.926258 191.661654 317.707382 194.604281 317.707382 197.672146 
C 317.707382 200.740012 318.926258 203.682638 321.095567 205.851947 
C 323.264875 208.021255 326.207502 209.240131 329.275367 209.240131 
z
" style="fill:#9558b2;fill-opacity:0.5;stroke:#9558b2;stroke-linejoin:miter;stroke-width:2;"/>
   </g>
   <g id="patch_32">
    <path clip-path="url(#p875cedd3e2)" d="M 375.547304 203.456139 
C 377.081237 203.456139 378.55255 202.846701 379.637205 201.762046 
C 380.721859 200.677392 381.331297 199.206079 381.331297 197.672146 
C 381.331297 196.138214 380.721859 194.6669 379.637205 193.582246 
C 378.55255 192.497592 377.081237 191.888154 375.547304 191.888154 
C 374.013372 191.888154 372.542059 192.497592 371.457404 193.582246 
C 370.37275 194.6669 369.763312 196.138214 369.763312 197.672146 
C 369.763312 199.206079 370.37275 200.677392 371.457404 201.762046 
C 372.542059 202.846701 374.013372 203.456139 375.547304 203.456139 
z
" style="fill:#009900;fill-opacity:0.5;stroke:#009900;stroke-linejoin:miter;stroke-width:2;"/>
   </g>
   <g id="patch_33">
    <path clip-path="url(#p875cedd3e2)" d="M 329.275367 162.968193 
C 332.343232 162.968193 335.285859 161.749317 337.455167 159.580009 
C 339.624475 157.410701 340.843351 154.468074 340.843351 151.400209 
C 340.843351 148.332343 339.624475 145.389717 337.455167 143.220408 
C 335.285859 141.0511 332.343232 139.832224 329.275367 139.832224 
C 326.207502 139.832224 323.264875 141.0511 321.095567 143.220408 
C 318.926258 145.389717 317.707382 148.332343 317.707382 151.400209 
C 317.707382 154.468074 318.926258 157.410701 321.095567 159.580009 
C 323.264875 161.749317 326.207502 162.968193 329.275367 162.968193 
z
" style="fill:#9558b2;fill-opacity:0.5;stroke:#9558b2;stroke-linejoin:miter;stroke-width:2;"/>
   </g>
   <g id="patch_34">
    <path clip-path="url(#p875cedd3e2)" d="M 375.547304 157.184201 
C 377.081237 157.184201 378.55255 156.574763 379.637205 155.490109 
C 380.721859 154.405455 381.331297 152.934141 381.331297 151.400209 
C 381.331297 149.866276 380.721859 148.394963 379.637205 147.310309 
C 378.55255 146.225654 377.081237 145.616216 375.547304 145.616216 
C 374.013372 145.616216 372.542059 146.225654 371.457404 147.310309 
C 370.37275 148.394963 369.763312 149.866276 369.763312 151.400209 
C 369.763312 152.934141 370.37275 154.405455 371.457404 155.490109 
C 372.542059 156.574763 374.013372 157.184201 375.547304 157.184201 
z
" style="fill:#009900;fill-opacity:0.5;stroke:#009900;stroke-linejoin:miter;stroke-width:2;"/>
   </g>
   <g id="patch_35">
    <path clip-path="url(#p875cedd3e2)" d="M 329.275367 116.696255 
C 332.343232 116.696255 335.285859 115.47738 337.455167 113.308071 
C 339.624475 111.138763 340.843351 108.196136 340.843351 105.128271 
C 340.843351 102.060406 339.624475 99.117779 337.455167 96.948471 
C 335.285859 94.779162 332.343232 93.560287 329.275367 93.560287 
C 326.207502 93.560287 323.264875 94.779162 321.095567 96.948471 
C 318.926258 99.117779 317.707382 102.060406 317.707382 105.128271 
C 317.707382 108.196136 318.926258 111.138763 321.095567 113.308071 
C 323.264875 115.47738 326.207502 116.696255 329.275367 116.696255 
z
" style="fill:#9558b2;fill-opacity:0.5;stroke:#9558b2;stroke-linejoin:miter;stroke-width:2;"/>
   </g>
   <g id="patch_36">
    <path clip-path="url(#p875cedd3e2)" d="M 375.547304 110.912263 
C 377.081237 110.912263 378.55255 110.302825 379.637205 109.218171 
C 380.721859 108.133517 381.331297 106.662204 381.331297 105.128271 
C 381.331297 103.594338 380.721859 102.123025 379.637205 101.038371 
C 378.55255 99.953717 377.081237 99.344279 375.547304 99.344279 
C 374.013372 99.344279 372.542059 99.953717 371.457404 101.038371 
C 370.37275 102.123025 369.763312 103.594338 369.763312 105.128271 
C 369.763312 106.662204 370.37275 108.133517 371.457404 109.218171 
C 372.542059 110.302825 374.013372 110.912263 375.547304 110.912263 
z
" style="fill:#009900;fill-opacity:0.5;stroke:#009900;stroke-linejoin:miter;stroke-width:2;"/>
   </g>
   <g id="patch_37">
    <path clip-path="url(#p875cedd3e2)" d="M 329.275367 70.424318 
C 332.343232 70.424318 335.285859 69.205442 337.455167 67.036134 
C 339.624475 64.866825 340.843351 61.924199 340.843351 58.856333 
C 340.843351 55.788468 339.624475 52.845842 337.455167 50.676533 
C 335.285859 48.507225 332.343232 47.288349 329.275367 47.288349 
C 326.207502 47.288349 323.264875 48.507225 321.095567 50.676533 
C 318.926258 52.845842 317.707382 55.788468 317.707382 58.856333 
C 317.707382 61.924199 318.926258 64.866825 321.095567 67.036134 
C 323.264875 69.205442 326.207502 70.424318 329.275367 70.424318 
z
" style="fill:#9558b2;fill-opacity:0.5;stroke:#9558b2;stroke-linejoin:miter;stroke-width:2;"/>
   </g>
   <g id="patch_38">
    <path clip-path="url(#p875cedd3e2)" d="M 375.547304 64.640326 
C 377.081237 64.640326 378.55255 64.030888 379.637205 62.946234 
C 380.721859 61.861579 381.331297 60.390266 381.331297 58.856333 
C 381.331297 57.322401 380.721859 55.851088 379.637205 54.766433 
C 378.55255 53.681779 377.081237 53.072341 375.547304 53.072341 
C 374.013372 53.072341 372.542059 53.681779 371.457404 54.766433 
C 370.37275 55.851088 369.763312 57.322401 369.763312 58.856333 
C 369.763312 60.390266 370.37275 61.861579 371.457404 62.946234 
C 372.542059 64.030888 374.013372 64.640326 375.547304 64.640326 
z
" style="fill:#009900;fill-opacity:0.5;stroke:#009900;stroke-linejoin:miter;stroke-width:2;"/>
   </g>
   <g id="matplotlib.axis_1">
    <g id="xtick_1">
     <g id="line2d_1">
      <defs>
       <path d="M 0 0 
L 0 3.5 
" id="me0d9d912af" style="stroke:#000000;stroke-width:0.8;"/>
      </defs>
      <g>
       <use style="stroke:#000000;stroke-width:0.8;" x="121.051648" xlink:href="#me0d9d912af" y="307.584"/>
      </g>
     </g>
     <g id="text_1">
      <!-- 0 -->
      <defs>
       <path d="M 31.78125 66.40625 
Q 24.171875 66.40625 20.328125 58.90625 
Q 16.5 51.421875 16.5 36.375 
Q 16.5 21.390625 20.328125 13.890625 
Q 24.171875 6.390625 31.78125 6.390625 
Q 39.453125 6.390625 43.28125 13.890625 
Q 47.125 21.390625 47.125 36.375 
Q 47.125 51.421875 43.28125 58.90625 
Q 39.453125 66.40625 31.78125 66.40625 
z
M 31.78125 74.21875 
Q 44.046875 74.21875 50.515625 64.515625 
Q 56.984375 54.828125 56.984375 36.375 
Q 56.984375 17.96875 50.515625 8.265625 
Q 44.046875 -1.421875 31.78125 -1.421875 
Q 19.53125 -1.421875 13.0625 8.265625 
Q 6.59375 17.96875 6.59375 36.375 
Q 6.59375 54.828125 13.0625 64.515625 
Q 19.53125 74.21875 31.78125 74.21875 
z
" id="DejaVuSans-30"/>
      </defs>
      <g transform="translate(117.870398 322.182437)scale(0.1 -0.1)">
       <use xlink:href="#DejaVuSans-30"/>
      </g>
     </g>
    </g>
    <g id="xtick_2">
     <g id="line2d_2">
      <g>
       <use style="stroke:#000000;stroke-width:0.8;" x="167.323585" xlink:href="#me0d9d912af" y="307.584"/>
      </g>
     </g>
     <g id="text_2">
      <!-- 1 -->
      <defs>
       <path d="M 12.40625 8.296875 
L 28.515625 8.296875 
L 28.515625 63.921875 
L 10.984375 60.40625 
L 10.984375 69.390625 
L 28.421875 72.90625 
L 38.28125 72.90625 
L 38.28125 8.296875 
L 54.390625 8.296875 
L 54.390625 0 
L 12.40625 0 
z
" id="DejaVuSans-31"/>
      </defs>
      <g transform="translate(164.142335 322.182437)scale(0.1 -0.1)">
       <use xlink:href="#DejaVuSans-31"/>
      </g>
     </g>
    </g>
    <g id="xtick_3">
     <g id="line2d_3">
      <g>
       <use style="stroke:#000000;stroke-width:0.8;" x="213.595523" xlink:href="#me0d9d912af" y="307.584"/>
      </g>
     </g>
     <g id="text_3">
      <!-- 2 -->
      <defs>
       <path d="M 19.1875 8.296875 
L 53.609375 8.296875 
L 53.609375 0 
L 7.328125 0 
L 7.328125 8.296875 
Q 12.9375 14.109375 22.625 23.890625 
Q 32.328125 33.6875 34.8125 36.53125 
Q 39.546875 41.84375 41.421875 45.53125 
Q 43.3125 49.21875 43.3125 52.78125 
Q 43.3125 58.59375 39.234375 62.25 
Q 35.15625 65.921875 28.609375 65.921875 
Q 23.96875 65.921875 18.8125 64.3125 
Q 13.671875 62.703125 7.8125 59.421875 
L 7.8125 69.390625 
Q 13.765625 71.78125 18.9375 73 
Q 24.125 74.21875 28.421875 74.21875 
Q 39.75 74.21875 46.484375 68.546875 
Q 53.21875 62.890625 53.21875 53.421875 
Q 53.21875 48.921875 51.53125 44.890625 
Q 49.859375 40.875 45.40625 35.40625 
Q 44.1875 33.984375 37.640625 27.21875 
Q 31.109375 20.453125 19.1875 8.296875 
z
" id="DejaVuSans-32"/>
      </defs>
      <g transform="translate(210.414273 322.182437)scale(0.1 -0.1)">
       <use xlink:href="#DejaVuSans-32"/>
      </g>
     </g>
    </g>
    <g id="xtick_4">
     <g id="line2d_4">
      <g>
       <use style="stroke:#000000;stroke-width:0.8;" x="259.86746" xlink:href="#me0d9d912af" y="307.584"/>
      </g>
     </g>
     <g id="text_4">
      <!-- 3 -->
      <defs>
       <path d="M 40.578125 39.3125 
Q 47.65625 37.796875 51.625 33 
Q 55.609375 28.21875 55.609375 21.1875 
Q 55.609375 10.40625 48.1875 4.484375 
Q 40.765625 -1.421875 27.09375 -1.421875 
Q 22.515625 -1.421875 17.65625 -0.515625 
Q 12.796875 0.390625 7.625 2.203125 
L 7.625 11.71875 
Q 11.71875 9.328125 16.59375 8.109375 
Q 21.484375 6.890625 26.8125 6.890625 
Q 36.078125 6.890625 40.9375 10.546875 
Q 45.796875 14.203125 45.796875 21.1875 
Q 45.796875 27.640625 41.28125 31.265625 
Q 36.765625 34.90625 28.71875 34.90625 
L 20.21875 34.90625 
L 20.21875 43.015625 
L 29.109375 43.015625 
Q 36.375 43.015625 40.234375 45.921875 
Q 44.09375 48.828125 44.09375 54.296875 
Q 44.09375 59.90625 40.109375 62.90625 
Q 36.140625 65.921875 28.71875 65.921875 
Q 24.65625 65.921875 20.015625 65.03125 
Q 15.375 64.15625 9.8125 62.3125 
L 9.8125 71.09375 
Q 15.4375 72.65625 20.34375 73.4375 
Q 25.25 74.21875 29.59375 74.21875 
Q 40.828125 74.21875 47.359375 69.109375 
Q 53.90625 64.015625 53.90625 55.328125 
Q 53.90625 49.265625 50.4375 45.09375 
Q 46.96875 40.921875 40.578125 39.3125 
z
" id="DejaVuSans-33"/>
      </defs>
      <g transform="translate(256.68621 322.182437)scale(0.1 -0.1)">
       <use xlink:href="#DejaVuSans-33"/>
      </g>
     </g>
    </g>
    <g id="xtick_5">
     <g id="line2d_5">
      <g>
       <use style="stroke:#000000;stroke-width:0.8;" x="306.139398" xlink:href="#me0d9d912af" y="307.584"/>
      </g>
     </g>
     <g id="text_5">
      <!-- 4 -->
      <defs>
       <path d="M 37.796875 64.3125 
L 12.890625 25.390625 
L 37.796875 25.390625 
z
M 35.203125 72.90625 
L 47.609375 72.90625 
L 47.609375 25.390625 
L 58.015625 25.390625 
L 58.015625 17.1875 
L 47.609375 17.1875 
L 47.609375 0 
L 37.796875 0 
L 37.796875 17.1875 
L 4.890625 17.1875 
L 4.890625 26.703125 
z
" id="DejaVuSans-34"/>
      </defs>
      <g transform="translate(302.958148 322.182437)scale(0.1 -0.1)">
       <use xlink:href="#DejaVuSans-34"/>
      </g>
     </g>
    </g>
    <g id="xtick_6">
     <g id="line2d_6">
      <g>
       <use style="stroke:#000000;stroke-width:0.8;" x="352.411336" xlink:href="#me0d9d912af" y="307.584"/>
      </g>
     </g>
     <g id="text_6">
      <!-- 5 -->
      <defs>
       <path d="M 10.796875 72.90625 
L 49.515625 72.90625 
L 49.515625 64.59375 
L 19.828125 64.59375 
L 19.828125 46.734375 
Q 21.96875 47.46875 24.109375 47.828125 
Q 26.265625 48.1875 28.421875 48.1875 
Q 40.625 48.1875 47.75 41.5 
Q 54.890625 34.8125 54.890625 23.390625 
Q 54.890625 11.625 47.5625 5.09375 
Q 40.234375 -1.421875 26.90625 -1.421875 
Q 22.3125 -1.421875 17.546875 -0.640625 
Q 12.796875 0.140625 7.71875 1.703125 
L 7.71875 11.625 
Q 12.109375 9.234375 16.796875 8.0625 
Q 21.484375 6.890625 26.703125 6.890625 
Q 35.15625 6.890625 40.078125 11.328125 
Q 45.015625 15.765625 45.015625 23.390625 
Q 45.015625 31 40.078125 35.4375 
Q 35.15625 39.890625 26.703125 39.890625 
Q 22.75 39.890625 18.8125 39.015625 
Q 14.890625 38.140625 10.796875 36.28125 
z
" id="DejaVuSans-35"/>
      </defs>
      <g transform="translate(349.230086 322.182437)scale(0.1 -0.1)">
       <use xlink:href="#DejaVuSans-35"/>
      </g>
     </g>
    </g>
   </g>
   <g id="matplotlib.axis_2">
    <g id="ytick_1">
     <g id="line2d_7">
      <defs>
       <path d="M 0 0 
L -3.5 0 
" id="m7220e199f1" style="stroke:#000000;stroke-width:0.8;"/>
      </defs>
      <g>
       <use style="stroke:#000000;stroke-width:0.8;" x="105.342804" xlink:href="#m7220e199f1" y="267.080053"/>
      </g>
     </g>
     <g id="text_7">
      <!-- 0 -->
      <g transform="translate(91.980304 270.879272)scale(0.1 -0.1)">
       <use xlink:href="#DejaVuSans-30"/>
      </g>
     </g>
    </g>
    <g id="ytick_2">
     <g id="line2d_8">
      <g>
       <use style="stroke:#000000;stroke-width:0.8;" x="105.342804" xlink:href="#m7220e199f1" y="220.808115"/>
      </g>
     </g>
     <g id="text_8">
      <!-- 1 -->
      <g transform="translate(91.980304 224.607334)scale(0.1 -0.1)">
       <use xlink:href="#DejaVuSans-31"/>
      </g>
     </g>
    </g>
    <g id="ytick_3">
     <g id="line2d_9">
      <g>
       <use style="stroke:#000000;stroke-width:0.8;" x="105.342804" xlink:href="#m7220e199f1" y="174.536178"/>
      </g>
     </g>
     <g id="text_9">
      <!-- 2 -->
      <g transform="translate(91.980304 178.335396)scale(0.1 -0.1)">
       <use xlink:href="#DejaVuSans-32"/>
      </g>
     </g>
    </g>
    <g id="ytick_4">
     <g id="line2d_10">
      <g>
       <use style="stroke:#000000;stroke-width:0.8;" x="105.342804" xlink:href="#m7220e199f1" y="128.26424"/>
      </g>
     </g>
     <g id="text_10">
      <!-- 3 -->
      <g transform="translate(91.980304 132.063459)scale(0.1 -0.1)">
       <use xlink:href="#DejaVuSans-33"/>
      </g>
     </g>
    </g>
    <g id="ytick_5">
     <g id="line2d_11">
      <g>
       <use style="stroke:#000000;stroke-width:0.8;" x="105.342804" xlink:href="#m7220e199f1" y="81.992302"/>
      </g>
     </g>
     <g id="text_11">
      <!-- 4 -->
      <g transform="translate(91.980304 85.791521)scale(0.1 -0.1)">
       <use xlink:href="#DejaVuSans-34"/>
      </g>
     </g>
    </g>
   </g>
   <g id="line2d_12">
    <path clip-path="url(#p875cedd3e2)" d="M 206.051161 224.391081 
L 230.543133 161.173769 
L 229.84355 188.378357 
L 279.731472 109.897848 
L 248.245713 152.514195 
L 279.590248 193.00259 
L 191.070501 64.607969 
L 155.69296 150.197989 
L 320.705258 282.446112 
L 281.382334 203.224319 
L 151.614742 281.347196 
L 280.344072 202.808525 
L 282.733863 238.166377 
L 281.836506 203.337202 
L 245.339704 282.488348 
L 318.476325 239.79692 
L 283.433374 284.448031 
L 240.375536 208.651181 
L 318.069666 241.07171 
L 247.776751 108.566367 
L 281.331045 238.407145 
" style="fill:none;stroke:#1f77b4;stroke-linecap:square;stroke-width:1.5;"/>
   </g>
   <g id="patch_39">
    <path d="M 105.342804 307.584 
L 105.342804 41.472 
" style="fill:none;stroke:#000000;stroke-linecap:square;stroke-linejoin:miter;stroke-width:0.8;"/>
   </g>
   <g id="patch_40">
    <path d="M 366.977196 307.584 
L 366.977196 41.472 
" style="fill:none;stroke:#000000;stroke-linecap:square;stroke-linejoin:miter;stroke-width:0.8;"/>
   </g>
   <g id="patch_41">
    <path d="M 105.342804 307.584 
L 366.977196 307.584 
" style="fill:none;stroke:#000000;stroke-linecap:square;stroke-linejoin:miter;stroke-width:0.8;"/>
   </g>
   <g id="patch_42">
    <path d="M 105.342804 41.472 
L 366.977196 41.472 
" style="fill:none;stroke:#000000;stroke-linecap:square;stroke-linejoin:miter;stroke-width:0.8;"/>
   </g>
  </g>
 </g>
 <defs>
  <clipPath id="p875cedd3e2">
   <rect height="266.112" width="261.634391" x="105.342804" y="41.472"/>
  </clipPath>
 </defs>
</svg>
