<?xml version="1.0" encoding="utf-8" standalone="no"?>
<!DOCTYPE svg PUBLIC "-//W3C//DTD SVG 1.1//EN"
  "http://www.w3.org/Graphics/SVG/1.1/DTD/svg11.dtd">
<!-- Created with matplotlib (http://matplotlib.org/) -->
<svg height="345.6pt" version="1.1" viewBox="0 0 460.8 345.6" width="460.8pt" xmlns="http://www.w3.org/2000/svg" xmlns:xlink="http://www.w3.org/1999/xlink">
 <defs>
  <style type="text/css">
*{stroke-linecap:butt;stroke-linejoin:round;}
  </style>
 </defs>
 <g id="figure_1">
  <g id="patch_1">
   <path d="M 0 345.6 
L 460.8 345.6 
L 460.8 0 
L 0 0 
z
" style="fill:#ffffff;"/>
  </g>
  <g id="axes_1">
   <g id="patch_2">
    <path d="M 57.6 263.808 
L 414.72 263.808 
L 414.72 85.248 
L 57.6 85.248 
z
" style="fill:#ffffff;"/>
   </g>
   <g id="PathCollection_1">
    <defs>
     <path d="M 0 3 
C 0.795609 3 1.55874 2.683901 2.12132 2.12132 
C 2.683901 1.55874 3 0.795609 3 0 
C 3 -0.795609 2.683901 -1.55874 2.12132 -2.12132 
C 1.55874 -2.683901 0.795609 -3 0 -3 
C -0.795609 -3 -1.55874 -2.683901 -2.12132 -2.12132 
C -2.683901 -1.55874 -3 -0.795609 -3 0 
C -3 0.795609 -2.683901 1.55874 -2.12132 2.12132 
C -1.55874 2.683901 -0.795609 3 0 3 
z
" id="m32e012606c" style="stroke:#000000;"/>
    </defs>
    <g clip-path="url(#p632e4afcf0)">
     <use style="stroke:#000000;" x="398.10011" xlink:href="#m32e012606c" y="114.571537"/>
    </g>
   </g>
   <g id="PathCollection_2">
    <defs>
     <path d="M 0 2.738613 
C 0.726289 2.738613 1.422928 2.450055 1.936492 1.936492 
C 2.450055 1.422928 2.738613 0.726289 2.738613 0 
C 2.738613 -0.726289 2.450055 -1.422928 1.936492 -1.936492 
C 1.422928 -2.450055 0.726289 -2.738613 0 -2.738613 
C -0.726289 -2.738613 -1.422928 -2.450055 -1.936492 -1.936492 
C -2.450055 -1.422928 -2.738613 -0.726289 -2.738613 0 
C -2.738613 0.726289 -2.450055 1.422928 -1.936492 1.936492 
C -1.422928 2.450055 -0.726289 2.738613 0 2.738613 
z
" id="m120f352034" style="stroke:#000000;"/>
    </defs>
    <g clip-path="url(#p632e4afcf0)">
     <use style="stroke:#000000;" x="286.382737" xlink:href="#m120f352034" y="237.674416"/>
    </g>
   </g>
   <g id="Quiver_1">
    <path clip-path="url(#p632e4afcf0)" d="M 285.999027 238.480554 
L 267.457852 229.655226 
L 267.49657 231.651212 
L 260.586319 225.395699 
L 269.798829 226.814384 
L 268.225272 228.04295 
L 286.766447 236.868278 
L 285.999027 238.480554 
"/>
   </g>
   <g id="patch_3">
    <path clip-path="url(#p632e4afcf0)" d="M 75.456 254.88 
C 77.823733 254.88 80.094809 253.93929 81.769049 252.265049 
C 83.44329 250.590809 84.384 248.319733 84.384 245.952 
C 84.384 243.584267 83.44329 241.313191 81.769049 239.638951 
C 80.094809 237.96471 77.823733 237.024 75.456 237.024 
C 73.088267 237.024 70.817191 237.96471 69.142951 239.638951 
C 67.46871 241.313191 66.528 243.584267 66.528 245.952 
C 66.528 248.319733 67.46871 250.590809 69.142951 252.265049 
C 70.817191 253.93929 73.088267 254.88 75.456 254.88 
z
" style="fill:#9558b2;fill-opacity:0.5;stroke:#9558b2;stroke-linejoin:miter;stroke-width:2;"/>
   </g>
   <g id="patch_4">
    <path clip-path="url(#p632e4afcf0)" d="M 111.168 250.416 
C 112.351867 250.416 113.487405 249.945645 114.324525 249.108525 
C 115.161645 248.271405 115.632 247.135867 115.632 245.952 
C 115.632 244.768133 115.161645 243.632595 114.324525 242.795475 
C 113.487405 241.958355 112.351867 241.488 111.168 241.488 
C 109.984133 241.488 108.848595 241.958355 108.011475 242.795475 
C 107.174355 243.632595 106.704 244.768133 106.704 245.952 
C 106.704 247.135867 107.174355 248.271405 108.011475 249.108525 
C 108.848595 249.945645 109.984133 250.416 111.168 250.416 
z
" style="fill:#009900;fill-opacity:0.5;stroke:#009900;stroke-linejoin:miter;stroke-width:2;"/>
   </g>
   <g id="patch_5">
    <path clip-path="url(#p632e4afcf0)" d="M 75.456 219.168 
C 77.823733 219.168 80.094809 218.22729 81.769049 216.553049 
C 83.44329 214.878809 84.384 212.607733 84.384 210.24 
C 84.384 207.872267 83.44329 205.601191 81.769049 203.926951 
C 80.094809 202.25271 77.823733 201.312 75.456 201.312 
C 73.088267 201.312 70.817191 202.25271 69.142951 203.926951 
C 67.46871 205.601191 66.528 207.872267 66.528 210.24 
C 66.528 212.607733 67.46871 214.878809 69.142951 216.553049 
C 70.817191 218.22729 73.088267 219.168 75.456 219.168 
z
" style="fill:#9558b2;fill-opacity:0.5;stroke:#9558b2;stroke-linejoin:miter;stroke-width:2;"/>
   </g>
   <g id="patch_6">
    <path clip-path="url(#p632e4afcf0)" d="M 111.168 214.704 
C 112.351867 214.704 113.487405 214.233645 114.324525 213.396525 
C 115.161645 212.559405 115.632 211.423867 115.632 210.24 
C 115.632 209.056133 115.161645 207.920595 114.324525 207.083475 
C 113.487405 206.246355 112.351867 205.776 111.168 205.776 
C 109.984133 205.776 108.848595 206.246355 108.011475 207.083475 
C 107.174355 207.920595 106.704 209.056133 106.704 210.24 
C 106.704 211.423867 107.174355 212.559405 108.011475 213.396525 
C 108.848595 214.233645 109.984133 214.704 111.168 214.704 
z
" style="fill:#009900;fill-opacity:0.5;stroke:#009900;stroke-linejoin:miter;stroke-width:2;"/>
   </g>
   <g id="patch_7">
    <path clip-path="url(#p632e4afcf0)" d="M 75.456 183.456 
C 77.823733 183.456 80.094809 182.51529 81.769049 180.841049 
C 83.44329 179.166809 84.384 176.895733 84.384 174.528 
C 84.384 172.160267 83.44329 169.889191 81.769049 168.214951 
C 80.094809 166.54071 77.823733 165.6 75.456 165.6 
C 73.088267 165.6 70.817191 166.54071 69.142951 168.214951 
C 67.46871 169.889191 66.528 172.160267 66.528 174.528 
C 66.528 176.895733 67.46871 179.166809 69.142951 180.841049 
C 70.817191 182.51529 73.088267 183.456 75.456 183.456 
z
" style="fill:#9558b2;fill-opacity:0.5;stroke:#9558b2;stroke-linejoin:miter;stroke-width:2;"/>
   </g>
   <g id="patch_8">
    <path clip-path="url(#p632e4afcf0)" d="M 111.168 178.992 
C 112.351867 178.992 113.487405 178.521645 114.324525 177.684525 
C 115.161645 176.847405 115.632 175.711867 115.632 174.528 
C 115.632 173.344133 115.161645 172.208595 114.324525 171.371475 
C 113.487405 170.534355 112.351867 170.064 111.168 170.064 
C 109.984133 170.064 108.848595 170.534355 108.011475 171.371475 
C 107.174355 172.208595 106.704 173.344133 106.704 174.528 
C 106.704 175.711867 107.174355 176.847405 108.011475 177.684525 
C 108.848595 178.521645 109.984133 178.992 111.168 178.992 
z
" style="fill:#009900;fill-opacity:0.5;stroke:#009900;stroke-linejoin:miter;stroke-width:2;"/>
   </g>
   <g id="patch_9">
    <path clip-path="url(#p632e4afcf0)" d="M 75.456 147.744 
C 77.823733 147.744 80.094809 146.80329 81.769049 145.129049 
C 83.44329 143.454809 84.384 141.183733 84.384 138.816 
C 84.384 136.448267 83.44329 134.177191 81.769049 132.502951 
C 80.094809 130.82871 77.823733 129.888 75.456 129.888 
C 73.088267 129.888 70.817191 130.82871 69.142951 132.502951 
C 67.46871 134.177191 66.528 136.448267 66.528 138.816 
C 66.528 141.183733 67.46871 143.454809 69.142951 145.129049 
C 70.817191 146.80329 73.088267 147.744 75.456 147.744 
z
" style="fill:#9558b2;fill-opacity:0.5;stroke:#9558b2;stroke-linejoin:miter;stroke-width:2;"/>
   </g>
   <g id="patch_10">
    <path clip-path="url(#p632e4afcf0)" d="M 111.168 143.28 
C 112.351867 143.28 113.487405 142.809645 114.324525 141.972525 
C 115.161645 141.135405 115.632 139.999867 115.632 138.816 
C 115.632 137.632133 115.161645 136.496595 114.324525 135.659475 
C 113.487405 134.822355 112.351867 134.352 111.168 134.352 
C 109.984133 134.352 108.848595 134.822355 108.011475 135.659475 
C 107.174355 136.496595 106.704 137.632133 106.704 138.816 
C 106.704 139.999867 107.174355 141.135405 108.011475 141.972525 
C 108.848595 142.809645 109.984133 143.28 111.168 143.28 
z
" style="fill:#009900;fill-opacity:0.5;stroke:#009900;stroke-linejoin:miter;stroke-width:2;"/>
   </g>
   <g id="patch_11">
    <path clip-path="url(#p632e4afcf0)" d="M 75.456 112.032 
C 77.823733 112.032 80.094809 111.09129 81.769049 109.417049 
C 83.44329 107.742809 84.384 105.471733 84.384 103.104 
C 84.384 100.736267 83.44329 98.465191 81.769049 96.790951 
C 80.094809 95.11671 77.823733 94.176 75.456 94.176 
C 73.088267 94.176 70.817191 95.11671 69.142951 96.790951 
C 67.46871 98.465191 66.528 100.736267 66.528 103.104 
C 66.528 105.471733 67.46871 107.742809 69.142951 109.417049 
C 70.817191 111.09129 73.088267 112.032 75.456 112.032 
z
" style="fill:#9558b2;fill-opacity:0.5;stroke:#9558b2;stroke-linejoin:miter;stroke-width:2;"/>
   </g>
   <g id="patch_12">
    <path clip-path="url(#p632e4afcf0)" d="M 111.168 107.568 
C 112.351867 107.568 113.487405 107.097645 114.324525 106.260525 
C 115.161645 105.423405 115.632 104.287867 115.632 103.104 
C 115.632 101.920133 115.161645 100.784595 114.324525 99.947475 
C 113.487405 99.110355 112.351867 98.64 111.168 98.64 
C 109.984133 98.64 108.848595 99.110355 108.011475 99.947475 
C 107.174355 100.784595 106.704 101.920133 106.704 103.104 
C 106.704 104.287867 107.174355 105.423405 108.011475 106.260525 
C 108.848595 107.097645 109.984133 107.568 111.168 107.568 
z
" style="fill:#009900;fill-opacity:0.5;stroke:#009900;stroke-linejoin:miter;stroke-width:2;"/>
   </g>
   <g id="patch_13">
    <path clip-path="url(#p632e4afcf0)" d="M 146.88 254.88 
C 149.247733 254.88 151.518809 253.93929 153.193049 252.265049 
C 154.86729 250.590809 155.808 248.319733 155.808 245.952 
C 155.808 243.584267 154.86729 241.313191 153.193049 239.638951 
C 151.518809 237.96471 149.247733 237.024 146.88 237.024 
C 144.512267 237.024 142.241191 237.96471 140.566951 239.638951 
C 138.89271 241.313191 137.952 243.584267 137.952 245.952 
C 137.952 248.319733 138.89271 250.590809 140.566951 252.265049 
C 142.241191 253.93929 144.512267 254.88 146.88 254.88 
z
" style="fill:#9558b2;fill-opacity:0.5;stroke:#9558b2;stroke-linejoin:miter;stroke-width:2;"/>
   </g>
   <g id="patch_14">
    <path clip-path="url(#p632e4afcf0)" d="M 182.592 250.416 
C 183.775867 250.416 184.911405 249.945645 185.748525 249.108525 
C 186.585645 248.271405 187.056 247.135867 187.056 245.952 
C 187.056 244.768133 186.585645 243.632595 185.748525 242.795475 
C 184.911405 241.958355 183.775867 241.488 182.592 241.488 
C 181.408133 241.488 180.272595 241.958355 179.435475 242.795475 
C 178.598355 243.632595 178.128 244.768133 178.128 245.952 
C 178.128 247.135867 178.598355 248.271405 179.435475 249.108525 
C 180.272595 249.945645 181.408133 250.416 182.592 250.416 
z
" style="fill:#009900;fill-opacity:0.5;stroke:#009900;stroke-linejoin:miter;stroke-width:2;"/>
   </g>
   <g id="patch_15">
    <path clip-path="url(#p632e4afcf0)" d="M 146.88 219.168 
C 149.247733 219.168 151.518809 218.22729 153.193049 216.553049 
C 154.86729 214.878809 155.808 212.607733 155.808 210.24 
C 155.808 207.872267 154.86729 205.601191 153.193049 203.926951 
C 151.518809 202.25271 149.247733 201.312 146.88 201.312 
C 144.512267 201.312 142.241191 202.25271 140.566951 203.926951 
C 138.89271 205.601191 137.952 207.872267 137.952 210.24 
C 137.952 212.607733 138.89271 214.878809 140.566951 216.553049 
C 142.241191 218.22729 144.512267 219.168 146.88 219.168 
z
" style="fill:#9558b2;fill-opacity:0.5;stroke:#9558b2;stroke-linejoin:miter;stroke-width:2;"/>
   </g>
   <g id="patch_16">
    <path clip-path="url(#p632e4afcf0)" d="M 182.592 214.704 
C 183.775867 214.704 184.911405 214.233645 185.748525 213.396525 
C 186.585645 212.559405 187.056 211.423867 187.056 210.24 
C 187.056 209.056133 186.585645 207.920595 185.748525 207.083475 
C 184.911405 206.246355 183.775867 205.776 182.592 205.776 
C 181.408133 205.776 180.272595 206.246355 179.435475 207.083475 
C 178.598355 207.920595 178.128 209.056133 178.128 210.24 
C 178.128 211.423867 178.598355 212.559405 179.435475 213.396525 
C 180.272595 214.233645 181.408133 214.704 182.592 214.704 
z
" style="fill:#009900;fill-opacity:0.5;stroke:#009900;stroke-linejoin:miter;stroke-width:2;"/>
   </g>
   <g id="patch_17">
    <path clip-path="url(#p632e4afcf0)" d="M 146.88 183.456 
C 149.247733 183.456 151.518809 182.51529 153.193049 180.841049 
C 154.86729 179.166809 155.808 176.895733 155.808 174.528 
C 155.808 172.160267 154.86729 169.889191 153.193049 168.214951 
C 151.518809 166.54071 149.247733 165.6 146.88 165.6 
C 144.512267 165.6 142.241191 166.54071 140.566951 168.214951 
C 138.89271 169.889191 137.952 172.160267 137.952 174.528 
C 137.952 176.895733 138.89271 179.166809 140.566951 180.841049 
C 142.241191 182.51529 144.512267 183.456 146.88 183.456 
z
" style="fill:#9558b2;fill-opacity:0.5;stroke:#9558b2;stroke-linejoin:miter;stroke-width:2;"/>
   </g>
   <g id="patch_18">
    <path clip-path="url(#p632e4afcf0)" d="M 182.592 178.992 
C 183.775867 178.992 184.911405 178.521645 185.748525 177.684525 
C 186.585645 176.847405 187.056 175.711867 187.056 174.528 
C 187.056 173.344133 186.585645 172.208595 185.748525 171.371475 
C 184.911405 170.534355 183.775867 170.064 182.592 170.064 
C 181.408133 170.064 180.272595 170.534355 179.435475 171.371475 
C 178.598355 172.208595 178.128 173.344133 178.128 174.528 
C 178.128 175.711867 178.598355 176.847405 179.435475 177.684525 
C 180.272595 178.521645 181.408133 178.992 182.592 178.992 
z
" style="fill:#009900;fill-opacity:0.5;stroke:#009900;stroke-linejoin:miter;stroke-width:2;"/>
   </g>
   <g id="patch_19">
    <path clip-path="url(#p632e4afcf0)" d="M 146.88 147.744 
C 149.247733 147.744 151.518809 146.80329 153.193049 145.129049 
C 154.86729 143.454809 155.808 141.183733 155.808 138.816 
C 155.808 136.448267 154.86729 134.177191 153.193049 132.502951 
C 151.518809 130.82871 149.247733 129.888 146.88 129.888 
C 144.512267 129.888 142.241191 130.82871 140.566951 132.502951 
C 138.89271 134.177191 137.952 136.448267 137.952 138.816 
C 137.952 141.183733 138.89271 143.454809 140.566951 145.129049 
C 142.241191 146.80329 144.512267 147.744 146.88 147.744 
z
" style="fill:#9558b2;fill-opacity:0.5;stroke:#9558b2;stroke-linejoin:miter;stroke-width:2;"/>
   </g>
   <g id="patch_20">
    <path clip-path="url(#p632e4afcf0)" d="M 182.592 143.28 
C 183.775867 143.28 184.911405 142.809645 185.748525 141.972525 
C 186.585645 141.135405 187.056 139.999867 187.056 138.816 
C 187.056 137.632133 186.585645 136.496595 185.748525 135.659475 
C 184.911405 134.822355 183.775867 134.352 182.592 134.352 
C 181.408133 134.352 180.272595 134.822355 179.435475 135.659475 
C 178.598355 136.496595 178.128 137.632133 178.128 138.816 
C 178.128 139.999867 178.598355 141.135405 179.435475 141.972525 
C 180.272595 142.809645 181.408133 143.28 182.592 143.28 
z
" style="fill:#009900;fill-opacity:0.5;stroke:#009900;stroke-linejoin:miter;stroke-width:2;"/>
   </g>
   <g id="patch_21">
    <path clip-path="url(#p632e4afcf0)" d="M 146.88 112.032 
C 149.247733 112.032 151.518809 111.09129 153.193049 109.417049 
C 154.86729 107.742809 155.808 105.471733 155.808 103.104 
C 155.808 100.736267 154.86729 98.465191 153.193049 96.790951 
C 151.518809 95.11671 149.247733 94.176 146.88 94.176 
C 144.512267 94.176 142.241191 95.11671 140.566951 96.790951 
C 138.89271 98.465191 137.952 100.736267 137.952 103.104 
C 137.952 105.471733 138.89271 107.742809 140.566951 109.417049 
C 142.241191 111.09129 144.512267 112.032 146.88 112.032 
z
" style="fill:#9558b2;fill-opacity:0.5;stroke:#9558b2;stroke-linejoin:miter;stroke-width:2;"/>
   </g>
   <g id="patch_22">
    <path clip-path="url(#p632e4afcf0)" d="M 182.592 107.568 
C 183.775867 107.568 184.911405 107.097645 185.748525 106.260525 
C 186.585645 105.423405 187.056 104.287867 187.056 103.104 
C 187.056 101.920133 186.585645 100.784595 185.748525 99.947475 
C 184.911405 99.110355 183.775867 98.64 182.592 98.64 
C 181.408133 98.64 180.272595 99.110355 179.435475 99.947475 
C 178.598355 100.784595 178.128 101.920133 178.128 103.104 
C 178.128 104.287867 178.598355 105.423405 179.435475 106.260525 
C 180.272595 107.097645 181.408133 107.568 182.592 107.568 
z
" style="fill:#009900;fill-opacity:0.5;stroke:#009900;stroke-linejoin:miter;stroke-width:2;"/>
   </g>
   <g id="patch_23">
    <path clip-path="url(#p632e4afcf0)" d="M 218.304 254.88 
C 220.671733 254.88 222.942809 253.93929 224.617049 252.265049 
C 226.29129 250.590809 227.232 248.319733 227.232 245.952 
C 227.232 243.584267 226.29129 241.313191 224.617049 239.638951 
C 222.942809 237.96471 220.671733 237.024 218.304 237.024 
C 215.936267 237.024 213.665191 237.96471 211.990951 239.638951 
C 210.31671 241.313191 209.376 243.584267 209.376 245.952 
C 209.376 248.319733 210.31671 250.590809 211.990951 252.265049 
C 213.665191 253.93929 215.936267 254.88 218.304 254.88 
z
" style="fill:#9558b2;fill-opacity:0.5;stroke:#9558b2;stroke-linejoin:miter;stroke-width:2;"/>
   </g>
   <g id="patch_24">
    <path clip-path="url(#p632e4afcf0)" d="M 254.016 250.416 
C 255.199867 250.416 256.335405 249.945645 257.172525 249.108525 
C 258.009645 248.271405 258.48 247.135867 258.48 245.952 
C 258.48 244.768133 258.009645 243.632595 257.172525 242.795475 
C 256.335405 241.958355 255.199867 241.488 254.016 241.488 
C 252.832133 241.488 251.696595 241.958355 250.859475 242.795475 
C 250.022355 243.632595 249.552 244.768133 249.552 245.952 
C 249.552 247.135867 250.022355 248.271405 250.859475 249.108525 
C 251.696595 249.945645 252.832133 250.416 254.016 250.416 
z
" style="fill:#009900;fill-opacity:0.5;stroke:#009900;stroke-linejoin:miter;stroke-width:2;"/>
   </g>
   <g id="patch_25">
    <path clip-path="url(#p632e4afcf0)" d="M 218.304 219.168 
C 220.671733 219.168 222.942809 218.22729 224.617049 216.553049 
C 226.29129 214.878809 227.232 212.607733 227.232 210.24 
C 227.232 207.872267 226.29129 205.601191 224.617049 203.926951 
C 222.942809 202.25271 220.671733 201.312 218.304 201.312 
C 215.936267 201.312 213.665191 202.25271 211.990951 203.926951 
C 210.31671 205.601191 209.376 207.872267 209.376 210.24 
C 209.376 212.607733 210.31671 214.878809 211.990951 216.553049 
C 213.665191 218.22729 215.936267 219.168 218.304 219.168 
z
" style="fill:#9558b2;fill-opacity:0.5;stroke:#9558b2;stroke-linejoin:miter;stroke-width:2;"/>
   </g>
   <g id="patch_26">
    <path clip-path="url(#p632e4afcf0)" d="M 254.016 214.704 
C 255.199867 214.704 256.335405 214.233645 257.172525 213.396525 
C 258.009645 212.559405 258.48 211.423867 258.48 210.24 
C 258.48 209.056133 258.009645 207.920595 257.172525 207.083475 
C 256.335405 206.246355 255.199867 205.776 254.016 205.776 
C 252.832133 205.776 251.696595 206.246355 250.859475 207.083475 
C 250.022355 207.920595 249.552 209.056133 249.552 210.24 
C 249.552 211.423867 250.022355 212.559405 250.859475 213.396525 
C 251.696595 214.233645 252.832133 214.704 254.016 214.704 
z
" style="fill:#009900;fill-opacity:0.5;stroke:#009900;stroke-linejoin:miter;stroke-width:2;"/>
   </g>
   <g id="patch_27">
    <path clip-path="url(#p632e4afcf0)" d="M 218.304 183.456 
C 220.671733 183.456 222.942809 182.51529 224.617049 180.841049 
C 226.29129 179.166809 227.232 176.895733 227.232 174.528 
C 227.232 172.160267 226.29129 169.889191 224.617049 168.214951 
C 222.942809 166.54071 220.671733 165.6 218.304 165.6 
C 215.936267 165.6 213.665191 166.54071 211.990951 168.214951 
C 210.31671 169.889191 209.376 172.160267 209.376 174.528 
C 209.376 176.895733 210.31671 179.166809 211.990951 180.841049 
C 213.665191 182.51529 215.936267 183.456 218.304 183.456 
z
" style="fill:#9558b2;fill-opacity:0.5;stroke:#9558b2;stroke-linejoin:miter;stroke-width:2;"/>
   </g>
   <g id="patch_28">
    <path clip-path="url(#p632e4afcf0)" d="M 254.016 178.992 
C 255.199867 178.992 256.335405 178.521645 257.172525 177.684525 
C 258.009645 176.847405 258.48 175.711867 258.48 174.528 
C 258.48 173.344133 258.009645 172.208595 257.172525 171.371475 
C 256.335405 170.534355 255.199867 170.064 254.016 170.064 
C 252.832133 170.064 251.696595 170.534355 250.859475 171.371475 
C 250.022355 172.208595 249.552 173.344133 249.552 174.528 
C 249.552 175.711867 250.022355 176.847405 250.859475 177.684525 
C 251.696595 178.521645 252.832133 178.992 254.016 178.992 
z
" style="fill:#009900;fill-opacity:0.5;stroke:#009900;stroke-linejoin:miter;stroke-width:2;"/>
   </g>
   <g id="patch_29">
    <path clip-path="url(#p632e4afcf0)" d="M 218.304 147.744 
C 220.671733 147.744 222.942809 146.80329 224.617049 145.129049 
C 226.29129 143.454809 227.232 141.183733 227.232 138.816 
C 227.232 136.448267 226.29129 134.177191 224.617049 132.502951 
C 222.942809 130.82871 220.671733 129.888 218.304 129.888 
C 215.936267 129.888 213.665191 130.82871 211.990951 132.502951 
C 210.31671 134.177191 209.376 136.448267 209.376 138.816 
C 209.376 141.183733 210.31671 143.454809 211.990951 145.129049 
C 213.665191 146.80329 215.936267 147.744 218.304 147.744 
z
" style="fill:#9558b2;fill-opacity:0.5;stroke:#9558b2;stroke-linejoin:miter;stroke-width:2;"/>
   </g>
   <g id="patch_30">
    <path clip-path="url(#p632e4afcf0)" d="M 254.016 143.28 
C 255.199867 143.28 256.335405 142.809645 257.172525 141.972525 
C 258.009645 141.135405 258.48 139.999867 258.48 138.816 
C 258.48 137.632133 258.009645 136.496595 257.172525 135.659475 
C 256.335405 134.822355 255.199867 134.352 254.016 134.352 
C 252.832133 134.352 251.696595 134.822355 250.859475 135.659475 
C 250.022355 136.496595 249.552 137.632133 249.552 138.816 
C 249.552 139.999867 250.022355 141.135405 250.859475 141.972525 
C 251.696595 142.809645 252.832133 143.28 254.016 143.28 
z
" style="fill:#009900;fill-opacity:0.5;stroke:#009900;stroke-linejoin:miter;stroke-width:2;"/>
   </g>
   <g id="patch_31">
    <path clip-path="url(#p632e4afcf0)" d="M 218.304 112.032 
C 220.671733 112.032 222.942809 111.09129 224.617049 109.417049 
C 226.29129 107.742809 227.232 105.471733 227.232 103.104 
C 227.232 100.736267 226.29129 98.465191 224.617049 96.790951 
C 222.942809 95.11671 220.671733 94.176 218.304 94.176 
C 215.936267 94.176 213.665191 95.11671 211.990951 96.790951 
C 210.31671 98.465191 209.376 100.736267 209.376 103.104 
C 209.376 105.471733 210.31671 107.742809 211.990951 109.417049 
C 213.665191 111.09129 215.936267 112.032 218.304 112.032 
z
" style="fill:#9558b2;fill-opacity:0.5;stroke:#9558b2;stroke-linejoin:miter;stroke-width:2;"/>
   </g>
   <g id="patch_32">
    <path clip-path="url(#p632e4afcf0)" d="M 254.016 107.568 
C 255.199867 107.568 256.335405 107.097645 257.172525 106.260525 
C 258.009645 105.423405 258.48 104.287867 258.48 103.104 
C 258.48 101.920133 258.009645 100.784595 257.172525 99.947475 
C 256.335405 99.110355 255.199867 98.64 254.016 98.64 
C 252.832133 98.64 251.696595 99.110355 250.859475 99.947475 
C 250.022355 100.784595 249.552 101.920133 249.552 103.104 
C 249.552 104.287867 250.022355 105.423405 250.859475 106.260525 
C 251.696595 107.097645 252.832133 107.568 254.016 107.568 
z
" style="fill:#009900;fill-opacity:0.5;stroke:#009900;stroke-linejoin:miter;stroke-width:2;"/>
   </g>
   <g id="patch_33">
    <path clip-path="url(#p632e4afcf0)" d="M 289.728 254.88 
C 292.095733 254.88 294.366809 253.93929 296.041049 252.265049 
C 297.71529 250.590809 298.656 248.319733 298.656 245.952 
C 298.656 243.584267 297.71529 241.313191 296.041049 239.638951 
C 294.366809 237.96471 292.095733 237.024 289.728 237.024 
C 287.360267 237.024 285.089191 237.96471 283.414951 239.638951 
C 281.74071 241.313191 280.8 243.584267 280.8 245.952 
C 280.8 248.319733 281.74071 250.590809 283.414951 252.265049 
C 285.089191 253.93929 287.360267 254.88 289.728 254.88 
z
" style="fill:#9558b2;fill-opacity:0.5;stroke:#9558b2;stroke-linejoin:miter;stroke-width:2;"/>
   </g>
   <g id="patch_34">
    <path clip-path="url(#p632e4afcf0)" d="M 325.44 250.416 
C 326.623867 250.416 327.759405 249.945645 328.596525 249.108525 
C 329.433645 248.271405 329.904 247.135867 329.904 245.952 
C 329.904 244.768133 329.433645 243.632595 328.596525 242.795475 
C 327.759405 241.958355 326.623867 241.488 325.44 241.488 
C 324.256133 241.488 323.120595 241.958355 322.283475 242.795475 
C 321.446355 243.632595 320.976 244.768133 320.976 245.952 
C 320.976 247.135867 321.446355 248.271405 322.283475 249.108525 
C 323.120595 249.945645 324.256133 250.416 325.44 250.416 
z
" style="fill:#009900;fill-opacity:0.5;stroke:#009900;stroke-linejoin:miter;stroke-width:2;"/>
   </g>
   <g id="patch_35">
    <path clip-path="url(#p632e4afcf0)" d="M 289.728 219.168 
C 292.095733 219.168 294.366809 218.22729 296.041049 216.553049 
C 297.71529 214.878809 298.656 212.607733 298.656 210.24 
C 298.656 207.872267 297.71529 205.601191 296.041049 203.926951 
C 294.366809 202.25271 292.095733 201.312 289.728 201.312 
C 287.360267 201.312 285.089191 202.25271 283.414951 203.926951 
C 281.74071 205.601191 280.8 207.872267 280.8 210.24 
C 280.8 212.607733 281.74071 214.878809 283.414951 216.553049 
C 285.089191 218.22729 287.360267 219.168 289.728 219.168 
z
" style="fill:#9558b2;fill-opacity:0.5;stroke:#9558b2;stroke-linejoin:miter;stroke-width:2;"/>
   </g>
   <g id="patch_36">
    <path clip-path="url(#p632e4afcf0)" d="M 325.44 214.704 
C 326.623867 214.704 327.759405 214.233645 328.596525 213.396525 
C 329.433645 212.559405 329.904 211.423867 329.904 210.24 
C 329.904 209.056133 329.433645 207.920595 328.596525 207.083475 
C 327.759405 206.246355 326.623867 205.776 325.44 205.776 
C 324.256133 205.776 323.120595 206.246355 322.283475 207.083475 
C 321.446355 207.920595 320.976 209.056133 320.976 210.24 
C 320.976 211.423867 321.446355 212.559405 322.283475 213.396525 
C 323.120595 214.233645 324.256133 214.704 325.44 214.704 
z
" style="fill:#009900;fill-opacity:0.5;stroke:#009900;stroke-linejoin:miter;stroke-width:2;"/>
   </g>
   <g id="patch_37">
    <path clip-path="url(#p632e4afcf0)" d="M 289.728 183.456 
C 292.095733 183.456 294.366809 182.51529 296.041049 180.841049 
C 297.71529 179.166809 298.656 176.895733 298.656 174.528 
C 298.656 172.160267 297.71529 169.889191 296.041049 168.214951 
C 294.366809 166.54071 292.095733 165.6 289.728 165.6 
C 287.360267 165.6 285.089191 166.54071 283.414951 168.214951 
C 281.74071 169.889191 280.8 172.160267 280.8 174.528 
C 280.8 176.895733 281.74071 179.166809 283.414951 180.841049 
C 285.089191 182.51529 287.360267 183.456 289.728 183.456 
z
" style="fill:#9558b2;fill-opacity:0.5;stroke:#9558b2;stroke-linejoin:miter;stroke-width:2;"/>
   </g>
   <g id="patch_38">
    <path clip-path="url(#p632e4afcf0)" d="M 325.44 178.992 
C 326.623867 178.992 327.759405 178.521645 328.596525 177.684525 
C 329.433645 176.847405 329.904 175.711867 329.904 174.528 
C 329.904 173.344133 329.433645 172.208595 328.596525 171.371475 
C 327.759405 170.534355 326.623867 170.064 325.44 170.064 
C 324.256133 170.064 323.120595 170.534355 322.283475 171.371475 
C 321.446355 172.208595 320.976 173.344133 320.976 174.528 
C 320.976 175.711867 321.446355 176.847405 322.283475 177.684525 
C 323.120595 178.521645 324.256133 178.992 325.44 178.992 
z
" style="fill:#009900;fill-opacity:0.5;stroke:#009900;stroke-linejoin:miter;stroke-width:2;"/>
   </g>
   <g id="patch_39">
    <path clip-path="url(#p632e4afcf0)" d="M 289.728 147.744 
C 292.095733 147.744 294.366809 146.80329 296.041049 145.129049 
C 297.71529 143.454809 298.656 141.183733 298.656 138.816 
C 298.656 136.448267 297.71529 134.177191 296.041049 132.502951 
C 294.366809 130.82871 292.095733 129.888 289.728 129.888 
C 287.360267 129.888 285.089191 130.82871 283.414951 132.502951 
C 281.74071 134.177191 280.8 136.448267 280.8 138.816 
C 280.8 141.183733 281.74071 143.454809 283.414951 145.129049 
C 285.089191 146.80329 287.360267 147.744 289.728 147.744 
z
" style="fill:#9558b2;fill-opacity:0.5;stroke:#9558b2;stroke-linejoin:miter;stroke-width:2;"/>
   </g>
   <g id="patch_40">
    <path clip-path="url(#p632e4afcf0)" d="M 325.44 143.28 
C 326.623867 143.28 327.759405 142.809645 328.596525 141.972525 
C 329.433645 141.135405 329.904 139.999867 329.904 138.816 
C 329.904 137.632133 329.433645 136.496595 328.596525 135.659475 
C 327.759405 134.822355 326.623867 134.352 325.44 134.352 
C 324.256133 134.352 323.120595 134.822355 322.283475 135.659475 
C 321.446355 136.496595 320.976 137.632133 320.976 138.816 
C 320.976 139.999867 321.446355 141.135405 322.283475 141.972525 
C 323.120595 142.809645 324.256133 143.28 325.44 143.28 
z
" style="fill:#009900;fill-opacity:0.5;stroke:#009900;stroke-linejoin:miter;stroke-width:2;"/>
   </g>
   <g id="patch_41">
    <path clip-path="url(#p632e4afcf0)" d="M 289.728 112.032 
C 292.095733 112.032 294.366809 111.09129 296.041049 109.417049 
C 297.71529 107.742809 298.656 105.471733 298.656 103.104 
C 298.656 100.736267 297.71529 98.465191 296.041049 96.790951 
C 294.366809 95.11671 292.095733 94.176 289.728 94.176 
C 287.360267 94.176 285.089191 95.11671 283.414951 96.790951 
C 281.74071 98.465191 280.8 100.736267 280.8 103.104 
C 280.8 105.471733 281.74071 107.742809 283.414951 109.417049 
C 285.089191 111.09129 287.360267 112.032 289.728 112.032 
z
" style="fill:#9558b2;fill-opacity:0.5;stroke:#9558b2;stroke-linejoin:miter;stroke-width:2;"/>
   </g>
   <g id="patch_42">
    <path clip-path="url(#p632e4afcf0)" d="M 325.44 107.568 
C 326.623867 107.568 327.759405 107.097645 328.596525 106.260525 
C 329.433645 105.423405 329.904 104.287867 329.904 103.104 
C 329.904 101.920133 329.433645 100.784595 328.596525 99.947475 
C 327.759405 99.110355 326.623867 98.64 325.44 98.64 
C 324.256133 98.64 323.120595 99.110355 322.283475 99.947475 
C 321.446355 100.784595 320.976 101.920133 320.976 103.104 
C 320.976 104.287867 321.446355 105.423405 322.283475 106.260525 
C 323.120595 107.097645 324.256133 107.568 325.44 107.568 
z
" style="fill:#009900;fill-opacity:0.5;stroke:#009900;stroke-linejoin:miter;stroke-width:2;"/>
   </g>
   <g id="patch_43">
    <path clip-path="url(#p632e4afcf0)" d="M 361.152 254.88 
C 363.519733 254.88 365.790809 253.93929 367.465049 252.265049 
C 369.13929 250.590809 370.08 248.319733 370.08 245.952 
C 370.08 243.584267 369.13929 241.313191 367.465049 239.638951 
C 365.790809 237.96471 363.519733 237.024 361.152 237.024 
C 358.784267 237.024 356.513191 237.96471 354.838951 239.638951 
C 353.16471 241.313191 352.224 243.584267 352.224 245.952 
C 352.224 248.319733 353.16471 250.590809 354.838951 252.265049 
C 356.513191 253.93929 358.784267 254.88 361.152 254.88 
z
" style="fill:#9558b2;fill-opacity:0.5;stroke:#9558b2;stroke-linejoin:miter;stroke-width:2;"/>
   </g>
   <g id="patch_44">
    <path clip-path="url(#p632e4afcf0)" d="M 396.864 250.416 
C 398.047867 250.416 399.183405 249.945645 400.020525 249.108525 
C 400.857645 248.271405 401.328 247.135867 401.328 245.952 
C 401.328 244.768133 400.857645 243.632595 400.020525 242.795475 
C 399.183405 241.958355 398.047867 241.488 396.864 241.488 
C 395.680133 241.488 394.544595 241.958355 393.707475 242.795475 
C 392.870355 243.632595 392.4 244.768133 392.4 245.952 
C 392.4 247.135867 392.870355 248.271405 393.707475 249.108525 
C 394.544595 249.945645 395.680133 250.416 396.864 250.416 
z
" style="fill:#009900;fill-opacity:0.5;stroke:#009900;stroke-linejoin:miter;stroke-width:2;"/>
   </g>
   <g id="patch_45">
    <path clip-path="url(#p632e4afcf0)" d="M 361.152 219.168 
C 363.519733 219.168 365.790809 218.22729 367.465049 216.553049 
C 369.13929 214.878809 370.08 212.607733 370.08 210.24 
C 370.08 207.872267 369.13929 205.601191 367.465049 203.926951 
C 365.790809 202.25271 363.519733 201.312 361.152 201.312 
C 358.784267 201.312 356.513191 202.25271 354.838951 203.926951 
C 353.16471 205.601191 352.224 207.872267 352.224 210.24 
C 352.224 212.607733 353.16471 214.878809 354.838951 216.553049 
C 356.513191 218.22729 358.784267 219.168 361.152 219.168 
z
" style="fill:#9558b2;fill-opacity:0.5;stroke:#9558b2;stroke-linejoin:miter;stroke-width:2;"/>
   </g>
   <g id="patch_46">
    <path clip-path="url(#p632e4afcf0)" d="M 396.864 214.704 
C 398.047867 214.704 399.183405 214.233645 400.020525 213.396525 
C 400.857645 212.559405 401.328 211.423867 401.328 210.24 
C 401.328 209.056133 400.857645 207.920595 400.020525 207.083475 
C 399.183405 206.246355 398.047867 205.776 396.864 205.776 
C 395.680133 205.776 394.544595 206.246355 393.707475 207.083475 
C 392.870355 207.920595 392.4 209.056133 392.4 210.24 
C 392.4 211.423867 392.870355 212.559405 393.707475 213.396525 
C 394.544595 214.233645 395.680133 214.704 396.864 214.704 
z
" style="fill:#009900;fill-opacity:0.5;stroke:#009900;stroke-linejoin:miter;stroke-width:2;"/>
   </g>
   <g id="patch_47">
    <path clip-path="url(#p632e4afcf0)" d="M 361.152 183.456 
C 363.519733 183.456 365.790809 182.51529 367.465049 180.841049 
C 369.13929 179.166809 370.08 176.895733 370.08 174.528 
C 370.08 172.160267 369.13929 169.889191 367.465049 168.214951 
C 365.790809 166.54071 363.519733 165.6 361.152 165.6 
C 358.784267 165.6 356.513191 166.54071 354.838951 168.214951 
C 353.16471 169.889191 352.224 172.160267 352.224 174.528 
C 352.224 176.895733 353.16471 179.166809 354.838951 180.841049 
C 356.513191 182.51529 358.784267 183.456 361.152 183.456 
z
" style="fill:#9558b2;fill-opacity:0.5;stroke:#9558b2;stroke-linejoin:miter;stroke-width:2;"/>
   </g>
   <g id="patch_48">
    <path clip-path="url(#p632e4afcf0)" d="M 396.864 178.992 
C 398.047867 178.992 399.183405 178.521645 400.020525 177.684525 
C 400.857645 176.847405 401.328 175.711867 401.328 174.528 
C 401.328 173.344133 400.857645 172.208595 400.020525 171.371475 
C 399.183405 170.534355 398.047867 170.064 396.864 170.064 
C 395.680133 170.064 394.544595 170.534355 393.707475 171.371475 
C 392.870355 172.208595 392.4 173.344133 392.4 174.528 
C 392.4 175.711867 392.870355 176.847405 393.707475 177.684525 
C 394.544595 178.521645 395.680133 178.992 396.864 178.992 
z
" style="fill:#009900;fill-opacity:0.5;stroke:#009900;stroke-linejoin:miter;stroke-width:2;"/>
   </g>
   <g id="patch_49">
    <path clip-path="url(#p632e4afcf0)" d="M 361.152 147.744 
C 363.519733 147.744 365.790809 146.80329 367.465049 145.129049 
C 369.13929 143.454809 370.08 141.183733 370.08 138.816 
C 370.08 136.448267 369.13929 134.177191 367.465049 132.502951 
C 365.790809 130.82871 363.519733 129.888 361.152 129.888 
C 358.784267 129.888 356.513191 130.82871 354.838951 132.502951 
C 353.16471 134.177191 352.224 136.448267 352.224 138.816 
C 352.224 141.183733 353.16471 143.454809 354.838951 145.129049 
C 356.513191 146.80329 358.784267 147.744 361.152 147.744 
z
" style="fill:#9558b2;fill-opacity:0.5;stroke:#9558b2;stroke-linejoin:miter;stroke-width:2;"/>
   </g>
   <g id="patch_50">
    <path clip-path="url(#p632e4afcf0)" d="M 396.864 143.28 
C 398.047867 143.28 399.183405 142.809645 400.020525 141.972525 
C 400.857645 141.135405 401.328 139.999867 401.328 138.816 
C 401.328 137.632133 400.857645 136.496595 400.020525 135.659475 
C 399.183405 134.822355 398.047867 134.352 396.864 134.352 
C 395.680133 134.352 394.544595 134.822355 393.707475 135.659475 
C 392.870355 136.496595 392.4 137.632133 392.4 138.816 
C 392.4 139.999867 392.870355 141.135405 393.707475 141.972525 
C 394.544595 142.809645 395.680133 143.28 396.864 143.28 
z
" style="fill:#009900;fill-opacity:0.5;stroke:#009900;stroke-linejoin:miter;stroke-width:2;"/>
   </g>
   <g id="patch_51">
    <path clip-path="url(#p632e4afcf0)" d="M 361.152 112.032 
C 363.519733 112.032 365.790809 111.09129 367.465049 109.417049 
C 369.13929 107.742809 370.08 105.471733 370.08 103.104 
C 370.08 100.736267 369.13929 98.465191 367.465049 96.790951 
C 365.790809 95.11671 363.519733 94.176 361.152 94.176 
C 358.784267 94.176 356.513191 95.11671 354.838951 96.790951 
C 353.16471 98.465191 352.224 100.736267 352.224 103.104 
C 352.224 105.471733 353.16471 107.742809 354.838951 109.417049 
C 356.513191 111.09129 358.784267 112.032 361.152 112.032 
z
" style="fill:#9558b2;fill-opacity:0.5;stroke:#9558b2;stroke-linejoin:miter;stroke-width:2;"/>
   </g>
   <g id="patch_52">
    <path clip-path="url(#p632e4afcf0)" d="M 396.864 107.568 
C 398.047867 107.568 399.183405 107.097645 400.020525 106.260525 
C 400.857645 105.423405 401.328 104.287867 401.328 103.104 
C 401.328 101.920133 400.857645 100.784595 400.020525 99.947475 
C 399.183405 99.110355 398.047867 98.64 396.864 98.64 
C 395.680133 98.64 394.544595 99.110355 393.707475 99.947475 
C 392.870355 100.784595 392.4 101.920133 392.4 103.104 
C 392.4 104.287867 392.870355 105.423405 393.707475 106.260525 
C 394.544595 107.097645 395.680133 107.568 396.864 107.568 
z
" style="fill:#009900;fill-opacity:0.5;stroke:#009900;stroke-linejoin:miter;stroke-width:2;"/>
   </g>
   <g id="matplotlib.axis_1">
    <g id="xtick_1">
     <g id="line2d_1">
      <defs>
       <path d="M 0 0 
L 0 3.5 
" id="m54f1f5103b" style="stroke:#000000;stroke-width:0.8;"/>
      </defs>
      <g>
       <use style="stroke:#000000;stroke-width:0.8;" x="57.6" xlink:href="#m54f1f5103b" y="263.808"/>
      </g>
     </g>
     <g id="text_1">
      <!-- −8 -->
      <defs>
       <path d="M 10.59375 35.5 
L 73.1875 35.5 
L 73.1875 27.203125 
L 10.59375 27.203125 
z
" id="DejaVuSans-2212"/>
       <path d="M 31.78125 34.625 
Q 24.75 34.625 20.71875 30.859375 
Q 16.703125 27.09375 16.703125 20.515625 
Q 16.703125 13.921875 20.71875 10.15625 
Q 24.75 6.390625 31.78125 6.390625 
Q 38.8125 6.390625 42.859375 10.171875 
Q 46.921875 13.96875 46.921875 20.515625 
Q 46.921875 27.09375 42.890625 30.859375 
Q 38.875 34.625 31.78125 34.625 
z
M 21.921875 38.8125 
Q 15.578125 40.375 12.03125 44.71875 
Q 8.5 49.078125 8.5 55.328125 
Q 8.5 64.0625 14.71875 69.140625 
Q 20.953125 74.21875 31.78125 74.21875 
Q 42.671875 74.21875 48.875 69.140625 
Q 55.078125 64.0625 55.078125 55.328125 
Q 55.078125 49.078125 51.53125 44.71875 
Q 48 40.375 41.703125 38.8125 
Q 48.828125 37.15625 52.796875 32.3125 
Q 56.78125 27.484375 56.78125 20.515625 
Q 56.78125 9.90625 50.3125 4.234375 
Q 43.84375 -1.421875 31.78125 -1.421875 
Q 19.734375 -1.421875 13.25 4.234375 
Q 6.78125 9.90625 6.78125 20.515625 
Q 6.78125 27.484375 10.78125 32.3125 
Q 14.796875 37.15625 21.921875 38.8125 
z
M 18.3125 54.390625 
Q 18.3125 48.734375 21.84375 45.5625 
Q 25.390625 42.390625 31.78125 42.390625 
Q 38.140625 42.390625 41.71875 45.5625 
Q 45.3125 48.734375 45.3125 54.390625 
Q 45.3125 60.0625 41.71875 63.234375 
Q 38.140625 66.40625 31.78125 66.40625 
Q 25.390625 66.40625 21.84375 63.234375 
Q 18.3125 60.0625 18.3125 54.390625 
z
" id="DejaVuSans-38"/>
      </defs>
      <g transform="translate(50.228906 278.406437)scale(0.1 -0.1)">
       <use xlink:href="#DejaVuSans-2212"/>
       <use x="83.789062" xlink:href="#DejaVuSans-38"/>
      </g>
     </g>
    </g>
    <g id="xtick_2">
     <g id="line2d_2">
      <g>
       <use style="stroke:#000000;stroke-width:0.8;" x="129.024" xlink:href="#m54f1f5103b" y="263.808"/>
      </g>
     </g>
     <g id="text_2">
      <!-- −6 -->
      <defs>
       <path d="M 33.015625 40.375 
Q 26.375 40.375 22.484375 35.828125 
Q 18.609375 31.296875 18.609375 23.390625 
Q 18.609375 15.53125 22.484375 10.953125 
Q 26.375 6.390625 33.015625 6.390625 
Q 39.65625 6.390625 43.53125 10.953125 
Q 47.40625 15.53125 47.40625 23.390625 
Q 47.40625 31.296875 43.53125 35.828125 
Q 39.65625 40.375 33.015625 40.375 
z
M 52.59375 71.296875 
L 52.59375 62.3125 
Q 48.875 64.0625 45.09375 64.984375 
Q 41.3125 65.921875 37.59375 65.921875 
Q 27.828125 65.921875 22.671875 59.328125 
Q 17.53125 52.734375 16.796875 39.40625 
Q 19.671875 43.65625 24.015625 45.921875 
Q 28.375 48.1875 33.59375 48.1875 
Q 44.578125 48.1875 50.953125 41.515625 
Q 57.328125 34.859375 57.328125 23.390625 
Q 57.328125 12.15625 50.6875 5.359375 
Q 44.046875 -1.421875 33.015625 -1.421875 
Q 20.359375 -1.421875 13.671875 8.265625 
Q 6.984375 17.96875 6.984375 36.375 
Q 6.984375 53.65625 15.1875 63.9375 
Q 23.390625 74.21875 37.203125 74.21875 
Q 40.921875 74.21875 44.703125 73.484375 
Q 48.484375 72.75 52.59375 71.296875 
z
" id="DejaVuSans-36"/>
      </defs>
      <g transform="translate(121.652906 278.406437)scale(0.1 -0.1)">
       <use xlink:href="#DejaVuSans-2212"/>
       <use x="83.789062" xlink:href="#DejaVuSans-36"/>
      </g>
     </g>
    </g>
    <g id="xtick_3">
     <g id="line2d_3">
      <g>
       <use style="stroke:#000000;stroke-width:0.8;" x="200.448" xlink:href="#m54f1f5103b" y="263.808"/>
      </g>
     </g>
     <g id="text_3">
      <!-- −4 -->
      <defs>
       <path d="M 37.796875 64.3125 
L 12.890625 25.390625 
L 37.796875 25.390625 
z
M 35.203125 72.90625 
L 47.609375 72.90625 
L 47.609375 25.390625 
L 58.015625 25.390625 
L 58.015625 17.1875 
L 47.609375 17.1875 
L 47.609375 0 
L 37.796875 0 
L 37.796875 17.1875 
L 4.890625 17.1875 
L 4.890625 26.703125 
z
" id="DejaVuSans-34"/>
      </defs>
      <g transform="translate(193.076906 278.406437)scale(0.1 -0.1)">
       <use xlink:href="#DejaVuSans-2212"/>
       <use x="83.789062" xlink:href="#DejaVuSans-34"/>
      </g>
     </g>
    </g>
    <g id="xtick_4">
     <g id="line2d_4">
      <g>
       <use style="stroke:#000000;stroke-width:0.8;" x="271.872" xlink:href="#m54f1f5103b" y="263.808"/>
      </g>
     </g>
     <g id="text_4">
      <!-- −2 -->
      <defs>
       <path d="M 19.1875 8.296875 
L 53.609375 8.296875 
L 53.609375 0 
L 7.328125 0 
L 7.328125 8.296875 
Q 12.9375 14.109375 22.625 23.890625 
Q 32.328125 33.6875 34.8125 36.53125 
Q 39.546875 41.84375 41.421875 45.53125 
Q 43.3125 49.21875 43.3125 52.78125 
Q 43.3125 58.59375 39.234375 62.25 
Q 35.15625 65.921875 28.609375 65.921875 
Q 23.96875 65.921875 18.8125 64.3125 
Q 13.671875 62.703125 7.8125 59.421875 
L 7.8125 69.390625 
Q 13.765625 71.78125 18.9375 73 
Q 24.125 74.21875 28.421875 74.21875 
Q 39.75 74.21875 46.484375 68.546875 
Q 53.21875 62.890625 53.21875 53.421875 
Q 53.21875 48.921875 51.53125 44.890625 
Q 49.859375 40.875 45.40625 35.40625 
Q 44.1875 33.984375 37.640625 27.21875 
Q 31.109375 20.453125 19.1875 8.296875 
z
" id="DejaVuSans-32"/>
      </defs>
      <g transform="translate(264.500906 278.406437)scale(0.1 -0.1)">
       <use xlink:href="#DejaVuSans-2212"/>
       <use x="83.789062" xlink:href="#DejaVuSans-32"/>
      </g>
     </g>
    </g>
    <g id="xtick_5">
     <g id="line2d_5">
      <g>
       <use style="stroke:#000000;stroke-width:0.8;" x="343.296" xlink:href="#m54f1f5103b" y="263.808"/>
      </g>
     </g>
     <g id="text_5">
      <!-- 0 -->
      <defs>
       <path d="M 31.78125 66.40625 
Q 24.171875 66.40625 20.328125 58.90625 
Q 16.5 51.421875 16.5 36.375 
Q 16.5 21.390625 20.328125 13.890625 
Q 24.171875 6.390625 31.78125 6.390625 
Q 39.453125 6.390625 43.28125 13.890625 
Q 47.125 21.390625 47.125 36.375 
Q 47.125 51.421875 43.28125 58.90625 
Q 39.453125 66.40625 31.78125 66.40625 
z
M 31.78125 74.21875 
Q 44.046875 74.21875 50.515625 64.515625 
Q 56.984375 54.828125 56.984375 36.375 
Q 56.984375 17.96875 50.515625 8.265625 
Q 44.046875 -1.421875 31.78125 -1.421875 
Q 19.53125 -1.421875 13.0625 8.265625 
Q 6.59375 17.96875 6.59375 36.375 
Q 6.59375 54.828125 13.0625 64.515625 
Q 19.53125 74.21875 31.78125 74.21875 
z
" id="DejaVuSans-30"/>
      </defs>
      <g transform="translate(340.11475 278.406437)scale(0.1 -0.1)">
       <use xlink:href="#DejaVuSans-30"/>
      </g>
     </g>
    </g>
    <g id="xtick_6">
     <g id="line2d_6">
      <g>
       <use style="stroke:#000000;stroke-width:0.8;" x="414.72" xlink:href="#m54f1f5103b" y="263.808"/>
      </g>
     </g>
     <g id="text_6">
      <!-- 2 -->
      <g transform="translate(411.53875 278.406437)scale(0.1 -0.1)">
       <use xlink:href="#DejaVuSans-32"/>
      </g>
     </g>
    </g>
   </g>
   <g id="matplotlib.axis_2">
    <g id="ytick_1">
     <g id="line2d_7">
      <defs>
       <path d="M 0 0 
L -3.5 0 
" id="mefb73c4669" style="stroke:#000000;stroke-width:0.8;"/>
      </defs>
      <g>
       <use style="stroke:#000000;stroke-width:0.8;" x="57.6" xlink:href="#mefb73c4669" y="263.808"/>
      </g>
     </g>
     <g id="text_7">
      <!-- −4 -->
      <g transform="translate(35.857813 267.607219)scale(0.1 -0.1)">
       <use xlink:href="#DejaVuSans-2212"/>
       <use x="83.789062" xlink:href="#DejaVuSans-34"/>
      </g>
     </g>
    </g>
    <g id="ytick_2">
     <g id="line2d_8">
      <g>
       <use style="stroke:#000000;stroke-width:0.8;" x="57.6" xlink:href="#mefb73c4669" y="228.096"/>
      </g>
     </g>
     <g id="text_8">
      <!-- −3 -->
      <defs>
       <path d="M 40.578125 39.3125 
Q 47.65625 37.796875 51.625 33 
Q 55.609375 28.21875 55.609375 21.1875 
Q 55.609375 10.40625 48.1875 4.484375 
Q 40.765625 -1.421875 27.09375 -1.421875 
Q 22.515625 -1.421875 17.65625 -0.515625 
Q 12.796875 0.390625 7.625 2.203125 
L 7.625 11.71875 
Q 11.71875 9.328125 16.59375 8.109375 
Q 21.484375 6.890625 26.8125 6.890625 
Q 36.078125 6.890625 40.9375 10.546875 
Q 45.796875 14.203125 45.796875 21.1875 
Q 45.796875 27.640625 41.28125 31.265625 
Q 36.765625 34.90625 28.71875 34.90625 
L 20.21875 34.90625 
L 20.21875 43.015625 
L 29.109375 43.015625 
Q 36.375 43.015625 40.234375 45.921875 
Q 44.09375 48.828125 44.09375 54.296875 
Q 44.09375 59.90625 40.109375 62.90625 
Q 36.140625 65.921875 28.71875 65.921875 
Q 24.65625 65.921875 20.015625 65.03125 
Q 15.375 64.15625 9.8125 62.3125 
L 9.8125 71.09375 
Q 15.4375 72.65625 20.34375 73.4375 
Q 25.25 74.21875 29.59375 74.21875 
Q 40.828125 74.21875 47.359375 69.109375 
Q 53.90625 64.015625 53.90625 55.328125 
Q 53.90625 49.265625 50.4375 45.09375 
Q 46.96875 40.921875 40.578125 39.3125 
z
" id="DejaVuSans-33"/>
      </defs>
      <g transform="translate(35.857813 231.895219)scale(0.1 -0.1)">
       <use xlink:href="#DejaVuSans-2212"/>
       <use x="83.789062" xlink:href="#DejaVuSans-33"/>
      </g>
     </g>
    </g>
    <g id="ytick_3">
     <g id="line2d_9">
      <g>
       <use style="stroke:#000000;stroke-width:0.8;" x="57.6" xlink:href="#mefb73c4669" y="192.384"/>
      </g>
     </g>
     <g id="text_9">
      <!-- −2 -->
      <g transform="translate(35.857813 196.183219)scale(0.1 -0.1)">
       <use xlink:href="#DejaVuSans-2212"/>
       <use x="83.789062" xlink:href="#DejaVuSans-32"/>
      </g>
     </g>
    </g>
    <g id="ytick_4">
     <g id="line2d_10">
      <g>
       <use style="stroke:#000000;stroke-width:0.8;" x="57.6" xlink:href="#mefb73c4669" y="156.672"/>
      </g>
     </g>
     <g id="text_10">
      <!-- −1 -->
      <defs>
       <path d="M 12.40625 8.296875 
L 28.515625 8.296875 
L 28.515625 63.921875 
L 10.984375 60.40625 
L 10.984375 69.390625 
L 28.421875 72.90625 
L 38.28125 72.90625 
L 38.28125 8.296875 
L 54.390625 8.296875 
L 54.390625 0 
L 12.40625 0 
z
" id="DejaVuSans-31"/>
      </defs>
      <g transform="translate(35.857813 160.471219)scale(0.1 -0.1)">
       <use xlink:href="#DejaVuSans-2212"/>
       <use x="83.789062" xlink:href="#DejaVuSans-31"/>
      </g>
     </g>
    </g>
    <g id="ytick_5">
     <g id="line2d_11">
      <g>
       <use style="stroke:#000000;stroke-width:0.8;" x="57.6" xlink:href="#mefb73c4669" y="120.96"/>
      </g>
     </g>
     <g id="text_11">
      <!-- 0 -->
      <g transform="translate(44.2375 124.759219)scale(0.1 -0.1)">
       <use xlink:href="#DejaVuSans-30"/>
      </g>
     </g>
    </g>
    <g id="ytick_6">
     <g id="line2d_12">
      <g>
       <use style="stroke:#000000;stroke-width:0.8;" x="57.6" xlink:href="#mefb73c4669" y="85.248"/>
      </g>
     </g>
     <g id="text_12">
      <!-- 1 -->
      <g transform="translate(44.2375 89.047219)scale(0.1 -0.1)">
       <use xlink:href="#DejaVuSans-31"/>
      </g>
     </g>
    </g>
   </g>
   <g id="line2d_13">
    <path clip-path="url(#p632e4afcf0)" d="M 398.10011 114.571537 
L 153.391173 132.707497 
L 148.016183 111.959409 
L 143.907017 130.397535 
L 81.681395 109.503503 
L 210.030945 206.883551 
L 180.282417 142.636095 
L 154.197777 143.930618 
L 210.175643 242.258899 
L 182.050674 107.535057 
L 152.937228 167.9691 
L 110.954914 107.562911 
L 84.383312 138.926851 
L 141.459079 167.434143 
L 209.405318 103.826942 
L 150.379778 130.602551 
L 151.874973 110.503961 
L 352.474737 136.714977 
L 288.334187 165.70947 
L 218.987753 147.717779 
L 286.382737 237.674416 
" style="fill:none;stroke:#1f77b4;stroke-linecap:square;stroke-width:1.5;"/>
   </g>
   <g id="patch_53">
    <path d="M 57.6 263.808 
L 57.6 85.248 
" style="fill:none;stroke:#000000;stroke-linecap:square;stroke-linejoin:miter;stroke-width:0.8;"/>
   </g>
   <g id="patch_54">
    <path d="M 414.72 263.808 
L 414.72 85.248 
" style="fill:none;stroke:#000000;stroke-linecap:square;stroke-linejoin:miter;stroke-width:0.8;"/>
   </g>
   <g id="patch_55">
    <path d="M 57.6 263.808 
L 414.72 263.808 
" style="fill:none;stroke:#000000;stroke-linecap:square;stroke-linejoin:miter;stroke-width:0.8;"/>
   </g>
   <g id="patch_56">
    <path d="M 57.6 85.248 
L 414.72 85.248 
" style="fill:none;stroke:#000000;stroke-linecap:square;stroke-linejoin:miter;stroke-width:0.8;"/>
   </g>
  </g>
 </g>
 <defs>
  <clipPath id="p632e4afcf0">
   <rect height="178.56" width="357.12" x="57.6" y="85.248"/>
  </clipPath>
 </defs>
</svg>
