<?xml version="1.0" encoding="utf-8" standalone="no"?>
<!DOCTYPE svg PUBLIC "-//W3C//DTD SVG 1.1//EN"
  "http://www.w3.org/Graphics/SVG/1.1/DTD/svg11.dtd">
<!-- Created with matplotlib (http://matplotlib.org/) -->
<svg height="345.6pt" version="1.1" viewBox="0 0 460.8 345.6" width="460.8pt" xmlns="http://www.w3.org/2000/svg" xmlns:xlink="http://www.w3.org/1999/xlink">
 <defs>
  <style type="text/css">
*{stroke-linecap:butt;stroke-linejoin:round;}
  </style>
 </defs>
 <g id="figure_1">
  <g id="patch_1">
   <path d="M 0 345.6 
L 460.8 345.6 
L 460.8 0 
L 0 0 
z
" style="fill:#ffffff;"/>
  </g>
  <g id="axes_1">
   <g id="patch_2">
    <path d="M 57.6 276.562286 
L 414.72 276.562286 
L 414.72 72.493714 
L 57.6 72.493714 
z
" style="fill:#ffffff;"/>
   </g>
   <g id="PathCollection_1">
    <defs>
     <path d="M 0 3 
C 0.795609 3 1.55874 2.683901 2.12132 2.12132 
C 2.683901 1.55874 3 0.795609 3 0 
C 3 -0.795609 2.683901 -1.55874 2.12132 -2.12132 
C 1.55874 -2.683901 0.795609 -3 0 -3 
C -0.795609 -3 -1.55874 -2.683901 -2.12132 -2.12132 
C -2.683901 -1.55874 -3 -0.795609 -3 0 
C -3 0.795609 -2.683901 1.55874 -2.12132 2.12132 
C -1.55874 2.683901 -0.795609 3 0 3 
z
" id="m4fac33dfc9" style="stroke:#000000;"/>
    </defs>
    <g clip-path="url(#pd4bacc34a7)">
     <use style="stroke:#000000;" x="387.463707" xlink:href="#m4fac33dfc9" y="105.546214"/>
    </g>
   </g>
   <g id="PathCollection_2">
    <defs>
     <path d="M 0 2.738613 
C 0.726289 2.738613 1.422928 2.450055 1.936492 1.936492 
C 2.450055 1.422928 2.738613 0.726289 2.738613 0 
C 2.738613 -0.726289 2.450055 -1.422928 1.936492 -1.936492 
C 1.422928 -2.450055 0.726289 -2.738613 0 -2.738613 
C -0.726289 -2.738613 -1.422928 -2.450055 -1.936492 -1.936492 
C -2.450055 -1.422928 -2.738613 -0.726289 -2.738613 0 
C -2.738613 0.726289 -2.450055 1.422928 -1.936492 1.936492 
C -1.422928 2.450055 -0.726289 2.738613 0 2.738613 
z
" id="mab2e3e6010" style="stroke:#000000;"/>
    </defs>
    <g clip-path="url(#pd4bacc34a7)">
     <use style="stroke:#000000;" x="117.909081" xlink:href="#mab2e3e6010" y="258.45262"/>
    </g>
   </g>
   <g id="Quiver_1">
    <path clip-path="url(#pd4bacc34a7)" d="M 117.351545 257.755306 
L 133.389755 244.931991 
L 131.577371 244.0949 
L 140.223112 240.611486 
L 134.922583 248.278781 
L 134.504826 246.326618 
L 118.466616 259.149933 
L 117.351545 257.755306 
"/>
   </g>
   <g id="patch_3">
    <path clip-path="url(#pd4bacc34a7)" d="M 70.354286 270.185143 
C 72.045524 270.185143 73.667721 269.513207 74.863607 268.317321 
C 76.059493 267.121435 76.731429 265.499238 76.731429 263.808 
C 76.731429 262.116762 76.059493 260.494565 74.863607 259.298679 
C 73.667721 258.102793 72.045524 257.430857 70.354286 257.430857 
C 68.663048 257.430857 67.040851 258.102793 65.844965 259.298679 
C 64.649079 260.494565 63.977143 262.116762 63.977143 263.808 
C 63.977143 265.499238 64.649079 267.121435 65.844965 268.317321 
C 67.040851 269.513207 68.663048 270.185143 70.354286 270.185143 
z
" style="fill:#9558b2;fill-opacity:0.5;stroke:#9558b2;stroke-linejoin:miter;stroke-width:2;"/>
   </g>
   <g id="patch_4">
    <path clip-path="url(#pd4bacc34a7)" d="M 95.862857 266.996571 
C 96.708476 266.996571 97.519575 266.660603 98.117518 266.06266 
C 98.715461 265.464718 99.051429 264.653619 99.051429 263.808 
C 99.051429 262.962381 98.715461 262.151282 98.117518 261.55334 
C 97.519575 260.955397 96.708476 260.619429 95.862857 260.619429 
C 95.017238 260.619429 94.20614 260.955397 93.608197 261.55334 
C 93.010254 262.151282 92.674286 262.962381 92.674286 263.808 
C 92.674286 264.653619 93.010254 265.464718 93.608197 266.06266 
C 94.20614 266.660603 95.017238 266.996571 95.862857 266.996571 
z
" style="fill:#009900;fill-opacity:0.5;stroke:#009900;stroke-linejoin:miter;stroke-width:2;"/>
   </g>
   <g id="patch_5">
    <path clip-path="url(#pd4bacc34a7)" d="M 70.354286 244.676571 
C 72.045524 244.676571 73.667721 244.004635 74.863607 242.80875 
C 76.059493 241.612864 76.731429 239.990667 76.731429 238.299429 
C 76.731429 236.608191 76.059493 234.985994 74.863607 233.790108 
C 73.667721 232.594222 72.045524 231.922286 70.354286 231.922286 
C 68.663048 231.922286 67.040851 232.594222 65.844965 233.790108 
C 64.649079 234.985994 63.977143 236.608191 63.977143 238.299429 
C 63.977143 239.990667 64.649079 241.612864 65.844965 242.80875 
C 67.040851 244.004635 68.663048 244.676571 70.354286 244.676571 
z
" style="fill:#9558b2;fill-opacity:0.5;stroke:#9558b2;stroke-linejoin:miter;stroke-width:2;"/>
   </g>
   <g id="patch_6">
    <path clip-path="url(#pd4bacc34a7)" d="M 95.862857 241.488 
C 96.708476 241.488 97.519575 241.152032 98.117518 240.554089 
C 98.715461 239.956146 99.051429 239.145048 99.051429 238.299429 
C 99.051429 237.45381 98.715461 236.642711 98.117518 236.044768 
C 97.519575 235.446825 96.708476 235.110857 95.862857 235.110857 
C 95.017238 235.110857 94.20614 235.446825 93.608197 236.044768 
C 93.010254 236.642711 92.674286 237.45381 92.674286 238.299429 
C 92.674286 239.145048 93.010254 239.956146 93.608197 240.554089 
C 94.20614 241.152032 95.017238 241.488 95.862857 241.488 
z
" style="fill:#009900;fill-opacity:0.5;stroke:#009900;stroke-linejoin:miter;stroke-width:2;"/>
   </g>
   <g id="patch_7">
    <path clip-path="url(#pd4bacc34a7)" d="M 70.354286 219.168 
C 72.045524 219.168 73.667721 218.496064 74.863607 217.300178 
C 76.059493 216.104292 76.731429 214.482095 76.731429 212.790857 
C 76.731429 211.099619 76.059493 209.477422 74.863607 208.281536 
C 73.667721 207.08565 72.045524 206.413714 70.354286 206.413714 
C 68.663048 206.413714 67.040851 207.08565 65.844965 208.281536 
C 64.649079 209.477422 63.977143 211.099619 63.977143 212.790857 
C 63.977143 214.482095 64.649079 216.104292 65.844965 217.300178 
C 67.040851 218.496064 68.663048 219.168 70.354286 219.168 
z
" style="fill:#9558b2;fill-opacity:0.5;stroke:#9558b2;stroke-linejoin:miter;stroke-width:2;"/>
   </g>
   <g id="patch_8">
    <path clip-path="url(#pd4bacc34a7)" d="M 95.862857 215.979429 
C 96.708476 215.979429 97.519575 215.643461 98.117518 215.045518 
C 98.715461 214.447575 99.051429 213.636476 99.051429 212.790857 
C 99.051429 211.945238 98.715461 211.13414 98.117518 210.536197 
C 97.519575 209.938254 96.708476 209.602286 95.862857 209.602286 
C 95.017238 209.602286 94.20614 209.938254 93.608197 210.536197 
C 93.010254 211.13414 92.674286 211.945238 92.674286 212.790857 
C 92.674286 213.636476 93.010254 214.447575 93.608197 215.045518 
C 94.20614 215.643461 95.017238 215.979429 95.862857 215.979429 
z
" style="fill:#009900;fill-opacity:0.5;stroke:#009900;stroke-linejoin:miter;stroke-width:2;"/>
   </g>
   <g id="patch_9">
    <path clip-path="url(#pd4bacc34a7)" d="M 70.354286 193.659429 
C 72.045524 193.659429 73.667721 192.987493 74.863607 191.791607 
C 76.059493 190.595721 76.731429 188.973524 76.731429 187.282286 
C 76.731429 185.591048 76.059493 183.968851 74.863607 182.772965 
C 73.667721 181.577079 72.045524 180.905143 70.354286 180.905143 
C 68.663048 180.905143 67.040851 181.577079 65.844965 182.772965 
C 64.649079 183.968851 63.977143 185.591048 63.977143 187.282286 
C 63.977143 188.973524 64.649079 190.595721 65.844965 191.791607 
C 67.040851 192.987493 68.663048 193.659429 70.354286 193.659429 
z
" style="fill:#9558b2;fill-opacity:0.5;stroke:#9558b2;stroke-linejoin:miter;stroke-width:2;"/>
   </g>
   <g id="patch_10">
    <path clip-path="url(#pd4bacc34a7)" d="M 95.862857 190.470857 
C 96.708476 190.470857 97.519575 190.134889 98.117518 189.536946 
C 98.715461 188.939003 99.051429 188.127905 99.051429 187.282286 
C 99.051429 186.436667 98.715461 185.625568 98.117518 185.027625 
C 97.519575 184.429682 96.708476 184.093714 95.862857 184.093714 
C 95.017238 184.093714 94.20614 184.429682 93.608197 185.027625 
C 93.010254 185.625568 92.674286 186.436667 92.674286 187.282286 
C 92.674286 188.127905 93.010254 188.939003 93.608197 189.536946 
C 94.20614 190.134889 95.017238 190.470857 95.862857 190.470857 
z
" style="fill:#009900;fill-opacity:0.5;stroke:#009900;stroke-linejoin:miter;stroke-width:2;"/>
   </g>
   <g id="patch_11">
    <path clip-path="url(#pd4bacc34a7)" d="M 70.354286 168.150857 
C 72.045524 168.150857 73.667721 167.478921 74.863607 166.283035 
C 76.059493 165.087149 76.731429 163.464952 76.731429 161.773714 
C 76.731429 160.082476 76.059493 158.460279 74.863607 157.264393 
C 73.667721 156.068507 72.045524 155.396571 70.354286 155.396571 
C 68.663048 155.396571 67.040851 156.068507 65.844965 157.264393 
C 64.649079 158.460279 63.977143 160.082476 63.977143 161.773714 
C 63.977143 163.464952 64.649079 165.087149 65.844965 166.283035 
C 67.040851 167.478921 68.663048 168.150857 70.354286 168.150857 
z
" style="fill:#9558b2;fill-opacity:0.5;stroke:#9558b2;stroke-linejoin:miter;stroke-width:2;"/>
   </g>
   <g id="patch_12">
    <path clip-path="url(#pd4bacc34a7)" d="M 95.862857 164.962286 
C 96.708476 164.962286 97.519575 164.626318 98.117518 164.028375 
C 98.715461 163.430432 99.051429 162.619333 99.051429 161.773714 
C 99.051429 160.928095 98.715461 160.116997 98.117518 159.519054 
C 97.519575 158.921111 96.708476 158.585143 95.862857 158.585143 
C 95.017238 158.585143 94.20614 158.921111 93.608197 159.519054 
C 93.010254 160.116997 92.674286 160.928095 92.674286 161.773714 
C 92.674286 162.619333 93.010254 163.430432 93.608197 164.028375 
C 94.20614 164.626318 95.017238 164.962286 95.862857 164.962286 
z
" style="fill:#009900;fill-opacity:0.5;stroke:#009900;stroke-linejoin:miter;stroke-width:2;"/>
   </g>
   <g id="patch_13">
    <path clip-path="url(#pd4bacc34a7)" d="M 70.354286 142.642286 
C 72.045524 142.642286 73.667721 141.97035 74.863607 140.774464 
C 76.059493 139.578578 76.731429 137.956381 76.731429 136.265143 
C 76.731429 134.573905 76.059493 132.951708 74.863607 131.755822 
C 73.667721 130.559936 72.045524 129.888 70.354286 129.888 
C 68.663048 129.888 67.040851 130.559936 65.844965 131.755822 
C 64.649079 132.951708 63.977143 134.573905 63.977143 136.265143 
C 63.977143 137.956381 64.649079 139.578578 65.844965 140.774464 
C 67.040851 141.97035 68.663048 142.642286 70.354286 142.642286 
z
" style="fill:#9558b2;fill-opacity:0.5;stroke:#9558b2;stroke-linejoin:miter;stroke-width:2;"/>
   </g>
   <g id="patch_14">
    <path clip-path="url(#pd4bacc34a7)" d="M 95.862857 139.453714 
C 96.708476 139.453714 97.519575 139.117746 98.117518 138.519803 
C 98.715461 137.92186 99.051429 137.110762 99.051429 136.265143 
C 99.051429 135.419524 98.715461 134.608425 98.117518 134.010482 
C 97.519575 133.412539 96.708476 133.076571 95.862857 133.076571 
C 95.017238 133.076571 94.20614 133.412539 93.608197 134.010482 
C 93.010254 134.608425 92.674286 135.419524 92.674286 136.265143 
C 92.674286 137.110762 93.010254 137.92186 93.608197 138.519803 
C 94.20614 139.117746 95.017238 139.453714 95.862857 139.453714 
z
" style="fill:#009900;fill-opacity:0.5;stroke:#009900;stroke-linejoin:miter;stroke-width:2;"/>
   </g>
   <g id="patch_15">
    <path clip-path="url(#pd4bacc34a7)" d="M 70.354286 117.133714 
C 72.045524 117.133714 73.667721 116.461778 74.863607 115.265892 
C 76.059493 114.070006 76.731429 112.447809 76.731429 110.756571 
C 76.731429 109.065333 76.059493 107.443136 74.863607 106.24725 
C 73.667721 105.051365 72.045524 104.379429 70.354286 104.379429 
C 68.663048 104.379429 67.040851 105.051365 65.844965 106.24725 
C 64.649079 107.443136 63.977143 109.065333 63.977143 110.756571 
C 63.977143 112.447809 64.649079 114.070006 65.844965 115.265892 
C 67.040851 116.461778 68.663048 117.133714 70.354286 117.133714 
z
" style="fill:#9558b2;fill-opacity:0.5;stroke:#9558b2;stroke-linejoin:miter;stroke-width:2;"/>
   </g>
   <g id="patch_16">
    <path clip-path="url(#pd4bacc34a7)" d="M 95.862857 113.945143 
C 96.708476 113.945143 97.519575 113.609175 98.117518 113.011232 
C 98.715461 112.413289 99.051429 111.60219 99.051429 110.756571 
C 99.051429 109.910952 98.715461 109.099854 98.117518 108.501911 
C 97.519575 107.903968 96.708476 107.568 95.862857 107.568 
C 95.017238 107.568 94.20614 107.903968 93.608197 108.501911 
C 93.010254 109.099854 92.674286 109.910952 92.674286 110.756571 
C 92.674286 111.60219 93.010254 112.413289 93.608197 113.011232 
C 94.20614 113.609175 95.017238 113.945143 95.862857 113.945143 
z
" style="fill:#009900;fill-opacity:0.5;stroke:#009900;stroke-linejoin:miter;stroke-width:2;"/>
   </g>
   <g id="patch_17">
    <path clip-path="url(#pd4bacc34a7)" d="M 70.354286 91.625143 
C 72.045524 91.625143 73.667721 90.953207 74.863607 89.757321 
C 76.059493 88.561435 76.731429 86.939238 76.731429 85.248 
C 76.731429 83.556762 76.059493 81.934565 74.863607 80.738679 
C 73.667721 79.542793 72.045524 78.870857 70.354286 78.870857 
C 68.663048 78.870857 67.040851 79.542793 65.844965 80.738679 
C 64.649079 81.934565 63.977143 83.556762 63.977143 85.248 
C 63.977143 86.939238 64.649079 88.561435 65.844965 89.757321 
C 67.040851 90.953207 68.663048 91.625143 70.354286 91.625143 
z
" style="fill:#9558b2;fill-opacity:0.5;stroke:#9558b2;stroke-linejoin:miter;stroke-width:2;"/>
   </g>
   <g id="patch_18">
    <path clip-path="url(#pd4bacc34a7)" d="M 95.862857 88.436571 
C 96.708476 88.436571 97.519575 88.100603 98.117518 87.50266 
C 98.715461 86.904718 99.051429 86.093619 99.051429 85.248 
C 99.051429 84.402381 98.715461 83.591282 98.117518 82.99334 
C 97.519575 82.395397 96.708476 82.059429 95.862857 82.059429 
C 95.017238 82.059429 94.20614 82.395397 93.608197 82.99334 
C 93.010254 83.591282 92.674286 84.402381 92.674286 85.248 
C 92.674286 86.093619 93.010254 86.904718 93.608197 87.50266 
C 94.20614 88.100603 95.017238 88.436571 95.862857 88.436571 
z
" style="fill:#009900;fill-opacity:0.5;stroke:#009900;stroke-linejoin:miter;stroke-width:2;"/>
   </g>
   <g id="patch_19">
    <path clip-path="url(#pd4bacc34a7)" d="M 121.371429 270.185143 
C 123.062667 270.185143 124.684864 269.513207 125.88075 268.317321 
C 127.076635 267.121435 127.748571 265.499238 127.748571 263.808 
C 127.748571 262.116762 127.076635 260.494565 125.88075 259.298679 
C 124.684864 258.102793 123.062667 257.430857 121.371429 257.430857 
C 119.680191 257.430857 118.057994 258.102793 116.862108 259.298679 
C 115.666222 260.494565 114.994286 262.116762 114.994286 263.808 
C 114.994286 265.499238 115.666222 267.121435 116.862108 268.317321 
C 118.057994 269.513207 119.680191 270.185143 121.371429 270.185143 
z
" style="fill:#9558b2;fill-opacity:0.5;stroke:#9558b2;stroke-linejoin:miter;stroke-width:2;"/>
   </g>
   <g id="patch_20">
    <path clip-path="url(#pd4bacc34a7)" d="M 146.88 266.996571 
C 147.725619 266.996571 148.536718 266.660603 149.13466 266.06266 
C 149.732603 265.464718 150.068571 264.653619 150.068571 263.808 
C 150.068571 262.962381 149.732603 262.151282 149.13466 261.55334 
C 148.536718 260.955397 147.725619 260.619429 146.88 260.619429 
C 146.034381 260.619429 145.223282 260.955397 144.62534 261.55334 
C 144.027397 262.151282 143.691429 262.962381 143.691429 263.808 
C 143.691429 264.653619 144.027397 265.464718 144.62534 266.06266 
C 145.223282 266.660603 146.034381 266.996571 146.88 266.996571 
z
" style="fill:#009900;fill-opacity:0.5;stroke:#009900;stroke-linejoin:miter;stroke-width:2;"/>
   </g>
   <g id="patch_21">
    <path clip-path="url(#pd4bacc34a7)" d="M 121.371429 244.676571 
C 123.062667 244.676571 124.684864 244.004635 125.88075 242.80875 
C 127.076635 241.612864 127.748571 239.990667 127.748571 238.299429 
C 127.748571 236.608191 127.076635 234.985994 125.88075 233.790108 
C 124.684864 232.594222 123.062667 231.922286 121.371429 231.922286 
C 119.680191 231.922286 118.057994 232.594222 116.862108 233.790108 
C 115.666222 234.985994 114.994286 236.608191 114.994286 238.299429 
C 114.994286 239.990667 115.666222 241.612864 116.862108 242.80875 
C 118.057994 244.004635 119.680191 244.676571 121.371429 244.676571 
z
" style="fill:#9558b2;fill-opacity:0.5;stroke:#9558b2;stroke-linejoin:miter;stroke-width:2;"/>
   </g>
   <g id="patch_22">
    <path clip-path="url(#pd4bacc34a7)" d="M 146.88 241.488 
C 147.725619 241.488 148.536718 241.152032 149.13466 240.554089 
C 149.732603 239.956146 150.068571 239.145048 150.068571 238.299429 
C 150.068571 237.45381 149.732603 236.642711 149.13466 236.044768 
C 148.536718 235.446825 147.725619 235.110857 146.88 235.110857 
C 146.034381 235.110857 145.223282 235.446825 144.62534 236.044768 
C 144.027397 236.642711 143.691429 237.45381 143.691429 238.299429 
C 143.691429 239.145048 144.027397 239.956146 144.62534 240.554089 
C 145.223282 241.152032 146.034381 241.488 146.88 241.488 
z
" style="fill:#009900;fill-opacity:0.5;stroke:#009900;stroke-linejoin:miter;stroke-width:2;"/>
   </g>
   <g id="patch_23">
    <path clip-path="url(#pd4bacc34a7)" d="M 121.371429 219.168 
C 123.062667 219.168 124.684864 218.496064 125.88075 217.300178 
C 127.076635 216.104292 127.748571 214.482095 127.748571 212.790857 
C 127.748571 211.099619 127.076635 209.477422 125.88075 208.281536 
C 124.684864 207.08565 123.062667 206.413714 121.371429 206.413714 
C 119.680191 206.413714 118.057994 207.08565 116.862108 208.281536 
C 115.666222 209.477422 114.994286 211.099619 114.994286 212.790857 
C 114.994286 214.482095 115.666222 216.104292 116.862108 217.300178 
C 118.057994 218.496064 119.680191 219.168 121.371429 219.168 
z
" style="fill:#9558b2;fill-opacity:0.5;stroke:#9558b2;stroke-linejoin:miter;stroke-width:2;"/>
   </g>
   <g id="patch_24">
    <path clip-path="url(#pd4bacc34a7)" d="M 146.88 215.979429 
C 147.725619 215.979429 148.536718 215.643461 149.13466 215.045518 
C 149.732603 214.447575 150.068571 213.636476 150.068571 212.790857 
C 150.068571 211.945238 149.732603 211.13414 149.13466 210.536197 
C 148.536718 209.938254 147.725619 209.602286 146.88 209.602286 
C 146.034381 209.602286 145.223282 209.938254 144.62534 210.536197 
C 144.027397 211.13414 143.691429 211.945238 143.691429 212.790857 
C 143.691429 213.636476 144.027397 214.447575 144.62534 215.045518 
C 145.223282 215.643461 146.034381 215.979429 146.88 215.979429 
z
" style="fill:#009900;fill-opacity:0.5;stroke:#009900;stroke-linejoin:miter;stroke-width:2;"/>
   </g>
   <g id="patch_25">
    <path clip-path="url(#pd4bacc34a7)" d="M 121.371429 193.659429 
C 123.062667 193.659429 124.684864 192.987493 125.88075 191.791607 
C 127.076635 190.595721 127.748571 188.973524 127.748571 187.282286 
C 127.748571 185.591048 127.076635 183.968851 125.88075 182.772965 
C 124.684864 181.577079 123.062667 180.905143 121.371429 180.905143 
C 119.680191 180.905143 118.057994 181.577079 116.862108 182.772965 
C 115.666222 183.968851 114.994286 185.591048 114.994286 187.282286 
C 114.994286 188.973524 115.666222 190.595721 116.862108 191.791607 
C 118.057994 192.987493 119.680191 193.659429 121.371429 193.659429 
z
" style="fill:#9558b2;fill-opacity:0.5;stroke:#9558b2;stroke-linejoin:miter;stroke-width:2;"/>
   </g>
   <g id="patch_26">
    <path clip-path="url(#pd4bacc34a7)" d="M 146.88 190.470857 
C 147.725619 190.470857 148.536718 190.134889 149.13466 189.536946 
C 149.732603 188.939003 150.068571 188.127905 150.068571 187.282286 
C 150.068571 186.436667 149.732603 185.625568 149.13466 185.027625 
C 148.536718 184.429682 147.725619 184.093714 146.88 184.093714 
C 146.034381 184.093714 145.223282 184.429682 144.62534 185.027625 
C 144.027397 185.625568 143.691429 186.436667 143.691429 187.282286 
C 143.691429 188.127905 144.027397 188.939003 144.62534 189.536946 
C 145.223282 190.134889 146.034381 190.470857 146.88 190.470857 
z
" style="fill:#009900;fill-opacity:0.5;stroke:#009900;stroke-linejoin:miter;stroke-width:2;"/>
   </g>
   <g id="patch_27">
    <path clip-path="url(#pd4bacc34a7)" d="M 121.371429 168.150857 
C 123.062667 168.150857 124.684864 167.478921 125.88075 166.283035 
C 127.076635 165.087149 127.748571 163.464952 127.748571 161.773714 
C 127.748571 160.082476 127.076635 158.460279 125.88075 157.264393 
C 124.684864 156.068507 123.062667 155.396571 121.371429 155.396571 
C 119.680191 155.396571 118.057994 156.068507 116.862108 157.264393 
C 115.666222 158.460279 114.994286 160.082476 114.994286 161.773714 
C 114.994286 163.464952 115.666222 165.087149 116.862108 166.283035 
C 118.057994 167.478921 119.680191 168.150857 121.371429 168.150857 
z
" style="fill:#9558b2;fill-opacity:0.5;stroke:#9558b2;stroke-linejoin:miter;stroke-width:2;"/>
   </g>
   <g id="patch_28">
    <path clip-path="url(#pd4bacc34a7)" d="M 146.88 164.962286 
C 147.725619 164.962286 148.536718 164.626318 149.13466 164.028375 
C 149.732603 163.430432 150.068571 162.619333 150.068571 161.773714 
C 150.068571 160.928095 149.732603 160.116997 149.13466 159.519054 
C 148.536718 158.921111 147.725619 158.585143 146.88 158.585143 
C 146.034381 158.585143 145.223282 158.921111 144.62534 159.519054 
C 144.027397 160.116997 143.691429 160.928095 143.691429 161.773714 
C 143.691429 162.619333 144.027397 163.430432 144.62534 164.028375 
C 145.223282 164.626318 146.034381 164.962286 146.88 164.962286 
z
" style="fill:#009900;fill-opacity:0.5;stroke:#009900;stroke-linejoin:miter;stroke-width:2;"/>
   </g>
   <g id="patch_29">
    <path clip-path="url(#pd4bacc34a7)" d="M 121.371429 142.642286 
C 123.062667 142.642286 124.684864 141.97035 125.88075 140.774464 
C 127.076635 139.578578 127.748571 137.956381 127.748571 136.265143 
C 127.748571 134.573905 127.076635 132.951708 125.88075 131.755822 
C 124.684864 130.559936 123.062667 129.888 121.371429 129.888 
C 119.680191 129.888 118.057994 130.559936 116.862108 131.755822 
C 115.666222 132.951708 114.994286 134.573905 114.994286 136.265143 
C 114.994286 137.956381 115.666222 139.578578 116.862108 140.774464 
C 118.057994 141.97035 119.680191 142.642286 121.371429 142.642286 
z
" style="fill:#9558b2;fill-opacity:0.5;stroke:#9558b2;stroke-linejoin:miter;stroke-width:2;"/>
   </g>
   <g id="patch_30">
    <path clip-path="url(#pd4bacc34a7)" d="M 146.88 139.453714 
C 147.725619 139.453714 148.536718 139.117746 149.13466 138.519803 
C 149.732603 137.92186 150.068571 137.110762 150.068571 136.265143 
C 150.068571 135.419524 149.732603 134.608425 149.13466 134.010482 
C 148.536718 133.412539 147.725619 133.076571 146.88 133.076571 
C 146.034381 133.076571 145.223282 133.412539 144.62534 134.010482 
C 144.027397 134.608425 143.691429 135.419524 143.691429 136.265143 
C 143.691429 137.110762 144.027397 137.92186 144.62534 138.519803 
C 145.223282 139.117746 146.034381 139.453714 146.88 139.453714 
z
" style="fill:#009900;fill-opacity:0.5;stroke:#009900;stroke-linejoin:miter;stroke-width:2;"/>
   </g>
   <g id="patch_31">
    <path clip-path="url(#pd4bacc34a7)" d="M 121.371429 117.133714 
C 123.062667 117.133714 124.684864 116.461778 125.88075 115.265892 
C 127.076635 114.070006 127.748571 112.447809 127.748571 110.756571 
C 127.748571 109.065333 127.076635 107.443136 125.88075 106.24725 
C 124.684864 105.051365 123.062667 104.379429 121.371429 104.379429 
C 119.680191 104.379429 118.057994 105.051365 116.862108 106.24725 
C 115.666222 107.443136 114.994286 109.065333 114.994286 110.756571 
C 114.994286 112.447809 115.666222 114.070006 116.862108 115.265892 
C 118.057994 116.461778 119.680191 117.133714 121.371429 117.133714 
z
" style="fill:#9558b2;fill-opacity:0.5;stroke:#9558b2;stroke-linejoin:miter;stroke-width:2;"/>
   </g>
   <g id="patch_32">
    <path clip-path="url(#pd4bacc34a7)" d="M 146.88 113.945143 
C 147.725619 113.945143 148.536718 113.609175 149.13466 113.011232 
C 149.732603 112.413289 150.068571 111.60219 150.068571 110.756571 
C 150.068571 109.910952 149.732603 109.099854 149.13466 108.501911 
C 148.536718 107.903968 147.725619 107.568 146.88 107.568 
C 146.034381 107.568 145.223282 107.903968 144.62534 108.501911 
C 144.027397 109.099854 143.691429 109.910952 143.691429 110.756571 
C 143.691429 111.60219 144.027397 112.413289 144.62534 113.011232 
C 145.223282 113.609175 146.034381 113.945143 146.88 113.945143 
z
" style="fill:#009900;fill-opacity:0.5;stroke:#009900;stroke-linejoin:miter;stroke-width:2;"/>
   </g>
   <g id="patch_33">
    <path clip-path="url(#pd4bacc34a7)" d="M 121.371429 91.625143 
C 123.062667 91.625143 124.684864 90.953207 125.88075 89.757321 
C 127.076635 88.561435 127.748571 86.939238 127.748571 85.248 
C 127.748571 83.556762 127.076635 81.934565 125.88075 80.738679 
C 124.684864 79.542793 123.062667 78.870857 121.371429 78.870857 
C 119.680191 78.870857 118.057994 79.542793 116.862108 80.738679 
C 115.666222 81.934565 114.994286 83.556762 114.994286 85.248 
C 114.994286 86.939238 115.666222 88.561435 116.862108 89.757321 
C 118.057994 90.953207 119.680191 91.625143 121.371429 91.625143 
z
" style="fill:#9558b2;fill-opacity:0.5;stroke:#9558b2;stroke-linejoin:miter;stroke-width:2;"/>
   </g>
   <g id="patch_34">
    <path clip-path="url(#pd4bacc34a7)" d="M 146.88 88.436571 
C 147.725619 88.436571 148.536718 88.100603 149.13466 87.50266 
C 149.732603 86.904718 150.068571 86.093619 150.068571 85.248 
C 150.068571 84.402381 149.732603 83.591282 149.13466 82.99334 
C 148.536718 82.395397 147.725619 82.059429 146.88 82.059429 
C 146.034381 82.059429 145.223282 82.395397 144.62534 82.99334 
C 144.027397 83.591282 143.691429 84.402381 143.691429 85.248 
C 143.691429 86.093619 144.027397 86.904718 144.62534 87.50266 
C 145.223282 88.100603 146.034381 88.436571 146.88 88.436571 
z
" style="fill:#009900;fill-opacity:0.5;stroke:#009900;stroke-linejoin:miter;stroke-width:2;"/>
   </g>
   <g id="patch_35">
    <path clip-path="url(#pd4bacc34a7)" d="M 172.388571 270.185143 
C 174.079809 270.185143 175.702006 269.513207 176.897892 268.317321 
C 178.093778 267.121435 178.765714 265.499238 178.765714 263.808 
C 178.765714 262.116762 178.093778 260.494565 176.897892 259.298679 
C 175.702006 258.102793 174.079809 257.430857 172.388571 257.430857 
C 170.697333 257.430857 169.075136 258.102793 167.87925 259.298679 
C 166.683365 260.494565 166.011429 262.116762 166.011429 263.808 
C 166.011429 265.499238 166.683365 267.121435 167.87925 268.317321 
C 169.075136 269.513207 170.697333 270.185143 172.388571 270.185143 
z
" style="fill:#9558b2;fill-opacity:0.5;stroke:#9558b2;stroke-linejoin:miter;stroke-width:2;"/>
   </g>
   <g id="patch_36">
    <path clip-path="url(#pd4bacc34a7)" d="M 197.897143 266.996571 
C 198.742762 266.996571 199.55386 266.660603 200.151803 266.06266 
C 200.749746 265.464718 201.085714 264.653619 201.085714 263.808 
C 201.085714 262.962381 200.749746 262.151282 200.151803 261.55334 
C 199.55386 260.955397 198.742762 260.619429 197.897143 260.619429 
C 197.051524 260.619429 196.240425 260.955397 195.642482 261.55334 
C 195.044539 262.151282 194.708571 262.962381 194.708571 263.808 
C 194.708571 264.653619 195.044539 265.464718 195.642482 266.06266 
C 196.240425 266.660603 197.051524 266.996571 197.897143 266.996571 
z
" style="fill:#009900;fill-opacity:0.5;stroke:#009900;stroke-linejoin:miter;stroke-width:2;"/>
   </g>
   <g id="patch_37">
    <path clip-path="url(#pd4bacc34a7)" d="M 172.388571 244.676571 
C 174.079809 244.676571 175.702006 244.004635 176.897892 242.80875 
C 178.093778 241.612864 178.765714 239.990667 178.765714 238.299429 
C 178.765714 236.608191 178.093778 234.985994 176.897892 233.790108 
C 175.702006 232.594222 174.079809 231.922286 172.388571 231.922286 
C 170.697333 231.922286 169.075136 232.594222 167.87925 233.790108 
C 166.683365 234.985994 166.011429 236.608191 166.011429 238.299429 
C 166.011429 239.990667 166.683365 241.612864 167.87925 242.80875 
C 169.075136 244.004635 170.697333 244.676571 172.388571 244.676571 
z
" style="fill:#9558b2;fill-opacity:0.5;stroke:#9558b2;stroke-linejoin:miter;stroke-width:2;"/>
   </g>
   <g id="patch_38">
    <path clip-path="url(#pd4bacc34a7)" d="M 197.897143 241.488 
C 198.742762 241.488 199.55386 241.152032 200.151803 240.554089 
C 200.749746 239.956146 201.085714 239.145048 201.085714 238.299429 
C 201.085714 237.45381 200.749746 236.642711 200.151803 236.044768 
C 199.55386 235.446825 198.742762 235.110857 197.897143 235.110857 
C 197.051524 235.110857 196.240425 235.446825 195.642482 236.044768 
C 195.044539 236.642711 194.708571 237.45381 194.708571 238.299429 
C 194.708571 239.145048 195.044539 239.956146 195.642482 240.554089 
C 196.240425 241.152032 197.051524 241.488 197.897143 241.488 
z
" style="fill:#009900;fill-opacity:0.5;stroke:#009900;stroke-linejoin:miter;stroke-width:2;"/>
   </g>
   <g id="patch_39">
    <path clip-path="url(#pd4bacc34a7)" d="M 172.388571 219.168 
C 174.079809 219.168 175.702006 218.496064 176.897892 217.300178 
C 178.093778 216.104292 178.765714 214.482095 178.765714 212.790857 
C 178.765714 211.099619 178.093778 209.477422 176.897892 208.281536 
C 175.702006 207.08565 174.079809 206.413714 172.388571 206.413714 
C 170.697333 206.413714 169.075136 207.08565 167.87925 208.281536 
C 166.683365 209.477422 166.011429 211.099619 166.011429 212.790857 
C 166.011429 214.482095 166.683365 216.104292 167.87925 217.300178 
C 169.075136 218.496064 170.697333 219.168 172.388571 219.168 
z
" style="fill:#9558b2;fill-opacity:0.5;stroke:#9558b2;stroke-linejoin:miter;stroke-width:2;"/>
   </g>
   <g id="patch_40">
    <path clip-path="url(#pd4bacc34a7)" d="M 197.897143 215.979429 
C 198.742762 215.979429 199.55386 215.643461 200.151803 215.045518 
C 200.749746 214.447575 201.085714 213.636476 201.085714 212.790857 
C 201.085714 211.945238 200.749746 211.13414 200.151803 210.536197 
C 199.55386 209.938254 198.742762 209.602286 197.897143 209.602286 
C 197.051524 209.602286 196.240425 209.938254 195.642482 210.536197 
C 195.044539 211.13414 194.708571 211.945238 194.708571 212.790857 
C 194.708571 213.636476 195.044539 214.447575 195.642482 215.045518 
C 196.240425 215.643461 197.051524 215.979429 197.897143 215.979429 
z
" style="fill:#009900;fill-opacity:0.5;stroke:#009900;stroke-linejoin:miter;stroke-width:2;"/>
   </g>
   <g id="patch_41">
    <path clip-path="url(#pd4bacc34a7)" d="M 172.388571 193.659429 
C 174.079809 193.659429 175.702006 192.987493 176.897892 191.791607 
C 178.093778 190.595721 178.765714 188.973524 178.765714 187.282286 
C 178.765714 185.591048 178.093778 183.968851 176.897892 182.772965 
C 175.702006 181.577079 174.079809 180.905143 172.388571 180.905143 
C 170.697333 180.905143 169.075136 181.577079 167.87925 182.772965 
C 166.683365 183.968851 166.011429 185.591048 166.011429 187.282286 
C 166.011429 188.973524 166.683365 190.595721 167.87925 191.791607 
C 169.075136 192.987493 170.697333 193.659429 172.388571 193.659429 
z
" style="fill:#9558b2;fill-opacity:0.5;stroke:#9558b2;stroke-linejoin:miter;stroke-width:2;"/>
   </g>
   <g id="patch_42">
    <path clip-path="url(#pd4bacc34a7)" d="M 197.897143 190.470857 
C 198.742762 190.470857 199.55386 190.134889 200.151803 189.536946 
C 200.749746 188.939003 201.085714 188.127905 201.085714 187.282286 
C 201.085714 186.436667 200.749746 185.625568 200.151803 185.027625 
C 199.55386 184.429682 198.742762 184.093714 197.897143 184.093714 
C 197.051524 184.093714 196.240425 184.429682 195.642482 185.027625 
C 195.044539 185.625568 194.708571 186.436667 194.708571 187.282286 
C 194.708571 188.127905 195.044539 188.939003 195.642482 189.536946 
C 196.240425 190.134889 197.051524 190.470857 197.897143 190.470857 
z
" style="fill:#009900;fill-opacity:0.5;stroke:#009900;stroke-linejoin:miter;stroke-width:2;"/>
   </g>
   <g id="patch_43">
    <path clip-path="url(#pd4bacc34a7)" d="M 172.388571 168.150857 
C 174.079809 168.150857 175.702006 167.478921 176.897892 166.283035 
C 178.093778 165.087149 178.765714 163.464952 178.765714 161.773714 
C 178.765714 160.082476 178.093778 158.460279 176.897892 157.264393 
C 175.702006 156.068507 174.079809 155.396571 172.388571 155.396571 
C 170.697333 155.396571 169.075136 156.068507 167.87925 157.264393 
C 166.683365 158.460279 166.011429 160.082476 166.011429 161.773714 
C 166.011429 163.464952 166.683365 165.087149 167.87925 166.283035 
C 169.075136 167.478921 170.697333 168.150857 172.388571 168.150857 
z
" style="fill:#9558b2;fill-opacity:0.5;stroke:#9558b2;stroke-linejoin:miter;stroke-width:2;"/>
   </g>
   <g id="patch_44">
    <path clip-path="url(#pd4bacc34a7)" d="M 197.897143 164.962286 
C 198.742762 164.962286 199.55386 164.626318 200.151803 164.028375 
C 200.749746 163.430432 201.085714 162.619333 201.085714 161.773714 
C 201.085714 160.928095 200.749746 160.116997 200.151803 159.519054 
C 199.55386 158.921111 198.742762 158.585143 197.897143 158.585143 
C 197.051524 158.585143 196.240425 158.921111 195.642482 159.519054 
C 195.044539 160.116997 194.708571 160.928095 194.708571 161.773714 
C 194.708571 162.619333 195.044539 163.430432 195.642482 164.028375 
C 196.240425 164.626318 197.051524 164.962286 197.897143 164.962286 
z
" style="fill:#009900;fill-opacity:0.5;stroke:#009900;stroke-linejoin:miter;stroke-width:2;"/>
   </g>
   <g id="patch_45">
    <path clip-path="url(#pd4bacc34a7)" d="M 172.388571 142.642286 
C 174.079809 142.642286 175.702006 141.97035 176.897892 140.774464 
C 178.093778 139.578578 178.765714 137.956381 178.765714 136.265143 
C 178.765714 134.573905 178.093778 132.951708 176.897892 131.755822 
C 175.702006 130.559936 174.079809 129.888 172.388571 129.888 
C 170.697333 129.888 169.075136 130.559936 167.87925 131.755822 
C 166.683365 132.951708 166.011429 134.573905 166.011429 136.265143 
C 166.011429 137.956381 166.683365 139.578578 167.87925 140.774464 
C 169.075136 141.97035 170.697333 142.642286 172.388571 142.642286 
z
" style="fill:#9558b2;fill-opacity:0.5;stroke:#9558b2;stroke-linejoin:miter;stroke-width:2;"/>
   </g>
   <g id="patch_46">
    <path clip-path="url(#pd4bacc34a7)" d="M 197.897143 139.453714 
C 198.742762 139.453714 199.55386 139.117746 200.151803 138.519803 
C 200.749746 137.92186 201.085714 137.110762 201.085714 136.265143 
C 201.085714 135.419524 200.749746 134.608425 200.151803 134.010482 
C 199.55386 133.412539 198.742762 133.076571 197.897143 133.076571 
C 197.051524 133.076571 196.240425 133.412539 195.642482 134.010482 
C 195.044539 134.608425 194.708571 135.419524 194.708571 136.265143 
C 194.708571 137.110762 195.044539 137.92186 195.642482 138.519803 
C 196.240425 139.117746 197.051524 139.453714 197.897143 139.453714 
z
" style="fill:#009900;fill-opacity:0.5;stroke:#009900;stroke-linejoin:miter;stroke-width:2;"/>
   </g>
   <g id="patch_47">
    <path clip-path="url(#pd4bacc34a7)" d="M 172.388571 117.133714 
C 174.079809 117.133714 175.702006 116.461778 176.897892 115.265892 
C 178.093778 114.070006 178.765714 112.447809 178.765714 110.756571 
C 178.765714 109.065333 178.093778 107.443136 176.897892 106.24725 
C 175.702006 105.051365 174.079809 104.379429 172.388571 104.379429 
C 170.697333 104.379429 169.075136 105.051365 167.87925 106.24725 
C 166.683365 107.443136 166.011429 109.065333 166.011429 110.756571 
C 166.011429 112.447809 166.683365 114.070006 167.87925 115.265892 
C 169.075136 116.461778 170.697333 117.133714 172.388571 117.133714 
z
" style="fill:#9558b2;fill-opacity:0.5;stroke:#9558b2;stroke-linejoin:miter;stroke-width:2;"/>
   </g>
   <g id="patch_48">
    <path clip-path="url(#pd4bacc34a7)" d="M 197.897143 113.945143 
C 198.742762 113.945143 199.55386 113.609175 200.151803 113.011232 
C 200.749746 112.413289 201.085714 111.60219 201.085714 110.756571 
C 201.085714 109.910952 200.749746 109.099854 200.151803 108.501911 
C 199.55386 107.903968 198.742762 107.568 197.897143 107.568 
C 197.051524 107.568 196.240425 107.903968 195.642482 108.501911 
C 195.044539 109.099854 194.708571 109.910952 194.708571 110.756571 
C 194.708571 111.60219 195.044539 112.413289 195.642482 113.011232 
C 196.240425 113.609175 197.051524 113.945143 197.897143 113.945143 
z
" style="fill:#009900;fill-opacity:0.5;stroke:#009900;stroke-linejoin:miter;stroke-width:2;"/>
   </g>
   <g id="patch_49">
    <path clip-path="url(#pd4bacc34a7)" d="M 172.388571 91.625143 
C 174.079809 91.625143 175.702006 90.953207 176.897892 89.757321 
C 178.093778 88.561435 178.765714 86.939238 178.765714 85.248 
C 178.765714 83.556762 178.093778 81.934565 176.897892 80.738679 
C 175.702006 79.542793 174.079809 78.870857 172.388571 78.870857 
C 170.697333 78.870857 169.075136 79.542793 167.87925 80.738679 
C 166.683365 81.934565 166.011429 83.556762 166.011429 85.248 
C 166.011429 86.939238 166.683365 88.561435 167.87925 89.757321 
C 169.075136 90.953207 170.697333 91.625143 172.388571 91.625143 
z
" style="fill:#9558b2;fill-opacity:0.5;stroke:#9558b2;stroke-linejoin:miter;stroke-width:2;"/>
   </g>
   <g id="patch_50">
    <path clip-path="url(#pd4bacc34a7)" d="M 197.897143 88.436571 
C 198.742762 88.436571 199.55386 88.100603 200.151803 87.50266 
C 200.749746 86.904718 201.085714 86.093619 201.085714 85.248 
C 201.085714 84.402381 200.749746 83.591282 200.151803 82.99334 
C 199.55386 82.395397 198.742762 82.059429 197.897143 82.059429 
C 197.051524 82.059429 196.240425 82.395397 195.642482 82.99334 
C 195.044539 83.591282 194.708571 84.402381 194.708571 85.248 
C 194.708571 86.093619 195.044539 86.904718 195.642482 87.50266 
C 196.240425 88.100603 197.051524 88.436571 197.897143 88.436571 
z
" style="fill:#009900;fill-opacity:0.5;stroke:#009900;stroke-linejoin:miter;stroke-width:2;"/>
   </g>
   <g id="patch_51">
    <path clip-path="url(#pd4bacc34a7)" d="M 223.405714 270.185143 
C 225.096952 270.185143 226.719149 269.513207 227.915035 268.317321 
C 229.110921 267.121435 229.782857 265.499238 229.782857 263.808 
C 229.782857 262.116762 229.110921 260.494565 227.915035 259.298679 
C 226.719149 258.102793 225.096952 257.430857 223.405714 257.430857 
C 221.714476 257.430857 220.092279 258.102793 218.896393 259.298679 
C 217.700507 260.494565 217.028571 262.116762 217.028571 263.808 
C 217.028571 265.499238 217.700507 267.121435 218.896393 268.317321 
C 220.092279 269.513207 221.714476 270.185143 223.405714 270.185143 
z
" style="fill:#9558b2;fill-opacity:0.5;stroke:#9558b2;stroke-linejoin:miter;stroke-width:2;"/>
   </g>
   <g id="patch_52">
    <path clip-path="url(#pd4bacc34a7)" d="M 248.914286 266.996571 
C 249.759905 266.996571 250.571003 266.660603 251.168946 266.06266 
C 251.766889 265.464718 252.102857 264.653619 252.102857 263.808 
C 252.102857 262.962381 251.766889 262.151282 251.168946 261.55334 
C 250.571003 260.955397 249.759905 260.619429 248.914286 260.619429 
C 248.068667 260.619429 247.257568 260.955397 246.659625 261.55334 
C 246.061682 262.151282 245.725714 262.962381 245.725714 263.808 
C 245.725714 264.653619 246.061682 265.464718 246.659625 266.06266 
C 247.257568 266.660603 248.068667 266.996571 248.914286 266.996571 
z
" style="fill:#009900;fill-opacity:0.5;stroke:#009900;stroke-linejoin:miter;stroke-width:2;"/>
   </g>
   <g id="patch_53">
    <path clip-path="url(#pd4bacc34a7)" d="M 223.405714 244.676571 
C 225.096952 244.676571 226.719149 244.004635 227.915035 242.80875 
C 229.110921 241.612864 229.782857 239.990667 229.782857 238.299429 
C 229.782857 236.608191 229.110921 234.985994 227.915035 233.790108 
C 226.719149 232.594222 225.096952 231.922286 223.405714 231.922286 
C 221.714476 231.922286 220.092279 232.594222 218.896393 233.790108 
C 217.700507 234.985994 217.028571 236.608191 217.028571 238.299429 
C 217.028571 239.990667 217.700507 241.612864 218.896393 242.80875 
C 220.092279 244.004635 221.714476 244.676571 223.405714 244.676571 
z
" style="fill:#9558b2;fill-opacity:0.5;stroke:#9558b2;stroke-linejoin:miter;stroke-width:2;"/>
   </g>
   <g id="patch_54">
    <path clip-path="url(#pd4bacc34a7)" d="M 248.914286 241.488 
C 249.759905 241.488 250.571003 241.152032 251.168946 240.554089 
C 251.766889 239.956146 252.102857 239.145048 252.102857 238.299429 
C 252.102857 237.45381 251.766889 236.642711 251.168946 236.044768 
C 250.571003 235.446825 249.759905 235.110857 248.914286 235.110857 
C 248.068667 235.110857 247.257568 235.446825 246.659625 236.044768 
C 246.061682 236.642711 245.725714 237.45381 245.725714 238.299429 
C 245.725714 239.145048 246.061682 239.956146 246.659625 240.554089 
C 247.257568 241.152032 248.068667 241.488 248.914286 241.488 
z
" style="fill:#009900;fill-opacity:0.5;stroke:#009900;stroke-linejoin:miter;stroke-width:2;"/>
   </g>
   <g id="patch_55">
    <path clip-path="url(#pd4bacc34a7)" d="M 223.405714 219.168 
C 225.096952 219.168 226.719149 218.496064 227.915035 217.300178 
C 229.110921 216.104292 229.782857 214.482095 229.782857 212.790857 
C 229.782857 211.099619 229.110921 209.477422 227.915035 208.281536 
C 226.719149 207.08565 225.096952 206.413714 223.405714 206.413714 
C 221.714476 206.413714 220.092279 207.08565 218.896393 208.281536 
C 217.700507 209.477422 217.028571 211.099619 217.028571 212.790857 
C 217.028571 214.482095 217.700507 216.104292 218.896393 217.300178 
C 220.092279 218.496064 221.714476 219.168 223.405714 219.168 
z
" style="fill:#9558b2;fill-opacity:0.5;stroke:#9558b2;stroke-linejoin:miter;stroke-width:2;"/>
   </g>
   <g id="patch_56">
    <path clip-path="url(#pd4bacc34a7)" d="M 248.914286 215.979429 
C 249.759905 215.979429 250.571003 215.643461 251.168946 215.045518 
C 251.766889 214.447575 252.102857 213.636476 252.102857 212.790857 
C 252.102857 211.945238 251.766889 211.13414 251.168946 210.536197 
C 250.571003 209.938254 249.759905 209.602286 248.914286 209.602286 
C 248.068667 209.602286 247.257568 209.938254 246.659625 210.536197 
C 246.061682 211.13414 245.725714 211.945238 245.725714 212.790857 
C 245.725714 213.636476 246.061682 214.447575 246.659625 215.045518 
C 247.257568 215.643461 248.068667 215.979429 248.914286 215.979429 
z
" style="fill:#009900;fill-opacity:0.5;stroke:#009900;stroke-linejoin:miter;stroke-width:2;"/>
   </g>
   <g id="patch_57">
    <path clip-path="url(#pd4bacc34a7)" d="M 223.405714 193.659429 
C 225.096952 193.659429 226.719149 192.987493 227.915035 191.791607 
C 229.110921 190.595721 229.782857 188.973524 229.782857 187.282286 
C 229.782857 185.591048 229.110921 183.968851 227.915035 182.772965 
C 226.719149 181.577079 225.096952 180.905143 223.405714 180.905143 
C 221.714476 180.905143 220.092279 181.577079 218.896393 182.772965 
C 217.700507 183.968851 217.028571 185.591048 217.028571 187.282286 
C 217.028571 188.973524 217.700507 190.595721 218.896393 191.791607 
C 220.092279 192.987493 221.714476 193.659429 223.405714 193.659429 
z
" style="fill:#9558b2;fill-opacity:0.5;stroke:#9558b2;stroke-linejoin:miter;stroke-width:2;"/>
   </g>
   <g id="patch_58">
    <path clip-path="url(#pd4bacc34a7)" d="M 248.914286 190.470857 
C 249.759905 190.470857 250.571003 190.134889 251.168946 189.536946 
C 251.766889 188.939003 252.102857 188.127905 252.102857 187.282286 
C 252.102857 186.436667 251.766889 185.625568 251.168946 185.027625 
C 250.571003 184.429682 249.759905 184.093714 248.914286 184.093714 
C 248.068667 184.093714 247.257568 184.429682 246.659625 185.027625 
C 246.061682 185.625568 245.725714 186.436667 245.725714 187.282286 
C 245.725714 188.127905 246.061682 188.939003 246.659625 189.536946 
C 247.257568 190.134889 248.068667 190.470857 248.914286 190.470857 
z
" style="fill:#009900;fill-opacity:0.5;stroke:#009900;stroke-linejoin:miter;stroke-width:2;"/>
   </g>
   <g id="patch_59">
    <path clip-path="url(#pd4bacc34a7)" d="M 223.405714 168.150857 
C 225.096952 168.150857 226.719149 167.478921 227.915035 166.283035 
C 229.110921 165.087149 229.782857 163.464952 229.782857 161.773714 
C 229.782857 160.082476 229.110921 158.460279 227.915035 157.264393 
C 226.719149 156.068507 225.096952 155.396571 223.405714 155.396571 
C 221.714476 155.396571 220.092279 156.068507 218.896393 157.264393 
C 217.700507 158.460279 217.028571 160.082476 217.028571 161.773714 
C 217.028571 163.464952 217.700507 165.087149 218.896393 166.283035 
C 220.092279 167.478921 221.714476 168.150857 223.405714 168.150857 
z
" style="fill:#9558b2;fill-opacity:0.5;stroke:#9558b2;stroke-linejoin:miter;stroke-width:2;"/>
   </g>
   <g id="patch_60">
    <path clip-path="url(#pd4bacc34a7)" d="M 248.914286 164.962286 
C 249.759905 164.962286 250.571003 164.626318 251.168946 164.028375 
C 251.766889 163.430432 252.102857 162.619333 252.102857 161.773714 
C 252.102857 160.928095 251.766889 160.116997 251.168946 159.519054 
C 250.571003 158.921111 249.759905 158.585143 248.914286 158.585143 
C 248.068667 158.585143 247.257568 158.921111 246.659625 159.519054 
C 246.061682 160.116997 245.725714 160.928095 245.725714 161.773714 
C 245.725714 162.619333 246.061682 163.430432 246.659625 164.028375 
C 247.257568 164.626318 248.068667 164.962286 248.914286 164.962286 
z
" style="fill:#009900;fill-opacity:0.5;stroke:#009900;stroke-linejoin:miter;stroke-width:2;"/>
   </g>
   <g id="patch_61">
    <path clip-path="url(#pd4bacc34a7)" d="M 223.405714 142.642286 
C 225.096952 142.642286 226.719149 141.97035 227.915035 140.774464 
C 229.110921 139.578578 229.782857 137.956381 229.782857 136.265143 
C 229.782857 134.573905 229.110921 132.951708 227.915035 131.755822 
C 226.719149 130.559936 225.096952 129.888 223.405714 129.888 
C 221.714476 129.888 220.092279 130.559936 218.896393 131.755822 
C 217.700507 132.951708 217.028571 134.573905 217.028571 136.265143 
C 217.028571 137.956381 217.700507 139.578578 218.896393 140.774464 
C 220.092279 141.97035 221.714476 142.642286 223.405714 142.642286 
z
" style="fill:#9558b2;fill-opacity:0.5;stroke:#9558b2;stroke-linejoin:miter;stroke-width:2;"/>
   </g>
   <g id="patch_62">
    <path clip-path="url(#pd4bacc34a7)" d="M 248.914286 139.453714 
C 249.759905 139.453714 250.571003 139.117746 251.168946 138.519803 
C 251.766889 137.92186 252.102857 137.110762 252.102857 136.265143 
C 252.102857 135.419524 251.766889 134.608425 251.168946 134.010482 
C 250.571003 133.412539 249.759905 133.076571 248.914286 133.076571 
C 248.068667 133.076571 247.257568 133.412539 246.659625 134.010482 
C 246.061682 134.608425 245.725714 135.419524 245.725714 136.265143 
C 245.725714 137.110762 246.061682 137.92186 246.659625 138.519803 
C 247.257568 139.117746 248.068667 139.453714 248.914286 139.453714 
z
" style="fill:#009900;fill-opacity:0.5;stroke:#009900;stroke-linejoin:miter;stroke-width:2;"/>
   </g>
   <g id="patch_63">
    <path clip-path="url(#pd4bacc34a7)" d="M 223.405714 117.133714 
C 225.096952 117.133714 226.719149 116.461778 227.915035 115.265892 
C 229.110921 114.070006 229.782857 112.447809 229.782857 110.756571 
C 229.782857 109.065333 229.110921 107.443136 227.915035 106.24725 
C 226.719149 105.051365 225.096952 104.379429 223.405714 104.379429 
C 221.714476 104.379429 220.092279 105.051365 218.896393 106.24725 
C 217.700507 107.443136 217.028571 109.065333 217.028571 110.756571 
C 217.028571 112.447809 217.700507 114.070006 218.896393 115.265892 
C 220.092279 116.461778 221.714476 117.133714 223.405714 117.133714 
z
" style="fill:#9558b2;fill-opacity:0.5;stroke:#9558b2;stroke-linejoin:miter;stroke-width:2;"/>
   </g>
   <g id="patch_64">
    <path clip-path="url(#pd4bacc34a7)" d="M 248.914286 113.945143 
C 249.759905 113.945143 250.571003 113.609175 251.168946 113.011232 
C 251.766889 112.413289 252.102857 111.60219 252.102857 110.756571 
C 252.102857 109.910952 251.766889 109.099854 251.168946 108.501911 
C 250.571003 107.903968 249.759905 107.568 248.914286 107.568 
C 248.068667 107.568 247.257568 107.903968 246.659625 108.501911 
C 246.061682 109.099854 245.725714 109.910952 245.725714 110.756571 
C 245.725714 111.60219 246.061682 112.413289 246.659625 113.011232 
C 247.257568 113.609175 248.068667 113.945143 248.914286 113.945143 
z
" style="fill:#009900;fill-opacity:0.5;stroke:#009900;stroke-linejoin:miter;stroke-width:2;"/>
   </g>
   <g id="patch_65">
    <path clip-path="url(#pd4bacc34a7)" d="M 223.405714 91.625143 
C 225.096952 91.625143 226.719149 90.953207 227.915035 89.757321 
C 229.110921 88.561435 229.782857 86.939238 229.782857 85.248 
C 229.782857 83.556762 229.110921 81.934565 227.915035 80.738679 
C 226.719149 79.542793 225.096952 78.870857 223.405714 78.870857 
C 221.714476 78.870857 220.092279 79.542793 218.896393 80.738679 
C 217.700507 81.934565 217.028571 83.556762 217.028571 85.248 
C 217.028571 86.939238 217.700507 88.561435 218.896393 89.757321 
C 220.092279 90.953207 221.714476 91.625143 223.405714 91.625143 
z
" style="fill:#9558b2;fill-opacity:0.5;stroke:#9558b2;stroke-linejoin:miter;stroke-width:2;"/>
   </g>
   <g id="patch_66">
    <path clip-path="url(#pd4bacc34a7)" d="M 248.914286 88.436571 
C 249.759905 88.436571 250.571003 88.100603 251.168946 87.50266 
C 251.766889 86.904718 252.102857 86.093619 252.102857 85.248 
C 252.102857 84.402381 251.766889 83.591282 251.168946 82.99334 
C 250.571003 82.395397 249.759905 82.059429 248.914286 82.059429 
C 248.068667 82.059429 247.257568 82.395397 246.659625 82.99334 
C 246.061682 83.591282 245.725714 84.402381 245.725714 85.248 
C 245.725714 86.093619 246.061682 86.904718 246.659625 87.50266 
C 247.257568 88.100603 248.068667 88.436571 248.914286 88.436571 
z
" style="fill:#009900;fill-opacity:0.5;stroke:#009900;stroke-linejoin:miter;stroke-width:2;"/>
   </g>
   <g id="patch_67">
    <path clip-path="url(#pd4bacc34a7)" d="M 274.422857 270.185143 
C 276.114095 270.185143 277.736292 269.513207 278.932178 268.317321 
C 280.128064 267.121435 280.8 265.499238 280.8 263.808 
C 280.8 262.116762 280.128064 260.494565 278.932178 259.298679 
C 277.736292 258.102793 276.114095 257.430857 274.422857 257.430857 
C 272.731619 257.430857 271.109422 258.102793 269.913536 259.298679 
C 268.71765 260.494565 268.045714 262.116762 268.045714 263.808 
C 268.045714 265.499238 268.71765 267.121435 269.913536 268.317321 
C 271.109422 269.513207 272.731619 270.185143 274.422857 270.185143 
z
" style="fill:#9558b2;fill-opacity:0.5;stroke:#9558b2;stroke-linejoin:miter;stroke-width:2;"/>
   </g>
   <g id="patch_68">
    <path clip-path="url(#pd4bacc34a7)" d="M 299.931429 266.996571 
C 300.777048 266.996571 301.588146 266.660603 302.186089 266.06266 
C 302.784032 265.464718 303.12 264.653619 303.12 263.808 
C 303.12 262.962381 302.784032 262.151282 302.186089 261.55334 
C 301.588146 260.955397 300.777048 260.619429 299.931429 260.619429 
C 299.08581 260.619429 298.274711 260.955397 297.676768 261.55334 
C 297.078825 262.151282 296.742857 262.962381 296.742857 263.808 
C 296.742857 264.653619 297.078825 265.464718 297.676768 266.06266 
C 298.274711 266.660603 299.08581 266.996571 299.931429 266.996571 
z
" style="fill:#009900;fill-opacity:0.5;stroke:#009900;stroke-linejoin:miter;stroke-width:2;"/>
   </g>
   <g id="patch_69">
    <path clip-path="url(#pd4bacc34a7)" d="M 274.422857 244.676571 
C 276.114095 244.676571 277.736292 244.004635 278.932178 242.80875 
C 280.128064 241.612864 280.8 239.990667 280.8 238.299429 
C 280.8 236.608191 280.128064 234.985994 278.932178 233.790108 
C 277.736292 232.594222 276.114095 231.922286 274.422857 231.922286 
C 272.731619 231.922286 271.109422 232.594222 269.913536 233.790108 
C 268.71765 234.985994 268.045714 236.608191 268.045714 238.299429 
C 268.045714 239.990667 268.71765 241.612864 269.913536 242.80875 
C 271.109422 244.004635 272.731619 244.676571 274.422857 244.676571 
z
" style="fill:#9558b2;fill-opacity:0.5;stroke:#9558b2;stroke-linejoin:miter;stroke-width:2;"/>
   </g>
   <g id="patch_70">
    <path clip-path="url(#pd4bacc34a7)" d="M 299.931429 241.488 
C 300.777048 241.488 301.588146 241.152032 302.186089 240.554089 
C 302.784032 239.956146 303.12 239.145048 303.12 238.299429 
C 303.12 237.45381 302.784032 236.642711 302.186089 236.044768 
C 301.588146 235.446825 300.777048 235.110857 299.931429 235.110857 
C 299.08581 235.110857 298.274711 235.446825 297.676768 236.044768 
C 297.078825 236.642711 296.742857 237.45381 296.742857 238.299429 
C 296.742857 239.145048 297.078825 239.956146 297.676768 240.554089 
C 298.274711 241.152032 299.08581 241.488 299.931429 241.488 
z
" style="fill:#009900;fill-opacity:0.5;stroke:#009900;stroke-linejoin:miter;stroke-width:2;"/>
   </g>
   <g id="patch_71">
    <path clip-path="url(#pd4bacc34a7)" d="M 274.422857 219.168 
C 276.114095 219.168 277.736292 218.496064 278.932178 217.300178 
C 280.128064 216.104292 280.8 214.482095 280.8 212.790857 
C 280.8 211.099619 280.128064 209.477422 278.932178 208.281536 
C 277.736292 207.08565 276.114095 206.413714 274.422857 206.413714 
C 272.731619 206.413714 271.109422 207.08565 269.913536 208.281536 
C 268.71765 209.477422 268.045714 211.099619 268.045714 212.790857 
C 268.045714 214.482095 268.71765 216.104292 269.913536 217.300178 
C 271.109422 218.496064 272.731619 219.168 274.422857 219.168 
z
" style="fill:#9558b2;fill-opacity:0.5;stroke:#9558b2;stroke-linejoin:miter;stroke-width:2;"/>
   </g>
   <g id="patch_72">
    <path clip-path="url(#pd4bacc34a7)" d="M 299.931429 215.979429 
C 300.777048 215.979429 301.588146 215.643461 302.186089 215.045518 
C 302.784032 214.447575 303.12 213.636476 303.12 212.790857 
C 303.12 211.945238 302.784032 211.13414 302.186089 210.536197 
C 301.588146 209.938254 300.777048 209.602286 299.931429 209.602286 
C 299.08581 209.602286 298.274711 209.938254 297.676768 210.536197 
C 297.078825 211.13414 296.742857 211.945238 296.742857 212.790857 
C 296.742857 213.636476 297.078825 214.447575 297.676768 215.045518 
C 298.274711 215.643461 299.08581 215.979429 299.931429 215.979429 
z
" style="fill:#009900;fill-opacity:0.5;stroke:#009900;stroke-linejoin:miter;stroke-width:2;"/>
   </g>
   <g id="patch_73">
    <path clip-path="url(#pd4bacc34a7)" d="M 274.422857 193.659429 
C 276.114095 193.659429 277.736292 192.987493 278.932178 191.791607 
C 280.128064 190.595721 280.8 188.973524 280.8 187.282286 
C 280.8 185.591048 280.128064 183.968851 278.932178 182.772965 
C 277.736292 181.577079 276.114095 180.905143 274.422857 180.905143 
C 272.731619 180.905143 271.109422 181.577079 269.913536 182.772965 
C 268.71765 183.968851 268.045714 185.591048 268.045714 187.282286 
C 268.045714 188.973524 268.71765 190.595721 269.913536 191.791607 
C 271.109422 192.987493 272.731619 193.659429 274.422857 193.659429 
z
" style="fill:#9558b2;fill-opacity:0.5;stroke:#9558b2;stroke-linejoin:miter;stroke-width:2;"/>
   </g>
   <g id="patch_74">
    <path clip-path="url(#pd4bacc34a7)" d="M 299.931429 190.470857 
C 300.777048 190.470857 301.588146 190.134889 302.186089 189.536946 
C 302.784032 188.939003 303.12 188.127905 303.12 187.282286 
C 303.12 186.436667 302.784032 185.625568 302.186089 185.027625 
C 301.588146 184.429682 300.777048 184.093714 299.931429 184.093714 
C 299.08581 184.093714 298.274711 184.429682 297.676768 185.027625 
C 297.078825 185.625568 296.742857 186.436667 296.742857 187.282286 
C 296.742857 188.127905 297.078825 188.939003 297.676768 189.536946 
C 298.274711 190.134889 299.08581 190.470857 299.931429 190.470857 
z
" style="fill:#009900;fill-opacity:0.5;stroke:#009900;stroke-linejoin:miter;stroke-width:2;"/>
   </g>
   <g id="patch_75">
    <path clip-path="url(#pd4bacc34a7)" d="M 274.422857 168.150857 
C 276.114095 168.150857 277.736292 167.478921 278.932178 166.283035 
C 280.128064 165.087149 280.8 163.464952 280.8 161.773714 
C 280.8 160.082476 280.128064 158.460279 278.932178 157.264393 
C 277.736292 156.068507 276.114095 155.396571 274.422857 155.396571 
C 272.731619 155.396571 271.109422 156.068507 269.913536 157.264393 
C 268.71765 158.460279 268.045714 160.082476 268.045714 161.773714 
C 268.045714 163.464952 268.71765 165.087149 269.913536 166.283035 
C 271.109422 167.478921 272.731619 168.150857 274.422857 168.150857 
z
" style="fill:#9558b2;fill-opacity:0.5;stroke:#9558b2;stroke-linejoin:miter;stroke-width:2;"/>
   </g>
   <g id="patch_76">
    <path clip-path="url(#pd4bacc34a7)" d="M 299.931429 164.962286 
C 300.777048 164.962286 301.588146 164.626318 302.186089 164.028375 
C 302.784032 163.430432 303.12 162.619333 303.12 161.773714 
C 303.12 160.928095 302.784032 160.116997 302.186089 159.519054 
C 301.588146 158.921111 300.777048 158.585143 299.931429 158.585143 
C 299.08581 158.585143 298.274711 158.921111 297.676768 159.519054 
C 297.078825 160.116997 296.742857 160.928095 296.742857 161.773714 
C 296.742857 162.619333 297.078825 163.430432 297.676768 164.028375 
C 298.274711 164.626318 299.08581 164.962286 299.931429 164.962286 
z
" style="fill:#009900;fill-opacity:0.5;stroke:#009900;stroke-linejoin:miter;stroke-width:2;"/>
   </g>
   <g id="patch_77">
    <path clip-path="url(#pd4bacc34a7)" d="M 274.422857 142.642286 
C 276.114095 142.642286 277.736292 141.97035 278.932178 140.774464 
C 280.128064 139.578578 280.8 137.956381 280.8 136.265143 
C 280.8 134.573905 280.128064 132.951708 278.932178 131.755822 
C 277.736292 130.559936 276.114095 129.888 274.422857 129.888 
C 272.731619 129.888 271.109422 130.559936 269.913536 131.755822 
C 268.71765 132.951708 268.045714 134.573905 268.045714 136.265143 
C 268.045714 137.956381 268.71765 139.578578 269.913536 140.774464 
C 271.109422 141.97035 272.731619 142.642286 274.422857 142.642286 
z
" style="fill:#9558b2;fill-opacity:0.5;stroke:#9558b2;stroke-linejoin:miter;stroke-width:2;"/>
   </g>
   <g id="patch_78">
    <path clip-path="url(#pd4bacc34a7)" d="M 299.931429 139.453714 
C 300.777048 139.453714 301.588146 139.117746 302.186089 138.519803 
C 302.784032 137.92186 303.12 137.110762 303.12 136.265143 
C 303.12 135.419524 302.784032 134.608425 302.186089 134.010482 
C 301.588146 133.412539 300.777048 133.076571 299.931429 133.076571 
C 299.08581 133.076571 298.274711 133.412539 297.676768 134.010482 
C 297.078825 134.608425 296.742857 135.419524 296.742857 136.265143 
C 296.742857 137.110762 297.078825 137.92186 297.676768 138.519803 
C 298.274711 139.117746 299.08581 139.453714 299.931429 139.453714 
z
" style="fill:#009900;fill-opacity:0.5;stroke:#009900;stroke-linejoin:miter;stroke-width:2;"/>
   </g>
   <g id="patch_79">
    <path clip-path="url(#pd4bacc34a7)" d="M 274.422857 117.133714 
C 276.114095 117.133714 277.736292 116.461778 278.932178 115.265892 
C 280.128064 114.070006 280.8 112.447809 280.8 110.756571 
C 280.8 109.065333 280.128064 107.443136 278.932178 106.24725 
C 277.736292 105.051365 276.114095 104.379429 274.422857 104.379429 
C 272.731619 104.379429 271.109422 105.051365 269.913536 106.24725 
C 268.71765 107.443136 268.045714 109.065333 268.045714 110.756571 
C 268.045714 112.447809 268.71765 114.070006 269.913536 115.265892 
C 271.109422 116.461778 272.731619 117.133714 274.422857 117.133714 
z
" style="fill:#9558b2;fill-opacity:0.5;stroke:#9558b2;stroke-linejoin:miter;stroke-width:2;"/>
   </g>
   <g id="patch_80">
    <path clip-path="url(#pd4bacc34a7)" d="M 299.931429 113.945143 
C 300.777048 113.945143 301.588146 113.609175 302.186089 113.011232 
C 302.784032 112.413289 303.12 111.60219 303.12 110.756571 
C 303.12 109.910952 302.784032 109.099854 302.186089 108.501911 
C 301.588146 107.903968 300.777048 107.568 299.931429 107.568 
C 299.08581 107.568 298.274711 107.903968 297.676768 108.501911 
C 297.078825 109.099854 296.742857 109.910952 296.742857 110.756571 
C 296.742857 111.60219 297.078825 112.413289 297.676768 113.011232 
C 298.274711 113.609175 299.08581 113.945143 299.931429 113.945143 
z
" style="fill:#009900;fill-opacity:0.5;stroke:#009900;stroke-linejoin:miter;stroke-width:2;"/>
   </g>
   <g id="patch_81">
    <path clip-path="url(#pd4bacc34a7)" d="M 274.422857 91.625143 
C 276.114095 91.625143 277.736292 90.953207 278.932178 89.757321 
C 280.128064 88.561435 280.8 86.939238 280.8 85.248 
C 280.8 83.556762 280.128064 81.934565 278.932178 80.738679 
C 277.736292 79.542793 276.114095 78.870857 274.422857 78.870857 
C 272.731619 78.870857 271.109422 79.542793 269.913536 80.738679 
C 268.71765 81.934565 268.045714 83.556762 268.045714 85.248 
C 268.045714 86.939238 268.71765 88.561435 269.913536 89.757321 
C 271.109422 90.953207 272.731619 91.625143 274.422857 91.625143 
z
" style="fill:#9558b2;fill-opacity:0.5;stroke:#9558b2;stroke-linejoin:miter;stroke-width:2;"/>
   </g>
   <g id="patch_82">
    <path clip-path="url(#pd4bacc34a7)" d="M 299.931429 88.436571 
C 300.777048 88.436571 301.588146 88.100603 302.186089 87.50266 
C 302.784032 86.904718 303.12 86.093619 303.12 85.248 
C 303.12 84.402381 302.784032 83.591282 302.186089 82.99334 
C 301.588146 82.395397 300.777048 82.059429 299.931429 82.059429 
C 299.08581 82.059429 298.274711 82.395397 297.676768 82.99334 
C 297.078825 83.591282 296.742857 84.402381 296.742857 85.248 
C 296.742857 86.093619 297.078825 86.904718 297.676768 87.50266 
C 298.274711 88.100603 299.08581 88.436571 299.931429 88.436571 
z
" style="fill:#009900;fill-opacity:0.5;stroke:#009900;stroke-linejoin:miter;stroke-width:2;"/>
   </g>
   <g id="patch_83">
    <path clip-path="url(#pd4bacc34a7)" d="M 325.44 270.185143 
C 327.131238 270.185143 328.753435 269.513207 329.949321 268.317321 
C 331.145207 267.121435 331.817143 265.499238 331.817143 263.808 
C 331.817143 262.116762 331.145207 260.494565 329.949321 259.298679 
C 328.753435 258.102793 327.131238 257.430857 325.44 257.430857 
C 323.748762 257.430857 322.126565 258.102793 320.930679 259.298679 
C 319.734793 260.494565 319.062857 262.116762 319.062857 263.808 
C 319.062857 265.499238 319.734793 267.121435 320.930679 268.317321 
C 322.126565 269.513207 323.748762 270.185143 325.44 270.185143 
z
" style="fill:#9558b2;fill-opacity:0.5;stroke:#9558b2;stroke-linejoin:miter;stroke-width:2;"/>
   </g>
   <g id="patch_84">
    <path clip-path="url(#pd4bacc34a7)" d="M 350.948571 266.996571 
C 351.79419 266.996571 352.605289 266.660603 353.203232 266.06266 
C 353.801175 265.464718 354.137143 264.653619 354.137143 263.808 
C 354.137143 262.962381 353.801175 262.151282 353.203232 261.55334 
C 352.605289 260.955397 351.79419 260.619429 350.948571 260.619429 
C 350.102952 260.619429 349.291854 260.955397 348.693911 261.55334 
C 348.095968 262.151282 347.76 262.962381 347.76 263.808 
C 347.76 264.653619 348.095968 265.464718 348.693911 266.06266 
C 349.291854 266.660603 350.102952 266.996571 350.948571 266.996571 
z
" style="fill:#009900;fill-opacity:0.5;stroke:#009900;stroke-linejoin:miter;stroke-width:2;"/>
   </g>
   <g id="patch_85">
    <path clip-path="url(#pd4bacc34a7)" d="M 325.44 244.676571 
C 327.131238 244.676571 328.753435 244.004635 329.949321 242.80875 
C 331.145207 241.612864 331.817143 239.990667 331.817143 238.299429 
C 331.817143 236.608191 331.145207 234.985994 329.949321 233.790108 
C 328.753435 232.594222 327.131238 231.922286 325.44 231.922286 
C 323.748762 231.922286 322.126565 232.594222 320.930679 233.790108 
C 319.734793 234.985994 319.062857 236.608191 319.062857 238.299429 
C 319.062857 239.990667 319.734793 241.612864 320.930679 242.80875 
C 322.126565 244.004635 323.748762 244.676571 325.44 244.676571 
z
" style="fill:#9558b2;fill-opacity:0.5;stroke:#9558b2;stroke-linejoin:miter;stroke-width:2;"/>
   </g>
   <g id="patch_86">
    <path clip-path="url(#pd4bacc34a7)" d="M 350.948571 241.488 
C 351.79419 241.488 352.605289 241.152032 353.203232 240.554089 
C 353.801175 239.956146 354.137143 239.145048 354.137143 238.299429 
C 354.137143 237.45381 353.801175 236.642711 353.203232 236.044768 
C 352.605289 235.446825 351.79419 235.110857 350.948571 235.110857 
C 350.102952 235.110857 349.291854 235.446825 348.693911 236.044768 
C 348.095968 236.642711 347.76 237.45381 347.76 238.299429 
C 347.76 239.145048 348.095968 239.956146 348.693911 240.554089 
C 349.291854 241.152032 350.102952 241.488 350.948571 241.488 
z
" style="fill:#009900;fill-opacity:0.5;stroke:#009900;stroke-linejoin:miter;stroke-width:2;"/>
   </g>
   <g id="patch_87">
    <path clip-path="url(#pd4bacc34a7)" d="M 325.44 219.168 
C 327.131238 219.168 328.753435 218.496064 329.949321 217.300178 
C 331.145207 216.104292 331.817143 214.482095 331.817143 212.790857 
C 331.817143 211.099619 331.145207 209.477422 329.949321 208.281536 
C 328.753435 207.08565 327.131238 206.413714 325.44 206.413714 
C 323.748762 206.413714 322.126565 207.08565 320.930679 208.281536 
C 319.734793 209.477422 319.062857 211.099619 319.062857 212.790857 
C 319.062857 214.482095 319.734793 216.104292 320.930679 217.300178 
C 322.126565 218.496064 323.748762 219.168 325.44 219.168 
z
" style="fill:#9558b2;fill-opacity:0.5;stroke:#9558b2;stroke-linejoin:miter;stroke-width:2;"/>
   </g>
   <g id="patch_88">
    <path clip-path="url(#pd4bacc34a7)" d="M 350.948571 215.979429 
C 351.79419 215.979429 352.605289 215.643461 353.203232 215.045518 
C 353.801175 214.447575 354.137143 213.636476 354.137143 212.790857 
C 354.137143 211.945238 353.801175 211.13414 353.203232 210.536197 
C 352.605289 209.938254 351.79419 209.602286 350.948571 209.602286 
C 350.102952 209.602286 349.291854 209.938254 348.693911 210.536197 
C 348.095968 211.13414 347.76 211.945238 347.76 212.790857 
C 347.76 213.636476 348.095968 214.447575 348.693911 215.045518 
C 349.291854 215.643461 350.102952 215.979429 350.948571 215.979429 
z
" style="fill:#009900;fill-opacity:0.5;stroke:#009900;stroke-linejoin:miter;stroke-width:2;"/>
   </g>
   <g id="patch_89">
    <path clip-path="url(#pd4bacc34a7)" d="M 325.44 193.659429 
C 327.131238 193.659429 328.753435 192.987493 329.949321 191.791607 
C 331.145207 190.595721 331.817143 188.973524 331.817143 187.282286 
C 331.817143 185.591048 331.145207 183.968851 329.949321 182.772965 
C 328.753435 181.577079 327.131238 180.905143 325.44 180.905143 
C 323.748762 180.905143 322.126565 181.577079 320.930679 182.772965 
C 319.734793 183.968851 319.062857 185.591048 319.062857 187.282286 
C 319.062857 188.973524 319.734793 190.595721 320.930679 191.791607 
C 322.126565 192.987493 323.748762 193.659429 325.44 193.659429 
z
" style="fill:#9558b2;fill-opacity:0.5;stroke:#9558b2;stroke-linejoin:miter;stroke-width:2;"/>
   </g>
   <g id="patch_90">
    <path clip-path="url(#pd4bacc34a7)" d="M 350.948571 190.470857 
C 351.79419 190.470857 352.605289 190.134889 353.203232 189.536946 
C 353.801175 188.939003 354.137143 188.127905 354.137143 187.282286 
C 354.137143 186.436667 353.801175 185.625568 353.203232 185.027625 
C 352.605289 184.429682 351.79419 184.093714 350.948571 184.093714 
C 350.102952 184.093714 349.291854 184.429682 348.693911 185.027625 
C 348.095968 185.625568 347.76 186.436667 347.76 187.282286 
C 347.76 188.127905 348.095968 188.939003 348.693911 189.536946 
C 349.291854 190.134889 350.102952 190.470857 350.948571 190.470857 
z
" style="fill:#009900;fill-opacity:0.5;stroke:#009900;stroke-linejoin:miter;stroke-width:2;"/>
   </g>
   <g id="patch_91">
    <path clip-path="url(#pd4bacc34a7)" d="M 325.44 168.150857 
C 327.131238 168.150857 328.753435 167.478921 329.949321 166.283035 
C 331.145207 165.087149 331.817143 163.464952 331.817143 161.773714 
C 331.817143 160.082476 331.145207 158.460279 329.949321 157.264393 
C 328.753435 156.068507 327.131238 155.396571 325.44 155.396571 
C 323.748762 155.396571 322.126565 156.068507 320.930679 157.264393 
C 319.734793 158.460279 319.062857 160.082476 319.062857 161.773714 
C 319.062857 163.464952 319.734793 165.087149 320.930679 166.283035 
C 322.126565 167.478921 323.748762 168.150857 325.44 168.150857 
z
" style="fill:#9558b2;fill-opacity:0.5;stroke:#9558b2;stroke-linejoin:miter;stroke-width:2;"/>
   </g>
   <g id="patch_92">
    <path clip-path="url(#pd4bacc34a7)" d="M 350.948571 164.962286 
C 351.79419 164.962286 352.605289 164.626318 353.203232 164.028375 
C 353.801175 163.430432 354.137143 162.619333 354.137143 161.773714 
C 354.137143 160.928095 353.801175 160.116997 353.203232 159.519054 
C 352.605289 158.921111 351.79419 158.585143 350.948571 158.585143 
C 350.102952 158.585143 349.291854 158.921111 348.693911 159.519054 
C 348.095968 160.116997 347.76 160.928095 347.76 161.773714 
C 347.76 162.619333 348.095968 163.430432 348.693911 164.028375 
C 349.291854 164.626318 350.102952 164.962286 350.948571 164.962286 
z
" style="fill:#009900;fill-opacity:0.5;stroke:#009900;stroke-linejoin:miter;stroke-width:2;"/>
   </g>
   <g id="patch_93">
    <path clip-path="url(#pd4bacc34a7)" d="M 325.44 142.642286 
C 327.131238 142.642286 328.753435 141.97035 329.949321 140.774464 
C 331.145207 139.578578 331.817143 137.956381 331.817143 136.265143 
C 331.817143 134.573905 331.145207 132.951708 329.949321 131.755822 
C 328.753435 130.559936 327.131238 129.888 325.44 129.888 
C 323.748762 129.888 322.126565 130.559936 320.930679 131.755822 
C 319.734793 132.951708 319.062857 134.573905 319.062857 136.265143 
C 319.062857 137.956381 319.734793 139.578578 320.930679 140.774464 
C 322.126565 141.97035 323.748762 142.642286 325.44 142.642286 
z
" style="fill:#9558b2;fill-opacity:0.5;stroke:#9558b2;stroke-linejoin:miter;stroke-width:2;"/>
   </g>
   <g id="patch_94">
    <path clip-path="url(#pd4bacc34a7)" d="M 350.948571 139.453714 
C 351.79419 139.453714 352.605289 139.117746 353.203232 138.519803 
C 353.801175 137.92186 354.137143 137.110762 354.137143 136.265143 
C 354.137143 135.419524 353.801175 134.608425 353.203232 134.010482 
C 352.605289 133.412539 351.79419 133.076571 350.948571 133.076571 
C 350.102952 133.076571 349.291854 133.412539 348.693911 134.010482 
C 348.095968 134.608425 347.76 135.419524 347.76 136.265143 
C 347.76 137.110762 348.095968 137.92186 348.693911 138.519803 
C 349.291854 139.117746 350.102952 139.453714 350.948571 139.453714 
z
" style="fill:#009900;fill-opacity:0.5;stroke:#009900;stroke-linejoin:miter;stroke-width:2;"/>
   </g>
   <g id="patch_95">
    <path clip-path="url(#pd4bacc34a7)" d="M 325.44 117.133714 
C 327.131238 117.133714 328.753435 116.461778 329.949321 115.265892 
C 331.145207 114.070006 331.817143 112.447809 331.817143 110.756571 
C 331.817143 109.065333 331.145207 107.443136 329.949321 106.24725 
C 328.753435 105.051365 327.131238 104.379429 325.44 104.379429 
C 323.748762 104.379429 322.126565 105.051365 320.930679 106.24725 
C 319.734793 107.443136 319.062857 109.065333 319.062857 110.756571 
C 319.062857 112.447809 319.734793 114.070006 320.930679 115.265892 
C 322.126565 116.461778 323.748762 117.133714 325.44 117.133714 
z
" style="fill:#9558b2;fill-opacity:0.5;stroke:#9558b2;stroke-linejoin:miter;stroke-width:2;"/>
   </g>
   <g id="patch_96">
    <path clip-path="url(#pd4bacc34a7)" d="M 350.948571 113.945143 
C 351.79419 113.945143 352.605289 113.609175 353.203232 113.011232 
C 353.801175 112.413289 354.137143 111.60219 354.137143 110.756571 
C 354.137143 109.910952 353.801175 109.099854 353.203232 108.501911 
C 352.605289 107.903968 351.79419 107.568 350.948571 107.568 
C 350.102952 107.568 349.291854 107.903968 348.693911 108.501911 
C 348.095968 109.099854 347.76 109.910952 347.76 110.756571 
C 347.76 111.60219 348.095968 112.413289 348.693911 113.011232 
C 349.291854 113.609175 350.102952 113.945143 350.948571 113.945143 
z
" style="fill:#009900;fill-opacity:0.5;stroke:#009900;stroke-linejoin:miter;stroke-width:2;"/>
   </g>
   <g id="patch_97">
    <path clip-path="url(#pd4bacc34a7)" d="M 325.44 91.625143 
C 327.131238 91.625143 328.753435 90.953207 329.949321 89.757321 
C 331.145207 88.561435 331.817143 86.939238 331.817143 85.248 
C 331.817143 83.556762 331.145207 81.934565 329.949321 80.738679 
C 328.753435 79.542793 327.131238 78.870857 325.44 78.870857 
C 323.748762 78.870857 322.126565 79.542793 320.930679 80.738679 
C 319.734793 81.934565 319.062857 83.556762 319.062857 85.248 
C 319.062857 86.939238 319.734793 88.561435 320.930679 89.757321 
C 322.126565 90.953207 323.748762 91.625143 325.44 91.625143 
z
" style="fill:#9558b2;fill-opacity:0.5;stroke:#9558b2;stroke-linejoin:miter;stroke-width:2;"/>
   </g>
   <g id="patch_98">
    <path clip-path="url(#pd4bacc34a7)" d="M 350.948571 88.436571 
C 351.79419 88.436571 352.605289 88.100603 353.203232 87.50266 
C 353.801175 86.904718 354.137143 86.093619 354.137143 85.248 
C 354.137143 84.402381 353.801175 83.591282 353.203232 82.99334 
C 352.605289 82.395397 351.79419 82.059429 350.948571 82.059429 
C 350.102952 82.059429 349.291854 82.395397 348.693911 82.99334 
C 348.095968 83.591282 347.76 84.402381 347.76 85.248 
C 347.76 86.093619 348.095968 86.904718 348.693911 87.50266 
C 349.291854 88.100603 350.102952 88.436571 350.948571 88.436571 
z
" style="fill:#009900;fill-opacity:0.5;stroke:#009900;stroke-linejoin:miter;stroke-width:2;"/>
   </g>
   <g id="patch_99">
    <path clip-path="url(#pd4bacc34a7)" d="M 376.457143 270.185143 
C 378.148381 270.185143 379.770578 269.513207 380.966464 268.317321 
C 382.16235 267.121435 382.834286 265.499238 382.834286 263.808 
C 382.834286 262.116762 382.16235 260.494565 380.966464 259.298679 
C 379.770578 258.102793 378.148381 257.430857 376.457143 257.430857 
C 374.765905 257.430857 373.143708 258.102793 371.947822 259.298679 
C 370.751936 260.494565 370.08 262.116762 370.08 263.808 
C 370.08 265.499238 370.751936 267.121435 371.947822 268.317321 
C 373.143708 269.513207 374.765905 270.185143 376.457143 270.185143 
z
" style="fill:#9558b2;fill-opacity:0.5;stroke:#9558b2;stroke-linejoin:miter;stroke-width:2;"/>
   </g>
   <g id="patch_100">
    <path clip-path="url(#pd4bacc34a7)" d="M 401.965714 266.996571 
C 402.811333 266.996571 403.622432 266.660603 404.220375 266.06266 
C 404.818318 265.464718 405.154286 264.653619 405.154286 263.808 
C 405.154286 262.962381 404.818318 262.151282 404.220375 261.55334 
C 403.622432 260.955397 402.811333 260.619429 401.965714 260.619429 
C 401.120095 260.619429 400.308997 260.955397 399.711054 261.55334 
C 399.113111 262.151282 398.777143 262.962381 398.777143 263.808 
C 398.777143 264.653619 399.113111 265.464718 399.711054 266.06266 
C 400.308997 266.660603 401.120095 266.996571 401.965714 266.996571 
z
" style="fill:#009900;fill-opacity:0.5;stroke:#009900;stroke-linejoin:miter;stroke-width:2;"/>
   </g>
   <g id="patch_101">
    <path clip-path="url(#pd4bacc34a7)" d="M 376.457143 244.676571 
C 378.148381 244.676571 379.770578 244.004635 380.966464 242.80875 
C 382.16235 241.612864 382.834286 239.990667 382.834286 238.299429 
C 382.834286 236.608191 382.16235 234.985994 380.966464 233.790108 
C 379.770578 232.594222 378.148381 231.922286 376.457143 231.922286 
C 374.765905 231.922286 373.143708 232.594222 371.947822 233.790108 
C 370.751936 234.985994 370.08 236.608191 370.08 238.299429 
C 370.08 239.990667 370.751936 241.612864 371.947822 242.80875 
C 373.143708 244.004635 374.765905 244.676571 376.457143 244.676571 
z
" style="fill:#9558b2;fill-opacity:0.5;stroke:#9558b2;stroke-linejoin:miter;stroke-width:2;"/>
   </g>
   <g id="patch_102">
    <path clip-path="url(#pd4bacc34a7)" d="M 401.965714 241.488 
C 402.811333 241.488 403.622432 241.152032 404.220375 240.554089 
C 404.818318 239.956146 405.154286 239.145048 405.154286 238.299429 
C 405.154286 237.45381 404.818318 236.642711 404.220375 236.044768 
C 403.622432 235.446825 402.811333 235.110857 401.965714 235.110857 
C 401.120095 235.110857 400.308997 235.446825 399.711054 236.044768 
C 399.113111 236.642711 398.777143 237.45381 398.777143 238.299429 
C 398.777143 239.145048 399.113111 239.956146 399.711054 240.554089 
C 400.308997 241.152032 401.120095 241.488 401.965714 241.488 
z
" style="fill:#009900;fill-opacity:0.5;stroke:#009900;stroke-linejoin:miter;stroke-width:2;"/>
   </g>
   <g id="patch_103">
    <path clip-path="url(#pd4bacc34a7)" d="M 376.457143 219.168 
C 378.148381 219.168 379.770578 218.496064 380.966464 217.300178 
C 382.16235 216.104292 382.834286 214.482095 382.834286 212.790857 
C 382.834286 211.099619 382.16235 209.477422 380.966464 208.281536 
C 379.770578 207.08565 378.148381 206.413714 376.457143 206.413714 
C 374.765905 206.413714 373.143708 207.08565 371.947822 208.281536 
C 370.751936 209.477422 370.08 211.099619 370.08 212.790857 
C 370.08 214.482095 370.751936 216.104292 371.947822 217.300178 
C 373.143708 218.496064 374.765905 219.168 376.457143 219.168 
z
" style="fill:#9558b2;fill-opacity:0.5;stroke:#9558b2;stroke-linejoin:miter;stroke-width:2;"/>
   </g>
   <g id="patch_104">
    <path clip-path="url(#pd4bacc34a7)" d="M 401.965714 215.979429 
C 402.811333 215.979429 403.622432 215.643461 404.220375 215.045518 
C 404.818318 214.447575 405.154286 213.636476 405.154286 212.790857 
C 405.154286 211.945238 404.818318 211.13414 404.220375 210.536197 
C 403.622432 209.938254 402.811333 209.602286 401.965714 209.602286 
C 401.120095 209.602286 400.308997 209.938254 399.711054 210.536197 
C 399.113111 211.13414 398.777143 211.945238 398.777143 212.790857 
C 398.777143 213.636476 399.113111 214.447575 399.711054 215.045518 
C 400.308997 215.643461 401.120095 215.979429 401.965714 215.979429 
z
" style="fill:#009900;fill-opacity:0.5;stroke:#009900;stroke-linejoin:miter;stroke-width:2;"/>
   </g>
   <g id="patch_105">
    <path clip-path="url(#pd4bacc34a7)" d="M 376.457143 193.659429 
C 378.148381 193.659429 379.770578 192.987493 380.966464 191.791607 
C 382.16235 190.595721 382.834286 188.973524 382.834286 187.282286 
C 382.834286 185.591048 382.16235 183.968851 380.966464 182.772965 
C 379.770578 181.577079 378.148381 180.905143 376.457143 180.905143 
C 374.765905 180.905143 373.143708 181.577079 371.947822 182.772965 
C 370.751936 183.968851 370.08 185.591048 370.08 187.282286 
C 370.08 188.973524 370.751936 190.595721 371.947822 191.791607 
C 373.143708 192.987493 374.765905 193.659429 376.457143 193.659429 
z
" style="fill:#9558b2;fill-opacity:0.5;stroke:#9558b2;stroke-linejoin:miter;stroke-width:2;"/>
   </g>
   <g id="patch_106">
    <path clip-path="url(#pd4bacc34a7)" d="M 401.965714 190.470857 
C 402.811333 190.470857 403.622432 190.134889 404.220375 189.536946 
C 404.818318 188.939003 405.154286 188.127905 405.154286 187.282286 
C 405.154286 186.436667 404.818318 185.625568 404.220375 185.027625 
C 403.622432 184.429682 402.811333 184.093714 401.965714 184.093714 
C 401.120095 184.093714 400.308997 184.429682 399.711054 185.027625 
C 399.113111 185.625568 398.777143 186.436667 398.777143 187.282286 
C 398.777143 188.127905 399.113111 188.939003 399.711054 189.536946 
C 400.308997 190.134889 401.120095 190.470857 401.965714 190.470857 
z
" style="fill:#009900;fill-opacity:0.5;stroke:#009900;stroke-linejoin:miter;stroke-width:2;"/>
   </g>
   <g id="patch_107">
    <path clip-path="url(#pd4bacc34a7)" d="M 376.457143 168.150857 
C 378.148381 168.150857 379.770578 167.478921 380.966464 166.283035 
C 382.16235 165.087149 382.834286 163.464952 382.834286 161.773714 
C 382.834286 160.082476 382.16235 158.460279 380.966464 157.264393 
C 379.770578 156.068507 378.148381 155.396571 376.457143 155.396571 
C 374.765905 155.396571 373.143708 156.068507 371.947822 157.264393 
C 370.751936 158.460279 370.08 160.082476 370.08 161.773714 
C 370.08 163.464952 370.751936 165.087149 371.947822 166.283035 
C 373.143708 167.478921 374.765905 168.150857 376.457143 168.150857 
z
" style="fill:#9558b2;fill-opacity:0.5;stroke:#9558b2;stroke-linejoin:miter;stroke-width:2;"/>
   </g>
   <g id="patch_108">
    <path clip-path="url(#pd4bacc34a7)" d="M 401.965714 164.962286 
C 402.811333 164.962286 403.622432 164.626318 404.220375 164.028375 
C 404.818318 163.430432 405.154286 162.619333 405.154286 161.773714 
C 405.154286 160.928095 404.818318 160.116997 404.220375 159.519054 
C 403.622432 158.921111 402.811333 158.585143 401.965714 158.585143 
C 401.120095 158.585143 400.308997 158.921111 399.711054 159.519054 
C 399.113111 160.116997 398.777143 160.928095 398.777143 161.773714 
C 398.777143 162.619333 399.113111 163.430432 399.711054 164.028375 
C 400.308997 164.626318 401.120095 164.962286 401.965714 164.962286 
z
" style="fill:#009900;fill-opacity:0.5;stroke:#009900;stroke-linejoin:miter;stroke-width:2;"/>
   </g>
   <g id="patch_109">
    <path clip-path="url(#pd4bacc34a7)" d="M 376.457143 142.642286 
C 378.148381 142.642286 379.770578 141.97035 380.966464 140.774464 
C 382.16235 139.578578 382.834286 137.956381 382.834286 136.265143 
C 382.834286 134.573905 382.16235 132.951708 380.966464 131.755822 
C 379.770578 130.559936 378.148381 129.888 376.457143 129.888 
C 374.765905 129.888 373.143708 130.559936 371.947822 131.755822 
C 370.751936 132.951708 370.08 134.573905 370.08 136.265143 
C 370.08 137.956381 370.751936 139.578578 371.947822 140.774464 
C 373.143708 141.97035 374.765905 142.642286 376.457143 142.642286 
z
" style="fill:#9558b2;fill-opacity:0.5;stroke:#9558b2;stroke-linejoin:miter;stroke-width:2;"/>
   </g>
   <g id="patch_110">
    <path clip-path="url(#pd4bacc34a7)" d="M 401.965714 139.453714 
C 402.811333 139.453714 403.622432 139.117746 404.220375 138.519803 
C 404.818318 137.92186 405.154286 137.110762 405.154286 136.265143 
C 405.154286 135.419524 404.818318 134.608425 404.220375 134.010482 
C 403.622432 133.412539 402.811333 133.076571 401.965714 133.076571 
C 401.120095 133.076571 400.308997 133.412539 399.711054 134.010482 
C 399.113111 134.608425 398.777143 135.419524 398.777143 136.265143 
C 398.777143 137.110762 399.113111 137.92186 399.711054 138.519803 
C 400.308997 139.117746 401.120095 139.453714 401.965714 139.453714 
z
" style="fill:#009900;fill-opacity:0.5;stroke:#009900;stroke-linejoin:miter;stroke-width:2;"/>
   </g>
   <g id="patch_111">
    <path clip-path="url(#pd4bacc34a7)" d="M 376.457143 117.133714 
C 378.148381 117.133714 379.770578 116.461778 380.966464 115.265892 
C 382.16235 114.070006 382.834286 112.447809 382.834286 110.756571 
C 382.834286 109.065333 382.16235 107.443136 380.966464 106.24725 
C 379.770578 105.051365 378.148381 104.379429 376.457143 104.379429 
C 374.765905 104.379429 373.143708 105.051365 371.947822 106.24725 
C 370.751936 107.443136 370.08 109.065333 370.08 110.756571 
C 370.08 112.447809 370.751936 114.070006 371.947822 115.265892 
C 373.143708 116.461778 374.765905 117.133714 376.457143 117.133714 
z
" style="fill:#9558b2;fill-opacity:0.5;stroke:#9558b2;stroke-linejoin:miter;stroke-width:2;"/>
   </g>
   <g id="patch_112">
    <path clip-path="url(#pd4bacc34a7)" d="M 401.965714 113.945143 
C 402.811333 113.945143 403.622432 113.609175 404.220375 113.011232 
C 404.818318 112.413289 405.154286 111.60219 405.154286 110.756571 
C 405.154286 109.910952 404.818318 109.099854 404.220375 108.501911 
C 403.622432 107.903968 402.811333 107.568 401.965714 107.568 
C 401.120095 107.568 400.308997 107.903968 399.711054 108.501911 
C 399.113111 109.099854 398.777143 109.910952 398.777143 110.756571 
C 398.777143 111.60219 399.113111 112.413289 399.711054 113.011232 
C 400.308997 113.609175 401.120095 113.945143 401.965714 113.945143 
z
" style="fill:#009900;fill-opacity:0.5;stroke:#009900;stroke-linejoin:miter;stroke-width:2;"/>
   </g>
   <g id="patch_113">
    <path clip-path="url(#pd4bacc34a7)" d="M 376.457143 91.625143 
C 378.148381 91.625143 379.770578 90.953207 380.966464 89.757321 
C 382.16235 88.561435 382.834286 86.939238 382.834286 85.248 
C 382.834286 83.556762 382.16235 81.934565 380.966464 80.738679 
C 379.770578 79.542793 378.148381 78.870857 376.457143 78.870857 
C 374.765905 78.870857 373.143708 79.542793 371.947822 80.738679 
C 370.751936 81.934565 370.08 83.556762 370.08 85.248 
C 370.08 86.939238 370.751936 88.561435 371.947822 89.757321 
C 373.143708 90.953207 374.765905 91.625143 376.457143 91.625143 
z
" style="fill:#9558b2;fill-opacity:0.5;stroke:#9558b2;stroke-linejoin:miter;stroke-width:2;"/>
   </g>
   <g id="patch_114">
    <path clip-path="url(#pd4bacc34a7)" d="M 401.965714 88.436571 
C 402.811333 88.436571 403.622432 88.100603 404.220375 87.50266 
C 404.818318 86.904718 405.154286 86.093619 405.154286 85.248 
C 405.154286 84.402381 404.818318 83.591282 404.220375 82.99334 
C 403.622432 82.395397 402.811333 82.059429 401.965714 82.059429 
C 401.120095 82.059429 400.308997 82.395397 399.711054 82.99334 
C 399.113111 83.591282 398.777143 84.402381 398.777143 85.248 
C 398.777143 86.093619 399.113111 86.904718 399.711054 87.50266 
C 400.308997 88.100603 401.120095 88.436571 401.965714 88.436571 
z
" style="fill:#009900;fill-opacity:0.5;stroke:#009900;stroke-linejoin:miter;stroke-width:2;"/>
   </g>
   <g id="matplotlib.axis_1">
    <g id="xtick_1">
     <g id="line2d_1">
      <defs>
       <path d="M 0 0 
L 0 3.5 
" id="m25f59c410e" style="stroke:#000000;stroke-width:0.8;"/>
      </defs>
      <g>
       <use style="stroke:#000000;stroke-width:0.8;" x="57.6" xlink:href="#m25f59c410e" y="276.562286"/>
      </g>
     </g>
     <g id="text_1">
      <!-- 12 -->
      <defs>
       <path d="M 10.59375 35.5 
L 73.1875 35.5 
L 73.1875 27.203125 
L 10.59375 27.203125 
z
" id="DejaVuSans-2212"/>
       <path d="M 12.40625 8.296875 
L 28.515625 8.296875 
L 28.515625 63.921875 
L 10.984375 60.40625 
L 10.984375 69.390625 
L 28.421875 72.90625 
L 38.28125 72.90625 
L 38.28125 8.296875 
L 54.390625 8.296875 
L 54.390625 0 
L 12.40625 0 
z
" id="DejaVuSans-31"/>
       <path d="M 19.1875 8.296875 
L 53.609375 8.296875 
L 53.609375 0 
L 7.328125 0 
L 7.328125 8.296875 
Q 12.9375 14.109375 22.625 23.890625 
Q 32.328125 33.6875 34.8125 36.53125 
Q 39.546875 41.84375 41.421875 45.53125 
Q 43.3125 49.21875 43.3125 52.78125 
Q 43.3125 58.59375 39.234375 62.25 
Q 35.15625 65.921875 28.609375 65.921875 
Q 23.96875 65.921875 18.8125 64.3125 
Q 13.671875 62.703125 7.8125 59.421875 
L 7.8125 69.390625 
Q 13.765625 71.78125 18.9375 73 
Q 24.125 74.21875 28.421875 74.21875 
Q 39.75 74.21875 46.484375 68.546875 
Q 53.21875 62.890625 53.21875 53.421875 
Q 53.21875 48.921875 51.53125 44.890625 
Q 49.859375 40.875 45.40625 35.40625 
Q 44.1875 33.984375 37.640625 27.21875 
Q 31.109375 20.453125 19.1875 8.296875 
z
" id="DejaVuSans-32"/>
      </defs>
      <g transform="translate(47.047656 291.160723)scale(0.1 -0.1)">
       <use xlink:href="#DejaVuSans-2212"/>
       <use x="83.789062" xlink:href="#DejaVuSans-31"/>
       <use x="147.412109" xlink:href="#DejaVuSans-32"/>
      </g>
     </g>
    </g>
    <g id="xtick_2">
     <g id="line2d_2">
      <g>
       <use style="stroke:#000000;stroke-width:0.8;" x="108.617143" xlink:href="#m25f59c410e" y="276.562286"/>
      </g>
     </g>
     <g id="text_2">
      <!-- 10 -->
      <defs>
       <path d="M 31.78125 66.40625 
Q 24.171875 66.40625 20.328125 58.90625 
Q 16.5 51.421875 16.5 36.375 
Q 16.5 21.390625 20.328125 13.890625 
Q 24.171875 6.390625 31.78125 6.390625 
Q 39.453125 6.390625 43.28125 13.890625 
Q 47.125 21.390625 47.125 36.375 
Q 47.125 51.421875 43.28125 58.90625 
Q 39.453125 66.40625 31.78125 66.40625 
z
M 31.78125 74.21875 
Q 44.046875 74.21875 50.515625 64.515625 
Q 56.984375 54.828125 56.984375 36.375 
Q 56.984375 17.96875 50.515625 8.265625 
Q 44.046875 -1.421875 31.78125 -1.421875 
Q 19.53125 -1.421875 13.0625 8.265625 
Q 6.59375 17.96875 6.59375 36.375 
Q 6.59375 54.828125 13.0625 64.515625 
Q 19.53125 74.21875 31.78125 74.21875 
z
" id="DejaVuSans-30"/>
      </defs>
      <g transform="translate(98.064799 291.160723)scale(0.1 -0.1)">
       <use xlink:href="#DejaVuSans-2212"/>
       <use x="83.789062" xlink:href="#DejaVuSans-31"/>
       <use x="147.412109" xlink:href="#DejaVuSans-30"/>
      </g>
     </g>
    </g>
    <g id="xtick_3">
     <g id="line2d_3">
      <g>
       <use style="stroke:#000000;stroke-width:0.8;" x="159.634286" xlink:href="#m25f59c410e" y="276.562286"/>
      </g>
     </g>
     <g id="text_3">
      <!-- 8 -->
      <defs>
       <path d="M 31.78125 34.625 
Q 24.75 34.625 20.71875 30.859375 
Q 16.703125 27.09375 16.703125 20.515625 
Q 16.703125 13.921875 20.71875 10.15625 
Q 24.75 6.390625 31.78125 6.390625 
Q 38.8125 6.390625 42.859375 10.171875 
Q 46.921875 13.96875 46.921875 20.515625 
Q 46.921875 27.09375 42.890625 30.859375 
Q 38.875 34.625 31.78125 34.625 
z
M 21.921875 38.8125 
Q 15.578125 40.375 12.03125 44.71875 
Q 8.5 49.078125 8.5 55.328125 
Q 8.5 64.0625 14.71875 69.140625 
Q 20.953125 74.21875 31.78125 74.21875 
Q 42.671875 74.21875 48.875 69.140625 
Q 55.078125 64.0625 55.078125 55.328125 
Q 55.078125 49.078125 51.53125 44.71875 
Q 48 40.375 41.703125 38.8125 
Q 48.828125 37.15625 52.796875 32.3125 
Q 56.78125 27.484375 56.78125 20.515625 
Q 56.78125 9.90625 50.3125 4.234375 
Q 43.84375 -1.421875 31.78125 -1.421875 
Q 19.734375 -1.421875 13.25 4.234375 
Q 6.78125 9.90625 6.78125 20.515625 
Q 6.78125 27.484375 10.78125 32.3125 
Q 14.796875 37.15625 21.921875 38.8125 
z
M 18.3125 54.390625 
Q 18.3125 48.734375 21.84375 45.5625 
Q 25.390625 42.390625 31.78125 42.390625 
Q 38.140625 42.390625 41.71875 45.5625 
Q 45.3125 48.734375 45.3125 54.390625 
Q 45.3125 60.0625 41.71875 63.234375 
Q 38.140625 66.40625 31.78125 66.40625 
Q 25.390625 66.40625 21.84375 63.234375 
Q 18.3125 60.0625 18.3125 54.390625 
z
" id="DejaVuSans-38"/>
      </defs>
      <g transform="translate(152.263192 291.160723)scale(0.1 -0.1)">
       <use xlink:href="#DejaVuSans-2212"/>
       <use x="83.789062" xlink:href="#DejaVuSans-38"/>
      </g>
     </g>
    </g>
    <g id="xtick_4">
     <g id="line2d_4">
      <g>
       <use style="stroke:#000000;stroke-width:0.8;" x="210.651429" xlink:href="#m25f59c410e" y="276.562286"/>
      </g>
     </g>
     <g id="text_4">
      <!-- 6 -->
      <defs>
       <path d="M 33.015625 40.375 
Q 26.375 40.375 22.484375 35.828125 
Q 18.609375 31.296875 18.609375 23.390625 
Q 18.609375 15.53125 22.484375 10.953125 
Q 26.375 6.390625 33.015625 6.390625 
Q 39.65625 6.390625 43.53125 10.953125 
Q 47.40625 15.53125 47.40625 23.390625 
Q 47.40625 31.296875 43.53125 35.828125 
Q 39.65625 40.375 33.015625 40.375 
z
M 52.59375 71.296875 
L 52.59375 62.3125 
Q 48.875 64.0625 45.09375 64.984375 
Q 41.3125 65.921875 37.59375 65.921875 
Q 27.828125 65.921875 22.671875 59.328125 
Q 17.53125 52.734375 16.796875 39.40625 
Q 19.671875 43.65625 24.015625 45.921875 
Q 28.375 48.1875 33.59375 48.1875 
Q 44.578125 48.1875 50.953125 41.515625 
Q 57.328125 34.859375 57.328125 23.390625 
Q 57.328125 12.15625 50.6875 5.359375 
Q 44.046875 -1.421875 33.015625 -1.421875 
Q 20.359375 -1.421875 13.671875 8.265625 
Q 6.984375 17.96875 6.984375 36.375 
Q 6.984375 53.65625 15.1875 63.9375 
Q 23.390625 74.21875 37.203125 74.21875 
Q 40.921875 74.21875 44.703125 73.484375 
Q 48.484375 72.75 52.59375 71.296875 
z
" id="DejaVuSans-36"/>
      </defs>
      <g transform="translate(203.280335 291.160723)scale(0.1 -0.1)">
       <use xlink:href="#DejaVuSans-2212"/>
       <use x="83.789062" xlink:href="#DejaVuSans-36"/>
      </g>
     </g>
    </g>
    <g id="xtick_5">
     <g id="line2d_5">
      <g>
       <use style="stroke:#000000;stroke-width:0.8;" x="261.668571" xlink:href="#m25f59c410e" y="276.562286"/>
      </g>
     </g>
     <g id="text_5">
      <!-- 4 -->
      <defs>
       <path d="M 37.796875 64.3125 
L 12.890625 25.390625 
L 37.796875 25.390625 
z
M 35.203125 72.90625 
L 47.609375 72.90625 
L 47.609375 25.390625 
L 58.015625 25.390625 
L 58.015625 17.1875 
L 47.609375 17.1875 
L 47.609375 0 
L 37.796875 0 
L 37.796875 17.1875 
L 4.890625 17.1875 
L 4.890625 26.703125 
z
" id="DejaVuSans-34"/>
      </defs>
      <g transform="translate(254.297478 291.160723)scale(0.1 -0.1)">
       <use xlink:href="#DejaVuSans-2212"/>
       <use x="83.789062" xlink:href="#DejaVuSans-34"/>
      </g>
     </g>
    </g>
    <g id="xtick_6">
     <g id="line2d_6">
      <g>
       <use style="stroke:#000000;stroke-width:0.8;" x="312.685714" xlink:href="#m25f59c410e" y="276.562286"/>
      </g>
     </g>
     <g id="text_6">
      <!-- 2 -->
      <g transform="translate(305.314621 291.160723)scale(0.1 -0.1)">
       <use xlink:href="#DejaVuSans-2212"/>
       <use x="83.789062" xlink:href="#DejaVuSans-32"/>
      </g>
     </g>
    </g>
    <g id="xtick_7">
     <g id="line2d_7">
      <g>
       <use style="stroke:#000000;stroke-width:0.8;" x="363.702857" xlink:href="#m25f59c410e" y="276.562286"/>
      </g>
     </g>
     <g id="text_7">
      <!-- 0 -->
      <g transform="translate(360.521607 291.160723)scale(0.1 -0.1)">
       <use xlink:href="#DejaVuSans-30"/>
      </g>
     </g>
    </g>
    <g id="xtick_8">
     <g id="line2d_8">
      <g>
       <use style="stroke:#000000;stroke-width:0.8;" x="414.72" xlink:href="#m25f59c410e" y="276.562286"/>
      </g>
     </g>
     <g id="text_8">
      <!-- 2 -->
      <g transform="translate(411.53875 291.160723)scale(0.1 -0.1)">
       <use xlink:href="#DejaVuSans-32"/>
      </g>
     </g>
    </g>
   </g>
   <g id="matplotlib.axis_2">
    <g id="ytick_1">
     <g id="line2d_9">
      <defs>
       <path d="M 0 0 
L -3.5 0 
" id="m35205394d8" style="stroke:#000000;stroke-width:0.8;"/>
      </defs>
      <g>
       <use style="stroke:#000000;stroke-width:0.8;" x="57.6" xlink:href="#m35205394d8" y="276.562286"/>
      </g>
     </g>
     <g id="text_9">
      <!-- 6 -->
      <g transform="translate(35.857813 280.361504)scale(0.1 -0.1)">
       <use xlink:href="#DejaVuSans-2212"/>
       <use x="83.789062" xlink:href="#DejaVuSans-36"/>
      </g>
     </g>
    </g>
    <g id="ytick_2">
     <g id="line2d_10">
      <g>
       <use style="stroke:#000000;stroke-width:0.8;" x="57.6" xlink:href="#m35205394d8" y="251.053714"/>
      </g>
     </g>
     <g id="text_10">
      <!-- 5 -->
      <defs>
       <path d="M 10.796875 72.90625 
L 49.515625 72.90625 
L 49.515625 64.59375 
L 19.828125 64.59375 
L 19.828125 46.734375 
Q 21.96875 47.46875 24.109375 47.828125 
Q 26.265625 48.1875 28.421875 48.1875 
Q 40.625 48.1875 47.75 41.5 
Q 54.890625 34.8125 54.890625 23.390625 
Q 54.890625 11.625 47.5625 5.09375 
Q 40.234375 -1.421875 26.90625 -1.421875 
Q 22.3125 -1.421875 17.546875 -0.640625 
Q 12.796875 0.140625 7.71875 1.703125 
L 7.71875 11.625 
Q 12.109375 9.234375 16.796875 8.0625 
Q 21.484375 6.890625 26.703125 6.890625 
Q 35.15625 6.890625 40.078125 11.328125 
Q 45.015625 15.765625 45.015625 23.390625 
Q 45.015625 31 40.078125 35.4375 
Q 35.15625 39.890625 26.703125 39.890625 
Q 22.75 39.890625 18.8125 39.015625 
Q 14.890625 38.140625 10.796875 36.28125 
z
" id="DejaVuSans-35"/>
      </defs>
      <g transform="translate(35.857813 254.852933)scale(0.1 -0.1)">
       <use xlink:href="#DejaVuSans-2212"/>
       <use x="83.789062" xlink:href="#DejaVuSans-35"/>
      </g>
     </g>
    </g>
    <g id="ytick_3">
     <g id="line2d_11">
      <g>
       <use style="stroke:#000000;stroke-width:0.8;" x="57.6" xlink:href="#m35205394d8" y="225.545143"/>
      </g>
     </g>
     <g id="text_11">
      <!-- 4 -->
      <g transform="translate(35.857813 229.344362)scale(0.1 -0.1)">
       <use xlink:href="#DejaVuSans-2212"/>
       <use x="83.789062" xlink:href="#DejaVuSans-34"/>
      </g>
     </g>
    </g>
    <g id="ytick_4">
     <g id="line2d_12">
      <g>
       <use style="stroke:#000000;stroke-width:0.8;" x="57.6" xlink:href="#m35205394d8" y="200.036571"/>
      </g>
     </g>
     <g id="text_12">
      <!-- 3 -->
      <defs>
       <path d="M 40.578125 39.3125 
Q 47.65625 37.796875 51.625 33 
Q 55.609375 28.21875 55.609375 21.1875 
Q 55.609375 10.40625 48.1875 4.484375 
Q 40.765625 -1.421875 27.09375 -1.421875 
Q 22.515625 -1.421875 17.65625 -0.515625 
Q 12.796875 0.390625 7.625 2.203125 
L 7.625 11.71875 
Q 11.71875 9.328125 16.59375 8.109375 
Q 21.484375 6.890625 26.8125 6.890625 
Q 36.078125 6.890625 40.9375 10.546875 
Q 45.796875 14.203125 45.796875 21.1875 
Q 45.796875 27.640625 41.28125 31.265625 
Q 36.765625 34.90625 28.71875 34.90625 
L 20.21875 34.90625 
L 20.21875 43.015625 
L 29.109375 43.015625 
Q 36.375 43.015625 40.234375 45.921875 
Q 44.09375 48.828125 44.09375 54.296875 
Q 44.09375 59.90625 40.109375 62.90625 
Q 36.140625 65.921875 28.71875 65.921875 
Q 24.65625 65.921875 20.015625 65.03125 
Q 15.375 64.15625 9.8125 62.3125 
L 9.8125 71.09375 
Q 15.4375 72.65625 20.34375 73.4375 
Q 25.25 74.21875 29.59375 74.21875 
Q 40.828125 74.21875 47.359375 69.109375 
Q 53.90625 64.015625 53.90625 55.328125 
Q 53.90625 49.265625 50.4375 45.09375 
Q 46.96875 40.921875 40.578125 39.3125 
z
" id="DejaVuSans-33"/>
      </defs>
      <g transform="translate(35.857813 203.83579)scale(0.1 -0.1)">
       <use xlink:href="#DejaVuSans-2212"/>
       <use x="83.789062" xlink:href="#DejaVuSans-33"/>
      </g>
     </g>
    </g>
    <g id="ytick_5">
     <g id="line2d_13">
      <g>
       <use style="stroke:#000000;stroke-width:0.8;" x="57.6" xlink:href="#m35205394d8" y="174.528"/>
      </g>
     </g>
     <g id="text_13">
      <!-- 2 -->
      <g transform="translate(35.857813 178.327219)scale(0.1 -0.1)">
       <use xlink:href="#DejaVuSans-2212"/>
       <use x="83.789062" xlink:href="#DejaVuSans-32"/>
      </g>
     </g>
    </g>
    <g id="ytick_6">
     <g id="line2d_14">
      <g>
       <use style="stroke:#000000;stroke-width:0.8;" x="57.6" xlink:href="#m35205394d8" y="149.019429"/>
      </g>
     </g>
     <g id="text_14">
      <!-- 1 -->
      <g transform="translate(35.857813 152.818647)scale(0.1 -0.1)">
       <use xlink:href="#DejaVuSans-2212"/>
       <use x="83.789062" xlink:href="#DejaVuSans-31"/>
      </g>
     </g>
    </g>
    <g id="ytick_7">
     <g id="line2d_15">
      <g>
       <use style="stroke:#000000;stroke-width:0.8;" x="57.6" xlink:href="#m35205394d8" y="123.510857"/>
      </g>
     </g>
     <g id="text_15">
      <!-- 0 -->
      <g transform="translate(44.2375 127.310076)scale(0.1 -0.1)">
       <use xlink:href="#DejaVuSans-30"/>
      </g>
     </g>
    </g>
    <g id="ytick_8">
     <g id="line2d_16">
      <g>
       <use style="stroke:#000000;stroke-width:0.8;" x="57.6" xlink:href="#m35205394d8" y="98.002286"/>
      </g>
     </g>
     <g id="text_16">
      <!-- 1 -->
      <g transform="translate(44.2375 101.801504)scale(0.1 -0.1)">
       <use xlink:href="#DejaVuSans-31"/>
      </g>
     </g>
    </g>
    <g id="ytick_9">
     <g id="line2d_17">
      <g>
       <use style="stroke:#000000;stroke-width:0.8;" x="57.6" xlink:href="#m35205394d8" y="72.493714"/>
      </g>
     </g>
     <g id="text_17">
      <!-- 2 -->
      <g transform="translate(44.2375 76.292933)scale(0.1 -0.1)">
       <use xlink:href="#DejaVuSans-32"/>
      </g>
     </g>
    </g>
   </g>
   <g id="line2d_18">
    <path clip-path="url(#pd4bacc34a7)" d="M 387.463707 105.546214 
L 382.073023 107.735009 
L 379.552636 90.823471 
L 373.76781 104.974233 
L 301.944658 87.720629 
L 302.619631 109.041767 
L 350.405333 133.123188 
L 370.267545 112.291769 
L 350.460729 133.114112 
L 275.034295 91.595763 
L 229.27135 113.259023 
L 270.720996 115.949276 
L 269.581865 132.113909 
L 200.129617 159.497084 
L 217.427039 112.975444 
L 200.941397 109.808149 
L 219.871166 90.556005 
L 178.135815 88.011539 
L 194.957748 135.029446 
L 76.278164 189.643561 
L 117.909081 258.45262 
" style="fill:none;stroke:#1f77b4;stroke-linecap:square;stroke-width:1.5;"/>
   </g>
   <g id="patch_115">
    <path d="M 57.6 276.562286 
L 57.6 72.493714 
" style="fill:none;stroke:#000000;stroke-linecap:square;stroke-linejoin:miter;stroke-width:0.8;"/>
   </g>
   <g id="patch_116">
    <path d="M 414.72 276.562286 
L 414.72 72.493714 
" style="fill:none;stroke:#000000;stroke-linecap:square;stroke-linejoin:miter;stroke-width:0.8;"/>
   </g>
   <g id="patch_117">
    <path d="M 57.6 276.562286 
L 414.72 276.562286 
" style="fill:none;stroke:#000000;stroke-linecap:square;stroke-linejoin:miter;stroke-width:0.8;"/>
   </g>
   <g id="patch_118">
    <path d="M 57.6 72.493714 
L 414.72 72.493714 
" style="fill:none;stroke:#000000;stroke-linecap:square;stroke-linejoin:miter;stroke-width:0.8;"/>
   </g>
  </g>
 </g>
 <defs>
  <clipPath id="pd4bacc34a7">
   <rect height="204.068571" width="357.12" x="57.6" y="72.493714"/>
  </clipPath>
 </defs>
</svg>
