<?xml version="1.0" encoding="utf-8" standalone="no"?>
<!DOCTYPE svg PUBLIC "-//W3C//DTD SVG 1.1//EN"
  "http://www.w3.org/Graphics/SVG/1.1/DTD/svg11.dtd">
<!-- Created with matplotlib (http://matplotlib.org/) -->
<svg height="345.6pt" version="1.1" viewBox="0 0 460.8 345.6" width="460.8pt" xmlns="http://www.w3.org/2000/svg" xmlns:xlink="http://www.w3.org/1999/xlink">
 <defs>
  <style type="text/css">
*{stroke-linecap:butt;stroke-linejoin:round;}
  </style>
 </defs>
 <g id="figure_1">
  <g id="patch_1">
   <path d="M 0 345.6 
L 460.8 345.6 
L 460.8 0 
L 0 0 
z
" style="fill:#ffffff;"/>
  </g>
  <g id="axes_1">
   <g id="patch_2">
    <path d="M 58.235441 307.584 
L 414.084559 307.584 
L 414.084559 41.472 
L 58.235441 41.472 
z
" style="fill:#ffffff;"/>
   </g>
   <g id="PathCollection_1">
    <defs>
     <path d="M 0 3 
C 0.795609 3 1.55874 2.683901 2.12132 2.12132 
C 2.683901 1.55874 3 0.795609 3 0 
C 3 -0.795609 2.683901 -1.55874 2.12132 -2.12132 
C 1.55874 -2.683901 0.795609 -3 0 -3 
C -0.795609 -3 -1.55874 -2.683901 -2.12132 -2.12132 
C -2.683901 -1.55874 -3 -0.795609 -3 0 
C -3 0.795609 -2.683901 1.55874 -2.12132 2.12132 
C -1.55874 2.683901 -0.795609 3 0 3 
z
" id="m0453b5cebd" style="stroke:#000000;"/>
    </defs>
    <g clip-path="url(#p48a213f13e)">
     <use style="stroke:#000000;" x="161.203543" xlink:href="#m0453b5cebd" y="287.746917"/>
    </g>
   </g>
   <g id="PathCollection_2">
    <defs>
     <path d="M 0 2.738613 
C 0.726289 2.738613 1.422928 2.450055 1.936492 1.936492 
C 2.450055 1.422928 2.738613 0.726289 2.738613 0 
C 2.738613 -0.726289 2.450055 -1.422928 1.936492 -1.936492 
C 1.422928 -2.450055 0.726289 -2.738613 0 -2.738613 
C -0.726289 -2.738613 -1.422928 -2.450055 -1.936492 -1.936492 
C -2.450055 -1.422928 -2.738613 -0.726289 -2.738613 0 
C -2.738613 0.726289 -2.450055 1.422928 -1.936492 1.936492 
C -1.422928 2.450055 -0.726289 2.738613 0 2.738613 
z
" id="m80dcd2a1be" style="stroke:#000000;"/>
    </defs>
    <g clip-path="url(#p48a213f13e)">
     <use style="stroke:#000000;" x="352.261329" xlink:href="#m80dcd2a1be" y="172.557232"/>
    </g>
   </g>
   <g id="Quiver_1">
    <path clip-path="url(#p48a213f13e)" d="M 352.127466 173.436726 
L 331.899106 170.357886 
L 332.510875 172.250736 
L 324.117524 168.273628 
L 333.314051 166.973773 
L 332.166832 168.598898 
L 352.395191 171.677738 
L 352.127466 173.436726 
"/>
   </g>
   <g id="patch_3">
    <path clip-path="url(#p48a213f13e)" d="M 83.332582 303.395601 
C 85.334441 303.395601 87.254578 302.600254 88.670106 301.184726 
C 90.085634 299.769198 90.880981 297.849061 90.880981 295.847202 
C 90.880981 293.845344 90.085634 291.925206 88.670106 290.509679 
C 87.254578 289.094151 85.334441 288.298804 83.332582 288.298804 
C 81.330723 288.298804 79.410586 289.094151 77.995058 290.509679 
C 76.57953 291.925206 75.784183 293.845344 75.784183 295.847202 
C 75.784183 297.849061 76.57953 299.769198 77.995058 301.184726 
C 79.410586 302.600254 81.330723 303.395601 83.332582 303.395601 
z
" style="fill:#9558b2;fill-opacity:0.5;stroke:#9558b2;stroke-linejoin:miter;stroke-width:2;"/>
   </g>
   <g id="patch_4">
    <path clip-path="url(#p48a213f13e)" d="M 113.526177 299.621402 
C 114.527106 299.621402 115.487175 299.223728 116.194939 298.515964 
C 116.902703 297.8082 117.300376 296.848132 117.300376 295.847202 
C 117.300376 294.846273 116.902703 293.886204 116.194939 293.17844 
C 115.487175 292.470677 114.527106 292.073003 113.526177 292.073003 
C 112.525248 292.073003 111.565179 292.470677 110.857415 293.17844 
C 110.149651 293.886204 109.751978 294.846273 109.751978 295.847202 
C 109.751978 296.848132 110.149651 297.8082 110.857415 298.515964 
C 111.565179 299.223728 112.525248 299.621402 113.526177 299.621402 
z
" style="fill:#009900;fill-opacity:0.5;stroke:#009900;stroke-linejoin:miter;stroke-width:2;"/>
   </g>
   <g id="patch_5">
    <path clip-path="url(#p48a213f13e)" d="M 83.332582 273.202006 
C 85.334441 273.202006 87.254578 272.406659 88.670106 270.991132 
C 90.085634 269.575604 90.880981 267.655466 90.880981 265.653608 
C 90.880981 263.651749 90.085634 261.731612 88.670106 260.316084 
C 87.254578 258.900556 85.334441 258.105209 83.332582 258.105209 
C 81.330723 258.105209 79.410586 258.900556 77.995058 260.316084 
C 76.57953 261.731612 75.784183 263.651749 75.784183 265.653608 
C 75.784183 267.655466 76.57953 269.575604 77.995058 270.991132 
C 79.410586 272.406659 81.330723 273.202006 83.332582 273.202006 
z
" style="fill:#9558b2;fill-opacity:0.5;stroke:#9558b2;stroke-linejoin:miter;stroke-width:2;"/>
   </g>
   <g id="patch_6">
    <path clip-path="url(#p48a213f13e)" d="M 113.526177 269.427807 
C 114.527106 269.427807 115.487175 269.030134 116.194939 268.32237 
C 116.902703 267.614606 117.300376 266.654537 117.300376 265.653608 
C 117.300376 264.652678 116.902703 263.69261 116.194939 262.984846 
C 115.487175 262.277082 114.527106 261.879408 113.526177 261.879408 
C 112.525248 261.879408 111.565179 262.277082 110.857415 262.984846 
C 110.149651 263.69261 109.751978 264.652678 109.751978 265.653608 
C 109.751978 266.654537 110.149651 267.614606 110.857415 268.32237 
C 111.565179 269.030134 112.525248 269.427807 113.526177 269.427807 
z
" style="fill:#009900;fill-opacity:0.5;stroke:#009900;stroke-linejoin:miter;stroke-width:2;"/>
   </g>
   <g id="patch_7">
    <path clip-path="url(#p48a213f13e)" d="M 83.332582 243.008412 
C 85.334441 243.008412 87.254578 242.213065 88.670106 240.797537 
C 90.085634 239.382009 90.880981 237.461872 90.880981 235.460013 
C 90.880981 233.458154 90.085634 231.538017 88.670106 230.122489 
C 87.254578 228.706961 85.334441 227.911614 83.332582 227.911614 
C 81.330723 227.911614 79.410586 228.706961 77.995058 230.122489 
C 76.57953 231.538017 75.784183 233.458154 75.784183 235.460013 
C 75.784183 237.461872 76.57953 239.382009 77.995058 240.797537 
C 79.410586 242.213065 81.330723 243.008412 83.332582 243.008412 
z
" style="fill:#9558b2;fill-opacity:0.5;stroke:#9558b2;stroke-linejoin:miter;stroke-width:2;"/>
   </g>
   <g id="patch_8">
    <path clip-path="url(#p48a213f13e)" d="M 113.526177 239.234212 
C 114.527106 239.234212 115.487175 238.836539 116.194939 238.128775 
C 116.902703 237.421011 117.300376 236.460942 117.300376 235.460013 
C 117.300376 234.459083 116.902703 233.499015 116.194939 232.791251 
C 115.487175 232.083487 114.527106 231.685813 113.526177 231.685813 
C 112.525248 231.685813 111.565179 232.083487 110.857415 232.791251 
C 110.149651 233.499015 109.751978 234.459083 109.751978 235.460013 
C 109.751978 236.460942 110.149651 237.421011 110.857415 238.128775 
C 111.565179 238.836539 112.525248 239.234212 113.526177 239.234212 
z
" style="fill:#009900;fill-opacity:0.5;stroke:#009900;stroke-linejoin:miter;stroke-width:2;"/>
   </g>
   <g id="patch_9">
    <path clip-path="url(#p48a213f13e)" d="M 83.332582 212.814817 
C 85.334441 212.814817 87.254578 212.01947 88.670106 210.603942 
C 90.085634 209.188414 90.880981 207.268277 90.880981 205.266418 
C 90.880981 203.264559 90.085634 201.344422 88.670106 199.928894 
C 87.254578 198.513366 85.334441 197.718019 83.332582 197.718019 
C 81.330723 197.718019 79.410586 198.513366 77.995058 199.928894 
C 76.57953 201.344422 75.784183 203.264559 75.784183 205.266418 
C 75.784183 207.268277 76.57953 209.188414 77.995058 210.603942 
C 79.410586 212.01947 81.330723 212.814817 83.332582 212.814817 
z
" style="fill:#9558b2;fill-opacity:0.5;stroke:#9558b2;stroke-linejoin:miter;stroke-width:2;"/>
   </g>
   <g id="patch_10">
    <path clip-path="url(#p48a213f13e)" d="M 113.526177 209.040617 
C 114.527106 209.040617 115.487175 208.642944 116.194939 207.93518 
C 116.902703 207.227416 117.300376 206.267347 117.300376 205.266418 
C 117.300376 204.265489 116.902703 203.30542 116.194939 202.597656 
C 115.487175 201.889892 114.527106 201.492219 113.526177 201.492219 
C 112.525248 201.492219 111.565179 201.889892 110.857415 202.597656 
C 110.149651 203.30542 109.751978 204.265489 109.751978 205.266418 
C 109.751978 206.267347 110.149651 207.227416 110.857415 207.93518 
C 111.565179 208.642944 112.525248 209.040617 113.526177 209.040617 
z
" style="fill:#009900;fill-opacity:0.5;stroke:#009900;stroke-linejoin:miter;stroke-width:2;"/>
   </g>
   <g id="patch_11">
    <path clip-path="url(#p48a213f13e)" d="M 83.332582 182.621222 
C 85.334441 182.621222 87.254578 181.825875 88.670106 180.410347 
C 90.085634 178.994819 90.880981 177.074682 90.880981 175.072823 
C 90.880981 173.070964 90.085634 171.150827 88.670106 169.735299 
C 87.254578 168.319771 85.334441 167.524424 83.332582 167.524424 
C 81.330723 167.524424 79.410586 168.319771 77.995058 169.735299 
C 76.57953 171.150827 75.784183 173.070964 75.784183 175.072823 
C 75.784183 177.074682 76.57953 178.994819 77.995058 180.410347 
C 79.410586 181.825875 81.330723 182.621222 83.332582 182.621222 
z
" style="fill:#9558b2;fill-opacity:0.5;stroke:#9558b2;stroke-linejoin:miter;stroke-width:2;"/>
   </g>
   <g id="patch_12">
    <path clip-path="url(#p48a213f13e)" d="M 113.526177 178.847023 
C 114.527106 178.847023 115.487175 178.449349 116.194939 177.741585 
C 116.902703 177.033821 117.300376 176.073753 117.300376 175.072823 
C 117.300376 174.071894 116.902703 173.111825 116.194939 172.404061 
C 115.487175 171.696297 114.527106 171.298624 113.526177 171.298624 
C 112.525248 171.298624 111.565179 171.696297 110.857415 172.404061 
C 110.149651 173.111825 109.751978 174.071894 109.751978 175.072823 
C 109.751978 176.073753 110.149651 177.033821 110.857415 177.741585 
C 111.565179 178.449349 112.525248 178.847023 113.526177 178.847023 
z
" style="fill:#009900;fill-opacity:0.5;stroke:#009900;stroke-linejoin:miter;stroke-width:2;"/>
   </g>
   <g id="patch_13">
    <path clip-path="url(#p48a213f13e)" d="M 83.332582 152.427627 
C 85.334441 152.427627 87.254578 151.63228 88.670106 150.216752 
C 90.085634 148.801224 90.880981 146.881087 90.880981 144.879228 
C 90.880981 142.87737 90.085634 140.957232 88.670106 139.541704 
C 87.254578 138.126177 85.334441 137.33083 83.332582 137.33083 
C 81.330723 137.33083 79.410586 138.126177 77.995058 139.541704 
C 76.57953 140.957232 75.784183 142.87737 75.784183 144.879228 
C 75.784183 146.881087 76.57953 148.801224 77.995058 150.216752 
C 79.410586 151.63228 81.330723 152.427627 83.332582 152.427627 
z
" style="fill:#9558b2;fill-opacity:0.5;stroke:#9558b2;stroke-linejoin:miter;stroke-width:2;"/>
   </g>
   <g id="patch_14">
    <path clip-path="url(#p48a213f13e)" d="M 113.526177 148.653428 
C 114.527106 148.653428 115.487175 148.255754 116.194939 147.54799 
C 116.902703 146.840226 117.300376 145.880158 117.300376 144.879228 
C 117.300376 143.878299 116.902703 142.91823 116.194939 142.210466 
C 115.487175 141.502702 114.527106 141.105029 113.526177 141.105029 
C 112.525248 141.105029 111.565179 141.502702 110.857415 142.210466 
C 110.149651 142.91823 109.751978 143.878299 109.751978 144.879228 
C 109.751978 145.880158 110.149651 146.840226 110.857415 147.54799 
C 111.565179 148.255754 112.525248 148.653428 113.526177 148.653428 
z
" style="fill:#009900;fill-opacity:0.5;stroke:#009900;stroke-linejoin:miter;stroke-width:2;"/>
   </g>
   <g id="patch_15">
    <path clip-path="url(#p48a213f13e)" d="M 83.332582 122.234032 
C 85.334441 122.234032 87.254578 121.438685 88.670106 120.023157 
C 90.085634 118.60763 90.880981 116.687492 90.880981 114.685634 
C 90.880981 112.683775 90.085634 110.763637 88.670106 109.34811 
C 87.254578 107.932582 85.334441 107.137235 83.332582 107.137235 
C 81.330723 107.137235 79.410586 107.932582 77.995058 109.34811 
C 76.57953 110.763637 75.784183 112.683775 75.784183 114.685634 
C 75.784183 116.687492 76.57953 118.60763 77.995058 120.023157 
C 79.410586 121.438685 81.330723 122.234032 83.332582 122.234032 
z
" style="fill:#9558b2;fill-opacity:0.5;stroke:#9558b2;stroke-linejoin:miter;stroke-width:2;"/>
   </g>
   <g id="patch_16">
    <path clip-path="url(#p48a213f13e)" d="M 113.526177 118.459833 
C 114.527106 118.459833 115.487175 118.062159 116.194939 117.354395 
C 116.902703 116.646632 117.300376 115.686563 117.300376 114.685634 
C 117.300376 113.684704 116.902703 112.724636 116.194939 112.016872 
C 115.487175 111.309108 114.527106 110.911434 113.526177 110.911434 
C 112.525248 110.911434 111.565179 111.309108 110.857415 112.016872 
C 110.149651 112.724636 109.751978 113.684704 109.751978 114.685634 
C 109.751978 115.686563 110.149651 116.646632 110.857415 117.354395 
C 111.565179 118.062159 112.525248 118.459833 113.526177 118.459833 
z
" style="fill:#009900;fill-opacity:0.5;stroke:#009900;stroke-linejoin:miter;stroke-width:2;"/>
   </g>
   <g id="patch_17">
    <path clip-path="url(#p48a213f13e)" d="M 83.332582 92.040437 
C 85.334441 92.040437 87.254578 91.245091 88.670106 89.829563 
C 90.085634 88.414035 90.880981 86.493897 90.880981 84.492039 
C 90.880981 82.49018 90.085634 80.570043 88.670106 79.154515 
C 87.254578 77.738987 85.334441 76.94364 83.332582 76.94364 
C 81.330723 76.94364 79.410586 77.738987 77.995058 79.154515 
C 76.57953 80.570043 75.784183 82.49018 75.784183 84.492039 
C 75.784183 86.493897 76.57953 88.414035 77.995058 89.829563 
C 79.410586 91.245091 81.330723 92.040437 83.332582 92.040437 
z
" style="fill:#9558b2;fill-opacity:0.5;stroke:#9558b2;stroke-linejoin:miter;stroke-width:2;"/>
   </g>
   <g id="patch_18">
    <path clip-path="url(#p48a213f13e)" d="M 113.526177 88.266238 
C 114.527106 88.266238 115.487175 87.868565 116.194939 87.160801 
C 116.902703 86.453037 117.300376 85.492968 117.300376 84.492039 
C 117.300376 83.491109 116.902703 82.531041 116.194939 81.823277 
C 115.487175 81.115513 114.527106 80.717839 113.526177 80.717839 
C 112.525248 80.717839 111.565179 81.115513 110.857415 81.823277 
C 110.149651 82.531041 109.751978 83.491109 109.751978 84.492039 
C 109.751978 85.492968 110.149651 86.453037 110.857415 87.160801 
C 111.565179 87.868565 112.525248 88.266238 113.526177 88.266238 
z
" style="fill:#009900;fill-opacity:0.5;stroke:#009900;stroke-linejoin:miter;stroke-width:2;"/>
   </g>
   <g id="patch_19">
    <path clip-path="url(#p48a213f13e)" d="M 83.332582 61.846843 
C 85.334441 61.846843 87.254578 61.051496 88.670106 59.635968 
C 90.085634 58.22044 90.880981 56.300303 90.880981 54.298444 
C 90.880981 52.296585 90.085634 50.376448 88.670106 48.96092 
C 87.254578 47.545392 85.334441 46.750045 83.332582 46.750045 
C 81.330723 46.750045 79.410586 47.545392 77.995058 48.96092 
C 76.57953 50.376448 75.784183 52.296585 75.784183 54.298444 
C 75.784183 56.300303 76.57953 58.22044 77.995058 59.635968 
C 79.410586 61.051496 81.330723 61.846843 83.332582 61.846843 
z
" style="fill:#9558b2;fill-opacity:0.5;stroke:#9558b2;stroke-linejoin:miter;stroke-width:2;"/>
   </g>
   <g id="patch_20">
    <path clip-path="url(#p48a213f13e)" d="M 113.526177 58.072643 
C 114.527106 58.072643 115.487175 57.67497 116.194939 56.967206 
C 116.902703 56.259442 117.300376 55.299373 117.300376 54.298444 
C 117.300376 53.297515 116.902703 52.337446 116.194939 51.629682 
C 115.487175 50.921918 114.527106 50.524245 113.526177 50.524245 
C 112.525248 50.524245 111.565179 50.921918 110.857415 51.629682 
C 110.149651 52.337446 109.751978 53.297515 109.751978 54.298444 
C 109.751978 55.299373 110.149651 56.259442 110.857415 56.967206 
C 111.565179 57.67497 112.525248 58.072643 113.526177 58.072643 
z
" style="fill:#009900;fill-opacity:0.5;stroke:#009900;stroke-linejoin:miter;stroke-width:2;"/>
   </g>
   <g id="patch_21">
    <path clip-path="url(#p48a213f13e)" d="M 143.719772 303.395601 
C 145.72163 303.395601 147.641768 302.600254 149.057296 301.184726 
C 150.472824 299.769198 151.26817 297.849061 151.26817 295.847202 
C 151.26817 293.845344 150.472824 291.925206 149.057296 290.509679 
C 147.641768 289.094151 145.72163 288.298804 143.719772 288.298804 
C 141.717913 288.298804 139.797776 289.094151 138.382248 290.509679 
C 136.96672 291.925206 136.171373 293.845344 136.171373 295.847202 
C 136.171373 297.849061 136.96672 299.769198 138.382248 301.184726 
C 139.797776 302.600254 141.717913 303.395601 143.719772 303.395601 
z
" style="fill:#9558b2;fill-opacity:0.5;stroke:#9558b2;stroke-linejoin:miter;stroke-width:2;"/>
   </g>
   <g id="patch_22">
    <path clip-path="url(#p48a213f13e)" d="M 173.913367 299.621402 
C 174.914296 299.621402 175.874365 299.223728 176.582129 298.515964 
C 177.289892 297.8082 177.687566 296.848132 177.687566 295.847202 
C 177.687566 294.846273 177.289892 293.886204 176.582129 293.17844 
C 175.874365 292.470677 174.914296 292.073003 173.913367 292.073003 
C 172.912437 292.073003 171.952369 292.470677 171.244605 293.17844 
C 170.536841 293.886204 170.139167 294.846273 170.139167 295.847202 
C 170.139167 296.848132 170.536841 297.8082 171.244605 298.515964 
C 171.952369 299.223728 172.912437 299.621402 173.913367 299.621402 
z
" style="fill:#009900;fill-opacity:0.5;stroke:#009900;stroke-linejoin:miter;stroke-width:2;"/>
   </g>
   <g id="patch_23">
    <path clip-path="url(#p48a213f13e)" d="M 143.719772 273.202006 
C 145.72163 273.202006 147.641768 272.406659 149.057296 270.991132 
C 150.472824 269.575604 151.26817 267.655466 151.26817 265.653608 
C 151.26817 263.651749 150.472824 261.731612 149.057296 260.316084 
C 147.641768 258.900556 145.72163 258.105209 143.719772 258.105209 
C 141.717913 258.105209 139.797776 258.900556 138.382248 260.316084 
C 136.96672 261.731612 136.171373 263.651749 136.171373 265.653608 
C 136.171373 267.655466 136.96672 269.575604 138.382248 270.991132 
C 139.797776 272.406659 141.717913 273.202006 143.719772 273.202006 
z
" style="fill:#9558b2;fill-opacity:0.5;stroke:#9558b2;stroke-linejoin:miter;stroke-width:2;"/>
   </g>
   <g id="patch_24">
    <path clip-path="url(#p48a213f13e)" d="M 173.913367 269.427807 
C 174.914296 269.427807 175.874365 269.030134 176.582129 268.32237 
C 177.289892 267.614606 177.687566 266.654537 177.687566 265.653608 
C 177.687566 264.652678 177.289892 263.69261 176.582129 262.984846 
C 175.874365 262.277082 174.914296 261.879408 173.913367 261.879408 
C 172.912437 261.879408 171.952369 262.277082 171.244605 262.984846 
C 170.536841 263.69261 170.139167 264.652678 170.139167 265.653608 
C 170.139167 266.654537 170.536841 267.614606 171.244605 268.32237 
C 171.952369 269.030134 172.912437 269.427807 173.913367 269.427807 
z
" style="fill:#009900;fill-opacity:0.5;stroke:#009900;stroke-linejoin:miter;stroke-width:2;"/>
   </g>
   <g id="patch_25">
    <path clip-path="url(#p48a213f13e)" d="M 143.719772 243.008412 
C 145.72163 243.008412 147.641768 242.213065 149.057296 240.797537 
C 150.472824 239.382009 151.26817 237.461872 151.26817 235.460013 
C 151.26817 233.458154 150.472824 231.538017 149.057296 230.122489 
C 147.641768 228.706961 145.72163 227.911614 143.719772 227.911614 
C 141.717913 227.911614 139.797776 228.706961 138.382248 230.122489 
C 136.96672 231.538017 136.171373 233.458154 136.171373 235.460013 
C 136.171373 237.461872 136.96672 239.382009 138.382248 240.797537 
C 139.797776 242.213065 141.717913 243.008412 143.719772 243.008412 
z
" style="fill:#9558b2;fill-opacity:0.5;stroke:#9558b2;stroke-linejoin:miter;stroke-width:2;"/>
   </g>
   <g id="patch_26">
    <path clip-path="url(#p48a213f13e)" d="M 173.913367 239.234212 
C 174.914296 239.234212 175.874365 238.836539 176.582129 238.128775 
C 177.289892 237.421011 177.687566 236.460942 177.687566 235.460013 
C 177.687566 234.459083 177.289892 233.499015 176.582129 232.791251 
C 175.874365 232.083487 174.914296 231.685813 173.913367 231.685813 
C 172.912437 231.685813 171.952369 232.083487 171.244605 232.791251 
C 170.536841 233.499015 170.139167 234.459083 170.139167 235.460013 
C 170.139167 236.460942 170.536841 237.421011 171.244605 238.128775 
C 171.952369 238.836539 172.912437 239.234212 173.913367 239.234212 
z
" style="fill:#009900;fill-opacity:0.5;stroke:#009900;stroke-linejoin:miter;stroke-width:2;"/>
   </g>
   <g id="patch_27">
    <path clip-path="url(#p48a213f13e)" d="M 143.719772 212.814817 
C 145.72163 212.814817 147.641768 212.01947 149.057296 210.603942 
C 150.472824 209.188414 151.26817 207.268277 151.26817 205.266418 
C 151.26817 203.264559 150.472824 201.344422 149.057296 199.928894 
C 147.641768 198.513366 145.72163 197.718019 143.719772 197.718019 
C 141.717913 197.718019 139.797776 198.513366 138.382248 199.928894 
C 136.96672 201.344422 136.171373 203.264559 136.171373 205.266418 
C 136.171373 207.268277 136.96672 209.188414 138.382248 210.603942 
C 139.797776 212.01947 141.717913 212.814817 143.719772 212.814817 
z
" style="fill:#9558b2;fill-opacity:0.5;stroke:#9558b2;stroke-linejoin:miter;stroke-width:2;"/>
   </g>
   <g id="patch_28">
    <path clip-path="url(#p48a213f13e)" d="M 173.913367 209.040617 
C 174.914296 209.040617 175.874365 208.642944 176.582129 207.93518 
C 177.289892 207.227416 177.687566 206.267347 177.687566 205.266418 
C 177.687566 204.265489 177.289892 203.30542 176.582129 202.597656 
C 175.874365 201.889892 174.914296 201.492219 173.913367 201.492219 
C 172.912437 201.492219 171.952369 201.889892 171.244605 202.597656 
C 170.536841 203.30542 170.139167 204.265489 170.139167 205.266418 
C 170.139167 206.267347 170.536841 207.227416 171.244605 207.93518 
C 171.952369 208.642944 172.912437 209.040617 173.913367 209.040617 
z
" style="fill:#009900;fill-opacity:0.5;stroke:#009900;stroke-linejoin:miter;stroke-width:2;"/>
   </g>
   <g id="patch_29">
    <path clip-path="url(#p48a213f13e)" d="M 143.719772 182.621222 
C 145.72163 182.621222 147.641768 181.825875 149.057296 180.410347 
C 150.472824 178.994819 151.26817 177.074682 151.26817 175.072823 
C 151.26817 173.070964 150.472824 171.150827 149.057296 169.735299 
C 147.641768 168.319771 145.72163 167.524424 143.719772 167.524424 
C 141.717913 167.524424 139.797776 168.319771 138.382248 169.735299 
C 136.96672 171.150827 136.171373 173.070964 136.171373 175.072823 
C 136.171373 177.074682 136.96672 178.994819 138.382248 180.410347 
C 139.797776 181.825875 141.717913 182.621222 143.719772 182.621222 
z
" style="fill:#9558b2;fill-opacity:0.5;stroke:#9558b2;stroke-linejoin:miter;stroke-width:2;"/>
   </g>
   <g id="patch_30">
    <path clip-path="url(#p48a213f13e)" d="M 173.913367 178.847023 
C 174.914296 178.847023 175.874365 178.449349 176.582129 177.741585 
C 177.289892 177.033821 177.687566 176.073753 177.687566 175.072823 
C 177.687566 174.071894 177.289892 173.111825 176.582129 172.404061 
C 175.874365 171.696297 174.914296 171.298624 173.913367 171.298624 
C 172.912437 171.298624 171.952369 171.696297 171.244605 172.404061 
C 170.536841 173.111825 170.139167 174.071894 170.139167 175.072823 
C 170.139167 176.073753 170.536841 177.033821 171.244605 177.741585 
C 171.952369 178.449349 172.912437 178.847023 173.913367 178.847023 
z
" style="fill:#009900;fill-opacity:0.5;stroke:#009900;stroke-linejoin:miter;stroke-width:2;"/>
   </g>
   <g id="patch_31">
    <path clip-path="url(#p48a213f13e)" d="M 143.719772 152.427627 
C 145.72163 152.427627 147.641768 151.63228 149.057296 150.216752 
C 150.472824 148.801224 151.26817 146.881087 151.26817 144.879228 
C 151.26817 142.87737 150.472824 140.957232 149.057296 139.541704 
C 147.641768 138.126177 145.72163 137.33083 143.719772 137.33083 
C 141.717913 137.33083 139.797776 138.126177 138.382248 139.541704 
C 136.96672 140.957232 136.171373 142.87737 136.171373 144.879228 
C 136.171373 146.881087 136.96672 148.801224 138.382248 150.216752 
C 139.797776 151.63228 141.717913 152.427627 143.719772 152.427627 
z
" style="fill:#9558b2;fill-opacity:0.5;stroke:#9558b2;stroke-linejoin:miter;stroke-width:2;"/>
   </g>
   <g id="patch_32">
    <path clip-path="url(#p48a213f13e)" d="M 173.913367 148.653428 
C 174.914296 148.653428 175.874365 148.255754 176.582129 147.54799 
C 177.289892 146.840226 177.687566 145.880158 177.687566 144.879228 
C 177.687566 143.878299 177.289892 142.91823 176.582129 142.210466 
C 175.874365 141.502702 174.914296 141.105029 173.913367 141.105029 
C 172.912437 141.105029 171.952369 141.502702 171.244605 142.210466 
C 170.536841 142.91823 170.139167 143.878299 170.139167 144.879228 
C 170.139167 145.880158 170.536841 146.840226 171.244605 147.54799 
C 171.952369 148.255754 172.912437 148.653428 173.913367 148.653428 
z
" style="fill:#009900;fill-opacity:0.5;stroke:#009900;stroke-linejoin:miter;stroke-width:2;"/>
   </g>
   <g id="patch_33">
    <path clip-path="url(#p48a213f13e)" d="M 143.719772 122.234032 
C 145.72163 122.234032 147.641768 121.438685 149.057296 120.023157 
C 150.472824 118.60763 151.26817 116.687492 151.26817 114.685634 
C 151.26817 112.683775 150.472824 110.763637 149.057296 109.34811 
C 147.641768 107.932582 145.72163 107.137235 143.719772 107.137235 
C 141.717913 107.137235 139.797776 107.932582 138.382248 109.34811 
C 136.96672 110.763637 136.171373 112.683775 136.171373 114.685634 
C 136.171373 116.687492 136.96672 118.60763 138.382248 120.023157 
C 139.797776 121.438685 141.717913 122.234032 143.719772 122.234032 
z
" style="fill:#9558b2;fill-opacity:0.5;stroke:#9558b2;stroke-linejoin:miter;stroke-width:2;"/>
   </g>
   <g id="patch_34">
    <path clip-path="url(#p48a213f13e)" d="M 173.913367 118.459833 
C 174.914296 118.459833 175.874365 118.062159 176.582129 117.354395 
C 177.289892 116.646632 177.687566 115.686563 177.687566 114.685634 
C 177.687566 113.684704 177.289892 112.724636 176.582129 112.016872 
C 175.874365 111.309108 174.914296 110.911434 173.913367 110.911434 
C 172.912437 110.911434 171.952369 111.309108 171.244605 112.016872 
C 170.536841 112.724636 170.139167 113.684704 170.139167 114.685634 
C 170.139167 115.686563 170.536841 116.646632 171.244605 117.354395 
C 171.952369 118.062159 172.912437 118.459833 173.913367 118.459833 
z
" style="fill:#009900;fill-opacity:0.5;stroke:#009900;stroke-linejoin:miter;stroke-width:2;"/>
   </g>
   <g id="patch_35">
    <path clip-path="url(#p48a213f13e)" d="M 143.719772 92.040437 
C 145.72163 92.040437 147.641768 91.245091 149.057296 89.829563 
C 150.472824 88.414035 151.26817 86.493897 151.26817 84.492039 
C 151.26817 82.49018 150.472824 80.570043 149.057296 79.154515 
C 147.641768 77.738987 145.72163 76.94364 143.719772 76.94364 
C 141.717913 76.94364 139.797776 77.738987 138.382248 79.154515 
C 136.96672 80.570043 136.171373 82.49018 136.171373 84.492039 
C 136.171373 86.493897 136.96672 88.414035 138.382248 89.829563 
C 139.797776 91.245091 141.717913 92.040437 143.719772 92.040437 
z
" style="fill:#9558b2;fill-opacity:0.5;stroke:#9558b2;stroke-linejoin:miter;stroke-width:2;"/>
   </g>
   <g id="patch_36">
    <path clip-path="url(#p48a213f13e)" d="M 173.913367 88.266238 
C 174.914296 88.266238 175.874365 87.868565 176.582129 87.160801 
C 177.289892 86.453037 177.687566 85.492968 177.687566 84.492039 
C 177.687566 83.491109 177.289892 82.531041 176.582129 81.823277 
C 175.874365 81.115513 174.914296 80.717839 173.913367 80.717839 
C 172.912437 80.717839 171.952369 81.115513 171.244605 81.823277 
C 170.536841 82.531041 170.139167 83.491109 170.139167 84.492039 
C 170.139167 85.492968 170.536841 86.453037 171.244605 87.160801 
C 171.952369 87.868565 172.912437 88.266238 173.913367 88.266238 
z
" style="fill:#009900;fill-opacity:0.5;stroke:#009900;stroke-linejoin:miter;stroke-width:2;"/>
   </g>
   <g id="patch_37">
    <path clip-path="url(#p48a213f13e)" d="M 143.719772 61.846843 
C 145.72163 61.846843 147.641768 61.051496 149.057296 59.635968 
C 150.472824 58.22044 151.26817 56.300303 151.26817 54.298444 
C 151.26817 52.296585 150.472824 50.376448 149.057296 48.96092 
C 147.641768 47.545392 145.72163 46.750045 143.719772 46.750045 
C 141.717913 46.750045 139.797776 47.545392 138.382248 48.96092 
C 136.96672 50.376448 136.171373 52.296585 136.171373 54.298444 
C 136.171373 56.300303 136.96672 58.22044 138.382248 59.635968 
C 139.797776 61.051496 141.717913 61.846843 143.719772 61.846843 
z
" style="fill:#9558b2;fill-opacity:0.5;stroke:#9558b2;stroke-linejoin:miter;stroke-width:2;"/>
   </g>
   <g id="patch_38">
    <path clip-path="url(#p48a213f13e)" d="M 173.913367 58.072643 
C 174.914296 58.072643 175.874365 57.67497 176.582129 56.967206 
C 177.289892 56.259442 177.687566 55.299373 177.687566 54.298444 
C 177.687566 53.297515 177.289892 52.337446 176.582129 51.629682 
C 175.874365 50.921918 174.914296 50.524245 173.913367 50.524245 
C 172.912437 50.524245 171.952369 50.921918 171.244605 51.629682 
C 170.536841 52.337446 170.139167 53.297515 170.139167 54.298444 
C 170.139167 55.299373 170.536841 56.259442 171.244605 56.967206 
C 171.952369 57.67497 172.912437 58.072643 173.913367 58.072643 
z
" style="fill:#009900;fill-opacity:0.5;stroke:#009900;stroke-linejoin:miter;stroke-width:2;"/>
   </g>
   <g id="patch_39">
    <path clip-path="url(#p48a213f13e)" d="M 204.106961 303.395601 
C 206.10882 303.395601 208.028957 302.600254 209.444485 301.184726 
C 210.860013 299.769198 211.65536 297.849061 211.65536 295.847202 
C 211.65536 293.845344 210.860013 291.925206 209.444485 290.509679 
C 208.028957 289.094151 206.10882 288.298804 204.106961 288.298804 
C 202.105103 288.298804 200.184965 289.094151 198.769437 290.509679 
C 197.35391 291.925206 196.558563 293.845344 196.558563 295.847202 
C 196.558563 297.849061 197.35391 299.769198 198.769437 301.184726 
C 200.184965 302.600254 202.105103 303.395601 204.106961 303.395601 
z
" style="fill:#9558b2;fill-opacity:0.5;stroke:#9558b2;stroke-linejoin:miter;stroke-width:2;"/>
   </g>
   <g id="patch_40">
    <path clip-path="url(#p48a213f13e)" d="M 234.300556 299.621402 
C 235.301486 299.621402 236.261554 299.223728 236.969318 298.515964 
C 237.677082 297.8082 238.074756 296.848132 238.074756 295.847202 
C 238.074756 294.846273 237.677082 293.886204 236.969318 293.17844 
C 236.261554 292.470677 235.301486 292.073003 234.300556 292.073003 
C 233.299627 292.073003 232.339558 292.470677 231.631794 293.17844 
C 230.92403 293.886204 230.526357 294.846273 230.526357 295.847202 
C 230.526357 296.848132 230.92403 297.8082 231.631794 298.515964 
C 232.339558 299.223728 233.299627 299.621402 234.300556 299.621402 
z
" style="fill:#009900;fill-opacity:0.5;stroke:#009900;stroke-linejoin:miter;stroke-width:2;"/>
   </g>
   <g id="patch_41">
    <path clip-path="url(#p48a213f13e)" d="M 204.106961 273.202006 
C 206.10882 273.202006 208.028957 272.406659 209.444485 270.991132 
C 210.860013 269.575604 211.65536 267.655466 211.65536 265.653608 
C 211.65536 263.651749 210.860013 261.731612 209.444485 260.316084 
C 208.028957 258.900556 206.10882 258.105209 204.106961 258.105209 
C 202.105103 258.105209 200.184965 258.900556 198.769437 260.316084 
C 197.35391 261.731612 196.558563 263.651749 196.558563 265.653608 
C 196.558563 267.655466 197.35391 269.575604 198.769437 270.991132 
C 200.184965 272.406659 202.105103 273.202006 204.106961 273.202006 
z
" style="fill:#9558b2;fill-opacity:0.5;stroke:#9558b2;stroke-linejoin:miter;stroke-width:2;"/>
   </g>
   <g id="patch_42">
    <path clip-path="url(#p48a213f13e)" d="M 234.300556 269.427807 
C 235.301486 269.427807 236.261554 269.030134 236.969318 268.32237 
C 237.677082 267.614606 238.074756 266.654537 238.074756 265.653608 
C 238.074756 264.652678 237.677082 263.69261 236.969318 262.984846 
C 236.261554 262.277082 235.301486 261.879408 234.300556 261.879408 
C 233.299627 261.879408 232.339558 262.277082 231.631794 262.984846 
C 230.92403 263.69261 230.526357 264.652678 230.526357 265.653608 
C 230.526357 266.654537 230.92403 267.614606 231.631794 268.32237 
C 232.339558 269.030134 233.299627 269.427807 234.300556 269.427807 
z
" style="fill:#009900;fill-opacity:0.5;stroke:#009900;stroke-linejoin:miter;stroke-width:2;"/>
   </g>
   <g id="patch_43">
    <path clip-path="url(#p48a213f13e)" d="M 204.106961 243.008412 
C 206.10882 243.008412 208.028957 242.213065 209.444485 240.797537 
C 210.860013 239.382009 211.65536 237.461872 211.65536 235.460013 
C 211.65536 233.458154 210.860013 231.538017 209.444485 230.122489 
C 208.028957 228.706961 206.10882 227.911614 204.106961 227.911614 
C 202.105103 227.911614 200.184965 228.706961 198.769437 230.122489 
C 197.35391 231.538017 196.558563 233.458154 196.558563 235.460013 
C 196.558563 237.461872 197.35391 239.382009 198.769437 240.797537 
C 200.184965 242.213065 202.105103 243.008412 204.106961 243.008412 
z
" style="fill:#9558b2;fill-opacity:0.5;stroke:#9558b2;stroke-linejoin:miter;stroke-width:2;"/>
   </g>
   <g id="patch_44">
    <path clip-path="url(#p48a213f13e)" d="M 234.300556 239.234212 
C 235.301486 239.234212 236.261554 238.836539 236.969318 238.128775 
C 237.677082 237.421011 238.074756 236.460942 238.074756 235.460013 
C 238.074756 234.459083 237.677082 233.499015 236.969318 232.791251 
C 236.261554 232.083487 235.301486 231.685813 234.300556 231.685813 
C 233.299627 231.685813 232.339558 232.083487 231.631794 232.791251 
C 230.92403 233.499015 230.526357 234.459083 230.526357 235.460013 
C 230.526357 236.460942 230.92403 237.421011 231.631794 238.128775 
C 232.339558 238.836539 233.299627 239.234212 234.300556 239.234212 
z
" style="fill:#009900;fill-opacity:0.5;stroke:#009900;stroke-linejoin:miter;stroke-width:2;"/>
   </g>
   <g id="patch_45">
    <path clip-path="url(#p48a213f13e)" d="M 204.106961 212.814817 
C 206.10882 212.814817 208.028957 212.01947 209.444485 210.603942 
C 210.860013 209.188414 211.65536 207.268277 211.65536 205.266418 
C 211.65536 203.264559 210.860013 201.344422 209.444485 199.928894 
C 208.028957 198.513366 206.10882 197.718019 204.106961 197.718019 
C 202.105103 197.718019 200.184965 198.513366 198.769437 199.928894 
C 197.35391 201.344422 196.558563 203.264559 196.558563 205.266418 
C 196.558563 207.268277 197.35391 209.188414 198.769437 210.603942 
C 200.184965 212.01947 202.105103 212.814817 204.106961 212.814817 
z
" style="fill:#9558b2;fill-opacity:0.5;stroke:#9558b2;stroke-linejoin:miter;stroke-width:2;"/>
   </g>
   <g id="patch_46">
    <path clip-path="url(#p48a213f13e)" d="M 234.300556 209.040617 
C 235.301486 209.040617 236.261554 208.642944 236.969318 207.93518 
C 237.677082 207.227416 238.074756 206.267347 238.074756 205.266418 
C 238.074756 204.265489 237.677082 203.30542 236.969318 202.597656 
C 236.261554 201.889892 235.301486 201.492219 234.300556 201.492219 
C 233.299627 201.492219 232.339558 201.889892 231.631794 202.597656 
C 230.92403 203.30542 230.526357 204.265489 230.526357 205.266418 
C 230.526357 206.267347 230.92403 207.227416 231.631794 207.93518 
C 232.339558 208.642944 233.299627 209.040617 234.300556 209.040617 
z
" style="fill:#009900;fill-opacity:0.5;stroke:#009900;stroke-linejoin:miter;stroke-width:2;"/>
   </g>
   <g id="patch_47">
    <path clip-path="url(#p48a213f13e)" d="M 204.106961 182.621222 
C 206.10882 182.621222 208.028957 181.825875 209.444485 180.410347 
C 210.860013 178.994819 211.65536 177.074682 211.65536 175.072823 
C 211.65536 173.070964 210.860013 171.150827 209.444485 169.735299 
C 208.028957 168.319771 206.10882 167.524424 204.106961 167.524424 
C 202.105103 167.524424 200.184965 168.319771 198.769437 169.735299 
C 197.35391 171.150827 196.558563 173.070964 196.558563 175.072823 
C 196.558563 177.074682 197.35391 178.994819 198.769437 180.410347 
C 200.184965 181.825875 202.105103 182.621222 204.106961 182.621222 
z
" style="fill:#9558b2;fill-opacity:0.5;stroke:#9558b2;stroke-linejoin:miter;stroke-width:2;"/>
   </g>
   <g id="patch_48">
    <path clip-path="url(#p48a213f13e)" d="M 234.300556 178.847023 
C 235.301486 178.847023 236.261554 178.449349 236.969318 177.741585 
C 237.677082 177.033821 238.074756 176.073753 238.074756 175.072823 
C 238.074756 174.071894 237.677082 173.111825 236.969318 172.404061 
C 236.261554 171.696297 235.301486 171.298624 234.300556 171.298624 
C 233.299627 171.298624 232.339558 171.696297 231.631794 172.404061 
C 230.92403 173.111825 230.526357 174.071894 230.526357 175.072823 
C 230.526357 176.073753 230.92403 177.033821 231.631794 177.741585 
C 232.339558 178.449349 233.299627 178.847023 234.300556 178.847023 
z
" style="fill:#009900;fill-opacity:0.5;stroke:#009900;stroke-linejoin:miter;stroke-width:2;"/>
   </g>
   <g id="patch_49">
    <path clip-path="url(#p48a213f13e)" d="M 204.106961 152.427627 
C 206.10882 152.427627 208.028957 151.63228 209.444485 150.216752 
C 210.860013 148.801224 211.65536 146.881087 211.65536 144.879228 
C 211.65536 142.87737 210.860013 140.957232 209.444485 139.541704 
C 208.028957 138.126177 206.10882 137.33083 204.106961 137.33083 
C 202.105103 137.33083 200.184965 138.126177 198.769437 139.541704 
C 197.35391 140.957232 196.558563 142.87737 196.558563 144.879228 
C 196.558563 146.881087 197.35391 148.801224 198.769437 150.216752 
C 200.184965 151.63228 202.105103 152.427627 204.106961 152.427627 
z
" style="fill:#9558b2;fill-opacity:0.5;stroke:#9558b2;stroke-linejoin:miter;stroke-width:2;"/>
   </g>
   <g id="patch_50">
    <path clip-path="url(#p48a213f13e)" d="M 234.300556 148.653428 
C 235.301486 148.653428 236.261554 148.255754 236.969318 147.54799 
C 237.677082 146.840226 238.074756 145.880158 238.074756 144.879228 
C 238.074756 143.878299 237.677082 142.91823 236.969318 142.210466 
C 236.261554 141.502702 235.301486 141.105029 234.300556 141.105029 
C 233.299627 141.105029 232.339558 141.502702 231.631794 142.210466 
C 230.92403 142.91823 230.526357 143.878299 230.526357 144.879228 
C 230.526357 145.880158 230.92403 146.840226 231.631794 147.54799 
C 232.339558 148.255754 233.299627 148.653428 234.300556 148.653428 
z
" style="fill:#009900;fill-opacity:0.5;stroke:#009900;stroke-linejoin:miter;stroke-width:2;"/>
   </g>
   <g id="patch_51">
    <path clip-path="url(#p48a213f13e)" d="M 204.106961 122.234032 
C 206.10882 122.234032 208.028957 121.438685 209.444485 120.023157 
C 210.860013 118.60763 211.65536 116.687492 211.65536 114.685634 
C 211.65536 112.683775 210.860013 110.763637 209.444485 109.34811 
C 208.028957 107.932582 206.10882 107.137235 204.106961 107.137235 
C 202.105103 107.137235 200.184965 107.932582 198.769437 109.34811 
C 197.35391 110.763637 196.558563 112.683775 196.558563 114.685634 
C 196.558563 116.687492 197.35391 118.60763 198.769437 120.023157 
C 200.184965 121.438685 202.105103 122.234032 204.106961 122.234032 
z
" style="fill:#9558b2;fill-opacity:0.5;stroke:#9558b2;stroke-linejoin:miter;stroke-width:2;"/>
   </g>
   <g id="patch_52">
    <path clip-path="url(#p48a213f13e)" d="M 234.300556 118.459833 
C 235.301486 118.459833 236.261554 118.062159 236.969318 117.354395 
C 237.677082 116.646632 238.074756 115.686563 238.074756 114.685634 
C 238.074756 113.684704 237.677082 112.724636 236.969318 112.016872 
C 236.261554 111.309108 235.301486 110.911434 234.300556 110.911434 
C 233.299627 110.911434 232.339558 111.309108 231.631794 112.016872 
C 230.92403 112.724636 230.526357 113.684704 230.526357 114.685634 
C 230.526357 115.686563 230.92403 116.646632 231.631794 117.354395 
C 232.339558 118.062159 233.299627 118.459833 234.300556 118.459833 
z
" style="fill:#009900;fill-opacity:0.5;stroke:#009900;stroke-linejoin:miter;stroke-width:2;"/>
   </g>
   <g id="patch_53">
    <path clip-path="url(#p48a213f13e)" d="M 204.106961 92.040437 
C 206.10882 92.040437 208.028957 91.245091 209.444485 89.829563 
C 210.860013 88.414035 211.65536 86.493897 211.65536 84.492039 
C 211.65536 82.49018 210.860013 80.570043 209.444485 79.154515 
C 208.028957 77.738987 206.10882 76.94364 204.106961 76.94364 
C 202.105103 76.94364 200.184965 77.738987 198.769437 79.154515 
C 197.35391 80.570043 196.558563 82.49018 196.558563 84.492039 
C 196.558563 86.493897 197.35391 88.414035 198.769437 89.829563 
C 200.184965 91.245091 202.105103 92.040437 204.106961 92.040437 
z
" style="fill:#9558b2;fill-opacity:0.5;stroke:#9558b2;stroke-linejoin:miter;stroke-width:2;"/>
   </g>
   <g id="patch_54">
    <path clip-path="url(#p48a213f13e)" d="M 234.300556 88.266238 
C 235.301486 88.266238 236.261554 87.868565 236.969318 87.160801 
C 237.677082 86.453037 238.074756 85.492968 238.074756 84.492039 
C 238.074756 83.491109 237.677082 82.531041 236.969318 81.823277 
C 236.261554 81.115513 235.301486 80.717839 234.300556 80.717839 
C 233.299627 80.717839 232.339558 81.115513 231.631794 81.823277 
C 230.92403 82.531041 230.526357 83.491109 230.526357 84.492039 
C 230.526357 85.492968 230.92403 86.453037 231.631794 87.160801 
C 232.339558 87.868565 233.299627 88.266238 234.300556 88.266238 
z
" style="fill:#009900;fill-opacity:0.5;stroke:#009900;stroke-linejoin:miter;stroke-width:2;"/>
   </g>
   <g id="patch_55">
    <path clip-path="url(#p48a213f13e)" d="M 204.106961 61.846843 
C 206.10882 61.846843 208.028957 61.051496 209.444485 59.635968 
C 210.860013 58.22044 211.65536 56.300303 211.65536 54.298444 
C 211.65536 52.296585 210.860013 50.376448 209.444485 48.96092 
C 208.028957 47.545392 206.10882 46.750045 204.106961 46.750045 
C 202.105103 46.750045 200.184965 47.545392 198.769437 48.96092 
C 197.35391 50.376448 196.558563 52.296585 196.558563 54.298444 
C 196.558563 56.300303 197.35391 58.22044 198.769437 59.635968 
C 200.184965 61.051496 202.105103 61.846843 204.106961 61.846843 
z
" style="fill:#9558b2;fill-opacity:0.5;stroke:#9558b2;stroke-linejoin:miter;stroke-width:2;"/>
   </g>
   <g id="patch_56">
    <path clip-path="url(#p48a213f13e)" d="M 234.300556 58.072643 
C 235.301486 58.072643 236.261554 57.67497 236.969318 56.967206 
C 237.677082 56.259442 238.074756 55.299373 238.074756 54.298444 
C 238.074756 53.297515 237.677082 52.337446 236.969318 51.629682 
C 236.261554 50.921918 235.301486 50.524245 234.300556 50.524245 
C 233.299627 50.524245 232.339558 50.921918 231.631794 51.629682 
C 230.92403 52.337446 230.526357 53.297515 230.526357 54.298444 
C 230.526357 55.299373 230.92403 56.259442 231.631794 56.967206 
C 232.339558 57.67497 233.299627 58.072643 234.300556 58.072643 
z
" style="fill:#009900;fill-opacity:0.5;stroke:#009900;stroke-linejoin:miter;stroke-width:2;"/>
   </g>
   <g id="patch_57">
    <path clip-path="url(#p48a213f13e)" d="M 264.494151 303.395601 
C 266.49601 303.395601 268.416147 302.600254 269.831675 301.184726 
C 271.247203 299.769198 272.04255 297.849061 272.04255 295.847202 
C 272.04255 293.845344 271.247203 291.925206 269.831675 290.509679 
C 268.416147 289.094151 266.49601 288.298804 264.494151 288.298804 
C 262.492292 288.298804 260.572155 289.094151 259.156627 290.509679 
C 257.741099 291.925206 256.945752 293.845344 256.945752 295.847202 
C 256.945752 297.849061 257.741099 299.769198 259.156627 301.184726 
C 260.572155 302.600254 262.492292 303.395601 264.494151 303.395601 
z
" style="fill:#9558b2;fill-opacity:0.5;stroke:#9558b2;stroke-linejoin:miter;stroke-width:2;"/>
   </g>
   <g id="patch_58">
    <path clip-path="url(#p48a213f13e)" d="M 294.687746 299.621402 
C 295.688675 299.621402 296.648744 299.223728 297.356508 298.515964 
C 298.064272 297.8082 298.461945 296.848132 298.461945 295.847202 
C 298.461945 294.846273 298.064272 293.886204 297.356508 293.17844 
C 296.648744 292.470677 295.688675 292.073003 294.687746 292.073003 
C 293.686816 292.073003 292.726748 292.470677 292.018984 293.17844 
C 291.31122 293.886204 290.913546 294.846273 290.913546 295.847202 
C 290.913546 296.848132 291.31122 297.8082 292.018984 298.515964 
C 292.726748 299.223728 293.686816 299.621402 294.687746 299.621402 
z
" style="fill:#009900;fill-opacity:0.5;stroke:#009900;stroke-linejoin:miter;stroke-width:2;"/>
   </g>
   <g id="patch_59">
    <path clip-path="url(#p48a213f13e)" d="M 264.494151 273.202006 
C 266.49601 273.202006 268.416147 272.406659 269.831675 270.991132 
C 271.247203 269.575604 272.04255 267.655466 272.04255 265.653608 
C 272.04255 263.651749 271.247203 261.731612 269.831675 260.316084 
C 268.416147 258.900556 266.49601 258.105209 264.494151 258.105209 
C 262.492292 258.105209 260.572155 258.900556 259.156627 260.316084 
C 257.741099 261.731612 256.945752 263.651749 256.945752 265.653608 
C 256.945752 267.655466 257.741099 269.575604 259.156627 270.991132 
C 260.572155 272.406659 262.492292 273.202006 264.494151 273.202006 
z
" style="fill:#9558b2;fill-opacity:0.5;stroke:#9558b2;stroke-linejoin:miter;stroke-width:2;"/>
   </g>
   <g id="patch_60">
    <path clip-path="url(#p48a213f13e)" d="M 294.687746 269.427807 
C 295.688675 269.427807 296.648744 269.030134 297.356508 268.32237 
C 298.064272 267.614606 298.461945 266.654537 298.461945 265.653608 
C 298.461945 264.652678 298.064272 263.69261 297.356508 262.984846 
C 296.648744 262.277082 295.688675 261.879408 294.687746 261.879408 
C 293.686816 261.879408 292.726748 262.277082 292.018984 262.984846 
C 291.31122 263.69261 290.913546 264.652678 290.913546 265.653608 
C 290.913546 266.654537 291.31122 267.614606 292.018984 268.32237 
C 292.726748 269.030134 293.686816 269.427807 294.687746 269.427807 
z
" style="fill:#009900;fill-opacity:0.5;stroke:#009900;stroke-linejoin:miter;stroke-width:2;"/>
   </g>
   <g id="patch_61">
    <path clip-path="url(#p48a213f13e)" d="M 264.494151 243.008412 
C 266.49601 243.008412 268.416147 242.213065 269.831675 240.797537 
C 271.247203 239.382009 272.04255 237.461872 272.04255 235.460013 
C 272.04255 233.458154 271.247203 231.538017 269.831675 230.122489 
C 268.416147 228.706961 266.49601 227.911614 264.494151 227.911614 
C 262.492292 227.911614 260.572155 228.706961 259.156627 230.122489 
C 257.741099 231.538017 256.945752 233.458154 256.945752 235.460013 
C 256.945752 237.461872 257.741099 239.382009 259.156627 240.797537 
C 260.572155 242.213065 262.492292 243.008412 264.494151 243.008412 
z
" style="fill:#9558b2;fill-opacity:0.5;stroke:#9558b2;stroke-linejoin:miter;stroke-width:2;"/>
   </g>
   <g id="patch_62">
    <path clip-path="url(#p48a213f13e)" d="M 294.687746 239.234212 
C 295.688675 239.234212 296.648744 238.836539 297.356508 238.128775 
C 298.064272 237.421011 298.461945 236.460942 298.461945 235.460013 
C 298.461945 234.459083 298.064272 233.499015 297.356508 232.791251 
C 296.648744 232.083487 295.688675 231.685813 294.687746 231.685813 
C 293.686816 231.685813 292.726748 232.083487 292.018984 232.791251 
C 291.31122 233.499015 290.913546 234.459083 290.913546 235.460013 
C 290.913546 236.460942 291.31122 237.421011 292.018984 238.128775 
C 292.726748 238.836539 293.686816 239.234212 294.687746 239.234212 
z
" style="fill:#009900;fill-opacity:0.5;stroke:#009900;stroke-linejoin:miter;stroke-width:2;"/>
   </g>
   <g id="patch_63">
    <path clip-path="url(#p48a213f13e)" d="M 264.494151 212.814817 
C 266.49601 212.814817 268.416147 212.01947 269.831675 210.603942 
C 271.247203 209.188414 272.04255 207.268277 272.04255 205.266418 
C 272.04255 203.264559 271.247203 201.344422 269.831675 199.928894 
C 268.416147 198.513366 266.49601 197.718019 264.494151 197.718019 
C 262.492292 197.718019 260.572155 198.513366 259.156627 199.928894 
C 257.741099 201.344422 256.945752 203.264559 256.945752 205.266418 
C 256.945752 207.268277 257.741099 209.188414 259.156627 210.603942 
C 260.572155 212.01947 262.492292 212.814817 264.494151 212.814817 
z
" style="fill:#9558b2;fill-opacity:0.5;stroke:#9558b2;stroke-linejoin:miter;stroke-width:2;"/>
   </g>
   <g id="patch_64">
    <path clip-path="url(#p48a213f13e)" d="M 294.687746 209.040617 
C 295.688675 209.040617 296.648744 208.642944 297.356508 207.93518 
C 298.064272 207.227416 298.461945 206.267347 298.461945 205.266418 
C 298.461945 204.265489 298.064272 203.30542 297.356508 202.597656 
C 296.648744 201.889892 295.688675 201.492219 294.687746 201.492219 
C 293.686816 201.492219 292.726748 201.889892 292.018984 202.597656 
C 291.31122 203.30542 290.913546 204.265489 290.913546 205.266418 
C 290.913546 206.267347 291.31122 207.227416 292.018984 207.93518 
C 292.726748 208.642944 293.686816 209.040617 294.687746 209.040617 
z
" style="fill:#009900;fill-opacity:0.5;stroke:#009900;stroke-linejoin:miter;stroke-width:2;"/>
   </g>
   <g id="patch_65">
    <path clip-path="url(#p48a213f13e)" d="M 264.494151 182.621222 
C 266.49601 182.621222 268.416147 181.825875 269.831675 180.410347 
C 271.247203 178.994819 272.04255 177.074682 272.04255 175.072823 
C 272.04255 173.070964 271.247203 171.150827 269.831675 169.735299 
C 268.416147 168.319771 266.49601 167.524424 264.494151 167.524424 
C 262.492292 167.524424 260.572155 168.319771 259.156627 169.735299 
C 257.741099 171.150827 256.945752 173.070964 256.945752 175.072823 
C 256.945752 177.074682 257.741099 178.994819 259.156627 180.410347 
C 260.572155 181.825875 262.492292 182.621222 264.494151 182.621222 
z
" style="fill:#9558b2;fill-opacity:0.5;stroke:#9558b2;stroke-linejoin:miter;stroke-width:2;"/>
   </g>
   <g id="patch_66">
    <path clip-path="url(#p48a213f13e)" d="M 294.687746 178.847023 
C 295.688675 178.847023 296.648744 178.449349 297.356508 177.741585 
C 298.064272 177.033821 298.461945 176.073753 298.461945 175.072823 
C 298.461945 174.071894 298.064272 173.111825 297.356508 172.404061 
C 296.648744 171.696297 295.688675 171.298624 294.687746 171.298624 
C 293.686816 171.298624 292.726748 171.696297 292.018984 172.404061 
C 291.31122 173.111825 290.913546 174.071894 290.913546 175.072823 
C 290.913546 176.073753 291.31122 177.033821 292.018984 177.741585 
C 292.726748 178.449349 293.686816 178.847023 294.687746 178.847023 
z
" style="fill:#009900;fill-opacity:0.5;stroke:#009900;stroke-linejoin:miter;stroke-width:2;"/>
   </g>
   <g id="patch_67">
    <path clip-path="url(#p48a213f13e)" d="M 264.494151 152.427627 
C 266.49601 152.427627 268.416147 151.63228 269.831675 150.216752 
C 271.247203 148.801224 272.04255 146.881087 272.04255 144.879228 
C 272.04255 142.87737 271.247203 140.957232 269.831675 139.541704 
C 268.416147 138.126177 266.49601 137.33083 264.494151 137.33083 
C 262.492292 137.33083 260.572155 138.126177 259.156627 139.541704 
C 257.741099 140.957232 256.945752 142.87737 256.945752 144.879228 
C 256.945752 146.881087 257.741099 148.801224 259.156627 150.216752 
C 260.572155 151.63228 262.492292 152.427627 264.494151 152.427627 
z
" style="fill:#9558b2;fill-opacity:0.5;stroke:#9558b2;stroke-linejoin:miter;stroke-width:2;"/>
   </g>
   <g id="patch_68">
    <path clip-path="url(#p48a213f13e)" d="M 294.687746 148.653428 
C 295.688675 148.653428 296.648744 148.255754 297.356508 147.54799 
C 298.064272 146.840226 298.461945 145.880158 298.461945 144.879228 
C 298.461945 143.878299 298.064272 142.91823 297.356508 142.210466 
C 296.648744 141.502702 295.688675 141.105029 294.687746 141.105029 
C 293.686816 141.105029 292.726748 141.502702 292.018984 142.210466 
C 291.31122 142.91823 290.913546 143.878299 290.913546 144.879228 
C 290.913546 145.880158 291.31122 146.840226 292.018984 147.54799 
C 292.726748 148.255754 293.686816 148.653428 294.687746 148.653428 
z
" style="fill:#009900;fill-opacity:0.5;stroke:#009900;stroke-linejoin:miter;stroke-width:2;"/>
   </g>
   <g id="patch_69">
    <path clip-path="url(#p48a213f13e)" d="M 264.494151 122.234032 
C 266.49601 122.234032 268.416147 121.438685 269.831675 120.023157 
C 271.247203 118.60763 272.04255 116.687492 272.04255 114.685634 
C 272.04255 112.683775 271.247203 110.763637 269.831675 109.34811 
C 268.416147 107.932582 266.49601 107.137235 264.494151 107.137235 
C 262.492292 107.137235 260.572155 107.932582 259.156627 109.34811 
C 257.741099 110.763637 256.945752 112.683775 256.945752 114.685634 
C 256.945752 116.687492 257.741099 118.60763 259.156627 120.023157 
C 260.572155 121.438685 262.492292 122.234032 264.494151 122.234032 
z
" style="fill:#9558b2;fill-opacity:0.5;stroke:#9558b2;stroke-linejoin:miter;stroke-width:2;"/>
   </g>
   <g id="patch_70">
    <path clip-path="url(#p48a213f13e)" d="M 294.687746 118.459833 
C 295.688675 118.459833 296.648744 118.062159 297.356508 117.354395 
C 298.064272 116.646632 298.461945 115.686563 298.461945 114.685634 
C 298.461945 113.684704 298.064272 112.724636 297.356508 112.016872 
C 296.648744 111.309108 295.688675 110.911434 294.687746 110.911434 
C 293.686816 110.911434 292.726748 111.309108 292.018984 112.016872 
C 291.31122 112.724636 290.913546 113.684704 290.913546 114.685634 
C 290.913546 115.686563 291.31122 116.646632 292.018984 117.354395 
C 292.726748 118.062159 293.686816 118.459833 294.687746 118.459833 
z
" style="fill:#009900;fill-opacity:0.5;stroke:#009900;stroke-linejoin:miter;stroke-width:2;"/>
   </g>
   <g id="patch_71">
    <path clip-path="url(#p48a213f13e)" d="M 264.494151 92.040437 
C 266.49601 92.040437 268.416147 91.245091 269.831675 89.829563 
C 271.247203 88.414035 272.04255 86.493897 272.04255 84.492039 
C 272.04255 82.49018 271.247203 80.570043 269.831675 79.154515 
C 268.416147 77.738987 266.49601 76.94364 264.494151 76.94364 
C 262.492292 76.94364 260.572155 77.738987 259.156627 79.154515 
C 257.741099 80.570043 256.945752 82.49018 256.945752 84.492039 
C 256.945752 86.493897 257.741099 88.414035 259.156627 89.829563 
C 260.572155 91.245091 262.492292 92.040437 264.494151 92.040437 
z
" style="fill:#9558b2;fill-opacity:0.5;stroke:#9558b2;stroke-linejoin:miter;stroke-width:2;"/>
   </g>
   <g id="patch_72">
    <path clip-path="url(#p48a213f13e)" d="M 294.687746 88.266238 
C 295.688675 88.266238 296.648744 87.868565 297.356508 87.160801 
C 298.064272 86.453037 298.461945 85.492968 298.461945 84.492039 
C 298.461945 83.491109 298.064272 82.531041 297.356508 81.823277 
C 296.648744 81.115513 295.688675 80.717839 294.687746 80.717839 
C 293.686816 80.717839 292.726748 81.115513 292.018984 81.823277 
C 291.31122 82.531041 290.913546 83.491109 290.913546 84.492039 
C 290.913546 85.492968 291.31122 86.453037 292.018984 87.160801 
C 292.726748 87.868565 293.686816 88.266238 294.687746 88.266238 
z
" style="fill:#009900;fill-opacity:0.5;stroke:#009900;stroke-linejoin:miter;stroke-width:2;"/>
   </g>
   <g id="patch_73">
    <path clip-path="url(#p48a213f13e)" d="M 264.494151 61.846843 
C 266.49601 61.846843 268.416147 61.051496 269.831675 59.635968 
C 271.247203 58.22044 272.04255 56.300303 272.04255 54.298444 
C 272.04255 52.296585 271.247203 50.376448 269.831675 48.96092 
C 268.416147 47.545392 266.49601 46.750045 264.494151 46.750045 
C 262.492292 46.750045 260.572155 47.545392 259.156627 48.96092 
C 257.741099 50.376448 256.945752 52.296585 256.945752 54.298444 
C 256.945752 56.300303 257.741099 58.22044 259.156627 59.635968 
C 260.572155 61.051496 262.492292 61.846843 264.494151 61.846843 
z
" style="fill:#9558b2;fill-opacity:0.5;stroke:#9558b2;stroke-linejoin:miter;stroke-width:2;"/>
   </g>
   <g id="patch_74">
    <path clip-path="url(#p48a213f13e)" d="M 294.687746 58.072643 
C 295.688675 58.072643 296.648744 57.67497 297.356508 56.967206 
C 298.064272 56.259442 298.461945 55.299373 298.461945 54.298444 
C 298.461945 53.297515 298.064272 52.337446 297.356508 51.629682 
C 296.648744 50.921918 295.688675 50.524245 294.687746 50.524245 
C 293.686816 50.524245 292.726748 50.921918 292.018984 51.629682 
C 291.31122 52.337446 290.913546 53.297515 290.913546 54.298444 
C 290.913546 55.299373 291.31122 56.259442 292.018984 56.967206 
C 292.726748 57.67497 293.686816 58.072643 294.687746 58.072643 
z
" style="fill:#009900;fill-opacity:0.5;stroke:#009900;stroke-linejoin:miter;stroke-width:2;"/>
   </g>
   <g id="patch_75">
    <path clip-path="url(#p48a213f13e)" d="M 324.881341 303.395601 
C 326.883199 303.395601 328.803337 302.600254 330.218865 301.184726 
C 331.634392 299.769198 332.429739 297.849061 332.429739 295.847202 
C 332.429739 293.845344 331.634392 291.925206 330.218865 290.509679 
C 328.803337 289.094151 326.883199 288.298804 324.881341 288.298804 
C 322.879482 288.298804 320.959345 289.094151 319.543817 290.509679 
C 318.128289 291.925206 317.332942 293.845344 317.332942 295.847202 
C 317.332942 297.849061 318.128289 299.769198 319.543817 301.184726 
C 320.959345 302.600254 322.879482 303.395601 324.881341 303.395601 
z
" style="fill:#9558b2;fill-opacity:0.5;stroke:#9558b2;stroke-linejoin:miter;stroke-width:2;"/>
   </g>
   <g id="patch_76">
    <path clip-path="url(#p48a213f13e)" d="M 355.074935 299.621402 
C 356.075865 299.621402 357.035933 299.223728 357.743697 298.515964 
C 358.451461 297.8082 358.849135 296.848132 358.849135 295.847202 
C 358.849135 294.846273 358.451461 293.886204 357.743697 293.17844 
C 357.035933 292.470677 356.075865 292.073003 355.074935 292.073003 
C 354.074006 292.073003 353.113937 292.470677 352.406174 293.17844 
C 351.69841 293.886204 351.300736 294.846273 351.300736 295.847202 
C 351.300736 296.848132 351.69841 297.8082 352.406174 298.515964 
C 353.113937 299.223728 354.074006 299.621402 355.074935 299.621402 
z
" style="fill:#009900;fill-opacity:0.5;stroke:#009900;stroke-linejoin:miter;stroke-width:2;"/>
   </g>
   <g id="patch_77">
    <path clip-path="url(#p48a213f13e)" d="M 324.881341 273.202006 
C 326.883199 273.202006 328.803337 272.406659 330.218865 270.991132 
C 331.634392 269.575604 332.429739 267.655466 332.429739 265.653608 
C 332.429739 263.651749 331.634392 261.731612 330.218865 260.316084 
C 328.803337 258.900556 326.883199 258.105209 324.881341 258.105209 
C 322.879482 258.105209 320.959345 258.900556 319.543817 260.316084 
C 318.128289 261.731612 317.332942 263.651749 317.332942 265.653608 
C 317.332942 267.655466 318.128289 269.575604 319.543817 270.991132 
C 320.959345 272.406659 322.879482 273.202006 324.881341 273.202006 
z
" style="fill:#9558b2;fill-opacity:0.5;stroke:#9558b2;stroke-linejoin:miter;stroke-width:2;"/>
   </g>
   <g id="patch_78">
    <path clip-path="url(#p48a213f13e)" d="M 355.074935 269.427807 
C 356.075865 269.427807 357.035933 269.030134 357.743697 268.32237 
C 358.451461 267.614606 358.849135 266.654537 358.849135 265.653608 
C 358.849135 264.652678 358.451461 263.69261 357.743697 262.984846 
C 357.035933 262.277082 356.075865 261.879408 355.074935 261.879408 
C 354.074006 261.879408 353.113937 262.277082 352.406174 262.984846 
C 351.69841 263.69261 351.300736 264.652678 351.300736 265.653608 
C 351.300736 266.654537 351.69841 267.614606 352.406174 268.32237 
C 353.113937 269.030134 354.074006 269.427807 355.074935 269.427807 
z
" style="fill:#009900;fill-opacity:0.5;stroke:#009900;stroke-linejoin:miter;stroke-width:2;"/>
   </g>
   <g id="patch_79">
    <path clip-path="url(#p48a213f13e)" d="M 324.881341 243.008412 
C 326.883199 243.008412 328.803337 242.213065 330.218865 240.797537 
C 331.634392 239.382009 332.429739 237.461872 332.429739 235.460013 
C 332.429739 233.458154 331.634392 231.538017 330.218865 230.122489 
C 328.803337 228.706961 326.883199 227.911614 324.881341 227.911614 
C 322.879482 227.911614 320.959345 228.706961 319.543817 230.122489 
C 318.128289 231.538017 317.332942 233.458154 317.332942 235.460013 
C 317.332942 237.461872 318.128289 239.382009 319.543817 240.797537 
C 320.959345 242.213065 322.879482 243.008412 324.881341 243.008412 
z
" style="fill:#9558b2;fill-opacity:0.5;stroke:#9558b2;stroke-linejoin:miter;stroke-width:2;"/>
   </g>
   <g id="patch_80">
    <path clip-path="url(#p48a213f13e)" d="M 355.074935 239.234212 
C 356.075865 239.234212 357.035933 238.836539 357.743697 238.128775 
C 358.451461 237.421011 358.849135 236.460942 358.849135 235.460013 
C 358.849135 234.459083 358.451461 233.499015 357.743697 232.791251 
C 357.035933 232.083487 356.075865 231.685813 355.074935 231.685813 
C 354.074006 231.685813 353.113937 232.083487 352.406174 232.791251 
C 351.69841 233.499015 351.300736 234.459083 351.300736 235.460013 
C 351.300736 236.460942 351.69841 237.421011 352.406174 238.128775 
C 353.113937 238.836539 354.074006 239.234212 355.074935 239.234212 
z
" style="fill:#009900;fill-opacity:0.5;stroke:#009900;stroke-linejoin:miter;stroke-width:2;"/>
   </g>
   <g id="patch_81">
    <path clip-path="url(#p48a213f13e)" d="M 324.881341 212.814817 
C 326.883199 212.814817 328.803337 212.01947 330.218865 210.603942 
C 331.634392 209.188414 332.429739 207.268277 332.429739 205.266418 
C 332.429739 203.264559 331.634392 201.344422 330.218865 199.928894 
C 328.803337 198.513366 326.883199 197.718019 324.881341 197.718019 
C 322.879482 197.718019 320.959345 198.513366 319.543817 199.928894 
C 318.128289 201.344422 317.332942 203.264559 317.332942 205.266418 
C 317.332942 207.268277 318.128289 209.188414 319.543817 210.603942 
C 320.959345 212.01947 322.879482 212.814817 324.881341 212.814817 
z
" style="fill:#9558b2;fill-opacity:0.5;stroke:#9558b2;stroke-linejoin:miter;stroke-width:2;"/>
   </g>
   <g id="patch_82">
    <path clip-path="url(#p48a213f13e)" d="M 355.074935 209.040617 
C 356.075865 209.040617 357.035933 208.642944 357.743697 207.93518 
C 358.451461 207.227416 358.849135 206.267347 358.849135 205.266418 
C 358.849135 204.265489 358.451461 203.30542 357.743697 202.597656 
C 357.035933 201.889892 356.075865 201.492219 355.074935 201.492219 
C 354.074006 201.492219 353.113937 201.889892 352.406174 202.597656 
C 351.69841 203.30542 351.300736 204.265489 351.300736 205.266418 
C 351.300736 206.267347 351.69841 207.227416 352.406174 207.93518 
C 353.113937 208.642944 354.074006 209.040617 355.074935 209.040617 
z
" style="fill:#009900;fill-opacity:0.5;stroke:#009900;stroke-linejoin:miter;stroke-width:2;"/>
   </g>
   <g id="patch_83">
    <path clip-path="url(#p48a213f13e)" d="M 324.881341 182.621222 
C 326.883199 182.621222 328.803337 181.825875 330.218865 180.410347 
C 331.634392 178.994819 332.429739 177.074682 332.429739 175.072823 
C 332.429739 173.070964 331.634392 171.150827 330.218865 169.735299 
C 328.803337 168.319771 326.883199 167.524424 324.881341 167.524424 
C 322.879482 167.524424 320.959345 168.319771 319.543817 169.735299 
C 318.128289 171.150827 317.332942 173.070964 317.332942 175.072823 
C 317.332942 177.074682 318.128289 178.994819 319.543817 180.410347 
C 320.959345 181.825875 322.879482 182.621222 324.881341 182.621222 
z
" style="fill:#9558b2;fill-opacity:0.5;stroke:#9558b2;stroke-linejoin:miter;stroke-width:2;"/>
   </g>
   <g id="patch_84">
    <path clip-path="url(#p48a213f13e)" d="M 355.074935 178.847023 
C 356.075865 178.847023 357.035933 178.449349 357.743697 177.741585 
C 358.451461 177.033821 358.849135 176.073753 358.849135 175.072823 
C 358.849135 174.071894 358.451461 173.111825 357.743697 172.404061 
C 357.035933 171.696297 356.075865 171.298624 355.074935 171.298624 
C 354.074006 171.298624 353.113937 171.696297 352.406174 172.404061 
C 351.69841 173.111825 351.300736 174.071894 351.300736 175.072823 
C 351.300736 176.073753 351.69841 177.033821 352.406174 177.741585 
C 353.113937 178.449349 354.074006 178.847023 355.074935 178.847023 
z
" style="fill:#009900;fill-opacity:0.5;stroke:#009900;stroke-linejoin:miter;stroke-width:2;"/>
   </g>
   <g id="patch_85">
    <path clip-path="url(#p48a213f13e)" d="M 324.881341 152.427627 
C 326.883199 152.427627 328.803337 151.63228 330.218865 150.216752 
C 331.634392 148.801224 332.429739 146.881087 332.429739 144.879228 
C 332.429739 142.87737 331.634392 140.957232 330.218865 139.541704 
C 328.803337 138.126177 326.883199 137.33083 324.881341 137.33083 
C 322.879482 137.33083 320.959345 138.126177 319.543817 139.541704 
C 318.128289 140.957232 317.332942 142.87737 317.332942 144.879228 
C 317.332942 146.881087 318.128289 148.801224 319.543817 150.216752 
C 320.959345 151.63228 322.879482 152.427627 324.881341 152.427627 
z
" style="fill:#9558b2;fill-opacity:0.5;stroke:#9558b2;stroke-linejoin:miter;stroke-width:2;"/>
   </g>
   <g id="patch_86">
    <path clip-path="url(#p48a213f13e)" d="M 355.074935 148.653428 
C 356.075865 148.653428 357.035933 148.255754 357.743697 147.54799 
C 358.451461 146.840226 358.849135 145.880158 358.849135 144.879228 
C 358.849135 143.878299 358.451461 142.91823 357.743697 142.210466 
C 357.035933 141.502702 356.075865 141.105029 355.074935 141.105029 
C 354.074006 141.105029 353.113937 141.502702 352.406174 142.210466 
C 351.69841 142.91823 351.300736 143.878299 351.300736 144.879228 
C 351.300736 145.880158 351.69841 146.840226 352.406174 147.54799 
C 353.113937 148.255754 354.074006 148.653428 355.074935 148.653428 
z
" style="fill:#009900;fill-opacity:0.5;stroke:#009900;stroke-linejoin:miter;stroke-width:2;"/>
   </g>
   <g id="patch_87">
    <path clip-path="url(#p48a213f13e)" d="M 324.881341 122.234032 
C 326.883199 122.234032 328.803337 121.438685 330.218865 120.023157 
C 331.634392 118.60763 332.429739 116.687492 332.429739 114.685634 
C 332.429739 112.683775 331.634392 110.763637 330.218865 109.34811 
C 328.803337 107.932582 326.883199 107.137235 324.881341 107.137235 
C 322.879482 107.137235 320.959345 107.932582 319.543817 109.34811 
C 318.128289 110.763637 317.332942 112.683775 317.332942 114.685634 
C 317.332942 116.687492 318.128289 118.60763 319.543817 120.023157 
C 320.959345 121.438685 322.879482 122.234032 324.881341 122.234032 
z
" style="fill:#9558b2;fill-opacity:0.5;stroke:#9558b2;stroke-linejoin:miter;stroke-width:2;"/>
   </g>
   <g id="patch_88">
    <path clip-path="url(#p48a213f13e)" d="M 355.074935 118.459833 
C 356.075865 118.459833 357.035933 118.062159 357.743697 117.354395 
C 358.451461 116.646632 358.849135 115.686563 358.849135 114.685634 
C 358.849135 113.684704 358.451461 112.724636 357.743697 112.016872 
C 357.035933 111.309108 356.075865 110.911434 355.074935 110.911434 
C 354.074006 110.911434 353.113937 111.309108 352.406174 112.016872 
C 351.69841 112.724636 351.300736 113.684704 351.300736 114.685634 
C 351.300736 115.686563 351.69841 116.646632 352.406174 117.354395 
C 353.113937 118.062159 354.074006 118.459833 355.074935 118.459833 
z
" style="fill:#009900;fill-opacity:0.5;stroke:#009900;stroke-linejoin:miter;stroke-width:2;"/>
   </g>
   <g id="patch_89">
    <path clip-path="url(#p48a213f13e)" d="M 324.881341 92.040437 
C 326.883199 92.040437 328.803337 91.245091 330.218865 89.829563 
C 331.634392 88.414035 332.429739 86.493897 332.429739 84.492039 
C 332.429739 82.49018 331.634392 80.570043 330.218865 79.154515 
C 328.803337 77.738987 326.883199 76.94364 324.881341 76.94364 
C 322.879482 76.94364 320.959345 77.738987 319.543817 79.154515 
C 318.128289 80.570043 317.332942 82.49018 317.332942 84.492039 
C 317.332942 86.493897 318.128289 88.414035 319.543817 89.829563 
C 320.959345 91.245091 322.879482 92.040437 324.881341 92.040437 
z
" style="fill:#9558b2;fill-opacity:0.5;stroke:#9558b2;stroke-linejoin:miter;stroke-width:2;"/>
   </g>
   <g id="patch_90">
    <path clip-path="url(#p48a213f13e)" d="M 355.074935 88.266238 
C 356.075865 88.266238 357.035933 87.868565 357.743697 87.160801 
C 358.451461 86.453037 358.849135 85.492968 358.849135 84.492039 
C 358.849135 83.491109 358.451461 82.531041 357.743697 81.823277 
C 357.035933 81.115513 356.075865 80.717839 355.074935 80.717839 
C 354.074006 80.717839 353.113937 81.115513 352.406174 81.823277 
C 351.69841 82.531041 351.300736 83.491109 351.300736 84.492039 
C 351.300736 85.492968 351.69841 86.453037 352.406174 87.160801 
C 353.113937 87.868565 354.074006 88.266238 355.074935 88.266238 
z
" style="fill:#009900;fill-opacity:0.5;stroke:#009900;stroke-linejoin:miter;stroke-width:2;"/>
   </g>
   <g id="patch_91">
    <path clip-path="url(#p48a213f13e)" d="M 324.881341 61.846843 
C 326.883199 61.846843 328.803337 61.051496 330.218865 59.635968 
C 331.634392 58.22044 332.429739 56.300303 332.429739 54.298444 
C 332.429739 52.296585 331.634392 50.376448 330.218865 48.96092 
C 328.803337 47.545392 326.883199 46.750045 324.881341 46.750045 
C 322.879482 46.750045 320.959345 47.545392 319.543817 48.96092 
C 318.128289 50.376448 317.332942 52.296585 317.332942 54.298444 
C 317.332942 56.300303 318.128289 58.22044 319.543817 59.635968 
C 320.959345 61.051496 322.879482 61.846843 324.881341 61.846843 
z
" style="fill:#9558b2;fill-opacity:0.5;stroke:#9558b2;stroke-linejoin:miter;stroke-width:2;"/>
   </g>
   <g id="patch_92">
    <path clip-path="url(#p48a213f13e)" d="M 355.074935 58.072643 
C 356.075865 58.072643 357.035933 57.67497 357.743697 56.967206 
C 358.451461 56.259442 358.849135 55.299373 358.849135 54.298444 
C 358.849135 53.297515 358.451461 52.337446 357.743697 51.629682 
C 357.035933 50.921918 356.075865 50.524245 355.074935 50.524245 
C 354.074006 50.524245 353.113937 50.921918 352.406174 51.629682 
C 351.69841 52.337446 351.300736 53.297515 351.300736 54.298444 
C 351.300736 55.299373 351.69841 56.259442 352.406174 56.967206 
C 353.113937 57.67497 354.074006 58.072643 355.074935 58.072643 
z
" style="fill:#009900;fill-opacity:0.5;stroke:#009900;stroke-linejoin:miter;stroke-width:2;"/>
   </g>
   <g id="patch_93">
    <path clip-path="url(#p48a213f13e)" d="M 385.26853 303.395601 
C 387.270389 303.395601 389.190526 302.600254 390.606054 301.184726 
C 392.021582 299.769198 392.816929 297.849061 392.816929 295.847202 
C 392.816929 293.845344 392.021582 291.925206 390.606054 290.509679 
C 389.190526 289.094151 387.270389 288.298804 385.26853 288.298804 
C 383.266672 288.298804 381.346534 289.094151 379.931006 290.509679 
C 378.515479 291.925206 377.720132 293.845344 377.720132 295.847202 
C 377.720132 297.849061 378.515479 299.769198 379.931006 301.184726 
C 381.346534 302.600254 383.266672 303.395601 385.26853 303.395601 
z
" style="fill:#9558b2;fill-opacity:0.5;stroke:#9558b2;stroke-linejoin:miter;stroke-width:2;"/>
   </g>
   <g id="patch_94">
    <path clip-path="url(#p48a213f13e)" d="M 415.462125 299.621402 
C 416.463054 299.621402 417.423123 299.223728 418.130887 298.515964 
C 418.838651 297.8082 419.236324 296.848132 419.236324 295.847202 
C 419.236324 294.846273 418.838651 293.886204 418.130887 293.17844 
C 417.423123 292.470677 416.463054 292.073003 415.462125 292.073003 
C 414.461196 292.073003 413.501127 292.470677 412.793363 293.17844 
C 412.085599 293.886204 411.687926 294.846273 411.687926 295.847202 
C 411.687926 296.848132 412.085599 297.8082 412.793363 298.515964 
C 413.501127 299.223728 414.461196 299.621402 415.462125 299.621402 
z
" style="fill:#009900;fill-opacity:0.5;stroke:#009900;stroke-linejoin:miter;stroke-width:2;"/>
   </g>
   <g id="patch_95">
    <path clip-path="url(#p48a213f13e)" d="M 385.26853 273.202006 
C 387.270389 273.202006 389.190526 272.406659 390.606054 270.991132 
C 392.021582 269.575604 392.816929 267.655466 392.816929 265.653608 
C 392.816929 263.651749 392.021582 261.731612 390.606054 260.316084 
C 389.190526 258.900556 387.270389 258.105209 385.26853 258.105209 
C 383.266672 258.105209 381.346534 258.900556 379.931006 260.316084 
C 378.515479 261.731612 377.720132 263.651749 377.720132 265.653608 
C 377.720132 267.655466 378.515479 269.575604 379.931006 270.991132 
C 381.346534 272.406659 383.266672 273.202006 385.26853 273.202006 
z
" style="fill:#9558b2;fill-opacity:0.5;stroke:#9558b2;stroke-linejoin:miter;stroke-width:2;"/>
   </g>
   <g id="patch_96">
    <path clip-path="url(#p48a213f13e)" d="M 415.462125 269.427807 
C 416.463054 269.427807 417.423123 269.030134 418.130887 268.32237 
C 418.838651 267.614606 419.236324 266.654537 419.236324 265.653608 
C 419.236324 264.652678 418.838651 263.69261 418.130887 262.984846 
C 417.423123 262.277082 416.463054 261.879408 415.462125 261.879408 
C 414.461196 261.879408 413.501127 262.277082 412.793363 262.984846 
C 412.085599 263.69261 411.687926 264.652678 411.687926 265.653608 
C 411.687926 266.654537 412.085599 267.614606 412.793363 268.32237 
C 413.501127 269.030134 414.461196 269.427807 415.462125 269.427807 
z
" style="fill:#009900;fill-opacity:0.5;stroke:#009900;stroke-linejoin:miter;stroke-width:2;"/>
   </g>
   <g id="patch_97">
    <path clip-path="url(#p48a213f13e)" d="M 385.26853 243.008412 
C 387.270389 243.008412 389.190526 242.213065 390.606054 240.797537 
C 392.021582 239.382009 392.816929 237.461872 392.816929 235.460013 
C 392.816929 233.458154 392.021582 231.538017 390.606054 230.122489 
C 389.190526 228.706961 387.270389 227.911614 385.26853 227.911614 
C 383.266672 227.911614 381.346534 228.706961 379.931006 230.122489 
C 378.515479 231.538017 377.720132 233.458154 377.720132 235.460013 
C 377.720132 237.461872 378.515479 239.382009 379.931006 240.797537 
C 381.346534 242.213065 383.266672 243.008412 385.26853 243.008412 
z
" style="fill:#9558b2;fill-opacity:0.5;stroke:#9558b2;stroke-linejoin:miter;stroke-width:2;"/>
   </g>
   <g id="patch_98">
    <path clip-path="url(#p48a213f13e)" d="M 415.462125 239.234212 
C 416.463054 239.234212 417.423123 238.836539 418.130887 238.128775 
C 418.838651 237.421011 419.236324 236.460942 419.236324 235.460013 
C 419.236324 234.459083 418.838651 233.499015 418.130887 232.791251 
C 417.423123 232.083487 416.463054 231.685813 415.462125 231.685813 
C 414.461196 231.685813 413.501127 232.083487 412.793363 232.791251 
C 412.085599 233.499015 411.687926 234.459083 411.687926 235.460013 
C 411.687926 236.460942 412.085599 237.421011 412.793363 238.128775 
C 413.501127 238.836539 414.461196 239.234212 415.462125 239.234212 
z
" style="fill:#009900;fill-opacity:0.5;stroke:#009900;stroke-linejoin:miter;stroke-width:2;"/>
   </g>
   <g id="patch_99">
    <path clip-path="url(#p48a213f13e)" d="M 385.26853 212.814817 
C 387.270389 212.814817 389.190526 212.01947 390.606054 210.603942 
C 392.021582 209.188414 392.816929 207.268277 392.816929 205.266418 
C 392.816929 203.264559 392.021582 201.344422 390.606054 199.928894 
C 389.190526 198.513366 387.270389 197.718019 385.26853 197.718019 
C 383.266672 197.718019 381.346534 198.513366 379.931006 199.928894 
C 378.515479 201.344422 377.720132 203.264559 377.720132 205.266418 
C 377.720132 207.268277 378.515479 209.188414 379.931006 210.603942 
C 381.346534 212.01947 383.266672 212.814817 385.26853 212.814817 
z
" style="fill:#9558b2;fill-opacity:0.5;stroke:#9558b2;stroke-linejoin:miter;stroke-width:2;"/>
   </g>
   <g id="patch_100">
    <path clip-path="url(#p48a213f13e)" d="M 415.462125 209.040617 
C 416.463054 209.040617 417.423123 208.642944 418.130887 207.93518 
C 418.838651 207.227416 419.236324 206.267347 419.236324 205.266418 
C 419.236324 204.265489 418.838651 203.30542 418.130887 202.597656 
C 417.423123 201.889892 416.463054 201.492219 415.462125 201.492219 
C 414.461196 201.492219 413.501127 201.889892 412.793363 202.597656 
C 412.085599 203.30542 411.687926 204.265489 411.687926 205.266418 
C 411.687926 206.267347 412.085599 207.227416 412.793363 207.93518 
C 413.501127 208.642944 414.461196 209.040617 415.462125 209.040617 
z
" style="fill:#009900;fill-opacity:0.5;stroke:#009900;stroke-linejoin:miter;stroke-width:2;"/>
   </g>
   <g id="patch_101">
    <path clip-path="url(#p48a213f13e)" d="M 385.26853 182.621222 
C 387.270389 182.621222 389.190526 181.825875 390.606054 180.410347 
C 392.021582 178.994819 392.816929 177.074682 392.816929 175.072823 
C 392.816929 173.070964 392.021582 171.150827 390.606054 169.735299 
C 389.190526 168.319771 387.270389 167.524424 385.26853 167.524424 
C 383.266672 167.524424 381.346534 168.319771 379.931006 169.735299 
C 378.515479 171.150827 377.720132 173.070964 377.720132 175.072823 
C 377.720132 177.074682 378.515479 178.994819 379.931006 180.410347 
C 381.346534 181.825875 383.266672 182.621222 385.26853 182.621222 
z
" style="fill:#9558b2;fill-opacity:0.5;stroke:#9558b2;stroke-linejoin:miter;stroke-width:2;"/>
   </g>
   <g id="patch_102">
    <path clip-path="url(#p48a213f13e)" d="M 415.462125 178.847023 
C 416.463054 178.847023 417.423123 178.449349 418.130887 177.741585 
C 418.838651 177.033821 419.236324 176.073753 419.236324 175.072823 
C 419.236324 174.071894 418.838651 173.111825 418.130887 172.404061 
C 417.423123 171.696297 416.463054 171.298624 415.462125 171.298624 
C 414.461196 171.298624 413.501127 171.696297 412.793363 172.404061 
C 412.085599 173.111825 411.687926 174.071894 411.687926 175.072823 
C 411.687926 176.073753 412.085599 177.033821 412.793363 177.741585 
C 413.501127 178.449349 414.461196 178.847023 415.462125 178.847023 
z
" style="fill:#009900;fill-opacity:0.5;stroke:#009900;stroke-linejoin:miter;stroke-width:2;"/>
   </g>
   <g id="patch_103">
    <path clip-path="url(#p48a213f13e)" d="M 385.26853 152.427627 
C 387.270389 152.427627 389.190526 151.63228 390.606054 150.216752 
C 392.021582 148.801224 392.816929 146.881087 392.816929 144.879228 
C 392.816929 142.87737 392.021582 140.957232 390.606054 139.541704 
C 389.190526 138.126177 387.270389 137.33083 385.26853 137.33083 
C 383.266672 137.33083 381.346534 138.126177 379.931006 139.541704 
C 378.515479 140.957232 377.720132 142.87737 377.720132 144.879228 
C 377.720132 146.881087 378.515479 148.801224 379.931006 150.216752 
C 381.346534 151.63228 383.266672 152.427627 385.26853 152.427627 
z
" style="fill:#9558b2;fill-opacity:0.5;stroke:#9558b2;stroke-linejoin:miter;stroke-width:2;"/>
   </g>
   <g id="patch_104">
    <path clip-path="url(#p48a213f13e)" d="M 415.462125 148.653428 
C 416.463054 148.653428 417.423123 148.255754 418.130887 147.54799 
C 418.838651 146.840226 419.236324 145.880158 419.236324 144.879228 
C 419.236324 143.878299 418.838651 142.91823 418.130887 142.210466 
C 417.423123 141.502702 416.463054 141.105029 415.462125 141.105029 
C 414.461196 141.105029 413.501127 141.502702 412.793363 142.210466 
C 412.085599 142.91823 411.687926 143.878299 411.687926 144.879228 
C 411.687926 145.880158 412.085599 146.840226 412.793363 147.54799 
C 413.501127 148.255754 414.461196 148.653428 415.462125 148.653428 
z
" style="fill:#009900;fill-opacity:0.5;stroke:#009900;stroke-linejoin:miter;stroke-width:2;"/>
   </g>
   <g id="patch_105">
    <path clip-path="url(#p48a213f13e)" d="M 385.26853 122.234032 
C 387.270389 122.234032 389.190526 121.438685 390.606054 120.023157 
C 392.021582 118.60763 392.816929 116.687492 392.816929 114.685634 
C 392.816929 112.683775 392.021582 110.763637 390.606054 109.34811 
C 389.190526 107.932582 387.270389 107.137235 385.26853 107.137235 
C 383.266672 107.137235 381.346534 107.932582 379.931006 109.34811 
C 378.515479 110.763637 377.720132 112.683775 377.720132 114.685634 
C 377.720132 116.687492 378.515479 118.60763 379.931006 120.023157 
C 381.346534 121.438685 383.266672 122.234032 385.26853 122.234032 
z
" style="fill:#9558b2;fill-opacity:0.5;stroke:#9558b2;stroke-linejoin:miter;stroke-width:2;"/>
   </g>
   <g id="patch_106">
    <path clip-path="url(#p48a213f13e)" d="M 415.462125 118.459833 
C 416.463054 118.459833 417.423123 118.062159 418.130887 117.354395 
C 418.838651 116.646632 419.236324 115.686563 419.236324 114.685634 
C 419.236324 113.684704 418.838651 112.724636 418.130887 112.016872 
C 417.423123 111.309108 416.463054 110.911434 415.462125 110.911434 
C 414.461196 110.911434 413.501127 111.309108 412.793363 112.016872 
C 412.085599 112.724636 411.687926 113.684704 411.687926 114.685634 
C 411.687926 115.686563 412.085599 116.646632 412.793363 117.354395 
C 413.501127 118.062159 414.461196 118.459833 415.462125 118.459833 
z
" style="fill:#009900;fill-opacity:0.5;stroke:#009900;stroke-linejoin:miter;stroke-width:2;"/>
   </g>
   <g id="patch_107">
    <path clip-path="url(#p48a213f13e)" d="M 385.26853 92.040437 
C 387.270389 92.040437 389.190526 91.245091 390.606054 89.829563 
C 392.021582 88.414035 392.816929 86.493897 392.816929 84.492039 
C 392.816929 82.49018 392.021582 80.570043 390.606054 79.154515 
C 389.190526 77.738987 387.270389 76.94364 385.26853 76.94364 
C 383.266672 76.94364 381.346534 77.738987 379.931006 79.154515 
C 378.515479 80.570043 377.720132 82.49018 377.720132 84.492039 
C 377.720132 86.493897 378.515479 88.414035 379.931006 89.829563 
C 381.346534 91.245091 383.266672 92.040437 385.26853 92.040437 
z
" style="fill:#9558b2;fill-opacity:0.5;stroke:#9558b2;stroke-linejoin:miter;stroke-width:2;"/>
   </g>
   <g id="patch_108">
    <path clip-path="url(#p48a213f13e)" d="M 415.462125 88.266238 
C 416.463054 88.266238 417.423123 87.868565 418.130887 87.160801 
C 418.838651 86.453037 419.236324 85.492968 419.236324 84.492039 
C 419.236324 83.491109 418.838651 82.531041 418.130887 81.823277 
C 417.423123 81.115513 416.463054 80.717839 415.462125 80.717839 
C 414.461196 80.717839 413.501127 81.115513 412.793363 81.823277 
C 412.085599 82.531041 411.687926 83.491109 411.687926 84.492039 
C 411.687926 85.492968 412.085599 86.453037 412.793363 87.160801 
C 413.501127 87.868565 414.461196 88.266238 415.462125 88.266238 
z
" style="fill:#009900;fill-opacity:0.5;stroke:#009900;stroke-linejoin:miter;stroke-width:2;"/>
   </g>
   <g id="patch_109">
    <path clip-path="url(#p48a213f13e)" d="M 385.26853 61.846843 
C 387.270389 61.846843 389.190526 61.051496 390.606054 59.635968 
C 392.021582 58.22044 392.816929 56.300303 392.816929 54.298444 
C 392.816929 52.296585 392.021582 50.376448 390.606054 48.96092 
C 389.190526 47.545392 387.270389 46.750045 385.26853 46.750045 
C 383.266672 46.750045 381.346534 47.545392 379.931006 48.96092 
C 378.515479 50.376448 377.720132 52.296585 377.720132 54.298444 
C 377.720132 56.300303 378.515479 58.22044 379.931006 59.635968 
C 381.346534 61.051496 383.266672 61.846843 385.26853 61.846843 
z
" style="fill:#9558b2;fill-opacity:0.5;stroke:#9558b2;stroke-linejoin:miter;stroke-width:2;"/>
   </g>
   <g id="patch_110">
    <path clip-path="url(#p48a213f13e)" d="M 415.462125 58.072643 
C 416.463054 58.072643 417.423123 57.67497 418.130887 56.967206 
C 418.838651 56.259442 419.236324 55.299373 419.236324 54.298444 
C 419.236324 53.297515 418.838651 52.337446 418.130887 51.629682 
C 417.423123 50.921918 416.463054 50.524245 415.462125 50.524245 
C 414.461196 50.524245 413.501127 50.921918 412.793363 51.629682 
C 412.085599 52.337446 411.687926 53.297515 411.687926 54.298444 
C 411.687926 55.299373 412.085599 56.259442 412.793363 56.967206 
C 413.501127 57.67497 414.461196 58.072643 415.462125 58.072643 
z
" style="fill:#009900;fill-opacity:0.5;stroke:#009900;stroke-linejoin:miter;stroke-width:2;"/>
   </g>
   <g id="matplotlib.axis_1">
    <g id="xtick_1">
     <g id="line2d_1">
      <defs>
       <path d="M 0 0 
L 0 3.5 
" id="md9e73ac2dd" style="stroke:#000000;stroke-width:0.8;"/>
      </defs>
      <g>
       <use style="stroke:#000000;stroke-width:0.8;" x="68.235785" xlink:href="#md9e73ac2dd" y="307.584"/>
      </g>
     </g>
     <g id="text_1">
      <!-- 2 -->
      <defs>
       <path d="M 10.59375 35.5 
L 73.1875 35.5 
L 73.1875 27.203125 
L 10.59375 27.203125 
z
" id="DejaVuSans-2212"/>
       <path d="M 19.1875 8.296875 
L 53.609375 8.296875 
L 53.609375 0 
L 7.328125 0 
L 7.328125 8.296875 
Q 12.9375 14.109375 22.625 23.890625 
Q 32.328125 33.6875 34.8125 36.53125 
Q 39.546875 41.84375 41.421875 45.53125 
Q 43.3125 49.21875 43.3125 52.78125 
Q 43.3125 58.59375 39.234375 62.25 
Q 35.15625 65.921875 28.609375 65.921875 
Q 23.96875 65.921875 18.8125 64.3125 
Q 13.671875 62.703125 7.8125 59.421875 
L 7.8125 69.390625 
Q 13.765625 71.78125 18.9375 73 
Q 24.125 74.21875 28.421875 74.21875 
Q 39.75 74.21875 46.484375 68.546875 
Q 53.21875 62.890625 53.21875 53.421875 
Q 53.21875 48.921875 51.53125 44.890625 
Q 49.859375 40.875 45.40625 35.40625 
Q 44.1875 33.984375 37.640625 27.21875 
Q 31.109375 20.453125 19.1875 8.296875 
z
" id="DejaVuSans-32"/>
      </defs>
      <g transform="translate(60.864691 322.182437)scale(0.1 -0.1)">
       <use xlink:href="#DejaVuSans-2212"/>
       <use x="83.789062" xlink:href="#DejaVuSans-32"/>
      </g>
     </g>
    </g>
    <g id="xtick_2">
     <g id="line2d_2">
      <g>
       <use style="stroke:#000000;stroke-width:0.8;" x="128.622974" xlink:href="#md9e73ac2dd" y="307.584"/>
      </g>
     </g>
     <g id="text_2">
      <!-- 0 -->
      <defs>
       <path d="M 31.78125 66.40625 
Q 24.171875 66.40625 20.328125 58.90625 
Q 16.5 51.421875 16.5 36.375 
Q 16.5 21.390625 20.328125 13.890625 
Q 24.171875 6.390625 31.78125 6.390625 
Q 39.453125 6.390625 43.28125 13.890625 
Q 47.125 21.390625 47.125 36.375 
Q 47.125 51.421875 43.28125 58.90625 
Q 39.453125 66.40625 31.78125 66.40625 
z
M 31.78125 74.21875 
Q 44.046875 74.21875 50.515625 64.515625 
Q 56.984375 54.828125 56.984375 36.375 
Q 56.984375 17.96875 50.515625 8.265625 
Q 44.046875 -1.421875 31.78125 -1.421875 
Q 19.53125 -1.421875 13.0625 8.265625 
Q 6.59375 17.96875 6.59375 36.375 
Q 6.59375 54.828125 13.0625 64.515625 
Q 19.53125 74.21875 31.78125 74.21875 
z
" id="DejaVuSans-30"/>
      </defs>
      <g transform="translate(125.441724 322.182437)scale(0.1 -0.1)">
       <use xlink:href="#DejaVuSans-30"/>
      </g>
     </g>
    </g>
    <g id="xtick_3">
     <g id="line2d_3">
      <g>
       <use style="stroke:#000000;stroke-width:0.8;" x="189.010164" xlink:href="#md9e73ac2dd" y="307.584"/>
      </g>
     </g>
     <g id="text_3">
      <!-- 2 -->
      <g transform="translate(185.828914 322.182437)scale(0.1 -0.1)">
       <use xlink:href="#DejaVuSans-32"/>
      </g>
     </g>
    </g>
    <g id="xtick_4">
     <g id="line2d_4">
      <g>
       <use style="stroke:#000000;stroke-width:0.8;" x="249.397354" xlink:href="#md9e73ac2dd" y="307.584"/>
      </g>
     </g>
     <g id="text_4">
      <!-- 4 -->
      <defs>
       <path d="M 37.796875 64.3125 
L 12.890625 25.390625 
L 37.796875 25.390625 
z
M 35.203125 72.90625 
L 47.609375 72.90625 
L 47.609375 25.390625 
L 58.015625 25.390625 
L 58.015625 17.1875 
L 47.609375 17.1875 
L 47.609375 0 
L 37.796875 0 
L 37.796875 17.1875 
L 4.890625 17.1875 
L 4.890625 26.703125 
z
" id="DejaVuSans-34"/>
      </defs>
      <g transform="translate(246.216104 322.182437)scale(0.1 -0.1)">
       <use xlink:href="#DejaVuSans-34"/>
      </g>
     </g>
    </g>
    <g id="xtick_5">
     <g id="line2d_5">
      <g>
       <use style="stroke:#000000;stroke-width:0.8;" x="309.784543" xlink:href="#md9e73ac2dd" y="307.584"/>
      </g>
     </g>
     <g id="text_5">
      <!-- 6 -->
      <defs>
       <path d="M 33.015625 40.375 
Q 26.375 40.375 22.484375 35.828125 
Q 18.609375 31.296875 18.609375 23.390625 
Q 18.609375 15.53125 22.484375 10.953125 
Q 26.375 6.390625 33.015625 6.390625 
Q 39.65625 6.390625 43.53125 10.953125 
Q 47.40625 15.53125 47.40625 23.390625 
Q 47.40625 31.296875 43.53125 35.828125 
Q 39.65625 40.375 33.015625 40.375 
z
M 52.59375 71.296875 
L 52.59375 62.3125 
Q 48.875 64.0625 45.09375 64.984375 
Q 41.3125 65.921875 37.59375 65.921875 
Q 27.828125 65.921875 22.671875 59.328125 
Q 17.53125 52.734375 16.796875 39.40625 
Q 19.671875 43.65625 24.015625 45.921875 
Q 28.375 48.1875 33.59375 48.1875 
Q 44.578125 48.1875 50.953125 41.515625 
Q 57.328125 34.859375 57.328125 23.390625 
Q 57.328125 12.15625 50.6875 5.359375 
Q 44.046875 -1.421875 33.015625 -1.421875 
Q 20.359375 -1.421875 13.671875 8.265625 
Q 6.984375 17.96875 6.984375 36.375 
Q 6.984375 53.65625 15.1875 63.9375 
Q 23.390625 74.21875 37.203125 74.21875 
Q 40.921875 74.21875 44.703125 73.484375 
Q 48.484375 72.75 52.59375 71.296875 
z
" id="DejaVuSans-36"/>
      </defs>
      <g transform="translate(306.603293 322.182437)scale(0.1 -0.1)">
       <use xlink:href="#DejaVuSans-36"/>
      </g>
     </g>
    </g>
    <g id="xtick_6">
     <g id="line2d_6">
      <g>
       <use style="stroke:#000000;stroke-width:0.8;" x="370.171733" xlink:href="#md9e73ac2dd" y="307.584"/>
      </g>
     </g>
     <g id="text_6">
      <!-- 8 -->
      <defs>
       <path d="M 31.78125 34.625 
Q 24.75 34.625 20.71875 30.859375 
Q 16.703125 27.09375 16.703125 20.515625 
Q 16.703125 13.921875 20.71875 10.15625 
Q 24.75 6.390625 31.78125 6.390625 
Q 38.8125 6.390625 42.859375 10.171875 
Q 46.921875 13.96875 46.921875 20.515625 
Q 46.921875 27.09375 42.890625 30.859375 
Q 38.875 34.625 31.78125 34.625 
z
M 21.921875 38.8125 
Q 15.578125 40.375 12.03125 44.71875 
Q 8.5 49.078125 8.5 55.328125 
Q 8.5 64.0625 14.71875 69.140625 
Q 20.953125 74.21875 31.78125 74.21875 
Q 42.671875 74.21875 48.875 69.140625 
Q 55.078125 64.0625 55.078125 55.328125 
Q 55.078125 49.078125 51.53125 44.71875 
Q 48 40.375 41.703125 38.8125 
Q 48.828125 37.15625 52.796875 32.3125 
Q 56.78125 27.484375 56.78125 20.515625 
Q 56.78125 9.90625 50.3125 4.234375 
Q 43.84375 -1.421875 31.78125 -1.421875 
Q 19.734375 -1.421875 13.25 4.234375 
Q 6.78125 9.90625 6.78125 20.515625 
Q 6.78125 27.484375 10.78125 32.3125 
Q 14.796875 37.15625 21.921875 38.8125 
z
M 18.3125 54.390625 
Q 18.3125 48.734375 21.84375 45.5625 
Q 25.390625 42.390625 31.78125 42.390625 
Q 38.140625 42.390625 41.71875 45.5625 
Q 45.3125 48.734375 45.3125 54.390625 
Q 45.3125 60.0625 41.71875 63.234375 
Q 38.140625 66.40625 31.78125 66.40625 
Q 25.390625 66.40625 21.84375 63.234375 
Q 18.3125 60.0625 18.3125 54.390625 
z
" id="DejaVuSans-38"/>
      </defs>
      <g transform="translate(366.990483 322.182437)scale(0.1 -0.1)">
       <use xlink:href="#DejaVuSans-38"/>
      </g>
     </g>
    </g>
   </g>
   <g id="matplotlib.axis_2">
    <g id="ytick_1">
     <g id="line2d_7">
      <defs>
       <path d="M 0 0 
L -3.5 0 
" id="maa9fb6ef09" style="stroke:#000000;stroke-width:0.8;"/>
      </defs>
      <g>
       <use style="stroke:#000000;stroke-width:0.8;" x="58.235441" xlink:href="#maa9fb6ef09" y="280.750405"/>
      </g>
     </g>
     <g id="text_7">
      <!-- 1 -->
      <defs>
       <path d="M 12.40625 8.296875 
L 28.515625 8.296875 
L 28.515625 63.921875 
L 10.984375 60.40625 
L 10.984375 69.390625 
L 28.421875 72.90625 
L 38.28125 72.90625 
L 38.28125 8.296875 
L 54.390625 8.296875 
L 54.390625 0 
L 12.40625 0 
z
" id="DejaVuSans-31"/>
      </defs>
      <g transform="translate(44.872941 284.549624)scale(0.1 -0.1)">
       <use xlink:href="#DejaVuSans-31"/>
      </g>
     </g>
    </g>
    <g id="ytick_2">
     <g id="line2d_8">
      <g>
       <use style="stroke:#000000;stroke-width:0.8;" x="58.235441" xlink:href="#maa9fb6ef09" y="250.55681"/>
      </g>
     </g>
     <g id="text_8">
      <!-- 2 -->
      <g transform="translate(44.872941 254.356029)scale(0.1 -0.1)">
       <use xlink:href="#DejaVuSans-32"/>
      </g>
     </g>
    </g>
    <g id="ytick_3">
     <g id="line2d_9">
      <g>
       <use style="stroke:#000000;stroke-width:0.8;" x="58.235441" xlink:href="#maa9fb6ef09" y="220.363215"/>
      </g>
     </g>
     <g id="text_9">
      <!-- 3 -->
      <defs>
       <path d="M 40.578125 39.3125 
Q 47.65625 37.796875 51.625 33 
Q 55.609375 28.21875 55.609375 21.1875 
Q 55.609375 10.40625 48.1875 4.484375 
Q 40.765625 -1.421875 27.09375 -1.421875 
Q 22.515625 -1.421875 17.65625 -0.515625 
Q 12.796875 0.390625 7.625 2.203125 
L 7.625 11.71875 
Q 11.71875 9.328125 16.59375 8.109375 
Q 21.484375 6.890625 26.8125 6.890625 
Q 36.078125 6.890625 40.9375 10.546875 
Q 45.796875 14.203125 45.796875 21.1875 
Q 45.796875 27.640625 41.28125 31.265625 
Q 36.765625 34.90625 28.71875 34.90625 
L 20.21875 34.90625 
L 20.21875 43.015625 
L 29.109375 43.015625 
Q 36.375 43.015625 40.234375 45.921875 
Q 44.09375 48.828125 44.09375 54.296875 
Q 44.09375 59.90625 40.109375 62.90625 
Q 36.140625 65.921875 28.71875 65.921875 
Q 24.65625 65.921875 20.015625 65.03125 
Q 15.375 64.15625 9.8125 62.3125 
L 9.8125 71.09375 
Q 15.4375 72.65625 20.34375 73.4375 
Q 25.25 74.21875 29.59375 74.21875 
Q 40.828125 74.21875 47.359375 69.109375 
Q 53.90625 64.015625 53.90625 55.328125 
Q 53.90625 49.265625 50.4375 45.09375 
Q 46.96875 40.921875 40.578125 39.3125 
z
" id="DejaVuSans-33"/>
      </defs>
      <g transform="translate(44.872941 224.162434)scale(0.1 -0.1)">
       <use xlink:href="#DejaVuSans-33"/>
      </g>
     </g>
    </g>
    <g id="ytick_4">
     <g id="line2d_10">
      <g>
       <use style="stroke:#000000;stroke-width:0.8;" x="58.235441" xlink:href="#maa9fb6ef09" y="190.169621"/>
      </g>
     </g>
     <g id="text_10">
      <!-- 4 -->
      <g transform="translate(44.872941 193.968839)scale(0.1 -0.1)">
       <use xlink:href="#DejaVuSans-34"/>
      </g>
     </g>
    </g>
    <g id="ytick_5">
     <g id="line2d_11">
      <g>
       <use style="stroke:#000000;stroke-width:0.8;" x="58.235441" xlink:href="#maa9fb6ef09" y="159.976026"/>
      </g>
     </g>
     <g id="text_11">
      <!-- 5 -->
      <defs>
       <path d="M 10.796875 72.90625 
L 49.515625 72.90625 
L 49.515625 64.59375 
L 19.828125 64.59375 
L 19.828125 46.734375 
Q 21.96875 47.46875 24.109375 47.828125 
Q 26.265625 48.1875 28.421875 48.1875 
Q 40.625 48.1875 47.75 41.5 
Q 54.890625 34.8125 54.890625 23.390625 
Q 54.890625 11.625 47.5625 5.09375 
Q 40.234375 -1.421875 26.90625 -1.421875 
Q 22.3125 -1.421875 17.546875 -0.640625 
Q 12.796875 0.140625 7.71875 1.703125 
L 7.71875 11.625 
Q 12.109375 9.234375 16.796875 8.0625 
Q 21.484375 6.890625 26.703125 6.890625 
Q 35.15625 6.890625 40.078125 11.328125 
Q 45.015625 15.765625 45.015625 23.390625 
Q 45.015625 31 40.078125 35.4375 
Q 35.15625 39.890625 26.703125 39.890625 
Q 22.75 39.890625 18.8125 39.015625 
Q 14.890625 38.140625 10.796875 36.28125 
z
" id="DejaVuSans-35"/>
      </defs>
      <g transform="translate(44.872941 163.775245)scale(0.1 -0.1)">
       <use xlink:href="#DejaVuSans-35"/>
      </g>
     </g>
    </g>
    <g id="ytick_6">
     <g id="line2d_12">
      <g>
       <use style="stroke:#000000;stroke-width:0.8;" x="58.235441" xlink:href="#maa9fb6ef09" y="129.782431"/>
      </g>
     </g>
     <g id="text_12">
      <!-- 6 -->
      <g transform="translate(44.872941 133.58165)scale(0.1 -0.1)">
       <use xlink:href="#DejaVuSans-36"/>
      </g>
     </g>
    </g>
    <g id="ytick_7">
     <g id="line2d_13">
      <g>
       <use style="stroke:#000000;stroke-width:0.8;" x="58.235441" xlink:href="#maa9fb6ef09" y="99.588836"/>
      </g>
     </g>
     <g id="text_13">
      <!-- 7 -->
      <defs>
       <path d="M 8.203125 72.90625 
L 55.078125 72.90625 
L 55.078125 68.703125 
L 28.609375 0 
L 18.3125 0 
L 43.21875 64.59375 
L 8.203125 64.59375 
z
" id="DejaVuSans-37"/>
      </defs>
      <g transform="translate(44.872941 103.388055)scale(0.1 -0.1)">
       <use xlink:href="#DejaVuSans-37"/>
      </g>
     </g>
    </g>
    <g id="ytick_8">
     <g id="line2d_14">
      <g>
       <use style="stroke:#000000;stroke-width:0.8;" x="58.235441" xlink:href="#maa9fb6ef09" y="69.395241"/>
      </g>
     </g>
     <g id="text_14">
      <!-- 8 -->
      <g transform="translate(44.872941 73.19446)scale(0.1 -0.1)">
       <use xlink:href="#DejaVuSans-38"/>
      </g>
     </g>
    </g>
   </g>
   <g id="line2d_15">
    <path clip-path="url(#p48a213f13e)" d="M 161.203543 287.746917 
L 172.194361 292.487203 
L 197.410947 178.55732 
L 203.976184 197.719152 
L 150.186357 171.179034 
L 174.44061 118.422824 
L 196.595438 144.134021 
L 148.087596 60.454777 
L 146.989993 77.688806 
L 170.898391 56.568797 
L 88.429036 109.117467 
L 172.534826 88.005471 
L 204.656721 137.350876 
L 382.825063 121.827607 
L 383.890964 137.457595 
L 358.82757 114.282751 
L 378.075313 86.780258 
L 327.921854 168.163872 
L 352.208731 86.947533 
L 330.051871 89.991488 
L 352.261329 172.557232 
" style="fill:none;stroke:#1f77b4;stroke-linecap:square;stroke-width:1.5;"/>
   </g>
   <g id="patch_111">
    <path d="M 58.235441 307.584 
L 58.235441 41.472 
" style="fill:none;stroke:#000000;stroke-linecap:square;stroke-linejoin:miter;stroke-width:0.8;"/>
   </g>
   <g id="patch_112">
    <path d="M 414.084559 307.584 
L 414.084559 41.472 
" style="fill:none;stroke:#000000;stroke-linecap:square;stroke-linejoin:miter;stroke-width:0.8;"/>
   </g>
   <g id="patch_113">
    <path d="M 58.235441 307.584 
L 414.084559 307.584 
" style="fill:none;stroke:#000000;stroke-linecap:square;stroke-linejoin:miter;stroke-width:0.8;"/>
   </g>
   <g id="patch_114">
    <path d="M 58.235441 41.472 
L 414.084559 41.472 
" style="fill:none;stroke:#000000;stroke-linecap:square;stroke-linejoin:miter;stroke-width:0.8;"/>
   </g>
  </g>
 </g>
 <defs>
  <clipPath id="p48a213f13e">
   <rect height="266.112" width="355.849118" x="58.235441" y="41.472"/>
  </clipPath>
 </defs>
</svg>
