<?xml version="1.0" encoding="utf-8" standalone="no"?>
<!DOCTYPE svg PUBLIC "-//W3C//DTD SVG 1.1//EN"
  "http://www.w3.org/Graphics/SVG/1.1/DTD/svg11.dtd">
<!-- Created with matplotlib (http://matplotlib.org/) -->
<svg height="345.6pt" version="1.1" viewBox="0 0 460.8 345.6" width="460.8pt" xmlns="http://www.w3.org/2000/svg" xmlns:xlink="http://www.w3.org/1999/xlink">
 <defs>
  <style type="text/css">
*{stroke-linecap:butt;stroke-linejoin:round;}
  </style>
 </defs>
 <g id="figure_1">
  <g id="patch_1">
   <path d="M 0 345.6 
L 460.8 345.6 
L 460.8 0 
L 0 0 
z
" style="fill:#ffffff;"/>
  </g>
  <g id="axes_1">
   <g id="patch_2">
    <path d="M 57.6 300.260021 
L 414.72 300.260021 
L 414.72 48.795979 
L 57.6 48.795979 
z
" style="fill:#ffffff;"/>
   </g>
   <g id="PathCollection_1">
    <defs>
     <path d="M 0 3 
C 0.795609 3 1.55874 2.683901 2.12132 2.12132 
C 2.683901 1.55874 3 0.795609 3 0 
C 3 -0.795609 2.683901 -1.55874 2.12132 -2.12132 
C 1.55874 -2.683901 0.795609 -3 0 -3 
C -0.795609 -3 -1.55874 -2.683901 -2.12132 -2.12132 
C -2.683901 -1.55874 -3 -0.795609 -3 0 
C -3 0.795609 -2.683901 1.55874 -2.12132 2.12132 
C -1.55874 2.683901 -0.795609 3 0 3 
z
" id="m042bcae9d2" style="stroke:#000000;"/>
    </defs>
    <g clip-path="url(#p467fdc7b48)">
     <use style="stroke:#000000;" x="300.901764" xlink:href="#m042bcae9d2" y="167.592789"/>
    </g>
   </g>
   <g id="PathCollection_2">
    <defs>
     <path d="M 0 2.738613 
C 0.726289 2.738613 1.422928 2.450055 1.936492 1.936492 
C 2.450055 1.422928 2.738613 0.726289 2.738613 0 
C 2.738613 -0.726289 2.450055 -1.422928 1.936492 -1.936492 
C 1.422928 -2.450055 0.726289 -2.738613 0 -2.738613 
C -0.726289 -2.738613 -1.422928 -2.450055 -1.936492 -1.936492 
C -2.450055 -1.422928 -2.738613 -0.726289 -2.738613 0 
C -2.738613 0.726289 -2.450055 1.422928 -1.936492 1.936492 
C -1.422928 2.450055 -0.726289 2.738613 0 2.738613 
z
" id="mc1e7552805" style="stroke:#000000;"/>
    </defs>
    <g clip-path="url(#p467fdc7b48)">
     <use style="stroke:#000000;" x="192.211051" xlink:href="#mc1e7552805" y="138.903155"/>
    </g>
   </g>
   <g id="Quiver_1">
    <path clip-path="url(#p467fdc7b48)" d="M 192.646733 139.682432 
L 174.723357 149.70312 
L 176.373999 150.825993 
L 167.27418 152.844982 
L 173.759906 146.15033 
L 173.851993 148.144566 
L 191.775369 138.123878 
L 192.646733 139.682432 
"/>
   </g>
   <g id="patch_3">
    <path clip-path="url(#p467fdc7b48)" d="M 86.360437 295.657874 
C 88.801256 295.657874 91.142434 294.688127 92.868354 292.962207 
C 94.594274 291.236287 95.564022 288.895109 95.564022 286.454289 
C 95.564022 284.01347 94.594274 281.672292 92.868354 279.946372 
C 91.142434 278.220452 88.801256 277.250704 86.360437 277.250704 
C 83.919618 277.250704 81.578439 278.220452 79.852519 279.946372 
C 78.1266 281.672292 77.156852 284.01347 77.156852 286.454289 
C 77.156852 288.895109 78.1266 291.236287 79.852519 292.962207 
C 81.578439 294.688127 83.919618 295.657874 86.360437 295.657874 
z
" style="fill:#9558b2;fill-opacity:0.5;stroke:#9558b2;stroke-linejoin:miter;stroke-width:2;"/>
   </g>
   <g id="patch_4">
    <path clip-path="url(#p467fdc7b48)" d="M 123.174777 291.056082 
C 124.395186 291.056082 125.565775 290.571208 126.428735 289.708248 
C 127.291695 288.845288 127.776569 287.674699 127.776569 286.454289 
C 127.776569 285.23388 127.291695 284.063291 126.428735 283.200331 
C 125.565775 282.337371 124.395186 281.852497 123.174777 281.852497 
C 121.954367 281.852497 120.783778 282.337371 119.920818 283.200331 
C 119.057858 284.063291 118.572984 285.23388 118.572984 286.454289 
C 118.572984 287.674699 119.057858 288.845288 119.920818 289.708248 
C 120.783778 290.571208 121.954367 291.056082 123.174777 291.056082 
z
" style="fill:#009900;fill-opacity:0.5;stroke:#009900;stroke-linejoin:miter;stroke-width:2;"/>
   </g>
   <g id="patch_5">
    <path clip-path="url(#p467fdc7b48)" d="M 86.360437 258.843535 
C 88.801256 258.843535 91.142434 257.873787 92.868354 256.147867 
C 94.594274 254.421947 95.564022 252.080769 95.564022 249.63995 
C 95.564022 247.19913 94.594274 244.857952 92.868354 243.132032 
C 91.142434 241.406112 88.801256 240.436365 86.360437 240.436365 
C 83.919618 240.436365 81.578439 241.406112 79.852519 243.132032 
C 78.1266 244.857952 77.156852 247.19913 77.156852 249.63995 
C 77.156852 252.080769 78.1266 254.421947 79.852519 256.147867 
C 81.578439 257.873787 83.919618 258.843535 86.360437 258.843535 
z
" style="fill:#9558b2;fill-opacity:0.5;stroke:#9558b2;stroke-linejoin:miter;stroke-width:2;"/>
   </g>
   <g id="patch_6">
    <path clip-path="url(#p467fdc7b48)" d="M 123.174777 254.241742 
C 124.395186 254.241742 125.565775 253.756868 126.428735 252.893908 
C 127.291695 252.030948 127.776569 250.860359 127.776569 249.63995 
C 127.776569 248.41954 127.291695 247.248951 126.428735 246.385991 
C 125.565775 245.523031 124.395186 245.038157 123.174777 245.038157 
C 121.954367 245.038157 120.783778 245.523031 119.920818 246.385991 
C 119.057858 247.248951 118.572984 248.41954 118.572984 249.63995 
C 118.572984 250.860359 119.057858 252.030948 119.920818 252.893908 
C 120.783778 253.756868 121.954367 254.241742 123.174777 254.241742 
z
" style="fill:#009900;fill-opacity:0.5;stroke:#009900;stroke-linejoin:miter;stroke-width:2;"/>
   </g>
   <g id="patch_7">
    <path clip-path="url(#p467fdc7b48)" d="M 86.360437 222.029195 
C 88.801256 222.029195 91.142434 221.059447 92.868354 219.333527 
C 94.594274 217.607607 95.564022 215.266429 95.564022 212.82561 
C 95.564022 210.38479 94.594274 208.043612 92.868354 206.317692 
C 91.142434 204.591772 88.801256 203.622025 86.360437 203.622025 
C 83.919618 203.622025 81.578439 204.591772 79.852519 206.317692 
C 78.1266 208.043612 77.156852 210.38479 77.156852 212.82561 
C 77.156852 215.266429 78.1266 217.607607 79.852519 219.333527 
C 81.578439 221.059447 83.919618 222.029195 86.360437 222.029195 
z
" style="fill:#9558b2;fill-opacity:0.5;stroke:#9558b2;stroke-linejoin:miter;stroke-width:2;"/>
   </g>
   <g id="patch_8">
    <path clip-path="url(#p467fdc7b48)" d="M 123.174777 217.427402 
C 124.395186 217.427402 125.565775 216.942528 126.428735 216.079568 
C 127.291695 215.216608 127.776569 214.046019 127.776569 212.82561 
C 127.776569 211.6052 127.291695 210.434611 126.428735 209.571651 
C 125.565775 208.708691 124.395186 208.223817 123.174777 208.223817 
C 121.954367 208.223817 120.783778 208.708691 119.920818 209.571651 
C 119.057858 210.434611 118.572984 211.6052 118.572984 212.82561 
C 118.572984 214.046019 119.057858 215.216608 119.920818 216.079568 
C 120.783778 216.942528 121.954367 217.427402 123.174777 217.427402 
z
" style="fill:#009900;fill-opacity:0.5;stroke:#009900;stroke-linejoin:miter;stroke-width:2;"/>
   </g>
   <g id="patch_9">
    <path clip-path="url(#p467fdc7b48)" d="M 86.360437 185.214855 
C 88.801256 185.214855 91.142434 184.245107 92.868354 182.519187 
C 94.594274 180.793267 95.564022 178.452089 95.564022 176.01127 
C 95.564022 173.570451 94.594274 171.229272 92.868354 169.503352 
C 91.142434 167.777433 88.801256 166.807685 86.360437 166.807685 
C 83.919618 166.807685 81.578439 167.777433 79.852519 169.503352 
C 78.1266 171.229272 77.156852 173.570451 77.156852 176.01127 
C 77.156852 178.452089 78.1266 180.793267 79.852519 182.519187 
C 81.578439 184.245107 83.919618 185.214855 86.360437 185.214855 
z
" style="fill:#9558b2;fill-opacity:0.5;stroke:#9558b2;stroke-linejoin:miter;stroke-width:2;"/>
   </g>
   <g id="patch_10">
    <path clip-path="url(#p467fdc7b48)" d="M 123.174777 180.613062 
C 124.395186 180.613062 125.565775 180.128188 126.428735 179.265229 
C 127.291695 178.402269 127.776569 177.231679 127.776569 176.01127 
C 127.776569 174.79086 127.291695 173.620271 126.428735 172.757311 
C 125.565775 171.894351 124.395186 171.409477 123.174777 171.409477 
C 121.954367 171.409477 120.783778 171.894351 119.920818 172.757311 
C 119.057858 173.620271 118.572984 174.79086 118.572984 176.01127 
C 118.572984 177.231679 119.057858 178.402269 119.920818 179.265229 
C 120.783778 180.128188 121.954367 180.613062 123.174777 180.613062 
z
" style="fill:#009900;fill-opacity:0.5;stroke:#009900;stroke-linejoin:miter;stroke-width:2;"/>
   </g>
   <g id="patch_11">
    <path clip-path="url(#p467fdc7b48)" d="M 86.360437 148.400515 
C 88.801256 148.400515 91.142434 147.430767 92.868354 145.704847 
C 94.594274 143.978927 95.564022 141.637749 95.564022 139.19693 
C 95.564022 136.756111 94.594274 134.414932 92.868354 132.689013 
C 91.142434 130.963093 88.801256 129.993345 86.360437 129.993345 
C 83.919618 129.993345 81.578439 130.963093 79.852519 132.689013 
C 78.1266 134.414932 77.156852 136.756111 77.156852 139.19693 
C 77.156852 141.637749 78.1266 143.978927 79.852519 145.704847 
C 81.578439 147.430767 83.919618 148.400515 86.360437 148.400515 
z
" style="fill:#9558b2;fill-opacity:0.5;stroke:#9558b2;stroke-linejoin:miter;stroke-width:2;"/>
   </g>
   <g id="patch_12">
    <path clip-path="url(#p467fdc7b48)" d="M 123.174777 143.798722 
C 124.395186 143.798722 125.565775 143.313849 126.428735 142.450889 
C 127.291695 141.587929 127.776569 140.41734 127.776569 139.19693 
C 127.776569 137.97652 127.291695 136.805931 126.428735 135.942971 
C 125.565775 135.080011 124.395186 134.595137 123.174777 134.595137 
C 121.954367 134.595137 120.783778 135.080011 119.920818 135.942971 
C 119.057858 136.805931 118.572984 137.97652 118.572984 139.19693 
C 118.572984 140.41734 119.057858 141.587929 119.920818 142.450889 
C 120.783778 143.313849 121.954367 143.798722 123.174777 143.798722 
z
" style="fill:#009900;fill-opacity:0.5;stroke:#009900;stroke-linejoin:miter;stroke-width:2;"/>
   </g>
   <g id="patch_13">
    <path clip-path="url(#p467fdc7b48)" d="M 86.360437 111.586175 
C 88.801256 111.586175 91.142434 110.616427 92.868354 108.890507 
C 94.594274 107.164588 95.564022 104.823409 95.564022 102.38259 
C 95.564022 99.941771 94.594274 97.600593 92.868354 95.874673 
C 91.142434 94.148753 88.801256 93.179005 86.360437 93.179005 
C 83.919618 93.179005 81.578439 94.148753 79.852519 95.874673 
C 78.1266 97.600593 77.156852 99.941771 77.156852 102.38259 
C 77.156852 104.823409 78.1266 107.164588 79.852519 108.890507 
C 81.578439 110.616427 83.919618 111.586175 86.360437 111.586175 
z
" style="fill:#9558b2;fill-opacity:0.5;stroke:#9558b2;stroke-linejoin:miter;stroke-width:2;"/>
   </g>
   <g id="patch_14">
    <path clip-path="url(#p467fdc7b48)" d="M 123.174777 106.984383 
C 124.395186 106.984383 125.565775 106.499509 126.428735 105.636549 
C 127.291695 104.773589 127.776569 103.603 127.776569 102.38259 
C 127.776569 101.16218 127.291695 99.991591 126.428735 99.128631 
C 125.565775 98.265672 124.395186 97.780798 123.174777 97.780798 
C 121.954367 97.780798 120.783778 98.265672 119.920818 99.128631 
C 119.057858 99.991591 118.572984 101.16218 118.572984 102.38259 
C 118.572984 103.603 119.057858 104.773589 119.920818 105.636549 
C 120.783778 106.499509 121.954367 106.984383 123.174777 106.984383 
z
" style="fill:#009900;fill-opacity:0.5;stroke:#009900;stroke-linejoin:miter;stroke-width:2;"/>
   </g>
   <g id="patch_15">
    <path clip-path="url(#p467fdc7b48)" d="M 86.360437 74.771835 
C 88.801256 74.771835 91.142434 73.802087 92.868354 72.076168 
C 94.594274 70.350248 95.564022 68.00907 95.564022 65.56825 
C 95.564022 63.127431 94.594274 60.786253 92.868354 59.060333 
C 91.142434 57.334413 88.801256 56.364665 86.360437 56.364665 
C 83.919618 56.364665 81.578439 57.334413 79.852519 59.060333 
C 78.1266 60.786253 77.156852 63.127431 77.156852 65.56825 
C 77.156852 68.00907 78.1266 70.350248 79.852519 72.076168 
C 81.578439 73.802087 83.919618 74.771835 86.360437 74.771835 
z
" style="fill:#9558b2;fill-opacity:0.5;stroke:#9558b2;stroke-linejoin:miter;stroke-width:2;"/>
   </g>
   <g id="patch_16">
    <path clip-path="url(#p467fdc7b48)" d="M 123.174777 70.170043 
C 124.395186 70.170043 125.565775 69.685169 126.428735 68.822209 
C 127.291695 67.959249 127.776569 66.78866 127.776569 65.56825 
C 127.776569 64.347841 127.291695 63.177252 126.428735 62.314292 
C 125.565775 61.451332 124.395186 60.966458 123.174777 60.966458 
C 121.954367 60.966458 120.783778 61.451332 119.920818 62.314292 
C 119.057858 63.177252 118.572984 64.347841 118.572984 65.56825 
C 118.572984 66.78866 119.057858 67.959249 119.920818 68.822209 
C 120.783778 69.685169 121.954367 70.170043 123.174777 70.170043 
z
" style="fill:#009900;fill-opacity:0.5;stroke:#009900;stroke-linejoin:miter;stroke-width:2;"/>
   </g>
   <g id="patch_17">
    <path clip-path="url(#p467fdc7b48)" d="M 159.989117 295.657874 
C 162.429936 295.657874 164.771114 294.688127 166.497034 292.962207 
C 168.222954 291.236287 169.192701 288.895109 169.192701 286.454289 
C 169.192701 284.01347 168.222954 281.672292 166.497034 279.946372 
C 164.771114 278.220452 162.429936 277.250704 159.989117 277.250704 
C 157.548297 277.250704 155.207119 278.220452 153.481199 279.946372 
C 151.755279 281.672292 150.785532 284.01347 150.785532 286.454289 
C 150.785532 288.895109 151.755279 291.236287 153.481199 292.962207 
C 155.207119 294.688127 157.548297 295.657874 159.989117 295.657874 
z
" style="fill:#9558b2;fill-opacity:0.5;stroke:#9558b2;stroke-linejoin:miter;stroke-width:2;"/>
   </g>
   <g id="patch_18">
    <path clip-path="url(#p467fdc7b48)" d="M 196.803456 291.056082 
C 198.023866 291.056082 199.194455 290.571208 200.057415 289.708248 
C 200.920375 288.845288 201.405249 287.674699 201.405249 286.454289 
C 201.405249 285.23388 200.920375 284.063291 200.057415 283.200331 
C 199.194455 282.337371 198.023866 281.852497 196.803456 281.852497 
C 195.583047 281.852497 194.412458 282.337371 193.549498 283.200331 
C 192.686538 284.063291 192.201664 285.23388 192.201664 286.454289 
C 192.201664 287.674699 192.686538 288.845288 193.549498 289.708248 
C 194.412458 290.571208 195.583047 291.056082 196.803456 291.056082 
z
" style="fill:#009900;fill-opacity:0.5;stroke:#009900;stroke-linejoin:miter;stroke-width:2;"/>
   </g>
   <g id="patch_19">
    <path clip-path="url(#p467fdc7b48)" d="M 159.989117 258.843535 
C 162.429936 258.843535 164.771114 257.873787 166.497034 256.147867 
C 168.222954 254.421947 169.192701 252.080769 169.192701 249.63995 
C 169.192701 247.19913 168.222954 244.857952 166.497034 243.132032 
C 164.771114 241.406112 162.429936 240.436365 159.989117 240.436365 
C 157.548297 240.436365 155.207119 241.406112 153.481199 243.132032 
C 151.755279 244.857952 150.785532 247.19913 150.785532 249.63995 
C 150.785532 252.080769 151.755279 254.421947 153.481199 256.147867 
C 155.207119 257.873787 157.548297 258.843535 159.989117 258.843535 
z
" style="fill:#9558b2;fill-opacity:0.5;stroke:#9558b2;stroke-linejoin:miter;stroke-width:2;"/>
   </g>
   <g id="patch_20">
    <path clip-path="url(#p467fdc7b48)" d="M 196.803456 254.241742 
C 198.023866 254.241742 199.194455 253.756868 200.057415 252.893908 
C 200.920375 252.030948 201.405249 250.860359 201.405249 249.63995 
C 201.405249 248.41954 200.920375 247.248951 200.057415 246.385991 
C 199.194455 245.523031 198.023866 245.038157 196.803456 245.038157 
C 195.583047 245.038157 194.412458 245.523031 193.549498 246.385991 
C 192.686538 247.248951 192.201664 248.41954 192.201664 249.63995 
C 192.201664 250.860359 192.686538 252.030948 193.549498 252.893908 
C 194.412458 253.756868 195.583047 254.241742 196.803456 254.241742 
z
" style="fill:#009900;fill-opacity:0.5;stroke:#009900;stroke-linejoin:miter;stroke-width:2;"/>
   </g>
   <g id="patch_21">
    <path clip-path="url(#p467fdc7b48)" d="M 159.989117 222.029195 
C 162.429936 222.029195 164.771114 221.059447 166.497034 219.333527 
C 168.222954 217.607607 169.192701 215.266429 169.192701 212.82561 
C 169.192701 210.38479 168.222954 208.043612 166.497034 206.317692 
C 164.771114 204.591772 162.429936 203.622025 159.989117 203.622025 
C 157.548297 203.622025 155.207119 204.591772 153.481199 206.317692 
C 151.755279 208.043612 150.785532 210.38479 150.785532 212.82561 
C 150.785532 215.266429 151.755279 217.607607 153.481199 219.333527 
C 155.207119 221.059447 157.548297 222.029195 159.989117 222.029195 
z
" style="fill:#9558b2;fill-opacity:0.5;stroke:#9558b2;stroke-linejoin:miter;stroke-width:2;"/>
   </g>
   <g id="patch_22">
    <path clip-path="url(#p467fdc7b48)" d="M 196.803456 217.427402 
C 198.023866 217.427402 199.194455 216.942528 200.057415 216.079568 
C 200.920375 215.216608 201.405249 214.046019 201.405249 212.82561 
C 201.405249 211.6052 200.920375 210.434611 200.057415 209.571651 
C 199.194455 208.708691 198.023866 208.223817 196.803456 208.223817 
C 195.583047 208.223817 194.412458 208.708691 193.549498 209.571651 
C 192.686538 210.434611 192.201664 211.6052 192.201664 212.82561 
C 192.201664 214.046019 192.686538 215.216608 193.549498 216.079568 
C 194.412458 216.942528 195.583047 217.427402 196.803456 217.427402 
z
" style="fill:#009900;fill-opacity:0.5;stroke:#009900;stroke-linejoin:miter;stroke-width:2;"/>
   </g>
   <g id="patch_23">
    <path clip-path="url(#p467fdc7b48)" d="M 159.989117 185.214855 
C 162.429936 185.214855 164.771114 184.245107 166.497034 182.519187 
C 168.222954 180.793267 169.192701 178.452089 169.192701 176.01127 
C 169.192701 173.570451 168.222954 171.229272 166.497034 169.503352 
C 164.771114 167.777433 162.429936 166.807685 159.989117 166.807685 
C 157.548297 166.807685 155.207119 167.777433 153.481199 169.503352 
C 151.755279 171.229272 150.785532 173.570451 150.785532 176.01127 
C 150.785532 178.452089 151.755279 180.793267 153.481199 182.519187 
C 155.207119 184.245107 157.548297 185.214855 159.989117 185.214855 
z
" style="fill:#9558b2;fill-opacity:0.5;stroke:#9558b2;stroke-linejoin:miter;stroke-width:2;"/>
   </g>
   <g id="patch_24">
    <path clip-path="url(#p467fdc7b48)" d="M 196.803456 180.613062 
C 198.023866 180.613062 199.194455 180.128188 200.057415 179.265229 
C 200.920375 178.402269 201.405249 177.231679 201.405249 176.01127 
C 201.405249 174.79086 200.920375 173.620271 200.057415 172.757311 
C 199.194455 171.894351 198.023866 171.409477 196.803456 171.409477 
C 195.583047 171.409477 194.412458 171.894351 193.549498 172.757311 
C 192.686538 173.620271 192.201664 174.79086 192.201664 176.01127 
C 192.201664 177.231679 192.686538 178.402269 193.549498 179.265229 
C 194.412458 180.128188 195.583047 180.613062 196.803456 180.613062 
z
" style="fill:#009900;fill-opacity:0.5;stroke:#009900;stroke-linejoin:miter;stroke-width:2;"/>
   </g>
   <g id="patch_25">
    <path clip-path="url(#p467fdc7b48)" d="M 159.989117 148.400515 
C 162.429936 148.400515 164.771114 147.430767 166.497034 145.704847 
C 168.222954 143.978927 169.192701 141.637749 169.192701 139.19693 
C 169.192701 136.756111 168.222954 134.414932 166.497034 132.689013 
C 164.771114 130.963093 162.429936 129.993345 159.989117 129.993345 
C 157.548297 129.993345 155.207119 130.963093 153.481199 132.689013 
C 151.755279 134.414932 150.785532 136.756111 150.785532 139.19693 
C 150.785532 141.637749 151.755279 143.978927 153.481199 145.704847 
C 155.207119 147.430767 157.548297 148.400515 159.989117 148.400515 
z
" style="fill:#9558b2;fill-opacity:0.5;stroke:#9558b2;stroke-linejoin:miter;stroke-width:2;"/>
   </g>
   <g id="patch_26">
    <path clip-path="url(#p467fdc7b48)" d="M 196.803456 143.798722 
C 198.023866 143.798722 199.194455 143.313849 200.057415 142.450889 
C 200.920375 141.587929 201.405249 140.41734 201.405249 139.19693 
C 201.405249 137.97652 200.920375 136.805931 200.057415 135.942971 
C 199.194455 135.080011 198.023866 134.595137 196.803456 134.595137 
C 195.583047 134.595137 194.412458 135.080011 193.549498 135.942971 
C 192.686538 136.805931 192.201664 137.97652 192.201664 139.19693 
C 192.201664 140.41734 192.686538 141.587929 193.549498 142.450889 
C 194.412458 143.313849 195.583047 143.798722 196.803456 143.798722 
z
" style="fill:#009900;fill-opacity:0.5;stroke:#009900;stroke-linejoin:miter;stroke-width:2;"/>
   </g>
   <g id="patch_27">
    <path clip-path="url(#p467fdc7b48)" d="M 159.989117 111.586175 
C 162.429936 111.586175 164.771114 110.616427 166.497034 108.890507 
C 168.222954 107.164588 169.192701 104.823409 169.192701 102.38259 
C 169.192701 99.941771 168.222954 97.600593 166.497034 95.874673 
C 164.771114 94.148753 162.429936 93.179005 159.989117 93.179005 
C 157.548297 93.179005 155.207119 94.148753 153.481199 95.874673 
C 151.755279 97.600593 150.785532 99.941771 150.785532 102.38259 
C 150.785532 104.823409 151.755279 107.164588 153.481199 108.890507 
C 155.207119 110.616427 157.548297 111.586175 159.989117 111.586175 
z
" style="fill:#9558b2;fill-opacity:0.5;stroke:#9558b2;stroke-linejoin:miter;stroke-width:2;"/>
   </g>
   <g id="patch_28">
    <path clip-path="url(#p467fdc7b48)" d="M 196.803456 106.984383 
C 198.023866 106.984383 199.194455 106.499509 200.057415 105.636549 
C 200.920375 104.773589 201.405249 103.603 201.405249 102.38259 
C 201.405249 101.16218 200.920375 99.991591 200.057415 99.128631 
C 199.194455 98.265672 198.023866 97.780798 196.803456 97.780798 
C 195.583047 97.780798 194.412458 98.265672 193.549498 99.128631 
C 192.686538 99.991591 192.201664 101.16218 192.201664 102.38259 
C 192.201664 103.603 192.686538 104.773589 193.549498 105.636549 
C 194.412458 106.499509 195.583047 106.984383 196.803456 106.984383 
z
" style="fill:#009900;fill-opacity:0.5;stroke:#009900;stroke-linejoin:miter;stroke-width:2;"/>
   </g>
   <g id="patch_29">
    <path clip-path="url(#p467fdc7b48)" d="M 159.989117 74.771835 
C 162.429936 74.771835 164.771114 73.802087 166.497034 72.076168 
C 168.222954 70.350248 169.192701 68.00907 169.192701 65.56825 
C 169.192701 63.127431 168.222954 60.786253 166.497034 59.060333 
C 164.771114 57.334413 162.429936 56.364665 159.989117 56.364665 
C 157.548297 56.364665 155.207119 57.334413 153.481199 59.060333 
C 151.755279 60.786253 150.785532 63.127431 150.785532 65.56825 
C 150.785532 68.00907 151.755279 70.350248 153.481199 72.076168 
C 155.207119 73.802087 157.548297 74.771835 159.989117 74.771835 
z
" style="fill:#9558b2;fill-opacity:0.5;stroke:#9558b2;stroke-linejoin:miter;stroke-width:2;"/>
   </g>
   <g id="patch_30">
    <path clip-path="url(#p467fdc7b48)" d="M 196.803456 70.170043 
C 198.023866 70.170043 199.194455 69.685169 200.057415 68.822209 
C 200.920375 67.959249 201.405249 66.78866 201.405249 65.56825 
C 201.405249 64.347841 200.920375 63.177252 200.057415 62.314292 
C 199.194455 61.451332 198.023866 60.966458 196.803456 60.966458 
C 195.583047 60.966458 194.412458 61.451332 193.549498 62.314292 
C 192.686538 63.177252 192.201664 64.347841 192.201664 65.56825 
C 192.201664 66.78866 192.686538 67.959249 193.549498 68.822209 
C 194.412458 69.685169 195.583047 70.170043 196.803456 70.170043 
z
" style="fill:#009900;fill-opacity:0.5;stroke:#009900;stroke-linejoin:miter;stroke-width:2;"/>
   </g>
   <g id="patch_31">
    <path clip-path="url(#p467fdc7b48)" d="M 233.617796 295.657874 
C 236.058616 295.657874 238.399794 294.688127 240.125714 292.962207 
C 241.851633 291.236287 242.821381 288.895109 242.821381 286.454289 
C 242.821381 284.01347 241.851633 281.672292 240.125714 279.946372 
C 238.399794 278.220452 236.058616 277.250704 233.617796 277.250704 
C 231.176977 277.250704 228.835799 278.220452 227.109879 279.946372 
C 225.383959 281.672292 224.414211 284.01347 224.414211 286.454289 
C 224.414211 288.895109 225.383959 291.236287 227.109879 292.962207 
C 228.835799 294.688127 231.176977 295.657874 233.617796 295.657874 
z
" style="fill:#9558b2;fill-opacity:0.5;stroke:#9558b2;stroke-linejoin:miter;stroke-width:2;"/>
   </g>
   <g id="patch_32">
    <path clip-path="url(#p467fdc7b48)" d="M 270.432136 291.056082 
C 271.652546 291.056082 272.823135 290.571208 273.686095 289.708248 
C 274.549055 288.845288 275.033929 287.674699 275.033929 286.454289 
C 275.033929 285.23388 274.549055 284.063291 273.686095 283.200331 
C 272.823135 282.337371 271.652546 281.852497 270.432136 281.852497 
C 269.211726 281.852497 268.041137 282.337371 267.178177 283.200331 
C 266.315217 284.063291 265.830344 285.23388 265.830344 286.454289 
C 265.830344 287.674699 266.315217 288.845288 267.178177 289.708248 
C 268.041137 290.571208 269.211726 291.056082 270.432136 291.056082 
z
" style="fill:#009900;fill-opacity:0.5;stroke:#009900;stroke-linejoin:miter;stroke-width:2;"/>
   </g>
   <g id="patch_33">
    <path clip-path="url(#p467fdc7b48)" d="M 233.617796 258.843535 
C 236.058616 258.843535 238.399794 257.873787 240.125714 256.147867 
C 241.851633 254.421947 242.821381 252.080769 242.821381 249.63995 
C 242.821381 247.19913 241.851633 244.857952 240.125714 243.132032 
C 238.399794 241.406112 236.058616 240.436365 233.617796 240.436365 
C 231.176977 240.436365 228.835799 241.406112 227.109879 243.132032 
C 225.383959 244.857952 224.414211 247.19913 224.414211 249.63995 
C 224.414211 252.080769 225.383959 254.421947 227.109879 256.147867 
C 228.835799 257.873787 231.176977 258.843535 233.617796 258.843535 
z
" style="fill:#9558b2;fill-opacity:0.5;stroke:#9558b2;stroke-linejoin:miter;stroke-width:2;"/>
   </g>
   <g id="patch_34">
    <path clip-path="url(#p467fdc7b48)" d="M 270.432136 254.241742 
C 271.652546 254.241742 272.823135 253.756868 273.686095 252.893908 
C 274.549055 252.030948 275.033929 250.860359 275.033929 249.63995 
C 275.033929 248.41954 274.549055 247.248951 273.686095 246.385991 
C 272.823135 245.523031 271.652546 245.038157 270.432136 245.038157 
C 269.211726 245.038157 268.041137 245.523031 267.178177 246.385991 
C 266.315217 247.248951 265.830344 248.41954 265.830344 249.63995 
C 265.830344 250.860359 266.315217 252.030948 267.178177 252.893908 
C 268.041137 253.756868 269.211726 254.241742 270.432136 254.241742 
z
" style="fill:#009900;fill-opacity:0.5;stroke:#009900;stroke-linejoin:miter;stroke-width:2;"/>
   </g>
   <g id="patch_35">
    <path clip-path="url(#p467fdc7b48)" d="M 233.617796 222.029195 
C 236.058616 222.029195 238.399794 221.059447 240.125714 219.333527 
C 241.851633 217.607607 242.821381 215.266429 242.821381 212.82561 
C 242.821381 210.38479 241.851633 208.043612 240.125714 206.317692 
C 238.399794 204.591772 236.058616 203.622025 233.617796 203.622025 
C 231.176977 203.622025 228.835799 204.591772 227.109879 206.317692 
C 225.383959 208.043612 224.414211 210.38479 224.414211 212.82561 
C 224.414211 215.266429 225.383959 217.607607 227.109879 219.333527 
C 228.835799 221.059447 231.176977 222.029195 233.617796 222.029195 
z
" style="fill:#9558b2;fill-opacity:0.5;stroke:#9558b2;stroke-linejoin:miter;stroke-width:2;"/>
   </g>
   <g id="patch_36">
    <path clip-path="url(#p467fdc7b48)" d="M 270.432136 217.427402 
C 271.652546 217.427402 272.823135 216.942528 273.686095 216.079568 
C 274.549055 215.216608 275.033929 214.046019 275.033929 212.82561 
C 275.033929 211.6052 274.549055 210.434611 273.686095 209.571651 
C 272.823135 208.708691 271.652546 208.223817 270.432136 208.223817 
C 269.211726 208.223817 268.041137 208.708691 267.178177 209.571651 
C 266.315217 210.434611 265.830344 211.6052 265.830344 212.82561 
C 265.830344 214.046019 266.315217 215.216608 267.178177 216.079568 
C 268.041137 216.942528 269.211726 217.427402 270.432136 217.427402 
z
" style="fill:#009900;fill-opacity:0.5;stroke:#009900;stroke-linejoin:miter;stroke-width:2;"/>
   </g>
   <g id="patch_37">
    <path clip-path="url(#p467fdc7b48)" d="M 233.617796 185.214855 
C 236.058616 185.214855 238.399794 184.245107 240.125714 182.519187 
C 241.851633 180.793267 242.821381 178.452089 242.821381 176.01127 
C 242.821381 173.570451 241.851633 171.229272 240.125714 169.503352 
C 238.399794 167.777433 236.058616 166.807685 233.617796 166.807685 
C 231.176977 166.807685 228.835799 167.777433 227.109879 169.503352 
C 225.383959 171.229272 224.414211 173.570451 224.414211 176.01127 
C 224.414211 178.452089 225.383959 180.793267 227.109879 182.519187 
C 228.835799 184.245107 231.176977 185.214855 233.617796 185.214855 
z
" style="fill:#9558b2;fill-opacity:0.5;stroke:#9558b2;stroke-linejoin:miter;stroke-width:2;"/>
   </g>
   <g id="patch_38">
    <path clip-path="url(#p467fdc7b48)" d="M 270.432136 180.613062 
C 271.652546 180.613062 272.823135 180.128188 273.686095 179.265229 
C 274.549055 178.402269 275.033929 177.231679 275.033929 176.01127 
C 275.033929 174.79086 274.549055 173.620271 273.686095 172.757311 
C 272.823135 171.894351 271.652546 171.409477 270.432136 171.409477 
C 269.211726 171.409477 268.041137 171.894351 267.178177 172.757311 
C 266.315217 173.620271 265.830344 174.79086 265.830344 176.01127 
C 265.830344 177.231679 266.315217 178.402269 267.178177 179.265229 
C 268.041137 180.128188 269.211726 180.613062 270.432136 180.613062 
z
" style="fill:#009900;fill-opacity:0.5;stroke:#009900;stroke-linejoin:miter;stroke-width:2;"/>
   </g>
   <g id="patch_39">
    <path clip-path="url(#p467fdc7b48)" d="M 233.617796 148.400515 
C 236.058616 148.400515 238.399794 147.430767 240.125714 145.704847 
C 241.851633 143.978927 242.821381 141.637749 242.821381 139.19693 
C 242.821381 136.756111 241.851633 134.414932 240.125714 132.689013 
C 238.399794 130.963093 236.058616 129.993345 233.617796 129.993345 
C 231.176977 129.993345 228.835799 130.963093 227.109879 132.689013 
C 225.383959 134.414932 224.414211 136.756111 224.414211 139.19693 
C 224.414211 141.637749 225.383959 143.978927 227.109879 145.704847 
C 228.835799 147.430767 231.176977 148.400515 233.617796 148.400515 
z
" style="fill:#9558b2;fill-opacity:0.5;stroke:#9558b2;stroke-linejoin:miter;stroke-width:2;"/>
   </g>
   <g id="patch_40">
    <path clip-path="url(#p467fdc7b48)" d="M 270.432136 143.798722 
C 271.652546 143.798722 272.823135 143.313849 273.686095 142.450889 
C 274.549055 141.587929 275.033929 140.41734 275.033929 139.19693 
C 275.033929 137.97652 274.549055 136.805931 273.686095 135.942971 
C 272.823135 135.080011 271.652546 134.595137 270.432136 134.595137 
C 269.211726 134.595137 268.041137 135.080011 267.178177 135.942971 
C 266.315217 136.805931 265.830344 137.97652 265.830344 139.19693 
C 265.830344 140.41734 266.315217 141.587929 267.178177 142.450889 
C 268.041137 143.313849 269.211726 143.798722 270.432136 143.798722 
z
" style="fill:#009900;fill-opacity:0.5;stroke:#009900;stroke-linejoin:miter;stroke-width:2;"/>
   </g>
   <g id="patch_41">
    <path clip-path="url(#p467fdc7b48)" d="M 233.617796 111.586175 
C 236.058616 111.586175 238.399794 110.616427 240.125714 108.890507 
C 241.851633 107.164588 242.821381 104.823409 242.821381 102.38259 
C 242.821381 99.941771 241.851633 97.600593 240.125714 95.874673 
C 238.399794 94.148753 236.058616 93.179005 233.617796 93.179005 
C 231.176977 93.179005 228.835799 94.148753 227.109879 95.874673 
C 225.383959 97.600593 224.414211 99.941771 224.414211 102.38259 
C 224.414211 104.823409 225.383959 107.164588 227.109879 108.890507 
C 228.835799 110.616427 231.176977 111.586175 233.617796 111.586175 
z
" style="fill:#9558b2;fill-opacity:0.5;stroke:#9558b2;stroke-linejoin:miter;stroke-width:2;"/>
   </g>
   <g id="patch_42">
    <path clip-path="url(#p467fdc7b48)" d="M 270.432136 106.984383 
C 271.652546 106.984383 272.823135 106.499509 273.686095 105.636549 
C 274.549055 104.773589 275.033929 103.603 275.033929 102.38259 
C 275.033929 101.16218 274.549055 99.991591 273.686095 99.128631 
C 272.823135 98.265672 271.652546 97.780798 270.432136 97.780798 
C 269.211726 97.780798 268.041137 98.265672 267.178177 99.128631 
C 266.315217 99.991591 265.830344 101.16218 265.830344 102.38259 
C 265.830344 103.603 266.315217 104.773589 267.178177 105.636549 
C 268.041137 106.499509 269.211726 106.984383 270.432136 106.984383 
z
" style="fill:#009900;fill-opacity:0.5;stroke:#009900;stroke-linejoin:miter;stroke-width:2;"/>
   </g>
   <g id="patch_43">
    <path clip-path="url(#p467fdc7b48)" d="M 233.617796 74.771835 
C 236.058616 74.771835 238.399794 73.802087 240.125714 72.076168 
C 241.851633 70.350248 242.821381 68.00907 242.821381 65.56825 
C 242.821381 63.127431 241.851633 60.786253 240.125714 59.060333 
C 238.399794 57.334413 236.058616 56.364665 233.617796 56.364665 
C 231.176977 56.364665 228.835799 57.334413 227.109879 59.060333 
C 225.383959 60.786253 224.414211 63.127431 224.414211 65.56825 
C 224.414211 68.00907 225.383959 70.350248 227.109879 72.076168 
C 228.835799 73.802087 231.176977 74.771835 233.617796 74.771835 
z
" style="fill:#9558b2;fill-opacity:0.5;stroke:#9558b2;stroke-linejoin:miter;stroke-width:2;"/>
   </g>
   <g id="patch_44">
    <path clip-path="url(#p467fdc7b48)" d="M 270.432136 70.170043 
C 271.652546 70.170043 272.823135 69.685169 273.686095 68.822209 
C 274.549055 67.959249 275.033929 66.78866 275.033929 65.56825 
C 275.033929 64.347841 274.549055 63.177252 273.686095 62.314292 
C 272.823135 61.451332 271.652546 60.966458 270.432136 60.966458 
C 269.211726 60.966458 268.041137 61.451332 267.178177 62.314292 
C 266.315217 63.177252 265.830344 64.347841 265.830344 65.56825 
C 265.830344 66.78866 266.315217 67.959249 267.178177 68.822209 
C 268.041137 69.685169 269.211726 70.170043 270.432136 70.170043 
z
" style="fill:#009900;fill-opacity:0.5;stroke:#009900;stroke-linejoin:miter;stroke-width:2;"/>
   </g>
   <g id="patch_45">
    <path clip-path="url(#p467fdc7b48)" d="M 307.246476 295.657874 
C 309.687295 295.657874 312.028473 294.688127 313.754393 292.962207 
C 315.480313 291.236287 316.450061 288.895109 316.450061 286.454289 
C 316.450061 284.01347 315.480313 281.672292 313.754393 279.946372 
C 312.028473 278.220452 309.687295 277.250704 307.246476 277.250704 
C 304.805657 277.250704 302.464478 278.220452 300.738559 279.946372 
C 299.012639 281.672292 298.042891 284.01347 298.042891 286.454289 
C 298.042891 288.895109 299.012639 291.236287 300.738559 292.962207 
C 302.464478 294.688127 304.805657 295.657874 307.246476 295.657874 
z
" style="fill:#9558b2;fill-opacity:0.5;stroke:#9558b2;stroke-linejoin:miter;stroke-width:2;"/>
   </g>
   <g id="patch_46">
    <path clip-path="url(#p467fdc7b48)" d="M 344.060816 291.056082 
C 345.281225 291.056082 346.451815 290.571208 347.314774 289.708248 
C 348.177734 288.845288 348.662608 287.674699 348.662608 286.454289 
C 348.662608 285.23388 348.177734 284.063291 347.314774 283.200331 
C 346.451815 282.337371 345.281225 281.852497 344.060816 281.852497 
C 342.840406 281.852497 341.669817 282.337371 340.806857 283.200331 
C 339.943897 284.063291 339.459023 285.23388 339.459023 286.454289 
C 339.459023 287.674699 339.943897 288.845288 340.806857 289.708248 
C 341.669817 290.571208 342.840406 291.056082 344.060816 291.056082 
z
" style="fill:#009900;fill-opacity:0.5;stroke:#009900;stroke-linejoin:miter;stroke-width:2;"/>
   </g>
   <g id="patch_47">
    <path clip-path="url(#p467fdc7b48)" d="M 307.246476 258.843535 
C 309.687295 258.843535 312.028473 257.873787 313.754393 256.147867 
C 315.480313 254.421947 316.450061 252.080769 316.450061 249.63995 
C 316.450061 247.19913 315.480313 244.857952 313.754393 243.132032 
C 312.028473 241.406112 309.687295 240.436365 307.246476 240.436365 
C 304.805657 240.436365 302.464478 241.406112 300.738559 243.132032 
C 299.012639 244.857952 298.042891 247.19913 298.042891 249.63995 
C 298.042891 252.080769 299.012639 254.421947 300.738559 256.147867 
C 302.464478 257.873787 304.805657 258.843535 307.246476 258.843535 
z
" style="fill:#9558b2;fill-opacity:0.5;stroke:#9558b2;stroke-linejoin:miter;stroke-width:2;"/>
   </g>
   <g id="patch_48">
    <path clip-path="url(#p467fdc7b48)" d="M 344.060816 254.241742 
C 345.281225 254.241742 346.451815 253.756868 347.314774 252.893908 
C 348.177734 252.030948 348.662608 250.860359 348.662608 249.63995 
C 348.662608 248.41954 348.177734 247.248951 347.314774 246.385991 
C 346.451815 245.523031 345.281225 245.038157 344.060816 245.038157 
C 342.840406 245.038157 341.669817 245.523031 340.806857 246.385991 
C 339.943897 247.248951 339.459023 248.41954 339.459023 249.63995 
C 339.459023 250.860359 339.943897 252.030948 340.806857 252.893908 
C 341.669817 253.756868 342.840406 254.241742 344.060816 254.241742 
z
" style="fill:#009900;fill-opacity:0.5;stroke:#009900;stroke-linejoin:miter;stroke-width:2;"/>
   </g>
   <g id="patch_49">
    <path clip-path="url(#p467fdc7b48)" d="M 307.246476 222.029195 
C 309.687295 222.029195 312.028473 221.059447 313.754393 219.333527 
C 315.480313 217.607607 316.450061 215.266429 316.450061 212.82561 
C 316.450061 210.38479 315.480313 208.043612 313.754393 206.317692 
C 312.028473 204.591772 309.687295 203.622025 307.246476 203.622025 
C 304.805657 203.622025 302.464478 204.591772 300.738559 206.317692 
C 299.012639 208.043612 298.042891 210.38479 298.042891 212.82561 
C 298.042891 215.266429 299.012639 217.607607 300.738559 219.333527 
C 302.464478 221.059447 304.805657 222.029195 307.246476 222.029195 
z
" style="fill:#9558b2;fill-opacity:0.5;stroke:#9558b2;stroke-linejoin:miter;stroke-width:2;"/>
   </g>
   <g id="patch_50">
    <path clip-path="url(#p467fdc7b48)" d="M 344.060816 217.427402 
C 345.281225 217.427402 346.451815 216.942528 347.314774 216.079568 
C 348.177734 215.216608 348.662608 214.046019 348.662608 212.82561 
C 348.662608 211.6052 348.177734 210.434611 347.314774 209.571651 
C 346.451815 208.708691 345.281225 208.223817 344.060816 208.223817 
C 342.840406 208.223817 341.669817 208.708691 340.806857 209.571651 
C 339.943897 210.434611 339.459023 211.6052 339.459023 212.82561 
C 339.459023 214.046019 339.943897 215.216608 340.806857 216.079568 
C 341.669817 216.942528 342.840406 217.427402 344.060816 217.427402 
z
" style="fill:#009900;fill-opacity:0.5;stroke:#009900;stroke-linejoin:miter;stroke-width:2;"/>
   </g>
   <g id="patch_51">
    <path clip-path="url(#p467fdc7b48)" d="M 307.246476 185.214855 
C 309.687295 185.214855 312.028473 184.245107 313.754393 182.519187 
C 315.480313 180.793267 316.450061 178.452089 316.450061 176.01127 
C 316.450061 173.570451 315.480313 171.229272 313.754393 169.503352 
C 312.028473 167.777433 309.687295 166.807685 307.246476 166.807685 
C 304.805657 166.807685 302.464478 167.777433 300.738559 169.503352 
C 299.012639 171.229272 298.042891 173.570451 298.042891 176.01127 
C 298.042891 178.452089 299.012639 180.793267 300.738559 182.519187 
C 302.464478 184.245107 304.805657 185.214855 307.246476 185.214855 
z
" style="fill:#9558b2;fill-opacity:0.5;stroke:#9558b2;stroke-linejoin:miter;stroke-width:2;"/>
   </g>
   <g id="patch_52">
    <path clip-path="url(#p467fdc7b48)" d="M 344.060816 180.613062 
C 345.281225 180.613062 346.451815 180.128188 347.314774 179.265229 
C 348.177734 178.402269 348.662608 177.231679 348.662608 176.01127 
C 348.662608 174.79086 348.177734 173.620271 347.314774 172.757311 
C 346.451815 171.894351 345.281225 171.409477 344.060816 171.409477 
C 342.840406 171.409477 341.669817 171.894351 340.806857 172.757311 
C 339.943897 173.620271 339.459023 174.79086 339.459023 176.01127 
C 339.459023 177.231679 339.943897 178.402269 340.806857 179.265229 
C 341.669817 180.128188 342.840406 180.613062 344.060816 180.613062 
z
" style="fill:#009900;fill-opacity:0.5;stroke:#009900;stroke-linejoin:miter;stroke-width:2;"/>
   </g>
   <g id="patch_53">
    <path clip-path="url(#p467fdc7b48)" d="M 307.246476 148.400515 
C 309.687295 148.400515 312.028473 147.430767 313.754393 145.704847 
C 315.480313 143.978927 316.450061 141.637749 316.450061 139.19693 
C 316.450061 136.756111 315.480313 134.414932 313.754393 132.689013 
C 312.028473 130.963093 309.687295 129.993345 307.246476 129.993345 
C 304.805657 129.993345 302.464478 130.963093 300.738559 132.689013 
C 299.012639 134.414932 298.042891 136.756111 298.042891 139.19693 
C 298.042891 141.637749 299.012639 143.978927 300.738559 145.704847 
C 302.464478 147.430767 304.805657 148.400515 307.246476 148.400515 
z
" style="fill:#9558b2;fill-opacity:0.5;stroke:#9558b2;stroke-linejoin:miter;stroke-width:2;"/>
   </g>
   <g id="patch_54">
    <path clip-path="url(#p467fdc7b48)" d="M 344.060816 143.798722 
C 345.281225 143.798722 346.451815 143.313849 347.314774 142.450889 
C 348.177734 141.587929 348.662608 140.41734 348.662608 139.19693 
C 348.662608 137.97652 348.177734 136.805931 347.314774 135.942971 
C 346.451815 135.080011 345.281225 134.595137 344.060816 134.595137 
C 342.840406 134.595137 341.669817 135.080011 340.806857 135.942971 
C 339.943897 136.805931 339.459023 137.97652 339.459023 139.19693 
C 339.459023 140.41734 339.943897 141.587929 340.806857 142.450889 
C 341.669817 143.313849 342.840406 143.798722 344.060816 143.798722 
z
" style="fill:#009900;fill-opacity:0.5;stroke:#009900;stroke-linejoin:miter;stroke-width:2;"/>
   </g>
   <g id="patch_55">
    <path clip-path="url(#p467fdc7b48)" d="M 307.246476 111.586175 
C 309.687295 111.586175 312.028473 110.616427 313.754393 108.890507 
C 315.480313 107.164588 316.450061 104.823409 316.450061 102.38259 
C 316.450061 99.941771 315.480313 97.600593 313.754393 95.874673 
C 312.028473 94.148753 309.687295 93.179005 307.246476 93.179005 
C 304.805657 93.179005 302.464478 94.148753 300.738559 95.874673 
C 299.012639 97.600593 298.042891 99.941771 298.042891 102.38259 
C 298.042891 104.823409 299.012639 107.164588 300.738559 108.890507 
C 302.464478 110.616427 304.805657 111.586175 307.246476 111.586175 
z
" style="fill:#9558b2;fill-opacity:0.5;stroke:#9558b2;stroke-linejoin:miter;stroke-width:2;"/>
   </g>
   <g id="patch_56">
    <path clip-path="url(#p467fdc7b48)" d="M 344.060816 106.984383 
C 345.281225 106.984383 346.451815 106.499509 347.314774 105.636549 
C 348.177734 104.773589 348.662608 103.603 348.662608 102.38259 
C 348.662608 101.16218 348.177734 99.991591 347.314774 99.128631 
C 346.451815 98.265672 345.281225 97.780798 344.060816 97.780798 
C 342.840406 97.780798 341.669817 98.265672 340.806857 99.128631 
C 339.943897 99.991591 339.459023 101.16218 339.459023 102.38259 
C 339.459023 103.603 339.943897 104.773589 340.806857 105.636549 
C 341.669817 106.499509 342.840406 106.984383 344.060816 106.984383 
z
" style="fill:#009900;fill-opacity:0.5;stroke:#009900;stroke-linejoin:miter;stroke-width:2;"/>
   </g>
   <g id="patch_57">
    <path clip-path="url(#p467fdc7b48)" d="M 307.246476 74.771835 
C 309.687295 74.771835 312.028473 73.802087 313.754393 72.076168 
C 315.480313 70.350248 316.450061 68.00907 316.450061 65.56825 
C 316.450061 63.127431 315.480313 60.786253 313.754393 59.060333 
C 312.028473 57.334413 309.687295 56.364665 307.246476 56.364665 
C 304.805657 56.364665 302.464478 57.334413 300.738559 59.060333 
C 299.012639 60.786253 298.042891 63.127431 298.042891 65.56825 
C 298.042891 68.00907 299.012639 70.350248 300.738559 72.076168 
C 302.464478 73.802087 304.805657 74.771835 307.246476 74.771835 
z
" style="fill:#9558b2;fill-opacity:0.5;stroke:#9558b2;stroke-linejoin:miter;stroke-width:2;"/>
   </g>
   <g id="patch_58">
    <path clip-path="url(#p467fdc7b48)" d="M 344.060816 70.170043 
C 345.281225 70.170043 346.451815 69.685169 347.314774 68.822209 
C 348.177734 67.959249 348.662608 66.78866 348.662608 65.56825 
C 348.662608 64.347841 348.177734 63.177252 347.314774 62.314292 
C 346.451815 61.451332 345.281225 60.966458 344.060816 60.966458 
C 342.840406 60.966458 341.669817 61.451332 340.806857 62.314292 
C 339.943897 63.177252 339.459023 64.347841 339.459023 65.56825 
C 339.459023 66.78866 339.943897 67.959249 340.806857 68.822209 
C 341.669817 69.685169 342.840406 70.170043 344.060816 70.170043 
z
" style="fill:#009900;fill-opacity:0.5;stroke:#009900;stroke-linejoin:miter;stroke-width:2;"/>
   </g>
   <g id="patch_59">
    <path clip-path="url(#p467fdc7b48)" d="M 380.875156 295.657874 
C 383.315975 295.657874 385.657153 294.688127 387.383073 292.962207 
C 389.108993 291.236287 390.078741 288.895109 390.078741 286.454289 
C 390.078741 284.01347 389.108993 281.672292 387.383073 279.946372 
C 385.657153 278.220452 383.315975 277.250704 380.875156 277.250704 
C 378.434336 277.250704 376.093158 278.220452 374.367238 279.946372 
C 372.641318 281.672292 371.671571 284.01347 371.671571 286.454289 
C 371.671571 288.895109 372.641318 291.236287 374.367238 292.962207 
C 376.093158 294.688127 378.434336 295.657874 380.875156 295.657874 
z
" style="fill:#9558b2;fill-opacity:0.5;stroke:#9558b2;stroke-linejoin:miter;stroke-width:2;"/>
   </g>
   <g id="patch_60">
    <path clip-path="url(#p467fdc7b48)" d="M 417.689496 291.056082 
C 418.909905 291.056082 420.080494 290.571208 420.943454 289.708248 
C 421.806414 288.845288 422.291288 287.674699 422.291288 286.454289 
C 422.291288 285.23388 421.806414 284.063291 420.943454 283.200331 
C 420.080494 282.337371 418.909905 281.852497 417.689496 281.852497 
C 416.469086 281.852497 415.298497 282.337371 414.435537 283.200331 
C 413.572577 284.063291 413.087703 285.23388 413.087703 286.454289 
C 413.087703 287.674699 413.572577 288.845288 414.435537 289.708248 
C 415.298497 290.571208 416.469086 291.056082 417.689496 291.056082 
z
" style="fill:#009900;fill-opacity:0.5;stroke:#009900;stroke-linejoin:miter;stroke-width:2;"/>
   </g>
   <g id="patch_61">
    <path clip-path="url(#p467fdc7b48)" d="M 380.875156 258.843535 
C 383.315975 258.843535 385.657153 257.873787 387.383073 256.147867 
C 389.108993 254.421947 390.078741 252.080769 390.078741 249.63995 
C 390.078741 247.19913 389.108993 244.857952 387.383073 243.132032 
C 385.657153 241.406112 383.315975 240.436365 380.875156 240.436365 
C 378.434336 240.436365 376.093158 241.406112 374.367238 243.132032 
C 372.641318 244.857952 371.671571 247.19913 371.671571 249.63995 
C 371.671571 252.080769 372.641318 254.421947 374.367238 256.147867 
C 376.093158 257.873787 378.434336 258.843535 380.875156 258.843535 
z
" style="fill:#9558b2;fill-opacity:0.5;stroke:#9558b2;stroke-linejoin:miter;stroke-width:2;"/>
   </g>
   <g id="patch_62">
    <path clip-path="url(#p467fdc7b48)" d="M 417.689496 254.241742 
C 418.909905 254.241742 420.080494 253.756868 420.943454 252.893908 
C 421.806414 252.030948 422.291288 250.860359 422.291288 249.63995 
C 422.291288 248.41954 421.806414 247.248951 420.943454 246.385991 
C 420.080494 245.523031 418.909905 245.038157 417.689496 245.038157 
C 416.469086 245.038157 415.298497 245.523031 414.435537 246.385991 
C 413.572577 247.248951 413.087703 248.41954 413.087703 249.63995 
C 413.087703 250.860359 413.572577 252.030948 414.435537 252.893908 
C 415.298497 253.756868 416.469086 254.241742 417.689496 254.241742 
z
" style="fill:#009900;fill-opacity:0.5;stroke:#009900;stroke-linejoin:miter;stroke-width:2;"/>
   </g>
   <g id="patch_63">
    <path clip-path="url(#p467fdc7b48)" d="M 380.875156 222.029195 
C 383.315975 222.029195 385.657153 221.059447 387.383073 219.333527 
C 389.108993 217.607607 390.078741 215.266429 390.078741 212.82561 
C 390.078741 210.38479 389.108993 208.043612 387.383073 206.317692 
C 385.657153 204.591772 383.315975 203.622025 380.875156 203.622025 
C 378.434336 203.622025 376.093158 204.591772 374.367238 206.317692 
C 372.641318 208.043612 371.671571 210.38479 371.671571 212.82561 
C 371.671571 215.266429 372.641318 217.607607 374.367238 219.333527 
C 376.093158 221.059447 378.434336 222.029195 380.875156 222.029195 
z
" style="fill:#9558b2;fill-opacity:0.5;stroke:#9558b2;stroke-linejoin:miter;stroke-width:2;"/>
   </g>
   <g id="patch_64">
    <path clip-path="url(#p467fdc7b48)" d="M 417.689496 217.427402 
C 418.909905 217.427402 420.080494 216.942528 420.943454 216.079568 
C 421.806414 215.216608 422.291288 214.046019 422.291288 212.82561 
C 422.291288 211.6052 421.806414 210.434611 420.943454 209.571651 
C 420.080494 208.708691 418.909905 208.223817 417.689496 208.223817 
C 416.469086 208.223817 415.298497 208.708691 414.435537 209.571651 
C 413.572577 210.434611 413.087703 211.6052 413.087703 212.82561 
C 413.087703 214.046019 413.572577 215.216608 414.435537 216.079568 
C 415.298497 216.942528 416.469086 217.427402 417.689496 217.427402 
z
" style="fill:#009900;fill-opacity:0.5;stroke:#009900;stroke-linejoin:miter;stroke-width:2;"/>
   </g>
   <g id="patch_65">
    <path clip-path="url(#p467fdc7b48)" d="M 380.875156 185.214855 
C 383.315975 185.214855 385.657153 184.245107 387.383073 182.519187 
C 389.108993 180.793267 390.078741 178.452089 390.078741 176.01127 
C 390.078741 173.570451 389.108993 171.229272 387.383073 169.503352 
C 385.657153 167.777433 383.315975 166.807685 380.875156 166.807685 
C 378.434336 166.807685 376.093158 167.777433 374.367238 169.503352 
C 372.641318 171.229272 371.671571 173.570451 371.671571 176.01127 
C 371.671571 178.452089 372.641318 180.793267 374.367238 182.519187 
C 376.093158 184.245107 378.434336 185.214855 380.875156 185.214855 
z
" style="fill:#9558b2;fill-opacity:0.5;stroke:#9558b2;stroke-linejoin:miter;stroke-width:2;"/>
   </g>
   <g id="patch_66">
    <path clip-path="url(#p467fdc7b48)" d="M 417.689496 180.613062 
C 418.909905 180.613062 420.080494 180.128188 420.943454 179.265229 
C 421.806414 178.402269 422.291288 177.231679 422.291288 176.01127 
C 422.291288 174.79086 421.806414 173.620271 420.943454 172.757311 
C 420.080494 171.894351 418.909905 171.409477 417.689496 171.409477 
C 416.469086 171.409477 415.298497 171.894351 414.435537 172.757311 
C 413.572577 173.620271 413.087703 174.79086 413.087703 176.01127 
C 413.087703 177.231679 413.572577 178.402269 414.435537 179.265229 
C 415.298497 180.128188 416.469086 180.613062 417.689496 180.613062 
z
" style="fill:#009900;fill-opacity:0.5;stroke:#009900;stroke-linejoin:miter;stroke-width:2;"/>
   </g>
   <g id="patch_67">
    <path clip-path="url(#p467fdc7b48)" d="M 380.875156 148.400515 
C 383.315975 148.400515 385.657153 147.430767 387.383073 145.704847 
C 389.108993 143.978927 390.078741 141.637749 390.078741 139.19693 
C 390.078741 136.756111 389.108993 134.414932 387.383073 132.689013 
C 385.657153 130.963093 383.315975 129.993345 380.875156 129.993345 
C 378.434336 129.993345 376.093158 130.963093 374.367238 132.689013 
C 372.641318 134.414932 371.671571 136.756111 371.671571 139.19693 
C 371.671571 141.637749 372.641318 143.978927 374.367238 145.704847 
C 376.093158 147.430767 378.434336 148.400515 380.875156 148.400515 
z
" style="fill:#9558b2;fill-opacity:0.5;stroke:#9558b2;stroke-linejoin:miter;stroke-width:2;"/>
   </g>
   <g id="patch_68">
    <path clip-path="url(#p467fdc7b48)" d="M 417.689496 143.798722 
C 418.909905 143.798722 420.080494 143.313849 420.943454 142.450889 
C 421.806414 141.587929 422.291288 140.41734 422.291288 139.19693 
C 422.291288 137.97652 421.806414 136.805931 420.943454 135.942971 
C 420.080494 135.080011 418.909905 134.595137 417.689496 134.595137 
C 416.469086 134.595137 415.298497 135.080011 414.435537 135.942971 
C 413.572577 136.805931 413.087703 137.97652 413.087703 139.19693 
C 413.087703 140.41734 413.572577 141.587929 414.435537 142.450889 
C 415.298497 143.313849 416.469086 143.798722 417.689496 143.798722 
z
" style="fill:#009900;fill-opacity:0.5;stroke:#009900;stroke-linejoin:miter;stroke-width:2;"/>
   </g>
   <g id="patch_69">
    <path clip-path="url(#p467fdc7b48)" d="M 380.875156 111.586175 
C 383.315975 111.586175 385.657153 110.616427 387.383073 108.890507 
C 389.108993 107.164588 390.078741 104.823409 390.078741 102.38259 
C 390.078741 99.941771 389.108993 97.600593 387.383073 95.874673 
C 385.657153 94.148753 383.315975 93.179005 380.875156 93.179005 
C 378.434336 93.179005 376.093158 94.148753 374.367238 95.874673 
C 372.641318 97.600593 371.671571 99.941771 371.671571 102.38259 
C 371.671571 104.823409 372.641318 107.164588 374.367238 108.890507 
C 376.093158 110.616427 378.434336 111.586175 380.875156 111.586175 
z
" style="fill:#9558b2;fill-opacity:0.5;stroke:#9558b2;stroke-linejoin:miter;stroke-width:2;"/>
   </g>
   <g id="patch_70">
    <path clip-path="url(#p467fdc7b48)" d="M 417.689496 106.984383 
C 418.909905 106.984383 420.080494 106.499509 420.943454 105.636549 
C 421.806414 104.773589 422.291288 103.603 422.291288 102.38259 
C 422.291288 101.16218 421.806414 99.991591 420.943454 99.128631 
C 420.080494 98.265672 418.909905 97.780798 417.689496 97.780798 
C 416.469086 97.780798 415.298497 98.265672 414.435537 99.128631 
C 413.572577 99.991591 413.087703 101.16218 413.087703 102.38259 
C 413.087703 103.603 413.572577 104.773589 414.435537 105.636549 
C 415.298497 106.499509 416.469086 106.984383 417.689496 106.984383 
z
" style="fill:#009900;fill-opacity:0.5;stroke:#009900;stroke-linejoin:miter;stroke-width:2;"/>
   </g>
   <g id="patch_71">
    <path clip-path="url(#p467fdc7b48)" d="M 380.875156 74.771835 
C 383.315975 74.771835 385.657153 73.802087 387.383073 72.076168 
C 389.108993 70.350248 390.078741 68.00907 390.078741 65.56825 
C 390.078741 63.127431 389.108993 60.786253 387.383073 59.060333 
C 385.657153 57.334413 383.315975 56.364665 380.875156 56.364665 
C 378.434336 56.364665 376.093158 57.334413 374.367238 59.060333 
C 372.641318 60.786253 371.671571 63.127431 371.671571 65.56825 
C 371.671571 68.00907 372.641318 70.350248 374.367238 72.076168 
C 376.093158 73.802087 378.434336 74.771835 380.875156 74.771835 
z
" style="fill:#9558b2;fill-opacity:0.5;stroke:#9558b2;stroke-linejoin:miter;stroke-width:2;"/>
   </g>
   <g id="patch_72">
    <path clip-path="url(#p467fdc7b48)" d="M 417.689496 70.170043 
C 418.909905 70.170043 420.080494 69.685169 420.943454 68.822209 
C 421.806414 67.959249 422.291288 66.78866 422.291288 65.56825 
C 422.291288 64.347841 421.806414 63.177252 420.943454 62.314292 
C 420.080494 61.451332 418.909905 60.966458 417.689496 60.966458 
C 416.469086 60.966458 415.298497 61.451332 414.435537 62.314292 
C 413.572577 63.177252 413.087703 64.347841 413.087703 65.56825 
C 413.087703 66.78866 413.572577 67.959249 414.435537 68.822209 
C 415.298497 69.685169 416.469086 70.170043 417.689496 70.170043 
z
" style="fill:#009900;fill-opacity:0.5;stroke:#009900;stroke-linejoin:miter;stroke-width:2;"/>
   </g>
   <g id="matplotlib.axis_1">
    <g id="xtick_1">
     <g id="line2d_1">
      <defs>
       <path d="M 0 0 
L 0 3.5 
" id="m325806a5a9" style="stroke:#000000;stroke-width:0.8;"/>
      </defs>
      <g>
       <use style="stroke:#000000;stroke-width:0.8;" x="67.953267" xlink:href="#m325806a5a9" y="300.260021"/>
      </g>
     </g>
     <g id="text_1">
      <!-- 6 -->
      <defs>
       <path d="M 10.59375 35.5 
L 73.1875 35.5 
L 73.1875 27.203125 
L 10.59375 27.203125 
z
" id="DejaVuSans-2212"/>
       <path d="M 33.015625 40.375 
Q 26.375 40.375 22.484375 35.828125 
Q 18.609375 31.296875 18.609375 23.390625 
Q 18.609375 15.53125 22.484375 10.953125 
Q 26.375 6.390625 33.015625 6.390625 
Q 39.65625 6.390625 43.53125 10.953125 
Q 47.40625 15.53125 47.40625 23.390625 
Q 47.40625 31.296875 43.53125 35.828125 
Q 39.65625 40.375 33.015625 40.375 
z
M 52.59375 71.296875 
L 52.59375 62.3125 
Q 48.875 64.0625 45.09375 64.984375 
Q 41.3125 65.921875 37.59375 65.921875 
Q 27.828125 65.921875 22.671875 59.328125 
Q 17.53125 52.734375 16.796875 39.40625 
Q 19.671875 43.65625 24.015625 45.921875 
Q 28.375 48.1875 33.59375 48.1875 
Q 44.578125 48.1875 50.953125 41.515625 
Q 57.328125 34.859375 57.328125 23.390625 
Q 57.328125 12.15625 50.6875 5.359375 
Q 44.046875 -1.421875 33.015625 -1.421875 
Q 20.359375 -1.421875 13.671875 8.265625 
Q 6.984375 17.96875 6.984375 36.375 
Q 6.984375 53.65625 15.1875 63.9375 
Q 23.390625 74.21875 37.203125 74.21875 
Q 40.921875 74.21875 44.703125 73.484375 
Q 48.484375 72.75 52.59375 71.296875 
z
" id="DejaVuSans-36"/>
      </defs>
      <g transform="translate(60.582173 314.858459)scale(0.1 -0.1)">
       <use xlink:href="#DejaVuSans-2212"/>
       <use x="83.789062" xlink:href="#DejaVuSans-36"/>
      </g>
     </g>
    </g>
    <g id="xtick_2">
     <g id="line2d_2">
      <g>
       <use style="stroke:#000000;stroke-width:0.8;" x="141.581947" xlink:href="#m325806a5a9" y="300.260021"/>
      </g>
     </g>
     <g id="text_2">
      <!-- 4 -->
      <defs>
       <path d="M 37.796875 64.3125 
L 12.890625 25.390625 
L 37.796875 25.390625 
z
M 35.203125 72.90625 
L 47.609375 72.90625 
L 47.609375 25.390625 
L 58.015625 25.390625 
L 58.015625 17.1875 
L 47.609375 17.1875 
L 47.609375 0 
L 37.796875 0 
L 37.796875 17.1875 
L 4.890625 17.1875 
L 4.890625 26.703125 
z
" id="DejaVuSans-34"/>
      </defs>
      <g transform="translate(134.210853 314.858459)scale(0.1 -0.1)">
       <use xlink:href="#DejaVuSans-2212"/>
       <use x="83.789062" xlink:href="#DejaVuSans-34"/>
      </g>
     </g>
    </g>
    <g id="xtick_3">
     <g id="line2d_3">
      <g>
       <use style="stroke:#000000;stroke-width:0.8;" x="215.210626" xlink:href="#m325806a5a9" y="300.260021"/>
      </g>
     </g>
     <g id="text_3">
      <!-- 2 -->
      <defs>
       <path d="M 19.1875 8.296875 
L 53.609375 8.296875 
L 53.609375 0 
L 7.328125 0 
L 7.328125 8.296875 
Q 12.9375 14.109375 22.625 23.890625 
Q 32.328125 33.6875 34.8125 36.53125 
Q 39.546875 41.84375 41.421875 45.53125 
Q 43.3125 49.21875 43.3125 52.78125 
Q 43.3125 58.59375 39.234375 62.25 
Q 35.15625 65.921875 28.609375 65.921875 
Q 23.96875 65.921875 18.8125 64.3125 
Q 13.671875 62.703125 7.8125 59.421875 
L 7.8125 69.390625 
Q 13.765625 71.78125 18.9375 73 
Q 24.125 74.21875 28.421875 74.21875 
Q 39.75 74.21875 46.484375 68.546875 
Q 53.21875 62.890625 53.21875 53.421875 
Q 53.21875 48.921875 51.53125 44.890625 
Q 49.859375 40.875 45.40625 35.40625 
Q 44.1875 33.984375 37.640625 27.21875 
Q 31.109375 20.453125 19.1875 8.296875 
z
" id="DejaVuSans-32"/>
      </defs>
      <g transform="translate(207.839533 314.858459)scale(0.1 -0.1)">
       <use xlink:href="#DejaVuSans-2212"/>
       <use x="83.789062" xlink:href="#DejaVuSans-32"/>
      </g>
     </g>
    </g>
    <g id="xtick_4">
     <g id="line2d_4">
      <g>
       <use style="stroke:#000000;stroke-width:0.8;" x="288.839306" xlink:href="#m325806a5a9" y="300.260021"/>
      </g>
     </g>
     <g id="text_4">
      <!-- 0 -->
      <defs>
       <path d="M 31.78125 66.40625 
Q 24.171875 66.40625 20.328125 58.90625 
Q 16.5 51.421875 16.5 36.375 
Q 16.5 21.390625 20.328125 13.890625 
Q 24.171875 6.390625 31.78125 6.390625 
Q 39.453125 6.390625 43.28125 13.890625 
Q 47.125 21.390625 47.125 36.375 
Q 47.125 51.421875 43.28125 58.90625 
Q 39.453125 66.40625 31.78125 66.40625 
z
M 31.78125 74.21875 
Q 44.046875 74.21875 50.515625 64.515625 
Q 56.984375 54.828125 56.984375 36.375 
Q 56.984375 17.96875 50.515625 8.265625 
Q 44.046875 -1.421875 31.78125 -1.421875 
Q 19.53125 -1.421875 13.0625 8.265625 
Q 6.59375 17.96875 6.59375 36.375 
Q 6.59375 54.828125 13.0625 64.515625 
Q 19.53125 74.21875 31.78125 74.21875 
z
" id="DejaVuSans-30"/>
      </defs>
      <g transform="translate(285.658056 314.858459)scale(0.1 -0.1)">
       <use xlink:href="#DejaVuSans-30"/>
      </g>
     </g>
    </g>
    <g id="xtick_5">
     <g id="line2d_5">
      <g>
       <use style="stroke:#000000;stroke-width:0.8;" x="362.467986" xlink:href="#m325806a5a9" y="300.260021"/>
      </g>
     </g>
     <g id="text_5">
      <!-- 2 -->
      <g transform="translate(359.286736 314.858459)scale(0.1 -0.1)">
       <use xlink:href="#DejaVuSans-32"/>
      </g>
     </g>
    </g>
   </g>
   <g id="matplotlib.axis_2">
    <g id="ytick_1">
     <g id="line2d_6">
      <defs>
       <path d="M 0 0 
L -3.5 0 
" id="m09dbf8728b" style="stroke:#000000;stroke-width:0.8;"/>
      </defs>
      <g>
       <use style="stroke:#000000;stroke-width:0.8;" x="57.6" xlink:href="#m09dbf8728b" y="268.047119"/>
      </g>
     </g>
     <g id="text_6">
      <!-- 2 -->
      <g transform="translate(35.857813 271.846338)scale(0.1 -0.1)">
       <use xlink:href="#DejaVuSans-2212"/>
       <use x="83.789062" xlink:href="#DejaVuSans-32"/>
      </g>
     </g>
    </g>
    <g id="ytick_2">
     <g id="line2d_7">
      <g>
       <use style="stroke:#000000;stroke-width:0.8;" x="57.6" xlink:href="#m09dbf8728b" y="231.23278"/>
      </g>
     </g>
     <g id="text_7">
      <!-- 1 -->
      <defs>
       <path d="M 12.40625 8.296875 
L 28.515625 8.296875 
L 28.515625 63.921875 
L 10.984375 60.40625 
L 10.984375 69.390625 
L 28.421875 72.90625 
L 38.28125 72.90625 
L 38.28125 8.296875 
L 54.390625 8.296875 
L 54.390625 0 
L 12.40625 0 
z
" id="DejaVuSans-31"/>
      </defs>
      <g transform="translate(35.857813 235.031998)scale(0.1 -0.1)">
       <use xlink:href="#DejaVuSans-2212"/>
       <use x="83.789062" xlink:href="#DejaVuSans-31"/>
      </g>
     </g>
    </g>
    <g id="ytick_3">
     <g id="line2d_8">
      <g>
       <use style="stroke:#000000;stroke-width:0.8;" x="57.6" xlink:href="#m09dbf8728b" y="194.41844"/>
      </g>
     </g>
     <g id="text_8">
      <!-- 0 -->
      <g transform="translate(44.2375 198.217659)scale(0.1 -0.1)">
       <use xlink:href="#DejaVuSans-30"/>
      </g>
     </g>
    </g>
    <g id="ytick_4">
     <g id="line2d_9">
      <g>
       <use style="stroke:#000000;stroke-width:0.8;" x="57.6" xlink:href="#m09dbf8728b" y="157.6041"/>
      </g>
     </g>
     <g id="text_9">
      <!-- 1 -->
      <g transform="translate(44.2375 161.403319)scale(0.1 -0.1)">
       <use xlink:href="#DejaVuSans-31"/>
      </g>
     </g>
    </g>
    <g id="ytick_5">
     <g id="line2d_10">
      <g>
       <use style="stroke:#000000;stroke-width:0.8;" x="57.6" xlink:href="#m09dbf8728b" y="120.78976"/>
      </g>
     </g>
     <g id="text_10">
      <!-- 2 -->
      <g transform="translate(44.2375 124.588979)scale(0.1 -0.1)">
       <use xlink:href="#DejaVuSans-32"/>
      </g>
     </g>
    </g>
    <g id="ytick_6">
     <g id="line2d_11">
      <g>
       <use style="stroke:#000000;stroke-width:0.8;" x="57.6" xlink:href="#m09dbf8728b" y="83.97542"/>
      </g>
     </g>
     <g id="text_11">
      <!-- 3 -->
      <defs>
       <path d="M 40.578125 39.3125 
Q 47.65625 37.796875 51.625 33 
Q 55.609375 28.21875 55.609375 21.1875 
Q 55.609375 10.40625 48.1875 4.484375 
Q 40.765625 -1.421875 27.09375 -1.421875 
Q 22.515625 -1.421875 17.65625 -0.515625 
Q 12.796875 0.390625 7.625 2.203125 
L 7.625 11.71875 
Q 11.71875 9.328125 16.59375 8.109375 
Q 21.484375 6.890625 26.8125 6.890625 
Q 36.078125 6.890625 40.9375 10.546875 
Q 45.796875 14.203125 45.796875 21.1875 
Q 45.796875 27.640625 41.28125 31.265625 
Q 36.765625 34.90625 28.71875 34.90625 
L 20.21875 34.90625 
L 20.21875 43.015625 
L 29.109375 43.015625 
Q 36.375 43.015625 40.234375 45.921875 
Q 44.09375 48.828125 44.09375 54.296875 
Q 44.09375 59.90625 40.109375 62.90625 
Q 36.140625 65.921875 28.71875 65.921875 
Q 24.65625 65.921875 20.015625 65.03125 
Q 15.375 64.15625 9.8125 62.3125 
L 9.8125 71.09375 
Q 15.4375 72.65625 20.34375 73.4375 
Q 25.25 74.21875 29.59375 74.21875 
Q 40.828125 74.21875 47.359375 69.109375 
Q 53.90625 64.015625 53.90625 55.328125 
Q 53.90625 49.265625 50.4375 45.09375 
Q 46.96875 40.921875 40.578125 39.3125 
z
" id="DejaVuSans-33"/>
      </defs>
      <g transform="translate(44.2375 87.774639)scale(0.1 -0.1)">
       <use xlink:href="#DejaVuSans-33"/>
      </g>
     </g>
    </g>
   </g>
   <g id="line2d_12">
    <path clip-path="url(#p467fdc7b48)" d="M 300.901764 167.592789 
L 372.221286 142.330061 
L 346.319442 143.206307 
L 306.855394 203.630337 
L 307.703048 185.203523 
L 377.90566 204.114234 
L 269.938872 143.77221 
L 169.052697 174.412055 
L 232.224243 148.294401 
L 235.019458 166.915044 
L 228.56657 146.890504 
L 196.74635 281.852851 
L 169.170303 176.65298 
L 194.497189 172.029106 
L 225.029229 135.888988 
L 126.389138 172.71819 
L 150.787088 102.213352 
L 94.41434 134.742649 
L 154.095603 168.942148 
L 95.417648 67.203149 
L 192.211051 138.903155 
" style="fill:none;stroke:#1f77b4;stroke-linecap:square;stroke-width:1.5;"/>
   </g>
   <g id="patch_73">
    <path d="M 57.6 300.260021 
L 57.6 48.795979 
" style="fill:none;stroke:#000000;stroke-linecap:square;stroke-linejoin:miter;stroke-width:0.8;"/>
   </g>
   <g id="patch_74">
    <path d="M 414.72 300.260021 
L 414.72 48.795979 
" style="fill:none;stroke:#000000;stroke-linecap:square;stroke-linejoin:miter;stroke-width:0.8;"/>
   </g>
   <g id="patch_75">
    <path d="M 57.6 300.260021 
L 414.72 300.260021 
" style="fill:none;stroke:#000000;stroke-linecap:square;stroke-linejoin:miter;stroke-width:0.8;"/>
   </g>
   <g id="patch_76">
    <path d="M 57.6 48.795979 
L 414.72 48.795979 
" style="fill:none;stroke:#000000;stroke-linecap:square;stroke-linejoin:miter;stroke-width:0.8;"/>
   </g>
  </g>
 </g>
 <defs>
  <clipPath id="p467fdc7b48">
   <rect height="251.464042" width="357.12" x="57.6" y="48.795979"/>
  </clipPath>
 </defs>
</svg>
