<?xml version="1.0" encoding="utf-8" standalone="no"?>
<!DOCTYPE svg PUBLIC "-//W3C//DTD SVG 1.1//EN"
  "http://www.w3.org/Graphics/SVG/1.1/DTD/svg11.dtd">
<!-- Created with matplotlib (http://matplotlib.org/) -->
<svg height="345.6pt" version="1.1" viewBox="0 0 460.8 345.6" width="460.8pt" xmlns="http://www.w3.org/2000/svg" xmlns:xlink="http://www.w3.org/1999/xlink">
 <defs>
  <style type="text/css">
*{stroke-linecap:butt;stroke-linejoin:round;}
  </style>
 </defs>
 <g id="figure_1">
  <g id="patch_1">
   <path d="M 0 345.6 
L 460.8 345.6 
L 460.8 0 
L 0 0 
z
" style="fill:#ffffff;"/>
  </g>
  <g id="axes_1">
   <g id="patch_2">
    <path d="M 63.18401 307.584 
L 409.13599 307.584 
L 409.13599 41.472 
L 63.18401 41.472 
z
" style="fill:#ffffff;"/>
   </g>
   <g id="PathCollection_1">
    <defs>
     <path d="M 0 3 
C 0.795609 3 1.55874 2.683901 2.12132 2.12132 
C 2.683901 1.55874 3 0.795609 3 0 
C 3 -0.795609 2.683901 -1.55874 2.12132 -2.12132 
C 1.55874 -2.683901 0.795609 -3 0 -3 
C -0.795609 -3 -1.55874 -2.683901 -2.12132 -2.12132 
C -2.683901 -1.55874 -3 -0.795609 -3 0 
C -3 0.795609 -2.683901 1.55874 -2.12132 2.12132 
C -1.55874 2.683901 -0.795609 3 0 3 
z
" id="m8a3321f49e" style="stroke:#000000;"/>
    </defs>
    <g clip-path="url(#pb911af4fe4)">
     <use style="stroke:#000000;" x="361.809745" xlink:href="#m8a3321f49e" y="160.341499"/>
    </g>
   </g>
   <g id="PathCollection_2">
    <defs>
     <path d="M 0 2.738613 
C 0.726289 2.738613 1.422928 2.450055 1.936492 1.936492 
C 2.450055 1.422928 2.738613 0.726289 2.738613 0 
C 2.738613 -0.726289 2.450055 -1.422928 1.936492 -1.936492 
C 1.422928 -2.450055 0.726289 -2.738613 0 -2.738613 
C -0.726289 -2.738613 -1.422928 -2.450055 -1.936492 -1.936492 
C -2.450055 -1.422928 -2.738613 -0.726289 -2.738613 0 
C -2.738613 0.726289 -2.450055 1.422928 -1.936492 1.936492 
C -1.422928 2.450055 -0.726289 2.738613 0 2.738613 
z
" id="m04109a42e7" style="stroke:#000000;"/>
    </defs>
    <g clip-path="url(#pb911af4fe4)">
     <use style="stroke:#000000;" x="262.992388" xlink:href="#m04109a42e7" y="98.575153"/>
    </g>
   </g>
   <g id="Quiver_1">
    <path clip-path="url(#pb911af4fe4)" d="M 263.607595 97.967256 
L 277.589213 112.117009 
L 278.21173 110.28601 
L 282.445075 118.261766 
L 274.52049 113.933389 
L 276.3588 113.332802 
L 262.377182 99.183049 
L 263.607595 97.967256 
"/>
   </g>
   <g id="patch_3">
    <path clip-path="url(#pb911af4fe4)" d="M 93.256252 307.499394 
C 95.904653 307.499394 98.444939 306.447173 100.317641 304.574471 
C 102.190343 302.701769 103.242564 300.161483 103.242564 297.513082 
C 103.242564 294.864681 102.190343 292.324396 100.317641 290.451693 
C 98.444939 288.578991 95.904653 287.52677 93.256252 287.52677 
C 90.607851 287.52677 88.067566 288.578991 86.194863 290.451693 
C 84.322161 292.324396 83.26994 294.864681 83.26994 297.513082 
C 83.26994 300.161483 84.322161 302.701769 86.194863 304.574471 
C 88.067566 306.447173 90.607851 307.499394 93.256252 307.499394 
z
" style="fill:#9558b2;fill-opacity:0.5;stroke:#9558b2;stroke-linejoin:miter;stroke-width:2;"/>
   </g>
   <g id="patch_4">
    <path clip-path="url(#pb911af4fe4)" d="M 133.201499 302.506238 
C 134.525699 302.506238 135.795842 301.980127 136.732193 301.043776 
C 137.668544 300.107425 138.194655 298.837282 138.194655 297.513082 
C 138.194655 296.188882 137.668544 294.918739 136.732193 293.982388 
C 135.795842 293.046037 134.525699 292.519926 133.201499 292.519926 
C 131.877298 292.519926 130.607156 293.046037 129.670804 293.982388 
C 128.734453 294.918739 128.208343 296.188882 128.208343 297.513082 
C 128.208343 298.837282 128.734453 300.107425 129.670804 301.043776 
C 130.607156 301.980127 131.877298 302.506238 133.201499 302.506238 
z
" style="fill:#009900;fill-opacity:0.5;stroke:#009900;stroke-linejoin:miter;stroke-width:2;"/>
   </g>
   <g id="patch_5">
    <path clip-path="url(#pb911af4fe4)" d="M 93.256252 267.554147 
C 95.904653 267.554147 98.444939 266.501926 100.317641 264.629224 
C 102.190343 262.756522 103.242564 260.216236 103.242564 257.567835 
C 103.242564 254.919434 102.190343 252.379149 100.317641 250.506447 
C 98.444939 248.633744 95.904653 247.581524 93.256252 247.581524 
C 90.607851 247.581524 88.067566 248.633744 86.194863 250.506447 
C 84.322161 252.379149 83.26994 254.919434 83.26994 257.567835 
C 83.26994 260.216236 84.322161 262.756522 86.194863 264.629224 
C 88.067566 266.501926 90.607851 267.554147 93.256252 267.554147 
z
" style="fill:#9558b2;fill-opacity:0.5;stroke:#9558b2;stroke-linejoin:miter;stroke-width:2;"/>
   </g>
   <g id="patch_6">
    <path clip-path="url(#pb911af4fe4)" d="M 133.201499 262.560991 
C 134.525699 262.560991 135.795842 262.034881 136.732193 261.09853 
C 137.668544 260.162179 138.194655 258.892036 138.194655 257.567835 
C 138.194655 256.243635 137.668544 254.973492 136.732193 254.037141 
C 135.795842 253.10079 134.525699 252.574679 133.201499 252.574679 
C 131.877298 252.574679 130.607156 253.10079 129.670804 254.037141 
C 128.734453 254.973492 128.208343 256.243635 128.208343 257.567835 
C 128.208343 258.892036 128.734453 260.162179 129.670804 261.09853 
C 130.607156 262.034881 131.877298 262.560991 133.201499 262.560991 
z
" style="fill:#009900;fill-opacity:0.5;stroke:#009900;stroke-linejoin:miter;stroke-width:2;"/>
   </g>
   <g id="patch_7">
    <path clip-path="url(#pb911af4fe4)" d="M 93.256252 227.6089 
C 95.904653 227.6089 98.444939 226.556679 100.317641 224.683977 
C 102.190343 222.811275 103.242564 220.270989 103.242564 217.622589 
C 103.242564 214.974188 102.190343 212.433902 100.317641 210.5612 
C 98.444939 208.688498 95.904653 207.636277 93.256252 207.636277 
C 90.607851 207.636277 88.067566 208.688498 86.194863 210.5612 
C 84.322161 212.433902 83.26994 214.974188 83.26994 217.622589 
C 83.26994 220.270989 84.322161 222.811275 86.194863 224.683977 
C 88.067566 226.556679 90.607851 227.6089 93.256252 227.6089 
z
" style="fill:#9558b2;fill-opacity:0.5;stroke:#9558b2;stroke-linejoin:miter;stroke-width:2;"/>
   </g>
   <g id="patch_8">
    <path clip-path="url(#pb911af4fe4)" d="M 133.201499 222.615744 
C 134.525699 222.615744 135.795842 222.089634 136.732193 221.153283 
C 137.668544 220.216932 138.194655 218.946789 138.194655 217.622589 
C 138.194655 216.298388 137.668544 215.028245 136.732193 214.091894 
C 135.795842 213.155543 134.525699 212.629433 133.201499 212.629433 
C 131.877298 212.629433 130.607156 213.155543 129.670804 214.091894 
C 128.734453 215.028245 128.208343 216.298388 128.208343 217.622589 
C 128.208343 218.946789 128.734453 220.216932 129.670804 221.153283 
C 130.607156 222.089634 131.877298 222.615744 133.201499 222.615744 
z
" style="fill:#009900;fill-opacity:0.5;stroke:#009900;stroke-linejoin:miter;stroke-width:2;"/>
   </g>
   <g id="patch_9">
    <path clip-path="url(#pb911af4fe4)" d="M 93.256252 187.663653 
C 95.904653 187.663653 98.444939 186.611433 100.317641 184.738731 
C 102.190343 182.866028 103.242564 180.325743 103.242564 177.677342 
C 103.242564 175.028941 102.190343 172.488655 100.317641 170.615953 
C 98.444939 168.743251 95.904653 167.69103 93.256252 167.69103 
C 90.607851 167.69103 88.067566 168.743251 86.194863 170.615953 
C 84.322161 172.488655 83.26994 175.028941 83.26994 177.677342 
C 83.26994 180.325743 84.322161 182.866028 86.194863 184.738731 
C 88.067566 186.611433 90.607851 187.663653 93.256252 187.663653 
z
" style="fill:#9558b2;fill-opacity:0.5;stroke:#9558b2;stroke-linejoin:miter;stroke-width:2;"/>
   </g>
   <g id="patch_10">
    <path clip-path="url(#pb911af4fe4)" d="M 133.201499 182.670498 
C 134.525699 182.670498 135.795842 182.144387 136.732193 181.208036 
C 137.668544 180.271685 138.194655 179.001542 138.194655 177.677342 
C 138.194655 176.353141 137.668544 175.082999 136.732193 174.146647 
C 135.795842 173.210296 134.525699 172.684186 133.201499 172.684186 
C 131.877298 172.684186 130.607156 173.210296 129.670804 174.146647 
C 128.734453 175.082999 128.208343 176.353141 128.208343 177.677342 
C 128.208343 179.001542 128.734453 180.271685 129.670804 181.208036 
C 130.607156 182.144387 131.877298 182.670498 133.201499 182.670498 
z
" style="fill:#009900;fill-opacity:0.5;stroke:#009900;stroke-linejoin:miter;stroke-width:2;"/>
   </g>
   <g id="patch_11">
    <path clip-path="url(#pb911af4fe4)" d="M 93.256252 147.718407 
C 95.904653 147.718407 98.444939 146.666186 100.317641 144.793484 
C 102.190343 142.920782 103.242564 140.380496 103.242564 137.732095 
C 103.242564 135.083694 102.190343 132.543409 100.317641 130.670706 
C 98.444939 128.798004 95.904653 127.745783 93.256252 127.745783 
C 90.607851 127.745783 88.067566 128.798004 86.194863 130.670706 
C 84.322161 132.543409 83.26994 135.083694 83.26994 137.732095 
C 83.26994 140.380496 84.322161 142.920782 86.194863 144.793484 
C 88.067566 146.666186 90.607851 147.718407 93.256252 147.718407 
z
" style="fill:#9558b2;fill-opacity:0.5;stroke:#9558b2;stroke-linejoin:miter;stroke-width:2;"/>
   </g>
   <g id="patch_12">
    <path clip-path="url(#pb911af4fe4)" d="M 133.201499 142.725251 
C 134.525699 142.725251 135.795842 142.19914 136.732193 141.262789 
C 137.668544 140.326438 138.194655 139.056295 138.194655 137.732095 
C 138.194655 136.407895 137.668544 135.137752 136.732193 134.201401 
C 135.795842 133.26505 134.525699 132.738939 133.201499 132.738939 
C 131.877298 132.738939 130.607156 133.26505 129.670804 134.201401 
C 128.734453 135.137752 128.208343 136.407895 128.208343 137.732095 
C 128.208343 139.056295 128.734453 140.326438 129.670804 141.262789 
C 130.607156 142.19914 131.877298 142.725251 133.201499 142.725251 
z
" style="fill:#009900;fill-opacity:0.5;stroke:#009900;stroke-linejoin:miter;stroke-width:2;"/>
   </g>
   <g id="patch_13">
    <path clip-path="url(#pb911af4fe4)" d="M 93.256252 107.77316 
C 95.904653 107.77316 98.444939 106.720939 100.317641 104.848237 
C 102.190343 102.975535 103.242564 100.435249 103.242564 97.786848 
C 103.242564 95.138447 102.190343 92.598162 100.317641 90.72546 
C 98.444939 88.852757 95.904653 87.800537 93.256252 87.800537 
C 90.607851 87.800537 88.067566 88.852757 86.194863 90.72546 
C 84.322161 92.598162 83.26994 95.138447 83.26994 97.786848 
C 83.26994 100.435249 84.322161 102.975535 86.194863 104.848237 
C 88.067566 106.720939 90.607851 107.77316 93.256252 107.77316 
z
" style="fill:#9558b2;fill-opacity:0.5;stroke:#9558b2;stroke-linejoin:miter;stroke-width:2;"/>
   </g>
   <g id="patch_14">
    <path clip-path="url(#pb911af4fe4)" d="M 133.201499 102.780004 
C 134.525699 102.780004 135.795842 102.253894 136.732193 101.317543 
C 137.668544 100.381192 138.194655 99.111049 138.194655 97.786848 
C 138.194655 96.462648 137.668544 95.192505 136.732193 94.256154 
C 135.795842 93.319803 134.525699 92.793692 133.201499 92.793692 
C 131.877298 92.793692 130.607156 93.319803 129.670804 94.256154 
C 128.734453 95.192505 128.208343 96.462648 128.208343 97.786848 
C 128.208343 99.111049 128.734453 100.381192 129.670804 101.317543 
C 130.607156 102.253894 131.877298 102.780004 133.201499 102.780004 
z
" style="fill:#009900;fill-opacity:0.5;stroke:#009900;stroke-linejoin:miter;stroke-width:2;"/>
   </g>
   <g id="patch_15">
    <path clip-path="url(#pb911af4fe4)" d="M 93.256252 67.827913 
C 95.904653 67.827913 98.444939 66.775692 100.317641 64.90299 
C 102.190343 63.030288 103.242564 60.490002 103.242564 57.841602 
C 103.242564 55.193201 102.190343 52.652915 100.317641 50.780213 
C 98.444939 48.907511 95.904653 47.85529 93.256252 47.85529 
C 90.607851 47.85529 88.067566 48.907511 86.194863 50.780213 
C 84.322161 52.652915 83.26994 55.193201 83.26994 57.841602 
C 83.26994 60.490002 84.322161 63.030288 86.194863 64.90299 
C 88.067566 66.775692 90.607851 67.827913 93.256252 67.827913 
z
" style="fill:#9558b2;fill-opacity:0.5;stroke:#9558b2;stroke-linejoin:miter;stroke-width:2;"/>
   </g>
   <g id="patch_16">
    <path clip-path="url(#pb911af4fe4)" d="M 133.201499 62.834757 
C 134.525699 62.834757 135.795842 62.308647 136.732193 61.372296 
C 137.668544 60.435945 138.194655 59.165802 138.194655 57.841602 
C 138.194655 56.517401 137.668544 55.247258 136.732193 54.310907 
C 135.795842 53.374556 134.525699 52.848446 133.201499 52.848446 
C 131.877298 52.848446 130.607156 53.374556 129.670804 54.310907 
C 128.734453 55.247258 128.208343 56.517401 128.208343 57.841602 
C 128.208343 59.165802 128.734453 60.435945 129.670804 61.372296 
C 130.607156 62.308647 131.877298 62.834757 133.201499 62.834757 
z
" style="fill:#009900;fill-opacity:0.5;stroke:#009900;stroke-linejoin:miter;stroke-width:2;"/>
   </g>
   <g id="patch_17">
    <path clip-path="url(#pb911af4fe4)" d="M 173.146746 307.499394 
C 175.795146 307.499394 178.335432 306.447173 180.208134 304.574471 
C 182.080836 302.701769 183.133057 300.161483 183.133057 297.513082 
C 183.133057 294.864681 182.080836 292.324396 180.208134 290.451693 
C 178.335432 288.578991 175.795146 287.52677 173.146746 287.52677 
C 170.498345 287.52677 167.958059 288.578991 166.085357 290.451693 
C 164.212655 292.324396 163.160434 294.864681 163.160434 297.513082 
C 163.160434 300.161483 164.212655 302.701769 166.085357 304.574471 
C 167.958059 306.447173 170.498345 307.499394 173.146746 307.499394 
z
" style="fill:#9558b2;fill-opacity:0.5;stroke:#9558b2;stroke-linejoin:miter;stroke-width:2;"/>
   </g>
   <g id="patch_18">
    <path clip-path="url(#pb911af4fe4)" d="M 213.091992 302.506238 
C 214.416193 302.506238 215.686336 301.980127 216.622687 301.043776 
C 217.559038 300.107425 218.085148 298.837282 218.085148 297.513082 
C 218.085148 296.188882 217.559038 294.918739 216.622687 293.982388 
C 215.686336 293.046037 214.416193 292.519926 213.091992 292.519926 
C 211.767792 292.519926 210.497649 293.046037 209.561298 293.982388 
C 208.624947 294.918739 208.098836 296.188882 208.098836 297.513082 
C 208.098836 298.837282 208.624947 300.107425 209.561298 301.043776 
C 210.497649 301.980127 211.767792 302.506238 213.091992 302.506238 
z
" style="fill:#009900;fill-opacity:0.5;stroke:#009900;stroke-linejoin:miter;stroke-width:2;"/>
   </g>
   <g id="patch_19">
    <path clip-path="url(#pb911af4fe4)" d="M 173.146746 267.554147 
C 175.795146 267.554147 178.335432 266.501926 180.208134 264.629224 
C 182.080836 262.756522 183.133057 260.216236 183.133057 257.567835 
C 183.133057 254.919434 182.080836 252.379149 180.208134 250.506447 
C 178.335432 248.633744 175.795146 247.581524 173.146746 247.581524 
C 170.498345 247.581524 167.958059 248.633744 166.085357 250.506447 
C 164.212655 252.379149 163.160434 254.919434 163.160434 257.567835 
C 163.160434 260.216236 164.212655 262.756522 166.085357 264.629224 
C 167.958059 266.501926 170.498345 267.554147 173.146746 267.554147 
z
" style="fill:#9558b2;fill-opacity:0.5;stroke:#9558b2;stroke-linejoin:miter;stroke-width:2;"/>
   </g>
   <g id="patch_20">
    <path clip-path="url(#pb911af4fe4)" d="M 213.091992 262.560991 
C 214.416193 262.560991 215.686336 262.034881 216.622687 261.09853 
C 217.559038 260.162179 218.085148 258.892036 218.085148 257.567835 
C 218.085148 256.243635 217.559038 254.973492 216.622687 254.037141 
C 215.686336 253.10079 214.416193 252.574679 213.091992 252.574679 
C 211.767792 252.574679 210.497649 253.10079 209.561298 254.037141 
C 208.624947 254.973492 208.098836 256.243635 208.098836 257.567835 
C 208.098836 258.892036 208.624947 260.162179 209.561298 261.09853 
C 210.497649 262.034881 211.767792 262.560991 213.091992 262.560991 
z
" style="fill:#009900;fill-opacity:0.5;stroke:#009900;stroke-linejoin:miter;stroke-width:2;"/>
   </g>
   <g id="patch_21">
    <path clip-path="url(#pb911af4fe4)" d="M 173.146746 227.6089 
C 175.795146 227.6089 178.335432 226.556679 180.208134 224.683977 
C 182.080836 222.811275 183.133057 220.270989 183.133057 217.622589 
C 183.133057 214.974188 182.080836 212.433902 180.208134 210.5612 
C 178.335432 208.688498 175.795146 207.636277 173.146746 207.636277 
C 170.498345 207.636277 167.958059 208.688498 166.085357 210.5612 
C 164.212655 212.433902 163.160434 214.974188 163.160434 217.622589 
C 163.160434 220.270989 164.212655 222.811275 166.085357 224.683977 
C 167.958059 226.556679 170.498345 227.6089 173.146746 227.6089 
z
" style="fill:#9558b2;fill-opacity:0.5;stroke:#9558b2;stroke-linejoin:miter;stroke-width:2;"/>
   </g>
   <g id="patch_22">
    <path clip-path="url(#pb911af4fe4)" d="M 213.091992 222.615744 
C 214.416193 222.615744 215.686336 222.089634 216.622687 221.153283 
C 217.559038 220.216932 218.085148 218.946789 218.085148 217.622589 
C 218.085148 216.298388 217.559038 215.028245 216.622687 214.091894 
C 215.686336 213.155543 214.416193 212.629433 213.091992 212.629433 
C 211.767792 212.629433 210.497649 213.155543 209.561298 214.091894 
C 208.624947 215.028245 208.098836 216.298388 208.098836 217.622589 
C 208.098836 218.946789 208.624947 220.216932 209.561298 221.153283 
C 210.497649 222.089634 211.767792 222.615744 213.091992 222.615744 
z
" style="fill:#009900;fill-opacity:0.5;stroke:#009900;stroke-linejoin:miter;stroke-width:2;"/>
   </g>
   <g id="patch_23">
    <path clip-path="url(#pb911af4fe4)" d="M 173.146746 187.663653 
C 175.795146 187.663653 178.335432 186.611433 180.208134 184.738731 
C 182.080836 182.866028 183.133057 180.325743 183.133057 177.677342 
C 183.133057 175.028941 182.080836 172.488655 180.208134 170.615953 
C 178.335432 168.743251 175.795146 167.69103 173.146746 167.69103 
C 170.498345 167.69103 167.958059 168.743251 166.085357 170.615953 
C 164.212655 172.488655 163.160434 175.028941 163.160434 177.677342 
C 163.160434 180.325743 164.212655 182.866028 166.085357 184.738731 
C 167.958059 186.611433 170.498345 187.663653 173.146746 187.663653 
z
" style="fill:#9558b2;fill-opacity:0.5;stroke:#9558b2;stroke-linejoin:miter;stroke-width:2;"/>
   </g>
   <g id="patch_24">
    <path clip-path="url(#pb911af4fe4)" d="M 213.091992 182.670498 
C 214.416193 182.670498 215.686336 182.144387 216.622687 181.208036 
C 217.559038 180.271685 218.085148 179.001542 218.085148 177.677342 
C 218.085148 176.353141 217.559038 175.082999 216.622687 174.146647 
C 215.686336 173.210296 214.416193 172.684186 213.091992 172.684186 
C 211.767792 172.684186 210.497649 173.210296 209.561298 174.146647 
C 208.624947 175.082999 208.098836 176.353141 208.098836 177.677342 
C 208.098836 179.001542 208.624947 180.271685 209.561298 181.208036 
C 210.497649 182.144387 211.767792 182.670498 213.091992 182.670498 
z
" style="fill:#009900;fill-opacity:0.5;stroke:#009900;stroke-linejoin:miter;stroke-width:2;"/>
   </g>
   <g id="patch_25">
    <path clip-path="url(#pb911af4fe4)" d="M 173.146746 147.718407 
C 175.795146 147.718407 178.335432 146.666186 180.208134 144.793484 
C 182.080836 142.920782 183.133057 140.380496 183.133057 137.732095 
C 183.133057 135.083694 182.080836 132.543409 180.208134 130.670706 
C 178.335432 128.798004 175.795146 127.745783 173.146746 127.745783 
C 170.498345 127.745783 167.958059 128.798004 166.085357 130.670706 
C 164.212655 132.543409 163.160434 135.083694 163.160434 137.732095 
C 163.160434 140.380496 164.212655 142.920782 166.085357 144.793484 
C 167.958059 146.666186 170.498345 147.718407 173.146746 147.718407 
z
" style="fill:#9558b2;fill-opacity:0.5;stroke:#9558b2;stroke-linejoin:miter;stroke-width:2;"/>
   </g>
   <g id="patch_26">
    <path clip-path="url(#pb911af4fe4)" d="M 213.091992 142.725251 
C 214.416193 142.725251 215.686336 142.19914 216.622687 141.262789 
C 217.559038 140.326438 218.085148 139.056295 218.085148 137.732095 
C 218.085148 136.407895 217.559038 135.137752 216.622687 134.201401 
C 215.686336 133.26505 214.416193 132.738939 213.091992 132.738939 
C 211.767792 132.738939 210.497649 133.26505 209.561298 134.201401 
C 208.624947 135.137752 208.098836 136.407895 208.098836 137.732095 
C 208.098836 139.056295 208.624947 140.326438 209.561298 141.262789 
C 210.497649 142.19914 211.767792 142.725251 213.091992 142.725251 
z
" style="fill:#009900;fill-opacity:0.5;stroke:#009900;stroke-linejoin:miter;stroke-width:2;"/>
   </g>
   <g id="patch_27">
    <path clip-path="url(#pb911af4fe4)" d="M 173.146746 107.77316 
C 175.795146 107.77316 178.335432 106.720939 180.208134 104.848237 
C 182.080836 102.975535 183.133057 100.435249 183.133057 97.786848 
C 183.133057 95.138447 182.080836 92.598162 180.208134 90.72546 
C 178.335432 88.852757 175.795146 87.800537 173.146746 87.800537 
C 170.498345 87.800537 167.958059 88.852757 166.085357 90.72546 
C 164.212655 92.598162 163.160434 95.138447 163.160434 97.786848 
C 163.160434 100.435249 164.212655 102.975535 166.085357 104.848237 
C 167.958059 106.720939 170.498345 107.77316 173.146746 107.77316 
z
" style="fill:#9558b2;fill-opacity:0.5;stroke:#9558b2;stroke-linejoin:miter;stroke-width:2;"/>
   </g>
   <g id="patch_28">
    <path clip-path="url(#pb911af4fe4)" d="M 213.091992 102.780004 
C 214.416193 102.780004 215.686336 102.253894 216.622687 101.317543 
C 217.559038 100.381192 218.085148 99.111049 218.085148 97.786848 
C 218.085148 96.462648 217.559038 95.192505 216.622687 94.256154 
C 215.686336 93.319803 214.416193 92.793692 213.091992 92.793692 
C 211.767792 92.793692 210.497649 93.319803 209.561298 94.256154 
C 208.624947 95.192505 208.098836 96.462648 208.098836 97.786848 
C 208.098836 99.111049 208.624947 100.381192 209.561298 101.317543 
C 210.497649 102.253894 211.767792 102.780004 213.091992 102.780004 
z
" style="fill:#009900;fill-opacity:0.5;stroke:#009900;stroke-linejoin:miter;stroke-width:2;"/>
   </g>
   <g id="patch_29">
    <path clip-path="url(#pb911af4fe4)" d="M 173.146746 67.827913 
C 175.795146 67.827913 178.335432 66.775692 180.208134 64.90299 
C 182.080836 63.030288 183.133057 60.490002 183.133057 57.841602 
C 183.133057 55.193201 182.080836 52.652915 180.208134 50.780213 
C 178.335432 48.907511 175.795146 47.85529 173.146746 47.85529 
C 170.498345 47.85529 167.958059 48.907511 166.085357 50.780213 
C 164.212655 52.652915 163.160434 55.193201 163.160434 57.841602 
C 163.160434 60.490002 164.212655 63.030288 166.085357 64.90299 
C 167.958059 66.775692 170.498345 67.827913 173.146746 67.827913 
z
" style="fill:#9558b2;fill-opacity:0.5;stroke:#9558b2;stroke-linejoin:miter;stroke-width:2;"/>
   </g>
   <g id="patch_30">
    <path clip-path="url(#pb911af4fe4)" d="M 213.091992 62.834757 
C 214.416193 62.834757 215.686336 62.308647 216.622687 61.372296 
C 217.559038 60.435945 218.085148 59.165802 218.085148 57.841602 
C 218.085148 56.517401 217.559038 55.247258 216.622687 54.310907 
C 215.686336 53.374556 214.416193 52.848446 213.091992 52.848446 
C 211.767792 52.848446 210.497649 53.374556 209.561298 54.310907 
C 208.624947 55.247258 208.098836 56.517401 208.098836 57.841602 
C 208.098836 59.165802 208.624947 60.435945 209.561298 61.372296 
C 210.497649 62.308647 211.767792 62.834757 213.091992 62.834757 
z
" style="fill:#009900;fill-opacity:0.5;stroke:#009900;stroke-linejoin:miter;stroke-width:2;"/>
   </g>
   <g id="patch_31">
    <path clip-path="url(#pb911af4fe4)" d="M 253.037239 307.499394 
C 255.68564 307.499394 258.225926 306.447173 260.098628 304.574471 
C 261.97133 302.701769 263.023551 300.161483 263.023551 297.513082 
C 263.023551 294.864681 261.97133 292.324396 260.098628 290.451693 
C 258.225926 288.578991 255.68564 287.52677 253.037239 287.52677 
C 250.388838 287.52677 247.848553 288.578991 245.97585 290.451693 
C 244.103148 292.324396 243.050927 294.864681 243.050927 297.513082 
C 243.050927 300.161483 244.103148 302.701769 245.97585 304.574471 
C 247.848553 306.447173 250.388838 307.499394 253.037239 307.499394 
z
" style="fill:#9558b2;fill-opacity:0.5;stroke:#9558b2;stroke-linejoin:miter;stroke-width:2;"/>
   </g>
   <g id="patch_32">
    <path clip-path="url(#pb911af4fe4)" d="M 292.982486 302.506238 
C 294.306686 302.506238 295.576829 301.980127 296.51318 301.043776 
C 297.449531 300.107425 297.975642 298.837282 297.975642 297.513082 
C 297.975642 296.188882 297.449531 294.918739 296.51318 293.982388 
C 295.576829 293.046037 294.306686 292.519926 292.982486 292.519926 
C 291.658285 292.519926 290.388143 293.046037 289.451791 293.982388 
C 288.51544 294.918739 287.98933 296.188882 287.98933 297.513082 
C 287.98933 298.837282 288.51544 300.107425 289.451791 301.043776 
C 290.388143 301.980127 291.658285 302.506238 292.982486 302.506238 
z
" style="fill:#009900;fill-opacity:0.5;stroke:#009900;stroke-linejoin:miter;stroke-width:2;"/>
   </g>
   <g id="patch_33">
    <path clip-path="url(#pb911af4fe4)" d="M 253.037239 267.554147 
C 255.68564 267.554147 258.225926 266.501926 260.098628 264.629224 
C 261.97133 262.756522 263.023551 260.216236 263.023551 257.567835 
C 263.023551 254.919434 261.97133 252.379149 260.098628 250.506447 
C 258.225926 248.633744 255.68564 247.581524 253.037239 247.581524 
C 250.388838 247.581524 247.848553 248.633744 245.97585 250.506447 
C 244.103148 252.379149 243.050927 254.919434 243.050927 257.567835 
C 243.050927 260.216236 244.103148 262.756522 245.97585 264.629224 
C 247.848553 266.501926 250.388838 267.554147 253.037239 267.554147 
z
" style="fill:#9558b2;fill-opacity:0.5;stroke:#9558b2;stroke-linejoin:miter;stroke-width:2;"/>
   </g>
   <g id="patch_34">
    <path clip-path="url(#pb911af4fe4)" d="M 292.982486 262.560991 
C 294.306686 262.560991 295.576829 262.034881 296.51318 261.09853 
C 297.449531 260.162179 297.975642 258.892036 297.975642 257.567835 
C 297.975642 256.243635 297.449531 254.973492 296.51318 254.037141 
C 295.576829 253.10079 294.306686 252.574679 292.982486 252.574679 
C 291.658285 252.574679 290.388143 253.10079 289.451791 254.037141 
C 288.51544 254.973492 287.98933 256.243635 287.98933 257.567835 
C 287.98933 258.892036 288.51544 260.162179 289.451791 261.09853 
C 290.388143 262.034881 291.658285 262.560991 292.982486 262.560991 
z
" style="fill:#009900;fill-opacity:0.5;stroke:#009900;stroke-linejoin:miter;stroke-width:2;"/>
   </g>
   <g id="patch_35">
    <path clip-path="url(#pb911af4fe4)" d="M 253.037239 227.6089 
C 255.68564 227.6089 258.225926 226.556679 260.098628 224.683977 
C 261.97133 222.811275 263.023551 220.270989 263.023551 217.622589 
C 263.023551 214.974188 261.97133 212.433902 260.098628 210.5612 
C 258.225926 208.688498 255.68564 207.636277 253.037239 207.636277 
C 250.388838 207.636277 247.848553 208.688498 245.97585 210.5612 
C 244.103148 212.433902 243.050927 214.974188 243.050927 217.622589 
C 243.050927 220.270989 244.103148 222.811275 245.97585 224.683977 
C 247.848553 226.556679 250.388838 227.6089 253.037239 227.6089 
z
" style="fill:#9558b2;fill-opacity:0.5;stroke:#9558b2;stroke-linejoin:miter;stroke-width:2;"/>
   </g>
   <g id="patch_36">
    <path clip-path="url(#pb911af4fe4)" d="M 292.982486 222.615744 
C 294.306686 222.615744 295.576829 222.089634 296.51318 221.153283 
C 297.449531 220.216932 297.975642 218.946789 297.975642 217.622589 
C 297.975642 216.298388 297.449531 215.028245 296.51318 214.091894 
C 295.576829 213.155543 294.306686 212.629433 292.982486 212.629433 
C 291.658285 212.629433 290.388143 213.155543 289.451791 214.091894 
C 288.51544 215.028245 287.98933 216.298388 287.98933 217.622589 
C 287.98933 218.946789 288.51544 220.216932 289.451791 221.153283 
C 290.388143 222.089634 291.658285 222.615744 292.982486 222.615744 
z
" style="fill:#009900;fill-opacity:0.5;stroke:#009900;stroke-linejoin:miter;stroke-width:2;"/>
   </g>
   <g id="patch_37">
    <path clip-path="url(#pb911af4fe4)" d="M 253.037239 187.663653 
C 255.68564 187.663653 258.225926 186.611433 260.098628 184.738731 
C 261.97133 182.866028 263.023551 180.325743 263.023551 177.677342 
C 263.023551 175.028941 261.97133 172.488655 260.098628 170.615953 
C 258.225926 168.743251 255.68564 167.69103 253.037239 167.69103 
C 250.388838 167.69103 247.848553 168.743251 245.97585 170.615953 
C 244.103148 172.488655 243.050927 175.028941 243.050927 177.677342 
C 243.050927 180.325743 244.103148 182.866028 245.97585 184.738731 
C 247.848553 186.611433 250.388838 187.663653 253.037239 187.663653 
z
" style="fill:#9558b2;fill-opacity:0.5;stroke:#9558b2;stroke-linejoin:miter;stroke-width:2;"/>
   </g>
   <g id="patch_38">
    <path clip-path="url(#pb911af4fe4)" d="M 292.982486 182.670498 
C 294.306686 182.670498 295.576829 182.144387 296.51318 181.208036 
C 297.449531 180.271685 297.975642 179.001542 297.975642 177.677342 
C 297.975642 176.353141 297.449531 175.082999 296.51318 174.146647 
C 295.576829 173.210296 294.306686 172.684186 292.982486 172.684186 
C 291.658285 172.684186 290.388143 173.210296 289.451791 174.146647 
C 288.51544 175.082999 287.98933 176.353141 287.98933 177.677342 
C 287.98933 179.001542 288.51544 180.271685 289.451791 181.208036 
C 290.388143 182.144387 291.658285 182.670498 292.982486 182.670498 
z
" style="fill:#009900;fill-opacity:0.5;stroke:#009900;stroke-linejoin:miter;stroke-width:2;"/>
   </g>
   <g id="patch_39">
    <path clip-path="url(#pb911af4fe4)" d="M 253.037239 147.718407 
C 255.68564 147.718407 258.225926 146.666186 260.098628 144.793484 
C 261.97133 142.920782 263.023551 140.380496 263.023551 137.732095 
C 263.023551 135.083694 261.97133 132.543409 260.098628 130.670706 
C 258.225926 128.798004 255.68564 127.745783 253.037239 127.745783 
C 250.388838 127.745783 247.848553 128.798004 245.97585 130.670706 
C 244.103148 132.543409 243.050927 135.083694 243.050927 137.732095 
C 243.050927 140.380496 244.103148 142.920782 245.97585 144.793484 
C 247.848553 146.666186 250.388838 147.718407 253.037239 147.718407 
z
" style="fill:#9558b2;fill-opacity:0.5;stroke:#9558b2;stroke-linejoin:miter;stroke-width:2;"/>
   </g>
   <g id="patch_40">
    <path clip-path="url(#pb911af4fe4)" d="M 292.982486 142.725251 
C 294.306686 142.725251 295.576829 142.19914 296.51318 141.262789 
C 297.449531 140.326438 297.975642 139.056295 297.975642 137.732095 
C 297.975642 136.407895 297.449531 135.137752 296.51318 134.201401 
C 295.576829 133.26505 294.306686 132.738939 292.982486 132.738939 
C 291.658285 132.738939 290.388143 133.26505 289.451791 134.201401 
C 288.51544 135.137752 287.98933 136.407895 287.98933 137.732095 
C 287.98933 139.056295 288.51544 140.326438 289.451791 141.262789 
C 290.388143 142.19914 291.658285 142.725251 292.982486 142.725251 
z
" style="fill:#009900;fill-opacity:0.5;stroke:#009900;stroke-linejoin:miter;stroke-width:2;"/>
   </g>
   <g id="patch_41">
    <path clip-path="url(#pb911af4fe4)" d="M 253.037239 107.77316 
C 255.68564 107.77316 258.225926 106.720939 260.098628 104.848237 
C 261.97133 102.975535 263.023551 100.435249 263.023551 97.786848 
C 263.023551 95.138447 261.97133 92.598162 260.098628 90.72546 
C 258.225926 88.852757 255.68564 87.800537 253.037239 87.800537 
C 250.388838 87.800537 247.848553 88.852757 245.97585 90.72546 
C 244.103148 92.598162 243.050927 95.138447 243.050927 97.786848 
C 243.050927 100.435249 244.103148 102.975535 245.97585 104.848237 
C 247.848553 106.720939 250.388838 107.77316 253.037239 107.77316 
z
" style="fill:#9558b2;fill-opacity:0.5;stroke:#9558b2;stroke-linejoin:miter;stroke-width:2;"/>
   </g>
   <g id="patch_42">
    <path clip-path="url(#pb911af4fe4)" d="M 292.982486 102.780004 
C 294.306686 102.780004 295.576829 102.253894 296.51318 101.317543 
C 297.449531 100.381192 297.975642 99.111049 297.975642 97.786848 
C 297.975642 96.462648 297.449531 95.192505 296.51318 94.256154 
C 295.576829 93.319803 294.306686 92.793692 292.982486 92.793692 
C 291.658285 92.793692 290.388143 93.319803 289.451791 94.256154 
C 288.51544 95.192505 287.98933 96.462648 287.98933 97.786848 
C 287.98933 99.111049 288.51544 100.381192 289.451791 101.317543 
C 290.388143 102.253894 291.658285 102.780004 292.982486 102.780004 
z
" style="fill:#009900;fill-opacity:0.5;stroke:#009900;stroke-linejoin:miter;stroke-width:2;"/>
   </g>
   <g id="patch_43">
    <path clip-path="url(#pb911af4fe4)" d="M 253.037239 67.827913 
C 255.68564 67.827913 258.225926 66.775692 260.098628 64.90299 
C 261.97133 63.030288 263.023551 60.490002 263.023551 57.841602 
C 263.023551 55.193201 261.97133 52.652915 260.098628 50.780213 
C 258.225926 48.907511 255.68564 47.85529 253.037239 47.85529 
C 250.388838 47.85529 247.848553 48.907511 245.97585 50.780213 
C 244.103148 52.652915 243.050927 55.193201 243.050927 57.841602 
C 243.050927 60.490002 244.103148 63.030288 245.97585 64.90299 
C 247.848553 66.775692 250.388838 67.827913 253.037239 67.827913 
z
" style="fill:#9558b2;fill-opacity:0.5;stroke:#9558b2;stroke-linejoin:miter;stroke-width:2;"/>
   </g>
   <g id="patch_44">
    <path clip-path="url(#pb911af4fe4)" d="M 292.982486 62.834757 
C 294.306686 62.834757 295.576829 62.308647 296.51318 61.372296 
C 297.449531 60.435945 297.975642 59.165802 297.975642 57.841602 
C 297.975642 56.517401 297.449531 55.247258 296.51318 54.310907 
C 295.576829 53.374556 294.306686 52.848446 292.982486 52.848446 
C 291.658285 52.848446 290.388143 53.374556 289.451791 54.310907 
C 288.51544 55.247258 287.98933 56.517401 287.98933 57.841602 
C 287.98933 59.165802 288.51544 60.435945 289.451791 61.372296 
C 290.388143 62.308647 291.658285 62.834757 292.982486 62.834757 
z
" style="fill:#009900;fill-opacity:0.5;stroke:#009900;stroke-linejoin:miter;stroke-width:2;"/>
   </g>
   <g id="patch_45">
    <path clip-path="url(#pb911af4fe4)" d="M 332.927733 307.499394 
C 335.576133 307.499394 338.116419 306.447173 339.989121 304.574471 
C 341.861823 302.701769 342.914044 300.161483 342.914044 297.513082 
C 342.914044 294.864681 341.861823 292.324396 339.989121 290.451693 
C 338.116419 288.578991 335.576133 287.52677 332.927733 287.52677 
C 330.279332 287.52677 327.739046 288.578991 325.866344 290.451693 
C 323.993642 292.324396 322.941421 294.864681 322.941421 297.513082 
C 322.941421 300.161483 323.993642 302.701769 325.866344 304.574471 
C 327.739046 306.447173 330.279332 307.499394 332.927733 307.499394 
z
" style="fill:#9558b2;fill-opacity:0.5;stroke:#9558b2;stroke-linejoin:miter;stroke-width:2;"/>
   </g>
   <g id="patch_46">
    <path clip-path="url(#pb911af4fe4)" d="M 372.872979 302.506238 
C 374.19718 302.506238 375.467323 301.980127 376.403674 301.043776 
C 377.340025 300.107425 377.866135 298.837282 377.866135 297.513082 
C 377.866135 296.188882 377.340025 294.918739 376.403674 293.982388 
C 375.467323 293.046037 374.19718 292.519926 372.872979 292.519926 
C 371.548779 292.519926 370.278636 293.046037 369.342285 293.982388 
C 368.405934 294.918739 367.879823 296.188882 367.879823 297.513082 
C 367.879823 298.837282 368.405934 300.107425 369.342285 301.043776 
C 370.278636 301.980127 371.548779 302.506238 372.872979 302.506238 
z
" style="fill:#009900;fill-opacity:0.5;stroke:#009900;stroke-linejoin:miter;stroke-width:2;"/>
   </g>
   <g id="patch_47">
    <path clip-path="url(#pb911af4fe4)" d="M 332.927733 267.554147 
C 335.576133 267.554147 338.116419 266.501926 339.989121 264.629224 
C 341.861823 262.756522 342.914044 260.216236 342.914044 257.567835 
C 342.914044 254.919434 341.861823 252.379149 339.989121 250.506447 
C 338.116419 248.633744 335.576133 247.581524 332.927733 247.581524 
C 330.279332 247.581524 327.739046 248.633744 325.866344 250.506447 
C 323.993642 252.379149 322.941421 254.919434 322.941421 257.567835 
C 322.941421 260.216236 323.993642 262.756522 325.866344 264.629224 
C 327.739046 266.501926 330.279332 267.554147 332.927733 267.554147 
z
" style="fill:#9558b2;fill-opacity:0.5;stroke:#9558b2;stroke-linejoin:miter;stroke-width:2;"/>
   </g>
   <g id="patch_48">
    <path clip-path="url(#pb911af4fe4)" d="M 372.872979 262.560991 
C 374.19718 262.560991 375.467323 262.034881 376.403674 261.09853 
C 377.340025 260.162179 377.866135 258.892036 377.866135 257.567835 
C 377.866135 256.243635 377.340025 254.973492 376.403674 254.037141 
C 375.467323 253.10079 374.19718 252.574679 372.872979 252.574679 
C 371.548779 252.574679 370.278636 253.10079 369.342285 254.037141 
C 368.405934 254.973492 367.879823 256.243635 367.879823 257.567835 
C 367.879823 258.892036 368.405934 260.162179 369.342285 261.09853 
C 370.278636 262.034881 371.548779 262.560991 372.872979 262.560991 
z
" style="fill:#009900;fill-opacity:0.5;stroke:#009900;stroke-linejoin:miter;stroke-width:2;"/>
   </g>
   <g id="patch_49">
    <path clip-path="url(#pb911af4fe4)" d="M 332.927733 227.6089 
C 335.576133 227.6089 338.116419 226.556679 339.989121 224.683977 
C 341.861823 222.811275 342.914044 220.270989 342.914044 217.622589 
C 342.914044 214.974188 341.861823 212.433902 339.989121 210.5612 
C 338.116419 208.688498 335.576133 207.636277 332.927733 207.636277 
C 330.279332 207.636277 327.739046 208.688498 325.866344 210.5612 
C 323.993642 212.433902 322.941421 214.974188 322.941421 217.622589 
C 322.941421 220.270989 323.993642 222.811275 325.866344 224.683977 
C 327.739046 226.556679 330.279332 227.6089 332.927733 227.6089 
z
" style="fill:#9558b2;fill-opacity:0.5;stroke:#9558b2;stroke-linejoin:miter;stroke-width:2;"/>
   </g>
   <g id="patch_50">
    <path clip-path="url(#pb911af4fe4)" d="M 372.872979 222.615744 
C 374.19718 222.615744 375.467323 222.089634 376.403674 221.153283 
C 377.340025 220.216932 377.866135 218.946789 377.866135 217.622589 
C 377.866135 216.298388 377.340025 215.028245 376.403674 214.091894 
C 375.467323 213.155543 374.19718 212.629433 372.872979 212.629433 
C 371.548779 212.629433 370.278636 213.155543 369.342285 214.091894 
C 368.405934 215.028245 367.879823 216.298388 367.879823 217.622589 
C 367.879823 218.946789 368.405934 220.216932 369.342285 221.153283 
C 370.278636 222.089634 371.548779 222.615744 372.872979 222.615744 
z
" style="fill:#009900;fill-opacity:0.5;stroke:#009900;stroke-linejoin:miter;stroke-width:2;"/>
   </g>
   <g id="patch_51">
    <path clip-path="url(#pb911af4fe4)" d="M 332.927733 187.663653 
C 335.576133 187.663653 338.116419 186.611433 339.989121 184.738731 
C 341.861823 182.866028 342.914044 180.325743 342.914044 177.677342 
C 342.914044 175.028941 341.861823 172.488655 339.989121 170.615953 
C 338.116419 168.743251 335.576133 167.69103 332.927733 167.69103 
C 330.279332 167.69103 327.739046 168.743251 325.866344 170.615953 
C 323.993642 172.488655 322.941421 175.028941 322.941421 177.677342 
C 322.941421 180.325743 323.993642 182.866028 325.866344 184.738731 
C 327.739046 186.611433 330.279332 187.663653 332.927733 187.663653 
z
" style="fill:#9558b2;fill-opacity:0.5;stroke:#9558b2;stroke-linejoin:miter;stroke-width:2;"/>
   </g>
   <g id="patch_52">
    <path clip-path="url(#pb911af4fe4)" d="M 372.872979 182.670498 
C 374.19718 182.670498 375.467323 182.144387 376.403674 181.208036 
C 377.340025 180.271685 377.866135 179.001542 377.866135 177.677342 
C 377.866135 176.353141 377.340025 175.082999 376.403674 174.146647 
C 375.467323 173.210296 374.19718 172.684186 372.872979 172.684186 
C 371.548779 172.684186 370.278636 173.210296 369.342285 174.146647 
C 368.405934 175.082999 367.879823 176.353141 367.879823 177.677342 
C 367.879823 179.001542 368.405934 180.271685 369.342285 181.208036 
C 370.278636 182.144387 371.548779 182.670498 372.872979 182.670498 
z
" style="fill:#009900;fill-opacity:0.5;stroke:#009900;stroke-linejoin:miter;stroke-width:2;"/>
   </g>
   <g id="patch_53">
    <path clip-path="url(#pb911af4fe4)" d="M 332.927733 147.718407 
C 335.576133 147.718407 338.116419 146.666186 339.989121 144.793484 
C 341.861823 142.920782 342.914044 140.380496 342.914044 137.732095 
C 342.914044 135.083694 341.861823 132.543409 339.989121 130.670706 
C 338.116419 128.798004 335.576133 127.745783 332.927733 127.745783 
C 330.279332 127.745783 327.739046 128.798004 325.866344 130.670706 
C 323.993642 132.543409 322.941421 135.083694 322.941421 137.732095 
C 322.941421 140.380496 323.993642 142.920782 325.866344 144.793484 
C 327.739046 146.666186 330.279332 147.718407 332.927733 147.718407 
z
" style="fill:#9558b2;fill-opacity:0.5;stroke:#9558b2;stroke-linejoin:miter;stroke-width:2;"/>
   </g>
   <g id="patch_54">
    <path clip-path="url(#pb911af4fe4)" d="M 372.872979 142.725251 
C 374.19718 142.725251 375.467323 142.19914 376.403674 141.262789 
C 377.340025 140.326438 377.866135 139.056295 377.866135 137.732095 
C 377.866135 136.407895 377.340025 135.137752 376.403674 134.201401 
C 375.467323 133.26505 374.19718 132.738939 372.872979 132.738939 
C 371.548779 132.738939 370.278636 133.26505 369.342285 134.201401 
C 368.405934 135.137752 367.879823 136.407895 367.879823 137.732095 
C 367.879823 139.056295 368.405934 140.326438 369.342285 141.262789 
C 370.278636 142.19914 371.548779 142.725251 372.872979 142.725251 
z
" style="fill:#009900;fill-opacity:0.5;stroke:#009900;stroke-linejoin:miter;stroke-width:2;"/>
   </g>
   <g id="patch_55">
    <path clip-path="url(#pb911af4fe4)" d="M 332.927733 107.77316 
C 335.576133 107.77316 338.116419 106.720939 339.989121 104.848237 
C 341.861823 102.975535 342.914044 100.435249 342.914044 97.786848 
C 342.914044 95.138447 341.861823 92.598162 339.989121 90.72546 
C 338.116419 88.852757 335.576133 87.800537 332.927733 87.800537 
C 330.279332 87.800537 327.739046 88.852757 325.866344 90.72546 
C 323.993642 92.598162 322.941421 95.138447 322.941421 97.786848 
C 322.941421 100.435249 323.993642 102.975535 325.866344 104.848237 
C 327.739046 106.720939 330.279332 107.77316 332.927733 107.77316 
z
" style="fill:#9558b2;fill-opacity:0.5;stroke:#9558b2;stroke-linejoin:miter;stroke-width:2;"/>
   </g>
   <g id="patch_56">
    <path clip-path="url(#pb911af4fe4)" d="M 372.872979 102.780004 
C 374.19718 102.780004 375.467323 102.253894 376.403674 101.317543 
C 377.340025 100.381192 377.866135 99.111049 377.866135 97.786848 
C 377.866135 96.462648 377.340025 95.192505 376.403674 94.256154 
C 375.467323 93.319803 374.19718 92.793692 372.872979 92.793692 
C 371.548779 92.793692 370.278636 93.319803 369.342285 94.256154 
C 368.405934 95.192505 367.879823 96.462648 367.879823 97.786848 
C 367.879823 99.111049 368.405934 100.381192 369.342285 101.317543 
C 370.278636 102.253894 371.548779 102.780004 372.872979 102.780004 
z
" style="fill:#009900;fill-opacity:0.5;stroke:#009900;stroke-linejoin:miter;stroke-width:2;"/>
   </g>
   <g id="patch_57">
    <path clip-path="url(#pb911af4fe4)" d="M 332.927733 67.827913 
C 335.576133 67.827913 338.116419 66.775692 339.989121 64.90299 
C 341.861823 63.030288 342.914044 60.490002 342.914044 57.841602 
C 342.914044 55.193201 341.861823 52.652915 339.989121 50.780213 
C 338.116419 48.907511 335.576133 47.85529 332.927733 47.85529 
C 330.279332 47.85529 327.739046 48.907511 325.866344 50.780213 
C 323.993642 52.652915 322.941421 55.193201 322.941421 57.841602 
C 322.941421 60.490002 323.993642 63.030288 325.866344 64.90299 
C 327.739046 66.775692 330.279332 67.827913 332.927733 67.827913 
z
" style="fill:#9558b2;fill-opacity:0.5;stroke:#9558b2;stroke-linejoin:miter;stroke-width:2;"/>
   </g>
   <g id="patch_58">
    <path clip-path="url(#pb911af4fe4)" d="M 372.872979 62.834757 
C 374.19718 62.834757 375.467323 62.308647 376.403674 61.372296 
C 377.340025 60.435945 377.866135 59.165802 377.866135 57.841602 
C 377.866135 56.517401 377.340025 55.247258 376.403674 54.310907 
C 375.467323 53.374556 374.19718 52.848446 372.872979 52.848446 
C 371.548779 52.848446 370.278636 53.374556 369.342285 54.310907 
C 368.405934 55.247258 367.879823 56.517401 367.879823 57.841602 
C 367.879823 59.165802 368.405934 60.435945 369.342285 61.372296 
C 370.278636 62.308647 371.548779 62.834757 372.872979 62.834757 
z
" style="fill:#009900;fill-opacity:0.5;stroke:#009900;stroke-linejoin:miter;stroke-width:2;"/>
   </g>
   <g id="matplotlib.axis_1">
    <g id="xtick_1">
     <g id="line2d_1">
      <defs>
       <path d="M 0 0 
L 0 3.5 
" id="m1d6f0e9b50" style="stroke:#000000;stroke-width:0.8;"/>
      </defs>
      <g>
       <use style="stroke:#000000;stroke-width:0.8;" x="73.283629" xlink:href="#m1d6f0e9b50" y="307.584"/>
      </g>
     </g>
     <g id="text_1">
      <!-- −6 -->
      <defs>
       <path d="M 10.59375 35.5 
L 73.1875 35.5 
L 73.1875 27.203125 
L 10.59375 27.203125 
z
" id="DejaVuSans-2212"/>
       <path d="M 33.015625 40.375 
Q 26.375 40.375 22.484375 35.828125 
Q 18.609375 31.296875 18.609375 23.390625 
Q 18.609375 15.53125 22.484375 10.953125 
Q 26.375 6.390625 33.015625 6.390625 
Q 39.65625 6.390625 43.53125 10.953125 
Q 47.40625 15.53125 47.40625 23.390625 
Q 47.40625 31.296875 43.53125 35.828125 
Q 39.65625 40.375 33.015625 40.375 
z
M 52.59375 71.296875 
L 52.59375 62.3125 
Q 48.875 64.0625 45.09375 64.984375 
Q 41.3125 65.921875 37.59375 65.921875 
Q 27.828125 65.921875 22.671875 59.328125 
Q 17.53125 52.734375 16.796875 39.40625 
Q 19.671875 43.65625 24.015625 45.921875 
Q 28.375 48.1875 33.59375 48.1875 
Q 44.578125 48.1875 50.953125 41.515625 
Q 57.328125 34.859375 57.328125 23.390625 
Q 57.328125 12.15625 50.6875 5.359375 
Q 44.046875 -1.421875 33.015625 -1.421875 
Q 20.359375 -1.421875 13.671875 8.265625 
Q 6.984375 17.96875 6.984375 36.375 
Q 6.984375 53.65625 15.1875 63.9375 
Q 23.390625 74.21875 37.203125 74.21875 
Q 40.921875 74.21875 44.703125 73.484375 
Q 48.484375 72.75 52.59375 71.296875 
z
" id="DejaVuSans-36"/>
      </defs>
      <g transform="translate(65.912535 322.182437)scale(0.1 -0.1)">
       <use xlink:href="#DejaVuSans-2212"/>
       <use x="83.789062" xlink:href="#DejaVuSans-36"/>
      </g>
     </g>
    </g>
    <g id="xtick_2">
     <g id="line2d_2">
      <g>
       <use style="stroke:#000000;stroke-width:0.8;" x="113.228875" xlink:href="#m1d6f0e9b50" y="307.584"/>
      </g>
     </g>
     <g id="text_2">
      <!-- −5 -->
      <defs>
       <path d="M 10.796875 72.90625 
L 49.515625 72.90625 
L 49.515625 64.59375 
L 19.828125 64.59375 
L 19.828125 46.734375 
Q 21.96875 47.46875 24.109375 47.828125 
Q 26.265625 48.1875 28.421875 48.1875 
Q 40.625 48.1875 47.75 41.5 
Q 54.890625 34.8125 54.890625 23.390625 
Q 54.890625 11.625 47.5625 5.09375 
Q 40.234375 -1.421875 26.90625 -1.421875 
Q 22.3125 -1.421875 17.546875 -0.640625 
Q 12.796875 0.140625 7.71875 1.703125 
L 7.71875 11.625 
Q 12.109375 9.234375 16.796875 8.0625 
Q 21.484375 6.890625 26.703125 6.890625 
Q 35.15625 6.890625 40.078125 11.328125 
Q 45.015625 15.765625 45.015625 23.390625 
Q 45.015625 31 40.078125 35.4375 
Q 35.15625 39.890625 26.703125 39.890625 
Q 22.75 39.890625 18.8125 39.015625 
Q 14.890625 38.140625 10.796875 36.28125 
z
" id="DejaVuSans-35"/>
      </defs>
      <g transform="translate(105.857782 322.182437)scale(0.1 -0.1)">
       <use xlink:href="#DejaVuSans-2212"/>
       <use x="83.789062" xlink:href="#DejaVuSans-35"/>
      </g>
     </g>
    </g>
    <g id="xtick_3">
     <g id="line2d_3">
      <g>
       <use style="stroke:#000000;stroke-width:0.8;" x="153.174122" xlink:href="#m1d6f0e9b50" y="307.584"/>
      </g>
     </g>
     <g id="text_3">
      <!-- −4 -->
      <defs>
       <path d="M 37.796875 64.3125 
L 12.890625 25.390625 
L 37.796875 25.390625 
z
M 35.203125 72.90625 
L 47.609375 72.90625 
L 47.609375 25.390625 
L 58.015625 25.390625 
L 58.015625 17.1875 
L 47.609375 17.1875 
L 47.609375 0 
L 37.796875 0 
L 37.796875 17.1875 
L 4.890625 17.1875 
L 4.890625 26.703125 
z
" id="DejaVuSans-34"/>
      </defs>
      <g transform="translate(145.803028 322.182437)scale(0.1 -0.1)">
       <use xlink:href="#DejaVuSans-2212"/>
       <use x="83.789062" xlink:href="#DejaVuSans-34"/>
      </g>
     </g>
    </g>
    <g id="xtick_4">
     <g id="line2d_4">
      <g>
       <use style="stroke:#000000;stroke-width:0.8;" x="193.119369" xlink:href="#m1d6f0e9b50" y="307.584"/>
      </g>
     </g>
     <g id="text_4">
      <!-- −3 -->
      <defs>
       <path d="M 40.578125 39.3125 
Q 47.65625 37.796875 51.625 33 
Q 55.609375 28.21875 55.609375 21.1875 
Q 55.609375 10.40625 48.1875 4.484375 
Q 40.765625 -1.421875 27.09375 -1.421875 
Q 22.515625 -1.421875 17.65625 -0.515625 
Q 12.796875 0.390625 7.625 2.203125 
L 7.625 11.71875 
Q 11.71875 9.328125 16.59375 8.109375 
Q 21.484375 6.890625 26.8125 6.890625 
Q 36.078125 6.890625 40.9375 10.546875 
Q 45.796875 14.203125 45.796875 21.1875 
Q 45.796875 27.640625 41.28125 31.265625 
Q 36.765625 34.90625 28.71875 34.90625 
L 20.21875 34.90625 
L 20.21875 43.015625 
L 29.109375 43.015625 
Q 36.375 43.015625 40.234375 45.921875 
Q 44.09375 48.828125 44.09375 54.296875 
Q 44.09375 59.90625 40.109375 62.90625 
Q 36.140625 65.921875 28.71875 65.921875 
Q 24.65625 65.921875 20.015625 65.03125 
Q 15.375 64.15625 9.8125 62.3125 
L 9.8125 71.09375 
Q 15.4375 72.65625 20.34375 73.4375 
Q 25.25 74.21875 29.59375 74.21875 
Q 40.828125 74.21875 47.359375 69.109375 
Q 53.90625 64.015625 53.90625 55.328125 
Q 53.90625 49.265625 50.4375 45.09375 
Q 46.96875 40.921875 40.578125 39.3125 
z
" id="DejaVuSans-33"/>
      </defs>
      <g transform="translate(185.748275 322.182437)scale(0.1 -0.1)">
       <use xlink:href="#DejaVuSans-2212"/>
       <use x="83.789062" xlink:href="#DejaVuSans-33"/>
      </g>
     </g>
    </g>
    <g id="xtick_5">
     <g id="line2d_5">
      <g>
       <use style="stroke:#000000;stroke-width:0.8;" x="233.064616" xlink:href="#m1d6f0e9b50" y="307.584"/>
      </g>
     </g>
     <g id="text_5">
      <!-- −2 -->
      <defs>
       <path d="M 19.1875 8.296875 
L 53.609375 8.296875 
L 53.609375 0 
L 7.328125 0 
L 7.328125 8.296875 
Q 12.9375 14.109375 22.625 23.890625 
Q 32.328125 33.6875 34.8125 36.53125 
Q 39.546875 41.84375 41.421875 45.53125 
Q 43.3125 49.21875 43.3125 52.78125 
Q 43.3125 58.59375 39.234375 62.25 
Q 35.15625 65.921875 28.609375 65.921875 
Q 23.96875 65.921875 18.8125 64.3125 
Q 13.671875 62.703125 7.8125 59.421875 
L 7.8125 69.390625 
Q 13.765625 71.78125 18.9375 73 
Q 24.125 74.21875 28.421875 74.21875 
Q 39.75 74.21875 46.484375 68.546875 
Q 53.21875 62.890625 53.21875 53.421875 
Q 53.21875 48.921875 51.53125 44.890625 
Q 49.859375 40.875 45.40625 35.40625 
Q 44.1875 33.984375 37.640625 27.21875 
Q 31.109375 20.453125 19.1875 8.296875 
z
" id="DejaVuSans-32"/>
      </defs>
      <g transform="translate(225.693522 322.182437)scale(0.1 -0.1)">
       <use xlink:href="#DejaVuSans-2212"/>
       <use x="83.789062" xlink:href="#DejaVuSans-32"/>
      </g>
     </g>
    </g>
    <g id="xtick_6">
     <g id="line2d_6">
      <g>
       <use style="stroke:#000000;stroke-width:0.8;" x="273.009862" xlink:href="#m1d6f0e9b50" y="307.584"/>
      </g>
     </g>
     <g id="text_6">
      <!-- −1 -->
      <defs>
       <path d="M 12.40625 8.296875 
L 28.515625 8.296875 
L 28.515625 63.921875 
L 10.984375 60.40625 
L 10.984375 69.390625 
L 28.421875 72.90625 
L 38.28125 72.90625 
L 38.28125 8.296875 
L 54.390625 8.296875 
L 54.390625 0 
L 12.40625 0 
z
" id="DejaVuSans-31"/>
      </defs>
      <g transform="translate(265.638769 322.182437)scale(0.1 -0.1)">
       <use xlink:href="#DejaVuSans-2212"/>
       <use x="83.789062" xlink:href="#DejaVuSans-31"/>
      </g>
     </g>
    </g>
    <g id="xtick_7">
     <g id="line2d_7">
      <g>
       <use style="stroke:#000000;stroke-width:0.8;" x="312.955109" xlink:href="#m1d6f0e9b50" y="307.584"/>
      </g>
     </g>
     <g id="text_7">
      <!-- 0 -->
      <defs>
       <path d="M 31.78125 66.40625 
Q 24.171875 66.40625 20.328125 58.90625 
Q 16.5 51.421875 16.5 36.375 
Q 16.5 21.390625 20.328125 13.890625 
Q 24.171875 6.390625 31.78125 6.390625 
Q 39.453125 6.390625 43.28125 13.890625 
Q 47.125 21.390625 47.125 36.375 
Q 47.125 51.421875 43.28125 58.90625 
Q 39.453125 66.40625 31.78125 66.40625 
z
M 31.78125 74.21875 
Q 44.046875 74.21875 50.515625 64.515625 
Q 56.984375 54.828125 56.984375 36.375 
Q 56.984375 17.96875 50.515625 8.265625 
Q 44.046875 -1.421875 31.78125 -1.421875 
Q 19.53125 -1.421875 13.0625 8.265625 
Q 6.59375 17.96875 6.59375 36.375 
Q 6.59375 54.828125 13.0625 64.515625 
Q 19.53125 74.21875 31.78125 74.21875 
z
" id="DejaVuSans-30"/>
      </defs>
      <g transform="translate(309.773859 322.182437)scale(0.1 -0.1)">
       <use xlink:href="#DejaVuSans-30"/>
      </g>
     </g>
    </g>
    <g id="xtick_8">
     <g id="line2d_8">
      <g>
       <use style="stroke:#000000;stroke-width:0.8;" x="352.900356" xlink:href="#m1d6f0e9b50" y="307.584"/>
      </g>
     </g>
     <g id="text_8">
      <!-- 1 -->
      <g transform="translate(349.719106 322.182437)scale(0.1 -0.1)">
       <use xlink:href="#DejaVuSans-31"/>
      </g>
     </g>
    </g>
    <g id="xtick_9">
     <g id="line2d_9">
      <g>
       <use style="stroke:#000000;stroke-width:0.8;" x="392.845603" xlink:href="#m1d6f0e9b50" y="307.584"/>
      </g>
     </g>
     <g id="text_9">
      <!-- 2 -->
      <g transform="translate(389.664353 322.182437)scale(0.1 -0.1)">
       <use xlink:href="#DejaVuSans-32"/>
      </g>
     </g>
    </g>
   </g>
   <g id="matplotlib.axis_2">
    <g id="ytick_1">
     <g id="line2d_10">
      <defs>
       <path d="M 0 0 
L -3.5 0 
" id="m350e198679" style="stroke:#000000;stroke-width:0.8;"/>
      </defs>
      <g>
       <use style="stroke:#000000;stroke-width:0.8;" x="63.18401" xlink:href="#m350e198679" y="277.540459"/>
      </g>
     </g>
     <g id="text_10">
      <!-- −2 -->
      <g transform="translate(41.441822 281.339677)scale(0.1 -0.1)">
       <use xlink:href="#DejaVuSans-2212"/>
       <use x="83.789062" xlink:href="#DejaVuSans-32"/>
      </g>
     </g>
    </g>
    <g id="ytick_2">
     <g id="line2d_11">
      <g>
       <use style="stroke:#000000;stroke-width:0.8;" x="63.18401" xlink:href="#m350e198679" y="237.595212"/>
      </g>
     </g>
     <g id="text_11">
      <!-- −1 -->
      <g transform="translate(41.441822 241.394431)scale(0.1 -0.1)">
       <use xlink:href="#DejaVuSans-2212"/>
       <use x="83.789062" xlink:href="#DejaVuSans-31"/>
      </g>
     </g>
    </g>
    <g id="ytick_3">
     <g id="line2d_12">
      <g>
       <use style="stroke:#000000;stroke-width:0.8;" x="63.18401" xlink:href="#m350e198679" y="197.649965"/>
      </g>
     </g>
     <g id="text_12">
      <!-- 0 -->
      <g transform="translate(49.82151 201.449184)scale(0.1 -0.1)">
       <use xlink:href="#DejaVuSans-30"/>
      </g>
     </g>
    </g>
    <g id="ytick_4">
     <g id="line2d_13">
      <g>
       <use style="stroke:#000000;stroke-width:0.8;" x="63.18401" xlink:href="#m350e198679" y="157.704718"/>
      </g>
     </g>
     <g id="text_13">
      <!-- 1 -->
      <g transform="translate(49.82151 161.503937)scale(0.1 -0.1)">
       <use xlink:href="#DejaVuSans-31"/>
      </g>
     </g>
    </g>
    <g id="ytick_5">
     <g id="line2d_14">
      <g>
       <use style="stroke:#000000;stroke-width:0.8;" x="63.18401" xlink:href="#m350e198679" y="117.759472"/>
      </g>
     </g>
     <g id="text_14">
      <!-- 2 -->
      <g transform="translate(49.82151 121.55869)scale(0.1 -0.1)">
       <use xlink:href="#DejaVuSans-32"/>
      </g>
     </g>
    </g>
    <g id="ytick_6">
     <g id="line2d_15">
      <g>
       <use style="stroke:#000000;stroke-width:0.8;" x="63.18401" xlink:href="#m350e198679" y="77.814225"/>
      </g>
     </g>
     <g id="text_15">
      <!-- 3 -->
      <g transform="translate(49.82151 81.613444)scale(0.1 -0.1)">
       <use xlink:href="#DejaVuSans-33"/>
      </g>
     </g>
    </g>
   </g>
   <g id="line2d_16">
    <path clip-path="url(#pb911af4fe4)" d="M 361.809745 160.341499 
L 369.190743 141.104445 
L 261.238329 171.979224 
L 244.67469 143.190501 
L 211.730952 252.763756 
L 180.174969 224.716988 
L 208.158116 218.389708 
L 182.682269 220.589103 
L 254.334409 287.611377 
L 209.41943 181.060224 
L 135.180704 142.316237 
L 103.129257 256.067768 
L 132.080385 182.543008 
L 129.616419 214.14713 
L 103.225048 217.031372 
L 133.69169 142.701131 
L 177.389941 208.582582 
L 245.611567 104.46411 
L 182.460427 61.444623 
L 288.034037 97.12017 
L 262.992388 98.575153 
" style="fill:none;stroke:#1f77b4;stroke-linecap:square;stroke-width:1.5;"/>
   </g>
   <g id="patch_59">
    <path d="M 63.18401 307.584 
L 63.18401 41.472 
" style="fill:none;stroke:#000000;stroke-linecap:square;stroke-linejoin:miter;stroke-width:0.8;"/>
   </g>
   <g id="patch_60">
    <path d="M 409.13599 307.584 
L 409.13599 41.472 
" style="fill:none;stroke:#000000;stroke-linecap:square;stroke-linejoin:miter;stroke-width:0.8;"/>
   </g>
   <g id="patch_61">
    <path d="M 63.18401 307.584 
L 409.13599 307.584 
" style="fill:none;stroke:#000000;stroke-linecap:square;stroke-linejoin:miter;stroke-width:0.8;"/>
   </g>
   <g id="patch_62">
    <path d="M 63.18401 41.472 
L 409.13599 41.472 
" style="fill:none;stroke:#000000;stroke-linecap:square;stroke-linejoin:miter;stroke-width:0.8;"/>
   </g>
  </g>
 </g>
 <defs>
  <clipPath id="pb911af4fe4">
   <rect height="266.112" width="345.95198" x="63.18401" y="41.472"/>
  </clipPath>
 </defs>
</svg>
