<?xml version="1.0" encoding="utf-8" standalone="no"?>
<!DOCTYPE svg PUBLIC "-//W3C//DTD SVG 1.1//EN"
  "http://www.w3.org/Graphics/SVG/1.1/DTD/svg11.dtd">
<!-- Created with matplotlib (http://matplotlib.org/) -->
<svg height="345.6pt" version="1.1" viewBox="0 0 460.8 345.6" width="460.8pt" xmlns="http://www.w3.org/2000/svg" xmlns:xlink="http://www.w3.org/1999/xlink">
 <defs>
  <style type="text/css">
*{stroke-linecap:butt;stroke-linejoin:round;}
  </style>
 </defs>
 <g id="figure_1">
  <g id="patch_1">
   <path d="M 0 345.6 
L 460.8 345.6 
L 460.8 0 
L 0 0 
z
" style="fill:#ffffff;"/>
  </g>
  <g id="axes_1">
   <g id="patch_2">
    <path d="M 57.6 263.808 
L 414.72 263.808 
L 414.72 85.248 
L 57.6 85.248 
z
" style="fill:#ffffff;"/>
   </g>
   <g id="PathCollection_1">
    <defs>
     <path d="M 0 3 
C 0.795609 3 1.55874 2.683901 2.12132 2.12132 
C 2.683901 1.55874 3 0.795609 3 0 
C 3 -0.795609 2.683901 -1.55874 2.12132 -2.12132 
C 1.55874 -2.683901 0.795609 -3 0 -3 
C -0.795609 -3 -1.55874 -2.683901 -2.12132 -2.12132 
C -2.683901 -1.55874 -3 -0.795609 -3 0 
C -3 0.795609 -2.683901 1.55874 -2.12132 2.12132 
C -1.55874 2.683901 -0.795609 3 0 3 
z
" id="mf19dc69a3f" style="stroke:#000000;"/>
    </defs>
    <g clip-path="url(#p0455996458)">
     <use style="stroke:#000000;" x="182.38086" xlink:href="#mf19dc69a3f" y="117.645966"/>
    </g>
   </g>
   <g id="patch_3">
    <path clip-path="url(#p0455996458)" d="M 161.76 211.728 
C 171.625555 211.728 181.088371 207.808373 188.064372 200.832372 
C 195.040373 193.856371 198.96 184.393555 198.96 174.528 
C 198.96 164.662445 195.040373 155.199629 188.064372 148.223628 
C 181.088371 141.247627 171.625555 137.328 161.76 137.328 
C 151.894445 137.328 142.431629 141.247627 135.455628 148.223628 
C 128.479627 155.199629 124.56 164.662445 124.56 174.528 
C 124.56 184.393555 128.479627 193.856371 135.455628 200.832372 
C 142.431629 207.808373 151.894445 211.728 161.76 211.728 
z
" style="fill:#cc0000;fill-opacity:0.1;stroke:#cc0000;stroke-dasharray:7.4,3.2;stroke-dashoffset:0;stroke-linejoin:miter;stroke-width:2;"/>
   </g>
   <g id="patch_4">
    <path clip-path="url(#p0455996458)" d="M 310.56 196.848 
C 316.479333 196.848 322.157023 194.496224 326.342623 190.310623 
C 330.528224 186.125023 332.88 180.447333 332.88 174.528 
C 332.88 168.608667 330.528224 162.930977 326.342623 158.745377 
C 322.157023 154.559776 316.479333 152.208 310.56 152.208 
C 304.640667 152.208 298.962977 154.559776 294.777377 158.745377 
C 290.591776 162.930977 288.24 168.608667 288.24 174.528 
C 288.24 180.447333 290.591776 186.125023 294.777377 190.310623 
C 298.962977 194.496224 304.640667 196.848 310.56 196.848 
z
" style="fill:#cc0000;fill-opacity:0.1;stroke:#cc0000;stroke-dasharray:7.4,3.2;stroke-dashoffset:0;stroke-linejoin:miter;stroke-width:2;"/>
   </g>
   <g id="matplotlib.axis_1">
    <g id="xtick_1">
     <g id="line2d_1">
      <defs>
       <path d="M 0 0 
L 0 3.5 
" id="mc7022aad66" style="stroke:#000000;stroke-width:0.8;"/>
      </defs>
      <g>
       <use style="stroke:#000000;stroke-width:0.8;" x="87.36" xlink:href="#mc7022aad66" y="263.808"/>
      </g>
     </g>
     <g id="text_1">
      <!-- 0.0 -->
      <defs>
       <path d="M 31.78125 66.40625 
Q 24.171875 66.40625 20.328125 58.90625 
Q 16.5 51.421875 16.5 36.375 
Q 16.5 21.390625 20.328125 13.890625 
Q 24.171875 6.390625 31.78125 6.390625 
Q 39.453125 6.390625 43.28125 13.890625 
Q 47.125 21.390625 47.125 36.375 
Q 47.125 51.421875 43.28125 58.90625 
Q 39.453125 66.40625 31.78125 66.40625 
z
M 31.78125 74.21875 
Q 44.046875 74.21875 50.515625 64.515625 
Q 56.984375 54.828125 56.984375 36.375 
Q 56.984375 17.96875 50.515625 8.265625 
Q 44.046875 -1.421875 31.78125 -1.421875 
Q 19.53125 -1.421875 13.0625 8.265625 
Q 6.59375 17.96875 6.59375 36.375 
Q 6.59375 54.828125 13.0625 64.515625 
Q 19.53125 74.21875 31.78125 74.21875 
z
" id="DejaVuSans-30"/>
       <path d="M 10.6875 12.40625 
L 21 12.40625 
L 21 0 
L 10.6875 0 
z
" id="DejaVuSans-2e"/>
      </defs>
      <g transform="translate(79.408438 278.406437)scale(0.1 -0.1)">
       <use xlink:href="#DejaVuSans-30"/>
       <use x="63.623047" xlink:href="#DejaVuSans-2e"/>
       <use x="95.410156" xlink:href="#DejaVuSans-30"/>
      </g>
     </g>
    </g>
    <g id="xtick_2">
     <g id="line2d_2">
      <g>
       <use style="stroke:#000000;stroke-width:0.8;" x="161.76" xlink:href="#mc7022aad66" y="263.808"/>
      </g>
     </g>
     <g id="text_2">
      <!-- 0.5 -->
      <defs>
       <path d="M 10.796875 72.90625 
L 49.515625 72.90625 
L 49.515625 64.59375 
L 19.828125 64.59375 
L 19.828125 46.734375 
Q 21.96875 47.46875 24.109375 47.828125 
Q 26.265625 48.1875 28.421875 48.1875 
Q 40.625 48.1875 47.75 41.5 
Q 54.890625 34.8125 54.890625 23.390625 
Q 54.890625 11.625 47.5625 5.09375 
Q 40.234375 -1.421875 26.90625 -1.421875 
Q 22.3125 -1.421875 17.546875 -0.640625 
Q 12.796875 0.140625 7.71875 1.703125 
L 7.71875 11.625 
Q 12.109375 9.234375 16.796875 8.0625 
Q 21.484375 6.890625 26.703125 6.890625 
Q 35.15625 6.890625 40.078125 11.328125 
Q 45.015625 15.765625 45.015625 23.390625 
Q 45.015625 31 40.078125 35.4375 
Q 35.15625 39.890625 26.703125 39.890625 
Q 22.75 39.890625 18.8125 39.015625 
Q 14.890625 38.140625 10.796875 36.28125 
z
" id="DejaVuSans-35"/>
      </defs>
      <g transform="translate(153.808437 278.406437)scale(0.1 -0.1)">
       <use xlink:href="#DejaVuSans-30"/>
       <use x="63.623047" xlink:href="#DejaVuSans-2e"/>
       <use x="95.410156" xlink:href="#DejaVuSans-35"/>
      </g>
     </g>
    </g>
    <g id="xtick_3">
     <g id="line2d_3">
      <g>
       <use style="stroke:#000000;stroke-width:0.8;" x="236.16" xlink:href="#mc7022aad66" y="263.808"/>
      </g>
     </g>
     <g id="text_3">
      <!-- 1.0 -->
      <defs>
       <path d="M 12.40625 8.296875 
L 28.515625 8.296875 
L 28.515625 63.921875 
L 10.984375 60.40625 
L 10.984375 69.390625 
L 28.421875 72.90625 
L 38.28125 72.90625 
L 38.28125 8.296875 
L 54.390625 8.296875 
L 54.390625 0 
L 12.40625 0 
z
" id="DejaVuSans-31"/>
      </defs>
      <g transform="translate(228.208437 278.406437)scale(0.1 -0.1)">
       <use xlink:href="#DejaVuSans-31"/>
       <use x="63.623047" xlink:href="#DejaVuSans-2e"/>
       <use x="95.410156" xlink:href="#DejaVuSans-30"/>
      </g>
     </g>
    </g>
    <g id="xtick_4">
     <g id="line2d_4">
      <g>
       <use style="stroke:#000000;stroke-width:0.8;" x="310.56" xlink:href="#mc7022aad66" y="263.808"/>
      </g>
     </g>
     <g id="text_4">
      <!-- 1.5 -->
      <g transform="translate(302.608437 278.406437)scale(0.1 -0.1)">
       <use xlink:href="#DejaVuSans-31"/>
       <use x="63.623047" xlink:href="#DejaVuSans-2e"/>
       <use x="95.410156" xlink:href="#DejaVuSans-35"/>
      </g>
     </g>
    </g>
    <g id="xtick_5">
     <g id="line2d_5">
      <g>
       <use style="stroke:#000000;stroke-width:0.8;" x="384.96" xlink:href="#mc7022aad66" y="263.808"/>
      </g>
     </g>
     <g id="text_5">
      <!-- 2.0 -->
      <defs>
       <path d="M 19.1875 8.296875 
L 53.609375 8.296875 
L 53.609375 0 
L 7.328125 0 
L 7.328125 8.296875 
Q 12.9375 14.109375 22.625 23.890625 
Q 32.328125 33.6875 34.8125 36.53125 
Q 39.546875 41.84375 41.421875 45.53125 
Q 43.3125 49.21875 43.3125 52.78125 
Q 43.3125 58.59375 39.234375 62.25 
Q 35.15625 65.921875 28.609375 65.921875 
Q 23.96875 65.921875 18.8125 64.3125 
Q 13.671875 62.703125 7.8125 59.421875 
L 7.8125 69.390625 
Q 13.765625 71.78125 18.9375 73 
Q 24.125 74.21875 28.421875 74.21875 
Q 39.75 74.21875 46.484375 68.546875 
Q 53.21875 62.890625 53.21875 53.421875 
Q 53.21875 48.921875 51.53125 44.890625 
Q 49.859375 40.875 45.40625 35.40625 
Q 44.1875 33.984375 37.640625 27.21875 
Q 31.109375 20.453125 19.1875 8.296875 
z
" id="DejaVuSans-32"/>
      </defs>
      <g transform="translate(377.008437 278.406437)scale(0.1 -0.1)">
       <use xlink:href="#DejaVuSans-32"/>
       <use x="63.623047" xlink:href="#DejaVuSans-2e"/>
       <use x="95.410156" xlink:href="#DejaVuSans-30"/>
      </g>
     </g>
    </g>
   </g>
   <g id="matplotlib.axis_2">
    <g id="ytick_1">
     <g id="line2d_6">
      <defs>
       <path d="M 0 0 
L -3.5 0 
" id="m73779c1be4" style="stroke:#000000;stroke-width:0.8;"/>
      </defs>
      <g>
       <use style="stroke:#000000;stroke-width:0.8;" x="57.6" xlink:href="#m73779c1be4" y="248.928"/>
      </g>
     </g>
     <g id="text_6">
      <!-- 0.0 -->
      <g transform="translate(34.696875 252.727219)scale(0.1 -0.1)">
       <use xlink:href="#DejaVuSans-30"/>
       <use x="63.623047" xlink:href="#DejaVuSans-2e"/>
       <use x="95.410156" xlink:href="#DejaVuSans-30"/>
      </g>
     </g>
    </g>
    <g id="ytick_2">
     <g id="line2d_7">
      <g>
       <use style="stroke:#000000;stroke-width:0.8;" x="57.6" xlink:href="#m73779c1be4" y="219.168"/>
      </g>
     </g>
     <g id="text_7">
      <!-- 0.2 -->
      <g transform="translate(34.696875 222.967219)scale(0.1 -0.1)">
       <use xlink:href="#DejaVuSans-30"/>
       <use x="63.623047" xlink:href="#DejaVuSans-2e"/>
       <use x="95.410156" xlink:href="#DejaVuSans-32"/>
      </g>
     </g>
    </g>
    <g id="ytick_3">
     <g id="line2d_8">
      <g>
       <use style="stroke:#000000;stroke-width:0.8;" x="57.6" xlink:href="#m73779c1be4" y="189.408"/>
      </g>
     </g>
     <g id="text_8">
      <!-- 0.4 -->
      <defs>
       <path d="M 37.796875 64.3125 
L 12.890625 25.390625 
L 37.796875 25.390625 
z
M 35.203125 72.90625 
L 47.609375 72.90625 
L 47.609375 25.390625 
L 58.015625 25.390625 
L 58.015625 17.1875 
L 47.609375 17.1875 
L 47.609375 0 
L 37.796875 0 
L 37.796875 17.1875 
L 4.890625 17.1875 
L 4.890625 26.703125 
z
" id="DejaVuSans-34"/>
      </defs>
      <g transform="translate(34.696875 193.207219)scale(0.1 -0.1)">
       <use xlink:href="#DejaVuSans-30"/>
       <use x="63.623047" xlink:href="#DejaVuSans-2e"/>
       <use x="95.410156" xlink:href="#DejaVuSans-34"/>
      </g>
     </g>
    </g>
    <g id="ytick_4">
     <g id="line2d_9">
      <g>
       <use style="stroke:#000000;stroke-width:0.8;" x="57.6" xlink:href="#m73779c1be4" y="159.648"/>
      </g>
     </g>
     <g id="text_9">
      <!-- 0.6 -->
      <defs>
       <path d="M 33.015625 40.375 
Q 26.375 40.375 22.484375 35.828125 
Q 18.609375 31.296875 18.609375 23.390625 
Q 18.609375 15.53125 22.484375 10.953125 
Q 26.375 6.390625 33.015625 6.390625 
Q 39.65625 6.390625 43.53125 10.953125 
Q 47.40625 15.53125 47.40625 23.390625 
Q 47.40625 31.296875 43.53125 35.828125 
Q 39.65625 40.375 33.015625 40.375 
z
M 52.59375 71.296875 
L 52.59375 62.3125 
Q 48.875 64.0625 45.09375 64.984375 
Q 41.3125 65.921875 37.59375 65.921875 
Q 27.828125 65.921875 22.671875 59.328125 
Q 17.53125 52.734375 16.796875 39.40625 
Q 19.671875 43.65625 24.015625 45.921875 
Q 28.375 48.1875 33.59375 48.1875 
Q 44.578125 48.1875 50.953125 41.515625 
Q 57.328125 34.859375 57.328125 23.390625 
Q 57.328125 12.15625 50.6875 5.359375 
Q 44.046875 -1.421875 33.015625 -1.421875 
Q 20.359375 -1.421875 13.671875 8.265625 
Q 6.984375 17.96875 6.984375 36.375 
Q 6.984375 53.65625 15.1875 63.9375 
Q 23.390625 74.21875 37.203125 74.21875 
Q 40.921875 74.21875 44.703125 73.484375 
Q 48.484375 72.75 52.59375 71.296875 
z
" id="DejaVuSans-36"/>
      </defs>
      <g transform="translate(34.696875 163.447219)scale(0.1 -0.1)">
       <use xlink:href="#DejaVuSans-30"/>
       <use x="63.623047" xlink:href="#DejaVuSans-2e"/>
       <use x="95.410156" xlink:href="#DejaVuSans-36"/>
      </g>
     </g>
    </g>
    <g id="ytick_5">
     <g id="line2d_10">
      <g>
       <use style="stroke:#000000;stroke-width:0.8;" x="57.6" xlink:href="#m73779c1be4" y="129.888"/>
      </g>
     </g>
     <g id="text_10">
      <!-- 0.8 -->
      <defs>
       <path d="M 31.78125 34.625 
Q 24.75 34.625 20.71875 30.859375 
Q 16.703125 27.09375 16.703125 20.515625 
Q 16.703125 13.921875 20.71875 10.15625 
Q 24.75 6.390625 31.78125 6.390625 
Q 38.8125 6.390625 42.859375 10.171875 
Q 46.921875 13.96875 46.921875 20.515625 
Q 46.921875 27.09375 42.890625 30.859375 
Q 38.875 34.625 31.78125 34.625 
z
M 21.921875 38.8125 
Q 15.578125 40.375 12.03125 44.71875 
Q 8.5 49.078125 8.5 55.328125 
Q 8.5 64.0625 14.71875 69.140625 
Q 20.953125 74.21875 31.78125 74.21875 
Q 42.671875 74.21875 48.875 69.140625 
Q 55.078125 64.0625 55.078125 55.328125 
Q 55.078125 49.078125 51.53125 44.71875 
Q 48 40.375 41.703125 38.8125 
Q 48.828125 37.15625 52.796875 32.3125 
Q 56.78125 27.484375 56.78125 20.515625 
Q 56.78125 9.90625 50.3125 4.234375 
Q 43.84375 -1.421875 31.78125 -1.421875 
Q 19.734375 -1.421875 13.25 4.234375 
Q 6.78125 9.90625 6.78125 20.515625 
Q 6.78125 27.484375 10.78125 32.3125 
Q 14.796875 37.15625 21.921875 38.8125 
z
M 18.3125 54.390625 
Q 18.3125 48.734375 21.84375 45.5625 
Q 25.390625 42.390625 31.78125 42.390625 
Q 38.140625 42.390625 41.71875 45.5625 
Q 45.3125 48.734375 45.3125 54.390625 
Q 45.3125 60.0625 41.71875 63.234375 
Q 38.140625 66.40625 31.78125 66.40625 
Q 25.390625 66.40625 21.84375 63.234375 
Q 18.3125 60.0625 18.3125 54.390625 
z
" id="DejaVuSans-38"/>
      </defs>
      <g transform="translate(34.696875 133.687219)scale(0.1 -0.1)">
       <use xlink:href="#DejaVuSans-30"/>
       <use x="63.623047" xlink:href="#DejaVuSans-2e"/>
       <use x="95.410156" xlink:href="#DejaVuSans-38"/>
      </g>
     </g>
    </g>
    <g id="ytick_6">
     <g id="line2d_11">
      <g>
       <use style="stroke:#000000;stroke-width:0.8;" x="57.6" xlink:href="#m73779c1be4" y="100.128"/>
      </g>
     </g>
     <g id="text_11">
      <!-- 1.0 -->
      <g transform="translate(34.696875 103.927219)scale(0.1 -0.1)">
       <use xlink:href="#DejaVuSans-31"/>
       <use x="63.623047" xlink:href="#DejaVuSans-2e"/>
       <use x="95.410156" xlink:href="#DejaVuSans-30"/>
      </g>
     </g>
    </g>
   </g>
   <g id="line2d_12">
    <path clip-path="url(#p0455996458)" d="M 236.16 248.928 
L 236.16 100.128 
" style="fill:none;stroke:#cc0000;stroke-dasharray:7.4,3.2;stroke-dashoffset:0;stroke-width:2;"/>
   </g>
   <g id="line2d_13">
    <path clip-path="url(#p0455996458)" d="M 87.36 248.928 
L 384.96 248.928 
" style="fill:none;stroke:#009900;stroke-linecap:square;stroke-width:2;"/>
   </g>
   <g id="line2d_14">
    <path clip-path="url(#p0455996458)" d="M 384.96 248.928 
L 384.96 100.128 
" style="fill:none;stroke:#009900;stroke-linecap:square;stroke-width:2;"/>
   </g>
   <g id="line2d_15">
    <path clip-path="url(#p0455996458)" d="M 384.96 100.128 
L 87.36 100.128 
" style="fill:none;stroke:#009900;stroke-linecap:square;stroke-width:2;"/>
   </g>
   <g id="line2d_16">
    <path clip-path="url(#p0455996458)" d="M 87.36 100.128 
L 87.36 248.928 
" style="fill:none;stroke:#009900;stroke-linecap:square;stroke-width:2;"/>
   </g>
   <g id="line2d_17">
    <path clip-path="url(#p0455996458)" d="M 182.38086 117.645966 
L 184.40584 123.242486 
L 186.653001 128.753552 
L 189.118749 134.170347 
L 191.799139 139.484206 
L 194.689882 144.686627 
L 197.786354 149.769287 
L 201.083601 154.724057 
L 204.576349 159.543008 
L 208.25901 164.218432 
L 212.125692 168.742849 
L 216.17021 173.109021 
L 220.386093 177.309963 
L 224.766596 181.338954 
L 229.304713 185.189549 
L 233.993182 188.855588 
L 236.16 190.450704 
L 231.40601 194.031369 
L 226.799012 197.799279 
L 222.346374 201.748406 
L 218.055221 205.872431 
L 213.932418 210.164759 
L 209.98456 214.618521 
L 206.217963 219.226593 
L 202.638652 223.981602 
L 199.252354 228.875943 
L 196.064486 233.901784 
L 193.080148 239.051085 
L 190.304115 244.31561 
L 188.087109 248.928 
L 185.493748 243.571129 
L 182.688244 238.322251 
L 179.675085 233.189761 
L 176.459092 228.18187 
L 173.045409 223.306591 
L 169.439497 218.571722 
L 165.647125 213.984839 
L 163.622059 211.681368 
L 162.046504 207.505371 
L 160.724195 203.242413 
L 159.659888 198.907834 
L 158.857416 194.517236 
L 158.319666 190.086418 
L 158.048572 185.631328 
L 158.045112 181.167999 
L 158.309297 176.712494 
L 158.840177 172.280848 
L 159.63584 167.88901 
L 160.693424 163.552787 
L 162.009122 159.287783 
L 163.5782 155.109349 
L 165.395009 151.032521 
L 167.453012 147.071973 
L 169.744802 143.241958 
L 172.262132 139.55626 
L 172.692709 138.97078 
L 172.748075 143.433767 
L 172.535723 147.892043 
L 172.056417 152.329563 
L 171.311881 156.730357 
L 170.304797 161.078587 
L 169.038787 165.358603 
L 167.518409 169.555002 
L 165.749133 173.652682 
L 163.737328 177.636896 
L 161.490234 181.493304 
L 159.015937 185.208028 
L 156.323343 188.767699 
L 153.422143 192.159506 
L 150.322776 195.371242 
L 147.036398 198.391348 
L 143.574836 201.208954 
L 139.950549 203.813922 
L 139.345973 204.217247 
L 140.817447 200.00345 
L 142.538949 195.885472 
L 144.504284 191.878131 
L 146.706379 187.995851 
L 149.137308 184.252604 
L 151.788323 180.66186 
L 154.649883 177.236544 
L 157.711689 173.988981 
L 160.962722 170.930861 
L 164.391283 168.073189 
L 167.985031 165.426249 
L 171.731034 162.999568 
L 175.61581 160.801879 
L 179.625377 158.841091 
L 183.745306 157.124261 
L 187.960769 155.657568 
L 192.256596 154.446291 
L 192.962536 154.273575 
L 190.141004 157.731938 
L 187.117172 161.014888 
L 183.901923 164.110609 
L 180.506827 167.00796 
L 176.944104 169.696514 
L 173.226576 172.166595 
L 169.367621 174.409313 
L 165.381127 176.416598 
L 161.281443 178.181224 
L 157.083321 179.696841 
L 152.801872 180.957994 
L 148.452503 181.960146 
L 144.050867 182.699688 
L 139.612806 183.17396 
L 135.154292 183.381255 
L 130.691371 183.320826 
L 126.240104 182.992891 
L 125.51761 182.914247 
L 129.350222 180.626803 
L 133.313102 178.573295 
L 137.391988 176.761111 
L 141.5722 175.196775 
L 145.838693 173.885916 
L 150.176114 172.833251 
L 154.568851 172.04257 
L 159.001097 171.516718 
L 163.456899 171.257588 
L 167.920221 171.266111 
L 172.375 171.542258 
L 176.805205 172.085035 
L 181.194891 172.892487 
L 185.528259 173.96171 
L 189.789715 175.288855 
L 193.963921 176.869145 
L 198.035856 178.696894 
L 198.688104 179.017449 
L 194.304859 179.859162 
L 189.879028 180.436522 
L 185.426541 180.747454 
L 180.963422 180.790837 
L 176.505732 180.566515 
L 172.069515 180.075296 
L 167.670736 179.318948 
L 163.325226 178.300192 
L 159.048625 177.022695 
L 154.856323 175.491055 
L 150.763408 173.710784 
L 146.78461 171.688288 
L 142.934249 169.430848 
L 139.226181 166.946587 
L 135.673753 164.244445 
L 132.289748 161.334148 
L 129.086345 158.226169 
L 128.582705 157.702214 
L 126.047418 152.317615 
L 123.298833 147.038708 
L 120.341347 141.873938 
L 117.17969 136.831566 
L 113.818922 131.919661 
L 110.264418 127.146079 
L 106.521865 122.518458 
L 102.597249 118.044201 
L 98.496851 113.730465 
L 94.227229 109.584153 
L 89.795214 105.611896 
L 87.36 103.560543 
L 91.376991 100.128 
L 95.910341 103.984205 
L 100.594272 107.65604 
L 105.421291 111.137631 
L 110.383675 114.423407 
L 115.473485 117.508113 
L 120.68258 120.386813 
L 126.002625 123.054902 
L 131.42511 125.508112 
L 136.941359 127.742518 
L 142.542549 129.754546 
L 148.219718 131.540977 
L 153.963784 133.098952 
L 159.765557 134.42598 
L 165.615757 135.519937 
L 171.505024 136.379073 
L 177.423937 137.002015 
L 183.363026 137.387765 
L 189.31279 137.535706 
L 195.263711 137.445601 
L 201.206269 137.117596 
L 207.130956 136.552213 
L 213.028296 135.750359 
L 218.888852 134.713315 
L 224.70325 133.442742 
L 230.462188 131.94067 
L 236.16 130.208347 
L 230.465779 128.477039 
L 224.706879 126.974823 
L 218.892513 125.704103 
L 213.031983 124.666912 
L 207.134664 123.86491 
L 201.20999 123.299379 
L 195.267441 122.971225 
L 189.316522 122.880971 
L 183.366754 123.028763 
L 177.427655 123.414363 
L 171.508727 124.037156 
L 165.619439 124.896145 
L 159.769211 125.989956 
L 153.967404 127.316838 
L 148.223299 128.874669 
L 142.546086 130.660957 
L 136.944846 132.672845 
L 131.42854 134.907112 
L 126.005994 137.360186 
L 120.685882 140.028142 
L 115.476715 142.906712 
L 110.386827 145.99129 
L 105.424361 149.276942 
L 100.597255 152.758411 
L 95.913232 156.430129 
L 91.379785 160.28622 
L 87.36 163.980154 
L 91.748944 167.999949 
L 96.295127 171.841017 
L 100.991274 175.497215 
L 105.829875 178.962691 
L 110.803186 182.231904 
L 115.903254 185.299621 
L 121.121918 188.160937 
L 126.45083 190.811273 
L 128.883627 191.934439 
L 133.346951 191.926823 
L 137.8027 192.18686 
L 142.234838 192.713614 
L 146.627415 193.505188 
L 150.964621 194.558735 
L 155.230848 195.870462 
L 159.410741 197.435649 
L 163.489258 199.248662 
L 167.451721 201.302977 
L 171.283868 203.591201 
L 174.971908 206.105098 
L 177.66466 208.156586 
L 177.858526 203.697468 
L 178.31943 199.257999 
L 179.045713 194.854156 
L 180.034761 190.501788 
L 181.283015 186.21656 
L 182.785982 182.013893 
L 184.538253 177.908913 
L 186.533522 173.916393 
L 188.764609 170.050701 
L 191.223482 166.32575 
L 193.901295 162.754946 
L 196.072242 160.157543 
L 197.508501 154.381841 
L 198.712644 148.553323 
L 199.682746 142.681314 
L 200.417254 136.775209 
L 200.914993 130.844456 
L 201.175168 124.898542 
L 201.197361 118.94698 
L 200.981537 112.999291 
L 200.528042 107.064991 
L 199.837601 101.153572 
L 199.693335 100.128 
L 198.961767 106.03447 
L 198.466979 111.96547 
L 198.209764 117.911513 
L 198.190533 123.863085 
L 198.409317 129.810666 
L 198.865765 135.74474 
L 199.559149 141.655814 
L 200.488357 147.534432 
L 201.651904 153.37119 
L 203.047929 159.156749 
L 204.674197 164.881855 
L 206.528108 170.537347 
L 208.606695 176.114179 
L 210.906634 181.603429 
L 213.424244 186.996315 
L 216.155498 192.28421 
L 219.096027 197.458654 
L 222.241127 202.511369 
L 225.585765 207.434272 
L 229.124592 212.219487 
L 232.851945 216.85936 
L 236.16 220.678985 
L 232.277256 225.189625 
L 228.577996 229.851927 
L 225.068136 234.658429 
L 221.753293 239.601444 
L 218.63877 244.673064 
L 216.234622 248.928 
L 213.288327 243.756837 
L 210.137598 238.70763 
L 206.787475 233.788458 
L 203.243317 229.00719 
L 199.510794 224.371475 
L 195.595878 219.888729 
L 191.504831 215.566124 
L 187.244198 211.410574 
L 182.820796 207.428728 
L 181.335107 206.161134 
L 178.519671 202.697807 
L 175.916976 199.071886 
L 173.53639 195.296423 
L 171.386479 191.385003 
L 169.474981 187.351705 
L 167.808775 183.211044 
L 166.393859 178.977921 
L 165.235323 174.667571 
L 164.337338 170.295507 
L 163.703136 165.877464 
L 163.334998 161.429342 
L 163.23425 156.967148 
L 163.401254 152.506943 
L 163.83541 148.064779 
L 164.535154 143.656641 
L 165.497968 139.298395 
L 165.957948 137.565624 
L 166.026434 142.028429 
L 165.82719 146.48731 
L 165.360932 150.92622 
L 164.629339 155.329184 
L 163.635042 159.680355 
L 162.381621 163.964075 
L 160.873586 168.164926 
L 159.116366 172.26779 
L 157.116283 176.257901 
L 154.880536 180.120899 
L 152.417171 183.842882 
L 149.735054 187.410453 
L 146.843838 190.810775 
L 143.753927 194.031609 
L 140.476443 197.061363 
L 137.023179 199.889135 
L 135.589588 200.965654 
L 138.297426 197.417565 
L 141.213149 194.038234 
L 144.326263 190.839823 
L 147.625565 187.833841 
L 151.099181 185.031108 
L 154.734609 182.441711 
L 158.518766 180.074967 
L 162.438033 177.939396 
L 166.478305 176.042683 
L 170.625041 174.391653 
L 174.863318 172.99225 
L 179.177882 171.849508 
L 183.553205 170.967542 
L 187.973541 170.349524 
L 192.422982 169.99768 
L 196.885514 169.913275 
L 198.677819 169.95475 
L 204.539946 170.982879 
L 210.438498 171.775763 
L 216.364039 172.332134 
L 222.307089 172.651101 
L 228.25814 172.732154 
L 234.207672 172.575164 
L 252.499115 171.535091 
L 259.90376 170.812636 
L 267.288033 169.90531 
L 274.647317 168.81368 
L 281.977013 167.538429 
L 289.961308 165.932867 
L 285.880593 159.712057 
L 281.645649 153.595198 
L 277.259123 147.586113 
L 272.723756 141.688557 
L 268.042383 135.906217 
L 263.217929 130.242705 
L 258.253409 124.701562 
L 253.151927 119.286251 
L 247.916671 114.000156 
L 242.550911 108.84658 
L 236.16 103.032013 
L 235.770735 100.128 
L 235.03997 106.03457 
L 234.54599 111.965637 
L 234.289584 117.911715 
L 234.271164 123.863289 
L 234.490757 129.81084 
L 234.948013 135.744852 
L 235.642201 141.655832 
L 236.16 145.113412 
L 235.327132 151.006451 
L 234.730588 156.928082 
L 234.371324 162.868832 
L 234.249914 168.819197 
L 234.366553 174.769657 
L 234.721052 180.710693 
L 235.312847 186.632801 
L 236.16 192.644309 
L 235.327132 198.537349 
L 234.730588 204.45898 
L 234.371324 210.39973 
L 234.249914 216.350094 
L 234.366553 222.300555 
L 234.721052 228.241591 
L 235.312847 234.163699 
L 236.16 240.175207 
L 235.327132 246.068246 
L 235.009164 248.928 
L 234.290401 243.019958 
L 233.335955 237.145385 
L 232.147351 231.313678 
L 230.726492 225.534167 
L 229.075651 219.816099 
L 227.197469 214.168621 
L 225.09495 208.600767 
L 222.771459 203.121445 
L 220.230711 197.739421 
L 217.476772 192.463305 
L 214.514048 187.301538 
L 211.347277 182.262376 
L 207.981528 177.353883 
L 204.422183 172.58391 
L 200.674937 167.960088 
L 197.546925 164.37241 
L 198.495318 158.496856 
L 199.207994 152.588077 
L 199.683811 146.655524 
L 199.922009 140.70869 
L 199.922207 134.757086 
L 199.684403 128.810236 
L 199.20898 122.877652 
L 198.496696 116.968825 
L 197.548692 111.093209 
L 196.366485 105.260202 
L 195.122988 100.128 
L 193.734552 105.915385 
L 192.578661 111.753664 
L 191.657163 117.633496 
L 190.971533 123.545474 
L 190.522868 129.480142 
L 190.311884 135.428004 
L 190.338921 141.379546 
L 190.603934 147.325246 
L 190.927117 151.438623 
L 196.606098 153.219285 
L 202.351743 154.771424 
L 208.154862 156.092556 
L 214.006171 157.180569 
L 219.896307 158.033722 
L 225.81585 158.65065 
L 231.755327 159.030365 
L 237.647983 159.165164 
L 245.087388 159.0879 
L 252.522537 158.824693 
L 259.948783 158.37571 
L 267.361485 157.741231 
L 274.75601 156.921651 
L 282.127738 155.917483 
L 289.47206 154.729356 
L 296.784387 153.35801 
L 304.060149 151.804304 
L 311.294799 150.069209 
L 318.483816 148.153808 
L 325.622706 146.059299 
L 332.707007 143.786991 
L 339.732294 141.338304 
L 346.694174 138.714768 
L 353.588297 135.918023 
L 360.410355 132.949817 
L 367.156083 129.812005 
L 373.821267 126.506548 
L 380.401739 123.035511 
L 384.96 120.505853 
L 378.441338 116.920081 
L 371.835078 113.49838 
L 365.145348 110.242886 
L 358.37633 107.155636 
L 351.532254 104.238559 
L 344.617397 101.493477 
L 340.977236 100.128 
L 334.027109 102.782514 
L 327.145509 105.609934 
L 320.336738 108.608492 
L 313.60505 111.776315 
L 306.954654 115.111422 
L 300.389704 118.61173 
L 293.914305 122.275051 
L 287.532503 126.099095 
L 281.248285 130.081473 
L 275.065581 134.219695 
L 268.988254 138.511176 
L 263.020101 142.953233 
L 257.164853 147.54309 
L 251.426169 152.277879 
L 245.807636 157.154641 
L 240.312765 162.170327 
L 236.16 166.133033 
L 241.557111 171.253766 
L 247.080541 176.237985 
L 252.726838 181.082575 
L 258.492472 185.784509 
L 264.37384 190.340847 
L 270.367268 194.748743 
L 276.469008 199.005442 
L 282.675248 203.108282 
L 288.982109 207.054701 
L 295.38565 210.842231 
L 301.881867 214.468506 
L 308.466703 217.93126 
L 315.13604 221.228327 
L 321.885712 224.357649 
L 328.711499 227.317268 
L 335.609136 230.105335 
L 342.574312 232.720108 
L 349.602674 235.159953 
L 356.68983 237.423345 
L 363.83135 239.508869 
L 371.022771 241.415222 
L 378.259598 243.141212 
L 384.96 244.570167 
L 377.685358 246.129111 
L 370.45196 247.869416 
L 366.401628 248.928 
L 359.193426 247.086117 
L 351.941433 245.424996 
L 344.650183 243.945675 
L 337.324232 242.649079 
L 329.968159 241.536017 
L 322.586561 240.607186 
L 315.184052 239.863166 
L 307.765256 239.304422 
L 300.334812 238.931303 
L 292.897363 238.744042 
L 285.457557 238.742757 
L 278.020044 238.927448 
L 270.589471 239.297999 
L 263.170483 239.85418 
L 255.767717 240.595642 
L 248.385798 241.521923 
L 241.029341 242.632443 
L 236.16 243.471451 
L 230.628248 245.667196 
L 225.188726 248.082396 
L 223.413188 248.928 
L 218.006061 246.441121 
L 212.503811 244.172459 
L 206.91524 242.125643 
L 201.249289 240.303948 
L 195.515021 238.710287 
L 189.721611 237.347211 
L 183.878326 236.216899 
L 177.994515 235.321161 
L 172.07959 234.661429 
L 166.143015 234.238758 
L 160.194285 234.053826 
L 154.242919 234.106927 
L 148.298437 234.397976 
L 142.370348 234.926509 
L 136.468137 235.691679 
L 130.601246 236.692263 
L 124.77906 237.926659 
L 119.010894 239.392894 
L 113.305976 241.08862 
L 107.673432 243.011127 
L 102.122273 245.157337 
L 96.661381 247.523817 
L 93.67871 248.928 
L 88.271584 246.441121 
L 87.36 246.047364 
L 92.783602 243.596624 
L 98.104861 240.930959 
L 103.315267 238.054631 
L 108.406482 234.972244 
L 113.370362 231.688728 
L 118.198966 228.209337 
L 122.884568 224.539636 
L 127.419674 220.685496 
L 131.797028 216.653083 
L 136.009627 212.448848 
L 140.050732 208.079517 
L 141.886071 205.974255 
L 144.642381 202.463689 
L 147.604238 199.124719 
L 150.760984 195.969363 
L 154.101258 193.008975 
L 157.613037 190.254211 
L 161.283684 187.714985 
L 165.099987 185.400434 
L 169.048213 183.318889 
L 173.114153 181.477842 
L 177.283172 179.883917 
L 181.540267 178.542851 
L 185.870118 177.459471 
L 190.257141 176.637676 
L 194.685548 176.080423 
L 198.938347 175.797066 
L 194.516305 175.191371 
L 190.138541 174.321602 
L 185.820809 173.19089 
L 181.578648 171.803305 
L 177.427327 170.163839 
L 173.381784 168.278394 
L 169.45658 166.153754 
L 165.665842 163.797567 
L 162.023211 161.218312 
L 158.541797 158.425271 
L 155.23413 155.428497 
L 152.112113 152.238774 
L 149.186983 148.867583 
L 146.469267 145.327055 
L 144.076639 141.799744 
L 145.787442 145.922179 
L 147.24797 150.139782 
L 148.452965 154.437375 
L 149.39809 158.799491 
L 150.079946 163.210431 
L 150.496076 167.654321 
L 150.644984 172.115167 
L 150.526134 176.576914 
L 150.139954 181.023507 
L 149.487833 185.438941 
L 148.572119 189.807326 
L 147.396106 194.11294 
L 145.964028 198.340288 
L 144.281038 202.474155 
L 140.760866 210.454616 
L 138.709324 216.041454 
L 136.882836 221.705863 
L 135.284326 227.43878 
L 133.916349 233.231036 
L 132.781096 239.073362 
L 131.880381 244.956413 
L 131.407599 248.928 
L 130.665327 243.022866 
L 129.687506 237.152137 
L 128.475701 231.325208 
L 127.031851 225.551398 
L 125.358264 219.839946 
L 123.457619 214.199988 
L 121.332956 208.640546 
L 118.987675 203.170516 
L 116.425526 197.798647 
L 113.650609 192.533533 
L 110.667364 187.383599 
L 107.480562 182.357081 
L 104.095303 177.462023 
L 100.517001 172.706254 
L 96.751381 168.097383 
L 92.804468 163.642784 
L 88.682576 159.349582 
L 87.36 158.042504 
L 91.53522 153.801146 
L 95.53749 149.396216 
L 99.360409 144.834761 
L 102.997861 140.124079 
L 106.444026 135.271706 
L 109.693392 130.285404 
L 112.740759 125.17315 
L 115.581253 119.943124 
L 118.21033 114.603692 
L 120.623783 109.163396 
L 122.817752 103.630939 
L 124.076739 100.128 
L 126.131635 105.713605 
L 128.408252 111.212568 
L 130.902948 116.616092 
L 133.611731 121.915533 
L 136.530269 127.102413 
L 139.653892 132.168432 
L 142.977604 137.105489 
L 145.76577 140.941923 
L 144.209961 135.197269 
L 142.425673 129.519427 
L 140.415758 123.917479 
L 138.183433 118.400387 
L 135.732268 112.976977 
L 133.066186 107.655926 
L 130.189451 102.445745 
L 128.820438 100.128 
L 125.849923 105.285288 
L 123.08802 110.55724 
L 120.539149 115.935421 
L 118.207386 121.411228 
L 116.096462 126.975901 
L 114.209755 132.620537 
L 112.550282 138.336106 
L 111.120698 144.113465 
L 109.92329 149.94337 
L 108.959974 155.816495 
L 108.232291 161.723445 
L 107.741405 167.65477 
L 107.488101 173.60098 
L 107.472785 179.552564 
L 107.695482 185.499999 
L 108.155834 191.433772 
L 108.853105 197.344389 
L 109.78618 203.222394 
L 110.953567 209.058385 
L 112.353397 214.843025 
L 113.983431 220.567059 
L 115.841062 226.221331 
L 117.923317 231.796795 
L 120.226866 237.28453 
L 122.748023 242.675759 
L 125.482755 247.961856 
L 126.011978 248.928 
L 128.785769 243.662294 
L 131.346769 238.289877 
L 133.690882 232.819345 
L 135.814356 227.25945 
L 137.713795 221.619085 
L 139.38616 215.907275 
L 140.828777 210.133157 
L 141.736428 205.879181 
L 136.997126 209.479265 
L 132.405581 213.26599 
L 127.969136 217.233299 
L 123.694891 221.374846 
L 119.589682 225.684003 
L 115.660077 230.153879 
L 111.912363 234.777321 
L 108.352535 239.546934 
L 104.986288 244.455086 
L 102.160851 248.928 
L 98.971213 243.903282 
L 95.583191 239.010135 
L 92.002205 234.256387 
L 88.233985 229.649642 
L 87.36 228.633056 
L 91.169572 224.060448 
L 94.793241 219.339156 
L 98.225211 214.476732 
L 101.45999 209.480955 
L 104.492404 204.359818 
L 107.317601 199.121513 
L 109.931062 193.77442 
L 112.328606 188.327094 
L 114.506398 182.788248 
L 116.460952 177.166745 
L 118.189143 171.471577 
L 119.688206 165.711856 
L 120.955742 159.896795 
L 121.989724 154.035698 
L 122.788497 148.13794 
L 123.350784 142.212958 
L 123.675685 136.27023 
L 123.762681 130.319262 
L 123.611632 124.369576 
L 123.222779 118.43069 
L 122.596746 112.512103 
L 121.734533 106.623286 
L 120.637519 100.773659 
L 120.501521 100.128 
L 119.37858 105.972706 
L 118.490263 111.857642 
L 117.83799 117.773394 
L 117.422807 123.710498 
L 117.245376 129.659455 
L 117.305983 135.61075 
L 117.604529 141.554861 
L 118.140537 147.482278 
L 118.91315 153.383519 
L 119.921132 159.249144 
L 121.16287 165.069768 
L 122.636377 170.836081 
L 124.339297 176.538856 
L 124.688157 177.613194 
L 123.906517 183.513246 
L 123.361441 189.439837 
L 123.053803 195.383484 
L 122.984092 201.334679 
L 123.152422 207.283901 
L 123.558523 213.221633 
L 124.201744 219.138376 
L 125.081058 225.024664 
L 126.195057 230.871081 
L 127.541959 236.668273 
L 129.11961 242.406966 
L 130.925486 248.077979 
L 131.217881 248.928 
L 133.057982 243.267999 
L 134.670272 237.538941 
L 136.05217 231.749992 
L 137.201467 225.910412 
L 138.116324 220.029543 
L 138.795277 214.116794 
L 139.23724 208.181623 
L 139.398746 204.257015 
L 133.766255 206.179677 
L 128.215156 208.326041 
L 122.754329 210.692673 
L 117.39251 213.275786 
L 112.138276 216.071249 
L 107.000034 219.074589 
L 101.986004 222.281002 
L 97.104207 225.685358 
L 92.362453 229.28221 
L 87.36 233.417314 
L 91.940396 237.217519 
L 96.669095 240.831517 
L 101.538534 244.253526 
L 106.540921 247.478073 
L 108.942611 248.928 
L 114.004901 245.798335 
L 118.937988 242.468737 
L 123.733981 238.94453 
L 128.385207 235.231354 
L 132.884226 231.335149 
L 137.223839 227.262148 
L 141.397104 223.018866 
L 145.397344 218.612092 
L 149.218162 214.048877 
L 152.033504 210.433923 
L 154.115975 206.486185 
L 156.431421 202.670424 
L 158.971509 199.000374 
L 161.727097 195.489241 
L 164.688268 192.149662 
L 167.844365 188.993657 
L 171.184029 186.032583 
L 174.695242 183.277097 
L 178.365367 180.737115 
L 182.181194 178.42178 
L 186.128992 176.339423 
L 190.194553 174.497539 
L 194.363244 172.902757 
L 198.836559 171.499996 
L 194.416515 170.879888 
L 190.04161 169.995852 
L 185.727587 168.851069 
L 181.489973 167.449661 
L 177.344018 165.79667 
L 173.304644 163.898046 
L 169.386387 161.760621 
L 165.60335 159.392088 
L 161.969147 156.800971 
L 158.496858 153.996595 
L 155.198978 150.989053 
L 152.087377 147.789169 
L 149.173253 144.408459 
L 146.336452 140.676055 
L 147.252217 145.04443 
L 147.904389 149.459856 
L 148.290621 153.906444 
L 148.409523 158.36819 
L 148.260666 162.829038 
L 147.844587 167.272932 
L 147.162783 171.68388 
L 146.217708 176.046007 
L 145.012763 180.343614 
L 143.552284 184.561234 
L 141.841529 188.683689 
L 139.886652 192.696142 
L 137.694691 196.584152 
L 135.145657 200.518705 
L 138.944511 198.175625 
L 142.877031 196.064557 
L 146.929062 194.193097 
L 151.086022 192.56798 
L 155.33295 191.195056 
L 159.654562 190.079265 
L 164.035304 189.224624 
L 168.459412 188.634207 
L 172.910962 188.310139 
L 177.373934 188.253588 
L 181.832266 188.464756 
L 186.269913 188.942883 
L 190.670905 189.686249 
L 195.236786 190.749738 
L 191.744154 187.970739 
L 188.424446 184.987308 
L 185.289611 181.810183 
L 182.350929 178.450797 
L 179.618978 174.921242 
L 177.103589 171.234219 
L 174.813816 167.402998 
L 172.757898 163.441367 
L 170.943234 159.363584 
L 169.376357 155.184324 
L 168.062904 150.918628 
L 167.007603 146.581849 
L 166.214251 142.189593 
L 165.666123 137.533646 
L 164.236416 141.761797 
L 162.555746 145.896608 
L 160.630159 149.923199 
L 158.466587 153.827079 
L 156.072817 157.594197 
L 153.457462 161.210996 
L 150.629935 164.66446 
L 147.600413 167.94216 
L 144.379799 171.032299 
L 140.979683 173.923757 
L 137.412302 176.606127 
L 133.690494 179.069756 
L 129.827655 181.305777 
L 125.633584 183.400544 
L 130.096025 183.311473 
L 134.555778 183.490149 
L 138.996791 183.935927 
L 143.403083 184.647204 
L 147.758794 185.62142 
L 152.04825 186.855069 
L 156.256012 188.343711 
L 160.366938 190.081989 
L 164.366232 192.063646 
L 168.239501 194.281551 
L 171.972806 196.727721 
L 175.552711 199.393354 
L 178.966333 202.268855 
L 182.359414 205.503864 
L 180.762124 201.336133 
L 179.417623 197.080121 
L 178.330748 192.751146 
L 177.505412 188.364788 
L 176.944585 183.936832 
L 176.650284 179.483215 
L 176.62357 175.019965 
L 176.864539 170.563144 
L 177.372323 166.128792 
L 178.145094 161.732869 
L 179.180072 157.391194 
L 180.473532 153.119394 
L 182.020819 148.932841 
L 183.91327 144.643679 
L 180.534314 147.559836 
L 176.986573 150.26813 
L 173.282817 152.758814 
L 169.436373 155.022924 
L 165.461087 157.052311 
L 161.371263 158.839673 
L 157.181621 160.378576 
L 152.90724 161.663482 
L 148.563502 162.689767 
L 144.166041 163.453737 
L 139.730682 163.952643 
L 135.273387 164.18469 
L 130.810199 164.149041 
L 126.133417 163.823489 
L 130.022745 166.013111 
L 133.773776 168.432013 
L 137.37301 171.071488 
L 140.807494 173.922039 
L 144.064867 176.973406 
L 147.133407 180.214606 
L 150.002069 183.633977 
L 152.66053 187.219211 
L 155.099223 190.957405 
L 157.30937 194.835107 
L 159.283017 198.83836 
L 161.013062 202.952757 
L 162.493278 207.163491 
L 163.773217 211.673484 
L 164.513935 207.272046 
L 165.517249 202.922945 
L 166.779546 198.641832 
L 168.296285 194.444116 
L 170.062006 190.344903 
L 172.070356 186.358946 
L 174.314105 182.500591 
L 176.785179 178.783722 
L 179.474685 175.221718 
L 182.372943 171.827396 
L 185.469523 168.612974 
L 188.753281 165.59002 
L 192.212398 162.769412 
L 197.071533 158.981943 
L 201.166874 154.663407 
L 205.086244 150.184554 
L 208.823373 145.552552 
L 212.372282 140.774809 
L 215.727293 135.858969 
L 218.883039 130.812897 
L 221.834473 125.644665 
L 224.576871 120.362541 
L 227.105847 114.974975 
L 229.417355 109.490587 
L 231.507696 103.91815 
L 232.786618 100.128 
L 234.726417 105.754612 
L 236.16 109.50093 
L 234.069241 115.07321 
L 232.202987 120.724642 
L 230.564222 126.446183 
L 229.155569 132.22868 
L 227.97928 138.062883 
L 227.037239 143.939459 
L 226.330951 149.849005 
L 225.861547 155.782068 
L 225.629778 161.729157 
L 225.636014 167.680757 
L 225.880246 173.627347 
L 226.362083 179.559413 
L 227.080753 185.467467 
L 228.035108 191.342055 
L 229.223621 197.17378 
L 230.644389 202.953313 
L 232.295141 208.671407 
L 234.173235 214.318915 
L 236.16 219.597209 
L 234.069241 225.16949 
L 232.202987 230.820921 
L 230.564222 236.542462 
L 229.155569 242.324959 
L 227.97928 248.159162 
L 227.84229 248.928 
L 226.696637 243.087704 
L 225.318351 237.297893 
L 223.709637 231.56783 
L 221.873069 225.906682 
L 219.811584 220.323506 
L 217.52848 214.827232 
L 215.02741 209.426655 
L 212.312376 204.130415 
L 209.38772 198.946982 
L 206.258121 193.884652 
L 202.928587 188.951521 
L 199.404443 184.155482 
L 198.10051 182.478302 
L 203.346033 179.666527 
L 208.474918 176.647236 
L 213.478961 173.42526 
L 218.350157 170.005752 
L 223.080712 166.394184 
L 227.66306 162.596333 
L 232.089868 158.618275 
L 236.16 154.662667 
L 231.888118 150.518682 
L 227.453938 146.548843 
L 222.864553 142.759498 
L 218.127306 139.156712 
L 213.249776 135.746246 
L 208.239764 132.533558 
L 203.105287 129.523786 
L 197.854558 126.721746 
L 192.495978 124.131921 
L 187.038118 121.758453 
L 181.489711 119.60514 
L 175.859632 117.675427 
L 170.156889 115.9724 
L 164.390604 114.498785 
L 158.570003 113.256938 
L 152.704397 112.248846 
L 146.80317 111.476122 
L 140.875763 110.940003 
L 134.931658 110.641346 
L 128.980365 110.580628 
L 123.031403 110.757947 
L 117.094292 111.173019 
L 111.178527 111.82518 
L 105.293575 112.713388 
L 99.448848 113.83622 
L 93.653698 115.19188 
L 87.36 116.945599 
L 93.090054 118.554344 
L 98.879858 119.93266 
L 104.720148 121.078343 
L 110.601582 121.989561 
L 116.51475 122.664855 
L 122.450193 123.103146 
L 128.398415 123.303731 
L 134.349901 123.26629 
L 140.295128 122.990884 
L 146.224587 122.477952 
L 152.128791 121.728315 
L 157.998295 120.743173 
L 163.823709 119.524101 
L 169.595713 118.07305 
L 175.305073 116.392341 
L 180.942656 114.484662 
L 186.499443 112.353067 
L 191.966545 110.000964 
L 197.335213 107.432117 
L 202.596862 104.650636 
L 207.743071 101.660969 
L 210.209792 100.128 
L 215.296673 103.217535 
L 220.503032 106.101178 
L 225.820543 108.774316 
L 231.240697 111.232671 
L 236.16 113.243003 
L 230.655519 115.506247 
L 225.245947 117.987801 
L 219.939938 120.683696 
L 214.74598 123.589617 
L 209.672383 126.700918 
L 204.727262 130.012619 
L 199.91853 133.519423 
L 195.253879 137.215721 
L 190.740772 141.095597 
L 186.386429 145.152847 
L 179.147914 152.139983 
L 175.668779 154.93586 
L 172.028251 157.518084 
L 168.239435 159.877361 
L 164.315964 162.0052 
L 160.27196 163.893942 
L 156.121976 165.536792 
L 151.880948 166.927835 
L 147.56414 168.062066 
L 143.187086 168.935403 
L 138.765539 169.544703 
L 134.315413 169.887773 
L 129.852723 169.963378 
L 125.39353 169.771246 
L 124.870572 169.731117 
L 129.237231 170.655025 
L 133.540631 171.839114 
L 137.765285 173.27912 
L 141.895988 174.969863 
L 145.917874 176.905257 
L 149.816469 179.078336 
L 153.577743 181.481281 
L 157.188158 184.105442 
L 160.63472 186.941376 
L 163.905027 189.978877 
L 166.987308 193.207013 
L 169.870471 196.614166 
L 172.54414 200.188074 
L 174.998691 203.915874 
L 177.225291 207.784151 
L 177.471561 208.247236 
L 175.912445 204.065074 
L 174.606914 199.796947 
L 173.559667 195.458216 
L 172.774471 191.064494 
L 172.254154 186.631596 
L 172.000587 182.175474 
L 172.014683 177.712166 
L 172.296392 173.257734 
L 172.8447 168.828211 
L 173.657633 164.439537 
L 174.732265 160.107507 
L 176.06473 155.847712 
L 177.650231 151.675482 
L 179.483063 147.605832 
L 181.55663 143.65341 
L 182.484322 141.868054 
L 185.024778 136.485892 
L 187.347972 131.006444 
L 189.450189 125.438476 
L 191.328064 119.790896 
L 192.978595 114.072738 
L 194.39914 108.293151 
L 195.587427 102.461379 
L 195.995297 100.128 
L 197.0906 105.977948 
L 198.418962 111.779416 
L 199.978259 117.523124 
L 201.765995 123.199882 
L 203.779311 128.800608 
L 206.014986 134.316344 
L 208.469444 139.738264 
L 211.138757 145.057695 
L 214.018655 150.266128 
L 217.104531 155.355228 
L 220.391449 160.316856 
L 223.87415 165.143074 
L 227.547062 169.82616 
L 231.40431 174.358623 
L 235.439723 178.733211 
L 236.16 179.478145 
L 232.094222 183.824526 
L 228.205505 188.330018 
L 224.50007 192.987414 
L 220.983845 197.789262 
L 217.662455 202.72788 
L 214.541215 207.795369 
L 211.625116 212.98362 
L 208.918825 218.284334 
L 206.42667 223.68903 
L 204.15264 229.189063 
L 202.10037 234.775634 
L 200.273146 240.439805 
L 198.67389 246.172515 
L 197.992226 248.928 
L 196.502614 243.165827 
L 194.783768 237.467832 
L 192.838439 231.84313 
L 190.669737 226.300719 
L 188.281133 220.849467 
L 185.676447 215.498094 
L 182.859847 210.255161 
L 177.857083 201.318113 
L 176.004583 197.257379 
L 174.398915 193.092869 
L 173.045856 188.83957 
L 171.950278 184.51279 
L 171.116122 180.1281 
L 170.54639 175.701281 
L 170.243134 171.248265 
L 170.207443 166.785077 
L 170.439448 162.327781 
L 170.938313 157.892417 
L 171.702242 153.494948 
L 172.728486 149.151201 
L 174.013352 144.876807 
L 175.552216 140.687152 
L 175.799627 140.079069 
L 174.632121 142.81628 
L 172.678008 146.829104 
L 170.486787 150.717532 
L 168.066343 154.467568 
L 165.425387 158.065716 
L 162.573424 161.499027 
L 159.520718 164.755145 
L 156.278255 167.822352 
L 152.857706 170.689608 
L 149.271379 173.346594 
L 145.532182 175.783749 
L 141.653571 177.992301 
L 137.649507 179.964302 
L 133.534399 181.692655 
L 129.323057 183.171139 
L 125.835626 184.186125 
L 128.721501 183.460093 
L 133.098968 182.58883 
L 137.520803 181.981625 
L 141.971091 181.640663 
L 146.433816 181.567172 
L 150.892918 181.761417 
L 155.332348 182.222697 
L 159.736129 182.949353 
L 164.088413 183.93877 
L 168.373535 185.187387 
L 172.576074 186.690711 
L 176.680906 188.44333 
L 180.673258 190.438937 
L 184.53876 192.670351 
L 188.263502 195.129541 
L 192.355687 198.206353 
L 197.142958 201.742399 
L 202.067803 205.084177 
L 207.122344 208.226341 
L 212.298495 211.163863 
L 217.587976 213.892045 
L 222.982324 216.406522 
L 228.472908 218.703272 
L 234.050947 220.778619 
L 236.16 221.49796 
L 230.551508 223.489543 
L 225.027145 225.703813 
L 219.595748 228.137227 
L 214.266006 230.785893 
L 209.046445 233.645573 
L 203.945417 236.711692 
L 198.97108 239.979346 
L 194.131394 243.443306 
L 189.434101 247.098031 
L 187.220751 248.928 
L 182.594867 245.183301 
L 177.822934 241.626583 
L 172.912588 238.263536 
L 167.871684 235.099542 
L 162.708286 232.13966 
L 157.430654 229.388627 
L 152.047232 226.850843 
L 146.566631 224.530369 
L 140.997621 222.430916 
L 135.349109 220.555844 
L 129.630132 218.908152 
L 123.84984 217.490476 
L 118.01748 216.305084 
L 112.142382 215.353872 
L 106.233945 214.638363 
L 100.301622 214.1597 
L 94.354902 213.91865 
L 88.403299 213.915598 
L 87.36 213.939592 
L 88.84765 213.971582 
L 94.799217 213.950754 
L 100.74519 213.691944 
L 106.676057 213.195565 
L 112.582331 212.462412 
L 118.454562 211.493657 
L 124.283356 210.290851 
L 130.059388 208.855917 
L 135.773417 207.191152 
L 141.049668 205.429815 
L 141.460156 211.367245 
L 142.107749 217.283511 
L 142.991412 223.169148 
L 144.10973 229.01474 
L 145.460916 234.810935 
L 147.042806 240.548461 
L 148.852871 246.218139 
L 149.807427 248.928 
L 149.807427 248.928 
" style="fill:none;stroke:#1f77b4;stroke-linecap:square;stroke-width:1.5;"/>
   </g>
   <g id="patch_5">
    <path d="M 57.6 263.808 
L 57.6 85.248 
" style="fill:none;stroke:#000000;stroke-linecap:square;stroke-linejoin:miter;stroke-width:0.8;"/>
   </g>
   <g id="patch_6">
    <path d="M 414.72 263.808 
L 414.72 85.248 
" style="fill:none;stroke:#000000;stroke-linecap:square;stroke-linejoin:miter;stroke-width:0.8;"/>
   </g>
   <g id="patch_7">
    <path d="M 57.6 263.808 
L 414.72 263.808 
" style="fill:none;stroke:#000000;stroke-linecap:square;stroke-linejoin:miter;stroke-width:0.8;"/>
   </g>
   <g id="patch_8">
    <path d="M 57.6 85.248 
L 414.72 85.248 
" style="fill:none;stroke:#000000;stroke-linecap:square;stroke-linejoin:miter;stroke-width:0.8;"/>
   </g>
  </g>
 </g>
 <defs>
  <clipPath id="p0455996458">
   <rect height="178.56" width="357.12" x="57.6" y="85.248"/>
  </clipPath>
 </defs>
</svg>
