<?xml version="1.0" encoding="utf-8" standalone="no"?>
<!DOCTYPE svg PUBLIC "-//W3C//DTD SVG 1.1//EN"
  "http://www.w3.org/Graphics/SVG/1.1/DTD/svg11.dtd">
<!-- Created with matplotlib (http://matplotlib.org/) -->
<svg height="345.6pt" version="1.1" viewBox="0 0 460.8 345.6" width="460.8pt" xmlns="http://www.w3.org/2000/svg" xmlns:xlink="http://www.w3.org/1999/xlink">
 <defs>
  <style type="text/css">
*{stroke-linecap:butt;stroke-linejoin:round;}
  </style>
 </defs>
 <g id="figure_1">
  <g id="patch_1">
   <path d="M 0 345.6 
L 460.8 345.6 
L 460.8 0 
L 0 0 
z
" style="fill:#ffffff;"/>
  </g>
  <g id="axes_1">
   <g id="patch_2">
    <path d="M 57.6 263.808 
L 414.72 263.808 
L 414.72 85.248 
L 57.6 85.248 
z
" style="fill:#ffffff;"/>
   </g>
   <g id="PathCollection_1">
    <defs>
     <path d="M 0 3 
C 0.795609 3 1.55874 2.683901 2.12132 2.12132 
C 2.683901 1.55874 3 0.795609 3 0 
C 3 -0.795609 2.683901 -1.55874 2.12132 -2.12132 
C 1.55874 -2.683901 0.795609 -3 0 -3 
C -0.795609 -3 -1.55874 -2.683901 -2.12132 -2.12132 
C -2.683901 -1.55874 -3 -0.795609 -3 0 
C -3 0.795609 -2.683901 1.55874 -2.12132 2.12132 
C -1.55874 2.683901 -0.795609 3 0 3 
z
" id="mbe2a6f1359" style="stroke:#000000;"/>
    </defs>
    <g clip-path="url(#p571d935715)">
     <use style="stroke:#000000;" x="210.539557" xlink:href="#mbe2a6f1359" y="228.006797"/>
    </g>
   </g>
   <g id="patch_3">
    <path clip-path="url(#p571d935715)" d="M 161.76 211.728 
C 171.625555 211.728 181.088371 207.808373 188.064372 200.832372 
C 195.040373 193.856371 198.96 184.393555 198.96 174.528 
C 198.96 164.662445 195.040373 155.199629 188.064372 148.223628 
C 181.088371 141.247627 171.625555 137.328 161.76 137.328 
C 151.894445 137.328 142.431629 141.247627 135.455628 148.223628 
C 128.479627 155.199629 124.56 164.662445 124.56 174.528 
C 124.56 184.393555 128.479627 193.856371 135.455628 200.832372 
C 142.431629 207.808373 151.894445 211.728 161.76 211.728 
z
" style="fill:#cc0000;fill-opacity:0.1;stroke:#cc0000;stroke-dasharray:7.4,3.2;stroke-dashoffset:0;stroke-linejoin:miter;stroke-width:2;"/>
   </g>
   <g id="patch_4">
    <path clip-path="url(#p571d935715)" d="M 310.56 196.848 
C 316.479333 196.848 322.157023 194.496224 326.342623 190.310623 
C 330.528224 186.125023 332.88 180.447333 332.88 174.528 
C 332.88 168.608667 330.528224 162.930977 326.342623 158.745377 
C 322.157023 154.559776 316.479333 152.208 310.56 152.208 
C 304.640667 152.208 298.962977 154.559776 294.777377 158.745377 
C 290.591776 162.930977 288.24 168.608667 288.24 174.528 
C 288.24 180.447333 290.591776 186.125023 294.777377 190.310623 
C 298.962977 194.496224 304.640667 196.848 310.56 196.848 
z
" style="fill:#cc0000;fill-opacity:0.1;stroke:#cc0000;stroke-dasharray:7.4,3.2;stroke-dashoffset:0;stroke-linejoin:miter;stroke-width:2;"/>
   </g>
   <g id="matplotlib.axis_1">
    <g id="xtick_1">
     <g id="line2d_1">
      <defs>
       <path d="M 0 0 
L 0 3.5 
" id="mac949889fb" style="stroke:#000000;stroke-width:0.8;"/>
      </defs>
      <g>
       <use style="stroke:#000000;stroke-width:0.8;" x="87.36" xlink:href="#mac949889fb" y="263.808"/>
      </g>
     </g>
     <g id="text_1">
      <!-- 0.0 -->
      <defs>
       <path d="M 31.78125 66.40625 
Q 24.171875 66.40625 20.328125 58.90625 
Q 16.5 51.421875 16.5 36.375 
Q 16.5 21.390625 20.328125 13.890625 
Q 24.171875 6.390625 31.78125 6.390625 
Q 39.453125 6.390625 43.28125 13.890625 
Q 47.125 21.390625 47.125 36.375 
Q 47.125 51.421875 43.28125 58.90625 
Q 39.453125 66.40625 31.78125 66.40625 
z
M 31.78125 74.21875 
Q 44.046875 74.21875 50.515625 64.515625 
Q 56.984375 54.828125 56.984375 36.375 
Q 56.984375 17.96875 50.515625 8.265625 
Q 44.046875 -1.421875 31.78125 -1.421875 
Q 19.53125 -1.421875 13.0625 8.265625 
Q 6.59375 17.96875 6.59375 36.375 
Q 6.59375 54.828125 13.0625 64.515625 
Q 19.53125 74.21875 31.78125 74.21875 
z
" id="DejaVuSans-30"/>
       <path d="M 10.6875 12.40625 
L 21 12.40625 
L 21 0 
L 10.6875 0 
z
" id="DejaVuSans-2e"/>
      </defs>
      <g transform="translate(79.408438 278.406437)scale(0.1 -0.1)">
       <use xlink:href="#DejaVuSans-30"/>
       <use x="63.623047" xlink:href="#DejaVuSans-2e"/>
       <use x="95.410156" xlink:href="#DejaVuSans-30"/>
      </g>
     </g>
    </g>
    <g id="xtick_2">
     <g id="line2d_2">
      <g>
       <use style="stroke:#000000;stroke-width:0.8;" x="161.76" xlink:href="#mac949889fb" y="263.808"/>
      </g>
     </g>
     <g id="text_2">
      <!-- 0.5 -->
      <defs>
       <path d="M 10.796875 72.90625 
L 49.515625 72.90625 
L 49.515625 64.59375 
L 19.828125 64.59375 
L 19.828125 46.734375 
Q 21.96875 47.46875 24.109375 47.828125 
Q 26.265625 48.1875 28.421875 48.1875 
Q 40.625 48.1875 47.75 41.5 
Q 54.890625 34.8125 54.890625 23.390625 
Q 54.890625 11.625 47.5625 5.09375 
Q 40.234375 -1.421875 26.90625 -1.421875 
Q 22.3125 -1.421875 17.546875 -0.640625 
Q 12.796875 0.140625 7.71875 1.703125 
L 7.71875 11.625 
Q 12.109375 9.234375 16.796875 8.0625 
Q 21.484375 6.890625 26.703125 6.890625 
Q 35.15625 6.890625 40.078125 11.328125 
Q 45.015625 15.765625 45.015625 23.390625 
Q 45.015625 31 40.078125 35.4375 
Q 35.15625 39.890625 26.703125 39.890625 
Q 22.75 39.890625 18.8125 39.015625 
Q 14.890625 38.140625 10.796875 36.28125 
z
" id="DejaVuSans-35"/>
      </defs>
      <g transform="translate(153.808437 278.406437)scale(0.1 -0.1)">
       <use xlink:href="#DejaVuSans-30"/>
       <use x="63.623047" xlink:href="#DejaVuSans-2e"/>
       <use x="95.410156" xlink:href="#DejaVuSans-35"/>
      </g>
     </g>
    </g>
    <g id="xtick_3">
     <g id="line2d_3">
      <g>
       <use style="stroke:#000000;stroke-width:0.8;" x="236.16" xlink:href="#mac949889fb" y="263.808"/>
      </g>
     </g>
     <g id="text_3">
      <!-- 1.0 -->
      <defs>
       <path d="M 12.40625 8.296875 
L 28.515625 8.296875 
L 28.515625 63.921875 
L 10.984375 60.40625 
L 10.984375 69.390625 
L 28.421875 72.90625 
L 38.28125 72.90625 
L 38.28125 8.296875 
L 54.390625 8.296875 
L 54.390625 0 
L 12.40625 0 
z
" id="DejaVuSans-31"/>
      </defs>
      <g transform="translate(228.208437 278.406437)scale(0.1 -0.1)">
       <use xlink:href="#DejaVuSans-31"/>
       <use x="63.623047" xlink:href="#DejaVuSans-2e"/>
       <use x="95.410156" xlink:href="#DejaVuSans-30"/>
      </g>
     </g>
    </g>
    <g id="xtick_4">
     <g id="line2d_4">
      <g>
       <use style="stroke:#000000;stroke-width:0.8;" x="310.56" xlink:href="#mac949889fb" y="263.808"/>
      </g>
     </g>
     <g id="text_4">
      <!-- 1.5 -->
      <g transform="translate(302.608437 278.406437)scale(0.1 -0.1)">
       <use xlink:href="#DejaVuSans-31"/>
       <use x="63.623047" xlink:href="#DejaVuSans-2e"/>
       <use x="95.410156" xlink:href="#DejaVuSans-35"/>
      </g>
     </g>
    </g>
    <g id="xtick_5">
     <g id="line2d_5">
      <g>
       <use style="stroke:#000000;stroke-width:0.8;" x="384.96" xlink:href="#mac949889fb" y="263.808"/>
      </g>
     </g>
     <g id="text_5">
      <!-- 2.0 -->
      <defs>
       <path d="M 19.1875 8.296875 
L 53.609375 8.296875 
L 53.609375 0 
L 7.328125 0 
L 7.328125 8.296875 
Q 12.9375 14.109375 22.625 23.890625 
Q 32.328125 33.6875 34.8125 36.53125 
Q 39.546875 41.84375 41.421875 45.53125 
Q 43.3125 49.21875 43.3125 52.78125 
Q 43.3125 58.59375 39.234375 62.25 
Q 35.15625 65.921875 28.609375 65.921875 
Q 23.96875 65.921875 18.8125 64.3125 
Q 13.671875 62.703125 7.8125 59.421875 
L 7.8125 69.390625 
Q 13.765625 71.78125 18.9375 73 
Q 24.125 74.21875 28.421875 74.21875 
Q 39.75 74.21875 46.484375 68.546875 
Q 53.21875 62.890625 53.21875 53.421875 
Q 53.21875 48.921875 51.53125 44.890625 
Q 49.859375 40.875 45.40625 35.40625 
Q 44.1875 33.984375 37.640625 27.21875 
Q 31.109375 20.453125 19.1875 8.296875 
z
" id="DejaVuSans-32"/>
      </defs>
      <g transform="translate(377.008437 278.406437)scale(0.1 -0.1)">
       <use xlink:href="#DejaVuSans-32"/>
       <use x="63.623047" xlink:href="#DejaVuSans-2e"/>
       <use x="95.410156" xlink:href="#DejaVuSans-30"/>
      </g>
     </g>
    </g>
   </g>
   <g id="matplotlib.axis_2">
    <g id="ytick_1">
     <g id="line2d_6">
      <defs>
       <path d="M 0 0 
L -3.5 0 
" id="m145d8bcab1" style="stroke:#000000;stroke-width:0.8;"/>
      </defs>
      <g>
       <use style="stroke:#000000;stroke-width:0.8;" x="57.6" xlink:href="#m145d8bcab1" y="248.928"/>
      </g>
     </g>
     <g id="text_6">
      <!-- 0.0 -->
      <g transform="translate(34.696875 252.727219)scale(0.1 -0.1)">
       <use xlink:href="#DejaVuSans-30"/>
       <use x="63.623047" xlink:href="#DejaVuSans-2e"/>
       <use x="95.410156" xlink:href="#DejaVuSans-30"/>
      </g>
     </g>
    </g>
    <g id="ytick_2">
     <g id="line2d_7">
      <g>
       <use style="stroke:#000000;stroke-width:0.8;" x="57.6" xlink:href="#m145d8bcab1" y="219.168"/>
      </g>
     </g>
     <g id="text_7">
      <!-- 0.2 -->
      <g transform="translate(34.696875 222.967219)scale(0.1 -0.1)">
       <use xlink:href="#DejaVuSans-30"/>
       <use x="63.623047" xlink:href="#DejaVuSans-2e"/>
       <use x="95.410156" xlink:href="#DejaVuSans-32"/>
      </g>
     </g>
    </g>
    <g id="ytick_3">
     <g id="line2d_8">
      <g>
       <use style="stroke:#000000;stroke-width:0.8;" x="57.6" xlink:href="#m145d8bcab1" y="189.408"/>
      </g>
     </g>
     <g id="text_8">
      <!-- 0.4 -->
      <defs>
       <path d="M 37.796875 64.3125 
L 12.890625 25.390625 
L 37.796875 25.390625 
z
M 35.203125 72.90625 
L 47.609375 72.90625 
L 47.609375 25.390625 
L 58.015625 25.390625 
L 58.015625 17.1875 
L 47.609375 17.1875 
L 47.609375 0 
L 37.796875 0 
L 37.796875 17.1875 
L 4.890625 17.1875 
L 4.890625 26.703125 
z
" id="DejaVuSans-34"/>
      </defs>
      <g transform="translate(34.696875 193.207219)scale(0.1 -0.1)">
       <use xlink:href="#DejaVuSans-30"/>
       <use x="63.623047" xlink:href="#DejaVuSans-2e"/>
       <use x="95.410156" xlink:href="#DejaVuSans-34"/>
      </g>
     </g>
    </g>
    <g id="ytick_4">
     <g id="line2d_9">
      <g>
       <use style="stroke:#000000;stroke-width:0.8;" x="57.6" xlink:href="#m145d8bcab1" y="159.648"/>
      </g>
     </g>
     <g id="text_9">
      <!-- 0.6 -->
      <defs>
       <path d="M 33.015625 40.375 
Q 26.375 40.375 22.484375 35.828125 
Q 18.609375 31.296875 18.609375 23.390625 
Q 18.609375 15.53125 22.484375 10.953125 
Q 26.375 6.390625 33.015625 6.390625 
Q 39.65625 6.390625 43.53125 10.953125 
Q 47.40625 15.53125 47.40625 23.390625 
Q 47.40625 31.296875 43.53125 35.828125 
Q 39.65625 40.375 33.015625 40.375 
z
M 52.59375 71.296875 
L 52.59375 62.3125 
Q 48.875 64.0625 45.09375 64.984375 
Q 41.3125 65.921875 37.59375 65.921875 
Q 27.828125 65.921875 22.671875 59.328125 
Q 17.53125 52.734375 16.796875 39.40625 
Q 19.671875 43.65625 24.015625 45.921875 
Q 28.375 48.1875 33.59375 48.1875 
Q 44.578125 48.1875 50.953125 41.515625 
Q 57.328125 34.859375 57.328125 23.390625 
Q 57.328125 12.15625 50.6875 5.359375 
Q 44.046875 -1.421875 33.015625 -1.421875 
Q 20.359375 -1.421875 13.671875 8.265625 
Q 6.984375 17.96875 6.984375 36.375 
Q 6.984375 53.65625 15.1875 63.9375 
Q 23.390625 74.21875 37.203125 74.21875 
Q 40.921875 74.21875 44.703125 73.484375 
Q 48.484375 72.75 52.59375 71.296875 
z
" id="DejaVuSans-36"/>
      </defs>
      <g transform="translate(34.696875 163.447219)scale(0.1 -0.1)">
       <use xlink:href="#DejaVuSans-30"/>
       <use x="63.623047" xlink:href="#DejaVuSans-2e"/>
       <use x="95.410156" xlink:href="#DejaVuSans-36"/>
      </g>
     </g>
    </g>
    <g id="ytick_5">
     <g id="line2d_10">
      <g>
       <use style="stroke:#000000;stroke-width:0.8;" x="57.6" xlink:href="#m145d8bcab1" y="129.888"/>
      </g>
     </g>
     <g id="text_10">
      <!-- 0.8 -->
      <defs>
       <path d="M 31.78125 34.625 
Q 24.75 34.625 20.71875 30.859375 
Q 16.703125 27.09375 16.703125 20.515625 
Q 16.703125 13.921875 20.71875 10.15625 
Q 24.75 6.390625 31.78125 6.390625 
Q 38.8125 6.390625 42.859375 10.171875 
Q 46.921875 13.96875 46.921875 20.515625 
Q 46.921875 27.09375 42.890625 30.859375 
Q 38.875 34.625 31.78125 34.625 
z
M 21.921875 38.8125 
Q 15.578125 40.375 12.03125 44.71875 
Q 8.5 49.078125 8.5 55.328125 
Q 8.5 64.0625 14.71875 69.140625 
Q 20.953125 74.21875 31.78125 74.21875 
Q 42.671875 74.21875 48.875 69.140625 
Q 55.078125 64.0625 55.078125 55.328125 
Q 55.078125 49.078125 51.53125 44.71875 
Q 48 40.375 41.703125 38.8125 
Q 48.828125 37.15625 52.796875 32.3125 
Q 56.78125 27.484375 56.78125 20.515625 
Q 56.78125 9.90625 50.3125 4.234375 
Q 43.84375 -1.421875 31.78125 -1.421875 
Q 19.734375 -1.421875 13.25 4.234375 
Q 6.78125 9.90625 6.78125 20.515625 
Q 6.78125 27.484375 10.78125 32.3125 
Q 14.796875 37.15625 21.921875 38.8125 
z
M 18.3125 54.390625 
Q 18.3125 48.734375 21.84375 45.5625 
Q 25.390625 42.390625 31.78125 42.390625 
Q 38.140625 42.390625 41.71875 45.5625 
Q 45.3125 48.734375 45.3125 54.390625 
Q 45.3125 60.0625 41.71875 63.234375 
Q 38.140625 66.40625 31.78125 66.40625 
Q 25.390625 66.40625 21.84375 63.234375 
Q 18.3125 60.0625 18.3125 54.390625 
z
" id="DejaVuSans-38"/>
      </defs>
      <g transform="translate(34.696875 133.687219)scale(0.1 -0.1)">
       <use xlink:href="#DejaVuSans-30"/>
       <use x="63.623047" xlink:href="#DejaVuSans-2e"/>
       <use x="95.410156" xlink:href="#DejaVuSans-38"/>
      </g>
     </g>
    </g>
    <g id="ytick_6">
     <g id="line2d_11">
      <g>
       <use style="stroke:#000000;stroke-width:0.8;" x="57.6" xlink:href="#m145d8bcab1" y="100.128"/>
      </g>
     </g>
     <g id="text_11">
      <!-- 1.0 -->
      <g transform="translate(34.696875 103.927219)scale(0.1 -0.1)">
       <use xlink:href="#DejaVuSans-31"/>
       <use x="63.623047" xlink:href="#DejaVuSans-2e"/>
       <use x="95.410156" xlink:href="#DejaVuSans-30"/>
      </g>
     </g>
    </g>
   </g>
   <g id="line2d_12">
    <path clip-path="url(#p571d935715)" d="M 236.16 248.928 
L 236.16 100.128 
" style="fill:none;stroke:#cc0000;stroke-dasharray:7.4,3.2;stroke-dashoffset:0;stroke-width:2;"/>
   </g>
   <g id="line2d_13">
    <path clip-path="url(#p571d935715)" d="M 87.36 248.928 
L 384.96 248.928 
" style="fill:none;stroke:#009900;stroke-linecap:square;stroke-width:2;"/>
   </g>
   <g id="line2d_14">
    <path clip-path="url(#p571d935715)" d="M 384.96 248.928 
L 384.96 100.128 
" style="fill:none;stroke:#009900;stroke-linecap:square;stroke-width:2;"/>
   </g>
   <g id="line2d_15">
    <path clip-path="url(#p571d935715)" d="M 384.96 100.128 
L 87.36 100.128 
" style="fill:none;stroke:#009900;stroke-linecap:square;stroke-width:2;"/>
   </g>
   <g id="line2d_16">
    <path clip-path="url(#p571d935715)" d="M 87.36 100.128 
L 87.36 248.928 
" style="fill:none;stroke:#009900;stroke-linecap:square;stroke-width:2;"/>
   </g>
   <g id="line2d_17">
    <path clip-path="url(#p571d935715)" d="M 210.539557 228.006797 
L 206.988091 232.78264 
L 203.630449 237.696683 
L 200.472002 242.741065 
L 197.517802 247.907716 
L 196.966345 248.928 
L 194.052505 243.73848 
L 190.933471 238.669634 
L 187.614231 233.72957 
L 184.100097 228.926192 
L 180.396689 224.267184 
L 176.509934 219.759999 
L 172.446048 215.411849 
L 168.153331 211.174491 
L 165.582207 216.54207 
L 163.227786 222.008173 
L 161.093834 227.564055 
L 159.183765 233.200829 
L 157.500634 238.909476 
L 156.047135 244.680864 
L 155.132491 248.928 
L 153.8481 243.116639 
L 152.332344 237.361288 
L 150.587648 231.671154 
L 148.616803 226.055342 
L 146.422962 220.522834 
L 144.009634 215.082482 
L 141.380681 209.742989 
L 138.540308 204.512897 
L 137.516829 202.743397 
L 131.946954 200.646239 
L 126.29767 198.773493 
L 120.578015 197.128157 
L 114.79714 195.712862 
L 108.964292 194.529872 
L 103.088802 193.581081 
L 97.180071 192.868005 
L 91.247551 192.391786 
L 87.36 192.208846 
L 88.846865 192.150911 
L 94.786305 191.770593 
L 100.705785 191.153066 
L 106.595835 190.299317 
L 112.447033 189.210711 
L 118.250018 187.88899 
L 123.995507 186.33627 
L 130.562537 184.456612 
L 134.926122 183.518293 
L 139.338121 182.843319 
L 143.782654 182.434122 
L 148.243727 182.292172 
L 152.705284 182.417982 
L 157.151268 182.811099 
L 161.565679 183.470107 
L 165.93263 184.392635 
L 170.236405 185.575363 
L 174.461513 187.014034 
L 178.592751 188.703471 
L 182.615249 190.637593 
L 186.514531 192.80944 
L 190.276563 195.211195 
L 191.891737 196.343555 
L 190.697002 195.456606 
L 187.222533 192.65493 
L 183.922317 189.649953 
L 180.808229 186.452488 
L 177.891478 183.074045 
L 175.182561 179.52678 
L 172.691226 175.823462 
L 170.42644 171.977416 
L 168.396354 168.002486 
L 166.608274 163.912977 
L 165.068634 159.723606 
L 163.782977 155.449451 
L 162.755929 151.105893 
L 161.991185 146.708566 
L 161.4915 142.273295 
L 161.25867 137.816041 
L 161.249495 137.331503 
L 161.225012 140.307204 
L 160.96527 144.76297 
L 160.438809 149.195143 
L 159.647525 153.587772 
L 158.594265 157.925048 
L 157.282821 162.191361 
L 155.71791 166.371358 
L 153.905167 170.449995 
L 151.851114 174.412594 
L 149.563144 178.244892 
L 147.049491 181.933098 
L 144.319201 185.463939 
L 141.382101 188.824708 
L 138.248762 192.003308 
L 134.930459 194.988301 
L 132.238316 197.16227 
L 133.4299 196.271092 
L 137.108212 193.742983 
L 140.931502 191.43999 
L 144.886008 189.370401 
L 148.957499 187.541663 
L 153.131322 185.96036 
L 157.392455 184.632181 
L 161.725564 183.561907 
L 166.115054 182.75339 
L 170.545126 182.209538 
L 174.999839 181.93231 
L 179.463159 181.922704 
L 183.919024 182.180753 
L 188.351396 182.70553 
L 192.744326 183.495145 
L 197.082001 184.546756 
L 197.548926 184.676537 
L 194.704511 183.802064 
L 190.50913 182.278878 
L 186.412635 180.506862 
L 182.429768 178.492392 
L 178.574864 176.242718 
L 174.861796 173.765937 
L 171.303927 171.070962 
L 167.914062 168.167493 
L 164.7044 165.065978 
L 161.686494 161.777581 
L 158.871203 158.314135 
L 156.268661 154.688105 
L 153.888233 150.912541 
L 151.738486 147.001032 
L 149.827158 142.967653 
L 148.513906 139.766225 
L 149.027086 141.162906 
L 150.397654 145.410595 
L 151.511048 149.732825 
L 152.36326 154.114041 
L 152.951223 158.538475 
L 153.272821 162.990204 
L 153.326897 167.453207 
L 153.113256 171.911421 
L 152.632667 176.348803 
L 151.88686 180.749381 
L 150.878519 185.097319 
L 149.611272 189.376969 
L 148.08968 193.572929 
L 146.319221 197.670098 
L 144.306264 201.65373 
L 142.058055 205.509488 
L 141.800161 205.919795 
L 143.451576 203.44427 
L 146.110968 199.859727 
L 148.980519 196.441102 
L 152.0499 193.200698 
L 155.308066 190.150178 
L 158.74329 187.300519 
L 162.343209 184.661978 
L 166.094868 182.244051 
L 169.984765 180.055439 
L 173.9989 178.10402 
L 178.122827 176.396815 
L 182.341703 174.93997 
L 186.640347 173.738727 
L 191.003286 172.797409 
L 195.41482 172.119404 
L 198.858108 171.77657 
L 197.372999 171.868883 
L 192.910757 171.967423 
L 188.450635 171.798212 
L 184.008686 171.361859 
L 179.600895 170.659933 
L 175.243126 169.694962 
L 170.951062 168.470418 
L 166.740151 166.990708 
L 162.625546 165.261158 
L 158.622055 163.287992 
L 154.744088 161.078311 
L 151.005601 158.640068 
L 147.420047 155.982038 
L 144.000332 153.113787 
L 140.758762 150.045637 
L 137.707004 146.78863 
L 137.387589 146.424165 
L 139.287436 148.714574 
L 141.961713 152.288026 
L 144.4169 156.015408 
L 146.64416 159.883306 
L 148.635477 163.877799 
L 150.383685 167.984511 
L 151.882493 172.188663 
L 153.126505 176.475125 
L 154.111246 180.828469 
L 154.833171 185.233028 
L 155.289681 189.672951 
L 155.479135 194.132259 
L 155.400849 198.594903 
L 155.055107 203.044822 
L 154.443152 207.466002 
L 153.786931 210.863522 
L 154.123195 209.414041 
L 155.304915 205.109989 
L 156.742596 200.884544 
L 158.431065 196.752911 
L 160.364245 192.72996 
L 162.535178 188.830169 
L 164.936052 185.067574 
L 167.558226 181.455715 
L 170.392263 178.007592 
L 173.427964 174.735614 
L 176.654402 171.651557 
L 180.059968 168.766519 
L 183.632403 166.090884 
L 187.358852 163.634281 
L 191.225903 161.405552 
L 195.219639 159.412717 
L 195.660231 159.210875 
L 192.922152 160.376345 
L 188.733142 161.916965 
L 184.459288 163.203624 
L 180.115972 164.23169 
L 175.718824 164.997463 
L 171.283669 165.498188 
L 166.826471 165.732062 
L 162.363268 165.698244 
L 157.910125 165.396855 
L 153.483068 164.82898 
L 149.098029 163.996663 
L 144.77079 162.902899 
L 140.516924 161.551625 
L 136.35174 159.947703 
L 132.290229 158.096907 
L 129.222282 156.496447 
L 130.515056 157.2332 
L 134.301386 159.596466 
L 137.939191 162.182524 
L 141.415379 164.982065 
L 144.717441 167.985014 
L 147.833492 171.180565 
L 150.752318 174.557217 
L 153.463413 178.102817 
L 155.957022 181.804605 
L 158.22417 185.649258 
L 160.256697 189.62294 
L 162.047289 193.711351 
L 163.589501 197.899775 
L 164.877784 202.17314 
L 165.9075 206.516066 
L 166.674944 210.912922 
L 166.742352 211.392836 
L 166.408615 208.435808 
L 166.130344 203.981161 
L 166.119692 199.517843 
L 166.376697 195.061918 
L 166.900435 190.629423 
L 167.689021 186.236309 
L 168.739617 181.898387 
L 170.048441 177.631269 
L 171.610783 173.450311 
L 173.421021 169.370562 
L 175.47264 165.406702 
L 177.758256 161.572999 
L 180.269643 157.88325 
L 182.997763 154.350732 
L 185.932798 150.988161 
L 188.343806 148.506062 
L 187.268108 149.53414 
L 183.920706 152.486463 
L 180.402293 155.232751 
L 176.725534 157.763118 
L 172.90366 160.068459 
L 168.950426 162.140477 
L 164.880059 163.971715 
L 160.707208 165.555581 
L 156.446891 166.886377 
L 152.11444 167.959313 
L 147.725448 168.770526 
L 143.29571 169.317099 
L 138.841169 169.597062 
L 134.377856 169.60941 
L 129.921833 169.354098 
L 125.489139 168.832044 
L 125.009992 168.759388 
L 127.938959 169.285262 
L 132.287134 170.292585 
L 136.56708 171.558829 
L 140.763396 173.079438 
L 144.86098 174.848938 
L 148.845083 176.860961 
L 152.701368 179.108267 
L 156.415957 181.582767 
L 159.97548 184.275555 
L 163.367128 187.176942 
L 166.578694 190.276484 
L 169.59862 193.563028 
L 172.416037 197.024744 
L 175.020806 200.649174 
L 177.403552 204.423275 
L 179.092466 207.443432 
L 178.414963 206.118645 
L 176.543261 202.066725 
L 174.917897 197.909862 
L 173.54472 193.663016 
L 172.428672 189.34147 
L 171.57377 184.960779 
L 170.983089 180.536706 
L 170.658757 176.085176 
L 170.601939 171.622207 
L 170.812842 167.163862 
L 171.290705 162.726186 
L 172.033809 158.325151 
L 173.03948 153.976594 
L 174.304098 149.696166 
L 175.823112 145.499273 
L 177.591055 141.401018 
L 177.797707 140.962661 
L 176.456149 143.618903 
L 174.247377 147.497387 
L 171.81001 151.236446 
L 169.152819 154.822622 
L 166.285369 158.243009 
L 163.217979 161.485298 
L 159.961687 164.537819 
L 156.528214 167.389587 
L 152.929916 170.030338 
L 149.179743 172.450569 
L 145.291191 174.64157 
L 141.278255 176.595455 
L 137.155378 178.305192 
L 132.937397 179.764628 
L 128.639492 180.968512 
L 125.26247 181.723159 
L 126.725682 181.452825 
L 131.14365 180.818095 
L 135.591728 180.449426 
L 140.053909 180.348145 
L 144.514134 180.514617 
L 148.956351 180.948242 
L 153.364572 181.64746 
L 157.722932 182.609754 
L 162.015747 183.831662 
L 166.227567 185.308785 
L 170.343234 187.035807 
L 174.347935 189.006514 
L 178.227259 191.213813 
L 181.967243 193.649759 
L 185.554429 196.305586 
L 188.975905 199.171737 
L 189.336853 199.495122 
L 187.175222 197.449946 
L 184.090408 194.224229 
L 181.204573 190.81934 
L 178.528101 187.247531 
L 176.070626 183.521658 
L 173.840991 179.655129 
L 171.84722 175.66186 
L 170.09649 171.556222 
L 168.5951 167.352991 
L 167.348455 163.067295 
L 166.361041 158.714557 
L 165.636411 154.310441 
L 165.177173 149.8708 
L 164.984981 145.411609 
L 165.060525 140.948918 
L 165.303182 137.497123 
L 165.143765 138.976534 
L 164.488503 143.391503 
L 163.56968 147.759235 
L 162.390605 152.064011 
L 160.955519 156.290339 
L 159.269588 160.423008 
L 157.33888 164.447146 
L 155.170342 168.348269 
L 152.77178 172.112338 
L 150.151825 175.725807 
L 147.319906 179.17567 
L 144.286216 182.449512 
L 141.061672 185.535551 
L 137.657879 188.42268 
L 134.087088 191.100508 
L 130.362148 193.559399 
L 126.176293 196.198612 
L 121.2605 199.553691 
L 116.482806 203.102666 
L 111.850855 206.839859 
L 107.372056 210.75929 
L 103.053576 214.854691 
L 98.902322 219.119509 
L 94.924937 223.546922 
L 91.127781 228.129846 
L 87.36 233.07573 
L 90.962386 237.813281 
L 94.751343 242.402986 
L 98.720807 246.837502 
L 100.706957 248.928 
L 104.761608 244.571237 
L 108.638792 240.055816 
L 112.332306 235.388961 
L 115.836241 230.578137 
L 119.144991 225.631042 
L 122.253264 220.55559 
L 125.156087 215.359899 
L 127.848815 210.052282 
L 130.327142 204.641231 
L 132.587101 199.135401 
L 132.982988 198.10179 
L 127.131769 199.190284 
L 121.328759 200.511894 
L 115.583241 202.064504 
L 109.904406 203.845633 
L 104.30134 205.852429 
L 98.783006 208.081684 
L 93.358233 210.529829 
L 88.035699 213.192949 
L 87.36 213.550322 
L 92.668784 216.240749 
L 98.080909 218.71673 
L 103.587718 220.974302 
L 109.180402 223.009855 
L 114.850012 224.820132 
L 120.587478 226.402237 
L 126.383623 227.753639 
L 132.229173 228.872176 
L 138.114777 229.756059 
L 144.031019 230.403873 
L 149.968434 230.814583 
L 155.917524 230.98753 
L 161.868771 230.92244 
L 167.812655 230.619415 
L 173.739667 230.07894 
L 179.640324 229.30188 
L 185.505188 228.289479 
L 191.324875 227.043356 
L 197.090075 225.565503 
L 202.791565 223.858287 
L 208.420225 221.924437 
L 213.967048 219.767048 
L 219.423162 217.389571 
L 224.779839 214.795809 
L 230.028507 211.989911 
L 235.160771 208.976368 
L 236.16 208.356996 
L 231.051705 205.302999 
L 225.825368 202.455722 
L 220.489352 199.81972 
L 215.052191 197.39921 
L 209.522585 195.198065 
L 203.90938 193.219805 
L 198.221556 191.467597 
L 195.280973 190.658232 
L 191.141717 188.988539 
L 187.11003 187.073643 
L 183.200424 184.920437 
L 179.426967 182.536671 
L 175.803241 179.930922 
L 172.342287 177.112569 
L 169.05656 174.091755 
L 165.957886 170.879351 
L 163.057416 167.486919 
L 160.36559 163.926668 
L 157.892094 160.21141 
L 155.645831 156.354518 
L 153.634885 152.36987 
L 151.866493 148.271809 
L 150.347019 144.075082 
L 149.024664 139.575873 
L 150.822155 143.661254 
L 152.371435 147.84707 
L 153.666929 152.118254 
L 154.703975 156.459435 
L 155.47884 160.85499 
L 155.988735 165.289099 
L 156.231826 169.745805 
L 156.207238 174.209068 
L 155.915059 178.662824 
L 155.35634 183.091047 
L 154.533093 187.477797 
L 153.44828 191.807289 
L 152.105806 196.063941 
L 150.510501 200.232432 
L 148.668108 204.297762 
L 146.473403 208.442008 
L 143.144248 213.375395 
L 140.015038 218.437966 
L 137.09078 223.621623 
L 134.376153 228.918073 
L 131.875498 234.318842 
L 129.592817 239.815291 
L 127.531761 245.398626 
L 126.357743 248.928 
L 124.436885 243.294894 
L 122.2923 237.743107 
L 119.927418 232.281522 
L 117.346022 226.918875 
L 114.552243 221.663747 
L 111.550549 216.524543 
L 108.345742 211.509486 
L 104.942951 206.626598 
L 101.347618 201.883692 
L 97.565495 197.288354 
L 93.602633 192.847937 
L 89.465372 188.569544 
L 87.36 186.518655 
L 91.580959 182.322814 
L 95.630753 177.961535 
L 99.502903 173.441797 
L 103.191215 168.770829 
L 106.689787 163.956104 
L 109.993023 159.005325 
L 113.095638 153.926412 
L 115.99267 148.72749 
L 118.679482 143.416877 
L 121.151778 138.003067 
L 123.405601 132.494722 
L 125.437347 126.900655 
L 127.243764 121.229814 
L 128.821963 115.491271 
L 130.169419 109.694208 
L 131.283977 103.847898 
L 131.868003 100.128 
L 132.834272 106.00064 
L 134.034611 111.829943 
L 135.467099 117.606582 
L 137.129446 123.321316 
L 139.018991 128.965002 
L 141.132712 134.528613 
L 143.467228 140.003247 
L 144.247722 141.707882 
L 141.063008 136.680042 
L 137.679781 131.783579 
L 134.103453 127.026325 
L 130.339747 122.415892 
L 126.394684 117.959654 
L 122.274574 113.664741 
L 117.986008 109.538025 
L 113.535849 105.586106 
L 108.931215 101.815307 
L 106.743097 100.128 
L 102.069238 103.812647 
L 97.546465 107.681252 
L 93.182012 111.727624 
L 88.982862 115.945292 
L 87.36 117.669105 
L 91.491514 121.953048 
L 95.791035 126.068348 
L 100.251686 130.008422 
L 104.866329 133.766965 
L 109.627583 137.337966 
L 114.52783 140.71571 
L 119.559231 143.894796 
L 124.713737 146.870136 
L 129.983102 149.63697 
L 132.900285 151.05553 
L 136.60342 153.547138 
L 140.150484 156.256318 
L 143.528712 159.173318 
L 146.725946 162.287642 
L 149.73068 165.588081 
L 152.532099 169.062756 
L 155.120122 172.699163 
L 157.485434 176.484215 
L 159.619522 180.40429 
L 161.514708 184.445279 
L 163.164169 188.592639 
L 164.561969 192.831444 
L 165.703079 197.14644 
L 166.58339 201.522096 
L 167.199736 205.942666 
L 167.549898 210.39224 
L 167.587293 211.268749 
L 166.492351 206.941808 
L 165.658841 202.556996 
L 165.089762 198.130093 
L 164.787161 193.677032 
L 164.752128 189.213839 
L 164.984789 184.756577 
L 165.484307 180.321286 
L 166.248884 175.92393 
L 167.275767 171.580334 
L 168.561263 167.30613 
L 170.100744 163.116701 
L 171.888669 159.027124 
L 173.918605 155.052117 
L 176.183245 151.205986 
L 178.674439 147.502573 
L 181.383223 143.955206 
L 181.940338 143.277497 
L 179.868048 147.230588 
L 177.562444 151.052304 
L 175.031823 154.728888 
L 172.285293 158.247111 
L 169.332739 161.59431 
L 166.184786 164.758439 
L 162.852764 167.728111 
L 159.348664 170.492637 
L 155.685098 173.042068 
L 151.87525 175.36723 
L 147.932832 177.459754 
L 143.872032 179.31211 
L 139.707465 180.91763 
L 135.454118 182.270538 
L 131.127299 183.365963 
L 126.742579 184.199963 
L 125.875396 184.332857 
L 130.05688 182.771924 
L 134.324439 181.464538 
L 138.662715 180.415405 
L 143.056095 179.6283 
L 147.488767 179.106056 
L 151.944778 178.850553 
L 156.408092 178.86271 
L 160.862645 179.142483 
L 165.292406 179.688865 
L 169.681433 180.499891 
L 174.01393 181.57264 
L 178.274304 182.903254 
L 182.447223 184.486941 
L 186.517668 186.318004 
L 190.470991 188.389853 
L 194.292964 190.69503 
L 195.027461 191.174802 
L 199.636236 194.940539 
L 204.391913 198.518963 
L 209.286885 201.904347 
L 214.313321 205.091277 
L 219.46318 208.074654 
L 224.728222 210.849706 
L 230.100025 213.411991 
L 235.569996 215.757413 
L 236.16 215.995076 
L 230.680053 218.317094 
L 225.297346 220.856394 
L 220.02049 223.608913 
L 214.857925 226.570249 
L 209.817912 229.735664 
L 204.908513 233.100093 
L 200.137583 236.658155 
L 195.512753 240.404157 
L 191.041423 244.332106 
L 186.730745 248.435719 
L 186.236236 248.928 
L 181.944848 244.804218 
L 177.491987 240.855344 
L 172.884774 237.087696 
L 168.130581 233.507302 
L 163.237013 230.119888 
L 158.211899 226.930874 
L 153.063278 223.945362 
L 147.799386 221.168128 
L 142.428646 218.603615 
L 136.959648 216.255925 
L 131.401142 214.128816 
L 125.762021 212.225688 
L 120.051306 210.549588 
L 114.278133 209.103196 
L 108.451737 207.888826 
L 102.58144 206.908421 
L 96.676633 206.16355 
L 90.746762 205.655404 
L 87.36 205.472047 
L 93.299912 205.099188 
L 99.220163 204.489095 
L 105.111281 203.642743 
L 110.963841 202.561486 
L 116.768481 201.247054 
L 122.515915 199.70155 
L 128.196948 197.927445 
L 131.853687 196.651572 
L 135.847467 194.658825 
L 139.953553 192.909146 
L 144.157168 191.408834 
L 148.443184 190.163287 
L 152.796175 189.176988 
L 157.200476 188.453486 
L 161.640235 187.995386 
L 166.099475 187.804337 
L 170.562146 187.881024 
L 175.012189 188.225174 
L 179.433587 188.835546 
L 183.810429 189.709945 
L 188.126963 190.845224 
L 192.367653 192.237296 
L 194.110788 192.892817 
L 190.669637 190.050319 
L 187.405126 187.00659 
L 184.329003 183.772585 
L 181.452339 180.359943 
L 178.785488 176.780946 
L 176.338046 173.048474 
L 174.118823 169.175959 
L 172.135804 165.17734 
L 170.396127 161.067007 
L 168.906053 156.859751 
L 167.670944 152.570716 
L 166.695245 148.215337 
L 165.982467 143.809288 
L 165.535177 139.368426 
L 165.42747 137.509226 
L 164.224715 141.807446 
L 162.766384 146.025809 
L 161.057729 150.149135 
L 159.104896 154.162583 
L 156.914916 158.051709 
L 154.495668 161.802517 
L 151.85586 165.401508 
L 149.004993 168.835729 
L 145.953326 172.092821 
L 142.711842 175.161061 
L 139.292207 178.029408 
L 135.706728 180.687539 
L 131.968309 183.125887 
L 128.090404 185.335676 
L 126.434626 186.188102 
L 121.615127 189.680093 
L 116.939124 193.36202 
L 112.4141 197.227991 
L 108.047292 201.271823 
L 103.845688 205.487046 
L 99.816009 209.866916 
L 95.964701 214.404427 
L 92.297926 219.09232 
L 88.821549 223.923095 
L 87.36 226.082441 
L 90.751195 230.973389 
L 94.335263 235.724814 
L 98.10647 240.329114 
L 102.058784 244.778922 
L 106.046705 248.928 
L 110.168128 244.634347 
L 114.114553 240.179315 
L 117.879668 235.570032 
L 121.457449 230.813872 
L 124.842173 225.918443 
L 128.028424 220.891576 
L 131.011106 215.741315 
L 133.785446 210.475898 
L 136.347006 205.103749 
L 137.424754 202.664023 
L 139.908159 198.955382 
L 142.609481 195.40233 
L 145.518997 192.017654 
L 148.626236 188.813534 
L 151.920016 185.801503 
L 155.388482 182.992399 
L 159.019152 180.396334 
L 162.798959 178.02265 
L 166.7143 175.879889 
L 170.751084 173.975764 
L 174.894784 172.317127 
L 179.130485 170.909948 
L 183.442944 169.75929 
L 187.816641 168.869295 
L 192.235836 168.243166 
L 196.684624 167.883157 
L 198.3497 167.817272 
L 194.091601 169.155148 
L 189.76094 170.235283 
L 185.373302 171.053791 
L 180.944479 171.607726 
L 176.490409 171.895095 
L 172.027123 171.914862 
L 167.570682 171.666957 
L 163.137126 171.152272 
L 158.742411 170.37266 
L 154.402352 169.330925 
L 150.13257 168.030818 
L 145.948431 166.477018 
L 141.864993 164.675115 
L 137.896952 162.631596 
L 134.058589 160.353814 
L 130.363718 157.849967 
L 129.023916 156.859136 
L 133.182143 158.481004 
L 137.235635 160.349299 
L 141.169802 162.457295 
L 144.970486 164.797406 
L 148.624008 167.361211 
L 152.11722 170.139482 
L 155.43755 173.12222 
L 158.573048 176.298692 
L 161.51243 179.657465 
L 164.245117 183.18645 
L 166.761274 186.872949 
L 169.051847 190.703692 
L 171.108591 194.664894 
L 172.924104 198.742299 
L 174.491853 202.921232 
L 175.806196 207.186654 
L 176.230897 208.798004 
L 174.003138 204.930393 
L 172.011305 200.936158 
L 170.262566 196.829671 
L 168.763216 192.625712 
L 167.51865 188.339412 
L 166.533347 183.986195 
L 165.810854 179.581729 
L 165.35377 175.141865 
L 165.163741 170.682581 
L 165.24145 166.219927 
L 165.586618 161.769964 
L 166.198003 157.348705 
L 167.073403 152.972063 
L 168.20967 148.65579 
L 169.602712 144.415418 
L 171.247518 140.26621 
L 171.924887 138.743715 
L 175.100651 133.710217 
L 178.07259 128.553749 
L 180.835947 123.282559 
L 183.386302 117.905081 
L 185.719576 112.429918 
L 187.832035 106.865828 
L 189.7203 101.221713 
L 190.057431 100.128 
L 191.902229 105.786472 
L 193.97183 111.366645 
L 196.262923 116.859593 
L 198.771842 122.256527 
L 201.494575 127.548815 
L 204.426764 132.727989 
L 207.56372 137.785764 
L 210.900424 142.714049 
L 214.431537 147.504959 
L 218.151412 152.15083 
L 222.054096 156.644229 
L 226.133346 160.977968 
L 230.382637 165.145115 
L 234.79517 169.139001 
L 236.16 170.311147 
L 231.699502 174.251392 
L 227.400139 178.366859 
L 223.268791 182.650962 
L 219.312065 187.096848 
L 215.536292 191.697404 
L 211.947513 196.445272 
L 208.551468 201.332854 
L 205.353591 206.352333 
L 202.358998 211.495677 
L 199.572479 216.754659 
L 196.998492 222.120866 
L 194.641155 227.585712 
L 192.504239 233.140455 
L 190.591163 238.776209 
L 188.904987 244.483957 
L 187.761576 248.928 
L 186.2522 243.170973 
L 184.513812 237.478909 
L 182.549192 231.860916 
L 180.361484 226.32598 
L 177.954188 220.882956 
L 175.331154 215.540553 
L 171.846476 208.794655 
L 170.299145 204.608119 
L 169.005641 200.336332 
L 167.970617 195.994668 
L 167.197799 191.598752 
L 166.689969 187.164406 
L 166.448954 182.707588 
L 166.475621 178.244337 
L 166.769874 173.790717 
L 167.330655 169.362755 
L 168.155946 164.976388 
L 169.242775 160.647402 
L 170.587232 156.391377 
L 172.184478 152.223628 
L 174.028764 148.159157 
L 176.113454 144.212591 
L 178.00468 141.06234 
L 176.397103 145.226115 
L 174.542743 149.286 
L 172.448272 153.227384 
L 170.12123 157.036083 
L 167.569989 160.69839 
L 164.803733 164.201124 
L 161.832417 167.53168 
L 158.666734 170.67807 
L 155.318078 173.628971 
L 151.798499 176.373764 
L 148.120665 178.902569 
L 144.297812 181.206286 
L 140.343698 183.276624 
L 136.272554 185.106132 
L 132.09903 186.688226 
L 127.838148 188.017211 
L 127.164309 188.201995 
L 131.163961 186.221061 
L 135.275201 184.483526 
L 139.483232 182.995645 
L 143.77291 181.762771 
L 148.128798 180.789342 
L 152.535217 180.078861 
L 156.976311 179.633885 
L 161.436096 179.456016 
L 165.898522 179.545893 
L 170.347528 179.903194 
L 174.767103 180.526631 
L 179.141341 181.413963 
L 183.4545 182.561994 
L 187.691058 183.966594 
L 191.835766 185.622707 
L 195.873709 187.524374 
L 196.495125 187.843821 
L 192.208861 186.599128 
L 188.004947 185.099654 
L 183.898512 183.350794 
L 179.904335 181.358843 
L 176.036791 179.13097 
L 172.309798 176.675192 
L 168.73677 174.000348 
L 165.330566 171.116064 
L 162.103445 168.03272 
L 159.067021 164.761414 
L 156.232221 161.313918 
L 153.609247 157.70264 
L 151.207541 153.940576 
L 149.035744 150.041266 
L 147.101674 146.018743 
L 145.412291 141.887484 
L 145.170418 141.231968 
L 147.486954 145.047066 
L 149.570553 148.994209 
L 151.413717 153.059189 
L 153.009811 157.227379 
L 154.353091 161.483776 
L 155.438724 165.813062 
L 156.262802 170.199657 
L 156.822359 174.627773 
L 157.115382 179.081475 
L 157.140815 183.544733 
L 156.898568 188.001484 
L 156.389513 192.43569 
L 155.61548 196.831392 
L 154.579257 201.172769 
L 153.284571 205.444199 
L 151.736084 209.630307 
L 151.471088 210.276822 
L 152.343731 205.89963 
L 153.477279 201.582641 
L 154.86765 197.341393 
L 156.509841 193.191149 
L 158.397943 189.146846 
L 160.52516 185.223038 
L 162.883836 181.433848 
L 165.465483 177.792911 
L 168.26081 174.313333 
L 171.259756 171.007634 
L 174.451528 167.887713 
L 177.82464 164.964798 
L 181.366952 162.249407 
L 185.065715 159.751314 
L 188.907618 157.479509 
L 192.878835 155.442168 
L 193.511202 155.144987 
L 189.908749 157.780068 
L 186.154768 160.194389 
L 182.26277 162.379262 
L 178.246761 164.326823 
L 174.121196 166.030064 
L 169.900922 167.482855 
L 165.601126 168.679967 
L 161.237284 169.617092 
L 156.825101 170.290857 
L 152.380456 170.698837 
L 147.919345 170.839565 
L 143.457822 170.712533 
L 139.011946 170.318199 
L 134.597715 169.657982 
L 130.231017 168.734258 
L 125.927567 167.550351 
L 125.260713 167.341758 
L 129.696603 167.835927 
L 134.094878 168.5952 
L 138.439709 169.616845 
L 142.71546 170.897185 
L 146.906743 172.431612 
L 150.998473 174.214605 
L 154.975925 176.239745 
L 158.824785 178.499746 
L 162.531199 180.986472 
L 166.08183 183.690975 
L 169.463899 186.603522 
L 172.665234 189.71363 
L 175.674314 193.010107 
L 178.480309 196.481088 
L 181.073121 200.114082 
L 183.443419 203.896013 
L 183.793719 204.500575 
L 180.859497 201.137293 
L 178.132232 197.604116 
L 175.621737 193.913759 
L 173.337049 190.079503 
L 171.286389 186.115148 
L 169.477138 182.03496 
L 167.915807 177.853625 
L 166.608015 173.586191 
L 165.558469 169.248015 
L 164.770946 164.85471 
L 164.24828 160.422088 
L 163.992352 155.966101 
L 164.004084 151.502786 
L 164.283433 147.048206 
L 164.829394 142.618393 
L 165.640002 138.229289 
L 165.790657 137.547008 
L 165.678602 142.008931 
L 165.299193 146.456106 
L 164.653797 150.872528 
L 163.744736 155.242302 
L 162.575282 159.549702 
L 161.149643 163.779226 
L 159.47295 167.915652 
L 157.551238 171.944094 
L 155.391422 175.850052 
L 153.001275 179.619471 
L 150.389401 183.238785 
L 147.565197 186.694967 
L 144.53883 189.975579 
L 141.321189 193.068815 
L 137.923856 195.963542 
L 134.359056 198.649342 
L 133.786752 199.050182 
L 136.886097 195.838425 
L 140.172454 192.818297 
L 143.633997 190.000667 
L 147.258267 187.395675 
L 151.032221 185.012696 
L 154.942277 182.860306 
L 158.974363 180.946253 
L 163.113968 179.277424 
L 167.346193 177.859824 
L 171.655808 176.698558 
L 176.027302 175.797802 
L 180.444942 175.1608 
L 184.89283 174.789843 
L 189.354959 174.686267 
L 193.815269 174.850445 
L 198.257708 175.281785 
L 198.950393 175.373393 
L 194.49529 175.644276 
L 190.031961 175.647526 
L 185.576468 175.383131 
L 181.144847 174.852043 
L 176.753047 174.056173 
L 172.416873 172.998385 
L 168.151932 171.682486 
L 163.973571 170.113212 
L 159.896829 168.29621 
L 155.936378 166.23802 
L 152.106471 163.94605 
L 148.420891 161.428547 
L 144.892903 158.694572 
L 141.535203 155.753965 
L 138.359876 152.617308 
L 135.37835 149.29589 
L 134.929921 148.760057 
L 138.395564 151.572643 
L 141.686316 154.587982 
L 144.790335 157.795222 
L 147.696449 161.182819 
L 150.3942 164.738583 
L 152.873879 168.449717 
L 155.126561 172.302864 
L 157.14414 176.284157 
L 158.919353 180.379268 
L 160.445813 184.573459 
L 161.718026 188.851636 
L 162.731413 193.198401 
L 163.482326 197.59811 
L 163.968064 202.034931 
L 164.186879 206.492895 
L 164.137983 210.955957 
L 164.106097 211.653946 
L 163.454269 207.238468 
L 163.068384 202.79185 
L 162.949831 198.330095 
L 163.099036 193.869259 
L 163.515462 189.425397 
L 164.19761 185.014502 
L 165.143026 180.652449 
L 166.348307 176.354936 
L 167.809115 172.13743 
L 169.520192 168.015109 
L 171.475382 164.002809 
L 173.667647 160.11497 
L 176.089098 156.365584 
L 178.731019 152.768144 
L 181.583903 149.335599 
L 184.637483 146.0803 
L 185.132898 145.587585 
L 182.627781 149.281594 
L 179.905664 152.81874 
L 176.976344 156.186291 
L 173.850363 159.372129 
L 170.538972 162.364787 
L 167.054087 165.153497 
L 163.408251 167.72822 
L 159.614585 170.079691 
L 155.686742 172.199448 
L 151.638858 174.079861 
L 147.485501 175.714163 
L 143.241619 177.096472 
L 138.922484 178.221813 
L 134.543641 179.086137 
L 130.12085 179.686333 
L 125.670027 180.02024 
L 124.971875 180.048311 
L 119.030267 179.703513 
L 113.079625 179.596593 
L 107.129466 179.72772 
L 101.189311 180.096686 
L 95.268662 180.702899 
L 89.37699 181.54539 
L 87.36 181.889356 
L 93.23953 182.81278 
L 99.151283 183.500347 
L 105.085804 183.950957 
L 111.033597 184.163889 
L 116.985147 184.138803 
L 122.930933 183.875738 
L 125.701238 183.671616 
L 120.300898 186.173196 
L 115.004914 188.888731 
L 109.821758 191.813877 
L 104.759723 194.943954 
L 99.826907 198.273954 
L 95.031201 201.798551 
L 90.380277 205.512106 
L 87.36 208.093183 
L 91.910124 211.929581 
L 96.610023 215.580954 
L 101.452179 219.041461 
L 106.428846 222.305565 
L 111.53206 225.368044 
L 116.75366 228.224 
L 122.08529 230.868863 
L 127.518422 233.298402 
L 133.044363 235.50873 
L 138.654274 237.496312 
L 144.33918 239.257967 
L 150.089985 240.790877 
L 155.897491 242.09259 
L 161.752406 243.161024 
L 167.645364 243.994469 
L 173.566937 244.591592 
L 179.507651 244.951438 
L 185.458004 245.07343 
L 191.408476 244.957374 
L 197.349547 244.603456 
L 203.271712 244.012241 
L 209.165499 243.184676 
L 215.021477 242.122084 
L 220.830278 240.826165 
L 226.58261 239.298993 
L 232.269271 237.54301 
L 236.16 236.195816 
L 230.524101 234.283169 
L 224.816224 232.597427 
L 219.045502 231.141287 
L 213.221165 229.91708 
L 207.352532 228.926763 
L 201.448991 228.171921 
L 195.519987 227.653762 
L 189.575004 227.373114 
L 183.623554 227.330426 
L 177.675158 227.525767 
L 171.739331 227.958824 
L 165.825569 228.628905 
L 159.943335 229.534937 
L 154.102036 230.675471 
L 148.31102 232.048682 
L 142.57955 233.652374 
L 136.916794 235.48398 
L 131.331813 237.540572 
L 125.833541 239.818858 
L 120.430775 242.315193 
L 115.132156 245.025585 
L 109.946163 247.945698 
L 108.304665 248.928 
L 103.15664 245.94146 
L 97.893304 243.163174 
L 92.523075 240.597588 
L 87.36 238.373221 
L 92.823309 236.012324 
L 98.187837 233.434841 
L 103.445003 230.644896 
L 108.586395 227.646952 
L 113.603789 224.445806 
L 118.489158 221.046578 
L 123.234686 217.454706 
L 127.832781 213.675936 
L 132.276089 209.716315 
L 136.557499 205.582176 
L 139.510031 202.464581 
L 142.615312 199.258563 
L 145.907252 196.24452 
L 149.374001 193.433299 
L 153.003084 190.835016 
L 156.781441 188.459023 
L 160.695472 186.313871 
L 164.731092 184.407281 
L 168.873777 182.746113 
L 173.108618 181.336346 
L 177.420374 180.183054 
L 181.793526 179.290387 
L 186.212338 178.661559 
L 190.660904 178.298832 
L 195.123217 178.203511 
L 198.765789 178.324261 
L 194.372053 177.539148 
L 190.033302 176.491982 
L 185.76515 175.186531 
L 181.582959 173.627494 
L 177.50178 171.820482 
L 173.5363 169.771997 
L 169.700791 167.489413 
L 166.009058 164.980943 
L 162.474385 162.255616 
L 159.109494 159.32324 
L 155.926495 156.194369 
L 152.936844 152.880262 
L 150.151299 149.392847 
L 147.579886 145.744676 
L 145.23186 141.948877 
L 144.899783 141.368189 
L 146.620573 145.486465 
L 148.091318 149.700516 
L 149.306726 153.995176 
L 150.262421 158.354989 
L 150.954965 162.764263 
L 151.381865 167.207131 
L 151.541585 171.667603 
L 151.433549 176.129625 
L 151.058147 180.577141 
L 150.41673 184.994142 
L 149.511606 189.364734 
L 148.346032 193.673185 
L 146.924204 197.903992 
L 145.251238 202.041927 
L 143.333156 206.072097 
L 142.399854 208.016131 
L 140.035114 213.477777 
L 137.890672 219.029619 
L 135.96996 224.662775 
L 134.276051 230.368234 
L 132.811654 236.136866 
L 131.579113 241.959445 
L 130.580398 247.826655 
L 130.419727 248.928 
L 129.464926 243.053484 
L 128.275971 237.221849 
L 126.854763 231.442425 
L 125.203577 225.724456 
L 123.325054 220.077091 
L 121.222199 214.509364 
L 118.898377 209.030183 
L 116.357305 203.648312 
L 113.603047 198.372362 
L 110.640011 193.210773 
L 107.472937 188.171803 
L 104.106891 183.263513 
L 100.547258 178.493754 
L 96.799733 173.870158 
L 92.870311 169.400122 
L 88.765279 165.090796 
L 87.36 163.692212 
L 91.522085 159.437964 
L 95.510716 155.02068 
L 99.319513 150.447426 
L 102.942381 145.725519 
L 106.373526 140.862513 
L 109.607458 135.866188 
L 112.639003 130.744536 
L 115.463312 125.505752 
L 118.075866 120.158216 
L 120.472486 114.710483 
L 122.649338 109.171269 
L 124.602939 103.549434 
L 125.670334 100.128 
L 127.487968 105.795256 
L 129.530777 111.385292 
L 131.795495 116.889167 
L 134.278498 122.298074 
L 136.975812 127.603361 
L 139.883125 132.796541 
L 142.995783 137.869306 
L 145.944116 142.50624 
L 148.002194 146.46675 
L 149.81908 150.543543 
L 151.388236 154.721948 
L 152.704014 158.986927 
L 153.76168 163.323131 
L 154.557426 167.714953 
L 155.088389 172.146589 
L 155.352658 176.602089 
L 155.349281 181.065419 
L 155.078272 185.520514 
L 154.540605 189.951341 
L 153.738215 194.341955 
L 152.67399 198.676554 
L 151.351761 202.939537 
L 149.776285 207.115563 
L 148.792628 209.394707 
L 150.188164 205.155156 
L 151.83541 201.006915 
L 153.728437 196.964914 
L 155.860431 193.043701 
L 158.223721 189.257386 
L 160.809801 185.619597 
L 163.609364 182.143426 
L 166.612334 178.841383 
L 169.807905 175.725352 
L 173.184574 172.806547 
L 176.730191 170.095473 
L 180.431995 167.601888 
L 184.276662 165.334764 
L 188.250357 163.302261 
L 192.338779 161.511695 
L 196.059694 160.127618 
L 192.013075 162.010753 
L 187.860818 163.647847 
L 183.617866 165.03301 
L 179.299489 166.161255 
L 174.921228 167.028523 
L 170.498841 167.631693 
L 166.048244 167.968593 
L 161.585454 168.038011 
L 157.126531 167.839698 
L 152.687524 167.374366 
L 148.284407 166.643692 
L 143.933029 165.650303 
L 139.649047 164.397776 
L 135.447882 162.890618 
L 131.344651 161.134254 
L 127.789318 159.367764 
L 122.671996 156.328915 
L 117.437246 153.497136 
L 112.093442 150.876956 
L 106.649134 148.472568 
L 101.11303 146.287816 
L 95.493988 144.326198 
L 89.800997 142.59085 
L 87.36 141.92219 
L 93.081683 140.283922 
L 98.733276 138.418157 
L 104.305738 136.327881 
L 109.790153 134.016438 
L 115.177748 131.487527 
L 120.459905 128.745191 
L 125.628172 125.793819 
L 130.674282 122.638133 
L 135.590161 119.28318 
L 140.367946 115.734328 
L 144.999993 111.997254 
L 149.478892 108.077937 
L 153.797478 103.982647 
L 157.563888 100.128 
L 161.731342 104.37699 
L 166.065376 108.455927 
L 170.559057 112.358287 
L 175.205197 116.077825 
L 179.996362 119.608593 
L 184.924887 122.94494 
L 189.982889 126.081531 
L 195.162275 129.013346 
L 200.454759 131.735696 
L 205.851875 134.244226 
L 211.344988 136.534922 
L 216.925311 138.60412 
L 222.583916 140.448509 
L 228.31175 142.065139 
L 234.099651 143.451423 
L 236.16 143.886286 
L 230.353061 145.190527 
L 224.602923 146.72594 
L 218.918785 148.490068 
L 213.309739 150.480091 
L 207.78476 152.692824 
L 202.352686 155.124727 
L 197.022207 157.77191 
L 194.058813 159.291548 
L 189.978643 161.100838 
L 185.797323 162.662209 
L 181.5299 163.970042 
L 177.191734 165.01963 
L 172.798437 165.807195 
L 168.36582 166.329903 
L 163.909836 166.585874 
L 159.446521 166.574184 
L 154.991938 166.294878 
L 150.562119 165.74896 
L 146.173008 164.938394 
L 141.840399 163.866098 
L 137.579885 162.535931 
L 133.406801 160.952681 
L 129.336163 159.122044 
L 128.169897 158.542225 
L 128.169897 158.542225 
" style="fill:none;stroke:#1f77b4;stroke-linecap:square;stroke-width:1.5;"/>
   </g>
   <g id="patch_5">
    <path d="M 57.6 263.808 
L 57.6 85.248 
" style="fill:none;stroke:#000000;stroke-linecap:square;stroke-linejoin:miter;stroke-width:0.8;"/>
   </g>
   <g id="patch_6">
    <path d="M 414.72 263.808 
L 414.72 85.248 
" style="fill:none;stroke:#000000;stroke-linecap:square;stroke-linejoin:miter;stroke-width:0.8;"/>
   </g>
   <g id="patch_7">
    <path d="M 57.6 263.808 
L 414.72 263.808 
" style="fill:none;stroke:#000000;stroke-linecap:square;stroke-linejoin:miter;stroke-width:0.8;"/>
   </g>
   <g id="patch_8">
    <path d="M 57.6 85.248 
L 414.72 85.248 
" style="fill:none;stroke:#000000;stroke-linecap:square;stroke-linejoin:miter;stroke-width:0.8;"/>
   </g>
  </g>
 </g>
 <defs>
  <clipPath id="p571d935715">
   <rect height="178.56" width="357.12" x="57.6" y="85.248"/>
  </clipPath>
 </defs>
</svg>
