<?xml version="1.0" encoding="utf-8" standalone="no"?>
<!DOCTYPE svg PUBLIC "-//W3C//DTD SVG 1.1//EN"
  "http://www.w3.org/Graphics/SVG/1.1/DTD/svg11.dtd">
<!-- Created with matplotlib (http://matplotlib.org/) -->
<svg height="345.6pt" version="1.1" viewBox="0 0 460.8 345.6" width="460.8pt" xmlns="http://www.w3.org/2000/svg" xmlns:xlink="http://www.w3.org/1999/xlink">
 <defs>
  <style type="text/css">
*{stroke-linecap:butt;stroke-linejoin:round;}
  </style>
 </defs>
 <g id="figure_1">
  <g id="patch_1">
   <path d="M 0 345.6 
L 460.8 345.6 
L 460.8 0 
L 0 0 
z
" style="fill:#ffffff;"/>
  </g>
  <g id="axes_1">
   <g id="patch_2">
    <path d="M 57.6 263.808 
L 414.72 263.808 
L 414.72 85.248 
L 57.6 85.248 
z
" style="fill:#ffffff;"/>
   </g>
   <g id="PathCollection_1">
    <defs>
     <path d="M 0 3 
C 0.795609 3 1.55874 2.683901 2.12132 2.12132 
C 2.683901 1.55874 3 0.795609 3 0 
C 3 -0.795609 2.683901 -1.55874 2.12132 -2.12132 
C 1.55874 -2.683901 0.795609 -3 0 -3 
C -0.795609 -3 -1.55874 -2.683901 -2.12132 -2.12132 
C -2.683901 -1.55874 -3 -0.795609 -3 0 
C -3 0.795609 -2.683901 1.55874 -2.12132 2.12132 
C -1.55874 2.683901 -0.795609 3 0 3 
z
" id="m834e41fd2e" style="stroke:#000000;"/>
    </defs>
    <g clip-path="url(#p0cedeec84b)">
     <use style="stroke:#000000;" x="138.622717" xlink:href="#m834e41fd2e" y="123.005918"/>
    </g>
   </g>
   <g id="patch_3">
    <path clip-path="url(#p0cedeec84b)" d="M 161.76 211.728 
C 171.625555 211.728 181.088371 207.808373 188.064372 200.832372 
C 195.040373 193.856371 198.96 184.393555 198.96 174.528 
C 198.96 164.662445 195.040373 155.199629 188.064372 148.223628 
C 181.088371 141.247627 171.625555 137.328 161.76 137.328 
C 151.894445 137.328 142.431629 141.247627 135.455628 148.223628 
C 128.479627 155.199629 124.56 164.662445 124.56 174.528 
C 124.56 184.393555 128.479627 193.856371 135.455628 200.832372 
C 142.431629 207.808373 151.894445 211.728 161.76 211.728 
z
" style="fill:#cc0000;fill-opacity:0.1;stroke:#cc0000;stroke-dasharray:7.4,3.2;stroke-dashoffset:0;stroke-linejoin:miter;stroke-width:2;"/>
   </g>
   <g id="patch_4">
    <path clip-path="url(#p0cedeec84b)" d="M 310.56 196.848 
C 316.479333 196.848 322.157023 194.496224 326.342623 190.310623 
C 330.528224 186.125023 332.88 180.447333 332.88 174.528 
C 332.88 168.608667 330.528224 162.930977 326.342623 158.745377 
C 322.157023 154.559776 316.479333 152.208 310.56 152.208 
C 304.640667 152.208 298.962977 154.559776 294.777377 158.745377 
C 290.591776 162.930977 288.24 168.608667 288.24 174.528 
C 288.24 180.447333 290.591776 186.125023 294.777377 190.310623 
C 298.962977 194.496224 304.640667 196.848 310.56 196.848 
z
" style="fill:#cc0000;fill-opacity:0.1;stroke:#cc0000;stroke-dasharray:7.4,3.2;stroke-dashoffset:0;stroke-linejoin:miter;stroke-width:2;"/>
   </g>
   <g id="matplotlib.axis_1">
    <g id="xtick_1">
     <g id="line2d_1">
      <defs>
       <path d="M 0 0 
L 0 3.5 
" id="m52287af405" style="stroke:#000000;stroke-width:0.8;"/>
      </defs>
      <g>
       <use style="stroke:#000000;stroke-width:0.8;" x="87.36" xlink:href="#m52287af405" y="263.808"/>
      </g>
     </g>
     <g id="text_1">
      <!-- 0.0 -->
      <defs>
       <path d="M 31.78125 66.40625 
Q 24.171875 66.40625 20.328125 58.90625 
Q 16.5 51.421875 16.5 36.375 
Q 16.5 21.390625 20.328125 13.890625 
Q 24.171875 6.390625 31.78125 6.390625 
Q 39.453125 6.390625 43.28125 13.890625 
Q 47.125 21.390625 47.125 36.375 
Q 47.125 51.421875 43.28125 58.90625 
Q 39.453125 66.40625 31.78125 66.40625 
z
M 31.78125 74.21875 
Q 44.046875 74.21875 50.515625 64.515625 
Q 56.984375 54.828125 56.984375 36.375 
Q 56.984375 17.96875 50.515625 8.265625 
Q 44.046875 -1.421875 31.78125 -1.421875 
Q 19.53125 -1.421875 13.0625 8.265625 
Q 6.59375 17.96875 6.59375 36.375 
Q 6.59375 54.828125 13.0625 64.515625 
Q 19.53125 74.21875 31.78125 74.21875 
z
" id="DejaVuSans-30"/>
       <path d="M 10.6875 12.40625 
L 21 12.40625 
L 21 0 
L 10.6875 0 
z
" id="DejaVuSans-2e"/>
      </defs>
      <g transform="translate(79.408438 278.406437)scale(0.1 -0.1)">
       <use xlink:href="#DejaVuSans-30"/>
       <use x="63.623047" xlink:href="#DejaVuSans-2e"/>
       <use x="95.410156" xlink:href="#DejaVuSans-30"/>
      </g>
     </g>
    </g>
    <g id="xtick_2">
     <g id="line2d_2">
      <g>
       <use style="stroke:#000000;stroke-width:0.8;" x="161.76" xlink:href="#m52287af405" y="263.808"/>
      </g>
     </g>
     <g id="text_2">
      <!-- 0.5 -->
      <defs>
       <path d="M 10.796875 72.90625 
L 49.515625 72.90625 
L 49.515625 64.59375 
L 19.828125 64.59375 
L 19.828125 46.734375 
Q 21.96875 47.46875 24.109375 47.828125 
Q 26.265625 48.1875 28.421875 48.1875 
Q 40.625 48.1875 47.75 41.5 
Q 54.890625 34.8125 54.890625 23.390625 
Q 54.890625 11.625 47.5625 5.09375 
Q 40.234375 -1.421875 26.90625 -1.421875 
Q 22.3125 -1.421875 17.546875 -0.640625 
Q 12.796875 0.140625 7.71875 1.703125 
L 7.71875 11.625 
Q 12.109375 9.234375 16.796875 8.0625 
Q 21.484375 6.890625 26.703125 6.890625 
Q 35.15625 6.890625 40.078125 11.328125 
Q 45.015625 15.765625 45.015625 23.390625 
Q 45.015625 31 40.078125 35.4375 
Q 35.15625 39.890625 26.703125 39.890625 
Q 22.75 39.890625 18.8125 39.015625 
Q 14.890625 38.140625 10.796875 36.28125 
z
" id="DejaVuSans-35"/>
      </defs>
      <g transform="translate(153.808437 278.406437)scale(0.1 -0.1)">
       <use xlink:href="#DejaVuSans-30"/>
       <use x="63.623047" xlink:href="#DejaVuSans-2e"/>
       <use x="95.410156" xlink:href="#DejaVuSans-35"/>
      </g>
     </g>
    </g>
    <g id="xtick_3">
     <g id="line2d_3">
      <g>
       <use style="stroke:#000000;stroke-width:0.8;" x="236.16" xlink:href="#m52287af405" y="263.808"/>
      </g>
     </g>
     <g id="text_3">
      <!-- 1.0 -->
      <defs>
       <path d="M 12.40625 8.296875 
L 28.515625 8.296875 
L 28.515625 63.921875 
L 10.984375 60.40625 
L 10.984375 69.390625 
L 28.421875 72.90625 
L 38.28125 72.90625 
L 38.28125 8.296875 
L 54.390625 8.296875 
L 54.390625 0 
L 12.40625 0 
z
" id="DejaVuSans-31"/>
      </defs>
      <g transform="translate(228.208437 278.406437)scale(0.1 -0.1)">
       <use xlink:href="#DejaVuSans-31"/>
       <use x="63.623047" xlink:href="#DejaVuSans-2e"/>
       <use x="95.410156" xlink:href="#DejaVuSans-30"/>
      </g>
     </g>
    </g>
    <g id="xtick_4">
     <g id="line2d_4">
      <g>
       <use style="stroke:#000000;stroke-width:0.8;" x="310.56" xlink:href="#m52287af405" y="263.808"/>
      </g>
     </g>
     <g id="text_4">
      <!-- 1.5 -->
      <g transform="translate(302.608437 278.406437)scale(0.1 -0.1)">
       <use xlink:href="#DejaVuSans-31"/>
       <use x="63.623047" xlink:href="#DejaVuSans-2e"/>
       <use x="95.410156" xlink:href="#DejaVuSans-35"/>
      </g>
     </g>
    </g>
    <g id="xtick_5">
     <g id="line2d_5">
      <g>
       <use style="stroke:#000000;stroke-width:0.8;" x="384.96" xlink:href="#m52287af405" y="263.808"/>
      </g>
     </g>
     <g id="text_5">
      <!-- 2.0 -->
      <defs>
       <path d="M 19.1875 8.296875 
L 53.609375 8.296875 
L 53.609375 0 
L 7.328125 0 
L 7.328125 8.296875 
Q 12.9375 14.109375 22.625 23.890625 
Q 32.328125 33.6875 34.8125 36.53125 
Q 39.546875 41.84375 41.421875 45.53125 
Q 43.3125 49.21875 43.3125 52.78125 
Q 43.3125 58.59375 39.234375 62.25 
Q 35.15625 65.921875 28.609375 65.921875 
Q 23.96875 65.921875 18.8125 64.3125 
Q 13.671875 62.703125 7.8125 59.421875 
L 7.8125 69.390625 
Q 13.765625 71.78125 18.9375 73 
Q 24.125 74.21875 28.421875 74.21875 
Q 39.75 74.21875 46.484375 68.546875 
Q 53.21875 62.890625 53.21875 53.421875 
Q 53.21875 48.921875 51.53125 44.890625 
Q 49.859375 40.875 45.40625 35.40625 
Q 44.1875 33.984375 37.640625 27.21875 
Q 31.109375 20.453125 19.1875 8.296875 
z
" id="DejaVuSans-32"/>
      </defs>
      <g transform="translate(377.008437 278.406437)scale(0.1 -0.1)">
       <use xlink:href="#DejaVuSans-32"/>
       <use x="63.623047" xlink:href="#DejaVuSans-2e"/>
       <use x="95.410156" xlink:href="#DejaVuSans-30"/>
      </g>
     </g>
    </g>
   </g>
   <g id="matplotlib.axis_2">
    <g id="ytick_1">
     <g id="line2d_6">
      <defs>
       <path d="M 0 0 
L -3.5 0 
" id="m67f11e708f" style="stroke:#000000;stroke-width:0.8;"/>
      </defs>
      <g>
       <use style="stroke:#000000;stroke-width:0.8;" x="57.6" xlink:href="#m67f11e708f" y="248.928"/>
      </g>
     </g>
     <g id="text_6">
      <!-- 0.0 -->
      <g transform="translate(34.696875 252.727219)scale(0.1 -0.1)">
       <use xlink:href="#DejaVuSans-30"/>
       <use x="63.623047" xlink:href="#DejaVuSans-2e"/>
       <use x="95.410156" xlink:href="#DejaVuSans-30"/>
      </g>
     </g>
    </g>
    <g id="ytick_2">
     <g id="line2d_7">
      <g>
       <use style="stroke:#000000;stroke-width:0.8;" x="57.6" xlink:href="#m67f11e708f" y="219.168"/>
      </g>
     </g>
     <g id="text_7">
      <!-- 0.2 -->
      <g transform="translate(34.696875 222.967219)scale(0.1 -0.1)">
       <use xlink:href="#DejaVuSans-30"/>
       <use x="63.623047" xlink:href="#DejaVuSans-2e"/>
       <use x="95.410156" xlink:href="#DejaVuSans-32"/>
      </g>
     </g>
    </g>
    <g id="ytick_3">
     <g id="line2d_8">
      <g>
       <use style="stroke:#000000;stroke-width:0.8;" x="57.6" xlink:href="#m67f11e708f" y="189.408"/>
      </g>
     </g>
     <g id="text_8">
      <!-- 0.4 -->
      <defs>
       <path d="M 37.796875 64.3125 
L 12.890625 25.390625 
L 37.796875 25.390625 
z
M 35.203125 72.90625 
L 47.609375 72.90625 
L 47.609375 25.390625 
L 58.015625 25.390625 
L 58.015625 17.1875 
L 47.609375 17.1875 
L 47.609375 0 
L 37.796875 0 
L 37.796875 17.1875 
L 4.890625 17.1875 
L 4.890625 26.703125 
z
" id="DejaVuSans-34"/>
      </defs>
      <g transform="translate(34.696875 193.207219)scale(0.1 -0.1)">
       <use xlink:href="#DejaVuSans-30"/>
       <use x="63.623047" xlink:href="#DejaVuSans-2e"/>
       <use x="95.410156" xlink:href="#DejaVuSans-34"/>
      </g>
     </g>
    </g>
    <g id="ytick_4">
     <g id="line2d_9">
      <g>
       <use style="stroke:#000000;stroke-width:0.8;" x="57.6" xlink:href="#m67f11e708f" y="159.648"/>
      </g>
     </g>
     <g id="text_9">
      <!-- 0.6 -->
      <defs>
       <path d="M 33.015625 40.375 
Q 26.375 40.375 22.484375 35.828125 
Q 18.609375 31.296875 18.609375 23.390625 
Q 18.609375 15.53125 22.484375 10.953125 
Q 26.375 6.390625 33.015625 6.390625 
Q 39.65625 6.390625 43.53125 10.953125 
Q 47.40625 15.53125 47.40625 23.390625 
Q 47.40625 31.296875 43.53125 35.828125 
Q 39.65625 40.375 33.015625 40.375 
z
M 52.59375 71.296875 
L 52.59375 62.3125 
Q 48.875 64.0625 45.09375 64.984375 
Q 41.3125 65.921875 37.59375 65.921875 
Q 27.828125 65.921875 22.671875 59.328125 
Q 17.53125 52.734375 16.796875 39.40625 
Q 19.671875 43.65625 24.015625 45.921875 
Q 28.375 48.1875 33.59375 48.1875 
Q 44.578125 48.1875 50.953125 41.515625 
Q 57.328125 34.859375 57.328125 23.390625 
Q 57.328125 12.15625 50.6875 5.359375 
Q 44.046875 -1.421875 33.015625 -1.421875 
Q 20.359375 -1.421875 13.671875 8.265625 
Q 6.984375 17.96875 6.984375 36.375 
Q 6.984375 53.65625 15.1875 63.9375 
Q 23.390625 74.21875 37.203125 74.21875 
Q 40.921875 74.21875 44.703125 73.484375 
Q 48.484375 72.75 52.59375 71.296875 
z
" id="DejaVuSans-36"/>
      </defs>
      <g transform="translate(34.696875 163.447219)scale(0.1 -0.1)">
       <use xlink:href="#DejaVuSans-30"/>
       <use x="63.623047" xlink:href="#DejaVuSans-2e"/>
       <use x="95.410156" xlink:href="#DejaVuSans-36"/>
      </g>
     </g>
    </g>
    <g id="ytick_5">
     <g id="line2d_10">
      <g>
       <use style="stroke:#000000;stroke-width:0.8;" x="57.6" xlink:href="#m67f11e708f" y="129.888"/>
      </g>
     </g>
     <g id="text_10">
      <!-- 0.8 -->
      <defs>
       <path d="M 31.78125 34.625 
Q 24.75 34.625 20.71875 30.859375 
Q 16.703125 27.09375 16.703125 20.515625 
Q 16.703125 13.921875 20.71875 10.15625 
Q 24.75 6.390625 31.78125 6.390625 
Q 38.8125 6.390625 42.859375 10.171875 
Q 46.921875 13.96875 46.921875 20.515625 
Q 46.921875 27.09375 42.890625 30.859375 
Q 38.875 34.625 31.78125 34.625 
z
M 21.921875 38.8125 
Q 15.578125 40.375 12.03125 44.71875 
Q 8.5 49.078125 8.5 55.328125 
Q 8.5 64.0625 14.71875 69.140625 
Q 20.953125 74.21875 31.78125 74.21875 
Q 42.671875 74.21875 48.875 69.140625 
Q 55.078125 64.0625 55.078125 55.328125 
Q 55.078125 49.078125 51.53125 44.71875 
Q 48 40.375 41.703125 38.8125 
Q 48.828125 37.15625 52.796875 32.3125 
Q 56.78125 27.484375 56.78125 20.515625 
Q 56.78125 9.90625 50.3125 4.234375 
Q 43.84375 -1.421875 31.78125 -1.421875 
Q 19.734375 -1.421875 13.25 4.234375 
Q 6.78125 9.90625 6.78125 20.515625 
Q 6.78125 27.484375 10.78125 32.3125 
Q 14.796875 37.15625 21.921875 38.8125 
z
M 18.3125 54.390625 
Q 18.3125 48.734375 21.84375 45.5625 
Q 25.390625 42.390625 31.78125 42.390625 
Q 38.140625 42.390625 41.71875 45.5625 
Q 45.3125 48.734375 45.3125 54.390625 
Q 45.3125 60.0625 41.71875 63.234375 
Q 38.140625 66.40625 31.78125 66.40625 
Q 25.390625 66.40625 21.84375 63.234375 
Q 18.3125 60.0625 18.3125 54.390625 
z
" id="DejaVuSans-38"/>
      </defs>
      <g transform="translate(34.696875 133.687219)scale(0.1 -0.1)">
       <use xlink:href="#DejaVuSans-30"/>
       <use x="63.623047" xlink:href="#DejaVuSans-2e"/>
       <use x="95.410156" xlink:href="#DejaVuSans-38"/>
      </g>
     </g>
    </g>
    <g id="ytick_6">
     <g id="line2d_11">
      <g>
       <use style="stroke:#000000;stroke-width:0.8;" x="57.6" xlink:href="#m67f11e708f" y="100.128"/>
      </g>
     </g>
     <g id="text_11">
      <!-- 1.0 -->
      <g transform="translate(34.696875 103.927219)scale(0.1 -0.1)">
       <use xlink:href="#DejaVuSans-31"/>
       <use x="63.623047" xlink:href="#DejaVuSans-2e"/>
       <use x="95.410156" xlink:href="#DejaVuSans-30"/>
      </g>
     </g>
    </g>
   </g>
   <g id="line2d_12">
    <path clip-path="url(#p0cedeec84b)" d="M 236.16 248.928 
L 236.16 100.128 
" style="fill:none;stroke:#cc0000;stroke-dasharray:7.4,3.2;stroke-dashoffset:0;stroke-width:2;"/>
   </g>
   <g id="line2d_13">
    <path clip-path="url(#p0cedeec84b)" d="M 87.36 248.928 
L 384.96 248.928 
" style="fill:none;stroke:#009900;stroke-linecap:square;stroke-width:2;"/>
   </g>
   <g id="line2d_14">
    <path clip-path="url(#p0cedeec84b)" d="M 384.96 248.928 
L 384.96 100.128 
" style="fill:none;stroke:#009900;stroke-linecap:square;stroke-width:2;"/>
   </g>
   <g id="line2d_15">
    <path clip-path="url(#p0cedeec84b)" d="M 384.96 100.128 
L 87.36 100.128 
" style="fill:none;stroke:#009900;stroke-linecap:square;stroke-width:2;"/>
   </g>
   <g id="line2d_16">
    <path clip-path="url(#p0cedeec84b)" d="M 87.36 100.128 
L 87.36 248.928 
" style="fill:none;stroke:#009900;stroke-linecap:square;stroke-width:2;"/>
   </g>
   <g id="line2d_17">
    <path clip-path="url(#p0cedeec84b)" d="M 138.622717 123.005918 
L 135.167048 118.160308 
L 131.520371 113.456764 
L 127.688519 108.90281 
L 123.677623 104.505733 
L 119.345189 100.128 
L 115.155765 104.355328 
L 111.13874 108.746807 
L 107.30054 113.295412 
L 103.647306 117.993865 
L 100.184882 122.83465 
L 96.918808 127.810024 
L 93.854308 132.912025 
L 90.996285 138.132493 
L 88.349311 143.463076 
L 87.36 145.60341 
L 89.922175 150.975267 
L 92.697117 156.240367 
L 95.680387 161.390287 
L 98.867213 166.416789 
L 102.252497 171.311831 
L 105.830822 176.067582 
L 109.596463 180.676435 
L 113.543398 185.131015 
L 117.665312 189.424197 
L 121.955609 193.549112 
L 126.407428 197.499162 
L 131.013646 201.268027 
L 135.766893 204.849677 
L 140.659566 208.238383 
L 145.683838 211.428724 
L 150.83167 214.415596 
L 156.094828 217.19422 
L 161.464891 219.760152 
L 166.933268 222.109285 
L 172.491212 224.237863 
L 178.12983 226.14248 
L 183.840102 227.820089 
L 189.612893 229.268006 
L 195.438968 230.483914 
L 201.309006 231.465869 
L 207.213616 232.2123 
L 213.143353 232.722012 
L 219.088729 232.994191 
L 225.040234 233.0284 
L 230.988346 232.824584 
L 236.16 232.453267 
L 230.2226 232.042344 
L 224.273516 231.869182 
L 218.322266 231.934059 
L 212.378372 232.23687 
L 206.45134 232.777131 
L 200.550655 233.553979 
L 194.685755 234.566169 
L 188.866023 235.812083 
L 183.10077 237.289728 
L 177.399218 238.99674 
L 171.770489 240.930387 
L 166.223588 243.087577 
L 160.767388 245.464858 
L 155.410619 248.058427 
L 153.729101 248.928 
L 148.405761 246.266492 
L 142.980246 243.81999 
L 137.461237 241.592408 
L 131.857563 239.587309 
L 126.178189 237.807901 
L 120.432201 236.257031 
L 114.628791 234.93718 
L 108.777242 233.850459 
L 102.886917 232.998607 
L 96.967239 232.382986 
L 91.027677 232.004581 
L 87.36 231.889773 
L 88.847567 231.854121 
L 94.792037 231.562834 
L 100.720105 231.034065 
L 106.622285 230.26866 
L 112.489137 229.267843 
L 118.311273 228.033214 
L 124.079381 226.56675 
L 129.784231 224.870796 
L 135.416699 222.948066 
L 140.967772 220.801634 
L 146.428571 218.434936 
L 151.790359 215.851758 
L 157.044558 213.056231 
L 159.493891 211.658914 
L 164.303572 215.164416 
L 169.249589 218.474778 
L 174.324029 221.584704 
L 179.518774 224.489219 
L 184.825513 227.183677 
L 190.235756 229.663766 
L 195.74085 231.92552 
L 201.331985 233.965319 
L 207.000219 235.779901 
L 212.736483 237.366362 
L 218.5316 238.722165 
L 224.376299 239.845141 
L 230.26123 240.733493 
L 236.16 241.384269 
L 230.244327 242.037254 
L 224.359497 242.92628 
L 218.514927 244.049925 
L 212.719966 245.406392 
L 206.983884 246.993511 
L 200.969008 248.928 
L 195.305474 247.098803 
L 189.573322 245.49755 
L 183.781721 244.126804 
L 177.939939 242.988755 
L 172.057319 242.085226 
L 166.143273 241.417662 
L 160.207262 240.987131 
L 154.258783 240.794321 
L 148.307352 240.839541 
L 142.362489 241.122719 
L 136.433706 241.643401 
L 130.530487 242.400755 
L 124.662275 243.393569 
L 118.83846 244.620254 
L 113.068358 246.078849 
L 107.361199 247.76702 
L 103.857827 248.928 
L 98.194293 247.098803 
L 92.46214 245.49755 
L 87.36 244.277201 
L 93.145034 242.879003 
L 98.869529 241.250584 
L 104.524324 239.394549 
L 110.100375 237.313867 
L 115.588761 235.011867 
L 120.980701 232.492231 
L 126.267569 229.758991 
L 131.440908 226.816518 
L 136.492441 223.669521 
L 141.414088 220.323034 
L 146.197974 216.78241 
L 150.836446 213.053314 
L 153.472398 210.793075 
L 155.904526 216.225048 
L 158.551929 221.555418 
L 161.410372 226.775656 
L 164.475283 231.87741 
L 167.741758 236.852521 
L 171.204571 241.693027 
L 174.858183 246.391186 
L 176.960651 248.928 
L 180.717391 244.311888 
L 184.28653 239.549239 
L 187.662359 234.647672 
L 190.839477 229.615029 
L 193.812802 224.45936 
L 196.577577 219.188914 
L 199.129379 213.812122 
L 201.464125 208.337587 
L 203.57808 202.774065 
L 205.467864 197.130458 
L 207.130451 191.415794 
L 208.563183 185.639215 
L 209.763767 179.809964 
L 210.730284 173.937364 
L 211.461185 168.030811 
L 211.955303 162.099755 
L 212.211847 156.153684 
L 212.230406 150.202109 
L 212.010951 144.254553 
L 211.553832 138.320531 
L 210.859782 132.409535 
L 209.92991 126.531022 
L 208.765703 120.694395 
L 207.369026 114.908994 
L 205.742111 109.184072 
L 203.887561 103.528789 
L 202.649865 100.128 
L 200.65833 105.736509 
L 198.892669 111.420171 
L 197.355706 117.169895 
L 196.049901 122.976482 
L 194.977341 128.830643 
L 194.139743 134.723012 
L 193.538447 140.644162 
L 193.174415 146.584622 
L 193.048229 152.534887 
L 193.057916 154.421273 
L 198.491774 156.849187 
L 204.018377 159.057862 
L 209.628882 161.043765 
L 215.314315 162.803719 
L 221.065579 164.334909 
L 226.873474 165.634884 
L 232.728708 166.701566 
L 236.16 167.215036 
L 243.588168 167.631012 
L 251.024413 167.861172 
L 258.464088 167.905374 
L 265.902543 167.76359 
L 273.33513 167.435908 
L 280.757203 166.922533 
L 288.164123 166.223786 
L 289.920796 166.030608 
L 295.797296 166.973119 
L 301.631405 168.149874 
L 307.41379 169.55899 
L 313.1352 171.198212 
L 318.786482 173.064919 
L 324.358595 175.156123 
L 329.842625 177.46848 
L 332.49059 178.679099 
L 326.544868 178.943613 
L 320.593324 178.970151 
L 314.645479 178.758669 
L 308.710849 178.309505 
L 302.798928 177.62338 
L 296.919173 176.701389 
L 291.080992 175.545008 
L 288.243009 174.894494 
L 294.012598 173.433868 
L 299.835981 172.205134 
L 305.703842 171.210255 
L 311.606795 170.450824 
L 317.535394 169.928056 
L 323.480157 169.642786 
L 329.431572 169.595472 
L 332.342461 169.659038 
L 339.511445 171.648105 
L 346.72791 173.457344 
L 353.987347 175.085625 
L 361.285217 176.53193 
L 368.616962 177.795356 
L 375.977997 178.875112 
L 383.363723 179.770525 
L 384.96 179.939478 
L 377.569551 180.79504 
L 370.202799 181.835077 
L 362.864347 183.058939 
L 355.558781 184.46586 
L 348.290668 186.054962 
L 341.064549 187.825251 
L 333.884941 189.775621 
L 326.75633 191.904853 
L 322.865102 193.149677 
L 318.032958 198.806628 
L 313.343732 204.582603 
L 308.800356 210.473991 
L 304.40567 216.47711 
L 300.162418 222.58821 
L 296.073255 228.80347 
L 292.140734 235.119006 
L 288.367315 241.530872 
L 284.275943 248.928 
L 280.686154 242.411549 
L 276.934592 235.98687 
L 273.023602 229.657978 
L 268.955629 223.428828 
L 264.733214 217.303313 
L 260.358997 211.285262 
L 255.835711 205.378436 
L 251.166183 199.586525 
L 246.353332 193.913151 
L 241.400165 188.361858 
L 236.16 182.780531 
L 241.254323 177.358484 
L 246.211517 171.810787 
L 251.028485 166.140907 
L 255.702214 160.352386 
L 260.229786 154.448844 
L 264.608369 148.433968 
L 268.835228 142.31152 
L 272.90772 136.085323 
L 276.823302 129.759271 
L 280.579525 123.337316 
L 284.174042 116.823472 
L 287.604607 110.22181 
L 290.869076 103.536456 
L 292.454718 100.128 
L 295.63448 106.854056 
L 298.981381 113.498525 
L 302.493332 120.057254 
L 306.168136 126.526144 
L 310.003497 132.901151 
L 313.997018 139.178293 
L 318.146203 145.353645 
L 322.44846 151.423349 
L 326.901099 157.383611 
L 331.501338 163.230706 
L 336.246301 168.96098 
L 341.133023 174.570852 
L 346.158451 180.056815 
L 351.319443 185.415441 
L 356.612774 190.643382 
L 362.035136 195.737369 
L 367.58314 200.69422 
L 373.253319 205.510836 
L 379.042129 210.184208 
L 384.96 214.721909 
L 379.05591 219.248767 
L 373.266825 223.921798 
L 367.596363 228.73808 
L 362.048067 233.694603 
L 356.625405 238.788271 
L 351.331766 244.0159 
L 346.590514 248.928 
L 341.418182 243.580317 
L 336.11379 238.363601 
L 330.68065 233.28111 
L 325.122159 228.336022 
L 319.441791 223.531427 
L 313.643095 218.870328 
L 307.729696 214.355638 
L 301.705289 209.990178 
L 295.57364 205.776676 
L 289.33858 201.717767 
L 283.004007 197.815986 
L 276.573878 194.073772 
L 270.052213 190.493464 
L 263.443088 187.077299 
L 256.750633 183.827413 
L 249.97903 180.745837 
L 243.132512 177.834495 
L 236.16 175.07409 
L 243.0777 172.33618 
L 249.924797 169.426202 
L 256.697013 166.345974 
L 263.390115 163.09742 
L 269.999921 159.682572 
L 276.522298 156.103562 
L 282.953172 152.362629 
L 289.288522 148.462109 
L 295.52439 144.404441 
L 301.656878 140.19216 
L 307.682153 135.8279 
L 313.596451 131.314387 
L 319.396075 126.654442 
L 325.077399 121.850978 
L 330.636875 116.906997 
L 336.071026 111.825588 
L 341.376458 106.609928 
L 346.549853 101.263275 
L 347.615589 100.128 
L 352.760938 105.501648 
L 358.039007 110.744997 
L 363.446497 115.854769 
L 368.980028 120.827771 
L 374.636142 125.660895 
L 380.411304 130.351121 
L 384.96 133.880838 
L 379.095183 138.458461 
L 373.346627 143.181259 
L 367.717925 148.04628 
L 362.212595 153.050484 
L 356.834077 158.190743 
L 351.585733 163.463845 
L 346.470843 168.866494 
L 341.492603 174.395314 
L 336.654125 180.046849 
L 331.958433 185.817567 
L 327.408461 191.703862 
L 323.007053 197.702056 
L 318.756959 203.808398 
L 314.660836 210.019074 
L 310.721244 216.330202 
L 306.940644 222.737837 
L 303.3214 229.237974 
L 299.865774 235.826553 
L 296.575925 242.499454 
L 293.59927 248.928 
L 290.469187 242.178681 
L 287.171367 235.509716 
L 283.707871 228.925271 
L 280.080864 222.429462 
L 276.292611 216.026349 
L 272.345481 209.719933 
L 268.24194 203.514156 
L 263.984554 197.412896 
L 259.575982 191.419966 
L 255.01898 185.539111 
L 250.316396 179.774007 
L 245.471169 174.128257 
L 240.486327 168.60539 
L 236.16 164.029033 
L 241.260591 158.612882 
L 246.224198 153.070923 
L 251.04772 147.406617 
L 255.728142 141.623506 
L 260.262538 135.725204 
L 264.648075 129.715398 
L 268.882013 123.597841 
L 272.961704 117.37636 
L 276.8846 111.05484 
L 280.648248 104.637234 
L 283.16594 100.128 
L 286.817656 106.609951 
L 290.630262 112.998593 
L 294.601377 119.289933 
L 298.728518 125.48004 
L 303.009106 131.565045 
L 307.440465 137.541145 
L 312.019827 143.404605 
L 316.744329 149.151761 
L 322.2838 155.534977 
L 329.489195 157.387815 
L 336.738654 159.059957 
L 344.027647 160.550359 
L 351.351618 161.85809 
L 358.705991 162.982331 
L 366.086169 163.922382 
L 373.487539 164.677653 
L 380.905476 165.247673 
L 384.96 165.480535 
L 377.534975 165.949275 
L 370.123987 166.603475 
L 362.731668 167.442727 
L 355.362639 168.466504 
L 348.021504 169.674169 
L 340.712851 171.064965 
L 329.866117 173.207261 
L 323.952461 173.878271 
L 318.016702 174.312261 
L 312.068336 174.508536 
L 306.116879 174.466784 
L 300.171853 174.18707 
L 294.242767 173.669842 
L 288.298727 172.909943 
L 281.021626 171.362518 
L 273.708118 169.997486 
L 266.362772 168.815699 
L 258.990181 167.817896 
L 251.594951 167.0047 
L 244.181704 166.37662 
L 236.16 165.906642 
L 237.646319 165.835958 
L 245.071589 165.371121 
L 252.48292 164.720816 
L 259.875679 163.885451 
L 267.245245 162.865547 
L 274.587014 161.661741 
L 281.896397 160.274787 
L 289.168825 158.705551 
L 296.996409 156.801991 
L 300.589948 150.287607 
L 304.019522 143.68543 
L 307.282987 136.999586 
L 310.378303 130.234252 
L 313.303536 123.393658 
L 316.056858 116.482078 
L 318.636548 109.503833 
L 321.040995 102.463282 
L 321.795419 100.128 
L 324.141725 107.188139 
L 326.663783 114.187421 
L 329.360016 121.12147 
L 332.228741 127.985954 
L 335.268163 134.776582 
L 338.476383 141.489111 
L 341.851396 148.119345 
L 345.391094 154.66314 
L 349.093263 161.116408 
L 352.95559 167.475114 
L 356.975661 173.735285 
L 361.150965 179.893009 
L 365.47889 185.944436 
L 369.956733 191.885786 
L 374.581695 197.713345 
L 379.350886 203.423471 
L 384.96 209.785346 
L 380.030026 215.357246 
L 375.240876 221.050642 
L 370.595543 226.861975 
L 366.096929 232.787614 
L 361.747847 238.823854 
L 357.551014 244.966924 
L 354.962073 248.928 
L 350.863447 242.718975 
L 346.610893 236.614346 
L 342.207068 230.617927 
L 337.654724 224.733466 
L 332.956706 218.964641 
L 328.115951 213.315056 
L 323.135483 207.788243 
L 318.018416 202.387656 
L 312.414167 196.770852 
L 308.098801 202.831242 
L 303.936276 208.997611 
L 299.929196 215.266106 
L 296.080064 221.632808 
L 292.391285 228.093739 
L 288.865166 234.644861 
L 285.50391 241.28208 
L 281.885079 248.928 
L 278.71382 242.197931 
L 275.375318 235.549238 
L 271.871659 228.986076 
L 268.205032 222.512548 
L 264.37773 216.132699 
L 260.392145 209.850515 
L 256.250766 203.669925 
L 251.956184 197.594789 
L 247.51108 191.628905 
L 242.918234 185.776001 
L 238.180516 180.039736 
L 236.16 177.679807 
L 240.957342 171.993312 
L 245.611037 166.188672 
L 250.118176 160.269516 
L 254.475944 154.239543 
L 258.681617 148.102522 
L 262.732566 141.862287 
L 266.626259 135.522739 
L 270.360264 129.08784 
L 273.932246 122.561611 
L 277.339973 115.948131 
L 280.581315 109.251534 
L 283.654247 102.476004 
L 284.671943 100.128 
L 287.686499 106.929703 
L 290.870138 113.653925 
L 294.22087 120.296463 
L 297.736601 126.853166 
L 301.415135 133.319936 
L 305.254171 139.692731 
L 309.25131 145.967569 
L 313.594081 152.415181 
L 319.261437 147.595244 
L 324.806536 142.635144 
L 330.225913 137.537981 
L 335.516181 132.306941 
L 340.674033 126.945292 
L 345.696246 121.456386 
L 350.579681 115.843652 
L 355.321287 110.1106 
L 359.9181 104.260811 
L 363.026356 100.128 
L 367.520831 106.056779 
L 372.162105 111.871355 
L 376.947278 117.568094 
L 381.873359 123.143436 
L 384.96 126.498115 
L 379.949096 131.997348 
L 375.077224 137.620121 
L 370.34743 143.362922 
L 365.762668 149.222161 
L 361.325805 155.194176 
L 357.039613 161.275234 
L 352.906771 167.461536 
L 348.929862 173.749216 
L 345.111371 180.134343 
L 341.453685 186.612927 
L 337.95909 193.180919 
L 334.629769 199.834214 
L 331.467804 206.568655 
L 328.47517 213.380032 
L 325.653739 220.264089 
L 323.005272 227.216524 
L 320.531426 234.23299 
L 318.233746 241.309104 
L 315.975779 248.928 
L 313.867847 241.793062 
L 311.582218 234.713047 
L 309.120321 227.692379 
L 306.483695 220.735445 
L 303.673988 213.846595 
L 300.692955 207.030132 
L 297.54246 200.290318 
L 294.224472 193.631364 
L 290.741064 187.057431 
L 287.094414 180.572629 
L 283.2868 174.18101 
L 279.320602 167.886569 
L 275.198298 161.69324 
L 270.922466 155.604892 
L 266.495777 149.625332 
L 261.920997 143.758296 
L 257.200987 138.007451 
L 252.338695 132.376391 
L 247.337161 126.868635 
L 242.199511 121.487625 
L 236.16 115.49224 
L 235.44752 109.583437 
L 234.499322 103.707852 
L 233.80247 100.128 
L 232.710558 105.978582 
L 231.85348 111.868149 
L 231.232608 117.787279 
L 230.848934 123.726502 
L 230.703073 129.676318 
L 230.795257 135.627207 
L 231.12534 141.56965 
L 231.692794 147.494139 
L 232.49671 153.391198 
L 233.535802 159.251391 
L 234.808408 165.065345 
L 236.16 170.280364 
L 234.677767 176.044439 
L 233.427222 181.863178 
L 232.410364 187.72727 
L 231.628821 193.627336 
L 231.083843 199.553935 
L 230.776302 205.497587 
L 230.706689 211.448783 
L 230.875116 217.398003 
L 231.281314 223.335728 
L 231.924632 229.25246 
L 232.804042 235.138734 
L 233.918137 240.985133 
L 235.265134 246.782302 
L 235.826196 248.928 
L 236.16 247.667242 
L 234.547049 241.93837 
L 232.706294 236.278582 
L 230.640681 230.696931 
L 228.353513 225.202348 
L 225.84845 219.803622 
L 223.129499 214.509391 
L 220.201011 209.328123 
L 217.067669 204.268108 
L 213.734488 199.337441 
L 210.206798 194.544009 
L 206.490244 189.895482 
L 202.590771 185.399295 
L 198.401906 180.947558 
L 194.516082 178.751724 
L 190.768921 176.326831 
L 187.17391 173.681606 
L 183.743986 170.825571 
L 180.491493 167.769003 
L 177.428137 164.522902 
L 174.564943 161.098952 
L 171.912214 157.509474 
L 169.479499 153.767387 
L 167.275551 149.886159 
L 165.308304 145.879757 
L 163.584837 141.7626 
L 162.041979 137.329069 
L 160.517817 141.524095 
L 158.744847 145.620178 
L 156.72945 149.602576 
L 154.478879 153.456956 
L 152.001233 157.169448 
L 149.30543 160.726689 
L 146.401172 164.115878 
L 143.29891 167.324817 
L 140.00981 170.341958 
L 136.545709 173.156442 
L 132.919073 175.75814 
L 129.142955 178.137689 
L 125.024986 180.391339 
L 129.414081 181.201997 
L 133.746667 182.274384 
L 138.007152 183.604641 
L 142.180203 185.18798 
L 146.250802 187.018703 
L 150.204298 189.09022 
L 154.026464 191.395078 
L 157.703543 193.92498 
L 161.222303 196.670823 
L 164.570079 199.622723 
L 167.734823 202.770057 
L 170.705145 206.101499 
L 173.607734 209.790887 
L 173.68264 205.328185 
L 174.025012 200.878005 
L 174.633619 196.456363 
L 175.50627 192.079173 
L 176.639825 187.762186 
L 178.030204 183.520941 
L 179.672402 179.370699 
L 181.560511 175.326399 
L 183.687735 171.402595 
L 186.046418 167.613409 
L 188.628071 163.972477 
L 191.423404 160.492903 
L 194.582953 157.021037 
L 190.169125 157.683939 
L 185.723489 158.080979 
L 181.262045 158.210725 
L 176.800849 158.072712 
L 172.355956 157.667437 
L 167.943364 156.996357 
L 163.578952 156.061888 
L 159.278429 154.867392 
L 155.057271 153.41717 
L 150.93067 151.71644 
L 146.913478 149.771322 
L 143.020151 147.588818 
L 139.074294 145.045823 
L 140.456812 149.289638 
L 141.582366 153.608717 
L 142.446905 157.987517 
L 143.047318 162.410279 
L 143.381445 166.861085 
L 143.448081 171.323918 
L 143.246989 175.782717 
L 142.778891 180.221433 
L 142.045472 184.624093 
L 141.049371 188.974852 
L 139.794175 193.258051 
L 138.284399 197.458277 
L 136.427751 201.769828 
L 140.385079 199.705639 
L 144.459063 197.882462 
L 148.63504 196.306857 
L 152.897983 194.984497 
L 157.232549 193.920139 
L 161.623138 193.117615 
L 166.053949 192.579811 
L 170.509036 192.308665 
L 174.972365 192.305152 
L 179.427873 192.569284 
L 183.859525 193.10011 
L 188.251373 193.895722 
L 192.810285 195.015065 
L 190.121077 191.452835 
L 187.650315 187.735759 
L 185.406889 183.877215 
L 183.398874 179.89109 
L 181.633497 175.791729 
L 180.11711 171.593886 
L 178.855171 167.312668 
L 177.852222 162.963482 
L 177.111873 158.561983 
L 176.636787 154.124009 
L 176.428675 149.665533 
L 176.488286 145.2026 
L 176.839604 140.521448 
L 173.770238 143.761867 
L 170.512088 146.812404 
L 167.076878 149.662079 
L 163.476971 152.300638 
L 159.725324 154.718584 
L 155.835438 156.907215 
L 151.821313 158.858654 
L 147.697394 160.565879 
L 143.478525 162.022746 
L 139.179888 163.22401 
L 134.816953 164.165349 
L 130.405423 164.843375 
L 125.730507 165.269725 
L 120.226521 167.534169 
L 114.81749 170.016903 
L 109.512069 172.713955 
L 104.318745 175.621009 
L 99.245826 178.733416 
L 94.301428 182.046196 
L 89.493461 185.554049 
L 87.36 187.207726 
L 92.103544 190.802217 
L 96.987035 194.204143 
L 102.002661 197.408059 
L 107.142397 200.408841 
L 112.398021 203.201688 
L 117.761126 205.782133 
L 123.22313 208.146046 
L 128.775297 210.289646 
L 134.408744 212.209505 
L 140.114459 213.902549 
L 145.883313 215.366072 
L 151.706079 216.597732 
L 157.57344 217.595558 
L 163.47601 218.357953 
L 169.404346 218.8837 
L 175.348964 219.171955 
L 181.300355 219.222258 
L 187.248997 219.034529 
L 193.185373 218.609068 
L 199.099987 217.946556 
L 204.983377 217.048052 
L 210.826129 215.914994 
L 216.618898 214.549195 
L 222.352416 212.952839 
L 228.017511 211.12848 
L 233.605119 209.079037 
L 236.16 208.056228 
L 230.61125 205.9038 
L 224.980863 203.974983 
L 219.277849 202.272865 
L 213.51133 200.800168 
L 207.690531 199.559249 
L 201.824764 198.552092 
L 195.923414 197.780309 
L 191.151745 197.330748 
L 193.186843 202.923597 
L 195.443968 208.43059 
L 197.919508 213.842916 
L 200.609503 219.151919 
L 203.50965 224.349103 
L 206.615309 229.426156 
L 209.921512 234.374954 
L 213.42297 239.187581 
L 217.11408 243.856337 
L 220.988938 248.373754 
L 221.486427 248.928 
L 225.383847 244.430034 
L 229.098279 239.779811 
L 232.62378 234.98477 
L 236.16 229.734209 
L 232.841636 224.793556 
L 229.328354 219.989555 
L 225.625772 215.329891 
L 221.739816 210.822018 
L 217.676701 206.473147 
L 213.442927 202.290236 
L 209.045269 198.279977 
L 204.49076 194.448785 
L 199.786688 190.802789 
L 196.316971 188.299557 
L 192.454552 186.062808 
L 188.733209 183.598479 
L 185.166333 180.915436 
L 181.766762 178.023338 
L 178.546729 174.932592 
L 175.517825 171.654322 
L 172.690949 168.200325 
L 170.076276 164.583033 
L 167.683214 160.815464 
L 165.520378 156.911177 
L 163.59555 152.884224 
L 161.915658 148.749096 
L 160.486748 144.520676 
L 159.313962 140.214182 
L 158.70567 137.453601 
L 158.42249 141.907939 
L 157.87272 146.337281 
L 157.058337 150.725686 
L 155.982274 155.057361 
L 154.648403 159.316716 
L 153.061523 163.488422 
L 151.227347 167.557466 
L 149.152476 171.509203 
L 146.844376 175.329412 
L 144.311354 179.004343 
L 141.562527 182.520771 
L 138.607787 185.866041 
L 135.457769 189.028113 
L 132.123808 191.995608 
L 129.922759 193.769364 
L 134.037335 192.039745 
L 138.248222 190.559965 
L 142.540265 189.335349 
L 146.898018 188.370304 
L 151.305797 187.668305 
L 155.747739 187.231877 
L 160.207858 187.062591 
L 164.670102 187.161056 
L 169.118412 187.526918 
L 173.536779 188.15886 
L 177.909302 189.054608 
L 182.220244 190.210938 
L 186.45409 191.623689 
L 190.595603 193.287776 
L 193.16382 194.468914 
L 189.783174 191.554717 
L 186.583357 188.443046 
L 183.575887 185.145101 
L 180.771587 181.672751 
L 178.180549 178.038491 
L 175.812098 174.255403 
L 173.674759 170.3371 
L 171.776222 166.297684 
L 170.123321 162.151694 
L 168.722005 157.914049 
L 167.577317 153.600001 
L 166.693376 149.225077 
L 166.073364 144.80502 
L 165.719512 140.355738 
L 165.63369 137.530236 
L 164.529413 141.854804 
L 163.167804 146.105374 
L 161.553764 150.266647 
L 159.693103 154.323648 
L 157.592515 158.261776 
L 155.259562 162.066857 
L 152.702638 165.725199 
L 149.930947 169.223634 
L 146.954463 172.549571 
L 143.783899 175.691042 
L 140.430665 178.636741 
L 136.906829 181.376065 
L 133.225073 183.899157 
L 129.398647 186.196936 
L 126.90685 187.531767 
L 131.270801 186.59515 
L 135.683063 185.921899 
L 140.127755 185.514435 
L 144.588883 185.374227 
L 149.05039 185.501778 
L 153.496221 185.896629 
L 157.910375 186.55736 
L 162.276966 187.481592 
L 166.580278 188.665999 
L 170.804825 190.106319 
L 174.935403 191.797368 
L 178.957146 193.733059 
L 182.85558 195.906428 
L 186.616675 198.309651 
L 188.921319 199.946551 
L 186.139713 196.455994 
L 183.572421 192.804922 
L 181.228681 189.006475 
L 179.116929 185.074322 
L 177.244765 181.022617 
L 175.618925 176.86594 
L 174.245263 172.61925 
L 173.128721 168.297832 
L 172.273317 163.917238 
L 171.682131 159.493234 
L 171.35729 155.04174 
L 171.299962 150.578778 
L 171.510355 146.120409 
L 171.987711 141.682679 
L 172.427337 138.890268 
L 170.540268 142.935054 
L 168.414054 146.859405 
L 166.056346 150.649198 
L 163.475629 154.290794 
L 160.681191 157.771086 
L 157.68309 161.077551 
L 154.492115 164.198287 
L 151.11975 167.122064 
L 147.578132 169.83836 
L 143.880007 172.337398 
L 140.038685 174.610184 
L 136.067989 176.64854 
L 131.98221 178.445129 
L 127.796053 179.993486 
L 125.099945 180.843089 
L 129.561892 180.731964 
L 134.022473 180.888595 
L 138.465635 181.312419 
L 142.875388 182.00191 
L 147.235861 182.954587 
L 151.531361 184.167021 
L 155.74643 185.634849 
L 159.865896 187.352787 
L 163.874936 189.314654 
L 167.759119 191.513389 
L 171.504469 193.941079 
L 175.097505 196.588986 
L 178.525296 199.447581 
L 181.775506 202.506576 
L 183.736632 204.542457 
L 188.336578 208.318974 
L 193.083864 211.908522 
L 197.970897 215.305358 
L 202.989857 218.504047 
L 208.132717 221.499473 
L 213.391248 224.286844 
L 218.757037 226.861699 
L 224.221502 229.219921 
L 229.775899 231.357736 
L 235.411343 233.271724 
L 236.16 233.507232 
L 230.514539 235.391471 
L 224.948944 237.49996 
L 219.472117 239.829328 
L 214.092822 242.375846 
L 208.819662 245.135443 
L 203.661075 248.103702 
L 202.308907 248.928 
L 197.182201 245.905009 
L 191.938709 243.08945 
L 186.586819 240.485827 
L 181.135093 238.098305 
L 175.592252 235.930704 
L 169.967164 233.986491 
L 164.268828 232.268776 
L 158.506359 230.780309 
L 152.688977 229.523469 
L 146.825988 228.500268 
L 140.926772 227.712342 
L 135.000765 227.160952 
L 129.057449 226.846981 
L 123.106332 226.770929 
L 117.156934 226.93292 
L 111.218772 227.332694 
L 105.301348 227.969611 
L 99.414126 228.842653 
L 93.566526 229.950422 
L 87.36 231.394708 
L 93.154809 232.751828 
L 98.999252 233.876131 
L 104.883981 234.765819 
L 110.799581 235.41947 
L 116.736588 235.836037 
L 122.685505 236.014853 
L 128.636813 235.955633 
L 134.580993 235.658472 
L 140.508535 235.123845 
L 146.409957 234.352607 
L 152.275816 233.345992 
L 158.096729 232.10561 
L 163.863385 230.633446 
L 169.566557 228.931855 
L 175.197121 227.003559 
L 180.74607 224.851642 
L 186.204527 222.479549 
L 191.563759 219.891072 
L 196.815193 217.090354 
L 201.950428 214.081875 
L 206.961248 210.870448 
L 211.839637 207.461211 
L 216.577791 203.859616 
L 221.168129 200.071427 
L 225.603308 196.102704 
L 229.876233 191.959795 
L 233.980068 187.649329 
L 236.16 185.212739 
L 232.151859 180.81315 
L 227.970987 176.577363 
L 223.624074 172.512154 
L 219.118072 168.624027 
L 214.460191 164.919203 
L 209.657882 161.403607 
L 204.718829 158.082864 
L 199.650932 154.962288 
L 194.462298 152.046869 
L 189.116397 149.319518 
L 186.854168 143.81462 
L 184.373611 138.404591 
L 181.678695 133.098085 
L 178.773731 127.903591 
L 175.663366 122.82942 
L 172.352576 117.883689 
L 168.846659 113.074311 
L 165.151221 108.408978 
L 161.272177 103.895156 
L 157.782607 100.128 
L 153.750124 104.50529 
L 149.895913 109.040335 
L 146.226137 113.72588 
L 142.746669 118.554429 
L 139.463075 123.518257 
L 136.380607 128.609423 
L 133.504198 133.819783 
L 130.838448 139.141 
L 128.387622 144.564563 
L 126.155641 150.081795 
L 124.146076 155.683868 
L 122.362142 161.361822 
L 120.806692 167.106572 
L 119.482215 172.908929 
L 118.39083 178.759609 
L 117.534283 184.649253 
L 116.913944 190.568439 
L 116.530805 196.507697 
L 116.38548 202.457526 
L 116.478201 208.408407 
L 116.808819 214.35082 
L 117.376806 220.275258 
L 118.181253 226.172244 
L 119.220874 232.032344 
L 120.494004 237.846183 
L 121.998607 243.60446 
L 123.612022 248.928 
L 125.3308 243.229984 
L 126.820344 237.467794 
L 128.078271 231.650647 
L 129.102567 225.787849 
L 129.891594 219.88878 
L 130.444091 213.962877 
L 130.759173 208.01962 
L 130.836335 202.068517 
L 130.675456 196.119088 
L 130.611113 194.864835 
L 125.250615 192.278981 
L 119.790998 189.909558 
L 114.240997 187.760357 
L 108.60949 185.834816 
L 102.905486 184.136015 
L 97.138111 182.666672 
L 91.316591 181.429139 
L 87.36 180.725673 
L 93.212816 179.645798 
L 99.017766 178.332737 
L 104.765565 176.78859 
L 110.447017 175.015827 
L 116.053032 173.017285 
L 121.574643 170.796161 
L 124.926305 169.32042 
L 120.328456 165.541351 
L 115.583162 161.949169 
L 110.698015 158.549622 
L 105.68083 155.348148 
L 100.539633 152.349869 
L 95.28265 149.559582 
L 89.918289 146.981749 
L 87.36 145.843713 
L 92.771916 143.367275 
L 98.080471 140.676398 
L 103.277175 137.775388 
L 108.353711 134.668886 
L 113.301961 131.361862 
L 118.114006 127.859605 
L 122.782149 124.16772 
L 127.298923 120.292112 
L 131.6571 116.238981 
L 135.849709 112.014811 
L 139.870043 107.626361 
L 143.71167 103.08065 
L 146.046119 100.128 
L 149.771539 104.769425 
L 153.679586 109.258161 
L 157.764008 113.587026 
L 162.018273 117.749095 
L 166.435572 121.737709 
L 171.00884 125.546489 
L 175.730761 129.169339 
L 180.59378 132.600465 
L 185.590117 135.834378 
L 190.71178 138.865904 
L 195.950575 141.690193 
L 201.298121 144.302727 
L 206.745863 146.699327 
L 212.285086 148.876158 
L 217.906927 150.829738 
L 223.602395 152.556941 
L 229.362376 154.055005 
L 235.177657 155.321533 
L 236.16 155.511559 
L 230.336335 156.738956 
L 224.56641 158.198255 
L 218.859458 159.887123 
L 213.224607 161.802856 
L 207.670872 163.942392 
L 202.207138 166.302306 
L 198.400933 168.102892 
L 204.329065 168.630945 
L 210.27357 168.921514 
L 216.224941 168.974134 
L 222.173655 168.78872 
L 228.110197 168.36557 
L 234.025068 167.705359 
L 236.16 167.40798 
L 230.255313 166.662157 
L 224.325524 166.153055 
L 218.38012 165.881489 
L 212.428611 165.847893 
L 206.48052 166.05232 
L 200.545362 166.494444 
L 196.665017 166.965697 
L 192.229028 167.458968 
L 187.771442 167.685352 
L 183.308303 167.644034 
L 178.855673 167.335162 
L 174.429576 166.759849 
L 170.045942 165.920165 
L 165.720547 164.819131 
L 161.468957 163.46071 
L 157.306475 161.849792 
L 153.24808 159.992173 
L 149.308378 157.894539 
L 145.501548 155.56444 
L 141.84129 153.010261 
L 138.340778 150.241194 
L 132.268152 145.13576 
L 127.51513 141.553812 
L 122.622669 138.164799 
L 117.598597 134.974143 
L 112.450952 131.986949 
L 107.187968 129.207995 
L 101.818066 126.641727 
L 96.349836 124.292251 
L 90.792026 122.163324 
L 87.36 120.973929 
L 92.968119 118.981296 
L 98.492067 116.765992 
L 103.923009 114.331561 
L 109.252255 111.681897 
L 114.47128 108.82124 
L 119.571734 105.754166 
L 124.545459 102.485581 
L 127.88207 100.128 
L 132.764186 103.531899 
L 137.778515 106.737844 
L 142.917038 109.740704 
L 148.171532 112.535675 
L 153.533593 115.118288 
L 158.994641 117.484409 
L 164.545941 119.630255 
L 170.178611 121.552391 
L 175.883641 123.247742 
L 181.651903 124.713597 
L 187.47417 125.947611 
L 193.341127 126.947809 
L 199.243388 127.712592 
L 205.171512 128.240735 
L 211.116013 128.531394 
L 217.067383 128.584103 
L 223.0161 128.39878 
L 228.952648 127.975719 
L 234.867529 127.315598 
L 236.16 127.139353 
L 230.251133 126.427407 
L 224.318522 125.952321 
L 218.371658 125.714856 
L 212.420054 125.715393 
L 206.473233 125.953929 
L 200.540708 126.430085 
L 194.631969 127.143097 
L 188.75647 128.091825 
L 182.923609 129.274752 
L 177.142718 130.689985 
L 171.423046 132.33526 
L 165.773742 134.207944 
L 160.203845 136.305043 
L 156.982258 137.636088 
L 156.982258 137.636088 
" style="fill:none;stroke:#1f77b4;stroke-linecap:square;stroke-width:1.5;"/>
   </g>
   <g id="patch_5">
    <path d="M 57.6 263.808 
L 57.6 85.248 
" style="fill:none;stroke:#000000;stroke-linecap:square;stroke-linejoin:miter;stroke-width:0.8;"/>
   </g>
   <g id="patch_6">
    <path d="M 414.72 263.808 
L 414.72 85.248 
" style="fill:none;stroke:#000000;stroke-linecap:square;stroke-linejoin:miter;stroke-width:0.8;"/>
   </g>
   <g id="patch_7">
    <path d="M 57.6 263.808 
L 414.72 263.808 
" style="fill:none;stroke:#000000;stroke-linecap:square;stroke-linejoin:miter;stroke-width:0.8;"/>
   </g>
   <g id="patch_8">
    <path d="M 57.6 85.248 
L 414.72 85.248 
" style="fill:none;stroke:#000000;stroke-linecap:square;stroke-linejoin:miter;stroke-width:0.8;"/>
   </g>
  </g>
 </g>
 <defs>
  <clipPath id="p0cedeec84b">
   <rect height="178.56" width="357.12" x="57.6" y="85.248"/>
  </clipPath>
 </defs>
</svg>
