<?xml version="1.0" encoding="utf-8" standalone="no"?>
<!DOCTYPE svg PUBLIC "-//W3C//DTD SVG 1.1//EN"
  "http://www.w3.org/Graphics/SVG/1.1/DTD/svg11.dtd">
<!-- Created with matplotlib (http://matplotlib.org/) -->
<svg height="345.6pt" version="1.1" viewBox="0 0 460.8 345.6" width="460.8pt" xmlns="http://www.w3.org/2000/svg" xmlns:xlink="http://www.w3.org/1999/xlink">
 <defs>
  <style type="text/css">
*{stroke-linecap:butt;stroke-linejoin:round;}
  </style>
 </defs>
 <g id="figure_1">
  <g id="patch_1">
   <path d="M 0 345.6 
L 460.8 345.6 
L 460.8 0 
L 0 0 
z
" style="fill:#ffffff;"/>
  </g>
  <g id="axes_1">
   <g id="patch_2">
    <path d="M 57.6 263.808 
L 414.72 263.808 
L 414.72 85.248 
L 57.6 85.248 
z
" style="fill:#ffffff;"/>
   </g>
   <g id="PathCollection_1">
    <defs>
     <path d="M 0 3 
C 0.795609 3 1.55874 2.683901 2.12132 2.12132 
C 2.683901 1.55874 3 0.795609 3 0 
C 3 -0.795609 2.683901 -1.55874 2.12132 -2.12132 
C 1.55874 -2.683901 0.795609 -3 0 -3 
C -0.795609 -3 -1.55874 -2.683901 -2.12132 -2.12132 
C -2.683901 -1.55874 -3 -0.795609 -3 0 
C -3 0.795609 -2.683901 1.55874 -2.12132 2.12132 
C -1.55874 2.683901 -0.795609 3 0 3 
z
" id="m7e43cf9f01" style="stroke:#000000;"/>
    </defs>
    <g clip-path="url(#pba6d38c023)">
     <use style="stroke:#000000;" x="195.847268" xlink:href="#m7e43cf9f01" y="135.739389"/>
    </g>
   </g>
   <g id="patch_3">
    <path clip-path="url(#pba6d38c023)" d="M 161.76 211.728 
C 171.625555 211.728 181.088371 207.808373 188.064372 200.832372 
C 195.040373 193.856371 198.96 184.393555 198.96 174.528 
C 198.96 164.662445 195.040373 155.199629 188.064372 148.223628 
C 181.088371 141.247627 171.625555 137.328 161.76 137.328 
C 151.894445 137.328 142.431629 141.247627 135.455628 148.223628 
C 128.479627 155.199629 124.56 164.662445 124.56 174.528 
C 124.56 184.393555 128.479627 193.856371 135.455628 200.832372 
C 142.431629 207.808373 151.894445 211.728 161.76 211.728 
z
" style="fill:#cc0000;fill-opacity:0.1;stroke:#cc0000;stroke-dasharray:7.4,3.2;stroke-dashoffset:0;stroke-linejoin:miter;stroke-width:2;"/>
   </g>
   <g id="patch_4">
    <path clip-path="url(#pba6d38c023)" d="M 310.56 196.848 
C 316.479333 196.848 322.157023 194.496224 326.342623 190.310623 
C 330.528224 186.125023 332.88 180.447333 332.88 174.528 
C 332.88 168.608667 330.528224 162.930977 326.342623 158.745377 
C 322.157023 154.559776 316.479333 152.208 310.56 152.208 
C 304.640667 152.208 298.962977 154.559776 294.777377 158.745377 
C 290.591776 162.930977 288.24 168.608667 288.24 174.528 
C 288.24 180.447333 290.591776 186.125023 294.777377 190.310623 
C 298.962977 194.496224 304.640667 196.848 310.56 196.848 
z
" style="fill:#cc0000;fill-opacity:0.1;stroke:#cc0000;stroke-dasharray:7.4,3.2;stroke-dashoffset:0;stroke-linejoin:miter;stroke-width:2;"/>
   </g>
   <g id="matplotlib.axis_1">
    <g id="xtick_1">
     <g id="line2d_1">
      <defs>
       <path d="M 0 0 
L 0 3.5 
" id="m956e2f1612" style="stroke:#000000;stroke-width:0.8;"/>
      </defs>
      <g>
       <use style="stroke:#000000;stroke-width:0.8;" x="87.36" xlink:href="#m956e2f1612" y="263.808"/>
      </g>
     </g>
     <g id="text_1">
      <!-- 0.0 -->
      <defs>
       <path d="M 31.78125 66.40625 
Q 24.171875 66.40625 20.328125 58.90625 
Q 16.5 51.421875 16.5 36.375 
Q 16.5 21.390625 20.328125 13.890625 
Q 24.171875 6.390625 31.78125 6.390625 
Q 39.453125 6.390625 43.28125 13.890625 
Q 47.125 21.390625 47.125 36.375 
Q 47.125 51.421875 43.28125 58.90625 
Q 39.453125 66.40625 31.78125 66.40625 
z
M 31.78125 74.21875 
Q 44.046875 74.21875 50.515625 64.515625 
Q 56.984375 54.828125 56.984375 36.375 
Q 56.984375 17.96875 50.515625 8.265625 
Q 44.046875 -1.421875 31.78125 -1.421875 
Q 19.53125 -1.421875 13.0625 8.265625 
Q 6.59375 17.96875 6.59375 36.375 
Q 6.59375 54.828125 13.0625 64.515625 
Q 19.53125 74.21875 31.78125 74.21875 
z
" id="DejaVuSans-30"/>
       <path d="M 10.6875 12.40625 
L 21 12.40625 
L 21 0 
L 10.6875 0 
z
" id="DejaVuSans-2e"/>
      </defs>
      <g transform="translate(79.408438 278.406437)scale(0.1 -0.1)">
       <use xlink:href="#DejaVuSans-30"/>
       <use x="63.623047" xlink:href="#DejaVuSans-2e"/>
       <use x="95.410156" xlink:href="#DejaVuSans-30"/>
      </g>
     </g>
    </g>
    <g id="xtick_2">
     <g id="line2d_2">
      <g>
       <use style="stroke:#000000;stroke-width:0.8;" x="161.76" xlink:href="#m956e2f1612" y="263.808"/>
      </g>
     </g>
     <g id="text_2">
      <!-- 0.5 -->
      <defs>
       <path d="M 10.796875 72.90625 
L 49.515625 72.90625 
L 49.515625 64.59375 
L 19.828125 64.59375 
L 19.828125 46.734375 
Q 21.96875 47.46875 24.109375 47.828125 
Q 26.265625 48.1875 28.421875 48.1875 
Q 40.625 48.1875 47.75 41.5 
Q 54.890625 34.8125 54.890625 23.390625 
Q 54.890625 11.625 47.5625 5.09375 
Q 40.234375 -1.421875 26.90625 -1.421875 
Q 22.3125 -1.421875 17.546875 -0.640625 
Q 12.796875 0.140625 7.71875 1.703125 
L 7.71875 11.625 
Q 12.109375 9.234375 16.796875 8.0625 
Q 21.484375 6.890625 26.703125 6.890625 
Q 35.15625 6.890625 40.078125 11.328125 
Q 45.015625 15.765625 45.015625 23.390625 
Q 45.015625 31 40.078125 35.4375 
Q 35.15625 39.890625 26.703125 39.890625 
Q 22.75 39.890625 18.8125 39.015625 
Q 14.890625 38.140625 10.796875 36.28125 
z
" id="DejaVuSans-35"/>
      </defs>
      <g transform="translate(153.808437 278.406437)scale(0.1 -0.1)">
       <use xlink:href="#DejaVuSans-30"/>
       <use x="63.623047" xlink:href="#DejaVuSans-2e"/>
       <use x="95.410156" xlink:href="#DejaVuSans-35"/>
      </g>
     </g>
    </g>
    <g id="xtick_3">
     <g id="line2d_3">
      <g>
       <use style="stroke:#000000;stroke-width:0.8;" x="236.16" xlink:href="#m956e2f1612" y="263.808"/>
      </g>
     </g>
     <g id="text_3">
      <!-- 1.0 -->
      <defs>
       <path d="M 12.40625 8.296875 
L 28.515625 8.296875 
L 28.515625 63.921875 
L 10.984375 60.40625 
L 10.984375 69.390625 
L 28.421875 72.90625 
L 38.28125 72.90625 
L 38.28125 8.296875 
L 54.390625 8.296875 
L 54.390625 0 
L 12.40625 0 
z
" id="DejaVuSans-31"/>
      </defs>
      <g transform="translate(228.208437 278.406437)scale(0.1 -0.1)">
       <use xlink:href="#DejaVuSans-31"/>
       <use x="63.623047" xlink:href="#DejaVuSans-2e"/>
       <use x="95.410156" xlink:href="#DejaVuSans-30"/>
      </g>
     </g>
    </g>
    <g id="xtick_4">
     <g id="line2d_4">
      <g>
       <use style="stroke:#000000;stroke-width:0.8;" x="310.56" xlink:href="#m956e2f1612" y="263.808"/>
      </g>
     </g>
     <g id="text_4">
      <!-- 1.5 -->
      <g transform="translate(302.608437 278.406437)scale(0.1 -0.1)">
       <use xlink:href="#DejaVuSans-31"/>
       <use x="63.623047" xlink:href="#DejaVuSans-2e"/>
       <use x="95.410156" xlink:href="#DejaVuSans-35"/>
      </g>
     </g>
    </g>
    <g id="xtick_5">
     <g id="line2d_5">
      <g>
       <use style="stroke:#000000;stroke-width:0.8;" x="384.96" xlink:href="#m956e2f1612" y="263.808"/>
      </g>
     </g>
     <g id="text_5">
      <!-- 2.0 -->
      <defs>
       <path d="M 19.1875 8.296875 
L 53.609375 8.296875 
L 53.609375 0 
L 7.328125 0 
L 7.328125 8.296875 
Q 12.9375 14.109375 22.625 23.890625 
Q 32.328125 33.6875 34.8125 36.53125 
Q 39.546875 41.84375 41.421875 45.53125 
Q 43.3125 49.21875 43.3125 52.78125 
Q 43.3125 58.59375 39.234375 62.25 
Q 35.15625 65.921875 28.609375 65.921875 
Q 23.96875 65.921875 18.8125 64.3125 
Q 13.671875 62.703125 7.8125 59.421875 
L 7.8125 69.390625 
Q 13.765625 71.78125 18.9375 73 
Q 24.125 74.21875 28.421875 74.21875 
Q 39.75 74.21875 46.484375 68.546875 
Q 53.21875 62.890625 53.21875 53.421875 
Q 53.21875 48.921875 51.53125 44.890625 
Q 49.859375 40.875 45.40625 35.40625 
Q 44.1875 33.984375 37.640625 27.21875 
Q 31.109375 20.453125 19.1875 8.296875 
z
" id="DejaVuSans-32"/>
      </defs>
      <g transform="translate(377.008437 278.406437)scale(0.1 -0.1)">
       <use xlink:href="#DejaVuSans-32"/>
       <use x="63.623047" xlink:href="#DejaVuSans-2e"/>
       <use x="95.410156" xlink:href="#DejaVuSans-30"/>
      </g>
     </g>
    </g>
   </g>
   <g id="matplotlib.axis_2">
    <g id="ytick_1">
     <g id="line2d_6">
      <defs>
       <path d="M 0 0 
L -3.5 0 
" id="mb5874186b5" style="stroke:#000000;stroke-width:0.8;"/>
      </defs>
      <g>
       <use style="stroke:#000000;stroke-width:0.8;" x="57.6" xlink:href="#mb5874186b5" y="248.928"/>
      </g>
     </g>
     <g id="text_6">
      <!-- 0.0 -->
      <g transform="translate(34.696875 252.727219)scale(0.1 -0.1)">
       <use xlink:href="#DejaVuSans-30"/>
       <use x="63.623047" xlink:href="#DejaVuSans-2e"/>
       <use x="95.410156" xlink:href="#DejaVuSans-30"/>
      </g>
     </g>
    </g>
    <g id="ytick_2">
     <g id="line2d_7">
      <g>
       <use style="stroke:#000000;stroke-width:0.8;" x="57.6" xlink:href="#mb5874186b5" y="219.168"/>
      </g>
     </g>
     <g id="text_7">
      <!-- 0.2 -->
      <g transform="translate(34.696875 222.967219)scale(0.1 -0.1)">
       <use xlink:href="#DejaVuSans-30"/>
       <use x="63.623047" xlink:href="#DejaVuSans-2e"/>
       <use x="95.410156" xlink:href="#DejaVuSans-32"/>
      </g>
     </g>
    </g>
    <g id="ytick_3">
     <g id="line2d_8">
      <g>
       <use style="stroke:#000000;stroke-width:0.8;" x="57.6" xlink:href="#mb5874186b5" y="189.408"/>
      </g>
     </g>
     <g id="text_8">
      <!-- 0.4 -->
      <defs>
       <path d="M 37.796875 64.3125 
L 12.890625 25.390625 
L 37.796875 25.390625 
z
M 35.203125 72.90625 
L 47.609375 72.90625 
L 47.609375 25.390625 
L 58.015625 25.390625 
L 58.015625 17.1875 
L 47.609375 17.1875 
L 47.609375 0 
L 37.796875 0 
L 37.796875 17.1875 
L 4.890625 17.1875 
L 4.890625 26.703125 
z
" id="DejaVuSans-34"/>
      </defs>
      <g transform="translate(34.696875 193.207219)scale(0.1 -0.1)">
       <use xlink:href="#DejaVuSans-30"/>
       <use x="63.623047" xlink:href="#DejaVuSans-2e"/>
       <use x="95.410156" xlink:href="#DejaVuSans-34"/>
      </g>
     </g>
    </g>
    <g id="ytick_4">
     <g id="line2d_9">
      <g>
       <use style="stroke:#000000;stroke-width:0.8;" x="57.6" xlink:href="#mb5874186b5" y="159.648"/>
      </g>
     </g>
     <g id="text_9">
      <!-- 0.6 -->
      <defs>
       <path d="M 33.015625 40.375 
Q 26.375 40.375 22.484375 35.828125 
Q 18.609375 31.296875 18.609375 23.390625 
Q 18.609375 15.53125 22.484375 10.953125 
Q 26.375 6.390625 33.015625 6.390625 
Q 39.65625 6.390625 43.53125 10.953125 
Q 47.40625 15.53125 47.40625 23.390625 
Q 47.40625 31.296875 43.53125 35.828125 
Q 39.65625 40.375 33.015625 40.375 
z
M 52.59375 71.296875 
L 52.59375 62.3125 
Q 48.875 64.0625 45.09375 64.984375 
Q 41.3125 65.921875 37.59375 65.921875 
Q 27.828125 65.921875 22.671875 59.328125 
Q 17.53125 52.734375 16.796875 39.40625 
Q 19.671875 43.65625 24.015625 45.921875 
Q 28.375 48.1875 33.59375 48.1875 
Q 44.578125 48.1875 50.953125 41.515625 
Q 57.328125 34.859375 57.328125 23.390625 
Q 57.328125 12.15625 50.6875 5.359375 
Q 44.046875 -1.421875 33.015625 -1.421875 
Q 20.359375 -1.421875 13.671875 8.265625 
Q 6.984375 17.96875 6.984375 36.375 
Q 6.984375 53.65625 15.1875 63.9375 
Q 23.390625 74.21875 37.203125 74.21875 
Q 40.921875 74.21875 44.703125 73.484375 
Q 48.484375 72.75 52.59375 71.296875 
z
" id="DejaVuSans-36"/>
      </defs>
      <g transform="translate(34.696875 163.447219)scale(0.1 -0.1)">
       <use xlink:href="#DejaVuSans-30"/>
       <use x="63.623047" xlink:href="#DejaVuSans-2e"/>
       <use x="95.410156" xlink:href="#DejaVuSans-36"/>
      </g>
     </g>
    </g>
    <g id="ytick_5">
     <g id="line2d_10">
      <g>
       <use style="stroke:#000000;stroke-width:0.8;" x="57.6" xlink:href="#mb5874186b5" y="129.888"/>
      </g>
     </g>
     <g id="text_10">
      <!-- 0.8 -->
      <defs>
       <path d="M 31.78125 34.625 
Q 24.75 34.625 20.71875 30.859375 
Q 16.703125 27.09375 16.703125 20.515625 
Q 16.703125 13.921875 20.71875 10.15625 
Q 24.75 6.390625 31.78125 6.390625 
Q 38.8125 6.390625 42.859375 10.171875 
Q 46.921875 13.96875 46.921875 20.515625 
Q 46.921875 27.09375 42.890625 30.859375 
Q 38.875 34.625 31.78125 34.625 
z
M 21.921875 38.8125 
Q 15.578125 40.375 12.03125 44.71875 
Q 8.5 49.078125 8.5 55.328125 
Q 8.5 64.0625 14.71875 69.140625 
Q 20.953125 74.21875 31.78125 74.21875 
Q 42.671875 74.21875 48.875 69.140625 
Q 55.078125 64.0625 55.078125 55.328125 
Q 55.078125 49.078125 51.53125 44.71875 
Q 48 40.375 41.703125 38.8125 
Q 48.828125 37.15625 52.796875 32.3125 
Q 56.78125 27.484375 56.78125 20.515625 
Q 56.78125 9.90625 50.3125 4.234375 
Q 43.84375 -1.421875 31.78125 -1.421875 
Q 19.734375 -1.421875 13.25 4.234375 
Q 6.78125 9.90625 6.78125 20.515625 
Q 6.78125 27.484375 10.78125 32.3125 
Q 14.796875 37.15625 21.921875 38.8125 
z
M 18.3125 54.390625 
Q 18.3125 48.734375 21.84375 45.5625 
Q 25.390625 42.390625 31.78125 42.390625 
Q 38.140625 42.390625 41.71875 45.5625 
Q 45.3125 48.734375 45.3125 54.390625 
Q 45.3125 60.0625 41.71875 63.234375 
Q 38.140625 66.40625 31.78125 66.40625 
Q 25.390625 66.40625 21.84375 63.234375 
Q 18.3125 60.0625 18.3125 54.390625 
z
" id="DejaVuSans-38"/>
      </defs>
      <g transform="translate(34.696875 133.687219)scale(0.1 -0.1)">
       <use xlink:href="#DejaVuSans-30"/>
       <use x="63.623047" xlink:href="#DejaVuSans-2e"/>
       <use x="95.410156" xlink:href="#DejaVuSans-38"/>
      </g>
     </g>
    </g>
    <g id="ytick_6">
     <g id="line2d_11">
      <g>
       <use style="stroke:#000000;stroke-width:0.8;" x="57.6" xlink:href="#mb5874186b5" y="100.128"/>
      </g>
     </g>
     <g id="text_11">
      <!-- 1.0 -->
      <g transform="translate(34.696875 103.927219)scale(0.1 -0.1)">
       <use xlink:href="#DejaVuSans-31"/>
       <use x="63.623047" xlink:href="#DejaVuSans-2e"/>
       <use x="95.410156" xlink:href="#DejaVuSans-30"/>
      </g>
     </g>
    </g>
   </g>
   <g id="line2d_12">
    <path clip-path="url(#pba6d38c023)" d="M 236.16 248.928 
L 236.16 100.128 
" style="fill:none;stroke:#cc0000;stroke-dasharray:7.4,3.2;stroke-dashoffset:0;stroke-width:2;"/>
   </g>
   <g id="line2d_13">
    <path clip-path="url(#pba6d38c023)" d="M 87.36 248.928 
L 384.96 248.928 
" style="fill:none;stroke:#009900;stroke-linecap:square;stroke-width:2;"/>
   </g>
   <g id="line2d_14">
    <path clip-path="url(#pba6d38c023)" d="M 384.96 248.928 
L 384.96 100.128 
" style="fill:none;stroke:#009900;stroke-linecap:square;stroke-width:2;"/>
   </g>
   <g id="line2d_15">
    <path clip-path="url(#pba6d38c023)" d="M 384.96 100.128 
L 87.36 100.128 
" style="fill:none;stroke:#009900;stroke-linecap:square;stroke-width:2;"/>
   </g>
   <g id="line2d_16">
    <path clip-path="url(#pba6d38c023)" d="M 87.36 100.128 
L 87.36 248.928 
" style="fill:none;stroke:#009900;stroke-linecap:square;stroke-width:2;"/>
   </g>
   <g id="line2d_17">
    <path clip-path="url(#pba6d38c023)" d="M 195.847268 135.739389 
L 193.750445 141.309391 
L 191.87804 146.958787 
L 190.660683 151.105991 
L 188.10247 154.76343 
L 185.329545 158.260887 
L 182.351888 161.585775 
L 179.180216 164.726128 
L 175.825943 167.670643 
L 172.301141 170.408724 
L 168.618495 172.930517 
L 164.79126 175.226946 
L 160.833208 177.289747 
L 156.758585 179.111494 
L 152.582054 180.685633 
L 148.318648 182.006498 
L 143.983709 183.069334 
L 139.592838 183.870319 
L 135.161839 184.406567 
L 130.706657 184.67615 
L 125.969074 184.669481 
L 129.761325 182.315727 
L 133.687891 180.193608 
L 137.734643 178.310759 
L 141.887016 176.673959 
L 146.130066 175.289096 
L 150.448523 174.161156 
L 154.826845 173.294197 
L 159.249274 172.691341 
L 163.699896 172.354755 
L 168.162691 172.285653 
L 172.6216 172.484281 
L 177.060574 172.949927 
L 181.463638 173.680913 
L 185.814947 174.674609 
L 190.09884 175.927439 
L 194.299899 177.434894 
L 198.651682 179.307517 
L 203.096286 183.265683 
L 207.69562 187.042945 
L 212.442325 190.633262 
L 217.328807 194.03089 
L 222.347249 197.230392 
L 227.489623 200.226651 
L 232.747703 203.014874 
L 236.16 204.683485 
L 243.438644 206.223633 
L 250.753514 207.581352 
L 258.100037 208.755794 
L 265.473622 209.746225 
L 272.869662 210.552027 
L 280.283533 211.172694 
L 287.710603 211.607841 
L 295.14623 211.857194 
L 302.585766 211.920597 
L 310.024562 211.798012 
L 317.457969 211.489515 
L 324.881342 210.995298 
L 332.290042 210.315671 
L 339.679437 209.451058 
L 347.04491 208.401999 
L 354.381857 207.16915 
L 361.685695 205.753283 
L 368.951856 204.15528 
L 376.175801 202.376142 
L 383.353016 200.41698 
L 384.96 199.951772 
L 377.793913 197.952294 
L 370.580083 196.132575 
L 363.323019 194.493751 
L 356.027257 193.036847 
L 348.697356 191.762773 
L 341.337896 190.672326 
L 333.953478 189.766187 
L 327.44736 189.122501 
L 329.255798 196.339167 
L 331.244068 203.508372 
L 333.410929 210.625635 
L 335.755025 217.686508 
L 338.274893 224.686578 
L 340.968956 231.621471 
L 343.835532 238.486852 
L 346.872829 245.278431 
L 348.590138 248.928 
L 351.719201 242.178209 
L 354.678559 235.352308 
L 357.466363 228.454565 
L 360.08087 221.489289 
L 362.520446 214.460833 
L 364.783567 207.373591 
L 366.868818 200.231992 
L 368.774896 193.040498 
L 370.50061 185.803604 
L 372.044881 178.525834 
L 373.406744 171.211734 
L 374.585348 163.865878 
L 375.579956 156.492855 
L 376.389948 149.097273 
L 377.014816 141.683754 
L 377.45417 134.256932 
L 377.707735 126.821448 
L 377.775354 119.381949 
L 377.656983 111.943085 
L 377.352697 104.509504 
L 377.086034 100.128 
L 376.672138 107.556284 
L 376.44406 114.992594 
L 376.401941 122.432281 
L 376.545809 129.870696 
L 376.875572 137.30319 
L 377.391025 144.725119 
L 378.091846 152.131843 
L 378.977597 159.518735 
L 380.047725 166.881176 
L 381.301559 174.214567 
L 382.738318 181.514323 
L 384.357102 188.775883 
L 384.96 191.281079 
L 383.278404 198.528351 
L 381.778496 205.815394 
L 380.461214 213.137653 
L 379.327381 220.490554 
L 378.377705 227.869499 
L 377.612781 235.269878 
L 377.033086 242.687065 
L 376.689516 248.928 
L 376.265721 241.500274 
L 375.656384 234.085463 
L 374.861887 226.6882 
L 373.882726 219.31311 
L 372.719513 211.9648 
L 371.372975 204.647864 
L 369.843953 197.366875 
L 368.133403 190.126382 
L 366.242394 182.930911 
L 364.172108 175.784959 
L 361.923839 168.692991 
L 359.498991 161.659441 
L 356.899081 154.688703 
L 354.125733 147.785135 
L 351.18068 140.95305 
L 348.065764 134.196719 
L 344.78293 127.520364 
L 341.33423 120.928157 
L 337.72182 114.424219 
L 333.947957 108.012614 
L 330.015 101.697349 
L 329.003261 100.128 
L 325.030759 106.418464 
L 321.216743 112.806265 
L 317.563597 119.28741 
L 314.073604 125.857849 
L 310.748946 132.513476 
L 307.5917 139.25013 
L 304.60384 146.063603 
L 301.287364 154.225276 
L 294.249661 151.812506 
L 287.153845 149.576415 
L 280.004349 147.518399 
L 272.805642 145.639745 
L 265.562224 143.941628 
L 258.27862 142.425107 
L 250.959383 141.091132 
L 243.609088 139.940535 
L 236.16 138.965487 
L 243.536997 138.000793 
L 250.887574 136.851995 
L 258.207137 135.519811 
L 265.491111 134.005073 
L 272.734945 132.308728 
L 279.934111 130.431836 
L 287.084111 128.37557 
L 294.180474 126.141215 
L 301.218767 123.730168 
L 308.194591 121.143935 
L 315.103586 118.384133 
L 321.941434 115.452487 
L 328.703862 112.350828 
L 335.386643 109.081096 
L 341.985601 105.645333 
L 348.496612 102.045687 
L 351.815279 100.128 
L 358.27939 103.811203 
L 364.833551 107.33167 
L 371.473667 110.687199 
L 378.195588 113.875695 
L 384.96 116.880091 
L 378.160864 119.900433 
L 371.439353 123.089791 
L 364.799668 126.446173 
L 358.245958 129.967481 
L 351.78232 133.651514 
L 345.412793 137.495971 
L 339.141358 141.498447 
L 332.971934 145.656442 
L 326.908377 149.967358 
L 320.684486 154.636364 
L 316.793943 159.140279 
L 312.726402 163.485011 
L 308.488373 167.66361 
L 304.086634 171.66939 
L 299.528228 175.495944 
L 294.820446 179.137149 
L 289.793033 182.70819 
L 295.69161 181.915487 
L 301.617168 181.359299 
L 307.560227 181.040515 
L 313.511281 180.959645 
L 319.460809 181.116818 
L 325.399292 181.511783 
L 331.530557 182.171177 
L 326.588973 178.8542 
L 321.783986 175.342266 
L 317.123283 171.640993 
L 312.614318 167.756302 
L 308.264307 163.694408 
L 304.080208 159.461809 
L 299.927081 154.903438 
L 293.865308 150.590015 
L 287.697604 146.429469 
L 281.427824 142.4244 
L 275.059887 138.57731 
L 268.597773 134.890604 
L 262.045521 131.366586 
L 255.407224 128.007459 
L 248.687032 124.815321 
L 241.889146 121.792169 
L 236.16 119.400103 
L 231.806023 115.34246 
L 227.293267 111.462175 
L 222.62895 107.765456 
L 217.820535 104.258217 
L 212.875714 100.946069 
L 211.585397 100.128 
L 206.60683 103.389204 
L 201.762658 106.846888 
L 197.060632 110.495522 
L 192.508273 114.329268 
L 188.112865 118.341994 
L 183.881439 122.527279 
L 179.820764 126.878429 
L 175.937337 131.388481 
L 172.23737 136.050222 
L 170.505567 138.370635 
L 169.458873 132.511794 
L 168.178725 126.699497 
L 166.667172 120.943041 
L 164.92663 115.251635 
L 162.959886 109.634385 
L 160.770084 104.100277 
L 159.037229 100.128 
L 156.687193 105.59599 
L 154.557698 111.153582 
L 152.65215 116.791885 
L 150.973599 122.501881 
L 149.524729 128.274433 
L 148.307859 134.100307 
L 147.282523 140.260776 
L 142.395372 136.86411 
L 137.3763 133.665595 
L 132.233336 130.670348 
L 126.974708 127.883161 
L 121.608829 125.308492 
L 116.144283 122.950461 
L 110.589811 120.812839 
L 104.9543 118.899047 
L 99.246766 117.212146 
L 93.47634 115.754835 
L 87.36 114.474336 
L 93.186525 113.260589 
L 98.959853 111.814814 
L 104.670748 110.139324 
L 110.310072 108.236799 
L 115.868805 106.110283 
L 121.338053 103.763178 
L 126.709068 101.199239 
L 128.800956 100.128 
L 134.130806 102.776449 
L 139.562302 105.209643 
L 145.086755 107.423688 
L 150.695327 109.415043 
L 156.379047 111.180522 
L 162.12882 112.717301 
L 167.935449 114.022921 
L 173.789643 115.095294 
L 179.682039 115.932703 
L 185.603209 116.53381 
L 191.54368 116.897652 
L 197.49395 117.023647 
L 203.444498 116.911594 
L 209.385806 116.561673 
L 215.308368 115.974443 
L 221.202709 115.150842 
L 227.059401 114.09219 
L 232.869073 112.80018 
L 236.16 111.959019 
L 230.381333 110.534733 
L 224.550332 109.342672 
L 218.676326 108.384743 
L 212.768711 107.662477 
L 206.836939 107.177031 
L 200.890498 106.92918 
L 194.938903 106.919322 
L 188.991675 107.147472 
L 183.058327 107.613265 
L 177.148352 108.315957 
L 171.271204 109.254422 
L 165.436286 110.42716 
L 159.652933 111.832294 
L 153.930396 113.467577 
L 148.27783 115.330392 
L 142.704278 117.41776 
L 137.218657 119.72634 
L 131.829743 122.25244 
L 126.546156 124.992019 
L 121.376349 127.940693 
L 116.328593 131.093746 
L 111.410964 134.446133 
L 106.631328 137.992491 
L 101.997331 141.727148 
L 97.516387 145.644127 
L 93.195666 149.737163 
L 89.042078 153.999708 
L 87.36 155.826761 
L 91.441871 160.158033 
L 95.693681 164.322608 
L 100.108629 168.313825 
L 104.679652 172.125299 
L 109.399436 175.750932 
L 114.260432 179.184924 
L 119.254863 182.421781 
L 124.374738 185.456325 
L 126.605588 186.693827 
L 124.361743 192.206243 
L 122.340131 197.803981 
L 120.543986 203.478084 
L 118.97618 209.219474 
L 117.639224 215.018968 
L 116.535254 220.867287 
L 115.666039 226.755075 
L 115.032967 232.672912 
L 114.637052 238.611332 
L 114.478927 244.560834 
L 114.514319 248.928 
L 114.387061 238.514904 
L 113.987293 232.576742 
L 113.350382 226.659317 
L 112.477347 220.772094 
L 111.369584 214.924493 
L 110.028865 209.125868 
L 108.457335 203.385495 
L 106.657509 197.712559 
L 104.632266 192.116134 
L 102.384845 186.605174 
L 99.918843 181.188495 
L 97.238203 175.874762 
L 94.347215 170.672477 
L 91.250504 165.589962 
L 87.953023 160.635348 
L 87.36 159.788117 
L 90.691835 154.85654 
L 93.823795 149.795669 
L 96.750868 144.613602 
L 99.468373 139.318628 
L 101.971962 133.919219 
L 104.257629 128.424011 
L 106.321718 122.841797 
L 108.160928 117.181506 
L 109.772314 111.452194 
L 111.153301 105.663027 
L 112.247732 100.128 
L 113.408252 105.96536 
L 114.801275 111.751643 
L 116.424574 117.477591 
L 118.275552 123.134044 
L 120.351246 128.711953 
L 122.648337 134.202395 
L 125.16315 139.596587 
L 127.891661 144.885897 
L 130.829506 150.061865 
L 132.07125 152.113315 
L 126.312016 150.612381 
L 120.497367 149.342955 
L 114.636606 148.307069 
L 108.739109 147.506379 
L 102.814309 146.942167 
L 96.871687 146.615335 
L 90.920748 146.526406 
L 87.36 146.587031 
L 88.847566 146.622726 
L 94.799166 146.616722 
L 100.745765 146.372722 
L 106.677851 145.891117 
L 112.585932 145.172677 
L 118.460557 144.218551 
L 124.292329 143.030266 
L 130.071917 141.609723 
L 135.790076 139.959195 
L 141.437657 138.081321 
L 147.005625 135.979107 
L 152.485074 133.655914 
L 157.867237 131.115461 
L 163.143503 128.36181 
L 168.305433 125.399368 
L 173.344767 122.232873 
L 178.253445 118.867391 
L 183.023612 115.308307 
L 187.647639 111.561314 
L 192.118127 107.632406 
L 196.427925 103.527869 
L 199.749926 100.128 
L 203.926422 104.368101 
L 208.269137 108.437795 
L 212.771122 112.330572 
L 217.425176 116.040203 
L 222.223852 119.560755 
L 227.159475 122.886594 
L 232.224148 126.012401 
L 236.16 128.254095 
L 231.002535 131.224303 
L 225.967972 134.398379 
L 221.064365 137.771245 
L 216.29956 141.337504 
L 211.681178 145.091453 
L 207.216608 149.027084 
L 202.912993 153.138103 
L 198.777217 157.417932 
L 196.144082 160.330292 
L 192.435928 162.814425 
L 188.585489 165.071732 
L 184.606622 167.09409 
L 180.513645 168.87422 
L 176.32129 170.405715 
L 172.044644 171.683064 
L 167.6991 172.70167 
L 163.300294 173.457866 
L 158.86406 173.948932 
L 154.406363 174.173099 
L 149.943245 174.129562 
L 145.490769 173.818477 
L 141.064958 173.240963 
L 136.681742 172.399099 
L 132.356895 171.295915 
L 128.105982 169.935381 
L 125.009466 168.762737 
L 129.468662 168.57066 
L 133.931351 168.64632 
L 138.381472 168.989445 
L 142.803011 169.598799 
L 147.180055 170.47219 
L 151.496849 171.606474 
L 155.73786 172.99757 
L 159.887824 174.64047 
L 163.931805 176.529262 
L 167.855249 178.657149 
L 171.644037 181.016473 
L 175.284532 183.598741 
L 178.763633 186.394662 
L 182.06882 189.394172 
L 185.188196 192.586477 
L 188.110535 195.960088 
L 190.144794 198.572614 
L 186.236767 196.416543 
L 182.465059 194.030011 
L 178.843244 191.421606 
L 175.384357 188.600716 
L 172.100846 185.577494 
L 169.004527 182.362819 
L 166.106546 178.968262 
L 163.41733 175.406038 
L 160.946559 171.688969 
L 158.703124 167.83043 
L 156.695099 163.84431 
L 154.929712 159.744953 
L 153.413315 155.547113 
L 152.151367 151.265898 
L 151.148408 146.916715 
L 150.408048 142.515217 
L 150.030106 139.225739 
L 152.245711 143.100325 
L 154.224993 147.100796 
L 155.960829 151.212753 
L 157.446971 155.421398 
L 158.678073 159.711586 
L 159.649702 164.067875 
L 160.358363 168.474588 
L 160.801503 172.915865 
L 160.97753 177.375723 
L 160.885809 181.838111 
L 160.526671 186.286969 
L 159.901407 190.706286 
L 159.012269 195.080158 
L 157.862455 199.392842 
L 156.456105 203.628819 
L 154.798279 207.772843 
L 153.409533 210.778651 
L 153.533371 206.317039 
L 153.924521 201.870881 
L 154.581577 197.456179 
L 155.502174 193.08882 
L 156.682999 188.784524 
L 158.119802 184.558779 
L 159.807412 180.426795 
L 161.739755 176.403442 
L 163.909878 172.503201 
L 166.309969 168.740106 
L 168.931392 165.127703 
L 171.764712 161.67899 
L 174.799732 158.406381 
L 178.02553 155.321653 
L 181.430496 152.435907 
L 185.002375 149.75953 
L 187.752255 147.915171 
L 185.32514 151.660892 
L 182.677784 155.254334 
L 179.819715 158.682564 
L 176.761218 161.933244 
L 173.513302 164.994674 
L 170.087654 167.855837 
L 166.496603 170.506436 
L 162.753074 172.936932 
L 158.870539 175.138577 
L 154.862972 177.103448 
L 150.744794 178.824474 
L 146.530827 180.29546 
L 142.236236 181.511113 
L 137.876478 182.467057 
L 133.467243 183.159853 
L 129.0244 183.587006 
L 125.716428 183.731311 
L 119.86893 182.623003 
L 113.981789 181.749419 
L 108.064423 181.111957 
L 102.126298 180.711637 
L 96.176915 180.549098 
L 90.22579 180.624601 
L 87.36 180.745968 
L 93.308563 180.936169 
L 99.259974 180.888339 
L 105.204712 180.602555 
L 111.133266 180.079273 
L 117.036153 179.31933 
L 122.903928 178.323943 
L 126.193414 177.76429 
L 130.635969 177.33415 
L 135.096323 177.171177 
L 139.558424 177.275959 
L 144.006212 177.648117 
L 148.42368 178.286313 
L 152.79493 179.18825 
L 157.104231 180.350681 
L 161.336073 181.769423 
L 165.475227 183.439371 
L 169.506795 185.354514 
L 173.41627 187.50796 
L 177.18958 189.891958 
L 180.813146 192.49793 
L 184.273927 195.316495 
L 187.559469 198.337511 
L 189.037451 199.821886 
L 185.692913 196.866317 
L 182.531622 193.715515 
L 179.564954 190.380819 
L 176.803586 186.87423 
L 174.257456 183.208368 
L 171.935728 179.396427 
L 169.846756 175.452125 
L 167.99806 171.389658 
L 166.396292 167.223645 
L 165.047218 162.969081 
L 163.955692 158.641277 
L 163.125642 154.255808 
L 162.560056 149.828458 
L 162.26097 145.37516 
L 162.229459 140.91194 
L 162.397836 137.333469 
L 163.021869 131.414671 
L 163.408715 125.475653 
L 163.557754 119.525917 
L 163.468747 113.574979 
L 163.141838 107.632361 
L 162.577549 101.707569 
L 162.386602 100.128 
L 161.758994 106.046419 
L 161.368562 111.985202 
L 161.21593 117.934848 
L 161.301343 123.885839 
L 161.624663 129.828653 
L 162.185374 135.753785 
L 162.441141 138.819608 
L 162.460111 143.282898 
L 162.21141 147.739294 
L 161.695933 152.172758 
L 160.915535 156.567334 
L 159.873025 160.907206 
L 158.572155 165.176756 
L 157.017606 169.360618 
L 155.214974 173.443734 
L 153.170746 177.411409 
L 150.892278 181.249365 
L 148.387771 184.943788 
L 145.666238 188.481383 
L 142.737475 191.849418 
L 139.612021 195.035773 
L 136.301124 198.028979 
L 134.32602 199.652027 
L 137.491936 196.505872 
L 140.840811 193.555218 
L 144.360593 190.810687 
L 148.038614 188.282154 
L 151.861638 185.97872 
L 155.815906 183.908675 
L 159.887186 182.079469 
L 164.060826 180.497684 
L 168.321807 179.169014 
L 172.654792 178.09824 
L 177.044188 177.289217 
L 181.474198 176.744855 
L 185.928879 176.467113 
L 190.392198 176.456992 
L 194.848092 176.714528 
L 198.865476 177.178222 
L 194.404223 177.042062 
L 189.959162 176.638632 
L 185.546292 175.969384 
L 181.181493 175.036727 
L 176.880474 173.844018 
L 172.658714 172.395548 
L 168.531407 170.696531 
L 164.513408 168.753082 
L 160.619175 166.572195 
L 156.862724 164.161718 
L 153.257575 161.530327 
L 149.816702 158.687492 
L 146.552489 155.643444 
L 143.476683 152.409138 
L 140.600353 148.996214 
L 138.175205 145.760007 
L 141.143361 149.093378 
L 143.906294 152.598734 
L 146.45406 156.263459 
L 148.77749 160.074364 
L 150.868221 164.017733 
L 152.718731 168.079374 
L 154.322358 172.244671 
L 155.673331 176.498633 
L 156.766789 180.825949 
L 157.598796 185.211047 
L 158.166358 189.638145 
L 158.467432 194.091309 
L 158.500935 198.554514 
L 158.266746 203.011696 
L 157.765707 207.446815 
L 157.082821 211.432796 
L 157.462959 206.985683 
L 158.10908 202.569368 
L 159.018859 198.199743 
L 160.18902 193.892535 
L 161.615354 189.663245 
L 163.292726 185.527094 
L 165.215099 181.498968 
L 167.375556 177.593364 
L 169.766321 173.824338 
L 172.37879 170.205453 
L 175.203561 166.749735 
L 178.230467 163.469619 
L 181.448615 160.376912 
L 184.846424 157.482743 
L 188.411664 154.797528 
L 191.775759 152.553145 
L 188.284925 155.334404 
L 184.633597 157.901333 
L 180.834917 160.244695 
L 176.902554 162.356056 
L 172.850662 164.227817 
L 168.693824 165.853243 
L 164.446998 167.226483 
L 160.125469 168.342595 
L 155.74479 169.197563 
L 151.320726 169.788309 
L 146.8692 170.112707 
L 142.406232 170.16959 
L 137.947884 169.958754 
L 133.510201 169.480957 
L 129.109155 168.737918 
L 125.166525 167.837886 
L 129.586166 168.460863 
L 133.960497 169.347738 
L 138.273775 170.495319 
L 142.510479 171.899477 
L 146.65536 173.555159 
L 150.693501 175.456404 
L 154.61037 177.596371 
L 158.391869 179.967359 
L 162.02439 182.560834 
L 165.494859 185.367462 
L 168.790786 188.377144 
L 171.90031 191.579046 
L 174.812239 194.961647 
L 177.516094 198.512771 
L 180.002145 202.21964 
L 182.059032 205.701535 
L 179.47301 202.063705 
L 177.109781 198.277352 
L 174.977848 194.356105 
L 173.084886 190.314074 
L 171.437707 186.165807 
L 170.042238 181.926233 
L 168.903502 177.610611 
L 168.025597 173.234471 
L 167.411683 168.813563 
L 167.063969 164.363797 
L 166.983707 159.901188 
L 167.171185 155.441797 
L 167.625728 151.001672 
L 168.345701 146.596793 
L 169.328513 142.243013 
L 170.442991 138.355557 
L 169.579044 142.734473 
L 168.454074 147.053705 
L 167.07213 151.297707 
L 165.438185 155.451204 
L 163.55812 159.49925 
L 161.438701 163.427275 
L 159.087556 167.221143 
L 156.513146 170.8672 
L 153.724737 174.352325 
L 150.732363 177.663973 
L 147.546794 180.790228 
L 144.179494 183.719838 
L 140.642583 186.442259 
L 136.948789 188.947694 
L 133.111406 191.227126 
L 129.522148 193.090352 
L 133.296069 190.70732 
L 137.206094 188.554875 
L 141.238153 186.640764 
L 145.377734 184.971876 
L 149.609939 183.554216 
L 153.919537 182.392888 
L 158.291018 181.49207 
L 162.708649 180.855005 
L 167.156532 180.483985 
L 171.618659 180.380346 
L 176.078972 180.54446 
L 180.521417 180.975737 
L 184.930007 181.672624 
L 189.288875 182.632615 
L 193.582336 183.852253 
L 197.402965 185.177836 
L 193.0779 184.075509 
L 188.826717 182.715816 
L 184.664717 181.103653 
L 180.606878 179.24482 
L 176.667803 177.146008 
L 172.86167 174.814769 
L 169.202177 172.259495 
L 165.702493 169.489381 
L 162.375214 166.514397 
L 159.232314 163.345249 
L 156.285104 159.993343 
L 153.544192 156.470742 
L 151.019441 152.790124 
L 148.719937 148.964735 
L 146.653958 145.008342 
L 144.989979 141.322483 
L 142.971086 135.723764 
L 140.729919 130.210257 
L 138.270064 124.790784 
L 135.595454 119.474014 
L 132.710371 114.268452 
L 129.619428 109.182427 
L 126.32757 104.224075 
L 123.38454 100.128 
L 119.926529 104.971939 
L 116.66499 109.950286 
L 113.605141 115.055079 
L 110.751877 120.278149 
L 108.109762 125.611142 
L 105.683023 131.045525 
L 103.475543 136.572605 
L 101.490853 142.183539 
L 99.732128 147.869352 
L 98.202181 153.620947 
L 96.903461 159.429123 
L 95.838045 165.284588 
L 95.007637 171.177974 
L 94.413566 177.099854 
L 94.056782 183.040753 
L 93.937856 188.991168 
L 94.056979 194.941579 
L 94.413959 200.882467 
L 95.008225 206.804327 
L 95.838828 212.697686 
L 96.904438 218.553115 
L 98.20335 224.361248 
L 99.733486 230.112793 
L 101.492399 235.798548 
L 103.477275 241.409416 
L 105.684937 246.936423 
L 106.544165 248.928 
L 108.832157 243.43376 
L 110.898607 237.852419 
L 112.740211 232.192907 
L 114.354022 226.464278 
L 115.737457 220.675695 
L 116.888304 214.83642 
L 117.804722 208.955795 
L 118.485245 203.043226 
L 118.928784 197.108173 
L 119.134629 191.160131 
L 119.102451 185.208614 
L 118.832302 179.263145 
L 118.324613 173.333235 
L 117.580198 167.428371 
L 116.600246 161.557998 
L 115.386326 155.731509 
L 113.94038 149.958224 
L 112.26472 144.247379 
L 110.362027 138.608111 
L 108.235347 133.049442 
L 105.888079 127.580263 
L 103.323981 122.209324 
L 100.547153 116.945219 
L 97.562038 111.796367 
L 94.373412 106.771007 
L 90.986376 101.877178 
L 89.70379 100.128 
L 87.36 103.365966 
L 90.881341 108.164064 
L 94.591738 112.817507 
L 98.485256 117.318851 
L 102.555665 121.660896 
L 106.796453 125.836695 
L 111.200837 129.839567 
L 115.761769 133.663109 
L 120.471955 137.301204 
L 125.323858 140.748031 
L 130.309716 143.998078 
L 135.421553 147.046143 
L 136.208884 147.49135 
L 139.643758 150.34143 
L 142.901549 153.392351 
L 145.970532 156.633132 
L 148.839662 160.05211 
L 151.498614 163.63698 
L 153.937818 167.37484 
L 156.148496 171.252239 
L 158.122691 175.255222 
L 159.853299 179.369382 
L 161.334092 183.579913 
L 162.559739 187.871662 
L 163.52583 192.229183 
L 164.228889 196.636793 
L 164.666384 201.07863 
L 164.836742 205.538708 
L 164.739349 210.000976 
L 164.637921 211.61651 
L 163.757925 207.24079 
L 163.141899 202.820176 
L 162.792059 198.370577 
L 162.709664 193.908007 
L 162.895011 189.448527 
L 163.347433 185.008185 
L 164.065301 180.602963 
L 165.046033 176.248714 
L 166.286097 171.961109 
L 167.781033 167.755578 
L 169.525458 163.647258 
L 171.513097 159.650933 
L 173.736794 155.780986 
L 176.188547 152.051344 
L 178.859532 148.475431 
L 181.740138 145.066116 
L 182.834504 143.873387 
L 187.437962 140.101152 
L 191.886888 136.147845 
L 196.174165 132.019791 
L 200.292935 127.723593 
L 204.236609 123.266125 
L 207.998876 118.654518 
L 211.57372 113.896149 
L 214.955419 108.99863 
L 218.138565 103.969797 
L 220.386236 100.128 
L 223.417549 105.249789 
L 226.651254 110.246261 
L 230.082179 115.109422 
L 233.704833 119.831493 
L 236.16 122.822017 
L 232.415793 127.4483 
L 228.859582 132.220611 
L 225.497058 137.131314 
L 222.333599 142.172555 
L 219.374266 147.336268 
L 216.623794 152.614192 
L 214.086583 157.997884 
L 211.766691 163.478731 
L 209.667831 169.047965 
L 207.793359 174.696676 
L 206.146275 180.415828 
L 204.729213 186.19627 
L 203.544441 192.028757 
L 202.593854 197.903956 
L 201.878973 203.812469 
L 201.400941 209.744843 
L 201.160523 215.691589 
L 201.158104 221.643191 
L 201.393687 227.59013 
L 201.866896 233.522891 
L 202.576974 239.431983 
L 203.522784 245.307953 
L 204.226448 248.928 
L 205.317584 243.077273 
L 206.173881 237.187593 
L 206.793969 231.268381 
L 207.176855 225.329106 
L 207.321927 219.379272 
L 207.228954 213.428395 
L 206.898083 207.485996 
L 206.329844 201.561581 
L 205.525146 195.664629 
L 204.485277 189.804574 
L 203.2119 183.990789 
L 201.707052 178.232576 
L 199.973141 172.539147 
L 198.356401 167.853915 
L 198.166918 161.905329 
L 197.739707 155.969078 
L 197.07545 150.05466 
L 196.175211 144.171536 
L 195.04043 138.329117 
L 193.672923 132.536751 
L 192.074876 126.803704 
L 190.248847 121.139148 
L 188.197757 115.552144 
L 185.924886 110.051632 
L 183.433872 104.646409 
L 181.145134 100.128 
L 178.471601 105.445312 
L 176.012842 110.865283 
L 173.772791 116.379242 
L 171.755032 121.97837 
L 169.962792 127.653707 
L 168.398938 133.396176 
L 167.374683 137.75416 
L 166.428313 142.116006 
L 165.222092 146.413255 
L 163.760361 150.630441 
L 162.048382 154.752388 
L 160.092314 158.76426 
L 157.899199 162.65162 
L 155.476928 166.400476 
L 152.83422 169.997337 
L 149.980585 173.429259 
L 146.926293 176.683889 
L 143.682336 179.749516 
L 140.26039 182.615105 
L 136.672769 185.270344 
L 132.932385 187.705677 
L 129.0527 189.912339 
L 125.526193 191.866039 
L 120.437094 194.951919 
L 115.475468 198.23884 
L 110.649253 201.721544 
L 105.96617 205.394459 
L 101.433709 209.25171 
L 97.059124 213.287126 
L 92.84941 217.494251 
L 88.811305 221.866353 
L 87.36 223.526778 
L 91.332867 227.958245 
L 95.479768 232.227296 
L 99.794068 236.3271 
L 104.268866 240.251099 
L 108.897003 243.993015 
L 113.671074 247.546861 
L 115.639495 248.928 
L 120.470372 245.451765 
L 125.158372 241.785126 
L 129.695995 237.933951 
L 134.075983 233.904399 
L 138.291329 229.702918 
L 142.335288 225.336229 
L 146.201392 220.811318 
L 149.883455 216.135423 
L 153.701597 210.844692 
L 154.805057 216.693107 
L 156.141508 222.492718 
L 157.708812 228.234245 
L 159.504463 233.908504 
L 161.525588 239.506418 
L 163.768952 245.01903 
L 165.518699 248.928 
L 167.91978 243.482232 
L 170.101168 237.944802 
L 172.059373 232.32457 
L 173.791262 226.630526 
L 175.294065 220.871779 
L 176.565378 215.057542 
L 177.603166 209.197118 
L 177.769707 208.106703 
L 182.954786 211.028438 
L 188.252556 213.740488 
L 193.654541 216.238514 
L 199.1521 218.51852 
L 204.736437 220.576859 
L 210.398619 222.410237 
L 216.129588 224.015722 
L 221.920174 225.390745 
L 227.761115 226.533107 
L 233.643066 227.440979 
L 236.16 227.756265 
L 243.592091 228.095006 
L 251.030327 228.247857 
L 258.470059 228.214725 
L 265.906639 227.995628 
L 273.335417 227.590705 
L 280.751753 227.000209 
L 288.15101 226.224508 
L 295.528564 225.264087 
L 302.879805 224.119547 
L 310.200139 222.791602 
L 317.484989 221.281083 
L 324.729804 219.588934 
L 331.930057 217.716212 
L 339.081245 215.664088 
L 346.178902 213.433844 
L 353.21859 211.026873 
L 360.195911 208.444682 
L 367.106503 205.688882 
L 373.946048 202.761196 
L 380.710271 199.663455 
L 384.96 197.611218 
L 378.245749 194.406603 
L 371.45349 191.370828 
L 364.587467 188.505791 
L 357.65197 185.813281 
L 350.651335 183.294983 
L 343.589937 180.952469 
L 336.472189 178.787203 
L 332.65276 177.704847 
L 326.852696 176.370368 
L 321.110636 174.805016 
L 315.435766 173.011295 
L 309.837165 170.992074 
L 304.323791 168.750584 
L 298.904461 166.290411 
L 293.587848 163.61549 
L 291.695761 162.598085 
L 296.44367 166.186809 
L 301.04427 169.962529 
L 305.490202 173.919203 
L 309.774352 178.050502 
L 313.889868 182.349817 
L 317.830166 186.81027 
L 321.588941 191.424724 
L 323.875369 194.250284 
L 328.836469 199.794488 
L 333.93461 205.212946 
L 339.166605 210.502269 
L 344.529185 215.659154 
L 350.018997 220.680376 
L 355.632612 225.562799 
L 361.36652 230.30337 
L 367.217138 234.899127 
L 373.18081 239.347198 
L 379.253809 243.644802 
L 384.96 247.480269 
L 382.772552 248.928 
L 376.535435 244.872253 
L 370.198883 240.973685 
L 363.766858 237.234733 
L 357.243378 233.657733 
L 350.632521 230.244921 
L 343.938418 226.998429 
L 337.165254 223.920287 
L 330.31726 221.012419 
L 323.398717 218.276641 
L 316.413949 215.714663 
L 309.36732 213.328087 
L 302.263236 211.118405 
L 295.106135 209.086996 
L 287.90049 207.235131 
L 280.650805 205.563967 
L 273.361611 204.074548 
L 266.037464 202.767806 
L 258.682939 201.644557 
L 251.302635 200.705502 
L 243.901163 199.95123 
L 236.16 199.361659 
L 243.578629 198.800711 
L 250.980917 198.054492 
L 258.362239 197.123468 
L 265.717981 196.008222 
L 273.043547 194.709449 
L 280.334357 193.227962 
L 287.585856 191.564687 
L 294.32612 189.846079 
L 299.580598 187.051076 
L 304.942644 184.468432 
L 310.403678 182.102278 
L 315.954965 179.9564 
L 321.587624 178.034231 
L 327.292644 176.338845 
L 332.876627 174.916004 
L 339.440477 171.413635 
L 345.914726 167.748282 
L 352.295328 163.922234 
L 358.578294 159.937883 
L 364.759699 155.79772 
L 370.835679 151.504331 
L 376.802437 147.060401 
L 382.656243 142.468705 
L 384.96 140.595661 
L 379.152295 135.945792 
L 373.23017 131.442554 
L 367.197326 127.088761 
L 361.057534 122.887133 
L 354.814631 118.840298 
L 348.472519 114.950783 
L 342.03516 111.22102 
L 335.506579 107.65334 
L 328.890855 104.249972 
L 322.192123 101.013043 
L 320.282998 100.128 
L 313.561546 103.317482 
L 306.921922 106.673986 
L 300.368278 110.195415 
L 293.904707 113.879567 
L 287.535251 117.72414 
L 281.26389 121.726732 
L 275.094542 125.884841 
L 269.031064 130.195868 
L 263.077246 134.657119 
L 257.236807 139.265806 
L 251.513399 144.019049 
L 245.910598 148.913876 
L 240.431906 153.94723 
L 236.16 158.052534 
L 235.684379 163.985102 
L 235.446379 169.931944 
L 235.446379 175.883548 
L 235.684379 181.83039 
L 236.16 187.762958 
L 235.684379 193.695527 
L 235.446379 199.642369 
L 235.446379 205.593972 
L 235.684379 211.540815 
L 236.16 217.473383 
L 235.684379 223.405951 
L 235.446379 229.352794 
L 235.446379 235.304397 
L 235.684379 241.25124 
L 236.16 247.183808 
L 235.995362 248.928 
L 235.3525 243.011218 
L 234.473544 237.124876 
L 233.3599 231.278392 
L 232.01335 225.481118 
L 230.436048 219.742329 
L 228.630517 214.071206 
L 226.599646 208.476821 
L 224.346684 202.968124 
L 221.875234 197.553928 
L 219.189252 192.242895 
L 216.293033 187.04352 
L 213.191212 181.964122 
L 209.888749 177.012827 
L 206.39093 172.197555 
L 202.703349 167.526011 
L 198.831905 163.005667 
L 195.947235 159.862634 
L 195.509813 153.927127 
L 194.835383 148.01386 
L 193.925026 142.132293 
L 192.780197 136.291835 
L 191.402727 130.50183 
L 189.794821 124.771541 
L 187.959051 119.110134 
L 185.898353 113.526667 
L 183.616024 108.030072 
L 181.115716 102.629142 
L 179.867306 100.128 
L 177.26598 105.481007 
L 174.880798 110.933758 
L 172.715576 116.477528 
L 170.773778 122.10345 
L 169.058509 127.802524 
L 167.572515 133.565631 
L 166.665894 137.652911 
L 166.905773 131.706144 
L 166.907653 125.754541 
L 166.67153 119.807623 
L 166.197783 113.874905 
L 165.487169 107.965878 
L 164.540826 102.089993 
L 164.170829 100.128 
L 164.170829 100.128 
" style="fill:none;stroke:#1f77b4;stroke-linecap:square;stroke-width:1.5;"/>
   </g>
   <g id="patch_5">
    <path d="M 57.6 263.808 
L 57.6 85.248 
" style="fill:none;stroke:#000000;stroke-linecap:square;stroke-linejoin:miter;stroke-width:0.8;"/>
   </g>
   <g id="patch_6">
    <path d="M 414.72 263.808 
L 414.72 85.248 
" style="fill:none;stroke:#000000;stroke-linecap:square;stroke-linejoin:miter;stroke-width:0.8;"/>
   </g>
   <g id="patch_7">
    <path d="M 57.6 263.808 
L 414.72 263.808 
" style="fill:none;stroke:#000000;stroke-linecap:square;stroke-linejoin:miter;stroke-width:0.8;"/>
   </g>
   <g id="patch_8">
    <path d="M 57.6 85.248 
L 414.72 85.248 
" style="fill:none;stroke:#000000;stroke-linecap:square;stroke-linejoin:miter;stroke-width:0.8;"/>
   </g>
  </g>
 </g>
 <defs>
  <clipPath id="pba6d38c023">
   <rect height="178.56" width="357.12" x="57.6" y="85.248"/>
  </clipPath>
 </defs>
</svg>
