<?xml version="1.0" encoding="utf-8" standalone="no"?>
<!DOCTYPE svg PUBLIC "-//W3C//DTD SVG 1.1//EN"
  "http://www.w3.org/Graphics/SVG/1.1/DTD/svg11.dtd">
<!-- Created with matplotlib (http://matplotlib.org/) -->
<svg height="345.6pt" version="1.1" viewBox="0 0 460.8 345.6" width="460.8pt" xmlns="http://www.w3.org/2000/svg" xmlns:xlink="http://www.w3.org/1999/xlink">
 <defs>
  <style type="text/css">
*{stroke-linecap:butt;stroke-linejoin:round;}
  </style>
 </defs>
 <g id="figure_1">
  <g id="patch_1">
   <path d="M 0 345.6 
L 460.8 345.6 
L 460.8 0 
L 0 0 
z
" style="fill:#ffffff;"/>
  </g>
  <g id="axes_1">
   <g id="patch_2">
    <path d="M 57.6 263.808 
L 414.72 263.808 
L 414.72 85.248 
L 57.6 85.248 
z
" style="fill:#ffffff;"/>
   </g>
   <g id="PathCollection_1">
    <defs>
     <path d="M 0 3 
C 0.795609 3 1.55874 2.683901 2.12132 2.12132 
C 2.683901 1.55874 3 0.795609 3 0 
C 3 -0.795609 2.683901 -1.55874 2.12132 -2.12132 
C 1.55874 -2.683901 0.795609 -3 0 -3 
C -0.795609 -3 -1.55874 -2.683901 -2.12132 -2.12132 
C -2.683901 -1.55874 -3 -0.795609 -3 0 
C -3 0.795609 -2.683901 1.55874 -2.12132 2.12132 
C -1.55874 2.683901 -0.795609 3 0 3 
z
" id="m49e22aaea6" style="stroke:#000000;"/>
    </defs>
    <g clip-path="url(#pc9e3de2559)">
     <use style="stroke:#000000;" x="95.349113" xlink:href="#m49e22aaea6" y="138.921208"/>
    </g>
   </g>
   <g id="patch_3">
    <path clip-path="url(#pc9e3de2559)" d="M 161.76 211.728 
C 171.625555 211.728 181.088371 207.808373 188.064372 200.832372 
C 195.040373 193.856371 198.96 184.393555 198.96 174.528 
C 198.96 164.662445 195.040373 155.199629 188.064372 148.223628 
C 181.088371 141.247627 171.625555 137.328 161.76 137.328 
C 151.894445 137.328 142.431629 141.247627 135.455628 148.223628 
C 128.479627 155.199629 124.56 164.662445 124.56 174.528 
C 124.56 184.393555 128.479627 193.856371 135.455628 200.832372 
C 142.431629 207.808373 151.894445 211.728 161.76 211.728 
z
" style="fill:#cc0000;fill-opacity:0.1;stroke:#cc0000;stroke-dasharray:7.4,3.2;stroke-dashoffset:0;stroke-linejoin:miter;stroke-width:2;"/>
   </g>
   <g id="patch_4">
    <path clip-path="url(#pc9e3de2559)" d="M 310.56 196.848 
C 316.479333 196.848 322.157023 194.496224 326.342623 190.310623 
C 330.528224 186.125023 332.88 180.447333 332.88 174.528 
C 332.88 168.608667 330.528224 162.930977 326.342623 158.745377 
C 322.157023 154.559776 316.479333 152.208 310.56 152.208 
C 304.640667 152.208 298.962977 154.559776 294.777377 158.745377 
C 290.591776 162.930977 288.24 168.608667 288.24 174.528 
C 288.24 180.447333 290.591776 186.125023 294.777377 190.310623 
C 298.962977 194.496224 304.640667 196.848 310.56 196.848 
z
" style="fill:#cc0000;fill-opacity:0.1;stroke:#cc0000;stroke-dasharray:7.4,3.2;stroke-dashoffset:0;stroke-linejoin:miter;stroke-width:2;"/>
   </g>
   <g id="matplotlib.axis_1">
    <g id="xtick_1">
     <g id="line2d_1">
      <defs>
       <path d="M 0 0 
L 0 3.5 
" id="m6a1717ce61" style="stroke:#000000;stroke-width:0.8;"/>
      </defs>
      <g>
       <use style="stroke:#000000;stroke-width:0.8;" x="87.36" xlink:href="#m6a1717ce61" y="263.808"/>
      </g>
     </g>
     <g id="text_1">
      <!-- 0.0 -->
      <defs>
       <path d="M 31.78125 66.40625 
Q 24.171875 66.40625 20.328125 58.90625 
Q 16.5 51.421875 16.5 36.375 
Q 16.5 21.390625 20.328125 13.890625 
Q 24.171875 6.390625 31.78125 6.390625 
Q 39.453125 6.390625 43.28125 13.890625 
Q 47.125 21.390625 47.125 36.375 
Q 47.125 51.421875 43.28125 58.90625 
Q 39.453125 66.40625 31.78125 66.40625 
z
M 31.78125 74.21875 
Q 44.046875 74.21875 50.515625 64.515625 
Q 56.984375 54.828125 56.984375 36.375 
Q 56.984375 17.96875 50.515625 8.265625 
Q 44.046875 -1.421875 31.78125 -1.421875 
Q 19.53125 -1.421875 13.0625 8.265625 
Q 6.59375 17.96875 6.59375 36.375 
Q 6.59375 54.828125 13.0625 64.515625 
Q 19.53125 74.21875 31.78125 74.21875 
z
" id="DejaVuSans-30"/>
       <path d="M 10.6875 12.40625 
L 21 12.40625 
L 21 0 
L 10.6875 0 
z
" id="DejaVuSans-2e"/>
      </defs>
      <g transform="translate(79.408438 278.406437)scale(0.1 -0.1)">
       <use xlink:href="#DejaVuSans-30"/>
       <use x="63.623047" xlink:href="#DejaVuSans-2e"/>
       <use x="95.410156" xlink:href="#DejaVuSans-30"/>
      </g>
     </g>
    </g>
    <g id="xtick_2">
     <g id="line2d_2">
      <g>
       <use style="stroke:#000000;stroke-width:0.8;" x="161.76" xlink:href="#m6a1717ce61" y="263.808"/>
      </g>
     </g>
     <g id="text_2">
      <!-- 0.5 -->
      <defs>
       <path d="M 10.796875 72.90625 
L 49.515625 72.90625 
L 49.515625 64.59375 
L 19.828125 64.59375 
L 19.828125 46.734375 
Q 21.96875 47.46875 24.109375 47.828125 
Q 26.265625 48.1875 28.421875 48.1875 
Q 40.625 48.1875 47.75 41.5 
Q 54.890625 34.8125 54.890625 23.390625 
Q 54.890625 11.625 47.5625 5.09375 
Q 40.234375 -1.421875 26.90625 -1.421875 
Q 22.3125 -1.421875 17.546875 -0.640625 
Q 12.796875 0.140625 7.71875 1.703125 
L 7.71875 11.625 
Q 12.109375 9.234375 16.796875 8.0625 
Q 21.484375 6.890625 26.703125 6.890625 
Q 35.15625 6.890625 40.078125 11.328125 
Q 45.015625 15.765625 45.015625 23.390625 
Q 45.015625 31 40.078125 35.4375 
Q 35.15625 39.890625 26.703125 39.890625 
Q 22.75 39.890625 18.8125 39.015625 
Q 14.890625 38.140625 10.796875 36.28125 
z
" id="DejaVuSans-35"/>
      </defs>
      <g transform="translate(153.808437 278.406437)scale(0.1 -0.1)">
       <use xlink:href="#DejaVuSans-30"/>
       <use x="63.623047" xlink:href="#DejaVuSans-2e"/>
       <use x="95.410156" xlink:href="#DejaVuSans-35"/>
      </g>
     </g>
    </g>
    <g id="xtick_3">
     <g id="line2d_3">
      <g>
       <use style="stroke:#000000;stroke-width:0.8;" x="236.16" xlink:href="#m6a1717ce61" y="263.808"/>
      </g>
     </g>
     <g id="text_3">
      <!-- 1.0 -->
      <defs>
       <path d="M 12.40625 8.296875 
L 28.515625 8.296875 
L 28.515625 63.921875 
L 10.984375 60.40625 
L 10.984375 69.390625 
L 28.421875 72.90625 
L 38.28125 72.90625 
L 38.28125 8.296875 
L 54.390625 8.296875 
L 54.390625 0 
L 12.40625 0 
z
" id="DejaVuSans-31"/>
      </defs>
      <g transform="translate(228.208437 278.406437)scale(0.1 -0.1)">
       <use xlink:href="#DejaVuSans-31"/>
       <use x="63.623047" xlink:href="#DejaVuSans-2e"/>
       <use x="95.410156" xlink:href="#DejaVuSans-30"/>
      </g>
     </g>
    </g>
    <g id="xtick_4">
     <g id="line2d_4">
      <g>
       <use style="stroke:#000000;stroke-width:0.8;" x="310.56" xlink:href="#m6a1717ce61" y="263.808"/>
      </g>
     </g>
     <g id="text_4">
      <!-- 1.5 -->
      <g transform="translate(302.608437 278.406437)scale(0.1 -0.1)">
       <use xlink:href="#DejaVuSans-31"/>
       <use x="63.623047" xlink:href="#DejaVuSans-2e"/>
       <use x="95.410156" xlink:href="#DejaVuSans-35"/>
      </g>
     </g>
    </g>
    <g id="xtick_5">
     <g id="line2d_5">
      <g>
       <use style="stroke:#000000;stroke-width:0.8;" x="384.96" xlink:href="#m6a1717ce61" y="263.808"/>
      </g>
     </g>
     <g id="text_5">
      <!-- 2.0 -->
      <defs>
       <path d="M 19.1875 8.296875 
L 53.609375 8.296875 
L 53.609375 0 
L 7.328125 0 
L 7.328125 8.296875 
Q 12.9375 14.109375 22.625 23.890625 
Q 32.328125 33.6875 34.8125 36.53125 
Q 39.546875 41.84375 41.421875 45.53125 
Q 43.3125 49.21875 43.3125 52.78125 
Q 43.3125 58.59375 39.234375 62.25 
Q 35.15625 65.921875 28.609375 65.921875 
Q 23.96875 65.921875 18.8125 64.3125 
Q 13.671875 62.703125 7.8125 59.421875 
L 7.8125 69.390625 
Q 13.765625 71.78125 18.9375 73 
Q 24.125 74.21875 28.421875 74.21875 
Q 39.75 74.21875 46.484375 68.546875 
Q 53.21875 62.890625 53.21875 53.421875 
Q 53.21875 48.921875 51.53125 44.890625 
Q 49.859375 40.875 45.40625 35.40625 
Q 44.1875 33.984375 37.640625 27.21875 
Q 31.109375 20.453125 19.1875 8.296875 
z
" id="DejaVuSans-32"/>
      </defs>
      <g transform="translate(377.008437 278.406437)scale(0.1 -0.1)">
       <use xlink:href="#DejaVuSans-32"/>
       <use x="63.623047" xlink:href="#DejaVuSans-2e"/>
       <use x="95.410156" xlink:href="#DejaVuSans-30"/>
      </g>
     </g>
    </g>
   </g>
   <g id="matplotlib.axis_2">
    <g id="ytick_1">
     <g id="line2d_6">
      <defs>
       <path d="M 0 0 
L -3.5 0 
" id="m296f6f2989" style="stroke:#000000;stroke-width:0.8;"/>
      </defs>
      <g>
       <use style="stroke:#000000;stroke-width:0.8;" x="57.6" xlink:href="#m296f6f2989" y="248.928"/>
      </g>
     </g>
     <g id="text_6">
      <!-- 0.0 -->
      <g transform="translate(34.696875 252.727219)scale(0.1 -0.1)">
       <use xlink:href="#DejaVuSans-30"/>
       <use x="63.623047" xlink:href="#DejaVuSans-2e"/>
       <use x="95.410156" xlink:href="#DejaVuSans-30"/>
      </g>
     </g>
    </g>
    <g id="ytick_2">
     <g id="line2d_7">
      <g>
       <use style="stroke:#000000;stroke-width:0.8;" x="57.6" xlink:href="#m296f6f2989" y="219.168"/>
      </g>
     </g>
     <g id="text_7">
      <!-- 0.2 -->
      <g transform="translate(34.696875 222.967219)scale(0.1 -0.1)">
       <use xlink:href="#DejaVuSans-30"/>
       <use x="63.623047" xlink:href="#DejaVuSans-2e"/>
       <use x="95.410156" xlink:href="#DejaVuSans-32"/>
      </g>
     </g>
    </g>
    <g id="ytick_3">
     <g id="line2d_8">
      <g>
       <use style="stroke:#000000;stroke-width:0.8;" x="57.6" xlink:href="#m296f6f2989" y="189.408"/>
      </g>
     </g>
     <g id="text_8">
      <!-- 0.4 -->
      <defs>
       <path d="M 37.796875 64.3125 
L 12.890625 25.390625 
L 37.796875 25.390625 
z
M 35.203125 72.90625 
L 47.609375 72.90625 
L 47.609375 25.390625 
L 58.015625 25.390625 
L 58.015625 17.1875 
L 47.609375 17.1875 
L 47.609375 0 
L 37.796875 0 
L 37.796875 17.1875 
L 4.890625 17.1875 
L 4.890625 26.703125 
z
" id="DejaVuSans-34"/>
      </defs>
      <g transform="translate(34.696875 193.207219)scale(0.1 -0.1)">
       <use xlink:href="#DejaVuSans-30"/>
       <use x="63.623047" xlink:href="#DejaVuSans-2e"/>
       <use x="95.410156" xlink:href="#DejaVuSans-34"/>
      </g>
     </g>
    </g>
    <g id="ytick_4">
     <g id="line2d_9">
      <g>
       <use style="stroke:#000000;stroke-width:0.8;" x="57.6" xlink:href="#m296f6f2989" y="159.648"/>
      </g>
     </g>
     <g id="text_9">
      <!-- 0.6 -->
      <defs>
       <path d="M 33.015625 40.375 
Q 26.375 40.375 22.484375 35.828125 
Q 18.609375 31.296875 18.609375 23.390625 
Q 18.609375 15.53125 22.484375 10.953125 
Q 26.375 6.390625 33.015625 6.390625 
Q 39.65625 6.390625 43.53125 10.953125 
Q 47.40625 15.53125 47.40625 23.390625 
Q 47.40625 31.296875 43.53125 35.828125 
Q 39.65625 40.375 33.015625 40.375 
z
M 52.59375 71.296875 
L 52.59375 62.3125 
Q 48.875 64.0625 45.09375 64.984375 
Q 41.3125 65.921875 37.59375 65.921875 
Q 27.828125 65.921875 22.671875 59.328125 
Q 17.53125 52.734375 16.796875 39.40625 
Q 19.671875 43.65625 24.015625 45.921875 
Q 28.375 48.1875 33.59375 48.1875 
Q 44.578125 48.1875 50.953125 41.515625 
Q 57.328125 34.859375 57.328125 23.390625 
Q 57.328125 12.15625 50.6875 5.359375 
Q 44.046875 -1.421875 33.015625 -1.421875 
Q 20.359375 -1.421875 13.671875 8.265625 
Q 6.984375 17.96875 6.984375 36.375 
Q 6.984375 53.65625 15.1875 63.9375 
Q 23.390625 74.21875 37.203125 74.21875 
Q 40.921875 74.21875 44.703125 73.484375 
Q 48.484375 72.75 52.59375 71.296875 
z
" id="DejaVuSans-36"/>
      </defs>
      <g transform="translate(34.696875 163.447219)scale(0.1 -0.1)">
       <use xlink:href="#DejaVuSans-30"/>
       <use x="63.623047" xlink:href="#DejaVuSans-2e"/>
       <use x="95.410156" xlink:href="#DejaVuSans-36"/>
      </g>
     </g>
    </g>
    <g id="ytick_5">
     <g id="line2d_10">
      <g>
       <use style="stroke:#000000;stroke-width:0.8;" x="57.6" xlink:href="#m296f6f2989" y="129.888"/>
      </g>
     </g>
     <g id="text_10">
      <!-- 0.8 -->
      <defs>
       <path d="M 31.78125 34.625 
Q 24.75 34.625 20.71875 30.859375 
Q 16.703125 27.09375 16.703125 20.515625 
Q 16.703125 13.921875 20.71875 10.15625 
Q 24.75 6.390625 31.78125 6.390625 
Q 38.8125 6.390625 42.859375 10.171875 
Q 46.921875 13.96875 46.921875 20.515625 
Q 46.921875 27.09375 42.890625 30.859375 
Q 38.875 34.625 31.78125 34.625 
z
M 21.921875 38.8125 
Q 15.578125 40.375 12.03125 44.71875 
Q 8.5 49.078125 8.5 55.328125 
Q 8.5 64.0625 14.71875 69.140625 
Q 20.953125 74.21875 31.78125 74.21875 
Q 42.671875 74.21875 48.875 69.140625 
Q 55.078125 64.0625 55.078125 55.328125 
Q 55.078125 49.078125 51.53125 44.71875 
Q 48 40.375 41.703125 38.8125 
Q 48.828125 37.15625 52.796875 32.3125 
Q 56.78125 27.484375 56.78125 20.515625 
Q 56.78125 9.90625 50.3125 4.234375 
Q 43.84375 -1.421875 31.78125 -1.421875 
Q 19.734375 -1.421875 13.25 4.234375 
Q 6.78125 9.90625 6.78125 20.515625 
Q 6.78125 27.484375 10.78125 32.3125 
Q 14.796875 37.15625 21.921875 38.8125 
z
M 18.3125 54.390625 
Q 18.3125 48.734375 21.84375 45.5625 
Q 25.390625 42.390625 31.78125 42.390625 
Q 38.140625 42.390625 41.71875 45.5625 
Q 45.3125 48.734375 45.3125 54.390625 
Q 45.3125 60.0625 41.71875 63.234375 
Q 38.140625 66.40625 31.78125 66.40625 
Q 25.390625 66.40625 21.84375 63.234375 
Q 18.3125 60.0625 18.3125 54.390625 
z
" id="DejaVuSans-38"/>
      </defs>
      <g transform="translate(34.696875 133.687219)scale(0.1 -0.1)">
       <use xlink:href="#DejaVuSans-30"/>
       <use x="63.623047" xlink:href="#DejaVuSans-2e"/>
       <use x="95.410156" xlink:href="#DejaVuSans-38"/>
      </g>
     </g>
    </g>
    <g id="ytick_6">
     <g id="line2d_11">
      <g>
       <use style="stroke:#000000;stroke-width:0.8;" x="57.6" xlink:href="#m296f6f2989" y="100.128"/>
      </g>
     </g>
     <g id="text_11">
      <!-- 1.0 -->
      <g transform="translate(34.696875 103.927219)scale(0.1 -0.1)">
       <use xlink:href="#DejaVuSans-31"/>
       <use x="63.623047" xlink:href="#DejaVuSans-2e"/>
       <use x="95.410156" xlink:href="#DejaVuSans-30"/>
      </g>
     </g>
    </g>
   </g>
   <g id="line2d_12">
    <path clip-path="url(#pc9e3de2559)" d="M 236.16 248.928 
L 236.16 100.128 
" style="fill:none;stroke:#cc0000;stroke-dasharray:7.4,3.2;stroke-dashoffset:0;stroke-width:2;"/>
   </g>
   <g id="line2d_13">
    <path clip-path="url(#pc9e3de2559)" d="M 87.36 248.928 
L 384.96 248.928 
" style="fill:none;stroke:#009900;stroke-linecap:square;stroke-width:2;"/>
   </g>
   <g id="line2d_14">
    <path clip-path="url(#pc9e3de2559)" d="M 384.96 248.928 
L 384.96 100.128 
" style="fill:none;stroke:#009900;stroke-linecap:square;stroke-width:2;"/>
   </g>
   <g id="line2d_15">
    <path clip-path="url(#pc9e3de2559)" d="M 384.96 100.128 
L 87.36 100.128 
" style="fill:none;stroke:#009900;stroke-linecap:square;stroke-width:2;"/>
   </g>
   <g id="line2d_16">
    <path clip-path="url(#pc9e3de2559)" d="M 87.36 100.128 
L 87.36 248.928 
" style="fill:none;stroke:#009900;stroke-linecap:square;stroke-width:2;"/>
   </g>
   <g id="line2d_17">
    <path clip-path="url(#pc9e3de2559)" d="M 95.349113 138.921208 
L 89.47021 137.993801 
L 87.36 137.719395 
L 93.251564 136.876155 
L 99.104695 135.79799 
L 104.910029 134.486624 
L 110.658278 132.944155 
L 116.340247 131.173052 
L 121.946846 129.176148 
L 127.469106 126.956636 
L 132.898191 124.518068 
L 138.225417 121.864346 
L 143.442262 118.999714 
L 148.540378 115.928755 
L 153.511611 112.656382 
L 158.348008 109.187831 
L 163.041831 105.52865 
L 167.585571 101.684693 
L 169.325035 100.128 
L 173.807915 104.042762 
L 178.443759 107.775126 
L 183.225148 111.319119 
L 188.144436 114.669074 
L 193.19375 117.819629 
L 198.365015 120.765746 
L 203.649956 123.502711 
L 209.040119 126.026145 
L 214.526882 128.332012 
L 220.101465 130.416622 
L 225.754952 132.276641 
L 231.478297 133.909093 
L 236.16 135.062955 
L 230.386768 136.509112 
L 224.675984 138.18498 
L 219.036786 140.087877 
L 213.478193 142.214761 
L 208.0091 144.562227 
L 202.638255 147.126521 
L 197.37425 149.903541 
L 192.081187 152.976536 
L 188.281344 155.318012 
L 184.347934 157.427421 
L 180.295114 159.297171 
L 176.137469 160.920533 
L 171.889962 162.291665 
L 167.567879 163.405632 
L 163.186776 164.258425 
L 158.76242 164.846975 
L 154.310734 165.169164 
L 149.847738 165.223832 
L 145.389495 165.010783 
L 140.95205 164.530782 
L 136.551373 163.785559 
L 132.203301 162.777795 
L 127.923483 161.511116 
L 127.025881 161.209555 
L 131.079502 163.077568 
L 135.013816 165.185291 
L 138.814662 167.525138 
L 142.468362 170.088689 
L 145.961767 172.866717 
L 149.282304 175.849225 
L 152.418023 179.025479 
L 155.357638 182.384048 
L 158.09057 185.912844 
L 160.606983 189.599167 
L 162.897822 193.429752 
L 164.954841 197.390811 
L 166.770638 201.46809 
L 168.338677 205.646914 
L 169.653315 209.912244 
L 170.334487 212.249567 
L 172.217504 217.895435 
L 174.324789 223.461486 
L 176.652972 228.938817 
L 179.198327 234.318663 
L 181.956782 239.59242 
L 184.923925 244.751649 
L 187.533381 248.928 
L 190.669621 243.869781 
L 193.601077 238.690191 
L 196.32306 233.397518 
L 198.831215 228.000228 
L 201.12153 222.506956 
L 203.190341 216.92649 
L 205.034338 211.267757 
L 206.65057 205.539811 
L 208.036453 199.751814 
L 209.18977 193.913026 
L 210.108674 188.032788 
L 210.791697 182.120508 
L 211.237746 176.185643 
L 211.446106 170.237688 
L 211.416445 164.286159 
L 211.148809 158.340576 
L 210.643628 152.410452 
L 209.90171 146.505273 
L 208.924241 140.634487 
L 207.712784 134.807484 
L 206.269279 129.033588 
L 204.596034 123.322036 
L 202.695727 117.681964 
L 200.571397 112.122395 
L 198.226442 106.652225 
L 195.664615 101.280202 
L 195.080314 100.128 
L 192.471943 105.477578 
L 190.079585 110.927184 
L 187.907067 116.468099 
L 185.957864 122.09146 
L 184.235095 127.788271 
L 182.741516 133.549416 
L 181.479515 139.365681 
L 180.879238 142.617269 
L 179.200437 146.75284 
L 177.27667 150.780301 
L 175.114863 154.685158 
L 172.722795 158.453358 
L 170.109075 162.071339 
L 167.28311 165.52608 
L 164.25507 168.805149 
L 161.035852 171.896743 
L 157.637043 174.789738 
L 154.070875 177.47372 
L 150.350181 179.939031 
L 146.488353 182.176798 
L 142.499288 184.178967 
L 138.397344 185.938333 
L 134.197282 187.448565 
L 129.914218 188.704226 
L 127.604645 189.267462 
L 131.382491 186.890658 
L 135.296062 184.744666 
L 139.331273 182.837208 
L 143.473601 181.175151 
L 147.708139 179.764475 
L 152.019647 178.610257 
L 156.392608 177.716652 
L 160.811284 177.086874 
L 165.259773 176.723192 
L 169.722065 176.626913 
L 174.1821 176.798385 
L 178.623828 177.236989 
L 183.031262 177.941148 
L 187.388542 178.908327 
L 191.679984 180.135046 
L 195.890146 181.61689 
L 198.093918 182.508378 
L 203.12199 185.692725 
L 208.273381 188.673455 
L 213.539849 191.4458 
L 218.912968 194.005325 
L 224.384144 196.347936 
L 229.944622 198.469884 
L 235.585507 200.367774 
L 236.16 200.547081 
L 243.529327 201.568716 
L 250.921889 202.405818 
L 258.333067 203.057863 
L 265.758228 203.524445 
L 273.192732 203.805271 
L 280.631933 203.900166 
L 288.071182 203.80907 
L 295.505829 203.532042 
L 302.931227 203.069253 
L 310.342737 202.420993 
L 317.735726 201.587667 
L 325.105574 200.569796 
L 332.447674 199.368016 
L 339.757439 197.983078 
L 347.0303 196.415848 
L 354.261712 194.667305 
L 361.447155 192.738542 
L 368.582138 190.630765 
L 375.662203 188.34529 
L 382.682925 185.883546 
L 384.96 185.04247 
L 377.959591 182.523542 
L 370.898404 180.180393 
L 363.78085 178.014488 
L 356.611378 176.02718 
L 349.394469 174.219711 
L 342.134634 172.593211 
L 334.836408 171.148696 
L 332.555523 170.735984 
L 326.605385 170.603895 
L 320.66529 170.233969 
L 314.744739 169.626799 
L 308.853204 168.783356 
L 303.00011 167.704989 
L 297.194821 166.393424 
L 291.446625 164.850757 
L 290.572366 164.594377 
L 295.295343 168.215849 
L 299.869723 172.023293 
L 304.288186 176.010618 
L 308.543665 180.171446 
L 312.629351 184.499118 
L 316.538708 188.986713 
L 320.265482 193.627051 
L 320.819448 194.350364 
L 319.147898 188.638316 
L 317.706105 182.863992 
L 316.496377 177.036631 
L 315.52065 171.165554 
L 314.780483 165.260156 
L 314.277061 159.329882 
L 314.011189 153.38422 
L 313.991488 152.473357 
L 312.484409 145.187794 
L 310.795681 137.94218 
L 308.92636 130.741045 
L 306.877612 123.588887 
L 304.65072 116.490179 
L 302.247074 109.449355 
L 299.668177 102.470815 
L 298.757587 100.128 
L 296.119841 107.084509 
L 293.656814 114.104781 
L 291.370045 121.184428 
L 289.260964 128.319026 
L 287.330888 135.504116 
L 285.581023 142.735209 
L 284.012464 150.007783 
L 282.626191 157.317295 
L 281.423069 164.659176 
L 280.403852 172.028837 
L 279.569175 179.421674 
L 278.919561 186.833065 
L 278.455415 194.258379 
L 278.177027 201.692975 
L 278.084573 209.132207 
L 278.178108 216.571425 
L 278.457575 224.00598 
L 278.9228 231.431227 
L 279.573491 238.842523 
L 280.409242 246.235238 
L 280.760287 248.928 
L 281.663459 241.543219 
L 282.381749 234.138168 
L 282.914708 226.717476 
L 283.262002 219.28578 
L 283.423415 211.847725 
L 283.398845 204.407959 
L 283.188307 196.971132 
L 282.791935 189.541892 
L 282.209975 182.124882 
L 281.44279 174.724737 
L 280.490861 167.346082 
L 279.354782 159.993529 
L 278.035264 152.671672 
L 276.53313 145.385088 
L 274.849321 138.13833 
L 272.984887 130.935927 
L 270.940995 123.782381 
L 268.718921 116.682162 
L 266.320055 109.639708 
L 263.745895 102.65942 
L 262.762987 100.128 
L 260.125242 107.084509 
L 257.662215 114.104781 
L 255.375446 121.184428 
L 253.266364 128.319026 
L 251.336288 135.504116 
L 249.586424 142.735209 
L 248.017865 150.007783 
L 246.631592 157.317295 
L 245.42847 164.659176 
L 244.409252 172.028837 
L 243.574576 179.421674 
L 242.924961 186.833065 
L 242.460815 194.258379 
L 242.182428 201.692975 
L 242.089973 209.132207 
L 242.183509 216.571425 
L 242.462976 224.00598 
L 242.928201 231.431227 
L 243.578892 238.842523 
L 244.414643 246.235238 
L 244.765688 248.928 
L 245.66886 241.543219 
L 246.38715 234.138168 
L 246.920109 226.717476 
L 247.267403 219.28578 
L 247.428815 211.847725 
L 247.404245 204.407959 
L 247.193708 196.971132 
L 246.797336 189.541892 
L 246.215375 182.124882 
L 245.448191 174.724737 
L 244.496262 167.346082 
L 243.360183 159.993529 
L 242.040665 152.671672 
L 240.538531 145.385088 
L 238.854721 138.13833 
L 236.990288 130.935927 
L 236.16 127.947662 
L 238.099392 120.76508 
L 239.858632 113.536264 
L 241.436621 106.265729 
L 242.621621 100.128 
L 244.046552 107.430074 
L 245.653572 114.694247 
L 247.441674 121.915978 
L 249.409743 129.090755 
L 251.556547 136.214094 
L 253.880745 143.281542 
L 256.380885 150.288682 
L 259.055403 157.231136 
L 261.902629 164.104565 
L 264.920784 170.904672 
L 268.10798 177.627209 
L 271.462226 184.267973 
L 274.981426 190.822815 
L 278.66338 197.287637 
L 282.505787 203.6584 
L 286.506246 209.931123 
L 290.662257 216.101884 
L 294.971222 222.166827 
L 299.430448 228.122162 
L 304.037149 233.964168 
L 308.788445 239.689192 
L 313.681367 245.293657 
L 316.989705 248.928 
L 321.97451 243.405099 
L 326.819699 237.759317 
L 331.522245 231.994181 
L 336.079207 226.113296 
L 340.487739 220.120336 
L 344.745085 214.019048 
L 348.848584 207.813243 
L 352.795671 201.506801 
L 356.583881 195.103662 
L 360.210845 188.607829 
L 363.674297 182.023361 
L 366.972072 175.354373 
L 370.10211 168.605034 
L 373.062453 161.779561 
L 375.851252 154.882219 
L 378.466764 147.917321 
L 380.907355 140.889217 
L 383.171498 133.802302 
L 384.96 127.722148 
L 382.847286 120.588624 
L 380.556912 113.510142 
L 378.09031 106.491126 
L 375.681632 100.128 
L 373.055216 107.088794 
L 370.603623 114.113067 
L 368.328384 121.196428 
L 366.230922 128.334451 
L 364.312547 135.522674 
L 362.574458 142.756606 
L 361.017742 150.031724 
L 359.643372 157.343484 
L 358.452206 164.687314 
L 357.444988 172.058625 
L 356.62235 179.452811 
L 355.984803 186.86525 
L 355.532747 194.291309 
L 355.266465 201.726349 
L 355.186123 209.165721 
L 355.291771 216.604777 
L 355.583342 224.038868 
L 356.060656 231.463347 
L 356.723413 238.873574 
L 357.571199 246.264919 
L 357.922652 248.928 
L 358.837118 241.544609 
L 359.566733 234.140665 
L 360.11104 226.720797 
L 360.469701 219.289641 
L 360.642489 211.851841 
L 360.629298 204.412047 
L 360.430135 196.974907 
L 360.045126 189.545069 
L 359.47451 182.127178 
L 358.718645 174.725868 
L 357.778002 167.345766 
L 356.65317 159.991483 
L 355.344852 152.667617 
L 353.853865 145.378744 
L 352.181141 138.129419 
L 350.327725 130.924173 
L 348.294776 123.767509 
L 346.083565 116.6639 
L 343.695472 109.617786 
L 341.131992 102.633569 
L 340.163671 100.128 
L 337.537255 107.088794 
L 335.085662 114.113067 
L 332.810423 121.196428 
L 330.712961 128.334451 
L 328.794586 135.522674 
L 327.056497 142.756606 
L 325.499781 150.031724 
L 324.20909 156.867741 
L 330.933081 153.683614 
L 337.575375 150.3324 
L 344.131823 146.816192 
L 350.598325 143.13719 
L 356.970842 139.297691 
L 363.24539 135.300096 
L 369.418047 131.146902 
L 375.484957 126.840706 
L 381.442327 122.384199 
L 384.96 119.641373 
L 379.070094 115.096076 
L 373.068408 110.699432 
L 366.958693 106.454188 
L 360.744767 102.362997 
L 357.201283 100.128 
L 350.93038 104.131311 
L 344.76151 108.290127 
L 338.698526 112.60185 
L 332.745219 117.063784 
L 326.90531 121.67314 
L 321.182446 126.427039 
L 315.580207 131.322509 
L 310.102092 136.356491 
L 304.751525 141.525838 
L 299.53185 146.827321 
L 294.44633 152.257625 
L 289.498142 157.813356 
L 284.69038 163.491044 
L 280.026047 169.287139 
L 275.508059 175.198018 
L 271.139239 181.219989 
L 266.922318 187.349287 
L 262.859931 193.582082 
L 258.954617 199.914478 
L 255.208818 206.342518 
L 251.624872 212.862185 
L 248.205022 219.469404 
L 244.951403 226.160045 
L 241.86605 232.929928 
L 238.95089 239.774821 
L 236.16 246.815435 
L 236.975689 248.928 
L 239.595028 241.96454 
L 242.03948 234.937778 
L 244.307517 227.852108 
L 246.397722 220.711957 
L 248.308789 213.521787 
L 250.039523 206.286093 
L 251.588843 199.009395 
L 252.95578 191.696243 
L 254.139481 184.351205 
L 255.139204 176.978874 
L 255.954326 169.583856 
L 256.584337 162.170773 
L 257.028844 154.744257 
L 257.287568 147.308951 
L 257.360348 139.869501 
L 257.247138 132.430556 
L 256.94801 124.996766 
L 256.463149 117.572776 
L 255.79286 110.163226 
L 254.937561 102.772747 
L 254.585874 100.128 
L 253.664353 107.510514 
L 252.927664 114.913757 
L 252.376266 122.333102 
L 252.010505 129.763912 
L 251.83061 137.201543 
L 251.836692 144.641347 
L 252.028748 152.078674 
L 252.406657 159.508876 
L 252.970184 166.927309 
L 253.718977 174.329337 
L 254.652567 181.710335 
L 255.770371 189.065689 
L 257.07169 196.390802 
L 258.555712 203.681097 
L 260.221508 210.932017 
L 262.068038 218.139031 
L 264.094147 225.297634 
L 266.29857 232.403352 
L 268.679928 239.451746 
L 271.236734 246.438409 
L 272.196059 248.928 
L 274.815398 241.96454 
L 277.25985 234.937778 
L 279.527887 227.852108 
L 281.618092 220.711957 
L 283.529159 213.521787 
L 285.259893 206.286093 
L 286.809213 199.009395 
L 288.17615 191.696243 
L 289.35985 184.351205 
L 289.651359 182.338962 
L 283.974537 177.530177 
L 278.179283 172.8648 
L 272.269217 168.345748 
L 266.248033 163.975843 
L 260.119494 159.757819 
L 253.887431 155.694309 
L 247.555739 151.787855 
L 241.128373 148.040898 
L 236.16 145.289382 
L 232.807537 140.371804 
L 229.261104 135.592223 
L 225.526376 130.958284 
L 221.609328 126.477401 
L 217.516225 122.156743 
L 213.253616 118.003221 
L 208.82832 114.02348 
L 204.247416 110.223888 
L 199.518234 106.610522 
L 194.648338 103.189163 
L 189.908856 100.128 
L 184.912755 103.362279 
L 180.049988 106.793761 
L 175.328332 110.416958 
L 170.755343 114.226072 
L 166.338336 118.21501 
L 162.084377 122.37739 
L 158.000271 126.706554 
L 154.092552 131.195576 
L 150.367473 135.837274 
L 147.004717 140.379477 
L 141.093648 139.686045 
L 135.159578 139.229548 
L 129.211999 139.010716 
L 123.260427 139.029898 
L 117.314382 139.287064 
L 111.383378 139.781803 
L 105.476902 140.513323 
L 99.604403 141.480454 
L 93.775277 142.681649 
L 87.998849 144.114986 
L 87.36 144.288665 
L 93.129994 145.747688 
L 98.953718 146.974805 
L 104.821856 147.968054 
L 110.725019 148.725846 
L 116.653763 149.246968 
L 122.598605 149.530587 
L 128.550033 149.576248 
L 134.336747 149.392265 
L 134.005107 143.449908 
L 133.436101 137.525568 
L 132.63064 131.62872 
L 131.590012 125.768799 
L 130.315882 119.955179 
L 128.810289 114.197161 
L 127.075641 108.503957 
L 125.114712 102.884674 
L 124.059207 100.128 
L 121.987197 105.707279 
L 120.139956 111.364954 
L 118.520439 117.091973 
L 117.131237 122.879174 
L 115.974573 128.717299 
L 115.052297 134.597009 
L 114.365884 140.508897 
L 113.916432 146.443505 
L 113.704662 152.391339 
L 113.73091 158.342885 
L 113.995136 164.28862 
L 114.496916 170.219033 
L 115.235449 176.124636 
L 116.209552 181.995982 
L 117.417666 187.823678 
L 118.857861 193.598401 
L 120.52783 199.310912 
L 122.424903 204.952072 
L 124.546045 210.512858 
L 126.887863 215.984373 
L 129.446609 221.357863 
L 132.218191 226.624732 
L 135.198175 231.776555 
L 138.381793 236.80509 
L 141.763952 241.702291 
L 145.339241 246.460325 
L 147.314559 248.928 
L 150.99011 244.246984 
L 154.475529 239.42273 
L 157.765242 234.462954 
L 160.853985 229.375593 
L 163.736818 224.168784 
L 166.409127 218.850858 
L 168.866639 213.430321 
L 169.961412 210.812664 
L 170.460904 206.377371 
L 171.225456 201.98001 
L 172.252315 197.636408 
L 173.537787 193.362197 
L 175.077244 189.172759 
L 176.865146 185.083172 
L 178.895059 181.108154 
L 181.159677 177.26201 
L 183.650851 173.558583 
L 186.359614 170.0112 
L 189.276218 166.63263 
L 192.390166 163.43503 
L 195.690252 160.429909 
L 196.055881 160.118539 
L 191.601494 160.400955 
L 187.138188 160.415761 
L 182.682026 160.162902 
L 178.249045 159.643288 
L 173.855199 158.858791 
L 169.516301 157.812233 
L 165.247967 156.50738 
L 161.065558 154.948928 
L 156.984125 153.142487 
L 153.018359 151.094558 
L 149.182531 148.812511 
L 145.490446 146.304558 
L 141.955391 143.579726 
L 141.584976 143.274065 
L 142.64063 147.610759 
L 143.434338 152.002951 
L 143.963244 156.434833 
L 144.225445 160.890455 
L 144.219998 165.353782 
L 143.946921 169.808751 
L 143.407198 174.239328 
L 142.602771 178.629569 
L 141.536535 182.963674 
L 140.212327 187.226043 
L 138.634914 191.401338 
L 136.809972 195.474531 
L 134.744068 199.430964 
L 134.507761 199.849048 
L 138.593591 198.052576 
L 142.779792 196.504338 
L 147.051299 195.209908 
L 151.392738 194.173944 
L 155.788486 193.400175 
L 160.222722 192.891384 
L 164.679489 192.649403 
L 169.142745 192.675104 
L 173.596429 192.968393 
L 178.024512 193.528214 
L 182.411057 194.352554 
L 186.740279 195.438446 
L 190.996595 196.781981 
L 191.449511 196.941677 
L 188.967385 193.23218 
L 186.712162 189.38052 
L 184.691958 185.400558 
L 182.914044 181.306619 
L 181.384818 177.113435 
L 180.109784 172.836099 
L 179.09353 168.490003 
L 178.339715 164.09079 
L 177.85105 159.654291 
L 177.629295 155.196472 
L 177.675248 150.733378 
L 177.988743 146.281071 
L 178.568652 141.855574 
L 178.646834 141.381736 
L 175.427581 144.473293 
L 172.028739 147.366249 
L 168.462539 150.05019 
L 164.741817 152.515458 
L 160.879963 154.75318 
L 156.890876 156.755304 
L 152.788911 158.514623 
L 148.588832 160.024806 
L 144.305754 161.280418 
L 139.955092 162.276941 
L 135.552503 163.010786 
L 131.113832 163.479315 
L 126.655053 163.680839 
L 126.174842 163.686573 
L 120.550479 165.632881 
L 115.008446 167.802548 
L 109.557609 170.192101 
L 104.20669 172.797717 
L 98.964247 175.61523 
L 93.838668 178.64013 
L 88.838153 181.867579 
L 87.36 182.877029 
L 92.32133 186.164396 
L 97.410152 189.250734 
L 102.618323 192.131103 
L 107.937513 194.800898 
L 113.359211 197.255846 
L 118.874744 199.492021 
L 124.475288 201.505844 
L 130.151884 203.294094 
L 135.89545 204.853911 
L 141.696798 206.182799 
L 142.484307 206.344468 
L 146.323752 210.892021 
L 150.34198 215.2824 
L 154.532563 219.50858 
L 158.888795 223.563802 
L 163.403708 227.441577 
L 168.07008 231.135701 
L 172.880444 234.640266 
L 177.827106 237.949664 
L 182.902152 241.058601 
L 188.097463 243.962104 
L 193.404727 246.655527 
L 198.341963 248.928 
L 203.744051 246.430196 
L 209.041932 243.718364 
L 214.227131 240.796842 
L 219.291353 237.670305 
L 224.226496 234.343753 
L 229.024665 230.82251 
L 233.678184 227.112207 
L 236.16 225.004603 
L 231.588778 221.193368 
L 226.868804 217.567982 
L 222.007628 214.134245 
L 217.013028 210.897649 
L 211.892993 207.863373 
L 206.655716 205.036271 
L 201.309574 202.420866 
L 195.86312 200.021341 
L 190.65048 197.962593 
L 193.937457 202.924182 
L 197.420216 207.750358 
L 201.093184 212.4334 
L 204.950487 216.965817 
L 208.985952 221.340357 
L 213.193124 225.550022 
L 217.565272 229.588078 
L 222.095403 233.448065 
L 226.776268 237.123808 
L 231.600379 240.609425 
L 236.16 243.64447 
L 231.210872 246.950179 
L 228.442307 248.928 
L 223.570056 245.509996 
L 218.565019 242.289564 
L 213.435202 239.271856 
L 208.188813 236.4617 
L 202.834243 233.863591 
L 197.380061 231.481686 
L 191.83499 229.319796 
L 186.207902 227.381378 
L 180.507799 225.669535 
L 174.7438 224.187004 
L 168.925126 222.936158 
L 163.061086 221.918997 
L 157.161062 221.137148 
L 151.23449 220.591863 
L 145.290854 220.284014 
L 139.339662 220.214093 
L 133.390434 220.382213 
L 127.452687 220.788103 
L 121.535922 221.431116 
L 115.649602 222.310221 
L 109.803146 223.424014 
L 104.005907 224.770711 
L 98.267158 226.348159 
L 92.59608 228.153834 
L 87.36 230.047144 
L 92.959553 232.063721 
L 98.635269 233.854762 
L 104.378068 235.417403 
L 110.178762 236.749143 
L 116.028071 237.847851 
L 121.916639 238.711771 
L 127.835043 239.33952 
L 133.773817 239.730094 
L 139.723459 239.882868 
L 145.674451 239.797597 
L 151.617273 239.474418 
L 157.542418 238.913848 
L 163.440407 238.116784 
L 169.301804 237.084501 
L 175.117232 235.818651 
L 180.877387 234.321258 
L 186.573056 232.594717 
L 192.195125 230.641792 
L 197.734601 228.465606 
L 203.182622 226.069641 
L 208.530472 223.45773 
L 213.769596 220.634051 
L 218.891612 217.603121 
L 223.888326 214.36979 
L 228.751745 210.93923 
L 233.474087 207.31693 
L 236.16 205.118188 
L 231.523435 201.386721 
L 226.741361 197.843651 
L 221.821426 194.494648 
L 216.771502 191.345068 
L 211.599668 188.399951 
L 206.314198 185.664008 
L 200.923547 183.141615 
L 198.20824 181.968821 
L 193.985132 180.524287 
L 189.856244 178.829118 
L 185.836434 176.889414 
L 181.94017 174.712157 
L 178.181475 172.305182 
L 174.573875 169.677152 
L 171.130354 166.837525 
L 167.863305 163.796521 
L 164.784486 160.565083 
L 161.904976 157.154842 
L 159.23514 153.57807 
L 156.784586 149.847641 
L 154.562133 145.976979 
L 152.57578 141.980016 
L 151.2224 138.851692 
L 151.929092 143.258721 
L 152.37025 147.700195 
L 152.544285 152.160132 
L 152.450571 156.622478 
L 152.089445 161.071175 
L 151.462208 165.490213 
L 150.571116 169.863687 
L 149.419377 174.175857 
L 148.011135 178.411205 
L 146.351459 182.554488 
L 144.446322 186.590795 
L 142.302579 190.505598 
L 139.927947 194.28481 
L 137.330972 197.914829 
L 135.203904 200.578216 
L 138.763606 197.885664 
L 142.478359 195.41141 
L 146.334794 193.164361 
L 150.319031 191.152603 
L 154.416732 189.383375 
L 158.613149 187.863046 
L 162.89318 186.597086 
L 167.241421 185.590052 
L 171.642223 184.845569 
L 176.079749 184.366314 
L 180.538028 184.154014 
L 185.001014 184.209432 
L 189.452646 184.532369 
L 193.876903 185.121663 
L 198.706856 185.905745 
L 204.639408 186.381575 
L 210.586242 186.619786 
L 216.537845 186.619997 
L 222.484696 186.382207 
L 228.417281 185.906797 
L 234.326109 185.194527 
L 236.16 184.924497 
L 230.260503 184.138675 
L 224.334301 183.589398 
L 218.390873 183.277546 
L 212.439729 183.203616 
L 206.490389 183.367728 
L 200.552371 183.769619 
L 197.721906 184.045422 
L 193.283634 183.573125 
L 188.88167 182.835542 
L 184.531855 181.835327 
L 180.249845 180.576079 
L 176.051049 179.06233 
L 171.95058 177.299529 
L 167.963194 175.29402 
L 164.103241 173.053019 
L 160.384613 170.584593 
L 156.820694 167.897625 
L 153.424309 165.001785 
L 150.207682 161.907495 
L 147.182389 158.625892 
L 144.359318 155.168785 
L 141.748629 151.548616 
L 139.359718 147.778414 
L 138.196642 145.742446 
L 141.516281 148.725952 
L 144.651044 151.903149 
L 147.589648 155.262602 
L 150.321518 158.79222 
L 152.836823 162.479301 
L 155.126509 166.310574 
L 157.182336 170.272252 
L 158.996906 174.350077 
L 160.563688 178.529373 
L 161.877043 182.795099 
L 162.932245 187.131902 
L 163.725496 191.524176 
L 164.253941 195.956113 
L 164.515678 200.411763 
L 164.509766 204.875089 
L 164.236226 209.33003 
L 163.985621 211.661362 
L 163.04398 207.298493 
L 162.365648 202.88701 
L 161.953067 198.442789 
L 161.807722 193.981826 
L 161.930135 189.520175 
L 162.319867 185.073892 
L 162.975514 180.65898 
L 163.894717 176.291328 
L 165.074168 171.986655 
L 166.509623 167.760452 
L 168.195914 163.62793 
L 170.126973 159.603961 
L 172.295851 155.703027 
L 174.694742 151.939167 
L 177.315012 148.325927 
L 180.147231 144.87631 
L 181.716446 143.134047 
L 179.92286 147.221145 
L 177.887424 151.193338 
L 175.617461 155.03633 
L 173.121142 158.736291 
L 170.407451 162.279905 
L 167.486153 165.654418 
L 164.367763 168.847686 
L 161.063503 171.848217 
L 157.585265 174.645212 
L 153.945568 177.228604 
L 150.157509 179.589097 
L 146.234721 181.718196 
L 142.191324 183.608237 
L 138.041868 185.252418 
L 133.801287 186.644823 
L 129.484843 187.780441 
L 127.192329 188.272675 
L 131.040711 186.011864 
L 135.017736 183.985885 
L 139.109091 182.20203 
L 143.30005 180.666719 
L 147.575531 179.385478 
L 151.920147 178.362917 
L 156.318262 177.602717 
L 160.754047 177.107613 
L 165.211539 176.879388 
L 169.674695 176.918863 
L 174.127452 177.225895 
L 178.553786 177.79938 
L 182.937767 178.637253 
L 187.263617 179.7365 
L 191.515767 181.093164 
L 195.678914 182.702363 
L 197.825021 183.646896 
L 193.381795 183.22374 
L 188.971938 182.534913 
L 184.611322 181.582893 
L 180.315639 180.371105 
L 176.10035 178.903912 
L 171.980625 177.186594 
L 167.97129 175.22533 
L 164.086776 173.02718 
L 160.341061 170.600054 
L 156.747626 167.952688 
L 153.319405 165.094609 
L 150.068734 162.036103 
L 147.007314 158.788177 
L 144.14616 155.362521 
L 141.495572 151.771463 
L 139.065087 148.027927 
L 137.879552 146.004953 
L 135.829684 140.417501 
L 133.558017 134.916491 
L 131.068185 129.510724 
L 128.364172 124.208847 
L 125.450304 119.019343 
L 122.331241 113.950514 
L 119.011974 109.010469 
L 115.497813 104.20711 
L 112.272097 100.128 
L 108.592235 104.805627 
L 105.102371 109.626668 
L 101.80809 114.58341 
L 98.71466 119.667923 
L 95.827031 124.872073 
L 93.149822 130.187535 
L 90.687317 135.605805 
L 88.443454 141.118215 
L 87.36 144.030774 
L 89.488258 149.58884 
L 91.837077 155.057352 
L 94.402699 160.427563 
L 97.181021 165.690881 
L 100.167596 170.838885 
L 103.357648 175.86334 
L 106.746073 180.756208 
L 110.32745 185.509662 
L 114.09605 190.116096 
L 118.045843 194.568142 
L 122.170511 198.858677 
L 126.463456 202.980837 
L 130.917809 206.928029 
L 135.526445 210.693936 
L 140.28199 214.272534 
L 145.176838 217.658099 
L 150.203156 220.845215 
L 155.352905 223.828781 
L 160.617845 226.604026 
L 165.989554 229.16651 
L 171.459438 231.512133 
L 177.018747 233.637143 
L 182.658587 235.53814 
L 188.369935 237.212083 
L 194.143654 238.656294 
L 199.970508 239.868462 
L 205.841175 240.846649 
L 211.746263 241.58929 
L 217.676326 242.095196 
L 223.621875 242.363557 
L 229.573401 242.393946 
L 235.521381 242.186313 
L 236.16 242.149844 
L 230.212967 241.916644 
L 224.261366 241.921448 
L 218.314717 242.164249 
L 212.382535 242.644658 
L 206.474309 243.361907 
L 200.599491 244.314848 
L 194.76748 245.501957 
L 188.987606 246.921335 
L 183.269115 248.57071 
L 182.133463 248.928 
L 176.428351 247.232925 
L 170.660018 245.767349 
L 164.837691 244.533617 
L 158.970686 243.533703 
L 153.068387 242.769206 
L 147.140239 242.24135 
L 141.195723 241.950979 
L 135.244351 241.898558 
L 129.295643 242.08417 
L 123.359115 242.507518 
L 117.444266 243.167925 
L 111.560557 244.064335 
L 105.717401 245.195313 
L 99.924147 246.559051 
L 94.190061 248.153367 
L 91.685882 248.928 
L 87.36 247.620021 
L 93.048529 245.870101 
L 98.662529 243.8941 
L 104.19302 241.695179 
L 109.631154 239.276857 
L 114.96823 236.643002 
L 120.195712 233.797827 
L 125.305235 230.745885 
L 130.288626 227.492057 
L 135.137913 224.04155 
L 139.845337 220.399883 
L 144.403368 216.572882 
L 148.804714 212.56667 
L 151.237312 210.208709 
L 152.629044 215.995303 
L 154.251065 221.721613 
L 156.100781 227.378479 
L 158.175231 232.956851 
L 160.471097 238.447806 
L 162.984706 243.842558 
L 165.601589 248.928 
L 168.320655 243.633828 
L 170.825836 238.235156 
L 173.113123 232.740623 
L 175.178858 227.159017 
L 177.019736 221.499269 
L 178.632812 215.770433 
L 180.015505 209.981673 
L 180.724442 206.530967 
L 186.427344 208.233464 
L 192.193766 209.706543 
L 198.014482 210.947848 
L 203.880182 211.955394 
L 209.781481 212.727569 
L 215.708938 213.263137 
L 221.653071 213.561241 
L 227.60437 213.621405 
L 233.553314 213.443533 
L 251.012807 212.417279 
L 258.4182 211.702527 
L 265.803412 210.802883 
L 273.163828 209.718909 
L 280.494847 208.451283 
L 287.791888 207.000796 
L 295.05039 205.368355 
L 302.265817 203.554981 
L 309.43366 201.561807 
L 316.549439 199.390078 
L 323.608707 197.041152 
L 330.607052 194.516496 
L 337.5401 191.817689 
L 344.403519 188.946418 
L 351.193018 185.904475 
L 357.904356 182.693764 
L 364.533336 179.31629 
L 371.075818 175.774164 
L 377.527711 172.0696 
L 384.96 167.529654 
L 378.619271 163.637883 
L 372.18324 159.90583 
L 365.655928 156.335828 
L 359.041416 152.930107 
L 352.343836 149.690795 
L 345.567374 146.619918 
L 338.716266 143.719394 
L 331.794793 140.991037 
L 324.807282 138.436551 
L 317.758098 136.057533 
L 310.651648 133.855469 
L 303.492373 131.831737 
L 296.284747 129.987599 
L 289.033274 128.32421 
L 281.742487 126.842609 
L 274.416942 125.543722 
L 267.061218 124.42836 
L 259.67991 123.49722 
L 252.277634 122.750885 
L 244.859014 122.18982 
L 236.16 121.768872 
L 237.647023 121.714989 
L 245.077072 121.334091 
L 252.495278 120.76758 
L 259.897005 120.015811 
L 267.277626 119.079252 
L 274.63253 117.958489 
L 281.957119 116.654224 
L 289.246817 115.16727 
L 296.497066 113.498558 
L 303.703336 111.649129 
L 310.861124 109.620141 
L 317.965955 107.41286 
L 325.01339 105.028667 
L 331.999025 102.469052 
L 337.955629 100.128 
L 344.884604 102.837247 
L 351.879139 105.37244 
L 358.93486 107.731997 
L 366.04736 109.914441 
L 373.212193 111.91841 
L 380.424881 113.74265 
L 384.96 114.792112 
L 377.719661 116.503313 
L 370.524361 118.39497 
L 363.378595 120.4659 
L 356.28683 122.714807 
L 349.253498 125.140288 
L 342.282994 127.740826 
L 335.379675 130.514795 
L 328.547856 133.460463 
L 321.791805 136.575988 
L 315.115746 139.859423 
L 308.52385 143.308717 
L 302.020237 146.921712 
L 295.608972 150.696152 
L 289.294061 154.629678 
L 283.079452 158.71983 
L 276.969028 162.964054 
L 270.966607 167.359696 
L 265.075942 171.904009 
L 259.300714 176.594154 
L 253.644532 181.427198 
L 248.110931 186.400122 
L 242.703369 191.509818 
L 237.425226 196.753092 
L 236.16 198.04965 
L 241.406128 203.324956 
L 246.782485 208.467475 
L 252.285712 213.473992 
L 257.912369 218.341378 
L 263.65894 223.066591 
L 269.521833 227.646678 
L 275.497385 232.078777 
L 281.58186 236.360118 
L 287.771456 240.488025 
L 294.062305 244.459919 
L 301.584755 248.928 
L 307.989645 245.142752 
L 314.297913 241.198582 
L 320.505615 237.097953 
L 326.608872 232.84343 
L 332.60387 228.43767 
L 338.486862 223.883428 
L 344.254171 219.18355 
L 349.902194 214.340972 
L 355.4274 209.358722 
L 360.826336 204.239913 
L 366.095628 198.987744 
L 371.231983 193.605498 
L 376.232191 188.096538 
L 381.093127 182.464308 
L 384.96 177.772512 
L 380.215139 172.042153 
L 375.328516 166.432195 
L 370.303186 160.946142 
L 365.142289 155.587424 
L 359.849051 150.359389 
L 354.42678 145.265305 
L 348.878864 140.308356 
L 343.208771 135.491639 
L 337.420044 130.818164 
L 331.516302 126.290854 
L 325.501233 121.912536 
L 319.378598 117.685947 
L 313.152222 113.613729 
L 306.825997 109.698427 
L 300.403876 105.942487 
L 293.889874 102.348257 
L 289.663201 100.128 
L 283.092377 103.617268 
L 276.610829 107.269699 
L 270.222607 111.08301 
L 263.931705 115.054819 
L 257.742053 119.182643 
L 251.65752 123.463902 
L 245.681909 127.89592 
L 239.818954 132.475929 
L 236.16 135.456555 
L 241.94959 140.128959 
L 247.854169 144.655179 
L 253.870047 149.032385 
L 259.993464 153.257841 
L 266.220592 157.328909 
L 272.547541 161.243042 
L 278.970356 164.997794 
L 285.485023 168.59082 
L 288.651558 170.261556 
L 294.230174 172.335348 
L 299.7214 174.630566 
L 305.116448 177.143539 
L 310.406689 179.870246 
L 315.583659 182.806326 
L 320.639076 185.94708 
L 325.564853 189.287485 
L 326.612653 190.035892 
L 323.062773 185.258871 
L 319.706762 180.343714 
L 316.549989 175.298284 
L 313.597504 170.130652 
L 310.854032 164.849086 
L 308.32396 159.462035 
L 306.011337 153.978118 
L 305.540007 152.779849 
L 305.916339 158.719542 
L 306.054845 164.669534 
L 305.955305 170.620304 
L 305.617877 176.562335 
L 305.043101 182.486118 
L 304.231896 188.382179 
L 303.185561 194.241083 
L 302.92842 195.50278 
L 302.561765 202.933546 
L 302.380976 210.371155 
L 302.386163 217.810959 
L 302.577325 225.248309 
L 302.954342 232.678557 
L 303.516977 240.097058 
L 304.430812 248.928 
L 305.214483 241.529583 
L 305.812969 234.113888 
L 306.225894 226.68555 
L 306.453001 219.24921 
L 306.494149 211.809518 
L 306.34931 204.371122 
L 305.98585 196.374271 
L 302.688539 203.043488 
L 299.558971 209.793045 
L 296.599103 216.618724 
L 293.810783 223.516259 
L 291.195756 230.48134 
L 288.755654 237.509613 
L 286.492003 244.596686 
L 285.203862 248.928 
L 283.048081 241.807373 
L 280.714976 234.742861 
L 278.206005 227.738877 
L 275.522738 220.7998 
L 272.66685 213.929966 
L 269.640126 207.133669 
L 266.444458 200.415155 
L 263.081844 193.778624 
L 259.554384 187.228224 
L 255.864284 180.768047 
L 252.013849 174.402133 
L 248.005486 168.134458 
L 243.841701 161.968941 
L 239.525094 155.909434 
L 236.16 151.39857 
L 240.590418 145.421772 
L 244.870047 139.336093 
L 248.996213 133.145336 
L 252.966336 126.85337 
L 256.777937 120.464127 
L 260.428631 113.981601 
L 263.916139 107.409843 
L 267.539572 100.128 
L 270.846185 106.79261 
L 274.318362 113.372481 
L 277.953935 119.8635 
L 281.750629 126.261612 
L 285.706073 132.562816 
L 289.817795 138.763176 
L 294.083225 144.858816 
L 298.499698 150.845926 
L 301.14708 154.289934 
L 301.14708 154.289934 
" style="fill:none;stroke:#1f77b4;stroke-linecap:square;stroke-width:1.5;"/>
   </g>
   <g id="patch_5">
    <path d="M 57.6 263.808 
L 57.6 85.248 
" style="fill:none;stroke:#000000;stroke-linecap:square;stroke-linejoin:miter;stroke-width:0.8;"/>
   </g>
   <g id="patch_6">
    <path d="M 414.72 263.808 
L 414.72 85.248 
" style="fill:none;stroke:#000000;stroke-linecap:square;stroke-linejoin:miter;stroke-width:0.8;"/>
   </g>
   <g id="patch_7">
    <path d="M 57.6 263.808 
L 414.72 263.808 
" style="fill:none;stroke:#000000;stroke-linecap:square;stroke-linejoin:miter;stroke-width:0.8;"/>
   </g>
   <g id="patch_8">
    <path d="M 57.6 85.248 
L 414.72 85.248 
" style="fill:none;stroke:#000000;stroke-linecap:square;stroke-linejoin:miter;stroke-width:0.8;"/>
   </g>
  </g>
 </g>
 <defs>
  <clipPath id="pc9e3de2559">
   <rect height="178.56" width="357.12" x="57.6" y="85.248"/>
  </clipPath>
 </defs>
</svg>
