<?xml version="1.0" encoding="utf-8" standalone="no"?>
<!DOCTYPE svg PUBLIC "-//W3C//DTD SVG 1.1//EN"
  "http://www.w3.org/Graphics/SVG/1.1/DTD/svg11.dtd">
<!-- Created with matplotlib (http://matplotlib.org/) -->
<svg height="345.6pt" version="1.1" viewBox="0 0 460.8 345.6" width="460.8pt" xmlns="http://www.w3.org/2000/svg" xmlns:xlink="http://www.w3.org/1999/xlink">
 <defs>
  <style type="text/css">
*{stroke-linecap:butt;stroke-linejoin:round;}
  </style>
 </defs>
 <g id="figure_1">
  <g id="patch_1">
   <path d="M 0 345.6 
L 460.8 345.6 
L 460.8 0 
L 0 0 
z
" style="fill:#ffffff;"/>
  </g>
  <g id="axes_1">
   <g id="patch_2">
    <path d="M 103.104 307.584 
L 369.216 307.584 
L 369.216 41.472 
L 103.104 41.472 
z
" style="fill:#ffffff;"/>
   </g>
   <g id="PathCollection_1">
    <defs>
     <path d="M 0 3 
C 0.795609 3 1.55874 2.683901 2.12132 2.12132 
C 2.683901 1.55874 3 0.795609 3 0 
C 3 -0.795609 2.683901 -1.55874 2.12132 -2.12132 
C 1.55874 -2.683901 0.795609 -3 0 -3 
C -0.795609 -3 -1.55874 -2.683901 -2.12132 -2.12132 
C -2.683901 -1.55874 -3 -0.795609 -3 0 
C -3 0.795609 -2.683901 1.55874 -2.12132 2.12132 
C -1.55874 2.683901 -0.795609 3 0 3 
z
" id="mddb7fedcb6" style="stroke:#000000;"/>
    </defs>
    <g clip-path="url(#pcae6673240)">
     <use style="stroke:#000000;" x="281.402594" xlink:href="#mddb7fedcb6" y="240.086212"/>
    </g>
   </g>
   <g id="PathCollection_2">
    <defs>
     <path d="M 0 2.738613 
C 0.726289 2.738613 1.422928 2.450055 1.936492 1.936492 
C 2.450055 1.422928 2.738613 0.726289 2.738613 0 
C 2.738613 -0.726289 2.450055 -1.422928 1.936492 -1.936492 
C 1.422928 -2.450055 0.726289 -2.738613 0 -2.738613 
C -0.726289 -2.738613 -1.422928 -2.450055 -1.936492 -1.936492 
C -2.450055 -1.422928 -2.738613 -0.726289 -2.738613 0 
C -2.738613 0.726289 -2.450055 1.422928 -1.936492 1.936492 
C -1.422928 2.450055 -0.726289 2.738613 0 2.738613 
z
" id="m547e94db51" style="stroke:#000000;"/>
    </defs>
    <g clip-path="url(#pcae6673240)">
     <use style="stroke:#000000;" x="124.828474" xlink:href="#m547e94db51" y="97.942387"/>
    </g>
   </g>
   <g id="Quiver_1">
    <path clip-path="url(#pcae6673240)" d="M 125.451443 97.708922 
L 130.821148 112.037227 
L 131.833623 110.947327 
L 132.299367 117.877421 
L 128.095804 112.348119 
L 129.575209 112.504158 
L 124.205504 98.175853 
L 125.451443 97.708922 
"/>
   </g>
   <g id="patch_3">
    <path clip-path="url(#pcae6673240)" d="M 119.736 299.268 
C 121.941429 299.268 124.056826 298.391774 125.6163 296.8323 
C 127.175774 295.272826 128.052 293.157429 128.052 290.952 
C 128.052 288.746571 127.175774 286.631174 125.6163 285.0717 
C 124.056826 283.512226 121.941429 282.636 119.736 282.636 
C 117.530571 282.636 115.415174 283.512226 113.8557 285.0717 
C 112.296226 286.631174 111.42 288.746571 111.42 290.952 
C 111.42 293.157429 112.296226 295.272826 113.8557 296.8323 
C 115.415174 298.391774 117.530571 299.268 119.736 299.268 
z
" style="fill:#9558b2;fill-opacity:0.5;stroke:#9558b2;stroke-linejoin:miter;stroke-width:2;"/>
   </g>
   <g id="patch_4">
    <path clip-path="url(#pcae6673240)" d="M 153 295.11 
C 154.102714 295.11 155.160413 294.671887 155.94015 293.89215 
C 156.719887 293.112413 157.158 292.054714 157.158 290.952 
C 157.158 289.849286 156.719887 288.791587 155.94015 288.01185 
C 155.160413 287.232113 154.102714 286.794 153 286.794 
C 151.897286 286.794 150.839587 287.232113 150.05985 288.01185 
C 149.280113 288.791587 148.842 289.849286 148.842 290.952 
C 148.842 292.054714 149.280113 293.112413 150.05985 293.89215 
C 150.839587 294.671887 151.897286 295.11 153 295.11 
z
" style="fill:#009900;fill-opacity:0.5;stroke:#009900;stroke-linejoin:miter;stroke-width:2;"/>
   </g>
   <g id="patch_5">
    <path clip-path="url(#pcae6673240)" d="M 119.736 266.004 
C 121.941429 266.004 124.056826 265.127774 125.6163 263.5683 
C 127.175774 262.008826 128.052 259.893429 128.052 257.688 
C 128.052 255.482571 127.175774 253.367174 125.6163 251.8077 
C 124.056826 250.248226 121.941429 249.372 119.736 249.372 
C 117.530571 249.372 115.415174 250.248226 113.8557 251.8077 
C 112.296226 253.367174 111.42 255.482571 111.42 257.688 
C 111.42 259.893429 112.296226 262.008826 113.8557 263.5683 
C 115.415174 265.127774 117.530571 266.004 119.736 266.004 
z
" style="fill:#9558b2;fill-opacity:0.5;stroke:#9558b2;stroke-linejoin:miter;stroke-width:2;"/>
   </g>
   <g id="patch_6">
    <path clip-path="url(#pcae6673240)" d="M 153 261.846 
C 154.102714 261.846 155.160413 261.407887 155.94015 260.62815 
C 156.719887 259.848413 157.158 258.790714 157.158 257.688 
C 157.158 256.585286 156.719887 255.527587 155.94015 254.74785 
C 155.160413 253.968113 154.102714 253.53 153 253.53 
C 151.897286 253.53 150.839587 253.968113 150.05985 254.74785 
C 149.280113 255.527587 148.842 256.585286 148.842 257.688 
C 148.842 258.790714 149.280113 259.848413 150.05985 260.62815 
C 150.839587 261.407887 151.897286 261.846 153 261.846 
z
" style="fill:#009900;fill-opacity:0.5;stroke:#009900;stroke-linejoin:miter;stroke-width:2;"/>
   </g>
   <g id="patch_7">
    <path clip-path="url(#pcae6673240)" d="M 119.736 232.74 
C 121.941429 232.74 124.056826 231.863774 125.6163 230.3043 
C 127.175774 228.744826 128.052 226.629429 128.052 224.424 
C 128.052 222.218571 127.175774 220.103174 125.6163 218.5437 
C 124.056826 216.984226 121.941429 216.108 119.736 216.108 
C 117.530571 216.108 115.415174 216.984226 113.8557 218.5437 
C 112.296226 220.103174 111.42 222.218571 111.42 224.424 
C 111.42 226.629429 112.296226 228.744826 113.8557 230.3043 
C 115.415174 231.863774 117.530571 232.74 119.736 232.74 
z
" style="fill:#9558b2;fill-opacity:0.5;stroke:#9558b2;stroke-linejoin:miter;stroke-width:2;"/>
   </g>
   <g id="patch_8">
    <path clip-path="url(#pcae6673240)" d="M 153 228.582 
C 154.102714 228.582 155.160413 228.143887 155.94015 227.36415 
C 156.719887 226.584413 157.158 225.526714 157.158 224.424 
C 157.158 223.321286 156.719887 222.263587 155.94015 221.48385 
C 155.160413 220.704113 154.102714 220.266 153 220.266 
C 151.897286 220.266 150.839587 220.704113 150.05985 221.48385 
C 149.280113 222.263587 148.842 223.321286 148.842 224.424 
C 148.842 225.526714 149.280113 226.584413 150.05985 227.36415 
C 150.839587 228.143887 151.897286 228.582 153 228.582 
z
" style="fill:#009900;fill-opacity:0.5;stroke:#009900;stroke-linejoin:miter;stroke-width:2;"/>
   </g>
   <g id="patch_9">
    <path clip-path="url(#pcae6673240)" d="M 119.736 199.476 
C 121.941429 199.476 124.056826 198.599774 125.6163 197.0403 
C 127.175774 195.480826 128.052 193.365429 128.052 191.16 
C 128.052 188.954571 127.175774 186.839174 125.6163 185.2797 
C 124.056826 183.720226 121.941429 182.844 119.736 182.844 
C 117.530571 182.844 115.415174 183.720226 113.8557 185.2797 
C 112.296226 186.839174 111.42 188.954571 111.42 191.16 
C 111.42 193.365429 112.296226 195.480826 113.8557 197.0403 
C 115.415174 198.599774 117.530571 199.476 119.736 199.476 
z
" style="fill:#9558b2;fill-opacity:0.5;stroke:#9558b2;stroke-linejoin:miter;stroke-width:2;"/>
   </g>
   <g id="patch_10">
    <path clip-path="url(#pcae6673240)" d="M 153 195.318 
C 154.102714 195.318 155.160413 194.879887 155.94015 194.10015 
C 156.719887 193.320413 157.158 192.262714 157.158 191.16 
C 157.158 190.057286 156.719887 188.999587 155.94015 188.21985 
C 155.160413 187.440113 154.102714 187.002 153 187.002 
C 151.897286 187.002 150.839587 187.440113 150.05985 188.21985 
C 149.280113 188.999587 148.842 190.057286 148.842 191.16 
C 148.842 192.262714 149.280113 193.320413 150.05985 194.10015 
C 150.839587 194.879887 151.897286 195.318 153 195.318 
z
" style="fill:#009900;fill-opacity:0.5;stroke:#009900;stroke-linejoin:miter;stroke-width:2;"/>
   </g>
   <g id="patch_11">
    <path clip-path="url(#pcae6673240)" d="M 119.736 166.212 
C 121.941429 166.212 124.056826 165.335774 125.6163 163.7763 
C 127.175774 162.216826 128.052 160.101429 128.052 157.896 
C 128.052 155.690571 127.175774 153.575174 125.6163 152.0157 
C 124.056826 150.456226 121.941429 149.58 119.736 149.58 
C 117.530571 149.58 115.415174 150.456226 113.8557 152.0157 
C 112.296226 153.575174 111.42 155.690571 111.42 157.896 
C 111.42 160.101429 112.296226 162.216826 113.8557 163.7763 
C 115.415174 165.335774 117.530571 166.212 119.736 166.212 
z
" style="fill:#9558b2;fill-opacity:0.5;stroke:#9558b2;stroke-linejoin:miter;stroke-width:2;"/>
   </g>
   <g id="patch_12">
    <path clip-path="url(#pcae6673240)" d="M 153 162.054 
C 154.102714 162.054 155.160413 161.615887 155.94015 160.83615 
C 156.719887 160.056413 157.158 158.998714 157.158 157.896 
C 157.158 156.793286 156.719887 155.735587 155.94015 154.95585 
C 155.160413 154.176113 154.102714 153.738 153 153.738 
C 151.897286 153.738 150.839587 154.176113 150.05985 154.95585 
C 149.280113 155.735587 148.842 156.793286 148.842 157.896 
C 148.842 158.998714 149.280113 160.056413 150.05985 160.83615 
C 150.839587 161.615887 151.897286 162.054 153 162.054 
z
" style="fill:#009900;fill-opacity:0.5;stroke:#009900;stroke-linejoin:miter;stroke-width:2;"/>
   </g>
   <g id="patch_13">
    <path clip-path="url(#pcae6673240)" d="M 119.736 132.948 
C 121.941429 132.948 124.056826 132.071774 125.6163 130.5123 
C 127.175774 128.952826 128.052 126.837429 128.052 124.632 
C 128.052 122.426571 127.175774 120.311174 125.6163 118.7517 
C 124.056826 117.192226 121.941429 116.316 119.736 116.316 
C 117.530571 116.316 115.415174 117.192226 113.8557 118.7517 
C 112.296226 120.311174 111.42 122.426571 111.42 124.632 
C 111.42 126.837429 112.296226 128.952826 113.8557 130.5123 
C 115.415174 132.071774 117.530571 132.948 119.736 132.948 
z
" style="fill:#9558b2;fill-opacity:0.5;stroke:#9558b2;stroke-linejoin:miter;stroke-width:2;"/>
   </g>
   <g id="patch_14">
    <path clip-path="url(#pcae6673240)" d="M 153 128.79 
C 154.102714 128.79 155.160413 128.351887 155.94015 127.57215 
C 156.719887 126.792413 157.158 125.734714 157.158 124.632 
C 157.158 123.529286 156.719887 122.471587 155.94015 121.69185 
C 155.160413 120.912113 154.102714 120.474 153 120.474 
C 151.897286 120.474 150.839587 120.912113 150.05985 121.69185 
C 149.280113 122.471587 148.842 123.529286 148.842 124.632 
C 148.842 125.734714 149.280113 126.792413 150.05985 127.57215 
C 150.839587 128.351887 151.897286 128.79 153 128.79 
z
" style="fill:#009900;fill-opacity:0.5;stroke:#009900;stroke-linejoin:miter;stroke-width:2;"/>
   </g>
   <g id="patch_15">
    <path clip-path="url(#pcae6673240)" d="M 119.736 99.684 
C 121.941429 99.684 124.056826 98.807774 125.6163 97.2483 
C 127.175774 95.688826 128.052 93.573429 128.052 91.368 
C 128.052 89.162571 127.175774 87.047174 125.6163 85.4877 
C 124.056826 83.928226 121.941429 83.052 119.736 83.052 
C 117.530571 83.052 115.415174 83.928226 113.8557 85.4877 
C 112.296226 87.047174 111.42 89.162571 111.42 91.368 
C 111.42 93.573429 112.296226 95.688826 113.8557 97.2483 
C 115.415174 98.807774 117.530571 99.684 119.736 99.684 
z
" style="fill:#9558b2;fill-opacity:0.5;stroke:#9558b2;stroke-linejoin:miter;stroke-width:2;"/>
   </g>
   <g id="patch_16">
    <path clip-path="url(#pcae6673240)" d="M 153 95.526 
C 154.102714 95.526 155.160413 95.087887 155.94015 94.30815 
C 156.719887 93.528413 157.158 92.470714 157.158 91.368 
C 157.158 90.265286 156.719887 89.207587 155.94015 88.42785 
C 155.160413 87.648113 154.102714 87.21 153 87.21 
C 151.897286 87.21 150.839587 87.648113 150.05985 88.42785 
C 149.280113 89.207587 148.842 90.265286 148.842 91.368 
C 148.842 92.470714 149.280113 93.528413 150.05985 94.30815 
C 150.839587 95.087887 151.897286 95.526 153 95.526 
z
" style="fill:#009900;fill-opacity:0.5;stroke:#009900;stroke-linejoin:miter;stroke-width:2;"/>
   </g>
   <g id="patch_17">
    <path clip-path="url(#pcae6673240)" d="M 119.736 66.42 
C 121.941429 66.42 124.056826 65.543774 125.6163 63.9843 
C 127.175774 62.424826 128.052 60.309429 128.052 58.104 
C 128.052 55.898571 127.175774 53.783174 125.6163 52.2237 
C 124.056826 50.664226 121.941429 49.788 119.736 49.788 
C 117.530571 49.788 115.415174 50.664226 113.8557 52.2237 
C 112.296226 53.783174 111.42 55.898571 111.42 58.104 
C 111.42 60.309429 112.296226 62.424826 113.8557 63.9843 
C 115.415174 65.543774 117.530571 66.42 119.736 66.42 
z
" style="fill:#9558b2;fill-opacity:0.5;stroke:#9558b2;stroke-linejoin:miter;stroke-width:2;"/>
   </g>
   <g id="patch_18">
    <path clip-path="url(#pcae6673240)" d="M 153 62.262 
C 154.102714 62.262 155.160413 61.823887 155.94015 61.04415 
C 156.719887 60.264413 157.158 59.206714 157.158 58.104 
C 157.158 57.001286 156.719887 55.943587 155.94015 55.16385 
C 155.160413 54.384113 154.102714 53.946 153 53.946 
C 151.897286 53.946 150.839587 54.384113 150.05985 55.16385 
C 149.280113 55.943587 148.842 57.001286 148.842 58.104 
C 148.842 59.206714 149.280113 60.264413 150.05985 61.04415 
C 150.839587 61.823887 151.897286 62.262 153 62.262 
z
" style="fill:#009900;fill-opacity:0.5;stroke:#009900;stroke-linejoin:miter;stroke-width:2;"/>
   </g>
   <g id="patch_19">
    <path clip-path="url(#pcae6673240)" d="M 186.264 299.268 
C 188.469429 299.268 190.584826 298.391774 192.1443 296.8323 
C 193.703774 295.272826 194.58 293.157429 194.58 290.952 
C 194.58 288.746571 193.703774 286.631174 192.1443 285.0717 
C 190.584826 283.512226 188.469429 282.636 186.264 282.636 
C 184.058571 282.636 181.943174 283.512226 180.3837 285.0717 
C 178.824226 286.631174 177.948 288.746571 177.948 290.952 
C 177.948 293.157429 178.824226 295.272826 180.3837 296.8323 
C 181.943174 298.391774 184.058571 299.268 186.264 299.268 
z
" style="fill:#9558b2;fill-opacity:0.5;stroke:#9558b2;stroke-linejoin:miter;stroke-width:2;"/>
   </g>
   <g id="patch_20">
    <path clip-path="url(#pcae6673240)" d="M 219.528 295.11 
C 220.630714 295.11 221.688413 294.671887 222.46815 293.89215 
C 223.247887 293.112413 223.686 292.054714 223.686 290.952 
C 223.686 289.849286 223.247887 288.791587 222.46815 288.01185 
C 221.688413 287.232113 220.630714 286.794 219.528 286.794 
C 218.425286 286.794 217.367587 287.232113 216.58785 288.01185 
C 215.808113 288.791587 215.37 289.849286 215.37 290.952 
C 215.37 292.054714 215.808113 293.112413 216.58785 293.89215 
C 217.367587 294.671887 218.425286 295.11 219.528 295.11 
z
" style="fill:#009900;fill-opacity:0.5;stroke:#009900;stroke-linejoin:miter;stroke-width:2;"/>
   </g>
   <g id="patch_21">
    <path clip-path="url(#pcae6673240)" d="M 186.264 266.004 
C 188.469429 266.004 190.584826 265.127774 192.1443 263.5683 
C 193.703774 262.008826 194.58 259.893429 194.58 257.688 
C 194.58 255.482571 193.703774 253.367174 192.1443 251.8077 
C 190.584826 250.248226 188.469429 249.372 186.264 249.372 
C 184.058571 249.372 181.943174 250.248226 180.3837 251.8077 
C 178.824226 253.367174 177.948 255.482571 177.948 257.688 
C 177.948 259.893429 178.824226 262.008826 180.3837 263.5683 
C 181.943174 265.127774 184.058571 266.004 186.264 266.004 
z
" style="fill:#9558b2;fill-opacity:0.5;stroke:#9558b2;stroke-linejoin:miter;stroke-width:2;"/>
   </g>
   <g id="patch_22">
    <path clip-path="url(#pcae6673240)" d="M 219.528 261.846 
C 220.630714 261.846 221.688413 261.407887 222.46815 260.62815 
C 223.247887 259.848413 223.686 258.790714 223.686 257.688 
C 223.686 256.585286 223.247887 255.527587 222.46815 254.74785 
C 221.688413 253.968113 220.630714 253.53 219.528 253.53 
C 218.425286 253.53 217.367587 253.968113 216.58785 254.74785 
C 215.808113 255.527587 215.37 256.585286 215.37 257.688 
C 215.37 258.790714 215.808113 259.848413 216.58785 260.62815 
C 217.367587 261.407887 218.425286 261.846 219.528 261.846 
z
" style="fill:#009900;fill-opacity:0.5;stroke:#009900;stroke-linejoin:miter;stroke-width:2;"/>
   </g>
   <g id="patch_23">
    <path clip-path="url(#pcae6673240)" d="M 186.264 232.74 
C 188.469429 232.74 190.584826 231.863774 192.1443 230.3043 
C 193.703774 228.744826 194.58 226.629429 194.58 224.424 
C 194.58 222.218571 193.703774 220.103174 192.1443 218.5437 
C 190.584826 216.984226 188.469429 216.108 186.264 216.108 
C 184.058571 216.108 181.943174 216.984226 180.3837 218.5437 
C 178.824226 220.103174 177.948 222.218571 177.948 224.424 
C 177.948 226.629429 178.824226 228.744826 180.3837 230.3043 
C 181.943174 231.863774 184.058571 232.74 186.264 232.74 
z
" style="fill:#9558b2;fill-opacity:0.5;stroke:#9558b2;stroke-linejoin:miter;stroke-width:2;"/>
   </g>
   <g id="patch_24">
    <path clip-path="url(#pcae6673240)" d="M 219.528 228.582 
C 220.630714 228.582 221.688413 228.143887 222.46815 227.36415 
C 223.247887 226.584413 223.686 225.526714 223.686 224.424 
C 223.686 223.321286 223.247887 222.263587 222.46815 221.48385 
C 221.688413 220.704113 220.630714 220.266 219.528 220.266 
C 218.425286 220.266 217.367587 220.704113 216.58785 221.48385 
C 215.808113 222.263587 215.37 223.321286 215.37 224.424 
C 215.37 225.526714 215.808113 226.584413 216.58785 227.36415 
C 217.367587 228.143887 218.425286 228.582 219.528 228.582 
z
" style="fill:#009900;fill-opacity:0.5;stroke:#009900;stroke-linejoin:miter;stroke-width:2;"/>
   </g>
   <g id="patch_25">
    <path clip-path="url(#pcae6673240)" d="M 186.264 199.476 
C 188.469429 199.476 190.584826 198.599774 192.1443 197.0403 
C 193.703774 195.480826 194.58 193.365429 194.58 191.16 
C 194.58 188.954571 193.703774 186.839174 192.1443 185.2797 
C 190.584826 183.720226 188.469429 182.844 186.264 182.844 
C 184.058571 182.844 181.943174 183.720226 180.3837 185.2797 
C 178.824226 186.839174 177.948 188.954571 177.948 191.16 
C 177.948 193.365429 178.824226 195.480826 180.3837 197.0403 
C 181.943174 198.599774 184.058571 199.476 186.264 199.476 
z
" style="fill:#9558b2;fill-opacity:0.5;stroke:#9558b2;stroke-linejoin:miter;stroke-width:2;"/>
   </g>
   <g id="patch_26">
    <path clip-path="url(#pcae6673240)" d="M 219.528 195.318 
C 220.630714 195.318 221.688413 194.879887 222.46815 194.10015 
C 223.247887 193.320413 223.686 192.262714 223.686 191.16 
C 223.686 190.057286 223.247887 188.999587 222.46815 188.21985 
C 221.688413 187.440113 220.630714 187.002 219.528 187.002 
C 218.425286 187.002 217.367587 187.440113 216.58785 188.21985 
C 215.808113 188.999587 215.37 190.057286 215.37 191.16 
C 215.37 192.262714 215.808113 193.320413 216.58785 194.10015 
C 217.367587 194.879887 218.425286 195.318 219.528 195.318 
z
" style="fill:#009900;fill-opacity:0.5;stroke:#009900;stroke-linejoin:miter;stroke-width:2;"/>
   </g>
   <g id="patch_27">
    <path clip-path="url(#pcae6673240)" d="M 186.264 166.212 
C 188.469429 166.212 190.584826 165.335774 192.1443 163.7763 
C 193.703774 162.216826 194.58 160.101429 194.58 157.896 
C 194.58 155.690571 193.703774 153.575174 192.1443 152.0157 
C 190.584826 150.456226 188.469429 149.58 186.264 149.58 
C 184.058571 149.58 181.943174 150.456226 180.3837 152.0157 
C 178.824226 153.575174 177.948 155.690571 177.948 157.896 
C 177.948 160.101429 178.824226 162.216826 180.3837 163.7763 
C 181.943174 165.335774 184.058571 166.212 186.264 166.212 
z
" style="fill:#9558b2;fill-opacity:0.5;stroke:#9558b2;stroke-linejoin:miter;stroke-width:2;"/>
   </g>
   <g id="patch_28">
    <path clip-path="url(#pcae6673240)" d="M 219.528 162.054 
C 220.630714 162.054 221.688413 161.615887 222.46815 160.83615 
C 223.247887 160.056413 223.686 158.998714 223.686 157.896 
C 223.686 156.793286 223.247887 155.735587 222.46815 154.95585 
C 221.688413 154.176113 220.630714 153.738 219.528 153.738 
C 218.425286 153.738 217.367587 154.176113 216.58785 154.95585 
C 215.808113 155.735587 215.37 156.793286 215.37 157.896 
C 215.37 158.998714 215.808113 160.056413 216.58785 160.83615 
C 217.367587 161.615887 218.425286 162.054 219.528 162.054 
z
" style="fill:#009900;fill-opacity:0.5;stroke:#009900;stroke-linejoin:miter;stroke-width:2;"/>
   </g>
   <g id="patch_29">
    <path clip-path="url(#pcae6673240)" d="M 186.264 132.948 
C 188.469429 132.948 190.584826 132.071774 192.1443 130.5123 
C 193.703774 128.952826 194.58 126.837429 194.58 124.632 
C 194.58 122.426571 193.703774 120.311174 192.1443 118.7517 
C 190.584826 117.192226 188.469429 116.316 186.264 116.316 
C 184.058571 116.316 181.943174 117.192226 180.3837 118.7517 
C 178.824226 120.311174 177.948 122.426571 177.948 124.632 
C 177.948 126.837429 178.824226 128.952826 180.3837 130.5123 
C 181.943174 132.071774 184.058571 132.948 186.264 132.948 
z
" style="fill:#9558b2;fill-opacity:0.5;stroke:#9558b2;stroke-linejoin:miter;stroke-width:2;"/>
   </g>
   <g id="patch_30">
    <path clip-path="url(#pcae6673240)" d="M 219.528 128.79 
C 220.630714 128.79 221.688413 128.351887 222.46815 127.57215 
C 223.247887 126.792413 223.686 125.734714 223.686 124.632 
C 223.686 123.529286 223.247887 122.471587 222.46815 121.69185 
C 221.688413 120.912113 220.630714 120.474 219.528 120.474 
C 218.425286 120.474 217.367587 120.912113 216.58785 121.69185 
C 215.808113 122.471587 215.37 123.529286 215.37 124.632 
C 215.37 125.734714 215.808113 126.792413 216.58785 127.57215 
C 217.367587 128.351887 218.425286 128.79 219.528 128.79 
z
" style="fill:#009900;fill-opacity:0.5;stroke:#009900;stroke-linejoin:miter;stroke-width:2;"/>
   </g>
   <g id="patch_31">
    <path clip-path="url(#pcae6673240)" d="M 186.264 99.684 
C 188.469429 99.684 190.584826 98.807774 192.1443 97.2483 
C 193.703774 95.688826 194.58 93.573429 194.58 91.368 
C 194.58 89.162571 193.703774 87.047174 192.1443 85.4877 
C 190.584826 83.928226 188.469429 83.052 186.264 83.052 
C 184.058571 83.052 181.943174 83.928226 180.3837 85.4877 
C 178.824226 87.047174 177.948 89.162571 177.948 91.368 
C 177.948 93.573429 178.824226 95.688826 180.3837 97.2483 
C 181.943174 98.807774 184.058571 99.684 186.264 99.684 
z
" style="fill:#9558b2;fill-opacity:0.5;stroke:#9558b2;stroke-linejoin:miter;stroke-width:2;"/>
   </g>
   <g id="patch_32">
    <path clip-path="url(#pcae6673240)" d="M 219.528 95.526 
C 220.630714 95.526 221.688413 95.087887 222.46815 94.30815 
C 223.247887 93.528413 223.686 92.470714 223.686 91.368 
C 223.686 90.265286 223.247887 89.207587 222.46815 88.42785 
C 221.688413 87.648113 220.630714 87.21 219.528 87.21 
C 218.425286 87.21 217.367587 87.648113 216.58785 88.42785 
C 215.808113 89.207587 215.37 90.265286 215.37 91.368 
C 215.37 92.470714 215.808113 93.528413 216.58785 94.30815 
C 217.367587 95.087887 218.425286 95.526 219.528 95.526 
z
" style="fill:#009900;fill-opacity:0.5;stroke:#009900;stroke-linejoin:miter;stroke-width:2;"/>
   </g>
   <g id="patch_33">
    <path clip-path="url(#pcae6673240)" d="M 186.264 66.42 
C 188.469429 66.42 190.584826 65.543774 192.1443 63.9843 
C 193.703774 62.424826 194.58 60.309429 194.58 58.104 
C 194.58 55.898571 193.703774 53.783174 192.1443 52.2237 
C 190.584826 50.664226 188.469429 49.788 186.264 49.788 
C 184.058571 49.788 181.943174 50.664226 180.3837 52.2237 
C 178.824226 53.783174 177.948 55.898571 177.948 58.104 
C 177.948 60.309429 178.824226 62.424826 180.3837 63.9843 
C 181.943174 65.543774 184.058571 66.42 186.264 66.42 
z
" style="fill:#9558b2;fill-opacity:0.5;stroke:#9558b2;stroke-linejoin:miter;stroke-width:2;"/>
   </g>
   <g id="patch_34">
    <path clip-path="url(#pcae6673240)" d="M 219.528 62.262 
C 220.630714 62.262 221.688413 61.823887 222.46815 61.04415 
C 223.247887 60.264413 223.686 59.206714 223.686 58.104 
C 223.686 57.001286 223.247887 55.943587 222.46815 55.16385 
C 221.688413 54.384113 220.630714 53.946 219.528 53.946 
C 218.425286 53.946 217.367587 54.384113 216.58785 55.16385 
C 215.808113 55.943587 215.37 57.001286 215.37 58.104 
C 215.37 59.206714 215.808113 60.264413 216.58785 61.04415 
C 217.367587 61.823887 218.425286 62.262 219.528 62.262 
z
" style="fill:#009900;fill-opacity:0.5;stroke:#009900;stroke-linejoin:miter;stroke-width:2;"/>
   </g>
   <g id="patch_35">
    <path clip-path="url(#pcae6673240)" d="M 252.792 299.268 
C 254.997429 299.268 257.112826 298.391774 258.6723 296.8323 
C 260.231774 295.272826 261.108 293.157429 261.108 290.952 
C 261.108 288.746571 260.231774 286.631174 258.6723 285.0717 
C 257.112826 283.512226 254.997429 282.636 252.792 282.636 
C 250.586571 282.636 248.471174 283.512226 246.9117 285.0717 
C 245.352226 286.631174 244.476 288.746571 244.476 290.952 
C 244.476 293.157429 245.352226 295.272826 246.9117 296.8323 
C 248.471174 298.391774 250.586571 299.268 252.792 299.268 
z
" style="fill:#9558b2;fill-opacity:0.5;stroke:#9558b2;stroke-linejoin:miter;stroke-width:2;"/>
   </g>
   <g id="patch_36">
    <path clip-path="url(#pcae6673240)" d="M 286.056 295.11 
C 287.158714 295.11 288.216413 294.671887 288.99615 293.89215 
C 289.775887 293.112413 290.214 292.054714 290.214 290.952 
C 290.214 289.849286 289.775887 288.791587 288.99615 288.01185 
C 288.216413 287.232113 287.158714 286.794 286.056 286.794 
C 284.953286 286.794 283.895587 287.232113 283.11585 288.01185 
C 282.336113 288.791587 281.898 289.849286 281.898 290.952 
C 281.898 292.054714 282.336113 293.112413 283.11585 293.89215 
C 283.895587 294.671887 284.953286 295.11 286.056 295.11 
z
" style="fill:#009900;fill-opacity:0.5;stroke:#009900;stroke-linejoin:miter;stroke-width:2;"/>
   </g>
   <g id="patch_37">
    <path clip-path="url(#pcae6673240)" d="M 252.792 266.004 
C 254.997429 266.004 257.112826 265.127774 258.6723 263.5683 
C 260.231774 262.008826 261.108 259.893429 261.108 257.688 
C 261.108 255.482571 260.231774 253.367174 258.6723 251.8077 
C 257.112826 250.248226 254.997429 249.372 252.792 249.372 
C 250.586571 249.372 248.471174 250.248226 246.9117 251.8077 
C 245.352226 253.367174 244.476 255.482571 244.476 257.688 
C 244.476 259.893429 245.352226 262.008826 246.9117 263.5683 
C 248.471174 265.127774 250.586571 266.004 252.792 266.004 
z
" style="fill:#9558b2;fill-opacity:0.5;stroke:#9558b2;stroke-linejoin:miter;stroke-width:2;"/>
   </g>
   <g id="patch_38">
    <path clip-path="url(#pcae6673240)" d="M 286.056 261.846 
C 287.158714 261.846 288.216413 261.407887 288.99615 260.62815 
C 289.775887 259.848413 290.214 258.790714 290.214 257.688 
C 290.214 256.585286 289.775887 255.527587 288.99615 254.74785 
C 288.216413 253.968113 287.158714 253.53 286.056 253.53 
C 284.953286 253.53 283.895587 253.968113 283.11585 254.74785 
C 282.336113 255.527587 281.898 256.585286 281.898 257.688 
C 281.898 258.790714 282.336113 259.848413 283.11585 260.62815 
C 283.895587 261.407887 284.953286 261.846 286.056 261.846 
z
" style="fill:#009900;fill-opacity:0.5;stroke:#009900;stroke-linejoin:miter;stroke-width:2;"/>
   </g>
   <g id="patch_39">
    <path clip-path="url(#pcae6673240)" d="M 252.792 232.74 
C 254.997429 232.74 257.112826 231.863774 258.6723 230.3043 
C 260.231774 228.744826 261.108 226.629429 261.108 224.424 
C 261.108 222.218571 260.231774 220.103174 258.6723 218.5437 
C 257.112826 216.984226 254.997429 216.108 252.792 216.108 
C 250.586571 216.108 248.471174 216.984226 246.9117 218.5437 
C 245.352226 220.103174 244.476 222.218571 244.476 224.424 
C 244.476 226.629429 245.352226 228.744826 246.9117 230.3043 
C 248.471174 231.863774 250.586571 232.74 252.792 232.74 
z
" style="fill:#9558b2;fill-opacity:0.5;stroke:#9558b2;stroke-linejoin:miter;stroke-width:2;"/>
   </g>
   <g id="patch_40">
    <path clip-path="url(#pcae6673240)" d="M 286.056 228.582 
C 287.158714 228.582 288.216413 228.143887 288.99615 227.36415 
C 289.775887 226.584413 290.214 225.526714 290.214 224.424 
C 290.214 223.321286 289.775887 222.263587 288.99615 221.48385 
C 288.216413 220.704113 287.158714 220.266 286.056 220.266 
C 284.953286 220.266 283.895587 220.704113 283.11585 221.48385 
C 282.336113 222.263587 281.898 223.321286 281.898 224.424 
C 281.898 225.526714 282.336113 226.584413 283.11585 227.36415 
C 283.895587 228.143887 284.953286 228.582 286.056 228.582 
z
" style="fill:#009900;fill-opacity:0.5;stroke:#009900;stroke-linejoin:miter;stroke-width:2;"/>
   </g>
   <g id="patch_41">
    <path clip-path="url(#pcae6673240)" d="M 252.792 199.476 
C 254.997429 199.476 257.112826 198.599774 258.6723 197.0403 
C 260.231774 195.480826 261.108 193.365429 261.108 191.16 
C 261.108 188.954571 260.231774 186.839174 258.6723 185.2797 
C 257.112826 183.720226 254.997429 182.844 252.792 182.844 
C 250.586571 182.844 248.471174 183.720226 246.9117 185.2797 
C 245.352226 186.839174 244.476 188.954571 244.476 191.16 
C 244.476 193.365429 245.352226 195.480826 246.9117 197.0403 
C 248.471174 198.599774 250.586571 199.476 252.792 199.476 
z
" style="fill:#9558b2;fill-opacity:0.5;stroke:#9558b2;stroke-linejoin:miter;stroke-width:2;"/>
   </g>
   <g id="patch_42">
    <path clip-path="url(#pcae6673240)" d="M 286.056 195.318 
C 287.158714 195.318 288.216413 194.879887 288.99615 194.10015 
C 289.775887 193.320413 290.214 192.262714 290.214 191.16 
C 290.214 190.057286 289.775887 188.999587 288.99615 188.21985 
C 288.216413 187.440113 287.158714 187.002 286.056 187.002 
C 284.953286 187.002 283.895587 187.440113 283.11585 188.21985 
C 282.336113 188.999587 281.898 190.057286 281.898 191.16 
C 281.898 192.262714 282.336113 193.320413 283.11585 194.10015 
C 283.895587 194.879887 284.953286 195.318 286.056 195.318 
z
" style="fill:#009900;fill-opacity:0.5;stroke:#009900;stroke-linejoin:miter;stroke-width:2;"/>
   </g>
   <g id="patch_43">
    <path clip-path="url(#pcae6673240)" d="M 252.792 166.212 
C 254.997429 166.212 257.112826 165.335774 258.6723 163.7763 
C 260.231774 162.216826 261.108 160.101429 261.108 157.896 
C 261.108 155.690571 260.231774 153.575174 258.6723 152.0157 
C 257.112826 150.456226 254.997429 149.58 252.792 149.58 
C 250.586571 149.58 248.471174 150.456226 246.9117 152.0157 
C 245.352226 153.575174 244.476 155.690571 244.476 157.896 
C 244.476 160.101429 245.352226 162.216826 246.9117 163.7763 
C 248.471174 165.335774 250.586571 166.212 252.792 166.212 
z
" style="fill:#9558b2;fill-opacity:0.5;stroke:#9558b2;stroke-linejoin:miter;stroke-width:2;"/>
   </g>
   <g id="patch_44">
    <path clip-path="url(#pcae6673240)" d="M 286.056 162.054 
C 287.158714 162.054 288.216413 161.615887 288.99615 160.83615 
C 289.775887 160.056413 290.214 158.998714 290.214 157.896 
C 290.214 156.793286 289.775887 155.735587 288.99615 154.95585 
C 288.216413 154.176113 287.158714 153.738 286.056 153.738 
C 284.953286 153.738 283.895587 154.176113 283.11585 154.95585 
C 282.336113 155.735587 281.898 156.793286 281.898 157.896 
C 281.898 158.998714 282.336113 160.056413 283.11585 160.83615 
C 283.895587 161.615887 284.953286 162.054 286.056 162.054 
z
" style="fill:#009900;fill-opacity:0.5;stroke:#009900;stroke-linejoin:miter;stroke-width:2;"/>
   </g>
   <g id="patch_45">
    <path clip-path="url(#pcae6673240)" d="M 252.792 132.948 
C 254.997429 132.948 257.112826 132.071774 258.6723 130.5123 
C 260.231774 128.952826 261.108 126.837429 261.108 124.632 
C 261.108 122.426571 260.231774 120.311174 258.6723 118.7517 
C 257.112826 117.192226 254.997429 116.316 252.792 116.316 
C 250.586571 116.316 248.471174 117.192226 246.9117 118.7517 
C 245.352226 120.311174 244.476 122.426571 244.476 124.632 
C 244.476 126.837429 245.352226 128.952826 246.9117 130.5123 
C 248.471174 132.071774 250.586571 132.948 252.792 132.948 
z
" style="fill:#9558b2;fill-opacity:0.5;stroke:#9558b2;stroke-linejoin:miter;stroke-width:2;"/>
   </g>
   <g id="patch_46">
    <path clip-path="url(#pcae6673240)" d="M 286.056 128.79 
C 287.158714 128.79 288.216413 128.351887 288.99615 127.57215 
C 289.775887 126.792413 290.214 125.734714 290.214 124.632 
C 290.214 123.529286 289.775887 122.471587 288.99615 121.69185 
C 288.216413 120.912113 287.158714 120.474 286.056 120.474 
C 284.953286 120.474 283.895587 120.912113 283.11585 121.69185 
C 282.336113 122.471587 281.898 123.529286 281.898 124.632 
C 281.898 125.734714 282.336113 126.792413 283.11585 127.57215 
C 283.895587 128.351887 284.953286 128.79 286.056 128.79 
z
" style="fill:#009900;fill-opacity:0.5;stroke:#009900;stroke-linejoin:miter;stroke-width:2;"/>
   </g>
   <g id="patch_47">
    <path clip-path="url(#pcae6673240)" d="M 252.792 99.684 
C 254.997429 99.684 257.112826 98.807774 258.6723 97.2483 
C 260.231774 95.688826 261.108 93.573429 261.108 91.368 
C 261.108 89.162571 260.231774 87.047174 258.6723 85.4877 
C 257.112826 83.928226 254.997429 83.052 252.792 83.052 
C 250.586571 83.052 248.471174 83.928226 246.9117 85.4877 
C 245.352226 87.047174 244.476 89.162571 244.476 91.368 
C 244.476 93.573429 245.352226 95.688826 246.9117 97.2483 
C 248.471174 98.807774 250.586571 99.684 252.792 99.684 
z
" style="fill:#9558b2;fill-opacity:0.5;stroke:#9558b2;stroke-linejoin:miter;stroke-width:2;"/>
   </g>
   <g id="patch_48">
    <path clip-path="url(#pcae6673240)" d="M 286.056 95.526 
C 287.158714 95.526 288.216413 95.087887 288.99615 94.30815 
C 289.775887 93.528413 290.214 92.470714 290.214 91.368 
C 290.214 90.265286 289.775887 89.207587 288.99615 88.42785 
C 288.216413 87.648113 287.158714 87.21 286.056 87.21 
C 284.953286 87.21 283.895587 87.648113 283.11585 88.42785 
C 282.336113 89.207587 281.898 90.265286 281.898 91.368 
C 281.898 92.470714 282.336113 93.528413 283.11585 94.30815 
C 283.895587 95.087887 284.953286 95.526 286.056 95.526 
z
" style="fill:#009900;fill-opacity:0.5;stroke:#009900;stroke-linejoin:miter;stroke-width:2;"/>
   </g>
   <g id="patch_49">
    <path clip-path="url(#pcae6673240)" d="M 252.792 66.42 
C 254.997429 66.42 257.112826 65.543774 258.6723 63.9843 
C 260.231774 62.424826 261.108 60.309429 261.108 58.104 
C 261.108 55.898571 260.231774 53.783174 258.6723 52.2237 
C 257.112826 50.664226 254.997429 49.788 252.792 49.788 
C 250.586571 49.788 248.471174 50.664226 246.9117 52.2237 
C 245.352226 53.783174 244.476 55.898571 244.476 58.104 
C 244.476 60.309429 245.352226 62.424826 246.9117 63.9843 
C 248.471174 65.543774 250.586571 66.42 252.792 66.42 
z
" style="fill:#9558b2;fill-opacity:0.5;stroke:#9558b2;stroke-linejoin:miter;stroke-width:2;"/>
   </g>
   <g id="patch_50">
    <path clip-path="url(#pcae6673240)" d="M 286.056 62.262 
C 287.158714 62.262 288.216413 61.823887 288.99615 61.04415 
C 289.775887 60.264413 290.214 59.206714 290.214 58.104 
C 290.214 57.001286 289.775887 55.943587 288.99615 55.16385 
C 288.216413 54.384113 287.158714 53.946 286.056 53.946 
C 284.953286 53.946 283.895587 54.384113 283.11585 55.16385 
C 282.336113 55.943587 281.898 57.001286 281.898 58.104 
C 281.898 59.206714 282.336113 60.264413 283.11585 61.04415 
C 283.895587 61.823887 284.953286 62.262 286.056 62.262 
z
" style="fill:#009900;fill-opacity:0.5;stroke:#009900;stroke-linejoin:miter;stroke-width:2;"/>
   </g>
   <g id="patch_51">
    <path clip-path="url(#pcae6673240)" d="M 319.32 299.268 
C 321.525429 299.268 323.640826 298.391774 325.2003 296.8323 
C 326.759774 295.272826 327.636 293.157429 327.636 290.952 
C 327.636 288.746571 326.759774 286.631174 325.2003 285.0717 
C 323.640826 283.512226 321.525429 282.636 319.32 282.636 
C 317.114571 282.636 314.999174 283.512226 313.4397 285.0717 
C 311.880226 286.631174 311.004 288.746571 311.004 290.952 
C 311.004 293.157429 311.880226 295.272826 313.4397 296.8323 
C 314.999174 298.391774 317.114571 299.268 319.32 299.268 
z
" style="fill:#9558b2;fill-opacity:0.5;stroke:#9558b2;stroke-linejoin:miter;stroke-width:2;"/>
   </g>
   <g id="patch_52">
    <path clip-path="url(#pcae6673240)" d="M 352.584 295.11 
C 353.686714 295.11 354.744413 294.671887 355.52415 293.89215 
C 356.303887 293.112413 356.742 292.054714 356.742 290.952 
C 356.742 289.849286 356.303887 288.791587 355.52415 288.01185 
C 354.744413 287.232113 353.686714 286.794 352.584 286.794 
C 351.481286 286.794 350.423587 287.232113 349.64385 288.01185 
C 348.864113 288.791587 348.426 289.849286 348.426 290.952 
C 348.426 292.054714 348.864113 293.112413 349.64385 293.89215 
C 350.423587 294.671887 351.481286 295.11 352.584 295.11 
z
" style="fill:#009900;fill-opacity:0.5;stroke:#009900;stroke-linejoin:miter;stroke-width:2;"/>
   </g>
   <g id="patch_53">
    <path clip-path="url(#pcae6673240)" d="M 319.32 266.004 
C 321.525429 266.004 323.640826 265.127774 325.2003 263.5683 
C 326.759774 262.008826 327.636 259.893429 327.636 257.688 
C 327.636 255.482571 326.759774 253.367174 325.2003 251.8077 
C 323.640826 250.248226 321.525429 249.372 319.32 249.372 
C 317.114571 249.372 314.999174 250.248226 313.4397 251.8077 
C 311.880226 253.367174 311.004 255.482571 311.004 257.688 
C 311.004 259.893429 311.880226 262.008826 313.4397 263.5683 
C 314.999174 265.127774 317.114571 266.004 319.32 266.004 
z
" style="fill:#9558b2;fill-opacity:0.5;stroke:#9558b2;stroke-linejoin:miter;stroke-width:2;"/>
   </g>
   <g id="patch_54">
    <path clip-path="url(#pcae6673240)" d="M 352.584 261.846 
C 353.686714 261.846 354.744413 261.407887 355.52415 260.62815 
C 356.303887 259.848413 356.742 258.790714 356.742 257.688 
C 356.742 256.585286 356.303887 255.527587 355.52415 254.74785 
C 354.744413 253.968113 353.686714 253.53 352.584 253.53 
C 351.481286 253.53 350.423587 253.968113 349.64385 254.74785 
C 348.864113 255.527587 348.426 256.585286 348.426 257.688 
C 348.426 258.790714 348.864113 259.848413 349.64385 260.62815 
C 350.423587 261.407887 351.481286 261.846 352.584 261.846 
z
" style="fill:#009900;fill-opacity:0.5;stroke:#009900;stroke-linejoin:miter;stroke-width:2;"/>
   </g>
   <g id="patch_55">
    <path clip-path="url(#pcae6673240)" d="M 319.32 232.74 
C 321.525429 232.74 323.640826 231.863774 325.2003 230.3043 
C 326.759774 228.744826 327.636 226.629429 327.636 224.424 
C 327.636 222.218571 326.759774 220.103174 325.2003 218.5437 
C 323.640826 216.984226 321.525429 216.108 319.32 216.108 
C 317.114571 216.108 314.999174 216.984226 313.4397 218.5437 
C 311.880226 220.103174 311.004 222.218571 311.004 224.424 
C 311.004 226.629429 311.880226 228.744826 313.4397 230.3043 
C 314.999174 231.863774 317.114571 232.74 319.32 232.74 
z
" style="fill:#9558b2;fill-opacity:0.5;stroke:#9558b2;stroke-linejoin:miter;stroke-width:2;"/>
   </g>
   <g id="patch_56">
    <path clip-path="url(#pcae6673240)" d="M 352.584 228.582 
C 353.686714 228.582 354.744413 228.143887 355.52415 227.36415 
C 356.303887 226.584413 356.742 225.526714 356.742 224.424 
C 356.742 223.321286 356.303887 222.263587 355.52415 221.48385 
C 354.744413 220.704113 353.686714 220.266 352.584 220.266 
C 351.481286 220.266 350.423587 220.704113 349.64385 221.48385 
C 348.864113 222.263587 348.426 223.321286 348.426 224.424 
C 348.426 225.526714 348.864113 226.584413 349.64385 227.36415 
C 350.423587 228.143887 351.481286 228.582 352.584 228.582 
z
" style="fill:#009900;fill-opacity:0.5;stroke:#009900;stroke-linejoin:miter;stroke-width:2;"/>
   </g>
   <g id="patch_57">
    <path clip-path="url(#pcae6673240)" d="M 319.32 199.476 
C 321.525429 199.476 323.640826 198.599774 325.2003 197.0403 
C 326.759774 195.480826 327.636 193.365429 327.636 191.16 
C 327.636 188.954571 326.759774 186.839174 325.2003 185.2797 
C 323.640826 183.720226 321.525429 182.844 319.32 182.844 
C 317.114571 182.844 314.999174 183.720226 313.4397 185.2797 
C 311.880226 186.839174 311.004 188.954571 311.004 191.16 
C 311.004 193.365429 311.880226 195.480826 313.4397 197.0403 
C 314.999174 198.599774 317.114571 199.476 319.32 199.476 
z
" style="fill:#9558b2;fill-opacity:0.5;stroke:#9558b2;stroke-linejoin:miter;stroke-width:2;"/>
   </g>
   <g id="patch_58">
    <path clip-path="url(#pcae6673240)" d="M 352.584 195.318 
C 353.686714 195.318 354.744413 194.879887 355.52415 194.10015 
C 356.303887 193.320413 356.742 192.262714 356.742 191.16 
C 356.742 190.057286 356.303887 188.999587 355.52415 188.21985 
C 354.744413 187.440113 353.686714 187.002 352.584 187.002 
C 351.481286 187.002 350.423587 187.440113 349.64385 188.21985 
C 348.864113 188.999587 348.426 190.057286 348.426 191.16 
C 348.426 192.262714 348.864113 193.320413 349.64385 194.10015 
C 350.423587 194.879887 351.481286 195.318 352.584 195.318 
z
" style="fill:#009900;fill-opacity:0.5;stroke:#009900;stroke-linejoin:miter;stroke-width:2;"/>
   </g>
   <g id="patch_59">
    <path clip-path="url(#pcae6673240)" d="M 319.32 166.212 
C 321.525429 166.212 323.640826 165.335774 325.2003 163.7763 
C 326.759774 162.216826 327.636 160.101429 327.636 157.896 
C 327.636 155.690571 326.759774 153.575174 325.2003 152.0157 
C 323.640826 150.456226 321.525429 149.58 319.32 149.58 
C 317.114571 149.58 314.999174 150.456226 313.4397 152.0157 
C 311.880226 153.575174 311.004 155.690571 311.004 157.896 
C 311.004 160.101429 311.880226 162.216826 313.4397 163.7763 
C 314.999174 165.335774 317.114571 166.212 319.32 166.212 
z
" style="fill:#9558b2;fill-opacity:0.5;stroke:#9558b2;stroke-linejoin:miter;stroke-width:2;"/>
   </g>
   <g id="patch_60">
    <path clip-path="url(#pcae6673240)" d="M 352.584 162.054 
C 353.686714 162.054 354.744413 161.615887 355.52415 160.83615 
C 356.303887 160.056413 356.742 158.998714 356.742 157.896 
C 356.742 156.793286 356.303887 155.735587 355.52415 154.95585 
C 354.744413 154.176113 353.686714 153.738 352.584 153.738 
C 351.481286 153.738 350.423587 154.176113 349.64385 154.95585 
C 348.864113 155.735587 348.426 156.793286 348.426 157.896 
C 348.426 158.998714 348.864113 160.056413 349.64385 160.83615 
C 350.423587 161.615887 351.481286 162.054 352.584 162.054 
z
" style="fill:#009900;fill-opacity:0.5;stroke:#009900;stroke-linejoin:miter;stroke-width:2;"/>
   </g>
   <g id="patch_61">
    <path clip-path="url(#pcae6673240)" d="M 319.32 132.948 
C 321.525429 132.948 323.640826 132.071774 325.2003 130.5123 
C 326.759774 128.952826 327.636 126.837429 327.636 124.632 
C 327.636 122.426571 326.759774 120.311174 325.2003 118.7517 
C 323.640826 117.192226 321.525429 116.316 319.32 116.316 
C 317.114571 116.316 314.999174 117.192226 313.4397 118.7517 
C 311.880226 120.311174 311.004 122.426571 311.004 124.632 
C 311.004 126.837429 311.880226 128.952826 313.4397 130.5123 
C 314.999174 132.071774 317.114571 132.948 319.32 132.948 
z
" style="fill:#9558b2;fill-opacity:0.5;stroke:#9558b2;stroke-linejoin:miter;stroke-width:2;"/>
   </g>
   <g id="patch_62">
    <path clip-path="url(#pcae6673240)" d="M 352.584 128.79 
C 353.686714 128.79 354.744413 128.351887 355.52415 127.57215 
C 356.303887 126.792413 356.742 125.734714 356.742 124.632 
C 356.742 123.529286 356.303887 122.471587 355.52415 121.69185 
C 354.744413 120.912113 353.686714 120.474 352.584 120.474 
C 351.481286 120.474 350.423587 120.912113 349.64385 121.69185 
C 348.864113 122.471587 348.426 123.529286 348.426 124.632 
C 348.426 125.734714 348.864113 126.792413 349.64385 127.57215 
C 350.423587 128.351887 351.481286 128.79 352.584 128.79 
z
" style="fill:#009900;fill-opacity:0.5;stroke:#009900;stroke-linejoin:miter;stroke-width:2;"/>
   </g>
   <g id="patch_63">
    <path clip-path="url(#pcae6673240)" d="M 319.32 99.684 
C 321.525429 99.684 323.640826 98.807774 325.2003 97.2483 
C 326.759774 95.688826 327.636 93.573429 327.636 91.368 
C 327.636 89.162571 326.759774 87.047174 325.2003 85.4877 
C 323.640826 83.928226 321.525429 83.052 319.32 83.052 
C 317.114571 83.052 314.999174 83.928226 313.4397 85.4877 
C 311.880226 87.047174 311.004 89.162571 311.004 91.368 
C 311.004 93.573429 311.880226 95.688826 313.4397 97.2483 
C 314.999174 98.807774 317.114571 99.684 319.32 99.684 
z
" style="fill:#9558b2;fill-opacity:0.5;stroke:#9558b2;stroke-linejoin:miter;stroke-width:2;"/>
   </g>
   <g id="patch_64">
    <path clip-path="url(#pcae6673240)" d="M 352.584 95.526 
C 353.686714 95.526 354.744413 95.087887 355.52415 94.30815 
C 356.303887 93.528413 356.742 92.470714 356.742 91.368 
C 356.742 90.265286 356.303887 89.207587 355.52415 88.42785 
C 354.744413 87.648113 353.686714 87.21 352.584 87.21 
C 351.481286 87.21 350.423587 87.648113 349.64385 88.42785 
C 348.864113 89.207587 348.426 90.265286 348.426 91.368 
C 348.426 92.470714 348.864113 93.528413 349.64385 94.30815 
C 350.423587 95.087887 351.481286 95.526 352.584 95.526 
z
" style="fill:#009900;fill-opacity:0.5;stroke:#009900;stroke-linejoin:miter;stroke-width:2;"/>
   </g>
   <g id="patch_65">
    <path clip-path="url(#pcae6673240)" d="M 319.32 66.42 
C 321.525429 66.42 323.640826 65.543774 325.2003 63.9843 
C 326.759774 62.424826 327.636 60.309429 327.636 58.104 
C 327.636 55.898571 326.759774 53.783174 325.2003 52.2237 
C 323.640826 50.664226 321.525429 49.788 319.32 49.788 
C 317.114571 49.788 314.999174 50.664226 313.4397 52.2237 
C 311.880226 53.783174 311.004 55.898571 311.004 58.104 
C 311.004 60.309429 311.880226 62.424826 313.4397 63.9843 
C 314.999174 65.543774 317.114571 66.42 319.32 66.42 
z
" style="fill:#9558b2;fill-opacity:0.5;stroke:#9558b2;stroke-linejoin:miter;stroke-width:2;"/>
   </g>
   <g id="patch_66">
    <path clip-path="url(#pcae6673240)" d="M 352.584 62.262 
C 353.686714 62.262 354.744413 61.823887 355.52415 61.04415 
C 356.303887 60.264413 356.742 59.206714 356.742 58.104 
C 356.742 57.001286 356.303887 55.943587 355.52415 55.16385 
C 354.744413 54.384113 353.686714 53.946 352.584 53.946 
C 351.481286 53.946 350.423587 54.384113 349.64385 55.16385 
C 348.864113 55.943587 348.426 57.001286 348.426 58.104 
C 348.426 59.206714 348.864113 60.264413 349.64385 61.04415 
C 350.423587 61.823887 351.481286 62.262 352.584 62.262 
z
" style="fill:#009900;fill-opacity:0.5;stroke:#009900;stroke-linejoin:miter;stroke-width:2;"/>
   </g>
   <g id="matplotlib.axis_1">
    <g id="xtick_1">
     <g id="line2d_1">
      <defs>
       <path d="M 0 0 
L 0 3.5 
" id="m6a01acab95" style="stroke:#000000;stroke-width:0.8;"/>
      </defs>
      <g>
       <use style="stroke:#000000;stroke-width:0.8;" x="103.104" xlink:href="#m6a01acab95" y="307.584"/>
      </g>
     </g>
     <g id="text_1">
      <!-- −4 -->
      <defs>
       <path d="M 10.59375 35.5 
L 73.1875 35.5 
L 73.1875 27.203125 
L 10.59375 27.203125 
z
" id="DejaVuSans-2212"/>
       <path d="M 37.796875 64.3125 
L 12.890625 25.390625 
L 37.796875 25.390625 
z
M 35.203125 72.90625 
L 47.609375 72.90625 
L 47.609375 25.390625 
L 58.015625 25.390625 
L 58.015625 17.1875 
L 47.609375 17.1875 
L 47.609375 0 
L 37.796875 0 
L 37.796875 17.1875 
L 4.890625 17.1875 
L 4.890625 26.703125 
z
" id="DejaVuSans-34"/>
      </defs>
      <g transform="translate(95.732906 322.182437)scale(0.1 -0.1)">
       <use xlink:href="#DejaVuSans-2212"/>
       <use x="83.789062" xlink:href="#DejaVuSans-34"/>
      </g>
     </g>
    </g>
    <g id="xtick_2">
     <g id="line2d_2">
      <g>
       <use style="stroke:#000000;stroke-width:0.8;" x="136.368" xlink:href="#m6a01acab95" y="307.584"/>
      </g>
     </g>
     <g id="text_2">
      <!-- −3 -->
      <defs>
       <path d="M 40.578125 39.3125 
Q 47.65625 37.796875 51.625 33 
Q 55.609375 28.21875 55.609375 21.1875 
Q 55.609375 10.40625 48.1875 4.484375 
Q 40.765625 -1.421875 27.09375 -1.421875 
Q 22.515625 -1.421875 17.65625 -0.515625 
Q 12.796875 0.390625 7.625 2.203125 
L 7.625 11.71875 
Q 11.71875 9.328125 16.59375 8.109375 
Q 21.484375 6.890625 26.8125 6.890625 
Q 36.078125 6.890625 40.9375 10.546875 
Q 45.796875 14.203125 45.796875 21.1875 
Q 45.796875 27.640625 41.28125 31.265625 
Q 36.765625 34.90625 28.71875 34.90625 
L 20.21875 34.90625 
L 20.21875 43.015625 
L 29.109375 43.015625 
Q 36.375 43.015625 40.234375 45.921875 
Q 44.09375 48.828125 44.09375 54.296875 
Q 44.09375 59.90625 40.109375 62.90625 
Q 36.140625 65.921875 28.71875 65.921875 
Q 24.65625 65.921875 20.015625 65.03125 
Q 15.375 64.15625 9.8125 62.3125 
L 9.8125 71.09375 
Q 15.4375 72.65625 20.34375 73.4375 
Q 25.25 74.21875 29.59375 74.21875 
Q 40.828125 74.21875 47.359375 69.109375 
Q 53.90625 64.015625 53.90625 55.328125 
Q 53.90625 49.265625 50.4375 45.09375 
Q 46.96875 40.921875 40.578125 39.3125 
z
" id="DejaVuSans-33"/>
      </defs>
      <g transform="translate(128.996906 322.182437)scale(0.1 -0.1)">
       <use xlink:href="#DejaVuSans-2212"/>
       <use x="83.789062" xlink:href="#DejaVuSans-33"/>
      </g>
     </g>
    </g>
    <g id="xtick_3">
     <g id="line2d_3">
      <g>
       <use style="stroke:#000000;stroke-width:0.8;" x="169.632" xlink:href="#m6a01acab95" y="307.584"/>
      </g>
     </g>
     <g id="text_3">
      <!-- −2 -->
      <defs>
       <path d="M 19.1875 8.296875 
L 53.609375 8.296875 
L 53.609375 0 
L 7.328125 0 
L 7.328125 8.296875 
Q 12.9375 14.109375 22.625 23.890625 
Q 32.328125 33.6875 34.8125 36.53125 
Q 39.546875 41.84375 41.421875 45.53125 
Q 43.3125 49.21875 43.3125 52.78125 
Q 43.3125 58.59375 39.234375 62.25 
Q 35.15625 65.921875 28.609375 65.921875 
Q 23.96875 65.921875 18.8125 64.3125 
Q 13.671875 62.703125 7.8125 59.421875 
L 7.8125 69.390625 
Q 13.765625 71.78125 18.9375 73 
Q 24.125 74.21875 28.421875 74.21875 
Q 39.75 74.21875 46.484375 68.546875 
Q 53.21875 62.890625 53.21875 53.421875 
Q 53.21875 48.921875 51.53125 44.890625 
Q 49.859375 40.875 45.40625 35.40625 
Q 44.1875 33.984375 37.640625 27.21875 
Q 31.109375 20.453125 19.1875 8.296875 
z
" id="DejaVuSans-32"/>
      </defs>
      <g transform="translate(162.260906 322.182437)scale(0.1 -0.1)">
       <use xlink:href="#DejaVuSans-2212"/>
       <use x="83.789062" xlink:href="#DejaVuSans-32"/>
      </g>
     </g>
    </g>
    <g id="xtick_4">
     <g id="line2d_4">
      <g>
       <use style="stroke:#000000;stroke-width:0.8;" x="202.896" xlink:href="#m6a01acab95" y="307.584"/>
      </g>
     </g>
     <g id="text_4">
      <!-- −1 -->
      <defs>
       <path d="M 12.40625 8.296875 
L 28.515625 8.296875 
L 28.515625 63.921875 
L 10.984375 60.40625 
L 10.984375 69.390625 
L 28.421875 72.90625 
L 38.28125 72.90625 
L 38.28125 8.296875 
L 54.390625 8.296875 
L 54.390625 0 
L 12.40625 0 
z
" id="DejaVuSans-31"/>
      </defs>
      <g transform="translate(195.524906 322.182437)scale(0.1 -0.1)">
       <use xlink:href="#DejaVuSans-2212"/>
       <use x="83.789062" xlink:href="#DejaVuSans-31"/>
      </g>
     </g>
    </g>
    <g id="xtick_5">
     <g id="line2d_5">
      <g>
       <use style="stroke:#000000;stroke-width:0.8;" x="236.16" xlink:href="#m6a01acab95" y="307.584"/>
      </g>
     </g>
     <g id="text_5">
      <!-- 0 -->
      <defs>
       <path d="M 31.78125 66.40625 
Q 24.171875 66.40625 20.328125 58.90625 
Q 16.5 51.421875 16.5 36.375 
Q 16.5 21.390625 20.328125 13.890625 
Q 24.171875 6.390625 31.78125 6.390625 
Q 39.453125 6.390625 43.28125 13.890625 
Q 47.125 21.390625 47.125 36.375 
Q 47.125 51.421875 43.28125 58.90625 
Q 39.453125 66.40625 31.78125 66.40625 
z
M 31.78125 74.21875 
Q 44.046875 74.21875 50.515625 64.515625 
Q 56.984375 54.828125 56.984375 36.375 
Q 56.984375 17.96875 50.515625 8.265625 
Q 44.046875 -1.421875 31.78125 -1.421875 
Q 19.53125 -1.421875 13.0625 8.265625 
Q 6.59375 17.96875 6.59375 36.375 
Q 6.59375 54.828125 13.0625 64.515625 
Q 19.53125 74.21875 31.78125 74.21875 
z
" id="DejaVuSans-30"/>
      </defs>
      <g transform="translate(232.97875 322.182437)scale(0.1 -0.1)">
       <use xlink:href="#DejaVuSans-30"/>
      </g>
     </g>
    </g>
    <g id="xtick_6">
     <g id="line2d_6">
      <g>
       <use style="stroke:#000000;stroke-width:0.8;" x="269.424" xlink:href="#m6a01acab95" y="307.584"/>
      </g>
     </g>
     <g id="text_6">
      <!-- 1 -->
      <g transform="translate(266.24275 322.182437)scale(0.1 -0.1)">
       <use xlink:href="#DejaVuSans-31"/>
      </g>
     </g>
    </g>
    <g id="xtick_7">
     <g id="line2d_7">
      <g>
       <use style="stroke:#000000;stroke-width:0.8;" x="302.688" xlink:href="#m6a01acab95" y="307.584"/>
      </g>
     </g>
     <g id="text_7">
      <!-- 2 -->
      <g transform="translate(299.50675 322.182437)scale(0.1 -0.1)">
       <use xlink:href="#DejaVuSans-32"/>
      </g>
     </g>
    </g>
    <g id="xtick_8">
     <g id="line2d_8">
      <g>
       <use style="stroke:#000000;stroke-width:0.8;" x="335.952" xlink:href="#m6a01acab95" y="307.584"/>
      </g>
     </g>
     <g id="text_8">
      <!-- 3 -->
      <g transform="translate(332.77075 322.182437)scale(0.1 -0.1)">
       <use xlink:href="#DejaVuSans-33"/>
      </g>
     </g>
    </g>
    <g id="xtick_9">
     <g id="line2d_9">
      <g>
       <use style="stroke:#000000;stroke-width:0.8;" x="369.216" xlink:href="#m6a01acab95" y="307.584"/>
      </g>
     </g>
     <g id="text_9">
      <!-- 4 -->
      <g transform="translate(366.03475 322.182437)scale(0.1 -0.1)">
       <use xlink:href="#DejaVuSans-34"/>
      </g>
     </g>
    </g>
   </g>
   <g id="matplotlib.axis_2">
    <g id="ytick_1">
     <g id="line2d_10">
      <defs>
       <path d="M 0 0 
L -3.5 0 
" id="m4e756d52fa" style="stroke:#000000;stroke-width:0.8;"/>
      </defs>
      <g>
       <use style="stroke:#000000;stroke-width:0.8;" x="103.104" xlink:href="#m4e756d52fa" y="307.584"/>
      </g>
     </g>
     <g id="text_10">
      <!-- −2 -->
      <g transform="translate(81.361813 311.383219)scale(0.1 -0.1)">
       <use xlink:href="#DejaVuSans-2212"/>
       <use x="83.789062" xlink:href="#DejaVuSans-32"/>
      </g>
     </g>
    </g>
    <g id="ytick_2">
     <g id="line2d_11">
      <g>
       <use style="stroke:#000000;stroke-width:0.8;" x="103.104" xlink:href="#m4e756d52fa" y="274.32"/>
      </g>
     </g>
     <g id="text_11">
      <!-- −1 -->
      <g transform="translate(81.361813 278.119219)scale(0.1 -0.1)">
       <use xlink:href="#DejaVuSans-2212"/>
       <use x="83.789062" xlink:href="#DejaVuSans-31"/>
      </g>
     </g>
    </g>
    <g id="ytick_3">
     <g id="line2d_12">
      <g>
       <use style="stroke:#000000;stroke-width:0.8;" x="103.104" xlink:href="#m4e756d52fa" y="241.056"/>
      </g>
     </g>
     <g id="text_12">
      <!-- 0 -->
      <g transform="translate(89.7415 244.855219)scale(0.1 -0.1)">
       <use xlink:href="#DejaVuSans-30"/>
      </g>
     </g>
    </g>
    <g id="ytick_4">
     <g id="line2d_13">
      <g>
       <use style="stroke:#000000;stroke-width:0.8;" x="103.104" xlink:href="#m4e756d52fa" y="207.792"/>
      </g>
     </g>
     <g id="text_13">
      <!-- 1 -->
      <g transform="translate(89.7415 211.591219)scale(0.1 -0.1)">
       <use xlink:href="#DejaVuSans-31"/>
      </g>
     </g>
    </g>
    <g id="ytick_5">
     <g id="line2d_14">
      <g>
       <use style="stroke:#000000;stroke-width:0.8;" x="103.104" xlink:href="#m4e756d52fa" y="174.528"/>
      </g>
     </g>
     <g id="text_14">
      <!-- 2 -->
      <g transform="translate(89.7415 178.327219)scale(0.1 -0.1)">
       <use xlink:href="#DejaVuSans-32"/>
      </g>
     </g>
    </g>
    <g id="ytick_6">
     <g id="line2d_15">
      <g>
       <use style="stroke:#000000;stroke-width:0.8;" x="103.104" xlink:href="#m4e756d52fa" y="141.264"/>
      </g>
     </g>
     <g id="text_15">
      <!-- 3 -->
      <g transform="translate(89.7415 145.063219)scale(0.1 -0.1)">
       <use xlink:href="#DejaVuSans-33"/>
      </g>
     </g>
    </g>
    <g id="ytick_7">
     <g id="line2d_16">
      <g>
       <use style="stroke:#000000;stroke-width:0.8;" x="103.104" xlink:href="#m4e756d52fa" y="108"/>
      </g>
     </g>
     <g id="text_16">
      <!-- 4 -->
      <g transform="translate(89.7415 111.799219)scale(0.1 -0.1)">
       <use xlink:href="#DejaVuSans-34"/>
      </g>
     </g>
    </g>
    <g id="ytick_8">
     <g id="line2d_17">
      <g>
       <use style="stroke:#000000;stroke-width:0.8;" x="103.104" xlink:href="#m4e756d52fa" y="74.736"/>
      </g>
     </g>
     <g id="text_17">
      <!-- 5 -->
      <defs>
       <path d="M 10.796875 72.90625 
L 49.515625 72.90625 
L 49.515625 64.59375 
L 19.828125 64.59375 
L 19.828125 46.734375 
Q 21.96875 47.46875 24.109375 47.828125 
Q 26.265625 48.1875 28.421875 48.1875 
Q 40.625 48.1875 47.75 41.5 
Q 54.890625 34.8125 54.890625 23.390625 
Q 54.890625 11.625 47.5625 5.09375 
Q 40.234375 -1.421875 26.90625 -1.421875 
Q 22.3125 -1.421875 17.546875 -0.640625 
Q 12.796875 0.140625 7.71875 1.703125 
L 7.71875 11.625 
Q 12.109375 9.234375 16.796875 8.0625 
Q 21.484375 6.890625 26.703125 6.890625 
Q 35.15625 6.890625 40.078125 11.328125 
Q 45.015625 15.765625 45.015625 23.390625 
Q 45.015625 31 40.078125 35.4375 
Q 35.15625 39.890625 26.703125 39.890625 
Q 22.75 39.890625 18.8125 39.015625 
Q 14.890625 38.140625 10.796875 36.28125 
z
" id="DejaVuSans-35"/>
      </defs>
      <g transform="translate(89.7415 78.535219)scale(0.1 -0.1)">
       <use xlink:href="#DejaVuSans-35"/>
      </g>
     </g>
    </g>
    <g id="ytick_9">
     <g id="line2d_18">
      <g>
       <use style="stroke:#000000;stroke-width:0.8;" x="103.104" xlink:href="#m4e756d52fa" y="41.472"/>
      </g>
     </g>
     <g id="text_18">
      <!-- 6 -->
      <defs>
       <path d="M 33.015625 40.375 
Q 26.375 40.375 22.484375 35.828125 
Q 18.609375 31.296875 18.609375 23.390625 
Q 18.609375 15.53125 22.484375 10.953125 
Q 26.375 6.390625 33.015625 6.390625 
Q 39.65625 6.390625 43.53125 10.953125 
Q 47.40625 15.53125 47.40625 23.390625 
Q 47.40625 31.296875 43.53125 35.828125 
Q 39.65625 40.375 33.015625 40.375 
z
M 52.59375 71.296875 
L 52.59375 62.3125 
Q 48.875 64.0625 45.09375 64.984375 
Q 41.3125 65.921875 37.59375 65.921875 
Q 27.828125 65.921875 22.671875 59.328125 
Q 17.53125 52.734375 16.796875 39.40625 
Q 19.671875 43.65625 24.015625 45.921875 
Q 28.375 48.1875 33.59375 48.1875 
Q 44.578125 48.1875 50.953125 41.515625 
Q 57.328125 34.859375 57.328125 23.390625 
Q 57.328125 12.15625 50.6875 5.359375 
Q 44.046875 -1.421875 33.015625 -1.421875 
Q 20.359375 -1.421875 13.671875 8.265625 
Q 6.984375 17.96875 6.984375 36.375 
Q 6.984375 53.65625 15.1875 63.9375 
Q 23.390625 74.21875 37.203125 74.21875 
Q 40.921875 74.21875 44.703125 73.484375 
Q 48.484375 72.75 52.59375 71.296875 
z
" id="DejaVuSans-36"/>
      </defs>
      <g transform="translate(89.7415 45.271219)scale(0.1 -0.1)">
       <use xlink:href="#DejaVuSans-36"/>
      </g>
     </g>
    </g>
   </g>
   <g id="line2d_19">
    <path clip-path="url(#pcae6673240)" d="M 281.402594 240.086212 
L 282.465684 193.257283 
L 222.219009 161.065769 
L 252.246971 249.38988 
L 222.913712 226.837693 
L 312.620357 286.025477 
L 220.387795 161.964134 
L 192.436554 285.37926 
L 188.814881 265.603104 
L 185.722933 282.653621 
L 245.574732 261.81921 
L 193.964524 287.81229 
L 215.748846 259.422059 
L 194.561932 258.235886 
L 282.358542 289.049958 
L 194.154951 227.048641 
L 244.592028 256.303687 
L 222.107753 61.364957 
L 311.317736 93.630659 
L 284.722839 120.693517 
L 124.828474 97.942387 
" style="fill:none;stroke:#1f77b4;stroke-linecap:square;stroke-width:1.5;"/>
   </g>
   <g id="patch_67">
    <path d="M 103.104 307.584 
L 103.104 41.472 
" style="fill:none;stroke:#000000;stroke-linecap:square;stroke-linejoin:miter;stroke-width:0.8;"/>
   </g>
   <g id="patch_68">
    <path d="M 369.216 307.584 
L 369.216 41.472 
" style="fill:none;stroke:#000000;stroke-linecap:square;stroke-linejoin:miter;stroke-width:0.8;"/>
   </g>
   <g id="patch_69">
    <path d="M 103.104 307.584 
L 369.216 307.584 
" style="fill:none;stroke:#000000;stroke-linecap:square;stroke-linejoin:miter;stroke-width:0.8;"/>
   </g>
   <g id="patch_70">
    <path d="M 103.104 41.472 
L 369.216 41.472 
" style="fill:none;stroke:#000000;stroke-linecap:square;stroke-linejoin:miter;stroke-width:0.8;"/>
   </g>
  </g>
 </g>
 <defs>
  <clipPath id="pcae6673240">
   <rect height="266.112" width="266.112" x="103.104" y="41.472"/>
  </clipPath>
 </defs>
</svg>
