<?xml version="1.0" encoding="utf-8" standalone="no"?>
<!DOCTYPE svg PUBLIC "-//W3C//DTD SVG 1.1//EN"
  "http://www.w3.org/Graphics/SVG/1.1/DTD/svg11.dtd">
<!-- Created with matplotlib (http://matplotlib.org/) -->
<svg height="345.6pt" version="1.1" viewBox="0 0 460.8 345.6" width="460.8pt" xmlns="http://www.w3.org/2000/svg" xmlns:xlink="http://www.w3.org/1999/xlink">
 <defs>
  <style type="text/css">
*{stroke-linecap:butt;stroke-linejoin:round;}
  </style>
 </defs>
 <g id="figure_1">
  <g id="patch_1">
   <path d="M 0 345.6 
L 460.8 345.6 
L 460.8 0 
L 0 0 
z
" style="fill:#ffffff;"/>
  </g>
  <g id="axes_1">
   <g id="patch_2">
    <path d="M 84.096 307.584 
L 388.224 307.584 
L 388.224 41.472 
L 84.096 41.472 
z
" style="fill:#ffffff;"/>
   </g>
   <g id="PathCollection_1">
    <defs>
     <path d="M 0 3 
C 0.795609 3 1.55874 2.683901 2.12132 2.12132 
C 2.683901 1.55874 3 0.795609 3 0 
C 3 -0.795609 2.683901 -1.55874 2.12132 -2.12132 
C 1.55874 -2.683901 0.795609 -3 0 -3 
C -0.795609 -3 -1.55874 -2.683901 -2.12132 -2.12132 
C -2.683901 -1.55874 -3 -0.795609 -3 0 
C -3 0.795609 -2.683901 1.55874 -2.12132 2.12132 
C -1.55874 2.683901 -0.795609 3 0 3 
z
" id="m4d5307f788" style="stroke:#000000;"/>
    </defs>
    <g clip-path="url(#p87dc7af0d1)">
     <use style="stroke:#000000;" x="171.093615" xlink:href="#m4d5307f788" y="205.738457"/>
    </g>
   </g>
   <g id="PathCollection_2">
    <defs>
     <path d="M 0 2.738613 
C 0.726289 2.738613 1.422928 2.450055 1.936492 1.936492 
C 2.450055 1.422928 2.738613 0.726289 2.738613 0 
C 2.738613 -0.726289 2.450055 -1.422928 1.936492 -1.936492 
C 1.422928 -2.450055 0.726289 -2.738613 0 -2.738613 
C -0.726289 -2.738613 -1.422928 -2.450055 -1.936492 -1.936492 
C -2.450055 -1.422928 -2.738613 -0.726289 -2.738613 0 
C -2.738613 0.726289 -2.450055 1.422928 -1.936492 1.936492 
C -1.422928 2.450055 -0.726289 2.738613 0 2.738613 
z
" id="mb619116b7c" style="stroke:#000000;"/>
    </defs>
    <g clip-path="url(#p87dc7af0d1)">
     <use style="stroke:#000000;" x="183.764682" xlink:href="#mb619116b7c" y="204.243318"/>
    </g>
   </g>
   <g id="Quiver_1">
    <path clip-path="url(#p87dc7af0d1)" d="M 183.055244 203.969853 
L 189.344948 187.652764 
L 187.652605 187.815272 
L 192.515575 181.541282 
L 191.909237 189.456064 
L 190.763825 188.199695 
L 184.474121 204.516784 
L 183.055244 203.969853 
"/>
   </g>
   <g id="patch_3">
    <path clip-path="url(#p87dc7af0d1)" d="M 103.104 298.08 
C 105.62449 298.08 108.042087 297.078599 109.824343 295.296343 
C 111.606599 293.514087 112.608 291.09649 112.608 288.576 
C 112.608 286.05551 111.606599 283.637913 109.824343 281.855657 
C 108.042087 280.073401 105.62449 279.072 103.104 279.072 
C 100.58351 279.072 98.165913 280.073401 96.383657 281.855657 
C 94.601401 283.637913 93.6 286.05551 93.6 288.576 
C 93.6 291.09649 94.601401 293.514087 96.383657 295.296343 
C 98.165913 297.078599 100.58351 298.08 103.104 298.08 
z
" style="fill:#9558b2;fill-opacity:0.5;stroke:#9558b2;stroke-linejoin:miter;stroke-width:2;"/>
   </g>
   <g id="patch_4">
    <path clip-path="url(#p87dc7af0d1)" d="M 141.12 293.328 
C 142.380245 293.328 143.589044 292.827299 144.480171 291.936171 
C 145.371299 291.045044 145.872 289.836245 145.872 288.576 
C 145.872 287.315755 145.371299 286.106956 144.480171 285.215829 
C 143.589044 284.324701 142.380245 283.824 141.12 283.824 
C 139.859755 283.824 138.650956 284.324701 137.759829 285.215829 
C 136.868701 286.106956 136.368 287.315755 136.368 288.576 
C 136.368 289.836245 136.868701 291.045044 137.759829 291.936171 
C 138.650956 292.827299 139.859755 293.328 141.12 293.328 
z
" style="fill:#009900;fill-opacity:0.5;stroke:#009900;stroke-linejoin:miter;stroke-width:2;"/>
   </g>
   <g id="patch_5">
    <path clip-path="url(#p87dc7af0d1)" d="M 103.104 260.064 
C 105.62449 260.064 108.042087 259.062599 109.824343 257.280343 
C 111.606599 255.498087 112.608 253.08049 112.608 250.56 
C 112.608 248.03951 111.606599 245.621913 109.824343 243.839657 
C 108.042087 242.057401 105.62449 241.056 103.104 241.056 
C 100.58351 241.056 98.165913 242.057401 96.383657 243.839657 
C 94.601401 245.621913 93.6 248.03951 93.6 250.56 
C 93.6 253.08049 94.601401 255.498087 96.383657 257.280343 
C 98.165913 259.062599 100.58351 260.064 103.104 260.064 
z
" style="fill:#9558b2;fill-opacity:0.5;stroke:#9558b2;stroke-linejoin:miter;stroke-width:2;"/>
   </g>
   <g id="patch_6">
    <path clip-path="url(#p87dc7af0d1)" d="M 141.12 255.312 
C 142.380245 255.312 143.589044 254.811299 144.480171 253.920171 
C 145.371299 253.029044 145.872 251.820245 145.872 250.56 
C 145.872 249.299755 145.371299 248.090956 144.480171 247.199829 
C 143.589044 246.308701 142.380245 245.808 141.12 245.808 
C 139.859755 245.808 138.650956 246.308701 137.759829 247.199829 
C 136.868701 248.090956 136.368 249.299755 136.368 250.56 
C 136.368 251.820245 136.868701 253.029044 137.759829 253.920171 
C 138.650956 254.811299 139.859755 255.312 141.12 255.312 
z
" style="fill:#009900;fill-opacity:0.5;stroke:#009900;stroke-linejoin:miter;stroke-width:2;"/>
   </g>
   <g id="patch_7">
    <path clip-path="url(#p87dc7af0d1)" d="M 103.104 222.048 
C 105.62449 222.048 108.042087 221.046599 109.824343 219.264343 
C 111.606599 217.482087 112.608 215.06449 112.608 212.544 
C 112.608 210.02351 111.606599 207.605913 109.824343 205.823657 
C 108.042087 204.041401 105.62449 203.04 103.104 203.04 
C 100.58351 203.04 98.165913 204.041401 96.383657 205.823657 
C 94.601401 207.605913 93.6 210.02351 93.6 212.544 
C 93.6 215.06449 94.601401 217.482087 96.383657 219.264343 
C 98.165913 221.046599 100.58351 222.048 103.104 222.048 
z
" style="fill:#9558b2;fill-opacity:0.5;stroke:#9558b2;stroke-linejoin:miter;stroke-width:2;"/>
   </g>
   <g id="patch_8">
    <path clip-path="url(#p87dc7af0d1)" d="M 141.12 217.296 
C 142.380245 217.296 143.589044 216.795299 144.480171 215.904171 
C 145.371299 215.013044 145.872 213.804245 145.872 212.544 
C 145.872 211.283755 145.371299 210.074956 144.480171 209.183829 
C 143.589044 208.292701 142.380245 207.792 141.12 207.792 
C 139.859755 207.792 138.650956 208.292701 137.759829 209.183829 
C 136.868701 210.074956 136.368 211.283755 136.368 212.544 
C 136.368 213.804245 136.868701 215.013044 137.759829 215.904171 
C 138.650956 216.795299 139.859755 217.296 141.12 217.296 
z
" style="fill:#009900;fill-opacity:0.5;stroke:#009900;stroke-linejoin:miter;stroke-width:2;"/>
   </g>
   <g id="patch_9">
    <path clip-path="url(#p87dc7af0d1)" d="M 103.104 184.032 
C 105.62449 184.032 108.042087 183.030599 109.824343 181.248343 
C 111.606599 179.466087 112.608 177.04849 112.608 174.528 
C 112.608 172.00751 111.606599 169.589913 109.824343 167.807657 
C 108.042087 166.025401 105.62449 165.024 103.104 165.024 
C 100.58351 165.024 98.165913 166.025401 96.383657 167.807657 
C 94.601401 169.589913 93.6 172.00751 93.6 174.528 
C 93.6 177.04849 94.601401 179.466087 96.383657 181.248343 
C 98.165913 183.030599 100.58351 184.032 103.104 184.032 
z
" style="fill:#9558b2;fill-opacity:0.5;stroke:#9558b2;stroke-linejoin:miter;stroke-width:2;"/>
   </g>
   <g id="patch_10">
    <path clip-path="url(#p87dc7af0d1)" d="M 141.12 179.28 
C 142.380245 179.28 143.589044 178.779299 144.480171 177.888171 
C 145.371299 176.997044 145.872 175.788245 145.872 174.528 
C 145.872 173.267755 145.371299 172.058956 144.480171 171.167829 
C 143.589044 170.276701 142.380245 169.776 141.12 169.776 
C 139.859755 169.776 138.650956 170.276701 137.759829 171.167829 
C 136.868701 172.058956 136.368 173.267755 136.368 174.528 
C 136.368 175.788245 136.868701 176.997044 137.759829 177.888171 
C 138.650956 178.779299 139.859755 179.28 141.12 179.28 
z
" style="fill:#009900;fill-opacity:0.5;stroke:#009900;stroke-linejoin:miter;stroke-width:2;"/>
   </g>
   <g id="patch_11">
    <path clip-path="url(#p87dc7af0d1)" d="M 103.104 146.016 
C 105.62449 146.016 108.042087 145.014599 109.824343 143.232343 
C 111.606599 141.450087 112.608 139.03249 112.608 136.512 
C 112.608 133.99151 111.606599 131.573913 109.824343 129.791657 
C 108.042087 128.009401 105.62449 127.008 103.104 127.008 
C 100.58351 127.008 98.165913 128.009401 96.383657 129.791657 
C 94.601401 131.573913 93.6 133.99151 93.6 136.512 
C 93.6 139.03249 94.601401 141.450087 96.383657 143.232343 
C 98.165913 145.014599 100.58351 146.016 103.104 146.016 
z
" style="fill:#9558b2;fill-opacity:0.5;stroke:#9558b2;stroke-linejoin:miter;stroke-width:2;"/>
   </g>
   <g id="patch_12">
    <path clip-path="url(#p87dc7af0d1)" d="M 141.12 141.264 
C 142.380245 141.264 143.589044 140.763299 144.480171 139.872171 
C 145.371299 138.981044 145.872 137.772245 145.872 136.512 
C 145.872 135.251755 145.371299 134.042956 144.480171 133.151829 
C 143.589044 132.260701 142.380245 131.76 141.12 131.76 
C 139.859755 131.76 138.650956 132.260701 137.759829 133.151829 
C 136.868701 134.042956 136.368 135.251755 136.368 136.512 
C 136.368 137.772245 136.868701 138.981044 137.759829 139.872171 
C 138.650956 140.763299 139.859755 141.264 141.12 141.264 
z
" style="fill:#009900;fill-opacity:0.5;stroke:#009900;stroke-linejoin:miter;stroke-width:2;"/>
   </g>
   <g id="patch_13">
    <path clip-path="url(#p87dc7af0d1)" d="M 103.104 108 
C 105.62449 108 108.042087 106.998599 109.824343 105.216343 
C 111.606599 103.434087 112.608 101.01649 112.608 98.496 
C 112.608 95.97551 111.606599 93.557913 109.824343 91.775657 
C 108.042087 89.993401 105.62449 88.992 103.104 88.992 
C 100.58351 88.992 98.165913 89.993401 96.383657 91.775657 
C 94.601401 93.557913 93.6 95.97551 93.6 98.496 
C 93.6 101.01649 94.601401 103.434087 96.383657 105.216343 
C 98.165913 106.998599 100.58351 108 103.104 108 
z
" style="fill:#9558b2;fill-opacity:0.5;stroke:#9558b2;stroke-linejoin:miter;stroke-width:2;"/>
   </g>
   <g id="patch_14">
    <path clip-path="url(#p87dc7af0d1)" d="M 141.12 103.248 
C 142.380245 103.248 143.589044 102.747299 144.480171 101.856171 
C 145.371299 100.965044 145.872 99.756245 145.872 98.496 
C 145.872 97.235755 145.371299 96.026956 144.480171 95.135829 
C 143.589044 94.244701 142.380245 93.744 141.12 93.744 
C 139.859755 93.744 138.650956 94.244701 137.759829 95.135829 
C 136.868701 96.026956 136.368 97.235755 136.368 98.496 
C 136.368 99.756245 136.868701 100.965044 137.759829 101.856171 
C 138.650956 102.747299 139.859755 103.248 141.12 103.248 
z
" style="fill:#009900;fill-opacity:0.5;stroke:#009900;stroke-linejoin:miter;stroke-width:2;"/>
   </g>
   <g id="patch_15">
    <path clip-path="url(#p87dc7af0d1)" d="M 103.104 69.984 
C 105.62449 69.984 108.042087 68.982599 109.824343 67.200343 
C 111.606599 65.418087 112.608 63.00049 112.608 60.48 
C 112.608 57.95951 111.606599 55.541913 109.824343 53.759657 
C 108.042087 51.977401 105.62449 50.976 103.104 50.976 
C 100.58351 50.976 98.165913 51.977401 96.383657 53.759657 
C 94.601401 55.541913 93.6 57.95951 93.6 60.48 
C 93.6 63.00049 94.601401 65.418087 96.383657 67.200343 
C 98.165913 68.982599 100.58351 69.984 103.104 69.984 
z
" style="fill:#9558b2;fill-opacity:0.5;stroke:#9558b2;stroke-linejoin:miter;stroke-width:2;"/>
   </g>
   <g id="patch_16">
    <path clip-path="url(#p87dc7af0d1)" d="M 141.12 65.232 
C 142.380245 65.232 143.589044 64.731299 144.480171 63.840171 
C 145.371299 62.949044 145.872 61.740245 145.872 60.48 
C 145.872 59.219755 145.371299 58.010956 144.480171 57.119829 
C 143.589044 56.228701 142.380245 55.728 141.12 55.728 
C 139.859755 55.728 138.650956 56.228701 137.759829 57.119829 
C 136.868701 58.010956 136.368 59.219755 136.368 60.48 
C 136.368 61.740245 136.868701 62.949044 137.759829 63.840171 
C 138.650956 64.731299 139.859755 65.232 141.12 65.232 
z
" style="fill:#009900;fill-opacity:0.5;stroke:#009900;stroke-linejoin:miter;stroke-width:2;"/>
   </g>
   <g id="patch_17">
    <path clip-path="url(#p87dc7af0d1)" d="M 179.136 298.08 
C 181.65649 298.08 184.074087 297.078599 185.856343 295.296343 
C 187.638599 293.514087 188.64 291.09649 188.64 288.576 
C 188.64 286.05551 187.638599 283.637913 185.856343 281.855657 
C 184.074087 280.073401 181.65649 279.072 179.136 279.072 
C 176.61551 279.072 174.197913 280.073401 172.415657 281.855657 
C 170.633401 283.637913 169.632 286.05551 169.632 288.576 
C 169.632 291.09649 170.633401 293.514087 172.415657 295.296343 
C 174.197913 297.078599 176.61551 298.08 179.136 298.08 
z
" style="fill:#9558b2;fill-opacity:0.5;stroke:#9558b2;stroke-linejoin:miter;stroke-width:2;"/>
   </g>
   <g id="patch_18">
    <path clip-path="url(#p87dc7af0d1)" d="M 217.152 293.328 
C 218.412245 293.328 219.621044 292.827299 220.512171 291.936171 
C 221.403299 291.045044 221.904 289.836245 221.904 288.576 
C 221.904 287.315755 221.403299 286.106956 220.512171 285.215829 
C 219.621044 284.324701 218.412245 283.824 217.152 283.824 
C 215.891755 283.824 214.682956 284.324701 213.791829 285.215829 
C 212.900701 286.106956 212.4 287.315755 212.4 288.576 
C 212.4 289.836245 212.900701 291.045044 213.791829 291.936171 
C 214.682956 292.827299 215.891755 293.328 217.152 293.328 
z
" style="fill:#009900;fill-opacity:0.5;stroke:#009900;stroke-linejoin:miter;stroke-width:2;"/>
   </g>
   <g id="patch_19">
    <path clip-path="url(#p87dc7af0d1)" d="M 179.136 260.064 
C 181.65649 260.064 184.074087 259.062599 185.856343 257.280343 
C 187.638599 255.498087 188.64 253.08049 188.64 250.56 
C 188.64 248.03951 187.638599 245.621913 185.856343 243.839657 
C 184.074087 242.057401 181.65649 241.056 179.136 241.056 
C 176.61551 241.056 174.197913 242.057401 172.415657 243.839657 
C 170.633401 245.621913 169.632 248.03951 169.632 250.56 
C 169.632 253.08049 170.633401 255.498087 172.415657 257.280343 
C 174.197913 259.062599 176.61551 260.064 179.136 260.064 
z
" style="fill:#9558b2;fill-opacity:0.5;stroke:#9558b2;stroke-linejoin:miter;stroke-width:2;"/>
   </g>
   <g id="patch_20">
    <path clip-path="url(#p87dc7af0d1)" d="M 217.152 255.312 
C 218.412245 255.312 219.621044 254.811299 220.512171 253.920171 
C 221.403299 253.029044 221.904 251.820245 221.904 250.56 
C 221.904 249.299755 221.403299 248.090956 220.512171 247.199829 
C 219.621044 246.308701 218.412245 245.808 217.152 245.808 
C 215.891755 245.808 214.682956 246.308701 213.791829 247.199829 
C 212.900701 248.090956 212.4 249.299755 212.4 250.56 
C 212.4 251.820245 212.900701 253.029044 213.791829 253.920171 
C 214.682956 254.811299 215.891755 255.312 217.152 255.312 
z
" style="fill:#009900;fill-opacity:0.5;stroke:#009900;stroke-linejoin:miter;stroke-width:2;"/>
   </g>
   <g id="patch_21">
    <path clip-path="url(#p87dc7af0d1)" d="M 179.136 222.048 
C 181.65649 222.048 184.074087 221.046599 185.856343 219.264343 
C 187.638599 217.482087 188.64 215.06449 188.64 212.544 
C 188.64 210.02351 187.638599 207.605913 185.856343 205.823657 
C 184.074087 204.041401 181.65649 203.04 179.136 203.04 
C 176.61551 203.04 174.197913 204.041401 172.415657 205.823657 
C 170.633401 207.605913 169.632 210.02351 169.632 212.544 
C 169.632 215.06449 170.633401 217.482087 172.415657 219.264343 
C 174.197913 221.046599 176.61551 222.048 179.136 222.048 
z
" style="fill:#9558b2;fill-opacity:0.5;stroke:#9558b2;stroke-linejoin:miter;stroke-width:2;"/>
   </g>
   <g id="patch_22">
    <path clip-path="url(#p87dc7af0d1)" d="M 217.152 217.296 
C 218.412245 217.296 219.621044 216.795299 220.512171 215.904171 
C 221.403299 215.013044 221.904 213.804245 221.904 212.544 
C 221.904 211.283755 221.403299 210.074956 220.512171 209.183829 
C 219.621044 208.292701 218.412245 207.792 217.152 207.792 
C 215.891755 207.792 214.682956 208.292701 213.791829 209.183829 
C 212.900701 210.074956 212.4 211.283755 212.4 212.544 
C 212.4 213.804245 212.900701 215.013044 213.791829 215.904171 
C 214.682956 216.795299 215.891755 217.296 217.152 217.296 
z
" style="fill:#009900;fill-opacity:0.5;stroke:#009900;stroke-linejoin:miter;stroke-width:2;"/>
   </g>
   <g id="patch_23">
    <path clip-path="url(#p87dc7af0d1)" d="M 179.136 184.032 
C 181.65649 184.032 184.074087 183.030599 185.856343 181.248343 
C 187.638599 179.466087 188.64 177.04849 188.64 174.528 
C 188.64 172.00751 187.638599 169.589913 185.856343 167.807657 
C 184.074087 166.025401 181.65649 165.024 179.136 165.024 
C 176.61551 165.024 174.197913 166.025401 172.415657 167.807657 
C 170.633401 169.589913 169.632 172.00751 169.632 174.528 
C 169.632 177.04849 170.633401 179.466087 172.415657 181.248343 
C 174.197913 183.030599 176.61551 184.032 179.136 184.032 
z
" style="fill:#9558b2;fill-opacity:0.5;stroke:#9558b2;stroke-linejoin:miter;stroke-width:2;"/>
   </g>
   <g id="patch_24">
    <path clip-path="url(#p87dc7af0d1)" d="M 217.152 179.28 
C 218.412245 179.28 219.621044 178.779299 220.512171 177.888171 
C 221.403299 176.997044 221.904 175.788245 221.904 174.528 
C 221.904 173.267755 221.403299 172.058956 220.512171 171.167829 
C 219.621044 170.276701 218.412245 169.776 217.152 169.776 
C 215.891755 169.776 214.682956 170.276701 213.791829 171.167829 
C 212.900701 172.058956 212.4 173.267755 212.4 174.528 
C 212.4 175.788245 212.900701 176.997044 213.791829 177.888171 
C 214.682956 178.779299 215.891755 179.28 217.152 179.28 
z
" style="fill:#009900;fill-opacity:0.5;stroke:#009900;stroke-linejoin:miter;stroke-width:2;"/>
   </g>
   <g id="patch_25">
    <path clip-path="url(#p87dc7af0d1)" d="M 179.136 146.016 
C 181.65649 146.016 184.074087 145.014599 185.856343 143.232343 
C 187.638599 141.450087 188.64 139.03249 188.64 136.512 
C 188.64 133.99151 187.638599 131.573913 185.856343 129.791657 
C 184.074087 128.009401 181.65649 127.008 179.136 127.008 
C 176.61551 127.008 174.197913 128.009401 172.415657 129.791657 
C 170.633401 131.573913 169.632 133.99151 169.632 136.512 
C 169.632 139.03249 170.633401 141.450087 172.415657 143.232343 
C 174.197913 145.014599 176.61551 146.016 179.136 146.016 
z
" style="fill:#9558b2;fill-opacity:0.5;stroke:#9558b2;stroke-linejoin:miter;stroke-width:2;"/>
   </g>
   <g id="patch_26">
    <path clip-path="url(#p87dc7af0d1)" d="M 217.152 141.264 
C 218.412245 141.264 219.621044 140.763299 220.512171 139.872171 
C 221.403299 138.981044 221.904 137.772245 221.904 136.512 
C 221.904 135.251755 221.403299 134.042956 220.512171 133.151829 
C 219.621044 132.260701 218.412245 131.76 217.152 131.76 
C 215.891755 131.76 214.682956 132.260701 213.791829 133.151829 
C 212.900701 134.042956 212.4 135.251755 212.4 136.512 
C 212.4 137.772245 212.900701 138.981044 213.791829 139.872171 
C 214.682956 140.763299 215.891755 141.264 217.152 141.264 
z
" style="fill:#009900;fill-opacity:0.5;stroke:#009900;stroke-linejoin:miter;stroke-width:2;"/>
   </g>
   <g id="patch_27">
    <path clip-path="url(#p87dc7af0d1)" d="M 179.136 108 
C 181.65649 108 184.074087 106.998599 185.856343 105.216343 
C 187.638599 103.434087 188.64 101.01649 188.64 98.496 
C 188.64 95.97551 187.638599 93.557913 185.856343 91.775657 
C 184.074087 89.993401 181.65649 88.992 179.136 88.992 
C 176.61551 88.992 174.197913 89.993401 172.415657 91.775657 
C 170.633401 93.557913 169.632 95.97551 169.632 98.496 
C 169.632 101.01649 170.633401 103.434087 172.415657 105.216343 
C 174.197913 106.998599 176.61551 108 179.136 108 
z
" style="fill:#9558b2;fill-opacity:0.5;stroke:#9558b2;stroke-linejoin:miter;stroke-width:2;"/>
   </g>
   <g id="patch_28">
    <path clip-path="url(#p87dc7af0d1)" d="M 217.152 103.248 
C 218.412245 103.248 219.621044 102.747299 220.512171 101.856171 
C 221.403299 100.965044 221.904 99.756245 221.904 98.496 
C 221.904 97.235755 221.403299 96.026956 220.512171 95.135829 
C 219.621044 94.244701 218.412245 93.744 217.152 93.744 
C 215.891755 93.744 214.682956 94.244701 213.791829 95.135829 
C 212.900701 96.026956 212.4 97.235755 212.4 98.496 
C 212.4 99.756245 212.900701 100.965044 213.791829 101.856171 
C 214.682956 102.747299 215.891755 103.248 217.152 103.248 
z
" style="fill:#009900;fill-opacity:0.5;stroke:#009900;stroke-linejoin:miter;stroke-width:2;"/>
   </g>
   <g id="patch_29">
    <path clip-path="url(#p87dc7af0d1)" d="M 179.136 69.984 
C 181.65649 69.984 184.074087 68.982599 185.856343 67.200343 
C 187.638599 65.418087 188.64 63.00049 188.64 60.48 
C 188.64 57.95951 187.638599 55.541913 185.856343 53.759657 
C 184.074087 51.977401 181.65649 50.976 179.136 50.976 
C 176.61551 50.976 174.197913 51.977401 172.415657 53.759657 
C 170.633401 55.541913 169.632 57.95951 169.632 60.48 
C 169.632 63.00049 170.633401 65.418087 172.415657 67.200343 
C 174.197913 68.982599 176.61551 69.984 179.136 69.984 
z
" style="fill:#9558b2;fill-opacity:0.5;stroke:#9558b2;stroke-linejoin:miter;stroke-width:2;"/>
   </g>
   <g id="patch_30">
    <path clip-path="url(#p87dc7af0d1)" d="M 217.152 65.232 
C 218.412245 65.232 219.621044 64.731299 220.512171 63.840171 
C 221.403299 62.949044 221.904 61.740245 221.904 60.48 
C 221.904 59.219755 221.403299 58.010956 220.512171 57.119829 
C 219.621044 56.228701 218.412245 55.728 217.152 55.728 
C 215.891755 55.728 214.682956 56.228701 213.791829 57.119829 
C 212.900701 58.010956 212.4 59.219755 212.4 60.48 
C 212.4 61.740245 212.900701 62.949044 213.791829 63.840171 
C 214.682956 64.731299 215.891755 65.232 217.152 65.232 
z
" style="fill:#009900;fill-opacity:0.5;stroke:#009900;stroke-linejoin:miter;stroke-width:2;"/>
   </g>
   <g id="patch_31">
    <path clip-path="url(#p87dc7af0d1)" d="M 255.168 298.08 
C 257.68849 298.08 260.106087 297.078599 261.888343 295.296343 
C 263.670599 293.514087 264.672 291.09649 264.672 288.576 
C 264.672 286.05551 263.670599 283.637913 261.888343 281.855657 
C 260.106087 280.073401 257.68849 279.072 255.168 279.072 
C 252.64751 279.072 250.229913 280.073401 248.447657 281.855657 
C 246.665401 283.637913 245.664 286.05551 245.664 288.576 
C 245.664 291.09649 246.665401 293.514087 248.447657 295.296343 
C 250.229913 297.078599 252.64751 298.08 255.168 298.08 
z
" style="fill:#9558b2;fill-opacity:0.5;stroke:#9558b2;stroke-linejoin:miter;stroke-width:2;"/>
   </g>
   <g id="patch_32">
    <path clip-path="url(#p87dc7af0d1)" d="M 293.184 293.328 
C 294.444245 293.328 295.653044 292.827299 296.544171 291.936171 
C 297.435299 291.045044 297.936 289.836245 297.936 288.576 
C 297.936 287.315755 297.435299 286.106956 296.544171 285.215829 
C 295.653044 284.324701 294.444245 283.824 293.184 283.824 
C 291.923755 283.824 290.714956 284.324701 289.823829 285.215829 
C 288.932701 286.106956 288.432 287.315755 288.432 288.576 
C 288.432 289.836245 288.932701 291.045044 289.823829 291.936171 
C 290.714956 292.827299 291.923755 293.328 293.184 293.328 
z
" style="fill:#009900;fill-opacity:0.5;stroke:#009900;stroke-linejoin:miter;stroke-width:2;"/>
   </g>
   <g id="patch_33">
    <path clip-path="url(#p87dc7af0d1)" d="M 255.168 260.064 
C 257.68849 260.064 260.106087 259.062599 261.888343 257.280343 
C 263.670599 255.498087 264.672 253.08049 264.672 250.56 
C 264.672 248.03951 263.670599 245.621913 261.888343 243.839657 
C 260.106087 242.057401 257.68849 241.056 255.168 241.056 
C 252.64751 241.056 250.229913 242.057401 248.447657 243.839657 
C 246.665401 245.621913 245.664 248.03951 245.664 250.56 
C 245.664 253.08049 246.665401 255.498087 248.447657 257.280343 
C 250.229913 259.062599 252.64751 260.064 255.168 260.064 
z
" style="fill:#9558b2;fill-opacity:0.5;stroke:#9558b2;stroke-linejoin:miter;stroke-width:2;"/>
   </g>
   <g id="patch_34">
    <path clip-path="url(#p87dc7af0d1)" d="M 293.184 255.312 
C 294.444245 255.312 295.653044 254.811299 296.544171 253.920171 
C 297.435299 253.029044 297.936 251.820245 297.936 250.56 
C 297.936 249.299755 297.435299 248.090956 296.544171 247.199829 
C 295.653044 246.308701 294.444245 245.808 293.184 245.808 
C 291.923755 245.808 290.714956 246.308701 289.823829 247.199829 
C 288.932701 248.090956 288.432 249.299755 288.432 250.56 
C 288.432 251.820245 288.932701 253.029044 289.823829 253.920171 
C 290.714956 254.811299 291.923755 255.312 293.184 255.312 
z
" style="fill:#009900;fill-opacity:0.5;stroke:#009900;stroke-linejoin:miter;stroke-width:2;"/>
   </g>
   <g id="patch_35">
    <path clip-path="url(#p87dc7af0d1)" d="M 255.168 222.048 
C 257.68849 222.048 260.106087 221.046599 261.888343 219.264343 
C 263.670599 217.482087 264.672 215.06449 264.672 212.544 
C 264.672 210.02351 263.670599 207.605913 261.888343 205.823657 
C 260.106087 204.041401 257.68849 203.04 255.168 203.04 
C 252.64751 203.04 250.229913 204.041401 248.447657 205.823657 
C 246.665401 207.605913 245.664 210.02351 245.664 212.544 
C 245.664 215.06449 246.665401 217.482087 248.447657 219.264343 
C 250.229913 221.046599 252.64751 222.048 255.168 222.048 
z
" style="fill:#9558b2;fill-opacity:0.5;stroke:#9558b2;stroke-linejoin:miter;stroke-width:2;"/>
   </g>
   <g id="patch_36">
    <path clip-path="url(#p87dc7af0d1)" d="M 293.184 217.296 
C 294.444245 217.296 295.653044 216.795299 296.544171 215.904171 
C 297.435299 215.013044 297.936 213.804245 297.936 212.544 
C 297.936 211.283755 297.435299 210.074956 296.544171 209.183829 
C 295.653044 208.292701 294.444245 207.792 293.184 207.792 
C 291.923755 207.792 290.714956 208.292701 289.823829 209.183829 
C 288.932701 210.074956 288.432 211.283755 288.432 212.544 
C 288.432 213.804245 288.932701 215.013044 289.823829 215.904171 
C 290.714956 216.795299 291.923755 217.296 293.184 217.296 
z
" style="fill:#009900;fill-opacity:0.5;stroke:#009900;stroke-linejoin:miter;stroke-width:2;"/>
   </g>
   <g id="patch_37">
    <path clip-path="url(#p87dc7af0d1)" d="M 255.168 184.032 
C 257.68849 184.032 260.106087 183.030599 261.888343 181.248343 
C 263.670599 179.466087 264.672 177.04849 264.672 174.528 
C 264.672 172.00751 263.670599 169.589913 261.888343 167.807657 
C 260.106087 166.025401 257.68849 165.024 255.168 165.024 
C 252.64751 165.024 250.229913 166.025401 248.447657 167.807657 
C 246.665401 169.589913 245.664 172.00751 245.664 174.528 
C 245.664 177.04849 246.665401 179.466087 248.447657 181.248343 
C 250.229913 183.030599 252.64751 184.032 255.168 184.032 
z
" style="fill:#9558b2;fill-opacity:0.5;stroke:#9558b2;stroke-linejoin:miter;stroke-width:2;"/>
   </g>
   <g id="patch_38">
    <path clip-path="url(#p87dc7af0d1)" d="M 293.184 179.28 
C 294.444245 179.28 295.653044 178.779299 296.544171 177.888171 
C 297.435299 176.997044 297.936 175.788245 297.936 174.528 
C 297.936 173.267755 297.435299 172.058956 296.544171 171.167829 
C 295.653044 170.276701 294.444245 169.776 293.184 169.776 
C 291.923755 169.776 290.714956 170.276701 289.823829 171.167829 
C 288.932701 172.058956 288.432 173.267755 288.432 174.528 
C 288.432 175.788245 288.932701 176.997044 289.823829 177.888171 
C 290.714956 178.779299 291.923755 179.28 293.184 179.28 
z
" style="fill:#009900;fill-opacity:0.5;stroke:#009900;stroke-linejoin:miter;stroke-width:2;"/>
   </g>
   <g id="patch_39">
    <path clip-path="url(#p87dc7af0d1)" d="M 255.168 146.016 
C 257.68849 146.016 260.106087 145.014599 261.888343 143.232343 
C 263.670599 141.450087 264.672 139.03249 264.672 136.512 
C 264.672 133.99151 263.670599 131.573913 261.888343 129.791657 
C 260.106087 128.009401 257.68849 127.008 255.168 127.008 
C 252.64751 127.008 250.229913 128.009401 248.447657 129.791657 
C 246.665401 131.573913 245.664 133.99151 245.664 136.512 
C 245.664 139.03249 246.665401 141.450087 248.447657 143.232343 
C 250.229913 145.014599 252.64751 146.016 255.168 146.016 
z
" style="fill:#9558b2;fill-opacity:0.5;stroke:#9558b2;stroke-linejoin:miter;stroke-width:2;"/>
   </g>
   <g id="patch_40">
    <path clip-path="url(#p87dc7af0d1)" d="M 293.184 141.264 
C 294.444245 141.264 295.653044 140.763299 296.544171 139.872171 
C 297.435299 138.981044 297.936 137.772245 297.936 136.512 
C 297.936 135.251755 297.435299 134.042956 296.544171 133.151829 
C 295.653044 132.260701 294.444245 131.76 293.184 131.76 
C 291.923755 131.76 290.714956 132.260701 289.823829 133.151829 
C 288.932701 134.042956 288.432 135.251755 288.432 136.512 
C 288.432 137.772245 288.932701 138.981044 289.823829 139.872171 
C 290.714956 140.763299 291.923755 141.264 293.184 141.264 
z
" style="fill:#009900;fill-opacity:0.5;stroke:#009900;stroke-linejoin:miter;stroke-width:2;"/>
   </g>
   <g id="patch_41">
    <path clip-path="url(#p87dc7af0d1)" d="M 255.168 108 
C 257.68849 108 260.106087 106.998599 261.888343 105.216343 
C 263.670599 103.434087 264.672 101.01649 264.672 98.496 
C 264.672 95.97551 263.670599 93.557913 261.888343 91.775657 
C 260.106087 89.993401 257.68849 88.992 255.168 88.992 
C 252.64751 88.992 250.229913 89.993401 248.447657 91.775657 
C 246.665401 93.557913 245.664 95.97551 245.664 98.496 
C 245.664 101.01649 246.665401 103.434087 248.447657 105.216343 
C 250.229913 106.998599 252.64751 108 255.168 108 
z
" style="fill:#9558b2;fill-opacity:0.5;stroke:#9558b2;stroke-linejoin:miter;stroke-width:2;"/>
   </g>
   <g id="patch_42">
    <path clip-path="url(#p87dc7af0d1)" d="M 293.184 103.248 
C 294.444245 103.248 295.653044 102.747299 296.544171 101.856171 
C 297.435299 100.965044 297.936 99.756245 297.936 98.496 
C 297.936 97.235755 297.435299 96.026956 296.544171 95.135829 
C 295.653044 94.244701 294.444245 93.744 293.184 93.744 
C 291.923755 93.744 290.714956 94.244701 289.823829 95.135829 
C 288.932701 96.026956 288.432 97.235755 288.432 98.496 
C 288.432 99.756245 288.932701 100.965044 289.823829 101.856171 
C 290.714956 102.747299 291.923755 103.248 293.184 103.248 
z
" style="fill:#009900;fill-opacity:0.5;stroke:#009900;stroke-linejoin:miter;stroke-width:2;"/>
   </g>
   <g id="patch_43">
    <path clip-path="url(#p87dc7af0d1)" d="M 255.168 69.984 
C 257.68849 69.984 260.106087 68.982599 261.888343 67.200343 
C 263.670599 65.418087 264.672 63.00049 264.672 60.48 
C 264.672 57.95951 263.670599 55.541913 261.888343 53.759657 
C 260.106087 51.977401 257.68849 50.976 255.168 50.976 
C 252.64751 50.976 250.229913 51.977401 248.447657 53.759657 
C 246.665401 55.541913 245.664 57.95951 245.664 60.48 
C 245.664 63.00049 246.665401 65.418087 248.447657 67.200343 
C 250.229913 68.982599 252.64751 69.984 255.168 69.984 
z
" style="fill:#9558b2;fill-opacity:0.5;stroke:#9558b2;stroke-linejoin:miter;stroke-width:2;"/>
   </g>
   <g id="patch_44">
    <path clip-path="url(#p87dc7af0d1)" d="M 293.184 65.232 
C 294.444245 65.232 295.653044 64.731299 296.544171 63.840171 
C 297.435299 62.949044 297.936 61.740245 297.936 60.48 
C 297.936 59.219755 297.435299 58.010956 296.544171 57.119829 
C 295.653044 56.228701 294.444245 55.728 293.184 55.728 
C 291.923755 55.728 290.714956 56.228701 289.823829 57.119829 
C 288.932701 58.010956 288.432 59.219755 288.432 60.48 
C 288.432 61.740245 288.932701 62.949044 289.823829 63.840171 
C 290.714956 64.731299 291.923755 65.232 293.184 65.232 
z
" style="fill:#009900;fill-opacity:0.5;stroke:#009900;stroke-linejoin:miter;stroke-width:2;"/>
   </g>
   <g id="patch_45">
    <path clip-path="url(#p87dc7af0d1)" d="M 331.2 298.08 
C 333.72049 298.08 336.138087 297.078599 337.920343 295.296343 
C 339.702599 293.514087 340.704 291.09649 340.704 288.576 
C 340.704 286.05551 339.702599 283.637913 337.920343 281.855657 
C 336.138087 280.073401 333.72049 279.072 331.2 279.072 
C 328.67951 279.072 326.261913 280.073401 324.479657 281.855657 
C 322.697401 283.637913 321.696 286.05551 321.696 288.576 
C 321.696 291.09649 322.697401 293.514087 324.479657 295.296343 
C 326.261913 297.078599 328.67951 298.08 331.2 298.08 
z
" style="fill:#9558b2;fill-opacity:0.5;stroke:#9558b2;stroke-linejoin:miter;stroke-width:2;"/>
   </g>
   <g id="patch_46">
    <path clip-path="url(#p87dc7af0d1)" d="M 369.216 293.328 
C 370.476245 293.328 371.685044 292.827299 372.576171 291.936171 
C 373.467299 291.045044 373.968 289.836245 373.968 288.576 
C 373.968 287.315755 373.467299 286.106956 372.576171 285.215829 
C 371.685044 284.324701 370.476245 283.824 369.216 283.824 
C 367.955755 283.824 366.746956 284.324701 365.855829 285.215829 
C 364.964701 286.106956 364.464 287.315755 364.464 288.576 
C 364.464 289.836245 364.964701 291.045044 365.855829 291.936171 
C 366.746956 292.827299 367.955755 293.328 369.216 293.328 
z
" style="fill:#009900;fill-opacity:0.5;stroke:#009900;stroke-linejoin:miter;stroke-width:2;"/>
   </g>
   <g id="patch_47">
    <path clip-path="url(#p87dc7af0d1)" d="M 331.2 260.064 
C 333.72049 260.064 336.138087 259.062599 337.920343 257.280343 
C 339.702599 255.498087 340.704 253.08049 340.704 250.56 
C 340.704 248.03951 339.702599 245.621913 337.920343 243.839657 
C 336.138087 242.057401 333.72049 241.056 331.2 241.056 
C 328.67951 241.056 326.261913 242.057401 324.479657 243.839657 
C 322.697401 245.621913 321.696 248.03951 321.696 250.56 
C 321.696 253.08049 322.697401 255.498087 324.479657 257.280343 
C 326.261913 259.062599 328.67951 260.064 331.2 260.064 
z
" style="fill:#9558b2;fill-opacity:0.5;stroke:#9558b2;stroke-linejoin:miter;stroke-width:2;"/>
   </g>
   <g id="patch_48">
    <path clip-path="url(#p87dc7af0d1)" d="M 369.216 255.312 
C 370.476245 255.312 371.685044 254.811299 372.576171 253.920171 
C 373.467299 253.029044 373.968 251.820245 373.968 250.56 
C 373.968 249.299755 373.467299 248.090956 372.576171 247.199829 
C 371.685044 246.308701 370.476245 245.808 369.216 245.808 
C 367.955755 245.808 366.746956 246.308701 365.855829 247.199829 
C 364.964701 248.090956 364.464 249.299755 364.464 250.56 
C 364.464 251.820245 364.964701 253.029044 365.855829 253.920171 
C 366.746956 254.811299 367.955755 255.312 369.216 255.312 
z
" style="fill:#009900;fill-opacity:0.5;stroke:#009900;stroke-linejoin:miter;stroke-width:2;"/>
   </g>
   <g id="patch_49">
    <path clip-path="url(#p87dc7af0d1)" d="M 331.2 222.048 
C 333.72049 222.048 336.138087 221.046599 337.920343 219.264343 
C 339.702599 217.482087 340.704 215.06449 340.704 212.544 
C 340.704 210.02351 339.702599 207.605913 337.920343 205.823657 
C 336.138087 204.041401 333.72049 203.04 331.2 203.04 
C 328.67951 203.04 326.261913 204.041401 324.479657 205.823657 
C 322.697401 207.605913 321.696 210.02351 321.696 212.544 
C 321.696 215.06449 322.697401 217.482087 324.479657 219.264343 
C 326.261913 221.046599 328.67951 222.048 331.2 222.048 
z
" style="fill:#9558b2;fill-opacity:0.5;stroke:#9558b2;stroke-linejoin:miter;stroke-width:2;"/>
   </g>
   <g id="patch_50">
    <path clip-path="url(#p87dc7af0d1)" d="M 369.216 217.296 
C 370.476245 217.296 371.685044 216.795299 372.576171 215.904171 
C 373.467299 215.013044 373.968 213.804245 373.968 212.544 
C 373.968 211.283755 373.467299 210.074956 372.576171 209.183829 
C 371.685044 208.292701 370.476245 207.792 369.216 207.792 
C 367.955755 207.792 366.746956 208.292701 365.855829 209.183829 
C 364.964701 210.074956 364.464 211.283755 364.464 212.544 
C 364.464 213.804245 364.964701 215.013044 365.855829 215.904171 
C 366.746956 216.795299 367.955755 217.296 369.216 217.296 
z
" style="fill:#009900;fill-opacity:0.5;stroke:#009900;stroke-linejoin:miter;stroke-width:2;"/>
   </g>
   <g id="patch_51">
    <path clip-path="url(#p87dc7af0d1)" d="M 331.2 184.032 
C 333.72049 184.032 336.138087 183.030599 337.920343 181.248343 
C 339.702599 179.466087 340.704 177.04849 340.704 174.528 
C 340.704 172.00751 339.702599 169.589913 337.920343 167.807657 
C 336.138087 166.025401 333.72049 165.024 331.2 165.024 
C 328.67951 165.024 326.261913 166.025401 324.479657 167.807657 
C 322.697401 169.589913 321.696 172.00751 321.696 174.528 
C 321.696 177.04849 322.697401 179.466087 324.479657 181.248343 
C 326.261913 183.030599 328.67951 184.032 331.2 184.032 
z
" style="fill:#9558b2;fill-opacity:0.5;stroke:#9558b2;stroke-linejoin:miter;stroke-width:2;"/>
   </g>
   <g id="patch_52">
    <path clip-path="url(#p87dc7af0d1)" d="M 369.216 179.28 
C 370.476245 179.28 371.685044 178.779299 372.576171 177.888171 
C 373.467299 176.997044 373.968 175.788245 373.968 174.528 
C 373.968 173.267755 373.467299 172.058956 372.576171 171.167829 
C 371.685044 170.276701 370.476245 169.776 369.216 169.776 
C 367.955755 169.776 366.746956 170.276701 365.855829 171.167829 
C 364.964701 172.058956 364.464 173.267755 364.464 174.528 
C 364.464 175.788245 364.964701 176.997044 365.855829 177.888171 
C 366.746956 178.779299 367.955755 179.28 369.216 179.28 
z
" style="fill:#009900;fill-opacity:0.5;stroke:#009900;stroke-linejoin:miter;stroke-width:2;"/>
   </g>
   <g id="patch_53">
    <path clip-path="url(#p87dc7af0d1)" d="M 331.2 146.016 
C 333.72049 146.016 336.138087 145.014599 337.920343 143.232343 
C 339.702599 141.450087 340.704 139.03249 340.704 136.512 
C 340.704 133.99151 339.702599 131.573913 337.920343 129.791657 
C 336.138087 128.009401 333.72049 127.008 331.2 127.008 
C 328.67951 127.008 326.261913 128.009401 324.479657 129.791657 
C 322.697401 131.573913 321.696 133.99151 321.696 136.512 
C 321.696 139.03249 322.697401 141.450087 324.479657 143.232343 
C 326.261913 145.014599 328.67951 146.016 331.2 146.016 
z
" style="fill:#9558b2;fill-opacity:0.5;stroke:#9558b2;stroke-linejoin:miter;stroke-width:2;"/>
   </g>
   <g id="patch_54">
    <path clip-path="url(#p87dc7af0d1)" d="M 369.216 141.264 
C 370.476245 141.264 371.685044 140.763299 372.576171 139.872171 
C 373.467299 138.981044 373.968 137.772245 373.968 136.512 
C 373.968 135.251755 373.467299 134.042956 372.576171 133.151829 
C 371.685044 132.260701 370.476245 131.76 369.216 131.76 
C 367.955755 131.76 366.746956 132.260701 365.855829 133.151829 
C 364.964701 134.042956 364.464 135.251755 364.464 136.512 
C 364.464 137.772245 364.964701 138.981044 365.855829 139.872171 
C 366.746956 140.763299 367.955755 141.264 369.216 141.264 
z
" style="fill:#009900;fill-opacity:0.5;stroke:#009900;stroke-linejoin:miter;stroke-width:2;"/>
   </g>
   <g id="patch_55">
    <path clip-path="url(#p87dc7af0d1)" d="M 331.2 108 
C 333.72049 108 336.138087 106.998599 337.920343 105.216343 
C 339.702599 103.434087 340.704 101.01649 340.704 98.496 
C 340.704 95.97551 339.702599 93.557913 337.920343 91.775657 
C 336.138087 89.993401 333.72049 88.992 331.2 88.992 
C 328.67951 88.992 326.261913 89.993401 324.479657 91.775657 
C 322.697401 93.557913 321.696 95.97551 321.696 98.496 
C 321.696 101.01649 322.697401 103.434087 324.479657 105.216343 
C 326.261913 106.998599 328.67951 108 331.2 108 
z
" style="fill:#9558b2;fill-opacity:0.5;stroke:#9558b2;stroke-linejoin:miter;stroke-width:2;"/>
   </g>
   <g id="patch_56">
    <path clip-path="url(#p87dc7af0d1)" d="M 369.216 103.248 
C 370.476245 103.248 371.685044 102.747299 372.576171 101.856171 
C 373.467299 100.965044 373.968 99.756245 373.968 98.496 
C 373.968 97.235755 373.467299 96.026956 372.576171 95.135829 
C 371.685044 94.244701 370.476245 93.744 369.216 93.744 
C 367.955755 93.744 366.746956 94.244701 365.855829 95.135829 
C 364.964701 96.026956 364.464 97.235755 364.464 98.496 
C 364.464 99.756245 364.964701 100.965044 365.855829 101.856171 
C 366.746956 102.747299 367.955755 103.248 369.216 103.248 
z
" style="fill:#009900;fill-opacity:0.5;stroke:#009900;stroke-linejoin:miter;stroke-width:2;"/>
   </g>
   <g id="patch_57">
    <path clip-path="url(#p87dc7af0d1)" d="M 331.2 69.984 
C 333.72049 69.984 336.138087 68.982599 337.920343 67.200343 
C 339.702599 65.418087 340.704 63.00049 340.704 60.48 
C 340.704 57.95951 339.702599 55.541913 337.920343 53.759657 
C 336.138087 51.977401 333.72049 50.976 331.2 50.976 
C 328.67951 50.976 326.261913 51.977401 324.479657 53.759657 
C 322.697401 55.541913 321.696 57.95951 321.696 60.48 
C 321.696 63.00049 322.697401 65.418087 324.479657 67.200343 
C 326.261913 68.982599 328.67951 69.984 331.2 69.984 
z
" style="fill:#9558b2;fill-opacity:0.5;stroke:#9558b2;stroke-linejoin:miter;stroke-width:2;"/>
   </g>
   <g id="patch_58">
    <path clip-path="url(#p87dc7af0d1)" d="M 369.216 65.232 
C 370.476245 65.232 371.685044 64.731299 372.576171 63.840171 
C 373.467299 62.949044 373.968 61.740245 373.968 60.48 
C 373.968 59.219755 373.467299 58.010956 372.576171 57.119829 
C 371.685044 56.228701 370.476245 55.728 369.216 55.728 
C 367.955755 55.728 366.746956 56.228701 365.855829 57.119829 
C 364.964701 58.010956 364.464 59.219755 364.464 60.48 
C 364.464 61.740245 364.964701 62.949044 365.855829 63.840171 
C 366.746956 64.731299 367.955755 65.232 369.216 65.232 
z
" style="fill:#009900;fill-opacity:0.5;stroke:#009900;stroke-linejoin:miter;stroke-width:2;"/>
   </g>
   <g id="matplotlib.axis_1">
    <g id="xtick_1">
     <g id="line2d_1">
      <defs>
       <path d="M 0 0 
L 0 3.5 
" id="mc068ff714f" style="stroke:#000000;stroke-width:0.8;"/>
      </defs>
      <g>
       <use style="stroke:#000000;stroke-width:0.8;" x="84.096" xlink:href="#mc068ff714f" y="307.584"/>
      </g>
     </g>
     <g id="text_1">
      <!-- −2 -->
      <defs>
       <path d="M 10.59375 35.5 
L 73.1875 35.5 
L 73.1875 27.203125 
L 10.59375 27.203125 
z
" id="DejaVuSans-2212"/>
       <path d="M 19.1875 8.296875 
L 53.609375 8.296875 
L 53.609375 0 
L 7.328125 0 
L 7.328125 8.296875 
Q 12.9375 14.109375 22.625 23.890625 
Q 32.328125 33.6875 34.8125 36.53125 
Q 39.546875 41.84375 41.421875 45.53125 
Q 43.3125 49.21875 43.3125 52.78125 
Q 43.3125 58.59375 39.234375 62.25 
Q 35.15625 65.921875 28.609375 65.921875 
Q 23.96875 65.921875 18.8125 64.3125 
Q 13.671875 62.703125 7.8125 59.421875 
L 7.8125 69.390625 
Q 13.765625 71.78125 18.9375 73 
Q 24.125 74.21875 28.421875 74.21875 
Q 39.75 74.21875 46.484375 68.546875 
Q 53.21875 62.890625 53.21875 53.421875 
Q 53.21875 48.921875 51.53125 44.890625 
Q 49.859375 40.875 45.40625 35.40625 
Q 44.1875 33.984375 37.640625 27.21875 
Q 31.109375 20.453125 19.1875 8.296875 
z
" id="DejaVuSans-32"/>
      </defs>
      <g transform="translate(76.724906 322.182437)scale(0.1 -0.1)">
       <use xlink:href="#DejaVuSans-2212"/>
       <use x="83.789062" xlink:href="#DejaVuSans-32"/>
      </g>
     </g>
    </g>
    <g id="xtick_2">
     <g id="line2d_2">
      <g>
       <use style="stroke:#000000;stroke-width:0.8;" x="122.112" xlink:href="#mc068ff714f" y="307.584"/>
      </g>
     </g>
     <g id="text_2">
      <!-- −1 -->
      <defs>
       <path d="M 12.40625 8.296875 
L 28.515625 8.296875 
L 28.515625 63.921875 
L 10.984375 60.40625 
L 10.984375 69.390625 
L 28.421875 72.90625 
L 38.28125 72.90625 
L 38.28125 8.296875 
L 54.390625 8.296875 
L 54.390625 0 
L 12.40625 0 
z
" id="DejaVuSans-31"/>
      </defs>
      <g transform="translate(114.740906 322.182437)scale(0.1 -0.1)">
       <use xlink:href="#DejaVuSans-2212"/>
       <use x="83.789062" xlink:href="#DejaVuSans-31"/>
      </g>
     </g>
    </g>
    <g id="xtick_3">
     <g id="line2d_3">
      <g>
       <use style="stroke:#000000;stroke-width:0.8;" x="160.128" xlink:href="#mc068ff714f" y="307.584"/>
      </g>
     </g>
     <g id="text_3">
      <!-- 0 -->
      <defs>
       <path d="M 31.78125 66.40625 
Q 24.171875 66.40625 20.328125 58.90625 
Q 16.5 51.421875 16.5 36.375 
Q 16.5 21.390625 20.328125 13.890625 
Q 24.171875 6.390625 31.78125 6.390625 
Q 39.453125 6.390625 43.28125 13.890625 
Q 47.125 21.390625 47.125 36.375 
Q 47.125 51.421875 43.28125 58.90625 
Q 39.453125 66.40625 31.78125 66.40625 
z
M 31.78125 74.21875 
Q 44.046875 74.21875 50.515625 64.515625 
Q 56.984375 54.828125 56.984375 36.375 
Q 56.984375 17.96875 50.515625 8.265625 
Q 44.046875 -1.421875 31.78125 -1.421875 
Q 19.53125 -1.421875 13.0625 8.265625 
Q 6.59375 17.96875 6.59375 36.375 
Q 6.59375 54.828125 13.0625 64.515625 
Q 19.53125 74.21875 31.78125 74.21875 
z
" id="DejaVuSans-30"/>
      </defs>
      <g transform="translate(156.94675 322.182437)scale(0.1 -0.1)">
       <use xlink:href="#DejaVuSans-30"/>
      </g>
     </g>
    </g>
    <g id="xtick_4">
     <g id="line2d_4">
      <g>
       <use style="stroke:#000000;stroke-width:0.8;" x="198.144" xlink:href="#mc068ff714f" y="307.584"/>
      </g>
     </g>
     <g id="text_4">
      <!-- 1 -->
      <g transform="translate(194.96275 322.182437)scale(0.1 -0.1)">
       <use xlink:href="#DejaVuSans-31"/>
      </g>
     </g>
    </g>
    <g id="xtick_5">
     <g id="line2d_5">
      <g>
       <use style="stroke:#000000;stroke-width:0.8;" x="236.16" xlink:href="#mc068ff714f" y="307.584"/>
      </g>
     </g>
     <g id="text_5">
      <!-- 2 -->
      <g transform="translate(232.97875 322.182437)scale(0.1 -0.1)">
       <use xlink:href="#DejaVuSans-32"/>
      </g>
     </g>
    </g>
    <g id="xtick_6">
     <g id="line2d_6">
      <g>
       <use style="stroke:#000000;stroke-width:0.8;" x="274.176" xlink:href="#mc068ff714f" y="307.584"/>
      </g>
     </g>
     <g id="text_6">
      <!-- 3 -->
      <defs>
       <path d="M 40.578125 39.3125 
Q 47.65625 37.796875 51.625 33 
Q 55.609375 28.21875 55.609375 21.1875 
Q 55.609375 10.40625 48.1875 4.484375 
Q 40.765625 -1.421875 27.09375 -1.421875 
Q 22.515625 -1.421875 17.65625 -0.515625 
Q 12.796875 0.390625 7.625 2.203125 
L 7.625 11.71875 
Q 11.71875 9.328125 16.59375 8.109375 
Q 21.484375 6.890625 26.8125 6.890625 
Q 36.078125 6.890625 40.9375 10.546875 
Q 45.796875 14.203125 45.796875 21.1875 
Q 45.796875 27.640625 41.28125 31.265625 
Q 36.765625 34.90625 28.71875 34.90625 
L 20.21875 34.90625 
L 20.21875 43.015625 
L 29.109375 43.015625 
Q 36.375 43.015625 40.234375 45.921875 
Q 44.09375 48.828125 44.09375 54.296875 
Q 44.09375 59.90625 40.109375 62.90625 
Q 36.140625 65.921875 28.71875 65.921875 
Q 24.65625 65.921875 20.015625 65.03125 
Q 15.375 64.15625 9.8125 62.3125 
L 9.8125 71.09375 
Q 15.4375 72.65625 20.34375 73.4375 
Q 25.25 74.21875 29.59375 74.21875 
Q 40.828125 74.21875 47.359375 69.109375 
Q 53.90625 64.015625 53.90625 55.328125 
Q 53.90625 49.265625 50.4375 45.09375 
Q 46.96875 40.921875 40.578125 39.3125 
z
" id="DejaVuSans-33"/>
      </defs>
      <g transform="translate(270.99475 322.182437)scale(0.1 -0.1)">
       <use xlink:href="#DejaVuSans-33"/>
      </g>
     </g>
    </g>
    <g id="xtick_7">
     <g id="line2d_7">
      <g>
       <use style="stroke:#000000;stroke-width:0.8;" x="312.192" xlink:href="#mc068ff714f" y="307.584"/>
      </g>
     </g>
     <g id="text_7">
      <!-- 4 -->
      <defs>
       <path d="M 37.796875 64.3125 
L 12.890625 25.390625 
L 37.796875 25.390625 
z
M 35.203125 72.90625 
L 47.609375 72.90625 
L 47.609375 25.390625 
L 58.015625 25.390625 
L 58.015625 17.1875 
L 47.609375 17.1875 
L 47.609375 0 
L 37.796875 0 
L 37.796875 17.1875 
L 4.890625 17.1875 
L 4.890625 26.703125 
z
" id="DejaVuSans-34"/>
      </defs>
      <g transform="translate(309.01075 322.182437)scale(0.1 -0.1)">
       <use xlink:href="#DejaVuSans-34"/>
      </g>
     </g>
    </g>
    <g id="xtick_8">
     <g id="line2d_8">
      <g>
       <use style="stroke:#000000;stroke-width:0.8;" x="350.208" xlink:href="#mc068ff714f" y="307.584"/>
      </g>
     </g>
     <g id="text_8">
      <!-- 5 -->
      <defs>
       <path d="M 10.796875 72.90625 
L 49.515625 72.90625 
L 49.515625 64.59375 
L 19.828125 64.59375 
L 19.828125 46.734375 
Q 21.96875 47.46875 24.109375 47.828125 
Q 26.265625 48.1875 28.421875 48.1875 
Q 40.625 48.1875 47.75 41.5 
Q 54.890625 34.8125 54.890625 23.390625 
Q 54.890625 11.625 47.5625 5.09375 
Q 40.234375 -1.421875 26.90625 -1.421875 
Q 22.3125 -1.421875 17.546875 -0.640625 
Q 12.796875 0.140625 7.71875 1.703125 
L 7.71875 11.625 
Q 12.109375 9.234375 16.796875 8.0625 
Q 21.484375 6.890625 26.703125 6.890625 
Q 35.15625 6.890625 40.078125 11.328125 
Q 45.015625 15.765625 45.015625 23.390625 
Q 45.015625 31 40.078125 35.4375 
Q 35.15625 39.890625 26.703125 39.890625 
Q 22.75 39.890625 18.8125 39.015625 
Q 14.890625 38.140625 10.796875 36.28125 
z
" id="DejaVuSans-35"/>
      </defs>
      <g transform="translate(347.02675 322.182437)scale(0.1 -0.1)">
       <use xlink:href="#DejaVuSans-35"/>
      </g>
     </g>
    </g>
    <g id="xtick_9">
     <g id="line2d_9">
      <g>
       <use style="stroke:#000000;stroke-width:0.8;" x="388.224" xlink:href="#mc068ff714f" y="307.584"/>
      </g>
     </g>
     <g id="text_9">
      <!-- 6 -->
      <defs>
       <path d="M 33.015625 40.375 
Q 26.375 40.375 22.484375 35.828125 
Q 18.609375 31.296875 18.609375 23.390625 
Q 18.609375 15.53125 22.484375 10.953125 
Q 26.375 6.390625 33.015625 6.390625 
Q 39.65625 6.390625 43.53125 10.953125 
Q 47.40625 15.53125 47.40625 23.390625 
Q 47.40625 31.296875 43.53125 35.828125 
Q 39.65625 40.375 33.015625 40.375 
z
M 52.59375 71.296875 
L 52.59375 62.3125 
Q 48.875 64.0625 45.09375 64.984375 
Q 41.3125 65.921875 37.59375 65.921875 
Q 27.828125 65.921875 22.671875 59.328125 
Q 17.53125 52.734375 16.796875 39.40625 
Q 19.671875 43.65625 24.015625 45.921875 
Q 28.375 48.1875 33.59375 48.1875 
Q 44.578125 48.1875 50.953125 41.515625 
Q 57.328125 34.859375 57.328125 23.390625 
Q 57.328125 12.15625 50.6875 5.359375 
Q 44.046875 -1.421875 33.015625 -1.421875 
Q 20.359375 -1.421875 13.671875 8.265625 
Q 6.984375 17.96875 6.984375 36.375 
Q 6.984375 53.65625 15.1875 63.9375 
Q 23.390625 74.21875 37.203125 74.21875 
Q 40.921875 74.21875 44.703125 73.484375 
Q 48.484375 72.75 52.59375 71.296875 
z
" id="DejaVuSans-36"/>
      </defs>
      <g transform="translate(385.04275 322.182437)scale(0.1 -0.1)">
       <use xlink:href="#DejaVuSans-36"/>
      </g>
     </g>
    </g>
   </g>
   <g id="matplotlib.axis_2">
    <g id="ytick_1">
     <g id="line2d_10">
      <defs>
       <path d="M 0 0 
L -3.5 0 
" id="mb427b98bbe" style="stroke:#000000;stroke-width:0.8;"/>
      </defs>
      <g>
       <use style="stroke:#000000;stroke-width:0.8;" x="84.096" xlink:href="#mb427b98bbe" y="307.584"/>
      </g>
     </g>
     <g id="text_10">
      <!-- −2 -->
      <g transform="translate(62.353813 311.383219)scale(0.1 -0.1)">
       <use xlink:href="#DejaVuSans-2212"/>
       <use x="83.789062" xlink:href="#DejaVuSans-32"/>
      </g>
     </g>
    </g>
    <g id="ytick_2">
     <g id="line2d_11">
      <g>
       <use style="stroke:#000000;stroke-width:0.8;" x="84.096" xlink:href="#mb427b98bbe" y="269.568"/>
      </g>
     </g>
     <g id="text_11">
      <!-- −1 -->
      <g transform="translate(62.353813 273.367219)scale(0.1 -0.1)">
       <use xlink:href="#DejaVuSans-2212"/>
       <use x="83.789062" xlink:href="#DejaVuSans-31"/>
      </g>
     </g>
    </g>
    <g id="ytick_3">
     <g id="line2d_12">
      <g>
       <use style="stroke:#000000;stroke-width:0.8;" x="84.096" xlink:href="#mb427b98bbe" y="231.552"/>
      </g>
     </g>
     <g id="text_12">
      <!-- 0 -->
      <g transform="translate(70.7335 235.351219)scale(0.1 -0.1)">
       <use xlink:href="#DejaVuSans-30"/>
      </g>
     </g>
    </g>
    <g id="ytick_4">
     <g id="line2d_13">
      <g>
       <use style="stroke:#000000;stroke-width:0.8;" x="84.096" xlink:href="#mb427b98bbe" y="193.536"/>
      </g>
     </g>
     <g id="text_13">
      <!-- 1 -->
      <g transform="translate(70.7335 197.335219)scale(0.1 -0.1)">
       <use xlink:href="#DejaVuSans-31"/>
      </g>
     </g>
    </g>
    <g id="ytick_5">
     <g id="line2d_14">
      <g>
       <use style="stroke:#000000;stroke-width:0.8;" x="84.096" xlink:href="#mb427b98bbe" y="155.52"/>
      </g>
     </g>
     <g id="text_14">
      <!-- 2 -->
      <g transform="translate(70.7335 159.319219)scale(0.1 -0.1)">
       <use xlink:href="#DejaVuSans-32"/>
      </g>
     </g>
    </g>
    <g id="ytick_6">
     <g id="line2d_15">
      <g>
       <use style="stroke:#000000;stroke-width:0.8;" x="84.096" xlink:href="#mb427b98bbe" y="117.504"/>
      </g>
     </g>
     <g id="text_15">
      <!-- 3 -->
      <g transform="translate(70.7335 121.303219)scale(0.1 -0.1)">
       <use xlink:href="#DejaVuSans-33"/>
      </g>
     </g>
    </g>
    <g id="ytick_7">
     <g id="line2d_16">
      <g>
       <use style="stroke:#000000;stroke-width:0.8;" x="84.096" xlink:href="#mb427b98bbe" y="79.488"/>
      </g>
     </g>
     <g id="text_16">
      <!-- 4 -->
      <g transform="translate(70.7335 83.287219)scale(0.1 -0.1)">
       <use xlink:href="#DejaVuSans-34"/>
      </g>
     </g>
    </g>
    <g id="ytick_8">
     <g id="line2d_17">
      <g>
       <use style="stroke:#000000;stroke-width:0.8;" x="84.096" xlink:href="#mb427b98bbe" y="41.472"/>
      </g>
     </g>
     <g id="text_17">
      <!-- 5 -->
      <g transform="translate(70.7335 45.271219)scale(0.1 -0.1)">
       <use xlink:href="#DejaVuSans-35"/>
      </g>
     </g>
    </g>
   </g>
   <g id="line2d_18">
    <path clip-path="url(#p87dc7af0d1)" d="M 171.093615 205.738457 
L 171.617534 206.730336 
L 110.698671 180.241755 
L 106.669006 203.733963 
L 169.917944 172.214246 
L 140.441495 207.840689 
L 104.869737 183.866532 
L 171.940092 180.736455 
L 142.47814 284.022215 
L 174.064958 182.566069 
L 249.238148 281.148829 
L 214.574181 216.536036 
L 188.382181 214.742671 
L 257.664835 145.68216 
L 259.843626 166.25367 
L 290.821515 170.404874 
L 322.064597 95.87485 
L 297.532327 96.579348 
L 325.281143 67.915936 
L 295.026774 64.860147 
L 183.764682 204.243318 
" style="fill:none;stroke:#1f77b4;stroke-linecap:square;stroke-width:1.5;"/>
   </g>
   <g id="patch_59">
    <path d="M 84.096 307.584 
L 84.096 41.472 
" style="fill:none;stroke:#000000;stroke-linecap:square;stroke-linejoin:miter;stroke-width:0.8;"/>
   </g>
   <g id="patch_60">
    <path d="M 388.224 307.584 
L 388.224 41.472 
" style="fill:none;stroke:#000000;stroke-linecap:square;stroke-linejoin:miter;stroke-width:0.8;"/>
   </g>
   <g id="patch_61">
    <path d="M 84.096 307.584 
L 388.224 307.584 
" style="fill:none;stroke:#000000;stroke-linecap:square;stroke-linejoin:miter;stroke-width:0.8;"/>
   </g>
   <g id="patch_62">
    <path d="M 84.096 41.472 
L 388.224 41.472 
" style="fill:none;stroke:#000000;stroke-linecap:square;stroke-linejoin:miter;stroke-width:0.8;"/>
   </g>
  </g>
 </g>
 <defs>
  <clipPath id="p87dc7af0d1">
   <rect height="266.112" width="304.128" x="84.096" y="41.472"/>
  </clipPath>
 </defs>
</svg>
