<?xml version="1.0" encoding="utf-8" standalone="no"?>
<!DOCTYPE svg PUBLIC "-//W3C//DTD SVG 1.1//EN"
  "http://www.w3.org/Graphics/SVG/1.1/DTD/svg11.dtd">
<!-- Created with matplotlib (http://matplotlib.org/) -->
<svg height="345.6pt" version="1.1" viewBox="0 0 460.8 345.6" width="460.8pt" xmlns="http://www.w3.org/2000/svg" xmlns:xlink="http://www.w3.org/1999/xlink">
 <defs>
  <style type="text/css">
*{stroke-linecap:butt;stroke-linejoin:round;}
  </style>
 </defs>
 <g id="figure_1">
  <g id="patch_1">
   <path d="M 0 345.6 
L 460.8 345.6 
L 460.8 0 
L 0 0 
z
" style="fill:#ffffff;"/>
  </g>
  <g id="axes_1">
   <g id="patch_2">
    <path d="M 57.6 263.808 
L 414.72 263.808 
L 414.72 85.248 
L 57.6 85.248 
z
" style="fill:#ffffff;"/>
   </g>
   <g id="PathCollection_1">
    <defs>
     <path d="M 0 3 
C 0.795609 3 1.55874 2.683901 2.12132 2.12132 
C 2.683901 1.55874 3 0.795609 3 0 
C 3 -0.795609 2.683901 -1.55874 2.12132 -2.12132 
C 1.55874 -2.683901 0.795609 -3 0 -3 
C -0.795609 -3 -1.55874 -2.683901 -2.12132 -2.12132 
C -2.683901 -1.55874 -3 -0.795609 -3 0 
C -3 0.795609 -2.683901 1.55874 -2.12132 2.12132 
C -1.55874 2.683901 -0.795609 3 0 3 
z
" id="m7323f30cf9" style="stroke:#000000;"/>
    </defs>
    <g clip-path="url(#p813daa04f4)">
     <use style="stroke:#000000;" x="140.5038" xlink:href="#m7323f30cf9" y="205.094449"/>
    </g>
   </g>
   <g id="patch_3">
    <path clip-path="url(#p813daa04f4)" d="M 161.76 211.728 
C 171.625555 211.728 181.088371 207.808373 188.064372 200.832372 
C 195.040373 193.856371 198.96 184.393555 198.96 174.528 
C 198.96 164.662445 195.040373 155.199629 188.064372 148.223628 
C 181.088371 141.247627 171.625555 137.328 161.76 137.328 
C 151.894445 137.328 142.431629 141.247627 135.455628 148.223628 
C 128.479627 155.199629 124.56 164.662445 124.56 174.528 
C 124.56 184.393555 128.479627 193.856371 135.455628 200.832372 
C 142.431629 207.808373 151.894445 211.728 161.76 211.728 
z
" style="fill:#cc0000;fill-opacity:0.1;stroke:#cc0000;stroke-dasharray:7.4,3.2;stroke-dashoffset:0;stroke-linejoin:miter;stroke-width:2;"/>
   </g>
   <g id="patch_4">
    <path clip-path="url(#p813daa04f4)" d="M 310.56 196.848 
C 316.479333 196.848 322.157023 194.496224 326.342623 190.310623 
C 330.528224 186.125023 332.88 180.447333 332.88 174.528 
C 332.88 168.608667 330.528224 162.930977 326.342623 158.745377 
C 322.157023 154.559776 316.479333 152.208 310.56 152.208 
C 304.640667 152.208 298.962977 154.559776 294.777377 158.745377 
C 290.591776 162.930977 288.24 168.608667 288.24 174.528 
C 288.24 180.447333 290.591776 186.125023 294.777377 190.310623 
C 298.962977 194.496224 304.640667 196.848 310.56 196.848 
z
" style="fill:#cc0000;fill-opacity:0.1;stroke:#cc0000;stroke-dasharray:7.4,3.2;stroke-dashoffset:0;stroke-linejoin:miter;stroke-width:2;"/>
   </g>
   <g id="matplotlib.axis_1">
    <g id="xtick_1">
     <g id="line2d_1">
      <defs>
       <path d="M 0 0 
L 0 3.5 
" id="m155e9e3734" style="stroke:#000000;stroke-width:0.8;"/>
      </defs>
      <g>
       <use style="stroke:#000000;stroke-width:0.8;" x="87.36" xlink:href="#m155e9e3734" y="263.808"/>
      </g>
     </g>
     <g id="text_1">
      <!-- 0.0 -->
      <defs>
       <path d="M 31.78125 66.40625 
Q 24.171875 66.40625 20.328125 58.90625 
Q 16.5 51.421875 16.5 36.375 
Q 16.5 21.390625 20.328125 13.890625 
Q 24.171875 6.390625 31.78125 6.390625 
Q 39.453125 6.390625 43.28125 13.890625 
Q 47.125 21.390625 47.125 36.375 
Q 47.125 51.421875 43.28125 58.90625 
Q 39.453125 66.40625 31.78125 66.40625 
z
M 31.78125 74.21875 
Q 44.046875 74.21875 50.515625 64.515625 
Q 56.984375 54.828125 56.984375 36.375 
Q 56.984375 17.96875 50.515625 8.265625 
Q 44.046875 -1.421875 31.78125 -1.421875 
Q 19.53125 -1.421875 13.0625 8.265625 
Q 6.59375 17.96875 6.59375 36.375 
Q 6.59375 54.828125 13.0625 64.515625 
Q 19.53125 74.21875 31.78125 74.21875 
z
" id="DejaVuSans-30"/>
       <path d="M 10.6875 12.40625 
L 21 12.40625 
L 21 0 
L 10.6875 0 
z
" id="DejaVuSans-2e"/>
      </defs>
      <g transform="translate(79.408438 278.406437)scale(0.1 -0.1)">
       <use xlink:href="#DejaVuSans-30"/>
       <use x="63.623047" xlink:href="#DejaVuSans-2e"/>
       <use x="95.410156" xlink:href="#DejaVuSans-30"/>
      </g>
     </g>
    </g>
    <g id="xtick_2">
     <g id="line2d_2">
      <g>
       <use style="stroke:#000000;stroke-width:0.8;" x="161.76" xlink:href="#m155e9e3734" y="263.808"/>
      </g>
     </g>
     <g id="text_2">
      <!-- 0.5 -->
      <defs>
       <path d="M 10.796875 72.90625 
L 49.515625 72.90625 
L 49.515625 64.59375 
L 19.828125 64.59375 
L 19.828125 46.734375 
Q 21.96875 47.46875 24.109375 47.828125 
Q 26.265625 48.1875 28.421875 48.1875 
Q 40.625 48.1875 47.75 41.5 
Q 54.890625 34.8125 54.890625 23.390625 
Q 54.890625 11.625 47.5625 5.09375 
Q 40.234375 -1.421875 26.90625 -1.421875 
Q 22.3125 -1.421875 17.546875 -0.640625 
Q 12.796875 0.140625 7.71875 1.703125 
L 7.71875 11.625 
Q 12.109375 9.234375 16.796875 8.0625 
Q 21.484375 6.890625 26.703125 6.890625 
Q 35.15625 6.890625 40.078125 11.328125 
Q 45.015625 15.765625 45.015625 23.390625 
Q 45.015625 31 40.078125 35.4375 
Q 35.15625 39.890625 26.703125 39.890625 
Q 22.75 39.890625 18.8125 39.015625 
Q 14.890625 38.140625 10.796875 36.28125 
z
" id="DejaVuSans-35"/>
      </defs>
      <g transform="translate(153.808437 278.406437)scale(0.1 -0.1)">
       <use xlink:href="#DejaVuSans-30"/>
       <use x="63.623047" xlink:href="#DejaVuSans-2e"/>
       <use x="95.410156" xlink:href="#DejaVuSans-35"/>
      </g>
     </g>
    </g>
    <g id="xtick_3">
     <g id="line2d_3">
      <g>
       <use style="stroke:#000000;stroke-width:0.8;" x="236.16" xlink:href="#m155e9e3734" y="263.808"/>
      </g>
     </g>
     <g id="text_3">
      <!-- 1.0 -->
      <defs>
       <path d="M 12.40625 8.296875 
L 28.515625 8.296875 
L 28.515625 63.921875 
L 10.984375 60.40625 
L 10.984375 69.390625 
L 28.421875 72.90625 
L 38.28125 72.90625 
L 38.28125 8.296875 
L 54.390625 8.296875 
L 54.390625 0 
L 12.40625 0 
z
" id="DejaVuSans-31"/>
      </defs>
      <g transform="translate(228.208437 278.406437)scale(0.1 -0.1)">
       <use xlink:href="#DejaVuSans-31"/>
       <use x="63.623047" xlink:href="#DejaVuSans-2e"/>
       <use x="95.410156" xlink:href="#DejaVuSans-30"/>
      </g>
     </g>
    </g>
    <g id="xtick_4">
     <g id="line2d_4">
      <g>
       <use style="stroke:#000000;stroke-width:0.8;" x="310.56" xlink:href="#m155e9e3734" y="263.808"/>
      </g>
     </g>
     <g id="text_4">
      <!-- 1.5 -->
      <g transform="translate(302.608437 278.406437)scale(0.1 -0.1)">
       <use xlink:href="#DejaVuSans-31"/>
       <use x="63.623047" xlink:href="#DejaVuSans-2e"/>
       <use x="95.410156" xlink:href="#DejaVuSans-35"/>
      </g>
     </g>
    </g>
    <g id="xtick_5">
     <g id="line2d_5">
      <g>
       <use style="stroke:#000000;stroke-width:0.8;" x="384.96" xlink:href="#m155e9e3734" y="263.808"/>
      </g>
     </g>
     <g id="text_5">
      <!-- 2.0 -->
      <defs>
       <path d="M 19.1875 8.296875 
L 53.609375 8.296875 
L 53.609375 0 
L 7.328125 0 
L 7.328125 8.296875 
Q 12.9375 14.109375 22.625 23.890625 
Q 32.328125 33.6875 34.8125 36.53125 
Q 39.546875 41.84375 41.421875 45.53125 
Q 43.3125 49.21875 43.3125 52.78125 
Q 43.3125 58.59375 39.234375 62.25 
Q 35.15625 65.921875 28.609375 65.921875 
Q 23.96875 65.921875 18.8125 64.3125 
Q 13.671875 62.703125 7.8125 59.421875 
L 7.8125 69.390625 
Q 13.765625 71.78125 18.9375 73 
Q 24.125 74.21875 28.421875 74.21875 
Q 39.75 74.21875 46.484375 68.546875 
Q 53.21875 62.890625 53.21875 53.421875 
Q 53.21875 48.921875 51.53125 44.890625 
Q 49.859375 40.875 45.40625 35.40625 
Q 44.1875 33.984375 37.640625 27.21875 
Q 31.109375 20.453125 19.1875 8.296875 
z
" id="DejaVuSans-32"/>
      </defs>
      <g transform="translate(377.008437 278.406437)scale(0.1 -0.1)">
       <use xlink:href="#DejaVuSans-32"/>
       <use x="63.623047" xlink:href="#DejaVuSans-2e"/>
       <use x="95.410156" xlink:href="#DejaVuSans-30"/>
      </g>
     </g>
    </g>
   </g>
   <g id="matplotlib.axis_2">
    <g id="ytick_1">
     <g id="line2d_6">
      <defs>
       <path d="M 0 0 
L -3.5 0 
" id="m07a2717193" style="stroke:#000000;stroke-width:0.8;"/>
      </defs>
      <g>
       <use style="stroke:#000000;stroke-width:0.8;" x="57.6" xlink:href="#m07a2717193" y="248.928"/>
      </g>
     </g>
     <g id="text_6">
      <!-- 0.0 -->
      <g transform="translate(34.696875 252.727219)scale(0.1 -0.1)">
       <use xlink:href="#DejaVuSans-30"/>
       <use x="63.623047" xlink:href="#DejaVuSans-2e"/>
       <use x="95.410156" xlink:href="#DejaVuSans-30"/>
      </g>
     </g>
    </g>
    <g id="ytick_2">
     <g id="line2d_7">
      <g>
       <use style="stroke:#000000;stroke-width:0.8;" x="57.6" xlink:href="#m07a2717193" y="219.168"/>
      </g>
     </g>
     <g id="text_7">
      <!-- 0.2 -->
      <g transform="translate(34.696875 222.967219)scale(0.1 -0.1)">
       <use xlink:href="#DejaVuSans-30"/>
       <use x="63.623047" xlink:href="#DejaVuSans-2e"/>
       <use x="95.410156" xlink:href="#DejaVuSans-32"/>
      </g>
     </g>
    </g>
    <g id="ytick_3">
     <g id="line2d_8">
      <g>
       <use style="stroke:#000000;stroke-width:0.8;" x="57.6" xlink:href="#m07a2717193" y="189.408"/>
      </g>
     </g>
     <g id="text_8">
      <!-- 0.4 -->
      <defs>
       <path d="M 37.796875 64.3125 
L 12.890625 25.390625 
L 37.796875 25.390625 
z
M 35.203125 72.90625 
L 47.609375 72.90625 
L 47.609375 25.390625 
L 58.015625 25.390625 
L 58.015625 17.1875 
L 47.609375 17.1875 
L 47.609375 0 
L 37.796875 0 
L 37.796875 17.1875 
L 4.890625 17.1875 
L 4.890625 26.703125 
z
" id="DejaVuSans-34"/>
      </defs>
      <g transform="translate(34.696875 193.207219)scale(0.1 -0.1)">
       <use xlink:href="#DejaVuSans-30"/>
       <use x="63.623047" xlink:href="#DejaVuSans-2e"/>
       <use x="95.410156" xlink:href="#DejaVuSans-34"/>
      </g>
     </g>
    </g>
    <g id="ytick_4">
     <g id="line2d_9">
      <g>
       <use style="stroke:#000000;stroke-width:0.8;" x="57.6" xlink:href="#m07a2717193" y="159.648"/>
      </g>
     </g>
     <g id="text_9">
      <!-- 0.6 -->
      <defs>
       <path d="M 33.015625 40.375 
Q 26.375 40.375 22.484375 35.828125 
Q 18.609375 31.296875 18.609375 23.390625 
Q 18.609375 15.53125 22.484375 10.953125 
Q 26.375 6.390625 33.015625 6.390625 
Q 39.65625 6.390625 43.53125 10.953125 
Q 47.40625 15.53125 47.40625 23.390625 
Q 47.40625 31.296875 43.53125 35.828125 
Q 39.65625 40.375 33.015625 40.375 
z
M 52.59375 71.296875 
L 52.59375 62.3125 
Q 48.875 64.0625 45.09375 64.984375 
Q 41.3125 65.921875 37.59375 65.921875 
Q 27.828125 65.921875 22.671875 59.328125 
Q 17.53125 52.734375 16.796875 39.40625 
Q 19.671875 43.65625 24.015625 45.921875 
Q 28.375 48.1875 33.59375 48.1875 
Q 44.578125 48.1875 50.953125 41.515625 
Q 57.328125 34.859375 57.328125 23.390625 
Q 57.328125 12.15625 50.6875 5.359375 
Q 44.046875 -1.421875 33.015625 -1.421875 
Q 20.359375 -1.421875 13.671875 8.265625 
Q 6.984375 17.96875 6.984375 36.375 
Q 6.984375 53.65625 15.1875 63.9375 
Q 23.390625 74.21875 37.203125 74.21875 
Q 40.921875 74.21875 44.703125 73.484375 
Q 48.484375 72.75 52.59375 71.296875 
z
" id="DejaVuSans-36"/>
      </defs>
      <g transform="translate(34.696875 163.447219)scale(0.1 -0.1)">
       <use xlink:href="#DejaVuSans-30"/>
       <use x="63.623047" xlink:href="#DejaVuSans-2e"/>
       <use x="95.410156" xlink:href="#DejaVuSans-36"/>
      </g>
     </g>
    </g>
    <g id="ytick_5">
     <g id="line2d_10">
      <g>
       <use style="stroke:#000000;stroke-width:0.8;" x="57.6" xlink:href="#m07a2717193" y="129.888"/>
      </g>
     </g>
     <g id="text_10">
      <!-- 0.8 -->
      <defs>
       <path d="M 31.78125 34.625 
Q 24.75 34.625 20.71875 30.859375 
Q 16.703125 27.09375 16.703125 20.515625 
Q 16.703125 13.921875 20.71875 10.15625 
Q 24.75 6.390625 31.78125 6.390625 
Q 38.8125 6.390625 42.859375 10.171875 
Q 46.921875 13.96875 46.921875 20.515625 
Q 46.921875 27.09375 42.890625 30.859375 
Q 38.875 34.625 31.78125 34.625 
z
M 21.921875 38.8125 
Q 15.578125 40.375 12.03125 44.71875 
Q 8.5 49.078125 8.5 55.328125 
Q 8.5 64.0625 14.71875 69.140625 
Q 20.953125 74.21875 31.78125 74.21875 
Q 42.671875 74.21875 48.875 69.140625 
Q 55.078125 64.0625 55.078125 55.328125 
Q 55.078125 49.078125 51.53125 44.71875 
Q 48 40.375 41.703125 38.8125 
Q 48.828125 37.15625 52.796875 32.3125 
Q 56.78125 27.484375 56.78125 20.515625 
Q 56.78125 9.90625 50.3125 4.234375 
Q 43.84375 -1.421875 31.78125 -1.421875 
Q 19.734375 -1.421875 13.25 4.234375 
Q 6.78125 9.90625 6.78125 20.515625 
Q 6.78125 27.484375 10.78125 32.3125 
Q 14.796875 37.15625 21.921875 38.8125 
z
M 18.3125 54.390625 
Q 18.3125 48.734375 21.84375 45.5625 
Q 25.390625 42.390625 31.78125 42.390625 
Q 38.140625 42.390625 41.71875 45.5625 
Q 45.3125 48.734375 45.3125 54.390625 
Q 45.3125 60.0625 41.71875 63.234375 
Q 38.140625 66.40625 31.78125 66.40625 
Q 25.390625 66.40625 21.84375 63.234375 
Q 18.3125 60.0625 18.3125 54.390625 
z
" id="DejaVuSans-38"/>
      </defs>
      <g transform="translate(34.696875 133.687219)scale(0.1 -0.1)">
       <use xlink:href="#DejaVuSans-30"/>
       <use x="63.623047" xlink:href="#DejaVuSans-2e"/>
       <use x="95.410156" xlink:href="#DejaVuSans-38"/>
      </g>
     </g>
    </g>
    <g id="ytick_6">
     <g id="line2d_11">
      <g>
       <use style="stroke:#000000;stroke-width:0.8;" x="57.6" xlink:href="#m07a2717193" y="100.128"/>
      </g>
     </g>
     <g id="text_11">
      <!-- 1.0 -->
      <g transform="translate(34.696875 103.927219)scale(0.1 -0.1)">
       <use xlink:href="#DejaVuSans-31"/>
       <use x="63.623047" xlink:href="#DejaVuSans-2e"/>
       <use x="95.410156" xlink:href="#DejaVuSans-30"/>
      </g>
     </g>
    </g>
   </g>
   <g id="line2d_12">
    <path clip-path="url(#p813daa04f4)" d="M 236.16 248.928 
L 236.16 100.128 
" style="fill:none;stroke:#cc0000;stroke-dasharray:7.4,3.2;stroke-dashoffset:0;stroke-width:2;"/>
   </g>
   <g id="line2d_13">
    <path clip-path="url(#p813daa04f4)" d="M 87.36 248.928 
L 384.96 248.928 
" style="fill:none;stroke:#009900;stroke-linecap:square;stroke-width:2;"/>
   </g>
   <g id="line2d_14">
    <path clip-path="url(#p813daa04f4)" d="M 384.96 248.928 
L 384.96 100.128 
" style="fill:none;stroke:#009900;stroke-linecap:square;stroke-width:2;"/>
   </g>
   <g id="line2d_15">
    <path clip-path="url(#p813daa04f4)" d="M 384.96 100.128 
L 87.36 100.128 
" style="fill:none;stroke:#009900;stroke-linecap:square;stroke-width:2;"/>
   </g>
   <g id="line2d_16">
    <path clip-path="url(#p813daa04f4)" d="M 87.36 100.128 
L 87.36 248.928 
" style="fill:none;stroke:#009900;stroke-linecap:square;stroke-width:2;"/>
   </g>
   <g id="line2d_17">
    <path clip-path="url(#p813daa04f4)" d="M 140.5038 205.094449 
L 135.505092 201.864202 
L 130.381206 198.836433 
L 125.140341 196.015988 
L 119.790881 193.407377 
L 114.341382 191.014774 
L 108.800565 188.842006 
L 103.177291 186.892551 
L 97.480558 185.169525 
L 91.71948 183.675687 
L 87.36 182.706753 
L 93.163313 181.386472 
L 98.909186 179.835177 
L 104.588429 178.055348 
L 110.191954 176.049834 
L 115.710798 173.821844 
L 121.136131 171.37494 
L 124.898472 169.521233 
L 120.431429 165.588407 
L 115.810689 161.837362 
L 111.043644 158.274097 
L 106.137918 154.904314 
L 101.101362 151.733402 
L 95.942031 148.766436 
L 90.668181 146.008161 
L 87.36 144.411993 
L 92.700326 141.784733 
L 97.931319 138.946019 
L 103.044609 135.900391 
L 108.032016 132.652723 
L 112.885562 129.208209 
L 117.597481 125.57236 
L 122.160236 121.750993 
L 126.566528 117.750222 
L 130.809307 113.576446 
L 134.881786 109.236342 
L 138.777449 104.736854 
L 142.457258 100.128 
L 146.171559 104.778327 
L 150.068853 109.276402 
L 154.142905 113.615029 
L 158.387197 117.787267 
L 162.794939 121.786441 
L 167.359079 125.606154 
L 172.072316 129.240294 
L 176.92711 132.683048 
L 181.915694 135.928908 
L 187.030088 138.972682 
L 192.262109 141.8095 
L 197.603388 144.434823 
L 203.045379 146.844453 
L 208.579376 149.034533 
L 214.196527 151.001561 
L 219.887845 152.742389 
L 225.644225 154.254233 
L 231.456458 155.534674 
L 236.16 156.394317 
L 243.581663 156.913575 
L 251.013988 157.247148 
L 258.452328 157.394828 
L 265.892036 157.356522 
L 273.328461 157.132256 
L 280.756957 156.722168 
L 288.17288 156.126515 
L 295.571596 155.34567 
L 300.190271 154.763104 
L 305.125189 149.195581 
L 309.91939 143.506438 
L 314.56988 137.69923 
L 319.073752 131.777587 
L 323.42819 125.745209 
L 327.630475 119.605867 
L 331.677978 113.363397 
L 335.568171 107.0217 
L 339.555219 100.128 
L 343.274333 106.571516 
L 347.153357 112.920051 
L 351.189865 119.169637 
L 355.381335 125.316367 
L 359.725148 131.356401 
L 364.218588 137.285964 
L 368.858848 143.101349 
L 373.643027 148.798922 
L 378.568136 154.375124 
L 383.631097 159.826467 
L 384.96 161.212932 
L 379.861966 166.63149 
L 374.900976 172.175792 
L 370.080128 177.842374 
L 365.402437 183.627694 
L 360.870826 189.528135 
L 356.488126 195.540012 
L 352.257077 201.659566 
L 348.180323 207.882973 
L 344.260412 214.206343 
L 340.499793 220.625726 
L 336.900818 227.137107 
L 333.465735 233.736419 
L 330.19669 240.419538 
L 327.095728 247.182285 
L 326.328199 248.928 
L 323.270636 242.145521 
L 320.044483 235.441592 
L 316.651758 228.820404 
L 313.094581 222.286094 
L 309.375174 215.842747 
L 305.495863 209.494388 
L 301.459071 203.244985 
L 297.267323 197.098445 
L 292.923236 191.058608 
L 288.429527 185.129249 
L 283.789003 179.314074 
L 279.004566 173.616718 
L 274.079204 168.04074 
L 269.015996 162.589625 
L 263.818107 157.266782 
L 258.488785 152.075535 
L 253.031361 147.019129 
L 247.449245 142.100725 
L 241.745926 137.323396 
L 236.16 132.872641 
L 234.576838 127.135466 
L 232.765517 121.466189 
L 230.728935 115.873881 
L 228.470348 110.367487 
L 225.993371 104.955818 
L 223.556654 100.128 
L 220.884667 105.446089 
L 218.427484 110.866774 
L 216.189036 116.381385 
L 214.172904 121.981099 
L 212.382314 127.656957 
L 210.82013 133.39988 
L 209.488851 139.200679 
L 208.390607 145.050076 
L 207.527155 150.938712 
L 206.899876 156.857166 
L 206.509774 162.795971 
L 206.357473 168.745625 
L 206.443216 174.69661 
L 206.766867 180.639407 
L 207.327908 186.564507 
L 208.12544 192.462433 
L 209.158189 198.323747 
L 210.424502 204.139075 
L 211.922353 209.899112 
L 213.649345 215.594643 
L 215.602717 221.216557 
L 217.779343 226.75586 
L 220.175741 232.203691 
L 222.788077 237.551333 
L 225.612172 242.790233 
L 228.643509 247.912008 
L 229.278269 248.928 
L 232.350742 243.830796 
L 235.216923 238.614803 
L 236.16 236.783409 
L 233.3663 231.528238 
L 230.364685 226.388989 
L 227.159955 221.373883 
L 223.757237 216.490944 
L 220.161976 211.747983 
L 216.379923 207.152588 
L 212.417129 202.71211 
L 208.279932 198.433654 
L 203.974953 194.324064 
L 199.509077 190.389915 
L 196.476526 187.892236 
L 192.67522 185.553136 
L 189.021015 182.990305 
L 185.527064 180.212964 
L 182.20594 177.231109 
L 179.069597 174.055472 
L 176.129321 170.697482 
L 173.395695 167.169224 
L 170.878556 163.483396 
L 168.586964 159.653262 
L 166.529165 155.692607 
L 164.712567 151.615686 
L 163.143705 147.437171 
L 161.828228 143.172099 
L 160.770868 138.835821 
L 160.471307 137.350328 
L 159.806495 141.763869 
L 158.878226 146.129604 
L 157.689841 150.431819 
L 156.245616 154.655033 
L 154.550749 158.784045 
L 152.611339 162.803996 
L 150.434367 166.700419 
L 148.027667 170.459291 
L 145.399901 174.067083 
L 142.560526 177.510812 
L 139.519761 180.778083 
L 136.288548 183.857139 
L 132.878518 186.736898 
L 129.301942 189.406996 
L 128.052179 190.264035 
L 132.373857 189.148501 
L 136.75465 188.294119 
L 141.178793 187.703965 
L 145.630362 187.380162 
L 150.093338 187.323875 
L 154.551657 187.535308 
L 158.989276 188.013699 
L 163.390224 188.757326 
L 167.738661 189.763514 
L 172.018938 191.028641 
L 176.215651 192.548154 
L 180.313696 194.316584 
L 184.298324 196.327567 
L 188.155196 198.573866 
L 189.43299 199.388524 
L 186.715072 195.848151 
L 184.21434 192.151171 
L 181.939794 188.31089 
L 179.899619 184.341129 
L 178.101158 180.256174 
L 176.550884 176.070726 
L 175.254376 171.79985 
L 174.216299 167.458915 
L 173.440391 163.063544 
L 172.929442 158.629556 
L 172.685293 154.172908 
L 172.708821 149.70964 
L 172.999943 145.255814 
L 173.55761 140.827459 
L 173.807199 139.332759 
L 171.61293 143.219468 
L 169.189548 146.967605 
L 166.545773 150.563683 
L 163.69112 153.994758 
L 160.635863 157.248482 
L 157.390997 160.313146 
L 153.968201 163.17772 
L 150.379793 165.831895 
L 146.638687 168.266119 
L 142.758347 170.47163 
L 138.752738 172.440492 
L 134.636277 174.165619 
L 130.423777 175.640802 
L 126.1304 176.860732 
L 124.657244 177.216029 
L 129.092693 177.714139 
L 133.490291 178.477319 
L 137.834214 179.502824 
L 142.108825 180.786962 
L 146.298743 182.325113 
L 150.388888 184.11174 
L 154.364539 186.140413 
L 158.211389 188.403832 
L 161.915593 190.89385 
L 165.46382 193.601507 
L 168.8433 196.517057 
L 172.041871 199.630008 
L 175.048021 202.929157 
L 177.850931 206.402629 
L 178.754433 207.619226 
L 177.47692 203.342629 
L 176.458147 198.997124 
L 175.701782 194.598348 
L 175.210545 190.162133 
L 174.986206 185.704444 
L 175.029572 181.241324 
L 175.340486 176.788836 
L 175.91783 172.363003 
L 176.759525 167.979755 
L 177.862543 163.654865 
L 179.222914 159.403899 
L 180.835742 155.242156 
L 182.695222 151.184614 
L 184.794663 147.245875 
L 185.560615 145.938304 
L 182.125121 148.787637 
L 178.524952 151.425837 
L 174.773064 153.843409 
L 170.88296 156.031652 
L 166.86864 157.982692 
L 162.744551 159.689506 
L 158.525537 161.145951 
L 154.22678 162.346787 
L 149.863751 163.287691 
L 145.452154 163.965278 
L 141.007863 164.377108 
L 136.546876 164.5217 
L 132.085245 164.398533 
L 127.639028 164.00805 
L 126.135988 163.814934 
L 130.102584 165.861258 
L 133.939335 168.141752 
L 137.632436 170.648209 
L 141.168593 173.371609 
L 144.535082 176.302151 
L 147.719785 179.429288 
L 150.711242 182.741764 
L 153.498687 186.22766 
L 156.072087 189.87443 
L 158.422182 193.668949 
L 160.540513 197.597561 
L 162.419458 201.646127 
L 164.052252 205.800077 
L 165.433022 210.04446 
L 165.843551 211.503189 
L 168.369444 216.892201 
L 171.108819 222.175893 
L 174.057294 227.345814 
L 177.210152 232.393691 
L 180.562349 237.31145 
L 184.108523 242.091223 
L 187.843001 246.725364 
L 189.728768 248.928 
L 193.552836 244.367508 
L 197.191474 239.657742 
L 200.63886 234.806237 
L 203.889481 229.820753 
L 206.938136 224.709268 
L 209.779947 219.479957 
L 212.410368 214.141187 
L 214.825192 208.701499 
L 217.020554 203.169594 
L 218.992943 197.554324 
L 220.739203 191.864671 
L 222.256542 186.109737 
L 223.54253 180.298729 
L 224.595111 174.440943 
L 225.412602 168.545751 
L 225.993694 162.622583 
L 226.337457 156.680916 
L 226.443343 150.730255 
L 226.31118 144.780119 
L 225.941181 138.840028 
L 225.333938 132.919485 
L 224.490422 127.02796 
L 223.411983 121.17488 
L 222.100346 115.369607 
L 220.557608 109.62143 
L 218.786239 103.939544 
L 217.456054 100.128 
L 215.5312 105.759742 
L 213.833095 111.463953 
L 212.364456 117.231507 
L 211.127632 123.053177 
L 210.124603 128.919651 
L 209.356972 134.821543 
L 208.825968 140.74941 
L 208.53244 146.693771 
L 208.476858 152.645114 
L 208.659311 158.59392 
L 209.079506 164.530672 
L 209.736772 170.445871 
L 210.630058 176.330055 
L 211.757933 182.17381 
L 213.118594 187.967789 
L 214.709864 193.70272 
L 216.529197 199.369431 
L 218.573683 204.958854 
L 220.840051 210.462049 
L 223.324676 215.870212 
L 226.023581 221.17469 
L 228.93245 226.366998 
L 232.04663 231.438829 
L 235.361137 236.382069 
L 236.16 237.512234 
L 232.799659 242.424432 
L 229.638441 247.467079 
L 228.774085 248.928 
L 225.670597 243.84962 
L 222.366511 238.899408 
L 218.867112 234.085285 
L 215.177998 229.414951 
L 211.305072 224.895877 
L 207.254529 220.535295 
L 203.032849 216.340179 
L 198.646786 212.31724 
L 194.103357 208.472915 
L 189.40983 204.813354 
L 186.259885 202.520778 
L 189.129799 207.734719 
L 192.205919 212.829722 
L 195.483325 217.797639 
L 198.956772 222.63052 
L 202.620705 227.320635 
L 206.469262 231.86048 
L 210.496286 236.242792 
L 214.695334 240.460561 
L 219.059689 244.507039 
L 223.582369 248.375753 
L 224.258773 248.928 
L 228.804079 245.085894 
L 233.192105 241.065097 
L 236.16 238.154079 
L 242.991046 235.206618 
L 249.746279 232.08932 
L 256.421476 228.804133 
L 263.012467 225.353109 
L 269.515131 221.738407 
L 275.925405 217.962284 
L 282.239283 214.027101 
L 288.452818 209.935317 
L 294.562128 205.68949 
L 300.563394 201.292272 
L 306.740035 196.518686 
L 310.743726 202.789346 
L 314.902915 208.957965 
L 319.215005 215.020688 
L 323.677299 220.973724 
L 328.287009 226.813355 
L 333.041254 232.535931 
L 337.937063 238.137874 
L 342.971376 243.615685 
L 348.103468 248.928 
L 353.272179 243.576818 
L 358.305509 238.098105 
L 363.200313 232.495283 
L 367.953531 226.771855 
L 372.562193 220.931397 
L 377.023419 214.977559 
L 381.33442 208.914063 
L 384.96 203.553615 
L 380.781863 197.397814 
L 376.451153 191.348379 
L 371.970575 185.409091 
L 367.342931 179.583661 
L 362.571113 173.875731 
L 357.658102 168.288868 
L 352.60697 162.826563 
L 347.420872 157.492229 
L 342.103051 152.289202 
L 336.656829 147.220732 
L 331.085611 142.289988 
L 325.392877 137.50005 
L 319.582187 132.853913 
L 313.657171 128.354479 
L 307.621532 124.004561 
L 301.479043 119.806878 
L 295.233542 115.764053 
L 288.888933 111.878613 
L 282.44918 108.152985 
L 275.918308 104.589498 
L 269.3004 101.19038 
L 267.145026 100.128 
L 260.499888 103.473571 
L 253.940456 106.984209 
L 247.470831 110.657717 
L 241.095055 114.491802 
L 236.16 117.611483 
L 242.459334 121.569906 
L 248.855649 125.369625 
L 255.344949 129.008266 
L 261.923177 132.483554 
L 268.586223 135.793317 
L 275.329923 138.935488 
L 282.150061 141.908101 
L 289.042376 144.7093 
L 296.002559 147.337334 
L 303.026262 149.79056 
L 310.567159 152.208001 
L 317.6551 149.947069 
L 324.684308 147.509663 
L 331.650391 144.897307 
L 338.548996 142.111634 
L 345.37581 139.154384 
L 352.126567 136.027405 
L 358.797048 132.732652 
L 365.383084 129.272184 
L 371.88056 125.648163 
L 378.285415 121.862855 
L 384.96 117.682762 
L 378.657551 113.729301 
L 372.258246 109.93462 
L 365.766083 106.30109 
L 359.18512 102.830983 
L 353.764522 100.128 
L 347.114297 103.463451 
L 340.549529 106.964097 
L 334.074318 110.627752 
L 327.692713 114.452126 
L 321.408702 118.434828 
L 315.226211 122.573369 
L 309.149105 126.865164 
L 303.181181 131.307529 
L 297.32617 135.897688 
L 291.587731 140.632773 
L 285.96945 145.509825 
L 280.474837 150.525795 
L 275.107328 155.677548 
L 269.870277 160.961865 
L 264.766956 166.375444 
L 259.800556 171.914901 
L 254.974179 177.576774 
L 250.290843 183.357525 
L 245.753473 189.25354 
L 241.364907 195.261135 
L 237.127886 201.376556 
L 236.16 202.820606 
L 240.361226 208.960672 
L 244.714624 214.993801 
L 249.217475 220.91622 
L 253.866964 226.724229 
L 258.660185 232.414198 
L 263.594142 237.982572 
L 268.665753 243.425869 
L 274.060141 248.928 
L 279.270976 243.617829 
L 284.347442 238.179061 
L 289.286367 232.615093 
L 294.084665 226.929404 
L 298.739335 221.125546 
L 303.247469 215.207148 
L 307.60625 209.177907 
L 311.812954 203.041592 
L 316.310577 196.094485 
L 322.921677 199.506826 
L 329.616011 202.75284 
L 336.389395 205.830499 
L 343.237596 208.73788 
L 350.156334 211.473165 
L 357.141285 214.034644 
L 364.188083 216.420718 
L 371.292325 218.629894 
L 378.449571 220.660793 
L 384.96 222.341842 
L 377.758698 224.210522 
L 370.606358 226.258632 
L 363.507451 228.484891 
L 356.466413 230.88791 
L 349.487644 233.466185 
L 342.575506 236.218105 
L 335.734319 239.141951 
L 328.968358 242.235895 
L 322.281852 245.498004 
L 315.675688 248.928 
L 309.072859 245.499683 
L 302.386394 242.23749 
L 295.620472 239.143461 
L 288.779321 236.219529 
L 281.867218 233.467522 
L 274.888481 230.889159 
L 267.847473 228.486053 
L 260.748594 226.259704 
L 253.59628 224.211504 
L 246.395001 222.342734 
L 239.149258 220.654561 
L 236.16 220.013459 
L 230.660444 217.738275 
L 225.074303 215.684835 
L 219.410516 213.856423 
L 213.678141 212.255965 
L 207.886351 210.886021 
L 202.044411 209.748782 
L 196.161666 208.846069 
L 190.247527 208.179324 
L 184.311457 207.749616 
L 178.860452 207.564564 
L 175.599339 212.54319 
L 172.539926 217.648244 
L 169.687108 222.871558 
L 167.045449 228.204777 
L 164.619175 233.639367 
L 162.412167 239.166636 
L 160.427957 244.77774 
L 159.120101 248.928 
L 157.300811 243.261276 
L 155.256367 237.671837 
L 152.99004 232.168624 
L 150.505457 226.760443 
L 147.806591 221.455944 
L 144.897761 216.263615 
L 141.78362 211.19176 
L 138.46915 206.248496 
L 134.959653 201.441728 
L 131.260744 196.779148 
L 127.37834 192.268215 
L 123.318652 187.916144 
L 119.088175 183.729899 
L 114.693678 179.716177 
L 110.142189 175.881398 
L 105.44099 172.231697 
L 100.597603 168.772914 
L 95.619776 165.510581 
L 90.515472 162.449917 
L 87.36 160.693124 
L 92.537081 157.75724 
L 97.592617 154.616677 
L 102.51852 151.276459 
L 107.30691 147.741928 
L 111.950126 144.018741 
L 116.44074 140.112852 
L 120.771569 136.030512 
L 124.935683 131.778249 
L 128.926421 127.362868 
L 132.737398 122.791432 
L 136.362519 118.071254 
L 139.795983 113.209885 
L 143.032298 108.215103 
L 146.066286 103.094899 
L 147.700785 100.128 
L 150.617436 105.31594 
L 153.739216 110.383096 
L 157.061132 115.321361 
L 160.577868 120.122834 
L 164.283799 124.779835 
L 168.172997 129.284913 
L 172.239238 133.630861 
L 176.476018 137.810726 
L 180.876559 141.817822 
L 185.433822 145.645738 
L 190.140515 149.28835 
L 194.989108 152.739831 
L 199.971846 155.994659 
L 205.080757 159.047627 
L 210.307667 161.893851 
L 215.644214 164.528778 
L 221.081862 166.948192 
L 226.611912 169.148223 
L 232.225515 171.125351 
L 236.16 172.36305 
L 230.493755 174.183831 
L 224.904853 176.229745 
L 219.402237 178.497519 
L 213.994709 180.983524 
L 208.690921 183.683785 
L 203.499356 186.59398 
L 198.428321 189.709455 
L 194.385537 192.400167 
L 194.295918 198.351096 
L 194.444344 204.300848 
L 194.830579 210.239905 
L 195.454003 216.158767 
L 196.31362 222.047964 
L 197.408055 227.898074 
L 198.735556 233.69974 
L 200.294 239.443678 
L 202.080894 245.120702 
L 203.421275 248.928 
L 205.361492 243.301532 
L 207.075158 237.601977 
L 208.559533 231.838453 
L 209.81224 226.02018 
L 210.831277 220.156465 
L 211.615012 214.256691 
L 212.162193 208.330294 
L 212.471943 202.386757 
L 212.543767 196.435587 
L 212.377551 190.486306 
L 211.97356 184.54843 
L 211.33244 178.631459 
L 210.455217 172.744858 
L 209.343295 166.898047 
L 207.998452 161.100376 
L 206.42284 155.361123 
L 204.618979 149.689469 
L 202.589755 144.094486 
L 200.338415 138.585126 
L 197.86856 133.170202 
L 195.184142 127.858378 
L 192.289454 122.65815 
L 189.189129 117.577839 
L 185.888124 112.625572 
L 182.391723 107.809271 
L 178.705518 103.136641 
L 176.165387 100.128 
L 172.356836 104.701458 
L 168.734222 109.42356 
L 165.303338 114.28675 
L 162.069675 119.283249 
L 159.038405 124.405064 
L 156.214378 129.644 
L 153.602111 134.991676 
L 151.968801 138.639667 
L 147.092558 135.22736 
L 142.083761 132.01278 
L 136.950421 129.001069 
L 131.70075 126.197047 
L 126.343148 123.605198 
L 120.886185 121.229669 
L 115.338592 119.074261 
L 109.709242 117.142421 
L 104.007142 115.437241 
L 98.241415 113.961448 
L 92.421283 112.717403 
L 87.36 111.831326 
L 93.219614 110.788969 
L 99.032857 109.513124 
L 104.790431 108.005832 
L 110.483123 106.269504 
L 116.101827 104.306918 
L 121.637555 102.121214 
L 126.189329 100.128 
L 131.64899 102.497321 
L 137.199032 104.646419 
L 142.830575 106.571855 
L 148.53461 108.27055 
L 154.302012 109.739785 
L 160.123555 110.97721 
L 165.989925 111.980846 
L 171.891737 112.749087 
L 177.81955 113.280703 
L 183.76388 113.574846 
L 189.715218 113.631043 
L 195.664043 113.449205 
L 201.600837 113.029623 
L 207.516104 112.372968 
L 213.400381 111.480291 
L 219.244253 110.35302 
L 225.038372 108.992958 
L 230.773468 107.402281 
L 236.16 105.679428 
L 243.483853 104.371036 
L 250.772712 102.879976 
L 258.02202 101.207179 
L 262.307235 100.128 
L 269.530906 101.908253 
L 276.796821 103.507377 
L 284.100439 104.924373 
L 291.437196 106.158354 
L 298.802507 107.20855 
L 306.191769 108.074304 
L 313.600363 108.755075 
L 321.02366 109.250438 
L 328.457019 109.560083 
L 335.895797 109.683816 
L 343.335342 109.621561 
L 350.771007 109.373356 
L 358.198144 108.939356 
L 365.612111 108.319833 
L 373.008275 107.515174 
L 380.382013 106.525881 
L 384.96 105.816879 
L 377.602554 104.712927 
L 370.219812 103.793237 
L 362.816386 103.058384 
L 355.396905 102.508826 
L 347.966005 102.144908 
L 340.528329 101.966857 
L 333.088527 101.974784 
L 325.651248 102.168684 
L 318.22114 102.548437 
L 310.802847 103.113804 
L 303.401004 103.864432 
L 296.020238 104.799852 
L 288.665162 105.919481 
L 281.340371 107.222617 
L 274.050445 108.708446 
L 266.799938 110.376041 
L 259.593383 112.224358 
L 252.435283 114.252242 
L 245.330111 116.458427 
L 238.282308 118.841533 
L 236.16 119.59789 
L 243.189559 122.034285 
L 250.277825 124.294198 
L 257.420367 126.376216 
L 264.612723 128.279039 
L 271.850397 130.001477 
L 279.128866 131.542454 
L 286.443581 132.901006 
L 293.78997 134.076285 
L 301.163443 135.067557 
L 308.55939 135.874201 
L 315.973191 136.495713 
L 323.400211 136.931706 
L 330.835809 137.181906 
L 338.275338 137.246157 
L 345.714148 137.124419 
L 353.147591 136.816769 
L 360.57102 136.323398 
L 367.979796 135.644615 
L 375.36929 134.780844 
L 382.734883 133.732624 
L 384.96 133.378901 
L 377.602554 132.274949 
L 370.219812 131.355259 
L 362.816386 130.620405 
L 355.396905 130.070848 
L 347.966005 129.70693 
L 340.528329 129.528879 
L 333.088527 129.536806 
L 325.651248 129.730706 
L 318.22114 130.110458 
L 310.802847 130.675825 
L 303.401004 131.426454 
L 296.020238 132.361874 
L 288.665162 133.481502 
L 281.340371 134.784638 
L 274.050445 136.270468 
L 266.799938 137.938062 
L 259.593383 139.786379 
L 252.435283 141.814264 
L 245.330111 144.020449 
L 238.282308 146.403555 
L 236.16 147.159912 
L 243.189559 149.596307 
L 250.277825 151.856219 
L 257.420367 153.938238 
L 264.612723 155.841061 
L 271.850397 157.563499 
L 279.128866 159.104475 
L 286.443581 160.463028 
L 292.478351 161.442269 
L 297.940184 163.806579 
L 303.303101 166.387413 
L 308.558522 169.180641 
L 313.69804 172.181797 
L 318.713433 175.386077 
L 323.596677 178.788357 
L 328.33996 182.383193 
L 330.652575 184.24761 
L 335.195659 190.139223 
L 339.884599 195.91543 
L 344.716464 201.57262 
L 349.688233 207.107258 
L 354.796801 212.515886 
L 360.038974 217.795123 
L 365.411476 222.941669 
L 370.91095 227.952309 
L 376.533958 232.82391 
L 382.276986 237.553428 
L 384.96 239.681971 
L 379.162925 244.345086 
L 373.742163 248.928 
L 368.057956 244.127948 
L 362.255535 239.471486 
L 356.338529 234.961524 
L 350.310634 230.600882 
L 344.175619 226.392284 
L 337.937316 222.33836 
L 331.599625 218.441645 
L 325.166507 214.704573 
L 318.641982 211.12948 
L 312.030127 207.7186 
L 305.335076 204.474065 
L 298.561012 201.397903 
L 291.712169 198.492037 
L 284.792826 195.758281 
L 277.80731 193.198345 
L 270.759984 190.813829 
L 263.655254 188.606223 
L 256.497559 186.576906 
L 249.291374 184.727148 
L 242.041201 183.058103 
L 236.16 181.843401 
L 243.442375 180.320992 
L 250.684418 178.617017 
L 257.881603 176.732543 
L 265.029432 174.668747 
L 272.123439 172.426918 
L 279.159188 170.008459 
L 286.132284 167.41488 
L 289.97509 165.899914 
L 287.029816 159.067925 
L 283.91468 152.311695 
L 280.63163 145.635446 
L 277.182716 139.043351 
L 273.570095 132.53953 
L 269.796025 126.128048 
L 265.862864 119.81291 
L 261.773069 113.598065 
L 257.529198 107.487397 
L 253.133902 101.484723 
L 252.108104 100.128 
L 247.678573 106.105455 
L 243.399846 112.191769 
L 239.274599 118.383139 
L 236.16 123.291083 
L 240.163535 129.561843 
L 244.322571 135.730565 
L 248.634509 141.793395 
L 253.096655 147.746543 
L 257.70622 153.586289 
L 262.460323 159.308982 
L 267.355993 164.911047 
L 272.39017 170.388983 
L 277.559708 175.739365 
L 282.861376 180.958851 
L 288.291862 186.044178 
L 293.84777 190.992168 
L 299.525629 195.799728 
L 305.32189 200.463854 
L 311.232931 204.981631 
L 317.255057 209.350237 
L 323.384505 213.566939 
L 329.617445 217.629103 
L 335.949981 221.534191 
L 342.378154 225.279762 
L 348.897949 228.863475 
L 355.505289 232.28309 
L 362.196047 235.53647 
L 368.96604 238.621582 
L 375.811036 241.536498 
L 382.72676 244.279395 
L 384.96 245.122739 
L 378.022497 247.810075 
L 375.279804 248.928 
L 368.36939 246.171754 
L 361.392236 243.589112 
L 354.352703 241.181688 
L 347.25519 238.950986 
L 340.104133 236.898401 
L 332.904002 235.025214 
L 325.659296 233.332598 
L 318.374543 231.821609 
L 311.054295 230.493192 
L 303.703128 229.348177 
L 296.325636 228.387281 
L 288.926429 227.611102 
L 281.510131 227.020127 
L 274.081379 226.614725 
L 266.644813 226.395149 
L 259.205083 226.361537 
L 251.766837 226.513908 
L 244.334725 226.852169 
L 236.16 227.439733 
L 243.579979 227.982525 
L 251.011209 228.339666 
L 258.449043 228.510935 
L 265.888835 228.496224 
L 273.325934 228.295541 
L 280.755693 227.909014 
L 288.173467 227.336882 
L 295.574623 226.579505 
L 302.954532 225.637354 
L 310.308585 224.511019 
L 317.632184 223.201204 
L 324.920752 221.708728 
L 332.169735 220.034522 
L 339.374602 218.179634 
L 346.53085 216.145223 
L 353.634007 213.93256 
L 360.679634 211.543028 
L 367.663327 208.97812 
L 374.580721 206.23944 
L 381.427494 203.328698 
L 384.96 201.747023 
L 378.151661 198.747484 
L 371.270469 195.919073 
L 364.320724 193.263558 
L 357.306769 190.782598 
L 350.232989 188.477743 
L 343.103804 186.350435 
L 335.92367 184.402003 
L 329.712615 182.734419 
L 324.116956 180.707059 
L 318.606847 178.457554 
L 313.191101 175.989503 
L 307.878383 173.306854 
L 302.677191 170.413898 
L 297.595848 167.315265 
L 292.642481 164.015911 
L 291.373463 163.123649 
L 296.667406 165.843162 
L 301.848363 168.772201 
L 306.908045 171.906079 
L 311.838359 175.239785 
L 316.631416 178.767983 
L 321.279548 182.485031 
L 325.775321 186.384981 
L 328.009931 188.44498 
L 323.136833 185.028183 
L 318.404268 181.419248 
L 313.819808 177.623948 
L 309.390786 173.648354 
L 305.124288 169.498826 
L 301.02714 165.182004 
L 297.105897 160.704791 
L 295.173448 158.359005 
L 290.913663 152.259419 
L 286.502735 146.268222 
L 281.943422 140.38916 
L 277.238571 134.625905 
L 272.391125 128.982061 
L 267.404112 123.461153 
L 262.280649 118.066633 
L 257.023938 112.801873 
L 251.637265 107.670161 
L 246.123995 102.674705 
L 243.203607 100.128 
L 237.625764 105.051249 
L 236.16 106.386869 
L 235.684379 112.319437 
L 235.446379 118.26628 
L 235.446379 124.217883 
L 235.684379 130.164725 
L 236.16 136.097294 
L 235.684379 142.029862 
L 235.446379 147.976704 
L 235.446379 153.928308 
L 235.684379 159.87515 
L 236.16 165.807718 
L 235.684379 171.740287 
L 235.446379 177.687129 
L 235.446379 183.638732 
L 235.684379 189.585575 
L 236.16 195.518143 
L 235.684379 201.450711 
L 235.446379 207.397554 
L 235.446379 213.349157 
L 235.684379 219.296 
L 236.16 225.228568 
L 235.684379 231.161136 
L 235.446379 237.107979 
L 235.446379 243.059582 
L 235.679689 248.928 
L 235.91455 242.981033 
L 235.911407 237.02943 
L 235.670267 231.082714 
L 235.191514 225.150398 
L 234.475915 219.241972 
L 233.524614 213.366888 
L 232.339133 207.534546 
L 230.92137 201.754275 
L 229.273591 196.035324 
L 227.398433 190.386841 
L 225.298896 184.817862 
L 222.978338 179.337297 
L 220.440473 173.953913 
L 217.689359 168.676323 
L 214.729399 163.51297 
L 211.565328 158.472114 
L 208.202207 153.561818 
L 204.645417 148.78994 
L 200.900647 144.164112 
L 196.973889 139.691736 
L 192.871425 135.379965 
L 188.599818 131.235698 
L 184.1659 127.265564 
L 179.576767 123.475916 
L 174.839759 119.872815 
L 169.962454 116.462027 
L 164.952655 113.249006 
L 159.818378 110.238895 
L 154.567834 107.436507 
L 149.209425 104.846327 
L 143.751723 102.472498 
L 137.678088 100.128 
L 132.121772 102.260824 
L 126.655191 104.614135 
L 121.28709 107.184169 
L 116.026057 109.966814 
L 110.880509 112.957618 
L 105.858676 116.151797 
L 100.968594 119.54424 
L 96.218084 123.129521 
L 91.614748 126.901905 
L 87.36 130.676156 
L 91.81581 134.621703 
L 96.425836 138.385909 
L 101.182702 141.962751 
L 106.078799 145.346509 
L 111.106293 148.531769 
L 116.257143 151.513434 
L 121.523107 154.286736 
L 126.895762 156.847237 
L 129.964805 158.266502 
L 133.898802 160.374814 
L 137.699298 162.715231 
L 141.352614 165.279329 
L 144.845603 168.057881 
L 148.165693 171.040886 
L 151.300936 174.217609 
L 154.240048 177.576618 
L 156.972451 181.105823 
L 159.488313 184.792524 
L 161.778578 188.623451 
L 163.835003 192.584818 
L 165.650189 196.662369 
L 167.217603 200.841428 
L 168.531602 205.106955 
L 169.58746 209.4436 
L 169.868209 210.833605 
L 168.185834 202.071003 
L 167.741635 197.629831 
L 167.564547 193.170015 
L 167.655206 188.707606 
L 168.013285 184.258662 
L 168.637496 179.839196 
L 169.525594 175.465113 
L 170.67438 171.152155 
L 172.079722 166.915844 
L 173.736561 162.771426 
L 175.638935 158.733816 
L 177.779996 154.817545 
L 180.15204 151.036709 
L 182.74653 147.404913 
L 184.550704 145.126914 
L 180.858132 149.792997 
L 177.850365 153.090672 
L 174.650269 156.202055 
L 171.269361 159.115949 
L 167.719807 161.821866 
L 164.014384 164.310069 
L 160.166425 166.571602 
L 156.18978 168.598327 
L 152.09876 170.382949 
L 147.908089 171.919045 
L 143.632848 173.201089 
L 139.288424 174.224464 
L 134.890452 174.985489 
L 130.45476 175.481425 
L 125.997311 175.710486 
L 124.579335 175.727238 
L 133.501958 175.707577 
L 137.948097 176.098938 
L 142.362768 176.756204 
L 146.730083 177.677009 
L 151.034324 178.858038 
L 155.26 180.295041 
L 159.391904 181.982847 
L 163.415165 183.915382 
L 167.315303 186.085689 
L 171.078284 188.48596 
L 174.690563 191.107554 
L 178.139141 193.941038 
L 181.411606 196.976214 
L 184.496181 200.202158 
L 187.320819 203.566569 
L 191.12747 208.141609 
L 195.114029 212.560763 
L 199.274118 216.816963 
L 203.601082 220.9034 
L 208.087999 224.813535 
L 212.727691 228.541113 
L 217.512735 232.080172 
L 222.435476 235.425049 
L 227.488038 238.570394 
L 232.662339 241.511174 
L 236.16 243.34787 
L 230.909453 246.15025 
L 226.155198 248.928 
L 221.011928 245.933279 
L 215.753015 243.146629 
L 210.386873 240.572508 
L 204.922085 238.215035 
L 199.367395 236.077981 
L 193.731689 234.164765 
L 188.023983 232.478447 
L 182.253407 231.021725 
L 176.429194 229.79693 
L 170.560661 228.806021 
L 164.657196 228.050584 
L 158.728244 227.531826 
L 152.78329 227.250579 
L 146.831844 227.207291 
L 140.883428 227.402031 
L 134.947557 227.83449 
L 129.033728 228.503974 
L 123.151402 229.409412 
L 117.309989 230.549357 
L 111.518834 231.921984 
L 105.787202 233.525097 
L 100.124262 235.356133 
L 94.539073 237.412161 
L 89.040572 239.689892 
L 87.36 240.438189 
L 92.829922 242.783724 
L 98.389265 244.908644 
L 104.029136 246.80955 
L 109.740511 248.483401 
L 111.416777 248.928 
L 117.147272 247.320826 
L 122.808913 245.48578 
L 128.392644 243.425796 
L 133.889531 241.14417 
L 139.29078 238.644552 
L 144.58775 235.930941 
L 149.771968 233.007679 
L 154.83514 229.879441 
L 159.769166 226.551233 
L 164.566153 223.028379 
L 169.218425 219.316514 
L 173.718542 215.421577 
L 178.059302 211.349799 
L 182.233763 207.107694 
L 186.235246 202.702048 
L 186.849113 201.993914 
L 191.620469 198.436423 
L 196.245748 194.690975 
L 200.717548 190.763561 
L 205.028717 186.660465 
L 209.172358 182.388249 
L 213.14184 177.95375 
L 216.930815 173.36406 
L 220.533221 168.626523 
L 223.943294 163.748718 
L 227.155579 158.738448 
L 230.164938 153.603729 
L 232.966555 148.352775 
L 235.555949 142.993986 
L 236.16 141.660026 
L 233.623467 136.276014 
L 230.87366 130.997744 
L 227.914978 125.833658 
L 224.752154 120.792019 
L 221.390248 115.880892 
L 217.834639 111.108133 
L 214.091014 106.481379 
L 210.165363 102.00803 
L 208.417772 100.128 
L 204.415542 104.532967 
L 200.592666 109.094457 
L 196.955257 113.805173 
L 193.509137 118.657578 
L 190.259818 123.64391 
L 187.212498 128.756192 
L 184.372053 133.986244 
L 181.743025 139.325701 
L 179.693925 143.643825 
L 177.476874 147.517583 
L 175.031527 151.251428 
L 172.366684 154.831921 
L 169.491935 158.246176 
L 166.417627 161.481906 
L 163.154824 164.527466 
L 159.715268 167.371895 
L 156.111338 170.004955 
L 152.356005 172.417171 
L 148.462782 174.599862 
L 144.445683 176.545172 
L 140.319164 178.2461 
L 136.098075 179.696525 
L 131.797609 180.891226 
L 127.433243 181.825905 
L 125.354645 182.175884 
L 125.354645 182.175884 
" style="fill:none;stroke:#1f77b4;stroke-linecap:square;stroke-width:1.5;"/>
   </g>
   <g id="patch_5">
    <path d="M 57.6 263.808 
L 57.6 85.248 
" style="fill:none;stroke:#000000;stroke-linecap:square;stroke-linejoin:miter;stroke-width:0.8;"/>
   </g>
   <g id="patch_6">
    <path d="M 414.72 263.808 
L 414.72 85.248 
" style="fill:none;stroke:#000000;stroke-linecap:square;stroke-linejoin:miter;stroke-width:0.8;"/>
   </g>
   <g id="patch_7">
    <path d="M 57.6 263.808 
L 414.72 263.808 
" style="fill:none;stroke:#000000;stroke-linecap:square;stroke-linejoin:miter;stroke-width:0.8;"/>
   </g>
   <g id="patch_8">
    <path d="M 57.6 85.248 
L 414.72 85.248 
" style="fill:none;stroke:#000000;stroke-linecap:square;stroke-linejoin:miter;stroke-width:0.8;"/>
   </g>
  </g>
 </g>
 <defs>
  <clipPath id="p813daa04f4">
   <rect height="178.56" width="357.12" x="57.6" y="85.248"/>
  </clipPath>
 </defs>
</svg>
