<?xml version="1.0" encoding="utf-8" standalone="no"?>
<!DOCTYPE svg PUBLIC "-//W3C//DTD SVG 1.1//EN"
  "http://www.w3.org/Graphics/SVG/1.1/DTD/svg11.dtd">
<!-- Created with matplotlib (http://matplotlib.org/) -->
<svg height="345.6pt" version="1.1" viewBox="0 0 460.8 345.6" width="460.8pt" xmlns="http://www.w3.org/2000/svg" xmlns:xlink="http://www.w3.org/1999/xlink">
 <defs>
  <style type="text/css">
*{stroke-linecap:butt;stroke-linejoin:round;}
  </style>
 </defs>
 <g id="figure_1">
  <g id="patch_1">
   <path d="M 0 345.6 
L 460.8 345.6 
L 460.8 0 
L 0 0 
z
" style="fill:#ffffff;"/>
  </g>
  <g id="axes_1">
   <g id="patch_2">
    <path d="M 122.112 307.584 
L 350.208 307.584 
L 350.208 41.472 
L 122.112 41.472 
z
" style="fill:#ffffff;"/>
   </g>
   <g id="PathCollection_1">
    <defs>
     <path d="M 0 3 
C 0.795609 3 1.55874 2.683901 2.12132 2.12132 
C 2.683901 1.55874 3 0.795609 3 0 
C 3 -0.795609 2.683901 -1.55874 2.12132 -2.12132 
C 1.55874 -2.683901 0.795609 -3 0 -3 
C -0.795609 -3 -1.55874 -2.683901 -2.12132 -2.12132 
C -2.683901 -1.55874 -3 -0.795609 -3 0 
C -3 0.795609 -2.683901 1.55874 -2.12132 2.12132 
C -1.55874 2.683901 -0.795609 3 0 3 
z
" id="mcd0cf2ea5a" style="stroke:#000000;"/>
    </defs>
    <g clip-path="url(#p9c226f170a)">
     <use style="stroke:#000000;" x="261.810243" xlink:href="#mcd0cf2ea5a" y="223.844749"/>
    </g>
   </g>
   <g id="PathCollection_2">
    <defs>
     <path d="M 0 2.738613 
C 0.726289 2.738613 1.422928 2.450055 1.936492 1.936492 
C 2.450055 1.422928 2.738613 0.726289 2.738613 0 
C 2.738613 -0.726289 2.450055 -1.422928 1.936492 -1.936492 
C 1.422928 -2.450055 0.726289 -2.738613 0 -2.738613 
C -0.726289 -2.738613 -1.422928 -2.450055 -1.936492 -1.936492 
C -2.450055 -1.422928 -2.738613 -0.726289 -2.738613 0 
C -2.738613 0.726289 -2.450055 1.422928 -1.936492 1.936492 
C -1.422928 2.450055 -0.726289 2.738613 0 2.738613 
z
" id="mcca5ef71b5" style="stroke:#000000;"/>
    </defs>
    <g clip-path="url(#p9c226f170a)">
     <use style="stroke:#000000;" x="150.623568" xlink:href="#mcca5ef71b5" y="136.42134"/>
    </g>
   </g>
   <g id="Quiver_1">
    <path clip-path="url(#p9c226f170a)" d="M 150.469379 135.872341 
L 163.096349 132.326006 
L 162.238973 131.382197 
L 168.191526 131.487308 
L 163.164104 134.676189 
L 163.404726 133.424003 
L 150.777756 136.970339 
L 150.469379 135.872341 
"/>
   </g>
   <g id="patch_3">
    <path clip-path="url(#p9c226f170a)" d="M 141.12 298.08 
C 143.64049 298.08 146.058087 297.078599 147.840343 295.296343 
C 149.622599 293.514087 150.624 291.09649 150.624 288.576 
C 150.624 286.05551 149.622599 283.637913 147.840343 281.855657 
C 146.058087 280.073401 143.64049 279.072 141.12 279.072 
C 138.59951 279.072 136.181913 280.073401 134.399657 281.855657 
C 132.617401 283.637913 131.616 286.05551 131.616 288.576 
C 131.616 291.09649 132.617401 293.514087 134.399657 295.296343 
C 136.181913 297.078599 138.59951 298.08 141.12 298.08 
z
" style="fill:#9558b2;fill-opacity:0.5;stroke:#9558b2;stroke-linejoin:miter;stroke-width:2;"/>
   </g>
   <g id="patch_4">
    <path clip-path="url(#p9c226f170a)" d="M 179.136 293.328 
C 180.396245 293.328 181.605044 292.827299 182.496171 291.936171 
C 183.387299 291.045044 183.888 289.836245 183.888 288.576 
C 183.888 287.315755 183.387299 286.106956 182.496171 285.215829 
C 181.605044 284.324701 180.396245 283.824 179.136 283.824 
C 177.875755 283.824 176.666956 284.324701 175.775829 285.215829 
C 174.884701 286.106956 174.384 287.315755 174.384 288.576 
C 174.384 289.836245 174.884701 291.045044 175.775829 291.936171 
C 176.666956 292.827299 177.875755 293.328 179.136 293.328 
z
" style="fill:#009900;fill-opacity:0.5;stroke:#009900;stroke-linejoin:miter;stroke-width:2;"/>
   </g>
   <g id="patch_5">
    <path clip-path="url(#p9c226f170a)" d="M 141.12 260.064 
C 143.64049 260.064 146.058087 259.062599 147.840343 257.280343 
C 149.622599 255.498087 150.624 253.08049 150.624 250.56 
C 150.624 248.03951 149.622599 245.621913 147.840343 243.839657 
C 146.058087 242.057401 143.64049 241.056 141.12 241.056 
C 138.59951 241.056 136.181913 242.057401 134.399657 243.839657 
C 132.617401 245.621913 131.616 248.03951 131.616 250.56 
C 131.616 253.08049 132.617401 255.498087 134.399657 257.280343 
C 136.181913 259.062599 138.59951 260.064 141.12 260.064 
z
" style="fill:#9558b2;fill-opacity:0.5;stroke:#9558b2;stroke-linejoin:miter;stroke-width:2;"/>
   </g>
   <g id="patch_6">
    <path clip-path="url(#p9c226f170a)" d="M 179.136 255.312 
C 180.396245 255.312 181.605044 254.811299 182.496171 253.920171 
C 183.387299 253.029044 183.888 251.820245 183.888 250.56 
C 183.888 249.299755 183.387299 248.090956 182.496171 247.199829 
C 181.605044 246.308701 180.396245 245.808 179.136 245.808 
C 177.875755 245.808 176.666956 246.308701 175.775829 247.199829 
C 174.884701 248.090956 174.384 249.299755 174.384 250.56 
C 174.384 251.820245 174.884701 253.029044 175.775829 253.920171 
C 176.666956 254.811299 177.875755 255.312 179.136 255.312 
z
" style="fill:#009900;fill-opacity:0.5;stroke:#009900;stroke-linejoin:miter;stroke-width:2;"/>
   </g>
   <g id="patch_7">
    <path clip-path="url(#p9c226f170a)" d="M 141.12 222.048 
C 143.64049 222.048 146.058087 221.046599 147.840343 219.264343 
C 149.622599 217.482087 150.624 215.06449 150.624 212.544 
C 150.624 210.02351 149.622599 207.605913 147.840343 205.823657 
C 146.058087 204.041401 143.64049 203.04 141.12 203.04 
C 138.59951 203.04 136.181913 204.041401 134.399657 205.823657 
C 132.617401 207.605913 131.616 210.02351 131.616 212.544 
C 131.616 215.06449 132.617401 217.482087 134.399657 219.264343 
C 136.181913 221.046599 138.59951 222.048 141.12 222.048 
z
" style="fill:#9558b2;fill-opacity:0.5;stroke:#9558b2;stroke-linejoin:miter;stroke-width:2;"/>
   </g>
   <g id="patch_8">
    <path clip-path="url(#p9c226f170a)" d="M 179.136 217.296 
C 180.396245 217.296 181.605044 216.795299 182.496171 215.904171 
C 183.387299 215.013044 183.888 213.804245 183.888 212.544 
C 183.888 211.283755 183.387299 210.074956 182.496171 209.183829 
C 181.605044 208.292701 180.396245 207.792 179.136 207.792 
C 177.875755 207.792 176.666956 208.292701 175.775829 209.183829 
C 174.884701 210.074956 174.384 211.283755 174.384 212.544 
C 174.384 213.804245 174.884701 215.013044 175.775829 215.904171 
C 176.666956 216.795299 177.875755 217.296 179.136 217.296 
z
" style="fill:#009900;fill-opacity:0.5;stroke:#009900;stroke-linejoin:miter;stroke-width:2;"/>
   </g>
   <g id="patch_9">
    <path clip-path="url(#p9c226f170a)" d="M 141.12 184.032 
C 143.64049 184.032 146.058087 183.030599 147.840343 181.248343 
C 149.622599 179.466087 150.624 177.04849 150.624 174.528 
C 150.624 172.00751 149.622599 169.589913 147.840343 167.807657 
C 146.058087 166.025401 143.64049 165.024 141.12 165.024 
C 138.59951 165.024 136.181913 166.025401 134.399657 167.807657 
C 132.617401 169.589913 131.616 172.00751 131.616 174.528 
C 131.616 177.04849 132.617401 179.466087 134.399657 181.248343 
C 136.181913 183.030599 138.59951 184.032 141.12 184.032 
z
" style="fill:#9558b2;fill-opacity:0.5;stroke:#9558b2;stroke-linejoin:miter;stroke-width:2;"/>
   </g>
   <g id="patch_10">
    <path clip-path="url(#p9c226f170a)" d="M 179.136 179.28 
C 180.396245 179.28 181.605044 178.779299 182.496171 177.888171 
C 183.387299 176.997044 183.888 175.788245 183.888 174.528 
C 183.888 173.267755 183.387299 172.058956 182.496171 171.167829 
C 181.605044 170.276701 180.396245 169.776 179.136 169.776 
C 177.875755 169.776 176.666956 170.276701 175.775829 171.167829 
C 174.884701 172.058956 174.384 173.267755 174.384 174.528 
C 174.384 175.788245 174.884701 176.997044 175.775829 177.888171 
C 176.666956 178.779299 177.875755 179.28 179.136 179.28 
z
" style="fill:#009900;fill-opacity:0.5;stroke:#009900;stroke-linejoin:miter;stroke-width:2;"/>
   </g>
   <g id="patch_11">
    <path clip-path="url(#p9c226f170a)" d="M 141.12 146.016 
C 143.64049 146.016 146.058087 145.014599 147.840343 143.232343 
C 149.622599 141.450087 150.624 139.03249 150.624 136.512 
C 150.624 133.99151 149.622599 131.573913 147.840343 129.791657 
C 146.058087 128.009401 143.64049 127.008 141.12 127.008 
C 138.59951 127.008 136.181913 128.009401 134.399657 129.791657 
C 132.617401 131.573913 131.616 133.99151 131.616 136.512 
C 131.616 139.03249 132.617401 141.450087 134.399657 143.232343 
C 136.181913 145.014599 138.59951 146.016 141.12 146.016 
z
" style="fill:#9558b2;fill-opacity:0.5;stroke:#9558b2;stroke-linejoin:miter;stroke-width:2;"/>
   </g>
   <g id="patch_12">
    <path clip-path="url(#p9c226f170a)" d="M 179.136 141.264 
C 180.396245 141.264 181.605044 140.763299 182.496171 139.872171 
C 183.387299 138.981044 183.888 137.772245 183.888 136.512 
C 183.888 135.251755 183.387299 134.042956 182.496171 133.151829 
C 181.605044 132.260701 180.396245 131.76 179.136 131.76 
C 177.875755 131.76 176.666956 132.260701 175.775829 133.151829 
C 174.884701 134.042956 174.384 135.251755 174.384 136.512 
C 174.384 137.772245 174.884701 138.981044 175.775829 139.872171 
C 176.666956 140.763299 177.875755 141.264 179.136 141.264 
z
" style="fill:#009900;fill-opacity:0.5;stroke:#009900;stroke-linejoin:miter;stroke-width:2;"/>
   </g>
   <g id="patch_13">
    <path clip-path="url(#p9c226f170a)" d="M 141.12 108 
C 143.64049 108 146.058087 106.998599 147.840343 105.216343 
C 149.622599 103.434087 150.624 101.01649 150.624 98.496 
C 150.624 95.97551 149.622599 93.557913 147.840343 91.775657 
C 146.058087 89.993401 143.64049 88.992 141.12 88.992 
C 138.59951 88.992 136.181913 89.993401 134.399657 91.775657 
C 132.617401 93.557913 131.616 95.97551 131.616 98.496 
C 131.616 101.01649 132.617401 103.434087 134.399657 105.216343 
C 136.181913 106.998599 138.59951 108 141.12 108 
z
" style="fill:#9558b2;fill-opacity:0.5;stroke:#9558b2;stroke-linejoin:miter;stroke-width:2;"/>
   </g>
   <g id="patch_14">
    <path clip-path="url(#p9c226f170a)" d="M 179.136 103.248 
C 180.396245 103.248 181.605044 102.747299 182.496171 101.856171 
C 183.387299 100.965044 183.888 99.756245 183.888 98.496 
C 183.888 97.235755 183.387299 96.026956 182.496171 95.135829 
C 181.605044 94.244701 180.396245 93.744 179.136 93.744 
C 177.875755 93.744 176.666956 94.244701 175.775829 95.135829 
C 174.884701 96.026956 174.384 97.235755 174.384 98.496 
C 174.384 99.756245 174.884701 100.965044 175.775829 101.856171 
C 176.666956 102.747299 177.875755 103.248 179.136 103.248 
z
" style="fill:#009900;fill-opacity:0.5;stroke:#009900;stroke-linejoin:miter;stroke-width:2;"/>
   </g>
   <g id="patch_15">
    <path clip-path="url(#p9c226f170a)" d="M 141.12 69.984 
C 143.64049 69.984 146.058087 68.982599 147.840343 67.200343 
C 149.622599 65.418087 150.624 63.00049 150.624 60.48 
C 150.624 57.95951 149.622599 55.541913 147.840343 53.759657 
C 146.058087 51.977401 143.64049 50.976 141.12 50.976 
C 138.59951 50.976 136.181913 51.977401 134.399657 53.759657 
C 132.617401 55.541913 131.616 57.95951 131.616 60.48 
C 131.616 63.00049 132.617401 65.418087 134.399657 67.200343 
C 136.181913 68.982599 138.59951 69.984 141.12 69.984 
z
" style="fill:#9558b2;fill-opacity:0.5;stroke:#9558b2;stroke-linejoin:miter;stroke-width:2;"/>
   </g>
   <g id="patch_16">
    <path clip-path="url(#p9c226f170a)" d="M 179.136 65.232 
C 180.396245 65.232 181.605044 64.731299 182.496171 63.840171 
C 183.387299 62.949044 183.888 61.740245 183.888 60.48 
C 183.888 59.219755 183.387299 58.010956 182.496171 57.119829 
C 181.605044 56.228701 180.396245 55.728 179.136 55.728 
C 177.875755 55.728 176.666956 56.228701 175.775829 57.119829 
C 174.884701 58.010956 174.384 59.219755 174.384 60.48 
C 174.384 61.740245 174.884701 62.949044 175.775829 63.840171 
C 176.666956 64.731299 177.875755 65.232 179.136 65.232 
z
" style="fill:#009900;fill-opacity:0.5;stroke:#009900;stroke-linejoin:miter;stroke-width:2;"/>
   </g>
   <g id="patch_17">
    <path clip-path="url(#p9c226f170a)" d="M 217.152 298.08 
C 219.67249 298.08 222.090087 297.078599 223.872343 295.296343 
C 225.654599 293.514087 226.656 291.09649 226.656 288.576 
C 226.656 286.05551 225.654599 283.637913 223.872343 281.855657 
C 222.090087 280.073401 219.67249 279.072 217.152 279.072 
C 214.63151 279.072 212.213913 280.073401 210.431657 281.855657 
C 208.649401 283.637913 207.648 286.05551 207.648 288.576 
C 207.648 291.09649 208.649401 293.514087 210.431657 295.296343 
C 212.213913 297.078599 214.63151 298.08 217.152 298.08 
z
" style="fill:#9558b2;fill-opacity:0.5;stroke:#9558b2;stroke-linejoin:miter;stroke-width:2;"/>
   </g>
   <g id="patch_18">
    <path clip-path="url(#p9c226f170a)" d="M 255.168 293.328 
C 256.428245 293.328 257.637044 292.827299 258.528171 291.936171 
C 259.419299 291.045044 259.92 289.836245 259.92 288.576 
C 259.92 287.315755 259.419299 286.106956 258.528171 285.215829 
C 257.637044 284.324701 256.428245 283.824 255.168 283.824 
C 253.907755 283.824 252.698956 284.324701 251.807829 285.215829 
C 250.916701 286.106956 250.416 287.315755 250.416 288.576 
C 250.416 289.836245 250.916701 291.045044 251.807829 291.936171 
C 252.698956 292.827299 253.907755 293.328 255.168 293.328 
z
" style="fill:#009900;fill-opacity:0.5;stroke:#009900;stroke-linejoin:miter;stroke-width:2;"/>
   </g>
   <g id="patch_19">
    <path clip-path="url(#p9c226f170a)" d="M 217.152 260.064 
C 219.67249 260.064 222.090087 259.062599 223.872343 257.280343 
C 225.654599 255.498087 226.656 253.08049 226.656 250.56 
C 226.656 248.03951 225.654599 245.621913 223.872343 243.839657 
C 222.090087 242.057401 219.67249 241.056 217.152 241.056 
C 214.63151 241.056 212.213913 242.057401 210.431657 243.839657 
C 208.649401 245.621913 207.648 248.03951 207.648 250.56 
C 207.648 253.08049 208.649401 255.498087 210.431657 257.280343 
C 212.213913 259.062599 214.63151 260.064 217.152 260.064 
z
" style="fill:#9558b2;fill-opacity:0.5;stroke:#9558b2;stroke-linejoin:miter;stroke-width:2;"/>
   </g>
   <g id="patch_20">
    <path clip-path="url(#p9c226f170a)" d="M 255.168 255.312 
C 256.428245 255.312 257.637044 254.811299 258.528171 253.920171 
C 259.419299 253.029044 259.92 251.820245 259.92 250.56 
C 259.92 249.299755 259.419299 248.090956 258.528171 247.199829 
C 257.637044 246.308701 256.428245 245.808 255.168 245.808 
C 253.907755 245.808 252.698956 246.308701 251.807829 247.199829 
C 250.916701 248.090956 250.416 249.299755 250.416 250.56 
C 250.416 251.820245 250.916701 253.029044 251.807829 253.920171 
C 252.698956 254.811299 253.907755 255.312 255.168 255.312 
z
" style="fill:#009900;fill-opacity:0.5;stroke:#009900;stroke-linejoin:miter;stroke-width:2;"/>
   </g>
   <g id="patch_21">
    <path clip-path="url(#p9c226f170a)" d="M 217.152 222.048 
C 219.67249 222.048 222.090087 221.046599 223.872343 219.264343 
C 225.654599 217.482087 226.656 215.06449 226.656 212.544 
C 226.656 210.02351 225.654599 207.605913 223.872343 205.823657 
C 222.090087 204.041401 219.67249 203.04 217.152 203.04 
C 214.63151 203.04 212.213913 204.041401 210.431657 205.823657 
C 208.649401 207.605913 207.648 210.02351 207.648 212.544 
C 207.648 215.06449 208.649401 217.482087 210.431657 219.264343 
C 212.213913 221.046599 214.63151 222.048 217.152 222.048 
z
" style="fill:#9558b2;fill-opacity:0.5;stroke:#9558b2;stroke-linejoin:miter;stroke-width:2;"/>
   </g>
   <g id="patch_22">
    <path clip-path="url(#p9c226f170a)" d="M 255.168 217.296 
C 256.428245 217.296 257.637044 216.795299 258.528171 215.904171 
C 259.419299 215.013044 259.92 213.804245 259.92 212.544 
C 259.92 211.283755 259.419299 210.074956 258.528171 209.183829 
C 257.637044 208.292701 256.428245 207.792 255.168 207.792 
C 253.907755 207.792 252.698956 208.292701 251.807829 209.183829 
C 250.916701 210.074956 250.416 211.283755 250.416 212.544 
C 250.416 213.804245 250.916701 215.013044 251.807829 215.904171 
C 252.698956 216.795299 253.907755 217.296 255.168 217.296 
z
" style="fill:#009900;fill-opacity:0.5;stroke:#009900;stroke-linejoin:miter;stroke-width:2;"/>
   </g>
   <g id="patch_23">
    <path clip-path="url(#p9c226f170a)" d="M 217.152 184.032 
C 219.67249 184.032 222.090087 183.030599 223.872343 181.248343 
C 225.654599 179.466087 226.656 177.04849 226.656 174.528 
C 226.656 172.00751 225.654599 169.589913 223.872343 167.807657 
C 222.090087 166.025401 219.67249 165.024 217.152 165.024 
C 214.63151 165.024 212.213913 166.025401 210.431657 167.807657 
C 208.649401 169.589913 207.648 172.00751 207.648 174.528 
C 207.648 177.04849 208.649401 179.466087 210.431657 181.248343 
C 212.213913 183.030599 214.63151 184.032 217.152 184.032 
z
" style="fill:#9558b2;fill-opacity:0.5;stroke:#9558b2;stroke-linejoin:miter;stroke-width:2;"/>
   </g>
   <g id="patch_24">
    <path clip-path="url(#p9c226f170a)" d="M 255.168 179.28 
C 256.428245 179.28 257.637044 178.779299 258.528171 177.888171 
C 259.419299 176.997044 259.92 175.788245 259.92 174.528 
C 259.92 173.267755 259.419299 172.058956 258.528171 171.167829 
C 257.637044 170.276701 256.428245 169.776 255.168 169.776 
C 253.907755 169.776 252.698956 170.276701 251.807829 171.167829 
C 250.916701 172.058956 250.416 173.267755 250.416 174.528 
C 250.416 175.788245 250.916701 176.997044 251.807829 177.888171 
C 252.698956 178.779299 253.907755 179.28 255.168 179.28 
z
" style="fill:#009900;fill-opacity:0.5;stroke:#009900;stroke-linejoin:miter;stroke-width:2;"/>
   </g>
   <g id="patch_25">
    <path clip-path="url(#p9c226f170a)" d="M 217.152 146.016 
C 219.67249 146.016 222.090087 145.014599 223.872343 143.232343 
C 225.654599 141.450087 226.656 139.03249 226.656 136.512 
C 226.656 133.99151 225.654599 131.573913 223.872343 129.791657 
C 222.090087 128.009401 219.67249 127.008 217.152 127.008 
C 214.63151 127.008 212.213913 128.009401 210.431657 129.791657 
C 208.649401 131.573913 207.648 133.99151 207.648 136.512 
C 207.648 139.03249 208.649401 141.450087 210.431657 143.232343 
C 212.213913 145.014599 214.63151 146.016 217.152 146.016 
z
" style="fill:#9558b2;fill-opacity:0.5;stroke:#9558b2;stroke-linejoin:miter;stroke-width:2;"/>
   </g>
   <g id="patch_26">
    <path clip-path="url(#p9c226f170a)" d="M 255.168 141.264 
C 256.428245 141.264 257.637044 140.763299 258.528171 139.872171 
C 259.419299 138.981044 259.92 137.772245 259.92 136.512 
C 259.92 135.251755 259.419299 134.042956 258.528171 133.151829 
C 257.637044 132.260701 256.428245 131.76 255.168 131.76 
C 253.907755 131.76 252.698956 132.260701 251.807829 133.151829 
C 250.916701 134.042956 250.416 135.251755 250.416 136.512 
C 250.416 137.772245 250.916701 138.981044 251.807829 139.872171 
C 252.698956 140.763299 253.907755 141.264 255.168 141.264 
z
" style="fill:#009900;fill-opacity:0.5;stroke:#009900;stroke-linejoin:miter;stroke-width:2;"/>
   </g>
   <g id="patch_27">
    <path clip-path="url(#p9c226f170a)" d="M 217.152 108 
C 219.67249 108 222.090087 106.998599 223.872343 105.216343 
C 225.654599 103.434087 226.656 101.01649 226.656 98.496 
C 226.656 95.97551 225.654599 93.557913 223.872343 91.775657 
C 222.090087 89.993401 219.67249 88.992 217.152 88.992 
C 214.63151 88.992 212.213913 89.993401 210.431657 91.775657 
C 208.649401 93.557913 207.648 95.97551 207.648 98.496 
C 207.648 101.01649 208.649401 103.434087 210.431657 105.216343 
C 212.213913 106.998599 214.63151 108 217.152 108 
z
" style="fill:#9558b2;fill-opacity:0.5;stroke:#9558b2;stroke-linejoin:miter;stroke-width:2;"/>
   </g>
   <g id="patch_28">
    <path clip-path="url(#p9c226f170a)" d="M 255.168 103.248 
C 256.428245 103.248 257.637044 102.747299 258.528171 101.856171 
C 259.419299 100.965044 259.92 99.756245 259.92 98.496 
C 259.92 97.235755 259.419299 96.026956 258.528171 95.135829 
C 257.637044 94.244701 256.428245 93.744 255.168 93.744 
C 253.907755 93.744 252.698956 94.244701 251.807829 95.135829 
C 250.916701 96.026956 250.416 97.235755 250.416 98.496 
C 250.416 99.756245 250.916701 100.965044 251.807829 101.856171 
C 252.698956 102.747299 253.907755 103.248 255.168 103.248 
z
" style="fill:#009900;fill-opacity:0.5;stroke:#009900;stroke-linejoin:miter;stroke-width:2;"/>
   </g>
   <g id="patch_29">
    <path clip-path="url(#p9c226f170a)" d="M 217.152 69.984 
C 219.67249 69.984 222.090087 68.982599 223.872343 67.200343 
C 225.654599 65.418087 226.656 63.00049 226.656 60.48 
C 226.656 57.95951 225.654599 55.541913 223.872343 53.759657 
C 222.090087 51.977401 219.67249 50.976 217.152 50.976 
C 214.63151 50.976 212.213913 51.977401 210.431657 53.759657 
C 208.649401 55.541913 207.648 57.95951 207.648 60.48 
C 207.648 63.00049 208.649401 65.418087 210.431657 67.200343 
C 212.213913 68.982599 214.63151 69.984 217.152 69.984 
z
" style="fill:#9558b2;fill-opacity:0.5;stroke:#9558b2;stroke-linejoin:miter;stroke-width:2;"/>
   </g>
   <g id="patch_30">
    <path clip-path="url(#p9c226f170a)" d="M 255.168 65.232 
C 256.428245 65.232 257.637044 64.731299 258.528171 63.840171 
C 259.419299 62.949044 259.92 61.740245 259.92 60.48 
C 259.92 59.219755 259.419299 58.010956 258.528171 57.119829 
C 257.637044 56.228701 256.428245 55.728 255.168 55.728 
C 253.907755 55.728 252.698956 56.228701 251.807829 57.119829 
C 250.916701 58.010956 250.416 59.219755 250.416 60.48 
C 250.416 61.740245 250.916701 62.949044 251.807829 63.840171 
C 252.698956 64.731299 253.907755 65.232 255.168 65.232 
z
" style="fill:#009900;fill-opacity:0.5;stroke:#009900;stroke-linejoin:miter;stroke-width:2;"/>
   </g>
   <g id="patch_31">
    <path clip-path="url(#p9c226f170a)" d="M 293.184 298.08 
C 295.70449 298.08 298.122087 297.078599 299.904343 295.296343 
C 301.686599 293.514087 302.688 291.09649 302.688 288.576 
C 302.688 286.05551 301.686599 283.637913 299.904343 281.855657 
C 298.122087 280.073401 295.70449 279.072 293.184 279.072 
C 290.66351 279.072 288.245913 280.073401 286.463657 281.855657 
C 284.681401 283.637913 283.68 286.05551 283.68 288.576 
C 283.68 291.09649 284.681401 293.514087 286.463657 295.296343 
C 288.245913 297.078599 290.66351 298.08 293.184 298.08 
z
" style="fill:#9558b2;fill-opacity:0.5;stroke:#9558b2;stroke-linejoin:miter;stroke-width:2;"/>
   </g>
   <g id="patch_32">
    <path clip-path="url(#p9c226f170a)" d="M 331.2 293.328 
C 332.460245 293.328 333.669044 292.827299 334.560171 291.936171 
C 335.451299 291.045044 335.952 289.836245 335.952 288.576 
C 335.952 287.315755 335.451299 286.106956 334.560171 285.215829 
C 333.669044 284.324701 332.460245 283.824 331.2 283.824 
C 329.939755 283.824 328.730956 284.324701 327.839829 285.215829 
C 326.948701 286.106956 326.448 287.315755 326.448 288.576 
C 326.448 289.836245 326.948701 291.045044 327.839829 291.936171 
C 328.730956 292.827299 329.939755 293.328 331.2 293.328 
z
" style="fill:#009900;fill-opacity:0.5;stroke:#009900;stroke-linejoin:miter;stroke-width:2;"/>
   </g>
   <g id="patch_33">
    <path clip-path="url(#p9c226f170a)" d="M 293.184 260.064 
C 295.70449 260.064 298.122087 259.062599 299.904343 257.280343 
C 301.686599 255.498087 302.688 253.08049 302.688 250.56 
C 302.688 248.03951 301.686599 245.621913 299.904343 243.839657 
C 298.122087 242.057401 295.70449 241.056 293.184 241.056 
C 290.66351 241.056 288.245913 242.057401 286.463657 243.839657 
C 284.681401 245.621913 283.68 248.03951 283.68 250.56 
C 283.68 253.08049 284.681401 255.498087 286.463657 257.280343 
C 288.245913 259.062599 290.66351 260.064 293.184 260.064 
z
" style="fill:#9558b2;fill-opacity:0.5;stroke:#9558b2;stroke-linejoin:miter;stroke-width:2;"/>
   </g>
   <g id="patch_34">
    <path clip-path="url(#p9c226f170a)" d="M 331.2 255.312 
C 332.460245 255.312 333.669044 254.811299 334.560171 253.920171 
C 335.451299 253.029044 335.952 251.820245 335.952 250.56 
C 335.952 249.299755 335.451299 248.090956 334.560171 247.199829 
C 333.669044 246.308701 332.460245 245.808 331.2 245.808 
C 329.939755 245.808 328.730956 246.308701 327.839829 247.199829 
C 326.948701 248.090956 326.448 249.299755 326.448 250.56 
C 326.448 251.820245 326.948701 253.029044 327.839829 253.920171 
C 328.730956 254.811299 329.939755 255.312 331.2 255.312 
z
" style="fill:#009900;fill-opacity:0.5;stroke:#009900;stroke-linejoin:miter;stroke-width:2;"/>
   </g>
   <g id="patch_35">
    <path clip-path="url(#p9c226f170a)" d="M 293.184 222.048 
C 295.70449 222.048 298.122087 221.046599 299.904343 219.264343 
C 301.686599 217.482087 302.688 215.06449 302.688 212.544 
C 302.688 210.02351 301.686599 207.605913 299.904343 205.823657 
C 298.122087 204.041401 295.70449 203.04 293.184 203.04 
C 290.66351 203.04 288.245913 204.041401 286.463657 205.823657 
C 284.681401 207.605913 283.68 210.02351 283.68 212.544 
C 283.68 215.06449 284.681401 217.482087 286.463657 219.264343 
C 288.245913 221.046599 290.66351 222.048 293.184 222.048 
z
" style="fill:#9558b2;fill-opacity:0.5;stroke:#9558b2;stroke-linejoin:miter;stroke-width:2;"/>
   </g>
   <g id="patch_36">
    <path clip-path="url(#p9c226f170a)" d="M 331.2 217.296 
C 332.460245 217.296 333.669044 216.795299 334.560171 215.904171 
C 335.451299 215.013044 335.952 213.804245 335.952 212.544 
C 335.952 211.283755 335.451299 210.074956 334.560171 209.183829 
C 333.669044 208.292701 332.460245 207.792 331.2 207.792 
C 329.939755 207.792 328.730956 208.292701 327.839829 209.183829 
C 326.948701 210.074956 326.448 211.283755 326.448 212.544 
C 326.448 213.804245 326.948701 215.013044 327.839829 215.904171 
C 328.730956 216.795299 329.939755 217.296 331.2 217.296 
z
" style="fill:#009900;fill-opacity:0.5;stroke:#009900;stroke-linejoin:miter;stroke-width:2;"/>
   </g>
   <g id="patch_37">
    <path clip-path="url(#p9c226f170a)" d="M 293.184 184.032 
C 295.70449 184.032 298.122087 183.030599 299.904343 181.248343 
C 301.686599 179.466087 302.688 177.04849 302.688 174.528 
C 302.688 172.00751 301.686599 169.589913 299.904343 167.807657 
C 298.122087 166.025401 295.70449 165.024 293.184 165.024 
C 290.66351 165.024 288.245913 166.025401 286.463657 167.807657 
C 284.681401 169.589913 283.68 172.00751 283.68 174.528 
C 283.68 177.04849 284.681401 179.466087 286.463657 181.248343 
C 288.245913 183.030599 290.66351 184.032 293.184 184.032 
z
" style="fill:#9558b2;fill-opacity:0.5;stroke:#9558b2;stroke-linejoin:miter;stroke-width:2;"/>
   </g>
   <g id="patch_38">
    <path clip-path="url(#p9c226f170a)" d="M 331.2 179.28 
C 332.460245 179.28 333.669044 178.779299 334.560171 177.888171 
C 335.451299 176.997044 335.952 175.788245 335.952 174.528 
C 335.952 173.267755 335.451299 172.058956 334.560171 171.167829 
C 333.669044 170.276701 332.460245 169.776 331.2 169.776 
C 329.939755 169.776 328.730956 170.276701 327.839829 171.167829 
C 326.948701 172.058956 326.448 173.267755 326.448 174.528 
C 326.448 175.788245 326.948701 176.997044 327.839829 177.888171 
C 328.730956 178.779299 329.939755 179.28 331.2 179.28 
z
" style="fill:#009900;fill-opacity:0.5;stroke:#009900;stroke-linejoin:miter;stroke-width:2;"/>
   </g>
   <g id="patch_39">
    <path clip-path="url(#p9c226f170a)" d="M 293.184 146.016 
C 295.70449 146.016 298.122087 145.014599 299.904343 143.232343 
C 301.686599 141.450087 302.688 139.03249 302.688 136.512 
C 302.688 133.99151 301.686599 131.573913 299.904343 129.791657 
C 298.122087 128.009401 295.70449 127.008 293.184 127.008 
C 290.66351 127.008 288.245913 128.009401 286.463657 129.791657 
C 284.681401 131.573913 283.68 133.99151 283.68 136.512 
C 283.68 139.03249 284.681401 141.450087 286.463657 143.232343 
C 288.245913 145.014599 290.66351 146.016 293.184 146.016 
z
" style="fill:#9558b2;fill-opacity:0.5;stroke:#9558b2;stroke-linejoin:miter;stroke-width:2;"/>
   </g>
   <g id="patch_40">
    <path clip-path="url(#p9c226f170a)" d="M 331.2 141.264 
C 332.460245 141.264 333.669044 140.763299 334.560171 139.872171 
C 335.451299 138.981044 335.952 137.772245 335.952 136.512 
C 335.952 135.251755 335.451299 134.042956 334.560171 133.151829 
C 333.669044 132.260701 332.460245 131.76 331.2 131.76 
C 329.939755 131.76 328.730956 132.260701 327.839829 133.151829 
C 326.948701 134.042956 326.448 135.251755 326.448 136.512 
C 326.448 137.772245 326.948701 138.981044 327.839829 139.872171 
C 328.730956 140.763299 329.939755 141.264 331.2 141.264 
z
" style="fill:#009900;fill-opacity:0.5;stroke:#009900;stroke-linejoin:miter;stroke-width:2;"/>
   </g>
   <g id="patch_41">
    <path clip-path="url(#p9c226f170a)" d="M 293.184 108 
C 295.70449 108 298.122087 106.998599 299.904343 105.216343 
C 301.686599 103.434087 302.688 101.01649 302.688 98.496 
C 302.688 95.97551 301.686599 93.557913 299.904343 91.775657 
C 298.122087 89.993401 295.70449 88.992 293.184 88.992 
C 290.66351 88.992 288.245913 89.993401 286.463657 91.775657 
C 284.681401 93.557913 283.68 95.97551 283.68 98.496 
C 283.68 101.01649 284.681401 103.434087 286.463657 105.216343 
C 288.245913 106.998599 290.66351 108 293.184 108 
z
" style="fill:#9558b2;fill-opacity:0.5;stroke:#9558b2;stroke-linejoin:miter;stroke-width:2;"/>
   </g>
   <g id="patch_42">
    <path clip-path="url(#p9c226f170a)" d="M 331.2 103.248 
C 332.460245 103.248 333.669044 102.747299 334.560171 101.856171 
C 335.451299 100.965044 335.952 99.756245 335.952 98.496 
C 335.952 97.235755 335.451299 96.026956 334.560171 95.135829 
C 333.669044 94.244701 332.460245 93.744 331.2 93.744 
C 329.939755 93.744 328.730956 94.244701 327.839829 95.135829 
C 326.948701 96.026956 326.448 97.235755 326.448 98.496 
C 326.448 99.756245 326.948701 100.965044 327.839829 101.856171 
C 328.730956 102.747299 329.939755 103.248 331.2 103.248 
z
" style="fill:#009900;fill-opacity:0.5;stroke:#009900;stroke-linejoin:miter;stroke-width:2;"/>
   </g>
   <g id="patch_43">
    <path clip-path="url(#p9c226f170a)" d="M 293.184 69.984 
C 295.70449 69.984 298.122087 68.982599 299.904343 67.200343 
C 301.686599 65.418087 302.688 63.00049 302.688 60.48 
C 302.688 57.95951 301.686599 55.541913 299.904343 53.759657 
C 298.122087 51.977401 295.70449 50.976 293.184 50.976 
C 290.66351 50.976 288.245913 51.977401 286.463657 53.759657 
C 284.681401 55.541913 283.68 57.95951 283.68 60.48 
C 283.68 63.00049 284.681401 65.418087 286.463657 67.200343 
C 288.245913 68.982599 290.66351 69.984 293.184 69.984 
z
" style="fill:#9558b2;fill-opacity:0.5;stroke:#9558b2;stroke-linejoin:miter;stroke-width:2;"/>
   </g>
   <g id="patch_44">
    <path clip-path="url(#p9c226f170a)" d="M 331.2 65.232 
C 332.460245 65.232 333.669044 64.731299 334.560171 63.840171 
C 335.451299 62.949044 335.952 61.740245 335.952 60.48 
C 335.952 59.219755 335.451299 58.010956 334.560171 57.119829 
C 333.669044 56.228701 332.460245 55.728 331.2 55.728 
C 329.939755 55.728 328.730956 56.228701 327.839829 57.119829 
C 326.948701 58.010956 326.448 59.219755 326.448 60.48 
C 326.448 61.740245 326.948701 62.949044 327.839829 63.840171 
C 328.730956 64.731299 329.939755 65.232 331.2 65.232 
z
" style="fill:#009900;fill-opacity:0.5;stroke:#009900;stroke-linejoin:miter;stroke-width:2;"/>
   </g>
   <g id="matplotlib.axis_1">
    <g id="xtick_1">
     <g id="line2d_1">
      <defs>
       <path d="M 0 0 
L 0 3.5 
" id="m9e55c90b51" style="stroke:#000000;stroke-width:0.8;"/>
      </defs>
      <g>
       <use style="stroke:#000000;stroke-width:0.8;" x="122.112" xlink:href="#m9e55c90b51" y="307.584"/>
      </g>
     </g>
     <g id="text_1">
      <!-- −2 -->
      <defs>
       <path d="M 10.59375 35.5 
L 73.1875 35.5 
L 73.1875 27.203125 
L 10.59375 27.203125 
z
" id="DejaVuSans-2212"/>
       <path d="M 19.1875 8.296875 
L 53.609375 8.296875 
L 53.609375 0 
L 7.328125 0 
L 7.328125 8.296875 
Q 12.9375 14.109375 22.625 23.890625 
Q 32.328125 33.6875 34.8125 36.53125 
Q 39.546875 41.84375 41.421875 45.53125 
Q 43.3125 49.21875 43.3125 52.78125 
Q 43.3125 58.59375 39.234375 62.25 
Q 35.15625 65.921875 28.609375 65.921875 
Q 23.96875 65.921875 18.8125 64.3125 
Q 13.671875 62.703125 7.8125 59.421875 
L 7.8125 69.390625 
Q 13.765625 71.78125 18.9375 73 
Q 24.125 74.21875 28.421875 74.21875 
Q 39.75 74.21875 46.484375 68.546875 
Q 53.21875 62.890625 53.21875 53.421875 
Q 53.21875 48.921875 51.53125 44.890625 
Q 49.859375 40.875 45.40625 35.40625 
Q 44.1875 33.984375 37.640625 27.21875 
Q 31.109375 20.453125 19.1875 8.296875 
z
" id="DejaVuSans-32"/>
      </defs>
      <g transform="translate(114.740906 322.182437)scale(0.1 -0.1)">
       <use xlink:href="#DejaVuSans-2212"/>
       <use x="83.789062" xlink:href="#DejaVuSans-32"/>
      </g>
     </g>
    </g>
    <g id="xtick_2">
     <g id="line2d_2">
      <g>
       <use style="stroke:#000000;stroke-width:0.8;" x="160.128" xlink:href="#m9e55c90b51" y="307.584"/>
      </g>
     </g>
     <g id="text_2">
      <!-- −1 -->
      <defs>
       <path d="M 12.40625 8.296875 
L 28.515625 8.296875 
L 28.515625 63.921875 
L 10.984375 60.40625 
L 10.984375 69.390625 
L 28.421875 72.90625 
L 38.28125 72.90625 
L 38.28125 8.296875 
L 54.390625 8.296875 
L 54.390625 0 
L 12.40625 0 
z
" id="DejaVuSans-31"/>
      </defs>
      <g transform="translate(152.756906 322.182437)scale(0.1 -0.1)">
       <use xlink:href="#DejaVuSans-2212"/>
       <use x="83.789062" xlink:href="#DejaVuSans-31"/>
      </g>
     </g>
    </g>
    <g id="xtick_3">
     <g id="line2d_3">
      <g>
       <use style="stroke:#000000;stroke-width:0.8;" x="198.144" xlink:href="#m9e55c90b51" y="307.584"/>
      </g>
     </g>
     <g id="text_3">
      <!-- 0 -->
      <defs>
       <path d="M 31.78125 66.40625 
Q 24.171875 66.40625 20.328125 58.90625 
Q 16.5 51.421875 16.5 36.375 
Q 16.5 21.390625 20.328125 13.890625 
Q 24.171875 6.390625 31.78125 6.390625 
Q 39.453125 6.390625 43.28125 13.890625 
Q 47.125 21.390625 47.125 36.375 
Q 47.125 51.421875 43.28125 58.90625 
Q 39.453125 66.40625 31.78125 66.40625 
z
M 31.78125 74.21875 
Q 44.046875 74.21875 50.515625 64.515625 
Q 56.984375 54.828125 56.984375 36.375 
Q 56.984375 17.96875 50.515625 8.265625 
Q 44.046875 -1.421875 31.78125 -1.421875 
Q 19.53125 -1.421875 13.0625 8.265625 
Q 6.59375 17.96875 6.59375 36.375 
Q 6.59375 54.828125 13.0625 64.515625 
Q 19.53125 74.21875 31.78125 74.21875 
z
" id="DejaVuSans-30"/>
      </defs>
      <g transform="translate(194.96275 322.182437)scale(0.1 -0.1)">
       <use xlink:href="#DejaVuSans-30"/>
      </g>
     </g>
    </g>
    <g id="xtick_4">
     <g id="line2d_4">
      <g>
       <use style="stroke:#000000;stroke-width:0.8;" x="236.16" xlink:href="#m9e55c90b51" y="307.584"/>
      </g>
     </g>
     <g id="text_4">
      <!-- 1 -->
      <g transform="translate(232.97875 322.182437)scale(0.1 -0.1)">
       <use xlink:href="#DejaVuSans-31"/>
      </g>
     </g>
    </g>
    <g id="xtick_5">
     <g id="line2d_5">
      <g>
       <use style="stroke:#000000;stroke-width:0.8;" x="274.176" xlink:href="#m9e55c90b51" y="307.584"/>
      </g>
     </g>
     <g id="text_5">
      <!-- 2 -->
      <g transform="translate(270.99475 322.182437)scale(0.1 -0.1)">
       <use xlink:href="#DejaVuSans-32"/>
      </g>
     </g>
    </g>
    <g id="xtick_6">
     <g id="line2d_6">
      <g>
       <use style="stroke:#000000;stroke-width:0.8;" x="312.192" xlink:href="#m9e55c90b51" y="307.584"/>
      </g>
     </g>
     <g id="text_6">
      <!-- 3 -->
      <defs>
       <path d="M 40.578125 39.3125 
Q 47.65625 37.796875 51.625 33 
Q 55.609375 28.21875 55.609375 21.1875 
Q 55.609375 10.40625 48.1875 4.484375 
Q 40.765625 -1.421875 27.09375 -1.421875 
Q 22.515625 -1.421875 17.65625 -0.515625 
Q 12.796875 0.390625 7.625 2.203125 
L 7.625 11.71875 
Q 11.71875 9.328125 16.59375 8.109375 
Q 21.484375 6.890625 26.8125 6.890625 
Q 36.078125 6.890625 40.9375 10.546875 
Q 45.796875 14.203125 45.796875 21.1875 
Q 45.796875 27.640625 41.28125 31.265625 
Q 36.765625 34.90625 28.71875 34.90625 
L 20.21875 34.90625 
L 20.21875 43.015625 
L 29.109375 43.015625 
Q 36.375 43.015625 40.234375 45.921875 
Q 44.09375 48.828125 44.09375 54.296875 
Q 44.09375 59.90625 40.109375 62.90625 
Q 36.140625 65.921875 28.71875 65.921875 
Q 24.65625 65.921875 20.015625 65.03125 
Q 15.375 64.15625 9.8125 62.3125 
L 9.8125 71.09375 
Q 15.4375 72.65625 20.34375 73.4375 
Q 25.25 74.21875 29.59375 74.21875 
Q 40.828125 74.21875 47.359375 69.109375 
Q 53.90625 64.015625 53.90625 55.328125 
Q 53.90625 49.265625 50.4375 45.09375 
Q 46.96875 40.921875 40.578125 39.3125 
z
" id="DejaVuSans-33"/>
      </defs>
      <g transform="translate(309.01075 322.182437)scale(0.1 -0.1)">
       <use xlink:href="#DejaVuSans-33"/>
      </g>
     </g>
    </g>
    <g id="xtick_7">
     <g id="line2d_7">
      <g>
       <use style="stroke:#000000;stroke-width:0.8;" x="350.208" xlink:href="#m9e55c90b51" y="307.584"/>
      </g>
     </g>
     <g id="text_7">
      <!-- 4 -->
      <defs>
       <path d="M 37.796875 64.3125 
L 12.890625 25.390625 
L 37.796875 25.390625 
z
M 35.203125 72.90625 
L 47.609375 72.90625 
L 47.609375 25.390625 
L 58.015625 25.390625 
L 58.015625 17.1875 
L 47.609375 17.1875 
L 47.609375 0 
L 37.796875 0 
L 37.796875 17.1875 
L 4.890625 17.1875 
L 4.890625 26.703125 
z
" id="DejaVuSans-34"/>
      </defs>
      <g transform="translate(347.02675 322.182437)scale(0.1 -0.1)">
       <use xlink:href="#DejaVuSans-34"/>
      </g>
     </g>
    </g>
   </g>
   <g id="matplotlib.axis_2">
    <g id="ytick_1">
     <g id="line2d_8">
      <defs>
       <path d="M 0 0 
L -3.5 0 
" id="mfb4e68c090" style="stroke:#000000;stroke-width:0.8;"/>
      </defs>
      <g>
       <use style="stroke:#000000;stroke-width:0.8;" x="122.112" xlink:href="#mfb4e68c090" y="307.584"/>
      </g>
     </g>
     <g id="text_8">
      <!-- −2 -->
      <g transform="translate(100.369813 311.383219)scale(0.1 -0.1)">
       <use xlink:href="#DejaVuSans-2212"/>
       <use x="83.789062" xlink:href="#DejaVuSans-32"/>
      </g>
     </g>
    </g>
    <g id="ytick_2">
     <g id="line2d_9">
      <g>
       <use style="stroke:#000000;stroke-width:0.8;" x="122.112" xlink:href="#mfb4e68c090" y="269.568"/>
      </g>
     </g>
     <g id="text_9">
      <!-- −1 -->
      <g transform="translate(100.369813 273.367219)scale(0.1 -0.1)">
       <use xlink:href="#DejaVuSans-2212"/>
       <use x="83.789062" xlink:href="#DejaVuSans-31"/>
      </g>
     </g>
    </g>
    <g id="ytick_3">
     <g id="line2d_10">
      <g>
       <use style="stroke:#000000;stroke-width:0.8;" x="122.112" xlink:href="#mfb4e68c090" y="231.552"/>
      </g>
     </g>
     <g id="text_10">
      <!-- 0 -->
      <g transform="translate(108.7495 235.351219)scale(0.1 -0.1)">
       <use xlink:href="#DejaVuSans-30"/>
      </g>
     </g>
    </g>
    <g id="ytick_4">
     <g id="line2d_11">
      <g>
       <use style="stroke:#000000;stroke-width:0.8;" x="122.112" xlink:href="#mfb4e68c090" y="193.536"/>
      </g>
     </g>
     <g id="text_11">
      <!-- 1 -->
      <g transform="translate(108.7495 197.335219)scale(0.1 -0.1)">
       <use xlink:href="#DejaVuSans-31"/>
      </g>
     </g>
    </g>
    <g id="ytick_5">
     <g id="line2d_12">
      <g>
       <use style="stroke:#000000;stroke-width:0.8;" x="122.112" xlink:href="#mfb4e68c090" y="155.52"/>
      </g>
     </g>
     <g id="text_12">
      <!-- 2 -->
      <g transform="translate(108.7495 159.319219)scale(0.1 -0.1)">
       <use xlink:href="#DejaVuSans-32"/>
      </g>
     </g>
    </g>
    <g id="ytick_6">
     <g id="line2d_13">
      <g>
       <use style="stroke:#000000;stroke-width:0.8;" x="122.112" xlink:href="#mfb4e68c090" y="117.504"/>
      </g>
     </g>
     <g id="text_13">
      <!-- 3 -->
      <g transform="translate(108.7495 121.303219)scale(0.1 -0.1)">
       <use xlink:href="#DejaVuSans-33"/>
      </g>
     </g>
    </g>
    <g id="ytick_7">
     <g id="line2d_14">
      <g>
       <use style="stroke:#000000;stroke-width:0.8;" x="122.112" xlink:href="#mfb4e68c090" y="79.488"/>
      </g>
     </g>
     <g id="text_14">
      <!-- 4 -->
      <g transform="translate(108.7495 83.287219)scale(0.1 -0.1)">
       <use xlink:href="#DejaVuSans-34"/>
      </g>
     </g>
    </g>
    <g id="ytick_8">
     <g id="line2d_15">
      <g>
       <use style="stroke:#000000;stroke-width:0.8;" x="122.112" xlink:href="#mfb4e68c090" y="41.472"/>
      </g>
     </g>
     <g id="text_15">
      <!-- 5 -->
      <defs>
       <path d="M 10.796875 72.90625 
L 49.515625 72.90625 
L 49.515625 64.59375 
L 19.828125 64.59375 
L 19.828125 46.734375 
Q 21.96875 47.46875 24.109375 47.828125 
Q 26.265625 48.1875 28.421875 48.1875 
Q 40.625 48.1875 47.75 41.5 
Q 54.890625 34.8125 54.890625 23.390625 
Q 54.890625 11.625 47.5625 5.09375 
Q 40.234375 -1.421875 26.90625 -1.421875 
Q 22.3125 -1.421875 17.546875 -0.640625 
Q 12.796875 0.140625 7.71875 1.703125 
L 7.71875 11.625 
Q 12.109375 9.234375 16.796875 8.0625 
Q 21.484375 6.890625 26.703125 6.890625 
Q 35.15625 6.890625 40.078125 11.328125 
Q 45.015625 15.765625 45.015625 23.390625 
Q 45.015625 31 40.078125 35.4375 
Q 35.15625 39.890625 26.703125 39.890625 
Q 22.75 39.890625 18.8125 39.015625 
Q 14.890625 38.140625 10.796875 36.28125 
z
" id="DejaVuSans-35"/>
      </defs>
      <g transform="translate(108.7495 45.271219)scale(0.1 -0.1)">
       <use xlink:href="#DejaVuSans-35"/>
      </g>
     </g>
    </g>
   </g>
   <g id="line2d_16">
    <path clip-path="url(#p9c226f170a)" d="M 261.810243 223.844749 
L 254.716953 245.829455 
L 220.453272 183.440217 
L 220.067252 203.498155 
L 286.296624 181.077051 
L 255.511184 179.267592 
L 139.5184 203.175922 
L 208.207706 171.314649 
L 148.054738 282.077121 
L 180.680354 217.038049 
L 250.429466 250.202508 
L 221.811002 258.843702 
L 285.044396 255.466411 
L 259.679408 249.067116 
L 285.235712 217.754636 
L 294.118419 241.102047 
L 288.764408 220.957871 
L 292.694828 241.068597 
L 142.400771 69.897305 
L 209.587698 168.774101 
L 150.623568 136.42134 
" style="fill:none;stroke:#1f77b4;stroke-linecap:square;stroke-width:1.5;"/>
   </g>
   <g id="patch_45">
    <path d="M 122.112 307.584 
L 122.112 41.472 
" style="fill:none;stroke:#000000;stroke-linecap:square;stroke-linejoin:miter;stroke-width:0.8;"/>
   </g>
   <g id="patch_46">
    <path d="M 350.208 307.584 
L 350.208 41.472 
" style="fill:none;stroke:#000000;stroke-linecap:square;stroke-linejoin:miter;stroke-width:0.8;"/>
   </g>
   <g id="patch_47">
    <path d="M 122.112 307.584 
L 350.208 307.584 
" style="fill:none;stroke:#000000;stroke-linecap:square;stroke-linejoin:miter;stroke-width:0.8;"/>
   </g>
   <g id="patch_48">
    <path d="M 122.112 41.472 
L 350.208 41.472 
" style="fill:none;stroke:#000000;stroke-linecap:square;stroke-linejoin:miter;stroke-width:0.8;"/>
   </g>
  </g>
 </g>
 <defs>
  <clipPath id="p9c226f170a">
   <rect height="266.112" width="228.096" x="122.112" y="41.472"/>
  </clipPath>
 </defs>
</svg>
