<?xml version="1.0" encoding="utf-8" standalone="no"?>
<!DOCTYPE svg PUBLIC "-//W3C//DTD SVG 1.1//EN"
  "http://www.w3.org/Graphics/SVG/1.1/DTD/svg11.dtd">
<!-- Created with matplotlib (https://matplotlib.org/) -->
<svg height="345.6pt" version="1.1" viewBox="0 0 460.8 345.6" width="460.8pt" xmlns="http://www.w3.org/2000/svg" xmlns:xlink="http://www.w3.org/1999/xlink">
 <defs>
  <style type="text/css">
*{stroke-linecap:butt;stroke-linejoin:round;}
  </style>
 </defs>
 <g id="figure_1">
  <g id="patch_1">
   <path d="M 0 345.6 
L 460.8 345.6 
L 460.8 0 
L 0 0 
z
" style="fill:#ffffff;"/>
  </g>
  <g id="axes_1">
   <g id="patch_2">
    <path d="M 82.520165 307.584 
L 389.799835 307.584 
L 389.799835 41.472 
L 82.520165 41.472 
z
" style="fill:#ffffff;"/>
   </g>
   <g id="PathCollection_1">
    <defs>
     <path d="M 0 2.738613 
C 0.726289 2.738613 1.422928 2.450055 1.936492 1.936492 
C 2.450055 1.422928 2.738613 0.726289 2.738613 0 
C 2.738613 -0.726289 2.450055 -1.422928 1.936492 -1.936492 
C 1.422928 -2.450055 0.726289 -2.738613 0 -2.738613 
C -0.726289 -2.738613 -1.422928 -2.450055 -1.936492 -1.936492 
C -2.450055 -1.422928 -2.738613 -0.726289 -2.738613 0 
C -2.738613 0.726289 -2.450055 1.422928 -1.936492 1.936492 
C -1.422928 2.450055 -0.726289 2.738613 0 2.738613 
z
" id="m7e3305fcb9" style="stroke:#000000;"/>
    </defs>
    <g clip-path="url(#pec169faf13)">
     <use style="stroke:#000000;" x="117.116453" xlink:href="#m7e3305fcb9" y="190.098528"/>
    </g>
   </g>
   <g id="Quiver_1">
    <path clip-path="url(#pec169faf13)" d="M 117.158327 189.331471 
L 134.800639 190.294567 
L 134.11733 188.71858 
L 141.662279 191.438488 
L 133.866087 193.320922 
L 134.716892 191.828682 
L 117.074579 190.865585 
L 117.158327 189.331471 
"/>
   </g>
   <g id="patch_3">
    <path clip-path="url(#pec169faf13)" d="M 236.16 225.741278 
C 249.74192 225.741278 262.769389 220.345124 272.373256 210.741256 
C 281.977124 201.137389 287.373278 188.10992 287.373278 174.528 
C 287.373278 160.94608 281.977124 147.918611 272.373256 138.314744 
C 262.769389 128.710876 249.74192 123.314722 236.16 123.314722 
C 222.57808 123.314722 209.550611 128.710876 199.946744 138.314744 
C 190.342876 147.918611 184.946722 160.94608 184.946722 174.528 
C 184.946722 188.10992 190.342876 201.137389 199.946744 210.741256 
C 209.550611 220.345124 222.57808 225.741278 236.16 225.741278 
z
" style="fill:#009900;fill-opacity:0.5;stroke:#009900;stroke-linejoin:miter;stroke-width:2;"/>
   </g>
   <g id="matplotlib.axis_1">
    <g id="xtick_1">
     <g id="line2d_1">
      <defs>
       <path d="M 0 0 
L 0 3.5 
" id="mcb50fe1e7b" style="stroke:#000000;stroke-width:0.8;"/>
      </defs>
      <g>
       <use style="stroke:#000000;stroke-width:0.8;" x="108.126804" xlink:href="#mcb50fe1e7b" y="307.584"/>
      </g>
     </g>
     <g id="text_1">
      <!-- −2 -->
      <defs>
       <path d="M 10.59375 35.5 
L 73.1875 35.5 
L 73.1875 27.203125 
L 10.59375 27.203125 
z
" id="DejaVuSans-8722"/>
       <path d="M 19.1875 8.296875 
L 53.609375 8.296875 
L 53.609375 0 
L 7.328125 0 
L 7.328125 8.296875 
Q 12.9375 14.109375 22.625 23.890625 
Q 32.328125 33.6875 34.8125 36.53125 
Q 39.546875 41.84375 41.421875 45.53125 
Q 43.3125 49.21875 43.3125 52.78125 
Q 43.3125 58.59375 39.234375 62.25 
Q 35.15625 65.921875 28.609375 65.921875 
Q 23.96875 65.921875 18.8125 64.3125 
Q 13.671875 62.703125 7.8125 59.421875 
L 7.8125 69.390625 
Q 13.765625 71.78125 18.9375 73 
Q 24.125 74.21875 28.421875 74.21875 
Q 39.75 74.21875 46.484375 68.546875 
Q 53.21875 62.890625 53.21875 53.421875 
Q 53.21875 48.921875 51.53125 44.890625 
Q 49.859375 40.875 45.40625 35.40625 
Q 44.1875 33.984375 37.640625 27.21875 
Q 31.109375 20.453125 19.1875 8.296875 
z
" id="DejaVuSans-50"/>
      </defs>
      <g transform="translate(100.755711 322.182437)scale(0.1 -0.1)">
       <use xlink:href="#DejaVuSans-8722"/>
       <use x="83.789062" xlink:href="#DejaVuSans-50"/>
      </g>
     </g>
    </g>
    <g id="xtick_2">
     <g id="line2d_2">
      <g>
       <use style="stroke:#000000;stroke-width:0.8;" x="172.143402" xlink:href="#mcb50fe1e7b" y="307.584"/>
      </g>
     </g>
     <g id="text_2">
      <!-- −1 -->
      <defs>
       <path d="M 12.40625 8.296875 
L 28.515625 8.296875 
L 28.515625 63.921875 
L 10.984375 60.40625 
L 10.984375 69.390625 
L 28.421875 72.90625 
L 38.28125 72.90625 
L 38.28125 8.296875 
L 54.390625 8.296875 
L 54.390625 0 
L 12.40625 0 
z
" id="DejaVuSans-49"/>
      </defs>
      <g transform="translate(164.772308 322.182437)scale(0.1 -0.1)">
       <use xlink:href="#DejaVuSans-8722"/>
       <use x="83.789062" xlink:href="#DejaVuSans-49"/>
      </g>
     </g>
    </g>
    <g id="xtick_3">
     <g id="line2d_3">
      <g>
       <use style="stroke:#000000;stroke-width:0.8;" x="236.16" xlink:href="#mcb50fe1e7b" y="307.584"/>
      </g>
     </g>
     <g id="text_3">
      <!-- 0 -->
      <defs>
       <path d="M 31.78125 66.40625 
Q 24.171875 66.40625 20.328125 58.90625 
Q 16.5 51.421875 16.5 36.375 
Q 16.5 21.390625 20.328125 13.890625 
Q 24.171875 6.390625 31.78125 6.390625 
Q 39.453125 6.390625 43.28125 13.890625 
Q 47.125 21.390625 47.125 36.375 
Q 47.125 51.421875 43.28125 58.90625 
Q 39.453125 66.40625 31.78125 66.40625 
z
M 31.78125 74.21875 
Q 44.046875 74.21875 50.515625 64.515625 
Q 56.984375 54.828125 56.984375 36.375 
Q 56.984375 17.96875 50.515625 8.265625 
Q 44.046875 -1.421875 31.78125 -1.421875 
Q 19.53125 -1.421875 13.0625 8.265625 
Q 6.59375 17.96875 6.59375 36.375 
Q 6.59375 54.828125 13.0625 64.515625 
Q 19.53125 74.21875 31.78125 74.21875 
z
" id="DejaVuSans-48"/>
      </defs>
      <g transform="translate(232.97875 322.182437)scale(0.1 -0.1)">
       <use xlink:href="#DejaVuSans-48"/>
      </g>
     </g>
    </g>
    <g id="xtick_4">
     <g id="line2d_4">
      <g>
       <use style="stroke:#000000;stroke-width:0.8;" x="300.176598" xlink:href="#mcb50fe1e7b" y="307.584"/>
      </g>
     </g>
     <g id="text_4">
      <!-- 1 -->
      <g transform="translate(296.995348 322.182437)scale(0.1 -0.1)">
       <use xlink:href="#DejaVuSans-49"/>
      </g>
     </g>
    </g>
    <g id="xtick_5">
     <g id="line2d_5">
      <g>
       <use style="stroke:#000000;stroke-width:0.8;" x="364.193196" xlink:href="#mcb50fe1e7b" y="307.584"/>
      </g>
     </g>
     <g id="text_5">
      <!-- 2 -->
      <g transform="translate(361.011946 322.182437)scale(0.1 -0.1)">
       <use xlink:href="#DejaVuSans-50"/>
      </g>
     </g>
    </g>
   </g>
   <g id="matplotlib.axis_2">
    <g id="ytick_1">
     <g id="line2d_6">
      <defs>
       <path d="M 0 0 
L -3.5 0 
" id="m44c3904f20" style="stroke:#000000;stroke-width:0.8;"/>
      </defs>
      <g>
       <use style="stroke:#000000;stroke-width:0.8;" x="82.520165" xlink:href="#m44c3904f20" y="302.561196"/>
      </g>
     </g>
     <g id="text_6">
      <!-- −2.0 -->
      <defs>
       <path d="M 10.6875 12.40625 
L 21 12.40625 
L 21 0 
L 10.6875 0 
z
" id="DejaVuSans-46"/>
      </defs>
      <g transform="translate(51.237353 306.360414)scale(0.1 -0.1)">
       <use xlink:href="#DejaVuSans-8722"/>
       <use x="83.789062" xlink:href="#DejaVuSans-50"/>
       <use x="147.412109" xlink:href="#DejaVuSans-46"/>
       <use x="179.199219" xlink:href="#DejaVuSans-48"/>
      </g>
     </g>
    </g>
    <g id="ytick_2">
     <g id="line2d_7">
      <g>
       <use style="stroke:#000000;stroke-width:0.8;" x="82.520165" xlink:href="#m44c3904f20" y="270.552897"/>
      </g>
     </g>
     <g id="text_7">
      <!-- −1.5 -->
      <defs>
       <path d="M 10.796875 72.90625 
L 49.515625 72.90625 
L 49.515625 64.59375 
L 19.828125 64.59375 
L 19.828125 46.734375 
Q 21.96875 47.46875 24.109375 47.828125 
Q 26.265625 48.1875 28.421875 48.1875 
Q 40.625 48.1875 47.75 41.5 
Q 54.890625 34.8125 54.890625 23.390625 
Q 54.890625 11.625 47.5625 5.09375 
Q 40.234375 -1.421875 26.90625 -1.421875 
Q 22.3125 -1.421875 17.546875 -0.640625 
Q 12.796875 0.140625 7.71875 1.703125 
L 7.71875 11.625 
Q 12.109375 9.234375 16.796875 8.0625 
Q 21.484375 6.890625 26.703125 6.890625 
Q 35.15625 6.890625 40.078125 11.328125 
Q 45.015625 15.765625 45.015625 23.390625 
Q 45.015625 31 40.078125 35.4375 
Q 35.15625 39.890625 26.703125 39.890625 
Q 22.75 39.890625 18.8125 39.015625 
Q 14.890625 38.140625 10.796875 36.28125 
z
" id="DejaVuSans-53"/>
      </defs>
      <g transform="translate(51.237353 274.352116)scale(0.1 -0.1)">
       <use xlink:href="#DejaVuSans-8722"/>
       <use x="83.789062" xlink:href="#DejaVuSans-49"/>
       <use x="147.412109" xlink:href="#DejaVuSans-46"/>
       <use x="179.199219" xlink:href="#DejaVuSans-53"/>
      </g>
     </g>
    </g>
    <g id="ytick_3">
     <g id="line2d_8">
      <g>
       <use style="stroke:#000000;stroke-width:0.8;" x="82.520165" xlink:href="#m44c3904f20" y="238.544598"/>
      </g>
     </g>
     <g id="text_8">
      <!-- −1.0 -->
      <g transform="translate(51.237353 242.343817)scale(0.1 -0.1)">
       <use xlink:href="#DejaVuSans-8722"/>
       <use x="83.789062" xlink:href="#DejaVuSans-49"/>
       <use x="147.412109" xlink:href="#DejaVuSans-46"/>
       <use x="179.199219" xlink:href="#DejaVuSans-48"/>
      </g>
     </g>
    </g>
    <g id="ytick_4">
     <g id="line2d_9">
      <g>
       <use style="stroke:#000000;stroke-width:0.8;" x="82.520165" xlink:href="#m44c3904f20" y="206.536299"/>
      </g>
     </g>
     <g id="text_9">
      <!-- −0.5 -->
      <g transform="translate(51.237353 210.335518)scale(0.1 -0.1)">
       <use xlink:href="#DejaVuSans-8722"/>
       <use x="83.789062" xlink:href="#DejaVuSans-48"/>
       <use x="147.412109" xlink:href="#DejaVuSans-46"/>
       <use x="179.199219" xlink:href="#DejaVuSans-53"/>
      </g>
     </g>
    </g>
    <g id="ytick_5">
     <g id="line2d_10">
      <g>
       <use style="stroke:#000000;stroke-width:0.8;" x="82.520165" xlink:href="#m44c3904f20" y="174.528"/>
      </g>
     </g>
     <g id="text_10">
      <!-- 0.0 -->
      <g transform="translate(59.61704 178.327219)scale(0.1 -0.1)">
       <use xlink:href="#DejaVuSans-48"/>
       <use x="63.623047" xlink:href="#DejaVuSans-46"/>
       <use x="95.410156" xlink:href="#DejaVuSans-48"/>
      </g>
     </g>
    </g>
    <g id="ytick_6">
     <g id="line2d_11">
      <g>
       <use style="stroke:#000000;stroke-width:0.8;" x="82.520165" xlink:href="#m44c3904f20" y="142.519701"/>
      </g>
     </g>
     <g id="text_11">
      <!-- 0.5 -->
      <g transform="translate(59.61704 146.31892)scale(0.1 -0.1)">
       <use xlink:href="#DejaVuSans-48"/>
       <use x="63.623047" xlink:href="#DejaVuSans-46"/>
       <use x="95.410156" xlink:href="#DejaVuSans-53"/>
      </g>
     </g>
    </g>
    <g id="ytick_7">
     <g id="line2d_12">
      <g>
       <use style="stroke:#000000;stroke-width:0.8;" x="82.520165" xlink:href="#m44c3904f20" y="110.511402"/>
      </g>
     </g>
     <g id="text_12">
      <!-- 1.0 -->
      <g transform="translate(59.61704 114.310621)scale(0.1 -0.1)">
       <use xlink:href="#DejaVuSans-49"/>
       <use x="63.623047" xlink:href="#DejaVuSans-46"/>
       <use x="95.410156" xlink:href="#DejaVuSans-48"/>
      </g>
     </g>
    </g>
    <g id="ytick_8">
     <g id="line2d_13">
      <g>
       <use style="stroke:#000000;stroke-width:0.8;" x="82.520165" xlink:href="#m44c3904f20" y="78.503103"/>
      </g>
     </g>
     <g id="text_13">
      <!-- 1.5 -->
      <g transform="translate(59.61704 82.302322)scale(0.1 -0.1)">
       <use xlink:href="#DejaVuSans-49"/>
       <use x="63.623047" xlink:href="#DejaVuSans-46"/>
       <use x="95.410156" xlink:href="#DejaVuSans-53"/>
      </g>
     </g>
    </g>
    <g id="ytick_9">
     <g id="line2d_14">
      <g>
       <use style="stroke:#000000;stroke-width:0.8;" x="82.520165" xlink:href="#m44c3904f20" y="46.494804"/>
      </g>
     </g>
     <g id="text_14">
      <!-- 2.0 -->
      <g transform="translate(59.61704 50.294023)scale(0.1 -0.1)">
       <use xlink:href="#DejaVuSans-50"/>
       <use x="63.623047" xlink:href="#DejaVuSans-46"/>
       <use x="95.410156" xlink:href="#DejaVuSans-48"/>
      </g>
     </g>
    </g>
   </g>
   <g id="line2d_15">
    <path clip-path="url(#pec169faf13)" d="M 300.176598 63.648 
L 172.143402 63.648 
" style="fill:none;stroke:#009900;stroke-linecap:square;stroke-width:2;"/>
   </g>
   <g id="line2d_16">
    <path clip-path="url(#pec169faf13)" d="M 172.143402 63.648 
L 108.126804 174.528 
" style="fill:none;stroke:#009900;stroke-linecap:square;stroke-width:2;"/>
   </g>
   <g id="line2d_17">
    <path clip-path="url(#pec169faf13)" d="M 108.126804 174.528 
L 172.143402 285.408 
" style="fill:none;stroke:#009900;stroke-linecap:square;stroke-width:2;"/>
   </g>
   <g id="line2d_18">
    <path clip-path="url(#pec169faf13)" d="M 172.143402 285.408 
L 300.176598 285.408 
" style="fill:none;stroke:#009900;stroke-linecap:square;stroke-width:2;"/>
   </g>
   <g id="line2d_19">
    <path clip-path="url(#pec169faf13)" d="M 300.176598 285.408 
L 364.193196 174.528 
" style="fill:none;stroke:#009900;stroke-linecap:square;stroke-width:2;"/>
   </g>
   <g id="line2d_20">
    <path clip-path="url(#pec169faf13)" d="M 364.193196 174.528 
L 300.176598 63.648 
" style="fill:none;stroke:#009900;stroke-linecap:square;stroke-width:2;"/>
   </g>
   <g id="line2d_21">
    <path clip-path="url(#pec169faf13)" d="M 210.681911 88.896252 
L 211.305196 93.979167 
L 212.131246 99.03309 
L 213.158737 104.049938 
L 214.386027 109.021684 
L 215.811152 113.940375 
L 217.431832 118.798142 
L 219.245475 123.587213 
L 220.187866 125.869077 
L 218.905866 120.911156 
L 217.426627 116.008468 
L 215.752516 111.168855 
L 213.886211 106.40006 
L 211.830698 101.709711 
L 209.589265 97.105313 
L 207.165498 92.594231 
L 204.563275 88.183683 
L 201.786759 83.880724 
L 198.840391 79.692237 
L 195.728885 75.624925 
L 192.457219 71.685292 
L 189.030627 67.879643 
L 185.45459 64.214065 
L 184.876168 63.648 
L 181.277031 67.2909 
L 177.826451 71.074813 
L 174.529947 74.993686 
L 171.392793 79.041249 
L 168.420008 83.211027 
L 165.616348 87.49635 
L 162.986297 91.890361 
L 160.534064 96.386032 
L 158.263571 100.976169 
L 156.17845 105.653431 
L 154.282038 110.410333 
L 152.577369 115.239267 
L 151.067169 120.132507 
L 149.753854 125.082225 
L 148.639526 130.080502 
L 147.725966 135.119343 
L 147.014638 140.190685 
L 146.506678 145.286416 
L 146.202899 150.398385 
L 146.103787 155.518412 
L 146.209502 160.638307 
L 146.519872 165.749879 
L 147.034403 170.844952 
L 147.752271 175.915372 
L 148.672328 180.95303 
L 149.793101 185.949866 
L 151.112797 190.897886 
L 152.629307 195.789175 
L 154.340202 200.615906 
L 156.242747 205.37036 
L 158.333897 210.044928 
L 160.610308 214.632134 
L 163.068336 219.124638 
L 165.704051 223.515254 
L 168.513236 227.796958 
L 171.491396 231.962899 
L 174.633767 236.006413 
L 177.935322 239.921032 
L 181.390779 243.700492 
L 184.99461 247.338747 
L 188.741049 250.829978 
L 192.624104 254.168598 
L 196.637562 257.349267 
L 200.775003 260.366897 
L 205.029807 263.216659 
L 209.395168 265.893994 
L 213.864102 268.394621 
L 218.42946 270.714537 
L 223.083937 272.850032 
L 227.820089 274.79769 
L 232.630338 276.554393 
L 237.506988 278.117334 
L 242.442239 279.48401 
L 247.428194 280.652235 
L 252.456878 281.620141 
L 257.520245 282.386179 
L 262.610196 282.949123 
L 267.718586 283.308074 
L 272.837245 283.462456 
L 277.957983 283.412023 
L 283.072608 283.156855 
L 288.172939 282.697361 
L 293.250814 282.034276 
L 298.298112 281.16866 
L 303.229679 280.119909 
L 301.646188 275.249893 
L 299.869215 270.447095 
L 297.901602 265.719198 
L 295.746498 261.073767 
L 293.40735 256.518234 
L 290.887901 252.059885 
L 288.19218 247.705853 
L 285.324501 243.463104 
L 282.289451 239.338425 
L 279.091886 235.338416 
L 275.73692 231.469474 
L 272.229922 227.73779 
L 268.576501 224.149334 
L 264.782503 220.709846 
L 262.275139 218.582505 
L 263.343425 223.590824 
L 264.611135 228.552418 
L 266.076242 233.459348 
L 267.736402 238.303765 
L 269.588959 243.077917 
L 271.63095 247.774169 
L 273.859107 252.385006 
L 276.269866 256.903052 
L 278.85937 261.32108 
L 281.623477 265.632021 
L 284.557765 269.828979 
L 287.657539 273.90524 
L 290.917841 277.854282 
L 294.333454 281.669788 
L 297.9619 285.408 
L 301.529904 281.734603 
L 303.626867 279.431958 
L 305.143539 274.54072 
L 306.463401 269.592744 
L 307.58434 264.595945 
L 308.504564 259.558318 
L 309.2226 254.487921 
L 309.737301 249.392866 
L 310.047842 244.281304 
L 310.153726 239.161412 
L 310.054785 234.041382 
L 309.751176 228.929403 
L 309.243386 223.833655 
L 308.532226 218.762289 
L 307.618834 213.723418 
L 306.504672 208.725104 
L 305.191522 203.775342 
L 303.681485 198.882052 
L 301.976976 194.053062 
L 300.080722 189.296096 
L 297.995757 184.618765 
L 295.725417 180.028552 
L 293.273333 175.5328 
L 290.643429 171.138701 
L 287.839911 166.853285 
L 286.453238 164.864144 
L 287.563731 159.865014 
L 288.473425 154.825474 
L 289.180863 149.753587 
L 289.684913 144.657468 
L 289.98477 139.545268 
L 290.079954 134.425166 
L 289.970312 129.305354 
L 289.65602 124.194021 
L 289.137581 119.099345 
L 288.415824 114.029476 
L 287.491903 108.992526 
L 286.367297 103.996551 
L 285.043805 99.049545 
L 283.523544 94.159421 
L 281.808946 89.334004 
L 279.902754 84.581011 
L 277.808019 79.908048 
L 275.52809 75.32259 
L 273.066615 70.831973 
L 270.427533 66.44338 
L 268.618317 63.648 
L 265.866002 67.966479 
L 263.288582 72.391568 
L 260.890179 76.916186 
L 258.674632 81.533095 
L 256.645484 86.234909 
L 254.805981 91.014107 
L 253.159067 95.863043 
L 251.707376 100.773959 
L 250.45323 105.738998 
L 249.398636 110.750219 
L 248.545281 115.799604 
L 247.894531 120.879075 
L 247.548374 124.597 
L 249.305494 119.786903 
L 250.868856 114.910387 
L 252.235958 109.975255 
L 253.404615 104.989401 
L 254.372956 99.960801 
L 255.139431 94.8975 
L 255.702816 89.807598 
L 256.062208 84.699238 
L 256.217033 79.580593 
L 256.167043 74.45985 
L 255.912317 69.345203 
L 255.453264 64.244833 
L 255.386073 63.648 
L 254.9031 68.74616 
L 254.624384 73.859556 
L 254.550373 78.980008 
L 254.681185 84.099323 
L 255.01661 89.209313 
L 255.556112 94.301801 
L 256.298827 99.368642 
L 257.243568 104.401729 
L 258.388823 109.393011 
L 259.73276 114.334502 
L 261.273229 119.218298 
L 263.007766 124.036584 
L 264.933595 128.781653 
L 267.222379 133.810332 
L 272.276904 134.632691 
L 277.360272 135.252265 
L 282.46435 135.668063 
L 287.580973 135.87942 
L 292.701955 135.885997 
L 297.819104 135.687785 
L 302.924234 135.285099 
L 308.009177 134.678585 
L 313.065798 133.869213 
L 318.086008 132.858277 
L 323.061776 131.647395 
L 327.985141 130.238504 
L 332.848228 128.633858 
L 336.840778 127.152222 
L 332.908302 130.432488 
L 329.110148 133.867386 
L 325.452392 137.451423 
L 321.940884 141.178864 
L 318.581243 145.043746 
L 315.378844 149.039887 
L 312.338809 153.160892 
L 309.466002 157.400171 
L 306.765019 161.75094 
L 304.240181 166.20624 
L 301.895527 170.758942 
L 299.734808 175.401764 
L 297.76148 180.127278 
L 295.978702 184.927924 
L 294.389324 189.796022 
L 292.995889 194.723784 
L 291.800627 199.703327 
L 290.805449 204.726685 
L 290.011948 209.785821 
L 289.421394 214.872642 
L 289.03473 219.97901 
L 288.852576 225.096756 
L 288.875223 230.217692 
L 289.102635 235.333627 
L 289.534447 240.436375 
L 290.16997 245.517774 
L 291.008186 250.569694 
L 292.047754 255.584053 
L 293.287012 260.55283 
L 294.723977 265.468075 
L 296.356349 270.321925 
L 298.181518 275.106615 
L 300.196564 279.814491 
L 301.633299 282.884919 
L 296.534299 283.358947 
L 291.458334 284.036502 
L 286.413525 284.916499 
L 284.016634 285.408 
L 278.989562 284.43176 
L 273.927472 283.657329 
L 268.838461 283.085948 
L 263.730673 282.71853 
L 258.612277 282.555663 
L 253.491462 282.597607 
L 248.376421 282.844296 
L 243.275336 283.295335 
L 238.196368 283.950002 
L 233.147643 284.80725 
L 230.184048 285.408 
L 225.156976 284.43176 
L 220.094886 283.657329 
L 215.005875 283.085948 
L 209.898087 282.71853 
L 204.779691 282.555663 
L 199.658876 282.597607 
L 194.543835 282.844296 
L 189.44275 283.295335 
L 184.363782 283.950002 
L 179.315057 284.80725 
L 176.351462 285.408 
L 171.608414 284.481373 
L 173.265593 279.635936 
L 174.727682 274.728106 
L 175.99234 269.765733 
L 177.057544 264.756757 
L 177.921591 259.709191 
L 178.583097 254.631109 
L 179.041006 249.530637 
L 179.294584 244.415932 
L 179.343425 239.295179 
L 179.187452 234.176568 
L 178.826913 229.068289 
L 178.262387 223.978514 
L 177.494775 218.915385 
L 176.525306 213.887003 
L 175.355531 208.901411 
L 173.987321 203.966585 
L 172.422865 199.090421 
L 170.664665 194.280718 
L 168.715536 189.545172 
L 166.578594 184.891358 
L 164.257259 180.326722 
L 161.755243 175.858566 
L 159.076551 171.494037 
L 156.225466 167.240119 
L 153.206551 163.103617 
L 150.024635 159.091148 
L 146.684807 155.209131 
L 143.192412 151.463776 
L 139.553037 147.861076 
L 135.772503 144.406795 
L 131.856858 141.106457 
L 128.804952 138.712397 
L 133.566005 140.598365 
L 138.398669 142.292433 
L 143.295211 143.791891 
L 148.247799 145.094339 
L 153.24851 146.197696 
L 158.289343 147.100195 
L 163.362234 147.800392 
L 168.459068 148.297167 
L 173.571691 148.589727 
L 178.691923 148.677602 
L 183.811574 148.560652 
L 188.922453 148.239064 
L 192.412932 147.90106 
L 190.479994 143.158882 
L 188.358965 138.497795 
L 186.05324 133.925254 
L 183.566506 129.448575 
L 180.902741 125.074919 
L 178.066208 120.811285 
L 175.061444 116.664491 
L 171.893255 112.641174 
L 168.566712 108.747768 
L 165.087134 104.990503 
L 161.460089 101.375389 
L 157.691379 97.90821 
L 154.119481 94.866348 
L 158.947156 96.574578 
L 163.839281 98.088387 
L 168.788029 99.405352 
L 173.785483 100.523367 
L 178.823648 101.440642 
L 183.894464 102.155711 
L 188.989819 102.667429 
L 194.101562 102.974978 
L 199.221515 103.077866 
L 204.341487 102.975928 
L 209.453287 102.669327 
L 214.548737 102.158554 
L 219.619686 101.444426 
L 224.658021 100.528086 
L 229.655682 99.410998 
L 234.604674 98.094951 
L 239.49708 96.58205 
L 244.325072 94.874715 
L 249.080927 92.975678 
L 253.757037 90.887976 
L 258.34592 88.614949 
L 262.840237 86.160234 
L 267.232795 83.527758 
L 271.516569 80.721732 
L 275.684706 77.746646 
L 279.730537 74.607258 
L 283.647589 71.308591 
L 287.429597 67.855923 
L 291.070509 64.254776 
L 291.656058 63.648 
L 295.273174 67.273048 
L 299.032361 70.75055 
L 302.927603 74.074943 
L 306.95267 77.240908 
L 308.824902 78.627302 
L 309.461827 83.708525 
L 310.301438 88.760213 
L 311.342391 93.774285 
L 312.583021 98.742719 
L 314.021343 103.657568 
L 315.655055 108.510967 
L 317.481545 113.295153 
L 319.497891 118.002472 
L 321.700866 122.625393 
L 324.086947 127.156521 
L 326.652316 131.588607 
L 329.392869 135.91456 
L 332.304221 140.12746 
L 335.381716 144.220567 
L 338.620431 148.187334 
L 342.015182 152.021413 
L 345.560541 155.716671 
L 349.250834 159.267197 
L 353.080159 162.667311 
L 357.04239 165.911572 
L 360.90318 168.829526 
L 361.540106 173.910749 
L 362.200145 177.980066 
L 357.419624 179.816129 
L 352.716351 181.841893 
L 348.097848 184.054118 
L 343.571506 186.449264 
L 339.144564 189.023499 
L 334.824105 191.772706 
L 330.617041 194.692486 
L 326.530103 197.778168 
L 322.569828 201.024816 
L 318.742552 204.427236 
L 315.054398 207.979984 
L 311.511266 211.677378 
L 308.118824 215.513501 
L 304.8825 219.482217 
L 301.807471 223.577178 
L 298.898657 227.791831 
L 296.16071 232.119434 
L 293.598012 236.553064 
L 291.214661 241.085629 
L 289.014471 245.709877 
L 287.000962 250.418409 
L 285.177354 255.203695 
L 283.546565 260.058077 
L 282.111204 264.973791 
L 280.873568 269.942972 
L 279.835635 274.95767 
L 278.999068 280.009863 
L 278.332532 285.408 
L 278.266004 284.771301 
L 277.619363 279.691305 
L 276.770094 274.641232 
L 275.719555 269.629159 
L 274.469427 264.663106 
L 273.021709 259.751017 
L 271.378719 254.900751 
L 269.543084 250.120066 
L 267.51774 245.416612 
L 265.305929 240.797911 
L 262.911188 236.271354 
L 260.337349 231.844182 
L 257.588529 227.523477 
L 254.669126 223.316152 
L 254.076963 222.504894 
L 254.590075 227.600109 
L 255.306531 232.670729 
L 256.225185 237.708643 
L 257.344566 242.705791 
L 258.662885 247.654178 
L 260.178032 252.545889 
L 261.887584 257.373097 
L 263.788805 262.12808 
L 265.878653 266.80323 
L 268.153787 271.39107 
L 270.610564 275.884258 
L 273.245057 280.275608 
L 276.053049 284.558093 
L 276.640008 285.408 
L 279.482457 281.148307 
L 282.15229 276.778353 
L 284.645236 272.30513 
L 286.957306 267.735794 
L 289.084803 263.077655 
L 291.024322 258.338165 
L 292.77276 253.524906 
L 294.327321 248.645578 
L 295.685517 243.707986 
L 296.845176 238.720032 
L 297.804442 233.689693 
L 298.561781 228.625017 
L 299.115981 223.534107 
L 299.466156 218.425107 
L 299.611745 213.306191 
L 299.552515 208.185547 
L 299.288562 203.071368 
L 298.820308 197.971834 
L 298.148501 192.895105 
L 297.274216 187.849302 
L 296.198853 182.842497 
L 294.92413 177.882701 
L 293.452089 172.977846 
L 291.785083 168.135781 
L 289.925779 163.364252 
L 287.877153 158.670892 
L 285.642481 154.063209 
L 283.225338 149.548574 
L 280.629591 145.134211 
L 277.859393 140.827181 
L 274.919176 136.634375 
L 271.813644 132.5625 
L 268.547763 128.61807 
L 265.12676 124.807395 
L 261.556107 121.136573 
L 257.841517 117.611474 
L 253.988931 114.23774 
L 250.004514 111.020766 
L 245.894639 107.9657 
L 241.665881 105.077428 
L 237.325006 102.360572 
L 232.878958 99.819478 
L 228.33485 97.458211 
L 223.699951 95.280549 
L 218.981676 93.289975 
L 214.187574 91.489674 
L 209.325313 89.882526 
L 204.402673 88.471102 
L 199.427529 87.257661 
L 194.407839 86.244142 
L 189.351635 85.432169 
L 184.267005 84.823039 
L 179.162084 84.417727 
L 174.045037 84.216882 
L 168.924052 84.220825 
L 163.807321 84.429549 
L 159.977299 84.720309 
L 162.21778 89.32517 
L 164.640614 93.836753 
L 167.241925 98.247839 
L 170.017552 102.551372 
L 172.963055 106.740467 
L 176.07372 110.808423 
L 179.344572 114.748731 
L 182.770378 118.555088 
L 186.345657 122.221405 
L 190.06469 125.741817 
L 193.921527 129.11069 
L 197.909998 132.322637 
L 202.023723 135.372518 
L 202.640322 135.808095 
L 200.237717 131.285707 
L 197.656187 126.863015 
L 194.899861 122.547095 
L 191.973149 118.34485 
L 188.880733 114.263004 
L 185.627561 110.308087 
L 182.218836 106.486425 
L 178.660012 102.804133 
L 174.956782 99.267102 
L 171.115071 95.880989 
L 167.141025 92.651213 
L 163.041001 89.582939 
L 158.838721 86.692384 
L 159.411748 86.977782 
L 164.045864 89.15711 
L 168.763423 91.14938 
L 173.556878 92.951404 
L 178.41856 94.5603 
L 183.340692 95.973493 
L 188.3154 97.188723 
L 193.334725 98.204046 
L 198.390637 99.017837 
L 203.475048 99.628795 
L 208.579823 100.035941 
L 213.696797 100.238626 
L 218.817783 100.236524 
L 223.934589 100.029639 
L 229.039028 99.618301 
L 234.122936 99.00317 
L 239.178178 98.185229 
L 244.196668 97.165786 
L 249.170376 95.946472 
L 254.091347 94.529239 
L 258.951707 92.916352 
L 263.743681 91.110394 
L 268.459603 89.114252 
L 273.091928 86.93112 
L 277.633246 84.564491 
L 282.076291 82.01815 
L 286.413956 79.296172 
L 290.639301 76.402911 
L 294.745567 73.342996 
L 298.726185 70.121321 
L 302.174053 67.107694 
L 297.331076 68.772049 
L 292.55853 70.628741 
L 287.864049 72.674798 
L 283.255144 74.906947 
L 278.739187 77.321619 
L 274.323404 79.914949 
L 270.014858 82.682788 
L 265.820443 85.62071 
L 261.746868 88.724013 
L 257.800651 91.987734 
L 253.988105 95.406651 
L 250.315328 98.975294 
L 246.788197 102.687954 
L 243.412354 106.538693 
L 240.1932 110.521348 
L 237.135884 114.62955 
L 234.245298 118.856726 
L 231.318326 123.5441 
L 227.842778 119.783107 
L 224.219611 116.164107 
L 220.45462 112.69289 
L 216.553829 109.37501 
L 212.523479 106.215773 
L 208.370016 103.220234 
L 204.100087 100.393186 
L 199.720521 97.739151 
L 195.238325 95.262374 
L 190.66067 92.966819 
L 185.994878 90.856157 
L 181.248415 88.933765 
L 176.428873 87.202719 
L 171.543963 85.665788 
L 166.6015 84.325431 
L 161.60939 83.183792 
L 160.943239 83.047252 
L 164.408003 86.818182 
L 168.020793 90.447541 
L 171.775829 93.929524 
L 175.667104 97.258561 
L 179.688392 100.429325 
L 183.83326 103.436744 
L 188.095077 106.276007 
L 192.467026 108.942572 
L 196.942112 111.432172 
L 201.513175 113.740826 
L 206.172904 115.864838 
L 210.913843 117.800813 
L 215.728408 119.545652 
L 220.608897 121.096564 
L 225.547503 122.451068 
L 230.590708 123.618444 
L 235.212574 121.413257 
L 239.74256 119.025009 
L 244.173418 116.45752 
L 248.498059 113.714897 
L 252.709566 110.801529 
L 256.8012 107.722075 
L 260.766416 104.481464 
L 264.59887 101.084878 
L 268.292431 97.537751 
L 271.841191 93.845759 
L 275.239472 90.014808 
L 278.481838 86.051026 
L 281.5631 81.960754 
L 284.478331 77.750537 
L 287.222867 73.427109 
L 289.792316 68.997387 
L 292.182568 64.468458 
L 292.591149 63.648 
L 294.948918 68.193924 
L 297.48659 72.641926 
L 300.200105 76.984891 
L 303.085121 81.21587 
L 306.137024 85.328094 
L 309.35093 89.314986 
L 312.721699 93.170167 
L 316.243938 96.887469 
L 319.912012 100.460946 
L 323.092328 103.339209 
L 324.186045 108.342037 
L 325.478947 113.297126 
L 326.968965 118.196549 
L 328.653716 123.032469 
L 330.530504 127.797148 
L 332.596328 132.482964 
L 334.847882 137.082421 
L 337.281564 141.588161 
L 339.893481 145.992976 
L 342.679454 150.289818 
L 345.635027 154.471814 
L 348.755471 158.532274 
L 352.035794 162.464701 
L 355.470748 166.262805 
L 359.054838 169.920509 
L 362.78233 173.431962 
L 364.13117 174.635432 
L 359.247693 173.093954 
L 354.306479 171.748997 
L 349.315434 170.602711 
L 344.282542 169.65693 
L 339.215855 168.913168 
L 334.123478 168.372615 
L 329.013558 168.036135 
L 323.89427 167.904266 
L 318.773803 167.977219 
L 313.660349 168.254878 
L 308.562089 168.736799 
L 303.487179 169.42221 
L 298.443738 170.310015 
L 293.439833 171.398794 
L 288.48347 172.686805 
L 287.350808 173.011094 
L 292.365398 174.049553 
L 297.417503 174.886652 
L 302.499042 175.52105 
L 307.601886 175.951734 
L 312.717871 176.178013 
L 317.838812 176.199527 
L 322.956517 176.016241 
L 328.062799 175.628448 
L 333.149489 175.036768 
L 338.20845 174.242147 
L 343.231587 173.245859 
L 348.210866 172.049495 
L 353.13832 170.65497 
L 358.006066 169.064515 
L 360.516069 168.159031 
L 356.63437 171.499226 
L 352.889347 174.991977 
L 349.286993 178.631695 
L 345.83307 182.412557 
L 342.533104 186.328515 
L 339.392374 190.373304 
L 336.415905 194.540453 
L 333.608458 198.823296 
L 330.974525 203.214981 
L 328.518319 207.708483 
L 326.243771 212.296612 
L 324.154517 216.972029 
L 322.253902 221.727254 
L 320.544966 226.554679 
L 319.030442 231.446583 
L 317.712753 236.395138 
L 316.594008 241.392428 
L 315.675996 246.430459 
L 314.960185 251.501171 
L 314.447722 256.596451 
L 314.161543 261.185364 
L 309.900404 264.025644 
L 305.756253 267.034052 
L 301.735722 270.205775 
L 297.845242 273.53574 
L 294.091037 277.018619 
L 290.479113 280.64884 
L 287.015248 284.420596 
L 286.153145 285.408 
L 282.728077 281.600979 
L 279.153507 277.93397 
L 275.435156 274.412839 
L 271.578971 271.043219 
L 267.591122 267.8305 
L 263.477988 264.779823 
L 259.24615 261.896067 
L 254.902377 259.183846 
L 250.453619 256.6475 
L 245.906993 254.291085 
L 241.269772 252.118371 
L 236.549375 250.132835 
L 231.753354 248.337653 
L 226.88938 246.735696 
L 221.965237 245.329528 
L 216.9888 244.121397 
L 211.968031 243.113238 
L 206.910963 242.306662 
L 201.825686 241.70296 
L 196.720335 241.303098 
L 191.603077 241.107715 
L 186.482099 241.117124 
L 181.365594 241.331311 
L 176.261746 241.749931 
L 171.178722 242.372316 
L 166.124652 243.19747 
L 161.107622 244.224073 
L 156.135659 245.450483 
L 151.216715 246.874737 
L 150.100161 247.227986 
L 153.825369 243.71411 
L 157.40708 240.054076 
L 160.839563 236.253739 
L 164.117328 232.31918 
L 167.235131 228.256692 
L 170.187983 224.072774 
L 172.971162 219.774121 
L 175.580214 215.367609 
L 178.010966 210.860287 
L 180.259528 206.259367 
L 182.322304 201.572208 
L 184.195994 196.80631 
L 185.8776 191.969296 
L 186.920351 188.60837 
L 183.025639 185.283356 
L 179.001077 182.116748 
L 174.853104 179.113613 
L 170.588355 176.278754 
L 166.213654 173.616708 
L 161.735999 171.131732 
L 157.162552 168.827803 
L 152.500632 166.708606 
L 147.757695 164.77753 
L 142.941329 163.037667 
L 138.059241 161.491798 
L 133.119239 160.142397 
L 128.129226 158.991623 
L 123.097187 158.041317 
L 118.074264 157.298494 
L 121.256696 161.310554 
L 124.597023 165.192142 
L 128.089899 168.937047 
L 131.729738 172.539279 
L 135.510716 175.993075 
L 139.426785 179.29291 
L 143.471679 182.433504 
L 147.638928 185.409833 
L 151.921866 188.217136 
L 156.313639 190.850921 
L 160.807223 193.306976 
L 165.395429 195.581371 
L 170.070916 197.670467 
L 174.826205 199.570922 
L 179.653688 201.279697 
L 184.545642 202.794056 
L 189.494241 204.111579 
L 194.491569 205.230156 
L 195.289877 205.389511 
L 194.965322 210.500203 
L 194.8454 215.619785 
L 194.930303 220.740067 
L 195.219894 225.852859 
L 195.713712 230.94998 
L 196.410964 236.023277 
L 197.310537 241.064633 
L 198.41099 246.065983 
L 199.710564 251.019327 
L 201.207179 255.916739 
L 202.898442 260.750385 
L 204.781646 265.512532 
L 206.853778 270.195562 
L 209.111524 274.791982 
L 211.551273 279.294441 
L 214.16912 283.695734 
L 215.253376 285.408 
L 217.940563 281.048696 
L 220.451275 276.585421 
L 222.781494 272.025313 
L 224.927495 267.37567 
L 226.885842 262.643928 
L 228.653404 257.837659 
L 230.227352 252.96455 
L 231.60517 248.032398 
L 232.784651 243.049094 
L 233.76391 238.022609 
L 234.54138 232.960984 
L 235.115817 227.872318 
L 235.295924 225.733988 
L 235.32434 226.373523 
L 235.666694 231.483053 
L 236.213102 236.574805 
L 236.962688 241.640634 
L 237.914254 246.672435 
L 239.066277 251.662159 
L 240.416914 256.601823 
L 241.964005 261.483525 
L 243.705075 266.299454 
L 245.637337 271.041908 
L 247.757701 275.703298 
L 250.062776 280.276167 
L 252.548872 284.7532 
L 252.932413 285.408 
L 255.445001 280.945781 
L 257.777139 276.386654 
L 259.925094 271.737913 
L 261.885431 267.006996 
L 263.655014 262.20147 
L 265.231011 257.329023 
L 266.610903 252.397451 
L 267.79248 247.414643 
L 268.773852 242.38857 
L 269.553451 237.327273 
L 270.130028 232.238849 
L 270.502661 227.131438 
L 270.670753 222.013211 
L 270.634038 216.892356 
L 270.443633 212.573136 
L 275.510985 213.312355 
L 280.603845 213.848342 
L 285.714065 214.180241 
L 290.833469 214.30752 
L 295.953868 214.229975 
L 301.067071 213.947732 
L 306.164897 213.46124 
L 311.23919 212.771279 
L 316.281834 211.878952 
L 321.28476 210.785687 
L 326.239966 209.493233 
L 331.139524 208.003657 
L 335.975595 206.319342 
L 340.740444 204.442984 
L 345.426446 202.377583 
L 349.15869 200.568527 
L 348.769565 195.462346 
L 348.176557 190.375811 
L 347.380617 185.317058 
L 346.383017 180.29418 
L 345.185354 175.315214 
L 343.789544 170.388124 
L 342.197818 165.520793 
L 340.412725 160.721008 
L 338.437119 155.996446 
L 336.274162 151.354666 
L 333.927312 146.803095 
L 331.400326 142.349013 
L 328.697246 137.999547 
L 325.822395 133.761654 
L 322.780373 129.642115 
L 319.576047 125.647519 
L 316.214543 121.784257 
L 312.701239 118.05851 
L 309.041754 114.476237 
L 305.241945 111.04317 
L 301.307888 107.764802 
L 297.245879 104.646376 
L 293.062415 101.692881 
L 288.764189 98.909043 
L 284.358077 96.299315 
L 279.851128 93.867872 
L 275.250553 91.618603 
L 270.563711 89.555108 
L 265.7981 87.680687 
L 260.961344 85.998339 
L 256.061181 84.510755 
L 251.10545 83.220315 
L 246.10208 82.129084 
L 241.059074 81.238807 
L 235.9845 80.550909 
L 230.886477 80.06649 
L 225.77316 79.786325 
L 220.65273 79.710862 
L 215.533378 79.840223 
L 210.423293 80.174199 
L 205.330652 80.712257 
L 200.263601 81.453536 
L 195.230246 82.39685 
L 190.23864 83.540689 
L 185.296768 84.883225 
L 180.412536 86.42231 
L 175.593758 88.15548 
L 170.848142 90.079964 
L 166.183282 92.192682 
L 161.606639 94.490255 
L 157.125535 96.969007 
L 152.74714 99.624973 
L 150.548612 101.051274 
L 150.33291 106.167715 
L 150.321983 111.28869 
L 150.51585 116.406006 
L 150.9142 121.511475 
L 151.516395 126.596931 
L 152.321473 131.654238 
L 153.328145 136.675305 
L 154.534801 141.652099 
L 155.93951 146.57666 
L 157.540026 151.441107 
L 159.333787 156.23766 
L 161.317925 160.958646 
L 163.489264 165.59651 
L 165.844332 170.143834 
L 168.37936 174.593343 
L 171.090294 178.937919 
L 173.972796 183.170612 
L 177.022255 187.284649 
L 180.233792 191.27345 
L 183.602269 195.130633 
L 187.122299 198.850027 
L 190.788249 202.425683 
L 194.594254 205.851879 
L 198.036269 208.724213 
L 200.882853 212.981144 
L 203.897393 217.120836 
L 207.075064 221.136668 
L 210.410785 225.022214 
L 213.899217 228.771259 
L 217.534781 232.377806 
L 221.311661 235.836083 
L 225.223813 239.14056 
L 229.26498 242.285949 
L 233.428696 245.267218 
L 237.708301 248.079599 
L 242.096948 250.718591 
L 246.587616 253.179973 
L 251.173121 255.459808 
L 255.846127 257.554448 
L 260.599159 259.460542 
L 265.424612 261.17504 
L 270.314766 262.695201 
L 275.2618 264.018591 
L 280.257798 265.143095 
L 285.294767 266.066912 
L 290.364651 266.788565 
L 295.459337 267.3069 
L 300.570676 267.621087 
L 305.690491 267.730624 
L 310.42948 267.649488 
L 307.938613 263.175107 
L 305.270812 258.803913 
L 302.430344 254.542898 
L 299.421752 250.398881 
L 296.249851 246.37849 
L 292.919714 242.488158 
L 289.436669 238.734107 
L 285.806288 235.122343 
L 282.034378 231.658645 
L 278.126975 228.348554 
L 274.09033 225.197365 
L 269.930899 222.210119 
L 265.655337 219.391596 
L 263.314417 217.949625 
L 263.867844 223.040619 
L 264.624414 228.105409 
L 265.582916 233.135894 
L 266.741817 238.124025 
L 268.099263 243.061822 
L 269.653083 247.941386 
L 271.40079 252.754911 
L 273.339589 257.494696 
L 275.466378 262.153158 
L 277.777754 266.722846 
L 280.270021 271.196447 
L 282.93919 275.566806 
L 285.780992 279.826931 
L 288.79088 283.970006 
L 289.896273 285.408 
L 292.964549 281.307978 
L 295.866415 277.088538 
L 298.597227 272.756429 
L 301.152616 268.318581 
L 303.528494 263.782096 
L 305.721061 259.154229 
L 307.726809 254.442384 
L 309.542529 249.6541 
L 311.165317 244.797037 
L 312.592575 239.878965 
L 313.822022 234.907752 
L 314.851689 229.89135 
L 315.679931 224.837785 
L 316.305421 219.755142 
L 316.727159 214.651551 
L 316.944471 209.535177 
L 316.957008 204.414206 
L 316.764752 199.29683 
L 316.368008 194.191235 
L 315.767413 189.10559 
L 314.963927 184.04803 
L 313.958834 179.026647 
L 312.753744 174.049473 
L 311.350584 169.124471 
L 309.751599 164.25952 
L 307.959347 159.462403 
L 305.976695 154.740794 
L 303.806814 150.102247 
L 301.453177 145.554182 
L 298.919549 141.103875 
L 296.209982 136.758446 
L 293.328812 132.524847 
L 290.280648 128.409851 
L 287.070366 124.42004 
L 283.703102 120.561797 
L 280.184243 116.841296 
L 276.519418 113.264487 
L 272.714491 109.837093 
L 268.775547 106.564597 
L 264.70889 103.452235 
L 260.521024 100.504985 
L 256.21865 97.727562 
L 251.808649 95.124411 
L 247.298078 92.699694 
L 242.694152 90.457292 
L 238.004237 88.400791 
L 233.235835 86.533482 
L 228.396575 84.858352 
L 223.494198 83.378081 
L 218.536547 82.095036 
L 213.531554 81.011271 
L 208.487226 80.128519 
L 203.411631 79.448192 
L 198.312891 78.971379 
L 193.199162 78.698843 
L 188.078625 78.63102 
L 182.959471 78.768018 
L 177.849891 79.109617 
L 172.758058 79.655272 
L 167.692118 80.40411 
L 162.660176 81.354932 
L 161.816404 81.534886 
L 163.476332 86.379382 
L 165.32866 91.153623 
L 167.370426 95.849973 
L 169.598362 100.460916 
L 172.008905 104.979078 
L 174.598197 109.39723 
L 177.362098 113.708303 
L 180.296185 117.905402 
L 183.395764 121.981811 
L 186.655876 125.93101 
L 190.071307 129.746679 
L 193.636591 133.422716 
L 197.346027 136.953239 
L 199.441346 138.827295 
L 199.005291 138.358608 
L 195.433613 134.688782 
L 191.718038 131.164721 
L 187.864511 127.792063 
L 183.879195 124.576202 
L 179.768467 121.522283 
L 175.538903 118.635193 
L 171.19727 115.919549 
L 166.750512 113.379697 
L 162.205745 111.019699 
L 157.570238 108.843331 
L 152.851407 106.854075 
L 148.206469 105.107984 
L 152.165748 108.355846 
L 156.25174 111.442782 
L 160.457908 114.363852 
L 164.777524 117.114384 
L 169.203675 119.689978 
L 173.729283 122.086512 
L 178.347107 124.300153 
L 183.049758 126.32736 
L 187.829715 128.16489 
L 192.67933 129.809802 
L 197.590845 131.259466 
L 202.556402 132.511562 
L 205.87176 133.23124 
L 206.304814 128.128597 
L 206.53347 123.012718 
L 206.557363 117.891787 
L 206.376454 112.773997 
L 205.991032 107.667536 
L 205.401715 102.580571 
L 204.609445 97.521242 
L 203.61549 92.497642 
L 202.421439 87.517809 
L 201.029203 82.589707 
L 199.441009 77.721223 
L 197.659398 72.920143 
L 195.687221 68.19415 
L 193.575173 63.648 
L 191.419509 68.293171 
L 189.451325 73.02083 
L 187.673773 77.823413 
L 186.089694 82.693238 
L 184.701623 87.622514 
L 183.511781 92.603355 
L 182.522072 97.627793 
L 181.734078 102.68779 
L 181.14906 107.775251 
L 180.767954 112.882036 
L 180.59137 117.999977 
L 180.619591 123.120886 
L 180.85257 128.23657 
L 181.289936 133.338845 
L 181.930989 138.419549 
L 182.774703 143.470554 
L 183.819728 148.483779 
L 185.064393 153.451204 
L 186.506707 158.364882 
L 187.04297 160.025682 
L 183.117819 163.314707 
L 179.327333 166.758066 
L 175.677577 170.35025 
L 172.174389 174.085511 
L 168.823374 177.957875 
L 165.629893 181.961146 
L 162.599054 186.08892 
L 159.735707 190.334594 
L 157.044432 194.691375 
L 154.529534 199.152293 
L 152.195037 203.710212 
L 150.044676 208.35784 
L 148.08189 213.087742 
L 146.30982 217.892351 
L 144.7313 222.763981 
L 143.348856 227.694838 
L 142.1647 232.677034 
L 142.038728 233.265175 
L 146.938575 234.753798 
L 151.894032 236.04529 
L 156.897171 237.137582 
L 161.939988 238.028929 
L 167.014415 238.717904 
L 172.112335 239.203405 
L 177.225593 239.484655 
L 182.346007 239.561205 
L 187.465387 239.432931 
L 192.575542 239.100039 
L 197.668297 238.563062 
L 202.735505 237.822859 
L 207.76906 236.880613 
L 212.760909 235.737832 
L 217.703066 234.396345 
L 222.587624 232.858298 
L 227.40677 231.12615 
L 232.152794 229.202673 
L 236.818102 227.090945 
L 239.820784 225.610272 
L 244.700605 227.163285 
L 249.638627 228.519914 
L 254.626949 229.67799 
L 259.657592 230.63566 
L 264.722508 231.391392 
L 269.813593 231.943977 
L 274.922704 232.292531 
L 280.041667 232.436496 
L 285.162291 232.375641 
L 290.276387 232.110066 
L 295.375771 231.640193 
L 300.452287 230.966775 
L 305.497812 230.09089 
L 310.504275 229.013937 
L 315.463668 227.737642 
L 320.368055 226.264044 
L 325.20959 224.595502 
L 329.98053 222.734684 
L 334.67324 220.684569 
L 338.651827 218.766948 
L 338.25679 213.661221 
L 337.657893 208.575375 
L 336.856096 203.517547 
L 335.852681 198.495828 
L 334.649253 193.518252 
L 333.247739 188.592782 
L 331.650379 183.727297 
L 329.859729 178.929581 
L 327.878654 174.20731 
L 325.710323 169.568038 
L 323.358205 165.019188 
L 320.826064 160.568035 
L 318.117949 156.221701 
L 315.238193 151.98714 
L 312.191403 147.871126 
L 308.982454 143.880243 
L 305.616479 140.020876 
L 302.098863 136.299199 
L 298.435233 132.721166 
L 294.631451 129.292502 
L 290.693601 126.01869 
L 286.627983 122.90497 
L 282.441102 119.956321 
L 278.139656 117.177462 
L 273.730525 114.572837 
L 269.220764 112.146614 
L 264.617588 109.902674 
L 259.928359 107.844607 
L 255.160581 105.975705 
L 250.321881 104.298958 
L 245.419999 102.81705 
L 240.462777 101.532349 
L 235.458146 100.446912 
L 230.414113 99.562475 
L 225.338746 98.880453 
L 220.240165 98.401938 
L 215.126528 98.127693 
L 210.006013 98.05816 
L 204.886814 98.193447 
L 199.77712 98.53334 
L 194.685105 99.077294 
L 189.618916 99.82444 
L 184.586657 100.773581 
L 179.596378 101.9232 
L 174.656064 103.271457 
L 169.773617 104.816196 
L 164.956849 106.554945 
L 160.213466 108.484922 
L 155.551054 110.60304 
L 150.977075 112.905911 
L 146.498844 115.38985 
L 142.123527 118.050884 
L 139.897892 119.498863 
L 139.674885 124.614991 
L 139.656647 129.735945 
L 139.843208 134.853532 
L 140.234268 139.959565 
L 140.829202 145.045876 
L 141.627059 150.104327 
L 142.626561 155.126826 
L 143.826111 160.105338 
L 145.223788 165.031899 
L 146.817357 169.898626 
L 148.604269 174.697736 
L 150.581664 179.421549 
L 152.74638 184.062508 
L 155.094953 188.61319 
L 157.623626 193.066314 
L 160.328355 197.414756 
L 163.204811 201.651559 
L 166.248393 205.769946 
L 169.454232 209.763328 
L 172.817199 213.625316 
L 176.331915 217.349732 
L 179.992756 220.930618 
L 183.793866 224.362245 
L 187.729164 227.639123 
L 191.792355 230.75601 
L 195.976938 233.70792 
L 200.276218 236.490129 
L 204.683318 239.098188 
L 209.191187 241.527924 
L 213.792615 243.775449 
L 218.480238 245.837169 
L 223.246559 247.709784 
L 228.083952 249.3903 
L 232.984678 250.876027 
L 237.940897 252.164589 
L 242.94468 253.253925 
L 247.988023 254.142291 
L 253.062857 254.828266 
L 258.161064 255.310754 
L 263.274486 255.588982 
L 268.394945 255.662505 
L 273.514248 255.531205 
L 278.624205 255.195293 
L 283.716642 254.655306 
L 288.783412 253.912108 
L 293.816409 252.966887 
L 298.807582 251.821156 
L 303.748945 250.476748 
L 308.632593 248.935814 
L 313.450715 247.200818 
L 318.1956 245.274537 
L 322.85966 243.160051 
L 325.243543 241.990778 
L 324.848505 236.885051 
L 324.249608 231.799205 
L 323.447811 226.741377 
L 322.444396 221.719659 
L 321.240969 216.742082 
L 319.839454 211.816612 
L 318.242094 206.951127 
L 316.451444 202.153412 
L 314.470369 197.431141 
L 312.302038 192.791869 
L 309.949921 188.243018 
L 307.417779 183.791865 
L 304.709664 179.445532 
L 301.829908 175.210971 
L 298.783119 171.094956 
L 295.57417 167.104073 
L 292.208194 163.244706 
L 288.690578 159.523029 
L 285.026948 155.944996 
L 283.189554 154.254349 
L 283.20336 149.133381 
L 283.01237 144.015958 
L 282.616891 138.910265 
L 282.017555 133.824471 
L 281.215321 128.766712 
L 280.211473 123.74508 
L 279.007615 118.767608 
L 277.605675 113.842259 
L 276.007894 108.976912 
L 274.21683 104.179351 
L 272.235347 99.457251 
L 270.066616 94.818167 
L 267.714105 90.269519 
L 265.181579 85.818585 
L 262.473088 81.472486 
L 259.592967 77.238173 
L 256.545821 73.122422 
L 253.336528 69.131816 
L 249.970219 65.27274 
L 248.468882 63.648 
L 245.0364 67.448338 
L 241.758637 71.3829 
L 238.640837 75.445389 
L 235.687986 79.629308 
L 232.90481 83.927962 
L 230.29576 88.334476 
L 227.86501 92.841799 
L 225.61645 97.44272 
L 223.553677 102.12988 
L 221.679989 106.895779 
L 219.998386 111.732794 
L 218.511556 116.633186 
L 217.22188 121.589115 
L 216.131419 126.592654 
L 215.962512 127.465686 
L 211.60311 124.778659 
L 207.139742 122.268111 
L 202.57955 119.938059 
L 197.929828 117.792229 
L 193.198015 115.834054 
L 188.39168 114.066669 
L 183.518514 112.492899 
L 178.586312 111.115262 
L 173.602964 109.935963 
L 168.576443 108.956888 
L 163.51479 108.179604 
L 158.426103 107.605353 
L 153.318522 107.235055 
L 148.200219 107.069302 
L 147.079277 107.060339 
L 149.743788 111.433539 
L 152.58105 115.696689 
L 155.586522 119.842969 
L 158.755398 123.865745 
L 162.082607 127.758583 
L 165.562826 131.515253 
L 169.190489 135.129747 
L 172.959791 138.596282 
L 176.864702 141.909313 
L 180.898976 145.063538 
L 185.056158 148.053912 
L 189.329598 150.875652 
L 190.395068 151.54168 
L 185.597244 149.751322 
L 180.731662 148.154258 
L 175.806106 146.753042 
L 170.828457 145.549917 
L 165.806677 144.546807 
L 160.748801 143.745318 
L 155.662919 143.14673 
L 150.557168 142.752003 
L 145.439716 142.561766 
L 140.318751 142.576326 
L 135.202463 142.795657 
L 130.099039 143.219411 
L 125.913114 143.721208 
L 127.944172 148.422198 
L 130.161595 153.038206 
L 132.561836 157.56185 
L 135.141053 161.98589 
L 137.895123 166.303251 
L 140.819637 170.507025 
L 143.909919 174.590487 
L 147.161023 178.547105 
L 150.56775 182.370548 
L 154.124648 186.054699 
L 157.826028 189.593666 
L 161.665969 192.981787 
L 165.638326 196.213641 
L 169.736746 199.284057 
L 173.954671 202.188125 
L 178.285354 204.921197 
L 182.721867 207.478903 
L 187.257112 209.857149 
L 191.883834 212.052131 
L 196.59463 214.060339 
L 201.381966 215.878558 
L 206.238181 217.50388 
L 210.194877 218.671089 
L 213.861819 222.245727 
L 217.668776 225.670867 
L 221.609656 228.941029 
L 225.678156 232.050983 
L 229.867766 234.995752 
L 234.171785 237.770627 
L 238.583326 240.371167 
L 243.095332 242.793212 
L 247.700585 245.032887 
L 252.391717 247.08661 
L 257.161224 248.951095 
L 262.001476 250.62336 
L 266.904728 252.100728 
L 271.863138 253.380836 
L 276.868772 254.461638 
L 281.913622 255.341402 
L 286.989618 256.018723 
L 292.08864 256.492516 
L 297.20253 256.762024 
L 302.323106 256.826815 
L 307.442178 256.686786 
L 312.551555 256.342161 
L 317.24552 255.84376 
L 315.160279 251.166552 
L 312.889668 246.576473 
L 310.437319 242.080866 
L 307.807155 237.686922 
L 305.003384 233.401672 
L 302.030492 229.23197 
L 298.893234 225.184488 
L 295.596629 221.2657 
L 292.145951 217.481875 
L 288.546722 213.839068 
L 284.804697 210.343105 
L 280.925865 206.99958 
L 277.730374 204.439601 
L 278.799204 205.144469 
L 283.143398 207.856015 
L 287.592549 210.391672 
L 292.139541 212.747382 
L 296.777098 214.919376 
L 301.497803 216.90418 
L 306.294103 218.698618 
L 311.158325 220.299821 
L 316.082687 221.705225 
L 321.059311 222.912583 
L 326.080236 223.919964 
L 331.137429 224.725756 
L 334.940004 225.196015 
L 331.834012 221.12449 
L 328.567687 217.180428 
L 325.146254 213.370139 
L 321.575188 209.699719 
L 317.8602 206.175039 
L 314.007234 202.801739 
L 310.022454 199.585214 
L 305.912235 196.530611 
L 301.683152 193.642817 
L 297.34197 190.92645 
L 292.895636 188.385857 
L 288.351261 186.025103 
L 286.28558 185.026863 
L 291.400603 184.779795 
L 296.501654 184.328377 
L 301.580573 183.673334 
L 306.629235 182.815711 
L 311.639563 181.756883 
L 316.603541 180.498541 
L 321.513228 179.0427 
L 326.36077 177.391688 
L 331.138411 175.548147 
L 335.838509 173.515025 
L 340.453544 171.295577 
L 344.976133 168.893351 
L 349.399042 166.312191 
L 353.715193 163.556228 
L 356.681243 161.516916 
L 352.071889 163.74814 
L 347.555447 166.161904 
L 343.139143 168.754347 
L 338.830042 171.521321 
L 334.635037 174.4584 
L 330.560839 177.560885 
L 326.613966 180.823813 
L 322.800733 184.241964 
L 319.12724 187.809869 
L 315.599363 191.521821 
L 312.222746 195.371881 
L 309.002792 199.35389 
L 305.944651 203.461478 
L 303.053217 207.688073 
L 300.333113 212.026914 
L 297.788693 216.471059 
L 295.424027 221.0134 
L 293.242897 225.646668 
L 291.248793 230.363452 
L 289.444906 235.156206 
L 287.83412 240.017263 
L 286.419013 244.938845 
L 285.201849 249.91308 
L 284.184575 254.93201 
L 283.368818 259.987605 
L 282.755884 265.071778 
L 282.346753 270.176395 
L 282.142079 275.293289 
L 282.14219 280.414276 
L 282.339744 285.408 
L 282.539709 280.290919 
L 282.534885 275.169935 
L 282.32528 270.05324 
L 281.91123 264.94902 
L 281.293396 259.86544 
L 280.472768 254.810633 
L 279.450658 249.792686 
L 278.228701 244.819626 
L 276.808852 239.89941 
L 275.193383 235.039908 
L 273.384878 230.248894 
L 271.386229 225.534034 
L 269.200636 220.90287 
L 266.831593 216.36281 
L 266.510129 215.779298 
L 270.120615 219.410949 
L 273.87344 222.895315 
L 277.762601 226.22682 
L 281.781876 229.400136 
L 285.924834 232.410186 
L 290.184848 235.252153 
L 294.555104 237.921492 
L 299.028608 240.413932 
L 303.598206 242.725486 
L 308.256585 244.852456 
L 312.996295 246.791439 
L 317.809752 248.539334 
L 320.88317 249.543165 
L 317.047163 246.150592 
L 313.078557 242.914133 
L 308.983702 239.838964 
L 304.769149 236.930005 
L 300.441639 234.19191 
L 296.008096 231.62906 
L 291.475613 229.245554 
L 286.851441 227.045206 
L 282.142977 225.031535 
L 277.357754 223.207764 
L 272.503427 221.576809 
L 267.587763 220.14128 
L 262.618624 218.903473 
L 261.975686 218.758648 
L 260.584228 223.686969 
L 259.390964 228.666992 
L 258.397803 233.690749 
L 257.606332 238.750203 
L 257.017819 243.83726 
L 256.633204 248.943783 
L 256.453104 254.061601 
L 256.477806 259.182528 
L 256.70727 264.298371 
L 257.14113 269.400945 
L 257.778692 274.482089 
L 258.618935 279.533672 
L 259.660516 284.547614 
L 259.860403 285.408 
L 260.93655 280.401363 
L 261.811624 275.355697 
L 262.484225 270.279073 
L 262.953277 265.179613 
L 263.21803 260.065475 
L 263.27806 254.944841 
L 263.133272 249.825902 
L 262.783896 244.716847 
L 262.230492 239.625851 
L 261.473945 234.561056 
L 260.515466 229.530568 
L 259.356587 224.542431 
L 258.318513 220.699421 
L 261.358381 224.82055 
L 264.560619 228.81682 
L 267.920104 232.681839 
L 271.431461 236.409422 
L 275.089072 239.993606 
L 278.887087 243.428658 
L 282.81943 246.709083 
L 286.879809 249.829631 
L 291.061729 252.785312 
L 295.3585 255.571396 
L 299.763247 258.183427 
L 304.268924 260.617225 
L 308.868323 262.868897 
L 312.302721 264.404938 
L 308.138805 261.423948 
L 303.859012 258.611854 
L 299.470188 255.973156 
L 294.979355 253.512074 
L 290.393698 251.232547 
L 285.720551 249.13822 
L 280.967392 247.232445 
L 276.141824 245.518269 
L 271.251568 243.998436 
L 266.304446 242.675377 
L 261.308373 241.551208 
L 256.271341 240.627729 
L 251.201409 239.906415 
L 246.106688 239.388421 
L 240.995328 239.074577 
L 235.875506 238.965383 
L 230.755412 239.061015 
L 225.643239 239.36132 
L 220.547163 239.865816 
L 215.475339 240.573698 
L 210.435879 241.483833 
L 205.436845 242.594764 
L 200.486236 243.904715 
L 195.591971 245.411589 
L 190.761879 247.112976 
L 186.003689 249.006155 
L 181.325012 251.088096 
L 176.733332 253.355469 
L 172.235996 255.804647 
L 167.840198 258.43171 
L 163.552971 261.232458 
L 159.744972 263.933289 
L 164.395374 261.788932 
L 168.956304 259.460324 
L 173.420466 256.95119 
L 177.78072 254.265543 
L 182.030088 251.407682 
L 186.161773 248.382177 
L 190.169165 245.193869 
L 194.045854 241.847858 
L 197.785636 238.349498 
L 201.382531 234.704384 
L 204.830782 230.918349 
L 208.124874 226.997448 
L 211.259537 222.947956 
L 213.177549 220.294875 
L 211.676017 225.190781 
L 210.37147 230.142817 
L 209.265996 235.14306 
L 208.361362 240.18351 
L 207.659016 245.256105 
L 207.160081 250.352728 
L 206.865356 255.465226 
L 206.775313 260.585421 
L 206.890094 265.705121 
L 207.209517 270.816135 
L 207.733071 275.910288 
L 208.459917 280.97943 
L 209.265761 285.408 
L 210.170347 280.367541 
L 210.872646 275.29494 
L 211.371533 270.198313 
L 211.66621 265.085812 
L 211.756206 259.965616 
L 211.641376 254.845917 
L 211.321906 249.734906 
L 210.798304 244.640758 
L 210.07141 239.571623 
L 209.142387 234.535611 
L 208.012719 229.540778 
L 206.684215 224.595116 
L 205.159 219.706535 
L 203.439514 214.882857 
L 202.892 213.464359 
L 197.870679 212.458956 
L 192.813169 211.655157 
L 187.727561 211.054247 
L 182.621991 210.657188 
L 177.504627 210.464615 
L 172.383655 210.476835 
L 167.267268 210.693831 
L 162.163651 211.115253 
L 157.080969 211.740429 
L 152.027353 212.568358 
L 147.010887 213.597715 
L 142.039598 214.826854 
L 137.121437 216.253808 
L 133.003339 217.615421 
L 136.81618 214.196833 
L 140.489264 210.628507 
L 144.016716 206.916151 
L 147.392891 203.065704 
L 150.612388 199.083325 
L 153.670058 194.975387 
L 156.561008 190.74846 
L 159.280614 186.409308 
L 161.824525 181.964871 
L 164.18867 177.422259 
L 166.369269 172.788741 
L 168.362832 168.071728 
L 170.16617 163.278768 
L 171.776399 158.417526 
L 173.190941 153.495782 
L 174.407535 148.521407 
L 175.424234 143.502361 
L 176.239411 138.446672 
L 176.851763 133.362429 
L 177.260309 128.257765 
L 177.464396 123.140847 
L 177.463698 118.019861 
L 177.258216 112.902999 
L 176.848278 107.798447 
L 176.23454 102.714371 
L 175.417984 97.658905 
L 174.399917 92.640136 
L 173.181967 87.666093 
L 171.766083 82.744734 
L 170.154529 77.883932 
L 168.349884 73.091463 
L 167.663255 71.407842 
L 172.727303 70.646314 
L 177.756846 69.682887 
L 182.74384 68.519103 
L 187.680306 67.156823 
L 192.558347 65.598226 
L 197.370158 63.845807 
L 197.878056 63.648 
L 202.682363 65.420888 
L 207.553724 67.000237 
L 212.484346 68.38352 
L 217.46634 69.568524 
L 222.491737 70.553354 
L 227.552497 71.336433 
L 232.640523 71.91651 
L 237.747677 72.292656 
L 242.865787 72.46427 
L 247.986665 72.431076 
L 253.102121 72.193129 
L 258.203969 71.750808 
L 263.284048 71.104821 
L 268.334231 70.256203 
L 273.346439 69.206309 
L 278.312652 67.956821 
L 283.224928 66.509736 
L 288.075406 64.86737 
L 291.314941 63.648 
L 296.119248 65.420888 
L 300.990609 67.000237 
L 302.343388 67.40099 
L 301.220338 72.397315 
L 300.297986 77.434553 
L 299.577808 82.504647 
L 299.060955 87.599484 
L 298.748255 92.710914 
L 298.640208 97.830761 
L 298.736986 102.950832 
L 299.038436 108.062939 
L 299.544074 113.158901 
L 300.253091 118.230567 
L 301.164354 123.269823 
L 302.276405 128.268607 
L 303.587464 133.218923 
L 305.095434 138.112851 
L 306.797903 142.942561 
L 308.692147 147.700327 
L 310.775136 152.378539 
L 313.043537 156.96971 
L 315.493722 161.466498 
L 318.12177 165.861707 
L 320.923478 170.148307 
L 323.894362 174.319439 
L 327.029672 178.368431 
L 330.324389 182.288806 
L 333.773245 186.074291 
L 337.370721 189.718831 
L 341.111062 193.216594 
L 344.988284 196.561987 
L 348.996185 199.749655 
L 349.437764 200.085158 
L 344.681386 198.187428 
L 339.852925 196.481421 
L 334.960104 194.969865 
L 330.01075 193.655179 
L 325.012782 192.539466 
L 319.974195 191.624511 
L 314.903049 190.911778 
L 309.807459 190.402406 
L 304.695575 190.097211 
L 299.575575 189.996681 
L 294.455651 190.100976 
L 289.343993 190.409931 
L 284.696038 190.869751 
L 288.455576 194.346874 
L 292.351154 197.670874 
L 296.37654 200.836433 
L 300.525295 203.838488 
L 304.790782 206.672235 
L 309.166177 209.333142 
L 313.644479 211.816951 
L 318.218525 214.119689 
L 322.880998 216.237672 
L 327.624438 218.167512 
L 332.441256 219.906121 
L 337.134602 221.394859 
L 333.350377 217.944621 
L 329.431206 214.648471 
L 325.383359 211.511683 
L 321.213312 208.539275 
L 316.927736 205.736002 
L 312.533487 203.106349 
L 308.037595 200.654522 
L 303.447252 198.384444 
L 298.769802 196.299747 
L 294.012728 194.403765 
L 289.18364 192.699532 
L 284.56029 191.267528 
L 289.344844 193.093053 
L 294.198573 194.725788 
L 299.113711 196.163119 
L 304.082395 197.402748 
L 309.096677 198.44269 
L 314.148534 199.281283 
L 319.229885 199.917184 
L 324.332601 200.349378 
L 329.448519 200.577171 
L 334.569454 200.6002 
L 339.687213 200.418427 
L 344.79361 200.032144 
L 349.803026 199.452504 
L 347.767831 194.753304 
L 345.546347 190.139249 
L 343.142126 185.61772 
L 340.559015 181.195951 
L 337.801147 176.881016 
L 334.872933 172.679817 
L 331.779059 168.599077 
L 328.524473 164.645322 
L 325.114383 160.824879 
L 321.554243 157.143859 
L 317.84975 153.608152 
L 314.006829 150.223412 
L 310.031629 146.995056 
L 305.930508 143.928248 
L 301.710028 141.027894 
L 297.376941 138.298634 
L 292.938179 135.744834 
L 288.400843 133.370581 
L 283.772191 131.179671 
L 279.059629 129.175611 
L 274.270695 127.361606 
L 269.413051 125.740559 
L 264.494467 124.315062 
L 259.522814 123.087396 
L 254.506044 122.059525 
L 249.452182 121.233094 
L 244.369315 120.609424 
L 239.265574 120.189514 
L 234.149123 119.974034 
L 229.028148 119.963331 
L 223.910841 120.157421 
L 218.805388 120.555993 
L 213.719959 121.158409 
L 208.662687 121.963707 
L 203.641664 122.970598 
L 198.664922 124.177471 
L 193.740423 125.582394 
L 188.876045 127.183122 
L 184.07957 128.977092 
L 179.358671 130.961436 
L 174.720901 133.132977 
L 170.17368 135.488243 
L 165.724281 138.023465 
L 161.379823 140.734588 
L 157.147256 143.617274 
L 153.033352 146.666912 
L 149.044691 149.878623 
L 145.187655 153.247269 
L 141.468414 156.76746 
L 137.892918 160.433566 
L 134.466887 164.239721 
L 131.195802 168.179836 
L 128.084896 172.247607 
L 125.139147 176.436529 
L 122.363265 180.739898 
L 119.761693 185.15083 
L 117.116453 190.098528 
L 117.116453 190.098528 
" style="fill:none;stroke:#1f77b4;stroke-linecap:square;stroke-width:1.5;"/>
   </g>
   <g id="patch_4">
    <path d="M 82.520165 307.584 
L 82.520165 41.472 
" style="fill:none;stroke:#000000;stroke-linecap:square;stroke-linejoin:miter;stroke-width:0.8;"/>
   </g>
   <g id="patch_5">
    <path d="M 389.799835 307.584 
L 389.799835 41.472 
" style="fill:none;stroke:#000000;stroke-linecap:square;stroke-linejoin:miter;stroke-width:0.8;"/>
   </g>
   <g id="patch_6">
    <path d="M 82.520165 307.584 
L 389.799835 307.584 
" style="fill:none;stroke:#000000;stroke-linecap:square;stroke-linejoin:miter;stroke-width:0.8;"/>
   </g>
   <g id="patch_7">
    <path d="M 82.520165 41.472 
L 389.799835 41.472 
" style="fill:none;stroke:#000000;stroke-linecap:square;stroke-linejoin:miter;stroke-width:0.8;"/>
   </g>
  </g>
 </g>
 <defs>
  <clipPath id="pec169faf13">
   <rect height="266.112" width="307.27967" x="82.520165" y="41.472"/>
  </clipPath>
 </defs>
</svg>
