<?xml version="1.0" encoding="utf-8" standalone="no"?>
<!DOCTYPE svg PUBLIC "-//W3C//DTD SVG 1.1//EN"
  "http://www.w3.org/Graphics/SVG/1.1/DTD/svg11.dtd">
<!-- Created with matplotlib (http://matplotlib.org/) -->
<svg height="345.6pt" version="1.1" viewBox="0 0 460.8 345.6" width="460.8pt" xmlns="http://www.w3.org/2000/svg" xmlns:xlink="http://www.w3.org/1999/xlink">
 <defs>
  <style type="text/css">
*{stroke-linecap:butt;stroke-linejoin:round;}
  </style>
 </defs>
 <g id="figure_1">
  <g id="patch_1">
   <path d="M 0 345.6 
L 460.8 345.6 
L 460.8 0 
L 0 0 
z
" style="fill:#ffffff;"/>
  </g>
  <g id="axes_1">
   <g id="patch_2">
    <path d="M 82.520165 307.584 
L 389.799835 307.584 
L 389.799835 41.472 
L 82.520165 41.472 
z
" style="fill:#ffffff;"/>
   </g>
   <g id="PathCollection_1">
    <defs>
     <path d="M 0 2.738613 
C 0.726289 2.738613 1.422928 2.450055 1.936492 1.936492 
C 2.450055 1.422928 2.738613 0.726289 2.738613 0 
C 2.738613 -0.726289 2.450055 -1.422928 1.936492 -1.936492 
C 1.422928 -2.450055 0.726289 -2.738613 0 -2.738613 
C -0.726289 -2.738613 -1.422928 -2.450055 -1.936492 -1.936492 
C -2.450055 -1.422928 -2.738613 -0.726289 -2.738613 0 
C -2.738613 0.726289 -2.450055 1.422928 -1.936492 1.936492 
C -1.422928 2.450055 -0.726289 2.738613 0 2.738613 
z
" id="m3297ddf4c8" style="stroke:#000000;"/>
    </defs>
    <g clip-path="url(#pcb382833b4)">
     <use style="stroke:#000000;" x="252.900162" xlink:href="#m3297ddf4c8" y="222.928071"/>
    </g>
   </g>
   <g id="Quiver_1">
    <path clip-path="url(#pcb382833b4)" d="M 253.235276 222.23682 
L 269.134055 229.944452 
L 269.113032 228.226835 
L 275.020201 233.651733 
L 267.102346 232.374343 
L 268.463826 231.326955 
L 252.565047 223.619322 
L 253.235276 222.23682 
"/>
   </g>
   <g id="patch_3">
    <path clip-path="url(#pcb382833b4)" d="M 236.16 225.741278 
C 249.74192 225.741278 262.769389 220.345124 272.373256 210.741256 
C 281.977124 201.137389 287.373278 188.10992 287.373278 174.528 
C 287.373278 160.94608 281.977124 147.918611 272.373256 138.314744 
C 262.769389 128.710876 249.74192 123.314722 236.16 123.314722 
C 222.57808 123.314722 209.550611 128.710876 199.946744 138.314744 
C 190.342876 147.918611 184.946722 160.94608 184.946722 174.528 
C 184.946722 188.10992 190.342876 201.137389 199.946744 210.741256 
C 209.550611 220.345124 222.57808 225.741278 236.16 225.741278 
z
" style="fill:#009900;fill-opacity:0.5;stroke:#009900;stroke-linejoin:miter;stroke-width:2;"/>
   </g>
   <g id="matplotlib.axis_1">
    <g id="xtick_1">
     <g id="line2d_1">
      <defs>
       <path d="M 0 0 
L 0 3.5 
" id="mcac25d89a1" style="stroke:#000000;stroke-width:0.8;"/>
      </defs>
      <g>
       <use style="stroke:#000000;stroke-width:0.8;" x="108.126804" xlink:href="#mcac25d89a1" y="307.584"/>
      </g>
     </g>
     <g id="text_1">
      <!-- −2 -->
      <defs>
       <path d="M 10.59375 35.5 
L 73.1875 35.5 
L 73.1875 27.203125 
L 10.59375 27.203125 
z
" id="DejaVuSans-2212"/>
       <path d="M 19.1875 8.296875 
L 53.609375 8.296875 
L 53.609375 0 
L 7.328125 0 
L 7.328125 8.296875 
Q 12.9375 14.109375 22.625 23.890625 
Q 32.328125 33.6875 34.8125 36.53125 
Q 39.546875 41.84375 41.421875 45.53125 
Q 43.3125 49.21875 43.3125 52.78125 
Q 43.3125 58.59375 39.234375 62.25 
Q 35.15625 65.921875 28.609375 65.921875 
Q 23.96875 65.921875 18.8125 64.3125 
Q 13.671875 62.703125 7.8125 59.421875 
L 7.8125 69.390625 
Q 13.765625 71.78125 18.9375 73 
Q 24.125 74.21875 28.421875 74.21875 
Q 39.75 74.21875 46.484375 68.546875 
Q 53.21875 62.890625 53.21875 53.421875 
Q 53.21875 48.921875 51.53125 44.890625 
Q 49.859375 40.875 45.40625 35.40625 
Q 44.1875 33.984375 37.640625 27.21875 
Q 31.109375 20.453125 19.1875 8.296875 
z
" id="DejaVuSans-32"/>
      </defs>
      <g transform="translate(100.755711 322.182437)scale(0.1 -0.1)">
       <use xlink:href="#DejaVuSans-2212"/>
       <use x="83.789062" xlink:href="#DejaVuSans-32"/>
      </g>
     </g>
    </g>
    <g id="xtick_2">
     <g id="line2d_2">
      <g>
       <use style="stroke:#000000;stroke-width:0.8;" x="172.143402" xlink:href="#mcac25d89a1" y="307.584"/>
      </g>
     </g>
     <g id="text_2">
      <!-- −1 -->
      <defs>
       <path d="M 12.40625 8.296875 
L 28.515625 8.296875 
L 28.515625 63.921875 
L 10.984375 60.40625 
L 10.984375 69.390625 
L 28.421875 72.90625 
L 38.28125 72.90625 
L 38.28125 8.296875 
L 54.390625 8.296875 
L 54.390625 0 
L 12.40625 0 
z
" id="DejaVuSans-31"/>
      </defs>
      <g transform="translate(164.772308 322.182437)scale(0.1 -0.1)">
       <use xlink:href="#DejaVuSans-2212"/>
       <use x="83.789062" xlink:href="#DejaVuSans-31"/>
      </g>
     </g>
    </g>
    <g id="xtick_3">
     <g id="line2d_3">
      <g>
       <use style="stroke:#000000;stroke-width:0.8;" x="236.16" xlink:href="#mcac25d89a1" y="307.584"/>
      </g>
     </g>
     <g id="text_3">
      <!-- 0 -->
      <defs>
       <path d="M 31.78125 66.40625 
Q 24.171875 66.40625 20.328125 58.90625 
Q 16.5 51.421875 16.5 36.375 
Q 16.5 21.390625 20.328125 13.890625 
Q 24.171875 6.390625 31.78125 6.390625 
Q 39.453125 6.390625 43.28125 13.890625 
Q 47.125 21.390625 47.125 36.375 
Q 47.125 51.421875 43.28125 58.90625 
Q 39.453125 66.40625 31.78125 66.40625 
z
M 31.78125 74.21875 
Q 44.046875 74.21875 50.515625 64.515625 
Q 56.984375 54.828125 56.984375 36.375 
Q 56.984375 17.96875 50.515625 8.265625 
Q 44.046875 -1.421875 31.78125 -1.421875 
Q 19.53125 -1.421875 13.0625 8.265625 
Q 6.59375 17.96875 6.59375 36.375 
Q 6.59375 54.828125 13.0625 64.515625 
Q 19.53125 74.21875 31.78125 74.21875 
z
" id="DejaVuSans-30"/>
      </defs>
      <g transform="translate(232.97875 322.182437)scale(0.1 -0.1)">
       <use xlink:href="#DejaVuSans-30"/>
      </g>
     </g>
    </g>
    <g id="xtick_4">
     <g id="line2d_4">
      <g>
       <use style="stroke:#000000;stroke-width:0.8;" x="300.176598" xlink:href="#mcac25d89a1" y="307.584"/>
      </g>
     </g>
     <g id="text_4">
      <!-- 1 -->
      <g transform="translate(296.995348 322.182437)scale(0.1 -0.1)">
       <use xlink:href="#DejaVuSans-31"/>
      </g>
     </g>
    </g>
    <g id="xtick_5">
     <g id="line2d_5">
      <g>
       <use style="stroke:#000000;stroke-width:0.8;" x="364.193196" xlink:href="#mcac25d89a1" y="307.584"/>
      </g>
     </g>
     <g id="text_5">
      <!-- 2 -->
      <g transform="translate(361.011946 322.182437)scale(0.1 -0.1)">
       <use xlink:href="#DejaVuSans-32"/>
      </g>
     </g>
    </g>
   </g>
   <g id="matplotlib.axis_2">
    <g id="ytick_1">
     <g id="line2d_6">
      <defs>
       <path d="M 0 0 
L -3.5 0 
" id="m66112acaa5" style="stroke:#000000;stroke-width:0.8;"/>
      </defs>
      <g>
       <use style="stroke:#000000;stroke-width:0.8;" x="82.520165" xlink:href="#m66112acaa5" y="302.561196"/>
      </g>
     </g>
     <g id="text_6">
      <!-- −2.0 -->
      <defs>
       <path d="M 10.6875 12.40625 
L 21 12.40625 
L 21 0 
L 10.6875 0 
z
" id="DejaVuSans-2e"/>
      </defs>
      <g transform="translate(51.237353 306.360414)scale(0.1 -0.1)">
       <use xlink:href="#DejaVuSans-2212"/>
       <use x="83.789062" xlink:href="#DejaVuSans-32"/>
       <use x="147.412109" xlink:href="#DejaVuSans-2e"/>
       <use x="179.199219" xlink:href="#DejaVuSans-30"/>
      </g>
     </g>
    </g>
    <g id="ytick_2">
     <g id="line2d_7">
      <g>
       <use style="stroke:#000000;stroke-width:0.8;" x="82.520165" xlink:href="#m66112acaa5" y="270.552897"/>
      </g>
     </g>
     <g id="text_7">
      <!-- −1.5 -->
      <defs>
       <path d="M 10.796875 72.90625 
L 49.515625 72.90625 
L 49.515625 64.59375 
L 19.828125 64.59375 
L 19.828125 46.734375 
Q 21.96875 47.46875 24.109375 47.828125 
Q 26.265625 48.1875 28.421875 48.1875 
Q 40.625 48.1875 47.75 41.5 
Q 54.890625 34.8125 54.890625 23.390625 
Q 54.890625 11.625 47.5625 5.09375 
Q 40.234375 -1.421875 26.90625 -1.421875 
Q 22.3125 -1.421875 17.546875 -0.640625 
Q 12.796875 0.140625 7.71875 1.703125 
L 7.71875 11.625 
Q 12.109375 9.234375 16.796875 8.0625 
Q 21.484375 6.890625 26.703125 6.890625 
Q 35.15625 6.890625 40.078125 11.328125 
Q 45.015625 15.765625 45.015625 23.390625 
Q 45.015625 31 40.078125 35.4375 
Q 35.15625 39.890625 26.703125 39.890625 
Q 22.75 39.890625 18.8125 39.015625 
Q 14.890625 38.140625 10.796875 36.28125 
z
" id="DejaVuSans-35"/>
      </defs>
      <g transform="translate(51.237353 274.352116)scale(0.1 -0.1)">
       <use xlink:href="#DejaVuSans-2212"/>
       <use x="83.789062" xlink:href="#DejaVuSans-31"/>
       <use x="147.412109" xlink:href="#DejaVuSans-2e"/>
       <use x="179.199219" xlink:href="#DejaVuSans-35"/>
      </g>
     </g>
    </g>
    <g id="ytick_3">
     <g id="line2d_8">
      <g>
       <use style="stroke:#000000;stroke-width:0.8;" x="82.520165" xlink:href="#m66112acaa5" y="238.544598"/>
      </g>
     </g>
     <g id="text_8">
      <!-- −1.0 -->
      <g transform="translate(51.237353 242.343817)scale(0.1 -0.1)">
       <use xlink:href="#DejaVuSans-2212"/>
       <use x="83.789062" xlink:href="#DejaVuSans-31"/>
       <use x="147.412109" xlink:href="#DejaVuSans-2e"/>
       <use x="179.199219" xlink:href="#DejaVuSans-30"/>
      </g>
     </g>
    </g>
    <g id="ytick_4">
     <g id="line2d_9">
      <g>
       <use style="stroke:#000000;stroke-width:0.8;" x="82.520165" xlink:href="#m66112acaa5" y="206.536299"/>
      </g>
     </g>
     <g id="text_9">
      <!-- −0.5 -->
      <g transform="translate(51.237353 210.335518)scale(0.1 -0.1)">
       <use xlink:href="#DejaVuSans-2212"/>
       <use x="83.789062" xlink:href="#DejaVuSans-30"/>
       <use x="147.412109" xlink:href="#DejaVuSans-2e"/>
       <use x="179.199219" xlink:href="#DejaVuSans-35"/>
      </g>
     </g>
    </g>
    <g id="ytick_5">
     <g id="line2d_10">
      <g>
       <use style="stroke:#000000;stroke-width:0.8;" x="82.520165" xlink:href="#m66112acaa5" y="174.528"/>
      </g>
     </g>
     <g id="text_10">
      <!-- 0.0 -->
      <g transform="translate(59.61704 178.327219)scale(0.1 -0.1)">
       <use xlink:href="#DejaVuSans-30"/>
       <use x="63.623047" xlink:href="#DejaVuSans-2e"/>
       <use x="95.410156" xlink:href="#DejaVuSans-30"/>
      </g>
     </g>
    </g>
    <g id="ytick_6">
     <g id="line2d_11">
      <g>
       <use style="stroke:#000000;stroke-width:0.8;" x="82.520165" xlink:href="#m66112acaa5" y="142.519701"/>
      </g>
     </g>
     <g id="text_11">
      <!-- 0.5 -->
      <g transform="translate(59.61704 146.31892)scale(0.1 -0.1)">
       <use xlink:href="#DejaVuSans-30"/>
       <use x="63.623047" xlink:href="#DejaVuSans-2e"/>
       <use x="95.410156" xlink:href="#DejaVuSans-35"/>
      </g>
     </g>
    </g>
    <g id="ytick_7">
     <g id="line2d_12">
      <g>
       <use style="stroke:#000000;stroke-width:0.8;" x="82.520165" xlink:href="#m66112acaa5" y="110.511402"/>
      </g>
     </g>
     <g id="text_12">
      <!-- 1.0 -->
      <g transform="translate(59.61704 114.310621)scale(0.1 -0.1)">
       <use xlink:href="#DejaVuSans-31"/>
       <use x="63.623047" xlink:href="#DejaVuSans-2e"/>
       <use x="95.410156" xlink:href="#DejaVuSans-30"/>
      </g>
     </g>
    </g>
    <g id="ytick_8">
     <g id="line2d_13">
      <g>
       <use style="stroke:#000000;stroke-width:0.8;" x="82.520165" xlink:href="#m66112acaa5" y="78.503103"/>
      </g>
     </g>
     <g id="text_13">
      <!-- 1.5 -->
      <g transform="translate(59.61704 82.302322)scale(0.1 -0.1)">
       <use xlink:href="#DejaVuSans-31"/>
       <use x="63.623047" xlink:href="#DejaVuSans-2e"/>
       <use x="95.410156" xlink:href="#DejaVuSans-35"/>
      </g>
     </g>
    </g>
    <g id="ytick_9">
     <g id="line2d_14">
      <g>
       <use style="stroke:#000000;stroke-width:0.8;" x="82.520165" xlink:href="#m66112acaa5" y="46.494804"/>
      </g>
     </g>
     <g id="text_14">
      <!-- 2.0 -->
      <g transform="translate(59.61704 50.294023)scale(0.1 -0.1)">
       <use xlink:href="#DejaVuSans-32"/>
       <use x="63.623047" xlink:href="#DejaVuSans-2e"/>
       <use x="95.410156" xlink:href="#DejaVuSans-30"/>
      </g>
     </g>
    </g>
   </g>
   <g id="line2d_15">
    <path clip-path="url(#pcb382833b4)" d="M 300.176598 63.648 
L 172.143402 63.648 
" style="fill:none;stroke:#009900;stroke-linecap:square;stroke-width:2;"/>
   </g>
   <g id="line2d_16">
    <path clip-path="url(#pcb382833b4)" d="M 172.143402 63.648 
L 108.126804 174.528 
" style="fill:none;stroke:#009900;stroke-linecap:square;stroke-width:2;"/>
   </g>
   <g id="line2d_17">
    <path clip-path="url(#pcb382833b4)" d="M 108.126804 174.528 
L 172.143402 285.408 
" style="fill:none;stroke:#009900;stroke-linecap:square;stroke-width:2;"/>
   </g>
   <g id="line2d_18">
    <path clip-path="url(#pcb382833b4)" d="M 172.143402 285.408 
L 300.176598 285.408 
" style="fill:none;stroke:#009900;stroke-linecap:square;stroke-width:2;"/>
   </g>
   <g id="line2d_19">
    <path clip-path="url(#pcb382833b4)" d="M 300.176598 285.408 
L 364.193196 174.528 
" style="fill:none;stroke:#009900;stroke-linecap:square;stroke-width:2;"/>
   </g>
   <g id="line2d_20">
    <path clip-path="url(#pcb382833b4)" d="M 364.193196 174.528 
L 300.176598 63.648 
" style="fill:none;stroke:#009900;stroke-linecap:square;stroke-width:2;"/>
   </g>
   <g id="line2d_21">
    <path clip-path="url(#pcb382833b4)" d="M 250.292916 84.487081 
L 252.694696 89.009907 
L 255.27542 93.43307 
L 258.030958 97.749493 
L 260.956904 101.952271 
L 264.048575 106.034681 
L 267.301026 109.990192 
L 270.709054 113.812475 
L 274.267206 117.495416 
L 277.96979 121.033123 
L 281.810884 124.419936 
L 285.784341 127.650438 
L 289.883805 130.719459 
L 294.102719 133.622091 
L 298.434332 136.353689 
L 302.871715 138.909884 
L 307.407769 141.286587 
L 312.035238 143.479994 
L 316.746718 145.486598 
L 321.534672 147.303188 
L 326.39144 148.926857 
L 331.309253 150.355009 
L 336.280243 151.585358 
L 341.296458 152.615937 
L 346.349872 153.445096 
L 351.432402 154.071509 
L 352.440239 154.171281 
L 350.404231 158.87013 
L 348.557757 163.646638 
L 346.903768 168.493165 
L 345.444912 173.401957 
L 344.183523 178.365162 
L 343.121617 183.374838 
L 342.260895 188.422972 
L 341.602732 193.501488 
L 341.148183 198.602261 
L 340.897973 203.717132 
L 340.852504 208.837916 
L 341.011849 213.956423 
L 341.047398 214.617698 
L 336.522506 217.015583 
L 332.097123 219.592497 
L 327.778329 222.344319 
L 323.573033 225.266645 
L 319.487963 228.3548 
L 315.529654 231.603845 
L 311.704438 235.00858 
L 308.018435 238.563561 
L 304.477542 242.263098 
L 301.087423 246.101274 
L 297.853502 250.071948 
L 294.780952 254.168769 
L 291.874689 258.385182 
L 289.139363 262.714442 
L 286.579348 267.149623 
L 284.198741 271.683629 
L 282.001351 276.309207 
L 279.990692 281.018958 
L 278.312839 285.408 
L 276.476352 280.627642 
L 274.450172 275.924548 
L 272.237538 271.306242 
L 269.841991 266.780111 
L 267.267364 262.353397 
L 264.517775 258.033182 
L 261.597622 253.826377 
L 258.511578 249.739711 
L 255.264579 245.779724 
L 251.861821 241.952749 
L 248.308746 238.26491 
L 244.611039 234.722105 
L 240.774615 231.330003 
L 236.805612 228.094031 
L 233.616926 225.678099 
L 229.260302 228.369628 
L 225.014795 231.233223 
L 220.887197 234.264301 
L 216.884112 237.458016 
L 213.011943 240.809256 
L 209.276886 244.312661 
L 205.684915 247.962626 
L 202.241777 251.753313 
L 198.95298 255.678655 
L 195.823785 259.732375 
L 192.8592 263.907987 
L 190.063965 268.19881 
L 187.442553 272.597981 
L 184.999159 277.098462 
L 182.73769 281.693052 
L 181.072051 285.408 
L 178.957808 280.74383 
L 176.658739 276.167939 
L 174.178522 271.687646 
L 171.521125 267.310119 
L 168.6908 263.04236 
L 165.692073 258.891199 
L 162.529743 254.863275 
L 159.208869 250.965033 
L 155.734763 247.202708 
L 152.112982 243.58232 
L 148.349322 240.10966 
L 144.449804 236.790284 
L 143.742704 236.216548 
L 142.853645 231.173328 
L 141.763622 226.169694 
L 140.474379 221.213652 
L 138.987979 216.31313 
L 137.306798 211.475968 
L 135.433528 206.709904 
L 133.371164 202.022564 
L 131.123007 197.421446 
L 128.692652 192.91391 
L 126.083987 188.507169 
L 123.301187 184.208271 
L 120.348703 180.024094 
L 117.231258 175.961331 
L 113.953839 172.026484 
L 111.289563 169.049941 
L 116.306325 170.077855 
L 121.360179 170.904329 
L 126.443041 171.528042 
L 131.546778 171.947995 
L 136.663228 172.163518 
L 141.784203 172.174265 
L 146.901511 171.980219 
L 152.006967 171.58169 
L 157.092402 170.979316 
L 162.14968 170.174061 
L 167.170712 169.167213 
L 172.147464 167.960383 
L 177.071975 166.555501 
L 181.936367 164.954815 
L 186.174558 163.381006 
L 182.577616 159.735939 
L 178.837788 156.237628 
L 174.961056 152.891667 
L 170.953622 149.703412 
L 166.821897 146.677961 
L 162.572492 143.820155 
L 158.212204 141.134565 
L 153.748008 138.625489 
L 149.187048 136.296941 
L 144.536618 134.152644 
L 139.804159 132.196031 
L 134.997242 130.43023 
L 133.817768 130.029945 
L 137.71836 133.348059 
L 141.748522 136.507538 
L 145.901804 139.503325 
L 150.171565 142.33063 
L 154.550971 144.984927 
L 159.033019 147.461973 
L 163.610537 149.757802 
L 168.276201 151.868744 
L 173.022549 153.79142 
L 177.841987 155.522755 
L 182.726805 157.059978 
L 187.561278 158.373616 
L 182.798181 156.492816 
L 177.963683 154.803993 
L 173.065516 153.309849 
L 168.111517 152.012775 
L 163.109612 150.914846 
L 158.067803 150.017818 
L 152.994155 149.323126 
L 147.896785 148.831881 
L 142.783848 148.54487 
L 137.663523 148.462551 
L 132.544002 148.585057 
L 127.433475 148.912191 
L 122.630045 149.407651 
L 124.727322 154.079474 
L 127.009745 158.663691 
L 129.473662 163.152969 
L 132.115131 167.540126 
L 134.929927 171.818142 
L 137.913546 175.980175 
L 141.061216 180.019566 
L 144.3679 183.929852 
L 147.828309 187.704779 
L 151.436907 191.338306 
L 155.187921 194.824622 
L 159.07535 198.158148 
L 163.092975 201.333553 
L 167.234368 204.345755 
L 171.492905 207.189936 
L 175.861772 209.861546 
L 180.333981 212.356311 
L 184.902376 214.67024 
L 189.55965 216.799631 
L 194.298351 218.741077 
L 199.110899 220.491473 
L 203.989594 222.048018 
L 208.926632 223.408222 
L 213.914115 224.569909 
L 218.944063 225.531221 
L 224.008431 226.29062 
L 229.099115 226.846891 
L 234.207972 227.199143 
L 239.326829 227.346814 
L 244.447496 227.289667 
L 249.561782 227.027794 
L 254.661506 226.561614 
L 259.738508 225.891872 
L 264.784666 225.019639 
L 269.791908 223.946312 
L 274.752222 222.673607 
L 279.657675 221.20356 
L 284.500418 219.538524 
L 289.272703 217.681161 
L 293.966896 215.634444 
L 298.575487 213.401646 
L 303.091104 210.986339 
L 307.506523 208.392388 
L 311.814679 205.623942 
L 316.008681 202.685431 
L 320.081819 199.581554 
L 324.027577 196.317279 
L 327.839642 192.897826 
L 331.511917 189.328666 
L 335.038525 185.615509 
L 338.413827 181.764296 
L 341.632421 177.781187 
L 344.689158 173.672555 
L 347.579149 169.444973 
L 350.297771 165.105203 
L 352.840673 160.660189 
L 354.439913 157.634818 
L 349.321338 157.477676 
L 344.200573 157.525349 
L 339.085811 157.777759 
L 333.985234 158.234503 
L 328.907002 158.894851 
L 323.859239 159.757745 
L 318.850019 160.821806 
L 313.887358 162.085331 
L 308.979194 163.546299 
L 304.133379 165.202373 
L 299.357666 167.050903 
L 294.659694 169.088932 
L 290.046979 171.313199 
L 287.341562 172.725896 
L 292.052787 174.733098 
L 296.84051 176.550296 
L 301.697073 178.174582 
L 306.614704 179.603358 
L 311.585538 180.834339 
L 316.601622 181.865555 
L 321.654931 182.695355 
L 326.737381 183.322414 
L 331.840841 183.745727 
L 336.957147 183.964618 
L 342.078114 183.978736 
L 347.19555 183.788059 
L 352.301266 183.392891 
L 357.387097 182.793865 
L 359.609602 182.467018 
L 357.6683 177.728258 
L 355.539051 173.070919 
L 353.225262 168.502453 
L 350.730634 164.030168 
L 348.059157 159.661219 
L 345.215106 155.402596 
L 342.20303 151.26111 
L 339.027749 147.243389 
L 335.694341 143.355858 
L 332.20814 139.604738 
L 328.574722 135.996029 
L 324.799901 132.535504 
L 320.889716 129.228701 
L 316.850421 126.080908 
L 312.688479 123.097161 
L 308.410549 120.282235 
L 304.023473 117.640632 
L 299.53427 115.176578 
L 294.950123 112.894015 
L 290.278364 110.796595 
L 285.526467 108.887673 
L 280.702035 107.170304 
L 275.812786 105.647234 
L 270.866541 104.3209 
L 265.871213 103.193424 
L 260.834794 102.26661 
L 255.765341 101.54194 
L 250.670964 101.020574 
L 245.559812 100.703345 
L 240.440064 100.590762 
L 235.319908 100.683005 
L 230.207537 100.979925 
L 225.111128 101.481048 
L 220.038836 102.185572 
L 214.998775 103.09237 
L 209.999007 104.199992 
L 205.047532 105.506665 
L 200.15227 107.010299 
L 195.321054 108.708488 
L 190.561611 110.598516 
L 185.881556 112.67736 
L 181.288376 114.941692 
L 176.78942 117.387892 
L 172.391884 120.012045 
L 168.102804 122.809954 
L 163.929041 125.777142 
L 159.877273 128.908863 
L 155.953981 132.200106 
L 152.165442 135.645607 
L 148.517716 139.239852 
L 145.01664 142.977093 
L 141.667814 146.85135 
L 138.476596 150.856425 
L 135.448091 154.985912 
L 132.587144 159.233203 
L 129.898331 163.591504 
L 127.385955 168.053843 
L 125.054034 172.61308 
L 122.906299 177.261923 
L 120.946187 181.992934 
L 119.176832 186.798543 
L 117.74694 191.190564 
L 122.758714 192.242522 
L 127.808547 193.093222 
L 132.88836 193.741302 
L 137.990025 194.185725 
L 143.105382 194.42578 
L 148.226247 194.461084 
L 153.344427 194.291579 
L 158.451735 193.917537 
L 163.54 193.339557 
L 168.601082 192.558563 
L 173.626884 191.575804 
L 178.609366 190.392852 
L 183.540557 189.011601 
L 186.749593 187.996912 
L 186.124216 188.133714 
L 181.147413 189.340335 
L 176.222843 190.74501 
L 171.358384 192.345492 
L 166.561819 194.13922 
L 161.84082 196.123325 
L 157.20294 198.294632 
L 152.6556 200.649669 
L 148.206073 203.184666 
L 143.861478 205.89557 
L 139.628766 208.778042 
L 135.514707 211.827472 
L 131.51911 215.044663 
L 136.294898 213.196325 
L 140.992952 211.158485 
L 145.605756 208.934404 
L 150.125931 206.527638 
L 154.546246 203.942039 
L 158.859628 201.181742 
L 163.059177 198.251164 
L 167.138175 195.154993 
L 171.090097 191.898183 
L 174.90862 188.485942 
L 178.587635 184.923731 
L 182.121258 181.217248 
L 185.057693 177.897587 
L 181.181491 174.551013 
L 177.174561 171.362123 
L 173.043315 168.336019 
L 168.794362 165.47754 
L 164.434499 162.791261 
L 159.970701 160.281479 
L 155.410109 157.952208 
L 150.760019 155.807176 
L 146.02787 153.849814 
L 141.221232 152.083252 
L 136.347796 150.510318 
L 131.415357 149.133528 
L 126.431807 147.955084 
L 123.781474 147.413316 
L 127.214294 151.213349 
L 130.796329 154.873066 
L 134.521847 158.386613 
L 138.384891 161.748368 
L 142.379278 164.952954 
L 146.49862 167.995244 
L 150.736326 170.87037 
L 155.085617 173.573733 
L 159.539534 176.101009 
L 164.090952 178.448154 
L 168.732591 180.611413 
L 173.457025 182.587326 
L 178.256694 184.372732 
L 183.123922 185.964773 
L 186.472774 186.936845 
L 182.826274 190.532334 
L 179.326472 194.270768 
L 175.978967 198.146166 
L 172.789114 202.152329 
L 169.762017 206.282847 
L 166.902518 210.531114 
L 164.215191 214.890331 
L 161.704336 219.353526 
L 159.373969 223.913558 
L 157.22782 228.563133 
L 155.26932 233.294811 
L 153.501604 238.101024 
L 151.927499 242.974082 
L 150.531688 247.975413 
L 155.491295 249.250874 
L 160.49794 250.326984 
L 165.543612 251.20202 
L 170.620241 251.874584 
L 175.719705 252.343598 
L 180.833845 252.608313 
L 185.95448 252.668306 
L 191.073418 252.523479 
L 196.18247 252.174066 
L 201.273462 251.620624 
L 206.338251 250.86404 
L 211.368732 249.905523 
L 216.35686 248.746607 
L 221.294653 247.389147 
L 226.174213 245.835313 
L 230.987733 244.087592 
L 235.727512 242.148779 
L 240.385968 240.021977 
L 244.955648 237.710587 
L 249.429243 235.218308 
L 253.799594 232.549126 
L 258.059711 229.707312 
L 262.202777 226.697411 
L 266.222166 223.52424 
L 270.111447 220.192875 
L 273.864398 216.708644 
L 277.475014 213.077122 
L 280.93752 209.304119 
L 284.246377 205.395671 
L 287.396291 201.35803 
L 290.382223 197.197656 
L 293.199396 192.921204 
L 295.843302 188.535516 
L 298.309714 184.047608 
L 300.594683 179.46466 
L 302.694557 174.794003 
L 304.605973 170.04311 
L 306.325876 165.21958 
L 307.851514 160.331132 
L 309.180445 155.385584 
L 310.310544 150.390849 
L 311.240004 145.354917 
L 311.967336 140.285845 
L 312.491377 135.191742 
L 312.81129 130.080758 
L 312.926561 124.96107 
L 312.837008 119.840866 
L 312.542773 114.72834 
L 312.044326 109.631669 
L 311.342466 104.559007 
L 310.438315 99.518471 
L 309.333319 94.518122 
L 308.029247 89.565961 
L 306.528184 84.66991 
L 304.832532 79.837803 
L 302.945004 75.077368 
L 300.868618 70.396222 
L 298.606698 65.801854 
L 297.466127 63.648 
L 295.117163 68.19848 
L 292.952049 72.839254 
L 290.974248 77.562898 
L 289.186925 82.361853 
L 287.592938 87.228444 
L 286.194838 92.154885 
L 284.994862 97.133294 
L 283.994928 102.155707 
L 283.196637 107.21409 
L 282.601267 112.30035 
L 282.209768 117.406349 
L 282.022769 122.52392 
L 282.040567 127.644875 
L 282.263134 132.761023 
L 282.690115 137.864178 
L 283.320826 142.946176 
L 284.154258 147.998887 
L 285.189078 153.014229 
L 286.423631 157.984177 
L 287.855941 162.90078 
L 289.483717 167.756174 
L 291.304355 172.54259 
L 293.314942 177.252371 
L 295.512262 181.877983 
L 297.892799 186.412026 
L 300.452746 190.847246 
L 303.188006 195.176548 
L 306.094205 199.393005 
L 309.166692 203.489873 
L 312.400552 207.460597 
L 315.790613 211.298824 
L 319.331449 214.998416 
L 323.017398 218.553452 
L 326.842562 221.958246 
L 330.800822 225.207351 
L 333.667027 227.400876 
L 328.926826 225.463092 
L 324.112927 223.716416 
L 319.23303 222.163642 
L 314.294943 220.807253 
L 309.306564 219.649421 
L 304.275874 218.691996 
L 299.210921 217.936512 
L 294.119809 217.384175 
L 289.010681 217.035871 
L 283.891712 216.892156 
L 278.77109 216.95326 
L 273.657007 217.219085 
L 268.557646 217.689207 
L 263.481163 218.362872 
L 262.34259 218.542451 
L 259.290676 222.654667 
L 256.405648 226.885638 
L 253.692122 231.228595 
L 251.154438 235.67659 
L 248.796656 240.222508 
L 246.622549 244.859075 
L 244.635593 249.578875 
L 242.838969 254.374357 
L 241.23555 259.237848 
L 239.827902 264.161569 
L 238.618275 269.137643 
L 237.608606 274.158108 
L 236.80051 279.214933 
L 236.195279 284.300029 
L 236.090691 285.408 
L 235.529684 280.317836 
L 234.765573 275.254177 
L 233.799581 270.225126 
L 232.633253 265.238726 
L 231.268456 260.302956 
L 229.707371 255.425711 
L 227.952498 250.614794 
L 226.006643 245.877901 
L 223.87292 241.222611 
L 221.554741 236.656371 
L 219.055816 232.186486 
L 216.380142 227.820106 
L 213.531999 223.564218 
L 210.515944 219.425629 
L 209.718779 218.387568 
L 204.658584 217.600844 
L 199.570977 217.017103 
L 194.464096 216.637279 
L 189.346111 216.461979 
L 184.225209 216.491485 
L 179.109584 216.725748 
L 174.007419 217.164394 
L 168.926876 217.806722 
L 163.876083 218.651704 
L 158.86312 219.697987 
L 153.896008 220.943899 
L 148.982692 222.387445 
L 144.131032 224.026317 
L 139.348791 225.857893 
L 138.06728 226.386426 
L 142.079284 223.203922 
L 145.960812 219.863527 
L 149.705656 216.370584 
L 153.307823 212.730681 
L 156.761552 208.949642 
L 160.061316 205.033514 
L 163.201838 200.988564 
L 166.178093 196.821262 
L 168.98532 192.538275 
L 171.619028 188.146454 
L 174.075002 183.652826 
L 176.349316 179.06458 
L 178.438329 174.389056 
L 180.338699 169.633734 
L 182.047388 164.80622 
L 183.561661 159.914239 
L 184.879095 154.965616 
L 185.997584 149.968268 
L 186.915337 144.93019 
L 187.630887 139.859442 
L 188.143089 134.764135 
L 188.451122 129.652421 
L 188.554496 124.532478 
L 188.453044 119.412497 
L 188.146928 114.300668 
L 187.636638 109.205169 
L 186.922991 104.134153 
L 186.007129 99.095731 
L 184.890515 94.097964 
L 183.574938 89.148847 
L 182.062501 84.256298 
L 180.355624 79.428144 
L 178.457037 74.672108 
L 176.369779 69.9958 
L 174.097188 65.406701 
L 173.164562 63.648 
L 170.820896 68.201211 
L 168.661184 72.844501 
L 166.688881 77.570443 
L 164.907144 82.371475 
L 163.318822 87.239918 
L 161.926456 92.167983 
L 160.732273 97.147785 
L 159.738186 102.171358 
L 158.945782 107.230667 
L 158.356331 112.317615 
L 157.970775 117.424067 
L 157.789731 122.541852 
L 157.813488 127.662784 
L 158.04201 132.778669 
L 158.474929 137.881323 
L 159.111554 142.962584 
L 159.950865 148.014322 
L 160.991521 153.028456 
L 162.231857 157.996963 
L 163.669887 162.911897 
L 165.303313 167.765393 
L 167.12952 172.549687 
L 169.145586 177.257125 
L 171.348288 181.880177 
L 173.7341 186.411446 
L 176.299207 190.843684 
L 179.039503 195.1698 
L 181.950607 199.382872 
L 185.027859 203.476162 
L 188.266338 207.443119 
L 191.660863 211.277399 
L 195.206003 214.972868 
L 198.896086 218.523612 
L 202.72521 221.923953 
L 206.687248 225.168449 
L 210.775862 228.251911 
L 214.984511 231.169405 
L 219.306463 233.916265 
L 223.734802 236.488095 
L 228.262445 238.880782 
L 232.882148 241.090498 
L 237.586521 243.113707 
L 242.368038 244.947173 
L 247.219049 246.587963 
L 252.131794 248.033452 
L 257.098414 249.281327 
L 262.110962 250.329592 
L 267.161421 251.17657 
L 272.24171 251.820907 
L 277.343701 252.26157 
L 282.459233 252.497856 
L 287.580123 252.529386 
L 292.698177 252.356109 
L 297.805208 251.978304 
L 302.893045 251.396575 
L 307.95355 250.611851 
L 312.978627 249.625389 
L 317.960236 248.438766 
L 322.201161 247.260337 
L 320.907555 242.305432 
L 319.416841 237.406221 
L 317.731402 232.570541 
L 315.853937 227.806129 
L 313.787447 223.120606 
L 311.535239 218.521469 
L 309.100917 214.016075 
L 306.488374 209.611631 
L 303.70179 205.315185 
L 300.745623 201.133609 
L 297.624602 197.073593 
L 294.34372 193.141632 
L 290.908226 189.344017 
L 287.323616 185.686822 
L 286.34523 184.737926 
L 291.094492 182.822459 
L 295.763357 180.718605 
L 300.344355 178.429729 
L 304.830159 175.959493 
L 309.213592 173.311848 
L 313.48764 170.491031 
L 317.645467 167.501554 
L 321.680422 164.348199 
L 325.586048 161.036011 
L 329.356098 157.57029 
L 332.98454 153.956579 
L 336.46557 150.200659 
L 339.793619 146.30854 
L 342.963362 142.286447 
L 344.433358 140.302957 
L 339.352041 140.93913 
L 334.300228 141.777993 
L 329.286002 142.818204 
L 324.317384 144.058098 
L 319.402323 145.495692 
L 314.548682 147.128686 
L 309.764225 148.954468 
L 305.056608 150.970116 
L 300.43336 153.172407 
L 295.901879 155.557817 
L 291.469413 158.122529 
L 287.143055 160.862442 
L 285.763417 161.788263 
L 290.87011 162.170604 
L 295.988009 162.348426 
L 301.108924 162.321444 
L 306.224664 162.089702 
L 311.327045 161.65357 
L 316.407904 161.013746 
L 321.459113 160.171254 
L 326.47259 159.127442 
L 331.440316 157.883978 
L 336.354343 156.442853 
L 341.20681 154.806372 
L 345.989953 152.977154 
L 350.608111 150.997944 
L 350.08903 151.372598 
L 346.005126 154.462296 
L 342.048044 157.712835 
L 338.224114 161.119015 
L 334.539454 164.675387 
L 330.999958 168.376261 
L 327.611289 172.215717 
L 324.378867 176.187612 
L 321.307865 180.285593 
L 318.403194 184.503103 
L 315.669503 188.833396 
L 313.111164 193.269543 
L 310.732269 197.804448 
L 308.536626 202.430856 
L 306.527745 207.141365 
L 304.708842 211.928441 
L 303.082825 216.784424 
L 301.652297 221.701546 
L 300.419545 226.671941 
L 299.386543 231.687657 
L 298.554941 236.74067 
L 297.926072 241.822897 
L 297.50094 246.926206 
L 297.280227 252.042434 
L 297.264284 257.163395 
L 297.453138 262.280898 
L 297.846487 267.386756 
L 298.4437 272.472799 
L 299.243824 277.530892 
L 300.245577 282.552942 
L 300.693554 284.512606 
L 297.826833 285.408 
L 292.926272 283.921728 
L 287.970196 282.632615 
L 282.966533 281.542724 
L 277.923289 280.653797 
L 272.848531 279.967257 
L 267.750379 279.484203 
L 262.636987 279.205407 
L 257.516537 279.131315 
L 252.397219 279.262046 
L 247.287225 279.59739 
L 242.194727 280.136811 
L 237.127875 280.879446 
L 232.094773 281.824108 
L 227.103473 282.969284 
L 222.161961 284.313143 
L 218.622584 285.408 
L 213.722023 283.921728 
L 208.765947 282.632615 
L 203.762285 281.542724 
L 198.719041 280.653797 
L 193.644283 279.967257 
L 188.546131 279.484203 
L 183.432739 279.205407 
L 178.312288 279.131315 
L 173.192971 279.262046 
L 168.756345 279.541444 
L 171.579249 275.268774 
L 174.229035 270.886635 
L 176.701461 266.402039 
L 178.992575 261.822159 
L 181.098709 257.154322 
L 183.016495 252.405996 
L 184.742864 247.584777 
L 186.275055 242.698378 
L 187.610617 237.754617 
L 188.747413 232.761402 
L 189.683624 227.726721 
L 190.417752 222.658629 
L 190.948624 217.565234 
L 191.27539 212.454683 
L 191.397527 207.335153 
L 191.314839 202.214835 
L 191.156325 198.971181 
L 186.980122 196.007428 
L 182.688742 193.213049 
L 178.289048 190.592515 
L 173.788081 188.150018 
L 169.193039 185.889465 
L 164.511276 183.814473 
L 159.75028 181.928361 
L 154.917667 180.234148 
L 150.02117 178.734542 
L 145.068622 177.431943 
L 140.067944 176.328436 
L 135.027138 175.425785 
L 129.954268 174.725434 
L 124.85745 174.228505 
L 119.744836 173.935791 
L 114.624606 173.847761 
L 109.504952 173.964557 
L 108.422694 174.015504 
L 110.843272 178.528298 
L 113.442377 182.940684 
L 116.215851 187.245605 
L 119.159258 191.436172 
L 122.267889 195.505683 
L 125.53677 199.447627 
L 128.960672 203.255697 
L 132.534117 206.923801 
L 136.251389 210.446072 
L 140.106541 213.816874 
L 144.093405 217.030814 
L 148.205604 220.082752 
L 152.436558 222.967805 
L 156.779499 225.681357 
L 161.22748 228.219066 
L 165.773384 230.576875 
L 170.409939 232.751009 
L 175.129727 234.737992 
L 179.925198 236.534644 
L 184.78868 238.138091 
L 189.712393 239.545769 
L 194.688459 240.755424 
L 199.708918 241.765122 
L 204.765739 242.573248 
L 209.850831 243.178508 
L 214.95606 243.579935 
L 220.073257 243.776886 
L 225.194238 243.769046 
L 230.310808 243.556428 
L 235.414784 243.139372 
L 240.497999 242.518544 
L 245.552322 241.694939 
L 250.569666 240.669874 
L 255.542005 239.444988 
L 260.461384 238.022242 
L 265.319934 236.403911 
L 270.109882 234.592584 
L 274.823564 232.591159 
L 279.45344 230.402839 
L 283.992104 228.031123 
L 288.432293 225.479806 
L 292.766906 222.752969 
L 296.989006 219.854975 
L 301.091841 216.790461 
L 305.068846 213.564328 
L 308.913659 210.181738 
L 312.620129 206.648102 
L 316.182327 202.969074 
L 319.594553 199.150538 
L 322.851349 195.198604 
L 325.947505 191.119594 
L 328.878067 186.920034 
L 331.638347 182.606642 
L 334.22393 178.186318 
L 336.630679 173.666134 
L 338.854744 169.053322 
L 340.892566 164.35526 
L 342.740886 159.579465 
L 344.396747 154.733578 
L 345.857499 149.825349 
L 347.104984 144.930349 
L 342.174739 143.545724 
L 337.193067 142.359364 
L 332.167939 141.373167 
L 327.107392 140.58871 
L 322.019524 140.007248 
L 316.912473 139.629712 
L 311.79441 139.456706 
L 306.673522 139.488506 
L 301.558002 139.725061 
L 296.456034 140.165993 
L 291.375779 140.810597 
L 286.325366 141.657842 
L 281.312872 142.706371 
L 277.095123 143.752757 
L 279.646915 139.312841 
L 282.019117 134.774431 
L 284.207934 130.144789 
L 286.209863 125.431321 
L 288.021703 120.641568 
L 289.640554 115.783191 
L 291.063827 110.863964 
L 292.289245 105.891756 
L 293.314847 100.874522 
L 294.138993 95.820287 
L 294.760365 90.737139 
L 295.177968 85.633208 
L 295.391134 80.51666 
L 295.399522 75.39568 
L 295.203119 70.278462 
L 294.802238 65.17319 
L 294.642503 63.648 
L 294.180504 68.748104 
L 293.922824 73.862603 
L 293.869875 78.983316 
L 294.021743 84.10205 
L 294.378184 89.210616 
L 294.938628 94.300843 
L 295.702179 99.364586 
L 296.667614 104.393744 
L 297.83339 109.380273 
L 299.197641 114.316194 
L 300.758186 119.193612 
L 302.512527 124.004723 
L 304.457857 128.741831 
L 306.591066 133.397357 
L 308.908739 137.963854 
L 311.40717 142.434015 
L 314.082361 146.800691 
L 316.930032 151.056894 
L 319.945629 155.195817 
L 323.124326 159.210837 
L 326.461038 163.095532 
L 329.950428 166.843686 
L 333.586913 170.449304 
L 337.364675 173.906617 
L 341.277671 177.210094 
L 345.319641 180.354451 
L 349.484119 183.334657 
L 353.764442 186.145945 
L 356.515083 187.826882 
L 354.833158 186.899858 
L 350.28201 184.552189 
L 345.64062 182.388395 
L 340.916415 180.411938 
L 336.116951 178.625979 
L 331.249906 177.033377 
L 326.323068 175.636678 
L 321.344318 174.438118 
L 316.32162 173.439613 
L 311.263011 172.642762 
L 306.176582 172.048838 
L 301.070472 171.658792 
L 295.952848 171.473248 
L 290.831897 171.492503 
L 287.290974 171.625698 
L 289.844967 171.44158 
L 294.939355 170.920319 
L 300.008823 170.195754 
L 305.045262 169.269043 
L 310.040613 168.141671 
L 314.986885 166.815439 
L 319.876166 165.292469 
L 324.700633 163.575199 
L 329.452569 161.666376 
L 334.124371 159.569052 
L 338.708566 157.286584 
L 343.197819 154.822622 
L 347.58495 152.18111 
L 350.282859 150.434591 
L 349.709987 150.720298 
L 345.179887 153.10833 
L 340.748906 155.675607 
L 336.424134 158.418023 
L 332.212488 161.33119 
L 328.120706 164.410447 
L 324.155335 167.650869 
L 320.322719 171.047272 
L 316.628987 174.594221 
L 313.080051 178.286044 
L 309.681587 182.116833 
L 306.439032 186.080459 
L 303.357573 190.170584 
L 300.442141 194.380661 
L 297.697399 198.703958 
L 295.127738 203.133557 
L 292.737269 207.662371 
L 290.529817 212.283156 
L 288.508912 216.98852 
L 286.677788 221.770934 
L 285.039375 226.622749 
L 283.596293 231.536201 
L 282.350851 236.503432 
L 281.305042 241.516493 
L 280.460538 246.567366 
L 279.81869 251.647969 
L 279.380526 256.750176 
L 279.146746 261.865824 
L 279.117725 266.986728 
L 279.293508 272.104696 
L 279.673815 277.211542 
L 280.258037 282.299094 
L 280.717115 285.408 
L 281.426027 280.336319 
L 281.931559 275.240346 
L 282.232903 270.128234 
L 282.329575 265.00816 
L 282.221421 259.888316 
L 281.908615 254.776892 
L 281.391657 249.682066 
L 280.671373 244.611987 
L 279.748917 239.574768 
L 278.625763 234.578467 
L 277.303709 229.631076 
L 275.78487 224.740511 
L 274.071675 219.914595 
L 272.166865 215.161049 
L 270.862709 212.191269 
L 275.385378 214.593344 
L 280.000488 216.812639 
L 284.700653 218.845603 
L 289.478356 220.688985 
L 294.325953 222.339835 
L 299.235689 223.795512 
L 304.199709 225.053688 
L 309.210072 226.11235 
L 314.258762 226.969804 
L 319.337703 227.624678 
L 324.43877 228.075925 
L 329.553801 228.322822 
L 333.105293 228.373826 
L 330.454477 223.992311 
L 327.630567 219.720305 
L 324.638082 215.564643 
L 321.481808 211.531972 
L 318.166794 207.628744 
L 314.698345 203.861203 
L 311.082009 200.235377 
L 307.323571 196.757066 
L 303.429045 193.431835 
L 299.404659 190.265003 
L 295.256853 187.261636 
L 290.992263 184.426541 
L 286.840748 181.894249 
L 291.789547 180.577476 
L 296.68173 179.063856 
L 301.509472 177.355812 
L 306.265048 175.456076 
L 310.940851 173.367687 
L 315.529401 171.093987 
L 320.023356 168.638612 
L 324.415528 166.005491 
L 328.69889 163.198836 
L 332.86659 160.223137 
L 336.911959 157.083155 
L 340.828527 153.783913 
L 344.610028 150.330689 
L 348.183306 146.798058 
L 343.244985 148.153596 
L 338.364821 149.70553 
L 333.550621 151.451378 
L 328.810087 153.388345 
L 324.150804 155.513334 
L 319.580224 157.822945 
L 315.10566 160.313483 
L 310.73427 162.980963 
L 306.473047 165.821119 
L 302.328809 168.829406 
L 298.308186 172.001012 
L 294.417608 175.330864 
L 290.663302 178.813633 
L 286.698477 182.814265 
L 288.943794 187.41677 
L 291.371366 191.925805 
L 293.97731 196.334156 
L 296.757456 200.634771 
L 299.707357 204.82077 
L 302.822294 208.885456 
L 306.097283 212.822326 
L 309.527086 216.625083 
L 313.106214 220.287642 
L 316.828943 223.804144 
L 320.689317 227.168965 
L 324.68116 230.37672 
L 328.798086 233.422278 
L 329.78889 234.118005 
L 329.208948 233.846936 
L 324.522103 231.783448 
L 319.756489 229.909034 
L 314.91973 228.226693 
L 310.019565 226.739117 
L 305.063833 225.448685 
L 300.06046 224.357462 
L 295.017453 223.467193 
L 289.942878 222.779302 
L 284.844854 222.294891 
L 279.731537 222.014734 
L 274.611107 221.939279 
L 269.491755 222.068647 
L 264.381671 222.402631 
L 259.28903 222.940696 
L 254.22198 223.681983 
L 249.188627 224.625305 
L 244.197022 225.769152 
L 239.255152 227.111696 
L 234.370923 228.650787 
L 229.552147 230.383965 
L 224.806535 232.308456 
L 220.141678 234.421181 
L 215.565038 236.718761 
L 211.083939 239.19752 
L 206.705547 241.853493 
L 202.436868 244.68243 
L 198.284731 247.679805 
L 194.255779 250.840824 
L 190.356456 254.16043 
L 186.593001 257.633312 
L 182.971435 261.253914 
L 179.497551 265.016444 
L 176.176906 268.914883 
L 173.014814 272.942994 
L 170.016333 277.094332 
L 168.573232 279.224284 
L 173.67708 278.805663 
L 178.760104 278.183278 
L 183.814174 277.358123 
L 188.831204 276.331519 
L 193.803167 275.105109 
L 198.72211 273.680855 
L 203.580164 272.061034 
L 208.369556 270.248239 
L 213.082624 268.245369 
L 217.711829 266.055629 
L 222.249765 263.682522 
L 226.689172 261.129844 
L 231.022949 258.401678 
L 235.244161 255.502391 
L 239.346056 252.436618 
L 243.322071 249.209266 
L 247.165847 245.825498 
L 250.871234 242.290726 
L 254.432303 238.610605 
L 257.843358 234.791024 
L 261.098943 230.838091 
L 264.193848 226.758133 
L 267.123122 222.557674 
L 269.88208 218.243436 
L 272.466308 213.822319 
L 274.871671 209.301398 
L 276.368972 206.246109 
L 280.294309 202.957305 
L 284.084989 199.51416 
L 287.734947 195.922182 
L 291.238346 192.187119 
L 294.589579 188.314944 
L 297.783286 184.311853 
L 300.814357 180.18425 
L 303.677944 175.938737 
L 306.369465 171.582108 
L 308.884615 167.121332 
L 311.219369 162.563545 
L 313.369992 157.916038 
L 315.333045 153.186247 
L 317.105386 148.381737 
L 318.68418 143.510196 
L 320.066902 138.579417 
L 321.251339 133.597288 
L 322.235597 128.57178 
L 323.018101 123.510931 
L 323.597599 118.422838 
L 323.973164 113.315642 
L 324.144195 108.197513 
L 324.148974 105.169374 
L 319.68931 102.652253 
L 315.132555 100.315485 
L 310.485999 98.162808 
L 305.757076 96.197665 
L 300.953351 94.4232 
L 296.082508 92.842253 
L 291.152341 91.457352 
L 286.170735 90.270713 
L 281.145662 89.284234 
L 276.08516 88.499493 
L 270.997324 87.917747 
L 265.890294 87.539925 
L 260.772241 87.366631 
L 255.651351 87.398144 
L 250.535818 87.634413 
L 245.433825 88.07506 
L 240.353535 88.719379 
L 235.303073 89.56634 
L 230.290521 90.614589 
L 225.323898 91.862448 
L 220.411148 93.30792 
L 215.560131 94.948694 
L 210.778608 96.782144 
L 206.074228 98.805338 
L 201.454518 101.015038 
L 196.926867 103.40771 
L 192.498519 105.979526 
L 188.176558 108.726371 
L 183.9679 111.643852 
L 179.879275 114.7273 
L 175.917227 117.971783 
L 172.088092 121.372111 
L 168.397997 124.922843 
L 164.852845 128.6183 
L 161.458307 132.452568 
L 158.219815 136.419516 
L 155.142549 140.512795 
L 152.231431 144.725857 
L 149.49112 149.051964 
L 146.925999 153.484193 
L 144.540172 158.015455 
L 142.337455 162.638499 
L 140.321373 167.345931 
L 138.49515 172.130219 
L 136.861709 176.983709 
L 135.423662 181.898638 
L 134.18331 186.867142 
L 133.142637 191.881272 
L 132.303308 196.933007 
L 131.666667 202.014266 
L 131.233731 207.116919 
L 131.005192 212.232803 
L 130.97281 214.098442 
L 135.482689 216.524446 
L 140.085974 218.768162 
L 144.775303 220.826002 
L 149.543172 222.694672 
L 154.381954 224.371183 
L 159.283908 225.852854 
L 164.241192 227.137313 
L 169.245875 228.222507 
L 174.289952 229.106699 
L 179.365351 229.788474 
L 184.463955 230.266742 
L 189.577606 230.540738 
L 194.698124 230.610023 
L 199.817317 230.474486 
L 204.926994 230.134345 
L 210.018983 229.590143 
L 215.085136 228.842752 
L 220.117349 227.893366 
L 225.107571 226.743504 
L 230.095524 225.380945 
L 234.579143 227.855143 
L 239.158117 230.148066 
L 243.825122 232.256044 
L 248.57269 234.175706 
L 253.393226 235.90398 
L 258.279019 237.438102 
L 263.222252 238.775617 
L 268.215018 239.914385 
L 273.249328 240.852586 
L 278.31713 241.588717 
L 283.410315 242.121601 
L 288.520736 242.450386 
L 293.640217 242.574545 
L 298.760568 242.493881 
L 303.873598 242.208521 
L 308.971126 241.718924 
L 314.044999 241.025871 
L 319.087097 240.130472 
L 324.089357 239.034158 
L 327.443517 238.180311 
L 326.024305 233.25991 
L 324.409465 228.400199 
L 322.60158 223.608951 
L 320.603543 218.893832 
L 318.418549 214.262385 
L 316.050094 209.722019 
L 313.501968 205.279997 
L 310.778247 200.943427 
L 307.883287 196.719245 
L 304.821721 192.61421 
L 301.598447 188.634888 
L 298.21862 184.787646 
L 294.687648 181.078638 
L 291.011179 177.513798 
L 287.372533 174.251618 
L 291.145208 170.788755 
L 294.776388 167.177796 
L 298.260264 163.424516 
L 301.591262 159.53492 
L 304.764054 155.515231 
L 307.773562 151.37188 
L 310.614974 147.111495 
L 313.283742 142.740891 
L 315.775599 138.267061 
L 318.086557 133.697162 
L 320.212919 129.038505 
L 322.151283 124.298543 
L 323.898549 119.484858 
L 325.451922 114.605151 
L 326.789649 109.743157 
L 321.833996 108.452419 
L 316.830691 107.360887 
L 311.787739 106.470307 
L 306.713207 105.782103 
L 301.615213 105.297377 
L 296.501913 105.016904 
L 291.381487 104.941133 
L 286.262127 105.070185 
L 281.152023 105.403853 
L 276.059349 105.941604 
L 270.992253 106.682578 
L 265.958842 107.625589 
L 260.967166 108.769128 
L 256.025214 110.111366 
L 251.140889 111.650156 
L 246.322007 113.383037 
L 241.576275 115.307234 
L 236.911288 117.419672 
L 232.334506 119.716969 
L 227.853254 122.195451 
L 223.317295 124.951142 
L 218.200346 124.747839 
L 213.07936 124.749321 
L 207.962529 124.955587 
L 202.85804 125.366307 
L 197.774058 125.980823 
L 192.718717 126.798153 
L 187.700104 127.816989 
L 182.726248 129.0357 
L 177.805106 130.452338 
L 172.944551 132.064637 
L 168.152358 133.870015 
L 163.436195 135.865587 
L 158.803606 138.048158 
L 154.262001 140.414238 
L 149.818648 142.96004 
L 145.480654 145.681494 
L 141.254958 148.574243 
L 137.148322 151.633662 
L 133.167315 154.854855 
L 129.318306 158.232669 
L 125.607452 161.761701 
L 122.04069 165.436304 
L 118.623726 169.250601 
L 115.362026 173.198489 
L 112.260809 177.273652 
L 110.850247 179.245141 
L 115.941411 178.693281 
L 121.006435 177.93827 
L 126.037214 176.981316 
L 131.025701 175.82395 
L 135.963916 174.468024 
L 140.843958 172.915706 
L 145.65802 171.16948 
L 150.398402 169.23214 
L 155.057518 167.106784 
L 159.627917 164.796814 
L 164.102285 162.305925 
L 168.473465 159.6381 
L 172.734464 156.79761 
L 176.878466 153.788997 
L 180.89884 150.617074 
L 184.789155 147.286917 
L 188.543188 143.803852 
L 192.154933 140.173452 
L 195.618611 136.401525 
L 198.928681 132.494104 
L 202.079849 128.457442 
L 205.067073 124.297996 
L 207.885574 120.022419 
L 210.530843 115.637553 
L 212.998648 111.150411 
L 215.285042 106.568173 
L 217.386366 101.898169 
L 219.299258 97.147869 
L 221.020659 92.324874 
L 222.547815 87.4369 
L 223.878283 82.491765 
L 225.009934 77.497381 
L 225.940957 72.461739 
L 226.669864 67.392893 
L 227.076313 63.648 
L 227.137611 64.285224 
L 227.74252 69.370358 
L 228.550296 74.427234 
L 229.559648 79.447763 
L 230.768959 84.423913 
L 232.176296 89.347723 
L 233.779408 94.211316 
L 235.575729 99.006911 
L 237.562385 103.726837 
L 239.736199 108.363542 
L 242.093694 112.909608 
L 244.631096 117.357764 
L 247.344348 121.700893 
L 249.660407 125.126189 
L 254.279193 122.914559 
L 258.805844 120.519995 
L 263.233117 117.946329 
L 267.553929 115.197677 
L 271.761368 112.278438 
L 275.848704 109.193282 
L 279.809396 105.947143 
L 283.63711 102.545216 
L 287.325721 98.992942 
L 290.869328 95.296004 
L 294.262263 91.460317 
L 297.499097 87.492017 
L 300.574653 83.397452 
L 303.484009 79.183173 
L 306.439611 74.495858 
L 301.322195 74.687041 
L 296.216517 75.082714 
L 291.130746 75.682243 
L 286.073018 76.484668 
L 281.051424 77.488708 
L 276.073997 78.692754 
L 271.148701 80.094881 
L 266.283415 81.692846 
L 261.485922 83.484092 
L 256.763897 85.465754 
L 252.124895 87.634661 
L 247.576337 89.987345 
L 243.125499 92.52004 
L 238.779502 95.228695 
L 234.545299 98.108977 
L 230.429663 101.156278 
L 226.439179 104.365724 
L 222.580231 107.732178 
L 218.858991 111.250257 
L 215.281414 114.914332 
L 211.853222 118.71854 
L 208.5799 122.656797 
L 205.466685 126.722802 
L 202.518557 130.910049 
L 199.740232 135.211841 
L 197.136156 139.621296 
L 194.710493 144.131358 
L 194.152708 145.233167 
L 190.722002 149.035108 
L 187.446078 152.971201 
L 184.330176 157.035146 
L 181.379281 161.220444 
L 178.598113 165.520399 
L 175.991123 169.928131 
L 173.56248 174.436589 
L 171.316069 179.038561 
L 169.255486 183.726684 
L 167.384026 188.493458 
L 165.704683 193.331258 
L 164.220143 198.232344 
L 162.932782 203.188876 
L 161.84466 208.192923 
L 160.957516 213.236481 
L 160.27277 218.311481 
L 159.791518 223.409804 
L 159.51453 228.523294 
L 159.442248 233.643771 
L 159.574788 238.763042 
L 159.911939 243.872917 
L 160.45316 248.965223 
L 161.197586 254.031813 
L 162.144027 259.064581 
L 163.290967 264.055476 
L 164.636573 268.996513 
L 166.178691 273.879788 
L 167.259406 276.948671 
L 170.620292 280.81247 
L 174.133001 284.538779 
L 174.994055 285.408 
L 178.542212 281.715429 
L 181.939868 277.883923 
L 185.181586 273.919611 
L 188.262181 269.828837 
L 191.176725 265.618144 
L 193.920555 261.294268 
L 196.489281 256.864127 
L 198.878793 252.334808 
L 201.08527 247.713557 
L 203.105182 243.007767 
L 204.935296 238.224966 
L 206.572685 233.372806 
L 208.01473 228.459049 
L 209.259123 223.491556 
L 210.260276 218.709491 
L 206.402367 222.077138 
L 202.682214 225.596366 
L 199.105769 229.261545 
L 195.678752 233.066812 
L 192.406647 237.00608 
L 189.294688 241.073046 
L 186.347853 245.261204 
L 183.570858 249.563854 
L 180.968143 253.974112 
L 178.543874 258.484924 
L 176.301928 263.089072 
L 174.245893 267.779191 
L 172.379056 272.547779 
L 170.704406 277.387205 
L 169.59498 280.994003 
L 174.592618 282.111193 
L 179.630935 283.027637 
L 184.701869 283.741869 
L 189.797309 284.252747 
L 194.909102 284.559453 
L 200.029072 284.661496 
L 205.149027 284.558713 
L 210.260776 284.251269 
L 215.356142 283.739655 
L 220.426973 283.02469 
L 225.465157 282.107518 
L 230.462634 280.989607 
L 235.411408 279.672743 
L 240.303564 278.159035 
L 245.131275 276.450903 
L 249.886817 274.551081 
L 254.562582 272.462607 
L 259.15109 270.188824 
L 263.645001 267.733367 
L 268.037125 265.100167 
L 272.320437 262.293434 
L 276.488082 259.31766 
L 280.533395 256.177605 
L 284.449903 252.878292 
L 288.231341 249.424999 
L 291.871659 245.823252 
L 295.365034 242.078812 
L 298.705877 238.197669 
L 301.888844 234.186032 
L 304.908842 230.05032 
L 307.761039 225.797148 
L 310.440874 221.433321 
L 312.944059 216.96582 
L 315.266588 212.401791 
L 317.404748 207.748537 
L 319.355117 203.013501 
L 321.114575 198.204259 
L 322.680307 193.328504 
L 324.049808 188.394037 
L 325.220888 183.408751 
L 326.191673 178.380623 
L 326.96061 173.317695 
L 327.526469 168.228067 
L 327.888344 163.119883 
L 328.045657 158.001313 
L 327.998156 152.880547 
L 327.745916 147.765777 
L 327.289343 142.665184 
L 326.629165 137.58693 
L 325.766439 132.539138 
L 324.702546 127.529883 
L 323.439187 122.56718 
L 321.978383 117.658967 
L 320.322471 112.813097 
L 318.474101 108.037321 
L 316.436229 103.339281 
L 314.212116 98.726492 
L 311.80532 94.206334 
L 309.219691 89.786037 
L 306.459365 85.472674 
L 303.528758 81.273144 
L 300.43256 77.194167 
L 297.175722 73.242267 
L 293.763456 69.423767 
L 290.20122 65.744776 
L 288.037793 63.648 
L 284.389977 67.242154 
L 280.888808 70.979307 
L 277.539885 74.853481 
L 274.348567 78.858476 
L 271.319958 82.987887 
L 268.458904 87.235106 
L 265.769983 91.59334 
L 263.257495 96.055616 
L 260.92546 100.614795 
L 258.777609 105.263584 
L 256.817379 109.994546 
L 255.047904 114.800111 
L 253.472016 119.672593 
L 252.092236 124.604196 
L 251.79913 125.761029 
L 252.03341 125.165273 
L 253.799831 120.358584 
L 255.372624 115.485103 
L 256.749271 110.552624 
L 257.92757 105.56904 
L 258.905637 100.542322 
L 259.681906 95.480514 
L 260.255136 90.391711 
L 260.62441 85.284056 
L 260.789136 80.16572 
L 260.749052 75.044891 
L 260.504221 69.92976 
L 260.055036 64.828512 
L 259.921705 63.648 
L 259.425205 68.744861 
L 259.132922 73.857499 
L 259.045324 78.977736 
L 259.162551 84.097381 
L 259.484416 89.208242 
L 260.010402 94.302145 
L 260.73967 99.370938 
L 261.671053 104.406515 
L 262.803059 109.400818 
L 264.133879 114.345858 
L 265.661383 119.233724 
L 267.383128 124.056596 
L 269.29636 128.806759 
L 271.398016 133.476613 
L 273.684736 138.058688 
L 276.13676 142.517712 
L 279.976344 145.906236 
L 283.948362 149.138507 
L 288.046459 152.209354 
L 292.264079 155.113865 
L 296.594475 157.847392 
L 301.030719 160.405564 
L 305.565714 162.784286 
L 310.192205 164.979755 
L 314.90279 166.988457 
L 319.689935 168.807179 
L 324.54598 170.433012 
L 329.463156 171.863354 
L 334.433597 173.095918 
L 339.449353 174.12873 
L 344.502397 174.96014 
L 349.584647 175.588818 
L 354.687973 176.013756 
L 359.804209 176.234276 
L 363.188815 176.267638 
L 360.554892 171.875947 
L 357.747456 167.593097 
L 354.770996 163.425941 
L 351.630276 159.381145 
L 348.330319 155.465179 
L 344.876405 151.684309 
L 341.274059 148.044583 
L 337.529044 144.551823 
L 333.647352 141.211619 
L 329.635192 138.029312 
L 325.498984 135.009994 
L 321.245343 132.158496 
L 316.881075 129.479379 
L 312.413162 126.976929 
L 307.848752 124.65515 
L 303.195146 122.517755 
L 298.45979 120.568165 
L 293.650258 118.809498 
L 288.774246 117.244568 
L 283.839554 115.875878 
L 278.854075 114.705617 
L 273.825787 113.735659 
L 268.762733 112.967555 
L 263.673013 112.402533 
L 258.564769 112.041498 
L 253.446173 111.885027 
L 248.325415 111.93337 
L 243.210686 112.18645 
L 238.110169 112.643862 
L 233.032023 113.304875 
L 227.984373 114.168431 
L 222.975293 115.233148 
L 218.012798 116.497323 
L 213.104825 117.958934 
L 208.259227 119.615642 
L 203.483756 121.464798 
L 198.786051 123.503442 
L 194.173628 125.728313 
L 189.653865 128.135853 
L 185.233993 130.722209 
L 180.921084 133.483244 
L 176.722037 136.414541 
L 172.643568 139.511411 
L 168.692204 142.768898 
L 164.874266 146.181792 
L 161.19586 149.744633 
L 157.662873 153.451721 
L 154.280956 157.297126 
L 151.055519 161.274695 
L 147.991722 165.378066 
L 145.094467 169.600674 
L 142.368389 173.935763 
L 139.817849 178.376399 
L 137.446927 182.915477 
L 135.259416 187.545736 
L 133.258816 192.259768 
L 131.448327 197.050033 
L 129.830846 201.908866 
L 128.40896 206.828494 
L 127.903047 208.781457 
L 132.85454 210.088062 
L 137.854322 211.195616 
L 142.894396 212.102346 
L 147.966698 212.806801 
L 153.063113 213.307855 
L 158.175488 213.604706 
L 163.295645 213.696878 
L 168.415392 213.584226 
L 173.526539 213.266928 
L 178.620909 212.745493 
L 183.690353 212.020754 
L 188.726759 211.093872 
L 193.722072 209.966328 
L 198.10575 208.801516 
L 196.292761 213.590835 
L 194.672744 218.448823 
L 193.248291 223.367708 
L 192.02168 228.339622 
L 190.994874 233.356611 
L 190.169515 238.410647 
L 189.546923 243.493646 
L 189.128096 248.597477 
L 188.913702 253.713973 
L 188.904085 258.834951 
L 189.099261 263.952216 
L 189.498916 269.057584 
L 190.102412 274.142886 
L 190.908783 279.199987 
L 191.916739 284.220796 
L 192.185808 285.408 
L 193.241455 280.397001 
L 194.09587 275.347795 
L 194.747688 270.268461 
L 195.195866 265.167124 
L 195.439686 260.051946 
L 195.478758 254.931108 
L 195.31302 249.812805 
L 194.942737 244.705223 
L 194.368502 239.616534 
L 193.591232 234.554878 
L 192.612172 229.528354 
L 191.432888 224.545003 
L 190.055266 219.612797 
L 188.481511 214.739626 
L 186.714139 209.933286 
L 184.755979 205.201467 
L 182.610163 200.551739 
L 180.280124 195.991539 
L 177.769589 191.528164 
L 175.082575 187.168754 
L 172.223381 182.920283 
L 169.19658 178.789547 
L 166.007014 174.783155 
L 162.659787 170.907517 
L 159.160254 167.168832 
L 155.514012 163.573081 
L 151.726894 160.126018 
L 147.804961 156.833156 
L 143.754485 153.699764 
L 139.581947 150.730853 
L 135.294022 147.931175 
L 130.897569 145.305207 
L 126.40913 142.862083 
L 130.778406 145.533025 
L 135.250995 148.027107 
L 139.819744 150.340338 
L 144.477343 152.469017 
L 149.21634 154.409739 
L 154.029156 156.1594 
L 158.908089 157.7152 
L 163.845335 159.07465 
L 168.832995 160.235575 
L 173.86309 161.196118 
L 178.927573 161.954743 
L 184.018342 162.510236 
L 186.332525 162.694885 
L 181.568854 160.815541 
L 176.733839 159.128195 
L 171.835216 157.635548 
L 166.880821 156.339988 
L 161.878581 155.243588 
L 156.836498 154.3481 
L 151.762638 153.654959 
L 146.665118 153.165272 
L 141.552093 152.879823 
L 136.431743 152.799069 
L 131.31226 152.923139 
L 126.201833 153.251834 
L 121.108639 153.784629 
L 120.021919 153.925057 
L 122.066997 158.619964 
L 124.298185 163.229335 
L 126.711914 167.745796 
L 129.304323 172.16212 
L 132.071264 176.471243 
L 135.00831 180.666271 
L 138.110764 184.740493 
L 141.373661 188.68739 
L 144.791782 192.50065 
L 148.359659 196.174171 
L 152.071584 199.702077 
L 155.921618 203.078723 
L 159.903602 206.298708 
L 164.011166 209.35688 
L 168.237739 212.248348 
L 172.576559 214.968485 
L 177.020685 217.512939 
L 181.563006 219.877641 
L 186.196258 222.058806 
L 190.913026 224.052947 
L 195.705767 225.856871 
L 200.566811 227.467695 
L 205.488382 228.88284 
L 210.462608 230.100042 
L 215.48153 231.117355 
L 220.537118 231.933151 
L 225.621287 232.546125 
L 230.7259 232.955296 
L 235.842793 233.160009 
L 240.96378 233.159938 
L 246.080667 232.955082 
L 251.185269 232.545768 
L 256.26942 231.932653 
L 261.324986 231.116716 
L 266.34388 230.099263 
L 271.318071 228.881922 
L 276.239604 227.46664 
L 281.100603 225.855681 
L 285.893293 224.051622 
L 290.610006 222.057351 
L 295.243196 219.876056 
L 299.785452 217.511228 
L 304.229507 214.966649 
L 308.568251 212.246391 
L 312.794743 209.354806 
L 316.902222 206.296519 
L 320.884116 203.076423 
L 324.734056 199.699669 
L 328.445882 196.17166 
L 332.013657 192.49804 
L 335.431672 188.684685 
L 338.694459 184.737696 
L 341.796799 180.663388 
L 344.733728 176.468278 
L 347.500549 172.159078 
L 350.092835 167.742681 
L 352.506438 163.226154 
L 354.856664 158.356653 
L 349.750093 157.97268 
L 344.632252 157.793223 
L 339.511329 157.818568 
L 334.395515 158.048675 
L 329.292995 158.483176 
L 324.211931 159.121376 
L 319.160454 159.962253 
L 314.146643 161.004464 
L 309.17852 162.246339 
L 304.264033 163.685893 
L 299.411043 165.320823 
L 294.627315 167.148513 
L 289.920502 169.166039 
L 287.209166 170.431352 
L 292.147123 171.788218 
L 297.13539 172.946532 
L 302.165987 173.904442 
L 307.230867 174.660416 
L 312.321926 175.213244 
L 317.43102 175.562042 
L 322.549976 175.706252 
L 327.670603 175.645642 
L 332.784711 175.380311 
L 337.884118 174.910682 
L 342.960666 174.237506 
L 348.006233 173.361862 
L 353.012748 172.285149 
L 357.972201 171.00909 
L 361.552734 169.954586 
L 357.862829 173.505516 
L 354.317876 177.201163 
L 350.923545 181.035615 
L 347.685266 185.002736 
L 344.608219 189.09618 
L 341.697328 193.3094 
L 338.95725 197.635653 
L 336.392367 202.06802 
L 334.006783 206.59941 
L 331.804315 211.222573 
L 329.788485 215.930113 
L 327.96252 220.714499 
L 326.329339 225.568078 
L 324.891557 230.483083 
L 323.651472 235.451654 
L 322.611068 240.46584 
L 321.772011 245.51762 
L 321.343899 248.745159 
L 317.307033 251.896066 
L 313.399398 255.205884 
L 309.627247 258.669318 
L 305.996614 262.280828 
L 302.513306 266.034635 
L 299.182897 269.924735 
L 296.010715 273.944904 
L 293.001833 278.088711 
L 290.161067 282.349527 
L 288.269054 285.408 
L 285.549081 281.069078 
L 282.657772 276.842396 
L 279.599755 272.734717 
L 276.379919 268.752611 
L 273.003418 264.90245 
L 269.475652 261.190393 
L 265.802266 257.622378 
L 261.989135 254.204113 
L 258.04236 250.941067 
L 253.968255 247.83846 
L 249.773337 244.901256 
L 245.464319 242.134152 
L 241.048092 239.541578 
L 236.531723 237.127678 
L 231.922436 234.896317 
L 227.227605 232.851062 
L 222.454741 230.995187 
L 217.61148 229.33166 
L 212.705569 227.863142 
L 207.744858 226.591983 
L 202.737282 225.520216 
L 197.690852 224.649556 
L 192.613642 223.981396 
L 187.513774 223.516805 
L 182.399406 223.256526 
L 177.278721 223.200975 
L 172.15991 223.350241 
L 167.051163 223.704086 
L 161.960653 224.261943 
L 156.896523 225.02292 
L 151.866874 225.985799 
L 146.879753 227.149041 
L 141.943139 228.510783 
L 139.693245 229.202679 
L 143.406318 225.675982 
L 146.975392 222.003624 
L 150.394755 218.191478 
L 153.658938 214.245643 
L 156.762718 210.172432 
L 159.701131 205.978361 
L 162.469476 201.67014 
L 165.063323 197.25466 
L 167.478523 192.738987 
L 169.711213 188.130343 
L 171.75782 183.436101 
L 173.61507 178.663773 
L 175.279993 173.820991 
L 176.749924 168.915504 
L 178.022512 163.955159 
L 179.095722 158.947892 
L 179.967835 153.901713 
L 180.637458 148.824696 
L 181.103518 143.724961 
L 181.365271 138.610669 
L 181.422298 133.49 
L 181.274506 128.371147 
L 180.922133 123.262298 
L 180.365743 118.171627 
L 179.606225 113.107277 
L 178.644795 108.077352 
L 177.48299 103.089896 
L 176.122669 98.15289 
L 174.56601 93.274231 
L 172.815501 88.461725 
L 170.873943 83.723069 
L 168.744443 79.065846 
L 166.430406 74.497505 
L 166.165475 74.002073 
L 171.279973 73.744357 
L 176.380073 73.282322 
L 181.457618 72.616707 
L 186.504483 71.748576 
L 191.512596 70.67932 
L 196.473944 69.410647 
L 201.380589 67.944588 
L 206.224684 66.283489 
L 210.998477 64.430006 
L 212.857301 63.648 
L 217.601309 65.576442 
L 222.41864 67.313631 
L 227.301586 68.856789 
L 232.242337 70.203447 
L 237.232987 71.35145 
L 242.265553 72.298962 
L 247.331984 73.044468 
L 252.424175 73.586774 
L 257.533979 73.925012 
L 262.653221 74.058643 
L 267.773713 73.987451 
L 272.887262 73.711552 
L 277.985687 73.231386 
L 283.060833 72.547721 
L 288.10458 71.661651 
L 293.108859 70.574594 
L 298.065664 69.288289 
L 302.637929 67.911151 
L 298.911961 71.424221 
L 295.329458 75.08348 
L 291.896152 78.883073 
L 288.617535 82.816923 
L 285.498853 86.878736 
L 282.545095 91.062014 
L 279.760986 95.360065 
L 277.15098 99.766012 
L 274.719253 104.272808 
L 272.469695 108.873241 
L 270.405904 113.559953 
L 268.531183 118.325446 
L 266.84853 123.162096 
L 265.360637 128.062165 
L 264.371159 131.785394 
L 268.389149 128.610452 
L 272.276962 125.277373 
L 276.028377 121.79149 
L 279.637394 118.158378 
L 283.098238 114.38385 
L 286.405372 110.473944 
L 289.553507 106.434916 
L 292.537606 102.273227 
L 295.352894 97.995534 
L 297.994869 93.608682 
L 300.459303 89.119688 
L 302.742254 84.535734 
L 304.840069 79.864152 
L 306.767684 75.064096 
L 301.698191 74.339706 
L 296.603785 73.818621 
L 291.492616 73.501674 
L 286.372861 73.389374 
L 281.252711 73.481898 
L 276.140356 73.779101 
L 271.043975 74.280505 
L 265.971722 74.985308 
L 260.931711 75.892385 
L 255.932004 77.000282 
L 250.980601 78.307228 
L 246.085422 79.811132 
L 241.254299 81.509588 
L 236.494961 83.399878 
L 231.81502 85.47898 
L 227.221966 87.743566 
L 222.723144 90.190013 
L 218.325753 92.814409 
L 214.036827 95.612555 
L 209.863228 98.579973 
L 205.811632 101.711917 
L 201.888522 105.003377 
L 198.100173 108.449086 
L 194.452646 112.043533 
L 190.951776 115.780967 
L 187.603163 119.655408 
L 184.412166 123.660659 
L 181.383889 127.790313 
L 178.523175 132.037762 
L 175.834603 136.396211 
L 173.322473 140.858688 
L 170.990804 145.418055 
L 168.843326 150.067016 
L 166.883474 154.798134 
L 165.114384 159.603842 
L 163.538887 164.47645 
L 162.159502 169.408164 
L 160.978436 174.391093 
L 159.99758 179.417267 
L 159.218501 184.478644 
L 158.642446 189.567127 
L 158.270337 194.674576 
L 158.10277 199.79282 
L 158.140011 204.913671 
L 158.382002 210.028937 
L 158.828356 215.130434 
L 159.478358 220.210001 
L 160.330969 225.259511 
L 161.384824 230.270887 
L 162.638238 235.236112 
L 164.089205 240.147242 
L 165.735405 244.99642 
L 167.574203 249.775889 
L 169.602658 254.478002 
L 171.817525 259.095238 
L 174.215261 263.62021 
L 176.792029 268.045678 
L 179.543707 272.364563 
L 182.465894 276.569955 
L 185.553914 280.655128 
L 188.802827 284.613544 
L 189.487577 285.408 
L 192.768808 281.47633 
L 195.89019 277.416592 
L 198.846728 273.235278 
L 201.633693 268.939079 
L 204.246628 264.534868 
L 206.68135 260.02969 
L 208.933966 255.430753 
L 211.000872 250.745414 
L 212.878761 245.981168 
L 214.564628 241.145638 
L 216.055778 236.246559 
L 217.349824 231.291769 
L 218.444696 226.289194 
L 219.083652 222.810483 
L 216.664312 227.323941 
L 214.427397 231.930535 
L 212.376486 236.622898 
L 210.514861 241.393522 
L 208.845498 246.234775 
L 207.371069 251.138912 
L 206.093933 256.098088 
L 205.016132 261.104368 
L 204.139392 266.149745 
L 203.465114 271.226147 
L 202.994377 276.325451 
L 202.727935 281.439502 
L 202.662241 285.408 
L 202.618867 282.207547 
L 202.38312 277.09199 
L 201.942994 271.989952 
L 201.299193 266.909596 
L 200.452748 261.859048 
L 199.405011 256.846389 
L 198.157659 251.879638 
L 196.712688 246.966741 
L 195.072409 242.115557 
L 193.239447 237.333847 
L 191.216734 232.62926 
L 189.007505 228.009324 
L 186.615295 223.481429 
L 184.043931 219.052819 
L 181.297527 214.730578 
L 178.380476 210.521621 
L 175.297445 206.432682 
L 172.053366 202.470302 
L 168.653429 198.64082 
L 165.103074 194.950363 
L 161.407979 191.404834 
L 157.574057 188.009905 
L 153.60744 184.771008 
L 149.514475 181.693324 
L 145.301709 178.781777 
L 140.975883 176.041024 
L 136.543915 173.47545 
L 132.012898 171.089161 
L 127.390078 168.885972 
L 122.682852 166.869409 
L 117.89875 165.042698 
L 114.312259 163.814478 
L 118.188924 167.160516 
L 122.196295 170.348851 
L 126.327959 173.374385 
L 130.577308 176.232276 
L 134.937542 178.917952 
L 139.401687 181.427117 
L 143.962602 183.755756 
L 148.612988 185.900145 
L 153.345408 187.856853 
L 158.15229 189.62275 
L 163.025943 191.19501 
L 167.958572 192.571118 
L 172.942285 193.748873 
L 177.96911 194.72639 
L 183.031003 195.502107 
L 188.119868 196.07478 
L 189.76572 196.216031 
L 186.886638 200.45105 
L 184.179214 204.797814 
L 181.647781 209.249369 
L 179.296386 213.798594 
L 177.128794 218.438211 
L 175.14847 223.160797 
L 173.358583 227.958797 
L 171.761997 232.824536 
L 170.361266 237.750229 
L 169.15863 242.727997 
L 168.156014 247.749875 
L 167.355021 252.807831 
L 166.756933 257.893771 
L 166.362708 262.999561 
L 166.172974 268.117031 
L 166.188037 273.237996 
L 166.247986 275.19684 
L 170.63543 277.837831 
L 175.124976 280.301259 
L 179.709442 282.583182 
L 184.381494 284.67995 
L 186.130501 285.408 
L 190.833065 283.380591 
L 195.450794 281.166751 
L 199.976298 278.770022 
L 204.40234 276.194239 
L 208.721837 273.443521 
L 212.927879 270.52227 
L 217.013738 267.435158 
L 220.972878 264.187126 
L 224.798963 260.783367 
L 228.485875 257.229329 
L 232.027713 253.530697 
L 235.418813 249.693387 
L 238.653749 245.723539 
L 241.727345 241.627504 
L 244.634685 237.411834 
L 247.371118 233.083273 
L 249.932266 228.648747 
L 252.314031 224.115349 
L 252.900162 222.928071 
L 252.900162 222.928071 
" style="fill:none;stroke:#1f77b4;stroke-linecap:square;stroke-width:1.5;"/>
   </g>
   <g id="patch_4">
    <path d="M 82.520165 307.584 
L 82.520165 41.472 
" style="fill:none;stroke:#000000;stroke-linecap:square;stroke-linejoin:miter;stroke-width:0.8;"/>
   </g>
   <g id="patch_5">
    <path d="M 389.799835 307.584 
L 389.799835 41.472 
" style="fill:none;stroke:#000000;stroke-linecap:square;stroke-linejoin:miter;stroke-width:0.8;"/>
   </g>
   <g id="patch_6">
    <path d="M 82.520165 307.584 
L 389.799835 307.584 
" style="fill:none;stroke:#000000;stroke-linecap:square;stroke-linejoin:miter;stroke-width:0.8;"/>
   </g>
   <g id="patch_7">
    <path d="M 82.520165 41.472 
L 389.799835 41.472 
" style="fill:none;stroke:#000000;stroke-linecap:square;stroke-linejoin:miter;stroke-width:0.8;"/>
   </g>
  </g>
 </g>
 <defs>
  <clipPath id="pcb382833b4">
   <rect height="266.112" width="307.27967" x="82.520165" y="41.472"/>
  </clipPath>
 </defs>
</svg>
