<?xml version="1.0" encoding="utf-8" standalone="no"?>
<!DOCTYPE svg PUBLIC "-//W3C//DTD SVG 1.1//EN"
  "http://www.w3.org/Graphics/SVG/1.1/DTD/svg11.dtd">
<!-- Created with matplotlib (https://matplotlib.org/) -->
<svg height="345.6pt" version="1.1" viewBox="0 0 460.8 345.6" width="460.8pt" xmlns="http://www.w3.org/2000/svg" xmlns:xlink="http://www.w3.org/1999/xlink">
 <defs>
  <style type="text/css">
*{stroke-linecap:butt;stroke-linejoin:round;}
  </style>
 </defs>
 <g id="figure_1">
  <g id="patch_1">
   <path d="M 0 345.6 
L 460.8 345.6 
L 460.8 0 
L 0 0 
z
" style="fill:#ffffff;"/>
  </g>
  <g id="axes_1">
   <g id="patch_2">
    <path d="M 82.520165 307.584 
L 389.799835 307.584 
L 389.799835 41.472 
L 82.520165 41.472 
z
" style="fill:#ffffff;"/>
   </g>
   <g id="PathCollection_1">
    <defs>
     <path d="M 0 2.738613 
C 0.726289 2.738613 1.422928 2.450055 1.936492 1.936492 
C 2.450055 1.422928 2.738613 0.726289 2.738613 0 
C 2.738613 -0.726289 2.450055 -1.422928 1.936492 -1.936492 
C 1.422928 -2.450055 0.726289 -2.738613 0 -2.738613 
C -0.726289 -2.738613 -1.422928 -2.450055 -1.936492 -1.936492 
C -2.450055 -1.422928 -2.738613 -0.726289 -2.738613 0 
C -2.738613 0.726289 -2.450055 1.422928 -1.936492 1.936492 
C -1.422928 2.450055 -0.726289 2.738613 0 2.738613 
z
" id="m9478558827" style="stroke:#000000;"/>
    </defs>
    <g clip-path="url(#pa04a85934f)">
     <use style="stroke:#000000;" x="223.956724" xlink:href="#m9478558827" y="285.408"/>
    </g>
   </g>
   <g id="Quiver_1">
    <path clip-path="url(#pa04a85934f)" d="M 223.235061 285.14469 
L 229.291187 268.546435 
L 227.584551 268.741478 
L 232.382639 262.314775 
L 231.914531 270.321337 
L 230.734514 269.073054 
L 224.678387 285.67131 
L 223.235061 285.14469 
"/>
   </g>
   <g id="patch_3">
    <path clip-path="url(#pa04a85934f)" d="M 236.16 225.741278 
C 249.74192 225.741278 262.769389 220.345124 272.373256 210.741256 
C 281.977124 201.137389 287.373278 188.10992 287.373278 174.528 
C 287.373278 160.94608 281.977124 147.918611 272.373256 138.314744 
C 262.769389 128.710876 249.74192 123.314722 236.16 123.314722 
C 222.57808 123.314722 209.550611 128.710876 199.946744 138.314744 
C 190.342876 147.918611 184.946722 160.94608 184.946722 174.528 
C 184.946722 188.10992 190.342876 201.137389 199.946744 210.741256 
C 209.550611 220.345124 222.57808 225.741278 236.16 225.741278 
z
" style="fill:#009900;fill-opacity:0.5;stroke:#009900;stroke-linejoin:miter;stroke-width:2;"/>
   </g>
   <g id="matplotlib.axis_1">
    <g id="xtick_1">
     <g id="line2d_1">
      <defs>
       <path d="M 0 0 
L 0 3.5 
" id="mb354a7db90" style="stroke:#000000;stroke-width:0.8;"/>
      </defs>
      <g>
       <use style="stroke:#000000;stroke-width:0.8;" x="108.126804" xlink:href="#mb354a7db90" y="307.584"/>
      </g>
     </g>
     <g id="text_1">
      <!-- −2 -->
      <defs>
       <path d="M 10.59375 35.5 
L 73.1875 35.5 
L 73.1875 27.203125 
L 10.59375 27.203125 
z
" id="DejaVuSans-8722"/>
       <path d="M 19.1875 8.296875 
L 53.609375 8.296875 
L 53.609375 0 
L 7.328125 0 
L 7.328125 8.296875 
Q 12.9375 14.109375 22.625 23.890625 
Q 32.328125 33.6875 34.8125 36.53125 
Q 39.546875 41.84375 41.421875 45.53125 
Q 43.3125 49.21875 43.3125 52.78125 
Q 43.3125 58.59375 39.234375 62.25 
Q 35.15625 65.921875 28.609375 65.921875 
Q 23.96875 65.921875 18.8125 64.3125 
Q 13.671875 62.703125 7.8125 59.421875 
L 7.8125 69.390625 
Q 13.765625 71.78125 18.9375 73 
Q 24.125 74.21875 28.421875 74.21875 
Q 39.75 74.21875 46.484375 68.546875 
Q 53.21875 62.890625 53.21875 53.421875 
Q 53.21875 48.921875 51.53125 44.890625 
Q 49.859375 40.875 45.40625 35.40625 
Q 44.1875 33.984375 37.640625 27.21875 
Q 31.109375 20.453125 19.1875 8.296875 
z
" id="DejaVuSans-50"/>
      </defs>
      <g transform="translate(100.755711 322.182437)scale(0.1 -0.1)">
       <use xlink:href="#DejaVuSans-8722"/>
       <use x="83.789062" xlink:href="#DejaVuSans-50"/>
      </g>
     </g>
    </g>
    <g id="xtick_2">
     <g id="line2d_2">
      <g>
       <use style="stroke:#000000;stroke-width:0.8;" x="172.143402" xlink:href="#mb354a7db90" y="307.584"/>
      </g>
     </g>
     <g id="text_2">
      <!-- −1 -->
      <defs>
       <path d="M 12.40625 8.296875 
L 28.515625 8.296875 
L 28.515625 63.921875 
L 10.984375 60.40625 
L 10.984375 69.390625 
L 28.421875 72.90625 
L 38.28125 72.90625 
L 38.28125 8.296875 
L 54.390625 8.296875 
L 54.390625 0 
L 12.40625 0 
z
" id="DejaVuSans-49"/>
      </defs>
      <g transform="translate(164.772308 322.182437)scale(0.1 -0.1)">
       <use xlink:href="#DejaVuSans-8722"/>
       <use x="83.789062" xlink:href="#DejaVuSans-49"/>
      </g>
     </g>
    </g>
    <g id="xtick_3">
     <g id="line2d_3">
      <g>
       <use style="stroke:#000000;stroke-width:0.8;" x="236.16" xlink:href="#mb354a7db90" y="307.584"/>
      </g>
     </g>
     <g id="text_3">
      <!-- 0 -->
      <defs>
       <path d="M 31.78125 66.40625 
Q 24.171875 66.40625 20.328125 58.90625 
Q 16.5 51.421875 16.5 36.375 
Q 16.5 21.390625 20.328125 13.890625 
Q 24.171875 6.390625 31.78125 6.390625 
Q 39.453125 6.390625 43.28125 13.890625 
Q 47.125 21.390625 47.125 36.375 
Q 47.125 51.421875 43.28125 58.90625 
Q 39.453125 66.40625 31.78125 66.40625 
z
M 31.78125 74.21875 
Q 44.046875 74.21875 50.515625 64.515625 
Q 56.984375 54.828125 56.984375 36.375 
Q 56.984375 17.96875 50.515625 8.265625 
Q 44.046875 -1.421875 31.78125 -1.421875 
Q 19.53125 -1.421875 13.0625 8.265625 
Q 6.59375 17.96875 6.59375 36.375 
Q 6.59375 54.828125 13.0625 64.515625 
Q 19.53125 74.21875 31.78125 74.21875 
z
" id="DejaVuSans-48"/>
      </defs>
      <g transform="translate(232.97875 322.182437)scale(0.1 -0.1)">
       <use xlink:href="#DejaVuSans-48"/>
      </g>
     </g>
    </g>
    <g id="xtick_4">
     <g id="line2d_4">
      <g>
       <use style="stroke:#000000;stroke-width:0.8;" x="300.176598" xlink:href="#mb354a7db90" y="307.584"/>
      </g>
     </g>
     <g id="text_4">
      <!-- 1 -->
      <g transform="translate(296.995348 322.182437)scale(0.1 -0.1)">
       <use xlink:href="#DejaVuSans-49"/>
      </g>
     </g>
    </g>
    <g id="xtick_5">
     <g id="line2d_5">
      <g>
       <use style="stroke:#000000;stroke-width:0.8;" x="364.193196" xlink:href="#mb354a7db90" y="307.584"/>
      </g>
     </g>
     <g id="text_5">
      <!-- 2 -->
      <g transform="translate(361.011946 322.182437)scale(0.1 -0.1)">
       <use xlink:href="#DejaVuSans-50"/>
      </g>
     </g>
    </g>
   </g>
   <g id="matplotlib.axis_2">
    <g id="ytick_1">
     <g id="line2d_6">
      <defs>
       <path d="M 0 0 
L -3.5 0 
" id="mee298b3027" style="stroke:#000000;stroke-width:0.8;"/>
      </defs>
      <g>
       <use style="stroke:#000000;stroke-width:0.8;" x="82.520165" xlink:href="#mee298b3027" y="302.561196"/>
      </g>
     </g>
     <g id="text_6">
      <!-- −2.0 -->
      <defs>
       <path d="M 10.6875 12.40625 
L 21 12.40625 
L 21 0 
L 10.6875 0 
z
" id="DejaVuSans-46"/>
      </defs>
      <g transform="translate(51.237353 306.360414)scale(0.1 -0.1)">
       <use xlink:href="#DejaVuSans-8722"/>
       <use x="83.789062" xlink:href="#DejaVuSans-50"/>
       <use x="147.412109" xlink:href="#DejaVuSans-46"/>
       <use x="179.199219" xlink:href="#DejaVuSans-48"/>
      </g>
     </g>
    </g>
    <g id="ytick_2">
     <g id="line2d_7">
      <g>
       <use style="stroke:#000000;stroke-width:0.8;" x="82.520165" xlink:href="#mee298b3027" y="270.552897"/>
      </g>
     </g>
     <g id="text_7">
      <!-- −1.5 -->
      <defs>
       <path d="M 10.796875 72.90625 
L 49.515625 72.90625 
L 49.515625 64.59375 
L 19.828125 64.59375 
L 19.828125 46.734375 
Q 21.96875 47.46875 24.109375 47.828125 
Q 26.265625 48.1875 28.421875 48.1875 
Q 40.625 48.1875 47.75 41.5 
Q 54.890625 34.8125 54.890625 23.390625 
Q 54.890625 11.625 47.5625 5.09375 
Q 40.234375 -1.421875 26.90625 -1.421875 
Q 22.3125 -1.421875 17.546875 -0.640625 
Q 12.796875 0.140625 7.71875 1.703125 
L 7.71875 11.625 
Q 12.109375 9.234375 16.796875 8.0625 
Q 21.484375 6.890625 26.703125 6.890625 
Q 35.15625 6.890625 40.078125 11.328125 
Q 45.015625 15.765625 45.015625 23.390625 
Q 45.015625 31 40.078125 35.4375 
Q 35.15625 39.890625 26.703125 39.890625 
Q 22.75 39.890625 18.8125 39.015625 
Q 14.890625 38.140625 10.796875 36.28125 
z
" id="DejaVuSans-53"/>
      </defs>
      <g transform="translate(51.237353 274.352116)scale(0.1 -0.1)">
       <use xlink:href="#DejaVuSans-8722"/>
       <use x="83.789062" xlink:href="#DejaVuSans-49"/>
       <use x="147.412109" xlink:href="#DejaVuSans-46"/>
       <use x="179.199219" xlink:href="#DejaVuSans-53"/>
      </g>
     </g>
    </g>
    <g id="ytick_3">
     <g id="line2d_8">
      <g>
       <use style="stroke:#000000;stroke-width:0.8;" x="82.520165" xlink:href="#mee298b3027" y="238.544598"/>
      </g>
     </g>
     <g id="text_8">
      <!-- −1.0 -->
      <g transform="translate(51.237353 242.343817)scale(0.1 -0.1)">
       <use xlink:href="#DejaVuSans-8722"/>
       <use x="83.789062" xlink:href="#DejaVuSans-49"/>
       <use x="147.412109" xlink:href="#DejaVuSans-46"/>
       <use x="179.199219" xlink:href="#DejaVuSans-48"/>
      </g>
     </g>
    </g>
    <g id="ytick_4">
     <g id="line2d_9">
      <g>
       <use style="stroke:#000000;stroke-width:0.8;" x="82.520165" xlink:href="#mee298b3027" y="206.536299"/>
      </g>
     </g>
     <g id="text_9">
      <!-- −0.5 -->
      <g transform="translate(51.237353 210.335518)scale(0.1 -0.1)">
       <use xlink:href="#DejaVuSans-8722"/>
       <use x="83.789062" xlink:href="#DejaVuSans-48"/>
       <use x="147.412109" xlink:href="#DejaVuSans-46"/>
       <use x="179.199219" xlink:href="#DejaVuSans-53"/>
      </g>
     </g>
    </g>
    <g id="ytick_5">
     <g id="line2d_10">
      <g>
       <use style="stroke:#000000;stroke-width:0.8;" x="82.520165" xlink:href="#mee298b3027" y="174.528"/>
      </g>
     </g>
     <g id="text_10">
      <!-- 0.0 -->
      <g transform="translate(59.61704 178.327219)scale(0.1 -0.1)">
       <use xlink:href="#DejaVuSans-48"/>
       <use x="63.623047" xlink:href="#DejaVuSans-46"/>
       <use x="95.410156" xlink:href="#DejaVuSans-48"/>
      </g>
     </g>
    </g>
    <g id="ytick_6">
     <g id="line2d_11">
      <g>
       <use style="stroke:#000000;stroke-width:0.8;" x="82.520165" xlink:href="#mee298b3027" y="142.519701"/>
      </g>
     </g>
     <g id="text_11">
      <!-- 0.5 -->
      <g transform="translate(59.61704 146.31892)scale(0.1 -0.1)">
       <use xlink:href="#DejaVuSans-48"/>
       <use x="63.623047" xlink:href="#DejaVuSans-46"/>
       <use x="95.410156" xlink:href="#DejaVuSans-53"/>
      </g>
     </g>
    </g>
    <g id="ytick_7">
     <g id="line2d_12">
      <g>
       <use style="stroke:#000000;stroke-width:0.8;" x="82.520165" xlink:href="#mee298b3027" y="110.511402"/>
      </g>
     </g>
     <g id="text_12">
      <!-- 1.0 -->
      <g transform="translate(59.61704 114.310621)scale(0.1 -0.1)">
       <use xlink:href="#DejaVuSans-49"/>
       <use x="63.623047" xlink:href="#DejaVuSans-46"/>
       <use x="95.410156" xlink:href="#DejaVuSans-48"/>
      </g>
     </g>
    </g>
    <g id="ytick_8">
     <g id="line2d_13">
      <g>
       <use style="stroke:#000000;stroke-width:0.8;" x="82.520165" xlink:href="#mee298b3027" y="78.503103"/>
      </g>
     </g>
     <g id="text_13">
      <!-- 1.5 -->
      <g transform="translate(59.61704 82.302322)scale(0.1 -0.1)">
       <use xlink:href="#DejaVuSans-49"/>
       <use x="63.623047" xlink:href="#DejaVuSans-46"/>
       <use x="95.410156" xlink:href="#DejaVuSans-53"/>
      </g>
     </g>
    </g>
    <g id="ytick_9">
     <g id="line2d_14">
      <g>
       <use style="stroke:#000000;stroke-width:0.8;" x="82.520165" xlink:href="#mee298b3027" y="46.494804"/>
      </g>
     </g>
     <g id="text_14">
      <!-- 2.0 -->
      <g transform="translate(59.61704 50.294023)scale(0.1 -0.1)">
       <use xlink:href="#DejaVuSans-50"/>
       <use x="63.623047" xlink:href="#DejaVuSans-46"/>
       <use x="95.410156" xlink:href="#DejaVuSans-48"/>
      </g>
     </g>
    </g>
   </g>
   <g id="line2d_15">
    <path clip-path="url(#pa04a85934f)" d="M 300.176598 63.648 
L 172.143402 63.648 
" style="fill:none;stroke:#009900;stroke-linecap:square;stroke-width:2;"/>
   </g>
   <g id="line2d_16">
    <path clip-path="url(#pa04a85934f)" d="M 172.143402 63.648 
L 108.126804 174.528 
" style="fill:none;stroke:#009900;stroke-linecap:square;stroke-width:2;"/>
   </g>
   <g id="line2d_17">
    <path clip-path="url(#pa04a85934f)" d="M 108.126804 174.528 
L 172.143402 285.408 
" style="fill:none;stroke:#009900;stroke-linecap:square;stroke-width:2;"/>
   </g>
   <g id="line2d_18">
    <path clip-path="url(#pa04a85934f)" d="M 172.143402 285.408 
L 300.176598 285.408 
" style="fill:none;stroke:#009900;stroke-linecap:square;stroke-width:2;"/>
   </g>
   <g id="line2d_19">
    <path clip-path="url(#pa04a85934f)" d="M 300.176598 285.408 
L 364.193196 174.528 
" style="fill:none;stroke:#009900;stroke-linecap:square;stroke-width:2;"/>
   </g>
   <g id="line2d_20">
    <path clip-path="url(#pa04a85934f)" d="M 364.193196 174.528 
L 300.176598 63.648 
" style="fill:none;stroke:#009900;stroke-linecap:square;stroke-width:2;"/>
   </g>
   <g id="line2d_21">
    <path clip-path="url(#pa04a85934f)" d="M 286.651088 90.259431 
L 281.699976 88.95138 
L 276.700517 87.842368 
L 271.660708 86.934167 
L 266.588612 86.228232 
L 261.492343 85.725691 
L 256.380055 85.427349 
L 251.259925 85.333682 
L 246.140145 85.44484 
L 241.028906 85.760647 
L 235.934384 86.280595 
L 230.864729 87.003855 
L 225.828053 87.929268 
L 220.832411 89.055354 
L 215.885797 90.380312 
L 210.996124 91.902021 
L 206.171215 93.618048 
L 201.418788 95.525648 
L 196.746445 97.621768 
L 192.161663 99.903055 
L 187.671775 102.36586 
L 183.283964 105.006243 
L 179.00525 107.819979 
L 174.842479 110.802567 
L 170.802308 113.949236 
L 166.891203 117.254952 
L 163.11542 120.714426 
L 159.480998 124.322124 
L 155.993754 128.072274 
L 152.659264 131.958877 
L 149.482865 135.975715 
L 146.469637 140.116363 
L 143.624401 144.374195 
L 140.951709 148.7424 
L 138.455837 153.213991 
L 136.140776 157.781813 
L 134.010232 162.438559 
L 132.067612 167.176779 
L 130.316025 171.988893 
L 128.758271 176.867203 
L 127.396844 181.803904 
L 126.233921 186.791099 
L 125.271364 191.820809 
L 124.510711 196.884988 
L 123.955924 201.94484 
L 128.643729 204.006149 
L 133.410214 205.878346 
L 138.247754 207.558437 
L 143.14861 209.043735 
L 148.104943 210.331862 
L 153.108822 211.420758 
L 158.152243 212.308682 
L 163.227137 212.994213 
L 168.325385 213.476253 
L 173.438832 213.754032 
L 178.559297 213.827106 
L 183.678589 213.695357 
L 188.788517 213.358997 
L 193.880906 212.818563 
L 198.947611 212.07492 
L 200.955459 211.722625 
L 200.410134 216.814493 
L 200.068866 221.924096 
L 199.9322 227.043258 
L 200.000355 232.163791 
L 200.273223 237.277503 
L 200.750367 242.376212 
L 201.431022 247.451762 
L 202.314101 252.496033 
L 203.398191 257.500956 
L 204.681557 262.458523 
L 206.162147 267.360804 
L 207.837591 272.199956 
L 209.705209 276.968237 
L 211.762014 281.658019 
L 213.571475 285.408 
L 215.779687 280.787578 
L 217.801364 276.082546 
L 219.633273 271.300432 
L 221.272484 266.448887 
L 222.716373 261.535672 
L 223.962631 256.568646 
L 225.009264 251.555757 
L 225.854598 246.505023 
L 226.49728 241.424525 
L 226.936282 236.32239 
L 227.170902 231.206781 
L 227.200765 226.085882 
L 227.179578 224.947757 
L 225.396745 229.748383 
L 223.807312 234.616463 
L 222.413822 239.54421 
L 221.218504 244.52374 
L 220.223271 249.547086 
L 219.429713 254.606213 
L 218.839101 259.693028 
L 218.452381 264.799391 
L 218.270169 269.917135 
L 218.292759 275.038072 
L 218.520113 280.154009 
L 218.967808 285.408 
L 219.405624 280.305763 
L 219.639054 275.1901 
L 219.667726 270.069194 
L 219.491594 264.951237 
L 219.110939 259.844418 
L 218.526369 254.756906 
L 217.738822 249.696839 
L 216.749555 244.672314 
L 215.560153 239.691368 
L 214.172517 234.76197 
L 212.588867 229.892005 
L 210.811738 225.089265 
L 208.843972 220.361433 
L 207.194183 216.762835 
L 202.081463 216.47198 
L 196.961201 216.385811 
L 191.84159 216.504467 
L 186.730818 216.827758 
L 181.637063 217.355167 
L 176.568473 218.08585 
L 171.533157 219.018638 
L 166.53917 220.152038 
L 161.594502 221.484239 
L 156.707063 223.013107 
L 151.884671 224.736198 
L 147.135043 226.650755 
L 142.465775 228.753716 
L 140.099731 229.906734 
L 140.633103 229.552719 
L 144.835001 226.62551 
L 148.916481 223.532612 
L 152.871014 220.278971 
L 156.692272 216.869795 
L 160.374143 213.310535 
L 163.910737 209.606887 
L 167.296395 205.764776 
L 170.525702 201.790348 
L 173.59349 197.689961 
L 176.494853 193.470175 
L 179.225149 189.13774 
L 181.78001 184.699589 
L 184.155349 180.16282 
L 185.083038 178.262145 
L 182.141981 174.069928 
L 179.035632 169.998675 
L 175.768961 166.0549 
L 172.347194 162.244912 
L 168.775805 158.574805 
L 165.060508 155.050451 
L 161.207246 151.677488 
L 157.222184 148.461313 
L 153.111697 145.407071 
L 148.882361 142.519647 
L 144.540941 139.803662 
L 140.094384 137.263459 
L 135.549802 134.903103 
L 131.982853 133.208111 
L 136.212234 136.095469 
L 140.553696 138.811388 
L 145.000292 141.351523 
L 149.54491 143.711809 
L 154.180279 145.888471 
L 158.898983 147.878026 
L 163.693474 149.677292 
L 168.556081 151.283391 
L 173.479026 152.693752 
L 178.454432 153.90612 
L 183.47434 154.918555 
L 188.52211 155.728232 
L 184.274497 152.867762 
L 179.915894 150.179439 
L 175.453273 147.667564 
L 170.893774 145.336155 
L 166.24469 143.188943 
L 161.513459 141.229362 
L 156.70765 139.460547 
L 151.834952 137.885328 
L 146.90316 136.506225 
L 141.920163 135.325445 
L 136.893933 134.344875 
L 131.780201 133.559116 
L 134.983716 137.554362 
L 138.344437 141.418305 
L 141.856986 145.144765 
L 145.515744 148.727779 
L 149.314857 152.161617 
L 153.248249 155.440783 
L 157.309626 158.560033 
L 161.492491 161.514376 
L 165.790152 164.299086 
L 170.195734 166.909707 
L 174.70219 169.342064 
L 179.302309 171.592266 
L 183.988732 173.656712 
L 184.94893 174.052398 
L 180.209092 175.991066 
L 175.550571 178.117726 
L 170.98082 180.428976 
L 166.507149 182.921119 
L 162.136717 185.590168 
L 157.876513 188.431852 
L 153.733355 191.441626 
L 149.713869 194.614674 
L 145.824487 197.945921 
L 142.07143 201.430037 
L 138.460702 205.061449 
L 134.998081 208.834346 
L 131.689105 212.742693 
L 130.816659 213.827982 
L 135.865491 212.971358 
L 140.876028 211.913519 
L 145.840254 210.656159 
L 150.750229 209.201288 
L 155.598097 207.551234 
L 160.376103 205.708638 
L 165.076603 203.676445 
L 169.692076 201.457909 
L 174.21514 199.056577 
L 178.638559 196.476292 
L 182.955255 193.721181 
L 187.513201 190.537024 
L 182.393733 190.661712 
L 177.283346 190.991024 
L 172.190216 191.524433 
L 167.12249 192.261087 
L 162.088277 193.199806 
L 157.095628 194.33909 
L 152.152533 195.677115 
L 147.266898 197.21174 
L 142.44654 198.940512 
L 137.699171 200.860663 
L 133.032384 202.969123 
L 128.453646 205.262518 
L 126.482825 206.321561 
L 127.574086 205.651945 
L 131.870543 202.865376 
L 136.052129 199.909224 
L 140.112157 196.788218 
L 144.04413 193.507351 
L 147.841757 190.07187 
L 151.498965 186.487274 
L 155.009902 182.759295 
L 158.368951 178.893898 
L 161.570738 174.897267 
L 164.610142 170.775796 
L 167.482299 166.536077 
L 170.182616 162.184894 
L 172.706772 157.729208 
L 175.050729 153.176147 
L 177.210737 148.532994 
L 179.18334 143.807178 
L 180.965384 139.006259 
L 182.554016 134.137918 
L 183.946697 129.209942 
L 185.141196 124.230216 
L 186.135604 119.206706 
L 186.92833 114.147448 
L 187.518106 109.060537 
L 187.903987 103.95411 
L 188.085358 98.836336 
L 188.061927 93.715403 
L 187.833731 88.599504 
L 187.401137 83.496822 
L 186.764837 78.41552 
L 185.925847 73.363729 
L 184.885511 68.349529 
L 183.717535 63.648 
L 182.488254 68.619254 
L 181.458753 73.63569 
L 180.630679 78.689282 
L 180.005357 83.771947 
L 179.583788 88.875551 
L 179.366646 93.991932 
L 179.354278 99.112903 
L 179.546705 104.230273 
L 179.943617 109.335855 
L 180.544381 114.42148 
L 181.348035 119.479013 
L 182.353294 124.500363 
L 183.558549 129.477497 
L 184.961873 134.402453 
L 186.561019 139.267351 
L 188.35343 144.064408 
L 190.336239 148.785952 
L 191.02916 150.320416 
L 185.986744 151.214029 
L 180.984096 152.30857 
L 176.02922 153.602288 
L 171.130043 155.093113 
L 166.294401 156.778661 
L 161.530031 158.656234 
L 156.844555 160.72283 
L 152.245469 162.975142 
L 147.74013 165.409566 
L 143.335746 168.022209 
L 139.039362 170.80889 
L 134.857853 173.765151 
L 130.797908 176.886264 
L 126.866021 180.167235 
L 123.068483 183.602815 
L 119.41137 187.187507 
L 116.935547 189.785191 
L 121.905131 188.549173 
L 126.821312 187.115414 
L 131.676226 185.486207 
L 136.462105 183.664158 
L 141.171294 181.652183 
L 145.796258 179.4535 
L 150.329599 177.071626 
L 154.764064 174.510372 
L 159.092559 171.773836 
L 163.308159 168.866394 
L 167.404121 165.7927 
L 171.373892 162.557669 
L 175.21112 159.166478 
L 178.909668 155.624551 
L 182.463618 151.937554 
L 185.867284 148.111387 
L 189.115222 144.15217 
L 192.202236 140.066237 
L 195.123386 135.860124 
L 197.874001 131.540561 
L 200.449678 127.114459 
L 202.846299 122.588897 
L 205.060028 117.971115 
L 207.087325 113.268502 
L 208.924945 108.48858 
L 210.56995 103.638997 
L 212.019707 98.727509 
L 213.271898 93.761976 
L 214.324518 88.750341 
L 215.175885 83.70062 
L 215.824635 78.620893 
L 216.269732 73.519287 
L 216.510463 68.403962 
L 216.550657 63.648 
L 216.601233 68.768737 
L 216.856542 73.883355 
L 217.316178 78.983672 
L 217.979404 84.061529 
L 218.84516 89.108803 
L 219.912061 94.117418 
L 221.178399 99.079362 
L 222.642149 103.986697 
L 224.30097 108.831572 
L 226.152207 113.606237 
L 228.192898 118.303053 
L 230.41978 122.914506 
L 230.770038 123.599146 
L 232.012173 118.631088 
L 233.054645 113.617331 
L 233.895786 108.565897 
L 234.534251 103.484867 
L 234.969018 98.38237 
L 235.199392 93.266568 
L 235.225004 88.145646 
L 235.045813 83.027795 
L 234.662107 77.921204 
L 234.074498 72.834042 
L 233.283927 67.774448 
L 232.484277 63.648 
L 231.528053 68.678918 
L 230.773776 73.744051 
L 230.222654 78.835295 
L 229.875568 83.944505 
L 229.733074 89.063509 
L 229.795399 94.184116 
L 230.062444 99.298135 
L 230.533782 104.397384 
L 231.208658 109.473706 
L 232.085993 114.518979 
L 233.164384 119.525133 
L 234.132484 123.354872 
L 234.967682 118.302452 
L 235.600169 113.220675 
L 236.028933 108.117669 
L 236.253289 103.0016 
L 236.272877 97.880651 
L 236.087666 92.763015 
L 235.697952 87.656879 
L 235.104359 82.570412 
L 234.307836 77.51175 
L 233.309658 72.488988 
L 232.111422 67.51016 
L 231.034912 63.648 
L 229.681369 68.586869 
L 228.526411 73.575914 
L 227.571885 78.607155 
L 226.819319 83.672542 
L 226.269916 88.763972 
L 225.924556 93.873299 
L 225.783791 98.992351 
L 225.847845 104.112936 
L 226.116617 109.226865 
L 226.589677 114.325955 
L 227.266268 119.402048 
L 228.051487 123.960699 
L 227.78948 122.058176 
L 226.951606 117.006199 
L 225.912377 111.99177 
L 224.673455 107.022909 
L 223.236823 102.107567 
L 221.604779 97.253606 
L 219.779934 92.468792 
L 217.765207 87.76078 
L 215.563821 83.137102 
L 213.179299 78.605154 
L 210.615454 74.172186 
L 207.876388 69.845291 
L 204.966484 65.63139 
L 203.508274 63.648 
L 200.517889 67.805174 
L 197.696139 72.078607 
L 195.047537 76.461461 
L 192.576321 80.946725 
L 190.286445 85.527224 
L 188.181572 90.19563 
L 186.265069 94.944473 
L 184.540001 99.766158 
L 183.00913 104.652971 
L 181.674903 109.597092 
L 180.539456 114.590614 
L 179.604605 119.625548 
L 178.871845 124.693838 
L 178.342349 129.787377 
L 178.016964 134.898015 
L 177.89621 140.017578 
L 177.98028 145.137874 
L 178.26904 150.250713 
L 178.762029 155.347914 
L 179.458456 160.421324 
L 180.357209 165.462827 
L 181.45685 170.464356 
L 182.755619 175.41791 
L 184.251438 180.315565 
L 185.941914 185.149486 
L 186.227137 185.908205 
L 186.765976 191.000764 
L 187.508031 196.067702 
L 188.452117 201.100912 
L 189.596722 206.092342 
L 190.940016 211.034009 
L 192.479849 215.918005 
L 194.213758 220.736517 
L 196.138969 225.481837 
L 198.252403 230.146374 
L 200.550677 234.722664 
L 203.030116 239.203388 
L 205.686753 243.581376 
L 208.516338 247.849625 
L 211.514344 252.001307 
L 214.675975 256.02978 
L 217.996172 259.928599 
L 221.469625 263.691527 
L 225.090777 267.312543 
L 228.853834 270.785856 
L 232.752777 274.105909 
L 236.781368 277.267389 
L 240.933161 280.265241 
L 245.201516 283.094666 
L 248.991315 285.408 
L 253.35521 282.728275 
L 257.608454 279.876185 
L 261.744242 276.856292 
L 265.755959 273.673427 
L 269.637186 270.332681 
L 273.381715 266.839401 
L 276.983554 263.199173 
L 280.436942 259.417823 
L 283.736353 255.501398 
L 286.876511 251.456164 
L 289.85239 247.288594 
L 292.659231 243.005353 
L 295.292542 238.613296 
L 297.748112 234.119447 
L 300.022012 229.530996 
L 302.110603 224.855283 
L 304.010545 220.099789 
L 305.718799 215.272122 
L 307.232631 210.380004 
L 308.549619 205.431263 
L 309.667657 200.433814 
L 310.584956 195.395653 
L 311.300049 190.32484 
L 311.811791 185.229487 
L 312.119364 180.117746 
L 312.222276 174.997794 
L 312.120362 169.877821 
L 311.813786 164.76602 
L 311.303037 159.670567 
L 310.588933 154.599615 
L 309.672616 149.561276 
L 308.555552 144.563609 
L 307.239528 139.614611 
L 305.72665 134.722198 
L 304.019338 129.894198 
L 302.120323 125.138334 
L 300.032643 120.462214 
L 297.759638 115.87332 
L 295.304944 111.378992 
L 292.672489 106.986421 
L 289.866483 102.702634 
L 286.891416 98.534483 
L 283.752048 94.488638 
L 280.453399 90.57157 
L 277.000749 86.789546 
L 273.399619 83.148616 
L 269.655772 79.654606 
L 265.775196 76.313104 
L 261.7641 73.129457 
L 257.6289 70.108757 
L 253.376213 67.255838 
L 249.01284 64.575263 
L 247.406972 63.648 
L 243.005234 66.265099 
L 238.711674 69.056128 
L 234.533159 72.01662 
L 230.476375 75.141841 
L 226.547811 78.42679 
L 222.753753 81.866212 
L 219.100269 85.454604 
L 215.593206 89.186227 
L 212.238173 93.05511 
L 209.040537 97.055063 
L 206.005415 101.179689 
L 203.137662 105.422387 
L 200.441865 109.776372 
L 197.922337 114.234677 
L 195.58311 118.79017 
L 193.427924 123.435563 
L 191.460229 128.163425 
L 189.683172 132.966192 
L 188.099596 137.83618 
L 186.712034 142.765599 
L 185.522706 147.746563 
L 184.533515 152.771103 
L 183.746043 157.831181 
L 183.16155 162.918702 
L 182.780972 168.025527 
L 182.604916 173.143487 
L 182.633665 178.264392 
L 182.867172 183.380052 
L 183.305065 188.482282 
L 183.946642 193.56292 
L 184.790877 198.613838 
L 185.83642 203.626955 
L 187.081597 208.594251 
L 188.524418 213.507781 
L 190.162573 218.359682 
L 191.993442 223.142194 
L 194.014096 227.847665 
L 196.221302 232.468568 
L 198.61153 236.99751 
L 201.180955 241.427245 
L 203.925467 245.750688 
L 206.840676 249.960921 
L 209.921916 254.051209 
L 213.164261 258.015008 
L 216.562521 261.845978 
L 220.111261 265.537989 
L 223.804803 269.085136 
L 227.637239 272.481742 
L 231.602438 275.722375 
L 235.694055 278.80185 
L 239.905546 281.715241 
L 244.230173 284.457887 
L 245.822629 285.408 
L 250.186523 282.728275 
L 254.439767 279.876185 
L 258.575556 276.856292 
L 262.587272 273.673427 
L 266.468499 270.332681 
L 270.213028 266.839401 
L 273.814867 263.199173 
L 277.268255 259.417823 
L 280.567667 255.501398 
L 283.707824 251.456164 
L 286.683703 247.288594 
L 289.490544 243.005353 
L 292.123856 238.613296 
L 294.579425 234.119447 
L 296.853325 229.530996 
L 298.941916 224.855283 
L 300.841858 220.099789 
L 302.550112 215.272122 
L 304.063944 210.380004 
L 305.380932 205.431263 
L 306.49897 200.433814 
L 307.416269 195.395653 
L 308.131362 190.32484 
L 308.643104 185.229487 
L 308.950677 180.117746 
L 309.053589 174.997794 
L 308.951675 169.877821 
L 308.645099 164.76602 
L 308.13435 159.670567 
L 307.420246 154.599615 
L 306.503929 149.561276 
L 305.386865 144.563609 
L 304.070841 139.614611 
L 302.557963 134.722198 
L 300.850651 129.894198 
L 298.951636 125.138334 
L 296.863956 120.462214 
L 294.590951 115.87332 
L 292.136257 111.378992 
L 289.503802 106.986421 
L 286.697796 102.702634 
L 283.72273 98.534483 
L 280.583361 94.488638 
L 277.284713 90.57157 
L 273.832062 86.789546 
L 270.230933 83.148616 
L 266.487085 79.654606 
L 262.606509 76.313104 
L 258.595413 73.129457 
L 254.460214 70.108757 
L 250.207526 67.255838 
L 245.844154 64.575263 
L 244.238285 63.648 
L 239.836548 66.265099 
L 235.542987 69.056128 
L 231.364472 72.01662 
L 227.307688 75.141841 
L 223.379124 78.42679 
L 219.585066 81.866212 
L 215.931583 85.454604 
L 212.424519 89.186227 
L 209.069486 93.05511 
L 205.87185 97.055063 
L 202.836728 101.179689 
L 199.968975 105.422387 
L 197.273178 109.776372 
L 194.75365 114.234677 
L 192.414423 118.79017 
L 190.259238 123.435563 
L 188.291542 128.163425 
L 186.514485 132.966192 
L 184.930909 137.83618 
L 183.543347 142.765599 
L 182.354019 147.746563 
L 181.364828 152.771103 
L 180.577356 157.831181 
L 179.992863 162.918702 
L 179.612285 168.025527 
L 179.436229 173.143487 
L 179.464978 178.264392 
L 179.698485 183.380052 
L 180.136378 188.482282 
L 180.777955 193.56292 
L 181.62219 198.613838 
L 182.667733 203.626955 
L 183.91291 208.594251 
L 185.355731 213.507781 
L 186.993886 218.359682 
L 188.824755 223.142194 
L 190.845409 227.847665 
L 193.052615 232.468568 
L 195.442843 236.99751 
L 198.012268 241.427245 
L 200.75678 245.750688 
L 203.671989 249.960921 
L 206.75323 254.051209 
L 209.995574 258.015008 
L 213.393834 261.845978 
L 216.942574 265.537989 
L 220.636116 269.085136 
L 224.468552 272.481742 
L 228.433751 275.722375 
L 232.525368 278.80185 
L 236.736859 281.715241 
L 241.061486 284.457887 
L 242.653942 285.408 
L 247.017836 282.728275 
L 251.27108 279.876185 
L 255.406869 276.856292 
L 259.418585 273.673427 
L 263.299813 270.332681 
L 267.044341 266.839401 
L 270.64618 263.199173 
L 274.099568 259.417823 
L 277.39898 255.501398 
L 280.539137 251.456164 
L 283.515016 247.288594 
L 286.321857 243.005353 
L 288.955169 238.613296 
L 291.410738 234.119447 
L 293.684638 229.530996 
L 295.773229 224.855283 
L 297.673172 220.099789 
L 299.381425 215.272122 
L 300.895257 210.380004 
L 302.212245 205.431263 
L 303.330283 200.433814 
L 304.247582 195.395653 
L 304.962675 190.32484 
L 305.474417 185.229487 
L 305.78199 180.117746 
L 305.884902 174.997794 
L 305.782988 169.877821 
L 305.476412 164.76602 
L 304.965663 159.670567 
L 304.251559 154.599615 
L 303.335242 149.561276 
L 302.218178 144.563609 
L 300.902155 139.614611 
L 299.389276 134.722198 
L 297.681964 129.894198 
L 295.782949 125.138334 
L 293.695269 120.462214 
L 291.422264 115.87332 
L 288.96757 111.378992 
L 286.335115 106.986421 
L 283.52911 102.702634 
L 280.554043 98.534483 
L 277.414674 94.488638 
L 274.116026 90.57157 
L 270.663375 86.789546 
L 267.062246 83.148616 
L 263.318398 79.654606 
L 259.437823 76.313104 
L 255.426726 73.129457 
L 251.291527 70.108757 
L 247.038839 67.255838 
L 242.675467 64.575263 
L 241.069598 63.648 
L 236.667861 66.265099 
L 232.3743 69.056128 
L 228.195786 72.01662 
L 224.139001 75.141841 
L 220.210438 78.42679 
L 216.416379 81.866212 
L 212.762896 85.454604 
L 209.255832 89.186227 
L 205.900799 93.05511 
L 202.703164 97.055063 
L 199.668041 101.179689 
L 196.800288 105.422387 
L 194.104491 109.776372 
L 191.584964 114.234677 
L 189.245736 118.79017 
L 187.090551 123.435563 
L 185.122856 128.163425 
L 183.345798 132.966192 
L 181.762222 137.83618 
L 180.37466 142.765599 
L 179.185332 147.746563 
L 178.196141 152.771103 
L 177.408669 157.831181 
L 176.824177 162.918702 
L 176.443598 168.025527 
L 176.267542 173.143487 
L 176.296291 178.264392 
L 176.529798 183.380052 
L 176.967691 188.482282 
L 177.609268 193.56292 
L 178.453503 198.613838 
L 179.499046 203.626955 
L 180.744223 208.594251 
L 182.187044 213.507781 
L 183.825199 218.359682 
L 185.656068 223.142194 
L 187.676722 227.847665 
L 189.883929 232.468568 
L 192.274156 236.99751 
L 194.843581 241.427245 
L 197.588094 245.750688 
L 200.503302 249.960921 
L 203.584543 254.051209 
L 206.826887 258.015008 
L 210.225147 261.845978 
L 213.773887 265.537989 
L 217.46743 269.085136 
L 221.299866 272.481742 
L 225.265064 275.722375 
L 229.356682 278.80185 
L 233.568172 281.715241 
L 237.892799 284.457887 
L 239.485255 285.408 
L 243.84915 282.728275 
L 248.102393 279.876185 
L 252.238182 276.856292 
L 256.249899 273.673427 
L 260.131126 270.332681 
L 263.875654 266.839401 
L 267.477493 263.199173 
L 270.930881 259.417823 
L 274.230293 255.501398 
L 277.37045 251.456164 
L 280.34633 247.288594 
L 283.15317 243.005353 
L 285.786482 238.613296 
L 288.242052 234.119447 
L 290.515951 229.530996 
L 292.604543 224.855283 
L 294.504485 220.099789 
L 296.212738 215.272122 
L 297.72657 210.380004 
L 299.043558 205.431263 
L 300.161596 200.433814 
L 301.078896 195.395653 
L 301.793988 190.32484 
L 302.30573 185.229487 
L 302.613304 180.117746 
L 302.716215 174.997794 
L 302.614302 169.877821 
L 302.307725 164.76602 
L 301.796976 159.670567 
L 301.082872 154.599615 
L 300.166555 149.561276 
L 299.049491 144.563609 
L 297.733468 139.614611 
L 296.22059 134.722198 
L 294.513277 129.894198 
L 292.614262 125.138334 
L 290.526582 120.462214 
L 288.253577 115.87332 
L 285.798884 111.378992 
L 283.166428 106.986421 
L 280.360423 102.702634 
L 277.385356 98.534483 
L 274.245987 94.488638 
L 270.947339 90.57157 
L 267.494688 86.789546 
L 263.893559 83.148616 
L 260.149712 79.654606 
L 256.269136 76.313104 
L 252.25804 73.129457 
L 248.12284 70.108757 
L 243.870152 67.255838 
L 239.50678 64.575263 
L 237.900911 63.648 
L 233.499174 66.265099 
L 229.205613 69.056128 
L 225.027099 72.01662 
L 220.970314 75.141841 
L 217.041751 78.42679 
L 213.247692 81.866212 
L 209.594209 85.454604 
L 206.087145 89.186227 
L 202.732112 93.05511 
L 199.534477 97.055063 
L 196.499354 101.179689 
L 193.631601 105.422387 
L 190.935804 109.776372 
L 188.416277 114.234677 
L 186.077049 118.79017 
L 183.921864 123.435563 
L 181.954169 128.163425 
L 180.177112 132.966192 
L 178.593535 137.83618 
L 177.205973 142.765599 
L 176.016645 147.746563 
L 175.027454 152.771103 
L 174.239983 157.831181 
L 173.65549 162.918702 
L 173.274911 168.025527 
L 173.098855 173.143487 
L 173.127604 178.264392 
L 173.361112 183.380052 
L 173.799004 188.482282 
L 174.440581 193.56292 
L 175.284816 198.613838 
L 176.330359 203.626955 
L 177.575537 208.594251 
L 179.018357 213.507781 
L 180.656512 218.359682 
L 182.487381 223.142194 
L 184.508035 227.847665 
L 186.715242 232.468568 
L 189.10547 236.99751 
L 191.674895 241.427245 
L 194.419407 245.750688 
L 197.334615 249.960921 
L 200.415856 254.051209 
L 203.6582 258.015008 
L 207.05646 261.845978 
L 210.6052 265.537989 
L 214.298743 269.085136 
L 218.131179 272.481742 
L 222.096377 275.722375 
L 226.187995 278.80185 
L 230.399486 281.715241 
L 234.724112 284.457887 
L 236.316568 285.408 
L 240.680463 282.728275 
L 244.933707 279.876185 
L 249.069495 276.856292 
L 253.081212 273.673427 
L 256.962439 270.332681 
L 260.706967 266.839401 
L 264.308806 263.199173 
L 267.762194 259.417823 
L 271.061606 255.501398 
L 274.201763 251.456164 
L 277.177643 247.288594 
L 279.984483 243.005353 
L 282.617795 238.613296 
L 285.073365 234.119447 
L 287.347264 229.530996 
L 289.435856 224.855283 
L 291.335798 220.099789 
L 293.044051 215.272122 
L 294.557883 210.380004 
L 295.874872 205.431263 
L 296.99291 200.433814 
L 297.910209 195.395653 
L 298.625301 190.32484 
L 299.137044 185.229487 
L 299.444617 180.117746 
L 299.547529 174.997794 
L 299.445615 169.877821 
L 299.139038 164.76602 
L 298.628289 159.670567 
L 297.914185 154.599615 
L 296.997868 149.561276 
L 295.880804 144.563609 
L 294.564781 139.614611 
L 293.051903 134.722198 
L 291.34459 129.894198 
L 289.445575 125.138334 
L 287.357895 120.462214 
L 285.08489 115.87332 
L 282.630197 111.378992 
L 279.997742 106.986421 
L 277.191736 102.702634 
L 274.216669 98.534483 
L 271.0773 94.488638 
L 267.778652 90.57157 
L 264.326001 86.789546 
L 260.724872 83.148616 
L 256.981025 79.654606 
L 253.100449 76.313104 
L 249.089353 73.129457 
L 244.954153 70.108757 
L 240.701465 67.255838 
L 236.338093 64.575263 
L 234.732225 63.648 
L 230.330487 66.265099 
L 226.036927 69.056128 
L 221.858412 72.01662 
L 217.801628 75.141841 
L 213.873064 78.42679 
L 210.079005 81.866212 
L 206.425522 85.454604 
L 202.918458 89.186227 
L 199.563425 93.05511 
L 196.36579 97.055063 
L 193.330668 101.179689 
L 190.462914 105.422387 
L 187.767117 109.776372 
L 185.24759 114.234677 
L 182.908362 118.79017 
L 180.753177 123.435563 
L 178.785482 128.163425 
L 177.008425 132.966192 
L 175.424848 137.83618 
L 174.037287 142.765599 
L 172.847959 147.746563 
L 171.858768 152.771103 
L 171.071296 157.831181 
L 170.486803 162.918702 
L 170.106224 168.025527 
L 169.930168 173.143487 
L 169.958917 178.264392 
L 170.192425 183.380052 
L 170.630317 188.482282 
L 171.271894 193.56292 
L 172.116129 198.613838 
L 173.161672 203.626955 
L 174.40685 208.594251 
L 175.84967 213.507781 
L 177.487825 218.359682 
L 179.318694 223.142194 
L 181.339349 227.847665 
L 183.546555 232.468568 
L 185.936783 236.99751 
L 188.506208 241.427245 
L 191.25072 245.750688 
L 194.165928 249.960921 
L 197.247169 254.051209 
L 200.489513 258.015008 
L 203.887773 261.845978 
L 207.436513 265.537989 
L 211.130056 269.085136 
L 214.962492 272.481742 
L 218.92769 275.722375 
L 223.019308 278.80185 
L 227.230799 281.715241 
L 231.555425 284.457887 
L 233.147881 285.408 
L 237.511776 282.728275 
L 241.76502 279.876185 
L 245.900808 276.856292 
L 249.912525 273.673427 
L 253.793752 270.332681 
L 257.53828 266.839401 
L 261.14012 263.199173 
L 264.593507 259.417823 
L 267.892919 255.501398 
L 271.033077 251.456164 
L 274.008956 247.288594 
L 276.815797 243.005353 
L 279.449108 238.613296 
L 281.904678 234.119447 
L 284.178577 229.530996 
L 286.267169 224.855283 
L 288.167111 220.099789 
L 289.875365 215.272122 
L 291.389196 210.380004 
L 292.706185 205.431263 
L 293.824223 200.433814 
L 294.741522 195.395653 
L 295.456615 190.32484 
L 295.968357 185.229487 
L 296.27593 180.117746 
L 296.378842 174.997794 
L 296.276928 169.877821 
L 295.970351 164.76602 
L 295.459602 159.670567 
L 294.745498 154.599615 
L 293.829181 149.561276 
L 292.712118 144.563609 
L 291.396094 139.614611 
L 289.883216 134.722198 
L 288.175904 129.894198 
L 286.276888 125.138334 
L 284.189209 120.462214 
L 281.916204 115.87332 
L 279.46151 111.378992 
L 276.829055 106.986421 
L 274.023049 102.702634 
L 271.047982 98.534483 
L 267.908613 94.488638 
L 264.609965 90.57157 
L 261.157315 86.789546 
L 257.556185 83.148616 
L 253.812338 79.654606 
L 249.931762 76.313104 
L 245.920666 73.129457 
L 241.785466 70.108757 
L 237.532779 67.255838 
L 233.169406 64.575263 
L 231.563538 63.648 
L 227.1618 66.265099 
L 222.86824 69.056128 
L 218.689725 72.01662 
L 214.632941 75.141841 
L 210.704377 78.42679 
L 206.910319 81.866212 
L 203.256835 85.454604 
L 199.749772 89.186227 
L 196.394738 93.05511 
L 193.197103 97.055063 
L 190.161981 101.179689 
L 187.294227 105.422387 
L 184.598431 109.776372 
L 182.078903 114.234677 
L 179.739676 118.79017 
L 177.58449 123.435563 
L 175.616795 128.163425 
L 173.839738 132.966192 
L 172.256162 137.83618 
L 170.8686 142.765599 
L 169.679272 147.746563 
L 168.690081 152.771103 
L 167.902609 157.831181 
L 167.318116 162.918702 
L 166.937537 168.025527 
L 166.761482 173.143487 
L 166.79023 178.264392 
L 167.023738 183.380052 
L 167.46163 188.482282 
L 168.103207 193.56292 
L 168.947443 198.613838 
L 169.992985 203.626955 
L 171.238163 208.594251 
L 172.680983 213.507781 
L 174.319139 218.359682 
L 176.150008 223.142194 
L 178.170662 227.847665 
L 180.377868 232.468568 
L 182.768096 236.99751 
L 185.337521 241.427245 
L 188.082033 245.750688 
L 190.997241 249.960921 
L 194.078482 254.051209 
L 197.320826 258.015008 
L 200.719087 261.845978 
L 204.267827 265.537989 
L 207.961369 269.085136 
L 211.793805 272.481742 
L 215.759004 275.722375 
L 219.850621 278.80185 
L 224.062112 281.715241 
L 228.386739 284.457887 
L 229.979194 285.408 
L 234.343089 282.728275 
L 238.596333 279.876185 
L 242.732121 276.856292 
L 246.743838 273.673427 
L 250.625065 270.332681 
L 254.369594 266.839401 
L 257.971433 263.199173 
L 261.424821 259.417823 
L 264.724232 255.501398 
L 267.86439 251.456164 
L 270.840269 247.288594 
L 273.64711 243.005353 
L 276.280421 238.613296 
L 278.735991 234.119447 
L 281.009891 229.530996 
L 283.098482 224.855283 
L 284.998424 220.099789 
L 286.706678 215.272122 
L 288.220509 210.380004 
L 289.537498 205.431263 
L 290.655536 200.433814 
L 291.572835 195.395653 
L 292.287928 190.32484 
L 292.79967 185.229487 
L 293.107243 180.117746 
L 293.210155 174.997794 
L 293.108241 169.877821 
L 292.801665 164.76602 
L 292.290916 159.670567 
L 291.576811 154.599615 
L 290.660495 149.561276 
L 289.543431 144.563609 
L 288.227407 139.614611 
L 286.714529 134.722198 
L 285.007217 129.894198 
L 283.108202 125.138334 
L 281.020522 120.462214 
L 278.747517 115.87332 
L 276.292823 111.378992 
L 273.660368 106.986421 
L 270.854362 102.702634 
L 267.879295 98.534483 
L 264.739927 94.488638 
L 261.441278 90.57157 
L 257.988628 86.789546 
L 254.387498 83.148616 
L 250.643651 79.654606 
L 246.763075 76.313104 
L 242.751979 73.129457 
L 238.616779 70.108757 
L 234.364092 67.255838 
L 230.000719 64.575263 
L 228.394851 63.648 
L 223.993113 66.265099 
L 219.699553 69.056128 
L 215.521038 72.01662 
L 211.464254 75.141841 
L 207.53569 78.42679 
L 203.741632 81.866212 
L 200.088148 85.454604 
L 196.581085 89.186227 
L 193.226052 93.05511 
L 190.028416 97.055063 
L 186.993294 101.179689 
L 184.125541 105.422387 
L 181.429744 109.776372 
L 178.910216 114.234677 
L 176.570989 118.79017 
L 174.415803 123.435563 
L 172.448108 128.163425 
L 170.671051 132.966192 
L 169.087475 137.83618 
L 167.699913 142.765599 
L 166.510585 147.746563 
L 165.521394 152.771103 
L 164.733922 157.831181 
L 164.149429 162.918702 
L 163.76885 168.025527 
L 163.592795 173.143487 
L 163.621544 178.264392 
L 163.855051 183.380052 
L 164.292944 188.482282 
L 164.934521 193.56292 
L 165.778756 198.613838 
L 166.824298 203.626955 
L 168.069476 208.594251 
L 169.512297 213.507781 
L 171.150452 218.359682 
L 172.981321 223.142194 
L 175.001975 227.847665 
L 177.209181 232.468568 
L 179.599409 236.99751 
L 182.168834 241.427245 
L 184.913346 245.750688 
L 187.828555 249.960921 
L 190.909795 254.051209 
L 194.15214 258.015008 
L 197.5504 261.845978 
L 201.09914 265.537989 
L 204.792682 269.085136 
L 208.625118 272.481742 
L 212.590317 275.722375 
L 216.681934 278.80185 
L 220.893425 281.715241 
L 225.218052 284.457887 
L 226.810507 285.408 
L 231.174402 282.728275 
L 235.427646 279.876185 
L 239.563434 276.856292 
L 243.575151 273.673427 
L 247.456378 270.332681 
L 251.200907 266.839401 
L 254.802746 263.199173 
L 258.256134 259.417823 
L 261.555546 255.501398 
L 264.695703 251.456164 
L 267.671582 247.288594 
L 270.478423 243.005353 
L 273.111734 238.613296 
L 275.567304 234.119447 
L 277.841204 229.530996 
L 279.929795 224.855283 
L 281.829737 220.099789 
L 283.537991 215.272122 
L 285.051823 210.380004 
L 286.368811 205.431263 
L 287.486849 200.433814 
L 288.404148 195.395653 
L 289.119241 190.32484 
L 289.630983 185.229487 
L 289.938556 180.117746 
L 290.041468 174.997794 
L 289.939554 169.877821 
L 289.632978 164.76602 
L 289.122229 159.670567 
L 288.408125 154.599615 
L 287.491808 149.561276 
L 286.374744 144.563609 
L 285.05872 139.614611 
L 283.545842 134.722198 
L 281.83853 129.894198 
L 279.939515 125.138334 
L 277.851835 120.462214 
L 275.57883 115.87332 
L 273.124136 111.378992 
L 270.491681 106.986421 
L 267.685675 102.702634 
L 264.710609 98.534483 
L 261.57124 94.488638 
L 258.272592 90.57157 
L 254.819941 86.789546 
L 251.218811 83.148616 
L 247.474964 79.654606 
L 243.594388 76.313104 
L 239.583292 73.129457 
L 235.448093 70.108757 
L 231.195405 67.255838 
L 226.832033 64.575263 
L 225.226164 63.648 
L 220.824427 66.265099 
L 216.530866 69.056128 
L 212.352351 72.01662 
L 208.295567 75.141841 
L 204.367003 78.42679 
L 200.572945 81.866212 
L 196.919462 85.454604 
L 193.412398 89.186227 
L 190.057365 93.05511 
L 186.859729 97.055063 
L 183.824607 101.179689 
L 180.956854 105.422387 
L 178.261057 109.776372 
L 175.741529 114.234677 
L 173.402302 118.79017 
L 171.247117 123.435563 
L 169.279421 128.163425 
L 167.502364 132.966192 
L 165.918788 137.83618 
L 164.531226 142.765599 
L 163.341898 147.746563 
L 162.352707 152.771103 
L 161.565235 157.831181 
L 160.980742 162.918702 
L 160.600164 168.025527 
L 160.424108 173.143487 
L 160.452857 178.264392 
L 160.686364 183.380052 
L 161.124257 188.482282 
L 161.765834 193.56292 
L 162.610069 198.613838 
L 163.655612 203.626955 
L 164.900789 208.594251 
L 166.34361 213.507781 
L 167.981765 218.359682 
L 169.812634 223.142194 
L 171.833288 227.847665 
L 174.040494 232.468568 
L 176.430722 236.99751 
L 179.000147 241.427245 
L 181.744659 245.750688 
L 184.659868 249.960921 
L 187.741109 254.051209 
L 190.983453 258.015008 
L 194.381713 261.845978 
L 197.930453 265.537989 
L 201.623995 269.085136 
L 205.456431 272.481742 
L 209.42163 275.722375 
L 213.513247 278.80185 
L 217.724738 281.715241 
L 222.049365 284.457887 
L 223.641821 285.408 
L 228.005715 282.728275 
L 232.258959 279.876185 
L 236.394748 276.856292 
L 240.406464 273.673427 
L 244.287691 270.332681 
L 248.03222 266.839401 
L 251.634059 263.199173 
L 255.087447 259.417823 
L 258.386859 255.501398 
L 261.527016 251.456164 
L 264.502895 247.288594 
L 267.309736 243.005353 
L 269.943048 238.613296 
L 272.398617 234.119447 
L 274.672517 229.530996 
L 276.761108 224.855283 
L 278.661051 220.099789 
L 280.369304 215.272122 
L 281.883136 210.380004 
L 283.200124 205.431263 
L 284.318162 200.433814 
L 285.235461 195.395653 
L 285.950554 190.32484 
L 286.462296 185.229487 
L 286.594179 183.427072 
L 287.927113 178.482602 
L 289.061254 173.488783 
L 289.994789 168.453605 
L 290.726224 163.385124 
L 291.254388 158.291447 
L 291.578437 153.180723 
L 291.697853 148.061129 
L 291.612444 142.940855 
L 291.322346 137.828092 
L 290.828025 132.73102 
L 290.130271 127.657792 
L 289.2302 122.616525 
L 288.129252 117.615283 
L 286.829188 112.662069 
L 285.332089 107.764805 
L 283.640348 102.931326 
L 281.756674 98.169365 
L 279.684078 93.48654 
L 277.425877 88.890343 
L 274.985684 84.388126 
L 272.367402 79.987092 
L 269.575219 75.694282 
L 266.613604 71.516563 
L 263.487293 67.460618 
L 260.301412 63.648 
L 257.020089 67.579593 
L 253.898612 71.639258 
L 250.941976 75.820503 
L 248.154909 80.116636 
L 245.541872 84.520786 
L 243.107044 89.025907 
L 240.85432 93.624791 
L 238.787305 98.310082 
L 236.909304 103.074283 
L 235.223323 107.909774 
L 233.732059 112.808818 
L 232.437896 117.763578 
L 231.342907 122.766127 
L 231.188972 123.55655 
L 229.177635 118.847088 
L 226.979579 114.221826 
L 224.59832 109.688162 
L 222.037667 105.25335 
L 219.301717 100.924484 
L 216.394848 96.70849 
L 213.321708 92.612111 
L 210.087216 88.641902 
L 206.696545 84.804214 
L 203.155119 81.105186 
L 199.468604 77.550737 
L 195.642898 74.146551 
L 191.684122 70.898077 
L 187.598607 67.810509 
L 183.392891 64.888789 
L 181.491988 63.648 
L 177.235133 66.494697 
L 173.09552 69.509347 
L 169.079773 72.687125 
L 165.194315 76.022948 
L 164.788263 76.387475 
L 163.820643 81.416213 
L 163.054894 86.479624 
L 162.492239 91.569607 
L 162.133579 96.678018 
L 161.979488 101.796685 
L 162.030213 106.917421 
L 162.285672 112.032031 
L 162.745456 117.132335 
L 163.40883 122.210173 
L 164.274733 127.257421 
L 165.34178 132.266005 
L 166.608262 137.227912 
L 168.072156 142.135205 
L 169.731117 146.980032 
L 171.582493 151.754643 
L 173.623322 156.451399 
L 175.850338 161.062787 
L 178.259979 165.58143 
L 180.848391 170.000098 
L 183.611431 174.311723 
L 184.977792 176.311653 
L 182.437038 180.757895 
L 180.076118 185.302184 
L 177.89881 189.937249 
L 175.908597 194.655676 
L 174.108663 199.449916 
L 172.501886 204.3123 
L 171.090839 209.235048 
L 169.877777 214.210285 
L 168.864643 219.230052 
L 168.053056 224.286318 
L 167.444314 229.370994 
L 167.039393 234.475947 
L 166.838939 239.593009 
L 166.843273 244.713993 
L 167.052389 249.830708 
L 167.465951 254.934968 
L 168.083299 260.018607 
L 168.903444 265.073492 
L 169.925075 270.091537 
L 171.146556 275.064713 
L 172.565935 279.985065 
L 174.18094 284.844722 
L 174.382211 285.408 
L 176.019902 280.555942 
L 177.462252 275.642274 
L 178.706955 270.674859 
L 179.752018 265.661642 
L 180.59577 260.610643 
L 181.23686 255.529944 
L 181.674265 250.427672 
L 181.907283 245.31199 
L 181.935542 240.191081 
L 181.758996 235.073139 
L 181.377929 229.966351 
L 180.79295 224.878885 
L 180.004994 219.818883 
L 179.015322 214.794437 
L 177.825517 209.813587 
L 176.437484 204.884301 
L 174.853442 200.014464 
L 173.075925 195.211867 
L 171.107777 190.484194 
L 168.952148 185.839007 
L 166.612484 181.283737 
L 164.09253 176.825673 
L 161.396317 172.471947 
L 158.528158 168.229523 
L 155.492641 164.105188 
L 152.294623 160.10554 
L 148.939219 156.236978 
L 145.431799 152.505691 
L 141.777972 148.917648 
L 137.983585 145.478589 
L 134.054707 142.194016 
L 129.997623 139.069184 
L 129.014265 138.349856 
L 133.73021 140.345944 
L 138.522205 142.151848 
L 143.382583 143.764679 
L 148.30357 145.181856 
L 153.277293 146.401112 
L 158.295794 147.420498 
L 163.351045 148.238382 
L 168.43496 148.853455 
L 173.539404 149.264734 
L 178.656212 149.47156 
L 183.777198 149.473604 
L 188.89417 149.270861 
L 191.722132 149.070667 
L 189.409391 144.501671 
L 186.915788 140.028814 
L 184.245313 135.659253 
L 181.402238 131.399977 
L 178.391112 127.257801 
L 175.216752 123.239352 
L 171.884236 119.351057 
L 168.398895 115.599137 
L 164.766305 111.989595 
L 160.992278 108.528205 
L 157.082851 105.220505 
L 153.044278 102.071786 
L 150.875627 100.484867 
L 155.580377 102.507201 
L 160.362234 104.339777 
L 165.213551 105.979665 
L 170.126565 107.424239 
L 175.093416 108.67119 
L 180.10616 109.718523 
L 185.156776 110.564561 
L 190.237184 111.207952 
L 195.339258 111.647666 
L 200.454834 111.883 
L 205.575729 111.913578 
L 210.693751 111.739349 
L 215.800711 111.360594 
L 220.888441 110.777917 
L 225.948799 109.992252 
L 230.973692 109.004855 
L 235.955081 107.817306 
L 240.884995 106.431504 
L 245.755548 104.849666 
L 250.558949 103.074324 
L 255.287514 101.108317 
L 259.933676 98.95479 
L 264.490004 96.61719 
L 268.949208 94.099254 
L 273.304155 91.405012 
L 277.547877 88.538773 
L 281.673586 85.505124 
L 285.674681 82.308917 
L 289.544761 78.955265 
L 293.277636 75.449534 
L 296.867333 71.797332 
L 300.308109 68.004502 
L 301.731962 66.34197 
L 296.709097 67.33963 
L 291.730145 68.537353 
L 286.803072 69.933223 
L 281.93576 71.525007 
L 277.135996 73.310158 
L 272.411458 75.28582 
L 267.769704 77.448834 
L 263.218161 79.795738 
L 258.76411 82.322777 
L 254.414676 85.02591 
L 250.176818 87.900812 
L 246.057315 90.942883 
L 242.062757 94.147257 
L 238.199536 97.508808 
L 234.473831 101.022157 
L 230.891602 104.681684 
L 227.458581 108.481535 
L 224.18026 112.415631 
L 221.061883 116.477678 
L 218.108439 120.661178 
L 215.324652 124.959437 
L 213.010908 128.845187 
L 207.91222 128.367819 
L 202.79852 128.094726 
L 197.67799 128.026345 
L 192.558822 128.162785 
L 187.449204 128.503829 
L 182.357312 129.048929 
L 177.291291 129.797215 
L 172.259246 130.74749 
L 167.269226 131.898232 
L 162.329216 133.247601 
L 157.447117 134.793439 
L 152.63074 136.533272 
L 147.887791 138.464317 
L 143.225857 140.583485 
L 138.652396 142.887386 
L 134.174725 145.372333 
L 129.800007 148.034352 
L 125.535241 150.869183 
L 121.387248 153.872292 
L 118.974458 155.739313 
L 118.326467 160.819137 
L 117.882134 165.92081 
L 117.642168 171.036171 
L 117.606954 176.157036 
L 117.776549 181.275214 
L 118.15068 186.382515 
L 118.72875 191.47077 
L 118.994917 193.352124 
L 123.066802 196.457644 
L 127.259618 199.397847 
L 131.566657 202.168032 
L 135.981028 204.763764 
L 140.49567 207.180893 
L 145.10336 209.41555 
L 149.796727 211.464162 
L 154.568262 213.32345 
L 159.410332 214.990441 
L 164.315191 216.462467 
L 169.274992 217.737173 
L 174.281801 218.812521 
L 179.327606 219.686789 
L 184.404337 220.35858 
L 189.503872 220.826819 
L 194.618052 221.090756 
L 199.738696 221.149969 
L 204.857612 221.004363 
L 209.966611 220.654172 
L 213.232363 220.322359 
L 215.901879 224.692506 
L 218.744019 228.952405 
L 221.754236 233.095242 
L 224.927715 237.114388 
L 228.259378 241.003414 
L 231.743895 244.756098 
L 235.375693 248.366437 
L 239.148961 251.828655 
L 243.057662 255.137213 
L 247.095544 258.286818 
L 251.256147 261.272431 
L 255.532814 264.089277 
L 259.918704 266.732848 
L 264.406801 269.198916 
L 268.989924 271.483535 
L 273.660741 273.583051 
L 278.411781 275.494105 
L 283.235441 277.213639 
L 288.124007 278.738902 
L 293.069656 280.067456 
L 298.064478 281.197173 
L 302.162166 281.968895 
L 298.810698 278.096923 
L 295.307074 274.362071 
L 291.656897 270.770315 
L 287.866008 267.3274 
L 283.940472 264.038834 
L 279.886568 260.909878 
L 275.710783 257.945537 
L 271.419795 255.150555 
L 267.02047 252.529402 
L 262.519846 250.086272 
L 257.925123 247.825073 
L 253.243651 245.749423 
L 248.48292 243.862642 
L 243.650546 242.167749 
L 238.75426 240.667455 
L 233.801894 239.36416 
L 228.801372 238.259949 
L 223.760693 237.356589 
L 218.687922 236.655525 
L 213.591173 236.157879 
L 208.4786 235.864447 
L 203.358383 235.775697 
L 198.238712 235.891773 
L 193.127778 236.212488 
L 188.033758 236.737329 
L 182.9648 237.465457 
L 177.929015 238.395706 
L 172.934457 239.52659 
L 167.989118 240.856297 
L 163.100909 242.382702 
L 158.277649 244.103363 
L 153.527056 246.015526 
L 150.240126 247.470413 
L 150.761532 247.099 
L 154.864605 244.034805 
L 158.841861 240.808982 
L 162.686937 237.426691 
L 166.393682 233.893343 
L 169.956166 230.214592 
L 173.368689 226.396322 
L 176.625793 222.444642 
L 179.722266 218.365873 
L 182.653155 214.16654 
L 185.413771 209.853363 
L 187.999698 205.43324 
L 190.406799 200.913244 
L 191.269849 199.179048 
L 186.17062 198.707486 
L 181.056613 198.440215 
L 175.936009 198.377664 
L 170.816999 198.519932 
L 165.707773 198.866793 
L 160.616505 199.41769 
L 155.551339 200.171743 
L 150.520378 201.127746 
L 145.531672 202.284169 
L 140.593201 203.639162 
L 135.712866 205.190557 
L 130.898473 206.935873 
L 127.601458 208.25909 
L 131.610102 205.072355 
L 135.488103 201.727866 
L 139.229259 198.230974 
L 142.827583 194.587272 
L 146.27732 190.80259 
L 149.572951 186.882983 
L 152.709203 182.834721 
L 155.68106 178.664281 
L 158.483766 174.378334 
L 161.112838 169.983737 
L 163.564069 165.487521 
L 165.83354 160.896877 
L 167.917618 156.219151 
L 169.812971 151.461826 
L 171.516564 146.632513 
L 173.025675 141.738937 
L 174.337887 136.788926 
L 175.451102 131.790401 
L 176.363538 126.751357 
L 177.073737 121.679857 
L 177.580562 116.584012 
L 177.883202 111.471976 
L 177.981173 106.351927 
L 177.874319 101.232056 
L 177.562809 96.120553 
L 177.047143 91.025595 
L 176.328146 85.955335 
L 175.406968 80.917882 
L 174.285081 75.921295 
L 172.964283 70.97357 
L 171.446684 66.082619 
L 171.185938 65.306376 
L 176.187557 64.207146 
L 178.420843 63.648 
L 183.401889 64.836985 
L 188.426497 65.82583 
L 193.486629 66.612953 
L 198.57419 67.197095 
L 203.681042 67.577322 
L 208.799013 67.753025 
L 213.919917 67.723924 
L 219.03556 67.490064 
L 224.13776 67.05182 
L 229.218354 66.409893 
L 234.269213 65.56531 
L 239.282258 64.519421 
L 242.843198 63.648 
L 247.824244 64.836985 
L 252.848852 65.82583 
L 257.908985 66.612953 
L 262.996546 67.197095 
L 268.103397 67.577322 
L 273.221368 67.753025 
L 278.342272 67.723924 
L 283.457916 67.490064 
L 288.560116 67.05182 
L 293.64071 66.409893 
L 298.691569 65.56531 
L 301.01831 65.105889 
L 297.688808 68.996765 
L 294.517563 73.017673 
L 291.509647 77.162181 
L 288.669874 81.423659 
L 286.002786 85.795288 
L 283.51265 90.270076 
L 281.203449 94.840863 
L 279.078879 99.500337 
L 277.142337 104.241045 
L 275.396922 109.055401 
L 273.845426 113.935704 
L 272.490331 118.874147 
L 271.333805 123.86283 
L 270.377698 128.89377 
L 269.62354 133.95892 
L 269.424703 135.588824 
L 274.329157 134.115451 
L 279.170769 132.447131 
L 283.941794 130.586532 
L 288.634598 128.536632 
L 293.241674 126.300709 
L 297.755652 123.882341 
L 302.16931 121.285396 
L 306.475588 118.514029 
L 310.667596 115.572674 
L 314.738628 112.466036 
L 318.682172 109.199085 
L 322.491917 105.777048 
L 323.789471 104.546695 
L 318.899319 106.066866 
L 314.07387 107.781376 
L 309.320843 109.68748 
L 304.647841 111.78213 
L 300.062341 114.061974 
L 295.571678 116.523367 
L 291.183037 119.162368 
L 286.903439 121.974758 
L 282.739729 124.956037 
L 278.698569 128.101434 
L 274.786423 131.40592 
L 271.009552 134.864206 
L 269.864691 135.969037 
L 270.245542 135.454484 
L 273.198771 131.270832 
L 275.982335 126.972429 
L 278.591783 122.566151 
L 281.02294 118.059048 
L 283.271916 113.45833 
L 285.335113 108.771357 
L 287.209231 104.005626 
L 288.891272 99.168764 
L 290.378544 94.268506 
L 291.668668 89.312693 
L 292.759581 84.309253 
L 293.649537 79.266191 
L 294.337112 74.191573 
L 294.821207 69.093519 
L 295.112138 63.648 
L 295.159598 64.927447 
L 295.477289 70.038569 
L 295.999116 75.132899 
L 296.724245 80.202287 
L 297.651515 85.238622 
L 298.779443 90.233848 
L 300.106225 95.179973 
L 301.629738 100.069084 
L 303.347544 104.893361 
L 305.256896 109.645084 
L 307.354739 114.316653 
L 309.637717 118.900594 
L 312.102177 123.389574 
L 314.744177 127.77641 
L 317.559491 132.054086 
L 320.543614 136.215758 
L 323.691773 140.254767 
L 326.998931 144.164653 
L 330.459797 147.939161 
L 334.068835 151.572251 
L 337.820271 155.058113 
L 341.708103 158.391169 
L 345.726113 161.566087 
L 349.867871 164.577787 
L 354.126752 167.421453 
L 358.495943 170.092534 
L 363.11837 172.666347 
L 363.03678 176.530971 
L 358.669974 179.205949 
L 354.413631 182.053412 
L 350.274561 185.068807 
L 346.259386 188.247308 
L 342.374529 191.58383 
L 338.626204 195.073037 
L 335.020408 198.709346 
L 331.562911 202.486939 
L 328.259242 206.399774 
L 325.114688 210.441591 
L 322.134279 214.605923 
L 319.322782 218.886108 
L 316.684696 223.2753 
L 314.224241 227.766476 
L 311.945354 232.352452 
L 309.851679 237.025891 
L 307.946567 241.779316 
L 306.233065 246.605123 
L 304.713915 251.495591 
L 303.391546 256.442898 
L 302.268074 261.439128 
L 301.345297 266.476288 
L 300.624691 271.546321 
L 300.107409 276.641114 
L 299.794277 281.752518 
L 299.695908 285.408 
L 299.657265 283.487909 
L 299.413483 278.372728 
L 298.965344 273.271388 
L 298.313563 268.192049 
L 297.459185 263.142837 
L 296.403575 258.13183 
L 295.148423 253.167045 
L 293.695736 248.256423 
L 292.047839 243.407822 
L 290.207368 238.628997 
L 288.177267 233.927594 
L 285.960783 229.311134 
L 283.561464 224.787002 
L 280.983147 220.362436 
L 278.229956 216.044515 
L 275.306297 211.840146 
L 273.570161 209.503416 
L 277.900451 212.237111 
L 282.336597 214.795453 
L 286.8715 217.17435 
L 291.497907 219.369997 
L 296.208415 221.37888 
L 300.99549 223.197787 
L 305.851472 224.823807 
L 310.768593 226.254338 
L 315.738987 227.487093 
L 320.754702 228.520099 
L 325.807715 229.351704 
L 330.889941 229.980577 
L 332.108245 230.100764 
L 329.061731 225.984546 
L 325.853049 221.993448 
L 322.487332 218.133856 
L 318.969964 214.411944 
L 315.306574 210.833667 
L 311.50302 207.404748 
L 307.565389 204.130673 
L 303.49998 201.016681 
L 299.313296 198.067752 
L 295.012035 195.288605 
L 290.603079 192.683686 
L 286.09348 190.257162 
L 285.06343 189.735051 
L 290.148601 190.339646 
L 295.253882 190.740405 
L 300.371106 190.936687 
L 305.492085 190.928177 
L 310.608628 190.714889 
L 315.712549 190.297165 
L 320.795683 189.675673 
L 325.849897 188.851407 
L 330.867107 187.825685 
L 335.839286 186.600149 
L 340.75848 185.176759 
L 345.616818 183.557792 
L 350.406528 181.745839 
L 355.119949 179.743798 
L 359.749539 177.554871 
L 363.598601 175.557868 
L 363.517928 173.358401 
L 359.149103 170.686721 
L 354.676934 168.191885 
L 350.108576 165.877883 
L 345.451337 163.748418 
L 340.712666 161.806896 
L 335.900147 160.056423 
L 331.021476 158.4998 
L 326.08446 157.139517 
L 321.096995 155.977749 
L 316.067062 155.016357 
L 311.002707 154.256877 
L 305.912032 153.700525 
L 300.803181 153.348191 
L 295.684326 153.200438 
L 290.563658 153.257503 
L 285.449367 153.519294 
L 282.956236 153.721459 
L 286.646659 150.171068 
L 290.192152 146.475938 
L 293.587043 142.641983 
L 296.825902 138.675335 
L 299.903546 134.582339 
L 302.815052 130.369545 
L 305.555762 126.043692 
L 308.121292 121.611699 
L 310.507538 117.080658 
L 312.710681 112.457817 
L 314.727198 107.750571 
L 316.553862 102.966452 
L 318.187752 98.113112 
L 318.840071 95.974084 
L 313.838446 94.874879 
L 308.796866 93.976564 
L 303.723395 93.280578 
L 298.626151 92.788033 
L 293.513287 92.499718 
L 288.392983 92.416093 
L 283.273431 92.537293 
L 278.162821 92.863123 
L 273.069329 93.393062 
L 268.001102 94.126263 
L 262.96625 95.061552 
L 257.972827 96.197434 
L 253.028821 97.532091 
L 248.142142 99.063388 
L 243.320607 100.788874 
L 238.57193 102.705791 
L 233.903708 104.811071 
L 229.323409 107.101345 
L 224.83836 109.572951 
L 220.455736 112.221935 
L 216.182549 115.044057 
L 212.025635 118.034804 
L 207.991644 121.189391 
L 204.087029 124.502771 
L 200.318038 127.969643 
L 196.690699 131.584462 
L 193.210816 135.341445 
L 189.883956 139.23458 
L 186.715441 143.25764 
L 183.71034 147.404189 
L 180.87346 151.667594 
L 178.20934 156.041032 
L 175.722243 160.517509 
L 173.416145 165.089863 
L 171.294738 169.750779 
L 169.361415 174.4928 
L 167.619269 179.30834 
L 166.071086 184.189695 
L 164.719343 189.129057 
L 163.566204 194.118523 
L 162.613513 199.150112 
L 161.862793 204.215773 
L 161.315247 209.307402 
L 160.971749 214.416856 
L 160.83285 219.535958 
L 160.898771 224.65652 
L 161.169407 229.77035 
L 161.644326 234.869267 
L 162.322767 239.945114 
L 163.203645 244.98977 
L 164.285551 249.995165 
L 165.566754 254.953292 
L 167.045204 259.856218 
L 168.718537 264.6961 
L 170.584074 269.465196 
L 172.638833 274.155875 
L 174.879524 278.760634 
L 177.302565 283.272105 
L 178.532594 285.408 
L 181.042032 280.944008 
L 183.37095 276.383236 
L 185.515623 271.73298 
L 187.47262 267.00068 
L 189.23881 262.193906 
L 190.811368 257.320349 
L 192.187778 252.387804 
L 193.365837 247.404163 
L 194.343662 242.377398 
L 195.119687 237.315552 
L 195.692672 232.226722 
L 196.061699 227.11905 
L 196.226179 222.000705 
L 196.185849 216.879878 
L 195.940772 211.764759 
L 195.49134 206.663532 
L 195.357455 205.478803 
L 190.583171 203.626584 
L 185.738637 201.966768 
L 180.831603 200.502009 
L 175.869919 199.23465 
L 170.861524 198.16672 
L 165.814428 197.299927 
L 160.736708 196.635656 
L 155.636485 196.174972 
L 150.521919 195.918611 
L 145.401193 195.866983 
L 140.282498 196.02017 
L 135.174024 196.377929 
L 130.083942 196.939685 
L 125.020397 197.704542 
L 121.846065 198.290456 
L 125.140115 194.369521 
L 128.274736 190.319995 
L 131.244911 186.148358 
L 134.04589 181.861282 
L 136.67319 177.465625 
L 139.12261 172.968421 
L 141.39023 168.376864 
L 143.472423 163.698298 
L 145.365858 158.94021 
L 147.067505 154.11021 
L 148.574643 149.216026 
L 149.88486 144.265487 
L 150.996061 139.266514 
L 151.906467 134.227103 
L 152.614622 129.155316 
L 153.119393 124.059268 
L 153.419973 118.947111 
L 153.51588 113.827023 
L 153.406962 108.707195 
L 153.093393 103.595817 
L 152.575674 98.501068 
L 152.476936 97.711319 
L 157.160935 95.641379 
L 161.758413 93.385786 
L 166.262013 90.948146 
L 170.664531 88.33236 
L 174.958925 85.542613 
L 179.138323 82.583368 
L 183.196039 79.459358 
L 187.125583 76.175582 
L 190.920668 72.737292 
L 194.575222 69.14999 
L 198.083399 65.419414 
L 199.654176 63.648 
L 203.092772 67.442807 
L 206.680369 71.097072 
L 210.411228 74.604948 
L 214.27938 77.960823 
L 218.278638 81.159329 
L 222.402602 84.195349 
L 226.644676 87.064026 
L 230.998074 89.760771 
L 235.45583 92.281269 
L 240.010814 94.621488 
L 244.655738 96.777685 
L 249.383171 98.746409 
L 254.185551 100.524512 
L 259.055195 102.109148 
L 263.984312 103.497784 
L 268.965016 104.688196 
L 273.989341 105.678481 
L 279.049248 106.467054 
L 284.136641 107.052655 
L 289.243383 107.434345 
L 294.361304 107.611515 
L 299.482216 107.583881 
L 304.597926 107.351487 
L 309.700252 106.914706 
L 314.781029 106.274235 
L 319.83213 105.431099 
L 323.829106 104.615345 
L 320.449103 108.462433 
L 317.225646 112.441607 
L 314.163893 116.546503 
L 311.26874 120.770552 
L 308.54482 125.106998 
L 305.996491 129.548903 
L 303.627829 134.089161 
L 301.442623 138.720508 
L 299.44437 143.435536 
L 297.636266 148.226701 
L 296.021204 153.086338 
L 294.601767 158.006674 
L 293.380227 162.979836 
L 292.358537 167.997868 
L 291.538332 173.052744 
L 290.920925 178.136375 
L 290.507302 183.24063 
L 290.298126 188.357343 
L 290.293731 193.478327 
L 290.494125 198.595391 
L 290.898986 203.700349 
L 291.507667 208.785033 
L 292.319194 213.841308 
L 293.33227 218.861087 
L 294.545272 223.836339 
L 295.956262 228.759103 
L 297.56298 233.621506 
L 299.362858 238.415767 
L 301.353016 243.134217 
L 303.530269 247.769309 
L 305.891135 252.313625 
L 308.431836 256.759898 
L 311.148309 261.101012 
L 312.793605 263.554702 
L 307.681414 263.254694 
L 302.561315 263.159359 
L 297.4415 263.268849 
L 292.330158 263.58299 
L 287.235466 264.101279 
L 282.165576 264.822886 
L 277.128598 265.746658 
L 272.13259 266.871116 
L 267.185545 268.194462 
L 262.295377 269.714579 
L 257.469908 271.429034 
L 252.71686 273.335085 
L 248.043834 275.429682 
L 243.458309 277.709476 
L 238.967619 280.170817 
L 234.578948 282.80977 
L 230.612351 285.408 
L 226.324409 282.608347 
L 221.92794 279.982406 
L 217.429979 277.534377 
L 212.83772 275.268177 
L 208.158511 273.187431 
L 203.399837 271.295467 
L 198.569312 269.595314 
L 193.674662 268.089689 
L 188.723718 266.781003 
L 183.724401 265.671349 
L 178.684709 264.762501 
L 173.612704 264.055915 
L 168.5165 263.552719 
L 163.40425 263.25372 
L 159.299563 263.161819 
L 161.742316 258.66099 
L 164.003129 254.066077 
L 166.078387 249.384431 
L 167.964768 244.623542 
L 169.659256 239.791025 
L 171.15914 234.894613 
L 172.462019 229.942138 
L 173.56581 224.941524 
L 174.468747 219.900769 
L 175.169385 214.827939 
L 175.666604 209.731148 
L 175.959607 204.618551 
L 176.047927 199.498326 
L 175.931422 194.378665 
L 175.610279 189.267758 
L 175.08501 184.173782 
L 174.356457 179.104885 
L 173.425785 174.069178 
L 172.294482 169.074715 
L 170.96436 164.129488 
L 169.437544 159.241406 
L 167.71648 154.418292 
L 165.803918 149.667859 
L 163.70292 144.997708 
L 161.416846 140.41531 
L 158.949354 135.927997 
L 156.304391 131.542946 
L 153.486188 127.267173 
L 150.499254 123.107518 
L 147.348368 119.070636 
L 144.038569 115.162985 
L 143.044415 114.048924 
L 148.072455 115.020171 
L 153.135312 115.789573 
L 158.224887 116.355899 
L 163.333038 116.718243 
L 168.451593 116.876026 
L 173.572364 116.828995 
L 178.687157 116.577226 
L 183.787792 116.12112 
L 188.866107 115.461409 
L 193.913978 114.599147 
L 198.92333 113.535713 
L 203.88615 112.27281 
L 208.794497 110.812457 
L 213.640519 109.15699 
L 218.416464 107.309059 
L 223.114691 105.271618 
L 227.727685 103.047929 
L 232.248064 100.641548 
L 236.668598 98.056324 
L 240.982215 95.296394 
L 245.182014 92.366174 
L 249.261275 89.27035 
L 253.213474 86.013875 
L 257.032287 82.601959 
L 260.711605 79.040061 
L 264.245543 75.333878 
L 267.628445 71.489341 
L 270.854902 67.512598 
L 273.748856 63.648 
L 276.823084 67.743561 
L 280.058632 71.71291 
L 283.450324 75.549696 
L 286.992733 79.247782 
L 290.680193 82.801252 
L 294.506804 86.204419 
L 298.466444 89.451841 
L 302.552779 92.538322 
L 306.759272 95.458925 
L 311.079194 98.208976 
L 315.505632 100.784077 
L 320.031507 103.180107 
L 324.144927 105.162364 
L 323.774652 110.269947 
L 323.608921 115.388251 
L 323.648001 120.509088 
L 323.891828 125.624266 
L 324.340013 130.725603 
L 324.991839 135.804936 
L 325.846262 140.85414 
L 326.901916 145.865137 
L 328.157112 150.829912 
L 329.609842 155.74052 
L 331.257782 160.589107 
L 333.098296 165.367916 
L 335.128439 170.069301 
L 337.344963 174.685742 
L 339.744322 179.209852 
L 342.322679 183.634395 
L 345.075907 187.952292 
L 347.999603 192.156635 
L 351.417724 196.655765 
L 346.338742 196.001216 
L 341.237646 195.550296 
L 336.122599 195.303726 
L 331.001784 195.2619 
L 325.883392 195.424886 
L 320.775611 195.792423 
L 315.686614 196.363922 
L 310.624542 197.13847 
L 305.597492 198.114827 
L 300.613508 199.291432 
L 295.680561 200.666401 
L 290.806545 202.237536 
L 285.999256 204.002323 
L 281.266384 205.957939 
L 276.615503 208.101255 
L 273.337591 209.75053 
L 271.31277 214.45421 
L 269.477667 219.235099 
L 267.835216 224.085548 
L 266.388045 228.997798 
L 265.138469 233.963989 
L 264.088487 238.976179 
L 263.239779 244.026347 
L 262.593703 249.106414 
L 262.151292 254.208255 
L 261.913255 259.323706 
L 261.879971 264.444584 
L 262.051495 269.562697 
L 262.427551 274.669857 
L 263.007538 279.757894 
L 263.790529 284.818667 
L 263.895237 285.408 
L 264.701878 280.350942 
L 265.305646 275.265673 
L 265.705574 270.160327 
L 265.901023 265.043071 
L 265.89168 259.922094 
L 265.67756 254.805586 
L 265.259006 249.701733 
L 264.636686 244.6187 
L 263.811598 239.564619 
L 262.78506 234.547576 
L 261.558715 229.575597 
L 260.134524 224.656635 
L 258.75725 220.486287 
L 259.108251 221.021647 
L 262.011714 225.239989 
L 265.081543 229.338848 
L 268.312827 233.311669 
L 271.700397 237.152095 
L 275.238833 240.853983 
L 278.922475 244.411409 
L 282.745429 247.818684 
L 286.701581 251.070356 
L 290.784599 254.161222 
L 294.987954 257.08634 
L 299.30492 259.841028 
L 303.728591 262.42088 
L 308.25189 264.821769 
L 311.222789 266.275436 
L 306.953535 263.447367 
L 302.574604 260.792284 
L 298.093001 258.314436 
L 293.515894 256.017786 
L 288.850608 253.906009 
L 284.104604 251.982482 
L 279.285477 250.250284 
L 274.400935 248.712185 
L 269.458792 247.370646 
L 264.466955 246.227813 
L 259.43341 245.285514 
L 254.366209 244.545258 
L 249.27346 244.008227 
L 244.163308 243.675281 
L 239.04393 243.546954 
L 233.923515 243.62345 
L 228.810255 243.904646 
L 223.712329 244.390093 
L 218.637894 245.079015 
L 213.595068 245.970309 
L 208.591918 247.062549 
L 203.636447 248.353988 
L 198.736585 249.842561 
L 193.900168 251.525884 
L 189.134936 253.401267 
L 184.44851 255.465707 
L 179.848388 257.715904 
L 175.34193 260.148256 
L 170.936345 262.758873 
L 166.638681 265.543578 
L 162.402885 268.536929 
L 167.053952 266.394017 
L 171.615605 264.066825 
L 176.080547 261.559077 
L 180.441634 258.874786 
L 184.69189 256.018244 
L 188.824514 252.994022 
L 192.832897 249.806959 
L 196.710624 246.462153 
L 200.451493 242.964954 
L 204.049519 239.320957 
L 207.498947 235.535993 
L 210.794256 231.616116 
L 213.930177 227.567598 
L 216.901692 223.396914 
L 217.654915 222.281133 
L 216.986694 227.358335 
L 216.522042 232.458198 
L 216.261701 237.572562 
L 216.206089 242.693247 
L 216.355294 247.812059 
L 216.709078 252.92081 
L 217.266874 258.011328 
L 218.027791 263.075467 
L 218.99061 268.105127 
L 220.153792 273.092261 
L 221.515476 278.028892 
L 223.073483 282.907121 
L 223.956724 285.408 
L 223.956724 285.408 
" style="fill:none;stroke:#1f77b4;stroke-linecap:square;stroke-width:1.5;"/>
   </g>
   <g id="patch_4">
    <path d="M 82.520165 307.584 
L 82.520165 41.472 
" style="fill:none;stroke:#000000;stroke-linecap:square;stroke-linejoin:miter;stroke-width:0.8;"/>
   </g>
   <g id="patch_5">
    <path d="M 389.799835 307.584 
L 389.799835 41.472 
" style="fill:none;stroke:#000000;stroke-linecap:square;stroke-linejoin:miter;stroke-width:0.8;"/>
   </g>
   <g id="patch_6">
    <path d="M 82.520165 307.584 
L 389.799835 307.584 
" style="fill:none;stroke:#000000;stroke-linecap:square;stroke-linejoin:miter;stroke-width:0.8;"/>
   </g>
   <g id="patch_7">
    <path d="M 82.520165 41.472 
L 389.799835 41.472 
" style="fill:none;stroke:#000000;stroke-linecap:square;stroke-linejoin:miter;stroke-width:0.8;"/>
   </g>
  </g>
 </g>
 <defs>
  <clipPath id="pa04a85934f">
   <rect height="266.112" width="307.27967" x="82.520165" y="41.472"/>
  </clipPath>
 </defs>
</svg>
