<?xml version="1.0" encoding="utf-8" standalone="no"?>
<!DOCTYPE svg PUBLIC "-//W3C//DTD SVG 1.1//EN"
  "http://www.w3.org/Graphics/SVG/1.1/DTD/svg11.dtd">
<!-- Created with matplotlib (https://matplotlib.org/) -->
<svg height="345.6pt" version="1.1" viewBox="0 0 460.8 345.6" width="460.8pt" xmlns="http://www.w3.org/2000/svg" xmlns:xlink="http://www.w3.org/1999/xlink">
 <defs>
  <style type="text/css">
*{stroke-linecap:butt;stroke-linejoin:round;}
  </style>
 </defs>
 <g id="figure_1">
  <g id="patch_1">
   <path d="M 0 345.6 
L 460.8 345.6 
L 460.8 0 
L 0 0 
z
" style="fill:#ffffff;"/>
  </g>
  <g id="axes_1">
   <g id="patch_2">
    <path d="M 82.520165 307.584 
L 389.799835 307.584 
L 389.799835 41.472 
L 82.520165 41.472 
z
" style="fill:#ffffff;"/>
   </g>
   <g id="patch_3">
    <path clip-path="url(#p40c1061506)" d="M 236.16 225.741278 
C 249.74192 225.741278 262.769389 220.345124 272.373256 210.741256 
C 281.977124 201.137389 287.373278 188.10992 287.373278 174.528 
C 287.373278 160.94608 281.977124 147.918611 272.373256 138.314744 
C 262.769389 128.710876 249.74192 123.314722 236.16 123.314722 
C 222.57808 123.314722 209.550611 128.710876 199.946744 138.314744 
C 190.342876 147.918611 184.946722 160.94608 184.946722 174.528 
C 184.946722 188.10992 190.342876 201.137389 199.946744 210.741256 
C 209.550611 220.345124 222.57808 225.741278 236.16 225.741278 
z
" style="fill:#009900;fill-opacity:0.5;stroke:#009900;stroke-linejoin:miter;stroke-width:2;"/>
   </g>
   <g id="matplotlib.axis_1">
    <g id="xtick_1">
     <g id="line2d_1">
      <defs>
       <path d="M 0 0 
L 0 3.5 
" id="mab8aa0dacb" style="stroke:#000000;stroke-width:0.8;"/>
      </defs>
      <g>
       <use style="stroke:#000000;stroke-width:0.8;" x="108.126804" xlink:href="#mab8aa0dacb" y="307.584"/>
      </g>
     </g>
     <g id="text_1">
      <!-- −2 -->
      <defs>
       <path d="M 10.59375 35.5 
L 73.1875 35.5 
L 73.1875 27.203125 
L 10.59375 27.203125 
z
" id="DejaVuSans-8722"/>
       <path d="M 19.1875 8.296875 
L 53.609375 8.296875 
L 53.609375 0 
L 7.328125 0 
L 7.328125 8.296875 
Q 12.9375 14.109375 22.625 23.890625 
Q 32.328125 33.6875 34.8125 36.53125 
Q 39.546875 41.84375 41.421875 45.53125 
Q 43.3125 49.21875 43.3125 52.78125 
Q 43.3125 58.59375 39.234375 62.25 
Q 35.15625 65.921875 28.609375 65.921875 
Q 23.96875 65.921875 18.8125 64.3125 
Q 13.671875 62.703125 7.8125 59.421875 
L 7.8125 69.390625 
Q 13.765625 71.78125 18.9375 73 
Q 24.125 74.21875 28.421875 74.21875 
Q 39.75 74.21875 46.484375 68.546875 
Q 53.21875 62.890625 53.21875 53.421875 
Q 53.21875 48.921875 51.53125 44.890625 
Q 49.859375 40.875 45.40625 35.40625 
Q 44.1875 33.984375 37.640625 27.21875 
Q 31.109375 20.453125 19.1875 8.296875 
z
" id="DejaVuSans-50"/>
      </defs>
      <g transform="translate(100.755711 322.182437)scale(0.1 -0.1)">
       <use xlink:href="#DejaVuSans-8722"/>
       <use x="83.789062" xlink:href="#DejaVuSans-50"/>
      </g>
     </g>
    </g>
    <g id="xtick_2">
     <g id="line2d_2">
      <g>
       <use style="stroke:#000000;stroke-width:0.8;" x="172.143402" xlink:href="#mab8aa0dacb" y="307.584"/>
      </g>
     </g>
     <g id="text_2">
      <!-- −1 -->
      <defs>
       <path d="M 12.40625 8.296875 
L 28.515625 8.296875 
L 28.515625 63.921875 
L 10.984375 60.40625 
L 10.984375 69.390625 
L 28.421875 72.90625 
L 38.28125 72.90625 
L 38.28125 8.296875 
L 54.390625 8.296875 
L 54.390625 0 
L 12.40625 0 
z
" id="DejaVuSans-49"/>
      </defs>
      <g transform="translate(164.772308 322.182437)scale(0.1 -0.1)">
       <use xlink:href="#DejaVuSans-8722"/>
       <use x="83.789062" xlink:href="#DejaVuSans-49"/>
      </g>
     </g>
    </g>
    <g id="xtick_3">
     <g id="line2d_3">
      <g>
       <use style="stroke:#000000;stroke-width:0.8;" x="236.16" xlink:href="#mab8aa0dacb" y="307.584"/>
      </g>
     </g>
     <g id="text_3">
      <!-- 0 -->
      <defs>
       <path d="M 31.78125 66.40625 
Q 24.171875 66.40625 20.328125 58.90625 
Q 16.5 51.421875 16.5 36.375 
Q 16.5 21.390625 20.328125 13.890625 
Q 24.171875 6.390625 31.78125 6.390625 
Q 39.453125 6.390625 43.28125 13.890625 
Q 47.125 21.390625 47.125 36.375 
Q 47.125 51.421875 43.28125 58.90625 
Q 39.453125 66.40625 31.78125 66.40625 
z
M 31.78125 74.21875 
Q 44.046875 74.21875 50.515625 64.515625 
Q 56.984375 54.828125 56.984375 36.375 
Q 56.984375 17.96875 50.515625 8.265625 
Q 44.046875 -1.421875 31.78125 -1.421875 
Q 19.53125 -1.421875 13.0625 8.265625 
Q 6.59375 17.96875 6.59375 36.375 
Q 6.59375 54.828125 13.0625 64.515625 
Q 19.53125 74.21875 31.78125 74.21875 
z
" id="DejaVuSans-48"/>
      </defs>
      <g transform="translate(232.97875 322.182437)scale(0.1 -0.1)">
       <use xlink:href="#DejaVuSans-48"/>
      </g>
     </g>
    </g>
    <g id="xtick_4">
     <g id="line2d_4">
      <g>
       <use style="stroke:#000000;stroke-width:0.8;" x="300.176598" xlink:href="#mab8aa0dacb" y="307.584"/>
      </g>
     </g>
     <g id="text_4">
      <!-- 1 -->
      <g transform="translate(296.995348 322.182437)scale(0.1 -0.1)">
       <use xlink:href="#DejaVuSans-49"/>
      </g>
     </g>
    </g>
    <g id="xtick_5">
     <g id="line2d_5">
      <g>
       <use style="stroke:#000000;stroke-width:0.8;" x="364.193196" xlink:href="#mab8aa0dacb" y="307.584"/>
      </g>
     </g>
     <g id="text_5">
      <!-- 2 -->
      <g transform="translate(361.011946 322.182437)scale(0.1 -0.1)">
       <use xlink:href="#DejaVuSans-50"/>
      </g>
     </g>
    </g>
   </g>
   <g id="matplotlib.axis_2">
    <g id="ytick_1">
     <g id="line2d_6">
      <defs>
       <path d="M 0 0 
L -3.5 0 
" id="mf59a2227d6" style="stroke:#000000;stroke-width:0.8;"/>
      </defs>
      <g>
       <use style="stroke:#000000;stroke-width:0.8;" x="82.520165" xlink:href="#mf59a2227d6" y="302.561196"/>
      </g>
     </g>
     <g id="text_6">
      <!-- −2.0 -->
      <defs>
       <path d="M 10.6875 12.40625 
L 21 12.40625 
L 21 0 
L 10.6875 0 
z
" id="DejaVuSans-46"/>
      </defs>
      <g transform="translate(51.237353 306.360414)scale(0.1 -0.1)">
       <use xlink:href="#DejaVuSans-8722"/>
       <use x="83.789062" xlink:href="#DejaVuSans-50"/>
       <use x="147.412109" xlink:href="#DejaVuSans-46"/>
       <use x="179.199219" xlink:href="#DejaVuSans-48"/>
      </g>
     </g>
    </g>
    <g id="ytick_2">
     <g id="line2d_7">
      <g>
       <use style="stroke:#000000;stroke-width:0.8;" x="82.520165" xlink:href="#mf59a2227d6" y="270.552897"/>
      </g>
     </g>
     <g id="text_7">
      <!-- −1.5 -->
      <defs>
       <path d="M 10.796875 72.90625 
L 49.515625 72.90625 
L 49.515625 64.59375 
L 19.828125 64.59375 
L 19.828125 46.734375 
Q 21.96875 47.46875 24.109375 47.828125 
Q 26.265625 48.1875 28.421875 48.1875 
Q 40.625 48.1875 47.75 41.5 
Q 54.890625 34.8125 54.890625 23.390625 
Q 54.890625 11.625 47.5625 5.09375 
Q 40.234375 -1.421875 26.90625 -1.421875 
Q 22.3125 -1.421875 17.546875 -0.640625 
Q 12.796875 0.140625 7.71875 1.703125 
L 7.71875 11.625 
Q 12.109375 9.234375 16.796875 8.0625 
Q 21.484375 6.890625 26.703125 6.890625 
Q 35.15625 6.890625 40.078125 11.328125 
Q 45.015625 15.765625 45.015625 23.390625 
Q 45.015625 31 40.078125 35.4375 
Q 35.15625 39.890625 26.703125 39.890625 
Q 22.75 39.890625 18.8125 39.015625 
Q 14.890625 38.140625 10.796875 36.28125 
z
" id="DejaVuSans-53"/>
      </defs>
      <g transform="translate(51.237353 274.352116)scale(0.1 -0.1)">
       <use xlink:href="#DejaVuSans-8722"/>
       <use x="83.789062" xlink:href="#DejaVuSans-49"/>
       <use x="147.412109" xlink:href="#DejaVuSans-46"/>
       <use x="179.199219" xlink:href="#DejaVuSans-53"/>
      </g>
     </g>
    </g>
    <g id="ytick_3">
     <g id="line2d_8">
      <g>
       <use style="stroke:#000000;stroke-width:0.8;" x="82.520165" xlink:href="#mf59a2227d6" y="238.544598"/>
      </g>
     </g>
     <g id="text_8">
      <!-- −1.0 -->
      <g transform="translate(51.237353 242.343817)scale(0.1 -0.1)">
       <use xlink:href="#DejaVuSans-8722"/>
       <use x="83.789062" xlink:href="#DejaVuSans-49"/>
       <use x="147.412109" xlink:href="#DejaVuSans-46"/>
       <use x="179.199219" xlink:href="#DejaVuSans-48"/>
      </g>
     </g>
    </g>
    <g id="ytick_4">
     <g id="line2d_9">
      <g>
       <use style="stroke:#000000;stroke-width:0.8;" x="82.520165" xlink:href="#mf59a2227d6" y="206.536299"/>
      </g>
     </g>
     <g id="text_9">
      <!-- −0.5 -->
      <g transform="translate(51.237353 210.335518)scale(0.1 -0.1)">
       <use xlink:href="#DejaVuSans-8722"/>
       <use x="83.789062" xlink:href="#DejaVuSans-48"/>
       <use x="147.412109" xlink:href="#DejaVuSans-46"/>
       <use x="179.199219" xlink:href="#DejaVuSans-53"/>
      </g>
     </g>
    </g>
    <g id="ytick_5">
     <g id="line2d_10">
      <g>
       <use style="stroke:#000000;stroke-width:0.8;" x="82.520165" xlink:href="#mf59a2227d6" y="174.528"/>
      </g>
     </g>
     <g id="text_10">
      <!-- 0.0 -->
      <g transform="translate(59.61704 178.327219)scale(0.1 -0.1)">
       <use xlink:href="#DejaVuSans-48"/>
       <use x="63.623047" xlink:href="#DejaVuSans-46"/>
       <use x="95.410156" xlink:href="#DejaVuSans-48"/>
      </g>
     </g>
    </g>
    <g id="ytick_6">
     <g id="line2d_11">
      <g>
       <use style="stroke:#000000;stroke-width:0.8;" x="82.520165" xlink:href="#mf59a2227d6" y="142.519701"/>
      </g>
     </g>
     <g id="text_11">
      <!-- 0.5 -->
      <g transform="translate(59.61704 146.31892)scale(0.1 -0.1)">
       <use xlink:href="#DejaVuSans-48"/>
       <use x="63.623047" xlink:href="#DejaVuSans-46"/>
       <use x="95.410156" xlink:href="#DejaVuSans-53"/>
      </g>
     </g>
    </g>
    <g id="ytick_7">
     <g id="line2d_12">
      <g>
       <use style="stroke:#000000;stroke-width:0.8;" x="82.520165" xlink:href="#mf59a2227d6" y="110.511402"/>
      </g>
     </g>
     <g id="text_12">
      <!-- 1.0 -->
      <g transform="translate(59.61704 114.310621)scale(0.1 -0.1)">
       <use xlink:href="#DejaVuSans-49"/>
       <use x="63.623047" xlink:href="#DejaVuSans-46"/>
       <use x="95.410156" xlink:href="#DejaVuSans-48"/>
      </g>
     </g>
    </g>
    <g id="ytick_8">
     <g id="line2d_13">
      <g>
       <use style="stroke:#000000;stroke-width:0.8;" x="82.520165" xlink:href="#mf59a2227d6" y="78.503103"/>
      </g>
     </g>
     <g id="text_13">
      <!-- 1.5 -->
      <g transform="translate(59.61704 82.302322)scale(0.1 -0.1)">
       <use xlink:href="#DejaVuSans-49"/>
       <use x="63.623047" xlink:href="#DejaVuSans-46"/>
       <use x="95.410156" xlink:href="#DejaVuSans-53"/>
      </g>
     </g>
    </g>
    <g id="ytick_9">
     <g id="line2d_14">
      <g>
       <use style="stroke:#000000;stroke-width:0.8;" x="82.520165" xlink:href="#mf59a2227d6" y="46.494804"/>
      </g>
     </g>
     <g id="text_14">
      <!-- 2.0 -->
      <g transform="translate(59.61704 50.294023)scale(0.1 -0.1)">
       <use xlink:href="#DejaVuSans-50"/>
       <use x="63.623047" xlink:href="#DejaVuSans-46"/>
       <use x="95.410156" xlink:href="#DejaVuSans-48"/>
      </g>
     </g>
    </g>
   </g>
   <g id="line2d_15">
    <path clip-path="url(#p40c1061506)" d="M 300.176598 63.648 
L 172.143402 63.648 
" style="fill:none;stroke:#009900;stroke-linecap:square;stroke-width:2;"/>
   </g>
   <g id="line2d_16">
    <path clip-path="url(#p40c1061506)" d="M 172.143402 63.648 
L 108.126804 174.528 
" style="fill:none;stroke:#009900;stroke-linecap:square;stroke-width:2;"/>
   </g>
   <g id="line2d_17">
    <path clip-path="url(#p40c1061506)" d="M 108.126804 174.528 
L 172.143402 285.408 
" style="fill:none;stroke:#009900;stroke-linecap:square;stroke-width:2;"/>
   </g>
   <g id="line2d_18">
    <path clip-path="url(#p40c1061506)" d="M 172.143402 285.408 
L 300.176598 285.408 
" style="fill:none;stroke:#009900;stroke-linecap:square;stroke-width:2;"/>
   </g>
   <g id="line2d_19">
    <path clip-path="url(#p40c1061506)" d="M 300.176598 285.408 
L 364.193196 174.528 
" style="fill:none;stroke:#009900;stroke-linecap:square;stroke-width:2;"/>
   </g>
   <g id="line2d_20">
    <path clip-path="url(#p40c1061506)" d="M 364.193196 174.528 
L 300.176598 63.648 
" style="fill:none;stroke:#009900;stroke-linecap:square;stroke-width:2;"/>
   </g>
   <g id="line2d_21">
    <path clip-path="url(#p40c1061506)" d="M 292.600864 133.685902 
L 288.452358 136.688301 
L 284.427234 139.854194 
L 280.531931 143.178517 
L 278.20949 145.293768 
L 282.742214 142.910722 
L 287.176017 140.348321 
L 291.503804 137.610666 
L 295.718652 134.702134 
L 299.813819 131.627381 
L 303.782753 128.391323 
L 307.619104 124.99914 
L 311.316736 121.456256 
L 314.869732 117.768341 
L 318.272409 113.941293 
L 321.519323 109.981236 
L 324.584328 105.923428 
L 319.502312 106.553997 
L 314.449577 107.387288 
L 309.434207 108.421968 
L 304.464225 109.656382 
L 299.547581 111.088554 
L 294.692142 112.716194 
L 289.905675 114.536699 
L 285.195837 116.547154 
L 280.570164 118.744345 
L 276.036054 121.124755 
L 271.600763 123.684578 
L 267.271385 126.419717 
L 263.054846 129.325798 
L 261.833812 130.21485 
L 262.317924 125.116798 
L 262.597781 120.003464 
L 262.672935 114.883029 
L 262.543266 109.763685 
L 262.208982 104.65362 
L 261.670618 99.561011 
L 260.929034 94.494005 
L 259.985417 89.460707 
L 258.841276 84.46917 
L 257.498442 79.527379 
L 255.959064 74.643239 
L 254.225603 69.824566 
L 252.300834 65.079066 
L 251.676428 63.648 
L 249.693932 68.369674 
L 247.901838 73.166851 
L 246.303013 78.031855 
L 244.900016 82.956903 
L 243.69509 87.934116 
L 242.690164 92.955533 
L 241.886844 98.013119 
L 241.286416 103.098784 
L 240.889842 108.204392 
L 240.697754 113.321775 
L 240.71046 118.442745 
L 240.926561 123.537023 
L 242.087666 118.549404 
L 243.048391 113.519344 
L 243.807199 108.454888 
L 244.362875 103.364139 
L 244.714531 98.255241 
L 244.861605 93.136367 
L 244.803861 88.015706 
L 244.541391 82.90145 
L 244.074615 77.801781 
L 243.40428 72.724858 
L 242.531459 67.678802 
L 241.683431 63.648 
L 240.648742 68.663368 
L 239.815442 73.716102 
L 239.184864 78.798116 
L 238.758017 83.901282 
L 238.535583 89.017436 
L 238.517919 94.138392 
L 238.705053 99.255958 
L 239.096685 104.361947 
L 239.692189 109.448191 
L 240.490613 114.506553 
L 241.490678 119.52894 
L 242.483497 123.706614 
L 244.837672 119.158828 
L 247.008101 114.520537 
L 248.991311 109.799162 
L 250.784131 105.002257 
L 252.383691 100.137495 
L 253.787434 95.212659 
L 254.993112 90.235628 
L 255.998799 85.214364 
L 256.802883 80.156899 
L 257.40408 75.071325 
L 257.801427 69.965777 
L 257.994289 64.848424 
L 258.009873 63.648 
L 258.056713 66.208193 
L 258.303926 71.323209 
L 258.755488 76.424247 
L 259.410675 81.503148 
L 260.26844 86.551785 
L 261.327411 91.562083 
L 262.585893 96.526025 
L 264.041873 101.435671 
L 265.693022 106.283166 
L 267.536699 111.060756 
L 269.569953 115.760796 
L 271.789533 120.375768 
L 274.191886 124.89829 
L 276.773171 129.321125 
L 279.529257 133.637198 
L 282.455735 137.839606 
L 285.547925 141.921623 
L 288.800877 145.876721 
L 292.20939 149.698572 
L 295.768009 153.381062 
L 299.471042 156.918299 
L 303.312565 160.304625 
L 307.286432 163.534622 
L 311.386286 166.603124 
L 315.605568 169.50522 
L 319.937527 172.236269 
L 324.375234 174.791901 
L 328.91159 177.168028 
L 333.539337 179.360849 
L 338.251071 181.366855 
L 343.039256 183.182837 
L 347.89623 184.80589 
L 352.814224 186.233418 
L 356.849474 187.247699 
L 353.271353 183.584155 
L 349.549591 180.066629 
L 345.690143 176.700747 
L 341.699182 173.491895 
L 337.583094 170.445204 
L 333.348463 167.565551 
L 329.002064 164.857541 
L 324.550851 162.325507 
L 320.001943 159.973499 
L 315.362619 157.80528 
L 310.6403 155.824319 
L 305.842541 154.033786 
L 300.977017 152.436543 
L 296.051513 151.035147 
L 291.073908 149.83184 
L 286.052165 148.828547 
L 280.994318 148.026872 
L 279.894144 147.879838 
L 281.54281 143.031498 
L 282.996275 138.121107 
L 284.252214 133.15652 
L 285.308619 128.145681 
L 286.163798 123.096605 
L 286.816384 118.017369 
L 287.265333 112.9161 
L 287.509926 107.800958 
L 287.549772 102.680127 
L 287.384808 97.561798 
L 287.015298 92.45416 
L 286.441831 87.365384 
L 285.665327 82.303612 
L 284.687027 77.27694 
L 283.508497 72.29341 
L 282.131621 67.360995 
L 280.952747 63.648 
L 279.426448 68.536242 
L 278.096847 73.48161 
L 276.966072 78.476192 
L 276.035931 83.511998 
L 275.307913 88.580971 
L 274.783182 93.675003 
L 274.462577 98.785944 
L 274.346613 103.905617 
L 274.435473 109.025832 
L 274.729016 114.138399 
L 275.226773 119.235137 
L 275.927946 124.307893 
L 276.831415 129.348553 
L 277.935734 134.349051 
L 279.239136 139.301388 
L 280.739536 144.197642 
L 282.434534 149.029979 
L 284.321418 153.790669 
L 286.397169 158.472096 
L 288.658468 163.06677 
L 291.101695 167.567342 
L 293.722943 171.96661 
L 296.518018 176.257537 
L 299.482449 180.433259 
L 302.611493 184.487095 
L 305.900144 188.41256 
L 309.343141 192.203374 
L 312.934976 195.853473 
L 316.669904 199.357017 
L 320.541948 202.708401 
L 324.544914 205.902264 
L 328.672399 208.933497 
L 332.9178 211.797249 
L 337.274324 214.48894 
L 340.165161 216.145777 
L 334.028071 212.694554 
L 329.450317 210.399197 
L 324.784434 208.288737 
L 320.037887 206.366551 
L 315.218271 204.635714 
L 310.333294 203.098995 
L 305.390773 201.758852 
L 300.398613 200.617429 
L 295.364802 199.676552 
L 290.297393 198.937727 
L 285.204492 198.402135 
L 281.601599 198.147081 
L 284.856124 202.100885 
L 288.266156 205.92138 
L 291.826239 209.602455 
L 295.530679 213.138219 
L 299.373548 216.523017 
L 303.348699 219.751434 
L 307.449772 222.818305 
L 311.670208 225.718724 
L 316.003253 228.44805 
L 320.441976 231.001917 
L 324.979276 233.37624 
L 329.087836 235.332267 
L 324.86314 232.438058 
L 320.526086 229.715106 
L 316.083612 227.167769 
L 311.542826 224.80012 
L 306.910991 222.615948 
L 302.195517 220.618748 
L 297.403949 218.811714 
L 292.543951 217.197736 
L 287.623298 215.779398 
L 282.649864 214.558968 
L 277.631603 213.538399 
L 272.576545 212.719322 
L 270.577224 212.452327 
L 270.822921 217.567416 
L 271.27297 222.668588 
L 271.926652 227.747682 
L 272.78292 232.796574 
L 273.840405 237.807185 
L 275.097416 242.771501 
L 276.55194 247.681578 
L 278.201652 252.529562 
L 280.043912 257.307698 
L 282.075773 262.008341 
L 284.293984 266.623971 
L 286.694997 271.147204 
L 289.27497 275.570805 
L 292.029776 279.887695 
L 294.955009 284.09097 
L 295.924144 285.408 
L 298.902819 281.242427 
L 301.712532 276.961071 
L 304.34879 272.570781 
L 306.807374 268.07858 
L 309.084351 263.491656 
L 311.176079 258.817345 
L 313.079212 254.063127 
L 314.790704 249.236607 
L 316.307817 244.345506 
L 317.628126 239.397649 
L 318.749516 234.400952 
L 319.670195 229.363408 
L 320.38869 224.293076 
L 320.90385 219.198067 
L 321.214853 214.086533 
L 321.3212 208.966651 
L 321.222721 203.846612 
L 320.919574 198.734606 
L 320.412244 193.638812 
L 319.701542 188.567382 
L 318.788606 183.528428 
L 317.674895 178.530014 
L 316.362192 173.580134 
L 314.852597 168.686707 
L 313.148524 163.857562 
L 311.2527 159.100425 
L 309.168158 154.422906 
L 306.898232 149.832488 
L 304.446554 145.336514 
L 301.817047 140.942178 
L 299.013916 136.656509 
L 296.041646 132.486364 
L 292.904992 128.438413 
L 289.608973 124.519132 
L 286.15886 120.734793 
L 282.560174 117.091448 
L 278.818672 113.594927 
L 274.940339 110.250822 
L 270.93138 107.064485 
L 266.798208 104.041011 
L 262.547435 101.18524 
L 258.185862 98.501737 
L 253.720466 95.994798 
L 249.158392 93.668433 
L 244.506936 91.526362 
L 239.773542 89.572014 
L 234.965781 87.808514 
L 230.091344 86.238684 
L 225.158029 84.865035 
L 220.17373 83.689764 
L 215.146419 82.714753 
L 210.084139 81.941561 
L 204.994989 81.371424 
L 199.887111 81.005255 
L 194.768675 80.843639 
L 189.647871 80.886835 
L 184.53289 81.134775 
L 179.431916 81.587061 
L 174.353109 82.242969 
L 169.304593 83.101452 
L 164.294446 84.161134 
L 159.618676 85.341462 
L 161.02156 90.266543 
L 162.620272 95.131583 
L 164.412255 99.928801 
L 166.394643 104.650521 
L 168.564263 109.28919 
L 170.917645 113.837387 
L 173.451024 118.287836 
L 176.160347 122.633417 
L 179.04128 126.867177 
L 182.089213 130.982345 
L 185.299271 134.972335 
L 188.666319 138.830767 
L 192.18497 142.551466 
L 194.456513 144.802269 
L 189.845759 142.57394 
L 185.149584 140.531775 
L 180.375501 138.679039 
L 175.531146 137.018699 
L 170.624271 135.553408 
L 165.662724 134.285513 
L 160.654444 133.217041 
L 155.607443 132.349701 
L 150.529794 131.684881 
L 145.429621 131.223645 
L 140.315083 130.96673 
L 135.194363 130.914547 
L 133.288049 130.947445 
L 135.827664 135.394339 
L 138.543075 139.736118 
L 141.429939 143.965836 
L 144.483637 148.076727 
L 147.699285 152.062215 
L 151.071738 155.915923 
L 154.5956 159.631686 
L 158.265234 163.203561 
L 162.07477 166.625832 
L 166.018113 169.893024 
L 170.088954 172.999912 
L 174.280782 175.941524 
L 178.58689 178.713155 
L 183.000389 181.31037 
L 185.608807 182.736336 
L 182.155135 186.517427 
L 178.855428 190.433603 
L 175.714966 194.4786 
L 172.738772 198.645947 
L 169.931609 202.928975 
L 167.297967 207.320835 
L 164.842058 211.814499 
L 162.567813 216.402779 
L 160.478869 221.078334 
L 158.578569 225.833684 
L 156.869952 230.661223 
L 155.355751 235.553227 
L 154.03839 240.501869 
L 152.919976 245.499233 
L 152.004158 250.525807 
L 156.82627 252.24968 
L 161.713461 253.779341 
L 166.657914 255.112344 
L 171.651716 256.246554 
L 176.686881 257.180159 
L 181.755353 257.911664 
L 186.849022 258.439899 
L 191.959741 258.764019 
L 197.079333 258.883506 
L 202.199609 258.798167 
L 207.312376 258.508141 
L 212.409455 258.013891 
L 217.482693 257.316207 
L 222.523972 256.416206 
L 227.525229 255.315327 
L 232.478462 254.015332 
L 237.375746 252.5183 
L 242.209248 250.826627 
L 246.971235 248.943018 
L 251.654089 246.870487 
L 256.250318 244.61235 
L 260.752569 242.172219 
L 265.153639 239.553998 
L 269.446488 236.761875 
L 273.624248 233.800318 
L 277.680236 230.674063 
L 281.607962 227.388113 
L 285.401144 223.947724 
L 289.053712 220.358401 
L 292.559825 216.625885 
L 295.913871 212.756147 
L 299.110487 208.755378 
L 302.144558 204.629979 
L 305.01123 200.38655 
L 307.705917 196.031878 
L 310.224308 191.572931 
L 312.562375 187.016842 
L 314.716376 182.3709 
L 316.682866 177.642537 
L 318.458699 172.839317 
L 320.041034 167.968925 
L 321.427339 163.039152 
L 322.615398 158.057885 
L 323.603308 153.033093 
L 324.38949 147.972815 
L 324.972686 142.885145 
L 325.351963 137.778223 
L 325.526715 132.660219 
L 325.49666 127.539321 
L 325.261849 122.423721 
L 324.822656 117.321603 
L 324.179784 112.241128 
L 323.334262 107.190426 
L 322.197648 101.789577 
L 318.390437 98.36472 
L 314.449314 95.09485 
L 310.380583 91.985198 
L 306.190754 89.04074 
L 301.886529 86.266185 
L 297.474795 83.665973 
L 292.962609 81.244263 
L 288.35719 79.004929 
L 283.665905 76.951555 
L 278.896259 75.087424 
L 274.055884 73.415519 
L 269.152522 71.938515 
L 264.194017 70.658775 
L 259.188303 69.578345 
L 254.143387 68.698955 
L 249.067341 68.022011 
L 243.968284 67.548597 
L 238.854374 67.279469 
L 233.733793 67.215058 
L 228.614732 67.355467 
L 223.50538 67.700472 
L 218.413912 68.24952 
L 213.348473 69.001734 
L 208.317166 69.955909 
L 203.32804 71.11052 
L 198.389077 72.463719 
L 193.508178 74.013342 
L 188.693152 75.756909 
L 183.951702 77.69163 
L 179.291412 79.814412 
L 174.719739 82.121858 
L 170.243996 84.610276 
L 165.871343 87.275686 
L 161.608775 90.113823 
L 157.463113 93.120147 
L 153.167729 96.51483 
L 152.419741 101.580895 
L 151.874941 106.672819 
L 151.534198 111.782457 
L 151.398059 116.901633 
L 151.466742 122.022159 
L 151.740136 127.135842 
L 152.217804 132.234502 
L 152.898982 137.309983 
L 153.78258 142.354163 
L 154.867184 147.358974 
L 156.151061 152.316409 
L 157.632155 157.218538 
L 159.308097 162.057517 
L 161.176206 166.825606 
L 163.233493 171.515176 
L 165.476668 176.118726 
L 167.902141 180.62889 
L 170.506032 185.038454 
L 173.284176 189.340362 
L 176.232129 193.527733 
L 179.345173 197.593869 
L 182.61833 201.532263 
L 186.046362 205.336615 
L 189.623786 209.00084 
L 193.344878 212.519075 
L 197.203685 215.885692 
L 201.194034 219.095304 
L 205.309542 222.142778 
L 209.543624 225.023238 
L 213.889508 227.732076 
L 218.340239 230.264957 
L 222.888699 232.617831 
L 227.52761 234.786934 
L 232.249552 236.768794 
L 237.046969 238.560241 
L 241.912189 240.15841 
L 246.837426 241.560744 
L 251.814802 242.764999 
L 256.836354 243.769249 
L 261.894048 244.571887 
L 266.979794 245.171629 
L 272.085455 245.567516 
L 277.202864 245.758914 
L 282.323833 245.745517 
L 287.44017 245.527347 
L 292.54369 245.104753 
L 297.626228 244.47841 
L 302.679654 243.649321 
L 307.695883 242.618812 
L 312.66689 241.388532 
L 317.584723 239.960448 
L 322.441514 238.336846 
L 327.229493 236.520323 
L 328.76551 235.890552 
L 328.010284 230.825561 
L 327.053118 225.794822 
L 325.89554 220.806384 
L 324.539405 215.868226 
L 322.986881 210.98825 
L 321.240451 206.174261 
L 319.30291 201.433962 
L 317.177358 196.774935 
L 314.867194 192.204635 
L 312.376115 187.730372 
L 309.708106 183.359305 
L 306.867435 179.098426 
L 303.858647 174.954552 
L 300.686554 170.934311 
L 297.356232 167.044137 
L 293.873009 163.290252 
L 290.242456 159.678661 
L 286.470382 156.215142 
L 282.598086 152.933927 
L 282.583405 147.812961 
L 282.363952 142.696679 
L 281.940077 137.593265 
L 281.31246 132.510884 
L 280.482103 127.457667 
L 279.450336 122.441696 
L 278.218809 117.470998 
L 276.789492 112.553523 
L 275.164671 107.69714 
L 273.346947 102.909617 
L 271.339227 98.198612 
L 269.144723 93.571663 
L 266.766946 89.036173 
L 264.209699 84.599395 
L 261.477075 80.26843 
L 258.573443 76.050204 
L 255.50345 71.951467 
L 252.272008 67.978776 
L 248.884284 64.138485 
L 248.43148 63.648 
L 245.02378 67.470576 
L 241.771668 71.426365 
L 238.680347 75.50904 
L 235.754762 79.71207 
L 232.999594 84.028729 
L 230.41925 88.452113 
L 228.017858 92.975145 
L 225.79926 97.590589 
L 223.767005 102.291062 
L 221.924344 107.069043 
L 220.274226 111.916889 
L 218.81929 116.826845 
L 217.561863 121.791054 
L 216.414945 127.274083 
L 212.117099 124.489659 
L 207.711343 121.879329 
L 203.204726 119.447271 
L 198.604458 117.197376 
L 193.917897 115.133241 
L 189.152542 113.25817 
L 184.316015 111.575162 
L 179.416056 110.08691 
L 174.460501 108.795794 
L 169.457279 107.703881 
L 164.414395 106.812916 
L 159.339915 106.124326 
L 154.241958 105.639212 
L 149.128679 105.358349 
L 148.080551 105.32608 
L 150.845213 109.636666 
L 153.780041 113.833246 
L 156.880339 117.909108 
L 160.141149 121.857731 
L 163.557253 125.672798 
L 167.123186 129.348205 
L 170.833245 132.878074 
L 174.681492 136.256755 
L 178.661773 139.478846 
L 182.767719 142.53919 
L 186.992762 145.432893 
L 191.330143 148.155324 
L 192.016176 148.564128 
L 188.671747 146.675494 
L 184.127253 144.314969 
L 179.491999 142.138063 
L 174.773399 140.148259 
L 169.979003 138.34874 
L 165.116481 136.742385 
L 160.19361 135.331765 
L 155.218268 134.119135 
L 150.198413 133.106436 
L 145.142077 132.295287 
L 140.057347 131.686987 
L 134.95236 131.282508 
L 133.148811 131.188613 
L 135.991797 135.447948 
L 139.002837 139.590186 
L 142.177115 143.608702 
L 145.50955 147.497066 
L 148.994814 151.249057 
L 152.627329 154.858674 
L 156.401284 158.320142 
L 160.310643 161.627924 
L 164.34915 164.776726 
L 168.510346 167.761513 
L 172.787573 170.577509 
L 177.173988 173.220209 
L 181.662575 175.685385 
L 185.026397 177.383611 
L 180.755217 180.20877 
L 176.60043 183.202471 
L 172.568682 186.359924 
L 168.666424 189.676079 
L 164.899897 193.14563 
L 161.275129 196.763026 
L 157.797918 200.522481 
L 154.473825 204.41798 
L 151.308171 208.443292 
L 148.306018 212.591976 
L 145.472169 216.857395 
L 142.811159 221.232727 
L 140.327243 225.71097 
L 139.077602 228.136354 
L 144.194795 228.333428 
L 149.315775 228.325711 
L 154.432351 228.113216 
L 159.536337 227.696282 
L 164.619567 227.075576 
L 169.673909 226.252093 
L 174.691278 225.227148 
L 179.663646 224.002382 
L 184.58306 222.579753 
L 189.441649 220.961539 
L 194.23164 219.150327 
L 198.94537 217.149016 
L 203.575299 214.960806 
L 204.279148 214.608059 
L 203.157824 219.604772 
L 202.237212 224.642328 
L 201.518784 229.71267 
L 201.003691 234.807685 
L 200.692757 239.919223 
L 200.586478 245.039107 
L 200.685024 250.159145 
L 200.988239 255.271147 
L 201.495637 260.366934 
L 202.206406 265.438355 
L 203.11941 270.477296 
L 204.233186 275.475696 
L 205.545955 280.425558 
L 207.085082 285.408 
L 208.598327 280.515701 
L 209.914721 275.566801 
L 211.032159 270.569218 
L 211.948853 265.530947 
L 212.663337 260.460048 
L 213.174467 255.364634 
L 213.481426 250.252856 
L 213.583723 245.132891 
L 213.481195 240.012931 
L 213.174004 234.901167 
L 212.662643 229.805775 
L 211.94793 224.734909 
L 211.031008 219.696679 
L 210.904604 219.080944 
L 206.101986 220.858403 
L 201.374288 222.826494 
L 196.729075 224.982068 
L 192.173778 227.321676 
L 187.715684 229.841577 
L 183.361925 232.537737 
L 179.119466 235.405846 
L 174.995095 238.441313 
L 170.995408 241.639283 
L 167.126806 244.99464 
L 163.395477 248.502015 
L 159.80739 252.155799 
L 156.368286 255.950145 
L 155.629939 256.805842 
L 160.64484 255.768891 
L 165.614263 254.532228 
L 170.530257 253.097829 
L 175.384959 251.46799 
L 180.170601 249.645319 
L 184.879528 247.632731 
L 189.504206 245.433447 
L 194.037237 243.050983 
L 198.471369 240.489153 
L 202.799508 237.752053 
L 207.014731 234.844064 
L 211.110293 231.769836 
L 215.079642 228.534289 
L 218.91643 225.142599 
L 220.792276 223.381177 
L 221.896126 228.381779 
L 223.199063 233.334239 
L 224.699003 238.230633 
L 226.393548 243.06313 
L 228.279985 247.823997 
L 230.355297 252.505619 
L 232.616164 257.100505 
L 235.058969 261.601306 
L 237.679804 266.00082 
L 240.474477 270.292009 
L 243.438516 274.468009 
L 246.567179 278.522139 
L 249.855462 282.447913 
L 252.519523 285.408 
L 255.928309 281.586393 
L 259.181544 277.631527 
L 262.274025 273.54973 
L 265.200803 269.347532 
L 267.957198 265.031655 
L 270.538798 260.609005 
L 272.941475 256.086655 
L 275.161384 251.471841 
L 277.194974 246.771946 
L 279.038992 241.994489 
L 280.690487 237.147112 
L 282.146818 232.23757 
L 283.405655 227.273717 
L 284.464984 222.263495 
L 285.32311 217.214919 
L 285.97866 212.136065 
L 286.430586 207.035059 
L 286.678164 201.920061 
L 286.720999 196.799253 
L 286.559023 191.680829 
L 286.192493 186.572977 
L 286.118584 185.794756 
L 288.669156 181.354138 
L 291.040111 176.815077 
L 293.227655 172.184834 
L 295.228289 167.470816 
L 297.038813 162.680565 
L 298.656329 157.821744 
L 300.078251 152.902126 
L 301.302302 147.929581 
L 302.326526 142.912065 
L 303.149284 137.857605 
L 303.769259 132.774286 
L 304.185459 127.67024 
L 304.397219 122.553634 
L 304.4042 117.432653 
L 304.206391 112.315488 
L 303.804108 107.210327 
L 303.197995 102.125336 
L 302.389021 97.068651 
L 301.378481 92.048361 
L 300.167991 87.072498 
L 298.759488 82.149021 
L 297.155225 77.285808 
L 295.357769 72.490639 
L 293.369995 67.771184 
L 291.446958 63.648 
L 289.292763 68.293852 
L 287.326075 73.022133 
L 285.55004 77.825278 
L 283.967501 82.695604 
L 282.580989 87.625319 
L 281.392722 92.606536 
L 280.404602 97.631286 
L 279.618207 102.691532 
L 279.034798 107.779177 
L 278.655307 112.886083 
L 278.480342 118.00408 
L 278.510181 123.124979 
L 278.744778 128.240589 
L 279.183757 133.342726 
L 279.826417 138.423227 
L 280.671728 143.473965 
L 281.718338 148.486859 
L 282.964574 153.45389 
L 283.177519 154.226455 
L 285.911258 158.556717 
L 288.815974 162.774196 
L 291.887021 166.872143 
L 295.119486 170.844003 
L 298.508197 174.683423 
L 302.047733 178.384258 
L 305.732432 181.94059 
L 309.556399 185.346728 
L 313.513517 188.597224 
L 317.597454 191.686878 
L 321.801678 194.610746 
L 326.119462 197.364151 
L 330.5439 199.942688 
L 335.067912 202.342233 
L 339.684262 204.558946 
L 344.385564 206.589281 
L 345.437697 207.013477 
L 341.355965 203.92091 
L 337.153829 200.994043 
L 332.83801 198.237558 
L 328.415413 195.655864 
L 323.893114 193.253093 
L 319.278347 191.033087 
L 314.578495 188.999398 
L 309.801076 187.15528 
L 304.953734 185.503682 
L 300.044222 184.047248 
L 295.080396 182.788307 
L 290.070197 181.728873 
L 286.940432 181.172369 
L 288.215384 181.289553 
L 293.324999 181.63064 
L 298.444166 181.767124 
L 303.564697 181.698788 
L 308.678398 181.425739 
L 313.777091 180.948415 
L 318.852617 180.267579 
L 323.896857 179.384322 
L 328.901741 178.300054 
L 333.859263 177.016513 
L 338.761491 175.53575 
L 343.600584 173.860134 
L 348.368798 171.992347 
L 353.058508 169.935376 
L 357.662209 167.692512 
L 359.647072 166.653883 
L 358.563232 167.335445 
L 354.297641 170.169035 
L 350.148775 173.170937 
L 346.123272 176.336348 
L 342.227572 179.660205 
L 338.467906 183.137189 
L 334.85029 186.761738 
L 331.380512 190.528054 
L 328.064121 194.430111 
L 324.906423 198.461668 
L 321.912471 202.616274 
L 319.087053 206.887283 
L 316.434691 211.267862 
L 313.959626 215.751004 
L 311.665819 220.329535 
L 309.556939 224.996132 
L 307.63636 229.743329 
L 305.907155 234.563531 
L 304.372089 239.449028 
L 303.033619 244.392003 
L 301.893886 249.384548 
L 300.954714 254.418677 
L 300.217604 259.486337 
L 299.683736 264.579419 
L 299.353964 269.689776 
L 299.228815 274.809233 
L 299.30849 279.9296 
L 299.621043 285.408 
L 299.920046 280.29575 
L 300.014375 275.175633 
L 299.903877 270.055838 
L 299.588731 264.944558 
L 299.06944 259.849969 
L 298.346836 254.780221 
L 297.422074 249.743425 
L 296.296633 244.747638 
L 294.972314 239.800853 
L 293.451236 234.910984 
L 291.735832 230.085852 
L 289.828846 225.333179 
L 287.73333 220.660566 
L 285.452635 216.075489 
L 282.99041 211.585283 
L 280.350594 207.197131 
L 278.159937 203.833377 
L 283.156865 204.953741 
L 288.194598 205.873385 
L 293.265078 206.590838 
L 298.360192 207.104951 
L 303.47179 207.414903 
L 308.591694 207.520198 
L 313.711713 207.420667 
L 318.823656 207.11647 
L 323.919346 206.608092 
L 328.99063 205.896348 
L 334.029395 204.982376 
L 339.027581 203.867639 
L 343.977192 202.553919 
L 348.887937 201.037485 
L 347.750322 196.044456 
L 346.413949 191.100914 
L 344.880956 186.214767 
L 343.153795 181.393832 
L 341.23523 176.645821 
L 339.12833 171.978329 
L 336.836465 167.398825 
L 334.363303 162.914635 
L 331.712798 158.532931 
L 328.889192 154.260724 
L 325.897003 150.104848 
L 322.741016 146.071953 
L 319.42628 142.168489 
L 315.958099 138.400701 
L 312.342021 134.774618 
L 308.583831 131.296039 
L 304.689541 127.970531 
L 300.665381 124.803413 
L 296.517789 121.799751 
L 292.2534 118.964352 
L 287.879036 116.30175 
L 283.401696 113.816207 
L 278.828542 111.511697 
L 274.16689 109.391908 
L 269.424198 107.460232 
L 264.608054 105.719757 
L 259.726161 104.173269 
L 254.78633 102.823241 
L 249.796464 101.671835 
L 244.764545 100.72089 
L 239.698624 99.971929 
L 234.606804 99.42615 
L 229.497232 99.084426 
L 224.378082 98.947304 
L 219.257543 99.015003 
L 214.143807 99.287415 
L 209.045056 99.764104 
L 203.969445 100.444307 
L 198.925095 101.326936 
L 193.920075 102.41058 
L 188.962394 103.693504 
L 184.059981 105.173656 
L 179.22068 106.848669 
L 174.452232 108.715862 
L 169.762267 110.772249 
L 165.158286 113.014539 
L 160.647656 115.439146 
L 156.237593 118.04219 
L 151.935151 120.819508 
L 147.747213 123.766657 
L 143.68048 126.87892 
L 139.741458 130.15132 
L 135.936447 133.578621 
L 132.271535 137.155341 
L 128.752586 140.875757 
L 125.201758 144.953313 
L 123.533352 149.794896 
L 122.059893 154.699325 
L 120.783737 159.658753 
L 119.706926 164.665247 
L 118.831183 169.710797 
L 118.157909 174.787332 
L 117.68818 179.886729 
L 117.422749 185.000832 
L 117.366028 190.530805 
L 121.822935 193.052805 
L 126.377129 195.39456 
L 131.021326 197.552322 
L 135.748095 199.522639 
L 140.549876 201.302361 
L 145.418985 202.888638 
L 150.347634 204.278935 
L 155.327937 205.471026 
L 160.351928 206.463004 
L 165.411568 207.253283 
L 170.498764 207.840598 
L 175.605377 208.22401 
L 180.723238 208.402905 
L 185.844159 208.376997 
L 190.959947 208.146328 
L 196.062419 207.711266 
L 197.05892 207.602241 
L 195.74485 212.551758 
L 194.629759 217.549865 
L 193.715431 222.588566 
L 193.003329 227.6598 
L 192.494591 232.755454 
L 192.190033 237.867376 
L 192.09014 242.987388 
L 192.195073 248.107299 
L 192.504664 253.218919 
L 193.018417 258.314069 
L 193.735512 263.3846 
L 194.654799 268.422398 
L 195.77481 273.419405 
L 197.093752 278.367626 
L 198.609515 283.259146 
L 199.344016 285.408 
L 200.946298 280.544134 
L 202.352795 275.620084 
L 203.561258 270.643728 
L 204.569753 265.623027 
L 205.376666 260.566012 
L 205.980708 255.480775 
L 206.380911 250.375451 
L 206.576635 245.258206 
L 206.567568 240.137228 
L 206.353724 235.020708 
L 205.935444 229.916833 
L 205.313398 224.833767 
L 204.488582 219.779642 
L 203.462314 214.762543 
L 203.229793 213.75046 
L 198.112107 213.566622 
L 192.991164 213.587584 
L 187.875155 213.813313 
L 182.772265 214.243446 
L 177.690657 214.877297 
L 172.638462 215.713851 
L 167.623761 216.75177 
L 162.654577 217.989393 
L 157.738859 219.424741 
L 152.884472 221.055516 
L 148.099182 222.879111 
L 143.390644 224.892608 
L 138.540531 227.20612 
L 139.607155 226.497918 
L 143.801242 223.559529 
L 147.87447 220.455771 
L 151.820323 217.19161 
L 155.632488 213.772268 
L 159.304867 210.203215 
L 162.831584 206.490161 
L 166.206997 202.639046 
L 169.425707 198.656031 
L 172.482564 194.547488 
L 175.372678 190.31999 
L 178.091426 185.980299 
L 180.634457 181.535359 
L 182.997704 176.99228 
L 184.975605 172.808252 
L 183.093524 168.045661 
L 181.022495 163.362143 
L 178.765833 158.76519 
L 176.327147 154.262156 
L 173.710337 149.860246 
L 170.919592 145.566502 
L 167.959375 141.387792 
L 164.834422 137.330801 
L 161.549732 133.402021 
L 158.110561 129.607736 
L 154.522409 125.954016 
L 150.791018 122.446706 
L 146.922356 119.091418 
L 142.922614 115.893518 
L 142.267645 115.39433 
L 147.024884 117.289897 
L 151.854121 118.993708 
L 156.747629 120.50304 
L 161.69758 121.815475 
L 166.696055 122.928916 
L 171.735057 123.84158 
L 176.806526 124.552008 
L 181.902348 125.059063 
L 187.01437 125.361934 
L 192.134415 125.460136 
L 197.254291 125.353512 
L 202.365808 125.042234 
L 207.460789 124.526798 
L 212.531082 123.808029 
L 217.568576 122.887078 
L 222.565213 121.765418 
L 227.512999 120.444842 
L 232.404018 118.927464 
L 237.230446 117.215712 
L 241.984561 115.312322 
L 246.658758 113.220342 
L 251.245559 110.943117 
L 255.737627 108.48429 
L 260.127775 105.847795 
L 264.408979 103.03785 
L 268.574391 100.05895 
L 272.617347 96.915861 
L 276.531379 93.613611 
L 280.310226 90.157483 
L 283.947841 86.553006 
L 287.438406 82.805946 
L 290.776337 78.922298 
L 293.956293 74.908275 
L 296.973188 70.770299 
L 299.822194 66.514989 
L 300.870959 64.850669 
L 295.756634 65.111778 
L 290.656841 65.577197 
L 285.579739 66.246181 
L 280.533451 67.11766 
L 275.526049 68.19024 
L 270.565544 69.462204 
L 265.659872 70.931518 
L 260.816881 72.595832 
L 256.044318 74.452482 
L 251.34982 76.498499 
L 246.740895 78.730608 
L 242.224917 81.145241 
L 237.809112 83.738532 
L 233.500542 86.506335 
L 229.306102 89.44422 
L 225.2325 92.547489 
L 221.286255 95.811175 
L 217.473679 99.230059 
L 213.800872 102.79867 
L 210.273708 106.5113 
L 206.897832 110.36201 
L 203.678643 114.344638 
L 200.621292 118.452813 
L 197.73067 122.679964 
L 195.011401 127.019328 
L 192.467835 131.463962 
L 190.104042 136.006757 
L 187.923803 140.640445 
L 185.930606 145.357612 
L 184.12764 150.150713 
L 182.517789 155.012079 
L 181.103628 159.933933 
L 179.88742 164.908402 
L 178.871111 169.927527 
L 178.056326 174.983279 
L 177.444369 180.06757 
L 177.036219 185.172265 
L 176.832529 190.289199 
L 176.833624 195.410185 
L 177.039504 200.527032 
L 177.449838 205.631552 
L 178.06397 210.71558 
L 178.880918 215.770983 
L 179.899375 220.789673 
L 181.117711 225.763621 
L 182.533977 230.68487 
L 184.145908 235.545547 
L 185.950925 240.337876 
L 187.94614 245.05419 
L 190.128361 249.686944 
L 192.494097 254.228727 
L 195.039564 258.672273 
L 197.76069 263.010473 
L 200.65312 267.236387 
L 203.712229 271.343254 
L 206.933121 275.324504 
L 210.310644 279.173769 
L 213.839396 282.884889 
L 216.407701 285.408 
L 220.039404 281.797566 
L 223.523823 278.044791 
L 226.855385 274.155677 
L 230.028758 270.136448 
L 233.038866 265.993533 
L 235.880895 261.733559 
L 238.550296 257.363342 
L 241.042801 252.889873 
L 243.35442 248.320309 
L 245.481457 243.66196 
L 247.420508 238.922278 
L 249.168471 234.108846 
L 250.72255 229.229364 
L 252.080259 224.291639 
L 252.374737 223.106619 
L 256.396021 226.277388 
L 260.540885 229.284812 
L 264.802699 232.124081 
L 269.174644 234.790651 
L 273.649726 237.280257 
L 278.220787 239.588916 
L 282.880513 241.712935 
L 287.62145 243.648915 
L 292.436013 245.39376 
L 297.3165 246.944678 
L 302.255104 248.299188 
L 307.243923 249.455124 
L 312.274976 250.410635 
L 317.340216 251.164193 
L 319.780137 251.453674 
L 316.672451 247.383442 
L 313.404485 243.44074 
L 309.981467 239.631876 
L 306.408873 235.962942 
L 302.692418 232.439809 
L 298.838049 229.068112 
L 294.851931 225.853246 
L 290.74044 222.800354 
L 286.510156 219.91432 
L 282.167845 217.19976 
L 277.720453 214.661018 
L 273.175097 212.302155 
L 271.572587 211.524602 
L 273.665605 216.198335 
L 275.943848 220.784631 
L 278.403672 225.276153 
L 281.041141 229.665715 
L 283.852036 233.946296 
L 286.83186 238.111047 
L 289.975846 242.153305 
L 293.278965 246.066604 
L 296.735932 249.844683 
L 300.341216 253.481498 
L 304.089051 256.971232 
L 307.973439 260.3083 
L 311.988168 263.487366 
L 312.576104 263.931425 
L 307.826528 262.016737 
L 303.004185 260.293512 
L 298.116788 258.764509 
L 293.172156 257.432172 
L 288.178201 256.298633 
L 283.14291 255.365706 
L 278.07434 254.634883 
L 272.9806 254.107334 
L 267.869837 253.783902 
L 262.750229 253.665104 
L 257.629965 253.751131 
L 252.517237 254.041846 
L 247.420224 254.536782 
L 242.347081 255.235149 
L 237.305923 256.135829 
L 232.304814 257.23738 
L 227.351756 258.538042 
L 222.454673 260.035733 
L 217.621399 261.728057 
L 212.859665 263.612306 
L 208.177091 265.685467 
L 203.581166 267.944223 
L 199.079243 270.38496 
L 194.678526 273.003773 
L 190.386052 275.796474 
L 186.208691 278.758594 
L 182.153124 281.885394 
L 177.955637 285.408 
L 174.03758 282.110527 
L 169.990792 278.972373 
L 167.305209 277.028004 
L 166.742492 271.938028 
L 165.97668 266.874627 
L 165.008999 261.8459 
L 163.840996 256.859892 
L 162.474541 251.924581 
L 160.911818 247.04786 
L 159.155329 242.237533 
L 157.207883 237.501294 
L 155.072596 232.846721 
L 152.752884 228.28126 
L 150.252457 223.812215 
L 147.575316 219.446734 
L 144.725744 215.191803 
L 141.7083 211.054227 
L 138.52781 207.040627 
L 135.189363 203.157423 
L 131.6983 199.410827 
L 128.060205 195.806834 
L 124.280899 192.351208 
L 120.366428 189.049479 
L 116.323054 185.906927 
L 113.525854 183.879429 
L 112.963137 178.789454 
L 112.197325 173.726052 
L 111.30038 169.031205 
L 116.134741 167.341985 
L 120.897683 165.460794 
L 125.581588 163.390641 
L 130.178963 161.134837 
L 134.682452 158.696992 
L 139.08485 156.081005 
L 143.379116 153.291062 
L 147.558379 150.331625 
L 151.615953 147.20743 
L 155.545347 143.923475 
L 159.340274 140.485012 
L 162.994665 136.897543 
L 166.502671 133.166807 
L 169.858682 129.298772 
L 173.057328 125.299627 
L 176.093493 121.175768 
L 178.962319 116.933795 
L 181.659216 112.580491 
L 184.17987 108.122823 
L 186.520249 103.567922 
L 188.676608 98.923073 
L 190.645498 94.195709 
L 192.423769 89.393392 
L 194.008576 84.523803 
L 195.397384 79.594735 
L 196.587971 74.614072 
L 197.578432 69.589782 
L 198.367182 64.529903 
L 198.483525 63.648 
L 199.237102 68.713237 
L 200.192632 73.744287 
L 201.348586 78.733102 
L 202.703114 83.6717 
L 204.25405 88.552181 
L 205.998913 93.366738 
L 207.934911 98.107668 
L 210.058947 102.767386 
L 212.367624 107.338438 
L 214.857246 111.813511 
L 217.523833 116.185446 
L 220.363117 120.447249 
L 223.589999 124.881299 
L 224.277056 119.806611 
L 224.760629 114.708508 
L 225.039946 109.595144 
L 225.11456 104.474702 
L 224.984351 99.355371 
L 224.649528 94.245342 
L 224.110625 89.15279 
L 223.368506 84.085862 
L 222.424358 79.052663 
L 221.27969 74.061247 
L 219.936335 69.119598 
L 218.396441 64.235621 
L 218.196574 63.648 
L 216.633022 68.524454 
L 215.265726 73.459533 
L 214.096875 78.445342 
L 213.128337 83.473904 
L 212.361664 88.537175 
L 211.79808 93.627055 
L 211.438488 98.7354 
L 211.283463 103.85404 
L 211.333253 108.974784 
L 211.587778 114.089441 
L 212.046632 119.189829 
L 212.709079 124.267788 
L 213.444089 128.628248 
L 209.935255 124.89829 
L 206.280069 121.311632 
L 202.484379 117.874011 
L 198.554256 114.590927 
L 194.495989 111.467632 
L 190.31607 108.509122 
L 186.021186 105.720132 
L 181.618207 103.105122 
L 177.114177 100.668275 
L 172.516303 98.413492 
L 167.831938 96.344377 
L 163.068579 94.464243 
L 158.233844 92.776095 
L 155.774632 91.999542 
L 159.585859 95.419929 
L 163.530817 98.685171 
L 167.603194 101.790046 
L 171.796476 104.729586 
L 176.103953 107.499087 
L 180.518736 110.09412 
L 185.03376 112.510534 
L 189.641804 114.744461 
L 194.335496 116.792329 
L 199.107326 118.650861 
L 203.94966 120.317085 
L 208.854752 121.788334 
L 213.814755 123.062254 
L 218.821733 124.136809 
L 223.380076 124.934922 
L 227.363061 121.716175 
L 231.214144 118.340725 
L 234.927165 114.813974 
L 238.496184 111.141562 
L 241.91549 107.329365 
L 245.179614 103.383481 
L 248.283334 99.310224 
L 251.221684 95.116109 
L 253.989965 90.807847 
L 256.583746 86.392329 
L 258.998879 81.876619 
L 261.2315 77.267941 
L 263.278037 72.57367 
L 265.135216 67.801313 
L 266.576194 63.648 
L 268.268438 68.481303 
L 270.152608 73.243067 
L 272.225691 77.925676 
L 274.484371 82.521639 
L 276.925033 87.023602 
L 279.543773 91.424363 
L 282.336402 95.716882 
L 285.298453 99.894293 
L 288.425186 103.949912 
L 291.711599 107.87725 
L 295.152435 111.670026 
L 298.74219 115.322171 
L 302.47512 118.827843 
L 306.345253 122.181434 
L 310.346399 125.377578 
L 314.472156 128.411162 
L 318.715923 131.277333 
L 323.070913 133.971506 
L 327.530157 136.489371 
L 332.086522 138.8269 
L 336.732718 140.980353 
L 341.461313 142.946285 
L 346.264742 144.721552 
L 347.162065 145.029216 
L 346.260403 150.070199 
L 345.561048 155.143207 
L 345.065118 160.240123 
L 344.773407 165.352794 
L 344.686382 170.473041 
L 344.804182 175.592672 
L 345.126618 180.703498 
L 345.653175 185.797341 
L 346.38301 190.866053 
L 347.314955 195.901525 
L 348.44752 200.895702 
L 348.605601 201.526506 
L 343.706597 203.0179 
L 338.871151 204.704009 
L 334.106999 206.582135 
L 329.421763 208.649275 
L 324.822938 210.90212 
L 320.317882 213.337068 
L 315.913801 215.950221 
L 311.617741 218.737401 
L 307.436575 221.694148 
L 303.376992 224.815732 
L 299.445486 228.097159 
L 295.648347 231.53318 
L 291.991649 235.118297 
L 288.481243 238.846775 
L 285.122744 242.71265 
L 281.921526 246.709737 
L 278.882709 250.831641 
L 276.011155 255.071768 
L 273.311457 259.423335 
L 270.787936 263.87938 
L 268.444627 268.432775 
L 266.28528 273.076236 
L 264.313349 277.802332 
L 262.531988 282.603505 
L 261.590986 285.408 
L 259.921023 280.566954 
L 258.058805 275.796561 
L 256.007312 271.104453 
L 253.769826 266.498136 
L 251.349927 261.984979 
L 248.751484 257.572202 
L 245.978656 253.266865 
L 243.035879 249.075855 
L 239.92786 245.005877 
L 236.659571 241.063443 
L 233.236241 237.254859 
L 229.663347 233.586217 
L 225.946604 230.063389 
L 222.091958 226.692008 
L 218.105577 223.477468 
L 215.061987 221.193552 
L 210.043404 220.17457 
L 204.988087 219.357093 
L 199.904123 218.742428 
L 194.799645 218.33156 
L 189.682821 218.125144 
L 184.561834 218.123513 
L 179.444879 218.326667 
L 174.340141 218.734283 
L 169.255787 219.345707 
L 164.199949 220.159963 
L 159.180718 221.175747 
L 154.206122 222.391434 
L 149.284119 223.805079 
L 144.422584 225.414421 
L 139.629295 227.216886 
L 138.75122 227.571045 
L 142.73277 224.350522 
L 146.582347 220.973355 
L 150.293795 217.444948 
L 153.861176 213.770945 
L 157.278782 209.957224 
L 160.541146 206.009886 
L 163.643049 201.935245 
L 166.579529 197.73982 
L 169.345888 193.430323 
L 171.9377 189.013649 
L 174.350819 184.496863 
L 176.581384 179.88719 
L 178.625828 175.192006 
L 180.480879 170.418822 
L 182.143569 165.575274 
L 183.61124 160.66911 
L 184.881542 155.708179 
L 185.952444 150.700418 
L 186.822232 145.653838 
L 187.489515 140.576512 
L 187.953225 135.476563 
L 188.212621 130.362151 
L 188.267287 125.241456 
L 188.117137 120.122672 
L 187.76241 115.013986 
L 187.203673 109.923572 
L 186.441822 104.859573 
L 185.478073 99.830091 
L 184.31397 94.843171 
L 182.951375 89.906792 
L 181.392467 85.028852 
L 179.63974 80.217152 
L 177.695999 75.479392 
L 175.564353 70.82315 
L 173.248211 66.255876 
L 171.979562 63.93178 
L 177.097659 63.759784 
L 179.573345 63.68988 
L 184.689605 63.909843 
L 189.810569 63.925035 
L 194.928044 63.735431 
L 196.963911 63.68988 
L 202.080172 63.909843 
L 207.201136 63.925035 
L 212.318611 63.735431 
L 214.354478 63.68988 
L 219.470738 63.909843 
L 224.591702 63.925035 
L 229.709177 63.735431 
L 231.745045 63.68988 
L 236.861305 63.909843 
L 241.982269 63.925035 
L 247.099744 63.735431 
L 249.135611 63.68988 
L 254.251872 63.909843 
L 259.372835 63.925035 
L 264.490311 63.735431 
L 266.526178 63.68988 
L 271.642438 63.909843 
L 276.763402 63.925035 
L 281.880877 63.735431 
L 283.916745 63.68988 
L 289.033005 63.909843 
L 294.153969 63.925035 
L 299.271444 63.735431 
L 300.194709 63.67937 
L 297.440508 67.996647 
L 294.861155 72.420609 
L 292.460777 76.944179 
L 290.243213 81.56012 
L 288.212011 86.261048 
L 286.370421 91.039442 
L 284.721389 95.887657 
L 283.267553 100.797938 
L 282.011238 105.76243 
L 280.954456 110.77319 
L 280.098895 115.822201 
L 279.445926 120.901387 
L 278.996592 126.002623 
L 278.751612 131.117746 
L 278.711379 136.238574 
L 278.875957 141.356915 
L 279.28681 146.907751 
L 283.763199 149.395007 
L 288.335472 151.701265 
L 292.996313 153.822836 
L 297.738266 155.756326 
L 302.553744 157.498642 
L 307.435045 159.046997 
L 312.37436 160.398913 
L 317.363785 161.552228 
L 322.39534 162.505096 
L 327.460975 163.255994 
L 332.552585 163.80372 
L 337.662026 164.147397 
L 342.781124 164.286477 
L 347.901688 164.220736 
L 353.015528 163.950279 
L 357.830451 163.507403 
L 354.879182 167.692438 
L 352.097631 171.992144 
L 349.490247 176.399643 
L 347.061202 180.907885 
L 344.814381 185.509656 
L 342.75338 190.197595 
L 340.881494 194.964203 
L 339.201719 199.801853 
L 337.716743 204.702806 
L 336.42894 209.659223 
L 335.34037 214.663173 
L 334.452777 219.706652 
L 333.767578 224.781591 
L 333.461464 227.756922 
L 329.337006 230.792272 
L 325.337229 233.990129 
L 321.468532 237.345376 
L 317.737103 240.852646 
L 314.148913 244.506328 
L 310.709701 248.300577 
L 307.42497 252.229322 
L 304.299974 256.286279 
L 301.339712 260.464958 
L 298.548921 264.758673 
L 295.932065 269.160555 
L 293.493331 273.663562 
L 291.23662 278.260491 
L 289.165542 282.943988 
L 288.164291 285.408 
L 286.190947 280.682493 
L 284.030211 276.039679 
L 281.68554 271.486986 
L 279.160685 267.031695 
L 276.459686 262.680936 
L 273.586864 258.441668 
L 270.546814 254.320673 
L 267.3444 250.324544 
L 263.984745 246.459674 
L 260.473224 242.732246 
L 256.815454 239.148223 
L 253.017287 235.713339 
L 249.0848 232.433088 
L 245.024283 229.312718 
L 240.842233 226.357222 
L 239.73568 225.6163 
L 235.969799 229.086551 
L 232.345704 232.704622 
L 228.869191 236.464723 
L 225.545824 240.360841 
L 222.380918 244.386741 
L 219.379536 248.535983 
L 216.546481 252.80193 
L 213.886285 257.177756 
L 211.403202 261.656462 
L 209.101207 266.230882 
L 206.98398 270.893698 
L 205.054911 275.637451 
L 203.317083 280.454551 
L 201.752491 285.408 
L 200.211497 280.52437 
L 198.476443 275.70627 
L 196.550104 270.961408 
L 194.435562 266.297373 
L 192.1362 261.721629 
L 189.655696 257.241495 
L 186.998019 252.864138 
L 184.16742 248.596561 
L 181.168428 244.445592 
L 178.00584 240.417871 
L 174.684715 236.519841 
L 171.210368 232.757739 
L 167.588356 229.137583 
L 163.824473 225.665164 
L 159.924742 222.346039 
L 155.8954 219.185515 
L 151.742894 216.188651 
L 147.473867 213.36024 
L 143.095149 210.704807 
L 138.613744 208.226599 
L 134.036821 205.929583 
L 129.371704 203.817432 
L 124.625855 201.893525 
L 123.731002 201.555263 
L 124.475652 196.488706 
L 125.017098 191.396424 
L 125.354474 186.286563 
L 125.48724 181.167298 
L 125.415184 176.046818 
L 125.138422 170.933316 
L 124.657394 165.834972 
L 123.972873 160.759942 
L 123.085952 155.716345 
L 121.962554 150.563778 
L 126.842036 149.009697 
L 131.655467 147.261733 
L 136.395148 145.322681 
L 141.053497 143.195643 
L 145.62306 140.884022 
L 150.096529 138.391517 
L 154.466745 135.722114 
L 158.726718 132.880085 
L 162.869633 129.869975 
L 166.888861 126.696601 
L 170.777973 123.365038 
L 174.530748 119.880618 
L 178.141181 116.248914 
L 181.603497 112.475736 
L 184.912156 108.56712 
L 188.061866 104.52932 
L 191.047587 100.368795 
L 193.864544 96.092201 
L 196.508229 91.706379 
L 198.974413 87.218347 
L 201.259151 82.635283 
L 203.358789 77.96452 
L 205.269965 73.21353 
L 206.989625 68.389914 
L 208.47237 63.648 
L 210.00359 68.534703 
L 211.729 73.356265 
L 213.645841 78.104973 
L 215.751047 82.773228 
L 218.041249 87.353564 
L 220.512784 91.838652 
L 223.161698 96.221318 
L 225.983753 100.49455 
L 228.974434 104.651511 
L 232.128956 108.685552 
L 235.442275 112.590219 
L 238.909088 116.359266 
L 242.523849 119.986661 
L 246.280776 123.466604 
L 247.575624 124.603223 
L 252.49133 123.167835 
L 257.345704 121.537019 
L 262.130979 119.713385 
L 266.839501 117.69985 
L 271.463736 115.499634 
L 275.996288 113.116259 
L 280.429904 110.553536 
L 284.757492 107.815566 
L 288.972129 104.906728 
L 293.067073 101.831677 
L 297.035771 98.595331 
L 300.871876 95.202868 
L 304.56925 91.659716 
L 308.121978 87.971542 
L 311.813745 83.80413 
L 306.794439 84.819546 
L 301.819754 86.034868 
L 296.897648 87.448153 
L 292.035995 89.057139 
L 287.242573 90.859252 
L 282.525052 92.85161 
L 277.890976 95.031024 
L 273.347761 97.394009 
L 268.902674 99.936784 
L 264.562826 102.65528 
L 260.335161 105.54515 
L 256.226441 108.60177 
L 252.24324 111.82025 
L 248.391931 115.195441 
L 244.678673 118.721943 
L 241.109408 122.394116 
L 240.118096 123.467905 
L 237.205277 119.256018 
L 234.126358 115.163982 
L 230.886264 111.198343 
L 227.490178 107.365446 
L 223.943533 103.671421 
L 220.252004 100.12218 
L 216.421496 96.723399 
L 212.458137 93.480517 
L 208.368268 90.39872 
L 204.158431 87.48294 
L 199.835362 84.73784 
L 195.405975 82.167813 
L 190.877358 79.77697 
L 186.256756 77.569136 
L 181.551559 75.547843 
L 176.769296 73.716324 
L 171.917617 72.077509 
L 167.957878 70.89754 
L 171.691834 74.402119 
L 175.562949 77.754577 
L 179.56503 80.949549 
L 183.691674 83.981926 
L 187.936281 86.846855 
L 192.292058 89.539754 
L 196.752039 92.056314 
L 201.309088 94.392509 
L 205.955914 96.544602 
L 210.685085 98.50915 
L 215.489033 100.283011 
L 220.360074 101.863346 
L 225.290416 103.247627 
L 230.27217 104.433639 
L 235.297367 105.419486 
L 240.357968 106.203591 
L 245.445877 106.784697 
L 250.552955 107.161877 
L 255.67103 107.334527 
L 260.791915 107.30237 
L 265.907419 107.065458 
L 271.009356 106.62417 
L 276.089566 105.979212 
L 281.13992 105.131615 
L 286.152341 104.082737 
L 291.118807 102.834254 
L 296.031375 101.388163 
L 300.882186 99.74678 
L 305.663478 97.912728 
L 310.367603 95.888943 
L 314.987036 93.678662 
L 316.936278 92.676618 
L 316.936278 92.676618 
" style="fill:none;stroke:#1f77b4;stroke-linecap:square;stroke-width:1.5;"/>
   </g>
   <g id="patch_4">
    <path d="M 82.520165 307.584 
L 82.520165 41.472 
" style="fill:none;stroke:#000000;stroke-linecap:square;stroke-linejoin:miter;stroke-width:0.8;"/>
   </g>
   <g id="patch_5">
    <path d="M 389.799835 307.584 
L 389.799835 41.472 
" style="fill:none;stroke:#000000;stroke-linecap:square;stroke-linejoin:miter;stroke-width:0.8;"/>
   </g>
   <g id="patch_6">
    <path d="M 82.520165 307.584 
L 389.799835 307.584 
" style="fill:none;stroke:#000000;stroke-linecap:square;stroke-linejoin:miter;stroke-width:0.8;"/>
   </g>
   <g id="patch_7">
    <path d="M 82.520165 41.472 
L 389.799835 41.472 
" style="fill:none;stroke:#000000;stroke-linecap:square;stroke-linejoin:miter;stroke-width:0.8;"/>
   </g>
  </g>
 </g>
 <defs>
  <clipPath id="p40c1061506">
   <rect height="266.112" width="307.27967" x="82.520165" y="41.472"/>
  </clipPath>
 </defs>
</svg>
