<?xml version="1.0" encoding="utf-8" standalone="no"?>
<!DOCTYPE svg PUBLIC "-//W3C//DTD SVG 1.1//EN"
  "http://www.w3.org/Graphics/SVG/1.1/DTD/svg11.dtd">
<!-- Created with matplotlib (http://matplotlib.org/) -->
<svg height="345.6pt" version="1.1" viewBox="0 0 460.8 345.6" width="460.8pt" xmlns="http://www.w3.org/2000/svg" xmlns:xlink="http://www.w3.org/1999/xlink">
 <defs>
  <style type="text/css">
*{stroke-linecap:butt;stroke-linejoin:round;}
  </style>
 </defs>
 <g id="figure_1">
  <g id="patch_1">
   <path d="M 0 345.6 
L 460.8 345.6 
L 460.8 0 
L 0 0 
z
" style="fill:#ffffff;"/>
  </g>
  <g id="axes_1">
   <g id="patch_2">
    <path d="M 82.520165 307.584 
L 389.799835 307.584 
L 389.799835 41.472 
L 82.520165 41.472 
z
" style="fill:#ffffff;"/>
   </g>
   <g id="PathCollection_1">
    <defs>
     <path d="M 0 2.738613 
C 0.726289 2.738613 1.422928 2.450055 1.936492 1.936492 
C 2.450055 1.422928 2.738613 0.726289 2.738613 0 
C 2.738613 -0.726289 2.450055 -1.422928 1.936492 -1.936492 
C 1.422928 -2.450055 0.726289 -2.738613 0 -2.738613 
C -0.726289 -2.738613 -1.422928 -2.450055 -1.936492 -1.936492 
C -2.450055 -1.422928 -2.738613 -0.726289 -2.738613 0 
C -2.738613 0.726289 -2.450055 1.422928 -1.936492 1.936492 
C -1.422928 2.450055 -0.726289 2.738613 0 2.738613 
z
" id="mdb9aa8aa43" style="stroke:#000000;"/>
    </defs>
    <g clip-path="url(#p821b5a8bbe)">
     <use style="stroke:#000000;" x="129.656038" xlink:href="#mdb9aa8aa43" y="211.817727"/>
    </g>
   </g>
   <g id="Quiver_1">
    <path clip-path="url(#p821b5a8bbe)" d="M 128.935905 211.550262 
L 135.087603 194.98719 
L 133.379871 195.172393 
L 138.214923 188.773453 
L 137.700672 196.777184 
L 136.52787 195.52212 
L 130.376172 212.085192 
L 128.935905 211.550262 
"/>
   </g>
   <g id="patch_3">
    <path clip-path="url(#p821b5a8bbe)" d="M 236.16 225.741278 
C 249.74192 225.741278 262.769389 220.345124 272.373256 210.741256 
C 281.977124 201.137389 287.373278 188.10992 287.373278 174.528 
C 287.373278 160.94608 281.977124 147.918611 272.373256 138.314744 
C 262.769389 128.710876 249.74192 123.314722 236.16 123.314722 
C 222.57808 123.314722 209.550611 128.710876 199.946744 138.314744 
C 190.342876 147.918611 184.946722 160.94608 184.946722 174.528 
C 184.946722 188.10992 190.342876 201.137389 199.946744 210.741256 
C 209.550611 220.345124 222.57808 225.741278 236.16 225.741278 
z
" style="fill:#009900;fill-opacity:0.5;stroke:#009900;stroke-linejoin:miter;stroke-width:2;"/>
   </g>
   <g id="matplotlib.axis_1">
    <g id="xtick_1">
     <g id="line2d_1">
      <defs>
       <path d="M 0 0 
L 0 3.5 
" id="mce135ea840" style="stroke:#000000;stroke-width:0.8;"/>
      </defs>
      <g>
       <use style="stroke:#000000;stroke-width:0.8;" x="108.126804" xlink:href="#mce135ea840" y="307.584"/>
      </g>
     </g>
     <g id="text_1">
      <!-- −2 -->
      <defs>
       <path d="M 10.59375 35.5 
L 73.1875 35.5 
L 73.1875 27.203125 
L 10.59375 27.203125 
z
" id="DejaVuSans-2212"/>
       <path d="M 19.1875 8.296875 
L 53.609375 8.296875 
L 53.609375 0 
L 7.328125 0 
L 7.328125 8.296875 
Q 12.9375 14.109375 22.625 23.890625 
Q 32.328125 33.6875 34.8125 36.53125 
Q 39.546875 41.84375 41.421875 45.53125 
Q 43.3125 49.21875 43.3125 52.78125 
Q 43.3125 58.59375 39.234375 62.25 
Q 35.15625 65.921875 28.609375 65.921875 
Q 23.96875 65.921875 18.8125 64.3125 
Q 13.671875 62.703125 7.8125 59.421875 
L 7.8125 69.390625 
Q 13.765625 71.78125 18.9375 73 
Q 24.125 74.21875 28.421875 74.21875 
Q 39.75 74.21875 46.484375 68.546875 
Q 53.21875 62.890625 53.21875 53.421875 
Q 53.21875 48.921875 51.53125 44.890625 
Q 49.859375 40.875 45.40625 35.40625 
Q 44.1875 33.984375 37.640625 27.21875 
Q 31.109375 20.453125 19.1875 8.296875 
z
" id="DejaVuSans-32"/>
      </defs>
      <g transform="translate(100.755711 322.182437)scale(0.1 -0.1)">
       <use xlink:href="#DejaVuSans-2212"/>
       <use x="83.789062" xlink:href="#DejaVuSans-32"/>
      </g>
     </g>
    </g>
    <g id="xtick_2">
     <g id="line2d_2">
      <g>
       <use style="stroke:#000000;stroke-width:0.8;" x="172.143402" xlink:href="#mce135ea840" y="307.584"/>
      </g>
     </g>
     <g id="text_2">
      <!-- −1 -->
      <defs>
       <path d="M 12.40625 8.296875 
L 28.515625 8.296875 
L 28.515625 63.921875 
L 10.984375 60.40625 
L 10.984375 69.390625 
L 28.421875 72.90625 
L 38.28125 72.90625 
L 38.28125 8.296875 
L 54.390625 8.296875 
L 54.390625 0 
L 12.40625 0 
z
" id="DejaVuSans-31"/>
      </defs>
      <g transform="translate(164.772308 322.182437)scale(0.1 -0.1)">
       <use xlink:href="#DejaVuSans-2212"/>
       <use x="83.789062" xlink:href="#DejaVuSans-31"/>
      </g>
     </g>
    </g>
    <g id="xtick_3">
     <g id="line2d_3">
      <g>
       <use style="stroke:#000000;stroke-width:0.8;" x="236.16" xlink:href="#mce135ea840" y="307.584"/>
      </g>
     </g>
     <g id="text_3">
      <!-- 0 -->
      <defs>
       <path d="M 31.78125 66.40625 
Q 24.171875 66.40625 20.328125 58.90625 
Q 16.5 51.421875 16.5 36.375 
Q 16.5 21.390625 20.328125 13.890625 
Q 24.171875 6.390625 31.78125 6.390625 
Q 39.453125 6.390625 43.28125 13.890625 
Q 47.125 21.390625 47.125 36.375 
Q 47.125 51.421875 43.28125 58.90625 
Q 39.453125 66.40625 31.78125 66.40625 
z
M 31.78125 74.21875 
Q 44.046875 74.21875 50.515625 64.515625 
Q 56.984375 54.828125 56.984375 36.375 
Q 56.984375 17.96875 50.515625 8.265625 
Q 44.046875 -1.421875 31.78125 -1.421875 
Q 19.53125 -1.421875 13.0625 8.265625 
Q 6.59375 17.96875 6.59375 36.375 
Q 6.59375 54.828125 13.0625 64.515625 
Q 19.53125 74.21875 31.78125 74.21875 
z
" id="DejaVuSans-30"/>
      </defs>
      <g transform="translate(232.97875 322.182437)scale(0.1 -0.1)">
       <use xlink:href="#DejaVuSans-30"/>
      </g>
     </g>
    </g>
    <g id="xtick_4">
     <g id="line2d_4">
      <g>
       <use style="stroke:#000000;stroke-width:0.8;" x="300.176598" xlink:href="#mce135ea840" y="307.584"/>
      </g>
     </g>
     <g id="text_4">
      <!-- 1 -->
      <g transform="translate(296.995348 322.182437)scale(0.1 -0.1)">
       <use xlink:href="#DejaVuSans-31"/>
      </g>
     </g>
    </g>
    <g id="xtick_5">
     <g id="line2d_5">
      <g>
       <use style="stroke:#000000;stroke-width:0.8;" x="364.193196" xlink:href="#mce135ea840" y="307.584"/>
      </g>
     </g>
     <g id="text_5">
      <!-- 2 -->
      <g transform="translate(361.011946 322.182437)scale(0.1 -0.1)">
       <use xlink:href="#DejaVuSans-32"/>
      </g>
     </g>
    </g>
   </g>
   <g id="matplotlib.axis_2">
    <g id="ytick_1">
     <g id="line2d_6">
      <defs>
       <path d="M 0 0 
L -3.5 0 
" id="mdeca97dadb" style="stroke:#000000;stroke-width:0.8;"/>
      </defs>
      <g>
       <use style="stroke:#000000;stroke-width:0.8;" x="82.520165" xlink:href="#mdeca97dadb" y="302.561196"/>
      </g>
     </g>
     <g id="text_6">
      <!-- −2.0 -->
      <defs>
       <path d="M 10.6875 12.40625 
L 21 12.40625 
L 21 0 
L 10.6875 0 
z
" id="DejaVuSans-2e"/>
      </defs>
      <g transform="translate(51.237353 306.360414)scale(0.1 -0.1)">
       <use xlink:href="#DejaVuSans-2212"/>
       <use x="83.789062" xlink:href="#DejaVuSans-32"/>
       <use x="147.412109" xlink:href="#DejaVuSans-2e"/>
       <use x="179.199219" xlink:href="#DejaVuSans-30"/>
      </g>
     </g>
    </g>
    <g id="ytick_2">
     <g id="line2d_7">
      <g>
       <use style="stroke:#000000;stroke-width:0.8;" x="82.520165" xlink:href="#mdeca97dadb" y="270.552897"/>
      </g>
     </g>
     <g id="text_7">
      <!-- −1.5 -->
      <defs>
       <path d="M 10.796875 72.90625 
L 49.515625 72.90625 
L 49.515625 64.59375 
L 19.828125 64.59375 
L 19.828125 46.734375 
Q 21.96875 47.46875 24.109375 47.828125 
Q 26.265625 48.1875 28.421875 48.1875 
Q 40.625 48.1875 47.75 41.5 
Q 54.890625 34.8125 54.890625 23.390625 
Q 54.890625 11.625 47.5625 5.09375 
Q 40.234375 -1.421875 26.90625 -1.421875 
Q 22.3125 -1.421875 17.546875 -0.640625 
Q 12.796875 0.140625 7.71875 1.703125 
L 7.71875 11.625 
Q 12.109375 9.234375 16.796875 8.0625 
Q 21.484375 6.890625 26.703125 6.890625 
Q 35.15625 6.890625 40.078125 11.328125 
Q 45.015625 15.765625 45.015625 23.390625 
Q 45.015625 31 40.078125 35.4375 
Q 35.15625 39.890625 26.703125 39.890625 
Q 22.75 39.890625 18.8125 39.015625 
Q 14.890625 38.140625 10.796875 36.28125 
z
" id="DejaVuSans-35"/>
      </defs>
      <g transform="translate(51.237353 274.352116)scale(0.1 -0.1)">
       <use xlink:href="#DejaVuSans-2212"/>
       <use x="83.789062" xlink:href="#DejaVuSans-31"/>
       <use x="147.412109" xlink:href="#DejaVuSans-2e"/>
       <use x="179.199219" xlink:href="#DejaVuSans-35"/>
      </g>
     </g>
    </g>
    <g id="ytick_3">
     <g id="line2d_8">
      <g>
       <use style="stroke:#000000;stroke-width:0.8;" x="82.520165" xlink:href="#mdeca97dadb" y="238.544598"/>
      </g>
     </g>
     <g id="text_8">
      <!-- −1.0 -->
      <g transform="translate(51.237353 242.343817)scale(0.1 -0.1)">
       <use xlink:href="#DejaVuSans-2212"/>
       <use x="83.789062" xlink:href="#DejaVuSans-31"/>
       <use x="147.412109" xlink:href="#DejaVuSans-2e"/>
       <use x="179.199219" xlink:href="#DejaVuSans-30"/>
      </g>
     </g>
    </g>
    <g id="ytick_4">
     <g id="line2d_9">
      <g>
       <use style="stroke:#000000;stroke-width:0.8;" x="82.520165" xlink:href="#mdeca97dadb" y="206.536299"/>
      </g>
     </g>
     <g id="text_9">
      <!-- −0.5 -->
      <g transform="translate(51.237353 210.335518)scale(0.1 -0.1)">
       <use xlink:href="#DejaVuSans-2212"/>
       <use x="83.789062" xlink:href="#DejaVuSans-30"/>
       <use x="147.412109" xlink:href="#DejaVuSans-2e"/>
       <use x="179.199219" xlink:href="#DejaVuSans-35"/>
      </g>
     </g>
    </g>
    <g id="ytick_5">
     <g id="line2d_10">
      <g>
       <use style="stroke:#000000;stroke-width:0.8;" x="82.520165" xlink:href="#mdeca97dadb" y="174.528"/>
      </g>
     </g>
     <g id="text_10">
      <!-- 0.0 -->
      <g transform="translate(59.61704 178.327219)scale(0.1 -0.1)">
       <use xlink:href="#DejaVuSans-30"/>
       <use x="63.623047" xlink:href="#DejaVuSans-2e"/>
       <use x="95.410156" xlink:href="#DejaVuSans-30"/>
      </g>
     </g>
    </g>
    <g id="ytick_6">
     <g id="line2d_11">
      <g>
       <use style="stroke:#000000;stroke-width:0.8;" x="82.520165" xlink:href="#mdeca97dadb" y="142.519701"/>
      </g>
     </g>
     <g id="text_11">
      <!-- 0.5 -->
      <g transform="translate(59.61704 146.31892)scale(0.1 -0.1)">
       <use xlink:href="#DejaVuSans-30"/>
       <use x="63.623047" xlink:href="#DejaVuSans-2e"/>
       <use x="95.410156" xlink:href="#DejaVuSans-35"/>
      </g>
     </g>
    </g>
    <g id="ytick_7">
     <g id="line2d_12">
      <g>
       <use style="stroke:#000000;stroke-width:0.8;" x="82.520165" xlink:href="#mdeca97dadb" y="110.511402"/>
      </g>
     </g>
     <g id="text_12">
      <!-- 1.0 -->
      <g transform="translate(59.61704 114.310621)scale(0.1 -0.1)">
       <use xlink:href="#DejaVuSans-31"/>
       <use x="63.623047" xlink:href="#DejaVuSans-2e"/>
       <use x="95.410156" xlink:href="#DejaVuSans-30"/>
      </g>
     </g>
    </g>
    <g id="ytick_8">
     <g id="line2d_13">
      <g>
       <use style="stroke:#000000;stroke-width:0.8;" x="82.520165" xlink:href="#mdeca97dadb" y="78.503103"/>
      </g>
     </g>
     <g id="text_13">
      <!-- 1.5 -->
      <g transform="translate(59.61704 82.302322)scale(0.1 -0.1)">
       <use xlink:href="#DejaVuSans-31"/>
       <use x="63.623047" xlink:href="#DejaVuSans-2e"/>
       <use x="95.410156" xlink:href="#DejaVuSans-35"/>
      </g>
     </g>
    </g>
    <g id="ytick_9">
     <g id="line2d_14">
      <g>
       <use style="stroke:#000000;stroke-width:0.8;" x="82.520165" xlink:href="#mdeca97dadb" y="46.494804"/>
      </g>
     </g>
     <g id="text_14">
      <!-- 2.0 -->
      <g transform="translate(59.61704 50.294023)scale(0.1 -0.1)">
       <use xlink:href="#DejaVuSans-32"/>
       <use x="63.623047" xlink:href="#DejaVuSans-2e"/>
       <use x="95.410156" xlink:href="#DejaVuSans-30"/>
      </g>
     </g>
    </g>
   </g>
   <g id="line2d_15">
    <path clip-path="url(#p821b5a8bbe)" d="M 300.176598 63.648 
L 172.143402 63.648 
" style="fill:none;stroke:#009900;stroke-linecap:square;stroke-width:2;"/>
   </g>
   <g id="line2d_16">
    <path clip-path="url(#p821b5a8bbe)" d="M 172.143402 63.648 
L 108.126804 174.528 
" style="fill:none;stroke:#009900;stroke-linecap:square;stroke-width:2;"/>
   </g>
   <g id="line2d_17">
    <path clip-path="url(#p821b5a8bbe)" d="M 108.126804 174.528 
L 172.143402 285.408 
" style="fill:none;stroke:#009900;stroke-linecap:square;stroke-width:2;"/>
   </g>
   <g id="line2d_18">
    <path clip-path="url(#p821b5a8bbe)" d="M 172.143402 285.408 
L 300.176598 285.408 
" style="fill:none;stroke:#009900;stroke-linecap:square;stroke-width:2;"/>
   </g>
   <g id="line2d_19">
    <path clip-path="url(#p821b5a8bbe)" d="M 300.176598 285.408 
L 364.193196 174.528 
" style="fill:none;stroke:#009900;stroke-linecap:square;stroke-width:2;"/>
   </g>
   <g id="line2d_20">
    <path clip-path="url(#p821b5a8bbe)" d="M 364.193196 174.528 
L 300.176598 63.648 
" style="fill:none;stroke:#009900;stroke-linecap:square;stroke-width:2;"/>
   </g>
   <g id="line2d_21">
    <path clip-path="url(#p821b5a8bbe)" d="M 304.992562 123.909681 
L 310.081759 124.4794 
L 315.189667 124.845149 
L 320.308116 125.006344 
L 325.428917 124.962727 
L 330.543877 124.714367 
L 335.199469 124.309393 
L 332.271627 128.51085 
L 329.514139 132.826028 
L 326.931419 137.248025 
L 324.527597 141.769766 
L 322.30652 146.384018 
L 320.271739 151.083397 
L 318.426512 155.860388 
L 316.773789 160.707347 
L 315.316215 165.61652 
L 314.056121 170.580053 
L 312.995524 175.590007 
L 312.13612 180.638366 
L 311.479283 185.717053 
L 311.026066 190.817945 
L 310.777192 195.93288 
L 310.73306 201.053676 
L 310.893741 206.172141 
L 311.258977 211.280087 
L 311.828184 216.36934 
L 312.600452 221.431761 
L 313.574545 226.45925 
L 314.748905 231.443764 
L 316.121653 236.377329 
L 317.690592 241.252053 
L 319.453214 246.060137 
L 320.874961 249.557384 
L 315.806047 250.285821 
L 310.770319 251.216378 
L 305.77583 252.347566 
L 300.830572 253.677576 
L 295.942456 255.204279 
L 291.119302 256.925233 
L 286.368825 258.837686 
L 281.698626 260.938577 
L 277.116176 263.224546 
L 272.628806 265.691936 
L 268.243695 268.336798 
L 263.967857 271.154903 
L 259.808134 274.141742 
L 255.77118 277.292536 
L 251.863453 280.602245 
L 248.091205 284.065574 
L 246.707503 285.408 
L 242.987831 281.888264 
L 239.130382 278.520091 
L 235.141328 275.308868 
L 231.02705 272.259734 
L 226.79413 269.377566 
L 222.44934 266.666976 
L 217.999631 264.132298 
L 213.452121 261.777589 
L 208.814085 259.606616 
L 204.092943 257.622851 
L 199.296249 255.829468 
L 194.431675 254.229336 
L 189.507004 252.825015 
L 184.530114 251.618752 
L 179.508968 250.612476 
L 174.451597 249.807798 
L 169.366094 249.206004 
L 164.260593 248.808057 
L 159.143262 248.614594 
L 154.022288 248.625925 
L 150.967513 248.730284 
L 153.642812 244.363675 
L 156.141354 239.893575 
L 158.45914 235.327136 
L 160.592464 230.671662 
L 162.537912 225.934603 
L 164.292372 221.123535 
L 165.853037 216.246156 
L 167.217411 211.310269 
L 168.38331 206.323769 
L 169.34887 201.294634 
L 170.112546 196.23091 
L 170.673117 191.140698 
L 171.029684 186.03214 
L 171.181679 180.91341 
L 171.128857 175.792696 
L 170.871304 170.67819 
L 170.409431 165.578075 
L 169.743977 160.500509 
L 168.876007 155.453616 
L 167.80691 150.44547 
L 166.538395 145.484081 
L 165.072492 140.577389 
L 163.411546 135.733242 
L 161.558215 130.95939 
L 159.515463 126.263469 
L 157.286559 121.652994 
L 154.875067 117.135338 
L 152.284846 112.717731 
L 149.52004 108.407238 
L 147.770558 105.863005 
L 152.878703 106.225436 
L 157.997255 106.383307 
L 163.118026 106.336364 
L 168.232824 106.084682 
L 173.333466 105.628664 
L 178.411793 104.969039 
L 183.459679 104.106863 
L 188.469049 103.043516 
L 193.43189 101.780697 
L 198.340263 100.320428 
L 203.186313 98.665044 
L 207.96229 96.817195 
L 212.660552 94.779835 
L 217.273583 92.556224 
L 221.794004 90.14992 
L 226.214582 87.564772 
L 230.528246 84.804916 
L 234.728095 81.874768 
L 238.80741 78.779013 
L 242.759664 75.522606 
L 246.578535 72.110756 
L 250.257915 68.548921 
L 253.791915 64.842799 
L 254.872701 63.648 
L 258.359787 67.398298 
L 261.994056 71.006149 
L 265.769693 74.465783 
L 269.680659 77.771665 
L 273.720696 80.918504 
L 277.883341 83.901269 
L 282.161936 86.715186 
L 286.549635 89.355754 
L 291.039419 91.818749 
L 295.624105 94.10023 
L 300.296358 96.196548 
L 305.048705 98.104349 
L 309.873542 99.82058 
L 314.76315 101.342497 
L 319.709708 102.667664 
L 323.167614 103.469609 
L 321.705348 108.377386 
L 320.440511 113.339713 
L 319.375125 118.348651 
L 318.510895 123.396186 
L 317.849204 128.474243 
L 317.391111 133.574699 
L 317.137348 138.689394 
L 317.088321 143.810146 
L 317.244109 148.928762 
L 317.604463 154.037054 
L 318.168805 159.12685 
L 318.936233 164.190006 
L 319.90552 169.218424 
L 321.075115 174.204059 
L 322.443146 179.138934 
L 324.007425 184.015155 
L 325.76545 188.824921 
L 327.714408 193.560538 
L 329.851181 198.214429 
L 332.172351 202.779149 
L 334.674204 207.247396 
L 337.352739 211.612021 
L 340.271083 215.962315 
L 335.161843 215.615657 
L 330.042828 215.473592 
L 324.922226 215.536347 
L 319.808229 215.80382 
L 314.70902 216.275585 
L 309.632754 216.950887 
L 304.587554 217.828645 
L 299.581491 218.907455 
L 294.622573 220.185591 
L 289.718733 221.661009 
L 284.877817 223.331348 
L 280.107568 225.193936 
L 275.415619 227.245793 
L 270.809476 229.483636 
L 266.296507 231.903887 
L 261.883932 234.502671 
L 257.57881 237.275833 
L 253.388029 240.218936 
L 249.318292 243.327271 
L 245.376111 246.595866 
L 241.567793 250.019492 
L 237.899429 253.592671 
L 234.376889 257.309687 
L 231.005807 261.164595 
L 227.791577 265.151226 
L 224.73934 269.263203 
L 221.853981 273.493947 
L 219.140114 277.836692 
L 216.602081 282.284488 
L 214.957023 285.408 
L 212.542581 280.89192 
L 209.949476 276.476005 
L 207.181856 272.167319 
L 204.244148 267.972754 
L 201.141052 263.899022 
L 197.877532 259.952638 
L 194.458809 256.139918 
L 190.890353 252.46696 
L 187.177872 248.93964 
L 183.327305 245.563601 
L 179.344813 242.344244 
L 175.236767 239.286719 
L 171.009738 236.395918 
L 166.670489 233.676466 
L 162.225962 231.132712 
L 157.683268 228.768727 
L 153.049672 226.588292 
L 148.332589 224.594896 
L 143.539565 222.791727 
L 138.678267 221.181671 
L 134.335424 219.922661 
L 135.548162 214.947345 
L 136.56097 209.927513 
L 137.372228 204.871194 
L 137.980639 199.786477 
L 138.385228 194.681498 
L 138.585349 189.564424 
L 138.580682 184.44344 
L 138.371233 179.326738 
L 137.957339 174.222505 
L 137.33966 169.138907 
L 136.519187 164.084075 
L 135.49723 159.066097 
L 134.275425 154.092999 
L 132.855726 149.17274 
L 131.240405 144.313188 
L 129.432046 139.522119 
L 128.980168 138.408914 
L 134.041096 137.62692 
L 139.066704 136.643168 
L 144.048952 135.459232 
L 148.97987 134.077007 
L 153.85157 132.498703 
L 158.656258 130.726845 
L 163.386247 128.764269 
L 168.03397 126.614113 
L 172.591992 124.279818 
L 177.053022 121.765118 
L 181.409922 119.074035 
L 185.655722 116.210876 
L 189.783631 113.18022 
L 193.787043 109.986916 
L 197.659555 106.636073 
L 201.394972 103.133051 
L 204.987317 99.483454 
L 208.430844 95.69312 
L 211.720043 91.768115 
L 214.849653 87.714716 
L 217.814666 83.539408 
L 220.610341 79.248871 
L 223.232203 74.849969 
L 225.676059 70.349739 
L 227.937999 65.755381 
L 228.900525 63.648 
L 231.078962 68.282535 
L 233.440989 72.826248 
L 235.982826 77.271871 
L 238.700407 81.612292 
L 241.589386 85.840567 
L 244.645139 89.949931 
L 247.862779 93.93381 
L 251.237158 97.785832 
L 254.762877 101.499833 
L 258.434297 105.069872 
L 262.245543 108.490238 
L 266.190519 111.755459 
L 270.262914 114.860311 
L 274.456211 117.799827 
L 278.763704 120.569304 
L 283.178501 123.164313 
L 287.69354 125.580701 
L 292.301596 127.814603 
L 296.995299 129.862445 
L 301.767139 131.72095 
L 306.609483 133.387147 
L 311.514583 134.858368 
L 316.474593 136.132261 
L 321.481578 137.206788 
L 326.527527 138.080229 
L 331.604368 138.751187 
L 336.703979 139.218589 
L 341.818203 139.481687 
L 343.987918 139.531433 
L 341.581687 144.051892 
L 339.358151 148.66496 
L 337.320867 153.363254 
L 335.473094 158.139261 
L 333.817788 162.985338 
L 332.357598 167.893734 
L 331.094859 172.856595 
L 330.031592 177.865983 
L 329.169498 182.913883 
L 328.509955 187.99222 
L 328.054019 193.092869 
L 327.80242 198.207671 
L 327.755559 203.328443 
L 327.913512 208.446993 
L 328.276026 213.555132 
L 328.842521 218.644689 
L 329.612091 223.70752 
L 330.583505 228.735527 
L 331.234429 231.614259 
L 326.357069 233.174984 
L 321.546022 234.929502 
L 316.808986 236.875008 
L 312.153539 239.008388 
L 307.587128 241.32623 
L 303.117059 243.824826 
L 298.750482 246.500179 
L 294.494384 249.348007 
L 290.355572 252.363757 
L 286.34067 255.542602 
L 282.456098 258.879458 
L 278.708073 262.368987 
L 275.10259 266.005605 
L 271.645416 269.783495 
L 268.342083 273.696613 
L 265.197876 277.738699 
L 262.217824 281.903287 
L 259.898105 285.408 
L 257.056349 281.147845 
L 254.046505 277.004737 
L 250.873388 272.985306 
L 247.542075 269.09598 
L 244.057895 265.342982 
L 240.426422 261.732316 
L 236.653466 258.269759 
L 232.745063 254.960849 
L 228.707464 251.81088 
L 224.54713 248.824892 
L 220.270717 246.007662 
L 215.885065 243.363696 
L 211.39719 240.897224 
L 206.814273 238.612192 
L 202.143644 236.512255 
L 197.392777 234.600774 
L 192.569271 232.880806 
L 187.680843 231.355102 
L 182.735313 230.026104 
L 177.740593 228.895937 
L 172.704674 227.96641 
L 167.635612 227.239009 
L 162.541517 226.714899 
L 157.430537 226.394917 
L 152.310849 226.279576 
L 147.190645 226.36906 
L 142.078114 226.663226 
L 138.421476 226.99991 
L 141.354096 222.801786 
L 144.11649 218.489747 
L 146.704239 214.070691 
L 149.113203 209.551688 
L 151.339528 204.939966 
L 153.379653 200.242904 
L 155.230314 195.468016 
L 156.888549 190.62294 
L 158.351707 185.715428 
L 159.617446 180.753331 
L 160.683742 175.744588 
L 161.548889 170.69721 
L 162.211502 165.619273 
L 162.670522 160.5189 
L 162.925214 155.404251 
L 162.975171 150.283508 
L 162.820313 145.164864 
L 162.460888 140.056506 
L 161.89747 134.966608 
L 161.130962 129.903312 
L 160.162589 124.874718 
L 158.9939 119.888872 
L 157.626765 114.953748 
L 156.063372 110.077243 
L 154.306221 105.267157 
L 152.358123 100.531187 
L 151.703319 99.051263 
L 156.787039 98.434586 
L 161.842033 97.615108 
L 166.860212 96.59414 
L 171.83355 95.373315 
L 176.754089 93.954585 
L 181.613959 92.340222 
L 186.405384 90.532807 
L 191.120699 88.535232 
L 195.75236 86.350692 
L 200.292959 83.982683 
L 204.73523 81.434992 
L 209.072067 78.711696 
L 213.296533 75.817151 
L 217.401869 72.755987 
L 221.381507 69.533103 
L 225.22908 66.153653 
L 227.891926 63.648 
L 231.641431 67.135939 
L 235.527416 70.471148 
L 239.543666 73.648292 
L 243.683755 76.662286 
L 247.94106 79.508311 
L 252.30877 82.181812 
L 256.779898 84.678513 
L 261.347291 86.994419 
L 266.003643 89.125826 
L 270.741503 91.069324 
L 275.553292 92.821803 
L 280.431313 94.38046 
L 285.367762 95.742801 
L 290.354742 96.906648 
L 295.384273 97.870137 
L 300.448311 98.631728 
L 305.538754 99.190203 
L 310.647458 99.544667 
L 315.766251 99.694554 
L 320.955151 99.63751 
L 318.344886 104.043303 
L 315.912893 108.549956 
L 313.663064 113.150257 
L 311.598997 117.836847 
L 309.723996 122.60223 
L 308.041058 127.43878 
L 306.552877 132.338762 
L 305.261833 137.294335 
L 304.169992 142.297573 
L 303.279101 147.34047 
L 302.590585 152.41496 
L 302.105544 157.512924 
L 301.824756 162.626207 
L 301.748669 167.746628 
L 301.877405 172.865996 
L 302.210759 177.976121 
L 302.748196 183.068828 
L 303.488857 188.135969 
L 304.431557 193.169439 
L 305.574789 198.161185 
L 306.916723 203.10322 
L 308.455211 207.98764 
L 310.187794 212.806629 
L 312.1117 217.552479 
L 314.223849 222.217597 
L 316.520865 226.79452 
L 318.999071 231.275925 
L 321.654503 235.654645 
L 324.482913 239.923672 
L 325.555516 241.450424 
L 320.449357 241.06101 
L 315.33171 240.8761 
L 310.210762 240.895988 
L 305.094706 241.120644 
L 299.991726 241.549708 
L 294.909986 242.182494 
L 289.857615 243.017989 
L 284.842697 244.054856 
L 279.873253 245.291438 
L 274.957235 246.725755 
L 270.102506 248.355513 
L 265.316833 250.178104 
L 260.607873 252.190614 
L 255.983159 254.389822 
L 251.450088 256.77221 
L 247.015914 259.333967 
L 242.687729 262.070995 
L 238.472458 264.978914 
L 234.376845 268.053073 
L 230.407442 271.288555 
L 226.570598 274.680181 
L 222.872453 278.222528 
L 219.318921 281.909928 
L 216.19723 285.408 
L 212.781088 281.592968 
L 209.215117 277.917597 
L 205.505022 274.387766 
L 201.65674 271.009124 
L 197.676427 267.787074 
L 193.57045 264.726771 
L 189.345377 261.833112 
L 185.007969 259.110725 
L 180.565163 256.563965 
L 176.024069 254.196908 
L 171.391949 252.01334 
L 166.676216 250.016753 
L 161.884412 248.210343 
L 157.024204 246.596998 
L 152.103367 245.179301 
L 148.378504 244.24599 
L 149.759664 239.314773 
L 150.942523 234.332269 
L 151.925188 229.306448 
L 152.706088 224.245352 
L 153.283974 219.157076 
L 153.657921 214.049761 
L 153.82733 208.931578 
L 153.791931 203.810714 
L 153.551781 198.695361 
L 153.107263 193.593704 
L 152.459089 188.513904 
L 151.608295 183.464087 
L 150.556243 178.452332 
L 149.304616 173.486656 
L 147.855417 168.575005 
L 146.210962 163.725235 
L 144.373884 158.945104 
L 142.347121 154.242261 
L 140.133916 149.624228 
L 137.737809 145.098394 
L 135.162634 140.671999 
L 132.41251 136.352124 
L 131.200638 134.562947 
L 136.31235 134.871005 
L 141.432293 134.974401 
L 146.552275 134.872972 
L 151.664105 134.56688 
L 156.759606 134.056614 
L 161.830626 133.34299 
L 166.869052 132.42715 
L 171.866824 131.310559 
L 176.815947 129.995004 
L 181.708503 128.48259 
L 186.536665 126.775734 
L 191.292709 124.87717 
L 195.969026 122.789933 
L 200.558136 120.517362 
L 205.052696 118.063094 
L 209.445516 115.431055 
L 213.729569 112.625455 
L 217.898002 109.650783 
L 221.944144 106.511797 
L 225.861525 103.21352 
L 229.643876 99.761227 
L 233.285146 96.160443 
L 236.779511 92.416926 
L 240.12138 88.536667 
L 243.305407 84.525872 
L 246.326498 80.390959 
L 249.179821 76.138541 
L 251.860809 71.775423 
L 254.365175 67.308583 
L 256.24731 63.648 
L 258.606797 68.193033 
L 261.146149 72.640076 
L 263.861305 76.982015 
L 266.74792 81.211903 
L 269.801376 85.322974 
L 273.016789 89.308651 
L 276.389015 93.162558 
L 279.912658 96.878529 
L 283.582082 100.450619 
L 287.391416 103.873115 
L 291.334567 107.14054 
L 295.405225 110.247667 
L 299.59688 113.189526 
L 303.902824 115.961411 
L 308.31617 118.558886 
L 312.829857 120.977797 
L 317.436665 123.214273 
L 322.129222 125.264738 
L 326.900023 127.12591 
L 331.741435 128.794813 
L 336.645712 130.268775 
L 339.006183 130.902813 
L 337.735603 135.863673 
L 336.664422 140.871375 
L 335.794352 145.917906 
L 335.126785 150.995194 
L 334.66279 156.095117 
L 334.403109 161.209515 
L 334.348156 166.330207 
L 334.498021 171.449 
L 334.852463 176.557705 
L 335.410915 181.648151 
L 336.172484 186.712192 
L 337.135951 191.741728 
L 338.299775 196.728712 
L 339.662095 201.665167 
L 341.220731 206.543195 
L 342.956312 211.311362 
L 337.913269 212.20143 
L 332.909853 213.292455 
L 327.954069 214.582689 
L 323.053845 216.070071 
L 318.21702 217.752219 
L 313.451331 219.626443 
L 308.764404 221.689745 
L 304.163736 223.938823 
L 299.656686 226.37008 
L 295.250467 228.979626 
L 290.952126 231.763286 
L 286.76854 234.716608 
L 282.706401 237.834866 
L 278.772209 241.113072 
L 274.972258 244.545982 
L 271.312625 248.128103 
L 267.799167 251.853705 
L 264.437503 255.716828 
L 261.233012 259.711292 
L 258.19082 263.830706 
L 255.315794 268.06848 
L 252.612534 272.417834 
L 250.085364 276.871811 
L 247.738326 281.423286 
L 245.867706 285.408 
L 243.678518 280.778533 
L 241.305953 276.240314 
L 238.753804 271.800602 
L 236.026157 267.4665 
L 233.127373 263.244942 
L 230.06209 259.142681 
L 226.835213 255.16628 
L 223.451903 251.3221 
L 219.917574 247.616292 
L 216.237879 244.054783 
L 212.418704 240.643272 
L 208.466161 237.387216 
L 204.386571 234.291824 
L 200.186463 231.362047 
L 195.872554 228.602574 
L 191.451746 226.017819 
L 186.931112 223.611916 
L 182.317883 221.388715 
L 177.61944 219.351772 
L 172.843299 217.504347 
L 167.997102 215.849393 
L 163.0886 214.38956 
L 158.125647 213.127182 
L 153.116182 212.064278 
L 148.06822 211.202551 
L 142.989835 210.543377 
L 137.889152 210.087812 
L 132.774332 209.836584 
L 128.481709 209.783728 
L 130.972947 205.309555 
L 133.283274 200.739336 
L 135.408992 196.080386 
L 137.346702 191.340156 
L 139.093304 186.526229 
L 140.646002 181.646308 
L 142.002314 176.708199 
L 143.160069 171.719802 
L 144.117415 166.689098 
L 144.872821 161.624133 
L 145.425079 156.533012 
L 145.773304 151.423879 
L 145.916939 146.304907 
L 145.855756 141.184287 
L 145.589851 136.070208 
L 145.11965 130.970854 
L 144.445906 125.894382 
L 143.569696 120.848913 
L 142.492421 115.842519 
L 142.350978 115.249992 
L 147.232696 113.702951 
L 152.048643 111.961931 
L 156.791116 110.029718 
L 161.452528 107.909401 
L 166.025421 105.604374 
L 170.50248 103.118323 
L 174.876542 100.455226 
L 179.14061 97.619344 
L 183.287861 94.615213 
L 187.311663 91.447639 
L 191.205576 88.12169 
L 194.963373 84.642686 
L 198.57904 81.016193 
L 202.046795 77.248013 
L 205.361088 73.344174 
L 208.516619 69.310921 
L 211.508338 65.154707 
L 212.532046 63.648 
L 215.464332 67.846357 
L 218.562162 71.924096 
L 221.82058 75.874692 
L 225.234373 79.691827 
L 228.79808 83.369393 
L 232.506001 86.901507 
L 236.352202 90.282518 
L 240.330531 93.507018 
L 244.434623 96.569848 
L 248.657913 99.466108 
L 252.993644 102.191165 
L 257.434881 104.74066 
L 261.974517 107.110512 
L 266.605292 109.296932 
L 271.319795 111.296422 
L 276.110486 113.105782 
L 280.969699 114.722119 
L 285.889663 116.142846 
L 290.862504 117.36569 
L 295.880269 118.388696 
L 300.934929 119.210226 
L 306.018398 119.828967 
L 311.122545 120.243928 
L 316.239202 120.454446 
L 321.360185 120.460183 
L 326.477302 120.261132 
L 331.582365 119.857609 
L 332.570406 119.755721 
L 329.635767 123.952434 
L 326.8713 128.263144 
L 324.281426 132.680955 
L 321.87029 137.1988 
L 319.641747 141.809451 
L 317.599364 146.505532 
L 315.746408 151.279529 
L 314.085843 156.123807 
L 312.620326 161.030615 
L 311.352201 165.992102 
L 310.283497 171.000333 
L 309.415924 176.047294 
L 308.750869 181.124912 
L 308.289397 186.225064 
L 308.032245 191.33959 
L 307.979826 196.460308 
L 308.132222 201.579026 
L 308.489191 206.687556 
L 309.050162 211.777724 
L 309.814235 216.841388 
L 310.780191 221.870447 
L 311.946482 226.856855 
L 313.311244 231.792635 
L 314.872292 236.669892 
L 316.62713 241.480822 
L 318.57295 246.217728 
L 320.438291 250.313718 
L 315.342218 250.818239 
L 310.270397 251.526146 
L 305.230941 252.436305 
L 300.231913 253.54726 
L 295.28131 254.857234 
L 290.387053 256.364132 
L 285.556969 258.065543 
L 280.798788 259.958745 
L 276.120121 262.040708 
L 271.528452 264.308104 
L 267.031128 266.757303 
L 262.635343 269.384388 
L 258.348129 272.185156 
L 254.176346 275.155127 
L 250.126667 278.289549 
L 246.205571 281.583408 
L 242.41933 285.031434 
L 242.023778 285.408 
L 238.252279 281.943855 
L 234.345269 278.6333 
L 230.308997 275.481633 
L 226.14992 272.493894 
L 221.874692 269.674864 
L 217.490153 267.029052 
L 213.003317 264.560691 
L 208.421362 262.273731 
L 203.751618 260.171829 
L 199.001556 258.258348 
L 194.178774 256.53635 
L 189.290988 255.008589 
L 184.346018 253.677509 
L 179.351775 252.54524 
L 174.316247 251.613593 
L 169.247492 250.884059 
L 164.153617 250.357805 
L 159.042773 250.035672 
L 153.923134 249.918176 
L 151.661033 249.931496 
L 154.198086 245.483141 
L 156.555223 240.936889 
L 158.728673 236.300013 
L 160.714958 231.579931 
L 162.510902 226.784195 
L 164.113631 221.920476 
L 165.520581 216.996556 
L 166.729502 212.020311 
L 167.738458 206.999702 
L 168.545837 201.942762 
L 169.150347 196.857581 
L 169.55102 191.752293 
L 169.747215 186.635066 
L 169.738619 181.514087 
L 169.525245 176.397548 
L 169.107435 171.293634 
L 168.485857 166.210511 
L 167.661505 161.15631 
L 166.635699 156.139117 
L 165.410079 151.166959 
L 163.986606 146.24779 
L 162.367557 141.389479 
L 160.555523 136.599799 
L 158.553402 131.886412 
L 156.364398 127.256859 
L 153.992011 122.718546 
L 151.440039 118.278734 
L 148.712562 113.944524 
L 145.663252 109.512965 
L 150.76782 109.922707 
L 155.88469 110.127993 
L 161.005677 110.128494 
L 166.122587 109.92421 
L 171.227235 109.515468 
L 176.311454 108.902921 
L 181.367112 108.08755 
L 186.386119 107.070659 
L 191.360447 105.853874 
L 196.282137 104.439142 
L 201.143316 102.828727 
L 205.936208 101.025205 
L 210.653144 99.03146 
L 215.286579 96.850684 
L 219.829099 94.486364 
L 224.273438 91.942283 
L 228.612487 89.22251 
L 232.839302 86.331397 
L 236.947123 83.27357 
L 240.929378 80.053919 
L 244.779695 76.677596 
L 248.491916 73.150002 
L 252.060101 69.476781 
L 255.478543 65.663808 
L 257.17849 63.648 
L 260.517681 67.530565 
L 264.009461 71.276492 
L 267.648246 74.879789 
L 271.428213 78.334691 
L 275.343317 81.635671 
L 279.387292 84.777448 
L 283.55367 87.754997 
L 287.835786 90.563553 
L 292.226789 93.198623 
L 296.719654 95.655992 
L 301.307194 97.931729 
L 305.98207 100.022193 
L 310.736802 101.92404 
L 315.563785 103.634227 
L 320.455296 105.150018 
L 324.815146 106.323218 
L 323.506726 111.274232 
L 322.397341 116.273608 
L 321.488764 121.31335 
L 320.78245 126.385393 
L 320.279529 131.481624 
L 319.980805 136.59389 
L 319.886756 141.714013 
L 319.997532 146.833801 
L 320.312957 151.945064 
L 320.832525 157.039625 
L 321.555406 162.109333 
L 322.480443 167.146079 
L 323.606157 172.141805 
L 324.930745 177.088517 
L 326.45209 181.978304 
L 328.167757 186.803341 
L 330.075002 191.555911 
L 332.170773 196.22841 
L 334.451718 200.813363 
L 336.914188 205.303435 
L 339.554243 209.691442 
L 341.855304 213.218364 
L 336.740957 212.957677 
L 331.620276 212.901718 
L 326.501454 213.050577 
L 321.392679 213.404014 
L 316.302124 213.961466 
L 311.237933 214.722039 
L 306.208207 215.684518 
L 301.220994 216.847362 
L 296.284272 218.208712 
L 291.405937 219.766388 
L 286.593796 221.5179 
L 281.855545 223.460446 
L 277.198766 225.590917 
L 272.630907 227.905905 
L 268.159278 230.401708 
L 263.79103 233.074331 
L 259.533153 235.9195 
L 255.392459 238.932663 
L 251.37557 242.108999 
L 247.488915 245.443427 
L 243.73871 248.930613 
L 240.130955 252.564977 
L 236.671421 256.340706 
L 233.365644 260.25176 
L 230.218912 264.29188 
L 227.236258 268.454605 
L 224.422454 272.733275 
L 221.782003 277.121044 
L 219.319127 281.610893 
L 217.413524 285.408 
L 215.100968 280.83891 
L 212.607547 276.365952 
L 209.937249 271.996282 
L 207.094348 267.736891 
L 204.08339 263.594592 
L 200.909193 259.576013 
L 197.576835 255.687583 
L 194.091647 251.935522 
L 190.459204 248.325832 
L 186.685317 244.864289 
L 182.776025 241.55643 
L 178.73758 238.407546 
L 174.576444 235.422676 
L 170.299273 232.606595 
L 165.91291 229.963808 
L 161.424373 227.498542 
L 156.840842 225.214742 
L 152.169649 223.116061 
L 147.418268 221.205857 
L 142.5943 219.487185 
L 137.705462 217.962795 
L 132.38415 216.542956 
L 133.72223 211.599875 
L 134.861568 206.60724 
L 135.800343 201.573036 
L 136.537052 196.505319 
L 137.070517 191.412194 
L 137.399885 186.301811 
L 137.524629 181.182344 
L 137.444549 176.061984 
L 137.159773 170.948922 
L 136.670757 165.851338 
L 135.978284 160.777386 
L 135.08346 155.735185 
L 133.987717 150.732801 
L 132.692809 145.778236 
L 131.200808 140.879416 
L 129.837329 136.924268 
L 134.86098 135.930568 
L 139.840874 134.736771 
L 144.769046 133.344787 
L 149.637612 131.756841 
L 154.438782 129.975475 
L 159.164876 128.003538 
L 163.808334 125.844185 
L 168.361726 123.500871 
L 172.817768 120.977344 
L 177.169332 118.277641 
L 181.409456 115.406081 
L 185.531356 112.367259 
L 189.528438 109.166036 
L 193.394309 105.807532 
L 197.122783 102.297122 
L 200.707896 98.64042 
L 204.143912 94.843276 
L 207.425334 90.911767 
L 210.546913 86.85218 
L 213.503655 82.67101 
L 216.290829 78.374947 
L 218.903978 73.970863 
L 221.33892 69.465803 
L 223.591759 64.866976 
L 224.151213 63.648 
L 226.355754 68.270175 
L 228.74337 72.800494 
L 231.31024 77.231711 
L 234.052259 81.556735 
L 236.965038 85.768649 
L 240.04392 89.860713 
L 243.283978 93.826382 
L 246.680028 97.65931 
L 250.226639 101.353367 
L 253.918135 104.902643 
L 257.748611 108.301459 
L 261.71194 111.544378 
L 265.801781 114.626213 
L 270.011591 117.542032 
L 274.334636 120.287171 
L 278.763998 122.857239 
L 283.292593 125.248124 
L 287.913176 127.456 
L 292.618354 129.477337 
L 297.4006 131.3089 
L 302.252264 132.947759 
L 307.165584 134.391293 
L 312.1327 135.637191 
L 317.145665 136.683461 
L 322.19646 137.528429 
L 327.277005 138.170743 
L 332.379171 138.609376 
L 337.494797 138.843626 
L 342.615699 138.873117 
L 343.597591 138.855367 
L 341.028626 143.285369 
L 338.638869 147.814559 
L 336.432143 152.435691 
L 334.411978 157.141372 
L 332.581606 161.924074 
L 330.943955 166.776146 
L 329.501645 171.689826 
L 328.256984 176.657251 
L 327.211962 181.670477 
L 326.368251 186.721482 
L 325.727202 191.802187 
L 325.28984 196.904462 
L 325.056864 202.020147 
L 325.028647 207.141055 
L 325.205235 212.258996 
L 325.586344 217.365782 
L 326.171366 222.453242 
L 326.959363 227.513238 
L 327.949077 232.537675 
L 328.738392 235.937522 
L 323.84893 237.459912 
L 319.02426 239.176611 
L 314.272098 241.084871 
L 309.600047 243.181641 
L 305.015582 245.463567 
L 300.526037 247.926996 
L 296.138594 250.567989 
L 291.860271 253.38232 
L 287.697915 256.365488 
L 283.658182 259.512719 
L 279.747537 262.818979 
L 275.972235 266.278978 
L 272.338315 269.887182 
L 268.851592 273.637817 
L 265.517644 277.524884 
L 262.341804 281.542164 
L 259.521623 285.408 
L 256.498119 281.27485 
L 253.311751 277.265915 
L 249.967618 273.387607 
L 246.471068 269.646131 
L 242.827697 266.047472 
L 239.043331 262.597388 
L 235.124026 259.301397 
L 231.076052 256.164774 
L 226.905884 253.192535 
L 222.620195 250.389436 
L 218.225839 247.759962 
L 213.729847 245.308317 
L 209.139412 243.038426 
L 204.461877 240.953919 
L 199.704726 239.05813 
L 194.875568 237.354093 
L 189.982131 235.844535 
L 185.032241 234.531868 
L 180.033818 233.418195 
L 174.994858 232.505296 
L 169.923422 231.794632 
L 164.827624 231.28734 
L 159.715616 230.984231 
L 154.595576 230.885791 
L 149.475695 230.992176 
L 144.364163 231.303217 
L 141.08386 231.611295 
L 144.017963 227.414208 
L 146.781881 223.103145 
L 149.371191 218.685003 
L 151.781751 214.166851 
L 154.009705 209.555916 
L 156.051489 204.859575 
L 157.903836 200.085341 
L 159.563783 195.240851 
L 161.028675 190.333857 
L 162.296167 185.372207 
L 163.364232 180.36384 
L 164.231162 175.316769 
L 164.895569 170.239066 
L 165.356391 165.138856 
L 165.61289 160.024297 
L 165.664656 154.903572 
L 165.511606 149.784873 
L 165.153986 144.676389 
L 164.592366 139.586292 
L 163.827646 134.522726 
L 162.86105 129.49379 
L 161.694122 124.507531 
L 160.328731 119.571925 
L 158.767061 114.694868 
L 157.011609 109.884162 
L 155.065185 105.147503 
L 152.930902 100.49247 
L 151.981922 98.568708 
L 157.087753 98.175021 
L 162.173757 97.57747 
L 167.231797 96.77701 
L 172.253781 95.774924 
L 177.231675 94.572813 
L 182.157516 93.172601 
L 187.023423 91.576528 
L 191.821612 89.787147 
L 196.544407 87.807321 
L 201.184252 85.640218 
L 205.733725 83.289303 
L 210.185547 80.758339 
L 214.532597 78.051374 
L 218.76792 75.172738 
L 222.88474 72.127037 
L 226.876472 68.919144 
L 230.736729 65.55419 
L 232.791522 63.648 
L 236.577195 67.096649 
L 240.49775 70.391152 
L 244.546914 73.52624 
L 248.718208 76.496897 
L 253.004961 79.29837 
L 257.400314 81.926178 
L 261.897235 84.376117 
L 266.488531 86.644268 
L 271.166856 88.727001 
L 275.924726 90.620985 
L 280.754529 92.32319 
L 285.648539 93.830893 
L 290.598926 95.141681 
L 295.597772 96.253459 
L 300.637077 97.164447 
L 305.708782 97.873187 
L 310.804772 98.378547 
L 315.916895 98.679717 
L 320.457512 98.775573 
L 318.001355 103.269102 
L 315.726857 107.857256 
L 313.637655 112.532696 
L 311.737092 117.287941 
L 310.028208 122.115386 
L 308.513738 127.007306 
L 307.196104 131.955875 
L 306.077413 136.953178 
L 305.159456 141.991219 
L 304.443702 147.061939 
L 303.931294 152.157225 
L 303.623054 157.268926 
L 303.519473 162.388865 
L 303.620719 167.50885 
L 303.926628 172.620691 
L 304.436712 177.716211 
L 305.150154 182.787256 
L 306.065813 187.825715 
L 307.182224 192.823528 
L 308.497602 197.772698 
L 310.009841 202.665308 
L 311.716523 207.493531 
L 313.614918 212.249643 
L 315.701987 216.926035 
L 317.974393 221.515226 
L 320.4285 226.009874 
L 323.060382 230.402789 
L 325.865828 234.686942 
L 327.840325 237.493019 
L 322.736956 237.068603 
L 317.620698 236.848608 
L 312.499734 236.833384 
L 307.382257 237.022957 
L 302.276455 237.417022 
L 297.190496 238.014949 
L 292.132515 238.815783 
L 287.110605 239.818241 
L 282.1328 241.02072 
L 277.207063 242.421297 
L 272.341274 244.01773 
L 267.543217 245.807465 
L 262.820569 247.787641 
L 258.180884 249.955087 
L 253.631585 252.306339 
L 249.17995 254.837632 
L 244.833101 257.544919 
L 240.597991 260.423868 
L 236.481396 263.469873 
L 232.489902 266.678062 
L 228.629893 270.043302 
L 224.907546 273.560209 
L 221.328816 277.223157 
L 217.899427 281.026286 
L 214.624865 284.963512 
L 214.271594 285.408 
L 211.014524 281.456291 
L 207.602034 277.637992 
L 204.039583 273.959209 
L 200.332868 270.42583 
L 196.487821 267.043506 
L 192.510593 263.817648 
L 188.407547 260.753417 
L 184.185246 257.855715 
L 179.850445 255.129179 
L 175.410079 252.578168 
L 170.871251 250.206766 
L 166.241224 248.018766 
L 161.527403 246.017667 
L 156.737331 244.206671 
L 151.878669 242.588676 
L 146.535405 241.053647 
L 147.780323 236.086286 
L 148.825605 231.073114 
L 149.669577 226.022153 
L 150.310889 220.941482 
L 150.748516 215.839229 
L 150.981757 210.723557 
L 151.010239 205.602649 
L 150.833916 200.484699 
L 150.453071 195.377894 
L 149.868314 190.290404 
L 149.080578 185.230367 
L 148.091125 180.205878 
L 146.901538 175.224976 
L 145.513719 170.295629 
L 143.929889 165.425723 
L 142.152581 160.623049 
L 140.18464 155.89529 
L 138.029212 151.250009 
L 135.689748 146.694638 
L 133.169988 142.236464 
L 130.473964 137.88262 
L 129.84211 136.915988 
L 134.959029 137.120052 
L 140.080015 137.119331 
L 145.196876 136.913825 
L 150.301426 136.503864 
L 155.3855 135.890103 
L 160.440962 135.073524 
L 165.459726 134.055434 
L 170.433763 132.837462 
L 175.355116 131.421555 
L 180.215911 129.809979 
L 185.008371 128.005312 
L 189.724831 126.010442 
L 194.357745 123.828559 
L 198.899701 121.463154 
L 203.343432 118.918012 
L 207.681831 116.197203 
L 211.907956 113.305081 
L 216.015047 110.246273 
L 219.996532 107.025672 
L 223.846043 103.648429 
L 227.557422 100.119949 
L 231.12473 96.445876 
L 234.542261 92.632087 
L 237.804547 88.684684 
L 240.90637 84.609982 
L 243.842767 80.414499 
L 246.60904 76.104948 
L 249.200765 71.688223 
L 251.613795 67.171389 
L 253.339026 63.648 
L 255.612538 68.236643 
L 258.067728 72.7307 
L 260.700669 77.12298 
L 263.507148 81.406457 
L 266.482675 85.574279 
L 269.622491 89.619778 
L 272.921572 93.536481 
L 276.37464 97.318124 
L 279.976172 100.958655 
L 283.720405 104.452252 
L 287.60135 107.793325 
L 291.612798 110.976529 
L 295.748331 113.996772 
L 300.001334 116.849222 
L 304.365002 119.529315 
L 308.832356 122.032764 
L 313.396247 124.355564 
L 318.049374 126.493999 
L 322.784294 128.444649 
L 327.593432 130.204391 
L 332.469094 131.770412 
L 337.403481 133.140206 
L 340.767629 133.953729 
L 339.353158 138.875494 
L 338.136636 143.849886 
L 337.12001 148.868947 
L 336.304906 153.924648 
L 335.692628 159.008899 
L 335.284155 164.113569 
L 335.080142 169.23049 
L 335.080914 174.351476 
L 335.28647 179.468336 
L 335.696482 184.572882 
L 336.310293 189.656949 
L 337.126922 194.712403 
L 338.145061 199.731158 
L 339.363083 204.705183 
L 340.779039 209.626521 
L 341.914201 213.11635 
L 336.910883 214.207819 
L 331.955213 215.498494 
L 327.055121 216.986311 
L 322.218445 218.668889 
L 317.452923 220.543537 
L 312.766179 222.607255 
L 308.165711 224.856742 
L 303.658878 227.2884 
L 299.25289 229.898338 
L 294.954797 232.68238 
L 290.771473 235.636074 
L 286.709612 238.754693 
L 282.775711 242.033249 
L 278.976065 245.466496 
L 275.316751 249.048942 
L 271.803623 252.774857 
L 268.442303 256.638278 
L 265.238167 260.633027 
L 262.196341 264.752711 
L 259.321692 268.99074 
L 256.618818 273.340335 
L 254.092044 277.794537 
L 251.745411 282.34622 
L 250.293578 285.408 
L 248.068222 280.79581 
L 245.660208 276.2763 
L 243.073389 271.8567 
L 240.311901 267.54408 
L 237.380164 263.34534 
L 234.282866 259.267197 
L 231.024965 255.316175 
L 227.61167 251.498594 
L 224.048443 247.820563 
L 220.340984 244.287964 
L 216.495225 240.90645 
L 212.517317 237.681431 
L 208.413625 234.618064 
L 204.190713 231.721252 
L 199.855338 228.995629 
L 195.414435 226.445555 
L 190.875108 224.075109 
L 186.244619 221.888084 
L 181.530377 219.887978 
L 176.739923 218.077992 
L 171.88092 216.461021 
L 166.961143 215.039651 
L 161.988461 213.816157 
L 156.97083 212.792496 
L 151.916277 211.970305 
L 146.832889 211.350901 
L 141.728797 210.935273 
L 136.612167 210.724086 
L 131.491184 210.71768 
L 129.060573 210.78635 
L 131.699338 206.397567 
L 134.160489 201.906772 
L 136.440087 197.32115 
L 138.534486 192.648036 
L 140.440334 187.894906 
L 142.154584 183.069364 
L 143.674492 178.179131 
L 144.997627 173.232029 
L 146.121873 168.235974 
L 147.04543 163.198956 
L 147.766822 158.129036 
L 148.284894 153.034322 
L 148.598817 147.922967 
L 148.70809 142.803146 
L 148.612537 137.683052 
L 148.312311 132.570873 
L 147.807892 127.47479 
L 147.100089 122.402955 
L 146.190032 117.363481 
L 145.079177 112.36443 
L 144.759297 111.078661 
L 149.659678 109.591795 
L 154.496681 107.910156 
L 159.262566 106.036434 
L 163.949711 103.973625 
L 168.550616 101.725031 
L 173.057921 99.294249 
L 177.464415 96.685166 
L 181.763049 93.901958 
L 185.946946 90.949077 
L 190.009413 87.831247 
L 193.94395 84.553455 
L 197.744263 81.120945 
L 201.404272 77.539209 
L 204.918123 73.813977 
L 208.280193 69.951208 
L 211.485105 65.957081 
L 213.222049 63.648 
L 216.336011 67.713432 
L 219.610056 71.651088 
L 223.038947 75.454666 
L 226.617197 79.118084 
L 230.339083 82.635478 
L 234.19865 86.001224 
L 238.189724 89.209936 
L 242.30592 92.256481 
L 246.540652 95.135985 
L 250.887146 97.843842 
L 255.33845 100.375719 
L 259.88744 102.727566 
L 264.526841 104.895621 
L 269.24923 106.876416 
L 274.047052 108.66678 
L 278.912631 110.263851 
L 283.838185 111.665073 
L 288.815833 112.868205 
L 293.837611 113.871321 
L 298.895487 114.672818 
L 303.981368 115.271412 
L 309.087118 115.666147 
L 314.20457 115.85639 
L 319.325535 115.841837 
L 324.441823 115.622512 
L 329.91698 115.159853 
L 326.986021 119.359136 
L 324.225334 123.672268 
L 321.639333 128.092348 
L 319.232158 132.612304 
L 317.007658 137.224907 
L 314.969392 141.922776 
L 313.120622 146.698396 
L 311.464304 151.544128 
L 310.003088 156.452218 
L 308.739313 161.414816 
L 307.674999 166.423981 
L 306.81185 171.471701 
L 306.151246 176.5499 
L 305.694245 181.650454 
L 305.441577 186.765203 
L 305.393646 191.885965 
L 305.55053 197.004548 
L 305.911976 202.112763 
L 306.477408 207.202438 
L 307.24592 212.26543 
L 308.216284 217.29364 
L 309.386945 222.279024 
L 310.756033 227.213606 
L 312.321356 232.089492 
L 314.08041 236.898882 
L 316.030382 241.634081 
L 318.168151 246.287515 
L 320.316334 250.524954 
L 315.203332 250.810813 
L 310.105851 251.300908 
L 305.032047 251.994457 
L 299.990035 252.890348 
L 294.987883 253.98715 
L 290.033592 255.283107 
L 285.135089 256.776146 
L 280.300209 258.463879 
L 275.536689 260.343606 
L 270.852147 262.412318 
L 266.254079 264.666708 
L 261.749841 267.103169 
L 257.346638 269.717801 
L 253.051514 272.506424 
L 248.871342 275.464575 
L 244.812807 278.587522 
L 240.882404 281.87027 
L 236.979988 285.408 
L 233.187935 281.966368 
L 229.261286 278.67913 
L 225.206323 275.551546 
L 221.029534 272.58862 
L 216.737601 269.79509 
L 212.337389 267.175426 
L 207.835939 264.733819 
L 203.240451 262.474175 
L 198.558277 260.400109 
L 193.796907 258.514939 
L 188.96396 256.821682 
L 184.067166 255.323045 
L 179.11436 254.021426 
L 174.113465 252.918907 
L 169.07248 252.017254 
L 163.999472 251.317907 
L 158.902555 250.821985 
L 153.789883 250.530283 
L 151.975406 250.476007 
L 154.343733 245.935574 
L 156.528595 241.304064 
L 158.526499 236.588889 
L 160.334249 231.79759 
L 161.948951 226.937833 
L 163.368023 222.017392 
L 164.589195 217.04414 
L 165.610514 212.026032 
L 166.430344 206.971096 
L 167.047375 201.887418 
L 167.46062 196.783133 
L 167.669417 191.666405 
L 167.673433 186.54542 
L 167.472661 181.428371 
L 167.067422 176.323443 
L 166.458364 171.238805 
L 165.646462 166.182589 
L 164.633015 161.162885 
L 163.419644 156.187724 
L 162.00829 151.265063 
L 160.401212 146.40278 
L 158.600979 141.608652 
L 156.610472 136.890349 
L 154.432876 132.255419 
L 152.071673 127.711277 
L 149.530643 123.265193 
L 146.813849 118.924279 
L 143.925637 114.695481 
L 143.229512 113.728327 
L 148.332043 114.1627 
L 153.447863 114.392679 
L 158.568787 114.417897 
L 163.686624 114.238311 
L 168.793185 113.85421 
L 173.880302 113.266209 
L 178.939835 112.475247 
L 183.963692 111.482591 
L 188.943834 110.289828 
L 193.872295 108.898867 
L 198.741191 107.311932 
L 203.542731 105.531563 
L 208.269234 103.560608 
L 212.91314 101.402219 
L 217.467019 99.05985 
L 221.923585 96.537249 
L 226.275709 93.83845 
L 230.516429 90.967771 
L 234.63896 87.929805 
L 238.636708 84.729411 
L 242.503276 81.371711 
L 246.232478 77.862074 
L 249.81835 74.206117 
L 253.255155 70.409687 
L 256.537393 66.478859 
L 258.742192 63.648 
L 261.91299 67.669261 
L 265.24206 71.560508 
L 268.724074 75.315514 
L 272.353464 78.928274 
L 276.124422 82.393007 
L 280.030917 85.70417 
L 284.066698 88.856467 
L 288.225309 91.844854 
L 292.500097 94.664551 
L 296.884223 97.311046 
L 301.370675 99.780106 
L 305.952273 102.067781 
L 310.62169 104.17041 
L 315.371454 106.084632 
L 320.193967 107.807382 
L 325.081514 109.335904 
L 326.842419 109.834557 
L 325.651072 114.815038 
L 324.659845 119.839177 
L 323.870322 124.898935 
L 323.283767 129.986219 
L 322.901119 135.092889 
L 322.722989 140.210777 
L 322.749662 145.331694 
L 322.981096 150.447448 
L 323.416921 155.549855 
L 324.056439 160.630752 
L 324.898627 165.682012 
L 325.942138 170.695552 
L 327.185302 175.663353 
L 328.626131 180.577466 
L 330.26232 185.430032 
L 332.09125 190.213285 
L 334.109997 194.919575 
L 336.31533 199.541372 
L 338.703722 204.071282 
L 341.271352 208.502058 
L 342.989014 211.254721 
L 337.869887 211.116714 
L 332.749337 211.183528 
L 327.635554 211.455056 
L 322.53672 211.930863 
L 317.460991 212.610189 
L 312.416489 213.491947 
L 307.411282 214.574725 
L 302.453379 215.856793 
L 297.550711 217.336098 
L 292.71112 219.010274 
L 287.94235 220.876643 
L 283.252029 222.932219 
L 278.647661 225.173714 
L 274.136612 227.597541 
L 269.726099 230.199823 
L 265.423177 232.976397 
L 261.23473 235.922822 
L 257.167459 239.034382 
L 253.227871 242.306102 
L 249.422268 245.732745 
L 245.756738 249.308832 
L 242.237146 253.028639 
L 238.869121 256.886218 
L 235.658053 260.875396 
L 232.609077 264.989792 
L 229.727073 269.222823 
L 227.01665 273.567717 
L 224.482144 278.017524 
L 222.12761 282.565125 
L 220.770278 285.408 
L 218.528343 280.803846 
L 216.104085 276.293029 
L 213.501381 271.882764 
L 210.724396 267.580108 
L 207.777571 263.391943 
L 204.665622 259.324969 
L 201.393526 255.385693 
L 197.966519 251.580418 
L 194.390082 247.91523 
L 190.669938 244.395993 
L 186.812038 241.028337 
L 182.822553 237.81765 
L 178.707866 234.769067 
L 174.47456 231.887467 
L 170.129406 229.177459 
L 165.679357 226.643379 
L 161.131531 224.28928 
L 156.493204 222.118928 
L 151.771797 220.135797 
L 146.974861 218.343057 
L 142.110073 216.743578 
L 137.185213 215.339917 
L 132.208162 214.134322 
L 130.821062 213.835608 
L 132.31987 208.938866 
L 133.621661 203.986105 
L 134.724353 198.985248 
L 135.626183 193.944295 
L 136.325706 188.871311 
L 136.821805 183.774411 
L 137.113686 178.66175 
L 137.20088 173.541506 
L 137.083251 168.421871 
L 136.760984 163.311034 
L 136.234596 158.217174 
L 135.504929 153.148437 
L 134.573151 148.112934 
L 133.440751 143.11872 
L 132.109542 138.173785 
L 131.072859 134.784267 
L 136.055536 133.602136 
L 140.986954 132.221697 
L 145.859225 130.645158 
L 150.664555 128.875041 
L 155.395254 126.914178 
L 160.043756 124.765706 
L 164.602623 122.433062 
L 169.064564 119.919977 
L 173.422438 117.230473 
L 177.669275 114.368852 
L 181.798281 111.339691 
L 185.80285 108.147838 
L 189.676575 104.798397 
L 193.41326 101.296728 
L 197.006927 97.648433 
L 200.451826 93.859347 
L 203.742447 89.935533 
L 206.873525 85.883267 
L 209.840051 81.709034 
L 212.637279 77.41951 
L 215.260735 73.021558 
L 217.706221 68.522213 
L 220.100812 63.648 
L 222.353297 68.247001 
L 224.787891 72.752249 
L 227.400699 77.156535 
L 230.187542 81.452813 
L 233.143961 85.634211 
L 236.265227 89.694039 
L 239.546345 93.625802 
L 242.982068 97.423211 
L 246.566898 101.080189 
L 250.295101 104.590888 
L 254.160713 107.94969 
L 258.157548 111.151222 
L 262.279214 114.190362 
L 266.519116 117.062249 
L 270.870471 119.762288 
L 275.326319 122.286159 
L 279.87953 124.629825 
L 284.52282 126.789536 
L 289.248762 128.761838 
L 294.049795 130.543575 
L 298.918238 132.131896 
L 303.846303 133.524262 
L 308.826105 134.718443 
L 313.849679 135.71253 
L 318.908987 136.504933 
L 323.995936 137.094384 
L 329.102388 137.479939 
L 334.220173 137.660982 
L 339.341104 137.637224 
L 342.817535 137.504269 
L 340.117275 141.855487 
L 337.593177 146.311206 
L 335.249279 150.864298 
L 333.089332 155.507479 
L 331.11679 160.233321 
L 329.334809 165.034263 
L 327.74624 169.902625 
L 326.353624 174.830619 
L 325.159189 179.81036 
L 324.164846 184.833884 
L 323.372186 189.893151 
L 322.782477 194.98007 
L 322.396662 200.086503 
L 322.215358 205.204278 
L 322.238856 210.325211 
L 322.467118 215.441108 
L 322.899778 220.543784 
L 323.536145 225.625077 
L 324.3752 230.676858 
L 325.415602 235.691044 
L 326.451836 239.897953 
L 321.537664 241.338585 
L 316.685033 242.974579 
L 311.901706 244.803318 
L 307.195336 246.821876 
L 302.57345 249.027024 
L 298.043444 251.415234 
L 293.612565 253.982686 
L 289.2879 256.725272 
L 285.076369 259.638605 
L 280.984709 262.718023 
L 277.019466 265.958602 
L 273.186983 269.355155 
L 269.493392 272.90225 
L 265.944601 276.594212 
L 262.546287 280.425135 
L 259.303888 284.38889 
L 258.511992 285.408 
L 255.309713 281.411763 
L 251.950189 277.546779 
L 248.438794 273.819232 
L 244.781146 270.235085 
L 240.983095 266.800072 
L 237.050719 263.519688 
L 232.990308 260.399181 
L 228.808358 257.443543 
L 224.511559 254.657503 
L 220.106785 252.045517 
L 215.601083 249.611765 
L 211.001661 247.36014 
L 206.315876 245.294243 
L 201.551226 243.417381 
L 196.715333 241.732555 
L 191.815933 240.24246 
L 186.860864 238.949481 
L 181.858054 237.855687 
L 176.815504 236.962826 
L 171.741284 236.272328 
L 166.64351 235.785297 
L 161.530337 235.502512 
L 156.409946 235.424426 
L 151.290528 235.551163 
L 146.180273 235.882521 
L 143.686376 236.118984 
L 146.611269 231.915473 
L 149.365726 227.59836 
L 151.945342 223.174552 
L 154.34599 218.651125 
L 156.563828 214.035315 
L 158.59531 209.334508 
L 160.437184 204.556224 
L 162.086504 199.708107 
L 163.540632 194.797912 
L 164.797242 189.833495 
L 165.854323 184.822798 
L 166.710183 179.773837 
L 167.363455 174.69469 
L 167.813092 169.593482 
L 168.058376 164.478373 
L 168.098913 159.357547 
L 167.93464 154.239196 
L 167.565819 149.131508 
L 166.99304 144.042655 
L 166.217219 138.980778 
L 165.239597 133.953974 
L 164.061739 128.970285 
L 162.685529 124.037685 
L 161.113168 119.164063 
L 159.347172 114.357218 
L 157.390366 109.624839 
L 155.245881 104.974497 
L 152.917147 100.413631 
L 151.94458 98.633385 
L 157.062309 98.450756 
L 162.168641 98.063618 
L 167.255407 97.472592 
L 172.31447 96.678621 
L 177.337735 95.682977 
L 182.317167 94.487253 
L 187.2448 93.09336 
L 192.112751 91.50353 
L 196.913231 89.720306 
L 201.638562 87.746539 
L 206.281183 85.585389 
L 210.833668 83.240313 
L 215.288733 80.715061 
L 219.639251 78.013674 
L 223.878263 75.140473 
L 227.998987 72.100056 
L 231.99483 68.897285 
L 235.8594 65.537286 
L 237.90155 63.648 
L 241.692202 67.091175 
L 245.617513 70.38001 
L 249.671202 73.509244 
L 253.846785 76.473871 
L 258.137581 79.269148 
L 262.536726 81.890602 
L 267.037183 84.334041 
L 271.631751 86.595555 
L 276.31308 88.671526 
L 281.073682 90.558633 
L 285.90594 92.253858 
L 290.802123 93.754488 
L 295.754399 95.058122 
L 300.754846 96.162676 
L 305.795463 97.066381 
L 310.868186 97.767793 
L 315.964901 98.265789 
L 320.315019 98.528768 
L 318.04047 103.116897 
L 315.951217 107.792314 
L 314.050602 112.547539 
L 312.341666 117.374965 
L 310.827142 122.266868 
L 309.509453 127.215424 
L 308.390708 132.212714 
L 307.472696 137.250745 
L 306.756886 142.321457 
L 306.244423 147.416737 
L 305.936127 152.528435 
L 305.832491 157.648373 
L 305.93368 162.768359 
L 306.239534 167.880204 
L 306.749562 172.975729 
L 307.462948 178.046782 
L 308.378553 183.085251 
L 309.494909 188.083076 
L 310.810233 193.03226 
L 312.322419 197.924887 
L 314.029048 202.753128 
L 315.92739 207.509261 
L 318.014409 212.185676 
L 320.286764 216.774892 
L 322.740822 221.269567 
L 325.372656 225.66251 
L 328.178056 229.946694 
L 330.389058 233.078484 
L 325.287044 232.638082 
L 320.1715 232.402058 
L 315.050609 232.370791 
L 309.932563 232.54433 
L 304.825552 232.922397 
L 299.737744 233.504387 
L 294.677279 234.28937 
L 289.652253 235.27609 
L 284.670705 236.462968 
L 279.740604 237.848105 
L 274.869837 239.429286 
L 270.066197 241.203981 
L 265.337368 243.169351 
L 260.690915 245.322251 
L 256.134272 247.659238 
L 251.674729 250.176572 
L 247.319419 252.870227 
L 243.07531 255.735894 
L 238.949193 258.768987 
L 234.947667 261.964655 
L 231.077134 265.317785 
L 227.343787 268.823013 
L 223.753598 272.474731 
L 220.312311 276.267097 
L 217.02543 280.194045 
L 213.898215 284.249292 
L 213.05108 285.408 
L 209.969523 281.31795 
L 206.726873 277.354401 
L 203.328316 273.523694 
L 199.779291 269.831957 
L 196.085474 266.285097 
L 192.252776 262.888786 
L 188.287327 259.64846 
L 184.195471 256.569301 
L 179.983755 253.656235 
L 175.658917 250.913924 
L 171.227874 248.346753 
L 166.697717 245.95883 
L 162.075692 243.753976 
L 157.369193 241.735717 
L 152.58575 239.907281 
L 147.733015 238.271596 
L 144.342267 237.255022 
L 145.490495 232.264423 
L 146.438233 227.2319 
L 147.183966 222.165502 
L 147.7265 217.073336 
L 148.064969 211.963547 
L 148.198829 206.844311 
L 148.127867 201.723816 
L 147.852197 196.610255 
L 147.37226 191.511808 
L 146.688823 186.436631 
L 145.80298 181.392845 
L 144.716148 176.388517 
L 143.430065 171.431654 
L 141.946789 166.530185 
L 140.268694 161.691952 
L 138.398463 156.924695 
L 136.339088 152.236041 
L 134.093865 147.63349 
L 131.666384 143.124406 
L 128.927133 138.500773 
L 134.047736 138.563434 
L 139.166749 138.421276 
L 144.275983 138.074525 
L 149.367263 137.523736 
L 154.432445 136.769792 
L 159.463426 135.813897 
L 164.452156 134.657581 
L 169.390656 133.302694 
L 174.271025 131.751403 
L 179.085455 130.006191 
L 183.826244 128.069849 
L 188.485808 125.945474 
L 193.056693 123.636466 
L 197.531585 121.146519 
L 201.903327 118.479615 
L 206.164924 115.640021 
L 210.309559 112.632281 
L 214.330601 109.461205 
L 218.221617 106.131866 
L 221.976383 102.649592 
L 225.588892 99.019952 
L 229.053364 95.248754 
L 232.364257 91.342031 
L 235.516275 87.306032 
L 238.504374 83.147215 
L 241.323775 78.872232 
L 243.969967 74.487922 
L 246.438717 70.0013 
L 248.726075 65.419543 
L 249.550155 63.648 
L 251.767329 68.264128 
L 254.167326 72.787901 
L 256.746305 77.21208 
L 259.500142 81.52959 
L 262.42443 85.733521 
L 265.514492 89.81715 
L 268.765383 93.773942 
L 272.171904 97.597569 
L 275.728604 101.281912 
L 279.429793 104.821078 
L 283.269551 108.209406 
L 287.241734 111.441473 
L 291.339989 114.512111 
L 295.557757 117.416406 
L 299.888293 120.149711 
L 304.324668 122.707656 
L 308.859785 125.086146 
L 313.486389 127.281378 
L 318.197077 129.289839 
L 322.984315 131.108316 
L 327.840443 132.7339 
L 332.757692 134.16399 
L 337.728197 135.396299 
L 342.13015 136.313684 
L 340.540193 141.181593 
L 339.146173 146.10919 
L 337.950319 151.088591 
L 336.954544 156.11183 
L 336.160442 161.170872 
L 335.569282 166.257623 
L 335.182012 171.363945 
L 334.999249 176.481669 
L 335.021287 181.602608 
L 335.248091 186.718569 
L 335.679297 191.821369 
L 336.314215 196.902843 
L 337.151831 201.954863 
L 338.190803 206.969346 
L 339.42947 211.93827 
L 340.479544 215.601249 
L 335.517165 216.86588 
L 330.609327 218.327942 
L 325.763881 219.985095 
L 320.988579 221.834689 
L 316.291062 223.873765 
L 311.678843 226.09906 
L 307.159301 228.507015 
L 302.739667 231.093777 
L 298.427012 233.855208 
L 294.228233 236.786891 
L 290.15005 239.884134 
L 286.198985 243.141985 
L 282.38136 246.55523 
L 278.703282 250.118408 
L 275.170635 253.825821 
L 271.789071 257.671536 
L 268.563999 261.649402 
L 265.500579 265.753054 
L 262.603712 269.975928 
L 259.878032 274.311268 
L 257.3279 278.752138 
L 254.957395 283.291434 
L 253.929554 285.408 
L 251.642867 280.825908 
L 249.174774 276.338925 
L 246.529224 271.954228 
L 243.710449 267.678832 
L 240.722959 263.519577 
L 237.571532 259.483117 
L 234.261211 255.575909 
L 230.797291 251.804204 
L 227.185313 248.174035 
L 223.431057 244.691211 
L 219.540528 241.361303 
L 215.519951 238.189639 
L 211.375756 235.181291 
L 207.114575 232.341074 
L 202.743224 229.67353 
L 198.268696 227.182927 
L 193.69815 224.87325 
L 189.038897 222.748193 
L 184.298392 220.811157 
L 179.484217 219.06524 
L 174.604076 217.513235 
L 169.665774 216.157625 
L 164.677212 215.000578 
L 159.646372 214.043947 
L 154.5813 213.289261 
L 149.490101 212.737727 
L 144.380918 212.390228 
L 139.261926 212.24732 
L 134.141314 212.309231 
L 130.053358 212.505905 
L 132.806693 208.188076 
L 135.385158 203.763596 
L 137.784629 199.239545 
L 140.001266 194.623159 
L 142.031525 189.921823 
L 143.872156 185.14306 
L 145.520215 180.294514 
L 146.973066 175.383941 
L 148.228384 170.419197 
L 149.284161 165.408226 
L 150.138708 160.359042 
L 150.790658 155.279725 
L 151.238969 150.1784 
L 151.482922 145.063228 
L 151.522127 139.942391 
L 151.356523 134.824083 
L 150.986373 129.716492 
L 150.41227 124.627788 
L 149.635132 119.566112 
L 148.656203 114.539563 
L 147.477049 109.556181 
L 146.895233 107.379112 
L 151.825667 105.99516 
L 156.696813 104.41515 
L 161.50088 102.64161 
L 166.230182 100.677378 
L 170.877152 98.525595 
L 175.434356 96.189703 
L 179.894505 93.673441 
L 184.250462 90.980833 
L 188.49526 88.116187 
L 192.622107 85.084086 
L 196.624401 81.88938 
L 200.495739 78.537181 
L 204.229929 75.032851 
L 207.820996 71.381996 
L 211.263195 67.590457 
L 214.564121 63.648 
L 217.851304 67.574694 
L 221.292884 71.366795 
L 224.883355 75.018237 
L 228.616972 78.523177 
L 232.487763 81.876008 
L 236.489535 85.071368 
L 240.615886 88.104143 
L 244.860216 90.969482 
L 249.215733 93.662802 
L 253.675471 96.179792 
L 258.232294 98.516428 
L 262.878912 100.66897 
L 267.607893 102.633975 
L 272.41167 104.4083 
L 277.282559 105.989105 
L 282.212766 107.373863 
L 287.194406 108.560357 
L 292.219508 109.546689 
L 297.280033 110.331282 
L 302.367886 110.912881 
L 307.474927 111.290554 
L 312.592985 111.463698 
L 317.713874 111.432036 
L 322.8294 111.195618 
L 327.405464 110.809779 
L 324.490097 115.019902 
L 321.745422 119.343241 
L 319.17583 123.77288 
L 316.785432 128.301732 
L 314.578051 132.922551 
L 312.55722 137.627947 
L 310.726171 142.41039 
L 309.087833 147.262229 
L 307.644828 152.175705 
L 306.399463 157.142954 
L 305.353732 162.156032 
L 304.509306 167.206918 
L 303.867538 172.287531 
L 303.429453 177.389745 
L 303.195753 182.505396 
L 303.166811 187.626301 
L 303.342674 192.744266 
L 303.723061 197.851106 
L 304.307362 202.938649 
L 305.094643 207.998756 
L 306.083645 213.023334 
L 307.272786 218.004342 
L 308.660162 222.933814 
L 310.243555 227.803862 
L 312.020431 232.606696 
L 313.987948 237.334632 
L 316.142959 241.980106 
L 318.482015 246.535687 
L 320.519562 250.172952 
L 315.399289 250.258399 
L 310.286528 250.548534 
L 305.189459 251.042893 
L 300.116236 251.740684 
L 295.074976 252.640792 
L 290.073742 253.741777 
L 285.120537 255.041878 
L 280.223284 256.539013 
L 275.389818 258.230789 
L 270.627871 260.114499 
L 265.945061 262.187129 
L 261.348881 264.445364 
L 256.846682 266.88559 
L 252.445667 269.503905 
L 248.152877 272.296119 
L 243.97518 275.257765 
L 239.919259 278.384106 
L 235.991602 281.670139 
L 231.884578 285.408 
L 228.103111 281.95474 
L 224.186575 278.65546 
L 220.141236 275.515439 
L 215.973565 272.5397 
L 211.69023 269.733003 
L 207.298084 267.09984 
L 202.804152 264.644422 
L 198.215624 262.370677 
L 193.539841 260.282243 
L 188.784283 258.382461 
L 183.956559 256.67437 
L 179.06439 255.160703 
L 174.115604 253.843881 
L 169.118118 252.726012 
L 164.079926 251.808882 
L 159.009089 251.093961 
L 153.913719 250.58239 
L 151.954808 250.440329 
L 154.130826 245.804658 
L 156.119726 241.085677 
L 157.918327 236.290937 
L 159.52375 231.428106 
L 160.933427 226.504966 
L 162.145104 221.529392 
L 163.156842 216.509343 
L 163.967022 211.452851 
L 164.574348 206.368005 
L 164.977849 201.26294 
L 165.176879 196.145823 
L 165.17112 191.02484 
L 164.960581 185.908183 
L 164.545598 180.804039 
L 163.926836 175.720572 
L 163.105284 170.665915 
L 162.082257 165.648155 
L 160.859392 160.675318 
L 159.438644 155.755361 
L 157.822287 150.896154 
L 156.012907 146.105471 
L 154.013397 141.390976 
L 151.826958 136.760211 
L 149.457086 132.220585 
L 146.907573 127.779359 
L 144.182498 123.443639 
L 141.28622 119.220361 
L 140.60391 118.276002 
L 145.705695 118.719056 
L 150.821116 118.957738 
L 155.94199 118.991667 
L 161.060125 118.820789 
L 166.167332 118.445377 
L 171.255442 117.866031 
L 176.316314 117.083678 
L 181.341852 116.09957 
L 186.324016 114.915282 
L 191.254837 113.532707 
L 196.126425 111.954058 
L 200.930987 110.18186 
L 205.660837 108.218949 
L 210.308408 106.068464 
L 214.866265 103.733846 
L 219.327116 101.21883 
L 223.683826 98.527439 
L 227.929423 95.663979 
L 232.057117 92.633031 
L 236.060303 89.439443 
L 239.932578 86.088326 
L 243.667746 82.585039 
L 247.259833 78.935187 
L 250.703091 75.14461 
L 253.992012 71.219371 
L 257.121335 67.165751 
L 259.635533 63.648 
L 262.626195 67.804976 
L 265.780699 71.839032 
L 269.093998 75.743714 
L 272.560794 79.512777 
L 276.175538 83.14019 
L 279.932449 86.62015 
L 283.825516 89.94709 
L 287.848511 93.115688 
L 291.994998 96.120874 
L 296.258344 98.957842 
L 300.631728 101.622052 
L 305.108154 104.109241 
L 309.68046 106.415433 
L 314.341332 108.536936 
L 319.083313 110.470356 
L 323.898818 112.212602 
L 329.176455 113.877225 
L 328.060516 118.875143 
L 327.145334 123.913689 
L 326.432372 128.984802 
L 325.92277 134.080369 
L 325.617344 139.19224 
L 325.516584 144.312235 
L 325.620648 149.432163 
L 325.929373 154.543836 
L 326.442262 159.639073 
L 327.158497 164.709725 
L 328.07693 169.747679 
L 329.196094 174.744876 
L 330.514196 179.693321 
L 332.02913 184.585097 
L 333.73847 189.41238 
L 335.639483 194.167446 
L 337.729127 198.842688 
L 340.00406 203.430627 
L 342.460642 207.923923 
L 343.695179 210.031607 
L 338.574237 210.053104 
L 333.458252 210.279366 
L 328.355407 210.710033 
L 323.273865 211.344414 
L 318.221757 212.181495 
L 313.207165 213.219938 
L 308.23811 214.458079 
L 303.322542 215.89394 
L 298.468325 217.525222 
L 293.683225 219.349317 
L 288.974897 221.363305 
L 284.350873 223.563965 
L 279.818551 225.947777 
L 275.385181 228.510926 
L 271.057856 231.249312 
L 266.843499 234.158555 
L 262.748852 237.234 
L 258.780464 240.470728 
L 254.944686 243.863559 
L 251.247653 247.407067 
L 247.695279 251.095583 
L 244.293249 254.923205 
L 241.047004 258.88381 
L 237.961737 262.971062 
L 235.042385 267.178423 
L 232.293617 271.499161 
L 229.719832 275.926365 
L 227.325146 280.452951 
L 224.961114 285.408 
L 222.762686 280.782914 
L 220.381063 276.249442 
L 217.820055 271.814835 
L 215.083757 267.486189 
L 212.176549 263.270427 
L 209.103081 259.174295 
L 205.86827 255.204346 
L 202.477291 251.36693 
L 198.935568 247.668187 
L 195.248768 244.114033 
L 191.422789 240.710155 
L 187.463752 237.461998 
L 183.377989 234.374758 
L 179.172039 231.453375 
L 174.852628 228.702522 
L 170.426667 226.1266 
L 165.901238 223.729729 
L 161.283579 221.515744 
L 156.581078 219.488188 
L 151.801258 217.650303 
L 146.951765 216.00503 
L 142.040358 214.555001 
L 137.074894 213.302536 
L 132.063317 212.249639 
L 129.656038 211.817727 
L 129.656038 211.817727 
" style="fill:none;stroke:#1f77b4;stroke-linecap:square;stroke-width:1.5;"/>
   </g>
   <g id="patch_4">
    <path d="M 82.520165 307.584 
L 82.520165 41.472 
" style="fill:none;stroke:#000000;stroke-linecap:square;stroke-linejoin:miter;stroke-width:0.8;"/>
   </g>
   <g id="patch_5">
    <path d="M 389.799835 307.584 
L 389.799835 41.472 
" style="fill:none;stroke:#000000;stroke-linecap:square;stroke-linejoin:miter;stroke-width:0.8;"/>
   </g>
   <g id="patch_6">
    <path d="M 82.520165 307.584 
L 389.799835 307.584 
" style="fill:none;stroke:#000000;stroke-linecap:square;stroke-linejoin:miter;stroke-width:0.8;"/>
   </g>
   <g id="patch_7">
    <path d="M 82.520165 41.472 
L 389.799835 41.472 
" style="fill:none;stroke:#000000;stroke-linecap:square;stroke-linejoin:miter;stroke-width:0.8;"/>
   </g>
  </g>
 </g>
 <defs>
  <clipPath id="p821b5a8bbe">
   <rect height="266.112" width="307.27967" x="82.520165" y="41.472"/>
  </clipPath>
 </defs>
</svg>
