<?xml version="1.0" encoding="utf-8" standalone="no"?>
<!DOCTYPE svg PUBLIC "-//W3C//DTD SVG 1.1//EN"
  "http://www.w3.org/Graphics/SVG/1.1/DTD/svg11.dtd">
<!-- Created with matplotlib (http://matplotlib.org/) -->
<svg height="345.6pt" version="1.1" viewBox="0 0 460.8 345.6" width="460.8pt" xmlns="http://www.w3.org/2000/svg" xmlns:xlink="http://www.w3.org/1999/xlink">
 <defs>
  <style type="text/css">
*{stroke-linecap:butt;stroke-linejoin:round;}
  </style>
 </defs>
 <g id="figure_1">
  <g id="patch_1">
   <path d="M 0 345.6 
L 460.8 345.6 
L 460.8 0 
L 0 0 
z
" style="fill:#ffffff;"/>
  </g>
  <g id="axes_1">
   <g id="patch_2">
    <path d="M 82.520165 307.584 
L 389.799835 307.584 
L 389.799835 41.472 
L 82.520165 41.472 
z
" style="fill:#ffffff;"/>
   </g>
   <g id="PathCollection_1">
    <defs>
     <path d="M 0 2.738613 
C 0.726289 2.738613 1.422928 2.450055 1.936492 1.936492 
C 2.450055 1.422928 2.738613 0.726289 2.738613 0 
C 2.738613 -0.726289 2.450055 -1.422928 1.936492 -1.936492 
C 1.422928 -2.450055 0.726289 -2.738613 0 -2.738613 
C -0.726289 -2.738613 -1.422928 -2.450055 -1.936492 -1.936492 
C -2.450055 -1.422928 -2.738613 -0.726289 -2.738613 0 
C -2.738613 0.726289 -2.450055 1.422928 -1.936492 1.936492 
C -1.422928 2.450055 -0.726289 2.738613 0 2.738613 
z
" id="md3178c3caa" style="stroke:#000000;"/>
    </defs>
    <g clip-path="url(#pa156980a4a)">
     <use style="stroke:#000000;" x="355.817722" xlink:href="#md3178c3caa" y="160.021254"/>
    </g>
   </g>
   <g id="Quiver_1">
    <path clip-path="url(#pa156980a4a)" d="M 356.047355 160.754328 
L 339.186641 166.035905 
L 340.378983 167.272421 
L 332.359336 167.369535 
L 339.00118 162.873973 
L 338.727373 164.569756 
L 355.588088 159.288179 
L 356.047355 160.754328 
"/>
   </g>
   <g id="patch_3">
    <path clip-path="url(#pa156980a4a)" d="M 236.16 225.741278 
C 249.74192 225.741278 262.769389 220.345124 272.373256 210.741256 
C 281.977124 201.137389 287.373278 188.10992 287.373278 174.528 
C 287.373278 160.94608 281.977124 147.918611 272.373256 138.314744 
C 262.769389 128.710876 249.74192 123.314722 236.16 123.314722 
C 222.57808 123.314722 209.550611 128.710876 199.946744 138.314744 
C 190.342876 147.918611 184.946722 160.94608 184.946722 174.528 
C 184.946722 188.10992 190.342876 201.137389 199.946744 210.741256 
C 209.550611 220.345124 222.57808 225.741278 236.16 225.741278 
z
" style="fill:#009900;fill-opacity:0.5;stroke:#009900;stroke-linejoin:miter;stroke-width:2;"/>
   </g>
   <g id="matplotlib.axis_1">
    <g id="xtick_1">
     <g id="line2d_1">
      <defs>
       <path d="M 0 0 
L 0 3.5 
" id="m16f67aa924" style="stroke:#000000;stroke-width:0.8;"/>
      </defs>
      <g>
       <use style="stroke:#000000;stroke-width:0.8;" x="108.126804" xlink:href="#m16f67aa924" y="307.584"/>
      </g>
     </g>
     <g id="text_1">
      <!-- −2 -->
      <defs>
       <path d="M 10.59375 35.5 
L 73.1875 35.5 
L 73.1875 27.203125 
L 10.59375 27.203125 
z
" id="DejaVuSans-2212"/>
       <path d="M 19.1875 8.296875 
L 53.609375 8.296875 
L 53.609375 0 
L 7.328125 0 
L 7.328125 8.296875 
Q 12.9375 14.109375 22.625 23.890625 
Q 32.328125 33.6875 34.8125 36.53125 
Q 39.546875 41.84375 41.421875 45.53125 
Q 43.3125 49.21875 43.3125 52.78125 
Q 43.3125 58.59375 39.234375 62.25 
Q 35.15625 65.921875 28.609375 65.921875 
Q 23.96875 65.921875 18.8125 64.3125 
Q 13.671875 62.703125 7.8125 59.421875 
L 7.8125 69.390625 
Q 13.765625 71.78125 18.9375 73 
Q 24.125 74.21875 28.421875 74.21875 
Q 39.75 74.21875 46.484375 68.546875 
Q 53.21875 62.890625 53.21875 53.421875 
Q 53.21875 48.921875 51.53125 44.890625 
Q 49.859375 40.875 45.40625 35.40625 
Q 44.1875 33.984375 37.640625 27.21875 
Q 31.109375 20.453125 19.1875 8.296875 
z
" id="DejaVuSans-32"/>
      </defs>
      <g transform="translate(100.755711 322.182437)scale(0.1 -0.1)">
       <use xlink:href="#DejaVuSans-2212"/>
       <use x="83.789062" xlink:href="#DejaVuSans-32"/>
      </g>
     </g>
    </g>
    <g id="xtick_2">
     <g id="line2d_2">
      <g>
       <use style="stroke:#000000;stroke-width:0.8;" x="172.143402" xlink:href="#m16f67aa924" y="307.584"/>
      </g>
     </g>
     <g id="text_2">
      <!-- −1 -->
      <defs>
       <path d="M 12.40625 8.296875 
L 28.515625 8.296875 
L 28.515625 63.921875 
L 10.984375 60.40625 
L 10.984375 69.390625 
L 28.421875 72.90625 
L 38.28125 72.90625 
L 38.28125 8.296875 
L 54.390625 8.296875 
L 54.390625 0 
L 12.40625 0 
z
" id="DejaVuSans-31"/>
      </defs>
      <g transform="translate(164.772308 322.182437)scale(0.1 -0.1)">
       <use xlink:href="#DejaVuSans-2212"/>
       <use x="83.789062" xlink:href="#DejaVuSans-31"/>
      </g>
     </g>
    </g>
    <g id="xtick_3">
     <g id="line2d_3">
      <g>
       <use style="stroke:#000000;stroke-width:0.8;" x="236.16" xlink:href="#m16f67aa924" y="307.584"/>
      </g>
     </g>
     <g id="text_3">
      <!-- 0 -->
      <defs>
       <path d="M 31.78125 66.40625 
Q 24.171875 66.40625 20.328125 58.90625 
Q 16.5 51.421875 16.5 36.375 
Q 16.5 21.390625 20.328125 13.890625 
Q 24.171875 6.390625 31.78125 6.390625 
Q 39.453125 6.390625 43.28125 13.890625 
Q 47.125 21.390625 47.125 36.375 
Q 47.125 51.421875 43.28125 58.90625 
Q 39.453125 66.40625 31.78125 66.40625 
z
M 31.78125 74.21875 
Q 44.046875 74.21875 50.515625 64.515625 
Q 56.984375 54.828125 56.984375 36.375 
Q 56.984375 17.96875 50.515625 8.265625 
Q 44.046875 -1.421875 31.78125 -1.421875 
Q 19.53125 -1.421875 13.0625 8.265625 
Q 6.59375 17.96875 6.59375 36.375 
Q 6.59375 54.828125 13.0625 64.515625 
Q 19.53125 74.21875 31.78125 74.21875 
z
" id="DejaVuSans-30"/>
      </defs>
      <g transform="translate(232.97875 322.182437)scale(0.1 -0.1)">
       <use xlink:href="#DejaVuSans-30"/>
      </g>
     </g>
    </g>
    <g id="xtick_4">
     <g id="line2d_4">
      <g>
       <use style="stroke:#000000;stroke-width:0.8;" x="300.176598" xlink:href="#m16f67aa924" y="307.584"/>
      </g>
     </g>
     <g id="text_4">
      <!-- 1 -->
      <g transform="translate(296.995348 322.182437)scale(0.1 -0.1)">
       <use xlink:href="#DejaVuSans-31"/>
      </g>
     </g>
    </g>
    <g id="xtick_5">
     <g id="line2d_5">
      <g>
       <use style="stroke:#000000;stroke-width:0.8;" x="364.193196" xlink:href="#m16f67aa924" y="307.584"/>
      </g>
     </g>
     <g id="text_5">
      <!-- 2 -->
      <g transform="translate(361.011946 322.182437)scale(0.1 -0.1)">
       <use xlink:href="#DejaVuSans-32"/>
      </g>
     </g>
    </g>
   </g>
   <g id="matplotlib.axis_2">
    <g id="ytick_1">
     <g id="line2d_6">
      <defs>
       <path d="M 0 0 
L -3.5 0 
" id="me1eddc9517" style="stroke:#000000;stroke-width:0.8;"/>
      </defs>
      <g>
       <use style="stroke:#000000;stroke-width:0.8;" x="82.520165" xlink:href="#me1eddc9517" y="302.561196"/>
      </g>
     </g>
     <g id="text_6">
      <!-- −2.0 -->
      <defs>
       <path d="M 10.6875 12.40625 
L 21 12.40625 
L 21 0 
L 10.6875 0 
z
" id="DejaVuSans-2e"/>
      </defs>
      <g transform="translate(51.237353 306.360414)scale(0.1 -0.1)">
       <use xlink:href="#DejaVuSans-2212"/>
       <use x="83.789062" xlink:href="#DejaVuSans-32"/>
       <use x="147.412109" xlink:href="#DejaVuSans-2e"/>
       <use x="179.199219" xlink:href="#DejaVuSans-30"/>
      </g>
     </g>
    </g>
    <g id="ytick_2">
     <g id="line2d_7">
      <g>
       <use style="stroke:#000000;stroke-width:0.8;" x="82.520165" xlink:href="#me1eddc9517" y="270.552897"/>
      </g>
     </g>
     <g id="text_7">
      <!-- −1.5 -->
      <defs>
       <path d="M 10.796875 72.90625 
L 49.515625 72.90625 
L 49.515625 64.59375 
L 19.828125 64.59375 
L 19.828125 46.734375 
Q 21.96875 47.46875 24.109375 47.828125 
Q 26.265625 48.1875 28.421875 48.1875 
Q 40.625 48.1875 47.75 41.5 
Q 54.890625 34.8125 54.890625 23.390625 
Q 54.890625 11.625 47.5625 5.09375 
Q 40.234375 -1.421875 26.90625 -1.421875 
Q 22.3125 -1.421875 17.546875 -0.640625 
Q 12.796875 0.140625 7.71875 1.703125 
L 7.71875 11.625 
Q 12.109375 9.234375 16.796875 8.0625 
Q 21.484375 6.890625 26.703125 6.890625 
Q 35.15625 6.890625 40.078125 11.328125 
Q 45.015625 15.765625 45.015625 23.390625 
Q 45.015625 31 40.078125 35.4375 
Q 35.15625 39.890625 26.703125 39.890625 
Q 22.75 39.890625 18.8125 39.015625 
Q 14.890625 38.140625 10.796875 36.28125 
z
" id="DejaVuSans-35"/>
      </defs>
      <g transform="translate(51.237353 274.352116)scale(0.1 -0.1)">
       <use xlink:href="#DejaVuSans-2212"/>
       <use x="83.789062" xlink:href="#DejaVuSans-31"/>
       <use x="147.412109" xlink:href="#DejaVuSans-2e"/>
       <use x="179.199219" xlink:href="#DejaVuSans-35"/>
      </g>
     </g>
    </g>
    <g id="ytick_3">
     <g id="line2d_8">
      <g>
       <use style="stroke:#000000;stroke-width:0.8;" x="82.520165" xlink:href="#me1eddc9517" y="238.544598"/>
      </g>
     </g>
     <g id="text_8">
      <!-- −1.0 -->
      <g transform="translate(51.237353 242.343817)scale(0.1 -0.1)">
       <use xlink:href="#DejaVuSans-2212"/>
       <use x="83.789062" xlink:href="#DejaVuSans-31"/>
       <use x="147.412109" xlink:href="#DejaVuSans-2e"/>
       <use x="179.199219" xlink:href="#DejaVuSans-30"/>
      </g>
     </g>
    </g>
    <g id="ytick_4">
     <g id="line2d_9">
      <g>
       <use style="stroke:#000000;stroke-width:0.8;" x="82.520165" xlink:href="#me1eddc9517" y="206.536299"/>
      </g>
     </g>
     <g id="text_9">
      <!-- −0.5 -->
      <g transform="translate(51.237353 210.335518)scale(0.1 -0.1)">
       <use xlink:href="#DejaVuSans-2212"/>
       <use x="83.789062" xlink:href="#DejaVuSans-30"/>
       <use x="147.412109" xlink:href="#DejaVuSans-2e"/>
       <use x="179.199219" xlink:href="#DejaVuSans-35"/>
      </g>
     </g>
    </g>
    <g id="ytick_5">
     <g id="line2d_10">
      <g>
       <use style="stroke:#000000;stroke-width:0.8;" x="82.520165" xlink:href="#me1eddc9517" y="174.528"/>
      </g>
     </g>
     <g id="text_10">
      <!-- 0.0 -->
      <g transform="translate(59.61704 178.327219)scale(0.1 -0.1)">
       <use xlink:href="#DejaVuSans-30"/>
       <use x="63.623047" xlink:href="#DejaVuSans-2e"/>
       <use x="95.410156" xlink:href="#DejaVuSans-30"/>
      </g>
     </g>
    </g>
    <g id="ytick_6">
     <g id="line2d_11">
      <g>
       <use style="stroke:#000000;stroke-width:0.8;" x="82.520165" xlink:href="#me1eddc9517" y="142.519701"/>
      </g>
     </g>
     <g id="text_11">
      <!-- 0.5 -->
      <g transform="translate(59.61704 146.31892)scale(0.1 -0.1)">
       <use xlink:href="#DejaVuSans-30"/>
       <use x="63.623047" xlink:href="#DejaVuSans-2e"/>
       <use x="95.410156" xlink:href="#DejaVuSans-35"/>
      </g>
     </g>
    </g>
    <g id="ytick_7">
     <g id="line2d_12">
      <g>
       <use style="stroke:#000000;stroke-width:0.8;" x="82.520165" xlink:href="#me1eddc9517" y="110.511402"/>
      </g>
     </g>
     <g id="text_12">
      <!-- 1.0 -->
      <g transform="translate(59.61704 114.310621)scale(0.1 -0.1)">
       <use xlink:href="#DejaVuSans-31"/>
       <use x="63.623047" xlink:href="#DejaVuSans-2e"/>
       <use x="95.410156" xlink:href="#DejaVuSans-30"/>
      </g>
     </g>
    </g>
    <g id="ytick_8">
     <g id="line2d_13">
      <g>
       <use style="stroke:#000000;stroke-width:0.8;" x="82.520165" xlink:href="#me1eddc9517" y="78.503103"/>
      </g>
     </g>
     <g id="text_13">
      <!-- 1.5 -->
      <g transform="translate(59.61704 82.302322)scale(0.1 -0.1)">
       <use xlink:href="#DejaVuSans-31"/>
       <use x="63.623047" xlink:href="#DejaVuSans-2e"/>
       <use x="95.410156" xlink:href="#DejaVuSans-35"/>
      </g>
     </g>
    </g>
    <g id="ytick_9">
     <g id="line2d_14">
      <g>
       <use style="stroke:#000000;stroke-width:0.8;" x="82.520165" xlink:href="#me1eddc9517" y="46.494804"/>
      </g>
     </g>
     <g id="text_14">
      <!-- 2.0 -->
      <g transform="translate(59.61704 50.294023)scale(0.1 -0.1)">
       <use xlink:href="#DejaVuSans-32"/>
       <use x="63.623047" xlink:href="#DejaVuSans-2e"/>
       <use x="95.410156" xlink:href="#DejaVuSans-30"/>
      </g>
     </g>
    </g>
   </g>
   <g id="line2d_15">
    <path clip-path="url(#pa156980a4a)" d="M 300.176598 63.648 
L 172.143402 63.648 
" style="fill:none;stroke:#009900;stroke-linecap:square;stroke-width:2;"/>
   </g>
   <g id="line2d_16">
    <path clip-path="url(#pa156980a4a)" d="M 172.143402 63.648 
L 108.126804 174.528 
" style="fill:none;stroke:#009900;stroke-linecap:square;stroke-width:2;"/>
   </g>
   <g id="line2d_17">
    <path clip-path="url(#pa156980a4a)" d="M 108.126804 174.528 
L 172.143402 285.408 
" style="fill:none;stroke:#009900;stroke-linecap:square;stroke-width:2;"/>
   </g>
   <g id="line2d_18">
    <path clip-path="url(#pa156980a4a)" d="M 172.143402 285.408 
L 300.176598 285.408 
" style="fill:none;stroke:#009900;stroke-linecap:square;stroke-width:2;"/>
   </g>
   <g id="line2d_19">
    <path clip-path="url(#pa156980a4a)" d="M 300.176598 285.408 
L 364.193196 174.528 
" style="fill:none;stroke:#009900;stroke-linecap:square;stroke-width:2;"/>
   </g>
   <g id="line2d_20">
    <path clip-path="url(#pa156980a4a)" d="M 364.193196 174.528 
L 300.176598 63.648 
" style="fill:none;stroke:#009900;stroke-linecap:square;stroke-width:2;"/>
   </g>
   <g id="line2d_21">
    <path clip-path="url(#pa156980a4a)" d="M 249.367935 244.552568 
L 245.068929 241.769935 
L 240.662085 239.161442 
L 236.154455 236.731263 
L 231.553249 234.483285 
L 226.865829 232.421103 
L 222.099693 230.548019 
L 217.262465 228.867027 
L 212.361885 227.380817 
L 207.405793 226.091767 
L 202.402117 225.001939 
L 197.358861 224.113077 
L 192.284095 223.426602 
L 187.185936 222.943612 
L 182.072541 222.664881 
L 176.95209 222.590854 
L 171.832774 222.72165 
L 166.722783 223.057059 
L 161.630293 223.596545 
L 156.56345 224.339244 
L 151.53036 225.283969 
L 146.539075 226.429209 
L 141.597579 227.773131 
L 139.275336 228.478839 
L 142.977684 224.940885 
L 146.535591 221.257707 
L 149.943364 217.435197 
L 153.195551 213.479469 
L 156.28695 209.396853 
L 159.212616 205.19388 
L 161.967867 200.877273 
L 164.548295 196.453938 
L 166.949774 191.930952 
L 169.16846 187.315551 
L 171.200805 182.615117 
L 173.043557 177.837171 
L 174.693768 172.989357 
L 176.148798 168.079429 
L 177.40632 163.115243 
L 178.464321 158.104741 
L 179.321109 153.055937 
L 179.975314 147.97691 
L 180.425888 142.875784 
L 180.672112 137.760721 
L 180.71359 132.639902 
L 180.550257 127.521521 
L 180.182374 122.413766 
L 179.61053 117.324808 
L 178.835639 112.262788 
L 177.858941 107.235804 
L 176.681999 102.251899 
L 175.306695 97.319046 
L 173.735229 92.445136 
L 171.970117 87.637967 
L 170.01418 82.905228 
L 167.870549 78.254492 
L 165.92675 74.415557 
L 171.039099 74.118254 
L 176.13547 73.616749 
L 181.207709 72.911844 
L 186.247703 72.004668 
L 191.247387 70.896672 
L 196.198765 69.589628 
L 201.093914 68.085627 
L 205.925003 66.387076 
L 210.684304 64.496691 
L 212.655974 63.648 
L 217.382914 65.61791 
L 222.184848 67.397216 
L 227.054094 68.983074 
L 231.982863 70.372944 
L 236.963269 71.564605 
L 241.987345 72.55615 
L 247.047054 73.345992 
L 252.1343 73.932868 
L 257.240946 74.315839 
L 262.358823 74.494292 
L 267.479741 74.467942 
L 272.59551 74.23683 
L 277.697944 73.801328 
L 282.778882 73.162131 
L 287.830195 72.320262 
L 292.843801 71.277067 
L 297.81168 70.034217 
L 302.984748 68.511859 
L 299.272631 72.039562 
L 295.704554 75.712888 
L 292.286225 79.525962 
L 289.023112 83.472681 
L 285.920436 87.546734 
L 282.983161 91.741602 
L 280.215985 96.050574 
L 277.623336 100.466757 
L 275.209361 104.983085 
L 272.977921 109.592335 
L 270.932587 114.287131 
L 269.076631 119.059963 
L 267.413022 123.903197 
L 265.944422 128.809082 
L 265.043486 132.236818 
L 269.164506 129.196801 
L 273.160661 125.99442 
L 277.025558 122.634797 
L 280.753015 119.123306 
L 284.337068 115.465565 
L 287.771984 111.667427 
L 291.052267 107.734966 
L 294.172669 103.674475 
L 297.1282 99.492449 
L 299.914129 95.195578 
L 302.526002 90.790737 
L 304.959638 86.284972 
L 307.211145 81.685492 
L 308.687529 78.389365 
L 303.59041 77.895521 
L 298.47762 77.605903 
L 293.357338 77.520974 
L 288.237755 77.640869 
L 283.127062 77.965397 
L 278.033435 78.494038 
L 272.965022 79.225948 
L 267.929931 80.159954 
L 262.936219 81.294563 
L 257.991873 82.62796 
L 253.104804 84.158012 
L 248.28283 85.88227 
L 243.533665 87.797977 
L 238.864906 89.902067 
L 234.284023 92.191174 
L 229.798345 94.661637 
L 225.415046 97.309504 
L 221.14114 100.130537 
L 216.983464 103.120225 
L 212.948669 106.273783 
L 209.043211 109.586168 
L 205.273336 113.052081 
L 201.645076 116.665975 
L 198.164236 120.422071 
L 194.836384 124.314358 
L 191.666844 128.336611 
L 188.660686 132.482394 
L 185.822721 136.745076 
L 183.157486 141.117835 
L 180.669248 145.593679 
L 178.361986 150.165444 
L 176.239391 154.825819 
L 174.30486 159.567348 
L 172.561486 164.382444 
L 171.01206 169.263405 
L 169.659059 174.202422 
L 168.504648 179.191594 
L 167.550675 184.222939 
L 166.798665 189.288409 
L 166.249821 194.379899 
L 165.905021 199.489264 
L 165.764817 204.608331 
L 165.829434 209.72891 
L 166.098767 214.842809 
L 166.572387 219.941847 
L 167.249534 225.017866 
L 168.129127 230.062746 
L 169.209757 235.068417 
L 170.489697 240.02687 
L 171.966898 244.930173 
L 173.638997 249.770482 
L 175.503319 254.540052 
L 177.556882 259.231255 
L 179.796401 263.836584 
L 182.218292 268.348673 
L 184.818681 272.760303 
L 187.593408 277.064416 
L 190.538035 281.254127 
L 193.715827 285.408 
L 196.829106 281.342044 
L 199.7773 277.154843 
L 202.555692 272.853095 
L 205.159838 268.443681 
L 207.585572 263.933657 
L 209.829012 259.330237 
L 211.88657 254.640785 
L 213.754954 249.872804 
L 215.431175 245.033921 
L 216.912551 240.131879 
L 218.196713 235.174517 
L 219.281607 230.169769 
L 220.165496 225.125639 
L 220.438834 223.268587 
L 218.14148 227.84534 
L 216.028986 232.510302 
L 214.10473 237.256009 
L 212.371791 242.074871 
L 210.832941 246.959177 
L 209.490643 251.901113 
L 208.347042 256.892774 
L 207.40397 261.926174 
L 206.662934 266.993261 
L 206.125121 272.085928 
L 205.79139 277.196028 
L 205.662276 282.315387 
L 205.683499 285.408 
L 205.570677 277.088072 
L 205.232633 271.978255 
L 204.690522 266.886044 
L 203.945209 261.819585 
L 202.997889 256.786982 
L 201.850076 251.796288 
L 200.503606 246.855487 
L 198.960634 241.972481 
L 197.223628 237.155084 
L 195.295367 232.411003 
L 193.178936 227.747826 
L 190.877721 223.173013 
L 188.395402 218.693884 
L 185.735952 214.317604 
L 182.903624 210.051175 
L 179.90295 205.901421 
L 176.738731 201.874981 
L 173.416028 197.978297 
L 169.940157 194.217602 
L 166.316679 190.598914 
L 162.55139 187.12802 
L 158.650314 183.810475 
L 154.619692 180.651584 
L 150.465972 177.656402 
L 146.1958 174.82972 
L 141.816006 172.176061 
L 137.333597 169.69967 
L 132.755745 167.404508 
L 128.089772 165.294247 
L 123.343144 163.372263 
L 118.523454 161.641631 
L 116.03427 160.831868 
L 119.874429 164.219741 
L 123.846995 167.451338 
L 127.945612 170.52149 
L 132.163725 173.425286 
L 136.494585 176.158079 
L 140.931262 178.715498 
L 145.466661 181.093451 
L 150.093524 183.288135 
L 154.804451 185.296038 
L 159.591903 187.113948 
L 164.448224 188.738957 
L 169.365643 190.168465 
L 174.336293 191.400186 
L 179.352223 192.432148 
L 184.405409 193.262701 
L 188.714556 193.808292 
L 185.535096 197.822709 
L 182.518714 201.961059 
L 179.670234 206.216722 
L 176.994214 210.582889 
L 174.494935 215.052576 
L 172.176394 219.618633 
L 170.042302 224.273754 
L 168.096072 229.010492 
L 166.340818 233.82127 
L 164.779348 238.698392 
L 163.414159 243.634054 
L 162.247436 248.620361 
L 161.281046 253.649336 
L 160.516534 258.712934 
L 159.917235 264.231658 
L 164.599168 266.306268 
L 169.360318 268.191991 
L 174.193068 269.885811 
L 179.089688 271.385017 
L 184.042343 272.687212 
L 189.04311 273.790312 
L 194.083989 274.692552 
L 199.156917 275.392488 
L 204.253776 275.889002 
L 209.366414 276.181299 
L 214.486651 276.268911 
L 219.606295 276.151698 
L 224.717158 275.829848 
L 229.811061 275.303875 
L 234.879857 274.574621 
L 239.915436 273.643253 
L 244.909742 272.51126 
L 249.854786 271.180453 
L 254.742656 269.652962 
L 259.565533 267.931231 
L 264.315701 266.018013 
L 268.985561 263.916369 
L 273.567643 261.629661 
L 278.054615 259.161549 
L 282.4393 256.515979 
L 286.714684 253.697185 
L 290.873926 250.709677 
L 294.910372 247.558232 
L 298.817565 244.247893 
L 302.589255 240.783957 
L 306.219408 237.171964 
L 309.702215 233.417692 
L 313.032106 229.527149 
L 316.203753 225.506557 
L 319.212082 221.362349 
L 322.052281 217.101155 
L 324.719806 212.729792 
L 327.210389 208.255254 
L 329.520046 203.684697 
L 331.645082 199.025435 
L 333.582097 194.284921 
L 335.327993 189.470739 
L 336.879976 184.59059 
L 338.235565 179.652283 
L 339.392589 174.663716 
L 340.349198 169.632871 
L 341.103862 164.567796 
L 341.655373 159.476594 
L 342.00285 154.36741 
L 342.145735 149.248418 
L 342.083802 144.127806 
L 341.817147 139.013766 
L 341.483727 135.194046 
L 337.273574 132.278721 
L 332.950207 129.53409 
L 328.520543 126.964542 
L 323.991667 124.574189 
L 319.370825 122.366855 
L 314.66541 120.346071 
L 309.882949 118.51507 
L 305.031092 116.876781 
L 300.117603 115.433825 
L 295.150341 114.18851 
L 290.137253 113.142829 
L 285.086358 112.298454 
L 280.005738 111.656737 
L 274.90352 111.218703 
L 269.787867 110.985055 
L 264.666962 110.956164 
L 259.548998 111.132079 
L 254.442162 111.512516 
L 249.354625 112.096869 
L 244.294525 112.884201 
L 239.269958 113.873253 
L 234.288961 115.062443 
L 229.359504 116.449869 
L 224.489471 118.033311 
L 219.686656 119.810236 
L 214.958739 121.7778 
L 210.313287 123.932857 
L 205.757729 126.271959 
L 201.299354 128.791363 
L 196.945295 131.48704 
L 192.702518 134.354676 
L 188.577808 137.389684 
L 184.577766 140.587209 
L 180.708791 143.942136 
L 176.977071 147.449096 
L 173.388578 151.10248 
L 169.949051 154.896444 
L 166.663994 158.824917 
L 163.538661 162.881615 
L 160.578053 167.060048 
L 157.786906 171.353531 
L 155.169685 175.755196 
L 152.730578 180.258001 
L 150.473485 184.854743 
L 148.402019 189.538068 
L 146.519492 194.300483 
L 144.828917 199.134369 
L 143.332999 204.031994 
L 142.034129 208.985522 
L 140.934387 213.987029 
L 140.035532 219.028513 
L 139.339001 224.101909 
L 138.950631 227.916434 
L 143.632564 229.991044 
L 148.393714 231.876768 
L 153.226464 233.570587 
L 158.123084 235.069794 
L 163.075739 236.371988 
L 168.076506 237.475088 
L 173.117385 238.377328 
L 178.190312 239.077265 
L 183.287172 239.573779 
L 188.39981 239.866076 
L 193.520046 239.953688 
L 198.639691 239.836475 
L 203.750554 239.514624 
L 208.844457 238.988651 
L 213.913253 238.259397 
L 218.948832 237.328029 
L 223.943138 236.196036 
L 228.888182 234.86523 
L 233.776052 233.337739 
L 238.598929 231.616007 
L 243.349097 229.702789 
L 248.018957 227.601145 
L 252.601039 225.314438 
L 257.088011 222.846325 
L 261.472696 220.200756 
L 265.74808 217.381962 
L 269.907321 214.394453 
L 273.943768 211.243008 
L 277.850961 207.93267 
L 281.622651 204.468733 
L 285.252804 200.85674 
L 288.735611 197.102468 
L 292.065502 193.211925 
L 295.237149 189.191333 
L 298.245478 185.047126 
L 301.085677 180.785932 
L 303.753201 176.414569 
L 306.243784 171.94003 
L 308.553441 167.369473 
L 310.678477 162.710211 
L 312.615493 157.969697 
L 314.361389 153.155515 
L 315.913372 148.275367 
L 317.26896 143.337059 
L 318.425985 138.348492 
L 319.382594 133.317647 
L 320.137258 128.252573 
L 320.688769 123.161371 
L 321.036246 118.052187 
L 321.179131 112.933194 
L 321.117197 107.812582 
L 320.850543 102.698543 
L 320.517123 98.878822 
L 316.30697 95.963498 
L 311.983603 93.218866 
L 307.553939 90.649319 
L 303.025063 88.258966 
L 298.404221 86.051632 
L 293.698806 84.030848 
L 288.916345 82.199847 
L 284.064488 80.561557 
L 279.150999 79.118601 
L 274.183737 77.873286 
L 269.170648 76.827605 
L 264.119754 75.983231 
L 259.039134 75.341513 
L 253.936916 74.90348 
L 248.821263 74.669831 
L 243.700358 74.640941 
L 238.582394 74.816855 
L 233.475558 75.197293 
L 228.388021 75.781645 
L 223.327921 76.568977 
L 218.303354 77.558029 
L 213.322357 78.74722 
L 208.3929 80.134646 
L 203.522867 81.718087 
L 198.720051 83.495012 
L 193.992135 85.462576 
L 189.346682 87.617633 
L 184.791125 89.956735 
L 180.33275 92.476139 
L 175.978691 95.171816 
L 171.735913 98.039452 
L 167.611204 101.074461 
L 163.611162 104.271986 
L 159.742187 107.626912 
L 156.010467 111.133872 
L 152.421974 114.787257 
L 148.982447 118.58122 
L 145.69739 122.509693 
L 142.572057 126.566391 
L 139.611449 130.744824 
L 136.820302 135.038307 
L 134.203081 139.439973 
L 131.763973 143.942778 
L 129.506881 148.53952 
L 127.435414 153.222844 
L 125.552888 157.985259 
L 123.862313 162.819145 
L 122.366394 167.71677 
L 121.067525 172.670298 
L 119.967783 177.671805 
L 119.068927 182.713289 
L 118.372396 187.786685 
L 117.984027 191.60121 
L 122.66596 193.675821 
L 127.42711 195.561544 
L 132.25986 197.255364 
L 137.15648 198.75457 
L 142.109134 200.056765 
L 147.109902 201.159864 
L 152.150781 202.062104 
L 157.223708 202.762041 
L 162.320568 203.258555 
L 167.433205 203.550852 
L 172.553442 203.638464 
L 177.673087 203.521251 
L 182.783949 203.199401 
L 187.877853 202.673428 
L 192.907269 201.950639 
L 190.086846 206.224948 
L 187.439606 210.608625 
L 184.969784 215.094657 
L 182.681331 219.675867 
L 180.577908 224.344926 
L 178.66288 229.094364 
L 176.93931 233.916585 
L 175.409957 238.803873 
L 174.077266 243.748409 
L 172.94337 248.742283 
L 172.010083 253.777507 
L 171.278898 258.846024 
L 170.750984 263.939727 
L 170.427186 269.050467 
L 170.308022 274.170066 
L 170.393683 279.290336 
L 170.562616 282.669998 
L 174.864106 285.408 
L 179.183934 282.657803 
L 183.390329 279.737058 
L 187.47656 276.650439 
L 191.43609 273.402883 
L 195.262586 269.999586 
L 198.949926 266.445993 
L 202.49221 262.747787 
L 205.883772 258.910886 
L 209.119186 254.941428 
L 212.193276 250.845763 
L 215.101124 246.630443 
L 217.838078 242.302212 
L 220.39976 237.867994 
L 222.782072 233.334883 
L 224.981202 228.710132 
L 226.64722 224.850032 
L 226.838502 229.967445 
L 227.234272 235.073115 
L 227.833898 240.158874 
L 228.636421 245.216587 
L 229.640557 250.238162 
L 230.844698 255.215565 
L 232.24692 260.140834 
L 233.844978 265.00609 
L 235.636316 269.803549 
L 237.618069 274.525535 
L 239.787065 279.164496 
L 242.139836 283.713009 
L 243.07668 285.408 
L 245.497982 280.895595 
L 247.736898 276.289973 
L 249.789848 271.598502 
L 251.653547 266.828687 
L 253.325013 261.98816 
L 254.801573 257.084664 
L 256.080865 252.126044 
L 257.160841 247.120232 
L 258.039774 242.075237 
L 258.716258 236.999129 
L 259.189211 231.900029 
L 259.457876 226.786095 
L 259.521823 221.665508 
L 259.500749 220.113188 
L 263.656698 223.105275 
L 267.928974 225.928776 
L 272.310743 228.579172 
L 276.794995 231.052224 
L 281.374556 233.343976 
L 286.042099 235.450762 
L 290.790157 237.36921 
L 295.611135 239.096252 
L 300.49732 240.629124 
L 305.440895 241.965376 
L 310.433952 243.102868 
L 315.468502 244.039781 
L 320.536491 244.774617 
L 323.446393 245.103532 
L 320.368819 241.010485 
L 317.130028 237.043781 
L 313.735202 233.209768 
L 310.189772 229.514578 
L 306.49941 225.964123 
L 302.670019 222.564084 
L 298.707727 219.319899 
L 294.61887 216.236758 
L 290.409992 213.319594 
L 286.087825 210.573074 
L 281.659283 208.001591 
L 276.937441 205.51187 
L 280.449239 209.239037 
L 284.107275 212.822788 
L 287.905697 216.257391 
L 291.838428 219.53735 
L 295.899176 222.657417 
L 300.081446 225.612603 
L 304.378547 228.398178 
L 308.783603 231.009687 
L 313.289569 233.442952 
L 317.889234 235.69408 
L 322.575242 237.75947 
L 326.73397 239.409282 
L 322.710517 236.241266 
L 318.563595 233.236679 
L 314.299839 230.400328 
L 309.92607 227.736751 
L 305.449284 225.250209 
L 300.876645 222.944679 
L 296.215466 220.82385 
L 291.473205 218.891114 
L 286.657449 217.149565 
L 281.775902 215.601988 
L 276.836372 214.250858 
L 271.846763 213.098338 
L 270.225315 212.76874 
L 270.730009 217.864796 
L 271.438089 222.936593 
L 272.348419 227.976018 
L 273.459545 232.975008 
L 274.769688 237.925566 
L 276.276752 242.819773 
L 277.978328 247.649798 
L 279.871691 252.407915 
L 281.953814 257.086511 
L 284.221366 261.678103 
L 286.670718 266.175344 
L 289.297953 270.571039 
L 292.098867 274.858157 
L 295.06898 279.029839 
L 298.20354 283.079412 
L 300.127408 285.408 
L 300.282854 285.223959 
L 301.926629 280.373958 
L 303.37514 275.462103 
L 304.626071 270.496252 
L 305.67742 265.48435 
L 306.527505 260.434413 
L 307.174967 255.354522 
L 307.61877 250.252803 
L 307.858203 245.137417 
L 307.892884 240.016548 
L 307.722756 234.898388 
L 307.348094 229.791126 
L 306.769494 224.702931 
L 305.987885 219.641944 
L 305.004514 214.616262 
L 303.820957 209.633923 
L 302.439106 204.7029 
L 300.861172 199.831081 
L 299.08968 195.026258 
L 297.127463 190.29612 
L 294.97766 185.648234 
L 292.643711 181.090034 
L 290.129349 176.628814 
L 287.314748 172.080227 
L 289.58536 167.490148 
L 291.670601 162.81294 
L 293.567136 158.056086 
L 295.27193 153.227196 
L 296.782256 148.333996 
L 298.095699 143.384312 
L 299.210156 138.386063 
L 300.123845 133.347247 
L 300.835305 128.275923 
L 301.343396 123.180204 
L 301.647307 118.068244 
L 301.746551 112.948219 
L 301.640969 107.828321 
L 301.33073 102.716741 
L 300.816331 97.621656 
L 300.098594 92.551216 
L 299.178667 87.513534 
L 298.058023 82.51667 
L 296.738454 77.568615 
L 295.222071 72.677288 
L 293.5113 67.850512 
L 291.841138 63.648 
L 289.960975 68.411349 
L 288.2728 73.246074 
L 286.779312 78.14444 
L 285.482902 83.098613 
L 284.385642 88.100664 
L 283.489289 93.142594 
L 282.795277 98.216335 
L 282.304715 103.313771 
L 282.018388 108.426746 
L 281.936755 113.547082 
L 282.059946 118.666586 
L 282.387764 123.777069 
L 282.919685 128.870355 
L 283.654857 133.938296 
L 284.592105 138.972784 
L 285.729929 143.965765 
L 287.066509 148.909251 
L 288.599706 153.795334 
L 290.327068 158.616198 
L 292.245832 163.364128 
L 294.352927 168.031531 
L 296.644983 172.61094 
L 299.118334 177.095027 
L 301.769021 181.47662 
L 304.592806 185.748709 
L 307.585169 189.904459 
L 310.741325 193.937223 
L 314.056224 197.840548 
L 317.524562 201.608191 
L 321.140792 205.234123 
L 324.899128 208.712544 
L 328.793557 212.03789 
L 332.817849 215.20484 
L 336.965567 218.208328 
L 338.405633 219.19337 
L 337.82964 218.914005 
L 333.172892 216.783467 
L 328.434669 214.840852 
L 323.622553 213.08927 
L 318.744242 211.531522 
L 313.807539 210.170101 
L 308.820343 209.007184 
L 303.790631 208.044632 
L 298.726451 207.283985 
L 293.635905 206.72646 
L 288.527135 206.372948 
L 283.408314 206.224015 
L 278.287633 206.279899 
L 276.280677 206.357721 
L 277.312364 211.373708 
L 278.543812 216.344426 
L 279.97305 221.261923 
L 281.597793 226.118333 
L 283.41544 230.905885 
L 285.423085 235.616922 
L 287.617515 240.243905 
L 289.99522 244.779434 
L 292.552395 249.216252 
L 295.284951 253.547262 
L 298.188515 257.765534 
L 301.258442 261.86432 
L 304.489821 265.837063 
L 307.877483 269.677408 
L 308.728717 270.595295 
L 303.7192 269.532636 
L 298.671196 268.671153 
L 293.592779 268.012226 
L 288.492074 267.556909 
L 283.377242 267.305929 
L 278.256464 267.259689 
L 273.137933 267.418263 
L 268.029838 267.781396 
L 262.940351 268.348508 
L 257.877612 269.118692 
L 252.849723 270.090715 
L 247.864726 271.263023 
L 242.930596 272.63374 
L 238.055227 274.200673 
L 233.246418 275.961315 
L 228.511863 277.91285 
L 223.859135 280.052155 
L 219.295679 282.375809 
L 214.828794 284.880094 
L 213.938072 285.408 
L 209.491586 282.867674 
L 204.94707 280.507191 
L 200.311795 278.330329 
L 195.593176 276.34057 
L 190.798763 274.541097 
L 185.936225 272.934788 
L 181.013342 271.524214 
L 176.037988 270.311631 
L 171.018124 269.298979 
L 165.961779 268.487879 
L 162.096786 268.00675 
L 164.067208 263.280024 
L 165.847036 258.478283 
L 167.433421 253.609209 
L 168.823827 248.680591 
L 170.016028 243.700314 
L 171.008118 238.676346 
L 171.798509 233.616723 
L 172.385936 228.52954 
L 172.769461 223.422935 
L 172.94847 218.305078 
L 172.922675 213.184157 
L 172.692119 208.068363 
L 172.25717 202.965881 
L 171.618524 197.884874 
L 170.777203 192.83347 
L 169.734553 187.819751 
L 168.492241 182.851737 
L 167.052255 177.937376 
L 165.4169 173.08453 
L 163.58879 168.300963 
L 161.570851 163.594327 
L 159.366311 158.972151 
L 156.978696 154.441831 
L 154.411827 150.010614 
L 151.66981 145.685589 
L 148.757031 141.473675 
L 145.67815 137.38161 
L 142.438093 133.415941 
L 139.042044 129.583011 
L 135.946598 126.342705 
L 140.925107 127.542263 
L 145.947605 128.541775 
L 151.006054 129.339642 
L 156.092364 129.934585 
L 161.198396 130.325655 
L 166.315983 130.512226 
L 171.436936 130.493998 
L 176.553065 130.271001 
L 181.656184 129.843592 
L 186.73813 129.212454 
L 191.790771 128.378598 
L 196.806025 127.343357 
L 201.77587 126.108388 
L 206.692353 124.675665 
L 211.54761 123.047482 
L 216.333873 121.226442 
L 221.043486 119.21546 
L 225.668914 117.017752 
L 230.202757 114.636834 
L 234.637762 112.076515 
L 238.966834 109.340891 
L 243.183047 106.434339 
L 247.279657 103.361508 
L 251.25011 100.127314 
L 255.088053 96.736932 
L 258.787347 93.195785 
L 262.342074 89.509538 
L 265.746548 85.684088 
L 268.99532 81.725556 
L 272.083195 77.640274 
L 275.005233 73.434778 
L 277.756758 69.115795 
L 280.333368 64.690235 
L 280.906257 63.648 
L 283.441648 68.097303 
L 286.152936 72.441658 
L 289.035782 76.674116 
L 292.085576 80.787905 
L 295.297438 84.776444 
L 298.66623 88.633352 
L 302.186562 92.35246 
L 305.852803 95.927817 
L 309.659088 99.353704 
L 313.599327 102.624639 
L 317.667216 105.735391 
L 321.856249 108.680982 
L 326.159723 111.4567 
L 328.640529 112.948975 
L 328.776924 118.068145 
L 329.117922 123.177766 
L 329.662977 128.269663 
L 330.411218 133.33569 
L 331.361448 138.367744 
L 332.512146 143.357774 
L 333.861471 148.297796 
L 335.407266 153.179909 
L 337.147056 157.996301 
L 339.078059 162.739267 
L 341.197186 167.40122 
L 343.501045 171.974701 
L 345.985953 176.452395 
L 348.647932 180.827136 
L 351.482726 185.091928 
L 354.485798 189.239947 
L 355.176139 190.146001 
L 350.087201 189.573977 
L 344.979458 189.205913 
L 339.861083 189.042399 
L 334.740263 189.083696 
L 329.625191 189.329738 
L 324.524049 189.780132 
L 319.444999 190.434156 
L 314.396165 191.290766 
L 309.385625 192.34859 
L 304.421394 193.605935 
L 299.511415 195.060791 
L 294.663542 196.710831 
L 289.885531 198.553414 
L 285.185026 200.585592 
L 280.569545 202.804115 
L 277.910496 204.187669 
L 277.216048 209.26135 
L 276.725048 214.358744 
L 276.438283 219.471695 
L 276.35621 224.592023 
L 276.478961 229.711538 
L 276.806341 234.82205 
L 277.337824 239.915381 
L 278.072561 244.983385 
L 279.009377 250.017953 
L 280.146772 255.011032 
L 281.482928 259.954633 
L 283.015705 264.840848 
L 284.742654 269.661859 
L 286.66101 274.409955 
L 288.767704 279.077539 
L 291.059367 283.657144 
L 291.997146 285.408 
L 294.359575 280.864496 
L 296.538422 276.230154 
L 298.530203 271.512388 
L 300.331729 266.718746 
L 301.940121 261.856897 
L 303.352803 256.934618 
L 304.567517 251.959784 
L 305.582319 246.940354 
L 306.395586 241.884357 
L 307.006016 236.799883 
L 307.412633 231.695065 
L 307.614786 226.578071 
L 307.612153 221.457085 
L 307.404737 216.340301 
L 306.99287 211.235904 
L 306.377211 206.15206 
L 305.558745 201.096903 
L 304.538782 196.078519 
L 303.318952 191.104937 
L 301.901208 186.184114 
L 300.287817 181.323921 
L 298.481361 176.532134 
L 296.48473 171.81642 
L 294.301118 167.184321 
L 291.934018 162.643249 
L 289.387216 158.200467 
L 286.664788 153.863085 
L 283.771089 149.63804 
L 280.710747 145.532092 
L 277.488659 141.551809 
L 274.10998 137.703559 
L 270.580115 133.993498 
L 266.90471 130.427562 
L 263.089645 127.011455 
L 259.141025 123.750643 
L 255.065165 120.650341 
L 250.868586 117.715511 
L 246.558002 114.950846 
L 242.14031 112.360771 
L 237.622575 109.949427 
L 233.012026 107.720674 
L 228.316039 105.678076 
L 223.542126 103.824902 
L 218.697924 102.164115 
L 213.791184 100.698373 
L 208.829754 99.430021 
L 203.821572 98.361088 
L 198.774651 97.493284 
L 193.697063 96.827997 
L 188.596933 96.366291 
L 183.482419 96.108906 
L 178.361703 96.056252 
L 173.242978 96.208415 
L 168.134432 96.56515 
L 163.044238 97.125887 
L 157.980539 97.889729 
L 152.951436 98.855454 
L 151.652696 99.138943 
L 153.280582 103.9943 
L 155.101329 108.780675 
L 157.112023 113.490411 
L 159.309448 118.115973 
L 161.690088 122.649962 
L 164.250135 127.085124 
L 166.985494 131.414363 
L 169.891788 135.630755 
L 172.964368 139.727553 
L 176.198318 143.698203 
L 179.588466 147.536354 
L 183.129387 151.235865 
L 186.815416 154.790818 
L 188.344458 156.184778 
L 183.224349 156.279595 
L 178.112128 156.579086 
L 173.015972 157.082772 
L 167.944035 157.789846 
L 162.90443 158.699179 
L 157.90522 159.809314 
L 152.954402 161.118477 
L 148.059897 162.624572 
L 143.229535 164.325191 
L 138.471044 166.217612 
L 133.792035 168.298808 
L 129.199994 170.565451 
L 124.702268 173.013912 
L 120.306053 175.640276 
L 116.01838 178.440342 
L 112.023874 181.277923 
L 116.677801 179.141229 
L 121.242561 176.820137 
L 125.710851 174.318359 
L 130.075522 171.639899 
L 134.329592 168.789042 
L 138.466255 165.770347 
L 142.478894 162.588644 
L 146.361089 159.249024 
L 150.10663 155.756828 
L 153.709523 152.117645 
L 157.164007 148.337295 
L 160.464553 144.421826 
L 163.605883 140.377502 
L 166.582969 136.210794 
L 169.391051 131.928368 
L 172.025635 127.537073 
L 174.482507 123.043936 
L 176.757736 118.456144 
L 178.847682 113.781037 
L 180.749002 109.026093 
L 182.458654 104.198921 
L 183.973904 99.307243 
L 185.292326 94.358883 
L 186.411812 89.361758 
L 187.330571 84.323863 
L 188.047133 79.253258 
L 188.560351 74.158053 
L 188.869406 69.046401 
L 188.973606 63.648 
L 189.024351 67.488517 
L 189.271149 72.603553 
L 189.722297 77.704628 
L 190.377072 82.783581 
L 191.234428 87.832288 
L 192.292992 92.842672 
L 193.551072 97.806717 
L 195.006654 102.716481 
L 196.657409 107.56411 
L 198.500698 112.341848 
L 200.533571 117.042054 
L 202.752776 121.657206 
L 205.154763 126.179922 
L 207.735689 130.602967 
L 208.316526 131.54497 
L 207.231717 129.96022 
L 204.223959 125.815598 
L 201.052867 121.794569 
L 197.723512 117.903566 
L 194.241223 114.148815 
L 190.611568 110.536321 
L 186.840356 107.071865 
L 182.933619 103.760987 
L 178.897607 100.608986 
L 174.738777 97.620904 
L 170.463782 94.801521 
L 166.079462 92.155347 
L 161.59283 89.686615 
L 158.122367 87.933144 
L 162.421142 90.716136 
L 166.827768 93.324995 
L 171.335195 95.755551 
L 175.936214 98.003912 
L 180.623463 100.066484 
L 185.389443 101.939966 
L 190.22653 103.621361 
L 195.126986 105.107979 
L 200.082971 106.397442 
L 205.086556 107.487687 
L 210.129738 108.37697 
L 215.204447 109.063869 
L 220.302565 109.547283 
L 225.415937 109.82644 
L 230.536382 109.900894 
L 235.655709 109.770525 
L 240.765727 109.435542 
L 245.858263 108.896481 
L 250.925168 108.154203 
L 255.958336 107.209898 
L 260.949717 106.065074 
L 265.891325 104.721564 
L 270.775253 103.181518 
L 275.59369 101.447398 
L 280.338926 99.521979 
L 285.00337 97.408342 
L 289.57956 95.109867 
L 294.060175 92.630232 
L 298.438047 89.973403 
L 302.706172 87.143632 
L 306.857723 84.145445 
L 310.409313 81.371582 
L 305.666153 83.302111 
L 301.003989 85.420772 
L 296.430277 87.724174 
L 291.952336 90.208634 
L 287.577328 92.870177 
L 283.312253 95.704544 
L 279.163934 98.707201 
L 275.139008 101.873346 
L 271.243913 105.197911 
L 267.484881 108.67558 
L 263.867925 112.300788 
L 260.398832 116.067736 
L 257.083152 119.970398 
L 253.926189 124.00253 
L 252.469415 125.981086 
L 252.485507 120.860125 
L 252.296802 115.742616 
L 251.903602 110.636748 
L 251.306537 105.550687 
L 250.506561 100.49257 
L 249.504954 95.470491 
L 248.303319 90.492482 
L 246.903578 85.566507 
L 245.307969 80.700447 
L 243.519047 75.902087 
L 241.539673 71.179103 
L 239.373012 66.539051 
L 237.906209 63.648 
L 235.622764 68.231708 
L 233.524445 72.903064 
L 231.614609 77.654593 
L 229.896312 82.478694 
L 228.372301 87.36765 
L 227.045015 92.31364 
L 225.916578 97.308751 
L 224.988795 102.344991 
L 224.26315 107.414305 
L 223.740803 112.508582 
L 223.422591 117.619672 
L 223.309023 122.739399 
L 223.323285 124.949591 
L 220.816085 120.484342 
L 218.132328 116.122926 
L 215.276308 111.87232 
L 212.252593 107.739325 
L 209.066021 103.730552 
L 205.72169 99.852414 
L 202.22495 96.111116 
L 198.581395 92.512643 
L 194.796853 89.062752 
L 190.877381 85.766962 
L 186.829246 82.630545 
L 182.658927 79.658519 
L 178.373094 76.855638 
L 173.978604 74.226387 
L 169.482487 71.774972 
L 167.913928 70.973665 
L 168.449654 71.324106 
L 172.797168 74.030326 
L 177.249424 76.560527 
L 181.7993 78.910661 
L 186.439516 81.076969 
L 191.162651 83.055985 
L 195.961146 84.844543 
L 200.827327 86.439782 
L 205.753408 87.839149 
L 210.731508 89.040407 
L 215.753664 90.041632 
L 220.811841 90.841224 
L 225.897947 91.437904 
L 231.003846 91.830716 
L 236.121369 92.019032 
L 241.242329 92.002551 
L 246.358533 91.7813 
L 251.461798 91.355632 
L 256.543958 90.726229 
L 261.596884 89.894096 
L 266.612491 88.860566 
L 271.582756 87.627293 
L 276.499728 86.196248 
L 281.35554 84.569721 
L 286.142425 82.750314 
L 290.852723 80.740939 
L 295.478901 78.544809 
L 300.013556 76.165438 
L 304.449434 73.606633 
L 305.541277 72.939898 
L 303.299033 74.176475 
L 298.890967 76.7829 
L 294.590656 79.563517 
L 290.40498 82.513876 
L 286.340635 85.629257 
L 282.404123 88.904677 
L 278.601742 92.334895 
L 274.939574 95.914424 
L 271.423478 99.637538 
L 268.05908 103.49828 
L 264.851762 107.490473 
L 261.806654 111.607732 
L 258.928628 115.843469 
L 256.222289 120.190909 
L 253.691966 124.643096 
L 252.899621 126.127742 
L 253.727088 121.07405 
L 254.3518 115.991311 
L 254.772757 110.887656 
L 254.989285 105.771249 
L 255.001038 100.650276 
L 254.807998 95.53293 
L 254.410472 90.427396 
L 253.809098 85.341843 
L 253.004837 80.284406 
L 251.998976 75.263177 
L 250.793124 70.286187 
L 249.389209 65.3614 
L 248.85032 63.648 
L 247.377457 68.552608 
L 246.101904 73.512191 
L 245.025702 78.518816 
L 244.150572 83.564472 
L 243.477915 88.641089 
L 243.008806 93.740543 
L 242.743996 98.854678 
L 242.683909 103.975312 
L 242.828641 109.094253 
L 243.17796 114.203312 
L 243.731308 119.294314 
L 244.42499 123.986039 
L 246.741915 119.419163 
L 248.874361 114.763287 
L 250.818916 110.025861 
L 252.572469 105.214463 
L 254.132214 100.336789 
L 255.495657 95.400645 
L 256.660617 90.413925 
L 257.625228 85.384609 
L 258.38795 80.320741 
L 258.94756 75.230423 
L 259.303164 70.121798 
L 259.454194 65.003039 
L 259.459891 63.648 
L 259.533433 68.12833 
L 259.809387 73.241875 
L 260.289607 78.340296 
L 260.973325 83.415434 
L 261.859448 88.459172 
L 262.946557 93.46344 
L 264.232915 98.420231 
L 265.716462 103.321618 
L 267.394826 108.159758 
L 269.265321 112.926911 
L 271.324956 117.615451 
L 273.570434 122.217877 
L 275.998165 126.726827 
L 278.604263 131.135087 
L 281.38456 135.435604 
L 284.334608 139.621499 
L 287.449687 143.686076 
L 290.724815 147.622831 
L 294.154751 151.425467 
L 297.734008 155.087901 
L 301.45686 158.604273 
L 305.317352 161.968958 
L 309.309307 165.176573 
L 313.42634 168.221986 
L 317.661864 171.100326 
L 322.009102 173.806988 
L 326.461101 176.337642 
L 331.010738 178.688239 
L 335.650734 180.855019 
L 340.373667 182.834516 
L 345.171981 184.623562 
L 350.038 186.219295 
L 354.963938 187.619164 
L 356.419516 187.992408 
L 352.786331 184.383465 
L 349.011733 180.922698 
L 345.10176 177.615643 
L 341.062668 174.46759 
L 336.900918 171.483576 
L 332.623168 168.668374 
L 328.236262 166.026489 
L 323.747218 163.562146 
L 319.163218 161.279288 
L 314.491594 159.181568 
L 309.73982 157.272341 
L 304.915499 155.554661 
L 300.026347 154.031276 
L 295.080188 152.704624 
L 290.084932 151.576827 
L 285.048573 150.649688 
L 281.158276 150.074881 
L 283.26464 145.407148 
L 285.182659 140.658916 
L 286.909266 135.837783 
L 288.441697 130.951459 
L 289.777502 126.007764 
L 290.914543 121.014604 
L 291.851002 115.97997 
L 292.58538 110.911914 
L 293.116502 105.818544 
L 293.443519 100.70801 
L 293.565908 95.588486 
L 293.483472 90.468163 
L 293.196344 85.355233 
L 292.704983 80.257874 
L 292.010175 75.184242 
L 291.113032 70.142453 
L 290.014988 65.140573 
L 289.646403 63.648 
L 288.488378 68.636334 
L 287.530759 73.666987 
L 286.775078 78.73191 
L 286.222545 83.823002 
L 285.874043 88.932116 
L 285.73013 94.05108 
L 285.791036 99.171704 
L 286.056664 104.285797 
L 286.526589 109.385176 
L 287.200058 114.461685 
L 288.075995 119.507201 
L 289.152998 124.513654 
L 290.429344 129.473033 
L 291.902992 134.377405 
L 293.571583 139.218924 
L 295.432449 143.989844 
L 297.482612 148.682534 
L 299.718793 153.289484 
L 302.137414 157.803327 
L 304.734606 162.21684 
L 307.506214 166.522962 
L 310.447804 170.714806 
L 313.554669 174.785664 
L 316.821841 178.729024 
L 320.244092 182.538578 
L 323.815947 186.208232 
L 327.531691 189.732113 
L 331.385381 193.104586 
L 335.370852 196.320255 
L 339.481727 199.373976 
L 343.71143 202.260862 
L 346.986271 204.331269 
L 345.858747 203.724699 
L 341.289696 201.412064 
L 336.63182 199.283993 
L 331.892569 197.343889 
L 327.079525 195.594857 
L 322.200389 194.039694 
L 317.262966 192.680888 
L 312.275154 191.520613 
L 307.244934 190.560726 
L 302.180352 189.802762 
L 297.08951 189.247934 
L 291.980554 188.897128 
L 286.861655 188.750907 
L 285.359835 188.746864 
L 289.736681 191.405382 
L 294.216339 193.886746 
L 298.791642 196.186987 
L 303.455269 198.302425 
L 308.199762 200.229676 
L 313.017529 201.965655 
L 317.900862 203.507587 
L 322.841951 204.853004 
L 327.832889 205.999754 
L 332.865693 206.946003 
L 337.932311 207.690236 
L 343.024638 208.231263 
L 344.659467 208.361411 
L 341.698031 204.183564 
L 338.571895 200.127486 
L 335.286059 196.199664 
L 331.845781 192.406382 
L 328.256564 188.753709 
L 324.524149 185.247488 
L 320.654509 181.893328 
L 316.653834 178.696596 
L 312.528523 175.662405 
L 308.285177 172.795609 
L 303.930584 170.100795 
L 299.471711 167.582274 
L 294.91569 165.244075 
L 290.26981 163.089939 
L 285.593393 161.143698 
L 288.681817 157.058831 
L 291.604419 152.853727 
L 294.356524 148.535114 
L 296.933729 144.1099 
L 299.331911 139.585166 
L 301.547234 134.968149 
L 303.576154 130.266236 
L 305.415424 125.486948 
L 307.062103 120.637933 
L 308.513555 115.726946 
L 309.767459 110.761846 
L 310.82181 105.750574 
L 311.674919 100.701147 
L 312.325423 95.621645 
L 312.772281 90.520192 
L 313.001468 85.861327 
L 308.441948 83.529959 
L 303.792845 81.382787 
L 299.061597 79.423248 
L 294.255773 77.654476 
L 289.383061 76.0793 
L 284.451256 74.700241 
L 279.468248 73.519505 
L 274.44201 72.53898 
L 269.380581 71.760235 
L 264.29206 71.184516 
L 259.184586 70.812745 
L 254.066331 70.645515 
L 248.945483 70.683095 
L 243.830233 70.925424 
L 238.728766 71.372114 
L 233.649242 72.022452 
L 228.599788 72.875396 
L 223.588481 73.929582 
L 218.623339 75.183324 
L 213.712305 76.634616 
L 208.863236 78.281135 
L 204.083888 80.120249 
L 199.381909 82.149015 
L 194.764819 84.364186 
L 190.240006 86.762221 
L 185.814708 89.339281 
L 181.496005 92.091245 
L 177.290805 95.013709 
L 173.205837 98.101999 
L 169.247635 101.351174 
L 165.422531 104.756036 
L 161.736645 108.311137 
L 158.195873 112.010791 
L 154.805881 115.849079 
L 151.57209 119.81986 
L 148.499676 123.916782 
L 145.593552 128.13329 
L 142.858368 132.46264 
L 140.298499 136.897905 
L 137.918042 141.43199 
L 135.720804 146.057641 
L 133.7103 150.767458 
L 131.889746 155.553906 
L 130.262056 160.409328 
L 128.829833 165.325957 
L 127.595368 170.295927 
L 126.560636 175.311286 
L 125.727293 180.364013 
L 125.096672 185.446022 
L 124.669781 190.549184 
L 124.447304 195.665336 
L 124.429596 200.786291 
L 124.480494 202.853421 
L 128.882543 205.469996 
L 133.385706 207.908443 
L 137.982778 210.164861 
L 142.666407 212.235641 
L 147.429098 214.117469 
L 152.263232 215.807335 
L 157.161076 217.302535 
L 162.114795 218.600678 
L 167.116463 219.699686 
L 172.158079 220.597802 
L 177.231577 221.293589 
L 182.328841 221.785933 
L 187.441716 222.074048 
L 192.562023 222.157471 
L 197.68157 222.03607 
L 202.792167 221.710039 
L 207.885639 221.179899 
L 213.349027 220.380583 
L 215.807264 224.872974 
L 218.443182 229.263468 
L 221.252565 233.545041 
L 224.230917 237.710844 
L 227.373476 241.754213 
L 230.675212 245.668679 
L 234.130843 249.447979 
L 237.734843 253.086068 
L 241.481444 256.577125 
L 245.364654 259.915565 
L 249.378259 263.096049 
L 253.515839 266.113486 
L 257.770776 268.963051 
L 262.13626 271.640185 
L 266.60531 274.140605 
L 271.170775 276.46031 
L 275.825351 278.595589 
L 280.561593 280.543027 
L 285.371923 282.299509 
L 290.248646 283.862223 
L 295.18396 285.228671 
L 295.894435 285.408 
L 300.971931 284.030442 
L 299.664719 279.079109 
L 298.160551 274.184012 
L 296.461836 269.35298 
L 294.571289 264.593743 
L 292.491936 259.913915 
L 290.227103 255.320982 
L 287.780413 250.822292 
L 285.15578 246.425042 
L 282.357404 242.136267 
L 279.389761 237.962828 
L 276.257599 233.9114 
L 272.965928 229.988467 
L 269.520015 226.200303 
L 265.925372 222.55297 
L 261.905795 218.799367 
L 263.085215 223.782686 
L 264.462971 228.714855 
L 266.036859 233.587983 
L 267.804361 238.394275 
L 269.76265 243.12604 
L 271.908593 247.77571 
L 274.238756 252.335846 
L 276.749412 256.799153 
L 279.436545 261.15849 
L 282.295855 265.406884 
L 285.322769 269.537537 
L 288.512443 273.543842 
L 291.859776 277.419389 
L 295.359411 281.157979 
L 299.005751 284.75363 
L 299.701626 285.408 
L 300.745422 284.422767 
L 301.855727 279.423594 
L 302.76523 274.38402 
L 303.472476 269.312107 
L 303.976334 264.215968 
L 304.275997 259.103757 
L 304.370987 253.983652 
L 304.261152 248.863843 
L 303.946666 243.752522 
L 303.428034 238.657866 
L 302.706085 233.588025 
L 301.781973 228.551109 
L 300.657178 223.555177 
L 299.333499 218.608221 
L 297.813053 213.718155 
L 296.098272 208.892802 
L 294.191901 204.139882 
L 292.096988 199.466998 
L 289.816886 194.881626 
L 287.355242 190.391102 
L 285.685213 187.568444 
L 290.106741 184.984921 
L 294.421419 182.226651 
L 298.622344 179.298046 
L 302.702796 176.203791 
L 306.656247 172.948837 
L 310.476372 169.53839 
L 314.15706 165.977907 
L 317.692423 162.273084 
L 321.076804 158.429848 
L 324.304789 154.454346 
L 327.371215 150.35294 
L 330.271176 146.13219 
L 333.000032 141.798849 
L 335.553417 137.359848 
L 337.927248 132.822291 
L 338.927819 130.767084 
L 333.815881 130.462792 
L 328.695864 130.363167 
L 323.575958 130.468368 
L 318.464355 130.778226 
L 313.369231 131.292245 
L 308.298738 132.009604 
L 303.260988 132.929155 
L 298.26404 134.049427 
L 293.315887 135.368627 
L 288.424447 136.884646 
L 283.597543 138.595057 
L 278.842899 140.497124 
L 275.638954 141.905736 
L 278.519936 137.672009 
L 281.22931 133.32646 
L 283.76274 128.876041 
L 286.116176 124.327872 
L 288.28585 119.689228 
L 290.268292 114.967531 
L 292.060332 110.170334 
L 293.659101 105.305312 
L 295.062042 100.380248 
L 296.266911 95.403021 
L 297.271781 90.381593 
L 298.075043 85.323997 
L 298.675412 80.238325 
L 299.071929 75.132713 
L 299.263958 70.015328 
L 299.251193 64.894358 
L 299.217082 63.648 
L 299.169592 65.567893 
L 299.183772 70.688859 
L 299.402724 75.805163 
L 299.826099 80.908618 
L 300.45322 85.991061 
L 301.283082 91.04436 
L 302.314358 96.060431 
L 303.545399 101.03125 
L 304.974235 105.948864 
L 306.59858 110.805407 
L 308.415835 115.593108 
L 310.423094 120.304309 
L 312.617146 124.931472 
L 314.994479 129.467196 
L 317.551291 133.904223 
L 320.283492 138.235456 
L 323.186711 142.453966 
L 326.256303 146.553003 
L 329.487357 150.526011 
L 332.874704 154.366633 
L 336.412926 158.068725 
L 340.096362 161.626365 
L 343.91912 165.033861 
L 347.875083 168.285762 
L 351.957922 171.376865 
L 356.161108 174.302226 
L 360.477914 177.057164 
L 362.152808 178.062055 
L 359.911107 176.824494 
L 355.355707 174.485084 
L 350.7104 172.329714 
L 345.982617 170.36183 
L 341.179921 168.584581 
L 336.309996 167.00081 
L 331.380632 165.613052 
L 326.399716 164.423525 
L 321.375215 163.434133 
L 316.315168 162.646459 
L 311.227671 162.061764 
L 306.120861 161.680981 
L 301.002909 161.504721 
L 295.882002 161.533265 
L 290.766333 161.766569 
L 285.863205 162.183315 
L 290.574196 160.175561 
L 295.201129 157.981025 
L 299.736603 155.603216 
L 304.173362 153.045938 
L 308.504308 150.313283 
L 312.722514 147.409622 
L 316.821229 144.3396 
L 320.793898 141.108129 
L 324.634165 137.720379 
L 328.335886 134.181768 
L 331.893139 130.497959 
L 335.300234 126.674844 
L 336.052822 125.787443 
L 331.029124 126.780902 
L 326.049172 127.974462 
L 321.120934 129.366212 
L 316.252293 130.953925 
L 311.451037 132.735062 
L 306.724849 134.706773 
L 302.081289 136.865905 
L 297.527785 139.209002 
L 293.071622 141.732317 
L 288.71993 144.431812 
L 284.479669 147.303169 
L 281.025459 149.83204 
L 285.785503 147.943525 
L 290.466218 145.86617 
L 295.060117 143.603298 
L 299.559851 141.158528 
L 303.958221 138.535773 
L 308.248191 135.739228 
L 312.422897 132.773367 
L 316.475661 129.642935 
L 320.399999 126.352939 
L 324.189633 122.908644 
L 327.838501 119.315558 
L 330.61844 116.374817 
L 325.641678 117.581609 
L 320.717157 118.986453 
L 315.852753 120.587102 
L 311.056249 122.380995 
L 306.335318 124.365262 
L 301.697513 126.536728 
L 297.150253 128.89192 
L 292.700813 131.427071 
L 288.356312 134.138123 
L 284.123698 137.020741 
L 280.009744 140.070312 
L 276.455174 142.919476 
L 284.437598 136.505666 
L 288.230088 133.064514 
L 291.881935 129.474456 
L 295.387296 125.741234 
L 298.740565 121.870822 
L 301.936376 117.869411 
L 304.969617 113.743402 
L 307.835435 109.499396 
L 310.529246 105.144182 
L 313.046741 100.684729 
L 315.383891 96.12817 
L 316.974692 92.743153 
L 311.86963 92.339616 
L 306.752514 92.14055 
L 301.631531 92.146274 
L 296.514873 92.356777 
L 291.410726 92.771724 
L 286.327254 93.39045 
L 281.272592 94.211966 
L 276.254824 95.234957 
L 271.281979 96.457787 
L 266.362012 97.8785 
L 261.502794 99.494823 
L 256.712098 101.30417 
L 251.997589 103.303646 
L 247.366809 105.490053 
L 242.827165 107.859893 
L 238.385922 110.409374 
L 234.050183 113.134419 
L 229.826884 116.030667 
L 225.722783 119.093486 
L 221.744445 122.317974 
L 217.898234 125.698975 
L 216.042332 127.431511 
L 210.932646 127.771535 
L 205.840645 128.31562 
L 200.774475 129.062896 
L 195.74224 130.012167 
L 190.751992 131.161914 
L 185.811712 132.510298 
L 180.929305 134.055162 
L 176.112582 135.794035 
L 171.369248 137.724134 
L 166.706891 139.842372 
L 162.132971 142.145361 
L 157.654804 144.629415 
L 153.279555 147.290561 
L 149.014224 150.124542 
L 144.865633 153.126823 
L 140.840419 156.292603 
L 136.945023 159.616816 
L 133.185676 163.094144 
L 129.568392 166.719024 
L 126.098958 170.485658 
L 122.782925 174.388019 
L 119.625596 178.419865 
L 116.632024 182.574745 
L 114.560026 185.670667 
L 119.667872 185.304047 
L 124.756972 184.733461 
L 129.819183 183.959821 
L 134.846408 182.984366 
L 139.830604 181.808655 
L 144.763797 180.434571 
L 149.638095 178.86431 
L 154.4457 177.100385 
L 159.178922 175.145619 
L 163.830188 173.003138 
L 168.392057 170.676369 
L 172.857232 168.169035 
L 177.218568 165.485148 
L 181.469088 162.629001 
L 185.601993 159.605162 
L 187.696294 157.972967 
L 186.379458 153.024185 
L 184.865777 148.132021 
L 183.157672 143.304301 
L 181.257877 138.548749 
L 179.169429 133.872972 
L 176.895671 129.284451 
L 174.44024 124.790526 
L 171.807063 120.398387 
L 169.000355 116.11506 
L 166.024604 111.947398 
L 162.884571 107.902068 
L 159.58528 103.985542 
L 156.132008 100.204085 
L 152.920037 96.943846 
L 157.879005 98.221789 
L 162.88511 99.300404 
L 167.930344 100.177966 
L 173.006636 100.85307 
L 178.105864 101.324637 
L 183.219871 101.591912 
L 188.340475 101.654467 
L 193.459485 101.512203 
L 198.568711 101.165347 
L 203.65998 100.614453 
L 208.725146 99.860404 
L 213.756107 98.904405 
L 218.744814 97.747986 
L 223.683286 96.392998 
L 228.563623 94.841606 
L 233.378017 93.096295 
L 238.118766 91.159855 
L 242.778286 89.035384 
L 247.349123 86.726282 
L 251.823964 84.236242 
L 256.195651 81.569248 
L 260.457189 78.729566 
L 264.601762 75.72174 
L 268.622739 72.550581 
L 272.513686 69.221163 
L 276.26838 65.738811 
L 278.384418 63.648 
L 282.057195 67.216643 
L 285.869741 70.63556 
L 289.815958 73.899281 
L 293.889533 77.002584 
L 298.083948 79.940506 
L 302.392493 82.708346 
L 306.808276 85.301676 
L 311.324233 87.716347 
L 315.151954 89.586078 
L 314.814962 94.695964 
L 314.682579 99.815239 
L 314.75502 104.935713 
L 315.032166 110.049195 
L 315.513576 115.147503 
L 316.198478 120.222482 
L 317.085778 125.266013 
L 318.174055 130.270026 
L 319.461569 135.226518 
L 320.94626 140.127558 
L 322.625753 144.965306 
L 324.49736 149.732023 
L 326.558089 154.420082 
L 328.804641 159.021984 
L 331.233423 163.530368 
L 333.84055 167.938019 
L 336.621851 172.237888 
L 339.572875 176.423094 
L 342.688903 180.486944 
L 345.964949 184.422935 
L 349.395772 188.224771 
L 352.975883 191.886369 
L 353.740914 192.631883 
L 348.790587 191.320868 
L 343.791792 190.208862 
L 338.752528 189.297643 
L 333.680856 188.588671 
L 328.584889 188.083078 
L 323.47278 187.781674 
L 318.352707 187.684941 
L 313.232862 187.793034 
L 308.121434 188.105779 
L 303.026602 188.622677 
L 297.956515 189.3429 
L 292.919285 190.265297 
L 287.92297 191.388391 
L 284.163498 192.373561 
L 287.086579 196.578332 
L 290.175467 200.662848 
L 293.425222 204.620574 
L 296.830644 208.445179 
L 300.386285 212.130544 
L 304.086458 215.670773 
L 307.925242 219.060204 
L 311.896497 222.293412 
L 315.993869 225.365227 
L 320.210803 228.270733 
L 324.540554 231.005283 
L 328.976194 233.564501 
L 329.837217 234.0343 
L 327.64299 232.714396 
L 323.17755 230.207536 
L 318.615434 227.88125 
L 313.963941 225.739262 
L 309.230513 223.784996 
L 304.42272 222.021581 
L 299.548256 220.451837 
L 294.614917 219.078275 
L 289.630597 217.903092 
L 284.603269 216.928169 
L 279.540976 216.155066 
L 274.451816 215.585018 
L 269.343931 215.218939 
L 267.370327 215.132376 
L 266.332753 220.147148 
L 265.496546 225.199401 
L 264.863045 230.281052 
L 264.433262 235.383972 
L 264.207885 240.499997 
L 264.187274 245.620942 
L 264.371464 250.738614 
L 264.760158 255.844828 
L 265.352736 260.931414 
L 266.148249 265.990234 
L 267.145424 271.013196 
L 268.342666 275.992263 
L 269.738061 280.919471 
L 271.19771 285.408 
L 272.773766 280.535572 
L 274.153715 275.604017 
L 275.335351 270.621222 
L 276.316784 265.595161 
L 277.096442 260.533873 
L 277.673079 255.445456 
L 278.045773 250.338049 
L 278.213927 245.219825 
L 278.177271 240.098969 
L 277.935866 234.983676 
L 277.490096 229.882128 
L 276.840676 224.802487 
L 275.988643 219.752879 
L 274.935362 214.741382 
L 273.599043 209.472498 
L 278.636633 210.392924 
L 283.707001 211.111163 
L 288.802036 211.626068 
L 293.913585 211.936813 
L 299.033473 212.042902 
L 304.153507 211.944166 
L 309.265498 211.640762 
L 314.361266 211.133175 
L 319.432661 210.422218 
L 324.471568 209.509028 
L 329.469927 208.395066 
L 334.419741 207.082114 
L 339.313091 205.572273 
L 344.14215 203.867957 
L 348.173084 202.275647 
L 347.405463 197.212519 
L 346.435984 192.184139 
L 345.266199 187.198549 
L 343.897979 182.263726 
L 342.333514 177.387565 
L 340.575305 172.577866 
L 338.626166 167.842324 
L 336.489216 163.188514 
L 334.167871 158.623882 
L 331.665847 154.155731 
L 328.987146 149.791208 
L 326.136053 145.537295 
L 323.11713 141.400799 
L 319.935206 137.388336 
L 316.595371 133.506325 
L 313.102968 129.760978 
L 309.463586 126.158285 
L 305.683045 122.70401 
L 301.767394 119.40368 
L 297.722897 116.262574 
L 293.556024 113.285718 
L 289.273443 110.477873 
L 284.882002 107.843531 
L 280.388729 105.386908 
L 275.800812 103.111932 
L 271.125589 101.022244 
L 266.370541 99.121187 
L 261.543274 97.411801 
L 256.651512 95.896822 
L 251.703079 94.578673 
L 246.705893 93.459463 
L 241.667947 92.540983 
L 236.597302 91.824701 
L 231.502069 91.311764 
L 226.3904 91.002992 
L 221.270472 90.898879 
L 216.150476 90.999592 
L 211.038603 91.30497 
L 205.943031 91.814524 
L 200.871911 92.527439 
L 195.833357 93.442574 
L 190.835429 94.558466 
L 185.886122 95.873329 
L 180.993355 97.38506 
L 176.164954 99.09124 
L 171.408645 100.989139 
L 166.732036 103.075723 
L 162.142609 105.347651 
L 157.647706 107.801291 
L 153.254517 110.432716 
L 148.970072 113.237717 
L 144.801224 116.211806 
L 140.754642 119.350226 
L 139.289911 120.551917 
L 138.52025 125.614735 
L 137.953663 130.704281 
L 137.591058 135.812413 
L 137.433013 140.93096 
L 137.479782 146.051733 
L 137.73129 151.16654 
L 138.187134 156.267197 
L 138.846586 161.345546 
L 139.708589 166.393462 
L 140.771767 171.402868 
L 142.034416 176.365752 
L 143.494518 181.274174 
L 145.149737 186.120281 
L 146.997424 190.896321 
L 149.034624 195.594652 
L 151.258078 200.207759 
L 153.664228 204.728262 
L 156.249225 209.148928 
L 159.008934 213.462686 
L 161.93894 217.662635 
L 165.034555 221.742055 
L 168.290828 225.69442 
L 171.702548 229.513407 
L 175.264258 233.192908 
L 178.97026 236.727035 
L 182.814625 240.110134 
L 186.791202 243.336794 
L 190.893631 246.401852 
L 195.115348 249.300405 
L 199.449599 252.027815 
L 203.88945 254.57972 
L 208.4278 256.952038 
L 213.057386 259.140972 
L 217.770803 261.143021 
L 222.560511 262.954982 
L 227.418846 264.573957 
L 232.338037 265.997355 
L 237.310214 267.222899 
L 242.327422 268.248629 
L 247.381636 269.072904 
L 252.464768 269.694405 
L 257.568688 270.112137 
L 262.685231 270.325433 
L 267.80621 270.333952 
L 272.923434 270.137678 
L 278.028716 269.736928 
L 283.113888 269.132341 
L 288.170816 268.324885 
L 293.191409 267.315852 
L 298.167635 266.106856 
L 303.091534 264.699831 
L 307.955229 263.097028 
L 312.750938 261.301011 
L 314.506324 260.588187 
L 313.738702 255.525059 
L 312.769223 250.496679 
L 311.599438 245.511089 
L 310.231219 240.576266 
L 308.666753 235.700105 
L 306.908545 230.890406 
L 304.959406 226.154863 
L 302.822455 221.501054 
L 300.501111 216.936422 
L 297.999087 212.468271 
L 295.320385 208.103748 
L 292.469293 203.849835 
L 289.450369 199.713339 
L 286.268445 195.700876 
L 283.940539 192.962205 
L 289.014358 192.268762 
L 294.056388 191.372974 
L 299.058563 190.276276 
L 304.012881 188.980421 
L 308.911415 187.487483 
L 313.74633 185.79985 
L 318.509889 183.920222 
L 323.194473 181.851606 
L 327.792588 179.597312 
L 332.296877 177.160944 
L 336.700134 174.546403 
L 340.995315 171.757869 
L 345.175549 168.799804 
L 349.234148 165.676941 
L 353.164619 162.394275 
L 355.817722 160.021254 
L 355.817722 160.021254 
" style="fill:none;stroke:#1f77b4;stroke-linecap:square;stroke-width:1.5;"/>
   </g>
   <g id="patch_4">
    <path d="M 82.520165 307.584 
L 82.520165 41.472 
" style="fill:none;stroke:#000000;stroke-linecap:square;stroke-linejoin:miter;stroke-width:0.8;"/>
   </g>
   <g id="patch_5">
    <path d="M 389.799835 307.584 
L 389.799835 41.472 
" style="fill:none;stroke:#000000;stroke-linecap:square;stroke-linejoin:miter;stroke-width:0.8;"/>
   </g>
   <g id="patch_6">
    <path d="M 82.520165 307.584 
L 389.799835 307.584 
" style="fill:none;stroke:#000000;stroke-linecap:square;stroke-linejoin:miter;stroke-width:0.8;"/>
   </g>
   <g id="patch_7">
    <path d="M 82.520165 41.472 
L 389.799835 41.472 
" style="fill:none;stroke:#000000;stroke-linecap:square;stroke-linejoin:miter;stroke-width:0.8;"/>
   </g>
  </g>
 </g>
 <defs>
  <clipPath id="pa156980a4a">
   <rect height="266.112" width="307.27967" x="82.520165" y="41.472"/>
  </clipPath>
 </defs>
</svg>
