<?xml version="1.0" encoding="utf-8" standalone="no"?>
<!DOCTYPE svg PUBLIC "-//W3C//DTD SVG 1.1//EN"
  "http://www.w3.org/Graphics/SVG/1.1/DTD/svg11.dtd">
<!-- Created with matplotlib (http://matplotlib.org/) -->
<svg height="345.6pt" version="1.1" viewBox="0 0 460.8 345.6" width="460.8pt" xmlns="http://www.w3.org/2000/svg" xmlns:xlink="http://www.w3.org/1999/xlink">
 <defs>
  <style type="text/css">
*{stroke-linecap:butt;stroke-linejoin:round;}
  </style>
 </defs>
 <g id="figure_1">
  <g id="patch_1">
   <path d="M 0 345.6 
L 460.8 345.6 
L 460.8 0 
L 0 0 
z
" style="fill:#ffffff;"/>
  </g>
  <g id="axes_1">
   <g id="patch_2">
    <path d="M 82.520165 307.584 
L 389.799835 307.584 
L 389.799835 41.472 
L 82.520165 41.472 
z
" style="fill:#ffffff;"/>
   </g>
   <g id="PathCollection_1">
    <defs>
     <path d="M 0 2.738613 
C 0.726289 2.738613 1.422928 2.450055 1.936492 1.936492 
C 2.450055 1.422928 2.738613 0.726289 2.738613 0 
C 2.738613 -0.726289 2.450055 -1.422928 1.936492 -1.936492 
C 1.422928 -2.450055 0.726289 -2.738613 0 -2.738613 
C -0.726289 -2.738613 -1.422928 -2.450055 -1.936492 -1.936492 
C -2.450055 -1.422928 -2.738613 -0.726289 -2.738613 0 
C -2.738613 0.726289 -2.450055 1.422928 -1.936492 1.936492 
C -1.422928 2.450055 -0.726289 2.738613 0 2.738613 
z
" id="m2cd265b4a3" style="stroke:#000000;"/>
    </defs>
    <g clip-path="url(#p59f84f2e3b)">
     <use style="stroke:#000000;" x="271.109687" xlink:href="#m2cd265b4a3" y="137.093801"/>
    </g>
   </g>
   <g id="Quiver_1">
    <path clip-path="url(#p59f84f2e3b)" d="M 270.495163 136.632834 
L 281.097402 122.498787 
L 279.407388 122.191377 
L 285.860629 117.42904 
L 283.09453 124.957179 
L 282.32645 123.420721 
L 271.72421 137.554768 
L 270.495163 136.632834 
"/>
   </g>
   <g id="patch_3">
    <path clip-path="url(#p59f84f2e3b)" d="M 236.16 225.741278 
C 249.74192 225.741278 262.769389 220.345124 272.373256 210.741256 
C 281.977124 201.137389 287.373278 188.10992 287.373278 174.528 
C 287.373278 160.94608 281.977124 147.918611 272.373256 138.314744 
C 262.769389 128.710876 249.74192 123.314722 236.16 123.314722 
C 222.57808 123.314722 209.550611 128.710876 199.946744 138.314744 
C 190.342876 147.918611 184.946722 160.94608 184.946722 174.528 
C 184.946722 188.10992 190.342876 201.137389 199.946744 210.741256 
C 209.550611 220.345124 222.57808 225.741278 236.16 225.741278 
z
" style="fill:#009900;fill-opacity:0.5;stroke:#009900;stroke-linejoin:miter;stroke-width:2;"/>
   </g>
   <g id="matplotlib.axis_1">
    <g id="xtick_1">
     <g id="line2d_1">
      <defs>
       <path d="M 0 0 
L 0 3.5 
" id="m2878e8c365" style="stroke:#000000;stroke-width:0.8;"/>
      </defs>
      <g>
       <use style="stroke:#000000;stroke-width:0.8;" x="108.126804" xlink:href="#m2878e8c365" y="307.584"/>
      </g>
     </g>
     <g id="text_1">
      <!-- −2 -->
      <defs>
       <path d="M 10.59375 35.5 
L 73.1875 35.5 
L 73.1875 27.203125 
L 10.59375 27.203125 
z
" id="DejaVuSans-2212"/>
       <path d="M 19.1875 8.296875 
L 53.609375 8.296875 
L 53.609375 0 
L 7.328125 0 
L 7.328125 8.296875 
Q 12.9375 14.109375 22.625 23.890625 
Q 32.328125 33.6875 34.8125 36.53125 
Q 39.546875 41.84375 41.421875 45.53125 
Q 43.3125 49.21875 43.3125 52.78125 
Q 43.3125 58.59375 39.234375 62.25 
Q 35.15625 65.921875 28.609375 65.921875 
Q 23.96875 65.921875 18.8125 64.3125 
Q 13.671875 62.703125 7.8125 59.421875 
L 7.8125 69.390625 
Q 13.765625 71.78125 18.9375 73 
Q 24.125 74.21875 28.421875 74.21875 
Q 39.75 74.21875 46.484375 68.546875 
Q 53.21875 62.890625 53.21875 53.421875 
Q 53.21875 48.921875 51.53125 44.890625 
Q 49.859375 40.875 45.40625 35.40625 
Q 44.1875 33.984375 37.640625 27.21875 
Q 31.109375 20.453125 19.1875 8.296875 
z
" id="DejaVuSans-32"/>
      </defs>
      <g transform="translate(100.755711 322.182437)scale(0.1 -0.1)">
       <use xlink:href="#DejaVuSans-2212"/>
       <use x="83.789062" xlink:href="#DejaVuSans-32"/>
      </g>
     </g>
    </g>
    <g id="xtick_2">
     <g id="line2d_2">
      <g>
       <use style="stroke:#000000;stroke-width:0.8;" x="172.143402" xlink:href="#m2878e8c365" y="307.584"/>
      </g>
     </g>
     <g id="text_2">
      <!-- −1 -->
      <defs>
       <path d="M 12.40625 8.296875 
L 28.515625 8.296875 
L 28.515625 63.921875 
L 10.984375 60.40625 
L 10.984375 69.390625 
L 28.421875 72.90625 
L 38.28125 72.90625 
L 38.28125 8.296875 
L 54.390625 8.296875 
L 54.390625 0 
L 12.40625 0 
z
" id="DejaVuSans-31"/>
      </defs>
      <g transform="translate(164.772308 322.182437)scale(0.1 -0.1)">
       <use xlink:href="#DejaVuSans-2212"/>
       <use x="83.789062" xlink:href="#DejaVuSans-31"/>
      </g>
     </g>
    </g>
    <g id="xtick_3">
     <g id="line2d_3">
      <g>
       <use style="stroke:#000000;stroke-width:0.8;" x="236.16" xlink:href="#m2878e8c365" y="307.584"/>
      </g>
     </g>
     <g id="text_3">
      <!-- 0 -->
      <defs>
       <path d="M 31.78125 66.40625 
Q 24.171875 66.40625 20.328125 58.90625 
Q 16.5 51.421875 16.5 36.375 
Q 16.5 21.390625 20.328125 13.890625 
Q 24.171875 6.390625 31.78125 6.390625 
Q 39.453125 6.390625 43.28125 13.890625 
Q 47.125 21.390625 47.125 36.375 
Q 47.125 51.421875 43.28125 58.90625 
Q 39.453125 66.40625 31.78125 66.40625 
z
M 31.78125 74.21875 
Q 44.046875 74.21875 50.515625 64.515625 
Q 56.984375 54.828125 56.984375 36.375 
Q 56.984375 17.96875 50.515625 8.265625 
Q 44.046875 -1.421875 31.78125 -1.421875 
Q 19.53125 -1.421875 13.0625 8.265625 
Q 6.59375 17.96875 6.59375 36.375 
Q 6.59375 54.828125 13.0625 64.515625 
Q 19.53125 74.21875 31.78125 74.21875 
z
" id="DejaVuSans-30"/>
      </defs>
      <g transform="translate(232.97875 322.182437)scale(0.1 -0.1)">
       <use xlink:href="#DejaVuSans-30"/>
      </g>
     </g>
    </g>
    <g id="xtick_4">
     <g id="line2d_4">
      <g>
       <use style="stroke:#000000;stroke-width:0.8;" x="300.176598" xlink:href="#m2878e8c365" y="307.584"/>
      </g>
     </g>
     <g id="text_4">
      <!-- 1 -->
      <g transform="translate(296.995348 322.182437)scale(0.1 -0.1)">
       <use xlink:href="#DejaVuSans-31"/>
      </g>
     </g>
    </g>
    <g id="xtick_5">
     <g id="line2d_5">
      <g>
       <use style="stroke:#000000;stroke-width:0.8;" x="364.193196" xlink:href="#m2878e8c365" y="307.584"/>
      </g>
     </g>
     <g id="text_5">
      <!-- 2 -->
      <g transform="translate(361.011946 322.182437)scale(0.1 -0.1)">
       <use xlink:href="#DejaVuSans-32"/>
      </g>
     </g>
    </g>
   </g>
   <g id="matplotlib.axis_2">
    <g id="ytick_1">
     <g id="line2d_6">
      <defs>
       <path d="M 0 0 
L -3.5 0 
" id="mf4c964d55d" style="stroke:#000000;stroke-width:0.8;"/>
      </defs>
      <g>
       <use style="stroke:#000000;stroke-width:0.8;" x="82.520165" xlink:href="#mf4c964d55d" y="302.561196"/>
      </g>
     </g>
     <g id="text_6">
      <!-- −2.0 -->
      <defs>
       <path d="M 10.6875 12.40625 
L 21 12.40625 
L 21 0 
L 10.6875 0 
z
" id="DejaVuSans-2e"/>
      </defs>
      <g transform="translate(51.237353 306.360414)scale(0.1 -0.1)">
       <use xlink:href="#DejaVuSans-2212"/>
       <use x="83.789062" xlink:href="#DejaVuSans-32"/>
       <use x="147.412109" xlink:href="#DejaVuSans-2e"/>
       <use x="179.199219" xlink:href="#DejaVuSans-30"/>
      </g>
     </g>
    </g>
    <g id="ytick_2">
     <g id="line2d_7">
      <g>
       <use style="stroke:#000000;stroke-width:0.8;" x="82.520165" xlink:href="#mf4c964d55d" y="270.552897"/>
      </g>
     </g>
     <g id="text_7">
      <!-- −1.5 -->
      <defs>
       <path d="M 10.796875 72.90625 
L 49.515625 72.90625 
L 49.515625 64.59375 
L 19.828125 64.59375 
L 19.828125 46.734375 
Q 21.96875 47.46875 24.109375 47.828125 
Q 26.265625 48.1875 28.421875 48.1875 
Q 40.625 48.1875 47.75 41.5 
Q 54.890625 34.8125 54.890625 23.390625 
Q 54.890625 11.625 47.5625 5.09375 
Q 40.234375 -1.421875 26.90625 -1.421875 
Q 22.3125 -1.421875 17.546875 -0.640625 
Q 12.796875 0.140625 7.71875 1.703125 
L 7.71875 11.625 
Q 12.109375 9.234375 16.796875 8.0625 
Q 21.484375 6.890625 26.703125 6.890625 
Q 35.15625 6.890625 40.078125 11.328125 
Q 45.015625 15.765625 45.015625 23.390625 
Q 45.015625 31 40.078125 35.4375 
Q 35.15625 39.890625 26.703125 39.890625 
Q 22.75 39.890625 18.8125 39.015625 
Q 14.890625 38.140625 10.796875 36.28125 
z
" id="DejaVuSans-35"/>
      </defs>
      <g transform="translate(51.237353 274.352116)scale(0.1 -0.1)">
       <use xlink:href="#DejaVuSans-2212"/>
       <use x="83.789062" xlink:href="#DejaVuSans-31"/>
       <use x="147.412109" xlink:href="#DejaVuSans-2e"/>
       <use x="179.199219" xlink:href="#DejaVuSans-35"/>
      </g>
     </g>
    </g>
    <g id="ytick_3">
     <g id="line2d_8">
      <g>
       <use style="stroke:#000000;stroke-width:0.8;" x="82.520165" xlink:href="#mf4c964d55d" y="238.544598"/>
      </g>
     </g>
     <g id="text_8">
      <!-- −1.0 -->
      <g transform="translate(51.237353 242.343817)scale(0.1 -0.1)">
       <use xlink:href="#DejaVuSans-2212"/>
       <use x="83.789062" xlink:href="#DejaVuSans-31"/>
       <use x="147.412109" xlink:href="#DejaVuSans-2e"/>
       <use x="179.199219" xlink:href="#DejaVuSans-30"/>
      </g>
     </g>
    </g>
    <g id="ytick_4">
     <g id="line2d_9">
      <g>
       <use style="stroke:#000000;stroke-width:0.8;" x="82.520165" xlink:href="#mf4c964d55d" y="206.536299"/>
      </g>
     </g>
     <g id="text_9">
      <!-- −0.5 -->
      <g transform="translate(51.237353 210.335518)scale(0.1 -0.1)">
       <use xlink:href="#DejaVuSans-2212"/>
       <use x="83.789062" xlink:href="#DejaVuSans-30"/>
       <use x="147.412109" xlink:href="#DejaVuSans-2e"/>
       <use x="179.199219" xlink:href="#DejaVuSans-35"/>
      </g>
     </g>
    </g>
    <g id="ytick_5">
     <g id="line2d_10">
      <g>
       <use style="stroke:#000000;stroke-width:0.8;" x="82.520165" xlink:href="#mf4c964d55d" y="174.528"/>
      </g>
     </g>
     <g id="text_10">
      <!-- 0.0 -->
      <g transform="translate(59.61704 178.327219)scale(0.1 -0.1)">
       <use xlink:href="#DejaVuSans-30"/>
       <use x="63.623047" xlink:href="#DejaVuSans-2e"/>
       <use x="95.410156" xlink:href="#DejaVuSans-30"/>
      </g>
     </g>
    </g>
    <g id="ytick_6">
     <g id="line2d_11">
      <g>
       <use style="stroke:#000000;stroke-width:0.8;" x="82.520165" xlink:href="#mf4c964d55d" y="142.519701"/>
      </g>
     </g>
     <g id="text_11">
      <!-- 0.5 -->
      <g transform="translate(59.61704 146.31892)scale(0.1 -0.1)">
       <use xlink:href="#DejaVuSans-30"/>
       <use x="63.623047" xlink:href="#DejaVuSans-2e"/>
       <use x="95.410156" xlink:href="#DejaVuSans-35"/>
      </g>
     </g>
    </g>
    <g id="ytick_7">
     <g id="line2d_12">
      <g>
       <use style="stroke:#000000;stroke-width:0.8;" x="82.520165" xlink:href="#mf4c964d55d" y="110.511402"/>
      </g>
     </g>
     <g id="text_12">
      <!-- 1.0 -->
      <g transform="translate(59.61704 114.310621)scale(0.1 -0.1)">
       <use xlink:href="#DejaVuSans-31"/>
       <use x="63.623047" xlink:href="#DejaVuSans-2e"/>
       <use x="95.410156" xlink:href="#DejaVuSans-30"/>
      </g>
     </g>
    </g>
    <g id="ytick_8">
     <g id="line2d_13">
      <g>
       <use style="stroke:#000000;stroke-width:0.8;" x="82.520165" xlink:href="#mf4c964d55d" y="78.503103"/>
      </g>
     </g>
     <g id="text_13">
      <!-- 1.5 -->
      <g transform="translate(59.61704 82.302322)scale(0.1 -0.1)">
       <use xlink:href="#DejaVuSans-31"/>
       <use x="63.623047" xlink:href="#DejaVuSans-2e"/>
       <use x="95.410156" xlink:href="#DejaVuSans-35"/>
      </g>
     </g>
    </g>
    <g id="ytick_9">
     <g id="line2d_14">
      <g>
       <use style="stroke:#000000;stroke-width:0.8;" x="82.520165" xlink:href="#mf4c964d55d" y="46.494804"/>
      </g>
     </g>
     <g id="text_14">
      <!-- 2.0 -->
      <g transform="translate(59.61704 50.294023)scale(0.1 -0.1)">
       <use xlink:href="#DejaVuSans-32"/>
       <use x="63.623047" xlink:href="#DejaVuSans-2e"/>
       <use x="95.410156" xlink:href="#DejaVuSans-30"/>
      </g>
     </g>
    </g>
   </g>
   <g id="line2d_15">
    <path clip-path="url(#p59f84f2e3b)" d="M 300.176598 63.648 
L 172.143402 63.648 
" style="fill:none;stroke:#009900;stroke-linecap:square;stroke-width:2;"/>
   </g>
   <g id="line2d_16">
    <path clip-path="url(#p59f84f2e3b)" d="M 172.143402 63.648 
L 108.126804 174.528 
" style="fill:none;stroke:#009900;stroke-linecap:square;stroke-width:2;"/>
   </g>
   <g id="line2d_17">
    <path clip-path="url(#p59f84f2e3b)" d="M 108.126804 174.528 
L 172.143402 285.408 
" style="fill:none;stroke:#009900;stroke-linecap:square;stroke-width:2;"/>
   </g>
   <g id="line2d_18">
    <path clip-path="url(#p59f84f2e3b)" d="M 172.143402 285.408 
L 300.176598 285.408 
" style="fill:none;stroke:#009900;stroke-linecap:square;stroke-width:2;"/>
   </g>
   <g id="line2d_19">
    <path clip-path="url(#p59f84f2e3b)" d="M 300.176598 285.408 
L 364.193196 174.528 
" style="fill:none;stroke:#009900;stroke-linecap:square;stroke-width:2;"/>
   </g>
   <g id="line2d_20">
    <path clip-path="url(#p59f84f2e3b)" d="M 364.193196 174.528 
L 300.176598 63.648 
" style="fill:none;stroke:#009900;stroke-linecap:square;stroke-width:2;"/>
   </g>
   <g id="line2d_21">
    <path clip-path="url(#p59f84f2e3b)" d="M 185.085458 182.342416 
L 180.834713 185.19823 
L 176.70157 188.221743 
L 172.692642 191.40812 
L 168.814342 194.752262 
L 165.072873 198.24882 
L 161.474223 201.892199 
L 158.024147 205.676572 
L 154.728166 209.595885 
L 151.591552 213.643866 
L 148.619322 217.814041 
L 145.816233 222.099737 
L 143.186768 226.494099 
L 140.730434 230.999143 
L 145.849889 231.124372 
L 150.970257 231.044777 
L 156.083346 230.760486 
L 161.180976 230.271953 
L 166.254993 229.57996 
L 171.297279 228.685614 
L 176.299767 227.590346 
L 181.254455 226.295907 
L 186.153416 224.80437 
L 190.988813 223.118119 
L 195.752909 221.239853 
L 200.438085 219.172576 
L 205.036844 216.919596 
L 206.400157 216.207151 
L 205.701222 221.280216 
L 205.205715 226.377174 
L 204.914428 231.489869 
L 204.827827 236.610123 
L 204.946051 241.729745 
L 205.268911 246.840543 
L 205.79589 251.934343 
L 206.526145 257.002995 
L 207.458508 262.038389 
L 208.591488 267.032472 
L 209.923271 271.977252 
L 211.451727 276.864821 
L 213.174411 281.687357 
L 214.654994 285.408 
L 216.527649 280.641695 
L 218.208204 275.804316 
L 219.693972 270.903602 
L 220.982574 265.947393 
L 222.071951 260.943618 
L 222.960358 255.900283 
L 223.646376 250.825454 
L 224.128905 245.727252 
L 224.407175 240.613832 
L 224.48074 235.493374 
L 224.349482 230.37407 
L 224.013612 225.26411 
L 223.923233 224.257884 
L 221.220118 228.607329 
L 218.693097 233.061391 
L 216.346212 237.612944 
L 214.183218 242.254706 
L 212.207575 246.979253 
L 210.422444 251.779024 
L 208.83068 256.646343 
L 207.434831 261.573422 
L 206.237129 266.552379 
L 205.239489 271.575248 
L 204.443509 276.633995 
L 203.850462 281.720526 
L 203.548825 285.408 
L 203.504262 284.769388 
L 203.032931 279.670138 
L 202.358061 274.593815 
L 201.480732 269.54854 
L 200.402348 264.542385 
L 199.124634 259.583358 
L 197.649634 254.679393 
L 195.979707 249.838335 
L 194.117526 245.067928 
L 192.066068 240.375804 
L 189.828616 235.76947 
L 187.40875 231.256295 
L 184.810341 226.843499 
L 182.037546 222.538141 
L 179.0948 218.347109 
L 175.986811 214.277108 
L 172.718552 210.334649 
L 169.29525 206.526039 
L 165.722383 202.857371 
L 162.005667 199.334514 
L 158.151047 195.963104 
L 154.164689 192.748535 
L 150.052972 189.695949 
L 145.822473 186.810229 
L 141.479959 184.095992 
L 137.032379 181.557581 
L 132.486847 179.199056 
L 127.850635 177.02419 
L 123.13116 175.036463 
L 118.335973 173.239055 
L 113.472744 171.63484 
L 110.330352 170.711344 
L 114.062791 174.217538 
L 117.932456 177.571669 
L 121.933155 180.768372 
L 126.058488 183.802533 
L 130.301855 186.669298 
L 134.656467 189.36408 
L 139.115359 191.882568 
L 143.671397 194.220734 
L 148.317293 196.374836 
L 153.045613 198.34143 
L 157.848794 200.117367 
L 162.719151 201.699809 
L 167.648894 203.086222 
L 172.630135 204.274389 
L 177.654905 205.262409 
L 182.715167 206.048701 
L 187.802824 206.632008 
L 192.909737 207.011397 
L 196.689356 207.160318 
L 195.951905 212.227927 
L 195.417693 217.320974 
L 195.087577 222.431309 
L 194.962083 227.550757 
L 195.041413 232.671129 
L 195.32544 237.784233 
L 195.81371 242.881889 
L 196.50544 247.955941 
L 197.399526 252.998274 
L 198.494535 258.000818 
L 199.788718 262.955573 
L 201.280002 267.854611 
L 202.966003 272.690095 
L 204.844023 277.454289 
L 206.911057 282.139571 
L 208.488539 285.408 
L 210.687538 280.783186 
L 212.699834 276.074134 
L 214.522209 271.288379 
L 216.151747 266.433577 
L 217.585842 261.517494 
L 218.822198 256.547994 
L 219.858839 251.533029 
L 220.694105 246.48062 
L 221.326661 241.398851 
L 221.755494 236.295852 
L 221.979918 231.179785 
L 221.999575 226.058837 
L 221.940659 223.727697 
L 219.146807 228.019421 
L 216.526814 232.419437 
L 214.084869 236.920704 
L 211.824881 241.516023 
L 209.750465 246.198042 
L 207.864938 250.959269 
L 206.171318 255.79209 
L 204.672314 260.688771 
L 203.370324 265.64148 
L 202.267431 270.642293 
L 201.365399 275.683209 
L 200.665672 280.756166 
L 200.204516 285.408 
L 200.151408 284.770041 
L 199.611867 279.677557 
L 198.869112 274.610722 
L 197.924332 269.577642 
L 196.779038 264.586369 
L 195.435062 259.644889 
L 193.894555 254.761105 
L 192.159981 249.942832 
L 190.234115 245.197778 
L 188.120038 240.533533 
L 185.821132 235.95756 
L 183.341075 231.477178 
L 180.683833 227.099557 
L 177.85366 222.831698 
L 174.855081 218.68043 
L 171.692894 214.652393 
L 168.372159 210.754032 
L 164.898186 206.991584 
L 161.276535 203.371067 
L 157.512999 199.898273 
L 153.613598 196.578759 
L 149.584571 193.417834 
L 145.432364 190.420556 
L 141.163619 187.59172 
L 136.785165 184.93585 
L 132.304007 182.457196 
L 127.727313 180.159724 
L 123.062407 178.047108 
L 118.316749 176.122728 
L 113.497933 174.389663 
L 109.025111 172.972086 
L 112.811611 176.419829 
L 116.732954 179.713393 
L 120.782868 182.847512 
L 124.954874 185.81717 
L 129.242297 188.617617 
L 133.638279 191.244372 
L 138.135787 193.693235 
L 142.727625 195.960285 
L 147.406449 198.041898 
L 152.164772 199.934743 
L 156.994983 201.635792 
L 161.889354 203.142323 
L 166.840055 204.451927 
L 171.839166 205.562507 
L 176.87869 206.472288 
L 181.950564 207.179814 
L 187.046675 207.683954 
L 192.158869 207.9839 
L 197.467035 208.078772 
L 196.828676 213.159816 
L 196.394016 218.262322 
L 196.163749 223.378129 
L 196.138244 228.499052 
L 196.317542 233.616898 
L 196.701355 238.723481 
L 197.289071 243.810631 
L 198.079748 248.870209 
L 199.072121 253.894122 
L 200.264604 258.874331 
L 201.655289 263.80287 
L 203.241949 268.671855 
L 205.022049 273.473495 
L 206.992738 278.200109 
L 209.150866 282.844137 
L 210.44108 285.408 
L 212.702766 280.813517 
L 214.778913 276.132266 
L 216.6662 271.371735 
L 218.361606 266.539541 
L 219.86242 261.643414 
L 221.166241 256.691187 
L 222.270982 251.690782 
L 223.174877 246.650199 
L 223.87648 241.577502 
L 224.374667 236.480806 
L 224.668642 231.368264 
L 224.757936 226.248057 
L 224.740734 224.451944 
L 222.530258 229.071284 
L 220.506275 233.775324 
L 218.672022 238.556539 
L 217.030434 243.407281 
L 215.584137 248.319788 
L 214.335445 253.286202 
L 213.286355 258.298578 
L 212.438546 263.348897 
L 211.793374 268.429079 
L 211.351871 273.530998 
L 211.114744 278.646492 
L 211.082371 283.767376 
L 211.11533 285.408 
L 211.160124 282.207567 
L 211.065366 277.087457 
L 210.765935 271.975232 
L 210.262308 266.879071 
L 209.555292 261.807126 
L 208.646018 256.76751 
L 207.535941 251.768287 
L 206.226835 246.817455 
L 204.720797 241.922932 
L 203.020234 237.09255 
L 201.127868 232.334037 
L 199.046726 227.655004 
L 196.780137 223.062937 
L 194.331727 218.565183 
L 191.705414 214.168937 
L 188.905399 209.881232 
L 185.93616 205.708927 
L 182.802449 201.658698 
L 179.509279 197.737023 
L 176.061918 193.950177 
L 172.465881 190.304218 
L 168.726921 186.804978 
L 164.851019 183.458056 
L 160.844377 180.268805 
L 156.713403 177.242329 
L 152.464707 174.383469 
L 148.105085 171.696797 
L 143.641513 169.186614 
L 139.08113 166.856933 
L 134.431233 164.711482 
L 129.69926 162.753694 
L 124.892782 160.986701 
L 120.019487 159.413328 
L 117.30591 158.629323 
L 121.028466 162.146008 
L 124.888674 165.511018 
L 128.88036 168.71897 
L 132.997136 171.76473 
L 137.232417 174.643427 
L 141.579427 177.350456 
L 146.031212 179.881485 
L 150.580651 182.232465 
L 155.220465 184.399636 
L 159.943231 186.37953 
L 164.741394 188.168981 
L 169.607278 189.765125 
L 174.533099 191.165408 
L 179.510976 192.367591 
L 184.532945 193.369751 
L 188.818186 194.061368 
L 185.821553 198.214041 
L 182.993379 202.483226 
L 180.33819 206.862092 
L 177.860233 211.343636 
L 175.563471 215.920686 
L 173.45158 220.585921 
L 171.527938 225.331877 
L 169.795622 230.150963 
L 168.257404 235.035468 
L 166.915745 239.977578 
L 165.77279 244.969386 
L 164.830369 250.002908 
L 164.089988 255.070091 
L 163.552833 260.162828 
L 163.219763 265.272971 
L 163.096312 269.73798 
L 167.606502 272.163404 
L 172.210076 274.406529 
L 176.899669 276.463766 
L 181.667778 278.331823 
L 186.506775 280.007713 
L 191.408919 281.488754 
L 196.366368 282.772577 
L 201.371191 283.857127 
L 206.415381 284.740671 
L 211.370259 285.408 
L 216.445098 284.722065 
L 221.488448 283.833739 
L 226.49224 282.744443 
L 231.44847 281.455921 
L 236.349208 279.970232 
L 241.186614 278.289755 
L 245.95295 276.417178 
L 250.64059 274.355495 
L 255.242035 272.108006 
L 259.749923 269.678307 
L 264.157044 267.070283 
L 268.456347 264.288108 
L 272.640953 261.336231 
L 276.704168 258.219377 
L 280.639493 254.94253 
L 284.44063 251.510933 
L 288.1015 247.930077 
L 291.616245 244.205689 
L 294.979243 240.343727 
L 298.185114 236.350371 
L 301.228729 232.232008 
L 304.105219 227.995228 
L 306.809981 223.646808 
L 309.33869 219.193704 
L 311.6873 214.643041 
L 313.852053 210.002098 
L 315.829486 205.278301 
L 317.616435 200.479206 
L 319.210043 195.612491 
L 320.60776 190.685941 
L 321.807349 185.707439 
L 322.806891 180.684947 
L 323.604788 175.626503 
L 324.199763 170.540197 
L 324.590863 165.434167 
L 324.777465 160.316581 
L 324.759268 155.195627 
L 324.536302 150.079497 
L 324.108924 144.976376 
L 323.477817 139.894427 
L 322.643992 134.84178 
L 321.608781 129.826519 
L 320.373842 124.856668 
L 318.941149 119.940176 
L 317.312995 115.084909 
L 315.491984 110.298634 
L 313.48103 105.589009 
L 311.28335 100.963568 
L 308.90246 96.429711 
L 306.342168 91.994691 
L 303.606571 87.665602 
L 300.700044 83.449371 
L 297.627238 79.352742 
L 294.393068 75.38227 
L 291.002709 71.544306 
L 287.461584 67.844991 
L 283.775359 64.290241 
L 283.076965 63.648 
L 279.364498 67.175335 
L 275.796057 70.848307 
L 272.377349 74.661041 
L 269.113845 78.607438 
L 266.010765 82.681182 
L 263.073074 86.875759 
L 260.305471 91.184456 
L 257.712383 95.600382 
L 255.297959 100.116471 
L 253.066063 104.725499 
L 251.020263 109.420092 
L 249.163834 114.19274 
L 247.499744 119.035808 
L 245.943227 124.257846 
L 246.015743 123.621802 
L 246.481211 118.522013 
L 246.742371 113.40769 
L 246.798803 108.287015 
L 246.650417 103.168179 
L 246.297451 98.059371 
L 245.74047 92.968765 
L 244.980365 87.904503 
L 244.018351 82.874689 
L 242.855967 77.887369 
L 241.495074 72.95052 
L 239.937848 68.072042 
L 238.336193 63.648 
L 236.600771 68.465968 
L 235.059405 73.34948 
L 233.71456 78.290724 
L 232.568388 83.281795 
L 231.622723 88.314709 
L 230.879076 93.381413 
L 230.338639 98.473803 
L 230.002275 103.58373 
L 229.870523 108.703022 
L 229.943593 113.823487 
L 230.221369 118.936934 
L 230.655484 123.6114 
L 230.197814 119.797913 
L 229.410058 114.737879 
L 228.420584 109.713395 
L 227.230977 104.732498 
L 225.843138 99.803157 
L 224.259288 94.933257 
L 222.481961 90.13059 
L 220.514 85.402839 
L 218.358553 80.757567 
L 216.01907 76.202205 
L 213.499292 71.744042 
L 210.80325 67.390209 
L 208.28648 63.648 
L 205.438777 67.904182 
L 202.763554 72.270838 
L 200.26509 76.740981 
L 197.947383 81.307461 
L 195.81414 85.962971 
L 193.868775 90.700065 
L 192.114398 95.511163 
L 190.553818 100.388569 
L 189.18953 105.32448 
L 188.023717 110.311 
L 187.058244 115.340152 
L 186.294656 120.403889 
L 185.734174 125.494111 
L 185.377696 130.602675 
L 185.22579 135.721408 
L 185.278701 140.842121 
L 185.536343 145.956622 
L 185.998304 151.056729 
L 186.663846 156.134284 
L 187.212875 159.462184 
L 183.707747 163.195625 
L 180.354721 167.066247 
L 177.15916 171.067859 
L 174.126177 175.194058 
L 171.260625 179.438243 
L 168.567086 183.793625 
L 166.049871 188.253236 
L 163.713007 192.809942 
L 161.560231 197.456452 
L 159.594988 202.185334 
L 157.820422 206.989022 
L 156.239371 211.859831 
L 154.854366 216.789969 
L 153.667621 221.771549 
L 152.681036 226.796601 
L 151.896189 231.857087 
L 151.314335 236.944911 
L 150.936404 242.051932 
L 150.763003 247.169982 
L 150.752044 248.357081 
L 155.248577 250.807733 
L 159.839512 253.076612 
L 164.517507 255.160088 
L 169.275076 257.054827 
L 174.104609 258.757799 
L 178.99838 260.266278 
L 183.948559 261.577852 
L 188.947228 262.690423 
L 193.986389 263.60221 
L 199.057981 264.311756 
L 204.153891 264.817924 
L 209.265966 265.119905 
L 214.386027 265.217216 
L 219.505885 265.109702 
L 224.617348 264.797534 
L 229.712239 264.281211 
L 234.782407 263.561561 
L 239.819741 262.639733 
L 244.816183 261.517203 
L 249.763738 260.195766 
L 254.654493 258.677537 
L 259.480623 256.964945 
L 264.234407 255.060728 
L 268.90824 252.967935 
L 273.494645 250.689911 
L 277.986285 248.230303 
L 282.375974 245.593044 
L 286.656689 242.782354 
L 290.821583 239.80273 
L 294.863992 236.658937 
L 298.777449 233.356006 
L 302.555694 229.89922 
L 306.192682 226.29411 
L 309.682595 222.546443 
L 313.01985 218.662215 
L 316.199107 214.647638 
L 319.215282 210.509137 
L 322.063548 206.253331 
L 324.739348 201.887029 
L 327.238403 197.417216 
L 329.556714 192.851043 
L 331.690572 188.195815 
L 333.636564 183.458978 
L 335.391577 178.648112 
L 336.952802 173.770913 
L 338.317742 168.835182 
L 339.484214 163.848816 
L 340.450352 158.819792 
L 341.21461 153.756156 
L 341.775764 148.666008 
L 342.132918 143.557491 
L 342.285501 138.438778 
L 342.290275 136.591029 
L 337.816547 134.098991 
L 333.246742 131.787847 
L 328.588171 129.661296 
L 323.848287 127.722739 
L 319.034673 125.975277 
L 314.15503 124.421707 
L 309.217163 123.064512 
L 304.228973 121.905866 
L 299.19844 120.94762 
L 294.13361 120.191309 
L 289.042588 119.638142 
L 283.933517 119.289004 
L 278.814572 119.144453 
L 273.69394 119.204721 
L 268.579814 119.469712 
L 263.480376 119.939002 
L 258.403783 120.611839 
L 253.358158 121.487147 
L 248.351571 122.563527 
L 243.418915 123.831767 
L 239.01607 121.216532 
L 234.512165 118.779455 
L 229.914406 116.524435 
L 225.230148 114.455081 
L 220.466885 112.574703 
L 215.632236 110.886308 
L 210.733937 109.392598 
L 205.779824 108.095963 
L 200.777822 106.998476 
L 195.735933 106.101895 
L 190.662223 105.407652 
L 185.56481 104.916858 
L 180.451847 104.6303 
L 175.331515 104.548434 
L 170.212005 104.671393 
L 165.101507 104.99898 
L 160.008197 105.530669 
L 154.940223 106.265612 
L 149.905693 107.202631 
L 146.572095 107.938802 
L 148.148533 112.811106 
L 149.918551 117.616472 
L 151.879315 122.347212 
L 154.027691 126.995759 
L 156.36024 131.554675 
L 158.873232 136.016667 
L 161.562645 140.374598 
L 164.424178 144.621494 
L 167.453253 148.750563 
L 170.645023 152.755198 
L 173.994383 156.628994 
L 177.495974 160.365751 
L 181.144195 163.959494 
L 184.933209 167.404472 
L 185.390344 167.801793 
L 180.823961 170.119692 
L 176.353923 172.618344 
L 171.98738 175.29375 
L 167.731317 178.141632 
L 163.592544 181.157433 
L 159.57768 184.336329 
L 155.693151 187.673233 
L 151.945169 191.162808 
L 148.339731 194.799471 
L 144.882604 198.577404 
L 141.57932 202.490564 
L 138.435163 206.532689 
L 135.455163 210.697314 
L 132.644087 214.977776 
L 132.04051 215.947754 
L 137.155459 215.699152 
L 142.256375 215.246205 
L 147.335097 214.589638 
L 152.383501 213.730502 
L 157.393511 212.670171 
L 162.357112 211.410341 
L 167.266362 209.953028 
L 172.113409 208.300562 
L 176.890497 206.455589 
L 181.589985 204.421058 
L 186.204355 202.200226 
L 190.726223 199.796644 
L 191.401596 199.417458 
L 185.863918 202.627884 
L 181.553635 205.393018 
L 177.357376 208.328305 
L 173.281854 211.42905 
L 169.333588 214.690293 
L 165.518896 218.106815 
L 161.843879 221.673151 
L 158.314417 225.383596 
L 154.936157 229.232214 
L 151.714503 233.212847 
L 148.654608 237.319129 
L 146.325985 240.690922 
L 151.42857 240.257183 
L 156.509728 239.619742 
L 161.561331 238.779618 
L 166.575298 237.738157 
L 171.543606 236.497023 
L 176.458309 235.058203 
L 181.311542 233.423998 
L 186.095543 231.597023 
L 190.802657 229.5802 
L 195.425355 227.376756 
L 199.956241 224.990215 
L 204.388067 222.424397 
L 208.713742 219.683405 
L 210.208113 218.678871 
L 209.845499 223.787003 
L 209.687445 228.90555 
L 209.734205 234.026323 
L 209.985704 239.14113 
L 210.44154 244.241788 
L 211.100982 249.320138 
L 211.962978 254.368055 
L 213.026146 259.377464 
L 214.288787 264.34035 
L 215.748881 269.248774 
L 217.404091 274.094884 
L 219.25177 278.870927 
L 221.288962 283.569262 
L 222.148002 285.408 
L 224.259411 280.742547 
L 226.182563 275.996391 
L 227.914381 271.177127 
L 229.452094 266.292463 
L 230.793243 261.350215 
L 231.935681 256.358288 
L 232.877583 251.324668 
L 233.617439 246.257409 
L 234.154068 241.164617 
L 234.48661 236.054439 
L 234.614533 230.935051 
L 234.53412 225.715463 
L 234.128464 230.820357 
L 233.927274 235.93739 
L 233.930872 241.058375 
L 234.139252 246.17512 
L 234.55208 251.27944 
L 235.168696 256.363167 
L 235.988114 261.41817 
L 237.009023 266.436362 
L 238.229789 271.409714 
L 239.648459 276.33027 
L 241.262765 281.190159 
L 242.842153 285.408 
L 244.626391 280.607896 
L 246.217249 275.740281 
L 247.612181 270.812943 
L 248.808957 265.833763 
L 249.805661 260.810708 
L 250.600699 255.751813 
L 251.1928 250.665172 
L 251.581015 245.558922 
L 251.764725 240.441232 
L 251.743634 235.320289 
L 251.517777 230.204285 
L 251.087516 225.101406 
L 250.918029 223.568804 
L 253.321157 228.090914 
L 255.903198 232.513307 
L 258.660023 236.828909 
L 261.587221 241.030815 
L 264.680108 245.112304 
L 267.933738 249.066845 
L 271.342904 252.888112 
L 274.902154 256.569993 
L 278.605792 260.106596 
L 282.447895 263.492265 
L 286.422315 266.721582 
L 290.522693 269.789382 
L 294.742472 272.690756 
L 299.074899 275.421064 
L 303.513043 277.975936 
L 304.239013 278.37169 
L 302.044491 277.052277 
L 297.578491 274.546414 
L 293.015856 272.221148 
L 288.363884 270.080199 
L 283.630019 268.126992 
L 278.821832 266.364651 
L 273.947017 264.795996 
L 269.013372 263.423536 
L 264.028789 262.249468 
L 259.001243 261.275668 
L 253.938777 260.503696 
L 248.84949 259.934786 
L 243.741524 259.569848 
L 238.623049 259.409467 
L 233.502256 259.453898 
L 228.387335 259.70307 
L 223.28647 260.156586 
L 218.20782 260.813719 
L 213.159512 261.673418 
L 208.14962 262.734308 
L 203.18616 263.994691 
L 198.277072 265.452552 
L 193.43021 267.105558 
L 188.653327 268.951065 
L 183.954066 270.986119 
L 179.339945 273.207466 
L 174.818344 275.611552 
L 170.396498 278.194531 
L 168.617986 279.301799 
L 169.749368 278.702458 
L 174.213276 276.19287 
L 178.573256 273.506782 
L 182.822334 270.648489 
L 186.953712 267.622565 
L 190.960781 264.43385 
L 194.83713 261.087446 
L 198.576558 257.588706 
L 202.173082 253.943227 
L 205.620949 250.156842 
L 208.914644 246.235608 
L 212.048896 242.185797 
L 215.018692 238.013889 
L 217.81928 233.726558 
L 220.446181 229.330663 
L 222.895192 224.833236 
L 223.275695 224.094062 
L 223.191292 229.214353 
L 223.311714 234.333924 
L 223.636768 239.444583 
L 224.165934 244.538156 
L 224.898365 249.606494 
L 225.832889 254.641488 
L 226.968012 259.635084 
L 228.301918 264.579292 
L 229.832472 269.466204 
L 231.557227 274.288 
L 233.473422 279.036968 
L 235.577993 283.705511 
L 236.402289 285.408 
L 238.5756 280.771059 
L 240.561745 276.050918 
L 242.357546 271.255128 
L 243.96013 266.391362 
L 245.366933 261.467399 
L 246.575705 256.491118 
L 247.584511 251.47048 
L 248.391739 246.413516 
L 248.996097 241.328316 
L 249.396617 236.223016 
L 249.59266 231.105784 
L 249.583911 225.984805 
L 249.524176 223.966838 
L 252.026531 228.434804 
L 254.705556 232.799128 
L 257.556964 237.05283 
L 260.576194 241.189103 
L 263.758415 245.20133 
L 267.098537 249.083093 
L 270.591217 252.828182 
L 274.230867 256.430605 
L 278.011663 259.884599 
L 281.927559 263.18464 
L 285.972288 266.325446 
L 290.139381 269.301994 
L 294.422171 272.109522 
L 298.813807 274.743538 
L 303.307262 277.199829 
L 304.54751 277.837359 
L 304.010403 277.489036 
L 299.652233 274.800011 
L 295.190017 272.287418 
L 290.630893 269.955275 
L 285.982155 267.807314 
L 281.25124 265.846971 
L 276.445716 264.077382 
L 271.573272 262.501378 
L 266.641702 261.121481 
L 261.658895 259.939898 
L 256.632823 258.958519 
L 251.571527 258.178914 
L 246.483104 257.602331 
L 241.375693 257.229691 
L 236.257466 257.061592 
L 231.136612 257.098301 
L 226.021321 257.339761 
L 220.919778 257.785585 
L 215.840143 258.435059 
L 210.790544 259.287145 
L 205.779059 260.34048 
L 200.813704 261.593378 
L 195.902423 263.043835 
L 191.053074 264.689531 
L 186.273414 266.527833 
L 181.57109 268.555799 
L 176.953624 270.770186 
L 172.428404 273.167452 
L 168.002668 275.74376 
L 166.941204 276.397528 
L 168.628612 275.480524 
L 173.059174 272.912525 
L 177.3835 270.169404 
L 181.594671 267.255551 
L 185.68595 264.175627 
L 189.650793 260.934559 
L 193.482856 257.537531 
L 197.17601 253.98998 
L 200.724344 250.297579 
L 204.122184 246.466237 
L 207.364093 242.502081 
L 210.444885 238.411455 
L 213.359631 234.200902 
L 216.103669 229.877158 
L 218.672608 225.447141 
L 219.937758 223.104113 
L 219.223597 228.175057 
L 218.71279 233.270504 
L 218.406155 238.382302 
L 218.304184 243.502273 
L 218.407038 248.622226 
L 218.714553 253.733971 
L 219.226237 258.82933 
L 219.941273 263.900151 
L 220.858515 268.938322 
L 221.976496 273.935783 
L 223.293428 278.88454 
L 224.807205 283.776675 
L 225.360171 285.408 
L 226.939626 280.536673 
L 228.323016 275.606081 
L 229.508128 270.624113 
L 230.493066 265.598737 
L 231.276256 260.537995 
L 231.856443 255.449981 
L 232.2327 250.342836 
L 232.404424 245.224729 
L 232.371342 240.10385 
L 232.133505 234.988389 
L 231.691295 229.886532 
L 231.145103 225.495153 
L 229.547912 230.360693 
L 228.146569 235.286212 
L 226.943314 240.26383 
L 225.940074 245.285584 
L 225.138453 250.34344 
L 224.539733 255.429306 
L 224.144872 260.535047 
L 223.954503 265.652494 
L 223.968929 270.77346 
L 224.188128 275.889753 
L 224.611748 280.993188 
L 225.144908 285.408 
L 225.7455 280.322354 
L 226.14224 275.21676 
L 226.334494 270.099383 
L 226.321953 264.978412 
L 226.104638 259.862039 
L 225.682897 254.758448 
L 225.057404 249.675805 
L 224.229159 244.622241 
L 223.199489 239.60584 
L 221.970039 234.634627 
L 220.542778 229.716556 
L 218.919987 224.859493 
L 218.023141 222.422198 
L 213.539074 224.895584 
L 209.157501 227.546306 
L 204.885435 230.370124 
L 200.729708 233.362521 
L 196.696969 236.518708 
L 192.79367 239.833638 
L 189.026055 243.302006 
L 185.400151 246.918264 
L 181.92176 250.676627 
L 178.596445 254.571083 
L 175.429526 258.5954 
L 172.426071 262.743142 
L 169.590884 267.007671 
L 166.9285 271.382167 
L 165.500724 273.902544 
L 170.62171 273.899952 
L 175.738496 273.692577 
L 180.842896 273.280751 
L 185.926745 272.665133 
L 190.981908 271.846708 
L 196.0003 270.826785 
L 200.973892 269.606995 
L 205.894727 268.189291 
L 210.754933 266.575939 
L 215.546734 264.769522 
L 220.262465 262.772929 
L 224.894581 260.589353 
L 229.435672 258.22229 
L 233.878474 255.675524 
L 238.215878 252.953131 
L 242.440947 250.059465 
L 246.54692 246.999157 
L 250.527229 243.777101 
L 254.375506 240.398453 
L 258.085595 236.868617 
L 261.651561 233.193241 
L 265.067698 229.378204 
L 268.328542 225.429609 
L 271.428876 221.353774 
L 274.36374 217.157219 
L 277.128439 212.846658 
L 279.718551 208.428986 
L 282.12993 203.911271 
L 284.358721 199.30074 
L 286.401356 194.604769 
L 288.254569 189.830871 
L 289.915395 184.986683 
L 291.381176 180.079954 
L 292.649568 175.118534 
L 293.718541 170.110361 
L 294.586386 165.063447 
L 295.251714 159.985865 
L 295.713461 154.885738 
L 295.970888 149.771226 
L 296.023582 144.650511 
L 295.871461 139.531784 
L 295.514767 134.423235 
L 294.95407 129.333037 
L 294.190269 124.269332 
L 293.224584 119.240221 
L 292.058561 114.25375 
L 290.694065 109.317896 
L 289.133279 104.440556 
L 287.3787 99.629532 
L 285.433135 94.89252 
L 283.299696 90.2371 
L 280.981796 85.670718 
L 278.483144 81.20068 
L 275.807736 76.834137 
L 272.959854 72.578075 
L 269.944052 68.439302 
L 266.765156 64.424439 
L 266.11955 63.648 
L 262.909088 67.637666 
L 259.860739 71.752526 
L 256.979378 75.985995 
L 254.269615 80.331301 
L 251.735786 84.781494 
L 249.381945 89.329453 
L 247.211855 93.967902 
L 245.22899 98.689422 
L 243.436522 103.486459 
L 241.837318 108.351338 
L 240.433936 113.276276 
L 239.228622 118.253396 
L 238.208794 123.355719 
L 238.145252 122.718715 
L 237.522434 117.635744 
L 236.69685 112.581744 
L 235.66982 107.564802 
L 234.442987 102.592943 
L 233.018314 97.674121 
L 231.398081 92.816205 
L 229.584878 88.026967 
L 227.581608 83.314069 
L 225.391474 78.68505 
L 223.017981 74.147316 
L 220.464925 69.708126 
L 217.736392 65.374581 
L 216.580256 63.648 
L 213.781753 67.936692 
L 211.15699 72.333864 
L 208.710166 76.832481 
L 206.445197 81.425347 
L 204.365705 86.105114 
L 202.475017 90.864294 
L 200.776158 95.695275 
L 199.271845 100.590329 
L 197.964486 105.541623 
L 196.856171 110.541237 
L 195.948674 115.581172 
L 195.243447 120.653367 
L 194.741617 125.749706 
L 194.443988 130.862036 
L 194.351036 135.982179 
L 194.46291 141.101943 
L 194.652472 144.52925 
L 189.717698 145.897647 
L 184.841593 147.462287 
L 180.031957 149.220668 
L 175.296484 151.169976 
L 170.642751 153.307094 
L 166.078203 155.628601 
L 161.610141 158.130785 
L 157.245714 160.809643 
L 152.991903 163.660888 
L 148.855515 166.67996 
L 144.843166 169.862028 
L 140.961275 173.202001 
L 137.216052 176.694538 
L 133.61349 180.33405 
L 130.159351 184.114714 
L 126.859161 188.030483 
L 123.7182 192.075093 
L 120.699157 196.303953 
L 125.796509 195.812523 
L 130.870132 195.117647 
L 135.911909 194.220436 
L 140.913774 193.122325 
L 145.867725 191.825071 
L 150.765837 190.330749 
L 155.600275 188.641751 
L 160.363304 186.760778 
L 165.047303 184.690839 
L 169.644781 182.435245 
L 174.148381 179.997606 
L 178.5509 177.381821 
L 182.845293 174.592074 
L 184.96603 173.121848 
L 180.892979 170.017857 
L 176.69906 167.079227 
L 172.390982 164.31066 
L 167.975636 161.716585 
L 163.460087 159.301151 
L 158.851559 157.068224 
L 154.157423 155.021374 
L 149.38519 153.163877 
L 144.542494 151.498705 
L 139.637083 150.02852 
L 134.676804 148.755675 
L 129.669592 147.682207 
L 124.169357 146.741483 
L 127.433792 150.68711 
L 130.853398 154.499038 
L 134.422705 158.171169 
L 138.136004 161.697629 
L 141.987352 165.072775 
L 145.970591 168.291209 
L 150.079345 171.347781 
L 154.307044 174.237602 
L 158.646923 176.956049 
L 163.09204 179.498772 
L 167.635282 181.861705 
L 172.269383 184.041065 
L 176.986928 186.033368 
L 181.78037 187.835426 
L 186.642041 189.444356 
L 187.221512 189.62185 
L 184.091479 193.674922 
L 181.126029 197.84992 
L 178.329907 202.140165 
L 175.707585 206.538794 
L 173.263259 211.038768 
L 171.00084 215.63289 
L 168.923945 220.313811 
L 167.035899 225.07404 
L 165.339722 229.905963 
L 163.838127 234.801851 
L 162.533516 239.75387 
L 161.427977 244.754098 
L 160.523278 249.794537 
L 159.820866 254.867122 
L 159.321865 259.963739 
L 159.129294 262.866904 
L 163.743303 265.088484 
L 168.442461 267.123777 
L 173.21925 268.969526 
L 178.066029 270.622777 
L 182.975043 272.080887 
L 187.938439 273.341522 
L 192.948276 274.402666 
L 197.996541 275.262621 
L 203.075157 275.920011 
L 208.176 276.373786 
L 213.290908 276.623217 
L 218.411699 276.667908 
L 223.530182 276.507786 
L 228.638167 276.143107 
L 233.727483 275.574454 
L 238.789988 274.802739 
L 243.817583 273.829194 
L 248.802225 272.655378 
L 253.73594 271.283169 
L 258.610835 269.714761 
L 263.41911 267.952664 
L 268.153075 265.999696 
L 272.805155 263.858983 
L 277.367908 261.533948 
L 281.834035 259.028312 
L 286.19639 256.346083 
L 290.447996 253.491551 
L 294.58205 250.469284 
L 298.591939 247.284116 
L 302.471247 243.941143 
L 306.21377 240.445713 
L 309.813518 236.803419 
L 313.264735 233.020086 
L 316.561898 229.101767 
L 319.699732 225.054732 
L 322.673218 220.885454 
L 325.4776 216.600603 
L 328.108389 212.207034 
L 330.561379 207.711776 
L 332.832643 203.12202 
L 334.91855 198.445109 
L 336.815762 193.688525 
L 338.521244 188.859878 
L 340.032267 183.966892 
L 341.346414 179.017395 
L 342.461583 174.019306 
L 343.375989 168.980619 
L 344.08817 163.909396 
L 344.596987 158.813751 
L 344.901626 153.701833 
L 345.001598 148.581823 
L 344.896745 143.46191 
L 344.766006 140.879121 
L 340.438891 138.140403 
L 336.005718 135.576914 
L 331.473578 133.192755 
L 326.849723 130.991741 
L 322.141549 128.977392 
L 317.356589 127.152931 
L 312.502497 125.521277 
L 307.587039 124.085039 
L 302.618079 122.846517 
L 297.603566 121.807691 
L 292.551522 120.970222 
L 287.470029 120.335452 
L 282.367217 119.904394 
L 277.251249 119.67774 
L 272.13031 119.655851 
L 267.012591 119.838762 
L 261.90628 120.226182 
L 256.819547 120.817489 
L 251.760528 121.611739 
L 246.737318 122.607659 
L 242.244562 123.677455 
L 237.678803 121.358329 
L 233.023955 119.22364 
L 228.287467 117.276802 
L 223.476914 115.520931 
L 218.599993 113.958836 
L 213.664505 112.593014 
L 208.678348 111.425652 
L 203.649497 110.458617 
L 198.585997 109.693456 
L 193.495949 109.131393 
L 188.387496 108.773327 
L 183.268811 108.619831 
L 178.148081 108.671151 
L 173.0335 108.927204 
L 167.93325 109.387581 
L 162.855489 110.051546 
L 157.808342 110.918035 
L 152.799882 111.985664 
L 147.838122 113.252724 
L 142.596418 114.824877 
L 143.768036 119.810037 
L 145.138069 124.744356 
L 146.704326 129.619942 
L 148.464303 134.428995 
L 150.415182 139.16382 
L 152.553843 143.816844 
L 154.876865 148.380622 
L 157.380531 152.847854 
L 160.060836 157.211392 
L 162.913492 161.464256 
L 165.933936 165.599643 
L 169.117335 169.610936 
L 172.458596 173.491719 
L 175.952375 177.235783 
L 179.593081 180.837138 
L 183.374892 184.290022 
L 186.467823 186.917002 
L 184.597577 191.684253 
L 182.919467 196.522481 
L 181.436177 201.423946 
L 180.15008 206.380805 
L 179.063233 211.38513 
L 178.177375 216.428914 
L 177.493923 221.504088 
L 177.01397 226.602534 
L 176.738285 231.716094 
L 176.667308 236.836589 
L 176.801154 241.955826 
L 177.139607 247.065615 
L 177.682126 252.157783 
L 178.427844 257.224183 
L 179.375567 262.25671 
L 180.52378 267.247312 
L 181.870645 272.188006 
L 183.414008 277.070887 
L 185.151399 281.888145 
L 186.561143 285.408 
L 188.440418 280.644301 
L 190.127694 275.809262 
L 191.620269 270.910618 
L 192.915758 265.956204 
L 194.012086 260.953948 
L 194.907501 255.911852 
L 195.600569 250.837982 
L 196.090182 245.740455 
L 196.375557 240.627426 
L 196.456236 235.507075 
L 196.332092 230.387594 
L 196.003323 225.277172 
L 195.470454 220.183985 
L 194.734338 215.116181 
L 193.796153 210.081868 
L 192.6574 205.089099 
L 191.3199 200.145861 
L 190.717948 198.146208 
L 187.505561 194.158092 
L 184.136262 190.301626 
L 180.615441 186.582982 
L 176.948729 183.008107 
L 173.141994 179.582721 
L 169.201325 176.312304 
L 165.133026 173.202087 
L 160.943606 170.257047 
L 156.639767 167.481895 
L 152.228394 164.88107 
L 147.716544 162.458734 
L 143.111436 160.218761 
L 138.420436 158.164735 
L 133.651049 156.299942 
L 128.810906 154.627365 
L 123.907749 153.14968 
L 120.928415 152.35496 
L 124.574159 155.951215 
L 128.360798 159.398803 
L 132.282276 162.692209 
L 136.332317 165.826162 
L 140.504444 168.79565 
L 144.791981 171.595923 
L 149.18807 174.222499 
L 153.685678 176.671178 
L 158.277608 178.938043 
L 162.956517 181.019465 
L 167.714917 182.912116 
L 172.545197 184.612968 
L 177.439629 186.1193 
L 182.390383 187.428702 
L 186.870699 188.433563 
L 183.203747 192.008191 
L 179.682674 195.726598 
L 176.313115 199.582836 
L 173.10046 203.570736 
L 170.049847 207.683918 
L 167.166159 211.915802 
L 164.454007 216.259618 
L 161.917731 220.708416 
L 159.561388 225.25508 
L 157.388748 229.892335 
L 155.403287 234.612763 
L 153.60818 239.408813 
L 152.006301 244.272812 
L 150.801718 248.443118 
L 155.776707 249.657193 
L 160.796268 250.67135 
L 165.852369 251.483967 
L 170.936921 252.093743 
L 176.041791 252.499705 
L 181.158812 252.701201 
L 186.279797 252.697909 
L 191.396555 252.489836 
L 196.500899 252.077313 
L 201.584663 251.461001 
L 206.639715 250.641885 
L 211.657968 249.621277 
L 216.631393 248.400808 
L 221.552034 246.982432 
L 226.41202 245.368417 
L 231.203574 243.561345 
L 235.919032 241.564108 
L 240.550851 239.379901 
L 245.091619 237.012217 
L 249.534073 234.464845 
L 253.871105 231.741859 
L 258.095778 228.847617 
L 262.201333 225.786748 
L 266.181202 222.564149 
L 270.029018 219.184975 
L 273.738625 215.654633 
L 277.304089 211.97877 
L 280.719706 208.163266 
L 283.980011 204.214227 
L 287.079788 200.137968 
L 290.014079 195.941013 
L 292.77819 191.630074 
L 295.367698 187.212048 
L 297.778461 182.694004 
L 300.006622 178.083169 
L 302.048616 173.386919 
L 303.901177 168.612768 
L 305.561341 163.768353 
L 307.026453 158.861424 
L 308.294167 153.899832 
L 309.362457 148.891513 
L 310.229613 143.844479 
L 310.894247 138.766807 
L 311.355298 133.666617 
L 311.612026 128.55207 
L 311.664022 123.431347 
L 311.511201 118.312642 
L 311.15381 113.204142 
L 310.592418 108.11402 
L 309.827925 103.050419 
L 308.861554 98.02144 
L 307.69485 93.035128 
L 306.32968 88.099461 
L 304.768228 83.222334 
L 303.012992 78.411549 
L 301.06678 73.674803 
L 298.932706 69.019674 
L 296.614182 64.453609 
L 296.180936 63.648 
L 293.829851 68.197384 
L 291.662573 72.837148 
L 289.682569 77.559869 
L 287.893008 82.357991 
L 286.296752 87.223838 
L 284.896355 92.149626 
L 283.694057 97.127475 
L 282.691782 102.149421 
L 281.891133 107.207431 
L 281.29339 112.293413 
L 280.899511 117.399229 
L 280.710125 122.516712 
L 280.725535 127.637675 
L 280.945717 132.753926 
L 281.370318 137.857279 
L 281.998659 142.939571 
L 282.829735 147.992671 
L 283.862216 153.008494 
L 285.094451 157.979017 
L 286.524468 162.896288 
L 288.14998 167.75244 
L 289.968385 172.539705 
L 291.976776 177.250423 
L 294.171939 181.877059 
L 296.550362 186.412212 
L 299.10824 190.848625 
L 301.841481 195.179201 
L 304.745713 199.397014 
L 307.816289 203.495314 
L 311.048298 207.467545 
L 314.436568 211.307353 
L 317.975679 215.008596 
L 321.65997 218.56535 
L 325.483545 221.971928 
L 329.440289 225.222878 
L 333.253858 228.116505 
L 332.667852 227.858806 
L 327.934922 225.903333 
L 323.127579 224.138692 
L 318.253515 222.567704 
L 313.320527 221.192884 
L 308.336507 220.01643 
L 303.309428 219.040225 
L 298.247332 218.26583 
L 293.158318 217.694484 
L 288.050526 217.327102 
L 282.932129 217.164271 
L 277.811315 217.206252 
L 272.696276 217.452976 
L 267.595194 217.904051 
L 262.246848 218.599263 
L 259.220744 222.73051 
L 256.362267 226.979464 
L 253.675989 231.339327 
L 251.166208 235.803126 
L 248.836939 240.363719 
L 246.691908 245.01381 
L 244.734547 249.745959 
L 242.967987 254.552597 
L 241.395054 259.426034 
L 240.018265 264.358473 
L 238.839822 269.342023 
L 237.861611 274.368712 
L 237.085196 279.430499 
L 236.511819 284.519285 
L 236.432768 285.408 
L 235.894867 280.315342 
L 235.153745 275.248268 
L 234.210587 270.214884 
L 233.066901 265.223242 
L 231.724518 260.281329 
L 230.185585 255.397049 
L 228.452563 250.578218 
L 226.528227 245.832543 
L 224.415652 241.167617 
L 222.118221 236.590903 
L 219.639607 232.109723 
L 216.983777 227.731245 
L 214.154979 223.462475 
L 211.044403 219.159902 
L 205.94022 218.745396 
L 200.823544 218.535335 
L 195.70256 218.530054 
L 190.585461 218.729562 
L 185.480434 219.13354 
L 180.395645 219.741342 
L 175.339229 220.551994 
L 170.319275 221.564201 
L 165.343814 222.776343 
L 160.420805 224.186481 
L 155.558125 225.792358 
L 150.763552 227.591407 
L 146.044757 229.580748 
L 141.221722 231.850079 
L 141.753984 231.494398 
L 145.946709 228.554065 
L 150.018498 225.448419 
L 153.962837 222.18243 
L 157.773417 218.761321 
L 161.444141 215.190566 
L 164.969136 211.475878 
L 168.342764 207.623199 
L 171.559627 203.638692 
L 174.61458 199.528732 
L 177.502734 195.299895 
L 180.219469 190.958945 
L 182.76044 186.512826 
L 185.121581 181.968652 
L 185.407949 181.38578 
L 181.944545 177.6136 
L 178.333064 173.982938 
L 174.579285 170.4996 
L 170.689212 167.16916 
L 166.669068 163.996945 
L 162.525285 160.988031 
L 158.264493 158.14723 
L 153.893506 155.479088 
L 149.419319 152.987873 
L 144.849089 150.67757 
L 140.190127 148.551876 
L 135.449887 146.614191 
L 130.635951 144.867615 
L 126.090218 143.414456 
L 129.884218 146.853942 
L 133.812726 150.138957 
L 137.869457 153.264246 
L 142.047922 156.22481 
L 146.341435 159.015911 
L 150.743128 161.633085 
L 155.245959 164.072145 
L 159.842725 166.329188 
L 164.526072 168.400605 
L 169.288507 170.28308 
L 174.122411 171.973604 
L 179.020052 173.46947 
L 183.973594 174.768286 
L 184.94889 174.999232 
L 180.009359 176.350358 
L 175.127811 177.897931 
L 170.312053 179.639477 
L 165.569791 181.572208 
L 160.90861 183.693033 
L 156.335969 185.99856 
L 151.859181 188.485099 
L 147.48541 191.148672 
L 143.221652 193.98502 
L 139.074727 196.989603 
L 135.051272 200.157616 
L 131.157721 203.48399 
L 127.049409 207.302914 
L 131.947118 205.807269 
L 136.781099 204.116964 
L 141.543619 202.234704 
L 146.227059 200.163499 
L 150.823927 197.906664 
L 155.326869 195.467808 
L 159.72868 192.850833 
L 164.02232 190.059926 
L 168.200918 187.099551 
L 172.257791 183.974445 
L 176.186448 180.689608 
L 179.980603 177.250293 
L 183.634188 173.662004 
L 184.997553 172.24679 
L 181.738054 168.297086 
L 178.323215 164.480886 
L 174.758501 160.804296 
L 171.049614 157.273197 
L 167.202487 153.893239 
L 163.223275 150.669828 
L 159.118345 147.608122 
L 154.894262 144.713019 
L 150.557784 141.989149 
L 146.11585 139.440871 
L 141.575565 137.072261 
L 136.944192 134.887109 
L 132.178779 132.868758 
L 136.265488 135.954745 
L 140.472334 138.874837 
L 144.792589 141.624366 
L 149.219339 144.19893 
L 153.745503 146.594413 
L 158.363841 148.806981 
L 163.066964 150.833095 
L 167.847348 152.669514 
L 172.697345 154.313299 
L 177.609196 155.761822 
L 182.575044 157.012764 
L 187.660539 158.07801 
L 183.044505 155.860639 
L 178.343493 153.829633 
L 173.565022 151.988243 
L 168.716738 150.339414 
L 163.806396 148.885783 
L 158.841851 147.629676 
L 153.831048 146.573102 
L 148.782 145.717753 
L 143.702787 145.064996 
L 138.601533 144.615875 
L 133.486399 144.371109 
L 128.365569 144.33109 
L 125.522766 144.397311 
L 128.019154 148.868614 
L 130.69235 153.236511 
L 133.538077 157.494015 
L 136.551782 161.634315 
L 139.728645 165.650787 
L 143.063582 169.537005 
L 146.551259 173.286753 
L 150.186097 176.894032 
L 153.962279 180.35307 
L 157.873766 183.658335 
L 161.914299 186.804538 
L 166.077415 189.786646 
L 170.356453 192.599889 
L 174.744568 195.239765 
L 179.23474 197.702052 
L 183.819786 199.98281 
L 188.49237 202.078391 
L 193.245017 203.985443 
L 194.634436 204.501779 
L 194.88861 209.616454 
L 195.347113 214.716873 
L 196.009212 219.794877 
L 196.873847 224.842343 
L 197.939635 229.851195 
L 199.204872 234.81342 
L 200.667532 239.72108 
L 202.325276 244.566323 
L 204.175453 249.341399 
L 206.215102 254.038668 
L 208.440959 258.650616 
L 210.849466 263.169863 
L 213.436767 267.589182 
L 216.198724 271.9015 
L 219.130919 276.099921 
L 222.22866 280.177727 
L 225.486992 284.128394 
L 226.600898 285.408 
L 229.911292 281.500853 
L 233.062793 277.464452 
L 236.050361 273.305252 
L 238.869216 269.029909 
L 241.514847 264.645261 
L 243.983023 260.158323 
L 246.269796 255.576274 
L 248.371506 250.906444 
L 250.284791 246.156303 
L 252.006591 241.33345 
L 253.534151 236.445602 
L 254.865027 231.500577 
L 255.997091 226.506287 
L 256.951424 221.330955 
L 261.309404 224.020287 
L 265.771444 226.533195 
L 270.330403 228.865659 
L 274.97899 231.013947 
L 279.709767 232.974623 
L 284.515166 234.74455 
L 289.3875 236.320897 
L 294.318973 237.701141 
L 299.301696 238.883075 
L 304.327699 239.864808 
L 309.38894 240.644769 
L 314.477323 241.221711 
L 319.584707 241.59471 
L 324.702922 241.76317 
L 325.370982 241.770046 
L 322.688711 237.407716 
L 319.834139 233.156138 
L 316.811832 229.022112 
L 313.626626 225.012254 
L 310.283616 221.132977 
L 306.788151 217.390489 
L 303.145822 213.790775 
L 299.362456 210.339594 
L 295.444106 207.042469 
L 291.39704 203.904673 
L 287.227734 200.931227 
L 282.942856 198.126887 
L 281.931965 197.500311 
L 286.724525 199.304715 
L 291.585408 200.916025 
L 296.506838 202.331662 
L 301.480942 203.549362 
L 306.499762 204.567177 
L 311.555269 205.383478 
L 316.639376 205.99696 
L 321.743948 206.406642 
L 326.860821 206.611867 
L 331.981807 206.612308 
L 337.098715 206.407963 
L 342.203358 205.99916 
L 346.298878 205.521868 
L 344.250661 200.828329 
L 342.016391 196.220451 
L 339.599642 191.705605 
L 337.004281 187.291016 
L 334.234459 182.983744 
L 331.294607 178.790681 
L 328.18943 174.718535 
L 324.923894 170.77382 
L 321.503223 166.962847 
L 317.932891 163.291713 
L 314.218608 159.76629 
L 310.366317 156.39222 
L 306.38218 153.174898 
L 302.272572 150.119473 
L 298.044066 147.230833 
L 293.703428 144.513598 
L 289.257602 141.972116 
L 284.7137 139.610453 
L 280.078991 137.432386 
L 275.36089 135.4414 
L 270.566944 133.640681 
L 265.704824 132.033109 
L 263.935649 131.501111 
L 260.523616 127.682403 
L 256.961604 124.003194 
L 253.255313 120.469371 
L 249.410671 117.086587 
L 245.433829 113.860253 
L 241.331149 110.795531 
L 237.109195 107.897324 
L 232.77472 105.170269 
L 228.33466 102.618728 
L 223.796116 100.246782 
L 219.16635 98.058227 
L 214.452769 96.056565 
L 209.662913 94.244996 
L 204.804445 92.626419 
L 199.885138 91.203424 
L 194.91286 89.978287 
L 189.895568 88.952969 
L 184.841287 88.129108 
L 179.758103 87.508024 
L 174.654149 87.09071 
L 169.537589 86.877833 
L 164.416609 86.869734 
L 159.299401 87.066427 
L 158.597967 87.109382 
L 160.96133 91.652401 
L 163.504475 96.097276 
L 166.223333 100.436897 
L 169.113555 104.664321 
L 172.170518 108.772786 
L 175.389329 112.755719 
L 178.764841 116.606748 
L 182.291653 120.319712 
L 185.964122 123.888671 
L 189.776375 127.307915 
L 193.722311 130.571975 
L 197.795619 133.675629 
L 201.841545 136.514272 
L 199.339748 132.045993 
L 196.661268 127.681334 
L 193.810391 123.427277 
L 190.791677 119.290628 
L 187.609957 115.278003 
L 184.270319 111.395823 
L 180.778107 107.650299 
L 177.138907 104.047421 
L 173.358541 100.592955 
L 169.443057 97.292426 
L 165.39872 94.151115 
L 161.231998 91.174047 
L 157.625783 88.793254 
L 158.764036 89.379442 
L 163.373949 91.60951 
L 168.069354 93.653447 
L 172.842738 95.507982 
L 177.686466 97.17015 
L 182.592789 98.637291 
L 187.553856 99.907057 
L 192.561733 100.977419 
L 197.608407 101.846662 
L 202.685805 102.513397 
L 207.785803 102.976557 
L 212.900244 103.2354 
L 218.020944 103.289514 
L 223.139713 103.138811 
L 228.24836 102.783532 
L 233.338714 102.224247 
L 238.40263 101.461848 
L 243.432008 100.497557 
L 248.418802 99.332916 
L 253.355034 97.969788 
L 258.232807 96.410353 
L 263.044317 94.657107 
L 267.781867 92.712854 
L 272.437879 90.580705 
L 277.004902 88.264071 
L 281.475633 85.766658 
L 285.842917 83.09246 
L 290.099768 80.245757 
L 294.239377 77.231102 
L 298.25512 74.053319 
L 302.140574 70.717491 
L 303.530298 69.456779 
L 298.674309 71.082777 
L 293.887226 72.901662 
L 289.176709 74.910525 
L 284.550293 77.106151 
L 280.015379 79.485028 
L 275.579222 82.043351 
L 271.248919 84.777026 
L 267.031398 87.68168 
L 262.933406 90.752667 
L 258.961498 93.985074 
L 255.122029 97.373728 
L 251.421141 100.91321 
L 247.864756 104.597857 
L 244.458561 108.421774 
L 241.208007 112.378844 
L 238.118294 116.462736 
L 235.194364 120.666917 
L 233.43122 123.387472 
L 230.175547 119.434612 
L 226.764407 115.615106 
L 223.203256 111.935065 
L 219.49779 108.400376 
L 215.653939 105.016693 
L 211.677852 101.789429 
L 207.575888 98.723749 
L 203.354612 95.824555 
L 199.020775 93.096486 
L 194.581311 90.543907 
L 190.043322 88.1709 
L 185.414068 85.981263 
L 180.700955 83.978499 
L 175.911523 82.16581 
L 171.053433 80.546098 
L 166.134458 79.121953 
L 163.587421 78.467394 
L 167.206606 82.090377 
L 170.967776 85.565733 
L 174.864915 88.887903 
L 178.891787 92.051571 
L 183.041952 95.051677 
L 187.30877 97.88342 
L 191.685414 100.542271 
L 196.164882 103.023977 
L 200.74001 105.324566 
L 205.403476 107.440359 
L 210.147822 109.36797 
L 214.965457 111.104317 
L 219.848673 112.64662 
L 224.789659 113.992413 
L 229.78051 115.139543 
L 234.813242 116.086175 
L 239.879803 116.830794 
L 244.972089 117.372209 
L 250.081952 117.709553 
L 255.201218 117.842288 
L 260.321697 117.7702 
L 265.435197 117.493406 
L 270.533539 117.012348 
L 275.608565 116.327795 
L 280.652156 115.440842 
L 285.656245 114.35291 
L 290.612826 113.065737 
L 295.513968 111.581384 
L 300.351832 109.902224 
L 305.118677 108.030945 
L 309.806878 105.970539 
L 314.408935 103.724304 
L 318.917486 101.295832 
L 321.163021 99.99755 
L 316.208066 102.936537 
L 311.918559 105.73379 
L 307.744343 108.70034 
L 303.692096 111.831442 
L 299.768301 115.122086 
L 295.979236 118.567008 
L 292.330961 122.160696 
L 288.829314 125.897402 
L 285.479897 129.771147 
L 282.288066 133.775735 
L 279.25893 137.904758 
L 276.150803 142.535258 
L 280.928818 140.692686 
L 285.629328 138.660517 
L 290.244813 136.442004 
L 294.767889 134.040695 
L 299.191321 131.460432 
L 303.508031 128.705343 
L 307.711114 125.779835 
L 311.793846 122.688589 
L 315.749695 119.43655 
L 319.572333 116.028921 
L 323.255645 112.471152 
L 326.44537 109.146848 
L 321.47502 110.379781 
L 316.55795 111.810489 
L 311.702026 113.436683 
L 306.915017 115.255761 
L 302.204581 117.264813 
L 297.578253 119.460626 
L 293.043435 121.839686 
L 288.607381 124.398187 
L 284.277189 127.132037 
L 280.059785 130.036861 
L 275.961916 133.108013 
L 271.990139 136.34058 
L 271.109687 137.093801 
L 271.109687 137.093801 
" style="fill:none;stroke:#1f77b4;stroke-linecap:square;stroke-width:1.5;"/>
   </g>
   <g id="patch_4">
    <path d="M 82.520165 307.584 
L 82.520165 41.472 
" style="fill:none;stroke:#000000;stroke-linecap:square;stroke-linejoin:miter;stroke-width:0.8;"/>
   </g>
   <g id="patch_5">
    <path d="M 389.799835 307.584 
L 389.799835 41.472 
" style="fill:none;stroke:#000000;stroke-linecap:square;stroke-linejoin:miter;stroke-width:0.8;"/>
   </g>
   <g id="patch_6">
    <path d="M 82.520165 307.584 
L 389.799835 307.584 
" style="fill:none;stroke:#000000;stroke-linecap:square;stroke-linejoin:miter;stroke-width:0.8;"/>
   </g>
   <g id="patch_7">
    <path d="M 82.520165 41.472 
L 389.799835 41.472 
" style="fill:none;stroke:#000000;stroke-linecap:square;stroke-linejoin:miter;stroke-width:0.8;"/>
   </g>
  </g>
 </g>
 <defs>
  <clipPath id="p59f84f2e3b">
   <rect height="266.112" width="307.27967" x="82.520165" y="41.472"/>
  </clipPath>
 </defs>
</svg>
