<?xml version="1.0" encoding="utf-8" standalone="no"?>
<!DOCTYPE svg PUBLIC "-//W3C//DTD SVG 1.1//EN"
  "http://www.w3.org/Graphics/SVG/1.1/DTD/svg11.dtd">
<!-- Created with matplotlib (http://matplotlib.org/) -->
<svg height="345.6pt" version="1.1" viewBox="0 0 460.8 345.6" width="460.8pt" xmlns="http://www.w3.org/2000/svg" xmlns:xlink="http://www.w3.org/1999/xlink">
 <defs>
  <style type="text/css">
*{stroke-linecap:butt;stroke-linejoin:round;}
  </style>
 </defs>
 <g id="figure_1">
  <g id="patch_1">
   <path d="M 0 345.6 
L 460.8 345.6 
L 460.8 0 
L 0 0 
z
" style="fill:#ffffff;"/>
  </g>
  <g id="axes_1">
   <g id="patch_2">
    <path d="M 82.520165 307.584 
L 389.799835 307.584 
L 389.799835 41.472 
L 82.520165 41.472 
z
" style="fill:#ffffff;"/>
   </g>
   <g id="PathCollection_1">
    <defs>
     <path d="M 0 2.738613 
C 0.726289 2.738613 1.422928 2.450055 1.936492 1.936492 
C 2.450055 1.422928 2.738613 0.726289 2.738613 0 
C 2.738613 -0.726289 2.450055 -1.422928 1.936492 -1.936492 
C 1.422928 -2.450055 0.726289 -2.738613 0 -2.738613 
C -0.726289 -2.738613 -1.422928 -2.450055 -1.936492 -1.936492 
C -2.450055 -1.422928 -2.738613 -0.726289 -2.738613 0 
C -2.738613 0.726289 -2.450055 1.422928 -1.936492 1.936492 
C -1.422928 2.450055 -0.726289 2.738613 0 2.738613 
z
" id="m6f9e58c87c" style="stroke:#000000;"/>
    </defs>
    <g clip-path="url(#p4184511ba2)">
     <use style="stroke:#000000;" x="347.242278" xlink:href="#m6f9e58c87c" y="203.88785"/>
    </g>
   </g>
   <g id="Quiver_1">
    <path clip-path="url(#p4184511ba2)" d="M 346.978423 204.609314 
L 330.384749 198.540646 
L 330.578503 200.24743 
L 324.155427 195.444486 
L 332.161634 195.918645 
L 330.912459 197.097718 
L 347.506133 203.166386 
L 346.978423 204.609314 
"/>
   </g>
   <g id="patch_3">
    <path clip-path="url(#p4184511ba2)" d="M 236.16 225.741278 
C 249.74192 225.741278 262.769389 220.345124 272.373256 210.741256 
C 281.977124 201.137389 287.373278 188.10992 287.373278 174.528 
C 287.373278 160.94608 281.977124 147.918611 272.373256 138.314744 
C 262.769389 128.710876 249.74192 123.314722 236.16 123.314722 
C 222.57808 123.314722 209.550611 128.710876 199.946744 138.314744 
C 190.342876 147.918611 184.946722 160.94608 184.946722 174.528 
C 184.946722 188.10992 190.342876 201.137389 199.946744 210.741256 
C 209.550611 220.345124 222.57808 225.741278 236.16 225.741278 
z
" style="fill:#009900;fill-opacity:0.5;stroke:#009900;stroke-linejoin:miter;stroke-width:2;"/>
   </g>
   <g id="matplotlib.axis_1">
    <g id="xtick_1">
     <g id="line2d_1">
      <defs>
       <path d="M 0 0 
L 0 3.5 
" id="m346db9bec9" style="stroke:#000000;stroke-width:0.8;"/>
      </defs>
      <g>
       <use style="stroke:#000000;stroke-width:0.8;" x="108.126804" xlink:href="#m346db9bec9" y="307.584"/>
      </g>
     </g>
     <g id="text_1">
      <!-- −2 -->
      <defs>
       <path d="M 10.59375 35.5 
L 73.1875 35.5 
L 73.1875 27.203125 
L 10.59375 27.203125 
z
" id="DejaVuSans-2212"/>
       <path d="M 19.1875 8.296875 
L 53.609375 8.296875 
L 53.609375 0 
L 7.328125 0 
L 7.328125 8.296875 
Q 12.9375 14.109375 22.625 23.890625 
Q 32.328125 33.6875 34.8125 36.53125 
Q 39.546875 41.84375 41.421875 45.53125 
Q 43.3125 49.21875 43.3125 52.78125 
Q 43.3125 58.59375 39.234375 62.25 
Q 35.15625 65.921875 28.609375 65.921875 
Q 23.96875 65.921875 18.8125 64.3125 
Q 13.671875 62.703125 7.8125 59.421875 
L 7.8125 69.390625 
Q 13.765625 71.78125 18.9375 73 
Q 24.125 74.21875 28.421875 74.21875 
Q 39.75 74.21875 46.484375 68.546875 
Q 53.21875 62.890625 53.21875 53.421875 
Q 53.21875 48.921875 51.53125 44.890625 
Q 49.859375 40.875 45.40625 35.40625 
Q 44.1875 33.984375 37.640625 27.21875 
Q 31.109375 20.453125 19.1875 8.296875 
z
" id="DejaVuSans-32"/>
      </defs>
      <g transform="translate(100.755711 322.182437)scale(0.1 -0.1)">
       <use xlink:href="#DejaVuSans-2212"/>
       <use x="83.789062" xlink:href="#DejaVuSans-32"/>
      </g>
     </g>
    </g>
    <g id="xtick_2">
     <g id="line2d_2">
      <g>
       <use style="stroke:#000000;stroke-width:0.8;" x="172.143402" xlink:href="#m346db9bec9" y="307.584"/>
      </g>
     </g>
     <g id="text_2">
      <!-- −1 -->
      <defs>
       <path d="M 12.40625 8.296875 
L 28.515625 8.296875 
L 28.515625 63.921875 
L 10.984375 60.40625 
L 10.984375 69.390625 
L 28.421875 72.90625 
L 38.28125 72.90625 
L 38.28125 8.296875 
L 54.390625 8.296875 
L 54.390625 0 
L 12.40625 0 
z
" id="DejaVuSans-31"/>
      </defs>
      <g transform="translate(164.772308 322.182437)scale(0.1 -0.1)">
       <use xlink:href="#DejaVuSans-2212"/>
       <use x="83.789062" xlink:href="#DejaVuSans-31"/>
      </g>
     </g>
    </g>
    <g id="xtick_3">
     <g id="line2d_3">
      <g>
       <use style="stroke:#000000;stroke-width:0.8;" x="236.16" xlink:href="#m346db9bec9" y="307.584"/>
      </g>
     </g>
     <g id="text_3">
      <!-- 0 -->
      <defs>
       <path d="M 31.78125 66.40625 
Q 24.171875 66.40625 20.328125 58.90625 
Q 16.5 51.421875 16.5 36.375 
Q 16.5 21.390625 20.328125 13.890625 
Q 24.171875 6.390625 31.78125 6.390625 
Q 39.453125 6.390625 43.28125 13.890625 
Q 47.125 21.390625 47.125 36.375 
Q 47.125 51.421875 43.28125 58.90625 
Q 39.453125 66.40625 31.78125 66.40625 
z
M 31.78125 74.21875 
Q 44.046875 74.21875 50.515625 64.515625 
Q 56.984375 54.828125 56.984375 36.375 
Q 56.984375 17.96875 50.515625 8.265625 
Q 44.046875 -1.421875 31.78125 -1.421875 
Q 19.53125 -1.421875 13.0625 8.265625 
Q 6.59375 17.96875 6.59375 36.375 
Q 6.59375 54.828125 13.0625 64.515625 
Q 19.53125 74.21875 31.78125 74.21875 
z
" id="DejaVuSans-30"/>
      </defs>
      <g transform="translate(232.97875 322.182437)scale(0.1 -0.1)">
       <use xlink:href="#DejaVuSans-30"/>
      </g>
     </g>
    </g>
    <g id="xtick_4">
     <g id="line2d_4">
      <g>
       <use style="stroke:#000000;stroke-width:0.8;" x="300.176598" xlink:href="#m346db9bec9" y="307.584"/>
      </g>
     </g>
     <g id="text_4">
      <!-- 1 -->
      <g transform="translate(296.995348 322.182437)scale(0.1 -0.1)">
       <use xlink:href="#DejaVuSans-31"/>
      </g>
     </g>
    </g>
    <g id="xtick_5">
     <g id="line2d_5">
      <g>
       <use style="stroke:#000000;stroke-width:0.8;" x="364.193196" xlink:href="#m346db9bec9" y="307.584"/>
      </g>
     </g>
     <g id="text_5">
      <!-- 2 -->
      <g transform="translate(361.011946 322.182437)scale(0.1 -0.1)">
       <use xlink:href="#DejaVuSans-32"/>
      </g>
     </g>
    </g>
   </g>
   <g id="matplotlib.axis_2">
    <g id="ytick_1">
     <g id="line2d_6">
      <defs>
       <path d="M 0 0 
L -3.5 0 
" id="m4ebc57d11c" style="stroke:#000000;stroke-width:0.8;"/>
      </defs>
      <g>
       <use style="stroke:#000000;stroke-width:0.8;" x="82.520165" xlink:href="#m4ebc57d11c" y="302.561196"/>
      </g>
     </g>
     <g id="text_6">
      <!-- −2.0 -->
      <defs>
       <path d="M 10.6875 12.40625 
L 21 12.40625 
L 21 0 
L 10.6875 0 
z
" id="DejaVuSans-2e"/>
      </defs>
      <g transform="translate(51.237353 306.360414)scale(0.1 -0.1)">
       <use xlink:href="#DejaVuSans-2212"/>
       <use x="83.789062" xlink:href="#DejaVuSans-32"/>
       <use x="147.412109" xlink:href="#DejaVuSans-2e"/>
       <use x="179.199219" xlink:href="#DejaVuSans-30"/>
      </g>
     </g>
    </g>
    <g id="ytick_2">
     <g id="line2d_7">
      <g>
       <use style="stroke:#000000;stroke-width:0.8;" x="82.520165" xlink:href="#m4ebc57d11c" y="270.552897"/>
      </g>
     </g>
     <g id="text_7">
      <!-- −1.5 -->
      <defs>
       <path d="M 10.796875 72.90625 
L 49.515625 72.90625 
L 49.515625 64.59375 
L 19.828125 64.59375 
L 19.828125 46.734375 
Q 21.96875 47.46875 24.109375 47.828125 
Q 26.265625 48.1875 28.421875 48.1875 
Q 40.625 48.1875 47.75 41.5 
Q 54.890625 34.8125 54.890625 23.390625 
Q 54.890625 11.625 47.5625 5.09375 
Q 40.234375 -1.421875 26.90625 -1.421875 
Q 22.3125 -1.421875 17.546875 -0.640625 
Q 12.796875 0.140625 7.71875 1.703125 
L 7.71875 11.625 
Q 12.109375 9.234375 16.796875 8.0625 
Q 21.484375 6.890625 26.703125 6.890625 
Q 35.15625 6.890625 40.078125 11.328125 
Q 45.015625 15.765625 45.015625 23.390625 
Q 45.015625 31 40.078125 35.4375 
Q 35.15625 39.890625 26.703125 39.890625 
Q 22.75 39.890625 18.8125 39.015625 
Q 14.890625 38.140625 10.796875 36.28125 
z
" id="DejaVuSans-35"/>
      </defs>
      <g transform="translate(51.237353 274.352116)scale(0.1 -0.1)">
       <use xlink:href="#DejaVuSans-2212"/>
       <use x="83.789062" xlink:href="#DejaVuSans-31"/>
       <use x="147.412109" xlink:href="#DejaVuSans-2e"/>
       <use x="179.199219" xlink:href="#DejaVuSans-35"/>
      </g>
     </g>
    </g>
    <g id="ytick_3">
     <g id="line2d_8">
      <g>
       <use style="stroke:#000000;stroke-width:0.8;" x="82.520165" xlink:href="#m4ebc57d11c" y="238.544598"/>
      </g>
     </g>
     <g id="text_8">
      <!-- −1.0 -->
      <g transform="translate(51.237353 242.343817)scale(0.1 -0.1)">
       <use xlink:href="#DejaVuSans-2212"/>
       <use x="83.789062" xlink:href="#DejaVuSans-31"/>
       <use x="147.412109" xlink:href="#DejaVuSans-2e"/>
       <use x="179.199219" xlink:href="#DejaVuSans-30"/>
      </g>
     </g>
    </g>
    <g id="ytick_4">
     <g id="line2d_9">
      <g>
       <use style="stroke:#000000;stroke-width:0.8;" x="82.520165" xlink:href="#m4ebc57d11c" y="206.536299"/>
      </g>
     </g>
     <g id="text_9">
      <!-- −0.5 -->
      <g transform="translate(51.237353 210.335518)scale(0.1 -0.1)">
       <use xlink:href="#DejaVuSans-2212"/>
       <use x="83.789062" xlink:href="#DejaVuSans-30"/>
       <use x="147.412109" xlink:href="#DejaVuSans-2e"/>
       <use x="179.199219" xlink:href="#DejaVuSans-35"/>
      </g>
     </g>
    </g>
    <g id="ytick_5">
     <g id="line2d_10">
      <g>
       <use style="stroke:#000000;stroke-width:0.8;" x="82.520165" xlink:href="#m4ebc57d11c" y="174.528"/>
      </g>
     </g>
     <g id="text_10">
      <!-- 0.0 -->
      <g transform="translate(59.61704 178.327219)scale(0.1 -0.1)">
       <use xlink:href="#DejaVuSans-30"/>
       <use x="63.623047" xlink:href="#DejaVuSans-2e"/>
       <use x="95.410156" xlink:href="#DejaVuSans-30"/>
      </g>
     </g>
    </g>
    <g id="ytick_6">
     <g id="line2d_11">
      <g>
       <use style="stroke:#000000;stroke-width:0.8;" x="82.520165" xlink:href="#m4ebc57d11c" y="142.519701"/>
      </g>
     </g>
     <g id="text_11">
      <!-- 0.5 -->
      <g transform="translate(59.61704 146.31892)scale(0.1 -0.1)">
       <use xlink:href="#DejaVuSans-30"/>
       <use x="63.623047" xlink:href="#DejaVuSans-2e"/>
       <use x="95.410156" xlink:href="#DejaVuSans-35"/>
      </g>
     </g>
    </g>
    <g id="ytick_7">
     <g id="line2d_12">
      <g>
       <use style="stroke:#000000;stroke-width:0.8;" x="82.520165" xlink:href="#m4ebc57d11c" y="110.511402"/>
      </g>
     </g>
     <g id="text_12">
      <!-- 1.0 -->
      <g transform="translate(59.61704 114.310621)scale(0.1 -0.1)">
       <use xlink:href="#DejaVuSans-31"/>
       <use x="63.623047" xlink:href="#DejaVuSans-2e"/>
       <use x="95.410156" xlink:href="#DejaVuSans-30"/>
      </g>
     </g>
    </g>
    <g id="ytick_8">
     <g id="line2d_13">
      <g>
       <use style="stroke:#000000;stroke-width:0.8;" x="82.520165" xlink:href="#m4ebc57d11c" y="78.503103"/>
      </g>
     </g>
     <g id="text_13">
      <!-- 1.5 -->
      <g transform="translate(59.61704 82.302322)scale(0.1 -0.1)">
       <use xlink:href="#DejaVuSans-31"/>
       <use x="63.623047" xlink:href="#DejaVuSans-2e"/>
       <use x="95.410156" xlink:href="#DejaVuSans-35"/>
      </g>
     </g>
    </g>
    <g id="ytick_9">
     <g id="line2d_14">
      <g>
       <use style="stroke:#000000;stroke-width:0.8;" x="82.520165" xlink:href="#m4ebc57d11c" y="46.494804"/>
      </g>
     </g>
     <g id="text_14">
      <!-- 2.0 -->
      <g transform="translate(59.61704 50.294023)scale(0.1 -0.1)">
       <use xlink:href="#DejaVuSans-32"/>
       <use x="63.623047" xlink:href="#DejaVuSans-2e"/>
       <use x="95.410156" xlink:href="#DejaVuSans-30"/>
      </g>
     </g>
    </g>
   </g>
   <g id="line2d_15">
    <path clip-path="url(#p4184511ba2)" d="M 300.176598 63.648 
L 172.143402 63.648 
" style="fill:none;stroke:#009900;stroke-linecap:square;stroke-width:2;"/>
   </g>
   <g id="line2d_16">
    <path clip-path="url(#p4184511ba2)" d="M 172.143402 63.648 
L 108.126804 174.528 
" style="fill:none;stroke:#009900;stroke-linecap:square;stroke-width:2;"/>
   </g>
   <g id="line2d_17">
    <path clip-path="url(#p4184511ba2)" d="M 108.126804 174.528 
L 172.143402 285.408 
" style="fill:none;stroke:#009900;stroke-linecap:square;stroke-width:2;"/>
   </g>
   <g id="line2d_18">
    <path clip-path="url(#p4184511ba2)" d="M 172.143402 285.408 
L 300.176598 285.408 
" style="fill:none;stroke:#009900;stroke-linecap:square;stroke-width:2;"/>
   </g>
   <g id="line2d_19">
    <path clip-path="url(#p4184511ba2)" d="M 300.176598 285.408 
L 364.193196 174.528 
" style="fill:none;stroke:#009900;stroke-linecap:square;stroke-width:2;"/>
   </g>
   <g id="line2d_20">
    <path clip-path="url(#p4184511ba2)" d="M 364.193196 174.528 
L 300.176598 63.648 
" style="fill:none;stroke:#009900;stroke-linecap:square;stroke-width:2;"/>
   </g>
   <g id="line2d_21">
    <path clip-path="url(#p4184511ba2)" d="M 273.309897 249.709616 
L 278.025267 247.71217 
L 282.656989 245.527758 
L 287.197652 243.159873 
L 291.639993 240.612304 
L 295.976905 237.889127 
L 300.20145 234.994697 
L 304.30687 231.933646 
L 308.286596 228.710871 
L 312.134262 225.331527 
L 315.843713 221.801021 
L 319.409014 218.125 
L 322.824462 214.309345 
L 326.084592 210.360161 
L 329.184189 206.283766 
L 332.118294 202.08668 
L 334.882214 197.775619 
L 337.471527 193.357479 
L 339.88209 188.839328 
L 342.110046 184.228394 
L 344.151833 179.532054 
L 346.004183 174.757821 
L 347.664132 169.913332 
L 349.129026 165.006338 
L 350.396521 160.04469 
L 351.464589 155.036323 
L 351.821772 153.100066 
L 346.975227 151.446132 
L 342.066418 149.987331 
L 337.103199 148.725997 
L 332.093511 147.664148 
L 327.045367 146.803482 
L 321.966844 146.145377 
L 316.866066 145.690885 
L 311.751193 145.440733 
L 306.630408 145.395321 
L 301.511903 145.554723 
L 296.403866 145.918683 
L 291.31447 146.486618 
L 286.251857 147.257621 
L 281.224125 148.230458 
L 280.23452 148.446654 
L 283.538127 144.533768 
L 286.682618 140.491902 
L 289.662963 136.327524 
L 292.474392 132.047294 
L 295.11241 127.658061 
L 297.572794 123.166847 
L 299.85161 118.580835 
L 301.945212 113.907364 
L 303.85025 109.153909 
L 305.563677 104.328076 
L 307.082751 99.437583 
L 308.405042 94.490256 
L 309.528436 89.494008 
L 310.451134 84.456834 
L 310.815407 82.074958 
L 306.02495 80.264978 
L 301.165945 78.648014 
L 296.246166 77.226651 
L 291.273482 76.003164 
L 286.25585 74.979509 
L 281.201296 74.157326 
L 276.117907 73.537928 
L 271.013814 73.122307 
L 265.897184 72.911128 
L 260.776201 72.904728 
L 255.659059 73.103119 
L 250.553944 73.505981 
L 245.469022 74.112672 
L 240.412429 74.92222 
L 235.392254 75.93333 
L 230.416528 77.144384 
L 225.493211 78.553446 
L 220.63018 80.158262 
L 215.835215 81.956262 
L 211.115986 83.944572 
L 206.480042 86.120011 
L 201.934802 88.479097 
L 197.487535 91.018058 
L 193.145357 93.732831 
L 188.915215 96.619074 
L 184.803875 99.672168 
L 180.817914 102.88723 
L 176.963711 106.259116 
L 173.247429 109.782432 
L 169.675016 113.451541 
L 166.252185 117.260574 
L 162.984413 121.203436 
L 159.876927 125.273821 
L 156.934698 129.465217 
L 154.162435 133.770917 
L 151.564571 138.184034 
L 149.145262 142.697508 
L 146.90838 147.304119 
L 144.857502 151.996496 
L 142.995909 156.767132 
L 141.326581 161.608397 
L 139.852186 166.512545 
L 138.575085 171.471729 
L 137.497319 176.478018 
L 136.620614 181.523401 
L 135.946371 186.599807 
L 135.47567 191.699115 
L 135.209264 196.813167 
L 135.147578 201.933782 
L 135.290711 207.052768 
L 135.638435 212.161935 
L 136.190193 217.25311 
L 136.945102 222.318149 
L 137.510955 225.422842 
L 141.440203 228.706972 
L 145.497638 231.831348 
L 149.676769 234.79097 
L 153.970911 237.581104 
L 158.373194 240.197286 
L 162.876574 242.635331 
L 167.473849 244.891339 
L 172.157662 246.961701 
L 176.920521 248.843104 
L 181.754806 250.532538 
L 186.652783 252.027301 
L 191.606618 253.325002 
L 196.608384 254.423564 
L 201.65008 255.32123 
L 206.72364 256.016564 
L 211.820948 256.508453 
L 216.933848 256.796112 
L 222.054163 256.879078 
L 227.173699 256.75722 
L 232.284267 256.430733 
L 237.377692 255.900139 
L 242.445824 255.166286 
L 247.480555 254.230349 
L 252.473833 253.093826 
L 257.417667 251.758533 
L 262.304149 250.226608 
L 267.125462 248.500502 
L 271.873892 246.582974 
L 276.541844 244.477095 
L 281.121849 242.186231 
L 285.60658 239.714048 
L 289.988863 237.064502 
L 294.261687 234.24183 
L 298.418217 231.250549 
L 302.451802 228.095443 
L 306.355991 224.781561 
L 310.124536 221.314204 
L 313.75141 217.698919 
L 317.23081 213.941489 
L 320.557169 210.047926 
L 323.725167 206.024458 
L 326.729735 201.877523 
L 329.566067 197.613754 
L 332.229624 193.239973 
L 334.716147 188.763176 
L 337.021656 184.190526 
L 339.142464 179.529337 
L 341.075177 174.787068 
L 342.816705 169.971304 
L 344.36426 165.089749 
L 345.715367 160.150214 
L 346.867865 155.160599 
L 347.819909 150.128889 
L 348.30609 147.010726 
L 343.515633 145.200747 
L 338.656629 143.583782 
L 333.736849 142.162419 
L 328.764166 140.938932 
L 323.746533 139.915278 
L 318.691979 139.093094 
L 313.60859 138.473696 
L 308.504497 138.058076 
L 303.387867 137.846896 
L 298.266885 137.840497 
L 293.149743 138.038887 
L 288.044627 138.44175 
L 282.959706 139.04844 
L 277.903112 139.857988 
L 274.459695 140.528982 
L 275.997401 135.644316 
L 277.338543 130.702065 
L 278.480975 125.710137 
L 279.422869 120.676516 
L 280.162718 115.609256 
L 280.69934 110.516463 
L 281.031874 105.406285 
L 281.15979 100.286896 
L 281.082883 95.166487 
L 280.801276 90.05325 
L 280.315418 84.955363 
L 279.626089 79.880984 
L 278.73439 74.838229 
L 277.641747 69.835167 
L 276.34991 64.8798 
L 275.995668 63.648 
L 274.654288 68.590186 
L 273.511616 73.58206 
L 272.56948 78.615635 
L 271.829387 83.682859 
L 271.29252 88.775626 
L 270.959739 93.885789 
L 270.831577 99.005171 
L 270.908238 104.125584 
L 271.189599 109.238835 
L 271.675211 114.336745 
L 272.364296 119.411157 
L 273.255752 124.453955 
L 274.348154 129.45707 
L 275.639753 134.412499 
L 277.128483 139.312313 
L 278.811963 144.148675 
L 280.687498 148.913848 
L 281.255087 150.253878 
L 284.152004 154.476718 
L 287.215472 158.580334 
L 290.440591 162.558161 
L 293.8222 166.403836 
L 297.354891 170.111207 
L 301.033011 173.674343 
L 304.850677 177.087542 
L 308.80178 180.345346 
L 312.88 183.442542 
L 317.078813 186.374175 
L 321.391501 189.135555 
L 325.811166 191.722265 
L 330.330736 194.130166 
L 334.942981 196.355407 
L 339.640523 198.394427 
L 344.415846 200.243965 
L 348.526446 201.663607 
L 344.648382 198.31919 
L 340.63968 195.132529 
L 336.506752 192.108723 
L 332.256209 189.252608 
L 327.894852 186.568754 
L 323.429659 184.061455 
L 318.867772 181.734722 
L 314.216489 179.592276 
L 309.483252 177.637546 
L 304.675633 175.873659 
L 299.801323 174.303436 
L 294.868119 172.929389 
L 289.883914 171.753718 
L 287.266317 171.2198 
L 292.094045 169.511716 
L 296.849605 167.611941 
L 301.525391 165.523513 
L 306.113922 163.249775 
L 310.607857 160.794363 
L 315.000007 158.161205 
L 319.283346 155.354515 
L 323.451021 152.378782 
L 327.496365 149.238767 
L 331.412905 145.939492 
L 335.194378 142.486237 
L 338.834731 138.884526 
L 341.794327 135.732021 
L 336.812146 136.91624 
L 331.881306 138.298747 
L 327.009697 139.877328 
L 322.20511 141.64946 
L 317.475233 143.612306 
L 312.827632 145.762726 
L 308.269743 148.097281 
L 303.808857 150.612236 
L 299.45211 153.303567 
L 295.206473 156.166968 
L 291.078737 159.197859 
L 287.075507 162.391391 
L 286.105924 163.205253 
L 291.0833 164.409507 
L 296.104852 165.413756 
L 301.162547 166.216393 
L 306.248293 166.816133 
L 311.353954 167.212019 
L 316.471362 167.403416 
L 321.592331 167.390018 
L 326.708668 167.171847 
L 331.812188 166.749251 
L 336.894726 166.122907 
L 341.948152 165.293816 
L 346.964381 164.263306 
L 351.935387 163.033024 
L 356.750544 161.636948 
L 353.057849 165.184977 
L 349.509991 168.877836 
L 346.112646 172.709617 
L 342.871249 176.674191 
L 339.790985 180.765216 
L 336.876783 184.976145 
L 334.133304 189.300243 
L 331.564937 193.730592 
L 329.175792 198.260105 
L 326.969689 202.881535 
L 324.95016 207.587489 
L 323.120433 212.370438 
L 321.483437 217.222731 
L 320.041791 222.136605 
L 318.7978 227.104199 
L 317.753455 232.117565 
L 316.910427 237.168684 
L 316.270064 242.249475 
L 315.83339 247.35181 
L 315.601105 252.467525 
L 315.573579 257.588438 
L 315.594735 258.703004 
L 311.151324 261.248706 
L 306.813268 263.970062 
L 302.587508 266.862716 
L 298.480803 269.922042 
L 294.499723 273.143146 
L 290.650638 276.520873 
L 286.939704 280.049821 
L 283.372859 283.724344 
L 281.830545 285.408 
L 278.329795 281.670454 
L 274.682383 278.075891 
L 270.894144 274.63006 
L 266.971139 271.338474 
L 262.919644 268.2064 
L 258.74614 265.238848 
L 254.457304 262.440566 
L 250.059997 259.816029 
L 245.561254 257.369437 
L 240.968271 255.104704 
L 236.288398 253.025452 
L 231.52912 251.135009 
L 226.698051 249.436399 
L 221.802921 247.932338 
L 216.851559 246.625233 
L 211.851888 245.517176 
L 206.811906 244.609938 
L 201.739675 243.904972 
L 196.643311 243.403404 
L 191.530965 243.106039 
L 186.410818 243.01335 
L 181.291059 243.125486 
L 176.17988 243.442269 
L 171.085458 243.963191 
L 166.015941 244.687419 
L 160.979442 245.613794 
L 155.984015 246.740834 
L 150.649671 248.179766 
L 154.282527 244.570491 
L 157.768144 240.818829 
L 161.100947 236.930779 
L 164.275603 232.912564 
L 167.287035 228.77061 
L 170.130423 224.511543 
L 172.80122 220.142179 
L 175.295152 215.669506 
L 177.608231 211.10068 
L 179.736755 206.44301 
L 181.677319 201.703948 
L 183.426819 196.891074 
L 184.982456 192.012089 
L 186.425136 186.744512 
L 182.943018 182.989601 
L 179.313529 179.376941 
L 175.542476 175.912312 
L 171.63589 172.601256 
L 167.600023 169.44907 
L 163.44133 166.460797 
L 159.166464 163.641218 
L 154.782265 160.994843 
L 150.295746 158.525906 
L 145.714085 156.238357 
L 141.044611 154.135855 
L 136.294794 152.221765 
L 131.472233 150.499147 
L 126.584644 148.970758 
L 123.392605 148.086857 
L 127.06904 151.651732 
L 130.88509 155.066737 
L 134.834652 158.326409 
L 138.911407 161.425533 
L 143.108833 164.359152 
L 147.420215 167.122572 
L 151.838655 169.711372 
L 156.357086 172.121411 
L 160.968278 174.348833 
L 165.664855 176.390075 
L 170.439302 178.241871 
L 175.283983 179.901259 
L 180.191147 181.365584 
L 185.609149 182.738438 
L 181.293265 185.494821 
L 177.091059 188.421588 
L 173.009254 191.514058 
L 169.05438 194.767283 
L 165.232763 198.176058 
L 161.550518 201.734931 
L 158.013536 205.438208 
L 154.627474 209.279964 
L 151.39775 213.254053 
L 148.329531 217.354118 
L 145.427725 221.573599 
L 142.696974 225.905746 
L 140.244311 230.157154 
L 145.365297 230.154603 
L 150.482085 229.94727 
L 155.586488 229.535485 
L 160.670342 228.919909 
L 165.725512 228.101524 
L 170.743912 227.081642 
L 175.717514 225.861892 
L 180.63836 224.444228 
L 185.498579 222.830916 
L 190.290395 221.024537 
L 195.006142 219.027982 
L 199.638276 216.844445 
L 204.141462 214.498152 
L 202.824265 219.446839 
L 201.706017 224.44424 
L 200.788506 229.482362 
L 200.073201 234.553145 
L 199.561244 239.648477 
L 199.253456 244.760205 
L 199.150329 249.880153 
L 199.252028 255.00013 
L 199.558389 260.111944 
L 200.068924 265.207418 
L 200.782815 270.2784 
L 201.69892 275.316778 
L 202.815774 280.314492 
L 204.173198 285.408 
L 205.494823 280.460495 
L 206.617544 275.464096 
L 207.539565 270.426797 
L 208.259409 265.356657 
L 208.775926 260.261785 
L 209.08829 255.150334 
L 209.196 250.030481 
L 209.098884 244.910415 
L 208.797098 239.798329 
L 208.291125 234.7024 
L 207.581773 229.630781 
L 206.670178 224.591585 
L 205.557798 219.592874 
L 204.223867 214.564025 
L 199.1061 214.382456 
L 193.985166 214.405688 
L 188.869258 214.633684 
L 183.766559 215.06608 
L 178.685233 215.702184 
L 173.633409 216.540977 
L 168.619168 217.581119 
L 163.650533 218.820945 
L 158.735453 220.258471 
L 153.881789 221.891399 
L 149.097308 223.717115 
L 144.389662 225.732699 
L 139.766385 227.934926 
L 139.142917 228.249483 
L 139.678494 227.898814 
L 143.898636 224.997969 
L 147.999399 221.930683 
L 151.974224 218.701864 
L 155.81675 215.316677 
L 159.520832 211.780537 
L 163.080543 208.099103 
L 166.490188 204.278262 
L 169.744313 200.324129 
L 172.837712 196.243028 
L 175.765436 192.041489 
L 178.522802 187.726232 
L 181.105398 183.304163 
L 183.509092 178.782354 
L 184.962918 175.815906 
L 182.449181 171.354334 
L 179.759039 166.996853 
L 176.896796 162.750435 
L 173.867031 158.621873 
L 170.674591 154.617771 
L 167.324583 150.744536 
L 163.822367 147.008364 
L 160.173545 143.415231 
L 156.383955 139.970887 
L 152.459659 136.68084 
L 148.406935 133.550356 
L 144.232268 130.584441 
L 139.942334 127.787841 
L 136.356941 125.631969 
L 139.150895 127.19357 
L 143.699866 129.545456 
L 148.339249 131.71355 
L 153.061621 133.694384 
L 157.859428 135.484789 
L 162.724994 137.081901 
L 167.650536 138.483164 
L 172.628173 139.686338 
L 177.649943 140.689497 
L 182.707812 141.491036 
L 187.793688 142.089673 
L 192.899435 142.484451 
L 196.095713 142.627329 
L 194.68991 137.703081 
L 193.088314 132.838989 
L 191.293487 128.042834 
L 189.308301 123.32229 
L 187.135932 118.684908 
L 184.779854 114.138107 
L 182.243837 109.689161 
L 179.531938 105.345187 
L 176.648497 101.113135 
L 173.598124 96.999775 
L 170.385701 93.011688 
L 167.016367 89.155253 
L 163.495511 85.436641 
L 160.991138 82.964288 
L 165.937396 84.290574 
L 170.932735 85.418002 
L 175.969163 86.344768 
L 181.038623 87.069389 
L 186.133005 87.590706 
L 191.244159 87.907885 
L 196.363909 88.020418 
L 201.484064 87.928127 
L 206.596432 87.631157 
L 211.692836 87.129985 
L 216.765121 86.425412 
L 221.805174 85.518565 
L 226.804931 84.410896 
L 231.756394 83.104175 
L 236.651641 81.600494 
L 241.482841 79.902258 
L 246.242266 78.012184 
L 250.9223 75.933295 
L 255.515458 73.668918 
L 260.014391 71.222675 
L 264.411901 68.59848 
L 268.700955 65.800529 
L 271.763488 63.648 
L 275.968912 66.570141 
L 280.287827 69.321772 
L 284.713324 71.898491 
L 289.238322 74.296177 
L 293.855582 76.510993 
L 298.557718 78.539396 
L 303.337207 80.378142 
L 308.186403 82.024288 
L 311.337841 82.979841 
L 310.210003 87.975087 
L 309.282824 93.011439 
L 308.557787 98.08084 
L 308.036051 103.175179 
L 307.718453 108.286307 
L 307.605498 113.406048 
L 307.69737 118.52621 
L 307.993919 123.638603 
L 308.494673 128.735048 
L 309.198829 133.807391 
L 310.105262 138.847518 
L 311.212521 143.847366 
L 312.518835 148.798936 
L 314.022114 153.694306 
L 315.719953 158.525646 
L 317.609637 163.285226 
L 319.688141 167.965431 
L 321.95214 172.558775 
L 324.398014 177.057909 
L 327.021849 181.455635 
L 329.819446 185.744918 
L 332.786332 189.918896 
L 335.917759 193.970891 
L 339.208718 197.894422 
L 342.653944 201.68321 
L 346.350994 205.431599 
L 341.396206 204.137544 
L 336.393633 203.042663 
L 331.351278 202.148707 
L 326.277208 201.457106 
L 321.17954 200.968967 
L 316.066429 200.685071 
L 310.946055 200.605873 
L 305.826609 200.731497 
L 300.716283 201.061745 
L 295.62325 201.596087 
L 290.555659 202.333668 
L 285.521618 203.27331 
L 280.529178 204.413507 
L 277.078042 205.32595 
L 277.221204 210.444935 
L 277.568957 215.5541 
L 278.120744 220.645272 
L 278.875682 225.710306 
L 279.832564 230.7411 
L 280.989858 235.729604 
L 282.345714 240.667838 
L 283.897961 245.547902 
L 285.644118 250.36199 
L 287.58139 255.102399 
L 289.706678 259.761546 
L 292.016582 264.331978 
L 294.507408 268.806382 
L 297.175169 273.1776 
L 300.015598 277.43864 
L 302.6624 281.102465 
L 297.566826 280.592926 
L 292.454952 280.287563 
L 287.334956 280.186865 
L 282.215028 280.290993 
L 277.10336 280.59978 
L 272.008129 281.112732 
L 266.937486 281.829029 
L 261.899543 282.747524 
L 256.90236 283.866749 
L 251.953931 285.184913 
L 251.188081 285.408 
L 246.247961 284.059032 
L 241.257848 282.908695 
L 236.225725 281.95883 
L 231.159643 281.210956 
L 226.067706 280.666269 
L 220.958061 280.325641 
L 215.838882 280.189617 
L 210.718357 280.258414 
L 205.60468 280.531923 
L 200.506031 281.009705 
L 195.430566 281.690997 
L 190.386405 282.574708 
L 185.381618 283.659425 
L 180.424212 284.943413 
L 178.808561 285.408 
L 173.868441 284.059032 
L 170.963153 283.363748 
L 172.38017 278.442716 
L 173.599265 273.468953 
L 174.618488 268.450419 
L 175.436207 263.395141 
L 176.051115 258.311206 
L 176.462228 253.206749 
L 176.668888 248.089934 
L 176.670765 242.968948 
L 176.467855 237.851983 
L 176.060484 232.747225 
L 175.449303 227.662841 
L 174.63529 222.606965 
L 173.619747 217.587685 
L 172.404298 212.613031 
L 170.990888 207.690961 
L 169.381779 202.829349 
L 167.579544 198.035973 
L 165.587067 193.318502 
L 163.407535 188.684481 
L 161.044435 184.141326 
L 158.501548 179.696303 
L 155.782941 175.356525 
L 152.892964 171.128933 
L 149.83624 167.020291 
L 146.617659 163.037172 
L 143.24237 159.185947 
L 139.715773 155.472779 
L 136.043511 151.903607 
L 132.231456 148.484142 
L 128.285709 145.219853 
L 126.049919 143.484254 
L 130.80912 145.374892 
L 135.640119 147.073701 
L 140.535188 148.577963 
L 145.486495 149.88527 
L 150.486121 150.993533 
L 155.526066 151.900977 
L 160.598268 152.606151 
L 165.694612 153.107928 
L 170.806945 153.405503 
L 175.927089 153.498402 
L 181.046852 153.386475 
L 186.158044 153.069902 
L 189.823872 152.716005 
L 186.931297 148.49019 
L 183.872048 144.383428 
L 180.651019 140.402288 
L 177.273364 136.553139 
L 173.744486 132.842139 
L 170.070029 129.275225 
L 166.255874 125.858104 
L 162.308121 122.596241 
L 158.233086 119.494855 
L 154.037289 116.558909 
L 149.727441 113.793097 
L 144.839657 110.939473 
L 150.407685 114.096969 
L 154.971401 116.420114 
L 159.624367 118.558901 
L 164.359139 120.509908 
L 169.168144 122.270014 
L 174.043688 123.836403 
L 178.977971 125.20657 
L 183.963098 126.378322 
L 188.991096 127.349784 
L 194.05392 128.119404 
L 199.143471 128.685949 
L 204.251607 129.048512 
L 209.370155 129.206515 
L 212.314837 129.204628 
L 215.182229 124.961685 
L 217.877655 120.607471 
L 220.396803 116.148951 
L 222.735643 111.593259 
L 224.890432 106.947682 
L 226.857725 102.219653 
L 228.634373 97.416735 
L 230.217534 92.546611 
L 231.604677 87.617074 
L 232.79358 82.636009 
L 233.782344 77.611385 
L 234.569385 72.55124 
L 235.153444 67.463669 
L 235.456863 63.648 
L 235.49966 64.286733 
L 235.956885 69.387267 
L 236.61771 74.465437 
L 237.48108 79.513119 
L 238.545613 84.522238 
L 239.809605 89.48478 
L 241.271035 94.392807 
L 242.927565 99.238466 
L 244.776545 104.014005 
L 246.815016 108.711785 
L 249.039718 113.324291 
L 251.447091 117.844142 
L 254.033284 122.264109 
L 256.79416 126.57712 
L 257.853424 128.136242 
L 262.942405 127.564595 
L 268.004455 126.789901 
L 273.031476 125.813398 
L 278.015427 124.636649 
L 282.948333 123.261536 
L 287.822304 121.69026 
L 292.629542 119.925333 
L 297.362357 117.969581 
L 302.013176 115.82613 
L 306.57456 113.498411 
L 311.039212 110.990147 
L 315.399988 108.305351 
L 319.649913 105.448318 
L 322.934151 103.065239 
L 318.265871 105.17039 
L 313.685508 107.460539 
L 309.200391 109.932021 
L 304.817695 112.580883 
L 300.54443 115.402888 
L 296.387433 118.39352 
L 292.353355 121.547996 
L 288.44865 124.861269 
L 284.679563 128.328037 
L 281.052125 131.942757 
L 277.572138 135.699643 
L 273.945866 139.95882 
L 278.129717 137.005873 
L 282.192135 133.88798 
L 286.126621 130.610127 
L 289.926881 127.177559 
L 293.586835 123.595766 
L 297.100628 119.870479 
L 300.462639 116.007658 
L 303.667488 112.013482 
L 306.71005 107.894341 
L 309.585456 103.656826 
L 312.289107 99.307714 
L 314.816677 94.853963 
L 316.423259 91.788043 
L 311.30531 91.611693 
L 306.184403 91.640148 
L 301.06873 91.873362 
L 295.966474 92.310961 
L 290.8858 92.952246 
L 285.834834 93.796191 
L 280.821657 94.841445 
L 275.854289 96.086337 
L 270.940676 97.528876 
L 266.08868 99.166752 
L 261.306063 100.997346 
L 256.600476 103.01773 
L 251.979446 105.224671 
L 247.450367 107.614638 
L 243.020484 110.183809 
L 238.696884 112.928072 
L 234.486483 115.843039 
L 230.396018 118.924044 
L 226.432032 122.166161 
L 223.250517 124.968489 
L 218.240999 123.905835 
L 213.192994 123.044358 
L 208.114576 122.385437 
L 203.013871 121.930125 
L 197.899038 121.679152 
L 192.77826 121.632918 
L 187.65973 121.791497 
L 182.551635 122.154636 
L 177.462148 122.721754 
L 172.399411 123.491943 
L 167.371522 124.463972 
L 162.386526 125.636286 
L 157.452398 127.007008 
L 152.577031 128.573946 
L 147.768224 130.334594 
L 143.033671 132.286134 
L 138.380946 134.425445 
L 133.817492 136.749104 
L 129.35061 139.253394 
L 128.043352 140.031527 
L 128.047167 145.152512 
L 128.255764 150.269248 
L 128.668809 155.37355 
L 129.28564 160.457252 
L 130.105273 165.51222 
L 131.126394 170.530368 
L 132.347372 175.503668 
L 133.766251 180.424165 
L 135.380763 185.283985 
L 137.188325 190.075355 
L 139.186044 194.790609 
L 141.370725 199.422203 
L 143.738873 203.962729 
L 146.286699 208.404923 
L 149.010128 212.741677 
L 151.904803 216.966054 
L 154.966091 221.071296 
L 158.189097 225.050836 
L 161.568665 228.898306 
L 165.099386 232.607552 
L 168.775614 236.17264 
L 172.591466 239.587866 
L 176.540839 242.847767 
L 180.617414 245.947128 
L 184.81467 248.88099 
L 189.125892 251.64466 
L 193.544182 254.233716 
L 198.062473 256.644017 
L 202.673536 258.871707 
L 207.369994 260.913221 
L 212.144335 262.765294 
L 216.988919 264.424963 
L 221.895998 265.889572 
L 226.85772 267.156779 
L 231.866149 268.224557 
L 236.91327 269.091197 
L 241.991011 269.755312 
L 247.091248 270.215841 
L 252.205821 270.472046 
L 257.326549 270.523518 
L 262.445239 270.370175 
L 267.553703 270.012261 
L 272.643767 269.450349 
L 277.70729 268.685338 
L 282.73617 267.718453 
L 287.722362 266.551239 
L 292.65789 265.185564 
L 297.534857 263.623614 
L 302.345462 261.867886 
L 307.082009 259.921189 
L 311.73692 257.786639 
L 316.302748 255.467649 
L 317.992372 254.550174 
L 317.794581 249.433009 
L 317.392317 244.327846 
L 316.786222 239.242854 
L 315.977266 234.186166 
L 314.966744 229.165872 
L 313.756272 224.190004 
L 312.347787 219.266523 
L 310.743541 214.403304 
L 308.946102 209.608128 
L 306.958345 204.888665 
L 304.78345 200.252467 
L 302.424896 195.706951 
L 299.886456 191.259387 
L 297.172191 186.916891 
L 294.286445 182.68641 
L 291.233832 178.574712 
L 288.019237 174.588375 
L 287.36838 173.819663 
L 290.503436 169.770475 
L 293.47406 165.599157 
L 296.2755 161.312383 
L 298.903274 156.91701 
L 301.353178 152.420069 
L 303.621293 147.828756 
L 305.703989 143.150415 
L 307.597937 138.39253 
L 309.300104 133.562714 
L 310.807769 128.668692 
L 312.118519 123.718294 
L 313.230258 118.719441 
L 314.141206 113.680128 
L 314.849907 108.608417 
L 315.355227 103.512424 
L 315.656357 98.400298 
L 315.752816 93.280221 
L 315.721014 90.571718 
L 311.29206 88.000945 
L 306.763846 85.60934 
L 302.143615 83.400727 
L 297.438759 81.378642 
L 292.656804 79.546318 
L 287.805401 77.906687 
L 282.892311 76.462371 
L 277.925393 75.215682 
L 272.912595 74.168615 
L 267.861934 73.322843 
L 262.781492 72.67972 
L 257.679395 72.240275 
L 252.563807 72.005211 
L 247.44291 71.974904 
L 242.324897 72.149403 
L 237.217957 72.528428 
L 232.130258 73.111373 
L 227.069941 73.897305 
L 222.0451 74.884968 
L 217.063774 76.07278 
L 212.133933 77.458842 
L 207.263463 79.040937 
L 202.460156 80.816532 
L 197.731696 82.782789 
L 193.085647 84.936561 
L 188.529442 87.274402 
L 184.070371 89.792573 
L 179.715567 92.487045 
L 175.471996 95.353508 
L 171.346447 98.387375 
L 167.345521 101.583793 
L 163.475617 104.937649 
L 159.742928 108.443577 
L 156.153424 112.095969 
L 152.712848 115.888981 
L 149.426704 119.816545 
L 146.300249 123.872378 
L 143.338486 128.049992 
L 140.546151 132.342703 
L 137.927712 136.743644 
L 135.487359 141.245774 
L 133.228995 145.841892 
L 131.156233 150.524643 
L 129.272389 155.286537 
L 127.580477 160.119955 
L 126.083204 165.017166 
L 124.782964 169.970335 
L 123.681839 174.971537 
L 122.781589 180.012772 
L 122.083654 185.085975 
L 121.589152 190.18303 
L 121.298874 195.295783 
L 121.242149 197.244444 
L 125.779436 199.618791 
L 130.408043 201.809796 
L 135.120564 203.813954 
L 139.90946 205.628058 
L 144.767071 207.249206 
L 149.685624 208.674805 
L 154.657253 209.902574 
L 159.674002 210.930548 
L 164.727846 211.757084 
L 169.8107 212.380859 
L 174.914433 212.800875 
L 180.030879 213.01646 
L 185.151854 213.027269 
L 190.269165 212.833286 
L 195.374626 212.434819 
L 200.992346 211.757504 
L 200.658983 216.867629 
L 200.530236 221.986996 
L 200.606313 227.107418 
L 200.887091 232.220701 
L 201.372121 237.318666 
L 202.060628 242.393157 
L 202.951509 247.436056 
L 204.04334 252.439296 
L 205.334374 257.394872 
L 206.822545 262.294857 
L 208.505474 267.131411 
L 210.380466 271.896797 
L 212.444523 276.583391 
L 214.694343 281.183697 
L 216.967056 285.408 
L 219.387621 280.8952 
L 221.625786 276.289212 
L 223.67797 271.597407 
L 225.540891 266.827288 
L 227.211568 261.986489 
L 228.687328 257.082752 
L 229.96581 252.123923 
L 231.044969 247.117935 
L 231.923079 242.072796 
L 232.598735 236.996578 
L 233.070856 231.897401 
L 233.338686 226.783423 
L 233.369955 225.665222 
L 233.220454 227.579875 
L 232.96234 232.694352 
L 232.908957 237.81506 
L 233.06039 242.933807 
L 233.416398 248.042404 
L 233.97641 253.132678 
L 234.739531 258.196485 
L 235.70454 263.225726 
L 236.869893 268.212353 
L 238.233726 273.14839 
L 239.793856 278.02594 
L 241.547789 282.8372 
L 242.575756 285.408 
L 244.433316 280.635791 
L 246.098552 275.793118 
L 247.568801 270.887726 
L 248.84171 265.927463 
L 249.915244 260.920266 
L 250.787684 255.874143 
L 251.457636 250.797169 
L 251.924027 245.697465 
L 252.186111 240.58319 
L 252.243468 235.462524 
L 252.096008 230.343662 
L 251.743967 225.23479 
L 251.564147 223.369705 
L 254.142345 227.79434 
L 256.895419 232.112335 
L 259.818965 236.316783 
L 262.908306 240.400957 
L 266.158498 244.358324 
L 269.564344 248.182551 
L 273.120393 251.867523 
L 276.820958 255.407343 
L 280.660117 258.796348 
L 284.63173 262.029117 
L 288.729442 265.100478 
L 292.946698 268.005517 
L 297.276751 270.739588 
L 301.712674 273.298315 
L 305.896117 275.501502 
L 301.559861 272.77728 
L 297.118134 270.228641 
L 292.578041 267.859662 
L 287.946846 265.674134 
L 283.231958 263.675552 
L 278.440919 261.867114 
L 273.581394 260.251713 
L 268.661158 258.831933 
L 263.688081 257.610046 
L 258.670119 256.588007 
L 253.615301 255.76745 
L 248.531712 255.149688 
L 243.427486 254.735709 
L 238.310788 254.526177 
L 233.189804 254.521425 
L 228.072726 254.721461 
L 222.967741 255.125967 
L 217.883014 255.734293 
L 212.826682 256.545468 
L 207.806833 257.558194 
L 202.831497 258.77085 
L 197.908634 260.181496 
L 193.046119 261.787876 
L 188.251733 263.587419 
L 183.533143 265.577248 
L 178.8979 267.754178 
L 174.353419 270.114727 
L 169.90697 272.655119 
L 166.135018 275.001173 
L 166.70404 274.707872 
L 171.201979 272.259802 
L 175.598423 269.63382 
L 179.88634 266.834128 
L 184.058868 263.865205 
L 188.109334 260.7318 
L 192.031257 257.438926 
L 195.818363 253.99185 
L 199.464594 250.396088 
L 202.964116 246.657392 
L 206.311331 242.781743 
L 209.500883 238.775341 
L 212.527671 234.644596 
L 215.386852 230.396116 
L 218.073853 226.036697 
L 219.779212 223.050878 
L 219.137494 228.131498 
L 218.69946 233.233716 
L 218.46581 238.349369 
L 218.436919 243.470274 
L 218.612833 248.588238 
L 218.99327 253.695074 
L 219.577621 258.782611 
L 220.364953 263.842711 
L 221.354004 268.867278 
L 222.543194 273.848275 
L 223.930619 278.777733 
L 225.51406 283.647765 
L 226.139998 285.408 
L 227.794331 280.56159 
L 229.253535 275.652902 
L 230.515277 270.689787 
L 231.577538 265.680186 
L 232.438619 260.632113 
L 233.097142 255.553643 
L 233.552053 250.452903 
L 233.802626 245.33805 
L 233.848458 240.217269 
L 233.689477 235.098751 
L 233.325937 229.990685 
L 232.852901 225.634389 
L 231.662924 230.615198 
L 230.673078 235.639609 
L 229.884946 240.699584 
L 229.29979 245.787029 
L 228.918546 250.893804 
L 228.741823 256.01174 
L 228.769905 261.13265 
L 229.002746 266.24834 
L 229.439973 271.350627 
L 230.080888 276.431349 
L 230.924465 281.482376 
L 231.724848 285.408 
L 232.726048 280.385839 
L 233.525615 275.327658 
L 234.122269 270.241549 
L 234.515055 265.135648 
L 234.703345 260.018125 
L 234.686839 254.897165 
L 234.465562 249.780961 
L 234.039868 244.677699 
L 233.410439 239.595542 
L 232.578281 234.54262 
L 231.544726 229.527018 
L 230.54408 225.432433 
L 228.289444 230.03038 
L 226.22048 234.714811 
L 224.340499 239.478231 
L 222.652507 244.313021 
L 221.159206 249.211444 
L 219.862984 254.165666 
L 218.765915 259.167759 
L 217.869753 264.209723 
L 217.175934 269.28349 
L 216.685565 274.380945 
L 216.399433 279.493931 
L 216.317995 284.61427 
L 216.323707 285.408 
L 216.172374 277.728651 
L 215.81571 272.620101 
L 215.255044 267.529899 
L 214.491272 262.466189 
L 213.525617 257.437073 
L 212.359623 252.450595 
L 210.995157 247.514733 
L 209.434399 242.637383 
L 207.679848 237.826349 
L 205.734311 233.089326 
L 203.600899 228.433893 
L 201.283027 223.867497 
L 198.784401 219.397445 
L 196.109019 215.030886 
L 193.261162 210.774807 
L 190.245385 206.636016 
L 187.066512 202.621135 
L 183.72963 198.736586 
L 180.240077 194.988584 
L 176.603435 191.383125 
L 172.825522 187.925976 
L 168.912381 184.62267 
L 164.870274 181.478489 
L 160.705666 178.498465 
L 156.425221 175.687364 
L 152.035785 173.049685 
L 147.544381 170.589645 
L 142.958195 168.311182 
L 138.284562 166.217939 
L 133.530961 164.313267 
L 128.704996 162.600211 
L 123.814387 161.081513 
L 118.866958 159.759602 
L 116.920377 159.297085 
L 120.481833 162.976831 
L 124.187592 166.511213 
L 128.031723 169.894578 
L 132.008078 173.121511 
L 136.110296 176.186852 
L 140.331813 179.085696 
L 144.665876 181.813405 
L 149.105552 184.365617 
L 153.643737 186.738247 
L 158.273173 188.9275 
L 162.986452 190.929874 
L 167.776034 192.742165 
L 172.634258 194.361475 
L 177.553351 195.785212 
L 182.525443 197.011099 
L 187.542581 198.037175 
L 190.966536 198.618469 
L 188.893779 203.301222 
L 187.00994 208.063118 
L 185.318032 212.896539 
L 183.820764 217.793751 
L 182.520529 222.746921 
L 181.419408 227.748124 
L 180.519163 232.78936 
L 179.821233 237.862564 
L 179.326736 242.959619 
L 179.036463 248.072372 
L 178.950877 253.192643 
L 179.070115 258.312241 
L 179.393988 263.422976 
L 179.921976 268.516671 
L 180.653236 273.585178 
L 181.586597 278.620388 
L 182.720566 283.614246 
L 183.179575 285.408 
L 184.385642 280.431063 
L 185.39172 275.409877 
L 186.1962 270.352475 
L 186.797794 265.266948 
L 187.195539 260.161431 
L 187.388801 255.044093 
L 187.377269 249.923119 
L 187.160961 244.806703 
L 186.740225 239.70303 
L 186.115733 234.620264 
L 185.288484 229.566536 
L 184.259801 224.549932 
L 183.031331 219.578478 
L 181.605038 214.660125 
L 179.983204 209.802744 
L 178.168424 205.014103 
L 176.163601 200.301865 
L 173.971943 195.673568 
L 171.596955 191.136616 
L 169.042437 186.698267 
L 166.312476 182.365622 
L 163.411439 178.145612 
L 160.343967 174.044988 
L 157.114968 170.07031 
L 153.729607 166.227937 
L 150.193299 162.524015 
L 146.511703 158.964471 
L 142.690708 155.554999 
L 138.736427 152.301054 
L 134.655186 149.20784 
L 130.453514 146.280306 
L 126.056314 143.473179 
L 127.749094 144.380227 
L 132.327715 146.673856 
L 136.994394 148.782555 
L 141.741666 150.702949 
L 146.561935 152.431967 
L 151.447491 153.966843 
L 156.390518 155.30512 
L 161.383108 156.444659 
L 166.417274 157.383636 
L 171.484962 158.120549 
L 176.578065 158.654219 
L 181.688435 158.983793 
L 187.322675 159.109973 
L 183.070909 156.25568 
L 178.708403 153.573695 
L 174.242136 151.06831 
L 169.679252 148.743531 
L 165.027052 146.603078 
L 160.292978 144.650377 
L 155.484604 142.888549 
L 150.609621 141.320415 
L 145.675829 139.948482 
L 140.691121 138.774945 
L 135.663471 137.801683 
L 130.600923 137.030251 
L 129.833269 136.9313 
L 133.008392 140.949147 
L 136.341646 144.83681 
L 139.827698 148.588068 
L 143.460972 152.196921 
L 147.235656 155.657595 
L 151.145711 158.964554 
L 155.184881 162.112507 
L 159.346704 165.096418 
L 163.624523 167.911514 
L 168.011495 170.553291 
L 172.5006 173.017523 
L 177.084657 175.300267 
L 181.756333 177.397872 
L 185.122972 178.773187 
L 180.78309 181.49163 
L 176.555389 184.381447 
L 172.446631 187.438015 
L 168.46339 190.656445 
L 164.612038 194.031588 
L 160.898736 197.558044 
L 157.329425 201.230172 
L 153.909815 205.042097 
L 150.645377 208.98772 
L 147.541333 213.06073 
L 144.602649 217.254611 
L 141.834026 221.562654 
L 139.239893 225.977965 
L 138.550431 227.223267 
L 143.671386 227.241271 
L 148.788964 227.054477 
L 153.894979 226.663184 
L 158.981263 226.068017 
L 164.039677 225.26993 
L 169.062131 224.270199 
L 174.040588 223.070422 
L 178.967085 221.67252 
L 183.83374 220.078729 
L 188.632768 218.291599 
L 193.356491 216.313988 
L 197.997352 214.14906 
L 201.590601 212.313666 
L 199.695137 217.070946 
L 197.99143 221.90022 
L 196.482205 226.793761 
L 195.169877 231.74374 
L 194.056544 236.742239 
L 193.143989 241.781261 
L 192.433672 246.852745 
L 191.926727 251.948578 
L 191.623967 257.060607 
L 191.525876 262.180654 
L 191.63261 267.300528 
L 191.944 272.412038 
L 192.459546 277.507007 
L 193.178425 282.577285 
L 193.670355 285.408 
L 194.502825 280.35513 
L 195.132568 275.273012 
L 195.558578 270.169776 
L 195.780171 265.053586 
L 195.796994 259.932627 
L 195.60902 254.815092 
L 195.21655 249.709167 
L 194.620211 244.623021 
L 193.820957 239.564791 
L 192.820067 234.542568 
L 191.619143 229.564387 
L 190.220105 224.638213 
L 188.625192 219.771925 
L 186.836955 214.97331 
L 184.858255 210.250043 
L 182.692257 205.609682 
L 180.342427 201.059648 
L 177.812524 196.607223 
L 175.106595 192.259528 
L 172.228969 188.02352 
L 169.184249 183.905974 
L 165.977307 179.913478 
L 162.613273 176.052418 
L 159.097529 172.328973 
L 155.435699 168.749099 
L 151.633641 165.318522 
L 147.697438 162.042731 
L 143.633387 158.926966 
L 139.447989 155.976213 
L 135.14794 153.195191 
L 130.74012 150.588349 
L 126.231579 148.159859 
L 123.996698 147.040538 
L 124.528588 147.396775 
L 128.846464 150.150036 
L 133.270988 152.728425 
L 137.795081 155.127818 
L 142.411505 157.344377 
L 147.112875 159.374554 
L 151.89167 161.215103 
L 156.740244 162.863079 
L 161.650842 164.315846 
L 166.615607 165.571079 
L 171.626597 166.62677 
L 176.675795 167.481231 
L 181.755123 168.133094 
L 185.306655 168.466877 
L 184.041184 168.272408 
L 178.961753 167.621347 
L 173.860349 167.17393 
L 168.745134 166.930873 
L 163.624291 166.892564 
L 158.506012 167.059065 
L 153.398485 167.430109 
L 148.309882 168.005103 
L 143.248343 168.783127 
L 138.221965 169.762937 
L 133.238789 170.942964 
L 128.306788 172.321321 
L 123.433852 173.895803 
L 118.627776 175.663891 
L 113.896249 177.622756 
L 110.740477 179.055013 
L 111.265147 178.688226 
L 115.395157 175.660435 
L 119.400784 172.46991 
L 123.275621 169.121754 
L 127.013467 165.621325 
L 130.608344 161.974222 
L 134.0545 158.186279 
L 137.346422 154.263556 
L 140.478844 150.21233 
L 143.446754 146.039081 
L 146.245405 141.750485 
L 148.870319 137.353403 
L 151.317297 132.85487 
L 153.582425 128.262082 
L 155.662078 123.582387 
L 157.55293 118.823272 
L 159.251955 113.992349 
L 160.756436 109.097348 
L 162.063966 104.146098 
L 163.172452 99.146523 
L 164.080123 94.106618 
L 164.785525 89.034448 
L 165.287529 83.938126 
L 165.585334 78.825807 
L 165.675417 74.850878 
L 170.039228 72.171017 
L 174.292383 69.318794 
L 178.428077 66.298771 
L 181.791489 63.648 
L 185.823871 66.804644 
L 189.97926 69.79751 
L 194.251007 72.621811 
L 198.632279 75.273029 
L 203.116067 77.746921 
L 207.695198 80.039532 
L 212.362346 82.147192 
L 217.110045 84.06653 
L 221.930699 85.794475 
L 226.816597 87.328263 
L 231.759922 88.665441 
L 236.752765 89.803869 
L 241.787139 90.741726 
L 246.854991 91.477511 
L 251.948213 92.010048 
L 257.058656 92.338484 
L 262.178146 92.462295 
L 267.298491 92.381281 
L 272.411501 92.095573 
L 277.508996 91.605627 
L 282.582821 90.912229 
L 287.624859 90.016485 
L 292.627044 88.919831 
L 297.581373 87.62402 
L 302.47992 86.131125 
L 307.314849 84.443534 
L 311.286897 82.891602 
L 307.298743 86.103943 
L 303.44224 89.473198 
L 299.723555 92.993978 
L 296.148638 96.660648 
L 292.723209 100.467344 
L 289.452747 104.407976 
L 286.342484 108.47624 
L 283.397397 112.665626 
L 280.622195 116.969434 
L 278.02132 121.380777 
L 275.598933 125.8926 
L 273.358907 130.497682 
L 271.304828 135.188659 
L 270.688156 136.704644 
L 275.204228 134.290187 
L 279.620134 131.697067 
L 283.928812 128.929432 
L 288.123366 125.99171 
L 292.197089 122.8886 
L 296.143461 119.625067 
L 299.95617 116.206332 
L 303.629116 112.637864 
L 307.156424 108.925371 
L 310.53245 105.074793 
L 313.751794 101.09229 
L 316.809304 96.984234 
L 318.24088 94.936254 
L 313.143822 95.430731 
L 308.070616 96.128641 
L 303.029376 97.028866 
L 298.028169 98.129968 
L 293.074994 99.430183 
L 288.177776 100.927433 
L 283.344349 102.619321 
L 278.582446 104.503142 
L 273.899684 106.575881 
L 269.303556 108.834223 
L 264.801414 111.274554 
L 260.40046 113.892972 
L 256.107735 116.685285 
L 251.930107 119.647029 
L 247.874259 122.773464 
L 246.038226 124.276428 
L 243.550116 119.800513 
L 240.885008 115.427677 
L 238.047164 111.164914 
L 235.041126 107.019044 
L 231.871701 102.996701 
L 228.543961 99.104318 
L 225.063229 95.348122 
L 221.435073 91.734123 
L 217.665298 88.268103 
L 213.759934 84.955606 
L 209.72523 81.801931 
L 205.56764 78.812124 
L 201.293815 75.990968 
L 196.910593 73.342976 
L 192.424985 70.872384 
L 187.844168 68.583145 
L 183.175469 66.47892 
L 178.426359 64.563077 
L 175.943489 63.648 
L 171.075509 65.497646 
L 171.892119 70.553103 
L 172.910241 75.571861 
L 174.128245 80.54589 
L 175.544183 85.467234 
L 177.15579 90.328018 
L 178.960487 95.120468 
L 180.955387 99.836915 
L 183.137299 104.469815 
L 185.502733 109.011756 
L 188.047903 113.455471 
L 190.768739 117.793853 
L 193.660888 122.019959 
L 196.719722 126.127031 
L 199.940349 130.108496 
L 203.317615 133.957986 
L 203.985335 134.683416 
L 203.616901 134.159902 
L 200.576149 130.039425 
L 197.373053 126.043843 
L 194.012739 122.179546 
L 190.500582 118.452716 
L 186.842201 114.869317 
L 183.043449 111.43508 
L 179.110402 108.1555 
L 175.049353 105.035823 
L 170.866799 102.08104 
L 166.569431 99.295878 
L 162.164123 96.684793 
L 157.657923 94.251962 
L 155.188225 93.015228 
L 155.719727 93.372044 
L 160.034607 96.129999 
L 164.456323 98.713199 
L 168.977804 101.117511 
L 173.591814 103.339089 
L 178.290974 105.374378 
L 183.067764 107.220124 
L 187.914544 108.873372 
L 192.823558 110.331479 
L 197.786955 111.59211 
L 202.796794 112.653251 
L 207.845059 113.513203 
L 212.923676 114.17059 
L 218.024518 114.62436 
L 223.139427 114.873789 
L 228.260218 114.918476 
L 233.3787 114.75835 
L 238.486685 114.393668 
L 243.576001 113.825013 
L 248.638505 113.053294 
L 253.6661 112.079746 
L 258.650741 110.905927 
L 263.584455 109.533714 
L 268.459349 107.965303 
L 273.267623 106.203202 
L 278.001587 104.250232 
L 282.653665 102.109515 
L 287.216417 99.784478 
L 291.682542 97.278839 
L 296.044896 94.596606 
L 300.2965 91.742072 
L 304.430552 88.719802 
L 308.440438 85.534631 
L 311.369913 83.03539 
L 306.552147 84.771371 
L 301.807655 86.698623 
L 297.144028 88.814063 
L 292.568726 91.114305 
L 288.089069 93.595671 
L 283.712224 96.254191 
L 279.445192 99.085611 
L 275.2948 102.085402 
L 271.267687 105.248765 
L 267.370296 108.570639 
L 263.608863 112.04571 
L 259.989404 115.668419 
L 256.51771 119.43297 
L 253.199334 123.33334 
L 251.370231 125.625559 
L 250.966348 120.520524 
L 250.358641 115.435724 
L 249.548082 110.379293 
L 248.535969 105.35932 
L 247.323919 100.383836 
L 245.913873 95.460801 
L 244.308086 90.598091 
L 242.509127 85.803485 
L 240.519874 81.084653 
L 238.343508 76.449145 
L 235.983513 71.904376 
L 233.443664 67.457617 
L 231.073908 63.648 
L 228.379818 68.003041 
L 225.862039 72.462334 
L 223.524598 77.018744 
L 221.371235 81.664982 
L 219.405394 86.393615 
L 217.63022 91.197078 
L 216.048554 96.067687 
L 214.662925 100.99765 
L 213.47555 105.97908 
L 212.488329 111.004008 
L 211.702842 116.064394 
L 211.120344 121.152144 
L 210.741768 126.259118 
L 210.590671 130.15448 
L 206.052493 127.781835 
L 201.423065 125.592567 
L 196.709792 123.590178 
L 191.920215 121.777871 
L 187.061997 120.158545 
L 182.142908 118.734792 
L 177.17082 117.508889 
L 172.153686 116.482797 
L 167.099532 115.658157 
L 162.016444 115.03629 
L 156.912554 114.618189 
L 151.796027 114.404523 
L 146.675048 114.395635 
L 142.768591 114.526665 
L 145.200342 119.033448 
L 147.810371 123.439381 
L 150.594502 127.737417 
L 153.548282 131.92068 
L 156.666985 135.982477 
L 159.945622 139.91631 
L 163.378948 143.715885 
L 166.96147 147.375125 
L 170.687457 150.888176 
L 174.550948 154.249416 
L 178.545763 157.45347 
L 182.66551 160.49521 
L 186.271152 162.956368 
L 181.20469 163.701667 
L 176.172086 164.648975 
L 171.181389 165.796776 
L 166.240584 167.143233 
L 161.357574 168.686193 
L 156.540173 170.423186 
L 151.796087 172.351435 
L 147.132904 174.467855 
L 142.558086 176.769059 
L 138.078951 179.251366 
L 133.702664 181.910805 
L 129.436227 184.743122 
L 125.286466 187.743785 
L 121.260018 190.907995 
L 118.784445 192.987576 
L 123.584538 191.203309 
L 128.30944 189.228517 
L 132.951592 187.066359 
L 137.503568 184.720293 
L 141.958084 182.194074 
L 146.308016 179.491743 
L 150.546404 176.617622 
L 154.666467 173.57631 
L 158.661615 170.372672 
L 162.525456 167.011833 
L 166.251808 163.49917 
L 169.834711 159.840303 
L 173.268432 156.041084 
L 176.547478 152.107593 
L 179.666603 148.04612 
L 182.620818 143.863165 
L 185.405397 139.565418 
L 188.015884 135.159756 
L 190.448103 130.653226 
L 192.698164 126.053038 
L 194.762466 121.366552 
L 196.637708 116.601264 
L 198.320889 111.764798 
L 199.809317 106.864891 
L 201.10061 101.909383 
L 202.192702 96.9062 
L 203.083848 91.863348 
L 203.77262 86.788892 
L 204.257917 81.690953 
L 204.538962 76.577684 
L 204.615307 71.457267 
L 204.486828 66.337892 
L 204.337083 63.648 
L 204.296374 64.28687 
L 204.085789 69.403524 
L 204.079985 74.524508 
L 204.278969 79.641627 
L 204.682425 84.746695 
L 205.289706 89.831546 
L 206.099841 94.888045 
L 207.111535 99.908103 
L 208.323167 104.883688 
L 209.732801 109.806841 
L 211.338181 114.669686 
L 213.136739 119.464442 
L 215.125597 124.183441 
L 216.528539 127.226778 
L 216.312488 126.624172 
L 214.47618 121.843746 
L 212.450175 117.140577 
L 210.237713 112.522188 
L 207.842335 107.995968 
L 205.267872 103.569158 
L 202.518444 99.24884 
L 199.598448 95.041926 
L 196.512556 90.955146 
L 193.265705 86.995037 
L 189.863089 83.167936 
L 186.310151 79.479964 
L 182.612576 75.937022 
L 178.776279 72.544777 
L 174.807397 69.308657 
L 170.668612 66.202411 
L 171.25286 66.464072 
L 175.972442 68.451545 
L 180.767726 70.248695 
L 185.631042 71.852648 
L 190.554608 73.260837 
L 195.530549 74.471009 
L 200.550903 75.481228 
L 205.60764 76.289879 
L 210.692669 76.895668 
L 215.797856 77.297625 
L 220.915033 77.495108 
L 226.036014 77.4878 
L 231.152607 77.275713 
L 236.256626 76.859187 
L 241.339905 76.238888 
L 246.394313 75.415807 
L 251.411764 74.391263 
L 256.38423 73.166894 
L 261.303758 71.744659 
L 266.162475 70.126832 
L 270.952611 68.316003 
L 275.666501 66.315068 
L 280.296605 64.127228 
L 281.250412 63.648 
L 285.862114 65.874365 
L 290.559159 67.914531 
L 295.334031 69.765233 
L 300.179092 71.42351 
L 305.590352 73.024897 
L 304.383456 78.001633 
L 303.376542 83.022652 
L 302.571221 88.07992 
L 301.968781 93.165347 
L 301.570185 98.270797 
L 301.376072 103.388103 
L 301.386751 108.509079 
L 301.602207 113.625531 
L 302.022094 118.729274 
L 302.64574 123.812144 
L 303.472148 128.866009 
L 304.499995 133.882784 
L 305.727638 138.854443 
L 307.153112 143.773033 
L 308.774137 148.630685 
L 310.58812 153.419627 
L 312.592158 158.132199 
L 314.783046 162.760861 
L 317.157279 167.298208 
L 319.711058 171.736982 
L 322.440298 176.070082 
L 325.340632 180.290575 
L 328.407421 184.391709 
L 331.635759 188.366925 
L 335.020481 192.209861 
L 338.556172 195.914371 
L 342.237175 199.474528 
L 346.057602 202.884636 
L 347.242278 203.88785 
L 347.242278 203.88785 
" style="fill:none;stroke:#1f77b4;stroke-linecap:square;stroke-width:1.5;"/>
   </g>
   <g id="patch_4">
    <path d="M 82.520165 307.584 
L 82.520165 41.472 
" style="fill:none;stroke:#000000;stroke-linecap:square;stroke-linejoin:miter;stroke-width:0.8;"/>
   </g>
   <g id="patch_5">
    <path d="M 389.799835 307.584 
L 389.799835 41.472 
" style="fill:none;stroke:#000000;stroke-linecap:square;stroke-linejoin:miter;stroke-width:0.8;"/>
   </g>
   <g id="patch_6">
    <path d="M 82.520165 307.584 
L 389.799835 307.584 
" style="fill:none;stroke:#000000;stroke-linecap:square;stroke-linejoin:miter;stroke-width:0.8;"/>
   </g>
   <g id="patch_7">
    <path d="M 82.520165 41.472 
L 389.799835 41.472 
" style="fill:none;stroke:#000000;stroke-linecap:square;stroke-linejoin:miter;stroke-width:0.8;"/>
   </g>
  </g>
 </g>
 <defs>
  <clipPath id="p4184511ba2">
   <rect height="266.112" width="307.27967" x="82.520165" y="41.472"/>
  </clipPath>
 </defs>
</svg>
