<?xml version="1.0" encoding="utf-8" standalone="no"?>
<!DOCTYPE svg PUBLIC "-//W3C//DTD SVG 1.1//EN"
  "http://www.w3.org/Graphics/SVG/1.1/DTD/svg11.dtd">
<!-- Created with matplotlib (https://matplotlib.org/) -->
<svg height="345.6pt" version="1.1" viewBox="0 0 460.8 345.6" width="460.8pt" xmlns="http://www.w3.org/2000/svg" xmlns:xlink="http://www.w3.org/1999/xlink">
 <defs>
  <style type="text/css">
*{stroke-linecap:butt;stroke-linejoin:round;}
  </style>
 </defs>
 <g id="figure_1">
  <g id="patch_1">
   <path d="M 0 345.6 
L 460.8 345.6 
L 460.8 0 
L 0 0 
z
" style="fill:#ffffff;"/>
  </g>
  <g id="axes_1">
   <g id="patch_2">
    <path d="M 82.520165 307.584 
L 389.799835 307.584 
L 389.799835 41.472 
L 82.520165 41.472 
z
" style="fill:#ffffff;"/>
   </g>
   <g id="PathCollection_1">
    <defs>
     <path d="M 0 2.738613 
C 0.726289 2.738613 1.422928 2.450055 1.936492 1.936492 
C 2.450055 1.422928 2.738613 0.726289 2.738613 0 
C 2.738613 -0.726289 2.450055 -1.422928 1.936492 -1.936492 
C 1.422928 -2.450055 0.726289 -2.738613 0 -2.738613 
C -0.726289 -2.738613 -1.422928 -2.450055 -1.936492 -1.936492 
C -2.450055 -1.422928 -2.738613 -0.726289 -2.738613 0 
C -2.738613 0.726289 -2.450055 1.422928 -1.936492 1.936492 
C -1.422928 2.450055 -0.726289 2.738613 0 2.738613 
z
" id="m35a7f10774" style="stroke:#000000;"/>
    </defs>
    <g clip-path="url(#pc5595fb7af)">
     <use style="stroke:#000000;" x="333.064274" xlink:href="#m35a7f10774" y="120.611126"/>
    </g>
   </g>
   <g id="Quiver_1">
    <path clip-path="url(#pc5595fb7af)" d="M 333.783448 120.341091 
L 339.994267 136.882085 
L 341.162579 135.62284 
L 341.705414 143.624683 
L 336.847537 137.243053 
L 338.55592 137.422156 
L 332.3451 120.881162 
L 333.783448 120.341091 
"/>
   </g>
   <g id="patch_3">
    <path clip-path="url(#pc5595fb7af)" d="M 236.16 225.741278 
C 249.74192 225.741278 262.769389 220.345124 272.373256 210.741256 
C 281.977124 201.137389 287.373278 188.10992 287.373278 174.528 
C 287.373278 160.94608 281.977124 147.918611 272.373256 138.314744 
C 262.769389 128.710876 249.74192 123.314722 236.16 123.314722 
C 222.57808 123.314722 209.550611 128.710876 199.946744 138.314744 
C 190.342876 147.918611 184.946722 160.94608 184.946722 174.528 
C 184.946722 188.10992 190.342876 201.137389 199.946744 210.741256 
C 209.550611 220.345124 222.57808 225.741278 236.16 225.741278 
z
" style="fill:#009900;fill-opacity:0.5;stroke:#009900;stroke-linejoin:miter;stroke-width:2;"/>
   </g>
   <g id="matplotlib.axis_1">
    <g id="xtick_1">
     <g id="line2d_1">
      <defs>
       <path d="M 0 0 
L 0 3.5 
" id="m7e23720304" style="stroke:#000000;stroke-width:0.8;"/>
      </defs>
      <g>
       <use style="stroke:#000000;stroke-width:0.8;" x="108.126804" xlink:href="#m7e23720304" y="307.584"/>
      </g>
     </g>
     <g id="text_1">
      <!-- −2 -->
      <defs>
       <path d="M 10.59375 35.5 
L 73.1875 35.5 
L 73.1875 27.203125 
L 10.59375 27.203125 
z
" id="DejaVuSans-8722"/>
       <path d="M 19.1875 8.296875 
L 53.609375 8.296875 
L 53.609375 0 
L 7.328125 0 
L 7.328125 8.296875 
Q 12.9375 14.109375 22.625 23.890625 
Q 32.328125 33.6875 34.8125 36.53125 
Q 39.546875 41.84375 41.421875 45.53125 
Q 43.3125 49.21875 43.3125 52.78125 
Q 43.3125 58.59375 39.234375 62.25 
Q 35.15625 65.921875 28.609375 65.921875 
Q 23.96875 65.921875 18.8125 64.3125 
Q 13.671875 62.703125 7.8125 59.421875 
L 7.8125 69.390625 
Q 13.765625 71.78125 18.9375 73 
Q 24.125 74.21875 28.421875 74.21875 
Q 39.75 74.21875 46.484375 68.546875 
Q 53.21875 62.890625 53.21875 53.421875 
Q 53.21875 48.921875 51.53125 44.890625 
Q 49.859375 40.875 45.40625 35.40625 
Q 44.1875 33.984375 37.640625 27.21875 
Q 31.109375 20.453125 19.1875 8.296875 
z
" id="DejaVuSans-50"/>
      </defs>
      <g transform="translate(100.755711 322.182437)scale(0.1 -0.1)">
       <use xlink:href="#DejaVuSans-8722"/>
       <use x="83.789062" xlink:href="#DejaVuSans-50"/>
      </g>
     </g>
    </g>
    <g id="xtick_2">
     <g id="line2d_2">
      <g>
       <use style="stroke:#000000;stroke-width:0.8;" x="172.143402" xlink:href="#m7e23720304" y="307.584"/>
      </g>
     </g>
     <g id="text_2">
      <!-- −1 -->
      <defs>
       <path d="M 12.40625 8.296875 
L 28.515625 8.296875 
L 28.515625 63.921875 
L 10.984375 60.40625 
L 10.984375 69.390625 
L 28.421875 72.90625 
L 38.28125 72.90625 
L 38.28125 8.296875 
L 54.390625 8.296875 
L 54.390625 0 
L 12.40625 0 
z
" id="DejaVuSans-49"/>
      </defs>
      <g transform="translate(164.772308 322.182437)scale(0.1 -0.1)">
       <use xlink:href="#DejaVuSans-8722"/>
       <use x="83.789062" xlink:href="#DejaVuSans-49"/>
      </g>
     </g>
    </g>
    <g id="xtick_3">
     <g id="line2d_3">
      <g>
       <use style="stroke:#000000;stroke-width:0.8;" x="236.16" xlink:href="#m7e23720304" y="307.584"/>
      </g>
     </g>
     <g id="text_3">
      <!-- 0 -->
      <defs>
       <path d="M 31.78125 66.40625 
Q 24.171875 66.40625 20.328125 58.90625 
Q 16.5 51.421875 16.5 36.375 
Q 16.5 21.390625 20.328125 13.890625 
Q 24.171875 6.390625 31.78125 6.390625 
Q 39.453125 6.390625 43.28125 13.890625 
Q 47.125 21.390625 47.125 36.375 
Q 47.125 51.421875 43.28125 58.90625 
Q 39.453125 66.40625 31.78125 66.40625 
z
M 31.78125 74.21875 
Q 44.046875 74.21875 50.515625 64.515625 
Q 56.984375 54.828125 56.984375 36.375 
Q 56.984375 17.96875 50.515625 8.265625 
Q 44.046875 -1.421875 31.78125 -1.421875 
Q 19.53125 -1.421875 13.0625 8.265625 
Q 6.59375 17.96875 6.59375 36.375 
Q 6.59375 54.828125 13.0625 64.515625 
Q 19.53125 74.21875 31.78125 74.21875 
z
" id="DejaVuSans-48"/>
      </defs>
      <g transform="translate(232.97875 322.182437)scale(0.1 -0.1)">
       <use xlink:href="#DejaVuSans-48"/>
      </g>
     </g>
    </g>
    <g id="xtick_4">
     <g id="line2d_4">
      <g>
       <use style="stroke:#000000;stroke-width:0.8;" x="300.176598" xlink:href="#m7e23720304" y="307.584"/>
      </g>
     </g>
     <g id="text_4">
      <!-- 1 -->
      <g transform="translate(296.995348 322.182437)scale(0.1 -0.1)">
       <use xlink:href="#DejaVuSans-49"/>
      </g>
     </g>
    </g>
    <g id="xtick_5">
     <g id="line2d_5">
      <g>
       <use style="stroke:#000000;stroke-width:0.8;" x="364.193196" xlink:href="#m7e23720304" y="307.584"/>
      </g>
     </g>
     <g id="text_5">
      <!-- 2 -->
      <g transform="translate(361.011946 322.182437)scale(0.1 -0.1)">
       <use xlink:href="#DejaVuSans-50"/>
      </g>
     </g>
    </g>
   </g>
   <g id="matplotlib.axis_2">
    <g id="ytick_1">
     <g id="line2d_6">
      <defs>
       <path d="M 0 0 
L -3.5 0 
" id="mb8dca57ca8" style="stroke:#000000;stroke-width:0.8;"/>
      </defs>
      <g>
       <use style="stroke:#000000;stroke-width:0.8;" x="82.520165" xlink:href="#mb8dca57ca8" y="302.561196"/>
      </g>
     </g>
     <g id="text_6">
      <!-- −2.0 -->
      <defs>
       <path d="M 10.6875 12.40625 
L 21 12.40625 
L 21 0 
L 10.6875 0 
z
" id="DejaVuSans-46"/>
      </defs>
      <g transform="translate(51.237353 306.360414)scale(0.1 -0.1)">
       <use xlink:href="#DejaVuSans-8722"/>
       <use x="83.789062" xlink:href="#DejaVuSans-50"/>
       <use x="147.412109" xlink:href="#DejaVuSans-46"/>
       <use x="179.199219" xlink:href="#DejaVuSans-48"/>
      </g>
     </g>
    </g>
    <g id="ytick_2">
     <g id="line2d_7">
      <g>
       <use style="stroke:#000000;stroke-width:0.8;" x="82.520165" xlink:href="#mb8dca57ca8" y="270.552897"/>
      </g>
     </g>
     <g id="text_7">
      <!-- −1.5 -->
      <defs>
       <path d="M 10.796875 72.90625 
L 49.515625 72.90625 
L 49.515625 64.59375 
L 19.828125 64.59375 
L 19.828125 46.734375 
Q 21.96875 47.46875 24.109375 47.828125 
Q 26.265625 48.1875 28.421875 48.1875 
Q 40.625 48.1875 47.75 41.5 
Q 54.890625 34.8125 54.890625 23.390625 
Q 54.890625 11.625 47.5625 5.09375 
Q 40.234375 -1.421875 26.90625 -1.421875 
Q 22.3125 -1.421875 17.546875 -0.640625 
Q 12.796875 0.140625 7.71875 1.703125 
L 7.71875 11.625 
Q 12.109375 9.234375 16.796875 8.0625 
Q 21.484375 6.890625 26.703125 6.890625 
Q 35.15625 6.890625 40.078125 11.328125 
Q 45.015625 15.765625 45.015625 23.390625 
Q 45.015625 31 40.078125 35.4375 
Q 35.15625 39.890625 26.703125 39.890625 
Q 22.75 39.890625 18.8125 39.015625 
Q 14.890625 38.140625 10.796875 36.28125 
z
" id="DejaVuSans-53"/>
      </defs>
      <g transform="translate(51.237353 274.352116)scale(0.1 -0.1)">
       <use xlink:href="#DejaVuSans-8722"/>
       <use x="83.789062" xlink:href="#DejaVuSans-49"/>
       <use x="147.412109" xlink:href="#DejaVuSans-46"/>
       <use x="179.199219" xlink:href="#DejaVuSans-53"/>
      </g>
     </g>
    </g>
    <g id="ytick_3">
     <g id="line2d_8">
      <g>
       <use style="stroke:#000000;stroke-width:0.8;" x="82.520165" xlink:href="#mb8dca57ca8" y="238.544598"/>
      </g>
     </g>
     <g id="text_8">
      <!-- −1.0 -->
      <g transform="translate(51.237353 242.343817)scale(0.1 -0.1)">
       <use xlink:href="#DejaVuSans-8722"/>
       <use x="83.789062" xlink:href="#DejaVuSans-49"/>
       <use x="147.412109" xlink:href="#DejaVuSans-46"/>
       <use x="179.199219" xlink:href="#DejaVuSans-48"/>
      </g>
     </g>
    </g>
    <g id="ytick_4">
     <g id="line2d_9">
      <g>
       <use style="stroke:#000000;stroke-width:0.8;" x="82.520165" xlink:href="#mb8dca57ca8" y="206.536299"/>
      </g>
     </g>
     <g id="text_9">
      <!-- −0.5 -->
      <g transform="translate(51.237353 210.335518)scale(0.1 -0.1)">
       <use xlink:href="#DejaVuSans-8722"/>
       <use x="83.789062" xlink:href="#DejaVuSans-48"/>
       <use x="147.412109" xlink:href="#DejaVuSans-46"/>
       <use x="179.199219" xlink:href="#DejaVuSans-53"/>
      </g>
     </g>
    </g>
    <g id="ytick_5">
     <g id="line2d_10">
      <g>
       <use style="stroke:#000000;stroke-width:0.8;" x="82.520165" xlink:href="#mb8dca57ca8" y="174.528"/>
      </g>
     </g>
     <g id="text_10">
      <!-- 0.0 -->
      <g transform="translate(59.61704 178.327219)scale(0.1 -0.1)">
       <use xlink:href="#DejaVuSans-48"/>
       <use x="63.623047" xlink:href="#DejaVuSans-46"/>
       <use x="95.410156" xlink:href="#DejaVuSans-48"/>
      </g>
     </g>
    </g>
    <g id="ytick_6">
     <g id="line2d_11">
      <g>
       <use style="stroke:#000000;stroke-width:0.8;" x="82.520165" xlink:href="#mb8dca57ca8" y="142.519701"/>
      </g>
     </g>
     <g id="text_11">
      <!-- 0.5 -->
      <g transform="translate(59.61704 146.31892)scale(0.1 -0.1)">
       <use xlink:href="#DejaVuSans-48"/>
       <use x="63.623047" xlink:href="#DejaVuSans-46"/>
       <use x="95.410156" xlink:href="#DejaVuSans-53"/>
      </g>
     </g>
    </g>
    <g id="ytick_7">
     <g id="line2d_12">
      <g>
       <use style="stroke:#000000;stroke-width:0.8;" x="82.520165" xlink:href="#mb8dca57ca8" y="110.511402"/>
      </g>
     </g>
     <g id="text_12">
      <!-- 1.0 -->
      <g transform="translate(59.61704 114.310621)scale(0.1 -0.1)">
       <use xlink:href="#DejaVuSans-49"/>
       <use x="63.623047" xlink:href="#DejaVuSans-46"/>
       <use x="95.410156" xlink:href="#DejaVuSans-48"/>
      </g>
     </g>
    </g>
    <g id="ytick_8">
     <g id="line2d_13">
      <g>
       <use style="stroke:#000000;stroke-width:0.8;" x="82.520165" xlink:href="#mb8dca57ca8" y="78.503103"/>
      </g>
     </g>
     <g id="text_13">
      <!-- 1.5 -->
      <g transform="translate(59.61704 82.302322)scale(0.1 -0.1)">
       <use xlink:href="#DejaVuSans-49"/>
       <use x="63.623047" xlink:href="#DejaVuSans-46"/>
       <use x="95.410156" xlink:href="#DejaVuSans-53"/>
      </g>
     </g>
    </g>
    <g id="ytick_9">
     <g id="line2d_14">
      <g>
       <use style="stroke:#000000;stroke-width:0.8;" x="82.520165" xlink:href="#mb8dca57ca8" y="46.494804"/>
      </g>
     </g>
     <g id="text_14">
      <!-- 2.0 -->
      <g transform="translate(59.61704 50.294023)scale(0.1 -0.1)">
       <use xlink:href="#DejaVuSans-50"/>
       <use x="63.623047" xlink:href="#DejaVuSans-46"/>
       <use x="95.410156" xlink:href="#DejaVuSans-48"/>
      </g>
     </g>
    </g>
   </g>
   <g id="line2d_15">
    <path clip-path="url(#pc5595fb7af)" d="M 300.176598 63.648 
L 172.143402 63.648 
" style="fill:none;stroke:#009900;stroke-linecap:square;stroke-width:2;"/>
   </g>
   <g id="line2d_16">
    <path clip-path="url(#pc5595fb7af)" d="M 172.143402 63.648 
L 108.126804 174.528 
" style="fill:none;stroke:#009900;stroke-linecap:square;stroke-width:2;"/>
   </g>
   <g id="line2d_17">
    <path clip-path="url(#pc5595fb7af)" d="M 108.126804 174.528 
L 172.143402 285.408 
" style="fill:none;stroke:#009900;stroke-linecap:square;stroke-width:2;"/>
   </g>
   <g id="line2d_18">
    <path clip-path="url(#pc5595fb7af)" d="M 172.143402 285.408 
L 300.176598 285.408 
" style="fill:none;stroke:#009900;stroke-linecap:square;stroke-width:2;"/>
   </g>
   <g id="line2d_19">
    <path clip-path="url(#pc5595fb7af)" d="M 300.176598 285.408 
L 364.193196 174.528 
" style="fill:none;stroke:#009900;stroke-linecap:square;stroke-width:2;"/>
   </g>
   <g id="line2d_20">
    <path clip-path="url(#pc5595fb7af)" d="M 364.193196 174.528 
L 300.176598 63.648 
" style="fill:none;stroke:#009900;stroke-linecap:square;stroke-width:2;"/>
   </g>
   <g id="line2d_21">
    <path clip-path="url(#pc5595fb7af)" d="M 139.48996 180.729314 
L 143.25858 184.19659 
L 147.162841 187.510388 
L 151.196494 190.665406 
L 155.353089 193.656597 
L 159.625974 196.479176 
L 164.008314 199.128628 
L 168.493099 201.600713 
L 173.073154 203.891478 
L 177.741151 205.997257 
L 182.489623 207.914681 
L 187.310973 209.640684 
L 192.197488 211.172503 
L 197.141351 212.507688 
L 202.134653 213.644104 
L 203.409755 213.90085 
L 205.388626 218.624045 
L 207.554792 223.264329 
L 209.904786 227.814276 
L 212.434851 232.26661 
L 215.140937 236.614207 
L 218.018717 240.850112 
L 221.063585 244.967548 
L 224.270671 248.959928 
L 227.634845 252.820865 
L 231.150724 256.544183 
L 234.812684 260.123925 
L 238.614866 263.554364 
L 242.551188 266.830013 
L 246.615352 269.94563 
L 250.800856 272.896233 
L 255.101005 275.677099 
L 259.50892 278.283781 
L 264.017548 280.712108 
L 268.619677 282.958196 
L 273.307945 285.018451 
L 274.255506 285.408 
L 278.960109 283.385326 
L 283.580063 281.176135 
L 288.107978 278.783963 
L 292.53661 276.212636 
L 296.858874 273.466268 
L 301.067855 270.549252 
L 305.156819 267.466255 
L 309.119226 264.222209 
L 312.948736 260.822304 
L 316.12581 257.783154 
L 317.327088 252.805059 
L 318.328335 247.782907 
L 319.127948 242.724733 
L 319.724649 237.63863 
L 320.117482 232.532733 
L 320.30582 227.415211 
L 320.289361 222.294251 
L 320.068131 217.178045 
L 319.642484 212.074779 
L 319.013102 206.992616 
L 318.180991 201.939687 
L 317.147482 196.924075 
L 315.914229 191.953805 
L 314.483205 187.036827 
L 312.856698 182.181008 
L 311.037312 177.394116 
L 309.027956 172.683809 
L 306.831846 168.057623 
L 304.452494 163.522958 
L 301.893707 159.087069 
L 299.159579 154.757052 
L 296.254483 150.539835 
L 293.183067 146.442164 
L 289.950245 142.470595 
L 286.561188 138.631481 
L 283.021319 134.930963 
L 279.3363 131.374963 
L 275.512026 127.969169 
L 271.554616 124.719029 
L 267.470401 121.629744 
L 263.265914 118.706254 
L 258.947882 115.953237 
L 254.523212 113.375098 
L 249.998984 110.975961 
L 245.382435 108.759663 
L 240.68095 106.729752 
L 235.902051 104.889473 
L 231.053383 103.241771 
L 226.142703 101.789282 
L 221.177867 100.534329 
L 216.166818 99.478921 
L 211.117572 98.624746 
L 206.038206 97.97317 
L 200.936848 97.525236 
L 195.821658 97.28166 
L 190.700819 97.242832 
L 185.582523 97.408813 
L 180.474959 97.77934 
L 175.386297 98.353817 
L 170.324679 99.131328 
L 165.298201 100.110628 
L 160.314906 101.290149 
L 155.382765 102.668006 
L 150.509669 104.241993 
L 148.24028 105.049422 
L 149.219326 110.075949 
L 150.398596 115.059304 
L 151.776204 119.991514 
L 153.349945 124.864689 
L 155.117303 129.671034 
L 157.07545 134.402858 
L 159.221253 139.052593 
L 161.551279 143.612799 
L 164.061801 148.076181 
L 166.748803 152.435599 
L 169.607986 156.684078 
L 172.634775 160.814823 
L 175.824329 164.821223 
L 179.171545 168.696871 
L 182.671068 172.435566 
L 184.947058 174.713628 
L 181.381166 178.389076 
L 177.965106 182.204181 
L 174.704341 186.152841 
L 171.604089 190.228739 
L 168.669309 194.425353 
L 165.904697 198.73597 
L 163.314674 203.153694 
L 160.903386 207.671457 
L 158.674688 212.282033 
L 156.632147 216.978045 
L 154.77903 221.75198 
L 153.118302 226.596202 
L 151.652619 231.50296 
L 150.384327 236.464406 
L 149.315455 241.4726 
L 148.715216 244.829192 
L 153.543115 246.536791 
L 158.435438 248.04996 
L 163.384358 249.366278 
L 168.381958 250.483639 
L 173.420243 251.400255 
L 178.491153 252.114661 
L 183.586575 252.625713 
L 188.698358 252.932593 
L 193.818324 253.034811 
L 198.938282 252.932204 
L 204.050042 252.624935 
L 209.145425 252.113495 
L 214.216281 251.398704 
L 219.254496 250.481705 
L 224.252011 249.363964 
L 229.200831 248.04727 
L 234.093039 246.533729 
L 238.920808 244.825762 
L 243.676415 242.926103 
L 248.352251 240.837789 
L 252.940837 238.564163 
L 257.434833 236.10886 
L 261.827047 233.47581 
L 266.110454 230.669224 
L 270.278201 227.693592 
L 274.323622 224.553675 
L 278.240243 221.254496 
L 282.021799 217.801333 
L 285.66224 214.199711 
L 289.155744 210.45539 
L 292.49672 206.574361 
L 295.679823 202.562834 
L 298.699962 198.427225 
L 301.552306 194.174151 
L 304.23229 189.810415 
L 306.735627 185.343 
L 309.058313 180.779051 
L 311.196632 176.125869 
L 313.147163 171.3909 
L 314.906785 166.581719 
L 316.472684 161.706017 
L 317.842354 156.771597 
L 319.013605 151.786351 
L 319.984562 146.758256 
L 320.753672 141.695354 
L 321.319705 136.605746 
L 321.681755 131.497574 
L 321.839243 126.37901 
L 321.791917 121.258242 
L 321.539853 116.143463 
L 321.083454 111.042855 
L 320.42345 105.964578 
L 319.560897 100.916757 
L 318.497175 95.907465 
L 318.284982 95.012641 
L 314.503375 91.559534 
L 310.586705 88.260412 
L 306.541239 85.120555 
L 302.373448 82.144985 
L 298.089999 79.338462 
L 293.697746 76.705476 
L 289.203715 74.25024 
L 284.615095 71.976681 
L 279.939228 69.888436 
L 275.183593 67.988846 
L 270.355799 66.280951 
L 265.463569 64.767482 
L 261.309222 63.648 
L 256.368902 64.996235 
L 251.486448 66.540951 
L 246.669672 68.279678 
L 241.92628 70.209634 
L 237.263859 72.327731 
L 232.689869 74.630581 
L 228.211628 77.1145 
L 223.836298 79.775514 
L 219.570881 82.609366 
L 215.422199 85.611522 
L 211.39689 88.77718 
L 207.501394 92.101275 
L 203.741941 95.57849 
L 200.124548 99.203261 
L 196.655 102.96979 
L 193.338848 106.872051 
L 190.181398 110.903801 
L 187.1877 115.05859 
L 184.362545 119.329772 
L 181.710451 123.710514 
L 179.235661 128.193807 
L 176.942134 132.77248 
L 174.833541 137.439206 
L 172.913253 142.18652 
L 171.184343 147.006829 
L 169.649577 151.892419 
L 168.31141 156.835476 
L 167.171984 161.828092 
L 166.23312 166.862278 
L 165.49632 171.929983 
L 164.962764 177.023098 
L 164.633306 182.133475 
L 164.508471 187.25294 
L 164.58846 192.373302 
L 164.873145 197.486369 
L 165.362071 202.583962 
L 166.054455 207.657925 
L 166.949189 212.700142 
L 168.044843 217.702546 
L 169.339663 222.657134 
L 170.831578 227.55598 
L 172.518201 232.391247 
L 174.396834 237.155199 
L 176.464472 241.840215 
L 178.717806 246.4388 
L 181.153233 250.943598 
L 183.766855 255.347401 
L 186.554492 259.643164 
L 189.511683 263.824016 
L 192.633699 267.883267 
L 195.915544 271.814424 
L 199.351968 275.611197 
L 202.937475 279.267514 
L 206.666326 282.777523 
L 209.667987 285.408 
L 213.50443 282.015921 
L 217.202158 278.473138 
L 220.755255 274.785319 
L 224.158036 270.958365 
L 227.405058 266.998396 
L 230.491126 262.911749 
L 233.411303 258.704961 
L 236.160918 254.384762 
L 238.735572 249.958063 
L 241.131145 245.431947 
L 243.343806 240.813653 
L 245.370014 236.110571 
L 247.206529 231.330224 
L 248.850411 226.48026 
L 249.626536 223.939054 
L 253.433679 227.363987 
L 257.374737 230.633935 
L 261.443407 233.743666 
L 265.633178 236.688207 
L 269.937347 239.462847 
L 274.34903 242.063146 
L 278.861168 244.484945 
L 283.466544 246.72437 
L 288.157788 248.777837 
L 292.927397 250.642062 
L 297.767739 252.314062 
L 302.671072 253.791163 
L 307.629552 255.071001 
L 312.635244 256.15153 
L 316.653663 256.868886 
L 313.337769 252.966406 
L 309.86847 249.199648 
L 306.251316 245.574638 
L 302.492094 242.097175 
L 298.596817 238.772822 
L 294.571717 235.606898 
L 290.423234 232.604468 
L 286.158004 229.770334 
L 281.78285 227.109031 
L 277.304773 224.624816 
L 272.730935 222.321664 
L 268.068654 220.203259 
L 262.996053 218.147103 
L 262.566537 223.250045 
L 262.341427 228.366081 
L 262.321084 233.487027 
L 262.505541 238.60469 
L 262.894502 243.710884 
L 263.487345 248.797438 
L 264.283122 253.856217 
L 265.28056 258.879127 
L 266.478062 263.858131 
L 267.873714 268.785266 
L 269.465282 273.652649 
L 271.250221 278.452492 
L 273.225674 283.177118 
L 274.236929 285.408 
L 276.302402 280.722029 
L 278.178835 275.95721 
L 279.863225 271.121165 
L 281.352877 266.221631 
L 282.645409 261.266445 
L 283.738752 256.263536 
L 284.631158 251.220906 
L 285.321198 246.146623 
L 285.807769 241.048805 
L 286.090093 235.935607 
L 286.167717 230.815209 
L 286.040518 225.695802 
L 285.708699 220.585577 
L 285.172791 215.492709 
L 284.433652 210.425346 
L 283.492463 205.391593 
L 282.35073 200.399505 
L 281.709667 197.937991 
L 286.471765 196.054662 
L 291.15474 193.982407 
L 295.751102 191.72454 
L 300.253496 189.284673 
L 304.65472 186.666711 
L 308.947733 183.87484 
L 313.125668 180.913529 
L 317.181839 177.787513 
L 321.109758 174.501793 
L 324.903142 171.061628 
L 328.555922 167.472519 
L 332.062254 163.740208 
L 335.416528 159.870668 
L 338.613379 155.870087 
L 341.647692 151.744867 
L 344.514614 147.501606 
L 346.632761 144.112435 
L 341.515744 144.314019 
L 336.410881 144.720067 
L 331.326339 145.329931 
L 326.270252 146.142634 
L 321.250709 147.156877 
L 316.27574 148.371036 
L 311.353303 149.78317 
L 306.491275 151.39102 
L 301.697432 153.192012 
L 296.979444 155.183267 
L 292.34486 157.361598 
L 287.801092 159.723521 
L 285.549193 160.981508 
L 290.666885 160.797843 
L 295.773139 160.409672 
L 300.859785 159.817615 
L 305.918687 159.022621 
L 310.94175 158.02596 
L 315.92094 156.829227 
L 320.848291 155.434338 
L 325.71592 153.843522 
L 330.516039 152.059326 
L 335.24097 150.084604 
L 339.883154 147.922514 
L 344.435164 145.576516 
L 346.740299 144.298697 
L 344.545006 145.616827 
L 340.235685 148.38346 
L 336.040448 151.320207 
L 331.966004 154.42237 
L 328.018874 157.684986 
L 324.20537 161.102835 
L 320.531595 164.670449 
L 317.003424 168.382122 
L 313.626503 172.231915 
L 310.406234 176.21367 
L 307.347768 180.321015 
L 304.455999 184.547382 
L 301.735552 188.886007 
L 299.190781 193.329952 
L 296.825755 197.872105 
L 294.644259 202.5052 
L 292.649782 207.221827 
L 290.845515 212.014438 
L 289.234345 216.875367 
L 287.818849 221.796838 
L 286.601291 226.770976 
L 285.58362 231.789826 
L 284.767463 236.845356 
L 284.154127 241.929481 
L 283.744591 247.034065 
L 283.539513 252.150943 
L 283.539219 257.27193 
L 283.74371 262.388832 
L 284.152658 267.493463 
L 284.765411 272.577658 
L 285.580987 277.633282 
L 286.598082 282.652248 
L 287.246225 285.408 
L 288.374039 280.412748 
L 289.301194 275.376392 
L 290.026207 270.306988 
L 290.547918 265.212646 
L 290.865492 260.101516 
L 290.978421 254.981775 
L 290.886525 249.861613 
L 290.589951 244.749222 
L 290.089172 239.65278 
L 289.384991 234.58044 
L 288.478534 229.540317 
L 287.371251 224.540475 
L 286.064913 219.588911 
L 284.56161 214.693548 
L 282.863747 209.862216 
L 280.974041 205.102645 
L 279.521106 201.778952 
L 284.637502 201.562178 
L 289.741137 201.140977 
L 294.823846 200.516021 
L 299.877498 199.688312 
L 304.894008 198.659172 
L 309.865351 197.430248 
L 314.783574 196.003507 
L 319.640807 194.381231 
L 324.429282 192.566014 
L 329.141338 190.560762 
L 333.769435 188.368682 
L 338.306171 185.993281 
L 342.744287 183.438358 
L 347.076683 180.708002 
L 351.296429 177.806581 
L 355.396774 174.738735 
L 359.371157 171.509374 
L 361.425055 169.733439 
L 356.603481 171.458817 
L 351.854761 173.375627 
L 347.186491 175.480801 
L 342.60614 177.770972 
L 338.121035 180.242477 
L 333.738352 182.891361 
L 329.465101 185.713387 
L 325.308119 188.70404 
L 321.274057 191.858536 
L 317.369368 195.171828 
L 313.600298 198.638616 
L 309.972878 202.253353 
L 306.49291 206.010257 
L 303.165963 209.903317 
L 299.997357 213.926306 
L 296.992162 218.072787 
L 294.155186 222.336128 
L 291.490968 226.709506 
L 289.003769 231.185927 
L 286.697569 235.758229 
L 284.576056 240.419097 
L 282.642626 245.161074 
L 280.900371 249.976575 
L 279.352078 254.857895 
L 278.000224 259.797227 
L 276.846973 264.786667 
L 275.894168 269.818234 
L 275.143334 274.883878 
L 274.595672 279.975495 
L 274.237225 285.408 
L 274.173717 284.129249 
L 273.791925 279.022515 
L 273.206224 273.935133 
L 272.417551 268.875242 
L 271.427166 263.850937 
L 270.236656 258.870256 
L 268.847923 253.941166 
L 267.26319 249.071554 
L 265.484993 244.269209 
L 263.516175 239.541815 
L 261.359886 234.896934 
L 259.019577 230.341996 
L 256.498991 225.88429 
L 254.359035 222.398607 
L 255.275957 227.436836 
L 256.39362 232.434369 
L 257.710238 237.383209 
L 259.223703 242.27544 
L 260.931595 247.103235 
L 262.831181 251.858871 
L 264.919422 256.53474 
L 267.192978 261.123362 
L 269.648211 265.617395 
L 272.281194 270.00965 
L 275.087713 274.2931 
L 278.063281 278.460894 
L 281.203135 282.506362 
L 283.621342 285.408 
L 286.879165 281.456913 
L 289.976381 277.378708 
L 292.908035 273.17991 
L 295.669436 268.867235 
L 298.256168 264.447583 
L 300.664092 259.928025 
L 302.889356 255.315791 
L 304.928399 250.618259 
L 306.77796 245.842945 
L 308.435081 240.997488 
L 309.897109 236.08964 
L 311.161706 231.127252 
L 312.226849 226.118263 
L 313.090833 221.070686 
L 313.752278 215.992596 
L 314.210124 210.892118 
L 314.463638 205.77741 
L 314.512417 200.656656 
L 314.356381 195.538048 
L 313.99578 190.429773 
L 313.43119 185.340005 
L 312.663516 180.276885 
L 311.693986 175.248515 
L 310.524149 170.262937 
L 309.155879 165.328128 
L 307.591363 160.451983 
L 305.833105 155.642302 
L 303.883917 150.90678 
L 301.746918 146.252993 
L 299.425527 141.688385 
L 296.923457 137.220259 
L 294.24471 132.855764 
L 291.393574 128.601881 
L 288.374608 124.465415 
L 285.192642 120.452985 
L 281.852767 116.571009 
L 278.360326 112.825698 
L 274.720906 109.223043 
L 270.94033 105.768807 
L 267.024645 102.468517 
L 262.980115 99.327453 
L 258.813212 96.350639 
L 254.530601 93.542839 
L 250.139134 90.908542 
L 245.645836 88.451965 
L 241.057894 86.177037 
L 236.38265 84.087397 
L 231.627583 82.186389 
L 226.800298 80.477053 
L 221.90852 78.962125 
L 216.960074 77.644027 
L 211.962876 76.524868 
L 206.924921 75.60644 
L 201.854269 74.89021 
L 196.75903 74.377326 
L 191.647358 74.068607 
L 186.527429 73.964547 
L 181.407434 74.065313 
L 176.295564 74.370743 
L 171.199997 74.88035 
L 166.128885 75.593317 
L 165.153882 75.754203 
L 167.035286 80.517062 
L 169.105649 85.200874 
L 171.361658 89.798148 
L 173.799704 94.301528 
L 176.415888 98.70381 
L 179.206023 102.997951 
L 182.165646 107.177082 
L 185.290022 111.234516 
L 188.574154 115.163763 
L 192.012786 118.958537 
L 195.600418 122.612767 
L 199.331311 126.120607 
L 203.199496 129.476446 
L 206.935119 132.472011 
L 205.319408 127.612589 
L 203.510664 122.821666 
L 201.51178 118.106905 
L 199.325956 113.47585 
L 196.956687 108.935909 
L 194.407765 104.494344 
L 191.683265 100.158262 
L 188.787549 95.9346 
L 185.725247 91.830113 
L 182.501258 87.85137 
L 179.120742 84.004734 
L 175.589105 80.296359 
L 171.911997 76.732179 
L 168.095302 73.317894 
L 167.065764 72.442728 
L 171.91383 74.092198 
L 176.82398 75.546477 
L 181.788358 76.80324 
L 186.799023 77.860475 
L 191.847957 78.716492 
L 196.927084 79.36992 
L 202.028279 79.819715 
L 207.14338 80.065156 
L 212.264205 80.105852 
L 217.382561 79.941737 
L 222.49026 79.573073 
L 227.57913 79.000451 
L 232.641032 78.224787 
L 237.667866 77.24732 
L 242.651591 76.069616 
L 247.584234 74.693558 
L 252.457904 73.121348 
L 257.264803 71.3555 
L 261.997243 69.39884 
L 266.647651 67.254498 
L 271.208589 64.925905 
L 273.534401 63.648 
L 278.046097 66.070623 
L 282.651063 68.310889 
L 287.341932 70.365213 
L 292.1112 72.230309 
L 296.951237 73.903193 
L 301.854301 75.38119 
L 306.812546 76.661934 
L 307.826468 76.897963 
L 306.416426 81.820999 
L 305.204382 86.796484 
L 304.192274 91.816458 
L 303.38172 96.87289 
L 302.774018 101.957691 
L 302.370141 107.062726 
L 302.170733 112.179829 
L 302.176114 117.300812 
L 302.386276 122.417485 
L 302.800881 127.52166 
L 303.419268 132.605172 
L 304.240446 137.65989 
L 305.263103 142.677725 
L 306.485601 147.650652 
L 307.905985 152.570714 
L 309.521984 157.43004 
L 311.33101 162.220857 
L 313.330172 166.9355 
L 315.516269 171.566426 
L 317.885806 176.106228 
L 320.434991 180.547642 
L 323.159746 184.883563 
L 326.055712 189.107054 
L 329.118256 193.21136 
L 332.342479 197.189913 
L 335.723223 201.03635 
L 339.255079 204.744516 
L 342.932397 208.308479 
L 344.080384 209.364412 
L 339.172695 207.901848 
L 334.210445 206.636709 
L 329.201572 205.571019 
L 324.15409 204.706482 
L 319.076073 204.044483 
L 313.975644 203.58608 
L 308.860965 203.332006 
L 303.740216 203.282668 
L 298.62159 203.438145 
L 293.513276 203.798188 
L 288.423447 204.36222 
L 283.360243 205.129341 
L 278.331767 206.098322 
L 276.088556 206.598395 
L 276.135201 211.719169 
L 276.386584 216.833982 
L 276.842304 221.934651 
L 277.501632 227.013015 
L 278.363513 232.060952 
L 279.426569 237.070385 
L 280.689097 242.033299 
L 282.14908 246.941757 
L 283.804181 251.787904 
L 285.651752 256.563988 
L 287.688837 261.262369 
L 289.912178 265.87553 
L 292.318218 270.396092 
L 294.903108 274.816821 
L 297.662712 279.130646 
L 300.592616 283.330666 
L 301.030592 283.928839 
L 295.930934 283.461941 
L 290.816685 283.199348 
L 285.696025 283.141481 
L 280.577148 283.288431 
L 275.468241 283.639965 
L 270.377479 284.195519 
L 265.313005 284.954205 
L 262.80026 285.408 
L 257.751923 284.548468 
L 252.673252 283.891503 
L 247.572372 283.438157 
L 242.457443 283.189154 
L 237.336648 283.144892 
L 232.218179 283.305443 
L 227.110225 283.67055 
L 222.020956 284.239629 
L 216.958516 285.011769 
L 214.781057 285.408 
L 209.73272 284.548468 
L 204.654049 283.891503 
L 199.553169 283.438157 
L 194.43824 283.189154 
L 189.317445 283.144892 
L 184.198976 283.305443 
L 179.091021 283.67055 
L 174.001753 284.239629 
L 171.660174 284.571024 
L 174.773277 280.504934 
L 177.721291 276.317605 
L 180.499497 272.015737 
L 183.103453 267.606212 
L 185.528992 263.096083 
L 187.772233 258.492565 
L 189.829589 253.803025 
L 191.697767 249.034963 
L 193.373779 244.196008 
L 194.854945 239.293902 
L 196.138893 234.336485 
L 197.223571 229.33169 
L 198.107242 224.287522 
L 198.788494 219.212052 
L 199.266236 214.113399 
L 199.490513 210.279204 
L 194.373237 210.47411 
L 189.267848 210.873496 
L 184.182515 211.476724 
L 179.125371 212.282828 
L 174.104509 213.290519 
L 169.12796 214.498186 
L 164.203685 215.903895 
L 159.339562 217.505398 
L 154.543373 219.300133 
L 149.822791 221.285229 
L 145.185368 223.457511 
L 140.638522 225.813501 
L 138.44226 227.03591 
L 140.63919 225.720509 
L 144.951946 222.959234 
L 149.150831 220.027704 
L 153.229126 216.930607 
L 157.180309 213.6729 
L 160.998058 210.259794 
L 164.676265 206.696748 
L 168.209046 202.989463 
L 171.590749 199.14387 
L 174.815965 195.166122 
L 177.879533 191.06258 
L 180.776553 186.839811 
L 183.50239 182.50457 
L 185.198287 179.597876 
L 181.770565 175.793245 
L 178.19344 172.128728 
L 174.472634 168.61019 
L 170.614101 165.243259 
L 166.624014 162.033321 
L 162.508754 158.985512 
L 158.274906 156.104707 
L 153.929244 153.395516 
L 149.478719 150.862271 
L 144.930451 148.509027 
L 140.291716 146.339547 
L 135.569936 144.357302 
L 130.772664 142.565463 
L 127.259333 141.389488 
L 131.113807 144.761065 
L 135.100024 147.975808 
L 139.211609 151.028573 
L 143.441983 153.914477 
L 147.784378 156.628902 
L 152.231848 159.167507 
L 156.777277 161.52623 
L 161.413394 163.701297 
L 166.132783 165.68923 
L 170.927892 167.486847 
L 175.791052 169.091273 
L 180.714481 170.49994 
L 185.032645 171.562632 
L 179.953595 172.216664 
L 174.904763 173.073281 
L 169.894224 174.131112 
L 164.929996 175.388465 
L 160.020019 176.843329 
L 155.172148 178.493375 
L 150.39414 180.335965 
L 145.693637 182.36815 
L 141.07816 184.58668 
L 136.555093 186.988005 
L 132.13167 189.568283 
L 127.81497 192.323388 
L 123.611897 195.24891 
L 121.148905 197.08294 
L 125.834901 195.017523 
L 130.434553 192.766369 
L 134.940505 190.333078 
L 139.345546 187.721544 
L 143.642631 184.935944 
L 147.824883 181.980734 
L 151.885614 178.860643 
L 155.818326 175.580662 
L 159.616728 172.146038 
L 163.274744 168.562265 
L 166.78652 164.835078 
L 170.14644 160.970438 
L 173.349128 156.974529 
L 176.389461 152.853742 
L 179.262574 148.614671 
L 181.963871 144.264097 
L 184.489031 139.80898 
L 186.834014 135.256447 
L 188.995068 130.613781 
L 190.968737 125.88841 
L 192.751862 121.087892 
L 194.341592 116.219909 
L 195.735382 111.292248 
L 196.931004 106.312791 
L 197.926545 101.289505 
L 198.720411 96.230426 
L 199.311333 91.143648 
L 199.698365 86.037308 
L 199.880889 80.919575 
L 199.858612 75.798637 
L 199.631569 70.682686 
L 199.200125 65.579907 
L 198.982955 63.648 
L 198.474082 68.74364 
L 198.169387 73.855554 
L 198.069358 78.975563 
L 198.174154 84.095477 
L 198.483608 89.207105 
L 198.997226 94.30227 
L 199.714185 99.372819 
L 200.633339 104.410642 
L 201.753216 109.407679 
L 203.072026 114.355935 
L 204.587658 119.247495 
L 206.297688 124.074534 
L 208.199381 128.829328 
L 209.149507 131.016701 
L 205.803673 127.13986 
L 202.305484 123.399917 
L 198.660535 119.802856 
L 194.874657 116.354431 
L 190.953908 113.06016 
L 186.904559 109.925311 
L 182.733088 106.954901 
L 178.44617 104.153681 
L 174.050661 101.526133 
L 169.553595 99.076461 
L 164.962165 96.808582 
L 160.283717 94.726126 
L 155.334971 92.761056 
L 159.348903 95.941128 
L 163.486793 98.958141 
L 167.742021 101.80727 
L 172.107781 104.483955 
L 176.577087 106.983916 
L 181.14279 109.303153 
L 185.797585 111.437955 
L 190.534027 113.384907 
L 195.344537 115.140895 
L 200.22142 116.703109 
L 205.156874 118.06905 
L 210.143004 119.236533 
L 215.171832 120.20369 
L 220.235313 120.968974 
L 225.325347 121.53116 
L 230.433791 121.88935 
L 235.552473 122.04297 
L 240.673203 121.991775 
L 245.787791 121.735846 
L 250.888052 121.275592 
L 255.965829 120.611751 
L 261.012997 119.745384 
L 266.021483 118.677877 
L 270.983274 117.410937 
L 275.890432 115.946593 
L 280.735106 114.287186 
L 285.509547 112.435371 
L 290.206115 110.39411 
L 294.817299 108.16667 
L 299.335719 105.756613 
L 303.75415 103.167795 
L 308.06552 100.404358 
L 312.262934 97.470723 
L 316.339677 94.371582 
L 317.416735 93.508794 
L 312.673352 95.438772 
L 308.010941 97.556891 
L 303.436962 99.859762 
L 298.958732 102.343702 
L 294.583415 105.004736 
L 290.318011 107.838608 
L 286.169343 110.840784 
L 282.144049 114.00646 
L 278.248568 117.330574 
L 274.489132 120.807806 
L 270.871755 124.432594 
L 267.402225 128.199139 
L 264.354051 131.774107 
L 264.647279 131.205047 
L 266.88994 126.601248 
L 268.946704 121.911448 
L 270.814282 117.143151 
L 272.489684 112.303984 
L 273.970231 107.401691 
L 275.253554 102.444112 
L 276.3376 97.43918 
L 277.220636 92.394901 
L 277.901248 87.319345 
L 278.378347 82.220632 
L 278.65117 77.106918 
L 278.719282 71.986385 
L 278.582572 66.867223 
L 278.391469 63.648 
L 278.347085 64.286625 
L 278.107061 69.401983 
L 278.071789 74.522848 
L 278.241325 79.641027 
L 278.615398 84.748333 
L 279.19341 89.836594 
L 279.974435 94.897672 
L 280.957225 99.923468 
L 282.140207 104.905942 
L 283.521489 109.837125 
L 285.09886 114.709127 
L 286.869798 119.514153 
L 288.831469 124.244518 
L 290.980735 128.892653 
L 293.314158 133.451122 
L 295.828004 137.912633 
L 298.518253 142.270048 
L 301.380599 146.516396 
L 304.410465 150.644884 
L 307.603003 154.648908 
L 310.953105 158.522061 
L 314.455412 162.258148 
L 318.104322 165.851192 
L 321.893996 169.295444 
L 325.818372 172.585394 
L 329.871172 175.71578 
L 334.045912 178.681593 
L 338.335914 181.478088 
L 342.734314 184.100793 
L 347.234076 186.54551 
L 351.828001 188.808329 
L 355.097207 190.282714 
L 350.921995 187.317565 
L 346.631549 184.521752 
L 342.232731 181.899748 
L 337.73258 179.455746 
L 333.138295 177.193658 
L 328.457225 175.117102 
L 323.69686 173.229399 
L 318.864814 171.53357 
L 313.968818 170.032328 
L 309.016705 168.728074 
L 304.016397 167.622896 
L 298.975893 166.71856 
L 293.903257 166.016514 
L 288.806605 165.517881 
L 286.546426 165.362413 
L 291.180286 163.182541 
L 295.723268 160.819108 
L 300.168104 158.275895 
L 304.507684 155.55697 
L 308.735064 152.666683 
L 312.843482 149.609658 
L 316.826365 146.390785 
L 320.677342 143.015214 
L 324.390251 139.488345 
L 327.959154 135.815821 
L 331.37834 132.003516 
L 334.64234 128.057529 
L 336.204283 126.049781 
L 331.138995 126.803011 
L 326.107879 127.758196 
L 321.118985 128.913808 
L 316.180294 130.267998 
L 311.299706 131.818599 
L 306.48503 133.563132 
L 301.743968 135.498805 
L 297.084104 137.622522 
L 292.512894 139.930885 
L 288.03765 142.420201 
L 283.665532 145.086488 
L 279.767595 147.673251 
L 284.212222 145.129672 
L 288.551578 142.410391 
L 292.778721 139.519757 
L 296.886888 136.462395 
L 300.869507 133.243195 
L 304.720207 129.867308 
L 308.432827 126.340134 
L 312.001428 122.667317 
L 315.420301 118.854731 
L 318.683976 114.908477 
L 321.787233 110.834866 
L 324.871791 106.42133 
L 319.769446 106.857872 
L 314.688638 107.498105 
L 309.637497 108.341004 
L 304.624104 109.38522 
L 299.656478 110.629083 
L 294.742567 112.070604 
L 289.890232 113.707475 
L 285.107236 115.537078 
L 280.40123 117.556487 
L 275.779744 119.762471 
L 271.25017 122.1515 
L 266.819755 124.719753 
L 262.495586 127.463121 
L 259.965705 129.18389 
L 259.890667 124.063454 
L 259.610926 118.950114 
L 259.12693 113.85205 
L 258.439453 108.77742 
L 257.549594 103.73434 
L 256.458778 98.730879 
L 255.16875 93.775041 
L 253.681572 88.874755 
L 251.999625 84.037859 
L 250.125599 79.272093 
L 248.062493 74.58508 
L 245.813606 69.984318 
L 243.382537 65.477168 
L 242.328173 63.648 
L 239.823113 68.11445 
L 237.498667 72.677503 
L 235.358554 77.329859 
L 233.406197 82.064076 
L 231.644721 86.872579 
L 230.076942 91.747676 
L 228.705369 96.681568 
L 227.532196 101.666361 
L 226.5593 106.694082 
L 225.788238 111.756687 
L 225.220242 116.846076 
L 224.856222 121.954108 
L 224.748132 124.602364 
L 222.293559 120.10797 
L 219.661221 115.715329 
L 216.855331 111.431466 
L 213.880375 107.263236 
L 210.741115 103.217306 
L 207.442572 99.30015 
L 203.990023 95.518033 
L 200.388991 91.877007 
L 196.645237 88.382896 
L 192.764751 85.041291 
L 188.75374 81.857536 
L 184.618621 78.836726 
L 180.36601 75.983692 
L 176.00271 73.303 
L 171.5357 70.798938 
L 168.826991 69.392193 
L 169.3633 69.741742 
L 173.715313 72.44072 
L 178.171776 74.963504 
L 182.725558 77.30606 
L 187.369375 79.464639 
L 192.095798 81.435789 
L 196.897265 83.216355 
L 201.766095 84.80349 
L 206.694499 86.194654 
L 211.674592 87.387621 
L 216.698408 88.380484 
L 221.757909 89.171653 
L 226.845002 89.759863 
L 231.951548 90.144174 
L 237.069377 90.323969 
L 242.190302 90.298962 
L 247.306131 90.069193 
L 252.40868 89.635029 
L 257.489785 88.997165 
L 262.541318 88.156621 
L 267.555198 87.114742 
L 272.523403 85.873195 
L 277.437986 84.433965 
L 282.291083 82.799356 
L 287.074932 80.971982 
L 291.781878 78.954767 
L 296.404392 76.750938 
L 300.93508 74.36402 
L 305.007227 72.014895 
L 298.943298 75.593103 
L 294.661452 78.402071 
L 290.49536 81.380019 
L 286.451686 84.522185 
L 282.536901 87.823542 
L 278.757265 91.278807 
L 275.118827 94.882454 
L 271.627406 98.628716 
L 268.288589 102.511602 
L 265.107717 106.524899 
L 262.089878 110.662187 
L 259.2399 114.916846 
L 256.562343 119.282072 
L 254.06149 123.750879 
L 252.835996 126.105784 
L 253.721874 121.062003 
L 254.405346 115.986831 
L 254.885319 110.888388 
L 255.161024 105.774828 
L 255.232021 100.654334 
L 255.098196 95.535097 
L 254.759763 90.425306 
L 254.217264 85.333135 
L 253.471566 80.266733 
L 252.523863 75.234202 
L 251.37567 70.243596 
L 250.028825 65.302897 
L 249.529777 63.648 
L 248.116354 68.570066 
L 246.900892 73.544718 
L 245.885335 78.563995 
L 245.071308 83.619869 
L 244.460114 88.704251 
L 244.052729 93.809008 
L 243.849806 98.925972 
L 243.851669 104.046958 
L 244.058315 109.163774 
L 244.469415 114.268232 
L 245.084309 119.352168 
L 245.872339 124.244102 
L 248.508156 119.853548 
L 250.96629 115.361101 
L 253.242808 110.773948 
L 255.334067 106.099429 
L 257.236723 101.34502 
L 258.947731 96.518328 
L 260.464354 91.627075 
L 261.784166 86.679086 
L 262.905056 81.682276 
L 263.82523 76.64464 
L 264.543217 71.574236 
L 265.057866 66.479175 
L 265.255191 63.648 
L 265.294218 64.286975 
L 265.72133 69.390118 
L 266.352172 74.4721 
L 267.185734 79.52479 
L 268.220683 84.540105 
L 269.455363 89.510021 
L 270.887799 94.426588 
L 272.5157 99.28194 
L 274.336461 104.068309 
L 276.347169 108.778039 
L 278.544607 113.403595 
L 280.925261 117.937576 
L 283.485322 122.37273 
L 286.220693 126.701962 
L 289.127 130.918344 
L 292.199592 135.015133 
L 295.433555 138.985774 
L 298.823714 142.823915 
L 302.364646 146.523415 
L 306.050686 150.078357 
L 309.875937 153.483053 
L 313.83428 156.732056 
L 317.919382 159.820169 
L 322.124708 162.742451 
L 326.443531 165.494228 
L 330.86894 168.071096 
L 335.393858 170.468935 
L 340.011043 172.683906 
L 344.713111 174.712468 
L 349.492538 176.551375 
L 354.341679 178.197684 
L 359.252775 179.648763 
L 360.972262 180.106821 
L 357.309428 176.527973 
L 353.506408 173.098463 
L 349.569286 169.823777 
L 345.50436 166.709152 
L 341.318135 163.759573 
L 337.017306 160.979758 
L 332.608755 158.374153 
L 328.099533 155.946927 
L 323.496856 153.701964 
L 318.808085 151.642855 
L 314.040722 149.772893 
L 309.202395 148.095071 
L 304.300842 146.612073 
L 299.343906 145.32627 
L 294.339517 144.239721 
L 289.29568 143.354163 
L 284.220465 142.671012 
L 279.121991 142.191363 
L 275.703961 141.984567 
L 276.350351 136.904539 
L 276.793077 131.802726 
L 277.031431 126.68729 
L 277.065032 121.566414 
L 276.893825 116.44829 
L 276.518085 111.341107 
L 275.938412 106.253034 
L 275.155735 101.192213 
L 274.171304 96.166738 
L 272.986696 91.184649 
L 271.603805 86.253918 
L 270.024843 81.382431 
L 268.252337 76.577983 
L 266.289122 71.848259 
L 264.138339 67.200826 
L 262.338121 63.648 
L 260.043823 68.226285 
L 257.934442 72.892656 
L 256.013354 77.639647 
L 254.283632 82.459664 
L 252.748042 87.344995 
L 251.409042 92.287827 
L 250.268773 97.28025 
L 249.32906 102.314278 
L 248.591406 107.381858 
L 248.056992 112.474883 
L 247.726671 117.585205 
L 247.600974 122.704649 
L 247.606489 124.61029 
L 249.793076 119.979595 
L 251.792736 115.265164 
L 253.60227 110.474539 
L 255.218782 105.615383 
L 256.639687 100.695472 
L 257.862711 95.722674 
L 258.885898 90.704947 
L 259.707612 85.650316 
L 260.326536 80.566869 
L 260.741682 75.462738 
L 260.952385 70.346088 
L 260.958308 65.225105 
L 260.918865 63.648 
L 260.873421 65.567942 
L 260.893058 70.688891 
L 261.117463 75.804958 
L 261.546277 80.907959 
L 262.178814 85.989731 
L 263.014061 91.042142 
L 264.050682 96.057112 
L 265.28702 101.026616 
L 266.721096 105.942704 
L 268.350616 110.797513 
L 270.172973 115.583275 
L 272.185252 120.292334 
L 274.384233 124.917156 
L 276.766399 129.450344 
L 279.327939 133.884644 
L 282.064754 138.212963 
L 284.972467 142.428376 
L 288.046425 146.52414 
L 291.281712 150.493702 
L 294.67315 154.330711 
L 298.215316 158.029031 
L 301.902541 161.582743 
L 305.728928 164.986163 
L 309.688354 168.233846 
L 313.774486 171.320596 
L 317.980787 174.241476 
L 322.300527 176.991812 
L 326.726796 179.567204 
L 331.252512 181.963533 
L 335.870436 184.176965 
L 340.57318 186.203958 
L 345.35322 188.041271 
L 350.20291 189.685963 
L 354.674817 191.014316 
L 350.951228 187.498723 
L 347.090032 184.134847 
L 343.097405 180.928068 
L 338.979735 177.883516 
L 334.743609 175.006063 
L 330.395803 172.300311 
L 325.943275 169.77059 
L 321.393146 167.420946 
L 316.752696 165.255137 
L 312.029349 163.27663 
L 307.23066 161.488589 
L 302.364308 159.893874 
L 297.438076 158.495037 
L 292.459846 157.294316 
L 287.437583 156.293631 
L 283.785108 155.695874 
L 286.88393 151.618889 
L 289.817237 147.421246 
L 292.580336 143.109659 
L 295.168808 138.691026 
L 297.578512 134.172417 
L 299.805592 129.561059 
L 301.846485 124.864331 
L 303.697926 120.089745 
L 305.356955 115.244941 
L 306.820915 110.337669 
L 308.087466 105.375779 
L 309.154582 100.36721 
L 310.020554 95.319974 
L 310.683998 90.242145 
L 311.143852 85.141847 
L 311.281992 82.883107 
L 306.673836 80.649409 
L 301.980042 78.601776 
L 297.20812 76.743482 
L 292.365702 75.077501 
L 287.460536 73.606497 
L 282.50047 72.332824 
L 277.493438 71.25852 
L 272.44745 70.385303 
L 267.370579 69.714571 
L 262.270947 69.247395 
L 257.156711 68.984524 
L 252.036055 68.926378 
L 246.91717 69.073051 
L 241.808244 69.424306 
L 236.717451 69.979584 
L 231.652936 70.737994 
L 226.6228 71.698325 
L 221.635091 72.859039 
L 216.697787 74.21828 
L 211.818788 75.773873 
L 207.005899 77.52333 
L 202.266819 79.463851 
L 197.60913 81.592333 
L 193.040284 83.905371 
L 188.567588 86.399263 
L 184.1982 89.070021 
L 179.939108 91.913371 
L 175.797127 94.924765 
L 171.778883 98.099385 
L 167.890804 101.432153 
L 164.13911 104.917737 
L 160.529803 108.55056 
L 157.068657 112.324812 
L 153.76121 116.234453 
L 150.612752 120.273229 
L 147.628321 124.43468 
L 144.81269 128.712147 
L 142.170365 133.098788 
L 139.705572 137.587585 
L 137.422255 142.171357 
L 135.324066 146.842771 
L 133.414363 151.594353 
L 131.696199 156.418502 
L 130.172324 161.307501 
L 128.845176 166.253528 
L 127.716878 171.24867 
L 126.789235 176.284936 
L 126.063731 181.35427 
L 125.541527 186.448562 
L 125.223457 191.559661 
L 125.110031 196.679391 
L 125.201431 201.799561 
L 125.32115 204.30948 
L 129.657008 207.034336 
L 134.098362 209.583624 
L 138.638109 211.953266 
L 143.268984 214.139471 
L 147.983581 216.138742 
L 152.774355 217.94788 
L 157.633644 219.563991 
L 162.553673 220.98449 
L 167.526571 222.207103 
L 172.544383 223.229876 
L 177.599082 224.051172 
L 182.68258 224.669677 
L 187.786745 225.084401 
L 192.903413 225.294682 
L 198.024396 225.300182 
L 203.141503 225.100893 
L 208.246548 224.697133 
L 213.331363 224.08955 
L 218.387814 223.279114 
L 219.720073 223.030873 
L 223.202094 226.785874 
L 226.831489 230.398627 
L 230.602454 233.863354 
L 234.508954 237.174511 
L 238.54474 240.326801 
L 242.703356 243.315181 
L 246.978148 246.13487 
L 251.362279 248.781358 
L 255.848735 251.250411 
L 260.430337 253.538078 
L 265.099757 255.6407 
L 269.849524 257.554913 
L 274.67204 259.277655 
L 279.55959 260.806169 
L 284.504355 262.138012 
L 289.498424 263.271051 
L 294.533808 264.203474 
L 299.602451 264.93379 
L 304.696244 265.46083 
L 309.807039 265.783751 
L 311.471481 265.844689 
L 308.692142 261.543553 
L 305.743026 257.357 
L 302.628852 253.29173 
L 299.354602 249.354245 
L 295.925514 245.550845 
L 292.347072 241.887614 
L 288.625004 238.370413 
L 284.765261 235.004868 
L 280.774021 231.796364 
L 276.657667 228.750033 
L 272.422784 225.870749 
L 268.076149 223.163119 
L 263.624714 220.631473 
L 261.062975 219.278885 
L 260.752285 224.390438 
L 260.646251 229.510326 
L 260.745042 234.63036 
L 261.048501 239.742347 
L 261.556142 244.83811 
L 262.267154 249.909497 
L 263.180398 254.948394 
L 264.294414 259.946741 
L 265.607419 264.896541 
L 267.117313 269.789875 
L 268.821681 274.618916 
L 270.717795 279.375937 
L 272.802623 284.053329 
L 273.448926 285.408 
L 275.588443 280.75537 
L 277.540194 276.020903 
L 279.301054 271.212175 
L 280.868209 266.336877 
L 282.23915 261.402809 
L 283.411684 256.417865 
L 284.383936 251.39002 
L 285.15435 246.327317 
L 285.721694 241.237855 
L 286.085059 236.129776 
L 286.243866 231.011253 
L 286.197858 225.890473 
L 285.947112 220.775629 
L 285.492026 215.674904 
L 284.83333 210.596457 
L 283.972077 205.548413 
L 282.909645 200.538849 
L 282.083131 197.196611 
L 286.763509 195.118495 
L 291.35704 192.854877 
L 295.856377 190.409377 
L 300.254321 187.785907 
L 304.543836 184.988665 
L 308.71806 182.022126 
L 312.770315 178.891035 
L 316.694119 175.600402 
L 320.483193 172.15549 
L 324.131477 168.561812 
L 327.633135 164.825116 
L 330.982563 160.951379 
L 334.174404 156.9468 
L 337.203551 152.817785 
L 340.065158 148.570938 
L 342.754649 144.213055 
L 344.708868 140.780155 
L 339.587888 140.772399 
L 334.470693 140.969435 
L 329.365471 141.370946 
L 324.280389 141.97629 
L 319.223582 142.784499 
L 314.203139 143.79428 
L 309.227093 145.004018 
L 304.303403 146.411776 
L 299.439948 148.015304 
L 294.644506 149.812035 
L 289.924751 151.799095 
L 285.288232 153.973307 
L 283.460106 154.893849 
L 284.068785 154.695555 
L 288.900985 153.000165 
L 293.661522 151.112895 
L 298.342781 149.036764 
L 302.937271 146.775093 
L 307.437644 144.3315 
L 311.8367 141.709895 
L 316.1274 138.914472 
L 320.302882 135.949702 
L 324.356464 132.82033 
L 328.281662 129.53136 
L 332.072197 126.088055 
L 334.73172 123.499228 
L 329.811265 124.91825 
L 324.951492 126.532902 
L 320.160174 128.340603 
L 315.444978 130.338458 
L 310.813447 132.523274 
L 306.272989 134.891553 
L 301.83087 137.439508 
L 297.494194 140.163063 
L 293.269901 143.057859 
L 289.164747 146.119267 
L 285.185301 149.342388 
L 282.14674 151.988709 
L 287.166472 150.975403 
L 292.141668 149.762172 
L 297.064368 148.350957 
L 301.926696 146.744014 
L 306.720875 144.943916 
L 311.439234 142.953542 
L 316.074225 140.776076 
L 320.618433 138.415002 
L 325.064589 135.874096 
L 329.405579 133.157424 
L 333.634459 130.269331 
L 337.143769 127.677019 
L 332.455267 129.73674 
L 327.852883 131.982304 
L 323.343978 134.410118 
L 318.935767 137.016298 
L 314.635301 139.796675 
L 310.44946 142.746801 
L 306.384942 145.861956 
L 302.448247 149.137156 
L 298.645675 152.567163 
L 294.983307 156.146488 
L 291.467005 159.869405 
L 288.102391 163.72996 
L 286.585101 165.577635 
L 291.025961 168.127785 
L 295.565248 170.498307 
L 300.195699 172.685411 
L 304.909908 174.685596 
L 309.700331 176.495664 
L 314.559306 178.112718 
L 319.47906 179.534171 
L 324.451721 180.757749 
L 329.469334 181.781495 
L 334.523873 182.603772 
L 339.607251 183.223263 
L 344.711336 183.638977 
L 349.827963 183.85025 
L 354.948945 183.856744 
L 358.884788 183.722432 
L 356.456183 179.213954 
L 353.849229 174.8062 
L 351.068098 170.506222 
L 348.117238 166.320899 
L 345.00137 162.256927 
L 341.725479 158.320807 
L 338.294805 154.518837 
L 334.714837 150.857098 
L 330.991303 147.341448 
L 327.130158 143.977512 
L 323.137581 140.770672 
L 319.019957 137.726057 
L 314.783875 134.848539 
L 310.436112 132.14272 
L 305.983622 129.61293 
L 301.433529 127.263216 
L 296.793112 125.097336 
L 292.069796 123.118756 
L 287.271135 121.330641 
L 282.404807 119.735851 
L 277.478597 118.336939 
L 272.500385 117.136141 
L 267.478137 116.135379 
L 262.419886 115.336254 
L 257.333725 114.740044 
L 252.22779 114.347704 
L 247.11025 114.15986 
L 241.989292 114.176813 
L 236.873108 114.398537 
L 231.769883 114.824676 
L 226.68778 115.454548 
L 221.634932 116.287147 
L 216.61942 117.32114 
L 211.649268 118.554873 
L 206.732428 119.986372 
L 201.876766 121.613347 
L 197.09005 123.433195 
L 192.379937 125.443005 
L 187.753962 127.639562 
L 183.219527 130.019351 
L 178.783885 132.578566 
L 174.454132 135.313113 
L 170.237196 138.218615 
L 166.139821 141.290427 
L 162.168564 144.523632 
L 158.329777 147.913059 
L 154.629601 151.453286 
L 151.073957 155.138648 
L 147.668532 158.96325 
L 144.418774 162.920973 
L 141.329882 167.005487 
L 138.406798 171.210256 
L 135.654198 175.528554 
L 133.076486 179.953472 
L 130.677786 184.477932 
L 128.461934 189.094695 
L 126.432475 193.796376 
L 124.592658 198.575452 
L 123.619537 201.3622 
L 128.658548 202.274817 
L 133.730023 202.985198 
L 138.82585 203.492205 
L 143.937875 203.795028 
L 149.05792 203.893182 
L 154.177796 203.786511 
L 159.28931 203.475184 
L 164.384286 202.959701 
L 169.454572 202.240885 
L 174.492058 201.319886 
L 179.488684 200.198179 
L 184.436458 198.877557 
L 189.327462 197.360134 
L 190.17683 197.074573 
L 185.961666 199.982647 
L 181.866166 203.056957 
L 177.896881 206.292583 
L 174.060161 209.684351 
L 170.362146 213.226833 
L 166.808749 216.914363 
L 163.405657 220.741041 
L 160.158313 224.700745 
L 157.071913 228.787142 
L 154.151394 232.993693 
L 151.401428 237.313668 
L 148.826415 241.740158 
L 147.905973 243.427542 
L 153.026607 243.487638 
L 158.145548 243.342915 
L 163.254607 242.993605 
L 168.345611 242.440266 
L 173.410415 241.683785 
L 178.440916 240.72537 
L 183.429067 239.566555 
L 188.366888 238.209195 
L 193.246479 236.65546 
L 198.060034 234.907837 
L 202.799853 232.96912 
L 207.458352 230.842412 
L 212.028079 228.531115 
L 216.501724 226.038926 
L 220.833881 223.394245 
L 222.898849 228.080439 
L 225.149564 232.680307 
L 227.582424 237.186491 
L 230.193537 241.591782 
L 232.978726 245.889133 
L 235.933535 250.071668 
L 239.053238 254.132697 
L 242.332843 258.065723 
L 245.767104 261.864454 
L 249.350526 265.522812 
L 253.077378 269.034945 
L 256.941696 272.395235 
L 260.937299 275.598305 
L 265.057795 278.639032 
L 269.296591 281.51255 
L 273.646907 284.214263 
L 275.700888 285.408 
L 280.100583 282.787469 
L 284.391966 279.993094 
L 288.568171 277.029344 
L 292.622517 273.900961 
L 296.548518 270.61295 
L 300.339893 267.17057 
L 303.990578 263.57933 
L 307.49473 259.844974 
L 310.846746 255.973476 
L 314.041261 251.97103 
L 317.073166 247.84404 
L 319.93761 243.599106 
L 322.630011 239.243021 
L 325.146062 234.782753 
L 327.481736 230.225437 
L 329.633299 225.578365 
L 331.597307 220.84897 
L 333.370618 216.044819 
L 334.950397 211.173597 
L 336.334115 206.243097 
L 337.519558 201.261207 
L 338.504831 196.235898 
L 339.288357 191.175207 
L 339.868883 186.087232 
L 340.245479 180.980112 
L 340.417544 175.862017 
L 340.384802 170.741135 
L 340.147306 165.625659 
L 339.705435 160.523772 
L 339.059896 155.443636 
L 338.211723 150.393378 
L 337.162271 145.381078 
L 335.913221 140.414754 
L 334.46657 135.502351 
L 332.824632 130.651728 
L 330.990034 125.870645 
L 328.965711 121.166751 
L 326.754902 116.547571 
L 324.361144 112.020494 
L 321.788265 107.592764 
L 319.040383 103.271462 
L 316.121893 99.063504 
L 313.037463 94.97562 
L 309.792029 91.01435 
L 306.390783 87.186031 
L 302.839165 83.496788 
L 299.142858 79.952523 
L 295.307774 76.558906 
L 291.34005 73.321366 
L 287.246033 70.245082 
L 283.032271 67.334976 
L 278.705507 64.595703 
L 277.114305 63.648 
L 272.74837 66.3244 
L 268.492955 69.17325 
L 264.354868 72.189992 
L 260.340728 75.3698 
L 256.456957 78.707588 
L 252.709769 82.198015 
L 249.105158 85.835498 
L 245.648891 89.614217 
L 242.346497 93.528128 
L 239.203259 97.570968 
L 236.224206 101.736271 
L 233.414104 106.017372 
L 230.777447 110.407423 
L 228.318455 114.8994 
L 226.041062 119.486118 
L 223.948909 124.160238 
L 223.652489 124.865519 
L 219.614729 121.715758 
L 215.454242 118.729983 
L 211.177683 115.912973 
L 206.791895 113.269232 
L 202.303894 110.80299 
L 197.720859 108.518194 
L 193.050123 106.418497 
L 188.299158 104.50726 
L 183.475563 102.78754 
L 178.587057 101.262087 
L 173.641458 99.933343 
L 168.646681 98.803433 
L 163.610714 97.874164 
L 158.541614 97.147024 
L 153.120536 96.59657 
L 156.110622 100.75396 
L 159.264567 104.788453 
L 162.577326 108.693594 
L 166.043599 112.463137 
L 169.657841 116.09105 
L 173.41427 119.571531 
L 177.306876 122.89901 
L 181.329433 126.068165 
L 185.475504 129.073926 
L 189.738457 131.911484 
L 194.111472 134.576299 
L 198.587553 137.064109 
L 200.306587 137.958441 
L 197.976526 133.398253 
L 195.46597 128.93489 
L 192.778935 124.575492 
L 189.91972 120.327035 
L 186.8929 116.196313 
L 183.703315 112.189937 
L 180.35607 108.314314 
L 176.856518 104.575646 
L 173.210259 100.979913 
L 169.423126 97.532867 
L 165.501176 94.240024 
L 161.450686 91.106651 
L 157.79836 88.494342 
L 158.377182 88.767796 
L 163.055496 90.850553 
L 167.813356 92.744561 
L 172.643151 94.446791 
L 177.537153 95.954519 
L 182.487534 97.265333 
L 187.486373 98.377136 
L 192.525674 99.288149 
L 197.597376 99.996915 
L 202.693363 100.502301 
L 207.805484 100.803497 
L 212.925561 100.900022 
L 218.045402 100.791721 
L 223.156817 100.478768 
L 228.251628 99.961663 
L 233.321686 99.241234 
L 238.358878 98.318632 
L 243.355147 97.195335 
L 248.3025 95.873138 
L 253.193022 94.354158 
L 258.018888 92.640825 
L 262.77238 90.735878 
L 267.445891 88.642366 
L 272.031946 86.363639 
L 276.523208 83.90334 
L 280.912492 81.265408 
L 285.192776 78.45406 
L 289.357212 75.473796 
L 293.399138 72.329383 
L 297.312088 69.02585 
L 301.215926 65.448169 
L 296.330806 66.984433 
L 291.511028 68.714821 
L 286.764303 70.636565 
L 282.098223 72.746589 
L 277.520255 75.04152 
L 273.037721 77.517684 
L 268.657792 80.171121 
L 264.387477 82.997587 
L 260.233605 85.992558 
L 256.202824 89.151245 
L 252.30158 92.468593 
L 248.536115 95.939296 
L 244.912453 99.557801 
L 241.436392 103.318319 
L 238.113491 107.214835 
L 234.949068 111.241114 
L 231.948184 115.390716 
L 229.11564 119.657002 
L 226.319306 124.269064 
L 222.212115 121.210391 
L 217.985896 118.318407 
L 213.647408 115.597741 
L 209.203593 113.052744 
L 204.661559 110.687488 
L 200.028574 108.505757 
L 195.312049 106.511041 
L 190.519529 104.706532 
L 185.658681 103.095115 
L 180.737283 101.67937 
L 175.763206 100.46156 
L 170.744408 99.443635 
L 165.688919 98.627222 
L 160.604826 98.013628 
L 155.500262 97.603834 
L 152.620279 97.463042 
L 155.431778 101.743226 
L 158.41219 105.907556 
L 161.556747 109.94937 
L 164.860418 113.862203 
L 168.317918 117.639794 
L 171.923715 121.276101 
L 175.672042 124.765305 
L 179.556902 128.101825 
L 183.572079 131.280324 
L 187.711151 134.295716 
L 191.967496 137.143177 
L 196.334303 139.818152 
L 197.761072 140.641097 
L 194.615555 136.600029 
L 191.310956 132.687981 
L 187.852559 128.911211 
L 184.245898 125.27576 
L 180.496743 121.787446 
L 176.611092 118.451848 
L 172.59516 115.274303 
L 168.455372 112.259894 
L 164.198352 109.413443 
L 159.830909 106.739505 
L 155.360031 104.242356 
L 150.79287 101.925993 
L 150.205956 101.644771 
L 150.73416 102.006451 
L 155.023538 104.803903 
L 159.421353 107.427589 
L 163.920569 109.87331 
L 168.51399 112.137155 
L 173.194265 114.2155 
L 177.953909 116.105022 
L 182.785306 117.802698 
L 187.680728 119.305811 
L 192.632342 120.611958 
L 197.632227 121.719047 
L 202.672385 122.62531 
L 207.744752 123.329294 
L 212.841214 123.829875 
L 217.953617 124.126252 
L 223.073782 124.21795 
L 226.940236 124.15146 
L 231.751224 122.396782 
L 236.488196 120.45112 
L 241.143573 118.317586 
L 245.709907 115.999593 
L 250.179894 113.50085 
L 254.546383 110.825354 
L 258.802387 107.977384 
L 262.941099 104.961498 
L 266.955896 101.78252 
L 270.840357 98.445536 
L 274.588268 94.955884 
L 278.193631 91.319147 
L 281.65068 87.541143 
L 284.953884 83.627916 
L 288.097958 79.585726 
L 291.077872 75.42104 
L 293.88886 71.14052 
L 296.526425 66.751015 
L 298.250744 63.648 
L 300.7656 68.108942 
L 303.456835 72.465748 
L 306.320142 76.711448 
L 309.350943 80.83925 
L 312.109421 84.316255 
L 314.005055 89.073468 
L 316.089411 93.75107 
L 318.359154 98.341579 
L 320.810652 102.83765 
L 323.439985 107.232091 
L 326.242945 111.517871 
L 329.215049 115.688135 
L 332.351541 119.736211 
L 333.064274 120.611126 
L 333.064274 120.611126 
" style="fill:none;stroke:#1f77b4;stroke-linecap:square;stroke-width:1.5;"/>
   </g>
   <g id="patch_4">
    <path d="M 82.520165 307.584 
L 82.520165 41.472 
" style="fill:none;stroke:#000000;stroke-linecap:square;stroke-linejoin:miter;stroke-width:0.8;"/>
   </g>
   <g id="patch_5">
    <path d="M 389.799835 307.584 
L 389.799835 41.472 
" style="fill:none;stroke:#000000;stroke-linecap:square;stroke-linejoin:miter;stroke-width:0.8;"/>
   </g>
   <g id="patch_6">
    <path d="M 82.520165 307.584 
L 389.799835 307.584 
" style="fill:none;stroke:#000000;stroke-linecap:square;stroke-linejoin:miter;stroke-width:0.8;"/>
   </g>
   <g id="patch_7">
    <path d="M 82.520165 41.472 
L 389.799835 41.472 
" style="fill:none;stroke:#000000;stroke-linecap:square;stroke-linejoin:miter;stroke-width:0.8;"/>
   </g>
  </g>
 </g>
 <defs>
  <clipPath id="pc5595fb7af">
   <rect height="266.112" width="307.27967" x="82.520165" y="41.472"/>
  </clipPath>
 </defs>
</svg>
