<?xml version="1.0" encoding="utf-8" standalone="no"?>
<!DOCTYPE svg PUBLIC "-//W3C//DTD SVG 1.1//EN"
  "http://www.w3.org/Graphics/SVG/1.1/DTD/svg11.dtd">
<!-- Created with matplotlib (http://matplotlib.org/) -->
<svg height="345.6pt" version="1.1" viewBox="0 0 460.8 345.6" width="460.8pt" xmlns="http://www.w3.org/2000/svg" xmlns:xlink="http://www.w3.org/1999/xlink">
 <defs>
  <style type="text/css">
*{stroke-linecap:butt;stroke-linejoin:round;}
  </style>
 </defs>
 <g id="figure_1">
  <g id="patch_1">
   <path d="M 0 345.6 
L 460.8 345.6 
L 460.8 0 
L 0 0 
z
" style="fill:#ffffff;"/>
  </g>
  <g id="axes_1">
   <g id="patch_2">
    <path d="M 82.520165 307.584 
L 389.799835 307.584 
L 389.799835 41.472 
L 82.520165 41.472 
z
" style="fill:#ffffff;"/>
   </g>
   <g id="PathCollection_1">
    <defs>
     <path d="M 0 2.738613 
C 0.726289 2.738613 1.422928 2.450055 1.936492 1.936492 
C 2.450055 1.422928 2.738613 0.726289 2.738613 0 
C 2.738613 -0.726289 2.450055 -1.422928 1.936492 -1.936492 
C 1.422928 -2.450055 0.726289 -2.738613 0 -2.738613 
C -0.726289 -2.738613 -1.422928 -2.450055 -1.936492 -1.936492 
C -2.450055 -1.422928 -2.738613 -0.726289 -2.738613 0 
C -2.738613 0.726289 -2.450055 1.422928 -1.936492 1.936492 
C -1.422928 2.450055 -0.726289 2.738613 0 2.738613 
z
" id="m57f1a8110f" style="stroke:#000000;"/>
    </defs>
    <g clip-path="url(#p45ba023aa1)">
     <use style="stroke:#000000;" x="164.314772" xlink:href="#m57f1a8110f" y="77.207585"/>
    </g>
   </g>
   <g id="Quiver_1">
    <path clip-path="url(#p45ba023aa1)" d="M 165.062279 77.030488 
L 169.135511 94.223147 
L 170.453428 93.121446 
L 169.981878 101.127807 
L 165.968386 94.184029 
L 167.640497 94.577341 
L 163.567265 77.384682 
L 165.062279 77.030488 
"/>
   </g>
   <g id="patch_3">
    <path clip-path="url(#p45ba023aa1)" d="M 236.16 225.741278 
C 249.74192 225.741278 262.769389 220.345124 272.373256 210.741256 
C 281.977124 201.137389 287.373278 188.10992 287.373278 174.528 
C 287.373278 160.94608 281.977124 147.918611 272.373256 138.314744 
C 262.769389 128.710876 249.74192 123.314722 236.16 123.314722 
C 222.57808 123.314722 209.550611 128.710876 199.946744 138.314744 
C 190.342876 147.918611 184.946722 160.94608 184.946722 174.528 
C 184.946722 188.10992 190.342876 201.137389 199.946744 210.741256 
C 209.550611 220.345124 222.57808 225.741278 236.16 225.741278 
z
" style="fill:#009900;fill-opacity:0.5;stroke:#009900;stroke-linejoin:miter;stroke-width:2;"/>
   </g>
   <g id="matplotlib.axis_1">
    <g id="xtick_1">
     <g id="line2d_1">
      <defs>
       <path d="M 0 0 
L 0 3.5 
" id="m7184b0fee7" style="stroke:#000000;stroke-width:0.8;"/>
      </defs>
      <g>
       <use style="stroke:#000000;stroke-width:0.8;" x="108.126804" xlink:href="#m7184b0fee7" y="307.584"/>
      </g>
     </g>
     <g id="text_1">
      <!-- −2 -->
      <defs>
       <path d="M 10.59375 35.5 
L 73.1875 35.5 
L 73.1875 27.203125 
L 10.59375 27.203125 
z
" id="DejaVuSans-2212"/>
       <path d="M 19.1875 8.296875 
L 53.609375 8.296875 
L 53.609375 0 
L 7.328125 0 
L 7.328125 8.296875 
Q 12.9375 14.109375 22.625 23.890625 
Q 32.328125 33.6875 34.8125 36.53125 
Q 39.546875 41.84375 41.421875 45.53125 
Q 43.3125 49.21875 43.3125 52.78125 
Q 43.3125 58.59375 39.234375 62.25 
Q 35.15625 65.921875 28.609375 65.921875 
Q 23.96875 65.921875 18.8125 64.3125 
Q 13.671875 62.703125 7.8125 59.421875 
L 7.8125 69.390625 
Q 13.765625 71.78125 18.9375 73 
Q 24.125 74.21875 28.421875 74.21875 
Q 39.75 74.21875 46.484375 68.546875 
Q 53.21875 62.890625 53.21875 53.421875 
Q 53.21875 48.921875 51.53125 44.890625 
Q 49.859375 40.875 45.40625 35.40625 
Q 44.1875 33.984375 37.640625 27.21875 
Q 31.109375 20.453125 19.1875 8.296875 
z
" id="DejaVuSans-32"/>
      </defs>
      <g transform="translate(100.755711 322.182437)scale(0.1 -0.1)">
       <use xlink:href="#DejaVuSans-2212"/>
       <use x="83.789062" xlink:href="#DejaVuSans-32"/>
      </g>
     </g>
    </g>
    <g id="xtick_2">
     <g id="line2d_2">
      <g>
       <use style="stroke:#000000;stroke-width:0.8;" x="172.143402" xlink:href="#m7184b0fee7" y="307.584"/>
      </g>
     </g>
     <g id="text_2">
      <!-- −1 -->
      <defs>
       <path d="M 12.40625 8.296875 
L 28.515625 8.296875 
L 28.515625 63.921875 
L 10.984375 60.40625 
L 10.984375 69.390625 
L 28.421875 72.90625 
L 38.28125 72.90625 
L 38.28125 8.296875 
L 54.390625 8.296875 
L 54.390625 0 
L 12.40625 0 
z
" id="DejaVuSans-31"/>
      </defs>
      <g transform="translate(164.772308 322.182437)scale(0.1 -0.1)">
       <use xlink:href="#DejaVuSans-2212"/>
       <use x="83.789062" xlink:href="#DejaVuSans-31"/>
      </g>
     </g>
    </g>
    <g id="xtick_3">
     <g id="line2d_3">
      <g>
       <use style="stroke:#000000;stroke-width:0.8;" x="236.16" xlink:href="#m7184b0fee7" y="307.584"/>
      </g>
     </g>
     <g id="text_3">
      <!-- 0 -->
      <defs>
       <path d="M 31.78125 66.40625 
Q 24.171875 66.40625 20.328125 58.90625 
Q 16.5 51.421875 16.5 36.375 
Q 16.5 21.390625 20.328125 13.890625 
Q 24.171875 6.390625 31.78125 6.390625 
Q 39.453125 6.390625 43.28125 13.890625 
Q 47.125 21.390625 47.125 36.375 
Q 47.125 51.421875 43.28125 58.90625 
Q 39.453125 66.40625 31.78125 66.40625 
z
M 31.78125 74.21875 
Q 44.046875 74.21875 50.515625 64.515625 
Q 56.984375 54.828125 56.984375 36.375 
Q 56.984375 17.96875 50.515625 8.265625 
Q 44.046875 -1.421875 31.78125 -1.421875 
Q 19.53125 -1.421875 13.0625 8.265625 
Q 6.59375 17.96875 6.59375 36.375 
Q 6.59375 54.828125 13.0625 64.515625 
Q 19.53125 74.21875 31.78125 74.21875 
z
" id="DejaVuSans-30"/>
      </defs>
      <g transform="translate(232.97875 322.182437)scale(0.1 -0.1)">
       <use xlink:href="#DejaVuSans-30"/>
      </g>
     </g>
    </g>
    <g id="xtick_4">
     <g id="line2d_4">
      <g>
       <use style="stroke:#000000;stroke-width:0.8;" x="300.176598" xlink:href="#m7184b0fee7" y="307.584"/>
      </g>
     </g>
     <g id="text_4">
      <!-- 1 -->
      <g transform="translate(296.995348 322.182437)scale(0.1 -0.1)">
       <use xlink:href="#DejaVuSans-31"/>
      </g>
     </g>
    </g>
    <g id="xtick_5">
     <g id="line2d_5">
      <g>
       <use style="stroke:#000000;stroke-width:0.8;" x="364.193196" xlink:href="#m7184b0fee7" y="307.584"/>
      </g>
     </g>
     <g id="text_5">
      <!-- 2 -->
      <g transform="translate(361.011946 322.182437)scale(0.1 -0.1)">
       <use xlink:href="#DejaVuSans-32"/>
      </g>
     </g>
    </g>
   </g>
   <g id="matplotlib.axis_2">
    <g id="ytick_1">
     <g id="line2d_6">
      <defs>
       <path d="M 0 0 
L -3.5 0 
" id="m34d5ad24fa" style="stroke:#000000;stroke-width:0.8;"/>
      </defs>
      <g>
       <use style="stroke:#000000;stroke-width:0.8;" x="82.520165" xlink:href="#m34d5ad24fa" y="302.561196"/>
      </g>
     </g>
     <g id="text_6">
      <!-- −2.0 -->
      <defs>
       <path d="M 10.6875 12.40625 
L 21 12.40625 
L 21 0 
L 10.6875 0 
z
" id="DejaVuSans-2e"/>
      </defs>
      <g transform="translate(51.237353 306.360414)scale(0.1 -0.1)">
       <use xlink:href="#DejaVuSans-2212"/>
       <use x="83.789062" xlink:href="#DejaVuSans-32"/>
       <use x="147.412109" xlink:href="#DejaVuSans-2e"/>
       <use x="179.199219" xlink:href="#DejaVuSans-30"/>
      </g>
     </g>
    </g>
    <g id="ytick_2">
     <g id="line2d_7">
      <g>
       <use style="stroke:#000000;stroke-width:0.8;" x="82.520165" xlink:href="#m34d5ad24fa" y="270.552897"/>
      </g>
     </g>
     <g id="text_7">
      <!-- −1.5 -->
      <defs>
       <path d="M 10.796875 72.90625 
L 49.515625 72.90625 
L 49.515625 64.59375 
L 19.828125 64.59375 
L 19.828125 46.734375 
Q 21.96875 47.46875 24.109375 47.828125 
Q 26.265625 48.1875 28.421875 48.1875 
Q 40.625 48.1875 47.75 41.5 
Q 54.890625 34.8125 54.890625 23.390625 
Q 54.890625 11.625 47.5625 5.09375 
Q 40.234375 -1.421875 26.90625 -1.421875 
Q 22.3125 -1.421875 17.546875 -0.640625 
Q 12.796875 0.140625 7.71875 1.703125 
L 7.71875 11.625 
Q 12.109375 9.234375 16.796875 8.0625 
Q 21.484375 6.890625 26.703125 6.890625 
Q 35.15625 6.890625 40.078125 11.328125 
Q 45.015625 15.765625 45.015625 23.390625 
Q 45.015625 31 40.078125 35.4375 
Q 35.15625 39.890625 26.703125 39.890625 
Q 22.75 39.890625 18.8125 39.015625 
Q 14.890625 38.140625 10.796875 36.28125 
z
" id="DejaVuSans-35"/>
      </defs>
      <g transform="translate(51.237353 274.352116)scale(0.1 -0.1)">
       <use xlink:href="#DejaVuSans-2212"/>
       <use x="83.789062" xlink:href="#DejaVuSans-31"/>
       <use x="147.412109" xlink:href="#DejaVuSans-2e"/>
       <use x="179.199219" xlink:href="#DejaVuSans-35"/>
      </g>
     </g>
    </g>
    <g id="ytick_3">
     <g id="line2d_8">
      <g>
       <use style="stroke:#000000;stroke-width:0.8;" x="82.520165" xlink:href="#m34d5ad24fa" y="238.544598"/>
      </g>
     </g>
     <g id="text_8">
      <!-- −1.0 -->
      <g transform="translate(51.237353 242.343817)scale(0.1 -0.1)">
       <use xlink:href="#DejaVuSans-2212"/>
       <use x="83.789062" xlink:href="#DejaVuSans-31"/>
       <use x="147.412109" xlink:href="#DejaVuSans-2e"/>
       <use x="179.199219" xlink:href="#DejaVuSans-30"/>
      </g>
     </g>
    </g>
    <g id="ytick_4">
     <g id="line2d_9">
      <g>
       <use style="stroke:#000000;stroke-width:0.8;" x="82.520165" xlink:href="#m34d5ad24fa" y="206.536299"/>
      </g>
     </g>
     <g id="text_9">
      <!-- −0.5 -->
      <g transform="translate(51.237353 210.335518)scale(0.1 -0.1)">
       <use xlink:href="#DejaVuSans-2212"/>
       <use x="83.789062" xlink:href="#DejaVuSans-30"/>
       <use x="147.412109" xlink:href="#DejaVuSans-2e"/>
       <use x="179.199219" xlink:href="#DejaVuSans-35"/>
      </g>
     </g>
    </g>
    <g id="ytick_5">
     <g id="line2d_10">
      <g>
       <use style="stroke:#000000;stroke-width:0.8;" x="82.520165" xlink:href="#m34d5ad24fa" y="174.528"/>
      </g>
     </g>
     <g id="text_10">
      <!-- 0.0 -->
      <g transform="translate(59.61704 178.327219)scale(0.1 -0.1)">
       <use xlink:href="#DejaVuSans-30"/>
       <use x="63.623047" xlink:href="#DejaVuSans-2e"/>
       <use x="95.410156" xlink:href="#DejaVuSans-30"/>
      </g>
     </g>
    </g>
    <g id="ytick_6">
     <g id="line2d_11">
      <g>
       <use style="stroke:#000000;stroke-width:0.8;" x="82.520165" xlink:href="#m34d5ad24fa" y="142.519701"/>
      </g>
     </g>
     <g id="text_11">
      <!-- 0.5 -->
      <g transform="translate(59.61704 146.31892)scale(0.1 -0.1)">
       <use xlink:href="#DejaVuSans-30"/>
       <use x="63.623047" xlink:href="#DejaVuSans-2e"/>
       <use x="95.410156" xlink:href="#DejaVuSans-35"/>
      </g>
     </g>
    </g>
    <g id="ytick_7">
     <g id="line2d_12">
      <g>
       <use style="stroke:#000000;stroke-width:0.8;" x="82.520165" xlink:href="#m34d5ad24fa" y="110.511402"/>
      </g>
     </g>
     <g id="text_12">
      <!-- 1.0 -->
      <g transform="translate(59.61704 114.310621)scale(0.1 -0.1)">
       <use xlink:href="#DejaVuSans-31"/>
       <use x="63.623047" xlink:href="#DejaVuSans-2e"/>
       <use x="95.410156" xlink:href="#DejaVuSans-30"/>
      </g>
     </g>
    </g>
    <g id="ytick_8">
     <g id="line2d_13">
      <g>
       <use style="stroke:#000000;stroke-width:0.8;" x="82.520165" xlink:href="#m34d5ad24fa" y="78.503103"/>
      </g>
     </g>
     <g id="text_13">
      <!-- 1.5 -->
      <g transform="translate(59.61704 82.302322)scale(0.1 -0.1)">
       <use xlink:href="#DejaVuSans-31"/>
       <use x="63.623047" xlink:href="#DejaVuSans-2e"/>
       <use x="95.410156" xlink:href="#DejaVuSans-35"/>
      </g>
     </g>
    </g>
    <g id="ytick_9">
     <g id="line2d_14">
      <g>
       <use style="stroke:#000000;stroke-width:0.8;" x="82.520165" xlink:href="#m34d5ad24fa" y="46.494804"/>
      </g>
     </g>
     <g id="text_14">
      <!-- 2.0 -->
      <g transform="translate(59.61704 50.294023)scale(0.1 -0.1)">
       <use xlink:href="#DejaVuSans-32"/>
       <use x="63.623047" xlink:href="#DejaVuSans-2e"/>
       <use x="95.410156" xlink:href="#DejaVuSans-30"/>
      </g>
     </g>
    </g>
   </g>
   <g id="line2d_15">
    <path clip-path="url(#p45ba023aa1)" d="M 300.176598 63.648 
L 172.143402 63.648 
" style="fill:none;stroke:#009900;stroke-linecap:square;stroke-width:2;"/>
   </g>
   <g id="line2d_16">
    <path clip-path="url(#p45ba023aa1)" d="M 172.143402 63.648 
L 108.126804 174.528 
" style="fill:none;stroke:#009900;stroke-linecap:square;stroke-width:2;"/>
   </g>
   <g id="line2d_17">
    <path clip-path="url(#p45ba023aa1)" d="M 108.126804 174.528 
L 172.143402 285.408 
" style="fill:none;stroke:#009900;stroke-linecap:square;stroke-width:2;"/>
   </g>
   <g id="line2d_18">
    <path clip-path="url(#p45ba023aa1)" d="M 172.143402 285.408 
L 300.176598 285.408 
" style="fill:none;stroke:#009900;stroke-linecap:square;stroke-width:2;"/>
   </g>
   <g id="line2d_19">
    <path clip-path="url(#p45ba023aa1)" d="M 300.176598 285.408 
L 364.193196 174.528 
" style="fill:none;stroke:#009900;stroke-linecap:square;stroke-width:2;"/>
   </g>
   <g id="line2d_20">
    <path clip-path="url(#p45ba023aa1)" d="M 364.193196 174.528 
L 300.176598 63.648 
" style="fill:none;stroke:#009900;stroke-linecap:square;stroke-width:2;"/>
   </g>
   <g id="line2d_21">
    <path clip-path="url(#p45ba023aa1)" d="M 185.0856 219.027557 
L 190.08203 217.904972 
L 195.029571 216.583482 
L 199.920309 215.065199 
L 203.366228 213.864604 
L 202.60811 218.929163 
L 202.053126 224.019988 
L 201.702165 229.128934 
L 201.555789 234.247828 
L 201.61423 239.36848 
L 201.877396 244.4827 
L 202.344866 249.582306 
L 203.015891 254.659138 
L 203.8894 259.705075 
L 204.963993 264.712046 
L 206.237952 269.672039 
L 207.709238 274.57712 
L 209.375499 279.419441 
L 211.234068 284.191256 
L 211.743578 285.408 
L 213.651212 280.655586 
L 215.367273 275.830689 
L 216.889018 270.941027 
L 218.214011 265.994422 
L 219.340133 260.998789 
L 220.265582 255.962119 
L 220.988877 250.89247 
L 221.508862 245.797951 
L 221.824705 240.686714 
L 221.9359 235.566935 
L 221.84227 230.446805 
L 221.543964 225.334514 
L 221.392899 223.566073 
L 218.264703 227.620564 
L 215.301147 231.796906 
L 212.50697 236.088418 
L 209.886643 240.488235 
L 207.444357 244.989317 
L 205.184021 249.584465 
L 203.109249 254.266326 
L 201.223361 259.027411 
L 199.529375 263.860103 
L 198.03 268.756671 
L 196.727634 273.709281 
L 195.624362 278.71001 
L 194.721948 283.750858 
L 194.470482 285.408 
L 193.634135 280.35577 
L 192.596422 275.341027 
L 191.359002 270.371792 
L 189.923856 265.456015 
L 188.29328 260.601562 
L 186.469881 255.816197 
L 184.456577 251.107576 
L 182.256589 246.483232 
L 179.873436 241.950563 
L 177.310931 237.516821 
L 174.573174 233.189098 
L 171.664544 228.974318 
L 168.589694 224.879224 
L 165.353543 220.910366 
L 161.961269 217.074094 
L 158.418299 213.376546 
L 154.7303 209.823637 
L 150.903172 206.42105 
L 146.943039 203.174229 
L 142.856235 200.088368 
L 138.649299 197.168404 
L 134.32896 194.419009 
L 129.902131 191.84458 
L 125.375893 189.449236 
L 120.757487 187.23681 
L 116.054302 185.21084 
L 113.772749 184.307063 
L 114.467172 179.233378 
L 114.958146 174.135982 
L 115.244885 169.02303 
L 115.326932 163.902701 
L 115.306918 162.091678 
L 119.73701 159.522867 
L 124.060834 156.778955 
L 128.271471 153.864331 
L 132.362187 150.783658 
L 136.326436 147.541864 
L 140.157877 144.144135 
L 143.850381 140.595907 
L 147.398039 136.902857 
L 150.795178 133.070892 
L 154.036361 129.106144 
L 157.116404 125.014953 
L 160.030379 120.803867 
L 162.773625 116.479621 
L 165.341753 112.049133 
L 167.730654 107.519492 
L 169.936508 102.897943 
L 171.955784 98.19188 
L 173.785252 93.408832 
L 175.421986 88.556451 
L 176.863368 83.642499 
L 178.107091 78.674839 
L 179.151166 73.661416 
L 179.993922 68.610251 
L 180.62142 63.648 
L 180.690903 64.284383 
L 181.361116 69.361323 
L 182.233818 74.4074 
L 183.30761 79.414542 
L 184.580776 84.374739 
L 186.051278 89.280055 
L 187.716764 94.122643 
L 189.57457 98.894755 
L 191.621724 103.588758 
L 193.85495 108.197142 
L 196.270676 112.712535 
L 198.865037 117.127712 
L 201.633883 121.435611 
L 204.572785 125.62934 
L 207.677039 129.70219 
L 208.875421 131.188046 
L 206.613152 126.593849 
L 204.168975 122.093794 
L 201.546798 117.695079 
L 198.750817 113.404742 
L 195.785505 109.229646 
L 192.655606 105.176471 
L 189.366126 101.2517 
L 185.922329 97.461613 
L 182.329723 93.812272 
L 178.594056 90.309517 
L 174.721304 86.95895 
L 170.717664 83.765932 
L 166.589539 80.735572 
L 163.496107 78.625555 
L 164.069526 78.910164 
L 168.706637 81.083111 
L 173.426934 83.068885 
L 178.222865 84.864309 
L 183.086758 86.46651 
L 188.010831 87.872927 
L 192.987207 89.081308 
L 198.007925 90.08972 
L 203.064952 90.896551 
L 208.150199 91.500509 
L 213.25553 91.900628 
L 218.372778 92.096269 
L 223.493756 92.087117 
L 228.610272 91.873189 
L 233.714141 91.454825 
L 238.797197 90.832696 
L 243.851308 90.007797 
L 248.86839 88.981446 
L 253.840415 87.755287 
L 258.75943 86.331281 
L 263.617565 84.711706 
L 268.407049 82.899153 
L 273.120218 80.896521 
L 277.749534 78.707014 
L 282.28759 76.334136 
L 286.727126 73.781682 
L 291.06104 71.053735 
L 295.282398 68.154661 
L 299.384448 65.089096 
L 300.500782 64.209503 
L 295.772771 66.176839 
L 291.127214 68.331671 
L 286.571543 70.670552 
L 282.113046 73.189741 
L 277.758857 75.885207 
L 273.51594 78.752638 
L 269.391084 81.787446 
L 265.390887 84.984778 
L 261.521749 88.339517 
L 257.78986 91.846297 
L 254.20119 95.499507 
L 250.76148 99.293304 
L 247.476232 103.221618 
L 244.350703 107.278165 
L 241.389893 111.456454 
L 238.598538 115.749803 
L 235.981104 120.151341 
L 234.223666 123.35134 
L 231.40181 119.077977 
L 228.411323 114.920877 
L 225.256987 110.886689 
L 221.943851 106.981868 
L 218.477213 103.21266 
L 214.862621 99.585096 
L 211.105855 96.104979 
L 207.212927 92.777876 
L 203.190065 89.60911 
L 199.043703 86.60375 
L 194.780476 83.766604 
L 190.407203 81.102212 
L 185.930881 78.614835 
L 181.358672 76.308452 
L 176.697888 74.186754 
L 171.955988 72.253135 
L 168.009043 70.808919 
L 171.949323 74.079806 
L 176.017251 77.190507 
L 180.20632 80.136047 
L 184.509829 82.911712 
L 188.920892 85.513062 
L 193.432453 87.935936 
L 198.037294 90.176458 
L 202.728049 92.231043 
L 207.497213 94.096405 
L 212.337157 95.769558 
L 217.240138 97.247828 
L 222.198312 98.528847 
L 227.203748 99.610568 
L 232.248436 100.49126 
L 237.324308 101.169514 
L 242.423242 101.644244 
L 247.537082 101.914692 
L 252.657647 101.980424 
L 257.776744 101.841335 
L 262.886185 101.497649 
L 267.977794 100.949914 
L 273.043428 100.199008 
L 278.074981 99.246131 
L 283.064404 98.092807 
L 288.003716 96.740882 
L 292.885014 95.192519 
L 297.70049 93.450195 
L 302.44244 91.516697 
L 307.103277 89.395117 
L 311.675546 87.088851 
L 313.227564 86.252936 
L 312.136901 86.923527 
L 307.842936 89.713932 
L 303.663992 92.673819 
L 299.606754 95.798451 
L 295.677714 99.082829 
L 291.883157 102.521701 
L 288.229153 106.109563 
L 284.721548 109.840677 
L 281.365953 113.709073 
L 278.167738 117.708563 
L 275.132017 121.832748 
L 272.263648 126.075031 
L 269.56722 130.428624 
L 267.511679 134.032666 
L 271.169166 130.448354 
L 274.680392 126.720648 
L 278.039741 122.855512 
L 281.241839 118.85913 
L 284.281563 114.737895 
L 287.15405 110.498399 
L 289.854705 106.147426 
L 292.379207 101.691936 
L 294.723518 97.139057 
L 296.883887 92.496072 
L 298.856858 87.77041 
L 300.639274 82.969629 
L 302.228285 78.101411 
L 303.621348 73.173544 
L 304.243231 70.691616 
L 299.305162 69.335161 
L 294.316799 68.17726 
L 289.286122 67.219767 
L 284.221179 66.464214 
L 279.130074 65.911808 
L 274.020951 65.563435 
L 268.901984 65.41965 
L 263.781361 65.480685 
L 258.667275 65.746441 
L 253.567907 66.216493 
L 248.491416 66.890089 
L 243.445921 67.766153 
L 238.439496 68.843281 
L 233.480148 70.119752 
L 228.575813 71.593522 
L 223.734336 73.262235 
L 218.963463 75.123221 
L 214.270825 77.173501 
L 209.66393 79.409798 
L 205.150148 81.828532 
L 200.7367 84.425835 
L 196.430647 87.197551 
L 192.238878 90.139246 
L 188.168098 93.246214 
L 184.224819 96.513484 
L 180.415351 99.93583 
L 176.745787 103.507777 
L 173.221998 107.22361 
L 169.849622 111.077385 
L 166.634053 115.062936 
L 163.580436 119.173888 
L 160.693655 123.403663 
L 157.97833 127.745496 
L 155.438803 132.192439 
L 153.079138 136.73738 
L 150.90311 141.373046 
L 148.9142 146.092022 
L 147.115589 150.886759 
L 145.510155 155.749586 
L 144.100467 160.672723 
L 142.888779 165.648295 
L 141.87703 170.668341 
L 141.066839 175.724831 
L 140.459502 180.809676 
L 140.055989 185.91474 
L 139.856948 191.031857 
L 139.862696 196.15284 
L 140.073225 201.269497 
L 140.488196 206.373642 
L 141.106947 211.457111 
L 141.928488 216.511769 
L 142.951503 221.529532 
L 144.174358 226.502371 
L 145.595095 231.422331 
L 147.211441 236.281541 
L 149.020811 241.072228 
L 151.02031 245.786728 
L 153.20674 250.417498 
L 155.576602 254.957129 
L 158.126105 259.398361 
L 160.85117 263.734087 
L 163.747439 267.957371 
L 166.810278 272.061457 
L 170.034786 276.039779 
L 173.415805 279.885974 
L 176.947926 283.593887 
L 178.783214 285.408 
L 182.389349 281.772028 
L 185.847199 277.994757 
L 189.151233 274.082231 
L 192.296165 270.040708 
L 195.276963 265.876654 
L 198.088859 261.596731 
L 200.727354 257.207785 
L 203.188228 252.716838 
L 205.467544 248.131075 
L 207.561655 243.457832 
L 209.46721 238.704585 
L 211.181163 233.878938 
L 212.70077 228.988611 
L 214.0236 224.041428 
L 214.724115 221.039318 
L 211.721527 225.187687 
L 208.887232 229.45281 
L 206.225763 233.827863 
L 203.741378 238.305846 
L 201.438052 242.879596 
L 199.31947 247.541796 
L 197.389021 252.284988 
L 195.649793 257.101583 
L 194.104568 261.983876 
L 192.755819 266.924056 
L 191.605704 271.91422 
L 190.656062 276.946385 
L 189.908412 282.0125 
L 189.522478 285.408 
L 189.457085 284.771183 
L 188.819497 279.690043 
L 187.979227 274.638465 
L 186.93762 269.624528 
L 185.696343 264.656256 
L 184.257381 259.741595 
L 182.623035 254.888409 
L 180.795921 250.104461 
L 178.778962 245.397405 
L 176.575384 240.774771 
L 174.188713 236.243954 
L 171.622766 231.812202 
L 168.88165 227.486607 
L 165.969748 223.274086 
L 162.891719 219.18138 
L 159.652488 215.215036 
L 156.257236 211.3814 
L 152.711396 207.686604 
L 149.020639 204.136559 
L 145.190871 200.736945 
L 141.228218 197.493199 
L 137.13902 194.410513 
L 132.929817 191.493816 
L 128.607345 188.747776 
L 124.178518 186.176785 
L 119.650422 183.784957 
L 115.0303 181.576117 
L 111.247059 179.932441 
L 111.808469 174.842321 
L 112.165878 169.733822 
L 112.262069 167.365511 
L 116.559741 164.580818 
L 120.742617 161.626491 
L 124.804006 158.507256 
L 128.73741 155.228105 
L 132.536536 151.794282 
L 136.195307 148.211281 
L 139.70787 144.484834 
L 143.068605 140.620904 
L 146.272136 136.62567 
L 149.313338 132.505525 
L 152.187345 128.26706 
L 154.88956 123.917056 
L 157.415659 119.462471 
L 159.761602 114.910433 
L 161.923636 110.268223 
L 163.898301 105.543268 
L 165.682439 100.743127 
L 167.273196 95.875479 
L 168.668026 90.948112 
L 169.864698 85.968907 
L 170.861298 80.945831 
L 171.656231 75.88692 
L 172.248226 70.800267 
L 172.636336 65.694009 
L 172.734335 63.648 
L 172.761446 64.287591 
L 173.09337 69.397809 
L 173.629383 74.490666 
L 174.368628 79.558014 
L 175.309921 84.591747 
L 176.451756 89.583812 
L 177.792308 94.526223 
L 179.329431 99.411073 
L 181.060667 104.230546 
L 182.983245 108.976934 
L 185.09409 113.642642 
L 187.389825 118.220207 
L 189.866778 122.702306 
L 192.520986 127.081767 
L 195.348202 131.351586 
L 198.343904 135.50493 
L 200.266948 137.997346 
L 196.243667 134.82911 
L 192.09691 131.824297 
L 187.833309 128.987713 
L 183.459685 126.323897 
L 178.983035 123.83711 
L 174.410522 121.53133 
L 169.749459 119.410247 
L 165.007304 117.477253 
L 160.191643 115.73544 
L 155.31018 114.187596 
L 150.370724 112.836197 
L 145.381178 111.683404 
L 144.513567 111.504278 
L 147.980694 115.273036 
L 151.595757 118.900131 
L 155.352974 122.379761 
L 159.246334 125.706358 
L 163.269608 128.874602 
L 167.416359 131.879424 
L 171.679955 134.716016 
L 176.053573 137.379841 
L 180.530218 139.866637 
L 185.102727 142.172426 
L 189.763785 144.293519 
L 193.689196 145.909287 
L 190.092125 142.264348 
L 186.352172 138.766169 
L 182.475321 135.420347 
L 178.467774 132.232233 
L 174.335942 129.206929 
L 170.086435 126.349274 
L 165.726052 123.66384 
L 161.261767 121.154923 
L 156.700724 118.826536 
L 152.050218 116.682405 
L 147.31769 114.725959 
L 143.477892 113.29812 
L 147.436583 116.546699 
L 151.522015 119.634375 
L 155.727654 122.556208 
L 160.046771 125.307522 
L 164.472456 127.883917 
L 168.99763 130.281271 
L 173.615052 132.495749 
L 178.317337 134.523808 
L 183.096961 136.362203 
L 187.946277 138.007994 
L 192.857529 139.458548 
L 197.719982 140.687715 
L 195.84375 135.922817 
L 193.778475 131.236759 
L 191.527459 126.637038 
L 189.094304 122.131014 
L 186.482902 117.725894 
L 183.697431 113.428726 
L 180.742347 109.246384 
L 177.622378 105.185559 
L 174.342515 101.252749 
L 170.908005 97.454243 
L 167.324343 93.79612 
L 163.597261 90.284231 
L 159.732723 86.924195 
L 159.037581 86.347948 
L 163.867852 88.048825 
L 168.762276 89.555183 
L 173.713024 90.86461 
L 178.712175 91.975013 
L 183.751731 92.884615 
L 188.82363 93.591962 
L 193.919759 94.09592 
L 199.031964 94.395684 
L 204.152068 94.490776 
L 209.271878 94.381041 
L 214.383205 94.066656 
L 219.477872 93.548125 
L 224.547727 92.826276 
L 229.584661 91.902264 
L 234.580616 90.777567 
L 239.527598 89.453985 
L 244.417694 87.933636 
L 249.24308 86.218951 
L 253.996038 84.312673 
L 258.668963 82.217853 
L 263.25438 79.937841 
L 267.744953 77.476285 
L 272.133498 74.837123 
L 276.412994 72.024577 
L 280.576595 69.043147 
L 284.617641 65.897602 
L 287.314922 63.648 
L 291.268165 66.903207 
L 295.34842 69.997723 
L 299.549158 72.926597 
L 303.863659 75.685143 
L 308.285022 78.268948 
L 308.775015 78.540895 
L 308.77956 83.661879 
L 308.988887 88.778586 
L 309.40266 93.882829 
L 310.020217 98.966442 
L 310.84057 104.021293 
L 311.862408 109.039296 
L 313.084095 114.012422 
L 314.503676 118.932716 
L 316.118881 123.792306 
L 317.927126 128.583417 
L 319.925518 133.298386 
L 322.11086 137.929669 
L 324.479656 142.469857 
L 327.028116 146.911687 
L 329.752163 151.248053 
L 332.64744 155.472017 
L 335.709315 159.576823 
L 338.932888 163.555902 
L 342.313004 167.40289 
L 345.844255 171.111633 
L 349.520991 174.676196 
L 353.337331 178.090878 
L 357.287169 181.350216 
L 359.336522 182.940005 
L 354.576199 181.052197 
L 349.74419 179.356261 
L 344.848228 177.85491 
L 339.896144 176.550546 
L 334.89586 175.445257 
L 329.855377 174.540809 
L 324.782756 173.838651 
L 319.686115 173.339904 
L 314.573606 173.045369 
L 309.453408 172.955514 
L 304.333712 173.070485 
L 299.222709 173.390097 
L 294.128576 173.913839 
L 289.059461 174.640873 
L 287.371708 174.929092 
L 292.417578 175.80299 
L 297.494358 176.474408 
L 302.593927 176.942271 
L 307.708127 177.205833 
L 312.828775 177.264669 
L 317.947681 177.118688 
L 323.056653 176.768122 
L 328.147521 176.213531 
L 333.212139 175.455804 
L 338.242404 174.496152 
L 343.23027 173.336111 
L 348.167757 171.977537 
L 353.046966 170.422602 
L 357.860091 168.673795 
L 360.261698 167.718447 
L 356.274932 170.932509 
L 352.419883 174.303428 
L 348.702718 177.825812 
L 345.129384 181.494025 
L 341.705598 185.302199 
L 338.436837 189.244242 
L 335.32833 193.313847 
L 332.38505 197.504505 
L 329.611707 201.80951 
L 327.012736 206.221975 
L 324.592296 210.734842 
L 322.354258 215.340891 
L 320.302203 220.032754 
L 318.439414 224.802924 
L 316.768871 229.643769 
L 315.293247 234.547547 
L 314.014901 239.506411 
L 312.93588 244.512429 
L 312.057909 249.557592 
L 311.382394 254.633829 
L 310.910414 259.733019 
L 310.642724 264.847004 
L 310.58599 267.378404 
L 306.236683 270.081741 
L 301.99896 272.956842 
L 297.879601 275.999107 
L 293.885194 279.203669 
L 290.022131 282.565402 
L 286.985239 285.408 
L 283.23342 281.922551 
L 279.345221 278.589922 
L 275.326863 275.415446 
L 271.184774 272.4042 
L 266.925581 269.561002 
L 262.556097 266.890401 
L 258.083312 264.396669 
L 253.514383 262.083795 
L 248.856618 259.95548 
L 244.117468 258.015128 
L 239.304516 256.265844 
L 234.425462 254.710425 
L 229.488109 253.351361 
L 224.500359 252.190826 
L 219.470188 251.230675 
L 214.405646 250.472446 
L 209.314833 249.917351 
L 204.205895 249.566278 
L 199.087004 249.419789 
L 193.96635 249.478118 
L 188.852124 249.741172 
L 183.752509 250.208531 
L 178.675662 250.879445 
L 173.629705 251.752843 
L 168.622712 252.827326 
L 163.662691 254.101177 
L 158.757578 255.572356 
L 155.542491 256.654378 
L 159.360871 253.241978 
L 163.039737 249.679613 
L 166.573204 245.972982 
L 169.955619 242.128015 
L 173.18157 238.150863 
L 176.245898 234.047888 
L 179.143699 229.825655 
L 181.870338 225.490919 
L 184.421452 221.050613 
L 186.792961 216.511841 
L 188.981071 211.881865 
L 190.982281 207.168092 
L 192.931193 201.988337 
L 187.826869 201.57556 
L 182.710122 201.367232 
L 177.589137 201.363686 
L 172.472106 201.564928 
L 167.367216 201.970636 
L 162.282633 202.58016 
L 157.226492 203.392525 
L 152.206881 204.406433 
L 147.231831 205.62026 
L 142.3093 207.032065 
L 137.447164 208.63959 
L 132.653201 210.440263 
L 129.591915 211.706663 
L 133.631123 208.558758 
L 137.541217 205.251846 
L 141.315943 201.791218 
L 144.94926 198.182409 
L 148.435358 194.431192 
L 151.768658 190.54357 
L 154.943829 186.52576 
L 157.955791 182.384192 
L 160.799724 178.125489 
L 163.47108 173.756467 
L 165.965585 169.284113 
L 168.279248 164.715583 
L 170.408369 160.058186 
L 172.349539 155.319372 
L 174.099655 150.506723 
L 175.655917 145.627937 
L 177.015834 140.690819 
L 178.177231 135.703269 
L 179.138251 130.673265 
L 179.897355 125.608854 
L 180.45333 120.518137 
L 180.805286 115.40926 
L 180.952659 110.290394 
L 180.895215 105.16973 
L 180.633044 100.055459 
L 180.166567 94.955763 
L 179.49653 89.8788 
L 178.624004 84.832692 
L 177.550386 79.825513 
L 176.277393 74.865272 
L 174.807061 69.959905 
L 173.141743 65.117259 
L 172.593163 63.648 
L 170.868652 68.469884 
L 169.338344 73.356872 
L 168.004687 78.301148 
L 166.869815 83.294801 
L 165.935544 88.329842 
L 165.203369 93.398217 
L 164.67446 98.491816 
L 164.349663 103.602492 
L 164.229499 108.722069 
L 164.31416 113.842355 
L 164.603509 118.95516 
L 165.097085 124.052305 
L 165.794098 129.125635 
L 166.693432 134.167034 
L 167.793649 139.168436 
L 169.092988 144.121841 
L 170.589372 149.019324 
L 172.280406 153.85305 
L 174.163384 158.615286 
L 176.235295 163.298414 
L 178.492824 167.894941 
L 180.932359 172.397515 
L 183.549998 176.798932 
L 185.173393 179.341086 
L 183.312728 184.112085 
L 181.64434 188.953674 
L 180.170898 193.858108 
L 178.89476 198.81754 
L 177.817967 203.824038 
L 176.942242 208.869591 
L 176.268986 213.946128 
L 175.799275 219.045528 
L 175.533862 224.159631 
L 175.473171 229.280258 
L 175.617299 234.399216 
L 175.966015 239.508316 
L 176.518762 244.599384 
L 177.274655 249.664275 
L 178.232485 254.694888 
L 179.39072 259.683173 
L 180.747507 264.621152 
L 182.300675 269.500924 
L 184.047739 274.314682 
L 185.985905 279.054726 
L 188.112071 283.713472 
L 188.942183 285.408 
L 191.136777 280.781094 
L 193.144588 276.070128 
L 194.962405 271.28264 
L 196.587319 266.426288 
L 198.016732 261.508841 
L 199.248355 256.538167 
L 200.28022 251.522217 
L 201.110674 246.469015 
L 201.73839 241.386646 
L 202.162364 236.28324 
L 202.381916 231.166963 
L 202.396696 226.045997 
L 202.206681 220.928538 
L 201.812174 215.82277 
L 201.399218 212.137679 
L 196.280152 211.997448 
L 191.159573 212.062038 
L 186.045673 212.331344 
L 180.946633 212.804937 
L 175.87061 213.482058 
L 170.825725 214.361624 
L 165.820048 215.442228 
L 160.861588 216.722141 
L 155.958278 218.199316 
L 151.11796 219.87139 
L 146.34838 221.735687 
L 141.657167 223.789226 
L 137.677363 225.711068 
L 138.211936 225.358871 
L 142.423771 222.445978 
L 146.515753 219.366986 
L 150.481335 216.126822 
L 154.314172 212.730669 
L 158.008134 209.18396 
L 161.557311 205.492369 
L 164.956024 201.661801 
L 168.198837 197.698385 
L 171.280562 193.608461 
L 174.196268 189.398573 
L 176.941292 185.075455 
L 179.511241 180.646024 
L 181.902004 176.117365 
L 184.109757 171.496723 
L 185.258348 168.886925 
L 184.227338 163.870799 
L 182.996561 158.899915 
L 181.567986 153.982224 
L 179.943899 149.125596 
L 178.126897 144.337798 
L 176.119888 139.626491 
L 173.926082 134.999211 
L 171.54899 130.463361 
L 168.992413 126.026198 
L 166.260442 121.69482 
L 163.357447 117.476157 
L 160.288072 113.376956 
L 157.057229 109.403777 
L 153.670085 105.562975 
L 150.099933 101.828408 
L 155.074783 103.043058 
L 160.094226 104.057795 
L 165.150233 104.870997 
L 170.234715 105.481361 
L 175.339538 105.887913 
L 180.456535 106.09 
L 185.577521 106.087301 
L 190.694303 105.879819 
L 195.798694 105.467887 
L 200.88253 104.852163 
L 205.937677 104.033632 
L 210.956047 103.013603 
L 215.929614 101.79371 
L 220.850419 100.375902 
L 225.710591 98.762449 
L 230.502354 96.955932 
L 235.218043 94.95924 
L 239.850114 92.775568 
L 244.391156 90.408409 
L 248.833904 87.861551 
L 253.171252 85.139067 
L 257.396259 82.245313 
L 261.502168 79.184919 
L 265.48241 75.96278 
L 269.330617 72.584051 
L 273.040632 69.054138 
L 276.606521 65.378687 
L 278.190311 63.648 
L 281.688258 67.38817 
L 285.332973 70.985468 
L 289.118627 74.434138 
L 293.039163 77.728664 
L 297.088308 80.863775 
L 301.259586 83.834456 
L 305.546323 86.635954 
L 309.94166 89.263787 
L 314.438568 91.713752 
L 317.177379 93.094217 
L 316.928066 98.209131 
L 316.883495 103.329924 
L 317.043736 108.448403 
L 317.408534 113.556379 
L 317.977304 118.645682 
L 318.749138 123.708169 
L 319.722799 128.735741 
L 320.896731 133.720356 
L 322.269055 138.654039 
L 323.837576 143.528898 
L 325.599785 148.337132 
L 327.552863 153.071051 
L 329.693684 157.723082 
L 332.018825 162.285781 
L 334.524565 166.751849 
L 337.206896 171.114143 
L 340.061526 175.365682 
L 343.08389 179.499666 
L 346.269151 183.509481 
L 349.612213 187.388711 
L 353.10773 191.131152 
L 354.052292 192.092561 
L 349.07593 190.884124 
L 344.055223 189.875655 
L 338.998205 189.068767 
L 333.912965 188.464751 
L 328.807638 188.064575 
L 323.690392 187.868876 
L 318.569414 187.87797 
L 313.452896 188.091841 
L 308.349022 188.510147 
L 303.26596 189.132218 
L 298.211839 189.957061 
L 293.194746 190.983355 
L 288.222706 192.209458 
L 283.72881 193.501881 
L 286.332774 197.911402 
L 289.110988 202.213265 
L 292.059009 206.400589 
L 295.17212 210.466673 
L 298.44534 214.405014 
L 301.873434 218.20931 
L 305.450918 221.873477 
L 309.172067 225.391651 
L 313.030929 228.758205 
L 317.021331 231.967752 
L 321.136888 235.015159 
L 325.371018 237.89555 
L 327.00392 238.941715 
L 326.43683 238.644695 
L 321.848105 236.371349 
L 317.17214 234.283322 
L 312.416417 232.383954 
L 307.588544 230.676283 
L 302.696244 229.163041 
L 297.747343 227.84665 
L 292.749759 226.729216 
L 287.711488 225.812525 
L 282.640589 225.098044 
L 277.545174 224.586917 
L 272.433396 224.279961 
L 267.313431 224.177667 
L 262.193471 224.280198 
L 257.081707 224.587392 
L 251.986316 225.098756 
L 246.91545 225.813472 
L 241.877221 226.730397 
L 236.879689 227.848064 
L 231.93085 229.164685 
L 227.03862 230.678154 
L 222.210826 232.386049 
L 217.455191 234.285638 
L 212.779323 236.373882 
L 208.190703 238.647441 
L 203.696672 241.102677 
L 199.304419 243.735662 
L 195.02097 246.542185 
L 190.853179 249.517755 
L 186.807712 252.657612 
L 182.891042 255.956733 
L 179.109435 259.40984 
L 175.46894 263.011409 
L 171.975381 266.755678 
L 168.634348 270.636657 
L 165.724617 274.290339 
L 170.78757 273.521567 
L 175.815731 272.550945 
L 180.801054 271.380028 
L 185.735566 270.010687 
L 190.611372 268.445114 
L 195.420672 266.685813 
L 200.155771 264.735598 
L 204.809095 262.59759 
L 209.373199 260.275209 
L 213.840782 257.77217 
L 218.204696 255.092477 
L 222.457961 252.240418 
L 226.593772 249.220555 
L 230.605512 246.03772 
L 234.486763 242.697003 
L 238.231317 239.20375 
L 241.833183 235.563549 
L 245.286599 231.782223 
L 248.586039 227.865823 
L 251.726226 223.820612 
L 252.215214 223.159574 
L 257.137662 224.571669 
L 262.11264 225.78579 
L 267.132192 226.799993 
L 272.188285 227.612657 
L 277.272832 228.22248 
L 282.377698 228.628488 
L 287.494717 228.830032 
L 292.615702 228.826788 
L 297.732462 228.618761 
L 302.836809 228.206286 
L 307.92058 227.59002 
L 312.975639 226.770951 
L 317.993901 225.750389 
L 322.967338 224.529966 
L 327.887992 223.111635 
L 332.747992 221.497665 
L 337.539563 219.690638 
L 338.29457 219.385735 
L 337.495869 214.327417 
L 336.495528 209.305085 
L 335.295148 204.326773 
L 333.896648 199.400446 
L 332.302266 194.533984 
L 330.514554 189.735174 
L 328.53637 185.011691 
L 326.370879 180.371093 
L 324.021546 175.820803 
L 321.492129 171.368101 
L 318.786675 167.020111 
L 315.909512 162.783788 
L 312.865242 158.665909 
L 309.658736 154.673063 
L 306.295124 150.811636 
L 302.779787 147.087807 
L 299.118348 143.507532 
L 295.316665 140.07654 
L 291.38082 136.800319 
L 287.317109 133.68411 
L 283.132033 130.7329 
L 278.832288 127.951408 
L 274.424753 125.344085 
L 269.916478 122.915102 
L 265.314676 120.668345 
L 260.626708 118.607408 
L 255.860075 116.735588 
L 251.022402 115.05588 
L 246.121427 113.570971 
L 241.164993 112.283236 
L 236.161028 111.194736 
L 231.117537 110.307212 
L 226.042588 109.622084 
L 220.944301 109.140447 
L 215.830832 108.863073 
L 210.710362 108.790405 
L 205.591081 108.922559 
L 200.481179 109.259324 
L 195.388833 109.800162 
L 190.322187 110.544206 
L 185.289348 111.490267 
L 180.298366 112.636831 
L 175.357228 113.982064 
L 170.473837 115.523814 
L 165.656005 117.259614 
L 160.911441 119.186688 
L 156.247734 121.301952 
L 151.672346 123.602022 
L 147.192596 126.08322 
L 142.815651 128.741575 
L 138.548512 131.572834 
L 134.398007 134.57247 
L 130.370776 137.735681 
L 128.436509 139.35056 
L 127.611082 144.404585 
L 126.988422 149.487576 
L 126.569526 154.591401 
L 126.355064 159.707895 
L 126.345378 164.828872 
L 126.540484 169.94614 
L 126.940071 175.051513 
L 127.543498 180.136823 
L 128.349801 185.193935 
L 129.35769 190.214758 
L 130.565551 195.19126 
L 131.971454 200.115479 
L 133.573148 204.979539 
L 135.368071 209.775658 
L 137.353352 214.496162 
L 139.525816 219.1335 
L 141.881985 223.680254 
L 144.418091 228.129148 
L 147.130078 232.473068 
L 150.013605 236.705061 
L 153.06406 240.81836 
L 156.276564 244.806382 
L 159.645976 248.662749 
L 163.166906 252.381291 
L 166.833722 255.956058 
L 170.640558 259.381332 
L 174.581323 262.651634 
L 178.649713 265.761731 
L 182.839219 268.706649 
L 187.14314 271.481675 
L 191.554589 274.08237 
L 196.06651 276.504574 
L 200.671684 278.744412 
L 205.362744 280.798301 
L 210.132185 282.662954 
L 214.972377 284.335389 
L 218.459079 285.408 
L 223.344954 283.874138 
L 228.165582 282.14612 
L 232.913252 280.22671 
L 237.580368 278.11898 
L 242.159464 275.826301 
L 246.643215 273.35234 
L 251.024447 270.701057 
L 255.296152 267.876691 
L 259.451495 264.883762 
L 263.48383 261.727058 
L 267.386704 258.411628 
L 271.153875 254.942777 
L 274.779315 251.326054 
L 278.257225 247.567245 
L 281.58204 243.672364 
L 284.748443 239.64764 
L 287.751367 235.499514 
L 290.586007 231.234621 
L 293.247831 226.859784 
L 295.732578 222.382002 
L 298.036274 217.808438 
L 300.155234 213.146409 
L 302.086067 208.403374 
L 303.825685 203.58692 
L 305.371305 198.704752 
L 306.720454 193.764681 
L 307.870973 188.77461 
L 308.821023 183.742523 
L 309.569082 178.676468 
L 310.113956 173.584551 
L 310.454771 168.474919 
L 310.590982 163.355744 
L 310.522372 158.235217 
L 310.249051 153.12153 
L 309.771456 148.022863 
L 309.09035 142.947373 
L 308.206823 137.90318 
L 307.122289 132.898354 
L 305.838484 127.940901 
L 304.357459 123.038751 
L 302.681586 118.199748 
L 300.813545 113.431633 
L 298.756324 108.742033 
L 296.513215 104.138452 
L 294.087806 99.628253 
L 291.483977 95.218652 
L 288.705894 90.916704 
L 285.758001 86.729291 
L 282.645014 82.663112 
L 279.371913 78.724671 
L 275.943935 74.92027 
L 272.366564 71.255995 
L 268.645522 67.737707 
L 264.786762 64.371035 
L 263.916008 63.648 
L 260.027639 66.980429 
L 256.275641 70.465686 
L 252.666017 74.098195 
L 249.204543 77.872144 
L 245.896755 81.781497 
L 242.747945 85.819999 
L 239.763151 89.98119 
L 236.947148 94.258412 
L 234.30444 98.644822 
L 231.839256 103.133404 
L 229.55554 107.716977 
L 227.456944 112.388208 
L 225.546826 117.139624 
L 223.828242 121.963623 
L 222.832019 125.079392 
L 219.00766 121.673695 
L 215.050168 118.423654 
L 210.965875 115.334472 
L 206.761314 112.411088 
L 202.443213 109.65818 
L 198.018478 107.080152 
L 193.49419 104.681129 
L 188.877584 102.464948 
L 184.176048 100.435155 
L 179.397103 98.594996 
L 174.548394 96.947416 
L 169.637677 95.495051 
L 164.67281 94.240224 
L 159.661734 93.184942 
L 155.504884 92.466758 
L 158.796884 96.389416 
L 162.243115 100.17729 
L 165.838063 103.824323 
L 169.575979 107.324679 
L 173.450881 110.672757 
L 177.456572 113.863203 
L 181.586642 116.890913 
L 185.834484 119.751041 
L 190.193304 122.439014 
L 194.656127 124.95053 
L 199.215814 127.281571 
L 203.865071 129.42841 
L 208.574432 131.378999 
L 208.781137 126.262186 
L 208.783059 121.1412 
L 208.580194 116.024233 
L 208.172868 110.919472 
L 207.561731 105.835082 
L 206.747762 100.779199 
L 205.732262 95.75991 
L 204.516857 90.785245 
L 203.10349 85.863163 
L 201.494424 81.001537 
L 199.692231 76.208145 
L 197.699795 71.490656 
L 195.520303 66.856617 
L 193.875447 63.648 
L 191.566329 68.218829 
L 189.441843 72.878342 
L 187.505387 77.619084 
L 185.760059 82.433473 
L 184.208651 87.313804 
L 182.853646 92.252272 
L 181.69721 97.240975 
L 180.741195 102.271933 
L 179.987128 107.337096 
L 179.436218 112.428363 
L 179.089344 117.537588 
L 178.947063 122.656598 
L 179.009601 127.777202 
L 179.276858 132.89121 
L 179.748408 137.99044 
L 180.423495 143.066734 
L 181.30104 148.111971 
L 182.379639 153.11808 
L 183.657565 158.077052 
L 185.132776 162.980954 
L 185.827394 165.071327 
L 182.603953 169.050514 
L 179.542215 173.155422 
L 176.647079 177.379482 
L 173.923177 181.715939 
L 171.374865 186.157854 
L 169.00622 190.698121 
L 166.821033 195.329477 
L 164.822798 200.044512 
L 163.014713 204.835684 
L 161.399669 209.695328 
L 159.980252 214.615669 
L 158.758731 219.588836 
L 157.737061 224.606873 
L 156.916876 229.661751 
L 156.299488 234.745385 
L 155.885886 239.849642 
L 155.67673 244.966355 
L 155.672355 250.08734 
L 155.872768 255.204403 
L 156.029213 257.497405 
L 160.310773 260.306808 
L 164.701254 262.942747 
L 169.193633 265.401005 
L 173.780723 267.67765 
L 178.455185 269.769038 
L 183.209541 271.671826 
L 188.036186 273.382967 
L 192.927397 274.899726 
L 197.875349 276.219675 
L 202.872128 277.340703 
L 207.909739 278.261017 
L 212.980123 278.979143 
L 218.075169 279.493934 
L 223.186726 279.804566 
L 228.306615 279.910541 
L 233.426648 279.81169 
L 238.538632 279.508172 
L 243.634389 279.000472 
L 248.705767 278.289403 
L 253.744654 277.3761 
L 258.742988 276.262027 
L 263.692773 274.948965 
L 268.58609 273.439014 
L 273.415111 271.734591 
L 278.172111 269.838422 
L 282.849478 267.75354 
L 287.439732 265.483281 
L 291.935527 263.031277 
L 296.329673 260.40145 
L 300.615138 257.598009 
L 304.785068 254.625436 
L 308.832791 251.488489 
L 312.751832 248.192185 
L 316.535921 244.741798 
L 320.179005 241.142847 
L 323.675255 237.401091 
L 327.019078 233.522515 
L 330.205125 229.513325 
L 333.228298 225.379933 
L 336.083761 221.128953 
L 338.766947 216.767186 
L 341.273562 212.301608 
L 343.599596 207.739365 
L 345.741329 203.087754 
L 347.695334 198.354218 
L 349.458485 193.546328 
L 351.027961 188.671777 
L 352.401252 183.738363 
L 353.576161 178.753979 
L 354.550807 173.726597 
L 355.323632 168.664261 
L 355.8934 163.57507 
L 356.133583 160.568341 
L 351.490952 158.407211 
L 346.765612 156.433466 
L 341.965124 154.650263 
L 337.097166 153.060455 
L 332.169527 151.666585 
L 327.19009 150.470883 
L 322.16682 149.475261 
L 317.107754 148.681313 
L 312.020985 148.090309 
L 306.914651 147.703195 
L 301.796922 147.520588 
L 296.675983 147.542783 
L 291.560029 147.769742 
L 286.457242 148.201104 
L 281.375787 148.836177 
L 280.534997 148.961233 
L 283.660052 144.904322 
L 286.620374 140.725687 
L 289.411228 136.432012 
L 292.028148 132.030168 
L 294.466948 127.527196 
L 296.723726 122.9303 
L 298.794873 118.246834 
L 300.677074 113.484291 
L 302.367318 108.650289 
L 303.862902 103.752562 
L 305.161433 98.798945 
L 306.260833 93.797363 
L 307.159344 88.755818 
L 307.855529 83.682374 
L 308.348272 78.585149 
L 308.399524 77.890525 
L 303.750437 75.743318 
L 299.019205 73.783742 
L 294.213394 72.014933 
L 289.340694 70.439719 
L 284.4089 69.060622 
L 279.425902 67.879847 
L 274.399671 66.899283 
L 269.338249 66.120499 
L 264.249732 65.544741 
L 259.142261 65.17293 
L 254.024007 65.005661 
L 248.903158 65.043201 
L 243.787907 65.28549 
L 238.686436 65.732141 
L 233.606907 66.382439 
L 228.557446 67.235344 
L 223.546131 68.289492 
L 218.58098 69.543195 
L 213.669934 70.994449 
L 208.820852 72.640931 
L 204.041491 74.480007 
L 199.339495 76.508737 
L 194.722389 78.723873 
L 190.197557 81.121872 
L 185.772239 83.698898 
L 181.453514 86.450828 
L 177.248292 89.37326 
L 173.1633 92.461518 
L 169.205072 95.710662 
L 165.379942 99.115494 
L 161.694029 102.670567 
L 158.153229 106.370194 
L 154.763206 110.208455 
L 151.529385 114.179211 
L 148.456939 118.276109 
L 145.550782 122.492595 
L 142.815564 126.821924 
L 140.255662 131.257169 
L 137.875169 135.791236 
L 135.677895 140.416869 
L 133.667355 145.126671 
L 131.846764 149.913105 
L 130.219036 154.768515 
L 128.786775 159.685132 
L 127.552272 164.655092 
L 126.517501 169.670444 
L 125.684119 174.723164 
L 125.053458 179.805168 
L 124.626528 184.908327 
L 124.404011 190.024477 
L 124.386264 195.145433 
L 124.573314 200.263002 
L 124.788456 203.386828 
L 129.059043 206.212883 
L 133.439226 208.8659 
L 137.921998 211.341634 
L 142.500187 213.636125 
L 147.166469 215.745702 
L 151.913379 217.666989 
L 156.733323 219.396914 
L 161.618591 220.932709 
L 166.561365 222.271917 
L 171.553741 223.412396 
L 176.58773 224.35232 
L 181.655279 225.090187 
L 186.748281 225.624816 
L 191.858589 225.955351 
L 196.978028 226.081264 
L 202.098406 226.002353 
L 207.211533 225.718745 
L 212.309229 225.230893 
L 217.383338 224.539578 
L 221.968109 223.735622 
L 225.772692 227.163397 
L 229.711308 230.436288 
L 233.777653 233.549058 
L 237.965223 236.496728 
L 242.267319 239.274581 
L 246.677059 241.878175 
L 251.187387 244.303344 
L 255.791088 246.546207 
L 260.480797 248.603178 
L 265.249012 250.470965 
L 270.088105 252.14658 
L 274.990333 253.627343 
L 279.947855 254.910885 
L 284.952739 255.995151 
L 289.996979 256.878409 
L 295.072505 257.559244 
L 300.171198 258.036568 
L 305.2849 258.309617 
L 310.40543 258.377953 
L 315.870806 258.224835 
L 313.441616 253.716671 
L 310.834092 249.309255 
L 308.052404 245.009637 
L 305.101002 240.824696 
L 301.984607 236.761128 
L 298.708206 232.825433 
L 295.27704 229.023906 
L 291.696598 225.362631 
L 287.972608 221.847464 
L 284.111028 218.484028 
L 280.118035 215.277705 
L 276.000017 212.233624 
L 272.960376 210.14446 
L 276.020434 214.250619 
L 279.242248 218.231124 
L 282.620662 222.079607 
L 286.150272 225.789911 
L 289.825432 229.3561 
L 293.640261 232.772469 
L 297.588657 236.033554 
L 301.664303 239.134136 
L 305.86068 242.069255 
L 310.171073 244.834216 
L 314.588587 247.424596 
L 319.106156 249.836251 
L 320.352917 250.461591 
L 319.819288 250.107963 
L 315.487978 247.375885 
L 311.050878 244.819198 
L 306.515087 242.441993 
L 301.887862 240.248073 
L 297.176604 238.240948 
L 292.388851 236.423828 
L 287.532263 234.79962 
L 282.614608 233.370924 
L 277.643754 232.140024 
L 272.627654 231.108889 
L 267.574331 230.27917 
L 262.491871 229.652194 
L 257.388404 229.228964 
L 252.272094 229.010156 
L 247.151127 228.996121 
L 242.033695 229.186881 
L 236.927984 229.582132 
L 231.842164 230.18124 
L 226.784369 230.983248 
L 221.762692 231.986872 
L 216.785166 233.190506 
L 211.859754 234.592226 
L 206.994336 236.189789 
L 202.196695 237.980638 
L 197.474506 239.96191 
L 192.835324 242.130434 
L 188.286571 244.482741 
L 183.835524 247.015068 
L 179.489303 249.723364 
L 175.254862 252.603296 
L 171.138974 255.650257 
L 167.148225 258.859372 
L 163.288998 262.225508 
L 160.349519 264.980395 
L 165.244092 263.47452 
L 170.07453 261.774119 
L 174.833108 259.881913 
L 179.51221 257.800927 
L 184.104353 255.534492 
L 188.602189 253.086234 
L 192.998523 250.460068 
L 197.286322 247.660196 
L 201.458726 244.691097 
L 205.509061 241.557522 
L 209.430846 238.264484 
L 213.217807 234.817249 
L 216.863887 231.221334 
L 220.363252 227.482491 
L 223.299039 224.100125 
L 224.364838 229.108974 
L 225.630085 234.071197 
L 227.092755 238.978854 
L 228.75051 243.824094 
L 230.600696 248.599166 
L 232.640355 253.29643 
L 234.866223 257.908373 
L 237.274738 262.427616 
L 239.862049 266.846929 
L 242.624015 271.159242 
L 245.556219 275.357656 
L 248.653969 279.435455 
L 251.912309 283.386116 
L 253.686213 285.408 
L 257.026827 281.526659 
L 260.209556 277.514835 
L 263.229308 273.378944 
L 266.081254 269.125603 
L 268.760831 264.761617 
L 271.263751 260.293968 
L 273.58601 255.729801 
L 275.723895 251.076421 
L 277.673983 246.341269 
L 279.433156 241.531923 
L 280.9986 236.656076 
L 282.367809 231.721527 
L 283.538594 226.736172 
L 284.509081 221.707986 
L 285.277718 216.645013 
L 285.843275 211.555352 
L 286.204848 206.447146 
L 286.361858 201.328567 
L 286.314054 196.207804 
L 286.061512 191.093048 
L 285.745195 187.338478 
L 288.570499 183.067394 
L 291.222746 178.686744 
L 293.697691 174.203537 
L 295.991377 169.624945 
L 298.100133 164.958292 
L 300.020586 160.211044 
L 301.749663 155.390796 
L 303.284599 150.505259 
L 304.622938 145.562248 
L 305.762539 140.569673 
L 306.701578 135.535518 
L 307.438553 130.46784 
L 307.972286 125.374743 
L 308.301923 120.264377 
L 308.426935 115.144917 
L 308.347124 110.024552 
L 308.062617 104.911475 
L 307.573869 99.813865 
L 306.881662 94.739878 
L 305.987103 89.69763 
L 304.891623 84.695188 
L 303.596975 79.740554 
L 302.105231 74.841657 
L 300.418776 70.006331 
L 298.540308 65.242314 
L 297.861818 63.648 
L 295.919053 68.38616 
L 294.167317 73.198221 
L 292.609413 78.076482 
L 291.247834 83.013142 
L 290.084758 88.000301 
L 289.122046 93.029981 
L 288.361237 98.094137 
L 287.803548 103.184666 
L 287.449873 108.293425 
L 287.300777 113.41224 
L 287.356498 118.532923 
L 287.616947 123.647282 
L 288.081707 128.747135 
L 288.750036 133.824323 
L 289.620863 138.870724 
L 290.692796 143.878265 
L 291.964119 148.838934 
L 293.4328 153.744796 
L 295.096488 158.588002 
L 296.952521 163.360804 
L 298.997932 168.055567 
L 301.229446 172.66478 
L 303.643495 177.181069 
L 306.236217 181.59721 
L 309.003463 185.906136 
L 311.940806 190.100956 
L 315.043549 194.174958 
L 318.306725 198.121625 
L 321.725117 201.934643 
L 325.293254 205.607911 
L 329.005428 209.135554 
L 332.855701 212.511927 
L 336.837914 215.73163 
L 339.319949 217.609726 
L 334.58661 215.655243 
L 329.778899 213.891607 
L 324.904507 212.321638 
L 319.971232 210.947849 
L 314.986965 209.772437 
L 309.959682 208.797283 
L 304.897425 208.023946 
L 299.808291 207.453665 
L 294.700423 207.08735 
L 289.581992 206.925589 
L 284.461187 206.96864 
L 279.346199 207.216434 
L 275.298134 207.558385 
L 275.751888 212.659229 
L 276.409258 217.737847 
L 277.269193 222.786116 
L 278.330317 227.795958 
L 279.590932 232.759359 
L 281.049022 237.668379 
L 282.702254 242.515164 
L 284.547984 247.29196 
L 286.583258 251.991126 
L 288.80482 256.605144 
L 291.209117 261.126633 
L 293.792302 265.548358 
L 296.550243 269.863247 
L 299.478527 274.064396 
L 302.57247 278.145084 
L 303.616885 279.449247 
L 298.544707 278.743908 
L 293.448379 278.241966 
L 288.336055 277.944224 
L 283.215915 277.851159 
L 278.096148 277.96292 
L 272.984946 278.279327 
L 267.890485 278.799874 
L 262.820915 279.52373 
L 257.784347 280.449735 
L 252.788838 281.576408 
L 247.84238 282.901947 
L 242.952886 284.424231 
L 240.113789 285.408 
L 235.261364 283.771395 
L 230.347374 282.330145 
L 225.37968 281.086554 
L 220.366229 280.042613 
L 215.315042 279.199992 
L 210.2342 278.560038 
L 205.13183 278.123775 
L 200.016096 277.891902 
L 194.895181 277.86479 
L 189.777278 278.04248 
L 184.670575 278.424691 
L 179.583241 279.010809 
L 174.523415 279.799897 
L 169.480014 280.794877 
L 172.850772 276.939686 
L 176.064667 272.952785 
L 179.116558 268.840552 
L 182.001562 264.609564 
L 184.715064 260.266592 
L 187.252723 255.818582 
L 189.610479 251.272652 
L 191.78456 246.636072 
L 193.771489 241.916261 
L 195.568086 237.120769 
L 197.171477 232.257268 
L 198.579098 227.33354 
L 199.788697 222.35746 
L 200.798337 217.336989 
L 201.600471 212.322693 
L 196.636359 213.580509 
L 191.726518 215.035831 
L 186.878802 216.68633 
L 182.100966 218.529366 
L 177.400653 220.56199 
L 172.785383 222.780951 
L 168.262539 225.182698 
L 163.839358 227.76339 
L 159.522915 230.518897 
L 155.320116 233.444812 
L 151.237683 236.536454 
L 147.282149 239.788876 
L 146.297191 240.64105 
L 151.109695 238.890533 
L 155.848347 236.948967 
L 160.505567 234.819459 
L 165.073904 232.505415 
L 169.54605 230.010537 
L 173.91485 227.338817 
L 178.173315 224.494529 
L 182.314632 221.482222 
L 186.332177 218.306717 
L 190.219522 214.973092 
L 193.970448 211.486682 
L 197.417687 208.021776 
L 193.306169 211.074631 
L 189.320022 214.289462 
L 185.465623 217.661124 
L 181.749137 221.184224 
L 178.17651 224.853126 
L 174.753458 228.66196 
L 171.485457 232.604633 
L 168.377735 236.674838 
L 165.435264 240.866062 
L 162.66275 245.171602 
L 160.06463 249.584568 
L 157.645059 254.097902 
L 155.997889 257.443151 
L 161.109469 257.753392 
L 166.229367 257.858976 
L 171.349392 257.759734 
L 176.461352 257.455825 
L 181.557071 256.947735 
L 186.628395 256.236278 
L 191.667212 255.32259 
L 196.665461 254.208135 
L 201.615145 252.894694 
L 206.508347 251.384369 
L 211.337238 249.679577 
L 216.094092 247.783044 
L 220.7713 245.697805 
L 225.36138 243.427195 
L 229.856988 240.974847 
L 234.250933 238.344685 
L 238.536184 235.540915 
L 242.705886 232.568024 
L 246.75337 229.430767 
L 250.672159 226.134163 
L 254.455984 222.683487 
L 255.024833 222.140162 
L 260.145614 222.094277 
L 265.260464 221.843652 
L 270.3612 221.388688 
L 275.439662 220.730113 
L 280.487727 219.868981 
L 285.497317 218.806668 
L 290.460419 217.544876 
L 295.369092 216.085621 
L 300.215485 214.431239 
L 304.991844 212.584376 
L 309.690527 210.547987 
L 314.304017 208.32533 
L 318.824935 205.919961 
L 323.246048 203.335727 
L 327.560282 200.576762 
L 331.760736 197.647481 
L 335.840691 194.55257 
L 339.793618 191.29698 
L 343.613195 187.885919 
L 347.29331 184.324844 
L 350.828076 180.619453 
L 354.211839 176.775672 
L 357.439185 172.799652 
L 360.683168 168.448454 
L 355.596505 169.040362 
L 350.53758 169.83521 
L 345.514487 170.831724 
L 340.535262 172.028311 
L 335.607871 173.423058 
L 330.740196 175.013731 
L 325.940025 176.797787 
L 321.215036 178.772372 
L 316.57279 180.934327 
L 312.020711 183.280193 
L 307.566084 185.806216 
L 303.216034 188.508357 
L 298.97752 191.382292 
L 294.857323 194.423424 
L 290.862035 197.626886 
L 286.998047 200.987556 
L 283.27154 204.500055 
L 279.688477 208.158766 
L 276.25459 211.957834 
L 272.975371 215.891182 
L 269.856068 219.952517 
L 266.901669 224.135343 
L 264.116903 228.432968 
L 261.506222 232.838515 
L 259.073805 237.344939 
L 256.823543 241.945028 
L 254.759035 246.631424 
L 252.883585 251.39663 
L 251.200191 256.233022 
L 249.711549 261.132863 
L 248.420039 266.088315 
L 247.327727 271.09145 
L 246.43636 276.134263 
L 245.747366 281.208688 
L 245.332507 285.408 
L 245.278482 284.770118 
L 244.731618 279.678415 
L 243.981577 274.612654 
L 243.029561 269.580938 
L 241.87709 264.591317 
L 240.52601 259.651774 
L 238.978482 254.770211 
L 237.236981 249.954437 
L 235.304294 245.212157 
L 233.183511 240.550957 
L 230.878027 235.978294 
L 228.39153 231.501484 
L 225.727996 227.127688 
L 223.830742 224.235034 
L 219.36273 226.737308 
L 214.998357 229.416253 
L 210.744604 232.267584 
L 206.608276 235.286738 
L 202.595991 238.468887 
L 198.714167 241.808939 
L 194.969015 245.301551 
L 191.366525 248.941135 
L 187.912462 252.721869 
L 184.612351 256.637704 
L 181.471471 260.682377 
L 178.494847 264.849416 
L 175.687242 269.132154 
L 173.053146 273.523742 
L 170.596774 278.017152 
L 169.324684 280.525836 
L 174.440418 280.757698 
L 179.561333 280.784799 
L 184.679235 280.607097 
L 189.785938 280.224875 
L 194.87327 279.638746 
L 199.933095 278.849646 
L 204.957316 277.858839 
L 209.937897 276.667908 
L 214.86687 275.278761 
L 219.736349 273.693618 
L 224.538544 271.915015 
L 229.265772 269.945799 
L 233.910472 267.78912 
L 238.465212 265.448427 
L 242.922706 262.927465 
L 247.275823 260.230268 
L 251.517599 257.36115 
L 255.641248 254.324701 
L 259.640173 251.125778 
L 263.507976 247.769501 
L 267.23847 244.261237 
L 270.825687 240.606599 
L 274.263888 236.811434 
L 277.547573 232.881814 
L 280.671488 228.824025 
L 283.630636 224.644558 
L 286.420283 220.3501 
L 289.035966 215.94752 
L 291.473501 211.443863 
L 293.728988 206.846333 
L 295.798818 202.162285 
L 297.679681 197.399213 
L 299.368567 192.564736 
L 300.862774 187.666589 
L 302.159913 182.712608 
L 303.257908 177.710717 
L 304.155002 172.66892 
L 304.849761 167.595281 
L 305.341072 162.497917 
L 305.628151 157.384984 
L 305.710536 152.26466 
L 305.588098 147.145138 
L 305.261031 142.034606 
L 304.729859 136.941242 
L 303.995432 131.873193 
L 303.058924 126.838568 
L 301.921835 121.84542 
L 300.585981 116.901737 
L 299.053502 112.015429 
L 297.326849 107.194312 
L 295.408783 102.446099 
L 293.302374 97.778386 
L 291.010991 93.198641 
L 288.5383 88.71419 
L 285.888256 84.332207 
L 283.0651 80.059703 
L 280.073348 75.903513 
L 276.917785 71.870285 
L 273.60346 67.966473 
L 270.135675 64.19832 
L 269.605352 63.648 
L 266.115136 67.395385 
L 262.777567 71.279344 
L 259.597986 75.293664 
L 256.581477 79.431922 
L 253.732867 83.687498 
L 251.056714 88.053583 
L 248.557298 92.523194 
L 246.238619 97.08918 
L 244.104384 101.744236 
L 242.15801 106.480915 
L 240.402609 111.29164 
L 238.84099 116.168713 
L 237.475651 121.104334 
L 236.931036 123.320526 
L 235.803772 118.325151 
L 234.477648 113.378849 
L 232.954785 108.489535 
L 231.23762 103.665031 
L 229.3289 98.913053 
L 227.231678 94.241205 
L 224.94931 89.656961 
L 222.485447 85.167654 
L 219.84403 80.780466 
L 217.029285 76.502416 
L 214.045715 72.340347 
L 210.898093 68.300919 
L 207.591455 64.390594 
L 206.932463 63.648 
L 203.595602 67.532567 
L 200.416751 71.547466 
L 197.400997 75.686273 
L 194.553162 79.942368 
L 191.877804 84.308941 
L 189.379203 88.779007 
L 187.061355 93.345415 
L 184.927969 98.00086 
L 182.982457 102.737893 
L 181.227933 107.548938 
L 179.667202 112.426296 
L 178.302762 117.362165 
L 177.136795 122.348649 
L 176.171168 127.377771 
L 175.407424 132.441484 
L 174.846785 137.531689 
L 174.490149 142.640242 
L 174.338085 147.75897 
L 174.390838 152.879685 
L 174.648323 157.994194 
L 175.110127 163.094316 
L 175.775513 168.17189 
L 176.643415 173.218795 
L 177.712445 178.226956 
L 178.980893 183.188361 
L 180.44673 188.095073 
L 182.107611 192.939243 
L 183.960878 197.71312 
L 186.003567 202.409068 
L 188.232409 207.019573 
L 190.64384 211.537261 
L 193.234001 215.954904 
L 195.99875 220.265434 
L 198.933661 224.461955 
L 202.034042 228.537755 
L 205.294931 232.486313 
L 208.711111 236.301311 
L 212.277118 239.976647 
L 215.987248 243.50644 
L 219.835563 246.885045 
L 223.815909 250.107056 
L 227.921916 253.167318 
L 232.147017 256.060935 
L 236.484453 258.783279 
L 240.927283 261.329994 
L 245.468401 263.697007 
L 250.100542 265.880529 
L 254.816296 267.877069 
L 259.608118 269.683432 
L 264.468341 271.296728 
L 269.389192 272.714377 
L 274.362798 273.93411 
L 279.381202 274.953977 
L 284.436375 275.772345 
L 289.52023 276.387905 
L 294.624635 276.799673 
L 299.741423 277.00699 
L 305.02738 277.006199 
L 302.470408 272.569264 
L 299.738052 268.238129 
L 296.834682 264.019723 
L 293.764943 259.920796 
L 290.533747 255.947904 
L 287.146261 252.107403 
L 283.607907 248.405438 
L 279.924343 244.84793 
L 276.101464 241.440571 
L 272.145384 238.188812 
L 268.062433 235.097855 
L 263.859143 232.172645 
L 259.542238 229.417862 
L 255.118624 226.837912 
L 250.595378 224.436924 
L 249.609184 223.94378 
L 246.889151 228.282666 
L 244.344804 232.726853 
L 241.980212 237.269232 
L 239.799158 241.902536 
L 237.805131 246.619352 
L 236.001322 251.412136 
L 234.390616 256.273219 
L 232.97559 261.194824 
L 231.758507 266.169079 
L 230.741315 271.188026 
L 229.925641 276.243634 
L 229.31279 281.327817 
L 228.969366 285.408 
L 228.924285 284.769424 
L 228.448822 279.670558 
L 227.76984 274.594783 
L 226.888424 269.550221 
L 225.805985 264.544941 
L 224.524253 259.586951 
L 223.04528 254.684183 
L 221.371432 249.844479 
L 219.505386 245.075582 
L 217.450127 240.385122 
L 215.208944 235.780603 
L 212.785423 231.269389 
L 210.183439 226.8587 
L 207.407156 222.55559 
L 204.461016 218.366944 
L 201.34973 214.299462 
L 198.078278 210.359652 
L 194.651892 206.553817 
L 191.076054 202.888045 
L 187.356485 199.368201 
L 183.499134 195.999915 
L 179.510174 192.788576 
L 175.395984 189.739322 
L 171.163149 186.857031 
L 166.818438 184.146313 
L 162.368802 181.611506 
L 157.821361 179.256665 
L 153.183389 177.085556 
L 148.462305 175.101653 
L 143.665662 173.308131 
L 138.801135 171.707857 
L 133.876505 170.303393 
L 128.89965 169.096984 
L 123.878533 168.090562 
L 118.821187 167.285736 
L 113.735701 166.683794 
L 112.711298 166.587424 
L 115.742265 170.715104 
L 118.93587 174.718276 
L 122.287005 178.590535 
L 125.790309 182.325688 
L 129.440177 185.917758 
L 133.230769 189.360999 
L 137.156023 192.649903 
L 141.209658 195.779207 
L 145.385189 198.743907 
L 149.675936 201.539258 
L 154.075036 204.160789 
L 158.57545 206.604306 
L 163.169979 208.8659 
L 167.851272 210.941952 
L 172.611841 212.829143 
L 177.444069 214.524451 
L 182.340226 216.025167 
L 187.29248 217.328887 
L 192.292907 218.433528 
L 197.333508 219.337321 
L 202.406219 220.038821 
L 207.502926 220.536905 
L 212.615473 220.830777 
L 214.392277 220.884943 
L 217.831341 224.679325 
L 221.419389 228.333147 
L 225.150681 231.840562 
L 229.019248 235.19596 
L 233.0189 238.393973 
L 237.143239 241.429484 
L 241.385667 244.297638 
L 245.739397 246.993845 
L 250.197465 249.513793 
L 254.752737 251.85345 
L 259.397927 254.009073 
L 264.125603 255.977214 
L 268.928203 257.754725 
L 273.798042 259.33876 
L 278.72733 260.726787 
L 283.708182 261.916584 
L 288.732629 262.906249 
L 293.792632 263.694198 
L 298.880098 264.279171 
L 303.986887 264.660231 
L 309.10483 264.83677 
L 312.04833 264.845556 
L 309.437052 260.440363 
L 306.651702 256.143116 
L 303.696735 251.960692 
L 300.57688 247.89978 
L 297.297128 243.966877 
L 293.862724 240.168275 
L 290.279164 236.510052 
L 286.552181 232.998058 
L 282.687737 229.637914 
L 278.692014 226.434993 
L 274.571404 223.394421 
L 270.3325 220.521062 
L 265.982083 217.819512 
L 264.686593 217.060733 
L 265.475963 222.120515 
L 266.467039 227.144684 
L 267.658236 232.125201 
L 269.047647 237.054099 
L 270.63305 241.923493 
L 272.411909 246.725593 
L 274.381377 251.452717 
L 276.538305 256.097301 
L 278.879241 260.651916 
L 281.400441 265.109276 
L 284.097871 269.462249 
L 286.967216 273.703871 
L 290.003885 277.827358 
L 293.203021 281.826111 
L 296.302114 285.408 
L 299.646966 281.530312 
L 302.834076 277.521967 
L 305.858346 273.389378 
L 308.714937 269.139156 
L 311.39928 264.7781 
L 313.90708 260.313188 
L 316.234325 255.751562 
L 318.377293 251.10052 
L 320.332554 246.367502 
L 322.09698 241.560081 
L 323.66775 236.685946 
L 325.04235 231.752897 
L 326.218581 226.768824 
L 327.194562 221.741701 
L 327.96873 216.679571 
L 328.539848 211.590531 
L 328.907002 206.482723 
L 329.069604 201.364319 
L 329.027395 196.243507 
L 328.780442 191.128478 
L 328.329139 186.027417 
L 327.67421 180.948483 
L 326.816701 175.899802 
L 325.757985 170.88945 
L 324.499755 165.925444 
L 323.044024 161.015724 
L 321.393121 156.168145 
L 319.549687 151.390462 
L 317.516671 146.690319 
L 315.297326 142.075234 
L 312.895202 137.55259 
L 310.314142 133.129624 
L 307.558275 128.813411 
L 304.63201 124.610855 
L 301.540029 120.52868 
L 298.287277 116.573417 
L 294.878958 112.751393 
L 291.320526 109.068723 
L 287.617672 105.531297 
L 283.776322 102.144776 
L 279.802619 98.914577 
L 275.702921 95.845867 
L 271.483786 92.943557 
L 267.151966 90.212288 
L 262.714388 87.65643 
L 258.178153 85.280073 
L 253.550518 83.087017 
L 248.838885 81.080772 
L 244.050793 79.264547 
L 239.193901 77.641247 
L 234.275979 76.213469 
L 229.304896 74.983498 
L 224.288603 73.953301 
L 219.235125 73.124526 
L 214.152548 72.498499 
L 209.049002 72.076222 
L 203.932651 71.858371 
L 198.811681 71.845293 
L 193.694285 72.037009 
L 188.588649 72.433214 
L 183.50294 73.033272 
L 178.445295 73.836225 
L 173.423806 74.840787 
L 168.446505 76.045352 
L 164.314772 77.207585 
L 164.314772 77.207585 
" style="fill:none;stroke:#1f77b4;stroke-linecap:square;stroke-width:1.5;"/>
   </g>
   <g id="patch_4">
    <path d="M 82.520165 307.584 
L 82.520165 41.472 
" style="fill:none;stroke:#000000;stroke-linecap:square;stroke-linejoin:miter;stroke-width:0.8;"/>
   </g>
   <g id="patch_5">
    <path d="M 389.799835 307.584 
L 389.799835 41.472 
" style="fill:none;stroke:#000000;stroke-linecap:square;stroke-linejoin:miter;stroke-width:0.8;"/>
   </g>
   <g id="patch_6">
    <path d="M 82.520165 307.584 
L 389.799835 307.584 
" style="fill:none;stroke:#000000;stroke-linecap:square;stroke-linejoin:miter;stroke-width:0.8;"/>
   </g>
   <g id="patch_7">
    <path d="M 82.520165 41.472 
L 389.799835 41.472 
" style="fill:none;stroke:#000000;stroke-linecap:square;stroke-linejoin:miter;stroke-width:0.8;"/>
   </g>
  </g>
 </g>
 <defs>
  <clipPath id="p45ba023aa1">
   <rect height="266.112" width="307.27967" x="82.520165" y="41.472"/>
  </clipPath>
 </defs>
</svg>
