<?xml version="1.0" encoding="utf-8" standalone="no"?>
<!DOCTYPE svg PUBLIC "-//W3C//DTD SVG 1.1//EN"
  "http://www.w3.org/Graphics/SVG/1.1/DTD/svg11.dtd">
<!-- Created with matplotlib (http://matplotlib.org/) -->
<svg height="345.6pt" version="1.1" viewBox="0 0 460.8 345.6" width="460.8pt" xmlns="http://www.w3.org/2000/svg" xmlns:xlink="http://www.w3.org/1999/xlink">
 <defs>
  <style type="text/css">
*{stroke-linecap:butt;stroke-linejoin:round;}
  </style>
 </defs>
 <g id="figure_1">
  <g id="patch_1">
   <path d="M 0 345.6 
L 460.8 345.6 
L 460.8 0 
L 0 0 
z
" style="fill:#ffffff;"/>
  </g>
  <g id="axes_1">
   <g id="patch_2">
    <path d="M 82.520165 307.584 
L 389.799835 307.584 
L 389.799835 41.472 
L 82.520165 41.472 
z
" style="fill:#ffffff;"/>
   </g>
   <g id="PathCollection_1">
    <defs>
     <path d="M 0 2.738613 
C 0.726289 2.738613 1.422928 2.450055 1.936492 1.936492 
C 2.450055 1.422928 2.738613 0.726289 2.738613 0 
C 2.738613 -0.726289 2.450055 -1.422928 1.936492 -1.936492 
C 1.422928 -2.450055 0.726289 -2.738613 0 -2.738613 
C -0.726289 -2.738613 -1.422928 -2.450055 -1.936492 -1.936492 
C -2.450055 -1.422928 -2.738613 -0.726289 -2.738613 0 
C -2.738613 0.726289 -2.450055 1.422928 -1.936492 1.936492 
C -1.422928 2.450055 -0.726289 2.738613 0 2.738613 
z
" id="m5869a2a8a1" style="stroke:#000000;"/>
    </defs>
    <g clip-path="url(#p5165351e7e)">
     <use style="stroke:#000000;" x="256.823774" xlink:href="#m5869a2a8a1" y="127.668547"/>
    </g>
   </g>
   <g id="Quiver_1">
    <path clip-path="url(#p5165351e7e)" d="M 256.40278 127.025979 
L 271.181848 117.343113 
L 269.697292 116.478971 
L 277.385956 114.196734 
L 272.223257 120.33438 
L 272.023837 118.62825 
L 257.244768 128.311115 
L 256.40278 127.025979 
"/>
   </g>
   <g id="patch_3">
    <path clip-path="url(#p5165351e7e)" d="M 236.16 225.741278 
C 249.74192 225.741278 262.769389 220.345124 272.373256 210.741256 
C 281.977124 201.137389 287.373278 188.10992 287.373278 174.528 
C 287.373278 160.94608 281.977124 147.918611 272.373256 138.314744 
C 262.769389 128.710876 249.74192 123.314722 236.16 123.314722 
C 222.57808 123.314722 209.550611 128.710876 199.946744 138.314744 
C 190.342876 147.918611 184.946722 160.94608 184.946722 174.528 
C 184.946722 188.10992 190.342876 201.137389 199.946744 210.741256 
C 209.550611 220.345124 222.57808 225.741278 236.16 225.741278 
z
" style="fill:#009900;fill-opacity:0.5;stroke:#009900;stroke-linejoin:miter;stroke-width:2;"/>
   </g>
   <g id="matplotlib.axis_1">
    <g id="xtick_1">
     <g id="line2d_1">
      <defs>
       <path d="M 0 0 
L 0 3.5 
" id="ma1c6f1adac" style="stroke:#000000;stroke-width:0.8;"/>
      </defs>
      <g>
       <use style="stroke:#000000;stroke-width:0.8;" x="108.126804" xlink:href="#ma1c6f1adac" y="307.584"/>
      </g>
     </g>
     <g id="text_1">
      <!-- −2 -->
      <defs>
       <path d="M 10.59375 35.5 
L 73.1875 35.5 
L 73.1875 27.203125 
L 10.59375 27.203125 
z
" id="DejaVuSans-2212"/>
       <path d="M 19.1875 8.296875 
L 53.609375 8.296875 
L 53.609375 0 
L 7.328125 0 
L 7.328125 8.296875 
Q 12.9375 14.109375 22.625 23.890625 
Q 32.328125 33.6875 34.8125 36.53125 
Q 39.546875 41.84375 41.421875 45.53125 
Q 43.3125 49.21875 43.3125 52.78125 
Q 43.3125 58.59375 39.234375 62.25 
Q 35.15625 65.921875 28.609375 65.921875 
Q 23.96875 65.921875 18.8125 64.3125 
Q 13.671875 62.703125 7.8125 59.421875 
L 7.8125 69.390625 
Q 13.765625 71.78125 18.9375 73 
Q 24.125 74.21875 28.421875 74.21875 
Q 39.75 74.21875 46.484375 68.546875 
Q 53.21875 62.890625 53.21875 53.421875 
Q 53.21875 48.921875 51.53125 44.890625 
Q 49.859375 40.875 45.40625 35.40625 
Q 44.1875 33.984375 37.640625 27.21875 
Q 31.109375 20.453125 19.1875 8.296875 
z
" id="DejaVuSans-32"/>
      </defs>
      <g transform="translate(100.755711 322.182437)scale(0.1 -0.1)">
       <use xlink:href="#DejaVuSans-2212"/>
       <use x="83.789062" xlink:href="#DejaVuSans-32"/>
      </g>
     </g>
    </g>
    <g id="xtick_2">
     <g id="line2d_2">
      <g>
       <use style="stroke:#000000;stroke-width:0.8;" x="172.143402" xlink:href="#ma1c6f1adac" y="307.584"/>
      </g>
     </g>
     <g id="text_2">
      <!-- −1 -->
      <defs>
       <path d="M 12.40625 8.296875 
L 28.515625 8.296875 
L 28.515625 63.921875 
L 10.984375 60.40625 
L 10.984375 69.390625 
L 28.421875 72.90625 
L 38.28125 72.90625 
L 38.28125 8.296875 
L 54.390625 8.296875 
L 54.390625 0 
L 12.40625 0 
z
" id="DejaVuSans-31"/>
      </defs>
      <g transform="translate(164.772308 322.182437)scale(0.1 -0.1)">
       <use xlink:href="#DejaVuSans-2212"/>
       <use x="83.789062" xlink:href="#DejaVuSans-31"/>
      </g>
     </g>
    </g>
    <g id="xtick_3">
     <g id="line2d_3">
      <g>
       <use style="stroke:#000000;stroke-width:0.8;" x="236.16" xlink:href="#ma1c6f1adac" y="307.584"/>
      </g>
     </g>
     <g id="text_3">
      <!-- 0 -->
      <defs>
       <path d="M 31.78125 66.40625 
Q 24.171875 66.40625 20.328125 58.90625 
Q 16.5 51.421875 16.5 36.375 
Q 16.5 21.390625 20.328125 13.890625 
Q 24.171875 6.390625 31.78125 6.390625 
Q 39.453125 6.390625 43.28125 13.890625 
Q 47.125 21.390625 47.125 36.375 
Q 47.125 51.421875 43.28125 58.90625 
Q 39.453125 66.40625 31.78125 66.40625 
z
M 31.78125 74.21875 
Q 44.046875 74.21875 50.515625 64.515625 
Q 56.984375 54.828125 56.984375 36.375 
Q 56.984375 17.96875 50.515625 8.265625 
Q 44.046875 -1.421875 31.78125 -1.421875 
Q 19.53125 -1.421875 13.0625 8.265625 
Q 6.59375 17.96875 6.59375 36.375 
Q 6.59375 54.828125 13.0625 64.515625 
Q 19.53125 74.21875 31.78125 74.21875 
z
" id="DejaVuSans-30"/>
      </defs>
      <g transform="translate(232.97875 322.182437)scale(0.1 -0.1)">
       <use xlink:href="#DejaVuSans-30"/>
      </g>
     </g>
    </g>
    <g id="xtick_4">
     <g id="line2d_4">
      <g>
       <use style="stroke:#000000;stroke-width:0.8;" x="300.176598" xlink:href="#ma1c6f1adac" y="307.584"/>
      </g>
     </g>
     <g id="text_4">
      <!-- 1 -->
      <g transform="translate(296.995348 322.182437)scale(0.1 -0.1)">
       <use xlink:href="#DejaVuSans-31"/>
      </g>
     </g>
    </g>
    <g id="xtick_5">
     <g id="line2d_5">
      <g>
       <use style="stroke:#000000;stroke-width:0.8;" x="364.193196" xlink:href="#ma1c6f1adac" y="307.584"/>
      </g>
     </g>
     <g id="text_5">
      <!-- 2 -->
      <g transform="translate(361.011946 322.182437)scale(0.1 -0.1)">
       <use xlink:href="#DejaVuSans-32"/>
      </g>
     </g>
    </g>
   </g>
   <g id="matplotlib.axis_2">
    <g id="ytick_1">
     <g id="line2d_6">
      <defs>
       <path d="M 0 0 
L -3.5 0 
" id="mdb9d1baf5a" style="stroke:#000000;stroke-width:0.8;"/>
      </defs>
      <g>
       <use style="stroke:#000000;stroke-width:0.8;" x="82.520165" xlink:href="#mdb9d1baf5a" y="302.561196"/>
      </g>
     </g>
     <g id="text_6">
      <!-- −2.0 -->
      <defs>
       <path d="M 10.6875 12.40625 
L 21 12.40625 
L 21 0 
L 10.6875 0 
z
" id="DejaVuSans-2e"/>
      </defs>
      <g transform="translate(51.237353 306.360414)scale(0.1 -0.1)">
       <use xlink:href="#DejaVuSans-2212"/>
       <use x="83.789062" xlink:href="#DejaVuSans-32"/>
       <use x="147.412109" xlink:href="#DejaVuSans-2e"/>
       <use x="179.199219" xlink:href="#DejaVuSans-30"/>
      </g>
     </g>
    </g>
    <g id="ytick_2">
     <g id="line2d_7">
      <g>
       <use style="stroke:#000000;stroke-width:0.8;" x="82.520165" xlink:href="#mdb9d1baf5a" y="270.552897"/>
      </g>
     </g>
     <g id="text_7">
      <!-- −1.5 -->
      <defs>
       <path d="M 10.796875 72.90625 
L 49.515625 72.90625 
L 49.515625 64.59375 
L 19.828125 64.59375 
L 19.828125 46.734375 
Q 21.96875 47.46875 24.109375 47.828125 
Q 26.265625 48.1875 28.421875 48.1875 
Q 40.625 48.1875 47.75 41.5 
Q 54.890625 34.8125 54.890625 23.390625 
Q 54.890625 11.625 47.5625 5.09375 
Q 40.234375 -1.421875 26.90625 -1.421875 
Q 22.3125 -1.421875 17.546875 -0.640625 
Q 12.796875 0.140625 7.71875 1.703125 
L 7.71875 11.625 
Q 12.109375 9.234375 16.796875 8.0625 
Q 21.484375 6.890625 26.703125 6.890625 
Q 35.15625 6.890625 40.078125 11.328125 
Q 45.015625 15.765625 45.015625 23.390625 
Q 45.015625 31 40.078125 35.4375 
Q 35.15625 39.890625 26.703125 39.890625 
Q 22.75 39.890625 18.8125 39.015625 
Q 14.890625 38.140625 10.796875 36.28125 
z
" id="DejaVuSans-35"/>
      </defs>
      <g transform="translate(51.237353 274.352116)scale(0.1 -0.1)">
       <use xlink:href="#DejaVuSans-2212"/>
       <use x="83.789062" xlink:href="#DejaVuSans-31"/>
       <use x="147.412109" xlink:href="#DejaVuSans-2e"/>
       <use x="179.199219" xlink:href="#DejaVuSans-35"/>
      </g>
     </g>
    </g>
    <g id="ytick_3">
     <g id="line2d_8">
      <g>
       <use style="stroke:#000000;stroke-width:0.8;" x="82.520165" xlink:href="#mdb9d1baf5a" y="238.544598"/>
      </g>
     </g>
     <g id="text_8">
      <!-- −1.0 -->
      <g transform="translate(51.237353 242.343817)scale(0.1 -0.1)">
       <use xlink:href="#DejaVuSans-2212"/>
       <use x="83.789062" xlink:href="#DejaVuSans-31"/>
       <use x="147.412109" xlink:href="#DejaVuSans-2e"/>
       <use x="179.199219" xlink:href="#DejaVuSans-30"/>
      </g>
     </g>
    </g>
    <g id="ytick_4">
     <g id="line2d_9">
      <g>
       <use style="stroke:#000000;stroke-width:0.8;" x="82.520165" xlink:href="#mdb9d1baf5a" y="206.536299"/>
      </g>
     </g>
     <g id="text_9">
      <!-- −0.5 -->
      <g transform="translate(51.237353 210.335518)scale(0.1 -0.1)">
       <use xlink:href="#DejaVuSans-2212"/>
       <use x="83.789062" xlink:href="#DejaVuSans-30"/>
       <use x="147.412109" xlink:href="#DejaVuSans-2e"/>
       <use x="179.199219" xlink:href="#DejaVuSans-35"/>
      </g>
     </g>
    </g>
    <g id="ytick_5">
     <g id="line2d_10">
      <g>
       <use style="stroke:#000000;stroke-width:0.8;" x="82.520165" xlink:href="#mdb9d1baf5a" y="174.528"/>
      </g>
     </g>
     <g id="text_10">
      <!-- 0.0 -->
      <g transform="translate(59.61704 178.327219)scale(0.1 -0.1)">
       <use xlink:href="#DejaVuSans-30"/>
       <use x="63.623047" xlink:href="#DejaVuSans-2e"/>
       <use x="95.410156" xlink:href="#DejaVuSans-30"/>
      </g>
     </g>
    </g>
    <g id="ytick_6">
     <g id="line2d_11">
      <g>
       <use style="stroke:#000000;stroke-width:0.8;" x="82.520165" xlink:href="#mdb9d1baf5a" y="142.519701"/>
      </g>
     </g>
     <g id="text_11">
      <!-- 0.5 -->
      <g transform="translate(59.61704 146.31892)scale(0.1 -0.1)">
       <use xlink:href="#DejaVuSans-30"/>
       <use x="63.623047" xlink:href="#DejaVuSans-2e"/>
       <use x="95.410156" xlink:href="#DejaVuSans-35"/>
      </g>
     </g>
    </g>
    <g id="ytick_7">
     <g id="line2d_12">
      <g>
       <use style="stroke:#000000;stroke-width:0.8;" x="82.520165" xlink:href="#mdb9d1baf5a" y="110.511402"/>
      </g>
     </g>
     <g id="text_12">
      <!-- 1.0 -->
      <g transform="translate(59.61704 114.310621)scale(0.1 -0.1)">
       <use xlink:href="#DejaVuSans-31"/>
       <use x="63.623047" xlink:href="#DejaVuSans-2e"/>
       <use x="95.410156" xlink:href="#DejaVuSans-30"/>
      </g>
     </g>
    </g>
    <g id="ytick_8">
     <g id="line2d_13">
      <g>
       <use style="stroke:#000000;stroke-width:0.8;" x="82.520165" xlink:href="#mdb9d1baf5a" y="78.503103"/>
      </g>
     </g>
     <g id="text_13">
      <!-- 1.5 -->
      <g transform="translate(59.61704 82.302322)scale(0.1 -0.1)">
       <use xlink:href="#DejaVuSans-31"/>
       <use x="63.623047" xlink:href="#DejaVuSans-2e"/>
       <use x="95.410156" xlink:href="#DejaVuSans-35"/>
      </g>
     </g>
    </g>
    <g id="ytick_9">
     <g id="line2d_14">
      <g>
       <use style="stroke:#000000;stroke-width:0.8;" x="82.520165" xlink:href="#mdb9d1baf5a" y="46.494804"/>
      </g>
     </g>
     <g id="text_14">
      <!-- 2.0 -->
      <g transform="translate(59.61704 50.294023)scale(0.1 -0.1)">
       <use xlink:href="#DejaVuSans-32"/>
       <use x="63.623047" xlink:href="#DejaVuSans-2e"/>
       <use x="95.410156" xlink:href="#DejaVuSans-30"/>
      </g>
     </g>
    </g>
   </g>
   <g id="line2d_15">
    <path clip-path="url(#p5165351e7e)" d="M 300.176598 63.648 
L 172.143402 63.648 
" style="fill:none;stroke:#009900;stroke-linecap:square;stroke-width:2;"/>
   </g>
   <g id="line2d_16">
    <path clip-path="url(#p5165351e7e)" d="M 172.143402 63.648 
L 108.126804 174.528 
" style="fill:none;stroke:#009900;stroke-linecap:square;stroke-width:2;"/>
   </g>
   <g id="line2d_17">
    <path clip-path="url(#p5165351e7e)" d="M 108.126804 174.528 
L 172.143402 285.408 
" style="fill:none;stroke:#009900;stroke-linecap:square;stroke-width:2;"/>
   </g>
   <g id="line2d_18">
    <path clip-path="url(#p5165351e7e)" d="M 172.143402 285.408 
L 300.176598 285.408 
" style="fill:none;stroke:#009900;stroke-linecap:square;stroke-width:2;"/>
   </g>
   <g id="line2d_19">
    <path clip-path="url(#p5165351e7e)" d="M 300.176598 285.408 
L 364.193196 174.528 
" style="fill:none;stroke:#009900;stroke-linecap:square;stroke-width:2;"/>
   </g>
   <g id="line2d_20">
    <path clip-path="url(#p5165351e7e)" d="M 364.193196 174.528 
L 300.176598 63.648 
" style="fill:none;stroke:#009900;stroke-linecap:square;stroke-width:2;"/>
   </g>
   <g id="line2d_21">
    <path clip-path="url(#p5165351e7e)" d="M 280.528104 282.018507 
L 281.9412 277.096347 
L 283.156331 272.121615 
L 284.171554 267.10227 
L 284.985244 262.046341 
L 285.5961 256.961919 
L 286.003146 251.857135 
L 286.205728 246.740157 
L 286.203524 241.619171 
L 285.996537 236.50237 
L 285.585098 231.397938 
L 284.969866 226.314043 
L 284.151824 221.258817 
L 283.132281 216.240348 
L 281.912868 211.266664 
L 280.495537 206.345721 
L 279.175431 202.321391 
L 284.265472 201.759266 
L 289.328963 200.994043 
L 294.357802 200.026947 
L 299.343946 198.859525 
L 304.279416 197.493644 
L 309.156318 195.931489 
L 313.96685 194.17556 
L 318.703315 192.228665 
L 323.358137 190.09392 
L 327.923868 187.774739 
L 332.393205 185.274832 
L 336.758997 182.5982 
L 341.01426 179.749123 
L 345.152186 176.73216 
L 349.166157 173.552137 
L 353.049749 170.214142 
L 356.796751 166.723515 
L 358.636371 164.903297 
L 353.710587 166.303708 
L 348.844744 167.899979 
L 344.046628 169.689554 
L 339.323913 171.669571 
L 334.684156 173.836863 
L 330.134778 176.187962 
L 325.683058 178.719107 
L 321.336119 181.426248 
L 317.100913 184.305056 
L 312.984216 187.350923 
L 308.992614 190.558979 
L 305.132493 193.924089 
L 301.410029 197.440872 
L 297.831176 201.1037 
L 294.401659 204.906715 
L 291.126966 208.843831 
L 288.012335 212.908751 
L 285.062749 217.094972 
L 282.282926 221.395796 
L 279.677314 225.804343 
L 277.250081 230.313561 
L 275.00511 234.916235 
L 272.945993 239.605002 
L 271.076024 244.372361 
L 269.398193 249.210686 
L 267.915187 254.112236 
L 266.629376 259.06917 
L 265.542818 264.073557 
L 264.657252 269.117393 
L 263.974093 274.192607 
L 263.494436 279.29108 
L 263.219046 284.404656 
L 263.189055 285.408 
L 263.149419 284.128287 
L 262.862986 279.015317 
L 262.372317 273.917892 
L 261.678198 268.844166 
L 260.78174 263.802255 
L 259.684375 258.800226 
L 258.387861 253.846081 
L 256.894271 248.947745 
L 255.205995 244.113056 
L 253.325733 239.349746 
L 251.256493 234.665437 
L 249.001586 230.067623 
L 246.564619 225.563659 
L 246.108246 224.765757 
L 245.535113 229.854571 
L 245.165936 234.962233 
L 245.001306 240.080572 
L 245.041487 245.201401 
L 245.286415 250.316527 
L 245.735697 255.417766 
L 246.388615 260.496959 
L 247.244124 265.54598 
L 248.300856 270.55675 
L 249.55712 275.521254 
L 251.010906 280.43155 
L 252.706457 285.408 
L 254.360604 280.561527 
L 255.819622 275.652783 
L 257.081174 270.68962 
L 258.143244 265.679978 
L 259.004132 260.631872 
L 259.662462 255.553378 
L 260.117179 250.45262 
L 260.367556 245.337758 
L 260.413193 240.216975 
L 260.254017 235.098463 
L 259.890282 229.990411 
L 259.322571 224.90099 
L 258.669251 220.529451 
L 262.213933 224.225359 
L 265.903576 227.776561 
L 269.732278 231.177376 
L 273.693913 234.422364 
L 277.782145 237.506333 
L 281.990432 240.424349 
L 286.312043 243.171744 
L 290.740063 245.744124 
L 295.26741 248.137373 
L 299.886839 250.347661 
L 304.590961 252.371454 
L 309.37225 254.205513 
L 314.223058 255.846904 
L 316.79177 256.629678 
L 313.016618 253.169515 
L 309.106115 249.863086 
L 305.066519 246.71568 
L 300.904291 243.732332 
L 296.626091 240.917816 
L 292.238762 238.276633 
L 287.749324 235.813009 
L 283.164957 233.530885 
L 278.492997 231.433913 
L 273.740918 229.525447 
L 268.916322 227.808539 
L 264.026926 226.285938 
L 259.080554 224.960078 
L 254.085118 223.833081 
L 251.61679 223.35307 
L 248.106093 227.081275 
L 244.747293 230.946887 
L 241.545762 234.943724 
L 238.506623 239.065391 
L 235.634738 243.305293 
L 232.9347 247.65665 
L 230.410831 252.112498 
L 228.067166 256.66571 
L 225.907457 261.309001 
L 223.935157 266.034944 
L 222.153421 270.835977 
L 220.565102 275.704421 
L 219.172738 280.632486 
L 218.023422 285.408 
L 216.821109 280.430155 
L 215.420696 275.504371 
L 213.824426 270.638528 
L 212.03485 265.840412 
L 210.054832 261.117698 
L 207.88754 256.477941 
L 205.53644 251.928563 
L 203.005295 247.476844 
L 200.298153 243.129904 
L 197.419345 238.894699 
L 194.373477 234.778002 
L 191.165421 230.786401 
L 187.80031 226.926281 
L 184.283527 223.203817 
L 180.620698 219.624964 
L 176.817683 216.195448 
L 172.880567 212.920755 
L 168.815646 209.806125 
L 164.629425 206.856539 
L 160.328601 204.076717 
L 155.920053 201.471105 
L 151.410836 199.043873 
L 146.808161 196.798902 
L 142.119394 194.739786 
L 137.352034 192.869817 
L 132.513709 191.191987 
L 127.612159 189.708981 
L 122.655225 188.423171 
L 117.650837 187.336613 
L 115.26505 186.891805 
L 116.918422 182.045067 
L 118.376653 177.13609 
L 119.637411 172.172725 
L 120.698679 167.162913 
L 121.558759 162.114669 
L 122.216275 157.03607 
L 122.670176 151.935239 
L 122.836127 149.050705 
L 127.091981 146.20251 
L 131.230532 143.186405 
L 135.245162 140.007214 
L 139.129446 136.670024 
L 142.877171 133.180173 
L 146.482342 129.543245 
L 149.93919 125.765057 
L 153.242186 121.851655 
L 156.386046 117.809298 
L 159.36574 113.644454 
L 162.176501 109.363786 
L 164.813833 104.974141 
L 167.273516 100.482542 
L 169.551616 95.896174 
L 171.644487 91.222376 
L 173.548783 86.468624 
L 175.261455 81.642523 
L 176.779766 76.751793 
L 178.101285 71.804259 
L 179.223898 66.807836 
L 179.826521 63.648 
L 180.823256 68.671049 
L 182.020063 73.650221 
L 183.415026 78.577551 
L 185.005914 83.445156 
L 186.790181 88.245249 
L 188.764974 92.97015 
L 190.927133 97.612302 
L 193.273199 102.164277 
L 195.799419 106.618793 
L 198.501751 110.968725 
L 201.375872 115.207112 
L 204.417185 119.327175 
L 207.620824 123.322322 
L 210.981663 127.186162 
L 212.67319 129.017895 
L 211.568167 124.017553 
L 210.264067 119.065399 
L 208.762977 114.169357 
L 207.067298 109.337258 
L 205.179743 104.576834 
L 203.103332 99.8957 
L 200.841386 95.301344 
L 198.397524 90.801117 
L 195.775657 86.402219 
L 192.979977 82.111685 
L 190.014958 77.936381 
L 186.885343 73.882986 
L 183.596139 69.957985 
L 180.152607 66.167656 
L 177.703421 63.648 
L 174.157171 67.342403 
L 170.761495 71.175663 
L 167.521824 75.141648 
L 164.443342 79.234013 
L 161.530973 83.44621 
L 158.789376 87.771502 
L 156.222939 92.202969 
L 153.835765 96.733522 
L 151.631675 101.355911 
L 149.614194 106.062744 
L 147.78655 110.846489 
L 146.151666 115.699494 
L 144.712159 120.613995 
L 143.470331 125.58213 
L 142.428169 130.595951 
L 141.587339 135.647437 
L 140.949188 140.728506 
L 140.514736 145.83103 
L 140.284678 150.946846 
L 140.259382 156.06777 
L 140.438888 161.18561 
L 140.82291 166.292177 
L 141.410833 171.379303 
L 142.201716 176.438849 
L 143.194295 181.462721 
L 144.386981 186.442881 
L 145.777866 191.371364 
L 147.364726 196.240284 
L 149.145021 201.041851 
L 151.115903 205.768385 
L 153.27422 210.412324 
L 155.616519 214.966239 
L 158.139052 219.422844 
L 160.837784 223.77501 
L 163.708397 228.015774 
L 166.7463 232.138352 
L 169.946631 236.136149 
L 173.304272 240.002769 
L 176.813851 243.732026 
L 180.469753 247.317954 
L 184.26613 250.754817 
L 188.196908 254.037116 
L 192.255798 257.159601 
L 196.436308 260.117275 
L 200.731749 262.905408 
L 205.13525 265.519539 
L 209.639767 267.955486 
L 214.238091 270.209352 
L 218.922869 272.277531 
L 223.686604 274.156714 
L 228.521676 275.843896 
L 233.420349 277.336377 
L 238.374788 278.631769 
L 243.377065 279.728 
L 248.419179 280.623317 
L 253.493062 281.316287 
L 258.590599 281.805801 
L 263.703633 282.091077 
L 268.823985 282.171658 
L 273.943464 282.047415 
L 279.05388 281.718546 
L 284.147056 281.185579 
L 289.214846 280.449365 
L 294.249141 279.511082 
L 299.241888 278.372232 
L 304.185099 277.034636 
L 305.181597 276.739088 
L 303.908609 271.778845 
L 302.438283 266.873477 
L 300.77297 262.030829 
L 298.915335 257.25865 
L 296.86835 252.564573 
L 294.635289 247.956109 
L 292.219725 243.44063 
L 289.625523 239.02536 
L 286.856831 234.717361 
L 283.91808 230.523527 
L 280.813972 226.450566 
L 277.549471 222.504994 
L 274.129801 218.693124 
L 270.560432 215.021052 
L 269.178847 213.675869 
L 272.133728 217.858353 
L 275.253501 221.919329 
L 278.533174 225.852298 
L 281.9675 229.650969 
L 285.550986 233.309266 
L 289.277898 236.821335 
L 293.142274 240.181558 
L 297.137932 243.384559 
L 301.25848 246.425215 
L 305.497326 249.29866 
L 309.847688 252.000299 
L 314.302607 254.525808 
L 317.145323 256.017306 
L 316.607768 255.669676 
L 312.246138 252.986267 
L 307.780689 250.479423 
L 303.218565 248.153154 
L 298.567064 246.011183 
L 293.833628 244.056935 
L 289.025829 242.293538 
L 284.151359 240.723811 
L 279.218015 239.350268 
L 274.233691 238.175103 
L 269.206359 237.200199 
L 264.144063 236.427114 
L 259.054901 235.857086 
L 253.947015 235.491026 
L 248.828576 235.329519 
L 243.707772 235.372825 
L 238.592797 235.620873 
L 233.491832 236.073268 
L 228.413039 236.729284 
L 223.364541 237.587874 
L 218.354417 238.647663 
L 213.39068 239.906956 
L 208.481272 241.363738 
L 203.634046 243.015678 
L 198.856758 244.860135 
L 194.15705 246.894157 
L 189.54244 249.11449 
L 185.020311 251.517582 
L 180.597898 254.099589 
L 176.282274 256.85638 
L 172.080345 259.783544 
L 167.998832 262.8764 
L 164.044266 266.129999 
L 162.030644 267.892189 
L 166.862153 266.194833 
L 171.621922 264.305625 
L 176.302335 262.227589 
L 180.895905 259.964048 
L 185.395283 257.518624 
L 189.793271 254.895229 
L 194.082834 252.098059 
L 198.257108 249.131591 
L 202.309416 246.000568 
L 206.233275 242.710002 
L 210.022408 239.265154 
L 213.670753 235.671538 
L 217.172474 231.934901 
L 220.521967 228.061221 
L 223.618065 224.181799 
L 224.531652 229.220634 
L 225.646008 234.218905 
L 226.959351 239.168616 
L 228.469578 244.061847 
L 230.174274 248.890772 
L 232.070712 253.647664 
L 234.155858 258.324914 
L 236.426377 262.915039 
L 238.878635 267.410696 
L 241.50871 271.804693 
L 244.312394 276.09 
L 247.285202 280.259762 
L 250.422378 284.307308 
L 251.321442 285.408 
L 254.503353 281.395527 
L 257.522263 277.25902 
L 260.373342 273.005099 
L 263.052029 268.640567 
L 265.554039 264.172407 
L 267.875369 259.607768 
L 270.012304 254.953952 
L 271.961428 250.218403 
L 273.719621 245.408699 
L 275.284071 240.532532 
L 276.652275 235.597705 
L 277.822043 230.612112 
L 278.791506 225.583728 
L 279.559111 220.520598 
L 280.123632 215.430822 
L 280.484164 210.322543 
L 280.64013 205.203932 
L 280.588831 200.0011 
L 285.034358 197.459095 
L 289.374676 194.741349 
L 293.602841 191.85221 
L 297.71209 188.796302 
L 301.695847 185.578511 
L 305.547741 182.203986 
L 309.261609 178.678127 
L 312.831509 175.006572 
L 316.251731 171.195196 
L 319.516802 167.250097 
L 322.6215 163.177585 
L 325.560858 158.984176 
L 328.330172 154.676578 
L 330.925014 150.261683 
L 333.341231 145.746553 
L 335.574958 141.138412 
L 337.622622 136.444632 
L 339.469194 131.704772 
L 334.407228 130.929523 
L 329.318311 130.357319 
L 324.210581 129.989075 
L 319.092212 129.825381 
L 313.971391 129.866497 
L 308.85631 130.112359 
L 303.755152 130.562573 
L 298.676078 131.216418 
L 293.627214 132.07285 
L 288.616637 133.130497 
L 283.652362 134.387667 
L 278.742332 135.84235 
L 273.894401 137.492219 
L 272.184073 138.126544 
L 273.85248 133.284961 
L 275.325941 128.380533 
L 276.602098 123.421105 
L 277.678911 118.414612 
L 278.554656 113.369062 
L 279.227932 108.292528 
L 279.697662 103.19313 
L 279.963095 98.079027 
L 280.023806 92.958401 
L 279.879698 87.839442 
L 279.531002 82.730341 
L 278.978275 77.639271 
L 278.222402 72.574377 
L 277.264591 67.54376 
L 276.37808 63.648 
L 275.263772 68.646282 
L 274.350232 73.685125 
L 273.638924 78.756471 
L 273.130984 83.852204 
L 272.827226 88.964174 
L 272.728135 94.084201 
L 272.833869 99.204096 
L 273.14426 104.315667 
L 273.658812 109.410737 
L 274.3767 114.481155 
L 275.296776 119.518809 
L 276.417569 124.515641 
L 277.737285 129.463656 
L 279.253814 134.354938 
L 280.964729 139.181663 
L 282.867292 143.936109 
L 284.958461 148.610669 
L 287.23489 153.197866 
L 289.692937 157.69036 
L 292.328669 162.080966 
L 295.137871 166.362658 
L 298.116047 170.528587 
L 301.258434 174.572089 
L 304.560005 178.486694 
L 308.015477 182.266141 
L 311.619322 185.904382 
L 315.365776 189.395598 
L 319.248844 192.734203 
L 323.262315 195.914856 
L 327.399768 198.932468 
L 331.654583 201.782214 
L 336.019954 204.459532 
L 340.488898 206.96014 
L 344.332174 208.928299 
L 340.022958 206.161503 
L 335.606546 203.569244 
L 331.090004 201.155667 
L 326.480558 198.924634 
L 321.785582 196.879714 
L 317.012586 195.024179 
L 312.169206 193.360998 
L 307.26319 191.89283 
L 302.302388 190.622025 
L 297.294736 189.550615 
L 292.248244 188.680315 
L 287.170986 188.012518 
L 285.61059 187.848625 
L 290.311772 189.879238 
L 295.090396 191.720231 
L 299.938817 193.368657 
L 304.84928 194.821879 
L 309.813929 196.077572 
L 314.824821 197.133729 
L 319.873939 197.988658 
L 324.953207 198.640992 
L 330.054499 199.089688 
L 335.169653 199.334028 
L 340.290486 199.373621 
L 345.408806 199.208403 
L 350.137527 198.873132 
L 347.890258 194.271579 
L 345.460774 189.763575 
L 342.852961 185.356329 
L 340.070991 181.056894 
L 337.119314 176.872147 
L 334.002654 172.808783 
L 330.725995 168.873302 
L 327.29458 165.072 
L 323.713898 161.41096 
L 319.989678 157.896036 
L 316.127877 154.532854 
L 312.134674 151.326792 
L 308.016457 148.282981 
L 303.779814 145.406288 
L 299.431522 142.701318 
L 294.978539 140.172397 
L 290.427988 137.82357 
L 285.787149 135.658595 
L 281.063447 133.680937 
L 276.264437 131.893757 
L 271.397798 130.299917 
L 266.471315 128.901965 
L 261.49287 127.702139 
L 256.470427 126.702356 
L 252.847096 126.109608 
L 248.343157 123.672593 
L 243.745366 121.417638 
L 239.061079 119.348349 
L 234.29779 117.468037 
L 229.463118 115.779709 
L 224.564798 114.286068 
L 219.610667 112.989501 
L 214.608649 111.892084 
L 209.566748 110.995573 
L 204.493029 110.3014 
L 199.395609 109.810678 
L 194.282642 109.52419 
L 189.162309 109.442396 
L 184.042801 109.565426 
L 178.932307 109.893084 
L 173.839005 110.424844 
L 168.771041 111.159857 
L 163.736523 112.096946 
L 158.743507 113.234613 
L 153.799978 114.571038 
L 148.913847 116.104081 
L 144.092929 117.831292 
L 139.885554 119.520232 
L 140.621238 124.588099 
L 141.558995 129.622492 
L 142.697324 134.615358 
L 144.034403 139.558709 
L 145.568095 144.444637 
L 147.295944 149.265325 
L 149.215188 154.013062 
L 151.322755 158.680252 
L 153.615274 163.259429 
L 156.089078 167.743266 
L 158.740208 172.124591 
L 161.564424 176.396395 
L 164.557208 180.551843 
L 167.713771 184.584287 
L 171.029064 188.487277 
L 174.497784 192.254569 
L 178.11438 195.880136 
L 181.873067 199.358177 
L 185.767833 202.683129 
L 189.792445 205.849672 
L 193.940466 208.852741 
L 198.20526 211.687531 
L 202.580004 214.349507 
L 207.0577 216.834411 
L 208.171355 217.416642 
L 212.218262 220.554642 
L 216.387419 223.528299 
L 220.672155 226.332855 
L 225.065616 228.963825 
L 229.560774 231.416998 
L 234.150437 233.688451 
L 238.827262 235.774549 
L 243.583768 237.671955 
L 248.412346 239.377634 
L 253.30527 240.888857 
L 258.254713 242.203207 
L 263.252757 243.31858 
L 268.291406 244.233193 
L 273.3626 244.945582 
L 278.458225 245.454607 
L 283.57013 245.759455 
L 288.690136 245.859637 
L 293.810053 245.754993 
L 298.92169 245.445691 
L 304.01687 244.932225 
L 309.087441 244.215417 
L 314.125291 243.296414 
L 319.122361 242.176686 
L 324.070657 240.858023 
L 326.276843 240.201049 
L 325.033803 235.233218 
L 323.593097 230.319068 
L 321.95703 225.466462 
L 320.128218 220.683163 
L 318.109589 215.976822 
L 315.904371 211.35497 
L 313.516093 206.825 
L 310.948574 202.39416 
L 308.205923 198.069537 
L 305.292526 193.85805 
L 302.213046 189.766436 
L 298.972407 185.801242 
L 295.575796 181.96881 
L 292.028645 178.275272 
L 288.336629 174.726537 
L 287.368681 173.841842 
L 291.001446 170.232475 
L 294.486968 166.480724 
L 297.819672 162.59259 
L 300.994227 158.574294 
L 304.005553 154.432264 
L 306.848834 150.173126 
L 309.51952 145.803693 
L 312.013339 141.330957 
L 314.326302 136.762073 
L 316.454707 132.104349 
L 318.395151 127.365237 
L 320.144529 122.55232 
L 321.700043 117.673295 
L 323.059203 112.735969 
L 324.219835 107.748241 
L 324.590289 105.933754 
L 319.712519 104.374312 
L 314.776289 103.011176 
L 309.789497 101.846527 
L 304.760121 100.882228 
L 299.696205 100.119822 
L 294.605853 99.560529 
L 289.497206 99.205242 
L 284.378437 99.054532 
L 279.257737 99.108637 
L 274.143296 99.367473 
L 269.043297 99.830625 
L 263.965898 100.497353 
L 258.919223 101.366588 
L 253.911344 102.436942 
L 248.950275 103.706701 
L 244.04395 105.173834 
L 239.200219 106.835994 
L 234.426832 108.690523 
L 229.731424 110.734452 
L 225.121508 112.964513 
L 220.604457 115.377138 
L 216.187499 117.968466 
L 211.8777 120.734353 
L 207.681954 123.670374 
L 203.606973 126.771831 
L 199.659278 130.033763 
L 195.845182 133.450951 
L 192.170789 137.01793 
L 188.641975 140.728991 
L 185.264388 144.578199 
L 182.043429 148.559396 
L 178.984252 152.666212 
L 176.091751 156.892078 
L 173.370553 161.230232 
L 170.825012 165.673735 
L 168.4592 170.215479 
L 166.276901 174.848197 
L 164.281607 179.564477 
L 162.47651 184.356776 
L 160.864498 189.217426 
L 159.44815 194.138652 
L 158.229731 199.112579 
L 157.21119 204.131252 
L 156.394158 209.186641 
L 155.779941 214.270659 
L 155.369522 219.375173 
L 155.163557 224.492016 
L 155.162376 229.613002 
L 155.365981 234.729939 
L 155.774046 239.834641 
L 156.385918 244.918942 
L 157.200618 249.974708 
L 158.216844 254.99385 
L 159.432968 259.968339 
L 160.847047 264.890217 
L 161.523994 267.014645 
L 165.014706 270.761568 
L 168.652462 274.365902 
L 172.431444 277.821882 
L 176.345606 281.123979 
L 180.388685 284.266909 
L 181.943074 285.408 
L 186.033028 282.326316 
L 189.996476 279.083542 
L 193.827078 275.684866 
L 197.518704 272.135726 
L 201.06545 268.441799 
L 204.461641 264.608995 
L 207.701844 260.643445 
L 210.780876 256.551494 
L 213.69381 252.339687 
L 216.435987 248.014763 
L 219.00302 243.583641 
L 221.390801 239.053409 
L 223.595512 234.431315 
L 225.613625 229.724753 
L 227.424125 224.990703 
L 227.540112 230.110375 
L 227.860738 235.221315 
L 228.385491 240.315344 
L 229.113531 245.384314 
L 230.043694 250.420116 
L 231.174491 255.414693 
L 232.504113 260.360055 
L 234.030433 265.248291 
L 235.75101 270.07158 
L 237.663091 274.822206 
L 239.763616 279.49257 
L 242.049226 284.075199 
L 242.757639 285.408 
L 245.097113 280.852634 
L 247.25255 276.207357 
L 249.220502 271.479602 
L 250.997819 266.676932 
L 252.58166 261.807029 
L 253.969489 256.877685 
L 255.159087 251.896786 
L 256.14855 246.872299 
L 256.936297 241.812264 
L 257.521065 236.724775 
L 257.901921 231.61797 
L 258.078254 226.500021 
L 258.049783 221.379113 
L 258.034702 220.834558 
L 261.958106 224.125667 
L 266.009981 227.25725 
L 270.183845 230.224296 
L 274.473021 233.022058 
L 278.870646 235.646062 
L 283.369686 238.092108 
L 287.962942 240.356284 
L 292.643068 242.434968 
L 297.402575 244.324834 
L 302.23385 246.022859 
L 307.129163 247.526326 
L 312.080683 248.83283 
L 317.080488 249.940281 
L 320.305162 250.544304 
L 316.94407 246.680684 
L 313.431162 242.954562 
L 309.772059 239.3719 
L 305.972615 235.938429 
L 302.038908 232.659641 
L 297.97723 229.540782 
L 293.794081 226.586842 
L 289.496152 223.802546 
L 285.090318 221.192349 
L 280.583628 218.760425 
L 275.983292 216.510667 
L 271.29667 214.446673 
L 269.251065 213.614843 
L 270.427691 218.598823 
L 271.802683 223.531763 
L 273.37384 228.405773 
L 275.138648 233.213054 
L 277.094285 237.945916 
L 279.237621 242.596788 
L 281.565228 247.15823 
L 284.073383 251.622943 
L 286.758072 255.983785 
L 289.615001 260.23378 
L 292.639599 264.366129 
L 295.827027 268.374221 
L 299.172187 272.251644 
L 302.669727 275.992195 
L 304.531131 277.865727 
L 299.56791 276.604402 
L 294.55822 275.542562 
L 289.510075 274.681905 
L 284.43155 274.023809 
L 279.330771 273.569326 
L 274.215898 273.319183 
L 269.095112 273.273781 
L 263.976608 273.433192 
L 258.868572 273.797161 
L 253.779177 274.365105 
L 248.716565 275.136117 
L 243.688834 276.108963 
L 238.704029 277.282086 
L 233.770124 278.65361 
L 228.895011 280.22134 
L 224.08649 281.982769 
L 219.352254 283.935079 
L 216.098492 285.408 
L 211.420554 283.324397 
L 206.663037 281.429527 
L 201.83355 279.726424 
L 196.939821 278.217811 
L 191.989677 276.906101 
L 186.991039 275.793394 
L 181.951903 274.881469 
L 176.88033 274.171785 
L 171.784434 273.665477 
L 166.672368 273.363357 
L 165.160501 273.31326 
L 167.50882 268.762447 
L 169.673277 264.121366 
L 171.650408 259.397443 
L 173.437052 254.598234 
L 175.030349 249.731417 
L 176.427751 244.804779 
L 177.627023 239.826199 
L 178.626245 234.803645 
L 179.423819 229.745149 
L 180.018469 224.658805 
L 180.409244 219.55275 
L 180.595519 214.435153 
L 180.576995 209.3142 
L 180.353703 204.198084 
L 179.925999 199.09499 
L 179.294569 194.013081 
L 178.460421 188.960488 
L 177.42489 183.945293 
L 176.189633 178.97552 
L 174.756627 174.059119 
L 173.128163 169.203956 
L 171.306847 164.417798 
L 169.295593 159.708302 
L 167.097618 155.083001 
L 164.716438 150.549295 
L 162.155863 146.114438 
L 159.41999 141.785524 
L 156.513194 137.569479 
L 153.440127 133.473046 
L 150.205704 129.50278 
L 146.8151 125.665033 
L 143.273739 121.965943 
L 140.197322 118.980233 
L 145.127964 120.363446 
L 150.109975 121.54838 
L 155.135386 122.533138 
L 160.196156 123.316146 
L 165.284191 123.89615 
L 170.39135 124.272224 
L 175.509462 124.443764 
L 180.630341 124.410498 
L 185.745792 124.172478 
L 190.847634 123.730084 
L 195.927704 123.084026 
L 200.977875 122.235335 
L 205.990068 121.18537 
L 210.956264 119.935811 
L 215.868519 118.488657 
L 220.718973 116.846222 
L 225.499868 115.011135 
L 230.203555 112.986331 
L 234.822509 110.775049 
L 239.34934 108.380827 
L 243.776807 105.807495 
L 248.097827 103.05917 
L 252.305487 100.140248 
L 256.393055 97.0554 
L 260.353993 93.809561 
L 264.181963 90.407922 
L 267.870842 86.855927 
L 271.414729 83.159257 
L 274.807953 79.323826 
L 278.045087 75.35577 
L 281.120952 71.261438 
L 284.030626 67.047378 
L 286.202553 63.648 
L 288.978026 67.951632 
L 291.923379 72.140833 
L 295.033898 76.2089 
L 298.304609 80.149325 
L 301.730279 83.955805 
L 305.305427 87.62225 
L 309.024334 91.142794 
L 312.881051 94.511806 
L 316.869407 97.723895 
L 320.983022 100.773923 
L 322.040778 101.51787 
L 322.573957 106.611024 
L 323.310382 111.678783 
L 324.248875 116.713039 
L 325.387933 121.705739 
L 326.725735 126.648895 
L 328.26014 131.534598 
L 329.988694 136.355034 
L 331.908631 141.102491 
L 334.01688 145.769373 
L 336.310068 150.348214 
L 338.784527 154.83169 
L 341.436298 159.212628 
L 344.261138 163.484019 
L 347.254529 167.639029 
L 350.411681 171.671013 
L 353.727545 175.573518 
L 357.196814 179.340303 
L 359.858567 182.035797 
L 354.897155 180.767377 
L 349.888988 179.698376 
L 344.842078 178.830503 
L 339.764499 178.165146 
L 334.664375 177.703371 
L 329.549865 177.445916 
L 324.42915 177.393193 
L 319.310422 177.545286 
L 314.201871 177.901951 
L 309.11167 178.462619 
L 304.04796 179.226392 
L 299.018844 180.192049 
L 294.032367 181.358044 
L 289.096505 182.722512 
L 286.581156 183.500564 
L 290.681059 186.568999 
L 294.900388 189.471028 
L 299.232392 192.202006 
L 303.67014 194.757567 
L 308.206535 197.13362 
L 312.834317 199.326366 
L 317.546084 201.332295 
L 322.334298 203.1482 
L 327.191298 204.771175 
L 332.109316 206.198623 
L 337.080482 207.428261 
L 342.096844 208.458122 
L 344.373331 208.857013 
L 341.04294 204.966897 
L 337.559651 201.213073 
L 333.929034 197.601546 
L 330.1569 194.138094 
L 326.249281 190.828257 
L 322.21243 187.677331 
L 318.052804 184.690357 
L 313.777059 181.872112 
L 309.392034 179.227106 
L 304.904745 176.759569 
L 300.322369 174.47345 
L 295.652239 172.372406 
L 290.901825 170.459798 
L 287.082578 169.079059 
L 291.40979 166.340494 
L 295.624027 163.431078 
L 299.718548 160.355464 
L 303.686802 157.118573 
L 307.522441 153.725584 
L 311.219328 150.181924 
L 314.77155 146.493262 
L 318.173423 142.6655 
L 321.419505 138.704761 
L 324.504604 134.617382 
L 327.423783 130.409901 
L 330.172373 126.08905 
L 332.745976 121.661741 
L 333.197224 120.841402 
L 328.076286 120.819105 
L 322.958553 121.001609 
L 317.852211 121.388622 
L 312.765431 121.979524 
L 307.706349 122.773371 
L 302.683059 123.768891 
L 297.703598 124.964494 
L 292.775931 126.358266 
L 287.907941 127.947977 
L 283.107417 129.731084 
L 278.382038 131.704734 
L 273.739364 133.86577 
L 269.77777 135.89323 
L 271.445689 131.05148 
L 272.918656 126.146903 
L 274.194314 121.187347 
L 275.270622 116.180745 
L 276.145858 111.135107 
L 276.818623 106.058505 
L 277.28784 100.95906 
L 277.552758 95.844931 
L 277.612953 90.724298 
L 277.46833 85.605354 
L 277.119119 80.496288 
L 276.565879 75.405274 
L 275.809495 70.340456 
L 274.851178 65.309936 
L 274.488447 63.648 
L 273.46338 68.665344 
L 272.639773 73.719666 
L 272.018944 78.802881 
L 271.601886 83.906856 
L 271.389266 89.023427 
L 271.381425 94.144407 
L 271.578374 99.261605 
L 271.979799 104.366834 
L 272.585058 109.451926 
L 273.393182 114.508747 
L 274.402878 119.529207 
L 275.612532 124.505273 
L 277.020208 129.428986 
L 278.623653 134.292469 
L 280.420304 139.087941 
L 282.407285 143.80773 
L 284.581418 148.444285 
L 286.939225 152.99019 
L 289.476933 157.438171 
L 292.190483 161.781114 
L 295.075534 166.012069 
L 298.127471 170.124268 
L 301.34141 174.111134 
L 304.712211 177.966287 
L 308.23448 181.68356 
L 311.902583 185.257007 
L 315.710652 188.68091 
L 319.652595 191.949792 
L 323.722104 195.058424 
L 327.912671 198.001833 
L 332.21759 200.775309 
L 336.629976 203.374415 
L 341.142769 205.794995 
L 345.039458 207.703246 
L 340.780693 204.859407 
L 336.411611 202.188149 
L 331.939202 199.693743 
L 327.37062 197.380182 
L 322.713176 195.251165 
L 317.974319 193.3101 
L 313.16163 191.560091 
L 308.282809 190.003938 
L 303.345662 188.644131 
L 298.358086 187.482845 
L 293.32806 186.521937 
L 288.263632 185.762945 
L 286.181794 185.510714 
L 291.074244 187.02347 
L 296.023275 188.339371 
L 301.02097 189.45631 
L 306.059332 190.372501 
L 311.130302 191.086479 
L 316.225767 191.597101 
L 321.337576 191.90355 
L 326.457551 192.005337 
L 331.577501 191.902297 
L 336.689234 191.594597 
L 341.784575 191.082728 
L 346.85537 190.367509 
L 351.893508 189.450084 
L 356.115336 188.519263 
L 354.554557 183.641921 
L 352.799985 178.830894 
L 350.854427 174.093879 
L 348.720995 169.438456 
L 346.403102 164.872071 
L 343.904456 160.402029 
L 341.229055 156.035482 
L 338.381179 151.779415 
L 335.365384 147.640638 
L 332.186494 143.62577 
L 328.849595 139.741236 
L 325.360025 135.99325 
L 321.723367 132.387807 
L 317.945438 128.930675 
L 314.032283 125.627386 
L 309.990162 122.483223 
L 305.825541 119.503217 
L 301.545083 116.692136 
L 297.155636 114.054475 
L 292.664221 111.594455 
L 288.078024 109.316012 
L 283.404383 107.222791 
L 278.650773 105.318139 
L 273.8248 103.605105 
L 268.934185 102.086428 
L 263.98675 100.764539 
L 258.990411 99.641551 
L 253.953161 98.719262 
L 248.883059 97.999148 
L 243.788216 97.482359 
L 238.676781 97.169723 
L 233.556933 97.061739 
L 228.436863 97.158582 
L 223.32476 97.460095 
L 218.228804 97.965797 
L 213.157147 98.674878 
L 208.117903 99.586204 
L 203.119132 100.698317 
L 198.168833 102.009438 
L 193.274924 103.51747 
L 188.445235 105.219999 
L 183.687492 107.114303 
L 179.009307 109.19735 
L 174.418164 111.465809 
L 169.921407 113.916049 
L 165.526231 116.544153 
L 161.239666 119.345914 
L 157.068571 122.316851 
L 153.019618 125.452211 
L 149.099285 128.746977 
L 145.313843 132.19588 
L 141.669348 135.793402 
L 138.171631 139.533786 
L 134.826287 143.411051 
L 131.638669 147.418991 
L 128.613875 151.551197 
L 125.756744 155.801057 
L 123.071849 160.161772 
L 120.563483 164.626366 
L 118.235659 169.187697 
L 116.092102 173.838468 
L 114.136241 178.571237 
L 112.697219 182.444191 
L 117.749504 183.280203 
L 122.83118 183.913508 
L 127.934116 184.343094 
L 133.050149 184.568273 
L 138.171095 184.588686 
L 143.288761 184.404299 
L 148.39496 184.015407 
L 153.481522 183.422633 
L 158.540312 182.626925 
L 163.563235 181.629556 
L 168.542256 180.432121 
L 173.46941 179.036536 
L 178.336814 177.445034 
L 183.136682 175.660161 
L 184.948291 174.928917 
L 180.147713 173.145954 
L 175.279676 171.556389 
L 170.351967 170.162766 
L 165.37247 168.967313 
L 160.34915 167.971943 
L 155.290044 167.178249 
L 150.203246 166.587499 
L 145.096893 166.20064 
L 139.979154 166.01829 
L 134.858217 166.040741 
L 129.742274 166.267956 
L 124.639509 166.699573 
L 119.558086 167.334901 
L 114.506134 168.172924 
L 111.443804 168.782788 
L 113.126586 173.619393 
L 115.001434 178.384836 
L 117.065349 183.071493 
L 119.31503 187.671866 
L 121.746877 192.178597 
L 124.357 196.584475 
L 127.141224 200.882451 
L 130.095093 205.065651 
L 133.213883 209.127381 
L 136.492605 213.061143 
L 139.926012 216.860645 
L 143.508612 220.519809 
L 147.234674 224.032779 
L 151.098238 227.393937 
L 155.093121 230.597905 
L 159.212933 233.639558 
L 163.451083 236.514028 
L 167.800792 239.216719 
L 172.2551 241.743306 
L 176.806882 244.089747 
L 181.448855 246.252289 
L 186.173594 248.227471 
L 190.973539 250.012134 
L 195.841013 251.603423 
L 200.768228 252.998792 
L 205.747302 254.196009 
L 210.770268 255.193159 
L 215.829093 255.988646 
L 220.915681 256.581197 
L 226.021897 256.969865 
L 231.139571 257.154028 
L 236.260516 257.133392 
L 241.376539 256.907988 
L 246.479456 256.478179 
L 251.561104 255.844651 
L 256.613353 255.008419 
L 261.62812 253.970819 
L 266.597383 252.733512 
L 271.513192 251.298477 
L 276.367682 249.66801 
L 281.153089 247.844719 
L 285.861755 245.831522 
L 290.486148 243.631638 
L 295.018871 241.248588 
L 299.452671 238.686183 
L 303.780456 235.948524 
L 307.995302 233.039989 
L 312.090466 229.965231 
L 316.059397 226.72917 
L 319.895745 223.336983 
L 323.593373 219.794096 
L 327.146366 216.106178 
L 330.549039 212.279127 
L 333.79595 208.319067 
L 336.881903 204.232333 
L 339.801962 200.025463 
L 342.551455 195.705186 
L 345.125984 191.278415 
L 347.52143 186.752231 
L 349.733961 182.133876 
L 351.760037 177.430737 
L 353.596417 172.650338 
L 355.240163 167.800328 
L 356.688645 162.888464 
L 356.938137 161.96187 
L 351.969243 160.723085 
L 346.954784 159.683994 
L 341.902784 158.846259 
L 336.821325 158.21122 
L 331.718536 157.779894 
L 326.60258 157.552969 
L 321.481641 157.53081 
L 316.363913 157.713451 
L 311.257582 158.100601 
L 306.170817 158.69164 
L 301.111757 159.485622 
L 296.088494 160.481278 
L 291.109064 161.677014 
L 286.082217 163.101184 
L 291.126276 162.216895 
L 296.130939 161.131604 
L 301.088198 159.847049 
L 305.990123 158.365283 
L 310.828873 156.688678 
L 315.596706 154.819916 
L 320.285994 152.761986 
L 324.889237 150.518181 
L 329.399069 148.09209 
L 333.808275 145.487594 
L 338.109803 142.708861 
L 342.296771 139.760335 
L 343.572125 138.811258 
L 338.898784 140.90515 
L 334.312914 143.184252 
L 329.821853 145.644916 
L 325.432784 148.283206 
L 321.15273 151.094902 
L 316.988536 154.075506 
L 312.946867 157.220249 
L 309.034186 160.524099 
L 305.256754 163.981773 
L 301.620613 167.587738 
L 298.131581 171.336225 
L 294.795239 175.221239 
L 291.616925 179.236562 
L 288.601724 183.375772 
L 285.606475 187.863892 
L 285.916345 192.975495 
L 286.430376 198.070617 
L 287.147748 203.141108 
L 288.06731 208.178856 
L 289.187594 213.175802 
L 290.506806 218.123952 
L 292.022836 223.015388 
L 293.733258 227.842288 
L 295.635337 232.596927 
L 297.726029 237.271701 
L 300.00199 241.85913 
L 302.459579 246.351875 
L 305.094864 250.742749 
L 307.903629 255.024728 
L 310.881381 259.190961 
L 313.415317 262.477865 
L 308.337122 261.817236 
L 303.23657 261.360208 
L 298.121822 261.107514 
L 293.00106 261.059557 
L 287.882476 261.216415 
L 282.77426 261.577836 
L 277.684582 262.143242 
L 272.621586 262.911728 
L 267.593371 263.882065 
L 262.607981 265.052702 
L 257.673392 266.421764 
L 252.797498 267.987062 
L 247.988099 269.746092 
L 243.25289 271.69604 
L 238.599445 273.833786 
L 234.03521 276.155909 
L 229.567486 278.658696 
L 225.203421 281.338143 
L 220.949995 284.189962 
L 219.239633 285.408 
L 215.033548 282.48681 
L 210.714011 279.736156 
L 206.287932 277.160437 
L 201.762392 274.763774 
L 197.144631 272.550002 
L 192.442037 270.522661 
L 187.662132 268.684996 
L 182.812564 267.039946 
L 177.901091 265.590143 
L 172.935569 264.337906 
L 167.923943 263.285239 
L 162.874231 262.433825 
L 158.553048 261.868817 
L 160.502843 257.133545 
L 162.261718 252.324089 
L 163.826858 247.448144 
L 165.195761 242.513511 
L 166.366237 237.528083 
L 167.336412 232.499837 
L 168.104735 227.436816 
L 168.669977 222.34712 
L 169.031232 217.238892 
L 169.187925 212.120303 
L 169.139802 206.999543 
L 168.886943 201.884803 
L 168.429751 196.784266 
L 167.768957 191.706092 
L 166.90562 186.658404 
L 165.841119 181.649279 
L 164.577158 176.686729 
L 163.115759 171.778693 
L 161.45926 166.933023 
L 159.610311 162.157472 
L 157.571869 157.459679 
L 155.347197 152.84716 
L 152.939852 148.327293 
L 150.353687 143.90731 
L 147.592838 139.594282 
L 144.661722 135.395108 
L 141.565029 131.316506 
L 138.307712 127.365001 
L 136.528034 125.335626 
L 141.559857 126.287079 
L 146.625703 127.036552 
L 151.717467 127.582845 
L 156.827005 127.925085 
L 161.946141 128.062724 
L 167.066687 127.995542 
L 172.18045 127.723647 
L 177.27925 127.247474 
L 182.35493 126.567783 
L 187.399369 125.685663 
L 192.404498 124.602525 
L 197.362309 123.320102 
L 202.264871 121.840445 
L 207.104341 120.165921 
L 211.872977 118.29921 
L 216.563151 116.243297 
L 221.167357 114.001472 
L 225.678232 111.57732 
L 230.088559 108.974721 
L 234.391281 106.197838 
L 238.579517 103.251113 
L 242.646564 100.13926 
L 246.585917 96.867258 
L 250.391274 93.440341 
L 254.056547 89.863992 
L 257.575873 86.143931 
L 260.94362 82.286111 
L 264.154402 78.296702 
L 267.203082 74.182088 
L 270.084783 69.94885 
L 272.794894 65.603761 
L 273.937738 63.648 
L 276.570553 68.040355 
L 279.376911 72.323912 
L 282.35232 76.491818 
L 285.49202 80.537406 
L 288.79099 84.454204 
L 292.243951 88.235944 
L 295.845379 91.876578 
L 299.589513 95.370281 
L 303.470363 98.711465 
L 307.481721 101.894783 
L 311.617168 104.915143 
L 315.87009 107.767713 
L 320.233683 110.44793 
L 324.700965 112.951506 
L 329.26479 115.274436 
L 330.257546 115.74973 
L 329.943398 120.861072 
L 329.8339 125.980887 
L 329.929227 131.100987 
L 330.229228 136.213178 
L 330.733422 141.309283 
L 331.441003 146.38115 
L 332.350838 151.420664 
L 333.461472 156.419763 
L 334.771129 161.37045 
L 336.277712 166.264805 
L 337.978813 171.094998 
L 339.871709 175.8533 
L 341.953372 180.532102 
L 344.220472 185.123916 
L 346.669382 189.621397 
L 349.296185 194.017351 
L 351.218709 197.000471 
L 346.102398 196.78168 
L 340.981431 196.767662 
L 335.864 196.958439 
L 330.75829 197.353707 
L 325.672472 197.952832 
L 320.61468 198.754857 
L 315.593006 199.758497 
L 310.615484 200.962149 
L 305.690077 202.363885 
L 300.824664 203.961464 
L 296.027029 205.752329 
L 291.304847 207.733616 
L 286.665672 209.902156 
L 282.116927 212.254478 
L 277.665888 214.78682 
L 273.319677 217.49513 
L 269.085245 220.375076 
L 264.969368 223.422051 
L 260.978629 226.63118 
L 257.119413 229.997328 
L 253.397894 233.515112 
L 249.820026 237.178902 
L 246.391533 240.982839 
L 243.117899 244.920836 
L 240.004361 248.986593 
L 237.0559 253.173607 
L 234.277234 257.475179 
L 231.672808 261.884426 
L 229.246788 266.394296 
L 227.003055 270.997574 
L 224.945198 275.686894 
L 223.076511 280.454757 
L 221.362928 285.408 
L 219.690947 280.567651 
L 217.826741 275.798035 
L 215.773292 271.106782 
L 213.533886 266.501398 
L 211.112104 261.98925 
L 208.511823 257.577557 
L 205.7372 253.273377 
L 202.792676 249.083594 
L 199.68296 245.014912 
L 196.413028 241.073841 
L 192.98811 237.266684 
L 189.413687 233.599533 
L 185.695475 230.078254 
L 181.839425 226.70848 
L 177.851703 223.495603 
L 173.738691 220.444762 
L 169.506967 217.560838 
L 165.163303 214.848444 
L 160.714646 212.311921 
L 156.168113 209.955325 
L 151.530978 207.782427 
L 146.81066 205.796703 
L 142.01471 204.00133 
L 137.150801 202.39918 
L 132.226713 200.992816 
L 127.250324 199.784487 
L 122.114534 198.755458 
L 123.756063 193.904697 
L 125.202301 188.992172 
L 126.450933 184.025743 
L 127.499962 179.013355 
L 128.34771 173.963025 
L 128.99282 168.882835 
L 129.434261 163.780911 
L 129.671327 158.665414 
L 129.703637 153.54453 
L 129.531141 148.42645 
L 129.154115 143.319361 
L 128.66774 138.950056 
L 133.352861 136.882658 
L 137.951562 134.629559 
L 142.456483 132.194362 
L 146.86042 129.580965 
L 151.156326 126.793548 
L 155.337328 123.83657 
L 159.396739 120.714762 
L 163.328064 117.433117 
L 167.125013 113.996887 
L 170.781512 110.411568 
L 174.291712 106.682895 
L 177.649997 102.816835 
L 180.850995 98.819571 
L 183.889584 94.6975 
L 186.760904 90.457214 
L 189.460361 86.105497 
L 191.983637 81.649313 
L 194.326694 77.095788 
L 196.485784 72.452209 
L 198.457454 67.726003 
L 199.984149 63.648 
L 201.793964 68.438519 
L 203.7939 73.152833 
L 205.980759 77.7834 
L 208.351042 82.322812 
L 210.900958 86.763807 
L 213.626425 91.09928 
L 216.523086 95.322295 
L 219.586305 99.426097 
L 222.811182 103.40412 
L 226.192558 107.250001 
L 229.725024 110.957586 
L 233.402928 114.520945 
L 237.220386 117.934377 
L 241.171291 121.19242 
L 244.956349 124.075804 
L 249.837615 122.527338 
L 254.653054 120.784912 
L 259.394963 118.851313 
L 264.055755 116.729636 
L 268.627975 114.423273 
L 273.104308 111.935915 
L 277.477592 109.271542 
L 281.740832 106.434415 
L 285.887206 103.429073 
L 289.910083 100.260324 
L 293.803025 96.933238 
L 297.559805 93.453137 
L 301.174414 89.825589 
L 304.641068 86.056396 
L 307.954221 82.15159 
L 309.639321 80.037918 
L 304.582849 80.848218 
L 299.562824 81.860076 
L 294.587279 83.071871 
L 289.664172 84.481666 
L 284.80138 86.087205 
L 280.006682 87.885919 
L 275.287748 89.874931 
L 270.652129 92.05106 
L 266.10724 94.410823 
L 261.660351 96.950445 
L 257.318577 99.665865 
L 253.088864 102.552737 
L 248.977979 105.606443 
L 244.992497 108.822098 
L 241.138795 112.194558 
L 237.423038 115.718427 
L 233.851171 119.388067 
L 230.428907 123.19761 
L 230.010244 123.685298 
L 225.792916 120.780363 
L 221.462795 118.046401 
L 217.026808 115.487784 
L 212.492052 113.108605 
L 207.865781 110.912672 
L 203.155397 108.903497 
L 198.368436 107.084294 
L 193.512554 105.457973 
L 188.595522 104.027137 
L 183.625204 102.794074 
L 178.609553 101.760758 
L 173.556592 100.92884 
L 168.474405 100.299652 
L 163.371122 99.874201 
L 158.254908 99.653167 
L 153.133947 99.636904 
L 151.340519 99.67965 
L 153.852807 104.142038 
L 156.541534 108.500393 
L 159.402397 112.74774 
L 162.430821 116.877287 
L 165.62196 120.882425 
L 168.970709 124.756748 
L 172.471711 128.494058 
L 176.119365 132.088376 
L 179.907836 135.533951 
L 183.831063 138.825272 
L 187.882769 141.957073 
L 192.056473 144.924344 
L 193.638362 145.984872 
L 188.809086 142.843645 
L 184.401563 140.236302 
L 179.893298 137.807299 
L 175.291506 135.560521 
L 170.603548 133.499563 
L 165.836923 131.627722 
L 160.999257 129.947993 
L 156.09829 128.463062 
L 151.141861 127.175305 
L 146.137901 126.086783 
L 141.094413 125.199236 
L 136.939482 124.622979 
L 140.099554 128.652675 
L 143.418242 132.552778 
L 146.890239 136.317049 
L 150.50999 139.939467 
L 154.271703 143.414235 
L 158.169361 146.735796 
L 162.196728 149.898835 
L 166.347361 152.898293 
L 170.614621 155.72937 
L 174.99168 158.387537 
L 179.471536 160.868543 
L 184.047023 163.168417 
L 186.021436 164.09132 
L 180.904204 164.287362 
L 175.798904 164.687881 
L 170.713704 165.292238 
L 165.65674 166.099465 
L 160.636101 167.108271 
L 155.65982 168.317042 
L 150.735857 169.723844 
L 145.87209 171.326427 
L 141.0763 173.122226 
L 136.356159 175.10837 
L 131.719217 177.281681 
L 127.172894 179.638681 
L 122.724463 182.1756 
L 118.38104 184.88838 
L 115.304731 186.960534 
L 119.893551 184.687379 
L 124.387798 182.232538 
L 128.780283 179.599939 
L 133.063979 176.793793 
L 137.232032 173.81859 
L 141.277774 170.679088 
L 145.194734 167.380312 
L 148.976645 163.927537 
L 152.617457 160.326289 
L 156.111345 156.582327 
L 159.452719 152.701642 
L 162.636235 148.690441 
L 165.656799 144.555143 
L 168.509579 140.302361 
L 171.190011 135.938901 
L 173.693808 131.471743 
L 176.016963 126.908032 
L 178.15576 122.255071 
L 180.106777 117.520302 
L 181.866893 112.711301 
L 183.433293 107.835761 
L 184.80347 102.901481 
L 185.975233 97.916356 
L 186.946706 92.88836 
L 187.716336 87.825538 
L 188.282892 82.735988 
L 188.645467 77.627853 
L 188.803481 72.509305 
L 188.756681 67.388532 
L 188.592886 63.648 
L 188.55713 64.287166 
L 188.386207 69.405299 
L 188.42009 74.526173 
L 188.658727 79.641597 
L 189.101735 84.743385 
L 189.748407 89.823377 
L 190.597706 94.873446 
L 191.648275 99.885512 
L 192.898432 104.851557 
L 194.346179 109.763637 
L 195.989198 114.613894 
L 197.824862 119.394568 
L 199.850233 124.09801 
L 202.062072 128.716698 
L 204.45684 133.24324 
L 204.871171 133.984085 
L 201.122524 130.495225 
L 197.237357 127.159062 
L 193.221888 123.980932 
L 189.082539 120.96592 
L 184.825933 118.11885 
L 180.45888 115.444277 
L 175.988365 112.946478 
L 171.421541 110.62945 
L 166.765713 108.496899 
L 162.02833 106.552238 
L 157.216971 104.798578 
L 152.339333 103.238723 
L 149.718889 102.488396 
L 153.434402 106.012522 
L 157.28787 109.385249 
L 161.273129 112.60118 
L 165.383803 115.655171 
L 169.613317 118.542335 
L 173.954902 121.258055 
L 178.401615 123.797986 
L 182.946341 126.158064 
L 187.58181 128.334513 
L 192.300605 130.323852 
L 197.095179 132.122899 
L 201.95786 133.728774 
L 204.304743 134.427595 
L 203.938064 129.319753 
L 203.367418 124.23066 
L 202.59372 119.168458 
L 201.618206 114.141244 
L 200.442438 109.157062 
L 199.068296 104.223885 
L 197.497979 99.349605 
L 195.733999 94.54202 
L 193.779177 89.808821 
L 191.636642 85.15758 
L 189.30982 80.595738 
L 186.802435 76.130593 
L 184.118497 71.769288 
L 181.2623 67.5188 
L 178.437797 63.648 
L 175.424551 67.788634 
L 172.579295 72.046453 
L 169.906583 76.414646 
L 167.41069 80.886225 
L 165.095609 85.454037 
L 162.965044 90.110773 
L 161.022402 94.848984 
L 159.270792 99.66109 
L 157.713017 104.539393 
L 156.351567 109.476088 
L 155.188622 114.463277 
L 154.226041 119.492983 
L 153.465365 124.557159 
L 152.90781 129.647702 
L 152.554269 134.75647 
L 152.405307 139.87529 
L 152.461162 144.995971 
L 152.721745 150.110324 
L 153.186639 155.210164 
L 153.8551 160.287335 
L 154.72606 165.333713 
L 155.798124 170.341225 
L 157.069578 175.301861 
L 158.538387 180.207684 
L 160.202202 185.050847 
L 162.05836 189.8236 
L 164.103894 194.51831 
L 166.335529 199.127464 
L 168.749696 203.64369 
L 171.342534 208.059763 
L 174.109893 212.368617 
L 177.047346 216.56336 
L 180.150195 220.637281 
L 183.413475 224.583862 
L 186.831967 228.39679 
L 190.4002 232.069965 
L 194.112467 235.59751 
L 197.962828 238.973783 
L 201.945125 242.193381 
L 206.052986 245.251155 
L 210.279839 248.142213 
L 214.618923 250.861929 
L 219.063296 253.405952 
L 223.605847 255.770213 
L 228.23931 257.950929 
L 232.956272 259.944611 
L 237.749187 261.748071 
L 242.610388 263.358422 
L 247.532097 264.77309 
L 252.50644 265.98981 
L 257.525461 267.006636 
L 262.581129 267.821941 
L 267.665356 268.434421 
L 272.77001 268.843097 
L 277.886922 269.047314 
L 283.007909 269.046745 
L 288.124776 268.841393 
L 293.229339 268.431584 
L 298.31343 267.817975 
L 303.368917 267.001548 
L 308.387712 265.983608 
L 311.870828 265.152999 
L 310.379409 260.254002 
L 308.693276 255.418564 
L 306.815125 250.654422 
L 304.747962 245.969196 
L 302.495093 241.370383 
L 300.060123 236.865339 
L 297.446946 232.461271 
L 294.659745 228.165226 
L 291.702976 223.984075 
L 288.581372 219.924508 
L 285.299925 215.993018 
L 281.863885 212.195897 
L 278.278749 208.539218 
L 276.159659 206.509669 
L 276.690143 206.867996 
L 280.997156 209.638219 
L 285.411504 212.233992 
L 289.926124 214.651162 
L 294.533793 216.885862 
L 299.227141 218.934517 
L 303.998659 220.793849 
L 308.840714 222.460884 
L 313.74556 223.932955 
L 318.705349 225.207707 
L 323.712147 226.283101 
L 328.757945 227.157416 
L 333.445241 227.785019 
L 330.312635 223.733935 
L 327.020534 219.811363 
L 323.574205 216.023577 
L 319.979162 212.376638 
L 316.241156 208.876379 
L 312.366167 205.5284 
L 308.360394 202.338058 
L 304.230246 199.310456 
L 299.982329 196.450437 
L 295.62344 193.762577 
L 291.160552 191.251177 
L 286.600805 188.920253 
L 285.465719 188.375235 
L 290.568281 188.809247 
L 295.684117 189.038865 
L 300.805043 189.06372 
L 305.922867 188.883773 
L 311.029401 188.499311 
L 316.116476 187.91095 
L 321.175954 187.119631 
L 326.19974 186.126619 
L 331.179798 184.933504 
L 336.108161 183.542194 
L 340.976944 181.954916 
L 345.778358 180.174207 
L 350.504723 178.202918 
L 355.148476 176.044201 
L 359.702189 173.70151 
L 362.738419 172.008254 
L 359.988838 173.646722 
L 355.677191 176.409728 
L 351.479484 179.342944 
L 347.402432 182.441678 
L 343.452557 185.700971 
L 339.636179 189.11561 
L 335.959403 192.680132 
L 332.42811 196.388835 
L 329.047951 200.235785 
L 325.824332 204.214828 
L 322.762412 208.319599 
L 319.867087 212.543531 
L 317.142991 216.879866 
L 314.594481 221.321667 
L 312.225634 225.861828 
L 310.04024 230.493087 
L 308.041795 235.208033 
L 306.233496 239.999125 
L 304.618236 244.858696 
L 303.1986 249.778974 
L 301.976857 254.752087 
L 300.954963 259.770078 
L 300.134553 264.82492 
L 299.516938 269.908526 
L 299.103108 275.012764 
L 298.893724 280.129468 
L 298.892227 285.408 
L 298.841758 278.367243 
L 298.561942 273.253907 
L 298.077872 268.15585 
L 297.390321 263.08123 
L 296.500389 258.038163 
L 295.4095 253.034718 
L 294.1194 248.078899 
L 292.632151 243.178634 
L 290.950134 238.341763 
L 289.076039 233.576024 
L 287.012864 228.889041 
L 284.76391 224.288312 
L 282.332775 219.781197 
L 279.723349 215.374906 
L 276.939804 211.07649 
L 274.850997 208.081042 
L 279.436957 210.359961 
L 284.110381 212.453668 
L 288.863793 214.358813 
L 293.689588 216.072348 
L 298.580046 217.591533 
L 303.527344 218.913936 
L 308.523566 220.037442 
L 313.56072 220.960254 
L 318.630747 221.680895 
L 323.725537 222.198213 
L 328.836939 222.51138 
L 333.956776 222.619894 
L 336.439518 222.59878 
L 333.871049 218.16849 
L 331.12747 213.844455 
L 328.21317 209.633593 
L 325.132812 205.54264 
L 321.891324 201.578141 
L 318.49389 197.746438 
L 314.945947 194.053661 
L 311.25317 190.505718 
L 307.421467 187.108284 
L 303.456968 183.866796 
L 299.366015 180.786438 
L 295.155153 177.872138 
L 290.831119 175.128559 
L 287.353152 173.092353 
L 291.608411 170.24327 
L 295.746333 167.226301 
L 299.760298 164.046272 
L 303.643886 160.708271 
L 307.390883 157.217639 
L 310.995294 153.579958 
L 314.451354 149.801049 
L 317.753533 145.886958 
L 320.896549 141.843945 
L 323.875374 137.678479 
L 326.685242 133.397224 
L 329.321657 129.007029 
L 331.780403 124.514916 
L 333.428515 121.24201 
L 328.314296 120.978823 
L 323.193643 120.92036 
L 318.074749 121.066716 
L 312.965801 121.417656 
L 307.874975 121.972618 
L 302.810412 122.730716 
L 297.780217 123.690735 
L 292.792436 124.851141 
L 287.855048 126.210077 
L 282.975953 127.765368 
L 278.162956 129.514527 
L 273.423756 131.454756 
L 268.765935 133.58295 
L 267.639477 134.131931 
L 268.614264 129.104576 
L 269.387231 124.042262 
L 269.957141 118.953087 
L 270.323082 113.845192 
L 270.48447 108.72675 
L 270.441045 103.605947 
L 270.192877 98.490978 
L 269.740364 93.390023 
L 269.084229 88.311245 
L 268.225522 83.262768 
L 267.165616 78.252668 
L 265.906208 73.28896 
L 264.449312 68.379586 
L 262.839194 63.648 
L 261.191797 68.496771 
L 259.739616 73.407543 
L 258.484976 78.372458 
L 257.429883 83.383573 
L 256.576025 88.432873 
L 255.924769 93.512279 
L 255.477155 98.613666 
L 255.2339 103.728871 
L 255.195394 108.849713 
L 255.361697 113.967998 
L 255.732544 119.075539 
L 256.307342 124.164165 
L 256.823774 127.668547 
L 256.823774 127.668547 
" style="fill:none;stroke:#1f77b4;stroke-linecap:square;stroke-width:1.5;"/>
   </g>
   <g id="patch_4">
    <path d="M 82.520165 307.584 
L 82.520165 41.472 
" style="fill:none;stroke:#000000;stroke-linecap:square;stroke-linejoin:miter;stroke-width:0.8;"/>
   </g>
   <g id="patch_5">
    <path d="M 389.799835 307.584 
L 389.799835 41.472 
" style="fill:none;stroke:#000000;stroke-linecap:square;stroke-linejoin:miter;stroke-width:0.8;"/>
   </g>
   <g id="patch_6">
    <path d="M 82.520165 307.584 
L 389.799835 307.584 
" style="fill:none;stroke:#000000;stroke-linecap:square;stroke-linejoin:miter;stroke-width:0.8;"/>
   </g>
   <g id="patch_7">
    <path d="M 82.520165 41.472 
L 389.799835 41.472 
" style="fill:none;stroke:#000000;stroke-linecap:square;stroke-linejoin:miter;stroke-width:0.8;"/>
   </g>
  </g>
 </g>
 <defs>
  <clipPath id="p5165351e7e">
   <rect height="266.112" width="307.27967" x="82.520165" y="41.472"/>
  </clipPath>
 </defs>
</svg>
