<?xml version="1.0" encoding="utf-8" standalone="no"?>
<!DOCTYPE svg PUBLIC "-//W3C//DTD SVG 1.1//EN"
  "http://www.w3.org/Graphics/SVG/1.1/DTD/svg11.dtd">
<!-- Created with matplotlib (http://matplotlib.org/) -->
<svg height="345.6pt" version="1.1" viewBox="0 0 460.8 345.6" width="460.8pt" xmlns="http://www.w3.org/2000/svg" xmlns:xlink="http://www.w3.org/1999/xlink">
 <defs>
  <style type="text/css">
*{stroke-linecap:butt;stroke-linejoin:round;}
  </style>
 </defs>
 <g id="figure_1">
  <g id="patch_1">
   <path d="M 0 345.6 
L 460.8 345.6 
L 460.8 0 
L 0 0 
z
" style="fill:#ffffff;"/>
  </g>
  <g id="axes_1">
   <g id="patch_2">
    <path d="M 82.520165 307.584 
L 389.799835 307.584 
L 389.799835 41.472 
L 82.520165 41.472 
z
" style="fill:#ffffff;"/>
   </g>
   <g id="PathCollection_1">
    <defs>
     <path d="M 0 2.738613 
C 0.726289 2.738613 1.422928 2.450055 1.936492 1.936492 
C 2.450055 1.422928 2.738613 0.726289 2.738613 0 
C 2.738613 -0.726289 2.450055 -1.422928 1.936492 -1.936492 
C 1.422928 -2.450055 0.726289 -2.738613 0 -2.738613 
C -0.726289 -2.738613 -1.422928 -2.450055 -1.936492 -1.936492 
C -2.450055 -1.422928 -2.738613 -0.726289 -2.738613 0 
C -2.738613 0.726289 -2.450055 1.422928 -1.936492 1.936492 
C -1.422928 2.450055 -0.726289 2.738613 0 2.738613 
z
" id="m976effc151" style="stroke:#000000;"/>
    </defs>
    <g clip-path="url(#p3b7d700e53)">
     <use style="stroke:#000000;" x="168.709997" xlink:href="#m976effc151" y="69.594832"/>
    </g>
   </g>
   <g id="Quiver_1">
    <path clip-path="url(#p3b7d700e53)" d="M 169.456389 69.413094 
L 173.636354 86.580117 
L 174.947401 85.470249 
L 174.5256 93.479385 
L 170.469047 86.560675 
L 172.14357 86.943592 
L 167.963605 69.77657 
L 169.456389 69.413094 
"/>
   </g>
   <g id="patch_3">
    <path clip-path="url(#p3b7d700e53)" d="M 236.16 225.741278 
C 249.74192 225.741278 262.769389 220.345124 272.373256 210.741256 
C 281.977124 201.137389 287.373278 188.10992 287.373278 174.528 
C 287.373278 160.94608 281.977124 147.918611 272.373256 138.314744 
C 262.769389 128.710876 249.74192 123.314722 236.16 123.314722 
C 222.57808 123.314722 209.550611 128.710876 199.946744 138.314744 
C 190.342876 147.918611 184.946722 160.94608 184.946722 174.528 
C 184.946722 188.10992 190.342876 201.137389 199.946744 210.741256 
C 209.550611 220.345124 222.57808 225.741278 236.16 225.741278 
z
" style="fill:#009900;fill-opacity:0.5;stroke:#009900;stroke-linejoin:miter;stroke-width:2;"/>
   </g>
   <g id="matplotlib.axis_1">
    <g id="xtick_1">
     <g id="line2d_1">
      <defs>
       <path d="M 0 0 
L 0 3.5 
" id="m5eceae2827" style="stroke:#000000;stroke-width:0.8;"/>
      </defs>
      <g>
       <use style="stroke:#000000;stroke-width:0.8;" x="108.126804" xlink:href="#m5eceae2827" y="307.584"/>
      </g>
     </g>
     <g id="text_1">
      <!-- −2 -->
      <defs>
       <path d="M 10.59375 35.5 
L 73.1875 35.5 
L 73.1875 27.203125 
L 10.59375 27.203125 
z
" id="DejaVuSans-2212"/>
       <path d="M 19.1875 8.296875 
L 53.609375 8.296875 
L 53.609375 0 
L 7.328125 0 
L 7.328125 8.296875 
Q 12.9375 14.109375 22.625 23.890625 
Q 32.328125 33.6875 34.8125 36.53125 
Q 39.546875 41.84375 41.421875 45.53125 
Q 43.3125 49.21875 43.3125 52.78125 
Q 43.3125 58.59375 39.234375 62.25 
Q 35.15625 65.921875 28.609375 65.921875 
Q 23.96875 65.921875 18.8125 64.3125 
Q 13.671875 62.703125 7.8125 59.421875 
L 7.8125 69.390625 
Q 13.765625 71.78125 18.9375 73 
Q 24.125 74.21875 28.421875 74.21875 
Q 39.75 74.21875 46.484375 68.546875 
Q 53.21875 62.890625 53.21875 53.421875 
Q 53.21875 48.921875 51.53125 44.890625 
Q 49.859375 40.875 45.40625 35.40625 
Q 44.1875 33.984375 37.640625 27.21875 
Q 31.109375 20.453125 19.1875 8.296875 
z
" id="DejaVuSans-32"/>
      </defs>
      <g transform="translate(100.755711 322.182437)scale(0.1 -0.1)">
       <use xlink:href="#DejaVuSans-2212"/>
       <use x="83.789062" xlink:href="#DejaVuSans-32"/>
      </g>
     </g>
    </g>
    <g id="xtick_2">
     <g id="line2d_2">
      <g>
       <use style="stroke:#000000;stroke-width:0.8;" x="172.143402" xlink:href="#m5eceae2827" y="307.584"/>
      </g>
     </g>
     <g id="text_2">
      <!-- −1 -->
      <defs>
       <path d="M 12.40625 8.296875 
L 28.515625 8.296875 
L 28.515625 63.921875 
L 10.984375 60.40625 
L 10.984375 69.390625 
L 28.421875 72.90625 
L 38.28125 72.90625 
L 38.28125 8.296875 
L 54.390625 8.296875 
L 54.390625 0 
L 12.40625 0 
z
" id="DejaVuSans-31"/>
      </defs>
      <g transform="translate(164.772308 322.182437)scale(0.1 -0.1)">
       <use xlink:href="#DejaVuSans-2212"/>
       <use x="83.789062" xlink:href="#DejaVuSans-31"/>
      </g>
     </g>
    </g>
    <g id="xtick_3">
     <g id="line2d_3">
      <g>
       <use style="stroke:#000000;stroke-width:0.8;" x="236.16" xlink:href="#m5eceae2827" y="307.584"/>
      </g>
     </g>
     <g id="text_3">
      <!-- 0 -->
      <defs>
       <path d="M 31.78125 66.40625 
Q 24.171875 66.40625 20.328125 58.90625 
Q 16.5 51.421875 16.5 36.375 
Q 16.5 21.390625 20.328125 13.890625 
Q 24.171875 6.390625 31.78125 6.390625 
Q 39.453125 6.390625 43.28125 13.890625 
Q 47.125 21.390625 47.125 36.375 
Q 47.125 51.421875 43.28125 58.90625 
Q 39.453125 66.40625 31.78125 66.40625 
z
M 31.78125 74.21875 
Q 44.046875 74.21875 50.515625 64.515625 
Q 56.984375 54.828125 56.984375 36.375 
Q 56.984375 17.96875 50.515625 8.265625 
Q 44.046875 -1.421875 31.78125 -1.421875 
Q 19.53125 -1.421875 13.0625 8.265625 
Q 6.59375 17.96875 6.59375 36.375 
Q 6.59375 54.828125 13.0625 64.515625 
Q 19.53125 74.21875 31.78125 74.21875 
z
" id="DejaVuSans-30"/>
      </defs>
      <g transform="translate(232.97875 322.182437)scale(0.1 -0.1)">
       <use xlink:href="#DejaVuSans-30"/>
      </g>
     </g>
    </g>
    <g id="xtick_4">
     <g id="line2d_4">
      <g>
       <use style="stroke:#000000;stroke-width:0.8;" x="300.176598" xlink:href="#m5eceae2827" y="307.584"/>
      </g>
     </g>
     <g id="text_4">
      <!-- 1 -->
      <g transform="translate(296.995348 322.182437)scale(0.1 -0.1)">
       <use xlink:href="#DejaVuSans-31"/>
      </g>
     </g>
    </g>
    <g id="xtick_5">
     <g id="line2d_5">
      <g>
       <use style="stroke:#000000;stroke-width:0.8;" x="364.193196" xlink:href="#m5eceae2827" y="307.584"/>
      </g>
     </g>
     <g id="text_5">
      <!-- 2 -->
      <g transform="translate(361.011946 322.182437)scale(0.1 -0.1)">
       <use xlink:href="#DejaVuSans-32"/>
      </g>
     </g>
    </g>
   </g>
   <g id="matplotlib.axis_2">
    <g id="ytick_1">
     <g id="line2d_6">
      <defs>
       <path d="M 0 0 
L -3.5 0 
" id="m1fedf5110d" style="stroke:#000000;stroke-width:0.8;"/>
      </defs>
      <g>
       <use style="stroke:#000000;stroke-width:0.8;" x="82.520165" xlink:href="#m1fedf5110d" y="302.561196"/>
      </g>
     </g>
     <g id="text_6">
      <!-- −2.0 -->
      <defs>
       <path d="M 10.6875 12.40625 
L 21 12.40625 
L 21 0 
L 10.6875 0 
z
" id="DejaVuSans-2e"/>
      </defs>
      <g transform="translate(51.237353 306.360414)scale(0.1 -0.1)">
       <use xlink:href="#DejaVuSans-2212"/>
       <use x="83.789062" xlink:href="#DejaVuSans-32"/>
       <use x="147.412109" xlink:href="#DejaVuSans-2e"/>
       <use x="179.199219" xlink:href="#DejaVuSans-30"/>
      </g>
     </g>
    </g>
    <g id="ytick_2">
     <g id="line2d_7">
      <g>
       <use style="stroke:#000000;stroke-width:0.8;" x="82.520165" xlink:href="#m1fedf5110d" y="270.552897"/>
      </g>
     </g>
     <g id="text_7">
      <!-- −1.5 -->
      <defs>
       <path d="M 10.796875 72.90625 
L 49.515625 72.90625 
L 49.515625 64.59375 
L 19.828125 64.59375 
L 19.828125 46.734375 
Q 21.96875 47.46875 24.109375 47.828125 
Q 26.265625 48.1875 28.421875 48.1875 
Q 40.625 48.1875 47.75 41.5 
Q 54.890625 34.8125 54.890625 23.390625 
Q 54.890625 11.625 47.5625 5.09375 
Q 40.234375 -1.421875 26.90625 -1.421875 
Q 22.3125 -1.421875 17.546875 -0.640625 
Q 12.796875 0.140625 7.71875 1.703125 
L 7.71875 11.625 
Q 12.109375 9.234375 16.796875 8.0625 
Q 21.484375 6.890625 26.703125 6.890625 
Q 35.15625 6.890625 40.078125 11.328125 
Q 45.015625 15.765625 45.015625 23.390625 
Q 45.015625 31 40.078125 35.4375 
Q 35.15625 39.890625 26.703125 39.890625 
Q 22.75 39.890625 18.8125 39.015625 
Q 14.890625 38.140625 10.796875 36.28125 
z
" id="DejaVuSans-35"/>
      </defs>
      <g transform="translate(51.237353 274.352116)scale(0.1 -0.1)">
       <use xlink:href="#DejaVuSans-2212"/>
       <use x="83.789062" xlink:href="#DejaVuSans-31"/>
       <use x="147.412109" xlink:href="#DejaVuSans-2e"/>
       <use x="179.199219" xlink:href="#DejaVuSans-35"/>
      </g>
     </g>
    </g>
    <g id="ytick_3">
     <g id="line2d_8">
      <g>
       <use style="stroke:#000000;stroke-width:0.8;" x="82.520165" xlink:href="#m1fedf5110d" y="238.544598"/>
      </g>
     </g>
     <g id="text_8">
      <!-- −1.0 -->
      <g transform="translate(51.237353 242.343817)scale(0.1 -0.1)">
       <use xlink:href="#DejaVuSans-2212"/>
       <use x="83.789062" xlink:href="#DejaVuSans-31"/>
       <use x="147.412109" xlink:href="#DejaVuSans-2e"/>
       <use x="179.199219" xlink:href="#DejaVuSans-30"/>
      </g>
     </g>
    </g>
    <g id="ytick_4">
     <g id="line2d_9">
      <g>
       <use style="stroke:#000000;stroke-width:0.8;" x="82.520165" xlink:href="#m1fedf5110d" y="206.536299"/>
      </g>
     </g>
     <g id="text_9">
      <!-- −0.5 -->
      <g transform="translate(51.237353 210.335518)scale(0.1 -0.1)">
       <use xlink:href="#DejaVuSans-2212"/>
       <use x="83.789062" xlink:href="#DejaVuSans-30"/>
       <use x="147.412109" xlink:href="#DejaVuSans-2e"/>
       <use x="179.199219" xlink:href="#DejaVuSans-35"/>
      </g>
     </g>
    </g>
    <g id="ytick_5">
     <g id="line2d_10">
      <g>
       <use style="stroke:#000000;stroke-width:0.8;" x="82.520165" xlink:href="#m1fedf5110d" y="174.528"/>
      </g>
     </g>
     <g id="text_10">
      <!-- 0.0 -->
      <g transform="translate(59.61704 178.327219)scale(0.1 -0.1)">
       <use xlink:href="#DejaVuSans-30"/>
       <use x="63.623047" xlink:href="#DejaVuSans-2e"/>
       <use x="95.410156" xlink:href="#DejaVuSans-30"/>
      </g>
     </g>
    </g>
    <g id="ytick_6">
     <g id="line2d_11">
      <g>
       <use style="stroke:#000000;stroke-width:0.8;" x="82.520165" xlink:href="#m1fedf5110d" y="142.519701"/>
      </g>
     </g>
     <g id="text_11">
      <!-- 0.5 -->
      <g transform="translate(59.61704 146.31892)scale(0.1 -0.1)">
       <use xlink:href="#DejaVuSans-30"/>
       <use x="63.623047" xlink:href="#DejaVuSans-2e"/>
       <use x="95.410156" xlink:href="#DejaVuSans-35"/>
      </g>
     </g>
    </g>
    <g id="ytick_7">
     <g id="line2d_12">
      <g>
       <use style="stroke:#000000;stroke-width:0.8;" x="82.520165" xlink:href="#m1fedf5110d" y="110.511402"/>
      </g>
     </g>
     <g id="text_12">
      <!-- 1.0 -->
      <g transform="translate(59.61704 114.310621)scale(0.1 -0.1)">
       <use xlink:href="#DejaVuSans-31"/>
       <use x="63.623047" xlink:href="#DejaVuSans-2e"/>
       <use x="95.410156" xlink:href="#DejaVuSans-30"/>
      </g>
     </g>
    </g>
    <g id="ytick_8">
     <g id="line2d_13">
      <g>
       <use style="stroke:#000000;stroke-width:0.8;" x="82.520165" xlink:href="#m1fedf5110d" y="78.503103"/>
      </g>
     </g>
     <g id="text_13">
      <!-- 1.5 -->
      <g transform="translate(59.61704 82.302322)scale(0.1 -0.1)">
       <use xlink:href="#DejaVuSans-31"/>
       <use x="63.623047" xlink:href="#DejaVuSans-2e"/>
       <use x="95.410156" xlink:href="#DejaVuSans-35"/>
      </g>
     </g>
    </g>
    <g id="ytick_9">
     <g id="line2d_14">
      <g>
       <use style="stroke:#000000;stroke-width:0.8;" x="82.520165" xlink:href="#m1fedf5110d" y="46.494804"/>
      </g>
     </g>
     <g id="text_14">
      <!-- 2.0 -->
      <g transform="translate(59.61704 50.294023)scale(0.1 -0.1)">
       <use xlink:href="#DejaVuSans-32"/>
       <use x="63.623047" xlink:href="#DejaVuSans-2e"/>
       <use x="95.410156" xlink:href="#DejaVuSans-30"/>
      </g>
     </g>
    </g>
   </g>
   <g id="line2d_15">
    <path clip-path="url(#p3b7d700e53)" d="M 300.176598 63.648 
L 172.143402 63.648 
" style="fill:none;stroke:#009900;stroke-linecap:square;stroke-width:2;"/>
   </g>
   <g id="line2d_16">
    <path clip-path="url(#p3b7d700e53)" d="M 172.143402 63.648 
L 108.126804 174.528 
" style="fill:none;stroke:#009900;stroke-linecap:square;stroke-width:2;"/>
   </g>
   <g id="line2d_17">
    <path clip-path="url(#p3b7d700e53)" d="M 108.126804 174.528 
L 172.143402 285.408 
" style="fill:none;stroke:#009900;stroke-linecap:square;stroke-width:2;"/>
   </g>
   <g id="line2d_18">
    <path clip-path="url(#p3b7d700e53)" d="M 172.143402 285.408 
L 300.176598 285.408 
" style="fill:none;stroke:#009900;stroke-linecap:square;stroke-width:2;"/>
   </g>
   <g id="line2d_19">
    <path clip-path="url(#p3b7d700e53)" d="M 300.176598 285.408 
L 364.193196 174.528 
" style="fill:none;stroke:#009900;stroke-linecap:square;stroke-width:2;"/>
   </g>
   <g id="line2d_20">
    <path clip-path="url(#p3b7d700e53)" d="M 364.193196 174.528 
L 300.176598 63.648 
" style="fill:none;stroke:#009900;stroke-linecap:square;stroke-width:2;"/>
   </g>
   <g id="line2d_21">
    <path clip-path="url(#p3b7d700e53)" d="M 252.557935 69.042233 
L 257.048206 66.580127 
L 261.436428 63.940428 
L 261.899055 63.648 
L 266.275953 66.306434 
L 270.755658 68.787712 
L 275.331005 71.087865 
L 279.994674 73.203212 
L 284.739203 75.130371 
L 289.557004 76.866258 
L 294.440367 78.408096 
L 299.381481 79.753417 
L 304.372442 80.900071 
L 309.405264 81.846223 
L 310.814895 82.074071 
L 309.064095 86.886472 
L 307.507141 91.765037 
L 306.146522 96.701961 
L 304.984416 101.689346 
L 304.022682 106.719214 
L 303.262859 111.783517 
L 302.706161 116.874155 
L 302.353479 121.982982 
L 302.205379 127.101826 
L 302.262096 132.222499 
L 302.52354 137.336807 
L 302.989292 142.436569 
L 303.658608 147.513627 
L 304.530417 152.559859 
L 305.603324 157.567191 
L 306.875613 162.527612 
L 308.345248 167.433188 
L 310.009878 172.27607 
L 311.86684 177.048511 
L 313.913164 181.742876 
L 316.145575 186.351655 
L 318.560503 190.867475 
L 321.154083 195.283111 
L 323.922167 199.591499 
L 326.860327 203.785748 
L 329.963862 207.859146 
L 333.227806 211.805178 
L 336.646939 215.61753 
L 339.033532 218.105816 
L 334.052593 216.916385 
L 329.028073 215.92709 
L 323.968011 215.139514 
L 318.880502 214.554916 
L 313.773685 214.174232 
L 308.65573 213.99807 
L 303.534823 214.026713 
L 298.419159 214.260115 
L 293.316919 214.697902 
L 288.236268 215.339374 
L 283.185333 216.183505 
L 278.172195 217.228944 
L 273.204872 218.474019 
L 268.291313 219.916738 
L 263.439378 221.554793 
L 258.656828 223.385563 
L 253.951315 225.40612 
L 249.330367 227.613231 
L 244.801376 230.003365 
L 240.371587 232.572699 
L 236.048088 235.317121 
L 231.837795 238.232243 
L 227.747443 241.313399 
L 223.783576 244.555661 
L 219.952537 247.953843 
L 216.260452 251.502506 
L 212.71323 255.195975 
L 209.316544 259.028341 
L 206.075829 262.993473 
L 202.996269 267.085027 
L 200.082791 271.296457 
L 197.340056 275.621027 
L 194.772451 280.051818 
L 192.384085 284.581742 
L 191.973069 285.408 
L 189.617416 280.860979 
L 187.081814 276.411797 
L 184.37032 272.06757 
L 181.487273 267.835249 
L 178.437285 263.721605 
L 175.225233 259.733218 
L 171.856259 255.876469 
L 168.33575 252.157528 
L 164.66934 248.582345 
L 160.862893 245.156639 
L 156.922499 241.88589 
L 152.854461 238.775331 
L 148.665289 235.829939 
L 144.361683 233.054424 
L 140.641498 230.845101 
L 140.562603 225.724722 
L 140.279012 220.611594 
L 139.791176 215.513897 
L 139.099878 210.439785 
L 138.206222 205.397377 
L 137.111638 200.394739 
L 135.817877 195.439874 
L 134.32701 190.540709 
L 132.641421 185.705082 
L 130.763806 180.940728 
L 128.697171 176.25527 
L 126.44482 171.656203 
L 124.010357 167.150885 
L 121.397676 162.746523 
L 118.610958 158.450164 
L 117.959349 157.497533 
L 123.070866 157.808813 
L 128.190742 157.915437 
L 133.310787 157.817235 
L 138.422809 157.514365 
L 143.518631 157.007311 
L 148.590099 156.296883 
L 153.629102 155.38422 
L 158.627577 154.27078 
L 163.577528 152.958345 
L 168.471037 151.449014 
L 173.300273 149.745203 
L 178.057513 147.849636 
L 182.735145 145.765347 
L 187.325686 143.49567 
L 191.821792 141.044236 
L 196.216271 138.414966 
L 200.502092 135.612067 
L 204.672398 132.640023 
L 208.720519 129.503589 
L 212.639978 126.207781 
L 216.424504 122.757874 
L 220.068044 119.159385 
L 223.564768 115.418072 
L 226.909082 111.53992 
L 230.095637 107.531133 
L 233.119333 103.398125 
L 235.975336 99.147507 
L 238.659074 94.786079 
L 241.166255 90.320819 
L 243.492867 85.758871 
L 245.63519 81.107531 
L 247.589794 76.374243 
L 249.353554 71.566577 
L 250.923648 66.692225 
L 251.79656 63.648 
L 253.245616 68.559694 
L 254.889928 73.409513 
L 256.726866 78.189697 
L 258.753491 82.8926 
L 260.96656 87.510697 
L 263.362534 92.036601 
L 265.93758 96.463072 
L 268.687577 100.783028 
L 271.608127 104.989557 
L 274.694557 109.075931 
L 277.941929 113.035612 
L 281.345049 116.862266 
L 284.898472 120.54977 
L 288.596514 124.092225 
L 292.433258 127.483965 
L 296.402566 130.719562 
L 300.498089 133.793842 
L 304.713274 136.701885 
L 309.041379 139.43904 
L 313.475478 142.000927 
L 318.008478 144.383448 
L 322.633128 146.582792 
L 327.34203 148.59544 
L 332.127649 150.418173 
L 336.982329 152.048073 
L 341.898306 153.482534 
L 346.867713 154.719262 
L 351.882601 155.756276 
L 353.525375 156.050793 
L 351.852778 160.890929 
L 350.375073 165.79408 
L 349.094624 170.752402 
L 348.013479 175.757961 
L 347.133367 180.802751 
L 346.455698 185.878701 
L 345.981554 190.97769 
L 345.711695 196.091561 
L 345.646552 201.212133 
L 345.789685 206.403816 
L 341.285208 208.839836 
L 336.881749 211.454038 
L 332.586353 214.24224 
L 328.405891 217.199983 
L 324.347051 220.322533 
L 320.416327 223.604896 
L 316.620006 227.04182 
L 312.964162 230.627808 
L 309.454643 234.357122 
L 306.097065 238.223796 
L 302.896798 242.221645 
L 299.858962 246.344272 
L 296.988418 250.585082 
L 294.289756 254.937292 
L 291.767295 259.393938 
L 289.425071 263.947891 
L 287.266829 268.591865 
L 285.296023 273.318431 
L 283.515806 278.120027 
L 281.929025 282.988973 
L 281.219785 285.408 
L 279.729173 280.508758 
L 278.043835 275.673043 
L 276.166468 270.908591 
L 274.100076 266.223026 
L 271.847964 261.623842 
L 269.413735 257.118397 
L 266.801284 252.7139 
L 264.014789 248.417395 
L 261.058709 244.235758 
L 257.937772 240.175677 
L 254.656972 236.243648 
L 251.221557 232.445961 
L 247.637023 228.788692 
L 243.789665 225.169762 
L 241.256079 229.620093 
L 238.902485 234.16818 
L 236.732649 238.806748 
L 234.750042 243.528376 
L 232.957835 248.325511 
L 231.358897 253.190477 
L 229.955784 258.115492 
L 228.750741 263.092678 
L 227.745697 268.114071 
L 226.942259 273.171638 
L 226.341712 278.257289 
L 225.945017 283.362887 
L 225.843608 285.408 
L 225.815418 284.768456 
L 225.474873 279.658805 
L 224.930268 274.56686 
L 224.182475 269.500766 
L 223.232691 264.468628 
L 222.082435 259.478496 
L 220.733547 254.538354 
L 219.188185 249.656105 
L 217.448821 244.839559 
L 215.518238 240.096422 
L 213.399524 235.434281 
L 211.096069 230.860596 
L 208.611558 226.382683 
L 205.949966 222.007705 
L 203.11555 217.742663 
L 200.112845 213.594378 
L 196.946655 209.569488 
L 193.622044 205.674431 
L 190.144333 201.915438 
L 186.519083 198.298524 
L 182.752096 194.829475 
L 178.849396 191.513839 
L 174.817229 188.356922 
L 170.662043 185.363774 
L 166.390488 182.539183 
L 162.009395 179.887668 
L 157.525775 177.413471 
L 152.946799 175.12055 
L 148.279794 173.012574 
L 143.532226 171.092914 
L 138.711689 169.364641 
L 133.825895 167.830522 
L 128.882661 166.493009 
L 123.889895 165.354242 
L 118.855584 164.416044 
L 114.348772 163.751235 
L 117.537908 167.757969 
L 120.884719 171.633967 
L 124.383852 175.373027 
L 128.029709 178.969168 
L 131.816456 182.416638 
L 135.738036 185.70992 
L 139.788176 188.843747 
L 143.960396 191.813104 
L 148.248021 194.613242 
L 152.644192 197.239682 
L 157.141876 199.68822 
L 161.733878 201.95494 
L 166.412851 204.036216 
L 171.171311 205.928718 
L 176.001644 207.629419 
L 180.896123 209.135598 
L 185.846919 210.444844 
L 190.84611 211.555065 
L 195.885699 212.464483 
L 200.957624 213.171644 
L 202.789362 213.376428 
L 204.182645 218.304234 
L 205.771873 223.172381 
L 207.554504 227.973081 
L 209.527686 232.698656 
L 211.688262 237.341544 
L 214.032776 241.894319 
L 216.557477 246.349696 
L 219.258326 250.700549 
L 222.131002 254.939916 
L 225.17091 259.061015 
L 228.373186 263.057255 
L 231.732708 266.92224 
L 235.244101 270.649789 
L 238.901747 274.233939 
L 242.699795 277.668954 
L 246.632169 280.949341 
L 250.692579 284.06985 
L 252.54209 285.408 
L 256.65749 282.360381 
L 260.647727 279.150628 
L 264.506415 275.783875 
L 268.227383 272.265508 
L 271.804677 268.601158 
L 275.232575 264.796684 
L 278.505593 260.858175 
L 281.618494 256.79193 
L 284.566298 252.604454 
L 287.344291 248.302448 
L 289.948027 243.892792 
L 292.373341 239.382543 
L 294.616353 234.778914 
L 296.673475 230.089271 
L 298.541416 225.321116 
L 300.217187 220.482078 
L 301.698108 215.579897 
L 302.98181 210.622417 
L 304.066238 205.617567 
L 304.949658 200.573356 
L 305.630657 195.497852 
L 306.108145 190.399175 
L 306.381359 185.285482 
L 306.44986 180.164953 
L 306.313541 175.045782 
L 305.972618 169.936156 
L 305.427638 164.844251 
L 304.679471 159.778212 
L 303.729316 154.746144 
L 302.578691 149.756098 
L 301.229438 144.816055 
L 299.683715 139.93392 
L 297.943996 135.117503 
L 296.013063 130.374508 
L 293.894005 125.712524 
L 291.590212 121.139009 
L 289.105371 116.661279 
L 286.443455 112.286498 
L 283.608724 108.021665 
L 280.605713 103.873602 
L 277.439226 99.848945 
L 274.114328 95.954134 
L 270.636339 92.195398 
L 267.010823 88.578752 
L 263.243579 85.10998 
L 259.340635 81.794632 
L 255.308234 78.638013 
L 251.152828 75.645172 
L 246.881063 72.820896 
L 242.499775 70.169705 
L 238.015972 67.695839 
L 233.436828 65.403256 
L 229.585666 63.648 
L 224.933249 65.787981 
L 220.37013 68.112298 
L 215.903609 70.617232 
L 211.540832 73.298775 
L 207.288777 76.152637 
L 203.154247 79.174254 
L 199.143857 82.358791 
L 195.264023 85.701153 
L 191.520951 89.195994 
L 187.920629 92.837723 
L 184.468818 96.620512 
L 181.171038 100.538312 
L 178.032567 104.584854 
L 175.058425 108.753664 
L 172.25337 113.038074 
L 169.621889 117.431229 
L 167.168192 121.926101 
L 164.896205 126.515499 
L 162.809563 131.192082 
L 160.911603 135.948367 
L 159.205361 140.776746 
L 157.693568 145.669494 
L 156.378643 150.618784 
L 155.262688 155.616698 
L 154.347488 160.655241 
L 153.634509 165.726352 
L 153.12489 170.821917 
L 152.819448 175.933787 
L 152.71867 181.053781 
L 152.822717 186.173711 
L 153.131424 191.285384 
L 153.644297 196.380623 
L 154.360514 201.451277 
L 155.278931 206.489234 
L 156.398078 211.486435 
L 157.716164 216.434884 
L 159.231081 221.326666 
L 160.940405 226.153954 
L 162.841402 230.909026 
L 164.931031 235.584276 
L 167.205948 240.172222 
L 169.662514 244.665526 
L 172.2968 249.057 
L 175.104591 253.339617 
L 178.081395 257.506528 
L 181.222449 261.551064 
L 184.52273 265.466757 
L 187.976956 269.247342 
L 191.579603 272.886771 
L 195.324906 276.37922 
L 199.206874 279.719104 
L 203.219297 282.90108 
L 206.629241 285.408 
L 210.744642 282.360381 
L 214.734878 279.150628 
L 218.593566 275.783875 
L 222.314534 272.265508 
L 225.891829 268.601158 
L 229.319726 264.796684 
L 232.592744 260.858175 
L 235.705645 256.79193 
L 238.65345 252.604454 
L 241.431442 248.302448 
L 244.035178 243.892792 
L 246.460492 239.382543 
L 248.703504 234.778914 
L 250.760626 230.089271 
L 252.628567 225.321116 
L 253.565657 222.692748 
L 257.995261 225.2624 
L 262.52408 227.65286 
L 267.14487 229.860303 
L 271.850238 231.881198 
L 276.632656 233.712312 
L 281.484474 235.350715 
L 286.397929 236.793787 
L 291.365162 238.039219 
L 296.378225 239.085019 
L 301.4291 239.929513 
L 306.509705 240.57135 
L 311.611912 241.009504 
L 316.72756 241.243273 
L 321.848465 241.272284 
L 325.724349 241.157997 
L 323.273816 236.661399 
L 320.645426 232.266394 
L 317.843386 227.980012 
L 314.872178 223.80911 
L 311.736555 219.760361 
L 308.441533 215.840242 
L 304.992383 212.055025 
L 301.394625 208.410764 
L 297.654012 204.91329 
L 293.776531 201.568199 
L 289.768382 198.380841 
L 285.63598 195.356316 
L 283.556707 193.927796 
L 288.608232 194.768384 
L 293.689332 195.406293 
L 298.791877 195.840502 
L 303.907704 196.070316 
L 309.028629 196.095368 
L 314.14646 195.915617 
L 319.253009 195.531352 
L 324.340107 194.943186 
L 329.399615 194.152061 
L 334.423439 193.159243 
L 339.403543 191.966319 
L 344.331959 190.575199 
L 349.200803 188.988107 
L 354.002286 187.207583 
L 357.769206 185.654677 
L 357.071518 180.58144 
L 356.171512 175.540161 
L 355.070629 170.538906 
L 353.77063 165.585674 
L 352.273595 160.68839 
L 350.581917 155.85489 
L 348.698304 151.092904 
L 346.62577 146.410052 
L 344.367629 141.813825 
L 341.927494 137.311577 
L 339.309269 132.910508 
L 336.517143 128.617662 
L 333.555582 124.439904 
L 330.429324 120.383919 
L 327.143371 116.456196 
L 323.702979 112.663017 
L 320.113653 109.010451 
L 316.381133 105.504342 
L 312.511393 102.150298 
L 308.510622 98.953685 
L 304.38522 95.919618 
L 300.141788 93.05295 
L 295.787115 90.358266 
L 291.328166 87.839879 
L 286.772075 85.501816 
L 282.12613 83.347819 
L 277.397766 81.381333 
L 272.594544 79.605504 
L 267.724151 78.023173 
L 262.794377 76.636871 
L 257.81311 75.448817 
L 252.788317 74.460911 
L 247.728037 73.674733 
L 242.640367 73.091541 
L 237.533445 72.712268 
L 232.415441 72.537521 
L 227.294543 72.567579 
L 222.178943 72.802395 
L 217.076825 73.241592 
L 211.996351 73.884468 
L 206.94565 74.729995 
L 201.9328 75.776819 
L 196.965822 77.023267 
L 192.052662 78.467344 
L 187.201179 80.10674 
L 182.419136 81.938832 
L 177.714181 83.960689 
L 173.093843 86.169077 
L 168.565513 88.560463 
L 164.136434 91.13102 
L 159.813694 93.876638 
L 155.604206 96.792923 
L 151.514706 99.875209 
L 150.986965 100.292024 
L 150.335688 105.371428 
L 149.888054 110.472812 
L 149.644779 115.588017 
L 149.606252 120.708859 
L 149.772535 125.827145 
L 150.143362 130.934687 
L 150.71814 136.023315 
L 151.495948 141.084887 
L 152.475544 146.111307 
L 153.655359 151.094533 
L 155.033506 156.026592 
L 156.60778 160.899596 
L 158.375664 165.705747 
L 160.334328 170.437357 
L 162.480639 175.086857 
L 164.811164 179.646808 
L 167.322175 184.109916 
L 170.009653 188.46904 
L 172.8693 192.717207 
L 175.896541 196.84762 
L 179.086533 200.853672 
L 182.434173 204.728954 
L 185.934105 208.467266 
L 189.58073 212.062628 
L 193.368214 215.509288 
L 197.290498 218.801732 
L 201.341308 221.934693 
L 205.514162 224.903159 
L 209.802385 227.70238 
L 214.199118 230.32788 
L 218.697325 232.775457 
L 223.289811 235.041195 
L 227.96923 237.121471 
L 232.728094 239.012956 
L 237.55879 240.712624 
L 242.453591 242.217757 
L 247.404666 243.525945 
L 252.404095 244.635097 
L 257.443878 245.543438 
L 262.515954 246.249515 
L 267.612209 246.752198 
L 272.724489 247.050683 
L 277.844616 247.144493 
L 282.964399 247.033477 
L 288.075648 246.717814 
L 293.170184 246.198007 
L 298.239859 245.474889 
L 303.276561 244.549617 
L 308.272234 243.42367 
L 313.218885 242.09885 
L 318.1086 240.577277 
L 322.933558 238.861384 
L 327.686038 236.953917 
L 328.304311 236.689371 
L 327.606623 231.616134 
L 326.706618 226.574856 
L 325.605735 221.5736 
L 324.305736 216.620368 
L 322.8087 211.723085 
L 321.117023 206.889584 
L 319.23341 202.127599 
L 317.160875 197.444747 
L 314.902734 192.84852 
L 312.4626 188.346271 
L 309.844375 183.945203 
L 307.052249 179.652356 
L 304.090688 175.474599 
L 300.96443 171.418614 
L 297.678477 167.49089 
L 294.238085 163.697711 
L 290.648758 160.045145 
L 286.916239 156.539036 
L 283.046498 153.184992 
L 282.506495 152.738042 
L 282.420303 147.617781 
L 282.129424 142.505063 
L 281.634324 137.408066 
L 280.935794 132.334945 
L 280.034952 127.293815 
L 278.933239 122.292742 
L 277.632418 117.339726 
L 276.13457 112.442691 
L 274.44209 107.609471 
L 272.557688 102.847799 
L 270.484376 98.165291 
L 268.225472 93.569439 
L 265.78459 89.067595 
L 263.165635 84.666961 
L 260.372797 80.374578 
L 257.410543 76.197312 
L 254.283612 72.141846 
L 250.997007 68.214667 
L 247.555986 64.42206 
L 246.818795 63.648 
L 243.34623 67.411747 
L 240.026953 71.31135 
L 236.866273 75.340568 
L 233.869246 79.492957 
L 231.040669 83.761874 
L 228.385065 88.140489 
L 225.906683 92.621798 
L 223.609489 97.198631 
L 221.497156 101.863666 
L 219.573065 106.60944 
L 217.840293 111.428361 
L 216.301612 116.312721 
L 214.959485 121.254704 
L 213.816057 126.246404 
L 213.333568 128.68311 
L 208.702696 126.496898 
L 203.988103 124.49762 
L 199.197331 122.688474 
L 194.338045 121.072355 
L 189.418019 119.651849 
L 184.445122 118.429227 
L 179.427312 117.406446 
L 174.372615 116.585143 
L 169.289118 115.96663 
L 164.184953 115.551897 
L 159.068286 115.341609 
L 153.947302 115.336101 
L 148.830195 115.535382 
L 143.72515 115.939133 
L 141.836721 116.140711 
L 143.970771 120.795851 
L 146.289269 125.361929 
L 148.788507 129.83164 
L 151.464487 134.197832 
L 154.312927 138.453521 
L 157.329272 142.591899 
L 160.508694 146.606344 
L 163.846108 150.490436 
L 167.336175 154.23796 
L 170.973311 157.842921 
L 174.751698 161.299552 
L 178.665291 164.602322 
L 182.707829 167.745949 
L 185.189114 169.551186 
L 180.560977 171.743182 
L 176.024198 174.118501 
L 171.586035 176.673342 
L 167.253589 179.403619 
L 163.03379 182.304963 
L 158.933389 185.372734 
L 154.958947 188.602023 
L 151.116821 191.987664 
L 147.413157 195.524242 
L 143.853881 199.206097 
L 140.444688 203.02734 
L 137.19103 206.981859 
L 134.098114 211.063325 
L 131.426316 214.883937 
L 136.52728 214.43154 
L 141.606073 213.77552 
L 146.65457 212.916928 
L 151.664694 211.857136 
L 156.62843 210.59784 
L 161.537838 209.141056 
L 166.385062 207.489112 
L 171.162349 205.644653 
L 175.862056 203.610628 
L 180.476665 201.390293 
L 184.998792 198.987198 
L 189.757706 196.198878 
L 184.933808 197.917747 
L 180.182505 199.828146 
L 175.511398 201.927018 
L 170.927961 204.211006 
L 166.439524 206.676455 
L 162.05327 209.319422 
L 157.776214 212.135678 
L 153.6152 215.120718 
L 149.576884 218.269767 
L 145.667727 221.577786 
L 141.893982 225.039483 
L 138.959986 227.932638 
L 143.891716 226.553312 
L 148.764343 224.977872 
L 153.570072 223.20884 
L 158.301214 221.249045 
L 162.9502 219.101622 
L 167.509594 216.770007 
L 171.972102 214.25793 
L 176.330583 211.56941 
L 180.578066 208.708747 
L 184.707755 205.680519 
L 188.713045 202.489569 
L 191.694504 199.937044 
L 186.858068 201.620312 
L 182.092814 203.49564 
L 177.406364 205.560027 
L 172.806217 207.81017 
L 168.299731 210.242471 
L 163.894116 212.853037 
L 159.59642 215.637693 
L 155.413517 218.591984 
L 151.352101 221.711182 
L 147.418669 224.990299 
L 143.619512 228.424089 
L 140.814609 231.144938 
L 145.733679 229.721123 
L 150.591877 228.101736 
L 155.381431 226.289369 
L 160.094678 224.28692 
L 164.724079 222.097593 
L 169.262227 219.724891 
L 173.701862 217.172609 
L 178.035881 214.44483 
L 182.257352 211.545919 
L 186.359521 208.480514 
L 190.335825 205.253517 
L 193.344673 202.62867 
L 188.730556 204.850027 
L 184.208961 207.254123 
L 179.787121 209.837112 
L 175.472109 212.594861 
L 171.27083 215.522958 
L 167.190004 218.61672 
L 163.23616 221.871197 
L 159.415623 225.281182 
L 155.734505 228.84122 
L 152.198694 232.545615 
L 148.813849 236.388443 
L 145.90283 239.957996 
L 150.956318 239.129284 
L 155.972624 238.099148 
L 160.943722 236.869238 
L 165.861661 235.441521 
L 170.718573 233.818281 
L 175.506688 232.002114 
L 180.218345 229.995927 
L 184.846008 227.802928 
L 189.382272 225.426627 
L 193.819881 222.870824 
L 198.151735 220.139608 
L 202.370905 217.237349 
L 205.084062 215.23532 
L 203.26989 220.024191 
L 201.648673 224.881779 
L 200.223005 229.800312 
L 198.995166 234.771923 
L 197.967121 239.788657 
L 197.140513 244.84249 
L 196.516667 249.925335 
L 196.096579 255.029062 
L 195.880921 260.145506 
L 195.87004 265.26648 
L 196.063951 270.383794 
L 196.462345 275.48926 
L 197.064585 280.574711 
L 197.829641 285.408 
L 198.625772 280.349277 
L 199.218972 275.262764 
L 199.608291 270.156598 
L 199.793107 265.038948 
L 199.773123 259.918 
L 199.548372 254.801948 
L 199.119214 249.698976 
L 198.486334 244.617247 
L 197.650745 239.564892 
L 196.613785 234.549993 
L 195.377111 229.580572 
L 193.942703 224.664581 
L 192.312855 219.809882 
L 190.490174 215.024244 
L 188.477577 210.315321 
L 186.278283 205.690647 
L 183.895811 201.15762 
L 181.333972 196.723494 
L 178.596864 192.39536 
L 175.688866 188.180143 
L 172.614631 184.084587 
L 169.379076 180.115244 
L 165.987378 176.278463 
L 162.444963 172.580383 
L 158.757497 169.02692 
L 154.93088 165.623759 
L 150.971234 162.376343 
L 146.884894 159.289869 
L 142.678396 156.369274 
L 138.35847 153.61923 
L 133.932027 151.044137 
L 129.406149 148.648114 
L 124.437904 146.276347 
L 128.654853 149.181831 
L 132.984618 151.916358 
L 137.420272 154.475553 
L 141.954717 156.855323 
L 146.580702 159.051859 
L 151.290824 161.061649 
L 156.077548 162.881476 
L 160.933217 164.508429 
L 165.850063 165.939907 
L 170.82022 167.173617 
L 175.835737 168.207588 
L 180.888589 169.040164 
L 185.185709 169.586184 
L 182.632061 169.397335 
L 177.51599 169.173014 
L 172.395041 169.153461 
L 167.277407 169.338707 
L 162.171273 169.728455 
L 157.08481 170.322083 
L 152.026154 171.11864 
L 147.003398 172.116852 
L 142.024578 173.315122 
L 137.097659 174.711534 
L 132.230522 176.303852 
L 127.430954 178.089531 
L 122.706633 180.065713 
L 118.065117 182.229236 
L 113.829925 184.406095 
L 114.915489 183.727282 
L 119.188248 180.904512 
L 123.344709 177.913135 
L 127.378222 174.757937 
L 131.282334 171.443964 
L 135.050799 167.97652 
L 138.67759 164.361151 
L 142.156903 160.603641 
L 145.483173 156.710002 
L 148.651078 152.686461 
L 151.655551 148.539457 
L 154.491784 144.275622 
L 157.15524 139.901779 
L 159.64166 135.424925 
L 161.947063 130.852222 
L 164.067764 126.190985 
L 166.000368 121.448671 
L 167.741784 116.632867 
L 169.289227 111.751277 
L 170.64022 106.81171 
L 171.792603 101.822069 
L 172.744532 96.790336 
L 173.494483 91.724561 
L 174.041258 86.632849 
L 174.383981 81.523343 
L 174.522104 76.40422 
L 174.455406 71.283668 
L 174.183994 66.169879 
L 173.974432 63.648 
L 173.602004 68.755426 
L 173.434117 73.87366 
L 173.471039 78.994513 
L 173.71271 84.109794 
L 174.158746 89.211318 
L 174.808431 94.290926 
L 175.660726 99.340489 
L 176.714268 104.351931 
L 177.967372 109.317234 
L 179.418033 114.228455 
L 181.06393 119.077736 
L 182.902429 123.857319 
L 184.930591 128.55956 
L 187.14517 133.176934 
L 189.542622 137.702055 
L 192.119114 142.127684 
L 194.111347 145.292566 
L 189.093174 144.271564 
L 184.038186 143.452053 
L 178.95447 142.835343 
L 173.850158 142.42242 
L 168.733417 142.213946 
L 163.612432 142.210254 
L 158.495395 142.411349 
L 153.390494 142.816911 
L 148.305893 143.42629 
L 143.249729 144.238511 
L 138.230089 145.252275 
L 133.255004 146.46596 
L 128.332433 147.877624 
L 123.470251 149.48501 
L 122.354722 149.884524 
L 123.347324 154.908391 
L 124.540034 159.888546 
L 125.930943 164.817022 
L 127.517825 169.685934 
L 129.298143 174.487493 
L 131.269048 179.214018 
L 133.427387 183.857947 
L 135.769707 188.411851 
L 138.292261 192.868444 
L 140.991014 197.220597 
L 143.861647 201.461347 
L 146.899569 205.583911 
L 150.09992 209.581693 
L 153.457579 213.448297 
L 156.967176 217.177537 
L 160.623095 220.763448 
L 164.419488 224.200293 
L 168.350281 227.482574 
L 172.409186 230.605039 
L 176.58971 233.562694 
L 180.885165 236.350806 
L 185.288678 238.964916 
L 189.793206 241.400842 
L 194.391541 243.654686 
L 199.076328 245.722842 
L 203.840072 247.602003 
L 208.675152 249.289162 
L 213.573833 250.781619 
L 218.528277 252.076988 
L 223.53056 253.173196 
L 228.572678 254.068489 
L 233.646565 254.761435 
L 238.744103 255.250925 
L 243.857139 255.536177 
L 248.977492 255.616733 
L 254.09697 255.492465 
L 259.207384 255.163573 
L 264.300558 254.630581 
L 269.368344 253.894343 
L 274.402635 252.956037 
L 279.395377 251.817163 
L 284.338582 250.479544 
L 289.224342 248.945319 
L 294.044842 247.216943 
L 298.792369 245.297182 
L 303.459329 243.189105 
L 308.038255 240.896086 
L 312.521823 238.421792 
L 316.902858 235.770184 
L 321.174353 232.945501 
L 325.329474 229.952264 
L 329.361574 226.79526 
L 333.264203 223.479541 
L 337.031116 220.01041 
L 339.11228 217.969421 
L 340.346643 212.999426 
L 341.381273 207.984045 
L 342.214513 202.931302 
L 342.84503 197.84928 
L 343.271817 192.746109 
L 343.49419 187.629953 
L 343.511793 182.508996 
L 343.324599 177.391433 
L 342.932906 172.285448 
L 342.337342 167.199211 
L 341.538859 162.140859 
L 340.538734 157.118484 
L 339.338568 152.14012 
L 337.940281 147.213733 
L 336.346109 142.347202 
L 334.558603 137.548315 
L 332.580623 132.824747 
L 330.415332 128.184055 
L 328.066195 123.633664 
L 325.53697 119.180853 
L 322.831703 114.832746 
L 319.954723 110.596299 
L 316.910631 106.478289 
L 313.704297 102.485305 
L 310.340851 98.623733 
L 306.825674 94.899753 
L 303.16439 91.31932 
L 299.362854 87.888164 
L 295.42715 84.611773 
L 291.363574 81.49539 
L 287.178625 78.543999 
L 282.879001 75.762322 
L 278.471577 73.154809 
L 273.963407 70.725631 
L 269.361702 68.478676 
L 264.673823 66.417537 
L 259.90727 64.545512 
L 257.400667 63.648 
L 252.596219 65.420506 
L 247.866495 67.38372 
L 243.219061 69.534503 
L 238.661354 71.869413 
L 234.200664 74.384715 
L 229.844127 77.076385 
L 225.598713 79.940117 
L 221.471213 82.97133 
L 217.468232 86.165174 
L 213.596172 89.51654 
L 209.861228 93.020066 
L 206.269375 96.670148 
L 202.82636 100.460946 
L 199.53769 104.386395 
L 196.408627 108.440216 
L 193.444177 112.615924 
L 190.649081 116.906838 
L 188.027812 121.306094 
L 185.584563 125.806653 
L 183.323243 130.401317 
L 181.24747 135.082734 
L 179.360563 139.843415 
L 177.665542 144.675744 
L 176.165119 149.571991 
L 174.861693 154.524322 
L 173.757351 159.524815 
L 172.853858 164.56547 
L 172.15266 169.638223 
L 171.65488 174.734959 
L 171.361312 179.847524 
L 171.272428 184.967739 
L 171.388368 190.087413 
L 171.708948 195.198355 
L 172.233655 200.292389 
L 172.961649 205.361366 
L 173.891766 210.397176 
L 175.022518 215.391764 
L 176.352095 220.337138 
L 177.878371 225.225387 
L 179.598904 230.048692 
L 181.510941 234.799336 
L 183.611424 239.469718 
L 185.896993 244.052368 
L 188.36399 248.539954 
L 191.00847 252.925296 
L 193.826201 257.20138 
L 196.812676 261.361364 
L 199.963117 265.398594 
L 203.272485 269.30661 
L 206.735484 273.07916 
L 210.346575 276.71021 
L 214.09998 280.193951 
L 217.989696 283.524809 
L 220.335669 285.408 
L 224.302569 282.16945 
L 228.136788 278.774857 
L 231.832193 275.229651 
L 235.382871 271.539504 
L 238.783143 267.710319 
L 242.027569 263.748223 
L 245.110957 259.659554 
L 248.028377 255.450853 
L 250.775159 251.128852 
L 253.34691 246.700467 
L 255.739516 242.172781 
L 257.949149 237.553038 
L 259.972274 232.848629 
L 261.805655 228.067079 
L 263.446358 223.216039 
L 264.891759 218.303268 
L 265.339519 216.615475 
L 270.441643 217.054606 
L 275.557246 217.289355 
L 280.678144 217.319347 
L 285.796146 217.144533 
L 290.903063 216.765194 
L 295.990726 216.181936 
L 301.050995 215.395693 
L 306.075775 214.407721 
L 311.057028 213.219603 
L 315.986783 211.833237 
L 320.857156 210.250843 
L 325.660354 208.474952 
L 330.388694 206.508404 
L 335.03461 204.354347 
L 339.59067 202.016225 
L 344.049587 199.49778 
L 348.404226 196.80304 
L 352.64762 193.936316 
L 353.223688 193.527745 
L 353.612818 188.421565 
L 353.797444 183.303908 
L 353.777271 178.182961 
L 353.55233 173.066917 
L 353.122983 167.963961 
L 352.489915 162.882256 
L 351.654139 157.829932 
L 350.616993 152.815071 
L 349.872392 149.72364 
L 346.133723 146.224089 
L 342.2581 142.876843 
L 338.251724 139.687259 
L 334.121002 136.660439 
L 329.872544 133.801224 
L 325.513147 131.11419 
L 321.049783 128.603634 
L 316.489595 126.273573 
L 311.839877 124.127735 
L 307.108067 122.169553 
L 302.301736 120.402159 
L 297.428572 118.828381 
L 292.496372 117.450736 
L 287.513026 116.271428 
L 282.486507 115.292344 
L 277.424855 114.515051 
L 272.336169 113.940792 
L 267.228589 113.570485 
L 262.110286 113.404723 
L 256.989448 113.443771 
L 251.874268 113.687567 
L 246.772929 114.13572 
L 241.693592 114.787514 
L 236.644383 115.641906 
L 231.633379 116.697529 
L 226.668597 117.952695 
L 221.757979 119.405395 
L 216.909382 121.053305 
L 212.130562 122.893789 
L 207.429164 124.923903 
L 202.81271 127.140398 
L 198.288585 129.53973 
L 193.864026 132.118059 
L 189.546112 134.871261 
L 185.341751 137.794931 
L 181.257668 140.884392 
L 177.300398 144.134702 
L 173.47627 147.540661 
L 169.791404 151.096819 
L 166.251694 154.797488 
L 162.862802 158.636748 
L 159.63015 162.608456 
L 156.55891 166.706259 
L 153.653996 170.9236 
L 150.920053 175.253734 
L 148.361457 179.689733 
L 145.9823 184.2245 
L 143.786388 188.850781 
L 141.777234 193.561174 
L 139.958054 198.348144 
L 138.331756 203.204033 
L 136.900942 208.121073 
L 135.667903 213.091396 
L 134.634609 218.107052 
L 134.31717 219.891044 
L 139.154188 221.572637 
L 144.054583 223.059456 
L 149.010515 224.349122 
L 154.014056 225.439572 
L 159.057201 226.329062 
L 164.131882 227.016168 
L 169.229981 227.499791 
L 174.343341 227.779158 
L 179.463783 227.853822 
L 184.583115 227.723663 
L 189.693147 227.388889 
L 194.785705 226.850036 
L 199.85264 226.107967 
L 204.885848 225.163867 
L 209.877275 224.019248 
L 214.818938 222.675941 
L 216.989754 222.018015 
L 219.535733 226.461267 
L 222.257359 230.799153 
L 225.150277 235.024734 
L 228.209859 239.131248 
L 231.43121 243.112127 
L 234.809177 246.961002 
L 238.338357 250.671715 
L 242.013102 254.238331 
L 245.827535 257.655144 
L 249.775552 260.916686 
L 253.850838 264.017741 
L 258.046874 266.953348 
L 262.356946 269.71881 
L 266.77416 272.309703 
L 271.291448 274.721882 
L 275.901585 276.951488 
L 280.597194 278.994954 
L 285.370764 280.849012 
L 290.214659 282.510694 
L 295.121128 283.977344 
L 300.247469 285.285247 
L 296.672506 281.618622 
L 292.953776 278.097891 
L 289.097229 274.728685 
L 285.109035 271.516394 
L 280.995574 268.466159 
L 276.763426 265.582858 
L 272.419362 262.871104 
L 267.970331 260.335235 
L 263.423452 257.979309 
L 258.785997 255.807093 
L 254.065387 253.822064 
L 249.269173 252.027397 
L 244.405027 250.425963 
L 239.480733 249.020324 
L 234.504166 247.812728 
L 229.483289 246.805108 
L 224.426135 245.999076 
L 219.340792 245.39592 
L 214.235398 244.996606 
L 209.118119 244.801773 
L 203.997143 244.811733 
L 198.88066 245.026469 
L 193.776858 245.445638 
L 188.6939 246.068569 
L 183.639919 246.894266 
L 178.623 247.921408 
L 173.651168 249.148352 
L 168.732378 250.573134 
L 163.874498 252.193476 
L 159.085301 254.006785 
L 155.007226 255.727271 
L 155.523294 255.348478 
L 159.582358 252.226218 
L 163.513317 248.944136 
L 167.309884 245.507484 
L 170.965984 241.921758 
L 174.47577 238.192695 
L 177.833625 234.326261 
L 181.034178 230.328641 
L 184.072308 226.206231 
L 186.943156 221.965626 
L 189.642129 217.613609 
L 192.164909 213.157144 
L 194.507459 208.603359 
L 195.750105 205.989727 
L 190.73612 207.031099 
L 185.767789 208.272144 
L 180.853061 209.710877 
L 175.999799 211.344996 
L 171.215766 213.171886 
L 166.508615 215.188626 
L 161.885878 217.391988 
L 157.35495 219.778448 
L 152.923079 222.344187 
L 148.597355 225.085102 
L 144.384698 227.996807 
L 140.624157 230.815065 
L 145.329436 228.793965 
L 149.950129 226.58632 
L 154.478844 224.195662 
L 158.908336 221.625817 
L 163.231518 218.880894 
L 167.441474 215.965286 
L 171.53147 212.883657 
L 175.494961 209.640937 
L 179.325608 206.242313 
L 183.017283 202.693223 
L 186.564078 198.999343 
L 189.519639 195.681643 
L 184.398973 195.738928 
L 179.284694 196.000939 
L 174.184983 196.467257 
L 169.107999 197.137137 
L 164.061865 198.009505 
L 159.054652 199.082968 
L 154.094371 200.355806 
L 149.188959 201.825986 
L 144.346261 203.491153 
L 139.574026 205.348644 
L 134.879888 207.395489 
L 130.271357 209.628411 
L 128.824366 210.377229 
L 129.364773 210.034049 
L 133.624887 207.192232 
L 137.767952 204.182328 
L 141.787338 201.009153 
L 145.676616 197.677784 
L 149.429563 194.193551 
L 153.040177 190.562026 
L 156.50268 186.78902 
L 159.811534 182.880569 
L 162.961445 178.842926 
L 165.947373 174.682549 
L 168.764542 170.406095 
L 171.408445 166.020405 
L 173.874853 161.532495 
L 176.159819 156.949545 
L 178.259688 152.278886 
L 180.171101 147.527991 
L 181.891 142.704461 
L 183.416634 137.81601 
L 184.745561 132.870462 
L 185.875656 127.875726 
L 186.805111 122.839793 
L 187.532439 117.770721 
L 188.056476 112.676618 
L 188.376385 107.565633 
L 188.491652 102.445944 
L 188.402095 97.325741 
L 188.107855 92.213215 
L 187.609404 87.116544 
L 186.90754 82.043884 
L 186.003385 77.003347 
L 184.898385 72.003 
L 183.594309 67.05084 
L 182.573803 63.648 
L 181.132833 68.562072 
L 179.889526 73.529837 
L 178.845872 78.543348 
L 178.003539 83.594583 
L 177.363875 88.675462 
L 176.927904 93.777857 
L 176.696323 98.893604 
L 176.669502 104.01452 
L 176.847485 109.132413 
L 177.229987 114.239094 
L 177.816396 119.326395 
L 178.605773 124.386176 
L 179.596856 129.410343 
L 180.78806 134.390859 
L 182.177478 139.319755 
L 183.762888 144.189147 
L 185.541754 148.991244 
L 187.511229 153.718365 
L 188.473731 155.851286 
L 183.779555 157.898042 
L 179.170982 160.130878 
L 174.655384 162.546221 
L 170.239987 165.140209 
L 165.931854 167.90869 
L 161.737876 170.847236 
L 157.664763 173.951145 
L 153.719032 177.215453 
L 149.906995 180.634937 
L 146.234749 184.204127 
L 142.708171 187.917313 
L 139.332901 191.768553 
L 136.114339 195.751688 
L 133.057635 199.860345 
L 130.167679 204.087952 
L 127.576389 208.215669 
L 132.693686 208.021314 
L 137.799117 207.622477 
L 142.884516 207.019797 
L 147.941746 206.214237 
L 152.962717 205.207086 
L 157.939396 203.999956 
L 162.863822 202.594777 
L 167.728117 200.993797 
L 172.524499 199.199578 
L 177.245295 197.214991 
L 181.882953 195.043209 
L 186.430052 192.687707 
L 187.96196 191.841256 
L 182.94111 192.849009 
L 177.964576 194.056737 
L 173.040318 195.462507 
L 168.176215 197.06407 
L 163.380049 198.858865 
L 158.659491 200.844019 
L 154.022094 203.016358 
L 149.475278 205.372405 
L 145.026314 207.908392 
L 140.682322 210.620261 
L 136.450251 213.503675 
L 132.373981 216.525342 
L 137.071601 214.486502 
L 141.683931 212.261438 
L 146.203593 209.853709 
L 150.623357 207.267168 
L 154.936151 204.505953 
L 159.135076 201.57448 
L 163.213414 198.477441 
L 167.164642 195.219788 
L 170.982438 191.806735 
L 174.660695 188.24374 
L 178.193527 184.536504 
L 181.575284 180.690958 
L 184.983828 176.47718 
L 181.474033 172.748127 
L 177.817922 169.162412 
L 174.021346 165.725769 
L 170.090377 162.443699 
L 166.031305 159.32145 
L 161.850623 156.364019 
L 157.55502 153.576136 
L 153.151367 150.962261 
L 148.646709 148.526576 
L 144.048253 146.272978 
L 139.363356 144.205071 
L 134.599511 142.326165 
L 129.764341 140.639264 
L 128.01444 140.081605 
L 131.844558 143.480825 
L 135.807545 146.724163 
L 139.89706 149.806428 
L 144.106563 152.722692 
L 148.429317 155.468287 
L 152.858408 158.038823 
L 157.386751 160.430185 
L 162.0071 162.63855 
L 166.712065 164.660383 
L 171.494118 166.492451 
L 176.345609 168.131822 
L 181.258776 169.575874 
L 185.100794 170.558445 
L 180.005245 171.06823 
L 174.934158 171.781375 
L 169.895645 172.696739 
L 164.897767 173.812858 
L 159.94852 175.127945 
L 155.055822 176.639898 
L 150.227498 178.346297 
L 145.471275 180.244413 
L 140.794761 182.331208 
L 136.205437 184.603345 
L 131.710645 187.057189 
L 127.317576 189.688813 
L 123.033258 192.494008 
L 119.813088 194.769236 
L 124.453509 192.603366 
L 129.003606 190.253662 
L 133.456101 187.723881 
L 137.803871 185.018071 
L 142.039959 182.140562 
L 146.157588 179.095956 
L 150.150173 175.889124 
L 154.011325 172.525196 
L 157.734867 169.009554 
L 161.314842 165.347823 
L 164.745523 161.545859 
L 168.021423 157.609746 
L 171.137299 153.545781 
L 174.088168 149.360464 
L 176.869309 145.060492 
L 179.476271 140.652744 
L 181.904886 136.14427 
L 184.151267 131.542284 
L 186.211821 126.854148 
L 188.083251 122.087362 
L 189.762564 117.249552 
L 191.247072 112.348456 
L 192.534402 107.391917 
L 193.622493 102.387862 
L 194.509605 97.344299 
L 195.194319 92.269294 
L 195.675538 87.170968 
L 195.952495 82.057477 
L 196.024744 76.937 
L 195.892172 71.81773 
L 195.554989 66.707856 
L 195.254474 63.648 
L 194.794689 68.748304 
L 194.53923 73.862915 
L 194.488505 78.98365 
L 194.642595 84.102317 
L 195.001254 89.210729 
L 195.563909 94.300711 
L 196.329658 99.364122 
L 197.297277 104.392861 
L 198.465218 109.378883 
L 199.831613 114.314211 
L 201.394275 119.190951 
L 203.150704 124.0013 
L 205.098092 128.737563 
L 206.828455 132.546333 
L 203.165954 128.967145 
L 199.363254 125.53728 
L 195.426438 122.262226 
L 191.361803 119.147222 
L 187.175853 116.197252 
L 182.875284 113.417035 
L 178.466976 110.811019 
L 173.957981 108.383373 
L 169.355513 106.13798 
L 164.666934 104.078433 
L 159.899746 102.208026 
L 155.061575 100.529753 
L 151.48657 99.426682 
L 155.259524 102.889242 
L 159.167926 106.198154 
L 163.205522 109.348125 
L 167.365854 112.334116 
L 171.642266 115.151349 
L 176.027916 117.795318 
L 180.515789 120.261793 
L 185.098705 122.546828 
L 189.769332 124.646768 
L 194.520198 126.558252 
L 199.343703 128.278223 
L 204.23213 129.80393 
L 209.024054 131.09483 
L 209.992001 126.066154 
L 210.758082 121.002793 
L 211.321069 115.912847 
L 211.680062 110.80446 
L 211.834487 105.685802 
L 211.784096 100.565064 
L 211.528971 95.450436 
L 211.06952 90.350102 
L 210.406477 85.272221 
L 209.540904 80.224917 
L 208.474184 75.216263 
L 207.208025 70.254273 
L 205.744452 65.346885 
L 205.187445 63.648 
L 203.655489 68.534473 
L 202.320166 73.478298 
L 201.183611 78.471568 
L 200.247642 83.506294 
L 199.513758 88.574421 
L 198.983131 93.667842 
L 198.656612 98.778409 
L 198.534722 103.897944 
L 198.617656 109.018259 
L 198.905282 114.131162 
L 199.397139 119.228473 
L 200.092441 124.302037 
L 200.990075 129.343739 
L 202.088606 134.345512 
L 202.484188 135.943812 
L 197.700006 134.117311 
L 192.84661 132.483588 
L 187.931765 131.045255 
L 182.963334 129.804614 
L 177.949264 128.76365 
L 172.897578 127.924028 
L 167.816356 127.287091 
L 162.713728 126.853858 
L 157.597857 126.625022 
L 152.476927 126.60095 
L 147.359131 126.781679 
L 142.252656 127.166921 
L 137.165671 127.75606 
L 134.944566 128.078273 
L 136.895152 132.81322 
L 139.033524 137.466376 
L 141.356263 142.030299 
L 143.859652 146.497686 
L 146.539686 150.86139 
L 149.392078 155.114432 
L 152.412265 159.250006 
L 155.595415 163.261497 
L 158.936436 167.142487 
L 162.429982 170.886767 
L 166.070465 174.488348 
L 169.852061 177.941467 
L 173.76872 181.240601 
L 177.814176 184.380471 
L 181.981958 187.356055 
L 186.265397 190.162592 
L 187.680656 191.037182 
L 185.937588 195.852388 
L 184.388471 200.733448 
L 183.035784 205.672551 
L 181.88169 210.661796 
L 180.928036 215.693202 
L 180.176347 220.758719 
L 179.627826 225.850244 
L 179.283351 230.959632 
L 179.143472 236.078707 
L 179.208413 241.199282 
L 179.478071 246.313164 
L 179.952014 251.412171 
L 180.629484 256.488148 
L 181.509397 261.532972 
L 182.590345 266.538575 
L 183.870599 271.496946 
L 185.348111 276.400156 
L 187.020517 281.240358 
L 188.637666 285.408 
L 190.478027 280.629133 
L 192.125813 275.780493 
L 193.578386 270.869838 
L 194.833424 265.905024 
L 195.888918 260.893992 
L 196.74318 255.844761 
L 197.394843 250.765407 
L 197.842865 245.664056 
L 198.086529 240.54887 
L 198.125445 235.428032 
L 197.959552 230.309733 
L 197.589113 225.202162 
L 197.014723 220.113491 
L 196.237299 215.051859 
L 195.258086 210.025365 
L 194.07865 205.04205 
L 193.49384 202.854642 
L 189.41306 199.76082 
L 185.211824 196.83266 
L 180.896854 194.074847 
L 176.475052 191.491793 
L 171.953493 189.087629 
L 167.339409 186.866203 
L 162.640183 184.831068 
L 157.863332 182.98548 
L 153.016498 181.332391 
L 148.107435 179.874446 
L 143.143997 178.613978 
L 138.134123 177.553002 
L 133.085829 176.693216 
L 128.007191 176.035996 
L 122.906334 175.582394 
L 117.791417 175.333133 
L 112.670624 175.288615 
L 108.629184 175.398147 
L 111.290491 171.022996 
L 113.774709 166.544921 
L 116.077865 161.971085 
L 118.196275 157.308806 
L 118.557108 156.462184 
L 121.565422 152.317965 
L 124.405605 148.056761 
L 127.073113 143.685388 
L 129.563679 139.21084 
L 131.873319 134.640275 
L 133.998338 129.981004 
L 134.431076 128.967666 
L 137.439389 124.823447 
L 140.279572 120.562242 
L 142.94708 116.190869 
L 145.437647 111.716321 
L 147.747287 107.145756 
L 149.872305 102.486486 
L 150.305043 101.473147 
L 153.313357 97.328928 
L 156.15354 93.067724 
L 158.821048 88.696351 
L 161.311614 84.221803 
L 163.621254 79.651238 
L 165.746273 74.991968 
L 166.179011 73.978629 
L 169.187325 69.83441 
L 172.027507 65.573206 
L 173.231923 63.648 
L 175.996082 67.958908 
L 178.93042 72.155831 
L 182.030242 76.232055 
L 185.290591 80.181058 
L 188.70625 83.996524 
L 192.271755 87.672347 
L 195.981401 91.202648 
L 199.829255 94.581779 
L 203.809159 97.804334 
L 207.914749 100.865157 
L 212.139454 103.759353 
L 216.476517 106.48229 
L 220.918999 109.029613 
L 225.459794 111.397246 
L 230.091636 113.581402 
L 234.807116 115.578587 
L 239.598691 117.385605 
L 244.458694 118.999566 
L 249.379351 120.417887 
L 254.35279 121.638301 
L 259.371054 122.658853 
L 264.426115 123.477913 
L 269.509887 124.094168 
L 274.614235 124.506634 
L 279.730995 124.714651 
L 284.85198 124.717885 
L 289.968999 124.516332 
L 295.073864 124.110314 
L 300.15841 123.500481 
L 305.214502 122.687808 
L 310.234051 121.673595 
L 315.209027 120.459465 
L 320.131472 119.04736 
L 324.99351 117.43954 
L 330.117154 115.506564 
L 329.614408 115.90287 
L 325.665045 119.162784 
L 321.849204 122.578022 
L 318.172988 126.143122 
L 314.642278 129.85238 
L 311.262724 133.699861 
L 308.039731 137.679411 
L 304.978455 141.784663 
L 302.083795 146.00905 
L 299.36038 150.345813 
L 296.812568 154.788015 
L 294.444435 159.328549 
L 292.259769 163.96015 
L 290.262065 168.675411 
L 288.454519 173.466786 
L 287.322677 176.804046 
L 288.56134 181.772971 
L 289.997716 186.688389 
L 291.629507 191.542434 
L 293.454103 196.327343 
L 295.468585 201.03546 
L 297.66973 205.659253 
L 300.054017 210.191325 
L 302.617631 214.624426 
L 305.356472 218.951463 
L 308.266157 223.165516 
L 311.342031 227.259841 
L 314.579175 231.227888 
L 317.972409 235.063311 
L 321.516304 238.759972 
L 325.109349 242.223207 
L 320.18735 240.809551 
L 315.212757 239.593853 
L 310.193528 238.578058 
L 305.137692 237.763791 
L 300.053339 237.152354 
L 294.948602 236.744727 
L 289.831647 236.541561 
L 284.710661 236.543181 
L 279.593836 236.749585 
L 274.489357 237.160442 
L 269.405392 237.775095 
L 264.350073 238.592561 
L 259.331487 239.611531 
L 254.357664 240.830377 
L 249.43656 242.247147 
L 244.576049 243.859576 
L 239.783905 245.665084 
L 235.067795 247.660782 
L 230.435264 249.843478 
L 225.893724 252.209679 
L 221.450439 254.755602 
L 217.112517 257.477171 
L 212.8869 260.370035 
L 208.780346 263.429564 
L 204.799426 266.650864 
L 200.950507 270.028782 
L 197.239748 273.557913 
L 193.673085 277.232613 
L 190.256223 281.047001 
L 186.668468 285.408 
L 183.42313 281.446651 
L 180.021976 277.61825 
L 176.470448 273.928921 
L 172.774227 270.384566 
L 168.939226 266.990856 
L 164.97158 263.75322 
L 160.877637 260.676837 
L 156.663946 257.766628 
L 155.892205 257.260101 
L 155.515549 252.152985 
L 154.934963 247.065017 
L 154.151378 242.004336 
L 153.166046 236.979037 
L 151.980543 231.997161 
L 150.596768 227.066678 
L 149.016932 222.195475 
L 147.243564 217.391345 
L 145.2795 212.661973 
L 143.127883 208.014926 
L 140.792155 203.457638 
L 138.276052 198.997399 
L 135.5836 194.641346 
L 132.719106 190.396446 
L 129.687152 186.269491 
L 126.49259 182.267082 
L 123.140529 178.395624 
L 119.636332 174.661309 
L 115.985606 171.070112 
L 112.138615 167.579339 
L 117.014572 169.144442 
L 121.949216 170.513307 
L 126.934653 171.683744 
L 131.962907 172.65388 
L 137.025934 173.422163 
L 142.115634 173.987365 
L 147.223865 174.348581 
L 152.342455 174.505234 
L 157.463215 174.457072 
L 162.577953 174.204173 
L 167.678486 173.746941 
L 172.756655 173.086108 
L 177.804336 172.222731 
L 182.813454 171.158191 
L 185.097373 170.602704 
L 180.343988 168.69749 
L 175.518218 166.983884 
L 170.627782 165.464629 
L 165.680504 164.142154 
L 160.684298 163.018575 
L 155.647158 162.09569 
L 150.577141 161.374975 
L 145.482358 160.857583 
L 140.370961 160.544342 
L 135.251126 160.435753 
L 130.131044 160.531989 
L 125.018906 160.832897 
L 119.92289 161.337996 
L 115.381381 161.962704 
L 117.323573 166.701099 
L 119.453697 171.358038 
L 121.768345 175.926069 
L 124.263814 180.397885 
L 126.936111 184.766331 
L 129.780963 189.02442 
L 132.793817 193.16534 
L 135.969853 197.182465 
L 139.303992 201.069369 
L 142.790898 204.819834 
L 146.424993 208.42786 
L 150.200464 211.887675 
L 154.111271 215.193744 
L 158.151157 218.340778 
L 162.31366 221.323742 
L 166.592119 224.137864 
L 170.979691 226.778643 
L 175.469357 229.241853 
L 180.053934 231.523555 
L 184.726087 233.620096 
L 189.478342 235.528125 
L 194.303096 237.244588 
L 199.192632 238.766739 
L 204.139126 240.092144 
L 209.134666 241.218681 
L 214.171259 242.144549 
L 219.240848 242.868266 
L 224.335323 243.388674 
L 229.446534 243.704942 
L 234.566304 243.816563 
L 239.686442 243.723359 
L 244.798757 243.425478 
L 249.895071 242.923397 
L 254.967231 242.21792 
L 260.007122 241.310174 
L 265.006681 240.201613 
L 269.957911 238.89401 
L 274.85289 237.389456 
L 279.683787 235.690359 
L 284.442875 233.799436 
L 289.122539 231.719713 
L 293.715293 229.454517 
L 298.21379 227.007472 
L 302.610832 224.382493 
L 306.899386 221.583778 
L 311.072592 218.615805 
L 315.123771 215.483323 
L 319.046445 212.191343 
L 322.834336 208.74513 
L 326.481386 205.1502 
L 329.98176 201.412301 
L 333.329858 197.537415 
L 336.520323 193.53174 
L 339.548052 189.401684 
L 342.408202 185.153856 
L 345.096195 180.795049 
L 347.607733 176.332239 
L 349.938797 171.772563 
L 352.085657 167.123317 
L 354.044881 162.391938 
L 355.282059 159.093459 
L 350.22528 158.285075 
L 345.140219 157.679555 
L 340.03501 157.277868 
L 334.917823 157.080656 
L 329.796842 157.088235 
L 324.680261 157.300592 
L 319.576264 157.717388 
L 314.493017 158.337956 
L 309.438653 159.161304 
L 304.421256 160.186113 
L 299.448854 161.410745 
L 294.529402 162.833241 
L 289.67077 164.451324 
L 286.587626 165.591871 
L 291.708579 165.573352 
L 296.824695 165.350064 
L 301.92779 164.922366 
L 307.009699 164.290939 
L 312.062293 163.456796 
L 317.077489 162.42127 
L 322.047263 161.186018 
L 326.963665 159.753016 
L 331.818829 158.124557 
L 336.604989 156.303246 
L 341.314488 154.291996 
L 345.939791 152.094025 
L 350.0122 149.965794 
L 348.380176 150.978089 
L 344.104228 153.796026 
L 339.944387 156.782702 
L 335.907309 159.933337 
L 331.999453 163.242893 
L 328.227069 166.706074 
L 324.596193 170.31734 
L 321.112633 174.070913 
L 317.781963 177.960789 
L 314.60951 181.980745 
L 311.600351 186.12435 
L 308.759298 190.384975 
L 306.090897 194.755803 
L 303.599418 199.229843 
L 301.288845 203.799936 
L 299.162876 208.458773 
L 297.22491 213.198898 
L 295.47805 218.012731 
L 293.925088 222.892568 
L 292.568511 227.830604 
L 291.410487 232.818939 
L 290.45287 237.849592 
L 289.697191 242.914515 
L 289.144659 248.005607 
L 288.796159 253.114721 
L 288.652248 258.233685 
L 288.713156 263.354309 
L 288.978785 268.468402 
L 289.448711 273.567781 
L 290.122182 278.64429 
L 290.99812 283.689806 
L 291.34416 285.408 
L 292.289085 280.374947 
L 293.031985 275.308134 
L 293.571673 270.215665 
L 293.907284 265.105688 
L 294.038283 259.986377 
L 293.964459 254.865923 
L 293.68593 249.752516 
L 293.203143 244.654339 
L 292.516869 239.579545 
L 291.628206 234.536254 
L 290.538576 229.532535 
L 289.249723 224.576391 
L 287.763707 219.675753 
L 286.082907 214.838459 
L 284.210011 210.072248 
L 282.148016 205.384746 
L 280.006503 200.99088 
L 285.12484 200.826159 
L 290.232495 200.456891 
L 295.321298 199.883666 
L 300.383108 199.107402 
L 305.409826 198.12934 
L 310.393411 196.951046 
L 315.325891 195.574404 
L 320.199375 194.001617 
L 325.006065 192.2352 
L 329.738273 190.27798 
L 334.388428 188.133087 
L 338.94909 185.803954 
L 343.412964 183.294306 
L 347.772908 180.608158 
L 352.021947 177.749807 
L 356.153284 174.723827 
L 360.160309 171.535058 
L 361.710992 170.228697 
L 356.916816 172.028803 
L 352.19846 174.019185 
L 347.563473 176.196658 
L 343.019268 178.55774 
L 338.573117 181.098653 
L 334.232131 183.815332 
L 330.003256 186.703431 
L 325.893257 189.75833 
L 321.908708 192.975142 
L 318.055985 196.348719 
L 314.341251 199.873666 
L 310.770449 203.544344 
L 307.34929 207.354879 
L 304.083249 211.299176 
L 300.977551 215.370925 
L 298.037163 219.563611 
L 295.26679 223.870528 
L 292.670863 228.284786 
L 290.253537 232.799321 
L 288.018677 237.406913 
L 285.969859 242.10019 
L 284.110361 246.871644 
L 282.443158 251.713641 
L 280.970917 256.618435 
L 279.695993 261.57818 
L 278.620425 266.584941 
L 277.745935 271.630709 
L 277.073921 276.70741 
L 276.605459 281.806925 
L 276.398096 285.408 
L 276.33611 284.129175 
L 275.960396 279.02199 
L 275.380751 273.933914 
L 274.5981 268.873088 
L 273.613696 263.847608 
L 272.429114 258.865513 
L 271.046249 253.934774 
L 269.467313 249.063279 
L 267.694832 244.258822 
L 265.731642 239.529087 
L 263.580883 234.881643 
L 261.245997 230.323924 
L 258.730717 225.86322 
L 256.150042 221.678802 
L 257.417712 226.640406 
L 258.882779 231.547348 
L 260.5429 236.391778 
L 262.395419 241.165945 
L 264.437371 245.862213 
L 266.665491 250.473068 
L 269.076213 254.991134 
L 271.665682 259.409183 
L 274.429754 263.720146 
L 277.364007 267.917128 
L 280.463749 271.993414 
L 283.724018 275.942483 
L 287.139601 279.758017 
L 290.705031 283.433912 
L 292.742614 285.408 
L 296.388617 281.812007 
L 299.887903 278.07309 
L 303.234872 274.197229 
L 306.424171 270.190626 
L 309.450698 266.059689 
L 312.309611 261.811028 
L 314.996335 257.45144 
L 317.506574 252.987898 
L 319.83631 248.427544 
L 321.981818 243.777673 
L 323.939664 239.045724 
L 325.706716 234.239267 
L 327.280148 229.365991 
L 328.657442 224.433694 
L 329.836395 219.450264 
L 330.815122 214.423675 
L 331.592055 209.361968 
L 332.165953 204.273241 
L 332.535897 199.165635 
L 332.701295 194.04732 
L 332.661883 188.926485 
L 332.417723 183.811323 
L 331.969207 178.710015 
L 331.317052 173.630725 
L 330.462301 168.581576 
L 329.406321 163.570647 
L 328.150803 158.605954 
L 326.697754 153.69544 
L 325.049499 148.84696 
L 323.208675 144.068271 
L 321.178227 139.367017 
L 318.961403 134.750721 
L 316.56175 130.226766 
L 313.983106 125.802391 
L 311.229598 121.484672 
L 308.305628 117.280519 
L 305.215877 113.196656 
L 301.965286 109.239617 
L 298.559056 105.415731 
L 295.002635 101.731118 
L 291.301715 98.191671 
L 287.462214 94.803052 
L 283.490276 91.570683 
L 279.392255 88.499734 
L 275.174707 85.595119 
L 270.844378 82.861485 
L 266.408198 80.303203 
L 261.873261 77.924369 
L 257.246825 75.728786 
L 252.536288 73.719967 
L 247.749189 71.901127 
L 242.893185 70.275174 
L 237.976044 68.84471 
L 233.005632 67.612024 
L 227.989903 66.579087 
L 222.936879 65.747552 
L 217.854644 65.11875 
L 212.751329 64.693685 
L 207.635099 64.473039 
L 202.514137 64.457164 
L 197.396636 64.646085 
L 192.290784 65.0395 
L 187.204749 65.636781 
L 182.146666 66.436971 
L 177.124629 67.43879 
L 172.146671 68.640636 
L 168.709997 69.594832 
L 168.709997 69.594832 
" style="fill:none;stroke:#1f77b4;stroke-linecap:square;stroke-width:1.5;"/>
   </g>
   <g id="patch_4">
    <path d="M 82.520165 307.584 
L 82.520165 41.472 
" style="fill:none;stroke:#000000;stroke-linecap:square;stroke-linejoin:miter;stroke-width:0.8;"/>
   </g>
   <g id="patch_5">
    <path d="M 389.799835 307.584 
L 389.799835 41.472 
" style="fill:none;stroke:#000000;stroke-linecap:square;stroke-linejoin:miter;stroke-width:0.8;"/>
   </g>
   <g id="patch_6">
    <path d="M 82.520165 307.584 
L 389.799835 307.584 
" style="fill:none;stroke:#000000;stroke-linecap:square;stroke-linejoin:miter;stroke-width:0.8;"/>
   </g>
   <g id="patch_7">
    <path d="M 82.520165 41.472 
L 389.799835 41.472 
" style="fill:none;stroke:#000000;stroke-linecap:square;stroke-linejoin:miter;stroke-width:0.8;"/>
   </g>
  </g>
 </g>
 <defs>
  <clipPath id="p3b7d700e53">
   <rect height="266.112" width="307.27967" x="82.520165" y="41.472"/>
  </clipPath>
 </defs>
</svg>
