<?xml version="1.0" encoding="utf-8" standalone="no"?>
<!DOCTYPE svg PUBLIC "-//W3C//DTD SVG 1.1//EN"
  "http://www.w3.org/Graphics/SVG/1.1/DTD/svg11.dtd">
<!-- Created with matplotlib (https://matplotlib.org/) -->
<svg height="345.6pt" version="1.1" viewBox="0 0 460.8 345.6" width="460.8pt" xmlns="http://www.w3.org/2000/svg" xmlns:xlink="http://www.w3.org/1999/xlink">
 <defs>
  <style type="text/css">
*{stroke-linecap:butt;stroke-linejoin:round;}
  </style>
 </defs>
 <g id="figure_1">
  <g id="patch_1">
   <path d="M 0 345.6 
L 460.8 345.6 
L 460.8 0 
L 0 0 
z
" style="fill:#ffffff;"/>
  </g>
  <g id="axes_1">
   <g id="patch_2">
    <path d="M 82.520165 307.584 
L 389.799835 307.584 
L 389.799835 41.472 
L 82.520165 41.472 
z
" style="fill:#ffffff;"/>
   </g>
   <g id="patch_3">
    <path clip-path="url(#pb7a96b1741)" d="M 236.16 225.741278 
C 249.74192 225.741278 262.769389 220.345124 272.373256 210.741256 
C 281.977124 201.137389 287.373278 188.10992 287.373278 174.528 
C 287.373278 160.94608 281.977124 147.918611 272.373256 138.314744 
C 262.769389 128.710876 249.74192 123.314722 236.16 123.314722 
C 222.57808 123.314722 209.550611 128.710876 199.946744 138.314744 
C 190.342876 147.918611 184.946722 160.94608 184.946722 174.528 
C 184.946722 188.10992 190.342876 201.137389 199.946744 210.741256 
C 209.550611 220.345124 222.57808 225.741278 236.16 225.741278 
z
" style="fill:#009900;fill-opacity:0.5;stroke:#009900;stroke-linejoin:miter;stroke-width:2;"/>
   </g>
   <g id="matplotlib.axis_1">
    <g id="xtick_1">
     <g id="line2d_1">
      <defs>
       <path d="M 0 0 
L 0 3.5 
" id="mfa627e48d4" style="stroke:#000000;stroke-width:0.8;"/>
      </defs>
      <g>
       <use style="stroke:#000000;stroke-width:0.8;" x="108.126804" xlink:href="#mfa627e48d4" y="307.584"/>
      </g>
     </g>
     <g id="text_1">
      <!-- −2 -->
      <defs>
       <path d="M 10.59375 35.5 
L 73.1875 35.5 
L 73.1875 27.203125 
L 10.59375 27.203125 
z
" id="DejaVuSans-8722"/>
       <path d="M 19.1875 8.296875 
L 53.609375 8.296875 
L 53.609375 0 
L 7.328125 0 
L 7.328125 8.296875 
Q 12.9375 14.109375 22.625 23.890625 
Q 32.328125 33.6875 34.8125 36.53125 
Q 39.546875 41.84375 41.421875 45.53125 
Q 43.3125 49.21875 43.3125 52.78125 
Q 43.3125 58.59375 39.234375 62.25 
Q 35.15625 65.921875 28.609375 65.921875 
Q 23.96875 65.921875 18.8125 64.3125 
Q 13.671875 62.703125 7.8125 59.421875 
L 7.8125 69.390625 
Q 13.765625 71.78125 18.9375 73 
Q 24.125 74.21875 28.421875 74.21875 
Q 39.75 74.21875 46.484375 68.546875 
Q 53.21875 62.890625 53.21875 53.421875 
Q 53.21875 48.921875 51.53125 44.890625 
Q 49.859375 40.875 45.40625 35.40625 
Q 44.1875 33.984375 37.640625 27.21875 
Q 31.109375 20.453125 19.1875 8.296875 
z
" id="DejaVuSans-50"/>
      </defs>
      <g transform="translate(100.755711 322.182437)scale(0.1 -0.1)">
       <use xlink:href="#DejaVuSans-8722"/>
       <use x="83.789062" xlink:href="#DejaVuSans-50"/>
      </g>
     </g>
    </g>
    <g id="xtick_2">
     <g id="line2d_2">
      <g>
       <use style="stroke:#000000;stroke-width:0.8;" x="172.143402" xlink:href="#mfa627e48d4" y="307.584"/>
      </g>
     </g>
     <g id="text_2">
      <!-- −1 -->
      <defs>
       <path d="M 12.40625 8.296875 
L 28.515625 8.296875 
L 28.515625 63.921875 
L 10.984375 60.40625 
L 10.984375 69.390625 
L 28.421875 72.90625 
L 38.28125 72.90625 
L 38.28125 8.296875 
L 54.390625 8.296875 
L 54.390625 0 
L 12.40625 0 
z
" id="DejaVuSans-49"/>
      </defs>
      <g transform="translate(164.772308 322.182437)scale(0.1 -0.1)">
       <use xlink:href="#DejaVuSans-8722"/>
       <use x="83.789062" xlink:href="#DejaVuSans-49"/>
      </g>
     </g>
    </g>
    <g id="xtick_3">
     <g id="line2d_3">
      <g>
       <use style="stroke:#000000;stroke-width:0.8;" x="236.16" xlink:href="#mfa627e48d4" y="307.584"/>
      </g>
     </g>
     <g id="text_3">
      <!-- 0 -->
      <defs>
       <path d="M 31.78125 66.40625 
Q 24.171875 66.40625 20.328125 58.90625 
Q 16.5 51.421875 16.5 36.375 
Q 16.5 21.390625 20.328125 13.890625 
Q 24.171875 6.390625 31.78125 6.390625 
Q 39.453125 6.390625 43.28125 13.890625 
Q 47.125 21.390625 47.125 36.375 
Q 47.125 51.421875 43.28125 58.90625 
Q 39.453125 66.40625 31.78125 66.40625 
z
M 31.78125 74.21875 
Q 44.046875 74.21875 50.515625 64.515625 
Q 56.984375 54.828125 56.984375 36.375 
Q 56.984375 17.96875 50.515625 8.265625 
Q 44.046875 -1.421875 31.78125 -1.421875 
Q 19.53125 -1.421875 13.0625 8.265625 
Q 6.59375 17.96875 6.59375 36.375 
Q 6.59375 54.828125 13.0625 64.515625 
Q 19.53125 74.21875 31.78125 74.21875 
z
" id="DejaVuSans-48"/>
      </defs>
      <g transform="translate(232.97875 322.182437)scale(0.1 -0.1)">
       <use xlink:href="#DejaVuSans-48"/>
      </g>
     </g>
    </g>
    <g id="xtick_4">
     <g id="line2d_4">
      <g>
       <use style="stroke:#000000;stroke-width:0.8;" x="300.176598" xlink:href="#mfa627e48d4" y="307.584"/>
      </g>
     </g>
     <g id="text_4">
      <!-- 1 -->
      <g transform="translate(296.995348 322.182437)scale(0.1 -0.1)">
       <use xlink:href="#DejaVuSans-49"/>
      </g>
     </g>
    </g>
    <g id="xtick_5">
     <g id="line2d_5">
      <g>
       <use style="stroke:#000000;stroke-width:0.8;" x="364.193196" xlink:href="#mfa627e48d4" y="307.584"/>
      </g>
     </g>
     <g id="text_5">
      <!-- 2 -->
      <g transform="translate(361.011946 322.182437)scale(0.1 -0.1)">
       <use xlink:href="#DejaVuSans-50"/>
      </g>
     </g>
    </g>
   </g>
   <g id="matplotlib.axis_2">
    <g id="ytick_1">
     <g id="line2d_6">
      <defs>
       <path d="M 0 0 
L -3.5 0 
" id="m70c693e870" style="stroke:#000000;stroke-width:0.8;"/>
      </defs>
      <g>
       <use style="stroke:#000000;stroke-width:0.8;" x="82.520165" xlink:href="#m70c693e870" y="302.561196"/>
      </g>
     </g>
     <g id="text_6">
      <!-- −2.0 -->
      <defs>
       <path d="M 10.6875 12.40625 
L 21 12.40625 
L 21 0 
L 10.6875 0 
z
" id="DejaVuSans-46"/>
      </defs>
      <g transform="translate(51.237353 306.360414)scale(0.1 -0.1)">
       <use xlink:href="#DejaVuSans-8722"/>
       <use x="83.789062" xlink:href="#DejaVuSans-50"/>
       <use x="147.412109" xlink:href="#DejaVuSans-46"/>
       <use x="179.199219" xlink:href="#DejaVuSans-48"/>
      </g>
     </g>
    </g>
    <g id="ytick_2">
     <g id="line2d_7">
      <g>
       <use style="stroke:#000000;stroke-width:0.8;" x="82.520165" xlink:href="#m70c693e870" y="270.552897"/>
      </g>
     </g>
     <g id="text_7">
      <!-- −1.5 -->
      <defs>
       <path d="M 10.796875 72.90625 
L 49.515625 72.90625 
L 49.515625 64.59375 
L 19.828125 64.59375 
L 19.828125 46.734375 
Q 21.96875 47.46875 24.109375 47.828125 
Q 26.265625 48.1875 28.421875 48.1875 
Q 40.625 48.1875 47.75 41.5 
Q 54.890625 34.8125 54.890625 23.390625 
Q 54.890625 11.625 47.5625 5.09375 
Q 40.234375 -1.421875 26.90625 -1.421875 
Q 22.3125 -1.421875 17.546875 -0.640625 
Q 12.796875 0.140625 7.71875 1.703125 
L 7.71875 11.625 
Q 12.109375 9.234375 16.796875 8.0625 
Q 21.484375 6.890625 26.703125 6.890625 
Q 35.15625 6.890625 40.078125 11.328125 
Q 45.015625 15.765625 45.015625 23.390625 
Q 45.015625 31 40.078125 35.4375 
Q 35.15625 39.890625 26.703125 39.890625 
Q 22.75 39.890625 18.8125 39.015625 
Q 14.890625 38.140625 10.796875 36.28125 
z
" id="DejaVuSans-53"/>
      </defs>
      <g transform="translate(51.237353 274.352116)scale(0.1 -0.1)">
       <use xlink:href="#DejaVuSans-8722"/>
       <use x="83.789062" xlink:href="#DejaVuSans-49"/>
       <use x="147.412109" xlink:href="#DejaVuSans-46"/>
       <use x="179.199219" xlink:href="#DejaVuSans-53"/>
      </g>
     </g>
    </g>
    <g id="ytick_3">
     <g id="line2d_8">
      <g>
       <use style="stroke:#000000;stroke-width:0.8;" x="82.520165" xlink:href="#m70c693e870" y="238.544598"/>
      </g>
     </g>
     <g id="text_8">
      <!-- −1.0 -->
      <g transform="translate(51.237353 242.343817)scale(0.1 -0.1)">
       <use xlink:href="#DejaVuSans-8722"/>
       <use x="83.789062" xlink:href="#DejaVuSans-49"/>
       <use x="147.412109" xlink:href="#DejaVuSans-46"/>
       <use x="179.199219" xlink:href="#DejaVuSans-48"/>
      </g>
     </g>
    </g>
    <g id="ytick_4">
     <g id="line2d_9">
      <g>
       <use style="stroke:#000000;stroke-width:0.8;" x="82.520165" xlink:href="#m70c693e870" y="206.536299"/>
      </g>
     </g>
     <g id="text_9">
      <!-- −0.5 -->
      <g transform="translate(51.237353 210.335518)scale(0.1 -0.1)">
       <use xlink:href="#DejaVuSans-8722"/>
       <use x="83.789062" xlink:href="#DejaVuSans-48"/>
       <use x="147.412109" xlink:href="#DejaVuSans-46"/>
       <use x="179.199219" xlink:href="#DejaVuSans-53"/>
      </g>
     </g>
    </g>
    <g id="ytick_5">
     <g id="line2d_10">
      <g>
       <use style="stroke:#000000;stroke-width:0.8;" x="82.520165" xlink:href="#m70c693e870" y="174.528"/>
      </g>
     </g>
     <g id="text_10">
      <!-- 0.0 -->
      <g transform="translate(59.61704 178.327219)scale(0.1 -0.1)">
       <use xlink:href="#DejaVuSans-48"/>
       <use x="63.623047" xlink:href="#DejaVuSans-46"/>
       <use x="95.410156" xlink:href="#DejaVuSans-48"/>
      </g>
     </g>
    </g>
    <g id="ytick_6">
     <g id="line2d_11">
      <g>
       <use style="stroke:#000000;stroke-width:0.8;" x="82.520165" xlink:href="#m70c693e870" y="142.519701"/>
      </g>
     </g>
     <g id="text_11">
      <!-- 0.5 -->
      <g transform="translate(59.61704 146.31892)scale(0.1 -0.1)">
       <use xlink:href="#DejaVuSans-48"/>
       <use x="63.623047" xlink:href="#DejaVuSans-46"/>
       <use x="95.410156" xlink:href="#DejaVuSans-53"/>
      </g>
     </g>
    </g>
    <g id="ytick_7">
     <g id="line2d_12">
      <g>
       <use style="stroke:#000000;stroke-width:0.8;" x="82.520165" xlink:href="#m70c693e870" y="110.511402"/>
      </g>
     </g>
     <g id="text_12">
      <!-- 1.0 -->
      <g transform="translate(59.61704 114.310621)scale(0.1 -0.1)">
       <use xlink:href="#DejaVuSans-49"/>
       <use x="63.623047" xlink:href="#DejaVuSans-46"/>
       <use x="95.410156" xlink:href="#DejaVuSans-48"/>
      </g>
     </g>
    </g>
    <g id="ytick_8">
     <g id="line2d_13">
      <g>
       <use style="stroke:#000000;stroke-width:0.8;" x="82.520165" xlink:href="#m70c693e870" y="78.503103"/>
      </g>
     </g>
     <g id="text_13">
      <!-- 1.5 -->
      <g transform="translate(59.61704 82.302322)scale(0.1 -0.1)">
       <use xlink:href="#DejaVuSans-49"/>
       <use x="63.623047" xlink:href="#DejaVuSans-46"/>
       <use x="95.410156" xlink:href="#DejaVuSans-53"/>
      </g>
     </g>
    </g>
    <g id="ytick_9">
     <g id="line2d_14">
      <g>
       <use style="stroke:#000000;stroke-width:0.8;" x="82.520165" xlink:href="#m70c693e870" y="46.494804"/>
      </g>
     </g>
     <g id="text_14">
      <!-- 2.0 -->
      <g transform="translate(59.61704 50.294023)scale(0.1 -0.1)">
       <use xlink:href="#DejaVuSans-50"/>
       <use x="63.623047" xlink:href="#DejaVuSans-46"/>
       <use x="95.410156" xlink:href="#DejaVuSans-48"/>
      </g>
     </g>
    </g>
   </g>
   <g id="line2d_15">
    <path clip-path="url(#pb7a96b1741)" d="M 300.176598 63.648 
L 172.143402 63.648 
" style="fill:none;stroke:#009900;stroke-linecap:square;stroke-width:2;"/>
   </g>
   <g id="line2d_16">
    <path clip-path="url(#pb7a96b1741)" d="M 172.143402 63.648 
L 108.126804 174.528 
" style="fill:none;stroke:#009900;stroke-linecap:square;stroke-width:2;"/>
   </g>
   <g id="line2d_17">
    <path clip-path="url(#pb7a96b1741)" d="M 108.126804 174.528 
L 172.143402 285.408 
" style="fill:none;stroke:#009900;stroke-linecap:square;stroke-width:2;"/>
   </g>
   <g id="line2d_18">
    <path clip-path="url(#pb7a96b1741)" d="M 172.143402 285.408 
L 300.176598 285.408 
" style="fill:none;stroke:#009900;stroke-linecap:square;stroke-width:2;"/>
   </g>
   <g id="line2d_19">
    <path clip-path="url(#pb7a96b1741)" d="M 300.176598 285.408 
L 364.193196 174.528 
" style="fill:none;stroke:#009900;stroke-linecap:square;stroke-width:2;"/>
   </g>
   <g id="line2d_20">
    <path clip-path="url(#pb7a96b1741)" d="M 364.193196 174.528 
L 300.176598 63.648 
" style="fill:none;stroke:#009900;stroke-linecap:square;stroke-width:2;"/>
   </g>
   <g id="line2d_21">
    <path clip-path="url(#pb7a96b1741)" d="M 190.498426 84.666853 
L 188.896611 89.530874 
L 187.490586 94.455058 
L 186.282601 99.43153 
L 185.274588 104.452328 
L 184.468159 109.50942 
L 183.864606 114.594715 
L 183.464893 119.700078 
L 183.269659 124.817341 
L 183.279218 129.938319 
L 183.493553 135.054818 
L 183.912323 140.158653 
L 184.534856 145.241659 
L 185.360158 150.295705 
L 186.386907 155.312705 
L 187.312729 159.141512 
L 183.489386 162.54835 
L 179.805338 166.105355 
L 176.266478 169.806839 
L 172.87847 173.646878 
L 169.646732 177.61933 
L 166.576435 181.717839 
L 163.672491 185.935849 
L 160.939544 190.266612 
L 158.381968 194.703199 
L 156.003854 199.238513 
L 153.809007 203.865299 
L 151.800937 208.576154 
L 149.982858 213.363543 
L 148.357677 218.219806 
L 146.927995 223.137174 
L 145.696098 228.107781 
L 144.663959 233.123675 
L 144.04762 236.744678 
L 148.85928 238.497512 
L 153.737186 240.056529 
L 158.673535 241.419235 
L 163.660428 242.58345 
L 168.689889 243.547311 
L 173.75387 244.309276 
L 178.844272 244.868126 
L 183.95295 245.222967 
L 189.071731 245.373232 
L 194.192427 245.31868 
L 199.306845 245.059399 
L 204.406804 244.595803 
L 209.484145 243.928633 
L 214.530744 243.058958 
L 219.538529 241.988168 
L 224.499489 240.717977 
L 229.405686 239.250417 
L 234.249271 237.587834 
L 239.022497 235.73289 
L 243.717727 233.688552 
L 248.327449 231.458089 
L 252.844289 229.045072 
L 257.261022 226.453358 
L 261.57058 223.687096 
L 265.76607 220.75071 
L 269.840781 217.648898 
L 273.788192 214.386622 
L 277.60199 210.969101 
L 281.276073 207.401803 
L 284.804563 203.690434 
L 288.181815 199.840932 
L 291.402427 195.859455 
L 294.461247 191.752372 
L 297.35338 187.526255 
L 300.074199 183.187863 
L 302.619354 178.744138 
L 304.98477 174.202189 
L 307.166666 169.569281 
L 309.161549 164.852826 
L 310.966228 160.06037 
L 312.577817 155.19958 
L 313.993736 150.278231 
L 315.211722 145.304197 
L 316.229825 140.285436 
L 317.046417 135.229975 
L 317.660192 130.145904 
L 318.070166 125.041355 
L 318.275685 119.924494 
L 318.27642 114.803507 
L 318.07237 109.686588 
L 317.66386 104.581921 
L 317.051545 99.497674 
L 316.236405 94.441979 
L 315.320612 89.878202 
L 311.469994 86.502221 
L 307.487453 83.282925 
L 303.37936 80.225463 
L 299.152287 77.334726 
L 294.812997 74.61534 
L 290.368431 72.071654 
L 285.8257 69.707738 
L 281.192072 67.527374 
L 276.474958 65.53405 
L 271.44653 63.648 
L 266.649972 65.44175 
L 261.928982 67.425876 
L 257.291113 69.597204 
L 252.743783 71.95226 
L 248.294267 74.487278 
L 243.949684 77.198201 
L 239.716985 80.080692 
L 235.60294 83.130141 
L 231.614131 86.341668 
L 227.75694 89.710136 
L 224.037537 93.230156 
L 220.461873 96.896098 
L 217.035667 100.702095 
L 213.7644 104.642059 
L 210.653308 108.709688 
L 207.707365 112.898473 
L 204.931286 117.201715 
L 202.329511 121.612527 
L 199.906202 126.123855 
L 197.665237 130.728481 
L 195.610201 135.419038 
L 193.74438 140.188023 
L 192.070761 145.027806 
L 190.592019 149.930644 
L 189.872409 152.613192 
L 186.925661 156.801411 
L 184.148755 161.104119 
L 181.546132 165.514431 
L 179.121956 170.025293 
L 176.880106 174.629488 
L 174.824167 179.31965 
L 172.95743 184.088275 
L 171.28288 188.927737 
L 169.803196 193.830291 
L 168.520746 198.788095 
L 167.437581 203.793218 
L 166.555434 208.837652 
L 165.875716 213.913328 
L 165.399514 219.012126 
L 165.127591 224.125887 
L 165.060382 229.246433 
L 165.197993 234.36557 
L 165.540205 239.475109 
L 166.086471 244.566877 
L 166.835916 249.632726 
L 167.787341 254.664554 
L 168.939225 259.65431 
L 170.289725 264.594012 
L 171.83668 269.475757 
L 173.577615 274.291735 
L 175.509745 279.034242 
L 177.629979 283.695692 
L 178.466255 285.408 
L 180.655632 280.778623 
L 182.658133 276.065398 
L 184.470553 271.275864 
L 186.089993 266.417684 
L 187.513862 261.498629 
L 188.739882 256.526569 
L 189.766093 251.509459 
L 190.590851 246.455325 
L 191.212839 241.372252 
L 191.63106 236.268371 
L 191.844846 231.151849 
L 191.853855 226.030871 
L 191.658072 220.913628 
L 191.25781 215.808308 
L 190.65371 210.723078 
L 189.846739 205.666073 
L 188.838186 200.645384 
L 187.629667 195.669042 
L 186.223113 190.745008 
L 184.620776 185.88116 
L 182.825218 181.085279 
L 180.839313 176.365037 
L 178.666237 171.727986 
L 176.309466 167.181544 
L 173.772771 162.732985 
L 171.060211 158.389424 
L 168.176124 154.157812 
L 165.125125 150.044917 
L 161.912094 146.057319 
L 158.542172 142.201398 
L 155.02075 138.483322 
L 151.353461 134.909039 
L 147.546173 131.484268 
L 143.604976 128.214488 
L 139.536174 125.104929 
L 137.503846 123.645472 
L 138.085284 123.913318 
L 142.783509 125.950761 
L 147.559453 127.798696 
L 152.405474 129.454166 
L 157.31382 130.914522 
L 162.276639 132.177429 
L 167.285991 133.240866 
L 172.333862 134.103132 
L 177.412176 134.762846 
L 182.51281 135.218955 
L 187.627603 135.470728 
L 192.748374 135.517763 
L 197.866929 135.359983 
L 202.975081 134.997642 
L 203.680606 134.931424 
L 205.062335 130.000366 
L 206.245769 125.017999 
L 207.229015 119.992292 
L 208.010499 114.931286 
L 208.588973 109.843077 
L 208.963509 104.735805 
L 209.13351 99.617641 
L 209.098702 94.496773 
L 208.859142 89.381393 
L 208.415214 84.279685 
L 207.767626 79.199809 
L 206.917416 74.149894 
L 205.865942 69.138018 
L 204.614889 64.172198 
L 204.470422 63.648 
L 203.19829 68.608462 
L 202.125542 73.615828 
L 201.253893 78.662087 
L 200.584738 83.739166 
L 200.119147 88.838943 
L 199.857865 93.95326 
L 199.80131 99.073934 
L 199.949573 104.192774 
L 200.302416 109.30159 
L 200.859275 114.39221 
L 201.619259 119.456489 
L 202.581152 124.486326 
L 203.743416 129.473675 
L 204.958501 133.91684 
L 200.528504 131.347865 
L 195.99932 128.958098 
L 191.378193 126.751361 
L 186.672516 124.731185 
L 181.889818 122.900802 
L 177.03775 121.26314 
L 172.124074 119.820819 
L 167.156651 118.576146 
L 162.143428 117.531113 
L 157.092424 116.687391 
L 152.011721 116.04633 
L 146.909447 115.608957 
L 142.270705 115.389029 
L 145.046377 119.692533 
L 147.991922 123.881598 
L 151.102629 127.949522 
L 154.373522 131.889796 
L 157.799367 135.696118 
L 161.374684 139.362398 
L 165.093753 142.882771 
L 168.950625 146.251605 
L 172.939129 149.463511 
L 177.052885 152.513349 
L 181.285311 155.396242 
L 185.629637 158.107577 
L 187.325279 159.101726 
L 182.216595 158.746975 
L 177.097811 158.596801 
L 171.977116 158.651443 
L 166.862702 158.910815 
L 161.762752 159.374502 
L 156.685423 160.041761 
L 151.638839 160.911525 
L 146.631073 161.982403 
L 141.670136 163.252682 
L 136.763965 164.72033 
L 131.920409 166.382998 
L 127.147216 168.238026 
L 122.452022 170.282448 
L 117.84234 172.512992 
L 113.325542 174.926089 
L 109.60721 177.092137 
L 116.222945 173.189914 
L 120.498259 170.371015 
L 124.657427 167.383405 
L 128.693797 164.231861 
L 132.600909 160.921427 
L 136.372514 157.457398 
L 140.002578 153.845316 
L 143.485294 150.090959 
L 146.815089 146.200334 
L 149.986638 142.179665 
L 152.994865 138.035383 
L 155.83496 133.77412 
L 158.502377 129.402692 
L 160.992851 124.928092 
L 163.302396 120.357479 
L 165.427318 115.698164 
L 167.364217 110.957603 
L 169.109995 106.143378 
L 170.661859 101.263192 
L 172.017326 96.324851 
L 173.174228 91.336256 
L 174.130714 86.305388 
L 174.885254 81.240294 
L 175.436641 76.149079 
L 175.783992 71.039886 
L 175.926752 65.92089 
L 175.92449 63.648 
L 175.997241 69.408548 
L 176.279411 74.521755 
L 176.765828 79.619588 
L 177.455715 84.693891 
L 178.347969 89.736548 
L 179.441161 94.73949 
L 180.733543 99.694715 
L 182.223048 104.594294 
L 183.907292 109.43039 
L 185.783581 114.195266 
L 187.848913 118.881299 
L 190.099985 123.480992 
L 192.533194 127.986988 
L 195.144649 132.392076 
L 197.930172 136.68921 
L 199.422945 138.84623 
L 195.101869 136.097995 
L 190.674348 133.524755 
L 186.147467 131.130627 
L 181.528467 128.919442 
L 176.824738 126.894735 
L 172.043805 125.059747 
L 167.193316 123.417413 
L 162.281031 121.970361 
L 157.314809 120.720905 
L 152.302595 119.671045 
L 147.252406 118.822459 
L 142.172323 118.176506 
L 140.744776 118.032017 
L 143.798351 122.143 
L 147.013878 126.128584 
L 150.386215 129.982393 
L 153.909966 133.698263 
L 157.579493 137.270247 
L 161.388926 140.692633 
L 165.33217 143.959944 
L 169.402919 147.066954 
L 173.594658 150.008692 
L 177.900683 152.780452 
L 182.314104 155.3778 
L 186.827861 157.796581 
L 187.62017 158.197514 
L 182.567967 157.361003 
L 177.486354 156.727195 
L 172.383461 156.297105 
L 167.26745 156.07142 
L 162.146506 156.050501 
L 157.028822 156.234382 
L 151.922585 156.622769 
L 146.835964 157.21504 
L 141.777096 158.010248 
L 136.754074 159.007121 
L 131.774934 160.204064 
L 126.847643 161.599161 
L 121.980081 163.190182 
L 117.180037 164.974581 
L 112.518345 166.921629 
L 113.173175 172.000575 
L 114.030584 177.049273 
L 115.089202 182.059646 
L 116.347335 187.023677 
L 117.364409 190.528 
L 120.931049 194.202722 
L 124.641787 197.731876 
L 128.490684 201.109818 
L 132.471585 204.331142 
L 136.57812 207.390697 
L 140.80372 210.283586 
L 145.141624 213.005183 
L 149.584893 215.551132 
L 154.126419 217.917362 
L 158.758937 220.100086 
L 163.475034 222.095813 
L 168.267167 223.901351 
L 173.127669 225.513809 
L 178.048764 226.93061 
L 183.02258 228.149486 
L 188.041159 229.168488 
L 193.096473 229.985985 
L 198.180435 230.600669 
L 203.28491 231.011558 
L 208.401734 231.217993 
L 213.52272 231.219644 
L 218.639676 231.01651 
L 223.744416 230.608914 
L 228.828773 229.997509 
L 233.884613 229.183273 
L 238.903849 228.167509 
L 243.87845 226.951842 
L 248.800458 225.538216 
L 253.661999 223.928892 
L 258.455295 222.126447 
L 263.172679 220.133762 
L 267.806603 217.954026 
L 272.349655 215.590726 
L 276.794565 213.047643 
L 281.134224 210.328846 
L 285.361689 207.438682 
L 289.470197 204.381778 
L 293.453174 201.163022 
L 297.30425 197.787563 
L 301.017263 194.260803 
L 304.586273 190.588384 
L 308.005571 186.776179 
L 311.269686 182.830288 
L 314.373397 178.757024 
L 317.311738 174.562902 
L 320.080008 170.254634 
L 322.67378 165.839109 
L 325.088902 161.323394 
L 327.321513 156.714712 
L 329.368039 152.020435 
L 331.225207 147.248075 
L 332.890047 142.405264 
L 334.359894 137.499752 
L 335.632397 132.539385 
L 336.793864 127.070965 
L 331.926672 125.478815 
L 326.999704 124.082574 
L 322.020842 122.884476 
L 316.998052 121.886438 
L 311.939368 121.090056 
L 306.852885 120.496605 
L 301.746738 120.107033 
L 296.629096 119.921965 
L 291.508148 119.941695 
L 286.392085 120.166193 
L 281.289092 120.5951 
L 276.207332 121.227728 
L 271.154935 122.063067 
L 266.139985 123.09978 
L 261.170503 124.336208 
L 256.25444 125.770373 
L 253.968569 126.510766 
L 251.257615 122.166203 
L 248.375093 117.933524 
L 245.325615 113.819501 
L 242.114059 109.830716 
L 238.745563 105.973549 
L 235.225516 102.254171 
L 231.559549 98.678533 
L 227.753527 95.252354 
L 223.813539 91.981117 
L 219.745888 88.870053 
L 215.557081 85.924141 
L 211.25382 83.148092 
L 206.842989 80.546349 
L 202.331643 78.123073 
L 197.727002 75.882141 
L 193.03643 73.827138 
L 188.267431 71.961352 
L 183.427636 70.287768 
L 178.524787 68.809062 
L 173.566727 67.5276 
L 170.322279 66.802277 
L 173.815029 70.547301 
L 177.454746 74.149656 
L 181.235607 77.60358 
L 185.151564 80.903547 
L 189.196353 84.044277 
L 193.363501 87.020747 
L 197.646344 89.828195 
L 202.038028 92.462129 
L 206.531529 94.918336 
L 211.119658 97.192886 
L 215.795074 99.28214 
L 220.550299 101.182757 
L 225.377724 102.891694 
L 230.269627 104.40622 
L 235.218182 105.723909 
L 240.215472 106.842656 
L 245.253502 107.760669 
L 250.324214 108.476481 
L 255.419494 108.988945 
L 260.531192 109.297243 
L 265.65113 109.400881 
L 270.771116 109.299692 
L 275.882961 108.993841 
L 280.978486 108.483814 
L 286.04954 107.770429 
L 291.088009 106.854826 
L 296.085834 105.738471 
L 301.035018 104.423148 
L 305.927645 102.910964 
L 310.755888 101.204336 
L 315.512021 99.305995 
L 319.69272 97.450914 
L 319.169558 97.819851 
L 315.052002 100.864556 
L 311.059495 104.071484 
L 307.198424 107.435505 
L 303.474967 110.951236 
L 299.895079 114.613054 
L 296.464489 118.4151 
L 293.188685 122.351292 
L 290.072906 126.415332 
L 287.122138 130.60072 
L 284.341101 134.900759 
L 281.734245 139.30857 
L 279.305739 143.817102 
L 278.413568 145.589516 
L 283.504276 145.033462 
L 288.568675 144.27428 
L 293.598665 143.313182 
L 298.586197 142.151707 
L 303.523293 140.791713 
L 308.402055 139.235376 
L 313.214678 137.485186 
L 317.953461 135.543942 
L 322.610826 133.414749 
L 327.17932 131.101015 
L 331.651635 128.606441 
L 336.106352 125.88016 
L 331.606396 128.32452 
L 327.207788 130.946875 
L 322.917564 133.74303 
L 318.742589 136.708512 
L 314.68954 139.838576 
L 310.764903 143.128215 
L 306.974956 146.572166 
L 303.325761 150.16492 
L 299.823157 153.900729 
L 296.472748 157.773617 
L 293.279892 161.777387 
L 290.249699 165.905635 
L 287.208931 170.428429 
L 290.702932 174.172286 
L 294.343852 177.773425 
L 298.125866 181.226086 
L 302.042926 184.524745 
L 306.088763 187.664124 
L 310.256905 190.639202 
L 314.540685 193.445219 
L 318.933249 196.077686 
L 323.42757 198.532392 
L 328.016458 200.805409 
L 332.692572 202.893102 
L 337.448431 204.79213 
L 342.276427 206.499455 
L 345.197993 207.428656 
L 341.386196 204.008904 
L 337.440694 200.744319 
L 333.3678 197.640123 
L 329.174029 194.701282 
L 324.86609 191.932498 
L 320.450875 189.3382 
L 315.935448 186.922539 
L 311.327032 184.689379 
L 306.632999 182.642293 
L 301.86086 180.784556 
L 297.018248 179.119139 
L 292.112911 177.648708 
L 287.338337 176.419469 
L 292.377643 175.508482 
L 297.376489 174.396705 
L 302.326876 173.085917 
L 307.220886 171.578214 
L 312.05069 169.87601 
L 316.80856 167.982026 
L 321.486885 165.899294 
L 326.078181 163.631144 
L 330.575103 161.181206 
L 334.970456 158.553398 
L 339.257209 155.751925 
L 343.428504 152.781269 
L 347.477668 149.646181 
L 349.072505 148.338196 
L 344.302234 150.200726 
L 339.610261 152.252527 
L 335.004091 154.490315 
L 330.491092 156.910512 
L 326.078486 159.509244 
L 321.773331 162.282354 
L 317.582515 165.225407 
L 313.512741 168.333693 
L 309.570521 171.602241 
L 305.762162 175.025821 
L 302.093755 178.598956 
L 298.57117 182.31593 
L 295.200042 186.170797 
L 291.985764 190.157389 
L 288.933479 194.26933 
L 286.048068 198.50004 
L 283.334149 202.842752 
L 280.796063 207.290518 
L 278.437871 211.836222 
L 276.263344 216.472593 
L 274.275962 221.192214 
L 272.478905 225.987533 
L 270.875046 230.850879 
L 269.466952 235.774473 
L 268.256876 240.750437 
L 267.246754 245.770811 
L 266.4382 250.827563 
L 265.83251 255.912604 
L 265.430651 261.017798 
L 265.233268 266.134979 
L 265.240674 271.25596 
L 265.45286 276.372549 
L 265.869485 281.47656 
L 266.331198 285.408 
L 266.905408 280.319308 
L 267.275665 275.211724 
L 267.441377 270.09342 
L 267.402279 264.972583 
L 267.158433 259.857405 
L 266.71023 254.75607 
L 266.058386 249.67674 
L 265.203945 244.627539 
L 264.148273 239.616545 
L 262.893059 234.651775 
L 261.440311 229.741172 
L 259.792353 224.89259 
L 258.210113 220.751288 
L 258.52288 221.309848 
L 261.12474 225.72061 
L 263.900902 230.023798 
L 266.846926 234.212527 
L 269.958097 238.280095 
L 273.229439 242.219997 
L 276.655718 246.025928 
L 280.231454 249.6918 
L 283.950925 253.211748 
L 287.808181 256.580142 
L 291.797052 259.791593 
L 295.911155 262.840962 
L 300.14391 265.723372 
L 304.488545 268.434211 
L 308.614706 270.792767 
L 301.369074 266.701955 
L 296.783762 264.421733 
L 292.110933 262.326699 
L 287.358062 260.420204 
L 282.532754 258.705298 
L 277.642727 257.184725 
L 272.695806 255.860917 
L 267.699903 254.735991 
L 262.663011 253.811749 
L 257.593189 253.089668 
L 252.498546 252.570903 
L 247.387233 252.256284 
L 242.267428 252.146316 
L 237.14732 252.241172 
L 232.035101 252.540703 
L 226.938949 253.044428 
L 221.867017 253.751542 
L 216.82742 254.660914 
L 211.828218 255.771088 
L 206.877411 257.080289 
L 201.982918 258.586422 
L 197.152569 260.287078 
L 192.394092 262.179536 
L 187.715099 264.260769 
L 183.123076 266.527447 
L 178.625369 268.975944 
L 174.229174 271.602342 
L 169.941523 274.40244 
L 166.987871 276.478358 
L 171.620055 274.294927 
L 176.16122 271.928004 
L 180.604101 269.381377 
L 184.94159 266.659118 
L 189.166748 263.765584 
L 193.272816 260.705403 
L 197.253225 257.483471 
L 201.101608 254.104943 
L 204.811806 250.575222 
L 208.377886 246.899957 
L 211.794142 243.085026 
L 215.055109 239.136533 
L 218.15557 235.060794 
L 221.090564 230.864331 
L 223.855398 226.553855 
L 225.073423 224.526877 
L 225.663271 229.61378 
L 226.456069 234.673026 
L 227.450549 239.696522 
L 228.645119 244.676231 
L 230.03787 249.604187 
L 231.626571 254.472506 
L 233.408683 259.273399 
L 235.381354 263.999187 
L 237.541429 268.642309 
L 239.88545 273.195337 
L 242.40967 277.650987 
L 245.110048 282.002131 
L 247.397685 285.408 
L 250.236092 281.145612 
L 252.901779 276.773128 
L 255.39048 272.297543 
L 257.698215 267.726016 
L 259.821292 263.06586 
L 261.756314 258.324532 
L 263.500186 253.509617 
L 265.050118 248.628816 
L 266.403629 243.689939 
L 267.558556 238.700886 
L 268.51305 233.66964 
L 269.265585 228.604248 
L 269.814955 223.512815 
L 270.160284 218.403485 
L 270.301017 213.284433 
L 270.304062 212.698445 
L 275.405082 213.150217 
L 280.520088 213.39764 
L 285.640896 213.44032 
L 290.759316 213.278188 
L 295.867157 212.911504 
L 300.956249 212.340854 
L 306.018451 211.567151 
L 311.045664 210.591633 
L 316.029845 209.41586 
L 320.96302 208.041713 
L 325.837299 206.471391 
L 330.644882 204.707407 
L 335.37808 202.752581 
L 340.029319 200.610041 
L 344.591159 198.283215 
L 349.056302 195.775826 
L 353.509494 193.032713 
L 353.657575 187.913868 
L 353.600838 182.793196 
L 353.339373 177.678889 
L 352.873601 172.579129 
L 352.204265 167.502073 
L 351.332436 162.455845 
L 350.259509 157.448518 
L 348.987201 152.488101 
L 347.517547 147.582531 
L 345.874904 142.799788 
L 342.511244 138.938404 
L 338.99586 135.214619 
L 335.334376 131.63439 
L 331.53265 128.203445 
L 327.596764 124.927273 
L 323.533014 121.811116 
L 319.347902 118.859957 
L 315.048122 116.078519 
L 310.640554 113.471251 
L 306.132249 111.042324 
L 301.530418 108.795625 
L 296.842425 106.734746 
L 292.075768 104.862986 
L 287.238074 103.183339 
L 282.337081 101.698491 
L 277.380631 100.410818 
L 272.376652 99.322381 
L 267.33315 98.43492 
L 262.258193 97.749855 
L 257.1599 97.268282 
L 252.046428 96.990972 
L 246.925956 96.918368 
L 241.806677 97.050586 
L 236.696779 97.387415 
L 231.604439 97.928316 
L 226.537803 98.672424 
L 221.504975 99.618548 
L 216.514009 100.765174 
L 211.572887 102.110469 
L 206.689515 103.65228 
L 201.871705 105.38814 
L 197.127165 107.315273 
L 192.463485 109.430595 
L 187.888126 111.730723 
L 183.408406 114.211977 
L 179.031494 116.870386 
L 174.764391 119.701699 
L 170.613924 122.701386 
L 166.586732 125.864648 
L 162.689258 129.186425 
L 158.927737 132.661401 
L 155.308187 136.284019 
L 151.836399 140.048483 
L 148.517925 143.94877 
L 145.358076 147.97864 
L 142.361907 152.131648 
L 139.53421 156.401148 
L 136.87951 160.780311 
L 134.402052 165.26213 
L 132.105802 169.839437 
L 129.994431 174.504908 
L 128.071319 179.251079 
L 126.339541 184.070357 
L 124.801868 188.955034 
L 123.46076 193.897293 
L 122.284926 199.050586 
L 127.177325 200.563506 
L 132.126312 201.879573 
L 137.123969 202.996681 
L 142.1623 203.913042 
L 147.233246 204.62719 
L 152.328694 205.137984 
L 157.440493 205.444605 
L 162.560464 205.546563 
L 167.680417 205.443696 
L 172.792162 205.136168 
L 177.887519 204.62447 
L 182.958338 203.909422 
L 187.996507 202.992167 
L 192.876951 201.90276 
L 189.728885 205.941843 
L 186.744859 210.103584 
L 183.929644 214.381325 
L 181.287745 218.768222 
L 178.823389 223.257259 
L 176.540517 227.841253 
L 174.442782 232.51287 
L 172.533541 237.264638 
L 170.815846 242.088954 
L 169.292446 246.978101 
L 167.965779 251.924257 
L 166.837967 256.919509 
L 165.910813 261.955865 
L 165.185802 267.02527 
L 164.640356 272.412343 
L 169.308222 274.518414 
L 174.056574 276.436135 
L 178.877816 278.162439 
L 183.764236 279.694563 
L 188.708016 281.030057 
L 193.701246 282.166785 
L 198.73594 283.102927 
L 203.804042 283.836987 
L 208.897445 284.367789 
L 214.007999 284.694485 
L 219.127531 284.816552 
L 224.247849 284.733794 
L 229.360761 284.446345 
L 234.458089 283.954664 
L 239.531677 283.259537 
L 244.57341 282.362077 
L 249.575221 281.263719 
L 254.529108 279.966221 
L 259.427147 278.471657 
L 264.261501 276.78242 
L 269.024437 274.901212 
L 273.708334 272.831042 
L 278.305701 270.575222 
L 282.809181 268.13736 
L 287.21157 265.521357 
L 291.505826 262.731399 
L 295.685078 259.771947 
L 299.742641 256.647738 
L 303.672023 253.363768 
L 307.466938 249.925291 
L 311.121315 246.337809 
L 314.629309 242.60706 
L 317.985306 238.739014 
L 321.183938 234.739857 
L 324.220087 230.615988 
L 327.088898 226.374003 
L 329.785779 222.020691 
L 332.306417 217.563014 
L 334.64678 213.008104 
L 336.803122 208.363247 
L 338.771995 203.635876 
L 340.550249 198.833552 
L 342.135039 193.963958 
L 343.523829 189.034885 
L 344.714397 184.054217 
L 345.70484 179.029924 
L 346.493573 173.970042 
L 347.079333 168.882667 
L 347.461184 163.775937 
L 347.638515 158.658022 
L 347.611042 153.537109 
L 347.378809 148.421391 
L 347.10178 144.9248 
L 342.864751 142.048677 
L 338.516097 139.344291 
L 334.062774 136.815968 
L 329.511907 134.467752 
L 324.870778 132.303401 
L 320.146809 130.326377 
L 315.34756 128.539842 
L 310.480707 126.946656 
L 305.554036 125.549365 
L 300.57543 124.350207 
L 295.552852 123.3511 
L 290.494338 122.553641 
L 285.407981 121.959106 
L 280.301917 121.568447 
L 275.184316 121.382289 
L 270.063363 121.400929 
L 264.947252 121.624337 
L 259.844168 122.052157 
L 254.762273 122.683704 
L 249.709699 123.517967 
L 245.987681 124.266518 
L 241.702718 121.462308 
L 237.309045 118.831693 
L 232.813689 116.378883 
L 228.223842 114.107801 
L 223.546849 112.022081 
L 218.790189 110.125059 
L 213.961474 108.419769 
L 209.068428 106.908942 
L 204.118878 105.594992 
L 199.120744 104.480022 
L 194.082021 103.565816 
L 189.01077 102.853837 
L 183.915104 102.345223 
L 178.803175 102.040789 
L 173.68316 101.94102 
L 168.563252 102.046078 
L 163.451639 102.355793 
L 158.356501 102.86967 
L 153.285988 103.586887 
L 148.594162 104.43648 
L 150.330105 109.25426 
L 152.257318 113.998768 
L 154.37272 118.662412 
L 156.672925 123.237732 
L 159.154255 127.717409 
L 161.812739 132.094276 
L 164.644125 136.361331 
L 167.643883 140.511747 
L 170.807213 144.538885 
L 174.129056 148.436303 
L 177.604097 152.197764 
L 181.226776 155.817253 
L 184.991299 159.288977 
L 186.803183 160.864014 
L 181.770574 161.811299 
L 176.779872 162.959076 
L 171.839061 164.305511 
L 166.956044 165.848448 
L 162.138635 167.585419 
L 157.39454 169.513646 
L 152.731347 171.630044 
L 148.156518 173.931227 
L 143.677372 176.413514 
L 139.301073 179.072933 
L 135.034623 181.90523 
L 130.884847 184.905874 
L 126.858385 188.070064 
L 122.961677 191.39274 
L 119.632094 194.455746 
L 124.515488 192.914005 
L 129.333323 191.178214 
L 134.07789 189.25115 
L 138.741601 187.135895 
L 143.316994 184.835833 
L 147.796748 182.354644 
L 152.173699 179.696297 
L 156.440843 176.865045 
L 160.591353 173.865418 
L 164.618591 170.702214 
L 168.516113 167.380494 
L 172.277683 163.905571 
L 175.897285 160.283006 
L 179.369128 156.518592 
L 182.687658 152.618353 
L 185.847565 148.588528 
L 188.843794 144.435564 
L 191.671552 140.166104 
L 194.326316 135.786979 
L 196.803838 131.305196 
L 199.100154 126.727922 
L 201.211592 122.062482 
L 203.134772 117.316338 
L 204.86662 112.497085 
L 206.404363 107.61243 
L 207.745542 102.67019 
L 208.888012 97.67827 
L 209.829944 92.644656 
L 210.569832 87.577402 
L 211.106491 82.484613 
L 211.439065 77.374437 
L 211.567019 72.25505 
L 211.490151 67.13464 
L 211.320414 63.648 
L 211.28217 64.287022 
L 211.091322 69.404451 
L 211.105269 74.525418 
L 211.323989 79.641732 
L 211.747132 84.745206 
L 212.374021 89.827677 
L 213.203654 94.881014 
L 214.234702 99.897132 
L 215.465517 104.868007 
L 216.894129 109.785686 
L 218.518253 114.642302 
L 220.335291 119.430086 
L 222.342336 124.141378 
L 222.77582 125.094574 
L 222.17334 120.009152 
L 221.36798 114.95189 
L 220.361027 109.930879 
L 219.154092 104.954152 
L 217.749107 100.029671 
L 216.148319 95.165313 
L 214.354289 90.36886 
L 212.369887 85.647986 
L 210.198288 81.010243 
L 207.842966 76.463051 
L 205.307689 72.013683 
L 202.596512 67.669259 
L 199.863619 63.648 
L 196.989448 67.886354 
L 194.287066 72.236254 
L 191.760795 76.690742 
L 189.414677 81.24269 
L 187.252464 85.884816 
L 185.277617 90.609695 
L 183.493294 95.409767 
L 181.902351 100.277354 
L 180.507331 105.204668 
L 179.310467 110.183826 
L 178.313674 115.206864 
L 177.518546 120.265744 
L 176.926355 125.352375 
L 176.538049 130.458618 
L 176.354249 135.576305 
L 176.375249 140.697249 
L 176.601015 145.813256 
L 177.031186 150.916143 
L 177.665074 155.997746 
L 178.501665 161.049935 
L 179.53962 166.064629 
L 180.77728 171.033804 
L 182.212664 175.949511 
L 183.843475 180.803886 
L 185.667105 185.589163 
L 186.897003 188.526465 
L 187.73686 193.578113 
L 188.778056 198.592134 
L 190.018927 203.560508 
L 191.457488 208.475287 
L 193.091436 213.328607 
L 194.918159 218.112704 
L 196.934733 222.819925 
L 199.137933 227.442739 
L 201.524234 231.973751 
L 204.089818 236.405712 
L 206.830581 240.731533 
L 209.742139 244.944291 
L 212.819833 249.037249 
L 216.058739 253.003857 
L 219.453677 256.837771 
L 222.999216 260.532858 
L 226.689682 264.083204 
L 230.519172 267.483132 
L 234.48156 270.727201 
L 238.570506 273.810222 
L 242.77947 276.727263 
L 247.101717 279.473656 
L 251.530334 282.045009 
L 256.058235 284.437208 
L 258.030202 285.408 
L 262.598501 283.093882 
L 267.070607 280.598932 
L 271.439364 277.927142 
L 275.697783 275.082784 
L 279.839052 272.070411 
L 283.856545 268.89484 
L 287.743836 265.561153 
L 291.494706 262.074682 
L 295.103153 258.441005 
L 298.563406 254.665936 
L 301.869929 250.755513 
L 305.017432 246.715992 
L 308.000879 242.553835 
L 310.815498 238.275702 
L 313.456785 233.888437 
L 315.920516 229.399057 
L 318.20275 224.814745 
L 320.299834 220.142835 
L 322.208414 215.390802 
L 323.925436 210.566246 
L 325.448155 205.676887 
L 326.774133 200.730547 
L 327.90125 195.735138 
L 328.827702 190.698652 
L 329.552007 185.629147 
L 330.073007 180.534732 
L 330.389868 175.423558 
L 330.502083 170.303802 
L 330.409473 165.183653 
L 330.112185 160.071303 
L 329.610696 154.97493 
L 328.905807 149.902689 
L 327.998646 144.862693 
L 326.890665 139.863005 
L 325.583636 134.911623 
L 324.07965 130.01647 
L 322.381114 125.185375 
L 320.490743 120.426068 
L 318.411564 115.746163 
L 316.146901 111.153146 
L 313.700377 106.654366 
L 311.075908 102.257019 
L 308.277691 97.96814 
L 305.310203 93.79459 
L 302.17819 89.743047 
L 298.886665 85.819992 
L 295.440892 82.0317 
L 291.846385 78.384233 
L 288.108892 74.883426 
L 284.234394 71.534879 
L 280.22909 68.343948 
L 276.099386 65.31574 
L 273.667903 63.648 
L 269.469562 66.580309 
L 265.391841 69.678161 
L 261.441262 72.936601 
L 257.624146 76.350416 
L 253.9466 79.914143 
L 250.414506 83.622083 
L 247.033516 87.468303 
L 243.809038 91.446649 
L 240.74623 95.550758 
L 237.849993 99.774064 
L 235.12496 104.109811 
L 232.575491 108.551061 
L 230.205663 113.090711 
L 228.019268 117.721497 
L 226.019805 122.436012 
L 225.214121 124.498133 
L 221.488823 120.984352 
L 217.625991 117.622354 
L 213.631804 114.417518 
L 209.512654 111.37497 
L 205.275128 108.499577 
L 200.926007 105.795941 
L 196.472249 103.268385 
L 191.920978 100.920955 
L 187.279475 98.757404 
L 182.555165 96.781194 
L 177.755608 94.995487 
L 172.88848 93.40314 
L 167.961569 92.006699 
L 162.982756 90.8084 
L 157.960006 89.810158 
L 157.123049 89.664015 
L 160.473299 93.53704 
L 163.975749 97.272993 
L 167.624796 100.865898 
L 171.414602 104.310005 
L 175.339104 107.599805 
L 179.392023 110.730036 
L 183.566877 113.695689 
L 187.856986 116.49202 
L 192.255486 119.114557 
L 196.755342 121.559102 
L 201.349354 123.821745 
L 206.030172 125.898868 
L 210.79031 127.787146 
L 213.305273 128.69721 
L 214.764057 123.788396 
L 216.025373 118.825173 
L 217.087205 113.815481 
L 217.947853 108.767334 
L 218.60594 103.688808 
L 219.060414 98.588028 
L 219.310548 93.473154 
L 219.355941 88.352369 
L 219.196522 83.233865 
L 218.832544 78.12583 
L 218.26459 73.036436 
L 217.493569 67.973825 
L 216.669098 63.648 
L 215.724431 68.681101 
L 214.98179 73.747953 
L 214.442363 78.840449 
L 214.107013 83.950444 
L 213.976277 89.069761 
L 214.050363 94.190211 
L 214.329153 99.303603 
L 214.812201 104.401757 
L 215.498735 109.476515 
L 216.387656 114.51976 
L 217.477542 119.523424 
L 218.766649 124.479501 
L 219.259291 126.183756 
L 219.017806 125.590885 
L 216.979835 120.892887 
L 214.755626 116.280145 
L 212.348734 111.760037 
L 209.763012 107.339795 
L 207.002596 103.026489 
L 204.071902 98.827021 
L 200.975617 94.748109 
L 197.718697 90.796277 
L 194.306351 86.977849 
L 190.744037 83.298933 
L 187.037456 79.765414 
L 183.192537 76.382945 
L 179.21543 73.156937 
L 175.112499 70.092552 
L 170.890307 67.194691 
L 170.313381 66.81769 
L 170.884543 67.106801 
L 175.504414 69.316166 
L 180.208941 71.339017 
L 184.990598 73.172119 
L 189.841734 74.81254 
L 194.754589 76.257655 
L 199.721303 77.505152 
L 204.733932 78.553036 
L 209.784454 79.39963 
L 214.864792 80.043579 
L 219.966817 80.483855 
L 225.082367 80.719751 
L 230.203259 80.750891 
L 235.3213 80.577226 
L 240.428302 80.199032 
L 245.516096 79.616915 
L 250.576541 78.831806 
L 255.601542 77.844962 
L 260.583061 76.65796 
L 265.513128 75.272701 
L 270.383855 73.691399 
L 275.187451 71.916585 
L 279.916232 69.951098 
L 284.562631 67.798082 
L 289.119216 65.460982 
L 292.372122 63.648 
L 296.858809 66.116632 
L 301.440626 68.403869 
L 303.464332 69.342522 
L 303.065217 74.447932 
L 302.870584 79.565219 
L 302.880743 84.686195 
L 303.095679 89.802669 
L 303.515047 94.906455 
L 304.138176 99.989388 
L 304.96407 105.043337 
L 305.991408 110.060217 
L 307.218545 115.032001 
L 308.64352 119.950735 
L 310.264051 124.808552 
L 312.077547 129.597678 
L 314.081106 134.310454 
L 316.271524 138.939338 
L 318.645295 143.476927 
L 321.198623 147.915961 
L 323.927422 152.249338 
L 326.827327 156.470126 
L 329.8937 160.571572 
L 333.121634 164.547115 
L 336.505965 168.390396 
L 340.041279 172.095265 
L 343.72192 175.655796 
L 347.542001 179.066292 
L 351.495409 182.321298 
L 355.575821 185.415606 
L 357.225851 186.595796 
L 352.537964 184.534675 
L 347.771404 182.662668 
L 342.933797 180.98277 
L 338.032881 179.497668 
L 333.076497 178.209739 
L 328.072575 177.121043 
L 323.029118 176.233321 
L 317.954197 175.547993 
L 312.855929 175.066156 
L 307.742471 174.788581 
L 302.622003 174.715712 
L 297.502717 174.847666 
L 292.392802 175.18423 
L 287.359464 175.717418 
L 292.421594 176.491594 
L 297.510633 177.06272 
L 302.61844 177.429882 
L 307.736844 177.592493 
L 312.857656 177.550291 
L 317.972685 177.303346 
L 323.073747 176.852052 
L 328.152682 176.19713 
L 333.201365 175.339629 
L 338.211718 174.280921 
L 343.175726 173.022699 
L 348.085448 171.566976 
L 352.93303 169.91608 
L 357.710715 168.072654 
L 359.928424 167.141199 
L 355.883416 170.281647 
L 351.967228 173.581339 
L 348.186125 177.034998 
L 344.546156 180.637099 
L 341.053144 184.381878 
L 337.712677 188.263344 
L 334.530099 192.275289 
L 331.510503 196.411294 
L 328.658718 200.664743 
L 325.979306 205.02883 
L 323.476555 209.496574 
L 321.154467 214.060828 
L 319.016759 218.714289 
L 317.066849 223.449514 
L 315.307858 228.258927 
L 313.742599 233.134833 
L 312.373576 238.069433 
L 311.202979 243.054833 
L 310.232682 248.083056 
L 309.464236 253.146058 
L 308.898871 258.23574 
L 308.537491 263.34396 
L 308.380674 268.462544 
L 308.380825 271.197861 
L 303.969828 273.799323 
L 299.666389 276.575096 
L 295.477394 279.520741 
L 291.409544 282.631545 
L 288.044817 285.408 
L 284.085304 282.160422 
L 279.99909 279.07378 
L 275.792712 276.153013 
L 271.472899 273.402791 
L 267.046562 270.827516 
L 262.520782 268.431308 
L 257.902799 266.217999 
L 253.200001 264.19113 
L 248.419912 262.353945 
L 243.570179 260.709381 
L 238.65856 259.260071 
L 233.692913 258.008332 
L 228.681181 256.956168 
L 223.631383 256.10526 
L 218.551598 255.456972 
L 213.44995 255.01234 
L 208.334604 254.772074 
L 203.21374 254.73656 
L 198.095553 254.905855 
L 192.98823 255.279686 
L 187.899941 255.857458 
L 182.838827 256.638244 
L 177.812984 257.620797 
L 172.830454 258.803543 
L 167.899206 260.184592 
L 163.02713 261.761733 
L 159.278021 263.124506 
L 163.184937 259.81384 
L 166.956337 256.349588 
L 170.586187 252.73729 
L 174.06868 248.982727 
L 177.398244 245.091905 
L 180.569554 241.071047 
L 183.577537 236.926588 
L 186.417378 232.665156 
L 189.084537 228.293569 
L 191.574745 223.818822 
L 193.884019 219.248072 
L 196.008664 214.588632 
L 197.945283 209.847955 
L 198.273542 208.986906 
L 193.360484 210.431328 
L 188.509116 212.071065 
L 183.727202 213.903493 
L 179.022389 215.925682 
L 174.402207 218.134394 
L 169.874044 220.526099 
L 165.445147 223.096968 
L 161.122599 225.842889 
L 156.913317 228.75947 
L 152.824034 231.842044 
L 148.861292 235.085681 
L 145.045174 238.472492 
L 149.90393 236.854779 
L 154.694107 235.044061 
L 159.408044 233.043236 
L 164.038199 230.855505 
L 168.577164 228.484366 
L 173.017678 225.933614 
L 177.352637 223.207329 
L 181.575107 220.309873 
L 185.678331 217.24588 
L 189.655747 214.020253 
L 193.50099 210.638152 
L 196.898153 207.411236 
L 192.779728 210.454766 
L 188.786306 213.660555 
L 184.924275 217.023474 
L 181.199815 220.538143 
L 177.618883 224.198939 
L 174.187208 228.000006 
L 170.91028 231.935263 
L 167.793342 235.998414 
L 164.84138 240.18296 
L 162.059116 244.482205 
L 159.451002 248.889272 
L 157.02121 253.397111 
L 155.468259 256.525805 
L 160.581071 256.815041 
L 165.701359 256.899588 
L 170.820933 256.77931 
L 175.931602 256.4544 
L 181.02519 255.925378 
L 186.093548 255.193089 
L 191.128568 254.258706 
L 196.122196 253.123724 
L 201.066442 251.789957 
L 205.953397 250.25954 
L 210.775242 248.534922 
L 215.524264 246.61886 
L 220.192865 244.514421 
L 224.773577 242.224971 
L 229.259071 239.754172 
L 233.642172 237.105978 
L 237.915867 234.284625 
L 242.073319 231.294627 
L 246.107878 228.140767 
L 250.013089 224.828089 
L 251.674271 223.334836 
L 256.766842 223.873564 
L 261.876882 224.208212 
L 266.996218 224.338245 
L 272.116658 224.263455 
L 277.230011 223.983963 
L 282.328098 223.500214 
L 287.402762 222.812983 
L 292.445885 221.923369 
L 297.449399 220.832796 
L 302.4053 219.543008 
L 307.305658 218.056068 
L 312.142635 216.374356 
L 316.908492 214.500562 
L 321.595606 212.437683 
L 326.196477 210.189019 
L 330.703745 207.758168 
L 335.1102 205.14902 
L 339.408792 202.365747 
L 343.592644 199.412802 
L 347.655063 196.29491 
L 351.589551 193.017059 
L 355.632307 189.355894 
L 356.717897 184.351296 
L 357.602488 179.30729 
L 358.284665 174.231944 
L 358.763336 169.133378 
L 358.979501 165.497615 
L 354.387282 163.231335 
L 349.708109 161.150506 
L 344.949469 159.25846 
L 340.118973 157.558221 
L 335.224349 156.052511 
L 330.273429 154.743738 
L 325.274131 153.633996 
L 320.234455 152.72506 
L 315.162462 152.018385 
L 310.066267 151.5151 
L 304.954022 151.216011 
L 299.833906 151.121597 
L 294.71411 151.232009 
L 289.602824 151.547069 
L 284.508227 152.066274 
L 282.323177 152.352316 
L 285.974986 148.76222 
L 289.480309 145.028962 
L 292.833537 141.158514 
L 296.029306 137.15707 
L 299.062504 133.031029 
L 301.928278 128.786993 
L 304.622044 124.431751 
L 307.139491 119.972272 
L 309.476594 115.415688 
L 311.629612 110.76929 
L 313.595101 106.040511 
L 315.369918 101.236915 
L 316.951223 96.366189 
L 317.66155 93.932825 
L 312.674809 92.767956 
L 307.645475 91.803435 
L 302.581594 91.040806 
L 297.491265 90.481287 
L 292.382634 90.125775 
L 287.263873 89.974838 
L 282.14317 90.028718 
L 277.028717 90.287328 
L 271.928698 90.750255 
L 266.85127 91.416758 
L 261.804556 92.285771 
L 256.79663 93.355903 
L 251.835504 94.625443 
L 246.929115 96.09236 
L 242.085311 97.754306 
L 237.311842 99.608624 
L 232.616344 101.652346 
L 228.006329 103.882203 
L 223.489172 106.294628 
L 219.072099 108.885762 
L 214.762178 111.651458 
L 210.566302 114.587294 
L 206.491185 117.688571 
L 202.543345 120.950328 
L 198.729099 124.367349 
L 195.054548 127.934165 
L 191.525571 131.64507 
L 188.147813 135.494129 
L 184.926678 139.475184 
L 181.86732 143.581865 
L 178.974632 147.807603 
L 176.253243 152.145637 
L 173.707505 156.589028 
L 171.341493 161.130667 
L 169.158989 165.763288 
L 167.163487 170.479481 
L 165.358179 175.2717 
L 163.745952 180.132279 
L 162.329386 185.053442 
L 161.110748 190.027316 
L 160.091986 195.045943 
L 159.27473 200.101297 
L 158.660289 205.185287 
L 158.249644 210.289783 
L 158.043453 215.406616 
L 158.042046 220.527603 
L 158.245425 225.644549 
L 158.653264 230.749269 
L 159.264912 235.833597 
L 160.079389 240.889398 
L 161.095393 245.908585 
L 162.311298 250.883128 
L 163.725159 255.805069 
L 165.334715 260.666533 
L 167.137389 265.459743 
L 169.130299 270.177032 
L 171.310256 274.810852 
L 173.673773 279.353791 
L 176.217068 283.79858 
L 177.197367 285.408 
L 179.805806 281.001125 
L 182.235931 276.493465 
L 184.483853 271.892232 
L 186.545977 267.204786 
L 188.419004 262.438627 
L 190.099937 257.601379 
L 191.586087 252.700782 
L 192.875077 247.744673 
L 193.964844 242.740984 
L 194.853645 237.697718 
L 195.540058 232.622943 
L 196.022986 227.524778 
L 196.301655 222.41138 
L 196.37562 217.290927 
L 196.244762 212.171613 
L 195.90929 207.061627 
L 195.821394 206.081079 
L 190.954684 204.487457 
L 186.028139 203.089726 
L 181.049639 201.890122 
L 176.027151 200.890565 
L 170.968709 200.092654 
L 165.882405 199.497664 
L 160.776376 199.106548 
L 155.658791 198.919932 
L 150.537837 198.938114 
L 145.421706 199.161065 
L 140.318583 199.588428 
L 135.236632 200.21952 
L 130.183983 201.053331 
L 125.16872 202.088526 
L 124.172116 202.319296 
L 127.606713 198.520868 
L 130.886665 194.588132 
L 134.006726 190.527379 
L 136.961905 186.345104 
L 139.747474 182.047999 
L 142.358976 177.642939 
L 144.792234 173.13697 
L 147.043354 168.5373 
L 149.108737 163.851289 
L 150.985076 159.086434 
L 152.669372 154.250356 
L 154.158929 149.350792 
L 155.451363 144.395581 
L 156.544609 139.392651 
L 157.436916 134.350003 
L 158.126857 129.275707 
L 158.613329 124.17788 
L 158.895553 119.064676 
L 158.973078 113.944276 
L 158.845779 108.824872 
L 158.51386 103.714654 
L 157.977853 98.621796 
L 157.238614 93.554447 
L 156.679383 90.432467 
L 161.482897 88.657432 
L 166.211587 86.691727 
L 170.857887 84.538498 
L 175.414365 82.201188 
L 179.87373 79.683538 
L 184.228849 76.989575 
L 188.472755 74.123608 
L 192.598658 71.090222 
L 196.599957 67.894271 
L 200.470252 64.540867 
L 201.449793 63.648 
L 205.285166 67.041289 
L 209.253167 70.278491 
L 213.347447 73.354425 
L 217.561457 76.264171 
L 221.888455 79.003074 
L 226.321519 81.566753 
L 230.853556 83.951105 
L 235.477317 86.152317 
L 240.185405 88.166868 
L 244.970287 89.991533 
L 249.824309 91.623395 
L 254.739705 93.059843 
L 259.708612 94.298578 
L 264.723081 95.337619 
L 269.775089 96.175303 
L 274.856555 96.810291 
L 279.959348 97.241567 
L 285.075307 97.46844 
L 290.196245 97.490548 
L 295.313972 97.307856 
L 300.420299 96.920655 
L 305.507058 96.329565 
L 310.56611 95.535532 
L 315.589364 94.539826 
L 317.730089 94.051539 
L 314.290587 97.845525 
L 311.005556 101.774019 
L 307.88025 105.830738 
L 304.91967 110.00919 
L 302.128551 114.302692 
L 299.511359 118.704374 
L 297.072281 123.207196 
L 294.815218 127.803952 
L 292.743783 132.48729 
L 290.861287 137.249718 
L 289.170744 142.083615 
L 287.674858 146.98125 
L 286.376021 151.934787 
L 285.276312 156.936301 
L 284.912015 158.842309 
L 288.669605 162.321536 
L 292.563321 165.647716 
L 296.586934 168.815529 
L 300.734008 171.819906 
L 304.997907 174.656041 
L 309.371811 177.319398 
L 313.848722 179.805714 
L 318.421478 182.111013 
L 323.082764 184.231606 
L 327.825123 186.164102 
L 332.640967 187.905407 
L 337.522593 189.452738 
L 342.46219 190.803618 
L 347.451858 191.955886 
L 352.483612 192.907699 
L 353.48646 193.072609 
L 350.177207 189.164497 
L 346.714317 185.391846 
L 343.103332 181.760691 
L 339.350027 178.276841 
L 335.460408 174.945871 
L 331.440697 171.773108 
L 327.297325 168.763628 
L 323.03692 165.922247 
L 318.666297 163.253508 
L 314.19245 160.761683 
L 309.622535 158.450758 
L 304.963863 156.324428 
L 300.223887 154.386097 
L 295.41019 152.638865 
L 290.530472 151.085527 
L 285.592541 149.728568 
L 280.265493 148.499067 
L 281.675901 143.576136 
L 282.888316 138.600741 
L 283.900798 133.580843 
L 284.711728 128.524471 
L 285.319809 123.439715 
L 285.724067 118.33471 
L 285.923856 113.217622 
L 285.918856 108.096638 
L 285.709075 102.979951 
L 285.29485 97.875745 
L 284.676841 92.792186 
L 283.856039 87.737408 
L 282.833757 82.719496 
L 281.611629 77.746478 
L 280.191611 72.82631 
L 278.575975 67.966864 
L 276.955311 63.648 
L 275.16567 68.446092 
L 273.569333 73.311913 
L 272.168854 78.237677 
L 270.966473 83.215506 
L 269.964113 88.237436 
L 269.16338 93.295433 
L 268.565552 98.381404 
L 268.171588 103.487214 
L 267.982116 108.604694 
L 267.997441 113.725657 
L 268.217538 118.841912 
L 268.642053 123.945272 
L 269.27031 129.027574 
L 270.101302 134.080688 
L 270.598424 136.622924 
L 275.699838 137.070233 
L 280.815058 137.313182 
L 285.935902 137.351382 
L 291.054177 137.184773 
L 296.161696 136.81362 
L 301.250287 136.238518 
L 306.31181 135.460387 
L 311.338167 134.480471 
L 316.321318 133.300338 
L 321.253289 131.921877 
L 326.126192 130.347292 
L 330.932231 128.579102 
L 335.663716 126.620136 
L 336.356988 126.314275 
L 332.276349 129.408282 
L 328.3227 132.662997 
L 324.502369 136.073212 
L 320.821465 139.633471 
L 317.285878 143.33808 
L 313.901264 147.181111 
L 310.673037 151.156417 
L 307.606362 155.257637 
L 304.706146 159.478212 
L 301.977027 163.811388 
L 299.423373 168.250233 
L 297.049267 172.787647 
L 294.858509 177.41637 
L 292.854602 182.128998 
L 291.040753 186.917991 
L 289.419864 191.775688 
L 287.994528 196.694318 
L 286.767024 201.666011 
L 285.739317 206.682815 
L 284.91305 211.736703 
L 284.289546 216.81959 
L 283.869802 221.923346 
L 283.65449 227.039804 
L 283.643953 232.160779 
L 283.83821 237.27808 
L 284.236948 242.383519 
L 284.839531 247.468929 
L 285.644994 252.526175 
L 286.652048 257.547165 
L 287.859083 262.523867 
L 289.264167 267.448321 
L 290.865054 272.312646 
L 292.65918 277.109063 
L 294.643677 281.829897 
L 296.299156 285.408 
L 298.428063 280.750505 
L 300.369017 276.011603 
L 302.118913 271.198873 
L 303.674952 266.320016 
L 305.034644 261.382837 
L 306.195813 256.395234 
L 307.156603 251.365185 
L 307.915476 246.300739 
L 308.471218 241.209997 
L 308.82294 236.101104 
L 308.97008 230.982232 
L 308.912402 225.86157 
L 308.649998 220.747311 
L 308.183288 215.647636 
L 307.513018 210.570704 
L 306.640262 205.524636 
L 305.566415 200.517506 
L 304.293195 195.557323 
L 302.82264 190.652023 
L 301.1571 185.809454 
L 299.299242 181.037361 
L 297.252037 176.343381 
L 295.018761 171.735021 
L 292.602986 167.219655 
L 290.008576 162.804506 
L 287.239683 158.496637 
L 284.300736 154.30294 
L 281.33821 150.408936 
L 279.672681 145.566363 
L 277.814833 140.794267 
L 275.767638 136.100282 
L 273.534372 131.491917 
L 271.118606 126.976546 
L 268.524206 122.561391 
L 265.755323 118.253517 
L 262.816385 114.059814 
L 259.712094 109.986991 
L 256.447417 106.041565 
L 253.027577 102.229847 
L 249.458044 98.557936 
L 245.744528 95.031704 
L 241.892972 91.656795 
L 237.909536 88.438606 
L 233.800593 85.382286 
L 229.572717 82.492725 
L 225.232671 79.774545 
L 220.787398 77.232095 
L 216.244011 74.869442 
L 211.609776 72.690366 
L 206.892109 70.698353 
L 202.098556 68.896589 
L 197.236786 67.287958 
L 192.314576 65.875033 
L 187.339802 64.660074 
L 182.336813 63.648 
L 177.317565 64.663703 
L 172.342949 65.879309 
L 170.576372 66.362176 
L 171.940471 71.298139 
L 173.500865 76.175605 
L 175.255058 80.98677 
L 177.200242 85.723938 
L 179.333307 90.37953 
L 181.65084 94.946098 
L 184.149133 99.416337 
L 186.824189 103.783095 
L 189.67173 108.039386 
L 192.687199 112.178402 
L 195.865772 116.19352 
L 199.202365 120.078317 
L 202.691639 123.826579 
L 206.328013 127.432309 
L 209.799609 130.619804 
L 208.508284 125.664304 
L 207.019825 120.764407 
L 205.336614 115.927952 
L 203.461342 111.162675 
L 201.39701 106.476202 
L 199.14692 101.876028 
L 196.714672 97.369514 
L 194.104157 92.963868 
L 191.319551 88.666139 
L 188.36531 84.483203 
L 185.246159 80.42175 
L 181.967088 76.488279 
L 178.533343 72.689082 
L 174.950417 69.030237 
L 171.1189 65.422491 
L 176.02249 66.898737 
L 180.981192 68.177711 
L 185.987073 69.257367 
L 191.032125 70.135977 
L 196.108276 70.812137 
L 201.207406 71.284763 
L 206.321357 71.553101 
L 211.441948 71.616721 
L 216.560988 71.47552 
L 221.670286 71.129726 
L 226.761669 70.579891 
L 231.826992 69.826895 
L 236.858152 68.871942 
L 241.847099 67.71656 
L 246.785853 66.362597 
L 251.666512 64.812221 
L 254.945557 63.648 
L 259.782283 65.330435 
L 264.682419 66.818107 
L 269.638126 68.108635 
L 274.641477 69.199956 
L 279.684467 70.090323 
L 284.759029 70.778312 
L 289.857043 71.262823 
L 294.970355 71.543079 
L 300.090784 71.618634 
L 304.716173 71.510775 
L 302.061437 75.889916 
L 299.583944 80.371716 
L 297.287657 84.949004 
L 295.176249 89.614458 
L 293.253098 94.360614 
L 291.521281 99.179878 
L 289.983569 104.064542 
L 288.642421 109.006791 
L 287.499984 113.998719 
L 286.558084 119.032338 
L 285.818228 124.099597 
L 285.281601 129.19239 
L 284.94906 134.302567 
L 284.821138 139.421956 
L 284.898039 144.542365 
L 285.17964 149.655603 
L 285.665491 154.75349 
L 286.354814 159.82787 
L 287.246508 164.870626 
L 288.339144 169.873689 
L 289.630976 174.829058 
L 291.119936 179.728802 
L 292.803642 184.565085 
L 294.679402 189.33017 
L 296.744214 194.016432 
L 298.994774 198.616375 
L 301.427483 203.122641 
L 304.038449 207.528019 
L 306.823494 211.825463 
L 309.778164 216.008097 
L 312.897731 220.069231 
L 316.177205 224.002366 
L 319.611338 227.801212 
L 323.194639 231.45969 
L 326.921373 234.971948 
L 328.489556 236.368518 
L 323.609275 234.816952 
L 318.670851 233.461786 
L 313.682186 232.305188 
L 308.651259 231.349009 
L 303.58612 230.594778 
L 298.494871 230.043702 
L 293.385657 229.696662 
L 288.266652 229.554215 
L 283.146046 229.616586 
L 278.032029 229.883678 
L 272.932784 230.355061 
L 267.856468 231.029984 
L 262.811203 231.907365 
L 257.805059 232.9858 
L 252.846045 234.263566 
L 247.942095 235.738617 
L 243.101054 237.408594 
L 238.330666 239.270825 
L 233.638564 241.322331 
L 229.032253 243.559831 
L 224.519103 245.979744 
L 220.106334 248.578199 
L 215.801005 251.351039 
L 211.610003 254.293828 
L 207.540035 257.401859 
L 203.59761 260.670159 
L 199.789035 264.0935 
L 196.120404 267.666405 
L 192.597586 271.383158 
L 189.226216 275.237813 
L 186.011688 279.224204 
L 182.959144 283.335953 
L 181.514796 285.408 
L 178.543957 281.236835 
L 175.408692 277.187809 
L 172.114017 273.267398 
L 168.665202 269.481875 
L 165.067766 265.837296 
L 161.327464 262.339492 
L 157.450278 258.994057 
L 156.393028 258.127551 
L 155.488152 253.087144 
L 154.382437 248.086955 
L 153.077653 243.134981 
L 151.575886 238.239147 
L 149.87954 233.407283 
L 147.991327 228.647119 
L 145.914269 223.966272 
L 143.651688 219.372229 
L 141.207204 214.87234 
L 138.584728 210.473804 
L 135.788455 206.183657 
L 132.822859 202.008763 
L 129.692684 197.9558 
L 126.402937 194.031253 
L 122.958882 190.2414 
L 119.366028 186.592304 
L 115.630123 183.089803 
L 111.757144 179.7395 
L 110.576088 178.770283 
L 109.671212 173.729877 
L 109.386262 172.346555 
L 109.386262 172.346555 
" style="fill:none;stroke:#1f77b4;stroke-linecap:square;stroke-width:1.5;"/>
   </g>
   <g id="patch_4">
    <path d="M 82.520165 307.584 
L 82.520165 41.472 
" style="fill:none;stroke:#000000;stroke-linecap:square;stroke-linejoin:miter;stroke-width:0.8;"/>
   </g>
   <g id="patch_5">
    <path d="M 389.799835 307.584 
L 389.799835 41.472 
" style="fill:none;stroke:#000000;stroke-linecap:square;stroke-linejoin:miter;stroke-width:0.8;"/>
   </g>
   <g id="patch_6">
    <path d="M 82.520165 307.584 
L 389.799835 307.584 
" style="fill:none;stroke:#000000;stroke-linecap:square;stroke-linejoin:miter;stroke-width:0.8;"/>
   </g>
   <g id="patch_7">
    <path d="M 82.520165 41.472 
L 389.799835 41.472 
" style="fill:none;stroke:#000000;stroke-linecap:square;stroke-linejoin:miter;stroke-width:0.8;"/>
   </g>
  </g>
 </g>
 <defs>
  <clipPath id="pb7a96b1741">
   <rect height="266.112" width="307.27967" x="82.520165" y="41.472"/>
  </clipPath>
 </defs>
</svg>
