<?xml version="1.0" encoding="utf-8" standalone="no"?>
<!DOCTYPE svg PUBLIC "-//W3C//DTD SVG 1.1//EN"
  "http://www.w3.org/Graphics/SVG/1.1/DTD/svg11.dtd">
<!-- Created with matplotlib (https://matplotlib.org/) -->
<svg height="345.6pt" version="1.1" viewBox="0 0 460.8 345.6" width="460.8pt" xmlns="http://www.w3.org/2000/svg" xmlns:xlink="http://www.w3.org/1999/xlink">
 <defs>
  <style type="text/css">
*{stroke-linecap:butt;stroke-linejoin:round;}
  </style>
 </defs>
 <g id="figure_1">
  <g id="patch_1">
   <path d="M 0 345.6 
L 460.8 345.6 
L 460.8 0 
L 0 0 
z
" style="fill:#ffffff;"/>
  </g>
  <g id="axes_1">
   <g id="patch_2">
    <path d="M 82.520165 307.584 
L 389.799835 307.584 
L 389.799835 41.472 
L 82.520165 41.472 
z
" style="fill:#ffffff;"/>
   </g>
   <g id="PathCollection_1">
    <defs>
     <path d="M 0 2.236068 
C 0.593012 2.236068 1.161816 2.000462 1.581139 1.581139 
C 2.000462 1.161816 2.236068 0.593012 2.236068 0 
C 2.236068 -0.593012 2.000462 -1.161816 1.581139 -1.581139 
C 1.161816 -2.000462 0.593012 -2.236068 0 -2.236068 
C -0.593012 -2.236068 -1.161816 -2.000462 -1.581139 -1.581139 
C -2.000462 -1.161816 -2.236068 -0.593012 -2.236068 0 
C -2.236068 0.593012 -2.000462 1.161816 -1.581139 1.581139 
C -1.161816 2.000462 -0.593012 2.236068 0 2.236068 
z
" id="mc6b0d92b3b" style="stroke:#000000;"/>
    </defs>
    <g clip-path="url(#pd74808a55c)">
     <use style="stroke:#000000;" x="128.662561" xlink:href="#mc6b0d92b3b" y="210.096974"/>
    </g>
   </g>
   <g id="Quiver_1">
    <path clip-path="url(#pd74808a55c)" d="M 128.073046 209.923323 
L 129.983212 203.438654 
L 128.630529 203.680866 
L 132.13559 198.306667 
L 132.167622 204.722775 
L 131.162242 203.785957 
L 129.252076 210.270625 
L 128.073046 209.923323 
"/>
   </g>
   <g id="patch_3">
    <path clip-path="url(#pd74808a55c)" d="M 236.16 225.741278 
C 249.74192 225.741278 262.769389 220.345124 272.373256 210.741256 
C 281.977124 201.137389 287.373278 188.10992 287.373278 174.528 
C 287.373278 160.94608 281.977124 147.918611 272.373256 138.314744 
C 262.769389 128.710876 249.74192 123.314722 236.16 123.314722 
C 222.57808 123.314722 209.550611 128.710876 199.946744 138.314744 
C 190.342876 147.918611 184.946722 160.94608 184.946722 174.528 
C 184.946722 188.10992 190.342876 201.137389 199.946744 210.741256 
C 209.550611 220.345124 222.57808 225.741278 236.16 225.741278 
z
" style="fill:#009900;fill-opacity:0.5;stroke:#009900;stroke-linejoin:miter;stroke-width:2;"/>
   </g>
   <g id="matplotlib.axis_1">
    <g id="xtick_1">
     <g id="line2d_1">
      <defs>
       <path d="M 0 0 
L 0 3.5 
" id="me36e64ab3b" style="stroke:#000000;stroke-width:0.8;"/>
      </defs>
      <g>
       <use style="stroke:#000000;stroke-width:0.8;" x="108.126804" xlink:href="#me36e64ab3b" y="307.584"/>
      </g>
     </g>
     <g id="text_1">
      <!-- −2 -->
      <defs>
       <path d="M 10.59375 35.5 
L 73.1875 35.5 
L 73.1875 27.203125 
L 10.59375 27.203125 
z
" id="DejaVuSans-8722"/>
       <path d="M 19.1875 8.296875 
L 53.609375 8.296875 
L 53.609375 0 
L 7.328125 0 
L 7.328125 8.296875 
Q 12.9375 14.109375 22.625 23.890625 
Q 32.328125 33.6875 34.8125 36.53125 
Q 39.546875 41.84375 41.421875 45.53125 
Q 43.3125 49.21875 43.3125 52.78125 
Q 43.3125 58.59375 39.234375 62.25 
Q 35.15625 65.921875 28.609375 65.921875 
Q 23.96875 65.921875 18.8125 64.3125 
Q 13.671875 62.703125 7.8125 59.421875 
L 7.8125 69.390625 
Q 13.765625 71.78125 18.9375 73 
Q 24.125 74.21875 28.421875 74.21875 
Q 39.75 74.21875 46.484375 68.546875 
Q 53.21875 62.890625 53.21875 53.421875 
Q 53.21875 48.921875 51.53125 44.890625 
Q 49.859375 40.875 45.40625 35.40625 
Q 44.1875 33.984375 37.640625 27.21875 
Q 31.109375 20.453125 19.1875 8.296875 
z
" id="DejaVuSans-50"/>
      </defs>
      <g transform="translate(100.755711 322.182437)scale(0.1 -0.1)">
       <use xlink:href="#DejaVuSans-8722"/>
       <use x="83.789062" xlink:href="#DejaVuSans-50"/>
      </g>
     </g>
    </g>
    <g id="xtick_2">
     <g id="line2d_2">
      <g>
       <use style="stroke:#000000;stroke-width:0.8;" x="172.143402" xlink:href="#me36e64ab3b" y="307.584"/>
      </g>
     </g>
     <g id="text_2">
      <!-- −1 -->
      <defs>
       <path d="M 12.40625 8.296875 
L 28.515625 8.296875 
L 28.515625 63.921875 
L 10.984375 60.40625 
L 10.984375 69.390625 
L 28.421875 72.90625 
L 38.28125 72.90625 
L 38.28125 8.296875 
L 54.390625 8.296875 
L 54.390625 0 
L 12.40625 0 
z
" id="DejaVuSans-49"/>
      </defs>
      <g transform="translate(164.772308 322.182437)scale(0.1 -0.1)">
       <use xlink:href="#DejaVuSans-8722"/>
       <use x="83.789062" xlink:href="#DejaVuSans-49"/>
      </g>
     </g>
    </g>
    <g id="xtick_3">
     <g id="line2d_3">
      <g>
       <use style="stroke:#000000;stroke-width:0.8;" x="236.16" xlink:href="#me36e64ab3b" y="307.584"/>
      </g>
     </g>
     <g id="text_3">
      <!-- 0 -->
      <defs>
       <path d="M 31.78125 66.40625 
Q 24.171875 66.40625 20.328125 58.90625 
Q 16.5 51.421875 16.5 36.375 
Q 16.5 21.390625 20.328125 13.890625 
Q 24.171875 6.390625 31.78125 6.390625 
Q 39.453125 6.390625 43.28125 13.890625 
Q 47.125 21.390625 47.125 36.375 
Q 47.125 51.421875 43.28125 58.90625 
Q 39.453125 66.40625 31.78125 66.40625 
z
M 31.78125 74.21875 
Q 44.046875 74.21875 50.515625 64.515625 
Q 56.984375 54.828125 56.984375 36.375 
Q 56.984375 17.96875 50.515625 8.265625 
Q 44.046875 -1.421875 31.78125 -1.421875 
Q 19.53125 -1.421875 13.0625 8.265625 
Q 6.59375 17.96875 6.59375 36.375 
Q 6.59375 54.828125 13.0625 64.515625 
Q 19.53125 74.21875 31.78125 74.21875 
z
" id="DejaVuSans-48"/>
      </defs>
      <g transform="translate(232.97875 322.182437)scale(0.1 -0.1)">
       <use xlink:href="#DejaVuSans-48"/>
      </g>
     </g>
    </g>
    <g id="xtick_4">
     <g id="line2d_4">
      <g>
       <use style="stroke:#000000;stroke-width:0.8;" x="300.176598" xlink:href="#me36e64ab3b" y="307.584"/>
      </g>
     </g>
     <g id="text_4">
      <!-- 1 -->
      <g transform="translate(296.995348 322.182437)scale(0.1 -0.1)">
       <use xlink:href="#DejaVuSans-49"/>
      </g>
     </g>
    </g>
    <g id="xtick_5">
     <g id="line2d_5">
      <g>
       <use style="stroke:#000000;stroke-width:0.8;" x="364.193196" xlink:href="#me36e64ab3b" y="307.584"/>
      </g>
     </g>
     <g id="text_5">
      <!-- 2 -->
      <g transform="translate(361.011946 322.182437)scale(0.1 -0.1)">
       <use xlink:href="#DejaVuSans-50"/>
      </g>
     </g>
    </g>
   </g>
   <g id="matplotlib.axis_2">
    <g id="ytick_1">
     <g id="line2d_6">
      <defs>
       <path d="M 0 0 
L -3.5 0 
" id="m685d212b5d" style="stroke:#000000;stroke-width:0.8;"/>
      </defs>
      <g>
       <use style="stroke:#000000;stroke-width:0.8;" x="82.520165" xlink:href="#m685d212b5d" y="302.561196"/>
      </g>
     </g>
     <g id="text_6">
      <!-- −2.0 -->
      <defs>
       <path d="M 10.6875 12.40625 
L 21 12.40625 
L 21 0 
L 10.6875 0 
z
" id="DejaVuSans-46"/>
      </defs>
      <g transform="translate(51.237353 306.360414)scale(0.1 -0.1)">
       <use xlink:href="#DejaVuSans-8722"/>
       <use x="83.789062" xlink:href="#DejaVuSans-50"/>
       <use x="147.412109" xlink:href="#DejaVuSans-46"/>
       <use x="179.199219" xlink:href="#DejaVuSans-48"/>
      </g>
     </g>
    </g>
    <g id="ytick_2">
     <g id="line2d_7">
      <g>
       <use style="stroke:#000000;stroke-width:0.8;" x="82.520165" xlink:href="#m685d212b5d" y="270.552897"/>
      </g>
     </g>
     <g id="text_7">
      <!-- −1.5 -->
      <defs>
       <path d="M 10.796875 72.90625 
L 49.515625 72.90625 
L 49.515625 64.59375 
L 19.828125 64.59375 
L 19.828125 46.734375 
Q 21.96875 47.46875 24.109375 47.828125 
Q 26.265625 48.1875 28.421875 48.1875 
Q 40.625 48.1875 47.75 41.5 
Q 54.890625 34.8125 54.890625 23.390625 
Q 54.890625 11.625 47.5625 5.09375 
Q 40.234375 -1.421875 26.90625 -1.421875 
Q 22.3125 -1.421875 17.546875 -0.640625 
Q 12.796875 0.140625 7.71875 1.703125 
L 7.71875 11.625 
Q 12.109375 9.234375 16.796875 8.0625 
Q 21.484375 6.890625 26.703125 6.890625 
Q 35.15625 6.890625 40.078125 11.328125 
Q 45.015625 15.765625 45.015625 23.390625 
Q 45.015625 31 40.078125 35.4375 
Q 35.15625 39.890625 26.703125 39.890625 
Q 22.75 39.890625 18.8125 39.015625 
Q 14.890625 38.140625 10.796875 36.28125 
z
" id="DejaVuSans-53"/>
      </defs>
      <g transform="translate(51.237353 274.352116)scale(0.1 -0.1)">
       <use xlink:href="#DejaVuSans-8722"/>
       <use x="83.789062" xlink:href="#DejaVuSans-49"/>
       <use x="147.412109" xlink:href="#DejaVuSans-46"/>
       <use x="179.199219" xlink:href="#DejaVuSans-53"/>
      </g>
     </g>
    </g>
    <g id="ytick_3">
     <g id="line2d_8">
      <g>
       <use style="stroke:#000000;stroke-width:0.8;" x="82.520165" xlink:href="#m685d212b5d" y="238.544598"/>
      </g>
     </g>
     <g id="text_8">
      <!-- −1.0 -->
      <g transform="translate(51.237353 242.343817)scale(0.1 -0.1)">
       <use xlink:href="#DejaVuSans-8722"/>
       <use x="83.789062" xlink:href="#DejaVuSans-49"/>
       <use x="147.412109" xlink:href="#DejaVuSans-46"/>
       <use x="179.199219" xlink:href="#DejaVuSans-48"/>
      </g>
     </g>
    </g>
    <g id="ytick_4">
     <g id="line2d_9">
      <g>
       <use style="stroke:#000000;stroke-width:0.8;" x="82.520165" xlink:href="#m685d212b5d" y="206.536299"/>
      </g>
     </g>
     <g id="text_9">
      <!-- −0.5 -->
      <g transform="translate(51.237353 210.335518)scale(0.1 -0.1)">
       <use xlink:href="#DejaVuSans-8722"/>
       <use x="83.789062" xlink:href="#DejaVuSans-48"/>
       <use x="147.412109" xlink:href="#DejaVuSans-46"/>
       <use x="179.199219" xlink:href="#DejaVuSans-53"/>
      </g>
     </g>
    </g>
    <g id="ytick_5">
     <g id="line2d_10">
      <g>
       <use style="stroke:#000000;stroke-width:0.8;" x="82.520165" xlink:href="#m685d212b5d" y="174.528"/>
      </g>
     </g>
     <g id="text_10">
      <!-- 0.0 -->
      <g transform="translate(59.61704 178.327219)scale(0.1 -0.1)">
       <use xlink:href="#DejaVuSans-48"/>
       <use x="63.623047" xlink:href="#DejaVuSans-46"/>
       <use x="95.410156" xlink:href="#DejaVuSans-48"/>
      </g>
     </g>
    </g>
    <g id="ytick_6">
     <g id="line2d_11">
      <g>
       <use style="stroke:#000000;stroke-width:0.8;" x="82.520165" xlink:href="#m685d212b5d" y="142.519701"/>
      </g>
     </g>
     <g id="text_11">
      <!-- 0.5 -->
      <g transform="translate(59.61704 146.31892)scale(0.1 -0.1)">
       <use xlink:href="#DejaVuSans-48"/>
       <use x="63.623047" xlink:href="#DejaVuSans-46"/>
       <use x="95.410156" xlink:href="#DejaVuSans-53"/>
      </g>
     </g>
    </g>
    <g id="ytick_7">
     <g id="line2d_12">
      <g>
       <use style="stroke:#000000;stroke-width:0.8;" x="82.520165" xlink:href="#m685d212b5d" y="110.511402"/>
      </g>
     </g>
     <g id="text_12">
      <!-- 1.0 -->
      <g transform="translate(59.61704 114.310621)scale(0.1 -0.1)">
       <use xlink:href="#DejaVuSans-49"/>
       <use x="63.623047" xlink:href="#DejaVuSans-46"/>
       <use x="95.410156" xlink:href="#DejaVuSans-48"/>
      </g>
     </g>
    </g>
    <g id="ytick_8">
     <g id="line2d_13">
      <g>
       <use style="stroke:#000000;stroke-width:0.8;" x="82.520165" xlink:href="#m685d212b5d" y="78.503103"/>
      </g>
     </g>
     <g id="text_13">
      <!-- 1.5 -->
      <g transform="translate(59.61704 82.302322)scale(0.1 -0.1)">
       <use xlink:href="#DejaVuSans-49"/>
       <use x="63.623047" xlink:href="#DejaVuSans-46"/>
       <use x="95.410156" xlink:href="#DejaVuSans-53"/>
      </g>
     </g>
    </g>
    <g id="ytick_9">
     <g id="line2d_14">
      <g>
       <use style="stroke:#000000;stroke-width:0.8;" x="82.520165" xlink:href="#m685d212b5d" y="46.494804"/>
      </g>
     </g>
     <g id="text_14">
      <!-- 2.0 -->
      <g transform="translate(59.61704 50.294023)scale(0.1 -0.1)">
       <use xlink:href="#DejaVuSans-50"/>
       <use x="63.623047" xlink:href="#DejaVuSans-46"/>
       <use x="95.410156" xlink:href="#DejaVuSans-48"/>
      </g>
     </g>
    </g>
   </g>
   <g id="line2d_15">
    <path clip-path="url(#pd74808a55c)" d="M 300.176598 63.648 
L 172.143402 63.648 
" style="fill:none;stroke:#009900;stroke-linecap:square;stroke-width:2;"/>
   </g>
   <g id="line2d_16">
    <path clip-path="url(#pd74808a55c)" d="M 172.143402 63.648 
L 108.126804 174.528 
" style="fill:none;stroke:#009900;stroke-linecap:square;stroke-width:2;"/>
   </g>
   <g id="line2d_17">
    <path clip-path="url(#pd74808a55c)" d="M 108.126804 174.528 
L 172.143402 285.408 
" style="fill:none;stroke:#009900;stroke-linecap:square;stroke-width:2;"/>
   </g>
   <g id="line2d_18">
    <path clip-path="url(#pd74808a55c)" d="M 172.143402 285.408 
L 300.176598 285.408 
" style="fill:none;stroke:#009900;stroke-linecap:square;stroke-width:2;"/>
   </g>
   <g id="line2d_19">
    <path clip-path="url(#pd74808a55c)" d="M 300.176598 285.408 
L 364.193196 174.528 
" style="fill:none;stroke:#009900;stroke-linecap:square;stroke-width:2;"/>
   </g>
   <g id="line2d_20">
    <path clip-path="url(#pd74808a55c)" d="M 364.193196 174.528 
L 300.176598 63.648 
" style="fill:none;stroke:#009900;stroke-linecap:square;stroke-width:2;"/>
   </g>
   <g id="line2d_21">
    <path clip-path="url(#pd74808a55c)" d="M 279.642894 119.850372 
L 284.56837 121.251867 
L 289.545951 122.455274 
L 294.567674 123.458669 
L 299.625505 124.260445 
L 304.711353 124.859321 
L 309.817081 125.254338 
L 314.934522 125.444865 
L 320.055489 125.430596 
L 325.171788 125.211554 
L 330.275236 124.78809 
L 335.132313 124.193075 
L 332.055192 128.286463 
L 329.144224 132.499629 
L 326.404066 136.825833 
L 323.839102 141.258153 
L 321.453435 145.789499 
L 319.250883 150.412621 
L 317.234967 155.120125 
L 315.408914 159.904477 
L 313.775644 164.758026 
L 312.337772 169.673005 
L 311.097596 174.641553 
L 310.057101 179.65572 
L 309.217951 184.707485 
L 308.58149 189.788766 
L 308.148734 194.891435 
L 307.920377 200.007327 
L 307.896784 205.128259 
L 308.077993 210.246039 
L 308.463713 215.352478 
L 309.053327 220.439408 
L 309.845893 225.49869 
L 310.840143 230.522232 
L 312.034485 235.501996 
L 313.427009 240.430016 
L 315.015488 245.298407 
L 316.797379 250.099383 
L 318.3668 253.901646 
L 313.293153 254.596344 
L 308.251344 255.493379 
L 303.249441 256.591315 
L 298.295444 257.888395 
L 293.397279 259.382544 
L 288.562783 261.071373 
L 283.799688 262.95218 
L 279.115616 265.021954 
L 274.518059 267.277387 
L 270.014373 269.714868 
L 265.611763 272.330499 
L 261.317272 275.120095 
L 257.13777 278.079194 
L 253.079943 281.203061 
L 249.150284 284.486699 
L 248.103075 285.408 
L 244.20942 282.081748 
L 240.185865 278.913861 
L 236.038847 275.909407 
L 231.775 273.073193 
L 227.401145 270.409756 
L 222.92428 267.923357 
L 218.351566 265.617973 
L 213.69032 263.497294 
L 208.947997 261.564711 
L 204.132185 259.823316 
L 199.250588 258.275895 
L 194.311015 256.924924 
L 189.321369 255.772564 
L 184.289632 254.820658 
L 179.223854 254.070729 
L 174.132139 253.523977 
L 169.022632 253.181277 
L 163.903508 253.043177 
L 158.782956 253.109898 
L 153.653461 253.382483 
L 156.445952 249.089873 
L 159.064551 244.689028 
L 161.505069 240.186986 
L 163.763601 235.590952 
L 165.836533 230.908276 
L 167.720551 226.146451 
L 169.412639 221.313094 
L 170.910091 216.415938 
L 172.210512 211.462816 
L 173.31182 206.461654 
L 174.212254 201.420452 
L 174.910373 196.347275 
L 175.405061 191.250238 
L 175.695527 186.137495 
L 175.781304 181.017227 
L 175.662257 175.897625 
L 175.338576 170.786878 
L 174.810778 165.693163 
L 174.079708 160.624629 
L 173.146536 155.589384 
L 172.012754 150.595484 
L 170.680176 145.650917 
L 169.150934 140.763595 
L 167.427475 135.941335 
L 165.512555 131.191853 
L 163.409239 126.522746 
L 161.12089 121.941483 
L 158.65117 117.455395 
L 156.00403 113.071658 
L 153.183705 108.797285 
L 150.194706 104.639114 
L 149.218933 103.354346 
L 154.30769 103.927975 
L 159.415316 104.29765 
L 164.533639 104.462778 
L 169.654472 104.423096 
L 174.769622 104.178667 
L 179.870905 103.729881 
L 184.950162 103.077458 
L 189.999265 102.222441 
L 195.010139 101.166198 
L 199.974765 99.910418 
L 204.885203 98.45711 
L 209.733596 96.808599 
L 214.512188 94.967523 
L 219.213334 92.936828 
L 223.829514 90.71976 
L 228.353342 88.319869 
L 232.777582 85.740992 
L 237.095155 82.987255 
L 241.299154 80.063064 
L 245.382854 76.973097 
L 249.339722 73.722298 
L 253.163428 70.315866 
L 256.847854 66.759251 
L 259.841787 63.648 
L 263.404191 67.326829 
L 267.11086 70.860256 
L 270.955862 74.242631 
L 274.933048 77.46854 
L 279.036055 80.532824 
L 283.258319 83.430581 
L 287.593084 86.157174 
L 292.033417 88.708242 
L 296.572213 91.079703 
L 301.202213 93.267764 
L 305.916007 95.268924 
L 310.706056 97.079982 
L 315.564697 98.69804 
L 320.484156 100.12051 
L 321.368723 100.353838 
L 320.105398 105.31655 
L 319.041538 110.325812 
L 318.178846 115.37361 
L 317.518702 120.451869 
L 317.062163 125.552464 
L 316.809958 130.667236 
L 316.762491 135.788003 
L 316.919838 140.906571 
L 317.281748 146.014753 
L 317.847641 151.104377 
L 318.616612 156.167299 
L 319.58743 161.195422 
L 320.758544 166.180699 
L 322.128078 171.115158 
L 323.693843 175.990902 
L 325.453333 180.800132 
L 327.403733 185.535155 
L 329.541924 190.188395 
L 331.864485 194.752408 
L 334.367699 199.219892 
L 337.047563 203.583702 
L 339.89979 207.836854 
L 342.723692 211.714272 
L 337.630694 211.179597 
L 332.520389 210.849016 
L 327.400952 210.723057 
L 322.280573 210.801922 
L 317.167443 211.085484 
L 312.069743 211.57329 
L 306.995627 212.26456 
L 301.953214 213.158187 
L 296.95057 214.252742 
L 291.995697 215.546474 
L 287.096524 217.037313 
L 282.260887 218.722874 
L 277.496522 220.600461 
L 272.811052 222.66707 
L 268.211972 224.919394 
L 263.70664 227.353831 
L 259.302263 229.966486 
L 255.005888 232.75318 
L 250.824387 235.709453 
L 246.76445 238.830577 
L 242.832573 242.111559 
L 239.035045 245.547149 
L 235.377941 249.131852 
L 231.867113 252.859933 
L 228.508176 256.725427 
L 225.306505 260.722151 
L 222.267221 264.843711 
L 219.395186 269.083513 
L 216.694996 273.434774 
L 214.17097 277.890534 
L 211.827145 282.443663 
L 210.422223 285.408 
L 208.195817 280.796317 
L 205.786773 276.277356 
L 203.198946 271.858346 
L 200.436476 267.546356 
L 197.503782 263.348284 
L 194.405555 259.270847 
L 191.146753 255.320567 
L 187.732588 251.503764 
L 184.168523 247.826545 
L 180.46026 244.294791 
L 176.61373 240.914154 
L 172.635087 237.690041 
L 168.530697 234.62761 
L 164.307125 231.731761 
L 159.971129 229.007125 
L 155.529644 226.458063 
L 150.989777 224.088652 
L 146.358791 221.902682 
L 141.644093 219.903651 
L 136.853226 218.094757 
L 132.424908 216.61355 
L 133.437515 211.593677 
L 134.24857 206.537325 
L 134.856776 201.452585 
L 135.261161 196.34759 
L 135.461076 191.230507 
L 135.456203 186.109523 
L 135.246549 180.99283 
L 134.83245 175.888614 
L 134.214567 170.80504 
L 133.393891 165.750241 
L 132.371732 160.732304 
L 131.149727 155.759256 
L 129.729831 150.839053 
L 128.114315 145.979566 
L 126.740367 142.288364 
L 131.785892 141.412479 
L 136.792356 140.335527 
L 141.751748 139.059231 
L 146.656135 137.585634 
L 151.497671 135.917092 
L 156.26861 134.056275 
L 160.96132 132.00616 
L 165.568294 129.770026 
L 170.082161 127.351451 
L 174.4957 124.754304 
L 178.801851 121.98274 
L 182.993725 119.041193 
L 187.064615 115.934369 
L 191.008008 112.667237 
L 194.817597 109.245025 
L 198.487287 105.673208 
L 202.011207 101.957499 
L 205.383719 98.103844 
L 208.599429 94.118406 
L 211.653191 90.007562 
L 214.540121 85.777888 
L 217.255599 81.436152 
L 219.795283 76.989298 
L 222.155108 72.444441 
L 224.3313 67.808851 
L 226.096666 63.648 
L 228.107881 68.357514 
L 230.305816 72.982833 
L 232.686957 77.516559 
L 235.247495 81.951438 
L 237.983331 86.280375 
L 240.890091 90.496446 
L 243.963124 94.592904 
L 247.197513 98.563197 
L 250.588084 102.400974 
L 254.129413 106.100094 
L 257.815835 109.654639 
L 261.641453 113.058924 
L 265.600145 116.307502 
L 269.685579 119.395176 
L 273.891219 122.317006 
L 278.210337 125.068319 
L 282.636024 127.644712 
L 287.161199 130.042064 
L 291.778622 132.256539 
L 296.480908 134.284596 
L 301.260532 136.122989 
L 306.10985 137.768777 
L 311.021103 139.219328 
L 315.986434 140.472321 
L 320.997899 141.525752 
L 326.047482 142.377934 
L 331.127104 143.027506 
L 336.228638 143.473427 
L 341.343925 143.714985 
L 346.424836 143.752298 
L 343.897674 148.20628 
L 341.550646 152.757759 
L 339.387506 157.399453 
L 337.411715 162.123937 
L 335.626433 166.923653 
L 334.034516 171.790922 
L 332.638511 176.717956 
L 331.440652 181.696876 
L 330.442855 186.719714 
L 329.646716 191.778435 
L 329.053509 196.864948 
L 328.664182 201.971113 
L 328.479359 207.088763 
L 328.499335 212.209711 
L 328.724079 217.325763 
L 329.15323 222.428736 
L 329.786103 227.510465 
L 330.637567 232.648053 
L 325.843088 234.447351 
L 321.124397 236.436937 
L 316.489042 238.613629 
L 311.944439 240.973945 
L 307.49786 243.514108 
L 303.156416 246.230055 
L 298.927054 249.117442 
L 294.81654 252.171648 
L 290.831449 255.387787 
L 286.978157 258.760716 
L 283.262829 262.285036 
L 279.691408 265.955112 
L 276.269607 269.76507 
L 273.002901 273.708816 
L 269.896516 277.780041 
L 266.955422 281.972232 
L 264.725089 285.408 
L 261.919604 281.123871 
L 258.945044 276.955359 
L 255.806168 272.909132 
L 252.507996 268.991663 
L 249.055805 265.209219 
L 245.455119 261.567851 
L 241.711696 258.073386 
L 237.831527 254.731412 
L 233.820818 251.547277 
L 229.685985 248.526075 
L 225.433645 245.672638 
L 221.070598 242.991532 
L 216.603826 240.487046 
L 212.040475 238.163187 
L 207.387843 236.023672 
L 202.653376 234.071924 
L 197.844647 232.311065 
L 192.969348 230.743913 
L 188.03528 229.372974 
L 183.050336 228.200442 
L 178.02249 227.228192 
L 172.959786 226.45778 
L 167.870324 225.890439 
L 162.762245 225.527076 
L 157.643722 225.368272 
L 152.522942 225.414281 
L 147.408098 225.66503 
L 142.307373 226.120118 
L 138.210971 226.635304 
L 141.289011 222.542607 
L 144.200924 218.330095 
L 146.942053 214.004506 
L 149.508012 209.572762 
L 151.894696 205.041952 
L 154.098287 200.419324 
L 156.115259 195.712274 
L 157.942386 190.928331 
L 159.576745 186.075149 
L 161.015722 181.160493 
L 162.257013 176.192223 
L 163.298633 171.17829 
L 164.138917 166.126713 
L 164.776519 161.045575 
L 165.21042 155.943004 
L 165.439925 150.827163 
L 165.464668 145.706237 
L 165.284609 140.588417 
L 164.900035 135.481891 
L 164.311562 130.394829 
L 163.520132 125.335368 
L 162.527011 120.311604 
L 161.333787 115.331572 
L 159.942369 110.403239 
L 158.354983 105.534491 
L 156.574169 100.733116 
L 154.602776 96.006795 
L 154.104869 94.891656 
L 159.189705 94.284246 
L 164.246183 93.473982 
L 169.266215 92.462161 
L 174.24177 91.250402 
L 179.164887 89.840643 
L 184.02769 88.23514 
L 188.822401 86.43646 
L 193.541349 84.447482 
L 198.176984 82.271388 
L 202.721891 79.911658 
L 207.168798 77.372068 
L 211.510592 74.65668 
L 215.740326 71.769839 
L 219.851234 68.716163 
L 223.836739 65.500537 
L 225.992071 63.648 
L 229.905219 66.951298 
L 233.947333 70.09547 
L 238.111947 73.075485 
L 242.392399 75.886577 
L 246.78184 78.524247 
L 251.273249 80.984277 
L 255.859441 83.26273 
L 260.533077 85.355963 
L 265.286683 87.260625 
L 270.112652 88.97367 
L 275.003264 90.492358 
L 279.950696 91.814259 
L 284.947032 92.937257 
L 289.98428 93.859558 
L 295.05438 94.579684 
L 300.149223 95.096484 
L 305.260656 95.409132 
L 310.380504 95.517127 
L 315.500575 95.420296 
L 318.434912 95.272327 
L 315.691079 99.596201 
L 313.122351 104.026341 
L 310.732835 108.555658 
L 308.526355 113.176908 
L 306.506441 117.882696 
L 304.676324 122.665496 
L 303.038931 127.517655 
L 301.596883 132.431411 
L 300.352487 137.398904 
L 299.307732 142.412185 
L 298.464291 147.463235 
L 297.823513 152.543974 
L 297.386423 157.646273 
L 297.153719 162.761969 
L 297.125776 167.88288 
L 297.302636 173.000811 
L 297.684018 178.107576 
L 298.26931 183.195005 
L 299.057578 188.254959 
L 300.047559 193.279344 
L 301.23767 198.260121 
L 302.626007 203.189322 
L 304.210348 208.059061 
L 305.988161 212.861548 
L 307.956599 217.589101 
L 310.112515 222.234155 
L 312.452458 226.78928 
L 314.972687 231.247189 
L 317.669168 235.60075 
L 320.537589 239.842998 
L 323.875831 244.359723 
L 318.788562 243.773047 
L 313.681901 243.390276 
L 308.564017 243.212024 
L 303.4431 243.238575 
L 298.32734 243.469886 
L 293.224923 243.905589 
L 288.14401 244.544985 
L 283.09273 245.387052 
L 278.079165 246.430443 
L 273.111335 247.673489 
L 268.197186 249.1142 
L 263.344582 250.750273 
L 258.561285 252.579089 
L 253.854947 254.597723 
L 249.233097 256.802946 
L 244.70313 259.19123 
L 240.272292 261.758753 
L 235.947672 264.501409 
L 231.736188 267.41481 
L 227.644578 270.494295 
L 223.679387 273.734938 
L 219.846959 277.131553 
L 216.153425 280.678708 
L 212.604694 284.370728 
L 211.657333 285.408 
L 208.149324 281.677266 
L 204.494931 278.0898 
L 200.700001 274.65134 
L 196.770605 271.367387 
L 192.713029 268.243194 
L 188.533764 265.283761 
L 184.239496 262.493821 
L 179.837095 259.877837 
L 175.333605 257.439995 
L 170.736229 255.184194 
L 166.052322 253.114044 
L 161.289379 251.232856 
L 156.455017 249.54364 
L 151.556972 248.049098 
L 150.386116 247.723275 
L 151.588133 242.745358 
L 152.590125 237.723355 
L 153.390489 232.6653 
L 153.987945 227.579285 
L 154.381537 222.473447 
L 154.570634 217.355953 
L 154.554935 212.23499 
L 154.334465 207.118752 
L 153.909576 202.015423 
L 153.280948 196.933166 
L 152.449587 191.880114 
L 151.416823 186.864349 
L 150.184308 181.893895 
L 148.754013 176.976705 
L 147.128228 172.120644 
L 145.309552 167.333482 
L 143.300896 162.622877 
L 141.105472 157.996365 
L 138.726793 153.461347 
L 136.168665 149.025078 
L 133.43518 144.694655 
L 130.53071 140.477007 
L 128.994473 138.384138 
L 134.090006 138.894082 
L 139.201856 139.199851 
L 144.321844 139.300956 
L 149.44178 139.197235 
L 154.553472 138.888855 
L 159.648745 138.376308 
L 164.719444 137.660414 
L 169.75746 136.742319 
L 174.754732 135.623491 
L 179.703266 134.305721 
L 184.595144 132.791116 
L 189.422542 131.0821 
L 194.177735 129.181407 
L 198.853118 127.092077 
L 203.441209 124.817452 
L 207.93467 122.361173 
L 212.326312 119.727167 
L 216.609109 116.91965 
L 220.776209 113.943112 
L 224.820947 110.802316 
L 228.73685 107.502285 
L 232.517655 104.0483 
L 236.157314 100.445886 
L 239.650003 96.700806 
L 242.990135 92.819051 
L 246.172366 88.806831 
L 249.191606 84.670566 
L 252.043024 80.416872 
L 254.722059 76.052554 
L 257.224426 71.584594 
L 259.546119 67.02014 
L 261.117259 63.648 
L 263.30536 68.27798 
L 265.676861 72.816756 
L 268.227967 77.257067 
L 270.954597 81.591809 
L 273.85239 85.814048 
L 276.91671 89.917028 
L 280.142653 93.894186 
L 283.525061 97.73916 
L 287.05852 101.445798 
L 290.73738 105.00817 
L 294.555753 108.420578 
L 298.507532 111.677561 
L 302.586395 114.773911 
L 306.785816 117.704673 
L 311.099077 120.465158 
L 315.519278 123.050951 
L 320.039348 125.457915 
L 324.652054 127.682199 
L 329.350019 129.720244 
L 334.125726 131.568791 
L 338.971535 133.224882 
L 340.649023 133.748297 
L 339.591467 138.758894 
L 338.735128 143.807773 
L 338.081374 148.886859 
L 337.631253 153.988024 
L 337.385484 159.10311 
L 337.344461 164.223932 
L 337.508249 169.342299 
L 337.876585 174.450021 
L 338.448882 179.538929 
L 339.224223 184.60088 
L 340.201367 189.627776 
L 341.378753 194.611577 
L 342.754495 199.544308 
L 344.326393 204.418078 
L 345.324838 207.208955 
L 340.294522 208.168344 
L 335.306596 209.328125 
L 330.369038 210.686441 
L 325.489748 212.241121 
L 320.676531 213.989677 
L 315.937088 215.929312 
L 311.279001 218.056922 
L 306.709721 220.369104 
L 302.236559 222.862159 
L 297.866671 225.532099 
L 293.607047 228.374652 
L 289.464503 231.385271 
L 285.445664 234.559139 
L 281.556961 237.891179 
L 277.804615 241.376061 
L 274.194628 245.008208 
L 270.732776 248.781812 
L 267.424597 252.690834 
L 264.275384 256.729021 
L 261.290173 260.889913 
L 258.473742 265.166853 
L 255.830596 269.553 
L 253.364963 274.041335 
L 251.080788 278.62468 
L 248.981725 283.295701 
L 248.10503 285.408 
L 246.089736 280.700231 
L 243.887792 276.076818 
L 241.502723 271.545158 
L 238.938343 267.112499 
L 236.198756 262.785935 
L 233.288343 258.572385 
L 230.211762 254.478591 
L 226.973933 250.511102 
L 223.580037 246.676266 
L 220.035503 242.980216 
L 216.346002 239.428867 
L 212.517436 236.027898 
L 208.55593 232.782753 
L 204.467822 229.69862 
L 200.259651 226.780436 
L 195.93815 224.032868 
L 191.510233 221.460311 
L 186.982982 219.066882 
L 182.363641 216.856409 
L 177.6596 214.832428 
L 172.878384 212.998178 
L 168.027641 211.356593 
L 163.115133 209.910298 
L 158.148719 208.661609 
L 153.136342 207.612522 
L 148.086023 206.764716 
L 143.00584 206.119546 
L 137.903921 205.678046 
L 132.788427 205.440922 
L 127.667543 205.408552 
L 125.975522 205.442885 
L 128.566542 201.025747 
L 130.978852 196.508528 
L 133.208592 191.898456 
L 135.252195 187.202906 
L 137.106391 182.42939 
L 138.768214 177.585544 
L 140.235005 172.679117 
L 141.504419 167.717958 
L 142.574423 162.710006 
L 143.443308 157.66327 
L 144.109681 152.585825 
L 144.572478 147.485793 
L 144.830958 142.371334 
L 144.884707 137.25063 
L 144.73364 132.131872 
L 144.377997 127.02325 
L 143.818349 121.932936 
L 143.055591 116.869074 
L 142.665955 114.704436 
L 147.46421 112.915234 
L 152.187079 110.935583 
L 156.827004 108.768652 
L 161.376565 106.417906 
L 165.828481 103.887107 
L 170.175631 101.180303 
L 174.411061 98.301825 
L 178.527994 95.256277 
L 182.519845 92.048532 
L 186.380227 88.683721 
L 190.102964 85.167227 
L 193.682102 81.504677 
L 197.111914 77.701929 
L 200.386913 73.765067 
L 203.501859 69.700388 
L 206.451771 65.514397 
L 207.688324 63.648 
L 210.564589 67.884933 
L 213.607985 72.003458 
L 216.813643 75.996984 
L 220.176436 79.859124 
L 223.690983 83.583699 
L 227.351663 87.164751 
L 231.152618 90.596549 
L 235.087768 93.873605 
L 239.150818 96.990676 
L 243.335267 99.942774 
L 247.634422 102.725178 
L 252.041404 105.333436 
L 256.549163 107.763376 
L 261.150489 110.011109 
L 265.838019 112.07304 
L 270.604255 113.945871 
L 275.441572 115.626606 
L 280.342231 117.112554 
L 285.298392 118.40134 
L 290.302126 119.490902 
L 295.345429 120.379496 
L 300.420232 121.065701 
L 305.518417 121.548419 
L 310.631827 121.826878 
L 315.752282 121.900632 
L 320.871591 121.769564 
L 325.981563 121.433883 
L 331.074025 120.894126 
L 333.072722 120.625759 
L 329.99421 124.718101 
L 327.081811 128.930278 
L 324.340184 133.25555 
L 321.773714 137.686999 
L 319.386507 142.217534 
L 317.182384 146.839908 
L 315.164869 151.546726 
L 313.33719 156.330458 
L 311.702272 161.183451 
L 310.262729 166.097942 
L 309.020865 171.066068 
L 307.978666 176.079881 
L 307.1378 181.13136 
L 306.499612 186.212425 
L 306.065123 191.314946 
L 305.835028 196.430761 
L 305.809695 201.551684 
L 305.989165 206.669525 
L 306.37315 211.776095 
L 306.961036 216.863225 
L 307.751883 221.922777 
L 308.744425 226.946656 
L 309.937075 231.926825 
L 311.327925 236.855318 
L 312.914749 241.724249 
L 314.695009 246.525829 
L 316.665858 251.252378 
L 318.092757 254.376302 
L 312.998242 254.896315 
L 307.928596 255.619638 
L 302.891931 256.545115 
L 297.896304 257.671264 
L 292.949707 258.996284 
L 288.060053 260.518055 
L 283.235165 262.234143 
L 278.482762 264.141802 
L 273.810446 266.237981 
L 269.225692 268.519326 
L 264.735835 270.982188 
L 260.348058 273.622626 
L 256.06938 276.436416 
L 251.906645 279.419056 
L 247.866515 282.565776 
L 244.485061 285.408 
L 240.555884 282.123784 
L 236.498517 278.999321 
L 232.319449 276.039608 
L 228.025368 273.249381 
L 223.623142 270.633104 
L 219.119814 268.194961 
L 214.522589 265.938853 
L 209.838821 263.86839 
L 205.076003 261.986884 
L 200.241754 260.297345 
L 195.343809 258.802475 
L 190.390003 257.504667 
L 185.388261 256.405997 
L 180.346584 255.508222 
L 175.273039 254.812778 
L 170.175742 254.320778 
L 165.062847 254.033009 
L 159.942535 253.949931 
L 154.822996 254.071678 
L 154.071647 254.106802 
L 156.762496 249.749758 
L 159.276956 245.288593 
L 161.611007 240.730445 
L 163.760913 236.082607 
L 165.723236 231.352512 
L 167.494835 226.54773 
L 169.072878 221.675945 
L 170.454838 216.744953 
L 171.638506 211.762641 
L 172.621989 206.73698 
L 173.403711 201.676011 
L 173.982424 196.587829 
L 174.3572 191.480575 
L 174.527441 186.362419 
L 174.492874 181.241549 
L 174.253555 176.126158 
L 173.809866 171.024429 
L 173.162517 165.944523 
L 172.312544 160.894568 
L 171.261307 155.882642 
L 170.010487 150.916763 
L 168.562085 146.004876 
L 166.918419 141.154839 
L 165.082117 136.37441 
L 163.056118 131.671238 
L 160.843664 127.052846 
L 158.448292 122.526622 
L 155.873836 118.099809 
L 153.124414 113.779487 
L 150.204424 109.572569 
L 147.618877 106.125723 
L 152.704968 106.72253 
L 157.810857 107.115469 
L 162.928375 107.303913 
L 168.049335 107.28756 
L 173.165546 107.066437 
L 178.268821 106.640896 
L 183.350997 106.011619 
L 188.403943 105.179613 
L 193.419576 104.146208 
L 198.389872 102.913058 
L 203.30688 101.482136 
L 208.162733 99.855731 
L 212.949663 98.036444 
L 217.660011 96.027186 
L 222.286243 93.831171 
L 226.820958 91.451914 
L 231.2569 88.893219 
L 235.586973 86.15918 
L 239.804251 83.254172 
L 243.901985 80.182841 
L 247.873622 76.950102 
L 251.712806 73.561125 
L 255.413397 70.021332 
L 258.969473 66.336387 
L 261.392208 63.648 
L 264.842716 67.431979 
L 268.441782 71.074948 
L 272.18365 74.571079 
L 276.062332 77.914778 
L 280.071624 81.100697 
L 284.205112 84.123738 
L 288.456183 86.979066 
L 292.818036 89.662113 
L 297.283693 92.168586 
L 301.846011 94.494475 
L 306.49769 96.636059 
L 311.231289 98.589913 
L 316.039234 100.352911 
L 320.913835 101.922232 
L 322.550946 102.401508 
L 321.406116 107.392887 
L 320.461803 112.426054 
L 319.719518 117.492958 
L 319.18045 122.585493 
L 318.84546 127.695511 
L 318.715084 132.814837 
L 318.789531 137.935282 
L 319.068681 143.048655 
L 319.552088 148.146774 
L 320.238979 153.221484 
L 321.128255 158.264666 
L 322.218494 163.268253 
L 323.50795 168.22424 
L 324.994561 173.124698 
L 326.67595 177.961788 
L 328.549425 182.72777 
L 330.61199 187.415022 
L 332.860346 192.016043 
L 335.290895 196.523474 
L 337.899748 200.930104 
L 340.682734 205.228882 
L 343.869412 209.729826 
L 338.771041 209.249079 
L 333.657524 208.972598 
L 328.537041 208.900824 
L 323.417783 209.033872 
L 318.30794 209.37153 
L 313.215688 209.913256 
L 308.149172 210.658185 
L 303.116498 211.605125 
L 298.125717 212.75256 
L 293.184814 214.098656 
L 288.301692 215.641258 
L 283.484164 217.3779 
L 278.739936 219.305801 
L 274.076599 221.42188 
L 269.501612 223.722749 
L 265.022295 226.204729 
L 260.645814 228.863848 
L 256.37917 231.695853 
L 252.229189 234.696212 
L 248.20251 237.860127 
L 244.305574 241.182535 
L 240.544617 244.658122 
L 236.925654 248.281326 
L 233.454476 252.046352 
L 230.136635 255.947177 
L 226.977439 259.97756 
L 223.981943 264.131053 
L 221.154938 268.401012 
L 218.500948 272.780605 
L 216.024217 277.262826 
L 213.728708 281.840504 
L 212.094789 285.408 
L 209.940635 280.762128 
L 207.602419 276.206116 
L 205.083882 271.747252 
L 202.389052 267.392669 
L 199.522241 263.149333 
L 196.488034 259.024034 
L 193.291287 255.023371 
L 189.937113 251.153743 
L 186.430878 247.421342 
L 182.778191 243.832138 
L 178.984897 240.391874 
L 175.057063 237.106053 
L 171.000972 233.979932 
L 166.823115 231.018511 
L 162.530174 228.22653 
L 158.129018 225.608453 
L 153.626687 223.16847 
L 149.030384 220.910484 
L 144.347463 218.838107 
L 139.585414 216.954654 
L 134.751856 215.26314 
L 130.966429 214.08739 
L 132.073617 209.087526 
L 132.979979 204.047386 
L 133.684064 198.975033 
L 134.184745 193.878582 
L 134.481223 188.766185 
L 134.573022 183.646021 
L 134.459995 178.526282 
L 134.142324 173.415158 
L 133.620517 168.320826 
L 132.895408 163.251436 
L 131.968158 158.215097 
L 130.840249 153.219867 
L 129.513487 148.273737 
L 127.989993 143.384619 
L 127.288265 141.339377 
L 132.302401 140.298732 
L 137.270911 139.058407 
L 142.185847 137.620387 
L 147.039347 135.986972 
L 151.823645 134.160775 
L 156.531088 132.144718 
L 161.154144 129.942027 
L 165.685419 127.556224 
L 170.117662 124.991127 
L 174.443783 122.250839 
L 178.656862 119.339745 
L 182.750158 116.262501 
L 186.717122 113.02403 
L 190.55141 109.629514 
L 194.246885 106.084382 
L 197.797638 102.394306 
L 201.197986 98.56519 
L 204.442491 94.603159 
L 207.525962 90.514551 
L 210.443465 86.305908 
L 213.190334 81.983962 
L 215.762174 77.555629 
L 218.15487 73.027991 
L 220.364596 68.408292 
L 222.410537 63.648 
L 224.431538 68.353322 
L 226.639085 72.974062 
L 229.029647 77.502827 
L 231.599398 81.932373 
L 234.344229 86.255614 
L 237.259748 90.465632 
L 240.341291 94.555692 
L 243.583927 98.519253 
L 246.98247 102.349972 
L 250.531482 106.041721 
L 254.225286 109.588595 
L 258.057973 112.984919 
L 262.02341 116.22526 
L 266.115255 119.304433 
L 270.326961 122.217513 
L 274.651789 124.95984 
L 279.082823 127.527027 
L 283.612972 129.914965 
L 288.234989 132.119836 
L 292.941481 134.138112 
L 297.724918 135.966564 
L 302.577646 137.602267 
L 307.491904 139.042605 
L 312.459829 140.285272 
L 317.473474 141.328281 
L 322.524818 142.169964 
L 327.605779 142.808973 
L 332.70823 143.244287 
L 337.824007 143.47521 
L 342.944927 143.501371 
L 346.227424 143.410371 
L 343.576385 147.791751 
L 341.102676 152.275641 
L 338.810252 156.854865 
L 336.702783 161.522099 
L 334.783639 166.269876 
L 333.05589 171.090601 
L 331.522301 175.976561 
L 330.185325 180.91994 
L 329.047101 185.91283 
L 328.10945 190.947243 
L 327.373872 196.015125 
L 326.841543 201.108368 
L 326.513315 206.218825 
L 326.389714 211.338319 
L 326.470937 216.458662 
L 326.756853 221.57166 
L 327.247007 226.669135 
L 327.940613 231.742932 
L 328.688103 236.024625 
L 323.884274 237.798809 
L 319.155236 239.763676 
L 314.508554 241.916082 
L 309.951663 244.252584 
L 305.491851 246.769445 
L 301.136255 249.462637 
L 296.891842 252.327852 
L 292.765401 255.360506 
L 288.763536 258.555748 
L 284.892647 261.908467 
L 281.158927 265.413297 
L 277.56835 269.064634 
L 274.126659 272.856634 
L 270.839361 276.783232 
L 267.711714 280.838146 
L 264.482569 285.408 
L 261.535084 281.220299 
L 258.422495 277.153816 
L 255.149778 273.215056 
L 251.722172 269.41032 
L 248.145158 265.745695 
L 244.424459 262.227044 
L 240.566029 258.859996 
L 236.576038 255.649937 
L 232.460871 252.602003 
L 228.227111 249.72107 
L 223.881531 247.011746 
L 219.431082 244.478367 
L 214.882886 242.124984 
L 210.244217 239.955363 
L 205.522497 237.972975 
L 200.72528 236.180991 
L 195.860239 234.582278 
L 190.935159 233.179394 
L 185.957918 231.974582 
L 180.936478 230.969771 
L 175.878873 230.166567 
L 170.793194 229.566257 
L 165.687578 229.169799 
L 160.570191 228.977828 
L 155.44922 228.990652 
L 150.332859 229.20825 
L 145.229292 229.630274 
L 140.289616 230.235623 
L 143.368244 226.143368 
L 146.280762 221.931274 
L 149.022512 217.60608 
L 151.589108 213.174704 
L 153.976443 208.644237 
L 156.180697 204.021925 
L 158.198346 199.315164 
L 160.02616 194.531484 
L 161.661216 189.678537 
L 163.100898 184.764087 
L 164.342903 179.795997 
L 165.385243 174.782213 
L 166.226252 169.730757 
L 166.864584 164.64971 
L 167.299218 159.547202 
L 167.529458 154.431394 
L 167.554937 149.310471 
L 167.375612 144.192625 
L 166.991772 139.086044 
L 166.40403 133.998897 
L 165.613326 128.939323 
L 164.620926 123.915416 
L 163.428417 118.935213 
L 162.037707 114.006681 
L 160.451021 109.137705 
L 158.670897 104.336074 
L 156.700183 99.60947 
L 154.321368 94.516669 
L 159.42401 94.083603 
L 164.505252 93.446832 
L 169.556966 92.607375 
L 174.57107 91.566575 
L 179.539542 90.326097 
L 184.454434 88.887925 
L 189.307883 87.25436 
L 194.092125 85.428015 
L 198.799505 83.411813 
L 203.422494 81.208979 
L 207.953694 78.823036 
L 212.385858 76.257803 
L 216.711895 73.517381 
L 220.924884 70.606157 
L 225.018085 67.528787 
L 228.984949 64.290193 
L 229.734333 63.648 
L 233.676116 66.917074 
L 237.745474 70.025904 
L 241.935898 72.969517 
L 246.240682 75.743202 
L 250.652941 78.342524 
L 255.165616 80.763323 
L 259.771488 83.001726 
L 264.463187 85.054154 
L 269.233209 86.917322 
L 274.073922 88.588249 
L 278.977582 90.064263 
L 283.936345 91.343003 
L 288.942277 92.422421 
L 293.98737 93.300793 
L 299.063553 93.976712 
L 304.162706 94.449097 
L 309.27667 94.717193 
L 314.397264 94.78057 
L 318.103691 94.698636 
L 315.470019 99.090478 
L 313.01408 103.584125 
L 310.739804 108.17239 
L 308.650829 112.847931 
L 306.750497 117.603269 
L 305.041847 122.430796 
L 303.527614 127.322789 
L 302.210219 132.271423 
L 301.091771 137.268779 
L 300.174058 142.306865 
L 299.45855 147.377619 
L 298.946389 152.47293 
L 298.638397 157.584646 
L 298.535064 162.70459 
L 298.636558 167.824571 
L 298.942715 172.936397 
L 299.453046 178.031892 
L 300.166734 183.102902 
L 301.082637 188.141317 
L 302.199291 193.139075 
L 303.514908 198.088182 
L 305.027385 202.980718 
L 306.734301 207.808859 
L 308.632926 212.564879 
L 310.720222 217.24117 
L 312.99285 221.83025 
L 315.447175 226.324779 
L 318.07927 230.717567 
L 320.884924 235.001584 
L 323.859649 239.169979 
L 325.573132 241.419913 
L 320.487944 240.815456 
L 315.382652 240.414836 
L 310.265424 240.218694 
L 305.144444 240.227343 
L 300.027907 240.440769 
L 294.923998 240.858632 
L 289.840881 241.480263 
L 284.786689 242.304667 
L 279.769507 243.330525 
L 274.797361 244.556197 
L 269.878206 245.97972 
L 265.019912 247.598819 
L 260.230251 249.410903 
L 255.516885 251.413072 
L 250.887355 253.602125 
L 246.349066 255.974558 
L 241.90928 258.526577 
L 237.575099 261.254098 
L 233.353456 264.152759 
L 229.251105 267.217922 
L 225.27461 270.444683 
L 221.430332 273.827881 
L 217.72442 277.362102 
L 214.162804 281.041694 
L 210.751182 284.860768 
L 210.284332 285.408 
L 206.894219 281.569818 
L 203.353332 277.870275 
L 199.667335 274.315289 
L 195.842124 270.910547 
L 191.88382 267.661496 
L 187.798755 264.573334 
L 183.593464 261.651001 
L 179.274675 258.899173 
L 174.849296 256.322251 
L 170.324408 253.924358 
L 165.707249 251.709331 
L 161.005206 249.680713 
L 156.225801 247.841749 
L 151.37668 246.195381 
L 149.100303 245.496182 
L 150.192309 240.49298 
L 151.083366 235.450112 
L 151.772049 230.375645 
L 152.257257 225.277697 
L 152.538214 220.164424 
L 152.614469 215.044005 
L 152.485901 209.924633 
L 152.152716 204.814497 
L 151.615446 199.721772 
L 150.874951 194.654606 
L 149.932416 189.621106 
L 148.789349 184.629323 
L 147.447578 179.687243 
L 145.909249 174.802773 
L 144.176825 169.983726 
L 142.253076 165.237813 
L 140.141079 160.572626 
L 137.844215 155.995628 
L 135.366156 151.51414 
L 132.710868 147.135334 
L 129.882598 142.866213 
L 127.964445 140.168198 
L 133.0659 140.61503 
L 138.181143 140.857502 
L 143.301991 140.895224 
L 148.420251 140.728137 
L 153.527735 140.356507 
L 158.616272 139.78093 
L 163.677722 139.002327 
L 168.703988 138.021942 
L 173.687028 136.841344 
L 178.618871 135.462422 
L 183.491627 133.887382 
L 188.297501 132.118744 
L 193.028803 130.159336 
L 197.677966 128.012294 
L 202.237551 125.681053 
L 206.700264 123.169342 
L 211.058966 120.481179 
L 215.306683 117.620864 
L 219.436621 114.592974 
L 223.442172 111.402353 
L 227.316928 108.054105 
L 231.05469 104.553585 
L 234.649479 100.906396 
L 238.095544 97.11837 
L 241.387372 93.195569 
L 244.519697 89.144267 
L 247.487507 84.970946 
L 250.286055 80.682283 
L 252.910863 76.285139 
L 255.357733 71.786547 
L 257.622751 67.193705 
L 259.218842 63.648 
L 261.343346 68.307505 
L 263.652481 72.878325 
L 266.142552 77.353149 
L 268.809577 81.724817 
L 271.649289 85.986335 
L 274.657145 90.130886 
L 277.828332 94.15184 
L 281.157779 98.042764 
L 284.640157 101.797434 
L 288.269897 105.409842 
L 292.041191 108.874209 
L 295.948006 112.184994 
L 299.984092 115.3369 
L 304.142992 118.324884 
L 308.418054 121.144167 
L 312.802436 123.790237 
L 317.289127 126.258863 
L 321.870947 128.546093 
L 326.540567 130.648271 
L 331.290517 132.562032 
L 336.113197 134.284315 
L 341.000892 135.812364 
L 342.007079 136.100519 
L 340.845751 141.088085 
L 339.8848 146.118103 
L 339.125766 151.182524 
L 338.569862 156.273249 
L 338.217976 161.382131 
L 338.070674 166.500998 
L 338.128189 171.621662 
L 338.39043 176.735929 
L 338.856977 181.835619 
L 339.527085 186.912573 
L 340.39968 191.958668 
L 341.473368 196.965833 
L 342.746429 201.926056 
L 344.216829 206.831403 
L 344.697539 208.295468 
L 339.700352 209.414676 
L 334.751919 210.732822 
L 329.860156 212.247799 
L 325.032889 213.957183 
L 320.27784 215.858238 
L 315.602616 217.947924 
L 311.014698 220.222897 
L 306.521423 222.679519 
L 302.129982 225.313858 
L 297.847399 228.121702 
L 293.680525 231.098557 
L 289.636027 234.239661 
L 285.720374 237.539989 
L 281.939832 240.994262 
L 278.300448 244.596953 
L 274.808044 248.342299 
L 271.468207 252.224308 
L 268.286281 256.23677 
L 265.267356 260.373265 
L 262.416261 264.627176 
L 259.737558 268.991698 
L 257.235532 273.459849 
L 254.914186 278.024479 
L 252.777233 282.678288 
L 251.62668 285.408 
L 249.597966 280.705998 
L 247.382845 276.088884 
L 244.98486 271.564045 
L 242.407849 267.138718 
L 239.655932 262.819985 
L 236.733514 258.614753 
L 233.645269 254.529751 
L 230.396138 250.571513 
L 226.991318 246.746372 
L 223.436257 243.060447 
L 219.736642 239.519635 
L 215.898392 236.1296 
L 211.927646 232.895766 
L 207.830758 229.823306 
L 203.614282 226.917136 
L 199.284962 224.181904 
L 194.849725 221.621987 
L 190.315666 219.24148 
L 185.69004 217.044191 
L 180.980245 215.033635 
L 176.193817 213.213029 
L 171.338412 211.585285 
L 166.421799 210.153008 
L 161.451843 208.918488 
L 156.436495 207.883702 
L 151.383778 207.050303 
L 146.301775 206.419626 
L 141.198618 205.992679 
L 136.082469 205.770146 
L 130.961513 205.752382 
L 126.249321 205.917119 
L 128.956311 201.570085 
L 131.487301 197.118277 
L 133.838241 192.568818 
L 136.005371 187.928985 
L 137.985224 183.206202 
L 139.774633 178.408023 
L 141.370733 173.542125 
L 142.770974 168.616292 
L 143.973113 163.638404 
L 144.975228 158.616426 
L 145.775717 153.558391 
L 146.373297 148.47239 
L 146.767014 143.366562 
L 146.956237 138.249072 
L 146.940663 133.12811 
L 146.720319 128.011866 
L 146.295555 122.908526 
L 145.667052 117.826254 
L 144.835815 112.773181 
L 144.573837 111.399887 
L 149.384987 109.645653 
L 154.122138 107.700427 
L 158.777712 105.567322 
L 163.34426 103.24975 
L 167.814477 100.751418 
L 172.181212 98.076324 
L 176.437478 95.228747 
L 180.576468 92.213242 
L 184.591558 89.034634 
L 188.476327 85.698007 
L 192.224559 82.208701 
L 195.830257 78.572296 
L 199.287654 74.79461 
L 202.591218 70.881687 
L 205.735664 66.839787 
L 208.04227 63.648 
L 211.060925 67.784693 
L 214.242588 71.797363 
L 217.58217 75.679591 
L 221.074328 79.425166 
L 224.713476 83.028096 
L 228.493792 86.482616 
L 232.409229 89.783201 
L 236.453521 92.924571 
L 240.6202 95.901698 
L 244.902599 98.709822 
L 249.293867 101.34445 
L 253.786981 103.801366 
L 258.37475 106.07664 
L 263.049837 108.166632 
L 267.804761 110.067999 
L 272.631916 111.777699 
L 277.52358 113.292996 
L 282.471927 114.611467 
L 287.46904 115.731003 
L 292.506926 116.649811 
L 297.577525 117.366423 
L 302.672724 117.879692 
L 307.784373 118.188797 
L 312.904294 118.293243 
L 318.024297 118.192863 
L 323.13619 117.887818 
L 328.231795 117.378596 
L 330.989097 117.016814 
L 327.910685 121.109231 
L 324.998388 125.321479 
L 322.256866 129.646818 
L 319.690504 134.078329 
L 317.303409 138.608922 
L 315.099398 143.23135 
L 313.081998 147.938217 
L 311.254436 152.721994 
L 309.619636 157.575027 
L 308.180213 162.489553 
L 306.93847 167.457709 
L 305.896394 172.471548 
L 305.055651 177.523048 
L 304.417587 182.604128 
L 303.983223 187.70666 
L 303.753252 192.82248 
L 303.728044 197.943404 
L 303.907638 203.061241 
L 304.291748 208.167801 
L 304.879758 213.254917 
L 305.670729 218.314449 
L 306.663394 223.338304 
L 307.856165 228.318445 
L 309.247135 233.246903 
L 310.834078 238.115796 
L 312.614456 242.917333 
L 314.585419 247.643833 
L 316.743816 252.287735 
L 317.932303 254.654217 
L 312.823095 255.001346 
L 307.731856 255.552511 
L 302.666729 256.306831 
L 297.635819 257.263098 
L 292.647174 258.419783 
L 287.708774 259.775035 
L 282.82852 261.326687 
L 278.014219 263.072255 
L 273.273574 265.008948 
L 268.614167 267.133667 
L 264.043453 269.443013 
L 259.568745 271.933292 
L 255.197201 274.600519 
L 250.935814 277.440428 
L 246.791402 280.448476 
L 242.770594 283.619849 
L 240.641992 285.408 
L 236.690989 282.150075 
L 232.612865 279.052754 
L 228.414142 276.120991 
L 224.101538 273.359478 
L 219.681954 270.772632 
L 215.162458 268.364592 
L 210.550281 266.139209 
L 205.852802 264.100044 
L 201.077536 262.25036 
L 196.232122 260.593114 
L 191.324311 259.13096 
L 186.361955 257.866234 
L 181.352994 256.800962 
L 176.305439 255.936847 
L 171.227367 255.275272 
L 166.1269 254.817294 
L 161.012199 254.563647 
L 155.891447 254.514736 
L 154.322189 254.540754 
L 156.89468 250.112798 
L 159.288041 245.585511 
L 161.498445 240.966137 
L 163.522355 236.262066 
L 165.356533 231.480822 
L 166.998046 226.630055 
L 168.444266 221.717525 
L 169.692881 216.751092 
L 170.741893 211.7387 
L 171.589624 206.688367 
L 172.234717 201.608175 
L 172.67614 196.506249 
L 172.913188 191.390752 
L 172.945481 186.269867 
L 172.772967 181.151788 
L 172.395922 176.0447 
L 171.814951 170.956776 
L 171.030981 165.896154 
L 170.045267 160.870931 
L 168.859387 155.889145 
L 167.475237 150.958767 
L 165.895031 146.087684 
L 164.121298 141.283688 
L 162.156875 136.554466 
L 160.004905 131.907582 
L 157.668831 127.350471 
L 155.15239 122.890424 
L 152.459607 118.534574 
L 149.59479 114.289892 
L 146.562523 110.163167 
L 145.832659 109.219543 
L 150.917178 109.829602 
L 156.022025 110.235846 
L 161.139035 110.437626 
L 166.260021 110.434619 
L 171.37679 110.226829 
L 176.481156 109.814589 
L 181.564955 109.198559 
L 186.620053 108.379724 
L 191.638362 107.359394 
L 196.611855 106.139201 
L 201.532575 104.721097 
L 206.392649 103.107352 
L 211.184304 101.300546 
L 215.899873 99.30357 
L 220.531812 97.11962 
L 225.072712 94.752188 
L 229.515307 92.205062 
L 233.85249 89.482317 
L 238.077324 86.588309 
L 242.183049 83.527668 
L 246.163097 80.305289 
L 250.0111 76.926329 
L 253.720903 73.396192 
L 257.28657 69.720527 
L 260.702398 65.905213 
L 262.598597 63.648 
L 265.925678 67.540947 
L 269.405773 71.297733 
L 273.033316 74.912347 
L 276.802504 78.379006 
L 280.707306 81.692165 
L 284.741475 84.846524 
L 288.898558 87.837036 
L 293.171905 90.658916 
L 297.554679 93.307651 
L 302.039868 95.779004 
L 306.620297 98.069019 
L 311.288638 100.174035 
L 316.037423 102.090683 
L 320.859056 103.815897 
L 323.939087 104.805839 
L 322.895344 109.819331 
L 322.052921 114.870551 
L 321.413168 119.951419 
L 320.977106 125.053806 
L 320.745435 130.169549 
L 320.718524 135.290465 
L 320.896416 140.408361 
L 321.278827 145.515049 
L 321.865146 150.60236 
L 322.654434 155.662155 
L 323.645428 160.68634 
L 324.836543 165.666876 
L 326.225874 170.595797 
L 327.811198 175.465217 
L 329.589979 180.267346 
L 331.559371 184.994501 
L 333.716223 189.639121 
L 336.057085 194.193774 
L 338.578212 198.651175 
L 341.275572 203.004191 
L 344.144847 207.245861 
L 344.784883 208.144183 
L 339.680178 207.73616 
L 334.563239 207.532597 
L 329.442253 207.53382 
L 324.325412 207.739827 
L 319.220901 208.150288 
L 314.136888 208.764546 
L 309.081506 209.58162 
L 304.062841 210.600202 
L 299.088924 211.818661 
L 294.16771 213.23505 
L 289.307073 214.847102 
L 284.514789 216.652238 
L 279.798525 218.647571 
L 275.165825 220.829907 
L 270.624101 223.195757 
L 266.180618 225.741334 
L 261.842486 228.462568 
L 257.616644 231.355103 
L 253.509853 234.414314 
L 249.528683 237.635305 
L 245.679502 241.012925 
L 241.96847 244.541768 
L 238.401522 248.216191 
L 234.984364 252.030314 
L 231.722465 255.978037 
L 228.621041 260.053043 
L 225.685055 264.248813 
L 222.919203 268.558635 
L 220.327911 272.975614 
L 217.915323 277.492684 
L 215.6853 282.102619 
L 214.22329 285.408 
L 212.124277 280.736956 
L 209.840152 276.153587 
L 207.374567 271.665225 
L 204.731469 267.27905 
L 201.915084 263.002079 
L 198.929919 258.841155 
L 195.780749 254.802934 
L 192.472612 250.893876 
L 189.010801 247.120235 
L 185.400854 243.488048 
L 181.648545 240.003126 
L 177.759878 236.671044 
L 173.741074 233.497132 
L 169.598562 230.486469 
L 165.338969 227.64387 
L 160.96911 224.973883 
L 156.495975 222.480779 
L 151.92672 220.168547 
L 147.268656 218.040887 
L 142.529234 216.101201 
L 137.716036 214.352593 
L 132.836763 212.79786 
L 129.71125 211.913357 
L 130.931014 206.939759 
L 131.95091 201.921361 
L 132.769309 196.866193 
L 133.3849 191.782341 
L 133.796699 186.677939 
L 134.004047 181.561152 
L 134.006612 176.440166 
L 133.80439 171.323174 
L 133.397705 166.218362 
L 132.787207 161.133896 
L 131.973873 156.07791 
L 130.959005 151.058494 
L 129.744224 146.083676 
L 128.331476 141.161416 
L 128.000498 140.105753 
L 132.980183 138.911083 
L 137.908111 137.518234 
L 142.776399 135.929435 
L 147.577257 134.147227 
L 152.303005 132.174462 
L 156.946084 130.014295 
L 161.499065 127.670183 
L 165.954665 125.145875 
L 170.305755 122.445409 
L 174.545376 119.573106 
L 178.666743 116.533562 
L 182.663265 113.331638 
L 186.528547 109.972457 
L 190.256405 106.461392 
L 193.840877 102.804062 
L 197.276227 99.006317 
L 200.55696 95.074232 
L 203.677827 91.014098 
L 206.633836 86.83241 
L 209.420258 82.535858 
L 212.032634 78.131316 
L 214.466786 73.62583 
L 216.71882 69.026607 
L 218.785132 64.341007 
L 219.071949 63.648 
L 221.110778 68.345625 
L 223.335831 72.95796 
L 225.743549 77.477628 
L 228.330079 81.897398 
L 231.091283 86.210199 
L 234.022746 90.409131 
L 237.119775 94.487477 
L 240.377418 98.438713 
L 243.790462 102.256518 
L 247.353448 105.934783 
L 251.060675 109.467624 
L 254.906213 112.849391 
L 258.883909 116.074671 
L 262.9874 119.138306 
L 267.210122 122.035395 
L 271.545319 124.761303 
L 275.986055 127.311668 
L 280.525226 129.682412 
L 285.155571 131.86974 
L 289.869682 133.870155 
L 294.660018 135.680455 
L 299.518914 137.297745 
L 304.438599 138.719437 
L 309.4112 139.943258 
L 314.428764 140.967248 
L 319.483263 141.78977 
L 324.566611 142.409508 
L 329.670676 142.825471 
L 334.787292 143.036992 
L 339.908274 143.043735 
L 345.025429 142.845687 
L 345.871098 142.793195 
L 343.112394 147.107596 
L 340.528427 151.528865 
L 338.12333 156.049928 
L 335.900951 160.663553 
L 333.864846 165.362359 
L 332.018272 170.138829 
L 330.364182 174.985321 
L 328.905224 179.894083 
L 327.643731 184.857261 
L 326.581721 189.866915 
L 325.720893 194.915032 
L 325.062625 199.993534 
L 324.607969 205.094297 
L 324.357653 210.209162 
L 324.312077 215.329946 
L 324.471314 220.448456 
L 324.83511 225.556504 
L 325.402882 230.645918 
L 326.173723 235.708557 
L 326.834204 239.235673 
L 322.014053 240.965021 
L 317.266913 242.885741 
L 312.600378 244.994759 
L 308.021915 247.288703 
L 303.538847 249.7639 
L 299.158347 252.416393 
L 294.887422 255.241938 
L 290.732905 258.236013 
L 286.701442 261.393831 
L 282.799483 264.710337 
L 279.03327 268.180228 
L 275.408828 271.797952 
L 271.931956 275.55772 
L 268.608215 279.453519 
L 265.442924 283.479117 
L 264.015892 285.408 
L 260.926594 281.323794 
L 257.676442 277.366394 
L 254.270637 273.542131 
L 250.714625 269.857122 
L 247.014098 266.317264 
L 243.174973 262.928219 
L 239.203394 259.695409 
L 235.105714 256.624006 
L 230.888488 253.718923 
L 226.558463 250.984808 
L 222.122566 248.426034 
L 217.587894 246.046696 
L 212.961701 243.8506 
L 208.251388 241.841258 
L 203.46449 240.021886 
L 198.608666 238.395395 
L 193.691684 236.964385 
L 188.72141 235.731147 
L 183.705795 234.697654 
L 178.652863 233.865558 
L 173.570699 233.236191 
L 168.467431 232.81056 
L 163.351225 232.589346 
L 158.230265 232.572902 
L 153.112743 232.761255 
L 148.006848 233.154104 
L 142.920746 233.75082 
L 142.364074 233.828691 
L 145.441894 229.735828 
L 148.353582 225.523159 
L 151.094478 221.197424 
L 153.660199 216.765542 
L 156.04664 212.234603 
L 158.249982 207.611857 
L 160.266702 202.904698 
L 162.093572 198.120657 
L 163.72767 193.267388 
L 165.166383 188.352654 
L 166.407407 183.384318 
L 167.448758 178.370329 
L 168.288771 173.318707 
L 168.9261 168.237535 
L 169.359727 163.13494 
L 169.588957 158.019087 
L 169.613425 152.898159 
L 169.433091 147.780349 
L 169.048243 142.673844 
L 168.459497 137.586813 
L 167.667795 132.527395 
L 166.674404 127.503684 
L 165.480912 122.523716 
L 164.089229 117.595459 
L 162.501582 112.726796 
L 160.720511 107.925516 
L 158.748864 103.199301 
L 156.589795 98.555711 
L 154.426065 94.335328 
L 159.540306 94.072574 
L 164.639949 93.605515 
L 169.716836 92.934899 
L 174.762844 92.061798 
L 179.769901 90.987609 
L 184.729996 89.71405 
L 189.635196 88.243158 
L 194.477651 86.577288 
L 199.249617 84.719104 
L 203.943457 82.671578 
L 208.551664 80.437987 
L 213.066865 78.021903 
L 217.481837 75.427192 
L 221.789517 72.658004 
L 225.983012 69.71877 
L 230.055616 66.614193 
L 233.6529 63.648 
L 237.609765 66.898803 
L 241.693462 69.988774 
L 245.897459 72.912969 
L 250.215029 75.666709 
L 254.639266 78.24559 
L 259.163092 80.645487 
L 263.77927 82.862558 
L 268.480414 84.893258 
L 273.259004 86.734339 
L 278.107396 88.382854 
L 283.017832 89.836166 
L 287.982458 91.091951 
L 292.99333 92.148199 
L 298.042433 93.003221 
L 303.121689 93.655649 
L 308.222972 94.104439 
L 313.338121 94.348873 
L 317.927789 94.393965 
L 315.420246 98.859021 
L 313.093263 103.420781 
L 310.950564 108.071947 
L 308.995575 112.805077 
L 307.231425 117.6126 
L 305.660935 122.486824 
L 304.286619 127.419953 
L 303.110675 132.404093 
L 302.134984 137.431272 
L 301.361106 142.493447 
L 300.790281 147.58252 
L 300.423421 152.690349 
L 300.261113 157.808762 
L 300.303617 162.929572 
L 300.550865 168.044587 
L 301.002461 173.145622 
L 301.657683 178.224518 
L 302.515482 183.27315 
L 303.574487 188.283441 
L 304.833002 193.247375 
L 306.289016 198.157011 
L 307.940197 203.004495 
L 309.783906 207.782071 
L 311.817192 212.482098 
L 314.036803 217.097055 
L 316.439187 221.61956 
L 319.020501 226.042378 
L 321.776617 230.358433 
L 324.703124 234.56082 
L 327.438591 238.188843 
L 322.354549 237.574824 
L 317.250019 237.164604 
L 312.133168 236.958838 
L 307.012182 236.957857 
L 301.895253 237.161661 
L 296.790566 237.569924 
L 291.706289 238.181994 
L 286.650556 238.996891 
L 281.631453 240.013312 
L 276.657011 241.229631 
L 271.735188 242.643901 
L 266.873858 244.25386 
L 262.080797 246.056933 
L 257.363674 248.050235 
L 252.730035 250.230577 
L 248.187293 252.594471 
L 243.742715 255.138135 
L 239.403412 257.857501 
L 235.176325 260.748217 
L 231.068218 263.80566 
L 227.085661 267.024937 
L 223.235027 270.400899 
L 219.522475 273.928144 
L 215.953946 277.601031 
L 212.535147 281.413683 
L 209.233462 285.408 
L 205.971752 281.460121 
L 202.554778 277.645833 
L 198.988007 273.971239 
L 195.277144 270.442217 
L 191.428126 267.064412 
L 187.44711 263.84323 
L 183.340466 260.783822 
L 179.114764 257.891083 
L 174.776762 255.169641 
L 170.333402 252.62385 
L 165.791792 250.257782 
L 161.159197 248.075222 
L 156.443028 246.079663 
L 151.650831 244.274297 
L 147.612796 242.919744 
L 148.613006 237.897385 
L 149.411575 232.839047 
L 150.007227 227.75282 
L 150.399006 222.646842 
L 150.586288 217.529282 
L 150.568772 212.408325 
L 150.346486 207.292165 
L 149.919787 202.188987 
L 149.289356 197.106954 
L 148.456202 192.054197 
L 147.421658 187.038798 
L 146.18738 182.068782 
L 144.755341 177.1521 
L 143.127832 172.296617 
L 141.307458 167.5101 
L 139.297131 162.800208 
L 137.100065 158.174475 
L 134.719778 153.640301 
L 132.160076 149.20494 
L 129.425054 144.875488 
L 127.161023 141.559766 
L 132.269041 141.923979 
L 137.387538 142.083634 
L 142.508326 142.038475 
L 147.623211 141.788576 
L 152.724012 141.334336 
L 157.802568 140.676482 
L 162.850754 139.816066 
L 167.860495 138.754465 
L 172.823776 137.493376 
L 177.732657 136.034818 
L 182.579284 134.381124 
L 187.355904 132.534939 
L 192.054876 130.499217 
L 196.668683 128.277215 
L 201.189942 125.872487 
L 205.611421 123.28888 
L 209.926047 120.530528 
L 214.126917 117.601843 
L 218.20731 114.507511 
L 222.1607 111.252482 
L 225.98076 107.841963 
L 229.661381 104.281411 
L 233.196673 100.576521 
L 236.580982 96.73322 
L 239.808892 92.757658 
L 242.87524 88.656194 
L 245.775121 84.435389 
L 248.503895 80.101996 
L 251.057196 75.662947 
L 253.430941 71.125344 
L 255.621331 66.496447 
L 256.858845 63.648 
L 258.936317 68.328663 
L 261.199305 72.922506 
L 263.644187 77.422179 
L 266.267052 81.820483 
L 269.063705 86.110382 
L 272.02967 90.285014 
L 275.160204 94.337699 
L 278.450299 98.261955 
L 281.894689 102.051503 
L 285.487866 105.700281 
L 289.224082 109.202451 
L 293.097358 112.552412 
L 297.101498 115.744803 
L 301.230097 118.774517 
L 305.47655 121.636708 
L 309.834064 124.326797 
L 314.295667 126.84048 
L 318.854221 129.173736 
L 323.502435 131.322832 
L 328.232871 133.28433 
L 333.037962 135.055092 
L 337.910022 136.632285 
L 343.158609 138.095027 
L 341.876368 143.052886 
L 340.793414 148.058054 
L 339.911479 153.102526 
L 339.231975 158.17823 
L 338.755989 163.277048 
L 338.484281 168.390821 
L 338.417287 173.511369 
L 338.555115 178.6305 
L 338.897542 183.740025 
L 339.444022 188.83177 
L 340.193681 193.897588 
L 341.145318 198.929376 
L 342.297413 203.919083 
L 343.64812 208.858728 
L 343.895066 209.685392 
L 338.933206 210.95206 
L 334.025968 212.416137 
L 329.181203 214.07528 
L 324.406662 215.926834 
L 319.709982 217.967838 
L 315.098677 220.195027 
L 310.580124 222.604837 
L 306.161553 225.193413 
L 301.850031 227.956615 
L 297.652457 230.890021 
L 293.575545 233.988939 
L 289.625818 237.248411 
L 285.809594 240.663223 
L 282.13298 244.227912 
L 278.601855 247.936774 
L 275.22187 251.783878 
L 271.998432 255.763067 
L 268.936697 259.867976 
L 266.041564 264.092039 
L 263.317664 268.428498 
L 260.769356 272.870414 
L 258.400714 277.410683 
L 256.21553 282.042041 
L 254.766398 285.408 
L 252.714657 280.716 
L 250.476927 276.109801 
L 248.056789 271.596772 
L 245.458113 267.184133 
L 242.685057 262.878943 
L 239.742058 258.688088 
L 236.633824 254.618275 
L 233.365326 250.676014 
L 229.941795 246.86761 
L 226.368707 243.199158 
L 222.651777 239.676526 
L 218.796954 236.305349 
L 214.810402 233.09102 
L 210.698501 230.038682 
L 206.467827 227.153218 
L 202.12515 224.439243 
L 197.677417 221.901101 
L 193.131742 219.54285 
L 188.495399 217.368264 
L 183.775804 215.380822 
L 178.980508 213.583703 
L 174.117182 211.979783 
L 169.193606 210.571626 
L 164.217658 209.361487 
L 159.197297 208.3513 
L 154.140555 207.542682 
L 149.055521 206.936927 
L 143.950332 206.535003 
L 138.833153 206.337554 
L 133.712172 206.344895 
L 128.595581 206.557016 
L 126.694483 206.688162 
L 129.500547 202.404414 
L 132.133063 198.011879 
L 134.587818 193.517585 
L 136.860886 188.928722 
L 138.948631 184.252631 
L 140.847711 179.496793 
L 142.55509 174.668816 
L 144.068035 169.776424 
L 145.384127 164.827444 
L 146.50126 159.829793 
L 147.417646 154.791466 
L 148.13182 149.720524 
L 148.642639 144.625078 
L 148.949286 139.513281 
L 149.05127 134.39331 
L 148.948429 129.273357 
L 148.640926 124.161611 
L 148.129254 119.066251 
L 147.414231 113.995428 
L 146.497001 108.957255 
L 146.362353 108.302088 
L 151.193098 106.602559 
L 155.952016 104.71121 
L 160.631494 102.631069 
L 165.224046 100.365462 
L 169.722323 97.918015 
L 174.119131 95.292642 
L 178.407435 92.493544 
L 182.580375 89.525198 
L 186.631275 86.392354 
L 190.553654 83.100022 
L 194.341237 79.653471 
L 197.987965 76.058214 
L 201.488005 72.320003 
L 204.835756 68.444817 
L 208.025863 64.438857 
L 208.625368 63.648 
L 211.784329 67.678567 
L 215.101943 71.579585 
L 218.572902 75.344813 
L 222.191654 78.968228 
L 225.952409 82.444033 
L 229.849151 85.766668 
L 233.875646 88.930817 
L 238.025452 91.931419 
L 242.291931 94.763672 
L 246.668258 97.423046 
L 251.14743 99.905286 
L 255.722283 102.206422 
L 260.385497 104.322772 
L 265.129612 106.25095 
L 269.947039 107.987871 
L 274.830071 109.530758 
L 279.770897 110.877141 
L 284.761611 112.024867 
L 289.79423 112.9721 
L 294.860702 113.717324 
L 299.952923 114.259347 
L 305.062746 114.597302 
L 310.181996 114.730648 
L 315.302483 114.659172 
L 320.416017 114.382988 
L 325.514415 113.902539 
L 328.937818 113.463894 
L 325.861076 117.557567 
L 322.950498 121.771003 
L 320.210741 126.09746 
L 317.646188 130.530018 
L 315.260941 135.061585 
L 313.058817 139.684912 
L 311.043337 144.392602 
L 309.217727 149.177124 
L 307.584908 154.030824 
L 306.14749 158.945936 
L 304.907775 163.914599 
L 303.867745 168.928862 
L 303.029063 173.980705 
L 302.393073 179.062045 
L 301.96079 184.164754 
L 301.732907 189.280667 
L 301.709789 194.401601 
L 301.891471 199.519364 
L 302.277664 204.625767 
L 302.86775 209.712643 
L 303.660785 214.771852 
L 304.6555 219.795301 
L 305.850304 224.774955 
L 307.243284 229.702845 
L 308.832214 234.57109 
L 310.614551 239.3719 
L 312.587443 244.097596 
L 314.747734 248.740616 
L 317.091969 253.293535 
L 317.884317 254.737332 
L 312.766511 254.917809 
L 307.660017 255.302799 
L 302.573003 255.891686 
L 297.513607 256.683529 
L 292.489923 257.67706 
L 287.509989 258.870691 
L 282.58177 260.262511 
L 277.713151 261.850293 
L 272.911921 263.631499 
L 268.185761 265.603277 
L 263.542231 267.762475 
L 258.988761 270.105637 
L 254.532634 272.629015 
L 250.18098 275.328572 
L 245.94076 278.19999 
L 241.818758 281.238674 
L 237.821569 284.439763 
L 236.674628 285.408 
L 232.71524 282.16027 
L 228.629144 279.073472 
L 224.422878 276.152543 
L 220.10317 273.402156 
L 215.676932 270.826711 
L 211.151244 268.430329 
L 206.533346 266.216843 
L 201.830626 264.189794 
L 197.050607 262.352425 
L 192.200937 260.707676 
L 187.289374 259.258177 
L 182.323774 258.006248 
L 177.312083 256.953891 
L 172.262318 256.10279 
L 167.182557 255.454307 
L 162.080927 255.009479 
L 156.965589 254.769017 
L 154.428982 254.725724 
L 156.868102 250.222926 
L 159.125208 245.62619 
L 161.196687 240.942872 
L 163.079227 236.180462 
L 164.769816 231.34658 
L 166.265748 226.44896 
L 167.564631 221.495435 
L 168.664388 216.493932 
L 169.563257 211.45245 
L 170.259802 206.379056 
L 170.752909 201.281866 
L 171.041787 196.169034 
L 171.125976 191.04874 
L 171.005341 185.929174 
L 170.680073 180.818528 
L 170.150695 175.724977 
L 169.418053 170.65667 
L 168.483318 165.621715 
L 167.347986 160.628167 
L 166.013874 155.684014 
L 164.483116 150.797166 
L 162.75816 145.975442 
L 160.841767 141.226554 
L 158.737001 136.558099 
L 156.447231 131.977548 
L 153.976119 127.492226 
L 151.327619 123.109311 
L 148.505967 118.835813 
L 145.515678 114.678569 
L 143.898838 112.56902 
L 148.982555 113.185726 
L 154.086867 113.598645 
L 159.203608 113.807115 
L 164.324593 113.810804 
L 169.441629 113.609704 
L 174.546531 113.204139 
L 179.631131 112.594756 
L 184.687294 111.782532 
L 189.706934 110.768764 
L 194.682018 109.555075 
L 199.604587 108.143407 
L 204.466768 106.536017 
L 209.260781 104.735478 
L 213.978957 102.74467 
L 218.613748 100.566777 
L 223.157739 98.205285 
L 227.603661 95.66397 
L 231.944401 92.946898 
L 236.173015 90.058417 
L 240.282738 87.003146 
L 244.266995 83.785974 
L 248.119413 80.412048 
L 251.833829 76.886765 
L 255.404299 73.215765 
L 258.825113 69.404921 
L 262.090798 65.460329 
L 263.504744 63.648 
L 266.699086 67.650585 
L 270.050933 71.522228 
L 273.554923 75.256737 
L 277.205452 78.848136 
L 280.996677 82.29068 
L 284.922535 85.578861 
L 288.976746 88.70742 
L 293.152822 91.671352 
L 297.444083 94.465914 
L 301.843665 97.086636 
L 306.344528 99.529326 
L 310.939472 101.790075 
L 315.621147 103.865267 
L 320.382063 105.751581 
L 325.52127 107.546259 
L 324.559732 112.576165 
L 323.800107 117.640498 
L 323.243608 122.731157 
L 322.891127 127.839998 
L 322.743227 132.958848 
L 322.800144 138.079519 
L 323.061788 143.193817 
L 323.52774 148.293561 
L 324.197255 153.370592 
L 325.069261 158.41679 
L 326.142364 163.42408 
L 327.414847 168.384451 
L 328.884674 173.28997 
L 330.549494 178.132787 
L 332.406643 182.905155 
L 334.45315 187.59944 
L 336.685742 192.208132 
L 339.100846 196.723857 
L 341.694599 201.139391 
L 344.462852 205.447671 
L 345.479973 206.940252 
L 340.368707 206.624879 
L 335.248918 206.514155 
L 330.128796 206.608257 
L 325.016533 206.907033 
L 319.920307 207.410006 
L 314.848271 208.116372 
L 309.808539 209.025 
L 304.809174 210.134437 
L 299.858173 211.442907 
L 294.963458 212.948319 
L 290.132858 214.648262 
L 285.374102 216.540018 
L 280.694802 218.620561 
L 276.102445 220.886561 
L 271.604377 223.334394 
L 267.207794 225.960144 
L 262.91973 228.759609 
L 258.747045 231.728313 
L 254.696414 234.861504 
L 250.774317 238.154172 
L 246.987029 241.601048 
L 243.340609 245.196617 
L 239.84089 248.935129 
L 236.493471 252.810602 
L 233.303707 256.816835 
L 230.276702 260.947421 
L 227.417296 265.19575 
L 224.730066 269.555028 
L 222.219311 274.018278 
L 219.889045 278.578362 
L 217.742999 283.227984 
L 216.813162 285.408 
L 214.753549 280.71945 
L 212.508091 276.117014 
L 210.080382 271.608053 
L 207.474303 267.199781 
L 204.694026 262.899251 
L 201.743997 258.713342 
L 198.628937 254.648752 
L 195.353827 250.711981 
L 191.923909 246.909329 
L 188.344669 243.246879 
L 184.621832 239.73049 
L 180.761356 236.365788 
L 176.769415 233.158155 
L 172.652396 230.112722 
L 168.416886 227.234363 
L 164.06966 224.527681 
L 159.617673 221.997006 
L 155.068047 219.646388 
L 150.42806 217.479587 
L 145.705136 215.500069 
L 140.906831 213.711001 
L 136.040819 212.115245 
L 131.114887 210.715354 
L 128.662561 210.096974 
L 128.662561 210.096974 
" style="fill:none;stroke:#1f77b4;stroke-linecap:square;stroke-width:1.5;"/>
   </g>
   <g id="patch_4">
    <path d="M 82.520165 307.584 
L 82.520165 41.472 
" style="fill:none;stroke:#000000;stroke-linecap:square;stroke-linejoin:miter;stroke-width:0.8;"/>
   </g>
   <g id="patch_5">
    <path d="M 389.799835 307.584 
L 389.799835 41.472 
" style="fill:none;stroke:#000000;stroke-linecap:square;stroke-linejoin:miter;stroke-width:0.8;"/>
   </g>
   <g id="patch_6">
    <path d="M 82.520165 307.584 
L 389.799835 307.584 
" style="fill:none;stroke:#000000;stroke-linecap:square;stroke-linejoin:miter;stroke-width:0.8;"/>
   </g>
   <g id="patch_7">
    <path d="M 82.520165 41.472 
L 389.799835 41.472 
" style="fill:none;stroke:#000000;stroke-linecap:square;stroke-linejoin:miter;stroke-width:0.8;"/>
   </g>
  </g>
 </g>
 <defs>
  <clipPath id="pd74808a55c">
   <rect height="266.112" width="307.27967" x="82.520165" y="41.472"/>
  </clipPath>
 </defs>
</svg>
