<?xml version="1.0" encoding="utf-8" standalone="no"?>
<!DOCTYPE svg PUBLIC "-//W3C//DTD SVG 1.1//EN"
  "http://www.w3.org/Graphics/SVG/1.1/DTD/svg11.dtd">
<!-- Created with matplotlib (http://matplotlib.org/) -->
<svg height="345.6pt" version="1.1" viewBox="0 0 460.8 345.6" width="460.8pt" xmlns="http://www.w3.org/2000/svg" xmlns:xlink="http://www.w3.org/1999/xlink">
 <defs>
  <style type="text/css">
*{stroke-linecap:butt;stroke-linejoin:round;}
  </style>
 </defs>
 <g id="figure_1">
  <g id="patch_1">
   <path d="M 0 345.6 
L 460.8 345.6 
L 460.8 0 
L 0 0 
z
" style="fill:#ffffff;"/>
  </g>
  <g id="axes_1">
   <g id="patch_2">
    <path d="M 82.520165 307.584 
L 389.799835 307.584 
L 389.799835 41.472 
L 82.520165 41.472 
z
" style="fill:#ffffff;"/>
   </g>
   <g id="PathCollection_1">
    <defs>
     <path d="M 0 2.738613 
C 0.726289 2.738613 1.422928 2.450055 1.936492 1.936492 
C 2.450055 1.422928 2.738613 0.726289 2.738613 0 
C 2.738613 -0.726289 2.450055 -1.422928 1.936492 -1.936492 
C 1.422928 -2.450055 0.726289 -2.738613 0 -2.738613 
C -0.726289 -2.738613 -1.422928 -2.450055 -1.936492 -1.936492 
C -2.450055 -1.422928 -2.738613 -0.726289 -2.738613 0 
C -2.738613 0.726289 -2.450055 1.422928 -1.936492 1.936492 
C -1.422928 2.450055 -0.726289 2.738613 0 2.738613 
z
" id="m157ea5a251" style="stroke:#000000;"/>
    </defs>
    <g clip-path="url(#p46ef695811)">
     <use style="stroke:#000000;" x="260.808082" xlink:href="#m157ea5a251" y="219.41978"/>
    </g>
   </g>
   <g id="Quiver_1">
    <path clip-path="url(#p46ef695811)" d="M 261.252333 218.793066 
L 275.666769 229.010833 
L 275.928556 227.313153 
L 280.86295 233.635805 
L 273.263051 231.073441 
L 274.778268 230.264263 
L 260.363831 220.046495 
L 261.252333 218.793066 
"/>
   </g>
   <g id="patch_3">
    <path clip-path="url(#p46ef695811)" d="M 236.16 225.741278 
C 249.74192 225.741278 262.769389 220.345124 272.373256 210.741256 
C 281.977124 201.137389 287.373278 188.10992 287.373278 174.528 
C 287.373278 160.94608 281.977124 147.918611 272.373256 138.314744 
C 262.769389 128.710876 249.74192 123.314722 236.16 123.314722 
C 222.57808 123.314722 209.550611 128.710876 199.946744 138.314744 
C 190.342876 147.918611 184.946722 160.94608 184.946722 174.528 
C 184.946722 188.10992 190.342876 201.137389 199.946744 210.741256 
C 209.550611 220.345124 222.57808 225.741278 236.16 225.741278 
z
" style="fill:#009900;fill-opacity:0.5;stroke:#009900;stroke-linejoin:miter;stroke-width:2;"/>
   </g>
   <g id="matplotlib.axis_1">
    <g id="xtick_1">
     <g id="line2d_1">
      <defs>
       <path d="M 0 0 
L 0 3.5 
" id="ma92b4e7bbf" style="stroke:#000000;stroke-width:0.8;"/>
      </defs>
      <g>
       <use style="stroke:#000000;stroke-width:0.8;" x="108.126804" xlink:href="#ma92b4e7bbf" y="307.584"/>
      </g>
     </g>
     <g id="text_1">
      <!-- −2 -->
      <defs>
       <path d="M 10.59375 35.5 
L 73.1875 35.5 
L 73.1875 27.203125 
L 10.59375 27.203125 
z
" id="DejaVuSans-2212"/>
       <path d="M 19.1875 8.296875 
L 53.609375 8.296875 
L 53.609375 0 
L 7.328125 0 
L 7.328125 8.296875 
Q 12.9375 14.109375 22.625 23.890625 
Q 32.328125 33.6875 34.8125 36.53125 
Q 39.546875 41.84375 41.421875 45.53125 
Q 43.3125 49.21875 43.3125 52.78125 
Q 43.3125 58.59375 39.234375 62.25 
Q 35.15625 65.921875 28.609375 65.921875 
Q 23.96875 65.921875 18.8125 64.3125 
Q 13.671875 62.703125 7.8125 59.421875 
L 7.8125 69.390625 
Q 13.765625 71.78125 18.9375 73 
Q 24.125 74.21875 28.421875 74.21875 
Q 39.75 74.21875 46.484375 68.546875 
Q 53.21875 62.890625 53.21875 53.421875 
Q 53.21875 48.921875 51.53125 44.890625 
Q 49.859375 40.875 45.40625 35.40625 
Q 44.1875 33.984375 37.640625 27.21875 
Q 31.109375 20.453125 19.1875 8.296875 
z
" id="DejaVuSans-32"/>
      </defs>
      <g transform="translate(100.755711 322.182437)scale(0.1 -0.1)">
       <use xlink:href="#DejaVuSans-2212"/>
       <use x="83.789062" xlink:href="#DejaVuSans-32"/>
      </g>
     </g>
    </g>
    <g id="xtick_2">
     <g id="line2d_2">
      <g>
       <use style="stroke:#000000;stroke-width:0.8;" x="172.143402" xlink:href="#ma92b4e7bbf" y="307.584"/>
      </g>
     </g>
     <g id="text_2">
      <!-- −1 -->
      <defs>
       <path d="M 12.40625 8.296875 
L 28.515625 8.296875 
L 28.515625 63.921875 
L 10.984375 60.40625 
L 10.984375 69.390625 
L 28.421875 72.90625 
L 38.28125 72.90625 
L 38.28125 8.296875 
L 54.390625 8.296875 
L 54.390625 0 
L 12.40625 0 
z
" id="DejaVuSans-31"/>
      </defs>
      <g transform="translate(164.772308 322.182437)scale(0.1 -0.1)">
       <use xlink:href="#DejaVuSans-2212"/>
       <use x="83.789062" xlink:href="#DejaVuSans-31"/>
      </g>
     </g>
    </g>
    <g id="xtick_3">
     <g id="line2d_3">
      <g>
       <use style="stroke:#000000;stroke-width:0.8;" x="236.16" xlink:href="#ma92b4e7bbf" y="307.584"/>
      </g>
     </g>
     <g id="text_3">
      <!-- 0 -->
      <defs>
       <path d="M 31.78125 66.40625 
Q 24.171875 66.40625 20.328125 58.90625 
Q 16.5 51.421875 16.5 36.375 
Q 16.5 21.390625 20.328125 13.890625 
Q 24.171875 6.390625 31.78125 6.390625 
Q 39.453125 6.390625 43.28125 13.890625 
Q 47.125 21.390625 47.125 36.375 
Q 47.125 51.421875 43.28125 58.90625 
Q 39.453125 66.40625 31.78125 66.40625 
z
M 31.78125 74.21875 
Q 44.046875 74.21875 50.515625 64.515625 
Q 56.984375 54.828125 56.984375 36.375 
Q 56.984375 17.96875 50.515625 8.265625 
Q 44.046875 -1.421875 31.78125 -1.421875 
Q 19.53125 -1.421875 13.0625 8.265625 
Q 6.59375 17.96875 6.59375 36.375 
Q 6.59375 54.828125 13.0625 64.515625 
Q 19.53125 74.21875 31.78125 74.21875 
z
" id="DejaVuSans-30"/>
      </defs>
      <g transform="translate(232.97875 322.182437)scale(0.1 -0.1)">
       <use xlink:href="#DejaVuSans-30"/>
      </g>
     </g>
    </g>
    <g id="xtick_4">
     <g id="line2d_4">
      <g>
       <use style="stroke:#000000;stroke-width:0.8;" x="300.176598" xlink:href="#ma92b4e7bbf" y="307.584"/>
      </g>
     </g>
     <g id="text_4">
      <!-- 1 -->
      <g transform="translate(296.995348 322.182437)scale(0.1 -0.1)">
       <use xlink:href="#DejaVuSans-31"/>
      </g>
     </g>
    </g>
    <g id="xtick_5">
     <g id="line2d_5">
      <g>
       <use style="stroke:#000000;stroke-width:0.8;" x="364.193196" xlink:href="#ma92b4e7bbf" y="307.584"/>
      </g>
     </g>
     <g id="text_5">
      <!-- 2 -->
      <g transform="translate(361.011946 322.182437)scale(0.1 -0.1)">
       <use xlink:href="#DejaVuSans-32"/>
      </g>
     </g>
    </g>
   </g>
   <g id="matplotlib.axis_2">
    <g id="ytick_1">
     <g id="line2d_6">
      <defs>
       <path d="M 0 0 
L -3.5 0 
" id="m3a8e7299a8" style="stroke:#000000;stroke-width:0.8;"/>
      </defs>
      <g>
       <use style="stroke:#000000;stroke-width:0.8;" x="82.520165" xlink:href="#m3a8e7299a8" y="302.561196"/>
      </g>
     </g>
     <g id="text_6">
      <!-- −2.0 -->
      <defs>
       <path d="M 10.6875 12.40625 
L 21 12.40625 
L 21 0 
L 10.6875 0 
z
" id="DejaVuSans-2e"/>
      </defs>
      <g transform="translate(51.237353 306.360414)scale(0.1 -0.1)">
       <use xlink:href="#DejaVuSans-2212"/>
       <use x="83.789062" xlink:href="#DejaVuSans-32"/>
       <use x="147.412109" xlink:href="#DejaVuSans-2e"/>
       <use x="179.199219" xlink:href="#DejaVuSans-30"/>
      </g>
     </g>
    </g>
    <g id="ytick_2">
     <g id="line2d_7">
      <g>
       <use style="stroke:#000000;stroke-width:0.8;" x="82.520165" xlink:href="#m3a8e7299a8" y="270.552897"/>
      </g>
     </g>
     <g id="text_7">
      <!-- −1.5 -->
      <defs>
       <path d="M 10.796875 72.90625 
L 49.515625 72.90625 
L 49.515625 64.59375 
L 19.828125 64.59375 
L 19.828125 46.734375 
Q 21.96875 47.46875 24.109375 47.828125 
Q 26.265625 48.1875 28.421875 48.1875 
Q 40.625 48.1875 47.75 41.5 
Q 54.890625 34.8125 54.890625 23.390625 
Q 54.890625 11.625 47.5625 5.09375 
Q 40.234375 -1.421875 26.90625 -1.421875 
Q 22.3125 -1.421875 17.546875 -0.640625 
Q 12.796875 0.140625 7.71875 1.703125 
L 7.71875 11.625 
Q 12.109375 9.234375 16.796875 8.0625 
Q 21.484375 6.890625 26.703125 6.890625 
Q 35.15625 6.890625 40.078125 11.328125 
Q 45.015625 15.765625 45.015625 23.390625 
Q 45.015625 31 40.078125 35.4375 
Q 35.15625 39.890625 26.703125 39.890625 
Q 22.75 39.890625 18.8125 39.015625 
Q 14.890625 38.140625 10.796875 36.28125 
z
" id="DejaVuSans-35"/>
      </defs>
      <g transform="translate(51.237353 274.352116)scale(0.1 -0.1)">
       <use xlink:href="#DejaVuSans-2212"/>
       <use x="83.789062" xlink:href="#DejaVuSans-31"/>
       <use x="147.412109" xlink:href="#DejaVuSans-2e"/>
       <use x="179.199219" xlink:href="#DejaVuSans-35"/>
      </g>
     </g>
    </g>
    <g id="ytick_3">
     <g id="line2d_8">
      <g>
       <use style="stroke:#000000;stroke-width:0.8;" x="82.520165" xlink:href="#m3a8e7299a8" y="238.544598"/>
      </g>
     </g>
     <g id="text_8">
      <!-- −1.0 -->
      <g transform="translate(51.237353 242.343817)scale(0.1 -0.1)">
       <use xlink:href="#DejaVuSans-2212"/>
       <use x="83.789062" xlink:href="#DejaVuSans-31"/>
       <use x="147.412109" xlink:href="#DejaVuSans-2e"/>
       <use x="179.199219" xlink:href="#DejaVuSans-30"/>
      </g>
     </g>
    </g>
    <g id="ytick_4">
     <g id="line2d_9">
      <g>
       <use style="stroke:#000000;stroke-width:0.8;" x="82.520165" xlink:href="#m3a8e7299a8" y="206.536299"/>
      </g>
     </g>
     <g id="text_9">
      <!-- −0.5 -->
      <g transform="translate(51.237353 210.335518)scale(0.1 -0.1)">
       <use xlink:href="#DejaVuSans-2212"/>
       <use x="83.789062" xlink:href="#DejaVuSans-30"/>
       <use x="147.412109" xlink:href="#DejaVuSans-2e"/>
       <use x="179.199219" xlink:href="#DejaVuSans-35"/>
      </g>
     </g>
    </g>
    <g id="ytick_5">
     <g id="line2d_10">
      <g>
       <use style="stroke:#000000;stroke-width:0.8;" x="82.520165" xlink:href="#m3a8e7299a8" y="174.528"/>
      </g>
     </g>
     <g id="text_10">
      <!-- 0.0 -->
      <g transform="translate(59.61704 178.327219)scale(0.1 -0.1)">
       <use xlink:href="#DejaVuSans-30"/>
       <use x="63.623047" xlink:href="#DejaVuSans-2e"/>
       <use x="95.410156" xlink:href="#DejaVuSans-30"/>
      </g>
     </g>
    </g>
    <g id="ytick_6">
     <g id="line2d_11">
      <g>
       <use style="stroke:#000000;stroke-width:0.8;" x="82.520165" xlink:href="#m3a8e7299a8" y="142.519701"/>
      </g>
     </g>
     <g id="text_11">
      <!-- 0.5 -->
      <g transform="translate(59.61704 146.31892)scale(0.1 -0.1)">
       <use xlink:href="#DejaVuSans-30"/>
       <use x="63.623047" xlink:href="#DejaVuSans-2e"/>
       <use x="95.410156" xlink:href="#DejaVuSans-35"/>
      </g>
     </g>
    </g>
    <g id="ytick_7">
     <g id="line2d_12">
      <g>
       <use style="stroke:#000000;stroke-width:0.8;" x="82.520165" xlink:href="#m3a8e7299a8" y="110.511402"/>
      </g>
     </g>
     <g id="text_12">
      <!-- 1.0 -->
      <g transform="translate(59.61704 114.310621)scale(0.1 -0.1)">
       <use xlink:href="#DejaVuSans-31"/>
       <use x="63.623047" xlink:href="#DejaVuSans-2e"/>
       <use x="95.410156" xlink:href="#DejaVuSans-30"/>
      </g>
     </g>
    </g>
    <g id="ytick_8">
     <g id="line2d_13">
      <g>
       <use style="stroke:#000000;stroke-width:0.8;" x="82.520165" xlink:href="#m3a8e7299a8" y="78.503103"/>
      </g>
     </g>
     <g id="text_13">
      <!-- 1.5 -->
      <g transform="translate(59.61704 82.302322)scale(0.1 -0.1)">
       <use xlink:href="#DejaVuSans-31"/>
       <use x="63.623047" xlink:href="#DejaVuSans-2e"/>
       <use x="95.410156" xlink:href="#DejaVuSans-35"/>
      </g>
     </g>
    </g>
    <g id="ytick_9">
     <g id="line2d_14">
      <g>
       <use style="stroke:#000000;stroke-width:0.8;" x="82.520165" xlink:href="#m3a8e7299a8" y="46.494804"/>
      </g>
     </g>
     <g id="text_14">
      <!-- 2.0 -->
      <g transform="translate(59.61704 50.294023)scale(0.1 -0.1)">
       <use xlink:href="#DejaVuSans-32"/>
       <use x="63.623047" xlink:href="#DejaVuSans-2e"/>
       <use x="95.410156" xlink:href="#DejaVuSans-30"/>
      </g>
     </g>
    </g>
   </g>
   <g id="line2d_15">
    <path clip-path="url(#p46ef695811)" d="M 300.176598 63.648 
L 172.143402 63.648 
" style="fill:none;stroke:#009900;stroke-linecap:square;stroke-width:2;"/>
   </g>
   <g id="line2d_16">
    <path clip-path="url(#p46ef695811)" d="M 172.143402 63.648 
L 108.126804 174.528 
" style="fill:none;stroke:#009900;stroke-linecap:square;stroke-width:2;"/>
   </g>
   <g id="line2d_17">
    <path clip-path="url(#p46ef695811)" d="M 108.126804 174.528 
L 172.143402 285.408 
" style="fill:none;stroke:#009900;stroke-linecap:square;stroke-width:2;"/>
   </g>
   <g id="line2d_18">
    <path clip-path="url(#p46ef695811)" d="M 172.143402 285.408 
L 300.176598 285.408 
" style="fill:none;stroke:#009900;stroke-linecap:square;stroke-width:2;"/>
   </g>
   <g id="line2d_19">
    <path clip-path="url(#p46ef695811)" d="M 300.176598 285.408 
L 364.193196 174.528 
" style="fill:none;stroke:#009900;stroke-linecap:square;stroke-width:2;"/>
   </g>
   <g id="line2d_20">
    <path clip-path="url(#p46ef695811)" d="M 364.193196 174.528 
L 300.176598 63.648 
" style="fill:none;stroke:#009900;stroke-linecap:square;stroke-width:2;"/>
   </g>
   <g id="line2d_21">
    <path clip-path="url(#p46ef695811)" d="M 256.051294 68.105413 
L 251.998696 71.23606 
L 248.074532 74.526263 
L 244.28508 77.97076 
L 240.636402 81.564039 
L 237.134336 85.300352 
L 233.784484 89.173721 
L 230.592204 93.177951 
L 227.562605 97.306634 
L 224.700532 101.553167 
L 222.010565 105.910756 
L 219.497006 110.372429 
L 217.163878 114.931048 
L 215.014911 119.579322 
L 213.053545 124.309813 
L 211.282917 129.114953 
L 211.0087 129.916208 
L 205.987404 128.91068 
L 200.929914 128.106755 
L 195.844321 127.505719 
L 190.738761 127.108533 
L 185.621401 126.915832 
L 180.500429 126.927926 
L 175.384037 127.144794 
L 170.280409 127.56609 
L 165.197712 128.191139 
L 160.144075 129.018942 
L 155.127584 130.048175 
L 150.156264 131.27719 
L 145.238068 132.704022 
L 140.380864 134.326388 
L 135.592423 136.141693 
L 130.880404 138.147032 
L 128.495509 139.248369 
L 129.01042 144.343403 
L 129.728666 149.41377 
L 130.649099 154.451359 
L 131.770245 159.448111 
L 133.090311 164.396033 
L 134.607185 169.287208 
L 136.318441 174.113812 
L 138.22134 178.868123 
L 140.312839 183.542536 
L 142.589592 188.129572 
L 145.047956 192.621893 
L 147.683999 197.012312 
L 150.493503 201.293806 
L 153.471974 205.459524 
L 156.614647 209.502804 
L 159.916494 213.417176 
L 163.372233 217.196378 
L 166.976335 220.834365 
L 170.723036 224.325316 
L 174.60634 227.663647 
L 178.620035 230.844016 
L 182.757701 233.861336 
L 187.012718 236.710781 
L 191.378279 239.387791 
L 195.847399 241.888084 
L 200.41293 244.207659 
L 205.067567 246.342807 
L 209.803864 248.290111 
L 214.614244 250.046456 
L 219.491011 251.609032 
L 224.426363 252.97534 
L 229.412406 254.143193 
L 234.441162 255.110723 
L 239.504586 255.876383 
L 244.594579 256.438948 
L 249.702996 256.797517 
L 254.821667 256.951517 
L 259.942401 256.900702 
L 265.057007 256.645153 
L 270.157303 256.185278 
L 275.235129 255.521814 
L 280.282362 254.655822 
L 285.290927 253.588687 
L 290.252812 252.322116 
L 295.160078 250.858136 
L 300.004876 249.199088 
L 304.779454 247.347628 
L 309.476174 245.306716 
L 314.087523 243.079618 
L 318.606123 240.669897 
L 323.024745 238.081407 
L 327.336321 235.31829 
L 330.260245 233.301595 
L 330.639198 228.194649 
L 330.813624 223.076634 
L 330.783245 217.955738 
L 330.548109 212.840153 
L 330.108592 207.738062 
L 329.465397 202.657629 
L 328.619554 197.60698 
L 327.572415 192.594196 
L 326.325656 187.627297 
L 324.881272 182.714227 
L 323.241572 177.862847 
L 321.40918 173.080918 
L 319.387028 168.37609 
L 317.178351 163.755891 
L 314.786681 159.22771 
L 312.215846 154.798793 
L 309.469958 150.476224 
L 306.553409 146.26692 
L 303.470866 142.177613 
L 300.22726 138.214846 
L 296.827781 134.384958 
L 293.277865 130.694077 
L 289.583194 127.148107 
L 285.749677 123.752721 
L 281.783447 120.51335 
L 277.690849 117.435178 
L 273.478431 114.523128 
L 269.152931 111.781859 
L 264.72127 109.215756 
L 260.190537 106.828926 
L 255.56798 104.625186 
L 250.860995 102.608061 
L 246.077111 100.780779 
L 241.223982 99.146263 
L 236.309372 97.707128 
L 231.341143 96.465676 
L 226.327244 95.423893 
L 221.275694 94.583446 
L 216.194577 93.94568 
L 211.09202 93.511614 
L 205.976186 93.281943 
L 200.85526 93.257035 
L 195.737435 93.436929 
L 190.630897 93.821337 
L 185.543815 94.409645 
L 180.484329 95.200912 
L 175.460532 96.193871 
L 170.480462 97.386934 
L 165.552085 98.778192 
L 160.683285 100.36542 
L 155.881852 102.146079 
L 151.155468 104.117319 
L 147.925394 105.594821 
L 148.440305 110.689855 
L 149.158551 115.760222 
L 150.078983 120.797812 
L 151.20013 125.794564 
L 152.520196 130.742485 
L 154.03707 135.633661 
L 155.748325 140.460265 
L 157.651225 145.214576 
L 159.742724 149.888988 
L 162.019477 154.476024 
L 164.477841 158.968345 
L 167.113884 163.358764 
L 169.923388 167.640258 
L 172.901859 171.805977 
L 176.044531 175.849257 
L 179.346378 179.763629 
L 182.802117 183.542831 
L 186.576713 187.345858 
L 185.178113 192.272157 
L 183.977632 197.250444 
L 182.977189 202.272756 
L 182.178386 207.331058 
L 181.582499 212.417257 
L 181.190483 217.523217 
L 181.002965 222.640769 
L 181.020244 227.761726 
L 181.242292 232.877896 
L 181.668756 237.981094 
L 182.298951 243.063156 
L 183.131871 248.115952 
L 184.166183 253.131398 
L 185.400232 258.101471 
L 186.832043 263.01822 
L 188.459327 267.873779 
L 190.279479 272.660379 
L 192.289589 277.370365 
L 194.48644 281.9962 
L 196.255656 285.408 
L 198.590358 280.850186 
L 200.740928 276.202654 
L 202.703927 271.47284 
L 204.476213 266.668311 
L 206.054951 261.796752 
L 207.437616 256.865957 
L 208.621996 251.883814 
L 209.606197 246.858294 
L 210.388642 241.797437 
L 210.968082 236.709338 
L 211.343588 231.602137 
L 211.51456 226.484006 
L 211.480725 221.363131 
L 211.411921 219.364731 
L 207.019285 221.997078 
L 202.735428 224.802978 
L 198.567204 227.777942 
L 194.521282 230.917211 
L 190.604132 234.215763 
L 186.822023 237.66832 
L 183.181005 241.26936 
L 179.686902 245.013121 
L 176.345304 248.893614 
L 173.161558 252.904632 
L 170.140757 257.039757 
L 167.287732 261.292374 
L 164.60705 265.655681 
L 162.690841 269.035684 
L 167.811804 269.051192 
L 172.929291 268.861903 
L 178.035115 268.468121 
L 183.121108 267.870475 
L 188.179132 267.069922 
L 193.201098 266.067742 
L 198.17897 264.865539 
L 203.104785 263.465235 
L 207.970662 261.869072 
L 212.768818 260.079602 
L 217.491576 258.099689 
L 222.131381 255.932499 
L 226.680811 253.5815 
L 231.132586 251.050453 
L 235.479585 248.343407 
L 239.714855 245.464693 
L 243.831618 242.418916 
L 247.82329 239.210948 
L 251.683485 235.845922 
L 255.406027 232.329222 
L 258.984961 228.666472 
L 262.414561 224.863533 
L 265.68934 220.926488 
L 268.804061 216.861637 
L 271.753739 212.675481 
L 274.392274 208.602816 
L 278.339243 205.340004 
L 282.152576 201.921966 
L 285.826175 198.354168 
L 289.354161 194.64232 
L 292.73089 190.792359 
L 295.950962 186.810445 
L 299.009223 182.702947 
L 301.900782 178.476437 
L 304.621013 174.137676 
L 307.165564 169.693605 
L 309.530364 165.151335 
L 311.71163 160.518131 
L 313.705872 155.801405 
L 315.509901 151.008704 
L 317.120829 146.147695 
L 318.536081 141.226154 
L 319.753391 136.251955 
L 320.770813 131.233055 
L 321.586718 126.177484 
L 322.199802 121.093329 
L 322.609084 115.988724 
L 322.813908 110.871836 
L 322.813948 105.750849 
L 322.715999 102.687388 
L 318.343637 100.021502 
L 313.868165 97.532595 
L 309.296744 95.224651 
L 304.636686 93.101361 
L 299.895447 91.166121 
L 295.080611 89.422029 
L 290.199881 87.871874 
L 285.261066 86.518136 
L 280.272066 85.362981 
L 275.240863 84.408257 
L 270.175506 83.65549 
L 265.084098 83.105887 
L 259.974784 82.760324 
L 254.855738 82.619357 
L 249.73515 82.683209 
L 244.621211 82.951779 
L 239.522102 83.424637 
L 234.445982 84.101027 
L 229.40097 84.979867 
L 224.395138 86.05975 
L 219.436494 87.33895 
L 214.532971 88.815419 
L 209.692413 90.486795 
L 204.922564 92.350406 
L 200.231055 94.403269 
L 195.625392 96.6421 
L 191.112941 99.063317 
L 186.700923 101.663048 
L 182.396396 104.437133 
L 178.206246 107.381134 
L 174.137176 110.490342 
L 170.195696 113.759782 
L 166.388112 117.184224 
L 162.720514 120.75819 
L 159.198771 124.475961 
L 155.828516 128.331591 
L 152.61514 132.318911 
L 149.563786 136.431542 
L 146.679333 140.662906 
L 143.966397 145.006232 
L 141.429318 149.454572 
L 139.072155 154.00081 
L 136.898678 158.637673 
L 134.912364 163.357743 
L 133.116392 168.153469 
L 131.513635 173.017179 
L 130.106656 177.941091 
L 128.897706 182.917329 
L 127.88872 187.937931 
L 127.081311 192.994866 
L 126.476772 198.080044 
L 126.076069 203.185329 
L 125.964973 205.424615 
L 130.547301 207.710829 
L 135.217387 209.811971 
L 139.967761 211.724678 
L 144.790824 213.44589 
L 149.678858 214.972855 
L 154.624045 216.30313 
L 159.618473 217.434585 
L 164.654152 218.365412 
L 169.723026 219.09412 
L 174.816986 219.619545 
L 179.927883 219.940845 
L 185.04754 220.057507 
L 190.167768 219.969344 
L 195.280374 219.676497 
L 200.37718 219.179435 
L 205.450032 218.478952 
L 208.900201 217.883545 
L 210.333369 222.799898 
L 211.961992 227.655008 
L 213.783465 232.441106 
L 215.794874 237.150537 
L 217.993001 241.775765 
L 220.37433 246.309392 
L 222.93505 250.744166 
L 225.671066 255.07299 
L 228.578 259.28894 
L 231.651202 263.385272 
L 234.885755 267.355431 
L 238.276485 271.193067 
L 241.817968 274.892041 
L 245.504537 278.446434 
L 249.330294 281.850561 
L 253.683056 285.408 
L 257.654555 282.175092 
L 261.493596 278.785952 
L 265.194036 275.246002 
L 268.749957 271.560906 
L 272.155668 267.736559 
L 275.405722 263.779079 
L 278.494919 259.694796 
L 281.418318 255.490246 
L 284.171241 251.172154 
L 286.749284 246.747429 
L 289.148323 242.223149 
L 291.364521 237.606551 
L 293.394331 232.905022 
L 295.234506 228.126084 
L 296.882103 223.27738 
L 298.334485 218.366668 
L 299.58933 213.401805 
L 300.644629 208.390733 
L 301.498695 203.341468 
L 302.150161 198.262089 
L 302.597985 193.160721 
L 302.84145 188.045525 
L 302.880167 182.924685 
L 302.714075 177.806393 
L 302.343438 172.698837 
L 301.768849 167.610188 
L 300.991229 162.548586 
L 300.011821 157.52213 
L 298.832191 152.538861 
L 297.454228 147.60675 
L 295.880134 142.733688 
L 294.11243 137.927471 
L 292.153942 133.195788 
L 290.007803 128.546208 
L 287.677448 123.98617 
L 285.166604 119.522969 
L 282.479288 115.163745 
L 279.619799 110.915472 
L 276.592711 106.784946 
L 273.402868 102.778775 
L 270.055373 98.903369 
L 266.55558 95.164926 
L 262.909089 91.569429 
L 259.121733 88.122628 
L 255.199571 84.830038 
L 251.148878 81.696926 
L 246.976134 78.728305 
L 242.688015 75.928924 
L 238.29138 73.303261 
L 233.793264 70.855517 
L 229.200862 68.589608 
L 224.521521 66.509158 
L 219.762727 64.617495 
L 217.083774 63.648 
L 212.284068 65.433308 
L 207.559595 67.409125 
L 202.917912 69.57229 
L 198.366446 71.919343 
L 193.912477 74.446528 
L 189.563132 77.149803 
L 185.325367 80.024843 
L 181.205964 83.067049 
L 177.211511 86.271554 
L 173.3484 89.633231 
L 169.62281 93.146702 
L 166.040701 96.806346 
L 162.607804 100.60631 
L 159.329611 104.540513 
L 156.211367 108.602662 
L 153.258059 112.786258 
L 150.474413 117.084609 
L 147.864882 121.490837 
L 145.433641 125.997894 
L 143.184578 130.59857 
L 141.121292 135.285505 
L 139.247084 140.051199 
L 137.564952 144.88803 
L 136.077588 149.78826 
L 134.78737 154.744048 
L 133.696363 159.747468 
L 132.806311 164.790513 
L 132.11864 169.865118 
L 131.634449 174.963163 
L 131.354513 180.076492 
L 131.279279 185.196926 
L 131.408868 190.316272 
L 131.743073 195.426342 
L 132.281358 200.518959 
L 133.022864 205.585977 
L 133.966403 210.619289 
L 135.110466 215.610844 
L 136.453223 220.552656 
L 137.992526 225.43682 
L 138.704635 227.490356 
L 142.100209 231.323707 
L 145.646361 235.018205 
L 149.337416 238.567939 
L 153.16747 241.967231 
L 157.130397 245.210642 
L 161.219855 248.292984 
L 165.429303 251.209326 
L 169.752006 253.955003 
L 174.181049 256.525621 
L 178.709347 258.917068 
L 183.329655 261.125519 
L 188.034582 263.14744 
L 192.816601 264.979597 
L 197.668061 266.619059 
L 202.581202 268.063202 
L 207.548163 269.309718 
L 212.560998 270.356611 
L 217.611688 271.202206 
L 222.692153 271.845151 
L 227.794265 272.284418 
L 232.909862 272.519303 
L 238.030759 272.549431 
L 243.148766 272.374753 
L 248.255693 271.99555 
L 253.343371 271.412427 
L 258.403661 270.626318 
L 263.428468 269.63848 
L 268.409752 268.450494 
L 273.339544 267.06426 
L 278.209959 265.481995 
L 283.013204 263.706231 
L 287.741596 261.739809 
L 292.387569 259.585875 
L 296.943692 257.247875 
L 301.402675 254.729548 
L 305.757386 252.034924 
L 310.000857 249.168313 
L 314.126299 246.134302 
L 318.127114 242.937743 
L 321.9969 239.583752 
L 325.729467 236.077694 
L 329.318843 232.425177 
L 332.759287 228.632045 
L 333.351446 227.947477 
L 334.950606 223.082583 
L 336.353943 218.157631 
L 337.559211 213.180501 
L 338.564483 208.159153 
L 339.368151 203.101622 
L 339.968929 198.015999 
L 340.365855 192.910418 
L 340.558296 187.793049 
L 340.545942 182.672077 
L 340.328813 177.555696 
L 339.907258 172.45209 
L 339.28195 167.369424 
L 338.45389 162.31583 
L 337.424402 157.299391 
L 336.195134 152.328134 
L 334.768052 147.41001 
L 333.145439 142.552889 
L 331.32989 137.76454 
L 329.324311 133.052624 
L 327.13191 128.424678 
L 324.756194 123.888107 
L 322.200964 119.450168 
L 319.470308 115.117961 
L 316.568594 110.898417 
L 313.500464 106.798285 
L 310.270826 102.824125 
L 306.884849 98.982296 
L 303.347947 95.278942 
L 299.66578 91.719989 
L 295.844238 88.31113 
L 291.889434 85.057819 
L 287.807697 81.96526 
L 283.605555 79.038401 
L 279.289731 76.281923 
L 274.86713 73.700238 
L 270.344826 71.297475 
L 265.730055 69.077477 
L 261.030199 67.043797 
L 256.252777 65.199687 
L 251.717664 63.648 
L 246.874563 65.311994 
L 242.101878 67.16833 
L 237.407245 69.214037 
L 232.798173 71.445844 
L 228.282037 73.860179 
L 223.86606 76.453179 
L 219.557308 79.220698 
L 215.362674 82.158307 
L 211.288868 85.261307 
L 207.342408 88.524734 
L 203.529607 91.943366 
L 199.856564 95.511736 
L 196.329157 99.224133 
L 192.953027 103.07462 
L 189.733576 107.057036 
L 186.675954 111.16501 
L 183.785053 115.391971 
L 181.065499 119.731156 
L 178.52164 124.175622 
L 176.157548 128.718261 
L 173.977003 133.351805 
L 171.983496 138.068841 
L 170.180214 142.861823 
L 168.570042 147.723083 
L 167.155557 152.644845 
L 165.939022 157.619233 
L 164.922382 162.638292 
L 164.107264 167.69399 
L 163.494972 172.77824 
L 163.086486 177.882909 
L 162.882459 182.999829 
L 162.883217 188.120815 
L 163.088759 193.237675 
L 163.498757 198.342223 
L 164.112554 203.426291 
L 164.929169 208.481748 
L 165.947295 213.500505 
L 167.165303 218.474533 
L 168.581246 223.395875 
L 170.192856 228.256659 
L 171.997557 233.049106 
L 173.992462 237.765552 
L 176.174378 242.39845 
L 178.539815 246.940389 
L 181.08499 251.384102 
L 183.805829 255.722481 
L 186.697981 259.948586 
L 189.756819 264.055654 
L 192.977449 268.037117 
L 196.354719 271.886604 
L 199.883226 275.597957 
L 203.557325 279.165239 
L 207.371138 282.582742 
L 210.770793 285.408 
L 214.700306 282.124187 
L 218.495358 278.685861 
L 222.149878 275.098525 
L 225.65802 271.367916 
L 229.014171 267.500002 
L 232.212962 263.500973 
L 235.249276 259.377225 
L 238.118256 255.135355 
L 240.815311 250.78215 
L 243.336126 246.324573 
L 245.67667 241.769756 
L 247.833198 237.124986 
L 249.802259 232.397693 
L 251.580704 227.59544 
L 253.128405 222.848525 
L 257.412765 225.653656 
L 261.805874 228.285214 
L 266.300702 230.73899 
L 270.89006 233.011058 
L 275.566606 235.097784 
L 280.322858 236.995828 
L 285.151206 238.702155 
L 290.043928 240.214034 
L 294.993195 241.529047 
L 299.991089 242.645091 
L 305.029616 243.560379 
L 310.100713 244.273448 
L 315.19627 244.783157 
L 320.308134 245.08869 
L 323.405597 245.174193 
L 320.689329 240.83295 
L 317.80163 236.603801 
L 314.74712 232.493513 
L 311.530686 228.50866 
L 308.157473 224.655618 
L 304.632877 220.94055 
L 300.962538 217.3694 
L 297.152326 213.947882 
L 293.208339 210.681467 
L 289.136884 207.575383 
L 284.944475 204.634599 
L 280.637821 201.863818 
L 279.789902 201.346492 
L 285.301866 204.600868 
L 289.824261 207.00346 
L 294.439116 209.223282 
L 299.13905 211.256784 
L 303.916542 213.100712 
L 308.76395 214.752116 
L 313.673519 216.208355 
L 318.637396 217.467098 
L 323.647637 218.526333 
L 328.69623 219.384363 
L 333.775096 220.039818 
L 337.70545 220.406121 
L 334.725342 216.241573 
L 331.58108 212.199529 
L 328.277695 208.286455 
L 324.820471 204.508612 
L 321.214938 200.872042 
L 317.466866 197.382564 
L 313.58225 194.04576 
L 309.567304 190.866969 
L 305.428453 187.851275 
L 301.172316 185.003504 
L 296.805704 182.32821 
L 292.335601 179.829674 
L 287.298954 177.286122 
L 292.095543 175.492456 
L 296.816567 173.508411 
L 301.454475 171.337164 
L 306.001845 168.982186 
L 310.451405 166.447246 
L 314.796035 163.736398 
L 319.028784 160.85398 
L 323.142882 157.804603 
L 327.131746 154.593145 
L 330.988996 151.224744 
L 334.70846 147.704788 
L 338.284188 144.038909 
L 341.71046 140.232971 
L 343.306361 138.350941 
L 338.277606 139.318476 
L 333.291564 140.486334 
L 328.356213 141.852646 
L 323.479447 143.415226 
L 318.669069 145.171575 
L 313.932774 147.118883 
L 309.278138 149.254035 
L 304.71261 151.573615 
L 300.243491 154.073911 
L 295.877933 156.750925 
L 291.622919 159.600373 
L 287.485256 162.617697 
L 286.196141 163.610837 
L 291.201237 164.694129 
L 296.245649 165.576404 
L 301.321307 166.25625 
L 306.420093 166.732581 
L 311.533848 167.004633 
L 316.654391 167.071972 
L 321.773532 166.934491 
L 326.88308 166.592408 
L 331.974861 166.046271 
L 337.04073 165.296954 
L 342.072582 164.345656 
L 347.062367 163.193898 
L 352.002103 161.843524 
L 356.123956 160.551667 
L 352.365169 164.029601 
L 348.748469 167.655064 
L 345.279642 171.422256 
L 341.964237 175.325152 
L 338.807558 179.357506 
L 335.814656 183.512868 
L 332.990317 187.784591 
L 330.339061 192.16584 
L 327.865129 196.649607 
L 325.572479 201.228718 
L 323.464778 205.895847 
L 321.545399 210.643529 
L 319.817412 215.464168 
L 318.28358 220.350052 
L 316.94636 225.293365 
L 315.807888 230.286199 
L 314.869987 235.320565 
L 314.134158 240.38841 
L 313.601576 245.481627 
L 313.273095 250.592068 
L 313.14924 255.711556 
L 313.230209 260.831902 
L 313.308898 262.662189 
L 308.798894 265.087959 
L 304.389501 267.69214 
L 300.087776 270.470568 
L 295.900599 273.418796 
L 291.834668 276.532108 
L 287.89649 279.805524 
L 284.092363 283.233806 
L 281.830915 285.408 
L 278.111924 281.887545 
L 274.255127 278.518625 
L 270.266694 275.306631 
L 266.153006 272.256701 
L 261.920643 269.373715 
L 257.576378 266.662283 
L 253.127159 264.126745 
L 248.580105 261.771157 
L 243.942489 259.599286 
L 239.221731 257.614608 
L 234.425384 255.820297 
L 229.561119 254.219224 
L 224.63672 252.813951 
L 219.660064 251.606725 
L 214.639112 250.599478 
L 209.581897 249.793821 
L 204.49651 249.191043 
L 199.391087 248.792109 
L 194.273793 248.597656 
L 189.152817 248.607996 
L 184.036351 248.823112 
L 178.93258 249.24266 
L 173.849668 249.865969 
L 168.795749 250.692042 
L 163.778905 251.719556 
L 158.807165 252.946869 
L 154.17368 254.283528 
L 157.858953 250.727792 
L 161.399087 247.027528 
L 164.788419 243.188656 
L 168.021525 239.217318 
L 171.093234 235.119867 
L 173.998631 230.902858 
L 176.733069 226.573037 
L 179.292173 222.137331 
L 181.67185 217.602836 
L 183.868291 212.976806 
L 185.877984 208.266643 
L 187.697712 203.479881 
L 189.324566 198.624179 
L 189.942546 196.59034 
L 185.174378 194.722434 
L 180.335328 193.046697 
L 175.433136 191.565812 
L 170.475647 190.282146 
L 165.470789 189.197754 
L 160.426571 188.31437 
L 155.351062 187.633408 
L 150.252382 187.155956 
L 145.138687 186.88278 
L 140.018158 186.814315 
L 134.898988 186.950671 
L 129.789364 187.291631 
L 124.697463 187.836648 
L 119.63143 188.584851 
L 116.562747 189.139482 
L 119.840522 185.204931 
L 122.958336 181.142451 
L 125.9112 176.958542 
L 128.69439 172.659896 
L 131.303453 168.253391 
L 133.734217 163.746075 
L 135.982791 159.145161 
L 138.04558 154.458008 
L 139.919282 149.692114 
L 141.600901 144.855105 
L 143.087746 139.954717 
L 144.377438 134.998792 
L 145.467914 129.995257 
L 146.35743 124.952117 
L 147.044563 119.87744 
L 147.528213 114.779343 
L 147.807607 109.665984 
L 147.883457 105.667458 
L 152.257374 103.004124 
L 156.521288 100.16801 
L 160.668377 97.163654 
L 164.692006 93.995862 
L 168.585739 90.669701 
L 172.343347 87.190493 
L 175.958818 83.563804 
L 179.426367 79.795436 
L 182.740449 75.891417 
L 185.895761 71.857993 
L 188.887254 67.701616 
L 191.571314 63.648 
L 194.402853 67.914953 
L 197.40276 72.065261 
L 200.566235 76.092286 
L 203.888218 79.989584 
L 207.363394 83.75092 
L 210.986204 87.370278 
L 214.750852 90.841867 
L 218.651314 94.160134 
L 222.681352 97.319769 
L 226.834518 100.315719 
L 231.104169 103.143189 
L 235.483472 105.797658 
L 239.965423 108.274877 
L 244.542851 110.570885 
L 249.208434 112.682009 
L 253.954707 114.60487 
L 258.774077 116.336392 
L 263.658835 117.873806 
L 268.601166 119.214652 
L 273.593163 120.356785 
L 278.62684 121.298378 
L 283.694144 122.037924 
L 288.786969 122.574241 
L 293.897168 122.90647 
L 299.016564 123.03408 
L 304.136968 122.956866 
L 309.250189 122.674953 
L 314.348046 122.188791 
L 319.422384 121.499157 
L 324.465085 120.607156 
L 329.468083 119.514215 
L 332.056534 118.865669 
L 328.53036 122.579239 
L 325.15551 126.430848 
L 321.937383 130.414333 
L 318.881127 134.523324 
L 315.991632 138.751245 
L 313.273519 143.091333 
L 310.731138 147.536646 
L 308.368556 152.08007 
L 306.189552 156.714338 
L 304.197613 161.432037 
L 302.395924 166.225618 
L 300.787368 171.087413 
L 299.37452 176.009644 
L 298.159638 180.984437 
L 297.144666 186.003833 
L 296.331229 191.059802 
L 295.720627 196.144255 
L 295.313837 201.249059 
L 295.111511 206.366047 
L 295.113971 211.487033 
L 295.321214 216.603824 
L 295.732909 221.708235 
L 296.348396 226.7921 
L 297.166691 231.847284 
L 298.186485 236.865703 
L 299.406147 241.839326 
L 300.823725 246.760197 
L 302.436951 251.620444 
L 304.243245 256.412292 
L 306.239717 261.128074 
L 308.423173 265.760247 
L 309.87834 268.604089 
L 304.766014 268.901794 
L 299.669683 269.403698 
L 294.597499 270.109001 
L 289.557577 271.016572 
L 284.557979 272.12496 
L 279.606704 273.432393 
L 274.711673 274.936777 
L 269.880717 276.635708 
L 265.121564 278.526466 
L 260.441829 280.606027 
L 255.848996 282.871064 
L 251.192736 285.408 
L 246.69763 282.954733 
L 242.108015 280.683184 
L 237.431233 278.596988 
L 232.674766 276.699482 
L 227.846224 274.993702 
L 222.953332 273.482377 
L 218.003916 272.167924 
L 213.005896 271.052446 
L 207.967266 270.137728 
L 202.896087 269.425233 
L 197.800472 268.916101 
L 192.688574 268.611147 
L 187.56857 268.510858 
L 182.44865 268.615394 
L 177.337007 268.924589 
L 172.241817 269.437949 
L 167.171231 270.15465 
L 163.690563 270.767252 
L 166.956647 266.822991 
L 170.06239 262.751277 
L 173.002824 258.558622 
L 175.773245 254.251736 
L 178.369219 249.837507 
L 180.786596 245.322998 
L 183.021506 240.71543 
L 185.070375 236.022176 
L 186.929926 231.250743 
L 188.597182 226.408764 
L 190.069477 221.503986 
L 191.344456 216.544255 
L 192.420078 211.537506 
L 193.294624 206.491748 
L 193.749398 203.235851 
L 188.768861 202.044737 
L 183.744676 201.053743 
L 178.684881 200.264456 
L 173.59757 199.678139 
L 168.490882 199.295728 
L 163.372986 199.117837 
L 158.25207 199.144749 
L 153.136327 199.376422 
L 148.03394 199.812484 
L 142.953072 200.452239 
L 137.901852 201.294662 
L 132.888361 202.338407 
L 127.920618 203.581802 
L 125.325108 204.316335 
L 128.962539 200.711672 
L 132.452912 196.964434 
L 135.790644 193.080615 
L 138.970395 189.066429 
L 141.987078 184.928298 
L 144.835866 180.672842 
L 147.512203 176.306869 
L 150.011807 171.837363 
L 152.330679 167.271475 
L 154.465109 162.616509 
L 156.411683 157.879912 
L 158.167286 153.069261 
L 159.729111 148.192253 
L 161.094658 143.25669 
L 162.261742 138.270468 
L 163.228498 133.241563 
L 163.993377 128.17802 
L 164.555158 123.087941 
L 164.912939 117.979469 
L 165.066151 112.860775 
L 165.014546 107.740048 
L 164.758208 102.625481 
L 164.297548 97.525257 
L 163.633301 92.447533 
L 162.76653 87.400434 
L 161.589145 81.92851 
L 166.466342 80.367276 
L 171.277205 78.612256 
L 176.014038 76.666256 
L 180.669263 74.53239 
L 185.235432 72.214071 
L 189.705241 69.715009 
L 194.071538 67.039201 
L 198.327339 64.190928 
L 199.098415 63.648 
L 203.333121 66.527542 
L 207.679591 69.235438 
L 212.130872 71.767355 
L 216.679841 74.119243 
L 221.319223 76.287339 
L 226.041594 78.268176 
L 230.8394 80.058583 
L 235.704965 81.655698 
L 240.630506 83.056964 
L 245.608143 84.26014 
L 250.629913 85.263302 
L 255.687781 86.064843 
L 260.773657 86.663483 
L 265.879404 87.058263 
L 270.996853 87.248552 
L 276.117819 87.234046 
L 281.234109 87.014767 
L 286.337537 86.591066 
L 291.41994 85.963622 
L 296.473186 85.133437 
L 301.489191 84.101841 
L 306.459931 82.870483 
L 310.590023 81.684582 
L 306.916472 85.252427 
L 303.388535 88.964322 
L 300.011855 92.814327 
L 296.791837 96.796284 
L 293.733629 100.903822 
L 290.842126 105.13037 
L 288.121952 109.469167 
L 285.57746 113.913271 
L 283.212719 118.455573 
L 281.031514 123.088805 
L 279.037334 127.805557 
L 277.233368 132.598282 
L 275.622504 137.459312 
L 274.653202 140.748224 
L 279.706339 139.917377 
L 284.722209 138.885123 
L 289.692788 137.653113 
L 294.610124 136.223318 
L 299.466349 134.598027 
L 304.253696 132.779838 
L 308.964506 130.771661 
L 313.591241 128.576708 
L 318.126501 126.19849 
L 322.56303 123.640813 
L 326.893731 120.907768 
L 331.427484 117.776123 
L 326.796869 119.96288 
L 322.257405 122.333063 
L 317.816354 124.88288 
L 313.480821 127.608252 
L 309.257741 130.504819 
L 305.153872 133.567948 
L 301.175777 136.792737 
L 297.329822 140.174029 
L 293.622159 143.706412 
L 290.058719 147.384238 
L 286.645203 151.20162 
L 283.505368 155.003246 
L 288.602071 155.501358 
L 293.714617 155.795258 
L 298.834826 155.884476 
L 303.954507 155.768869 
L 309.06547 155.448622 
L 314.159539 154.924246 
L 319.228563 154.196582 
L 324.264434 153.266793 
L 329.259095 152.136366 
L 334.204555 150.807111 
L 339.092904 149.281153 
L 343.916321 147.560934 
L 347.744406 146.037861 
L 343.738238 149.227707 
L 339.862835 152.575206 
L 336.124395 156.075002 
L 332.528901 159.721497 
L 329.082103 163.508856 
L 325.789517 167.43102 
L 322.656408 171.481716 
L 319.687791 175.654462 
L 316.888414 179.942584 
L 314.262755 184.339221 
L 311.815014 188.837339 
L 309.549109 193.429743 
L 307.468663 198.109086 
L 305.577005 202.867881 
L 303.877161 207.698516 
L 302.371851 212.593262 
L 301.063482 217.54429 
L 299.954148 222.543678 
L 299.045624 227.583428 
L 298.339363 232.655479 
L 297.836495 237.751715 
L 297.537824 242.863985 
L 297.443828 247.984108 
L 297.554658 253.103895 
L 297.870136 258.215155 
L 298.389757 263.309711 
L 299.112691 268.379412 
L 300.037781 273.416148 
L 301.163546 278.411861 
L 302.116525 282.047948 
L 297.184628 283.426679 
L 292.311811 285.001531 
L 291.15313 285.408 
L 286.295641 283.786489 
L 281.377194 282.360522 
L 276.405658 281.132381 
L 271.388986 280.104032 
L 266.335203 279.277118 
L 261.252396 278.652963 
L 256.148694 278.232565 
L 251.032264 278.016597 
L 245.91129 278.005405 
L 240.793964 278.199006 
L 235.688474 278.59709 
L 230.602987 279.199022 
L 225.545638 280.003837 
L 220.524519 281.010248 
L 215.547662 282.216645 
L 210.623029 283.621099 
L 205.758498 285.221362 
L 205.23088 285.408 
L 200.373391 283.786489 
L 195.454944 282.360522 
L 190.483407 281.132381 
L 185.466735 280.104032 
L 180.412953 279.277118 
L 175.330146 278.652963 
L 170.226444 278.232565 
L 167.930056 278.110271 
L 170.200639 273.520177 
L 172.28585 268.842957 
L 174.182355 264.086091 
L 175.887119 259.25719 
L 177.397415 254.36398 
L 178.710826 249.414288 
L 179.825252 244.416032 
L 180.738909 239.37721 
L 181.450337 234.305881 
L 181.958396 229.21016 
L 182.262275 224.098197 
L 182.361486 218.978172 
L 182.255872 213.858275 
L 181.945601 208.746696 
L 181.431169 203.651614 
L 180.7134 198.581179 
L 179.793442 193.543503 
L 178.672767 188.546646 
L 177.353167 183.5986 
L 175.836753 178.707282 
L 174.125952 173.880517 
L 172.2235 169.126027 
L 170.132441 164.451417 
L 167.85612 159.864167 
L 165.398178 155.371614 
L 162.762549 150.980947 
L 159.953448 146.699189 
L 156.975369 142.53319 
L 153.833077 138.489614 
L 150.531599 134.574931 
L 147.076216 130.795404 
L 143.472456 127.157078 
L 139.726084 123.665774 
L 138.245559 122.360786 
L 143.118619 123.934887 
L 148.050727 125.312859 
L 153.033995 126.492497 
L 158.060449 127.471914 
L 163.122049 128.249543 
L 168.210698 128.82414 
L 173.318253 129.194785 
L 178.436545 129.360887 
L 183.557385 129.322178 
L 188.672581 129.078722 
L 193.77395 128.630906 
L 198.85333 127.979449 
L 203.902597 127.125392 
L 208.913671 126.070101 
L 213.878536 124.815265 
L 218.78925 123.36289 
L 223.637956 121.715302 
L 228.416898 119.875135 
L 233.11843 117.845333 
L 237.735031 115.629143 
L 242.259316 113.230111 
L 246.684046 110.652075 
L 251.002142 107.89916 
L 255.206697 104.975768 
L 259.290985 101.886578 
L 263.248471 98.636531 
L 267.072824 95.230826 
L 270.757926 91.674912 
L 274.297882 87.974478 
L 277.687028 84.135443 
L 280.919943 80.163949 
L 283.991454 76.06635 
L 286.896649 71.849201 
L 289.630878 67.519248 
L 291.877102 63.648 
L 294.45832 68.070874 
L 297.214341 72.38699 
L 300.140756 76.589441 
L 303.232883 80.671506 
L 306.485776 84.626653 
L 309.894231 88.448555 
L 313.452794 92.131099 
L 317.155774 95.668392 
L 320.251224 98.418272 
L 321.301603 103.430378 
L 322.551573 108.396471 
L 323.999133 113.308606 
L 325.641969 118.158925 
L 327.477452 122.939668 
L 329.502645 127.643187 
L 331.714309 132.261958 
L 334.108905 136.788592 
L 336.682603 141.215846 
L 339.431285 145.536638 
L 342.350554 149.744057 
L 345.43574 153.83137 
L 348.681907 157.792039 
L 352.083862 161.619728 
L 355.636163 165.308314 
L 359.333126 168.851895 
L 362.588752 171.749021 
L 363.431844 175.846699 
L 358.577865 177.478688 
L 353.79303 179.303479 
L 349.084996 181.318152 
L 344.461292 183.519485 
L 339.929317 185.903956 
L 335.49632 188.467751 
L 331.169394 191.206767 
L 326.95546 194.116623 
L 322.86126 197.192664 
L 318.893344 200.429969 
L 315.058059 203.823359 
L 311.361542 207.367405 
L 307.809705 211.056437 
L 304.408231 214.884554 
L 301.162563 218.845632 
L 298.077891 222.933333 
L 295.159151 227.141118 
L 292.411012 231.462256 
L 289.837871 235.889834 
L 287.443844 240.416769 
L 285.232761 245.035818 
L 283.20816 249.739592 
L 281.373278 254.520566 
L 279.731053 259.371092 
L 278.28411 264.283409 
L 277.034765 269.249659 
L 275.985016 274.261897 
L 275.136543 279.312104 
L 274.490704 284.392202 
L 274.386254 285.408 
L 273.780952 280.322913 
L 272.972784 275.266099 
L 271.963045 270.245648 
L 270.753348 265.269592 
L 269.345631 260.345891 
L 267.742143 255.482422 
L 265.945452 250.686965 
L 263.95843 245.967193 
L 261.784257 241.330656 
L 259.426412 236.784772 
L 256.888665 232.336812 
L 254.175078 227.993893 
L 251.109968 223.510633 
L 251.06675 228.631437 
L 251.228343 233.749873 
L 251.594491 238.857753 
L 252.164606 243.946905 
L 252.937776 249.009188 
L 253.912766 254.036503 
L 255.088015 259.020808 
L 256.461642 263.954128 
L 258.031452 268.828572 
L 259.794931 273.636341 
L 261.749259 278.369744 
L 263.891309 283.021208 
L 265.079713 285.408 
L 267.318161 280.80215 
L 269.370633 276.11047 
L 271.233846 271.340466 
L 272.904819 266.499768 
L 274.380879 261.596122 
L 275.659665 256.637372 
L 276.739132 251.63145 
L 277.617551 246.586365 
L 278.293518 241.510188 
L 278.765951 236.41104 
L 279.034095 231.297079 
L 279.097521 226.176485 
L 278.956126 221.057451 
L 278.610138 215.948166 
L 278.06011 210.856804 
L 277.306922 205.791509 
L 277.199197 205.164322 
L 282.27312 204.471639 
L 287.315284 203.576607 
L 292.317623 202.480659 
L 297.272135 201.185547 
L 302.170893 199.693344 
L 307.00606 198.006436 
L 311.769902 196.127522 
L 316.454796 194.059608 
L 321.053248 191.806003 
L 325.557902 189.370311 
L 329.961551 186.756429 
L 334.25715 183.968539 
L 338.437828 181.011101 
L 342.496895 177.888847 
L 346.427858 174.60677 
L 350.22443 171.170122 
L 353.880535 167.5844 
L 357.390324 163.855342 
L 357.780833 163.421462 
L 352.791173 164.573763 
L 347.851585 165.924676 
L 342.969969 167.472038 
L 338.154136 169.213376 
L 333.41179 171.145902 
L 328.750519 173.266526 
L 324.177777 175.571855 
L 319.700883 178.0582 
L 315.326996 180.721585 
L 311.063115 183.557749 
L 306.916061 186.562153 
L 302.892469 189.729992 
L 298.998774 193.056198 
L 295.241207 196.53545 
L 291.625779 200.162181 
L 288.158273 203.930589 
L 284.844237 207.834647 
L 281.688972 211.868108 
L 278.697527 216.02452 
L 275.874687 220.297232 
L 273.224967 224.679411 
L 270.752608 229.164045 
L 268.461563 233.743959 
L 266.355499 238.411828 
L 264.437785 243.160183 
L 262.711488 247.981427 
L 261.17937 252.867849 
L 259.843883 257.81163 
L 258.707162 262.804863 
L 257.771027 267.839558 
L 257.036974 272.907661 
L 256.506179 278.001064 
L 256.17949 283.111619 
L 256.099397 285.408 
L 256.059853 284.128284 
L 255.773787 279.015294 
L 255.283486 273.917833 
L 254.589732 268.844057 
L 253.693636 263.802082 
L 252.596632 258.799974 
L 251.300474 253.845735 
L 249.807237 248.947292 
L 248.119308 244.112481 
L 246.239389 239.349037 
L 244.170486 234.664579 
L 241.91591 230.066602 
L 239.518143 225.63106 
L 237.694818 230.416453 
L 236.064315 235.270932 
L 234.629245 240.18673 
L 233.391902 245.155984 
L 232.354265 250.170744 
L 231.517996 255.222986 
L 230.884431 260.30463 
L 230.454585 265.407544 
L 230.229145 270.523566 
L 230.208471 275.64451 
L 230.392597 280.762185 
L 230.737749 285.408 
L 231.107935 280.300411 
L 231.273574 275.182104 
L 231.234404 270.061268 
L 230.990486 264.946093 
L 230.542211 259.844765 
L 229.890296 254.765443 
L 229.035784 249.716254 
L 227.980041 244.705276 
L 226.724757 239.740523 
L 225.27194 234.82994 
L 223.623915 229.981383 
L 221.783316 225.202607 
L 221.058517 223.464133 
L 216.802676 226.312347 
L 212.664139 229.328472 
L 208.649524 232.507681 
L 204.765256 235.84489 
L 201.017547 239.334758 
L 197.412393 242.971703 
L 193.955562 246.749906 
L 190.652584 250.663324 
L 187.508743 254.705695 
L 184.529068 258.870553 
L 181.718327 263.151235 
L 179.081016 267.540892 
L 176.621354 272.032502 
L 174.343275 276.61888 
L 172.250425 281.292688 
L 171.217109 283.803614 
L 176.298904 284.435964 
L 181.401921 284.86459 
L 186.517996 285.088808 
L 191.638946 285.108257 
L 196.756577 284.922908 
L 201.862702 284.533056 
L 206.949153 283.939326 
L 212.007793 283.142666 
L 217.030529 282.144353 
L 222.009325 280.945982 
L 226.936216 279.54947 
L 231.803321 277.957053 
L 236.602853 276.171277 
L 241.327133 274.195 
L 245.968605 272.031383 
L 250.519843 269.683886 
L 254.973565 267.156267 
L 259.322647 264.452568 
L 263.560131 261.577115 
L 267.679238 258.534508 
L 271.673379 255.329614 
L 275.536163 251.967561 
L 279.26141 248.453726 
L 282.843163 244.793733 
L 286.275689 240.993435 
L 289.553498 237.058912 
L 292.671347 232.99646 
L 295.624247 228.812576 
L 298.407474 224.513954 
L 301.016576 220.107471 
L 303.447378 215.600177 
L 305.695992 210.999282 
L 307.758821 206.312147 
L 309.632565 201.546269 
L 311.314225 196.709274 
L 312.801112 191.8089 
L 314.090848 186.852986 
L 315.181367 181.84946 
L 316.070927 176.806328 
L 316.758104 171.731656 
L 317.241798 166.633564 
L 317.521236 161.520208 
L 317.595971 156.399767 
L 317.465883 151.280433 
L 317.13118 146.170396 
L 316.592398 141.077831 
L 315.850399 136.010886 
L 314.90637 130.977665 
L 313.76182 125.986221 
L 312.418582 121.04454 
L 310.878803 116.160527 
L 309.144948 111.341995 
L 307.219789 106.596654 
L 305.106408 101.932094 
L 302.808184 97.355778 
L 300.328795 92.875026 
L 297.672207 88.497008 
L 294.84267 84.228728 
L 291.84471 80.077012 
L 288.683124 76.048504 
L 285.36297 72.149648 
L 281.889559 68.386682 
L 278.268447 64.765625 
L 277.090317 63.648 
L 273.42357 67.222838 
L 269.902712 70.941448 
L 266.533375 74.79788 
L 263.320949 78.785965 
L 260.270573 82.899323 
L 257.387128 87.131372 
L 254.675226 91.475344 
L 252.139206 95.924288 
L 249.783125 100.471087 
L 247.610751 105.108468 
L 245.625562 109.82901 
L 243.830731 114.625164 
L 242.229131 119.489255 
L 241.054723 123.549166 
L 240.575919 118.450612 
L 239.89361 113.375284 
L 239.008889 108.3313 
L 237.923169 103.326731 
L 236.638189 98.369582 
L 235.156003 93.467783 
L 233.478983 88.629178 
L 231.609812 83.861505 
L 229.55148 79.172393 
L 227.30728 74.569343 
L 224.880802 70.059719 
L 222.275929 65.650736 
L 221.012256 63.648 
L 218.326284 68.008052 
L 215.816815 72.472027 
L 213.487865 77.032783 
L 211.34316 81.683024 
L 209.38613 86.41531 
L 207.619907 91.222072 
L 206.047316 96.095619 
L 204.670872 101.028154 
L 203.492779 106.011787 
L 202.514919 111.038545 
L 201.738859 116.100385 
L 201.165839 121.189211 
L 200.796776 126.296882 
L 200.632261 131.415225 
L 200.672557 136.536053 
L 200.705612 137.571455 
L 195.593072 137.277448 
L 190.472865 137.188123 
L 185.353181 137.303624 
L 180.242212 137.623764 
L 175.148132 138.148033 
L 170.079093 138.875592 
L 165.043203 139.805276 
L 160.048518 140.935598 
L 155.10303 142.264751 
L 150.214649 143.790606 
L 145.391197 145.510725 
L 140.640389 147.422354 
L 135.969826 149.522436 
L 131.38698 151.80761 
L 126.899182 154.274222 
L 122.513612 156.918325 
L 118.237286 159.735688 
L 115.584842 161.610299 
L 115.153518 166.713089 
L 114.926596 171.829045 
L 114.904439 176.949984 
L 115.087082 182.067712 
L 115.483495 187.270162 
L 119.709952 190.1618 
L 124.048662 192.882111 
L 128.492685 195.426744 
L 133.034912 197.791628 
L 137.668076 199.97298 
L 142.384764 201.96731 
L 147.177432 203.771428 
L 152.038411 205.382446 
L 156.959926 206.797789 
L 161.934103 208.015192 
L 166.952984 209.032707 
L 172.00854 209.848706 
L 177.092683 210.461884 
L 182.19728 210.87126 
L 187.314165 211.076179 
L 192.435151 211.076314 
L 197.552047 210.871663 
L 199.913467 210.707949 
L 199.604855 215.819628 
L 199.500902 220.939559 
L 199.601776 226.059552 
L 199.907313 231.171416 
L 200.417026 236.266972 
L 201.1301 241.338069 
L 202.045393 246.376595 
L 203.161441 251.374488 
L 204.476458 256.323754 
L 205.988342 261.216474 
L 207.694673 266.044821 
L 209.592721 270.801071 
L 211.679451 275.477615 
L 213.951523 280.066971 
L 216.405303 284.561798 
L 216.893763 285.408 
L 219.381773 280.93203 
L 221.688802 276.360146 
L 223.811158 271.699663 
L 225.745448 266.958036 
L 227.488575 262.142851 
L 229.037753 257.261811 
L 230.390501 252.322724 
L 231.544657 247.333493 
L 232.498374 242.302099 
L 233.250125 237.236591 
L 233.798709 232.145073 
L 234.143248 227.03569 
L 234.199389 225.703735 
L 234.100067 230.183567 
L 234.178584 235.303952 
L 234.461798 240.417101 
L 234.949258 245.514834 
L 235.640182 250.588997 
L 236.533466 255.631471 
L 237.627681 260.63419 
L 238.921075 265.58915 
L 240.411581 270.488425 
L 242.096814 275.324177 
L 243.974076 280.088669 
L 246.040366 284.774279 
L 246.337214 285.408 
L 248.429083 280.733753 
L 250.33236 275.979593 
L 252.043998 271.153124 
L 253.561259 266.262069 
L 254.881718 261.314253 
L 256.00326 256.317589 
L 256.924091 251.280073 
L 257.642739 246.209762 
L 258.158054 241.11477 
L 258.469212 236.003245 
L 258.575714 230.883366 
L 258.47739 225.763324 
L 258.183297 220.764071 
L 261.964778 224.217317 
L 265.881326 227.516582 
L 269.926677 230.656588 
L 274.094359 233.632311 
L 278.377705 236.438991 
L 282.769862 239.072137 
L 287.263803 241.527539 
L 291.852339 243.801266 
L 296.52813 245.889682 
L 301.283695 247.789446 
L 306.111426 249.497519 
L 311.003601 251.011167 
L 315.952392 252.32797 
L 318.882299 253.008776 
L 315.35373 249.297481 
L 311.679572 245.73026 
L 307.865703 242.31282 
L 303.918222 239.050627 
L 299.843447 235.948901 
L 295.647895 233.012603 
L 291.338278 230.246432 
L 286.921491 227.654812 
L 282.4046 225.241889 
L 277.794831 223.011523 
L 273.099558 220.967284 
L 268.326293 219.11244 
L 263.892941 217.582429 
L 263.420882 222.681611 
L 263.153112 227.795592 
L 263.090062 232.91619 
L 263.231831 238.035214 
L 263.578194 243.144474 
L 264.128595 248.235796 
L 264.882154 253.301035 
L 265.837666 258.332089 
L 266.993603 263.320907 
L 268.348114 268.259511 
L 269.899033 273.139997 
L 271.64388 277.95456 
L 273.579861 282.695496 
L 274.788867 285.408 
L 276.834286 280.713241 
L 278.69033 275.940443 
L 280.354028 271.09724 
L 281.822718 266.191382 
L 283.094052 261.230715 
L 284.165995 256.223177 
L 285.036833 251.176778 
L 285.705172 246.099591 
L 286.169943 240.999739 
L 286.430402 235.885381 
L 286.486134 230.764697 
L 286.337048 225.645882 
L 285.983383 220.537122 
L 285.425705 215.446592 
L 284.664907 210.382435 
L 283.702204 205.352752 
L 282.539139 200.365591 
L 281.830651 197.701077 
L 286.584329 195.796597 
L 291.258046 193.703543 
L 295.844324 191.425264 
L 300.335827 188.965406 
L 304.725369 186.327903 
L 309.005928 183.516976 
L 313.170656 180.537119 
L 317.21289 177.393102 
L 321.126164 174.089953 
L 324.904217 170.632958 
L 328.541004 167.027645 
L 332.030709 163.279784 
L 335.367748 159.39537 
L 338.546782 155.380617 
L 341.562726 151.241947 
L 344.410755 146.985983 
L 346.420084 143.744067 
L 341.302481 143.930197 
L 336.196415 144.320827 
L 331.110054 144.915333 
L 326.051536 145.712763 
L 321.028953 146.711843 
L 316.05034 147.910973 
L 311.123661 149.308235 
L 306.256799 150.901394 
L 301.45754 152.687902 
L 296.73356 154.664899 
L 292.092418 156.829224 
L 287.541539 159.177414 
L 285.379031 160.375728 
L 290.489434 160.046662 
L 295.58259 159.513499 
L 300.650352 158.77709 
L 305.684611 157.838613 
L 310.677314 156.699571 
L 315.620474 155.361785 
L 320.506182 153.827395 
L 325.326624 152.098857 
L 330.074086 150.178935 
L 334.740975 148.0707 
L 339.319824 145.777526 
L 343.803308 143.303082 
L 345.566046 142.26483 
L 338.42682 146.538632 
L 334.177052 149.395898 
L 330.044943 152.420825 
L 326.037105 155.608572 
L 322.159948 158.954041 
L 318.419676 162.451878 
L 314.822271 166.096488 
L 311.37349 169.882041 
L 308.078849 173.80248 
L 304.943619 177.851534 
L 301.972817 182.022724 
L 299.171193 186.309379 
L 296.543231 190.70464 
L 294.093135 195.201475 
L 291.824823 199.792691 
L 289.741926 204.470943 
L 287.847776 209.228747 
L 286.145401 214.058491 
L 284.637527 218.952448 
L 283.326565 223.902789 
L 282.214612 228.901595 
L 281.303448 233.940869 
L 280.59453 239.012549 
L 280.088992 244.108521 
L 279.787643 249.220634 
L 279.690965 254.340707 
L 279.799113 259.460552 
L 280.111913 264.571976 
L 280.628865 269.666803 
L 281.349143 274.736882 
L 282.271594 279.774102 
L 283.394742 284.770405 
L 283.553265 285.408 
L 284.702037 280.417527 
L 285.650324 275.385106 
L 286.396609 270.31879 
L 286.939699 265.226683 
L 287.278725 260.116931 
L 287.413143 254.997709 
L 287.34274 249.877207 
L 287.067628 244.763616 
L 286.588247 239.665116 
L 285.905363 234.589865 
L 285.02007 229.545982 
L 283.933784 224.541536 
L 282.648242 219.584532 
L 281.165501 214.682902 
L 279.487933 209.844486 
L 277.490359 204.770376 
L 282.599178 205.123181 
L 287.718019 205.271407 
L 292.838693 205.214814 
L 297.953007 204.953495 
L 303.052781 204.487867 
L 308.129855 203.818674 
L 313.176108 202.946989 
L 318.183466 201.874204 
L 323.143919 200.602036 
L 328.04953 199.13252 
L 332.892453 197.468008 
L 337.664939 195.611162 
L 342.359354 193.564953 
L 346.968187 191.332654 
L 351.484066 188.917837 
L 355.899765 186.324364 
L 358.229078 184.858154 
L 358.377311 179.739314 
L 358.320726 174.61864 
L 358.059413 169.504325 
L 357.593792 164.404551 
L 357.399827 162.76154 
L 353.254612 159.7546 
L 348.992467 156.915829 
L 344.62021 154.249769 
L 340.144837 151.760685 
L 335.573507 149.45256 
L 330.913533 147.329085 
L 326.17237 145.393658 
L 321.357604 143.649375 
L 316.476935 142.099026 
L 311.538174 140.745093 
L 306.54922 139.58974 
L 301.518055 138.634816 
L 296.452727 137.881849 
L 291.361341 137.332044 
L 286.252041 136.986279 
L 281.133 136.845109 
L 276.01241 136.908758 
L 271.177458 137.157189 
L 271.101913 132.03676 
L 270.821665 126.923447 
L 270.337164 121.825432 
L 269.649184 116.750869 
L 268.758826 111.707878 
L 267.667515 106.704525 
L 266.376995 101.748815 
L 264.889333 96.848676 
L 263.206907 92.011947 
L 261.332409 87.246366 
L 259.268838 82.559558 
L 257.019496 77.959018 
L 254.58798 73.452109 
L 251.978181 69.046039 
L 249.194273 64.747858 
L 248.44189 63.648 
L 245.613398 67.916974 
L 242.957882 72.295642 
L 240.479591 76.777 
L 238.182488 81.353879 
L 236.070249 86.018957 
L 234.146253 90.76477 
L 232.413578 95.583726 
L 230.874995 100.468116 
L 229.532967 105.410126 
L 228.38964 110.40185 
L 227.446843 115.435301 
L 226.706085 120.502429 
L 226.288115 124.275182 
L 223.817443 119.789618 
L 221.169373 115.406443 
L 218.34814 111.132668 
L 215.358259 106.975131 
L 212.204513 102.940483 
L 208.891946 99.035178 
L 205.425858 95.265465 
L 201.811795 91.637374 
L 198.055537 88.156708 
L 194.163095 84.829038 
L 190.140695 81.659685 
L 185.994771 78.65372 
L 181.731958 75.815952 
L 177.359074 73.150922 
L 172.883115 70.662892 
L 169.181836 68.777583 
L 173.486813 71.550969 
L 177.899253 74.149984 
L 182.412096 76.57047 
L 187.018123 78.808553 
L 191.709965 80.860655 
L 196.480116 82.723491 
L 201.320945 84.394082 
L 206.224708 85.869756 
L 211.18356 87.14815 
L 216.189567 88.227221 
L 221.234721 89.105242 
L 226.310951 89.780809 
L 231.410136 90.25284 
L 236.524119 90.52058 
L 241.644717 90.583601 
L 246.76374 90.441803 
L 251.872998 90.095411 
L 256.964317 89.544981 
L 262.029552 88.791393 
L 267.0606 87.835852 
L 272.049412 86.679888 
L 276.988008 85.325348 
L 281.868486 83.774401 
L 286.683038 82.029528 
L 291.423964 80.093519 
L 296.083677 77.969473 
L 300.654724 75.660787 
L 305.537142 72.932734 
L 301.678498 75.21081 
L 297.369396 77.977784 
L 293.17439 80.914862 
L 289.100192 84.017347 
L 285.153319 87.280274 
L 281.340085 90.698424 
L 277.666591 94.266329 
L 274.138714 97.97828 
L 270.762097 101.82834 
L 267.542142 105.810348 
L 264.484 109.917936 
L 261.592565 114.14453 
L 258.872461 118.483371 
L 256.32804 122.927516 
L 254.3678 126.660726 
L 254.530775 126.041654 
L 255.722743 121.061321 
L 256.714597 116.037306 
L 257.504751 110.977646 
L 258.09194 105.890435 
L 258.475225 100.783813 
L 258.653994 95.665948 
L 258.627959 90.545027 
L 258.397164 85.429245 
L 257.961975 80.326783 
L 257.323092 75.245806 
L 256.481534 70.194441 
L 255.438648 65.180771 
L 255.077765 63.648 
L 253.973297 68.648465 
L 253.069677 73.689097 
L 252.368352 78.761833 
L 251.870442 83.858556 
L 251.576746 88.971114 
L 251.487732 94.091326 
L 251.603544 99.211003 
L 251.923995 104.321953 
L 252.448574 109.416001 
L 253.17644 114.484996 
L 254.10643 119.52083 
L 255.237056 124.515445 
L 255.958547 127.29647 
L 260.372106 124.699356 
L 264.678277 121.927825 
L 268.870173 118.98631 
L 272.941086 115.879516 
L 276.884505 112.612414 
L 280.69412 109.190231 
L 284.363836 105.618442 
L 287.887784 101.90276 
L 291.260326 98.049129 
L 294.476065 94.063716 
L 297.529859 89.952895 
L 300.41682 85.723243 
L 303.132332 81.381527 
L 305.672049 76.934692 
L 306.717136 74.976545 
L 301.597391 74.863817 
L 296.477232 74.955915 
L 291.364853 75.252691 
L 286.26843 75.75367 
L 281.196118 76.458052 
L 276.156031 77.364708 
L 271.156233 78.472188 
L 266.20472 79.778721 
L 261.309416 81.282217 
L 256.478152 82.98027 
L 251.718656 84.870164 
L 247.038542 86.948876 
L 242.445299 89.213079 
L 237.946273 91.659152 
L 233.548664 94.283181 
L 229.259505 97.080969 
L 225.085658 100.048039 
L 221.033801 103.179646 
L 217.110417 106.470779 
L 213.32178 109.916172 
L 209.673954 113.510315 
L 206.172772 117.247457 
L 202.823837 121.121619 
L 199.632506 125.126605 
L 196.603884 129.256005 
L 193.742817 133.503216 
L 191.053881 137.861441 
L 188.541379 142.323709 
L 186.20933 146.882881 
L 184.061464 151.531663 
L 182.101218 156.262618 
L 180.331728 161.068178 
L 178.755825 165.940655 
L 177.376029 170.872254 
L 176.194548 175.855085 
L 175.213272 180.881177 
L 174.433771 185.942489 
L 173.857293 191.030924 
L 173.484758 196.138342 
L 173.316764 201.256572 
L 173.353579 206.377426 
L 173.595143 211.492712 
L 174.041072 216.594246 
L 174.690651 221.673867 
L 175.542841 226.723449 
L 176.596278 231.734913 
L 177.849278 236.700242 
L 179.299836 241.611492 
L 180.945631 246.460808 
L 182.784031 251.24043 
L 184.812094 255.942713 
L 187.026576 260.560133 
L 189.423935 265.085304 
L 192.000334 269.510987 
L 194.751652 273.830101 
L 197.673489 278.035738 
L 200.761168 282.121167 
L 203.439538 285.408 
L 206.660799 281.427047 
L 209.720287 277.320463 
L 212.613108 273.094817 
L 215.334634 268.756868 
L 217.880512 264.313558 
L 220.246669 259.771994 
L 222.429318 255.139441 
L 224.424969 250.423312 
L 226.230429 245.63115 
L 227.842809 240.770622 
L 229.259531 235.849504 
L 230.478326 230.875668 
L 231.555731 225.533888 
L 231.555853 226.174053 
L 231.67204 231.293721 
L 231.992867 236.404648 
L 232.517819 241.498657 
L 233.246058 246.567599 
L 234.176417 251.603364 
L 235.30741 256.597897 
L 236.637225 261.543207 
L 238.163737 266.431383 
L 239.884502 271.254605 
L 241.796769 276.005156 
L 243.897477 280.675437 
L 246.262011 285.408 
L 248.553862 280.828489 
L 250.660749 276.160992 
L 252.579301 271.412976 
L 254.306448 266.592035 
L 255.839427 261.705884 
L 257.175786 256.762338 
L 258.313387 251.769306 
L 259.250409 246.734776 
L 259.985355 241.666803 
L 260.517049 236.573493 
L 260.844638 231.462995 
L 260.967601 226.343485 
L 260.885739 221.223153 
L 260.808082 219.41978 
L 260.808082 219.41978 
" style="fill:none;stroke:#1f77b4;stroke-linecap:square;stroke-width:1.5;"/>
   </g>
   <g id="patch_4">
    <path d="M 82.520165 307.584 
L 82.520165 41.472 
" style="fill:none;stroke:#000000;stroke-linecap:square;stroke-linejoin:miter;stroke-width:0.8;"/>
   </g>
   <g id="patch_5">
    <path d="M 389.799835 307.584 
L 389.799835 41.472 
" style="fill:none;stroke:#000000;stroke-linecap:square;stroke-linejoin:miter;stroke-width:0.8;"/>
   </g>
   <g id="patch_6">
    <path d="M 82.520165 307.584 
L 389.799835 307.584 
" style="fill:none;stroke:#000000;stroke-linecap:square;stroke-linejoin:miter;stroke-width:0.8;"/>
   </g>
   <g id="patch_7">
    <path d="M 82.520165 41.472 
L 389.799835 41.472 
" style="fill:none;stroke:#000000;stroke-linecap:square;stroke-linejoin:miter;stroke-width:0.8;"/>
   </g>
  </g>
 </g>
 <defs>
  <clipPath id="p46ef695811">
   <rect height="266.112" width="307.27967" x="82.520165" y="41.472"/>
  </clipPath>
 </defs>
</svg>
