<?xml version="1.0" encoding="utf-8" standalone="no"?>
<!DOCTYPE svg PUBLIC "-//W3C//DTD SVG 1.1//EN"
  "http://www.w3.org/Graphics/SVG/1.1/DTD/svg11.dtd">
<!-- Created with matplotlib (http://matplotlib.org/) -->
<svg height="345.6pt" version="1.1" viewBox="0 0 460.8 345.6" width="460.8pt" xmlns="http://www.w3.org/2000/svg" xmlns:xlink="http://www.w3.org/1999/xlink">
 <defs>
  <style type="text/css">
*{stroke-linecap:butt;stroke-linejoin:round;}
  </style>
 </defs>
 <g id="figure_1">
  <g id="patch_1">
   <path d="M 0 345.6 
L 460.8 345.6 
L 460.8 0 
L 0 0 
z
" style="fill:#ffffff;"/>
  </g>
  <g id="axes_1">
   <g id="patch_2">
    <path d="M 82.520165 307.584 
L 389.799835 307.584 
L 389.799835 41.472 
L 82.520165 41.472 
z
" style="fill:#ffffff;"/>
   </g>
   <g id="PathCollection_1">
    <defs>
     <path d="M 0 2.738613 
C 0.726289 2.738613 1.422928 2.450055 1.936492 1.936492 
C 2.450055 1.422928 2.738613 0.726289 2.738613 0 
C 2.738613 -0.726289 2.450055 -1.422928 1.936492 -1.936492 
C 1.422928 -2.450055 0.726289 -2.738613 0 -2.738613 
C -0.726289 -2.738613 -1.422928 -2.450055 -1.936492 -1.936492 
C -2.450055 -1.422928 -2.738613 -0.726289 -2.738613 0 
C -2.738613 0.726289 -2.450055 1.422928 -1.936492 1.936492 
C -1.422928 2.450055 -0.726289 2.738613 0 2.738613 
z
" id="mb8759f42b2" style="stroke:#000000;"/>
    </defs>
    <g clip-path="url(#p97ed5c7526)">
     <use style="stroke:#000000;" x="108.863111" xlink:href="#mb8759f42b2" y="173.25268"/>
    </g>
   </g>
   <g id="Quiver_1">
    <path clip-path="url(#p97ed5c7526)" d="M 109.094634 172.5202 
L 125.941672 177.845241 
L 125.672239 176.148757 
L 132.302468 180.661432 
L 124.283098 180.543637 
L 125.478625 179.310201 
L 108.631587 173.98516 
L 109.094634 172.5202 
"/>
   </g>
   <g id="patch_3">
    <path clip-path="url(#p97ed5c7526)" d="M 236.16 225.741278 
C 249.74192 225.741278 262.769389 220.345124 272.373256 210.741256 
C 281.977124 201.137389 287.373278 188.10992 287.373278 174.528 
C 287.373278 160.94608 281.977124 147.918611 272.373256 138.314744 
C 262.769389 128.710876 249.74192 123.314722 236.16 123.314722 
C 222.57808 123.314722 209.550611 128.710876 199.946744 138.314744 
C 190.342876 147.918611 184.946722 160.94608 184.946722 174.528 
C 184.946722 188.10992 190.342876 201.137389 199.946744 210.741256 
C 209.550611 220.345124 222.57808 225.741278 236.16 225.741278 
z
" style="fill:#009900;fill-opacity:0.5;stroke:#009900;stroke-linejoin:miter;stroke-width:2;"/>
   </g>
   <g id="matplotlib.axis_1">
    <g id="xtick_1">
     <g id="line2d_1">
      <defs>
       <path d="M 0 0 
L 0 3.5 
" id="mf58b2b0567" style="stroke:#000000;stroke-width:0.8;"/>
      </defs>
      <g>
       <use style="stroke:#000000;stroke-width:0.8;" x="108.126804" xlink:href="#mf58b2b0567" y="307.584"/>
      </g>
     </g>
     <g id="text_1">
      <!-- −2 -->
      <defs>
       <path d="M 10.59375 35.5 
L 73.1875 35.5 
L 73.1875 27.203125 
L 10.59375 27.203125 
z
" id="DejaVuSans-2212"/>
       <path d="M 19.1875 8.296875 
L 53.609375 8.296875 
L 53.609375 0 
L 7.328125 0 
L 7.328125 8.296875 
Q 12.9375 14.109375 22.625 23.890625 
Q 32.328125 33.6875 34.8125 36.53125 
Q 39.546875 41.84375 41.421875 45.53125 
Q 43.3125 49.21875 43.3125 52.78125 
Q 43.3125 58.59375 39.234375 62.25 
Q 35.15625 65.921875 28.609375 65.921875 
Q 23.96875 65.921875 18.8125 64.3125 
Q 13.671875 62.703125 7.8125 59.421875 
L 7.8125 69.390625 
Q 13.765625 71.78125 18.9375 73 
Q 24.125 74.21875 28.421875 74.21875 
Q 39.75 74.21875 46.484375 68.546875 
Q 53.21875 62.890625 53.21875 53.421875 
Q 53.21875 48.921875 51.53125 44.890625 
Q 49.859375 40.875 45.40625 35.40625 
Q 44.1875 33.984375 37.640625 27.21875 
Q 31.109375 20.453125 19.1875 8.296875 
z
" id="DejaVuSans-32"/>
      </defs>
      <g transform="translate(100.755711 322.182437)scale(0.1 -0.1)">
       <use xlink:href="#DejaVuSans-2212"/>
       <use x="83.789062" xlink:href="#DejaVuSans-32"/>
      </g>
     </g>
    </g>
    <g id="xtick_2">
     <g id="line2d_2">
      <g>
       <use style="stroke:#000000;stroke-width:0.8;" x="172.143402" xlink:href="#mf58b2b0567" y="307.584"/>
      </g>
     </g>
     <g id="text_2">
      <!-- −1 -->
      <defs>
       <path d="M 12.40625 8.296875 
L 28.515625 8.296875 
L 28.515625 63.921875 
L 10.984375 60.40625 
L 10.984375 69.390625 
L 28.421875 72.90625 
L 38.28125 72.90625 
L 38.28125 8.296875 
L 54.390625 8.296875 
L 54.390625 0 
L 12.40625 0 
z
" id="DejaVuSans-31"/>
      </defs>
      <g transform="translate(164.772308 322.182437)scale(0.1 -0.1)">
       <use xlink:href="#DejaVuSans-2212"/>
       <use x="83.789062" xlink:href="#DejaVuSans-31"/>
      </g>
     </g>
    </g>
    <g id="xtick_3">
     <g id="line2d_3">
      <g>
       <use style="stroke:#000000;stroke-width:0.8;" x="236.16" xlink:href="#mf58b2b0567" y="307.584"/>
      </g>
     </g>
     <g id="text_3">
      <!-- 0 -->
      <defs>
       <path d="M 31.78125 66.40625 
Q 24.171875 66.40625 20.328125 58.90625 
Q 16.5 51.421875 16.5 36.375 
Q 16.5 21.390625 20.328125 13.890625 
Q 24.171875 6.390625 31.78125 6.390625 
Q 39.453125 6.390625 43.28125 13.890625 
Q 47.125 21.390625 47.125 36.375 
Q 47.125 51.421875 43.28125 58.90625 
Q 39.453125 66.40625 31.78125 66.40625 
z
M 31.78125 74.21875 
Q 44.046875 74.21875 50.515625 64.515625 
Q 56.984375 54.828125 56.984375 36.375 
Q 56.984375 17.96875 50.515625 8.265625 
Q 44.046875 -1.421875 31.78125 -1.421875 
Q 19.53125 -1.421875 13.0625 8.265625 
Q 6.59375 17.96875 6.59375 36.375 
Q 6.59375 54.828125 13.0625 64.515625 
Q 19.53125 74.21875 31.78125 74.21875 
z
" id="DejaVuSans-30"/>
      </defs>
      <g transform="translate(232.97875 322.182437)scale(0.1 -0.1)">
       <use xlink:href="#DejaVuSans-30"/>
      </g>
     </g>
    </g>
    <g id="xtick_4">
     <g id="line2d_4">
      <g>
       <use style="stroke:#000000;stroke-width:0.8;" x="300.176598" xlink:href="#mf58b2b0567" y="307.584"/>
      </g>
     </g>
     <g id="text_4">
      <!-- 1 -->
      <g transform="translate(296.995348 322.182437)scale(0.1 -0.1)">
       <use xlink:href="#DejaVuSans-31"/>
      </g>
     </g>
    </g>
    <g id="xtick_5">
     <g id="line2d_5">
      <g>
       <use style="stroke:#000000;stroke-width:0.8;" x="364.193196" xlink:href="#mf58b2b0567" y="307.584"/>
      </g>
     </g>
     <g id="text_5">
      <!-- 2 -->
      <g transform="translate(361.011946 322.182437)scale(0.1 -0.1)">
       <use xlink:href="#DejaVuSans-32"/>
      </g>
     </g>
    </g>
   </g>
   <g id="matplotlib.axis_2">
    <g id="ytick_1">
     <g id="line2d_6">
      <defs>
       <path d="M 0 0 
L -3.5 0 
" id="mac77fa5f41" style="stroke:#000000;stroke-width:0.8;"/>
      </defs>
      <g>
       <use style="stroke:#000000;stroke-width:0.8;" x="82.520165" xlink:href="#mac77fa5f41" y="302.561196"/>
      </g>
     </g>
     <g id="text_6">
      <!-- −2.0 -->
      <defs>
       <path d="M 10.6875 12.40625 
L 21 12.40625 
L 21 0 
L 10.6875 0 
z
" id="DejaVuSans-2e"/>
      </defs>
      <g transform="translate(51.237353 306.360414)scale(0.1 -0.1)">
       <use xlink:href="#DejaVuSans-2212"/>
       <use x="83.789062" xlink:href="#DejaVuSans-32"/>
       <use x="147.412109" xlink:href="#DejaVuSans-2e"/>
       <use x="179.199219" xlink:href="#DejaVuSans-30"/>
      </g>
     </g>
    </g>
    <g id="ytick_2">
     <g id="line2d_7">
      <g>
       <use style="stroke:#000000;stroke-width:0.8;" x="82.520165" xlink:href="#mac77fa5f41" y="270.552897"/>
      </g>
     </g>
     <g id="text_7">
      <!-- −1.5 -->
      <defs>
       <path d="M 10.796875 72.90625 
L 49.515625 72.90625 
L 49.515625 64.59375 
L 19.828125 64.59375 
L 19.828125 46.734375 
Q 21.96875 47.46875 24.109375 47.828125 
Q 26.265625 48.1875 28.421875 48.1875 
Q 40.625 48.1875 47.75 41.5 
Q 54.890625 34.8125 54.890625 23.390625 
Q 54.890625 11.625 47.5625 5.09375 
Q 40.234375 -1.421875 26.90625 -1.421875 
Q 22.3125 -1.421875 17.546875 -0.640625 
Q 12.796875 0.140625 7.71875 1.703125 
L 7.71875 11.625 
Q 12.109375 9.234375 16.796875 8.0625 
Q 21.484375 6.890625 26.703125 6.890625 
Q 35.15625 6.890625 40.078125 11.328125 
Q 45.015625 15.765625 45.015625 23.390625 
Q 45.015625 31 40.078125 35.4375 
Q 35.15625 39.890625 26.703125 39.890625 
Q 22.75 39.890625 18.8125 39.015625 
Q 14.890625 38.140625 10.796875 36.28125 
z
" id="DejaVuSans-35"/>
      </defs>
      <g transform="translate(51.237353 274.352116)scale(0.1 -0.1)">
       <use xlink:href="#DejaVuSans-2212"/>
       <use x="83.789062" xlink:href="#DejaVuSans-31"/>
       <use x="147.412109" xlink:href="#DejaVuSans-2e"/>
       <use x="179.199219" xlink:href="#DejaVuSans-35"/>
      </g>
     </g>
    </g>
    <g id="ytick_3">
     <g id="line2d_8">
      <g>
       <use style="stroke:#000000;stroke-width:0.8;" x="82.520165" xlink:href="#mac77fa5f41" y="238.544598"/>
      </g>
     </g>
     <g id="text_8">
      <!-- −1.0 -->
      <g transform="translate(51.237353 242.343817)scale(0.1 -0.1)">
       <use xlink:href="#DejaVuSans-2212"/>
       <use x="83.789062" xlink:href="#DejaVuSans-31"/>
       <use x="147.412109" xlink:href="#DejaVuSans-2e"/>
       <use x="179.199219" xlink:href="#DejaVuSans-30"/>
      </g>
     </g>
    </g>
    <g id="ytick_4">
     <g id="line2d_9">
      <g>
       <use style="stroke:#000000;stroke-width:0.8;" x="82.520165" xlink:href="#mac77fa5f41" y="206.536299"/>
      </g>
     </g>
     <g id="text_9">
      <!-- −0.5 -->
      <g transform="translate(51.237353 210.335518)scale(0.1 -0.1)">
       <use xlink:href="#DejaVuSans-2212"/>
       <use x="83.789062" xlink:href="#DejaVuSans-30"/>
       <use x="147.412109" xlink:href="#DejaVuSans-2e"/>
       <use x="179.199219" xlink:href="#DejaVuSans-35"/>
      </g>
     </g>
    </g>
    <g id="ytick_5">
     <g id="line2d_10">
      <g>
       <use style="stroke:#000000;stroke-width:0.8;" x="82.520165" xlink:href="#mac77fa5f41" y="174.528"/>
      </g>
     </g>
     <g id="text_10">
      <!-- 0.0 -->
      <g transform="translate(59.61704 178.327219)scale(0.1 -0.1)">
       <use xlink:href="#DejaVuSans-30"/>
       <use x="63.623047" xlink:href="#DejaVuSans-2e"/>
       <use x="95.410156" xlink:href="#DejaVuSans-30"/>
      </g>
     </g>
    </g>
    <g id="ytick_6">
     <g id="line2d_11">
      <g>
       <use style="stroke:#000000;stroke-width:0.8;" x="82.520165" xlink:href="#mac77fa5f41" y="142.519701"/>
      </g>
     </g>
     <g id="text_11">
      <!-- 0.5 -->
      <g transform="translate(59.61704 146.31892)scale(0.1 -0.1)">
       <use xlink:href="#DejaVuSans-30"/>
       <use x="63.623047" xlink:href="#DejaVuSans-2e"/>
       <use x="95.410156" xlink:href="#DejaVuSans-35"/>
      </g>
     </g>
    </g>
    <g id="ytick_7">
     <g id="line2d_12">
      <g>
       <use style="stroke:#000000;stroke-width:0.8;" x="82.520165" xlink:href="#mac77fa5f41" y="110.511402"/>
      </g>
     </g>
     <g id="text_12">
      <!-- 1.0 -->
      <g transform="translate(59.61704 114.310621)scale(0.1 -0.1)">
       <use xlink:href="#DejaVuSans-31"/>
       <use x="63.623047" xlink:href="#DejaVuSans-2e"/>
       <use x="95.410156" xlink:href="#DejaVuSans-30"/>
      </g>
     </g>
    </g>
    <g id="ytick_8">
     <g id="line2d_13">
      <g>
       <use style="stroke:#000000;stroke-width:0.8;" x="82.520165" xlink:href="#mac77fa5f41" y="78.503103"/>
      </g>
     </g>
     <g id="text_13">
      <!-- 1.5 -->
      <g transform="translate(59.61704 82.302322)scale(0.1 -0.1)">
       <use xlink:href="#DejaVuSans-31"/>
       <use x="63.623047" xlink:href="#DejaVuSans-2e"/>
       <use x="95.410156" xlink:href="#DejaVuSans-35"/>
      </g>
     </g>
    </g>
    <g id="ytick_9">
     <g id="line2d_14">
      <g>
       <use style="stroke:#000000;stroke-width:0.8;" x="82.520165" xlink:href="#mac77fa5f41" y="46.494804"/>
      </g>
     </g>
     <g id="text_14">
      <!-- 2.0 -->
      <g transform="translate(59.61704 50.294023)scale(0.1 -0.1)">
       <use xlink:href="#DejaVuSans-32"/>
       <use x="63.623047" xlink:href="#DejaVuSans-2e"/>
       <use x="95.410156" xlink:href="#DejaVuSans-30"/>
      </g>
     </g>
    </g>
   </g>
   <g id="line2d_15">
    <path clip-path="url(#p97ed5c7526)" d="M 300.176598 63.648 
L 172.143402 63.648 
" style="fill:none;stroke:#009900;stroke-linecap:square;stroke-width:2;"/>
   </g>
   <g id="line2d_16">
    <path clip-path="url(#p97ed5c7526)" d="M 172.143402 63.648 
L 108.126804 174.528 
" style="fill:none;stroke:#009900;stroke-linecap:square;stroke-width:2;"/>
   </g>
   <g id="line2d_17">
    <path clip-path="url(#p97ed5c7526)" d="M 108.126804 174.528 
L 172.143402 285.408 
" style="fill:none;stroke:#009900;stroke-linecap:square;stroke-width:2;"/>
   </g>
   <g id="line2d_18">
    <path clip-path="url(#p97ed5c7526)" d="M 172.143402 285.408 
L 300.176598 285.408 
" style="fill:none;stroke:#009900;stroke-linecap:square;stroke-width:2;"/>
   </g>
   <g id="line2d_19">
    <path clip-path="url(#p97ed5c7526)" d="M 300.176598 285.408 
L 364.193196 174.528 
" style="fill:none;stroke:#009900;stroke-linecap:square;stroke-width:2;"/>
   </g>
   <g id="line2d_20">
    <path clip-path="url(#p97ed5c7526)" d="M 364.193196 174.528 
L 300.176598 63.648 
" style="fill:none;stroke:#009900;stroke-linecap:square;stroke-width:2;"/>
   </g>
   <g id="line2d_21">
    <path clip-path="url(#p97ed5c7526)" d="M 337.473328 195.656036 
L 342.594156 195.696314 
L 347.712498 195.531782 
L 352.250075 195.214091 
L 349.995295 190.616215 
L 347.558453 186.112183 
L 344.943446 181.709202 
L 342.154459 177.414315 
L 339.195953 173.234394 
L 336.072661 169.176124 
L 332.78958 165.246 
L 329.351962 161.450307 
L 325.765306 157.795118 
L 322.035351 154.286281 
L 318.168064 150.929409 
L 314.169631 147.729873 
L 310.046448 144.69279 
L 305.805113 141.82302 
L 301.452411 139.125154 
L 296.995304 136.603508 
L 292.440923 134.262115 
L 287.796555 132.104722 
L 283.069629 130.134779 
L 278.267708 128.355439 
L 273.398472 126.769548 
L 268.469713 125.379643 
L 263.489315 124.187948 
L 258.465246 123.196369 
L 253.405543 122.406492 
L 248.3183 121.81958 
L 243.211657 121.436574 
L 238.093782 121.258086 
L 232.972863 121.2844 
L 227.857093 121.515476 
L 222.754655 121.950943 
L 217.673713 122.590105 
L 212.622394 123.431939 
L 207.608781 124.475099 
L 202.640893 125.717915 
L 197.726679 127.1584 
L 192.873999 128.794248 
L 188.090617 130.622844 
L 183.384186 132.641261 
L 178.762235 134.846271 
L 174.232157 137.234345 
L 169.801201 139.801664 
L 165.476454 142.544121 
L 161.264836 145.457328 
L 157.173084 148.536624 
L 153.207743 151.777084 
L 149.375159 155.173522 
L 145.681461 158.720507 
L 142.132559 162.412363 
L 138.734132 166.243184 
L 135.491614 170.206841 
L 132.410194 174.296995 
L 129.494802 178.5071 
L 126.7501 182.830423 
L 124.180481 187.260046 
L 121.790056 191.788883 
L 120.104361 195.273736 
L 125.21345 195.622603 
L 130.332403 195.766881 
L 135.453032 195.706341 
L 140.567144 195.441078 
L 145.666557 194.971518 
L 150.743114 194.298411 
L 155.788693 193.422835 
L 160.795222 192.346189 
L 165.754692 191.070197 
L 170.65917 189.5969 
L 175.500808 187.928654 
L 180.271861 186.068129 
L 184.964696 184.018301 
L 185.764971 183.646162 
L 180.653422 183.335401 
L 175.533535 183.229296 
L 170.4135 183.328017 
L 165.301509 183.631406 
L 160.205738 184.138977 
L 155.134342 184.849919 
L 150.095432 185.763094 
L 145.09707 186.877041 
L 140.147252 188.189978 
L 135.253897 189.699804 
L 130.424832 191.404105 
L 125.667785 193.300154 
L 120.990364 195.384918 
L 120.344927 195.690409 
L 120.871522 195.326391 
L 125.017426 192.320401 
L 129.039807 189.151023 
L 132.932229 185.823328 
L 136.688465 182.342639 
L 140.302506 178.714526 
L 143.768571 174.944791 
L 147.081113 171.039466 
L 150.234835 167.004799 
L 153.22469 162.847243 
L 156.045896 158.573451 
L 158.69394 154.19026 
L 161.164584 149.704681 
L 163.453876 145.12389 
L 165.558155 140.455216 
L 167.474053 135.706129 
L 169.198506 130.884224 
L 170.728755 125.997217 
L 172.062351 121.052925 
L 173.197162 116.059258 
L 174.131372 111.024206 
L 174.863486 105.955822 
L 175.392333 100.862216 
L 175.717067 95.751536 
L 175.837169 90.631958 
L 175.752446 85.511673 
L 175.463035 80.398871 
L 174.969397 75.301732 
L 174.272322 70.228411 
L 173.372927 65.187023 
L 173.056654 63.648 
L 172.095461 68.677971 
L 171.336182 73.742356 
L 170.780032 78.833054 
L 170.427901 83.941919 
L 170.280351 89.060779 
L 170.337619 94.181446 
L 170.599613 99.295726 
L 171.065914 104.395438 
L 171.735777 109.472424 
L 172.608129 114.518561 
L 173.681575 119.525778 
L 174.954397 124.486062 
L 176.42456 129.39148 
L 178.089711 134.234183 
L 179.947187 139.006425 
L 181.994015 143.700569 
L 184.226922 148.309108 
L 186.642336 152.824667 
L 188.442527 155.931155 
L 183.563036 157.485206 
L 178.749594 159.233141 
L 174.009901 161.172164 
L 169.35154 163.299174 
L 164.781962 165.610767 
L 160.308478 168.103245 
L 155.938246 170.772621 
L 151.678256 173.614625 
L 147.535323 176.624709 
L 143.516075 179.798059 
L 139.626942 183.129598 
L 135.874147 186.613995 
L 132.263691 190.245677 
L 128.801353 194.018834 
L 125.49267 197.92743 
L 123.265068 200.748243 
L 128.327942 199.978952 
L 133.356003 199.007815 
L 138.341207 197.836386 
L 143.275579 196.46654 
L 148.151224 194.900467 
L 152.960343 193.140673 
L 157.695242 191.189973 
L 162.348347 189.051488 
L 166.912213 186.728639 
L 171.379539 184.225142 
L 175.743179 181.545002 
L 179.996152 178.692507 
L 184.131653 175.67222 
L 184.949325 175.04438 
L 180.77754 172.074412 
L 176.490324 169.273647 
L 172.094538 166.646564 
L 167.597212 164.197368 
L 163.005542 161.929976 
L 158.326873 159.848016 
L 153.56869 157.954818 
L 148.738606 156.25341 
L 143.844347 154.746516 
L 138.893743 153.436545 
L 133.894714 152.325593 
L 128.855258 151.415437 
L 123.783436 150.707534 
L 121.995306 150.507051 
L 125.087215 154.58928 
L 128.339897 158.544601 
L 131.748147 162.366686 
L 135.306514 166.04942 
L 139.009305 169.586911 
L 142.850595 172.9735 
L 146.824241 176.20377 
L 150.923884 179.272552 
L 155.142967 182.174938 
L 159.474739 184.906284 
L 163.912272 187.46222 
L 168.448464 189.838658 
L 173.076061 192.031796 
L 177.787658 194.038125 
L 182.575718 195.854435 
L 187.432581 197.477822 
L 190.908373 198.509036 
L 189.385696 203.398408 
L 188.05976 208.34476 
L 186.932686 213.340178 
L 186.006277 218.376672 
L 185.282014 223.446183 
L 184.761058 228.540602 
L 184.444241 233.651779 
L 184.33207 238.771537 
L 184.424724 243.891685 
L 184.722055 249.004033 
L 185.223588 254.100401 
L 185.92852 259.172636 
L 186.835724 264.212624 
L 187.943747 269.212303 
L 189.250819 274.163673 
L 190.754846 279.058814 
L 192.453424 283.889894 
L 193.032551 285.408 
L 194.7923 280.598865 
L 196.358328 275.723205 
L 197.728128 270.78882 
L 198.89951 265.803606 
L 199.8706 260.775536 
L 200.639844 255.712655 
L 201.206011 250.623062 
L 201.568196 245.514899 
L 201.725819 240.396339 
L 201.678628 235.27557 
L 201.426699 230.160784 
L 200.970435 225.060164 
L 200.310565 219.98187 
L 199.448145 214.934025 
L 198.384555 209.924706 
L 198.121357 208.818837 
L 193.262972 207.20001 
L 188.343737 205.776763 
L 183.371523 204.55137 
L 178.354283 203.525793 
L 173.300045 202.701673 
L 168.216893 202.080327 
L 163.11296 201.662751 
L 157.996411 201.449611 
L 152.875432 201.441249 
L 147.758214 201.637679 
L 142.652944 202.038585 
L 137.567791 202.643327 
L 132.510888 203.450937 
L 127.490325 204.460124 
L 125.651878 204.882319 
L 129.092395 201.089253 
L 132.378478 197.161638 
L 135.504869 193.105756 
L 138.466568 188.928096 
L 141.258836 184.635341 
L 143.877206 180.23436 
L 146.317489 175.732191 
L 148.575782 171.136039 
L 150.648471 166.453255 
L 152.53224 161.691332 
L 154.224077 156.857887 
L 155.721274 151.960653 
L 157.021437 147.007464 
L 158.122484 142.006244 
L 159.022656 136.964995 
L 159.720511 131.891781 
L 160.214934 126.794719 
L 160.505133 121.681962 
L 160.590644 116.561689 
L 160.471331 111.442093 
L 160.147383 106.331363 
L 159.619321 101.237675 
L 158.887987 96.169179 
L 157.954552 91.133983 
L 157.498649 89.013456 
L 162.354236 87.386257 
L 167.140869 85.566187 
L 171.850889 83.55616 
L 176.476762 81.359389 
L 181.011087 78.97939 
L 185.446611 76.41997 
L 189.776238 73.685224 
L 193.99304 70.779527 
L 198.090273 67.707526 
L 202.061381 64.474138 
L 203.025813 63.648 
L 206.964656 66.920617 
L 211.031218 70.033104 
L 215.218993 72.980482 
L 219.521283 75.758037 
L 223.931203 78.361324 
L 228.4417 80.786179 
L 233.045557 83.028722 
L 237.735409 85.085367 
L 242.503754 86.952822 
L 247.342963 88.628101 
L 252.245294 90.108522 
L 257.202906 91.391719 
L 262.207865 92.475638 
L 267.252167 93.358545 
L 272.32774 94.039027 
L 277.426466 94.515996 
L 282.540187 94.788689 
L 287.660722 94.856669 
L 292.77988 94.719829 
L 297.88947 94.378386 
L 302.98132 93.832887 
L 308.047283 93.084205 
L 313.079254 92.133537 
L 316.218757 91.433835 
L 312.782993 95.231206 
L 309.50183 99.162933 
L 306.38052 103.222726 
L 303.424055 107.404091 
L 300.637165 111.700339 
L 298.024307 116.104596 
L 295.589664 120.609817 
L 293.337128 125.208793 
L 291.270305 129.894168 
L 289.392499 134.658447 
L 287.706716 139.494006 
L 286.215652 144.393112 
L 284.921693 149.347924 
L 283.826909 154.350519 
L 283.637548 155.326899 
L 287.879956 158.195083 
L 292.233667 160.891322 
L 296.691716 163.411302 
L 301.246972 165.750992 
L 305.892147 167.906648 
L 310.619809 169.874823 
L 315.422395 171.652367 
L 320.292223 173.236438 
L 325.221501 174.6245 
L 330.202345 175.814333 
L 335.226784 176.804034 
L 340.286782 177.592019 
L 345.374244 178.177028 
L 350.48103 178.558125 
L 355.598972 178.7347 
L 360.71988 178.706471 
L 361.799287 178.674371 
L 359.300894 174.204188 
L 356.62574 169.83749 
L 353.778105 165.581263 
L 350.762543 161.442315 
L 347.58388 157.427268 
L 344.2472 153.542545 
L 340.757842 149.794361 
L 337.121388 146.188712 
L 333.343655 142.731367 
L 329.430687 139.427857 
L 325.388743 136.283466 
L 321.224291 133.303225 
L 316.943992 130.491901 
L 312.554693 127.853992 
L 308.063418 125.393719 
L 303.47735 123.115017 
L 298.803827 121.021531 
L 294.050325 119.11661 
L 289.224449 117.403303 
L 284.333919 115.88435 
L 279.386559 114.562181 
L 274.390283 113.438912 
L 269.353086 112.516338 
L 264.283024 111.795936 
L 259.18821 111.27886 
L 254.076793 110.965935 
L 248.956952 110.857662 
L 243.836875 110.954215 
L 238.724756 111.25544 
L 233.628771 111.760853 
L 228.557074 112.469648 
L 223.517778 113.380689 
L 218.518945 114.49252 
L 213.568571 115.803361 
L 208.674577 117.311116 
L 203.844792 119.013372 
L 199.086942 120.907407 
L 194.408639 122.99019 
L 189.817368 125.258389 
L 185.320473 127.708376 
L 180.925148 130.33623 
L 176.638425 133.137749 
L 172.467162 136.10845 
L 168.418031 139.243581 
L 164.497512 142.538127 
L 160.711875 145.986816 
L 157.067177 149.584131 
L 153.569249 153.324318 
L 150.223686 157.201393 
L 147.035841 161.209154 
L 144.010813 165.341188 
L 141.153443 169.590887 
L 138.468301 173.95145 
L 135.959682 178.415903 
L 133.631601 182.977102 
L 131.487781 187.627751 
L 129.531653 192.36041 
L 127.766345 197.167508 
L 126.194681 202.041354 
L 125.465791 204.560006 
L 130.449417 205.738131 
L 135.476168 206.716021 
L 140.538004 207.492112 
L 145.626827 208.065164 
L 150.734495 208.434258 
L 155.852837 208.598805 
L 160.973665 208.558541 
L 166.088787 208.313531 
L 171.190019 207.864166 
L 176.269202 207.211166 
L 181.318208 206.355576 
L 186.328962 205.298763 
L 191.293446 204.042419 
L 193.80933 203.324191 
L 190.731361 207.416942 
L 187.81952 211.629504 
L 185.078465 215.95514 
L 182.512583 220.386928 
L 180.125977 224.91778 
L 177.922466 229.540446 
L 175.905575 234.247531 
L 174.078531 239.031506 
L 172.444256 243.884715 
L 171.005364 248.799397 
L 169.764159 253.767687 
L 168.722625 258.781639 
L 167.882429 263.83323 
L 167.244914 268.914379 
L 166.811101 274.016958 
L 166.698924 275.977887 
L 171.300873 278.224344 
L 175.988975 280.284974 
L 180.755731 282.156483 
L 185.593514 283.835874 
L 190.8074 285.408 
L 195.712222 283.93585 
L 200.55425 282.268738 
L 205.325738 280.409329 
L 210.019054 278.3606 
L 214.626687 276.125826 
L 219.141268 273.708584 
L 223.555574 271.11274 
L 227.862543 268.342447 
L 232.055285 265.402138 
L 236.127092 262.296515 
L 240.07145 259.030548 
L 243.882049 255.609461 
L 247.552793 252.038727 
L 251.077809 248.324059 
L 254.451459 244.471399 
L 257.668345 240.486911 
L 260.723321 236.376969 
L 263.611499 232.148148 
L 266.32826 227.807213 
L 268.869256 223.361109 
L 271.230423 218.816949 
L 273.407983 214.182002 
L 275.398453 209.463683 
L 276.862671 205.610028 
L 280.990098 202.578717 
L 284.993004 199.384779 
L 288.864985 196.033321 
L 292.599846 192.529706 
L 296.191612 188.879539 
L 299.634537 185.08866 
L 302.923114 181.163133 
L 306.052081 177.109237 
L 309.016432 172.933459 
L 311.811426 168.642479 
L 314.432591 164.243161 
L 316.875733 159.742543 
L 319.136944 155.147826 
L 321.212607 150.46636 
L 323.099401 145.705634 
L 324.794307 140.873265 
L 326.294614 135.976982 
L 327.597922 131.02462 
L 328.702146 126.024101 
L 329.60552 120.983425 
L 330.31402 115.847547 
L 325.571292 113.915959 
L 320.755115 112.175574 
L 315.873193 110.629178 
L 310.933337 109.279243 
L 305.94345 108.127929 
L 300.911513 107.177079 
L 295.845578 106.428213 
L 290.753748 105.882529 
L 285.644169 105.540901 
L 280.525016 105.403875 
L 275.404479 105.47167 
L 270.290748 105.744177 
L 265.192005 106.220962 
L 260.116407 106.90126 
L 255.072074 107.783984 
L 250.067075 108.867721 
L 245.109417 110.150738 
L 240.207032 111.630982 
L 235.367762 113.306085 
L 230.59935 115.173367 
L 225.909423 117.229842 
L 221.305484 119.472219 
L 216.7949 121.89691 
L 212.384885 124.500037 
L 208.082495 127.277435 
L 203.894613 130.224662 
L 199.827938 133.337002 
L 195.888976 136.609475 
L 192.08403 140.036848 
L 188.419185 143.613636 
L 184.900305 147.334118 
L 181.53302 151.192342 
L 178.322715 155.182135 
L 175.274528 159.297115 
L 172.393334 163.530698 
L 169.683743 167.876111 
L 167.15009 172.326404 
L 164.796428 176.874455 
L 162.626522 181.512991 
L 160.643843 186.234589 
L 158.851564 191.031696 
L 157.252552 195.896638 
L 155.849364 200.821632 
L 154.644246 205.798799 
L 153.639126 210.820177 
L 152.835611 215.877732 
L 152.234988 220.963374 
L 151.838216 226.068966 
L 151.64593 231.186342 
L 151.658439 236.307313 
L 151.875723 241.423687 
L 152.297432 246.527281 
L 152.922894 251.609927 
L 153.022142 252.289005 
L 157.094528 255.393868 
L 161.287818 258.333395 
L 165.595303 261.102884 
L 170.010093 263.697905 
L 174.525125 266.114305 
L 179.133176 268.348219 
L 183.826873 270.396073 
L 188.598708 272.254592 
L 193.441047 273.920801 
L 198.346144 275.392035 
L 203.30615 276.665942 
L 208.313132 277.740482 
L 213.359079 278.613936 
L 218.435918 279.284908 
L 223.535529 279.752323 
L 228.649751 280.015435 
L 233.770405 280.073822 
L 238.889297 279.927391 
L 243.998239 279.576375 
L 249.089058 279.021338 
L 254.153609 278.263165 
L 259.18379 277.303072 
L 264.171554 276.142592 
L 269.108922 274.783584 
L 273.987994 273.22822 
L 278.800966 271.47899 
L 283.540137 269.538692 
L 288.197926 267.410429 
L 292.766881 265.097606 
L 297.239694 262.603925 
L 301.609208 259.933373 
L 305.868434 257.090223 
L 310.010557 254.079024 
L 314.02895 250.904593 
L 317.917187 247.572008 
L 321.669045 244.086601 
L 325.278522 240.453947 
L 327.524935 238.03929 
L 328.993018 233.13325 
L 330.263738 228.172426 
L 331.335061 223.164755 
L 332.205273 218.118248 
L 332.872983 213.040978 
L 333.337123 207.941069 
L 333.596949 202.826678 
L 333.652046 197.705988 
L 333.502326 192.587191 
L 333.148029 187.478475 
L 332.58972 182.388014 
L 331.828295 177.323951 
L 330.86497 172.294388 
L 329.701286 167.307371 
L 328.339106 162.370877 
L 326.780608 157.492805 
L 325.028286 152.680958 
L 323.084944 147.943035 
L 320.953689 143.286614 
L 318.637932 138.719145 
L 316.141377 134.247935 
L 313.468019 129.880138 
L 310.622133 125.62274 
L 307.608274 121.482552 
L 304.431262 117.466199 
L 301.096179 113.580104 
L 297.608363 109.830486 
L 293.973391 106.223343 
L 290.19708 102.764445 
L 286.28547 99.459326 
L 282.24482 96.313273 
L 278.081593 93.33132 
L 273.80245 90.518237 
L 269.414237 87.878524 
L 264.923973 85.416404 
L 260.338843 83.135816 
L 255.666181 81.040409 
L 250.913462 79.133534 
L 246.088291 77.418243 
L 241.198386 75.89728 
L 236.25157 74.573077 
L 231.255757 73.447753 
L 226.218939 72.523108 
L 221.149174 71.800622 
L 216.054573 71.281451 
L 210.943285 70.966424 
L 205.823489 70.856047 
L 200.703373 70.950495 
L 195.59113 71.249617 
L 190.494938 71.752936 
L 185.42295 72.459645 
L 180.38328 73.368614 
L 175.38399 74.478389 
L 170.433078 75.787195 
L 165.538464 77.292938 
L 163.958098 77.825363 
L 165.03628 82.831561 
L 166.313794 87.79064 
L 167.788597 92.694665 
L 169.458328 97.535791 
L 171.320318 102.306272 
L 173.371586 106.998479 
L 175.608852 111.604903 
L 178.028536 116.118176 
L 180.626767 120.531077 
L 183.399389 124.836546 
L 186.341966 129.027697 
L 189.449791 133.097823 
L 192.717891 137.040414 
L 196.141039 140.849162 
L 196.895174 141.648321 
L 192.56775 138.910091 
L 188.134287 136.347102 
L 183.601879 133.963455 
L 178.977775 131.762962 
L 174.269374 129.749145 
L 169.484208 127.925224 
L 164.629932 126.294117 
L 159.714312 124.858435 
L 154.745213 123.620473 
L 149.730582 122.582213 
L 144.678444 121.745315 
L 139.596879 121.111117 
L 139.002142 121.050347 
L 142.073053 125.148396 
L 145.305386 129.120363 
L 148.69397 132.959895 
L 152.233384 136.660848 
L 155.917965 140.217301 
L 159.741819 143.623566 
L 163.698829 146.874193 
L 167.782664 149.963982 
L 171.98679 152.887989 
L 176.304484 155.641538 
L 180.728836 158.220222 
L 185.252769 160.619916 
L 186.677019 161.32821 
L 181.56147 161.092285 
L 176.440578 161.061116 
L 171.322537 161.234753 
L 166.215532 161.612919 
L 161.127736 162.195007 
L 156.067286 162.980088 
L 151.042279 163.966904 
L 146.060754 165.153878 
L 141.130679 166.53911 
L 136.259943 168.120385 
L 131.456337 169.895172 
L 126.727546 171.860633 
L 122.081134 174.013623 
L 117.524536 176.350697 
L 113.065041 178.868118 
L 111.260223 179.95524 
L 115.161429 177.750847 
L 119.522296 175.066198 
L 123.772318 172.209308 
L 127.904695 169.184748 
L 131.912816 165.997356 
L 135.79027 162.652232 
L 139.530852 159.154727 
L 143.12858 155.510436 
L 146.577697 151.725189 
L 149.872686 147.805042 
L 153.008275 143.756267 
L 155.979448 139.58534 
L 158.781452 135.298934 
L 161.409804 130.903906 
L 163.860299 126.407288 
L 166.129017 121.816273 
L 168.212329 117.138206 
L 170.106902 112.38057 
L 171.809705 107.550978 
L 173.318014 102.657154 
L 174.629415 97.706929 
L 175.741811 92.708222 
L 176.653422 87.669029 
L 177.36279 82.597412 
L 177.86878 77.501484 
L 178.170583 72.389399 
L 178.267715 67.269334 
L 178.212755 63.648 
L 178.393369 75.165683 
L 178.806082 80.270011 
L 179.422584 85.353753 
L 180.241889 90.408774 
L 181.262685 95.426989 
L 182.48334 100.400368 
L 183.9019 105.320957 
L 185.516097 110.180882 
L 187.323348 114.972368 
L 189.320761 119.687752 
L 191.505142 124.319488 
L 193.872995 128.860168 
L 196.420534 133.302527 
L 199.143681 137.639458 
L 199.7331 138.529655 
L 195.386677 135.821683 
L 190.935441 133.289689 
L 186.386513 130.937721 
L 181.747169 128.769543 
L 177.024833 126.788624 
L 172.227058 124.998133 
L 167.36152 123.400933 
L 162.436004 121.999581 
L 157.458388 120.796318 
L 152.436636 119.793069 
L 147.378782 118.991439 
L 142.292916 118.39271 
L 140.6241 118.241032 
L 143.631559 122.385872 
L 146.80236 126.40713 
L 150.131433 130.298373 
L 153.613452 134.053377 
L 157.242845 137.666133 
L 161.013807 141.130862 
L 164.920304 144.442022 
L 168.956088 147.594315 
L 173.114702 150.582698 
L 177.389493 153.40239 
L 181.773622 156.048881 
L 186.260075 158.517937 
L 187.333816 159.074726 
L 182.249283 158.464794 
L 177.144425 158.058678 
L 172.02741 157.857026 
L 166.906425 157.860161 
L 161.789661 158.068079 
L 156.685305 158.480446 
L 151.601521 159.096603 
L 146.546444 159.915564 
L 141.528161 160.93602 
L 136.554698 162.156337 
L 131.634014 163.574564 
L 126.773979 165.188431 
L 121.98237 166.995356 
L 117.266851 168.99245 
L 112.634966 171.176516 
L 108.968537 173.070077 
L 109.104345 176.22115 
L 113.445876 178.936957 
L 117.892537 181.476977 
L 122.437216 183.837147 
L 127.07264 186.01369 
L 131.791396 188.003124 
L 136.585933 189.802267 
L 141.448581 191.408241 
L 146.371562 192.818476 
L 151.346999 194.030716 
L 156.366933 195.043022 
L 161.423334 195.853775 
L 166.508111 196.461677 
L 171.61313 196.865756 
L 176.730225 197.065365 
L 181.851208 197.060186 
L 186.967889 196.850226 
L 189.962467 196.632023 
L 186.499206 200.404333 
L 183.189566 204.312119 
L 180.038844 208.349129 
L 177.05208 212.508905 
L 174.234051 216.784793 
L 171.589266 221.169952 
L 169.121956 225.657366 
L 166.836069 230.239856 
L 164.735261 234.910093 
L 162.822893 239.660603 
L 161.102024 244.483788 
L 159.575408 249.371931 
L 158.245487 254.317213 
L 157.104503 259.359862 
L 161.994841 260.879433 
L 166.942033 262.202227 
L 171.938167 263.326128 
L 176.975248 264.249338 
L 182.045218 264.97038 
L 187.139967 265.488101 
L 192.251344 265.801671 
L 197.371172 265.910591 
L 202.491261 265.814685 
L 207.603418 265.514106 
L 212.699466 265.009336 
L 217.771253 264.301183 
L 222.810664 263.390778 
L 227.809638 262.279579 
L 232.760177 260.969363 
L 237.654362 259.462227 
L 242.484362 257.760581 
L 247.242451 255.867147 
L 251.921017 253.784955 
L 256.512575 251.517336 
L 261.00978 249.067918 
L 265.405437 246.440619 
L 269.692513 243.639641 
L 273.864152 240.669467 
L 277.913678 237.534848 
L 281.834614 234.240798 
L 285.620687 230.792587 
L 289.265839 227.195732 
L 292.76424 223.455987 
L 296.110293 219.579335 
L 299.298644 215.571977 
L 302.324194 211.440325 
L 305.182101 207.190987 
L 307.867794 202.830763 
L 310.376977 198.366628 
L 312.705634 193.805723 
L 314.850042 189.155344 
L 316.806768 184.422932 
L 318.572683 179.616058 
L 320.144962 174.74241 
L 321.52109 169.809787 
L 322.698864 164.826078 
L 323.676401 159.799258 
L 324.452138 154.737367 
L 325.024831 149.648505 
L 325.393567 144.540811 
L 325.557754 139.422457 
L 325.517131 134.301632 
L 325.271761 129.186527 
L 324.822038 124.085326 
L 324.168682 119.00619 
L 323.312736 113.957244 
L 322.255571 108.946564 
L 320.998879 103.982169 
L 319.544668 99.071998 
L 318.005037 94.527762 
L 314.621458 90.683819 
L 311.086869 86.978258 
L 307.406925 83.417007 
L 303.587512 80.005762 
L 299.634741 76.749983 
L 295.554935 73.654876 
L 291.354621 70.725394 
L 287.040519 67.966222 
L 282.619531 65.381776 
L 279.405872 63.648 
L 274.91298 66.105321 
L 270.521949 68.740344 
L 266.239803 71.548854 
L 262.073392 74.526357 
L 258.029383 77.668091 
L 254.114244 80.969029 
L 250.33424 84.42389 
L 246.695416 88.027148 
L 243.203595 91.773037 
L 239.864363 95.655566 
L 236.683062 99.668523 
L 233.66478 103.805488 
L 230.814348 108.059843 
L 228.136324 112.424782 
L 225.634994 116.893322 
L 223.314358 121.458314 
L 221.459762 125.469842 
L 217.101338 122.781227 
L 212.638886 120.269054 
L 208.079542 117.93734 
L 203.430602 115.789816 
L 198.699502 113.829919 
L 193.893812 112.060782 
L 189.02122 110.485237 
L 184.089519 109.105804 
L 179.106602 107.92469 
L 174.080437 106.943784 
L 169.019068 106.164656 
L 163.93059 105.588551 
L 158.823145 105.216393 
L 153.704902 105.048775 
L 148.213029 105.096623 
L 150.728324 109.557317 
L 153.419988 113.913857 
L 156.283714 118.159276 
L 159.314921 122.286779 
L 162.508759 126.289766 
L 165.860119 130.161831 
L 169.36364 133.89678 
L 173.013716 137.488638 
L 176.804509 140.931658 
L 180.729954 144.220334 
L 184.783771 147.349403 
L 188.959474 150.313859 
L 190.495568 151.34267 
L 185.662142 149.650778 
L 180.764925 148.153526 
L 175.811751 146.853308 
L 170.810544 145.752203 
L 165.769305 144.851975 
L 160.696099 144.154062 
L 155.599042 143.659582 
L 150.486288 143.369326 
L 145.366016 143.283757 
L 140.246419 143.403012 
L 135.135685 143.726902 
L 130.041992 144.254908 
L 125.204642 144.948317 
L 127.114287 149.699923 
L 129.212417 154.371363 
L 131.495677 158.955163 
L 133.960414 163.443991 
L 136.602684 167.830665 
L 139.418261 172.108168 
L 142.402641 176.269655 
L 145.551048 180.308471 
L 148.858446 184.218154 
L 152.319545 187.992448 
L 155.928806 191.625317 
L 159.680457 195.110947 
L 163.568494 198.443764 
L 167.586699 201.618434 
L 171.728643 204.62988 
L 175.987699 207.473283 
L 180.357054 210.144096 
L 184.829718 212.638044 
L 189.398536 214.951138 
L 194.056198 217.079678 
L 198.795254 219.020259 
L 203.608121 220.769776 
L 208.487101 222.32543 
L 213.424387 223.684733 
L 218.412082 224.845509 
L 223.442206 225.805903 
L 228.506712 226.564376 
L 233.597497 227.119717 
L 238.706419 227.471037 
L 243.825302 227.617773 
L 248.945959 227.559691 
L 254.060198 227.296884 
L 259.159836 226.829772 
L 264.236715 226.159103 
L 269.282714 225.285949 
L 274.28976 224.211707 
L 279.249842 222.938097 
L 284.155026 221.467154 
L 288.997465 219.801233 
L 293.76941 217.942999 
L 298.46323 215.895424 
L 303.071413 213.661785 
L 307.586589 211.245654 
L 312.001534 208.650896 
L 316.309184 205.881664 
L 320.502649 202.942386 
L 324.57522 199.837766 
L 328.520382 196.57277 
L 332.331823 193.152621 
L 336.003446 189.58279 
L 339.529376 185.86899 
L 342.903974 182.01716 
L 346.121841 178.033464 
L 349.177828 173.924274 
L 352.067047 169.696163 
L 354.784876 165.355897 
L 356.840782 161.793246 
L 351.719831 161.812333 
L 346.60374 162.036187 
L 341.500693 162.464452 
L 336.418853 163.096442 
L 331.366352 163.931146 
L 326.351271 164.967228 
L 321.381634 166.203031 
L 316.465391 167.636578 
L 311.610407 169.265576 
L 306.824449 171.087418 
L 302.115174 173.09919 
L 297.490115 175.297674 
L 292.956671 177.679352 
L 288.522096 180.240415 
L 286.934726 181.215832 
L 290.501806 184.890126 
L 294.212966 188.418837 
L 298.062268 191.796317 
L 302.043554 195.017166 
L 306.150455 198.076228 
L 310.376401 200.968612 
L 314.714631 203.689689 
L 319.158205 206.235107 
L 323.700014 208.600793 
L 328.332792 210.782963 
L 333.049129 212.778126 
L 337.841477 214.58309 
L 340.536094 215.503302 
L 336.64998 212.168243 
L 332.633608 208.991255 
L 328.493402 205.97742 
L 324.235987 203.131559 
L 319.868174 200.458227 
L 315.39695 197.961698 
L 310.829467 195.645968 
L 306.173034 193.514741 
L 301.435099 191.571426 
L 296.623241 189.819133 
L 291.74516 188.260664 
L 286.808659 186.898513 
L 285.912185 186.673778 
L 289.65889 187.518966 
L 294.690725 188.470356 
L 299.75658 189.219764 
L 304.848352 189.765993 
L 309.957894 190.108168 
L 315.077032 190.245742 
L 320.197577 190.178496 
L 325.311336 189.906536 
L 330.41013 189.430298 
L 335.485801 188.750543 
L 340.530229 187.868359 
L 345.535344 186.785158 
L 350.493139 185.502672 
L 355.395683 184.022953 
L 359.529249 182.606193 
L 358.53026 177.583592 
L 357.33122 172.604957 
L 355.934047 167.678253 
L 354.340975 162.811362 
L 352.554555 158.01207 
L 350.577642 153.288055 
L 348.413401 148.646874 
L 346.065293 144.095952 
L 343.537075 139.64257 
L 340.832792 135.293851 
L 337.956769 131.056753 
L 334.913608 126.938055 
L 331.708178 122.944346 
L 328.345605 119.082014 
L 324.831271 115.357238 
L 321.170796 111.775978 
L 317.370036 108.343962 
L 313.435073 105.066682 
L 309.372202 101.949379 
L 305.187921 98.997042 
L 300.888925 96.214393 
L 296.482092 93.605883 
L 291.974471 91.175686 
L 287.373274 88.92769 
L 282.685861 86.865491 
L 277.919732 84.992388 
L 273.082511 83.311378 
L 268.181937 81.825149 
L 263.225849 80.53608 
L 258.222177 79.446233 
L 253.178925 78.557351 
L 248.104162 77.870857 
L 243.006005 77.387848 
L 237.892611 77.109097 
L 232.772159 77.03505 
L 227.652843 77.165826 
L 222.542851 77.501216 
L 217.450359 78.040682 
L 212.383513 78.783362 
L 207.350419 79.728068 
L 202.35913 80.873288 
L 197.417629 82.217191 
L 192.533823 83.757626 
L 187.715525 85.492129 
L 182.970442 87.417925 
L 178.306166 89.531933 
L 173.730158 91.830772 
L 169.249741 94.310763 
L 164.87208 96.96794 
L 160.604179 99.798051 
L 156.452867 102.796568 
L 152.424784 105.958696 
L 148.526374 109.279374 
L 144.763874 112.753291 
L 142.51133 114.972255 
L 141.261066 119.938273 
L 140.21039 124.950317 
L 139.360983 130.000367 
L 138.714204 135.080346 
L 138.271086 140.182125 
L 138.03234 145.297543 
L 137.998347 150.418416 
L 138.169162 155.536553 
L 138.544511 160.643765 
L 139.123793 165.731882 
L 139.906083 170.792764 
L 140.890128 175.818314 
L 142.074354 180.800493 
L 143.456868 185.731331 
L 145.035456 190.602939 
L 146.807594 195.407523 
L 148.770446 200.137397 
L 150.920873 204.784995 
L 153.255435 209.342881 
L 155.770395 213.803764 
L 158.461732 218.160507 
L 161.325139 222.40614 
L 164.356036 226.533871 
L 167.549573 230.537098 
L 170.900643 234.409414 
L 174.403883 238.144626 
L 178.05369 241.736758 
L 181.844224 245.180064 
L 185.769422 248.469034 
L 189.823004 251.598407 
L 193.998484 254.563177 
L 198.289185 257.358601 
L 202.68824 259.980207 
L 207.188612 262.4238 
L 211.783103 264.685472 
L 216.464361 266.761604 
L 221.224897 268.648875 
L 226.057097 270.344266 
L 230.953229 271.845064 
L 235.90546 273.148868 
L 240.905869 274.253594 
L 245.946454 275.157472 
L 251.019154 275.859058 
L 256.115851 276.357229 
L 261.228394 276.651188 
L 266.348602 276.740464 
L 271.468285 276.624916 
L 276.579251 276.304727 
L 281.673326 275.78041 
L 286.742358 275.052804 
L 291.77824 274.123072 
L 296.772914 272.992703 
L 301.71839 271.663504 
L 306.606756 270.137603 
L 309.592998 269.098316 
L 308.594009 264.075715 
L 307.394969 259.09708 
L 305.997796 254.170377 
L 304.404724 249.303486 
L 302.618304 244.504194 
L 300.641391 239.780179 
L 298.47715 235.138998 
L 296.129042 230.588076 
L 293.600824 226.134693 
L 290.896541 221.785975 
L 288.020518 217.548877 
L 284.977358 213.430179 
L 281.771927 209.436469 
L 278.409355 205.574137 
L 277.571688 204.658914 
L 282.261605 206.715411 
L 287.030009 208.582716 
L 291.86927 210.257842 
L 296.771648 211.73811 
L 301.7293 213.021151 
L 306.734294 214.104912 
L 311.778623 214.98766 
L 316.854218 215.667983 
L 321.952958 216.144791 
L 327.066688 216.417323 
L 332.187225 216.485143 
L 337.306379 216.348141 
L 340.143186 216.183839 
L 337.802764 211.628959 
L 335.282068 207.171315 
L 332.58513 202.818037 
L 329.716264 198.57609 
L 326.680061 194.452261 
L 323.481377 190.453146 
L 320.12533 186.585142 
L 316.617288 182.854439 
L 312.962864 179.267005 
L 309.167904 175.828578 
L 305.238479 172.544659 
L 301.180876 169.420502 
L 297.001585 166.461105 
L 292.707293 163.671202 
L 288.30487 161.055257 
L 285.047123 159.268608 
L 287.313985 154.676676 
L 289.395404 149.997766 
L 291.288053 145.239365 
L 292.988902 140.409084 
L 294.49523 135.514651 
L 295.804629 130.563896 
L 296.915003 125.564739 
L 297.824576 120.525177 
L 298.531893 115.453274 
L 299.035822 110.357142 
L 299.335556 105.244935 
L 299.430618 100.124831 
L 299.320853 95.005021 
L 299.006439 89.893696 
L 298.487878 84.799033 
L 297.765999 79.729181 
L 296.841958 74.692253 
L 295.717232 69.696305 
L 294.393622 64.74933 
L 294.06986 63.648 
L 292.701949 68.582908 
L 291.532476 73.568571 
L 290.563312 78.597013 
L 289.796007 83.660188 
L 289.231789 88.749997 
L 288.87156 93.858298 
L 288.715897 98.976918 
L 288.765048 104.097669 
L 289.018936 109.212358 
L 289.477153 114.312803 
L 290.138968 119.390844 
L 291.003321 124.438358 
L 292.068828 129.447269 
L 293.333787 134.409565 
L 294.796173 139.317307 
L 296.453646 144.162644 
L 298.303555 148.937823 
L 300.342941 153.635206 
L 302.568541 158.247278 
L 304.976794 162.76666 
L 307.563848 167.186123 
L 310.325564 171.498597 
L 313.257524 175.697182 
L 316.355037 179.775161 
L 319.613148 183.72601 
L 323.026645 187.54341 
L 326.590067 191.221253 
L 330.297712 194.753655 
L 334.143651 198.134965 
L 338.121729 201.359774 
L 342.225584 204.422923 
L 345.589649 206.750288 
L 345.01474 206.4687 
L 340.366259 204.320184 
L 335.635578 202.359276 
L 330.830266 200.589114 
L 325.958009 199.012529 
L 321.026604 197.632043 
L 316.043938 196.449865 
L 311.017984 195.467886 
L 305.956781 194.687677 
L 300.868426 194.110486 
L 295.76106 193.737237 
L 290.642853 193.568527 
L 285.521994 193.604625 
L 283.66202 193.668479 
L 287.274897 197.297752 
L 291.030016 200.779646 
L 294.92137 204.10859 
L 298.942733 207.279258 
L 303.087673 210.286579 
L 307.349558 213.12574 
L 311.72157 215.792201 
L 316.196715 218.281695 
L 320.767833 220.59024 
L 325.427612 222.714142 
L 330.168597 224.650003 
L 334.36939 226.184346 
L 330.434451 222.907037 
L 326.371603 219.789704 
L 322.187344 216.837336 
L 317.888369 214.054654 
L 313.481555 211.446112 
L 308.973952 209.015882 
L 304.372771 206.767852 
L 299.685374 204.705618 
L 294.919259 202.83248 
L 290.08205 201.151434 
L 285.181487 199.665169 
L 281.338176 198.647126 
L 285.197158 202.013543 
L 289.187673 205.22295 
L 293.303339 208.270211 
L 297.53757 211.150452 
L 301.883593 213.859064 
L 306.334456 216.391716 
L 310.883037 218.744355 
L 315.52206 220.913217 
L 320.244104 222.894833 
L 325.041615 224.686033 
L 329.906917 226.28395 
L 333.680674 227.377238 
L 329.970751 223.847228 
L 326.122633 220.468398 
L 322.142476 217.246155 
L 318.036648 214.185652 
L 313.811716 211.291788 
L 309.47444 208.56919 
L 305.031758 206.022215 
L 300.490778 203.654937 
L 295.858765 201.471144 
L 291.143128 199.474328 
L 286.351412 197.667685 
L 282.483805 196.366155 
L 286.843205 199.053184 
L 291.306571 201.563735 
L 295.866762 203.893791 
L 300.516483 206.039624 
L 305.248295 207.997801 
L 310.054628 209.76519 
L 314.927793 211.338963 
L 319.859995 212.716602 
L 324.843342 213.895905 
L 329.869862 214.874983 
L 334.931515 215.65227 
L 340.113568 216.235139 
L 337.074924 212.113107 
L 333.873873 208.115886 
L 330.515537 204.249871 
L 327.005287 200.521245 
L 323.34874 196.935974 
L 319.551745 193.499794 
L 315.620377 190.218202 
L 311.560925 187.096448 
L 307.379883 184.139525 
L 303.083941 181.352165 
L 298.679969 178.738826 
L 294.175015 176.303689 
L 289.576285 174.050651 
L 287.351689 173.041113 
L 291.859091 170.61051 
L 296.26569 168.001604 
L 300.564435 165.218568 
L 304.74845 162.265854 
L 308.811042 159.148186 
L 312.74571 155.870551 
L 316.54616 152.438194 
L 320.206313 148.856604 
L 323.720312 145.131512 
L 327.082537 141.268878 
L 330.287608 137.27488 
L 333.330399 133.155908 
L 336.20604 128.918552 
L 337.076454 127.560426 
L 331.964697 127.867748 
L 326.869319 128.37924 
L 321.798471 129.094084 
L 316.760265 130.011135 
L 311.762762 131.128928 
L 306.813956 132.445673 
L 301.921764 133.959265 
L 297.094013 135.667281 
L 292.338425 137.56699 
L 287.66261 139.655352 
L 283.074048 141.929026 
L 278.580078 144.384375 
L 277.861231 144.799105 
L 281.669959 141.375935 
L 285.33875 137.803195 
L 288.861735 134.0866 
L 292.233278 130.232096 
L 295.447985 126.245849 
L 298.500713 122.134237 
L 301.386578 117.903837 
L 304.100965 113.561418 
L 306.639529 109.113925 
L 308.998211 104.568474 
L 311.173237 99.932337 
L 313.161126 95.212931 
L 314.9587 90.417805 
L 315.212355 89.690696 
L 310.166016 88.81951 
L 305.088876 88.15082 
L 299.989056 87.685697 
L 294.874716 87.424884 
L 289.754036 87.368798 
L 284.63521 87.517531 
L 279.526426 87.870842 
L 274.435858 88.428168 
L 269.371648 89.188617 
L 264.341899 90.150972 
L 259.354657 91.313693 
L 254.417901 92.67492 
L 249.539528 94.232477 
L 244.727343 95.98387 
L 239.989045 97.926299 
L 235.332213 100.056655 
L 230.764297 102.371531 
L 226.292606 104.867223 
L 221.924293 107.539738 
L 217.666346 110.384802 
L 213.525577 113.397863 
L 209.50861 116.5741 
L 205.621872 119.908432 
L 201.871581 123.395525 
L 198.263737 127.029801 
L 194.80411 130.805445 
L 191.498236 134.716417 
L 188.351404 138.75646 
L 185.368648 142.919111 
L 182.554739 147.197711 
L 179.914179 151.585415 
L 177.451193 156.075204 
L 175.169721 160.659894 
L 173.073412 165.332152 
L 171.16562 170.084502 
L 169.449398 174.909342 
L 167.927491 179.798954 
L 166.602334 184.745514 
L 165.476046 189.74111 
L 164.550429 194.777749 
L 163.826965 199.847375 
L 163.306811 204.941876 
L 162.990798 210.053102 
L 162.879433 215.172878 
L 162.972893 220.293011 
L 163.271029 225.405312 
L 163.773364 230.501601 
L 164.479094 235.573725 
L 165.387091 240.613571 
L 166.495902 245.613075 
L 167.803752 250.564239 
L 169.30855 255.459143 
L 171.007889 260.289956 
L 172.899049 265.048949 
L 174.979005 269.728509 
L 177.24443 274.32115 
L 179.6917 278.819524 
L 182.316899 283.216436 
L 183.716702 285.408 
L 186.43066 281.065313 
L 188.968786 276.617569 
L 191.32702 272.071886 
L 193.501588 267.435535 
L 195.489012 262.715932 
L 197.286113 257.920629 
L 198.890015 253.057297 
L 200.298153 248.133716 
L 201.508274 243.157763 
L 202.518441 238.137398 
L 203.32704 233.080653 
L 203.932776 227.995618 
L 204.334681 222.890427 
L 204.53211 217.773248 
L 204.552888 214.824282 
L 199.59886 216.121242 
L 194.700659 217.615273 
L 189.866121 219.303985 
L 185.102981 221.184676 
L 180.418859 223.254338 
L 175.821247 225.509658 
L 171.317502 227.947031 
L 166.914829 230.562555 
L 162.62027 233.352047 
L 158.440696 236.311045 
L 154.382794 239.434814 
L 150.453056 242.718357 
L 148.49872 244.454209 
L 153.34218 242.79126 
L 158.115265 240.935953 
L 162.810339 238.891259 
L 167.419892 236.660447 
L 171.93655 234.247086 
L 176.353085 231.655038 
L 180.662434 228.888449 
L 184.857701 225.951744 
L 188.932176 222.849623 
L 192.87934 219.587048 
L 196.692879 216.169238 
L 200.366691 212.601661 
L 201.097714 211.856755 
L 199.818746 213.289404 
L 196.514692 217.201914 
L 193.369739 221.24342 
L 190.388919 225.407458 
L 187.577 229.687367 
L 184.938482 234.076298 
L 182.477584 238.567232 
L 180.198245 243.152983 
L 178.104109 247.826215 
L 176.198529 252.579452 
L 174.484551 257.40509 
L 172.964918 262.295409 
L 171.642062 267.242586 
L 170.518098 272.238705 
L 169.594824 277.275774 
L 169.150347 280.223877 
L 173.932881 282.05469 
L 178.784802 283.692788 
L 183.698348 285.13555 
L 184.716418 285.408 
L 189.641674 284.005731 
L 194.506915 282.407627 
L 199.304356 280.616243 
L 204.026324 278.634445 
L 208.665264 276.465405 
L 213.213755 274.112591 
L 217.66452 271.579768 
L 222.010439 268.870988 
L 226.244559 265.990584 
L 230.360108 262.943165 
L 234.3505 259.733605 
L 238.209351 256.367039 
L 241.93049 252.848854 
L 245.507962 249.184676 
L 248.936044 245.380369 
L 252.209253 241.442019 
L 255.322352 237.375925 
L 258.270359 233.188592 
L 261.048561 228.886721 
L 263.652511 224.477192 
L 266.078043 219.967059 
L 268.321279 215.363539 
L 269.03277 213.798611 
L 273.977539 212.466785 
L 278.865094 210.938286 
L 283.687616 209.21556 
L 288.43739 207.301363 
L 293.106817 205.198756 
L 297.688427 202.911104 
L 302.17489 200.442067 
L 306.55903 197.795593 
L 310.833832 194.975918 
L 314.992458 191.987552 
L 319.028255 188.835275 
L 322.934765 185.524131 
L 326.705741 182.059417 
L 330.335149 178.446676 
L 333.817182 174.691686 
L 337.146271 170.800456 
L 340.317089 166.779211 
L 343.324564 162.634383 
L 346.163884 158.372604 
L 348.830507 154.000691 
L 350.566373 150.925651 
L 345.445418 150.907829 
L 340.327846 151.094804 
L 335.221845 151.486279 
L 330.135582 152.081625 
L 325.077196 152.879892 
L 320.054778 153.879802 
L 315.076363 155.079755 
L 310.149916 156.477831 
L 305.283317 158.071795 
L 300.484353 159.859096 
L 295.7607 161.836874 
L 291.119916 164.001967 
L 286.704392 166.277889 
L 291.766548 167.051892 
L 296.855606 167.622844 
L 301.963426 167.98983 
L 307.081835 168.152265 
L 312.202647 168.109888 
L 317.317667 167.862767 
L 322.418714 167.411298 
L 327.497626 166.756202 
L 332.546279 165.898528 
L 337.556596 164.839648 
L 342.520561 163.581255 
L 347.430233 162.125364 
L 352.277758 160.474302 
L 355.398433 159.295024 
L 351.458249 162.566026 
L 347.652022 165.991976 
L 343.985841 169.567395 
L 340.465571 173.286562 
L 337.096844 177.143527 
L 333.885049 181.13212 
L 330.835324 185.24596 
L 327.952549 189.478466 
L 325.241334 193.822867 
L 322.706018 198.272212 
L 320.350657 202.819384 
L 318.179017 207.457108 
L 316.194575 212.177965 
L 314.400503 216.974402 
L 312.799673 221.838747 
L 311.394645 226.763216 
L 310.187668 231.739933 
L 309.180671 236.760934 
L 308.375267 241.818189 
L 307.772743 246.903606 
L 307.374063 252.00905 
L 307.179866 257.126353 
L 307.190461 262.247328 
L 307.405832 267.363784 
L 307.799068 272.205494 
L 303.173701 274.40333 
L 298.639923 276.784372 
L 294.204988 279.344812 
L 289.875991 282.080555 
L 285.659858 284.987223 
L 285.078353 285.408 
L 280.87858 282.477741 
L 276.564989 279.717773 
L 272.144478 277.13251 
L 267.62412 274.726088 
L 263.011147 272.502357 
L 258.312938 270.464874 
L 253.537009 268.6169 
L 248.691002 266.96139 
L 243.782668 265.500992 
L 238.81986 264.238044 
L 233.810517 263.174566 
L 228.762653 262.312258 
L 223.684344 261.652501 
L 218.583714 261.19635 
L 213.468923 260.944535 
L 208.348153 260.897458 
L 203.229596 261.055195 
L 198.121442 261.417493 
L 193.031861 261.983773 
L 187.968997 262.75313 
L 182.940949 263.724331 
L 177.95576 264.895824 
L 173.021407 266.265734 
L 168.145781 267.83187 
L 163.071577 269.695137 
L 167.007496 266.419006 
L 170.809257 262.988099 
L 174.470777 259.407908 
L 177.986199 255.684158 
L 181.349899 251.822808 
L 184.556495 247.830034 
L 187.600858 243.712225 
L 190.478117 239.475967 
L 193.18367 235.128038 
L 195.713188 230.675394 
L 198.062624 226.125157 
L 200.22822 221.484608 
L 202.206511 216.76117 
L 203.324549 213.82982 
L 198.961261 216.510532 
L 194.708663 219.363586 
L 190.573559 222.384416 
L 186.562563 225.568189 
L 182.682092 228.909813 
L 178.938355 232.403942 
L 175.33734 236.044985 
L 171.884809 239.827117 
L 168.586284 243.744289 
L 165.447043 247.790234 
L 162.472107 251.958478 
L 159.666237 256.242354 
L 157.437046 259.935844 
L 162.556727 259.820243 
L 167.667691 259.500003 
L 172.76176 258.975634 
L 177.830785 258.247977 
L 182.866657 257.318195 
L 187.86132 256.187775 
L 192.806782 254.858526 
L 197.695133 253.332575 
L 202.518552 251.612363 
L 207.269323 249.700641 
L 211.939845 247.600468 
L 216.522646 245.315204 
L 221.010396 242.848505 
L 225.395914 240.204317 
L 229.672185 237.38687 
L 233.832368 234.400671 
L 237.869807 231.250498 
L 241.778043 227.941391 
L 245.037976 224.965897 
L 249.777174 226.906128 
L 254.590171 228.65529 
L 259.469265 230.210585 
L 264.406652 231.569524 
L 269.394432 232.729932 
L 274.424627 233.689955 
L 279.489188 234.448056 
L 284.580015 235.003021 
L 289.688962 235.353965 
L 294.807856 235.500323 
L 299.928509 235.441864 
L 305.042728 235.17868 
L 310.142332 234.711192 
L 315.219162 234.040149 
L 320.265096 233.166623 
L 325.272063 232.092012 
L 330.232051 230.818036 
L 331.983252 230.317259 
L 330.67686 225.365709 
L 329.173504 220.470362 
L 327.475589 215.639049 
L 325.585831 210.879499 
L 323.507254 206.199326 
L 321.243182 201.606018 
L 318.797237 197.106923 
L 316.173334 192.709238 
L 313.375668 188.419999 
L 310.408717 184.246068 
L 307.277227 180.194122 
L 303.986206 176.270643 
L 300.540921 172.481908 
L 296.946882 168.833979 
L 293.20984 165.33269 
L 289.335774 161.983645 
L 285.330879 158.792199 
L 284.751432 158.351704 
L 286.072457 153.404038 
L 287.19457 148.407503 
L 288.115978 143.370092 
L 288.835207 138.299864 
L 289.351105 133.20493 
L 289.662847 128.093441 
L 289.769935 122.973574 
L 289.672197 117.853521 
L 289.36979 112.741471 
L 288.863197 107.645603 
L 288.153229 102.57407 
L 287.241022 97.534985 
L 286.128034 92.536409 
L 284.816048 87.586339 
L 283.307161 82.692694 
L 281.603787 77.863303 
L 279.708651 73.105892 
L 277.624786 68.428071 
L 275.256979 63.648 
L 272.980068 68.234957 
L 270.888408 72.909298 
L 268.985344 77.663543 
L 267.273922 82.490088 
L 265.756879 87.381211 
L 264.436642 92.329087 
L 263.315323 97.3258 
L 262.394717 102.363358 
L 261.676296 107.4337 
L 261.161209 112.528716 
L 260.85028 117.640255 
L 260.744007 122.760138 
L 260.84256 127.880176 
L 260.927083 129.701763 
L 265.351278 127.12281 
L 269.668804 124.369 
L 273.872753 121.444737 
L 277.9564 118.3547 
L 281.913212 115.103832 
L 285.736859 111.697335 
L 289.421224 108.140657 
L 292.960412 104.439489 
L 296.348763 100.599751 
L 299.580854 96.627587 
L 302.651516 92.529352 
L 305.555837 88.3116 
L 308.289169 83.981081 
L 310.113624 80.859435 
L 304.992959 80.916738 
L 299.87868 81.178767 
L 294.778971 81.645103 
L 289.70199 82.315 
L 284.655858 83.187386 
L 279.648649 84.260866 
L 274.688373 85.533723 
L 269.782965 87.003919 
L 264.940274 88.669103 
L 260.168045 90.526612 
L 255.473914 92.573472 
L 250.865391 94.806411 
L 246.349848 97.221855 
L 241.934509 99.815941 
L 237.626437 102.584518 
L 233.432525 105.523158 
L 229.359482 108.627158 
L 225.413823 111.891555 
L 221.601862 115.311124 
L 217.929696 118.880396 
L 214.403201 122.59366 
L 211.028017 126.444976 
L 207.809545 130.428183 
L 205.490525 133.513573 
L 200.7029 135.33103 
L 195.991784 137.338486 
L 191.364712 139.532731 
L 186.829088 141.910255 
L 182.392168 144.467253 
L 178.06105 147.199635 
L 173.842662 150.103031 
L 169.743753 153.172794 
L 165.77088 156.404015 
L 161.9304 159.791524 
L 158.228456 163.329901 
L 154.670971 167.013486 
L 151.263635 170.836386 
L 148.0119 174.792485 
L 144.920968 178.875455 
L 141.995784 183.078763 
L 139.241026 187.395685 
L 136.661104 191.819314 
L 134.260142 196.342575 
L 132.041984 200.958231 
L 130.010177 205.658897 
L 128.436128 209.70478 
L 133.499976 210.467633 
L 138.590279 211.027376 
L 143.698895 211.383113 
L 148.81765 211.534275 
L 153.938355 211.480621 
L 159.052819 211.222236 
L 164.152859 210.759534 
L 169.230316 210.093255 
L 174.277068 209.224465 
L 179.285041 208.154553 
L 184.246223 206.885232 
L 189.152677 205.418532 
L 194.084405 203.724647 
L 190.829641 207.678254 
L 187.735582 211.758855 
L 184.807179 215.959921 
L 182.049116 220.274731 
L 179.465805 224.696384 
L 177.06138 229.217804 
L 174.839687 233.831759 
L 172.804279 238.530867 
L 170.958414 243.307611 
L 169.305045 248.154349 
L 167.846816 253.063328 
L 166.58606 258.026693 
L 165.524794 263.036505 
L 164.664716 268.084749 
L 164.184791 271.623281 
L 168.93525 273.535778 
L 173.758388 275.256778 
L 178.64649 276.783527 
L 183.591735 278.113582 
L 188.586213 279.244817 
L 193.621933 280.175421 
L 198.69084 280.903906 
L 203.784823 281.429105 
L 208.895735 281.75018 
L 214.015397 281.866615 
L 219.135621 281.778226 
L 224.248214 281.485153 
L 229.344998 280.987866 
L 234.417819 280.287159 
L 239.458561 279.384154 
L 244.459161 278.280295 
L 249.411618 276.977348 
L 254.30801 275.477399 
L 259.140503 273.782845 
L 263.901367 271.896399 
L 268.582984 269.821078 
L 273.177867 267.560203 
L 277.678663 265.117389 
L 282.078172 262.496546 
L 286.369356 259.701865 
L 290.545351 256.737819 
L 294.599475 253.609148 
L 298.525242 250.320858 
L 302.316373 246.87821 
L 305.966802 243.28671 
L 309.47069 239.552105 
L 312.82243 235.680369 
L 316.016662 231.677697 
L 319.048273 227.55049 
L 321.912416 223.305353 
L 324.604508 218.949077 
L 327.120241 214.48863 
L 329.455592 209.931149 
L 331.606825 205.283923 
L 333.570497 200.554389 
L 335.343467 195.750112 
L 336.9229 190.878778 
L 338.306267 185.94818 
L 339.491357 180.966206 
L 340.476273 175.940827 
L 341.259439 170.88008 
L 341.839604 165.792064 
L 342.215837 160.684917 
L 342.387539 155.56681 
L 342.354433 150.44593 
L 342.116574 145.330471 
L 341.67434 140.228615 
L 341.028441 135.148525 
L 340.875696 134.140906 
L 336.823958 131.009145 
L 332.650225 128.041916 
L 328.361172 125.243965 
L 323.963662 122.619768 
L 319.46473 120.173524 
L 314.871573 117.909146 
L 310.191538 115.830257 
L 305.432114 113.940182 
L 300.600914 112.241945 
L 295.705667 110.738263 
L 290.754205 109.431541 
L 285.754448 108.32387 
L 280.714396 107.417022 
L 275.642111 106.712448 
L 270.545707 106.211275 
L 265.433339 105.914305 
L 260.313184 105.822012 
L 255.193434 105.934545 
L 250.08228 106.251723 
L 244.987897 106.773039 
L 239.918437 107.497658 
L 234.882009 108.424423 
L 229.88667 109.55185 
L 224.940412 110.878135 
L 220.051148 112.401157 
L 215.226699 114.118479 
L 210.474783 116.027354 
L 205.803004 118.124728 
L 201.218834 120.407245 
L 196.729607 122.871255 
L 192.342505 125.512815 
L 188.064547 128.327699 
L 183.902575 131.311405 
L 179.86325 134.459158 
L 175.953032 137.765923 
L 172.178177 141.226411 
L 168.544724 144.835084 
L 165.058486 148.58617 
L 161.72504 152.473668 
L 158.549719 156.491358 
L 155.537602 160.632814 
L 152.693509 164.891409 
L 150.021989 169.260332 
L 147.527317 173.732592 
L 145.213483 178.301035 
L 143.084188 182.958353 
L 141.14284 187.697094 
L 139.392544 192.509678 
L 137.8361 197.388406 
L 136.475998 202.325472 
L 135.314414 207.312979 
L 134.353206 212.342947 
L 133.593912 217.40733 
L 133.467014 218.41853 
L 138.217472 220.331027 
L 143.040611 222.052027 
L 147.928712 223.578776 
L 152.873958 224.908831 
L 157.868436 226.040066 
L 162.904156 226.97067 
L 167.973062 227.699154 
L 173.067046 228.224354 
L 178.177957 228.545429 
L 183.29762 228.661864 
L 188.417843 228.573475 
L 193.530436 228.280402 
L 198.62722 227.783114 
L 203.700041 227.082407 
L 208.740784 226.179402 
L 213.741383 225.075544 
L 218.693841 223.772597 
L 220.429166 223.265467 
L 223.629229 227.263479 
L 226.986611 231.130324 
L 230.495939 234.859817 
L 234.151601 238.445991 
L 237.947746 241.883108 
L 241.878304 245.165671 
L 245.936985 248.288428 
L 250.117296 251.246384 
L 254.41255 254.034805 
L 258.815876 256.649231 
L 263.320228 259.085481 
L 267.918402 261.339655 
L 272.60304 263.408148 
L 277.366649 265.287651 
L 282.201608 266.975158 
L 287.100181 268.467967 
L 292.054533 269.763692 
L 297.056736 270.86026 
L 302.09879 271.755915 
L 307.628229 272.501396 
L 304.505403 268.442768 
L 301.222773 264.512267 
L 297.78559 260.71618 
L 294.199354 257.060579 
L 290.469802 253.551314 
L 286.602899 250.193999 
L 282.604833 246.994004 
L 278.482 243.956448 
L 274.240994 241.086192 
L 269.888601 238.387826 
L 265.431783 235.865669 
L 260.877671 233.523753 
L 256.233551 231.365827 
L 251.506851 229.395343 
L 246.705133 227.615452 
L 241.83608 226.029002 
L 240.302447 225.57347 
L 235.72389 227.867226 
L 231.240722 230.342241 
L 226.860113 232.994556 
L 222.589073 235.819926 
L 218.434434 238.813832 
L 214.402842 241.971485 
L 210.500748 245.287833 
L 206.734393 248.75757 
L 203.109804 252.375145 
L 199.632778 256.134772 
L 196.308879 260.030436 
L 193.143423 264.055904 
L 190.141475 268.204736 
L 187.307838 272.470296 
L 184.647044 276.845759 
L 182.16335 281.324126 
L 180.096627 285.408 
L 177.774591 280.84372 
L 175.27189 276.375947 
L 172.592528 272.01183 
L 169.740791 267.758349 
L 166.721241 263.62231 
L 163.538709 259.610329 
L 160.198287 255.728824 
L 156.705317 251.984006 
L 153.065389 248.381864 
L 149.284325 244.928162 
L 148.258004 244.037278 
L 147.210692 239.02453 
L 145.963762 234.057673 
L 144.519207 229.144653 
L 142.87934 224.29333 
L 141.046783 219.511465 
L 139.024468 214.806707 
L 136.815631 210.186584 
L 134.423805 205.658486 
L 131.852816 201.229658 
L 129.106778 196.907184 
L 126.190084 192.69798 
L 123.1074 188.60878 
L 119.863657 184.646125 
L 116.464045 180.816355 
L 112.914002 177.125597 
L 108.863111 173.25268 
L 108.863111 173.25268 
" style="fill:none;stroke:#1f77b4;stroke-linecap:square;stroke-width:1.5;"/>
   </g>
   <g id="patch_4">
    <path d="M 82.520165 307.584 
L 82.520165 41.472 
" style="fill:none;stroke:#000000;stroke-linecap:square;stroke-linejoin:miter;stroke-width:0.8;"/>
   </g>
   <g id="patch_5">
    <path d="M 389.799835 307.584 
L 389.799835 41.472 
" style="fill:none;stroke:#000000;stroke-linecap:square;stroke-linejoin:miter;stroke-width:0.8;"/>
   </g>
   <g id="patch_6">
    <path d="M 82.520165 307.584 
L 389.799835 307.584 
" style="fill:none;stroke:#000000;stroke-linecap:square;stroke-linejoin:miter;stroke-width:0.8;"/>
   </g>
   <g id="patch_7">
    <path d="M 82.520165 41.472 
L 389.799835 41.472 
" style="fill:none;stroke:#000000;stroke-linecap:square;stroke-linejoin:miter;stroke-width:0.8;"/>
   </g>
  </g>
 </g>
 <defs>
  <clipPath id="p97ed5c7526">
   <rect height="266.112" width="307.27967" x="82.520165" y="41.472"/>
  </clipPath>
 </defs>
</svg>
