<?xml version="1.0" encoding="utf-8" standalone="no"?>
<!DOCTYPE svg PUBLIC "-//W3C//DTD SVG 1.1//EN"
  "http://www.w3.org/Graphics/SVG/1.1/DTD/svg11.dtd">
<!-- Created with matplotlib (http://matplotlib.org/) -->
<svg height="345.6pt" version="1.1" viewBox="0 0 460.8 345.6" width="460.8pt" xmlns="http://www.w3.org/2000/svg" xmlns:xlink="http://www.w3.org/1999/xlink">
 <defs>
  <style type="text/css">
*{stroke-linecap:butt;stroke-linejoin:round;}
  </style>
 </defs>
 <g id="figure_1">
  <g id="patch_1">
   <path d="M 0 345.6 
L 460.8 345.6 
L 460.8 0 
L 0 0 
z
" style="fill:#ffffff;"/>
  </g>
  <g id="axes_1">
   <g id="patch_2">
    <path d="M 82.520165 307.584 
L 389.799835 307.584 
L 389.799835 41.472 
L 82.520165 41.472 
z
" style="fill:#ffffff;"/>
   </g>
   <g id="PathCollection_1">
    <defs>
     <path d="M 0 2.738613 
C 0.726289 2.738613 1.422928 2.450055 1.936492 1.936492 
C 2.450055 1.422928 2.738613 0.726289 2.738613 0 
C 2.738613 -0.726289 2.450055 -1.422928 1.936492 -1.936492 
C 1.422928 -2.450055 0.726289 -2.738613 0 -2.738613 
C -0.726289 -2.738613 -1.422928 -2.450055 -1.936492 -1.936492 
C -2.450055 -1.422928 -2.738613 -0.726289 -2.738613 0 
C -2.738613 0.726289 -2.450055 1.422928 -1.936492 1.936492 
C -1.422928 2.450055 -0.726289 2.738613 0 2.738613 
z
" id="mf49b5038e1" style="stroke:#000000;"/>
    </defs>
    <g clip-path="url(#pa2b5b74c2d)">
     <use style="stroke:#000000;" x="255.786747" xlink:href="#mf49b5038e1" y="63.648"/>
    </g>
   </g>
   <g id="Quiver_1">
    <path clip-path="url(#pa2b5b74c2d)" d="M 256.358503 63.134946 
L 268.158742 76.28535 
L 268.789201 74.687486 
L 272.20447 81.944214 
L 265.358661 77.765809 
L 267.015228 77.311458 
L 255.21499 64.161054 
L 256.358503 63.134946 
"/>
   </g>
   <g id="patch_3">
    <path clip-path="url(#pa2b5b74c2d)" d="M 236.16 225.741278 
C 249.74192 225.741278 262.769389 220.345124 272.373256 210.741256 
C 281.977124 201.137389 287.373278 188.10992 287.373278 174.528 
C 287.373278 160.94608 281.977124 147.918611 272.373256 138.314744 
C 262.769389 128.710876 249.74192 123.314722 236.16 123.314722 
C 222.57808 123.314722 209.550611 128.710876 199.946744 138.314744 
C 190.342876 147.918611 184.946722 160.94608 184.946722 174.528 
C 184.946722 188.10992 190.342876 201.137389 199.946744 210.741256 
C 209.550611 220.345124 222.57808 225.741278 236.16 225.741278 
z
" style="fill:#009900;fill-opacity:0.5;stroke:#009900;stroke-linejoin:miter;stroke-width:2;"/>
   </g>
   <g id="matplotlib.axis_1">
    <g id="xtick_1">
     <g id="line2d_1">
      <defs>
       <path d="M 0 0 
L 0 3.5 
" id="m41d3b066b4" style="stroke:#000000;stroke-width:0.8;"/>
      </defs>
      <g>
       <use style="stroke:#000000;stroke-width:0.8;" x="108.126804" xlink:href="#m41d3b066b4" y="307.584"/>
      </g>
     </g>
     <g id="text_1">
      <!-- −2 -->
      <defs>
       <path d="M 10.59375 35.5 
L 73.1875 35.5 
L 73.1875 27.203125 
L 10.59375 27.203125 
z
" id="DejaVuSans-2212"/>
       <path d="M 19.1875 8.296875 
L 53.609375 8.296875 
L 53.609375 0 
L 7.328125 0 
L 7.328125 8.296875 
Q 12.9375 14.109375 22.625 23.890625 
Q 32.328125 33.6875 34.8125 36.53125 
Q 39.546875 41.84375 41.421875 45.53125 
Q 43.3125 49.21875 43.3125 52.78125 
Q 43.3125 58.59375 39.234375 62.25 
Q 35.15625 65.921875 28.609375 65.921875 
Q 23.96875 65.921875 18.8125 64.3125 
Q 13.671875 62.703125 7.8125 59.421875 
L 7.8125 69.390625 
Q 13.765625 71.78125 18.9375 73 
Q 24.125 74.21875 28.421875 74.21875 
Q 39.75 74.21875 46.484375 68.546875 
Q 53.21875 62.890625 53.21875 53.421875 
Q 53.21875 48.921875 51.53125 44.890625 
Q 49.859375 40.875 45.40625 35.40625 
Q 44.1875 33.984375 37.640625 27.21875 
Q 31.109375 20.453125 19.1875 8.296875 
z
" id="DejaVuSans-32"/>
      </defs>
      <g transform="translate(100.755711 322.182437)scale(0.1 -0.1)">
       <use xlink:href="#DejaVuSans-2212"/>
       <use x="83.789062" xlink:href="#DejaVuSans-32"/>
      </g>
     </g>
    </g>
    <g id="xtick_2">
     <g id="line2d_2">
      <g>
       <use style="stroke:#000000;stroke-width:0.8;" x="172.143402" xlink:href="#m41d3b066b4" y="307.584"/>
      </g>
     </g>
     <g id="text_2">
      <!-- −1 -->
      <defs>
       <path d="M 12.40625 8.296875 
L 28.515625 8.296875 
L 28.515625 63.921875 
L 10.984375 60.40625 
L 10.984375 69.390625 
L 28.421875 72.90625 
L 38.28125 72.90625 
L 38.28125 8.296875 
L 54.390625 8.296875 
L 54.390625 0 
L 12.40625 0 
z
" id="DejaVuSans-31"/>
      </defs>
      <g transform="translate(164.772308 322.182437)scale(0.1 -0.1)">
       <use xlink:href="#DejaVuSans-2212"/>
       <use x="83.789062" xlink:href="#DejaVuSans-31"/>
      </g>
     </g>
    </g>
    <g id="xtick_3">
     <g id="line2d_3">
      <g>
       <use style="stroke:#000000;stroke-width:0.8;" x="236.16" xlink:href="#m41d3b066b4" y="307.584"/>
      </g>
     </g>
     <g id="text_3">
      <!-- 0 -->
      <defs>
       <path d="M 31.78125 66.40625 
Q 24.171875 66.40625 20.328125 58.90625 
Q 16.5 51.421875 16.5 36.375 
Q 16.5 21.390625 20.328125 13.890625 
Q 24.171875 6.390625 31.78125 6.390625 
Q 39.453125 6.390625 43.28125 13.890625 
Q 47.125 21.390625 47.125 36.375 
Q 47.125 51.421875 43.28125 58.90625 
Q 39.453125 66.40625 31.78125 66.40625 
z
M 31.78125 74.21875 
Q 44.046875 74.21875 50.515625 64.515625 
Q 56.984375 54.828125 56.984375 36.375 
Q 56.984375 17.96875 50.515625 8.265625 
Q 44.046875 -1.421875 31.78125 -1.421875 
Q 19.53125 -1.421875 13.0625 8.265625 
Q 6.59375 17.96875 6.59375 36.375 
Q 6.59375 54.828125 13.0625 64.515625 
Q 19.53125 74.21875 31.78125 74.21875 
z
" id="DejaVuSans-30"/>
      </defs>
      <g transform="translate(232.97875 322.182437)scale(0.1 -0.1)">
       <use xlink:href="#DejaVuSans-30"/>
      </g>
     </g>
    </g>
    <g id="xtick_4">
     <g id="line2d_4">
      <g>
       <use style="stroke:#000000;stroke-width:0.8;" x="300.176598" xlink:href="#m41d3b066b4" y="307.584"/>
      </g>
     </g>
     <g id="text_4">
      <!-- 1 -->
      <g transform="translate(296.995348 322.182437)scale(0.1 -0.1)">
       <use xlink:href="#DejaVuSans-31"/>
      </g>
     </g>
    </g>
    <g id="xtick_5">
     <g id="line2d_5">
      <g>
       <use style="stroke:#000000;stroke-width:0.8;" x="364.193196" xlink:href="#m41d3b066b4" y="307.584"/>
      </g>
     </g>
     <g id="text_5">
      <!-- 2 -->
      <g transform="translate(361.011946 322.182437)scale(0.1 -0.1)">
       <use xlink:href="#DejaVuSans-32"/>
      </g>
     </g>
    </g>
   </g>
   <g id="matplotlib.axis_2">
    <g id="ytick_1">
     <g id="line2d_6">
      <defs>
       <path d="M 0 0 
L -3.5 0 
" id="m3a76cf81fe" style="stroke:#000000;stroke-width:0.8;"/>
      </defs>
      <g>
       <use style="stroke:#000000;stroke-width:0.8;" x="82.520165" xlink:href="#m3a76cf81fe" y="302.561196"/>
      </g>
     </g>
     <g id="text_6">
      <!-- −2.0 -->
      <defs>
       <path d="M 10.6875 12.40625 
L 21 12.40625 
L 21 0 
L 10.6875 0 
z
" id="DejaVuSans-2e"/>
      </defs>
      <g transform="translate(51.237353 306.360414)scale(0.1 -0.1)">
       <use xlink:href="#DejaVuSans-2212"/>
       <use x="83.789062" xlink:href="#DejaVuSans-32"/>
       <use x="147.412109" xlink:href="#DejaVuSans-2e"/>
       <use x="179.199219" xlink:href="#DejaVuSans-30"/>
      </g>
     </g>
    </g>
    <g id="ytick_2">
     <g id="line2d_7">
      <g>
       <use style="stroke:#000000;stroke-width:0.8;" x="82.520165" xlink:href="#m3a76cf81fe" y="270.552897"/>
      </g>
     </g>
     <g id="text_7">
      <!-- −1.5 -->
      <defs>
       <path d="M 10.796875 72.90625 
L 49.515625 72.90625 
L 49.515625 64.59375 
L 19.828125 64.59375 
L 19.828125 46.734375 
Q 21.96875 47.46875 24.109375 47.828125 
Q 26.265625 48.1875 28.421875 48.1875 
Q 40.625 48.1875 47.75 41.5 
Q 54.890625 34.8125 54.890625 23.390625 
Q 54.890625 11.625 47.5625 5.09375 
Q 40.234375 -1.421875 26.90625 -1.421875 
Q 22.3125 -1.421875 17.546875 -0.640625 
Q 12.796875 0.140625 7.71875 1.703125 
L 7.71875 11.625 
Q 12.109375 9.234375 16.796875 8.0625 
Q 21.484375 6.890625 26.703125 6.890625 
Q 35.15625 6.890625 40.078125 11.328125 
Q 45.015625 15.765625 45.015625 23.390625 
Q 45.015625 31 40.078125 35.4375 
Q 35.15625 39.890625 26.703125 39.890625 
Q 22.75 39.890625 18.8125 39.015625 
Q 14.890625 38.140625 10.796875 36.28125 
z
" id="DejaVuSans-35"/>
      </defs>
      <g transform="translate(51.237353 274.352116)scale(0.1 -0.1)">
       <use xlink:href="#DejaVuSans-2212"/>
       <use x="83.789062" xlink:href="#DejaVuSans-31"/>
       <use x="147.412109" xlink:href="#DejaVuSans-2e"/>
       <use x="179.199219" xlink:href="#DejaVuSans-35"/>
      </g>
     </g>
    </g>
    <g id="ytick_3">
     <g id="line2d_8">
      <g>
       <use style="stroke:#000000;stroke-width:0.8;" x="82.520165" xlink:href="#m3a76cf81fe" y="238.544598"/>
      </g>
     </g>
     <g id="text_8">
      <!-- −1.0 -->
      <g transform="translate(51.237353 242.343817)scale(0.1 -0.1)">
       <use xlink:href="#DejaVuSans-2212"/>
       <use x="83.789062" xlink:href="#DejaVuSans-31"/>
       <use x="147.412109" xlink:href="#DejaVuSans-2e"/>
       <use x="179.199219" xlink:href="#DejaVuSans-30"/>
      </g>
     </g>
    </g>
    <g id="ytick_4">
     <g id="line2d_9">
      <g>
       <use style="stroke:#000000;stroke-width:0.8;" x="82.520165" xlink:href="#m3a76cf81fe" y="206.536299"/>
      </g>
     </g>
     <g id="text_9">
      <!-- −0.5 -->
      <g transform="translate(51.237353 210.335518)scale(0.1 -0.1)">
       <use xlink:href="#DejaVuSans-2212"/>
       <use x="83.789062" xlink:href="#DejaVuSans-30"/>
       <use x="147.412109" xlink:href="#DejaVuSans-2e"/>
       <use x="179.199219" xlink:href="#DejaVuSans-35"/>
      </g>
     </g>
    </g>
    <g id="ytick_5">
     <g id="line2d_10">
      <g>
       <use style="stroke:#000000;stroke-width:0.8;" x="82.520165" xlink:href="#m3a76cf81fe" y="174.528"/>
      </g>
     </g>
     <g id="text_10">
      <!-- 0.0 -->
      <g transform="translate(59.61704 178.327219)scale(0.1 -0.1)">
       <use xlink:href="#DejaVuSans-30"/>
       <use x="63.623047" xlink:href="#DejaVuSans-2e"/>
       <use x="95.410156" xlink:href="#DejaVuSans-30"/>
      </g>
     </g>
    </g>
    <g id="ytick_6">
     <g id="line2d_11">
      <g>
       <use style="stroke:#000000;stroke-width:0.8;" x="82.520165" xlink:href="#m3a76cf81fe" y="142.519701"/>
      </g>
     </g>
     <g id="text_11">
      <!-- 0.5 -->
      <g transform="translate(59.61704 146.31892)scale(0.1 -0.1)">
       <use xlink:href="#DejaVuSans-30"/>
       <use x="63.623047" xlink:href="#DejaVuSans-2e"/>
       <use x="95.410156" xlink:href="#DejaVuSans-35"/>
      </g>
     </g>
    </g>
    <g id="ytick_7">
     <g id="line2d_12">
      <g>
       <use style="stroke:#000000;stroke-width:0.8;" x="82.520165" xlink:href="#m3a76cf81fe" y="110.511402"/>
      </g>
     </g>
     <g id="text_12">
      <!-- 1.0 -->
      <g transform="translate(59.61704 114.310621)scale(0.1 -0.1)">
       <use xlink:href="#DejaVuSans-31"/>
       <use x="63.623047" xlink:href="#DejaVuSans-2e"/>
       <use x="95.410156" xlink:href="#DejaVuSans-30"/>
      </g>
     </g>
    </g>
    <g id="ytick_8">
     <g id="line2d_13">
      <g>
       <use style="stroke:#000000;stroke-width:0.8;" x="82.520165" xlink:href="#m3a76cf81fe" y="78.503103"/>
      </g>
     </g>
     <g id="text_13">
      <!-- 1.5 -->
      <g transform="translate(59.61704 82.302322)scale(0.1 -0.1)">
       <use xlink:href="#DejaVuSans-31"/>
       <use x="63.623047" xlink:href="#DejaVuSans-2e"/>
       <use x="95.410156" xlink:href="#DejaVuSans-35"/>
      </g>
     </g>
    </g>
    <g id="ytick_9">
     <g id="line2d_14">
      <g>
       <use style="stroke:#000000;stroke-width:0.8;" x="82.520165" xlink:href="#m3a76cf81fe" y="46.494804"/>
      </g>
     </g>
     <g id="text_14">
      <!-- 2.0 -->
      <g transform="translate(59.61704 50.294023)scale(0.1 -0.1)">
       <use xlink:href="#DejaVuSans-32"/>
       <use x="63.623047" xlink:href="#DejaVuSans-2e"/>
       <use x="95.410156" xlink:href="#DejaVuSans-30"/>
      </g>
     </g>
    </g>
   </g>
   <g id="line2d_15">
    <path clip-path="url(#pa2b5b74c2d)" d="M 300.176598 63.648 
L 172.143402 63.648 
" style="fill:none;stroke:#009900;stroke-linecap:square;stroke-width:2;"/>
   </g>
   <g id="line2d_16">
    <path clip-path="url(#pa2b5b74c2d)" d="M 172.143402 63.648 
L 108.126804 174.528 
" style="fill:none;stroke:#009900;stroke-linecap:square;stroke-width:2;"/>
   </g>
   <g id="line2d_17">
    <path clip-path="url(#pa2b5b74c2d)" d="M 108.126804 174.528 
L 172.143402 285.408 
" style="fill:none;stroke:#009900;stroke-linecap:square;stroke-width:2;"/>
   </g>
   <g id="line2d_18">
    <path clip-path="url(#pa2b5b74c2d)" d="M 172.143402 285.408 
L 300.176598 285.408 
" style="fill:none;stroke:#009900;stroke-linecap:square;stroke-width:2;"/>
   </g>
   <g id="line2d_19">
    <path clip-path="url(#pa2b5b74c2d)" d="M 300.176598 285.408 
L 364.193196 174.528 
" style="fill:none;stroke:#009900;stroke-linecap:square;stroke-width:2;"/>
   </g>
   <g id="line2d_20">
    <path clip-path="url(#pa2b5b74c2d)" d="M 364.193196 174.528 
L 300.176598 63.648 
" style="fill:none;stroke:#009900;stroke-linecap:square;stroke-width:2;"/>
   </g>
   <g id="line2d_21">
    <path clip-path="url(#pa2b5b74c2d)" d="M 334.956195 209.29983 
L 329.854346 209.742146 
L 324.774267 210.388129 
L 319.724083 211.236743 
L 314.711874 212.286632 
L 309.745659 213.536117 
L 304.833383 214.983197 
L 299.982904 216.625559 
L 295.201981 218.460574 
L 290.498264 220.485308 
L 285.879277 222.69652 
L 281.352409 225.090674 
L 276.924903 227.663939 
L 272.603842 230.412199 
L 268.396139 233.331057 
L 264.308524 236.415843 
L 260.347537 239.661623 
L 256.519516 243.063204 
L 252.830583 246.615144 
L 249.286641 250.311761 
L 245.893359 254.147141 
L 242.656165 258.115148 
L 239.580239 262.209434 
L 236.670501 266.42345 
L 233.931606 270.750453 
L 231.367936 275.183521 
L 228.983592 279.715563 
L 226.782389 284.339329 
L 226.305476 285.408 
L 224.146627 280.764308 
L 221.803806 276.210662 
L 219.280762 271.754346 
L 216.581531 267.40249 
L 213.710431 263.162055 
L 210.672056 259.039825 
L 207.471266 255.042396 
L 204.113182 251.176161 
L 200.603175 247.447306 
L 196.946862 243.861797 
L 193.150091 240.42537 
L 189.218937 237.143521 
L 185.159689 234.021502 
L 180.97884 231.064307 
L 176.683079 228.276666 
L 172.279278 225.663041 
L 167.774483 223.22761 
L 163.175899 220.974272 
L 158.490885 218.90663 
L 153.726934 217.027993 
L 148.891669 215.341366 
L 143.992825 213.849447 
L 139.038238 212.554622 
L 134.035835 211.458965 
L 128.926236 210.553673 
L 130.675042 205.740547 
L 132.229975 200.861338 
L 133.588549 195.92385 
L 134.748588 190.935984 
L 135.708239 185.905718 
L 136.465965 180.841101 
L 137.020553 175.750233 
L 137.371118 170.64126 
L 137.517099 165.522355 
L 137.45826 160.401706 
L 137.194698 155.287507 
L 136.726833 150.187938 
L 136.055413 145.111157 
L 135.181514 140.065288 
L 134.106533 135.058401 
L 133.136287 131.210305 
L 138.056263 129.789622 
L 142.915491 128.173329 
L 147.706198 126.364011 
L 152.420719 124.364563 
L 157.051512 122.178184 
L 161.59117 119.808372 
L 166.032429 117.258917 
L 170.368185 114.533899 
L 174.5915 111.637676 
L 178.69562 108.574882 
L 182.673978 105.350418 
L 186.520209 101.96944 
L 190.22816 98.437359 
L 193.7919 94.759825 
L 197.205728 90.94272 
L 200.464181 86.992153 
L 203.562047 82.914442 
L 206.49437 78.716111 
L 209.256459 74.403876 
L 211.843896 69.984637 
L 214.25254 65.465463 
L 215.15698 63.648 
L 217.493669 68.204796 
L 220.010711 72.664504 
L 222.704082 77.01999 
L 225.56947 81.264286 
L 228.602294 85.390602 
L 231.7977 89.392337 
L 235.150576 93.263089 
L 238.65556 96.996665 
L 242.307043 100.587093 
L 246.099184 104.028629 
L 250.025917 107.315766 
L 254.080959 110.443247 
L 258.257823 113.406067 
L 262.549828 116.199488 
L 266.950106 118.81904 
L 271.451619 121.260532 
L 276.047165 123.520059 
L 280.729392 125.594005 
L 285.490809 127.479054 
L 290.323799 129.172189 
L 295.220631 130.670701 
L 300.173471 131.972194 
L 305.174394 133.074585 
L 310.215401 133.97611 
L 315.288428 134.675328 
L 320.385358 135.17112 
L 325.498037 135.462692 
L 330.618286 135.549578 
L 335.737914 135.43164 
L 340.848731 135.109065 
L 341.407122 135.061363 
L 338.553715 139.313723 
L 335.87264 143.676788 
L 333.368185 148.143578 
L 331.044357 152.706946 
L 328.904875 157.359592 
L 326.953159 162.094073 
L 325.192334 166.902814 
L 323.625216 171.778124 
L 322.254311 176.712202 
L 321.081814 181.697154 
L 320.1096 186.725007 
L 319.339223 191.787715 
L 318.771917 196.877182 
L 318.408589 201.985263 
L 318.249821 207.103788 
L 318.295866 212.224567 
L 318.546651 217.339409 
L 319.001774 222.440131 
L 319.660508 227.518573 
L 320.521798 232.56661 
L 321.584267 237.576167 
L 322.846215 242.53923 
L 323.535852 244.948586 
L 318.580504 246.240495 
L 313.680782 247.729531 
L 308.844525 249.413313 
L 304.07947 251.289147 
L 299.39324 253.354031 
L 294.793332 255.604664 
L 290.287104 258.037443 
L 285.881766 260.648477 
L 281.584366 263.433589 
L 277.401777 266.388324 
L 273.340692 269.507954 
L 269.407608 272.787489 
L 265.608816 276.221682 
L 261.950394 279.805039 
L 258.438194 283.531828 
L 256.772756 285.408 
L 253.334251 281.613111 
L 249.746741 277.958761 
L 246.015966 274.450796 
L 242.147893 271.094828 
L 238.148712 267.896226 
L 234.02482 264.860108 
L 229.782815 261.991329 
L 225.429481 259.294481 
L 220.971785 256.773876 
L 216.416858 254.433548 
L 211.771985 252.277241 
L 207.044599 250.308403 
L 202.242261 248.530186 
L 197.372656 246.945433 
L 192.443572 245.55668 
L 187.462895 244.366149 
L 182.438594 243.375744 
L 177.378707 242.58705 
L 172.291327 242.001328 
L 167.184594 241.619515 
L 162.066678 241.442223 
L 156.945765 241.469735 
L 151.830049 241.702006 
L 147.137219 242.096021 
L 150.053023 237.8862 
L 152.798147 233.563146 
L 155.368199 229.133774 
L 157.759067 224.60517 
L 159.966927 219.98458 
L 161.988246 215.279395 
L 163.819792 210.497142 
L 165.458633 205.645472 
L 166.902149 200.732147 
L 168.148029 195.765026 
L 169.194281 190.752057 
L 170.039231 185.701259 
L 170.681526 180.620712 
L 171.120141 175.518544 
L 171.354372 170.402917 
L 171.383845 165.282016 
L 171.208513 160.164032 
L 170.828657 155.057153 
L 170.244884 149.969549 
L 169.458127 144.90936 
L 168.469647 139.88468 
L 167.281024 134.903548 
L 165.894159 129.973932 
L 164.311272 125.10372 
L 162.534894 120.300702 
L 160.567867 115.572562 
L 158.413339 110.926864 
L 156.074756 106.37104 
L 153.555859 101.912378 
L 151.755462 98.960949 
L 156.875651 99.051325 
L 161.995358 98.936876 
L 167.106393 98.617785 
L 172.20058 98.094563 
L 177.269769 97.368045 
L 182.30585 96.439396 
L 187.300767 95.3101 
L 192.246528 93.981963 
L 197.135222 92.457112 
L 201.959028 90.737984 
L 206.710228 88.827331 
L 211.381223 86.728208 
L 215.964538 84.443975 
L 220.452842 81.978285 
L 224.838955 79.335084 
L 229.11586 76.518599 
L 233.276714 73.533336 
L 237.314861 70.384071 
L 241.223841 67.075842 
L 244.961722 63.648 
L 248.736615 67.108446 
L 252.64687 70.415168 
L 256.68623 73.562877 
L 260.848234 76.546537 
L 265.126223 79.361374 
L 269.513354 82.002886 
L 274.002608 84.466846 
L 278.586803 86.749314 
L 283.258606 88.846636 
L 288.010542 90.755459 
L 292.835009 92.472728 
L 297.724291 93.995696 
L 302.670563 95.321927 
L 307.665914 96.449299 
L 312.702353 97.376009 
L 317.771821 98.100573 
L 320.227725 98.37757 
L 318.229101 103.092441 
L 316.42062 107.883464 
L 314.805175 112.742974 
L 313.385351 117.663198 
L 312.16342 122.636264 
L 311.141335 127.654216 
L 310.320733 132.709027 
L 309.702925 137.79261 
L 309.288901 142.896832 
L 309.079322 148.013528 
L 309.074524 153.134512 
L 309.274515 158.251592 
L 309.678975 163.356581 
L 310.287256 168.441313 
L 311.098385 173.497653 
L 312.111066 178.517511 
L 313.323677 183.492858 
L 314.734279 188.415734 
L 316.340615 193.278262 
L 318.140116 198.072665 
L 320.129902 202.791272 
L 322.30679 207.426535 
L 324.667299 211.971037 
L 327.20765 216.417509 
L 329.923782 220.758838 
L 332.811347 224.988078 
L 334.063269 226.714564 
L 328.963997 226.243479 
L 323.849964 225.976687 
L 318.729354 225.914615 
L 313.610358 226.057363 
L 308.501164 226.404702 
L 303.409948 226.956077 
L 298.344852 227.710605 
L 293.313982 228.667079 
L 288.325384 229.823969 
L 283.38704 231.179424 
L 278.50685 232.731276 
L 273.692621 234.477043 
L 268.952055 236.413931 
L 264.292735 238.538841 
L 259.722117 240.848375 
L 255.247511 243.338838 
L 250.876076 246.006245 
L 246.614806 248.846329 
L 242.470517 251.854547 
L 238.44984 255.026086 
L 234.559207 258.355872 
L 230.804842 261.838579 
L 227.192751 265.468634 
L 223.728713 269.240231 
L 220.41827 273.147335 
L 217.266717 277.183697 
L 214.279096 281.342858 
L 211.593091 285.408 
L 208.765885 281.138175 
L 205.770192 276.984824 
L 202.610805 272.954591 
L 199.29278 269.053923 
L 195.821423 265.289062 
L 192.202289 261.666028 
L 188.441167 258.19062 
L 184.544074 254.868397 
L 180.517245 251.704673 
L 176.367122 248.704509 
L 172.100343 245.872707 
L 167.723736 243.213795 
L 163.244302 240.732027 
L 158.669207 238.431374 
L 154.005769 236.315517 
L 149.26145 234.38784 
L 144.44384 232.651427 
L 141.052886 231.557647 
L 142.097817 226.544402 
L 142.941435 221.493382 
L 143.582391 216.412666 
L 144.019661 211.310382 
L 144.252543 206.194694 
L 144.280667 201.073784 
L 144.103986 195.955847 
L 143.722784 190.849068 
L 143.137669 185.761619 
L 142.349579 180.701637 
L 141.359775 175.677218 
L 140.169838 170.696399 
L 138.781674 165.767149 
L 137.197503 160.897354 
L 135.419859 156.094805 
L 133.451587 151.367183 
L 131.295834 146.722053 
L 128.95605 142.166846 
L 127.909128 140.264011 
L 133.027471 140.099515 
L 138.135143 139.730472 
L 143.223971 139.157472 
L 148.285815 138.381431 
L 153.312576 137.403591 
L 158.296214 136.225516 
L 163.228754 134.849091 
L 168.102307 133.276519 
L 172.909076 131.510314 
L 177.64137 129.553302 
L 182.291619 127.408615 
L 186.852384 125.079682 
L 191.316368 122.570231 
L 195.67643 119.884275 
L 199.925595 117.026112 
L 204.057066 114.000313 
L 208.064231 110.81172 
L 211.940682 107.465434 
L 215.680216 103.966808 
L 219.276852 100.321439 
L 222.724834 96.535158 
L 226.018648 92.614024 
L 229.153023 88.564309 
L 232.122946 84.392492 
L 234.923665 80.105246 
L 237.5507 75.709431 
L 239.999847 71.212079 
L 242.267189 66.620384 
L 243.615743 63.648 
L 245.765301 68.296 
L 248.099009 72.854323 
L 250.613135 77.315676 
L 253.303657 81.672922 
L 256.166269 85.919091 
L 259.196394 90.04739 
L 262.389182 94.051213 
L 265.739527 97.924157 
L 269.242069 101.660024 
L 272.891203 105.252839 
L 276.681093 108.696853 
L 280.605676 111.986558 
L 284.658672 115.11669 
L 288.833598 118.082241 
L 293.123775 120.878467 
L 297.522339 123.500896 
L 302.022255 125.945331 
L 306.616322 128.207863 
L 311.297192 130.28487 
L 316.057375 132.173032 
L 320.889257 133.869327 
L 325.785108 135.371041 
L 330.737096 136.675772 
L 335.737297 137.781433 
L 340.777714 138.686255 
L 343.752276 139.123289 
L 341.903027 143.898723 
L 340.246223 148.744289 
L 338.784515 153.652233 
L 337.520242 158.614703 
L 336.455426 163.623762 
L 335.591771 168.671395 
L 334.930659 173.749528 
L 334.473146 178.850036 
L 334.219965 183.96476 
L 334.171521 189.085517 
L 334.327891 194.204116 
L 334.688826 199.312367 
L 335.253747 204.402098 
L 336.021752 209.465168 
L 336.991611 214.493475 
L 338.186052 219.573695 
L 333.282272 221.049311 
L 328.441423 222.719845 
L 323.67125 224.582626 
L 318.979384 226.634673 
L 314.373331 228.872702 
L 309.86046 231.293135 
L 305.44799 233.892098 
L 301.14298 236.665434 
L 296.952318 239.608707 
L 292.882707 242.717206 
L 288.940658 245.985961 
L 285.132478 249.40974 
L 281.464259 252.983068 
L 277.941869 256.700226 
L 274.570943 260.55527 
L 271.356874 264.542031 
L 268.304804 268.654131 
L 265.419615 272.884993 
L 262.705924 277.227847 
L 260.168071 281.675746 
L 258.215281 285.408 
L 255.825116 280.879025 
L 253.255753 276.449254 
L 250.511301 272.125773 
L 247.596151 267.915499 
L 244.514968 263.825168 
L 241.272679 259.861323 
L 237.874472 256.030306 
L 234.325783 252.338246 
L 230.63229 248.791048 
L 226.799902 245.394388 
L 222.834749 242.1537 
L 218.743174 239.074167 
L 214.531724 236.160717 
L 210.207135 233.418011 
L 205.776327 230.850436 
L 201.246388 228.4621 
L 196.624563 226.256824 
L 191.918249 224.238135 
L 187.134973 222.409264 
L 182.282387 220.773135 
L 177.368256 219.332367 
L 172.40044 218.089264 
L 167.386886 217.045815 
L 162.335617 216.20369 
L 157.254711 215.564235 
L 152.152299 215.128473 
L 147.036542 214.897102 
L 141.915624 214.870492 
L 136.797739 215.048685 
L 131.739726 215.42678 
L 134.622881 211.194533 
L 137.334486 206.850375 
L 139.870201 202.401257 
L 142.225971 197.854297 
L 144.398027 193.216768 
L 146.382893 188.496089 
L 148.177396 183.699813 
L 149.778662 178.835613 
L 151.184132 173.911269 
L 152.391557 168.934661 
L 153.399004 163.91375 
L 154.204862 158.856568 
L 154.807843 153.771205 
L 155.206981 148.665797 
L 155.401638 143.548511 
L 155.391502 138.427535 
L 155.17659 133.31106 
L 154.757246 128.207272 
L 154.13414 123.124336 
L 153.308269 118.070383 
L 152.280954 113.053499 
L 151.053839 108.081709 
L 149.523609 102.826632 
L 154.499193 101.614997 
L 159.422346 100.205361 
L 164.28519 98.599979 
L 169.079945 96.801419 
L 173.798943 94.812559 
L 178.434632 92.63658 
L 182.979598 90.276963 
L 187.426569 87.737484 
L 191.76843 85.022205 
L 195.998236 82.135469 
L 200.10922 79.081896 
L 204.094806 75.866369 
L 207.948616 72.494034 
L 211.664487 68.970285 
L 215.236473 65.300759 
L 216.755206 63.648 
L 220.262314 67.379581 
L 223.91584 70.96793 
L 227.709939 74.407307 
L 231.638542 77.692209 
L 235.695363 80.817381 
L 239.873913 83.777824 
L 244.167507 86.568801 
L 248.569275 89.185848 
L 253.072177 91.624778 
L 257.669008 93.881689 
L 262.352414 95.952971 
L 267.114904 97.835309 
L 271.948857 99.525693 
L 276.846541 101.021418 
L 281.80012 102.320092 
L 286.80167 103.419636 
L 291.84319 104.318293 
L 296.916613 105.014623 
L 302.013824 105.507514 
L 307.126668 105.796176 
L 312.246966 105.880148 
L 317.366527 105.759296 
L 322.477159 105.433813 
L 324.210912 105.276653 
L 321.316016 109.500878 
L 318.59236 113.837489 
L 316.0443 118.279549 
L 313.675914 122.819951 
L 311.490989 127.451431 
L 309.493023 132.16658 
L 307.68521 136.957855 
L 306.070443 141.817591 
L 304.651305 146.738012 
L 303.430067 151.711249 
L 302.408682 156.729343 
L 301.588785 161.784269 
L 300.971686 166.867938 
L 300.558373 171.972218 
L 300.349508 177.088943 
L 300.345425 182.209928 
L 300.546129 187.32698 
L 300.9513 192.431912 
L 301.56029 197.516559 
L 302.372125 202.572786 
L 303.385505 207.592503 
L 304.59881 212.567681 
L 306.010099 217.490359 
L 307.617113 222.352664 
L 309.417282 227.146816 
L 311.407726 231.865146 
L 313.585261 236.500105 
L 315.946403 241.044278 
L 318.487375 245.490396 
L 320.945767 249.434743 
L 315.827387 249.271376 
L 310.706569 249.31282 
L 305.591503 249.55901 
L 300.490374 250.00955 
L 295.411343 250.663721 
L 290.362534 251.520475 
L 285.352024 252.578443 
L 280.38783 253.835931 
L 275.477892 255.290928 
L 270.630067 256.941107 
L 265.852109 258.783827 
L 261.151661 260.81614 
L 256.536245 263.034796 
L 252.013243 265.436244 
L 247.589891 268.016643 
L 243.273266 270.771865 
L 239.070273 273.697502 
L 234.987636 276.788874 
L 231.031887 280.041035 
L 227.209354 283.448782 
L 225.144729 285.408 
L 221.398892 281.916123 
L 217.516414 278.576832 
L 213.503505 275.39547 
L 209.366585 272.377126 
L 205.112273 269.526629 
L 200.747375 266.84854 
L 196.278873 264.347142 
L 191.713916 262.026437 
L 187.059807 259.890139 
L 182.323992 257.941663 
L 177.514047 256.184129 
L 172.637666 254.620347 
L 167.702651 253.252819 
L 162.716898 252.083732 
L 157.688381 251.114958 
L 152.625146 250.348046 
L 151.843815 250.248083 
L 153.740567 245.491316 
L 155.445583 240.662504 
L 156.956134 235.769373 
L 158.269804 230.819749 
L 159.38449 225.821552 
L 160.298411 220.782777 
L 161.010103 215.711486 
L 161.518428 210.615791 
L 161.822573 205.503844 
L 161.922052 200.383824 
L 161.816705 195.263921 
L 161.5067 190.152327 
L 160.992534 185.057218 
L 160.27503 179.986745 
L 159.355335 174.949021 
L 158.23492 169.952105 
L 156.915578 165.003991 
L 155.399419 160.112593 
L 153.68887 155.285739 
L 151.786666 150.53115 
L 149.695851 145.856431 
L 147.419769 141.269062 
L 144.962062 136.776381 
L 142.326662 132.385577 
L 139.517784 128.103672 
L 136.986909 124.540832 
L 142.086655 125.006759 
L 147.200955 125.268378 
L 152.321625 125.325269 
L 157.440475 125.177344 
L 162.549314 124.824837 
L 167.639971 124.268313 
L 172.7043 123.508662 
L 177.734201 122.547099 
L 182.721625 121.385164 
L 187.658596 120.024714 
L 192.537214 118.467926 
L 197.349675 116.717291 
L 202.088279 114.775609 
L 206.745447 112.645986 
L 211.313727 110.33183 
L 215.785811 107.836842 
L 220.154545 105.165015 
L 224.412941 102.320622 
L 228.554184 99.308213 
L 232.571651 96.132609 
L 236.458914 92.798889 
L 240.209754 89.312387 
L 243.818171 85.67868 
L 247.278393 81.903581 
L 250.584882 77.99313 
L 253.732351 73.953582 
L 256.715763 69.791401 
L 259.530346 65.513244 
L 260.682537 63.648 
L 263.423451 67.973724 
L 266.335156 72.186381 
L 269.412994 76.279231 
L 272.652039 80.245726 
L 276.047112 84.079521 
L 279.592779 87.774483 
L 283.28337 91.3247 
L 287.112979 94.724494 
L 291.07548 97.968424 
L 295.164535 101.051302 
L 299.373601 103.968195 
L 303.695944 106.714438 
L 308.124651 109.285636 
L 312.652635 111.677676 
L 317.272654 113.886732 
L 321.977316 115.909269 
L 326.759095 117.742053 
L 331.610341 119.38215 
L 332.518183 119.665268 
L 331.475658 124.679013 
L 330.634463 129.730438 
L 329.995944 134.811461 
L 329.561123 139.913954 
L 329.330694 145.029754 
L 329.305028 150.150676 
L 329.484164 155.268528 
L 329.867816 160.375123 
L 330.455371 165.462291 
L 331.245889 170.521894 
L 332.238104 175.545838 
L 333.43043 180.526085 
L 334.820959 185.454668 
L 336.407466 190.323703 
L 338.187414 195.125399 
L 340.157954 199.852076 
L 342.315935 204.496171 
L 344.466862 208.695013 
L 339.352734 208.959963 
L 334.253292 209.429211 
L 329.176694 210.102008 
L 324.131062 210.977276 
L 319.124467 212.053616 
L 314.164918 213.329305 
L 309.260351 214.802303 
L 304.418611 216.470253 
L 299.647444 218.330486 
L 294.954484 220.380028 
L 290.347236 222.615598 
L 285.833073 225.033621 
L 281.419216 227.630228 
L 277.112727 230.401266 
L 272.920494 233.3423 
L 268.849224 236.448627 
L 264.905431 239.715276 
L 261.095423 243.137022 
L 257.425297 246.70839 
L 253.900923 250.423668 
L 250.527939 254.276911 
L 247.311742 258.261956 
L 244.257477 262.372426 
L 241.37003 266.601747 
L 238.65402 270.943151 
L 236.113793 275.389694 
L 233.753412 279.934263 
L 231.576654 284.569586 
L 231.206801 285.408 
L 229.063274 280.757216 
L 226.73548 276.19587 
L 224.227143 271.731259 
L 221.542275 267.370527 
L 218.685172 263.120649 
L 215.660405 258.988424 
L 212.472812 254.980462 
L 209.127493 251.103176 
L 205.629801 247.362769 
L 201.985329 243.765224 
L 198.199909 240.316297 
L 194.279597 237.021505 
L 190.230664 233.886119 
L 186.059588 230.915155 
L 181.773042 228.113366 
L 177.377882 225.485235 
L 172.881141 223.034965 
L 168.290013 220.766477 
L 163.611841 218.683399 
L 158.854111 216.789065 
L 154.024433 215.086505 
L 149.130533 213.578441 
L 144.180243 212.267289 
L 139.181479 211.155143 
L 134.142241 210.243785 
L 129.070588 209.534671 
L 128.285153 209.443284 
L 130.236148 204.708507 
L 131.996242 199.899497 
L 133.562618 195.023949 
L 134.932772 190.089663 
L 136.104511 185.104532 
L 137.075961 180.076532 
L 137.845567 175.013706 
L 138.412098 169.924153 
L 138.774649 164.816017 
L 138.932639 159.697468 
L 138.885815 154.576696 
L 138.634252 149.461892 
L 138.178352 144.361239 
L 137.518846 139.282898 
L 136.656788 134.234992 
L 135.593557 129.225596 
L 135.208438 127.621234 
L 140.098324 126.100209 
L 144.923474 124.384857 
L 149.676168 122.477923 
L 154.348804 120.382457 
L 158.933906 118.101812 
L 163.424138 115.639636 
L 167.812319 112.999868 
L 172.091426 110.186731 
L 176.254616 107.204725 
L 180.295226 104.058622 
L 184.206794 100.753453 
L 187.983062 97.294508 
L 191.617989 93.687319 
L 195.105758 89.937657 
L 198.440791 86.051521 
L 201.617753 82.035127 
L 204.631561 77.894902 
L 207.477393 73.637468 
L 210.150696 69.269637 
L 212.647195 64.798396 
L 213.252188 63.648 
L 215.703167 68.144355 
L 218.331991 72.539099 
L 221.134456 76.825204 
L 224.106078 80.995812 
L 227.242102 85.04425 
L 230.537513 88.964042 
L 233.987037 92.748918 
L 237.585156 96.392822 
L 241.326115 99.889925 
L 245.203929 103.234632 
L 249.212393 106.421593 
L 253.345095 109.445708 
L 257.595423 112.302141 
L 261.956579 114.986321 
L 266.421585 117.493954 
L 270.983298 119.821029 
L 275.63442 121.963822 
L 280.367511 123.918906 
L 285.174998 125.683153 
L 290.049191 127.253741 
L 294.982292 128.628157 
L 299.966409 129.804202 
L 304.993568 130.779994 
L 310.055728 131.553974 
L 315.144789 132.124902 
L 320.25261 132.491865 
L 325.37102 132.654276 
L 330.491831 132.611875 
L 335.606851 132.364731 
L 339.653195 132.023471 
L 336.746488 136.239579 
L 334.010706 140.56855 
L 331.450225 145.003462 
L 329.069141 149.537218 
L 326.871264 154.162565 
L 324.860109 158.872104 
L 323.038895 163.658301 
L 321.410534 168.513498 
L 319.977631 173.429929 
L 318.74248 178.399728 
L 317.707055 183.414945 
L 316.873014 188.467556 
L 316.241691 193.549478 
L 315.814095 198.652581 
L 315.590911 203.768702 
L 315.572496 208.889655 
L 315.758879 214.007249 
L 316.149762 219.113295 
L 316.74452 224.199626 
L 317.542201 229.258105 
L 318.541529 234.280639 
L 319.740906 239.259193 
L 321.138412 244.185802 
L 322.149663 247.349534 
L 317.153509 248.473342 
L 312.206292 249.796044 
L 307.315925 251.315524 
L 302.490234 253.029351 
L 297.736937 254.934783 
L 293.06364 257.028773 
L 288.477817 259.307969 
L 283.986807 261.768727 
L 279.597793 264.407108 
L 275.317797 267.218893 
L 271.153665 270.199583 
L 267.112061 273.344409 
L 263.199448 276.648341 
L 259.422088 280.106093 
L 255.786022 283.712134 
L 254.17288 285.408 
L 250.603341 281.736095 
L 246.889819 278.20987 
L 243.038257 274.834967 
L 239.054815 271.616785 
L 234.945867 268.560473 
L 230.717985 265.670919 
L 226.377934 262.952747 
L 221.932657 260.410305 
L 217.389265 258.04766 
L 212.755027 255.868593 
L 208.037356 253.876588 
L 203.243799 252.074834 
L 198.382026 250.466211 
L 193.459815 249.053295 
L 188.485038 247.838344 
L 183.465657 246.823304 
L 178.409699 246.009797 
L 173.325254 245.399125 
L 168.220455 244.992266 
L 163.10347 244.789869 
L 157.982484 244.792259 
L 152.86569 244.999432 
L 148.983441 245.293771 
L 151.851576 241.05133 
L 154.547764 236.697587 
L 157.067692 232.239509 
L 159.407328 227.684226 
L 161.562931 223.039026 
L 163.531051 218.311341 
L 165.308539 213.508734 
L 166.892553 208.638888 
L 168.280558 203.709593 
L 169.470333 198.728736 
L 170.459976 193.704285 
L 171.247902 188.644278 
L 171.832852 183.556809 
L 172.21389 178.450019 
L 172.390405 173.332075 
L 172.362116 168.211167 
L 172.129068 163.095486 
L 171.691634 157.993217 
L 171.050514 152.912521 
L 170.206732 147.861528 
L 169.16164 142.848317 
L 167.916908 137.880909 
L 166.474529 132.96725 
L 164.83681 128.115201 
L 163.006371 123.332524 
L 160.986139 118.626872 
L 158.779348 114.005771 
L 156.389527 109.476614 
L 153.8205 105.046648 
L 150.895348 100.450709 
L 156.01127 100.67841 
L 161.132205 100.701346 
L 166.249961 100.519481 
L 171.356351 100.133107 
L 176.443205 99.54284 
L 181.502386 98.749625 
L 186.5258 97.754731 
L 191.505411 96.559751 
L 196.433252 95.166595 
L 201.30144 93.577492 
L 206.102187 91.794984 
L 210.827812 89.821924 
L 215.470756 87.661468 
L 220.023591 85.317071 
L 224.479033 82.792485 
L 228.829955 80.091748 
L 233.069396 77.219181 
L 237.190574 74.179379 
L 241.186896 70.977205 
L 245.051968 67.617783 
L 248.779608 64.106486 
L 249.244861 63.648 
L 252.954538 67.178269 
L 256.802421 70.557366 
L 260.782354 73.779886 
L 264.88797 76.840674 
L 269.1127 79.734832 
L 273.449787 82.457732 
L 277.892292 85.005016 
L 282.433107 87.37261 
L 287.064968 89.556725 
L 291.780466 91.553869 
L 296.572056 93.360846 
L 301.432074 94.974764 
L 306.352743 96.393043 
L 311.326192 97.613413 
L 316.344465 98.633922 
L 320.798639 99.366423 
L 319.003113 104.162315 
L 317.400808 109.026174 
L 315.994287 113.950217 
L 314.7858 118.926567 
L 313.777281 123.947264 
L 312.970343 129.004274 
L 312.366277 134.089508 
L 311.966049 139.194831 
L 311.7703 144.312075 
L 311.779342 149.433053 
L 311.993162 154.549574 
L 312.411417 159.653451 
L 313.033438 164.73652 
L 313.858231 169.790649 
L 314.884474 174.807752 
L 316.110528 179.779804 
L 317.534429 184.698849 
L 319.153901 189.557019 
L 320.966353 194.346541 
L 322.968885 199.059753 
L 325.158293 203.689115 
L 327.531075 208.227221 
L 330.083434 212.666811 
L 332.811289 217.000783 
L 335.710274 221.222203 
L 336.55875 222.392264 
L 331.45824 221.934773 
L 326.343515 221.681615 
L 321.222757 221.633193 
L 316.104159 221.789585 
L 310.99591 222.150542 
L 305.906181 222.715486 
L 300.843115 223.483512 
L 295.814812 224.453393 
L 290.829316 225.623577 
L 285.894602 226.992191 
L 281.018566 228.557046 
L 276.209007 230.315639 
L 271.473621 232.265157 
L 266.819983 234.40248 
L 262.255536 236.724189 
L 257.787585 239.22657 
L 253.423276 241.90562 
L 249.169592 244.757053 
L 245.033336 247.776307 
L 241.021128 250.958552 
L 237.139384 254.298697 
L 233.394316 257.791399 
L 229.791914 261.43107 
L 226.337942 265.211887 
L 223.037925 269.127802 
L 219.897142 273.17255 
L 216.920619 277.33966 
L 214.113116 281.622466 
L 211.828571 285.408 
L 209.170622 281.030808 
L 206.339758 276.763407 
L 203.340508 272.612624 
L 200.17767 268.585099 
L 196.856304 264.687276 
L 193.381723 260.925389 
L 189.759486 257.305458 
L 185.995388 253.833273 
L 182.09545 250.51439 
L 178.065912 247.354117 
L 173.91322 244.35751 
L 169.644018 241.529364 
L 165.265134 238.874202 
L 160.783575 236.396273 
L 156.206511 234.099541 
L 151.541262 231.98768 
L 146.795293 230.064068 
L 141.976197 228.331783 
L 138.555529 227.232096 
L 139.605932 222.219996 
L 140.455064 217.169899 
L 141.101568 212.089886 
L 141.544407 206.988083 
L 141.782875 201.872652 
L 141.81659 196.751776 
L 141.645497 191.633649 
L 141.26987 186.526457 
L 140.690311 181.438372 
L 139.907746 176.377532 
L 138.923427 171.352035 
L 137.73893 166.369921 
L 136.356148 161.439158 
L 134.777295 156.567637 
L 133.004896 151.763149 
L 131.041786 147.033381 
L 128.891106 142.3859 
L 127.868567 140.334265 
L 132.976183 139.964453 
L 138.064924 139.390686 
L 143.126651 138.613883 
L 148.153265 137.635286 
L 153.136725 136.456461 
L 158.069059 135.079294 
L 162.942375 133.505988 
L 167.748877 131.739059 
L 172.480877 129.781335 
L 177.130803 127.635948 
L 181.691217 125.306329 
L 186.154824 122.796205 
L 190.514481 120.109593 
L 194.763216 117.25079 
L 198.894231 114.22437 
L 202.900916 111.035174 
L 206.776863 107.688304 
L 210.515871 104.189115 
L 214.111957 100.543204 
L 217.55937 96.756405 
L 220.852593 92.834775 
L 223.986359 88.784588 
L 226.955653 84.612323 
L 229.755727 80.324656 
L 232.3821 75.928446 
L 234.83057 71.430725 
L 237.097221 66.838689 
L 238.540665 63.648 
L 240.680877 68.300311 
L 243.00542 72.863314 
L 245.510575 77.329711 
L 248.192335 81.692355 
L 251.046409 85.944269 
L 254.06823 90.078648 
L 257.252966 94.08888 
L 260.595521 97.968549 
L 264.090548 101.711448 
L 267.732454 105.311589 
L 271.515415 108.763213 
L 275.433379 112.060798 
L 279.480076 115.199068 
L 283.649034 118.173003 
L 287.933583 120.977846 
L 292.326868 123.609109 
L 296.821862 126.062583 
L 301.411373 128.334342 
L 306.088059 130.420753 
L 310.844439 132.318477 
L 315.672902 134.024479 
L 320.565725 135.536029 
L 325.51508 136.850709 
L 330.51305 137.966416 
L 335.551638 138.881366 
L 340.622784 139.594093 
L 344.245369 139.977351 
L 342.192733 144.668959 
L 340.329354 149.438898 
L 338.658212 154.279537 
L 337.18198 159.183132 
L 335.903021 164.141838 
L 334.82338 169.147722 
L 333.944784 174.192777 
L 333.26864 179.26893 
L 332.796029 184.368061 
L 332.527706 189.482013 
L 332.464102 194.602604 
L 332.605317 199.721643 
L 332.951127 204.830941 
L 333.500977 209.922322 
L 334.253989 214.987643 
L 335.208957 220.0188 
L 335.971333 223.4097 
L 331.092688 224.966404 
L 326.280197 226.716956 
L 321.541559 228.658556 
L 316.884355 230.788098 
L 312.316034 233.102175 
L 307.843907 235.597086 
L 303.475126 238.268837 
L 299.216682 241.113157 
L 295.075386 244.125494 
L 291.057865 247.301028 
L 287.170544 250.634681 
L 283.419643 254.121119 
L 279.811163 257.754763 
L 276.350877 261.529802 
L 273.044319 265.440196 
L 269.896781 269.479689 
L 266.913297 273.641819 
L 264.09864 277.919927 
L 261.457313 282.307169 
L 259.730714 285.408 
L 257.212007 280.949232 
L 254.517011 276.594752 
L 251.650037 272.351526 
L 248.615674 268.226342 
L 245.418774 264.225801 
L 242.064452 260.356301 
L 238.558075 256.624034 
L 234.905251 253.034969 
L 231.111825 249.59485 
L 227.183866 246.309179 
L 223.127656 243.183212 
L 218.949686 240.221951 
L 214.656639 237.430133 
L 210.255383 234.812225 
L 205.752959 232.372413 
L 201.15657 230.114602 
L 196.473569 228.042404 
L 191.711448 226.159134 
L 186.877826 224.467803 
L 181.980435 222.971119 
L 177.02711 221.671476 
L 172.025775 220.570952 
L 166.984432 219.671309 
L 161.911144 218.973985 
L 156.81403 218.480097 
L 151.701242 218.190433 
L 146.580961 218.105459 
L 141.461377 218.225309 
L 136.350681 218.549792 
L 133.687527 218.800471 
L 136.612342 214.596906 
L 139.366719 210.279741 
L 141.946253 205.855885 
L 144.346816 201.332413 
L 146.564568 196.716562 
L 148.595962 192.015717 
L 150.437747 187.237399 
L 152.086977 182.38925 
L 153.541014 177.479028 
L 154.797531 172.514588 
L 155.854518 167.503872 
L 156.710285 162.454895 
L 157.363461 157.375736 
L 157.813004 152.274519 
L 158.058192 147.159405 
L 158.098634 142.038579 
L 157.934265 136.920231 
L 157.565349 131.81255 
L 156.992475 126.723708 
L 156.21656 121.661845 
L 155.238844 116.635059 
L 154.060893 111.651392 
L 152.684591 106.718817 
L 151.11214 101.845225 
L 150.726459 100.743235 
L 155.742933 99.713924 
L 160.714234 98.484831 
L 165.632408 97.057922 
L 170.489587 95.43548 
L 175.278 93.6201 
L 179.989986 91.614687 
L 184.618009 89.422449 
L 189.154664 87.046893 
L 193.592693 84.491819 
L 197.924996 81.761316 
L 202.144643 78.85975 
L 206.244883 75.791765 
L 210.219156 72.562267 
L 214.061105 69.176425 
L 217.764583 65.639654 
L 219.725042 63.648 
L 223.350444 67.264762 
L 227.117577 70.733653 
L 231.020416 74.049125 
L 235.052717 77.205872 
L 239.208028 80.198845 
L 243.479703 83.023257 
L 247.860907 85.674587 
L 252.344631 88.148596 
L 256.923703 90.441324 
L 261.590797 92.549104 
L 266.338446 94.468564 
L 271.159056 96.196634 
L 276.044914 97.730548 
L 280.988204 99.067854 
L 285.981018 100.20641 
L 291.015368 101.144397 
L 296.083201 101.880313 
L 301.176409 102.412981 
L 306.286843 102.741549 
L 311.40633 102.865491 
L 316.526677 102.784609 
L 321.639695 102.499033 
L 322.564747 102.425412 
L 319.729937 106.690192 
L 317.06794 111.064924 
L 314.583015 115.542607 
L 312.279137 120.116079 
L 310.159992 124.778024 
L 308.228971 129.520983 
L 306.489161 134.337368 
L 304.943348 139.219474 
L 303.594003 144.159491 
L 302.443285 149.149516 
L 301.493036 154.181567 
L 300.744775 159.247591 
L 300.199699 164.339486 
L 299.858682 169.449106 
L 299.722267 174.568275 
L 299.790673 179.688804 
L 300.063791 184.802502 
L 300.541184 189.901188 
L 301.222089 194.976705 
L 302.105415 200.020933 
L 303.18975 205.025803 
L 304.473359 209.983307 
L 305.954189 214.885515 
L 307.62987 219.724585 
L 309.497722 224.492774 
L 311.554756 229.182456 
L 313.797683 233.786126 
L 316.222913 238.296421 
L 318.826566 242.706125 
L 321.604479 247.008183 
L 322.005501 247.59923 
L 316.892354 247.315988 
L 311.77197 247.237443 
L 306.652541 247.363723 
L 301.542257 247.694624 
L 296.449292 248.229617 
L 291.381796 248.967846 
L 286.347874 249.908131 
L 281.355581 251.048966 
L 276.412902 252.388528 
L 271.527744 253.924673 
L 266.707924 255.654943 
L 261.961152 257.57657 
L 257.295021 259.686481 
L 252.716996 261.981299 
L 248.234401 264.457354 
L 243.854408 267.110684 
L 239.584023 269.937045 
L 235.430079 272.931915 
L 231.39922 276.090503 
L 227.497895 279.407756 
L 223.732345 282.878367 
L 221.168734 285.408 
L 217.502292 281.832849 
L 213.695815 278.407176 
L 209.755392 275.136462 
L 205.687328 272.025938 
L 201.49813 269.080583 
L 197.1945 266.305106 
L 192.783323 263.703949 
L 188.271656 261.281272 
L 183.666716 259.040952 
L 178.975871 256.986572 
L 174.206625 255.121419 
L 169.366608 253.448478 
L 164.463562 251.970423 
L 159.505332 250.68962 
L 154.49985 249.608119 
L 151.120551 248.995354 
L 152.816895 244.163489 
L 154.318658 239.267653 
L 155.623439 234.315679 
L 156.72915 229.315488 
L 157.634023 224.275081 
L 158.336609 219.20252 
L 158.835784 214.105921 
L 159.130751 208.993436 
L 159.221037 203.873246 
L 159.106498 198.75354 
L 158.787317 193.642511 
L 158.264004 188.548333 
L 157.537397 183.479157 
L 156.608659 178.443093 
L 155.479275 173.448196 
L 154.151051 168.502458 
L 152.626113 163.613791 
L 150.9069 158.790015 
L 148.996163 154.038849 
L 146.896958 149.367891 
L 144.612644 144.784616 
L 142.146875 140.296356 
L 139.503596 135.910289 
L 136.687035 131.633434 
L 134.595806 128.682344 
L 139.697415 129.127413 
L 144.812742 129.368116 
L 149.933602 129.404068 
L 155.051804 129.235212 
L 160.159159 128.861817 
L 165.247497 128.284481 
L 170.308678 127.504127 
L 175.334604 126.522005 
L 180.317236 125.339684 
L 185.248602 123.959058 
L 190.120813 122.382333 
L 194.926075 120.612033 
L 199.6567 118.650991 
L 204.30512 116.502342 
L 208.863899 114.169524 
L 213.325744 111.656271 
L 217.683516 108.966601 
L 221.930244 106.104818 
L 226.059135 103.075501 
L 230.063583 99.883495 
L 233.937181 96.533907 
L 237.673733 93.032096 
L 241.267261 89.383664 
L 244.712016 85.594447 
L 248.002488 81.670508 
L 251.133412 77.618124 
L 254.099779 73.443778 
L 256.896844 69.154147 
L 259.520133 64.756095 
L 260.144109 63.648 
L 262.723585 68.071891 
L 265.477905 72.389091 
L 268.402665 76.592695 
L 271.493184 80.675977 
L 274.744519 84.632405 
L 278.151468 88.45565 
L 281.708581 92.139594 
L 285.410167 95.678346 
L 289.250304 99.066243 
L 293.22285 102.297865 
L 297.321448 105.368043 
L 301.539543 108.271865 
L 305.870385 111.004686 
L 310.307047 113.562133 
L 314.84243 115.940115 
L 319.469279 118.134828 
L 324.180193 120.142761 
L 328.967634 121.960701 
L 333.823945 123.585741 
L 334.98825 123.943551 
L 333.919727 128.95182 
L 333.052336 133.998813 
L 332.387464 139.076455 
L 331.926176 144.176623 
L 331.669208 149.291158 
L 331.616974 154.411878 
L 331.769555 159.530591 
L 332.126708 164.639107 
L 332.687862 169.729256 
L 333.452118 174.792892 
L 334.418255 179.821916 
L 335.584726 184.808282 
L 336.949666 189.744013 
L 338.51089 194.621213 
L 340.265901 199.43208 
L 342.211892 204.168916 
L 344.366958 208.868051 
L 339.268301 209.345749 
L 334.192825 210.026957 
L 329.148649 210.910584 
L 324.143845 211.995219 
L 319.186417 213.279124 
L 314.284297 214.760247 
L 309.445328 216.436217 
L 304.67725 218.304354 
L 299.987692 220.361669 
L 295.384155 222.604871 
L 290.874005 225.03037 
L 286.464457 227.634288 
L 282.162565 230.412457 
L 277.975211 233.360434 
L 273.909094 236.473503 
L 269.970719 239.746682 
L 266.166387 243.174737 
L 262.502183 246.752182 
L 258.98397 250.473294 
L 255.617376 254.332121 
L 252.407787 258.32249 
L 249.360337 262.438015 
L 246.479902 266.672115 
L 243.77109 271.018014 
L 241.238234 275.46876 
L 238.885387 280.017234 
L 236.716312 284.656158 
L 236.385803 285.408 
L 234.246529 280.755258 
L 231.922907 276.191785 
L 229.418653 271.724883 
L 226.737774 267.361698 
L 223.884558 263.109209 
L 220.86357 258.97422 
L 217.679643 254.963345 
L 214.337871 251.083003 
L 210.8436 247.339399 
L 207.202419 243.738523 
L 203.420155 240.286136 
L 199.502857 236.987761 
L 195.456793 233.848674 
L 191.288435 230.873898 
L 187.004452 228.06819 
L 182.611697 225.436041 
L 178.117199 222.981661 
L 173.528146 220.708976 
L 168.851881 218.621622 
L 164.095885 216.722938 
L 159.267765 215.015962 
L 154.375247 213.503425 
L 149.426157 212.187746 
L 144.428413 211.071031 
L 139.39001 210.155065 
L 134.319008 209.441314 
L 129.223519 208.93092 
L 127.933541 208.834274 
L 130.086327 204.187769 
L 132.05158 199.458891 
L 133.826156 194.655207 
L 135.407217 189.784401 
L 136.792233 184.854266 
L 137.978988 179.872689 
L 138.965584 174.847638 
L 139.750442 169.787154 
L 140.332307 164.699332 
L 140.710248 159.592311 
L 140.883661 154.474262 
L 140.852267 149.353372 
L 140.616117 144.237833 
L 140.17559 139.13583 
L 139.531389 134.055524 
L 138.684545 129.005043 
L 137.541044 123.581042 
L 142.411375 121.99852 
L 147.214526 120.222501 
L 151.942814 118.255829 
L 156.588673 116.101649 
L 161.144672 113.763407 
L 165.603522 111.244844 
L 169.958089 108.549989 
L 174.201408 105.683153 
L 178.32669 102.648924 
L 182.327336 99.452154 
L 186.196944 96.097957 
L 189.929325 92.591701 
L 193.518508 88.938994 
L 196.958751 85.14568 
L 200.244549 81.217827 
L 203.370647 77.161719 
L 206.332044 72.983845 
L 209.124001 68.690888 
L 211.742052 64.289717 
L 212.104168 63.648 
L 214.696847 68.064165 
L 217.464052 72.373119 
L 220.401356 76.567966 
L 223.504059 80.641998 
L 226.767198 84.588696 
L 230.185553 88.401746 
L 233.753655 92.075048 
L 237.465796 95.602726 
L 241.316037 98.979137 
L 245.298219 102.198878 
L 249.40597 105.256798 
L 253.63272 108.148007 
L 257.971707 110.867878 
L 262.415988 113.41206 
L 266.958455 115.776483 
L 271.59184 117.957364 
L 276.308731 119.951216 
L 281.101582 121.754846 
L 285.962725 123.365372 
L 290.884383 124.780215 
L 295.858683 125.997113 
L 300.877667 127.014118 
L 305.933306 127.829604 
L 311.017512 128.442266 
L 316.122151 128.851124 
L 321.239056 129.055524 
L 326.360042 129.055139 
L 331.476917 128.849969 
L 336.581494 128.440343 
L 337.527578 128.341795 
L 334.589302 132.535962 
L 331.821098 136.844273 
L 329.227395 141.259837 
L 326.812342 145.77559 
L 324.579803 150.384307 
L 322.533349 155.078615 
L 320.676255 159.851005 
L 319.01149 164.693841 
L 317.541719 169.599376 
L 316.269293 174.559762 
L 315.196247 179.567064 
L 314.324298 184.613271 
L 313.654841 189.690311 
L 313.188947 194.79006 
L 312.927362 199.904361 
L 312.870503 205.025032 
L 313.018461 210.143881 
L 313.371001 215.252718 
L 313.927558 220.343371 
L 314.687241 225.407695 
L 315.648835 230.43759 
L 316.810803 235.425007 
L 318.171285 240.361969 
L 319.728104 245.240577 
L 321.124317 249.125487 
L 316.088335 250.054674 
L 311.093539 251.184504 
L 306.147919 252.513169 
L 301.259388 254.038543 
L 296.435766 255.758185 
L 291.68477 257.669346 
L 287.014 259.768967 
L 282.430928 262.05369 
L 277.942887 264.519859 
L 273.557057 267.163529 
L 269.280453 269.980471 
L 265.119918 272.966178 
L 261.082107 276.115874 
L 257.17348 279.424521 
L 253.40029 282.886823 
L 250.833881 285.408 
L 247.159458 281.841051 
L 243.345335 278.423894 
L 239.397613 275.161994 
L 235.322607 272.06057 
L 231.126838 269.124583 
L 226.817016 266.358731 
L 222.400037 263.767439 
L 217.882967 261.354851 
L 213.273032 259.124827 
L 208.577608 257.080936 
L 203.804205 255.226446 
L 198.960461 253.564325 
L 194.054125 252.097232 
L 189.093045 250.827513 
L 184.085158 249.7572 
L 179.038475 248.888006 
L 173.961071 248.22132 
L 168.861068 247.758209 
L 163.746625 247.499414 
L 158.625924 247.44535 
L 153.507157 247.596103 
L 150.422384 247.786094 
L 153.216721 243.494685 
L 155.837212 239.094966 
L 158.279665 234.593975 
L 160.540172 229.998911 
L 162.615118 225.317127 
L 164.501183 220.556112 
L 166.195349 215.723483 
L 167.694907 210.826971 
L 168.997456 205.87441 
L 170.100914 200.873722 
L 171.003516 195.832907 
L 171.703816 190.76003 
L 172.200696 185.663206 
L 172.493359 180.55059 
L 172.581338 175.430359 
L 172.464492 170.310706 
L 172.143008 165.19982 
L 171.617401 160.105879 
L 170.88851 155.037031 
L 169.957503 150.001385 
L 168.825868 145.006998 
L 167.495416 140.061859 
L 165.968276 135.173879 
L 164.24689 130.350879 
L 162.334012 125.600574 
L 160.232703 120.930563 
L 157.946324 116.348317 
L 155.478533 111.861168 
L 152.833278 107.476293 
L 150.014791 103.200708 
L 149.62923 102.64369 
L 154.739564 102.973823 
L 159.859012 103.099333 
L 164.979384 103.02002 
L 170.092489 102.736009 
L 175.190146 102.247756 
L 180.264201 101.556042 
L 185.306536 100.661973 
L 190.309085 99.566979 
L 195.263843 98.272813 
L 200.162886 96.781544 
L 204.998375 95.095559 
L 209.762575 93.217554 
L 214.447864 91.150534 
L 219.046746 88.897807 
L 223.551865 86.462974 
L 227.956013 83.849933 
L 232.252144 81.062863 
L 236.433386 78.106223 
L 240.493049 74.984743 
L 244.424638 71.703417 
L 248.221865 68.267493 
L 251.878655 64.68247 
L 252.881109 63.648 
L 256.497333 67.273939 
L 260.255662 70.752366 
L 264.150086 74.077719 
L 268.174372 77.244676 
L 272.322085 80.248171 
L 276.586587 83.0834 
L 280.961057 85.745826 
L 285.438497 88.23119 
L 290.011743 90.535517 
L 294.67348 92.655119 
L 299.416249 94.586606 
L 304.232464 96.326887 
L 309.114418 97.87318 
L 314.054303 99.223009 
L 319.044215 100.374216 
L 321.68339 100.898856 
L 320.082827 105.763288 
L 318.67807 110.687835 
L 317.471365 115.664618 
L 316.464644 120.685675 
L 315.659518 125.742974 
L 315.057273 130.828424 
L 314.658874 135.93389 
L 314.464957 141.051203 
L 314.475834 146.172178 
L 314.691486 151.288622 
L 315.111569 156.392349 
L 315.735411 161.475195 
L 316.562013 166.529028 
L 317.590054 171.545764 
L 318.817888 176.517376 
L 320.243551 181.435911 
L 321.864763 186.2935 
L 323.67893 191.082372 
L 325.68315 195.794867 
L 327.874216 200.423445 
L 330.248623 204.960701 
L 332.802573 209.399377 
L 335.531979 213.732371 
L 338.432476 217.952753 
L 338.815328 218.483756 
L 333.712243 218.055945 
L 328.596132 217.832546 
L 323.475179 217.813915 
L 318.357578 218.000082 
L 313.251515 218.39075 
L 308.165159 218.985294 
L 303.106646 219.782762 
L 298.084071 220.781879 
L 293.105466 221.981046 
L 288.178798 223.378345 
L 283.311948 224.97154 
L 278.512702 226.758083 
L 273.788737 228.735116 
L 269.147611 230.899476 
L 264.596749 233.247699 
L 260.143431 235.776031 
L 255.794781 238.480425 
L 251.557757 241.356556 
L 247.439136 244.399821 
L 243.445508 247.605354 
L 239.583262 250.968025 
L 235.858576 254.482454 
L 232.277409 258.143021 
L 228.84549 261.943867 
L 225.56831 265.878914 
L 222.451111 269.941865 
L 219.49888 274.126221 
L 216.71634 278.425288 
L 214.107943 282.832187 
L 212.690877 285.408 
L 210.184351 280.942372 
L 207.501253 276.580551 
L 204.645875 272.329514 
L 201.622784 268.196062 
L 198.436818 264.186807 
L 195.093073 260.308165 
L 191.596898 256.566339 
L 187.953886 252.967315 
L 184.169866 249.516853 
L 180.250891 246.22047 
L 176.20323 243.083442 
L 172.03336 240.110786 
L 167.747951 237.307258 
L 163.353858 234.677344 
L 158.858111 232.22525 
L 154.267903 229.954899 
L 149.590577 227.869924 
L 144.833616 225.973659 
L 140.004629 224.269139 
L 136.147325 223.060965 
L 137.244109 218.058809 
L 138.139982 213.016794 
L 138.833513 207.942987 
L 139.32359 202.845505 
L 139.609431 197.732502 
L 139.690577 192.612158 
L 139.5669 187.492666 
L 139.238596 182.382214 
L 138.706191 177.288978 
L 137.970537 172.221107 
L 137.032811 167.186709 
L 135.894512 162.193836 
L 134.557462 157.250477 
L 133.0238 152.364539 
L 131.29598 147.543841 
L 129.376765 142.796092 
L 128.106021 139.922981 
L 133.193237 139.335836 
L 138.252904 138.545726 
L 143.276928 137.553915 
L 148.257271 136.361991 
L 153.185966 134.971859 
L 158.055128 133.385744 
L 162.856968 131.606183 
L 167.583803 129.636023 
L 172.228072 127.478416 
L 176.782345 125.136814 
L 181.239336 122.614962 
L 185.591914 119.916896 
L 189.833117 117.046931 
L 193.95616 114.009659 
L 197.954446 110.809938 
L 201.821579 107.452889 
L 205.551372 103.94388 
L 209.13786 100.288526 
L 212.575303 96.492675 
L 215.858203 92.562399 
L 218.981308 88.503986 
L 221.939622 84.323929 
L 224.728412 80.028914 
L 227.343216 75.625812 
L 229.779851 71.121669 
L 232.03442 66.523689 
L 233.330956 63.648 
L 235.471565 68.300128 
L 237.796497 72.862933 
L 240.302033 77.329116 
L 242.984164 81.691532 
L 245.838601 85.943202 
L 248.860775 90.077324 
L 252.045853 94.087284 
L 255.388739 97.966668 
L 258.884084 101.709268 
L 262.526298 105.309099 
L 266.309554 108.7604 
L 270.227798 112.057651 
L 274.274763 115.195576 
L 278.443975 118.169156 
L 282.728763 120.973634 
L 287.122272 123.604522 
L 291.617475 126.057612 
L 296.20718 128.32898 
L 300.884044 130.414992 
L 305.640585 132.31231 
L 310.469194 134.0179 
L 315.362146 135.529033 
L 320.311614 136.843291 
L 325.309678 137.958572 
L 330.348344 138.873092 
L 335.419551 139.585387 
L 340.515186 140.094318 
L 344.459083 140.347515 
L 342.208965 144.947675 
L 340.144604 149.634135 
L 338.269302 154.3994 
L 336.58606 159.235845 
L 335.097571 164.135732 
L 333.806215 169.091225 
L 332.71406 174.094394 
L 331.822851 179.137235 
L 331.134015 184.211681 
L 330.648654 189.309615 
L 330.367544 194.42288 
L 330.291135 199.543296 
L 330.419549 204.662672 
L 330.752581 209.772818 
L 331.289698 214.865559 
L 332.03004 219.932747 
L 332.972424 224.966276 
L 333.550046 227.603493 
L 328.684906 229.201903 
L 323.887577 230.993588 
L 319.165733 232.975682 
L 314.526929 235.145014 
L 309.978586 237.498113 
L 305.52798 240.031215 
L 301.182231 242.740268 
L 296.948292 245.620938 
L 292.832935 248.668616 
L 288.842744 251.878426 
L 284.984104 255.245234 
L 281.263186 258.763653 
L 277.685944 262.428055 
L 274.2581 266.232577 
L 270.985139 270.171133 
L 267.872296 274.237423 
L 264.924551 278.42494 
L 262.14662 282.726986 
L 260.535357 285.408 
L 257.863349 281.039376 
L 255.01878 276.781098 
L 252.006201 272.639979 
L 248.830431 268.622644 
L 245.49655 264.735518 
L 242.009893 260.984822 
L 238.376037 257.376555 
L 234.600795 253.91649 
L 230.690207 250.610162 
L 226.65053 247.46286 
L 222.488225 244.47962 
L 218.209952 241.665213 
L 213.822555 239.024144 
L 209.333053 236.560636 
L 204.748628 234.278631 
L 200.076614 232.181779 
L 195.324485 230.273435 
L 190.499844 228.556652 
L 185.61041 227.034177 
L 180.664003 225.708445 
L 175.668539 224.581576 
L 170.632007 223.655374 
L 165.562466 222.931321 
L 160.468025 222.410574 
L 155.356835 222.093968 
L 150.237073 221.982007 
L 145.116928 222.074872 
L 140.004593 222.372414 
L 135.969349 222.752703 
L 138.917217 218.565272 
L 141.695274 214.263307 
L 144.299077 209.853691 
L 146.724458 205.343478 
L 148.96754 200.739882 
L 151.024732 196.05027 
L 152.892745 191.282144 
L 154.568589 186.443131 
L 156.049583 181.540972 
L 157.333359 176.583511 
L 158.417863 171.578678 
L 159.301359 166.53448 
L 159.982434 161.458986 
L 160.459999 156.360316 
L 160.73329 151.246627 
L 160.801868 146.1261 
L 160.665626 141.006926 
L 160.32478 135.897296 
L 159.779876 130.805382 
L 159.031786 125.739332 
L 158.081706 120.70725 
L 156.931156 115.717186 
L 155.581978 110.777124 
L 154.036328 105.894965 
L 152.296681 101.078522 
L 151.582603 99.260349 
L 156.636758 98.435717 
L 161.653894 97.409633 
L 166.625985 96.183738 
L 171.545075 94.759992 
L 176.403296 93.140675 
L 181.192876 91.328375 
L 185.906152 89.325994 
L 190.535583 87.136733 
L 195.073765 84.764095 
L 199.513436 82.211877 
L 203.847495 79.48416 
L 208.069007 76.585309 
L 212.17122 73.519962 
L 216.14757 70.293021 
L 219.991696 66.909651 
L 223.421871 63.648 
L 227.138309 67.17115 
L 230.992663 70.542864 
L 234.978767 73.757748 
L 239.090243 76.810659 
L 243.320515 79.696712 
L 247.662814 82.411292 
L 252.110194 84.950054 
L 256.65554 87.308938 
L 261.29158 89.484169 
L 266.010898 91.472269 
L 270.805944 93.270056 
L 275.669046 94.874654 
L 280.592426 96.283496 
L 285.568206 97.494329 
L 290.588426 98.505215 
L 295.645055 99.314537 
L 300.730004 99.921001 
L 305.835138 100.323635 
L 310.952288 100.521797 
L 316.073271 100.515169 
L 321.334635 100.294796 
L 318.588343 104.617108 
L 316.017094 109.045785 
L 313.625001 113.573742 
L 311.415892 118.193735 
L 309.393301 122.898374 
L 307.560462 127.680132 
L 305.920309 132.531358 
L 304.475465 137.444293 
L 303.228242 142.411076 
L 302.180635 147.423762 
L 301.33432 152.474332 
L 300.690651 157.554705 
L 300.250657 162.656754 
L 300.015043 167.772318 
L 299.984185 172.893211 
L 300.158133 178.011242 
L 300.536609 183.118224 
L 301.119007 188.205985 
L 301.904395 193.266387 
L 302.891516 198.291334 
L 304.078793 203.272787 
L 305.464325 208.202777 
L 307.045895 213.073417 
L 308.820975 217.876916 
L 310.786723 222.605588 
L 312.939995 227.251868 
L 315.277346 231.808324 
L 317.795037 236.267666 
L 320.489041 240.62276 
L 323.480549 245.044373 
L 318.372858 244.675598 
L 313.254505 244.511372 
L 308.13368 244.551956 
L 303.018573 244.797286 
L 297.917369 245.24697 
L 292.838227 245.900288 
L 287.789274 246.756194 
L 282.778587 247.81332 
L 277.814182 249.069975 
L 272.904 250.524148 
L 268.055898 252.173512 
L 263.27763 254.01543 
L 258.576842 256.046954 
L 253.961052 258.264834 
L 249.437647 260.665523 
L 245.013862 263.245179 
L 240.696774 265.999676 
L 236.49329 268.924608 
L 232.410134 272.015294 
L 228.453839 275.26679 
L 224.630734 278.673896 
L 220.946934 282.231159 
L 217.893083 285.408 
L 214.33388 281.726074 
L 210.630287 278.189423 
L 206.788228 274.803705 
L 202.81385 271.574337 
L 198.71351 268.506485 
L 194.493769 265.605057 
L 190.161377 262.874694 
L 185.723265 260.319765 
L 181.186533 257.944356 
L 176.558439 255.752268 
L 171.846387 253.747009 
L 167.057915 251.931785 
L 162.200684 250.309501 
L 157.282464 248.882751 
L 152.311123 247.65382 
L 150.065048 247.167168 
L 151.574509 242.2737 
L 152.887077 237.323784 
L 154.000651 232.325339 
L 154.91345 227.286361 
L 155.624013 222.214911 
L 156.131204 217.119103 
L 156.434212 212.007089 
L 156.532551 206.887047 
L 156.426064 201.767168 
L 156.114922 196.655643 
L 155.599622 191.560648 
L 154.880989 186.490336 
L 153.960172 181.452817 
L 152.838645 176.45615 
L 151.518202 171.508329 
L 150.000954 166.61727 
L 148.289331 161.790796 
L 146.386068 157.03663 
L 144.294213 152.362377 
L 142.01711 147.775515 
L 139.558403 143.283381 
L 136.922026 138.893163 
L 134.112195 134.611884 
L 132.499547 132.313172 
L 137.604509 132.717968 
L 142.721576 132.918295 
L 147.84256 132.913835 
L 152.95927 132.704593 
L 158.06352 132.290905 
L 163.147143 131.673432 
L 168.202008 130.853162 
L 173.220028 129.831408 
L 178.193174 128.609804 
L 183.113491 127.190304 
L 187.973108 125.575179 
L 192.76425 123.767014 
L 197.479252 121.7687 
L 202.110571 119.583435 
L 206.650799 117.214714 
L 211.092671 114.666328 
L 215.429082 111.942352 
L 219.653094 109.047145 
L 223.75795 105.985339 
L 227.737083 102.761831 
L 231.584127 99.381779 
L 235.292928 95.85059 
L 238.857553 92.173913 
L 242.272298 88.35763 
L 245.531701 84.407846 
L 248.630548 80.33088 
L 251.563881 76.133254 
L 254.327007 71.821684 
L 256.915506 67.403068 
L 258.93424 63.648 
L 261.374192 68.150348 
L 263.992237 72.551523 
L 266.784189 76.844483 
L 269.74558 81.022362 
L 272.871672 85.078474 
L 276.157465 89.006331 
L 279.597703 92.79965 
L 283.186881 96.452362 
L 286.919257 99.958623 
L 290.788861 103.312825 
L 294.789502 106.5096 
L 298.91478 109.543836 
L 303.158095 112.410677 
L 307.512659 115.105538 
L 311.971505 117.624107 
L 316.527501 119.962355 
L 321.173358 122.116541 
L 325.901642 124.08322 
L 330.704791 125.859245 
L 335.57512 127.441774 
L 337.302442 127.951849 
L 336.167432 132.94547 
L 335.233021 137.980485 
L 334.500704 143.04884 
L 333.971654 148.142424 
L 333.646715 153.253091 
L 333.526409 158.372664 
L 333.610927 163.492953 
L 333.900135 168.605767 
L 334.393569 173.702925 
L 335.090441 178.776274 
L 335.989635 183.817698 
L 337.089712 188.819131 
L 338.388914 193.772572 
L 339.885162 198.670096 
L 341.576061 203.503869 
L 343.458907 208.266158 
L 343.991224 209.518842 
L 338.917845 210.215499 
L 333.876384 211.114481 
L 328.874905 212.214348 
L 323.921409 213.513341 
L 319.023822 215.009382 
L 314.189977 216.700078 
L 309.427609 218.582723 
L 304.744337 220.654307 
L 300.147651 222.911514 
L 295.644907 225.350735 
L 291.243307 227.968066 
L 286.949894 230.75932 
L 282.771535 233.720032 
L 278.714915 236.845466 
L 274.786524 240.130622 
L 270.992646 243.570243 
L 267.339352 247.158828 
L 263.832485 250.890635 
L 260.477655 254.759694 
L 257.28023 258.759816 
L 254.245325 262.884601 
L 251.377794 267.127451 
L 248.682227 271.481577 
L 246.162934 275.940015 
L 243.823946 280.495631 
L 241.552003 285.408 
L 239.40764 280.757601 
L 237.079026 276.196674 
L 234.569887 271.732514 
L 231.884235 267.372264 
L 229.026369 263.1229 
L 226.000859 258.991218 
L 222.812545 254.98383 
L 219.46653 251.107146 
L 215.968165 247.367367 
L 212.323047 243.770477 
L 208.537007 240.32223 
L 204.616103 237.028143 
L 200.566607 233.893485 
L 196.394997 230.923271 
L 192.107947 228.122252 
L 187.712315 225.494911 
L 183.215134 223.045449 
L 178.623597 220.777786 
L 173.945051 218.69555 
L 169.18698 216.802071 
L 164.356996 215.100378 
L 159.462826 213.593195 
L 154.5123 212.282932 
L 149.513337 211.171685 
L 144.473934 210.261232 
L 139.402154 209.55303 
L 134.306111 209.048211 
L 129.193956 208.747584 
L 127.857621 208.702777 
L 130.201026 204.149432 
L 132.360472 199.506017 
L 134.332503 194.779963 
L 136.113965 189.978828 
L 137.702008 185.110294 
L 139.094091 180.18215 
L 140.287988 175.202279 
L 141.281788 170.178648 
L 142.073901 165.119295 
L 142.66306 160.032312 
L 143.048323 154.925838 
L 143.229074 149.808043 
L 143.205022 144.687113 
L 142.976207 139.571241 
L 142.542995 134.468611 
L 141.906079 129.387387 
L 141.066478 124.335697 
L 140.018352 119.290219 
L 144.881543 117.685889 
L 149.676688 115.888367 
L 154.396116 113.900528 
L 159.032276 111.725552 
L 163.577752 109.366919 
L 168.025272 106.828402 
L 172.367721 104.114063 
L 176.598152 101.228242 
L 180.709797 98.175559 
L 184.696078 94.960895 
L 188.550618 91.589393 
L 192.267251 88.066448 
L 195.840031 84.397695 
L 199.263242 80.589004 
L 202.531407 76.646468 
L 205.6393 72.576393 
L 208.581946 68.385291 
L 211.619519 63.648 
L 214.375155 67.964361 
L 217.301194 72.167074 
L 220.392957 76.249415 
L 223.645496 80.204853 
L 227.053609 84.02706 
L 230.611844 87.709921 
L 234.314507 91.247545 
L 238.155677 94.634273 
L 242.129206 97.864685 
L 246.228739 100.933615 
L 250.447718 103.836152 
L 254.779392 106.567654 
L 259.216832 109.12375 
L 263.752939 111.50035 
L 268.380457 113.693654 
L 273.091982 115.700153 
L 277.879977 117.516635 
L 282.736781 119.140196 
L 287.654626 120.568238 
L 292.625644 121.798476 
L 297.641882 122.828942 
L 302.695315 123.657988 
L 307.777858 124.284287 
L 312.881382 124.706838 
L 317.997721 124.924965 
L 323.11869 124.938318 
L 328.236097 124.746876 
L 333.341754 124.350946 
L 335.116158 124.165094 
L 332.161871 128.347998 
L 329.377217 132.645696 
L 326.766654 137.051313 
L 324.334356 141.5578 
L 322.084215 146.157949 
L 320.019831 150.8444 
L 318.144507 155.609655 
L 316.461242 160.446092 
L 314.972729 165.345973 
L 313.68135 170.301459 
L 312.58917 175.304622 
L 311.697937 180.347459 
L 311.009077 185.421902 
L 310.523691 190.519834 
L 310.242556 195.633097 
L 310.166123 200.753513 
L 310.294512 205.87289 
L 310.62752 210.983038 
L 311.164612 216.075781 
L 311.90493 221.142972 
L 312.847289 226.176506 
L 313.990183 231.168329 
L 315.331782 236.110455 
L 316.86994 240.994979 
L 318.602196 245.814086 
L 320.428032 250.331488 
L 315.357483 251.048452 
L 310.319661 251.967611 
L 305.322625 253.087494 
L 300.37437 254.406309 
L 295.482812 255.921946 
L 290.655775 257.631982 
L 285.900983 259.533679 
L 281.226042 261.623996 
L 276.638431 263.899589 
L 272.145488 266.356818 
L 267.754403 268.99175 
L 263.472199 271.800172 
L 259.305727 274.777589 
L 255.261653 277.91924 
L 251.346446 281.220097 
L 247.566371 284.67488 
L 246.802107 285.408 
L 243.050737 281.922068 
L 239.162967 278.588939 
L 235.145018 275.413945 
L 231.003317 272.402166 
L 226.744489 269.558421 
L 222.375349 266.887257 
L 217.902885 264.392949 
L 213.334253 262.079488 
L 208.676762 259.950573 
L 203.937862 258.009611 
L 199.125136 256.259707 
L 194.246281 254.703661 
L 189.309104 253.343962 
L 184.321502 252.182784 
L 179.291456 251.221986 
L 174.227011 250.463105 
L 169.13627 249.907355 
L 164.027377 249.555625 
L 158.908505 249.408477 
L 153.787843 249.466147 
L 151.447008 249.560794 
L 154.137459 245.203504 
L 156.651514 240.742111 
L 158.985149 236.18375 
L 161.134631 231.535716 
L 163.096523 226.805442 
L 164.867684 222.000498 
L 166.445283 217.12857 
L 167.826794 212.197452 
L 169.010008 207.215032 
L 169.993032 202.189282 
L 170.774293 197.128241 
L 171.352542 192.040006 
L 171.726853 186.932718 
L 171.896627 181.814547 
L 171.861594 176.69368 
L 171.621808 171.578311 
L 171.177655 166.476622 
L 170.529843 161.396775 
L 169.679409 156.346898 
L 168.627715 151.335067 
L 167.376442 146.369303 
L 165.927593 141.457548 
L 164.283484 136.60766 
L 162.446747 131.827399 
L 160.42032 127.124411 
L 158.207444 122.506221 
L 155.81166 117.980216 
L 153.2368 113.553637 
L 150.486985 109.233566 
L 147.947791 105.556027 
L 153.053148 105.95582 
L 158.170408 106.151134 
L 163.291386 106.141655 
L 168.407888 105.9274 
L 173.51173 105.50871 
L 178.594746 104.886256 
L 183.648805 104.061034 
L 188.665821 103.034363 
L 193.637768 101.807886 
L 198.556692 100.383566 
L 203.414724 98.76368 
L 208.204091 96.950821 
L 212.917133 94.947888 
L 217.546309 92.758086 
L 222.084213 90.384917 
L 226.523586 87.83218 
L 230.857325 85.103956 
L 235.078499 82.204612 
L 239.180352 79.138784 
L 243.156325 75.911379 
L 247.000055 72.527559 
L 250.705394 68.992737 
L 254.266414 65.312569 
L 255.786747 63.648 
L 255.786747 63.648 
" style="fill:none;stroke:#1f77b4;stroke-linecap:square;stroke-width:1.5;"/>
   </g>
   <g id="patch_4">
    <path d="M 82.520165 307.584 
L 82.520165 41.472 
" style="fill:none;stroke:#000000;stroke-linecap:square;stroke-linejoin:miter;stroke-width:0.8;"/>
   </g>
   <g id="patch_5">
    <path d="M 389.799835 307.584 
L 389.799835 41.472 
" style="fill:none;stroke:#000000;stroke-linecap:square;stroke-linejoin:miter;stroke-width:0.8;"/>
   </g>
   <g id="patch_6">
    <path d="M 82.520165 307.584 
L 389.799835 307.584 
" style="fill:none;stroke:#000000;stroke-linecap:square;stroke-linejoin:miter;stroke-width:0.8;"/>
   </g>
   <g id="patch_7">
    <path d="M 82.520165 41.472 
L 389.799835 41.472 
" style="fill:none;stroke:#000000;stroke-linecap:square;stroke-linejoin:miter;stroke-width:0.8;"/>
   </g>
  </g>
 </g>
 <defs>
  <clipPath id="pa2b5b74c2d">
   <rect height="266.112" width="307.27967" x="82.520165" y="41.472"/>
  </clipPath>
 </defs>
</svg>
