<?xml version="1.0" encoding="utf-8" standalone="no"?>
<!DOCTYPE svg PUBLIC "-//W3C//DTD SVG 1.1//EN"
  "http://www.w3.org/Graphics/SVG/1.1/DTD/svg11.dtd">
<!-- Created with matplotlib (http://matplotlib.org/) -->
<svg height="345.6pt" version="1.1" viewBox="0 0 460.8 345.6" width="460.8pt" xmlns="http://www.w3.org/2000/svg" xmlns:xlink="http://www.w3.org/1999/xlink">
 <defs>
  <style type="text/css">
*{stroke-linecap:butt;stroke-linejoin:round;}
  </style>
 </defs>
 <g id="figure_1">
  <g id="patch_1">
   <path d="M 0 345.6 
L 460.8 345.6 
L 460.8 0 
L 0 0 
z
" style="fill:#ffffff;"/>
  </g>
  <g id="axes_1">
   <g id="patch_2">
    <path d="M 82.520165 307.584 
L 389.799835 307.584 
L 389.799835 41.472 
L 82.520165 41.472 
z
" style="fill:#ffffff;"/>
   </g>
   <g id="PathCollection_1">
    <defs>
     <path d="M 0 2.738613 
C 0.726289 2.738613 1.422928 2.450055 1.936492 1.936492 
C 2.450055 1.422928 2.738613 0.726289 2.738613 0 
C 2.738613 -0.726289 2.450055 -1.422928 1.936492 -1.936492 
C 1.422928 -2.450055 0.726289 -2.738613 0 -2.738613 
C -0.726289 -2.738613 -1.422928 -2.450055 -1.936492 -1.936492 
C -2.450055 -1.422928 -2.738613 -0.726289 -2.738613 0 
C -2.738613 0.726289 -2.450055 1.422928 -1.936492 1.936492 
C -1.422928 2.450055 -0.726289 2.738613 0 2.738613 
z
" id="ma2e5b93451" style="stroke:#000000;"/>
    </defs>
    <g clip-path="url(#p175947cc29)">
     <use style="stroke:#000000;" x="220.427399" xlink:href="#ma2e5b93451" y="125.791103"/>
    </g>
   </g>
   <g id="Quiver_1">
    <path clip-path="url(#p175947cc29)" d="M 220.198358 126.524363 
L 203.333382 121.25641 
L 203.608559 122.951971 
L 196.963084 118.461778 
L 204.982807 118.552412 
L 203.791464 119.789891 
L 220.656441 125.057843 
L 220.198358 126.524363 
"/>
   </g>
   <g id="patch_3">
    <path clip-path="url(#p175947cc29)" d="M 236.16 225.741278 
C 249.74192 225.741278 262.769389 220.345124 272.373256 210.741256 
C 281.977124 201.137389 287.373278 188.10992 287.373278 174.528 
C 287.373278 160.94608 281.977124 147.918611 272.373256 138.314744 
C 262.769389 128.710876 249.74192 123.314722 236.16 123.314722 
C 222.57808 123.314722 209.550611 128.710876 199.946744 138.314744 
C 190.342876 147.918611 184.946722 160.94608 184.946722 174.528 
C 184.946722 188.10992 190.342876 201.137389 199.946744 210.741256 
C 209.550611 220.345124 222.57808 225.741278 236.16 225.741278 
z
" style="fill:#009900;fill-opacity:0.5;stroke:#009900;stroke-linejoin:miter;stroke-width:2;"/>
   </g>
   <g id="matplotlib.axis_1">
    <g id="xtick_1">
     <g id="line2d_1">
      <defs>
       <path d="M 0 0 
L 0 3.5 
" id="m9456a18a66" style="stroke:#000000;stroke-width:0.8;"/>
      </defs>
      <g>
       <use style="stroke:#000000;stroke-width:0.8;" x="108.126804" xlink:href="#m9456a18a66" y="307.584"/>
      </g>
     </g>
     <g id="text_1">
      <!-- −2 -->
      <defs>
       <path d="M 10.59375 35.5 
L 73.1875 35.5 
L 73.1875 27.203125 
L 10.59375 27.203125 
z
" id="DejaVuSans-2212"/>
       <path d="M 19.1875 8.296875 
L 53.609375 8.296875 
L 53.609375 0 
L 7.328125 0 
L 7.328125 8.296875 
Q 12.9375 14.109375 22.625 23.890625 
Q 32.328125 33.6875 34.8125 36.53125 
Q 39.546875 41.84375 41.421875 45.53125 
Q 43.3125 49.21875 43.3125 52.78125 
Q 43.3125 58.59375 39.234375 62.25 
Q 35.15625 65.921875 28.609375 65.921875 
Q 23.96875 65.921875 18.8125 64.3125 
Q 13.671875 62.703125 7.8125 59.421875 
L 7.8125 69.390625 
Q 13.765625 71.78125 18.9375 73 
Q 24.125 74.21875 28.421875 74.21875 
Q 39.75 74.21875 46.484375 68.546875 
Q 53.21875 62.890625 53.21875 53.421875 
Q 53.21875 48.921875 51.53125 44.890625 
Q 49.859375 40.875 45.40625 35.40625 
Q 44.1875 33.984375 37.640625 27.21875 
Q 31.109375 20.453125 19.1875 8.296875 
z
" id="DejaVuSans-32"/>
      </defs>
      <g transform="translate(100.755711 322.182437)scale(0.1 -0.1)">
       <use xlink:href="#DejaVuSans-2212"/>
       <use x="83.789062" xlink:href="#DejaVuSans-32"/>
      </g>
     </g>
    </g>
    <g id="xtick_2">
     <g id="line2d_2">
      <g>
       <use style="stroke:#000000;stroke-width:0.8;" x="172.143402" xlink:href="#m9456a18a66" y="307.584"/>
      </g>
     </g>
     <g id="text_2">
      <!-- −1 -->
      <defs>
       <path d="M 12.40625 8.296875 
L 28.515625 8.296875 
L 28.515625 63.921875 
L 10.984375 60.40625 
L 10.984375 69.390625 
L 28.421875 72.90625 
L 38.28125 72.90625 
L 38.28125 8.296875 
L 54.390625 8.296875 
L 54.390625 0 
L 12.40625 0 
z
" id="DejaVuSans-31"/>
      </defs>
      <g transform="translate(164.772308 322.182437)scale(0.1 -0.1)">
       <use xlink:href="#DejaVuSans-2212"/>
       <use x="83.789062" xlink:href="#DejaVuSans-31"/>
      </g>
     </g>
    </g>
    <g id="xtick_3">
     <g id="line2d_3">
      <g>
       <use style="stroke:#000000;stroke-width:0.8;" x="236.16" xlink:href="#m9456a18a66" y="307.584"/>
      </g>
     </g>
     <g id="text_3">
      <!-- 0 -->
      <defs>
       <path d="M 31.78125 66.40625 
Q 24.171875 66.40625 20.328125 58.90625 
Q 16.5 51.421875 16.5 36.375 
Q 16.5 21.390625 20.328125 13.890625 
Q 24.171875 6.390625 31.78125 6.390625 
Q 39.453125 6.390625 43.28125 13.890625 
Q 47.125 21.390625 47.125 36.375 
Q 47.125 51.421875 43.28125 58.90625 
Q 39.453125 66.40625 31.78125 66.40625 
z
M 31.78125 74.21875 
Q 44.046875 74.21875 50.515625 64.515625 
Q 56.984375 54.828125 56.984375 36.375 
Q 56.984375 17.96875 50.515625 8.265625 
Q 44.046875 -1.421875 31.78125 -1.421875 
Q 19.53125 -1.421875 13.0625 8.265625 
Q 6.59375 17.96875 6.59375 36.375 
Q 6.59375 54.828125 13.0625 64.515625 
Q 19.53125 74.21875 31.78125 74.21875 
z
" id="DejaVuSans-30"/>
      </defs>
      <g transform="translate(232.97875 322.182437)scale(0.1 -0.1)">
       <use xlink:href="#DejaVuSans-30"/>
      </g>
     </g>
    </g>
    <g id="xtick_4">
     <g id="line2d_4">
      <g>
       <use style="stroke:#000000;stroke-width:0.8;" x="300.176598" xlink:href="#m9456a18a66" y="307.584"/>
      </g>
     </g>
     <g id="text_4">
      <!-- 1 -->
      <g transform="translate(296.995348 322.182437)scale(0.1 -0.1)">
       <use xlink:href="#DejaVuSans-31"/>
      </g>
     </g>
    </g>
    <g id="xtick_5">
     <g id="line2d_5">
      <g>
       <use style="stroke:#000000;stroke-width:0.8;" x="364.193196" xlink:href="#m9456a18a66" y="307.584"/>
      </g>
     </g>
     <g id="text_5">
      <!-- 2 -->
      <g transform="translate(361.011946 322.182437)scale(0.1 -0.1)">
       <use xlink:href="#DejaVuSans-32"/>
      </g>
     </g>
    </g>
   </g>
   <g id="matplotlib.axis_2">
    <g id="ytick_1">
     <g id="line2d_6">
      <defs>
       <path d="M 0 0 
L -3.5 0 
" id="m3c93654171" style="stroke:#000000;stroke-width:0.8;"/>
      </defs>
      <g>
       <use style="stroke:#000000;stroke-width:0.8;" x="82.520165" xlink:href="#m3c93654171" y="302.561196"/>
      </g>
     </g>
     <g id="text_6">
      <!-- −2.0 -->
      <defs>
       <path d="M 10.6875 12.40625 
L 21 12.40625 
L 21 0 
L 10.6875 0 
z
" id="DejaVuSans-2e"/>
      </defs>
      <g transform="translate(51.237353 306.360414)scale(0.1 -0.1)">
       <use xlink:href="#DejaVuSans-2212"/>
       <use x="83.789062" xlink:href="#DejaVuSans-32"/>
       <use x="147.412109" xlink:href="#DejaVuSans-2e"/>
       <use x="179.199219" xlink:href="#DejaVuSans-30"/>
      </g>
     </g>
    </g>
    <g id="ytick_2">
     <g id="line2d_7">
      <g>
       <use style="stroke:#000000;stroke-width:0.8;" x="82.520165" xlink:href="#m3c93654171" y="270.552897"/>
      </g>
     </g>
     <g id="text_7">
      <!-- −1.5 -->
      <defs>
       <path d="M 10.796875 72.90625 
L 49.515625 72.90625 
L 49.515625 64.59375 
L 19.828125 64.59375 
L 19.828125 46.734375 
Q 21.96875 47.46875 24.109375 47.828125 
Q 26.265625 48.1875 28.421875 48.1875 
Q 40.625 48.1875 47.75 41.5 
Q 54.890625 34.8125 54.890625 23.390625 
Q 54.890625 11.625 47.5625 5.09375 
Q 40.234375 -1.421875 26.90625 -1.421875 
Q 22.3125 -1.421875 17.546875 -0.640625 
Q 12.796875 0.140625 7.71875 1.703125 
L 7.71875 11.625 
Q 12.109375 9.234375 16.796875 8.0625 
Q 21.484375 6.890625 26.703125 6.890625 
Q 35.15625 6.890625 40.078125 11.328125 
Q 45.015625 15.765625 45.015625 23.390625 
Q 45.015625 31 40.078125 35.4375 
Q 35.15625 39.890625 26.703125 39.890625 
Q 22.75 39.890625 18.8125 39.015625 
Q 14.890625 38.140625 10.796875 36.28125 
z
" id="DejaVuSans-35"/>
      </defs>
      <g transform="translate(51.237353 274.352116)scale(0.1 -0.1)">
       <use xlink:href="#DejaVuSans-2212"/>
       <use x="83.789062" xlink:href="#DejaVuSans-31"/>
       <use x="147.412109" xlink:href="#DejaVuSans-2e"/>
       <use x="179.199219" xlink:href="#DejaVuSans-35"/>
      </g>
     </g>
    </g>
    <g id="ytick_3">
     <g id="line2d_8">
      <g>
       <use style="stroke:#000000;stroke-width:0.8;" x="82.520165" xlink:href="#m3c93654171" y="238.544598"/>
      </g>
     </g>
     <g id="text_8">
      <!-- −1.0 -->
      <g transform="translate(51.237353 242.343817)scale(0.1 -0.1)">
       <use xlink:href="#DejaVuSans-2212"/>
       <use x="83.789062" xlink:href="#DejaVuSans-31"/>
       <use x="147.412109" xlink:href="#DejaVuSans-2e"/>
       <use x="179.199219" xlink:href="#DejaVuSans-30"/>
      </g>
     </g>
    </g>
    <g id="ytick_4">
     <g id="line2d_9">
      <g>
       <use style="stroke:#000000;stroke-width:0.8;" x="82.520165" xlink:href="#m3c93654171" y="206.536299"/>
      </g>
     </g>
     <g id="text_9">
      <!-- −0.5 -->
      <g transform="translate(51.237353 210.335518)scale(0.1 -0.1)">
       <use xlink:href="#DejaVuSans-2212"/>
       <use x="83.789062" xlink:href="#DejaVuSans-30"/>
       <use x="147.412109" xlink:href="#DejaVuSans-2e"/>
       <use x="179.199219" xlink:href="#DejaVuSans-35"/>
      </g>
     </g>
    </g>
    <g id="ytick_5">
     <g id="line2d_10">
      <g>
       <use style="stroke:#000000;stroke-width:0.8;" x="82.520165" xlink:href="#m3c93654171" y="174.528"/>
      </g>
     </g>
     <g id="text_10">
      <!-- 0.0 -->
      <g transform="translate(59.61704 178.327219)scale(0.1 -0.1)">
       <use xlink:href="#DejaVuSans-30"/>
       <use x="63.623047" xlink:href="#DejaVuSans-2e"/>
       <use x="95.410156" xlink:href="#DejaVuSans-30"/>
      </g>
     </g>
    </g>
    <g id="ytick_6">
     <g id="line2d_11">
      <g>
       <use style="stroke:#000000;stroke-width:0.8;" x="82.520165" xlink:href="#m3c93654171" y="142.519701"/>
      </g>
     </g>
     <g id="text_11">
      <!-- 0.5 -->
      <g transform="translate(59.61704 146.31892)scale(0.1 -0.1)">
       <use xlink:href="#DejaVuSans-30"/>
       <use x="63.623047" xlink:href="#DejaVuSans-2e"/>
       <use x="95.410156" xlink:href="#DejaVuSans-35"/>
      </g>
     </g>
    </g>
    <g id="ytick_7">
     <g id="line2d_12">
      <g>
       <use style="stroke:#000000;stroke-width:0.8;" x="82.520165" xlink:href="#m3c93654171" y="110.511402"/>
      </g>
     </g>
     <g id="text_12">
      <!-- 1.0 -->
      <g transform="translate(59.61704 114.310621)scale(0.1 -0.1)">
       <use xlink:href="#DejaVuSans-31"/>
       <use x="63.623047" xlink:href="#DejaVuSans-2e"/>
       <use x="95.410156" xlink:href="#DejaVuSans-30"/>
      </g>
     </g>
    </g>
    <g id="ytick_8">
     <g id="line2d_13">
      <g>
       <use style="stroke:#000000;stroke-width:0.8;" x="82.520165" xlink:href="#m3c93654171" y="78.503103"/>
      </g>
     </g>
     <g id="text_13">
      <!-- 1.5 -->
      <g transform="translate(59.61704 82.302322)scale(0.1 -0.1)">
       <use xlink:href="#DejaVuSans-31"/>
       <use x="63.623047" xlink:href="#DejaVuSans-2e"/>
       <use x="95.410156" xlink:href="#DejaVuSans-35"/>
      </g>
     </g>
    </g>
    <g id="ytick_9">
     <g id="line2d_14">
      <g>
       <use style="stroke:#000000;stroke-width:0.8;" x="82.520165" xlink:href="#m3c93654171" y="46.494804"/>
      </g>
     </g>
     <g id="text_14">
      <!-- 2.0 -->
      <g transform="translate(59.61704 50.294023)scale(0.1 -0.1)">
       <use xlink:href="#DejaVuSans-32"/>
       <use x="63.623047" xlink:href="#DejaVuSans-2e"/>
       <use x="95.410156" xlink:href="#DejaVuSans-30"/>
      </g>
     </g>
    </g>
   </g>
   <g id="line2d_15">
    <path clip-path="url(#p175947cc29)" d="M 300.176598 63.648 
L 172.143402 63.648 
" style="fill:none;stroke:#009900;stroke-linecap:square;stroke-width:2;"/>
   </g>
   <g id="line2d_16">
    <path clip-path="url(#p175947cc29)" d="M 172.143402 63.648 
L 108.126804 174.528 
" style="fill:none;stroke:#009900;stroke-linecap:square;stroke-width:2;"/>
   </g>
   <g id="line2d_17">
    <path clip-path="url(#p175947cc29)" d="M 108.126804 174.528 
L 172.143402 285.408 
" style="fill:none;stroke:#009900;stroke-linecap:square;stroke-width:2;"/>
   </g>
   <g id="line2d_18">
    <path clip-path="url(#p175947cc29)" d="M 172.143402 285.408 
L 300.176598 285.408 
" style="fill:none;stroke:#009900;stroke-linecap:square;stroke-width:2;"/>
   </g>
   <g id="line2d_19">
    <path clip-path="url(#p175947cc29)" d="M 300.176598 285.408 
L 364.193196 174.528 
" style="fill:none;stroke:#009900;stroke-linecap:square;stroke-width:2;"/>
   </g>
   <g id="line2d_20">
    <path clip-path="url(#p175947cc29)" d="M 364.193196 174.528 
L 300.176598 63.648 
" style="fill:none;stroke:#009900;stroke-linecap:square;stroke-width:2;"/>
   </g>
   <g id="line2d_21">
    <path clip-path="url(#p175947cc29)" d="M 201.426915 239.523764 
L 198.379916 243.639623 
L 195.499944 247.874037 
L 192.791608 252.220233 
L 190.259239 256.671256 
L 187.906889 261.219987 
L 185.738322 265.859149 
L 183.757006 270.581319 
L 181.966112 275.378943 
L 180.368504 280.244347 
L 178.904298 285.408 
L 177.51201 280.479914 
L 175.923765 275.611446 
L 174.142103 270.810385 
L 172.169875 266.084412 
L 170.010236 261.441088 
L 167.666642 256.88784 
L 165.14284 252.431953 
L 162.442869 248.080556 
L 159.571049 243.840609 
L 156.531973 239.718896 
L 153.330503 235.72201 
L 149.971762 231.856346 
L 146.461122 228.128088 
L 142.804199 224.543201 
L 139.006844 221.107419 
L 135.075132 217.826239 
L 131.553239 215.103775 
L 130.853436 210.030829 
L 129.95133 204.989926 
L 128.848363 199.98913 
L 127.546299 195.03644 
L 126.047222 190.139781 
L 124.35353 185.306986 
L 122.467933 180.545786 
L 120.393447 175.863798 
L 118.13339 171.268513 
L 115.691379 166.767282 
L 114.139674 164.113404 
L 119.260645 164.10058 
L 124.377006 163.882981 
L 129.480573 163.460957 
L 134.563181 162.835183 
L 139.6167 162.006659 
L 144.633044 160.97671 
L 149.604189 159.746985 
L 154.522181 158.319452 
L 159.379153 156.696392 
L 164.167336 154.880404 
L 168.879068 152.874393 
L 173.506812 150.681566 
L 178.043164 148.305434 
L 182.480869 145.749796 
L 186.812825 143.018742 
L 191.032103 140.116641 
L 195.131953 137.048134 
L 199.105816 133.818132 
L 202.947335 130.431801 
L 206.650364 126.89456 
L 210.208979 123.212066 
L 213.617486 119.390211 
L 216.870434 115.435109 
L 219.962619 111.353087 
L 222.889092 107.150676 
L 225.645173 102.834599 
L 228.226452 98.411761 
L 230.6288 93.889237 
L 232.848374 89.274262 
L 234.881623 84.574219 
L 236.725293 79.796628 
L 238.376436 74.949131 
L 239.832411 70.039483 
L 241.090887 65.075539 
L 241.413976 63.648 
L 242.615624 68.626006 
L 244.015378 73.551977 
L 245.610999 78.418032 
L 247.399934 83.216388 
L 249.379321 87.939367 
L 251.545993 92.579413 
L 253.896485 97.129105 
L 256.427035 101.581162 
L 259.133597 105.928463 
L 262.011839 110.164054 
L 265.057157 114.281157 
L 268.264679 118.273187 
L 271.629275 122.133756 
L 275.14556 125.85669 
L 278.807911 129.436032 
L 282.610468 132.866056 
L 286.547147 136.141275 
L 290.611651 139.256449 
L 294.797478 142.206594 
L 299.097931 144.98699 
L 303.50613 147.593191 
L 308.015024 150.021026 
L 312.617398 152.266611 
L 317.30589 154.326354 
L 322.073 156.19696 
L 326.911101 157.875436 
L 331.812453 159.359097 
L 336.769215 160.645569 
L 341.773458 161.732795 
L 346.817175 162.619035 
L 351.892297 163.302871 
L 356.990707 163.783209 
L 358.031745 163.856055 
L 355.86065 168.494034 
L 353.876762 173.215124 
L 352.083253 178.011771 
L 350.482994 182.876303 
L 349.078544 187.800938 
L 347.872151 192.777796 
L 346.865743 197.798916 
L 346.060932 202.856265 
L 345.579696 206.767528 
L 341.504921 209.869255 
L 337.557441 213.131449 
L 333.743572 216.54889 
L 330.069415 220.116112 
L 326.540848 223.827408 
L 323.163515 227.67684 
L 319.942821 231.65825 
L 316.883916 235.765269 
L 313.991695 239.991326 
L 311.270785 244.329661 
L 308.725538 248.773333 
L 306.360027 253.315233 
L 304.178035 257.948095 
L 302.183054 262.664508 
L 300.378275 267.456927 
L 298.766585 272.317684 
L 297.350563 277.239003 
L 296.132473 282.213011 
L 295.46012 285.408 
L 294.369259 280.404549 
L 293.079185 275.448723 
L 291.591963 270.54845 
L 289.909972 265.71157 
L 288.035903 260.945821 
L 285.972753 256.258827 
L 283.723824 251.658085 
L 281.292714 247.150957 
L 278.683311 242.744653 
L 275.89979 238.446221 
L 272.946604 234.262539 
L 269.828478 230.200299 
L 266.5504 226.266001 
L 263.117614 222.465938 
L 260.386098 219.648905 
L 261.50451 224.64627 
L 262.821868 229.594913 
L 264.336066 234.486917 
L 266.044681 239.314457 
L 267.944979 244.069808 
L 270.03392 248.745365 
L 272.308163 253.333646 
L 274.764069 257.827311 
L 277.397709 262.219172 
L 280.20487 266.502202 
L 283.181062 270.66955 
L 286.321522 274.714548 
L 289.621227 278.630726 
L 293.074897 282.411819 
L 296.018677 285.408 
L 299.594517 281.742231 
L 303.020906 277.936398 
L 306.292361 273.996591 
L 308.123177 271.644122 
L 310.010761 266.883709 
L 311.706469 262.051621 
L 313.207589 257.155588 
L 314.51172 252.203443 
L 315.616774 247.203107 
L 316.520984 242.162581 
L 317.222904 237.089927 
L 317.72141 231.993263 
L 318.015705 226.880739 
L 318.105318 221.760537 
L 317.990106 216.640847 
L 317.670254 211.529859 
L 317.146272 206.43575 
L 316.418999 201.36667 
L 315.489599 196.330727 
L 314.359558 191.335979 
L 313.030685 186.390416 
L 311.505104 181.501949 
L 309.785258 176.6784 
L 307.873897 171.927484 
L 305.774078 167.256803 
L 303.489162 162.673828 
L 301.022803 158.185891 
L 298.378948 153.800172 
L 295.561825 149.523687 
L 292.575942 145.363278 
L 289.426076 141.3256 
L 286.117264 137.417113 
L 282.654802 133.64407 
L 279.044228 130.012506 
L 275.291318 126.528231 
L 271.402077 123.19682 
L 267.382725 120.023602 
L 263.239693 117.013653 
L 258.97961 114.171789 
L 254.60929 111.502556 
L 250.135725 109.010224 
L 245.566072 106.698781 
L 240.90764 104.571924 
L 236.167884 102.633056 
L 231.354385 100.885278 
L 226.474843 99.331387 
L 221.537066 97.973869 
L 216.548952 96.814895 
L 211.518481 95.856319 
L 206.453701 95.099676 
L 201.362715 94.546175 
L 196.253668 94.196701 
L 191.134731 94.051815 
L 186.014095 94.111747 
L 180.899952 94.376402 
L 175.800483 94.845357 
L 170.723847 95.517861 
L 165.678164 96.392838 
L 160.671507 97.468889 
L 155.711885 98.744293 
L 151.08101 100.129134 
L 152.269117 105.110389 
L 153.655471 110.040148 
L 155.237854 114.910524 
L 157.013734 119.713727 
L 158.980271 124.442071 
L 161.134318 129.087992 
L 163.472429 133.644058 
L 165.990864 138.10298 
L 168.685594 142.457625 
L 171.552307 146.701026 
L 174.586419 150.826395 
L 177.783074 154.827132 
L 181.137159 158.696837 
L 184.643308 162.429319 
L 186.069134 163.864747 
L 181.316039 165.770684 
L 176.642964 167.865169 
L 172.057384 170.144853 
L 167.566635 172.606087 
L 163.177901 175.244934 
L 158.898203 178.057173 
L 154.734388 181.038305 
L 150.693117 184.183561 
L 146.780856 187.487909 
L 143.003862 190.946062 
L 139.368179 194.552488 
L 135.879623 198.301418 
L 132.543775 202.186854 
L 129.36597 206.202581 
L 127.705563 208.439405 
L 132.787178 207.805618 
L 137.839385 206.969128 
L 142.854099 205.931272 
L 147.823298 204.693712 
L 152.739034 203.258426 
L 157.593442 201.627711 
L 162.378755 199.804177 
L 167.087318 197.790739 
L 171.7116 195.59062 
L 176.244201 193.207339 
L 180.67787 190.644708 
L 185.005516 187.906828 
L 186.469677 186.924439 
L 181.368907 186.469857 
L 176.254038 186.219616 
L 171.133254 186.174114 
L 166.014746 186.333426 
L 160.906704 186.697296 
L 155.817298 187.265143 
L 150.754671 188.036057 
L 145.726921 189.008805 
L 140.742093 190.181832 
L 135.808161 191.55326 
L 130.933018 193.120896 
L 126.124464 194.882232 
L 121.083028 196.968838 
L 121.598041 196.58861 
L 125.648397 193.455063 
L 129.570205 190.162052 
L 133.357191 186.714844 
L 137.003296 183.118955 
L 140.502688 179.380137 
L 143.849767 175.504371 
L 147.03918 171.497858 
L 150.065824 167.367007 
L 152.924857 163.118427 
L 155.611705 158.758914 
L 158.12207 154.295444 
L 160.451935 149.735155 
L 162.597574 145.085345 
L 164.555554 140.353452 
L 166.322743 135.547045 
L 167.896313 130.673814 
L 169.273747 125.741555 
L 170.452841 120.758159 
L 171.43171 115.731598 
L 172.208787 110.669913 
L 172.782829 105.581202 
L 173.152917 100.473606 
L 173.31846 95.355296 
L 173.279193 90.23446 
L 173.035179 85.119291 
L 172.586807 80.017971 
L 171.934796 74.938662 
L 171.080188 69.889489 
L 170.418458 66.635691 
L 175.263134 64.97629 
L 178.743958 63.648 
L 183.538301 65.44766 
L 188.400777 67.054157 
L 193.323606 68.464922 
L 198.298912 69.677699 
L 203.318737 70.690546 
L 208.37505 71.501843 
L 213.459761 72.110293 
L 218.564737 72.514922 
L 223.68181 72.715082 
L 228.802795 72.710454 
L 233.919498 72.501045 
L 239.023734 72.08719 
L 244.107337 71.469552 
L 249.162175 70.649117 
L 254.180161 69.627199 
L 259.153268 68.405432 
L 264.073539 66.985771 
L 268.933103 65.370488 
L 273.509285 63.648 
L 278.303628 65.44766 
L 283.166104 67.054157 
L 288.088933 68.464922 
L 293.064239 69.677699 
L 298.084064 70.690546 
L 303.140377 71.501843 
L 304.841836 71.72843 
L 302.952305 76.48807 
L 301.254621 81.319464 
L 299.751498 86.214883 
L 298.445342 91.166494 
L 297.338243 96.166378 
L 296.431972 101.206534 
L 295.727978 106.2789 
L 295.227387 111.37536 
L 294.931001 116.487763 
L 294.839294 121.607928 
L 294.952412 126.727665 
L 295.270174 131.838783 
L 295.792073 136.933106 
L 296.517272 142.002483 
L 297.444613 147.038805 
L 298.57261 152.034015 
L 299.899461 156.980122 
L 301.423042 161.869212 
L 303.140916 166.693464 
L 305.050334 171.445161 
L 307.148242 176.116701 
L 309.431283 180.70061 
L 311.895806 185.189555 
L 314.537868 189.576355 
L 317.353241 193.853992 
L 320.337423 198.015622 
L 323.485638 202.054587 
L 326.79285 205.964427 
L 330.253769 209.738887 
L 333.862857 213.371927 
L 337.614342 216.857736 
L 339.033541 218.1058 
L 334.161762 216.527741 
L 329.230774 215.145763 
L 324.248467 213.962078 
L 319.222809 212.978578 
L 314.161843 212.196838 
L 309.073663 211.618108 
L 303.96641 211.243313 
L 298.848255 211.073054 
L 293.727385 211.107603 
L 288.611993 211.346905 
L 283.510262 211.790576 
L 278.430354 212.437907 
L 273.380396 213.287863 
L 268.379154 214.336617 
L 266.306819 219.019558 
L 264.423409 223.781623 
L 262.731938 228.615196 
L 261.235111 233.512544 
L 259.935323 238.465831 
L 258.834654 243.467134 
L 257.934864 248.508451 
L 257.237392 253.581718 
L 256.743355 258.678818 
L 256.453542 263.791597 
L 256.368419 268.911876 
L 256.488119 274.031463 
L 256.812453 279.142168 
L 257.340901 284.235816 
L 257.491756 285.408 
L 258.0672 280.319448 
L 258.438695 275.211954 
L 258.605649 270.09369 
L 258.567792 264.972843 
L 258.325187 259.857607 
L 257.878221 254.756163 
L 257.227609 249.676675 
L 256.374392 244.627266 
L 255.319935 239.616017 
L 254.065925 234.650943 
L 252.614368 229.739987 
L 250.967586 224.891007 
L 250.524277 223.685577 
L 250.660019 224.311186 
L 251.858198 229.290028 
L 253.254519 234.216973 
L 254.846748 239.084139 
L 256.632338 243.88374 
L 258.608433 248.608097 
L 260.771872 253.249653 
L 263.119192 257.800981 
L 265.646639 262.254801 
L 268.35017 266.603987 
L 271.22546 270.841582 
L 274.267908 274.960807 
L 277.472648 278.955071 
L 280.834552 282.817985 
L 283.24734 285.408 
L 286.714747 281.6395 
L 290.028681 277.735356 
L 293.18384 273.701812 
L 296.175176 269.545322 
L 298.997904 265.272535 
L 301.647509 260.890287 
L 304.119751 256.405589 
L 306.410675 251.825614 
L 308.516617 247.15769 
L 310.434207 242.409285 
L 312.160377 237.587995 
L 313.692367 232.701533 
L 315.027725 227.757717 
L 316.164314 222.764455 
L 317.100318 217.729736 
L 317.834237 212.661613 
L 318.364899 207.568196 
L 318.691454 202.457632 
L 318.81338 197.338097 
L 318.730481 192.217782 
L 318.44289 187.104877 
L 317.951068 182.007563 
L 317.255802 176.933994 
L 316.358202 171.892286 
L 315.259706 166.890505 
L 313.962071 161.936654 
L 312.467373 157.038656 
L 310.778003 152.204349 
L 308.896663 147.441465 
L 306.826363 142.757624 
L 304.570416 138.16032 
L 302.132431 133.656908 
L 299.516306 129.25459 
L 296.726229 124.960412 
L 293.766662 120.781241 
L 290.642341 116.723765 
L 287.358262 112.794473 
L 283.919681 108.999653 
L 280.332098 105.345375 
L 276.601253 101.837484 
L 272.733113 98.481594 
L 268.733868 95.283073 
L 264.609915 92.247037 
L 260.367852 89.378343 
L 256.014465 86.681582 
L 251.556718 84.161067 
L 247.001744 81.82083 
L 242.356828 79.664616 
L 237.629402 77.695873 
L 232.827029 75.917752 
L 227.957391 74.333097 
L 223.02828 72.944443 
L 218.04758 71.754011 
L 213.023259 70.763707 
L 207.963355 69.975114 
L 202.875964 69.389494 
L 197.769223 69.007784 
L 192.651303 68.830595 
L 187.530391 68.858209 
L 182.41468 69.090583 
L 177.312353 69.527345 
L 172.231573 70.167797 
L 167.977185 70.864099 
L 169.802888 75.648586 
L 171.818458 80.356237 
L 174.020673 84.979521 
L 176.406007 89.511042 
L 178.970646 93.94355 
L 181.710487 98.269954 
L 184.621146 102.483333 
L 187.697968 106.576947 
L 190.936029 110.544246 
L 194.330149 114.378884 
L 197.874899 118.074726 
L 201.564609 121.625859 
L 205.393374 125.026603 
L 209.35507 128.271517 
L 211.286716 129.760605 
L 210.720986 124.670964 
L 209.952177 119.608016 
L 208.981519 114.579863 
L 207.810565 109.594548 
L 206.441188 104.660046 
L 204.875579 99.784252 
L 203.116242 94.974965 
L 201.165993 90.23988 
L 199.027951 85.586572 
L 196.705536 81.022485 
L 194.202464 76.55492 
L 191.522739 72.191026 
L 188.670649 67.937782 
L 185.533335 63.648 
L 182.50719 67.779216 
L 179.648669 72.028141 
L 176.962347 76.387978 
L 174.452521 80.851751 
L 172.123206 85.41232 
L 169.978128 90.062389 
L 168.020719 94.794519 
L 166.25411 99.601139 
L 164.681128 104.47456 
L 163.304289 109.406985 
L 162.125796 114.390523 
L 161.147534 119.417203 
L 160.371068 124.478981 
L 159.79764 129.567761 
L 159.428167 134.675402 
L 159.263242 139.793732 
L 159.303127 144.914563 
L 159.547759 150.029703 
L 159.996746 155.130969 
L 160.64937 160.210199 
L 161.504587 165.259269 
L 162.561029 170.2701 
L 163.817006 175.234677 
L 165.270508 180.145058 
L 166.91921 184.993385 
L 168.760476 189.771904 
L 170.791358 194.47297 
L 173.008608 199.089062 
L 175.408679 203.612795 
L 177.987731 208.036933 
L 180.741638 212.354397 
L 183.665996 216.55828 
L 186.756124 220.641858 
L 190.00708 224.598597 
L 193.413664 228.422168 
L 196.970424 232.106453 
L 200.671672 235.645558 
L 204.511485 239.033823 
L 208.483721 242.265825 
L 212.582026 245.336395 
L 216.799842 248.240621 
L 221.130423 250.973856 
L 225.56684 253.531727 
L 230.101996 255.910143 
L 234.728636 258.105299 
L 239.439357 260.113683 
L 244.226624 261.932081 
L 249.082779 263.557585 
L 254.000052 264.987595 
L 258.970577 266.219823 
L 263.986402 267.252296 
L 269.039503 268.083365 
L 274.121795 268.711698 
L 279.225149 269.136292 
L 284.3414 269.356466 
L 289.462364 269.371868 
L 294.579847 269.182474 
L 299.685662 268.788587 
L 304.771643 268.190837 
L 309.829651 267.39018 
L 310.667359 267.237468 
L 308.86358 262.444673 
L 306.869583 257.727844 
L 304.688557 253.094527 
L 302.323994 248.552133 
L 299.779674 244.10793 
L 297.059668 239.769028 
L 294.168329 235.542367 
L 291.110281 231.434711 
L 287.890417 227.452629 
L 284.513887 223.602493 
L 280.986094 219.890461 
L 277.312681 216.322473 
L 273.499525 212.904236 
L 271.710457 211.392141 
L 274.915607 215.386076 
L 278.277908 219.248644 
L 281.791981 222.973666 
L 285.452205 226.555183 
L 289.252723 229.987466 
L 293.187456 233.265023 
L 297.250109 236.382611 
L 301.434182 239.335242 
L 305.732982 242.118193 
L 310.139632 244.727012 
L 314.647083 247.157526 
L 319.248122 249.405845 
L 320.604523 250.025796 
L 316.390509 247.116056 
L 312.063507 244.377159 
L 307.630439 241.813487 
L 303.098398 239.429141 
L 298.474634 237.227936 
L 293.766543 235.213392 
L 288.981658 233.388734 
L 284.127634 231.756879 
L 279.212236 230.320439 
L 274.243327 229.081711 
L 269.228857 228.042678 
L 264.176847 227.205001 
L 259.095381 226.570021 
L 253.992586 226.138752 
L 248.876628 225.911887 
L 243.755689 225.889786 
L 238.637963 226.072486 
L 233.531636 226.459695 
L 228.444878 227.050792 
L 223.385827 227.844833 
L 218.362575 228.840546 
L 213.383159 230.03634 
L 208.455546 231.4303 
L 203.587617 233.020198 
L 198.787162 234.803489 
L 194.061858 236.77732 
L 189.419267 238.938535 
L 184.866815 241.283674 
L 180.411785 243.808988 
L 176.061304 246.510435 
L 171.822332 249.383694 
L 167.70165 252.424169 
L 163.705851 255.626995 
L 159.841328 258.987048 
L 157.916242 260.765836 
L 162.791501 259.198559 
L 167.600185 257.437577 
L 172.334602 255.485708 
L 176.987179 253.346073 
L 181.550471 251.022097 
L 186.017179 248.517497 
L 190.380156 245.836279 
L 194.632424 242.982734 
L 198.767179 239.961425 
L 202.777806 236.777188 
L 206.65789 233.435115 
L 210.401223 229.940553 
L 214.001816 226.299093 
L 217.658556 222.282544 
L 217.648744 227.403521 
L 217.843724 232.520794 
L 218.243185 237.626177 
L 218.846487 242.711501 
L 219.652665 247.768633 
L 220.660429 252.789481 
L 221.868168 257.766012 
L 223.273949 262.690267 
L 224.875523 267.554366 
L 226.670328 272.350529 
L 228.655493 277.071082 
L 230.827842 281.708474 
L 232.727249 285.408 
L 235.049059 280.843605 
L 237.186484 276.190013 
L 239.136106 271.45467 
L 240.894805 266.64515 
L 242.459767 261.769148 
L 243.82849 256.834465 
L 244.998783 251.848995 
L 245.968774 246.820713 
L 246.736912 241.757664 
L 247.301968 236.667947 
L 247.663037 231.559706 
L 247.819542 226.441111 
L 247.824813 224.395144 
L 250.163003 228.951169 
L 252.681516 233.410047 
L 255.376322 237.764645 
L 258.243109 242.007997 
L 261.277292 246.133313 
L 264.474017 250.133995 
L 267.828169 254.003641 
L 271.334383 257.736062 
L 274.98705 261.325286 
L 278.780325 264.765571 
L 282.708141 268.051414 
L 286.764214 271.177558 
L 290.942054 274.139002 
L 295.234979 276.931008 
L 299.636121 279.549109 
L 302.612827 281.188328 
L 300.975171 280.185169 
L 296.536439 277.631317 
L 291.999131 275.257009 
L 287.370505 273.066045 
L 282.657967 271.061928 
L 277.869055 269.247866 
L 273.01143 267.626761 
L 268.092864 266.201205 
L 263.121225 264.97348 
L 258.104467 263.94555 
L 253.050615 263.119058 
L 247.967756 262.495328 
L 242.864019 262.075357 
L 237.747571 261.859817 
L 232.626596 261.849053 
L 227.509286 262.043081 
L 222.403829 262.441592 
L 217.318392 263.043949 
L 212.261111 263.849186 
L 207.240076 264.856017 
L 202.26332 266.062831 
L 197.338804 267.467696 
L 192.474407 269.068365 
L 187.677911 270.862279 
L 182.956988 272.846566 
L 178.319193 275.018052 
L 173.771943 277.373264 
L 169.059175 280.065963 
L 174.57583 276.819544 
L 178.868015 274.026401 
L 183.045071 271.063851 
L 187.100316 267.936632 
L 191.027261 264.649749 
L 194.819625 261.208459 
L 198.47134 257.618267 
L 201.976565 253.884917 
L 205.329692 250.014382 
L 208.525357 246.012854 
L 211.558447 241.886734 
L 214.424111 237.642624 
L 217.117763 233.287312 
L 219.635094 228.827766 
L 222.199831 223.801863 
L 221.778614 228.905496 
L 221.561825 234.021892 
L 221.549811 239.142864 
L 221.74259 244.260221 
L 222.139855 249.365775 
L 222.74097 254.451359 
L 223.544974 259.508837 
L 224.550579 264.530117 
L 225.756178 269.507168 
L 227.159841 274.432026 
L 228.759323 279.296814 
L 230.552066 284.093748 
L 231.081859 285.408 
L 232.927581 280.631201 
L 234.580806 275.784413 
L 236.038889 270.875391 
L 237.299497 265.911988 
L 238.360613 260.902145 
L 239.220541 255.853875 
L 239.877903 250.775255 
L 240.331649 245.674411 
L 240.581053 240.559501 
L 240.625715 235.43871 
L 240.465565 230.320228 
L 240.134589 225.586814 
L 240.579718 230.688418 
L 241.2285 235.768141 
L 242.079898 240.817856 
L 243.13255 245.829485 
L 244.384772 250.79501 
L 245.83456 255.706488 
L 247.479595 260.556062 
L 249.317246 265.335972 
L 251.344572 270.038572 
L 253.55833 274.65634 
L 255.954979 279.181887 
L 258.530685 283.607974 
L 259.647472 285.408 
L 262.296053 281.025133 
L 264.767247 276.539857 
L 267.057101 271.959347 
L 269.161952 267.290932 
L 271.078433 262.542079 
L 272.803477 257.720386 
L 274.334325 252.833566 
L 275.668528 247.889438 
L 276.803951 242.89591 
L 277.738778 237.860972 
L 278.471514 232.792679 
L 279.000985 227.699138 
L 279.326346 222.588498 
L 279.447076 217.468934 
L 279.362981 212.348639 
L 279.074196 207.235801 
L 278.686059 203.064541 
L 283.578916 201.553101 
L 288.407418 199.847208 
L 293.16384 197.949591 
L 297.840573 195.863286 
L 302.430135 193.59163 
L 306.925184 191.138258 
L 311.318529 188.507094 
L 315.603141 185.702347 
L 319.772166 182.728506 
L 323.818934 179.590326 
L 327.736971 176.29283 
L 331.52001 172.841291 
L 335.161998 169.241232 
L 338.657109 165.498412 
L 341.999751 161.618818 
L 345.184577 157.608658 
L 348.206492 153.474347 
L 350.277791 150.425811 
L 345.172696 150.828935 
L 340.087805 151.435886 
L 335.031253 152.245692 
L 330.01113 153.257059 
L 325.035466 154.468369 
L 320.112222 155.877683 
L 315.249273 157.482747 
L 310.454399 159.280993 
L 305.735272 161.269544 
L 301.09944 163.44522 
L 296.55432 165.804539 
L 292.107183 168.343727 
L 287.765144 171.058723 
L 287.276416 171.37968 
L 291.908892 173.562492 
L 296.624952 175.558308 
L 301.417051 177.363935 
L 306.277522 178.976485 
L 311.198591 180.393378 
L 316.172384 181.612348 
L 321.190944 182.631444 
L 326.246242 183.449036 
L 331.330192 184.063816 
L 336.43466 184.4748 
L 341.55148 184.681331 
L 346.672467 184.683079 
L 351.789426 184.480041 
L 356.894174 184.072541 
L 358.801071 183.867434 
L 356.671122 179.210416 
L 354.356646 174.642298 
L 351.861345 170.170388 
L 349.189211 165.801841 
L 346.34452 161.543645 
L 343.331821 157.402613 
L 340.155936 153.385369 
L 336.821944 149.498339 
L 333.335178 145.747743 
L 329.701218 142.139581 
L 325.925877 138.679624 
L 322.015195 135.373408 
L 317.975427 132.226222 
L 313.813036 129.243102 
L 309.534682 126.428819 
L 305.147209 123.787875 
L 300.657636 121.324496 
L 296.073146 119.042623 
L 291.401071 116.945905 
L 286.648888 115.037698 
L 281.824198 113.321054 
L 276.934719 111.798719 
L 271.988275 110.473129 
L 266.992778 109.346404 
L 261.956219 108.420347 
L 256.886657 107.69644 
L 251.792202 107.17584 
L 246.681003 106.85938 
L 241.561237 106.747567 
L 236.441096 106.840579 
L 231.328769 107.138268 
L 226.232436 107.640157 
L 221.16025 108.345444 
L 216.120325 109.253 
L 211.120724 110.361373 
L 206.169445 111.668791 
L 201.27441 113.173161 
L 196.443448 114.872076 
L 191.68429 116.76282 
L 187.004548 118.842367 
L 182.411709 121.107391 
L 177.91312 123.554267 
L 173.515979 126.179081 
L 169.227319 128.977635 
L 165.054003 131.945451 
L 161.002705 135.077781 
L 157.079908 138.369614 
L 153.291887 141.815684 
L 149.644702 145.410478 
L 146.144188 149.148245 
L 142.795945 153.023005 
L 139.605329 157.02856 
L 136.577445 161.158502 
L 133.717136 165.406223 
L 131.028979 169.764929 
L 128.517273 174.227645 
L 126.186038 178.787233 
L 124.039003 183.436399 
L 122.079602 188.167704 
L 120.31097 192.97358 
L 119.74457 194.650561 
L 124.77837 195.591499 
L 129.84577 196.330385 
L 134.938665 196.866039 
L 140.048906 197.197603 
L 145.168319 197.324547 
L 150.288713 197.246667 
L 155.401897 196.964088 
L 160.499691 196.477263 
L 165.57394 195.786969 
L 170.616525 194.894312 
L 175.61938 193.800719 
L 180.574501 192.50794 
L 185.473961 191.018044 
L 187.453557 190.354632 
L 179.580047 193.045685 
L 174.827868 194.953903 
L 170.155798 197.050631 
L 165.571313 199.332515 
L 161.081745 201.795904 
L 156.694278 204.436858 
L 152.415931 207.25115 
L 148.253547 210.23428 
L 144.213786 213.381475 
L 140.303111 216.6877 
L 136.527778 220.147665 
L 135.204637 221.428183 
L 140.110357 219.959029 
L 144.953403 218.294873 
L 149.726026 216.438379 
L 154.420591 214.392516 
L 159.029589 212.160556 
L 163.545645 209.746071 
L 167.961536 207.152924 
L 172.270195 204.385262 
L 176.464732 201.447513 
L 180.538434 198.344378 
L 184.484786 195.08082 
L 187.997849 191.940843 
L 182.879811 191.767103 
L 177.758919 191.798168 
L 172.643365 192.03399 
L 167.541334 192.474191 
L 162.460987 193.118067 
L 157.410451 193.964587 
L 152.397808 195.012397 
L 147.431075 196.259822 
L 142.518199 197.704865 
L 137.667039 199.345215 
L 132.885356 201.178248 
L 128.180799 203.20103 
L 125.425975 204.491042 
L 125.954372 204.129645 
L 130.115164 201.144295 
L 134.153245 197.994945 
L 138.062155 194.686634 
L 141.835642 191.224655 
L 145.467668 187.614546 
L 148.952422 183.862082 
L 152.284331 179.973266 
L 155.458064 175.954321 
L 158.468543 171.811675 
L 161.310952 167.551955 
L 163.980744 163.181976 
L 166.473649 158.70873 
L 168.785677 154.139373 
L 170.91313 149.481214 
L 172.852604 144.741705 
L 174.600998 139.92843 
L 176.155513 135.049087 
L 177.513663 130.111484 
L 178.673276 125.123518 
L 179.632495 120.09317 
L 180.389787 115.028487 
L 180.94394 109.937572 
L 181.294067 104.828569 
L 181.439608 99.709651 
L 181.380331 94.589008 
L 181.116331 89.474831 
L 180.648028 84.375302 
L 179.976174 79.29858 
L 179.101843 74.252785 
L 178.026432 69.24599 
L 176.751664 64.286205 
L 176.572171 63.648 
L 175.271737 68.601118 
L 174.170416 73.602277 
L 173.269969 78.643477 
L 172.571836 83.716653 
L 172.077135 88.813688 
L 171.786656 93.92643 
L 171.700865 99.046697 
L 171.819898 104.1663 
L 172.143566 109.277048 
L 172.67135 114.370764 
L 173.402407 119.4393 
L 174.335566 124.474547 
L 175.469334 129.468451 
L 176.801899 134.413021 
L 178.331128 139.300347 
L 180.054575 144.122612 
L 181.969482 148.872099 
L 184.072786 153.541212 
L 186.361123 158.12248 
L 187.162802 159.625836 
L 182.677917 162.097739 
L 178.295469 164.747013 
L 174.022469 167.569418 
L 169.865753 170.560441 
L 165.831971 173.715295 
L 161.927576 177.028933 
L 158.158814 180.496056 
L 154.531715 184.111115 
L 151.052081 187.868328 
L 147.725479 191.761684 
L 144.55723 195.784954 
L 141.552404 199.931702 
L 138.715807 204.195294 
L 136.051977 208.56891 
L 133.565175 213.045552 
L 132.05912 215.979987 
L 137.175526 216.196543 
L 142.296499 216.208324 
L 147.413846 216.015312 
L 152.519382 215.617814 
L 157.604939 215.016468 
L 162.66238 214.212234 
L 167.683615 213.2064 
L 172.660611 212.000575 
L 177.585405 210.596687 
L 182.45012 208.996983 
L 187.246972 207.204022 
L 191.968288 205.220673 
L 194.366276 204.126725 
L 190.850762 207.850388 
L 187.486967 211.711655 
L 184.280272 215.704349 
L 181.235807 219.822083 
L 178.358442 224.05827 
L 175.652782 228.406132 
L 173.123154 232.858713 
L 170.773605 237.408892 
L 168.607894 242.049387 
L 166.629486 246.772776 
L 164.841545 251.571502 
L 163.246933 256.437888 
L 161.848199 261.364149 
L 160.783489 265.732053 
L 165.702112 267.157411 
L 170.6738 268.384936 
L 175.6906 269.412665 
L 180.744484 270.238953 
L 185.827369 270.862479 
L 190.931122 271.282245 
L 196.047579 271.49758 
L 201.168555 271.508138 
L 206.285856 271.313904 
L 211.391297 270.915188 
L 216.47671 270.312627 
L 221.533959 269.507186 
L 226.554954 268.500153 
L 231.531661 267.29314 
L 236.456121 265.888077 
L 241.320453 264.287212 
L 246.116878 262.493106 
L 250.83772 260.508629 
L 255.475429 258.336956 
L 260.022584 255.981562 
L 264.471911 253.446214 
L 268.816292 250.734968 
L 273.048777 247.852162 
L 277.162596 244.802408 
L 281.151166 241.590584 
L 285.008107 238.22183 
L 288.727248 234.701533 
L 292.30264 231.035326 
L 295.728564 227.229075 
L 298.999537 223.288867 
L 302.110328 219.221007 
L 305.055959 215.032003 
L 307.831719 210.728555 
L 310.433166 206.317549 
L 312.856139 201.806042 
L 315.096762 197.201249 
L 317.15145 192.51054 
L 319.016916 187.741416 
L 320.690176 182.901509 
L 322.168553 177.99856 
L 323.449682 173.040415 
L 324.531513 168.035003 
L 325.412315 162.990334 
L 326.09068 157.914477 
L 326.565523 152.815553 
L 326.836082 147.701719 
L 326.901927 142.581156 
L 326.762951 137.462055 
L 326.419377 132.352607 
L 325.871754 127.260986 
L 325.120959 122.195336 
L 324.168192 117.163762 
L 323.014978 112.174313 
L 321.663162 107.234972 
L 320.114906 102.353639 
L 318.372687 97.538125 
L 316.439293 92.796133 
L 314.334927 88.170946 
L 311.357934 84.004172 
L 308.216695 79.959778 
L 304.916236 76.044236 
L 301.461837 72.263808 
L 297.859024 68.624544 
L 294.113562 65.132265 
L 292.426905 63.648 
L 288.620739 67.074018 
L 284.954621 70.649502 
L 281.434417 74.368731 
L 278.065758 78.225756 
L 274.854034 82.214406 
L 271.804382 86.3283 
L 268.921682 90.560857 
L 266.210545 94.905306 
L 263.675307 99.354697 
L 261.320026 103.90191 
L 259.148469 108.539673 
L 257.16411 113.260565 
L 255.370124 118.057034 
L 253.76938 122.921406 
L 252.83654 126.105971 
L 253.079248 125.513599 
L 254.913684 120.732454 
L 256.555458 115.881776 
L 258.001943 110.969324 
L 259.250825 106.002958 
L 260.300107 100.990622 
L 261.14811 95.940336 
L 261.793476 90.860178 
L 262.235175 85.758276 
L 262.472498 80.642791 
L 262.505067 75.521909 
L 262.332829 70.40382 
L 261.956059 65.296712 
L 261.790451 63.648 
L 261.347618 68.749804 
L 261.109158 73.865235 
L 261.07545 78.986111 
L 261.24655 84.104238 
L 261.622184 89.211429 
L 262.201751 94.299514 
L 262.984323 99.360352 
L 263.968648 104.385847 
L 265.153152 109.36796 
L 266.535941 114.298721 
L 268.114801 119.17024 
L 269.887207 123.974726 
L 271.850323 128.704491 
L 274.001009 133.351968 
L 276.335825 137.909724 
L 278.851034 142.370467 
L 281.542614 146.727059 
L 284.406258 150.972533 
L 287.437385 155.100095 
L 290.631146 159.103143 
L 293.982431 162.975273 
L 297.48588 166.710289 
L 301.135887 170.302218 
L 304.926614 173.745312 
L 308.851995 177.034063 
L 312.905751 180.16321 
L 317.081397 183.127747 
L 321.372253 185.922932 
L 325.771455 188.544292 
L 330.271964 190.987634 
L 334.86658 193.24905 
L 339.547954 195.324921 
L 344.308596 197.211926 
L 349.14089 198.907047 
L 349.96368 199.174243 
L 346.102153 195.810746 
L 342.109211 192.60436 
L 337.991242 189.560213 
L 333.754833 186.683176 
L 329.406762 183.977852 
L 324.953985 181.448568 
L 320.403625 179.099371 
L 315.762962 176.934019 
L 311.03942 174.955976 
L 306.240556 173.168406 
L 301.374047 171.57417 
L 296.447678 170.175817 
L 291.46933 168.975585 
L 286.964317 168.068803 
L 291.567441 165.824754 
L 296.077144 163.398424 
L 300.486213 160.793695 
L 304.787593 158.014733 
L 308.974404 155.065985 
L 313.039948 151.952168 
L 316.97772 148.678263 
L 320.781421 145.249508 
L 324.444966 141.671389 
L 327.962494 137.949628 
L 331.328377 134.090181 
L 334.537232 130.099222 
L 336.798057 127.078227 
L 331.716468 127.712228 
L 326.664297 128.548931 
L 321.649627 129.586998 
L 316.680479 130.824768 
L 311.764804 132.26026 
L 306.910465 133.891179 
L 302.125228 135.714915 
L 297.41675 137.728551 
L 292.792561 139.928865 
L 288.26006 142.312337 
L 283.826499 144.875154 
L 279.66336 147.504723 
L 287.763347 142.351587 
L 291.918955 139.359025 
L 295.951568 136.202677 
L 299.854735 132.887593 
L 303.622213 129.419075 
L 307.247973 125.802672 
L 310.726215 122.044171 
L 314.051375 118.149583 
L 317.218133 114.125139 
L 320.221423 109.977279 
L 323.056441 105.712636 
L 323.789513 104.546769 
L 318.675538 104.814653 
L 313.576366 105.286828 
L 308.500155 105.962537 
L 303.455026 106.840699 
L 298.449049 107.919911 
L 293.490233 109.198446 
L 288.586512 110.674257 
L 283.74573 112.344984 
L 278.975631 114.207955 
L 274.283847 116.260188 
L 269.677883 118.498402 
L 265.165108 120.919014 
L 260.752742 123.518153 
L 256.447842 126.29166 
L 255.343392 127.043293 
L 254.225128 122.045895 
L 252.907915 117.097213 
L 251.393862 112.205164 
L 249.68539 107.377574 
L 247.785233 102.622166 
L 245.69643 97.946549 
L 243.422322 93.3582 
L 240.966549 88.864462 
L 238.333039 84.472524 
L 235.526005 80.189411 
L 232.549937 76.021975 
L 229.409596 71.976883 
L 226.110007 68.060608 
L 222.656448 64.279413 
L 222.052032 63.648 
L 218.57274 67.405529 
L 215.246492 71.299188 
L 212.078609 75.322746 
L 209.07416 79.469768 
L 206.237951 83.733618 
L 203.574519 88.107475 
L 201.088124 92.584343 
L 198.782746 97.15706 
L 196.662072 101.818309 
L 194.729494 106.560633 
L 192.988105 111.376447 
L 191.440689 116.258046 
L 190.089724 121.197621 
L 188.937369 126.187268 
L 187.985469 131.219006 
L 187.235546 136.284785 
L 186.6888 141.376501 
L 186.346105 146.486008 
L 186.208011 151.605132 
L 186.274737 156.725684 
L 186.545573 161.831208 
L 183.851323 166.18615 
L 181.33338 170.64535 
L 178.995771 175.201674 
L 176.842237 179.847833 
L 174.876222 184.576394 
L 173.100871 189.379791 
L 171.519025 194.250342 
L 170.133215 199.180254 
L 168.945657 204.16164 
L 167.958251 209.186532 
L 167.172577 214.246889 
L 166.589892 219.334617 
L 166.211128 224.441577 
L 166.036891 229.559599 
L 166.067459 234.680494 
L 166.302784 239.796071 
L 166.742489 244.898145 
L 167.385872 249.978554 
L 168.231901 255.029172 
L 169.279225 260.041917 
L 170.526168 265.008771 
L 171.970734 269.921787 
L 173.610613 274.773106 
L 175.443181 279.554967 
L 177.465507 284.25972 
L 177.99339 285.408 
L 180.062057 280.723438 
L 181.941737 275.959899 
L 183.629422 271.125003 
L 185.122414 266.226485 
L 186.418322 261.272182 
L 187.515075 256.270018 
L 188.410917 251.227998 
L 189.104416 246.154187 
L 189.594461 241.056701 
L 189.88027 235.943697 
L 189.961384 230.823353 
L 189.837674 225.703861 
L 189.509338 220.593411 
L 188.976901 215.500179 
L 188.241216 210.432313 
L 187.303458 205.39792 
L 186.165128 200.405054 
L 184.828047 195.461704 
L 183.294355 190.575776 
L 181.566504 185.755088 
L 179.647259 181.007351 
L 177.539691 176.340162 
L 175.247171 171.760986 
L 172.773366 167.277149 
L 170.122234 162.895825 
L 167.298017 158.624022 
L 164.305232 154.468575 
L 161.148668 150.436131 
L 157.833374 146.533142 
L 154.364654 142.76585 
L 150.748057 139.140285 
L 146.989368 135.662244 
L 143.094602 132.337293 
L 139.069989 129.170751 
L 135.723781 126.728634 
L 136.305558 126.995743 
L 141.006361 129.027233 
L 145.784642 130.869116 
L 150.632756 132.518446 
L 155.542949 133.972584 
L 160.507363 135.229203 
L 165.518058 136.286293 
L 170.567017 137.142163 
L 175.646163 137.795445 
L 180.747371 138.245092 
L 185.862479 138.490385 
L 190.983305 138.530933 
L 196.101656 138.366669 
L 200.173642 138.089258 
L 200.564778 132.983231 
L 200.751415 127.865647 
L 200.733254 122.744692 
L 200.510323 117.628561 
L 200.08298 112.525436 
L 199.451909 107.443483 
L 198.618118 102.39083 
L 197.582942 97.375562 
L 196.348037 92.405702 
L 194.915379 87.4892 
L 193.287258 82.633922 
L 191.466281 77.847635 
L 189.45536 73.137996 
L 187.257711 68.51254 
L 184.694046 63.648 
L 182.299818 68.174828 
L 180.08853 72.793779 
L 178.063719 77.497463 
L 176.228625 82.278355 
L 174.586183 87.128807 
L 173.139022 92.04106 
L 171.889456 97.007254 
L 170.839484 102.019446 
L 169.990786 107.069615 
L 169.34472 112.149684 
L 168.90232 117.251525 
L 168.664292 122.366977 
L 168.631019 127.487855 
L 168.802553 132.605968 
L 169.178619 137.713127 
L 169.758616 142.801163 
L 170.541617 147.861935 
L 171.526368 152.887347 
L 172.711294 157.86936 
L 174.0945 162.800003 
L 175.673773 167.671389 
L 177.446586 172.475724 
L 179.410103 177.205322 
L 181.561183 181.852618 
L 183.896384 186.410176 
L 186.411972 190.870706 
L 189.10392 195.22707 
L 189.806259 196.302538 
L 191.391717 201.171914 
L 193.170631 205.973994 
L 195.140153 210.701095 
L 197.297134 215.345655 
L 199.638122 219.900243 
L 202.159373 224.357574 
L 204.856852 228.710516 
L 207.726245 232.952106 
L 210.762961 237.075558 
L 213.962143 241.074275 
L 217.318671 244.941861 
L 220.827177 248.672128 
L 224.482047 252.259108 
L 228.277435 255.697063 
L 232.207268 258.980493 
L 236.26526 262.104145 
L 240.444918 265.063023 
L 244.739557 267.852391 
L 249.142306 270.467789 
L 253.646121 272.905032 
L 258.243797 275.16022 
L 262.927979 277.229747 
L 267.691174 279.110301 
L 272.52576 280.798874 
L 277.424004 282.292764 
L 282.378069 283.589582 
L 287.380031 284.687252 
L 291.333448 285.408 
L 296.367394 284.467847 
L 301.381058 283.321813 
L 299.873617 278.427723 
L 298.171669 273.597829 
L 296.277939 268.839858 
L 294.195456 264.161421 
L 291.927551 259.570005 
L 289.477852 255.072953 
L 286.850278 250.67746 
L 284.049034 246.390557 
L 281.078599 242.219104 
L 277.943728 238.169773 
L 274.649433 234.249043 
L 271.200987 230.463185 
L 267.603905 226.818257 
L 263.863941 223.320089 
L 259.903233 219.904853 
L 260.437399 224.997904 
L 261.174807 230.06552 
L 262.114274 235.099594 
L 263.2543 240.092073 
L 264.593059 245.034969 
L 266.128411 249.920375 
L 267.857899 254.740476 
L 269.778756 259.487561 
L 271.88791 264.154034 
L 274.181985 268.732431 
L 276.657313 273.215427 
L 279.309932 277.595851 
L 282.1356 281.866694 
L 284.671856 285.408 
L 287.641167 281.235747 
L 290.441258 276.948091 
L 293.067648 272.551891 
L 295.516136 268.054179 
L 297.782805 263.462152 
L 299.864029 258.783156 
L 301.756478 254.024675 
L 303.457125 249.194323 
L 304.963249 244.299827 
L 306.272441 239.349017 
L 307.382606 234.349813 
L 308.291968 229.310214 
L 308.999072 224.238281 
L 309.502788 219.142128 
L 309.802309 214.029909 
L 309.897156 208.909801 
L 309.787177 203.789995 
L 309.472549 198.678683 
L 308.953775 193.584041 
L 308.231684 188.51422 
L 307.307432 183.47733 
L 306.182497 178.48143 
L 304.85868 173.53451 
L 303.338097 168.644487 
L 301.623182 163.819182 
L 299.716678 159.066315 
L 297.621635 154.39349 
L 295.341405 149.808181 
L 292.879635 145.317726 
L 290.240264 140.929307 
L 287.427514 136.649944 
L 284.445886 132.486485 
L 281.300148 128.44559 
L 277.995334 124.533723 
L 274.53673 120.757142 
L 270.92987 117.121889 
L 267.180524 113.63378 
L 263.294689 110.298395 
L 259.278584 107.12107 
L 255.138631 104.106888 
L 250.881455 101.260671 
L 246.513865 98.586972 
L 242.04285 96.090068 
L 237.475562 93.773955 
L 232.819307 91.642338 
L 228.081535 89.698626 
L 223.269825 87.945929 
L 218.391874 86.387051 
L 213.455487 85.024486 
L 208.46856 83.860414 
L 203.439072 82.896697 
L 198.375069 82.134876 
L 193.284651 81.576171 
L 188.175963 81.221476 
L 183.057178 81.071357 
L 177.936483 81.126055 
L 172.822072 81.385482 
L 167.722127 81.849224 
L 162.644805 82.516539 
L 161.109556 82.759182 
L 163.012732 87.513382 
L 165.104502 92.187673 
L 167.381522 96.774577 
L 169.840147 101.266755 
L 172.476444 105.657022 
L 175.286197 109.938352 
L 178.264909 114.103898 
L 181.407817 118.146995 
L 184.709891 122.061176 
L 188.165849 125.840177 
L 191.770163 129.477955 
L 195.517066 132.968688 
L 199.400564 136.306793 
L 200.820375 137.461698 
L 197.729225 133.378893 
L 194.47728 129.422966 
L 191.069741 125.600247 
L 187.51206 121.916852 
L 183.809928 118.378671 
L 179.969267 114.991367 
L 175.996223 111.760358 
L 171.897151 108.690812 
L 167.678609 105.787641 
L 163.347345 103.055489 
L 158.910288 100.498727 
L 154.374538 98.121444 
L 152.710732 97.306372 
L 153.240377 97.665938 
L 157.540901 100.446225 
L 161.949167 103.052313 
L 166.458122 105.480034 
L 171.060553 107.725502 
L 175.749098 109.785125 
L 180.516255 111.65561 
L 185.354399 113.333963 
L 190.255789 114.817499 
L 195.212583 116.103845 
L 200.216854 117.190944 
L 205.260593 118.077055 
L 210.335733 118.760762 
L 215.434155 119.240971 
L 220.547701 119.516912 
L 225.668192 119.588146 
L 230.787436 119.454558 
L 235.897243 119.116362 
L 240.989438 118.574098 
L 246.055875 117.828634 
L 251.088449 116.881164 
L 256.079109 115.733202 
L 261.01987 114.386585 
L 265.902829 112.843467 
L 270.720174 111.106318 
L 275.464199 109.177915 
L 280.127313 107.061345 
L 284.702057 104.759993 
L 289.181111 102.277541 
L 293.557312 99.61796 
L 297.823657 96.785505 
L 301.973322 93.784708 
L 305.999667 90.620368 
L 309.896252 87.297549 
L 312.473041 84.946065 
L 307.602222 86.527083 
L 302.798522 88.301618 
L 298.069628 90.26683 
L 293.423103 92.419575 
L 288.866382 94.75641 
L 284.406755 97.273595 
L 280.051355 99.967105 
L 275.807151 102.83263 
L 271.680932 105.865585 
L 267.679299 109.06112 
L 263.808655 112.41412 
L 260.075191 115.919224 
L 256.48488 119.570822 
L 253.043466 123.363073 
L 251.168838 125.563373 
L 250.55836 120.478905 
L 249.745045 115.422916 
L 248.730196 110.403496 
L 247.515435 105.428674 
L 246.102705 100.506408 
L 244.494268 95.644574 
L 242.692696 90.850949 
L 240.700871 86.133202 
L 238.52198 81.498881 
L 236.159508 76.955399 
L 233.617235 72.510025 
L 230.899228 68.169871 
L 227.79963 63.648 
L 224.898317 67.867821 
L 222.168072 72.200287 
L 219.613264 76.638469 
L 217.23798 81.175266 
L 215.046019 85.80342 
L 213.040888 90.515527 
L 211.225795 95.304048 
L 209.603644 100.161324 
L 208.177029 105.079583 
L 206.948234 110.050958 
L 205.919223 115.067494 
L 205.091643 120.121167 
L 204.466819 125.203893 
L 204.045749 130.307539 
L 203.844625 134.797452 
L 198.787354 133.992147 
L 193.701926 133.389722 
L 188.596474 132.991142 
L 183.479167 132.797044 
L 178.358192 132.80774 
L 173.241741 133.023211 
L 168.137999 133.443113 
L 163.055131 134.066775 
L 158.001268 134.893198 
L 152.984496 135.921061 
L 148.012841 137.14872 
L 143.094255 138.574209 
L 138.236609 140.195249 
L 133.447672 142.009246 
L 128.735106 144.013299 
L 124.628944 145.945455 
L 125.069134 151.047488 
L 125.712998 156.127836 
L 126.559507 161.178373 
L 127.607306 166.191019 
L 128.85472 171.157755 
L 130.299752 176.070634 
L 131.940091 180.921798 
L 133.773113 185.703485 
L 135.795885 190.408046 
L 138.005172 195.027954 
L 140.397438 199.55582 
L 142.968857 203.984398 
L 145.715315 208.306605 
L 148.632419 212.515525 
L 151.715501 216.604425 
L 154.959629 220.566765 
L 158.359613 224.396204 
L 161.910015 228.086618 
L 165.605154 231.632101 
L 169.439119 235.026982 
L 173.405776 238.265829 
L 177.498779 241.343462 
L 181.711581 244.254957 
L 186.037442 246.995656 
L 190.469441 249.561174 
L 195.000489 251.947407 
L 199.623336 254.150538 
L 204.330587 256.167042 
L 209.114712 257.993693 
L 213.968056 259.62757 
L 218.882856 261.066057 
L 223.851248 262.306854 
L 228.865285 263.347976 
L 233.916945 264.187757 
L 238.998147 264.824854 
L 244.100761 265.258247 
L 249.216625 265.487244 
L 254.337554 265.511477 
L 259.455356 265.330909 
L 264.561843 264.945827 
L 269.648847 264.356848 
L 274.708229 263.564915 
L 279.731894 262.571294 
L 284.711808 261.377574 
L 289.640001 259.985666 
L 294.508592 258.397796 
L 299.30979 256.616505 
L 304.035915 254.644642 
L 308.679406 252.485361 
L 313.232834 250.142117 
L 317.688916 247.61866 
L 322.040522 244.919025 
L 324.495239 243.286878 
L 324.775183 238.173549 
L 324.850424 233.053116 
L 324.720843 227.933769 
L 324.386645 222.823699 
L 323.848367 217.731081 
L 323.106869 212.664062 
L 322.163338 207.630748 
L 321.019282 202.639191 
L 319.676533 197.697377 
L 318.137237 192.813212 
L 316.403858 187.994509 
L 314.47917 183.248977 
L 312.36625 178.584207 
L 310.068479 174.007664 
L 307.589533 169.526667 
L 304.933378 165.148387 
L 302.104263 160.879826 
L 299.106714 156.727814 
L 295.945527 152.698993 
L 292.625758 148.799809 
L 289.152719 145.036499 
L 285.531966 141.415084 
L 281.769291 137.941356 
L 277.870714 134.620875 
L 273.842472 131.458951 
L 269.691008 128.460643 
L 265.422965 125.630747 
L 261.04517 122.973791 
L 256.564627 120.494026 
L 251.988504 118.195418 
L 247.324121 116.081645 
L 242.578941 114.156088 
L 237.760555 112.421828 
L 232.876671 110.88164 
L 227.935103 109.537986 
L 222.943756 108.393018 
L 217.910614 107.448566 
L 212.843731 106.706141 
L 207.751211 106.166932 
L 202.641203 105.8318 
L 197.52188 105.701282 
L 192.401432 105.775587 
L 187.288052 106.054596 
L 182.18992 106.537862 
L 177.115191 107.224613 
L 172.071983 108.113749 
L 167.068366 109.203849 
L 162.112344 110.493168 
L 157.211845 111.979643 
L 152.374709 113.660898 
L 147.608674 115.534241 
L 142.921365 117.596676 
L 140.261946 118.868301 
L 140.702136 123.970334 
L 141.346 129.050682 
L 142.192509 134.101219 
L 143.240308 139.113865 
L 144.487722 144.0806 
L 145.932754 148.99348 
L 147.573093 153.844643 
L 149.406115 158.626331 
L 151.428888 163.330892 
L 153.638174 167.9508 
L 156.03044 172.478666 
L 158.601859 176.907244 
L 161.348317 181.22945 
L 164.265421 185.438371 
L 167.348503 189.527271 
L 170.592631 193.489611 
L 173.992616 197.31905 
L 177.543017 201.009463 
L 181.238156 204.554946 
L 185.072121 207.949827 
L 189.038778 211.188675 
L 193.131781 214.266308 
L 197.344583 217.177803 
L 201.670444 219.918501 
L 206.102444 222.48402 
L 210.633491 224.870253 
L 215.256338 227.073384 
L 219.963589 229.089888 
L 224.747714 230.916539 
L 229.601058 232.550416 
L 234.515858 233.988903 
L 239.48425 235.2297 
L 244.498287 236.270822 
L 249.549947 237.110603 
L 254.631149 237.7477 
L 259.733763 238.181093 
L 264.849627 238.41009 
L 269.970556 238.434323 
L 275.088358 238.253754 
L 280.194845 237.868673 
L 285.281849 237.279694 
L 290.341231 236.487761 
L 295.364897 235.49414 
L 300.34481 234.30042 
L 305.273004 232.908512 
L 310.141594 231.320642 
L 314.942792 229.539351 
L 319.668917 227.567487 
L 324.312408 225.408207 
L 328.865837 223.064963 
L 333.321918 220.541506 
L 337.673524 217.841871 
L 340.128241 216.209724 
L 340.408185 211.096395 
L 340.483426 205.975961 
L 340.353845 200.856615 
L 340.019648 195.746545 
L 339.48137 190.653927 
L 338.739872 185.586908 
L 337.79634 180.553594 
L 336.652284 175.562037 
L 335.309535 170.620223 
L 333.770239 165.736058 
L 332.036861 160.917355 
L 330.112172 156.171822 
L 327.999252 151.507053 
L 325.701481 146.93051 
L 323.222535 142.449513 
L 320.56638 138.071233 
L 317.737265 133.802672 
L 314.739716 129.65066 
L 311.578529 125.621839 
L 308.25876 121.722655 
L 304.785722 117.959345 
L 301.164969 114.337929 
L 297.402294 110.864202 
L 293.503717 107.543721 
L 289.475474 104.381797 
L 285.32401 101.383489 
L 281.055967 98.553593 
L 276.678172 95.896637 
L 272.197629 93.416872 
L 267.621506 91.118264 
L 262.957123 89.004491 
L 258.211943 87.078934 
L 253.393557 85.344674 
L 248.509674 83.804486 
L 243.568105 82.460832 
L 238.576758 81.315864 
L 233.543616 80.371412 
L 228.476733 79.628987 
L 223.384214 79.089778 
L 218.274205 78.754646 
L 213.154882 78.624128 
L 208.034435 78.698433 
L 202.921055 78.977442 
L 197.822922 79.460708 
L 192.748193 80.147459 
L 187.704986 81.036595 
L 182.701369 82.126694 
L 177.745346 83.416013 
L 172.844847 84.902489 
L 168.007711 86.583743 
L 163.241676 88.457087 
L 158.554368 90.519522 
L 155.894949 91.791147 
L 156.335138 96.893179 
L 156.979002 101.973528 
L 157.825511 107.024065 
L 158.873311 112.036711 
L 160.120724 117.003446 
L 161.565757 121.916326 
L 163.206096 126.767489 
L 165.039118 131.549177 
L 167.06189 136.253738 
L 169.271176 140.873646 
L 171.663443 145.401511 
L 174.234862 149.83009 
L 176.98132 154.152296 
L 179.898423 158.361217 
L 182.981505 162.450117 
L 185.697769 165.789399 
L 181.327109 168.458075 
L 177.066664 171.299397 
L 172.923249 174.308818 
L 168.903494 177.481524 
L 165.013828 180.81244 
L 161.260474 184.296237 
L 157.649437 187.927341 
L 154.186495 191.699943 
L 150.877186 195.608009 
L 147.726805 199.645285 
L 144.740392 203.805314 
L 141.922725 208.08144 
L 139.278311 212.466822 
L 136.811381 216.954445 
L 134.861694 220.834187 
L 139.974969 221.115121 
L 145.095388 221.191354 
L 150.214759 221.062763 
L 155.324894 220.729555 
L 160.417616 220.192263 
L 165.484778 219.451746 
L 170.518275 218.509189 
L 175.510053 217.3661 
L 180.452127 216.024307 
L 185.33659 214.485957 
L 190.155629 212.753512 
L 194.901534 210.829742 
L 198.491178 209.224682 
L 196.045388 213.723861 
L 193.781474 218.317247 
L 191.703056 222.997491 
L 189.813462 227.757106 
L 188.115712 232.588477 
L 186.612524 237.483875 
L 185.306302 242.43547 
L 184.199135 247.435338 
L 183.292796 252.475482 
L 182.588734 257.547838 
L 182.088075 262.644292 
L 181.79162 267.756691 
L 181.699844 272.876855 
L 181.812893 277.996593 
L 182.130587 283.107715 
L 182.34072 285.408 
L 182.750568 280.303441 
L 182.955961 275.186575 
L 182.95657 270.065588 
L 182.752393 264.948674 
L 182.343757 259.844017 
L 181.731317 254.759785 
L 180.916051 249.704111 
L 179.899265 244.685082 
L 178.682584 239.710729 
L 177.267955 234.789009 
L 175.657642 229.927796 
L 173.854219 225.134867 
L 171.860574 220.417889 
L 169.679894 215.784409 
L 167.315669 211.241839 
L 164.771681 206.797446 
L 162.051999 202.458341 
L 159.160975 198.231465 
L 156.103233 194.12358 
L 152.883666 190.141259 
L 149.507423 186.29087 
L 145.979907 182.578576 
L 142.30676 179.010314 
L 138.493859 175.591793 
L 134.547303 172.328481 
L 130.473407 169.225601 
L 126.278687 166.288114 
L 121.969854 163.520721 
L 117.553802 160.927849 
L 116.360307 160.267154 
L 127.033744 166.090283 
L 131.684401 168.234086 
L 136.417067 170.190197 
L 141.224171 171.955488 
L 146.098023 173.527134 
L 151.030825 174.902621 
L 156.014687 176.079748 
L 161.041634 177.056632 
L 166.103625 177.83171 
L 171.192562 178.403743 
L 176.300304 178.771815 
L 181.418679 178.935337 
L 185.135891 178.925747 
L 184.503635 179.026066 
L 179.465254 179.942154 
L 174.467537 181.058991 
L 169.518479 182.37479 
L 164.625997 183.887446 
L 159.79792 185.59454 
L 155.041969 187.493339 
L 150.365755 189.580807 
L 145.776758 191.853603 
L 141.282319 194.308093 
L 136.889628 196.940349 
L 132.605713 199.74616 
L 128.437428 202.721038 
L 125.640764 204.863069 
L 130.357853 202.869687 
L 134.991455 200.689266 
L 139.534157 198.325294 
L 143.978692 195.781554 
L 148.317949 193.062114 
L 152.544986 190.171326 
L 156.653042 187.113814 
L 160.635543 183.894469 
L 164.48612 180.518441 
L 168.198611 176.991132 
L 171.767078 173.318184 
L 175.185812 169.505474 
L 178.449344 165.559101 
L 181.552452 161.485378 
L 184.490173 157.290822 
L 187.257806 152.982144 
L 189.850925 148.566236 
L 192.26538 144.050164 
L 194.497308 139.441151 
L 196.543141 134.746572 
L 198.399603 129.973937 
L 200.063727 125.13088 
L 201.532848 120.225151 
L 202.804618 115.264596 
L 203.877001 110.257152 
L 204.748281 105.210829 
L 205.417066 100.133701 
L 205.882285 95.03389 
L 206.143194 89.919555 
L 206.199375 84.798876 
L 206.050738 79.680047 
L 205.697522 74.571257 
L 205.140292 69.480678 
L 204.379938 64.416454 
L 204.246385 63.648 
L 203.455195 68.707498 
L 202.866963 73.794588 
L 202.482631 78.901132 
L 202.302814 84.01896 
L 202.327799 89.139886 
L 202.557547 94.255716 
L 202.991689 99.358266 
L 203.629532 104.439374 
L 204.470055 109.490911 
L 205.511913 114.504795 
L 206.75344 119.473006 
L 208.192649 124.387594 
L 209.827237 129.240698 
L 210.235587 130.360991 
L 206.830624 126.535977 
L 203.275425 122.850185 
L 199.575677 119.309512 
L 195.7373 115.919621 
L 191.766434 112.685935 
L 187.669431 109.613629 
L 183.452845 106.707616 
L 179.123423 103.972547 
L 174.68809 101.412796 
L 170.153943 99.032458 
L 165.528234 96.835342 
L 160.818364 94.824962 
L 156.031867 93.004535 
L 155.336635 92.758175 
L 159.287716 96.016005 
L 163.365916 99.113228 
L 167.564709 102.044889 
L 171.877379 104.806298 
L 176.297027 107.393037 
L 180.81658 109.800969 
L 185.428811 112.02624 
L 190.126339 114.065292 
L 194.90165 115.914861 
L 199.747104 117.571989 
L 204.65495 119.034026 
L 209.617336 120.298631 
L 214.626324 121.363783 
L 219.673899 122.227776 
L 224.751987 122.889229 
L 229.852465 123.347084 
L 232.040707 123.480656 
L 237.022786 122.296011 
L 241.953508 120.913084 
L 246.824983 119.334087 
L 251.629418 117.561545 
L 256.359128 115.598296 
L 261.006545 113.447478 
L 265.564235 111.112534 
L 270.024906 108.597199 
L 274.381423 105.905497 
L 278.626816 103.041733 
L 282.754293 100.010489 
L 286.757251 96.816616 
L 290.629286 93.465221 
L 294.364204 89.961667 
L 297.956029 86.311559 
L 301.399016 82.520735 
L 304.687657 78.595261 
L 307.054271 75.560479 
L 301.986061 76.293795 
L 296.95123 77.229198 
L 291.957833 78.365192 
L 287.013857 79.699961 
L 282.127213 81.231368 
L 277.305717 82.956963 
L 272.557083 84.873987 
L 267.888908 86.979372 
L 263.308661 89.269751 
L 258.823667 91.741458 
L 254.441104 94.39054 
L 250.16798 97.212759 
L 246.011134 100.203599 
L 241.977214 103.358277 
L 238.072674 106.671746 
L 234.303761 110.138703 
L 230.676504 113.753604 
L 227.196706 117.510665 
L 223.869934 121.403876 
L 220.427399 125.791103 
L 220.427399 125.791103 
" style="fill:none;stroke:#1f77b4;stroke-linecap:square;stroke-width:1.5;"/>
   </g>
   <g id="patch_4">
    <path d="M 82.520165 307.584 
L 82.520165 41.472 
" style="fill:none;stroke:#000000;stroke-linecap:square;stroke-linejoin:miter;stroke-width:0.8;"/>
   </g>
   <g id="patch_5">
    <path d="M 389.799835 307.584 
L 389.799835 41.472 
" style="fill:none;stroke:#000000;stroke-linecap:square;stroke-linejoin:miter;stroke-width:0.8;"/>
   </g>
   <g id="patch_6">
    <path d="M 82.520165 307.584 
L 389.799835 307.584 
" style="fill:none;stroke:#000000;stroke-linecap:square;stroke-linejoin:miter;stroke-width:0.8;"/>
   </g>
   <g id="patch_7">
    <path d="M 82.520165 41.472 
L 389.799835 41.472 
" style="fill:none;stroke:#000000;stroke-linecap:square;stroke-linejoin:miter;stroke-width:0.8;"/>
   </g>
  </g>
 </g>
 <defs>
  <clipPath id="p175947cc29">
   <rect height="266.112" width="307.27967" x="82.520165" y="41.472"/>
  </clipPath>
 </defs>
</svg>
