<?xml version="1.0" encoding="utf-8" standalone="no"?>
<!DOCTYPE svg PUBLIC "-//W3C//DTD SVG 1.1//EN"
  "http://www.w3.org/Graphics/SVG/1.1/DTD/svg11.dtd">
<!-- Created with matplotlib (http://matplotlib.org/) -->
<svg height="345.6pt" version="1.1" viewBox="0 0 460.8 345.6" width="460.8pt" xmlns="http://www.w3.org/2000/svg" xmlns:xlink="http://www.w3.org/1999/xlink">
 <defs>
  <style type="text/css">
*{stroke-linecap:butt;stroke-linejoin:round;}
  </style>
 </defs>
 <g id="figure_1">
  <g id="patch_1">
   <path d="M 0 345.6 
L 460.8 345.6 
L 460.8 0 
L 0 0 
z
" style="fill:#ffffff;"/>
  </g>
  <g id="axes_1">
   <g id="patch_2">
    <path d="M 82.520165 307.584 
L 389.799835 307.584 
L 389.799835 41.472 
L 82.520165 41.472 
z
" style="fill:#ffffff;"/>
   </g>
   <g id="PathCollection_1">
    <defs>
     <path d="M 0 2.738613 
C 0.726289 2.738613 1.422928 2.450055 1.936492 1.936492 
C 2.450055 1.422928 2.738613 0.726289 2.738613 0 
C 2.738613 -0.726289 2.450055 -1.422928 1.936492 -1.936492 
C 1.422928 -2.450055 0.726289 -2.738613 0 -2.738613 
C -0.726289 -2.738613 -1.422928 -2.450055 -1.936492 -1.936492 
C -2.450055 -1.422928 -2.738613 -0.726289 -2.738613 0 
C -2.738613 0.726289 -2.450055 1.422928 -1.936492 1.936492 
C -1.422928 2.450055 -0.726289 2.738613 0 2.738613 
z
" id="mce0b0776b9" style="stroke:#000000;"/>
    </defs>
    <g clip-path="url(#p5b3de7f556)">
     <use style="stroke:#000000;" x="287.312538" xlink:href="#mce0b0776b9" y="172.034454"/>
    </g>
   </g>
   <g id="Quiver_1">
    <path clip-path="url(#p5b3de7f556)" d="M 287.390503 171.270221 
L 304.967851 173.063431 
L 304.35955 171.457 
L 311.767978 174.529354 
L 303.891756 176.042395 
L 304.81192 174.591896 
L 287.234572 172.798686 
L 287.390503 171.270221 
"/>
   </g>
   <g id="patch_3">
    <path clip-path="url(#p5b3de7f556)" d="M 236.16 225.741278 
C 249.74192 225.741278 262.769389 220.345124 272.373256 210.741256 
C 281.977124 201.137389 287.373278 188.10992 287.373278 174.528 
C 287.373278 160.94608 281.977124 147.918611 272.373256 138.314744 
C 262.769389 128.710876 249.74192 123.314722 236.16 123.314722 
C 222.57808 123.314722 209.550611 128.710876 199.946744 138.314744 
C 190.342876 147.918611 184.946722 160.94608 184.946722 174.528 
C 184.946722 188.10992 190.342876 201.137389 199.946744 210.741256 
C 209.550611 220.345124 222.57808 225.741278 236.16 225.741278 
z
" style="fill:#009900;fill-opacity:0.5;stroke:#009900;stroke-linejoin:miter;stroke-width:2;"/>
   </g>
   <g id="matplotlib.axis_1">
    <g id="xtick_1">
     <g id="line2d_1">
      <defs>
       <path d="M 0 0 
L 0 3.5 
" id="mf2afc368c6" style="stroke:#000000;stroke-width:0.8;"/>
      </defs>
      <g>
       <use style="stroke:#000000;stroke-width:0.8;" x="108.126804" xlink:href="#mf2afc368c6" y="307.584"/>
      </g>
     </g>
     <g id="text_1">
      <!-- −2 -->
      <defs>
       <path d="M 10.59375 35.5 
L 73.1875 35.5 
L 73.1875 27.203125 
L 10.59375 27.203125 
z
" id="DejaVuSans-2212"/>
       <path d="M 19.1875 8.296875 
L 53.609375 8.296875 
L 53.609375 0 
L 7.328125 0 
L 7.328125 8.296875 
Q 12.9375 14.109375 22.625 23.890625 
Q 32.328125 33.6875 34.8125 36.53125 
Q 39.546875 41.84375 41.421875 45.53125 
Q 43.3125 49.21875 43.3125 52.78125 
Q 43.3125 58.59375 39.234375 62.25 
Q 35.15625 65.921875 28.609375 65.921875 
Q 23.96875 65.921875 18.8125 64.3125 
Q 13.671875 62.703125 7.8125 59.421875 
L 7.8125 69.390625 
Q 13.765625 71.78125 18.9375 73 
Q 24.125 74.21875 28.421875 74.21875 
Q 39.75 74.21875 46.484375 68.546875 
Q 53.21875 62.890625 53.21875 53.421875 
Q 53.21875 48.921875 51.53125 44.890625 
Q 49.859375 40.875 45.40625 35.40625 
Q 44.1875 33.984375 37.640625 27.21875 
Q 31.109375 20.453125 19.1875 8.296875 
z
" id="DejaVuSans-32"/>
      </defs>
      <g transform="translate(100.755711 322.182437)scale(0.1 -0.1)">
       <use xlink:href="#DejaVuSans-2212"/>
       <use x="83.789062" xlink:href="#DejaVuSans-32"/>
      </g>
     </g>
    </g>
    <g id="xtick_2">
     <g id="line2d_2">
      <g>
       <use style="stroke:#000000;stroke-width:0.8;" x="172.143402" xlink:href="#mf2afc368c6" y="307.584"/>
      </g>
     </g>
     <g id="text_2">
      <!-- −1 -->
      <defs>
       <path d="M 12.40625 8.296875 
L 28.515625 8.296875 
L 28.515625 63.921875 
L 10.984375 60.40625 
L 10.984375 69.390625 
L 28.421875 72.90625 
L 38.28125 72.90625 
L 38.28125 8.296875 
L 54.390625 8.296875 
L 54.390625 0 
L 12.40625 0 
z
" id="DejaVuSans-31"/>
      </defs>
      <g transform="translate(164.772308 322.182437)scale(0.1 -0.1)">
       <use xlink:href="#DejaVuSans-2212"/>
       <use x="83.789062" xlink:href="#DejaVuSans-31"/>
      </g>
     </g>
    </g>
    <g id="xtick_3">
     <g id="line2d_3">
      <g>
       <use style="stroke:#000000;stroke-width:0.8;" x="236.16" xlink:href="#mf2afc368c6" y="307.584"/>
      </g>
     </g>
     <g id="text_3">
      <!-- 0 -->
      <defs>
       <path d="M 31.78125 66.40625 
Q 24.171875 66.40625 20.328125 58.90625 
Q 16.5 51.421875 16.5 36.375 
Q 16.5 21.390625 20.328125 13.890625 
Q 24.171875 6.390625 31.78125 6.390625 
Q 39.453125 6.390625 43.28125 13.890625 
Q 47.125 21.390625 47.125 36.375 
Q 47.125 51.421875 43.28125 58.90625 
Q 39.453125 66.40625 31.78125 66.40625 
z
M 31.78125 74.21875 
Q 44.046875 74.21875 50.515625 64.515625 
Q 56.984375 54.828125 56.984375 36.375 
Q 56.984375 17.96875 50.515625 8.265625 
Q 44.046875 -1.421875 31.78125 -1.421875 
Q 19.53125 -1.421875 13.0625 8.265625 
Q 6.59375 17.96875 6.59375 36.375 
Q 6.59375 54.828125 13.0625 64.515625 
Q 19.53125 74.21875 31.78125 74.21875 
z
" id="DejaVuSans-30"/>
      </defs>
      <g transform="translate(232.97875 322.182437)scale(0.1 -0.1)">
       <use xlink:href="#DejaVuSans-30"/>
      </g>
     </g>
    </g>
    <g id="xtick_4">
     <g id="line2d_4">
      <g>
       <use style="stroke:#000000;stroke-width:0.8;" x="300.176598" xlink:href="#mf2afc368c6" y="307.584"/>
      </g>
     </g>
     <g id="text_4">
      <!-- 1 -->
      <g transform="translate(296.995348 322.182437)scale(0.1 -0.1)">
       <use xlink:href="#DejaVuSans-31"/>
      </g>
     </g>
    </g>
    <g id="xtick_5">
     <g id="line2d_5">
      <g>
       <use style="stroke:#000000;stroke-width:0.8;" x="364.193196" xlink:href="#mf2afc368c6" y="307.584"/>
      </g>
     </g>
     <g id="text_5">
      <!-- 2 -->
      <g transform="translate(361.011946 322.182437)scale(0.1 -0.1)">
       <use xlink:href="#DejaVuSans-32"/>
      </g>
     </g>
    </g>
   </g>
   <g id="matplotlib.axis_2">
    <g id="ytick_1">
     <g id="line2d_6">
      <defs>
       <path d="M 0 0 
L -3.5 0 
" id="mbff54f14e2" style="stroke:#000000;stroke-width:0.8;"/>
      </defs>
      <g>
       <use style="stroke:#000000;stroke-width:0.8;" x="82.520165" xlink:href="#mbff54f14e2" y="302.561196"/>
      </g>
     </g>
     <g id="text_6">
      <!-- −2.0 -->
      <defs>
       <path d="M 10.6875 12.40625 
L 21 12.40625 
L 21 0 
L 10.6875 0 
z
" id="DejaVuSans-2e"/>
      </defs>
      <g transform="translate(51.237353 306.360414)scale(0.1 -0.1)">
       <use xlink:href="#DejaVuSans-2212"/>
       <use x="83.789062" xlink:href="#DejaVuSans-32"/>
       <use x="147.412109" xlink:href="#DejaVuSans-2e"/>
       <use x="179.199219" xlink:href="#DejaVuSans-30"/>
      </g>
     </g>
    </g>
    <g id="ytick_2">
     <g id="line2d_7">
      <g>
       <use style="stroke:#000000;stroke-width:0.8;" x="82.520165" xlink:href="#mbff54f14e2" y="270.552897"/>
      </g>
     </g>
     <g id="text_7">
      <!-- −1.5 -->
      <defs>
       <path d="M 10.796875 72.90625 
L 49.515625 72.90625 
L 49.515625 64.59375 
L 19.828125 64.59375 
L 19.828125 46.734375 
Q 21.96875 47.46875 24.109375 47.828125 
Q 26.265625 48.1875 28.421875 48.1875 
Q 40.625 48.1875 47.75 41.5 
Q 54.890625 34.8125 54.890625 23.390625 
Q 54.890625 11.625 47.5625 5.09375 
Q 40.234375 -1.421875 26.90625 -1.421875 
Q 22.3125 -1.421875 17.546875 -0.640625 
Q 12.796875 0.140625 7.71875 1.703125 
L 7.71875 11.625 
Q 12.109375 9.234375 16.796875 8.0625 
Q 21.484375 6.890625 26.703125 6.890625 
Q 35.15625 6.890625 40.078125 11.328125 
Q 45.015625 15.765625 45.015625 23.390625 
Q 45.015625 31 40.078125 35.4375 
Q 35.15625 39.890625 26.703125 39.890625 
Q 22.75 39.890625 18.8125 39.015625 
Q 14.890625 38.140625 10.796875 36.28125 
z
" id="DejaVuSans-35"/>
      </defs>
      <g transform="translate(51.237353 274.352116)scale(0.1 -0.1)">
       <use xlink:href="#DejaVuSans-2212"/>
       <use x="83.789062" xlink:href="#DejaVuSans-31"/>
       <use x="147.412109" xlink:href="#DejaVuSans-2e"/>
       <use x="179.199219" xlink:href="#DejaVuSans-35"/>
      </g>
     </g>
    </g>
    <g id="ytick_3">
     <g id="line2d_8">
      <g>
       <use style="stroke:#000000;stroke-width:0.8;" x="82.520165" xlink:href="#mbff54f14e2" y="238.544598"/>
      </g>
     </g>
     <g id="text_8">
      <!-- −1.0 -->
      <g transform="translate(51.237353 242.343817)scale(0.1 -0.1)">
       <use xlink:href="#DejaVuSans-2212"/>
       <use x="83.789062" xlink:href="#DejaVuSans-31"/>
       <use x="147.412109" xlink:href="#DejaVuSans-2e"/>
       <use x="179.199219" xlink:href="#DejaVuSans-30"/>
      </g>
     </g>
    </g>
    <g id="ytick_4">
     <g id="line2d_9">
      <g>
       <use style="stroke:#000000;stroke-width:0.8;" x="82.520165" xlink:href="#mbff54f14e2" y="206.536299"/>
      </g>
     </g>
     <g id="text_9">
      <!-- −0.5 -->
      <g transform="translate(51.237353 210.335518)scale(0.1 -0.1)">
       <use xlink:href="#DejaVuSans-2212"/>
       <use x="83.789062" xlink:href="#DejaVuSans-30"/>
       <use x="147.412109" xlink:href="#DejaVuSans-2e"/>
       <use x="179.199219" xlink:href="#DejaVuSans-35"/>
      </g>
     </g>
    </g>
    <g id="ytick_5">
     <g id="line2d_10">
      <g>
       <use style="stroke:#000000;stroke-width:0.8;" x="82.520165" xlink:href="#mbff54f14e2" y="174.528"/>
      </g>
     </g>
     <g id="text_10">
      <!-- 0.0 -->
      <g transform="translate(59.61704 178.327219)scale(0.1 -0.1)">
       <use xlink:href="#DejaVuSans-30"/>
       <use x="63.623047" xlink:href="#DejaVuSans-2e"/>
       <use x="95.410156" xlink:href="#DejaVuSans-30"/>
      </g>
     </g>
    </g>
    <g id="ytick_6">
     <g id="line2d_11">
      <g>
       <use style="stroke:#000000;stroke-width:0.8;" x="82.520165" xlink:href="#mbff54f14e2" y="142.519701"/>
      </g>
     </g>
     <g id="text_11">
      <!-- 0.5 -->
      <g transform="translate(59.61704 146.31892)scale(0.1 -0.1)">
       <use xlink:href="#DejaVuSans-30"/>
       <use x="63.623047" xlink:href="#DejaVuSans-2e"/>
       <use x="95.410156" xlink:href="#DejaVuSans-35"/>
      </g>
     </g>
    </g>
    <g id="ytick_7">
     <g id="line2d_12">
      <g>
       <use style="stroke:#000000;stroke-width:0.8;" x="82.520165" xlink:href="#mbff54f14e2" y="110.511402"/>
      </g>
     </g>
     <g id="text_12">
      <!-- 1.0 -->
      <g transform="translate(59.61704 114.310621)scale(0.1 -0.1)">
       <use xlink:href="#DejaVuSans-31"/>
       <use x="63.623047" xlink:href="#DejaVuSans-2e"/>
       <use x="95.410156" xlink:href="#DejaVuSans-30"/>
      </g>
     </g>
    </g>
    <g id="ytick_8">
     <g id="line2d_13">
      <g>
       <use style="stroke:#000000;stroke-width:0.8;" x="82.520165" xlink:href="#mbff54f14e2" y="78.503103"/>
      </g>
     </g>
     <g id="text_13">
      <!-- 1.5 -->
      <g transform="translate(59.61704 82.302322)scale(0.1 -0.1)">
       <use xlink:href="#DejaVuSans-31"/>
       <use x="63.623047" xlink:href="#DejaVuSans-2e"/>
       <use x="95.410156" xlink:href="#DejaVuSans-35"/>
      </g>
     </g>
    </g>
    <g id="ytick_9">
     <g id="line2d_14">
      <g>
       <use style="stroke:#000000;stroke-width:0.8;" x="82.520165" xlink:href="#mbff54f14e2" y="46.494804"/>
      </g>
     </g>
     <g id="text_14">
      <!-- 2.0 -->
      <g transform="translate(59.61704 50.294023)scale(0.1 -0.1)">
       <use xlink:href="#DejaVuSans-32"/>
       <use x="63.623047" xlink:href="#DejaVuSans-2e"/>
       <use x="95.410156" xlink:href="#DejaVuSans-30"/>
      </g>
     </g>
    </g>
   </g>
   <g id="line2d_15">
    <path clip-path="url(#p5b3de7f556)" d="M 300.176598 63.648 
L 172.143402 63.648 
" style="fill:none;stroke:#009900;stroke-linecap:square;stroke-width:2;"/>
   </g>
   <g id="line2d_16">
    <path clip-path="url(#p5b3de7f556)" d="M 172.143402 63.648 
L 108.126804 174.528 
" style="fill:none;stroke:#009900;stroke-linecap:square;stroke-width:2;"/>
   </g>
   <g id="line2d_17">
    <path clip-path="url(#p5b3de7f556)" d="M 108.126804 174.528 
L 172.143402 285.408 
" style="fill:none;stroke:#009900;stroke-linecap:square;stroke-width:2;"/>
   </g>
   <g id="line2d_18">
    <path clip-path="url(#p5b3de7f556)" d="M 172.143402 285.408 
L 300.176598 285.408 
" style="fill:none;stroke:#009900;stroke-linecap:square;stroke-width:2;"/>
   </g>
   <g id="line2d_19">
    <path clip-path="url(#p5b3de7f556)" d="M 300.176598 285.408 
L 364.193196 174.528 
" style="fill:none;stroke:#009900;stroke-linecap:square;stroke-width:2;"/>
   </g>
   <g id="line2d_20">
    <path clip-path="url(#p5b3de7f556)" d="M 364.193196 174.528 
L 300.176598 63.648 
" style="fill:none;stroke:#009900;stroke-linecap:square;stroke-width:2;"/>
   </g>
   <g id="line2d_21">
    <path clip-path="url(#p5b3de7f556)" d="M 243.082387 121.761313 
L 247.569801 119.294003 
L 251.95496 116.649219 
L 256.230848 113.831191 
L 260.390624 110.844427 
L 264.427635 107.693705 
L 268.335421 104.384066 
L 272.107731 100.920805 
L 275.73853 97.309462 
L 279.22201 93.555814 
L 282.552597 89.665867 
L 285.724964 85.645843 
L 288.734035 81.502174 
L 291.574997 77.241489 
L 294.243304 72.870604 
L 296.734688 68.396511 
L 299.130735 63.648 
L 301.434146 68.221707 
L 303.918614 72.699645 
L 306.580164 77.074648 
L 309.414539 81.339717 
L 312.417204 85.488031 
L 313.892777 87.405119 
L 315.895294 92.118338 
L 318.084688 96.747707 
L 320.457455 101.28582 
L 323.009801 105.725418 
L 325.737642 110.059399 
L 328.636614 114.280828 
L 332.231663 119.346821 
L 334.257721 124.049968 
L 336.470234 128.668332 
L 338.865663 133.194526 
L 341.440175 137.621307 
L 344.189651 141.941594 
L 347.109694 146.148475 
L 350.330567 150.695042 
L 352.356625 155.398189 
L 354.569138 160.016553 
L 356.964566 164.542746 
L 359.539078 168.969527 
L 362.288555 173.289814 
L 363.704436 175.374557 
L 358.593559 175.052928 
L 353.47391 174.935938 
L 348.353676 175.023772 
L 343.241051 175.316291 
L 338.144214 175.813026 
L 333.071317 176.513183 
L 328.030477 177.415642 
L 323.029757 178.518958 
L 318.077159 179.821368 
L 313.180604 181.320787 
L 308.347928 183.014817 
L 303.586859 184.900747 
L 298.905017 186.97556 
L 294.309889 189.235938 
L 289.808829 191.678263 
L 285.409035 194.29863 
L 282.61212 196.091869 
L 283.318937 201.163842 
L 284.228014 206.203493 
L 285.337896 211.202759 
L 286.646808 216.153643 
L 288.152655 221.048225 
L 289.853028 225.878673 
L 291.745208 230.637261 
L 293.826168 235.316375 
L 296.092577 239.90853 
L 298.540811 244.40638 
L 301.166952 248.802729 
L 303.9668 253.090544 
L 306.935875 257.262965 
L 310.069427 261.313316 
L 312.439601 264.167856 
L 307.387199 263.332547 
L 302.305436 262.699948 
L 297.20244 262.271072 
L 292.086375 262.046605 
L 286.965427 262.026904 
L 281.847787 262.212003 
L 276.741642 262.601605 
L 271.655162 263.195087 
L 266.596483 263.991499 
L 261.573699 264.989567 
L 256.594844 266.187694 
L 251.667885 267.583964 
L 246.800702 269.176143 
L 242.001083 270.961684 
L 237.276705 272.93773 
L 232.635127 275.101121 
L 228.083775 277.448394 
L 223.629929 279.975796 
L 219.280715 282.679282 
L 215.250451 285.408 
L 211.007133 282.541164 
L 206.652566 279.846308 
L 202.193716 277.327744 
L 197.637718 274.989501 
L 192.991859 272.83532 
L 188.263572 270.868647 
L 183.460421 269.092628 
L 178.59009 267.510104 
L 173.660371 266.123607 
L 168.679151 264.935356 
L 163.654397 263.947251 
L 159.360066 263.266613 
L 161.180294 258.480041 
L 162.807655 253.624508 
L 164.239544 248.707782 
L 165.473671 243.737728 
L 166.508062 238.722298 
L 167.341062 233.669516 
L 167.971338 228.587463 
L 168.397882 223.484272 
L 168.620011 218.368105 
L 168.637371 213.247148 
L 168.449933 208.129594 
L 168.057998 203.023628 
L 167.462192 197.937419 
L 166.663468 192.879105 
L 165.663105 187.856777 
L 164.462702 182.878471 
L 163.06418 177.95215 
L 161.469777 173.085695 
L 159.682043 168.286892 
L 157.703838 163.563418 
L 155.538326 158.92283 
L 153.188973 154.372551 
L 150.659536 149.91986 
L 147.954063 145.571882 
L 145.076881 141.335572 
L 142.032593 137.217707 
L 138.826069 133.224874 
L 135.46244 129.363463 
L 134.689952 128.519278 
L 139.706868 129.54644 
L 144.760846 130.372156 
L 149.843801 130.995107 
L 154.947602 131.414296 
L 160.064083 131.629052 
L 165.18506 131.639031 
L 170.302339 131.444218 
L 175.407735 131.044924 
L 180.49308 130.441788 
L 185.550238 129.635775 
L 190.571118 128.628175 
L 195.547689 127.420598 
L 200.47199 126.014978 
L 205.336141 124.413563 
L 210.132363 122.618914 
L 214.852981 120.633904 
L 219.490443 118.461707 
L 224.037332 116.105798 
L 228.486372 113.569946 
L 232.830447 110.858209 
L 237.062606 107.974925 
L 241.176079 104.924705 
L 245.164286 101.71243 
L 249.020846 98.343239 
L 252.739589 94.822522 
L 256.314567 91.155911 
L 259.740059 87.349272 
L 263.010587 83.408694 
L 266.120917 79.340482 
L 269.066075 75.151145 
L 271.841348 70.847383 
L 274.442296 66.436083 
L 275.966648 63.648 
L 278.457322 68.122488 
L 281.124935 72.493797 
L 283.965221 76.754933 
L 286.973634 80.899079 
L 290.145363 84.919606 
L 293.475333 88.810082 
L 296.958217 92.564283 
L 300.588443 96.176202 
L 304.360204 99.640062 
L 308.267464 102.950321 
L 312.303975 106.101683 
L 316.463278 109.089107 
L 320.738718 111.907814 
L 325.123457 114.553294 
L 329.61048 117.021316 
L 331.573467 118.028973 
L 331.379108 123.146269 
L 331.389542 128.267245 
L 331.604752 133.383707 
L 332.024394 138.487471 
L 332.647796 143.570371 
L 333.473962 148.624276 
L 334.501569 153.6411 
L 335.728973 158.612818 
L 337.154211 163.531476 
L 338.775003 168.389206 
L 340.588756 173.178235 
L 342.592568 177.890903 
L 344.783234 182.51967 
L 347.157249 187.057131 
L 349.710815 191.496028 
L 352.150183 195.387111 
L 347.03221 195.211443 
L 341.911307 195.24058 
L 336.795664 195.474475 
L 331.693467 195.912754 
L 326.612878 196.554717 
L 321.562025 197.399335 
L 316.548987 198.445257 
L 311.581785 199.690812 
L 306.668365 201.134005 
L 301.816587 202.772527 
L 297.034214 204.603759 
L 292.328896 206.62477 
L 287.708161 208.832327 
L 283.1794 211.222898 
L 278.74986 213.792659 
L 274.426625 216.537498 
L 270.216613 219.453026 
L 266.126559 222.534577 
L 262.163005 225.777221 
L 258.332293 229.175772 
L 254.640551 232.724792 
L 251.093685 236.418603 
L 247.697369 240.251297 
L 244.457036 244.216741 
L 241.377871 248.308592 
L 238.464799 252.520304 
L 235.722481 256.845138 
L 233.155304 261.276177 
L 230.767375 265.806331 
L 228.562513 270.428353 
L 226.544247 275.134849 
L 224.715805 279.918289 
L 223.080112 284.771021 
L 222.881324 285.408 
L 221.270945 280.546809 
L 219.467457 275.753904 
L 217.473748 271.036954 
L 215.293005 266.403503 
L 212.928718 261.860966 
L 210.384669 257.416608 
L 207.664928 253.07754 
L 204.773846 248.850703 
L 201.716048 244.74286 
L 198.496427 240.760582 
L 195.120132 236.91024 
L 191.592565 233.197993 
L 187.91937 229.629781 
L 184.106422 226.211312 
L 180.159822 222.948054 
L 176.085883 219.845229 
L 171.891123 216.9078 
L 167.582253 214.140466 
L 163.166165 211.547654 
L 158.649925 209.133513 
L 154.040758 206.901904 
L 149.346037 204.856398 
L 144.573272 203.000267 
L 139.7301 201.33648 
L 134.824269 199.867699 
L 129.863626 198.596274 
L 124.856107 197.524239 
L 121.009555 196.841578 
L 122.732832 192.019254 
L 124.26189 187.131874 
L 125.594282 182.187257 
L 126.727875 177.193314 
L 127.660858 172.158034 
L 128.391737 167.089472 
L 128.919343 161.995737 
L 129.242831 156.884978 
L 129.361685 151.765371 
L 129.275715 146.645107 
L 128.985057 141.532375 
L 128.746674 138.813338 
L 133.367848 136.606698 
L 137.897083 134.217027 
L 142.327134 131.648145 
L 146.650913 128.904164 
L 150.861504 125.989472 
L 154.95217 122.908733 
L 158.916367 119.666875 
L 162.747754 116.269085 
L 166.440201 112.720798 
L 169.9878 109.027691 
L 173.384877 105.195672 
L 176.625997 101.230871 
L 179.705974 97.139632 
L 182.619882 92.928499 
L 185.363058 88.604209 
L 187.931115 84.17368 
L 190.319944 79.644 
L 192.525723 75.022416 
L 194.544923 70.316321 
L 196.374315 65.533243 
L 197.035903 63.648 
L 198.790434 68.459042 
L 200.735952 73.196072 
L 202.869345 77.851514 
L 205.187199 82.417919 
L 207.685807 86.887982 
L 210.361171 91.254551 
L 213.209011 95.510642 
L 216.224772 99.649445 
L 219.403628 103.664339 
L 222.740494 107.548901 
L 226.230033 111.296917 
L 229.86666 114.902391 
L 233.64456 118.359555 
L 237.557687 121.662877 
L 239.807339 123.444766 
L 244.209828 120.828931 
L 248.50419 118.039136 
L 252.683555 115.079844 
L 256.741237 111.955788 
L 260.670744 108.671968 
L 264.46579 105.233636 
L 268.120304 101.646293 
L 271.628439 97.915678 
L 274.984583 94.047759 
L 278.183368 90.048724 
L 281.219674 85.92497 
L 284.088646 81.683095 
L 286.785693 77.329885 
L 289.306501 72.872304 
L 291.647037 68.317483 
L 293.81443 63.648 
L 295.96997 68.293229 
L 298.309546 72.848543 
L 300.829414 77.306656 
L 303.525543 81.660434 
L 306.39362 85.902914 
L 309.429058 90.027308 
L 312.626999 94.027017 
L 315.982327 97.895644 
L 319.489676 101.626998 
L 323.143433 105.215112 
L 325.348854 107.247627 
L 326.512882 112.234564 
L 327.875403 117.170964 
L 329.434237 122.048928 
L 331.186891 126.860654 
L 333.13056 131.598443 
L 335.262136 136.254717 
L 337.578209 140.822026 
L 340.075072 145.293064 
L 342.748732 149.660677 
L 345.594911 153.917879 
L 348.609056 158.057858 
L 351.786345 162.073992 
L 355.121695 165.959857 
L 358.609771 169.709234 
L 362.244991 173.316127 
L 363.964021 174.924943 
L 359.048313 173.489561 
L 354.079138 172.251903 
L 349.064444 171.213949 
L 344.012254 170.37736 
L 338.930651 169.743473 
L 333.827764 169.313304 
L 328.711757 169.087539 
L 323.590813 169.066541 
L 318.473126 169.250343 
L 313.366883 169.638651 
L 308.280253 170.230843 
L 303.221372 171.025973 
L 298.198335 172.022767 
L 293.219177 173.219633 
L 288.291864 174.614654 
L 287.371935 174.898878 
L 292.267362 176.401974 
L 297.218981 177.708102 
L 302.218871 178.815174 
L 307.259032 179.721418 
L 312.331401 180.425384 
L 317.427865 180.925947 
L 322.540269 181.222305 
L 327.660434 181.313984 
L 332.780171 181.200838 
L 337.891287 180.883048 
L 342.985607 180.361121 
L 348.05498 179.635894 
L 353.091298 178.708526 
L 358.086501 177.580501 
L 363.230045 176.196226 
L 361.914051 171.24722 
L 361.516181 169.891275 
L 357.928323 166.237267 
L 354.197214 162.729658 
L 350.328822 159.374058 
L 346.329336 156.175838 
L 342.205155 153.140112 
L 337.962876 150.271738 
L 333.609286 147.575304 
L 329.151349 145.055125 
L 324.596198 142.715231 
L 319.951121 140.559366 
L 315.223547 138.590979 
L 310.42104 136.813219 
L 305.551283 135.228931 
L 300.622067 133.840648 
L 295.641277 132.650591 
L 290.616882 131.660665 
L 285.556919 130.872453 
L 280.469483 130.287216 
L 275.362714 129.90589 
L 270.244781 129.729085 
L 265.123871 129.757085 
L 261.303016 129.911538 
L 258.807058 125.439995 
L 256.134283 121.071841 
L 253.288966 116.814063 
L 250.27566 112.673473 
L 247.099184 108.656695 
L 243.764621 104.770155 
L 240.277305 101.020071 
L 236.642815 97.412442 
L 232.866966 93.95304 
L 228.955798 90.647399 
L 224.915568 87.500806 
L 220.752739 84.518297 
L 216.473972 81.704642 
L 212.086111 79.064343 
L 207.596176 76.601624 
L 203.01135 74.320424 
L 198.338968 72.224393 
L 193.586505 70.316883 
L 188.761562 68.600948 
L 183.871861 67.079331 
L 178.925222 65.754467 
L 173.929559 64.628476 
L 171.816141 64.214833 
L 175.22532 68.036089 
L 178.784582 71.717958 
L 182.488232 75.254549 
L 186.330346 78.640205 
L 190.304776 81.869509 
L 194.405166 84.937295 
L 198.624953 87.838655 
L 202.957389 90.568948 
L 207.395543 93.123806 
L 211.932313 95.499141 
L 216.560442 97.691154 
L 221.272526 99.696338 
L 226.061028 101.511485 
L 230.918285 103.133691 
L 235.836528 104.560361 
L 240.807889 105.789212 
L 245.824414 106.818279 
L 250.878078 107.645915 
L 255.960796 108.270797 
L 261.064437 108.691924 
L 266.180837 108.908623 
L 271.301809 108.920548 
L 276.419162 108.727679 
L 281.52471 108.330324 
L 286.610283 107.72912 
L 291.667746 106.925028 
L 296.689009 105.919334 
L 301.666039 104.713649 
L 306.590873 103.309899 
L 311.455632 101.710331 
L 316.252535 99.917505 
L 320.174689 98.28571 
L 319.660774 98.66742 
L 315.619462 101.812622 
L 311.707156 105.116918 
L 307.930117 108.575021 
L 304.294387 112.1814 
L 300.805781 115.930284 
L 297.469881 119.815676 
L 294.292024 123.831361 
L 291.277293 127.970914 
L 288.430512 132.227714 
L 285.756235 136.594948 
L 283.258739 141.065633 
L 280.942021 145.632614 
L 279.888785 147.871045 
L 285.00807 148.00302 
L 290.128539 147.930172 
L 295.241998 147.652619 
L 300.340268 147.170804 
L 305.415192 146.485498 
L 310.458652 145.597797 
L 315.46258 144.509121 
L 320.418969 143.221213 
L 325.319891 141.736132 
L 330.157505 140.056255 
L 334.924073 138.184268 
L 339.611968 136.123166 
L 341.50297 135.227375 
L 340.974303 135.588379 
L 336.811294 138.570636 
L 332.770874 141.716984 
L 328.859505 145.022388 
L 325.083446 148.481562 
L 321.448738 152.08897 
L 317.961195 155.838843 
L 314.626396 159.725181 
L 311.449677 163.741766 
L 308.43612 167.882174 
L 305.590545 172.139779 
L 302.917506 176.507772 
L 300.421277 180.979164 
L 298.105853 185.546802 
L 295.974938 190.203378 
L 294.031941 194.941444 
L 292.279971 199.753418 
L 290.721829 204.631604 
L 289.360009 209.568197 
L 288.196689 214.555299 
L 287.233731 219.584933 
L 286.472675 224.649051 
L 285.914738 229.739553 
L 285.560814 234.848294 
L 285.411468 239.967102 
L 285.466938 245.087788 
L 285.727138 250.20216 
L 286.191649 255.302036 
L 286.85973 260.379256 
L 287.730311 265.4257 
L 288.801999 270.433293 
L 290.07308 275.394024 
L 291.541521 280.299957 
L 293.302197 285.408 
L 294.976313 280.568389 
L 296.455558 275.665702 
L 297.737564 270.707783 
L 298.820281 265.702563 
L 299.701977 260.65805 
L 300.38124 255.582313 
L 300.856985 250.483473 
L 301.12845 245.369687 
L 301.195201 240.249136 
L 301.057131 235.130011 
L 300.714462 230.020502 
L 300.16774 224.928784 
L 299.417841 219.863001 
L 298.465965 214.831259 
L 297.313635 209.841606 
L 295.962693 204.902025 
L 294.415301 200.020419 
L 292.673935 195.204596 
L 290.74138 190.462262 
L 288.620728 185.801003 
L 286.801954 182.156394 
L 290.321735 178.436765 
L 293.689955 174.579357 
L 296.901226 170.590342 
L 299.95041 166.476101 
L 302.832629 162.243216 
L 305.543273 157.898459 
L 308.078005 153.448781 
L 310.432769 148.901299 
L 312.603799 144.26329 
L 314.587621 139.542172 
L 316.381062 134.7455 
L 317.981253 129.880945 
L 319.385634 124.956291 
L 320.591958 119.979416 
L 321.598295 114.958282 
L 322.403035 109.900921 
L 323.004891 104.815425 
L 323.134732 103.412655 
L 318.452163 101.339482 
L 313.690435 99.45522 
L 308.857165 97.762883 
L 303.960085 96.26518 
L 299.007031 94.964505 
L 294.005925 93.86294 
L 288.964769 92.962247 
L 283.891628 92.263867 
L 278.794616 91.768918 
L 273.681889 91.47819 
L 268.561625 91.392149 
L 263.442017 91.510933 
L 258.331253 91.834352 
L 253.237511 92.361888 
L 248.16894 93.092698 
L 243.133647 94.025611 
L 238.139688 95.159137 
L 233.195053 96.491461 
L 228.307652 98.020452 
L 223.485304 99.743663 
L 218.735723 101.658339 
L 214.066508 103.761416 
L 209.485129 106.04953 
L 204.998914 108.519019 
L 200.615041 111.165934 
L 196.340523 113.98604 
L 192.182198 116.974825 
L 188.146719 120.127508 
L 184.240541 123.439046 
L 180.469915 126.90414 
L 176.840871 130.517247 
L 173.359216 134.272587 
L 170.030519 138.164152 
L 166.860106 142.185717 
L 163.853049 146.330847 
L 161.014158 150.592913 
L 158.347975 154.965094 
L 155.858765 159.440397 
L 153.550511 164.011662 
L 151.426905 168.671576 
L 149.491345 173.412685 
L 147.746926 178.227402 
L 146.19644 183.108027 
L 144.842368 188.04675 
L 143.686875 193.035672 
L 142.731809 198.06681 
L 141.9787 203.132116 
L 141.428751 208.223487 
L 141.082842 213.332778 
L 140.941528 218.451814 
L 141.005033 223.572406 
L 141.273257 228.686364 
L 141.609461 232.521663 
L 145.81836 235.438797 
L 150.140546 238.185288 
L 154.569105 240.75674 
L 159.096952 243.14904 
L 163.716844 245.358361 
L 168.42139 247.381168 
L 173.203064 249.214225 
L 178.054215 250.854601 
L 182.967084 252.29967 
L 187.93381 253.54712 
L 192.946448 254.594957 
L 197.996979 255.441504 
L 203.077323 256.085406 
L 208.179352 256.525633 
L 213.294904 256.761481 
L 218.415796 256.792574 
L 223.533836 256.61886 
L 228.640834 256.240619 
L 233.728622 255.658454 
L 238.78906 254.873298 
L 243.814052 253.886406 
L 248.79556 252.699358 
L 253.725614 251.314052 
L 258.596326 249.732704 
L 263.399906 247.957845 
L 268.128668 245.992314 
L 272.775047 243.839255 
L 277.33161 241.502112 
L 281.791067 238.984625 
L 286.146285 236.290821 
L 290.390296 233.42501 
L 294.516309 230.391775 
L 298.517726 227.195971 
L 302.388144 223.842708 
L 306.121371 220.337353 
L 309.711435 216.685512 
L 313.152593 212.893028 
L 316.439339 208.965968 
L 319.566416 204.910614 
L 322.52882 200.733455 
L 325.321813 196.441172 
L 327.940927 192.040633 
L 330.381971 187.538877 
L 332.64104 182.943106 
L 334.71452 178.260673 
L 336.599094 173.499068 
L 338.291747 168.665909 
L 339.789772 163.768927 
L 341.090771 158.815958 
L 342.192664 153.814925 
L 343.093687 148.773828 
L 343.7924 143.700732 
L 344.183777 139.87067 
L 339.501208 137.797497 
L 334.739479 135.913235 
L 329.906209 134.220898 
L 325.00913 132.723194 
L 320.056076 131.42252 
L 315.05497 130.320955 
L 310.013814 129.420262 
L 304.940672 128.721882 
L 299.843661 128.226932 
L 294.730934 127.936204 
L 289.61067 127.850164 
L 284.491061 127.968948 
L 279.380298 128.292367 
L 274.286556 128.819903 
L 269.217984 129.550712 
L 264.182691 130.483626 
L 262.784995 130.779748 
L 261.354984 125.862475 
L 259.729478 121.006321 
L 257.911079 116.219054 
L 255.902694 111.508333 
L 253.707537 106.881694 
L 251.32912 102.346539 
L 248.771247 97.910123 
L 246.038012 93.579543 
L 243.133785 89.361727 
L 240.063214 85.263423 
L 236.83121 81.291187 
L 233.442945 77.451375 
L 229.903839 73.750128 
L 226.219553 70.193368 
L 222.395981 66.786786 
L 218.581262 63.648 
L 214.629122 66.904545 
L 210.810369 70.316529 
L 207.131114 73.878492 
L 203.597243 77.584738 
L 200.214409 81.429336 
L 196.988024 85.406136 
L 193.923248 89.508776 
L 191.024987 93.730693 
L 188.297875 98.065132 
L 185.746276 102.505159 
L 183.374271 107.043672 
L 181.185657 111.673409 
L 179.183932 116.386964 
L 177.372301 121.176797 
L 175.753662 126.035244 
L 174.330603 130.954533 
L 173.105401 135.926794 
L 172.080017 140.944074 
L 171.256091 145.998344 
L 170.634941 151.081519 
L 170.21756 156.185468 
L 170.004617 161.302025 
L 169.996452 166.423005 
L 170.193078 171.540216 
L 170.59418 176.64547 
L 171.199118 181.7306 
L 172.006922 186.787472 
L 173.016302 191.807995 
L 174.225641 196.784139 
L 175.633005 201.707941 
L 177.236144 206.571525 
L 179.032491 211.36711 
L 181.019174 216.087024 
L 183.193014 220.723717 
L 185.550534 225.269771 
L 188.087961 229.717913 
L 190.801237 234.061026 
L 193.686021 238.292164 
L 196.737697 242.404556 
L 199.951385 246.391625 
L 203.321942 250.246991 
L 206.843976 253.964486 
L 210.511854 257.538165 
L 214.319706 260.962309 
L 218.261442 264.23144 
L 222.330755 267.340329 
L 226.521136 270.284002 
L 230.82588 273.05775 
L 235.238102 275.657136 
L 239.750741 278.078 
L 244.35658 280.316471 
L 249.04825 282.368966 
L 253.818245 284.232203 
L 257.157405 285.408 
L 261.97709 283.677353 
L 266.723713 281.755355 
L 271.389679 279.64508 
L 275.967524 277.349904 
L 280.449925 274.873498 
L 284.829711 272.219826 
L 289.099875 269.393131 
L 293.253585 266.397936 
L 297.284198 263.239033 
L 301.185263 259.921476 
L 304.950542 256.450571 
L 308.574009 252.831871 
L 312.049868 249.071166 
L 315.37256 245.174472 
L 318.536767 241.148023 
L 321.537428 236.998259 
L 324.369742 232.731821 
L 327.029179 228.355533 
L 329.511484 223.876397 
L 331.812686 219.301577 
L 333.929103 214.638394 
L 335.857349 209.894306 
L 337.59434 205.076904 
L 339.137297 200.193894 
L 340.483752 195.253088 
L 341.63155 190.262391 
L 342.578855 185.229785 
L 343.324152 180.163324 
L 343.866248 175.071111 
L 344.204277 169.961293 
L 344.337696 164.842045 
L 344.266294 159.721556 
L 343.990184 154.608019 
L 343.509808 149.509613 
L 342.825934 144.434495 
L 341.939657 139.390785 
L 340.734595 133.896511 
L 336.958017 130.437903 
L 333.046154 127.133085 
L 329.005262 123.987343 
L 324.841806 121.00571 
L 320.562447 118.192955 
L 316.17403 115.55358 
L 311.683577 113.091805 
L 307.098272 110.81157 
L 302.425448 108.716522 
L 297.672584 106.810013 
L 292.84728 105.095093 
L 287.957258 103.574505 
L 283.010341 102.250682 
L 278.014441 101.125742 
L 272.977552 100.201485 
L 267.907732 99.479389 
L 262.813091 98.960609 
L 257.701779 98.645975 
L 252.581974 98.535991 
L 247.461866 98.630833 
L 242.349646 98.930348 
L 237.253492 99.434058 
L 232.181559 100.141157 
L 227.141958 101.050514 
L 222.142753 102.160673 
L 217.191942 103.46986 
L 212.297444 104.975979 
L 207.46709 106.67662 
L 202.708608 108.569065 
L 198.029609 110.650284 
L 193.437579 112.916948 
L 188.939865 115.365431 
L 184.543662 117.991816 
L 180.256003 120.791902 
L 176.083747 123.761209 
L 172.033569 126.894986 
L 168.111949 130.188221 
L 164.325159 133.635644 
L 160.679259 137.231741 
L 157.18008 140.970758 
L 153.833222 144.846715 
L 150.644037 148.85341 
L 147.617628 152.984433 
L 144.758838 157.233176 
L 142.072238 161.592841 
L 139.562127 166.056455 
L 137.232521 170.616876 
L 135.087147 175.266808 
L 133.129437 179.998813 
L 131.362522 184.805321 
L 129.789229 189.678641 
L 128.412076 194.610978 
L 127.233266 199.594442 
L 126.254683 204.621059 
L 126.08334 205.629632 
L 130.912344 207.334103 
L 135.805647 208.844102 
L 140.755418 210.157213 
L 145.753741 211.271335 
L 150.792619 212.184687 
L 155.863991 212.895806 
L 160.959743 213.403556 
L 166.071724 213.707125 
L 171.191755 213.806025 
L 176.311646 213.7001 
L 181.423206 213.389519 
L 186.518257 212.874778 
L 191.588648 212.156701 
L 196.626268 211.236437 
L 199.763585 210.557166 
L 198.666535 215.559264 
L 197.770393 220.601231 
L 197.076593 225.675002 
L 196.586245 230.772458 
L 196.300132 235.885445 
L 196.218714 241.005784 
L 196.342119 246.125284 
L 196.670151 251.235753 
L 197.202286 256.329017 
L 197.93767 261.396927 
L 198.875129 266.431375 
L 200.013162 271.424309 
L 201.349949 276.367739 
L 202.883351 281.253758 
L 204.359022 285.408 
L 206.059729 280.577669 
L 207.565915 275.683192 
L 208.875169 270.732399 
L 209.985397 265.733209 
L 210.894823 260.693621 
L 211.601991 255.621697 
L 212.105771 250.525551 
L 212.405357 245.413335 
L 212.500268 240.293228 
L 212.390354 235.173421 
L 212.075791 230.062105 
L 211.557081 224.967457 
L 210.835054 219.897627 
L 210.677273 218.95131 
L 205.922019 220.851852 
L 201.24657 222.941034 
L 196.658406 225.215512 
L 192.164867 227.671649 
L 187.773141 230.305515 
L 183.490255 233.112896 
L 179.32306 236.089301 
L 175.278223 239.229969 
L 171.362214 242.529875 
L 167.581299 245.98374 
L 163.941526 249.586038 
L 160.448718 253.331007 
L 157.108463 257.212656 
L 156.379114 258.103451 
L 161.419204 257.196814 
L 166.419007 256.089351 
L 171.370524 254.782836 
L 176.265833 253.279358 
L 181.097104 251.581322 
L 185.856607 249.691445 
L 190.536728 247.612751 
L 195.129979 245.348564 
L 199.629014 242.902508 
L 204.026633 240.278495 
L 208.315802 237.480722 
L 212.489659 234.513667 
L 216.541527 231.382075 
L 220.464924 228.090957 
L 224.513003 224.399308 
L 226.370382 229.171587 
L 228.417115 233.865773 
L 230.649929 238.474357 
L 233.06525 242.989966 
L 235.659216 247.405375 
L 238.427677 251.713522 
L 241.366202 255.907514 
L 244.470092 259.980642 
L 247.734382 263.926389 
L 251.153847 267.738443 
L 254.723019 271.410705 
L 258.436188 274.937302 
L 262.287412 278.31259 
L 266.270532 281.53117 
L 270.379174 284.587894 
L 271.542442 285.408 
L 275.68481 282.397139 
L 279.703462 279.223035 
L 283.59197 275.890767 
L 287.344112 272.405666 
L 290.953886 268.773306 
L 294.415517 264.9995 
L 297.723467 261.090284 
L 300.872444 257.051913 
L 303.857411 252.890846 
L 306.673591 248.61374 
L 309.31648 244.227439 
L 311.78185 239.738959 
L 314.065757 235.155481 
L 316.164546 230.484337 
L 318.074861 225.733 
L 319.793644 220.909072 
L 321.318148 216.02027 
L 322.645932 211.074414 
L 323.774872 206.079416 
L 324.703163 201.043269 
L 325.429319 195.974029 
L 325.952178 190.879805 
L 326.270905 185.768747 
L 326.384989 180.649031 
L 326.294248 175.528849 
L 325.998826 170.416391 
L 325.499197 165.319836 
L 324.79616 160.247337 
L 323.89084 155.20701 
L 322.784684 150.206918 
L 321.479463 145.25506 
L 319.977264 140.359357 
L 318.280491 135.527643 
L 316.391858 130.767647 
L 314.314387 126.086983 
L 312.051401 121.493139 
L 309.60652 116.993466 
L 306.983656 112.595161 
L 304.187005 108.305261 
L 301.22104 104.130628 
L 298.090507 100.077942 
L 294.800415 96.153685 
L 291.356025 92.364136 
L 287.762849 88.715357 
L 284.026635 85.213186 
L 280.15336 81.863224 
L 276.14922 78.670832 
L 272.020622 75.641116 
L 267.77417 72.778924 
L 263.416657 70.088834 
L 258.955055 67.575149 
L 254.396501 65.241892 
L 250.996868 63.648 
L 246.371856 65.846583 
L 241.838463 68.228359 
L 237.403943 70.789516 
L 233.075388 73.525959 
L 228.859725 76.433309 
L 224.763696 79.506915 
L 220.793856 82.741859 
L 216.956554 86.132968 
L 213.257929 89.674815 
L 209.7039 93.361734 
L 206.30015 97.187827 
L 203.052127 101.146974 
L 199.965024 105.23284 
L 197.043783 109.438889 
L 194.293075 113.758393 
L 191.717301 118.18444 
L 189.320583 122.70995 
L 187.106753 127.327683 
L 185.079355 132.030252 
L 183.241631 136.810134 
L 181.596521 141.659682 
L 180.146657 146.571138 
L 178.894359 151.536644 
L 177.84163 156.548257 
L 176.990154 161.597959 
L 176.341293 166.677672 
L 175.896086 171.779269 
L 175.655244 176.894589 
L 175.619153 182.015448 
L 175.787871 187.133654 
L 176.161127 192.24102 
L 176.738325 197.329373 
L 177.518542 202.390575 
L 178.500528 207.416528 
L 179.682713 212.399192 
L 181.063206 217.330596 
L 182.639798 222.20285 
L 184.409968 227.00816 
L 186.370882 231.738838 
L 188.519405 236.387316 
L 190.852099 240.946158 
L 193.365232 245.408071 
L 196.054783 249.765916 
L 198.916451 254.012722 
L 201.945656 258.141695 
L 205.137554 262.146229 
L 208.487036 266.019918 
L 211.988746 269.756565 
L 215.637081 273.350192 
L 219.426204 276.79505 
L 223.350054 280.085628 
L 227.402354 283.216662 
L 230.451294 285.408 
L 234.593662 282.397139 
L 238.612315 279.223035 
L 242.500822 275.890767 
L 246.252964 272.405666 
L 249.862738 268.773306 
L 253.324369 264.9995 
L 256.632319 261.090284 
L 259.781296 257.051913 
L 262.766263 252.890846 
L 265.582443 248.61374 
L 268.225332 244.227439 
L 270.690702 239.738959 
L 272.974609 235.155481 
L 275.073398 230.484337 
L 276.983713 225.733 
L 278.702497 220.909072 
L 280.227 216.02027 
L 281.554784 211.074414 
L 282.683724 206.079416 
L 283.612015 201.043269 
L 284.338171 195.974029 
L 284.86103 190.879805 
L 284.914906 190.204703 
L 287.482544 185.773931 
L 289.870944 181.244026 
L 292.076286 176.622233 
L 294.095041 171.915947 
L 295.92398 167.132697 
L 297.560178 162.280134 
L 299.001016 157.366023 
L 300.244189 152.398225 
L 301.287709 147.384686 
L 302.129906 142.333428 
L 302.769433 137.252532 
L 303.205267 132.150126 
L 303.436711 127.034372 
L 303.463393 121.913455 
L 303.285273 116.795567 
L 302.902634 111.688896 
L 302.316088 106.601612 
L 301.526575 101.541852 
L 300.535356 96.517711 
L 299.344019 91.537228 
L 297.954468 86.608369 
L 296.368927 81.739019 
L 294.589932 76.93697 
L 292.62033 72.209902 
L 290.46327 67.565379 
L 288.463675 63.648 
L 286.148363 68.215694 
L 284.017562 72.872323 
L 282.07468 77.610436 
L 280.322827 82.422453 
L 278.764805 87.300677 
L 277.403105 92.237303 
L 276.239908 97.224434 
L 275.277072 102.254091 
L 274.51614 107.318228 
L 273.958327 112.408743 
L 273.604528 117.517493 
L 273.455306 122.636305 
L 273.510902 127.75699 
L 273.771226 132.871355 
L 274.235862 137.971219 
L 274.561932 140.644502 
L 279.540076 141.845578 
L 284.562268 142.846622 
L 289.620474 143.64603 
L 294.706602 144.242525 
L 299.812515 144.635151 
L 304.930045 144.823282 
L 310.051004 144.806616 
L 315.167201 144.585179 
L 320.27045 144.159326 
L 325.352587 143.529738 
L 330.405483 142.697422 
L 335.421052 141.66371 
L 340.391273 140.430256 
L 343.925404 139.423155 
L 340.267723 143.007269 
L 336.756295 146.734784 
L 333.396736 150.599738 
L 330.194421 154.595946 
L 327.154473 158.717016 
L 324.281756 162.956356 
L 321.580865 167.307182 
L 319.056121 171.762535 
L 316.711564 176.315287 
L 314.550943 180.958155 
L 312.577716 185.683711 
L 310.795039 190.484394 
L 309.205764 195.352526 
L 307.812433 200.280318 
L 306.617277 205.259886 
L 305.622205 210.283265 
L 304.828812 215.342418 
L 304.238365 220.429252 
L 303.85181 225.535628 
L 303.669764 230.653377 
L 303.692519 235.774313 
L 303.920039 240.890243 
L 304.35196 245.992982 
L 304.98759 251.074367 
L 305.825913 256.126269 
L 306.865588 261.140607 
L 308.104951 266.109357 
L 309.172205 269.827151 
L 304.209082 271.088861 
L 299.300384 272.548034 
L 294.453963 274.202334 
L 289.677574 276.049117 
L 284.978857 278.085427 
L 280.365329 280.308007 
L 275.844371 282.713301 
L 271.242828 285.408 
L 266.825949 282.816538 
L 262.308971 280.403777 
L 257.699122 278.173577 
L 253.003776 276.129505 
L 248.230445 274.274833 
L 243.386765 272.612526 
L 238.480484 271.145244 
L 233.519453 269.875335 
L 228.511607 268.80483 
L 223.464958 267.935442 
L 218.387579 267.268561 
L 213.287594 266.805255 
L 208.173161 266.546265 
L 203.052462 266.492004 
L 197.933689 266.64256 
L 192.825032 266.997692 
L 187.734662 267.556832 
L 182.670724 268.319085 
L 177.641318 269.283231 
L 172.654491 270.447729 
L 167.71822 271.810716 
L 164.814035 272.713163 
L 168.546871 269.207391 
L 172.136527 265.55515 
L 175.577262 261.762282 
L 178.86357 257.834855 
L 181.990194 253.779153 
L 184.952133 249.601663 
L 187.744647 245.309068 
L 190.36327 240.908237 
L 192.803811 236.406208 
L 195.062367 231.810186 
L 197.135325 227.127521 
L 199.019368 222.365706 
L 200.711482 217.532358 
L 202.155511 212.822838 
L 197.472987 214.896113 
L 192.877117 217.15498 
L 188.375254 219.595826 
L 183.9746 222.214747 
L 179.682194 225.007551 
L 175.504905 227.969773 
L 171.449414 231.096672 
L 167.52221 234.383246 
L 163.729575 237.824237 
L 160.077576 241.414141 
L 156.572057 245.147214 
L 153.218625 249.017485 
L 151.995316 250.510492 
L 157.037822 249.617384 
L 162.040579 248.523345 
L 166.995585 247.230124 
L 171.894912 245.73979 
L 176.730723 244.054727 
L 181.495281 242.177632 
L 186.180964 240.111506 
L 190.780276 237.859656 
L 195.285859 235.425683 
L 199.690505 232.813482 
L 203.987168 230.027232 
L 208.168973 227.071389 
L 212.229232 223.950684 
L 215.385762 221.338585 
L 215.632165 226.45364 
L 216.082919 231.55475 
L 216.737302 236.633755 
L 217.594268 241.682528 
L 218.652445 246.692993 
L 219.910141 251.657135 
L 221.365344 256.567011 
L 223.015726 261.414768 
L 224.858646 266.192649 
L 226.891156 270.893011 
L 229.110004 275.508335 
L 231.511642 280.031236 
L 234.092226 284.45448 
L 234.680132 285.408 
L 237.299317 281.007503 
L 239.740434 276.505787 
L 241.999578 271.910053 
L 244.073134 267.227654 
L 245.957786 262.466079 
L 247.650518 257.632948 
L 249.148623 252.735991 
L 250.449703 247.783043 
L 251.551677 242.782028 
L 252.452783 237.740946 
L 253.151578 232.667861 
L 253.646945 227.57089 
L 253.934372 222.557903 
L 257.486547 226.24661 
L 261.183389 229.790317 
L 265.018984 233.183356 
L 268.987197 236.420297 
L 273.081678 239.495963 
L 277.295879 242.405434 
L 281.623056 245.144054 
L 286.056287 247.707442 
L 290.588481 250.091498 
L 295.212386 252.292408 
L 299.920605 254.30665 
L 304.705607 256.131002 
L 309.559736 257.762547 
L 314.475226 259.198672 
L 315.197095 259.391736 
L 311.516345 255.831317 
L 307.696161 252.420937 
L 303.742654 249.166051 
L 299.662148 246.071867 
L 295.461172 243.143334 
L 291.146446 240.385139 
L 286.724873 237.801692 
L 282.203527 235.397128 
L 277.58964 233.175293 
L 272.890594 231.139741 
L 268.113907 229.29373 
L 263.26722 227.640211 
L 258.358286 226.181831 
L 253.394959 224.920923 
L 249.276607 224.033096 
L 245.473866 227.462915 
L 241.811322 231.042059 
L 238.294836 234.764804 
L 234.930033 238.625192 
L 231.722295 242.617049 
L 228.676755 246.733989 
L 225.798285 250.969424 
L 223.09149 255.316579 
L 220.560699 259.7685 
L 218.209962 264.318065 
L 216.04304 268.957995 
L 214.063399 273.680867 
L 212.274205 278.479126 
L 210.678322 283.345096 
L 210.06607 285.408 
L 208.552191 280.515897 
L 206.843892 275.688246 
L 204.943904 270.93277 
L 202.855268 266.257078 
L 200.581325 261.668648 
L 198.125712 257.174823 
L 195.492359 252.78279 
L 192.685477 248.499576 
L 189.709558 244.332034 
L 186.569362 240.286831 
L 183.269913 236.370438 
L 179.816489 232.58912 
L 176.214615 228.948927 
L 172.470053 225.455682 
L 168.588794 222.114974 
L 164.577047 218.932147 
L 160.44123 215.912293 
L 156.187958 213.060243 
L 151.824038 210.380561 
L 147.35645 207.877531 
L 142.79234 205.55516 
L 138.139012 203.417162 
L 133.403908 201.466958 
L 128.594605 199.707668 
L 123.718795 198.142105 
L 121.36856 197.463394 
L 122.546081 192.479626 
L 123.523363 187.452756 
L 124.298842 182.390826 
L 124.871277 177.301934 
L 125.239753 172.194221 
L 125.40368 167.075859 
L 125.362796 161.955036 
L 125.117166 156.839944 
L 124.667184 151.738766 
L 124.054982 146.939586 
L 128.776049 144.955643 
L 133.414003 142.784494 
L 137.961424 140.429613 
L 142.411037 137.894767 
L 146.755725 135.184012 
L 150.988535 132.301685 
L 155.102698 129.252395 
L 159.091631 126.041022 
L 162.948952 122.672703 
L 166.668491 119.152826 
L 170.244298 115.487023 
L 173.670651 111.681158 
L 176.942069 107.74132 
L 180.053319 103.673812 
L 182.999423 99.48514 
L 185.775669 95.182006 
L 188.377615 90.771294 
L 190.801097 86.26006 
L 193.04224 81.655521 
L 195.097458 76.965043 
L 196.963463 72.196131 
L 198.63727 67.356412 
L 199.77557 63.648 
L 201.30199 68.536205 
L 203.022665 73.359458 
L 204.934843 78.110046 
L 207.035463 82.780366 
L 209.321167 87.362949 
L 211.788297 91.850462 
L 214.432906 96.235726 
L 217.250763 100.511727 
L 220.237361 104.671623 
L 223.387921 108.708759 
L 226.697404 112.616678 
L 230.160514 116.389127 
L 233.771712 120.02007 
L 237.328618 123.328057 
L 241.230339 120.011269 
L 244.996302 116.541107 
L 248.620484 112.923123 
L 252.097085 109.163104 
L 255.420545 105.267066 
L 258.585547 101.241241 
L 261.587027 97.09207 
L 264.420184 92.826191 
L 267.080485 88.450428 
L 269.563673 83.971781 
L 271.865778 79.397416 
L 273.983115 74.73465 
L 275.912298 69.990943 
L 277.65024 65.173884 
L 278.155861 63.648 
L 279.833189 68.486499 
L 281.702663 73.254053 
L 283.761292 77.943034 
L 286.005785 82.545942 
L 288.432549 87.055411 
L 291.037703 91.464229 
L 293.817079 95.765342 
L 296.76623 99.951869 
L 299.880438 104.017113 
L 303.154722 107.95457 
L 306.583843 111.757941 
L 310.162315 115.421141 
L 313.884414 118.938311 
L 317.744185 122.303823 
L 321.735453 125.512293 
L 325.851834 128.558588 
L 330.08674 131.437836 
L 334.433399 134.145429 
L 338.884855 136.677037 
L 343.801572 139.208672 
L 343.547174 144.323335 
L 343.497511 149.444081 
L 343.652663 154.562716 
L 344.012382 159.671053 
L 344.576092 164.760919 
L 345.342891 169.824171 
L 346.311554 174.852709 
L 347.480529 179.838488 
L 348.847947 184.773533 
L 350.411621 189.649949 
L 352.169048 194.459933 
L 352.377508 194.993371 
L 347.329327 195.853813 
L 342.319591 196.91544 
L 337.356317 198.176555 
L 332.447444 199.635138 
L 327.600825 201.288858 
L 322.824214 203.135068 
L 318.125253 205.170814 
L 313.511458 207.39284 
L 308.990211 209.797592 
L 304.568746 212.381222 
L 300.254134 215.139596 
L 296.053279 218.068303 
L 291.972902 221.162656 
L 288.01953 224.417706 
L 284.199487 227.828245 
L 280.518885 231.388816 
L 276.983612 235.093725 
L 273.599323 238.937043 
L 270.371434 242.912622 
L 267.305107 247.014102 
L 264.405248 251.234922 
L 261.676497 255.56833 
L 259.123218 260.007392 
L 256.749497 264.545007 
L 254.559131 269.173916 
L 252.555624 273.886713 
L 250.742181 278.67586 
L 249.121704 283.533694 
L 248.553549 285.408 
L 247.00757 280.525946 
L 245.267596 275.70962 
L 243.336413 270.966727 
L 241.21711 266.304855 
L 238.913077 261.731461 
L 236.427999 257.253862 
L 233.765853 252.879221 
L 230.930898 248.614537 
L 227.927669 244.466632 
L 224.760969 240.442143 
L 221.435866 236.547506 
L 217.957679 232.788954 
L 214.331972 229.172498 
L 210.564546 225.703925 
L 206.661427 222.388783 
L 202.62886 219.232376 
L 198.473296 216.239753 
L 194.201383 213.415703 
L 189.819956 210.764742 
L 185.336022 208.291112 
L 180.756757 205.998771 
L 176.089485 203.891385 
L 171.341674 201.972325 
L 166.520918 200.244663 
L 161.634931 198.711161 
L 156.691528 197.374273 
L 151.698618 196.236138 
L 146.664188 195.298576 
L 141.596293 194.563088 
L 136.503041 194.03085 
L 131.392578 193.702714 
L 126.273081 193.579204 
L 121.15274 193.660518 
L 119.221424 193.744445 
L 121.918052 189.390975 
L 124.43843 184.933151 
L 126.778527 180.378105 
L 128.934599 175.733123 
L 130.903196 171.005637 
L 132.68117 166.203209 
L 134.265676 161.333523 
L 135.654179 156.404369 
L 136.844457 151.423632 
L 137.834607 146.399281 
L 138.623045 141.339353 
L 139.208509 136.251944 
L 139.590062 131.145191 
L 139.767095 126.027266 
L 139.739323 120.906355 
L 139.707384 119.828832 
L 144.177307 117.329973 
L 148.543726 114.654364 
L 152.799657 111.806285 
L 156.938291 108.790293 
L 160.953007 105.611212 
L 164.837382 102.274127 
L 168.585203 98.784379 
L 172.190472 95.147549 
L 175.647424 91.369456 
L 178.950527 87.456144 
L 182.094497 83.413873 
L 185.074305 79.24911 
L 187.885182 74.968518 
L 190.522634 70.578945 
L 192.98244 66.087413 
L 194.222662 63.648 
L 196.58591 68.191079 
L 199.128941 72.636019 
L 201.847689 76.975709 
L 204.737803 81.203208 
L 207.79466 85.31175 
L 211.01337 89.294765 
L 214.388784 93.14588 
L 217.915501 96.858934 
L 221.58788 100.427987 
L 225.400045 103.847329 
L 229.345898 107.111489 
L 233.419126 110.215247 
L 237.613214 113.153637 
L 241.92145 115.921957 
L 246.336944 118.515779 
L 250.852632 120.930954 
L 255.461288 123.163618 
L 260.155541 125.210199 
L 264.92788 127.067422 
L 269.770671 128.732318 
L 274.676167 130.202221 
L 279.636519 131.474782 
L 284.643792 132.547963 
L 289.689975 133.420048 
L 294.766997 134.089642 
L 299.866734 134.555674 
L 304.981027 134.817399 
L 310.101697 134.874396 
L 315.220549 134.726576 
L 320.329396 134.374174 
L 325.420064 133.817755 
L 330.484409 133.058209 
L 335.514329 132.096751 
L 339.210118 131.25604 
L 335.749268 135.030562 
L 332.442126 138.940462 
L 329.293985 142.979485 
L 326.309879 147.141169 
L 323.494583 151.418857 
L 320.852602 155.805705 
L 318.38816 160.294695 
L 316.105202 164.878645 
L 314.007379 169.550223 
L 312.098047 174.301955 
L 310.380261 179.126238 
L 308.856769 184.015356 
L 307.530008 188.961487 
L 306.402101 193.956717 
L 305.474852 198.993056 
L 304.749744 204.062447 
L 304.227938 209.156779 
L 303.910269 214.267903 
L 303.797244 219.387642 
L 303.889044 224.507806 
L 304.185523 229.620203 
L 304.686206 234.716654 
L 305.390292 239.789007 
L 306.296655 244.829147 
L 307.403845 249.82901 
L 308.710091 254.780598 
L 310.213302 259.675989 
L 312.042155 264.856251 
L 307.006455 265.786964 
L 302.012002 266.918306 
L 297.066785 268.248468 
L 292.178716 269.775322 
L 287.355615 271.496426 
L 282.605197 273.409025 
L 277.935063 275.510061 
L 273.352684 277.796171 
L 268.86539 280.263699 
L 264.48036 282.908697 
L 260.670238 285.408 
L 256.382106 282.608638 
L 251.98546 279.982995 
L 247.487332 277.535272 
L 242.89492 275.269383 
L 238.21557 273.188954 
L 233.456768 271.297314 
L 228.626127 269.597488 
L 223.731375 268.092196 
L 218.780342 266.783846 
L 213.78095 265.67453 
L 208.741196 264.766025 
L 203.669143 264.059782 
L 198.572905 263.556933 
L 193.460634 263.258281 
L 188.34051 263.164304 
L 183.220724 263.275153 
L 178.109465 263.590649 
L 173.014912 264.11029 
L 167.945213 264.833242 
L 162.908481 265.75835 
L 161.028994 266.157281 
L 164.406669 262.308149 
L 167.627718 258.327025 
L 170.686988 254.220279 
L 173.579585 249.994479 
L 176.300881 245.656386 
L 178.846523 241.21294 
L 181.212438 236.67125 
L 183.394842 232.038582 
L 185.390242 227.322346 
L 187.195448 222.530089 
L 188.80757 217.669475 
L 190.22403 212.748282 
L 191.442562 207.774382 
L 192.461216 202.755732 
L 192.670828 201.574105 
L 187.731533 200.22212 
L 182.742123 199.068736 
L 177.710582 198.115797 
L 172.644958 197.364829 
L 167.553355 196.817033 
L 162.443918 196.473284 
L 157.324823 196.334133 
L 152.204257 196.399803 
L 147.090414 196.670188 
L 141.991474 197.144857 
L 136.915594 197.823048 
L 131.870894 198.703679 
L 126.865446 199.785339 
L 123.238158 200.701633 
L 126.787012 197.009731 
L 130.185389 193.178865 
L 133.427855 189.215165 
L 136.509221 185.124972 
L 139.424559 180.914828 
L 142.169203 176.59147 
L 144.738764 172.161813 
L 147.129131 167.632944 
L 149.336479 163.012109 
L 151.357277 158.3067 
L 153.188293 153.524244 
L 154.826597 148.672393 
L 156.269568 143.758908 
L 157.514898 138.79165 
L 158.560595 133.778565 
L 159.404985 128.727673 
L 160.046717 123.647055 
L 160.484766 118.544838 
L 160.718431 113.429185 
L 160.747337 108.308281 
L 160.571438 103.190316 
L 160.191016 98.083479 
L 159.606679 92.99594 
L 158.819362 87.935838 
L 158.653394 87.01338 
L 163.442631 85.200176 
L 168.155528 83.196904 
L 172.784546 81.006769 
L 177.32228 78.633274 
L 181.761469 76.080217 
L 186.095013 73.351682 
L 190.315977 70.452034 
L 194.41761 67.385912 
L 198.393351 64.15822 
L 198.992998 63.648 
L 202.948814 66.900079 
L 207.031515 69.991366 
L 211.234569 72.916916 
L 215.551251 75.672048 
L 219.974657 78.252356 
L 224.497709 80.65371 
L 229.113171 82.87227 
L 233.81366 84.904486 
L 238.591657 86.747107 
L 243.439517 88.397185 
L 248.349484 89.852081 
L 253.313704 91.109466 
L 258.324236 92.16733 
L 263.373063 93.02398 
L 268.452108 93.678045 
L 273.553246 94.128479 
L 278.668317 94.374562 
L 283.789136 94.4159 
L 288.907513 94.252427 
L 294.015258 93.884404 
L 299.1042 93.31242 
L 304.166199 92.537391 
L 309.193156 91.560555 
L 314.177029 90.383476 
L 315.423266 90.056003 
L 311.874612 93.748098 
L 308.476441 97.579147 
L 305.23419 101.543022 
L 302.153044 105.633382 
L 299.237934 109.843683 
L 296.493523 114.16719 
L 293.924202 118.596985 
L 291.53408 123.125983 
L 289.326981 127.746937 
L 287.306437 132.452455 
L 285.47568 137.23501 
L 283.837638 142.08695 
L 282.394932 147.000513 
L 281.461669 150.64163 
L 286.282443 152.369239 
L 291.168448 153.902687 
L 296.111865 155.23952 
L 301.104788 156.3776 
L 306.139228 157.315106 
L 311.207131 158.050538 
L 316.30039 158.58272 
L 321.410856 158.9108 
L 326.530354 159.034253 
L 331.650694 158.952883 
L 336.763684 158.666818 
L 341.861145 158.176518 
L 346.934922 157.482765 
L 351.976897 156.58667 
L 353.637864 156.245629 
L 350.289232 160.120054 
L 347.098214 164.125289 
L 344.069915 168.254926 
L 341.20918 172.50236 
L 338.520585 176.860796 
L 336.008432 181.32326 
L 333.676739 185.882614 
L 331.529237 190.531564 
L 329.569361 195.262673 
L 327.800247 200.068371 
L 326.224724 204.940971 
L 324.845314 209.872678 
L 323.664222 214.855601 
L 322.68334 219.88177 
L 321.904235 224.943143 
L 321.328154 230.031623 
L 320.956019 235.13907 
L 320.788425 240.257314 
L 320.82564 245.378165 
L 320.995617 249.348401 
L 316.465907 251.737172 
L 312.035346 254.305173 
L 307.711021 257.048295 
L 303.499851 259.96215 
L 299.408573 263.042075 
L 295.443731 266.283145 
L 291.611669 269.680173 
L 287.918517 273.227726 
L 284.370183 276.920128 
L 280.972345 280.751471 
L 277.730437 284.715628 
L 277.190777 285.408 
L 273.976125 281.421709 
L 270.604635 277.567159 
L 267.081702 273.850515 
L 263.41296 270.277724 
L 259.604279 266.854502 
L 255.661752 263.586324 
L 251.591687 260.478419 
L 247.400594 257.53576 
L 243.095179 254.763054 
L 238.682329 252.164736 
L 234.169104 249.744963 
L 229.562723 247.507607 
L 224.870557 245.456247 
L 220.100112 243.594164 
L 215.259019 241.924337 
L 210.355023 240.449438 
L 205.39597 239.171827 
L 200.389792 238.093546 
L 195.344499 237.216322 
L 190.268163 236.541558 
L 185.168903 236.070332 
L 180.054878 235.8034 
L 174.93427 235.741187 
L 169.81527 235.883794 
L 164.706067 236.230992 
L 159.614835 236.782227 
L 154.549719 237.536615 
L 149.518822 238.49295 
L 145.5749 239.390004 
L 149.039406 235.618837 
L 152.350335 231.712144 
L 155.50239 227.676174 
L 158.490528 223.517384 
L 161.309968 219.242427 
L 163.9562 214.858142 
L 166.424991 210.371543 
L 168.712391 205.789807 
L 170.814741 201.120264 
L 172.728677 196.370385 
L 174.451138 191.547769 
L 175.979367 186.66013 
L 177.310921 181.715287 
L 178.443669 176.721152 
L 179.375799 171.685714 
L 180.105819 166.617029 
L 180.632562 161.523205 
L 180.955185 156.412391 
L 181.073172 151.292764 
L 180.986334 146.172514 
L 180.69481 141.059832 
L 180.199066 135.962898 
L 179.499896 130.889865 
L 178.598419 125.848849 
L 177.496075 120.847915 
L 176.194629 115.895063 
L 174.696163 110.998217 
L 173.003074 106.165211 
L 171.11807 101.403776 
L 169.044168 96.72153 
L 166.784684 92.125963 
L 164.343234 87.624427 
L 161.723724 83.224124 
L 161.264084 82.491532 
L 166.384034 82.59453 
L 171.504008 82.492701 
L 176.615815 82.18621 
L 181.711276 81.675547 
L 186.78224 80.961527 
L 191.820595 80.045295 
L 196.81828 78.928314 
L 201.7673 77.612373 
L 206.659738 76.099577 
L 211.487767 74.392346 
L 216.243663 72.49341 
L 220.919817 70.405808 
L 225.50875 68.13288 
L 230.003118 65.678262 
L 233.425505 63.648 
L 237.841423 66.241101 
L 242.357504 68.655539 
L 246.966525 70.88745 
L 251.661112 72.933265 
L 256.433754 74.789709 
L 261.276817 76.453814 
L 266.182553 77.922916 
L 271.143112 79.194667 
L 276.15056 80.267031 
L 281.196886 81.138292 
L 286.274017 81.807057 
L 291.37383 82.272257 
L 296.488166 82.533146 
L 301.608845 82.589307 
L 306.727673 82.440651 
L 310.870268 82.16998 
L 308.042216 86.439245 
L 305.387152 90.818187 
L 302.909322 95.299801 
L 300.612691 99.876917 
L 298.500933 104.542212 
L 296.577426 109.288223 
L 294.845247 114.107358 
L 293.307168 118.991906 
L 291.965649 123.934055 
L 290.822837 128.925896 
L 289.880559 133.959445 
L 289.140323 139.026649 
L 288.603313 144.1194 
L 288.270389 149.229553 
L 288.142082 154.348932 
L 288.218599 159.469347 
L 288.499816 164.582606 
L 288.985284 169.680529 
L 289.674227 174.754961 
L 290.565541 179.797784 
L 291.657802 184.80093 
L 292.949262 189.756395 
L 294.437854 194.656252 
L 296.121197 199.492661 
L 297.996599 204.257886 
L 300.061059 208.944303 
L 302.311274 213.544416 
L 304.743645 218.050864 
L 307.35428 222.456438 
L 310.139003 226.754091 
L 313.093358 230.936947 
L 316.21262 234.998315 
L 319.491799 238.931697 
L 322.925647 242.7308 
L 324.103253 243.965817 
L 319.110971 242.82493 
L 314.07706 241.884594 
L 309.009571 241.146312 
L 303.916612 240.611267 
L 298.806331 240.280313 
L 293.686903 240.153981 
L 288.566518 240.232473 
L 283.453368 240.515663 
L 278.355632 241.003097 
L 273.281466 241.693997 
L 268.238988 242.587257 
L 263.236264 243.681447 
L 258.281297 244.974818 
L 253.382015 246.4653 
L 248.546255 248.150509 
L 243.781754 250.027749 
L 239.096133 252.094016 
L 234.496889 254.346005 
L 229.99138 256.780114 
L 225.586813 259.392448 
L 221.290234 262.178828 
L 217.108518 265.134797 
L 213.048354 268.255625 
L 209.116237 271.536321 
L 205.318459 274.971634 
L 201.661094 278.556071 
L 198.149994 282.283896 
L 195.414084 285.408 
L 192.025727 281.568269 
L 188.486531 277.867107 
L 184.80216 274.310437 
L 180.978506 270.903946 
L 177.021688 267.653086 
L 172.938035 264.563057 
L 168.734081 261.638802 
L 164.41655 258.884999 
L 159.99235 256.306054 
L 155.468558 253.906093 
L 153.352752 252.861639 
L 153.630501 247.74819 
L 153.703544 242.627725 
L 153.571765 237.508434 
L 153.235374 232.398508 
L 152.69491 227.306122 
L 151.951237 222.239421 
L 151.005545 217.206513 
L 149.859346 212.215448 
L 148.514475 207.274211 
L 146.973083 202.390706 
L 145.237636 197.572748 
L 143.31091 192.828042 
L 141.195988 188.164181 
L 138.896253 183.588624 
L 136.415384 179.108692 
L 133.757349 174.731552 
L 130.926402 170.464206 
L 127.927071 166.313481 
L 124.764155 162.286018 
L 121.442713 158.388259 
L 118.993795 155.705821 
L 124.001736 156.775881 
L 129.048462 157.644821 
L 134.125899 158.311251 
L 139.225926 158.774104 
L 144.340382 159.032641 
L 149.461086 159.086447 
L 154.579845 158.935436 
L 159.688471 158.579851 
L 164.778791 158.020259 
L 169.842662 157.257557 
L 174.871982 156.292963 
L 179.858706 155.128023 
L 184.794856 153.764598 
L 190.147461 152.041424 
L 188.399963 147.227823 
L 186.461371 142.487954 
L 184.334785 137.829399 
L 182.023608 133.259611 
L 179.531536 128.785901 
L 176.862558 124.415425 
L 174.020942 120.155177 
L 171.011234 116.01197 
L 167.83825 111.992434 
L 164.507065 108.102998 
L 161.023009 104.349886 
L 157.391655 100.7391 
L 153.618813 97.276418 
L 153.027262 96.758125 
L 157.902926 98.324141 
L 162.837314 99.69393 
L 167.822531 100.8653 
L 172.850603 101.836378 
L 177.913486 102.605609 
L 183.003081 103.171764 
L 188.111244 103.533937 
L 193.229804 103.691548 
L 198.350573 103.644345 
L 203.465358 103.392404 
L 208.565977 102.936127 
L 213.64427 102.276245 
L 218.692113 101.413813 
L 223.701429 100.350211 
L 228.664206 99.087141 
L 233.572504 97.626623 
L 238.418471 95.970993 
L 243.194354 94.122901 
L 247.892512 92.085303 
L 252.505431 89.861459 
L 257.02573 87.454925 
L 261.446177 84.869553 
L 265.759701 82.109479 
L 269.959401 79.179117 
L 274.038558 76.083156 
L 277.990648 72.826548 
L 281.809346 69.414504 
L 285.488545 65.852482 
L 287.624414 63.648 
L 291.217165 67.297197 
L 294.952972 70.799804 
L 298.825857 74.150216 
L 302.829624 77.343075 
L 306.95787 80.373271 
L 311.651856 83.523731 
L 311.986712 88.633757 
L 312.525647 93.726306 
L 313.267798 98.79323 
L 314.211978 103.826422 
L 315.356677 108.817831 
L 316.700064 113.759472 
L 318.239989 118.643439 
L 319.973989 123.461919 
L 321.899289 128.207202 
L 324.012811 132.871699 
L 326.311172 137.447946 
L 328.790695 141.928623 
L 331.447414 146.306562 
L 334.27708 150.574758 
L 337.275164 154.726383 
L 340.43687 158.754796 
L 343.757141 162.653553 
L 347.230665 166.416415 
L 350.851885 170.037364 
L 354.615008 173.510606 
L 358.514013 176.830585 
L 361.497675 179.196779 
L 356.726172 177.337407 
L 351.884131 175.670332 
L 346.979298 174.198221 
L 342.019519 172.923428 
L 337.012729 171.847994 
L 331.966939 170.973637 
L 326.890219 170.301758 
L 321.790693 169.833431 
L 316.676517 169.569405 
L 311.555874 169.510103 
L 306.436956 169.655619 
L 301.327951 170.005721 
L 296.237033 170.559849 
L 291.172346 171.317116 
L 287.312538 172.034454 
L 287.312538 172.034454 
" style="fill:none;stroke:#1f77b4;stroke-linecap:square;stroke-width:1.5;"/>
   </g>
   <g id="patch_4">
    <path d="M 82.520165 307.584 
L 82.520165 41.472 
" style="fill:none;stroke:#000000;stroke-linecap:square;stroke-linejoin:miter;stroke-width:0.8;"/>
   </g>
   <g id="patch_5">
    <path d="M 389.799835 307.584 
L 389.799835 41.472 
" style="fill:none;stroke:#000000;stroke-linecap:square;stroke-linejoin:miter;stroke-width:0.8;"/>
   </g>
   <g id="patch_6">
    <path d="M 82.520165 307.584 
L 389.799835 307.584 
" style="fill:none;stroke:#000000;stroke-linecap:square;stroke-linejoin:miter;stroke-width:0.8;"/>
   </g>
   <g id="patch_7">
    <path d="M 82.520165 41.472 
L 389.799835 41.472 
" style="fill:none;stroke:#000000;stroke-linecap:square;stroke-linejoin:miter;stroke-width:0.8;"/>
   </g>
  </g>
 </g>
 <defs>
  <clipPath id="p5b3de7f556">
   <rect height="266.112" width="307.27967" x="82.520165" y="41.472"/>
  </clipPath>
 </defs>
</svg>
