<?xml version="1.0" encoding="utf-8" standalone="no"?>
<!DOCTYPE svg PUBLIC "-//W3C//DTD SVG 1.1//EN"
  "http://www.w3.org/Graphics/SVG/1.1/DTD/svg11.dtd">
<!-- Created with matplotlib (https://matplotlib.org/) -->
<svg height="345.6pt" version="1.1" viewBox="0 0 460.8 345.6" width="460.8pt" xmlns="http://www.w3.org/2000/svg" xmlns:xlink="http://www.w3.org/1999/xlink">
 <defs>
  <style type="text/css">
*{stroke-linecap:butt;stroke-linejoin:round;}
  </style>
 </defs>
 <g id="figure_1">
  <g id="patch_1">
   <path d="M 0 345.6 
L 460.8 345.6 
L 460.8 0 
L 0 0 
z
" style="fill:#ffffff;"/>
  </g>
  <g id="axes_1">
   <g id="patch_2">
    <path d="M 82.520165 307.584 
L 389.799835 307.584 
L 389.799835 41.472 
L 82.520165 41.472 
z
" style="fill:#ffffff;"/>
   </g>
   <g id="patch_3">
    <path clip-path="url(#p591379b429)" d="M 236.16 225.741278 
C 249.74192 225.741278 262.769389 220.345124 272.373256 210.741256 
C 281.977124 201.137389 287.373278 188.10992 287.373278 174.528 
C 287.373278 160.94608 281.977124 147.918611 272.373256 138.314744 
C 262.769389 128.710876 249.74192 123.314722 236.16 123.314722 
C 222.57808 123.314722 209.550611 128.710876 199.946744 138.314744 
C 190.342876 147.918611 184.946722 160.94608 184.946722 174.528 
C 184.946722 188.10992 190.342876 201.137389 199.946744 210.741256 
C 209.550611 220.345124 222.57808 225.741278 236.16 225.741278 
z
" style="fill:#009900;fill-opacity:0.5;stroke:#009900;stroke-linejoin:miter;stroke-width:2;"/>
   </g>
   <g id="matplotlib.axis_1">
    <g id="xtick_1">
     <g id="line2d_1">
      <defs>
       <path d="M 0 0 
L 0 3.5 
" id="m33c9fc5fc2" style="stroke:#000000;stroke-width:0.8;"/>
      </defs>
      <g>
       <use style="stroke:#000000;stroke-width:0.8;" x="108.126804" xlink:href="#m33c9fc5fc2" y="307.584"/>
      </g>
     </g>
     <g id="text_1">
      <!-- −2 -->
      <defs>
       <path d="M 10.59375 35.5 
L 73.1875 35.5 
L 73.1875 27.203125 
L 10.59375 27.203125 
z
" id="DejaVuSans-8722"/>
       <path d="M 19.1875 8.296875 
L 53.609375 8.296875 
L 53.609375 0 
L 7.328125 0 
L 7.328125 8.296875 
Q 12.9375 14.109375 22.625 23.890625 
Q 32.328125 33.6875 34.8125 36.53125 
Q 39.546875 41.84375 41.421875 45.53125 
Q 43.3125 49.21875 43.3125 52.78125 
Q 43.3125 58.59375 39.234375 62.25 
Q 35.15625 65.921875 28.609375 65.921875 
Q 23.96875 65.921875 18.8125 64.3125 
Q 13.671875 62.703125 7.8125 59.421875 
L 7.8125 69.390625 
Q 13.765625 71.78125 18.9375 73 
Q 24.125 74.21875 28.421875 74.21875 
Q 39.75 74.21875 46.484375 68.546875 
Q 53.21875 62.890625 53.21875 53.421875 
Q 53.21875 48.921875 51.53125 44.890625 
Q 49.859375 40.875 45.40625 35.40625 
Q 44.1875 33.984375 37.640625 27.21875 
Q 31.109375 20.453125 19.1875 8.296875 
z
" id="DejaVuSans-50"/>
      </defs>
      <g transform="translate(100.755711 322.182437)scale(0.1 -0.1)">
       <use xlink:href="#DejaVuSans-8722"/>
       <use x="83.789062" xlink:href="#DejaVuSans-50"/>
      </g>
     </g>
    </g>
    <g id="xtick_2">
     <g id="line2d_2">
      <g>
       <use style="stroke:#000000;stroke-width:0.8;" x="172.143402" xlink:href="#m33c9fc5fc2" y="307.584"/>
      </g>
     </g>
     <g id="text_2">
      <!-- −1 -->
      <defs>
       <path d="M 12.40625 8.296875 
L 28.515625 8.296875 
L 28.515625 63.921875 
L 10.984375 60.40625 
L 10.984375 69.390625 
L 28.421875 72.90625 
L 38.28125 72.90625 
L 38.28125 8.296875 
L 54.390625 8.296875 
L 54.390625 0 
L 12.40625 0 
z
" id="DejaVuSans-49"/>
      </defs>
      <g transform="translate(164.772308 322.182437)scale(0.1 -0.1)">
       <use xlink:href="#DejaVuSans-8722"/>
       <use x="83.789062" xlink:href="#DejaVuSans-49"/>
      </g>
     </g>
    </g>
    <g id="xtick_3">
     <g id="line2d_3">
      <g>
       <use style="stroke:#000000;stroke-width:0.8;" x="236.16" xlink:href="#m33c9fc5fc2" y="307.584"/>
      </g>
     </g>
     <g id="text_3">
      <!-- 0 -->
      <defs>
       <path d="M 31.78125 66.40625 
Q 24.171875 66.40625 20.328125 58.90625 
Q 16.5 51.421875 16.5 36.375 
Q 16.5 21.390625 20.328125 13.890625 
Q 24.171875 6.390625 31.78125 6.390625 
Q 39.453125 6.390625 43.28125 13.890625 
Q 47.125 21.390625 47.125 36.375 
Q 47.125 51.421875 43.28125 58.90625 
Q 39.453125 66.40625 31.78125 66.40625 
z
M 31.78125 74.21875 
Q 44.046875 74.21875 50.515625 64.515625 
Q 56.984375 54.828125 56.984375 36.375 
Q 56.984375 17.96875 50.515625 8.265625 
Q 44.046875 -1.421875 31.78125 -1.421875 
Q 19.53125 -1.421875 13.0625 8.265625 
Q 6.59375 17.96875 6.59375 36.375 
Q 6.59375 54.828125 13.0625 64.515625 
Q 19.53125 74.21875 31.78125 74.21875 
z
" id="DejaVuSans-48"/>
      </defs>
      <g transform="translate(232.97875 322.182437)scale(0.1 -0.1)">
       <use xlink:href="#DejaVuSans-48"/>
      </g>
     </g>
    </g>
    <g id="xtick_4">
     <g id="line2d_4">
      <g>
       <use style="stroke:#000000;stroke-width:0.8;" x="300.176598" xlink:href="#m33c9fc5fc2" y="307.584"/>
      </g>
     </g>
     <g id="text_4">
      <!-- 1 -->
      <g transform="translate(296.995348 322.182437)scale(0.1 -0.1)">
       <use xlink:href="#DejaVuSans-49"/>
      </g>
     </g>
    </g>
    <g id="xtick_5">
     <g id="line2d_5">
      <g>
       <use style="stroke:#000000;stroke-width:0.8;" x="364.193196" xlink:href="#m33c9fc5fc2" y="307.584"/>
      </g>
     </g>
     <g id="text_5">
      <!-- 2 -->
      <g transform="translate(361.011946 322.182437)scale(0.1 -0.1)">
       <use xlink:href="#DejaVuSans-50"/>
      </g>
     </g>
    </g>
   </g>
   <g id="matplotlib.axis_2">
    <g id="ytick_1">
     <g id="line2d_6">
      <defs>
       <path d="M 0 0 
L -3.5 0 
" id="mc86ec01a2a" style="stroke:#000000;stroke-width:0.8;"/>
      </defs>
      <g>
       <use style="stroke:#000000;stroke-width:0.8;" x="82.520165" xlink:href="#mc86ec01a2a" y="302.561196"/>
      </g>
     </g>
     <g id="text_6">
      <!-- −2.0 -->
      <defs>
       <path d="M 10.6875 12.40625 
L 21 12.40625 
L 21 0 
L 10.6875 0 
z
" id="DejaVuSans-46"/>
      </defs>
      <g transform="translate(51.237353 306.360414)scale(0.1 -0.1)">
       <use xlink:href="#DejaVuSans-8722"/>
       <use x="83.789062" xlink:href="#DejaVuSans-50"/>
       <use x="147.412109" xlink:href="#DejaVuSans-46"/>
       <use x="179.199219" xlink:href="#DejaVuSans-48"/>
      </g>
     </g>
    </g>
    <g id="ytick_2">
     <g id="line2d_7">
      <g>
       <use style="stroke:#000000;stroke-width:0.8;" x="82.520165" xlink:href="#mc86ec01a2a" y="270.552897"/>
      </g>
     </g>
     <g id="text_7">
      <!-- −1.5 -->
      <defs>
       <path d="M 10.796875 72.90625 
L 49.515625 72.90625 
L 49.515625 64.59375 
L 19.828125 64.59375 
L 19.828125 46.734375 
Q 21.96875 47.46875 24.109375 47.828125 
Q 26.265625 48.1875 28.421875 48.1875 
Q 40.625 48.1875 47.75 41.5 
Q 54.890625 34.8125 54.890625 23.390625 
Q 54.890625 11.625 47.5625 5.09375 
Q 40.234375 -1.421875 26.90625 -1.421875 
Q 22.3125 -1.421875 17.546875 -0.640625 
Q 12.796875 0.140625 7.71875 1.703125 
L 7.71875 11.625 
Q 12.109375 9.234375 16.796875 8.0625 
Q 21.484375 6.890625 26.703125 6.890625 
Q 35.15625 6.890625 40.078125 11.328125 
Q 45.015625 15.765625 45.015625 23.390625 
Q 45.015625 31 40.078125 35.4375 
Q 35.15625 39.890625 26.703125 39.890625 
Q 22.75 39.890625 18.8125 39.015625 
Q 14.890625 38.140625 10.796875 36.28125 
z
" id="DejaVuSans-53"/>
      </defs>
      <g transform="translate(51.237353 274.352116)scale(0.1 -0.1)">
       <use xlink:href="#DejaVuSans-8722"/>
       <use x="83.789062" xlink:href="#DejaVuSans-49"/>
       <use x="147.412109" xlink:href="#DejaVuSans-46"/>
       <use x="179.199219" xlink:href="#DejaVuSans-53"/>
      </g>
     </g>
    </g>
    <g id="ytick_3">
     <g id="line2d_8">
      <g>
       <use style="stroke:#000000;stroke-width:0.8;" x="82.520165" xlink:href="#mc86ec01a2a" y="238.544598"/>
      </g>
     </g>
     <g id="text_8">
      <!-- −1.0 -->
      <g transform="translate(51.237353 242.343817)scale(0.1 -0.1)">
       <use xlink:href="#DejaVuSans-8722"/>
       <use x="83.789062" xlink:href="#DejaVuSans-49"/>
       <use x="147.412109" xlink:href="#DejaVuSans-46"/>
       <use x="179.199219" xlink:href="#DejaVuSans-48"/>
      </g>
     </g>
    </g>
    <g id="ytick_4">
     <g id="line2d_9">
      <g>
       <use style="stroke:#000000;stroke-width:0.8;" x="82.520165" xlink:href="#mc86ec01a2a" y="206.536299"/>
      </g>
     </g>
     <g id="text_9">
      <!-- −0.5 -->
      <g transform="translate(51.237353 210.335518)scale(0.1 -0.1)">
       <use xlink:href="#DejaVuSans-8722"/>
       <use x="83.789062" xlink:href="#DejaVuSans-48"/>
       <use x="147.412109" xlink:href="#DejaVuSans-46"/>
       <use x="179.199219" xlink:href="#DejaVuSans-53"/>
      </g>
     </g>
    </g>
    <g id="ytick_5">
     <g id="line2d_10">
      <g>
       <use style="stroke:#000000;stroke-width:0.8;" x="82.520165" xlink:href="#mc86ec01a2a" y="174.528"/>
      </g>
     </g>
     <g id="text_10">
      <!-- 0.0 -->
      <g transform="translate(59.61704 178.327219)scale(0.1 -0.1)">
       <use xlink:href="#DejaVuSans-48"/>
       <use x="63.623047" xlink:href="#DejaVuSans-46"/>
       <use x="95.410156" xlink:href="#DejaVuSans-48"/>
      </g>
     </g>
    </g>
    <g id="ytick_6">
     <g id="line2d_11">
      <g>
       <use style="stroke:#000000;stroke-width:0.8;" x="82.520165" xlink:href="#mc86ec01a2a" y="142.519701"/>
      </g>
     </g>
     <g id="text_11">
      <!-- 0.5 -->
      <g transform="translate(59.61704 146.31892)scale(0.1 -0.1)">
       <use xlink:href="#DejaVuSans-48"/>
       <use x="63.623047" xlink:href="#DejaVuSans-46"/>
       <use x="95.410156" xlink:href="#DejaVuSans-53"/>
      </g>
     </g>
    </g>
    <g id="ytick_7">
     <g id="line2d_12">
      <g>
       <use style="stroke:#000000;stroke-width:0.8;" x="82.520165" xlink:href="#mc86ec01a2a" y="110.511402"/>
      </g>
     </g>
     <g id="text_12">
      <!-- 1.0 -->
      <g transform="translate(59.61704 114.310621)scale(0.1 -0.1)">
       <use xlink:href="#DejaVuSans-49"/>
       <use x="63.623047" xlink:href="#DejaVuSans-46"/>
       <use x="95.410156" xlink:href="#DejaVuSans-48"/>
      </g>
     </g>
    </g>
    <g id="ytick_8">
     <g id="line2d_13">
      <g>
       <use style="stroke:#000000;stroke-width:0.8;" x="82.520165" xlink:href="#mc86ec01a2a" y="78.503103"/>
      </g>
     </g>
     <g id="text_13">
      <!-- 1.5 -->
      <g transform="translate(59.61704 82.302322)scale(0.1 -0.1)">
       <use xlink:href="#DejaVuSans-49"/>
       <use x="63.623047" xlink:href="#DejaVuSans-46"/>
       <use x="95.410156" xlink:href="#DejaVuSans-53"/>
      </g>
     </g>
    </g>
    <g id="ytick_9">
     <g id="line2d_14">
      <g>
       <use style="stroke:#000000;stroke-width:0.8;" x="82.520165" xlink:href="#mc86ec01a2a" y="46.494804"/>
      </g>
     </g>
     <g id="text_14">
      <!-- 2.0 -->
      <g transform="translate(59.61704 50.294023)scale(0.1 -0.1)">
       <use xlink:href="#DejaVuSans-50"/>
       <use x="63.623047" xlink:href="#DejaVuSans-46"/>
       <use x="95.410156" xlink:href="#DejaVuSans-48"/>
      </g>
     </g>
    </g>
   </g>
   <g id="line2d_15">
    <path clip-path="url(#p591379b429)" d="M 300.176598 63.648 
L 172.143402 63.648 
" style="fill:none;stroke:#009900;stroke-linecap:square;stroke-width:2;"/>
   </g>
   <g id="line2d_16">
    <path clip-path="url(#p591379b429)" d="M 172.143402 63.648 
L 108.126804 174.528 
" style="fill:none;stroke:#009900;stroke-linecap:square;stroke-width:2;"/>
   </g>
   <g id="line2d_17">
    <path clip-path="url(#p591379b429)" d="M 108.126804 174.528 
L 172.143402 285.408 
" style="fill:none;stroke:#009900;stroke-linecap:square;stroke-width:2;"/>
   </g>
   <g id="line2d_18">
    <path clip-path="url(#p591379b429)" d="M 172.143402 285.408 
L 300.176598 285.408 
" style="fill:none;stroke:#009900;stroke-linecap:square;stroke-width:2;"/>
   </g>
   <g id="line2d_19">
    <path clip-path="url(#p591379b429)" d="M 300.176598 285.408 
L 364.193196 174.528 
" style="fill:none;stroke:#009900;stroke-linecap:square;stroke-width:2;"/>
   </g>
   <g id="line2d_20">
    <path clip-path="url(#p591379b429)" d="M 364.193196 174.528 
L 300.176598 63.648 
" style="fill:none;stroke:#009900;stroke-linecap:square;stroke-width:2;"/>
   </g>
   <g id="line2d_21">
    <path clip-path="url(#p591379b429)" d="M 306.164757 232.250654 
L 310.33394 229.277035 
L 314.380876 226.139072 
L 318.29909 222.841784 
L 322.082313 219.390448 
L 325.724493 215.790583 
L 329.219804 212.04795 
L 332.562653 208.168535 
L 335.747693 204.158545 
L 338.769829 200.024395 
L 341.624225 195.772698 
L 344.306316 191.410257 
L 346.81181 186.944051 
L 349.1367 182.381224 
L 351.277265 177.729076 
L 353.230082 172.995049 
L 354.992026 168.186717 
L 356.560279 163.311773 
L 356.950631 161.983511 
L 351.956643 160.85012 
L 346.921325 159.917341 
L 341.852733 159.186668 
L 336.758977 158.659269 
L 331.648205 158.335987 
L 326.528593 158.217341 
L 321.408332 158.303519 
L 316.295613 158.594384 
L 311.198614 159.089471 
L 306.125491 159.787987 
L 301.08436 160.688816 
L 296.083284 161.790515 
L 291.130264 163.091323 
L 286.389479 164.538038 
L 291.486341 164.04155 
L 296.559271 163.34164 
L 301.600156 162.439426 
L 306.600929 161.336353 
L 311.55359 160.034184 
L 316.450218 158.535003 
L 321.282977 156.841209 
L 326.044137 154.95551 
L 330.72608 152.880925 
L 335.321318 150.620771 
L 339.822497 148.178664 
L 344.222418 145.558512 
L 346.593782 144.044922 
L 346.023211 144.335198 
L 341.512339 146.759354 
L 337.102015 149.361958 
L 332.799295 152.138845 
L 328.611063 155.085575 
L 324.544019 158.197432 
L 320.60467 161.469438 
L 316.799316 164.896359 
L 313.134047 168.472713 
L 309.614726 172.192777 
L 306.246982 176.050601 
L 303.036204 180.040013 
L 299.987529 184.154631 
L 297.105833 188.387872 
L 294.395726 192.732964 
L 291.861545 197.182955 
L 289.507342 201.730728 
L 287.336886 206.369005 
L 285.353647 211.090368 
L 283.560798 215.887262 
L 281.961209 220.752015 
L 280.557437 225.676842 
L 279.351728 230.653866 
L 278.346012 235.675125 
L 277.541897 240.732585 
L 276.94067 245.818155 
L 276.543292 250.9237 
L 276.350399 256.041053 
L 276.3623 261.162025 
L 276.578976 266.278426 
L 277.00008 271.382069 
L 277.624939 276.46479 
L 278.452552 281.518458 
L 279.232163 285.408 
L 280.21594 280.382397 
L 280.99796 275.321474 
L 281.576971 270.233326 
L 281.952048 265.126094 
L 282.122589 260.007948 
L 282.088323 254.887076 
L 281.849304 249.771671 
L 281.405915 244.669915 
L 280.758864 239.589972 
L 279.909188 234.539967 
L 278.858245 229.527979 
L 277.607716 224.562027 
L 276.159603 219.650055 
L 274.516221 214.799921 
L 272.798507 210.310952 
L 277.625302 212.021669 
L 282.516647 213.537996 
L 287.464716 214.85751 
L 292.461593 215.978097 
L 297.499286 216.897967 
L 302.569733 217.615647 
L 307.664824 218.129989 
L 312.776408 218.44017 
L 317.896307 218.545695 
L 323.016331 218.446393 
L 328.128288 218.142425 
L 333.224 217.634276 
L 338.295316 216.922759 
L 339.868379 216.659819 
L 338.0082 211.888631 
L 335.958714 207.195646 
L 333.723197 202.588373 
L 331.305226 198.074182 
L 328.70867 193.660295 
L 325.937683 189.353773 
L 322.996697 185.161505 
L 319.890418 181.090199 
L 316.623815 177.146368 
L 313.202113 173.336321 
L 309.630787 169.666153 
L 305.915551 166.141736 
L 302.062347 162.768707 
L 298.07734 159.552464 
L 293.966905 156.498151 
L 289.737618 153.610655 
L 285.396245 150.894595 
L 280.949731 148.354316 
L 279.808459 147.739722 
L 279.608633 142.622635 
L 279.204337 137.517633 
L 278.596219 132.432882 
L 277.785251 127.376517 
L 276.772732 122.356625 
L 275.56028 117.38124 
L 274.149836 112.458319 
L 272.543655 107.595739 
L 270.744309 102.801278 
L 268.754674 98.082607 
L 266.577934 93.447275 
L 264.217571 88.902697 
L 261.677362 84.456143 
L 258.96137 80.114728 
L 256.07394 75.885396 
L 253.019692 71.774913 
L 249.803511 67.789855 
L 246.166731 63.648 
L 242.782011 67.490938 
L 239.553675 71.466155 
L 236.486888 75.567291 
L 233.586556 79.787785 
L 230.857318 84.120886 
L 228.303541 88.559662 
L 225.92931 93.09701 
L 223.738425 97.725673 
L 221.734388 102.438246 
L 219.920408 107.227189 
L 218.299385 112.084841 
L 216.873913 117.003432 
L 215.646273 121.975091 
L 214.618427 126.991867 
L 214.408323 128.163526 
L 209.915923 125.705307 
L 205.328814 123.428702 
L 200.654334 121.337353 
L 195.899961 119.434606 
L 191.073302 117.723506 
L 186.182078 116.206789 
L 181.234114 114.886882 
L 176.237326 113.765897 
L 171.199707 112.845627 
L 166.129317 112.127543 
L 161.034266 111.612796 
L 155.922707 111.302208 
L 150.802817 111.196277 
L 145.682785 111.295171 
L 144.607256 111.342004 
L 147.043841 115.846175 
L 149.658595 120.249306 
L 152.447336 124.544353 
L 155.405603 128.724444 
L 158.528662 132.782892 
L 161.811518 136.713205 
L 165.248919 140.509095 
L 168.835365 144.164489 
L 172.565119 147.673539 
L 176.432214 151.030633 
L 180.430464 154.230398 
L 184.553472 157.267717 
L 187.307163 159.159195 
L 182.186178 159.155316 
L 177.069134 159.356225 
L 171.964217 159.761601 
L 166.879595 160.370794 
L 161.823401 161.182831 
L 156.803724 162.196412 
L 151.828595 163.409916 
L 146.905973 164.821401 
L 142.043732 166.428609 
L 137.249652 168.22897 
L 132.531402 170.219603 
L 127.89653 172.397323 
L 123.352451 174.758647 
L 118.906435 177.299796 
L 114.565594 180.016706 
L 112.207801 181.596494 
L 112.784712 181.319032 
L 117.348593 178.996212 
L 121.815936 176.492744 
L 126.179593 173.812633 
L 130.432584 170.960166 
L 134.568105 167.939906 
L 138.57954 164.756685 
L 142.46047 161.415596 
L 146.204689 157.921983 
L 149.806206 154.281436 
L 153.259258 150.499779 
L 156.558323 146.583062 
L 159.698121 142.53755 
L 162.673631 138.369716 
L 165.480092 134.086227 
L 168.113014 129.693936 
L 170.568186 125.199869 
L 172.841678 120.611216 
L 174.929855 115.935319 
L 176.829376 111.179656 
L 178.537202 106.351838 
L 180.0506 101.459586 
L 181.367149 96.510727 
L 182.484744 91.51318 
L 183.401597 86.474938 
L 184.11624 81.404061 
L 184.62753 76.308663 
L 184.93465 71.196894 
L 185.037108 66.076933 
L 185.014088 63.648 
L 185.157777 72.607342 
L 185.521249 77.715413 
L 186.088698 82.804863 
L 186.859217 87.86755 
L 187.831573 92.895376 
L 189.00421 97.880295 
L 190.375254 102.814334 
L 191.942509 107.6896 
L 193.70347 112.498292 
L 195.655318 117.232718 
L 197.794931 121.885304 
L 200.118887 126.448606 
L 202.623468 130.915325 
L 204.610886 134.186294 
L 204.165721 133.726251 
L 200.522738 130.127198 
L 196.738746 126.676704 
L 192.819798 123.38029 
L 188.772163 120.243229 
L 184.602317 117.270539 
L 180.31693 114.466976 
L 175.922859 111.837026 
L 171.427132 109.384896 
L 166.836943 107.114508 
L 162.159633 105.029494 
L 157.402687 103.133191 
L 152.573714 101.428632 
L 150.682417 100.819516 
L 154.520954 104.209227 
L 158.491972 107.442726 
L 162.589119 110.51484 
L 166.805841 113.420655 
L 171.135392 116.155521 
L 175.570844 118.715064 
L 180.105104 121.095189 
L 184.730916 123.292088 
L 189.44088 125.302246 
L 194.227462 127.122448 
L 199.083004 128.749782 
L 203.999738 130.181645 
L 208.636294 131.339512 
L 209.603234 126.310643 
L 210.368299 121.247128 
L 210.930266 116.15707 
L 211.288235 111.04861 
L 211.441634 105.929922 
L 211.390217 100.809194 
L 211.134067 95.694618 
L 210.673593 90.594376 
L 210.009533 85.516628 
L 209.142947 80.469497 
L 208.075224 75.461057 
L 206.80807 70.499321 
L 205.343514 65.592227 
L 204.703457 63.648 
L 203.16064 68.531054 
L 201.814327 73.471899 
L 200.666673 78.462629 
L 199.719512 83.495262 
L 198.974361 88.561745 
L 198.432411 93.653973 
L 198.094529 98.763801 
L 197.961256 103.883053 
L 198.032805 109.003539 
L 198.309062 114.117069 
L 198.789585 119.215461 
L 199.473604 124.290559 
L 200.360026 129.334244 
L 201.447433 134.338447 
L 201.95906 136.408509 
L 197.129329 134.706098 
L 192.235384 133.198186 
L 187.285052 131.887186 
L 182.286255 130.775195 
L 177.246988 129.863993 
L 172.175313 129.155036 
L 167.079345 128.649459 
L 161.967235 128.34807 
L 156.847162 128.251353 
L 151.727317 128.359461 
L 146.61589 128.672223 
L 141.521059 129.189136 
L 136.450975 129.909375 
L 133.600827 130.405698 
L 135.404291 135.198612 
L 137.397977 139.915572 
L 139.578697 144.549034 
L 141.942962 149.091583 
L 144.486989 153.535953 
L 147.206708 157.875035 
L 150.097769 162.101886 
L 153.155546 166.209744 
L 156.375148 170.192038 
L 159.751424 174.042397 
L 163.278973 177.754661 
L 166.952151 181.322891 
L 170.765081 184.741379 
L 174.711665 188.004656 
L 178.785589 191.107502 
L 182.980334 194.044952 
L 187.289191 196.812307 
L 191.25465 199.151351 
L 191.087139 204.269597 
L 191.124437 209.390447 
L 191.366485 214.50571 
L 191.812895 219.607202 
L 192.462954 224.686762 
L 193.31562 229.736263 
L 194.369531 234.747627 
L 195.623 239.712838 
L 197.074022 244.623952 
L 198.720275 249.473112 
L 200.559126 254.25256 
L 202.587633 258.954651 
L 204.802551 263.571863 
L 207.200337 268.096807 
L 209.777154 272.522247 
L 212.52888 276.841101 
L 215.451114 281.046462 
L 218.757556 285.408 
L 221.856849 281.331373 
L 224.790641 277.134069 
L 227.55424 272.822802 
L 230.143223 268.404469 
L 232.553449 263.886138 
L 234.781062 259.275038 
L 236.822498 254.578546 
L 238.674492 249.804175 
L 240.334081 244.959562 
L 241.798609 240.052459 
L 243.065734 235.090716 
L 244.133428 230.08227 
L 245.009683 224.970869 
L 247.540284 229.422897 
L 250.246896 233.770167 
L 253.125186 238.005724 
L 256.170551 242.122793 
L 259.37812 246.114786 
L 262.742759 249.975317 
L 266.259088 253.698211 
L 269.921479 257.277511 
L 273.724075 260.707491 
L 277.660792 263.982664 
L 281.725333 267.097791 
L 285.911193 270.047888 
L 290.211678 272.828236 
L 294.619907 275.434386 
L 299.128829 277.862169 
L 303.341461 279.926295 
L 299.085984 277.077539 
L 294.71999 274.401236 
L 290.250465 271.901666 
L 285.684559 269.582829 
L 281.029577 267.448435 
L 276.292965 265.501897 
L 271.482301 263.74633 
L 266.605281 262.184543 
L 261.669707 260.819034 
L 256.683476 259.651987 
L 251.654563 258.68527 
L 246.591015 257.920429 
L 241.500932 257.358688 
L 236.392456 257.000946 
L 231.273761 256.847773 
L 226.153035 256.899417 
L 221.03847 257.155794 
L 215.938249 257.616494 
L 210.860531 258.280779 
L 205.813438 259.147588 
L 200.805046 260.215534 
L 195.843366 261.482907 
L 190.936336 262.947681 
L 186.091807 264.607512 
L 181.317529 266.459745 
L 176.621139 268.501417 
L 172.01015 270.729261 
L 167.49194 273.139713 
L 165.662643 274.182995 
L 169.5102 271.886245 
L 173.805841 269.098419 
L 177.986563 266.141044 
L 182.045676 263.01885 
L 185.976689 259.736832 
L 189.773311 256.30024 
L 193.42947 252.714573 
L 196.939316 248.985567 
L 200.297233 245.119188 
L 203.497851 241.12162 
L 206.536048 236.999259 
L 209.406965 232.758701 
L 212.106008 228.406728 
L 214.62886 223.950303 
L 215.888101 221.558309 
L 215.676165 222.162374 
L 214.089934 227.031499 
L 212.699686 231.960161 
L 211.507643 236.940476 
L 210.515713 241.964476 
L 209.725483 247.024124 
L 209.138217 252.111326 
L 208.754855 257.217943 
L 208.576009 262.335805 
L 208.601967 267.456726 
L 208.832686 272.572512 
L 209.267797 277.67498 
L 209.906604 282.755967 
L 210.322494 285.408 
L 211.067688 280.341523 
L 211.60968 275.249299 
L 211.947604 270.139474 
L 212.080919 265.020223 
L 212.009412 259.899736 
L 211.733197 254.786204 
L 211.252717 249.687809 
L 210.568739 244.612705 
L 209.682359 239.569013 
L 208.594994 234.564801 
L 207.308383 229.608074 
L 205.824585 224.706764 
L 204.145974 219.86871 
L 202.275236 215.101652 
L 200.706066 211.484981 
L 195.919237 209.665428 
L 191.063475 208.038752 
L 186.146547 206.607557 
L 181.176319 205.374131 
L 176.160743 204.340447 
L 171.107843 203.50816 
L 166.025702 202.878601 
L 160.922451 202.452777 
L 155.806253 202.231369 
L 150.685293 202.214732 
L 145.567765 202.402892 
L 140.461854 202.795547 
L 135.37573 203.392071 
L 130.317528 204.191508 
L 125.771071 205.088767 
L 129.134456 201.227143 
L 132.340727 197.234108 
L 135.384755 193.11605 
L 138.261669 188.879558 
L 140.966867 184.531408 
L 143.496022 180.078558 
L 145.845087 175.52813 
L 148.010305 170.887404 
L 149.988211 166.163805 
L 151.775642 161.364889 
L 153.369737 156.498334 
L 154.767947 151.571924 
L 155.968035 146.593542 
L 156.96808 141.571151 
L 157.766484 136.512786 
L 158.361968 131.42654 
L 158.753581 126.320549 
L 158.940695 121.202982 
L 158.923011 116.082027 
L 158.700557 110.965874 
L 158.27369 105.86271 
L 157.643093 100.780697 
L 156.809773 95.727967 
L 155.982202 91.640019 
L 160.830894 89.992388 
L 165.60982 88.152179 
L 170.311335 86.122336 
L 174.927917 83.906106 
L 179.45218 81.507035 
L 183.876887 78.928961 
L 188.19496 76.176008 
L 192.39949 73.252579 
L 196.48375 70.163353 
L 200.441208 66.913272 
L 204.113768 63.648 
L 207.943587 67.047557 
L 211.906289 70.291243 
L 215.995533 73.373868 
L 220.204779 76.290501 
L 224.527293 79.036477 
L 228.956158 81.607401 
L 233.48429 83.999162 
L 238.104446 86.207932 
L 242.809233 88.230179 
L 247.591124 90.062667 
L 252.442471 91.702464 
L 257.355512 93.146948 
L 262.322387 94.393807 
L 267.33515 95.441047 
L 272.385781 96.286991 
L 277.466201 96.930288 
L 282.568283 97.369908 
L 287.683864 97.605147 
L 292.804759 97.635629 
L 297.922778 97.461306 
L 303.029731 97.082456 
L 308.11745 96.499685 
L 313.177794 95.713927 
L 318.128977 94.742433 
L 314.763621 98.602339 
L 311.555312 102.593737 
L 308.509182 106.71024 
L 305.630105 110.945263 
L 302.922688 115.292031 
L 300.39126 119.743589 
L 298.039871 124.292817 
L 295.872285 128.932437 
L 293.891967 133.655025 
L 292.102086 138.453028 
L 290.505507 143.318769 
L 289.104782 148.244464 
L 287.902152 153.222233 
L 286.899543 158.244113 
L 286.109661 163.22175 
L 289.013407 167.439896 
L 292.083512 171.53855 
L 295.315063 175.511153 
L 298.702892 179.351351 
L 302.241577 183.053 
L 305.925458 186.610179 
L 309.748642 190.017196 
L 313.705012 193.268602 
L 317.788239 196.359194 
L 321.99179 199.284029 
L 326.308942 202.038427 
L 330.732786 204.617981 
L 335.256247 207.018566 
L 339.872087 209.23634 
L 343.289066 210.735015 
L 339.146463 207.724477 
L 334.886784 204.882006 
L 330.516844 202.212151 
L 326.043634 199.719183 
L 321.474309 197.407089 
L 316.816181 195.279569 
L 312.0767 193.340026 
L 307.26345 191.591564 
L 302.384129 190.036979 
L 297.446545 188.678757 
L 292.458596 187.519073 
L 287.428262 186.559782 
L 285.996134 186.324592 
L 286.606705 186.516986 
L 291.524338 187.945757 
L 296.495173 189.176733 
L 301.511258 190.207943 
L 306.564568 191.037739 
L 311.647018 191.664793 
L 316.750479 192.088101 
L 321.866785 192.306986 
L 326.987752 192.321099 
L 332.105188 192.130417 
L 337.210904 191.735244 
L 342.296734 191.136213 
L 347.35454 190.334282 
L 352.376233 189.330735 
L 356.164607 188.433924 
L 354.671094 183.535565 
L 352.982894 178.700848 
L 351.102707 173.937509 
L 349.033541 169.253168 
L 346.778707 164.655318 
L 344.341811 160.151315 
L 341.726753 155.748365 
L 338.937715 151.453511 
L 335.97916 147.273624 
L 332.85582 143.215392 
L 329.572693 139.285305 
L 326.13503 135.489653 
L 322.548332 131.834507 
L 318.818335 128.325713 
L 314.951008 124.968887 
L 310.952537 121.769398 
L 306.829319 118.732364 
L 302.587951 115.862644 
L 298.235216 113.164829 
L 293.77808 110.643235 
L 289.223672 108.301896 
L 284.579278 106.144557 
L 279.852329 104.17467 
L 275.050386 102.395387 
L 270.181132 100.809553 
L 265.252357 99.419706 
L 260.271945 98.228069 
L 255.247864 97.236549 
L 250.188152 96.446732 
L 245.100902 95.85988 
L 239.994254 95.476934 
L 234.876377 95.298506 
L 229.755459 95.324881 
L 224.639691 95.556017 
L 219.537258 95.991544 
L 214.456324 96.630766 
L 209.405015 97.472659 
L 204.391414 98.515878 
L 199.423541 99.758753 
L 194.509343 101.199295 
L 189.656683 102.835201 
L 184.873323 104.663853 
L 180.166915 106.682325 
L 175.54499 108.887389 
L 171.01494 111.275517 
L 166.584014 113.842889 
L 162.2593 116.585396 
L 158.047716 119.498652 
L 153.956 122.577997 
L 149.990698 125.818503 
L 146.158153 129.214987 
L 142.464497 132.762015 
L 138.915639 136.453913 
L 135.517256 140.284774 
L 132.274785 144.248469 
L 129.193414 148.338659 
L 126.278071 152.548799 
L 123.53342 156.872153 
L 120.963853 161.301807 
L 118.573481 165.830672 
L 116.366127 170.451504 
L 114.345322 175.156911 
L 112.5143 179.939364 
L 112.034346 181.296061 
L 117.08221 182.158368 
L 122.160519 182.818124 
L 127.26115 183.274274 
L 132.375941 183.526089 
L 137.496711 183.573165 
L 142.615268 183.415427 
L 147.723422 183.053127 
L 152.813002 182.486846 
L 157.875866 181.717489 
L 162.903914 180.746286 
L 167.889103 179.574792 
L 172.823456 178.204881 
L 177.699081 176.638744 
L 182.508177 174.878887 
L 184.950569 173.900298 
L 180.225636 171.92558 
L 175.425514 170.141389 
L 170.557884 168.550579 
L 165.630532 167.155694 
L 160.651341 165.958967 
L 155.628276 164.962311 
L 150.569373 164.167322 
L 145.482727 163.575271 
L 140.376473 163.187105 
L 135.258781 163.003445 
L 130.137838 163.024586 
L 125.021837 163.250492 
L 119.918962 163.680803 
L 114.837376 164.314831 
L 113.946919 164.447265 
L 115.905407 169.178948 
L 118.051544 173.828529 
L 120.381898 178.388567 
L 122.892741 182.851769 
L 125.580057 187.210993 
L 128.439545 191.459267 
L 131.466631 195.589793 
L 134.656474 199.595965 
L 138.003968 203.471372 
L 141.50376 207.209815 
L 145.150251 210.805314 
L 148.937606 214.252115 
L 152.859767 217.544706 
L 156.910459 220.677819 
L 161.083203 223.64644 
L 165.371321 226.445822 
L 169.767956 229.071486 
L 174.266071 231.519231 
L 178.858473 233.785142 
L 183.537813 235.865593 
L 188.296606 237.757256 
L 193.127239 239.457105 
L 198.021984 240.96242 
L 202.97301 242.270794 
L 207.972397 243.380133 
L 213.012147 244.288663 
L 218.084197 244.994929 
L 223.180432 245.497803 
L 228.292701 245.79648 
L 233.412825 245.890481 
L 238.532612 245.779657 
L 243.643872 245.464184 
L 248.738428 244.944568 
L 253.80813 244.22164 
L 258.844867 243.296556 
L 263.840582 242.170796 
L 268.787282 240.846161 
L 273.677055 239.324771 
L 278.502076 237.609059 
L 283.254628 235.70177 
L 287.927107 233.605955 
L 292.512039 231.324967 
L 297.002088 228.862455 
L 301.390071 226.222359 
L 305.668968 223.408903 
L 309.831935 220.426586 
L 313.87231 217.280181 
L 317.783632 213.974721 
L 321.559641 210.515493 
L 325.194298 206.908033 
L 328.681788 203.15811 
L 332.016531 199.271725 
L 335.193192 195.255094 
L 338.206691 191.114644 
L 341.052204 186.856998 
L 343.725182 182.488967 
L 346.221346 178.017539 
L 348.536705 173.449868 
L 350.667553 168.793262 
L 352.610483 164.055168 
L 354.362385 159.243169 
L 354.732872 158.142238 
L 349.697878 157.207711 
L 344.629541 156.475278 
L 339.535968 155.94611 
L 334.425308 155.621054 
L 329.305738 155.50063 
L 324.185447 155.58503 
L 319.072627 155.87412 
L 313.975457 156.367437 
L 308.902092 157.064191 
L 303.860648 157.963269 
L 298.85919 159.063232 
L 293.905719 160.36232 
L 289.00816 161.858454 
L 286.029796 162.874533 
L 291.102059 162.169794 
L 296.142082 161.262784 
L 301.141803 160.154951 
L 306.093223 158.848069 
L 310.988421 157.344229 
L 315.819566 155.645835 
L 320.578929 153.755606 
L 325.258896 151.676566 
L 329.85198 149.412039 
L 334.350833 146.965649 
L 338.748258 144.341311 
L 343.03722 141.543221 
L 344.546553 140.499016 
L 339.946135 142.748608 
L 335.439358 145.180368 
L 331.03343 147.790406 
L 326.735399 150.574546 
L 322.552143 153.528335 
L 318.490353 156.647047 
L 314.556527 159.925692 
L 310.756958 163.359026 
L 307.097726 166.941555 
L 303.584683 170.66755 
L 300.223451 174.531048 
L 297.019405 178.525869 
L 293.977673 182.645622 
L 291.103121 186.883717 
L 288.400346 191.233374 
L 285.873673 195.687633 
L 283.527144 200.239369 
L 281.364513 204.881301 
L 279.389239 209.606001 
L 277.604483 214.405913 
L 276.0131 219.273356 
L 274.617636 224.200544 
L 273.420323 229.179594 
L 272.423076 234.202542 
L 271.627492 239.26135 
L 271.034842 244.347928 
L 270.646075 249.454136 
L 270.461813 254.571806 
L 270.482351 259.692751 
L 270.707655 264.808779 
L 271.137366 269.911705 
L 271.770795 274.993365 
L 272.60693 280.04563 
L 273.724134 285.408 
L 274.775601 280.396122 
L 275.625804 275.346206 
L 276.273385 270.26633 
L 276.717307 265.164621 
L 276.95686 260.04924 
L 276.991661 254.928372 
L 276.821653 249.810208 
L 276.44711 244.702937 
L 275.86863 239.614729 
L 275.087139 234.553724 
L 274.103886 229.528018 
L 272.920445 224.545652 
L 271.53871 219.614597 
L 269.96089 214.74274 
L 269.491401 213.410099 
L 274.039191 215.764266 
L 278.677485 217.934688 
L 283.398863 219.917891 
L 288.195771 221.710703 
L 293.060535 223.310256 
L 297.985373 224.713991 
L 302.962406 225.919662 
L 307.983673 226.92534 
L 313.041139 227.729417 
L 318.126714 228.330606 
L 323.232262 228.727945 
L 328.349616 228.920799 
L 332.788648 228.922273 
L 330.21488 224.495059 
L 327.46613 220.17431 
L 324.546795 215.966937 
L 321.461544 211.879673 
L 318.215315 207.919054 
L 314.8133 204.091419 
L 311.260941 200.402889 
L 307.563922 196.859366 
L 303.728158 193.466519 
L 299.759784 190.229776 
L 295.665148 187.154314 
L 291.450803 184.245054 
L 286.912901 181.379488 
L 291.814294 179.895961 
L 296.65244 178.217616 
L 301.419601 176.34714 
L 306.108149 174.287524 
L 310.710584 172.042064 
L 315.219544 169.614352 
L 319.627814 167.008271 
L 323.928342 164.227991 
L 328.114249 161.27796 
L 332.178838 158.162897 
L 336.115607 154.887785 
L 339.918257 151.457865 
L 343.580705 147.878622 
L 346.828286 144.451095 
L 341.849737 145.65049 
L 336.923133 147.048014 
L 332.056356 148.641432 
L 327.257191 150.428195 
L 322.533317 152.405444 
L 317.89229 154.570016 
L 313.341535 156.918448 
L 308.888333 159.446983 
L 304.539807 162.151576 
L 300.302914 165.027901 
L 296.184433 168.071355 
L 292.190952 171.27707 
L 288.328859 174.639918 
L 287.363592 175.523986 
L 291.055905 179.072413 
L 294.887162 182.470348 
L 298.851237 185.712356 
L 302.941786 188.79325 
L 307.152266 191.708101 
L 311.475942 194.452247 
L 315.905895 197.021296 
L 320.435039 199.41114 
L 325.056129 201.617955 
L 329.761772 203.63821 
L 334.544439 205.468673 
L 339.39648 207.106417 
L 344.518637 208.605335 
L 340.818621 205.064942 
L 336.979987 201.675341 
L 333.008876 198.441957 
L 328.91164 195.369961 
L 324.694834 192.464268 
L 320.365205 189.729526 
L 315.929678 187.170111 
L 311.39535 184.790117 
L 306.769475 182.593352 
L 302.059452 180.583329 
L 297.272818 178.763265 
L 292.417229 177.136071 
L 287.360617 175.666732 
L 292.337551 174.460651 
L 297.262273 173.056511 
L 302.126906 171.456557 
L 306.923666 169.66335 
L 311.64488 167.679758 
L 316.282996 165.508955 
L 320.830592 163.154412 
L 325.280394 160.619898 
L 329.625283 157.909466 
L 333.858309 155.027453 
L 337.972698 151.97847 
L 341.96187 148.767394 
L 345.819442 145.399362 
L 346.83631 144.464992 
L 341.973135 146.069371 
L 337.178008 147.866942 
L 332.458601 149.854829 
L 327.822463 152.029852 
L 323.277011 154.388531 
L 318.829517 156.927094 
L 314.487095 159.641478 
L 310.256694 162.527341 
L 306.14508 165.580067 
L 302.158832 168.794771 
L 298.304326 172.166312 
L 294.587729 175.689295 
L 291.014987 179.358084 
L 287.591815 183.16681 
L 286.373161 184.599662 
L 287.991541 189.458195 
L 289.802917 194.248124 
L 291.80439 198.961786 
L 293.992758 203.59164 
L 296.364521 208.130279 
L 298.915883 212.570442 
L 301.642764 216.905027 
L 304.540801 221.127098 
L 307.605357 225.229901 
L 310.831531 229.206873 
L 314.21416 233.051652 
L 317.747834 236.758085 
L 321.426899 240.320245 
L 324.57337 243.151552 
L 319.698053 241.584455 
L 314.76397 240.213572 
L 309.779012 239.041097 
L 304.751155 238.068904 
L 299.688443 237.29855 
L 294.598974 236.731266 
L 289.490891 236.367961 
L 284.372366 236.209215 
L 279.251587 236.255283 
L 274.136746 236.50609 
L 269.036026 236.961236 
L 263.957587 237.619992 
L 258.909553 238.481304 
L 253.900001 239.543795 
L 248.936944 240.805765 
L 244.028322 242.265195 
L 239.181989 243.919749 
L 234.405696 245.766782 
L 229.707086 247.803339 
L 225.093674 250.02616 
L 220.572842 252.431691 
L 216.151822 255.016083 
L 211.837686 257.775201 
L 207.637336 260.704632 
L 203.557492 263.799688 
L 199.604681 267.055419 
L 195.785226 270.466617 
L 192.105238 274.027823 
L 188.570603 277.73334 
L 185.186977 281.577242 
L 182.073189 285.408 
L 178.840262 281.436516 
L 175.451104 277.597492 
L 171.911137 273.897068 
L 168.226024 270.341165 
L 164.40166 266.935472 
L 160.444164 263.685437 
L 158.918015 262.500957 
L 158.158476 257.436611 
L 157.197025 252.406689 
L 156.0352 247.419239 
L 154.67486 242.482238 
L 153.11818 237.603586 
L 151.367651 232.791086 
L 149.426074 228.052439 
L 147.296554 223.395224 
L 144.982499 218.826893 
L 142.487611 214.354753 
L 139.81588 209.985959 
L 136.971581 205.727501 
L 133.959265 201.586191 
L 130.78375 197.568654 
L 127.450116 193.681317 
L 123.963696 189.9304 
L 120.330069 186.321902 
L 116.555047 182.861597 
L 112.644669 179.555021 
L 109.681619 177.221017 
L 109.05103 172.927194 
L 113.805126 171.023757 
L 118.479302 168.931729 
L 123.06608 166.654457 
L 127.558123 164.195585 
L 131.948244 161.559045 
L 136.22942 158.749057 
L 140.394802 155.770115 
L 144.437726 152.626985 
L 148.351724 149.324695 
L 152.130535 145.868528 
L 155.768114 142.264014 
L 159.258641 138.516919 
L 162.596532 134.633237 
L 165.776448 130.619182 
L 168.7933 126.481175 
L 171.642263 122.225836 
L 174.318779 117.859972 
L 176.818566 113.390569 
L 179.137626 108.824776 
L 181.272247 104.169897 
L 183.219015 99.43338 
L 184.974815 94.622801 
L 186.53684 89.745857 
L 187.902589 84.81035 
L 189.069878 79.824176 
L 190.03684 74.79531 
L 190.801927 69.731799 
L 191.363916 64.641743 
L 191.449658 63.648 
L 191.503798 64.285872 
L 192.051581 69.377476 
L 192.802536 74.443102 
L 193.755461 79.474647 
L 194.908832 84.464059 
L 196.260803 89.403358 
L 197.809213 94.284642 
L 199.551583 99.100101 
L 201.485126 103.842032 
L 203.60675 108.502849 
L 205.913059 113.075096 
L 208.400365 117.551457 
L 211.064688 121.924772 
L 213.901765 126.188045 
L 215.079355 127.8546 
L 213.835437 122.886988 
L 212.393864 117.973092 
L 210.756939 113.120775 
L 208.927284 108.337799 
L 206.907823 103.631816 
L 204.701789 99.010353 
L 202.312711 94.480805 
L 199.744409 90.050418 
L 197.000994 85.726279 
L 194.086854 81.515307 
L 191.006651 77.424237 
L 187.765313 73.459615 
L 184.368024 69.627783 
L 180.820221 65.934872 
L 178.474246 63.648 
L 174.833115 67.248927 
L 171.338896 70.992579 
L 167.997178 74.872969 
L 164.813308 78.883888 
L 161.792378 83.018919 
L 158.939221 87.271448 
L 156.258403 91.634671 
L 153.754211 96.101608 
L 151.430653 100.665112 
L 149.291444 105.317885 
L 147.340008 110.052481 
L 145.579466 114.861326 
L 144.012635 119.736728 
L 142.642021 124.670886 
L 141.469817 129.655908 
L 140.497899 134.683817 
L 139.727821 139.746572 
L 139.160815 144.836071 
L 138.797788 149.944174 
L 138.639321 155.062708 
L 138.685668 160.183485 
L 138.936754 165.298312 
L 139.392178 170.399007 
L 140.051211 175.47741 
L 140.912799 180.525397 
L 141.975563 185.534891 
L 143.237803 190.497879 
L 144.697501 195.406421 
L 146.35232 200.252665 
L 148.199613 205.028857 
L 150.236426 209.727356 
L 152.459499 214.340646 
L 154.865276 218.861347 
L 157.449909 223.282227 
L 160.209263 227.596212 
L 163.138922 231.796402 
L 166.234201 235.876077 
L 169.490148 239.828711 
L 172.901553 243.64798 
L 176.46296 247.327774 
L 180.16867 250.862206 
L 184.012756 254.245623 
L 187.989068 257.47261 
L 192.091244 260.538006 
L 196.312722 263.436907 
L 200.646748 266.164675 
L 205.086389 268.716947 
L 209.624543 271.089638 
L 214.253948 273.278954 
L 218.967201 275.281391 
L 223.756759 277.093748 
L 228.614961 278.713123 
L 233.534034 280.136926 
L 238.50611 281.362881 
L 243.523234 282.389024 
L 248.577379 283.213716 
L 253.660461 283.835636 
L 258.764346 284.253789 
L 263.880871 284.467507 
L 269.00185 284.476447 
L 274.11909 284.280596 
L 279.224404 283.880266 
L 284.309627 283.276099 
L 289.366621 282.46906 
L 294.387297 281.460441 
L 299.363623 280.251855 
L 303.8966 278.964767 
L 302.636901 274.001133 
L 301.179718 269.091844 
L 299.527381 264.244754 
L 297.682534 259.467617 
L 295.648129 254.768075 
L 293.427418 250.153647 
L 291.023957 245.631714 
L 288.441588 241.209511 
L 285.684445 236.894113 
L 282.756937 232.692423 
L 279.663747 228.611163 
L 276.409826 224.656863 
L 273.000377 220.835847 
L 269.440855 217.15423 
L 267.364408 215.136925 
L 269.905424 219.583018 
L 272.622203 223.923941 
L 275.5104 228.152749 
L 278.565394 232.262678 
L 281.782297 236.247152 
L 285.155964 240.099797 
L 288.680997 243.81445 
L 292.351757 247.385167 
L 296.162371 250.806237 
L 300.106744 254.072187 
L 304.178564 257.177792 
L 308.371319 260.118082 
L 313.047621 263.114734 
L 311.354473 262.208371 
L 306.774924 259.916596 
L 302.107392 257.809787 
L 297.359343 255.891315 
L 292.538374 254.164249 
L 287.652197 252.631351 
L 282.708629 251.295075 
L 277.715578 250.157558 
L 272.681032 249.220619 
L 267.613046 248.485758 
L 262.519728 247.95415 
L 257.409225 247.626646 
L 252.289713 247.503769 
L 247.169382 247.585717 
L 242.056424 247.872358 
L 236.959018 248.363233 
L 231.88532 249.057557 
L 226.843445 249.95422 
L 221.841461 251.051786 
L 216.887368 252.348501 
L 211.989093 253.84229 
L 207.154472 255.530762 
L 202.391239 257.411217 
L 197.707014 259.480646 
L 193.109291 261.735739 
L 188.605425 264.172889 
L 184.202622 266.788195 
L 179.907925 269.577474 
L 175.728205 272.536265 
L 171.670148 275.659833 
L 168.187383 278.555974 
L 172.987607 276.772059 
L 177.712653 274.797612 
L 182.354963 272.635794 
L 186.907111 270.290062 
L 191.361812 267.764169 
L 195.711942 265.062156 
L 199.95054 262.188346 
L 204.070826 259.147335 
L 208.066208 255.943989 
L 211.930295 252.583434 
L 215.656904 249.071043 
L 219.240075 245.412438 
L 222.674074 241.613471 
L 225.953408 237.680219 
L 229.072831 233.618975 
L 232.027352 229.436236 
L 234.454168 225.712861 
L 236.97036 230.17305 
L 239.662899 234.52905 
L 242.527477 238.773892 
L 245.559513 242.900787 
L 248.754155 246.903132 
L 252.106293 250.774523 
L 255.610565 254.508768 
L 259.261363 258.099893 
L 263.052847 261.542152 
L 266.978952 264.830039 
L 271.033397 267.958293 
L 275.209696 270.921911 
L 279.501168 273.71615 
L 283.900946 276.336542 
L 288.401993 278.778893 
L 292.997108 281.039297 
L 297.678938 283.114137 
L 300.777824 284.366646 
L 296.720214 281.242498 
L 292.540917 278.28311 
L 288.246618 275.493216 
L 283.844189 272.877281 
L 279.340672 270.439488 
L 274.743271 268.183737 
L 270.059342 266.113638 
L 265.296378 264.232502 
L 260.461998 262.543339 
L 255.563937 261.04885 
L 250.61003 259.751427 
L 245.608202 258.653146 
L 240.566456 257.755762 
L 235.492857 257.060712 
L 230.395521 256.569109 
L 225.282605 256.281737 
L 220.162286 256.199058 
L 215.042756 256.321202 
L 209.932206 256.647976 
L 204.838812 257.178856 
L 199.770721 257.912992 
L 194.736041 258.849211 
L 189.742828 259.986015 
L 184.799069 261.321584 
L 179.912672 262.853783 
L 175.091456 264.58016 
L 170.343133 266.497953 
L 165.6753 268.604094 
L 163.15361 269.837224 
L 163.687706 269.484302 
L 167.895592 266.565707 
L 171.983399 263.481176 
L 175.944588 260.235643 
L 179.772822 256.834301 
L 183.461976 253.282591 
L 187.006149 249.586196 
L 190.399671 245.751028 
L 193.637112 241.783223 
L 196.713294 237.689128 
L 199.623295 233.475294 
L 202.362459 229.148462 
L 204.926406 224.715554 
L 207.311033 220.18366 
L 208.5424 217.656506 
L 205.335473 221.649014 
L 202.29077 225.766572 
L 199.41316 230.002592 
L 196.707248 234.350297 
L 194.177362 238.802732 
L 191.827549 243.352775 
L 189.661569 247.993145 
L 187.682888 252.716419 
L 185.894669 257.515041 
L 184.299775 262.381335 
L 182.900756 267.307515 
L 181.699851 272.2857 
L 180.698981 277.307927 
L 179.899746 282.36616 
L 179.518331 285.408 
L 178.840433 280.332081 
L 177.960095 275.28733 
L 176.878724 270.281819 
L 175.598052 265.323556 
L 174.120126 260.420471 
L 172.447311 255.58041 
L 170.582284 250.811115 
L 168.528027 246.120216 
L 166.287828 241.515218 
L 163.86527 237.003487 
L 161.264228 232.592242 
L 158.488865 228.288539 
L 155.543619 224.099264 
L 152.433202 220.031118 
L 149.162591 216.090609 
L 145.737018 212.284043 
L 142.161963 208.617507 
L 138.443146 205.096868 
L 134.586515 201.727759 
L 130.59824 198.515568 
L 126.484703 195.465435 
L 122.252483 192.58224 
L 117.908351 189.870595 
L 116.509974 189.048076 
L 116.39855 183.928302 
L 116.082479 178.817079 
L 115.562266 173.722584 
L 114.838743 168.652966 
L 114.046092 164.275492 
L 118.861695 162.533519 
L 123.603786 160.600367 
L 128.264778 158.479128 
L 132.837215 156.173196 
L 137.313781 153.686259 
L 141.687316 151.022297 
L 145.950823 148.185571 
L 150.09748 145.180619 
L 154.120654 142.012249 
L 158.01391 138.685529 
L 161.771017 135.205781 
L 165.385967 131.578573 
L 168.852976 127.809707 
L 172.166496 123.905212 
L 175.321229 119.871334 
L 178.312125 115.714528 
L 181.134402 111.441443 
L 183.783543 107.058914 
L 186.25531 102.573954 
L 188.54575 97.993737 
L 190.651198 93.325591 
L 192.568286 88.576983 
L 194.293946 83.75551 
L 195.825419 78.868887 
L 197.160254 73.924929 
L 198.296315 68.931547 
L 199.272621 63.648 
L 200.198178 68.68465 
L 201.324407 73.680259 
L 202.649506 78.626835 
L 204.171355 83.516465 
L 205.887521 88.341325 
L 207.795256 93.093698 
L 209.89151 97.76598 
L 212.172928 102.350698 
L 214.635861 106.840515 
L 217.276369 111.22825 
L 220.090228 115.506883 
L 223.072935 119.66957 
L 226.21972 123.70965 
L 226.627607 124.20968 
L 228.103397 119.305952 
L 229.38191 114.347131 
L 230.4611 109.341149 
L 231.339241 104.296016 
L 232.014928 99.219802 
L 232.48708 94.120628 
L 232.754941 89.006652 
L 232.818084 83.886055 
L 232.676408 78.767029 
L 232.330138 73.657763 
L 231.779829 68.566431 
L 231.051124 63.648 
L 230.303548 68.714126 
L 229.75916 73.806094 
L 229.418832 78.91576 
L 229.283109 84.034947 
L 229.352207 89.155467 
L 229.626016 94.269129 
L 230.104097 99.36775 
L 230.785687 104.443175 
L 231.669695 109.487283 
L 232.754706 114.492006 
L 234.038984 119.449337 
L 235.192161 123.323868 
L 236.445563 118.35864 
L 237.499406 113.347261 
L 238.352005 108.297749 
L 239.001995 103.21818 
L 239.448336 98.116683 
L 239.690315 93.001416 
L 239.727544 87.880565 
L 239.559964 82.762322 
L 239.187843 77.654873 
L 238.611776 72.566391 
L 237.832685 67.505016 
L 237.098647 63.648 
L 236.164729 68.683107 
L 235.432909 73.751533 
L 234.904357 78.845169 
L 234.57992 83.955868 
L 234.460115 89.075453 
L 234.545134 94.195733 
L 234.834843 99.308519 
L 235.328776 104.405629 
L 236.026145 109.47891 
L 236.925832 114.520245 
L 238.0264 119.52157 
L 239.024605 123.3949 
L 240.82751 118.601776 
L 242.4373 113.74039 
L 243.851397 108.818517 
L 245.067542 103.844033 
L 246.083787 98.824895 
L 246.898507 93.769132 
L 247.510399 88.684834 
L 247.918484 83.580133 
L 248.122109 78.463197 
L 248.120948 73.342211 
L 247.915004 68.225367 
L 247.556515 63.648 
L 247.167238 68.754169 
L 246.982464 73.871821 
L 247.00249 78.992768 
L 247.227283 84.108819 
L 247.656483 89.211787 
L 248.289405 94.293511 
L 249.125035 99.345859 
L 250.162036 104.36075 
L 251.398751 109.33016 
L 252.833199 114.24614 
L 254.463087 119.100825 
L 256.285807 123.886449 
L 258.156212 128.279038 
L 263.075334 126.855401 
L 267.933591 125.236191 
L 272.723211 123.423998 
L 277.436531 121.42172 
L 282.066011 119.232562 
L 286.604246 116.860025 
L 291.043973 114.307904 
L 295.378092 111.580283 
L 299.599669 108.681526 
L 303.701949 105.616269 
L 307.67837 102.389417 
L 311.522571 99.006131 
L 315.228402 95.471825 
L 317.321956 93.344632 
L 312.37596 94.671893 
L 307.486996 96.19588 
L 302.662886 97.914154 
L 297.911348 99.823966 
L 293.239982 101.922262 
L 288.656263 104.205684 
L 284.167522 106.67058 
L 279.780942 109.313006 
L 275.503539 112.128734 
L 271.342157 115.113261 
L 267.303452 118.261811 
L 263.393887 121.569348 
L 259.619715 125.03058 
L 256.902157 127.70319 
L 257.08207 122.585365 
L 257.05718 117.464439 
L 256.827528 112.348605 
L 256.393481 107.246046 
L 255.755733 102.164926 
L 254.915305 97.113374 
L 253.87354 92.09947 
L 252.632107 87.131237 
L 251.19299 82.216621 
L 249.558492 77.363487 
L 247.731227 72.579596 
L 245.71412 67.872604 
L 243.709117 63.648 
L 241.521467 68.278193 
L 239.520725 72.992165 
L 237.710092 77.782375 
L 236.092464 82.641159 
L 234.670431 87.560745 
L 233.446265 92.533261 
L 232.421927 97.550754 
L 231.599054 102.605196 
L 230.978963 107.688501 
L 230.562646 112.792537 
L 230.350769 117.909138 
L 230.343671 123.03012 
L 230.356585 123.644601 
L 229.220498 118.651225 
L 227.885638 113.707274 
L 226.35414 108.820658 
L 224.628455 103.999194 
L 222.711343 99.250596 
L 220.605871 94.582461 
L 218.315408 90.002255 
L 215.843618 85.517308 
L 213.194454 81.134793 
L 210.372156 76.861722 
L 207.381238 72.704931 
L 204.226485 68.67107 
L 200.912945 64.766592 
L 199.912762 63.648 
L 196.553689 67.513376 
L 193.351877 71.509988 
L 190.312448 75.631441 
L 187.440265 79.871141 
L 184.739922 84.222308 
L 182.215739 88.677979 
L 179.871754 93.231026 
L 177.711718 97.874165 
L 175.739085 102.599969 
L 173.957012 107.400877 
L 172.36835 112.269209 
L 170.97564 117.197176 
L 169.78111 122.176895 
L 168.786671 127.200399 
L 167.993914 132.259652 
L 167.404107 137.346559 
L 167.018195 142.452984 
L 166.836793 147.570757 
L 166.860193 152.69169 
L 167.088357 157.807591 
L 167.52092 162.910275 
L 168.15719 167.991581 
L 168.996148 173.043377 
L 170.036454 178.057584 
L 171.276442 183.026178 
L 172.71413 187.941212 
L 174.347216 192.794822 
L 176.173089 197.579244 
L 178.188827 202.286823 
L 180.391205 206.910029 
L 182.776701 211.441465 
L 185.341498 215.873881 
L 188.081492 220.200188 
L 190.992301 224.413464 
L 194.069268 228.506968 
L 197.30747 232.474153 
L 200.701727 236.30867 
L 204.246608 240.004386 
L 207.936444 243.555388 
L 211.76533 246.955996 
L 215.727141 250.200769 
L 219.81554 253.284516 
L 224.023985 256.202305 
L 228.345745 258.949466 
L 232.773904 261.521606 
L 237.30138 263.914609 
L 241.920929 266.124648 
L 246.625161 268.148186 
L 251.40655 269.981986 
L 256.257446 271.623115 
L 261.17009 273.068947 
L 266.136623 274.317169 
L 271.149098 275.365784 
L 276.199497 276.213115 
L 281.279741 276.857806 
L 286.381701 277.298826 
L 291.497217 277.535469 
L 296.618104 277.567356 
L 301.736171 277.394438 
L 304.925406 277.182824 
L 302.629676 272.605256 
L 300.152728 268.123154 
L 297.498526 263.74369 
L 294.671314 259.473868 
L 291.675617 255.32052 
L 288.516227 251.29029 
L 285.198197 247.389626 
L 281.726837 243.624767 
L 278.107699 240.001738 
L 274.346573 236.526333 
L 270.449477 233.204114 
L 266.422645 230.040394 
L 262.272519 227.040235 
L 258.005738 224.208436 
L 254.790987 222.232153 
L 253.426716 227.168069 
L 252.26092 232.154593 
L 251.295464 237.183748 
L 250.531894 242.247487 
L 249.971429 247.337712 
L 249.614968 252.446277 
L 249.46308 257.56501 
L 249.516008 262.685723 
L 249.773668 267.800223 
L 250.235647 272.900329 
L 250.901206 277.977881 
L 251.769281 283.024756 
L 252.251971 285.408 
L 253.215737 280.378521 
L 253.977606 275.314525 
L 254.536359 270.224113 
L 254.891104 265.115428 
L 255.041272 259.996644 
L 254.986623 254.875949 
L 254.727244 249.761536 
L 254.263551 244.661586 
L 253.596285 239.584258 
L 252.726514 234.537675 
L 251.65563 229.52991 
L 250.385344 224.568975 
L 250.166198 223.788799 
L 251.466982 228.076773 
L 253.136247 232.91806 
L 254.997777 237.688721 
L 257.048593 242.381125 
L 259.285415 246.987764 
L 261.704665 251.50127 
L 264.302471 255.914421 
L 267.074678 260.220158 
L 270.016852 264.411592 
L 273.124284 268.482017 
L 276.392005 272.424923 
L 279.814786 276.234001 
L 283.387151 279.903157 
L 287.103386 283.426521 
L 289.330398 285.408 
L 293.127652 281.972107 
L 296.78447 278.387113 
L 300.295002 274.658753 
L 303.653631 270.792991 
L 306.854984 266.796012 
L 309.893939 262.67421 
L 312.765636 258.434179 
L 315.46548 254.082703 
L 317.989151 249.626743 
L 320.332613 245.073426 
L 322.492116 240.430039 
L 324.464206 235.704009 
L 326.245728 230.902896 
L 327.833832 226.034382 
L 329.225976 221.106255 
L 330.419934 216.126399 
L 331.413797 211.102781 
L 332.205973 206.043437 
L 332.795195 200.956462 
L 333.180522 195.849993 
L 333.361336 190.732199 
L 333.337348 185.611269 
L 333.108597 180.495394 
L 332.675448 175.392759 
L 332.038595 170.311527 
L 331.199056 165.259827 
L 330.158175 160.24574 
L 328.917616 155.277288 
L 327.479365 150.362419 
L 325.845721 145.508997 
L 324.019299 140.724785 
L 322.003021 136.017437 
L 319.800112 131.394484 
L 317.414096 126.863322 
L 314.84879 122.431199 
L 312.108299 118.105207 
L 309.197006 113.892265 
L 306.11957 109.799114 
L 302.880912 105.832302 
L 299.486215 101.998175 
L 295.940909 98.302866 
L 292.250666 94.752287 
L 288.42139 91.352119 
L 284.459206 88.1078 
L 280.370454 85.024522 
L 276.161673 82.107217 
L 271.839598 79.360552 
L 267.411143 76.78892 
L 262.883393 74.396437 
L 258.26359 72.186929 
L 253.559126 70.163931 
L 248.777527 68.33068 
L 243.926442 66.690108 
L 239.013632 65.24484 
L 234.046956 63.997188 
L 232.484397 63.648 
L 227.502508 64.833445 
L 222.572008 66.217165 
L 217.700787 67.796945 
L 212.896637 69.570259 
L 208.167243 71.534269 
L 203.520171 73.685833 
L 198.962857 76.021509 
L 194.502589 78.537561 
L 190.146505 81.229964 
L 185.901573 84.09441 
L 181.774583 87.126316 
L 177.772138 90.320833 
L 173.900642 93.67285 
L 170.166287 97.177004 
L 166.575048 100.82769 
L 163.13267 104.619067 
L 159.844661 108.545069 
L 156.716279 112.599416 
L 153.752531 116.775622 
L 150.958157 121.067006 
L 148.337628 125.466703 
L 145.895136 129.967673 
L 143.634588 134.562717 
L 141.559602 139.244483 
L 139.673496 144.005481 
L 137.979287 148.838095 
L 136.479687 153.734594 
L 135.177094 158.687144 
L 134.073593 163.687823 
L 133.170947 168.72863 
L 132.470603 173.801501 
L 131.973679 178.89832 
L 131.680971 184.010934 
L 131.592947 189.131164 
L 131.709749 194.250818 
L 132.031188 199.361707 
L 132.556751 204.455653 
L 133.285598 209.524507 
L 134.216561 214.560161 
L 135.348153 219.554558 
L 136.384481 223.471733 
L 140.032047 227.06614 
L 143.820433 230.511809 
L 147.743579 233.803227 
L 151.795208 236.935127 
L 155.968839 239.902501 
L 160.257795 242.7006 
L 164.655214 245.324949 
L 169.154062 247.771349 
L 173.747141 250.035886 
L 178.427103 252.114937 
L 183.186462 254.005177 
L 188.017603 255.703581 
L 192.912798 257.207432 
L 197.864215 258.514325 
L 202.863934 259.622169 
L 207.903955 260.529191 
L 212.976215 261.23394 
L 218.072601 261.73529 
L 223.18496 262.032437 
L 228.305111 262.124907 
L 233.424865 262.012552 
L 238.53603 261.69555 
L 243.630431 261.174411 
L 248.699916 260.449966 
L 253.736376 259.523376 
L 258.731754 258.396122 
L 263.678058 257.070008 
L 268.567375 255.547155 
L 273.391883 253.83 
L 278.143865 251.921289 
L 282.815717 249.824077 
L 287.399966 247.541718 
L 291.889278 245.077863 
L 296.276471 242.436455 
L 300.554527 239.621719 
L 304.716601 236.638157 
L 308.756036 233.490544 
L 312.666368 230.183914 
L 316.441343 226.723557 
L 320.074921 223.11501 
L 323.561288 219.364044 
L 326.894869 215.476662 
L 330.070329 211.459081 
L 333.082589 207.31773 
L 335.926829 203.059232 
L 338.5985 198.690402 
L 341.093327 194.218228 
L 343.407319 189.649865 
L 345.536775 184.992621 
L 347.478287 180.253947 
L 349.22875 175.441424 
L 350.785363 170.56275 
L 352.145636 165.62573 
L 353.307392 160.638264 
L 354.035527 156.934401 
L 349.181359 155.302972 
L 344.265835 153.866962 
L 339.296818 152.628669 
L 334.282257 151.590075 
L 329.230174 150.75284 
L 324.148652 150.118305 
L 319.04582 149.687484 
L 313.929841 149.461066 
L 308.808901 149.439414 
L 303.69119 149.622562 
L 298.584898 150.010217 
L 293.498192 150.60176 
L 288.43921 151.396244 
L 283.416045 152.392397 
L 282.445629 152.609049 
L 286.42433 149.385008 
L 290.270921 146.00444 
L 293.979249 142.472754 
L 297.54338 138.795599 
L 300.957614 134.978858 
L 304.216487 131.028637 
L 307.314788 126.951256 
L 310.247558 122.753237 
L 313.010106 118.441297 
L 315.598013 114.022333 
L 318.007138 109.503416 
L 320.233628 104.891773 
L 321.856508 101.198706 
L 316.763895 100.660382 
L 311.653828 100.326139 
L 306.534482 100.196512 
L 301.414048 100.271707 
L 296.300716 100.551606 
L 291.202668 101.035759 
L 286.128058 101.723392 
L 281.085006 102.613406 
L 276.081579 103.704376 
L 271.12578 104.994557 
L 266.22554 106.481885 
L 261.388696 108.16398 
L 256.622988 110.038153 
L 251.936038 112.101404 
L 247.335345 114.350432 
L 242.82827 116.78164 
L 238.422022 119.391138 
L 234.123651 122.174752 
L 232.253571 123.463926 
L 227.619742 121.283986 
L 222.902446 119.291094 
L 218.109229 117.488437 
L 213.247759 115.8789 
L 208.325813 114.465058 
L 203.351266 113.249171 
L 198.332075 112.233186 
L 193.27627 111.418728 
L 188.19194 110.807099 
L 183.087218 110.399279 
L 177.970271 110.19592 
L 172.849285 110.197346 
L 167.732452 110.403556 
L 162.627958 110.81422 
L 157.54397 111.42868 
L 152.48862 112.245955 
L 147.469996 113.264736 
L 142.847256 114.390413 
L 144.292746 119.303158 
L 145.933537 124.154169 
L 147.767004 128.935686 
L 149.790214 133.640058 
L 151.999931 138.259761 
L 154.392619 142.787403 
L 156.96445 147.215742 
L 159.711311 151.537693 
L 162.628806 155.746342 
L 165.712269 159.834955 
L 168.956766 163.796992 
L 172.357107 167.626115 
L 175.907853 171.316198 
L 179.603322 174.861337 
L 183.437602 178.255861 
L 185.212366 179.737455 
L 182.070901 183.781673 
L 179.093676 187.948282 
L 176.285452 192.230615 
L 173.650721 196.621822 
L 171.1937 201.114878 
L 168.918318 205.702594 
L 166.828216 210.377632 
L 164.926738 215.132511 
L 163.216925 219.959627 
L 161.701512 224.851255 
L 160.382925 229.799571 
L 159.263273 234.796658 
L 158.344346 239.834522 
L 157.627615 244.905104 
L 157.114227 250.000291 
L 156.805003 255.111933 
L 156.710526 258.677474 
L 161.226438 261.09223 
L 165.835302 263.324465 
L 170.529745 265.370609 
L 175.302256 267.22739 
L 180.145202 268.891835 
L 185.050834 270.361283 
L 190.011304 271.633382 
L 195.018677 272.706098 
L 200.064942 273.577714 
L 205.142025 274.246837 
L 210.241806 274.712395 
L 215.356124 274.973644 
L 220.476798 275.030165 
L 225.595637 274.881869 
L 230.704451 274.528993 
L 235.795067 273.972101 
L 240.859342 273.212084 
L 245.889173 272.250158 
L 250.876514 271.087862 
L 255.813386 269.727055 
L 260.691891 268.169914 
L 265.504225 266.418931 
L 270.242689 264.476907 
L 274.899703 262.346947 
L 279.467816 260.032461 
L 283.93972 257.53715 
L 288.308261 254.865007 
L 292.56645 252.020306 
L 296.707476 249.007598 
L 300.724713 245.831703 
L 304.611735 242.497702 
L 308.362324 239.010929 
L 311.970478 235.376961 
L 315.430426 231.601612 
L 318.736633 227.690922 
L 321.88381 223.651147 
L 324.866921 219.48875 
L 327.681195 215.21039 
L 330.322128 210.822911 
L 332.785497 206.333332 
L 335.06736 201.748836 
L 337.164067 197.076757 
L 339.072264 192.32457 
L 340.788897 187.499876 
L 342.311221 182.610394 
L 343.6368 177.663946 
L 344.763514 172.668447 
L 345.689559 167.631886 
L 346.413456 162.562322 
L 346.934044 157.467866 
L 347.250493 152.356666 
L 347.362294 147.2369 
L 347.351954 145.358114 
L 342.898833 142.829437 
L 338.348153 140.48086 
L 333.707195 138.31614 
L 328.983384 136.33874 
L 324.184276 134.551824 
L 319.31755 132.958251 
L 314.39099 131.56057 
L 309.412479 130.361016 
L 304.389981 129.361509 
L 299.331531 128.563648 
L 294.245221 127.968709 
L 289.139188 127.577645 
L 284.021601 127.391079 
L 278.900647 127.409313 
L 273.784519 127.632315 
L 268.6814 128.059729 
L 263.599455 128.690872 
L 260.088062 129.248339 
L 257.87367 124.630875 
L 255.4764 120.105657 
L 252.900087 115.679924 
L 250.148853 111.360756 
L 247.227098 107.155063 
L 244.139498 103.069573 
L 240.890992 99.110822 
L 237.486777 95.285143 
L 233.932298 91.598657 
L 230.233242 88.057261 
L 226.395527 84.66662 
L 222.425292 81.432159 
L 218.328889 78.359052 
L 214.112871 75.452216 
L 209.783983 72.716301 
L 205.349151 70.155684 
L 200.815468 67.774461 
L 196.190188 65.576441 
L 191.685488 63.648 
L 191.685488 63.648 
" style="fill:none;stroke:#1f77b4;stroke-linecap:square;stroke-width:1.5;"/>
   </g>
   <g id="patch_4">
    <path d="M 82.520165 307.584 
L 82.520165 41.472 
" style="fill:none;stroke:#000000;stroke-linecap:square;stroke-linejoin:miter;stroke-width:0.8;"/>
   </g>
   <g id="patch_5">
    <path d="M 389.799835 307.584 
L 389.799835 41.472 
" style="fill:none;stroke:#000000;stroke-linecap:square;stroke-linejoin:miter;stroke-width:0.8;"/>
   </g>
   <g id="patch_6">
    <path d="M 82.520165 307.584 
L 389.799835 307.584 
" style="fill:none;stroke:#000000;stroke-linecap:square;stroke-linejoin:miter;stroke-width:0.8;"/>
   </g>
   <g id="patch_7">
    <path d="M 82.520165 41.472 
L 389.799835 41.472 
" style="fill:none;stroke:#000000;stroke-linecap:square;stroke-linejoin:miter;stroke-width:0.8;"/>
   </g>
  </g>
 </g>
 <defs>
  <clipPath id="p591379b429">
   <rect height="266.112" width="307.27967" x="82.520165" y="41.472"/>
  </clipPath>
 </defs>
</svg>
