<?xml version="1.0" encoding="utf-8" standalone="no"?>
<!DOCTYPE svg PUBLIC "-//W3C//DTD SVG 1.1//EN"
  "http://www.w3.org/Graphics/SVG/1.1/DTD/svg11.dtd">
<!-- Created with matplotlib (http://matplotlib.org/) -->
<svg height="345.6pt" version="1.1" viewBox="0 0 460.8 345.6" width="460.8pt" xmlns="http://www.w3.org/2000/svg" xmlns:xlink="http://www.w3.org/1999/xlink">
 <defs>
  <style type="text/css">
*{stroke-linecap:butt;stroke-linejoin:round;}
  </style>
 </defs>
 <g id="figure_1">
  <g id="patch_1">
   <path d="M 0 345.6 
L 460.8 345.6 
L 460.8 0 
L 0 0 
z
" style="fill:#ffffff;"/>
  </g>
  <g id="axes_1">
   <g id="patch_2">
    <path d="M 82.520165 307.584 
L 389.799835 307.584 
L 389.799835 41.472 
L 82.520165 41.472 
z
" style="fill:#ffffff;"/>
   </g>
   <g id="PathCollection_1">
    <defs>
     <path d="M 0 2.738613 
C 0.726289 2.738613 1.422928 2.450055 1.936492 1.936492 
C 2.450055 1.422928 2.738613 0.726289 2.738613 0 
C 2.738613 -0.726289 2.450055 -1.422928 1.936492 -1.936492 
C 1.422928 -2.450055 0.726289 -2.738613 0 -2.738613 
C -0.726289 -2.738613 -1.422928 -2.450055 -1.936492 -1.936492 
C -2.450055 -1.422928 -2.738613 -0.726289 -2.738613 0 
C -2.738613 0.726289 -2.450055 1.422928 -1.936492 1.936492 
C -1.422928 2.450055 -0.726289 2.738613 0 2.738613 
z
" id="m007840c9c1" style="stroke:#000000;"/>
    </defs>
    <g clip-path="url(#p9b141ae445)">
     <use style="stroke:#000000;" x="363.516772" xlink:href="#m007840c9c1" y="175.699599"/>
    </g>
   </g>
   <g id="Quiver_1">
    <path clip-path="url(#p9b141ae445)" d="M 363.539287 176.467469 
L 345.878296 176.985298 
L 346.691194 178.498522 
L 338.944959 176.420058 
L 346.556108 173.891307 
L 345.833267 175.44956 
L 363.494258 174.93173 
L 363.539287 176.467469 
"/>
   </g>
   <g id="patch_3">
    <path clip-path="url(#p9b141ae445)" d="M 236.16 225.741278 
C 249.74192 225.741278 262.769389 220.345124 272.373256 210.741256 
C 281.977124 201.137389 287.373278 188.10992 287.373278 174.528 
C 287.373278 160.94608 281.977124 147.918611 272.373256 138.314744 
C 262.769389 128.710876 249.74192 123.314722 236.16 123.314722 
C 222.57808 123.314722 209.550611 128.710876 199.946744 138.314744 
C 190.342876 147.918611 184.946722 160.94608 184.946722 174.528 
C 184.946722 188.10992 190.342876 201.137389 199.946744 210.741256 
C 209.550611 220.345124 222.57808 225.741278 236.16 225.741278 
z
" style="fill:#009900;fill-opacity:0.5;stroke:#009900;stroke-linejoin:miter;stroke-width:2;"/>
   </g>
   <g id="matplotlib.axis_1">
    <g id="xtick_1">
     <g id="line2d_1">
      <defs>
       <path d="M 0 0 
L 0 3.5 
" id="m624e377b1b" style="stroke:#000000;stroke-width:0.8;"/>
      </defs>
      <g>
       <use style="stroke:#000000;stroke-width:0.8;" x="108.126804" xlink:href="#m624e377b1b" y="307.584"/>
      </g>
     </g>
     <g id="text_1">
      <!-- −2 -->
      <defs>
       <path d="M 10.59375 35.5 
L 73.1875 35.5 
L 73.1875 27.203125 
L 10.59375 27.203125 
z
" id="DejaVuSans-2212"/>
       <path d="M 19.1875 8.296875 
L 53.609375 8.296875 
L 53.609375 0 
L 7.328125 0 
L 7.328125 8.296875 
Q 12.9375 14.109375 22.625 23.890625 
Q 32.328125 33.6875 34.8125 36.53125 
Q 39.546875 41.84375 41.421875 45.53125 
Q 43.3125 49.21875 43.3125 52.78125 
Q 43.3125 58.59375 39.234375 62.25 
Q 35.15625 65.921875 28.609375 65.921875 
Q 23.96875 65.921875 18.8125 64.3125 
Q 13.671875 62.703125 7.8125 59.421875 
L 7.8125 69.390625 
Q 13.765625 71.78125 18.9375 73 
Q 24.125 74.21875 28.421875 74.21875 
Q 39.75 74.21875 46.484375 68.546875 
Q 53.21875 62.890625 53.21875 53.421875 
Q 53.21875 48.921875 51.53125 44.890625 
Q 49.859375 40.875 45.40625 35.40625 
Q 44.1875 33.984375 37.640625 27.21875 
Q 31.109375 20.453125 19.1875 8.296875 
z
" id="DejaVuSans-32"/>
      </defs>
      <g transform="translate(100.755711 322.182437)scale(0.1 -0.1)">
       <use xlink:href="#DejaVuSans-2212"/>
       <use x="83.789062" xlink:href="#DejaVuSans-32"/>
      </g>
     </g>
    </g>
    <g id="xtick_2">
     <g id="line2d_2">
      <g>
       <use style="stroke:#000000;stroke-width:0.8;" x="172.143402" xlink:href="#m624e377b1b" y="307.584"/>
      </g>
     </g>
     <g id="text_2">
      <!-- −1 -->
      <defs>
       <path d="M 12.40625 8.296875 
L 28.515625 8.296875 
L 28.515625 63.921875 
L 10.984375 60.40625 
L 10.984375 69.390625 
L 28.421875 72.90625 
L 38.28125 72.90625 
L 38.28125 8.296875 
L 54.390625 8.296875 
L 54.390625 0 
L 12.40625 0 
z
" id="DejaVuSans-31"/>
      </defs>
      <g transform="translate(164.772308 322.182437)scale(0.1 -0.1)">
       <use xlink:href="#DejaVuSans-2212"/>
       <use x="83.789062" xlink:href="#DejaVuSans-31"/>
      </g>
     </g>
    </g>
    <g id="xtick_3">
     <g id="line2d_3">
      <g>
       <use style="stroke:#000000;stroke-width:0.8;" x="236.16" xlink:href="#m624e377b1b" y="307.584"/>
      </g>
     </g>
     <g id="text_3">
      <!-- 0 -->
      <defs>
       <path d="M 31.78125 66.40625 
Q 24.171875 66.40625 20.328125 58.90625 
Q 16.5 51.421875 16.5 36.375 
Q 16.5 21.390625 20.328125 13.890625 
Q 24.171875 6.390625 31.78125 6.390625 
Q 39.453125 6.390625 43.28125 13.890625 
Q 47.125 21.390625 47.125 36.375 
Q 47.125 51.421875 43.28125 58.90625 
Q 39.453125 66.40625 31.78125 66.40625 
z
M 31.78125 74.21875 
Q 44.046875 74.21875 50.515625 64.515625 
Q 56.984375 54.828125 56.984375 36.375 
Q 56.984375 17.96875 50.515625 8.265625 
Q 44.046875 -1.421875 31.78125 -1.421875 
Q 19.53125 -1.421875 13.0625 8.265625 
Q 6.59375 17.96875 6.59375 36.375 
Q 6.59375 54.828125 13.0625 64.515625 
Q 19.53125 74.21875 31.78125 74.21875 
z
" id="DejaVuSans-30"/>
      </defs>
      <g transform="translate(232.97875 322.182437)scale(0.1 -0.1)">
       <use xlink:href="#DejaVuSans-30"/>
      </g>
     </g>
    </g>
    <g id="xtick_4">
     <g id="line2d_4">
      <g>
       <use style="stroke:#000000;stroke-width:0.8;" x="300.176598" xlink:href="#m624e377b1b" y="307.584"/>
      </g>
     </g>
     <g id="text_4">
      <!-- 1 -->
      <g transform="translate(296.995348 322.182437)scale(0.1 -0.1)">
       <use xlink:href="#DejaVuSans-31"/>
      </g>
     </g>
    </g>
    <g id="xtick_5">
     <g id="line2d_5">
      <g>
       <use style="stroke:#000000;stroke-width:0.8;" x="364.193196" xlink:href="#m624e377b1b" y="307.584"/>
      </g>
     </g>
     <g id="text_5">
      <!-- 2 -->
      <g transform="translate(361.011946 322.182437)scale(0.1 -0.1)">
       <use xlink:href="#DejaVuSans-32"/>
      </g>
     </g>
    </g>
   </g>
   <g id="matplotlib.axis_2">
    <g id="ytick_1">
     <g id="line2d_6">
      <defs>
       <path d="M 0 0 
L -3.5 0 
" id="m8d895417b2" style="stroke:#000000;stroke-width:0.8;"/>
      </defs>
      <g>
       <use style="stroke:#000000;stroke-width:0.8;" x="82.520165" xlink:href="#m8d895417b2" y="302.561196"/>
      </g>
     </g>
     <g id="text_6">
      <!-- −2.0 -->
      <defs>
       <path d="M 10.6875 12.40625 
L 21 12.40625 
L 21 0 
L 10.6875 0 
z
" id="DejaVuSans-2e"/>
      </defs>
      <g transform="translate(51.237353 306.360414)scale(0.1 -0.1)">
       <use xlink:href="#DejaVuSans-2212"/>
       <use x="83.789062" xlink:href="#DejaVuSans-32"/>
       <use x="147.412109" xlink:href="#DejaVuSans-2e"/>
       <use x="179.199219" xlink:href="#DejaVuSans-30"/>
      </g>
     </g>
    </g>
    <g id="ytick_2">
     <g id="line2d_7">
      <g>
       <use style="stroke:#000000;stroke-width:0.8;" x="82.520165" xlink:href="#m8d895417b2" y="270.552897"/>
      </g>
     </g>
     <g id="text_7">
      <!-- −1.5 -->
      <defs>
       <path d="M 10.796875 72.90625 
L 49.515625 72.90625 
L 49.515625 64.59375 
L 19.828125 64.59375 
L 19.828125 46.734375 
Q 21.96875 47.46875 24.109375 47.828125 
Q 26.265625 48.1875 28.421875 48.1875 
Q 40.625 48.1875 47.75 41.5 
Q 54.890625 34.8125 54.890625 23.390625 
Q 54.890625 11.625 47.5625 5.09375 
Q 40.234375 -1.421875 26.90625 -1.421875 
Q 22.3125 -1.421875 17.546875 -0.640625 
Q 12.796875 0.140625 7.71875 1.703125 
L 7.71875 11.625 
Q 12.109375 9.234375 16.796875 8.0625 
Q 21.484375 6.890625 26.703125 6.890625 
Q 35.15625 6.890625 40.078125 11.328125 
Q 45.015625 15.765625 45.015625 23.390625 
Q 45.015625 31 40.078125 35.4375 
Q 35.15625 39.890625 26.703125 39.890625 
Q 22.75 39.890625 18.8125 39.015625 
Q 14.890625 38.140625 10.796875 36.28125 
z
" id="DejaVuSans-35"/>
      </defs>
      <g transform="translate(51.237353 274.352116)scale(0.1 -0.1)">
       <use xlink:href="#DejaVuSans-2212"/>
       <use x="83.789062" xlink:href="#DejaVuSans-31"/>
       <use x="147.412109" xlink:href="#DejaVuSans-2e"/>
       <use x="179.199219" xlink:href="#DejaVuSans-35"/>
      </g>
     </g>
    </g>
    <g id="ytick_3">
     <g id="line2d_8">
      <g>
       <use style="stroke:#000000;stroke-width:0.8;" x="82.520165" xlink:href="#m8d895417b2" y="238.544598"/>
      </g>
     </g>
     <g id="text_8">
      <!-- −1.0 -->
      <g transform="translate(51.237353 242.343817)scale(0.1 -0.1)">
       <use xlink:href="#DejaVuSans-2212"/>
       <use x="83.789062" xlink:href="#DejaVuSans-31"/>
       <use x="147.412109" xlink:href="#DejaVuSans-2e"/>
       <use x="179.199219" xlink:href="#DejaVuSans-30"/>
      </g>
     </g>
    </g>
    <g id="ytick_4">
     <g id="line2d_9">
      <g>
       <use style="stroke:#000000;stroke-width:0.8;" x="82.520165" xlink:href="#m8d895417b2" y="206.536299"/>
      </g>
     </g>
     <g id="text_9">
      <!-- −0.5 -->
      <g transform="translate(51.237353 210.335518)scale(0.1 -0.1)">
       <use xlink:href="#DejaVuSans-2212"/>
       <use x="83.789062" xlink:href="#DejaVuSans-30"/>
       <use x="147.412109" xlink:href="#DejaVuSans-2e"/>
       <use x="179.199219" xlink:href="#DejaVuSans-35"/>
      </g>
     </g>
    </g>
    <g id="ytick_5">
     <g id="line2d_10">
      <g>
       <use style="stroke:#000000;stroke-width:0.8;" x="82.520165" xlink:href="#m8d895417b2" y="174.528"/>
      </g>
     </g>
     <g id="text_10">
      <!-- 0.0 -->
      <g transform="translate(59.61704 178.327219)scale(0.1 -0.1)">
       <use xlink:href="#DejaVuSans-30"/>
       <use x="63.623047" xlink:href="#DejaVuSans-2e"/>
       <use x="95.410156" xlink:href="#DejaVuSans-30"/>
      </g>
     </g>
    </g>
    <g id="ytick_6">
     <g id="line2d_11">
      <g>
       <use style="stroke:#000000;stroke-width:0.8;" x="82.520165" xlink:href="#m8d895417b2" y="142.519701"/>
      </g>
     </g>
     <g id="text_11">
      <!-- 0.5 -->
      <g transform="translate(59.61704 146.31892)scale(0.1 -0.1)">
       <use xlink:href="#DejaVuSans-30"/>
       <use x="63.623047" xlink:href="#DejaVuSans-2e"/>
       <use x="95.410156" xlink:href="#DejaVuSans-35"/>
      </g>
     </g>
    </g>
    <g id="ytick_7">
     <g id="line2d_12">
      <g>
       <use style="stroke:#000000;stroke-width:0.8;" x="82.520165" xlink:href="#m8d895417b2" y="110.511402"/>
      </g>
     </g>
     <g id="text_12">
      <!-- 1.0 -->
      <g transform="translate(59.61704 114.310621)scale(0.1 -0.1)">
       <use xlink:href="#DejaVuSans-31"/>
       <use x="63.623047" xlink:href="#DejaVuSans-2e"/>
       <use x="95.410156" xlink:href="#DejaVuSans-30"/>
      </g>
     </g>
    </g>
    <g id="ytick_8">
     <g id="line2d_13">
      <g>
       <use style="stroke:#000000;stroke-width:0.8;" x="82.520165" xlink:href="#m8d895417b2" y="78.503103"/>
      </g>
     </g>
     <g id="text_13">
      <!-- 1.5 -->
      <g transform="translate(59.61704 82.302322)scale(0.1 -0.1)">
       <use xlink:href="#DejaVuSans-31"/>
       <use x="63.623047" xlink:href="#DejaVuSans-2e"/>
       <use x="95.410156" xlink:href="#DejaVuSans-35"/>
      </g>
     </g>
    </g>
    <g id="ytick_9">
     <g id="line2d_14">
      <g>
       <use style="stroke:#000000;stroke-width:0.8;" x="82.520165" xlink:href="#m8d895417b2" y="46.494804"/>
      </g>
     </g>
     <g id="text_14">
      <!-- 2.0 -->
      <g transform="translate(59.61704 50.294023)scale(0.1 -0.1)">
       <use xlink:href="#DejaVuSans-32"/>
       <use x="63.623047" xlink:href="#DejaVuSans-2e"/>
       <use x="95.410156" xlink:href="#DejaVuSans-30"/>
      </g>
     </g>
    </g>
   </g>
   <g id="line2d_15">
    <path clip-path="url(#p9b141ae445)" d="M 300.176598 63.648 
L 172.143402 63.648 
" style="fill:none;stroke:#009900;stroke-linecap:square;stroke-width:2;"/>
   </g>
   <g id="line2d_16">
    <path clip-path="url(#p9b141ae445)" d="M 172.143402 63.648 
L 108.126804 174.528 
" style="fill:none;stroke:#009900;stroke-linecap:square;stroke-width:2;"/>
   </g>
   <g id="line2d_17">
    <path clip-path="url(#p9b141ae445)" d="M 108.126804 174.528 
L 172.143402 285.408 
" style="fill:none;stroke:#009900;stroke-linecap:square;stroke-width:2;"/>
   </g>
   <g id="line2d_18">
    <path clip-path="url(#p9b141ae445)" d="M 172.143402 285.408 
L 300.176598 285.408 
" style="fill:none;stroke:#009900;stroke-linecap:square;stroke-width:2;"/>
   </g>
   <g id="line2d_19">
    <path clip-path="url(#p9b141ae445)" d="M 300.176598 285.408 
L 364.193196 174.528 
" style="fill:none;stroke:#009900;stroke-linecap:square;stroke-width:2;"/>
   </g>
   <g id="line2d_20">
    <path clip-path="url(#p9b141ae445)" d="M 364.193196 174.528 
L 300.176598 63.648 
" style="fill:none;stroke:#009900;stroke-linecap:square;stroke-width:2;"/>
   </g>
   <g id="line2d_21">
    <path clip-path="url(#p9b141ae445)" d="M 292.227809 251.147018 
L 291.366309 246.099017 
L 290.303631 241.089504 
L 289.041477 236.126494 
L 287.581865 231.217926 
L 285.92713 226.371654 
L 284.079919 221.59543 
L 282.043188 216.896896 
L 279.820195 212.283567 
L 277.414496 207.762824 
L 276.475936 206.110038 
L 281.422017 207.436986 
L 286.417205 208.565082 
L 291.453509 209.492521 
L 296.522872 210.21782 
L 301.617184 210.739819 
L 306.728296 211.057681 
L 311.848031 211.1709 
L 316.968198 211.079293 
L 322.080606 210.783007 
L 327.177077 210.282517 
L 332.249456 209.578622 
L 337.28963 208.67245 
L 342.289535 207.565449 
L 345.611345 206.71271 
L 344.201436 201.789636 
L 342.595784 196.926881 
L 340.796958 192.132225 
L 338.807836 187.413338 
L 336.6316 182.777769 
L 334.271732 178.232934 
L 331.732006 173.786105 
L 329.016486 169.444394 
L 326.129516 165.214748 
L 323.075715 161.103933 
L 319.859967 157.118526 
L 316.487418 153.264902 
L 312.963463 149.549227 
L 309.293739 145.977445 
L 305.484117 142.555269 
L 301.540693 139.288175 
L 297.469773 136.18139 
L 293.277872 133.239883 
L 288.971695 130.46836 
L 284.55813 127.871255 
L 280.04424 125.452723 
L 275.437245 123.216633 
L 270.744515 121.166562 
L 265.973558 119.305791 
L 261.132007 117.637295 
L 256.227605 116.163744 
L 251.268201 114.887496 
L 246.261727 113.810592 
L 241.216194 112.934754 
L 236.139672 112.261385 
L 231.040283 111.791561 
L 225.926185 111.526035 
L 220.805559 111.46523 
L 215.686598 111.609243 
L 210.577491 111.957846 
L 205.486411 112.51048 
L 200.421502 113.26626 
L 195.390868 114.223978 
L 190.402557 115.382102 
L 185.464548 116.738779 
L 180.584742 118.291838 
L 175.770945 120.038795 
L 171.030858 121.976856 
L 166.372064 124.102919 
L 161.802017 126.413583 
L 157.328027 128.905152 
L 152.957252 131.57364 
L 148.696685 134.414778 
L 144.55314 137.424021 
L 140.533248 140.596554 
L 136.643439 143.927303 
L 132.889935 147.410938 
L 129.278742 151.041886 
L 125.815637 154.81434 
L 122.50616 158.722263 
L 119.355605 162.759404 
L 116.369013 166.919304 
L 113.551162 171.195308 
L 110.906559 175.580577 
L 109.83246 177.482283 
L 114.953436 177.471976 
L 120.069904 177.256893 
L 125.173678 176.837378 
L 130.256593 176.214102 
L 135.310518 175.388062 
L 140.327368 174.360579 
L 145.299117 173.133298 
L 150.21781 171.708182 
L 155.07558 170.087511 
L 159.864654 168.273877 
L 164.577372 166.270181 
L 169.206193 164.07963 
L 173.743714 161.705728 
L 178.182674 159.152272 
L 182.515972 156.423348 
L 186.736676 153.523321 
L 191.041029 150.2983 
L 191.342334 145.186185 
L 191.438968 140.066111 
L 191.330776 134.946267 
L 191.017932 129.834846 
L 190.500936 124.740023 
L 189.780614 119.669951 
L 188.85812 114.632738 
L 187.734929 109.636445 
L 186.412838 104.689064 
L 184.893962 99.798511 
L 183.180731 94.972607 
L 181.275886 90.219075 
L 179.182474 85.545519 
L 176.903844 80.959415 
L 174.443641 76.468101 
L 171.805802 72.078761 
L 169.402026 68.396203 
L 174.516122 68.661758 
L 179.636747 68.72259 
L 184.755709 68.578604 
L 189.864818 68.230029 
L 194.955902 67.677423 
L 200.020814 66.92167 
L 205.051453 65.963979 
L 210.039771 64.805882 
L 214.300254 63.648 
L 219.245677 64.977397 
L 224.240305 66.107966 
L 229.276149 67.037899 
L 234.345153 67.765709 
L 239.439206 68.29023 
L 244.55016 68.610623 
L 249.669838 68.726377 
L 254.79005 68.637306 
L 259.902604 68.343552 
L 264.999322 67.845585 
L 270.072049 67.144203 
L 275.112671 66.240526 
L 280.113124 65.136001 
L 285.065407 63.832395 
L 285.706659 63.648 
L 290.652082 64.977397 
L 295.646711 66.107966 
L 300.682555 67.037899 
L 302.278999 67.289466 
L 300.505641 72.0936 
L 298.925816 76.964807 
L 297.54205 81.895293 
L 296.356558 86.877171 
L 295.371236 91.902471 
L 294.587661 96.963154 
L 294.007086 102.051124 
L 293.63044 107.158241 
L 293.458326 112.276334 
L 293.491018 117.397216 
L 293.728465 122.512694 
L 294.170286 127.614586 
L 294.815775 132.694728 
L 295.6639 137.744994 
L 296.713302 142.757305 
L 297.962305 147.723641 
L 299.408908 152.636058 
L 301.050799 157.486696 
L 302.885351 162.267797 
L 304.909627 166.971711 
L 307.120392 171.590912 
L 309.514106 176.118012 
L 312.086942 180.545768 
L 314.834782 184.867096 
L 317.753232 189.075082 
L 320.837621 193.162997 
L 324.083017 197.124298 
L 327.484226 200.95265 
L 331.035808 204.641927 
L 334.732081 208.186228 
L 338.567131 211.579883 
L 341.435014 213.946326 
L 336.627715 212.181566 
L 331.75369 210.610457 
L 326.820736 209.235515 
L 321.836745 208.058938 
L 316.80969 207.082608 
L 311.747614 206.308088 
L 306.658613 205.736616 
L 301.550831 205.369108 
L 296.432438 205.20615 
L 291.311623 205.248003 
L 286.196577 205.494602 
L 281.095485 205.94555 
L 276.096765 206.588172 
L 276.55906 211.688249 
L 277.224933 216.76576 
L 278.09332 221.812581 
L 279.162832 226.820639 
L 280.431757 231.781923 
L 281.898065 236.688494 
L 283.559411 241.532504 
L 285.413137 246.306203 
L 287.456277 251.001954 
L 289.685563 255.612246 
L 292.097428 260.129702 
L 294.688013 264.547095 
L 297.453176 268.85736 
L 300.388491 273.0536 
L 303.489263 277.129101 
L 304.342145 278.193061 
L 299.269456 277.491399 
L 294.172766 276.993153 
L 289.060228 276.699118 
L 283.940021 276.609765 
L 278.820336 276.725237 
L 273.709365 277.04535 
L 268.615283 277.569591 
L 263.546239 278.297121 
L 258.510344 279.226778 
L 253.515653 280.357072 
L 248.570158 281.686197 
L 243.681768 283.212026 
L 238.858306 284.932118 
L 237.62303 285.408 
L 232.81761 283.63813 
L 227.945258 282.06184 
L 223.013768 280.681654 
L 218.031031 279.499779 
L 213.005017 278.518105 
L 207.943766 277.738204 
L 202.855376 277.161323 
L 197.747988 276.788384 
L 192.629771 276.619985 
L 187.508914 276.656394 
L 182.393609 276.897554 
L 177.29204 277.343079 
L 172.212367 277.992256 
L 168.238824 278.645073 
L 171.467463 274.670102 
L 174.534564 270.5692 
L 177.435218 266.348927 
L 180.164786 262.016034 
L 182.718902 257.577454 
L 185.093479 253.040286 
L 187.284717 248.411791 
L 189.289113 243.699371 
L 191.103459 238.910566 
L 192.724852 234.053037 
L 194.1507 229.134556 
L 195.378719 224.16299 
L 196.406947 219.146293 
L 197.233738 214.09249 
L 197.901719 208.573614 
L 192.780747 208.585613 
L 187.664351 208.802387 
L 182.560716 209.223589 
L 177.478007 209.848545 
L 172.424355 210.676255 
L 167.407845 211.705396 
L 162.436502 212.93432 
L 157.51828 214.361061 
L 152.661046 215.983338 
L 147.872571 217.798555 
L 143.160516 219.803807 
L 138.532419 221.995888 
L 136.215973 223.179867 
L 136.75595 222.836012 
L 141.01251 219.988873 
L 145.15181 216.973795 
L 149.167227 213.7956 
L 153.052339 210.459373 
L 156.80093 206.970452 
L 160.407003 203.334419 
L 163.864789 199.557089 
L 167.168756 195.644506 
L 170.313618 191.60293 
L 173.294345 187.438825 
L 176.106168 183.158854 
L 178.744589 178.769863 
L 181.205386 174.278874 
L 183.484623 169.693073 
L 185.578654 165.019794 
L 186.076692 163.829303 
L 186.126507 158.708559 
L 185.971507 153.589919 
L 185.61194 148.481571 
L 185.048382 143.391689 
L 184.281733 138.328414 
L 183.31322 133.299847 
L 182.144393 128.314033 
L 180.777122 123.378947 
L 179.213593 118.502485 
L 177.456309 113.692449 
L 175.50808 108.956532 
L 173.372023 104.302312 
L 171.051556 99.737234 
L 168.55039 95.268602 
L 165.872528 90.903565 
L 163.022253 86.649104 
L 160.710755 83.449926 
L 165.807419 83.948439 
L 170.919942 84.242742 
L 176.040144 84.332362 
L 181.159834 84.217158 
L 186.270823 83.897312 
L 191.364932 83.373338 
L 196.434014 82.646072 
L 201.469958 81.716679 
L 206.464707 80.586646 
L 211.410273 79.257779 
L 216.298742 77.732206 
L 221.122294 76.012366 
L 225.873212 74.101012 
L 230.543896 72.0012 
L 235.126875 69.71629 
L 239.614815 67.249938 
L 244.000538 64.606089 
L 245.49714 63.648 
L 249.845746 66.352464 
L 254.299024 68.880866 
L 258.849849 71.229163 
L 263.49094 73.393596 
L 268.214873 75.370704 
L 273.014091 77.157324 
L 277.880916 78.750597 
L 282.807562 80.147975 
L 287.786147 81.347221 
L 292.808707 82.346418 
L 297.867206 83.143967 
L 302.953553 83.738592 
L 308.05961 84.129342 
L 312.096178 84.293318 
L 309.736975 88.838498 
L 307.561419 93.474386 
L 305.572989 98.193565 
L 303.774866 102.988485 
L 302.169927 107.851475 
L 300.76074 112.774756 
L 299.549558 117.750451 
L 298.53832 122.7706 
L 297.728644 127.827173 
L 297.121824 132.912079 
L 296.718831 138.017184 
L 296.520311 143.134321 
L 296.52658 148.255304 
L 296.737629 153.371939 
L 297.15312 158.476042 
L 297.772388 163.559448 
L 298.594443 168.614023 
L 299.617969 173.631681 
L 300.84133 178.604396 
L 302.262568 183.524211 
L 303.879408 188.383257 
L 305.689266 193.17376 
L 307.689245 197.888056 
L 309.876146 202.518603 
L 312.246469 207.057994 
L 314.796425 211.498965 
L 317.521932 215.834414 
L 320.41863 220.057403 
L 323.481886 224.161178 
L 326.706799 228.139172 
L 330.08821 231.985022 
L 330.661287 232.606969 
L 325.646729 231.568361 
L 320.594649 230.731112 
L 315.513128 230.096563 
L 310.410297 229.665727 
L 305.294319 229.439295 
L 300.173379 229.417629 
L 295.055668 229.600763 
L 289.949374 229.988404 
L 284.862667 230.579933 
L 279.803682 231.374402 
L 274.780515 232.370541 
L 269.801201 233.566757 
L 264.873706 234.961135 
L 260.005912 236.551446 
L 255.205607 238.335144 
L 250.480472 240.309376 
L 245.838063 242.470984 
L 241.28581 244.816509 
L 236.830994 247.342201 
L 232.480742 250.044017 
L 228.242014 252.917635 
L 224.12159 255.958459 
L 220.126063 259.161624 
L 216.261824 262.522004 
L 212.535055 266.034226 
L 208.951719 269.692669 
L 205.517548 273.49148 
L 202.238036 277.424583 
L 199.118429 281.485686 
L 196.340366 285.408 
L 193.375388 281.232667 
L 190.245812 277.179241 
L 186.956647 273.254208 
L 183.513152 269.463845 
L 179.920838 265.814217 
L 176.185451 262.311163 
L 172.312968 258.960287 
L 168.309583 255.766949 
L 164.1817 252.736258 
L 159.935924 249.873062 
L 155.579047 247.181943 
L 151.118039 244.667205 
L 147.557649 242.824226 
L 147.770625 237.70767 
L 147.778824 232.586691 
L 147.582231 227.469479 
L 147.181162 222.364222 
L 146.576258 217.279088 
L 145.768486 212.222211 
L 144.75914 207.201681 
L 143.549833 202.22553 
L 142.1425 197.301719 
L 140.539394 192.438124 
L 138.743077 187.642527 
L 136.756425 182.9226 
L 134.582615 178.285893 
L 132.225125 173.739824 
L 129.687727 169.291665 
L 126.974479 164.948534 
L 124.089723 160.717378 
L 121.038073 156.604966 
L 119.558177 154.728282 
L 124.633619 155.40974 
L 129.732253 155.887689 
L 134.845921 156.161365 
L 139.966443 156.230329 
L 145.085627 156.094472 
L 150.195284 155.754011 
L 155.287238 155.209491 
L 160.353344 154.461782 
L 165.385498 153.512082 
L 170.375649 152.361908 
L 175.315813 151.013102 
L 180.198088 149.46782 
L 185.014663 147.728536 
L 189.757832 145.798031 
L 194.420007 143.679395 
L 195.792137 143.01236 
L 196.776319 137.986837 
L 197.558745 132.925976 
L 198.138166 127.837875 
L 198.513653 122.730673 
L 198.684606 117.612541 
L 198.650752 112.491666 
L 198.412144 107.376242 
L 197.969165 102.274451 
L 197.322523 97.194455 
L 196.473252 92.144382 
L 195.422712 87.132309 
L 194.172583 82.166257 
L 192.724864 77.254168 
L 191.081873 72.403902 
L 189.246237 67.623218 
L 187.549157 63.648 
L 185.553197 68.363999 
L 183.747423 73.156043 
L 182.134724 78.016465 
L 180.71768 82.93749 
L 179.498559 87.911245 
L 178.479309 92.929774 
L 177.661563 97.985048 
L 177.046627 103.068979 
L 176.635487 108.173435 
L 176.428799 113.290248 
L 176.426894 118.411234 
L 176.629776 123.5282 
L 177.03712 128.63296 
L 177.648274 133.717347 
L 178.46226 138.773228 
L 179.477776 143.792514 
L 180.693198 148.767175 
L 182.106581 153.689252 
L 183.715664 158.550873 
L 185.517873 163.344258 
L 185.953678 164.422303 
L 182.403629 168.113055 
L 179.00401 171.942819 
L 175.76026 175.905468 
L 172.677568 179.994663 
L 169.760867 184.203862 
L 167.014822 188.526331 
L 164.443825 192.955155 
L 162.051991 197.483248 
L 159.843146 202.103368 
L 157.820823 206.808122 
L 155.988258 211.589984 
L 154.348382 216.441304 
L 152.903819 221.354322 
L 151.656879 226.321176 
L 150.609558 231.333922 
L 149.763532 236.38454 
L 149.120153 241.46495 
L 148.796054 244.969206 
L 153.461222 247.081244 
L 158.207118 249.005036 
L 163.026149 250.737504 
L 167.910605 252.275876 
L 172.852673 253.617692 
L 177.844445 254.760804 
L 182.877938 255.703384 
L 187.945097 256.443924 
L 193.037817 256.981239 
L 198.147949 257.314471 
L 203.267321 257.443084 
L 208.38774 257.366875 
L 213.501016 257.085965 
L 218.598968 256.600802 
L 223.673442 255.912165 
L 228.716318 255.021153 
L 233.719529 253.929192 
L 238.675072 252.63803 
L 243.575018 251.149732 
L 248.411528 249.466679 
L 253.176866 247.591563 
L 257.863407 245.527384 
L 262.463654 243.277445 
L 266.970249 240.845345 
L 271.37598 238.234975 
L 275.6738 235.45051 
L 279.856833 232.496405 
L 283.918388 229.377387 
L 287.851967 226.098445 
L 291.651276 222.664824 
L 295.310238 219.082018 
L 298.822999 215.355759 
L 302.18394 211.492007 
L 305.387684 207.496944 
L 308.429105 203.376961 
L 311.303338 199.138649 
L 314.005784 194.788789 
L 316.532121 190.334339 
L 318.878306 185.782425 
L 321.040587 181.140331 
L 323.015504 176.415481 
L 324.799898 171.615435 
L 326.390913 166.747872 
L 327.786006 161.820579 
L 328.982943 156.841438 
L 329.979811 151.818415 
L 330.775013 146.759546 
L 331.367279 141.672924 
L 331.75566 136.566687 
L 331.939536 131.449003 
L 331.918612 126.328059 
L 331.692921 121.212048 
L 331.425659 117.772961 
L 327.183653 114.904184 
L 322.830319 112.207336 
L 318.372622 109.686732 
L 313.817694 107.346405 
L 309.172821 105.190098 
L 304.445435 103.221262 
L 299.643097 101.443045 
L 294.773491 99.858293 
L 289.844407 98.469541 
L 284.86373 97.279011 
L 279.839429 96.288607 
L 274.779541 95.499913 
L 269.692162 94.914192 
L 264.585429 94.532381 
L 259.467512 94.355089 
L 254.3466 94.382602 
L 249.230884 94.614874 
L 244.128548 95.051535 
L 239.047755 95.691886 
L 233.996634 96.534901 
L 228.983265 97.579234 
L 224.015668 98.823212 
L 219.10179 100.264846 
L 214.249493 101.90183 
L 209.466539 103.731545 
L 204.760581 105.751063 
L 200.139145 107.957153 
L 195.609627 110.346288 
L 191.179271 112.914643 
L 186.855166 115.658112 
L 182.644229 118.572303 
L 178.553197 121.652557 
L 174.588615 124.893944 
L 170.756825 128.291279 
L 167.063958 131.839128 
L 163.51592 135.531814 
L 160.118388 139.36343 
L 156.876798 143.327846 
L 153.796335 147.41872 
L 150.881927 151.629507 
L 148.138237 155.953471 
L 145.569655 160.383695 
L 143.180288 164.913092 
L 140.973961 169.534414 
L 138.954202 174.240269 
L 137.124242 179.023129 
L 135.48701 183.875342 
L 134.045124 188.789146 
L 132.800891 193.756679 
L 131.756301 198.769995 
L 130.913027 203.821073 
L 130.272416 208.901833 
L 129.955677 212.336716 
L 134.620845 214.448755 
L 139.366741 216.372546 
L 144.185772 218.105014 
L 149.070228 219.643386 
L 154.012296 220.985202 
L 159.004069 222.128314 
L 164.037561 223.070894 
L 169.10472 223.811434 
L 174.19744 224.34875 
L 179.307573 224.681981 
L 184.426944 224.810595 
L 189.547363 224.734386 
L 194.660639 224.453475 
L 199.758592 223.968313 
L 204.833065 223.279675 
L 209.875941 222.388663 
L 215.14759 221.23216 
L 217.63953 225.705943 
L 220.308379 230.076497 
L 223.149869 234.33683 
L 226.159455 238.480126 
L 229.33232 242.499756 
L 232.66339 246.38929 
L 236.147335 250.142506 
L 239.778582 253.753398 
L 243.551322 257.216192 
L 247.459519 260.525346 
L 251.49692 263.675566 
L 255.657067 266.661815 
L 259.933305 269.479312 
L 264.318792 272.123553 
L 268.806512 274.590305 
L 273.389287 276.875623 
L 278.059784 278.975852 
L 282.810532 280.88763 
L 287.63393 282.6079 
L 292.522263 284.133909 
L 297.245431 285.408 
L 300.704308 284.493979 
L 299.332071 279.560271 
L 297.763636 274.685385 
L 296.001512 269.87712 
L 294.048518 265.143166 
L 291.907778 260.491098 
L 289.582718 255.928358 
L 287.077057 251.462245 
L 284.394803 247.099905 
L 281.540247 242.848315 
L 278.517957 238.714278 
L 275.332767 234.704407 
L 271.989772 230.825117 
L 268.494321 227.082615 
L 264.852006 223.482886 
L 261.068654 220.031691 
L 260.536381 219.567893 
L 261.328771 224.627203 
L 262.322847 229.650779 
L 263.517016 234.630584 
L 264.90937 239.558652 
L 266.49768 244.427099 
L 268.279405 249.228136 
L 270.251695 253.954083 
L 272.411396 258.597378 
L 274.755051 263.150595 
L 277.278911 267.606449 
L 279.97894 271.95781 
L 282.850816 276.197719 
L 285.889947 280.319392 
L 289.091469 284.316235 
L 290.012801 285.408 
L 293.258719 281.447127 
L 296.343648 277.35962 
L 299.262654 273.152019 
L 302.011065 268.831054 
L 304.584485 264.403638 
L 306.978797 259.876854 
L 309.190171 255.257944 
L 311.215069 250.554298 
L 313.050251 245.773439 
L 314.692783 240.923017 
L 316.140035 236.010792 
L 317.389693 231.04462 
L 318.439757 226.032449 
L 319.288549 220.982295 
L 319.934709 215.902238 
L 320.377204 210.800405 
L 320.615326 205.684957 
L 320.648694 200.56408 
L 320.477255 195.445964 
L 320.101283 190.338798 
L 319.52138 185.250751 
L 318.738473 180.189965 
L 317.753815 175.164535 
L 316.568981 170.1825 
L 315.185866 165.251831 
L 313.606684 160.380416 
L 311.83396 155.576048 
L 309.87053 150.846413 
L 307.719536 146.199078 
L 305.384419 141.641476 
L 302.868914 137.1809 
L 300.177046 132.824486 
L 297.313121 128.579202 
L 294.281721 124.45184 
L 291.087695 120.449004 
L 287.736153 116.577096 
L 284.232458 112.842311 
L 280.582213 109.250624 
L 276.791258 105.807781 
L 272.86566 102.51929 
L 268.811696 99.390411 
L 264.635854 96.42615 
L 260.344813 93.63125 
L 255.945438 91.010181 
L 251.444767 88.567137 
L 246.850001 86.306025 
L 242.16849 84.230464 
L 237.407723 82.343774 
L 232.575316 80.648973 
L 227.679002 79.148772 
L 222.726611 77.845571 
L 217.726068 76.741456 
L 212.685372 75.838192 
L 207.612587 75.137225 
L 202.515829 74.639676 
L 197.403251 74.346341 
L 192.283032 74.257689 
L 187.163363 74.373862 
L 182.052435 74.694674 
L 176.958425 75.219612 
L 171.889481 75.947837 
L 166.853713 76.878182 
L 164.169045 77.459992 
L 165.777288 82.32189 
L 167.57867 87.115587 
L 169.570307 91.833413 
L 171.749014 96.467821 
L 174.111305 101.011397 
L 176.653401 105.456872 
L 179.371235 109.797135 
L 182.26046 114.025241 
L 185.316452 118.134428 
L 188.534324 122.11812 
L 191.908927 125.969945 
L 195.434862 129.683741 
L 199.10649 133.253567 
L 202.281572 136.121594 
L 199.336172 131.932427 
L 196.225605 127.864396 
L 192.954849 123.924009 
L 189.529136 120.117568 
L 185.953945 116.451164 
L 182.234998 112.930663 
L 178.378242 109.561696 
L 174.389849 106.349652 
L 170.276199 103.299671 
L 166.043873 100.416632 
L 161.699641 97.705147 
L 157.250453 95.169554 
L 154.718235 93.829275 
L 155.257507 94.174234 
L 159.632397 96.835971 
L 164.110228 99.32063 
L 168.683837 101.624236 
L 173.345908 103.743103 
L 178.088981 105.673843 
L 182.90547 107.413366 
L 187.787668 108.95889 
L 192.727766 110.307941 
L 197.717859 111.458362 
L 202.749966 112.408312 
L 207.816035 113.156272 
L 212.907962 113.701045 
L 218.017602 114.041759 
L 223.136779 114.177869 
L 228.257304 114.109159 
L 233.370986 113.835736 
L 238.469644 113.35804 
L 243.54512 112.676834 
L 248.589296 111.793208 
L 253.594101 110.708575 
L 258.551529 109.424672 
L 263.453649 107.943551 
L 268.292619 106.267582 
L 273.060698 104.399447 
L 277.750257 102.342133 
L 282.353794 100.098933 
L 286.863945 97.673435 
L 291.273494 95.069519 
L 295.575387 92.291351 
L 299.762742 89.343376 
L 303.82886 86.230308 
L 307.767236 82.95713 
L 310.119723 80.869997 
L 305.273753 82.525618 
L 300.497867 84.373702 
L 295.799705 86.411292 
L 291.186782 88.635129 
L 286.66648 91.041654 
L 282.246028 93.627019 
L 277.932499 96.387086 
L 273.732794 99.317441 
L 269.653631 102.413395 
L 265.701536 105.669996 
L 261.882832 109.082033 
L 258.203628 112.644049 
L 254.669809 116.350344 
L 251.287029 120.19499 
L 248.060699 124.171836 
L 247.703572 124.632651 
L 246.574451 119.637695 
L 245.246488 114.691887 
L 243.721809 109.803139 
L 242.00285 104.979273 
L 240.092364 100.228006 
L 237.993406 95.556938 
L 235.709334 90.973542 
L 233.243802 86.485151 
L 230.600754 82.098945 
L 227.784419 77.821941 
L 224.799303 73.660982 
L 221.65018 69.622725 
L 218.342089 65.713628 
L 216.481688 63.648 
L 213.089506 67.484352 
L 209.85345 71.453287 
L 206.778698 75.548455 
L 203.870168 79.763305 
L 201.132514 84.091093 
L 198.570115 88.524897 
L 196.18707 93.057622 
L 193.987192 97.682018 
L 191.974001 102.390687 
L 190.150716 107.176096 
L 188.520256 112.030588 
L 187.085227 116.946399 
L 185.847926 121.915663 
L 184.810332 126.930432 
L 183.974106 131.982682 
L 183.340585 137.06433 
L 182.910782 142.167248 
L 182.685385 147.283272 
L 182.664755 152.404217 
L 182.848924 157.52189 
L 183.237599 162.628105 
L 183.830157 167.714693 
L 184.62565 172.773517 
L 184.946725 174.509689 
L 184.077938 179.556442 
L 183.411661 184.6339 
L 182.948962 189.73394 
L 182.690581 194.848404 
L 182.63693 199.969109 
L 182.788095 205.087864 
L 183.143835 210.196479 
L 183.703581 215.286783 
L 184.466437 220.35063 
L 185.431182 225.379921 
L 186.596274 230.36661 
L 187.959848 235.302718 
L 189.519723 240.18035 
L 191.273404 244.991702 
L 193.218085 249.729076 
L 195.350654 254.384895 
L 197.667701 258.95171 
L 200.165519 263.422214 
L 202.840111 267.789257 
L 205.687198 272.045851 
L 208.702227 276.185187 
L 211.880373 280.200643 
L 215.216552 284.085796 
L 216.415368 285.408 
L 219.80538 281.56973 
L 223.039191 277.598966 
L 226.111627 273.50206 
L 229.017773 269.285566 
L 231.752979 264.95623 
L 234.312871 260.520979 
L 236.693352 255.986906 
L 238.890614 251.361267 
L 240.901142 246.65146 
L 242.721721 241.865021 
L 244.349436 237.009608 
L 245.781685 232.092986 
L 247.016175 227.123023 
L 247.593984 224.448576 
L 250.783716 228.454835 
L 254.131103 232.330335 
L 257.630792 236.068875 
L 261.277183 239.664474 
L 265.064443 243.111381 
L 268.986513 246.40408 
L 273.037118 249.537304 
L 277.20978 252.506042 
L 281.497821 255.305542 
L 285.894382 257.931328 
L 290.39243 260.379197 
L 294.984769 262.645235 
L 299.664052 264.725815 
L 304.422793 266.61761 
L 309.253379 268.317592 
L 309.918368 268.534759 
L 306.049118 265.180149 
L 302.048815 261.982952 
L 297.923857 258.948281 
L 293.680844 256.080992 
L 289.326565 253.385671 
L 284.867984 250.866632 
L 280.312235 248.527903 
L 275.666606 246.373226 
L 270.938529 244.406048 
L 266.135568 242.629516 
L 261.265406 241.046473 
L 256.335835 239.65945 
L 251.354741 238.470668 
L 246.330093 237.482026 
L 241.269929 236.695108 
L 236.182344 236.111172 
L 231.075477 235.731152 
L 225.957499 235.555657 
L 220.836596 235.584966 
L 215.720962 235.819033 
L 210.61878 236.257484 
L 205.538212 236.899617 
L 200.487387 237.744405 
L 195.474384 238.790496 
L 190.507224 240.036217 
L 185.593853 241.479575 
L 180.74213 243.118262 
L 175.959819 244.949654 
L 171.254569 246.970823 
L 166.633908 249.178535 
L 162.105227 251.569258 
L 157.675773 254.139168 
L 155.039901 255.783868 
L 155.607811 255.488419 
L 160.09647 253.023374 
L 164.482963 250.380803 
L 168.760272 247.564932 
L 172.921555 244.580267 
L 176.960154 241.431582 
L 180.86961 238.123915 
L 184.643667 234.662558 
L 188.276287 231.053047 
L 191.76166 227.301157 
L 195.09421 223.412891 
L 198.268604 219.394468 
L 201.279766 215.252318 
L 202.645464 213.252356 
L 198.911307 216.756721 
L 195.320274 220.407609 
L 191.87811 224.19918 
L 188.590322 228.125368 
L 185.462169 232.179891 
L 182.498656 236.356265 
L 179.704524 240.647806 
L 177.084243 245.04765 
L 174.642005 249.548758 
L 172.381717 254.14393 
L 170.306994 258.825813 
L 168.421157 263.586917 
L 166.727221 268.419627 
L 165.206231 273.392467 
L 170.195746 274.545396 
L 175.227374 275.497875 
L 180.293067 276.248381 
L 185.38472 276.795712 
L 190.494188 277.138994 
L 195.613296 277.277678 
L 200.733855 277.21154 
L 205.847674 276.940688 
L 210.946571 276.465554 
L 216.022389 275.786899 
L 221.067008 274.905808 
L 226.072357 273.823691 
L 231.03043 272.542279 
L 235.933294 271.063622 
L 240.773105 269.390085 
L 245.542122 267.524347 
L 250.232715 265.46939 
L 254.837379 263.228504 
L 259.348748 260.805273 
L 263.759605 258.203574 
L 268.062894 255.427568 
L 272.25173 252.481697 
L 276.319412 249.370674 
L 280.259432 246.099475 
L 284.065488 242.673335 
L 287.731491 239.097733 
L 291.251575 235.37839 
L 294.620109 231.521257 
L 297.831705 227.532503 
L 300.881224 223.41851 
L 303.763788 219.18586 
L 306.474785 214.841324 
L 309.009879 210.391852 
L 311.365013 205.844562 
L 313.536421 201.20673 
L 315.520628 196.485774 
L 317.314459 191.689247 
L 318.915046 186.824823 
L 320.319828 181.900283 
L 321.526557 176.923506 
L 322.533303 171.902454 
L 323.338454 166.845159 
L 323.940724 161.759712 
L 324.339149 156.654248 
L 324.533091 151.536936 
L 324.522239 146.415961 
L 324.306612 141.299516 
L 323.886554 136.195787 
L 323.262738 131.112938 
L 322.436161 126.0591 
L 321.408145 121.04236 
L 320.180335 116.070742 
L 318.754696 111.1522 
L 317.133508 106.294602 
L 315.319365 101.505721 
L 313.315169 96.793216 
L 311.124126 92.164628 
L 308.749741 87.62736 
L 306.195814 83.188672 
L 303.466428 78.855663 
L 300.565953 74.635268 
L 297.499026 70.534236 
L 294.270555 66.559129 
L 291.731661 63.648 
L 288.384745 67.523907 
L 285.195501 71.530555 
L 282.169032 75.661533 
L 279.310178 79.910234 
L 276.623514 84.26986 
L 274.113337 88.733436 
L 271.783664 93.293823 
L 269.638221 97.943723 
L 267.680441 102.6757 
L 265.913455 107.482181 
L 264.34009 112.355478 
L 262.962864 117.287795 
L 261.78398 122.271241 
L 260.805324 127.297844 
L 260.450935 129.441967 
L 264.170726 125.922357 
L 267.746795 122.256811 
L 271.173421 118.451192 
L 274.445122 114.511588 
L 277.556664 110.444303 
L 280.503068 106.255842 
L 283.279623 101.952907 
L 285.881884 97.542382 
L 288.305691 93.031322 
L 290.547164 88.426943 
L 292.602718 83.736613 
L 294.469065 78.967834 
L 296.143218 74.128236 
L 297.6225 69.22556 
L 298.904545 64.267651 
L 299.049996 63.648 
L 300.307377 68.612221 
L 301.762268 73.52219 
L 303.412342 78.370051 
L 305.254959 83.14805 
L 307.28717 87.848541 
L 309.505726 92.464005 
L 311.907077 96.987059 
L 314.48738 101.410467 
L 317.242509 105.727152 
L 320.168055 109.930208 
L 323.259339 114.012911 
L 326.511414 117.968731 
L 329.919079 121.791338 
L 333.476881 125.474617 
L 337.17913 129.012675 
L 338.716868 130.401706 
L 339.849112 135.395955 
L 341.180166 140.340932 
L 342.707903 145.228725 
L 344.429877 150.051515 
L 346.343333 154.801587 
L 348.445212 159.471342 
L 350.732149 164.053309 
L 353.200487 168.540157 
L 355.846277 172.92471 
L 358.665286 177.199951 
L 360.863989 180.294356 
L 355.763267 179.839231 
L 350.648425 179.588445 
L 345.527645 179.542398 
L 340.409121 179.701165 
L 335.301039 180.064491 
L 330.211573 180.631796 
L 325.148864 181.402171 
L 320.121011 182.374384 
L 315.136058 183.54688 
L 310.20198 184.917783 
L 305.32667 186.4849 
L 300.517928 188.245723 
L 295.783446 190.197437 
L 291.1308 192.336918 
L 286.567431 194.660745 
L 282.097802 197.166865 
L 282.832654 202.234852 
L 283.769584 207.269399 
L 284.907093 212.262452 
L 286.243361 217.206023 
L 287.77625 222.092203 
L 289.503308 226.913175 
L 291.421771 231.661227 
L 293.528572 236.328763 
L 295.820339 240.908316 
L 298.293407 245.392559 
L 300.943818 249.77432 
L 303.767332 254.046587 
L 306.759434 258.202526 
L 309.915335 262.235489 
L 312.069768 264.808424 
L 307.019692 263.959169 
L 301.939695 263.312543 
L 296.837902 262.869579 
L 291.722477 262.630987 
L 286.601603 262.597149 
L 281.483471 262.768117 
L 276.37627 263.14362 
L 271.288171 263.723056 
L 266.227312 264.505498 
L 261.201792 265.489695 
L 256.219648 266.674071 
L 251.288852 268.056733 
L 246.417292 269.635468 
L 241.612761 271.407751 
L 236.882946 273.370746 
L 232.235413 275.521313 
L 227.677597 277.856011 
L 223.21679 280.371106 
L 218.860129 283.062574 
L 215.356105 285.408 
L 211.090432 282.574532 
L 206.714863 279.913913 
L 202.236398 277.430397 
L 197.6622 275.127959 
L 192.999589 273.010282 
L 188.256023 271.080753 
L 183.43909 269.34246 
L 178.556497 267.798184 
L 173.616056 266.450394 
L 168.625669 265.301247 
L 163.59332 264.352582 
L 159.64047 263.752287 
L 161.485138 258.97508 
L 163.137294 254.127928 
L 164.594293 249.218584 
L 165.853806 244.254903 
L 166.913817 239.244826 
L 167.77263 234.196366 
L 168.428872 229.117602 
L 168.881492 224.016657 
L 169.129767 218.901693 
L 169.1733 213.780891 
L 169.01202 208.662445 
L 168.646186 203.554543 
L 168.076382 198.465356 
L 167.303522 193.403025 
L 166.32884 188.37565 
L 165.153897 183.391274 
L 163.780572 178.457869 
L 162.211061 173.583329 
L 160.447877 168.775452 
L 158.493839 164.04193 
L 156.352074 159.390334 
L 154.026007 154.828107 
L 151.519361 150.362547 
L 148.836145 146.000798 
L 145.980652 141.749838 
L 142.95745 137.616467 
L 139.771375 133.607299 
L 136.427525 129.728747 
L 134.935078 128.094709 
L 139.948642 129.138102 
L 144.999921 129.980172 
L 150.080834 130.619572 
L 155.183251 131.055277 
L 160.299011 131.286592 
L 165.419928 131.313146 
L 170.537811 131.134896 
L 175.644473 130.752129 
L 180.731743 130.165455 
L 185.791483 129.375815 
L 190.815598 128.38447 
L 195.796052 127.193007 
L 200.724876 125.803332 
L 205.594185 124.217669 
L 210.39619 122.438553 
L 215.123208 120.468832 
L 219.767677 118.311656 
L 224.322167 115.970476 
L 228.779392 113.449037 
L 233.13222 110.751375 
L 237.373689 107.881803 
L 241.497013 104.844913 
L 245.495596 101.645563 
L 249.363041 98.288872 
L 253.09316 94.780209 
L 256.679986 91.125188 
L 260.117781 87.329656 
L 263.401046 83.399685 
L 266.524527 79.341561 
L 269.483228 75.161778 
L 272.272416 70.867021 
L 274.887629 66.464163 
L 276.438656 63.648 
L 278.942492 68.115136 
L 281.622964 72.478572 
L 284.475782 76.731328 
L 287.496384 80.866599 
L 290.679935 84.877771 
L 294.021345 88.758426 
L 297.515266 92.502356 
L 301.15611 96.103572 
L 304.938052 99.556313 
L 308.855042 102.855054 
L 312.900813 105.994519 
L 317.068893 108.969685 
L 321.352614 111.775792 
L 325.745122 114.408352 
L 330.239391 116.863152 
L 331.180293 117.347975 
L 331.016758 122.46635 
L 331.058035 127.58717 
L 331.304057 132.702243 
L 331.75443 137.803387 
L 332.408435 142.88244 
L 333.265024 147.931277 
L 334.322828 152.941821 
L 335.580153 157.906056 
L 337.03499 162.816041 
L 338.68501 167.663921 
L 340.527574 172.44194 
L 342.559733 177.142453 
L 344.778238 181.757942 
L 347.179538 186.281023 
L 349.759792 190.704459 
L 352.4327 194.897776 
L 347.316514 194.676088 
L 342.195556 194.65917 
L 337.078017 194.847049 
L 331.972085 195.239425 
L 326.885928 195.83567 
L 321.827683 196.63483 
L 316.805441 197.635627 
L 311.827238 198.836459 
L 306.901038 200.235406 
L 302.034721 201.830229 
L 297.236073 203.618378 
L 292.512769 205.59699 
L 287.872368 207.762902 
L 283.322291 210.112648 
L 278.869819 212.642469 
L 274.522074 215.348317 
L 270.286012 218.225865 
L 266.16841 221.270508 
L 262.175854 224.477376 
L 258.314733 227.841339 
L 254.591223 231.357014 
L 251.011281 235.018778 
L 247.580633 238.820773 
L 244.304769 242.756915 
L 241.18893 246.820909 
L 238.238099 251.006252 
L 235.456997 255.306249 
L 232.850074 259.714021 
L 230.4215 264.222517 
L 228.175161 268.824523 
L 226.114649 273.512677 
L 224.243262 278.279481 
L 222.563993 283.117306 
L 221.843529 285.408 
L 220.255287 280.539531 
L 218.473629 275.738469 
L 216.501404 271.012495 
L 214.341769 266.369169 
L 211.998177 261.81592 
L 209.474379 257.360031 
L 206.774411 253.008631 
L 203.902594 248.768683 
L 200.863521 244.646967 
L 197.662054 240.650079 
L 194.303315 236.784413 
L 190.792678 233.056153 
L 187.135757 229.471263 
L 183.338405 226.035478 
L 179.406695 222.754295 
L 175.346919 219.632963 
L 171.165569 216.676476 
L 166.869336 213.889563 
L 162.465093 211.276682 
L 157.959885 208.842015 
L 153.360921 206.589455 
L 148.675556 204.522606 
L 143.911288 202.644775 
L 139.075737 200.958967 
L 134.17664 199.467877 
L 129.221834 198.173891 
L 124.219245 197.07908 
L 120.781845 196.447174 
L 122.46762 191.611611 
L 123.958676 186.712504 
L 125.252627 181.757689 
L 126.347404 176.755093 
L 127.241254 171.712719 
L 127.932748 166.638634 
L 128.420779 161.540956 
L 128.704568 156.427838 
L 128.783659 151.307463 
L 128.657926 146.18802 
L 128.327571 141.077701 
L 128.207766 139.746755 
L 132.822042 137.52573 
L 137.343811 135.12196 
L 141.765837 132.53929 
L 146.081047 129.781852 
L 150.282538 126.854057 
L 154.363587 123.76059 
L 158.317665 120.506398 
L 162.138449 117.096689 
L 165.819823 113.536916 
L 169.3559 109.832775 
L 172.741023 105.990192 
L 175.969775 102.015313 
L 179.036993 97.914498 
L 181.937767 93.694308 
L 184.667459 89.361493 
L 187.221701 84.922985 
L 189.596407 80.385886 
L 191.787778 75.757452 
L 193.792308 71.04509 
L 195.60679 66.256337 
L 196.504343 63.648 
L 198.215237 68.474732 
L 200.117781 73.229186 
L 202.208931 77.903755 
L 204.48534 82.490961 
L 206.943368 86.983466 
L 209.579083 91.374082 
L 212.388266 95.655786 
L 215.366426 99.821728 
L 218.508796 103.865242 
L 221.81035 107.779861 
L 225.265806 111.559322 
L 228.869637 115.197578 
L 232.616076 118.68881 
L 236.49913 122.027431 
L 238.131462 123.352682 
L 242.309059 120.390894 
L 246.364875 117.264417 
L 250.29242 113.978251 
L 254.085413 110.537653 
L 257.737784 106.948129 
L 261.243691 103.21542 
L 264.597525 99.345497 
L 267.793921 95.344553 
L 270.827765 91.218987 
L 273.694203 86.9754 
L 276.388651 82.62058 
L 278.906797 78.161495 
L 281.244612 73.605277 
L 283.398358 68.959216 
L 285.364588 64.230745 
L 285.591709 63.648 
L 287.534817 68.38602 
L 289.665841 73.042546 
L 291.981372 77.61013 
L 294.477706 82.081463 
L 297.150848 86.449393 
L 299.996522 90.706932 
L 303.010177 94.847269 
L 306.18699 98.86378 
L 309.52188 102.750039 
L 313.009511 106.49983 
L 316.644303 110.107154 
L 320.420443 113.566239 
L 324.331889 116.871552 
L 328.372384 120.017804 
L 332.535463 122.999964 
L 335.633508 125.061169 
L 335.986279 130.169991 
L 336.543066 135.260618 
L 337.302979 140.324908 
L 338.264801 145.354759 
L 339.426995 150.342124 
L 340.7877 155.279024 
L 342.344741 160.157561 
L 344.095625 164.969932 
L 346.037552 169.708436 
L 348.167416 174.365493 
L 350.481808 178.933653 
L 352.977027 183.405609 
L 355.64908 187.774205 
L 356.121848 188.507985 
L 351.003509 188.343318 
L 345.88268 188.383461 
L 340.767553 188.628351 
L 335.66631 189.077596 
L 330.587112 189.730477 
L 325.538085 190.585949 
L 320.527307 191.642644 
L 315.562794 192.898871 
L 310.652487 194.352621 
L 305.804243 196.001569 
L 301.025816 197.843075 
L 296.324853 199.874194 
L 291.708873 202.091678 
L 287.185261 204.491977 
L 282.761254 207.071253 
L 278.443929 209.825378 
L 274.240193 212.749948 
L 270.156772 215.840282 
L 266.200197 219.091438 
L 262.376798 222.498215 
L 258.692693 226.055161 
L 255.153774 229.756587 
L 251.765703 233.596572 
L 248.533901 237.568972 
L 245.463538 241.667431 
L 242.559526 245.885394 
L 239.82651 250.216113 
L 237.268862 254.652659 
L 234.890675 259.187935 
L 232.695753 263.814685 
L 230.687607 268.525508 
L 228.86945 273.312868 
L 227.244191 278.169104 
L 225.81443 283.086449 
L 225.212752 285.408 
L 223.875346 280.464737 
L 222.341333 275.57891 
L 220.613165 270.758336 
L 218.693609 266.010725 
L 216.585734 261.343674 
L 214.292913 256.764649 
L 211.818813 252.280975 
L 209.167394 247.899824 
L 206.342896 243.628207 
L 203.349838 239.472957 
L 200.193009 235.44072 
L 196.877459 231.537948 
L 193.408491 227.770885 
L 189.791656 224.145557 
L 186.032739 220.667764 
L 182.137754 217.343069 
L 178.112933 214.176791 
L 173.964714 211.173996 
L 169.699733 208.339487 
L 165.324814 205.677799 
L 160.846954 203.193191 
L 156.273319 200.889636 
L 151.611225 198.770821 
L 146.86813 196.840134 
L 142.051622 195.100666 
L 137.169406 193.555197 
L 132.229294 192.206201 
L 127.239187 191.055836 
L 122.20707 190.105943 
L 116.653678 189.296978 
L 118.557264 184.542942 
L 120.269217 179.716585 
L 121.786797 174.825629 
L 123.107578 169.877898 
L 124.229445 164.881308 
L 125.150605 159.843851 
L 125.869583 154.773588 
L 126.38523 149.678629 
L 126.696721 144.567124 
L 126.770779 142.235689 
L 131.092493 139.488455 
L 135.300889 136.570597 
L 139.389237 133.486781 
L 143.350994 130.241942 
L 147.179824 126.841271 
L 150.8696 123.290207 
L 154.41442 119.594432 
L 157.808613 115.759859 
L 161.046749 111.792621 
L 164.123647 107.699065 
L 167.034386 103.485741 
L 169.774309 99.159388 
L 172.339032 94.726929 
L 174.724452 90.195453 
L 176.926754 85.572211 
L 178.942413 80.864598 
L 180.768206 76.080146 
L 182.401212 71.226508 
L 183.838817 66.311451 
L 184.529719 63.648 
L 185.861367 68.592817 
L 187.389691 73.480427 
L 189.112244 78.30301 
L 191.026271 83.052853 
L 193.12871 87.722355 
L 195.416198 92.304047 
L 197.885074 96.790599 
L 200.531391 101.174834 
L 203.350913 105.449737 
L 206.33913 109.60847 
L 209.491262 113.644379 
L 212.802266 117.551009 
L 216.266845 121.322109 
L 219.879456 124.951646 
L 220.674114 125.71215 
L 221.577186 120.67142 
L 222.277961 115.598608 
L 222.775316 110.501831 
L 223.068457 105.389241 
L 223.156914 100.269019 
L 223.040546 95.149355 
L 222.71954 90.038439 
L 222.194408 84.944449 
L 221.46599 79.875533 
L 220.535453 74.8398 
L 219.404285 69.845307 
L 218.074295 64.900044 
L 217.703633 63.648 
L 216.323278 68.579442 
L 215.141232 73.562139 
L 214.159386 78.58812 
L 213.379312 83.649344 
L 212.802256 88.737714 
L 212.429143 93.845089 
L 212.260569 98.9633 
L 212.296803 104.084159 
L 212.537788 109.199472 
L 212.983138 114.301056 
L 213.632141 119.380751 
L 214.483758 124.430429 
L 215.171425 127.813125 
L 212.070272 123.737912 
L 208.808635 119.789973 
L 205.391732 115.975622 
L 201.825028 112.300962 
L 198.11423 108.771872 
L 194.265274 105.393997 
L 190.284318 102.172741 
L 186.17773 99.113257 
L 181.952081 96.22044 
L 177.61413 93.498918 
L 173.170816 90.953045 
L 168.62925 88.586894 
L 163.996695 86.404249 
L 159.991701 84.695365 
L 164.096458 87.757304 
L 168.320377 90.652647 
L 172.656699 93.376762 
L 177.098489 95.925292 
L 181.63864 98.294159 
L 186.269889 100.479574 
L 190.984826 102.47804 
L 195.77591 104.28636 
L 200.635474 105.901642 
L 205.555746 107.3213 
L 210.528853 108.543065 
L 215.546839 109.564981 
L 220.601678 110.385414 
L 225.685281 111.003051 
L 230.789518 111.416904 
L 235.906221 111.626311 
L 241.027205 111.630937 
L 246.144278 111.430774 
L 251.249254 111.026144 
L 256.333965 110.417692 
L 261.390277 109.606393 
L 266.410102 108.593544 
L 271.385408 107.380766 
L 276.308236 105.969999 
L 281.170711 104.363499 
L 285.965054 102.563838 
L 290.683594 100.573894 
L 295.318784 98.396849 
L 299.863207 96.036189 
L 304.309594 93.495688 
L 308.650831 90.779411 
L 312.879974 87.891704 
L 313.794125 87.234249 
L 309.159392 89.412264 
L 304.615463 91.773876 
L 300.169608 94.315308 
L 295.82894 97.032494 
L 291.600402 99.921087 
L 287.490759 102.976466 
L 283.506586 106.193743 
L 279.654257 109.56777 
L 275.939935 113.093151 
L 272.369561 116.764245 
L 268.948848 120.57518 
L 265.683267 124.519858 
L 262.578044 128.59197 
L 261.533002 130.041927 
L 263.523186 125.323488 
L 265.323091 120.529237 
L 266.929838 115.666844 
L 268.340856 110.744088 
L 269.553887 105.768843 
L 270.566991 100.74907 
L 271.378547 95.692799 
L 271.987258 90.608119 
L 272.392148 85.503164 
L 272.592571 80.386101 
L 272.588206 75.265116 
L 272.379059 70.148403 
L 271.965465 65.044145 
L 271.816443 63.648 
L 271.3469 68.747415 
L 271.081654 73.861527 
L 271.02113 78.982156 
L 271.165426 84.101109 
L 271.514309 89.210197 
L 272.067223 94.301247 
L 272.823281 99.366114 
L 273.781276 104.396695 
L 274.939674 109.384943 
L 276.296622 114.322877 
L 277.84995 119.202598 
L 279.597171 124.016299 
L 281.535492 128.75628 
L 283.661811 133.414956 
L 285.972727 137.984877 
L 288.464542 142.458729 
L 291.13327 146.829358 
L 293.974643 151.089769 
L 296.984113 155.233148 
L 300.156867 159.252866 
L 303.487829 163.142492 
L 306.971671 166.895805 
L 310.602818 170.506798 
L 314.375461 173.969696 
L 318.283566 177.278958 
L 322.32088 180.429291 
L 326.480945 183.415654 
L 330.757104 186.233271 
L 335.142518 188.877632 
L 339.63017 191.344509 
L 344.212881 193.629955 
L 348.88332 195.730312 
L 351.360542 196.754808 
L 347.269965 193.67395 
L 343.059459 190.759136 
L 338.735759 188.01503 
L 334.305783 185.44602 
L 329.776617 183.056216 
L 325.155508 180.849443 
L 320.449847 178.82923 
L 315.667164 176.998809 
L 310.815109 175.361109 
L 305.901444 173.918749 
L 300.934031 172.674037 
L 295.920816 171.628964 
L 290.869819 170.785202 
L 287.198561 170.301279 
L 292.08802 168.778883 
L 296.912689 167.06218 
L 301.664849 165.153914 
L 306.336898 163.057139 
L 310.92136 160.775209 
L 315.410903 158.311775 
L 319.798343 155.670777 
L 324.076663 152.856441 
L 328.239016 149.873269 
L 332.278745 146.726034 
L 336.189387 143.41977 
L 339.964686 139.959767 
L 342.68916 137.281918 
L 337.761305 138.675024 
L 332.893101 140.264077 
L 328.092336 142.046535 
L 323.36669 144.019546 
L 318.723724 146.179955 
L 314.170865 148.524305 
L 309.715396 151.048845 
L 305.364447 153.749537 
L 301.124976 156.622061 
L 297.003767 159.66182 
L 293.007412 162.863953 
L 289.142306 166.223335 
L 286.983599 168.222318 
L 291.498123 170.639668 
L 296.105703 172.874552 
L 300.798969 174.923394 
L 305.570413 176.782917 
L 310.412402 178.450145 
L 315.317188 179.922412 
L 320.276927 181.197362 
L 325.283682 182.272955 
L 330.329445 183.147471 
L 335.406143 183.819511 
L 340.505655 184.288 
L 345.619822 184.552188 
L 350.740463 184.611652 
L 355.859386 184.466298 
L 358.546813 184.307822 
L 356.208506 179.751857 
L 353.689879 175.293043 
L 350.994962 170.938514 
L 348.128065 166.695236 
L 345.093776 162.569997 
L 341.896949 158.569398 
L 338.542697 154.699837 
L 335.036388 150.967506 
L 331.383629 147.378376 
L 327.590266 143.938188 
L 323.662366 140.652445 
L 319.606213 137.526405 
L 315.428296 134.565069 
L 311.1353 131.773173 
L 306.734091 129.155184 
L 302.231711 126.715291 
L 297.635363 124.457397 
L 292.9524 122.385114 
L 288.190314 120.501757 
L 283.356722 118.810339 
L 278.459358 117.313566 
L 273.506057 116.013833 
L 268.504742 114.913219 
L 263.463415 114.013484 
L 258.39014 113.316068 
L 253.293035 112.822087 
L 248.180252 112.532331 
L 243.059973 112.447264 
L 237.940387 112.567021 
L 232.829685 112.891411 
L 227.736043 113.419915 
L 222.667611 114.151688 
L 217.632495 115.085559 
L 212.638752 116.220034 
L 207.694371 117.553297 
L 202.80726 119.083217 
L 197.985239 120.807346 
L 193.236023 122.722924 
L 188.567207 124.826888 
L 183.986263 127.115873 
L 179.500517 129.586215 
L 175.117148 132.233963 
L 170.843166 135.054881 
L 166.685409 138.044457 
L 162.650529 141.197907 
L 158.744981 144.510187 
L 154.975013 147.975997 
L 151.346656 151.589794 
L 147.865715 155.345796 
L 144.537758 159.237994 
L 141.36811 163.260161 
L 138.36184 167.405863 
L 135.523759 171.668468 
L 132.858408 176.041156 
L 130.370049 180.516932 
L 128.062663 185.088636 
L 125.939943 189.748953 
L 124.005284 194.490429 
L 122.324959 199.119925 
L 127.368034 200.009812 
L 132.44266 200.697317 
L 137.540721 201.181342 
L 142.65406 201.461112 
L 147.774496 201.536178 
L 152.893838 201.406422 
L 158.003897 201.072051 
L 163.096496 200.533599 
L 168.16349 199.791928 
L 173.196772 198.848225 
L 178.18829 197.703999 
L 183.130058 196.361081 
L 188.014171 194.821619 
L 188.995669 194.486099 
L 188.424825 194.775839 
L 183.911678 197.195758 
L 179.498913 199.79422 
L 175.193588 202.567066 
L 171.00259 205.509861 
L 166.932626 208.617898 
L 162.990206 211.886204 
L 159.181636 215.30955 
L 155.51301 218.88246 
L 151.990197 222.599218 
L 148.618833 226.453878 
L 145.404311 230.440274 
L 142.589514 234.219164 
L 147.674762 233.615215 
L 152.731791 232.808394 
L 157.75251 231.799991 
L 162.728889 230.59162 
L 167.652964 229.185213 
L 172.51686 227.583021 
L 177.312794 225.787606 
L 182.033095 223.801841 
L 186.670211 221.628903 
L 191.216723 219.272268 
L 195.665358 216.735706 
L 200.008999 214.023274 
L 202.008287 212.6916 
L 199.706741 217.266247 
L 197.589973 221.929271 
L 195.66137 226.673213 
L 193.924016 231.490485 
L 192.380692 236.373378 
L 191.033865 241.314083 
L 189.885691 246.304694 
L 188.938007 251.337228 
L 188.192329 256.403633 
L 187.64985 261.495806 
L 187.311437 266.605598 
L 187.177631 271.724836 
L 187.248648 276.84533 
L 187.524373 281.958888 
L 187.82656 285.408 
L 188.240455 280.303767 
L 188.449903 275.187066 
L 188.454571 270.066081 
L 188.25445 264.949007 
L 187.84986 259.844028 
L 187.24145 254.759312 
L 186.430192 249.702993 
L 185.417384 244.68316 
L 184.204646 239.707844 
L 182.793919 234.785004 
L 181.187459 229.922516 
L 179.387836 225.128159 
L 177.39793 220.409603 
L 175.220924 215.774395 
L 172.8603 211.229953 
L 170.319835 206.783545 
L 167.603594 202.442286 
L 164.715921 198.21312 
L 161.661436 194.102813 
L 158.445026 190.11794 
L 155.071837 186.264877 
L 151.547264 182.549788 
L 147.876947 178.978615 
L 144.066756 175.557073 
L 140.122788 172.290635 
L 136.051353 169.184526 
L 131.858962 166.243715 
L 127.552325 163.472908 
L 123.138329 160.876537 
L 118.624037 158.458755 
L 117.679682 157.981931 
L 118.214716 158.333427 
L 122.556888 161.04821 
L 127.004149 163.587181 
L 131.549384 165.946277 
L 136.185323 168.121726 
L 140.904548 170.110047 
L 145.699509 171.908058 
L 150.562536 173.512884 
L 155.48585 174.921958 
L 160.461573 176.133023 
L 165.481746 177.144145 
L 170.538337 177.953704 
L 175.623258 178.560406 
L 180.728372 178.96328 
L 185.155433 179.146878 
L 184.528969 179.278616 
L 179.542565 180.444925 
L 174.60679 181.809704 
L 169.729539 183.37077 
L 164.918616 185.125626 
L 160.181716 187.071463 
L 155.526418 189.205169 
L 150.960169 191.523331 
L 146.490275 194.02224 
L 142.123885 196.697898 
L 137.867987 199.546025 
L 133.729387 202.562064 
L 129.714706 205.74119 
L 127.318037 207.768191 
L 132.123416 205.998209 
L 136.854171 204.037478 
L 141.502733 201.889137 
L 146.061666 199.556621 
L 150.523677 197.043662 
L 154.881627 194.35428 
L 159.128544 191.492778 
L 163.257635 188.463734 
L 167.262294 185.271993 
L 171.136113 181.922661 
L 174.872897 178.421097 
L 178.466666 174.772902 
L 181.911672 170.983913 
L 185.202403 167.060192 
L 185.562349 166.611083 
L 183.648761 161.861064 
L 181.546755 157.191367 
L 179.259691 152.609463 
L 176.79123 148.122683 
L 174.145319 143.738203 
L 171.326193 139.463039 
L 168.338361 135.304029 
L 165.186603 131.267828 
L 161.87596 127.360892 
L 158.411731 123.589471 
L 154.799455 119.959599 
L 151.044913 116.477084 
L 147.154111 113.147495 
L 144.70016 111.181089 
L 149.485746 113.003908 
L 154.340398 114.633897 
L 159.256348 116.068447 
L 164.225733 117.305265 
L 169.240602 118.34237 
L 174.292933 119.178105 
L 179.374643 119.811132 
L 184.477603 120.240439 
L 189.593648 120.465338 
L 194.714595 120.48547 
L 199.832251 120.300802 
L 204.938428 119.911631 
L 210.024959 119.318578 
L 215.083704 118.522593 
L 220.106573 117.524949 
L 225.085528 116.327241 
L 230.012606 114.931387 
L 234.879923 113.339618 
L 239.679693 111.554482 
L 244.404237 109.578834 
L 249.045997 107.415835 
L 253.597547 105.068945 
L 258.051606 102.541919 
L 262.401049 99.8388 
L 266.638916 96.963911 
L 270.758428 93.921853 
L 274.752996 90.717492 
L 278.616227 87.355953 
L 282.341943 83.842615 
L 285.924183 80.183099 
L 289.357216 76.383258 
L 292.63555 72.449173 
L 295.75394 68.387136 
L 298.707397 64.203645 
L 299.081135 63.648 
L 302.012671 67.84688 
L 304.769175 71.776207 
L 306.810758 76.472635 
L 309.038516 81.083666 
L 311.448883 85.601921 
L 314.038004 90.020173 
L 316.801738 94.331354 
L 319.735662 98.528566 
L 322.44928 102.399047 
L 324.490863 107.095476 
L 326.718621 111.706506 
L 329.128988 116.224761 
L 331.718109 120.643013 
L 334.481843 124.954194 
L 337.415767 129.151407 
L 340.129385 133.021887 
L 342.170968 137.718316 
L 344.398726 142.329346 
L 346.809093 146.847601 
L 349.398214 151.265853 
L 352.161948 155.577034 
L 355.095872 159.774247 
L 357.80949 163.644728 
L 359.851073 168.341156 
L 362.078831 172.952186 
L 363.516772 175.699599 
L 363.516772 175.699599 
" style="fill:none;stroke:#1f77b4;stroke-linecap:square;stroke-width:1.5;"/>
   </g>
   <g id="patch_4">
    <path d="M 82.520165 307.584 
L 82.520165 41.472 
" style="fill:none;stroke:#000000;stroke-linecap:square;stroke-linejoin:miter;stroke-width:0.8;"/>
   </g>
   <g id="patch_5">
    <path d="M 389.799835 307.584 
L 389.799835 41.472 
" style="fill:none;stroke:#000000;stroke-linecap:square;stroke-linejoin:miter;stroke-width:0.8;"/>
   </g>
   <g id="patch_6">
    <path d="M 82.520165 307.584 
L 389.799835 307.584 
" style="fill:none;stroke:#000000;stroke-linecap:square;stroke-linejoin:miter;stroke-width:0.8;"/>
   </g>
   <g id="patch_7">
    <path d="M 82.520165 41.472 
L 389.799835 41.472 
" style="fill:none;stroke:#000000;stroke-linecap:square;stroke-linejoin:miter;stroke-width:0.8;"/>
   </g>
  </g>
 </g>
 <defs>
  <clipPath id="p9b141ae445">
   <rect height="266.112" width="307.27967" x="82.520165" y="41.472"/>
  </clipPath>
 </defs>
</svg>
