<?xml version="1.0" encoding="utf-8" standalone="no"?>
<!DOCTYPE svg PUBLIC "-//W3C//DTD SVG 1.1//EN"
  "http://www.w3.org/Graphics/SVG/1.1/DTD/svg11.dtd">
<!-- Created with matplotlib (http://matplotlib.org/) -->
<svg height="345.6pt" version="1.1" viewBox="0 0 460.8 345.6" width="460.8pt" xmlns="http://www.w3.org/2000/svg" xmlns:xlink="http://www.w3.org/1999/xlink">
 <defs>
  <style type="text/css">
*{stroke-linecap:butt;stroke-linejoin:round;}
  </style>
 </defs>
 <g id="figure_1">
  <g id="patch_1">
   <path d="M 0 345.6 
L 460.8 345.6 
L 460.8 0 
L 0 0 
z
" style="fill:#ffffff;"/>
  </g>
  <g id="axes_1">
   <g id="patch_2">
    <path d="M 82.520165 307.584 
L 389.799835 307.584 
L 389.799835 41.472 
L 82.520165 41.472 
z
" style="fill:#ffffff;"/>
   </g>
   <g id="PathCollection_1">
    <defs>
     <path d="M 0 2.738613 
C 0.726289 2.738613 1.422928 2.450055 1.936492 1.936492 
C 2.450055 1.422928 2.738613 0.726289 2.738613 0 
C 2.738613 -0.726289 2.450055 -1.422928 1.936492 -1.936492 
C 1.422928 -2.450055 0.726289 -2.738613 0 -2.738613 
C -0.726289 -2.738613 -1.422928 -2.450055 -1.936492 -1.936492 
C -2.450055 -1.422928 -2.738613 -0.726289 -2.738613 0 
C -2.738613 0.726289 -2.450055 1.422928 -1.936492 1.936492 
C -1.422928 2.450055 -0.726289 2.738613 0 2.738613 
z
" id="m13fd204fd7" style="stroke:#000000;"/>
    </defs>
    <g clip-path="url(#pdb36456d3b)">
     <use style="stroke:#000000;" x="332.177232" xlink:href="#m13fd204fd7" y="119.074724"/>
    </g>
   </g>
   <g id="Quiver_1">
    <path clip-path="url(#pdb36456d3b)" d="M 332.93557 119.197415 
L 330.11368 136.639195 
L 331.753047 136.126239 
L 328.251124 143.341549 
L 327.203018 135.390093 
L 328.597003 136.393813 
L 331.418894 118.952033 
L 332.93557 119.197415 
"/>
   </g>
   <g id="patch_3">
    <path clip-path="url(#pdb36456d3b)" d="M 236.16 225.741278 
C 249.74192 225.741278 262.769389 220.345124 272.373256 210.741256 
C 281.977124 201.137389 287.373278 188.10992 287.373278 174.528 
C 287.373278 160.94608 281.977124 147.918611 272.373256 138.314744 
C 262.769389 128.710876 249.74192 123.314722 236.16 123.314722 
C 222.57808 123.314722 209.550611 128.710876 199.946744 138.314744 
C 190.342876 147.918611 184.946722 160.94608 184.946722 174.528 
C 184.946722 188.10992 190.342876 201.137389 199.946744 210.741256 
C 209.550611 220.345124 222.57808 225.741278 236.16 225.741278 
z
" style="fill:#009900;fill-opacity:0.5;stroke:#009900;stroke-linejoin:miter;stroke-width:2;"/>
   </g>
   <g id="matplotlib.axis_1">
    <g id="xtick_1">
     <g id="line2d_1">
      <defs>
       <path d="M 0 0 
L 0 3.5 
" id="mdcf1b59aba" style="stroke:#000000;stroke-width:0.8;"/>
      </defs>
      <g>
       <use style="stroke:#000000;stroke-width:0.8;" x="108.126804" xlink:href="#mdcf1b59aba" y="307.584"/>
      </g>
     </g>
     <g id="text_1">
      <!-- −2 -->
      <defs>
       <path d="M 10.59375 35.5 
L 73.1875 35.5 
L 73.1875 27.203125 
L 10.59375 27.203125 
z
" id="DejaVuSans-2212"/>
       <path d="M 19.1875 8.296875 
L 53.609375 8.296875 
L 53.609375 0 
L 7.328125 0 
L 7.328125 8.296875 
Q 12.9375 14.109375 22.625 23.890625 
Q 32.328125 33.6875 34.8125 36.53125 
Q 39.546875 41.84375 41.421875 45.53125 
Q 43.3125 49.21875 43.3125 52.78125 
Q 43.3125 58.59375 39.234375 62.25 
Q 35.15625 65.921875 28.609375 65.921875 
Q 23.96875 65.921875 18.8125 64.3125 
Q 13.671875 62.703125 7.8125 59.421875 
L 7.8125 69.390625 
Q 13.765625 71.78125 18.9375 73 
Q 24.125 74.21875 28.421875 74.21875 
Q 39.75 74.21875 46.484375 68.546875 
Q 53.21875 62.890625 53.21875 53.421875 
Q 53.21875 48.921875 51.53125 44.890625 
Q 49.859375 40.875 45.40625 35.40625 
Q 44.1875 33.984375 37.640625 27.21875 
Q 31.109375 20.453125 19.1875 8.296875 
z
" id="DejaVuSans-32"/>
      </defs>
      <g transform="translate(100.755711 322.182437)scale(0.1 -0.1)">
       <use xlink:href="#DejaVuSans-2212"/>
       <use x="83.789062" xlink:href="#DejaVuSans-32"/>
      </g>
     </g>
    </g>
    <g id="xtick_2">
     <g id="line2d_2">
      <g>
       <use style="stroke:#000000;stroke-width:0.8;" x="172.143402" xlink:href="#mdcf1b59aba" y="307.584"/>
      </g>
     </g>
     <g id="text_2">
      <!-- −1 -->
      <defs>
       <path d="M 12.40625 8.296875 
L 28.515625 8.296875 
L 28.515625 63.921875 
L 10.984375 60.40625 
L 10.984375 69.390625 
L 28.421875 72.90625 
L 38.28125 72.90625 
L 38.28125 8.296875 
L 54.390625 8.296875 
L 54.390625 0 
L 12.40625 0 
z
" id="DejaVuSans-31"/>
      </defs>
      <g transform="translate(164.772308 322.182437)scale(0.1 -0.1)">
       <use xlink:href="#DejaVuSans-2212"/>
       <use x="83.789062" xlink:href="#DejaVuSans-31"/>
      </g>
     </g>
    </g>
    <g id="xtick_3">
     <g id="line2d_3">
      <g>
       <use style="stroke:#000000;stroke-width:0.8;" x="236.16" xlink:href="#mdcf1b59aba" y="307.584"/>
      </g>
     </g>
     <g id="text_3">
      <!-- 0 -->
      <defs>
       <path d="M 31.78125 66.40625 
Q 24.171875 66.40625 20.328125 58.90625 
Q 16.5 51.421875 16.5 36.375 
Q 16.5 21.390625 20.328125 13.890625 
Q 24.171875 6.390625 31.78125 6.390625 
Q 39.453125 6.390625 43.28125 13.890625 
Q 47.125 21.390625 47.125 36.375 
Q 47.125 51.421875 43.28125 58.90625 
Q 39.453125 66.40625 31.78125 66.40625 
z
M 31.78125 74.21875 
Q 44.046875 74.21875 50.515625 64.515625 
Q 56.984375 54.828125 56.984375 36.375 
Q 56.984375 17.96875 50.515625 8.265625 
Q 44.046875 -1.421875 31.78125 -1.421875 
Q 19.53125 -1.421875 13.0625 8.265625 
Q 6.59375 17.96875 6.59375 36.375 
Q 6.59375 54.828125 13.0625 64.515625 
Q 19.53125 74.21875 31.78125 74.21875 
z
" id="DejaVuSans-30"/>
      </defs>
      <g transform="translate(232.97875 322.182437)scale(0.1 -0.1)">
       <use xlink:href="#DejaVuSans-30"/>
      </g>
     </g>
    </g>
    <g id="xtick_4">
     <g id="line2d_4">
      <g>
       <use style="stroke:#000000;stroke-width:0.8;" x="300.176598" xlink:href="#mdcf1b59aba" y="307.584"/>
      </g>
     </g>
     <g id="text_4">
      <!-- 1 -->
      <g transform="translate(296.995348 322.182437)scale(0.1 -0.1)">
       <use xlink:href="#DejaVuSans-31"/>
      </g>
     </g>
    </g>
    <g id="xtick_5">
     <g id="line2d_5">
      <g>
       <use style="stroke:#000000;stroke-width:0.8;" x="364.193196" xlink:href="#mdcf1b59aba" y="307.584"/>
      </g>
     </g>
     <g id="text_5">
      <!-- 2 -->
      <g transform="translate(361.011946 322.182437)scale(0.1 -0.1)">
       <use xlink:href="#DejaVuSans-32"/>
      </g>
     </g>
    </g>
   </g>
   <g id="matplotlib.axis_2">
    <g id="ytick_1">
     <g id="line2d_6">
      <defs>
       <path d="M 0 0 
L -3.5 0 
" id="m25cadf2235" style="stroke:#000000;stroke-width:0.8;"/>
      </defs>
      <g>
       <use style="stroke:#000000;stroke-width:0.8;" x="82.520165" xlink:href="#m25cadf2235" y="302.561196"/>
      </g>
     </g>
     <g id="text_6">
      <!-- −2.0 -->
      <defs>
       <path d="M 10.6875 12.40625 
L 21 12.40625 
L 21 0 
L 10.6875 0 
z
" id="DejaVuSans-2e"/>
      </defs>
      <g transform="translate(51.237353 306.360414)scale(0.1 -0.1)">
       <use xlink:href="#DejaVuSans-2212"/>
       <use x="83.789062" xlink:href="#DejaVuSans-32"/>
       <use x="147.412109" xlink:href="#DejaVuSans-2e"/>
       <use x="179.199219" xlink:href="#DejaVuSans-30"/>
      </g>
     </g>
    </g>
    <g id="ytick_2">
     <g id="line2d_7">
      <g>
       <use style="stroke:#000000;stroke-width:0.8;" x="82.520165" xlink:href="#m25cadf2235" y="270.552897"/>
      </g>
     </g>
     <g id="text_7">
      <!-- −1.5 -->
      <defs>
       <path d="M 10.796875 72.90625 
L 49.515625 72.90625 
L 49.515625 64.59375 
L 19.828125 64.59375 
L 19.828125 46.734375 
Q 21.96875 47.46875 24.109375 47.828125 
Q 26.265625 48.1875 28.421875 48.1875 
Q 40.625 48.1875 47.75 41.5 
Q 54.890625 34.8125 54.890625 23.390625 
Q 54.890625 11.625 47.5625 5.09375 
Q 40.234375 -1.421875 26.90625 -1.421875 
Q 22.3125 -1.421875 17.546875 -0.640625 
Q 12.796875 0.140625 7.71875 1.703125 
L 7.71875 11.625 
Q 12.109375 9.234375 16.796875 8.0625 
Q 21.484375 6.890625 26.703125 6.890625 
Q 35.15625 6.890625 40.078125 11.328125 
Q 45.015625 15.765625 45.015625 23.390625 
Q 45.015625 31 40.078125 35.4375 
Q 35.15625 39.890625 26.703125 39.890625 
Q 22.75 39.890625 18.8125 39.015625 
Q 14.890625 38.140625 10.796875 36.28125 
z
" id="DejaVuSans-35"/>
      </defs>
      <g transform="translate(51.237353 274.352116)scale(0.1 -0.1)">
       <use xlink:href="#DejaVuSans-2212"/>
       <use x="83.789062" xlink:href="#DejaVuSans-31"/>
       <use x="147.412109" xlink:href="#DejaVuSans-2e"/>
       <use x="179.199219" xlink:href="#DejaVuSans-35"/>
      </g>
     </g>
    </g>
    <g id="ytick_3">
     <g id="line2d_8">
      <g>
       <use style="stroke:#000000;stroke-width:0.8;" x="82.520165" xlink:href="#m25cadf2235" y="238.544598"/>
      </g>
     </g>
     <g id="text_8">
      <!-- −1.0 -->
      <g transform="translate(51.237353 242.343817)scale(0.1 -0.1)">
       <use xlink:href="#DejaVuSans-2212"/>
       <use x="83.789062" xlink:href="#DejaVuSans-31"/>
       <use x="147.412109" xlink:href="#DejaVuSans-2e"/>
       <use x="179.199219" xlink:href="#DejaVuSans-30"/>
      </g>
     </g>
    </g>
    <g id="ytick_4">
     <g id="line2d_9">
      <g>
       <use style="stroke:#000000;stroke-width:0.8;" x="82.520165" xlink:href="#m25cadf2235" y="206.536299"/>
      </g>
     </g>
     <g id="text_9">
      <!-- −0.5 -->
      <g transform="translate(51.237353 210.335518)scale(0.1 -0.1)">
       <use xlink:href="#DejaVuSans-2212"/>
       <use x="83.789062" xlink:href="#DejaVuSans-30"/>
       <use x="147.412109" xlink:href="#DejaVuSans-2e"/>
       <use x="179.199219" xlink:href="#DejaVuSans-35"/>
      </g>
     </g>
    </g>
    <g id="ytick_5">
     <g id="line2d_10">
      <g>
       <use style="stroke:#000000;stroke-width:0.8;" x="82.520165" xlink:href="#m25cadf2235" y="174.528"/>
      </g>
     </g>
     <g id="text_10">
      <!-- 0.0 -->
      <g transform="translate(59.61704 178.327219)scale(0.1 -0.1)">
       <use xlink:href="#DejaVuSans-30"/>
       <use x="63.623047" xlink:href="#DejaVuSans-2e"/>
       <use x="95.410156" xlink:href="#DejaVuSans-30"/>
      </g>
     </g>
    </g>
    <g id="ytick_6">
     <g id="line2d_11">
      <g>
       <use style="stroke:#000000;stroke-width:0.8;" x="82.520165" xlink:href="#m25cadf2235" y="142.519701"/>
      </g>
     </g>
     <g id="text_11">
      <!-- 0.5 -->
      <g transform="translate(59.61704 146.31892)scale(0.1 -0.1)">
       <use xlink:href="#DejaVuSans-30"/>
       <use x="63.623047" xlink:href="#DejaVuSans-2e"/>
       <use x="95.410156" xlink:href="#DejaVuSans-35"/>
      </g>
     </g>
    </g>
    <g id="ytick_7">
     <g id="line2d_12">
      <g>
       <use style="stroke:#000000;stroke-width:0.8;" x="82.520165" xlink:href="#m25cadf2235" y="110.511402"/>
      </g>
     </g>
     <g id="text_12">
      <!-- 1.0 -->
      <g transform="translate(59.61704 114.310621)scale(0.1 -0.1)">
       <use xlink:href="#DejaVuSans-31"/>
       <use x="63.623047" xlink:href="#DejaVuSans-2e"/>
       <use x="95.410156" xlink:href="#DejaVuSans-30"/>
      </g>
     </g>
    </g>
    <g id="ytick_8">
     <g id="line2d_13">
      <g>
       <use style="stroke:#000000;stroke-width:0.8;" x="82.520165" xlink:href="#m25cadf2235" y="78.503103"/>
      </g>
     </g>
     <g id="text_13">
      <!-- 1.5 -->
      <g transform="translate(59.61704 82.302322)scale(0.1 -0.1)">
       <use xlink:href="#DejaVuSans-31"/>
       <use x="63.623047" xlink:href="#DejaVuSans-2e"/>
       <use x="95.410156" xlink:href="#DejaVuSans-35"/>
      </g>
     </g>
    </g>
    <g id="ytick_9">
     <g id="line2d_14">
      <g>
       <use style="stroke:#000000;stroke-width:0.8;" x="82.520165" xlink:href="#m25cadf2235" y="46.494804"/>
      </g>
     </g>
     <g id="text_14">
      <!-- 2.0 -->
      <g transform="translate(59.61704 50.294023)scale(0.1 -0.1)">
       <use xlink:href="#DejaVuSans-32"/>
       <use x="63.623047" xlink:href="#DejaVuSans-2e"/>
       <use x="95.410156" xlink:href="#DejaVuSans-30"/>
      </g>
     </g>
    </g>
   </g>
   <g id="line2d_15">
    <path clip-path="url(#pdb36456d3b)" d="M 300.176598 63.648 
L 172.143402 63.648 
" style="fill:none;stroke:#009900;stroke-linecap:square;stroke-width:2;"/>
   </g>
   <g id="line2d_16">
    <path clip-path="url(#pdb36456d3b)" d="M 172.143402 63.648 
L 108.126804 174.528 
" style="fill:none;stroke:#009900;stroke-linecap:square;stroke-width:2;"/>
   </g>
   <g id="line2d_17">
    <path clip-path="url(#pdb36456d3b)" d="M 108.126804 174.528 
L 172.143402 285.408 
" style="fill:none;stroke:#009900;stroke-linecap:square;stroke-width:2;"/>
   </g>
   <g id="line2d_18">
    <path clip-path="url(#pdb36456d3b)" d="M 172.143402 285.408 
L 300.176598 285.408 
" style="fill:none;stroke:#009900;stroke-linecap:square;stroke-width:2;"/>
   </g>
   <g id="line2d_19">
    <path clip-path="url(#pdb36456d3b)" d="M 300.176598 285.408 
L 364.193196 174.528 
" style="fill:none;stroke:#009900;stroke-linecap:square;stroke-width:2;"/>
   </g>
   <g id="line2d_20">
    <path clip-path="url(#pdb36456d3b)" d="M 364.193196 174.528 
L 300.176598 63.648 
" style="fill:none;stroke:#009900;stroke-linecap:square;stroke-width:2;"/>
   </g>
   <g id="line2d_21">
    <path clip-path="url(#pdb36456d3b)" d="M 161.455479 207.027564 
L 156.378659 206.356452 
L 151.279061 205.888894 
L 146.164846 205.625641 
L 141.044194 205.567112 
L 135.925297 205.713401 
L 130.816346 206.064275 
L 126.591728 206.510185 
L 129.589458 202.358304 
L 132.418759 198.089867 
L 135.075105 193.711702 
L 137.554247 189.230814 
L 139.852217 184.654371 
L 141.965341 179.989694 
L 143.890237 175.244246 
L 145.623826 170.425618 
L 147.163335 165.54152 
L 148.5063 160.599765 
L 149.650574 155.608258 
L 150.594325 150.574985 
L 151.336044 145.507999 
L 151.874545 140.415404 
L 152.208965 135.305349 
L 152.33877 130.186008 
L 152.263752 125.065571 
L 151.984032 119.95223 
L 151.500056 114.854164 
L 150.812599 109.779531 
L 149.92276 104.736448 
L 149.529095 102.817129 
L 154.367682 101.140056 
L 159.135334 99.270832 
L 163.824423 97.212449 
L 168.427448 94.968198 
L 172.937045 92.54167 
L 177.346 89.936748 
L 181.647259 87.157598 
L 185.833941 84.208667 
L 189.899348 81.094672 
L 193.836977 77.820595 
L 197.640528 74.391673 
L 201.303916 70.813393 
L 204.821281 67.091479 
L 207.837023 63.648 
L 211.219098 67.493266 
L 214.752237 71.20021 
L 218.430788 74.7629 
L 222.248866 78.175638 
L 226.200363 81.432964 
L 230.278958 84.529666 
L 234.478126 87.460791 
L 238.791148 90.22165 
L 243.211125 92.807825 
L 247.730987 95.21518 
L 252.343501 97.439863 
L 257.041289 99.478315 
L 261.816836 101.327275 
L 266.662502 102.983785 
L 271.570534 104.445195 
L 276.533082 105.709167 
L 281.542205 106.773679 
L 286.589891 107.637028 
L 291.668063 108.297833 
L 296.768599 108.755037 
L 301.883339 109.007908 
L 307.004099 109.056041 
L 312.122688 108.899361 
L 317.230917 108.538116 
L 322.320614 107.972886 
L 325.502762 107.514204 
L 322.365787 111.561906 
L 319.393187 115.731815 
L 316.589716 120.017262 
L 313.959859 124.411389 
L 311.507825 128.907168 
L 309.237535 133.497406 
L 307.152622 138.17476 
L 305.25642 142.931747 
L 303.551964 147.760756 
L 302.04198 152.654063 
L 300.728885 157.603839 
L 299.614777 162.602165 
L 298.701441 167.641046 
L 297.990337 172.71242 
L 297.482602 177.808174 
L 297.17905 182.920155 
L 297.080165 188.040187 
L 297.186105 193.160077 
L 297.496702 198.271636 
L 298.011459 203.366685 
L 298.729551 208.437074 
L 299.64983 213.474692 
L 300.770824 218.471478 
L 302.09074 223.41944 
L 303.607465 228.310661 
L 305.318574 233.137317 
L 307.221329 237.891686 
L 309.312686 242.566162 
L 311.5893 247.153267 
L 314.047527 251.645663 
L 316.918826 256.40961 
L 311.79892 256.304441 
L 306.678903 256.404099 
L 301.566967 256.708423 
L 296.47129 257.216927 
L 291.400024 257.928796 
L 286.361281 258.842893 
L 281.363123 259.957754 
L 276.413545 261.271597 
L 271.520466 262.782319 
L 266.691714 264.487504 
L 261.935014 266.384423 
L 257.257975 268.470042 
L 252.668079 270.741025 
L 248.17267 273.193738 
L 243.77894 275.824257 
L 239.493916 278.628375 
L 235.324455 281.601605 
L 231.277227 284.73919 
L 230.456227 285.408 
L 226.435087 282.237048 
L 222.290359 279.229436 
L 218.028674 276.389974 
L 213.65685 273.723205 
L 209.181881 271.233395 
L 204.610925 268.924529 
L 199.951296 266.800298 
L 195.210447 264.864103 
L 190.395963 263.119039 
L 185.515546 261.567899 
L 180.577004 260.213165 
L 175.588238 259.057003 
L 170.557227 258.101264 
L 165.492022 257.347475 
L 160.400725 256.796844 
L 155.428458 256.456868 
L 157.677996 251.856424 
L 159.741765 247.169703 
L 161.616465 242.404201 
L 163.299095 237.567544 
L 164.786966 232.667468 
L 166.077695 227.711813 
L 167.169219 222.708506 
L 168.05979 217.665552 
L 168.747985 212.591019 
L 169.232702 207.493024 
L 169.513166 202.379723 
L 169.588928 197.259297 
L 169.459867 192.139938 
L 169.126189 187.029834 
L 168.588429 181.937161 
L 167.847447 176.870066 
L 166.904427 171.836656 
L 165.760879 166.844983 
L 164.418632 161.903033 
L 162.879833 157.018711 
L 161.146944 152.199832 
L 159.222738 147.454104 
L 157.110292 142.78912 
L 154.812987 138.212343 
L 152.334497 133.731094 
L 149.678787 129.352543 
L 146.850106 125.083695 
L 143.85298 120.931378 
L 141.104373 117.409175 
L 146.177724 118.106037 
L 151.274883 118.599462 
L 156.387697 118.888661 
L 161.507986 118.97317 
L 166.627559 118.852854 
L 171.738225 118.527906 
L 176.831809 117.998847 
L 181.900162 117.266521 
L 186.935176 116.332101 
L 191.928795 115.197082 
L 196.873031 113.863279 
L 201.759975 112.332826 
L 206.581807 110.608172 
L 211.330815 108.692075 
L 215.999401 106.587602 
L 220.580096 104.298118 
L 225.065572 101.827287 
L 229.448653 99.17906 
L 233.722327 96.357676 
L 237.879758 93.367647 
L 241.914293 90.213757 
L 245.81948 86.901051 
L 249.58907 83.434829 
L 253.217033 79.820637 
L 256.697564 76.064255 
L 260.025097 72.171695 
L 263.194307 68.149182 
L 266.446034 63.648 
L 269.437845 67.804148 
L 272.593465 71.837331 
L 275.907846 75.741096 
L 279.375684 79.509199 
L 282.991432 83.135612 
L 286.749305 86.614532 
L 290.643293 89.940395 
L 294.667165 93.10788 
L 298.814483 96.111918 
L 303.078614 98.947706 
L 307.452735 101.610705 
L 311.929849 104.096656 
L 316.502793 106.401582 
L 321.164252 108.521795 
L 325.906768 110.453904 
L 327.559038 111.075778 
L 326.79115 116.138865 
L 326.226345 121.228609 
L 325.865528 126.336869 
L 325.709275 131.455471 
L 325.757837 136.576227 
L 326.011136 141.690945 
L 326.468766 146.791443 
L 327.129995 151.86956 
L 327.993766 156.917174 
L 329.058697 161.926208 
L 330.323084 166.888649 
L 331.784905 171.79656 
L 333.44182 176.642087 
L 335.291179 181.417479 
L 337.330024 186.115097 
L 339.555092 190.727426 
L 341.962825 195.247085 
L 344.549369 199.666847 
L 347.245515 203.882244 
L 342.129706 203.652034 
L 337.008783 203.626586 
L 331.890938 203.80594 
L 326.784359 204.189811 
L 321.697216 204.777583 
L 316.637647 205.568316 
L 311.613745 206.560746 
L 306.633549 207.753284 
L 301.705025 209.144023 
L 296.836059 210.730738 
L 292.034438 212.510891 
L 287.307846 214.481633 
L 282.663842 216.639812 
L 278.109858 218.981975 
L 273.653178 221.504376 
L 269.300932 224.202979 
L 265.060083 227.073466 
L 260.937415 230.111247 
L 256.939523 233.31146 
L 253.072804 236.668986 
L 249.343442 240.178454 
L 245.757406 243.83425 
L 242.32043 247.630524 
L 239.038014 251.561205 
L 235.915409 255.620002 
L 232.957611 259.800425 
L 230.16935 264.095783 
L 227.555089 268.499207 
L 225.119008 273.003651 
L 222.865006 277.601908 
L 220.796688 282.286624 
L 219.540459 285.408 
L 217.595958 280.670552 
L 215.463565 276.014652 
L 213.146691 271.447749 
L 210.649043 266.97715 
L 207.974617 262.610006 
L 205.127691 258.353304 
L 202.112819 254.213854 
L 198.934825 250.198277 
L 195.598793 246.312998 
L 192.11006 242.564233 
L 188.474206 238.957978 
L 184.69705 235.500003 
L 180.784632 232.195841 
L 176.743213 229.050776 
L 172.579257 226.069841 
L 168.299427 223.257804 
L 163.910568 220.619164 
L 159.419703 218.158142 
L 154.834015 215.878675 
L 150.160841 213.78441 
L 145.407656 211.878698 
L 140.582066 210.164586 
L 135.691789 208.644818 
L 130.744649 207.321824 
L 126.501387 206.353711 
L 127.996546 201.455854 
L 129.294647 196.502125 
L 130.393613 191.500447 
L 131.291687 186.458824 
L 131.987431 181.38532 
L 132.479732 176.288052 
L 132.767803 171.175175 
L 132.851184 166.054867 
L 132.72974 160.935321 
L 132.403665 155.824726 
L 131.873483 150.731259 
L 131.14004 145.663068 
L 130.20451 140.62826 
L 129.513786 137.484661 
L 134.38321 135.89935 
L 139.185344 134.120583 
L 143.912505 132.151204 
L 148.55713 129.994364 
L 153.11179 127.653514 
L 157.569197 125.132399 
L 161.922221 122.435052 
L 166.163898 119.565787 
L 170.287442 116.529196 
L 174.286257 113.330137 
L 178.153945 109.973726 
L 181.884318 106.465333 
L 185.471409 102.810572 
L 188.909479 99.015289 
L 192.193029 95.085556 
L 195.316804 91.027659 
L 198.275808 86.84809 
L 201.065308 82.553535 
L 203.680839 78.150866 
L 206.118219 73.647125 
L 208.373547 69.049517 
L 210.443216 64.365398 
L 210.740643 63.648 
L 212.781861 68.344587 
L 215.009261 72.95579 
L 217.419277 77.474233 
L 220.008055 81.892686 
L 222.771454 86.204081 
L 225.705052 90.401521 
L 228.804156 94.478292 
L 232.063809 98.42787 
L 235.478795 102.243937 
L 239.043651 105.920389 
L 242.752675 109.451344 
L 246.599933 112.831154 
L 250.579269 116.05441 
L 254.684319 119.115957 
L 258.908514 122.010897 
L 263.245097 124.734599 
L 267.68713 127.282705 
L 272.227507 129.651139 
L 276.858964 131.836111 
L 281.574092 133.834127 
L 286.365348 135.64199 
L 291.225067 137.256808 
L 296.145474 138.675997 
L 301.118697 139.897288 
L 306.136781 140.918725 
L 311.191698 141.738675 
L 316.275361 142.355827 
L 321.379636 142.769193 
L 326.496359 142.978112 
L 331.617344 142.982249 
L 336.734398 142.781598 
L 341.839335 142.37648 
L 345.397042 141.972106 
L 342.376903 146.107716 
L 339.524561 150.360791 
L 336.844578 154.724527 
L 334.341242 159.191943 
L 332.018557 163.755893 
L 329.880239 168.409074 
L 327.929709 173.144044 
L 326.170088 177.953226 
L 324.60419 182.828928 
L 323.234521 187.763349 
L 322.063272 192.748594 
L 321.092316 197.77669 
L 320.323207 202.839592 
L 319.757175 207.9292 
L 319.395126 213.037372 
L 319.237639 218.155936 
L 319.284966 223.276704 
L 319.537032 228.391483 
L 319.993432 233.492091 
L 320.653437 238.570368 
L 321.515991 243.618189 
L 322.249891 247.175935 
L 317.398594 248.815882 
L 312.616759 250.648516 
L 307.912034 252.670908 
L 303.291946 254.87982 
L 298.763887 257.27172 
L 294.335101 259.84278 
L 290.012672 262.588888 
L 285.803515 265.505651 
L 281.714365 268.588402 
L 277.751763 271.832209 
L 273.922048 275.231883 
L 270.231348 278.781986 
L 266.685565 282.476838 
L 264.065273 285.408 
L 260.63461 281.60602 
L 257.054653 277.944271 
L 253.331128 274.428611 
L 249.469993 271.064664 
L 245.477424 267.857813 
L 241.359809 264.813187 
L 237.123735 261.935657 
L 232.775979 259.229826 
L 228.323496 256.700024 
L 223.77341 254.350297 
L 219.132999 252.184404 
L 214.409688 250.205811 
L 209.611032 248.417683 
L 204.744708 246.82288 
L 199.818502 245.423954 
L 194.840294 244.223142 
L 189.818049 243.222366 
L 184.7598 242.423227 
L 179.673641 241.827003 
L 174.567707 241.434648 
L 169.450167 241.24679 
L 164.329209 241.263729 
L 159.213024 241.485439 
L 154.109798 241.911564 
L 149.027694 242.541422 
L 147.524836 242.767393 
L 150.659648 238.718016 
L 153.63002 234.546518 
L 156.431201 230.259574 
L 159.058709 225.864042 
L 161.508341 221.366953 
L 163.776177 216.775503 
L 165.858591 212.097036 
L 167.752251 207.339037 
L 169.454126 202.509117 
L 170.961495 197.615004 
L 172.271945 192.664527 
L 173.383382 187.665606 
L 174.294025 182.626238 
L 175.00242 177.554485 
L 175.507431 172.458461 
L 175.808252 167.346318 
L 175.904401 162.226234 
L 175.795725 157.106401 
L 175.482397 151.995009 
L 174.964918 146.900235 
L 174.244117 141.830231 
L 173.321146 136.793106 
L 172.197482 131.796919 
L 170.874922 126.849664 
L 169.355583 121.959253 
L 167.641896 117.133512 
L 165.7366 112.380161 
L 163.642746 107.706803 
L 161.363682 103.120915 
L 158.903054 98.629833 
L 156.264799 94.240743 
L 155.328092 92.772972 
L 160.446582 92.932845 
L 165.567371 92.887905 
L 170.682267 92.638224 
L 175.783088 92.184202 
L 180.861671 91.526565 
L 185.909895 90.666364 
L 190.919681 89.604976 
L 195.883016 88.344099 
L 200.791959 86.885751 
L 205.638657 85.232263 
L 210.415356 83.386282 
L 215.114415 81.350761 
L 219.728316 79.128955 
L 224.249677 76.72442 
L 228.671267 74.141002 
L 232.98601 71.382834 
L 237.187005 68.454329 
L 241.267531 65.360171 
L 243.387346 63.648 
L 247.401099 66.828297 
L 251.538819 69.845544 
L 255.793887 72.694912 
L 260.159495 75.371844 
L 264.628661 77.872056 
L 269.194233 80.19155 
L 273.848908 82.326614 
L 278.58524 84.273833 
L 283.395652 86.030092 
L 288.272447 87.592581 
L 293.207824 88.9588 
L 298.193887 90.126563 
L 303.222661 91.094004 
L 308.286099 91.859573 
L 313.376101 92.422046 
L 316.94642 92.694184 
L 314.758208 97.324112 
L 312.756894 102.037841 
L 310.945679 106.827831 
L 309.327462 111.686419 
L 307.904831 116.605831 
L 306.680062 121.578199 
L 305.655114 126.595568 
L 304.831627 131.649909 
L 304.210919 136.733139 
L 303.793982 141.837124 
L 303.581484 146.9537 
L 303.573764 152.07468 
L 303.770835 157.191874 
L 304.172382 162.297093 
L 304.777761 167.382171 
L 305.586005 172.438972 
L 306.595821 177.459408 
L 307.805593 182.435446 
L 309.213386 187.359126 
L 310.816947 192.22257 
L 312.613712 197.017999 
L 314.600805 201.737741 
L 316.775048 206.374245 
L 319.132963 210.920093 
L 321.670777 215.368014 
L 324.384431 219.710892 
L 327.269582 223.941779 
L 330.321617 228.053906 
L 332.037642 230.223053 
L 326.964287 229.526224 
L 321.867124 229.032831 
L 316.754308 228.743666 
L 311.634019 228.65919 
L 306.514447 228.779539 
L 301.403783 229.104519 
L 296.310202 229.633612 
L 291.241854 230.36597 
L 286.206846 231.300423 
L 281.213234 232.435474 
L 276.269007 233.769309 
L 271.382073 235.299794 
L 266.560252 237.024479 
L 261.811256 238.940606 
L 257.142684 241.04511 
L 252.562004 243.334623 
L 248.076544 245.805484 
L 243.69348 248.453738 
L 239.419824 251.27515 
L 235.262413 254.265206 
L 231.227897 257.419122 
L 227.322732 260.731853 
L 223.553165 264.198099 
L 219.925225 267.812315 
L 216.444718 271.568719 
L 213.11721 275.461301 
L 209.948027 279.483835 
L 206.942236 283.629884 
L 205.728668 285.408 
L 202.793012 281.211998 
L 199.69191 277.136748 
L 196.430321 273.188769 
L 193.013464 269.374376 
L 189.446806 265.699672 
L 185.736051 262.170536 
L 181.887137 258.792613 
L 177.906221 255.571308 
L 173.799671 252.511774 
L 169.574057 249.618905 
L 165.236139 246.89733 
L 160.792857 244.351402 
L 156.25132 241.985195 
L 151.618792 239.802493 
L 146.902685 237.806789 
L 144.01828 236.693859 
L 144.77053 231.628425 
L 145.319616 226.536961 
L 145.664658 221.427612 
L 145.805104 216.308552 
L 145.740731 211.18797 
L 145.47164 206.074058 
L 144.998263 200.974998 
L 144.321356 195.898946 
L 143.442003 190.854024 
L 142.36161 185.848302 
L 141.081905 180.889788 
L 139.604937 175.986415 
L 137.933068 171.146028 
L 136.068972 166.376369 
L 134.015631 161.685069 
L 131.776331 157.079633 
L 129.354654 152.567429 
L 126.754474 148.155676 
L 124.973182 145.349217 
L 130.091044 145.528083 
L 135.211965 145.502146 
L 140.327752 145.271447 
L 145.430222 144.836356 
L 150.511211 144.197569 
L 155.562592 143.356108 
L 160.576282 142.313318 
L 165.544262 141.070868 
L 170.458582 139.630745 
L 175.311383 137.995254 
L 180.094899 136.167012 
L 184.801479 134.148942 
L 189.423593 131.944273 
L 193.953847 129.556532 
L 198.384992 126.98954 
L 202.709941 124.247402 
L 206.921774 121.334506 
L 211.013754 118.255511 
L 214.979333 115.015344 
L 218.812168 111.619188 
L 222.506127 108.072475 
L 226.055301 104.380881 
L 229.454011 100.550311 
L 232.696821 96.586892 
L 235.778542 92.496966 
L 238.694245 88.287076 
L 241.439265 83.963956 
L 244.009211 79.534522 
L 246.39997 75.005861 
L 248.60772 70.385218 
L 250.628927 65.679984 
L 251.433928 63.648 
L 253.374521 68.387051 
L 255.503073 73.044707 
L 257.816179 77.613519 
L 260.310139 82.086177 
L 262.980963 86.455525 
L 265.824377 90.714574 
L 268.835834 94.856509 
L 272.010515 98.874706 
L 275.343341 102.762735 
L 278.828981 106.514376 
L 282.461859 110.123628 
L 286.236163 113.584717 
L 290.145854 116.892105 
L 294.184678 120.040502 
L 298.346174 123.024871 
L 302.623683 125.840437 
L 307.010364 128.482696 
L 311.499198 130.947421 
L 316.083005 133.230669 
L 320.75445 135.328787 
L 325.506061 137.238419 
L 330.330236 138.95651 
L 335.219258 140.480311 
L 340.165305 141.807384 
L 345.160464 142.935607 
L 346.057532 143.116109 
L 344.502112 147.995163 
L 343.143046 152.932515 
L 341.982509 157.920266 
L 341.022357 162.950436 
L 340.264126 168.014978 
L 339.70903 173.10579 
L 339.357955 178.214728 
L 339.211465 183.333619 
L 339.269792 188.454273 
L 339.532845 193.568499 
L 340.000201 198.668115 
L 340.671114 203.744962 
L 341.54451 208.790919 
L 342.306242 212.437317 
L 337.450258 214.063331 
L 332.663181 215.882232 
L 327.952671 217.89111 
L 323.326262 220.086752 
L 318.791355 222.465644 
L 314.355207 225.023981 
L 310.024913 227.75767 
L 305.807402 230.662339 
L 301.70942 233.733339 
L 297.737523 236.965759 
L 293.898065 240.354426 
L 290.197189 243.89392 
L 286.640816 247.578579 
L 283.234634 251.402507 
L 279.984093 255.359588 
L 276.894393 259.44349 
L 273.970477 263.64768 
L 271.217023 267.965433 
L 268.638435 272.389842 
L 266.238839 276.913827 
L 264.022074 281.530151 
L 262.33128 285.408 
L 260.268234 280.72096 
L 258.019408 276.120168 
L 255.588397 271.612986 
L 252.979092 267.206624 
L 250.195667 262.908131 
L 247.242574 258.724383 
L 244.124538 254.662074 
L 240.846547 250.727703 
L 237.413845 246.927563 
L 233.831924 243.267735 
L 230.106514 239.754073 
L 226.243575 236.392198 
L 222.249287 233.187488 
L 218.13004 230.145071 
L 213.892423 227.269813 
L 209.543216 224.566315 
L 205.089377 222.038901 
L 200.538031 219.691615 
L 195.89646 217.528212 
L 191.172088 215.552152 
L 186.372473 213.766598 
L 181.505295 212.174405 
L 176.578339 210.778122 
L 171.599488 209.57998 
L 166.576707 208.581898 
L 161.51803 207.785472 
L 156.431552 207.191977 
L 151.325408 206.80236 
L 146.207768 206.617247 
L 141.08682 206.636933 
L 135.970755 206.861387 
L 130.867758 207.290248 
L 127.287026 207.714478 
L 130.327181 203.593561 
L 133.200111 199.354366 
L 135.901221 195.003675 
L 138.426188 190.548449 
L 140.770975 185.995814 
L 142.931829 181.353055 
L 144.905293 176.627599 
L 146.688212 171.827005 
L 148.277731 166.958953 
L 149.671309 162.031231 
L 150.866716 157.051723 
L 151.86204 152.028394 
L 152.655687 146.969281 
L 153.24639 141.882477 
L 153.633202 136.77612 
L 153.815504 131.65838 
L 153.793006 126.537443 
L 153.565743 121.421502 
L 153.134079 116.318741 
L 152.498704 111.237324 
L 151.660635 106.185379 
L 150.580968 100.995232 
L 155.445526 99.395053 
L 160.242203 97.601623 
L 164.963326 95.617812 
L 169.60134 93.446793 
L 174.148827 91.09204 
L 178.598512 88.557319 
L 182.943275 85.846686 
L 187.176167 82.964477 
L 191.290415 79.915303 
L 195.279438 76.704042 
L 199.136854 73.335831 
L 202.856492 69.816059 
L 206.432401 66.150356 
L 208.716214 63.648 
L 212.193882 67.407032 
L 215.81909 71.023988 
L 219.586038 74.493081 
L 223.488699 77.808762 
L 227.52083 80.965725 
L 231.675981 83.958921 
L 235.947505 86.783561 
L 240.328567 89.435126 
L 244.812159 91.909375 
L 249.391108 94.202348 
L 254.058088 96.310378 
L 258.805635 98.230093 
L 263.626152 99.958421 
L 268.511928 101.492597 
L 273.455146 102.830166 
L 278.447899 103.96899 
L 283.482199 104.907247 
L 288.549993 105.643434 
L 293.643172 106.176375 
L 298.753589 106.505216 
L 303.873069 106.629433 
L 308.993421 106.548825 
L 314.106454 106.263523 
L 319.203988 105.773982 
L 324.112839 105.106787 
L 320.98103 109.158486 
L 318.013751 113.332184 
L 315.215748 117.621203 
L 312.591499 122.018682 
L 310.145201 126.517585 
L 307.880768 131.110715 
L 305.801822 135.790724 
L 303.91169 140.550126 
L 302.213395 145.381305 
L 300.709654 150.276534 
L 299.402873 155.227981 
L 298.295142 160.227724 
L 297.388234 165.267766 
L 296.683599 170.340043 
L 296.182364 175.43644 
L 295.885332 180.548805 
L 295.792978 185.668958 
L 295.905449 190.788709 
L 296.222566 195.899868 
L 296.743821 200.994256 
L 297.46838 206.063725 
L 298.395084 211.100165 
L 299.522451 216.095517 
L 300.848677 221.041791 
L 302.37164 225.931074 
L 304.088904 230.755543 
L 305.997722 235.507481 
L 308.09504 240.179286 
L 310.377502 244.763484 
L 312.841458 249.25274 
L 315.482965 253.639874 
L 317.085507 256.120909 
L 311.968916 255.908781 
L 306.847935 255.901431 
L 301.730757 256.098872 
L 296.625566 256.500788 
L 291.540532 257.106535 
L 286.483789 257.915144 
L 281.463426 258.925323 
L 276.487476 260.135455 
L 271.563898 261.543603 
L 266.700569 263.147516 
L 261.90527 264.944627 
L 257.185672 266.932062 
L 252.549325 269.10664 
L 248.003647 271.464883 
L 243.55591 274.003019 
L 239.213228 276.716986 
L 234.98255 279.602444 
L 230.870644 282.654775 
L 227.436261 285.408 
L 223.431707 282.216128 
L 219.302715 279.186948 
L 215.055891 276.325307 
L 210.698029 273.635782 
L 206.236101 271.122677 
L 201.677245 268.790012 
L 197.028753 266.641518 
L 192.298062 264.680633 
L 187.492742 262.910493 
L 182.620478 261.333931 
L 177.689066 259.953469 
L 172.706394 258.771314 
L 167.680435 257.789359 
L 162.619228 257.009175 
L 157.530871 256.432008 
L 155.305642 256.244144 
L 157.43156 251.585284 
L 159.369472 246.845137 
L 161.116279 242.031285 
L 162.669186 237.15143 
L 164.025709 232.213379 
L 165.183677 227.225032 
L 166.141239 222.194368 
L 166.896861 217.129436 
L 167.449336 212.038338 
L 167.797779 206.92922 
L 167.941634 201.810255 
L 167.880669 196.689631 
L 167.614983 191.575542 
L 167.145 186.476167 
L 166.471472 181.399666 
L 165.595478 176.35416 
L 164.518417 171.34772 
L 163.242014 166.388355 
L 161.768311 161.484 
L 160.099664 156.6425 
L 158.238743 151.871601 
L 156.188526 147.178936 
L 153.952293 142.57201 
L 151.53362 138.058195 
L 148.936378 133.644712 
L 146.16472 129.338621 
L 143.223083 125.146812 
L 140.11617 121.075989 
L 139.459805 120.257651 
L 144.533158 120.954496 
L 149.630319 121.447905 
L 154.743134 121.737086 
L 159.863423 121.821578 
L 164.982995 121.701246 
L 170.093661 121.376281 
L 175.187243 120.847205 
L 180.255593 120.114862 
L 185.290604 119.180426 
L 190.284219 118.04539 
L 195.228451 116.711571 
L 200.11539 115.181102 
L 204.937216 113.456432 
L 209.686218 111.54032 
L 214.354797 109.435831 
L 218.935484 107.146332 
L 223.420952 104.675486 
L 227.804024 102.027245 
L 232.077689 99.205847 
L 236.23511 96.215804 
L 240.269635 93.0619 
L 244.174811 89.749182 
L 247.94439 86.282948 
L 251.57234 82.668743 
L 255.05286 78.91235 
L 258.380379 75.019778 
L 261.549576 70.997255 
L 264.555379 66.851215 
L 266.710419 63.648 
L 269.589852 67.882781 
L 272.636328 71.999028 
L 275.844973 75.990155 
L 279.210653 79.849779 
L 282.727986 83.571724 
L 286.391343 87.150036 
L 290.194864 90.578991 
L 294.132464 93.853102 
L 298.197844 96.967133 
L 302.3845 99.916101 
L 306.685735 102.695288 
L 311.094667 105.300249 
L 315.604243 107.726816 
L 320.207248 109.971107 
L 324.89632 112.029531 
L 329.058955 113.673711 
L 328.319508 118.741029 
L 327.78329 123.833865 
L 327.45116 128.944069 
L 327.32365 134.063468 
L 327.400963 139.183871 
L 327.682976 144.297086 
L 328.169237 149.394934 
L 328.858969 154.469259 
L 329.751068 159.511943 
L 330.844107 164.514919 
L 332.136337 169.470183 
L 333.625692 174.369808 
L 335.309788 179.205955 
L 337.185931 183.970889 
L 339.251119 188.656985 
L 341.50205 193.256747 
L 343.935122 197.762817 
L 346.546442 202.167985 
L 347.427076 203.567772 
L 342.307615 203.442751 
L 337.187251 203.522554 
L 332.074173 203.807053 
L 326.976563 204.295794 
L 321.902574 204.987993 
L 316.860324 205.882544 
L 311.857881 206.978016 
L 306.903245 208.272656 
L 302.004345 209.764392 
L 297.169017 211.45084 
L 292.404997 213.3293 
L 287.719906 215.396767 
L 283.121238 217.649934 
L 278.616352 220.085197 
L 274.212454 222.698659 
L 269.91659 225.48614 
L 265.735631 228.443179 
L 261.676266 231.565047 
L 257.74499 234.84675 
L 253.948091 238.283036 
L 250.291645 241.868409 
L 246.7815 245.597133 
L 243.423271 249.463243 
L 240.222333 253.460554 
L 237.183804 257.58267 
L 234.312547 261.822998 
L 231.613154 266.174754 
L 229.089944 270.630976 
L 226.746954 275.184535 
L 224.587932 279.828146 
L 222.616331 284.554381 
L 222.283638 285.408 
L 220.345907 280.667778 
L 218.220168 276.008837 
L 215.909822 271.438629 
L 213.418563 266.964466 
L 210.750379 262.593506 
L 207.909537 258.332741 
L 204.900583 254.188987 
L 201.728329 250.168874 
L 198.397851 246.278833 
L 194.914477 242.525087 
L 191.28378 238.913642 
L 187.511567 235.450274 
L 183.603874 232.140526 
L 179.566952 228.98969 
L 175.40726 226.002809 
L 171.131451 223.18466 
L 166.746366 220.539753 
L 162.259022 218.072317 
L 157.676595 215.786301 
L 153.006418 213.685362 
L 148.255961 211.772861 
L 143.432824 210.051857 
L 138.544724 208.525104 
L 133.599479 207.195044 
L 128.605002 206.063805 
L 126.045941 205.564855 
L 127.662777 200.705808 
L 129.084009 195.785991 
L 130.307364 190.813275 
L 131.330885 185.795615 
L 132.152935 180.741039 
L 132.772198 175.657634 
L 133.187683 170.55353 
L 133.398726 165.436894 
L 133.40499 160.315911 
L 133.206464 155.198775 
L 132.803466 150.09367 
L 132.196641 145.008764 
L 131.386958 139.952193 
L 130.544034 135.70022 
L 135.387102 134.03613 
L 140.15975 132.1797 
L 144.854343 130.1339 
L 149.463371 127.902003 
L 153.97946 125.487579 
L 158.395385 122.894491 
L 162.704082 120.126888 
L 166.898658 117.189196 
L 170.972403 114.086116 
L 174.918799 110.822611 
L 178.731533 107.403904 
L 182.404505 103.835462 
L 185.931839 100.122995 
L 189.307894 96.272441 
L 192.527266 92.289962 
L 195.584807 88.181927 
L 198.475624 83.95491 
L 201.195093 79.615672 
L 203.738864 75.171155 
L 206.102867 70.628469 
L 208.28332 65.994882 
L 209.3029 63.648 
L 211.390318 68.324236 
L 213.663066 72.913258 
L 216.117508 77.407723 
L 218.749718 81.800441 
L 221.555484 86.084386 
L 224.530317 90.252703 
L 227.66946 94.298724 
L 230.967889 98.215977 
L 234.420327 101.998194 
L 238.021253 105.639325 
L 241.764905 109.133545 
L 245.645294 112.475264 
L 249.656212 115.659136 
L 253.791242 118.680067 
L 258.04377 121.533224 
L 262.406992 124.214044 
L 266.873929 126.718236 
L 271.437433 129.041796 
L 276.090205 131.181006 
L 280.8248 133.132443 
L 285.633645 134.892986 
L 290.509046 136.459819 
L 295.443205 137.830434 
L 300.428226 139.002639 
L 305.456135 139.974558 
L 310.518889 140.744638 
L 315.608389 141.311645 
L 320.716492 141.674673 
L 325.835025 141.833141 
L 330.955802 141.786796 
L 336.070629 141.535711 
L 341.171325 141.080288 
L 344.635541 140.653148 
L 341.577673 144.760938 
L 338.686518 148.987726 
L 335.966703 153.326747 
L 333.422578 157.771061 
L 331.058214 162.313559 
L 328.877391 166.946972 
L 326.883601 171.663888 
L 325.080032 176.456762 
L 323.469569 181.317926 
L 322.054789 186.239602 
L 320.837955 191.213918 
L 319.821014 196.232915 
L 319.005593 201.288564 
L 318.392996 206.372778 
L 317.984204 211.477422 
L 317.77987 216.59433 
L 317.780321 221.715316 
L 317.985556 226.832189 
L 318.395248 231.93676 
L 319.00874 237.020866 
L 319.825052 242.076372 
L 320.842877 247.09519 
L 321.25865 248.892814 
L 316.380358 250.450623 
L 311.568264 252.202266 
L 306.830067 254.144941 
L 302.173345 256.275539 
L 297.60555 258.590651 
L 293.133988 261.086575 
L 288.765813 263.759317 
L 284.508014 266.604602 
L 280.367401 269.617878 
L 276.350599 272.794323 
L 272.464034 276.128857 
L 268.713924 279.616145 
L 265.106268 283.250607 
L 263.095723 285.408 
L 259.572732 281.691411 
L 255.903934 278.118678 
L 252.0952 274.695514 
L 248.152622 271.427398 
L 244.082509 268.319557 
L 239.89137 265.376963 
L 235.585912 262.604324 
L 231.173021 260.006075 
L 226.659758 257.586373 
L 222.053343 255.349088 
L 217.361145 253.297801 
L 212.59067 251.435792 
L 207.749551 249.766041 
L 202.845533 248.291219 
L 197.886459 247.013685 
L 192.880265 245.935482 
L 187.834958 245.058337 
L 182.758611 244.383652 
L 177.659344 243.912506 
L 172.545315 243.645653 
L 167.424706 243.58352 
L 162.305708 243.726207 
L 157.19651 244.073485 
L 152.105287 244.624798 
L 148.862318 245.08398 
L 151.990125 241.02919 
L 154.953282 236.852564 
L 157.747048 232.560784 
L 160.366954 228.160716 
L 162.808808 223.6594 
L 165.068704 219.064036 
L 167.143028 214.381976 
L 169.028459 209.62071 
L 170.721983 204.787856 
L 172.220889 199.891145 
L 173.52278 194.93841 
L 174.625574 189.937575 
L 175.527505 184.896641 
L 176.227131 179.823671 
L 176.723332 174.726781 
L 177.015316 169.614125 
L 177.102614 164.493883 
L 176.985087 159.374245 
L 176.662924 154.263403 
L 176.136639 149.169531 
L 175.407074 144.10078 
L 174.475397 139.065258 
L 173.343098 134.071022 
L 172.011989 129.12606 
L 170.484199 124.238283 
L 168.762171 119.415512 
L 166.848662 114.665461 
L 164.746732 109.995729 
L 162.459744 105.413788 
L 159.991356 100.926967 
L 157.345518 96.542444 
L 155.118888 93.135324 
L 160.233178 93.39712 
L 165.353846 93.454191 
L 170.472701 93.306443 
L 175.581553 92.954114 
L 180.672229 92.397767 
L 185.736584 91.638293 
L 190.766519 90.676906 
L 195.753984 89.515144 
L 200.691002 88.154866 
L 205.569674 86.598248 
L 210.382196 84.84778 
L 215.120868 82.906263 
L 219.778109 80.776802 
L 224.34647 78.462805 
L 228.818641 75.967973 
L 233.187469 73.296298 
L 237.445963 70.452053 
L 241.587311 67.439789 
L 245.604889 64.264325 
L 246.347665 63.648 
L 250.34119 66.85366 
L 254.459713 69.897058 
L 258.696645 72.773325 
L 263.045208 75.477859 
L 267.498445 78.006333 
L 272.049232 80.354703 
L 276.690288 82.519211 
L 281.41419 84.496395 
L 286.213379 86.283092 
L 291.080178 87.876444 
L 296.006801 89.273901 
L 300.985367 90.473227 
L 306.007911 91.472505 
L 311.066397 92.270135 
L 316.152734 92.864842 
L 317.095552 92.952489 
L 315.032695 97.639612 
L 313.158922 102.405478 
L 311.477232 107.242462 
L 309.990315 112.142828 
L 308.70055 117.098734 
L 307.609999 122.102253 
L 306.720409 127.14538 
L 306.033201 132.220047 
L 305.549476 137.318136 
L 305.270006 142.431491 
L 305.19524 147.551932 
L 305.325297 152.671266 
L 305.659968 157.781305 
L 306.198719 162.873873 
L 306.940687 167.940823 
L 307.884686 172.97405 
L 309.029205 177.9655 
L 310.372413 182.90719 
L 311.912162 187.791212 
L 313.645988 192.609754 
L 315.571117 197.355108 
L 317.68447 202.019681 
L 319.982666 206.596011 
L 322.462027 211.076777 
L 325.118589 215.454812 
L 327.9481 219.72311 
L 330.946034 223.874843 
L 333.680282 227.377917 
L 328.606937 226.681016 
L 323.509781 226.187551 
L 318.39697 225.898314 
L 313.276681 225.813765 
L 308.157107 225.934041 
L 303.046438 226.25895 
L 297.95285 226.78797 
L 292.884492 227.520257 
L 287.849471 228.454638 
L 282.855843 229.589619 
L 277.911597 230.923384 
L 273.024642 232.453799 
L 268.202796 234.178416 
L 263.453773 236.094476 
L 258.785171 238.198914 
L 254.204459 240.488363 
L 249.718964 242.959159 
L 245.335862 245.607352 
L 241.062166 248.428703 
L 236.904713 251.4187 
L 232.870153 254.572559 
L 228.964941 257.885235 
L 225.195324 261.351428 
L 221.567333 264.965593 
L 218.086773 268.721947 
L 214.75921 272.614482 
L 211.58997 276.636971 
L 208.584121 280.782978 
L 205.516584 285.408 
L 202.693232 281.135625 
L 199.70129 276.979571 
L 196.545543 272.946487 
L 193.23104 269.042826 
L 189.763084 265.274832 
L 186.147222 261.648533 
L 182.389239 258.169731 
L 178.495147 254.843991 
L 174.471175 251.676633 
L 170.323762 248.672724 
L 166.059542 245.837071 
L 161.685337 243.174209 
L 157.208145 240.688399 
L 152.635128 238.383617 
L 147.973603 236.26355 
L 143.231026 234.331591 
L 142.491989 234.050246 
L 143.221472 228.981483 
L 143.747674 223.887603 
L 144.069755 218.776755 
L 144.187199 213.657115 
L 144.099818 208.536875 
L 143.807752 203.424224 
L 143.311468 198.327342 
L 142.611761 193.254383 
L 141.709748 188.213463 
L 140.606874 183.212646 
L 139.304903 178.259932 
L 137.805918 173.363245 
L 136.112316 168.530418 
L 134.226808 163.769183 
L 132.152409 159.087157 
L 129.892438 154.491829 
L 127.450511 149.990552 
L 124.832261 145.5933 
L 129.952785 145.662123 
L 135.071965 145.526125 
L 140.181612 145.185523 
L 145.273552 144.640862 
L 150.339637 143.893013 
L 155.371765 142.943173 
L 160.361884 141.792862 
L 165.302011 140.443919 
L 170.184243 138.898503 
L 175.000769 137.159085 
L 179.743885 135.22845 
L 184.406002 133.109684 
L 188.979662 130.806179 
L 193.457548 128.321618 
L 197.832496 125.659977 
L 202.097507 122.825514 
L 206.245759 119.822764 
L 210.270614 116.656529 
L 214.165634 113.331876 
L 217.924588 109.854122 
L 221.541462 106.228833 
L 225.01047 102.461807 
L 228.326062 98.559071 
L 231.482935 94.526868 
L 234.476037 90.371649 
L 237.30058 86.100062 
L 239.952047 81.718941 
L 242.426194 77.235293 
L 244.719064 72.656292 
L 246.826989 67.989264 
L 248.590894 63.648 
L 250.526626 68.389038 
L 252.6504 73.048876 
L 254.958819 77.620058 
L 257.448191 82.095271 
L 260.114531 86.467356 
L 262.953576 90.729319 
L 265.960783 94.874341 
L 269.131341 98.895791 
L 272.460178 102.787236 
L 275.941969 106.542451 
L 279.571143 110.155427 
L 283.341895 113.620385 
L 287.248192 116.931781 
L 291.283785 120.084319 
L 295.442217 123.072954 
L 299.716837 125.892905 
L 304.100806 128.539662 
L 308.58711 131.00899 
L 313.168572 133.296938 
L 317.837863 135.399846 
L 322.587513 137.314351 
L 327.409923 139.037388 
L 332.297379 140.566203 
L 337.242062 141.898348 
L 342.236062 143.031693 
L 346.469589 143.829813 
L 344.790382 148.66766 
L 343.305981 153.568788 
L 342.01876 158.525356 
L 340.930778 163.529434 
L 340.043776 168.573017 
L 339.359173 173.648036 
L 338.878065 178.746373 
L 338.60122 183.859871 
L 338.529083 188.980349 
L 338.661767 194.099616 
L 338.999062 199.209483 
L 339.540426 204.301773 
L 340.284995 209.368342 
L 341.215889 214.325862 
L 336.385136 216.025368 
L 331.626208 217.916693 
L 326.94672 219.996811 
L 322.354158 222.262396 
L 317.855868 224.709821 
L 313.459047 227.335173 
L 309.17073 230.13425 
L 304.997776 233.102576 
L 300.946861 236.2354 
L 297.024466 239.527713 
L 293.236866 242.974245 
L 289.59012 246.569485 
L 286.090062 250.307679 
L 282.742292 254.182849 
L 279.552166 258.188793 
L 276.524786 262.319105 
L 273.664996 266.567175 
L 270.977371 270.926209 
L 268.466211 275.389232 
L 266.135533 279.949105 
L 263.989065 284.598533 
L 263.638145 285.408 
L 261.523767 280.743892 
L 259.224565 276.168067 
L 256.744218 271.687846 
L 254.086695 267.310395 
L 251.256245 263.042719 
L 248.257398 258.891645 
L 245.094952 254.863813 
L 241.773964 250.965666 
L 238.299749 247.203442 
L 234.677864 243.583159 
L 230.914103 240.110609 
L 227.014488 236.791346 
L 222.985257 233.630682 
L 218.832856 230.633671 
L 214.563929 227.80511 
L 210.185303 225.149524 
L 205.703985 222.671159 
L 201.127144 220.373982 
L 196.4621 218.261667 
L 191.716319 216.337594 
L 186.897391 214.604841 
L 182.013025 213.066179 
L 177.071037 211.724071 
L 172.079332 210.580663 
L 167.045896 209.637784 
L 161.97878 208.896944 
L 156.886093 208.359327 
L 151.775979 208.025793 
L 146.656616 207.896875 
L 141.536192 207.972781 
L 136.4229 208.253388 
L 131.324918 208.738249 
L 128.11556 209.14954 
L 131.188942 205.053344 
L 134.096062 200.837522 
L 136.832269 196.508819 
L 139.393185 192.074158 
L 141.774713 187.540636 
L 143.973044 182.915504 
L 145.984661 178.206163 
L 147.806345 173.420144 
L 149.435182 168.565107 
L 150.868566 163.648816 
L 152.104205 158.679138 
L 153.140121 153.664023 
L 153.974658 148.611494 
L 154.60648 143.529634 
L 155.034576 138.426573 
L 155.258261 133.310474 
L 155.277179 128.189522 
L 155.091298 123.071911 
L 154.700915 117.965826 
L 154.106656 112.879436 
L 153.309471 107.820879 
L 152.310635 102.798248 
L 151.511211 99.384003 
L 156.403622 97.871118 
L 161.23162 96.163799 
L 165.987481 94.264777 
L 170.663598 92.177091 
L 175.252489 89.90408 
L 179.746813 87.44938 
L 184.139381 84.816918 
L 188.423164 82.010907 
L 192.591311 79.035834 
L 196.637152 75.89646 
L 200.554215 72.597806 
L 204.336234 69.14515 
L 207.977159 65.544016 
L 209.781651 63.648 
L 213.348198 67.322812 
L 217.058846 70.85206 
L 220.907659 74.230099 
L 224.888478 77.451524 
L 228.994935 80.511182 
L 233.220462 83.404179 
L 237.558297 86.125885 
L 242.001502 88.671947 
L 246.542968 91.038292 
L 251.17543 93.221134 
L 255.891477 95.21698 
L 260.683564 97.022639 
L 265.544025 98.63522 
L 270.465085 100.052146 
L 275.438869 101.271148 
L 280.457423 102.290276 
L 285.512716 103.107901 
L 290.596662 103.722714 
L 295.701128 104.133732 
L 300.817946 104.340296 
L 305.938932 104.342078 
L 311.055893 104.139073 
L 316.160643 103.731606 
L 321.245016 103.12033 
L 322.831362 102.887203 
L 319.708723 106.945975 
L 316.750889 111.126372 
L 313.962592 115.421706 
L 311.348293 119.825108 
L 308.912174 124.329531 
L 306.658133 128.927769 
L 304.589775 133.612468 
L 302.71041 138.376131 
L 301.023043 143.211138 
L 299.530375 148.109755 
L 298.234794 153.064144 
L 297.138371 158.066379 
L 296.242862 163.108459 
L 295.549698 168.182316 
L 295.059989 173.279834 
L 294.774518 178.392857 
L 294.693742 183.513206 
L 294.81779 188.63269 
L 295.146463 193.743118 
L 295.679236 198.836315 
L 296.415256 203.904133 
L 297.353347 208.938464 
L 298.492006 213.931254 
L 299.829413 218.874517 
L 301.363428 223.760343 
L 303.091597 228.580917 
L 305.011155 233.328527 
L 307.119032 237.995577 
L 309.411854 242.574602 
L 311.885955 247.058275 
L 314.537376 251.439425 
L 317.340242 255.679696 
L 312.228572 255.370936 
L 307.108644 255.266836 
L 301.988648 255.367562 
L 296.876776 255.672952 
L 291.781205 256.182519 
L 286.710087 256.895446 
L 281.671535 257.810594 
L 276.67361 258.926498 
L 271.724306 260.241373 
L 266.831542 261.753116 
L 262.003146 263.459307 
L 257.246841 265.357219 
L 252.570238 267.443814 
L 247.980816 269.715754 
L 243.485919 272.169404 
L 239.092737 274.80084 
L 234.808298 277.605851 
L 230.639458 280.579951 
L 226.592884 283.718381 
L 224.545845 285.408 
L 220.565201 282.186359 
L 216.458909 279.126478 
L 212.233539 276.233253 
L 207.895851 273.511312 
L 203.452784 270.965009 
L 198.911446 268.598419 
L 194.279102 266.415326 
L 189.563164 264.419224 
L 184.771174 262.613306 
L 179.9108 261.000461 
L 174.989818 259.583269 
L 170.016099 258.363998 
L 164.997601 257.344597 
L 159.942352 256.526699 
L 155.129593 255.939218 
L 157.128836 251.22461 
L 158.937945 246.433825 
L 160.554026 241.574526 
L 161.974495 236.654488 
L 163.197079 231.681583 
L 164.219821 226.663765 
L 165.041087 221.609061 
L 165.659561 216.525559 
L 166.074254 211.421391 
L 166.284504 206.304723 
L 166.289973 201.183739 
L 166.090653 196.066633 
L 165.686863 190.961591 
L 165.079249 185.87678 
L 164.268782 180.820334 
L 163.25676 175.800343 
L 162.044801 170.824837 
L 160.634845 165.901776 
L 159.029146 161.039037 
L 157.230274 156.244398 
L 155.241107 151.52553 
L 153.064826 146.889982 
L 150.704913 142.34517 
L 148.165145 137.898365 
L 145.449583 133.556681 
L 142.562572 129.327062 
L 139.508731 125.216277 
L 137.825083 123.089073 
L 142.89842 123.786033 
L 147.99557 124.279555 
L 153.108378 124.568852 
L 158.228666 124.653459 
L 163.348241 124.533242 
L 168.458913 124.208393 
L 173.552507 123.679431 
L 178.620874 122.947202 
L 183.655906 122.012879 
L 188.649547 120.877955 
L 193.593809 119.544247 
L 198.480781 118.013888 
L 203.302647 116.289327 
L 208.051692 114.373321 
L 212.720318 112.268938 
L 217.301057 109.979542 
L 221.78658 107.508796 
L 226.169712 104.860654 
L 230.443441 102.039352 
L 234.600929 99.049403 
L 238.635525 95.89559 
L 242.540775 92.582959 
L 246.310432 89.11681 
L 249.938464 85.502687 
L 253.419067 81.746373 
L 256.746675 77.853876 
L 259.915962 73.831423 
L 262.921858 69.685451 
L 265.759556 65.422591 
L 266.870019 63.648 
L 269.63764 67.956686 
L 272.575349 72.15125 
L 275.678446 76.224982 
L 278.941967 80.171365 
L 282.36069 83.984084 
L 285.929147 87.657042 
L 289.641628 91.184361 
L 293.492195 94.5604 
L 297.474688 97.779756 
L 301.582735 100.83728 
L 305.809764 103.72808 
L 310.149014 106.447532 
L 314.593541 108.991284 
L 319.136236 111.355269 
L 323.769832 113.535703 
L 328.486916 115.529098 
L 330.606041 116.353342 
L 329.883684 121.423125 
L 329.364643 126.51774 
L 329.049746 131.629035 
L 328.939499 136.748835 
L 329.034078 141.868948 
L 329.333331 146.981183 
L 329.836779 152.077362 
L 330.543617 157.149332 
L 331.452715 162.188979 
L 332.562618 167.188241 
L 333.871549 172.13912 
L 335.377417 177.033695 
L 337.07781 181.864136 
L 338.97001 186.622716 
L 341.050988 191.301822 
L 343.317417 195.893968 
L 345.765669 200.391808 
L 347.530172 203.389203 
L 342.409196 203.378765 
L 337.291899 203.57312 
L 332.186468 203.971957 
L 327.101069 204.574637 
L 322.043839 205.380197 
L 317.022868 206.387348 
L 312.046189 207.594479 
L 307.121763 208.999658 
L 302.257468 210.600637 
L 297.461086 212.394856 
L 292.74029 214.379444 
L 288.102633 216.551226 
L 283.555533 218.906727 
L 279.106266 221.44218 
L 274.761948 224.153528 
L 270.529531 227.036434 
L 266.415784 230.086285 
L 262.42729 233.298203 
L 258.570428 236.667048 
L 254.85137 240.187432 
L 251.276064 243.853723 
L 247.85023 247.660056 
L 244.57935 251.60034 
L 241.468655 255.668273 
L 238.523122 259.857347 
L 235.747464 264.16086 
L 233.14612 268.571927 
L 230.723253 273.083492 
L 228.482739 277.688337 
L 226.428161 282.379095 
L 225.218039 285.408 
L 223.283617 280.666427 
L 221.16113 276.006003 
L 218.853974 271.434184 
L 216.365839 266.958283 
L 213.700707 262.585461 
L 210.862839 258.322714 
L 207.856778 254.176862 
L 204.687331 250.154535 
L 201.359569 246.262171 
L 197.878816 242.505995 
L 194.25064 238.892016 
L 190.480845 235.426017 
L 186.575464 232.113541 
L 182.540742 228.959889 
L 178.383135 225.970105 
L 174.109294 223.148973 
L 169.726057 220.501005 
L 165.240436 218.030438 
L 160.659606 215.741224 
L 155.990896 213.637026 
L 151.241775 211.72121 
L 146.419841 209.99684 
L 141.532807 208.466675 
L 136.588492 207.133164 
L 131.594806 205.998439 
L 126.559737 205.064316 
L 125.674509 204.921516 
L 127.416836 200.106041 
L 128.965202 195.224744 
L 130.31713 190.285433 
L 131.470457 185.29601 
L 132.423337 180.264458 
L 133.174247 175.198825 
L 133.721985 170.107215 
L 134.065674 164.997775 
L 134.204766 159.878678 
L 134.139037 154.758113 
L 133.868592 149.644273 
L 133.393865 144.545338 
L 132.715615 139.469466 
L 131.834926 134.424777 
L 131.693204 133.709798 
L 136.512317 131.977559 
L 141.258304 130.053993 
L 145.923573 127.942176 
L 150.50066 125.645488 
L 154.982242 123.167602 
L 159.361151 120.512482 
L 163.630381 117.684377 
L 167.783101 114.68781 
L 171.81267 111.527576 
L 175.712639 108.208729 
L 179.47677 104.736581 
L 183.099042 101.116684 
L 186.573659 97.354831 
L 189.895062 93.457039 
L 193.057939 89.429544 
L 196.057229 85.27879 
L 198.888134 81.011416 
L 201.546125 76.63425 
L 204.02695 72.154293 
L 206.32664 67.578714 
L 208.123863 63.648 
L 210.267804 68.298593 
L 212.596004 72.859732 
L 215.104739 77.324119 
L 217.789995 81.684612 
L 220.647476 85.934236 
L 223.672611 90.066192 
L 226.860561 94.07387 
L 230.206225 97.950858 
L 233.70425 101.690953 
L 237.349042 105.288174 
L 241.134769 108.736764 
L 245.055374 112.031207 
L 249.104586 115.166232 
L 253.275927 118.136825 
L 257.562723 120.938232 
L 261.958116 123.565972 
L 266.455076 126.015842 
L 271.046406 128.283921 
L 275.724763 130.366582 
L 280.482662 132.260493 
L 285.312492 133.962623 
L 290.206525 135.47025 
L 295.156933 136.780963 
L 300.155795 137.892663 
L 305.195115 138.803573 
L 310.266831 139.512235 
L 315.362829 140.017516 
L 320.474956 140.318607 
L 325.595035 140.415027 
L 330.714873 140.306621 
L 335.826282 139.993562 
L 340.921083 139.476353 
L 343.739606 139.101343 
L 340.65279 143.187425 
L 337.731842 147.393679 
L 334.981436 151.713374 
L 332.405972 156.139601 
L 330.00957 160.665279 
L 327.796063 165.283167 
L 325.768994 169.985878 
L 323.931604 174.765889 
L 322.286833 179.615552 
L 320.837313 184.527109 
L 319.585362 189.492702 
L 318.532983 194.504389 
L 317.68186 199.55415 
L 317.033354 204.633908 
L 316.588504 209.735537 
L 316.34802 214.850873 
L 316.312287 219.971735 
L 316.481362 225.089929 
L 316.854976 230.197269 
L 317.43253 235.285582 
L 318.2131 240.34673 
L 319.195437 245.372614 
L 320.389228 250.398698 
L 315.482404 251.864163 
L 310.638109 253.524676 
L 305.864091 255.37758 
L 301.167988 257.419913 
L 296.557313 259.648406 
L 292.039443 262.059494 
L 287.621603 264.64932 
L 283.310863 267.413741 
L 279.114119 270.348334 
L 275.038084 273.448405 
L 271.089279 276.708994 
L 267.274022 280.124885 
L 263.598415 283.690613 
L 261.929058 285.408 
L 258.320793 281.774141 
L 254.570099 278.287482 
L 250.682976 274.953599 
L 246.665643 271.777826 
L 242.524526 268.765244 
L 238.26625 265.920672 
L 233.897628 263.248661 
L 229.425648 260.753486 
L 224.857465 258.439138 
L 220.200387 256.30932 
L 215.461864 254.367439 
L 210.649477 252.616602 
L 205.770924 251.059609 
L 200.834011 249.698952 
L 195.846634 248.536807 
L 190.816774 247.575034 
L 185.752477 246.81517 
L 180.661844 246.258433 
L 175.553019 245.905712 
L 170.434176 245.757571 
L 165.313503 245.814248 
L 160.199193 246.075652 
L 155.099427 246.541365 
L 150.084679 247.201171 
L 153.200821 243.137408 
L 156.151963 238.952285 
L 158.933384 234.652494 
L 161.540634 230.244916 
L 163.969543 225.736601 
L 166.216225 221.134762 
L 168.277085 216.44676 
L 170.148826 211.680096 
L 171.828455 206.842395 
L 173.313283 201.941397 
L 174.600936 196.984941 
L 175.689354 191.980958 
L 176.576795 186.937452 
L 177.26184 181.862493 
L 177.743393 176.764198 
L 178.020683 171.650724 
L 178.093267 166.530252 
L 177.961029 161.410974 
L 177.62418 156.301078 
L 177.083258 151.20874 
L 176.339131 146.142106 
L 175.392987 141.109283 
L 174.246341 136.11832 
L 172.901027 131.177204 
L 171.359197 126.293838 
L 169.623318 121.476035 
L 167.696166 116.731503 
L 165.580825 112.067831 
L 163.28068 107.49248 
L 160.799408 103.012771 
L 158.140982 98.635869 
L 155.309652 94.368777 
L 154.815583 93.660664 
L 159.924394 94.013582 
L 165.043231 94.161921 
L 170.163906 94.105442 
L 175.278227 93.844235 
L 180.378011 93.37872 
L 185.4551 92.709639 
L 190.501372 91.838065 
L 195.508753 90.765391 
L 200.469234 89.493332 
L 205.374878 88.023925 
L 210.217838 86.35952 
L 214.990365 84.50278 
L 219.684825 82.456674 
L 224.293708 80.224477 
L 228.809639 77.80976 
L 233.225396 75.216384 
L 237.533913 72.4485 
L 241.728298 69.510535 
L 245.801841 66.40719 
L 249.15861 63.648 
L 253.124499 66.887787 
L 257.216774 69.96639 
L 261.428886 72.878883 
L 265.754097 75.620606 
L 270.185488 78.187175 
L 274.715971 80.574481 
L 279.338296 82.778707 
L 284.045069 84.796327 
L 288.82876 86.624112 
L 293.681717 88.259138 
L 298.596176 89.698789 
L 303.564275 90.940764 
L 308.578065 91.983073 
L 313.629526 92.824051 
L 317.299521 93.305774 
L 315.364235 98.046994 
L 313.620094 102.861812 
L 312.06989 107.742526 
L 310.716103 112.681328 
L 309.560898 117.670316 
L 308.606123 122.701509 
L 307.853306 127.766859 
L 307.303651 132.858262 
L 306.958038 137.967572 
L 306.817019 143.086617 
L 306.88082 148.207205 
L 307.149339 153.321147 
L 307.622146 158.42026 
L 308.298485 163.496388 
L 309.177274 168.541408 
L 310.257107 173.547251 
L 311.536257 178.505908 
L 313.012677 183.409446 
L 314.684005 188.25002 
L 316.547568 193.019888 
L 318.600384 197.711417 
L 320.839169 202.317103 
L 323.260341 206.829578 
L 325.860028 211.241622 
L 328.63407 215.546177 
L 331.578029 219.736356 
L 334.687196 223.805457 
L 335.301158 224.570478 
L 330.22782 223.873521 
L 325.13067 223.380002 
L 320.017861 223.090709 
L 314.897574 223.006105 
L 309.777999 223.126326 
L 304.667326 223.451179 
L 299.573733 223.980144 
L 294.505366 224.712376 
L 289.470335 225.646703 
L 284.476695 226.78163 
L 279.532434 228.115341 
L 274.645463 229.645704 
L 269.823598 231.370269 
L 265.074555 233.286277 
L 260.40593 235.390664 
L 255.825193 237.680063 
L 251.339671 240.150812 
L 246.956541 242.798957 
L 242.682814 245.620262 
L 238.525329 248.610214 
L 234.490734 251.764029 
L 230.585486 255.076663 
L 226.815832 258.542815 
L 223.187803 262.15694 
L 219.707201 265.913257 
L 216.379597 269.805756 
L 213.210313 273.828211 
L 210.204419 277.974185 
L 207.366724 282.237047 
L 205.410502 285.408 
L 202.698047 281.064374 
L 199.814062 276.832691 
L 196.763163 272.719722 
L 193.550229 268.732047 
L 190.1804 264.876044 
L 186.659068 261.157883 
L 182.991866 257.583512 
L 179.18466 254.158648 
L 175.243542 250.888772 
L 171.174817 247.779114 
L 166.984992 244.83465 
L 162.680772 242.060088 
L 158.269042 239.459869 
L 153.756859 237.038152 
L 149.151444 234.798812 
L 144.460162 232.74543 
L 140.929888 231.344608 
L 141.647958 226.274216 
L 142.162693 221.179164 
L 142.473267 216.067604 
L 142.579186 210.947713 
L 142.480278 205.827682 
L 142.176703 200.715702 
L 141.668946 195.61995 
L 140.95782 190.548579 
L 140.044462 185.509703 
L 138.930333 180.511381 
L 137.617215 175.561611 
L 136.10721 170.668311 
L 134.402733 165.839309 
L 132.506511 161.082331 
L 130.421577 156.404986 
L 128.151267 151.814758 
L 125.699213 147.318989 
L 124.764373 145.710887 
L 129.885115 145.660931 
L 134.999764 145.406241 
L 140.100137 144.947223 
L 145.178075 144.284611 
L 150.225453 143.419467 
L 155.234197 142.353173 
L 160.196294 141.087435 
L 165.103807 139.624279 
L 169.948883 137.966046 
L 174.723772 136.115387 
L 179.420835 134.075264 
L 184.032557 131.848941 
L 188.551562 129.439978 
L 192.970619 126.852231 
L 197.282659 124.089838 
L 201.480783 121.157219 
L 205.558276 118.059066 
L 209.508615 114.800335 
L 213.325479 111.386239 
L 217.002762 107.82224 
L 220.534582 104.11404 
L 223.915289 100.267571 
L 227.139474 96.288987 
L 230.201978 92.184651 
L 233.097904 87.961132 
L 235.822617 83.625184 
L 238.371759 79.183746 
L 240.741252 74.643922 
L 242.927305 70.012974 
L 244.926421 65.298312 
L 245.574346 63.648 
L 247.507985 68.389892 
L 249.629703 73.050666 
L 251.936105 77.622866 
L 254.423501 82.099178 
L 257.087912 86.472439 
L 259.925076 90.735654 
L 262.930453 94.882003 
L 266.099236 98.904852 
L 269.426356 102.797766 
L 272.906489 106.554516 
L 276.534069 110.169093 
L 280.303291 113.635715 
L 284.208126 116.948835 
L 288.242328 120.103153 
L 292.399441 123.093623 
L 296.672816 125.91546 
L 301.055616 128.564151 
L 305.54083 131.035458 
L 310.121282 133.325428 
L 314.789645 135.430396 
L 319.538449 137.346997 
L 324.360099 139.072162 
L 329.24688 140.603133 
L 334.190975 141.93746 
L 339.184474 143.073009 
L 344.219388 144.007963 
L 346.80307 144.40742 
L 344.997086 149.199384 
L 343.384174 154.059735 
L 341.966913 158.980698 
L 340.747573 163.9544 
L 339.728103 168.972884 
L 338.910134 174.028122 
L 338.294976 179.112026 
L 337.883611 184.216463 
L 337.676698 189.333268 
L 337.674568 194.454254 
L 337.877225 199.571229 
L 338.284345 204.676007 
L 338.895275 209.760421 
L 339.709039 214.816337 
L 340.009753 216.414951 
L 335.201542 218.177225 
L 330.467649 220.130366 
L 325.815648 222.27125 
L 321.25298 224.596452 
L 316.786945 227.102252 
L 312.424688 229.784641 
L 308.173187 232.639329 
L 304.039243 235.661747 
L 300.029471 238.847062 
L 296.150285 242.190177 
L 292.407891 245.685744 
L 288.808276 249.328171 
L 285.357198 253.11163 
L 282.060179 257.03007 
L 278.922493 261.07722 
L 275.94916 265.246608 
L 273.144936 269.531561 
L 270.514307 273.925227 
L 268.061483 278.420575 
L 265.790386 283.010414 
L 264.693154 285.408 
L 262.517058 280.772366 
L 260.157326 276.22746 
L 257.617734 271.780554 
L 254.902345 267.438761 
L 252.015502 263.209028 
L 248.961824 259.098121 
L 245.746197 255.112617 
L 242.373764 251.258892 
L 238.849921 247.543111 
L 235.180304 243.971218 
L 231.370786 240.548928 
L 227.427459 237.281715 
L 223.356634 234.174807 
L 219.164821 231.233174 
L 214.858727 228.461521 
L 210.445241 225.864283 
L 205.931424 223.445615 
L 201.324496 221.209387 
L 196.631828 219.159175 
L 191.860927 217.298259 
L 187.019425 215.629618 
L 182.115069 214.155919 
L 177.155703 212.879522 
L 172.149261 211.802467 
L 167.103754 210.926477 
L 162.027252 210.252955 
L 156.927878 209.782978 
L 151.813788 209.517297 
L 146.693164 209.456338 
L 141.574199 209.600198 
L 136.465081 209.948647 
L 131.373984 210.501127 
L 129.078782 210.817889 
L 132.177083 206.740509 
L 135.109854 202.542491 
L 137.872403 198.230551 
L 140.460311 193.811588 
L 142.869438 189.292671 
L 145.095929 184.681029 
L 147.136222 179.98404 
L 148.987054 175.209219 
L 150.645464 170.364203 
L 152.108798 165.456744 
L 153.374716 160.494692 
L 154.441191 155.485987 
L 155.306519 150.43864 
L 155.969315 145.360727 
L 156.428518 140.26037 
L 156.683395 135.14573 
L 156.733536 130.02499 
L 156.578862 124.90634 
L 156.21962 119.797969 
L 155.656386 114.708051 
L 154.890059 109.644727 
L 153.921866 104.616099 
L 152.753357 99.63021 
L 152.320501 97.982271 
L 157.241937 96.566652 
L 162.102826 94.955361 
L 166.895392 93.150975 
L 171.611969 91.15638 
L 176.24501 88.974768 
L 180.787104 86.609629 
L 185.230985 84.064747 
L 189.569543 81.344192 
L 193.795837 78.452318 
L 197.903107 75.39375 
L 201.884781 72.173381 
L 205.73449 68.796364 
L 209.446074 65.268101 
L 211.054553 63.648 
L 214.702638 67.241881 
L 218.491521 70.687003 
L 222.415142 73.977854 
L 226.467224 77.10917 
L 230.641283 80.075941 
L 234.930643 82.873421 
L 239.328441 85.497134 
L 243.827642 87.942884 
L 248.421048 90.206758 
L 253.10131 92.285134 
L 257.860942 94.174686 
L 262.692328 95.872393 
L 267.58774 97.375537 
L 272.539346 98.681715 
L 277.539224 99.788837 
L 282.579376 100.695132 
L 287.651739 101.399149 
L 292.748197 101.899762 
L 297.860598 102.196172 
L 302.980763 102.287902 
L 308.1005 102.174807 
L 313.21162 101.857068 
L 318.305945 101.335193 
L 321.670754 100.87697 
L 318.562603 104.946847 
L 315.619691 109.137762 
L 312.846724 113.44301 
L 310.24814 117.855703 
L 307.828095 122.368783 
L 305.590461 126.975028 
L 303.538817 131.66707 
L 301.676446 136.437403 
L 300.006327 141.278395 
L 298.531132 146.182302 
L 297.253221 151.141278 
L 296.174638 156.14739 
L 295.297109 161.19263 
L 294.622038 166.268926 
L 294.150505 171.368157 
L 293.883264 176.482166 
L 293.820742 181.602771 
L 293.96304 186.72178 
L 294.309929 191.831004 
L 294.860856 196.922269 
L 295.614938 201.98743 
L 296.57097 207.018385 
L 297.727421 212.007084 
L 299.082443 216.945548 
L 300.633866 221.825874 
L 302.379209 226.640257 
L 304.31568 231.380993 
L 306.440181 236.0405 
L 308.749313 240.611321 
L 311.239382 245.086146 
L 313.906405 249.457815 
L 316.746114 253.719335 
L 317.695123 255.065025 
L 312.589331 254.670826 
L 307.47186 254.48112 
L 302.350895 254.49621 
L 297.234631 254.716072 
L 292.131251 255.140354 
L 287.04892 255.768378 
L 281.995769 256.599138 
L 276.979881 257.631306 
L 272.009281 258.86323 
L 267.09192 260.29294 
L 262.235667 261.918148 
L 257.448288 263.736254 
L 252.737444 265.74435 
L 248.110671 267.939224 
L 243.57537 270.317363 
L 239.138797 272.874964 
L 234.808049 275.607935 
L 230.590056 278.511903 
L 226.491564 281.582223 
L 222.51913 284.813983 
L 221.823149 285.408 
L 217.873914 282.147933 
L 213.797469 279.048401 
L 209.600336 276.114362 
L 205.289231 273.350511 
L 200.87105 270.761269 
L 196.35286 268.350778 
L 191.741891 266.122895 
L 187.045518 264.081184 
L 182.271255 262.22891 
L 177.42674 260.569038 
L 172.519723 259.104222 
L 167.558054 257.836806 
L 162.549671 256.768818 
L 157.502586 255.901966 
L 154.896321 255.535178 
L 156.767529 250.768305 
L 158.446617 245.930417 
L 159.930897 241.029252 
L 161.217997 236.072653 
L 162.305855 231.068548 
L 163.192732 226.024943 
L 163.87721 220.949907 
L 164.358193 215.851558 
L 164.634911 210.738054 
L 164.706923 205.617574 
L 164.574112 200.49831 
L 164.236692 195.388452 
L 163.695202 190.296174 
L 162.950508 185.229624 
L 162.003801 180.196906 
L 160.856597 175.206072 
L 159.510731 170.265106 
L 157.968355 165.381912 
L 156.231937 160.564304 
L 154.304255 155.819986 
L 152.188393 151.156551 
L 149.887736 146.581458 
L 147.405964 142.102026 
L 144.747048 137.725421 
L 141.915241 133.458646 
L 138.915074 129.308526 
L 136.223875 125.862446 
L 141.297234 126.559247 
L 146.394399 127.052609 
L 151.507217 127.341745 
L 156.627507 127.426192 
L 161.747078 127.305814 
L 166.857741 126.980804 
L 171.951318 126.451682 
L 177.019662 125.719294 
L 182.054664 124.784813 
L 187.048269 123.649732 
L 191.992489 122.315869 
L 196.879414 120.785356 
L 201.701226 119.060643 
L 206.45021 117.144489 
L 211.11877 115.039958 
L 215.699437 112.750418 
L 220.184883 110.279532 
L 224.567931 107.631252 
L 228.841571 104.809816 
L 232.998965 101.819736 
L 237.033463 98.665797 
L 240.938609 95.353043 
L 244.708156 91.886775 
L 248.336075 88.272538 
L 251.816561 84.516114 
L 255.144045 80.623513 
L 258.313206 76.600961 
L 261.318973 72.454894 
L 264.156536 68.191946 
L 266.920713 63.648 
L 269.578778 68.025121 
L 272.409756 72.292447 
L 275.409116 76.44315 
L 278.572061 80.470591 
L 281.893531 84.368326 
L 285.368212 88.13012 
L 288.990545 91.749955 
L 292.754736 95.22204 
L 296.654761 98.54082 
L 300.684384 101.700986 
L 304.837155 104.697482 
L 309.106433 107.525515 
L 313.485387 110.18056 
L 317.967012 112.658369 
L 322.544138 114.95498 
L 327.209442 117.066717 
L 332.177232 119.074724 
L 332.177232 119.074724 
" style="fill:none;stroke:#1f77b4;stroke-linecap:square;stroke-width:1.5;"/>
   </g>
   <g id="patch_4">
    <path d="M 82.520165 307.584 
L 82.520165 41.472 
" style="fill:none;stroke:#000000;stroke-linecap:square;stroke-linejoin:miter;stroke-width:0.8;"/>
   </g>
   <g id="patch_5">
    <path d="M 389.799835 307.584 
L 389.799835 41.472 
" style="fill:none;stroke:#000000;stroke-linecap:square;stroke-linejoin:miter;stroke-width:0.8;"/>
   </g>
   <g id="patch_6">
    <path d="M 82.520165 307.584 
L 389.799835 307.584 
" style="fill:none;stroke:#000000;stroke-linecap:square;stroke-linejoin:miter;stroke-width:0.8;"/>
   </g>
   <g id="patch_7">
    <path d="M 82.520165 41.472 
L 389.799835 41.472 
" style="fill:none;stroke:#000000;stroke-linecap:square;stroke-linejoin:miter;stroke-width:0.8;"/>
   </g>
  </g>
 </g>
 <defs>
  <clipPath id="pdb36456d3b">
   <rect height="266.112" width="307.27967" x="82.520165" y="41.472"/>
  </clipPath>
 </defs>
</svg>
