<?xml version="1.0" encoding="utf-8" standalone="no"?>
<!DOCTYPE svg PUBLIC "-//W3C//DTD SVG 1.1//EN"
  "http://www.w3.org/Graphics/SVG/1.1/DTD/svg11.dtd">
<!-- Created with matplotlib (http://matplotlib.org/) -->
<svg height="345.6pt" version="1.1" viewBox="0 0 460.8 345.6" width="460.8pt" xmlns="http://www.w3.org/2000/svg" xmlns:xlink="http://www.w3.org/1999/xlink">
 <defs>
  <style type="text/css">
*{stroke-linecap:butt;stroke-linejoin:round;}
  </style>
 </defs>
 <g id="figure_1">
  <g id="patch_1">
   <path d="M 0 345.6 
L 460.8 345.6 
L 460.8 0 
L 0 0 
z
" style="fill:#ffffff;"/>
  </g>
  <g id="axes_1">
   <g id="patch_2">
    <path d="M 82.520165 307.584 
L 389.799835 307.584 
L 389.799835 41.472 
L 82.520165 41.472 
z
" style="fill:#ffffff;"/>
   </g>
   <g id="PathCollection_1">
    <defs>
     <path d="M 0 2.738613 
C 0.726289 2.738613 1.422928 2.450055 1.936492 1.936492 
C 2.450055 1.422928 2.738613 0.726289 2.738613 0 
C 2.738613 -0.726289 2.450055 -1.422928 1.936492 -1.936492 
C 1.422928 -2.450055 0.726289 -2.738613 0 -2.738613 
C -0.726289 -2.738613 -1.422928 -2.450055 -1.936492 -1.936492 
C -2.450055 -1.422928 -2.738613 -0.726289 -2.738613 0 
C -2.738613 0.726289 -2.450055 1.422928 -1.936492 1.936492 
C -1.422928 2.450055 -0.726289 2.738613 0 2.738613 
z
" id="m581c99da55" style="stroke:#000000;"/>
    </defs>
    <g clip-path="url(#p939ce12c97)">
     <use style="stroke:#000000;" x="355.030991" xlink:href="#m581c99da55" y="158.658596"/>
    </g>
   </g>
   <g id="Quiver_1">
    <path clip-path="url(#p939ce12c97)" d="M 355.347673 159.358484 
L 339.250259 166.642165 
L 340.58351 167.725258 
L 332.634589 168.792413 
L 338.683419 163.525933 
L 338.616895 165.24239 
L 354.714309 157.958709 
L 355.347673 159.358484 
"/>
   </g>
   <g id="patch_3">
    <path clip-path="url(#p939ce12c97)" d="M 236.16 225.741278 
C 249.74192 225.741278 262.769389 220.345124 272.373256 210.741256 
C 281.977124 201.137389 287.373278 188.10992 287.373278 174.528 
C 287.373278 160.94608 281.977124 147.918611 272.373256 138.314744 
C 262.769389 128.710876 249.74192 123.314722 236.16 123.314722 
C 222.57808 123.314722 209.550611 128.710876 199.946744 138.314744 
C 190.342876 147.918611 184.946722 160.94608 184.946722 174.528 
C 184.946722 188.10992 190.342876 201.137389 199.946744 210.741256 
C 209.550611 220.345124 222.57808 225.741278 236.16 225.741278 
z
" style="fill:#009900;fill-opacity:0.5;stroke:#009900;stroke-linejoin:miter;stroke-width:2;"/>
   </g>
   <g id="matplotlib.axis_1">
    <g id="xtick_1">
     <g id="line2d_1">
      <defs>
       <path d="M 0 0 
L 0 3.5 
" id="me583b4908f" style="stroke:#000000;stroke-width:0.8;"/>
      </defs>
      <g>
       <use style="stroke:#000000;stroke-width:0.8;" x="108.126804" xlink:href="#me583b4908f" y="307.584"/>
      </g>
     </g>
     <g id="text_1">
      <!-- −2 -->
      <defs>
       <path d="M 10.59375 35.5 
L 73.1875 35.5 
L 73.1875 27.203125 
L 10.59375 27.203125 
z
" id="DejaVuSans-2212"/>
       <path d="M 19.1875 8.296875 
L 53.609375 8.296875 
L 53.609375 0 
L 7.328125 0 
L 7.328125 8.296875 
Q 12.9375 14.109375 22.625 23.890625 
Q 32.328125 33.6875 34.8125 36.53125 
Q 39.546875 41.84375 41.421875 45.53125 
Q 43.3125 49.21875 43.3125 52.78125 
Q 43.3125 58.59375 39.234375 62.25 
Q 35.15625 65.921875 28.609375 65.921875 
Q 23.96875 65.921875 18.8125 64.3125 
Q 13.671875 62.703125 7.8125 59.421875 
L 7.8125 69.390625 
Q 13.765625 71.78125 18.9375 73 
Q 24.125 74.21875 28.421875 74.21875 
Q 39.75 74.21875 46.484375 68.546875 
Q 53.21875 62.890625 53.21875 53.421875 
Q 53.21875 48.921875 51.53125 44.890625 
Q 49.859375 40.875 45.40625 35.40625 
Q 44.1875 33.984375 37.640625 27.21875 
Q 31.109375 20.453125 19.1875 8.296875 
z
" id="DejaVuSans-32"/>
      </defs>
      <g transform="translate(100.755711 322.182437)scale(0.1 -0.1)">
       <use xlink:href="#DejaVuSans-2212"/>
       <use x="83.789062" xlink:href="#DejaVuSans-32"/>
      </g>
     </g>
    </g>
    <g id="xtick_2">
     <g id="line2d_2">
      <g>
       <use style="stroke:#000000;stroke-width:0.8;" x="172.143402" xlink:href="#me583b4908f" y="307.584"/>
      </g>
     </g>
     <g id="text_2">
      <!-- −1 -->
      <defs>
       <path d="M 12.40625 8.296875 
L 28.515625 8.296875 
L 28.515625 63.921875 
L 10.984375 60.40625 
L 10.984375 69.390625 
L 28.421875 72.90625 
L 38.28125 72.90625 
L 38.28125 8.296875 
L 54.390625 8.296875 
L 54.390625 0 
L 12.40625 0 
z
" id="DejaVuSans-31"/>
      </defs>
      <g transform="translate(164.772308 322.182437)scale(0.1 -0.1)">
       <use xlink:href="#DejaVuSans-2212"/>
       <use x="83.789062" xlink:href="#DejaVuSans-31"/>
      </g>
     </g>
    </g>
    <g id="xtick_3">
     <g id="line2d_3">
      <g>
       <use style="stroke:#000000;stroke-width:0.8;" x="236.16" xlink:href="#me583b4908f" y="307.584"/>
      </g>
     </g>
     <g id="text_3">
      <!-- 0 -->
      <defs>
       <path d="M 31.78125 66.40625 
Q 24.171875 66.40625 20.328125 58.90625 
Q 16.5 51.421875 16.5 36.375 
Q 16.5 21.390625 20.328125 13.890625 
Q 24.171875 6.390625 31.78125 6.390625 
Q 39.453125 6.390625 43.28125 13.890625 
Q 47.125 21.390625 47.125 36.375 
Q 47.125 51.421875 43.28125 58.90625 
Q 39.453125 66.40625 31.78125 66.40625 
z
M 31.78125 74.21875 
Q 44.046875 74.21875 50.515625 64.515625 
Q 56.984375 54.828125 56.984375 36.375 
Q 56.984375 17.96875 50.515625 8.265625 
Q 44.046875 -1.421875 31.78125 -1.421875 
Q 19.53125 -1.421875 13.0625 8.265625 
Q 6.59375 17.96875 6.59375 36.375 
Q 6.59375 54.828125 13.0625 64.515625 
Q 19.53125 74.21875 31.78125 74.21875 
z
" id="DejaVuSans-30"/>
      </defs>
      <g transform="translate(232.97875 322.182437)scale(0.1 -0.1)">
       <use xlink:href="#DejaVuSans-30"/>
      </g>
     </g>
    </g>
    <g id="xtick_4">
     <g id="line2d_4">
      <g>
       <use style="stroke:#000000;stroke-width:0.8;" x="300.176598" xlink:href="#me583b4908f" y="307.584"/>
      </g>
     </g>
     <g id="text_4">
      <!-- 1 -->
      <g transform="translate(296.995348 322.182437)scale(0.1 -0.1)">
       <use xlink:href="#DejaVuSans-31"/>
      </g>
     </g>
    </g>
    <g id="xtick_5">
     <g id="line2d_5">
      <g>
       <use style="stroke:#000000;stroke-width:0.8;" x="364.193196" xlink:href="#me583b4908f" y="307.584"/>
      </g>
     </g>
     <g id="text_5">
      <!-- 2 -->
      <g transform="translate(361.011946 322.182437)scale(0.1 -0.1)">
       <use xlink:href="#DejaVuSans-32"/>
      </g>
     </g>
    </g>
   </g>
   <g id="matplotlib.axis_2">
    <g id="ytick_1">
     <g id="line2d_6">
      <defs>
       <path d="M 0 0 
L -3.5 0 
" id="m4f97455652" style="stroke:#000000;stroke-width:0.8;"/>
      </defs>
      <g>
       <use style="stroke:#000000;stroke-width:0.8;" x="82.520165" xlink:href="#m4f97455652" y="302.561196"/>
      </g>
     </g>
     <g id="text_6">
      <!-- −2.0 -->
      <defs>
       <path d="M 10.6875 12.40625 
L 21 12.40625 
L 21 0 
L 10.6875 0 
z
" id="DejaVuSans-2e"/>
      </defs>
      <g transform="translate(51.237353 306.360414)scale(0.1 -0.1)">
       <use xlink:href="#DejaVuSans-2212"/>
       <use x="83.789062" xlink:href="#DejaVuSans-32"/>
       <use x="147.412109" xlink:href="#DejaVuSans-2e"/>
       <use x="179.199219" xlink:href="#DejaVuSans-30"/>
      </g>
     </g>
    </g>
    <g id="ytick_2">
     <g id="line2d_7">
      <g>
       <use style="stroke:#000000;stroke-width:0.8;" x="82.520165" xlink:href="#m4f97455652" y="270.552897"/>
      </g>
     </g>
     <g id="text_7">
      <!-- −1.5 -->
      <defs>
       <path d="M 10.796875 72.90625 
L 49.515625 72.90625 
L 49.515625 64.59375 
L 19.828125 64.59375 
L 19.828125 46.734375 
Q 21.96875 47.46875 24.109375 47.828125 
Q 26.265625 48.1875 28.421875 48.1875 
Q 40.625 48.1875 47.75 41.5 
Q 54.890625 34.8125 54.890625 23.390625 
Q 54.890625 11.625 47.5625 5.09375 
Q 40.234375 -1.421875 26.90625 -1.421875 
Q 22.3125 -1.421875 17.546875 -0.640625 
Q 12.796875 0.140625 7.71875 1.703125 
L 7.71875 11.625 
Q 12.109375 9.234375 16.796875 8.0625 
Q 21.484375 6.890625 26.703125 6.890625 
Q 35.15625 6.890625 40.078125 11.328125 
Q 45.015625 15.765625 45.015625 23.390625 
Q 45.015625 31 40.078125 35.4375 
Q 35.15625 39.890625 26.703125 39.890625 
Q 22.75 39.890625 18.8125 39.015625 
Q 14.890625 38.140625 10.796875 36.28125 
z
" id="DejaVuSans-35"/>
      </defs>
      <g transform="translate(51.237353 274.352116)scale(0.1 -0.1)">
       <use xlink:href="#DejaVuSans-2212"/>
       <use x="83.789062" xlink:href="#DejaVuSans-31"/>
       <use x="147.412109" xlink:href="#DejaVuSans-2e"/>
       <use x="179.199219" xlink:href="#DejaVuSans-35"/>
      </g>
     </g>
    </g>
    <g id="ytick_3">
     <g id="line2d_8">
      <g>
       <use style="stroke:#000000;stroke-width:0.8;" x="82.520165" xlink:href="#m4f97455652" y="238.544598"/>
      </g>
     </g>
     <g id="text_8">
      <!-- −1.0 -->
      <g transform="translate(51.237353 242.343817)scale(0.1 -0.1)">
       <use xlink:href="#DejaVuSans-2212"/>
       <use x="83.789062" xlink:href="#DejaVuSans-31"/>
       <use x="147.412109" xlink:href="#DejaVuSans-2e"/>
       <use x="179.199219" xlink:href="#DejaVuSans-30"/>
      </g>
     </g>
    </g>
    <g id="ytick_4">
     <g id="line2d_9">
      <g>
       <use style="stroke:#000000;stroke-width:0.8;" x="82.520165" xlink:href="#m4f97455652" y="206.536299"/>
      </g>
     </g>
     <g id="text_9">
      <!-- −0.5 -->
      <g transform="translate(51.237353 210.335518)scale(0.1 -0.1)">
       <use xlink:href="#DejaVuSans-2212"/>
       <use x="83.789062" xlink:href="#DejaVuSans-30"/>
       <use x="147.412109" xlink:href="#DejaVuSans-2e"/>
       <use x="179.199219" xlink:href="#DejaVuSans-35"/>
      </g>
     </g>
    </g>
    <g id="ytick_5">
     <g id="line2d_10">
      <g>
       <use style="stroke:#000000;stroke-width:0.8;" x="82.520165" xlink:href="#m4f97455652" y="174.528"/>
      </g>
     </g>
     <g id="text_10">
      <!-- 0.0 -->
      <g transform="translate(59.61704 178.327219)scale(0.1 -0.1)">
       <use xlink:href="#DejaVuSans-30"/>
       <use x="63.623047" xlink:href="#DejaVuSans-2e"/>
       <use x="95.410156" xlink:href="#DejaVuSans-30"/>
      </g>
     </g>
    </g>
    <g id="ytick_6">
     <g id="line2d_11">
      <g>
       <use style="stroke:#000000;stroke-width:0.8;" x="82.520165" xlink:href="#m4f97455652" y="142.519701"/>
      </g>
     </g>
     <g id="text_11">
      <!-- 0.5 -->
      <g transform="translate(59.61704 146.31892)scale(0.1 -0.1)">
       <use xlink:href="#DejaVuSans-30"/>
       <use x="63.623047" xlink:href="#DejaVuSans-2e"/>
       <use x="95.410156" xlink:href="#DejaVuSans-35"/>
      </g>
     </g>
    </g>
    <g id="ytick_7">
     <g id="line2d_12">
      <g>
       <use style="stroke:#000000;stroke-width:0.8;" x="82.520165" xlink:href="#m4f97455652" y="110.511402"/>
      </g>
     </g>
     <g id="text_12">
      <!-- 1.0 -->
      <g transform="translate(59.61704 114.310621)scale(0.1 -0.1)">
       <use xlink:href="#DejaVuSans-31"/>
       <use x="63.623047" xlink:href="#DejaVuSans-2e"/>
       <use x="95.410156" xlink:href="#DejaVuSans-30"/>
      </g>
     </g>
    </g>
    <g id="ytick_8">
     <g id="line2d_13">
      <g>
       <use style="stroke:#000000;stroke-width:0.8;" x="82.520165" xlink:href="#m4f97455652" y="78.503103"/>
      </g>
     </g>
     <g id="text_13">
      <!-- 1.5 -->
      <g transform="translate(59.61704 82.302322)scale(0.1 -0.1)">
       <use xlink:href="#DejaVuSans-31"/>
       <use x="63.623047" xlink:href="#DejaVuSans-2e"/>
       <use x="95.410156" xlink:href="#DejaVuSans-35"/>
      </g>
     </g>
    </g>
    <g id="ytick_9">
     <g id="line2d_14">
      <g>
       <use style="stroke:#000000;stroke-width:0.8;" x="82.520165" xlink:href="#m4f97455652" y="46.494804"/>
      </g>
     </g>
     <g id="text_14">
      <!-- 2.0 -->
      <g transform="translate(59.61704 50.294023)scale(0.1 -0.1)">
       <use xlink:href="#DejaVuSans-32"/>
       <use x="63.623047" xlink:href="#DejaVuSans-2e"/>
       <use x="95.410156" xlink:href="#DejaVuSans-30"/>
      </g>
     </g>
    </g>
   </g>
   <g id="line2d_15">
    <path clip-path="url(#p939ce12c97)" d="M 300.176598 63.648 
L 172.143402 63.648 
" style="fill:none;stroke:#009900;stroke-linecap:square;stroke-width:2;"/>
   </g>
   <g id="line2d_16">
    <path clip-path="url(#p939ce12c97)" d="M 172.143402 63.648 
L 108.126804 174.528 
" style="fill:none;stroke:#009900;stroke-linecap:square;stroke-width:2;"/>
   </g>
   <g id="line2d_17">
    <path clip-path="url(#p939ce12c97)" d="M 108.126804 174.528 
L 172.143402 285.408 
" style="fill:none;stroke:#009900;stroke-linecap:square;stroke-width:2;"/>
   </g>
   <g id="line2d_18">
    <path clip-path="url(#p939ce12c97)" d="M 172.143402 285.408 
L 300.176598 285.408 
" style="fill:none;stroke:#009900;stroke-linecap:square;stroke-width:2;"/>
   </g>
   <g id="line2d_19">
    <path clip-path="url(#p939ce12c97)" d="M 300.176598 285.408 
L 364.193196 174.528 
" style="fill:none;stroke:#009900;stroke-linecap:square;stroke-width:2;"/>
   </g>
   <g id="line2d_20">
    <path clip-path="url(#p939ce12c97)" d="M 364.193196 174.528 
L 300.176598 63.648 
" style="fill:none;stroke:#009900;stroke-linecap:square;stroke-width:2;"/>
   </g>
   <g id="line2d_21">
    <path clip-path="url(#p939ce12c97)" d="M 294.092807 187.573108 
L 294.189326 182.453032 
L 294.081019 177.333191 
L 293.76806 172.221776 
L 293.25095 167.126965 
L 292.530514 162.056909 
L 291.607907 157.019717 
L 290.484604 152.023449 
L 289.162402 147.076098 
L 287.643416 142.185578 
L 285.930077 137.359714 
L 284.025125 132.606224 
L 281.931608 127.932715 
L 279.652875 123.346663 
L 277.192572 118.855403 
L 274.554634 114.466123 
L 271.743282 110.185842 
L 268.763013 106.02141 
L 265.618595 101.979487 
L 262.315058 98.066541 
L 258.857688 94.288831 
L 255.252015 90.652401 
L 251.503808 87.163068 
L 247.619063 83.826414 
L 243.603995 80.647778 
L 239.465026 77.632244 
L 235.20878 74.784636 
L 230.842064 72.109512 
L 226.371864 69.611148 
L 221.805333 67.293544 
L 217.149774 65.160406 
L 213.514654 63.648 
L 208.795707 65.636982 
L 204.160074 67.81308 
L 199.615169 70.172813 
L 195.168264 72.712407 
L 190.826472 75.427798 
L 186.596741 78.314642 
L 182.485835 81.368322 
L 178.500332 84.583951 
L 174.646609 87.956385 
L 170.930829 91.48023 
L 167.358937 95.149848 
L 163.936649 98.959368 
L 160.669438 102.902696 
L 157.562531 106.973523 
L 154.620899 111.165337 
L 151.849248 115.471432 
L 149.252012 119.884918 
L 146.833346 124.398737 
L 144.59712 129.005665 
L 142.54691 133.698334 
L 140.685996 138.469236 
L 139.017356 143.310738 
L 137.54366 148.215095 
L 136.267264 153.174462 
L 135.190211 158.180904 
L 134.314224 163.226411 
L 133.640704 168.302913 
L 133.170729 173.402288 
L 132.90505 178.516378 
L 132.844093 183.637002 
L 132.987955 188.755967 
L 133.336406 193.865085 
L 133.888888 198.956182 
L 134.644518 204.021113 
L 135.602087 209.051775 
L 136.760062 214.040121 
L 138.116592 218.97817 
L 139.669506 223.858022 
L 141.416321 228.671871 
L 143.35424 233.412016 
L 145.480165 238.070873 
L 147.790693 242.640988 
L 150.282129 247.115052 
L 152.950488 251.485906 
L 155.791499 255.746558 
L 158.800619 259.890192 
L 161.973033 263.910179 
L 165.303665 267.800087 
L 168.787189 271.553694 
L 172.41803 275.164995 
L 176.19038 278.628213 
L 180.098205 281.937806 
L 184.563852 285.408 
L 188.61402 282.274209 
L 192.53563 278.980962 
L 196.322408 275.533526 
L 199.968296 271.937417 
L 203.467462 268.198387 
L 206.814308 264.32242 
L 210.003479 260.315714 
L 213.029874 256.184681 
L 215.88865 251.935928 
L 218.575236 247.576254 
L 221.085331 243.112632 
L 223.414922 238.552203 
L 225.560281 233.902264 
L 227.517975 229.170252 
L 228.980522 225.235544 
L 229.380482 230.340887 
L 229.984281 235.426153 
L 230.790954 240.483206 
L 231.79921 245.503955 
L 233.007436 250.480368 
L 234.413698 255.404485 
L 236.015748 260.268428 
L 237.811022 265.064415 
L 239.796649 269.784774 
L 241.969451 274.421953 
L 244.325953 278.968534 
L 246.862385 283.417244 
L 248.075507 285.408 
L 250.692518 281.00621 
L 253.131411 276.503289 
L 255.388285 271.906439 
L 257.459528 267.223016 
L 259.341828 262.460512 
L 261.032172 257.626545 
L 262.527858 252.728848 
L 263.826491 247.775258 
L 264.925995 242.773699 
L 265.82461 237.732173 
L 266.520899 232.658743 
L 267.013748 227.561528 
L 267.302369 222.448682 
L 267.3863 217.328383 
L 267.359706 215.140538 
L 272.306775 216.463795 
L 277.302803 217.588163 
L 282.339798 218.511845 
L 287.409701 219.233362 
L 292.504401 219.751559 
L 297.615749 220.065608 
L 302.735567 220.175007 
L 307.855664 220.07958 
L 312.96785 219.77948 
L 318.063945 219.275188 
L 323.135798 218.567509 
L 328.175295 217.657576 
L 333.174372 216.546845 
L 338.125034 215.237093 
L 341.226666 214.307197 
L 340.011025 209.332589 
L 338.597426 204.410574 
L 336.988129 199.549024 
L 335.18571 194.755717 
L 333.193051 190.038323 
L 331.013341 185.404387 
L 328.650066 180.861322 
L 326.107007 176.416398 
L 323.388233 172.076724 
L 320.498093 167.849243 
L 317.441211 163.740719 
L 314.222476 159.757724 
L 310.847039 155.906629 
L 307.3203 152.193597 
L 303.647899 148.624567 
L 299.835713 145.205248 
L 295.88984 141.941111 
L 291.816593 138.837379 
L 287.622488 135.899015 
L 283.314234 133.130721 
L 278.898724 130.536925 
L 274.383022 128.121778 
L 269.774352 125.889142 
L 265.080087 123.84259 
L 260.307736 121.985396 
L 255.464935 120.32053 
L 250.55943 118.850656 
L 245.599071 117.578126 
L 240.591791 116.504975 
L 235.545602 115.632921 
L 230.468577 114.963357 
L 225.368837 114.497356 
L 220.254542 114.235663 
L 215.133872 114.178697 
L 210.01502 114.326549 
L 204.906176 114.678981 
L 199.815511 115.235431 
L 194.751171 115.995008 
L 189.721256 116.956498 
L 184.733814 118.118361 
L 179.796824 119.478739 
L 174.918184 121.035456 
L 170.105697 122.786021 
L 165.367065 124.727634 
L 160.709866 126.857189 
L 156.141552 129.171279 
L 151.669432 131.666202 
L 147.300659 134.337966 
L 143.042222 137.182297 
L 138.900935 140.194645 
L 134.883422 143.370191 
L 130.99611 146.703854 
L 127.245219 150.190302 
L 123.636749 153.823957 
L 120.176473 157.599005 
L 116.869927 161.509408 
L 113.722399 165.54891 
L 111.72373 168.297942 
L 109.673894 172.990774 
L 108.676038 175.479301 
L 113.751991 176.156945 
L 118.850983 176.631063 
L 123.964855 176.900897 
L 129.085427 176.966014 
L 134.204508 176.826311 
L 139.313907 176.482012 
L 144.405451 175.933666 
L 149.470994 175.182151 
L 154.502433 174.22867 
L 159.491718 173.074747 
L 164.430867 171.72223 
L 169.31198 170.173281 
L 174.127246 168.430378 
L 178.868964 166.496311 
L 183.529546 164.374172 
L 186.254874 163.026772 
L 183.087865 159.002526 
L 179.762463 155.108145 
L 176.283987 151.34986 
L 172.658002 147.733683 
L 168.890309 144.265399 
L 164.986936 140.950558 
L 160.954126 137.794461 
L 156.798332 134.802157 
L 152.526202 131.978435 
L 148.14457 129.327811 
L 143.660447 126.854526 
L 139.081006 124.562537 
L 137.421743 123.787678 
L 141.655615 126.668447 
L 146.001301 129.377601 
L 150.451847 131.910808 
L 155.000136 134.264013 
L 159.638889 136.433454 
L 164.360686 138.415658 
L 169.157973 140.207456 
L 174.023076 141.805979 
L 178.94821 143.208672 
L 183.925499 144.41329 
L 188.946977 145.417906 
L 193.525508 146.153716 
L 190.815691 141.808444 
L 187.934276 137.575011 
L 184.885874 133.460191 
L 181.675362 129.470565 
L 178.307875 125.612517 
L 174.788801 121.892219 
L 171.12377 118.315621 
L 167.318645 114.888447 
L 163.379512 111.616179 
L 159.312675 108.504051 
L 155.124639 105.557043 
L 150.822105 102.779869 
L 149.882406 102.205176 
L 151.572265 103.117657 
L 156.143495 105.425981 
L 160.803376 107.549658 
L 165.544455 109.485291 
L 170.359146 111.229783 
L 175.239747 112.780343 
L 180.17845 114.134491 
L 185.167353 115.290061 
L 190.198477 116.245203 
L 195.263772 116.99839 
L 200.355134 117.548416 
L 205.46442 117.894403 
L 210.583454 118.035795 
L 215.704047 117.972368 
L 220.818009 117.704223 
L 225.917156 117.231788 
L 230.993333 116.555819 
L 236.038417 115.677398 
L 241.044339 114.597931 
L 246.003089 113.319143 
L 250.906735 111.843081 
L 255.747432 110.172106 
L 260.517435 108.308892 
L 265.209115 106.256419 
L 269.814964 104.01797 
L 274.327615 101.597127 
L 278.739849 98.997762 
L 283.044607 96.224035 
L 287.235001 93.280382 
L 291.304329 90.171512 
L 295.246081 86.902399 
L 299.053949 83.478273 
L 302.721844 79.904612 
L 306.243896 76.187133 
L 306.958784 75.395091 
L 301.968571 76.544993 
L 297.028333 77.89353 
L 292.145974 79.438546 
L 287.329305 81.177567 
L 282.58603 83.107814 
L 277.923739 85.226196 
L 273.34989 87.529326 
L 268.871801 90.013519 
L 264.496634 92.674801 
L 260.23139 95.508913 
L 256.082892 98.511324 
L 252.057777 101.677228 
L 248.162484 105.001561 
L 244.403245 108.479006 
L 240.786073 112.103999 
L 237.316756 115.87074 
L 234.000843 119.773204 
L 231.018077 123.573506 
L 227.111477 120.262467 
L 223.075596 117.110299 
L 218.91689 114.122044 
L 214.642012 111.302484 
L 210.257801 108.656128 
L 205.771271 106.187212 
L 201.189599 103.899683 
L 196.520116 101.797202 
L 191.770291 99.883132 
L 186.947722 98.160536 
L 182.060126 96.632169 
L 177.115321 95.300476 
L 172.121218 94.167588 
L 167.085806 93.235317 
L 162.017141 92.505154 
L 156.923332 91.978268 
L 155.836472 91.892432 
L 158.804243 96.06578 
L 161.936531 100.117111 
L 165.228323 104.039942 
L 168.674353 107.828 
L 172.269108 111.475222 
L 176.006838 114.975776 
L 179.881564 118.32406 
L 183.887085 121.514718 
L 188.016995 124.542646 
L 192.264686 127.402999 
L 196.623363 130.091202 
L 201.086053 132.602955 
L 204.424822 134.332498 
L 203.162268 129.36959 
L 201.702261 124.46114 
L 200.047136 119.615001 
L 198.19954 114.838926 
L 196.162431 110.140555 
L 193.939066 105.527405 
L 191.533003 101.006856 
L 188.948091 96.58614 
L 186.188465 92.272329 
L 183.25854 88.072324 
L 180.163003 83.992845 
L 176.906807 80.040417 
L 173.49516 76.221363 
L 169.933521 72.541794 
L 168.060348 70.720057 
L 173.001333 72.065855 
L 177.992183 73.21299 
L 183.024914 74.159626 
L 188.091474 74.90425 
L 193.183759 75.44567 
L 198.293622 75.783019 
L 203.412888 75.915759 
L 208.533367 75.843676 
L 213.646868 75.566887 
L 218.74521 75.085833 
L 223.820236 74.401285 
L 228.863829 73.514337 
L 233.867919 72.42641 
L 238.8245 71.139242 
L 243.725644 69.654893 
L 248.563509 67.975738 
L 253.330357 66.104463 
L 258.01856 64.044062 
L 258.864839 63.648 
L 263.537881 65.74256 
L 268.290945 67.648572 
L 273.116427 69.362989 
L 278.006608 70.883066 
L 282.953664 72.206372 
L 287.949681 73.33079 
L 292.986666 74.254521 
L 298.056562 74.976087 
L 303.151257 75.494335 
L 307.168573 75.758456 
L 304.92421 80.361427 
L 302.865711 85.050465 
L 300.99637 89.818071 
L 299.319179 94.656618 
L 297.836819 99.558363 
L 296.551662 104.515467 
L 295.465764 109.519998 
L 294.580863 114.56395 
L 293.898374 119.639254 
L 293.419389 124.73779 
L 293.144675 129.851403 
L 293.07467 134.971911 
L 293.209486 140.091122 
L 293.548909 145.200848 
L 294.092395 150.292912 
L 294.839074 155.359171 
L 295.787752 160.391517 
L 296.936912 165.381901 
L 298.284714 170.32234 
L 299.829004 175.204928 
L 301.567309 180.021856 
L 303.49685 184.765418 
L 305.614539 189.428024 
L 307.916989 194.002215 
L 310.400516 198.480674 
L 313.061147 202.856236 
L 315.894625 207.121902 
L 318.896419 211.270846 
L 322.061724 215.296432 
L 325.385478 219.192219 
L 328.862364 222.951976 
L 332.486818 226.569687 
L 333.55971 227.586754 
L 328.63014 226.199728 
L 323.649047 225.010942 
L 318.624399 224.022297 
L 313.564235 223.235376 
L 308.476651 222.651437 
L 303.369784 222.271413 
L 298.251806 222.095914 
L 293.130904 222.12522 
L 288.015269 222.359284 
L 282.913087 222.797732 
L 277.832519 223.439862 
L 272.781693 224.284646 
L 267.76869 225.330734 
L 262.801529 226.576452 
L 257.888156 228.019807 
L 253.036433 229.65849 
L 248.25412 231.489879 
L 243.548869 233.511045 
L 238.928206 235.718754 
L 234.399525 238.109475 
L 229.970069 240.679382 
L 225.646925 243.424364 
L 221.437009 246.340031 
L 217.347056 249.421716 
L 213.383609 252.664492 
L 209.553009 256.063169 
L 205.861384 259.61231 
L 202.31464 263.306239 
L 198.91845 267.139044 
L 195.678248 271.104595 
L 192.599218 275.196547 
L 189.686285 279.408355 
L 186.94411 283.73328 
L 185.946007 285.408 
L 183.270004 281.041822 
L 180.421541 276.786148 
L 177.405175 272.647786 
L 174.225732 268.633357 
L 170.888297 264.749283 
L 167.398211 261.001777 
L 163.761055 257.396836 
L 159.98265 253.940225 
L 156.06904 250.637475 
L 152.026486 247.49387 
L 148.982134 245.291506 
L 148.430128 240.200358 
L 147.674972 235.135356 
L 146.717873 230.104604 
L 145.560365 225.11615 
L 144.204297 220.177974 
L 142.651839 215.297977 
L 140.905475 210.483964 
L 138.967999 205.743638 
L 136.842511 201.084583 
L 134.53241 196.514251 
L 132.041392 192.039954 
L 129.373442 187.66885 
L 126.53283 183.407932 
L 123.524098 179.264017 
L 120.35206 175.243733 
L 117.021791 171.353513 
L 113.538619 167.59958 
L 112.651819 166.690445 
L 117.632857 167.879461 
L 122.657459 168.868338 
L 127.717586 169.655493 
L 132.805144 170.239667 
L 137.911993 170.619926 
L 143.029963 170.795662 
L 148.150867 170.766592 
L 153.266512 170.532764 
L 158.368715 170.094553 
L 163.449312 169.452658 
L 168.500177 168.608106 
L 173.513229 167.56225 
L 178.480447 166.316761 
L 183.393886 164.873633 
L 186.039022 164.007189 
L 182.193177 160.625773 
L 178.215187 157.400854 
L 174.111417 154.337592 
L 169.888432 151.440888 
L 165.552987 148.715375 
L 161.112019 146.165413 
L 156.572632 143.795083 
L 151.942088 141.608175 
L 147.227795 139.60819 
L 142.437295 137.798325 
L 137.578251 136.181477 
L 132.658438 134.760233 
L 131.292857 134.40322 
L 134.944237 137.993752 
L 138.73628 141.435397 
L 142.662918 144.722647 
L 146.71787 147.850244 
L 150.894649 150.813185 
L 155.186574 153.606729 
L 159.586777 156.226407 
L 164.08822 158.668028 
L 168.6837 160.927687 
L 173.365868 163.001768 
L 178.127231 164.886953 
L 182.960172 166.580227 
L 185.449579 167.368873 
L 180.331929 167.553703 
L 175.225764 167.943036 
L 170.139253 168.536251 
L 165.080532 169.332397 
L 160.057696 170.330201 
L 155.078778 171.528067 
L 150.151745 172.924078 
L 145.284479 174.516001 
L 140.484766 176.30129 
L 135.760284 178.277088 
L 131.118593 180.440235 
L 126.567117 182.787269 
L 122.113138 185.314436 
L 117.763782 188.017694 
L 116.424354 188.899777 
L 116.997671 188.614963 
L 121.531487 186.233995 
L 125.966464 183.673626 
L 130.295505 180.937954 
L 134.511686 178.031355 
L 138.608262 174.958479 
L 142.578678 171.724241 
L 146.416584 168.333815 
L 150.115839 164.792627 
L 153.670525 161.10634 
L 157.074955 157.280853 
L 160.323684 153.322284 
L 163.411513 149.236968 
L 166.333504 145.031439 
L 169.08498 140.712425 
L 171.661542 136.286837 
L 174.059066 131.761754 
L 176.273717 127.144414 
L 178.301953 122.442206 
L 180.140528 117.662651 
L 181.786501 112.813396 
L 183.237239 107.902199 
L 184.490421 102.936916 
L 185.544042 97.92549 
L 186.396417 92.87594 
L 187.046182 87.796343 
L 187.492298 82.694825 
L 187.73405 77.579548 
L 187.771053 72.458695 
L 187.603246 67.340459 
L 187.354637 63.648 
L 187.038973 68.759248 
L 186.927956 73.879031 
L 187.021765 78.999158 
L 187.32025 84.111438 
L 187.822932 89.207693 
L 188.529008 94.279769 
L 189.437348 99.319553 
L 190.546499 104.318982 
L 191.854687 109.270057 
L 193.359819 114.164858 
L 195.059487 118.995555 
L 196.950971 123.754419 
L 199.031246 128.433838 
L 201.296984 133.026324 
L 202.737091 135.724533 
L 198.601986 132.703704 
L 194.349388 129.850652 
L 189.986099 127.16994 
L 185.519101 124.665858 
L 180.955539 122.342411 
L 176.302714 120.203316 
L 171.568071 118.251996 
L 166.759182 116.491572 
L 161.883742 114.92486 
L 156.94955 113.554367 
L 151.9645 112.382286 
L 146.936566 111.41049 
L 144.772385 111.055992 
L 148.061201 114.981319 
L 151.504358 118.771988 
L 155.096346 122.421936 
L 158.831421 125.925323 
L 162.703606 129.276545 
L 166.706706 132.47024 
L 170.834319 135.501299 
L 175.079839 138.364873 
L 179.436477 141.05638 
L 183.89726 143.571516 
L 188.455055 145.906257 
L 192.484523 147.783794 
L 188.439634 144.643192 
L 184.272391 141.666855 
L 179.989459 138.859543 
L 175.597691 136.225749 
L 171.104112 133.769685 
L 166.515911 131.495281 
L 161.840428 129.406175 
L 157.085143 127.50571 
L 152.257664 125.796926 
L 147.365713 124.282556 
L 142.417116 122.965024 
L 138.422616 122.054115 
L 141.920036 125.794777 
L 145.564245 129.392588 
L 149.349414 132.841791 
L 153.269486 136.136869 
L 157.31819 139.27255 
L 161.48905 142.243817 
L 165.775392 145.045919 
L 170.17036 147.674371 
L 174.666922 150.124968 
L 179.257886 152.393791 
L 183.935905 154.477209 
L 188.325874 156.233295 
L 184.722557 154.90354 
L 179.859176 153.299786 
L 174.935552 151.891798 
L 169.959562 150.681829 
L 164.939166 149.671814 
L 159.882396 148.86337 
L 154.797343 148.257789 
L 149.692139 147.85604 
L 144.574954 147.658766 
L 139.453973 147.666283 
L 134.337389 147.878579 
L 129.233387 148.295314 
L 124.150133 148.915821 
L 122.798623 149.115664 
L 124.752477 153.849263 
L 126.894061 158.500942 
L 129.219949 163.06326 
L 131.726421 167.528918 
L 134.409467 171.890772 
L 137.264795 176.141843 
L 140.287836 180.275331 
L 143.473754 184.284624 
L 146.817453 188.163307 
L 150.313583 191.905174 
L 153.956551 195.504241 
L 157.74053 198.95475 
L 161.659466 202.251179 
L 165.707088 205.388256 
L 169.876923 208.360962 
L 174.162299 211.164541 
L 178.55636 213.794508 
L 183.052077 216.246656 
L 187.642258 218.517062 
L 192.319559 220.602093 
L 197.076498 222.498415 
L 201.905464 224.202992 
L 206.798733 225.7131 
L 211.748476 227.02632 
L 216.746774 228.140553 
L 221.785632 229.054017 
L 226.856988 229.765249 
L 231.952729 230.273112 
L 237.064703 230.576794 
L 242.184732 230.675808 
L 247.304625 230.569997 
L 252.416191 230.259529 
L 257.511254 229.744901 
L 262.581661 229.026936 
L 267.619301 228.106784 
L 272.616116 226.985916 
L 277.564111 225.666125 
L 282.455371 224.149523 
L 287.28207 222.438536 
L 292.036487 220.535901 
L 296.711016 218.444662 
L 301.298178 216.168164 
L 305.790636 213.71005 
L 310.181202 211.074251 
L 314.462852 208.264985 
L 318.628736 205.286746 
L 322.672191 202.144298 
L 326.586746 198.842669 
L 330.366141 195.38714 
L 334.004328 191.78324 
L 337.495487 188.036734 
L 340.834034 184.153616 
L 344.014627 180.140097 
L 347.032177 176.002599 
L 349.881858 171.747741 
L 352.559111 167.382329 
L 355.059652 162.913348 
L 356.211421 160.703161 
L 351.093212 160.534545 
L 345.972353 160.570737 
L 340.857038 160.81168 
L 335.75545 161.256989 
L 330.67575 161.90595 
L 325.626065 162.757526 
L 320.614473 163.810354 
L 315.648992 165.062751 
L 310.737565 166.512712 
L 305.888049 168.157918 
L 301.108204 169.995736 
L 296.405674 172.023228 
L 291.787985 174.237149 
L 287.331522 176.595654 
L 291.650552 179.347106 
L 296.076155 181.923641 
L 300.601253 184.321139 
L 305.218605 186.535763 
L 309.920825 188.563971 
L 314.700391 190.402518 
L 319.549655 192.048463 
L 324.460861 193.499172 
L 329.426152 194.752325 
L 334.437583 195.805917 
L 339.487139 196.658262 
L 344.56674 197.307997 
L 349.66826 197.754083 
L 350.74441 197.82198 
L 347.842763 193.602389 
L 344.774697 189.502209 
L 341.545123 185.527999 
L 338.159205 181.686116 
L 334.622362 177.982706 
L 330.940251 174.423695 
L 327.118763 171.014776 
L 323.164011 167.761402 
L 319.082322 164.668779 
L 314.880226 161.741854 
L 310.564446 158.985308 
L 306.141885 156.403553 
L 301.61962 154.000718 
L 297.004884 151.780648 
L 292.30506 149.746894 
L 287.527667 147.902709 
L 282.680347 146.251044 
L 277.879257 144.824407 
L 278.104847 139.708392 
L 278.12567 134.587448 
L 277.941694 129.469767 
L 277.553212 124.363537 
L 276.960846 119.276927 
L 276.165543 114.218074 
L 275.168577 109.195071 
L 273.971541 104.215954 
L 272.576352 99.288688 
L 270.98524 94.421156 
L 269.200752 89.621145 
L 267.225742 84.896335 
L 265.063369 80.254282 
L 262.717094 75.702415 
L 260.190669 71.248015 
L 257.488137 66.898208 
L 255.306184 63.648 
L 252.471933 67.913152 
L 249.81051 72.288232 
L 247.326172 76.766241 
L 245.022893 81.340016 
L 242.904359 86.002238 
L 240.973959 90.74545 
L 239.234781 95.562063 
L 237.689608 100.444372 
L 236.34091 105.384566 
L 235.190847 110.374741 
L 234.241257 115.406916 
L 233.49366 120.473039 
L 233.155251 123.402944 
L 231.933583 118.429813 
L 230.514019 113.509514 
L 228.898832 108.649918 
L 227.090605 103.8588 
L 225.092231 99.143824 
L 222.906906 94.512532 
L 220.538127 89.972336 
L 217.989683 85.530496 
L 215.265652 81.19412 
L 212.370391 76.970145 
L 209.308532 72.865329 
L 206.084973 68.886237 
L 202.704871 65.039236 
L 201.413217 63.648 
L 197.976447 67.444461 
L 194.694245 71.37532 
L 191.57186 75.434287 
L 188.614289 79.61487 
L 185.826262 83.91038 
L 183.212239 88.313945 
L 180.776403 92.818521 
L 178.522651 97.416902 
L 176.454587 102.10173 
L 174.575521 106.865511 
L 172.888458 111.700624 
L 171.396098 116.599335 
L 170.100828 121.553805 
L 169.004719 126.556109 
L 168.109527 131.598245 
L 167.416682 136.672146 
L 166.927293 141.769694 
L 166.642143 146.882735 
L 166.561688 152.00309 
L 166.686057 157.122566 
L 167.015052 162.232973 
L 167.548145 167.326137 
L 168.284483 172.393908 
L 169.22289 177.42818 
L 170.361863 182.420899 
L 171.69958 187.364078 
L 173.233902 192.249808 
L 174.962374 197.070273 
L 176.88223 201.817762 
L 178.990399 206.48468 
L 181.28351 211.063561 
L 183.757892 215.547079 
L 186.409588 219.928062 
L 189.234355 224.199501 
L 192.227675 228.354562 
L 195.384759 232.3866 
L 198.700556 236.289162 
L 202.169761 240.056006 
L 205.786825 243.681106 
L 209.545962 247.158662 
L 213.441156 250.483111 
L 217.466177 253.649135 
L 221.614586 256.651669 
L 225.879746 259.485908 
L 230.254833 262.14732 
L 234.732849 264.631645 
L 239.30663 266.934911 
L 243.968858 269.053432 
L 248.712075 270.983819 
L 253.528693 272.722984 
L 258.411006 274.268144 
L 263.351204 275.616828 
L 268.341383 276.766878 
L 273.37356 277.716454 
L 278.439685 278.464037 
L 283.531653 279.008431 
L 288.641317 279.348766 
L 293.760505 279.484496 
L 298.881025 279.415404 
L 303.785721 279.156815 
L 301.458543 274.595155 
L 298.950807 270.130206 
L 296.266528 265.769112 
L 293.409998 261.518848 
L 290.385789 257.386215 
L 287.198736 253.377824 
L 283.853941 249.500087 
L 280.356752 245.759208 
L 276.712766 242.161171 
L 272.927812 238.711733 
L 269.007944 235.416413 
L 264.959434 232.280481 
L 260.788759 229.308954 
L 256.50259 226.506587 
L 252.107785 223.877863 
L 251.336685 223.440862 
L 249.169628 228.080729 
L 247.189849 232.803544 
L 245.400515 237.60175 
L 243.804491 242.467673 
L 242.404328 247.393528 
L 241.202266 252.371434 
L 240.200229 257.393428 
L 239.39982 262.451476 
L 238.802319 267.537486 
L 238.408683 272.643321 
L 238.21954 277.760813 
L 238.235193 282.881776 
L 238.318406 285.408 
L 238.366789 284.128588 
L 238.43233 279.008021 
L 238.29305 273.888929 
L 237.949172 268.779501 
L 237.401247 263.687912 
L 236.65015 258.622307 
L 235.697085 253.59079 
L 234.543575 248.601409 
L 233.191465 243.662148 
L 231.642919 238.780908 
L 229.900415 233.965497 
L 227.966739 229.22362 
L 225.913409 224.705757 
L 222.138497 228.166181 
L 218.504983 231.774793 
L 215.018683 235.525821 
L 211.685171 239.413263 
L 208.509783 243.4309 
L 205.497597 247.572306 
L 202.653433 251.830854 
L 199.98184 256.199731 
L 197.487093 260.67195 
L 195.173182 265.240354 
L 193.04381 269.897636 
L 191.102382 274.636345 
L 189.352006 279.4489 
L 187.79548 284.327601 
L 187.479606 285.408 
L 185.966032 280.515803 
L 184.258033 275.688045 
L 182.358341 270.932451 
L 180.269996 266.256629 
L 177.996338 261.668058 
L 175.541005 257.174079 
L 172.907925 252.781883 
L 170.10131 248.498495 
L 167.12565 244.330767 
L 163.985706 240.285368 
L 160.686501 236.36877 
L 157.233312 232.587237 
L 153.631665 228.94682 
L 149.887321 225.453342 
L 146.00627 222.112392 
L 141.994721 218.929315 
L 137.859091 215.909204 
L 133.605998 213.05689 
L 129.242244 210.376935 
L 128.612033 210.009457 
L 128.502172 204.889649 
L 128.18766 199.77833 
L 127.669002 194.683676 
L 126.947027 189.613839 
L 126.022891 184.576928 
L 124.89807 179.581001 
L 123.574366 174.634052 
L 122.053895 169.743994 
L 120.33909 164.918649 
L 118.432695 160.165739 
L 117.567878 158.175581 
L 122.648784 157.53613 
L 127.700054 156.694009 
L 132.713608 155.650564 
L 137.681426 154.407465 
L 142.595558 152.966701 
L 147.448145 151.330576 
L 152.231423 149.501709 
L 156.937739 147.483024 
L 161.559565 145.277752 
L 166.089507 142.889419 
L 170.520317 140.321848 
L 174.844908 137.579146 
L 179.05636 134.665699 
L 183.147937 131.586171 
L 187.113093 128.345485 
L 190.945485 124.948829 
L 194.638981 121.401634 
L 198.187672 117.709576 
L 201.585882 113.878562 
L 204.828174 109.91472 
L 207.909362 105.824392 
L 210.824515 101.61412 
L 213.56897 97.290642 
L 216.138337 92.860873 
L 218.528506 88.3319 
L 220.735651 83.710968 
L 222.756244 79.00547 
L 224.58705 74.222934 
L 226.225142 69.371011 
L 227.667898 64.457463 
L 227.885251 63.648 
L 229.295811 68.570888 
L 230.902106 73.43343 
L 232.701565 78.227848 
L 234.691311 82.946472 
L 236.86816 87.581753 
L 239.22863 92.126276 
L 241.768944 96.57277 
L 244.485038 100.914122 
L 247.372567 105.143386 
L 250.426912 109.253797 
L 253.643187 113.238779 
L 257.016245 117.091956 
L 260.540692 120.807165 
L 264.210888 124.378462 
L 268.020962 127.800134 
L 271.964819 131.066706 
L 276.036149 134.172953 
L 280.22844 137.113906 
L 284.534983 139.88486 
L 288.948891 142.481381 
L 293.463101 144.899316 
L 298.070392 147.134797 
L 302.763392 149.184247 
L 307.534595 151.044387 
L 312.376368 152.712243 
L 317.280964 154.185145 
L 322.240537 155.460738 
L 327.247153 156.53698 
L 332.292802 157.41215 
L 337.369413 158.084848 
L 342.468864 158.553997 
L 347.582997 158.818847 
L 352.703631 158.878975 
L 355.133327 158.835848 
L 352.540799 163.252101 
L 350.126947 167.768496 
L 347.895634 172.377807 
L 345.850429 177.072659 
L 343.994604 181.845542 
L 342.331127 186.688821 
L 340.862661 191.594747 
L 339.591554 196.555472 
L 338.51984 201.563059 
L 337.649234 206.609498 
L 336.981127 211.686715 
L 336.51659 216.786588 
L 336.256364 221.900959 
L 336.227964 222.965203 
L 331.905913 225.711907 
L 327.697158 228.629249 
L 323.608433 231.712563 
L 319.646278 234.956916 
L 315.817031 238.357118 
L 312.12682 241.90773 
L 308.581547 245.60307 
L 305.186883 249.437228 
L 301.948261 253.404068 
L 298.870861 257.497247 
L 295.959605 261.710214 
L 293.219152 266.036231 
L 290.653886 270.468376 
L 288.26791 274.999559 
L 286.065041 279.622531 
L 284.048805 284.329897 
L 283.618019 285.408 
L 281.644551 280.682545 
L 279.483693 276.039788 
L 277.138903 271.487156 
L 274.613931 267.031932 
L 271.912818 262.681243 
L 269.039884 258.442051 
L 265.999726 254.321136 
L 262.797207 250.325091 
L 259.437451 246.460309 
L 255.925832 242.732973 
L 252.267968 239.149046 
L 248.469711 235.714261 
L 244.537138 232.434113 
L 240.476539 229.313851 
L 236.294411 226.358464 
L 235.365059 225.735108 
L 231.068688 228.52181 
L 226.887193 231.478092 
L 222.827263 234.599224 
L 218.895392 237.880213 
L 215.09787 241.315811 
L 211.440774 244.900521 
L 207.929953 248.628609 
L 204.571024 252.49411 
L 201.36936 256.49084 
L 198.330084 260.612406 
L 195.458058 264.852213 
L 192.757877 269.20348 
L 190.233859 273.659244 
L 187.890043 278.212379 
L 185.73018 282.855598 
L 184.637325 285.408 
L 182.578655 280.719036 
L 180.334124 276.116148 
L 177.907322 271.606698 
L 175.302131 267.197902 
L 172.522719 262.896813 
L 169.573533 258.71031 
L 166.45929 254.645093 
L 163.184973 250.707663 
L 159.75582 246.904321 
L 156.177317 243.241151 
L 152.455188 239.724013 
L 148.595389 236.358534 
L 144.604094 233.150097 
L 140.487688 230.103836 
L 140.024794 229.776939 
L 139.467384 224.68638 
L 138.706851 219.622183 
L 137.744412 214.59245 
L 136.581608 209.605228 
L 135.220298 204.668494 
L 133.66266 199.790147 
L 131.911187 194.977992 
L 129.968679 190.239725 
L 127.838245 185.582929 
L 125.523294 181.015052 
L 123.027527 176.543402 
L 120.354939 172.175133 
L 117.509804 167.917234 
L 114.404346 163.654978 
L 119.496233 164.200136 
L 124.605846 164.541237 
L 129.725013 164.677734 
L 134.845544 164.609411 
L 139.959246 164.336375 
L 145.05794 163.859065 
L 150.133468 163.178243 
L 155.17771 162.294998 
L 160.182597 161.210744 
L 165.140122 159.927215 
L 170.042355 158.446465 
L 174.881451 156.770862 
L 179.649671 154.903087 
L 184.339386 152.846129 
L 188.943093 150.603277 
L 191.667502 149.166268 
L 191.374615 144.053664 
L 190.877512 138.956862 
L 190.17699 133.884015 
L 189.274168 128.84324 
L 188.170491 123.8426 
L 186.867725 118.890096 
L 185.367953 113.993649 
L 183.673576 109.161095 
L 181.787303 104.400162 
L 179.712152 99.718469 
L 177.451443 95.123505 
L 175.008794 90.62262 
L 172.38811 86.223015 
L 169.593586 81.931729 
L 166.629691 77.755627 
L 165.138339 75.781125 
L 170.226693 76.358325 
L 175.334058 76.731583 
L 180.452264 76.900303 
L 185.573124 76.864214 
L 190.688443 76.623374 
L 195.790041 76.178169 
L 200.869754 75.52931 
L 205.919456 74.677836 
L 210.931069 73.625108 
L 215.896576 72.372812 
L 220.808032 70.92295 
L 225.657581 69.277842 
L 230.437463 67.44012 
L 235.140033 65.412723 
L 238.858376 63.648 
L 243.49335 65.825502 
L 248.211694 67.815913 
L 253.005858 69.616049 
L 257.868174 71.223029 
L 262.790863 72.634283 
L 267.766049 73.847553 
L 272.785774 74.860898 
L 277.842006 75.672697 
L 282.926657 76.281652 
L 288.031592 76.686787 
L 293.148646 76.887455 
L 298.26963 76.883336 
L 303.386354 76.674435 
L 307.513637 76.356125 
L 304.63592 80.592071 
L 301.929897 84.939708 
L 299.399898 89.392079 
L 297.04997 93.942061 
L 294.883872 98.582376 
L 292.90507 103.3056 
L 291.11673 108.104177 
L 289.521711 112.97043 
L 288.122567 117.896574 
L 286.921536 122.874729 
L 285.920538 127.89693 
L 285.121175 132.955144 
L 284.524727 138.041277 
L 284.132146 143.147193 
L 283.944062 148.264724 
L 283.960774 153.385683 
L 284.067709 156.426859 
L 287.348975 160.358499 
L 290.784841 164.155779 
L 294.369808 167.812623 
L 298.098143 171.323181 
L 301.963881 174.681838 
L 305.960836 177.88322 
L 310.082616 180.922206 
L 314.322626 183.793933 
L 318.674083 186.493808 
L 323.130025 189.017512 
L 327.683324 191.361007 
L 332.326696 193.520544 
L 337.052712 195.492668 
L 341.853812 197.274225 
L 346.722314 198.862364 
L 349.651238 199.71541 
L 345.924233 196.20344 
L 342.059768 192.843319 
L 338.064025 189.640423 
L 333.943397 186.599876 
L 329.704476 183.726542 
L 325.354042 181.025019 
L 320.899056 178.499627 
L 316.346645 176.154407 
L 311.704092 173.993111 
L 306.978823 172.019197 
L 302.178399 170.235821 
L 297.310498 168.645838 
L 292.382909 167.251791 
L 287.403515 166.05591 
L 286.639719 165.890996 
L 290.955184 163.133957 
L 295.156945 160.206551 
L 299.23828 157.113461 
L 303.19266 153.859635 
L 307.013759 150.450279 
L 310.695463 146.890847 
L 314.231883 143.187033 
L 317.617361 139.344763 
L 320.846481 135.370183 
L 323.914077 131.269652 
L 326.815242 127.04973 
L 329.545335 122.717168 
L 331.913296 118.617574 
L 326.792317 118.6263 
L 321.675783 118.839804 
L 316.57188 119.257744 
L 311.488773 119.879452 
L 306.434593 120.703932 
L 301.417426 121.729866 
L 296.445299 122.955612 
L 291.526166 124.37921 
L 286.667896 125.998382 
L 281.878263 127.810538 
L 277.164927 129.812779 
L 272.535429 132.001901 
L 267.968232 134.390284 
L 269.242328 129.430326 
L 270.317058 124.423385 
L 271.190705 119.377472 
L 271.86187 114.300658 
L 272.32948 109.201066 
L 272.592786 104.086853 
L 272.651368 98.966202 
L 272.505132 93.847304 
L 272.154311 88.738348 
L 271.599467 83.647508 
L 270.841488 78.582928 
L 269.881586 73.552711 
L 268.721297 68.564903 
L 267.368565 63.648 
L 266.01057 68.585646 
L 264.851114 73.573648 
L 263.892053 78.604026 
L 263.13492 83.668733 
L 262.580927 88.759665 
L 262.23096 93.86868 
L 262.08558 98.987602 
L 262.145017 104.108243 
L 262.409179 109.222412 
L 262.877641 114.321926 
L 263.549655 119.398628 
L 264.424145 124.444395 
L 265.499713 129.451156 
L 266.453141 133.234835 
L 271.564016 132.91318 
L 276.65794 132.387401 
L 281.726763 131.65834 
L 286.762378 130.727164 
L 291.756727 129.595361 
L 296.701821 128.264743 
L 301.589749 126.737439 
L 306.412692 125.015891 
L 311.162933 123.102854 
L 315.832873 121.001388 
L 320.415042 118.714855 
L 324.902109 116.246913 
L 329.089155 113.726019 
L 328.523916 114.026546 
L 324.057532 116.531722 
L 319.6949 119.213503 
L 315.443 122.067597 
L 311.308635 125.089438 
L 307.298419 128.274193 
L 303.418766 131.616767 
L 299.675884 135.111811 
L 296.07576 138.753735 
L 292.624155 142.536713 
L 289.326589 146.454692 
L 286.188338 150.501405 
L 283.308609 154.532786 
L 288.373861 155.286257 
L 293.465193 155.836568 
L 298.574459 156.18284 
L 303.693485 156.324519 
L 308.814082 156.261379 
L 313.928059 155.993519 
L 319.027233 155.52137 
L 324.103447 154.845685 
L 329.148581 153.967547 
L 334.154563 152.888359 
L 339.113385 151.609849 
L 344.017113 150.134061 
L 349.09441 148.376136 
L 345.220541 151.725411 
L 341.483706 155.22692 
L 337.889883 158.875062 
L 334.444822 162.664 
L 331.154033 166.587673 
L 328.022782 170.639805 
L 325.056077 174.813911 
L 322.258666 179.103315 
L 319.635022 183.501155 
L 317.189343 188.000395 
L 314.925543 192.593837 
L 312.847242 197.274133 
L 310.957765 202.033794 
L 309.260136 206.865208 
L 307.757069 211.760644 
L 306.45097 216.71227 
L 305.343928 221.712166 
L 304.437713 226.752333 
L 303.733777 231.824707 
L 303.233245 236.921173 
L 302.936917 242.033579 
L 302.845268 247.153745 
L 302.958444 252.27348 
L 303.276265 257.384595 
L 303.798221 262.478912 
L 304.523478 267.548281 
L 305.450876 272.584593 
L 306.030801 275.268223 
L 301.169863 276.879366 
L 296.377241 278.683606 
L 291.660604 280.678056 
L 287.027496 282.859527 
L 282.150712 285.408 
L 277.615615 283.029472 
L 272.98903 280.834202 
L 268.278358 278.825702 
L 263.491135 277.007185 
L 258.635021 275.38156 
L 253.717783 273.951429 
L 248.747289 272.719079 
L 243.73149 271.686481 
L 238.678409 270.855287 
L 233.596132 270.226828 
L 228.492789 269.802109 
L 223.376543 269.581808 
L 218.25558 269.566279 
L 213.138093 269.755546 
L 208.032267 270.149307 
L 202.946272 270.746931 
L 197.888243 271.547463 
L 192.866274 272.549622 
L 187.888397 273.751804 
L 182.962576 275.152087 
L 178.096692 276.74823 
L 173.298528 278.53768 
L 169.169191 280.256515 
L 169.683507 279.875345 
L 173.728124 276.734394 
L 177.643902 273.434214 
L 181.424575 269.980085 
L 185.064096 266.377532 
L 188.556642 262.632318 
L 191.896626 258.750436 
L 195.078704 254.738095 
L 198.097786 250.601714 
L 200.949042 246.347911 
L 203.627911 241.98349 
L 206.130106 237.515435 
L 208.451625 232.950892 
L 210.588755 228.297165 
L 212.538075 223.561697 
L 213.668837 220.538297 
L 211.01818 224.919909 
L 208.544861 229.404014 
L 206.252837 233.983438 
L 204.145774 238.650856 
L 202.227044 243.3988 
L 200.499716 248.219675 
L 198.966553 253.105769 
L 197.630008 258.049265 
L 196.492219 263.042254 
L 195.555007 268.076748 
L 194.81987 273.144694 
L 194.287985 278.237984 
L 193.960203 283.348469 
L 193.886021 285.408 
L 193.843836 284.128369 
L 193.547216 279.01598 
L 193.046392 273.919542 
L 192.342166 268.847209 
L 191.435663 263.807094 
L 190.328335 258.807261 
L 189.021953 253.855709 
L 187.518606 248.960359 
L 185.8207 244.129043 
L 183.930952 239.369489 
L 181.852383 234.689313 
L 179.58832 230.096 
L 177.142384 225.5969 
L 174.518489 221.19921 
L 171.720832 216.909966 
L 168.753889 212.736029 
L 165.622406 208.684077 
L 162.331393 204.760592 
L 158.886115 200.97185 
L 155.292083 197.323914 
L 151.555048 193.822618 
L 147.680988 190.473565 
L 143.6761 187.282112 
L 139.546791 184.253364 
L 135.299668 181.392167 
L 130.941525 178.703099 
L 126.479334 176.190461 
L 121.920233 173.858273 
L 117.271516 171.710265 
L 112.540621 169.749875 
L 111.186213 169.228948 
L 115.213822 172.39168 
L 119.364684 175.390821 
L 123.632159 178.221573 
L 128.009421 180.879407 
L 132.489466 183.360071 
L 137.065128 185.659596 
L 141.729087 187.774305 
L 146.473881 189.700814 
L 151.291919 191.43604 
L 156.175493 192.977208 
L 161.116792 194.321853 
L 166.10791 195.467823 
L 171.140862 196.413285 
L 176.207596 197.156726 
L 181.300007 197.696957 
L 186.409948 198.033113 
L 190.72384 198.157542 
L 187.91878 202.441948 
L 185.287294 206.8351 
L 182.833593 211.32997 
L 180.561601 215.919365 
L 178.474953 220.595946 
L 176.576988 225.352229 
L 174.870741 230.180606 
L 173.358943 235.073352 
L 172.044012 240.022641 
L 170.928051 245.020554 
L 170.012846 250.059095 
L 169.299861 255.130205 
L 168.790237 260.225771 
L 168.484789 265.337639 
L 168.384005 270.457634 
L 168.488047 275.577563 
L 168.702982 279.449018 
L 173.002694 282.23056 
L 177.410198 284.837936 
L 178.430201 285.408 
L 182.861318 282.840958 
L 187.186236 280.098772 
L 191.398036 277.185829 
L 195.489981 274.106788 
L 199.455524 270.866577 
L 203.288321 267.470378 
L 206.982241 263.923624 
L 210.531373 260.23199 
L 213.930041 256.401382 
L 217.172806 252.437927 
L 220.254482 248.347967 
L 223.170138 244.138044 
L 225.91511 239.814893 
L 228.485006 235.38543 
L 230.875715 230.856743 
L 233.083412 226.236075 
L 233.341289 225.66365 
L 235.00402 230.507185 
L 236.859111 235.280353 
L 238.903594 239.97552 
L 241.134199 244.585174 
L 243.547356 249.10194 
L 246.139205 253.518592 
L 248.9056 257.828066 
L 251.842115 262.023466 
L 254.944052 266.09808 
L 258.20645 270.045392 
L 261.624088 273.859084 
L 265.1915 277.533057 
L 268.902977 281.061433 
L 272.752583 284.438567 
L 273.917189 285.408 
L 277.806494 282.076662 
L 281.55947 278.592459 
L 285.170113 274.960963 
L 288.632646 271.187985 
L 291.941531 267.279561 
L 295.091474 263.241943 
L 298.077436 259.08159 
L 300.89464 254.805159 
L 303.538578 250.41949 
L 306.005022 245.9316 
L 308.290025 241.348668 
L 310.389932 236.678026 
L 312.301383 231.927147 
L 314.021321 227.10363 
L 315.546994 222.215192 
L 316.875961 217.269654 
L 318.006096 212.274927 
L 318.935592 207.239002 
L 319.66296 202.169936 
L 320.187039 197.075837 
L 320.506988 191.964855 
L 320.622297 186.845167 
L 320.532781 181.724963 
L 320.238582 176.612434 
L 319.740173 171.51576 
L 319.038349 166.443093 
L 318.134234 161.40255 
L 317.029275 156.402193 
L 315.725238 151.450023 
L 314.224211 146.553962 
L 312.528594 141.721841 
L 310.6411 136.961393 
L 308.564749 132.280232 
L 306.302862 127.685848 
L 303.859057 123.18559 
L 301.237246 118.786657 
L 298.441621 114.496088 
L 295.476655 110.320746 
L 292.347092 106.267311 
L 289.057938 102.342268 
L 285.614455 98.551895 
L 282.022152 94.902256 
L 278.286776 91.399191 
L 274.414302 88.048303 
L 270.410927 84.854953 
L 266.283053 81.824249 
L 262.037286 78.961041 
L 257.680417 76.269908 
L 253.219417 73.755157 
L 248.661421 71.420809 
L 244.013723 69.2706 
L 239.283756 67.307969 
L 234.479089 65.536056 
L 229.607407 63.957696 
L 228.566074 63.648 
L 223.681175 65.184966 
L 218.861645 66.916046 
L 214.115196 68.838471 
L 209.449419 70.949165 
L 204.87178 73.244753 
L 200.389602 75.721561 
L 196.010055 78.375628 
L 191.740145 81.202706 
L 187.586704 84.198274 
L 183.556376 87.35754 
L 179.655608 90.675448 
L 175.890642 94.146691 
L 172.2675 97.765717 
L 168.791979 101.526734 
L 165.469638 105.423727 
L 162.305793 109.450461 
L 159.305505 113.600494 
L 156.473574 117.867187 
L 153.81453 122.243714 
L 151.332628 126.723074 
L 149.031838 131.2981 
L 146.91584 135.961474 
L 144.98802 140.705735 
L 143.251462 145.523293 
L 141.708944 150.406442 
L 140.362934 155.347368 
L 139.215584 160.338169 
L 138.268732 165.370859 
L 137.52389 170.437388 
L 136.982252 175.52965 
L 136.644683 180.639498 
L 136.511723 185.758758 
L 136.583586 190.87924 
L 136.860155 195.992753 
L 137.34099 201.091115 
L 138.02532 206.166172 
L 138.912051 211.209802 
L 139.999763 216.213939 
L 141.286718 221.170576 
L 142.770856 226.071783 
L 144.449803 230.909721 
L 146.320873 235.676648 
L 148.381072 240.36494 
L 150.627106 244.967096 
L 153.055379 249.475753 
L 155.662009 253.883699 
L 158.442824 258.183881 
L 161.393377 262.36942 
L 164.508946 266.433622 
L 167.784548 270.369982 
L 171.214942 274.172205 
L 174.79464 277.834207 
L 178.517917 281.35013 
L 182.378814 284.71435 
L 183.214958 285.408 
L 187.104263 282.076662 
L 190.857239 278.592459 
L 194.467882 274.960963 
L 197.930415 271.187985 
L 201.2393 267.279561 
L 204.389243 263.241943 
L 207.375205 259.08159 
L 210.192409 254.805159 
L 212.836347 250.41949 
L 215.302791 245.9316 
L 217.587794 241.348668 
L 219.687701 236.678026 
L 221.599152 231.927147 
L 223.31909 227.10363 
L 224.211676 224.327974 
L 224.104188 224.959051 
L 223.35814 230.025402 
L 222.815288 235.117535 
L 222.476501 240.227302 
L 222.342322 245.346531 
L 222.412965 250.46703 
L 222.688316 255.580608 
L 223.167936 260.679085 
L 223.851056 265.754304 
L 224.736585 270.798146 
L 225.823106 275.802541 
L 227.10888 280.759485 
L 228.510023 285.408 
L 229.982808 280.503369 
L 231.258283 275.543766 
L 232.334406 270.537124 
L 233.209456 265.491454 
L 233.882033 260.414827 
L 234.351062 255.315364 
L 234.615791 250.201225 
L 234.675797 245.08059 
L 234.530984 239.961652 
L 234.181584 234.852599 
L 233.628157 229.761605 
L 233.029091 225.645485 
L 231.697167 230.590228 
L 230.564046 235.584278 
L 229.63154 240.619646 
L 228.90114 245.688277 
L 228.374016 250.782062 
L 228.051011 255.892851 
L 227.932641 261.01247 
L 228.019096 266.132726 
L 228.310237 271.24543 
L 228.805599 276.342401 
L 229.50439 281.415486 
L 230.20088 285.408 
L 231.059886 280.359573 
L 231.716321 275.280834 
L 232.169136 270.179906 
L 232.417606 265.064951 
L 232.461333 259.944152 
L 232.300248 254.825699 
L 231.934608 249.717783 
L 231.364999 244.628574 
L 230.592331 239.566214 
L 229.617841 234.538803 
L 228.443088 229.554381 
L 227.166853 224.945489 
L 224.183676 229.107839 
L 221.369335 233.386154 
L 218.728332 237.773592 
L 216.264892 242.263131 
L 213.982956 246.847591 
L 211.886175 251.519637 
L 209.977904 256.271794 
L 208.261194 261.096461 
L 206.738793 265.985919 
L 205.413135 270.932345 
L 204.286343 275.927827 
L 203.360217 280.964373 
L 202.714455 285.408 
L 201.96551 280.342076 
L 201.014582 275.310154 
L 199.863192 270.320284 
L 198.51318 265.380449 
L 196.966708 260.498551 
L 195.22625 255.682401 
L 193.294588 250.939703 
L 191.174815 246.278044 
L 188.87032 241.704883 
L 186.384791 237.227534 
L 183.722204 232.853162 
L 180.886819 228.588764 
L 177.883171 224.441162 
L 174.716066 220.416992 
L 171.39057 216.522691 
L 167.912004 212.764489 
L 164.285932 209.148399 
L 160.518156 205.680206 
L 156.614703 202.365458 
L 152.581818 199.209457 
L 148.425952 196.217254 
L 144.153754 193.393634 
L 139.772059 190.743115 
L 135.287876 188.269938 
L 130.70838 185.978058 
L 126.040895 183.871143 
L 121.292891 181.952562 
L 116.471961 180.225386 
L 111.585819 178.692377 
L 110.322202 178.330541 
L 111.488899 173.344227 
L 112.455264 168.315247 
L 112.749957 166.520465 
L 116.669216 163.224421 
L 120.453534 159.774285 
L 124.096856 156.175577 
L 127.593354 152.434052 
L 130.937435 148.555698 
L 134.123747 144.546719 
L 137.147194 140.413528 
L 140.00294 136.162737 
L 142.686414 131.801148 
L 145.193326 127.335736 
L 147.519663 122.773647 
L 149.661704 118.122179 
L 151.616023 113.388772 
L 153.379493 108.580999 
L 154.949292 103.706553 
L 156.32291 98.77323 
L 157.498149 93.788923 
L 158.473129 88.761606 
L 158.805088 86.750638 
L 162.724347 83.454594 
L 166.508665 80.004458 
L 170.151988 76.405749 
L 173.648486 72.664225 
L 176.992566 68.785871 
L 180.178878 64.776892 
L 181.030029 63.648 
L 184.171879 67.691919 
L 187.472929 71.606963 
L 190.927898 75.386869 
L 194.53126 79.025589 
L 198.27725 82.517303 
L 202.159874 85.856423 
L 206.172923 89.03761 
L 210.309974 92.055773 
L 214.564411 94.906083 
L 218.929427 97.583982 
L 223.398038 100.085184 
L 227.963096 102.405689 
L 232.617299 104.541784 
L 237.353199 106.490052 
L 242.163222 108.247376 
L 247.039671 109.810945 
L 251.974745 111.178257 
L 256.96055 112.347125 
L 261.989109 113.315679 
L 267.052377 114.08237 
L 272.142255 114.645971 
L 277.250599 115.00558 
L 282.369238 115.160622 
L 287.489983 115.110849 
L 292.604641 114.85634 
L 297.70503 114.397504 
L 302.782991 113.735073 
L 307.8304 112.870108 
L 312.839182 111.803993 
L 317.801325 110.538432 
L 322.708889 109.075451 
L 325.806562 108.040401 
L 321.997263 111.462935 
L 318.327876 115.035063 
L 314.80427 118.75107 
L 311.432084 122.605011 
L 308.216712 126.590721 
L 305.163297 130.701823 
L 302.276725 134.931741 
L 299.561614 139.273707 
L 297.022307 143.720776 
L 294.662866 148.265833 
L 292.487067 152.901606 
L 290.498389 157.620681 
L 288.700015 162.415506 
L 287.094821 167.278412 
L 286.931224 167.813635 
L 289.726611 172.104359 
L 292.691346 176.279865 
L 295.820685 180.333473 
L 299.109622 184.258699 
L 302.552895 188.049262 
L 306.144996 191.6991 
L 309.880178 195.202372 
L 313.752467 198.553474 
L 317.755666 201.747045 
L 321.883371 204.777977 
L 326.12898 207.64142 
L 330.4857 210.332794 
L 334.946562 212.847793 
L 339.504428 215.182392 
L 340.45639 215.641354 
L 339.927887 215.280111 
L 335.636201 212.486201 
L 331.236221 209.866149 
L 326.734986 207.424144 
L 322.139697 205.164094 
L 317.457707 203.089614 
L 312.696504 201.204023 
L 307.863707 199.510338 
L 302.967046 198.011268 
L 298.014354 196.709211 
L 293.013556 195.606251 
L 287.972652 194.704152 
L 283.495821 194.075888 
L 287.598782 197.140233 
L 291.821002 200.038053 
L 296.155727 202.76471 
L 300.596022 205.315844 
L 305.134783 207.687373 
L 309.76475 209.875502 
L 314.478515 211.876733 
L 319.268537 213.687862 
L 324.127154 215.305992 
L 329.046592 216.728536 
L 334.018982 217.953216 
L 338.578898 218.893265 
L 335.168746 215.072877 
L 331.608547 211.391914 
L 327.903996 207.856266 
L 324.061021 204.471589 
L 320.085768 201.243297 
L 315.984598 198.176555 
L 311.764072 195.276269 
L 307.430941 192.547079 
L 302.992137 189.993352 
L 298.454762 187.619171 
L 293.826075 185.428337 
L 289.11348 183.424353 
L 286.748797 182.501297 
L 291.857386 182.145168 
L 296.947646 181.585036 
L 302.011436 180.821795 
L 307.040654 179.856667 
L 312.027254 178.691197 
L 316.963258 177.327247 
L 321.840772 175.767001 
L 326.65199 174.012955 
L 331.389217 172.067914 
L 336.044874 169.934991 
L 340.611512 167.617597 
L 345.081827 165.11944 
L 349.448666 162.444516 
L 353.705044 159.597105 
L 355.030991 158.658596 
L 355.030991 158.658596 
" style="fill:none;stroke:#1f77b4;stroke-linecap:square;stroke-width:1.5;"/>
   </g>
   <g id="patch_4">
    <path d="M 82.520165 307.584 
L 82.520165 41.472 
" style="fill:none;stroke:#000000;stroke-linecap:square;stroke-linejoin:miter;stroke-width:0.8;"/>
   </g>
   <g id="patch_5">
    <path d="M 389.799835 307.584 
L 389.799835 41.472 
" style="fill:none;stroke:#000000;stroke-linecap:square;stroke-linejoin:miter;stroke-width:0.8;"/>
   </g>
   <g id="patch_6">
    <path d="M 82.520165 307.584 
L 389.799835 307.584 
" style="fill:none;stroke:#000000;stroke-linecap:square;stroke-linejoin:miter;stroke-width:0.8;"/>
   </g>
   <g id="patch_7">
    <path d="M 82.520165 41.472 
L 389.799835 41.472 
" style="fill:none;stroke:#000000;stroke-linecap:square;stroke-linejoin:miter;stroke-width:0.8;"/>
   </g>
  </g>
 </g>
 <defs>
  <clipPath id="p939ce12c97">
   <rect height="266.112" width="307.27967" x="82.520165" y="41.472"/>
  </clipPath>
 </defs>
</svg>
