<?xml version="1.0" encoding="utf-8" standalone="no"?>
<!DOCTYPE svg PUBLIC "-//W3C//DTD SVG 1.1//EN"
  "http://www.w3.org/Graphics/SVG/1.1/DTD/svg11.dtd">
<!-- Created with matplotlib (http://matplotlib.org/) -->
<svg height="345.6pt" version="1.1" viewBox="0 0 460.8 345.6" width="460.8pt" xmlns="http://www.w3.org/2000/svg" xmlns:xlink="http://www.w3.org/1999/xlink">
 <defs>
  <style type="text/css">
*{stroke-linecap:butt;stroke-linejoin:round;}
  </style>
 </defs>
 <g id="figure_1">
  <g id="patch_1">
   <path d="M 0 345.6 
L 460.8 345.6 
L 460.8 0 
L 0 0 
z
" style="fill:#ffffff;"/>
  </g>
  <g id="axes_1">
   <g id="patch_2">
    <path d="M 82.520165 307.584 
L 389.799835 307.584 
L 389.799835 41.472 
L 82.520165 41.472 
z
" style="fill:#ffffff;"/>
   </g>
   <g id="PathCollection_1">
    <defs>
     <path d="M 0 2.738613 
C 0.726289 2.738613 1.422928 2.450055 1.936492 1.936492 
C 2.450055 1.422928 2.738613 0.726289 2.738613 0 
C 2.738613 -0.726289 2.450055 -1.422928 1.936492 -1.936492 
C 1.422928 -2.450055 0.726289 -2.738613 0 -2.738613 
C -0.726289 -2.738613 -1.422928 -2.450055 -1.936492 -1.936492 
C -2.450055 -1.422928 -2.738613 -0.726289 -2.738613 0 
C -2.738613 0.726289 -2.450055 1.422928 -1.936492 1.936492 
C -1.422928 2.450055 -0.726289 2.738613 0 2.738613 
z
" id="m24f1676a1b" style="stroke:#000000;"/>
    </defs>
    <g clip-path="url(#p38764d16bb)">
     <use style="stroke:#000000;" x="192.108091" xlink:href="#m24f1676a1b" y="200.647518"/>
    </g>
   </g>
   <g id="Quiver_1">
    <path clip-path="url(#p38764d16bb)" d="M 192.65482 201.187164 
L 180.242963 213.761923 
L 181.876066 214.294486 
L 174.839421 218.142835 
L 178.595694 211.05661 
L 179.149506 212.682631 
L 191.561363 200.107872 
L 192.65482 201.187164 
"/>
   </g>
   <g id="patch_3">
    <path clip-path="url(#p38764d16bb)" d="M 236.16 225.741278 
C 249.74192 225.741278 262.769389 220.345124 272.373256 210.741256 
C 281.977124 201.137389 287.373278 188.10992 287.373278 174.528 
C 287.373278 160.94608 281.977124 147.918611 272.373256 138.314744 
C 262.769389 128.710876 249.74192 123.314722 236.16 123.314722 
C 222.57808 123.314722 209.550611 128.710876 199.946744 138.314744 
C 190.342876 147.918611 184.946722 160.94608 184.946722 174.528 
C 184.946722 188.10992 190.342876 201.137389 199.946744 210.741256 
C 209.550611 220.345124 222.57808 225.741278 236.16 225.741278 
z
" style="fill:#009900;fill-opacity:0.5;stroke:#009900;stroke-linejoin:miter;stroke-width:2;"/>
   </g>
   <g id="matplotlib.axis_1">
    <g id="xtick_1">
     <g id="line2d_1">
      <defs>
       <path d="M 0 0 
L 0 3.5 
" id="mb9c1027f74" style="stroke:#000000;stroke-width:0.8;"/>
      </defs>
      <g>
       <use style="stroke:#000000;stroke-width:0.8;" x="108.126804" xlink:href="#mb9c1027f74" y="307.584"/>
      </g>
     </g>
     <g id="text_1">
      <!-- −2 -->
      <defs>
       <path d="M 10.59375 35.5 
L 73.1875 35.5 
L 73.1875 27.203125 
L 10.59375 27.203125 
z
" id="DejaVuSans-2212"/>
       <path d="M 19.1875 8.296875 
L 53.609375 8.296875 
L 53.609375 0 
L 7.328125 0 
L 7.328125 8.296875 
Q 12.9375 14.109375 22.625 23.890625 
Q 32.328125 33.6875 34.8125 36.53125 
Q 39.546875 41.84375 41.421875 45.53125 
Q 43.3125 49.21875 43.3125 52.78125 
Q 43.3125 58.59375 39.234375 62.25 
Q 35.15625 65.921875 28.609375 65.921875 
Q 23.96875 65.921875 18.8125 64.3125 
Q 13.671875 62.703125 7.8125 59.421875 
L 7.8125 69.390625 
Q 13.765625 71.78125 18.9375 73 
Q 24.125 74.21875 28.421875 74.21875 
Q 39.75 74.21875 46.484375 68.546875 
Q 53.21875 62.890625 53.21875 53.421875 
Q 53.21875 48.921875 51.53125 44.890625 
Q 49.859375 40.875 45.40625 35.40625 
Q 44.1875 33.984375 37.640625 27.21875 
Q 31.109375 20.453125 19.1875 8.296875 
z
" id="DejaVuSans-32"/>
      </defs>
      <g transform="translate(100.755711 322.182437)scale(0.1 -0.1)">
       <use xlink:href="#DejaVuSans-2212"/>
       <use x="83.789062" xlink:href="#DejaVuSans-32"/>
      </g>
     </g>
    </g>
    <g id="xtick_2">
     <g id="line2d_2">
      <g>
       <use style="stroke:#000000;stroke-width:0.8;" x="172.143402" xlink:href="#mb9c1027f74" y="307.584"/>
      </g>
     </g>
     <g id="text_2">
      <!-- −1 -->
      <defs>
       <path d="M 12.40625 8.296875 
L 28.515625 8.296875 
L 28.515625 63.921875 
L 10.984375 60.40625 
L 10.984375 69.390625 
L 28.421875 72.90625 
L 38.28125 72.90625 
L 38.28125 8.296875 
L 54.390625 8.296875 
L 54.390625 0 
L 12.40625 0 
z
" id="DejaVuSans-31"/>
      </defs>
      <g transform="translate(164.772308 322.182437)scale(0.1 -0.1)">
       <use xlink:href="#DejaVuSans-2212"/>
       <use x="83.789062" xlink:href="#DejaVuSans-31"/>
      </g>
     </g>
    </g>
    <g id="xtick_3">
     <g id="line2d_3">
      <g>
       <use style="stroke:#000000;stroke-width:0.8;" x="236.16" xlink:href="#mb9c1027f74" y="307.584"/>
      </g>
     </g>
     <g id="text_3">
      <!-- 0 -->
      <defs>
       <path d="M 31.78125 66.40625 
Q 24.171875 66.40625 20.328125 58.90625 
Q 16.5 51.421875 16.5 36.375 
Q 16.5 21.390625 20.328125 13.890625 
Q 24.171875 6.390625 31.78125 6.390625 
Q 39.453125 6.390625 43.28125 13.890625 
Q 47.125 21.390625 47.125 36.375 
Q 47.125 51.421875 43.28125 58.90625 
Q 39.453125 66.40625 31.78125 66.40625 
z
M 31.78125 74.21875 
Q 44.046875 74.21875 50.515625 64.515625 
Q 56.984375 54.828125 56.984375 36.375 
Q 56.984375 17.96875 50.515625 8.265625 
Q 44.046875 -1.421875 31.78125 -1.421875 
Q 19.53125 -1.421875 13.0625 8.265625 
Q 6.59375 17.96875 6.59375 36.375 
Q 6.59375 54.828125 13.0625 64.515625 
Q 19.53125 74.21875 31.78125 74.21875 
z
" id="DejaVuSans-30"/>
      </defs>
      <g transform="translate(232.97875 322.182437)scale(0.1 -0.1)">
       <use xlink:href="#DejaVuSans-30"/>
      </g>
     </g>
    </g>
    <g id="xtick_4">
     <g id="line2d_4">
      <g>
       <use style="stroke:#000000;stroke-width:0.8;" x="300.176598" xlink:href="#mb9c1027f74" y="307.584"/>
      </g>
     </g>
     <g id="text_4">
      <!-- 1 -->
      <g transform="translate(296.995348 322.182437)scale(0.1 -0.1)">
       <use xlink:href="#DejaVuSans-31"/>
      </g>
     </g>
    </g>
    <g id="xtick_5">
     <g id="line2d_5">
      <g>
       <use style="stroke:#000000;stroke-width:0.8;" x="364.193196" xlink:href="#mb9c1027f74" y="307.584"/>
      </g>
     </g>
     <g id="text_5">
      <!-- 2 -->
      <g transform="translate(361.011946 322.182437)scale(0.1 -0.1)">
       <use xlink:href="#DejaVuSans-32"/>
      </g>
     </g>
    </g>
   </g>
   <g id="matplotlib.axis_2">
    <g id="ytick_1">
     <g id="line2d_6">
      <defs>
       <path d="M 0 0 
L -3.5 0 
" id="m12175d8128" style="stroke:#000000;stroke-width:0.8;"/>
      </defs>
      <g>
       <use style="stroke:#000000;stroke-width:0.8;" x="82.520165" xlink:href="#m12175d8128" y="302.561196"/>
      </g>
     </g>
     <g id="text_6">
      <!-- −2.0 -->
      <defs>
       <path d="M 10.6875 12.40625 
L 21 12.40625 
L 21 0 
L 10.6875 0 
z
" id="DejaVuSans-2e"/>
      </defs>
      <g transform="translate(51.237353 306.360414)scale(0.1 -0.1)">
       <use xlink:href="#DejaVuSans-2212"/>
       <use x="83.789062" xlink:href="#DejaVuSans-32"/>
       <use x="147.412109" xlink:href="#DejaVuSans-2e"/>
       <use x="179.199219" xlink:href="#DejaVuSans-30"/>
      </g>
     </g>
    </g>
    <g id="ytick_2">
     <g id="line2d_7">
      <g>
       <use style="stroke:#000000;stroke-width:0.8;" x="82.520165" xlink:href="#m12175d8128" y="270.552897"/>
      </g>
     </g>
     <g id="text_7">
      <!-- −1.5 -->
      <defs>
       <path d="M 10.796875 72.90625 
L 49.515625 72.90625 
L 49.515625 64.59375 
L 19.828125 64.59375 
L 19.828125 46.734375 
Q 21.96875 47.46875 24.109375 47.828125 
Q 26.265625 48.1875 28.421875 48.1875 
Q 40.625 48.1875 47.75 41.5 
Q 54.890625 34.8125 54.890625 23.390625 
Q 54.890625 11.625 47.5625 5.09375 
Q 40.234375 -1.421875 26.90625 -1.421875 
Q 22.3125 -1.421875 17.546875 -0.640625 
Q 12.796875 0.140625 7.71875 1.703125 
L 7.71875 11.625 
Q 12.109375 9.234375 16.796875 8.0625 
Q 21.484375 6.890625 26.703125 6.890625 
Q 35.15625 6.890625 40.078125 11.328125 
Q 45.015625 15.765625 45.015625 23.390625 
Q 45.015625 31 40.078125 35.4375 
Q 35.15625 39.890625 26.703125 39.890625 
Q 22.75 39.890625 18.8125 39.015625 
Q 14.890625 38.140625 10.796875 36.28125 
z
" id="DejaVuSans-35"/>
      </defs>
      <g transform="translate(51.237353 274.352116)scale(0.1 -0.1)">
       <use xlink:href="#DejaVuSans-2212"/>
       <use x="83.789062" xlink:href="#DejaVuSans-31"/>
       <use x="147.412109" xlink:href="#DejaVuSans-2e"/>
       <use x="179.199219" xlink:href="#DejaVuSans-35"/>
      </g>
     </g>
    </g>
    <g id="ytick_3">
     <g id="line2d_8">
      <g>
       <use style="stroke:#000000;stroke-width:0.8;" x="82.520165" xlink:href="#m12175d8128" y="238.544598"/>
      </g>
     </g>
     <g id="text_8">
      <!-- −1.0 -->
      <g transform="translate(51.237353 242.343817)scale(0.1 -0.1)">
       <use xlink:href="#DejaVuSans-2212"/>
       <use x="83.789062" xlink:href="#DejaVuSans-31"/>
       <use x="147.412109" xlink:href="#DejaVuSans-2e"/>
       <use x="179.199219" xlink:href="#DejaVuSans-30"/>
      </g>
     </g>
    </g>
    <g id="ytick_4">
     <g id="line2d_9">
      <g>
       <use style="stroke:#000000;stroke-width:0.8;" x="82.520165" xlink:href="#m12175d8128" y="206.536299"/>
      </g>
     </g>
     <g id="text_9">
      <!-- −0.5 -->
      <g transform="translate(51.237353 210.335518)scale(0.1 -0.1)">
       <use xlink:href="#DejaVuSans-2212"/>
       <use x="83.789062" xlink:href="#DejaVuSans-30"/>
       <use x="147.412109" xlink:href="#DejaVuSans-2e"/>
       <use x="179.199219" xlink:href="#DejaVuSans-35"/>
      </g>
     </g>
    </g>
    <g id="ytick_5">
     <g id="line2d_10">
      <g>
       <use style="stroke:#000000;stroke-width:0.8;" x="82.520165" xlink:href="#m12175d8128" y="174.528"/>
      </g>
     </g>
     <g id="text_10">
      <!-- 0.0 -->
      <g transform="translate(59.61704 178.327219)scale(0.1 -0.1)">
       <use xlink:href="#DejaVuSans-30"/>
       <use x="63.623047" xlink:href="#DejaVuSans-2e"/>
       <use x="95.410156" xlink:href="#DejaVuSans-30"/>
      </g>
     </g>
    </g>
    <g id="ytick_6">
     <g id="line2d_11">
      <g>
       <use style="stroke:#000000;stroke-width:0.8;" x="82.520165" xlink:href="#m12175d8128" y="142.519701"/>
      </g>
     </g>
     <g id="text_11">
      <!-- 0.5 -->
      <g transform="translate(59.61704 146.31892)scale(0.1 -0.1)">
       <use xlink:href="#DejaVuSans-30"/>
       <use x="63.623047" xlink:href="#DejaVuSans-2e"/>
       <use x="95.410156" xlink:href="#DejaVuSans-35"/>
      </g>
     </g>
    </g>
    <g id="ytick_7">
     <g id="line2d_12">
      <g>
       <use style="stroke:#000000;stroke-width:0.8;" x="82.520165" xlink:href="#m12175d8128" y="110.511402"/>
      </g>
     </g>
     <g id="text_12">
      <!-- 1.0 -->
      <g transform="translate(59.61704 114.310621)scale(0.1 -0.1)">
       <use xlink:href="#DejaVuSans-31"/>
       <use x="63.623047" xlink:href="#DejaVuSans-2e"/>
       <use x="95.410156" xlink:href="#DejaVuSans-30"/>
      </g>
     </g>
    </g>
    <g id="ytick_8">
     <g id="line2d_13">
      <g>
       <use style="stroke:#000000;stroke-width:0.8;" x="82.520165" xlink:href="#m12175d8128" y="78.503103"/>
      </g>
     </g>
     <g id="text_13">
      <!-- 1.5 -->
      <g transform="translate(59.61704 82.302322)scale(0.1 -0.1)">
       <use xlink:href="#DejaVuSans-31"/>
       <use x="63.623047" xlink:href="#DejaVuSans-2e"/>
       <use x="95.410156" xlink:href="#DejaVuSans-35"/>
      </g>
     </g>
    </g>
    <g id="ytick_9">
     <g id="line2d_14">
      <g>
       <use style="stroke:#000000;stroke-width:0.8;" x="82.520165" xlink:href="#m12175d8128" y="46.494804"/>
      </g>
     </g>
     <g id="text_14">
      <!-- 2.0 -->
      <g transform="translate(59.61704 50.294023)scale(0.1 -0.1)">
       <use xlink:href="#DejaVuSans-32"/>
       <use x="63.623047" xlink:href="#DejaVuSans-2e"/>
       <use x="95.410156" xlink:href="#DejaVuSans-30"/>
      </g>
     </g>
    </g>
   </g>
   <g id="line2d_15">
    <path clip-path="url(#p38764d16bb)" d="M 300.176598 63.648 
L 172.143402 63.648 
" style="fill:none;stroke:#009900;stroke-linecap:square;stroke-width:2;"/>
   </g>
   <g id="line2d_16">
    <path clip-path="url(#p38764d16bb)" d="M 172.143402 63.648 
L 108.126804 174.528 
" style="fill:none;stroke:#009900;stroke-linecap:square;stroke-width:2;"/>
   </g>
   <g id="line2d_17">
    <path clip-path="url(#p38764d16bb)" d="M 108.126804 174.528 
L 172.143402 285.408 
" style="fill:none;stroke:#009900;stroke-linecap:square;stroke-width:2;"/>
   </g>
   <g id="line2d_18">
    <path clip-path="url(#p38764d16bb)" d="M 172.143402 285.408 
L 300.176598 285.408 
" style="fill:none;stroke:#009900;stroke-linecap:square;stroke-width:2;"/>
   </g>
   <g id="line2d_19">
    <path clip-path="url(#p38764d16bb)" d="M 300.176598 285.408 
L 364.193196 174.528 
" style="fill:none;stroke:#009900;stroke-linecap:square;stroke-width:2;"/>
   </g>
   <g id="line2d_20">
    <path clip-path="url(#p38764d16bb)" d="M 364.193196 174.528 
L 300.176598 63.648 
" style="fill:none;stroke:#009900;stroke-linecap:square;stroke-width:2;"/>
   </g>
   <g id="line2d_21">
    <path clip-path="url(#p38764d16bb)" d="M 265.93857 246.522549 
L 269.438411 250.260947 
L 273.084948 253.856397 
L 276.872348 257.30315 
L 280.794552 260.595689 
L 284.845285 263.728749 
L 289.018067 266.697317 
L 293.306223 269.496643 
L 297.702891 272.122249 
L 302.201039 274.569936 
L 305.485092 276.213418 
L 301.194679 273.417553 
L 296.795894 270.795496 
L 292.295772 268.35144 
L 287.701514 266.089296 
L 283.02047 264.012683 
L 278.260127 262.124922 
L 273.428102 260.429035 
L 268.532124 258.927733 
L 263.580027 257.62342 
L 258.579732 256.518181 
L 253.539239 255.613784 
L 248.466612 254.911677 
L 243.369965 254.412982 
L 238.257453 254.118497 
L 233.137254 254.028695 
L 228.01756 254.143717 
L 222.90656 254.463381 
L 217.812432 254.987174 
L 212.743325 255.714259 
L 207.707348 256.643473 
L 202.712558 257.773329 
L 197.766945 259.102019 
L 192.878422 260.627418 
L 188.054809 262.347086 
L 183.303822 264.258272 
L 178.633063 266.357917 
L 174.050004 268.642664 
L 169.561976 271.108857 
L 165.35071 273.642712 
L 165.915896 273.342086 
L 170.381841 270.836126 
L 174.744002 268.15358 
L 178.995401 265.29874 
L 183.129236 262.276173 
L 187.138894 259.090714 
L 191.01796 255.74746 
L 194.760229 252.251759 
L 198.359713 248.609203 
L 201.810655 244.82562 
L 205.107534 240.907063 
L 208.245075 236.8598 
L 211.218259 232.690306 
L 214.022329 228.405252 
L 216.652801 224.011492 
L 217.629907 222.271434 
L 216.529457 227.272785 
L 215.629889 232.314142 
L 214.93264 237.387439 
L 214.438827 242.484561 
L 214.149239 247.597353 
L 214.064341 252.717636 
L 214.184266 257.837218 
L 214.508825 262.947909 
L 215.037497 268.041533 
L 215.769437 273.109942 
L 216.703473 278.145026 
L 217.838113 283.138732 
L 218.423776 285.408 
L 219.64963 280.4359 
L 220.675673 275.418755 
L 221.500263 270.364593 
L 222.12208 265.281499 
L 222.540131 260.177605 
L 222.753745 255.061076 
L 222.762583 249.940097 
L 222.566629 244.822861 
L 222.166196 239.717554 
L 221.561926 234.632344 
L 220.754786 229.575367 
L 219.746066 224.554711 
L 219.370063 222.910827 
L 215.4248 226.1757 
L 211.613252 229.59573 
L 207.941518 233.165446 
L 204.415472 236.879136 
L 201.040754 240.730861 
L 197.822763 244.714457 
L 194.766648 248.823552 
L 191.877297 253.051572 
L 189.159333 257.391753 
L 186.617104 261.837152 
L 184.254677 266.380658 
L 182.075832 271.015001 
L 180.084054 275.732767 
L 178.282529 280.52641 
L 176.668047 285.408 
L 175.060442 280.54589 
L 173.259691 275.751957 
L 171.268674 271.033869 
L 169.090577 266.399175 
L 166.728883 261.855288 
L 164.187371 257.409479 
L 161.470108 253.068859 
L 158.581439 248.840373 
L 155.525987 244.730785 
L 152.308639 240.746669 
L 148.934543 236.894401 
L 145.409096 233.180141 
L 141.737938 229.609833 
L 137.979658 226.234659 
L 136.920065 221.224492 
L 135.660968 216.260706 
L 134.204378 211.351241 
L 132.552628 206.50395 
L 130.708359 201.72659 
L 128.674522 197.026802 
L 126.45437 192.412105 
L 124.051456 187.889882 
L 121.469622 183.467367 
L 118.713001 179.151635 
L 115.786001 174.949591 
L 112.693306 170.867957 
L 111.265173 169.092186 
L 116.334168 169.820054 
L 121.428215 170.344634 
L 126.539165 170.665087 
L 131.658842 170.7809 
L 136.779055 170.691887 
L 141.891612 170.398192 
L 146.988336 169.900285 
L 152.061071 169.198961 
L 157.101704 168.295342 
L 162.102169 167.190875 
L 167.054468 165.887326 
L 171.950677 164.386781 
L 176.782964 162.69164 
L 181.543598 160.804614 
L 186.224964 158.728724 
L 187.673308 158.040411 
L 185.28435 153.510799 
L 182.716167 149.080344 
L 179.972867 144.756132 
L 177.058839 140.545082 
L 173.978745 136.45393 
L 170.737512 132.489222 
L 167.340326 128.6573 
L 163.792621 124.964294 
L 160.100074 121.416112 
L 156.26859 118.018431 
L 152.3043 114.776687 
L 148.213546 111.696065 
L 145.502637 109.791159 
L 146.080425 110.066789 
L 150.750868 112.167139 
L 155.501566 114.079041 
L 160.32492 115.799437 
L 165.213213 117.325573 
L 170.158625 118.65501 
L 175.153244 119.785619 
L 180.189081 120.715592 
L 185.258079 121.443442 
L 190.352128 121.968004 
L 195.463079 122.288438 
L 200.582756 122.404233 
L 205.702969 122.315202 
L 210.815525 122.021489 
L 215.912247 121.523563 
L 220.98498 120.822221 
L 226.025609 119.918584 
L 231.026071 118.814099 
L 235.978365 117.510533 
L 240.874568 116.00997 
L 245.706849 114.314811 
L 250.467477 112.427769 
L 255.148835 110.351862 
L 259.743434 108.090411 
L 264.243924 105.647033 
L 268.643105 103.025639 
L 272.933939 100.230421 
L 277.109562 97.265852 
L 281.163295 94.136673 
L 285.08865 90.847892 
L 288.87935 87.404769 
L 292.529329 83.812812 
L 296.032749 80.077768 
L 299.384004 76.205613 
L 302.577734 72.20254 
L 304.012449 70.291889 
L 298.93544 70.961577 
L 293.889272 71.833756 
L 288.882019 72.907031 
L 283.921691 74.179684 
L 279.016223 75.649679 
L 274.173463 77.314664 
L 269.401158 79.171976 
L 264.706943 81.218644 
L 260.098328 83.451394 
L 255.582686 85.866653 
L 251.16724 88.460557 
L 246.859055 91.228958 
L 242.665022 94.167425 
L 238.591852 97.271259 
L 234.646059 100.535493 
L 230.833958 103.954906 
L 227.161646 107.524027 
L 223.634998 111.237146 
L 220.259656 115.088324 
L 217.04102 119.071399 
L 213.984239 123.179998 
L 211.094203 127.40755 
L 208.611107 131.355574 
L 203.532255 132.011141 
L 198.483682 132.869284 
L 193.473463 133.928629 
L 188.509615 135.187483 
L 183.600078 136.64383 
L 178.752707 138.295342 
L 173.975255 140.139376 
L 169.275367 142.172981 
L 164.660561 144.392906 
L 160.138219 146.795598 
L 155.715577 149.377213 
L 151.399709 152.133622 
L 147.197521 155.060415 
L 143.115735 158.152909 
L 139.16088 161.406157 
L 135.339284 164.814956 
L 131.65706 168.37385 
L 128.1201 172.077148 
L 124.734061 175.918924 
L 121.504361 179.893033 
L 118.436166 183.993116 
L 115.797721 187.814418 
L 120.901266 187.392119 
L 125.98384 186.76607 
L 131.037314 185.937273 
L 136.053603 184.907054 
L 141.024681 183.677062 
L 145.942596 182.249263 
L 150.799481 180.625941 
L 155.587565 178.809695 
L 160.299189 176.80343 
L 164.926815 174.610354 
L 169.46304 172.233977 
L 173.900606 169.6781 
L 178.232415 166.946812 
L 182.451537 164.044483 
L 186.833532 160.754857 
L 184.929964 156.000813 
L 182.837808 151.326695 
L 180.56041 146.739979 
L 178.101414 142.248004 
L 175.464753 137.857956 
L 172.654647 133.576857 
L 169.67559 129.411557 
L 166.532349 125.36872 
L 163.229951 121.454812 
L 159.773681 117.676096 
L 156.169067 114.038617 
L 152.421875 110.548193 
L 148.538102 107.210408 
L 147.487713 106.352907 
L 152.301988 108.098545 
L 157.18222 109.650267 
L 162.1206 111.005591 
L 167.109229 112.162348 
L 172.140125 113.118688 
L 177.20524 113.87308 
L 182.296472 114.424319 
L 187.405674 114.771522 
L 192.524675 114.914133 
L 197.645283 114.851925 
L 202.759308 114.584998 
L 207.858568 114.113777 
L 212.934906 113.439017 
L 217.980199 112.561797 
L 222.986378 111.483521 
L 227.945432 110.205914 
L 232.849429 108.73102 
L 237.690524 107.061197 
L 242.460971 105.199119 
L 247.153139 103.147762 
L 251.759521 100.91041 
L 256.272748 98.490642 
L 260.685601 95.892328 
L 264.991018 93.119625 
L 269.182114 90.17697 
L 273.252182 87.069069 
L 277.194711 83.800895 
L 281.003395 80.377675 
L 284.67214 76.804888 
L 288.195077 73.088247 
L 291.566571 69.2337 
L 294.781226 65.247412 
L 295.99912 63.648 
L 299.15079 67.68427 
L 302.461347 71.591278 
L 305.925495 75.362775 
L 308.38543 77.866114 
L 309.785072 82.792117 
L 311.380583 87.658208 
L 313.169409 92.456604 
L 315.148689 97.179628 
L 317.315257 101.819724 
L 319.665645 106.369468 
L 322.196095 110.821583 
L 324.902558 115.168945 
L 327.780704 119.404601 
L 330.825929 123.521773 
L 334.033361 127.513875 
L 337.397869 131.374521 
L 340.91407 135.097535 
L 342.136074 136.323945 
L 343.535717 141.249947 
L 345.131227 146.116039 
L 346.920053 150.914435 
L 348.899333 155.637458 
L 351.065901 160.277554 
L 353.416289 164.827299 
L 355.946739 169.279413 
L 358.653202 173.626776 
L 361.531348 177.862431 
L 361.938497 178.433253 
L 356.833367 178.03057 
L 351.716218 177.832359 
L 346.595236 177.838939 
L 341.478613 178.050298 
L 336.374535 178.466099 
L 331.291168 179.085675 
L 326.236643 179.908037 
L 321.219046 180.931867 
L 316.246406 182.155529 
L 311.326677 183.577065 
L 306.467729 185.194201 
L 301.677336 187.004349 
L 296.963161 189.004614 
L 292.332746 191.191795 
L 287.7935 193.562394 
L 283.352682 196.112619 
L 282.299648 196.752598 
L 283.024975 201.821957 
L 283.952443 206.858256 
L 285.080566 211.853438 
L 286.407542 216.799511 
L 287.931246 221.688563 
L 289.649241 226.512772 
L 291.558779 231.264421 
L 293.656805 235.935907 
L 295.939962 240.519759 
L 298.404598 245.008642 
L 301.04677 249.395375 
L 303.862251 253.672941 
L 306.846537 257.834496 
L 309.994854 261.873382 
L 312.223361 264.542394 
L 307.172496 263.697847 
L 302.091897 263.055957 
L 296.989694 262.61775 
L 291.874049 262.383928 
L 286.753145 262.354864 
L 281.635175 262.530604 
L 276.528326 262.910868 
L 271.440769 263.495048 
L 266.380643 264.282208 
L 261.356042 265.27109 
L 256.375005 266.460111 
L 251.4455 267.847369 
L 246.575414 269.430645 
L 241.772538 271.207407 
L 237.044555 273.174811 
L 232.399029 275.32971 
L 227.843392 277.668657 
L 223.384932 280.187909 
L 219.030781 282.883438 
L 215.276487 285.408 
L 211.020289 282.56032 
L 206.653618 279.885121 
L 202.183461 277.386682 
L 197.616969 275.068999 
L 192.961447 272.935782 
L 188.224343 270.990442 
L 183.413235 269.236092 
L 178.535821 267.675539 
L 173.599902 266.311278 
L 168.613375 265.145492 
L 163.584219 264.180047 
L 159.524517 263.551449 
L 161.357347 258.769689 
L 162.997491 253.918459 
L 164.442326 249.005522 
L 165.68954 244.038736 
L 166.737138 239.026048 
L 167.583444 233.975477 
L 168.227105 228.895103 
L 168.667089 223.793053 
L 168.902694 218.677489 
L 168.933543 213.556595 
L 168.759585 208.438565 
L 168.381101 203.331584 
L 167.798694 198.243824 
L 167.013297 193.183423 
L 166.026166 188.158478 
L 164.83888 183.177027 
L 163.45334 178.247039 
L 161.87176 173.376402 
L 160.096673 168.572907 
L 158.130916 163.844238 
L 155.977636 159.197962 
L 153.640276 154.64151 
L 151.122577 150.182173 
L 148.428566 145.827083 
L 145.562552 141.583209 
L 142.529121 137.457339 
L 139.333126 133.456075 
L 135.979679 129.585817 
L 134.811647 128.308496 
L 139.826553 129.345425 
L 144.878914 130.180983 
L 149.960646 130.813831 
L 155.063621 131.242958 
L 160.179674 131.467677 
L 165.300622 131.487629 
L 170.418271 131.302782 
L 175.524435 130.913431 
L 180.610944 130.3202 
L 185.669662 129.524037 
L 190.692495 128.526216 
L 195.671409 127.328333 
L 200.598437 125.932305 
L 205.465698 124.340365 
L 210.265405 122.55506 
L 214.98988 120.579246 
L 219.631564 118.416084 
L 224.183032 116.069035 
L 228.637002 113.541852 
L 232.986349 110.83858 
L 237.224115 107.963542 
L 241.343521 104.921339 
L 245.337976 101.716837 
L 249.201089 98.355163 
L 252.926682 94.841694 
L 256.508793 91.182052 
L 259.941692 87.382091 
L 263.219887 83.44789 
L 266.338134 79.385743 
L 269.291445 75.202149 
L 272.075093 70.9038 
L 274.684627 66.497573 
L 276.248756 63.648 
L 278.745588 68.119055 
L 281.419218 72.486686 
L 284.265368 76.743907 
L 287.279485 80.883907 
L 290.456747 84.900064 
L 293.79207 88.785951 
L 297.28012 92.535352 
L 300.915316 96.14227 
L 304.691842 99.600933 
L 308.603657 102.905809 
L 312.644503 106.05161 
L 316.807915 109.033305 
L 321.087232 111.846122 
L 325.47561 114.485563 
L 329.966027 116.947403 
L 331.364654 117.667298 
L 331.188571 122.785257 
L 331.217292 127.906163 
L 331.450772 133.021824 
L 331.888637 138.124056 
L 332.530187 143.204697 
L 333.374395 148.25562 
L 334.41991 153.268742 
L 335.665061 158.236045 
L 337.107855 163.149583 
L 338.745984 168.001493 
L 340.576827 172.784015 
L 342.597456 177.489497 
L 344.804637 182.110412 
L 347.19484 186.639366 
L 349.764242 191.069116 
L 352.31563 195.100548 
L 347.198592 194.899471 
L 342.077607 194.903182 
L 336.960867 195.111674 
L 331.856557 195.524615 
L 326.772843 196.141344 
L 321.717858 196.960873 
L 316.699689 197.981893 
L 311.726364 199.202769 
L 306.805839 200.621548 
L 301.945985 202.235961 
L 297.154579 204.043425 
L 292.439284 206.041049 
L 287.807645 208.225636 
L 283.267071 210.593691 
L 278.824826 213.141427 
L 274.488016 215.864768 
L 270.26358 218.759356 
L 266.158276 221.820562 
L 262.178671 225.043487 
L 258.331132 228.422976 
L 254.621814 231.953622 
L 251.056651 235.629777 
L 247.641347 239.44556 
L 244.381366 243.394867 
L 241.281922 247.471379 
L 238.347975 251.668575 
L 235.584217 255.97974 
L 232.995071 260.397978 
L 230.584678 264.91622 
L 228.356895 269.527237 
L 226.315285 274.223654 
L 224.463115 278.997957 
L 222.803348 283.842508 
L 222.312791 285.408 
L 220.715234 280.54258 
L 218.92439 275.744937 
L 216.943124 271.022746 
L 214.774606 266.383561 
L 212.422305 261.834806 
L 209.889983 257.383755 
L 207.181692 253.037531 
L 204.301765 248.803086 
L 201.254809 244.687195 
L 198.045699 240.696442 
L 194.679568 236.837211 
L 191.161801 233.115676 
L 187.498027 229.537792 
L 183.694106 226.109281 
L 179.756123 222.835629 
L 175.69038 219.722073 
L 171.50338 216.773593 
L 167.201821 213.994908 
L 162.792585 211.390461 
L 158.282726 208.96442 
L 153.679459 206.720667 
L 148.990147 204.662789 
L 144.222294 202.79408 
L 139.383525 201.117529 
L 134.481583 199.635818 
L 129.52431 198.351318 
L 124.519635 197.266084 
L 120.873619 196.606131 
L 122.57658 191.776594 
L 124.085049 186.88282 
L 125.396613 181.932638 
L 126.509173 176.933967 
L 127.420949 171.894804 
L 128.130484 166.82321 
L 128.636641 161.727299 
L 128.938611 156.615224 
L 129.035912 151.495162 
L 128.928386 146.375304 
L 128.616207 141.263842 
L 128.445018 139.335821 
L 133.06179 137.119986 
L 137.586258 134.721302 
L 142.011186 132.143606 
L 146.329494 129.391022 
L 150.534274 126.467954 
L 154.618799 123.379077 
L 158.576534 120.129334 
L 162.401149 116.723923 
L 166.086524 113.168292 
L 169.626764 109.468129 
L 173.016205 105.629355 
L 176.249425 101.658109 
L 179.321252 97.560746 
L 182.22677 93.34382 
L 184.961332 89.014077 
L 187.520563 84.578445 
L 189.90037 80.044018 
L 192.096943 75.418052 
L 194.106771 70.707946 
L 195.926637 65.921236 
L 196.715241 63.648 
L 198.444832 68.468064 
L 200.365791 73.215107 
L 202.475045 77.881535 
L 204.769219 82.459883 
L 207.244643 86.942826 
L 209.897356 91.323192 
L 212.723116 95.593975 
L 215.717401 99.748341 
L 218.875422 103.779645 
L 222.192125 107.681437 
L 225.662206 111.447475 
L 229.280112 115.071734 
L 233.040056 118.548417 
L 236.936022 121.871961 
L 238.817577 123.383722 
L 243.090982 120.56193 
L 247.248127 117.571505 
L 251.282362 114.41723 
L 255.187233 111.104152 
L 258.956492 107.63757 
L 262.58411 104.023032 
L 266.064284 100.266318 
L 269.391445 96.37344 
L 272.560271 92.350625 
L 275.565693 88.204308 
L 278.402902 83.941123 
L 281.06736 79.56789 
L 283.554804 75.091606 
L 285.861254 70.51943 
L 287.983022 65.858679 
L 288.912057 63.648 
L 290.946164 68.347671 
L 293.166581 72.962241 
L 295.569755 77.484326 
L 298.151842 81.906693 
L 300.908711 86.222267 
L 303.835952 90.424143 
L 306.928881 94.505599 
L 310.182552 98.460107 
L 313.591757 102.28134 
L 317.151045 105.963183 
L 320.85472 109.499749 
L 324.696857 112.885378 
L 328.67131 116.114654 
L 331.856977 118.520027 
L 332.508358 123.599417 
L 333.36234 128.648696 
L 334.417556 133.659786 
L 335.672317 138.62467 
L 337.124618 143.535406 
L 338.772134 148.384137 
L 340.61223 153.163106 
L 342.641961 157.864669 
L 344.858081 162.481303 
L 347.257045 167.005624 
L 349.835015 171.430392 
L 352.587866 175.74853 
L 355.511194 179.953129 
L 358.659555 184.112547 
L 353.578328 183.475654 
L 348.475696 183.042466 
L 343.359823 182.813674 
L 338.238893 182.789646 
L 333.121098 182.97042 
L 328.014626 183.355707 
L 322.927646 183.944889 
L 317.868296 184.737026 
L 312.84467 185.730848 
L 307.864805 186.924768 
L 302.936667 188.316874 
L 298.068141 189.904939 
L 293.267014 191.686423 
L 288.540968 193.658476 
L 283.897564 195.817943 
L 282.387256 196.569793 
L 283.566973 201.553042 
L 284.945023 206.485129 
L 286.519201 211.358164 
L 288.286989 216.16435 
L 290.24556 220.895999 
L 292.39178 225.545541 
L 294.722214 230.105538 
L 297.233137 234.568696 
L 299.920529 238.927873 
L 302.780092 243.176096 
L 305.807251 247.306569 
L 308.997164 251.312684 
L 312.344728 255.188032 
L 315.606932 258.681877 
L 310.616393 257.533389 
L 305.583919 256.585388 
L 300.517561 255.83939 
L 295.425423 255.29659 
L 290.315652 254.957855 
L 285.196422 254.823727 
L 280.075924 254.894421 
L 274.962348 255.169824 
L 269.863876 255.649495 
L 264.788664 256.332667 
L 259.744831 257.218247 
L 254.740446 258.304818 
L 249.783516 259.590642 
L 244.88197 261.073662 
L 240.043649 262.751505 
L 235.276295 264.621487 
L 230.587533 266.680616 
L 225.984865 268.925599 
L 221.475654 271.352844 
L 217.067114 273.958468 
L 212.766297 276.738302 
L 208.580084 279.687899 
L 204.515172 282.802541 
L 201.357006 285.408 
L 197.393759 282.164981 
L 193.303995 279.083044 
L 189.094259 276.167119 
L 184.771283 273.421871 
L 180.341985 270.851692 
L 175.813451 268.460693 
L 171.192924 266.2527 
L 166.487797 264.231245 
L 161.705596 262.399562 
L 158.154692 261.178843 
L 159.107464 256.14727 
L 159.858266 251.081621 
L 160.405894 245.99 
L 160.749474 240.880553 
L 160.888456 235.761453 
L 160.822617 230.64089 
L 160.552063 225.527055 
L 160.077226 220.428131 
L 159.398867 215.352273 
L 158.51807 210.307603 
L 157.436245 205.30219 
L 156.155122 200.344043 
L 154.676751 195.441092 
L 153.003496 190.601183 
L 151.138035 185.832058 
L 149.083352 181.141346 
L 146.842735 176.536551 
L 144.419767 172.02504 
L 141.818324 167.614031 
L 139.042569 163.310581 
L 136.096943 159.121573 
L 132.986157 155.05371 
L 129.715188 151.113499 
L 126.289269 147.307243 
L 124.765553 145.708841 
L 129.755734 146.858884 
L 134.787913 147.808453 
L 139.854039 148.556029 
L 144.946007 149.100416 
L 150.055672 149.440743 
L 155.17486 149.576466 
L 160.29538 149.507367 
L 165.409041 149.233558 
L 170.507663 148.755475 
L 175.583087 148.073884 
L 180.627196 147.189876 
L 185.631919 146.104865 
L 190.58925 144.820585 
L 195.555076 143.318385 
L 195.72834 138.200331 
L 195.696798 133.079442 
L 195.4605 127.96391 
L 195.019824 122.861919 
L 194.375476 117.781632 
L 193.528486 112.731176 
L 192.480209 107.71863 
L 191.232322 102.752014 
L 189.786821 97.839272 
L 188.14602 92.988265 
L 186.312542 88.206752 
L 184.289322 83.502384 
L 182.079595 78.882686 
L 179.686897 74.355049 
L 177.115056 69.926715 
L 174.368186 65.604771 
L 173.04269 63.648 
L 170.21651 67.918504 
L 167.563365 72.29861 
L 165.0875 76.781309 
L 162.792875 81.359431 
L 160.683162 86.025651 
L 158.761735 90.772505 
L 157.031669 95.592399 
L 155.495731 100.477621 
L 154.156379 105.420357 
L 153.015754 110.412699 
L 152.075683 115.44666 
L 151.337668 120.514188 
L 150.80289 125.607174 
L 150.472206 130.717473 
L 150.346143 135.836907 
L 150.424904 140.957288 
L 150.708362 146.070423 
L 151.196065 151.168133 
L 151.887232 156.242263 
L 152.780757 161.284694 
L 153.87521 166.287361 
L 155.168841 171.24226 
L 156.659581 176.141463 
L 158.345044 180.977134 
L 160.222535 185.741537 
L 162.289049 190.427049 
L 164.54128 195.026175 
L 166.975626 199.531556 
L 169.588191 203.935986 
L 172.374797 208.232418 
L 175.330986 212.413979 
L 178.452028 216.473979 
L 181.73293 220.405923 
L 185.168443 224.203521 
L 188.753072 227.860697 
L 192.481082 231.371601 
L 196.346508 234.730616 
L 200.343167 237.932368 
L 204.464665 240.971736 
L 208.704409 243.843856 
L 213.055615 246.544134 
L 217.511324 249.068251 
L 222.064406 251.412168 
L 226.707577 253.572135 
L 231.433411 255.544697 
L 236.234345 257.326699 
L 241.102701 258.915288 
L 246.030689 260.307925 
L 251.010425 261.502381 
L 256.033944 262.496745 
L 261.093209 263.289427 
L 266.180125 263.879158 
L 271.286556 264.264994 
L 276.404331 264.44632 
L 281.525263 264.422844 
L 286.641161 264.194604 
L 291.743839 263.761965 
L 296.825135 263.125619 
L 301.876919 262.286585 
L 306.89111 261.246205 
L 311.859686 260.006143 
L 315.433727 258.981877 
L 314.1669 254.020058 
L 312.702666 249.112867 
L 311.043368 244.268155 
L 309.191661 239.493673 
L 307.150507 234.797058 
L 304.92317 230.185825 
L 302.513216 225.667349 
L 299.924498 221.248861 
L 297.161158 216.937427 
L 294.227618 212.739947 
L 291.128569 208.663135 
L 287.86897 204.713512 
L 284.454036 200.897398 
L 281.67467 198.005961 
L 286.743407 198.735626 
L 291.837268 199.262011 
L 296.948104 199.584276 
L 302.06774 199.701903 
L 307.187984 199.614706 
L 312.300645 199.322823 
L 317.397545 198.826722 
L 322.470529 198.127197 
L 327.511481 197.225365 
L 332.512338 196.122671 
L 337.465098 194.820877 
L 342.361839 193.322067 
L 347.194727 191.628639 
L 351.956029 189.743302 
L 356.594408 187.689486 
L 356.047776 182.597757 
L 355.297965 177.531962 
L 354.346177 172.500203 
L 353.193933 167.51053 
L 351.843077 162.570925 
L 350.295771 157.689292 
L 348.554488 152.873439 
L 346.622016 148.131071 
L 344.501446 143.469775 
L 342.196169 138.897008 
L 339.709875 134.420084 
L 337.04654 130.046168 
L 334.210425 125.782254 
L 331.206068 121.635166 
L 328.038275 117.611537 
L 324.712114 113.717805 
L 321.232905 109.960198 
L 317.606215 106.344728 
L 313.837846 102.877179 
L 309.933827 99.563098 
L 305.900402 96.407787 
L 301.744024 93.416295 
L 297.471344 90.593405 
L 293.089196 87.943636 
L 288.60459 85.471225 
L 284.024702 83.180128 
L 279.356857 81.074011 
L 274.608525 79.156242 
L 269.7873 77.42989 
L 264.900895 75.897716 
L 259.957129 74.562172 
L 254.96391 73.425395 
L 249.929226 72.489202 
L 244.861131 71.755091 
L 239.767734 71.224238 
L 234.657182 70.89749 
L 229.537652 70.775372 
L 224.417334 70.858078 
L 219.304418 71.145475 
L 214.207085 71.637106 
L 209.13349 72.332181 
L 204.091748 73.229591 
L 199.089926 74.327898 
L 194.136026 75.625347 
L 189.237972 77.119861 
L 184.403601 78.809049 
L 179.640646 80.690209 
L 174.956728 82.760332 
L 170.359339 85.016106 
L 165.855834 87.453923 
L 161.453419 90.069881 
L 157.159135 92.859796 
L 153.999797 95.073647 
L 153.576852 100.177137 
L 153.358331 105.293459 
L 153.344583 110.414427 
L 153.53563 115.531849 
L 153.931167 120.637537 
L 154.53056 125.723324 
L 155.332852 130.781074 
L 156.336757 135.802695 
L 157.540671 140.780153 
L 158.942667 145.705487 
L 160.540502 150.570815 
L 162.33162 155.368356 
L 164.313157 160.090433 
L 166.481941 164.729494 
L 168.834503 169.278115 
L 171.367079 173.72902 
L 174.075619 178.075089 
L 176.955788 182.309369 
L 180.00298 186.425086 
L 183.212319 190.415655 
L 186.578671 194.274693 
L 190.09665 197.996027 
L 191.262535 199.165726 
L 192.447747 204.147671 
L 193.831236 209.078235 
L 195.410788 213.94953 
L 197.183876 218.753764 
L 199.147664 223.48325 
L 201.29901 228.130422 
L 203.634473 232.687847 
L 206.150316 237.148232 
L 208.842514 241.504442 
L 211.706761 245.749509 
L 214.738474 249.876641 
L 217.932804 253.879235 
L 221.284639 257.750889 
L 224.788618 261.485408 
L 228.439135 265.076818 
L 232.230351 268.519373 
L 236.156199 271.807567 
L 240.210399 274.936139 
L 244.386467 277.900083 
L 248.67772 280.694658 
L 253.077293 283.315393 
L 256.905999 285.408 
L 261.392317 282.938698 
L 265.776301 280.291967 
L 270.050937 277.472039 
L 274.209386 274.483428 
L 278.244997 271.330914 
L 282.151313 268.01954 
L 285.922085 264.554603 
L 289.55128 260.941648 
L 293.033092 257.186454 
L 296.361951 253.295028 
L 299.532532 249.273595 
L 302.539763 245.12859 
L 305.378832 240.866644 
L 308.045198 236.494574 
L 310.534595 232.019375 
L 312.84304 227.448207 
L 314.966841 222.788381 
L 316.9026 218.047354 
L 318.64722 213.232709 
L 320.197909 208.35215 
L 321.552189 203.413483 
L 322.707891 198.42461 
L 323.663166 193.393511 
L 324.416488 188.328237 
L 324.966649 183.236889 
L 325.312771 178.127613 
L 325.4543 173.008582 
L 325.391009 167.887987 
L 325.122999 162.774019 
L 324.6507 157.674858 
L 323.974866 152.598664 
L 323.096579 147.553556 
L 322.017245 142.547606 
L 320.738589 137.588821 
L 319.262657 132.685136 
L 317.591811 127.844395 
L 315.728723 123.074342 
L 313.676374 118.382608 
L 311.438048 113.776699 
L 309.017325 109.263984 
L 306.418077 104.851681 
L 303.644464 100.54685 
L 300.700922 96.356377 
L 297.59216 92.286967 
L 294.323152 88.345128 
L 290.899128 84.537169 
L 287.325564 80.86918 
L 283.608179 77.347029 
L 279.752918 73.976351 
L 275.76595 70.762539 
L 271.653653 67.710733 
L 267.422606 64.825817 
L 265.584691 63.648 
L 261.305073 66.460361 
L 257.141344 69.441612 
L 253.100163 72.586983 
L 249.187995 75.891442 
L 245.411101 79.349703 
L 241.77552 82.956233 
L 238.287071 86.705263 
L 234.951333 90.590794 
L 231.773644 94.606612 
L 228.759086 98.746291 
L 225.912482 103.003208 
L 223.238387 107.370555 
L 220.741078 111.841343 
L 218.42455 116.408421 
L 216.29251 121.064483 
L 214.348368 125.802078 
L 213.259129 128.72025 
L 208.335496 127.312294 
L 203.359498 126.102358 
L 198.339096 125.092377 
L 193.282321 124.283965 
L 188.197263 123.678418 
L 183.092057 123.276703 
L 177.97487 123.079463 
L 172.853889 123.087014 
L 167.737307 123.299343 
L 162.633308 123.716111 
L 157.550058 124.336652 
L 152.495689 125.159971 
L 147.478287 126.184753 
L 142.505878 127.409358 
L 137.586418 128.831827 
L 133.790301 130.07752 
L 134.862419 135.085021 
L 136.133925 140.045643 
L 137.602787 144.951451 
L 139.266654 149.794595 
L 141.122864 154.567329 
L 143.168447 159.262016 
L 145.400132 163.871147 
L 147.814348 168.387347 
L 150.407232 172.803392 
L 153.174637 177.112217 
L 156.112136 181.306928 
L 159.215028 185.380816 
L 162.478351 189.327362 
L 165.896883 193.140253 
L 169.465156 196.81339 
L 173.17746 200.340895 
L 177.027858 203.717127 
L 181.010189 206.936683 
L 185.118083 209.994413 
L 189.344967 212.885425 
L 193.68408 215.605094 
L 198.12848 218.14907 
L 202.671056 220.513282 
L 207.304543 222.693948 
L 212.021526 224.68758 
L 216.814461 226.490989 
L 221.675678 228.101288 
L 226.597402 229.515903 
L 231.571759 230.73257 
L 236.59079 231.749342 
L 241.646467 232.564593 
L 246.730701 233.177019 
L 251.835359 233.58564 
L 256.952274 233.789802 
L 262.07326 233.789179 
L 267.190126 233.583771 
L 272.294684 233.173908 
L 277.378769 232.560245 
L 282.434247 231.743763 
L 287.453031 230.72577 
L 292.427091 229.507893 
L 297.348471 228.09208 
L 302.209296 226.480598 
L 307.001792 224.676023 
L 311.71829 222.681243 
L 316.351245 220.499449 
L 320.893246 218.134131 
L 325.337027 215.589074 
L 329.675478 212.868349 
L 333.901658 209.976308 
L 338.008808 206.917579 
L 341.990355 203.697054 
L 345.839931 200.319885 
L 349.551377 196.791476 
L 353.118756 193.117471 
L 354.031356 192.128823 
L 355.481141 187.217344 
L 356.733359 182.251817 
L 357.786008 177.240188 
L 358.637403 172.190472 
L 359.286182 167.110749 
L 359.381375 166.193682 
L 354.672182 164.181716 
L 349.8863 162.359676 
L 345.031383 160.730479 
L 340.115199 159.296729 
L 335.145613 158.060721 
L 330.130575 157.024433 
L 325.078108 156.189521 
L 319.996294 155.557322 
L 314.893265 155.128847 
L 309.777183 154.904781 
L 304.656233 154.885483 
L 299.538607 155.070985 
L 294.432493 155.460988 
L 289.346059 156.054869 
L 284.22985 156.861948 
L 288.601805 154.195393 
L 292.863628 151.35614 
L 297.008503 148.34873 
L 301.029798 145.177975 
L 304.921081 141.848947 
L 308.676124 138.366973 
L 312.288923 134.737622 
L 315.753696 130.9667 
L 319.064901 127.060241 
L 322.217241 123.024494 
L 325.205673 118.865915 
L 328.025415 114.591157 
L 328.83672 113.288787 
L 323.721517 113.532093 
L 318.620134 113.979757 
L 313.540735 114.631064 
L 308.491444 115.484972 
L 303.480338 116.540115 
L 298.515436 117.794804 
L 293.604679 119.247033 
L 288.755924 120.894479 
L 283.976928 122.734505 
L 279.275335 124.764168 
L 274.658669 126.980221 
L 270.134313 129.379119 
L 265.709507 131.957024 
L 265.142613 132.304689 
L 265.983869 127.253274 
L 266.62245 122.172259 
L 267.057333 117.069771 
L 267.287823 111.953974 
L 267.313552 106.833053 
L 267.134478 101.715198 
L 266.750888 96.608598 
L 266.163395 91.521423 
L 265.372939 86.46181 
L 264.380785 81.437855 
L 263.188519 76.457593 
L 261.798051 71.528993 
L 260.211602 66.659939 
L 259.120731 63.648 
L 257.412965 68.47584 
L 255.899627 73.36811 
L 254.583139 78.316985 
L 253.465605 83.314546 
L 252.548814 88.3528 
L 251.834234 93.423685 
L 251.323006 98.519089 
L 251.015949 103.630862 
L 250.913554 108.750824 
L 251.015984 113.870786 
L 251.323077 118.982557 
L 251.83434 124.077958 
L 252.059957 125.845444 
L 255.532918 122.082062 
L 258.852606 118.182809 
L 262.013709 114.153922 
L 265.011172 110.001848 
L 267.840198 105.733229 
L 270.496262 101.354893 
L 272.975115 96.873845 
L 275.272791 92.297254 
L 277.385614 87.632441 
L 279.310204 82.886869 
L 281.043483 78.068129 
L 282.582677 73.183932 
L 283.925324 68.24209 
L 284.985853 63.648 
L 286.145633 68.635926 
L 287.50395 73.573484 
L 289.05863 78.452774 
L 290.807186 83.265991 
L 292.746821 88.005434 
L 294.874431 92.663521 
L 297.186613 97.232801 
L 299.679668 101.705963 
L 302.349608 106.075851 
L 305.192161 110.335475 
L 308.20278 114.478019 
L 311.376648 118.496858 
L 314.708688 122.385561 
L 318.19357 126.137907 
L 321.825718 129.747894 
L 325.599321 133.209745 
L 329.508343 136.517924 
L 333.54653 139.667138 
L 337.707423 142.652348 
L 341.984363 145.468779 
L 346.370509 148.111925 
L 350.149262 150.203192 
L 350.072478 155.323603 
L 350.200518 160.442989 
L 350.533177 165.553159 
L 351.069921 170.645939 
L 351.809893 175.713181 
L 352.751909 180.746779 
L 353.894462 185.73868 
L 355.112232 190.25669 
L 350.166064 191.583308 
L 345.276902 193.10666 
L 340.452569 194.824307 
L 335.700782 196.733503 
L 331.029144 198.831191 
L 326.445128 201.114018 
L 321.956067 203.57833 
L 317.569144 206.220186 
L 313.291375 209.035359 
L 309.129605 212.019345 
L 305.090491 215.16737 
L 301.180496 218.474399 
L 297.405875 221.935141 
L 293.772665 225.544059 
L 290.28668 229.29538 
L 286.953496 233.183103 
L 283.778446 237.201007 
L 280.766608 241.342666 
L 277.922802 245.601453 
L 275.251577 249.970556 
L 272.757206 254.442984 
L 270.44368 259.011584 
L 268.3147 263.669045 
L 266.373671 268.407917 
L 264.623699 273.220619 
L 263.067584 278.099451 
L 261.707815 283.036609 
L 261.129456 285.408 
L 259.864055 280.445817 
L 258.401231 275.538206 
L 256.743325 270.693017 
L 254.89299 265.918003 
L 252.853185 261.220802 
L 250.627173 256.608929 
L 248.218517 252.089761 
L 245.631068 247.670529 
L 242.868968 243.358302 
L 239.936633 239.159979 
L 236.838756 235.082276 
L 233.580292 231.131718 
L 230.166455 227.314622 
L 228.049792 225.095029 
L 223.553474 227.546075 
L 219.158769 230.174966 
L 214.872706 232.977495 
L 210.702144 235.94918 
L 206.653753 239.085265 
L 202.73401 242.380734 
L 198.949186 245.830316 
L 195.305336 249.42849 
L 191.808289 253.169502 
L 188.46364 257.047365 
L 185.27674 261.055877 
L 182.252687 265.188625 
L 179.396318 269.438996 
L 176.712204 273.800193 
L 174.204638 278.265236 
L 171.877632 282.826984 
L 171.322455 283.986078 
L 176.433624 284.303027 
L 181.553379 284.41533 
L 186.673529 284.322808 
L 191.785884 284.025608 
L 196.882265 283.524206 
L 201.954519 282.819404 
L 206.994531 281.91233 
L 211.994238 280.804435 
L 216.945642 279.497491 
L 221.840821 277.993589 
L 226.671945 276.295136 
L 231.431284 274.404847 
L 236.111225 272.325748 
L 240.704281 270.061164 
L 245.203103 267.614718 
L 249.600496 264.990324 
L 253.889423 262.19218 
L 258.063023 259.224764 
L 262.11462 256.092821 
L 266.037732 252.801363 
L 269.826082 249.355656 
L 273.473611 245.761211 
L 276.974483 242.023778 
L 280.323097 238.149338 
L 283.514096 234.144088 
L 286.542375 230.014436 
L 289.40309 225.766989 
L 292.091664 221.40854 
L 294.603796 216.946064 
L 296.935468 212.386699 
L 299.082948 207.737739 
L 301.042801 203.006621 
L 302.811893 198.200914 
L 304.387393 193.328307 
L 305.76678 188.396594 
L 306.947847 183.413665 
L 307.928706 178.387492 
L 308.707787 173.326115 
L 309.283844 168.237632 
L 309.655955 163.130183 
L 309.823525 158.011939 
L 309.786286 152.891088 
L 309.544297 147.775822 
L 309.097945 142.674325 
L 308.447945 137.594758 
L 307.595337 132.545247 
L 306.541484 127.53387 
L 305.288072 122.568645 
L 303.837107 117.657515 
L 302.190909 112.808336 
L 300.352113 108.028866 
L 298.32366 103.326752 
L 296.108795 98.709515 
L 293.711062 94.184543 
L 291.134296 89.759073 
L 288.382619 85.440187 
L 285.460434 81.234793 
L 282.372416 77.14962 
L 279.123504 73.191202 
L 275.718897 69.365871 
L 272.16404 65.679749 
L 270.077737 63.648 
L 266.439963 67.252318 
L 262.949234 70.999224 
L 259.611133 74.882726 
L 256.431 78.896609 
L 253.413924 83.034453 
L 250.564731 87.289638 
L 247.88798 91.655357 
L 245.387951 96.124626 
L 243.068645 100.690293 
L 240.933773 105.345057 
L 238.986749 110.081469 
L 237.230688 114.891952 
L 235.6684 119.768812 
L 234.659653 123.336704 
L 232.953521 118.508286 
L 231.055669 113.751958 
L 228.969133 109.075328 
L 226.69725 104.485878 
L 224.243656 99.99095 
L 221.612274 95.597735 
L 218.807316 91.313262 
L 215.833269 87.144384 
L 212.69489 83.097771 
L 209.397199 79.179896 
L 205.945474 75.397028 
L 202.345235 71.755218 
L 198.602242 68.260292 
L 194.722483 64.917842 
L 193.162686 63.648 
L 189.230899 66.929091 
L 185.433467 70.364787 
L 181.776463 73.949592 
L 178.265738 77.67777 
L 174.906909 81.543358 
L 171.705348 85.54017 
L 168.666179 89.661815 
L 165.794262 93.901696 
L 163.094193 98.253033 
L 160.57029 102.708862 
L 158.226592 107.262057 
L 156.066848 111.905332 
L 154.094513 116.631261 
L 152.312743 121.432281 
L 150.724387 126.300712 
L 149.331987 131.228767 
L 148.13777 136.208561 
L 147.143648 141.232128 
L 146.351209 146.291431 
L 145.761723 151.378375 
L 145.376132 156.484824 
L 145.195052 161.602608 
L 145.218774 166.72354 
L 145.44726 171.839426 
L 145.880144 176.942084 
L 146.516734 182.023349 
L 147.356011 187.075093 
L 148.396632 192.089234 
L 149.636933 197.05775 
L 151.07493 201.972693 
L 152.708322 206.826201 
L 154.534496 211.610508 
L 156.55053 216.31796 
L 158.753199 220.941027 
L 161.13898 225.472313 
L 163.704056 229.904568 
L 166.444323 234.230703 
L 169.355397 238.443795 
L 172.432622 242.537106 
L 175.671073 246.504086 
L 179.065571 250.33839 
L 182.610686 254.033882 
L 186.300745 257.584652 
L 190.129845 260.985019 
L 194.09186 264.229543 
L 198.180453 267.313033 
L 202.389082 270.230556 
L 206.711014 272.977446 
L 211.139336 275.549307 
L 215.666963 277.942025 
L 220.286651 280.151773 
L 224.99101 282.175015 
L 229.772514 284.008514 
L 233.868184 285.408 
L 238.708929 283.737164 
L 243.478986 281.874087 
L 248.170724 279.821749 
L 252.776638 277.583433 
L 257.289359 275.16272 
L 261.701668 272.563482 
L 266.006505 269.789878 
L 270.196984 266.846346 
L 274.266402 263.737593 
L 278.208247 260.468594 
L 282.016214 257.044577 
L 285.684211 253.471022 
L 289.206371 249.753644 
L 292.577057 245.898391 
L 295.790878 241.91143 
L 298.842692 237.79914 
L 301.727618 233.568099 
L 304.441039 229.225077 
L 306.978616 224.77702 
L 309.336287 220.231045 
L 311.510283 215.594425 
L 313.497124 210.874577 
L 315.293632 206.079052 
L 316.896933 201.215522 
L 318.304463 196.291767 
L 319.513969 191.315664 
L 320.523516 186.295175 
L 321.33149 181.23833 
L 321.936598 176.15322 
L 322.337872 171.047979 
L 322.534669 165.930776 
L 322.526675 160.809795 
L 322.313904 155.693231 
L 321.896694 150.589268 
L 321.275714 145.506072 
L 320.451957 140.451774 
L 319.426742 135.43446 
L 318.201707 130.462158 
L 316.778813 125.542821 
L 315.160336 120.68432 
L 313.348865 115.894427 
L 311.347299 111.180805 
L 309.158839 106.550994 
L 306.786987 102.012402 
L 304.235537 97.572289 
L 301.50857 93.237758 
L 298.61045 89.015744 
L 295.545812 84.913002 
L 292.31956 80.936094 
L 288.936855 77.091382 
L 285.403108 73.385018 
L 281.723972 69.822931 
L 277.905334 66.41082 
L 274.573682 63.648 
L 270.641896 66.929091 
L 266.844463 70.364787 
L 263.187459 73.949592 
L 259.676735 77.67777 
L 256.317905 81.543358 
L 253.116345 85.54017 
L 250.077176 89.661815 
L 247.205259 93.901696 
L 244.50519 98.253033 
L 241.981287 102.708862 
L 239.637589 107.262057 
L 237.477845 111.905332 
L 235.50551 116.631261 
L 233.723739 121.432281 
L 233.052785 123.409069 
L 230.777125 118.821491 
L 228.31983 114.328585 
L 225.684833 109.937539 
L 222.876348 105.655376 
L 219.898869 101.488948 
L 216.757159 97.444921 
L 213.456244 93.529763 
L 210.001405 89.749738 
L 206.398168 86.110893 
L 202.652299 82.61905 
L 198.76979 79.279796 
L 194.756852 76.098471 
L 190.619904 73.080165 
L 186.365566 70.229708 
L 182.000643 67.551659 
L 177.532118 65.050302 
L 174.828121 63.648 
L 170.975408 65.671026 
L 171.19598 70.78726 
L 171.620971 75.890581 
L 172.249701 80.972824 
L 173.081163 86.02586 
L 174.114028 91.041605 
L 175.346642 96.012034 
L 176.777035 100.929195 
L 178.402918 105.785223 
L 180.221689 110.572349 
L 182.23044 115.282914 
L 184.425956 119.909382 
L 186.804726 124.444353 
L 189.362943 128.88057 
L 192.096515 133.210938 
L 195.001069 137.428528 
L 197.561477 140.868619 
L 193.067597 138.413106 
L 188.479117 136.139265 
L 183.803378 134.050733 
L 179.047861 132.15085 
L 174.220172 130.442658 
L 169.328035 128.928888 
L 164.379277 127.611962 
L 159.381814 126.493987 
L 154.343641 125.576752 
L 149.272819 124.861723 
L 144.17746 124.350045 
L 139.065715 124.042537 
L 137.308316 123.984138 
L 140.071548 128.295641 
L 143.004984 132.493194 
L 146.103931 136.570084 
L 149.363431 140.519788 
L 152.77827 144.335987 
L 156.342984 148.012577 
L 160.051872 151.543675 
L 163.898999 154.923633 
L 167.878211 158.147043 
L 171.983142 161.208749 
L 176.207226 164.103852 
L 180.543703 166.827721 
L 185.195086 169.490398 
L 180.337188 171.110685 
L 175.547971 172.92394 
L 170.835094 174.927262 
L 166.2061 177.117447 
L 161.668392 179.49099 
L 157.22923 182.044095 
L 152.895716 184.772677 
L 148.674782 187.67237 
L 144.573181 190.738536 
L 140.597476 193.96627 
L 136.754025 197.350408 
L 133.048978 200.885535 
L 129.488262 204.565998 
L 127.036496 207.280546 
L 132.037721 206.179526 
L 136.990917 204.879391 
L 141.88816 203.382221 
L 146.721614 201.690412 
L 151.483548 199.806668 
L 156.166343 197.734005 
L 160.762508 195.475738 
L 165.26469 193.03548 
L 169.665686 190.417135 
L 173.958456 187.624891 
L 178.136133 184.663215 
L 182.192032 181.536846 
L 185.150051 179.087055 
L 180.676781 176.594195 
L 176.107401 174.282211 
L 171.449221 172.154803 
L 166.709694 170.215375 
L 161.896401 168.467028 
L 157.017043 166.91256 
L 152.079426 165.554458 
L 147.09145 164.394895 
L 142.061092 163.435724 
L 136.996402 162.678482 
L 131.905482 162.124379 
L 126.796475 161.774301 
L 121.677556 161.628809 
L 116.556913 161.688136 
L 115.518525 161.725163 
L 117.991156 166.209648 
L 120.641141 170.591666 
L 123.46424 174.864208 
L 126.455937 179.020438 
L 129.611445 183.053708 
L 132.925717 186.957565 
L 136.393451 190.725764 
L 140.009099 194.352277 
L 143.766877 197.831301 
L 147.660772 201.157271 
L 151.684557 204.324867 
L 155.831792 207.329021 
L 160.095845 210.164926 
L 164.469892 212.828046 
L 168.946938 215.314121 
L 173.519818 217.619173 
L 178.181218 219.739515 
L 182.923681 221.671754 
L 187.739619 223.4128 
L 192.621328 224.959868 
L 197.560999 226.310481 
L 202.550729 227.46248 
L 207.582534 228.414021 
L 212.648367 229.163583 
L 217.740122 229.709966 
L 222.849653 230.052296 
L 227.968787 230.190026 
L 233.089334 230.122934 
L 238.203102 229.851129 
L 243.30191 229.375045 
L 248.377602 228.695444 
L 253.422057 227.813413 
L 258.427205 226.730364 
L 263.385038 225.448028 
L 268.287627 223.968457 
L 273.127126 222.294019 
L 277.895795 220.427391 
L 282.586005 218.371561 
L 287.190251 216.129817 
L 291.701169 213.705745 
L 296.111541 211.103224 
L 300.414313 208.326416 
L 304.6026 205.379765 
L 308.669702 202.267984 
L 312.609113 198.996051 
L 316.41453 195.569201 
L 320.079866 191.992916 
L 323.599257 188.272918 
L 326.967073 184.415157 
L 330.177925 180.425805 
L 333.226677 176.311244 
L 336.108453 172.078057 
L 338.81864 167.733015 
L 341.352905 163.283071 
L 343.707192 158.735343 
L 345.877735 154.097105 
L 347.861062 149.37578 
L 348.588383 147.499672 
L 343.518665 146.776859 
L 338.424097 146.257358 
L 333.31283 145.942002 
L 328.19304 145.831294 
L 323.072919 145.925412 
L 317.960657 146.224204 
L 312.864432 146.727194 
L 307.792398 147.433575 
L 302.752669 148.342219 
L 297.753308 149.451672 
L 292.802311 150.760158 
L 287.907601 152.265585 
L 283.065835 153.969728 
L 284.205781 153.38684 
L 288.705576 150.942183 
L 293.104012 148.319539 
L 297.394052 145.523101 
L 301.568832 142.557345 
L 305.621674 139.427015 
L 309.546095 136.137117 
L 313.335816 132.692917 
L 316.984774 129.099923 
L 320.487132 125.363883 
L 323.837287 121.490775 
L 327.029879 117.486795 
L 329.407321 114.277098 
L 324.322144 114.881643 
L 319.26521 115.689057 
L 314.244608 116.698049 
L 309.268372 117.907004 
L 304.344461 119.313989 
L 299.480754 120.916752 
L 294.68503 122.71273 
L 289.964962 124.699048 
L 285.328101 126.872531 
L 280.781866 129.229699 
L 276.333528 131.766784 
L 271.990206 134.479724 
L 269.818795 135.928966 
L 272.010177 131.300538 
L 274.014718 126.58818 
L 275.829212 121.799432 
L 277.450755 116.941953 
L 278.876754 112.023515 
L 280.104927 107.051987 
L 281.13331 102.035322 
L 281.960257 96.981545 
L 282.584446 91.898742 
L 283.004877 86.795043 
L 283.220879 81.678614 
L 283.232105 76.55764 
L 283.038538 71.440313 
L 282.640487 66.33482 
L 282.348191 63.648 
L 281.842462 68.743953 
L 281.540922 73.856054 
L 281.444052 78.976124 
L 281.552008 84.095973 
L 281.864617 89.207409 
L 282.381378 94.302255 
L 283.101466 99.372361 
L 284.023728 104.409616 
L 285.146689 109.40596 
L 286.468552 114.353402 
L 287.987203 119.244026 
L 289.700211 124.070008 
L 291.604838 128.823628 
L 293.698034 133.497281 
L 295.976453 138.083489 
L 298.436449 142.574917 
L 301.074086 146.964378 
L 303.885145 151.244851 
L 306.865129 155.409488 
L 310.00927 159.451626 
L 313.312538 163.364799 
L 316.76965 167.142746 
L 320.375073 170.779423 
L 324.123041 174.269013 
L 328.007558 177.605933 
L 332.022408 180.784844 
L 336.161169 183.800662 
L 340.417221 186.64856 
L 344.783754 189.323985 
L 349.253782 191.822654 
L 353.078318 193.779533 
L 348.769831 191.011603 
L 344.354102 188.418179 
L 339.838196 186.003413 
L 335.229338 183.771166 
L 330.5349 181.72501 
L 325.762393 179.868218 
L 320.919451 178.20376 
L 316.013823 176.7343 
L 311.053356 175.462188 
L 306.045986 174.38946 
L 300.999724 173.517831 
L 295.922642 172.848696 
L 290.822863 172.383125 
L 287.319519 172.182038 
L 287.953617 172.094116 
L 293.008967 171.27684 
L 298.027591 170.258058 
L 303.00146 169.039399 
L 307.922617 167.622814 
L 312.78319 166.010568 
L 317.575401 164.20524 
L 322.291586 162.209719 
L 326.924199 160.027198 
L 331.465828 157.661167 
L 335.909209 155.115411 
L 340.247233 152.394005 
L 344.472959 149.5013 
L 348.16348 146.763718 
L 343.469016 148.809815 
L 338.86013 151.042004 
L 334.344194 153.456715 
L 329.928433 156.050082 
L 325.619912 158.817959 
L 321.425522 161.755917 
L 317.351974 164.859256 
L 313.405785 168.12301 
L 309.593268 171.54196 
L 305.920522 175.110634 
L 302.393423 178.823325 
L 299.017613 182.674093 
L 295.798493 186.656776 
L 292.741213 190.765004 
L 289.850663 194.992205 
L 287.131469 199.331616 
L 284.58798 203.776294 
L 282.224265 208.31913 
L 280.044106 212.952855 
L 278.05099 217.670056 
L 276.248107 222.463188 
L 274.638339 227.324582 
L 273.224264 232.246461 
L 272.008142 237.220951 
L 270.991919 242.240094 
L 270.177221 247.295859 
L 269.565352 252.380161 
L 269.15729 257.484863 
L 268.953688 262.6018 
L 268.954872 267.722787 
L 269.160839 272.839629 
L 269.571261 277.944143 
L 270.185481 283.02816 
L 270.544259 285.408 
L 271.253934 280.336426 
L 271.760232 275.240529 
L 272.062344 270.128462 
L 272.159786 265.008403 
L 272.052403 259.888542 
L 271.740365 254.777072 
L 271.224173 249.682167 
L 270.504652 244.611981 
L 269.582953 239.574623 
L 268.460551 234.578153 
L 267.139241 229.630563 
L 265.621137 224.73977 
L 263.908668 219.913596 
L 263.181533 218.032444 
L 266.690466 221.762308 
L 270.345748 225.348869 
L 274.14153 228.786389 
L 278.071739 232.069368 
L 282.13009 235.192555 
L 286.310088 238.150953 
L 290.605047 240.939829 
L 295.008095 243.554721 
L 299.51219 245.991447 
L 304.110125 248.246109 
L 308.794544 250.315098 
L 313.557954 252.195105 
L 318.379913 253.878932 
L 314.500305 250.536308 
L 310.49013 247.3515 
L 306.355805 244.329604 
L 302.103943 241.475455 
L 297.741346 238.793617 
L 293.274994 236.288382 
L 288.712032 233.963757 
L 284.05976 231.823461 
L 279.32562 229.870919 
L 274.517186 228.109254 
L 269.642151 226.541283 
L 264.708313 225.169517 
L 259.723565 223.996149 
L 254.695883 223.023056 
L 253.296601 222.789131 
L 249.965152 226.678341 
L 246.791895 230.697662 
L 243.781907 234.840665 
L 240.940002 239.100721 
L 238.270727 243.471015 
L 235.778352 247.944556 
L 233.466865 252.514187 
L 231.339963 257.172598 
L 229.40105 261.912336 
L 227.653226 266.725819 
L 226.099288 271.605345 
L 224.741722 276.54311 
L 223.5827 281.531213 
L 222.825534 285.408 
L 221.820937 280.386518 
L 220.616337 275.409225 
L 219.213663 270.484085 
L 217.615157 265.618976 
L 215.823377 260.821682 
L 213.841191 256.099878 
L 211.671767 251.461117 
L 209.318579 246.91282 
L 206.785389 242.462264 
L 204.07625 238.116568 
L 201.195497 233.882685 
L 198.147739 229.767388 
L 194.93785 225.777261 
L 191.570966 221.918687 
L 188.052474 218.197838 
L 184.388001 214.620668 
L 180.583412 211.1929 
L 176.644791 207.920016 
L 172.57844 204.807252 
L 168.390865 201.85959 
L 164.088764 199.081743 
L 159.679021 196.478157 
L 155.168688 194.052996 
L 150.564983 191.81014 
L 145.875271 189.753177 
L 141.107053 187.885398 
L 136.267957 186.209791 
L 131.365727 184.729037 
L 126.408203 183.445503 
L 121.403316 182.361245 
L 116.359075 181.477996 
L 111.779469 180.8546 
L 113.709137 176.111091 
L 115.447573 171.29421 
L 116.991994 166.411663 
L 118.33993 161.471261 
L 119.489225 156.480908 
L 119.985169 153.988709 
L 123.800829 150.573267 
L 127.476855 147.007972 
L 131.007367 143.298526 
L 134.386717 139.450865 
L 137.609498 135.471143 
L 140.670555 131.365728 
L 143.56499 127.141187 
L 146.288174 122.804279 
L 148.835749 118.361941 
L 151.203641 113.821282 
L 153.38806 109.189563 
L 155.385513 104.474197 
L 157.192803 99.682725 
L 158.807041 94.822813 
L 160.225642 89.902237 
L 161.446338 84.928867 
L 162.331119 80.643373 
L 166.146779 77.227931 
L 169.822805 73.662635 
L 173.353317 69.953189 
L 176.732666 66.105528 
L 178.753783 63.648 
L 182.036475 67.57845 
L 185.473716 71.374484 
L 189.06001 75.030028 
L 192.789617 78.539235 
L 196.656572 81.89649 
L 200.654688 85.096423 
L 204.777569 88.133914 
L 209.018619 91.004104 
L 213.371055 93.702402 
L 217.827911 96.22449 
L 222.38206 98.566334 
L 227.026214 100.724188 
L 231.752945 102.694599 
L 236.55469 104.474414 
L 241.423768 106.060788 
L 246.352389 107.451182 
L 251.332669 108.643371 
L 256.35664 109.635448 
L 261.416265 110.425827 
L 266.503449 111.013242 
L 271.610055 111.396754 
L 276.727912 111.57575 
L 281.848833 111.549943 
L 286.964627 111.319375 
L 292.067107 110.884413 
L 297.148113 110.245755 
L 302.199515 109.404421 
L 307.213232 108.361759 
L 312.181243 107.119435 
L 317.0956 105.679437 
L 321.948442 104.04407 
L 323.229081 103.576072 
L 319.35056 106.919959 
L 315.608862 110.41627 
L 312.009972 114.059413 
L 308.559647 117.843559 
L 305.263408 121.762655 
L 302.126527 125.81043 
L 299.154024 129.980409 
L 296.350652 134.265921 
L 293.720898 138.660109 
L 291.268969 143.155945 
L 288.998785 147.746236 
L 286.913981 152.423639 
L 285.01789 157.180669 
L 284.671568 158.113748 
L 289.046007 160.776225 
L 293.523417 163.261642 
L 298.096637 165.566022 
L 302.758349 167.685678 
L 307.501095 169.617221 
L 312.317289 171.357559 
L 317.199226 172.903908 
L 322.139095 174.253796 
L 327.128994 175.405061 
L 332.16094 176.355863 
L 337.226882 177.10468 
L 342.318717 177.650314 
L 347.428299 177.991893 
L 352.547453 178.12887 
L 357.66799 178.061026 
L 362.2905 177.823565 
L 359.952136 173.267629 
L 357.433454 168.808846 
L 354.738482 164.454351 
L 351.871533 160.211109 
L 348.837192 156.085908 
L 345.640315 152.085349 
L 342.286015 148.21583 
L 338.779658 144.483543 
L 335.126855 140.894458 
L 331.333448 137.454318 
L 327.405507 134.168625 
L 323.349315 131.042635 
L 319.171362 128.081351 
L 314.87833 125.289509 
L 310.477089 122.671575 
L 305.974678 120.231739 
L 301.378302 117.973902 
L 296.695313 115.901678 
L 291.933203 114.01838 
L 287.09959 112.327023 
L 282.202207 110.830311 
L 277.24889 109.53064 
L 272.247561 108.430088 
L 267.206223 107.530417 
L 262.132939 106.833064 
L 257.035828 106.339147 
L 251.923042 106.049455 
L 246.802761 105.964452 
L 241.683176 106.084273 
L 236.572479 106.408727 
L 231.478844 106.937295 
L 226.41042 107.669132 
L 221.375316 108.603065 
L 216.381588 109.737603 
L 211.437223 111.070928 
L 206.550132 112.600909 
L 201.728132 114.325098 
L 196.97894 116.240736 
L 192.310151 118.344759 
L 187.729235 120.6338 
L 183.24352 123.104198 
L 178.860184 125.752001 
L 174.586237 128.572973 
L 170.428518 131.562601 
L 166.393677 134.716101 
L 162.488171 138.02843 
L 158.718246 141.494288 
L 155.089935 145.10813 
L 151.60904 148.864175 
L 148.281132 152.756415 
L 145.111534 156.778622 
L 142.105316 160.924362 
L 139.267289 165.187002 
L 136.601992 169.559723 
L 134.113689 174.035531 
L 131.806361 178.607263 
L 129.683699 183.267607 
L 127.749099 188.009108 
L 126.005656 192.824179 
L 124.456159 197.705117 
L 123.492247 201.141727 
L 128.461446 202.379288 
L 133.47616 203.417144 
L 138.528366 204.253635 
L 143.609981 204.887423 
L 148.712877 205.317493 
L 153.828889 205.543158 
L 158.949832 205.564057 
L 164.067516 205.380155 
L 169.173751 204.991748 
L 174.26037 204.399457 
L 179.319235 203.604229 
L 184.342253 202.607336 
L 189.321388 201.410374 
L 192.108091 200.647518 
L 192.108091 200.647518 
" style="fill:none;stroke:#1f77b4;stroke-linecap:square;stroke-width:1.5;"/>
   </g>
   <g id="patch_4">
    <path d="M 82.520165 307.584 
L 82.520165 41.472 
" style="fill:none;stroke:#000000;stroke-linecap:square;stroke-linejoin:miter;stroke-width:0.8;"/>
   </g>
   <g id="patch_5">
    <path d="M 389.799835 307.584 
L 389.799835 41.472 
" style="fill:none;stroke:#000000;stroke-linecap:square;stroke-linejoin:miter;stroke-width:0.8;"/>
   </g>
   <g id="patch_6">
    <path d="M 82.520165 307.584 
L 389.799835 307.584 
" style="fill:none;stroke:#000000;stroke-linecap:square;stroke-linejoin:miter;stroke-width:0.8;"/>
   </g>
   <g id="patch_7">
    <path d="M 82.520165 41.472 
L 389.799835 41.472 
" style="fill:none;stroke:#000000;stroke-linecap:square;stroke-linejoin:miter;stroke-width:0.8;"/>
   </g>
  </g>
 </g>
 <defs>
  <clipPath id="p38764d16bb">
   <rect height="266.112" width="307.27967" x="82.520165" y="41.472"/>
  </clipPath>
 </defs>
</svg>
