<?xml version="1.0" encoding="utf-8" standalone="no"?>
<!DOCTYPE svg PUBLIC "-//W3C//DTD SVG 1.1//EN"
  "http://www.w3.org/Graphics/SVG/1.1/DTD/svg11.dtd">
<!-- Created with matplotlib (http://matplotlib.org/) -->
<svg height="345.6pt" version="1.1" viewBox="0 0 460.8 345.6" width="460.8pt" xmlns="http://www.w3.org/2000/svg" xmlns:xlink="http://www.w3.org/1999/xlink">
 <defs>
  <style type="text/css">
*{stroke-linecap:butt;stroke-linejoin:round;}
  </style>
 </defs>
 <g id="figure_1">
  <g id="patch_1">
   <path d="M 0 345.6 
L 460.8 345.6 
L 460.8 0 
L 0 0 
z
" style="fill:#ffffff;"/>
  </g>
  <g id="axes_1">
   <g id="patch_2">
    <path d="M 82.520165 307.584 
L 389.799835 307.584 
L 389.799835 41.472 
L 82.520165 41.472 
z
" style="fill:#ffffff;"/>
   </g>
   <g id="PathCollection_1">
    <defs>
     <path d="M 0 2.738613 
C 0.726289 2.738613 1.422928 2.450055 1.936492 1.936492 
C 2.450055 1.422928 2.738613 0.726289 2.738613 0 
C 2.738613 -0.726289 2.450055 -1.422928 1.936492 -1.936492 
C 1.422928 -2.450055 0.726289 -2.738613 0 -2.738613 
C -0.726289 -2.738613 -1.422928 -2.450055 -1.936492 -1.936492 
C -2.450055 -1.422928 -2.738613 -0.726289 -2.738613 0 
C -2.738613 0.726289 -2.450055 1.422928 -1.936492 1.936492 
C -1.422928 2.450055 -0.726289 2.738613 0 2.738613 
z
" id="m9055774882" style="stroke:#000000;"/>
    </defs>
    <g clip-path="url(#p246a323262)">
     <use style="stroke:#000000;" x="136.820364" xlink:href="#m9055774882" y="124.829298"/>
    </g>
   </g>
   <g id="Quiver_1">
    <path clip-path="url(#p246a323262)" d="M 137.58296 124.73669 
L 139.712929 142.276416 
L 141.145515 141.328605 
L 139.783798 149.232395 
L 136.569934 141.884249 
L 138.187735 142.461631 
L 136.057767 124.921905 
L 137.58296 124.73669 
"/>
   </g>
   <g id="patch_3">
    <path clip-path="url(#p246a323262)" d="M 236.16 225.741278 
C 249.74192 225.741278 262.769389 220.345124 272.373256 210.741256 
C 281.977124 201.137389 287.373278 188.10992 287.373278 174.528 
C 287.373278 160.94608 281.977124 147.918611 272.373256 138.314744 
C 262.769389 128.710876 249.74192 123.314722 236.16 123.314722 
C 222.57808 123.314722 209.550611 128.710876 199.946744 138.314744 
C 190.342876 147.918611 184.946722 160.94608 184.946722 174.528 
C 184.946722 188.10992 190.342876 201.137389 199.946744 210.741256 
C 209.550611 220.345124 222.57808 225.741278 236.16 225.741278 
z
" style="fill:#009900;fill-opacity:0.5;stroke:#009900;stroke-linejoin:miter;stroke-width:2;"/>
   </g>
   <g id="matplotlib.axis_1">
    <g id="xtick_1">
     <g id="line2d_1">
      <defs>
       <path d="M 0 0 
L 0 3.5 
" id="m453773b16d" style="stroke:#000000;stroke-width:0.8;"/>
      </defs>
      <g>
       <use style="stroke:#000000;stroke-width:0.8;" x="108.126804" xlink:href="#m453773b16d" y="307.584"/>
      </g>
     </g>
     <g id="text_1">
      <!-- −2 -->
      <defs>
       <path d="M 10.59375 35.5 
L 73.1875 35.5 
L 73.1875 27.203125 
L 10.59375 27.203125 
z
" id="DejaVuSans-2212"/>
       <path d="M 19.1875 8.296875 
L 53.609375 8.296875 
L 53.609375 0 
L 7.328125 0 
L 7.328125 8.296875 
Q 12.9375 14.109375 22.625 23.890625 
Q 32.328125 33.6875 34.8125 36.53125 
Q 39.546875 41.84375 41.421875 45.53125 
Q 43.3125 49.21875 43.3125 52.78125 
Q 43.3125 58.59375 39.234375 62.25 
Q 35.15625 65.921875 28.609375 65.921875 
Q 23.96875 65.921875 18.8125 64.3125 
Q 13.671875 62.703125 7.8125 59.421875 
L 7.8125 69.390625 
Q 13.765625 71.78125 18.9375 73 
Q 24.125 74.21875 28.421875 74.21875 
Q 39.75 74.21875 46.484375 68.546875 
Q 53.21875 62.890625 53.21875 53.421875 
Q 53.21875 48.921875 51.53125 44.890625 
Q 49.859375 40.875 45.40625 35.40625 
Q 44.1875 33.984375 37.640625 27.21875 
Q 31.109375 20.453125 19.1875 8.296875 
z
" id="DejaVuSans-32"/>
      </defs>
      <g transform="translate(100.755711 322.182437)scale(0.1 -0.1)">
       <use xlink:href="#DejaVuSans-2212"/>
       <use x="83.789062" xlink:href="#DejaVuSans-32"/>
      </g>
     </g>
    </g>
    <g id="xtick_2">
     <g id="line2d_2">
      <g>
       <use style="stroke:#000000;stroke-width:0.8;" x="172.143402" xlink:href="#m453773b16d" y="307.584"/>
      </g>
     </g>
     <g id="text_2">
      <!-- −1 -->
      <defs>
       <path d="M 12.40625 8.296875 
L 28.515625 8.296875 
L 28.515625 63.921875 
L 10.984375 60.40625 
L 10.984375 69.390625 
L 28.421875 72.90625 
L 38.28125 72.90625 
L 38.28125 8.296875 
L 54.390625 8.296875 
L 54.390625 0 
L 12.40625 0 
z
" id="DejaVuSans-31"/>
      </defs>
      <g transform="translate(164.772308 322.182437)scale(0.1 -0.1)">
       <use xlink:href="#DejaVuSans-2212"/>
       <use x="83.789062" xlink:href="#DejaVuSans-31"/>
      </g>
     </g>
    </g>
    <g id="xtick_3">
     <g id="line2d_3">
      <g>
       <use style="stroke:#000000;stroke-width:0.8;" x="236.16" xlink:href="#m453773b16d" y="307.584"/>
      </g>
     </g>
     <g id="text_3">
      <!-- 0 -->
      <defs>
       <path d="M 31.78125 66.40625 
Q 24.171875 66.40625 20.328125 58.90625 
Q 16.5 51.421875 16.5 36.375 
Q 16.5 21.390625 20.328125 13.890625 
Q 24.171875 6.390625 31.78125 6.390625 
Q 39.453125 6.390625 43.28125 13.890625 
Q 47.125 21.390625 47.125 36.375 
Q 47.125 51.421875 43.28125 58.90625 
Q 39.453125 66.40625 31.78125 66.40625 
z
M 31.78125 74.21875 
Q 44.046875 74.21875 50.515625 64.515625 
Q 56.984375 54.828125 56.984375 36.375 
Q 56.984375 17.96875 50.515625 8.265625 
Q 44.046875 -1.421875 31.78125 -1.421875 
Q 19.53125 -1.421875 13.0625 8.265625 
Q 6.59375 17.96875 6.59375 36.375 
Q 6.59375 54.828125 13.0625 64.515625 
Q 19.53125 74.21875 31.78125 74.21875 
z
" id="DejaVuSans-30"/>
      </defs>
      <g transform="translate(232.97875 322.182437)scale(0.1 -0.1)">
       <use xlink:href="#DejaVuSans-30"/>
      </g>
     </g>
    </g>
    <g id="xtick_4">
     <g id="line2d_4">
      <g>
       <use style="stroke:#000000;stroke-width:0.8;" x="300.176598" xlink:href="#m453773b16d" y="307.584"/>
      </g>
     </g>
     <g id="text_4">
      <!-- 1 -->
      <g transform="translate(296.995348 322.182437)scale(0.1 -0.1)">
       <use xlink:href="#DejaVuSans-31"/>
      </g>
     </g>
    </g>
    <g id="xtick_5">
     <g id="line2d_5">
      <g>
       <use style="stroke:#000000;stroke-width:0.8;" x="364.193196" xlink:href="#m453773b16d" y="307.584"/>
      </g>
     </g>
     <g id="text_5">
      <!-- 2 -->
      <g transform="translate(361.011946 322.182437)scale(0.1 -0.1)">
       <use xlink:href="#DejaVuSans-32"/>
      </g>
     </g>
    </g>
   </g>
   <g id="matplotlib.axis_2">
    <g id="ytick_1">
     <g id="line2d_6">
      <defs>
       <path d="M 0 0 
L -3.5 0 
" id="md6398ec562" style="stroke:#000000;stroke-width:0.8;"/>
      </defs>
      <g>
       <use style="stroke:#000000;stroke-width:0.8;" x="82.520165" xlink:href="#md6398ec562" y="302.561196"/>
      </g>
     </g>
     <g id="text_6">
      <!-- −2.0 -->
      <defs>
       <path d="M 10.6875 12.40625 
L 21 12.40625 
L 21 0 
L 10.6875 0 
z
" id="DejaVuSans-2e"/>
      </defs>
      <g transform="translate(51.237353 306.360414)scale(0.1 -0.1)">
       <use xlink:href="#DejaVuSans-2212"/>
       <use x="83.789062" xlink:href="#DejaVuSans-32"/>
       <use x="147.412109" xlink:href="#DejaVuSans-2e"/>
       <use x="179.199219" xlink:href="#DejaVuSans-30"/>
      </g>
     </g>
    </g>
    <g id="ytick_2">
     <g id="line2d_7">
      <g>
       <use style="stroke:#000000;stroke-width:0.8;" x="82.520165" xlink:href="#md6398ec562" y="270.552897"/>
      </g>
     </g>
     <g id="text_7">
      <!-- −1.5 -->
      <defs>
       <path d="M 10.796875 72.90625 
L 49.515625 72.90625 
L 49.515625 64.59375 
L 19.828125 64.59375 
L 19.828125 46.734375 
Q 21.96875 47.46875 24.109375 47.828125 
Q 26.265625 48.1875 28.421875 48.1875 
Q 40.625 48.1875 47.75 41.5 
Q 54.890625 34.8125 54.890625 23.390625 
Q 54.890625 11.625 47.5625 5.09375 
Q 40.234375 -1.421875 26.90625 -1.421875 
Q 22.3125 -1.421875 17.546875 -0.640625 
Q 12.796875 0.140625 7.71875 1.703125 
L 7.71875 11.625 
Q 12.109375 9.234375 16.796875 8.0625 
Q 21.484375 6.890625 26.703125 6.890625 
Q 35.15625 6.890625 40.078125 11.328125 
Q 45.015625 15.765625 45.015625 23.390625 
Q 45.015625 31 40.078125 35.4375 
Q 35.15625 39.890625 26.703125 39.890625 
Q 22.75 39.890625 18.8125 39.015625 
Q 14.890625 38.140625 10.796875 36.28125 
z
" id="DejaVuSans-35"/>
      </defs>
      <g transform="translate(51.237353 274.352116)scale(0.1 -0.1)">
       <use xlink:href="#DejaVuSans-2212"/>
       <use x="83.789062" xlink:href="#DejaVuSans-31"/>
       <use x="147.412109" xlink:href="#DejaVuSans-2e"/>
       <use x="179.199219" xlink:href="#DejaVuSans-35"/>
      </g>
     </g>
    </g>
    <g id="ytick_3">
     <g id="line2d_8">
      <g>
       <use style="stroke:#000000;stroke-width:0.8;" x="82.520165" xlink:href="#md6398ec562" y="238.544598"/>
      </g>
     </g>
     <g id="text_8">
      <!-- −1.0 -->
      <g transform="translate(51.237353 242.343817)scale(0.1 -0.1)">
       <use xlink:href="#DejaVuSans-2212"/>
       <use x="83.789062" xlink:href="#DejaVuSans-31"/>
       <use x="147.412109" xlink:href="#DejaVuSans-2e"/>
       <use x="179.199219" xlink:href="#DejaVuSans-30"/>
      </g>
     </g>
    </g>
    <g id="ytick_4">
     <g id="line2d_9">
      <g>
       <use style="stroke:#000000;stroke-width:0.8;" x="82.520165" xlink:href="#md6398ec562" y="206.536299"/>
      </g>
     </g>
     <g id="text_9">
      <!-- −0.5 -->
      <g transform="translate(51.237353 210.335518)scale(0.1 -0.1)">
       <use xlink:href="#DejaVuSans-2212"/>
       <use x="83.789062" xlink:href="#DejaVuSans-30"/>
       <use x="147.412109" xlink:href="#DejaVuSans-2e"/>
       <use x="179.199219" xlink:href="#DejaVuSans-35"/>
      </g>
     </g>
    </g>
    <g id="ytick_5">
     <g id="line2d_10">
      <g>
       <use style="stroke:#000000;stroke-width:0.8;" x="82.520165" xlink:href="#md6398ec562" y="174.528"/>
      </g>
     </g>
     <g id="text_10">
      <!-- 0.0 -->
      <g transform="translate(59.61704 178.327219)scale(0.1 -0.1)">
       <use xlink:href="#DejaVuSans-30"/>
       <use x="63.623047" xlink:href="#DejaVuSans-2e"/>
       <use x="95.410156" xlink:href="#DejaVuSans-30"/>
      </g>
     </g>
    </g>
    <g id="ytick_6">
     <g id="line2d_11">
      <g>
       <use style="stroke:#000000;stroke-width:0.8;" x="82.520165" xlink:href="#md6398ec562" y="142.519701"/>
      </g>
     </g>
     <g id="text_11">
      <!-- 0.5 -->
      <g transform="translate(59.61704 146.31892)scale(0.1 -0.1)">
       <use xlink:href="#DejaVuSans-30"/>
       <use x="63.623047" xlink:href="#DejaVuSans-2e"/>
       <use x="95.410156" xlink:href="#DejaVuSans-35"/>
      </g>
     </g>
    </g>
    <g id="ytick_7">
     <g id="line2d_12">
      <g>
       <use style="stroke:#000000;stroke-width:0.8;" x="82.520165" xlink:href="#md6398ec562" y="110.511402"/>
      </g>
     </g>
     <g id="text_12">
      <!-- 1.0 -->
      <g transform="translate(59.61704 114.310621)scale(0.1 -0.1)">
       <use xlink:href="#DejaVuSans-31"/>
       <use x="63.623047" xlink:href="#DejaVuSans-2e"/>
       <use x="95.410156" xlink:href="#DejaVuSans-30"/>
      </g>
     </g>
    </g>
    <g id="ytick_8">
     <g id="line2d_13">
      <g>
       <use style="stroke:#000000;stroke-width:0.8;" x="82.520165" xlink:href="#md6398ec562" y="78.503103"/>
      </g>
     </g>
     <g id="text_13">
      <!-- 1.5 -->
      <g transform="translate(59.61704 82.302322)scale(0.1 -0.1)">
       <use xlink:href="#DejaVuSans-31"/>
       <use x="63.623047" xlink:href="#DejaVuSans-2e"/>
       <use x="95.410156" xlink:href="#DejaVuSans-35"/>
      </g>
     </g>
    </g>
    <g id="ytick_9">
     <g id="line2d_14">
      <g>
       <use style="stroke:#000000;stroke-width:0.8;" x="82.520165" xlink:href="#md6398ec562" y="46.494804"/>
      </g>
     </g>
     <g id="text_14">
      <!-- 2.0 -->
      <g transform="translate(59.61704 50.294023)scale(0.1 -0.1)">
       <use xlink:href="#DejaVuSans-32"/>
       <use x="63.623047" xlink:href="#DejaVuSans-2e"/>
       <use x="95.410156" xlink:href="#DejaVuSans-30"/>
      </g>
     </g>
    </g>
   </g>
   <g id="line2d_15">
    <path clip-path="url(#p246a323262)" d="M 300.176598 63.648 
L 172.143402 63.648 
" style="fill:none;stroke:#009900;stroke-linecap:square;stroke-width:2;"/>
   </g>
   <g id="line2d_16">
    <path clip-path="url(#p246a323262)" d="M 172.143402 63.648 
L 108.126804 174.528 
" style="fill:none;stroke:#009900;stroke-linecap:square;stroke-width:2;"/>
   </g>
   <g id="line2d_17">
    <path clip-path="url(#p246a323262)" d="M 108.126804 174.528 
L 172.143402 285.408 
" style="fill:none;stroke:#009900;stroke-linecap:square;stroke-width:2;"/>
   </g>
   <g id="line2d_18">
    <path clip-path="url(#p246a323262)" d="M 172.143402 285.408 
L 300.176598 285.408 
" style="fill:none;stroke:#009900;stroke-linecap:square;stroke-width:2;"/>
   </g>
   <g id="line2d_19">
    <path clip-path="url(#p246a323262)" d="M 300.176598 285.408 
L 364.193196 174.528 
" style="fill:none;stroke:#009900;stroke-linecap:square;stroke-width:2;"/>
   </g>
   <g id="line2d_20">
    <path clip-path="url(#p246a323262)" d="M 364.193196 174.528 
L 300.176598 63.648 
" style="fill:none;stroke:#009900;stroke-linecap:square;stroke-width:2;"/>
   </g>
   <g id="line2d_21">
    <path clip-path="url(#p246a323262)" d="M 186.064373 229.925355 
L 187.785587 234.748417 
L 189.698295 239.49879 
L 191.799437 244.168876 
L 194.085653 248.751203 
L 196.553284 253.238441 
L 199.198382 257.62341 
L 202.016717 261.899096 
L 205.003779 266.058658 
L 208.154791 270.095443 
L 211.46471 274.002992 
L 214.928241 277.775054 
L 218.539845 281.405594 
L 222.293742 284.888804 
L 222.879826 285.408 
L 226.654954 281.947811 
L 230.288692 278.339425 
L 233.775227 274.588615 
L 237.10898 270.701381 
L 240.284619 266.683941 
L 243.297063 262.542724 
L 246.141493 258.284353 
L 248.813358 253.915642 
L 251.308384 249.443579 
L 253.622579 244.875319 
L 255.752242 240.218169 
L 257.693965 235.479582 
L 259.444642 230.667136 
L 261.001472 225.788531 
L 262.361964 220.851573 
L 263.021816 218.131242 
L 268.019948 219.246219 
L 273.05867 220.160432 
L 278.12992 220.872418 
L 283.225585 221.38104 
L 288.337514 221.685481 
L 293.457529 221.785257 
L 298.577437 221.680207 
L 303.68905 221.3705 
L 308.784189 220.85663 
L 313.854703 220.13942 
L 318.89248 219.220017 
L 323.889461 218.099892 
L 328.837653 216.780837 
L 333.729138 215.264963 
L 338.556091 213.554693 
L 342.582762 211.95837 
L 341.821286 206.894314 
L 340.85791 201.864761 
L 339.694177 196.877755 
L 338.331948 191.941275 
L 336.773402 187.063219 
L 335.021032 182.251389 
L 333.077642 177.513485 
L 330.946341 172.857085 
L 328.630539 168.289639 
L 326.133939 163.818455 
L 323.460537 159.450684 
L 320.61461 155.193314 
L 317.600709 151.053156 
L 314.423657 147.036834 
L 311.088536 143.150773 
L 307.600682 139.40119 
L 303.965675 135.794083 
L 300.189329 132.335222 
L 296.277686 129.030142 
L 292.237005 125.88413 
L 288.073748 122.902218 
L 283.794578 120.089177 
L 279.406338 117.449508 
L 274.91605 114.987433 
L 270.330897 112.70689 
L 265.658214 110.61153 
L 260.905476 108.704703 
L 256.080288 106.989459 
L 251.190368 105.468544 
L 246.243539 104.144391 
L 241.247714 103.019116 
L 236.210887 102.094522 
L 231.141115 101.372086 
L 226.046509 100.852966 
L 220.935218 100.53799 
L 215.81542 100.427663 
L 210.695306 100.522162 
L 205.583066 100.821336 
L 200.486879 101.324705 
L 195.414898 102.031464 
L 190.375237 102.940484 
L 185.375958 104.050309 
L 180.425059 105.359164 
L 175.53046 106.864955 
L 170.699992 108.565274 
L 165.941383 110.457399 
L 161.262245 112.538305 
L 156.670064 114.804662 
L 152.172186 117.252844 
L 147.775807 119.878935 
L 143.487961 122.678734 
L 139.315506 125.647762 
L 135.265118 128.781268 
L 133.889167 129.906278 
L 133.130291 134.970723 
L 132.574544 140.061465 
L 132.222818 145.170358 
L 132.075674 150.28923 
L 132.133349 155.409892 
L 132.395749 160.524151 
L 132.862455 165.623826 
L 133.53272 170.700759 
L 134.405472 175.746827 
L 135.479315 180.753959 
L 136.752531 185.714142 
L 138.223083 190.619443 
L 139.888619 195.462014 
L 141.746473 200.234108 
L 143.793674 204.92809 
L 146.026947 209.536452 
L 148.442719 214.05182 
L 151.037125 218.466971 
L 153.806014 222.774842 
L 156.744958 226.968541 
L 159.849254 231.041359 
L 163.113937 234.986781 
L 166.533782 238.798494 
L 170.10332 242.470401 
L 173.81684 245.996627 
L 177.668401 249.371531 
L 181.651841 252.589715 
L 185.760788 255.646029 
L 189.988669 258.535585 
L 194.328718 261.253759 
L 198.773994 263.796203 
L 203.317385 266.15885 
L 207.951623 268.337919 
L 212.669293 270.329926 
L 217.462849 272.131683 
L 222.324621 273.740307 
L 227.246832 275.153226 
L 232.221608 276.368178 
L 237.240989 277.383221 
L 242.296946 278.19673 
L 247.381391 278.807404 
L 252.486189 279.214266 
L 257.603175 279.416665 
L 262.72416 279.414277 
L 267.840955 279.207107 
L 272.945371 278.795485 
L 278.029244 278.18007 
L 283.084441 277.361846 
L 288.102874 276.342123 
L 293.076514 275.122532 
L 297.997406 273.705024 
L 302.857676 272.091867 
L 307.649549 270.285641 
L 309.29516 269.614186 
L 308.533684 264.550131 
L 307.570309 259.520577 
L 306.406576 254.533572 
L 305.044347 249.597092 
L 303.485801 244.719035 
L 301.733431 239.907206 
L 299.790041 235.169301 
L 297.65874 230.512902 
L 295.342937 225.945456 
L 292.846338 221.474271 
L 290.172936 217.1065 
L 287.327008 212.84913 
L 284.313108 208.708973 
L 281.136056 204.692651 
L 279.157371 202.349321 
L 284.091457 203.720197 
L 289.076417 204.892665 
L 294.104275 205.864849 
L 299.166988 206.635196 
L 304.256458 207.202472 
L 309.364541 207.565769 
L 314.483067 207.724507 
L 319.603846 207.678432 
L 324.718687 207.427617 
L 329.819406 206.972463 
L 334.897844 206.3137 
L 339.945876 205.452379 
L 344.955427 204.389881 
L 347.278247 203.825551 
L 345.784811 198.927169 
L 344.096687 194.092426 
L 342.216575 189.329057 
L 340.147483 184.644683 
L 337.892721 180.046798 
L 335.455896 175.542756 
L 332.840907 171.139765 
L 330.051937 166.844867 
L 327.093448 162.664934 
L 323.970172 158.606652 
L 320.687107 154.676514 
L 317.249504 150.880807 
L 313.662863 147.225604 
L 309.932922 143.716753 
L 306.065648 140.359865 
L 302.067227 137.160313 
L 297.944057 134.123214 
L 293.702734 131.253427 
L 289.350042 128.555544 
L 284.892945 126.033879 
L 280.338574 123.692469 
L 275.694214 121.535057 
L 270.967296 119.565096 
L 266.165382 117.785737 
L 261.296153 116.199826 
L 256.367399 114.809901 
L 251.387006 113.618186 
L 246.362941 112.626587 
L 241.303241 111.836689 
L 236.216 111.249758 
L 231.109358 110.866732 
L 225.991484 110.688223 
L 220.870565 110.714517 
L 215.754794 110.945572 
L 210.652355 111.381019 
L 205.57141 112.020161 
L 200.520088 112.861975 
L 195.506471 113.905114 
L 190.538578 115.147911 
L 185.624357 116.588376 
L 180.771671 118.224205 
L 175.988282 120.052781 
L 171.281843 122.07118 
L 166.659883 124.276171 
L 162.129796 126.664228 
L 157.698829 129.231529 
L 153.374072 131.973968 
L 149.162442 134.887158 
L 145.070677 137.966438 
L 141.105324 141.206882 
L 137.272726 144.603306 
L 133.579014 148.150275 
L 130.030098 151.842117 
L 126.631655 155.672925 
L 123.389121 159.636569 
L 120.307685 163.72671 
L 117.392276 167.936804 
L 114.647557 172.260116 
L 112.077921 176.689728 
L 110.771917 179.109469 
L 115.891938 179.208881 
L 121.01184 179.103467 
L 126.12343 178.793396 
L 131.218532 178.279164 
L 136.288995 177.561594 
L 141.326707 176.641833 
L 146.323609 175.521353 
L 151.271706 174.201946 
L 156.163084 172.685724 
L 160.989916 170.975112 
L 165.74448 169.072846 
L 170.419172 166.98197 
L 175.006511 164.705828 
L 179.49916 162.248063 
L 183.88993 159.612605 
L 188.091325 156.858751 
L 186.644316 151.946453 
L 185.002025 147.09595 
L 183.16708 142.315001 
L 181.142415 137.611254 
L 178.93127 132.992235 
L 176.537182 128.465332 
L 173.963981 124.037789 
L 171.215784 119.716688 
L 168.296988 115.508942 
L 165.212261 111.421282 
L 161.966539 107.460248 
L 158.565014 103.632177 
L 155.013127 99.943192 
L 152.562841 97.562527 
L 157.49891 98.926243 
L 162.485565 100.091478 
L 167.514829 101.056368 
L 172.578654 101.819369 
L 177.668941 102.379261 
L 182.777547 102.735148 
L 187.896297 102.886461 
L 193.017004 102.832957 
L 198.131475 102.574722 
L 203.231529 102.11217 
L 208.309006 101.446039 
L 213.355783 100.577397 
L 218.363787 99.507632 
L 223.325006 98.238456 
L 228.231504 96.7719 
L 233.075429 95.110309 
L 237.849035 93.256342 
L 242.544683 91.212964 
L 247.154861 88.983445 
L 251.672195 86.571352 
L 256.089458 83.980543 
L 260.399583 81.215162 
L 264.595674 78.279635 
L 268.671019 75.178657 
L 272.619098 71.917189 
L 276.433595 68.500449 
L 280.108408 64.933903 
L 281.363643 63.648 
L 284.988038 67.265771 
L 288.754205 70.735711 
L 292.656121 74.052269 
L 296.687542 77.210139 
L 300.84202 80.204269 
L 305.112908 83.029869 
L 309.493374 85.68242 
L 313.976409 88.157676 
L 314.479243 88.420907 
L 314.358664 93.540474 
L 314.44291 98.660767 
L 314.731845 103.773596 
L 315.225009 108.870781 
L 315.92161 113.944167 
L 316.820536 118.985639 
L 317.920348 123.98713 
L 319.219286 128.94064 
L 320.715273 133.838244 
L 322.405915 138.672107 
L 324.288508 143.434495 
L 326.36004 148.117791 
L 328.617197 152.714501 
L 331.056367 157.217273 
L 333.673649 161.618901 
L 336.464856 165.912346 
L 339.425523 170.090738 
L 342.550912 174.147392 
L 345.836024 178.075819 
L 349.275603 181.869735 
L 352.864148 185.523069 
L 356.087108 188.568156 
L 351.176289 187.116139 
L 346.211332 185.861663 
L 341.200181 184.806737 
L 336.150853 183.953047 
L 331.071425 183.301959 
L 325.970024 182.854515 
L 320.85481 182.611431 
L 315.733967 182.573094 
L 310.615687 182.739568 
L 305.508159 183.110585 
L 300.419552 183.685552 
L 295.358009 184.463549 
L 290.331626 185.443332 
L 285.962316 186.466559 
L 289.885245 189.758234 
L 293.936669 192.890401 
L 298.110105 195.85805 
L 302.398876 198.656431 
L 306.796123 201.281069 
L 311.29481 203.727764 
L 315.88774 205.992603 
L 320.567566 208.071962 
L 325.3268 209.962514 
L 330.15783 211.661236 
L 335.052926 213.165409 
L 340.004257 214.472628 
L 340.994752 214.708883 
L 337.416021 211.045935 
L 333.693674 207.529028 
L 329.833665 204.163789 
L 325.842171 200.955601 
L 321.725575 197.909596 
L 317.490465 195.030647 
L 313.143616 192.323361 
L 308.69198 189.792068 
L 304.142681 187.440817 
L 299.502996 185.273371 
L 294.780348 183.293196 
L 289.982291 181.503461 
L 287.023076 180.506912 
L 292.119182 180.002729 
L 297.191051 179.295161 
L 302.230567 178.385337 
L 307.229669 177.274715 
L 312.180359 175.96507 
L 317.074717 174.458498 
L 321.904914 172.757409 
L 326.663221 170.864524 
L 331.342027 168.782872 
L 335.933847 166.515783 
L 340.431334 164.066883 
L 344.827294 161.440091 
L 349.114694 158.639608 
L 353.299834 155.660144 
L 348.641742 157.787743 
L 344.072456 160.099914 
L 339.599288 162.592958 
L 335.229393 165.262887 
L 330.969763 168.105429 
L 326.82721 171.116038 
L 322.808364 174.289896 
L 318.919653 177.621927 
L 315.167298 181.106799 
L 311.557302 184.738938 
L 308.095441 188.512532 
L 304.787252 192.421546 
L 301.638029 196.459726 
L 298.652808 200.62061 
L 295.836367 204.897544 
L 293.19321 209.283684 
L 290.727566 213.772013 
L 288.44338 218.355352 
L 286.344305 223.026368 
L 284.4337 227.777588 
L 282.714622 232.601411 
L 281.18982 237.490121 
L 279.861734 242.435895 
L 278.732489 247.430824 
L 277.803891 252.466914 
L 277.077425 257.53611 
L 276.554255 262.630302 
L 276.235216 267.741341 
L 276.120819 272.86105 
L 276.211248 277.981238 
L 276.506357 283.093714 
L 276.707583 285.408 
L 277.0954 280.30172 
L 277.27871 275.184015 
L 277.25722 270.063074 
L 277.030964 264.947088 
L 276.600304 259.844242 
L 275.965929 254.7627 
L 275.128855 249.710591 
L 274.090419 244.695997 
L 272.852283 239.726941 
L 271.416429 234.811371 
L 269.785153 229.957152 
L 267.961065 225.17205 
L 265.947082 220.463719 
L 264.432173 217.230273 
L 267.875916 221.02041 
L 271.468469 224.669802 
L 275.204085 228.172612 
L 279.076788 231.523235 
L 283.080382 234.716311 
L 287.208463 237.746731 
L 291.454426 240.609649 
L 295.81148 243.300483 
L 300.272652 245.814929 
L 304.830808 248.148965 
L 309.478654 250.298856 
L 314.208754 252.261163 
L 318.412247 253.822928 
L 314.459374 250.567273 
L 310.37947 247.472295 
L 306.179065 244.542945 
L 301.864876 241.783909 
L 297.443806 239.199602 
L 292.922928 236.794158 
L 288.309473 234.571425 
L 283.610824 232.534959 
L 278.834496 230.688017 
L 273.98813 229.033555 
L 269.079481 227.57422 
L 264.1164 226.312345 
L 259.106827 225.24995 
L 254.058777 224.388735 
L 249.9748 223.842817 
L 246.002738 227.075033 
L 242.163106 230.463503 
L 238.462049 234.002808 
L 234.905486 237.687284 
L 231.499108 241.511037 
L 228.248364 245.467951 
L 225.158455 249.551695 
L 222.234324 253.755735 
L 219.480648 258.073347 
L 216.901833 262.497623 
L 214.502005 267.021485 
L 212.285003 271.637696 
L 210.254374 276.338871 
L 208.413365 281.117489 
L 206.94365 285.408 
L 205.27304 280.567177 
L 203.410186 275.797033 
L 201.358067 271.105199 
L 199.119966 266.49918 
L 196.699463 261.986346 
L 194.100432 257.573916 
L 191.327029 253.26895 
L 188.383692 249.078333 
L 185.27513 245.00877 
L 182.006314 241.066772 
L 178.582476 237.258645 
L 175.009092 233.590481 
L 171.291879 230.068148 
L 167.436783 226.697282 
L 163.449973 223.483274 
L 159.337825 220.431268 
L 155.106919 217.546145 
L 150.764023 214.83252 
L 146.316085 212.294736 
L 141.77022 209.936852 
L 137.133702 207.76264 
L 132.413947 205.775579 
L 127.618506 203.978846 
L 124.527456 202.934762 
L 125.497599 197.90651 
L 126.265888 192.843483 
L 126.831097 187.753784 
L 127.192319 182.645553 
L 127.348978 177.526964 
L 127.300823 172.406204 
L 127.04793 167.291465 
L 126.590705 162.190932 
L 125.929878 157.112762 
L 125.066507 152.06508 
L 123.997889 147.038475 
L 128.868402 145.456511 
L 133.671757 143.681045 
L 138.40027 141.714916 
L 143.046377 139.561269 
L 147.602645 137.223551 
L 152.061784 134.7055 
L 156.416661 132.011145 
L 160.660309 129.144797 
L 164.78594 126.111041 
L 168.786952 122.914731 
L 172.656946 119.560979 
L 176.38973 116.055152 
L 179.979332 112.402857 
L 183.420011 108.609938 
L 186.706261 104.682463 
L 189.832825 100.626714 
L 192.794701 96.44918 
L 195.587151 92.156544 
L 198.205708 87.755673 
L 200.646183 83.253609 
L 202.904671 78.657552 
L 204.977559 73.974857 
L 206.861531 69.213014 
L 208.553574 64.379641 
L 208.790957 63.648 
L 210.453932 68.491451 
L 212.309262 73.264527 
L 214.353981 77.959591 
L 216.584816 82.569133 
L 218.9982 87.085777 
L 221.59027 91.5023 
L 224.356882 95.811635 
L 227.293607 100.006887 
L 230.395749 104.081346 
L 233.658345 108.028494 
L 237.076174 111.842015 
L 240.64377 115.515809 
L 244.355424 119.043998 
L 248.2052 122.420939 
L 252.186938 125.641229 
L 252.751114 126.076635 
L 257.87155 126.001515 
L 262.984885 125.721693 
L 268.082941 125.237616 
L 273.157561 124.550059 
L 278.200626 123.66012 
L 283.20407 122.569225 
L 288.159888 121.279118 
L 293.06015 119.791863 
L 297.897019 118.109839 
L 302.662756 116.235738 
L 307.349736 114.172557 
L 311.950462 111.923597 
L 316.457574 109.492457 
L 320.863861 106.883024 
L 323.985375 104.886011 
L 323.413493 105.173696 
L 318.89167 107.577365 
L 314.469586 110.159936 
L 310.154314 112.917277 
L 305.952759 115.844978 
L 301.87164 118.938354 
L 297.917489 122.192457 
L 294.096629 125.602081 
L 290.415175 129.161772 
L 286.879015 132.865833 
L 283.493807 136.708341 
L 280.264965 140.683147 
L 277.523759 144.331323 
L 282.356756 142.638206 
L 287.11818 140.753175 
L 291.800414 138.679245 
L 296.395968 136.419735 
L 300.89749 133.978259 
L 305.297778 131.358723 
L 309.589792 128.565318 
L 313.766668 125.602513 
L 317.821721 122.475047 
L 321.748466 119.187924 
L 325.540619 115.746402 
L 328.555937 112.802457 
L 323.630607 114.204465 
L 318.765282 115.802312 
L 313.967746 117.593442 
L 309.245673 119.574989 
L 304.606618 121.743784 
L 300.058002 124.096357 
L 295.607103 126.628944 
L 291.26104 129.337494 
L 287.026767 132.217673 
L 282.911058 135.264875 
L 278.920496 138.474223 
L 275.359644 141.570637 
L 275.862796 141.174847 
L 279.815495 137.918979 
L 283.634832 134.507651 
L 287.314698 130.946318 
L 290.849204 127.240678 
L 294.232698 123.39666 
L 297.459765 119.420414 
L 300.525244 115.318299 
L 303.424229 111.096879 
L 306.152084 106.762908 
L 308.704445 102.323318 
L 311.077227 97.785212 
L 313.266636 93.15585 
L 314.948516 89.233713 
L 309.861452 88.645252 
L 304.754926 88.260691 
L 299.637105 88.080644 
L 294.516179 88.105399 
L 289.400338 88.334917 
L 284.297768 88.768831 
L 279.216632 89.406445 
L 274.165057 90.246741 
L 269.151126 91.288374 
L 264.18286 92.529677 
L 259.268207 93.968666 
L 254.415029 95.603036 
L 249.631091 97.430175 
L 244.924045 99.447159 
L 240.301423 101.650761 
L 235.770618 104.037456 
L 231.338881 106.603426 
L 227.013299 109.344566 
L 222.800794 112.25649 
L 218.708104 115.33454 
L 214.741777 118.573792 
L 210.908158 121.969063 
L 207.213381 125.514923 
L 203.663355 129.205698 
L 200.263761 133.035484 
L 197.020037 136.998154 
L 193.937371 141.087369 
L 191.020697 145.296586 
L 188.274679 149.619073 
L 185.703712 154.047913 
L 183.311907 158.576022 
L 181.103091 163.196156 
L 179.080798 167.900923 
L 177.248264 172.682797 
L 175.608419 177.534128 
L 174.163887 182.447154 
L 172.91698 187.414017 
L 171.869691 192.426769 
L 171.023697 197.477393 
L 170.380351 202.557807 
L 169.940681 207.659884 
L 169.705392 212.775462 
L 169.67486 217.896358 
L 169.849133 223.014378 
L 170.227933 228.121335 
L 170.810654 233.209059 
L 171.596364 238.269411 
L 172.583805 243.294296 
L 173.771398 248.275673 
L 175.157243 253.205575 
L 176.739123 258.076115 
L 178.514508 262.879501 
L 180.480556 267.608048 
L 182.634123 272.254191 
L 184.971764 276.810498 
L 187.489739 281.269681 
L 190.044255 285.408 
L 192.729762 281.047661 
L 195.238753 276.583418 
L 197.567216 272.022414 
L 199.711424 267.371943 
L 201.667948 262.639448 
L 203.433658 257.832497 
L 205.005728 252.958783 
L 206.381645 248.0261 
L 207.559206 243.042341 
L 208.536528 238.015479 
L 209.312048 232.953556 
L 209.884524 227.864668 
L 210.253041 222.756959 
L 210.397986 218.789931 
L 206.052697 221.499721 
L 201.819247 224.38111 
L 197.704407 227.429486 
L 193.714762 230.639974 
L 189.856693 234.007437 
L 186.136373 237.526488 
L 182.559753 241.191497 
L 179.132556 244.996602 
L 175.860263 248.935714 
L 172.74811 253.002531 
L 169.801076 257.190549 
L 167.023876 261.493067 
L 164.420952 265.903202 
L 162.702257 269.055457 
L 167.822372 269.149928 
L 172.942169 269.039575 
L 178.053458 268.724572 
L 183.148062 268.205424 
L 188.21783 267.482962 
L 193.254652 266.558341 
L 198.25047 265.43304 
L 203.197293 264.10886 
L 208.087205 262.587919 
L 212.912384 260.87265 
L 217.665111 258.965798 
L 222.337783 256.870412 
L 226.922924 254.589846 
L 231.413199 252.127747 
L 235.801425 249.488054 
L 240.080581 246.674991 
L 244.243821 243.693057 
L 248.284486 240.547023 
L 252.196111 237.241923 
L 255.972439 233.783042 
L 259.607427 230.175916 
L 263.095261 226.426314 
L 266.430361 222.540235 
L 269.607392 218.523896 
L 272.621271 214.383723 
L 275.467176 210.126338 
L 278.140555 205.758553 
L 280.637131 201.287354 
L 282.952909 196.719896 
L 285.084185 192.063486 
L 287.02755 187.325571 
L 288.779894 182.513732 
L 290.338415 177.635667 
L 291.700618 172.69918 
L 292.864324 167.712168 
L 293.827673 162.68261 
L 294.589122 157.61855 
L 295.147454 152.528092 
L 295.501775 147.419378 
L 295.651519 142.300581 
L 295.596445 137.179891 
L 295.336643 132.065499 
L 294.872527 126.965587 
L 294.204841 121.888315 
L 293.334652 116.841804 
L 292.263352 111.834128 
L 290.992656 106.873298 
L 289.524596 101.967251 
L 287.86152 97.123834 
L 286.00609 92.350798 
L 283.961273 87.655776 
L 281.730341 83.046281 
L 279.316863 78.529686 
L 276.7247 74.113218 
L 273.957999 69.803941 
L 271.021186 65.60875 
L 269.560397 63.648 
L 266.544006 67.786344 
L 263.695518 72.042001 
L 261.019488 76.408163 
L 258.5202 80.877845 
L 256.20165 85.443896 
L 254.067548 90.099013 
L 252.121309 94.835748 
L 250.366044 99.646522 
L 248.804564 104.52364 
L 247.439365 109.459299 
L 246.272632 114.445604 
L 245.306232 119.474577 
L 244.610885 124.016789 
L 244.855933 122.760132 
L 245.710114 117.710887 
L 246.361695 112.631522 
L 246.809635 107.530164 
L 247.053216 102.414974 
L 247.09205 97.294135 
L 246.926074 92.175839 
L 246.555553 87.068274 
L 245.98108 81.979612 
L 245.203575 76.917993 
L 244.224281 71.891515 
L 243.044765 66.908218 
L 242.157857 63.648 
L 240.847257 68.598437 
L 239.735671 73.597325 
L 238.824875 78.636666 
L 238.116328 83.708397 
L 237.611163 88.804407 
L 237.310189 93.916541 
L 237.213885 99.036622 
L 237.322408 104.156458 
L 237.635582 109.267859 
L 238.152908 114.362648 
L 238.873557 119.432675 
L 239.588709 123.429626 
L 241.135822 118.547932 
L 242.486483 113.608274 
L 243.63853 108.618555 
L 244.590119 103.586759 
L 245.339729 98.520933 
L 245.886161 93.429184 
L 246.22854 88.319655 
L 246.366318 83.200523 
L 246.299276 78.079975 
L 246.02752 72.966205 
L 245.551484 67.867392 
L 245.001096 63.648 
L 244.35589 68.728178 
L 243.914353 73.830094 
L 243.677192 78.945586 
L 243.644785 84.06647 
L 243.817185 89.184554 
L 244.194115 94.291649 
L 244.774974 99.379586 
L 245.558831 104.440226 
L 246.544433 109.465471 
L 247.730203 114.447283 
L 249.114243 119.377692 
L 250.69434 124.248811 
L 251.156708 125.559657 
L 255.227545 122.452763 
L 259.170882 119.185564 
L 262.980413 115.763287 
L 266.650042 112.191407 
L 270.173898 108.475638 
L 273.546344 104.621925 
L 276.761986 100.636432 
L 279.815678 96.525536 
L 282.702535 92.295813 
L 285.417939 87.95403 
L 287.957547 83.507132 
L 290.317294 78.962235 
L 292.493407 74.326608 
L 294.482403 69.607668 
L 296.281101 64.812964 
L 296.685448 63.648 
L 298.437883 68.459806 
L 300.381338 73.197683 
L 302.512702 77.854054 
L 304.828567 82.421468 
L 307.325227 86.892619 
L 309.998689 91.260354 
L 312.844674 95.517685 
L 315.858631 99.657801 
L 319.035738 103.67408 
L 322.370912 107.560096 
L 325.858817 111.309632 
L 329.493874 114.916689 
L 330.117618 115.507368 
L 331.390641 120.467601 
L 332.861002 125.372959 
L 334.52635 130.215595 
L 336.384019 134.987761 
L 338.431037 139.681823 
L 340.664131 144.290271 
L 343.079727 148.805733 
L 345.673962 153.220985 
L 348.442684 157.528963 
L 351.381465 161.722776 
L 354.485603 165.795715 
L 357.750132 169.741263 
L 361.169829 173.55311 
L 363.407334 175.889152 
L 358.424597 174.707275 
L 353.398583 173.725599 
L 348.337333 172.945696 
L 343.248944 172.368813 
L 338.141555 171.995872 
L 333.023339 171.827471 
L 327.902482 171.863879 
L 322.787177 172.105037 
L 317.685607 172.55056 
L 312.605935 173.199734 
L 307.556285 174.051523 
L 302.544737 175.104562 
L 297.579309 176.357167 
L 292.667943 177.807334 
L 287.818497 179.452744 
L 287.110302 179.711299 
L 291.513727 182.325558 
L 296.018172 184.761637 
L 300.616431 187.015637 
L 305.301147 189.083953 
L 310.064827 190.963275 
L 314.89985 192.650599 
L 319.79848 194.143223 
L 324.75288 195.43876 
L 329.755126 196.535138 
L 334.797213 197.430602 
L 339.871076 198.12372 
L 344.968598 198.613384 
L 350.121875 198.900243 
L 347.319524 194.614063 
L 344.348014 190.443376 
L 341.212098 186.394854 
L 337.916792 182.474974 
L 334.467369 178.690006 
L 330.869347 175.046006 
L 327.128482 171.548803 
L 323.250758 168.203992 
L 319.242379 165.016925 
L 315.109757 161.992699 
L 310.859505 159.136152 
L 306.498421 156.451856 
L 302.033482 153.944104 
L 297.471831 151.616907 
L 292.820766 149.473989 
L 288.087728 147.518779 
L 283.280287 145.754403 
L 278.406136 144.183685 
L 277.138094 143.809998 
L 277.050319 138.689763 
L 276.757859 133.577135 
L 276.261182 128.480292 
L 275.561083 123.407387 
L 274.658682 118.366536 
L 273.555423 113.365804 
L 272.25307 108.413191 
L 270.753707 103.516619 
L 269.059733 98.683923 
L 267.173858 93.922833 
L 265.099098 89.240966 
L 262.838774 84.645813 
L 260.3965 80.144724 
L 257.776184 75.744901 
L 254.982018 71.453382 
L 252.018472 67.277032 
L 249.230851 63.648 
L 246.119952 67.715778 
L 243.17421 71.904704 
L 240.398337 76.208078 
L 237.796773 80.619015 
L 235.37368 85.130459 
L 233.132935 89.735192 
L 231.078123 94.425847 
L 229.212531 99.194921 
L 227.539143 104.034784 
L 226.060636 108.937694 
L 224.779376 113.895806 
L 223.697413 118.901188 
L 222.816477 123.945834 
L 222.63943 125.131704 
L 219.348772 121.207921 
L 215.903837 117.418868 
L 212.310136 113.770606 
L 208.573418 110.268973 
L 204.69966 106.919569 
L 200.695061 103.727753 
L 196.566027 100.698632 
L 192.319162 97.837051 
L 187.961262 95.147588 
L 183.499299 92.634546 
L 178.940409 90.301945 
L 174.291887 88.153517 
L 169.561169 86.192699 
L 164.755823 84.422627 
L 160.88278 83.151969 
L 164.712085 86.552105 
L 168.674297 89.79639 
L 172.763075 92.879633 
L 176.97188 95.796903 
L 181.293978 98.543532 
L 185.722455 101.115126 
L 190.250226 103.507572 
L 194.870047 105.717041 
L 199.574528 107.739999 
L 204.356143 109.57321 
L 209.207242 111.213741 
L 214.120064 112.658967 
L 219.08675 113.906577 
L 224.099354 114.954575 
L 229.149858 115.801283 
L 234.230181 116.445348 
L 239.332196 116.885739 
L 244.447741 117.121752 
L 249.568632 117.153008 
L 254.686677 116.979459 
L 259.793688 116.601381 
L 264.881494 116.01938 
L 269.941957 115.234386 
L 274.966981 114.247655 
L 279.948527 113.060767 
L 284.878625 111.675619 
L 289.749388 110.094428 
L 294.553025 108.319723 
L 299.28185 106.354343 
L 303.928298 104.201433 
L 308.484936 101.864437 
L 312.944474 99.347093 
L 317.299778 96.653428 
L 318.701544 95.734148 
L 318.128694 96.019901 
L 313.598783 98.408291 
L 309.168006 100.975919 
L 304.843451 103.718677 
L 300.632035 106.632178 
L 296.540498 109.711759 
L 292.575383 112.952495 
L 288.743036 116.349201 
L 285.049585 119.896443 
L 281.500941 123.588547 
L 278.10278 127.419605 
L 274.860539 131.383488 
L 271.779404 135.473856 
L 270.81777 136.823374 
L 274.678521 133.458986 
L 278.401643 129.9429 
L 281.981182 126.280741 
L 285.41141 122.478369 
L 288.68684 118.541865 
L 291.802231 114.477528 
L 294.752601 110.291859 
L 297.533229 105.991555 
L 300.139666 101.583496 
L 302.567742 97.074733 
L 304.813575 92.472479 
L 306.873569 87.784097 
L 308.744431 83.017088 
L 309.742537 80.216693 
L 304.697843 79.336034 
L 299.621967 78.657813 
L 294.523029 78.183116 
L 289.409187 77.912702 
L 284.288622 77.847003 
L 279.169526 77.986124 
L 274.060088 78.329844 
L 268.968482 78.877611 
L 263.902853 79.628551 
L 258.871306 80.581461 
L 253.88189 81.734817 
L 248.942587 83.086773 
L 244.061299 84.635168 
L 239.245834 86.377524 
L 234.503897 88.311053 
L 229.843074 90.432662 
L 225.27082 92.738958 
L 220.794451 95.22625 
L 216.421128 97.89056 
L 212.157847 100.727624 
L 208.011429 103.732906 
L 203.988506 106.901595 
L 200.095515 110.228625 
L 196.338684 113.708671 
L 192.724022 117.336166 
L 189.257313 121.105308 
L 185.944102 125.010066 
L 182.789691 129.044194 
L 179.799124 133.201238 
L 176.977188 137.474548 
L 174.328395 141.857287 
L 171.856984 146.342443 
L 169.566908 150.922842 
L 167.461831 155.591156 
L 165.54512 160.339916 
L 163.819843 165.161525 
L 162.288758 170.048271 
L 160.954316 174.992335 
L 159.818651 179.985807 
L 158.88358 185.0207 
L 158.150599 190.088958 
L 157.620881 195.182473 
L 157.295273 200.293098 
L 157.174296 205.412655 
L 157.258143 210.532955 
L 157.54668 215.645806 
L 158.039446 220.743029 
L 158.735653 225.81647 
L 159.634186 230.858011 
L 160.733608 235.859588 
L 162.032161 240.813199 
L 163.527766 245.71092 
L 165.218032 250.544914 
L 167.100254 255.30745 
L 169.171421 259.990907 
L 171.42822 264.587793 
L 173.867039 269.090754 
L 176.483979 273.492586 
L 179.274851 277.786248 
L 182.235192 281.964871 
L 184.870691 285.408 
L 187.970829 281.332015 
L 190.905491 277.135319 
L 193.669982 272.824624 
L 196.25988 268.406827 
L 198.671041 263.888996 
L 200.899609 259.278357 
L 202.942018 254.582288 
L 204.795001 249.8083 
L 206.455593 244.964032 
L 207.921137 240.057232 
L 209.18929 235.095751 
L 210.258021 230.087527 
L 211.125623 225.04057 
L 211.831055 219.593533 
L 207.941127 222.924144 
L 204.1875 226.407645 
L 200.576178 230.038466 
L 197.112939 233.810796 
L 193.803323 237.718602 
L 190.652625 241.755631 
L 187.665886 245.915425 
L 184.847883 250.19133 
L 182.203124 254.576504 
L 179.735841 259.063933 
L 177.449982 263.646438 
L 175.349201 268.316687 
L 173.436862 273.067209 
L 171.716022 277.890404 
L 170.336064 282.277599 
L 175.337155 283.379233 
L 180.378298 284.279995 
L 185.451431 284.978445 
L 189.732025 285.408 
L 194.825759 284.880385 
L 199.894319 284.149497 
L 204.929598 283.216505 
L 209.923539 282.082902 
L 214.868153 280.750501 
L 219.75553 279.221435 
L 224.577852 277.498148 
L 229.327403 275.583398 
L 233.996585 273.480249 
L 238.57793 271.192065 
L 243.064106 268.722506 
L 247.447938 266.075523 
L 251.722412 263.25535 
L 255.880691 260.266501 
L 259.916121 257.113755 
L 263.822247 253.802157 
L 267.59282 250.337004 
L 271.221808 246.723841 
L 274.703404 242.968447 
L 278.032041 239.07683 
L 281.202391 235.055216 
L 284.209384 230.910039 
L 287.048209 226.647929 
L 289.714324 222.275707 
L 292.203464 217.800365 
L 294.511648 213.229064 
L 296.635181 208.569117 
L 298.570668 203.827979 
L 300.315012 199.013234 
L 301.865422 194.132586 
L 303.219418 189.193841 
L 304.374834 184.204902 
L 305.329821 179.173749 
L 306.082852 174.108431 
L 306.632722 169.017051 
L 306.978551 163.907755 
L 307.119786 158.788717 
L 307.056202 153.668125 
L 306.787899 148.554172 
L 306.315307 143.455039 
L 305.639182 138.378883 
L 304.760606 133.333826 
L 303.680984 128.327937 
L 302.402044 123.369227 
L 300.925831 118.465626 
L 299.254707 113.624981 
L 297.391346 108.855035 
L 295.338729 104.163418 
L 293.100138 99.557638 
L 290.679156 95.045061 
L 288.079656 90.632907 
L 285.305796 86.328235 
L 282.362014 82.137931 
L 279.253019 78.068699 
L 275.983784 74.127048 
L 272.559542 70.319285 
L 268.985768 66.6515 
L 265.834395 63.648 
L 262.137993 67.192166 
L 258.586275 70.881313 
L 255.184926 74.70954 
L 251.939385 78.670723 
L 248.854846 82.758524 
L 245.936242 86.966404 
L 243.188243 91.287631 
L 240.615246 95.715292 
L 238.221365 100.242305 
L 236.010432 104.861425 
L 233.985983 109.565265 
L 232.151257 114.346298 
L 230.509188 119.196877 
L 229.148036 123.797021 
L 226.412038 119.468186 
L 223.505121 115.252224 
L 220.431936 111.15588 
L 217.197399 107.185707 
L 213.806684 103.348057 
L 210.265217 99.649069 
L 206.578663 96.094661 
L 202.752918 92.690518 
L 198.794105 89.442088 
L 194.708556 86.354566 
L 190.502807 83.432893 
L 186.183586 80.681742 
L 181.757804 78.105514 
L 177.23254 75.70833 
L 172.615034 73.494027 
L 167.683413 71.372929 
L 171.78487 74.439286 
L 176.005669 77.339176 
L 180.339056 80.067959 
L 184.778099 82.621271 
L 189.315696 84.995026 
L 193.944589 87.185426 
L 198.657371 89.188968 
L 203.446505 91.002447 
L 208.304327 92.62296 
L 213.223067 94.047916 
L 218.194855 95.275036 
L 223.211738 96.302355 
L 228.265691 97.128231 
L 233.348626 97.751341 
L 238.452414 98.170691 
L 243.568888 98.385607 
L 248.689865 98.395748 
L 253.80715 98.201096 
L 258.912559 97.801962 
L 263.997922 97.198987 
L 269.055105 96.393133 
L 274.076018 95.38569 
L 279.052627 94.17827 
L 283.976972 92.772805 
L 288.841174 91.171543 
L 293.637451 89.377045 
L 298.358132 87.392183 
L 302.995663 85.220132 
L 307.542626 82.864366 
L 310.359973 81.286122 
L 307.608848 82.921998 
L 303.294598 85.680939 
L 299.094128 88.610197 
L 295.014156 91.705085 
L 291.061211 94.960654 
L 287.241616 98.371693 
L 283.561481 101.932748 
L 280.026694 105.63812 
L 276.64291 109.481882 
L 273.415542 113.457885 
L 270.349753 117.559768 
L 267.450448 121.780968 
L 264.722266 126.114733 
L 262.228902 130.446119 
L 262.570468 129.904691 
L 265.204678 125.513172 
L 267.661168 121.019826 
L 269.936007 116.43184 
L 272.025555 111.756556 
L 273.926471 107.001451 
L 275.635712 102.174133 
L 277.150546 97.282326 
L 278.468547 92.333854 
L 279.587608 87.336634 
L 280.505938 82.298661 
L 281.222069 77.227995 
L 281.734854 72.132746 
L 282.043474 67.021068 
L 282.134988 63.648 
L 282.176173 65.568038 
L 282.426727 70.682892 
L 282.88162 75.783634 
L 283.540124 80.862106 
L 284.401187 85.910182 
L 285.46343 90.919787 
L 286.725154 95.882906 
L 288.184341 100.7916 
L 289.838656 105.638016 
L 291.685452 110.4144 
L 293.721776 115.113111 
L 295.944369 119.726632 
L 298.349677 124.247584 
L 300.933849 128.668732 
L 303.692754 132.983004 
L 306.621977 137.183499 
L 309.716831 141.263496 
L 312.972367 145.216469 
L 316.383375 149.036093 
L 319.944399 152.716257 
L 323.649741 156.251075 
L 327.493475 159.634891 
L 331.469451 162.862292 
L 335.571308 165.928115 
L 339.792485 168.827455 
L 344.126227 171.555674 
L 348.565603 174.108407 
L 353.103509 176.481571 
L 357.732687 178.671368 
L 360.988497 180.078701 
L 356.859826 177.049084 
L 352.613306 174.186993 
L 348.255728 171.497007 
L 343.794066 168.98343 
L 339.235457 166.650282 
L 334.587192 164.501296 
L 329.85671 162.53991 
L 325.051576 160.769261 
L 320.179479 159.192183 
L 315.248213 157.811199 
L 310.265667 156.628517 
L 305.239812 155.64603 
L 300.178688 154.865309 
L 295.090392 154.287604 
L 289.983064 153.913839 
L 284.864874 153.744611 
L 282.961773 153.733916 
L 286.324589 149.871796 
L 289.530271 145.878289 
L 292.573692 141.759783 
L 295.449982 137.522867 
L 298.15454 133.174319 
L 300.683039 128.721096 
L 303.031433 124.170322 
L 305.195967 119.529277 
L 307.173178 114.805387 
L 308.959901 110.006207 
L 310.553279 105.139417 
L 311.950764 100.212802 
L 313.150118 95.234242 
L 314.149423 90.211704 
L 314.460774 88.388919 
L 309.635752 86.673209 
L 304.745979 85.151821 
L 299.799278 83.827188 
L 294.803563 82.701431 
L 289.766825 81.776349 
L 284.697123 81.053423 
L 279.602567 80.533809 
L 274.491307 80.218339 
L 269.37152 80.107516 
L 264.251396 80.20152 
L 259.139127 80.500198 
L 254.042891 81.003074 
L 248.970842 81.709343 
L 243.931093 82.617875 
L 238.931706 83.727216 
L 233.980681 85.035592 
L 229.085937 86.540909 
L 224.255304 88.24076 
L 219.496512 90.132426 
L 214.817172 92.212878 
L 210.224772 94.478791 
L 205.726657 96.926538 
L 201.330024 99.552204 
L 197.041907 102.351587 
L 192.869165 105.320211 
L 188.818474 108.453325 
L 184.896314 111.745918 
L 181.10896 115.192721 
L 177.462471 118.788221 
L 173.962681 122.526666 
L 170.615188 126.402074 
L 167.425347 130.408247 
L 164.398262 134.538775 
L 161.538776 138.78705 
L 158.851463 143.146275 
L 156.340621 147.609478 
L 154.010269 152.169517 
L 151.864134 156.819099 
L 149.905649 161.550783 
L 148.137947 166.357001 
L 146.563857 171.230064 
L 145.185896 176.162176 
L 144.00627 181.145446 
L 143.026865 186.171903 
L 142.249248 191.233505 
L 141.674662 196.322154 
L 141.304029 201.429711 
L 141.137939 206.548003 
L 141.17666 211.668843 
L 141.420128 216.784039 
L 141.867955 221.885406 
L 142.519425 226.964785 
L 143.373494 232.014049 
L 144.428796 237.025121 
L 144.578523 237.664229 
L 148.373006 241.103182 
L 152.301975 244.387646 
L 156.359145 247.512366 
L 160.538025 250.472343 
L 164.83193 253.262842 
L 169.23399 255.879398 
L 173.737164 258.317826 
L 178.334246 260.574224 
L 183.017883 262.644983 
L 187.780583 264.52679 
L 192.614724 266.216635 
L 197.512575 267.711814 
L 202.466299 269.009936 
L 207.467972 270.108922 
L 212.509592 271.007017 
L 217.583093 271.702781 
L 222.680359 272.195104 
L 227.793235 272.483196 
L 232.913542 272.566597 
L 238.033089 272.445174 
L 243.143685 272.119121 
L 248.237154 271.588959 
L 253.305349 270.855537 
L 258.34016 269.920027 
L 263.333533 268.783928 
L 268.277481 267.449055 
L 273.164093 265.917545 
L 277.985552 264.191848 
L 282.734146 262.274724 
L 287.402276 260.16924 
L 291.982476 257.878765 
L 296.467417 255.406964 
L 300.849925 252.757789 
L 305.122989 249.93548 
L 309.279772 246.944552 
L 313.313625 243.789789 
L 317.218095 240.476238 
L 320.986935 237.009201 
L 324.614116 233.394224 
L 328.093835 229.637089 
L 331.420525 225.743809 
L 334.588865 221.72061 
L 337.593785 217.57393 
L 340.430478 213.310402 
L 343.094407 208.936847 
L 345.581309 204.460261 
L 347.887207 199.887807 
L 350.00841 195.226799 
L 351.941527 190.484693 
L 353.683463 185.669077 
L 355.231433 180.787654 
L 356.582959 175.848233 
L 357.735881 170.858717 
L 358.688352 165.827087 
L 358.795859 165.179538 
L 353.970836 163.463828 
L 349.081063 161.94244 
L 344.134362 160.617807 
L 339.138647 159.492049 
L 334.10191 158.566968 
L 329.032207 157.844041 
L 323.937651 157.324428 
L 318.826391 157.008957 
L 313.706604 156.898135 
L 308.58648 156.992139 
L 303.474211 157.290817 
L 298.377976 157.793693 
L 293.305926 158.499962 
L 288.266177 159.408493 
L 285.282796 160.045224 
L 285.883328 159.823474 
L 290.646142 157.941958 
L 295.329906 155.871485 
L 299.927126 153.615368 
L 304.430449 151.177216 
L 308.83267 148.560929 
L 313.126745 145.770693 
L 317.305806 142.810971 
L 321.363167 139.6865 
L 325.292337 136.402276 
L 329.08703 132.963554 
L 332.741176 129.375836 
L 336.078946 125.832691 
L 331.09628 127.014867 
L 326.164874 128.395351 
L 321.292617 129.971934 
L 316.487304 131.742094 
L 311.756622 133.703 
L 307.108139 135.851514 
L 302.549293 138.184199 
L 298.087375 140.697324 
L 293.729525 143.386867 
L 289.482714 146.248527 
L 285.353735 149.277724 
L 282.085038 151.863253 
L 287.045058 150.5894 
L 291.95017 149.118218 
L 296.792528 147.452061 
L 301.564383 145.593595 
L 306.258102 143.545791 
L 310.866177 141.311927 
L 315.381235 138.895575 
L 319.796053 136.300603 
L 324.103568 133.53116 
L 328.29689 130.591678 
L 332.36931 127.486859 
L 335.534004 124.888824 
L 330.748224 126.711135 
L 326.039146 128.723368 
L 321.414303 130.922305 
L 316.881092 133.304427 
L 312.446768 135.865924 
L 308.118423 138.602698 
L 303.902981 141.51037 
L 299.807188 144.584289 
L 295.837595 147.819538 
L 292.000552 151.21094 
L 288.302199 154.75307 
L 284.772298 158.414515 
L 289.825066 159.247601 
L 294.907107 159.877964 
L 300.010291 160.304595 
L 305.126454 160.526812 
L 310.247411 160.544259 
L 315.364969 160.356909 
L 320.470942 159.965061 
L 325.55716 159.369341 
L 330.615488 158.570704 
L 335.637833 157.570427 
L 340.61616 156.370109 
L 345.542505 154.971672 
L 350.408987 153.377351 
L 351.713703 152.912885 
L 347.862999 156.288767 
L 344.150375 159.815936 
L 340.581769 163.488749 
L 337.162891 167.30133 
L 333.89921 171.24758 
L 330.795948 175.321186 
L 327.858069 179.515631 
L 325.090273 183.824205 
L 322.496988 188.240015 
L 320.082363 192.755996 
L 317.85026 197.364924 
L 315.804251 202.059426 
L 313.947608 206.831991 
L 312.283302 211.674985 
L 310.813995 216.580659 
L 309.542038 221.541166 
L 308.469467 226.54857 
L 307.597995 231.594859 
L 306.929019 236.671962 
L 306.463608 241.771756 
L 306.202506 246.886081 
L 306.146132 252.006757 
L 306.294575 257.125592 
L 306.647598 262.234396 
L 307.204636 267.324996 
L 307.903211 272.025113 
L 303.142783 273.912659 
L 298.461645 275.98906 
L 293.867284 278.250997 
L 289.367053 280.694849 
L 284.968149 283.316708 
L 281.723802 285.408 
L 277.405932 282.654729 
L 272.981415 280.076329 
L 268.457328 277.676925 
L 263.840909 275.460355 
L 259.139544 273.430166 
L 254.360753 271.589605 
L 249.512183 269.941618 
L 244.601588 268.488839 
L 239.636826 267.233594 
L 234.625839 266.177891 
L 229.576644 265.323418 
L 224.497317 264.671542 
L 219.395985 264.223307 
L 214.280809 263.979429 
L 209.159972 263.940299 
L 204.041666 264.105979 
L 198.93408 264.476204 
L 193.845385 265.050382 
L 188.783721 265.827594 
L 183.757186 266.806598 
L 178.773821 267.985825 
L 173.841599 269.363391 
L 168.96841 270.937092 
L 164.690575 272.499325 
L 168.60974 269.203168 
L 172.393959 265.752923 
L 176.037177 262.15411 
L 179.533568 258.412485 
L 182.877536 254.534034 
L 186.063733 250.524963 
L 189.087061 246.391685 
L 191.942684 242.140813 
L 194.626033 237.779146 
L 197.132816 233.313662 
L 199.459022 228.751506 
L 201.600929 224.099976 
L 203.555112 219.366513 
L 205.083543 215.234924 
L 200.927164 218.226415 
L 196.893738 221.381725 
L 192.989717 224.695804 
L 189.221347 228.163352 
L 185.594656 231.77882 
L 182.115446 235.536426 
L 178.789283 239.430157 
L 175.621488 243.453784 
L 172.617129 247.600871 
L 169.781013 251.864784 
L 167.117677 256.238699 
L 164.631381 260.715622 
L 162.326102 265.288388 
L 161.5187 267.005476 
L 166.626613 267.371167 
L 171.745064 267.532303 
L 176.865864 267.488627 
L 181.980821 267.240209 
L 187.081753 266.787445 
L 192.160499 266.131061 
L 197.208934 265.272106 
L 202.218982 264.211954 
L 207.182628 262.952302 
L 212.091931 261.495165 
L 216.939037 259.842874 
L 221.716191 257.998071 
L 226.415752 255.963709 
L 231.030201 253.743043 
L 235.552156 251.339623 
L 239.974383 248.757296 
L 244.289807 246.000193 
L 248.491524 243.072724 
L 252.572813 239.979573 
L 256.527145 236.725689 
L 260.348192 233.316276 
L 264.029843 229.756788 
L 267.566208 226.052922 
L 270.951628 222.210601 
L 274.180689 218.235973 
L 277.248224 214.135396 
L 280.149326 209.915431 
L 282.879354 205.582828 
L 285.43394 201.144518 
L 287.808998 196.607603 
L 290.000728 191.979339 
L 292.005624 187.267132 
L 293.820477 182.47852 
L 295.442386 177.621163 
L 296.868755 172.702833 
L 298.097302 167.731397 
L 299.126062 162.714809 
L 299.953389 157.661095 
L 300.57796 152.578338 
L 300.998775 147.474671 
L 301.215161 142.358258 
L 301.226772 137.237285 
L 301.03359 132.119944 
L 300.635923 127.014421 
L 300.034408 121.928885 
L 299.230006 116.87147 
L 298.224006 111.850269 
L 297.018015 106.873313 
L 295.613964 101.948565 
L 294.014099 97.083903 
L 292.220979 92.28711 
L 290.237473 87.56586 
L 288.066753 82.927705 
L 285.712294 78.380066 
L 283.17786 73.930218 
L 280.467508 69.58528 
L 277.585572 65.352202 
L 276.353566 63.648 
L 273.402495 67.833174 
L 270.621146 72.133011 
L 268.01397 76.540634 
L 265.585138 81.04899 
L 263.338534 85.650867 
L 261.277754 90.338903 
L 259.406093 95.105599 
L 257.726546 99.943328 
L 256.241801 104.844352 
L 254.954231 109.800829 
L 253.865898 114.804831 
L 252.978542 119.848352 
L 252.293583 124.923323 
L 252.186782 125.887049 
L 254.686703 121.417721 
L 257.0059 116.851997 
L 259.140661 112.197183 
L 261.087571 107.460724 
L 262.843516 102.650198 
L 264.405687 97.773301 
L 265.771585 92.837835 
L 266.939024 87.851696 
L 267.906136 82.822859 
L 268.671376 77.759371 
L 269.233517 72.669332 
L 269.591662 67.560885 
L 269.727507 63.648 
L 269.779186 65.567784 
L 270.057695 70.681192 
L 270.540463 75.779372 
L 271.226718 80.854168 
L 272.115362 85.897462 
L 273.204973 90.901185 
L 274.493808 95.857334 
L 275.979805 100.757978 
L 277.660587 105.595278 
L 279.533465 110.361496 
L 281.595443 115.049006 
L 283.843221 119.650309 
L 286.273205 124.158045 
L 288.881506 128.565001 
L 291.663953 132.864129 
L 294.616093 137.048549 
L 297.733203 141.111568 
L 301.010298 145.046685 
L 304.442134 148.847607 
L 308.023221 152.508251 
L 311.747831 156.022762 
L 315.610004 159.385516 
L 319.603562 162.591136 
L 323.722117 165.634491 
L 327.959078 168.510714 
L 332.307669 171.215202 
L 336.760932 173.743631 
L 341.311744 176.091953 
L 345.952822 178.256414 
L 350.676744 180.233549 
L 355.475952 182.020197 
L 359.159857 183.245998 
L 355.31372 179.864914 
L 351.335451 176.640339 
L 347.231416 173.577432 
L 343.008181 170.681093 
L 338.672501 167.955954 
L 334.231312 165.406377 
L 329.69172 163.036439 
L 325.060987 160.849932 
L 320.346521 158.850354 
L 315.555864 157.040903 
L 310.696681 155.424475 
L 305.776745 154.003656 
L 300.803926 152.780718 
L 295.786181 151.757618 
L 290.731536 150.935993 
L 285.648078 150.317157 
L 281.082645 149.936217 
L 283.464259 145.402739 
L 285.662676 140.777649 
L 287.674381 136.068344 
L 289.496154 131.28236 
L 291.125082 126.427353 
L 292.558559 121.51109 
L 293.79429 116.541435 
L 294.8303 111.526339 
L 295.664932 106.473826 
L 296.296848 101.391977 
L 296.72504 96.288924 
L 296.948821 91.172829 
L 296.967835 86.051878 
L 296.782049 80.934263 
L 296.391762 75.828171 
L 295.797598 70.74177 
L 295.000508 65.683198 
L 294.620963 63.648 
L 293.742183 68.693022 
L 293.065853 73.76915 
L 292.593055 78.868264 
L 292.324545 83.982207 
L 292.260753 89.102796 
L 292.401781 94.22184 
L 292.747403 99.33115 
L 293.297067 104.422551 
L 294.049893 109.4879 
L 295.004676 114.519091 
L 296.15989 119.508078 
L 297.513687 124.446877 
L 299.063899 129.327588 
L 300.808048 134.142404 
L 302.743343 138.88362 
L 304.866688 143.543653 
L 307.174686 148.115047 
L 309.663645 152.59049 
L 312.329584 156.96282 
L 315.168236 161.225045 
L 318.175061 165.370344 
L 321.345249 169.392086 
L 324.673728 173.283838 
L 328.155172 177.039373 
L 331.784014 180.652683 
L 335.554447 184.117988 
L 339.460439 187.429744 
L 343.495741 190.582653 
L 347.653898 193.571671 
L 351.665908 196.225899 
L 350.528213 195.638628 
L 345.920424 193.404175 
L 341.226966 191.355772 
L 336.455348 189.496696 
L 331.613204 187.829921 
L 326.708279 186.358113 
L 321.748422 185.083627 
L 316.741566 184.008502 
L 311.695721 183.134458 
L 306.61896 182.462893 
L 301.519404 181.994881 
L 296.405212 181.731172 
L 291.284566 181.672186 
L 286.85631 181.786378 
L 291.737094 183.336362 
L 296.675956 184.689927 
L 301.664996 185.844908 
L 306.696233 186.799456 
L 311.761616 187.552045 
L 316.853044 188.10147 
L 321.96237 188.446853 
L 327.081421 188.587642 
L 332.202007 188.52361 
L 337.315936 188.254861 
L 342.415028 187.781824 
L 347.491125 187.105256 
L 352.536106 186.22624 
L 357.5419 185.146181 
L 358.146309 185.001516 
L 356.602453 180.11879 
L 354.864575 175.301708 
L 352.935455 170.557975 
L 350.818179 165.895181 
L 348.516135 161.320786 
L 346.033006 156.842106 
L 343.372763 152.466308 
L 340.539663 148.200391 
L 337.538238 144.05118 
L 334.373289 140.025314 
L 331.049881 136.129231 
L 327.573329 132.369166 
L 323.949195 128.751134 
L 320.183278 125.280923 
L 316.281601 121.964083 
L 312.250408 118.805923 
L 308.096146 115.811493 
L 303.825461 112.985584 
L 299.445187 110.332718 
L 294.96233 107.857138 
L 290.384062 105.562805 
L 285.717708 103.453389 
L 280.970731 101.532265 
L 276.150728 99.802506 
L 271.265408 98.266879 
L 266.322587 96.927841 
L 261.330172 95.787534 
L 256.296151 94.847783 
L 251.228577 94.110091 
L 246.135556 93.575637 
L 241.025236 93.245278 
L 235.905794 93.119541 
L 230.785418 93.198628 
L 225.672301 93.482412 
L 220.574622 93.970439 
L 215.500536 94.661929 
L 210.458162 95.555775 
L 205.455565 96.650547 
L 200.500748 97.944494 
L 195.60164 99.435545 
L 190.766076 101.121316 
L 186.001793 102.99911 
L 181.316412 105.065922 
L 176.71743 107.318446 
L 172.212204 109.753078 
L 167.80794 112.365925 
L 163.511685 115.152804 
L 159.330313 118.109259 
L 155.270512 121.230559 
L 151.338776 124.511712 
L 147.541397 127.947467 
L 143.884449 131.532328 
L 140.373783 135.260561 
L 137.015014 139.126202 
L 133.813516 143.123064 
L 130.774411 147.244756 
L 127.90256 151.484683 
L 125.202559 155.836061 
L 122.678726 160.29193 
L 120.335099 164.845161 
L 118.175427 169.48847 
L 116.203166 174.214429 
L 114.42147 179.015477 
L 113.07494 183.098422 
L 118.09198 184.124976 
L 123.146058 184.95008 
L 128.229089 185.572415 
L 133.33294 185.990985 
L 138.449448 186.205121 
L 143.570425 186.21448 
L 148.687681 186.019047 
L 153.793029 185.619134 
L 158.8783 185.015382 
L 163.93536 184.208756 
L 168.956119 183.200547 
L 173.932544 181.992368 
L 178.856674 180.586151 
L 183.720631 178.984146 
L 185.100214 178.490082 
L 180.057206 177.599817 
L 174.982631 176.911929 
L 169.884607 176.427521 
L 164.771289 176.147367 
L 159.650859 176.071915 
L 154.531507 176.201286 
L 149.421423 176.535273 
L 144.328783 177.073342 
L 139.261733 177.814632 
L 134.22838 178.757957 
L 129.236777 179.901807 
L 124.294907 181.244354 
L 119.410679 182.783448 
L 114.591904 184.516629 
L 114.020753 184.736619 
L 117.946881 181.448759 
L 121.738389 178.006526 
L 125.389211 174.415426 
L 128.893508 170.681205 
L 132.245673 166.809837 
L 135.440342 162.807514 
L 138.472407 158.68064 
L 141.337015 154.435817 
L 144.029583 150.079835 
L 146.545806 145.619664 
L 148.881656 141.062438 
L 151.033397 136.415449 
L 152.997588 131.68613 
L 154.771084 126.882047 
L 156.351051 122.010886 
L 157.734958 117.08044 
L 158.920594 112.098596 
L 159.906061 107.073324 
L 160.689782 102.012664 
L 161.270503 96.924711 
L 161.647297 91.817605 
L 161.819559 86.699517 
L 161.787195 81.585478 
L 166.238146 79.052983 
L 170.584265 76.344523 
L 174.818597 73.464431 
L 178.93437 70.417315 
L 182.924998 67.208049 
L 186.996983 63.648 
L 190.848504 67.022949 
L 194.831907 70.24118 
L 198.940818 73.297542 
L 203.168664 76.187147 
L 207.508682 78.905371 
L 211.953929 81.447867 
L 216.497292 83.810567 
L 221.131504 85.989691 
L 225.849151 87.981753 
L 230.642686 89.783566 
L 235.504439 91.392247 
L 240.426634 92.805223 
L 245.401395 94.020234 
L 250.420765 95.035335 
L 255.476713 95.848903 
L 260.56115 96.459637 
L 265.665944 96.866558 
L 270.782926 97.069017 
L 275.903912 97.066689 
L 281.020709 96.859578 
L 286.12513 96.448016 
L 291.209011 95.83266 
L 296.264217 95.014496 
L 301.282661 93.994832 
L 306.256316 92.775299 
L 311.177224 91.357848 
L 315.377401 89.976563 
L 311.568921 93.400009 
L 307.900388 96.973015 
L 304.377672 100.689865 
L 301.006409 104.544613 
L 297.79199 108.531092 
L 294.73956 112.642925 
L 291.854 116.873534 
L 289.139928 121.21615 
L 286.601686 125.663826 
L 284.243333 130.209448 
L 282.068643 134.845742 
L 280.081095 139.565292 
L 278.283868 144.360548 
L 278.041861 145.05412 
L 283.162662 145.010508 
L 288.277622 144.762154 
L 293.37856 144.309454 
L 298.457314 143.653133 
L 303.50576 142.794242 
L 308.515821 141.734153 
L 313.479483 140.474563 
L 318.388804 139.017488 
L 323.23593 137.365257 
L 328.013108 135.520515 
L 332.712695 133.486212 
L 337.327172 131.265602 
L 338.783367 130.516886 
L 338.243857 130.861473 
L 333.991164 133.714385 
L 329.85596 136.735078 
L 325.844858 139.918718 
L 321.964277 143.260214 
L 318.220424 146.754218 
L 314.619289 150.395142 
L 311.166632 154.17716 
L 307.867977 158.094223 
L 304.728602 162.140063 
L 301.753528 166.308209 
L 298.947516 170.591992 
L 296.315053 174.984559 
L 293.860352 179.478882 
L 291.58734 184.067773 
L 289.499652 188.743889 
L 287.600629 193.49975 
L 285.893309 198.327747 
L 284.380423 203.220158 
L 283.064391 208.169154 
L 281.947319 213.166818 
L 281.030994 218.205156 
L 280.316882 223.276108 
L 279.806125 228.371559 
L 279.49954 233.48336 
L 279.397618 238.603332 
L 279.500521 243.723285 
L 279.808086 248.835027 
L 280.31982 253.93038 
L 281.034904 259.001194 
L 281.952195 264.039357 
L 283.070225 269.036807 
L 284.387205 273.985551 
L 285.901029 278.877671 
L 287.609275 283.705341 
L 288.264234 285.408 
L 290.041092 280.605159 
L 291.624466 275.735105 
L 293.011823 270.805628 
L 294.200944 265.824615 
L 295.189926 260.800034 
L 295.977188 255.739923 
L 296.561469 250.652378 
L 296.941836 245.545537 
L 297.117679 240.42757 
L 297.088717 235.306666 
L 296.854997 230.191016 
L 296.416893 225.088804 
L 295.775105 220.008193 
L 294.93066 214.95731 
L 293.884909 209.944237 
L 292.639525 204.976992 
L 291.1965 200.063522 
L 289.558144 195.211689 
L 287.727076 190.429253 
L 285.989407 186.352976 
L 289.891166 183.036233 
L 293.657169 179.566114 
L 297.281392 175.948172 
L 300.758036 172.188192 
L 304.081541 168.292192 
L 307.246589 164.266404 
L 310.248117 160.117267 
L 313.081322 155.85142 
L 315.741673 151.475688 
L 318.224913 146.99707 
L 320.52707 142.422731 
L 322.644461 137.759989 
L 324.573698 133.016305 
L 326.311695 128.199265 
L 327.855672 123.316578 
L 329.203158 118.376053 
L 329.953435 115.222995 
L 325.035649 113.794751 
L 320.064682 112.564308 
L 315.048486 111.533636 
L 309.995087 110.704382 
L 304.912569 110.077874 
L 299.809063 109.655113 
L 294.692733 109.436776 
L 289.571765 109.423213 
L 284.45435 109.614444 
L 279.348676 110.010165 
L 274.262911 110.609741 
L 269.20519 111.412214 
L 264.183606 112.416301 
L 259.20619 113.620393 
L 254.280907 115.022567 
L 249.415636 116.620577 
L 244.61816 118.411868 
L 239.896154 120.393575 
L 235.257172 122.562526 
L 233.631107 123.377198 
L 228.825452 121.607966 
L 223.952891 120.032324 
L 219.021218 118.652793 
L 214.038323 117.47158 
L 209.012179 116.490575 
L 203.950825 115.711346 
L 198.862358 115.135141 
L 193.75492 114.762881 
L 188.636681 114.595161 
L 183.515829 114.632251 
L 178.400556 114.874091 
L 173.299046 115.320294 
L 168.21946 115.970146 
L 163.169924 116.822607 
L 158.158517 117.876314 
L 153.193255 119.129581 
L 148.282082 120.580402 
L 143.432856 122.226458 
L 138.653332 124.065115 
L 136.820364 124.829298 
L 136.820364 124.829298 
" style="fill:none;stroke:#1f77b4;stroke-linecap:square;stroke-width:1.5;"/>
   </g>
   <g id="patch_4">
    <path d="M 82.520165 307.584 
L 82.520165 41.472 
" style="fill:none;stroke:#000000;stroke-linecap:square;stroke-linejoin:miter;stroke-width:0.8;"/>
   </g>
   <g id="patch_5">
    <path d="M 389.799835 307.584 
L 389.799835 41.472 
" style="fill:none;stroke:#000000;stroke-linecap:square;stroke-linejoin:miter;stroke-width:0.8;"/>
   </g>
   <g id="patch_6">
    <path d="M 82.520165 307.584 
L 389.799835 307.584 
" style="fill:none;stroke:#000000;stroke-linecap:square;stroke-linejoin:miter;stroke-width:0.8;"/>
   </g>
   <g id="patch_7">
    <path d="M 82.520165 41.472 
L 389.799835 41.472 
" style="fill:none;stroke:#000000;stroke-linecap:square;stroke-linejoin:miter;stroke-width:0.8;"/>
   </g>
  </g>
 </g>
 <defs>
  <clipPath id="p246a323262">
   <rect height="266.112" width="307.27967" x="82.520165" y="41.472"/>
  </clipPath>
 </defs>
</svg>
