<?xml version="1.0" encoding="utf-8" standalone="no"?>
<!DOCTYPE svg PUBLIC "-//W3C//DTD SVG 1.1//EN"
  "http://www.w3.org/Graphics/SVG/1.1/DTD/svg11.dtd">
<!-- Created with matplotlib (http://matplotlib.org/) -->
<svg height="345.6pt" version="1.1" viewBox="0 0 460.8 345.6" width="460.8pt" xmlns="http://www.w3.org/2000/svg" xmlns:xlink="http://www.w3.org/1999/xlink">
 <defs>
  <style type="text/css">
*{stroke-linecap:butt;stroke-linejoin:round;}
  </style>
 </defs>
 <g id="figure_1">
  <g id="patch_1">
   <path d="M 0 345.6 
L 460.8 345.6 
L 460.8 0 
L 0 0 
z
" style="fill:#ffffff;"/>
  </g>
  <g id="axes_1">
   <g id="patch_2">
    <path d="M 82.520165 307.584 
L 389.799835 307.584 
L 389.799835 41.472 
L 82.520165 41.472 
z
" style="fill:#ffffff;"/>
   </g>
   <g id="PathCollection_1">
    <defs>
     <path d="M 0 2.738613 
C 0.726289 2.738613 1.422928 2.450055 1.936492 1.936492 
C 2.450055 1.422928 2.738613 0.726289 2.738613 0 
C 2.738613 -0.726289 2.450055 -1.422928 1.936492 -1.936492 
C 1.422928 -2.450055 0.726289 -2.738613 0 -2.738613 
C -0.726289 -2.738613 -1.422928 -2.450055 -1.936492 -1.936492 
C -2.450055 -1.422928 -2.738613 -0.726289 -2.738613 0 
C -2.738613 0.726289 -2.450055 1.422928 -1.936492 1.936492 
C -1.422928 2.450055 -0.726289 2.738613 0 2.738613 
z
" id="m743d27b966" style="stroke:#000000;"/>
    </defs>
    <g clip-path="url(#pa521910f77)">
     <use style="stroke:#000000;" x="258.598382" xlink:href="#m743d27b966" y="285.408"/>
    </g>
   </g>
   <g id="Quiver_1">
    <path clip-path="url(#pa521910f77)" d="M 258.006257 284.918595 
L 269.26257 271.299705 
L 267.588914 270.913021 
L 274.25934 266.459979 
L 271.141668 273.849451 
L 270.446822 272.278515 
L 259.190508 285.897405 
L 258.006257 284.918595 
"/>
   </g>
   <g id="patch_3">
    <path clip-path="url(#pa521910f77)" d="M 236.16 225.741278 
C 249.74192 225.741278 262.769389 220.345124 272.373256 210.741256 
C 281.977124 201.137389 287.373278 188.10992 287.373278 174.528 
C 287.373278 160.94608 281.977124 147.918611 272.373256 138.314744 
C 262.769389 128.710876 249.74192 123.314722 236.16 123.314722 
C 222.57808 123.314722 209.550611 128.710876 199.946744 138.314744 
C 190.342876 147.918611 184.946722 160.94608 184.946722 174.528 
C 184.946722 188.10992 190.342876 201.137389 199.946744 210.741256 
C 209.550611 220.345124 222.57808 225.741278 236.16 225.741278 
z
" style="fill:#009900;fill-opacity:0.5;stroke:#009900;stroke-linejoin:miter;stroke-width:2;"/>
   </g>
   <g id="matplotlib.axis_1">
    <g id="xtick_1">
     <g id="line2d_1">
      <defs>
       <path d="M 0 0 
L 0 3.5 
" id="m91459d6abd" style="stroke:#000000;stroke-width:0.8;"/>
      </defs>
      <g>
       <use style="stroke:#000000;stroke-width:0.8;" x="108.126804" xlink:href="#m91459d6abd" y="307.584"/>
      </g>
     </g>
     <g id="text_1">
      <!-- −2 -->
      <defs>
       <path d="M 10.59375 35.5 
L 73.1875 35.5 
L 73.1875 27.203125 
L 10.59375 27.203125 
z
" id="DejaVuSans-2212"/>
       <path d="M 19.1875 8.296875 
L 53.609375 8.296875 
L 53.609375 0 
L 7.328125 0 
L 7.328125 8.296875 
Q 12.9375 14.109375 22.625 23.890625 
Q 32.328125 33.6875 34.8125 36.53125 
Q 39.546875 41.84375 41.421875 45.53125 
Q 43.3125 49.21875 43.3125 52.78125 
Q 43.3125 58.59375 39.234375 62.25 
Q 35.15625 65.921875 28.609375 65.921875 
Q 23.96875 65.921875 18.8125 64.3125 
Q 13.671875 62.703125 7.8125 59.421875 
L 7.8125 69.390625 
Q 13.765625 71.78125 18.9375 73 
Q 24.125 74.21875 28.421875 74.21875 
Q 39.75 74.21875 46.484375 68.546875 
Q 53.21875 62.890625 53.21875 53.421875 
Q 53.21875 48.921875 51.53125 44.890625 
Q 49.859375 40.875 45.40625 35.40625 
Q 44.1875 33.984375 37.640625 27.21875 
Q 31.109375 20.453125 19.1875 8.296875 
z
" id="DejaVuSans-32"/>
      </defs>
      <g transform="translate(100.755711 322.182437)scale(0.1 -0.1)">
       <use xlink:href="#DejaVuSans-2212"/>
       <use x="83.789062" xlink:href="#DejaVuSans-32"/>
      </g>
     </g>
    </g>
    <g id="xtick_2">
     <g id="line2d_2">
      <g>
       <use style="stroke:#000000;stroke-width:0.8;" x="172.143402" xlink:href="#m91459d6abd" y="307.584"/>
      </g>
     </g>
     <g id="text_2">
      <!-- −1 -->
      <defs>
       <path d="M 12.40625 8.296875 
L 28.515625 8.296875 
L 28.515625 63.921875 
L 10.984375 60.40625 
L 10.984375 69.390625 
L 28.421875 72.90625 
L 38.28125 72.90625 
L 38.28125 8.296875 
L 54.390625 8.296875 
L 54.390625 0 
L 12.40625 0 
z
" id="DejaVuSans-31"/>
      </defs>
      <g transform="translate(164.772308 322.182437)scale(0.1 -0.1)">
       <use xlink:href="#DejaVuSans-2212"/>
       <use x="83.789062" xlink:href="#DejaVuSans-31"/>
      </g>
     </g>
    </g>
    <g id="xtick_3">
     <g id="line2d_3">
      <g>
       <use style="stroke:#000000;stroke-width:0.8;" x="236.16" xlink:href="#m91459d6abd" y="307.584"/>
      </g>
     </g>
     <g id="text_3">
      <!-- 0 -->
      <defs>
       <path d="M 31.78125 66.40625 
Q 24.171875 66.40625 20.328125 58.90625 
Q 16.5 51.421875 16.5 36.375 
Q 16.5 21.390625 20.328125 13.890625 
Q 24.171875 6.390625 31.78125 6.390625 
Q 39.453125 6.390625 43.28125 13.890625 
Q 47.125 21.390625 47.125 36.375 
Q 47.125 51.421875 43.28125 58.90625 
Q 39.453125 66.40625 31.78125 66.40625 
z
M 31.78125 74.21875 
Q 44.046875 74.21875 50.515625 64.515625 
Q 56.984375 54.828125 56.984375 36.375 
Q 56.984375 17.96875 50.515625 8.265625 
Q 44.046875 -1.421875 31.78125 -1.421875 
Q 19.53125 -1.421875 13.0625 8.265625 
Q 6.59375 17.96875 6.59375 36.375 
Q 6.59375 54.828125 13.0625 64.515625 
Q 19.53125 74.21875 31.78125 74.21875 
z
" id="DejaVuSans-30"/>
      </defs>
      <g transform="translate(232.97875 322.182437)scale(0.1 -0.1)">
       <use xlink:href="#DejaVuSans-30"/>
      </g>
     </g>
    </g>
    <g id="xtick_4">
     <g id="line2d_4">
      <g>
       <use style="stroke:#000000;stroke-width:0.8;" x="300.176598" xlink:href="#m91459d6abd" y="307.584"/>
      </g>
     </g>
     <g id="text_4">
      <!-- 1 -->
      <g transform="translate(296.995348 322.182437)scale(0.1 -0.1)">
       <use xlink:href="#DejaVuSans-31"/>
      </g>
     </g>
    </g>
    <g id="xtick_5">
     <g id="line2d_5">
      <g>
       <use style="stroke:#000000;stroke-width:0.8;" x="364.193196" xlink:href="#m91459d6abd" y="307.584"/>
      </g>
     </g>
     <g id="text_5">
      <!-- 2 -->
      <g transform="translate(361.011946 322.182437)scale(0.1 -0.1)">
       <use xlink:href="#DejaVuSans-32"/>
      </g>
     </g>
    </g>
   </g>
   <g id="matplotlib.axis_2">
    <g id="ytick_1">
     <g id="line2d_6">
      <defs>
       <path d="M 0 0 
L -3.5 0 
" id="m4f08528f78" style="stroke:#000000;stroke-width:0.8;"/>
      </defs>
      <g>
       <use style="stroke:#000000;stroke-width:0.8;" x="82.520165" xlink:href="#m4f08528f78" y="302.561196"/>
      </g>
     </g>
     <g id="text_6">
      <!-- −2.0 -->
      <defs>
       <path d="M 10.6875 12.40625 
L 21 12.40625 
L 21 0 
L 10.6875 0 
z
" id="DejaVuSans-2e"/>
      </defs>
      <g transform="translate(51.237353 306.360414)scale(0.1 -0.1)">
       <use xlink:href="#DejaVuSans-2212"/>
       <use x="83.789062" xlink:href="#DejaVuSans-32"/>
       <use x="147.412109" xlink:href="#DejaVuSans-2e"/>
       <use x="179.199219" xlink:href="#DejaVuSans-30"/>
      </g>
     </g>
    </g>
    <g id="ytick_2">
     <g id="line2d_7">
      <g>
       <use style="stroke:#000000;stroke-width:0.8;" x="82.520165" xlink:href="#m4f08528f78" y="270.552897"/>
      </g>
     </g>
     <g id="text_7">
      <!-- −1.5 -->
      <defs>
       <path d="M 10.796875 72.90625 
L 49.515625 72.90625 
L 49.515625 64.59375 
L 19.828125 64.59375 
L 19.828125 46.734375 
Q 21.96875 47.46875 24.109375 47.828125 
Q 26.265625 48.1875 28.421875 48.1875 
Q 40.625 48.1875 47.75 41.5 
Q 54.890625 34.8125 54.890625 23.390625 
Q 54.890625 11.625 47.5625 5.09375 
Q 40.234375 -1.421875 26.90625 -1.421875 
Q 22.3125 -1.421875 17.546875 -0.640625 
Q 12.796875 0.140625 7.71875 1.703125 
L 7.71875 11.625 
Q 12.109375 9.234375 16.796875 8.0625 
Q 21.484375 6.890625 26.703125 6.890625 
Q 35.15625 6.890625 40.078125 11.328125 
Q 45.015625 15.765625 45.015625 23.390625 
Q 45.015625 31 40.078125 35.4375 
Q 35.15625 39.890625 26.703125 39.890625 
Q 22.75 39.890625 18.8125 39.015625 
Q 14.890625 38.140625 10.796875 36.28125 
z
" id="DejaVuSans-35"/>
      </defs>
      <g transform="translate(51.237353 274.352116)scale(0.1 -0.1)">
       <use xlink:href="#DejaVuSans-2212"/>
       <use x="83.789062" xlink:href="#DejaVuSans-31"/>
       <use x="147.412109" xlink:href="#DejaVuSans-2e"/>
       <use x="179.199219" xlink:href="#DejaVuSans-35"/>
      </g>
     </g>
    </g>
    <g id="ytick_3">
     <g id="line2d_8">
      <g>
       <use style="stroke:#000000;stroke-width:0.8;" x="82.520165" xlink:href="#m4f08528f78" y="238.544598"/>
      </g>
     </g>
     <g id="text_8">
      <!-- −1.0 -->
      <g transform="translate(51.237353 242.343817)scale(0.1 -0.1)">
       <use xlink:href="#DejaVuSans-2212"/>
       <use x="83.789062" xlink:href="#DejaVuSans-31"/>
       <use x="147.412109" xlink:href="#DejaVuSans-2e"/>
       <use x="179.199219" xlink:href="#DejaVuSans-30"/>
      </g>
     </g>
    </g>
    <g id="ytick_4">
     <g id="line2d_9">
      <g>
       <use style="stroke:#000000;stroke-width:0.8;" x="82.520165" xlink:href="#m4f08528f78" y="206.536299"/>
      </g>
     </g>
     <g id="text_9">
      <!-- −0.5 -->
      <g transform="translate(51.237353 210.335518)scale(0.1 -0.1)">
       <use xlink:href="#DejaVuSans-2212"/>
       <use x="83.789062" xlink:href="#DejaVuSans-30"/>
       <use x="147.412109" xlink:href="#DejaVuSans-2e"/>
       <use x="179.199219" xlink:href="#DejaVuSans-35"/>
      </g>
     </g>
    </g>
    <g id="ytick_5">
     <g id="line2d_10">
      <g>
       <use style="stroke:#000000;stroke-width:0.8;" x="82.520165" xlink:href="#m4f08528f78" y="174.528"/>
      </g>
     </g>
     <g id="text_10">
      <!-- 0.0 -->
      <g transform="translate(59.61704 178.327219)scale(0.1 -0.1)">
       <use xlink:href="#DejaVuSans-30"/>
       <use x="63.623047" xlink:href="#DejaVuSans-2e"/>
       <use x="95.410156" xlink:href="#DejaVuSans-30"/>
      </g>
     </g>
    </g>
    <g id="ytick_6">
     <g id="line2d_11">
      <g>
       <use style="stroke:#000000;stroke-width:0.8;" x="82.520165" xlink:href="#m4f08528f78" y="142.519701"/>
      </g>
     </g>
     <g id="text_11">
      <!-- 0.5 -->
      <g transform="translate(59.61704 146.31892)scale(0.1 -0.1)">
       <use xlink:href="#DejaVuSans-30"/>
       <use x="63.623047" xlink:href="#DejaVuSans-2e"/>
       <use x="95.410156" xlink:href="#DejaVuSans-35"/>
      </g>
     </g>
    </g>
    <g id="ytick_7">
     <g id="line2d_12">
      <g>
       <use style="stroke:#000000;stroke-width:0.8;" x="82.520165" xlink:href="#m4f08528f78" y="110.511402"/>
      </g>
     </g>
     <g id="text_12">
      <!-- 1.0 -->
      <g transform="translate(59.61704 114.310621)scale(0.1 -0.1)">
       <use xlink:href="#DejaVuSans-31"/>
       <use x="63.623047" xlink:href="#DejaVuSans-2e"/>
       <use x="95.410156" xlink:href="#DejaVuSans-30"/>
      </g>
     </g>
    </g>
    <g id="ytick_8">
     <g id="line2d_13">
      <g>
       <use style="stroke:#000000;stroke-width:0.8;" x="82.520165" xlink:href="#m4f08528f78" y="78.503103"/>
      </g>
     </g>
     <g id="text_13">
      <!-- 1.5 -->
      <g transform="translate(59.61704 82.302322)scale(0.1 -0.1)">
       <use xlink:href="#DejaVuSans-31"/>
       <use x="63.623047" xlink:href="#DejaVuSans-2e"/>
       <use x="95.410156" xlink:href="#DejaVuSans-35"/>
      </g>
     </g>
    </g>
    <g id="ytick_9">
     <g id="line2d_14">
      <g>
       <use style="stroke:#000000;stroke-width:0.8;" x="82.520165" xlink:href="#m4f08528f78" y="46.494804"/>
      </g>
     </g>
     <g id="text_14">
      <!-- 2.0 -->
      <g transform="translate(59.61704 50.294023)scale(0.1 -0.1)">
       <use xlink:href="#DejaVuSans-32"/>
       <use x="63.623047" xlink:href="#DejaVuSans-2e"/>
       <use x="95.410156" xlink:href="#DejaVuSans-30"/>
      </g>
     </g>
    </g>
   </g>
   <g id="line2d_15">
    <path clip-path="url(#pa521910f77)" d="M 300.176598 63.648 
L 172.143402 63.648 
" style="fill:none;stroke:#009900;stroke-linecap:square;stroke-width:2;"/>
   </g>
   <g id="line2d_16">
    <path clip-path="url(#pa521910f77)" d="M 172.143402 63.648 
L 108.126804 174.528 
" style="fill:none;stroke:#009900;stroke-linecap:square;stroke-width:2;"/>
   </g>
   <g id="line2d_17">
    <path clip-path="url(#pa521910f77)" d="M 108.126804 174.528 
L 172.143402 285.408 
" style="fill:none;stroke:#009900;stroke-linecap:square;stroke-width:2;"/>
   </g>
   <g id="line2d_18">
    <path clip-path="url(#pa521910f77)" d="M 172.143402 285.408 
L 300.176598 285.408 
" style="fill:none;stroke:#009900;stroke-linecap:square;stroke-width:2;"/>
   </g>
   <g id="line2d_19">
    <path clip-path="url(#pa521910f77)" d="M 300.176598 285.408 
L 364.193196 174.528 
" style="fill:none;stroke:#009900;stroke-linecap:square;stroke-width:2;"/>
   </g>
   <g id="line2d_20">
    <path clip-path="url(#pa521910f77)" d="M 364.193196 174.528 
L 300.176598 63.648 
" style="fill:none;stroke:#009900;stroke-linecap:square;stroke-width:2;"/>
   </g>
   <g id="line2d_21">
    <path clip-path="url(#pa521910f77)" d="M 218.405498 273.962269 
L 223.523802 274.128014 
L 228.644639 274.088948 
L 233.759818 273.845135 
L 238.861156 273.396965 
L 243.940491 272.745154 
L 248.989697 271.890745 
L 254.000698 270.835105 
L 258.965476 269.579923 
L 263.876089 268.127207 
L 268.72468 266.47928 
L 273.503494 264.63878 
L 278.204885 262.60865 
L 282.821331 260.392139 
L 287.345449 257.992792 
L 291.769999 255.414448 
L 296.087904 252.661232 
L 300.292255 249.737548 
L 304.376327 246.648073 
L 308.333587 243.39775 
L 312.157703 239.991779 
L 315.842557 236.435608 
L 319.382255 232.734927 
L 322.771134 228.895656 
L 326.003772 224.923937 
L 329.074999 220.826124 
L 331.979899 216.608773 
L 334.713827 212.278629 
L 337.272409 207.842622 
L 339.651551 203.307847 
L 341.847447 198.681559 
L 343.856584 193.971159 
L 345.675749 189.184182 
L 347.302031 184.328288 
L 348.732828 179.411244 
L 349.965851 174.440917 
L 350.999127 169.425257 
L 351.831004 164.372289 
L 352.460151 159.290097 
L 352.840847 154.865155 
L 348.197039 152.706555 
L 343.470626 150.735384 
L 338.669167 148.954796 
L 333.800344 147.367639 
L 328.871946 145.976453 
L 323.891858 144.783463 
L 318.868047 143.790578 
L 313.808549 142.999386 
L 308.721459 142.411153 
L 303.614915 142.026819 
L 298.497087 141.847 
L 293.376162 141.871984 
L 288.260331 142.10173 
L 283.157781 142.535871 
L 278.076672 143.173712 
L 276.801702 143.366293 
L 278.784042 138.644553 
L 280.575977 133.847318 
L 282.17464 128.982261 
L 283.577474 124.057166 
L 284.782235 119.079913 
L 285.786996 114.058463 
L 286.590148 109.00085 
L 287.190407 103.915165 
L 287.586812 98.809544 
L 287.778731 93.692155 
L 287.765855 88.571185 
L 287.548204 83.454826 
L 287.126129 78.351263 
L 286.500302 73.268661 
L 285.671727 68.215151 
L 284.742512 63.648 
L 283.730556 68.668005 
L 282.920156 73.724461 
L 282.312608 78.809281 
L 281.908885 83.914328 
L 281.709633 89.031437 
L 281.715169 94.15242 
L 281.925486 99.269086 
L 282.340247 104.373248 
L 282.958788 109.456742 
L 283.78012 114.511435 
L 284.802928 119.529239 
L 286.025577 124.502129 
L 287.446111 129.422148 
L 289.062257 134.281425 
L 290.871429 139.072187 
L 292.870733 143.786769 
L 295.056971 148.417629 
L 297.426646 152.957358 
L 299.975965 157.398695 
L 302.700852 161.734534 
L 305.596946 165.957937 
L 308.659615 170.06215 
L 311.883959 174.040606 
L 315.264819 177.88694 
L 318.796788 181.594998 
L 322.474214 185.15885 
L 326.291214 188.572794 
L 330.241683 191.831367 
L 334.3193 194.929357 
L 338.517542 197.861808 
L 342.829692 200.624028 
L 347.539271 203.373444 
L 341.968783 200.220291 
L 337.403257 197.900705 
L 332.748625 195.765547 
L 328.012332 193.818232 
L 323.201957 192.061877 
L 318.325193 190.49929 
L 313.389843 189.132971 
L 308.403803 187.965107 
L 303.37505 186.997565 
L 298.311627 186.231893 
L 293.221636 185.669317 
L 288.113219 185.310737 
L 286.242457 185.230682 
L 291.024967 187.061555 
L 295.876868 188.699714 
L 300.790396 190.142538 
L 305.757691 191.38772 
L 310.770807 192.433266 
L 315.821724 193.277506 
L 320.902362 193.919087 
L 326.004591 194.356983 
L 331.120251 194.590495 
L 336.241157 194.619248 
L 341.359116 194.443196 
L 346.465941 194.062622 
L 351.553463 193.478133 
L 353.404799 193.21405 
L 351.436059 188.486624 
L 349.279846 183.841708 
L 346.939611 179.286732 
L 344.419097 174.828984 
L 341.722338 170.475596 
L 338.853646 166.233532 
L 335.817611 162.109578 
L 332.619091 158.110332 
L 329.263202 154.242191 
L 325.755314 150.511344 
L 322.101037 146.92376 
L 318.306218 143.485177 
L 314.376927 140.201097 
L 310.319452 137.076774 
L 306.140283 134.117206 
L 301.846105 131.327127 
L 297.443789 128.711001 
L 292.940377 126.273014 
L 288.343073 124.017065 
L 283.659234 121.946764 
L 278.896351 120.065423 
L 274.062044 118.37605 
L 269.164047 116.88135 
L 264.210196 115.583713 
L 259.208415 114.485216 
L 254.166708 113.587615 
L 249.093139 112.892346 
L 243.995825 112.400522 
L 238.88292 112.11293 
L 233.762605 112.030029 
L 228.64307 112.151953 
L 223.532506 112.478506 
L 218.439089 113.009166 
L 213.370966 113.743084 
L 208.336246 114.679085 
L 203.342984 115.815673 
L 198.399167 117.151029 
L 193.512704 118.683017 
L 188.691414 120.409186 
L 183.943008 122.326774 
L 179.275084 124.432714 
L 174.695108 126.723637 
L 170.210409 129.195877 
L 165.82816 131.84548 
L 161.555372 134.668206 
L 157.398881 137.659541 
L 153.365336 140.814699 
L 149.46119 144.128631 
L 145.692689 147.596037 
L 142.065862 151.211369 
L 138.58651 154.968843 
L 135.260201 158.862449 
L 132.092255 162.885958 
L 129.08774 167.032932 
L 126.251464 171.296737 
L 123.587962 175.670553 
L 121.101498 180.147381 
L 118.796047 184.720061 
L 116.686864 189.354458 
L 121.784081 189.847281 
L 126.896929 190.135876 
L 132.017228 190.219781 
L 137.136787 190.098861 
L 142.247415 189.773311 
L 147.340936 189.24365 
L 152.409203 188.510726 
L 157.444106 187.575712 
L 162.437591 186.440103 
L 167.38167 185.105717 
L 172.268433 183.574688 
L 177.090062 181.849464 
L 181.838844 179.932807 
L 185.099904 178.48609 
L 180.146785 177.18566 
L 175.145625 176.084343 
L 170.104425 175.183899 
L 165.031249 174.48577 
L 159.934213 173.991072 
L 154.821471 173.700597 
L 149.701203 173.61481 
L 144.581601 173.733847 
L 139.470853 174.057518 
L 134.377137 174.585306 
L 129.308602 175.316366 
L 124.273355 176.249529 
L 119.279453 177.383301 
L 114.334883 178.71587 
L 111.1128 179.699896 
L 114.833004 176.180723 
L 118.409503 172.515596 
L 121.836575 168.710378 
L 125.108738 164.771159 
L 128.220757 160.704238 
L 131.167652 156.516123 
L 133.944711 152.213514 
L 136.54749 147.803293 
L 138.971825 143.292517 
L 141.213838 138.688402 
L 143.269942 133.998313 
L 145.136848 129.229753 
L 146.811569 124.390351 
L 148.291426 119.487849 
L 149.574052 114.53009 
L 150.657394 109.525005 
L 151.539719 104.480602 
L 152.219617 99.40495 
L 152.384555 97.871327 
L 156.477623 94.793779 
L 160.444347 91.555014 
L 164.278383 88.160213 
L 167.973595 84.614807 
L 171.524074 80.924468 
L 174.924138 77.095099 
L 178.168349 73.132827 
L 181.251516 69.043991 
L 184.168707 64.835131 
L 184.947396 63.648 
L 187.817737 67.888948 
L 190.855375 72.011721 
L 194.05545 76.009723 
L 197.412843 79.876558 
L 200.922183 83.606041 
L 204.577855 87.192204 
L 208.374011 90.62931 
L 212.304578 93.911861 
L 216.363268 97.034606 
L 220.543588 99.992549 
L 224.838851 102.780958 
L 229.242184 105.395371 
L 233.746544 107.831607 
L 238.344724 110.085767 
L 243.029369 112.154247 
L 247.792983 114.033736 
L 252.627947 115.721228 
L 257.526525 117.214023 
L 262.48088 118.509733 
L 267.483087 119.606285 
L 272.525143 120.501926 
L 277.598982 121.195221 
L 282.696487 121.685062 
L 287.809503 121.970666 
L 292.92985 122.051575 
L 298.049337 121.92766 
L 303.159774 121.59912 
L 308.252985 121.066479 
L 313.320822 120.33059 
L 318.355177 119.392631 
L 323.347997 118.254101 
L 328.291294 116.916822 
L 330.539293 116.23773 
L 326.843883 119.782931 
L 323.2932 123.473074 
L 319.892923 127.302254 
L 316.648493 131.264346 
L 313.565099 135.353011 
L 310.647675 139.561709 
L 307.900887 143.883706 
L 305.32913 148.312088 
L 302.936518 152.839771 
L 300.726879 157.459511 
L 298.703748 162.163917 
L 296.870361 166.945465 
L 295.229652 171.796503 
L 293.784245 176.709272 
L 292.536452 181.675913 
L 291.48827 186.688478 
L 290.641376 191.738951 
L 289.997124 196.81925 
L 289.556546 201.921249 
L 289.320345 207.036785 
L 289.2889 212.157675 
L 289.462262 217.275726 
L 289.840152 222.382751 
L 290.421966 227.470579 
L 291.206774 232.531071 
L 292.193319 237.556131 
L 293.380025 242.53772 
L 294.764991 247.467869 
L 296.346003 252.338691 
L 298.120532 257.142393 
L 300.085738 261.87129 
L 302.238477 266.517817 
L 304.575306 271.074541 
L 306.481003 274.48845 
L 301.36096 274.586771 
L 296.248945 274.88976 
L 291.153135 275.396932 
L 286.081683 276.107478 
L 281.042702 277.020258 
L 276.044252 278.133814 
L 271.094332 279.446364 
L 266.200859 280.955808 
L 261.371661 282.659732 
L 256.614466 284.555409 
L 254.639874 285.408 
L 249.915193 283.432679 
L 245.1153 281.647874 
L 240.247873 280.056441 
L 235.320699 278.660927 
L 230.341661 277.463564 
L 225.318724 276.466266 
L 220.259923 275.67063 
L 215.173352 275.077929 
L 210.067147 274.68911 
L 204.949479 274.504797 
L 199.828533 274.525282 
L 194.712503 274.750535 
L 189.609573 275.180194 
L 184.527907 275.813572 
L 179.475634 276.649656 
L 174.460836 277.687108 
L 169.491537 278.924269 
L 168.549297 279.182827 
L 172.133377 275.525113 
L 175.56832 271.727 
L 178.848632 267.794563 
L 181.969064 263.734095 
L 184.924625 259.55209 
L 187.710587 255.25524 
L 190.322491 250.850418 
L 192.756161 246.344671 
L 195.007702 241.745208 
L 197.073512 237.059386 
L 198.950287 232.294701 
L 200.635025 227.458777 
L 202.125029 222.55935 
L 203.417917 217.604257 
L 204.124515 214.484571 
L 199.512045 216.709346 
L 194.992232 219.116791 
L 190.572306 221.703054 
L 186.259339 224.463998 
L 182.06023 227.395207 
L 177.981696 230.491991 
L 174.030264 233.749395 
L 170.212254 237.162209 
L 166.533773 240.724973 
L 163.000708 244.431987 
L 159.61871 248.27732 
L 156.393189 252.254822 
L 154.467864 254.793069 
L 159.543696 254.114519 
L 164.588333 253.233532 
L 169.593705 252.151519 
L 174.551804 250.870209 
L 179.454699 249.391653 
L 184.294545 247.718217 
L 189.0636 245.852577 
L 193.754235 243.797717 
L 198.358945 241.556926 
L 202.870365 239.133788 
L 207.281276 236.53218 
L 211.584622 233.756264 
L 215.773519 230.810479 
L 219.841265 227.69954 
L 223.966077 224.268407 
L 225.937492 228.994719 
L 228.096332 233.638415 
L 230.439144 238.192066 
L 232.962179 242.648387 
L 235.661401 247.000249 
L 238.532492 251.240689 
L 241.570859 255.362925 
L 244.771641 259.360361 
L 248.129718 263.226603 
L 251.639717 266.955464 
L 255.296023 270.540981 
L 259.092787 273.977416 
L 263.023934 277.259272 
L 267.083176 280.3813 
L 271.26402 283.338503 
L 274.416581 285.408 
L 278.682704 282.57521 
L 282.832132 279.574086 
L 286.858229 276.40943 
L 290.754553 273.086305 
L 294.51487 269.610026 
L 298.133166 265.986156 
L 301.603651 262.220491 
L 304.920774 258.319055 
L 308.079228 254.288091 
L 311.073959 250.134047 
L 313.900178 245.863568 
L 316.553363 241.483486 
L 319.029268 237.000809 
L 321.323934 232.422708 
L 323.433689 227.756507 
L 325.355159 223.00967 
L 327.085268 218.189792 
L 328.62125 213.304584 
L 329.960647 208.36186 
L 331.101317 203.369529 
L 332.041434 198.335576 
L 332.779494 193.268055 
L 333.314318 188.175073 
L 333.645048 183.064777 
L 333.771157 177.945344 
L 333.692442 172.824962 
L 333.40903 167.711825 
L 332.921373 162.61411 
L 332.230252 157.539974 
L 331.336773 152.497535 
L 330.242364 147.494858 
L 328.948778 142.539948 
L 327.458082 137.640731 
L 325.772662 132.805045 
L 323.895215 128.040625 
L 321.828743 123.355095 
L 319.576554 118.755949 
L 317.142248 114.250545 
L 314.529722 109.846092 
L 311.743155 105.549635 
L 308.787004 101.368047 
L 305.665999 97.308019 
L 302.385132 93.376046 
L 298.949653 89.578417 
L 295.365057 85.921208 
L 291.637079 82.410271 
L 287.771683 79.051221 
L 283.775053 75.849433 
L 279.653582 72.810028 
L 275.413864 69.937869 
L 271.062682 67.237552 
L 266.606997 64.713395 
L 264.592766 63.648 
L 260.092865 66.092461 
L 255.694316 68.714915 
L 251.404155 71.511167 
L 247.229246 74.476742 
L 243.176268 77.606897 
L 239.251705 80.896624 
L 235.461835 84.340661 
L 231.812721 87.933497 
L 228.310201 91.669384 
L 224.959878 95.542347 
L 221.767113 99.546189 
L 218.737013 103.674505 
L 215.874424 107.920691 
L 213.183928 112.277953 
L 210.669828 116.73932 
L 208.336146 121.297657 
L 206.186615 125.945669 
L 204.224675 130.675922 
L 202.453464 135.480848 
L 202.213031 136.182163 
L 197.222077 137.328843 
L 192.28097 138.674191 
L 187.397614 140.216054 
L 182.579823 141.951966 
L 177.835304 143.87915 
L 173.171646 145.994523 
L 168.596312 148.2947 
L 164.116619 150.776001 
L 159.739736 153.434458 
L 155.472663 156.265817 
L 151.322228 159.265548 
L 147.29507 162.428854 
L 143.397631 165.750672 
L 139.636148 169.225689 
L 136.016637 172.848346 
L 132.544889 176.612846 
L 129.226457 180.513169 
L 126.066652 184.543073 
L 123.070527 188.696113 
L 120.242876 192.965644 
L 119.477581 194.188122 
L 124.592142 193.931667 
L 129.692356 193.470889 
L 134.770065 192.806526 
L 139.817144 191.93964 
L 144.82552 190.871618 
L 149.787181 189.604168 
L 154.694188 188.139319 
L 159.538691 186.479414 
L 164.312942 184.627108 
L 169.0093 182.585364 
L 173.620254 180.357449 
L 178.138427 177.946928 
L 182.556591 175.357656 
L 184.951176 173.852547 
L 180.663653 171.052253 
L 176.267578 168.425653 
L 171.769983 165.976951 
L 167.178064 163.710063 
L 162.499167 161.628616 
L 157.740776 159.73594 
L 152.910505 158.035063 
L 148.016081 156.528706 
L 143.065333 155.219279 
L 138.066183 154.108876 
L 133.026627 153.199273 
L 127.954727 152.491927 
L 122.858599 151.987969 
L 121.209091 151.868814 
L 124.139596 156.068415 
L 127.235695 160.147467 
L 130.492437 164.099446 
L 133.904611 167.918029 
L 137.466757 171.597106 
L 141.173179 175.130793 
L 145.017945 178.513436 
L 148.994906 181.739624 
L 153.097698 184.804195 
L 157.319759 187.702246 
L 161.654334 190.429142 
L 166.094488 192.980521 
L 170.633119 195.352299 
L 175.262965 197.540684 
L 179.97662 199.542173 
L 184.766543 201.353566 
L 189.62507 202.971964 
L 194.560498 204.399078 
L 194.335817 209.515133 
L 194.315903 214.636081 
L 194.500788 219.753728 
L 194.890177 224.859889 
L 195.483446 229.946394 
L 196.279647 235.005106 
L 197.277505 240.027932 
L 198.475424 245.006837 
L 199.871489 249.933855 
L 201.463465 254.801104 
L 203.248805 259.600798 
L 205.224654 264.325258 
L 207.387851 268.966926 
L 209.734934 273.518376 
L 212.26215 277.972328 
L 214.965455 282.321655 
L 217.03472 285.408 
L 219.863101 281.138953 
L 222.518503 276.760215 
L 224.996678 272.278792 
L 227.293662 267.701854 
L 229.405779 263.036721 
L 231.329652 258.290858 
L 233.062202 253.471857 
L 234.600657 248.587427 
L 235.942557 243.645382 
L 237.085754 238.653629 
L 238.02842 233.620152 
L 238.769046 228.553006 
L 239.099917 225.656825 
L 240.303457 230.634374 
L 241.705084 235.559812 
L 243.302554 240.425261 
L 245.093313 245.222936 
L 247.074495 249.945162 
L 249.242931 254.584385 
L 251.595152 259.133182 
L 254.127395 263.584277 
L 256.835609 267.930549 
L 259.715461 272.165045 
L 262.762344 276.28099 
L 265.971384 280.271801 
L 269.337446 284.131091 
L 270.512821 285.408 
L 273.930887 281.594691 
L 277.193727 277.647745 
L 280.296121 273.573478 
L 283.233106 269.378407 
L 285.999984 265.069244 
L 288.592329 260.652882 
L 291.005992 256.136386 
L 293.237113 251.526983 
L 295.282122 246.832045 
L 297.137748 242.059085 
L 298.801022 237.215737 
L 300.269284 232.309749 
L 301.540184 227.348972 
L 302.611689 222.34134 
L 303.482085 217.294864 
L 304.14998 212.217619 
L 304.614305 207.117727 
L 304.874317 202.003345 
L 304.9296 196.882657 
L 304.780067 191.763855 
L 304.425955 186.655126 
L 303.867832 181.564645 
L 303.106591 176.500554 
L 302.143449 171.470956 
L 300.979947 166.483896 
L 299.617946 161.547353 
L 298.059626 156.669225 
L 296.307479 151.857314 
L 294.364309 147.11932 
L 292.233223 142.462821 
L 289.917632 137.895268 
L 287.42124 133.423968 
L 284.748041 129.056073 
L 281.90231 124.798571 
L 278.888601 120.658274 
L 275.711735 116.641805 
L 272.376795 112.755589 
L 268.889114 109.005844 
L 265.254274 105.398569 
L 261.478088 101.939533 
L 257.566599 98.634272 
L 253.526063 95.488072 
L 249.362945 92.505968 
L 245.083904 89.692729 
L 240.695787 87.052856 
L 236.205613 84.590573 
L 231.620565 82.309818 
L 226.94798 80.214241 
L 222.195331 78.307194 
L 217.370222 76.591727 
L 212.480372 75.070585 
L 207.533604 73.746202 
L 202.537832 72.620697 
L 197.501048 71.695869 
L 192.431309 70.973199 
L 187.336727 70.453842 
L 182.225451 70.138629 
L 177.105658 70.028065 
L 171.985539 70.122327 
L 168.292661 70.317678 
L 170.640633 74.868671 
L 173.168717 79.32213 
L 175.872869 83.670929 
L 178.748765 87.908113 
L 181.791802 92.026903 
L 184.997112 96.020709 
L 188.359569 99.883142 
L 191.873792 103.608023 
L 195.534159 107.189393 
L 199.334815 110.621523 
L 203.26968 113.898922 
L 207.332458 117.016346 
L 211.51665 119.96881 
L 215.815562 122.751588 
L 220.222317 125.36023 
L 220.785783 125.676866 
L 222.927786 121.02538 
L 224.882066 116.291957 
L 226.645497 111.48417 
L 228.215257 106.60971 
L 229.588834 101.676376 
L 230.764032 96.69206 
L 231.738971 91.664735 
L 232.512091 86.602444 
L 233.082154 81.513286 
L 233.448249 76.405402 
L 233.609791 71.286964 
L 233.566521 66.166161 
L 233.47005 63.648 
L 233.440848 64.287499 
L 233.322397 69.407115 
L 233.408772 74.527373 
L 233.699832 79.640081 
L 234.195114 84.737061 
L 234.893824 89.810157 
L 235.794845 94.851254 
L 236.896736 99.852288 
L 238.197733 104.805258 
L 239.695756 109.70224 
L 241.388407 114.535399 
L 243.272979 119.297005 
L 245.431381 124.160934 
L 249.04199 120.529404 
L 252.504488 116.756394 
L 255.813337 112.847939 
L 258.963242 108.810291 
L 261.949165 104.64991 
L 264.766328 100.373452 
L 267.410226 95.987759 
L 269.876627 91.499846 
L 272.161587 86.916893 
L 274.26145 82.246231 
L 276.172857 77.495334 
L 277.89275 72.671801 
L 279.418377 67.783349 
L 280.544065 63.648 
L 281.905222 68.584775 
L 283.46271 73.46317 
L 285.214035 78.27538 
L 287.156396 83.013706 
L 289.286686 87.670568 
L 291.601497 92.238516 
L 294.097126 96.710243 
L 296.76958 101.078594 
L 299.614583 105.336582 
L 302.627585 109.477394 
L 305.803765 113.494405 
L 309.138042 117.38119 
L 312.625082 121.131531 
L 316.259307 124.739427 
L 320.034901 128.199107 
L 323.945826 131.505036 
L 327.985825 134.651926 
L 332.148434 137.634741 
L 336.426994 140.448711 
L 340.814661 143.089332 
L 345.304414 145.552382 
L 348.355356 147.096057 
L 348.106867 152.211011 
L 348.063121 157.33181 
L 348.224187 162.450263 
L 348.589807 167.558181 
L 349.159398 172.647392 
L 349.932047 177.709754 
L 350.906518 182.73717 
L 352.081253 187.721596 
L 353.54806 192.965916 
L 348.585773 194.230911 
L 343.678042 195.693333 
L 338.832718 197.350842 
L 334.057553 199.200787 
L 329.360185 201.240208 
L 324.748129 203.465841 
L 320.228765 205.874128 
L 315.809321 208.461215 
L 311.496868 211.222963 
L 307.298305 214.154953 
L 303.220348 217.252497 
L 299.269523 220.510637 
L 295.452148 223.924162 
L 291.774332 227.487611 
L 288.241957 231.195283 
L 284.860676 235.041247 
L 281.635896 239.019349 
L 278.572778 243.123226 
L 275.676221 247.346313 
L 272.950859 251.681853 
L 270.401053 256.12291 
L 268.030881 260.66238 
L 265.844135 265.293 
L 263.844315 270.007363 
L 262.034618 274.797927 
L 260.41794 279.657027 
L 258.996867 284.57689 
L 258.7777 285.408 
L 257.389688 280.478708 
L 255.805667 275.608864 
L 254.02817 270.806259 
L 252.060043 266.078577 
L 249.904434 261.433381 
L 247.56479 256.878102 
L 245.044855 252.420027 
L 242.34866 248.066289 
L 239.480519 243.823852 
L 236.44502 239.699504 
L 233.247019 235.699843 
L 229.891632 231.831267 
L 226.384228 228.099965 
L 222.730416 224.511906 
L 221.869439 223.707058 
L 216.852088 224.732092 
L 211.879741 225.956947 
L 206.960353 227.379663 
L 202.101793 228.997964 
L 197.311835 230.809261 
L 192.59814 232.810656 
L 187.96825 234.998948 
L 183.429572 237.370636 
L 178.989367 239.921926 
L 174.654737 242.648735 
L 170.432619 245.546703 
L 166.329765 248.611192 
L 162.35274 251.8373 
L 158.507906 255.219866 
L 156.049226 257.53207 
L 160.942533 256.022087 
L 165.771543 254.317631 
L 170.52853 252.421431 
L 175.205884 250.336518 
L 179.796122 248.066229 
L 184.291902 245.614195 
L 188.68603 242.984339 
L 192.971477 240.180869 
L 197.141387 237.208269 
L 201.189089 234.071295 
L 205.108108 230.774965 
L 208.892175 227.324552 
L 212.535234 223.725578 
L 214.969961 221.151836 
L 214.513014 226.252395 
L 214.260401 231.367147 
L 214.212525 236.48791 
L 214.369463 241.606491 
L 214.730965 246.714702 
L 215.296451 251.80437 
L 216.065018 256.867355 
L 217.035435 261.895554 
L 218.20615 266.880926 
L 219.57529 271.815493 
L 221.140666 276.691362 
L 222.899772 281.500733 
L 224.492779 285.408 
L 226.409409 280.659207 
L 228.134604 275.837568 
L 229.665605 270.950796 
L 230.999962 266.00671 
L 232.135542 261.013218 
L 233.070526 255.978309 
L 233.803421 250.910038 
L 234.333052 245.816514 
L 234.658573 240.705884 
L 234.779462 235.586325 
L 234.695528 230.466026 
L 234.433873 225.712181 
L 233.815738 230.795724 
L 233.401385 235.89992 
L 233.191477 241.016602 
L 233.186349 246.137586 
L 233.38601 251.254679 
L 233.790141 256.359694 
L 234.398094 261.444465 
L 235.208898 266.500857 
L 236.221255 271.52078 
L 237.433545 276.496205 
L 238.84383 281.419172 
L 240.145286 285.408 
L 241.716123 280.533887 
L 243.09079 275.600857 
L 244.267089 270.6168 
L 245.243138 265.58969 
L 246.017376 260.52757 
L 246.588564 255.438538 
L 246.955787 250.330736 
L 247.11846 245.212334 
L 247.07632 240.091521 
L 246.829437 234.976489 
L 246.378204 229.875421 
L 245.729721 224.839234 
L 246.025394 226.084953 
L 247.332192 231.036395 
L 248.835949 235.931619 
L 250.534261 240.762792 
L 252.424409 245.522187 
L 254.503371 250.20219 
L 256.767819 254.795312 
L 259.214133 259.294207 
L 261.838397 263.691676 
L 264.636414 267.980686 
L 267.603708 272.154374 
L 270.735531 276.206063 
L 274.026873 280.129272 
L 277.472469 283.917724 
L 278.906353 285.408 
L 282.412691 281.675696 
L 285.766972 277.806161 
L 288.96383 273.805586 
L 291.99815 269.680371 
L 294.865079 265.437115 
L 297.56003 261.082606 
L 300.078691 256.623812 
L 302.417033 252.067864 
L 304.571315 247.422052 
L 306.538092 242.693808 
L 308.314215 237.890696 
L 309.896845 233.0204 
L 311.283449 228.090711 
L 312.471809 223.109516 
L 313.460023 218.084784 
L 314.246512 213.024553 
L 314.830016 207.936918 
L 315.209602 202.83002 
L 315.384663 197.712026 
L 315.354919 192.591126 
L 315.120417 187.475512 
L 314.681533 182.373367 
L 314.038969 177.292854 
L 313.193752 172.2421 
L 312.147235 167.229187 
L 310.901092 162.262132 
L 309.457316 157.348883 
L 307.818218 152.4973 
L 305.98642 147.715144 
L 303.964851 143.010066 
L 301.756747 138.389592 
L 299.365639 133.861115 
L 296.795353 129.431879 
L 294.050001 125.10897 
L 291.133974 120.899304 
L 288.051938 116.809615 
L 284.808824 112.846445 
L 281.409819 109.016136 
L 277.860362 105.324815 
L 274.16613 101.778386 
L 270.333034 98.382525 
L 266.367206 95.142662 
L 262.27499 92.063982 
L 258.062933 89.15141 
L 253.737773 86.409605 
L 249.30643 83.842953 
L 244.775993 81.45556 
L 240.15371 79.251247 
L 235.446975 77.233539 
L 230.663318 75.405663 
L 225.810392 73.770546 
L 220.89596 72.330801 
L 215.927885 71.088733 
L 210.914115 70.046328 
L 205.86267 69.205255 
L 200.781631 68.566858 
L 195.679128 68.13216 
L 190.563323 67.901854 
L 185.4424 67.876311 
L 180.324552 68.05557 
L 175.217966 68.439345 
L 170.130812 69.027022 
L 168.941245 69.194298 
L 170.931697 73.912625 
L 173.10924 78.54758 
L 175.47039 83.091749 
L 178.011369 87.537863 
L 180.728113 91.878808 
L 183.616275 96.10764 
L 186.671236 100.217593 
L 189.888107 104.202094 
L 193.261742 108.054767 
L 196.786744 111.769448 
L 200.457475 115.340196 
L 204.268061 118.761297 
L 208.212407 122.027279 
L 212.284202 125.132917 
L 215.728726 127.566708 
L 216.399767 122.489878 
L 216.867252 117.390274 
L 217.130434 112.276055 
L 217.188891 107.155402 
L 217.042529 102.036508 
L 216.691584 96.927561 
L 216.136615 91.836735 
L 215.378512 86.772173 
L 214.418487 81.741979 
L 213.258076 76.754199 
L 211.899135 71.816813 
L 210.343838 66.93772 
L 209.171908 63.648 
L 207.48412 68.48286 
L 205.991025 73.381347 
L 204.695011 78.335623 
L 203.598153 83.337762 
L 202.702204 88.379764 
L 202.008598 93.45356 
L 201.518444 98.551035 
L 201.232527 103.664034 
L 201.151304 108.784376 
L 201.274906 113.903871 
L 201.603133 119.014327 
L 202.135462 124.107571 
L 202.87104 129.175453 
L 203.918994 134.737079 
L 199.196707 132.756042 
L 194.398977 130.96543 
L 189.53348 129.368108 
L 184.607998 127.966632 
L 179.630413 126.763244 
L 174.608686 125.759869 
L 169.550851 124.958112 
L 164.465001 124.359256 
L 159.359271 123.964258 
L 154.24183 123.773751 
L 149.120863 123.78804 
L 144.004564 124.007101 
L 138.901118 124.430585 
L 136.92383 124.650088 
L 139.036579 129.314935 
L 141.334182 133.891563 
L 143.812963 138.37265 
L 146.468957 142.751028 
L 149.297915 147.019693 
L 152.295311 151.171815 
L 155.456351 155.200752 
L 158.775976 159.100058 
L 162.248877 162.863496 
L 165.869497 166.485044 
L 169.632044 169.95891 
L 173.530499 173.279535 
L 177.558625 176.441607 
L 181.709979 179.440067 
L 185.488555 181.957975 
L 182.230632 185.908979 
L 179.133312 189.987106 
L 176.201552 194.18583 
L 173.440041 198.498434 
L 170.853197 202.918021 
L 168.445159 207.437518 
L 166.219778 212.049695 
L 164.180616 216.747175 
L 162.330933 221.522442 
L 160.67369 226.367858 
L 159.211538 231.275669 
L 157.946815 236.238025 
L 156.881545 241.246987 
L 156.017433 246.294542 
L 155.35586 251.372615 
L 154.95844 255.642772 
L 159.618466 257.766131 
L 164.359677 259.70144 
L 169.174487 261.445604 
L 174.055194 262.995831 
L 178.993989 264.349642 
L 183.982971 265.504871 
L 189.01416 266.45967 
L 194.079506 267.212511 
L 199.170906 267.76219 
L 204.280215 268.107828 
L 209.399259 268.248872 
L 214.519848 268.185095 
L 219.633791 267.916601 
L 224.732907 267.443818 
L 229.809037 266.767503 
L 234.854062 265.888738 
L 239.85991 264.808929 
L 244.818573 263.529803 
L 249.722118 262.053407 
L 254.562701 260.382102 
L 259.332577 258.518562 
L 264.024116 256.465768 
L 268.629813 254.227005 
L 273.142299 251.805855 
L 277.554355 249.206189 
L 281.858924 246.432168 
L 286.049117 243.488229 
L 290.118233 240.379081 
L 294.059762 237.1097 
L 297.867397 233.685314 
L 301.535047 230.111403 
L 305.056846 226.393683 
L 308.427158 222.538103 
L 311.640592 218.550831 
L 314.692008 214.438245 
L 317.576523 210.206924 
L 320.289523 205.863638 
L 322.826668 201.415336 
L 325.183899 196.869132 
L 327.357445 192.232301 
L 329.343828 187.512261 
L 331.139871 182.716561 
L 332.742701 177.852876 
L 334.149753 172.928984 
L 335.358776 167.952764 
L 336.367836 162.932177 
L 337.17532 157.875254 
L 337.779934 152.790085 
L 338.180713 147.684805 
L 338.377014 142.567583 
L 338.368524 137.446603 
L 338.155256 132.33006 
L 337.905759 128.996824 
L 333.654415 126.141904 
L 329.292304 123.459275 
L 324.826407 120.953231 
L 320.263866 118.627779 
L 315.611982 116.48664 
L 310.878196 114.533239 
L 306.070082 112.770702 
L 301.195331 111.201849 
L 296.261741 109.829188 
L 291.277206 108.654916 
L 286.2497 107.680911 
L 281.187266 106.908733 
L 276.098002 106.339615 
L 270.99005 105.974469 
L 265.871583 105.813878 
L 260.750787 105.8581 
L 255.635856 106.107064 
L 250.534973 106.560372 
L 245.456296 107.217298 
L 240.407953 108.076791 
L 235.398018 109.137476 
L 230.434507 110.397658 
L 225.525359 111.855318 
L 220.67843 113.508126 
L 215.901472 115.353438 
L 211.202128 117.388301 
L 206.587915 119.60946 
L 202.066217 122.013361 
L 197.644265 124.59616 
L 193.329135 127.353723 
L 189.12773 130.28164 
L 185.046771 133.375226 
L 181.092787 136.629532 
L 177.272103 140.039352 
L 173.590831 143.599232 
L 170.054862 147.303476 
L 166.669851 151.146157 
L 163.441214 155.12113 
L 160.374116 159.222034 
L 157.473464 163.442308 
L 154.743898 167.775202 
L 152.189784 172.213784 
L 149.81521 176.750953 
L 147.623974 181.37945 
L 145.619581 186.091871 
L 143.805238 190.880676 
L 142.183847 195.738206 
L 140.758002 200.656688 
L 139.529985 205.628255 
L 138.50176 210.644953 
L 137.674972 215.698756 
L 137.050943 220.781579 
L 136.753492 224.110877 
L 141.413518 226.234236 
L 146.154729 228.169546 
L 150.969539 229.913709 
L 155.850246 231.463936 
L 160.789041 232.817748 
L 165.778024 233.972977 
L 170.809212 234.927775 
L 175.874559 235.680617 
L 180.965959 236.230296 
L 186.075267 236.575934 
L 191.194311 236.716977 
L 196.3149 236.653201 
L 201.428843 236.384706 
L 206.527959 235.911924 
L 211.604089 235.235609 
L 216.649114 234.356844 
L 221.654962 233.277035 
L 226.613625 231.997909 
L 231.51717 230.521512 
L 236.357753 228.850207 
L 241.127629 226.986667 
L 246.237011 224.740087 
L 251.35698 224.842172 
L 256.476936 224.739431 
L 261.588687 224.432028 
L 266.684057 223.920456 
L 271.754894 223.205532 
L 276.793085 222.288401 
L 281.790571 221.170529 
L 286.739357 219.853706 
L 291.631525 218.340037 
L 296.459249 216.631945 
L 301.214806 214.732161 
L 305.890589 212.643725 
L 310.479115 210.369979 
L 314.973046 207.914559 
L 319.365192 205.281394 
L 323.648526 202.474696 
L 327.816195 199.498955 
L 331.861534 196.358933 
L 335.778068 193.059652 
L 339.559534 189.60639 
L 343.199882 186.004672 
L 346.693287 182.26026 
L 350.034162 178.379144 
L 353.217161 174.367534 
L 356.237192 170.231846 
L 359.177729 165.840957 
L 354.067843 166.177959 
L 348.975522 166.719031 
L 343.90891 167.46331 
L 338.876115 168.409603 
L 333.885187 169.556398 
L 328.94411 170.90186 
L 324.06079 172.443835 
L 319.243039 174.179858 
L 314.498564 176.107151 
L 309.834955 178.22263 
L 305.259673 180.522912 
L 300.780038 183.004317 
L 296.403215 185.662874 
L 292.136208 188.494331 
L 287.985842 191.494158 
L 283.958756 194.657556 
L 282.847426 195.577564 
L 283.08563 200.693007 
L 283.528207 205.794833 
L 284.174449 210.874879 
L 285.023321 215.92502 
L 286.073466 220.937175 
L 287.323204 225.903326 
L 288.770535 230.815528 
L 290.413144 235.665924 
L 292.248404 240.446753 
L 294.273377 245.150367 
L 296.484825 249.769241 
L 298.87921 254.295986 
L 301.452702 258.723361 
L 304.201182 263.044282 
L 307.120255 267.251836 
L 309.112671 269.930268 
L 304.022079 269.373149 
L 298.913281 269.020044 
L 293.794449 268.87152 
L 288.673772 268.927813 
L 283.559442 269.188833 
L 278.459641 269.654164 
L 273.382528 270.32306 
L 268.336224 271.194451 
L 263.328804 272.266943 
L 258.368277 273.538821 
L 253.462579 275.00805 
L 248.619559 276.672279 
L 243.846964 278.528846 
L 239.15243 280.574781 
L 234.543466 282.806811 
L 229.69572 285.408 
L 225.186898 282.980031 
L 220.584591 280.73431 
L 215.896159 278.674428 
L 211.129105 276.803681 
L 206.291054 275.125061 
L 201.389746 273.641255 
L 196.433022 272.354636 
L 191.428812 271.267262 
L 186.385121 270.380872 
L 181.310019 269.696886 
L 176.211624 269.216397 
L 171.098092 268.940173 
L 165.977605 268.868657 
L 162.631323 268.932596 
L 165.245624 264.529196 
L 167.681745 260.024774 
L 169.935788 255.426536 
L 172.004148 250.741839 
L 173.883515 245.978176 
L 175.570883 241.143169 
L 177.063553 236.244553 
L 178.359137 231.290165 
L 179.455561 226.28793 
L 180.351072 221.245851 
L 181.044238 216.171994 
L 181.533949 211.074476 
L 181.819422 205.961453 
L 181.900201 200.841104 
L 181.776155 195.72162 
L 181.447484 190.611192 
L 180.914713 185.517995 
L 180.178695 180.450177 
L 179.240606 175.415845 
L 178.101949 170.423054 
L 176.764544 165.479791 
L 175.230531 160.593964 
L 173.502364 155.77339 
L 171.582808 151.025779 
L 169.474933 146.358728 
L 167.182113 141.779702 
L 164.708014 137.296028 
L 162.056595 132.914877 
L 159.232097 128.64326 
L 156.23904 124.488009 
L 153.082211 120.455772 
L 149.766661 116.553 
L 146.297693 112.785937 
L 144.711946 111.160676 
L 149.688142 112.369799 
L 154.708709 113.37896 
L 159.765616 114.186544 
L 164.850773 114.79126 
L 169.956044 115.192141 
L 175.073263 115.388544 
L 180.194243 115.380156 
L 185.310791 115.16699 
L 190.414721 114.749388 
L 195.49787 114.128016 
L 200.552104 113.30387 
L 205.569339 112.278268 
L 210.541547 111.05285 
L 215.460774 109.629578 
L 220.319151 108.010727 
L 225.108904 106.198887 
L 229.822372 104.196958 
L 234.452014 102.008142 
L 238.990424 99.63594 
L 243.43034 97.084148 
L 247.764661 94.356848 
L 251.986452 91.458402 
L 256.088958 88.393449 
L 260.065618 85.16689 
L 263.910069 81.783889 
L 267.616161 78.249856 
L 271.177965 74.570446 
L 274.589782 70.751546 
L 277.846155 66.799263 
L 280.259988 63.648 
L 283.392275 67.699331 
L 286.684067 71.622163 
L 290.130097 75.41022 
L 293.724852 79.057443 
L 297.462582 82.557997 
L 301.337307 85.906281 
L 305.342828 89.09694 
L 309.472738 92.124868 
L 313.720429 94.985222 
L 318.079106 97.673425 
L 320.684162 99.168144 
L 320.712766 104.28905 
L 320.946128 109.404717 
L 321.383876 114.506959 
L 322.025309 119.587615 
L 322.8694 124.638557 
L 323.914801 129.651703 
L 325.159837 134.619035 
L 326.602518 139.532606 
L 328.240536 144.384554 
L 330.071269 149.167118 
L 332.09179 153.872646 
L 334.298865 158.493611 
L 336.688964 163.022621 
L 339.258263 167.452429 
L 342.002653 171.77595 
L 344.917742 175.986266 
L 347.998866 180.076641 
L 351.241098 184.040533 
L 354.63925 187.871599 
L 355.783277 189.094407 
L 350.780266 188.001529 
L 345.737553 187.109592 
L 340.663206 186.420023 
L 335.565343 185.933925 
L 330.452119 185.652076 
L 325.331713 185.574928 
L 320.212319 185.702602 
L 315.102125 186.034896 
L 310.009306 186.571277 
L 304.942012 187.310887 
L 299.908346 188.252544 
L 294.916364 189.39474 
L 289.97405 190.735649 
L 285.089312 192.273125 
L 284.070778 192.621017 
L 286.682942 197.025684 
L 289.469157 201.32237 
L 292.424965 205.5042 
L 295.545637 209.564484 
L 298.826182 213.496727 
L 302.261349 217.294637 
L 305.845645 220.95214 
L 309.573335 224.463383 
L 313.438455 227.82275 
L 317.434823 231.024866 
L 321.556044 234.064609 
L 325.795527 236.937115 
L 327.52484 238.039456 
L 326.390802 237.445154 
L 321.796932 235.182223 
L 317.116243 233.104807 
L 312.356224 231.216231 
L 307.524489 229.519515 
L 302.628769 228.017375 
L 297.676895 226.712213 
L 292.67679 225.606117 
L 287.636452 224.700856 
L 282.563945 223.997879 
L 277.467385 223.498311 
L 272.354923 223.202951 
L 267.234739 223.11227 
L 262.115025 223.226415 
L 257.003971 223.545203 
L 251.909753 224.068123 
L 246.840521 224.794339 
L 241.804385 225.72269 
L 236.809401 226.85169 
L 231.863561 228.179533 
L 226.974777 229.704094 
L 222.150869 231.422936 
L 217.399555 233.333307 
L 212.728436 235.432152 
L 208.144985 237.716113 
L 203.656535 240.181536 
L 199.270265 242.824478 
L 194.993193 245.640709 
L 190.832162 248.625725 
L 186.793828 251.77475 
L 182.884651 255.082747 
L 179.110886 258.544423 
L 175.47857 262.15424 
L 171.993513 265.906424 
L 168.661292 269.794971 
L 165.465767 273.841997 
L 170.533288 273.103937 
L 175.567241 272.16382 
L 180.559573 271.02315 
L 185.502297 269.683753 
L 190.387505 268.147771 
L 195.207383 266.417661 
L 199.954219 264.496192 
L 204.620421 262.386436 
L 209.198522 260.09177 
L 213.681199 257.615865 
L 218.06128 254.96268 
L 222.331759 252.136461 
L 226.485803 249.14173 
L 230.516767 245.983276 
L 234.418203 242.666153 
L 238.183868 239.195668 
L 241.807738 235.577372 
L 245.284017 231.817054 
L 248.607142 227.92073 
L 251.771798 223.894633 
L 252.35696 223.112548 
L 257.294219 224.471951 
L 262.28189 225.632829 
L 267.311995 226.593324 
L 272.376485 227.351901 
L 277.46726 227.907345 
L 282.576174 228.258769 
L 287.695055 228.405609 
L 292.815713 228.347631 
L 297.929956 228.084927 
L 303.029604 227.617919 
L 308.106497 226.947353 
L 313.152514 226.074301 
L 318.159581 225.000161 
L 323.119689 223.726651 
L 328.024903 222.255808 
L 332.867375 220.589986 
L 337.639359 218.731848 
L 339.002026 218.160387 
L 338.283697 213.090031 
L 337.363182 208.052457 
L 336.241954 203.055723 
L 334.921808 198.107823 
L 333.404854 193.216672 
L 331.693519 188.390096 
L 329.790542 183.635816 
L 327.698967 178.961438 
L 325.422139 174.374439 
L 322.963702 169.882158 
L 320.327588 165.491782 
L 317.518014 161.210334 
L 314.539475 157.044664 
L 311.396736 153.001435 
L 308.094825 149.087117 
L 304.639025 145.307971 
L 301.034863 141.670043 
L 297.288106 138.179153 
L 293.404747 134.840886 
L 289.391 131.660582 
L 285.253285 128.643329 
L 280.998221 125.793954 
L 276.632617 123.117015 
L 272.163456 120.616796 
L 267.597887 118.297294 
L 262.943215 116.162223 
L 258.206886 114.214996 
L 253.396478 112.458729 
L 248.519685 110.896233 
L 243.58431 109.530006 
L 238.598249 108.362234 
L 233.569477 107.394785 
L 228.50604 106.629208 
L 223.416039 106.066726 
L 218.307615 105.70824 
L 213.188942 105.554324 
L 208.068209 105.605222 
L 202.953607 105.860855 
L 197.853319 106.320813 
L 192.775503 106.98436 
L 187.728285 107.850434 
L 182.719737 108.917651 
L 177.757873 110.184303 
L 172.85063 111.648363 
L 168.00586 113.30749 
L 163.231312 115.159028 
L 158.534625 117.200016 
L 153.923313 119.427189 
L 149.404752 121.836984 
L 144.986172 124.425546 
L 140.674641 127.188733 
L 136.477057 130.122125 
L 132.400135 133.22103 
L 131.612026 133.850402 
L 130.926759 138.925332 
L 130.444983 144.023605 
L 130.167469 149.137067 
L 130.094661 154.257536 
L 130.226675 159.37682 
L 130.5633 164.486731 
L 131.103998 169.579092 
L 131.847903 174.645758 
L 132.793827 179.678624 
L 133.940254 184.669636 
L 135.285352 189.610811 
L 136.826968 194.494245 
L 138.562636 199.312124 
L 140.48958 204.056741 
L 142.604716 208.720505 
L 144.904661 213.295957 
L 147.385736 217.775775 
L 150.043971 222.152793 
L 152.875114 226.420009 
L 155.874636 230.570596 
L 159.037737 234.597914 
L 162.359358 238.49552 
L 165.834185 242.25718 
L 169.456658 245.876874 
L 173.220983 249.348813 
L 177.121138 252.667442 
L 181.150882 255.827451 
L 185.30377 258.823786 
L 189.573158 261.651653 
L 193.952215 264.306529 
L 198.433935 266.784165 
L 203.01115 269.080598 
L 207.676537 271.192154 
L 212.422631 273.115456 
L 217.241841 274.847426 
L 222.126456 276.385294 
L 227.068662 277.726599 
L 232.060553 278.869196 
L 237.094143 279.811256 
L 242.161378 280.551273 
L 247.254153 281.088062 
L 252.364321 281.420766 
L 257.483705 281.548851 
L 262.604117 281.472113 
L 267.717363 281.190675 
L 272.815266 280.704986 
L 277.889668 280.015824 
L 282.932452 279.124291 
L 287.935551 278.031814 
L 292.89096 276.740141 
L 297.790752 275.251336 
L 302.627089 273.567784 
L 307.392233 271.692176 
L 308.321614 271.300418 
L 307.603285 266.230062 
L 306.682771 261.192488 
L 305.561543 256.195754 
L 304.241396 251.247854 
L 302.724443 246.356703 
L 301.013108 241.530127 
L 299.110131 236.775847 
L 297.018556 232.101469 
L 294.741728 227.51447 
L 292.283291 223.022189 
L 289.647176 218.631813 
L 286.837602 214.350365 
L 283.859064 210.184695 
L 280.716325 206.141466 
L 278.447075 203.417499 
L 283.31399 205.010496 
L 288.240715 206.407594 
L 293.219368 207.606558 
L 298.241985 208.60547 
L 303.30053 209.402732 
L 308.38691 209.997068 
L 313.492989 210.387528 
L 318.610598 210.573487 
L 323.73155 210.554647 
L 328.847652 210.331039 
L 333.95072 209.90302 
L 339.03259 209.271276 
L 344.085131 208.436816 
L 344.680646 208.324727 
L 342.899743 203.523385 
L 340.928262 198.7971 
L 338.769357 194.153434 
L 336.426482 189.599816 
L 333.903385 185.143531 
L 331.204102 180.791707 
L 328.332952 176.551306 
L 325.294527 172.429113 
L 322.093689 168.431721 
L 318.735558 164.565527 
L 315.225507 160.836714 
L 311.569151 157.251249 
L 307.77234 153.814866 
L 303.841146 150.533065 
L 299.78186 147.411095 
L 295.600976 144.453949 
L 291.305181 141.66636 
L 286.901349 139.052787 
L 282.396525 136.617411 
L 277.797915 134.364127 
L 273.112876 132.296542 
L 268.348903 130.417962 
L 263.513617 128.731392 
L 258.614755 127.239532 
L 253.660152 125.944767 
L 234.695616 121.535495 
L 229.639039 120.72585 
L 224.554129 120.119061 
L 219.449021 119.7161 
L 214.331883 119.517611 
L 209.2109 119.523912 
L 204.094266 119.734993 
L 198.990165 120.150515 
L 193.906764 120.769815 
L 188.852194 121.591901 
L 183.834542 122.615458 
L 178.861835 123.838849 
L 173.942028 125.260117 
L 169.082992 126.876988 
L 164.2925 128.686875 
L 159.578217 130.686883 
L 154.947683 132.873812 
L 150.408307 135.244164 
L 145.967351 137.794147 
L 141.631919 140.51968 
L 137.408948 143.416405 
L 133.305192 146.479686 
L 129.327218 149.704624 
L 125.481389 153.086058 
L 121.773857 156.61858 
L 118.210554 160.296538 
L 114.79718 164.114048 
L 112.674017 166.651996 
L 110.94946 171.473863 
L 109.340806 176.630713 
L 114.335761 177.75984 
L 119.371874 178.688319 
L 124.441087 179.414664 
L 129.535292 179.937714 
L 134.646338 180.256632 
L 139.766049 180.370907 
L 144.886235 180.280357 
L 149.998704 179.985126 
L 155.095278 179.485688 
L 160.167802 178.78284 
L 165.208163 177.877708 
L 170.208297 176.771739 
L 175.160204 175.466703 
L 180.055962 173.964687 
L 184.998455 172.226655 
L 180.340477 170.098805 
L 175.601134 168.158926 
L 170.788008 166.410122 
L 165.908798 164.855191 
L 160.97131 163.49662 
L 155.983443 162.336583 
L 150.953177 161.376935 
L 145.888559 160.619211 
L 140.797691 160.064625 
L 135.688718 159.714062 
L 130.569812 159.568084 
L 125.449164 159.626925 
L 120.334965 159.89049 
L 116.378542 160.235571 
L 118.564813 164.866415 
L 120.93452 169.406128 
L 123.483872 173.847446 
L 126.20879 178.183265 
L 129.104914 182.406648 
L 132.167613 186.510839 
L 135.391985 190.489271 
L 138.772873 194.335581 
L 142.304868 198.043614 
L 145.98232 201.60744 
L 149.799345 205.021356 
L 153.749837 208.279901 
L 157.827476 211.377861 
L 162.025739 214.310282 
L 166.337909 217.072471 
L 170.757088 219.66001 
L 175.276206 222.06876 
L 179.888034 224.294866 
L 184.585193 226.334767 
L 189.360169 228.185201 
L 194.205323 229.843206 
L 199.112905 231.30613 
L 204.075062 232.571634 
L 209.083856 233.637691 
L 214.131275 234.502598 
L 219.209244 235.16497 
L 224.309639 235.623747 
L 229.4243 235.878197 
L 234.545045 235.92791 
L 239.663682 235.772809 
L 244.772022 235.413141 
L 249.861893 234.849482 
L 254.925153 234.082732 
L 259.953701 233.11412 
L 264.939492 231.945194 
L 269.87455 230.577825 
L 274.750981 229.0142 
L 279.560983 227.25682 
L 284.296861 225.308498 
L 288.951039 223.172349 
L 293.516071 220.851791 
L 297.984653 218.350537 
L 302.349638 215.672588 
L 306.604042 212.822229 
L 310.741058 209.804018 
L 314.75407 206.622785 
L 318.636656 203.28362 
L 322.382605 199.791863 
L 325.985925 196.153101 
L 329.440851 192.373155 
L 332.741856 188.458073 
L 335.883659 184.414118 
L 338.861233 180.247758 
L 341.669816 175.96566 
L 344.304915 171.574674 
L 346.762312 167.081824 
L 349.038079 162.494299 
L 351.128572 157.819437 
L 352.540194 154.344409 
L 347.464021 153.668415 
L 342.364876 153.195955 
L 337.250916 152.927784 
L 332.130322 152.864331 
L 327.011288 153.005699 
L 321.902001 153.35166 
L 316.810635 153.901661 
L 311.745337 154.654822 
L 306.714208 155.609939 
L 301.725299 156.765484 
L 296.786589 158.119607 
L 291.905981 159.670143 
L 287.091281 161.414611 
L 285.797322 161.921014 
L 290.868929 161.211568 
L 295.908108 160.29988 
L 300.906798 159.187408 
L 305.857003 157.875931 
L 310.750804 156.367548 
L 315.58037 154.664671 
L 320.337977 152.770025 
L 325.016012 150.686642 
L 329.606992 148.417853 
L 334.103573 145.967289 
L 338.49856 143.33887 
L 342.784924 140.536801 
L 344.059477 139.655377 
L 343.479908 139.927243 
L 338.893762 142.205788 
L 334.402402 144.665907 
L 330.013013 147.303665 
L 325.732617 150.114841 
L 321.568062 153.094939 
L 317.526011 156.239191 
L 313.612929 159.542567 
L 309.835077 162.999783 
L 306.198499 166.605306 
L 302.709012 170.35337 
L 299.372199 174.237978 
L 296.193398 178.252916 
L 293.177694 182.39176 
L 290.329912 186.64789 
L 287.654608 191.014496 
L 285.156061 195.484593 
L 282.838269 200.05103 
L 280.70494 204.7065 
L 278.759487 209.443558 
L 277.005021 214.254623 
L 275.444351 219.132001 
L 274.079971 224.067887 
L 272.914066 229.054385 
L 271.9485 234.083519 
L 271.184818 239.147242 
L 270.624242 244.237454 
L 270.267669 249.346011 
L 270.115668 254.464741 
L 270.168484 259.585455 
L 270.426032 264.699961 
L 270.887899 269.800077 
L 271.553347 274.877643 
L 272.421311 279.924537 
L 273.602809 285.408 
L 274.690998 280.403967 
L 275.578209 275.360421 
L 276.263022 270.28543 
L 276.744342 265.187113 
L 277.021398 260.073627 
L 277.093748 254.953152 
L 276.961276 249.833879 
L 276.624194 244.723999 
L 276.08304 239.631685 
L 275.338681 234.565086 
L 274.392307 229.532305 
L 273.245433 224.541395 
L 271.899893 219.60034 
L 270.35784 214.717045 
L 269.811213 213.133644 
L 274.409226 215.388145 
L 279.093717 217.456972 
L 283.857192 219.336815 
L 288.692031 221.024665 
L 293.590498 222.517823 
L 298.544757 223.813901 
L 303.546883 224.910824 
L 308.588873 225.806839 
L 313.66266 226.50051 
L 318.760129 226.99073 
L 323.873124 227.276713 
L 328.993465 227.358002 
L 333.75425 227.249801 
L 331.288889 222.761316 
L 328.64601 218.375009 
L 325.829839 214.097897 
L 322.844881 209.936824 
L 319.695913 205.898446 
L 316.387972 201.989222 
L 312.926349 198.215409 
L 309.316583 194.583042 
L 305.564448 191.097932 
L 301.675948 187.765656 
L 297.657302 184.591543 
L 293.514941 181.580673 
L 289.25549 178.737861 
L 287.286678 177.505031 
L 291.888797 175.258923 
L 296.397414 172.830576 
L 300.805318 170.223875 
L 305.105455 167.44299 
L 309.290947 164.49237 
L 313.355097 161.376734 
L 317.291404 158.101069 
L 321.093571 154.670613 
L 324.755516 151.090855 
L 328.271378 147.367521 
L 331.635535 143.506569 
L 334.842604 139.514175 
L 337.887455 135.396726 
L 339.90687 132.46285 
L 334.804515 132.899286 
L 329.723694 133.539413 
L 324.672536 134.382206 
L 319.659121 135.426317 
L 314.691469 136.670077 
L 309.777528 138.111495 
L 304.925159 139.748265 
L 300.142124 141.577768 
L 295.436077 143.597079 
L 290.814544 145.802966 
L 286.28492 148.191901 
L 281.603551 150.912676 
L 286.25646 148.773765 
L 290.820114 146.450498 
L 295.287211 143.946592 
L 299.650605 141.266053 
L 303.903317 138.413169 
L 308.038541 135.392504 
L 312.049664 132.20889 
L 315.930267 128.86742 
L 319.674143 125.373441 
L 323.275303 121.732541 
L 326.727985 117.950545 
L 329.582253 114.580088 
L 324.545674 115.506035 
L 319.550152 116.632651 
L 314.603679 117.958133 
L 309.714167 119.48036 
L 304.889439 121.196899 
L 300.137214 123.105002 
L 295.465094 125.201617 
L 290.880553 127.48339 
L 286.390926 129.946671 
L 282.003396 132.587518 
L 277.72498 135.401708 
L 273.562524 138.384737 
L 272.919005 138.868844 
L 276.052601 134.818526 
L 279.021721 130.646137 
L 281.821614 126.358352 
L 284.447803 121.962031 
L 286.896084 117.464207 
L 289.162543 112.872076 
L 291.243552 108.192984 
L 293.135783 103.434417 
L 294.836208 98.603986 
L 296.342107 93.709421 
L 297.651072 88.758551 
L 298.761007 83.759297 
L 299.670138 78.719656 
L 300.37701 73.64769 
L 300.880492 68.551514 
L 301.097591 65.243207 
L 297.852594 63.648 
L 293.270249 65.934178 
L 288.782991 68.401773 
L 284.398001 71.046837 
L 280.122292 73.865137 
L 275.962706 76.852166 
L 271.925896 80.003144 
L 268.01832 83.313032 
L 264.24623 86.776533 
L 260.615661 90.388108 
L 257.13242 94.141977 
L 253.80208 98.032136 
L 250.629969 102.052362 
L 247.621162 106.196222 
L 244.780471 110.457088 
L 242.112442 114.828143 
L 239.621343 119.302395 
L 237.571524 123.334177 
L 235.494792 118.653185 
L 233.232532 114.058985 
L 230.788362 109.558925 
L 228.166192 105.160206 
L 225.370219 100.869864 
L 222.404913 96.694763 
L 219.275021 92.641583 
L 215.985548 88.716807 
L 212.541757 84.926714 
L 208.949157 81.277367 
L 205.213496 77.774605 
L 201.34075 74.424032 
L 197.337115 71.231008 
L 193.208995 68.20064 
L 188.962995 65.337777 
L 186.272704 63.648 
L 181.956979 66.404632 
L 177.754942 69.331642 
L 173.673315 72.424347 
L 169.718629 75.677799 
L 165.897209 79.086795 
L 162.215169 82.64588 
L 159.627585 85.326032 
L 158.242323 90.256098 
L 157.05532 95.237617 
L 156.068474 100.262618 
L 155.283364 105.323063 
L 154.701246 110.410856 
L 154.323051 115.517858 
L 154.149384 120.635899 
L 154.180522 125.756791 
L 154.416417 130.872341 
L 154.856691 135.974366 
L 155.500639 141.054704 
L 156.347232 146.105227 
L 157.395114 151.117856 
L 158.64261 156.08457 
L 160.087723 160.997426 
L 161.728143 165.848562 
L 163.561244 170.630219 
L 165.584094 175.334747 
L 167.793457 179.954619 
L 170.185798 184.482445 
L 172.75729 188.91098 
L 175.50382 193.233142 
L 178.420993 197.442014 
L 181.504142 201.530863 
L 184.748336 205.493149 
L 188.148384 209.322532 
L 191.698846 213.012887 
L 195.394044 216.558309 
L 199.228065 219.953126 
L 203.194775 223.191908 
L 207.28783 226.269474 
L 211.50068 229.180899 
L 215.826586 231.921526 
L 220.258628 234.486971 
L 224.789715 236.873129 
L 229.412598 239.076184 
L 234.119883 241.09261 
L 238.904038 242.919182 
L 243.757409 244.552978 
L 248.672232 245.991384 
L 253.640645 247.232099 
L 258.6547 248.273138 
L 263.706374 249.112836 
L 268.787586 249.749848 
L 273.890207 250.183157 
L 279.006075 250.412069 
L 284.127004 250.436218 
L 289.244803 250.255565 
L 294.351284 249.870399 
L 299.438278 249.281336 
L 304.497647 248.489319 
L 309.521296 247.495615 
L 314.50119 246.301813 
L 319.42936 244.909823 
L 324.519802 243.244334 
L 323.469925 238.232122 
L 322.220452 233.265905 
L 320.773384 228.353625 
L 319.131033 223.503141 
L 317.29603 218.722214 
L 315.271307 214.018492 
L 313.060106 209.3995 
L 310.665963 204.872627 
L 308.092708 200.445115 
L 305.344459 196.124047 
L 302.425611 191.916337 
L 299.340834 187.828714 
L 296.095063 183.86772 
L 292.693492 180.03969 
L 289.14156 176.350749 
L 287.373196 174.61998 
L 291.008732 171.013406 
L 294.497136 167.264334 
L 297.832827 163.378762 
L 301.010468 159.362906 
L 304.024975 155.22319 
L 306.871527 150.966238 
L 309.54557 146.598859 
L 312.042825 142.12804 
L 314.359297 137.560934 
L 316.491281 132.904847 
L 318.435366 128.167228 
L 320.188441 123.355656 
L 321.747702 118.477828 
L 323.110656 113.541548 
L 324.27512 108.554713 
L 324.750356 106.210998 
L 319.877988 104.634759 
L 314.946485 103.254624 
L 309.963735 102.072799 
L 304.937711 101.091178 
L 299.876452 100.311328 
L 294.788057 99.734499 
L 289.680664 99.361613 
L 284.562446 99.193266 
L 279.441589 99.229728 
L 274.326287 99.470941 
L 269.224722 99.916518 
L 264.145056 100.565747 
L 259.095416 101.417589 
L 254.083879 102.470681 
L 249.118464 103.72334 
L 244.207113 105.173559 
L 239.357685 106.819021 
L 234.577936 108.657091 
L 229.875514 110.684831 
L 225.257941 112.898995 
L 220.732604 115.296041 
L 216.306744 117.872136 
L 211.98744 120.623157 
L 207.781603 123.544703 
L 203.695961 126.632102 
L 199.737049 129.880412 
L 195.911203 133.284439 
L 192.224541 136.838736 
L 188.682962 140.537617 
L 185.292132 144.375165 
L 182.057475 148.34524 
L 178.984166 152.441491 
L 176.077122 156.657366 
L 173.340993 160.986118 
L 170.780157 165.420825 
L 168.39871 169.95439 
L 166.200462 174.579561 
L 164.18893 179.288939 
L 162.367332 184.07499 
L 160.738582 188.930057 
L 159.305286 193.846373 
L 158.069737 198.816073 
L 157.03391 203.831207 
L 156.199464 208.883751 
L 155.567734 213.965622 
L 155.13973 219.068691 
L 154.916136 224.184794 
L 154.89731 229.305746 
L 155.083283 234.423354 
L 155.473758 239.529432 
L 156.068108 244.615811 
L 156.865384 249.674354 
L 157.86431 254.696968 
L 159.063288 259.675617 
L 160.460399 264.602338 
L 160.844309 265.837396 
L 164.37513 269.546547 
L 168.051454 273.111535 
L 171.867399 276.526659 
L 175.81686 279.786453 
L 179.893519 282.885704 
L 183.480176 285.408 
L 187.660569 282.45016 
L 191.719336 279.327514 
L 195.649984 276.04506 
L 199.446224 272.608046 
L 203.101984 269.021973 
L 206.611415 265.292577 
L 209.968903 261.425824 
L 213.169076 257.427901 
L 216.206815 253.305202 
L 219.077261 249.064324 
L 221.77582 244.712051 
L 224.298177 240.255346 
L 226.640295 235.701339 
L 228.798428 231.057314 
L 230.769123 226.330702 
L 231.096515 225.490349 
L 232.063216 230.519264 
L 233.230246 235.5055 
L 234.595739 240.441078 
L 236.157511 245.318102 
L 237.913062 250.128772 
L 239.859584 254.86539 
L 241.993964 259.52038 
L 244.312786 264.086293 
L 246.812341 268.555826 
L 249.48863 272.921828 
L 252.337373 277.177315 
L 255.35401 281.315479 
L 258.598382 285.408 
L 258.598382 285.408 
" style="fill:none;stroke:#1f77b4;stroke-linecap:square;stroke-width:1.5;"/>
   </g>
   <g id="patch_4">
    <path d="M 82.520165 307.584 
L 82.520165 41.472 
" style="fill:none;stroke:#000000;stroke-linecap:square;stroke-linejoin:miter;stroke-width:0.8;"/>
   </g>
   <g id="patch_5">
    <path d="M 389.799835 307.584 
L 389.799835 41.472 
" style="fill:none;stroke:#000000;stroke-linecap:square;stroke-linejoin:miter;stroke-width:0.8;"/>
   </g>
   <g id="patch_6">
    <path d="M 82.520165 307.584 
L 389.799835 307.584 
" style="fill:none;stroke:#000000;stroke-linecap:square;stroke-linejoin:miter;stroke-width:0.8;"/>
   </g>
   <g id="patch_7">
    <path d="M 82.520165 41.472 
L 389.799835 41.472 
" style="fill:none;stroke:#000000;stroke-linecap:square;stroke-linejoin:miter;stroke-width:0.8;"/>
   </g>
  </g>
 </g>
 <defs>
  <clipPath id="pa521910f77">
   <rect height="266.112" width="307.27967" x="82.520165" y="41.472"/>
  </clipPath>
 </defs>
</svg>
