<?xml version="1.0" encoding="utf-8" standalone="no"?>
<!DOCTYPE svg PUBLIC "-//W3C//DTD SVG 1.1//EN"
  "http://www.w3.org/Graphics/SVG/1.1/DTD/svg11.dtd">
<!-- Created with matplotlib (http://matplotlib.org/) -->
<svg height="345.6pt" version="1.1" viewBox="0 0 460.8 345.6" width="460.8pt" xmlns="http://www.w3.org/2000/svg" xmlns:xlink="http://www.w3.org/1999/xlink">
 <defs>
  <style type="text/css">
*{stroke-linecap:butt;stroke-linejoin:round;}
  </style>
 </defs>
 <g id="figure_1">
  <g id="patch_1">
   <path d="M 0 345.6 
L 460.8 345.6 
L 460.8 0 
L 0 0 
z
" style="fill:#ffffff;"/>
  </g>
  <g id="axes_1">
   <g id="patch_2">
    <path d="M 57.6 263.808 
L 414.72 263.808 
L 414.72 85.248 
L 57.6 85.248 
z
" style="fill:#ffffff;"/>
   </g>
   <g id="PathCollection_1">
    <defs>
     <path d="M 0 3 
C 0.795609 3 1.55874 2.683901 2.12132 2.12132 
C 2.683901 1.55874 3 0.795609 3 0 
C 3 -0.795609 2.683901 -1.55874 2.12132 -2.12132 
C 1.55874 -2.683901 0.795609 -3 0 -3 
C -0.795609 -3 -1.55874 -2.683901 -2.12132 -2.12132 
C -2.683901 -1.55874 -3 -0.795609 -3 0 
C -3 0.795609 -2.683901 1.55874 -2.12132 2.12132 
C -1.55874 2.683901 -0.795609 3 0 3 
z
" id="m049605ab10" style="stroke:#000000;"/>
    </defs>
    <g clip-path="url(#p28d2c0ff66)">
     <use style="stroke:#000000;" x="108.489552" xlink:href="#m049605ab10" y="217.820772"/>
    </g>
   </g>
   <g id="patch_3">
    <path clip-path="url(#p28d2c0ff66)" d="M 161.76 211.728 
C 171.625555 211.728 181.088371 207.808373 188.064372 200.832372 
C 195.040373 193.856371 198.96 184.393555 198.96 174.528 
C 198.96 164.662445 195.040373 155.199629 188.064372 148.223628 
C 181.088371 141.247627 171.625555 137.328 161.76 137.328 
C 151.894445 137.328 142.431629 141.247627 135.455628 148.223628 
C 128.479627 155.199629 124.56 164.662445 124.56 174.528 
C 124.56 184.393555 128.479627 193.856371 135.455628 200.832372 
C 142.431629 207.808373 151.894445 211.728 161.76 211.728 
z
" style="fill:#cc0000;fill-opacity:0.1;stroke:#cc0000;stroke-dasharray:7.4,3.2;stroke-dashoffset:0;stroke-linejoin:miter;stroke-width:2;"/>
   </g>
   <g id="patch_4">
    <path clip-path="url(#p28d2c0ff66)" d="M 310.56 196.848 
C 316.479333 196.848 322.157023 194.496224 326.342623 190.310623 
C 330.528224 186.125023 332.88 180.447333 332.88 174.528 
C 332.88 168.608667 330.528224 162.930977 326.342623 158.745377 
C 322.157023 154.559776 316.479333 152.208 310.56 152.208 
C 304.640667 152.208 298.962977 154.559776 294.777377 158.745377 
C 290.591776 162.930977 288.24 168.608667 288.24 174.528 
C 288.24 180.447333 290.591776 186.125023 294.777377 190.310623 
C 298.962977 194.496224 304.640667 196.848 310.56 196.848 
z
" style="fill:#cc0000;fill-opacity:0.1;stroke:#cc0000;stroke-dasharray:7.4,3.2;stroke-dashoffset:0;stroke-linejoin:miter;stroke-width:2;"/>
   </g>
   <g id="matplotlib.axis_1">
    <g id="xtick_1">
     <g id="line2d_1">
      <defs>
       <path d="M 0 0 
L 0 3.5 
" id="me0c08072aa" style="stroke:#000000;stroke-width:0.8;"/>
      </defs>
      <g>
       <use style="stroke:#000000;stroke-width:0.8;" x="87.36" xlink:href="#me0c08072aa" y="263.808"/>
      </g>
     </g>
     <g id="text_1">
      <!-- 0.0 -->
      <defs>
       <path d="M 31.78125 66.40625 
Q 24.171875 66.40625 20.328125 58.90625 
Q 16.5 51.421875 16.5 36.375 
Q 16.5 21.390625 20.328125 13.890625 
Q 24.171875 6.390625 31.78125 6.390625 
Q 39.453125 6.390625 43.28125 13.890625 
Q 47.125 21.390625 47.125 36.375 
Q 47.125 51.421875 43.28125 58.90625 
Q 39.453125 66.40625 31.78125 66.40625 
z
M 31.78125 74.21875 
Q 44.046875 74.21875 50.515625 64.515625 
Q 56.984375 54.828125 56.984375 36.375 
Q 56.984375 17.96875 50.515625 8.265625 
Q 44.046875 -1.421875 31.78125 -1.421875 
Q 19.53125 -1.421875 13.0625 8.265625 
Q 6.59375 17.96875 6.59375 36.375 
Q 6.59375 54.828125 13.0625 64.515625 
Q 19.53125 74.21875 31.78125 74.21875 
z
" id="DejaVuSans-30"/>
       <path d="M 10.6875 12.40625 
L 21 12.40625 
L 21 0 
L 10.6875 0 
z
" id="DejaVuSans-2e"/>
      </defs>
      <g transform="translate(79.408438 278.406437)scale(0.1 -0.1)">
       <use xlink:href="#DejaVuSans-30"/>
       <use x="63.623047" xlink:href="#DejaVuSans-2e"/>
       <use x="95.410156" xlink:href="#DejaVuSans-30"/>
      </g>
     </g>
    </g>
    <g id="xtick_2">
     <g id="line2d_2">
      <g>
       <use style="stroke:#000000;stroke-width:0.8;" x="161.76" xlink:href="#me0c08072aa" y="263.808"/>
      </g>
     </g>
     <g id="text_2">
      <!-- 0.5 -->
      <defs>
       <path d="M 10.796875 72.90625 
L 49.515625 72.90625 
L 49.515625 64.59375 
L 19.828125 64.59375 
L 19.828125 46.734375 
Q 21.96875 47.46875 24.109375 47.828125 
Q 26.265625 48.1875 28.421875 48.1875 
Q 40.625 48.1875 47.75 41.5 
Q 54.890625 34.8125 54.890625 23.390625 
Q 54.890625 11.625 47.5625 5.09375 
Q 40.234375 -1.421875 26.90625 -1.421875 
Q 22.3125 -1.421875 17.546875 -0.640625 
Q 12.796875 0.140625 7.71875 1.703125 
L 7.71875 11.625 
Q 12.109375 9.234375 16.796875 8.0625 
Q 21.484375 6.890625 26.703125 6.890625 
Q 35.15625 6.890625 40.078125 11.328125 
Q 45.015625 15.765625 45.015625 23.390625 
Q 45.015625 31 40.078125 35.4375 
Q 35.15625 39.890625 26.703125 39.890625 
Q 22.75 39.890625 18.8125 39.015625 
Q 14.890625 38.140625 10.796875 36.28125 
z
" id="DejaVuSans-35"/>
      </defs>
      <g transform="translate(153.808437 278.406437)scale(0.1 -0.1)">
       <use xlink:href="#DejaVuSans-30"/>
       <use x="63.623047" xlink:href="#DejaVuSans-2e"/>
       <use x="95.410156" xlink:href="#DejaVuSans-35"/>
      </g>
     </g>
    </g>
    <g id="xtick_3">
     <g id="line2d_3">
      <g>
       <use style="stroke:#000000;stroke-width:0.8;" x="236.16" xlink:href="#me0c08072aa" y="263.808"/>
      </g>
     </g>
     <g id="text_3">
      <!-- 1.0 -->
      <defs>
       <path d="M 12.40625 8.296875 
L 28.515625 8.296875 
L 28.515625 63.921875 
L 10.984375 60.40625 
L 10.984375 69.390625 
L 28.421875 72.90625 
L 38.28125 72.90625 
L 38.28125 8.296875 
L 54.390625 8.296875 
L 54.390625 0 
L 12.40625 0 
z
" id="DejaVuSans-31"/>
      </defs>
      <g transform="translate(228.208437 278.406437)scale(0.1 -0.1)">
       <use xlink:href="#DejaVuSans-31"/>
       <use x="63.623047" xlink:href="#DejaVuSans-2e"/>
       <use x="95.410156" xlink:href="#DejaVuSans-30"/>
      </g>
     </g>
    </g>
    <g id="xtick_4">
     <g id="line2d_4">
      <g>
       <use style="stroke:#000000;stroke-width:0.8;" x="310.56" xlink:href="#me0c08072aa" y="263.808"/>
      </g>
     </g>
     <g id="text_4">
      <!-- 1.5 -->
      <g transform="translate(302.608437 278.406437)scale(0.1 -0.1)">
       <use xlink:href="#DejaVuSans-31"/>
       <use x="63.623047" xlink:href="#DejaVuSans-2e"/>
       <use x="95.410156" xlink:href="#DejaVuSans-35"/>
      </g>
     </g>
    </g>
    <g id="xtick_5">
     <g id="line2d_5">
      <g>
       <use style="stroke:#000000;stroke-width:0.8;" x="384.96" xlink:href="#me0c08072aa" y="263.808"/>
      </g>
     </g>
     <g id="text_5">
      <!-- 2.0 -->
      <defs>
       <path d="M 19.1875 8.296875 
L 53.609375 8.296875 
L 53.609375 0 
L 7.328125 0 
L 7.328125 8.296875 
Q 12.9375 14.109375 22.625 23.890625 
Q 32.328125 33.6875 34.8125 36.53125 
Q 39.546875 41.84375 41.421875 45.53125 
Q 43.3125 49.21875 43.3125 52.78125 
Q 43.3125 58.59375 39.234375 62.25 
Q 35.15625 65.921875 28.609375 65.921875 
Q 23.96875 65.921875 18.8125 64.3125 
Q 13.671875 62.703125 7.8125 59.421875 
L 7.8125 69.390625 
Q 13.765625 71.78125 18.9375 73 
Q 24.125 74.21875 28.421875 74.21875 
Q 39.75 74.21875 46.484375 68.546875 
Q 53.21875 62.890625 53.21875 53.421875 
Q 53.21875 48.921875 51.53125 44.890625 
Q 49.859375 40.875 45.40625 35.40625 
Q 44.1875 33.984375 37.640625 27.21875 
Q 31.109375 20.453125 19.1875 8.296875 
z
" id="DejaVuSans-32"/>
      </defs>
      <g transform="translate(377.008437 278.406437)scale(0.1 -0.1)">
       <use xlink:href="#DejaVuSans-32"/>
       <use x="63.623047" xlink:href="#DejaVuSans-2e"/>
       <use x="95.410156" xlink:href="#DejaVuSans-30"/>
      </g>
     </g>
    </g>
   </g>
   <g id="matplotlib.axis_2">
    <g id="ytick_1">
     <g id="line2d_6">
      <defs>
       <path d="M 0 0 
L -3.5 0 
" id="m75ac31ad81" style="stroke:#000000;stroke-width:0.8;"/>
      </defs>
      <g>
       <use style="stroke:#000000;stroke-width:0.8;" x="57.6" xlink:href="#m75ac31ad81" y="248.928"/>
      </g>
     </g>
     <g id="text_6">
      <!-- 0.0 -->
      <g transform="translate(34.696875 252.727219)scale(0.1 -0.1)">
       <use xlink:href="#DejaVuSans-30"/>
       <use x="63.623047" xlink:href="#DejaVuSans-2e"/>
       <use x="95.410156" xlink:href="#DejaVuSans-30"/>
      </g>
     </g>
    </g>
    <g id="ytick_2">
     <g id="line2d_7">
      <g>
       <use style="stroke:#000000;stroke-width:0.8;" x="57.6" xlink:href="#m75ac31ad81" y="219.168"/>
      </g>
     </g>
     <g id="text_7">
      <!-- 0.2 -->
      <g transform="translate(34.696875 222.967219)scale(0.1 -0.1)">
       <use xlink:href="#DejaVuSans-30"/>
       <use x="63.623047" xlink:href="#DejaVuSans-2e"/>
       <use x="95.410156" xlink:href="#DejaVuSans-32"/>
      </g>
     </g>
    </g>
    <g id="ytick_3">
     <g id="line2d_8">
      <g>
       <use style="stroke:#000000;stroke-width:0.8;" x="57.6" xlink:href="#m75ac31ad81" y="189.408"/>
      </g>
     </g>
     <g id="text_8">
      <!-- 0.4 -->
      <defs>
       <path d="M 37.796875 64.3125 
L 12.890625 25.390625 
L 37.796875 25.390625 
z
M 35.203125 72.90625 
L 47.609375 72.90625 
L 47.609375 25.390625 
L 58.015625 25.390625 
L 58.015625 17.1875 
L 47.609375 17.1875 
L 47.609375 0 
L 37.796875 0 
L 37.796875 17.1875 
L 4.890625 17.1875 
L 4.890625 26.703125 
z
" id="DejaVuSans-34"/>
      </defs>
      <g transform="translate(34.696875 193.207219)scale(0.1 -0.1)">
       <use xlink:href="#DejaVuSans-30"/>
       <use x="63.623047" xlink:href="#DejaVuSans-2e"/>
       <use x="95.410156" xlink:href="#DejaVuSans-34"/>
      </g>
     </g>
    </g>
    <g id="ytick_4">
     <g id="line2d_9">
      <g>
       <use style="stroke:#000000;stroke-width:0.8;" x="57.6" xlink:href="#m75ac31ad81" y="159.648"/>
      </g>
     </g>
     <g id="text_9">
      <!-- 0.6 -->
      <defs>
       <path d="M 33.015625 40.375 
Q 26.375 40.375 22.484375 35.828125 
Q 18.609375 31.296875 18.609375 23.390625 
Q 18.609375 15.53125 22.484375 10.953125 
Q 26.375 6.390625 33.015625 6.390625 
Q 39.65625 6.390625 43.53125 10.953125 
Q 47.40625 15.53125 47.40625 23.390625 
Q 47.40625 31.296875 43.53125 35.828125 
Q 39.65625 40.375 33.015625 40.375 
z
M 52.59375 71.296875 
L 52.59375 62.3125 
Q 48.875 64.0625 45.09375 64.984375 
Q 41.3125 65.921875 37.59375 65.921875 
Q 27.828125 65.921875 22.671875 59.328125 
Q 17.53125 52.734375 16.796875 39.40625 
Q 19.671875 43.65625 24.015625 45.921875 
Q 28.375 48.1875 33.59375 48.1875 
Q 44.578125 48.1875 50.953125 41.515625 
Q 57.328125 34.859375 57.328125 23.390625 
Q 57.328125 12.15625 50.6875 5.359375 
Q 44.046875 -1.421875 33.015625 -1.421875 
Q 20.359375 -1.421875 13.671875 8.265625 
Q 6.984375 17.96875 6.984375 36.375 
Q 6.984375 53.65625 15.1875 63.9375 
Q 23.390625 74.21875 37.203125 74.21875 
Q 40.921875 74.21875 44.703125 73.484375 
Q 48.484375 72.75 52.59375 71.296875 
z
" id="DejaVuSans-36"/>
      </defs>
      <g transform="translate(34.696875 163.447219)scale(0.1 -0.1)">
       <use xlink:href="#DejaVuSans-30"/>
       <use x="63.623047" xlink:href="#DejaVuSans-2e"/>
       <use x="95.410156" xlink:href="#DejaVuSans-36"/>
      </g>
     </g>
    </g>
    <g id="ytick_5">
     <g id="line2d_10">
      <g>
       <use style="stroke:#000000;stroke-width:0.8;" x="57.6" xlink:href="#m75ac31ad81" y="129.888"/>
      </g>
     </g>
     <g id="text_10">
      <!-- 0.8 -->
      <defs>
       <path d="M 31.78125 34.625 
Q 24.75 34.625 20.71875 30.859375 
Q 16.703125 27.09375 16.703125 20.515625 
Q 16.703125 13.921875 20.71875 10.15625 
Q 24.75 6.390625 31.78125 6.390625 
Q 38.8125 6.390625 42.859375 10.171875 
Q 46.921875 13.96875 46.921875 20.515625 
Q 46.921875 27.09375 42.890625 30.859375 
Q 38.875 34.625 31.78125 34.625 
z
M 21.921875 38.8125 
Q 15.578125 40.375 12.03125 44.71875 
Q 8.5 49.078125 8.5 55.328125 
Q 8.5 64.0625 14.71875 69.140625 
Q 20.953125 74.21875 31.78125 74.21875 
Q 42.671875 74.21875 48.875 69.140625 
Q 55.078125 64.0625 55.078125 55.328125 
Q 55.078125 49.078125 51.53125 44.71875 
Q 48 40.375 41.703125 38.8125 
Q 48.828125 37.15625 52.796875 32.3125 
Q 56.78125 27.484375 56.78125 20.515625 
Q 56.78125 9.90625 50.3125 4.234375 
Q 43.84375 -1.421875 31.78125 -1.421875 
Q 19.734375 -1.421875 13.25 4.234375 
Q 6.78125 9.90625 6.78125 20.515625 
Q 6.78125 27.484375 10.78125 32.3125 
Q 14.796875 37.15625 21.921875 38.8125 
z
M 18.3125 54.390625 
Q 18.3125 48.734375 21.84375 45.5625 
Q 25.390625 42.390625 31.78125 42.390625 
Q 38.140625 42.390625 41.71875 45.5625 
Q 45.3125 48.734375 45.3125 54.390625 
Q 45.3125 60.0625 41.71875 63.234375 
Q 38.140625 66.40625 31.78125 66.40625 
Q 25.390625 66.40625 21.84375 63.234375 
Q 18.3125 60.0625 18.3125 54.390625 
z
" id="DejaVuSans-38"/>
      </defs>
      <g transform="translate(34.696875 133.687219)scale(0.1 -0.1)">
       <use xlink:href="#DejaVuSans-30"/>
       <use x="63.623047" xlink:href="#DejaVuSans-2e"/>
       <use x="95.410156" xlink:href="#DejaVuSans-38"/>
      </g>
     </g>
    </g>
    <g id="ytick_6">
     <g id="line2d_11">
      <g>
       <use style="stroke:#000000;stroke-width:0.8;" x="57.6" xlink:href="#m75ac31ad81" y="100.128"/>
      </g>
     </g>
     <g id="text_11">
      <!-- 1.0 -->
      <g transform="translate(34.696875 103.927219)scale(0.1 -0.1)">
       <use xlink:href="#DejaVuSans-31"/>
       <use x="63.623047" xlink:href="#DejaVuSans-2e"/>
       <use x="95.410156" xlink:href="#DejaVuSans-30"/>
      </g>
     </g>
    </g>
   </g>
   <g id="line2d_12">
    <path clip-path="url(#p28d2c0ff66)" d="M 236.16 248.928 
L 236.16 100.128 
" style="fill:none;stroke:#cc0000;stroke-dasharray:7.4,3.2;stroke-dashoffset:0;stroke-width:2;"/>
   </g>
   <g id="line2d_13">
    <path clip-path="url(#p28d2c0ff66)" d="M 87.36 248.928 
L 384.96 248.928 
" style="fill:none;stroke:#009900;stroke-linecap:square;stroke-width:2;"/>
   </g>
   <g id="line2d_14">
    <path clip-path="url(#p28d2c0ff66)" d="M 384.96 248.928 
L 384.96 100.128 
" style="fill:none;stroke:#009900;stroke-linecap:square;stroke-width:2;"/>
   </g>
   <g id="line2d_15">
    <path clip-path="url(#p28d2c0ff66)" d="M 384.96 100.128 
L 87.36 100.128 
" style="fill:none;stroke:#009900;stroke-linecap:square;stroke-width:2;"/>
   </g>
   <g id="line2d_16">
    <path clip-path="url(#p28d2c0ff66)" d="M 87.36 100.128 
L 87.36 248.928 
" style="fill:none;stroke:#009900;stroke-linecap:square;stroke-width:2;"/>
   </g>
   <g id="line2d_17">
    <path clip-path="url(#p28d2c0ff66)" d="M 108.489552 217.820772 
L 102.544798 218.106213 
L 96.616213 218.629153 
L 90.713283 219.388754 
L 87.36 219.927811 
L 93.244056 220.821939 
L 99.159161 221.480053 
L 105.095852 221.901099 
L 111.044632 222.084403 
L 116.995983 222.029674 
L 122.940386 221.736997 
L 128.86833 221.206842 
L 134.770331 220.440057 
L 140.636948 219.437868 
L 146.458796 218.201878 
L 152.22656 216.734065 
L 157.931014 215.036777 
L 163.563032 213.11273 
L 168.975708 211.021473 
L 174.925842 210.889229 
L 180.865928 210.51915 
L 186.786463 209.911826 
L 192.677976 209.06823 
L 198.531042 207.989711 
L 204.336297 206.677995 
L 210.084453 205.135179 
L 215.766315 203.363733 
L 221.372794 201.366489 
L 226.894919 199.146644 
L 232.323857 196.707749 
L 236.16 194.823432 
L 230.803346 192.229625 
L 225.347252 189.852101 
L 219.800447 187.694664 
L 214.171804 185.760767 
L 208.470328 184.053502 
L 202.70514 182.5756 
L 191.067369 179.795137 
L 186.839074 178.365858 
L 182.704093 176.685604 
L 178.677308 174.760425 
L 174.77321 172.597247 
L 171.00585 170.203856 
L 167.388787 167.588867 
L 163.935037 164.761689 
L 160.657032 161.732498 
L 157.566567 158.512196 
L 154.674766 155.112371 
L 151.992036 151.545261 
L 149.528031 147.823702 
L 147.29162 143.961089 
L 145.753122 140.947949 
L 146.373798 142.300291 
L 148.071874 146.427985 
L 149.519382 150.650075 
L 150.711111 154.951365 
L 151.642773 159.316377 
L 152.311015 163.7294 
L 152.713432 168.174552 
L 152.848575 172.635836 
L 152.715959 177.097196 
L 152.316061 181.542575 
L 151.650319 185.955976 
L 150.721131 190.321515 
L 149.531839 194.62348 
L 148.086724 198.846389 
L 146.390987 202.975044 
L 144.261676 207.35556 
L 144.980607 206.05279 
L 147.291655 202.234364 
L 149.827512 198.561389 
L 152.579053 195.047083 
L 155.536374 191.704095 
L 158.688832 188.544455 
L 162.025083 185.579535 
L 165.533118 182.820005 
L 169.200314 180.275797 
L 173.013471 177.956067 
L 176.958867 175.869163 
L 181.022303 174.022596 
L 185.189154 172.423011 
L 189.444425 171.076167 
L 193.7728 169.986909 
L 198.561377 169.096734 
L 197.086345 169.292565 
L 192.641887 169.702578 
L 188.18084 169.845345 
L 183.71926 169.720353 
L 179.273204 169.328051 
L 174.858672 168.669852 
L 170.491552 167.748125 
L 166.187561 166.566186 
L 161.962188 165.128289 
L 157.830641 163.43961 
L 153.807789 161.506225 
L 149.908109 159.335093 
L 146.145636 156.934027 
L 142.533911 154.311669 
L 139.085932 151.477457 
L 135.524637 148.154799 
L 131.206404 144.059137 
L 126.727842 140.139435 
L 122.096116 136.401964 
L 117.318636 132.852701 
L 112.403045 129.497325 
L 107.357207 126.341205 
L 102.189193 123.389389 
L 96.907272 120.6466 
L 91.519894 118.117225 
L 87.36 116.34003 
L 92.821774 113.975585 
L 98.184627 111.394618 
L 103.43998 108.601259 
L 108.579423 105.599977 
L 113.594737 102.395572 
L 116.895019 100.128 
L 121.822294 103.466195 
L 126.879119 106.604681 
L 132.057406 109.538437 
L 137.34887 112.262771 
L 142.745045 114.773323 
L 148.237299 117.066078 
L 153.816846 119.137367 
L 159.474759 120.983877 
L 165.201987 122.602654 
L 170.989368 123.991108 
L 176.827643 125.147018 
L 182.707472 126.068534 
L 188.619448 126.754183 
L 194.554115 127.202868 
L 200.501976 127.41387 
L 206.453518 127.386852 
L 212.399219 127.121858 
L 218.329567 126.619311 
L 224.235075 125.880016 
L 230.106295 124.905154 
L 237.638076 123.472892 
L 245.014573 122.504386 
L 252.364555 121.351789 
L 259.683429 120.015822 
L 266.96662 118.49732 
L 274.209576 116.797231 
L 281.407771 114.916619 
L 288.556707 112.856658 
L 295.651915 110.618636 
L 302.688961 108.203952 
L 309.663447 105.614115 
L 316.571015 102.850742 
L 322.927999 100.128 
L 329.769492 103.051131 
L 336.681917 105.802329 
L 343.660955 108.379875 
L 350.702245 110.782158 
L 357.801384 113.007676 
L 364.953938 115.055038 
L 372.155435 116.922966 
L 379.401376 118.610291 
L 384.96 119.776169 
L 377.683179 121.324907 
L 370.447346 123.055063 
L 363.257024 124.965556 
L 356.116705 127.05519 
L 349.030854 129.322662 
L 342.003897 131.766552 
L 335.040228 134.385334 
L 328.144197 137.177372 
L 321.320114 140.14092 
L 314.572245 143.274126 
L 307.904807 146.575032 
L 301.321966 150.041576 
L 294.827837 153.67159 
L 288.426478 157.462806 
L 282.121889 161.412854 
L 275.918012 165.519267 
L 269.818723 169.779477 
L 263.827834 174.190822 
L 257.94909 178.750546 
L 252.186163 183.455798 
L 246.542656 188.303637 
L 241.022097 193.291035 
L 236.16 197.897958 
L 236.092295 203.849177 
L 236.096391 210.209237 
L 236.112567 224.009048 
L 236.120757 227.393458 
L 236.112567 233.345056 
L 236.120757 236.729466 
L 236.112567 242.681064 
L 236.120757 246.065474 
L 236.087102 248.928 
L 236.050983 245.952269 
L 235.800274 240.005948 
L 235.311976 234.07441 
L 234.58687 228.167143 
L 233.626117 222.293598 
L 232.431253 216.463171 
L 231.00419 210.685189 
L 229.347211 204.968897 
L 227.462966 199.323438 
L 225.354471 193.757845 
L 223.025097 188.281021 
L 220.478573 182.901728 
L 217.718971 177.628572 
L 214.750706 172.469988 
L 211.578527 167.43423 
L 208.207509 162.529352 
L 204.643045 157.763204 
L 200.890837 153.143408 
L 196.956888 148.677355 
L 192.847491 144.372191 
L 188.56922 140.234803 
L 184.12892 136.27181 
L 179.533695 132.489551 
L 174.790895 128.894077 
L 169.908108 125.491141 
L 164.893146 122.286186 
L 159.754031 119.28434 
L 154.498985 116.490405 
L 149.136415 113.90885 
L 143.6749 111.543806 
L 138.123177 109.399057 
L 132.490127 107.478032 
L 126.784763 105.783806 
L 121.016212 104.319089 
L 115.193702 103.086224 
L 109.326548 102.087183 
L 103.424136 101.323565 
L 97.495908 100.796592 
L 91.55135 100.507106 
L 87.36 100.446019 
L 90.335787 100.414809 
L 96.282513 100.173909 
L 97.010951 100.128 
L 102.956424 100.398067 
L 108.90794 100.430162 
L 114.85598 100.224235 
L 116.45797 100.128 
L 122.403442 100.398067 
L 128.354959 100.430162 
L 134.302999 100.224235 
L 135.904989 100.128 
L 141.850461 100.398067 
L 147.801978 100.430162 
L 153.750018 100.224235 
L 155.352008 100.128 
L 161.29748 100.398067 
L 167.248997 100.430162 
L 173.197036 100.224235 
L 174.799026 100.128 
L 180.744499 100.398067 
L 186.696016 100.430162 
L 192.644055 100.224235 
L 194.246045 100.128 
L 200.191518 100.398067 
L 206.143034 100.430162 
L 212.091074 100.224235 
L 213.693064 100.128 
L 219.638537 100.398067 
L 225.590053 100.430162 
L 231.538093 100.224235 
L 233.140083 100.128 
L 237.6477 100.324766 
L 245.087412 100.362211 
L 252.525735 100.213671 
L 256.363949 100.184341 
L 263.801809 100.354497 
L 271.241598 100.338672 
L 281.874589 100.233247 
L 289.313207 100.366212 
L 296.752825 100.313188 
L 304.410841 100.184341 
L 311.848701 100.354497 
L 319.288491 100.338672 
L 329.921482 100.233247 
L 337.3601 100.366212 
L 344.799717 100.313188 
L 352.457733 100.184341 
L 359.895593 100.354497 
L 367.335383 100.338672 
L 377.968374 100.233247 
L 384.96 100.363474 
L 381.984222 100.398813 
L 374.547626 100.617326 
L 367.118815 101.021665 
L 359.702433 101.61158 
L 352.303115 102.3867 
L 344.925486 103.346542 
L 337.574155 104.490505 
L 330.253717 105.817875 
L 322.968748 107.327822 
L 315.7238 109.019403 
L 308.523401 110.89156 
L 301.372051 112.943123 
L 294.274219 115.17281 
L 287.234342 117.579227 
L 280.256819 120.160871 
L 273.34601 122.916129 
L 266.506236 125.843277 
L 259.741769 128.940488 
L 253.056839 132.205825 
L 246.455623 135.637247 
L 239.942246 139.23261 
L 236.16 141.419401 
L 233.371185 146.677166 
L 230.794855 152.042248 
L 228.435132 157.506064 
L 226.295791 163.059873 
L 224.380254 168.694791 
L 222.691587 174.401803 
L 221.232489 180.171778 
L 220.005296 185.995487 
L 219.011971 191.863611 
L 218.254103 197.766764 
L 217.732904 203.695502 
L 217.449209 209.64034 
L 217.40347 215.591768 
L 217.595762 221.540264 
L 218.025776 227.476312 
L 218.692825 233.390416 
L 219.595841 239.273114 
L 220.733381 245.114996 
L 221.607931 248.928 
L 222.89865 243.118041 
L 223.955999 237.261114 
L 224.778288 231.366589 
L 225.364201 225.443897 
L 225.712802 219.502511 
L 225.823531 213.551938 
L 225.696212 207.601697 
L 225.331049 201.661307 
L 224.728625 195.740271 
L 223.889906 189.848062 
L 222.816231 183.994105 
L 221.50932 178.187767 
L 219.971262 172.438336 
L 218.204519 166.755009 
L 216.211917 161.14688 
L 213.996643 155.622919 
L 211.562241 150.191964 
L 208.912607 144.862704 
L 206.051978 139.643663 
L 202.984932 134.543192 
L 199.716374 129.56945 
L 196.251534 124.730393 
L 192.595955 120.033764 
L 188.755486 115.487076 
L 184.736269 111.097603 
L 180.544735 106.872367 
L 176.187589 102.818127 
L 173.093197 100.128 
L 168.626 104.060649 
L 164.31964 108.168793 
L 160.181007 112.445859 
L 156.216721 116.885005 
L 152.433125 121.47913 
L 148.836271 126.220883 
L 145.431913 131.102679 
L 142.225499 136.116708 
L 139.222157 141.254949 
L 136.426692 146.509181 
L 135.68246 147.998735 
L 130.351062 150.644066 
L 125.129714 153.50048 
L 120.026768 156.563408 
L 115.050388 159.827948 
L 110.208536 163.28888 
L 105.508957 166.940666 
L 100.95917 170.777464 
L 96.566453 174.793136 
L 92.337834 178.981257 
L 88.280078 183.335128 
L 87.36 184.372495 
L 91.377009 188.763989 
L 95.566417 192.991333 
L 99.921524 197.047764 
L 104.43536 200.926792 
L 109.100706 204.622212 
L 113.910097 208.128112 
L 118.85584 211.438884 
L 123.930022 214.54923 
L 129.124527 217.454175 
L 134.431043 220.149072 
L 139.841081 222.629609 
L 145.345987 224.891818 
L 150.936954 226.93208 
L 156.605038 228.747131 
L 162.34117 230.334067 
L 168.136175 231.69035 
L 173.980781 232.813809 
L 179.865638 233.702648 
L 185.781332 234.355444 
L 191.718399 234.771154 
L 197.667341 234.949112 
L 203.618641 234.889033 
L 209.562778 234.591013 
L 215.490243 234.05553 
L 221.391553 233.28344 
L 227.257267 232.275978 
L 233.078001 231.034756 
L 236.16 230.278061 
L 230.36706 228.912986 
L 224.524166 227.78066 
L 218.640664 226.882892 
L 212.725967 226.22112 
L 206.789537 225.796402 
L 200.840872 225.609418 
L 194.889488 225.660466 
L 188.944905 225.949466 
L 183.016635 226.475954 
L 177.11416 227.239088 
L 171.246924 228.237649 
L 165.424313 229.470037 
L 159.655642 230.934282 
L 153.950139 232.628041 
L 148.316933 234.548604 
L 142.765034 236.6929 
L 137.303325 239.057497 
L 131.940544 241.638612 
L 126.68527 244.432117 
L 121.545909 247.433542 
L 119.151908 248.928 
L 114.070395 245.829645 
L 108.869046 242.936974 
L 103.556181 240.254616 
L 98.1403 237.786861 
L 92.630067 235.537658 
L 87.36 233.621692 
L 92.951066 231.581703 
L 98.456083 229.319762 
L 103.866242 226.839489 
L 109.17289 224.144851 
L 114.367535 221.240159 
L 119.441869 218.13006 
L 124.387774 214.81953 
L 129.197336 211.313864 
L 133.862862 207.618671 
L 138.541463 203.592403 
L 135.747617 208.847497 
L 133.166153 214.21011 
L 130.801202 219.671666 
L 128.656546 225.223425 
L 126.735617 230.856507 
L 125.041487 236.5619 
L 123.576868 242.330476 
L 122.344102 248.153007 
L 122.198273 248.928 
L 120.996382 243.099017 
L 119.562354 237.32276 
L 117.898485 231.608469 
L 116.007437 225.965286 
L 113.892234 220.402239 
L 111.55626 214.928227 
L 109.003252 209.552008 
L 106.237296 204.282182 
L 103.262815 199.12718 
L 100.084568 194.095249 
L 96.70764 189.194439 
L 93.137433 184.432591 
L 89.379658 179.817321 
L 87.36 177.485151 
L 91.212652 172.948781 
L 94.880816 168.261974 
L 98.358623 163.432229 
L 101.64051 158.467272 
L 104.721227 153.375046 
L 107.595845 148.163698 
L 110.259765 142.841564 
L 112.708725 137.417159 
L 114.938809 131.89916 
L 116.946447 126.296396 
L 118.728429 120.617829 
L 120.281903 114.872544 
L 121.604384 109.069732 
L 122.693757 103.218677 
L 123.172151 100.128 
L 124.138312 106.000658 
L 125.338545 111.829982 
L 126.770928 117.606647 
L 128.43317 123.321412 
L 130.322613 128.965133 
L 132.436232 134.528782 
L 134.770648 140.003459 
L 137.322125 145.380404 
L 137.70861 146.148948 
L 132.842517 142.722182 
L 127.843282 139.492749 
L 122.718904 136.465816 
L 117.477579 133.646224 
L 112.127694 131.038485 
L 106.677806 128.64677 
L 101.136634 126.474905 
L 95.513043 124.526366 
L 89.81603 122.804268 
L 87.36 122.137754 
L 93.085631 120.513339 
L 98.741724 118.661259 
L 104.319228 116.584477 
L 109.809222 114.286315 
L 115.202923 111.77045 
L 120.491701 109.040908 
L 125.667097 106.102054 
L 130.72083 102.95859 
L 134.916972 100.128 
L 139.860868 103.441529 
L 144.933315 106.554704 
L 150.126198 109.462546 
L 155.431211 112.160401 
L 160.839865 114.643954 
L 166.343509 116.909233 
L 171.933337 118.952612 
L 177.600408 120.770824 
L 183.335654 122.360958 
L 189.129902 123.720472 
L 194.97388 124.847191 
L 200.858241 125.739311 
L 206.77357 126.395406 
L 212.710405 126.814427 
L 218.659247 126.995702 
L 224.610579 126.938941 
L 230.554881 126.644237 
L 236.16 126.147187 
L 230.231091 125.627939 
L 224.28616 125.346201 
L 218.334718 125.302421 
L 212.386285 125.496671 
L 206.450379 125.928639 
L 200.536495 126.597635 
L 194.654094 127.502587 
L 188.812587 128.64205 
L 183.021318 130.014198 
L 177.289554 131.616838 
L 171.626462 133.447406 
L 166.041104 135.502973 
L 161.585359 137.32841 
L 156.048691 135.145089 
L 150.429143 133.184923 
L 144.735703 131.451047 
L 138.977481 129.946234 
L 133.163689 128.672892 
L 127.303627 127.633059 
L 121.40667 126.828397 
L 115.482252 126.260195 
L 109.539851 125.92936 
L 103.588973 125.836423 
L 97.63914 125.981532 
L 91.699868 126.364454 
L 87.36 126.795682 
L 93.285499 127.352498 
L 99.228525 127.671911 
L 105.17957 127.753412 
L 111.129114 127.596869 
L 117.067639 127.202533 
L 122.985645 126.571035 
L 128.873663 125.703385 
L 134.722275 124.60097 
L 140.522124 123.265556 
L 146.263932 121.699278 
L 151.938512 119.904641 
L 157.536787 117.884517 
L 163.0498 115.642138 
L 168.468733 113.181091 
L 173.784915 110.505313 
L 178.989842 107.619085 
L 184.075187 104.527023 
L 189.032816 101.234076 
L 190.606076 100.128 
L 195.520731 103.484746 
L 200.56569 106.642273 
L 205.73288 109.59553 
L 211.014036 112.339792 
L 216.400708 114.870669 
L 221.88428 117.184112 
L 227.455979 119.27642 
L 233.106891 121.144246 
L 236.16 122.050443 
L 230.470408 123.796902 
L 224.855206 125.769487 
L 219.323378 127.965043 
L 213.883775 130.380056 
L 208.545096 133.010664 
L 203.315885 135.852658 
L 198.204506 138.901491 
L 193.219136 142.152286 
L 188.367751 145.599842 
L 186.656489 146.887363 
L 189.654169 141.745817 
L 192.443844 136.488508 
L 195.021052 131.123847 
L 197.381668 125.660417 
L 199.521918 120.106958 
L 201.438376 114.472353 
L 203.127978 108.765618 
L 204.588019 102.995881 
L 205.223248 100.128 
L 206.569113 105.925433 
L 208.145736 111.664408 
L 209.950597 117.335745 
L 211.980807 122.93037 
L 214.233118 128.439333 
L 216.703927 133.853821 
L 219.389282 139.165173 
L 222.284886 144.36489 
L 225.386107 149.444654 
L 228.687983 154.39634 
L 232.185234 159.212025 
L 236.16 164.2329 
L 232.458789 168.893653 
L 228.946919 173.698687 
L 225.630008 178.640314 
L 222.513362 183.71063 
L 219.601968 188.901523 
L 216.900484 194.204688 
L 214.41323 199.611642 
L 212.144186 205.113734 
L 210.096983 210.702163 
L 208.274894 216.367988 
L 206.680835 222.102145 
L 205.317357 227.895461 
L 204.18664 233.738667 
L 203.290494 239.622416 
L 202.630351 245.537295 
L 202.35948 248.928 
L 201.834713 242.999577 
L 201.073292 237.096881 
L 200.076435 231.229355 
L 198.845737 225.406387 
L 197.383167 219.637291 
L 195.691064 213.931297 
L 193.772136 208.297533 
L 191.629453 202.745012 
L 189.949528 198.801246 
L 195.718934 200.262594 
L 201.542164 201.492057 
L 207.409901 202.48767 
L 213.312758 203.24784 
L 219.241292 203.77135 
L 225.186019 204.057364 
L 231.137428 204.105423 
L 236.16 203.960684 
L 230.210361 203.807778 
L 224.259367 203.892916 
L 218.316538 204.215963 
L 212.39138 204.776401 
L 206.493374 205.573334 
L 200.631954 206.605486 
L 194.816498 207.871207 
L 189.056309 209.368473 
L 183.360602 211.094886 
L 177.738489 213.047686 
L 172.198965 215.223749 
L 166.75089 217.619593 
L 161.402982 220.231385 
L 156.163796 223.054948 
L 151.041712 226.085763 
L 146.044926 229.318983 
L 141.181432 232.749435 
L 136.459009 236.371631 
L 131.885212 240.179775 
L 127.46736 244.167777 
L 123.212518 248.329256 
L 122.627647 248.928 
L 118.396281 244.742654 
L 114.000931 240.729864 
L 109.448628 236.896052 
L 104.746654 233.24735 
L 99.902533 229.789596 
L 94.924013 226.52832 
L 89.819059 223.468741 
L 87.36 222.091759 
L 92.521986 219.129415 
L 97.56138 215.963015 
L 102.470121 212.597627 
L 107.240356 209.038633 
L 111.864454 205.291727 
L 116.335017 201.362904 
L 120.644892 197.258449 
L 124.787186 192.984928 
L 127.781632 189.671003 
L 131.452412 187.131969 
L 135.268837 184.817619 
L 139.217173 182.736281 
L 143.283209 180.895447 
L 147.452312 179.30174 
L 151.709477 177.960898 
L 156.039385 176.877746 
L 160.426451 176.056181 
L 164.854887 175.49916 
L 169.308756 175.208689 
L 173.772028 175.185812 
L 178.22864 175.430612 
L 182.662553 175.942208 
L 187.057811 176.718758 
L 191.398594 177.757468 
L 195.669281 179.0546 
L 198.542104 180.088293 
L 194.081641 180.248265 
L 189.619612 180.140482 
L 185.172076 179.765332 
L 180.755038 179.124166 
L 176.384395 178.219289 
L 172.075877 177.05396 
L 167.84499 175.632371 
L 163.706961 173.95964 
L 159.676681 172.041786 
L 155.768656 169.885711 
L 151.99695 167.499175 
L 148.375137 164.890767 
L 144.916253 162.069875 
L 141.632744 159.04665 
L 138.536429 155.831972 
L 135.63845 152.437412 
L 133.77588 150.018225 
L 131.242343 144.632804 
L 128.495472 139.353004 
L 125.539663 134.187273 
L 122.379645 129.143875 
L 119.020471 124.230879 
L 115.467518 119.456143 
L 111.726468 114.827307 
L 107.803306 110.351775 
L 103.704308 106.036709 
L 99.436033 101.889009 
L 97.516363 100.128 
L 93.176131 104.200341 
L 89.002221 108.442988 
L 87.36 110.208875 
L 91.464607 114.518605 
L 95.738275 118.660748 
L 100.174165 122.628677 
L 104.765182 126.416043 
L 109.503981 130.016789 
L 114.382981 133.425152 
L 119.394376 136.635681 
L 124.53015 139.64324 
L 129.782085 142.443017 
L 135.141781 145.030533 
L 137.686135 146.168011 
L 136.110609 140.428734 
L 134.306833 134.757052 
L 132.277694 129.162039 
L 130.026436 123.652645 
L 127.556663 118.237684 
L 124.872324 112.925819 
L 121.977715 107.725548 
L 118.877465 102.645191 
L 117.235411 100.128 
L 114.033188 105.144707 
L 111.03414 110.285455 
L 108.243067 115.542021 
L 105.664433 120.905996 
L 103.302363 126.368798 
L 101.160636 131.921689 
L 99.242679 137.555783 
L 97.55156 143.262069 
L 96.089984 149.031417 
L 94.86029 154.854597 
L 93.864444 160.722295 
L 93.10404 166.625122 
L 92.580295 172.553635 
L 92.294046 178.498351 
L 92.245751 184.449758 
L 92.435487 190.398336 
L 92.862951 196.334568 
L 93.52746 202.248958 
L 94.427949 208.132044 
L 95.562979 213.974414 
L 96.930733 219.766722 
L 98.529024 225.499701 
L 100.355294 231.16418 
L 102.406623 236.751096 
L 104.679727 242.251512 
L 107.170971 247.656628 
L 107.795567 248.928 
L 110.338153 243.546844 
L 112.663515 238.068316 
L 114.767935 232.50118 
L 116.648045 226.854343 
L 118.300839 221.136839 
L 119.723671 215.357814 
L 120.914265 209.526514 
L 121.870718 203.652267 
L 122.591498 197.74447 
L 123.075452 191.812576 
L 123.321807 185.866074 
L 123.330169 179.914476 
L 123.100523 173.967305 
L 122.633238 168.034075 
L 121.92906 162.124277 
L 120.989117 156.247365 
L 119.814912 150.412742 
L 118.408323 144.629742 
L 116.771601 138.907617 
L 114.907365 133.25552 
L 112.818596 127.682493 
L 110.508636 122.197453 
L 107.98118 116.809174 
L 105.240273 111.526276 
L 102.290299 106.357211 
L 99.135977 101.310248 
L 98.355724 100.128 
L 95.1535 105.144707 
L 92.154453 110.285455 
L 89.363379 115.542021 
L 87.36 119.660646 
L 89.987975 125.000621 
L 92.82739 130.231233 
L 95.873702 135.344115 
L 99.122038 140.331088 
L 102.567202 145.184172 
L 106.203681 149.895605 
L 110.025659 154.457848 
L 114.02702 158.863604 
L 118.201365 163.105824 
L 122.542013 167.177722 
L 124.93133 169.284999 
L 119.570231 171.869606 
L 114.316777 174.666533 
L 109.179372 177.671305 
L 104.166235 180.879115 
L 99.285387 184.284831 
L 94.544635 187.883004 
L 89.951564 191.667879 
L 87.36 193.94462 
L 91.864099 197.834951 
L 96.520167 201.542054 
L 101.320755 205.059998 
L 106.258183 208.383157 
L 111.324553 211.506213 
L 116.511759 214.42417 
L 121.811503 217.13236 
L 127.215307 219.62645 
L 132.714525 221.902451 
L 138.30036 223.956721 
L 143.963876 225.785974 
L 149.696013 227.387284 
L 155.487599 228.758089 
L 161.329371 229.896195 
L 167.211982 230.799783 
L 173.126021 231.467406 
L 179.062027 231.897997 
L 185.010505 232.090866 
L 190.961936 232.045705 
L 196.906802 231.762587 
L 202.83559 231.241963 
L 208.738817 230.484668 
L 214.607038 229.491913 
L 220.430865 228.265285 
L 226.200982 226.806748 
L 231.908158 225.118634 
L 236.16 223.697088 
L 243.477789 222.355196 
L 250.759748 220.830798 
L 258.001326 219.124846 
L 265.197996 217.238406 
L 272.345262 215.172658 
L 279.438655 212.928893 
L 286.473744 210.508512 
L 293.446131 207.913029 
L 300.351459 205.144065 
L 307.185413 202.203351 
L 313.94372 199.092725 
L 320.622159 195.814131 
L 327.216554 192.369618 
L 333.722785 188.761339 
L 340.136784 184.991548 
L 346.454545 181.062602 
L 352.672118 176.976956 
L 358.785618 172.737164 
L 364.791224 168.345875 
L 370.685182 163.805834 
L 376.463809 159.119878 
L 382.123494 154.290935 
L 384.96 151.776772 
L 379.362276 146.876139 
L 373.643799 142.116965 
L 367.808142 137.502226 
L 361.858951 133.034805 
L 355.799946 128.717494 
L 349.634913 124.552992 
L 343.367704 120.5439 
L 337.002237 116.692726 
L 330.542489 113.001875 
L 323.992499 109.473654 
L 317.356359 106.110268 
L 310.638217 102.91382 
L 304.402001 100.128 
L 297.612271 103.16943 
L 290.900692 106.379635 
L 284.271456 109.756608 
L 277.728708 113.298241 
L 271.276535 117.002318 
L 264.918971 120.866525 
L 258.659989 124.888447 
L 252.5035 129.065571 
L 246.453352 133.395286 
L 240.513327 137.874885 
L 236.16 141.309399 
L 234.999525 147.146768 
L 234.073412 153.025875 
L 233.38314 158.937313 
L 232.929816 164.871627 
L 232.714163 170.819322 
L 232.736527 176.770883 
L 232.996872 182.716789 
L 233.494781 188.647528 
L 234.229459 194.553612 
L 235.199729 200.425593 
L 236.16 205.162757 
L 234.999525 211.000126 
L 234.073412 216.879233 
L 233.38314 222.790671 
L 232.929816 228.724985 
L 232.714163 234.67268 
L 232.736527 240.624241 
L 232.996872 246.570147 
L 233.166223 248.928 
L 233.520992 242.98698 
L 233.6379 237.036525 
L 233.51676 231.086155 
L 233.157766 225.145389 
L 232.561491 219.22373 
L 231.728891 213.330653 
L 230.661296 207.475585 
L 229.360414 201.667893 
L 227.828328 195.916868 
L 226.067487 190.23171 
L 224.080709 184.621514 
L 221.871173 179.095256 
L 219.442412 173.661776 
L 216.798313 168.329767 
L 213.943105 163.107759 
L 210.881357 158.004106 
L 207.617966 153.026972 
L 204.158153 148.18432 
L 200.507453 143.483898 
L 196.671707 138.933224 
L 192.65705 134.53958 
L 188.469906 130.309993 
L 184.116972 126.251231 
L 179.605214 122.369786 
L 174.941848 118.671868 
L 170.134334 115.163393 
L 165.190365 111.849973 
L 160.117849 108.73691 
L 154.924901 105.829184 
L 149.619829 103.131446 
L 144.211119 100.648012 
L 143.001516 100.128 
L 137.571044 102.563478 
L 132.242309 105.21417 
L 127.023836 108.075833 
L 121.923973 111.143891 
L 116.950879 114.413435 
L 112.11251 117.879234 
L 107.416606 121.535744 
L 102.87068 125.377116 
L 98.482004 129.397203 
L 94.257598 133.589575 
L 90.204222 137.947524 
L 87.36 141.225814 
L 91.284554 145.700124 
L 95.384894 150.013915 
L 99.65446 154.160286 
L 104.086421 158.132603 
L 108.673687 161.924511 
L 113.40892 165.529945 
L 118.284544 168.943136 
L 123.292759 172.158623 
L 124.593553 172.948377 
L 128.828187 174.358766 
L 132.970628 176.020542 
L 137.005968 177.927725 
L 140.919684 180.073452 
L 144.697692 182.449999 
L 148.326394 185.048815 
L 151.79273 187.860545 
L 155.084227 190.875072 
L 158.189037 194.081545 
L 161.095988 197.468425 
L 163.794617 201.023523 
L 166.275211 204.734044 
L 168.528845 208.586635 
L 169.72136 210.86609 
L 170.003903 206.411711 
L 170.553041 201.982291 
L 171.366796 197.593769 
L 172.442241 193.261941 
L 173.775504 189.002395 
L 175.361787 184.830462 
L 177.195381 180.761156 
L 179.269688 176.809123 
L 181.577242 172.988584 
L 184.109739 169.313291 
L 186.858064 165.79647 
L 189.812325 162.450778 
L 192.961892 159.288256 
L 194.861359 157.553312 
L 190.482458 158.417339 
L 186.059626 159.017235 
L 181.60878 159.350841 
L 177.145939 159.416955 
L 172.687165 159.215342 
L 168.248503 158.746725 
L 163.845929 158.012791 
L 159.495287 157.016182 
L 155.212234 155.760484 
L 151.012185 154.250217 
L 146.910255 152.490816 
L 142.921208 150.488613 
L 139.059398 148.250813 
L 136.897011 146.857225 
L 138.850344 150.870429 
L 140.559515 154.993541 
L 142.018371 159.211723 
L 143.221664 163.509793 
L 144.165061 167.872283 
L 144.845169 172.283493 
L 145.259539 176.727547 
L 145.40668 181.188451 
L 145.286062 185.650152 
L 144.89812 190.096591 
L 144.24425 194.511766 
L 143.326805 198.879788 
L 142.149087 203.184936 
L 141.35374 205.631449 
L 144.735265 202.718271 
L 148.28539 200.013104 
L 151.99134 197.525685 
L 155.839777 195.264966 
L 159.816851 193.239083 
L 163.908248 191.455326 
L 168.099244 189.920115 
L 172.374756 188.638977 
L 176.719396 187.61652 
L 181.11753 186.856425 
L 185.553327 186.361428 
L 190.010824 186.133309 
L 194.473979 186.172891 
L 197.042472 186.317283 
L 202.880606 185.160665 
L 208.667818 183.771508 
L 214.39485 182.152036 
L 220.052539 180.304839 
L 225.631834 178.232872 
L 231.12381 175.93945 
L 236.16 173.603872 
L 243.388426 171.843028 
L 250.570578 169.902043 
L 257.701965 167.78213 
L 264.778131 165.484613 
L 271.794655 163.010928 
L 278.74715 160.362621 
L 285.631272 157.541348 
L 292.442718 154.548871 
L 299.177231 151.387061 
L 305.830603 148.057893 
L 312.398676 144.563449 
L 318.877344 140.905912 
L 325.262559 137.087568 
L 331.55033 133.110804 
L 337.736727 128.978104 
L 343.817884 124.692052 
L 349.790001 120.255326 
L 355.649345 115.670699 
L 361.392255 110.941036 
L 367.01514 106.069294 
L 373.505888 100.128 
L 378.982285 105.163851 
L 384.96 110.382254 
L 379.351289 115.270308 
L 373.866518 120.297038 
L 368.509117 125.459302 
L 363.282433 130.753874 
L 358.189733 136.177445 
L 353.2342 141.726626 
L 348.41893 147.397948 
L 343.746933 153.187866 
L 339.221128 159.092764 
L 334.844345 165.108949 
L 332.170698 168.945876 
L 338.863339 172.19538 
L 345.635118 175.27657 
L 352.481802 178.18752 
L 359.399113 180.926412 
L 366.382727 183.491533 
L 373.428281 185.88128 
L 380.53137 188.09416 
L 384.96 189.376083 
L 377.823482 191.47866 
L 370.741753 193.758973 
L 363.719239 196.215599 
L 356.760328 198.847002 
L 349.86937 201.651537 
L 343.050672 204.627452 
L 336.308494 207.772887 
L 329.647051 211.085875 
L 323.070506 214.564347 
L 316.582968 218.206129 
L 310.188493 222.008944 
L 303.891076 225.970416 
L 297.694654 230.088069 
L 291.603099 234.35933 
L 285.620217 238.781529 
L 279.749748 243.351903 
L 272.976454 248.928 
L 267.243257 244.186569 
L 261.393328 239.589935 
L 255.430323 235.14097 
L 249.357969 230.842455 
L 243.18006 226.697076 
L 236.16 222.251368 
L 233.360876 216.999084 
L 230.353955 211.862937 
L 227.144049 206.851142 
L 223.736292 201.971719 
L 220.136136 197.232473 
L 216.34934 192.640985 
L 212.381963 188.204601 
L 208.240351 183.930419 
L 203.931131 179.825276 
L 199.461195 175.89574 
L 198.948207 175.464622 
L 203.626901 171.786116 
L 208.154752 167.923456 
L 212.524516 163.882819 
L 216.729201 159.67067 
L 220.762083 155.293748 
L 224.616709 150.759055 
L 228.286912 146.073845 
L 231.76682 141.245614 
L 235.050868 136.282085 
L 236.16 134.502994 
L 236.16 134.502994 
" style="fill:none;stroke:#1f77b4;stroke-linecap:square;stroke-width:1.5;"/>
   </g>
   <g id="patch_5">
    <path d="M 57.6 263.808 
L 57.6 85.248 
" style="fill:none;stroke:#000000;stroke-linecap:square;stroke-linejoin:miter;stroke-width:0.8;"/>
   </g>
   <g id="patch_6">
    <path d="M 414.72 263.808 
L 414.72 85.248 
" style="fill:none;stroke:#000000;stroke-linecap:square;stroke-linejoin:miter;stroke-width:0.8;"/>
   </g>
   <g id="patch_7">
    <path d="M 57.6 263.808 
L 414.72 263.808 
" style="fill:none;stroke:#000000;stroke-linecap:square;stroke-linejoin:miter;stroke-width:0.8;"/>
   </g>
   <g id="patch_8">
    <path d="M 57.6 85.248 
L 414.72 85.248 
" style="fill:none;stroke:#000000;stroke-linecap:square;stroke-linejoin:miter;stroke-width:0.8;"/>
   </g>
  </g>
 </g>
 <defs>
  <clipPath id="p28d2c0ff66">
   <rect height="178.56" width="357.12" x="57.6" y="85.248"/>
  </clipPath>
 </defs>
</svg>
