<?xml version="1.0" encoding="utf-8" standalone="no"?>
<!DOCTYPE svg PUBLIC "-//W3C//DTD SVG 1.1//EN"
  "http://www.w3.org/Graphics/SVG/1.1/DTD/svg11.dtd">
<!-- Created with matplotlib (http://matplotlib.org/) -->
<svg height="345.6pt" version="1.1" viewBox="0 0 460.8 345.6" width="460.8pt" xmlns="http://www.w3.org/2000/svg" xmlns:xlink="http://www.w3.org/1999/xlink">
 <defs>
  <style type="text/css">
*{stroke-linecap:butt;stroke-linejoin:round;}
  </style>
 </defs>
 <g id="figure_1">
  <g id="patch_1">
   <path d="M 0 345.6 
L 460.8 345.6 
L 460.8 0 
L 0 0 
z
" style="fill:#ffffff;"/>
  </g>
  <g id="axes_1">
   <g id="patch_2">
    <path d="M 82.520165 307.584 
L 389.799835 307.584 
L 389.799835 41.472 
L 82.520165 41.472 
z
" style="fill:#ffffff;"/>
   </g>
   <g id="PathCollection_1">
    <defs>
     <path d="M 0 2.738613 
C 0.726289 2.738613 1.422928 2.450055 1.936492 1.936492 
C 2.450055 1.422928 2.738613 0.726289 2.738613 0 
C 2.738613 -0.726289 2.450055 -1.422928 1.936492 -1.936492 
C 1.422928 -2.450055 0.726289 -2.738613 0 -2.738613 
C -0.726289 -2.738613 -1.422928 -2.450055 -1.936492 -1.936492 
C -2.450055 -1.422928 -2.738613 -0.726289 -2.738613 0 
C -2.738613 0.726289 -2.450055 1.422928 -1.936492 1.936492 
C -1.422928 2.450055 -0.726289 2.738613 0 2.738613 
z
" id="md5dcafa92b" style="stroke:#000000;"/>
    </defs>
    <g clip-path="url(#pd44ff2f9dd)">
     <use style="stroke:#000000;" x="186.997885" xlink:href="#md5dcafa92b" y="160.17926"/>
    </g>
   </g>
   <g id="Quiver_1">
    <path clip-path="url(#pd44ff2f9dd)" d="M 187.203171 160.919522 
L 170.17715 165.641107 
L 171.327985 166.916344 
L 163.309508 166.748422 
L 170.096267 162.474774 
L 169.766578 164.160583 
L 186.792599 159.438999 
L 187.203171 160.919522 
"/>
   </g>
   <g id="patch_3">
    <path clip-path="url(#pd44ff2f9dd)" d="M 236.16 225.741278 
C 249.74192 225.741278 262.769389 220.345124 272.373256 210.741256 
C 281.977124 201.137389 287.373278 188.10992 287.373278 174.528 
C 287.373278 160.94608 281.977124 147.918611 272.373256 138.314744 
C 262.769389 128.710876 249.74192 123.314722 236.16 123.314722 
C 222.57808 123.314722 209.550611 128.710876 199.946744 138.314744 
C 190.342876 147.918611 184.946722 160.94608 184.946722 174.528 
C 184.946722 188.10992 190.342876 201.137389 199.946744 210.741256 
C 209.550611 220.345124 222.57808 225.741278 236.16 225.741278 
z
" style="fill:#009900;fill-opacity:0.5;stroke:#009900;stroke-linejoin:miter;stroke-width:2;"/>
   </g>
   <g id="matplotlib.axis_1">
    <g id="xtick_1">
     <g id="line2d_1">
      <defs>
       <path d="M 0 0 
L 0 3.5 
" id="m62ba8bdb35" style="stroke:#000000;stroke-width:0.8;"/>
      </defs>
      <g>
       <use style="stroke:#000000;stroke-width:0.8;" x="108.126804" xlink:href="#m62ba8bdb35" y="307.584"/>
      </g>
     </g>
     <g id="text_1">
      <!-- −2 -->
      <defs>
       <path d="M 10.59375 35.5 
L 73.1875 35.5 
L 73.1875 27.203125 
L 10.59375 27.203125 
z
" id="DejaVuSans-2212"/>
       <path d="M 19.1875 8.296875 
L 53.609375 8.296875 
L 53.609375 0 
L 7.328125 0 
L 7.328125 8.296875 
Q 12.9375 14.109375 22.625 23.890625 
Q 32.328125 33.6875 34.8125 36.53125 
Q 39.546875 41.84375 41.421875 45.53125 
Q 43.3125 49.21875 43.3125 52.78125 
Q 43.3125 58.59375 39.234375 62.25 
Q 35.15625 65.921875 28.609375 65.921875 
Q 23.96875 65.921875 18.8125 64.3125 
Q 13.671875 62.703125 7.8125 59.421875 
L 7.8125 69.390625 
Q 13.765625 71.78125 18.9375 73 
Q 24.125 74.21875 28.421875 74.21875 
Q 39.75 74.21875 46.484375 68.546875 
Q 53.21875 62.890625 53.21875 53.421875 
Q 53.21875 48.921875 51.53125 44.890625 
Q 49.859375 40.875 45.40625 35.40625 
Q 44.1875 33.984375 37.640625 27.21875 
Q 31.109375 20.453125 19.1875 8.296875 
z
" id="DejaVuSans-32"/>
      </defs>
      <g transform="translate(100.755711 322.182437)scale(0.1 -0.1)">
       <use xlink:href="#DejaVuSans-2212"/>
       <use x="83.789062" xlink:href="#DejaVuSans-32"/>
      </g>
     </g>
    </g>
    <g id="xtick_2">
     <g id="line2d_2">
      <g>
       <use style="stroke:#000000;stroke-width:0.8;" x="172.143402" xlink:href="#m62ba8bdb35" y="307.584"/>
      </g>
     </g>
     <g id="text_2">
      <!-- −1 -->
      <defs>
       <path d="M 12.40625 8.296875 
L 28.515625 8.296875 
L 28.515625 63.921875 
L 10.984375 60.40625 
L 10.984375 69.390625 
L 28.421875 72.90625 
L 38.28125 72.90625 
L 38.28125 8.296875 
L 54.390625 8.296875 
L 54.390625 0 
L 12.40625 0 
z
" id="DejaVuSans-31"/>
      </defs>
      <g transform="translate(164.772308 322.182437)scale(0.1 -0.1)">
       <use xlink:href="#DejaVuSans-2212"/>
       <use x="83.789062" xlink:href="#DejaVuSans-31"/>
      </g>
     </g>
    </g>
    <g id="xtick_3">
     <g id="line2d_3">
      <g>
       <use style="stroke:#000000;stroke-width:0.8;" x="236.16" xlink:href="#m62ba8bdb35" y="307.584"/>
      </g>
     </g>
     <g id="text_3">
      <!-- 0 -->
      <defs>
       <path d="M 31.78125 66.40625 
Q 24.171875 66.40625 20.328125 58.90625 
Q 16.5 51.421875 16.5 36.375 
Q 16.5 21.390625 20.328125 13.890625 
Q 24.171875 6.390625 31.78125 6.390625 
Q 39.453125 6.390625 43.28125 13.890625 
Q 47.125 21.390625 47.125 36.375 
Q 47.125 51.421875 43.28125 58.90625 
Q 39.453125 66.40625 31.78125 66.40625 
z
M 31.78125 74.21875 
Q 44.046875 74.21875 50.515625 64.515625 
Q 56.984375 54.828125 56.984375 36.375 
Q 56.984375 17.96875 50.515625 8.265625 
Q 44.046875 -1.421875 31.78125 -1.421875 
Q 19.53125 -1.421875 13.0625 8.265625 
Q 6.59375 17.96875 6.59375 36.375 
Q 6.59375 54.828125 13.0625 64.515625 
Q 19.53125 74.21875 31.78125 74.21875 
z
" id="DejaVuSans-30"/>
      </defs>
      <g transform="translate(232.97875 322.182437)scale(0.1 -0.1)">
       <use xlink:href="#DejaVuSans-30"/>
      </g>
     </g>
    </g>
    <g id="xtick_4">
     <g id="line2d_4">
      <g>
       <use style="stroke:#000000;stroke-width:0.8;" x="300.176598" xlink:href="#m62ba8bdb35" y="307.584"/>
      </g>
     </g>
     <g id="text_4">
      <!-- 1 -->
      <g transform="translate(296.995348 322.182437)scale(0.1 -0.1)">
       <use xlink:href="#DejaVuSans-31"/>
      </g>
     </g>
    </g>
    <g id="xtick_5">
     <g id="line2d_5">
      <g>
       <use style="stroke:#000000;stroke-width:0.8;" x="364.193196" xlink:href="#m62ba8bdb35" y="307.584"/>
      </g>
     </g>
     <g id="text_5">
      <!-- 2 -->
      <g transform="translate(361.011946 322.182437)scale(0.1 -0.1)">
       <use xlink:href="#DejaVuSans-32"/>
      </g>
     </g>
    </g>
   </g>
   <g id="matplotlib.axis_2">
    <g id="ytick_1">
     <g id="line2d_6">
      <defs>
       <path d="M 0 0 
L -3.5 0 
" id="mc9bd6a6b09" style="stroke:#000000;stroke-width:0.8;"/>
      </defs>
      <g>
       <use style="stroke:#000000;stroke-width:0.8;" x="82.520165" xlink:href="#mc9bd6a6b09" y="302.561196"/>
      </g>
     </g>
     <g id="text_6">
      <!-- −2.0 -->
      <defs>
       <path d="M 10.6875 12.40625 
L 21 12.40625 
L 21 0 
L 10.6875 0 
z
" id="DejaVuSans-2e"/>
      </defs>
      <g transform="translate(51.237353 306.360414)scale(0.1 -0.1)">
       <use xlink:href="#DejaVuSans-2212"/>
       <use x="83.789062" xlink:href="#DejaVuSans-32"/>
       <use x="147.412109" xlink:href="#DejaVuSans-2e"/>
       <use x="179.199219" xlink:href="#DejaVuSans-30"/>
      </g>
     </g>
    </g>
    <g id="ytick_2">
     <g id="line2d_7">
      <g>
       <use style="stroke:#000000;stroke-width:0.8;" x="82.520165" xlink:href="#mc9bd6a6b09" y="270.552897"/>
      </g>
     </g>
     <g id="text_7">
      <!-- −1.5 -->
      <defs>
       <path d="M 10.796875 72.90625 
L 49.515625 72.90625 
L 49.515625 64.59375 
L 19.828125 64.59375 
L 19.828125 46.734375 
Q 21.96875 47.46875 24.109375 47.828125 
Q 26.265625 48.1875 28.421875 48.1875 
Q 40.625 48.1875 47.75 41.5 
Q 54.890625 34.8125 54.890625 23.390625 
Q 54.890625 11.625 47.5625 5.09375 
Q 40.234375 -1.421875 26.90625 -1.421875 
Q 22.3125 -1.421875 17.546875 -0.640625 
Q 12.796875 0.140625 7.71875 1.703125 
L 7.71875 11.625 
Q 12.109375 9.234375 16.796875 8.0625 
Q 21.484375 6.890625 26.703125 6.890625 
Q 35.15625 6.890625 40.078125 11.328125 
Q 45.015625 15.765625 45.015625 23.390625 
Q 45.015625 31 40.078125 35.4375 
Q 35.15625 39.890625 26.703125 39.890625 
Q 22.75 39.890625 18.8125 39.015625 
Q 14.890625 38.140625 10.796875 36.28125 
z
" id="DejaVuSans-35"/>
      </defs>
      <g transform="translate(51.237353 274.352116)scale(0.1 -0.1)">
       <use xlink:href="#DejaVuSans-2212"/>
       <use x="83.789062" xlink:href="#DejaVuSans-31"/>
       <use x="147.412109" xlink:href="#DejaVuSans-2e"/>
       <use x="179.199219" xlink:href="#DejaVuSans-35"/>
      </g>
     </g>
    </g>
    <g id="ytick_3">
     <g id="line2d_8">
      <g>
       <use style="stroke:#000000;stroke-width:0.8;" x="82.520165" xlink:href="#mc9bd6a6b09" y="238.544598"/>
      </g>
     </g>
     <g id="text_8">
      <!-- −1.0 -->
      <g transform="translate(51.237353 242.343817)scale(0.1 -0.1)">
       <use xlink:href="#DejaVuSans-2212"/>
       <use x="83.789062" xlink:href="#DejaVuSans-31"/>
       <use x="147.412109" xlink:href="#DejaVuSans-2e"/>
       <use x="179.199219" xlink:href="#DejaVuSans-30"/>
      </g>
     </g>
    </g>
    <g id="ytick_4">
     <g id="line2d_9">
      <g>
       <use style="stroke:#000000;stroke-width:0.8;" x="82.520165" xlink:href="#mc9bd6a6b09" y="206.536299"/>
      </g>
     </g>
     <g id="text_9">
      <!-- −0.5 -->
      <g transform="translate(51.237353 210.335518)scale(0.1 -0.1)">
       <use xlink:href="#DejaVuSans-2212"/>
       <use x="83.789062" xlink:href="#DejaVuSans-30"/>
       <use x="147.412109" xlink:href="#DejaVuSans-2e"/>
       <use x="179.199219" xlink:href="#DejaVuSans-35"/>
      </g>
     </g>
    </g>
    <g id="ytick_5">
     <g id="line2d_10">
      <g>
       <use style="stroke:#000000;stroke-width:0.8;" x="82.520165" xlink:href="#mc9bd6a6b09" y="174.528"/>
      </g>
     </g>
     <g id="text_10">
      <!-- 0.0 -->
      <g transform="translate(59.61704 178.327219)scale(0.1 -0.1)">
       <use xlink:href="#DejaVuSans-30"/>
       <use x="63.623047" xlink:href="#DejaVuSans-2e"/>
       <use x="95.410156" xlink:href="#DejaVuSans-30"/>
      </g>
     </g>
    </g>
    <g id="ytick_6">
     <g id="line2d_11">
      <g>
       <use style="stroke:#000000;stroke-width:0.8;" x="82.520165" xlink:href="#mc9bd6a6b09" y="142.519701"/>
      </g>
     </g>
     <g id="text_11">
      <!-- 0.5 -->
      <g transform="translate(59.61704 146.31892)scale(0.1 -0.1)">
       <use xlink:href="#DejaVuSans-30"/>
       <use x="63.623047" xlink:href="#DejaVuSans-2e"/>
       <use x="95.410156" xlink:href="#DejaVuSans-35"/>
      </g>
     </g>
    </g>
    <g id="ytick_7">
     <g id="line2d_12">
      <g>
       <use style="stroke:#000000;stroke-width:0.8;" x="82.520165" xlink:href="#mc9bd6a6b09" y="110.511402"/>
      </g>
     </g>
     <g id="text_12">
      <!-- 1.0 -->
      <g transform="translate(59.61704 114.310621)scale(0.1 -0.1)">
       <use xlink:href="#DejaVuSans-31"/>
       <use x="63.623047" xlink:href="#DejaVuSans-2e"/>
       <use x="95.410156" xlink:href="#DejaVuSans-30"/>
      </g>
     </g>
    </g>
    <g id="ytick_8">
     <g id="line2d_13">
      <g>
       <use style="stroke:#000000;stroke-width:0.8;" x="82.520165" xlink:href="#mc9bd6a6b09" y="78.503103"/>
      </g>
     </g>
     <g id="text_13">
      <!-- 1.5 -->
      <g transform="translate(59.61704 82.302322)scale(0.1 -0.1)">
       <use xlink:href="#DejaVuSans-31"/>
       <use x="63.623047" xlink:href="#DejaVuSans-2e"/>
       <use x="95.410156" xlink:href="#DejaVuSans-35"/>
      </g>
     </g>
    </g>
    <g id="ytick_9">
     <g id="line2d_14">
      <g>
       <use style="stroke:#000000;stroke-width:0.8;" x="82.520165" xlink:href="#mc9bd6a6b09" y="46.494804"/>
      </g>
     </g>
     <g id="text_14">
      <!-- 2.0 -->
      <g transform="translate(59.61704 50.294023)scale(0.1 -0.1)">
       <use xlink:href="#DejaVuSans-32"/>
       <use x="63.623047" xlink:href="#DejaVuSans-2e"/>
       <use x="95.410156" xlink:href="#DejaVuSans-30"/>
      </g>
     </g>
    </g>
   </g>
   <g id="line2d_15">
    <path clip-path="url(#pd44ff2f9dd)" d="M 300.176598 63.648 
L 172.143402 63.648 
" style="fill:none;stroke:#009900;stroke-linecap:square;stroke-width:2;"/>
   </g>
   <g id="line2d_16">
    <path clip-path="url(#pd44ff2f9dd)" d="M 172.143402 63.648 
L 108.126804 174.528 
" style="fill:none;stroke:#009900;stroke-linecap:square;stroke-width:2;"/>
   </g>
   <g id="line2d_17">
    <path clip-path="url(#pd44ff2f9dd)" d="M 108.126804 174.528 
L 172.143402 285.408 
" style="fill:none;stroke:#009900;stroke-linecap:square;stroke-width:2;"/>
   </g>
   <g id="line2d_18">
    <path clip-path="url(#pd44ff2f9dd)" d="M 172.143402 285.408 
L 300.176598 285.408 
" style="fill:none;stroke:#009900;stroke-linecap:square;stroke-width:2;"/>
   </g>
   <g id="line2d_19">
    <path clip-path="url(#pd44ff2f9dd)" d="M 300.176598 285.408 
L 364.193196 174.528 
" style="fill:none;stroke:#009900;stroke-linecap:square;stroke-width:2;"/>
   </g>
   <g id="line2d_20">
    <path clip-path="url(#pd44ff2f9dd)" d="M 364.193196 174.528 
L 300.176598 63.648 
" style="fill:none;stroke:#009900;stroke-linecap:square;stroke-width:2;"/>
   </g>
   <g id="line2d_21">
    <path clip-path="url(#pd44ff2f9dd)" d="M 195.525574 219.166898 
L 197.029442 224.062088 
L 198.727861 228.893224 
L 200.618116 233.652576 
L 202.697183 238.332532 
L 204.961735 242.925604 
L 207.408149 247.424443 
L 210.032512 251.821854 
L 212.830625 256.110801 
L 215.798012 260.284422 
L 218.929926 264.336041 
L 222.221356 268.259176 
L 225.667037 272.047551 
L 229.261456 275.695105 
L 232.998864 279.196003 
L 236.873281 282.544645 
L 240.451776 285.408 
L 244.443559 282.20017 
L 248.303869 278.835277 
L 252.026532 275.318705 
L 255.605592 271.656078 
L 259.035323 267.853258 
L 262.310239 263.916326 
L 265.425099 259.851582 
L 268.374922 255.665527 
L 271.154987 251.36486 
L 273.760848 246.95646 
L 276.188336 242.44738 
L 278.433566 237.844833 
L 280.492948 233.156182 
L 282.363187 228.388928 
L 284.04129 223.550698 
L 285.524573 218.649231 
L 286.810664 213.69237 
L 287.897504 208.688044 
L 288.783355 203.644259 
L 289.4668 198.569083 
L 289.946746 193.470637 
L 290.222424 188.357076 
L 290.293393 183.236582 
L 290.159541 178.117345 
L 289.821081 173.007556 
L 289.278554 167.915388 
L 288.53283 162.84899 
L 287.585099 157.816465 
L 286.43688 152.825864 
L 285.090008 147.885172 
L 283.546638 143.002292 
L 281.80924 138.185037 
L 279.880593 133.441112 
L 277.763782 128.778107 
L 275.462194 124.203482 
L 272.979511 119.724556 
L 270.319704 115.348492 
L 267.487029 111.082293 
L 264.486018 106.932783 
L 261.321471 102.906601 
L 257.99845 99.010188 
L 254.522273 95.249776 
L 250.8985 91.631383 
L 247.132929 88.160796 
L 243.231583 84.843568 
L 239.200704 81.685006 
L 235.04674 78.690162 
L 230.776338 75.863828 
L 226.396328 73.210525 
L 221.913718 70.734499 
L 217.335678 68.439709 
L 212.669534 66.329828 
L 207.922749 64.408231 
L 205.879132 63.648 
L 201.100311 65.488483 
L 196.398913 67.518595 
L 191.782458 69.735089 
L 187.258332 72.134419 
L 182.833772 74.712747 
L 178.515857 77.465948 
L 174.311495 80.389616 
L 170.227411 83.479076 
L 166.27014 86.729385 
L 162.446012 90.135342 
L 158.761144 93.691499 
L 155.221433 97.392167 
L 151.83254 101.231425 
L 148.599887 105.203133 
L 146.751148 107.628674 
L 144.814412 112.369302 
L 143.068799 117.183587 
L 141.517102 122.063826 
L 140.161804 127.002214 
L 139.005073 131.990848 
L 138.04876 137.021749 
L 137.294394 142.086869 
L 136.743182 147.178103 
L 136.396006 152.287308 
L 136.253421 157.406309 
L 136.315656 162.526917 
L 136.582611 167.64094 
L 137.053858 172.740198 
L 137.728645 177.816532 
L 138.605891 182.861821 
L 139.684193 187.867994 
L 140.961826 192.827041 
L 142.436746 197.731031 
L 144.106594 202.572116 
L 145.968698 207.342554 
L 148.020079 212.034711 
L 150.257455 216.641081 
L 152.677247 221.154296 
L 155.275584 225.567135 
L 158.048309 229.872538 
L 160.990987 234.063618 
L 164.098909 238.13367 
L 167.367104 242.076182 
L 170.790343 245.884848 
L 174.36315 249.553574 
L 178.079809 253.076492 
L 181.934374 256.447965 
L 185.920679 259.662599 
L 190.032346 262.715253 
L 194.262798 265.601042 
L 198.605267 268.315349 
L 203.052806 270.853833 
L 207.5983 273.212433 
L 212.234476 275.387374 
L 216.953918 277.375178 
L 221.749077 279.172665 
L 226.61228 280.776959 
L 231.535747 282.185493 
L 236.511603 283.396015 
L 241.531886 284.406587 
L 246.588566 285.215592 
L 248.026965 285.408 
L 253.09249 284.656361 
L 258.123905 283.702756 
L 263.113162 282.548711 
L 268.052278 281.196072 
L 272.933352 279.647003 
L 277.748576 277.903982 
L 282.490246 275.969798 
L 287.150776 273.847545 
L 291.722711 271.540618 
L 296.198737 269.052707 
L 300.571692 266.387794 
L 304.834581 263.55014 
L 308.980584 260.544286 
L 313.003069 257.375041 
L 316.895601 254.047474 
L 319.848711 251.334901 
L 320.941409 246.331851 
L 321.833164 241.289106 
L 322.52255 236.214735 
L 323.008464 231.116854 
L 323.290129 226.003619 
L 323.367093 220.883211 
L 323.239234 215.763821 
L 322.906757 210.653639 
L 322.370192 205.56084 
L 321.630399 200.493572 
L 320.688561 195.459941 
L 319.546185 190.467999 
L 318.205099 185.525734 
L 316.667447 180.641051 
L 314.93569 175.821765 
L 313.012598 171.075585 
L 310.901247 166.410105 
L 308.605016 161.832789 
L 306.127579 157.350959 
L 303.472897 152.971784 
L 300.645218 148.702272 
L 297.649067 144.549252 
L 294.489235 140.519367 
L 291.170779 136.619066 
L 287.699007 132.854588 
L 284.079472 129.231954 
L 280.317967 125.756961 
L 276.420507 122.435168 
L 272.393329 119.271889 
L 268.242874 116.272184 
L 263.975783 113.440852 
L 259.598883 110.782424 
L 255.119174 108.301151 
L 250.543825 106.001003 
L 245.880154 103.885661 
L 241.135622 101.958508 
L 236.31782 100.222627 
L 231.434454 98.680795 
L 226.493338 97.335479 
L 221.502377 96.188831 
L 216.469553 95.242685 
L 211.40292 94.498555 
L 206.310582 93.957632 
L 201.200687 93.620781 
L 196.081408 93.488541 
L 190.960936 93.561123 
L 185.847462 93.838411 
L 180.749167 94.319962 
L 175.674207 95.005005 
L 170.630701 95.892444 
L 165.626718 96.98086 
L 160.670262 98.268511 
L 155.769263 99.753338 
L 150.931561 101.432965 
L 150.162423 101.720172 
L 151.094404 106.755638 
L 152.227005 111.749806 
L 153.558412 116.694688 
L 155.086498 121.582372 
L 156.808816 126.405039 
L 158.722612 131.154975 
L 160.824824 135.824579 
L 163.112088 140.406383 
L 165.580747 144.893055 
L 168.226849 149.277419 
L 171.046163 153.552459 
L 174.034178 157.711337 
L 177.186113 161.7474 
L 180.496927 165.654191 
L 183.961322 169.42546 
L 185.097674 170.598785 
L 181.056629 173.744331 
L 177.144605 177.048959 
L 173.36786 180.507383 
L 169.732435 184.114071 
L 166.244148 187.863251 
L 162.908579 191.748927 
L 159.731063 195.764882 
L 156.716684 199.904692 
L 153.870264 204.161733 
L 151.196358 208.529195 
L 148.699242 213.000091 
L 146.382912 217.56727 
L 144.251073 222.223423 
L 142.307136 226.961103 
L 140.787159 231.097393 
L 145.835487 231.956974 
L 150.914152 232.613988 
L 156.015028 233.067384 
L 161.129954 233.316437 
L 166.250749 233.360748 
L 171.36922 233.200246 
L 176.477178 232.835189 
L 181.566451 232.266159 
L 186.628899 231.494069 
L 191.656422 230.520152 
L 196.640977 229.345966 
L 201.574591 227.973391 
L 206.449369 226.404622 
L 211.257514 224.642168 
L 215.991334 222.68885 
L 217.261183 222.126682 
L 219.315082 226.817738 
L 221.55493 231.422907 
L 223.977144 235.934822 
L 226.57785 240.346266 
L 229.352885 244.65018 
L 232.297812 248.83968 
L 235.407918 252.908063 
L 238.678229 256.84882 
L 242.103512 260.655648 
L 245.678287 264.322456 
L 249.396837 267.843379 
L 253.253211 271.212782 
L 257.241241 274.425276 
L 261.354546 277.475723 
L 265.586546 280.35924 
L 269.930471 283.071217 
L 274.014298 285.408 
L 278.454936 282.857464 
L 282.790028 280.13139 
L 287.012638 277.234139 
L 291.116012 274.170346 
L 295.093584 270.944913 
L 298.938992 267.562999 
L 302.646084 264.030015 
L 306.208928 260.351613 
L 309.621826 256.533677 
L 312.879317 252.582316 
L 315.97619 248.503851 
L 318.907491 244.304806 
L 321.66853 239.9919 
L 324.25489 235.572031 
L 326.662434 231.05227 
L 328.88731 226.439849 
L 330.925958 221.742146 
L 332.775118 216.966676 
L 334.431831 212.12108 
L 335.893446 207.213109 
L 337.157626 202.250614 
L 338.222348 197.241535 
L 339.085908 192.193886 
L 339.746926 187.115741 
L 340.204343 182.015224 
L 340.457428 176.900495 
L 340.505776 171.779737 
L 340.349309 166.661142 
L 339.988279 161.552897 
L 339.423262 156.463177 
L 338.655162 151.400122 
L 337.685209 146.371833 
L 336.514953 141.386353 
L 335.146268 136.45166 
L 333.581342 131.575646 
L 331.822679 126.766113 
L 329.873094 122.030755 
L 327.735703 117.377147 
L 325.413928 112.812734 
L 322.911482 108.344819 
L 320.232369 103.980549 
L 317.380875 99.726905 
L 314.361561 95.590694 
L 311.179258 91.578531 
L 307.839057 87.696836 
L 304.346301 83.951818 
L 300.706578 80.349469 
L 296.925712 76.895551 
L 293.009749 73.595591 
L 288.964956 70.454866 
L 284.797802 67.478403 
L 280.514955 64.670962 
L 278.856256 63.648 
L 274.531175 66.389929 
L 270.319201 69.302621 
L 266.227073 72.381418 
L 262.261337 75.621394 
L 258.428338 79.017365 
L 254.734208 82.563899 
L 251.184856 86.255322 
L 247.78596 90.085728 
L 244.542959 94.04899 
L 241.46104 98.138767 
L 238.545134 102.348516 
L 235.799905 106.671504 
L 233.229745 111.100813 
L 230.838767 115.629359 
L 228.630794 120.249895 
L 226.938784 124.151725 
L 223.356843 120.491917 
L 219.631413 116.978276 
L 215.768455 113.616423 
L 211.774149 110.411736 
L 207.654884 107.369342 
L 203.417251 104.494108 
L 199.068029 101.790634 
L 194.614176 99.263245 
L 190.062817 96.915985 
L 185.421233 94.752608 
L 180.69685 92.776575 
L 175.897225 90.991048 
L 171.030038 89.398883 
L 166.103074 88.002627 
L 161.124216 86.804513 
L 159.029018 86.36278 
L 162.493459 90.134007 
L 166.105938 93.763676 
L 169.860675 97.245981 
L 173.751664 100.575351 
L 177.77268 103.74646 
L 181.91729 106.754235 
L 186.178864 109.593864 
L 190.550584 112.260803 
L 195.025456 114.750788 
L 199.596321 117.059833 
L 204.255868 119.184246 
L 208.996641 121.120627 
L 213.811057 122.865878 
L 218.691413 124.417209 
L 221.933054 125.330501 
L 225.334047 121.501957 
L 228.579219 117.540472 
L 231.663378 113.452384 
L 234.581589 109.244232 
L 237.329186 104.922749 
L 239.901771 100.494848 
L 242.29523 95.967613 
L 244.505733 91.348286 
L 246.529744 86.644258 
L 248.364025 81.863054 
L 250.005642 77.012322 
L 251.451968 72.099824 
L 252.700689 67.133417 
L 253.452339 63.648 
L 254.562283 68.647253 
L 255.871255 73.598121 
L 257.377162 78.492683 
L 259.077595 83.323111 
L 260.969834 88.081675 
L 263.05085 92.760764 
L 265.317316 97.352892 
L 267.765605 101.850712 
L 270.3918 106.247028 
L 273.1917 110.534809 
L 276.160827 114.707193 
L 279.294429 118.757506 
L 282.587494 122.679269 
L 286.034753 126.466208 
L 289.630692 130.112264 
L 293.369559 133.611604 
L 297.24537 136.95863 
L 301.251927 140.147988 
L 305.38282 143.174575 
L 309.631439 146.03355 
L 313.990988 148.720338 
L 318.454493 151.230642 
L 323.014814 153.560445 
L 327.664653 155.70602 
L 332.396574 157.663935 
L 337.203005 159.431058 
L 342.076257 161.004561 
L 347.008535 162.381927 
L 351.991947 163.560953 
L 357.018522 164.539753 
L 358.577404 164.801164 
L 356.852126 169.622773 
L 355.321041 174.509519 
L 353.986599 179.453582 
L 352.850933 184.447055 
L 351.915862 189.481947 
L 351.18288 194.550205 
L 350.83438 197.666148 
L 346.73524 200.735603 
L 342.762124 203.966524 
L 338.921389 207.353743 
L 335.219178 210.891842 
L 331.661415 214.575159 
L 328.253791 218.397802 
L 325.001758 222.353656 
L 321.910519 226.436393 
L 318.985018 230.639481 
L 316.229935 234.956195 
L 313.649679 239.37963 
L 311.248377 243.90271 
L 309.029871 248.518198 
L 306.99771 253.218711 
L 305.155144 257.996729 
L 303.505122 262.844608 
L 302.050284 267.754592 
L 300.792956 272.718827 
L 299.735151 277.729371 
L 298.878559 282.778208 
L 298.514151 285.408 
L 297.762432 280.342487 
L 296.808748 275.311087 
L 295.654624 270.321848 
L 294.301907 265.382754 
L 292.752761 260.501704 
L 291.009664 255.686507 
L 289.075405 250.944868 
L 286.953079 246.284371 
L 284.646079 241.712472 
L 282.158098 237.236486 
L 279.493116 232.863573 
L 276.655395 228.600729 
L 273.649475 224.454773 
L 270.480167 220.432338 
L 267.152538 216.539859 
L 266.486084 215.796977 
L 269.172951 220.156479 
L 272.032001 224.405047 
L 275.058663 228.535885 
L 278.248092 232.542384 
L 281.595188 236.418136 
L 285.094595 240.15694 
L 288.740716 243.752813 
L 292.527716 247.200005 
L 296.449538 250.493 
L 300.499908 253.626529 
L 304.672345 256.59558 
L 308.960176 259.395404 
L 313.599095 262.159553 
L 309.695883 259.958712 
L 305.143978 257.612512 
L 300.50189 255.450216 
L 295.777046 253.475284 
L 290.977006 251.690875 
L 286.109448 250.099844 
L 281.182159 248.704735 
L 276.203022 247.507782 
L 271.180003 246.510899 
L 266.121137 245.71568 
L 261.034516 245.123398 
L 255.92828 244.735 
L 250.810597 244.551108 
L 245.689653 244.572015 
L 240.573641 244.797689 
L 235.470747 245.227769 
L 230.389133 245.861566 
L 225.336928 246.698066 
L 220.322216 247.735931 
L 215.353019 248.973502 
L 210.437286 250.408797 
L 205.582882 252.039521 
L 200.797572 253.863065 
L 196.089012 255.876511 
L 191.464735 258.07664 
L 186.932139 260.45993 
L 182.498474 263.022569 
L 178.170835 265.760458 
L 173.956143 268.669216 
L 169.861141 271.744191 
L 166.047246 274.849148 
L 170.831428 273.022647 
L 175.538743 271.006292 
L 180.161659 268.803307 
L 184.692782 266.417216 
L 189.124863 263.851838 
L 193.45081 261.111276 
L 197.663704 258.199914 
L 201.756804 255.12241 
L 205.723563 251.883687 
L 209.557635 248.488927 
L 213.252886 244.943561 
L 216.803404 241.25326 
L 220.203509 237.423927 
L 223.447762 233.46169 
L 226.530973 229.372887 
L 229.36545 225.288555 
L 231.078713 230.114447 
L 232.983589 234.867966 
L 235.077033 239.541509 
L 237.355693 244.127597 
L 239.815925 248.618895 
L 242.453794 253.008218 
L 245.265079 257.288543 
L 248.245282 261.453022 
L 251.389636 265.494994 
L 254.693111 269.407993 
L 258.150421 273.185757 
L 261.756036 276.822245 
L 265.504188 280.311637 
L 269.388881 283.648352 
L 271.570611 285.408 
L 275.527415 282.157123 
L 279.351055 278.750617 
L 283.035411 275.193931 
L 286.574591 271.492754 
L 289.962933 267.653009 
L 293.195015 263.680838 
L 296.265668 259.582595 
L 299.169979 255.364837 
L 301.9033 251.034311 
L 304.461261 246.597946 
L 306.839769 242.062838 
L 309.035017 237.436243 
L 311.043496 232.725561 
L 312.861991 227.938331 
L 314.487593 223.082209 
L 315.917701 218.164965 
L 317.150029 213.194465 
L 318.182604 208.17866 
L 319.013774 203.125576 
L 319.642209 198.043296 
L 320.066906 192.939951 
L 320.287183 187.823704 
L 320.302688 182.702741 
L 320.113397 177.585254 
L 319.719613 172.479431 
L 319.121965 167.393438 
L 318.32141 162.335414 
L 317.319228 157.313449 
L 316.117023 152.335577 
L 314.716718 147.409763 
L 313.120552 142.543886 
L 311.331081 137.745731 
L 309.351165 133.022973 
L 307.183974 128.383169 
L 304.832973 123.833741 
L 302.301924 119.381967 
L 299.594876 115.034968 
L 296.71616 110.7997 
L 293.670382 106.682938 
L 290.462412 102.691267 
L 287.097385 98.831074 
L 283.580683 95.108533 
L 279.917932 91.529601 
L 276.114991 88.100003 
L 272.177945 84.825224 
L 268.113092 81.710506 
L 263.926936 78.760829 
L 259.626171 75.980914 
L 255.217681 73.375206 
L 250.708516 70.947876 
L 246.10589 68.702806 
L 241.417167 66.643587 
L 236.649848 64.773515 
L 233.474815 63.648 
L 228.659947 65.392005 
L 223.918673 67.327159 
L 219.258577 69.450365 
L 214.687113 71.758227 
L 210.211597 74.247052 
L 205.839187 76.91286 
L 201.576878 79.751385 
L 197.431489 82.758086 
L 193.409652 85.928154 
L 189.517801 89.256517 
L 185.762162 92.73785 
L 182.148743 96.366583 
L 178.683326 100.136912 
L 175.371453 104.042805 
L 172.218424 108.078014 
L 169.229282 112.236082 
L 166.408809 116.510358 
L 163.761518 120.894004 
L 161.291643 125.380007 
L 159.003136 129.96119 
L 156.899659 134.630224 
L 154.984575 139.379641 
L 153.26095 144.201841 
L 151.731539 149.089111 
L 150.398791 154.033632 
L 149.264837 159.027493 
L 148.331491 164.062706 
L 147.600246 169.131215 
L 147.072273 174.224911 
L 146.748415 179.335647 
L 146.629192 184.455245 
L 146.714793 189.575516 
L 147.005082 194.688268 
L 147.499594 199.785322 
L 148.197539 204.858524 
L 149.097799 209.899757 
L 150.198935 214.900957 
L 151.499184 219.854123 
L 152.996467 224.751331 
L 154.688389 229.584746 
L 156.572242 234.346637 
L 158.645014 239.029384 
L 160.903387 243.625496 
L 163.343749 248.127622 
L 165.962197 252.528558 
L 168.75454 256.821263 
L 171.716312 260.998871 
L 174.842775 265.054698 
L 178.128927 268.982256 
L 181.56951 272.775261 
L 185.159021 276.427645 
L 188.891718 279.933565 
L 192.761628 283.287414 
L 195.379019 285.408 
L 199.335823 282.157123 
L 203.159462 278.750617 
L 206.843819 275.193931 
L 210.382999 271.492754 
L 213.771341 267.653009 
L 217.003423 263.680838 
L 220.074076 259.582595 
L 222.978386 255.364837 
L 225.711708 251.034311 
L 228.269669 246.597946 
L 230.648177 242.062838 
L 232.843425 237.436243 
L 234.851904 232.725561 
L 236.670399 227.938331 
L 237.438014 225.72533 
L 239.406945 230.452677 
L 241.563344 235.097507 
L 243.903762 239.652388 
L 246.424454 244.110035 
L 249.121389 248.463315 
L 251.990251 252.705264 
L 255.026451 256.829096 
L 258.225131 260.828214 
L 261.581175 264.69622 
L 265.089214 268.426926 
L 268.743635 272.014363 
L 272.538592 275.452794 
L 276.468014 278.736716 
L 280.525615 281.860876 
L 284.704903 284.820276 
L 285.578831 285.408 
L 289.782321 282.483077 
L 293.865483 279.392399 
L 297.821784 276.14091 
L 301.644896 272.733813 
L 305.328703 269.176556 
L 308.867311 265.474833 
L 312.255058 261.634564 
L 315.486526 257.661892 
L 318.585504 253.522839 
L 320.601914 248.815548 
L 322.42847 244.031387 
L 324.062249 239.17801 
L 325.500639 234.263182 
L 326.741336 229.294764 
L 327.782358 224.280706 
L 328.622038 219.22903 
L 329.259034 214.147815 
L 329.692325 209.045192 
L 329.92122 203.929324 
L 329.945351 198.808394 
L 329.76468 193.690596 
L 329.379497 188.584116 
L 328.790416 183.497124 
L 327.998382 178.437759 
L 327.004661 173.414113 
L 325.810842 168.434223 
L 324.418835 163.506057 
L 322.830868 158.637499 
L 321.049481 153.836336 
L 319.077523 149.110251 
L 316.91815 144.466803 
L 314.574816 139.913421 
L 312.051269 135.45739 
L 309.351547 131.105838 
L 306.479969 126.865727 
L 303.441129 122.74384 
L 300.239888 118.746771 
L 296.881367 114.880915 
L 293.37094 111.152457 
L 289.714222 107.56736 
L 285.917064 104.131361 
L 281.98554 100.849956 
L 277.925939 97.728395 
L 273.744756 94.771671 
L 269.448681 91.984516 
L 265.044585 89.371387 
L 260.539515 86.936465 
L 255.940678 84.683645 
L 251.25543 82.616532 
L 246.491268 80.738432 
L 241.655812 79.05235 
L 236.756799 77.560984 
L 231.802066 76.266719 
L 226.79954 75.171625 
L 221.757222 74.277456 
L 216.683181 73.58564 
L 211.585534 73.097285 
L 206.472435 72.813173 
L 201.352064 72.733757 
L 196.232613 72.859165 
L 191.122273 73.189196 
L 186.029218 73.723322 
L 180.961596 74.460688 
L 175.927514 75.400116 
L 170.935026 76.540102 
L 165.992119 77.878822 
L 163.488456 78.638807 
L 164.699117 83.614628 
L 166.107789 88.538057 
L 167.712219 93.401215 
L 169.50984 98.196323 
L 171.497776 102.915709 
L 173.672847 107.551825 
L 176.031574 112.097252 
L 178.570182 116.54472 
L 181.284611 120.887113 
L 184.170519 125.117484 
L 187.223287 129.229066 
L 190.438033 133.215281 
L 193.809614 137.069752 
L 197.49242 140.947974 
L 196.977932 140.567036 
L 192.794779 137.613101 
L 188.496847 134.828809 
L 184.09101 132.218617 
L 179.584318 129.786698 
L 174.98398 127.536945 
L 170.297355 125.472955 
L 165.531942 123.598032 
L 160.695364 121.915174 
L 155.795358 120.427073 
L 150.839763 119.136111 
L 145.836508 118.044353 
L 141.21369 117.219833 
L 144.519618 121.130759 
L 147.979297 124.906354 
L 151.587192 128.54058 
L 155.337532 132.027621 
L 159.224316 135.361899 
L 163.241326 138.538081 
L 167.382137 141.551084 
L 171.640124 144.396089 
L 176.008474 147.068544 
L 180.4802 149.564174 
L 185.048148 151.878986 
L 189.312052 153.838155 
L 185.780972 152.326992 
L 181.005381 150.478146 
L 176.159676 148.821751 
L 171.251609 147.360457 
L 166.289031 146.096603 
L 161.279883 145.03221 
L 156.232177 144.16898 
L 151.153988 143.508296 
L 146.053442 143.051214 
L 140.938696 142.798464 
L 135.817935 142.750452 
L 130.69935 142.907255 
L 126.205803 143.214256 
L 128.469127 147.807933 
L 130.914339 152.307426 
L 133.537527 156.705538 
L 136.334495 160.995232 
L 139.300767 165.169646 
L 142.431598 169.222101 
L 145.72198 173.146116 
L 149.166649 176.935411 
L 152.760093 180.583925 
L 156.496565 184.085822 
L 160.370087 187.435498 
L 164.374462 190.627595 
L 168.503283 193.657007 
L 172.749946 196.518887 
L 177.107657 199.208656 
L 181.569444 201.722012 
L 186.12817 204.054933 
L 190.776541 206.203688 
L 195.507121 208.164839 
L 198.581729 209.322732 
L 200.048327 214.229217 
L 201.70996 219.073128 
L 203.563968 223.846717 
L 205.607386 228.542348 
L 207.836945 233.152507 
L 210.249078 237.66982 
L 212.839925 242.087061 
L 215.605342 246.397161 
L 218.540906 250.593227 
L 221.641919 254.668546 
L 224.903421 258.616597 
L 228.320194 262.431064 
L 231.886772 266.105846 
L 235.597449 269.635064 
L 239.44629 273.013071 
L 243.427135 276.234463 
L 247.533618 279.294087 
L 251.759169 282.187049 
L 256.097027 284.908719 
L 256.936555 285.408 
L 261.295051 282.719502 
L 265.542549 279.858862 
L 269.672254 276.830655 
L 273.67756 273.639727 
L 277.552059 270.291181 
L 281.289553 266.790375 
L 284.884062 263.142909 
L 288.329836 259.354619 
L 291.621363 255.431565 
L 294.753377 251.380023 
L 297.720867 247.206475 
L 300.519086 242.917597 
L 303.143557 238.520251 
L 305.590082 234.021471 
L 307.854746 229.428456 
L 309.933928 224.748551 
L 311.8243 219.989245 
L 313.522839 215.158151 
L 315.026827 210.262998 
L 316.333858 205.311617 
L 317.441841 200.31193 
L 318.349003 195.271934 
L 319.053894 190.199693 
L 319.555385 185.103321 
L 319.852675 179.990971 
L 319.945288 174.870822 
L 319.833075 169.751065 
L 319.516216 164.639891 
L 318.995218 159.545476 
L 318.270915 154.47597 
L 317.344464 149.439484 
L 316.21735 144.444075 
L 314.891373 139.497734 
L 313.368657 134.608375 
L 311.651636 129.783819 
L 309.743058 125.031784 
L 307.645976 120.359874 
L 305.363744 115.775561 
L 302.900015 111.28618 
L 300.258729 106.898913 
L 297.444112 102.620779 
L 294.460666 98.458622 
L 291.313165 94.4191 
L 288.006644 90.508675 
L 284.546393 86.733604 
L 280.937946 83.099926 
L 277.187078 79.613454 
L 273.299788 76.279765 
L 269.282296 73.104193 
L 265.141028 70.091818 
L 260.88261 67.247459 
L 256.513855 64.575666 
L 254.899691 63.648 
L 250.492547 66.255985 
L 246.19322 69.038123 
L 242.008588 71.989963 
L 237.945345 75.106782 
L 234.009993 78.383594 
L 230.208825 81.815157 
L 226.547924 85.395982 
L 223.033146 89.120339 
L 219.670114 92.982271 
L 216.464208 96.9756 
L 213.420557 101.093936 
L 210.544031 105.330691 
L 207.83923 109.679088 
L 205.310482 114.132169 
L 202.961833 118.682812 
L 200.79704 123.323736 
L 198.819565 128.047516 
L 197.032573 132.846595 
L 195.438923 137.713296 
L 194.041163 142.639833 
L 192.981756 146.988226 
L 188.989434 150.195384 
L 185.128556 153.559627 
L 181.405301 157.075573 
L 177.825625 160.737596 
L 174.395254 164.53984 
L 171.119675 168.47622 
L 168.004131 172.54044 
L 165.053603 176.725997 
L 162.272814 181.026196 
L 159.666211 185.434157 
L 157.237964 189.942829 
L 154.991959 194.544998 
L 152.931787 199.233303 
L 151.060746 204.000241 
L 149.381828 208.838189 
L 147.89772 213.739406 
L 146.610795 218.69605 
L 145.523112 223.700193 
L 144.636412 228.743829 
L 143.952112 233.818889 
L 143.70639 236.15365 
L 148.407213 238.185093 
L 153.185513 240.026928 
L 158.033644 241.676209 
L 162.94385 243.130298 
L 167.908277 244.386867 
L 172.918983 245.443907 
L 177.967951 246.299727 
L 183.047103 246.952957 
L 188.148315 247.402553 
L 193.263426 247.647795 
L 198.384252 247.688291 
L 203.502602 247.523976 
L 208.610287 247.155113 
L 213.699135 246.582293 
L 218.761006 245.80643 
L 223.787802 244.828768 
L 228.771481 243.65087 
L 233.704071 242.274619 
L 238.577679 240.702219 
L 243.38451 238.936184 
L 248.116873 236.97934 
L 252.767198 234.834816 
L 257.328045 232.506045 
L 261.792118 229.996752 
L 266.152275 227.31095 
L 270.401541 224.452937 
L 274.533118 221.427284 
L 278.540397 218.238833 
L 282.416966 214.892684 
L 286.156624 211.39419 
L 289.753388 207.748948 
L 293.201504 203.962789 
L 296.495456 200.041771 
L 299.629975 195.992167 
L 302.600045 191.820455 
L 305.400916 187.533308 
L 308.028106 183.137586 
L 310.477412 178.64032 
L 312.744917 174.048705 
L 314.826992 169.370087 
L 316.720307 164.611951 
L 318.421833 159.781909 
L 319.928848 154.887687 
L 321.23894 149.937115 
L 322.350015 144.938114 
L 323.260294 139.89868 
L 323.968321 134.826875 
L 324.472964 129.730814 
L 324.773415 124.618649 
L 324.869194 119.498559 
L 324.760147 114.378733 
L 324.446449 109.267364 
L 324.020604 104.947029 
L 319.849186 101.976545 
L 315.562317 99.175249 
L 311.166856 96.547623 
L 306.669833 94.09787 
L 302.078444 91.82991 
L 297.400032 89.74737 
L 292.642084 87.853583 
L 287.812211 86.151578 
L 282.918138 84.644077 
L 277.967697 83.333493 
L 272.968805 82.221923 
L 267.929462 81.311144 
L 262.857728 80.602613 
L 257.761717 80.097464 
L 252.649582 79.796506 
L 247.529501 79.700219 
L 242.409665 79.808758 
L 237.298264 80.121948 
L 232.203477 80.63929 
L 227.133453 81.359955 
L 222.096303 82.282791 
L 217.100086 83.40632 
L 212.152795 84.728747 
L 207.262344 86.247954 
L 202.436557 87.961512 
L 197.683154 89.866679 
L 193.00974 91.960408 
L 188.423791 94.239349 
L 183.932643 96.699856 
L 179.543482 99.337993 
L 175.263329 102.149539 
L 171.099031 105.129997 
L 167.057252 108.274598 
L 163.144455 111.578312 
L 159.366902 115.035854 
L 155.730635 118.641691 
L 152.241472 122.390057 
L 148.904994 126.274953 
L 145.72654 130.290165 
L 142.711194 134.42927 
L 139.863779 138.685646 
L 137.188852 143.052483 
L 134.690692 147.522796 
L 132.373294 152.089433 
L 130.240368 156.745088 
L 128.295323 161.482313 
L 126.541273 166.29353 
L 124.981024 171.171042 
L 123.617071 176.107046 
L 122.451596 181.093645 
L 121.486465 186.122862 
L 120.723221 191.186651 
L 120.23523 195.500409 
L 124.936054 197.531852 
L 129.714353 199.373687 
L 134.562484 201.022968 
L 139.472691 202.477056 
L 144.437118 203.733625 
L 149.447823 204.790665 
L 154.496791 205.646485 
L 159.575943 206.299715 
L 164.677155 206.749311 
L 169.792266 206.994553 
L 174.913092 207.035049 
L 180.031442 206.870734 
L 185.139127 206.501872 
L 190.227975 205.929051 
L 195.1328 205.180385 
L 192.959318 209.817246 
L 190.972999 214.537313 
L 189.177022 219.333037 
L 187.574259 224.196745 
L 186.167275 229.120656 
L 184.95832 234.096892 
L 183.949328 239.117494 
L 183.141914 244.174428 
L 182.537369 249.259605 
L 182.136661 254.36489 
L 181.94043 259.482116 
L 181.948991 264.603095 
L 182.162329 269.719635 
L 182.580104 274.823552 
L 183.201647 279.90668 
L 184.108918 285.408 
L 184.95118 280.356753 
L 185.590773 275.275865 
L 186.026673 270.173464 
L 186.258183 265.057714 
L 186.284932 259.936797 
L 186.106877 254.818907 
L 185.724304 249.712231 
L 185.137825 244.624939 
L 184.348377 239.565169 
L 183.357223 234.541015 
L 182.16595 229.560516 
L 180.776463 224.631639 
L 179.190985 219.76227 
L 177.412053 214.960197 
L 175.442511 210.233104 
L 173.285512 205.588553 
L 170.944506 201.033974 
L 168.423237 196.576653 
L 165.72574 192.223722 
L 162.85633 187.982143 
L 159.819598 183.858703 
L 156.6204 179.859999 
L 153.263857 175.992426 
L 149.755336 172.262174 
L 146.100451 168.675208 
L 142.30505 165.237268 
L 138.375204 161.953854 
L 134.317199 158.830218 
L 130.137529 155.871357 
L 125.842879 153.082006 
L 121.875422 150.714695 
L 125.22325 152.597298 
L 129.771991 154.949629 
L 134.411161 157.118177 
L 139.133339 159.099473 
L 143.930971 160.890347 
L 148.796381 162.487935 
L 153.721786 163.889681 
L 158.699305 165.093341 
L 163.720977 166.096991 
L 168.778768 166.899025 
L 173.864585 167.49816 
L 178.970293 167.893437 
L 184.087725 168.084224 
L 185.35175 168.099808 
L 180.359055 166.960733 
L 175.324802 166.022224 
L 170.257045 165.285783 
L 165.163893 164.752586 
L 160.053492 164.423488 
L 154.934019 164.299014 
L 149.813663 164.379365 
L 144.700615 164.664411 
L 139.603057 165.153696 
L 134.529142 165.846438 
L 129.486988 166.741528 
L 124.484662 167.837534 
L 119.530165 169.132704 
L 114.631424 170.624964 
L 109.298897 172.497875 
L 110.234644 177.532642 
L 110.449326 178.550725 
L 114.314517 181.91001 
L 118.310952 185.112043 
L 122.432237 188.151699 
L 126.67178 191.024116 
L 131.022797 193.724699 
L 135.478329 196.249128 
L 140.031246 198.593363 
L 144.674267 200.753656 
L 149.399962 202.726549 
L 154.200772 204.508886 
L 159.069016 206.097817 
L 163.996906 207.490799 
L 168.976559 208.685603 
L 174.000009 209.680319 
L 179.059218 210.473355 
L 184.146093 211.063442 
L 189.252496 211.449636 
L 194.370259 211.63132 
L 199.491193 211.608202 
L 200.794489 211.569605 
L 200.956234 216.688036 
L 201.322532 221.795906 
L 201.892797 226.885041 
L 202.666118 231.947301 
L 203.641256 236.974587 
L 204.816652 241.958857 
L 206.190426 246.892137 
L 207.760379 251.766534 
L 209.524 256.574251 
L 211.478468 261.307596 
L 213.620656 265.958997 
L 215.947137 270.521013 
L 218.454189 274.986346 
L 221.137801 279.347851 
L 223.99368 283.598551 
L 225.286211 285.408 
L 228.215483 281.207539 
L 230.974438 276.893299 
L 233.558662 272.472181 
L 235.964022 267.951258 
L 238.18667 263.337763 
L 240.223048 258.639075 
L 242.069901 253.862713 
L 243.724272 249.016317 
L 245.183516 244.10764 
L 246.445299 239.144535 
L 247.5076 234.134943 
L 248.368722 229.086876 
L 249.01711 224.101124 
L 252.063897 228.21714 
L 255.272843 232.208026 
L 258.638815 236.067395 
L 262.156428 239.789075 
L 265.820056 243.36711 
L 269.623836 246.795777 
L 273.561683 250.069592 
L 277.627298 253.183315 
L 281.814177 256.131967 
L 286.115622 258.910829 
L 290.52475 261.515457 
L 295.03451 263.941684 
L 299.637685 266.185627 
L 304.326911 268.243698 
L 309.022744 270.086025 
L 305.018424 266.89386 
L 300.889654 263.864378 
L 296.643039 261.002427 
L 292.285374 258.312584 
L 287.823629 255.799153 
L 283.264943 253.466154 
L 278.616608 251.31732 
L 273.886061 249.35609 
L 269.08087 247.585599 
L 264.208721 246.008681 
L 259.27741 244.627858 
L 254.294825 243.44534 
L 249.268937 242.463017 
L 244.207788 241.682463 
L 239.119473 241.104925 
L 234.012132 240.731327 
L 228.893937 240.562267 
L 223.773075 240.598015 
L 218.657739 240.838515 
L 213.556113 241.283381 
L 208.476357 241.931902 
L 203.426598 242.783041 
L 198.414914 243.835435 
L 193.449325 245.087401 
L 188.537772 246.536936 
L 183.688114 248.181722 
L 178.908109 250.019126 
L 174.205404 252.04621 
L 169.587523 254.259731 
L 165.061853 256.656147 
L 160.635633 259.231624 
L 157.987328 260.888961 
L 158.555649 260.594303 
L 163.047735 258.135509 
L 167.437902 255.499047 
L 171.719127 252.689133 
L 175.884561 249.710264 
L 179.92754 246.567205 
L 183.841596 243.264983 
L 187.620468 239.808883 
L 191.25811 236.204433 
L 194.748703 232.457398 
L 198.086662 228.573775 
L 201.266648 224.559775 
L 204.283572 220.421821 
L 206.88599 216.549806 
L 206.503228 217.062939 
L 203.534462 221.235579 
L 200.734931 225.523601 
L 198.109115 229.920144 
L 195.661214 234.418175 
L 193.395144 239.010498 
L 191.314531 243.689766 
L 189.422703 248.448494 
L 187.722687 253.279068 
L 186.217201 258.173761 
L 184.908656 263.124741 
L 183.799144 268.12409 
L 182.890439 273.163808 
L 182.183997 278.235833 
L 181.680947 283.332052 
L 181.534841 285.408 
L 181.493491 284.769172 
L 181.047826 279.667614 
L 180.39851 274.58796 
L 179.546581 269.538334 
L 178.493403 264.526816 
L 177.24066 259.561422 
L 175.790356 254.650096 
L 174.144811 249.800696 
L 172.306658 245.020979 
L 170.278838 240.318591 
L 168.064595 235.701056 
L 165.667471 231.175761 
L 163.091301 226.749945 
L 160.340205 222.430688 
L 157.418587 218.224901 
L 154.331118 214.139312 
L 151.082739 210.180456 
L 147.678647 206.354668 
L 144.124287 202.668067 
L 140.425345 199.126552 
L 136.587739 195.735787 
L 132.617608 192.501198 
L 128.521304 189.42796 
L 124.30538 186.520988 
L 119.97658 183.784934 
L 115.54183 181.224173 
L 111.008224 178.842804 
L 110.460894 178.570762 
L 110.689796 173.454894 
L 110.728609 170.021542 
L 115.116986 167.3821 
L 119.396303 164.569281 
L 123.559714 161.587586 
L 127.600559 158.441783 
L 131.512373 155.136906 
L 135.288898 151.678241 
L 138.924093 148.071323 
L 142.412141 144.32192 
L 145.747464 140.436032 
L 148.924724 136.419875 
L 151.93884 132.279874 
L 154.784989 128.022652 
L 157.458617 123.65502 
L 159.955449 119.183965 
L 162.271488 114.616639 
L 164.403031 109.96035 
L 166.346667 105.222547 
L 168.099286 100.410808 
L 169.658086 95.532832 
L 171.020571 90.596423 
L 172.184563 85.609478 
L 173.148199 80.579974 
L 173.909938 75.515958 
L 174.468561 70.425532 
L 174.823174 65.316838 
L 174.89461 63.648 
L 174.947416 64.927237 
L 175.286465 70.036987 
L 175.829577 75.129092 
L 176.575885 80.195405 
L 177.524195 85.227821 
L 178.672989 90.218289 
L 180.02043 95.158826 
L 181.564361 100.041528 
L 183.302314 104.858583 
L 185.231507 109.602286 
L 187.348855 114.265047 
L 189.65097 118.839407 
L 192.134169 123.318048 
L 194.794479 127.693805 
L 197.627645 131.959678 
L 200.629135 136.108842 
L 201.308969 137.001935 
L 197.421767 133.668145 
L 193.404358 130.492468 
L 189.263169 127.479984 
L 185.004825 124.635514 
L 180.636139 121.963607 
L 176.1641 119.468539 
L 171.595862 117.1543 
L 166.938733 115.024593 
L 162.200164 113.082825 
L 157.387735 111.332102 
L 152.509145 109.775226 
L 147.572199 108.414686 
L 146.457812 108.136747 
L 150.072149 111.764566 
L 153.828669 115.244948 
L 157.721362 118.572326 
L 161.744001 121.741375 
L 165.890151 124.747027 
L 170.153178 127.584474 
L 174.526263 130.249174 
L 179.00241 132.736867 
L 183.574457 135.043572 
L 188.23509 137.165598 
L 192.976855 139.099551 
L 197.632046 140.787866 
L 195.263244 136.247681 
L 192.714778 131.805854 
L 189.990725 127.469492 
L 187.095442 123.245532 
L 184.033562 119.140731 
L 180.809983 115.161656 
L 177.429861 111.314672 
L 173.898606 107.605935 
L 170.221865 104.041377 
L 166.40552 100.6267 
L 162.455678 97.367368 
L 158.378656 94.268594 
L 155.601208 92.299921 
L 156.180022 92.573392 
L 160.858271 94.656294 
L 165.616073 96.550449 
L 170.445815 98.252828 
L 175.339771 99.760708 
L 180.290111 101.071675 
L 185.288916 102.183632 
L 190.328189 103.094802 
L 195.399868 103.803725 
L 200.49584 104.309268 
L 205.607952 104.610622 
L 210.728025 104.707306 
L 215.84787 104.599163 
L 220.959294 104.286368 
L 226.054122 103.769421 
L 231.124202 103.049148 
L 236.161423 102.126703 
L 241.157726 101.00356 
L 246.10512 99.681516 
L 250.995689 98.162688 
L 255.821608 96.449503 
L 260.575159 94.544704 
L 265.248735 92.451337 
L 269.834861 90.172751 
L 274.326199 87.712591 
L 278.715564 85.074794 
L 282.995935 82.263579 
L 287.160463 79.283444 
L 291.202486 76.139156 
L 295.115538 72.835745 
L 298.893359 69.378496 
L 301.82192 66.497781 
L 296.891955 67.883403 
L 292.021343 69.465061 
L 287.217877 71.240227 
L 282.489241 73.206061 
L 277.842999 75.359417 
L 273.286586 77.696851 
L 268.827289 80.214623 
L 264.472244 82.908705 
L 260.228416 85.774788 
L 256.102596 88.808286 
L 252.101384 92.004347 
L 248.23118 95.357856 
L 244.498177 98.86345 
L 240.908347 102.515521 
L 237.467431 106.308225 
L 234.180936 110.235495 
L 231.054119 114.291048 
L 228.091981 118.468397 
L 225.299262 122.760858 
L 224.080146 124.759767 
L 219.677453 122.144276 
L 215.17369 119.706938 
L 210.576062 117.451651 
L 205.891923 115.382025 
L 201.128769 113.50137 
L 196.294219 111.812695 
L 191.396007 110.318701 
L 186.441969 109.021778 
L 181.44003 107.924001 
L 176.398193 107.027127 
L 171.324524 106.332589 
L 166.227139 105.8415 
L 161.114193 105.554645 
L 155.993866 105.472482 
L 150.874349 105.595144 
L 147.826792 105.765605 
L 150.172472 110.317778 
L 152.698315 114.772509 
L 155.400279 119.122669 
L 158.274042 123.361299 
L 161.315006 127.48162 
L 164.518306 131.477038 
L 167.878819 135.341163 
L 171.391167 139.067812 
L 175.049731 142.651023 
L 178.84866 146.085065 
L 182.781875 149.364444 
L 186.843083 152.483912 
L 189.171443 154.159509 
L 184.138285 153.21515 
L 179.071387 152.472819 
L 173.978858 151.933704 
L 168.868843 151.598667 
L 163.749518 151.468244 
L 158.629072 151.542643 
L 153.515697 151.821747 
L 148.417573 152.305107 
L 143.342857 152.991952 
L 138.299666 153.881181 
L 133.296069 154.971373 
L 128.340071 156.260784 
L 123.439599 157.74735 
L 118.602494 159.428694 
L 116.348743 160.287184 
L 117.216299 165.334148 
L 118.284986 170.342383 
L 119.553094 175.303875 
L 121.018595 180.210687 
L 122.679143 185.054971 
L 124.532083 189.828975 
L 126.57445 194.525063 
L 128.802976 199.135721 
L 131.214097 203.653574 
L 133.803956 208.071394 
L 136.568408 212.382114 
L 139.503032 216.578837 
L 142.603133 220.654849 
L 145.863751 224.60363 
L 149.27967 228.418863 
L 152.845426 232.094443 
L 156.555313 235.624491 
L 160.403397 239.00336 
L 164.383521 242.225643 
L 168.489319 245.286186 
L 172.714222 248.180094 
L 177.051471 250.902735 
L 181.494126 253.449755 
L 186.035082 255.817078 
L 190.667074 258.000919 
L 195.38269 259.997782 
L 200.174388 261.804473 
L 205.034501 263.418103 
L 209.955255 264.836089 
L 214.928777 266.056163 
L 219.947111 267.076374 
L 225.002228 267.895088 
L 230.086041 268.510997 
L 235.190418 268.923115 
L 240.307192 269.130783 
L 245.428177 269.133668 
L 250.545182 268.931766 
L 255.65002 268.5254 
L 260.734524 267.91522 
L 265.79056 267.102202 
L 270.81004 266.087647 
L 275.784934 264.873177 
L 280.707282 263.460737 
L 285.569211 261.852585 
L 290.362941 260.051294 
L 295.080805 258.059745 
L 299.715254 255.881126 
L 304.258875 253.518921 
L 308.704398 250.976908 
L 313.044711 248.259156 
L 317.272872 245.370011 
L 321.382116 242.314096 
L 325.365869 239.0963 
L 328.474793 236.394089 
L 329.431936 231.363346 
L 330.187137 226.298351 
L 330.739188 221.207207 
L 331.087207 216.09806 
L 331.230635 210.979083 
L 331.169245 205.858464 
L 330.903133 200.744397 
L 330.432726 195.645062 
L 329.758777 190.568617 
L 328.882363 185.523183 
L 327.804886 180.516833 
L 326.528071 175.557574 
L 325.053959 170.653342 
L 323.38491 165.811981 
L 321.523592 161.041236 
L 319.472985 156.348741 
L 317.236369 151.742002 
L 314.81732 147.228388 
L 312.219711 142.815121 
L 309.447696 138.509261 
L 306.505709 134.317696 
L 303.398458 130.247131 
L 300.130913 126.30408 
L 296.708302 122.49485 
L 293.1361 118.825535 
L 289.420022 115.302004 
L 285.566013 111.929896 
L 281.580238 108.714604 
L 277.469074 105.661273 
L 273.239098 102.774786 
L 268.897077 100.059763 
L 264.449957 97.520545 
L 259.904852 95.161197 
L 255.269035 92.985491 
L 250.54992 90.996908 
L 245.755058 89.198631 
L 240.89212 87.593535 
L 235.968885 86.184189 
L 230.993229 84.972847 
L 225.973112 83.961448 
L 220.916565 83.151608 
L 215.831679 82.544624 
L 210.726587 82.141467 
L 205.609456 81.942782 
L 200.488473 81.948886 
L 195.371831 82.15977 
L 190.267714 82.575096 
L 185.184289 83.194201 
L 180.129688 84.016093 
L 175.111996 85.039458 
L 170.139242 86.262658 
L 165.219381 87.683737 
L 160.360283 89.300421 
L 156.501255 90.740994 
L 157.368811 95.787958 
L 158.437498 100.796192 
L 159.705606 105.757685 
L 161.171106 110.664497 
L 162.831655 115.508781 
L 164.684594 120.282785 
L 166.726961 124.978872 
L 168.955488 129.589531 
L 171.366609 134.107384 
L 173.956467 138.525204 
L 176.72092 142.835924 
L 179.655544 147.032647 
L 182.755645 151.108659 
L 186.016263 155.05744 
L 187.948269 157.252905 
L 182.900749 158.117221 
L 177.89183 159.182693 
L 172.929525 160.447615 
L 168.021772 161.909966 
L 163.176424 163.567404 
L 158.401231 165.417278 
L 153.703833 167.45663 
L 149.091745 169.682196 
L 144.572345 172.090417 
L 140.152863 174.677438 
L 135.84037 177.439123 
L 131.641764 180.371052 
L 127.563762 183.468536 
L 123.612889 186.726618 
L 119.795464 190.140088 
L 118.079731 191.766975 
L 122.973297 190.257833 
L 127.8026 188.554207 
L 132.559912 186.658823 
L 137.237624 184.574714 
L 141.828253 182.305213 
L 146.324453 179.853952 
L 150.719033 177.224851 
L 155.004961 174.422116 
L 159.175382 171.450233 
L 163.223623 168.313954 
L 167.143208 165.018297 
L 170.927867 161.568535 
L 174.571545 157.970186 
L 178.068413 154.229008 
L 181.412876 150.350984 
L 184.599585 146.34232 
L 187.623441 142.209428 
L 190.479606 137.958919 
L 193.163512 133.597595 
L 195.670865 129.132431 
L 197.997653 124.570572 
L 200.140154 119.919315 
L 202.09494 115.186102 
L 203.858885 110.378503 
L 205.429166 105.504212 
L 206.803272 100.571025 
L 207.979004 95.586834 
L 208.95448 90.559613 
L 209.728141 85.497405 
L 210.298749 80.408308 
L 210.665391 75.300464 
L 210.827481 70.182043 
L 210.784758 65.061235 
L 210.736881 63.648 
L 210.692863 64.92757 
L 210.644792 70.048331 
L 210.801536 75.166918 
L 211.162843 80.275142 
L 211.728135 85.364832 
L 212.496509 90.427846 
L 213.466734 95.456082 
L 214.63726 100.441498 
L 216.006212 105.376118 
L 217.571402 110.252047 
L 219.330325 115.061485 
L 221.280167 119.796737 
L 223.623255 124.872891 
L 223.314479 119.761222 
L 222.801538 114.665989 
L 222.085252 109.595345 
L 221.166768 104.5574 
L 220.047554 99.560214 
L 218.729401 94.611783 
L 217.214418 89.720021 
L 215.505029 84.892756 
L 213.603968 80.13771 
L 211.514276 75.462489 
L 209.239297 70.874573 
L 206.78267 66.381302 
L 205.171163 63.648 
L 202.603944 68.079014 
L 200.215972 72.609146 
L 198.011067 77.231147 
L 195.992756 81.937624 
L 194.164269 86.721047 
L 192.52853 91.573764 
L 191.088157 96.488011 
L 189.845453 101.455927 
L 188.802407 106.469564 
L 187.960687 111.520901 
L 187.32164 116.601858 
L 186.886288 121.704306 
L 186.655328 126.820081 
L 186.629129 131.941001 
L 186.807734 137.058871 
L 187.190855 142.165506 
L 187.777881 147.252736 
L 188.567873 152.312421 
L 188.990185 154.582863 
L 184.757304 157.465087 
L 180.643066 160.514276 
L 176.654054 163.725551 
L 172.79665 167.093775 
L 169.077024 170.61356 
L 165.501128 174.279275 
L 162.074681 178.085055 
L 158.803166 182.024813 
L 155.691816 186.092245 
L 152.745608 190.280844 
L 149.969257 194.58391 
L 147.367203 198.994558 
L 144.943609 203.505732 
L 142.702353 208.110216 
L 140.647019 212.800643 
L 138.780897 217.56951 
L 137.106972 222.409187 
L 136.633558 223.903145 
L 141.649552 224.934795 
L 146.702789 225.765034 
L 151.785185 226.392533 
L 156.888609 226.816288 
L 162.004896 227.035622 
L 167.125861 227.050184 
L 172.243313 226.85995 
L 177.349064 226.465224 
L 182.434946 225.866639 
L 187.492823 225.065152 
L 192.514604 224.062044 
L 197.492254 222.858921 
L 202.41781 221.457708 
L 207.283392 219.860646 
L 210.32883 218.749607 
L 211.200166 223.79592 
L 212.272604 228.803352 
L 213.544428 233.763893 
L 215.013604 238.669607 
L 216.67778 243.512645 
L 218.534296 248.28526 
L 220.580179 252.979816 
L 222.812159 257.588804 
L 225.226664 262.10485 
L 227.819831 266.520729 
L 230.587511 270.829376 
L 233.525278 275.0239 
L 236.628431 279.097589 
L 239.892006 283.043926 
L 241.979294 285.408 
L 245.339077 281.543241 
L 248.541623 277.547217 
L 251.581808 273.426323 
L 254.45477 269.18715 
L 257.155913 264.836479 
L 259.680914 260.381272 
L 262.025735 255.828656 
L 264.186624 251.185913 
L 266.160124 246.460471 
L 267.943079 241.659891 
L 269.532635 236.791851 
L 270.926251 231.86414 
L 272.121695 226.88464 
L 273.117057 221.861319 
L 273.910743 216.802212 
L 274.501484 211.715412 
L 274.793405 208.147338 
L 279.783913 206.998713 
L 284.724495 205.65144 
L 289.607249 204.107674 
L 294.424364 202.369885 
L 299.168132 200.440853 
L 303.830965 198.323664 
L 308.405403 196.021704 
L 312.884128 193.538657 
L 317.259976 190.878495 
L 321.525945 188.045474 
L 325.675211 185.044126 
L 329.701136 181.879252 
L 333.59728 178.555915 
L 337.357409 175.079433 
L 340.975509 171.455366 
L 344.44579 167.689513 
L 347.762701 163.787898 
L 350.920936 159.756762 
L 353.56114 156.112739 
L 348.468802 156.653666 
L 343.40217 157.397799 
L 338.369347 158.343948 
L 333.378386 159.4906 
L 328.437271 160.835919 
L 323.553907 162.377755 
L 318.736106 164.11364 
L 313.991575 166.040796 
L 309.327906 168.156142 
L 304.752558 170.456293 
L 300.272852 172.937569 
L 295.895953 175.596001 
L 291.628864 178.427336 
L 287.478412 181.427044 
L 286.838047 181.912807 
L 289.934298 185.991745 
L 293.191186 189.943604 
L 296.6035 193.76206 
L 300.165783 197.441006 
L 303.872335 200.974556 
L 307.717227 204.357057 
L 311.694306 207.583097 
L 315.797212 210.647516 
L 320.01938 213.545412 
L 324.354056 216.272148 
L 328.794305 218.823362 
L 333.333023 221.194973 
L 336.39885 222.669219 
L 332.150066 219.810489 
L 327.790362 217.123952 
L 323.326713 214.613905 
L 318.766258 212.284364 
L 314.116295 210.139056 
L 309.384262 208.181413 
L 304.57773 206.414567 
L 299.704387 204.841344 
L 294.77203 203.464262 
L 289.78855 202.285522 
L 284.761919 201.307012 
L 280.23825 200.603041 
L 283.373615 204.65199 
L 286.668386 208.572319 
L 290.117293 212.357757 
L 293.714819 216.002248 
L 297.455208 219.49996 
L 301.332476 222.8453 
L 305.340421 226.032913 
L 309.47263 229.057702 
L 313.722493 231.914828 
L 318.083211 234.599718 
L 322.547808 237.108079 
L 326.804315 239.287441 
L 322.500335 236.512508 
L 318.08883 233.911907 
L 313.576857 231.489799 
L 308.971635 229.25006 
L 304.280531 227.196272 
L 299.51105 225.331721 
L 294.670821 223.65939 
L 289.767589 222.181954 
L 284.809198 220.901777 
L 279.803579 219.820907 
L 274.75874 218.941072 
L 269.682753 218.263681 
L 264.583738 217.789817 
L 263.668053 217.726459 
L 261.906097 222.534787 
L 260.337833 227.409728 
L 258.965768 232.343483 
L 257.792099 237.32816 
L 256.818702 242.355784 
L 256.047135 247.418311 
L 255.478633 252.507644 
L 255.114104 257.61564 
L 254.954132 262.734127 
L 254.998973 267.854917 
L 255.248555 272.969818 
L 255.70248 278.070647 
L 256.360019 283.149243 
L 256.719181 285.408 
L 257.467334 280.341959 
L 258.012301 275.250053 
L 258.35321 270.140426 
L 258.489516 265.021254 
L 258.421001 259.900726 
L 258.147774 254.787034 
L 257.670272 249.688358 
L 256.98926 244.612856 
L 256.105827 239.568646 
L 255.021385 234.5638 
L 253.737671 229.606323 
L 252.256737 224.704146 
L 251.791829 223.297312 
L 254.471615 231.174664 
L 256.373032 235.929568 
L 258.463073 240.604633 
L 260.738396 245.192379 
L 263.195359 249.685466 
L 265.830033 254.076707 
L 268.638202 258.359076 
L 271.615373 262.525724 
L 274.756785 266.569983 
L 278.057412 270.485384 
L 281.511972 274.265664 
L 285.11494 277.904774 
L 288.860552 281.396893 
L 292.742815 284.736434 
L 293.562746 285.408 
L 297.472521 282.10071 
L 301.246911 278.639716 
L 304.87988 275.030556 
L 308.276203 271.379072 
L 309.777146 266.482984 
L 311.081096 261.530791 
L 312.185969 256.530415 
L 313.089996 251.489856 
L 313.791732 246.417178 
L 314.290053 241.320494 
L 314.584162 236.207961 
L 314.67359 231.087755 
L 314.558192 225.968069 
L 314.238154 220.857093 
L 313.713987 215.763003 
L 312.986531 210.693949 
L 312.056948 205.65804 
L 310.926726 200.663333 
L 309.597673 195.717818 
L 308.071915 190.829407 
L 306.351893 186.00592 
L 304.44036 181.255073 
L 302.340372 176.584468 
L 300.055289 172.001576 
L 297.588768 167.513729 
L 294.944753 163.128106 
L 292.127475 158.851723 
L 289.141441 154.691423 
L 285.991428 150.653859 
L 282.682475 146.745492 
L 279.219876 142.972574 
L 275.60917 139.341141 
L 271.856134 135.857003 
L 267.966771 132.525733 
L 263.947304 129.352661 
L 259.804163 126.342862 
L 255.543977 123.501153 
L 251.17356 120.832078 
L 246.699904 118.339909 
L 242.130167 116.028632 
L 237.471659 113.901944 
L 232.731832 111.963248 
L 227.918269 110.215645 
L 223.038671 108.661931 
L 218.100845 107.304592 
L 213.112688 106.145799 
L 208.082183 105.187406 
L 203.017376 104.430946 
L 197.92637 103.87763 
L 192.817309 103.528342 
L 187.698368 103.383641 
L 182.577734 103.44376 
L 177.463601 103.708601 
L 172.364149 104.17774 
L 167.287537 104.850429 
L 162.241885 105.725589 
L 157.235267 106.801822 
L 152.275692 108.077405 
L 147.371093 109.550298 
L 145.23161 110.260591 
L 146.320415 115.26449 
L 147.60845 120.220846 
L 149.093657 125.12173 
L 150.773659 129.959301 
L 152.645769 134.72582 
L 154.70699 139.413663 
L 156.954027 144.015329 
L 159.383284 148.523456 
L 161.990875 152.930833 
L 164.772628 157.230409 
L 167.724093 161.415305 
L 170.840549 165.478826 
L 174.117009 169.414472 
L 177.548232 173.215947 
L 181.128729 176.877169 
L 184.852772 180.39228 
L 185.335689 180.827946 
L 182.560702 185.131892 
L 179.960046 189.543364 
L 177.537882 194.055307 
L 175.298085 198.660501 
L 173.244238 203.351579 
L 171.379627 208.121037 
L 169.707236 212.961244 
L 168.229738 217.864458 
L 166.949499 222.822833 
L 165.868566 227.828439 
L 164.988668 232.873266 
L 164.311214 237.949245 
L 163.837286 243.048254 
L 163.567644 248.162136 
L 163.502717 253.282711 
L 163.642612 258.401786 
L 163.987102 263.511173 
L 164.535638 268.602696 
L 165.255261 273.477389 
L 169.271081 276.655076 
L 173.410762 279.669631 
L 177.667682 282.516231 
L 182.408494 285.408 
L 186.784846 282.748668 
L 191.051352 279.916456 
L 195.201188 276.915895 
L 199.227713 273.751785 
L 203.124488 270.429188 
L 206.885276 266.953419 
L 210.504063 263.330038 
L 213.975059 259.564844 
L 217.29271 255.663858 
L 220.45171 251.633322 
L 223.447005 247.479683 
L 226.273802 243.209588 
L 228.92758 238.829866 
L 231.404093 234.347524 
L 233.699379 229.769734 
L 235.53627 225.73748 
L 237.557779 230.442584 
L 239.765825 235.063085 
L 242.156876 239.591593 
L 244.727106 244.020861 
L 247.472404 248.343805 
L 250.388377 252.553508 
L 253.470361 256.643236 
L 256.713426 260.606446 
L 260.112382 264.436798 
L 263.661793 268.128165 
L 267.35598 271.67464 
L 271.189033 275.07055 
L 275.15482 278.310462 
L 279.246998 281.389194 
L 283.459018 284.301819 
L 285.158203 285.408 
L 289.415817 282.562439 
L 293.556234 279.548895 
L 297.57283 276.372189 
L 301.459178 273.037402 
L 305.209062 269.549871 
L 308.816482 265.915174 
L 312.275668 262.139127 
L 315.581085 258.227769 
L 316.613578 256.938315 
L 318.410224 252.142842 
L 320.013666 247.279358 
L 321.421337 242.355644 
L 322.630986 237.379576 
L 323.640679 232.359116 
L 324.448798 227.302294 
L 325.054052 222.217201 
L 325.455473 217.111972 
L 325.652418 211.994774 
L 325.644572 206.873794 
L 325.431948 201.757223 
L 325.014885 196.653248 
L 324.394052 191.570034 
L 323.57044 186.515713 
L 322.545369 181.49837 
L 321.320477 176.526032 
L 319.897725 171.606654 
L 318.279388 166.748106 
L 316.468056 161.958161 
L 314.466625 157.244481 
L 312.278299 152.614607 
L 309.906577 148.075947 
L 307.355255 143.63576 
L 304.628413 139.301151 
L 301.730415 135.079054 
L 298.665895 130.976223 
L 295.439758 126.999222 
L 292.057163 123.154413 
L 288.523523 119.447947 
L 284.84449 115.885754 
L 281.02595 112.473533 
L 277.074012 109.216741 
L 272.994999 106.120591 
L 268.795435 103.190033 
L 264.482039 100.429758 
L 260.061712 97.84418 
L 255.541526 95.437437 
L 250.92871 93.213378 
L 246.230646 91.175561 
L 241.45485 89.327247 
L 236.60896 87.671392 
L 231.70073 86.210646 
L 226.738012 84.947345 
L 221.728744 83.88351 
L 216.680942 83.020844 
L 211.60268 82.360725 
L 206.502082 81.904211 
L 201.387309 81.652032 
L 196.266542 81.604591 
L 191.147974 81.761964 
L 186.039794 82.123899 
L 180.950174 82.689817 
L 175.887255 83.458814 
L 170.859138 84.429657 
L 165.873866 85.600796 
L 160.939414 86.970355 
L 158.182315 87.829312 
L 159.351317 92.815086 
L 160.718762 97.750123 
L 162.282463 102.62653 
L 164.039916 107.436505 
L 165.988312 112.172353 
L 168.124532 116.826498 
L 170.44516 121.391494 
L 172.946483 125.860038 
L 175.624499 130.224981 
L 178.474924 134.479341 
L 181.493198 138.616312 
L 184.674492 142.629274 
L 188.013718 146.511809 
L 191.221908 149.964455 
L 186.180746 149.063794 
L 181.1076 148.365446 
L 176.010585 147.870529 
L 170.897856 147.579834 
L 165.777592 147.493826 
L 160.657984 147.612643 
L 155.547223 147.936094 
L 150.453484 148.463663 
L 145.384917 149.194504 
L 140.34963 150.12745 
L 135.355679 151.261008 
L 130.411053 152.593363 
L 125.523661 154.122385 
L 120.701324 155.845628 
L 118.39136 156.749269 
L 119.212388 161.80401 
L 120.234896 166.821876 
L 121.457247 171.794839 
L 122.877485 176.714944 
L 124.493339 181.574318 
L 126.302224 186.365188 
L 128.301246 191.07989 
L 130.487206 195.710881 
L 132.856608 200.250753 
L 135.405662 204.692242 
L 138.130288 209.028244 
L 141.026129 213.251822 
L 144.088552 217.356218 
L 147.312657 221.334867 
L 150.693287 225.181404 
L 154.225033 228.889674 
L 157.902245 232.453747 
L 161.719041 235.867919 
L 165.669314 239.126729 
L 169.746745 242.224964 
L 173.944811 245.157666 
L 178.256796 247.920145 
L 182.675801 250.507981 
L 187.194757 252.917034 
L 191.806435 255.143449 
L 196.503458 257.183666 
L 201.27831 259.03442 
L 206.123352 260.692751 
L 211.030836 262.156005 
L 215.992908 263.421842 
L 221.001631 264.488236 
L 226.048991 265.353481 
L 231.126916 266.016194 
L 236.227279 266.475314 
L 241.341923 266.730107 
L 246.462665 266.780165 
L 251.581312 266.625407 
L 256.689677 266.266082 
L 261.779586 265.702764 
L 266.842897 264.936355 
L 271.87151 263.968081 
L 276.85738 262.79949 
L 281.79253 261.432452 
L 286.669066 259.869154 
L 291.479186 258.112098 
L 296.215195 256.164093 
L 300.869516 254.028257 
L 305.434703 251.708006 
L 309.903454 249.207052 
L 314.268618 246.529396 
L 318.523214 243.679322 
L 322.660433 240.661389 
L 326.673658 237.480426 
L 328.967535 235.540634 
L 329.83437 230.493546 
L 330.498683 225.415831 
L 330.959409 220.315612 
L 331.215813 215.201049 
L 331.267483 210.080323 
L 331.114338 204.961627 
L 330.756622 199.853149 
L 330.194908 194.763063 
L 329.430093 189.699511 
L 328.463403 184.670593 
L 327.296382 179.684356 
L 325.930899 174.748775 
L 324.369137 169.871747 
L 322.613596 165.061074 
L 320.667083 160.324452 
L 318.532713 155.669458 
L 316.2139 151.10354 
L 313.714354 146.634002 
L 311.038073 142.267994 
L 308.189339 138.012502 
L 305.17271 133.874332 
L 301.993011 129.860105 
L 298.655329 125.976243 
L 295.165004 122.22896 
L 291.527619 118.62425 
L 287.748994 115.16788 
L 283.835174 111.865379 
L 279.792419 108.722031 
L 275.627198 105.742865 
L 271.346173 102.932645 
L 266.956194 100.295869 
L 262.464284 97.836755 
L 257.877628 95.559236 
L 253.203565 93.466956 
L 248.449572 91.563263 
L 243.623254 89.851201 
L 238.732332 88.33351 
L 233.784631 87.012617 
L 228.788066 85.890637 
L 223.750631 84.969363 
L 218.680384 84.25027 
L 213.585436 83.734507 
L 208.473939 83.422901 
L 203.354069 83.31595 
L 198.234018 83.413824 
L 193.121977 83.716368 
L 188.026123 84.223096 
L 182.954608 84.933199 
L 177.915548 85.845541 
L 172.917001 86.958661 
L 167.966966 88.27078 
L 163.073362 89.779797 
L 158.244016 91.4833 
L 155.444123 92.572 
L 156.265152 97.626741 
L 157.287659 102.644607 
L 158.51001 107.61757 
L 159.930249 112.537674 
L 161.546103 117.397049 
L 163.354988 122.187919 
L 165.35401 126.902621 
L 167.53997 131.533612 
L 169.909372 136.073484 
L 172.458425 140.514973 
L 175.183052 144.850975 
L 178.078893 149.074552 
L 181.141316 153.178949 
L 184.365421 157.157598 
L 186.997885 160.17926 
L 186.997885 160.17926 
" style="fill:none;stroke:#1f77b4;stroke-linecap:square;stroke-width:1.5;"/>
   </g>
   <g id="patch_4">
    <path d="M 82.520165 307.584 
L 82.520165 41.472 
" style="fill:none;stroke:#000000;stroke-linecap:square;stroke-linejoin:miter;stroke-width:0.8;"/>
   </g>
   <g id="patch_5">
    <path d="M 389.799835 307.584 
L 389.799835 41.472 
" style="fill:none;stroke:#000000;stroke-linecap:square;stroke-linejoin:miter;stroke-width:0.8;"/>
   </g>
   <g id="patch_6">
    <path d="M 82.520165 307.584 
L 389.799835 307.584 
" style="fill:none;stroke:#000000;stroke-linecap:square;stroke-linejoin:miter;stroke-width:0.8;"/>
   </g>
   <g id="patch_7">
    <path d="M 82.520165 41.472 
L 389.799835 41.472 
" style="fill:none;stroke:#000000;stroke-linecap:square;stroke-linejoin:miter;stroke-width:0.8;"/>
   </g>
  </g>
 </g>
 <defs>
  <clipPath id="pd44ff2f9dd">
   <rect height="266.112" width="307.27967" x="82.520165" y="41.472"/>
  </clipPath>
 </defs>
</svg>
